<svg width="34" height="16" viewBox="0 0 34 16" fill="none" xmlns="http://www.w3.org/2000/svg">
<rect x="0.5" y="0.5" width="33" height="15" rx="1.5" stroke="#6DD488"/>
<path d="M6.83051 12.12C6.23051 12.12 5.71051 11.9867 5.27051 11.72C4.83717 11.4467 4.50384 11.0467 4.27051 10.52C4.03717 9.99333 3.92051 9.33667 3.92051 8.55C3.92051 7.77 4.03717 7.11 4.27051 6.57C4.50384 6.02333 4.83717 5.61 5.27051 5.33C5.71051 5.04333 6.23051 4.9 6.83051 4.9C7.43051 4.9 7.93384 5.03333 8.34051 5.3C8.74718 5.56667 9.06718 5.95667 9.30051 6.47L8.41051 6.97C8.28384 6.63 8.09051 6.36 7.83051 6.16C7.57718 5.95333 7.24384 5.85 6.83051 5.85C6.27717 5.85 5.84384 6.04333 5.53051 6.43C5.21717 6.81667 5.06051 7.34 5.06051 8V9.07C5.06051 9.73 5.21717 10.2467 5.53051 10.62C5.84384 10.9867 6.27717 11.17 6.83051 11.17C7.25051 11.17 7.59717 11.06 7.87051 10.84C8.14384 10.62 8.34718 10.3333 8.48051 9.98L9.34051 10.5C9.10718 11 8.78051 11.3967 8.36051 11.69C7.94051 11.9767 7.43051 12.12 6.83051 12.12ZM10.9291 12V6.81H11.9491V7.82H11.9991C12.0524 7.64667 12.1391 7.48333 12.2591 7.33C12.3791 7.17667 12.5358 7.05333 12.7291 6.96C12.9291 6.86 13.1658 6.81 13.4391 6.81H13.7391V7.8H13.2991C13.0124 7.8 12.7691 7.83667 12.5691 7.91C12.3691 7.97667 12.2158 8.07 12.1091 8.19C12.0024 8.31 11.9491 8.46 11.9491 8.64V12H10.9291ZM17.1293 12.12C16.6493 12.12 16.2293 12.01 15.8693 11.79C15.516 11.5633 15.2393 11.2467 15.0393 10.84C14.846 10.4333 14.7493 9.95333 14.7493 9.4C14.7493 8.84667 14.846 8.37 15.0393 7.97C15.2393 7.56333 15.516 7.25 15.8693 7.03C16.2293 6.80333 16.6493 6.69 17.1293 6.69C17.6027 6.69 18.016 6.80333 18.3693 7.03C18.7293 7.25 19.006 7.56333 19.1993 7.97C19.3993 8.37 19.4993 8.84667 19.4993 9.4C19.4993 9.95333 19.3993 10.4333 19.1993 10.84C19.006 11.2467 18.7293 11.5633 18.3693 11.79C18.016 12.01 17.6027 12.12 17.1293 12.12ZM17.1293 11.26C17.516 11.26 17.826 11.14 18.0593 10.9C18.2927 10.66 18.4093 10.3033 18.4093 9.83V8.98C18.4093 8.50667 18.2927 8.15 18.0593 7.91C17.826 7.67 17.516 7.55 17.1293 7.55C16.7493 7.55 16.4393 7.67 16.1993 7.91C15.9593 8.15 15.8393 8.50667 15.8393 8.98V9.83C15.8393 10.3033 15.9593 10.66 16.1993 10.9C16.4393 11.14 16.7493 11.26 17.1293 11.26ZM22.7948 12.12C22.3148 12.12 21.9081 12.0333 21.5748 11.86C21.2415 11.68 20.9515 11.4367 20.7048 11.13L21.3748 10.53C21.5681 10.7633 21.7848 10.9467 22.0248 11.08C22.2648 11.2133 22.5415 11.28 22.8548 11.28C23.1815 11.28 23.4248 11.2167 23.5848 11.09C23.7515 10.9633 23.8348 10.7867 23.8348 10.56C23.8348 10.38 23.7781 10.23 23.6648 10.11C23.5515 9.99 23.3481 9.91 23.0548 9.87L22.5948 9.81C22.2548 9.75667 21.9548 9.67333 21.6948 9.56C21.4415 9.44 21.2448 9.27667 21.1048 9.07C20.9648 8.85667 20.8948 8.59 20.8948 8.27C20.8948 7.76333 21.0715 7.37333 21.4248 7.1C21.7848 6.82667 22.2448 6.69 22.8048 6.69C23.1115 6.69 23.3781 6.72333 23.6048 6.79C23.8381 6.85667 24.0448 6.95333 24.2248 7.08C24.4048 7.2 24.5681 7.34667 24.7148 7.52L24.0848 8.13C23.9515 7.96333 23.7748 7.82333 23.5548 7.71C23.3415 7.59 23.0881 7.53 22.7948 7.53C22.4948 7.53 22.2681 7.59 22.1148 7.71C21.9615 7.83 21.8848 7.99667 21.8848 8.21C21.8848 8.41667 21.9548 8.57333 22.0948 8.68C22.2348 8.78 22.4448 8.85333 22.7248 8.9L23.1948 8.97C23.7681 9.05 24.1815 9.21667 24.4348 9.47C24.6948 9.71667 24.8248 10.0467 24.8248 10.46C24.8248 10.7933 24.7415 11.0867 24.5748 11.34C24.4081 11.5867 24.1715 11.78 23.8648 11.92C23.5648 12.0533 23.2081 12.12 22.7948 12.12ZM28.1179 12.12C27.6379 12.12 27.2312 12.0333 26.8979 11.86C26.5645 11.68 26.2745 11.4367 26.0279 11.13L26.6979 10.53C26.8912 10.7633 27.1079 10.9467 27.3479 11.08C27.5879 11.2133 27.8645 11.28 28.1779 11.28C28.5045 11.28 28.7479 11.2167 28.9079 11.09C29.0745 10.9633 29.1579 10.7867 29.1579 10.56C29.1579 10.38 29.1012 10.23 28.9879 10.11C28.8745 9.99 28.6712 9.91 28.3779 9.87L27.9179 9.81C27.5779 9.75667 27.2779 9.67333 27.0179 9.56C26.7645 9.44 26.5679 9.27667 26.4279 9.07C26.2879 8.85667 26.2179 8.59 26.2179 8.27C26.2179 7.76333 26.3945 7.37333 26.7479 7.1C27.1079 6.82667 27.5679 6.69 28.1279 6.69C28.4345 6.69 28.7012 6.72333 28.9279 6.79C29.1612 6.85667 29.3679 6.95333 29.5479 7.08C29.7279 7.2 29.8912 7.34667 30.0379 7.52L29.4079 8.13C29.2745 7.96333 29.0979 7.82333 28.8779 7.71C28.6645 7.59 28.4112 7.53 28.1179 7.53C27.8179 7.53 27.5912 7.59 27.4379 7.71C27.2845 7.83 27.2079 7.99667 27.2079 8.21C27.2079 8.41667 27.2779 8.57333 27.4179 8.68C27.5579 8.78 27.7679 8.85333 28.0479 8.9L28.5179 8.97C29.0912 9.05 29.5045 9.21667 29.7579 9.47C30.0179 9.71667 30.1479 10.0467 30.1479 10.46C30.1479 10.7933 30.0645 11.0867 29.8979 11.34C29.7312 11.5867 29.4945 11.78 29.1879 11.92C28.8879 12.0533 28.5312 12.12 28.1179 12.12Z" fill="#6DD488"/>
</svg>
