<svg width="34" height="16" viewBox="0 0 34 16" fill="none" xmlns="http://www.w3.org/2000/svg">
<rect x="0.5" y="0.5" width="33" height="15" rx="1.5" stroke="url(#paint0_linear_8907_158075)"/>
<path d="M7.16633 12V5.02H8.36633L10.6963 8.96L11.4863 10.46H11.5163V5.02H12.5363V12H11.3363L8.99633 8.06L8.21633 6.56H8.18633V12H7.16633ZM16.6852 12.12C16.1986 12.12 15.7752 12.01 15.4152 11.79C15.0619 11.5633 14.7852 11.2467 14.5852 10.84C14.3919 10.4333 14.2952 9.95333 14.2952 9.4C14.2952 8.85333 14.3919 8.37667 14.5852 7.97C14.7786 7.56333 15.0519 7.25 15.4052 7.03C15.7586 6.80333 16.1786 6.69 16.6652 6.69C17.1652 6.69 17.5852 6.80333 17.9252 7.03C18.2652 7.25667 18.5219 7.56667 18.6952 7.96C18.8752 8.34667 18.9652 8.78 18.9652 9.26V9.66H15.3652V9.85C15.3652 10.2633 15.4852 10.6033 15.7252 10.87C15.9719 11.1367 16.3219 11.27 16.7752 11.27C17.0952 11.27 17.3686 11.1967 17.5952 11.05C17.8219 10.9033 18.0086 10.7067 18.1552 10.46L18.7752 11.04C18.5886 11.36 18.3152 11.62 17.9552 11.82C17.5952 12.02 17.1719 12.12 16.6852 12.12ZM15.3652 8.97H17.8852V8.87C17.8852 8.59667 17.8352 8.35667 17.7352 8.15C17.6419 7.94333 17.5019 7.78333 17.3152 7.67C17.1352 7.55667 16.9219 7.5 16.6752 7.5C16.4152 7.5 16.1852 7.56 15.9852 7.68C15.7919 7.8 15.6386 7.96667 15.5252 8.18C15.4186 8.38667 15.3652 8.62667 15.3652 8.9V8.97ZM21.4737 12L20.0637 6.81H21.0637L21.5937 9L22.0837 11.04H22.1137L22.6737 9L23.3037 6.81H24.2237L24.8737 9L25.4437 11.04H25.4737L25.9437 9L26.4937 6.81H27.4438L26.0538 12H24.8737L24.1837 9.61L23.7538 8.11H23.7338L23.3237 9.61L22.6238 12H21.4737Z" fill="url(#paint1_linear_8907_158075)"/>
<defs>
<linearGradient id="paint0_linear_8907_158075" x1="-0.487127" y1="5.91227" x2="34.3953" y2="5.91227" gradientUnits="userSpaceOnUse">
<stop offset="0.000171048" stop-color="#ABECA2"/>
<stop offset="0.310038" stop-color="#2FB3FE"/>
<stop offset="0.648362" stop-color="#6A8EEA"/>
<stop offset="0.984319" stop-color="#A185F4"/>
</linearGradient>
<linearGradient id="paint1_linear_8907_158075" x1="5.6848" y1="5.91227" x2="28.2558" y2="5.91227" gradientUnits="userSpaceOnUse">
<stop offset="0.000171048" stop-color="#ABECA2"/>
<stop offset="0.310038" stop-color="#2FB3FE"/>
<stop offset="0.648362" stop-color="#6A8EEA"/>
<stop offset="0.984319" stop-color="#A185F4"/>
</linearGradient>
</defs>
</svg>
