<svg width="60" height="62" viewBox="0 0 60 62" fill="none" xmlns="http://www.w3.org/2000/svg">
<path d="M54.7059 5.64677V3.17618H59.6471V55.4115H0.352941V3.17618H6V5.64677V5.99971H6.35294H9.17647H9.52941V5.64677V3.17618H17.2941V5.64677V5.99971H17.6471H20.4706H20.8235V5.64677V3.17618H28.5882V5.64677V5.99971H28.9412H31.7647H32.1176V5.64677V3.17618H39.8824V5.64677V5.99971H40.2353H43.0588H43.4118V5.64677V3.17618H51.1765V5.64677V5.99971H51.5294H54.3529H54.7059V5.64677Z" stroke="#C0C0C9" stroke-width="0.705882"/>
<line x1="0.706055" y1="17.2945" x2="60.0002" y2="17.2945" stroke="#C0C0C9" stroke-width="0.705882"/>
<line x1="0.706055" y1="13.7642" x2="60.0002" y2="13.7642" stroke="#C0C0C9" stroke-width="0.705882" stroke-dasharray="2 2"/>
<circle cx="19.412" cy="29.9999" r="2.47059" fill="#C0C0C9"/>
<circle cx="41.2943" cy="29.9999" r="2.47059" fill="#C0C0C9"/>
<path d="M20.5166 38.8686C21.762 37.6232 23.2405 36.6353 24.8677 35.9613C26.4949 35.2873 28.2389 34.9404 30.0002 34.9404C31.7614 34.9404 33.5054 35.2873 35.1326 35.9613C36.7598 36.6353 38.2383 37.6232 39.4837 38.8686" stroke="#C0C0C9" stroke-width="0.705882"/>
<rect x="5.99991" y="0.352941" width="3.52941" height="5.64706" stroke="#C0C0C9" stroke-width="0.705882"/>
<rect x="17.2943" y="0.352941" width="3.52941" height="5.64706" stroke="#C0C0C9" stroke-width="0.705882"/>
<rect x="28.5883" y="0.352941" width="3.52941" height="5.64706" stroke="#C0C0C9" stroke-width="0.705882"/>
<rect x="39.8822" y="0.352941" width="3.52941" height="5.64706" stroke="#C0C0C9" stroke-width="0.705882"/>
<rect x="51.1767" y="0.352941" width="3.52941" height="5.64706" stroke="#C0C0C9" stroke-width="0.705882"/>
<mask id="path-12-inside-1_15530_79026" fill="white">
<path d="M2 55.2822H58V58.2822H2V55.2822Z"/>
</mask>
<path d="M58 58.2822V58.9881H58.7059V58.2822H58ZM2 58.2822H1.29412V58.9881H2V58.2822ZM57.2941 55.2822V58.2822H58.7059V55.2822H57.2941ZM58 57.5763H2V58.9881H58V57.5763ZM2.70588 58.2822V55.2822H1.29412V58.2822H2.70588Z" fill="#C0C0C9" mask="url(#path-12-inside-1_15530_79026)"/>
<mask id="path-14-inside-2_15530_79026" fill="white">
<path d="M4 58.2822H56V61.2822H4V58.2822Z"/>
</mask>
<path d="M56 61.2822V61.9881H56.7059V61.2822H56ZM4 61.2822H3.29412V61.9881H4V61.2822ZM55.2941 58.2822V61.2822H56.7059V58.2822H55.2941ZM56 60.5763H4V61.9881H56V60.5763ZM4.70588 61.2822V58.2822H3.29412V61.2822H4.70588Z" fill="#C0C0C9" mask="url(#path-14-inside-2_15530_79026)"/>
</svg>
