<svg width="3279" height="678" viewBox="0 0 3279 678" fill="none" xmlns="http://www.w3.org/2000/svg">
<path d="M203.68 488.811V374.32H475.253C516.769 374.32 549.186 362.534 572.429 338.963C595.672 315.391 607.293 284.319 607.293 245.9C607.293 207.482 595.672 175.798 572.429 152.838C549.186 129.879 516.769 118.399 475.253 118.399H117.208V677.001H0V0.00537109H475.253C514.322 0.00537109 549.186 5.74522 579.922 17.2249C610.581 28.7046 636.499 44.8527 657.601 65.6693C678.703 86.4858 694.836 111.741 705.998 141.512C717.161 171.282 722.742 204.803 722.742 242.074C722.742 279.345 717.161 312.024 705.998 342.177C694.836 372.254 678.703 398.198 657.601 419.933C636.499 441.668 610.657 458.581 579.922 470.673C549.263 482.765 514.322 488.811 475.253 488.811H203.68Z" fill="#E6DAFE"/>
<path d="M1107.4 676.848V419.856L748.439 0.00537109H907.468L1170.71 311.87L1434.79 0.00537109H1585.48L1225.53 419.856V676.848H1107.4Z" fill="#E6DAFE"/>
<path d="M1992.74 676.848V118.246H1681.68V0.00537109H2422.35V118.246H2110.86V676.848H1992.74Z" fill="#E6DAFE"/>
<path d="M3161.33 0H3279V676.843H3161.33V0Z" fill="#E6DAFE"/>
<path d="M2653.6 676.843V383.881H3091.36V279.11H2653.6V0H2535.93V676.843H2653.6Z" fill="#E6DAFE"/>
</svg>
