<svg width="48" height="14" viewBox="0 0 48 14" fill="none" xmlns="http://www.w3.org/2000/svg">
<path d="M16.1341 11.734V10.5817H18.865C19.2826 10.5817 19.6084 10.4631 19.8422 10.2258C20.0759 9.98861 20.1929 9.67589 20.1929 9.28924C20.1929 8.90257 20.0759 8.58369 19.8422 8.35262C19.6084 8.12155 19.2826 8.00602 18.865 8.00602H15.2646V13.628H14.0859V6.81445H18.865C19.2579 6.81445 19.6084 6.87222 19.9175 6.98775C20.2259 7.10329 20.4865 7.26582 20.6987 7.47531C20.9109 7.68482 21.0731 7.93899 21.1853 8.23863C21.2976 8.53824 21.3537 8.87561 21.3537 9.25072C21.3537 9.62583 21.2976 9.95472 21.1853 10.2582C21.0731 10.5609 20.9109 10.822 20.6987 11.0408C20.4865 11.2595 20.2267 11.4297 19.9175 11.5514C19.6093 11.6731 19.2579 11.734 18.865 11.734H16.1341Z" fill="#E6DAFE"/>
<path d="M25.0526 13.628V11.0409L21.3516 6.81445H22.9912L25.7054 9.9539L28.4283 6.81445H29.9821L26.2707 11.0409V13.628H25.0526Z" fill="#E6DAFE"/>
<path d="M33.9429 13.628V8.00474H30.8906V6.81445H38.1584V8.00474H35.1019V13.628H33.9429Z" fill="#E6DAFE"/>
<path d="M45.4297 6.81445H46.7924V13.628H45.4297V6.81445Z" fill="#E6DAFE"/>
<path d="M40.6782 13.628V10.6788H44.9743V9.62415H40.6782V6.81445H39.5234V13.628H40.6782Z" fill="#E6DAFE"/>
<path d="M6.8147 5.45198C6.8147 6.20453 6.20452 6.81469 5.45198 6.81469V8.1774C6.95706 8.1774 8.1774 6.95707 8.1774 5.45198C8.1774 3.94691 6.95706 2.72656 5.45198 2.72656C4.95583 2.72656 4.48989 2.85908 4.08927 3.09143C3.27449 3.56231 2.72656 4.44305 2.72656 5.45198V12.2656L3.95183 13.4908L4.08927 13.6282V5.45198C4.08927 4.69944 4.69944 4.08927 5.45198 4.08927C6.20452 4.08927 6.8147 4.69944 6.8147 5.45198Z" fill="#E6DAFE"/>
<path d="M5.45085 0C4.45793 0 3.52727 0.265639 2.72542 0.729737C2.21202 1.02619 1.75224 1.40401 1.36271 1.84592C0.514638 2.80677 0 4.06902 0 5.45085V9.53897L1.36271 10.9017V5.45085C1.36271 4.24037 1.88906 3.15254 2.72542 2.4037C3.11864 2.05239 3.58027 1.77503 4.08814 1.5963C4.51402 1.44468 4.97319 1.36271 5.45085 1.36271C7.70847 1.36271 9.53897 3.19321 9.53897 5.45085C9.53897 7.70847 7.70847 9.53897 5.45085 9.53897V10.9017C8.46162 10.9017 10.9017 8.46101 10.9017 5.45085C10.9017 2.44067 8.46162 0 5.45085 0Z" fill="#E6DAFE"/>
<path d="M46.739 3.89536V3.63735H47.003L47.1002 3.35505L46.5234 1.71289H46.8361L47.1639 2.67208L47.2519 2.99384H47.2671L47.3642 2.67208L47.6951 1.71289H47.9926L47.3218 3.61307C47.2975 3.68187 47.2691 3.73651 47.2368 3.77698C47.2064 3.81947 47.1659 3.84983 47.1153 3.86804C47.0648 3.88625 46.998 3.89536 46.915 3.89536H46.739Z" fill="#E6DAFE"/>
<path d="M45.5913 3.32365C45.4861 3.32365 45.395 3.29836 45.3181 3.24777C45.2412 3.19515 45.1836 3.1223 45.1451 3.02922H45.1299V3.28723H44.8203V1.04102H45.1299V1.96986H45.1451C45.1795 1.87475 45.2362 1.8019 45.3151 1.7513C45.394 1.70071 45.4861 1.67542 45.5913 1.67542C45.7249 1.67542 45.8382 1.70881 45.9313 1.77559C46.0244 1.84034 46.0962 1.93444 46.1468 2.05788C46.1974 2.1793 46.2227 2.32601 46.2227 2.49802C46.2227 2.67003 46.1974 2.81775 46.1468 2.94119C46.0962 3.06463 46.0244 3.15974 45.9313 3.22652C45.8382 3.29128 45.7249 3.32365 45.5913 3.32365ZM45.4972 3.05654C45.6186 3.05654 45.7148 3.01809 45.7856 2.94119C45.8564 2.86227 45.8918 2.76008 45.8918 2.63461V2.36446C45.8918 2.23697 45.8564 2.13478 45.7856 2.05788C45.7148 1.98099 45.6186 1.94254 45.4972 1.94254C45.4304 1.94254 45.3687 1.95468 45.3121 1.97896C45.2574 2.00122 45.2129 2.0336 45.1785 2.0761C45.1461 2.11657 45.1299 2.16513 45.1299 2.2218V2.76514C45.1299 2.82585 45.1461 2.87846 45.1785 2.92298C45.2129 2.96547 45.2574 2.99886 45.3121 3.02315C45.3687 3.04541 45.4304 3.05654 45.4972 3.05654Z" fill="#E6DAFE"/>
<path d="M42.5815 3.32365C42.4499 3.32365 42.3366 3.29128 42.2415 3.22652C42.1484 3.15974 42.0766 3.06463 42.026 2.94119C41.9774 2.81775 41.9531 2.67003 41.9531 2.49802C41.9531 2.32601 41.9774 2.1793 42.026 2.05788C42.0766 1.93444 42.1484 1.84034 42.2415 1.77559C42.3366 1.70881 42.4499 1.67542 42.5815 1.67542C42.6867 1.67542 42.7788 1.70071 42.8577 1.7513C42.9386 1.8019 42.9963 1.87475 43.0307 1.96986H43.0428V1.04102H43.3555V3.28723H43.0428V3.02922H43.0307C42.9923 3.1223 42.9336 3.19515 42.8546 3.24777C42.7777 3.29836 42.6867 3.32365 42.5815 3.32365ZM42.6756 3.05654C42.7444 3.05654 42.8061 3.04541 42.8607 3.02315C42.9174 2.99886 42.9619 2.96547 42.9943 2.92298C43.0267 2.87846 43.0428 2.82585 43.0428 2.76514V2.2218C43.0428 2.16513 43.0267 2.11657 42.9943 2.0761C42.9619 2.0336 42.9174 2.00122 42.8607 1.97896C42.8061 1.95468 42.7444 1.94254 42.6756 1.94254C42.5562 1.94254 42.46 1.98099 42.3872 2.05788C42.3164 2.13478 42.281 2.23697 42.281 2.36446V2.63461C42.281 2.76008 42.3164 2.86227 42.3872 2.94119C42.46 3.01809 42.5562 3.05654 42.6756 3.05654Z" fill="#E6DAFE"/>
<path d="M40.8505 3.32597C40.7027 3.32597 40.5742 3.29258 40.465 3.2258C40.3577 3.157 40.2737 3.06088 40.213 2.93744C40.1543 2.81399 40.125 2.66829 40.125 2.50033C40.125 2.3344 40.1543 2.18971 40.213 2.06627C40.2717 1.94283 40.3547 1.84772 40.4619 1.78094C40.5692 1.71214 40.6967 1.67773 40.8444 1.67773C40.9962 1.67773 41.1237 1.71214 41.2269 1.78094C41.3301 1.84974 41.408 1.94384 41.4606 2.06323C41.5152 2.1806 41.5425 2.31214 41.5425 2.45784V2.57926H40.4498V2.63693C40.4498 2.76239 40.4862 2.8656 40.5591 2.94654C40.6339 3.02749 40.7402 3.06796 40.8778 3.06796C40.9749 3.06796 41.0579 3.0457 41.1267 3.00118C41.1955 2.95666 41.2522 2.89696 41.2967 2.82209L41.4849 2.99814C41.4282 3.09528 41.3452 3.1742 41.236 3.23491C41.1267 3.29562 40.9982 3.32597 40.8505 3.32597ZM40.4498 2.36981H41.2147V2.33946C41.2147 2.25649 41.1995 2.18364 41.1692 2.12091C41.1409 2.05817 41.0984 2.00961 41.0417 1.97521C40.9871 1.9408 40.9223 1.9236 40.8474 1.9236C40.7685 1.9236 40.6987 1.94182 40.638 1.97824C40.5793 2.01467 40.5328 2.06526 40.4984 2.13001C40.466 2.19274 40.4498 2.26559 40.4498 2.34856V2.36981Z" fill="#E6DAFE"/>
<path d="M38.9609 3.28828V1.71289H39.2706V2.01947H39.2857C39.3019 1.96685 39.3282 1.91728 39.3646 1.87073C39.4011 1.82419 39.4486 1.78675 39.5073 1.75842C39.568 1.72807 39.6399 1.71289 39.7228 1.71289H39.8139V2.0134H39.6803C39.5933 2.0134 39.5195 2.02453 39.4587 2.04679C39.398 2.06702 39.3515 2.09535 39.3191 2.13178C39.2867 2.1682 39.2706 2.21374 39.2706 2.26837V3.28828H38.9609Z" fill="#E6DAFE"/>
<path d="M37.7567 3.32597C37.609 3.32597 37.4805 3.29258 37.3712 3.2258C37.264 3.157 37.18 3.06088 37.1193 2.93744C37.0606 2.81399 37.0312 2.66829 37.0312 2.50033C37.0312 2.3344 37.0606 2.18971 37.1193 2.06627C37.178 1.94283 37.2609 1.84772 37.3682 1.78094C37.4754 1.71214 37.6029 1.67773 37.7506 1.67773C37.9024 1.67773 38.0299 1.71214 38.1331 1.78094C38.2363 1.84974 38.3142 1.94384 38.3668 2.06323C38.4215 2.1806 38.4488 2.31214 38.4488 2.45784V2.57926H37.356V2.63693C37.356 2.76239 37.3925 2.8656 37.4653 2.94654C37.5402 3.02749 37.6464 3.06796 37.784 3.06796C37.8812 3.06796 37.9641 3.0457 38.0329 3.00118C38.1017 2.95666 38.1584 2.89696 38.2029 2.82209L38.3911 2.99814C38.3345 3.09528 38.2515 3.1742 38.1422 3.23491C38.0329 3.29562 37.9044 3.32597 37.7567 3.32597ZM37.356 2.36981H38.121V2.33946C38.121 2.25649 38.1058 2.18364 38.0754 2.12091C38.0471 2.05817 38.0046 2.00961 37.9479 1.97521C37.8933 1.9408 37.8286 1.9236 37.7537 1.9236C37.6748 1.9236 37.6049 1.94182 37.5442 1.97824C37.4856 2.01467 37.439 2.06526 37.4046 2.13001C37.3722 2.19274 37.356 2.26559 37.356 2.34856V2.36981Z" fill="#E6DAFE"/>
<path d="M34.8889 3.28828L34.4609 1.71289H34.7645L34.9254 2.37765L35.0741 2.99688H35.0832L35.2532 2.37765L35.4444 1.71289H35.7237L35.921 2.37765L36.094 2.99688H36.1031L36.2458 2.37765L36.4127 1.71289H36.7011L36.2792 3.28828H35.921L35.7115 2.56281L35.581 2.1075H35.5749L35.4505 2.56281L35.238 3.28828H34.8889Z" fill="#E6DAFE"/>
<path d="M33.4177 3.32597C33.272 3.32597 33.1446 3.29258 33.0353 3.2258C32.928 3.157 32.844 3.06088 32.7833 2.93744C32.7247 2.81399 32.6953 2.66829 32.6953 2.50033C32.6953 2.33237 32.7247 2.18769 32.7833 2.06627C32.844 1.94283 32.928 1.84772 33.0353 1.78094C33.1446 1.71214 33.272 1.67773 33.4177 1.67773C33.5614 1.67773 33.6869 1.71214 33.7941 1.78094C33.9034 1.84772 33.9874 1.94283 34.0461 2.06627C34.1068 2.18769 34.1371 2.33237 34.1371 2.50033C34.1371 2.66829 34.1068 2.81399 34.0461 2.93744C33.9874 3.06088 33.9034 3.157 33.7941 3.2258C33.6869 3.29258 33.5614 3.32597 33.4177 3.32597ZM33.4177 3.06492C33.5351 3.06492 33.6292 3.0285 33.7 2.95565C33.7709 2.8828 33.8063 2.77453 33.8063 2.63086V2.37285C33.8063 2.22917 33.7709 2.12091 33.7 2.04806C33.6292 1.97521 33.5351 1.93878 33.4177 1.93878C33.3024 1.93878 33.2083 1.97521 33.1354 2.04806C33.0626 2.12091 33.0262 2.22917 33.0262 2.37285V2.63086C33.0262 2.77453 33.0626 2.8828 33.1354 2.95565C33.2083 3.0285 33.3024 3.06492 33.4177 3.06492Z" fill="#E6DAFE"/>
<path d="M30.8906 3.89663V1.71416H31.2002V1.97217H31.2154C31.2498 1.87706 31.3065 1.80421 31.3854 1.75362C31.4643 1.70303 31.5564 1.67773 31.6616 1.67773C31.7952 1.67773 31.9085 1.71112 32.0016 1.7779C32.0947 1.84266 32.1665 1.93676 32.2171 2.0602C32.2677 2.18161 32.293 2.32833 32.293 2.50033C32.293 2.67234 32.2677 2.82007 32.2171 2.94351C32.1665 3.06695 32.0947 3.16206 32.0016 3.22884C31.9085 3.29359 31.7952 3.32597 31.6616 3.32597C31.5564 3.32597 31.4653 3.30067 31.3884 3.25008C31.3115 3.19747 31.2539 3.12462 31.2154 3.03153H31.2002V3.89663H30.8906ZM31.5675 3.05885C31.6889 3.05885 31.7851 3.0204 31.8559 2.94351C31.9267 2.86459 31.9621 2.76239 31.9621 2.63693V2.36678C31.9621 2.23929 31.9267 2.1371 31.8559 2.0602C31.7851 1.9833 31.6889 1.94485 31.5675 1.94485C31.5007 1.94485 31.439 1.95699 31.3824 1.98128C31.3277 2.00354 31.2832 2.03591 31.2488 2.07841C31.2164 2.11888 31.2002 2.16745 31.2002 2.22411V2.76745C31.2002 2.82816 31.2164 2.88077 31.2488 2.92529C31.2832 2.96779 31.3277 3.00118 31.3824 3.02546C31.439 3.04772 31.5007 3.05885 31.5675 3.05885Z" fill="#E6DAFE"/>
<path d="M28.6361 3.32365C28.5046 3.32365 28.3913 3.29128 28.2962 3.22652C28.2031 3.15974 28.1313 3.06463 28.0807 2.94119C28.0321 2.81775 28.0078 2.67003 28.0078 2.49802C28.0078 2.32601 28.0321 2.1793 28.0807 2.05788C28.1313 1.93444 28.2031 1.84034 28.2962 1.77559C28.3913 1.70881 28.5046 1.67542 28.6361 1.67542C28.7414 1.67542 28.8334 1.70071 28.9124 1.7513C28.9933 1.8019 29.051 1.87475 29.0854 1.96986H29.0975V1.04102H29.4102V3.28723H29.0975V3.02922H29.0854C29.0469 3.1223 28.9883 3.19515 28.9093 3.24777C28.8324 3.29836 28.7414 3.32365 28.6361 3.32365ZM28.7302 3.05654C28.799 3.05654 28.8608 3.04541 28.9154 3.02315C28.9721 2.99886 29.0166 2.96547 29.049 2.92298C29.0813 2.87846 29.0975 2.82585 29.0975 2.76514V2.2218C29.0975 2.16513 29.0813 2.11657 29.049 2.0761C29.0166 2.0336 28.9721 2.00122 28.9154 1.97896C28.8608 1.95468 28.799 1.94254 28.7302 1.94254C28.6108 1.94254 28.5147 1.98099 28.4419 2.05788C28.3711 2.13478 28.3356 2.23697 28.3356 2.36446V2.63461C28.3356 2.76008 28.3711 2.86227 28.4419 2.94119C28.5147 3.01809 28.6108 3.05654 28.7302 3.05654Z" fill="#E6DAFE"/>
<path d="M26.913 3.32597C26.7652 3.32597 26.6367 3.29258 26.5275 3.2258C26.4202 3.157 26.3362 3.06088 26.2755 2.93744C26.2168 2.81399 26.1875 2.66829 26.1875 2.50033C26.1875 2.3344 26.2168 2.18971 26.2755 2.06627C26.3342 1.94283 26.4172 1.84772 26.5244 1.78094C26.6317 1.71214 26.7592 1.67773 26.9069 1.67773C27.0587 1.67773 27.1862 1.71214 27.2894 1.78094C27.3926 1.84974 27.4705 1.94384 27.5231 2.06323C27.5777 2.1806 27.605 2.31214 27.605 2.45784V2.57926H26.5123V2.63693C26.5123 2.76239 26.5487 2.8656 26.6216 2.94654C26.6964 3.02749 26.8027 3.06796 26.9403 3.06796C27.0374 3.06796 27.1204 3.0457 27.1892 3.00118C27.258 2.95666 27.3147 2.89696 27.3592 2.82209L27.5474 2.99814C27.4907 3.09528 27.4077 3.1742 27.2985 3.23491C27.1892 3.29562 27.0607 3.32597 26.913 3.32597ZM26.5123 2.36981H27.2772V2.33946C27.2772 2.25649 27.262 2.18364 27.2317 2.12091C27.2034 2.05817 27.1609 2.00961 27.1042 1.97521C27.0496 1.9408 26.9848 1.9236 26.9099 1.9236C26.831 1.9236 26.7612 1.94182 26.7005 1.97824C26.6418 2.01467 26.5953 2.06526 26.5609 2.13001C26.5285 2.19274 26.5123 2.26559 26.5123 2.34856V2.36981Z" fill="#E6DAFE"/>
<path d="M25.0927 3.32597C24.9449 3.32597 24.8164 3.29258 24.7072 3.2258C24.5999 3.157 24.5159 3.06088 24.4552 2.93744C24.3965 2.81399 24.3672 2.66829 24.3672 2.50033C24.3672 2.3344 24.3965 2.18971 24.4552 2.06627C24.5139 1.94283 24.5969 1.84772 24.7041 1.78094C24.8114 1.71214 24.9389 1.67773 25.0866 1.67773C25.2384 1.67773 25.3658 1.71214 25.469 1.78094C25.5723 1.84974 25.6502 1.94384 25.7028 2.06323C25.7574 2.1806 25.7847 2.31214 25.7847 2.45784V2.57926H24.692V2.63693C24.692 2.76239 24.7284 2.8656 24.8013 2.94654C24.8761 3.02749 24.9824 3.06796 25.12 3.06796C25.2171 3.06796 25.3001 3.0457 25.3689 3.00118C25.4377 2.95666 25.4943 2.89696 25.5389 2.82209L25.7271 2.99814C25.6704 3.09528 25.5874 3.1742 25.4782 3.23491C25.3689 3.29562 25.2404 3.32597 25.0927 3.32597ZM24.692 2.36981H25.4569V2.33946C25.4569 2.25649 25.4417 2.18364 25.4114 2.12091C25.383 2.05817 25.3405 2.00961 25.2839 1.97521C25.2292 1.9408 25.1645 1.9236 25.0896 1.9236C25.0107 1.9236 24.9409 1.94182 24.8802 1.97824C24.8215 2.01467 24.7749 2.06526 24.7405 2.13001C24.7082 2.19274 24.692 2.26559 24.692 2.34856V2.36981Z" fill="#E6DAFE"/>
<path d="M22.7188 3.28865V1.16992H24.027V1.45525H23.0405V2.07448H23.9238V2.35981H23.0405V3.28865H22.7188Z" fill="#E6DAFE"/>
<path d="M20.6473 3.32597C20.4996 3.32597 20.3711 3.29258 20.2618 3.2258C20.1546 3.157 20.0706 3.06088 20.0099 2.93744C19.9512 2.81399 19.9219 2.66829 19.9219 2.50033C19.9219 2.3344 19.9512 2.18971 20.0099 2.06627C20.0686 1.94283 20.1516 1.84772 20.2588 1.78094C20.3661 1.71214 20.4935 1.67773 20.6413 1.67773C20.793 1.67773 20.9205 1.71214 21.0237 1.78094C21.1269 1.84974 21.2048 1.94384 21.2575 2.06323C21.3121 2.1806 21.3394 2.31214 21.3394 2.45784V2.57926H20.2467V2.63693C20.2467 2.76239 20.2831 2.8656 20.3559 2.94654C20.4308 3.02749 20.5371 3.06796 20.6747 3.06796C20.7718 3.06796 20.8548 3.0457 20.9236 3.00118C20.9924 2.95666 21.049 2.89696 21.0935 2.82209L21.2817 2.99814C21.2251 3.09528 21.1421 3.1742 21.0328 3.23491C20.9236 3.29562 20.7951 3.32597 20.6473 3.32597ZM20.2467 2.36981H21.0116V2.33946C21.0116 2.25649 20.9964 2.18364 20.9661 2.12091C20.9377 2.05817 20.8952 2.00961 20.8386 1.97521C20.7839 1.9408 20.7192 1.9236 20.6443 1.9236C20.5654 1.9236 20.4956 1.94182 20.4349 1.97824C20.3762 2.01467 20.3296 2.06526 20.2952 2.13001C20.2629 2.19274 20.2467 2.26559 20.2467 2.34856V2.36981Z" fill="#E6DAFE"/>
<path d="M18.9633 3.32597C18.7367 3.32597 18.5606 3.25211 18.4352 3.10438C18.3117 2.95464 18.25 2.75329 18.25 2.50033C18.25 2.24941 18.3117 2.05008 18.4352 1.90236C18.5606 1.75261 18.7367 1.67773 18.9633 1.67773C19.1212 1.67773 19.2497 1.71315 19.3488 1.78397C19.45 1.85278 19.5229 1.94485 19.5674 2.0602L19.3094 2.18161C19.2871 2.10876 19.2466 2.05008 19.1879 2.00556C19.1293 1.96104 19.0544 1.93878 18.9633 1.93878C18.8379 1.93878 18.7428 1.97824 18.678 2.05716C18.6132 2.13608 18.5809 2.23828 18.5809 2.36374V2.63996C18.5809 2.7634 18.6132 2.8656 18.678 2.94654C18.7428 3.02546 18.8379 3.06492 18.9633 3.06492C19.0605 3.06492 19.1394 3.04165 19.2001 2.99511C19.2628 2.94654 19.3114 2.8828 19.3458 2.80388L19.5795 2.93136C19.5289 3.05683 19.451 3.15396 19.3458 3.22277C19.2426 3.29157 19.1151 3.32597 18.9633 3.32597Z" fill="#E6DAFE"/>
<path d="M17.4366 3.28852V1.71314H17.7462V3.28852H17.4366ZM17.5914 1.41263C17.5267 1.41263 17.4791 1.39745 17.4487 1.3671C17.4204 1.33472 17.4062 1.29425 17.4062 1.24568V1.19712C17.4062 1.14855 17.4204 1.10909 17.4487 1.07873C17.4791 1.04838 17.5267 1.0332 17.5914 1.0332C17.6562 1.0332 17.7027 1.04838 17.731 1.07873C17.7614 1.10909 17.7766 1.14855 17.7766 1.19712V1.24568C17.7766 1.29425 17.7614 1.33472 17.731 1.3671C17.7027 1.39745 17.6562 1.41263 17.5914 1.41263Z" fill="#E6DAFE"/>
<path d="M16.1562 3.28828V1.71289H16.4659V2.01947H16.481C16.4972 1.96685 16.5235 1.91728 16.56 1.87073C16.5964 1.82419 16.6439 1.78675 16.7026 1.75842C16.7633 1.72807 16.8352 1.71289 16.9181 1.71289H17.0092V2.0134H16.8756C16.7886 2.0134 16.7148 2.02453 16.6541 2.04679C16.5934 2.06702 16.5468 2.09535 16.5144 2.13178C16.4821 2.1682 16.4659 2.21374 16.4659 2.26837V3.28828H16.1562Z" fill="#E6DAFE"/>
<path d="M14.1797 3.28865V1.16992H15.0751C15.2046 1.16992 15.3139 1.19623 15.403 1.24884C15.494 1.29943 15.5638 1.37228 15.6124 1.46739C15.661 1.56048 15.6853 1.67178 15.6853 1.80129C15.6853 1.92675 15.661 2.03704 15.6124 2.13215C15.5638 2.22726 15.494 2.30112 15.403 2.35374C15.3139 2.40433 15.2046 2.42962 15.0751 2.42962H14.5014V3.28865H14.1797ZM14.5014 2.14733H15.0569C15.1176 2.14733 15.1692 2.13721 15.2117 2.11697C15.2542 2.09471 15.2866 2.06335 15.3089 2.02288C15.3311 1.9824 15.3423 1.93283 15.3423 1.87414V1.7254C15.3423 1.66672 15.3311 1.61714 15.3089 1.57667C15.2866 1.5362 15.2542 1.50584 15.2117 1.48561C15.1692 1.46335 15.1176 1.45222 15.0569 1.45222H14.5014V2.14733Z" fill="#E6DAFE"/>
</svg>
