<svg width="237" height="117" viewBox="0 0 237 117" fill="none" xmlns="http://www.w3.org/2000/svg">
<rect x="67" y="0.5" width="169" height="71" fill="#1F2232"/>
<g opacity="0.7" clip-path="url(#clip0_1967_95548)">
<mask id="mask0_1967_95548" style="mask-type:luminance" maskUnits="userSpaceOnUse" x="82" y="16" width="41" height="40">
<path d="M122.5 36C122.5 24.9543 113.546 16 102.5 16C91.4543 16 82.5 24.9543 82.5 36C82.5 47.0457 91.4543 56 102.5 56C113.546 56 122.5 47.0457 122.5 36Z" fill="white"/>
</mask>
<g mask="url(#mask0_1967_95548)">
<path d="M122.5 16H82.5V56H122.5V16Z" fill="#49007E"/>
<path d="M113.538 62.9403L133.544 41.4873C136.306 38.5252 136.144 33.8849 133.182 31.1227L111.729 11.1174C108.767 8.35526 104.126 8.51731 101.364 11.4794L81.3588 32.9324C78.5966 35.8944 78.7586 40.5348 81.7207 43.297L103.174 63.3023C106.136 66.0644 110.776 65.9024 113.538 62.9403Z" fill="#1E5C94"/>
<path d="M103.176 36.1714C105.453 37.1647 107.672 37.0484 109.833 35.8225" stroke="black" stroke-width="2.22222" stroke-linecap="round"/>
<path d="M100.111 30.7688C100.079 30.156 99.6805 29.6788 99.2209 29.7028C98.7613 29.7269 98.4147 30.2432 98.4468 30.856C98.4789 31.4689 98.8776 31.9461 99.3372 31.922C99.7968 31.8979 100.143 31.3816 100.111 30.7688Z" fill="black"/>
<path d="M113.426 30.0711C113.394 29.4583 112.995 28.981 112.535 29.0051C112.076 29.0292 111.729 29.5455 111.761 30.1583C111.793 30.7711 112.192 31.2484 112.652 31.2243C113.111 31.2002 113.458 30.6839 113.426 30.0711Z" fill="black"/>
</g>
</g>
<g opacity="0.1" clip-path="url(#clip1_1967_95548)">
<path d="M142.4 33.156C141.317 33.156 140.524 32.7443 140.021 31.921C139.527 31.0977 139.28 29.945 139.28 28.463C139.28 26.981 139.527 25.8283 140.021 25.005C140.524 24.1817 141.317 23.77 142.4 23.77C143.483 23.77 144.272 24.1817 144.766 25.005C145.269 25.8283 145.52 26.981 145.52 28.463C145.52 29.945 145.269 31.0977 144.766 31.921C144.272 32.7443 143.483 33.156 142.4 33.156ZM142.4 32.207C142.877 32.207 143.258 32.0813 143.544 31.83C143.83 31.57 144.038 31.2147 144.168 30.764C144.307 30.3047 144.376 29.7847 144.376 29.204V27.722C144.376 27.1327 144.307 26.6127 144.168 26.162C144.038 25.7113 143.83 25.3603 143.544 25.109C143.258 24.849 142.877 24.719 142.4 24.719C141.932 24.719 141.551 24.849 141.256 25.109C140.97 25.3603 140.758 25.7113 140.619 26.162C140.489 26.6127 140.424 27.1327 140.424 27.722V29.204C140.424 29.7847 140.489 30.3047 140.619 30.764C140.758 31.2147 140.97 31.57 141.256 31.83C141.551 32.0813 141.932 32.207 142.4 32.207ZM146.568 33L149.051 29.62L146.672 26.292H147.894L149.597 28.788H149.636L151.404 26.292H152.561L150.195 29.542L152.613 33H151.391L149.649 30.374H149.61L147.725 33H146.568ZM154.028 33V32.038H156.563V24.732H156.472L154.184 26.864L153.547 26.175L155.952 23.926H157.655V32.038H159.995V33H154.028ZM161.654 33V31.882L164.618 29.152C165.042 28.762 165.398 28.346 165.684 27.904C165.97 27.462 166.113 27.0243 166.113 26.591V26.435C166.113 25.9323 165.974 25.525 165.697 25.213C165.419 24.901 164.999 24.745 164.436 24.745C163.881 24.745 163.456 24.8923 163.162 25.187C162.876 25.4817 162.672 25.8457 162.551 26.279L161.576 25.902C161.697 25.5467 161.87 25.2087 162.096 24.888C162.33 24.5587 162.642 24.29 163.032 24.082C163.422 23.874 163.907 23.77 164.488 23.77C165.077 23.77 165.58 23.8827 165.996 24.108C166.412 24.3333 166.728 24.6453 166.945 25.044C167.161 25.434 167.27 25.889 167.27 26.409C167.27 26.877 167.183 27.306 167.01 27.696C166.845 28.086 166.611 28.4543 166.308 28.801C166.013 29.1477 165.671 29.4943 165.281 29.841L162.837 32.038H167.608V33H161.654ZM172.075 33.156C171.13 33.156 170.393 32.8397 169.865 32.207C169.345 31.5743 169.085 30.7207 169.085 29.646C169.085 28.5713 169.345 27.7177 169.865 27.085C170.393 26.4523 171.13 26.136 172.075 26.136C172.742 26.136 173.279 26.2833 173.687 26.578C174.094 26.8727 174.393 27.2497 174.584 27.709L173.713 28.151C173.591 27.8043 173.388 27.5357 173.102 27.345C172.824 27.1543 172.482 27.059 172.075 27.059C171.459 27.059 170.991 27.2497 170.671 27.631C170.359 28.0037 170.203 28.4847 170.203 29.074V30.218C170.203 30.7987 170.359 31.2797 170.671 31.661C170.991 32.0423 171.459 32.233 172.075 32.233C172.499 32.233 172.863 32.1333 173.167 31.934C173.47 31.7347 173.713 31.4443 173.895 31.063L174.649 31.57C174.432 32.0467 174.107 32.4323 173.674 32.727C173.249 33.013 172.716 33.156 172.075 33.156ZM176.78 33.156C176.511 33.156 176.312 33.0867 176.182 32.948C176.052 32.8007 175.987 32.6187 175.987 32.402V32.233C175.987 32.0077 176.052 31.8257 176.182 31.687C176.312 31.5483 176.511 31.479 176.78 31.479C177.057 31.479 177.256 31.5483 177.378 31.687C177.508 31.8257 177.573 32.0077 177.573 32.233V32.402C177.573 32.6187 177.508 32.8007 177.378 32.948C177.256 33.0867 177.057 33.156 176.78 33.156ZM180.322 33.156C180.053 33.156 179.854 33.0867 179.724 32.948C179.594 32.8007 179.529 32.6187 179.529 32.402V32.233C179.529 32.0077 179.594 31.8257 179.724 31.687C179.854 31.5483 180.053 31.479 180.322 31.479C180.599 31.479 180.798 31.5483 180.92 31.687C181.05 31.8257 181.115 32.0077 181.115 32.233V32.402C181.115 32.6187 181.05 32.8007 180.92 32.948C180.798 33.0867 180.599 33.156 180.322 33.156ZM183.864 33.156C183.595 33.156 183.396 33.0867 183.266 32.948C183.136 32.8007 183.071 32.6187 183.071 32.402V32.233C183.071 32.0077 183.136 31.8257 183.266 31.687C183.396 31.5483 183.595 31.479 183.864 31.479C184.141 31.479 184.34 31.5483 184.462 31.687C184.592 31.8257 184.657 32.0077 184.657 32.233V32.402C184.657 32.6187 184.592 32.8007 184.462 32.948C184.34 33.0867 184.141 33.156 183.864 33.156ZM187.406 33.156C187.137 33.156 186.938 33.0867 186.808 32.948C186.678 32.8007 186.613 32.6187 186.613 32.402V32.233C186.613 32.0077 186.678 31.8257 186.808 31.687C186.938 31.5483 187.137 31.479 187.406 31.479C187.683 31.479 187.882 31.5483 188.004 31.687C188.134 31.8257 188.199 32.0077 188.199 32.233V32.402C188.199 32.6187 188.134 32.8007 188.004 32.948C187.882 33.0867 187.683 33.156 187.406 33.156ZM190.155 33V31.882L193.119 29.152C193.543 28.762 193.899 28.346 194.185 27.904C194.471 27.462 194.614 27.0243 194.614 26.591V26.435C194.614 25.9323 194.475 25.525 194.198 25.213C193.92 24.901 193.5 24.745 192.937 24.745C192.382 24.745 191.957 24.8923 191.663 25.187C191.377 25.4817 191.173 25.8457 191.052 26.279L190.077 25.902C190.198 25.5467 190.371 25.2087 190.597 24.888C190.831 24.5587 191.143 24.29 191.533 24.082C191.923 23.874 192.408 23.77 192.989 23.77C193.578 23.77 194.081 23.8827 194.497 24.108C194.913 24.3333 195.229 24.6453 195.446 25.044C195.662 25.434 195.771 25.889 195.771 26.409C195.771 26.877 195.684 27.306 195.511 27.696C195.346 28.086 195.112 28.4543 194.809 28.801C194.514 29.1477 194.172 29.4943 193.782 29.841L191.338 32.038H196.109V33H190.155ZM198.119 33V32.038H200.654V24.732H200.563L198.275 26.864L197.638 26.175L200.043 23.926H201.746V32.038H204.086V33H198.119ZM205.745 33V31.882L208.709 29.152C209.133 28.762 209.489 28.346 209.775 27.904C210.061 27.462 210.204 27.0243 210.204 26.591V26.435C210.204 25.9323 210.065 25.525 209.788 25.213C209.51 24.901 209.09 24.745 208.527 24.745C207.972 24.745 207.547 24.8923 207.253 25.187C206.967 25.4817 206.763 25.8457 206.642 26.279L205.667 25.902C205.788 25.5467 205.961 25.2087 206.187 24.888C206.421 24.5587 206.733 24.29 207.123 24.082C207.513 23.874 207.998 23.77 208.579 23.77C209.168 23.77 209.671 23.8827 210.087 24.108C210.503 24.3333 210.819 24.6453 211.036 25.044C211.252 25.434 211.361 25.889 211.361 26.409C211.361 26.877 211.274 27.306 211.101 27.696C210.936 28.086 210.702 28.4543 210.399 28.801C210.104 29.1477 209.762 29.4943 209.372 29.841L206.928 32.038H211.699V33H205.745ZM217.439 33V31.219H213.058V30.257L216.854 23.926H218.479V30.309H219.792V31.219H218.479V33H217.439ZM214.085 30.309H217.439V24.771H217.374L214.085 30.309Z" fill="#FCFCFD"/>
<path d="M141.164 53.144C140.516 53.144 139.992 52.968 139.592 52.616C139.2 52.264 138.948 51.804 138.836 51.236L139.748 51.02C139.828 51.38 139.98 51.676 140.204 51.908C140.436 52.132 140.764 52.244 141.188 52.244C141.62 52.244 141.956 52.112 142.196 51.848C142.436 51.584 142.556 51.184 142.556 50.648V45.512H139.676V44.624H143.564V50.828C143.564 51.3 143.46 51.712 143.252 52.064C143.052 52.408 142.772 52.676 142.412 52.868C142.052 53.052 141.636 53.144 141.164 53.144ZM148.517 53.144C147.965 53.144 147.477 53.012 147.053 52.748C146.637 52.476 146.309 52.1 146.069 51.62C145.837 51.132 145.721 50.56 145.721 49.904C145.721 49.248 145.837 48.68 146.069 48.2C146.309 47.712 146.637 47.336 147.053 47.072C147.477 46.8 147.965 46.664 148.517 46.664C149.069 46.664 149.553 46.8 149.969 47.072C150.393 47.336 150.721 47.712 150.953 48.2C151.193 48.68 151.313 49.248 151.313 49.904C151.313 50.56 151.193 51.132 150.953 51.62C150.721 52.1 150.393 52.476 149.969 52.748C149.553 53.012 149.069 53.144 148.517 53.144ZM148.517 52.292C149.037 52.292 149.461 52.132 149.789 51.812C150.117 51.492 150.281 51.004 150.281 50.348V49.46C150.281 48.804 150.117 48.316 149.789 47.996C149.461 47.676 149.037 47.516 148.517 47.516C148.005 47.516 147.581 47.676 147.245 47.996C146.917 48.316 146.753 48.804 146.753 49.46V50.348C146.753 51.004 146.917 51.492 147.245 51.812C147.581 52.132 148.005 52.292 148.517 52.292ZM153.432 53V44.12H154.392V47.816H154.44C154.592 47.464 154.804 47.184 155.076 46.976C155.356 46.768 155.728 46.664 156.192 46.664C156.832 46.664 157.336 46.872 157.704 47.288C158.08 47.696 158.268 48.276 158.268 49.028V53H157.308V49.196C157.308 48.644 157.188 48.228 156.948 47.948C156.716 47.668 156.368 47.528 155.904 47.528C155.648 47.528 155.404 47.572 155.172 47.66C154.94 47.74 154.752 47.868 154.608 48.044C154.464 48.22 154.392 48.44 154.392 48.704V53H153.432ZM160.792 53V46.808H161.752V47.816H161.8C161.952 47.464 162.164 47.184 162.436 46.976C162.716 46.768 163.088 46.664 163.552 46.664C164.192 46.664 164.696 46.872 165.064 47.288C165.44 47.696 165.628 48.276 165.628 49.028V53H164.668V49.196C164.668 48.644 164.548 48.228 164.308 47.948C164.076 47.668 163.728 47.528 163.264 47.528C163.008 47.528 162.764 47.572 162.532 47.66C162.3 47.74 162.112 47.868 161.968 48.044C161.824 48.22 161.752 48.44 161.752 48.704V53H160.792ZM172.789 53L170.749 44.624H171.817L172.717 48.656L173.413 51.788H173.437L174.217 48.656L175.273 44.624H176.425L177.445 48.656L178.225 51.776H178.261L178.981 48.656L179.929 44.624H180.961L178.813 53H177.697L176.605 48.824L175.837 45.752H175.813L175.021 48.824L173.905 53H172.789ZM182.756 53V46.808H183.716V53H182.756ZM183.236 45.356C183.036 45.356 182.888 45.308 182.792 45.212C182.696 45.108 182.648 44.976 182.648 44.816V44.66C182.648 44.5 182.696 44.372 182.792 44.276C182.888 44.172 183.036 44.12 183.236 44.12C183.444 44.12 183.592 44.172 183.68 44.276C183.776 44.372 183.824 44.5 183.824 44.66V44.816C183.824 44.976 183.776 45.108 183.68 45.212C183.592 45.308 183.444 45.356 183.236 45.356ZM188.6 53.144C187.728 53.144 187.048 52.852 186.56 52.268C186.08 51.684 185.84 50.896 185.84 49.904C185.84 48.912 186.08 48.124 186.56 47.54C187.048 46.956 187.728 46.664 188.6 46.664C189.216 46.664 189.712 46.8 190.088 47.072C190.464 47.344 190.74 47.692 190.916 48.116L190.112 48.524C190 48.204 189.812 47.956 189.548 47.78C189.292 47.604 188.976 47.516 188.6 47.516C188.032 47.516 187.6 47.692 187.304 48.044C187.016 48.388 186.872 48.832 186.872 49.376V50.432C186.872 50.968 187.016 51.412 187.304 51.764C187.6 52.116 188.032 52.292 188.6 52.292C188.992 52.292 189.328 52.2 189.608 52.016C189.888 51.832 190.112 51.564 190.28 51.212L190.976 51.68C190.776 52.12 190.476 52.476 190.076 52.748C189.684 53.012 189.192 53.144 188.6 53.144ZM192.871 53V44.12H193.831V49.748H193.879L194.827 48.692L196.579 46.808H197.743L195.451 49.256L197.971 53H196.807L194.755 49.844L193.831 50.792V53H192.871Z" fill="#777E90"/>
</g>
<rect x="67" y="0.5" width="169" height="71" stroke="#313856"/>
<rect x="34" y="20.5" width="201" height="71" fill="#1F2232"/>
<rect x="50" y="48.5" width="15" height="15" rx="3.5" stroke="#777E90"/>
<g opacity="0.3" clip-path="url(#clip2_1967_95548)">
<mask id="mask1_1967_95548" style="mask-type:luminance" maskUnits="userSpaceOnUse" x="81" y="36" width="41" height="40">
<path d="M121.5 56C121.5 44.9543 112.546 36 101.5 36C90.4543 36 81.5 44.9543 81.5 56C81.5 67.0457 90.4543 76 101.5 76C112.546 76 121.5 67.0457 121.5 56Z" fill="white"/>
</mask>
<g mask="url(#mask1_1967_95548)">
<path d="M121.5 36H81.5V76H121.5V36Z" fill="#49007E"/>
<path d="M112.538 82.9403L132.544 61.4873C135.306 58.5252 135.144 53.8849 132.182 51.1227L110.729 31.1174C107.767 28.3553 103.126 28.5173 100.364 31.4794L80.3588 52.9324C77.5966 55.8944 77.7586 60.5348 80.7207 63.297L102.174 83.3023C105.136 86.0644 109.776 85.9024 112.538 82.9403Z" fill="#FF10BC"/>
<path d="M102.176 56.1714C104.453 57.1647 106.672 57.0484 108.833 55.8225" stroke="black" stroke-width="2.22222" stroke-linecap="round"/>
<path d="M99.1112 50.7688C99.0791 50.156 98.6805 49.6788 98.2209 49.7028C97.7613 49.7269 97.4147 50.2432 97.4468 50.856C97.4789 51.4689 97.8776 51.9461 98.3372 51.922C98.7968 51.8979 99.1433 51.3816 99.1112 50.7688Z" fill="black"/>
<path d="M112.426 50.0711C112.394 49.4583 111.995 48.981 111.535 49.0051C111.076 49.0292 110.729 49.5455 110.761 50.1583C110.793 50.7711 111.192 51.2484 111.652 51.2243C112.111 51.2002 112.458 50.6839 112.426 50.0711Z" fill="black"/>
</g>
</g>
<g opacity="0.3" clip-path="url(#clip3_1967_95548)">
<path d="M141.4 53.156C140.317 53.156 139.524 52.7443 139.021 51.921C138.527 51.0977 138.28 49.945 138.28 48.463C138.28 46.981 138.527 45.8283 139.021 45.005C139.524 44.1817 140.317 43.77 141.4 43.77C142.483 43.77 143.272 44.1817 143.766 45.005C144.269 45.8283 144.52 46.981 144.52 48.463C144.52 49.945 144.269 51.0977 143.766 51.921C143.272 52.7443 142.483 53.156 141.4 53.156ZM141.4 52.207C141.877 52.207 142.258 52.0813 142.544 51.83C142.83 51.57 143.038 51.2147 143.168 50.764C143.307 50.3047 143.376 49.7847 143.376 49.204V47.722C143.376 47.1327 143.307 46.6127 143.168 46.162C143.038 45.7113 142.83 45.3603 142.544 45.109C142.258 44.849 141.877 44.719 141.4 44.719C140.932 44.719 140.551 44.849 140.256 45.109C139.97 45.3603 139.758 45.7113 139.619 46.162C139.489 46.6127 139.424 47.1327 139.424 47.722V49.204C139.424 49.7847 139.489 50.3047 139.619 50.764C139.758 51.2147 139.97 51.57 140.256 51.83C140.551 52.0813 140.932 52.207 141.4 52.207ZM145.568 53L148.051 49.62L145.672 46.292H146.894L148.597 48.788H148.636L150.404 46.292H151.561L149.195 49.542L151.613 53H150.391L148.649 50.374H148.61L146.725 53H145.568ZM153.028 53V52.038H155.563V44.732H155.472L153.184 46.864L152.547 46.175L154.952 43.926H156.655V52.038H158.995V53H153.028ZM160.654 53V51.882L163.618 49.152C164.042 48.762 164.398 48.346 164.684 47.904C164.97 47.462 165.113 47.0243 165.113 46.591V46.435C165.113 45.9323 164.974 45.525 164.697 45.213C164.419 44.901 163.999 44.745 163.436 44.745C162.881 44.745 162.456 44.8923 162.162 45.187C161.876 45.4817 161.672 45.8457 161.551 46.279L160.576 45.902C160.697 45.5467 160.87 45.2087 161.096 44.888C161.33 44.5587 161.642 44.29 162.032 44.082C162.422 43.874 162.907 43.77 163.488 43.77C164.077 43.77 164.58 43.8827 164.996 44.108C165.412 44.3333 165.728 44.6453 165.945 45.044C166.161 45.434 166.27 45.889 166.27 46.409C166.27 46.877 166.183 47.306 166.01 47.696C165.845 48.086 165.611 48.4543 165.308 48.801C165.013 49.1477 164.671 49.4943 164.281 49.841L161.837 52.038H166.608V53H160.654ZM171.075 53.156C170.13 53.156 169.393 52.8397 168.865 52.207C168.345 51.5743 168.085 50.7207 168.085 49.646C168.085 48.5713 168.345 47.7177 168.865 47.085C169.393 46.4523 170.13 46.136 171.075 46.136C171.742 46.136 172.279 46.2833 172.687 46.578C173.094 46.8727 173.393 47.2497 173.584 47.709L172.713 48.151C172.591 47.8043 172.388 47.5357 172.102 47.345C171.824 47.1543 171.482 47.059 171.075 47.059C170.459 47.059 169.991 47.2497 169.671 47.631C169.359 48.0037 169.203 48.4847 169.203 49.074V50.218C169.203 50.7987 169.359 51.2797 169.671 51.661C169.991 52.0423 170.459 52.233 171.075 52.233C171.499 52.233 171.863 52.1333 172.167 51.934C172.47 51.7347 172.713 51.4443 172.895 51.063L173.649 51.57C173.432 52.0467 173.107 52.4323 172.674 52.727C172.249 53.013 171.716 53.156 171.075 53.156ZM175.78 53.156C175.511 53.156 175.312 53.0867 175.182 52.948C175.052 52.8007 174.987 52.6187 174.987 52.402V52.233C174.987 52.0077 175.052 51.8257 175.182 51.687C175.312 51.5483 175.511 51.479 175.78 51.479C176.057 51.479 176.256 51.5483 176.378 51.687C176.508 51.8257 176.573 52.0077 176.573 52.233V52.402C176.573 52.6187 176.508 52.8007 176.378 52.948C176.256 53.0867 176.057 53.156 175.78 53.156ZM179.322 53.156C179.053 53.156 178.854 53.0867 178.724 52.948C178.594 52.8007 178.529 52.6187 178.529 52.402V52.233C178.529 52.0077 178.594 51.8257 178.724 51.687C178.854 51.5483 179.053 51.479 179.322 51.479C179.599 51.479 179.798 51.5483 179.92 51.687C180.05 51.8257 180.115 52.0077 180.115 52.233V52.402C180.115 52.6187 180.05 52.8007 179.92 52.948C179.798 53.0867 179.599 53.156 179.322 53.156ZM182.864 53.156C182.595 53.156 182.396 53.0867 182.266 52.948C182.136 52.8007 182.071 52.6187 182.071 52.402V52.233C182.071 52.0077 182.136 51.8257 182.266 51.687C182.396 51.5483 182.595 51.479 182.864 51.479C183.141 51.479 183.34 51.5483 183.462 51.687C183.592 51.8257 183.657 52.0077 183.657 52.233V52.402C183.657 52.6187 183.592 52.8007 183.462 52.948C183.34 53.0867 183.141 53.156 182.864 53.156ZM186.406 53.156C186.137 53.156 185.938 53.0867 185.808 52.948C185.678 52.8007 185.613 52.6187 185.613 52.402V52.233C185.613 52.0077 185.678 51.8257 185.808 51.687C185.938 51.5483 186.137 51.479 186.406 51.479C186.683 51.479 186.882 51.5483 187.004 51.687C187.134 51.8257 187.199 52.0077 187.199 52.233V52.402C187.199 52.6187 187.134 52.8007 187.004 52.948C186.882 53.0867 186.683 53.156 186.406 53.156ZM189.155 53V51.882L192.119 49.152C192.543 48.762 192.899 48.346 193.185 47.904C193.471 47.462 193.614 47.0243 193.614 46.591V46.435C193.614 45.9323 193.475 45.525 193.198 45.213C192.92 44.901 192.5 44.745 191.937 44.745C191.382 44.745 190.957 44.8923 190.663 45.187C190.377 45.4817 190.173 45.8457 190.052 46.279L189.077 45.902C189.198 45.5467 189.371 45.2087 189.597 44.888C189.831 44.5587 190.143 44.29 190.533 44.082C190.923 43.874 191.408 43.77 191.989 43.77C192.578 43.77 193.081 43.8827 193.497 44.108C193.913 44.3333 194.229 44.6453 194.446 45.044C194.662 45.434 194.771 45.889 194.771 46.409C194.771 46.877 194.684 47.306 194.511 47.696C194.346 48.086 194.112 48.4543 193.809 48.801C193.514 49.1477 193.172 49.4943 192.782 49.841L190.338 52.038H195.109V53H189.155ZM197.119 53V52.038H199.654V44.732H199.563L197.275 46.864L196.638 46.175L199.043 43.926H200.746V52.038H203.086V53H197.119ZM204.745 53V51.882L207.709 49.152C208.133 48.762 208.489 48.346 208.775 47.904C209.061 47.462 209.204 47.0243 209.204 46.591V46.435C209.204 45.9323 209.065 45.525 208.788 45.213C208.51 44.901 208.09 44.745 207.527 44.745C206.972 44.745 206.547 44.8923 206.253 45.187C205.967 45.4817 205.763 45.8457 205.642 46.279L204.667 45.902C204.788 45.5467 204.961 45.2087 205.187 44.888C205.421 44.5587 205.733 44.29 206.123 44.082C206.513 43.874 206.998 43.77 207.579 43.77C208.168 43.77 208.671 43.8827 209.087 44.108C209.503 44.3333 209.819 44.6453 210.036 45.044C210.252 45.434 210.361 45.889 210.361 46.409C210.361 46.877 210.274 47.306 210.101 47.696C209.936 48.086 209.702 48.4543 209.399 48.801C209.104 49.1477 208.762 49.4943 208.372 49.841L205.928 52.038H210.699V53H204.745ZM216.439 53V51.219H212.058V50.257L215.854 43.926H217.479V50.309H218.792V51.219H217.479V53H216.439ZM213.085 50.309H216.439V44.771H216.374L213.085 50.309Z" fill="#FCFCFD"/>
<path d="M140.164 73.144C139.516 73.144 138.992 72.968 138.592 72.616C138.2 72.264 137.948 71.804 137.836 71.236L138.748 71.02C138.828 71.38 138.98 71.676 139.204 71.908C139.436 72.132 139.764 72.244 140.188 72.244C140.62 72.244 140.956 72.112 141.196 71.848C141.436 71.584 141.556 71.184 141.556 70.648V65.512H138.676V64.624H142.564V70.828C142.564 71.3 142.46 71.712 142.252 72.064C142.052 72.408 141.772 72.676 141.412 72.868C141.052 73.052 140.636 73.144 140.164 73.144ZM147.517 73.144C146.965 73.144 146.477 73.012 146.053 72.748C145.637 72.476 145.309 72.1 145.069 71.62C144.837 71.132 144.721 70.56 144.721 69.904C144.721 69.248 144.837 68.68 145.069 68.2C145.309 67.712 145.637 67.336 146.053 67.072C146.477 66.8 146.965 66.664 147.517 66.664C148.069 66.664 148.553 66.8 148.969 67.072C149.393 67.336 149.721 67.712 149.953 68.2C150.193 68.68 150.313 69.248 150.313 69.904C150.313 70.56 150.193 71.132 149.953 71.62C149.721 72.1 149.393 72.476 148.969 72.748C148.553 73.012 148.069 73.144 147.517 73.144ZM147.517 72.292C148.037 72.292 148.461 72.132 148.789 71.812C149.117 71.492 149.281 71.004 149.281 70.348V69.46C149.281 68.804 149.117 68.316 148.789 67.996C148.461 67.676 148.037 67.516 147.517 67.516C147.005 67.516 146.581 67.676 146.245 67.996C145.917 68.316 145.753 68.804 145.753 69.46V70.348C145.753 71.004 145.917 71.492 146.245 71.812C146.581 72.132 147.005 72.292 147.517 72.292ZM152.432 73V64.12H153.392V67.816H153.44C153.592 67.464 153.804 67.184 154.076 66.976C154.356 66.768 154.728 66.664 155.192 66.664C155.832 66.664 156.336 66.872 156.704 67.288C157.08 67.696 157.268 68.276 157.268 69.028V73H156.308V69.196C156.308 68.644 156.188 68.228 155.948 67.948C155.716 67.668 155.368 67.528 154.904 67.528C154.648 67.528 154.404 67.572 154.172 67.66C153.94 67.74 153.752 67.868 153.608 68.044C153.464 68.22 153.392 68.44 153.392 68.704V73H152.432ZM159.792 73V66.808H160.752V67.816H160.8C160.952 67.464 161.164 67.184 161.436 66.976C161.716 66.768 162.088 66.664 162.552 66.664C163.192 66.664 163.696 66.872 164.064 67.288C164.44 67.696 164.628 68.276 164.628 69.028V73H163.668V69.196C163.668 68.644 163.548 68.228 163.308 67.948C163.076 67.668 162.728 67.528 162.264 67.528C162.008 67.528 161.764 67.572 161.532 67.66C161.3 67.74 161.112 67.868 160.968 68.044C160.824 68.22 160.752 68.44 160.752 68.704V73H159.792ZM171.789 73L169.749 64.624H170.817L171.717 68.656L172.413 71.788H172.437L173.217 68.656L174.273 64.624H175.425L176.445 68.656L177.225 71.776H177.261L177.981 68.656L178.929 64.624H179.961L177.813 73H176.697L175.605 68.824L174.837 65.752H174.813L174.021 68.824L172.905 73H171.789ZM181.756 73V66.808H182.716V73H181.756ZM182.236 65.356C182.036 65.356 181.888 65.308 181.792 65.212C181.696 65.108 181.648 64.976 181.648 64.816V64.66C181.648 64.5 181.696 64.372 181.792 64.276C181.888 64.172 182.036 64.12 182.236 64.12C182.444 64.12 182.592 64.172 182.68 64.276C182.776 64.372 182.824 64.5 182.824 64.66V64.816C182.824 64.976 182.776 65.108 182.68 65.212C182.592 65.308 182.444 65.356 182.236 65.356ZM187.6 73.144C186.728 73.144 186.048 72.852 185.56 72.268C185.08 71.684 184.84 70.896 184.84 69.904C184.84 68.912 185.08 68.124 185.56 67.54C186.048 66.956 186.728 66.664 187.6 66.664C188.216 66.664 188.712 66.8 189.088 67.072C189.464 67.344 189.74 67.692 189.916 68.116L189.112 68.524C189 68.204 188.812 67.956 188.548 67.78C188.292 67.604 187.976 67.516 187.6 67.516C187.032 67.516 186.6 67.692 186.304 68.044C186.016 68.388 185.872 68.832 185.872 69.376V70.432C185.872 70.968 186.016 71.412 186.304 71.764C186.6 72.116 187.032 72.292 187.6 72.292C187.992 72.292 188.328 72.2 188.608 72.016C188.888 71.832 189.112 71.564 189.28 71.212L189.976 71.68C189.776 72.12 189.476 72.476 189.076 72.748C188.684 73.012 188.192 73.144 187.6 73.144ZM191.871 73V64.12H192.831V69.748H192.879L193.827 68.692L195.579 66.808H196.743L194.451 69.256L196.971 73H195.807L193.755 69.844L192.831 70.792V73H191.871Z" fill="#777E90"/>
</g>
<rect x="34" y="20.5" width="201" height="71" stroke="#313856"/>
<rect x="1" y="45.5" width="201" height="71" fill="#1F2232"/>
<rect x="17" y="73.5" width="15" height="15" rx="3.5" stroke="#777E90"/>
<g clip-path="url(#clip4_1967_95548)">
<mask id="mask2_1967_95548" style="mask-type:luminance" maskUnits="userSpaceOnUse" x="48" y="61" width="41" height="40">
<path d="M88.5 81C88.5 69.9543 79.5457 61 68.5 61C57.4543 61 48.5 69.9543 48.5 81C48.5 92.0457 57.4543 101 68.5 101C79.5457 101 88.5 92.0457 88.5 81Z" fill="white"/>
</mask>
<g mask="url(#mask2_1967_95548)">
<path d="M88.5 61H48.5V101H88.5V61Z" fill="#49007E"/>
<path d="M79.5383 107.94L99.5436 86.4873C102.306 83.5252 102.144 78.8849 99.1817 76.1227L77.7286 56.1174C74.7666 53.3553 70.1262 53.5173 67.364 56.4794L47.3588 77.9324C44.5966 80.8944 44.7586 85.5348 47.7207 88.297L69.1737 108.302C72.1358 111.064 76.7762 110.902 79.5383 107.94Z" fill="#FF7D10"/>
<path d="M69.1758 81.1714C71.4531 82.1647 73.6723 82.0484 75.8333 80.8225" stroke="black" stroke-width="2.22222" stroke-linecap="round"/>
<path d="M66.1112 75.7688C66.0791 75.156 65.6805 74.6788 65.2209 74.7028C64.7613 74.7269 64.4147 75.2432 64.4468 75.856C64.4789 76.4689 64.8776 76.9461 65.3372 76.922C65.7968 76.8979 66.1433 76.3816 66.1112 75.7688Z" fill="black"/>
<path d="M79.4257 75.0711C79.3935 74.4583 78.9949 73.981 78.5353 74.0051C78.0757 74.0292 77.7292 74.5455 77.7613 75.1583C77.7934 75.7711 78.192 76.2484 78.6516 76.2243C79.1112 76.2002 79.4578 75.6839 79.4257 75.0711Z" fill="black"/>
</g>
</g>
<g clip-path="url(#clip5_1967_95548)">
<path d="M108.4 78.156C107.317 78.156 106.524 77.7443 106.021 76.921C105.527 76.0977 105.28 74.945 105.28 73.463C105.28 71.981 105.527 70.8283 106.021 70.005C106.524 69.1817 107.317 68.77 108.4 68.77C109.483 68.77 110.272 69.1817 110.766 70.005C111.269 70.8283 111.52 71.981 111.52 73.463C111.52 74.945 111.269 76.0977 110.766 76.921C110.272 77.7443 109.483 78.156 108.4 78.156ZM108.4 77.207C108.877 77.207 109.258 77.0813 109.544 76.83C109.83 76.57 110.038 76.2147 110.168 75.764C110.307 75.3047 110.376 74.7847 110.376 74.204V72.722C110.376 72.1327 110.307 71.6127 110.168 71.162C110.038 70.7113 109.83 70.3603 109.544 70.109C109.258 69.849 108.877 69.719 108.4 69.719C107.932 69.719 107.551 69.849 107.256 70.109C106.97 70.3603 106.758 70.7113 106.619 71.162C106.489 71.6127 106.424 72.1327 106.424 72.722V74.204C106.424 74.7847 106.489 75.3047 106.619 75.764C106.758 76.2147 106.97 76.57 107.256 76.83C107.551 77.0813 107.932 77.207 108.4 77.207ZM112.568 78L115.051 74.62L112.672 71.292H113.894L115.597 73.788H115.636L117.404 71.292H118.561L116.195 74.542L118.613 78H117.391L115.649 75.374H115.61L113.725 78H112.568ZM120.028 78V77.038H122.563V69.732H122.472L120.184 71.864L119.547 71.175L121.952 68.926H123.655V77.038H125.995V78H120.028ZM127.654 78V76.882L130.618 74.152C131.042 73.762 131.398 73.346 131.684 72.904C131.97 72.462 132.113 72.0243 132.113 71.591V71.435C132.113 70.9323 131.974 70.525 131.697 70.213C131.419 69.901 130.999 69.745 130.436 69.745C129.881 69.745 129.456 69.8923 129.162 70.187C128.876 70.4817 128.672 70.8457 128.551 71.279L127.576 70.902C127.697 70.5467 127.87 70.2087 128.096 69.888C128.33 69.5587 128.642 69.29 129.032 69.082C129.422 68.874 129.907 68.77 130.488 68.77C131.077 68.77 131.58 68.8827 131.996 69.108C132.412 69.3333 132.728 69.6453 132.945 70.044C133.161 70.434 133.27 70.889 133.27 71.409C133.27 71.877 133.183 72.306 133.01 72.696C132.845 73.086 132.611 73.4543 132.308 73.801C132.013 74.1477 131.671 74.4943 131.281 74.841L128.837 77.038H133.608V78H127.654ZM138.075 78.156C137.13 78.156 136.393 77.8397 135.865 77.207C135.345 76.5743 135.085 75.7207 135.085 74.646C135.085 73.5713 135.345 72.7177 135.865 72.085C136.393 71.4523 137.13 71.136 138.075 71.136C138.742 71.136 139.279 71.2833 139.687 71.578C140.094 71.8727 140.393 72.2497 140.584 72.709L139.713 73.151C139.591 72.8043 139.388 72.5357 139.102 72.345C138.824 72.1543 138.482 72.059 138.075 72.059C137.459 72.059 136.991 72.2497 136.671 72.631C136.359 73.0037 136.203 73.4847 136.203 74.074V75.218C136.203 75.7987 136.359 76.2797 136.671 76.661C136.991 77.0423 137.459 77.233 138.075 77.233C138.499 77.233 138.863 77.1333 139.167 76.934C139.47 76.7347 139.713 76.4443 139.895 76.063L140.649 76.57C140.432 77.0467 140.107 77.4323 139.674 77.727C139.249 78.013 138.716 78.156 138.075 78.156ZM142.78 78.156C142.511 78.156 142.312 78.0867 142.182 77.948C142.052 77.8007 141.987 77.6187 141.987 77.402V77.233C141.987 77.0077 142.052 76.8257 142.182 76.687C142.312 76.5483 142.511 76.479 142.78 76.479C143.057 76.479 143.256 76.5483 143.378 76.687C143.508 76.8257 143.573 77.0077 143.573 77.233V77.402C143.573 77.6187 143.508 77.8007 143.378 77.948C143.256 78.0867 143.057 78.156 142.78 78.156ZM146.322 78.156C146.053 78.156 145.854 78.0867 145.724 77.948C145.594 77.8007 145.529 77.6187 145.529 77.402V77.233C145.529 77.0077 145.594 76.8257 145.724 76.687C145.854 76.5483 146.053 76.479 146.322 76.479C146.599 76.479 146.798 76.5483 146.92 76.687C147.05 76.8257 147.115 77.0077 147.115 77.233V77.402C147.115 77.6187 147.05 77.8007 146.92 77.948C146.798 78.0867 146.599 78.156 146.322 78.156ZM149.864 78.156C149.595 78.156 149.396 78.0867 149.266 77.948C149.136 77.8007 149.071 77.6187 149.071 77.402V77.233C149.071 77.0077 149.136 76.8257 149.266 76.687C149.396 76.5483 149.595 76.479 149.864 76.479C150.141 76.479 150.34 76.5483 150.462 76.687C150.592 76.8257 150.657 77.0077 150.657 77.233V77.402C150.657 77.6187 150.592 77.8007 150.462 77.948C150.34 78.0867 150.141 78.156 149.864 78.156ZM153.406 78.156C153.137 78.156 152.938 78.0867 152.808 77.948C152.678 77.8007 152.613 77.6187 152.613 77.402V77.233C152.613 77.0077 152.678 76.8257 152.808 76.687C152.938 76.5483 153.137 76.479 153.406 76.479C153.683 76.479 153.882 76.5483 154.004 76.687C154.134 76.8257 154.199 77.0077 154.199 77.233V77.402C154.199 77.6187 154.134 77.8007 154.004 77.948C153.882 78.0867 153.683 78.156 153.406 78.156ZM156.155 78V76.882L159.119 74.152C159.543 73.762 159.899 73.346 160.185 72.904C160.471 72.462 160.614 72.0243 160.614 71.591V71.435C160.614 70.9323 160.475 70.525 160.198 70.213C159.92 69.901 159.5 69.745 158.937 69.745C158.382 69.745 157.957 69.8923 157.663 70.187C157.377 70.4817 157.173 70.8457 157.052 71.279L156.077 70.902C156.198 70.5467 156.371 70.2087 156.597 69.888C156.831 69.5587 157.143 69.29 157.533 69.082C157.923 68.874 158.408 68.77 158.989 68.77C159.578 68.77 160.081 68.8827 160.497 69.108C160.913 69.3333 161.229 69.6453 161.446 70.044C161.662 70.434 161.771 70.889 161.771 71.409C161.771 71.877 161.684 72.306 161.511 72.696C161.346 73.086 161.112 73.4543 160.809 73.801C160.514 74.1477 160.172 74.4943 159.782 74.841L157.338 77.038H162.109V78H156.155ZM164.119 78V77.038H166.654V69.732H166.563L164.275 71.864L163.638 71.175L166.043 68.926H167.746V77.038H170.086V78H164.119ZM171.745 78V76.882L174.709 74.152C175.133 73.762 175.489 73.346 175.775 72.904C176.061 72.462 176.204 72.0243 176.204 71.591V71.435C176.204 70.9323 176.065 70.525 175.788 70.213C175.51 69.901 175.09 69.745 174.527 69.745C173.972 69.745 173.547 69.8923 173.253 70.187C172.967 70.4817 172.763 70.8457 172.642 71.279L171.667 70.902C171.788 70.5467 171.961 70.2087 172.187 69.888C172.421 69.5587 172.733 69.29 173.123 69.082C173.513 68.874 173.998 68.77 174.579 68.77C175.168 68.77 175.671 68.8827 176.087 69.108C176.503 69.3333 176.819 69.6453 177.036 70.044C177.252 70.434 177.361 70.889 177.361 71.409C177.361 71.877 177.274 72.306 177.101 72.696C176.936 73.086 176.702 73.4543 176.399 73.801C176.104 74.1477 175.762 74.4943 175.372 74.841L172.928 77.038H177.699V78H171.745ZM183.439 78V76.219H179.058V75.257L182.854 68.926H184.479V75.309H185.792V76.219H184.479V78H183.439ZM180.085 75.309H183.439V69.771H183.374L180.085 75.309Z" fill="#FCFCFD"/>
<path d="M107.74 98.984V98C107.132 97.96 106.616 97.812 106.192 97.556C105.776 97.292 105.42 96.964 105.124 96.572L105.832 95.936C106.088 96.28 106.372 96.556 106.684 96.764C106.996 96.964 107.352 97.092 107.752 97.148V94.064C106.928 93.88 106.324 93.608 105.94 93.248C105.564 92.888 105.376 92.4 105.376 91.784C105.376 91.144 105.596 90.64 106.036 90.272C106.476 89.904 107.044 89.688 107.74 89.624V88.64H108.484V89.612C109.028 89.66 109.496 89.8 109.888 90.032C110.288 90.256 110.632 90.568 110.92 90.968L110.188 91.52C109.988 91.24 109.748 91.012 109.468 90.836C109.188 90.652 108.856 90.532 108.472 90.476V93.284C109.368 93.484 110.008 93.764 110.392 94.124C110.776 94.476 110.968 94.968 110.968 95.6C110.968 96.28 110.744 96.832 110.296 97.256C109.848 97.68 109.244 97.928 108.484 98V98.984H107.74ZM108.472 97.148C108.944 97.084 109.32 96.924 109.6 96.668C109.88 96.404 110.02 96.068 110.02 95.66C110.02 95.26 109.9 94.948 109.66 94.724C109.428 94.5 109.032 94.324 108.472 94.196V97.148ZM107.752 93.128V90.476C107.32 90.532 106.972 90.664 106.708 90.872C106.452 91.08 106.324 91.36 106.324 91.712C106.324 91.984 106.376 92.208 106.48 92.384C106.584 92.56 106.74 92.708 106.948 92.828C107.164 92.94 107.432 93.04 107.752 93.128ZM113.268 98V97.112H115.608V90.368H115.524L113.412 92.336L112.824 91.7L115.044 89.624H116.616V97.112H118.776V98H113.268ZM123.547 98.144C122.547 98.144 121.815 97.764 121.351 97.004C120.895 96.244 120.667 95.18 120.667 93.812C120.667 92.444 120.895 91.38 121.351 90.62C121.815 89.86 122.547 89.48 123.547 89.48C124.547 89.48 125.275 89.86 125.731 90.62C126.195 91.38 126.427 92.444 126.427 93.812C126.427 95.18 126.195 96.244 125.731 97.004C125.275 97.764 124.547 98.144 123.547 98.144ZM123.547 97.268C123.987 97.268 124.339 97.152 124.603 96.92C124.867 96.68 125.059 96.352 125.179 95.936C125.307 95.512 125.371 95.032 125.371 94.496V93.128C125.371 92.584 125.307 92.104 125.179 91.688C125.059 91.272 124.867 90.948 124.603 90.716C124.339 90.476 123.987 90.356 123.547 90.356C123.115 90.356 122.763 90.476 122.491 90.716C122.227 90.948 122.031 91.272 121.903 91.688C121.783 92.104 121.723 92.584 121.723 93.128V94.496C121.723 95.032 121.783 95.512 121.903 95.936C122.031 96.352 122.227 96.68 122.491 96.92C122.763 97.152 123.115 97.268 123.547 97.268ZM128.151 99.596C128.391 99.34 128.583 99.096 128.727 98.864C128.879 98.64 128.987 98.388 129.051 98.108C128.891 98.068 128.771 97.992 128.691 97.88C128.619 97.768 128.583 97.632 128.583 97.472V97.304C128.583 97.096 128.643 96.928 128.763 96.8C128.883 96.664 129.067 96.596 129.315 96.596C129.571 96.596 129.755 96.664 129.867 96.8C129.987 96.928 130.047 97.096 130.047 97.304V97.472C130.047 97.792 129.951 98.152 129.759 98.552C129.567 98.952 129.299 99.3 128.955 99.596H128.151ZM135.032 98.144C134.568 98.144 134.172 98.076 133.844 97.94C133.516 97.796 133.236 97.616 133.004 97.4C132.78 97.184 132.584 96.956 132.416 96.716L133.172 96.14C133.388 96.468 133.624 96.736 133.88 96.944C134.144 97.144 134.528 97.244 135.032 97.244C135.6 97.244 136.032 97.092 136.328 96.788C136.632 96.484 136.784 96.056 136.784 95.504V95.384C136.784 94.832 136.632 94.404 136.328 94.1C136.032 93.796 135.6 93.644 135.032 93.644C134.648 93.644 134.344 93.716 134.12 93.86C133.904 93.996 133.708 94.16 133.532 94.352L132.68 94.232L132.98 89.624H137.468V90.512H133.796L133.556 93.704H133.64C133.776 93.512 133.92 93.348 134.072 93.212C134.224 93.076 134.404 92.972 134.612 92.9C134.82 92.82 135.068 92.78 135.356 92.78C135.836 92.78 136.264 92.884 136.64 93.092C137.016 93.3 137.312 93.596 137.528 93.98C137.744 94.364 137.852 94.828 137.852 95.372C137.852 95.916 137.74 96.396 137.516 96.812C137.292 97.228 136.968 97.556 136.544 97.796C136.128 98.028 135.624 98.144 135.032 98.144ZM142.827 98.144C141.827 98.144 141.095 97.764 140.631 97.004C140.175 96.244 139.947 95.18 139.947 93.812C139.947 92.444 140.175 91.38 140.631 90.62C141.095 89.86 141.827 89.48 142.827 89.48C143.827 89.48 144.555 89.86 145.011 90.62C145.475 91.38 145.707 92.444 145.707 93.812C145.707 95.18 145.475 96.244 145.011 97.004C144.555 97.764 143.827 98.144 142.827 98.144ZM142.827 97.268C143.267 97.268 143.619 97.152 143.883 96.92C144.147 96.68 144.339 96.352 144.459 95.936C144.587 95.512 144.651 95.032 144.651 94.496V93.128C144.651 92.584 144.587 92.104 144.459 91.688C144.339 91.272 144.147 90.948 143.883 90.716C143.619 90.476 143.267 90.356 142.827 90.356C142.395 90.356 142.043 90.476 141.771 90.716C141.507 90.948 141.311 91.272 141.183 91.688C141.063 92.104 141.003 92.584 141.003 93.128V94.496C141.003 95.032 141.063 95.512 141.183 95.936C141.311 96.352 141.507 96.68 141.771 96.92C142.043 97.152 142.395 97.268 142.827 97.268ZM150.563 98.144C149.563 98.144 148.831 97.764 148.367 97.004C147.911 96.244 147.683 95.18 147.683 93.812C147.683 92.444 147.911 91.38 148.367 90.62C148.831 89.86 149.563 89.48 150.563 89.48C151.563 89.48 152.291 89.86 152.747 90.62C153.211 91.38 153.443 92.444 153.443 93.812C153.443 95.18 153.211 96.244 152.747 97.004C152.291 97.764 151.563 98.144 150.563 98.144ZM150.563 97.268C151.003 97.268 151.355 97.152 151.619 96.92C151.883 96.68 152.075 96.352 152.195 95.936C152.323 95.512 152.387 95.032 152.387 94.496V93.128C152.387 92.584 152.323 92.104 152.195 91.688C152.075 91.272 151.883 90.948 151.619 90.716C151.355 90.476 151.003 90.356 150.563 90.356C150.131 90.356 149.779 90.476 149.507 90.716C149.243 90.948 149.047 91.272 148.919 91.688C148.799 92.104 148.739 92.584 148.739 93.128V94.496C148.739 95.032 148.799 95.512 148.919 95.936C149.047 96.352 149.243 96.68 149.507 96.92C149.779 97.152 150.131 97.268 150.563 97.268Z" fill="#777E90"/>
</g>
<g filter="url(#filter0_d_1967_95548)">
<path fill-rule="evenodd" clip-rule="evenodd" d="M28.3855 96.5523C28.5358 96.6877 28.6395 96.7849 28.9602 97.0895C29.2743 97.3878 29.4261 97.5288 29.565 97.6467C29.6229 97.6955 29.6723 97.826 29.6919 98.0199C29.708 98.1795 29.7024 98.3574 29.6829 98.5289C29.6761 98.5882 29.6696 98.631 29.6659 98.6514C29.624 98.8802 29.7984 99.0915 30.0309 99.0939C30.2402 99.096 30.4015 99.0986 30.8284 99.1062C30.9352 99.1081 30.9352 99.1081 31.0423 99.11C32.2026 99.1299 32.7952 99.1244 33.2205 99.071C33.6752 99.0138 34.1434 98.4648 34.5481 97.7758C34.891 98.3854 35.3667 98.9807 35.8471 99.0581C35.9997 99.0825 36.1843 99.0901 36.3983 99.0851C36.5578 99.0815 36.7266 99.071 36.897 99.0557C37.0255 99.0442 37.1278 99.0327 37.189 99.0248C37.4149 98.9955 37.5627 98.7732 37.5023 98.5535C37.4893 98.5061 37.4683 98.419 37.4472 98.3094C37.4227 98.1824 37.405 98.0583 37.397 97.9452C37.3919 97.8735 37.3909 97.8086 37.3941 97.7525C37.3998 97.6547 37.4015 97.6 37.4043 97.4735C37.4053 97.4264 37.4053 97.4264 37.4067 97.3852C37.412 97.2503 37.4301 97.1222 37.4887 96.843C37.5139 96.7217 37.636 96.4898 37.8283 96.2027C37.8856 96.1172 37.9482 96.0279 38.0153 95.9358C38.1425 95.761 38.2794 95.5844 38.4164 95.4154C38.4984 95.3141 38.5618 95.2384 38.5972 95.1973C38.8934 94.7729 39.2093 94.0781 39.3253 93.6719C39.4367 93.2815 39.5259 92.5625 39.5806 91.8559C39.6106 91.455 39.6217 91.1318 39.6217 90.6249C39.6218 90.536 39.6218 90.536 39.6219 90.4625C39.6222 90.3423 39.6222 90.2968 39.6219 90.2406C39.6208 90.087 39.6163 89.9348 39.6015 89.5466C39.5695 88.7329 39.1237 88.2069 38.4666 88.1054C37.9076 88.0191 37.2272 88.4834 37.2272 88.4834C37.2272 88.4834 37.0758 87.9606 36.9735 87.7992C36.8073 87.5398 36.3793 87.2093 36.0521 87.145C35.7156 87.0796 35.3167 87.0868 34.9504 87.1516C34.6296 87.209 34.3101 87.4955 34.1252 87.8044C33.993 88.0248 34.1174 87.7927 33.9851 87.5647C33.8021 87.2507 33.3758 86.9695 32.9699 86.8865C32.6259 86.8154 32.2318 86.8425 31.8719 86.9494C31.4089 87.0878 31.3352 87.4402 31.3167 87.3393C31.2552 87.001 31.2495 87.0233 31.2111 86.782C31.0685 85.8867 30.909 85.2673 30.667 84.7267C30.6809 84.7578 30.5784 84.5246 30.5411 84.4441C30.4765 84.3049 30.412 84.1788 30.3411 84.0576C30.1226 83.684 29.8722 83.4042 29.558 83.2453C29.0124 82.969 28.1946 83.1034 27.807 83.5559C27.422 84.0056 27.3578 84.7574 27.4548 85.6878C27.4918 86.049 27.6215 86.7084 27.7392 87.1959C27.7808 87.3651 27.8173 87.5194 27.8841 87.8044C27.8956 87.8529 27.8956 87.8529 27.9072 87.9014C27.9589 88.1171 28.0043 88.2946 28.0584 88.4893C28.0528 88.469 28.1555 88.8334 28.1773 88.9141C28.1846 88.941 28.1846 88.941 28.1918 88.968C28.2326 89.1218 28.2726 89.2876 28.3349 89.5643C28.369 89.7165 28.4023 89.879 28.4349 90.0513C28.5238 90.5213 28.5242 90.4234 28.4387 90.3232C28.3796 90.254 28.324 90.1911 28.2704 90.1332C28.1706 90.0254 28.0789 89.9364 27.9918 89.8653C27.3574 89.3463 26.9687 89.1169 26.435 89.0666C25.5596 88.9825 24.7288 89.6008 24.6039 90.4354C24.527 90.9471 24.5518 91.1826 24.7885 91.6348C24.9188 91.8791 25.1391 92.1742 25.5502 92.6822C25.5754 92.7132 25.5754 92.7132 25.6005 92.7442C26.1052 93.3661 26.1602 93.4352 26.2802 93.609C26.6045 94.0797 27.3941 95.4311 27.5376 95.6126L28.3855 96.5523Z" fill="black"/>
<path fill-rule="evenodd" clip-rule="evenodd" d="M26.1828 92.2716C26.158 92.241 26.158 92.241 26.1331 92.2103C25.7558 91.7442 25.549 91.4671 25.4516 91.2845C25.2988 90.9925 25.2904 90.9134 25.3455 90.5466C25.4102 90.1141 25.8773 89.7664 26.3638 89.8132C26.7004 89.8449 26.9945 90.0184 27.5172 90.4461C27.5738 90.4923 27.642 90.5586 27.7201 90.6428C27.7663 90.6927 27.8152 90.7481 27.8681 90.81C27.9475 90.9031 28.2151 91.2305 28.1757 91.1829C28.2338 91.2528 28.2754 91.307 28.3229 91.3733C28.417 91.5077 28.47 91.5823 28.5417 91.6779C28.5081 91.633 28.7564 91.9763 28.809 92.0265C29.0876 92.2925 29.491 92.0685 29.4658 91.7141C29.4615 91.6549 29.4476 91.591 29.4186 91.4794C29.3037 90.6602 29.2635 90.3972 29.1718 89.912C29.1377 89.7318 29.1027 89.561 29.0666 89.3998C29.0022 89.1142 28.9602 88.9397 28.9166 88.7756C28.9089 88.7465 28.9089 88.7465 28.9011 88.7177C28.8781 88.6329 28.7739 88.263 28.7808 88.2878C28.7295 88.1032 28.6863 87.9341 28.6365 87.7265C28.6252 87.6792 28.6252 87.6792 28.6139 87.6316C28.5474 87.3481 28.51 87.1898 28.4678 87.0183C28.3578 86.5627 28.2336 85.9311 28.2007 85.6107C28.1252 84.8864 28.1773 84.2765 28.3765 84.0438C28.5321 83.8622 28.9729 83.7897 29.2193 83.9144C29.3803 83.9959 29.5413 84.1758 29.6936 84.4362C29.7512 84.5348 29.8053 84.6405 29.8607 84.7598C29.8942 84.832 29.9936 85.0582 29.9824 85.0332C30.1927 85.5031 30.3372 86.064 30.4703 86.8999C30.5097 87.1475 30.5585 87.4281 30.621 87.7714C30.6396 87.8732 30.6396 87.8732 30.6582 87.9745C30.9596 89.6099 30.9375 89.4859 30.9419 89.6163C30.9577 90.0921 31.66 90.1033 31.6909 89.6282C31.7007 89.4776 31.6972 89.3431 31.6798 88.9568C31.6773 88.9021 31.6773 88.9021 31.675 88.8477C31.6598 88.4918 31.6606 88.287 31.6817 88.1706C31.72 87.9584 31.9106 87.7206 32.086 87.6682C32.3325 87.595 32.6024 87.5764 32.8187 87.6211C33.0258 87.6635 33.2674 87.8228 33.3367 87.9417C33.4202 88.0857 33.4919 88.3051 33.5468 88.577C33.5911 88.7965 33.6216 89.032 33.643 89.2833C33.6497 89.3615 33.654 89.4219 33.6607 89.5218C33.6636 89.5637 33.6636 89.5637 33.6664 89.5982C33.668 89.6155 33.668 89.6155 33.6719 89.6429C33.675 89.662 33.675 89.662 33.6893 89.7106C33.6966 89.8484 33.6966 89.8484 34.2501 89.8995C34.4154 89.6997 34.4154 89.6997 34.4109 89.6647C34.4379 89.5463 34.4545 89.4144 34.4781 89.1665C34.4932 89.0054 34.5008 88.9262 34.5097 88.844C34.5465 88.5039 34.5932 88.2878 34.6502 88.1928C34.7209 88.0746 34.97 87.91 35.0817 87.89C35.3623 87.8404 35.6703 87.8348 35.9082 87.881C36.0159 87.9022 36.2787 88.1052 36.3409 88.2022C36.4687 88.4038 36.5929 89.0536 36.6629 89.6983C36.6518 89.7406 36.6518 89.7406 36.8236 89.9859C37.4139 89.9186 37.4139 89.9186 37.3973 89.8121C37.4129 89.7741 37.4253 89.7301 37.4428 89.6619C37.485 89.5022 37.513 89.4095 37.5547 89.3056C37.5835 89.2337 37.6139 89.1722 37.645 89.1233C37.7657 88.9333 38.0781 88.8043 38.3521 88.8466C38.6463 88.8921 38.8338 89.1133 38.852 89.5756C38.8665 89.956 38.8708 90.1023 38.8718 90.2458C38.8722 90.2988 38.8722 90.3413 38.8719 90.4609C38.8717 90.5348 38.8717 90.5348 38.8717 90.6249C38.8717 91.1138 38.8612 91.4184 38.8327 91.7989C38.7821 92.4522 38.6966 93.1417 38.6041 93.466C38.5096 93.7966 38.2276 94.4169 38.0043 94.7395C37.9885 94.7548 37.9205 94.8359 37.8336 94.9431C37.689 95.1215 37.5444 95.3081 37.4088 95.4944C37.3363 95.5941 37.2681 95.6913 37.2051 95.7853C36.9615 96.1491 36.8051 96.4461 36.7545 96.6896C36.6881 97.006 36.6643 97.1738 36.6572 97.3558C36.6555 97.4073 36.6555 97.4073 36.6544 97.4573C36.6518 97.5753 36.6503 97.623 36.6453 97.7093C36.6401 97.8 36.6415 97.8965 36.6488 97.9984C36.6592 98.1444 36.6488 98.3439 36.6488 98.3439C36.6488 98.3439 36.5222 98.3321 36.3809 98.3353C36.2084 98.3393 36.065 98.3334 35.9658 98.3176C35.8228 98.2945 35.4365 97.8111 35.2387 97.4345C34.9364 96.8581 34.2026 96.8861 33.9018 97.3951C33.6305 97.8569 33.2422 98.3123 33.1269 98.3268C32.7523 98.3739 32.1722 98.3793 31.0551 98.3601C30.9483 98.3582 30.9483 98.3582 30.8416 98.3563C30.4127 98.3487 30.4292 98.4211 30.438 98.3439C30.4631 98.1236 30.4602 98.1649 30.438 97.9446C30.4007 97.5753 30.2868 97.2741 30.0492 97.0741C29.9264 96.9697 29.7794 96.8333 29.4842 96.553C29.147 96.2326 29.0414 96.1336 28.9112 96.0192L28.1099 95.1285C28.022 95.016 27.2499 93.6946 26.8975 93.1831C26.7603 92.9845 26.7091 92.9201 26.1828 92.2716ZM35.6916 92.2754V95.7344C35.6916 96.2344 36.4416 96.2344 36.4416 95.7344V92.2754C36.4416 91.7754 35.6916 91.7754 35.6916 92.2754ZM33.66 92.2748L33.676 95.7478C33.6783 96.2478 34.4283 96.2444 34.426 95.7444L34.41 92.2714C34.4077 91.7714 33.6577 91.7748 33.66 92.2748ZM32.4509 95.7284L32.4299 92.3024C32.4268 91.8024 31.6768 91.807 31.6799 92.307L31.7009 95.733C31.7039 96.233 32.4539 96.2284 32.4509 95.7284Z" fill="white"/>
</g>
<rect x="1" y="45.5" width="201" height="71" stroke="#313856"/>
<defs>
<filter id="filter0_d_1967_95548" x="22.5649" y="82.1021" width="19.0571" height="20.0185" filterUnits="userSpaceOnUse" color-interpolation-filters="sRGB">
<feFlood flood-opacity="0" result="BackgroundImageFix"/>
<feColorMatrix in="SourceAlpha" type="matrix" values="0 0 0 0 0 0 0 0 0 0 0 0 0 0 0 0 0 0 127 0" result="hardAlpha"/>
<feOffset dy="1"/>
<feGaussianBlur stdDeviation="1"/>
<feColorMatrix type="matrix" values="0 0 0 0 0 0 0 0 0 0 0 0 0 0 0 0 0 0 0.298656 0"/>
<feBlend mode="normal" in2="BackgroundImageFix" result="effect1_dropShadow_1967_95548"/>
<feBlend mode="normal" in="SourceGraphic" in2="effect1_dropShadow_1967_95548" result="shape"/>
</filter>
<clipPath id="clip0_1967_95548">
<rect width="40" height="40" fill="white" transform="translate(82.5 16)"/>
</clipPath>
<clipPath id="clip1_1967_95548">
<rect width="82" height="40" fill="white" transform="translate(138.5 16)"/>
</clipPath>
<clipPath id="clip2_1967_95548">
<rect width="40" height="40" fill="white" transform="translate(81.5 36)"/>
</clipPath>
<clipPath id="clip3_1967_95548">
<rect width="82" height="40" fill="white" transform="translate(137.5 36)"/>
</clipPath>
<clipPath id="clip4_1967_95548">
<rect width="40" height="40" fill="white" transform="translate(48.5 61)"/>
</clipPath>
<clipPath id="clip5_1967_95548">
<rect width="82" height="40" fill="white" transform="translate(104.5 61)"/>
</clipPath>
</defs>
</svg>
