<svg width="231" height="88" viewBox="0 0 231 88" fill="none" xmlns="http://www.w3.org/2000/svg">
<rect x="34" y="0.5" width="196" height="55" fill="#1F2232"/>
<rect x="50" y="20.5" width="15" height="15" rx="3.5" stroke="#777E90"/>
<rect x="83.5" y="20" width="28" height="16" rx="8" fill="#4EAEFD"/>
<g filter="url(#filter0_d_1967_95735)">
<rect x="97.5" y="22" width="12" height="12" rx="6" fill="#FCFCFD"/>
</g>
<path d="M133.907 33.156C133.144 33.156 132.49 32.9827 131.944 32.636C131.398 32.2807 130.978 31.7607 130.683 31.076C130.397 30.3827 130.254 29.529 130.254 28.515C130.254 27.501 130.397 26.643 130.683 25.941C130.978 25.2303 131.398 24.693 131.944 24.329C132.49 23.9563 133.144 23.77 133.907 23.77C134.661 23.77 135.298 23.9433 135.818 24.29C136.338 24.6367 136.741 25.1263 137.027 25.759L136.143 26.292C135.961 25.824 135.684 25.4513 135.311 25.174C134.938 24.888 134.47 24.745 133.907 24.745C133.127 24.745 132.516 25.031 132.074 25.603C131.641 26.1663 131.424 26.9117 131.424 27.839V29.191C131.424 30.1183 131.641 30.8507 132.074 31.388C132.516 31.9167 133.127 32.181 133.907 32.181C134.488 32.181 134.973 32.0337 135.363 31.739C135.753 31.4357 136.039 31.037 136.221 30.543L137.092 31.089C136.806 31.7217 136.39 32.2243 135.844 32.597C135.307 32.9697 134.661 33.156 133.907 33.156ZM141.214 33.156C140.616 33.156 140.088 33.013 139.628 32.727C139.178 32.4323 138.822 32.025 138.562 31.505C138.311 30.9763 138.185 30.3567 138.185 29.646C138.185 28.9353 138.311 28.32 138.562 27.8C138.822 27.2713 139.178 26.864 139.628 26.578C140.088 26.2833 140.616 26.136 141.214 26.136C141.812 26.136 142.337 26.2833 142.787 26.578C143.247 26.864 143.602 27.2713 143.853 27.8C144.113 28.32 144.243 28.9353 144.243 29.646C144.243 30.3567 144.113 30.9763 143.853 31.505C143.602 32.025 143.247 32.4323 142.787 32.727C142.337 33.013 141.812 33.156 141.214 33.156ZM141.214 32.233C141.778 32.233 142.237 32.0597 142.592 31.713C142.948 31.3663 143.125 30.8377 143.125 30.127V29.165C143.125 28.4543 142.948 27.9257 142.592 27.579C142.237 27.2323 141.778 27.059 141.214 27.059C140.66 27.059 140.2 27.2323 139.836 27.579C139.481 27.9257 139.303 28.4543 139.303 29.165V30.127C139.303 30.8377 139.481 31.3663 139.836 31.713C140.2 32.0597 140.66 32.233 141.214 32.233ZM145.954 35.6V26.292H146.994V27.384H147.046C147.219 26.9593 147.475 26.6473 147.813 26.448C148.151 26.24 148.549 26.136 149.009 26.136C149.572 26.136 150.057 26.279 150.465 26.565C150.872 26.851 151.184 27.2583 151.401 27.787C151.626 28.307 151.739 28.9267 151.739 29.646C151.739 30.3567 151.626 30.9763 151.401 31.505C151.184 32.0337 150.872 32.441 150.465 32.727C150.057 33.013 149.572 33.156 149.009 33.156C148.549 33.156 148.155 33.052 147.826 32.844C147.505 32.636 147.245 32.324 147.046 31.908H146.994V35.6H145.954ZM148.723 32.22C149.312 32.22 149.776 32.038 150.114 31.674C150.452 31.3013 150.621 30.816 150.621 30.218V29.074C150.621 28.476 150.452 27.995 150.114 27.631C149.776 27.2583 149.312 27.072 148.723 27.072C148.411 27.072 148.12 27.1283 147.852 27.241C147.592 27.3537 147.384 27.5053 147.228 27.696C147.072 27.8867 146.994 28.1077 146.994 28.359V30.855C146.994 31.141 147.072 31.388 147.228 31.596C147.384 31.7953 147.592 31.9513 147.852 32.064C148.12 32.168 148.411 32.22 148.723 32.22ZM153.496 35.6V34.69H154.549L155.056 33.26L152.547 26.292H153.587L155.199 30.855L155.511 31.947H155.576L155.94 30.855L157.565 26.292H158.592L155.589 34.56C155.494 34.8287 155.386 35.0367 155.264 35.184C155.152 35.34 155 35.4483 154.809 35.509C154.619 35.5697 154.359 35.6 154.029 35.6H153.496ZM165.058 33V24.888H162.172V23.926H169.036V24.888H166.15V33H165.058ZM169.846 33V26.292H170.886V27.527H170.951C171.029 27.3103 171.151 27.111 171.315 26.929C171.48 26.7383 171.692 26.5867 171.952 26.474C172.212 26.3527 172.524 26.292 172.888 26.292H173.291V27.332H172.68C172.308 27.332 171.987 27.384 171.718 27.488C171.45 27.5833 171.242 27.7133 171.094 27.878C170.956 28.0427 170.886 28.2333 170.886 28.45V33H169.846ZM176.285 33.156C175.574 33.156 175.02 32.974 174.621 32.61C174.231 32.246 174.036 31.752 174.036 31.128C174.036 30.7033 174.14 30.348 174.348 30.062C174.556 29.7673 174.868 29.5463 175.284 29.399C175.709 29.243 176.246 29.165 176.896 29.165H178.222V28.502C178.222 28.0253 178.092 27.6613 177.832 27.41C177.572 27.1587 177.173 27.033 176.636 27.033C176.237 27.033 175.899 27.124 175.622 27.306C175.345 27.488 175.115 27.7307 174.933 28.034L174.309 27.449C174.491 27.0937 174.781 26.786 175.18 26.526C175.579 26.266 176.081 26.136 176.688 26.136C177.494 26.136 178.122 26.3353 178.573 26.734C179.032 27.1327 179.262 27.6873 179.262 28.398V32.09H180.029V33H179.444C179.071 33 178.798 32.9047 178.625 32.714C178.452 32.5233 178.343 32.2807 178.3 31.986L178.287 31.908H178.222C178.083 32.3153 177.841 32.6273 177.494 32.844C177.156 33.052 176.753 33.156 176.285 33.156ZM176.454 32.272C176.801 32.272 177.104 32.22 177.364 32.116C177.633 32.0033 177.841 31.856 177.988 31.674C178.144 31.4833 178.222 31.2753 178.222 31.05V29.945H176.844C176.255 29.945 175.821 30.0317 175.544 30.205C175.267 30.3783 175.128 30.6297 175.128 30.959V31.232C175.128 31.5613 175.249 31.817 175.492 31.999C175.735 32.181 176.055 32.272 176.454 32.272ZM183.788 33.156C183.234 33.156 182.748 33.013 182.332 32.727C181.925 32.441 181.609 32.0337 181.383 31.505C181.167 30.9763 181.058 30.3567 181.058 29.646C181.058 28.9267 181.167 28.307 181.383 27.787C181.609 27.2583 181.925 26.851 182.332 26.565C182.748 26.279 183.234 26.136 183.788 26.136C184.248 26.136 184.646 26.24 184.984 26.448C185.322 26.6473 185.578 26.9593 185.751 27.384H185.803V23.38H186.843V33H185.803V31.908H185.751C185.552 32.324 185.288 32.636 184.958 32.844C184.638 33.052 184.248 33.156 183.788 33.156ZM184.074 32.22C184.395 32.22 184.685 32.168 184.945 32.064C185.205 31.9513 185.413 31.7953 185.569 31.596C185.725 31.388 185.803 31.141 185.803 30.855V28.359C185.803 28.1077 185.725 27.8867 185.569 27.696C185.413 27.5053 185.205 27.3537 184.945 27.241C184.685 27.1283 184.395 27.072 184.074 27.072C183.494 27.072 183.03 27.2583 182.683 27.631C182.345 27.995 182.176 28.476 182.176 29.074V30.218C182.176 30.816 182.345 31.3013 182.683 31.674C183.03 32.038 183.494 32.22 184.074 32.22ZM191.576 33.156C190.97 33.156 190.441 33.013 189.99 32.727C189.54 32.4323 189.189 32.025 188.937 31.505C188.686 30.9763 188.56 30.3567 188.56 29.646C188.56 28.9353 188.686 28.32 188.937 27.8C189.189 27.2713 189.54 26.864 189.99 26.578C190.441 26.2833 190.97 26.136 191.576 26.136C192.174 26.136 192.69 26.279 193.123 26.565C193.557 26.8423 193.89 27.228 194.124 27.722C194.358 28.216 194.475 28.7793 194.475 29.412V29.906H189.652V30.218C189.652 30.7987 189.826 31.284 190.172 31.674C190.528 32.0553 191.017 32.246 191.641 32.246C192.066 32.246 192.434 32.1463 192.746 31.947C193.067 31.7477 193.314 31.4617 193.487 31.089L194.228 31.622C194.012 32.0727 193.674 32.441 193.214 32.727C192.755 33.013 192.209 33.156 191.576 33.156ZM189.652 29.126H193.357V28.983C193.357 28.5843 193.284 28.2377 193.136 27.943C192.989 27.6483 192.781 27.4187 192.512 27.254C192.244 27.0893 191.932 27.007 191.576 27.007C191.204 27.007 190.87 27.0937 190.575 27.267C190.289 27.4403 190.064 27.683 189.899 27.995C189.735 28.2983 189.652 28.645 189.652 29.035V29.126ZM202.056 33.156C200.973 33.156 200.18 32.7443 199.677 31.921C199.183 31.0977 198.936 29.945 198.936 28.463C198.936 26.981 199.183 25.8283 199.677 25.005C200.18 24.1817 200.973 23.77 202.056 23.77C203.14 23.77 203.928 24.1817 204.422 25.005C204.925 25.8283 205.176 26.981 205.176 28.463C205.176 29.945 204.925 31.0977 204.422 31.921C203.928 32.7443 203.14 33.156 202.056 33.156ZM202.056 32.207C202.533 32.207 202.914 32.0813 203.2 31.83C203.486 31.57 203.694 31.2147 203.824 30.764C203.963 30.3047 204.032 29.7847 204.032 29.204V27.722C204.032 27.1327 203.963 26.6127 203.824 26.162C203.694 25.7113 203.486 25.3603 203.2 25.109C202.914 24.849 202.533 24.719 202.056 24.719C201.588 24.719 201.207 24.849 200.912 25.109C200.626 25.3603 200.414 25.7113 200.275 26.162C200.145 26.6127 200.08 27.1327 200.08 27.722V29.204C200.08 29.7847 200.145 30.3047 200.275 30.764C200.414 31.2147 200.626 31.57 200.912 31.83C201.207 32.0813 201.588 32.207 202.056 32.207ZM207.095 33V32.038H209.63V24.732H209.539L207.251 26.864L206.614 26.175L209.019 23.926H210.722V32.038H213.062V33H207.095Z" fill="#FCFCFD"/>
<g filter="url(#filter1_d_1967_95735)">
<path fill-rule="evenodd" clip-rule="evenodd" d="M60.385 45.5523C60.5353 45.6877 60.6391 45.7849 60.9597 46.0895C61.2738 46.3878 61.4256 46.5288 61.5645 46.6467C61.6224 46.6955 61.6718 46.826 61.6914 47.0199C61.7075 47.1795 61.7019 47.3574 61.6824 47.5289C61.6756 47.5882 61.6691 47.631 61.6654 47.6514C61.6235 47.8802 61.7979 48.0915 62.0305 48.0939C62.2398 48.096 62.401 48.0986 62.8279 48.1062C62.9347 48.1081 62.9347 48.1081 63.0418 48.11C64.2021 48.1299 64.7947 48.1244 65.22 48.071C65.6747 48.0138 66.1429 47.4648 66.5476 46.7758C66.8905 47.3854 67.3662 47.9807 67.8466 48.0581C67.9992 48.0825 68.1838 48.0901 68.3978 48.0851C68.5573 48.0815 68.7261 48.071 68.8965 48.0557C69.025 48.0442 69.1273 48.0327 69.1885 48.0248C69.4144 47.9955 69.5622 47.7732 69.5018 47.5535C69.4888 47.5061 69.4679 47.419 69.4467 47.3094C69.4222 47.1824 69.4045 47.0583 69.3965 46.9452C69.3914 46.8735 69.3904 46.8086 69.3936 46.7525C69.3993 46.6547 69.401 46.6 69.4038 46.4735C69.4048 46.4264 69.4048 46.4264 69.4062 46.3852C69.4115 46.2503 69.4296 46.1222 69.4883 45.843C69.5134 45.7217 69.6355 45.4898 69.8278 45.2027C69.8851 45.1172 69.9477 45.0279 70.0148 44.9358C70.142 44.761 70.2789 44.5844 70.4159 44.4154C70.4979 44.3141 70.5614 44.2384 70.5967 44.1973C70.8929 43.7729 71.2088 43.0781 71.3248 42.6719C71.4362 42.2815 71.5254 41.5625 71.5801 40.8559C71.6101 40.455 71.6213 40.1318 71.6213 39.6249C71.6213 39.536 71.6213 39.536 71.6215 39.4625C71.6217 39.3423 71.6218 39.2968 71.6214 39.2406C71.6203 39.087 71.6158 38.9348 71.601 38.5466C71.5691 37.7329 71.1232 37.2069 70.4661 37.1054C69.9071 37.0191 69.2267 37.4834 69.2267 37.4834C69.2267 37.4834 69.0753 36.9606 68.973 36.7992C68.8068 36.5398 68.3788 36.2093 68.0517 36.145C67.7152 36.0796 67.3163 36.0868 66.9499 36.1516C66.6291 36.209 66.3096 36.4955 66.1248 36.8044C65.9925 37.0248 66.1169 36.7927 65.9846 36.5647C65.8016 36.2507 65.3753 35.9695 64.9694 35.8865C64.6254 35.8154 64.2314 35.8425 63.8714 35.9494C63.4084 36.0878 63.3347 36.4402 63.3163 36.3393C63.2547 36.001 63.249 36.0233 63.2106 35.782C63.068 34.8867 62.9085 34.2673 62.6665 33.7267C62.6805 33.7578 62.5779 33.5246 62.5406 33.4441C62.476 33.3049 62.4115 33.1788 62.3406 33.0576C62.1221 32.684 61.8717 32.4042 61.5575 32.2453C61.0119 31.969 60.1941 32.1034 59.8065 32.5559C59.4215 33.0056 59.3573 33.7574 59.4543 34.6878C59.4913 35.049 59.6211 35.7084 59.7387 36.1959C59.7803 36.3651 59.8168 36.5194 59.8836 36.8044C59.8951 36.8529 59.8951 36.8529 59.9067 36.9014C59.9585 37.1171 60.0038 37.2946 60.058 37.4893C60.0523 37.469 60.155 37.8334 60.1768 37.9141C60.1841 37.941 60.1841 37.941 60.1913 37.968C60.2322 38.1218 60.2721 38.2876 60.3344 38.5643C60.3686 38.7165 60.4019 38.879 60.4344 39.0513C60.5233 39.5213 60.5237 39.4234 60.4382 39.3232C60.3791 39.254 60.3236 39.1911 60.2699 39.1332C60.1701 39.0254 60.0784 38.9364 59.9913 38.8653C59.3569 38.3463 58.9682 38.1169 58.4345 38.0666C57.5591 37.9825 56.7283 38.6008 56.6034 39.4354C56.5266 39.9471 56.5513 40.1826 56.788 40.6348C56.9183 40.8791 57.1386 41.1742 57.5497 41.6822C57.5749 41.7132 57.5749 41.7132 57.6001 41.7442C58.1047 42.3661 58.1597 42.4352 58.2797 42.609C58.604 43.0797 59.3936 44.4311 59.5372 44.6126L60.385 45.5523Z" fill="black"/>
<path fill-rule="evenodd" clip-rule="evenodd" d="M58.1828 41.2716C58.158 41.241 58.158 41.241 58.1331 41.2103C57.7558 40.7442 57.549 40.4671 57.4516 40.2845C57.2988 39.9925 57.2904 39.9134 57.3455 39.5466C57.4102 39.1141 57.8773 38.7664 58.3638 38.8132C58.7004 38.8449 58.9945 39.0184 59.5172 39.4461C59.5738 39.4923 59.642 39.5586 59.7201 39.6428C59.7663 39.6927 59.8152 39.7481 59.8681 39.81C59.9475 39.9031 60.2151 40.2305 60.1757 40.1829C60.2338 40.2528 60.2754 40.307 60.3229 40.3733C60.417 40.5077 60.47 40.5823 60.5417 40.6779C60.5081 40.633 60.7564 40.9763 60.809 41.0265C61.0876 41.2925 61.491 41.0685 61.4658 40.7141C61.4615 40.6549 61.4476 40.591 61.4186 40.4794C61.3037 39.6602 61.2635 39.3972 61.1718 38.912C61.1377 38.7318 61.1027 38.561 61.0666 38.3998C61.0022 38.1142 60.9602 37.9397 60.9166 37.7756C60.9089 37.7465 60.9089 37.7465 60.9011 37.7177C60.8781 37.6329 60.7739 37.263 60.7808 37.2878C60.7295 37.1032 60.6863 36.9341 60.6365 36.7265C60.6252 36.6792 60.6252 36.6792 60.6139 36.6316C60.5474 36.3481 60.51 36.1898 60.4678 36.0183C60.3578 35.5627 60.2336 34.9311 60.2007 34.6107C60.1252 33.8864 60.1773 33.2765 60.3765 33.0438C60.5321 32.8622 60.9729 32.7897 61.2193 32.9144C61.3803 32.9959 61.5413 33.1758 61.6936 33.4362C61.7512 33.5348 61.8053 33.6405 61.8607 33.7598C61.8942 33.832 61.9936 34.0582 61.9824 34.0332C62.1927 34.5031 62.3372 35.064 62.4703 35.8999C62.5097 36.1475 62.5585 36.4281 62.621 36.7714C62.6396 36.8732 62.6396 36.8732 62.6582 36.9745C62.9596 38.6099 62.9375 38.4859 62.9419 38.6163C62.9577 39.0921 63.66 39.1033 63.6909 38.6282C63.7007 38.4776 63.6972 38.3431 63.6798 37.9568C63.6773 37.9021 63.6773 37.9021 63.675 37.8477C63.6598 37.4918 63.6606 37.287 63.6817 37.1706C63.72 36.9584 63.9106 36.7206 64.086 36.6682C64.3325 36.595 64.6024 36.5764 64.8187 36.6211C65.0258 36.6635 65.2674 36.8228 65.3367 36.9417C65.4202 37.0857 65.4919 37.3051 65.5468 37.577C65.5911 37.7965 65.6216 38.032 65.643 38.2833C65.6497 38.3615 65.654 38.4219 65.6607 38.5218C65.6636 38.5637 65.6636 38.5637 65.6664 38.5982C65.668 38.6155 65.668 38.6155 65.6719 38.6429C65.675 38.662 65.675 38.662 65.6893 38.7106C65.6966 38.8484 65.6966 38.8484 66.2501 38.8995C66.4154 38.6997 66.4154 38.6997 66.4109 38.6647C66.4379 38.5463 66.4545 38.4144 66.4781 38.1665C66.4932 38.0054 66.5008 37.9262 66.5097 37.844C66.5465 37.5039 66.5932 37.2878 66.6502 37.1928C66.7209 37.0746 66.97 36.91 67.0817 36.89C67.3623 36.8404 67.6703 36.8348 67.9082 36.881C68.0159 36.9022 68.2787 37.1052 68.3409 37.2022C68.4687 37.4038 68.5929 38.0536 68.6629 38.6983C68.6518 38.7406 68.6518 38.7406 68.8236 38.9859C69.4139 38.9186 69.4139 38.9186 69.3973 38.8121C69.4129 38.7741 69.4253 38.7301 69.4428 38.6619C69.485 38.5022 69.513 38.4095 69.5547 38.3056C69.5835 38.2337 69.6139 38.1722 69.645 38.1233C69.7657 37.9333 70.0781 37.8043 70.3521 37.8466C70.6463 37.8921 70.8338 38.1133 70.852 38.5756C70.8665 38.956 70.8708 39.1023 70.8718 39.2458C70.8722 39.2988 70.8722 39.3413 70.8719 39.4609C70.8717 39.5348 70.8717 39.5348 70.8717 39.6249C70.8717 40.1138 70.8612 40.4184 70.8327 40.7989C70.7821 41.4522 70.6966 42.1417 70.6041 42.466C70.5096 42.7966 70.2276 43.4169 70.0043 43.7395C69.9885 43.7548 69.9205 43.8359 69.8336 43.9431C69.689 44.1215 69.5444 44.3081 69.4088 44.4944C69.3363 44.5941 69.2681 44.6913 69.2051 44.7853C68.9615 45.1491 68.8051 45.4461 68.7545 45.6896C68.6881 46.006 68.6643 46.1738 68.6572 46.3558C68.6555 46.4073 68.6555 46.4073 68.6544 46.4573C68.6518 46.5753 68.6503 46.623 68.6453 46.7093C68.6401 46.8 68.6415 46.8965 68.6488 46.9984C68.6592 47.1444 68.6488 47.3439 68.6488 47.3439C68.6488 47.3439 68.5222 47.3321 68.3809 47.3353C68.2084 47.3393 68.065 47.3334 67.9658 47.3176C67.8228 47.2945 67.4365 46.8111 67.2387 46.4345C66.9364 45.8581 66.2026 45.8861 65.9018 46.3951C65.6305 46.8569 65.2422 47.3123 65.1269 47.3268C64.7523 47.3739 64.1722 47.3793 63.0551 47.3601C62.9483 47.3582 62.9483 47.3582 62.8416 47.3563C62.4127 47.3487 62.4292 47.4211 62.438 47.3439C62.4631 47.1236 62.4602 47.1649 62.438 46.9446C62.4007 46.5753 62.2868 46.2741 62.0492 46.0741C61.9264 45.9697 61.7794 45.8333 61.4842 45.553C61.147 45.2326 61.0414 45.1336 60.9112 45.0192L60.1099 44.1285C60.022 44.016 59.2499 42.6946 58.8975 42.1831C58.7603 41.9845 58.7091 41.9201 58.1828 41.2716ZM67.6916 41.2754V44.7344C67.6916 45.2344 68.4416 45.2344 68.4416 44.7344V41.2754C68.4416 40.7754 67.6916 40.7754 67.6916 41.2754ZM65.66 41.2748L65.676 44.7478C65.6783 45.2478 66.4283 45.2444 66.426 44.7444L66.41 41.2714C66.4077 40.7714 65.6577 40.7748 65.66 41.2748ZM64.4509 44.7284L64.4299 41.3024C64.4268 40.8024 63.6768 40.807 63.6799 41.307L63.7009 44.733C63.7039 45.233 64.4539 45.2284 64.4509 44.7284Z" fill="white"/>
</g>
<rect x="34" y="0.5" width="196" height="55" stroke="#313856"/>
<rect x="17" y="15.5" width="196" height="55" fill="#1F2232"/>
<rect x="33" y="35.5" width="15" height="15" rx="3.5" stroke="#777E90"/>
<rect x="66.5" y="35" width="28" height="16" rx="8" fill="#4EAEFD"/>
<g filter="url(#filter2_d_1967_95735)">
<rect x="80.5" y="37" width="12" height="12" rx="6" fill="#FCFCFD"/>
</g>
<path d="M116.907 48.156C116.144 48.156 115.49 47.9827 114.944 47.636C114.398 47.2807 113.978 46.7607 113.683 46.076C113.397 45.3827 113.254 44.529 113.254 43.515C113.254 42.501 113.397 41.643 113.683 40.941C113.978 40.2303 114.398 39.693 114.944 39.329C115.49 38.9563 116.144 38.77 116.907 38.77C117.661 38.77 118.298 38.9433 118.818 39.29C119.338 39.6367 119.741 40.1263 120.027 40.759L119.143 41.292C118.961 40.824 118.684 40.4513 118.311 40.174C117.938 39.888 117.47 39.745 116.907 39.745C116.127 39.745 115.516 40.031 115.074 40.603C114.641 41.1663 114.424 41.9117 114.424 42.839V44.191C114.424 45.1183 114.641 45.8507 115.074 46.388C115.516 46.9167 116.127 47.181 116.907 47.181C117.488 47.181 117.973 47.0337 118.363 46.739C118.753 46.4357 119.039 46.037 119.221 45.543L120.092 46.089C119.806 46.7217 119.39 47.2243 118.844 47.597C118.307 47.9697 117.661 48.156 116.907 48.156ZM124.214 48.156C123.616 48.156 123.088 48.013 122.628 47.727C122.178 47.4323 121.822 47.025 121.562 46.505C121.311 45.9763 121.185 45.3567 121.185 44.646C121.185 43.9353 121.311 43.32 121.562 42.8C121.822 42.2713 122.178 41.864 122.628 41.578C123.088 41.2833 123.616 41.136 124.214 41.136C124.812 41.136 125.337 41.2833 125.787 41.578C126.247 41.864 126.602 42.2713 126.853 42.8C127.113 43.32 127.243 43.9353 127.243 44.646C127.243 45.3567 127.113 45.9763 126.853 46.505C126.602 47.025 126.247 47.4323 125.787 47.727C125.337 48.013 124.812 48.156 124.214 48.156ZM124.214 47.233C124.778 47.233 125.237 47.0597 125.592 46.713C125.948 46.3663 126.125 45.8377 126.125 45.127V44.165C126.125 43.4543 125.948 42.9257 125.592 42.579C125.237 42.2323 124.778 42.059 124.214 42.059C123.66 42.059 123.2 42.2323 122.836 42.579C122.481 42.9257 122.303 43.4543 122.303 44.165V45.127C122.303 45.8377 122.481 46.3663 122.836 46.713C123.2 47.0597 123.66 47.233 124.214 47.233ZM128.954 50.6V41.292H129.994V42.384H130.046C130.219 41.9593 130.475 41.6473 130.813 41.448C131.151 41.24 131.549 41.136 132.009 41.136C132.572 41.136 133.057 41.279 133.465 41.565C133.872 41.851 134.184 42.2583 134.401 42.787C134.626 43.307 134.739 43.9267 134.739 44.646C134.739 45.3567 134.626 45.9763 134.401 46.505C134.184 47.0337 133.872 47.441 133.465 47.727C133.057 48.013 132.572 48.156 132.009 48.156C131.549 48.156 131.155 48.052 130.826 47.844C130.505 47.636 130.245 47.324 130.046 46.908H129.994V50.6H128.954ZM131.723 47.22C132.312 47.22 132.776 47.038 133.114 46.674C133.452 46.3013 133.621 45.816 133.621 45.218V44.074C133.621 43.476 133.452 42.995 133.114 42.631C132.776 42.2583 132.312 42.072 131.723 42.072C131.411 42.072 131.12 42.1283 130.852 42.241C130.592 42.3537 130.384 42.5053 130.228 42.696C130.072 42.8867 129.994 43.1077 129.994 43.359V45.855C129.994 46.141 130.072 46.388 130.228 46.596C130.384 46.7953 130.592 46.9513 130.852 47.064C131.12 47.168 131.411 47.22 131.723 47.22ZM136.496 50.6V49.69H137.549L138.056 48.26L135.547 41.292H136.587L138.199 45.855L138.511 46.947H138.576L138.94 45.855L140.565 41.292H141.592L138.589 49.56C138.494 49.8287 138.386 50.0367 138.264 50.184C138.152 50.34 138 50.4483 137.809 50.509C137.619 50.5697 137.359 50.6 137.029 50.6H136.496ZM148.058 48V39.888H145.172V38.926H152.036V39.888H149.15V48H148.058ZM152.846 48V41.292H153.886V42.527H153.951C154.029 42.3103 154.151 42.111 154.315 41.929C154.48 41.7383 154.692 41.5867 154.952 41.474C155.212 41.3527 155.524 41.292 155.888 41.292H156.291V42.332H155.68C155.308 42.332 154.987 42.384 154.718 42.488C154.45 42.5833 154.242 42.7133 154.094 42.878C153.956 43.0427 153.886 43.2333 153.886 43.45V48H152.846ZM159.285 48.156C158.574 48.156 158.02 47.974 157.621 47.61C157.231 47.246 157.036 46.752 157.036 46.128C157.036 45.7033 157.14 45.348 157.348 45.062C157.556 44.7673 157.868 44.5463 158.284 44.399C158.709 44.243 159.246 44.165 159.896 44.165H161.222V43.502C161.222 43.0253 161.092 42.6613 160.832 42.41C160.572 42.1587 160.173 42.033 159.636 42.033C159.237 42.033 158.899 42.124 158.622 42.306C158.345 42.488 158.115 42.7307 157.933 43.034L157.309 42.449C157.491 42.0937 157.781 41.786 158.18 41.526C158.579 41.266 159.081 41.136 159.688 41.136C160.494 41.136 161.122 41.3353 161.573 41.734C162.032 42.1327 162.262 42.6873 162.262 43.398V47.09H163.029V48H162.444C162.071 48 161.798 47.9047 161.625 47.714C161.452 47.5233 161.343 47.2807 161.3 46.986L161.287 46.908H161.222C161.083 47.3153 160.841 47.6273 160.494 47.844C160.156 48.052 159.753 48.156 159.285 48.156ZM159.454 47.272C159.801 47.272 160.104 47.22 160.364 47.116C160.633 47.0033 160.841 46.856 160.988 46.674C161.144 46.4833 161.222 46.2753 161.222 46.05V44.945H159.844C159.255 44.945 158.821 45.0317 158.544 45.205C158.267 45.3783 158.128 45.6297 158.128 45.959V46.232C158.128 46.5613 158.249 46.817 158.492 46.999C158.735 47.181 159.055 47.272 159.454 47.272ZM166.788 48.156C166.234 48.156 165.748 48.013 165.332 47.727C164.925 47.441 164.609 47.0337 164.383 46.505C164.167 45.9763 164.058 45.3567 164.058 44.646C164.058 43.9267 164.167 43.307 164.383 42.787C164.609 42.2583 164.925 41.851 165.332 41.565C165.748 41.279 166.234 41.136 166.788 41.136C167.248 41.136 167.646 41.24 167.984 41.448C168.322 41.6473 168.578 41.9593 168.751 42.384H168.803V38.38H169.843V48H168.803V46.908H168.751C168.552 47.324 168.288 47.636 167.958 47.844C167.638 48.052 167.248 48.156 166.788 48.156ZM167.074 47.22C167.395 47.22 167.685 47.168 167.945 47.064C168.205 46.9513 168.413 46.7953 168.569 46.596C168.725 46.388 168.803 46.141 168.803 45.855V43.359C168.803 43.1077 168.725 42.8867 168.569 42.696C168.413 42.5053 168.205 42.3537 167.945 42.241C167.685 42.1283 167.395 42.072 167.074 42.072C166.494 42.072 166.03 42.2583 165.683 42.631C165.345 42.995 165.176 43.476 165.176 44.074V45.218C165.176 45.816 165.345 46.3013 165.683 46.674C166.03 47.038 166.494 47.22 167.074 47.22ZM174.576 48.156C173.97 48.156 173.441 48.013 172.99 47.727C172.54 47.4323 172.189 47.025 171.937 46.505C171.686 45.9763 171.56 45.3567 171.56 44.646C171.56 43.9353 171.686 43.32 171.937 42.8C172.189 42.2713 172.54 41.864 172.99 41.578C173.441 41.2833 173.97 41.136 174.576 41.136C175.174 41.136 175.69 41.279 176.123 41.565C176.557 41.8423 176.89 42.228 177.124 42.722C177.358 43.216 177.475 43.7793 177.475 44.412V44.906H172.652V45.218C172.652 45.7987 172.826 46.284 173.172 46.674C173.528 47.0553 174.017 47.246 174.641 47.246C175.066 47.246 175.434 47.1463 175.746 46.947C176.067 46.7477 176.314 46.4617 176.487 46.089L177.228 46.622C177.012 47.0727 176.674 47.441 176.214 47.727C175.755 48.013 175.209 48.156 174.576 48.156ZM172.652 44.126H176.357V43.983C176.357 43.5843 176.284 43.2377 176.136 42.943C175.989 42.6483 175.781 42.4187 175.512 42.254C175.244 42.0893 174.932 42.007 174.576 42.007C174.204 42.007 173.87 42.0937 173.575 42.267C173.289 42.4403 173.064 42.683 172.899 42.995C172.735 43.2983 172.652 43.645 172.652 44.035V44.126ZM185.056 48.156C183.973 48.156 183.18 47.7443 182.677 46.921C182.183 46.0977 181.936 44.945 181.936 43.463C181.936 41.981 182.183 40.8283 182.677 40.005C183.18 39.1817 183.973 38.77 185.056 38.77C186.14 38.77 186.928 39.1817 187.422 40.005C187.925 40.8283 188.176 41.981 188.176 43.463C188.176 44.945 187.925 46.0977 187.422 46.921C186.928 47.7443 186.14 48.156 185.056 48.156ZM185.056 47.207C185.533 47.207 185.914 47.0813 186.2 46.83C186.486 46.57 186.694 46.2147 186.824 45.764C186.963 45.3047 187.032 44.7847 187.032 44.204V42.722C187.032 42.1327 186.963 41.6127 186.824 41.162C186.694 40.7113 186.486 40.3603 186.2 40.109C185.914 39.849 185.533 39.719 185.056 39.719C184.588 39.719 184.207 39.849 183.912 40.109C183.626 40.3603 183.414 40.7113 183.275 41.162C183.145 41.6127 183.08 42.1327 183.08 42.722V44.204C183.08 44.7847 183.145 45.3047 183.275 45.764C183.414 46.2147 183.626 46.57 183.912 46.83C184.207 47.0813 184.588 47.207 185.056 47.207ZM190.095 48V47.038H192.63V39.732H192.539L190.251 41.864L189.614 41.175L192.019 38.926H193.722V47.038H196.062V48H190.095Z" fill="#FCFCFD"/>
<g filter="url(#filter3_d_1967_95735)">
<path fill-rule="evenodd" clip-rule="evenodd" d="M43.385 60.5523C43.5353 60.6877 43.6391 60.7849 43.9597 61.0895C44.2738 61.3878 44.4256 61.5288 44.5645 61.6467C44.6224 61.6955 44.6718 61.826 44.6914 62.0199C44.7075 62.1795 44.7019 62.3574 44.6824 62.5289C44.6756 62.5882 44.6691 62.631 44.6654 62.6514C44.6235 62.8802 44.7979 63.0915 45.0305 63.0939C45.2398 63.096 45.401 63.0986 45.8279 63.1062C45.9347 63.1081 45.9347 63.1081 46.0418 63.11C47.2021 63.1299 47.7947 63.1244 48.22 63.071C48.6747 63.0138 49.1429 62.4648 49.5476 61.7758C49.8905 62.3854 50.3662 62.9807 50.8466 63.0581C50.9992 63.0825 51.1838 63.0901 51.3978 63.0851C51.5573 63.0815 51.7261 63.071 51.8965 63.0557C52.025 63.0442 52.1273 63.0327 52.1885 63.0248C52.4144 62.9955 52.5622 62.7732 52.5018 62.5535C52.4888 62.5061 52.4679 62.419 52.4467 62.3094C52.4222 62.1824 52.4045 62.0583 52.3965 61.9452C52.3914 61.8735 52.3904 61.8086 52.3936 61.7525C52.3993 61.6547 52.401 61.6 52.4038 61.4735C52.4048 61.4264 52.4048 61.4264 52.4062 61.3852C52.4115 61.2503 52.4296 61.1222 52.4883 60.843C52.5134 60.7217 52.6355 60.4898 52.8278 60.2027C52.8851 60.1172 52.9477 60.0279 53.0148 59.9358C53.142 59.761 53.2789 59.5844 53.4159 59.4154C53.4979 59.3141 53.5614 59.2384 53.5967 59.1973C53.8929 58.7729 54.2088 58.0781 54.3248 57.6719C54.4362 57.2815 54.5254 56.5625 54.5801 55.8559C54.6101 55.455 54.6213 55.1318 54.6213 54.6249C54.6213 54.536 54.6213 54.536 54.6215 54.4625C54.6217 54.3423 54.6218 54.2968 54.6214 54.2406C54.6203 54.087 54.6158 53.9348 54.601 53.5466C54.5691 52.7329 54.1232 52.2069 53.4661 52.1054C52.9071 52.0191 52.2267 52.4834 52.2267 52.4834C52.2267 52.4834 52.0753 51.9606 51.973 51.7992C51.8068 51.5398 51.3788 51.2093 51.0517 51.145C50.7152 51.0796 50.3163 51.0868 49.9499 51.1516C49.6291 51.209 49.3096 51.4955 49.1248 51.8044C48.9925 52.0248 49.1169 51.7927 48.9846 51.5647C48.8016 51.2507 48.3753 50.9695 47.9694 50.8865C47.6254 50.8154 47.2314 50.8425 46.8714 50.9494C46.4084 51.0878 46.3347 51.4402 46.3163 51.3393C46.2547 51.001 46.249 51.0233 46.2106 50.782C46.068 49.8867 45.9085 49.2673 45.6665 48.7267C45.6805 48.7578 45.5779 48.5246 45.5406 48.4441C45.476 48.3049 45.4115 48.1788 45.3406 48.0576C45.1221 47.684 44.8717 47.4042 44.5575 47.2453C44.0119 46.969 43.1941 47.1034 42.8065 47.5559C42.4215 48.0056 42.3573 48.7574 42.4543 49.6878C42.4913 50.049 42.6211 50.7084 42.7387 51.1959C42.7803 51.3651 42.8168 51.5194 42.8836 51.8044C42.8951 51.8529 42.8951 51.8529 42.9067 51.9014C42.9585 52.1171 43.0038 52.2946 43.058 52.4893C43.0523 52.469 43.155 52.8334 43.1768 52.9141C43.1841 52.941 43.1841 52.941 43.1913 52.968C43.2322 53.1218 43.2721 53.2876 43.3344 53.5643C43.3686 53.7165 43.4019 53.879 43.4344 54.0513C43.5233 54.5213 43.5237 54.4234 43.4382 54.3232C43.3791 54.254 43.3236 54.1911 43.2699 54.1332C43.1701 54.0254 43.0784 53.9364 42.9913 53.8653C42.3569 53.3463 41.9682 53.1169 41.4345 53.0666C40.5591 52.9825 39.7283 53.6008 39.6034 54.4354C39.5266 54.9471 39.5513 55.1826 39.788 55.6348C39.9183 55.8791 40.1386 56.1742 40.5497 56.6822C40.5749 56.7132 40.5749 56.7132 40.6001 56.7442C41.1047 57.3661 41.1597 57.4352 41.2797 57.609C41.604 58.0797 42.3936 59.4311 42.5372 59.6126L43.385 60.5523Z" fill="black"/>
<path fill-rule="evenodd" clip-rule="evenodd" d="M41.1828 56.2716C41.158 56.241 41.158 56.241 41.1331 56.2103C40.7558 55.7442 40.549 55.4671 40.4516 55.2845C40.2988 54.9925 40.2904 54.9134 40.3455 54.5466C40.4102 54.1141 40.8773 53.7664 41.3638 53.8132C41.7004 53.8449 41.9945 54.0184 42.5172 54.4461C42.5738 54.4923 42.642 54.5586 42.7201 54.6428C42.7663 54.6927 42.8152 54.7481 42.8681 54.81C42.9475 54.9031 43.2151 55.2305 43.1757 55.1829C43.2338 55.2528 43.2754 55.307 43.3229 55.3733C43.417 55.5077 43.47 55.5823 43.5417 55.6779C43.5081 55.633 43.7564 55.9763 43.809 56.0265C44.0876 56.2925 44.491 56.0685 44.4658 55.7141C44.4615 55.6549 44.4476 55.591 44.4186 55.4794C44.3037 54.6602 44.2635 54.3972 44.1718 53.912C44.1377 53.7318 44.1027 53.561 44.0666 53.3998C44.0022 53.1142 43.9602 52.9397 43.9166 52.7756C43.9089 52.7465 43.9089 52.7465 43.9011 52.7177C43.8781 52.6329 43.7739 52.263 43.7808 52.2878C43.7295 52.1032 43.6863 51.9341 43.6365 51.7265C43.6252 51.6792 43.6252 51.6792 43.6139 51.6316C43.5474 51.3481 43.51 51.1898 43.4678 51.0183C43.3578 50.5627 43.2336 49.9311 43.2007 49.6107C43.1252 48.8864 43.1773 48.2765 43.3765 48.0438C43.5321 47.8622 43.9729 47.7897 44.2193 47.9144C44.3803 47.9959 44.5413 48.1758 44.6936 48.4362C44.7512 48.5348 44.8053 48.6405 44.8607 48.7598C44.8942 48.832 44.9936 49.0582 44.9824 49.0332C45.1927 49.5031 45.3372 50.064 45.4703 50.8999C45.5097 51.1475 45.5585 51.4281 45.621 51.7714C45.6396 51.8732 45.6396 51.8732 45.6582 51.9745C45.9596 53.6099 45.9375 53.4859 45.9419 53.6163C45.9577 54.0921 46.66 54.1033 46.6909 53.6282C46.7007 53.4776 46.6972 53.3431 46.6798 52.9568C46.6773 52.9021 46.6773 52.9021 46.675 52.8477C46.6598 52.4918 46.6606 52.287 46.6817 52.1706C46.72 51.9584 46.9106 51.7206 47.086 51.6682C47.3325 51.595 47.6024 51.5764 47.8187 51.6211C48.0258 51.6635 48.2674 51.8228 48.3367 51.9417C48.4202 52.0857 48.4919 52.3051 48.5468 52.577C48.5911 52.7965 48.6216 53.032 48.643 53.2833C48.6497 53.3615 48.654 53.4219 48.6607 53.5218C48.6636 53.5637 48.6636 53.5637 48.6664 53.5982C48.668 53.6155 48.668 53.6155 48.6719 53.6429C48.675 53.662 48.675 53.662 48.6893 53.7106C48.6966 53.8484 48.6966 53.8484 49.2501 53.8995C49.4154 53.6997 49.4154 53.6997 49.4109 53.6647C49.4379 53.5463 49.4545 53.4144 49.4781 53.1665C49.4932 53.0054 49.5008 52.9262 49.5097 52.844C49.5465 52.5039 49.5932 52.2878 49.6502 52.1928C49.7209 52.0746 49.97 51.91 50.0817 51.89C50.3623 51.8404 50.6703 51.8348 50.9082 51.881C51.0159 51.9022 51.2787 52.1052 51.3409 52.2022C51.4687 52.4038 51.5929 53.0536 51.6629 53.6983C51.6518 53.7406 51.6518 53.7406 51.8236 53.9859C52.4139 53.9186 52.4139 53.9186 52.3973 53.8121C52.4129 53.7741 52.4253 53.7301 52.4428 53.6619C52.485 53.5022 52.513 53.4095 52.5547 53.3056C52.5835 53.2337 52.6139 53.1722 52.645 53.1233C52.7657 52.9333 53.0781 52.8043 53.3521 52.8466C53.6463 52.8921 53.8338 53.1133 53.852 53.5756C53.8665 53.956 53.8708 54.1023 53.8718 54.2458C53.8722 54.2988 53.8722 54.3413 53.8719 54.4609C53.8717 54.5348 53.8717 54.5348 53.8717 54.6249C53.8717 55.1138 53.8612 55.4184 53.8327 55.7989C53.7821 56.4522 53.6966 57.1417 53.6041 57.466C53.5096 57.7966 53.2276 58.4169 53.0043 58.7395C52.9885 58.7548 52.9205 58.8359 52.8336 58.9431C52.689 59.1215 52.5444 59.3081 52.4088 59.4944C52.3363 59.5941 52.2681 59.6913 52.2051 59.7853C51.9615 60.1491 51.8051 60.4461 51.7545 60.6896C51.6881 61.006 51.6643 61.1738 51.6572 61.3558C51.6555 61.4073 51.6555 61.4073 51.6544 61.4573C51.6518 61.5753 51.6503 61.623 51.6453 61.7093C51.6401 61.8 51.6415 61.8965 51.6488 61.9984C51.6592 62.1444 51.6488 62.3439 51.6488 62.3439C51.6488 62.3439 51.5222 62.3321 51.3809 62.3353C51.2084 62.3393 51.065 62.3334 50.9658 62.3176C50.8228 62.2945 50.4365 61.8111 50.2387 61.4345C49.9364 60.8581 49.2026 60.8861 48.9018 61.3951C48.6305 61.8569 48.2422 62.3123 48.1269 62.3268C47.7523 62.3739 47.1722 62.3793 46.0551 62.3601C45.9483 62.3582 45.9483 62.3582 45.8416 62.3563C45.4127 62.3487 45.4292 62.4211 45.438 62.3439C45.4631 62.1236 45.4602 62.1649 45.438 61.9446C45.4007 61.5753 45.2868 61.2741 45.0492 61.0741C44.9264 60.9697 44.7794 60.8333 44.4842 60.553C44.147 60.2326 44.0414 60.1336 43.9112 60.0192L43.1099 59.1285C43.022 59.016 42.2499 57.6946 41.8975 57.1831C41.7603 56.9845 41.7091 56.9201 41.1828 56.2716ZM50.6916 56.2754V59.7344C50.6916 60.2344 51.4416 60.2344 51.4416 59.7344V56.2754C51.4416 55.7754 50.6916 55.7754 50.6916 56.2754ZM48.66 56.2748L48.676 59.7478C48.6783 60.2478 49.4283 60.2444 49.426 59.7444L49.41 56.2714C49.4077 55.7714 48.6577 55.7748 48.66 56.2748ZM47.4509 59.7284L47.4299 56.3024C47.4268 55.8024 46.6768 55.807 46.6799 56.307L46.7009 59.733C46.7039 60.233 47.4539 60.2284 47.4509 59.7284Z" fill="white"/>
</g>
<rect x="17" y="15.5" width="196" height="55" stroke="#313856"/>
<rect x="1" y="32.5" width="196" height="55" fill="#1F2232"/>
<rect x="17" y="52.5" width="15" height="15" rx="3.5" stroke="#777E90"/>
<rect x="50.5" y="52" width="28" height="16" rx="8" fill="#4EAEFD"/>
<g filter="url(#filter4_d_1967_95735)">
<rect x="64.5" y="54" width="12" height="12" rx="6" fill="#FCFCFD"/>
</g>
<path d="M100.907 65.156C100.144 65.156 99.49 64.9827 98.944 64.636C98.398 64.2807 97.9777 63.7607 97.683 63.076C97.397 62.3827 97.254 61.529 97.254 60.515C97.254 59.501 97.397 58.643 97.683 57.941C97.9777 57.2303 98.398 56.693 98.944 56.329C99.49 55.9563 100.144 55.77 100.907 55.77C101.661 55.77 102.298 55.9433 102.818 56.29C103.338 56.6367 103.741 57.1263 104.027 57.759L103.143 58.292C102.961 57.824 102.684 57.4513 102.311 57.174C101.938 56.888 101.47 56.745 100.907 56.745C100.127 56.745 99.516 57.031 99.074 57.603C98.6407 58.1663 98.424 58.9117 98.424 59.839V61.191C98.424 62.1183 98.6407 62.8507 99.074 63.388C99.516 63.9167 100.127 64.181 100.907 64.181C101.488 64.181 101.973 64.0337 102.363 63.739C102.753 63.4357 103.039 63.037 103.221 62.543L104.092 63.089C103.806 63.7217 103.39 64.2243 102.844 64.597C102.307 64.9697 101.661 65.156 100.907 65.156ZM108.214 65.156C107.616 65.156 107.088 65.013 106.628 64.727C106.178 64.4323 105.822 64.025 105.562 63.505C105.311 62.9763 105.185 62.3567 105.185 61.646C105.185 60.9353 105.311 60.32 105.562 59.8C105.822 59.2713 106.178 58.864 106.628 58.578C107.088 58.2833 107.616 58.136 108.214 58.136C108.812 58.136 109.337 58.2833 109.787 58.578C110.247 58.864 110.602 59.2713 110.853 59.8C111.113 60.32 111.243 60.9353 111.243 61.646C111.243 62.3567 111.113 62.9763 110.853 63.505C110.602 64.025 110.247 64.4323 109.787 64.727C109.337 65.013 108.812 65.156 108.214 65.156ZM108.214 64.233C108.778 64.233 109.237 64.0597 109.592 63.713C109.948 63.3663 110.125 62.8377 110.125 62.127V61.165C110.125 60.4543 109.948 59.9257 109.592 59.579C109.237 59.2323 108.778 59.059 108.214 59.059C107.66 59.059 107.2 59.2323 106.836 59.579C106.481 59.9257 106.303 60.4543 106.303 61.165V62.127C106.303 62.8377 106.481 63.3663 106.836 63.713C107.2 64.0597 107.66 64.233 108.214 64.233ZM112.954 67.6V58.292H113.994V59.384H114.046C114.219 58.9593 114.475 58.6473 114.813 58.448C115.151 58.24 115.549 58.136 116.009 58.136C116.572 58.136 117.057 58.279 117.465 58.565C117.872 58.851 118.184 59.2583 118.401 59.787C118.626 60.307 118.739 60.9267 118.739 61.646C118.739 62.3567 118.626 62.9763 118.401 63.505C118.184 64.0337 117.872 64.441 117.465 64.727C117.057 65.013 116.572 65.156 116.009 65.156C115.549 65.156 115.155 65.052 114.826 64.844C114.505 64.636 114.245 64.324 114.046 63.908H113.994V67.6H112.954ZM115.723 64.22C116.312 64.22 116.776 64.038 117.114 63.674C117.452 63.3013 117.621 62.816 117.621 62.218V61.074C117.621 60.476 117.452 59.995 117.114 59.631C116.776 59.2583 116.312 59.072 115.723 59.072C115.411 59.072 115.12 59.1283 114.852 59.241C114.592 59.3537 114.384 59.5053 114.228 59.696C114.072 59.8867 113.994 60.1077 113.994 60.359V62.855C113.994 63.141 114.072 63.388 114.228 63.596C114.384 63.7953 114.592 63.9513 114.852 64.064C115.12 64.168 115.411 64.22 115.723 64.22ZM120.496 67.6V66.69H121.549L122.056 65.26L119.547 58.292H120.587L122.199 62.855L122.511 63.947H122.576L122.94 62.855L124.565 58.292H125.592L122.589 66.56C122.494 66.8287 122.386 67.0367 122.264 67.184C122.152 67.34 122 67.4483 121.809 67.509C121.619 67.5697 121.359 67.6 121.029 67.6H120.496ZM132.058 65V56.888H129.172V55.926H136.036V56.888H133.15V65H132.058ZM136.846 65V58.292H137.886V59.527H137.951C138.029 59.3103 138.151 59.111 138.315 58.929C138.48 58.7383 138.692 58.5867 138.952 58.474C139.212 58.3527 139.524 58.292 139.888 58.292H140.291V59.332H139.68C139.308 59.332 138.987 59.384 138.718 59.488C138.45 59.5833 138.242 59.7133 138.094 59.878C137.956 60.0427 137.886 60.2333 137.886 60.45V65H136.846ZM143.285 65.156C142.574 65.156 142.02 64.974 141.621 64.61C141.231 64.246 141.036 63.752 141.036 63.128C141.036 62.7033 141.14 62.348 141.348 62.062C141.556 61.7673 141.868 61.5463 142.284 61.399C142.709 61.243 143.246 61.165 143.896 61.165H145.222V60.502C145.222 60.0253 145.092 59.6613 144.832 59.41C144.572 59.1587 144.173 59.033 143.636 59.033C143.237 59.033 142.899 59.124 142.622 59.306C142.345 59.488 142.115 59.7307 141.933 60.034L141.309 59.449C141.491 59.0937 141.781 58.786 142.18 58.526C142.579 58.266 143.081 58.136 143.688 58.136C144.494 58.136 145.122 58.3353 145.573 58.734C146.032 59.1327 146.262 59.6873 146.262 60.398V64.09H147.029V65H146.444C146.071 65 145.798 64.9047 145.625 64.714C145.452 64.5233 145.343 64.2807 145.3 63.986L145.287 63.908H145.222C145.083 64.3153 144.841 64.6273 144.494 64.844C144.156 65.052 143.753 65.156 143.285 65.156ZM143.454 64.272C143.801 64.272 144.104 64.22 144.364 64.116C144.633 64.0033 144.841 63.856 144.988 63.674C145.144 63.4833 145.222 63.2753 145.222 63.05V61.945H143.844C143.255 61.945 142.821 62.0317 142.544 62.205C142.267 62.3783 142.128 62.6297 142.128 62.959V63.232C142.128 63.5613 142.249 63.817 142.492 63.999C142.735 64.181 143.055 64.272 143.454 64.272ZM150.788 65.156C150.234 65.156 149.748 65.013 149.332 64.727C148.925 64.441 148.609 64.0337 148.383 63.505C148.167 62.9763 148.058 62.3567 148.058 61.646C148.058 60.9267 148.167 60.307 148.383 59.787C148.609 59.2583 148.925 58.851 149.332 58.565C149.748 58.279 150.234 58.136 150.788 58.136C151.248 58.136 151.646 58.24 151.984 58.448C152.322 58.6473 152.578 58.9593 152.751 59.384H152.803V55.38H153.843V65H152.803V63.908H152.751C152.552 64.324 152.288 64.636 151.958 64.844C151.638 65.052 151.248 65.156 150.788 65.156ZM151.074 64.22C151.395 64.22 151.685 64.168 151.945 64.064C152.205 63.9513 152.413 63.7953 152.569 63.596C152.725 63.388 152.803 63.141 152.803 62.855V60.359C152.803 60.1077 152.725 59.8867 152.569 59.696C152.413 59.5053 152.205 59.3537 151.945 59.241C151.685 59.1283 151.395 59.072 151.074 59.072C150.494 59.072 150.03 59.2583 149.683 59.631C149.345 59.995 149.176 60.476 149.176 61.074V62.218C149.176 62.816 149.345 63.3013 149.683 63.674C150.03 64.038 150.494 64.22 151.074 64.22ZM158.576 65.156C157.97 65.156 157.441 65.013 156.99 64.727C156.54 64.4323 156.189 64.025 155.937 63.505C155.686 62.9763 155.56 62.3567 155.56 61.646C155.56 60.9353 155.686 60.32 155.937 59.8C156.189 59.2713 156.54 58.864 156.99 58.578C157.441 58.2833 157.97 58.136 158.576 58.136C159.174 58.136 159.69 58.279 160.123 58.565C160.557 58.8423 160.89 59.228 161.124 59.722C161.358 60.216 161.475 60.7793 161.475 61.412V61.906H156.652V62.218C156.652 62.7987 156.826 63.284 157.172 63.674C157.528 64.0553 158.017 64.246 158.641 64.246C159.066 64.246 159.434 64.1463 159.746 63.947C160.067 63.7477 160.314 63.4617 160.487 63.089L161.228 63.622C161.012 64.0727 160.674 64.441 160.214 64.727C159.755 65.013 159.209 65.156 158.576 65.156ZM156.652 61.126H160.357V60.983C160.357 60.5843 160.284 60.2377 160.136 59.943C159.989 59.6483 159.781 59.4187 159.512 59.254C159.244 59.0893 158.932 59.007 158.576 59.007C158.204 59.007 157.87 59.0937 157.575 59.267C157.289 59.4403 157.064 59.683 156.899 59.995C156.735 60.2983 156.652 60.645 156.652 61.035V61.126ZM169.056 65.156C167.973 65.156 167.18 64.7443 166.677 63.921C166.183 63.0977 165.936 61.945 165.936 60.463C165.936 58.981 166.183 57.8283 166.677 57.005C167.18 56.1817 167.973 55.77 169.056 55.77C170.14 55.77 170.928 56.1817 171.422 57.005C171.925 57.8283 172.176 58.981 172.176 60.463C172.176 61.945 171.925 63.0977 171.422 63.921C170.928 64.7443 170.14 65.156 169.056 65.156ZM169.056 64.207C169.533 64.207 169.914 64.0813 170.2 63.83C170.486 63.57 170.694 63.2147 170.824 62.764C170.963 62.3047 171.032 61.7847 171.032 61.204V59.722C171.032 59.1327 170.963 58.6127 170.824 58.162C170.694 57.7113 170.486 57.3603 170.2 57.109C169.914 56.849 169.533 56.719 169.056 56.719C168.588 56.719 168.207 56.849 167.912 57.109C167.626 57.3603 167.414 57.7113 167.275 58.162C167.145 58.6127 167.08 59.1327 167.08 59.722V61.204C167.08 61.7847 167.145 62.3047 167.275 62.764C167.414 63.2147 167.626 63.57 167.912 63.83C168.207 64.0813 168.588 64.207 169.056 64.207ZM174.095 65V64.038H176.63V56.732H176.539L174.251 58.864L173.614 58.175L176.019 55.926H177.722V64.038H180.062V65H174.095Z" fill="#FCFCFD"/>
<g filter="url(#filter5_d_1967_95735)">
<path fill-rule="evenodd" clip-rule="evenodd" d="M27.385 77.5523C27.5353 77.6877 27.6391 77.7849 27.9597 78.0895C28.2738 78.3878 28.4256 78.5288 28.5645 78.6467C28.6224 78.6955 28.6718 78.826 28.6914 79.0199C28.7075 79.1795 28.7019 79.3574 28.6824 79.5289C28.6756 79.5882 28.6691 79.631 28.6654 79.6514C28.6235 79.8802 28.7979 80.0915 29.0305 80.0939C29.2398 80.096 29.401 80.0986 29.8279 80.1062C29.9347 80.1081 29.9347 80.1081 30.0418 80.11C31.2021 80.1299 31.7947 80.1244 32.22 80.071C32.6747 80.0138 33.1429 79.4648 33.5476 78.7758C33.8905 79.3854 34.3662 79.9807 34.8466 80.0581C34.9992 80.0825 35.1838 80.0901 35.3978 80.0851C35.5573 80.0815 35.7261 80.071 35.8965 80.0557C36.025 80.0442 36.1273 80.0327 36.1885 80.0248C36.4144 79.9955 36.5622 79.7732 36.5018 79.5535C36.4888 79.5061 36.4679 79.419 36.4467 79.3094C36.4222 79.1824 36.4045 79.0583 36.3965 78.9452C36.3914 78.8735 36.3904 78.8086 36.3936 78.7525C36.3993 78.6547 36.401 78.6 36.4038 78.4735C36.4048 78.4264 36.4048 78.4264 36.4062 78.3852C36.4115 78.2503 36.4296 78.1222 36.4883 77.843C36.5134 77.7217 36.6355 77.4898 36.8278 77.2027C36.8851 77.1172 36.9477 77.0279 37.0148 76.9358C37.142 76.761 37.2789 76.5844 37.4159 76.4154C37.4979 76.3141 37.5614 76.2384 37.5967 76.1973C37.8929 75.7729 38.2088 75.0781 38.3248 74.6719C38.4362 74.2815 38.5254 73.5625 38.5801 72.8559C38.6101 72.455 38.6213 72.1318 38.6213 71.6249C38.6213 71.536 38.6213 71.536 38.6215 71.4625C38.6217 71.3423 38.6218 71.2968 38.6214 71.2406C38.6203 71.087 38.6158 70.9348 38.601 70.5466C38.5691 69.7329 38.1232 69.2069 37.4661 69.1054C36.9071 69.0191 36.2267 69.4834 36.2267 69.4834C36.2267 69.4834 36.0753 68.9606 35.973 68.7992C35.8068 68.5398 35.3788 68.2093 35.0517 68.145C34.7152 68.0796 34.3163 68.0868 33.9499 68.1516C33.6291 68.209 33.3096 68.4955 33.1248 68.8044C32.9925 69.0248 33.1169 68.7927 32.9846 68.5647C32.8016 68.2507 32.3753 67.9695 31.9694 67.8865C31.6254 67.8154 31.2314 67.8425 30.8714 67.9494C30.4084 68.0878 30.3347 68.4402 30.3163 68.3393C30.2547 68.001 30.249 68.0233 30.2106 67.782C30.068 66.8867 29.9085 66.2673 29.6665 65.7267C29.6805 65.7578 29.5779 65.5246 29.5406 65.4441C29.476 65.3049 29.4115 65.1788 29.3406 65.0576C29.1221 64.684 28.8717 64.4042 28.5575 64.2453C28.0119 63.969 27.1941 64.1034 26.8065 64.5559C26.4215 65.0056 26.3573 65.7574 26.4543 66.6878C26.4913 67.049 26.6211 67.7084 26.7387 68.1959C26.7803 68.3651 26.8168 68.5194 26.8836 68.8044C26.8951 68.8529 26.8951 68.8529 26.9067 68.9014C26.9585 69.1171 27.0038 69.2946 27.058 69.4893C27.0523 69.469 27.155 69.8334 27.1768 69.9141C27.1841 69.941 27.1841 69.941 27.1913 69.968C27.2322 70.1218 27.2721 70.2876 27.3344 70.5643C27.3686 70.7165 27.4019 70.879 27.4344 71.0513C27.5233 71.5213 27.5237 71.4234 27.4382 71.3232C27.3791 71.254 27.3236 71.1911 27.2699 71.1332C27.1701 71.0254 27.0784 70.9364 26.9913 70.8653C26.3569 70.3463 25.9682 70.1169 25.4345 70.0666C24.5591 69.9825 23.7283 70.6008 23.6034 71.4354C23.5266 71.9471 23.5513 72.1826 23.788 72.6348C23.9183 72.8791 24.1386 73.1742 24.5497 73.6822C24.5749 73.7132 24.5749 73.7132 24.6001 73.7442C25.1047 74.3661 25.1597 74.4352 25.2797 74.609C25.604 75.0797 26.3936 76.4311 26.5372 76.6126L27.385 77.5523Z" fill="black"/>
<path fill-rule="evenodd" clip-rule="evenodd" d="M25.1828 73.2716C25.158 73.241 25.158 73.241 25.1331 73.2103C24.7558 72.7442 24.549 72.4671 24.4516 72.2845C24.2988 71.9925 24.2904 71.9134 24.3455 71.5466C24.4102 71.1141 24.8773 70.7664 25.3638 70.8132C25.7004 70.8449 25.9945 71.0184 26.5172 71.4461C26.5738 71.4923 26.642 71.5586 26.7201 71.6428C26.7663 71.6927 26.8152 71.7481 26.8681 71.81C26.9475 71.9031 27.2151 72.2305 27.1757 72.1829C27.2338 72.2528 27.2754 72.307 27.3229 72.3733C27.417 72.5077 27.47 72.5823 27.5417 72.6779C27.5081 72.633 27.7564 72.9763 27.809 73.0265C28.0876 73.2925 28.491 73.0685 28.4658 72.7141C28.4615 72.6549 28.4476 72.591 28.4186 72.4794C28.3037 71.6602 28.2635 71.3972 28.1718 70.912C28.1377 70.7318 28.1027 70.561 28.0666 70.3998C28.0022 70.1142 27.9602 69.9397 27.9166 69.7756C27.9089 69.7465 27.9089 69.7465 27.9011 69.7177C27.8781 69.6329 27.7739 69.263 27.7808 69.2878C27.7295 69.1032 27.6863 68.9341 27.6365 68.7265C27.6252 68.6792 27.6252 68.6792 27.6139 68.6316C27.5474 68.3481 27.51 68.1898 27.4678 68.0183C27.3578 67.5627 27.2336 66.9311 27.2007 66.6107C27.1252 65.8864 27.1773 65.2765 27.3765 65.0438C27.5321 64.8622 27.9729 64.7897 28.2193 64.9144C28.3803 64.9959 28.5413 65.1758 28.6936 65.4362C28.7512 65.5348 28.8053 65.6405 28.8607 65.7598C28.8942 65.832 28.9936 66.0582 28.9824 66.0332C29.1927 66.5031 29.3372 67.064 29.4703 67.8999C29.5097 68.1475 29.5585 68.4281 29.621 68.7714C29.6396 68.8732 29.6396 68.8732 29.6582 68.9745C29.9596 70.6099 29.9375 70.4859 29.9419 70.6163C29.9577 71.0921 30.66 71.1033 30.6909 70.6282C30.7007 70.4776 30.6972 70.3431 30.6798 69.9568C30.6773 69.9021 30.6773 69.9021 30.675 69.8477C30.6598 69.4918 30.6606 69.287 30.6817 69.1706C30.72 68.9584 30.9106 68.7206 31.086 68.6682C31.3325 68.595 31.6024 68.5764 31.8187 68.6211C32.0258 68.6635 32.2674 68.8228 32.3367 68.9417C32.4202 69.0857 32.4919 69.3051 32.5468 69.577C32.5911 69.7965 32.6216 70.032 32.643 70.2833C32.6497 70.3615 32.654 70.4219 32.6607 70.5218C32.6636 70.5637 32.6636 70.5637 32.6664 70.5982C32.668 70.6155 32.668 70.6155 32.6719 70.6429C32.675 70.662 32.675 70.662 32.6893 70.7106C32.6966 70.8484 32.6966 70.8484 33.2501 70.8995C33.4154 70.6997 33.4154 70.6997 33.4109 70.6647C33.4379 70.5463 33.4545 70.4144 33.4781 70.1665C33.4932 70.0054 33.5008 69.9262 33.5097 69.844C33.5465 69.5039 33.5932 69.2878 33.6502 69.1928C33.7209 69.0746 33.97 68.91 34.0817 68.89C34.3623 68.8404 34.6703 68.8348 34.9082 68.881C35.0159 68.9022 35.2787 69.1052 35.3409 69.2022C35.4687 69.4038 35.5929 70.0536 35.6629 70.6983C35.6518 70.7406 35.6518 70.7406 35.8236 70.9859C36.4139 70.9186 36.4139 70.9186 36.3973 70.8121C36.4129 70.7741 36.4253 70.7301 36.4428 70.6619C36.485 70.5022 36.513 70.4095 36.5547 70.3056C36.5835 70.2337 36.6139 70.1722 36.645 70.1233C36.7657 69.9333 37.0781 69.8043 37.3521 69.8466C37.6463 69.8921 37.8338 70.1133 37.852 70.5756C37.8665 70.956 37.8708 71.1023 37.8718 71.2458C37.8722 71.2988 37.8722 71.3413 37.8719 71.4609C37.8717 71.5348 37.8717 71.5348 37.8717 71.6249C37.8717 72.1138 37.8612 72.4184 37.8327 72.7989C37.7821 73.4522 37.6966 74.1417 37.6041 74.466C37.5096 74.7966 37.2276 75.4169 37.0043 75.7395C36.9885 75.7548 36.9205 75.8359 36.8336 75.9431C36.689 76.1215 36.5444 76.3081 36.4088 76.4944C36.3363 76.5941 36.2681 76.6913 36.2051 76.7853C35.9615 77.1491 35.8051 77.4461 35.7545 77.6896C35.6881 78.006 35.6643 78.1738 35.6572 78.3558C35.6555 78.4073 35.6555 78.4073 35.6544 78.4573C35.6518 78.5753 35.6503 78.623 35.6453 78.7093C35.6401 78.8 35.6415 78.8965 35.6488 78.9984C35.6592 79.1444 35.6488 79.3439 35.6488 79.3439C35.6488 79.3439 35.5222 79.3321 35.3809 79.3353C35.2084 79.3393 35.065 79.3334 34.9658 79.3176C34.8228 79.2945 34.4365 78.8111 34.2387 78.4345C33.9364 77.8581 33.2026 77.8861 32.9018 78.3951C32.6305 78.8569 32.2422 79.3123 32.1269 79.3268C31.7523 79.3739 31.1722 79.3793 30.0551 79.3601C29.9483 79.3582 29.9483 79.3582 29.8416 79.3563C29.4127 79.3487 29.4292 79.4211 29.438 79.3439C29.4631 79.1236 29.4602 79.1649 29.438 78.9446C29.4007 78.5753 29.2868 78.2741 29.0492 78.0741C28.9264 77.9697 28.7794 77.8333 28.4842 77.553C28.147 77.2326 28.0414 77.1336 27.9112 77.0192L27.1099 76.1285C27.022 76.016 26.2499 74.6946 25.8975 74.1831C25.7603 73.9845 25.7091 73.9201 25.1828 73.2716ZM34.6916 73.2754V76.7344C34.6916 77.2344 35.4416 77.2344 35.4416 76.7344V73.2754C35.4416 72.7754 34.6916 72.7754 34.6916 73.2754ZM32.66 73.2748L32.676 76.7478C32.6783 77.2478 33.4283 77.2444 33.426 76.7444L33.41 73.2714C33.4077 72.7714 32.6577 72.7748 32.66 73.2748ZM31.4509 76.7284L31.4299 73.3024C31.4268 72.8024 30.6768 72.807 30.6799 73.307L30.7009 76.733C30.7039 77.233 31.4539 77.2284 31.4509 76.7284Z" fill="white"/>
</g>
<rect x="1" y="32.5" width="196" height="55" stroke="#313856"/>
<defs>
<filter id="filter0_d_1967_95735" x="95.5" y="22" width="16" height="16" filterUnits="userSpaceOnUse" color-interpolation-filters="sRGB">
<feFlood flood-opacity="0" result="BackgroundImageFix"/>
<feColorMatrix in="SourceAlpha" type="matrix" values="0 0 0 0 0 0 0 0 0 0 0 0 0 0 0 0 0 0 127 0" result="hardAlpha"/>
<feMorphology radius="2" operator="erode" in="SourceAlpha" result="effect1_dropShadow_1967_95735"/>
<feOffset dy="2"/>
<feGaussianBlur stdDeviation="2"/>
<feComposite in2="hardAlpha" operator="out"/>
<feColorMatrix type="matrix" values="0 0 0 0 0.0666667 0 0 0 0 0.0470588 0 0 0 0 0.133333 0 0 0 0.12 0"/>
<feBlend mode="normal" in2="BackgroundImageFix" result="effect1_dropShadow_1967_95735"/>
<feBlend mode="normal" in="SourceGraphic" in2="effect1_dropShadow_1967_95735" result="shape"/>
</filter>
<filter id="filter1_d_1967_95735" x="54.5645" y="31.1021" width="19.0576" height="20.0185" filterUnits="userSpaceOnUse" color-interpolation-filters="sRGB">
<feFlood flood-opacity="0" result="BackgroundImageFix"/>
<feColorMatrix in="SourceAlpha" type="matrix" values="0 0 0 0 0 0 0 0 0 0 0 0 0 0 0 0 0 0 127 0" result="hardAlpha"/>
<feOffset dy="1"/>
<feGaussianBlur stdDeviation="1"/>
<feColorMatrix type="matrix" values="0 0 0 0 0 0 0 0 0 0 0 0 0 0 0 0 0 0 0.298656 0"/>
<feBlend mode="normal" in2="BackgroundImageFix" result="effect1_dropShadow_1967_95735"/>
<feBlend mode="normal" in="SourceGraphic" in2="effect1_dropShadow_1967_95735" result="shape"/>
</filter>
<filter id="filter2_d_1967_95735" x="78.5" y="37" width="16" height="16" filterUnits="userSpaceOnUse" color-interpolation-filters="sRGB">
<feFlood flood-opacity="0" result="BackgroundImageFix"/>
<feColorMatrix in="SourceAlpha" type="matrix" values="0 0 0 0 0 0 0 0 0 0 0 0 0 0 0 0 0 0 127 0" result="hardAlpha"/>
<feMorphology radius="2" operator="erode" in="SourceAlpha" result="effect1_dropShadow_1967_95735"/>
<feOffset dy="2"/>
<feGaussianBlur stdDeviation="2"/>
<feComposite in2="hardAlpha" operator="out"/>
<feColorMatrix type="matrix" values="0 0 0 0 0.0666667 0 0 0 0 0.0470588 0 0 0 0 0.133333 0 0 0 0.12 0"/>
<feBlend mode="normal" in2="BackgroundImageFix" result="effect1_dropShadow_1967_95735"/>
<feBlend mode="normal" in="SourceGraphic" in2="effect1_dropShadow_1967_95735" result="shape"/>
</filter>
<filter id="filter3_d_1967_95735" x="37.5645" y="46.1021" width="19.0576" height="20.0185" filterUnits="userSpaceOnUse" color-interpolation-filters="sRGB">
<feFlood flood-opacity="0" result="BackgroundImageFix"/>
<feColorMatrix in="SourceAlpha" type="matrix" values="0 0 0 0 0 0 0 0 0 0 0 0 0 0 0 0 0 0 127 0" result="hardAlpha"/>
<feOffset dy="1"/>
<feGaussianBlur stdDeviation="1"/>
<feColorMatrix type="matrix" values="0 0 0 0 0 0 0 0 0 0 0 0 0 0 0 0 0 0 0.298656 0"/>
<feBlend mode="normal" in2="BackgroundImageFix" result="effect1_dropShadow_1967_95735"/>
<feBlend mode="normal" in="SourceGraphic" in2="effect1_dropShadow_1967_95735" result="shape"/>
</filter>
<filter id="filter4_d_1967_95735" x="62.5" y="54" width="16" height="16" filterUnits="userSpaceOnUse" color-interpolation-filters="sRGB">
<feFlood flood-opacity="0" result="BackgroundImageFix"/>
<feColorMatrix in="SourceAlpha" type="matrix" values="0 0 0 0 0 0 0 0 0 0 0 0 0 0 0 0 0 0 127 0" result="hardAlpha"/>
<feMorphology radius="2" operator="erode" in="SourceAlpha" result="effect1_dropShadow_1967_95735"/>
<feOffset dy="2"/>
<feGaussianBlur stdDeviation="2"/>
<feComposite in2="hardAlpha" operator="out"/>
<feColorMatrix type="matrix" values="0 0 0 0 0.0666667 0 0 0 0 0.0470588 0 0 0 0 0.133333 0 0 0 0.12 0"/>
<feBlend mode="normal" in2="BackgroundImageFix" result="effect1_dropShadow_1967_95735"/>
<feBlend mode="normal" in="SourceGraphic" in2="effect1_dropShadow_1967_95735" result="shape"/>
</filter>
<filter id="filter5_d_1967_95735" x="21.5645" y="63.1021" width="19.0576" height="20.0185" filterUnits="userSpaceOnUse" color-interpolation-filters="sRGB">
<feFlood flood-opacity="0" result="BackgroundImageFix"/>
<feColorMatrix in="SourceAlpha" type="matrix" values="0 0 0 0 0 0 0 0 0 0 0 0 0 0 0 0 0 0 127 0" result="hardAlpha"/>
<feOffset dy="1"/>
<feGaussianBlur stdDeviation="1"/>
<feColorMatrix type="matrix" values="0 0 0 0 0 0 0 0 0 0 0 0 0 0 0 0 0 0 0.298656 0"/>
<feBlend mode="normal" in2="BackgroundImageFix" result="effect1_dropShadow_1967_95735"/>
<feBlend mode="normal" in="SourceGraphic" in2="effect1_dropShadow_1967_95735" result="shape"/>
</filter>
</defs>
</svg>
