<svg width="54" height="44" viewBox="0 0 54 44" fill="none" xmlns="http://www.w3.org/2000/svg">
<g filter="url(#filter0_b_12295_157174)">
<path d="M28 3.66406L39 9.96406V12.6641L28 6.36406V3.66406Z" fill="#D6E3F6"/>
<path d="M28.0355 6.34348V3.72533L38.9645 9.98465V12.6028L28.0355 6.34348Z" stroke="url(#paint0_linear_12295_157174)" stroke-width="0.0710275"/>
</g>
<g filter="url(#filter1_b_12295_157174)">
<path d="M26 3.66406L15 9.96406V12.6641L26 6.36406V3.66406Z" fill="#D6E3F6"/>
<path d="M25.9645 6.34348V3.72533L15.0355 9.98465V12.6028L25.9645 6.34348Z" stroke="url(#paint1_linear_12295_157174)" stroke-width="0.0710275"/>
</g>
<g filter="url(#filter2_b_12295_157174)">
<path d="M27 2.66406L39 9.66406V12.6641L27 5.66406V2.66406Z" fill="url(#paint2_linear_12295_157174)" fill-opacity="0.1"/>
<path d="M27.0355 5.64366V2.72589L38.9645 9.68446V12.6022L27.0355 5.64366Z" stroke="url(#paint3_linear_12295_157174)" stroke-width="0.0710275"/>
</g>
<g filter="url(#filter3_b_12295_157174)">
<path d="M27 2L35 6.66667V10.3307L27 5.66406V2Z" fill="url(#paint4_linear_12295_157174)" fill-opacity="0.1"/>
<path d="M27.0355 5.64366V2.06183L34.9645 6.68706V10.2689L27.0355 5.64366Z" stroke="url(#paint5_linear_12295_157174)" stroke-width="0.0710275"/>
</g>
<g filter="url(#filter4_b_12295_157174)">
<path d="M27 2.66406L15 9.66406V12.6641L27 5.66406V2.66406Z" fill="url(#paint6_linear_12295_157174)" fill-opacity="0.1"/>
<path d="M26.9645 5.64366V2.72589L15.0355 9.68446V12.6022L26.9645 5.64366Z" stroke="url(#paint7_linear_12295_157174)" stroke-width="0.0710275"/>
</g>
<g filter="url(#filter5_b_12295_157174)">
<path d="M27 2L19 6.66667V10.3307L27 5.66406V2Z" fill="url(#paint8_linear_12295_157174)" fill-opacity="0.1"/>
<path d="M26.9645 5.64366V2.06183L19.0355 6.68706V10.2689L26.9645 5.64366Z" stroke="url(#paint9_linear_12295_157174)" stroke-width="0.0710275"/>
</g>
<g filter="url(#filter6_b_12295_157174)">
<path d="M28 38L39 31.7V29L28 35.3V38Z" fill="#D6E3F6"/>
<path d="M28.0355 35.3206V37.9387L38.9645 31.6794V29.0613L28.0355 35.3206Z" stroke="url(#paint10_linear_12295_157174)" stroke-width="0.0710275"/>
</g>
<g filter="url(#filter7_b_12295_157174)">
<path d="M26 38L15 31.7V29L26 35.3V38Z" fill="#D6E3F6"/>
<path d="M25.9645 35.3206V37.9387L15.0355 31.6794V29.0613L25.9645 35.3206Z" stroke="url(#paint11_linear_12295_157174)" stroke-width="0.0710275"/>
</g>
<g filter="url(#filter8_b_12295_157174)">
<path d="M27 39L39 32V29L27 36V39Z" fill="url(#paint12_linear_12295_157174)" fill-opacity="0.1"/>
<path d="M27.0355 36.0204V38.9382L38.9645 31.9796V29.0618L27.0355 36.0204Z" stroke="url(#paint13_linear_12295_157174)" stroke-width="0.0710275"/>
</g>
<g filter="url(#filter9_b_12295_157174)">
<path d="M27 39.6641L35 34.9974V31.3333L27 36V39.6641Z" fill="url(#paint14_linear_12295_157174)" fill-opacity="0.1"/>
<path d="M27.0355 36.0204V39.6022L34.9645 34.977V31.3952L27.0355 36.0204Z" stroke="url(#paint15_linear_12295_157174)" stroke-width="0.0710275"/>
</g>
<g filter="url(#filter10_b_12295_157174)">
<path d="M27 39L15 32V29L27 36V39Z" fill="url(#paint16_linear_12295_157174)" fill-opacity="0.1"/>
<path d="M26.9645 36.0204V38.9382L15.0355 31.9796V29.0618L26.9645 36.0204Z" stroke="url(#paint17_linear_12295_157174)" stroke-width="0.0710275"/>
</g>
<g filter="url(#filter11_b_12295_157174)">
<path d="M27 39.6641L19 34.9974V31.3333L27 36V39.6641Z" fill="url(#paint18_linear_12295_157174)" fill-opacity="0.1"/>
<path d="M26.9645 36.0204V39.6022L19.0355 34.977V31.3952L26.9645 36.0204Z" stroke="url(#paint19_linear_12295_157174)" stroke-width="0.0710275"/>
</g>
<path d="M26.7525 7.81097C26.9051 7.72041 27.0949 7.72041 27.2475 7.81097L32.59 10.9819L38.0073 14.0232C38.1621 14.11 38.257 14.2744 38.2549 14.4519L38.18 20.6641L38.2549 26.8763C38.257 27.0537 38.1621 27.2181 38.0073 27.305L32.59 30.3462L27.2475 33.5172C27.0949 33.6077 26.9051 33.6077 26.7525 33.5172L21.41 30.3462L15.9927 27.305C15.8379 27.2181 15.743 27.0537 15.7451 26.8763L15.82 20.6641L15.7451 14.4519C15.743 14.2744 15.8379 14.11 15.9927 14.0232L21.41 10.9819L26.7525 7.81097Z" fill="url(#paint20_linear_12295_157174)"/>
<path d="M33.6248 9.17752L33.6247 9.17765L33.6352 9.18355L40.3529 12.9548L40.26 20.658L40.2599 20.658L40.26 20.6701L40.3529 28.3733L33.6352 32.1446L33.6352 32.1444L33.6248 32.1506L27 36.0826L20.3752 32.1506L20.3753 32.1505L20.3648 32.1446L13.6471 28.3733L13.74 20.6701L13.7401 20.6701L13.74 20.658L13.6471 12.9548L20.3648 9.18355L20.3648 9.18367L20.3752 9.17752L27 5.2455L33.6248 9.17752ZM40.3607 28.369L40.3605 28.369L40.3607 28.369ZM26.9923 36.0872C26.9924 36.0872 26.9924 36.0871 26.9924 36.0871L26.9923 36.0872Z" stroke="url(#paint21_linear_12295_157174)"/>
<g filter="url(#filter12_b_12295_157174)">
<path d="M26.7525 6.81097C26.9051 6.72041 27.0949 6.72041 27.2475 6.81097L33.02 10.2371L38.8734 13.5232C39.0281 13.61 39.123 13.7744 39.1209 13.9519L39.04 20.6641L39.1209 27.3763C39.123 27.5537 39.0281 27.7181 38.8734 27.805L33.02 31.091L27.2475 34.5172C27.0949 34.6077 26.9051 34.6077 26.7525 34.5172L20.98 31.091L15.1266 27.805C14.9719 27.7181 14.877 27.5537 14.8791 27.3763L14.96 20.6641L14.8791 13.9519C14.877 13.7744 14.9719 13.61 15.1266 13.5232L20.98 10.2371L26.7525 6.81097Z" fill="url(#paint22_linear_12295_157174)" fill-opacity="0.1"/>
<path d="M33.0019 10.2677L33.0026 10.2681L38.856 13.5541C38.9994 13.6346 39.0874 13.787 39.0854 13.9514L39.0045 20.6636L39.0045 20.6645L39.0854 27.3767C39.0874 27.5411 38.9994 27.6935 38.856 27.774L33.0026 31.06L33.0019 31.0605L27.2294 34.4866C27.088 34.5705 26.912 34.5705 26.7706 34.4866L20.9981 31.0605L20.9974 31.06L15.144 27.774C15.0006 27.6935 14.9126 27.5411 14.9146 27.3767L14.9955 20.6645L14.9955 20.6636L14.9146 13.9514C14.9126 13.787 15.0006 13.6346 15.144 13.5541L20.9974 10.2681L20.9974 10.2681L20.9981 10.2677L26.7706 6.84151C26.912 6.75758 27.088 6.75758 27.2294 6.84151L33.0019 10.2677Z" stroke="url(#paint23_linear_12295_157174)" stroke-width="0.0710275"/>
</g>
<g filter="url(#filter13_d_12295_157174)">
<path d="M23.5525 26V23.822H26.9365V15.398H26.7745L24.2185 18.746L22.4905 17.396L25.4965 13.436H29.6365V23.822H32.3005V26H23.5525Z" fill="white"/>
</g>
<defs>
<filter id="filter0_b_12295_157174" x="25.7716" y="1.43566" width="15.4568" height="13.4568" filterUnits="userSpaceOnUse" color-interpolation-filters="sRGB">
<feFlood flood-opacity="0" result="BackgroundImageFix"/>
<feGaussianBlur in="BackgroundImageFix" stdDeviation="1.1142"/>
<feComposite in2="SourceAlpha" operator="in" result="effect1_backgroundBlur_12295_157174"/>
<feBlend mode="normal" in="SourceGraphic" in2="effect1_backgroundBlur_12295_157174" result="shape"/>
</filter>
<filter id="filter1_b_12295_157174" x="12.7716" y="1.43566" width="15.4568" height="13.4568" filterUnits="userSpaceOnUse" color-interpolation-filters="sRGB">
<feFlood flood-opacity="0" result="BackgroundImageFix"/>
<feGaussianBlur in="BackgroundImageFix" stdDeviation="1.1142"/>
<feComposite in2="SourceAlpha" operator="in" result="effect1_backgroundBlur_12295_157174"/>
<feBlend mode="normal" in="SourceGraphic" in2="effect1_backgroundBlur_12295_157174" result="shape"/>
</filter>
<filter id="filter2_b_12295_157174" x="24.7716" y="0.435655" width="16.4568" height="14.4568" filterUnits="userSpaceOnUse" color-interpolation-filters="sRGB">
<feFlood flood-opacity="0" result="BackgroundImageFix"/>
<feGaussianBlur in="BackgroundImageFix" stdDeviation="1.1142"/>
<feComposite in2="SourceAlpha" operator="in" result="effect1_backgroundBlur_12295_157174"/>
<feBlend mode="normal" in="SourceGraphic" in2="effect1_backgroundBlur_12295_157174" result="shape"/>
</filter>
<filter id="filter3_b_12295_157174" x="24.7716" y="-0.228407" width="12.4568" height="12.7879" filterUnits="userSpaceOnUse" color-interpolation-filters="sRGB">
<feFlood flood-opacity="0" result="BackgroundImageFix"/>
<feGaussianBlur in="BackgroundImageFix" stdDeviation="1.1142"/>
<feComposite in2="SourceAlpha" operator="in" result="effect1_backgroundBlur_12295_157174"/>
<feBlend mode="normal" in="SourceGraphic" in2="effect1_backgroundBlur_12295_157174" result="shape"/>
</filter>
<filter id="filter4_b_12295_157174" x="12.7716" y="0.435655" width="16.4568" height="14.4568" filterUnits="userSpaceOnUse" color-interpolation-filters="sRGB">
<feFlood flood-opacity="0" result="BackgroundImageFix"/>
<feGaussianBlur in="BackgroundImageFix" stdDeviation="1.1142"/>
<feComposite in2="SourceAlpha" operator="in" result="effect1_backgroundBlur_12295_157174"/>
<feBlend mode="normal" in="SourceGraphic" in2="effect1_backgroundBlur_12295_157174" result="shape"/>
</filter>
<filter id="filter5_b_12295_157174" x="16.7716" y="-0.228407" width="12.4568" height="12.7879" filterUnits="userSpaceOnUse" color-interpolation-filters="sRGB">
<feFlood flood-opacity="0" result="BackgroundImageFix"/>
<feGaussianBlur in="BackgroundImageFix" stdDeviation="1.1142"/>
<feComposite in2="SourceAlpha" operator="in" result="effect1_backgroundBlur_12295_157174"/>
<feBlend mode="normal" in="SourceGraphic" in2="effect1_backgroundBlur_12295_157174" result="shape"/>
</filter>
<filter id="filter6_b_12295_157174" x="25.7716" y="26.7716" width="15.4568" height="13.4568" filterUnits="userSpaceOnUse" color-interpolation-filters="sRGB">
<feFlood flood-opacity="0" result="BackgroundImageFix"/>
<feGaussianBlur in="BackgroundImageFix" stdDeviation="1.1142"/>
<feComposite in2="SourceAlpha" operator="in" result="effect1_backgroundBlur_12295_157174"/>
<feBlend mode="normal" in="SourceGraphic" in2="effect1_backgroundBlur_12295_157174" result="shape"/>
</filter>
<filter id="filter7_b_12295_157174" x="12.7716" y="26.7716" width="15.4568" height="13.4568" filterUnits="userSpaceOnUse" color-interpolation-filters="sRGB">
<feFlood flood-opacity="0" result="BackgroundImageFix"/>
<feGaussianBlur in="BackgroundImageFix" stdDeviation="1.1142"/>
<feComposite in2="SourceAlpha" operator="in" result="effect1_backgroundBlur_12295_157174"/>
<feBlend mode="normal" in="SourceGraphic" in2="effect1_backgroundBlur_12295_157174" result="shape"/>
</filter>
<filter id="filter8_b_12295_157174" x="24.7716" y="26.7716" width="16.4568" height="14.4568" filterUnits="userSpaceOnUse" color-interpolation-filters="sRGB">
<feFlood flood-opacity="0" result="BackgroundImageFix"/>
<feGaussianBlur in="BackgroundImageFix" stdDeviation="1.1142"/>
<feComposite in2="SourceAlpha" operator="in" result="effect1_backgroundBlur_12295_157174"/>
<feBlend mode="normal" in="SourceGraphic" in2="effect1_backgroundBlur_12295_157174" result="shape"/>
</filter>
<filter id="filter9_b_12295_157174" x="24.7716" y="29.1046" width="12.4568" height="12.7879" filterUnits="userSpaceOnUse" color-interpolation-filters="sRGB">
<feFlood flood-opacity="0" result="BackgroundImageFix"/>
<feGaussianBlur in="BackgroundImageFix" stdDeviation="1.1142"/>
<feComposite in2="SourceAlpha" operator="in" result="effect1_backgroundBlur_12295_157174"/>
<feBlend mode="normal" in="SourceGraphic" in2="effect1_backgroundBlur_12295_157174" result="shape"/>
</filter>
<filter id="filter10_b_12295_157174" x="12.7716" y="26.7716" width="16.4568" height="14.4568" filterUnits="userSpaceOnUse" color-interpolation-filters="sRGB">
<feFlood flood-opacity="0" result="BackgroundImageFix"/>
<feGaussianBlur in="BackgroundImageFix" stdDeviation="1.1142"/>
<feComposite in2="SourceAlpha" operator="in" result="effect1_backgroundBlur_12295_157174"/>
<feBlend mode="normal" in="SourceGraphic" in2="effect1_backgroundBlur_12295_157174" result="shape"/>
</filter>
<filter id="filter11_b_12295_157174" x="16.7716" y="29.1046" width="12.4568" height="12.7879" filterUnits="userSpaceOnUse" color-interpolation-filters="sRGB">
<feFlood flood-opacity="0" result="BackgroundImageFix"/>
<feGaussianBlur in="BackgroundImageFix" stdDeviation="1.1142"/>
<feComposite in2="SourceAlpha" operator="in" result="effect1_backgroundBlur_12295_157174"/>
<feBlend mode="normal" in="SourceGraphic" in2="effect1_backgroundBlur_12295_157174" result="shape"/>
</filter>
<filter id="filter12_b_12295_157174" x="12.6507" y="4.51476" width="28.6985" height="32.2986" filterUnits="userSpaceOnUse" color-interpolation-filters="sRGB">
<feFlood flood-opacity="0" result="BackgroundImageFix"/>
<feGaussianBlur in="BackgroundImageFix" stdDeviation="1.1142"/>
<feComposite in2="SourceAlpha" operator="in" result="effect1_backgroundBlur_12295_157174"/>
<feBlend mode="normal" in="SourceGraphic" in2="effect1_backgroundBlur_12295_157174" result="shape"/>
</filter>
<filter id="filter13_d_12295_157174" x="22.4905" y="13.4355" width="9.81006" height="13.9376" filterUnits="userSpaceOnUse" color-interpolation-filters="sRGB">
<feFlood flood-opacity="0" result="BackgroundImageFix"/>
<feColorMatrix in="SourceAlpha" type="matrix" values="0 0 0 0 0 0 0 0 0 0 0 0 0 0 0 0 0 0 127 0" result="hardAlpha"/>
<feOffset dy="1.37313"/>
<feComposite in2="hardAlpha" operator="out"/>
<feColorMatrix type="matrix" values="0 0 0 0 0 0 0 0 0 0 0 0 0 0 0 0 0 0 0.25 0"/>
<feBlend mode="normal" in2="BackgroundImageFix" result="effect1_dropShadow_12295_157174"/>
<feBlend mode="normal" in="SourceGraphic" in2="effect1_dropShadow_12295_157174" result="shape"/>
</filter>
<linearGradient id="paint0_linear_12295_157174" x1="46.311" y1="5.80436" x2="45.5703" y2="12.3264" gradientUnits="userSpaceOnUse">
<stop stop-color="#A4ECDF"/>
<stop offset="1" stop-color="white" stop-opacity="0"/>
</linearGradient>
<linearGradient id="paint1_linear_12295_157174" x1="7.68902" y1="5.80436" x2="8.42972" y2="12.3264" gradientUnits="userSpaceOnUse">
<stop stop-color="#A4ECDF"/>
<stop offset="1" stop-color="white" stop-opacity="0"/>
</linearGradient>
<linearGradient id="paint2_linear_12295_157174" x1="38.9986" y1="3.41932" x2="38.0838" y2="11.2059" gradientUnits="userSpaceOnUse">
<stop stop-color="#3EA2F4"/>
<stop offset="0.630208"/>
<stop offset="1" stop-color="#423EF4"/>
</linearGradient>
<linearGradient id="paint3_linear_12295_157174" x1="46.9756" y1="5.04217" x2="46.1378" y2="12.2854" gradientUnits="userSpaceOnUse">
<stop stop-color="#A4ECDF"/>
<stop offset="1" stop-color="white" stop-opacity="0"/>
</linearGradient>
<linearGradient id="paint4_linear_12295_157174" x1="38.9986" y1="3.41932" x2="38.0838" y2="11.2058" gradientUnits="userSpaceOnUse">
<stop stop-color="#3EA2F4"/>
<stop offset="0.630208"/>
<stop offset="1" stop-color="#423EF4"/>
</linearGradient>
<linearGradient id="paint5_linear_12295_157174" x1="46.9756" y1="5.04218" x2="46.1378" y2="12.2854" gradientUnits="userSpaceOnUse">
<stop stop-color="#A4ECDF"/>
<stop offset="1" stop-color="white" stop-opacity="0"/>
</linearGradient>
<linearGradient id="paint6_linear_12295_157174" x1="15.0014" y1="3.41932" x2="15.9162" y2="11.2059" gradientUnits="userSpaceOnUse">
<stop stop-color="#3EA2F4"/>
<stop offset="0.630208"/>
<stop offset="1" stop-color="#423EF4"/>
</linearGradient>
<linearGradient id="paint7_linear_12295_157174" x1="7.02439" y1="5.04217" x2="7.86223" y2="12.2854" gradientUnits="userSpaceOnUse">
<stop stop-color="#A4ECDF"/>
<stop offset="1" stop-color="white" stop-opacity="0"/>
</linearGradient>
<linearGradient id="paint8_linear_12295_157174" x1="15.0014" y1="3.41932" x2="15.9162" y2="11.2058" gradientUnits="userSpaceOnUse">
<stop stop-color="#3EA2F4"/>
<stop offset="0.630208"/>
<stop offset="1" stop-color="#423EF4"/>
</linearGradient>
<linearGradient id="paint9_linear_12295_157174" x1="7.0244" y1="5.04218" x2="7.86224" y2="12.2854" gradientUnits="userSpaceOnUse">
<stop stop-color="#A4ECDF"/>
<stop offset="1" stop-color="white" stop-opacity="0"/>
</linearGradient>
<linearGradient id="paint10_linear_12295_157174" x1="46.311" y1="35.8597" x2="45.5703" y2="29.3377" gradientUnits="userSpaceOnUse">
<stop stop-color="#A4ECDF"/>
<stop offset="1" stop-color="white" stop-opacity="0"/>
</linearGradient>
<linearGradient id="paint11_linear_12295_157174" x1="7.68902" y1="35.8597" x2="8.42972" y2="29.3377" gradientUnits="userSpaceOnUse">
<stop stop-color="#A4ECDF"/>
<stop offset="1" stop-color="white" stop-opacity="0"/>
</linearGradient>
<linearGradient id="paint12_linear_12295_157174" x1="38.9986" y1="38.2447" x2="38.0838" y2="30.4582" gradientUnits="userSpaceOnUse">
<stop stop-color="#3EA2F4"/>
<stop offset="0.630208"/>
<stop offset="1" stop-color="#423EF4"/>
</linearGradient>
<linearGradient id="paint13_linear_12295_157174" x1="46.9756" y1="36.6219" x2="46.1378" y2="29.3787" gradientUnits="userSpaceOnUse">
<stop stop-color="#A4ECDF"/>
<stop offset="1" stop-color="white" stop-opacity="0"/>
</linearGradient>
<linearGradient id="paint14_linear_12295_157174" x1="38.9986" y1="38.2447" x2="38.0838" y2="30.4582" gradientUnits="userSpaceOnUse">
<stop stop-color="#3EA2F4"/>
<stop offset="0.630208"/>
<stop offset="1" stop-color="#423EF4"/>
</linearGradient>
<linearGradient id="paint15_linear_12295_157174" x1="46.9756" y1="36.6219" x2="46.1378" y2="29.3786" gradientUnits="userSpaceOnUse">
<stop stop-color="#A4ECDF"/>
<stop offset="1" stop-color="white" stop-opacity="0"/>
</linearGradient>
<linearGradient id="paint16_linear_12295_157174" x1="15.0014" y1="38.2447" x2="15.9162" y2="30.4582" gradientUnits="userSpaceOnUse">
<stop stop-color="#3EA2F4"/>
<stop offset="0.630208"/>
<stop offset="1" stop-color="#423EF4"/>
</linearGradient>
<linearGradient id="paint17_linear_12295_157174" x1="7.02439" y1="36.6219" x2="7.86223" y2="29.3787" gradientUnits="userSpaceOnUse">
<stop stop-color="#A4ECDF"/>
<stop offset="1" stop-color="white" stop-opacity="0"/>
</linearGradient>
<linearGradient id="paint18_linear_12295_157174" x1="15.0014" y1="38.2447" x2="15.9162" y2="30.4582" gradientUnits="userSpaceOnUse">
<stop stop-color="#3EA2F4"/>
<stop offset="0.630208"/>
<stop offset="1" stop-color="#423EF4"/>
</linearGradient>
<linearGradient id="paint19_linear_12295_157174" x1="7.0244" y1="36.6219" x2="7.86224" y2="29.3786" gradientUnits="userSpaceOnUse">
<stop stop-color="#A4ECDF"/>
<stop offset="1" stop-color="white" stop-opacity="0"/>
</linearGradient>
<linearGradient id="paint20_linear_12295_157174" x1="26.8949" y1="8.36182" x2="26.974" y2="33.6641" gradientUnits="userSpaceOnUse">
<stop stop-color="#F38F10"/>
<stop offset="0.368174" stop-color="#FCC551"/>
<stop offset="0.515825" stop-color="#E16E04"/>
<stop offset="1" stop-color="#CEBC1C"/>
</linearGradient>
<linearGradient id="paint21_linear_12295_157174" x1="27" y1="4.66406" x2="27" y2="36.6641" gradientUnits="userSpaceOnUse">
<stop stop-color="#777E90"/>
<stop offset="0.52" stop-color="#424242"/>
<stop offset="1" stop-color="#F8F8F8"/>
</linearGradient>
<linearGradient id="paint22_linear_12295_157174" x1="40.9967" y1="8.77879" x2="37.9412" y2="30.4512" gradientUnits="userSpaceOnUse">
<stop stop-color="#3EA2F4"/>
<stop offset="0.630208"/>
<stop offset="1" stop-color="#423EF4"/>
</linearGradient>
<linearGradient id="paint23_linear_12295_157174" x1="59.6098" y1="13.3228" x2="56.8109" y2="33.4867" gradientUnits="userSpaceOnUse">
<stop stop-color="#A4ECDF"/>
<stop offset="1" stop-color="white" stop-opacity="0"/>
</linearGradient>
</defs>
</svg>
