<svg width="54" height="44" viewBox="0 0 54 44" fill="none" xmlns="http://www.w3.org/2000/svg">
<g filter="url(#filter0_b_12295_157212)">
<path d="M28 38L39 31.7V29L28 35.3V38Z" fill="#D6E3F6"/>
<path d="M28.0355 35.3206V37.9387L38.9645 31.6794V29.0613L28.0355 35.3206Z" stroke="url(#paint0_linear_12295_157212)" stroke-width="0.0710275"/>
</g>
<g filter="url(#filter1_b_12295_157212)">
<path d="M28 3.32812L39 9.62812V12.3281L28 6.02812V3.32812Z" fill="#D6E3F6"/>
<path d="M28.0355 6.00754V3.38939L38.9645 9.64871V12.2669L28.0355 6.00754Z" stroke="url(#paint1_linear_12295_157212)" stroke-width="0.0710275"/>
</g>
<g filter="url(#filter2_b_12295_157212)">
<path d="M26 38L15 31.7V29L26 35.3V38Z" fill="#D6E3F6"/>
<path d="M25.9645 35.3206V37.9387L15.0355 31.6794V29.0613L25.9645 35.3206Z" stroke="url(#paint2_linear_12295_157212)" stroke-width="0.0710275"/>
</g>
<g filter="url(#filter3_b_12295_157212)">
<path d="M26 3.32812L15 9.62812V12.3281L26 6.02812V3.32812Z" fill="#D6E3F6"/>
<path d="M25.9645 6.00754V3.38939L15.0355 9.64871V12.2669L25.9645 6.00754Z" stroke="url(#paint3_linear_12295_157212)" stroke-width="0.0710275"/>
</g>
<g filter="url(#filter4_b_12295_157212)">
<path d="M27 39L39 32V29L27 36V39Z" fill="url(#paint4_linear_12295_157212)" fill-opacity="0.1"/>
<path d="M27.0355 36.0204V38.9382L38.9645 31.9796V29.0618L27.0355 36.0204Z" stroke="url(#paint5_linear_12295_157212)" stroke-width="0.0710275"/>
</g>
<g filter="url(#filter5_b_12295_157212)">
<path d="M27 2.32812L39 9.32812V12.3281L27 5.32812V2.32812Z" fill="url(#paint6_linear_12295_157212)" fill-opacity="0.1"/>
<path d="M27.0355 5.30773V2.38996L38.9645 9.34852V12.2663L27.0355 5.30773Z" stroke="url(#paint7_linear_12295_157212)" stroke-width="0.0710275"/>
</g>
<g filter="url(#filter6_b_12295_157212)">
<path d="M27 40.3281L35 35.6615V31.9974L27 36.6641V40.3281Z" fill="url(#paint8_linear_12295_157212)" fill-opacity="0.1"/>
<path d="M27.0355 36.6845V40.2663L34.9645 35.6411V32.0592L27.0355 36.6845Z" stroke="url(#paint9_linear_12295_157212)" stroke-width="0.0710275"/>
</g>
<g filter="url(#filter7_b_12295_157212)">
<path d="M27 42L32 38.6389V36L27 39.361V42Z" fill="url(#paint10_linear_12295_157212)" fill-opacity="0.1"/>
<path d="M27.0355 39.38V41.9333L31.9645 38.62V36.0667L27.0355 39.38Z" stroke="url(#paint11_linear_12295_157212)" stroke-width="0.0710275"/>
</g>
<g filter="url(#filter8_b_12295_157212)">
<path d="M27 1L35 5.66667V9.33072L27 4.66406V1Z" fill="url(#paint12_linear_12295_157212)" fill-opacity="0.1"/>
<path d="M27.0355 4.64366V1.06183L34.9645 5.68706V9.26889L27.0355 4.64366Z" stroke="url(#paint13_linear_12295_157212)" stroke-width="0.0710275"/>
</g>
<g filter="url(#filter9_b_12295_157212)">
<path d="M27 39L15 32V29L27 36V39Z" fill="url(#paint14_linear_12295_157212)" fill-opacity="0.1"/>
<path d="M26.9645 36.0204V38.9382L15.0355 31.9796V29.0618L26.9645 36.0204Z" stroke="url(#paint15_linear_12295_157212)" stroke-width="0.0710275"/>
</g>
<g filter="url(#filter10_b_12295_157212)">
<path d="M27 2.32812L15 9.32812V12.3281L27 5.32812V2.32812Z" fill="url(#paint16_linear_12295_157212)" fill-opacity="0.1"/>
<path d="M26.9645 5.30773V2.38996L15.0355 9.34852V12.2663L26.9645 5.30773Z" stroke="url(#paint17_linear_12295_157212)" stroke-width="0.0710275"/>
</g>
<g filter="url(#filter11_b_12295_157212)">
<path d="M27 40.3281L19 35.6615V31.9974L27 36.6641V40.3281Z" fill="url(#paint18_linear_12295_157212)" fill-opacity="0.1"/>
<path d="M26.9645 36.6845V40.2663L19.0355 35.6411V32.0592L26.9645 36.6845Z" stroke="url(#paint19_linear_12295_157212)" stroke-width="0.0710275"/>
</g>
<g filter="url(#filter12_b_12295_157212)">
<path d="M27 42L22 38.6389V36L27 39.361V42Z" fill="url(#paint20_linear_12295_157212)" fill-opacity="0.1"/>
<path d="M26.9645 39.38V41.9333L22.0355 38.62V36.0667L26.9645 39.38Z" stroke="url(#paint21_linear_12295_157212)" stroke-width="0.0710275"/>
</g>
<g filter="url(#filter13_b_12295_157212)">
<path d="M27 1L19 5.66667V9.33072L27 4.66406V1Z" fill="url(#paint22_linear_12295_157212)" fill-opacity="0.1"/>
<path d="M26.9645 4.64366V1.06183L19.0355 5.68706V9.26889L26.9645 4.64366Z" stroke="url(#paint23_linear_12295_157212)" stroke-width="0.0710275"/>
</g>
<path d="M27 7.66406L32.59 10.9819L38.2583 14.1641L38.18 20.6641L38.2583 27.1641L32.59 30.3462L27 33.6641L21.41 30.3462L15.7417 27.1641L15.82 20.6641L15.7417 14.1641L21.41 10.9819L27 7.66406Z" fill="url(#paint24_radial_12295_157212)"/>
<path d="M33.6248 9.17752L33.6247 9.17765L33.6352 9.18355L40.3529 12.9548L40.26 20.658L40.2599 20.658L40.26 20.6701L40.3529 28.3733L33.6352 32.1446L33.6352 32.1444L33.6248 32.1506L27 36.0826L20.3752 32.1506L20.3753 32.1505L20.3648 32.1446L13.6471 28.3733L13.74 20.6701L13.7401 20.6701L13.74 20.658L13.6471 12.9548L20.3648 9.18355L20.3648 9.18367L20.3752 9.17752L27 5.2455L33.6248 9.17752ZM40.3607 28.369L40.3605 28.369L40.3607 28.369ZM26.9923 36.0872C26.9924 36.0872 26.9924 36.0871 26.9924 36.0871L26.9923 36.0872Z" stroke="url(#paint25_linear_12295_157212)"/>
<g filter="url(#filter14_b_12295_157212)">
<path d="M26.7525 6.81097C26.9051 6.72041 27.0949 6.72041 27.2475 6.81097L33.02 10.2371L38.8734 13.5232C39.0281 13.61 39.123 13.7744 39.1209 13.9519L39.04 20.6641L39.1209 27.3763C39.123 27.5537 39.0281 27.7181 38.8734 27.805L33.02 31.091L27.2475 34.5172C27.0949 34.6077 26.9051 34.6077 26.7525 34.5172L20.98 31.091L15.1266 27.805C14.9719 27.7181 14.877 27.5537 14.8791 27.3763L14.96 20.6641L14.8791 13.9519C14.877 13.7744 14.9719 13.61 15.1266 13.5232L20.98 10.2371L26.7525 6.81097Z" fill="url(#paint26_linear_12295_157212)" fill-opacity="0.1"/>
<path d="M33.0019 10.2677L33.0026 10.2681L38.856 13.5541C38.9994 13.6346 39.0874 13.787 39.0854 13.9514L39.0045 20.6636L39.0045 20.6645L39.0854 27.3767C39.0874 27.5411 38.9994 27.6935 38.856 27.774L33.0026 31.06L33.0019 31.0605L27.2294 34.4866C27.088 34.5705 26.912 34.5705 26.7706 34.4866L20.9981 31.0605L20.9974 31.06L15.144 27.774C15.0006 27.6935 14.9126 27.5411 14.9146 27.3767L14.9955 20.6645L14.9955 20.6636L14.9146 13.9514C14.9126 13.787 15.0006 13.6346 15.144 13.5541L20.9974 10.2681L20.9974 10.2681L20.9981 10.2677L26.7706 6.84151C26.912 6.75758 27.088 6.75758 27.2294 6.84151L33.0019 10.2677Z" stroke="url(#paint27_linear_12295_157212)" stroke-width="0.0710275"/>
</g>
<g filter="url(#filter15_d_12295_157212)">
<path d="M22.8865 26V23.534L26.7565 20.222C27.4645 19.622 27.9565 19.112 28.2325 18.692C28.5085 18.26 28.6465 17.78 28.6465 17.252V17C28.6465 16.52 28.4725 16.16 28.1245 15.92C27.7765 15.68 27.3985 15.56 26.9905 15.56C26.4025 15.56 25.9525 15.734 25.6405 16.082C25.3285 16.43 25.1065 16.844 24.9745 17.324L22.6165 16.424C22.8085 15.836 23.0965 15.302 23.4805 14.822C23.8765 14.342 24.3865 13.958 25.0105 13.67C25.6345 13.37 26.3785 13.22 27.2425 13.22C28.1545 13.22 28.9285 13.388 29.5645 13.724C30.2005 14.048 30.6865 14.492 31.0225 15.056C31.3585 15.62 31.5265 16.268 31.5265 17C31.5265 17.72 31.3705 18.362 31.0585 18.926C30.7585 19.478 30.3505 19.994 29.8345 20.474C29.3305 20.942 28.7785 21.416 28.1785 21.896L25.8385 23.732H31.7785V26H22.8865Z" fill="white"/>
</g>
<defs>
<filter id="filter0_b_12295_157212" x="25.7716" y="26.7716" width="15.4568" height="13.4568" filterUnits="userSpaceOnUse" color-interpolation-filters="sRGB">
<feFlood flood-opacity="0" result="BackgroundImageFix"/>
<feGaussianBlur in="BackgroundImageFix" stdDeviation="1.1142"/>
<feComposite in2="SourceAlpha" operator="in" result="effect1_backgroundBlur_12295_157212"/>
<feBlend mode="normal" in="SourceGraphic" in2="effect1_backgroundBlur_12295_157212" result="shape"/>
</filter>
<filter id="filter1_b_12295_157212" x="25.7716" y="1.09972" width="15.4568" height="13.4568" filterUnits="userSpaceOnUse" color-interpolation-filters="sRGB">
<feFlood flood-opacity="0" result="BackgroundImageFix"/>
<feGaussianBlur in="BackgroundImageFix" stdDeviation="1.1142"/>
<feComposite in2="SourceAlpha" operator="in" result="effect1_backgroundBlur_12295_157212"/>
<feBlend mode="normal" in="SourceGraphic" in2="effect1_backgroundBlur_12295_157212" result="shape"/>
</filter>
<filter id="filter2_b_12295_157212" x="12.7716" y="26.7716" width="15.4568" height="13.4568" filterUnits="userSpaceOnUse" color-interpolation-filters="sRGB">
<feFlood flood-opacity="0" result="BackgroundImageFix"/>
<feGaussianBlur in="BackgroundImageFix" stdDeviation="1.1142"/>
<feComposite in2="SourceAlpha" operator="in" result="effect1_backgroundBlur_12295_157212"/>
<feBlend mode="normal" in="SourceGraphic" in2="effect1_backgroundBlur_12295_157212" result="shape"/>
</filter>
<filter id="filter3_b_12295_157212" x="12.7716" y="1.09972" width="15.4568" height="13.4568" filterUnits="userSpaceOnUse" color-interpolation-filters="sRGB">
<feFlood flood-opacity="0" result="BackgroundImageFix"/>
<feGaussianBlur in="BackgroundImageFix" stdDeviation="1.1142"/>
<feComposite in2="SourceAlpha" operator="in" result="effect1_backgroundBlur_12295_157212"/>
<feBlend mode="normal" in="SourceGraphic" in2="effect1_backgroundBlur_12295_157212" result="shape"/>
</filter>
<filter id="filter4_b_12295_157212" x="24.7716" y="26.7716" width="16.4568" height="14.4568" filterUnits="userSpaceOnUse" color-interpolation-filters="sRGB">
<feFlood flood-opacity="0" result="BackgroundImageFix"/>
<feGaussianBlur in="BackgroundImageFix" stdDeviation="1.1142"/>
<feComposite in2="SourceAlpha" operator="in" result="effect1_backgroundBlur_12295_157212"/>
<feBlend mode="normal" in="SourceGraphic" in2="effect1_backgroundBlur_12295_157212" result="shape"/>
</filter>
<filter id="filter5_b_12295_157212" x="24.7716" y="0.0997176" width="16.4568" height="14.4568" filterUnits="userSpaceOnUse" color-interpolation-filters="sRGB">
<feFlood flood-opacity="0" result="BackgroundImageFix"/>
<feGaussianBlur in="BackgroundImageFix" stdDeviation="1.1142"/>
<feComposite in2="SourceAlpha" operator="in" result="effect1_backgroundBlur_12295_157212"/>
<feBlend mode="normal" in="SourceGraphic" in2="effect1_backgroundBlur_12295_157212" result="shape"/>
</filter>
<filter id="filter6_b_12295_157212" x="24.7716" y="29.7687" width="12.4568" height="12.7879" filterUnits="userSpaceOnUse" color-interpolation-filters="sRGB">
<feFlood flood-opacity="0" result="BackgroundImageFix"/>
<feGaussianBlur in="BackgroundImageFix" stdDeviation="1.1142"/>
<feComposite in2="SourceAlpha" operator="in" result="effect1_backgroundBlur_12295_157212"/>
<feBlend mode="normal" in="SourceGraphic" in2="effect1_backgroundBlur_12295_157212" result="shape"/>
</filter>
<filter id="filter7_b_12295_157212" x="24.7716" y="33.7716" width="9.45681" height="10.4568" filterUnits="userSpaceOnUse" color-interpolation-filters="sRGB">
<feFlood flood-opacity="0" result="BackgroundImageFix"/>
<feGaussianBlur in="BackgroundImageFix" stdDeviation="1.1142"/>
<feComposite in2="SourceAlpha" operator="in" result="effect1_backgroundBlur_12295_157212"/>
<feBlend mode="normal" in="SourceGraphic" in2="effect1_backgroundBlur_12295_157212" result="shape"/>
</filter>
<filter id="filter8_b_12295_157212" x="24.7716" y="-1.22841" width="12.4568" height="12.7879" filterUnits="userSpaceOnUse" color-interpolation-filters="sRGB">
<feFlood flood-opacity="0" result="BackgroundImageFix"/>
<feGaussianBlur in="BackgroundImageFix" stdDeviation="1.1142"/>
<feComposite in2="SourceAlpha" operator="in" result="effect1_backgroundBlur_12295_157212"/>
<feBlend mode="normal" in="SourceGraphic" in2="effect1_backgroundBlur_12295_157212" result="shape"/>
</filter>
<filter id="filter9_b_12295_157212" x="12.7716" y="26.7716" width="16.4568" height="14.4568" filterUnits="userSpaceOnUse" color-interpolation-filters="sRGB">
<feFlood flood-opacity="0" result="BackgroundImageFix"/>
<feGaussianBlur in="BackgroundImageFix" stdDeviation="1.1142"/>
<feComposite in2="SourceAlpha" operator="in" result="effect1_backgroundBlur_12295_157212"/>
<feBlend mode="normal" in="SourceGraphic" in2="effect1_backgroundBlur_12295_157212" result="shape"/>
</filter>
<filter id="filter10_b_12295_157212" x="12.7716" y="0.0997176" width="16.4568" height="14.4568" filterUnits="userSpaceOnUse" color-interpolation-filters="sRGB">
<feFlood flood-opacity="0" result="BackgroundImageFix"/>
<feGaussianBlur in="BackgroundImageFix" stdDeviation="1.1142"/>
<feComposite in2="SourceAlpha" operator="in" result="effect1_backgroundBlur_12295_157212"/>
<feBlend mode="normal" in="SourceGraphic" in2="effect1_backgroundBlur_12295_157212" result="shape"/>
</filter>
<filter id="filter11_b_12295_157212" x="16.7716" y="29.7687" width="12.4568" height="12.7879" filterUnits="userSpaceOnUse" color-interpolation-filters="sRGB">
<feFlood flood-opacity="0" result="BackgroundImageFix"/>
<feGaussianBlur in="BackgroundImageFix" stdDeviation="1.1142"/>
<feComposite in2="SourceAlpha" operator="in" result="effect1_backgroundBlur_12295_157212"/>
<feBlend mode="normal" in="SourceGraphic" in2="effect1_backgroundBlur_12295_157212" result="shape"/>
</filter>
<filter id="filter12_b_12295_157212" x="19.7716" y="33.7716" width="9.45681" height="10.4568" filterUnits="userSpaceOnUse" color-interpolation-filters="sRGB">
<feFlood flood-opacity="0" result="BackgroundImageFix"/>
<feGaussianBlur in="BackgroundImageFix" stdDeviation="1.1142"/>
<feComposite in2="SourceAlpha" operator="in" result="effect1_backgroundBlur_12295_157212"/>
<feBlend mode="normal" in="SourceGraphic" in2="effect1_backgroundBlur_12295_157212" result="shape"/>
</filter>
<filter id="filter13_b_12295_157212" x="16.7716" y="-1.22841" width="12.4568" height="12.7879" filterUnits="userSpaceOnUse" color-interpolation-filters="sRGB">
<feFlood flood-opacity="0" result="BackgroundImageFix"/>
<feGaussianBlur in="BackgroundImageFix" stdDeviation="1.1142"/>
<feComposite in2="SourceAlpha" operator="in" result="effect1_backgroundBlur_12295_157212"/>
<feBlend mode="normal" in="SourceGraphic" in2="effect1_backgroundBlur_12295_157212" result="shape"/>
</filter>
<filter id="filter14_b_12295_157212" x="12.6507" y="4.51476" width="28.6985" height="32.2986" filterUnits="userSpaceOnUse" color-interpolation-filters="sRGB">
<feFlood flood-opacity="0" result="BackgroundImageFix"/>
<feGaussianBlur in="BackgroundImageFix" stdDeviation="1.1142"/>
<feComposite in2="SourceAlpha" operator="in" result="effect1_backgroundBlur_12295_157212"/>
<feBlend mode="normal" in="SourceGraphic" in2="effect1_backgroundBlur_12295_157212" result="shape"/>
</filter>
<filter id="filter15_d_12295_157212" x="22.6165" y="13.2197" width="9.16211" height="14.1534" filterUnits="userSpaceOnUse" color-interpolation-filters="sRGB">
<feFlood flood-opacity="0" result="BackgroundImageFix"/>
<feColorMatrix in="SourceAlpha" type="matrix" values="0 0 0 0 0 0 0 0 0 0 0 0 0 0 0 0 0 0 127 0" result="hardAlpha"/>
<feOffset dy="1.37313"/>
<feComposite in2="hardAlpha" operator="out"/>
<feColorMatrix type="matrix" values="0 0 0 0 0 0 0 0 0 0 0 0 0 0 0 0 0 0 0.25 0"/>
<feBlend mode="normal" in2="BackgroundImageFix" result="effect1_dropShadow_12295_157212"/>
<feBlend mode="normal" in="SourceGraphic" in2="effect1_dropShadow_12295_157212" result="shape"/>
</filter>
<linearGradient id="paint0_linear_12295_157212" x1="46.311" y1="35.8597" x2="45.5703" y2="29.3377" gradientUnits="userSpaceOnUse">
<stop stop-color="#A4ECDF"/>
<stop offset="1" stop-color="white" stop-opacity="0"/>
</linearGradient>
<linearGradient id="paint1_linear_12295_157212" x1="46.311" y1="5.46843" x2="45.5703" y2="11.9904" gradientUnits="userSpaceOnUse">
<stop stop-color="#A4ECDF"/>
<stop offset="1" stop-color="white" stop-opacity="0"/>
</linearGradient>
<linearGradient id="paint2_linear_12295_157212" x1="7.68902" y1="35.8597" x2="8.42972" y2="29.3377" gradientUnits="userSpaceOnUse">
<stop stop-color="#A4ECDF"/>
<stop offset="1" stop-color="white" stop-opacity="0"/>
</linearGradient>
<linearGradient id="paint3_linear_12295_157212" x1="7.68902" y1="5.46843" x2="8.42972" y2="11.9904" gradientUnits="userSpaceOnUse">
<stop stop-color="#A4ECDF"/>
<stop offset="1" stop-color="white" stop-opacity="0"/>
</linearGradient>
<linearGradient id="paint4_linear_12295_157212" x1="38.9986" y1="38.2447" x2="38.0838" y2="30.4582" gradientUnits="userSpaceOnUse">
<stop stop-color="#3EA2F4"/>
<stop offset="0.630208"/>
<stop offset="1" stop-color="#423EF4"/>
</linearGradient>
<linearGradient id="paint5_linear_12295_157212" x1="46.9756" y1="36.6219" x2="46.1378" y2="29.3787" gradientUnits="userSpaceOnUse">
<stop stop-color="#A4ECDF"/>
<stop offset="1" stop-color="white" stop-opacity="0"/>
</linearGradient>
<linearGradient id="paint6_linear_12295_157212" x1="38.9986" y1="3.08338" x2="38.0838" y2="10.8699" gradientUnits="userSpaceOnUse">
<stop stop-color="#3EA2F4"/>
<stop offset="0.630208"/>
<stop offset="1" stop-color="#423EF4"/>
</linearGradient>
<linearGradient id="paint7_linear_12295_157212" x1="46.9756" y1="4.70624" x2="46.1378" y2="11.9495" gradientUnits="userSpaceOnUse">
<stop stop-color="#A4ECDF"/>
<stop offset="1" stop-color="white" stop-opacity="0"/>
</linearGradient>
<linearGradient id="paint8_linear_12295_157212" x1="38.9986" y1="38.9088" x2="38.0838" y2="31.1223" gradientUnits="userSpaceOnUse">
<stop stop-color="#3EA2F4"/>
<stop offset="0.630208"/>
<stop offset="1" stop-color="#423EF4"/>
</linearGradient>
<linearGradient id="paint9_linear_12295_157212" x1="46.9756" y1="37.2859" x2="46.1378" y2="30.0427" gradientUnits="userSpaceOnUse">
<stop stop-color="#A4ECDF"/>
<stop offset="1" stop-color="white" stop-opacity="0"/>
</linearGradient>
<linearGradient id="paint10_linear_12295_157212" x1="34.4991" y1="40.9778" x2="33.7432" y2="35.3946" gradientUnits="userSpaceOnUse">
<stop stop-color="#3EA2F4"/>
<stop offset="0.630208"/>
<stop offset="1" stop-color="#423EF4"/>
</linearGradient>
<linearGradient id="paint11_linear_12295_157212" x1="39.4848" y1="39.8089" x2="38.7924" y2="34.6147" gradientUnits="userSpaceOnUse">
<stop stop-color="#A4ECDF"/>
<stop offset="1" stop-color="white" stop-opacity="0"/>
</linearGradient>
<linearGradient id="paint12_linear_12295_157212" x1="38.9986" y1="2.41932" x2="38.0838" y2="10.2058" gradientUnits="userSpaceOnUse">
<stop stop-color="#3EA2F4"/>
<stop offset="0.630208"/>
<stop offset="1" stop-color="#423EF4"/>
</linearGradient>
<linearGradient id="paint13_linear_12295_157212" x1="46.9756" y1="4.04218" x2="46.1378" y2="11.2854" gradientUnits="userSpaceOnUse">
<stop stop-color="#A4ECDF"/>
<stop offset="1" stop-color="white" stop-opacity="0"/>
</linearGradient>
<linearGradient id="paint14_linear_12295_157212" x1="15.0014" y1="38.2447" x2="15.9162" y2="30.4582" gradientUnits="userSpaceOnUse">
<stop stop-color="#3EA2F4"/>
<stop offset="0.630208"/>
<stop offset="1" stop-color="#423EF4"/>
</linearGradient>
<linearGradient id="paint15_linear_12295_157212" x1="7.02439" y1="36.6219" x2="7.86223" y2="29.3787" gradientUnits="userSpaceOnUse">
<stop stop-color="#A4ECDF"/>
<stop offset="1" stop-color="white" stop-opacity="0"/>
</linearGradient>
<linearGradient id="paint16_linear_12295_157212" x1="15.0014" y1="3.08338" x2="15.9162" y2="10.8699" gradientUnits="userSpaceOnUse">
<stop stop-color="#3EA2F4"/>
<stop offset="0.630208"/>
<stop offset="1" stop-color="#423EF4"/>
</linearGradient>
<linearGradient id="paint17_linear_12295_157212" x1="7.02439" y1="4.70624" x2="7.86223" y2="11.9495" gradientUnits="userSpaceOnUse">
<stop stop-color="#A4ECDF"/>
<stop offset="1" stop-color="white" stop-opacity="0"/>
</linearGradient>
<linearGradient id="paint18_linear_12295_157212" x1="15.0014" y1="38.9088" x2="15.9162" y2="31.1223" gradientUnits="userSpaceOnUse">
<stop stop-color="#3EA2F4"/>
<stop offset="0.630208"/>
<stop offset="1" stop-color="#423EF4"/>
</linearGradient>
<linearGradient id="paint19_linear_12295_157212" x1="7.0244" y1="37.2859" x2="7.86224" y2="30.0427" gradientUnits="userSpaceOnUse">
<stop stop-color="#A4ECDF"/>
<stop offset="1" stop-color="white" stop-opacity="0"/>
</linearGradient>
<linearGradient id="paint20_linear_12295_157212" x1="19.5009" y1="40.9778" x2="20.2568" y2="35.3946" gradientUnits="userSpaceOnUse">
<stop stop-color="#3EA2F4"/>
<stop offset="0.630208"/>
<stop offset="1" stop-color="#423EF4"/>
</linearGradient>
<linearGradient id="paint21_linear_12295_157212" x1="14.5152" y1="39.8089" x2="15.2076" y2="34.6147" gradientUnits="userSpaceOnUse">
<stop stop-color="#A4ECDF"/>
<stop offset="1" stop-color="white" stop-opacity="0"/>
</linearGradient>
<linearGradient id="paint22_linear_12295_157212" x1="15.0014" y1="2.41932" x2="15.9162" y2="10.2058" gradientUnits="userSpaceOnUse">
<stop stop-color="#3EA2F4"/>
<stop offset="0.630208"/>
<stop offset="1" stop-color="#423EF4"/>
</linearGradient>
<linearGradient id="paint23_linear_12295_157212" x1="7.0244" y1="4.04218" x2="7.86224" y2="11.2854" gradientUnits="userSpaceOnUse">
<stop stop-color="#A4ECDF"/>
<stop offset="1" stop-color="white" stop-opacity="0"/>
</linearGradient>
<radialGradient id="paint24_radial_12295_157212" cx="0" cy="0" r="1" gradientUnits="userSpaceOnUse" gradientTransform="translate(13.7096 1.00857) scale(40.0708 34.7033)">
<stop stop-color="#5ED7FF"/>
<stop offset="0.09" stop-color="#4CC1FF"/>
<stop offset="0.41" stop-color="#157FFF"/>
<stop offset="0.55" stop-color="#0066FF"/>
<stop offset="1" stop-color="#00348A"/>
</radialGradient>
<linearGradient id="paint25_linear_12295_157212" x1="27" y1="4.66406" x2="27" y2="36.6641" gradientUnits="userSpaceOnUse">
<stop stop-color="#777E90"/>
<stop offset="0.52" stop-color="#424242"/>
<stop offset="1" stop-color="#F8F8F8"/>
</linearGradient>
<linearGradient id="paint26_linear_12295_157212" x1="40.9967" y1="8.77879" x2="37.9412" y2="30.4512" gradientUnits="userSpaceOnUse">
<stop stop-color="#3EA2F4"/>
<stop offset="0.630208"/>
<stop offset="1" stop-color="#423EF4"/>
</linearGradient>
<linearGradient id="paint27_linear_12295_157212" x1="59.6098" y1="13.3228" x2="56.8109" y2="33.4867" gradientUnits="userSpaceOnUse">
<stop stop-color="#A4ECDF"/>
<stop offset="1" stop-color="white" stop-opacity="0"/>
</linearGradient>
</defs>
</svg>
