<svg width="54" height="44" viewBox="0 0 54 44" fill="none" xmlns="http://www.w3.org/2000/svg">
<path d="M27 11L32.59 14.3178L38.2583 17.5L38.18 24L38.2583 30.5L32.59 33.6822L27 37L21.41 33.6822L15.7417 30.5L15.82 24L15.7417 17.5L21.41 14.3178L27 11Z" fill="url(#paint0_linear_12295_157247)"/>
<g filter="url(#filter0_b_12295_157247)">
<path d="M28 6L39 12.3V15L28 8.7V6Z" fill="#D6E3F6"/>
<path d="M28.0355 8.67941V6.06127L38.9645 12.3206V14.9387L28.0355 8.67941Z" stroke="url(#paint1_linear_12295_157247)" stroke-width="0.0710275"/>
</g>
<g filter="url(#filter1_b_12295_157247)">
<path d="M26 6L15 12.3V15L26 8.7V6Z" fill="#D6E3F6"/>
<path d="M25.9645 8.67941V6.06127L15.0355 12.3206V14.9387L25.9645 8.67941Z" stroke="url(#paint2_linear_12295_157247)" stroke-width="0.0710275"/>
</g>
<path d="M33.6248 12.5135L33.6247 12.5136L33.6352 12.5195L40.3529 16.2907L40.26 23.994L40.2599 23.994L40.26 24.006L40.3529 31.7093L33.6352 35.4805L33.6352 35.4804L33.6248 35.4865L27 39.4186L20.3752 35.4865L20.3753 35.4864L20.3648 35.4805L13.6471 31.7093L13.74 24.006L13.7401 24.006L13.74 23.994L13.6471 16.2907L20.3648 12.5195L20.3648 12.5196L20.3752 12.5135L27 8.58144L33.6248 12.5135ZM40.3607 31.7049L40.3605 31.705L40.3607 31.7049ZM26.9923 39.4231C26.9924 39.4231 26.9924 39.4231 26.9924 39.4231L26.9923 39.4231Z" stroke="url(#paint3_linear_12295_157247)"/>
<g filter="url(#filter2_b_12295_157247)">
<path d="M26.7525 10.1469C26.9051 10.0563 27.0949 10.0563 27.2475 10.1469L33.02 13.5731L38.8734 16.8591C39.0281 16.946 39.123 17.1104 39.1209 17.2878L39.04 24L39.1209 30.7122C39.123 30.8896 39.0281 31.054 38.8734 31.1409L33.02 34.4269L27.2475 37.8531C27.0949 37.9437 26.9051 37.9437 26.7525 37.8531L20.98 34.4269L15.1266 31.1409C14.9719 31.054 14.877 30.8896 14.8791 30.7122L14.96 24L14.8791 17.2878C14.877 17.1104 14.9719 16.946 15.1266 16.8591L20.98 13.5731L26.7525 10.1469Z" fill="url(#paint4_linear_12295_157247)" fill-opacity="0.1"/>
<path d="M33.0019 13.6036L33.0026 13.604L38.856 16.8901C38.9994 16.9706 39.0874 17.123 39.0854 17.2874L39.0045 23.9996L39.0045 24.0004L39.0854 30.7126C39.0874 30.877 38.9994 31.0294 38.856 31.1099L33.0026 34.396L33.0019 34.3964L27.2294 37.8225C27.088 37.9065 26.912 37.9065 26.7706 37.8225L20.9981 34.3964L20.9974 34.396L15.144 31.1099C15.0006 31.0294 14.9126 30.877 14.9146 30.7126L14.9955 24.0004L14.9955 23.9996L14.9146 17.2874C14.9126 17.123 15.0006 16.9706 15.144 16.8901L20.9974 13.604L20.9974 13.604L20.9981 13.6036L26.7706 10.1774C26.912 10.0935 27.088 10.0935 27.2294 10.1774L33.0019 13.6036Z" stroke="url(#paint5_linear_12295_157247)" stroke-width="0.0710275"/>
</g>
<g filter="url(#filter3_b_12295_157247)">
<path d="M27 5L39 12V15L27 8V5Z" fill="url(#paint6_linear_12295_157247)" fill-opacity="0.1"/>
<path d="M27.0355 7.9796V5.06183L38.9645 12.0204V14.9382L27.0355 7.9796Z" stroke="url(#paint7_linear_12295_157247)" stroke-width="0.0710275"/>
</g>
<g filter="url(#filter4_b_12295_157247)">
<path d="M27 5L15 12V15L27 8V5Z" fill="url(#paint8_linear_12295_157247)" fill-opacity="0.1"/>
<path d="M26.9645 7.9796V5.06183L15.0355 12.0204V14.9382L26.9645 7.9796Z" stroke="url(#paint9_linear_12295_157247)" stroke-width="0.0710275"/>
</g>
<g filter="url(#filter5_b_12295_157247)">
<path d="M27 3L35 7.66667V11.3307L27 6.66406V3Z" fill="url(#paint10_linear_12295_157247)" fill-opacity="0.1"/>
<path d="M27.0355 6.64366V3.06183L34.9645 7.68706V11.2689L27.0355 6.64366Z" stroke="url(#paint11_linear_12295_157247)" stroke-width="0.0710275"/>
</g>
<g filter="url(#filter6_b_12295_157247)">
<path d="M27 3L19 7.66667V11.3307L27 6.66406V3Z" fill="url(#paint12_linear_12295_157247)" fill-opacity="0.1"/>
<path d="M26.9645 6.64366V3.06183L19.0355 7.68706V11.2689L26.9645 6.64366Z" stroke="url(#paint13_linear_12295_157247)" stroke-width="0.0710275"/>
</g>
<g filter="url(#filter7_d_12295_157247)">
<path d="M26.7925 29.216C25.9405 29.216 25.2205 29.108 24.6325 28.892C24.0445 28.664 23.5525 28.364 23.1565 27.992C22.7605 27.62 22.4245 27.224 22.1485 26.804L24.1465 25.256C24.4225 25.772 24.7645 26.198 25.1725 26.534C25.5805 26.858 26.1205 27.02 26.7925 27.02C27.4045 27.02 27.8785 26.864 28.2145 26.552C28.5625 26.24 28.7365 25.826 28.7365 25.31V25.202C28.7365 24.686 28.5385 24.302 28.1425 24.05C27.7585 23.786 27.2245 23.654 26.5405 23.654H25.4065V21.404H26.5765C27.2485 21.404 27.7345 21.278 28.0345 21.026C28.3465 20.762 28.5025 20.438 28.5025 20.054V19.928C28.5025 19.472 28.3525 19.106 28.0525 18.83C27.7525 18.554 27.3385 18.416 26.8105 18.416C26.3065 18.416 25.8325 18.548 25.3885 18.812C24.9445 19.064 24.5665 19.43 24.2545 19.91L22.5625 18.326C22.8865 17.906 23.2465 17.54 23.6425 17.228C24.0385 16.916 24.5005 16.67 25.0285 16.49C25.5565 16.31 26.1805 16.22 26.9005 16.22C27.8005 16.22 28.5805 16.358 29.2405 16.634C29.9125 16.91 30.4285 17.3 30.7885 17.804C31.1605 18.296 31.3465 18.878 31.3465 19.55C31.3465 20.354 31.1065 20.996 30.6265 21.476C30.1585 21.956 29.6005 22.256 28.9525 22.376V22.484C29.4565 22.568 29.9005 22.742 30.2845 23.006C30.6805 23.258 30.9925 23.594 31.2205 24.014C31.4485 24.434 31.5625 24.932 31.5625 25.508C31.5625 26.252 31.3585 26.906 30.9505 27.47C30.5545 28.022 29.9965 28.454 29.2765 28.766C28.5685 29.066 27.7405 29.216 26.7925 29.216Z" fill="white"/>
</g>
<defs>
<filter id="filter0_b_12295_157247" x="25.7716" y="3.77159" width="15.4568" height="13.4568" filterUnits="userSpaceOnUse" color-interpolation-filters="sRGB">
<feFlood flood-opacity="0" result="BackgroundImageFix"/>
<feGaussianBlur in="BackgroundImageFix" stdDeviation="1.1142"/>
<feComposite in2="SourceAlpha" operator="in" result="effect1_backgroundBlur_12295_157247"/>
<feBlend mode="normal" in="SourceGraphic" in2="effect1_backgroundBlur_12295_157247" result="shape"/>
</filter>
<filter id="filter1_b_12295_157247" x="12.7716" y="3.77159" width="15.4568" height="13.4568" filterUnits="userSpaceOnUse" color-interpolation-filters="sRGB">
<feFlood flood-opacity="0" result="BackgroundImageFix"/>
<feGaussianBlur in="BackgroundImageFix" stdDeviation="1.1142"/>
<feComposite in2="SourceAlpha" operator="in" result="effect1_backgroundBlur_12295_157247"/>
<feBlend mode="normal" in="SourceGraphic" in2="effect1_backgroundBlur_12295_157247" result="shape"/>
</filter>
<filter id="filter2_b_12295_157247" x="12.6507" y="7.85069" width="28.6985" height="32.2986" filterUnits="userSpaceOnUse" color-interpolation-filters="sRGB">
<feFlood flood-opacity="0" result="BackgroundImageFix"/>
<feGaussianBlur in="BackgroundImageFix" stdDeviation="1.1142"/>
<feComposite in2="SourceAlpha" operator="in" result="effect1_backgroundBlur_12295_157247"/>
<feBlend mode="normal" in="SourceGraphic" in2="effect1_backgroundBlur_12295_157247" result="shape"/>
</filter>
<filter id="filter3_b_12295_157247" x="24.7716" y="2.77159" width="16.4568" height="14.4568" filterUnits="userSpaceOnUse" color-interpolation-filters="sRGB">
<feFlood flood-opacity="0" result="BackgroundImageFix"/>
<feGaussianBlur in="BackgroundImageFix" stdDeviation="1.1142"/>
<feComposite in2="SourceAlpha" operator="in" result="effect1_backgroundBlur_12295_157247"/>
<feBlend mode="normal" in="SourceGraphic" in2="effect1_backgroundBlur_12295_157247" result="shape"/>
</filter>
<filter id="filter4_b_12295_157247" x="12.7716" y="2.77159" width="16.4568" height="14.4568" filterUnits="userSpaceOnUse" color-interpolation-filters="sRGB">
<feFlood flood-opacity="0" result="BackgroundImageFix"/>
<feGaussianBlur in="BackgroundImageFix" stdDeviation="1.1142"/>
<feComposite in2="SourceAlpha" operator="in" result="effect1_backgroundBlur_12295_157247"/>
<feBlend mode="normal" in="SourceGraphic" in2="effect1_backgroundBlur_12295_157247" result="shape"/>
</filter>
<filter id="filter5_b_12295_157247" x="24.7716" y="0.771593" width="12.4568" height="12.7879" filterUnits="userSpaceOnUse" color-interpolation-filters="sRGB">
<feFlood flood-opacity="0" result="BackgroundImageFix"/>
<feGaussianBlur in="BackgroundImageFix" stdDeviation="1.1142"/>
<feComposite in2="SourceAlpha" operator="in" result="effect1_backgroundBlur_12295_157247"/>
<feBlend mode="normal" in="SourceGraphic" in2="effect1_backgroundBlur_12295_157247" result="shape"/>
</filter>
<filter id="filter6_b_12295_157247" x="16.7716" y="0.771593" width="12.4568" height="12.7879" filterUnits="userSpaceOnUse" color-interpolation-filters="sRGB">
<feFlood flood-opacity="0" result="BackgroundImageFix"/>
<feGaussianBlur in="BackgroundImageFix" stdDeviation="1.1142"/>
<feComposite in2="SourceAlpha" operator="in" result="effect1_backgroundBlur_12295_157247"/>
<feBlend mode="normal" in="SourceGraphic" in2="effect1_backgroundBlur_12295_157247" result="shape"/>
</filter>
<filter id="filter7_d_12295_157247" x="22.1484" y="16.2197" width="9.41406" height="14.3692" filterUnits="userSpaceOnUse" color-interpolation-filters="sRGB">
<feFlood flood-opacity="0" result="BackgroundImageFix"/>
<feColorMatrix in="SourceAlpha" type="matrix" values="0 0 0 0 0 0 0 0 0 0 0 0 0 0 0 0 0 0 127 0" result="hardAlpha"/>
<feOffset dy="1.37313"/>
<feComposite in2="hardAlpha" operator="out"/>
<feColorMatrix type="matrix" values="0 0 0 0 0 0 0 0 0 0 0 0 0 0 0 0 0 0 0.25 0"/>
<feBlend mode="normal" in2="BackgroundImageFix" result="effect1_dropShadow_12295_157247"/>
<feBlend mode="normal" in="SourceGraphic" in2="effect1_dropShadow_12295_157247" result="shape"/>
</filter>
<linearGradient id="paint0_linear_12295_157247" x1="27" y1="11" x2="27" y2="37" gradientUnits="userSpaceOnUse">
<stop stop-color="#04DB74"/>
<stop offset="0.307292" stop-color="#4EFDA9"/>
<stop offset="0.609375" stop-color="#07DCD0"/>
<stop offset="1" stop-color="#07DCDC"/>
</linearGradient>
<linearGradient id="paint1_linear_12295_157247" x1="46.311" y1="8.1403" x2="45.5703" y2="14.6623" gradientUnits="userSpaceOnUse">
<stop stop-color="#A4ECDF"/>
<stop offset="1" stop-color="white" stop-opacity="0"/>
</linearGradient>
<linearGradient id="paint2_linear_12295_157247" x1="7.68902" y1="8.1403" x2="8.42972" y2="14.6623" gradientUnits="userSpaceOnUse">
<stop stop-color="#A4ECDF"/>
<stop offset="1" stop-color="white" stop-opacity="0"/>
</linearGradient>
<linearGradient id="paint3_linear_12295_157247" x1="27" y1="8" x2="27" y2="40" gradientUnits="userSpaceOnUse">
<stop stop-color="#777E90"/>
<stop offset="0.52" stop-color="#424242"/>
<stop offset="1" stop-color="#F8F8F8"/>
</linearGradient>
<linearGradient id="paint4_linear_12295_157247" x1="40.9967" y1="12.1147" x2="37.9412" y2="33.7872" gradientUnits="userSpaceOnUse">
<stop stop-color="#3EA2F4"/>
<stop offset="0.630208"/>
<stop offset="1" stop-color="#423EF4"/>
</linearGradient>
<linearGradient id="paint5_linear_12295_157247" x1="59.6098" y1="16.6587" x2="56.8109" y2="36.8226" gradientUnits="userSpaceOnUse">
<stop stop-color="#A4ECDF"/>
<stop offset="1" stop-color="white" stop-opacity="0"/>
</linearGradient>
<linearGradient id="paint6_linear_12295_157247" x1="38.9986" y1="5.75526" x2="38.0838" y2="13.5418" gradientUnits="userSpaceOnUse">
<stop stop-color="#3EA2F4"/>
<stop offset="0.630208"/>
<stop offset="1" stop-color="#423EF4"/>
</linearGradient>
<linearGradient id="paint7_linear_12295_157247" x1="46.9756" y1="7.37811" x2="46.1378" y2="14.6213" gradientUnits="userSpaceOnUse">
<stop stop-color="#A4ECDF"/>
<stop offset="1" stop-color="white" stop-opacity="0"/>
</linearGradient>
<linearGradient id="paint8_linear_12295_157247" x1="15.0014" y1="5.75526" x2="15.9162" y2="13.5418" gradientUnits="userSpaceOnUse">
<stop stop-color="#3EA2F4"/>
<stop offset="0.630208"/>
<stop offset="1" stop-color="#423EF4"/>
</linearGradient>
<linearGradient id="paint9_linear_12295_157247" x1="7.02439" y1="7.37811" x2="7.86223" y2="14.6213" gradientUnits="userSpaceOnUse">
<stop stop-color="#A4ECDF"/>
<stop offset="1" stop-color="white" stop-opacity="0"/>
</linearGradient>
<linearGradient id="paint10_linear_12295_157247" x1="38.9986" y1="4.41932" x2="38.0838" y2="12.2058" gradientUnits="userSpaceOnUse">
<stop stop-color="#3EA2F4"/>
<stop offset="0.630208"/>
<stop offset="1" stop-color="#423EF4"/>
</linearGradient>
<linearGradient id="paint11_linear_12295_157247" x1="46.9756" y1="6.04218" x2="46.1378" y2="13.2854" gradientUnits="userSpaceOnUse">
<stop stop-color="#A4ECDF"/>
<stop offset="1" stop-color="white" stop-opacity="0"/>
</linearGradient>
<linearGradient id="paint12_linear_12295_157247" x1="15.0014" y1="4.41932" x2="15.9162" y2="12.2058" gradientUnits="userSpaceOnUse">
<stop stop-color="#3EA2F4"/>
<stop offset="0.630208"/>
<stop offset="1" stop-color="#423EF4"/>
</linearGradient>
<linearGradient id="paint13_linear_12295_157247" x1="7.0244" y1="6.04218" x2="7.86224" y2="13.2854" gradientUnits="userSpaceOnUse">
<stop stop-color="#A4ECDF"/>
<stop offset="1" stop-color="white" stop-opacity="0"/>
</linearGradient>
</defs>
</svg>
