<svg width="40" height="40" viewBox="0 0 40 40" fill="none" xmlns="http://www.w3.org/2000/svg">
<g clip-path="url(#clip0_4106_90602)">
<path d="M20 40C31.0457 40 40 31.0457 40 20C40 8.9543 31.0457 0 20 0C8.9543 0 0 8.9543 0 20C0 31.0457 8.9543 40 20 40Z" fill="#FF0420"/>
<path d="M14.1654 25.305C13.1251 25.3476 12.099 25.052 11.2408 24.4624C10.8698 24.1794 10.5732 23.8103 10.3767 23.387C10.1802 22.9637 10.0897 22.499 10.113 22.0329C10.12 21.7616 10.1452 21.491 10.1884 21.2231C10.3195 20.5017 10.5162 19.6362 10.7457 18.6263C11.4233 15.8766 13.1785 14.5017 16.0113 14.5017C16.7203 14.4896 17.4243 14.6223 18.0802 14.8919C18.664 15.1199 19.1664 15.5173 19.5228 16.0329C19.8811 16.5635 20.0646 17.1929 20.0474 17.8329C20.0403 18.0988 20.0151 18.3639 19.972 18.6263C19.8211 19.5181 19.6408 20.3837 19.431 21.2231C19.0813 22.5935 18.4758 23.6187 17.6146 24.2985C16.7534 24.9782 15.6037 25.3138 14.1654 25.305ZM14.3752 23.1444C14.8949 23.1571 15.4015 22.9812 15.8015 22.6493C16.2418 22.2492 16.5418 21.7182 16.6572 21.1345C16.8867 20.1946 17.0616 19.3739 17.1818 18.6722C17.2217 18.4559 17.2414 18.2364 17.2408 18.0165C17.2408 17.1094 16.7654 16.6548 15.8146 16.6526C15.2911 16.6408 14.7807 16.8164 14.3752 17.1476C13.9372 17.5578 13.6429 18.0981 13.5359 18.6886C13.3556 19.3444 13.1752 20.1804 12.9949 21.1509C12.9555 21.3584 12.9357 21.5692 12.9359 21.7804C12.9359 22.6821 13.4146 23.1444 14.3752 23.1444Z" fill="white"/>
<path d="M20.7404 25.1537C20.6927 25.1559 20.6451 25.1477 20.6009 25.1295C20.5567 25.1114 20.517 25.0839 20.4846 25.0488C20.4596 25.0093 20.4426 24.9651 20.4347 24.919C20.4269 24.8728 20.4282 24.8256 20.4387 24.78L22.5108 15.0259C22.5191 14.9724 22.5378 14.9212 22.566 14.8751C22.5941 14.8289 22.6311 14.7888 22.6748 14.757C22.754 14.6887 22.8554 14.6514 22.96 14.6521H26.9502C27.889 14.6059 28.8197 14.846 29.619 15.3406C29.948 15.5562 30.2152 15.8536 30.3946 16.2037C30.5739 16.5537 30.6592 16.9444 30.642 17.3373C30.6393 17.6 30.6086 17.8616 30.5502 18.1177C30.3824 19.124 29.8416 20.0301 29.0354 20.6554C28.2846 21.2062 27.2551 21.4783 25.9436 21.4783H23.9371L23.2453 24.757C23.2273 24.8644 23.1685 24.9607 23.0813 25.0259C23.0013 25.0929 22.9005 25.13 22.7961 25.1308L20.7404 25.1537ZM26.0518 19.4226C26.4444 19.4285 26.8284 19.3078 27.1469 19.0783C27.4704 18.8388 27.6944 18.4887 27.7764 18.0947C27.8031 17.9453 27.8184 17.794 27.8223 17.6422C27.8295 17.521 27.8103 17.3996 27.7662 17.2864C27.7221 17.1732 27.654 17.0709 27.5666 16.9865C27.3163 16.8 27.0049 16.7146 26.6945 16.7472H24.8944L24.324 19.4324L26.0518 19.4226Z" fill="white"/>
</g>
<defs>
<clipPath id="clip0_4106_90602">
<rect width="40" height="40" fill="white"/>
</clipPath>
</defs>
</svg>
