<svg width="24" height="24" viewBox="0 0 24 24" fill="none" xmlns="http://www.w3.org/2000/svg">
<g id="Frame">
<path id="Vector" d="M21.3571 4.8927C21.1134 4.64891 20.824 4.45553 20.5055 4.3236C20.187 4.19166 19.8456 4.12376 19.5009 4.12376C19.1561 4.12376 18.8148 4.19166 18.4963 4.3236C18.1778 4.45553 17.8884 4.64891 17.6446 4.8927C17.5022 5.03417 17.3764 5.19144 17.2696 5.36145L13.8749 4.43707C13.863 3.92313 13.7004 3.42401 13.4073 3.00164C13.1143 2.57927 12.7037 2.25225 12.2264 2.06115C11.7492 1.87005 11.2263 1.82329 10.7227 1.92668C10.2192 2.03006 9.75703 2.27903 9.39368 2.6427C9.01044 3.02577 8.75515 3.51806 8.66283 4.052C8.57051 4.58594 8.64569 5.13537 8.87805 5.62488L5.1168 9.00926C4.61418 8.7024 4.02297 8.57346 3.43821 8.64318C2.85346 8.71289 2.30914 8.97721 1.89274 9.39363C1.42297 9.86396 1.14914 10.495 1.12652 11.1594C1.1039 11.8237 1.33419 12.4719 1.77088 12.9731C2.20758 13.4743 2.81816 13.7912 3.47937 13.8597C4.14058 13.9282 4.80316 13.7434 5.33337 13.3424L12.5287 18.6186C12.3708 19.0611 12.3346 19.5378 12.4237 19.9991C12.5129 20.4603 12.7243 20.8892 13.0357 21.2409C13.3471 21.5927 13.7473 21.8544 14.1943 21.9988C14.6414 22.1431 15.119 22.1649 15.5773 22.0617C16.0357 21.9586 16.4579 21.7343 16.8 21.4124C17.1421 21.0904 17.3916 20.6825 17.5223 20.2313C17.6531 19.78 17.6603 19.302 17.5433 18.847C17.4263 18.392 17.1893 17.9768 16.8571 17.6446C16.7602 17.5477 16.6559 17.4587 16.5449 17.3783L19.3715 9.37488C19.4146 9.37488 19.4577 9.37488 19.5009 9.37488C20.0199 9.37474 20.5272 9.22074 20.9587 8.93235C21.3902 8.64396 21.7266 8.23412 21.9252 7.75463C22.1239 7.27515 22.1759 6.74753 22.0748 6.23846C21.9737 5.7294 21.7239 5.26173 21.3571 4.89457V4.8927ZM15.1302 16.8796C14.5143 16.8489 13.9073 17.0361 13.4156 17.4083L6.22118 12.1321C6.45377 11.476 6.41772 10.7545 6.12087 10.1249L9.88212 6.73957C10.4732 7.1004 11.183 7.213 11.8568 7.05285C12.5306 6.89271 13.1138 6.47278 13.4793 5.88457L16.8749 6.81176C16.8893 7.486 17.1637 8.12858 17.6409 8.6052C17.7376 8.70207 17.8417 8.7914 17.9521 8.87238L15.1302 16.8796Z" fill="#FCFCFD"/>
</g>
</svg>
