<?xml version="1.0" standalone="no"?>
<!DOCTYPE svg PUBLIC "-//W3C//DTD SVG 20010904//EN"
 "http://www.w3.org/TR/2001/REC-SVG-20010904/DTD/svg10.dtd">
<svg version="1.0" xmlns="http://www.w3.org/2000/svg"
 width="816.000000pt" height="816.000000pt" viewBox="0 0 816.000000 816.000000"
 preserveAspectRatio="xMidYMid meet">
<metadata>
Created by potrace 1.14, written by Peter Selinger 2001-2017
</metadata>
<g transform="translate(0.000000,816.000000) scale(0.100000,-0.100000)"
fill="#000000" stroke="none">
<path d="M3315 7362 c-2 -2 -52 -6 -112 -8 -129 -4 -237 -15 -388 -39 -64 -10
-78 -13 -105 -19 -14 -3 -36 -8 -50 -10 -40 -8 -66 -14 -133 -31 -34 -9 -69
-18 -77 -20 -158 -38 -410 -136 -614 -240 -177 -89 -178 -90 -259 -141 -37
-24 -72 -44 -77 -44 -6 0 -10 -4 -10 -10 0 -5 -7 -10 -15 -10 -8 0 -15 -4 -15
-8 0 -5 -10 -14 -22 -19 -13 -6 -32 -18 -43 -27 -11 -9 -47 -36 -80 -61 -83
-63 -125 -96 -151 -120 -13 -11 -46 -40 -75 -65 -57 -50 -218 -209 -263 -262
-91 -105 -166 -198 -166 -207 0 -5 -4 -11 -8 -13 -21 -8 -211 -292 -212 -315
0 -6 -3 -13 -8 -15 -18 -8 -143 -260 -204 -412 -53 -134 -96 -265 -133 -406
-21 -78 -64 -312 -71 -385 -2 -22 -7 -69 -11 -105 -15 -129 -6 -669 12 -700 1
-3 6 -30 10 -60 11 -87 13 -97 19 -127 4 -15 9 -41 12 -58 21 -121 105 -399
173 -569 28 -69 146 -315 171 -356 178 -291 222 -354 378 -540 117 -139 454
-452 540 -500 15 -8 34 -22 42 -30 20 -21 215 -145 315 -202 115 -64 303 -153
420 -197 33 -13 69 -27 80 -31 19 -8 119 -41 140 -46 6 -2 35 -10 65 -19 30
-9 93 -25 140 -36 115 -27 121 -28 155 -34 17 -3 37 -8 45 -10 9 -3 34 -7 55
-10 22 -2 58 -7 80 -10 83 -12 113 -15 205 -21 153 -10 332 -11 377 -1 77 15
139 100 148 202 2 30 21 133 25 138 1 1 3 11 4 22 2 11 6 45 11 75 4 30 9 58
11 61 2 3 6 25 9 48 3 24 7 52 10 64 3 12 7 33 9 47 3 24 9 59 22 125 33 175
33 194 1 263 -13 27 -68 71 -100 79 -12 3 -107 6 -212 8 -172 2 -335 10 -389
21 -270 51 -393 90 -596 186 -47 23 -93 48 -104 57 -10 9 -21 15 -25 14 -10
-2 -221 138 -221 147 0 5 -9 11 -19 15 -25 8 -274 252 -337 330 -27 33 -67 87
-89 120 -22 33 -42 62 -45 65 -23 21 -179 321 -184 353 -1 7 -7 21 -13 32 -10
20 -53 144 -53 157 -1 4 -7 26 -15 48 -8 22 -14 42 -15 45 0 3 0 6 -1 8 0 1
-2 9 -4 17 -1 8 -8 40 -14 70 -36 175 -45 262 -45 455 0 142 6 249 18 310 2
11 7 40 11 65 14 84 16 95 31 155 51 200 150 444 237 582 15 24 27 47 27 53 0
5 3 10 8 10 4 0 16 17 27 37 11 20 25 41 30 47 6 6 23 29 40 51 307 414 781
711 1275 799 47 8 101 18 120 22 19 3 334 8 699 11 723 5 695 2 750 61 30 32
48 75 56 132 3 25 8 52 10 60 2 8 6 31 9 50 3 19 8 46 10 60 3 14 12 68 21
120 18 102 23 125 25 125 1 0 3 14 5 30 4 36 13 90 20 128 41 215 38 257 -25
315 -46 43 -102 55 -230 51 -8 0 -41 1 -72 2 -32 2 -60 0 -63 -3 -3 -3 -24 -2
-45 2 -22 4 -43 4 -45 -1 -3 -4 -18 -4 -33 0 -15 5 -36 5 -47 1 -11 -4 -23 -6
-27 -3 -12 6 -117 8 -123 1 -3 -3 -22 -2 -43 1 -20 4 -46 6 -57 5 -11 -2 -32
-3 -47 -3 -16 -1 -40 -1 -55 -2 -16 -1 -37 -1 -48 -1 -11 0 -36 1 -55 1 -57 1
-73 1 -128 4 -28 1 -52 -1 -52 -5 0 -4 -6 -5 -12 -3 -17 6 -118 12 -123 7z"/>
<path d="M5049 6207 c-55 -14 -114 -71 -125 -119 -1 -5 -2 -9 -3 -10 -2 -3 -6
-24 -16 -93 -1 -11 -3 -20 -5 -20 -1 0 -3 -9 -4 -20 -2 -11 -6 -45 -11 -75 -4
-30 -8 -57 -10 -60 -2 -3 -6 -26 -10 -50 -3 -25 -8 -52 -10 -60 -3 -8 -7 -34
-10 -57 -2 -23 -9 -61 -14 -85 -28 -126 -31 -195 -9 -238 17 -34 63 -78 96
-92 19 -8 202 -12 627 -13 588 -2 667 -5 733 -24 18 -5 33 -10 35 -9 14 1 79
-16 83 -23 3 -5 9 -7 13 -5 15 10 208 -93 282 -150 233 -180 371 -408 435
-719 15 -76 21 -260 10 -340 -14 -100 -18 -121 -43 -205 -26 -91 -110 -280
-125 -280 -4 0 -8 -6 -8 -14 0 -8 -6 -21 -12 -28 -7 -7 -32 -38 -56 -69 -114
-151 -254 -254 -477 -350 -23 -10 -127 -38 -170 -45 -16 -3 -410 -7 -875 -10
-465 -2 -856 -5 -870 -7 -84 -12 -140 -70 -155 -160 -3 -18 -8 -39 -10 -47 -2
-8 -7 -33 -10 -55 -3 -23 -8 -52 -10 -65 -3 -14 -8 -38 -11 -55 -2 -16 -16
-93 -30 -170 -15 -77 -27 -151 -29 -165 -2 -21 -33 -191 -49 -276 -3 -12 -7
-39 -11 -60 -6 -42 -12 -76 -19 -111 -3 -11 -8 -43 -12 -70 -3 -26 -9 -57 -11
-68 -3 -11 -6 -29 -8 -40 -2 -11 -8 -49 -15 -85 -7 -36 -14 -76 -16 -90 -1
-14 -6 -43 -9 -65 -4 -22 -9 -49 -10 -60 -2 -11 -4 -20 -5 -20 -1 0 -3 -16 -6
-35 -5 -39 -12 -75 -14 -75 -1 0 -3 -13 -5 -30 -2 -16 -6 -43 -9 -60 -14 -75
-17 -117 -10 -133 4 -9 8 -19 9 -22 22 -69 85 -113 167 -116 33 -2 62 -5 65
-8 3 -2 15 -1 27 3 11 5 30 5 41 1 11 -4 32 -4 46 0 15 4 32 4 39 0 7 -5 22
-5 34 -1 11 5 35 5 53 1 18 -5 35 -4 38 0 3 4 20 4 39 0 19 -4 40 -4 47 0 7 5
22 5 34 0 12 -5 27 -5 34 0 7 4 27 4 45 1 17 -4 40 -6 51 -5 28 3 67 5 85 3
84 -6 172 23 213 71 18 21 41 108 51 190 7 56 15 115 21 160 6 33 10 66 20
138 3 17 7 47 10 65 5 31 9 60 20 142 6 46 13 97 20 140 3 17 7 47 10 68 6 46
27 89 58 118 50 48 62 49 495 51 224 0 434 4 467 8 117 15 168 22 189 26 12 3
30 7 41 9 44 10 62 15 115 30 30 9 66 18 79 21 13 3 37 12 52 20 16 8 30 14
31 13 11 -3 128 48 223 97 98 50 145 78 210 123 101 70 110 76 115 81 3 3 28
23 55 45 139 110 362 369 459 531 98 164 195 388 232 533 2 9 13 52 24 96 11
44 22 96 25 115 3 20 7 45 9 55 28 143 28 597 0 668 -2 7 -6 28 -8 47 -5 42
-11 69 -37 175 -19 75 -27 102 -45 150 -4 11 -8 23 -9 28 -2 4 -4 9 -5 12 -1
3 -3 8 -5 13 -18 65 -134 301 -192 392 -41 63 -89 134 -120 175 -68 90 -254
282 -322 333 -20 15 -45 35 -56 45 -24 22 -240 167 -249 167 -4 0 -24 11 -45
24 -21 14 -41 23 -43 20 -3 -2 -11 2 -18 11 -7 8 -17 15 -22 15 -5 0 -33 11
-62 24 -96 44 -297 110 -371 122 -11 1 -31 6 -45 9 -37 9 -94 17 -210 31 -80
10 -1184 10 -1221 1z"/>
<path d="M3150 5209 c-19 -4 -50 -11 -69 -14 -55 -9 -85 -17 -97 -26 -6 -5
-19 -10 -30 -12 -10 -1 -50 -17 -88 -35 -37 -18 -72 -32 -76 -32 -5 0 -10 -3
-12 -7 -1 -5 -32 -28 -68 -52 -97 -67 -219 -188 -278 -277 -85 -130 -133 -236
-172 -384 -42 -155 -44 -380 -6 -550 30 -136 121 -344 182 -415 13 -15 24 -32
24 -36 0 -17 180 -190 245 -235 90 -62 237 -133 307 -148 13 -3 41 -10 63 -16
73 -18 157 -23 435 -24 288 -2 325 2 377 37 51 35 70 83 97 252 7 40 15 84 21
115 2 13 7 42 10 65 4 22 11 57 16 78 5 20 7 42 4 47 -3 5 -1 11 5 15 6 4 8
10 6 14 -3 4 -1 23 4 42 5 19 12 54 15 79 3 25 8 52 10 60 2 8 6 29 9 45 3 17
8 45 11 63 3 17 7 47 10 65 3 17 12 68 21 112 8 44 17 96 20 115 2 19 9 55 14
80 5 25 19 99 30 165 11 66 22 130 24 141 2 12 7 39 10 60 4 22 8 46 11 54 2
8 6 33 10 55 10 71 29 176 40 225 24 108 14 176 -33 226 -58 62 -32 59 -572
60 -272 0 -511 -3 -530 -7z"/>
</g>
</svg>
