<svg width="256" height="256" fill="none" xmlns="http://www.w3.org/2000/svg"><circle cx="128" cy="128" r="128" fill="#000"/><path fill-rule="evenodd" clip-rule="evenodd" d="M140 68c10-1 18-3 29 2 10 5 19 16 19 27 0 12-1 23-12 31-12 9-31 13-46 4l-7-5c-2-2-5-5-7-5-3 2-2 6-2 12 3-2 8-2 8 3 0 9-23 7-23-3 0-4-1-8 7-4v-9c-3 1-14 10-34 4-9-2-21-11-21-21l-2 1-4 9c-10 29-10 55-7 86 1 7 0 5 7 12a117 117 0 0 0 144 18c14-8 30-23 38-36l-8-15c-4-8-17-30-19-38l-3-9c-4-8-5-6-5-18l-1-22c0-14-2-30-7-39l-13 2-27 10-3 2-1 1Z" fill="#FEFEFE"/><path fill-rule="evenodd" clip-rule="evenodd" d="M29 193c-2-20 1-65 9-82 10-21 21-41 39-54 11-8 19-11 30-17 3-3 6-5 11-5l13 26 23-9c7-2 34-13 38-7 2 3 5 22 5 27 2 12 2 43 4 49l3 9c3 12 10 23 16 33l11 22h1a119 119 0 0 0-75-171c-8-2-25-5-35-4-14 2-18 2-33 7a119 119 0 0 0-73 150c2 6 9 22 13 26Z" fill="#ED3024"/><path fill-rule="evenodd" clip-rule="evenodd" d="m3 104 1-3-1 3ZM146 130c18 0 35-13 35-28 0-8-1-14-8-20-9-7-13-7-22-7-7 0-16 4-20 7-12 8-16 27-4 39 3 3 13 9 19 9ZM57 95c0 9 1 16 11 21 23 14 46-6 46-24 0-5-7-13-10-16-6-3-15-5-23-5s-12 4-16 8c-2 3-8 11-8 16Z" fill="#FEFEFE"/><path fill-rule="evenodd" clip-rule="evenodd" d="M81 65c33-2 31 13 38 19l9-11c-7-4-3-11-14-28-9 3-30 14-33 20Z" fill="#FEFEFE"/><path fill-rule="evenodd" clip-rule="evenodd" d="M152 111c2-4 0-8-5-8-6 0-4 13 5 8ZM88 99c0 9 9 9 9 0 0-3-9-4-9 0Z" fill="#000"/></svg>