<?xml version="1.0" encoding="UTF-8"?>
<svg version="1.1" xmlns="http://www.w3.org/2000/svg" width="200" height="200">
<path d="M0 0 C1.25296875 0.4125 2.5059375 0.825 3.796875 1.25 C28.74462541 10.06760046 48.21993996 28.50355897 60.08447266 52.01074219 C70.70512729 75.08730057 73.09510894 102.81586203 65 127 C64.5875 128.25296875 64.175 129.5059375 63.75 130.796875 C54.93239954 155.74462541 36.49644103 175.21993996 12.98925781 187.08447266 C-10.08730057 197.70512729 -37.81586203 200.09510894 -62 192 C-63.87945312 191.38125 -63.87945312 191.38125 -65.796875 190.75 C-90.74462541 181.93239954 -110.21993996 163.49644103 -122.08447266 139.98925781 C-132.70512729 116.91269943 -135.09510894 89.18413797 -127 65 C-126.5875 63.74703125 -126.175 62.4940625 -125.75 61.203125 C-116.93239954 36.25537459 -98.49644103 16.78006004 -74.98925781 4.91552734 C-51.91269943 -5.70512729 -24.18413797 -8.09510894 0 0 Z " fill="#A7EFF2" transform="translate(131,4)"/>
<path d="M0 0 C1.25296875 0.4125 2.5059375 0.825 3.796875 1.25 C28.74462541 10.06760046 48.21993996 28.50355897 60.08447266 52.01074219 C70.70512729 75.08730057 73.09510894 102.81586203 65 127 C64.5875 128.25296875 64.175 129.5059375 63.75 130.796875 C54.93239954 155.74462541 36.49644103 175.21993996 12.98925781 187.08447266 C-10.08730057 197.70512729 -37.81586203 200.09510894 -62 192 C-63.87945312 191.38125 -63.87945312 191.38125 -65.796875 190.75 C-90.74462541 181.93239954 -110.21993996 163.49644103 -122.08447266 139.98925781 C-132.70512729 116.91269943 -135.09510894 89.18413797 -127 65 C-126.5875 63.74703125 -126.175 62.4940625 -125.75 61.203125 C-116.93239954 36.25537459 -98.49644103 16.78006004 -74.98925781 4.91552734 C-51.91269943 -5.70512729 -24.18413797 -8.09510894 0 0 Z M-54.21484375 27.03515625 C-59.30754451 30.02456186 -59.30754451 30.02456186 -62.86328125 29.8984375 C-65 29 -65 29 -67.0625 26.875 C-68.79797125 24.77445011 -68.79797125 24.77445011 -71.0625 24.9375 C-73.91869221 26.50379896 -74.63864233 28.02976508 -76 31 C-76.21772572 32.47781336 -76.42528931 33.95714449 -76.625 35.4375 C-77.43139644 39.42982336 -78.61909944 40.9335663 -82 43.1875 C-83.65069265 44.15284853 -85.31853324 45.0893115 -87 46 C-88.77628582 47.01131601 -90.5472173 48.03209795 -92.3125 49.0625 C-93.11300781 49.50722656 -93.91351563 49.95195313 -94.73828125 50.41015625 C-97.54129242 52.38049398 -99.11942151 54.11436636 -101 57 C-101.38717415 59.80559357 -101.54818021 62.21530603 -101.51757812 65.015625 C-101.5245874 65.80811646 -101.53159668 66.60060791 -101.53881836 67.41711426 C-101.55637792 70.02843596 -101.54478337 72.63866788 -101.53125 75.25 C-101.53394551 77.06933805 -101.53782843 78.88867469 -101.54284668 80.70800781 C-101.54873895 84.51771789 -101.5401876 88.32705239 -101.52148438 92.13671875 C-101.49869488 97.01611223 -101.51181943 101.89462562 -101.53577423 106.77398682 C-101.5502396 110.52985241 -101.54562285 114.28550991 -101.53526306 118.04138184 C-101.53259781 119.8402924 -101.53585844 121.63922197 -101.54518127 123.43811035 C-101.55535922 125.95403978 -101.53982961 128.46855101 -101.51757812 130.984375 C-101.52972351 132.09576843 -101.52972351 132.09576843 -101.54211426 133.22961426 C-101.46231187 138.10867519 -100.45729757 140.57131101 -97 144 C-94.24697138 146.02342062 -94.24697138 146.02342062 -91.125 147.8125 C-90.55765137 148.151604 -89.99030273 148.49070801 -89.40576172 148.84008789 C-84.76699528 151.59701859 -80.07674898 154.26771952 -75.38012695 156.92456055 C-70.97889829 159.41861039 -66.63993872 162.00535602 -62.3125 164.625 C-56.29685792 168.25587521 -50.23616714 171.75719309 -44 175 C-42.2675 175.928125 -42.2675 175.928125 -40.5 176.875 C-31.68369474 179.70881241 -25.01461635 178.047178 -17 174 C-13.23124192 171.98409616 -9.51859601 169.87853448 -5.8125 167.75 C-4.79800781 167.1715332 -3.78351563 166.59306641 -2.73828125 165.99707031 C-0.72767005 164.85007304 1.28196608 163.70136449 3.29052734 162.55078125 C5.551028 161.25697154 7.81477883 159.96942118 10.08203125 158.6875 C13.39776143 156.80795467 16.70187812 154.91025972 20 153 C20.6712793 152.61295898 21.34255859 152.22591797 22.03417969 151.82714844 C24.15280854 150.60148741 26.26463013 149.36481748 28.375 148.125 C29.03693359 147.74311523 29.69886719 147.36123047 30.38085938 146.96777344 C31.95512095 146.03447322 33.48315455 145.0239769 35 144 C35 143.34 35 142.68 35 142 C35.66 142 36.32 142 37 142 C39.45290111 138.32064833 39.31636692 135.50309727 39.33813477 131.24316406 C39.34967087 130.45417725 39.36120697 129.66519043 39.37309265 128.85229492 C39.4074234 126.24005154 39.42590733 123.62804456 39.44140625 121.015625 C39.44830915 120.12244316 39.45521206 119.22926132 39.46232414 118.30901337 C39.49817052 113.58068156 39.52170305 108.85246924 39.53540039 104.12402344 C39.55193827 99.24666889 39.61034393 94.37076686 39.67854404 89.4939003 C39.72338791 85.73798299 39.73689923 81.98241175 39.74201775 78.22624969 C39.74990072 76.4289021 39.76951402 74.63156513 39.80124092 72.83448029 C40.2661774 63.27874874 40.2661774 63.27874874 37.51982117 54.38621521 C35.76154224 52.57612384 34.15708322 51.2939497 32 50 C31.35504578 49.56814896 30.71009155 49.13629791 30.04559326 48.69136047 C28.30062128 47.55098481 26.52269263 46.55007412 24.6875 45.5625 C24.06810547 45.21251953 23.44871094 44.86253906 22.81054688 44.50195312 C19.59796039 42.60762432 19.59796039 42.60762432 16 42 C15.9175 41.030625 15.835 40.06125 15.75 39.0625 C15.08195328 34.46144585 13.61455891 29.86788715 11 26 C9.1818574 25.0854396 9.1818574 25.0854396 7 25 C4.78234276 26.17939922 4.78234276 26.17939922 2.75 27.9375 C1.69039062 28.78634766 1.69039062 28.78634766 0.609375 29.65234375 C0.07828125 30.09707031 -0.4528125 30.54179688 -1 31 C-1.81621826 30.51587646 -1.81621826 30.51587646 -2.64892578 30.02197266 C-5.13751244 28.55040993 -7.63116958 27.08765714 -10.125 25.625 C-10.9809375 25.11710937 -11.836875 24.60921875 -12.71875 24.0859375 C-18.85709233 20.49736814 -24.17514067 17.7191213 -31.4375 17.6875 C-32.32308594 17.67074219 -33.20867187 17.65398438 -34.12109375 17.63671875 C-41.52832655 18.57141705 -47.97412404 23.19740525 -54.21484375 27.03515625 Z " fill="#040818" transform="translate(131,4)"/>
<path d="M0 0 C7.79522308 3.51220348 12.85643984 11.09343757 17.875 17.75 C18.74511719 18.88115234 18.74511719 18.88115234 19.6328125 20.03515625 C23.86931129 25.60793386 23.86931129 25.60793386 25 29 C25.66 29 26.32 29 27 29 C26.505 27.02 26.505 27.02 26 25 C30.62 25 35.24 25 40 25 C40 42.16 40 59.32 40 77 C37.35569723 78.05772111 34.70185122 79.09938293 32 80 C30.93133706 81.80772884 30.93133706 81.80772884 30 84 C29.03147378 85.61061324 28.05155389 87.21441037 27.0625 88.8125 C24.65555713 92.78483848 22.69080128 96.6790634 21 101 C20.34 100.29875 19.68 99.5975 19 98.875 C13.25486985 93.14619124 7.34982857 88.21301805 -0.98828125 87.8046875 C-2.42981792 87.81785222 -3.87129219 87.84151349 -5.3125 87.875 C-6.05306641 87.88402344 -6.79363281 87.89304687 -7.55664062 87.90234375 C-9.37123467 87.92575787 -11.18566071 87.96162385 -13 88 C-16.92227542 80.15544916 -13.09678436 67.91624944 -11 60 C-9.89687873 56.97517144 -8.74973449 54.73396014 -7 52 C-5.515 51.505 -5.515 51.505 -4 51 C-4.28875 50.40574219 -4.5775 49.81148437 -4.875 49.19921875 C-5.24625 48.37035156 -5.6175 47.54148438 -6 46.6875 C-6.556875 45.48673828 -6.556875 45.48673828 -7.125 44.26171875 C-9.37146629 35.8876145 -7.82140807 27.19138853 -6.25 18.8125 C-6.09273437 17.87986328 -5.93546875 16.94722656 -5.7734375 15.98632812 C-4.68351145 10.02107902 -2.96168374 5.29494299 0 0 Z " fill="#CB6E1A" transform="translate(60,32)"/>
<path d="M0 0 C8.175621 4.93383704 13.60667814 13.90537694 16 23 C16.9590625 21.9790625 16.9590625 21.9790625 17.9375 20.9375 C24.84327831 14.05145248 30.17728426 9.87374669 40.0625 9.8125 C41.62677734 9.79123047 41.62677734 9.79123047 43.22265625 9.76953125 C46 10 46 10 49 12 C43.44028318 30.34437967 27.51135869 41.64719563 12.26171875 51.828125 C7.21907028 53.63985499 2.31448724 53.43276617 -3 53.375 C-4.60101563 53.39240234 -4.60101563 53.39240234 -6.234375 53.41015625 C-20.57162934 53.35665903 -31.99661108 43.03480444 -42.0625 33.4375 C-47.35105834 27.88552687 -55 19.00997183 -55 11 C-48.31813617 8.77271206 -41.0946699 9.07156959 -34.6875 12 C-29.7541922 14.7655215 -26.36461236 18.51013649 -23 23 C-22.46890625 21.97519531 -21.9378125 20.95039063 -21.390625 19.89453125 C-20.6773651 18.53370644 -19.96380762 17.17303758 -19.25 15.8125 C-18.72792969 14.80219727 -18.72792969 14.80219727 -18.1953125 13.77148438 C-14.07387889 5.9483928 -9.88767568 -1.64794595 0 0 Z " fill="#C4EFF8" transform="translate(103,109)"/>
<path d="M0 0 C0.03738281 0.99 0.07476562 1.98 0.11328125 3 C0.38733691 11.52375676 0.38733691 11.52375676 2.625 19.6875 C4.08988827 23.21654902 4.15128367 23.6224772 3 27 C2.36954985 28.50653022 1.72230828 30.00609447 1.0625 31.5 C-1.25876075 37.24828571 -2.30945384 42.85735098 -3 49 C-3.13148437 49.87269531 -3.26296875 50.74539062 -3.3984375 51.64453125 C-4.28912696 61.88746001 1.36385093 71.5549849 7.55859375 79.375 C13.50147445 86.35763934 20.50449728 91.77132549 28 97 C29.35443098 97.99964198 30.70864771 98.99957442 32.0625 100 C37.62688179 103.78851526 43.0429322 103.3240822 49.5625 103.4375 C50.60986328 103.48326172 51.65722656 103.52902344 52.73632812 103.57617188 C60.77639295 103.69110133 65.57896561 101.73901707 72 97 C72.64155029 96.55003662 73.28310059 96.10007324 73.9440918 95.63647461 C85.68691146 87.20453368 100.46414914 75.06416168 103 60 C103.88254681 50.13923658 102.91759071 38.28474064 97.625 29.75 C96.25698856 27.33920249 95.93957963 26.38183181 96.37890625 23.60546875 C96.93141499 21.78245683 97.51499854 19.96865015 98.125 18.1640625 C99.76169189 12.24566772 99.76077287 6.11266554 100 0 C103.19115345 1.19393155 105.97064593 2.46366669 108.75 4.4375 C109.63945312 5.05431641 109.63945312 5.05431641 110.546875 5.68359375 C112 7 112 7 113 10 C113.10458071 12.16594796 113.1486516 14.33498261 113.16113281 16.50341797 C113.16858017 17.48689209 113.16858017 17.48689209 113.17617798 18.49023438 C113.19077353 20.65756279 113.19759706 22.82481803 113.203125 24.9921875 C113.20887842 26.50049847 113.21463613 28.00880942 113.22039795 29.51712036 C113.23090039 32.67954855 113.23674806 35.84195136 113.24023438 39.00439453 C113.24571881 43.05190449 113.26974863 47.09907801 113.29820633 51.14648247 C113.31685148 54.26234917 113.32203929 57.37813511 113.32357025 60.49405289 C113.32659288 61.98596156 113.33460828 63.47786894 113.34775543 64.96972275 C113.36485658 67.05933829 113.36292641 69.14813538 113.35644531 71.23779297 C113.36191376 73.0195845 113.36191376 73.0195845 113.36749268 74.83737183 C112.96038785 78.34090069 112.09279234 80.18964526 110 83 C107.57421875 84.77001953 107.57421875 84.77001953 104.6875 86.3828125 C103.62088135 86.98746338 102.5542627 87.59211426 101.45532227 88.21508789 C100.31506592 88.84535889 99.17480957 89.47562988 98 90.125 C96.82082138 90.78836844 95.64235946 91.45301238 94.46459961 92.11889648 C92.09763062 93.45577479 89.72756697 94.78688854 87.35498047 96.11376953 C83.52814945 98.26528288 79.7300851 100.46238103 75.93896484 102.67602539 C73.63522363 104.02007165 71.32457784 105.3514078 69.01171875 106.6796875 C66.55450881 108.09219469 64.1277588 109.53182915 61.70703125 111.0078125 C60.77246094 111.56210938 59.83789062 112.11640625 58.875 112.6875 C58.12992187 113.14511719 57.38484375 113.60273438 56.6171875 114.07421875 C51.5075431 115.88166013 47.26377474 115.97072988 42.22558594 113.81030273 C39.0624542 112.09436401 35.99996902 110.26472136 32.9375 108.375 C31.22402803 107.35072727 29.51054413 106.32647365 27.79623413 105.30360413 C26.03273346 104.24777828 24.27459215 103.18345088 22.51708984 102.11767578 C16.97608225 98.7674463 11.35598628 95.55228657 5.75 92.3125 C2.1539072 90.22915365 -1.43235702 88.13171928 -5 86 C-5.63615234 85.62407715 -6.27230469 85.2481543 -6.92773438 84.86083984 C-10.08190133 82.90232665 -11.69356841 81.46926531 -13 78 C-13.26742554 74.97781372 -13.26742554 74.97781372 -13.29052734 71.39892578 C-13.29724457 70.74473663 -13.30396179 70.09054749 -13.31088257 69.41653442 C-13.32984043 67.25938263 -13.33378561 65.10254235 -13.3359375 62.9453125 C-13.34236712 61.44082513 -13.3490956 59.93633901 -13.35610962 58.43185425 C-13.36807692 55.27957257 -13.37179103 52.12740044 -13.37060547 48.97509766 C-13.37040234 44.94438647 -13.39769992 40.91438082 -13.43214989 36.88383675 C-13.4544358 33.77648724 -13.4584425 30.66930706 -13.45738602 27.56188583 C-13.45973961 26.07637985 -13.4685496 24.59086902 -13.48405075 23.10544205 C-13.50374615 21.02308633 -13.49786089 18.94224572 -13.48583984 16.85986328 C-13.48868988 15.67723907 -13.49153992 14.49461487 -13.49447632 13.27615356 C-12.80357529 8.6985878 -10.79071927 5.4129304 -7.1484375 2.5390625 C-2.22222222 0 -2.22222222 0 0 0 Z " fill="#106D93" transform="translate(50,58)"/>
<path d="M0 0 C1.8671875 0.546875 1.8671875 0.546875 4 2 C4.92599456 4.48142333 5.57161238 6.68475556 6.125 9.25 C6.28967773 9.96293213 6.45435547 10.67586426 6.62402344 11.41040039 C8.14861044 18.22047391 9.26662866 25.05916414 10 32 C10.10828125 32.80824219 10.2165625 33.61648437 10.328125 34.44921875 C10.87874152 41.41952332 8.16797255 47.51047518 4 53 C-3.94022038 59.0530828 -15.09477509 62 -25 62 C-26.49140021 65.62197194 -27.7874262 69.27566618 -29 73 C-28.46375 72.649375 -27.9275 72.29875 -27.375 71.9375 C-24.20739377 70.68712912 -22.26311311 71.16686474 -19 72 C-17.515 72.99 -17.515 72.99 -16 74 C-16.66 74 -17.32 74 -18 74 C-17.67 75.32 -17.34 76.64 -17 78 C-15.68 78 -14.36 78 -13 78 C-13.020625 77.030625 -13.04125 76.06125 -13.0625 75.0625 C-13 72 -13 72 -12 71 C-9.0625 70.8125 -9.0625 70.8125 -6 71 C-4 73 -4 73 -4 76 C-2.35 76.33 -0.7 76.66 1 77 C1 77.66 1 78.32 1 79 C1.99 79 2.98 79 4 79 C4.625 81.875 4.625 81.875 5 85 C2.68241098 87.31758902 1.57431565 87.42792986 -1.5625 88.125 C-7.75969057 89.86739851 -11.55929062 93.49572218 -16 98 C-16.57878906 98.5775 -17.15757813 99.155 -17.75390625 99.75 C-18.16511719 100.1625 -18.57632813 100.575 -19 101 C-19.4846875 99.92621094 -19.969375 98.85242188 -20.46875 97.74609375 C-25.71629402 86.28198877 -25.71629402 86.28198877 -35 78 C-35.99 77.67 -36.98 77.34 -38 77 C-38 59.84 -38 42.68 -38 25 C-33.38 25 -28.76 25 -24 25 C-24.33 26.32 -24.66 27.64 -25 29 C-24.34 29 -23.68 29 -23 29 C-22.76152344 28.46375 -22.52304688 27.9275 -22.27734375 27.375 C-20.65449754 24.35759787 -18.65204238 21.70218941 -16.5625 19 C-16.13018066 18.43837158 -15.69786133 17.87674316 -15.25244141 17.2980957 C-10.50441609 11.22344121 -5.30019238 5.59240831 0 0 Z " fill="#398AAA" transform="translate(138,32)"/>
<path d="M0 0 C0.8971875 1.0828125 0.8971875 1.0828125 1.8125 2.1875 C8.01730894 8.34002122 17.08357195 10.52546235 25.37109375 12.32421875 C28.68052473 13.17493429 31.15310615 13.82099092 33.1953125 16.6640625 C35.43449845 21.38705134 36.90392071 25.88496333 38 31 C37.34 31 36.68 31 36 31 C35.73058594 31.56074219 35.46117187 32.12148437 35.18359375 32.69921875 C33.92163817 35.15232712 32.51414369 37.46696885 31.0625 39.8125 C28.65555713 43.78483848 26.69080128 47.6790634 25 52 C24.34 51.29875 23.68 50.5975 23 49.875 C17.25486985 44.14619124 11.34982857 39.21301805 3.01171875 38.8046875 C1.57018208 38.81785222 0.12870781 38.84151349 -1.3125 38.875 C-2.05306641 38.88402344 -2.79363281 38.89304688 -3.55664062 38.90234375 C-5.37123467 38.92575787 -7.18566071 38.96162385 -9 39 C-12.92227542 31.15544916 -9.09678436 18.91624944 -7 11 C-5.89687873 7.97517144 -4.74973449 5.73396014 -3 3 C-2.01 2.67 -1.02 2.34 0 2 C0 1.34 0 0.68 0 0 Z " fill="#F9A155" transform="translate(56,81)"/>
<path d="M0 0 C0.03738281 0.99 0.07476562 1.98 0.11328125 3 C0.38733691 11.52375676 0.38733691 11.52375676 2.625 19.6875 C4.08988827 23.21654902 4.15128367 23.6224772 3 27 C2.36954985 28.50653022 1.72230828 30.00609447 1.0625 31.5 C-1.25876075 37.24828571 -2.30945384 42.85735098 -3 49 C-3.13148437 49.87269531 -3.26296875 50.74539062 -3.3984375 51.64453125 C-4.23480598 61.26276875 1.09793486 70.80013049 6.76171875 78.34765625 C8 80 8 80 8 82 C1.73 82 -4.54 82 -11 82 C-13.08767767 77.82464467 -13.26108102 75.96069451 -13.29052734 71.39892578 C-13.29724457 70.74473663 -13.30396179 70.09054749 -13.31088257 69.41653442 C-13.32984043 67.25938263 -13.33378561 65.10254235 -13.3359375 62.9453125 C-13.34236712 61.44082513 -13.3490956 59.93633901 -13.35610962 58.43185425 C-13.36807692 55.27957257 -13.37179103 52.12740044 -13.37060547 48.97509766 C-13.37040234 44.94438647 -13.39769992 40.91438082 -13.43214989 36.88383675 C-13.4544358 33.77648724 -13.4584425 30.66930706 -13.45738602 27.56188583 C-13.45973961 26.07637985 -13.4685496 24.59086902 -13.48405075 23.10544205 C-13.50374615 21.02308633 -13.49786089 18.94224572 -13.48583984 16.85986328 C-13.48868988 15.67723907 -13.49153992 14.49461487 -13.49447632 13.27615356 C-12.80357529 8.6985878 -10.79071927 5.4129304 -7.1484375 2.5390625 C-2.22222222 0 -2.22222222 0 0 0 Z " fill="#106A8F" transform="translate(50,58)"/>
<path d="M0 0 C1.8671875 0.546875 1.8671875 0.546875 4 2 C4.92599456 4.48142333 5.57161238 6.68475556 6.125 9.25 C6.28967773 9.96293213 6.45435547 10.67586426 6.62402344 11.41040039 C12.39834301 37.20331399 12.39834301 37.20331399 7.265625 47.46875 C6 49 6 49 4.0234375 49.80859375 C-1.32190802 50.31423454 -7.49547885 43.2527083 -11.38671875 40.10546875 C-15.21787697 37.01878074 -19.10749151 34.00870221 -23 31 C-22.54439828 26.12506155 -20.12412012 23.10553275 -17.125 19.4375 C-16.64119873 18.83341309 -16.15739746 18.22932617 -15.65893555 17.60693359 C-10.70553774 11.49484157 -5.40715885 5.71046176 0 0 Z " fill="#25708B" transform="translate(138,32)"/>
<path d="M0 0 C7.74129294 3.48579603 12.84775663 11.03838021 17.875 17.625 C18.74511719 18.73101562 18.74511719 18.73101562 19.6328125 19.859375 C20.18453125 20.57867187 20.73625 21.29796875 21.3046875 22.0390625 C21.79952637 22.68053223 22.29436523 23.32200195 22.80419922 23.98291016 C24.18242576 26.30771777 24.60871155 28.34165891 25 31 C20.1527199 35.24137008 15.20121616 39.20376352 10 43 C8.71802734 43.97453125 8.71802734 43.97453125 7.41015625 44.96875 C6.09337891 45.94328125 6.09337891 45.94328125 4.75 46.9375 C3.94046875 47.54464844 3.1309375 48.15179688 2.296875 48.77734375 C0 50 0 50 -2.15625 49.90234375 C-5.11137688 48.45608462 -5.89185149 46.44542537 -7.17285156 43.51098633 C-9.73864049 35.72198423 -7.72381289 26.67100229 -6.25 18.8125 C-6.09273437 17.87986328 -5.93546875 16.94722656 -5.7734375 15.98632812 C-4.68351145 10.02107902 -2.96168374 5.29494299 0 0 Z " fill="#A75108" transform="translate(60,32)"/>
<path d="M0 0 C1.8277768 1.57286431 3.68443799 3.11253406 5.5625 4.625 C6.50609375 5.39328125 7.4496875 6.1615625 8.421875 6.953125 C11.21451714 9.17031361 13.95018309 11.15592466 17 13 C17.80308594 13.51691406 18.60617188 14.03382813 19.43359375 14.56640625 C24.54736059 16.62199489 29.28698565 16.55243302 34.75 16.5625 C36.30074219 16.61760742 36.30074219 16.61760742 37.8828125 16.67382812 C45.81626662 16.71879103 50.6697482 14.68040418 57 10 C57.65774414 9.52361084 58.31548828 9.04722168 58.99316406 8.55639648 C60.77882758 7.22047499 62.51833007 5.84247757 64.25 4.4375 C65.10851562 3.75397461 65.10851562 3.75397461 65.984375 3.05664062 C69.69924069 0.08896951 73.3555888 -2.94642516 77 -6 C76.67 -5.01 76.34 -4.02 76 -3 C82.93 -2.505 82.93 -2.505 90 -2 C86.38025826 0.89579339 83.40778609 3.02793896 79.4296875 5.20703125 C78.3675 5.79419922 77.3053125 6.38136719 76.2109375 6.98632812 C75.11007813 7.58896484 74.00921875 8.19160156 72.875 8.8125 C65.58469542 12.81083092 58.42280356 16.8941541 51.45410156 21.43457031 C44.50358155 25.86818893 38.45684508 29.57305004 30 28 C25.74090229 26.17515428 21.87572822 23.80500214 17.9375 21.375 C16.22507134 20.35179591 14.51263109 19.3286104 12.7993927 18.3067627 C11.03624138 17.25144786 9.27848209 16.18759324 7.52148438 15.12207031 C1.95493874 11.75495335 -3.6844058 8.51282693 -9.3125 5.25 C-11.26756833 4.11047446 -13.22204177 2.96992737 -15.17578125 1.828125 C-15.98958252 1.3527832 -16.80338379 0.87744141 -17.6418457 0.38769531 C-18.80913208 -0.29921387 -18.80913208 -0.29921387 -20 -1 C-20.92449951 -1.53270508 -21.84899902 -2.06541016 -22.80151367 -2.61425781 C-23.8897644 -3.3002002 -23.8897644 -3.3002002 -25 -4 C-25 -4.33 -25 -4.66 -25 -5 C-20.47948245 -5.52619781 -15.97841143 -5.96393199 -11.4296875 -6.140625 C-10.30022705 -6.18751465 -10.30022705 -6.18751465 -9.14794922 -6.23535156 C-4.77817405 -5.75655374 -2.67960363 -3.2052675 0 0 Z " fill="#1589B2" transform="translate(65,145)"/>
<path d="M0 0 C7.53266748 4.54582641 12.90572146 12.5693894 15.375 20.9375 C16.46622777 26.46113749 17.65684508 33.46149186 14.48046875 38.328125 C13.99191406 38.87984375 13.50335938 39.4315625 13 40 C9.26512223 39.5020163 7.18762365 39.12508244 4 37 C5.875 33.125 5.875 33.125 7 32 C7.16666667 28.5 7.16666667 28.5 7 25 C4.31834932 22.31834932 -2.39573324 23.0635513 -6 23 C-8.55530194 23.41597939 -10.57345794 24.06247239 -13 25 C-12.47519999 31.28908482 -12.47519999 31.28908482 -10 37 C-14.27118644 40.05084746 -14.27118644 40.05084746 -17.6875 39.8125 C-20 39 -20 39 -22 37 C-24.7830684 27.08727323 -21.90101697 20.07194688 -17.17578125 11.53125 C-12.95270263 4.39917138 -8.99050887 -1.49841814 0 0 Z " fill="#F9FAFA" transform="translate(103,109)"/>
<path d="M0 0 C0.495 0.99 0.495 0.99 1 2 C1.63679688 2.28101562 2.27359375 2.56203125 2.9296875 2.8515625 C6.93944861 5.07584508 7.7319076 9.8197839 9 14 C10.95733415 22.28018325 13.51098659 33.26688013 9 41 C8.01 40.34 7.02 39.68 6 39 C3.9507906 38.54860541 3.9507906 38.54860541 1.8125 38.375 C-0.0746875 38.189375 -0.0746875 38.189375 -2 38 C-1.835 37.4225 -1.67 36.845 -1.5 36.25 C-0.85537969 33.73335631 -0.85537969 33.73335631 -1 30 C-1.99 30 -2.98 30 -4 30 C-4 29.34 -4 28.68 -4 28 C-5.98 28 -7.96 28 -10 28 C-10.495 25.525 -10.495 25.525 -11 23 C-12.98 23 -14.96 23 -17 23 C-17 24.98 -17 26.96 -17 29 C-18.65 29.33 -20.3 29.66 -22 30 C-22.66 28.02 -23.32 26.04 -24 24 C-27.66305234 23.25073929 -30.42355152 22.7619986 -34 24 C-33.48845273 19.60069347 -32.80964177 16.47271722 -30 13 C-27.26686359 12.12266024 -24.86242818 11.539038 -22.0625 11.0625 C-14.43706113 9.52650479 -7.50035301 7.48094187 -1 3 C-0.67 2.01 -0.34 1.02 0 0 Z " fill="#5BC9ED" transform="translate(143,81)"/>
<path d="M0 0 C2.73242568 1.38304273 5.35505538 2.87788254 7.98413086 4.44799805 C8.89743164 4.97264648 9.81073242 5.49729492 10.75170898 6.0378418 C12.98558703 7.32436842 15.20766423 8.62759921 17.42163086 9.94799805 C16.32921047 15.01583231 14.70855322 18.83063969 10.42163086 21.94799805 C5.51925525 23.03346174 0.83272473 23.14216964 -4.17285156 23.04589844 C-6.51027562 23.01058256 -8.83358778 23.06586232 -11.17016602 23.12963867 C-21.90887609 23.20267936 -21.90887609 23.20267936 -26.20385742 19.97485352 C-28.91575763 16.61346174 -30.57836914 14.32833329 -30.57836914 9.94799805 C-27.87022693 7.66430623 -24.70372478 6.02796873 -21.64086914 4.26049805 C-20.81006836 3.74938477 -19.97926758 3.23827148 -19.12329102 2.71166992 C-12.56581475 -1.11054776 -7.27274433 -2.96735682 0 0 Z " fill="#062645" transform="translate(106.578369140625,32.052001953125)"/>
<path d="M0 0 C2 2 2 2 2.375 5.3125 C1.94805086 9.51083317 0.88994071 11.01974864 -2 14 C0.7770808 15.34886782 2.5778434 16.02945279 5.6875 15.8125 C8.34034619 15.14070589 8.34034619 15.14070589 10 12 C10.39013716 10.0103005 10.73202649 8.00980131 11 6 C13 7 15 8 17 9 C15.3957647 14.70394774 11.04920428 20.11895846 6.01171875 23.2265625 C1.61212211 24.91805791 -3.25979431 24.10921068 -7.8125 23.4375 C-11.01343771 22.75876119 -11.01343771 22.75876119 -14 24 C-18.13286593 24.71734162 -21.56101972 24.87348628 -25.2265625 22.6484375 C-29.24168497 19.23483151 -32.43319873 15.59885228 -35 11 C-35 10.34 -35 9.68 -35 9 C-31.53846154 6 -31.53846154 6 -29 6 C-28.54427083 8.01822917 -28.08854167 10.03645833 -27.6328125 12.0546875 C-27.09525572 14.20719964 -27.09525572 14.20719964 -25 16 C-22.56282742 15.72965366 -22.56282742 15.72965366 -20 15 C-19.236875 14.814375 -18.47375 14.62875 -17.6875 14.4375 C-17.130625 14.293125 -16.57375 14.14875 -16 14 C-16.99 12.4221875 -16.99 12.4221875 -18 10.8125 C-19.7771585 7.73376063 -20.43806506 5.61403672 -20 2 C-13.20962213 -1.26460475 -7.40136809 -1.51443378 0 0 Z " fill="#8DC3DB" transform="translate(109,132)"/>
<path d="M0 0 C0.91523437 -0.01417969 1.83046875 -0.02835938 2.7734375 -0.04296875 C9.90513822 0.53342898 15.48371784 4.24259763 21.5 7.8125 C22.37914062 8.328125 23.25828125 8.84375 24.1640625 9.375 C26.3207056 10.64085573 28.47417988 11.91178407 30.625 13.1875 C29.83507484 17.43675258 27.77846563 19.27660865 24.625 22.1875 C24.625 21.5275 24.625 20.8675 24.625 20.1875 C23.35076172 19.82011719 23.35076172 19.82011719 22.05078125 19.4453125 C17.69527514 17.8461415 13.95390785 15.47382695 10.09960938 12.93359375 C5.3473415 10.0279518 1.14737354 9.11624696 -4.375 10.1875 C-7.58298103 11.53015172 -10.4106875 13.28213953 -13.3125 15.1875 C-14.79870092 16.12829442 -16.28688695 17.06596261 -17.77734375 18 C-18.42179443 18.41894531 -19.06624512 18.83789062 -19.73022461 19.26953125 C-21.375 20.1875 -21.375 20.1875 -23.375 20.1875 C-23.705 20.8475 -24.035 21.5075 -24.375 22.1875 C-26.685 19.5475 -28.995 16.9075 -31.375 14.1875 C-28.69611267 12.40157511 -26.02360737 10.8910574 -23.1875 9.375 C-19.04206536 7.13778131 -15.04639749 4.78244995 -11.12890625 2.16796875 C-7.53587477 0.15939213 -4.06046024 0.0284346 0 0 Z " fill="#44A2E3" transform="translate(99.375,21.8125)"/>
<path d="M0 0 C12.6426513 6.78386167 12.6426513 6.78386167 17 10 C17.86906982 10.61125732 18.73813965 11.22251465 19.63354492 11.85229492 C23.29091227 16.71708779 22.62058259 21.37752761 22.48828125 27.30078125 C22.48120651 28.49229294 22.47413177 29.68380463 22.46684265 30.91142273 C22.43888186 34.71242372 22.37613474 38.51194514 22.3125 42.3125 C22.28741956 44.89125475 22.26460596 47.47003262 22.24414062 50.04882812 C22.18904931 56.36638918 22.10540375 62.68308888 22 69 C20.02 69 18.04 69 16 69 C16 74.61 16 80.22 16 86 C15.67 86 15.34 86 15 86 C14.99191315 85.20708557 14.98382629 84.41417114 14.97549438 83.597229 C14.89753394 76.12252853 14.81023901 68.64802285 14.71247292 61.17355728 C14.66253995 57.33091081 14.61620977 53.48829143 14.578125 49.64550781 C14.5412341 45.93658312 14.49486404 42.22788671 14.44193649 38.51915741 C14.42341271 37.10463213 14.40829728 35.69005795 14.39665604 34.27545929 C14.37975987 32.29324238 14.34959077 30.31115208 14.31884766 28.32910156 C14.30552399 27.20103088 14.29220032 26.07296021 14.2784729 24.91070557 C14.00348607 22.03643778 13.57803847 20.39134999 12 18 C9.61545671 16.23158577 9.61545671 16.23158577 6.875 14.75 C5.96492187 14.22921875 5.05484375 13.7084375 4.1171875 13.171875 C3.41851562 12.78515625 2.71984375 12.3984375 2 12 C1.67 12.99 1.34 13.98 1 15 C0.67 10.05 0.34 5.1 0 0 Z " fill="#44A0DD" transform="translate(148,46)"/>
<path d="M0 0 C-0.66 0 -1.32 0 -2 0 C-1.67 1.32 -1.34 2.64 -1 4 C0.32 4 1.64 4 3 4 C2.979375 3.030625 2.95875 2.06125 2.9375 1.0625 C3 -2 3 -2 4 -3 C6.9375 -3.1875 6.9375 -3.1875 10 -3 C12 -1 12 -1 12 2 C14.475 2.495 14.475 2.495 17 3 C17 3.66 17 4.32 17 5 C17.99 5 18.98 5 20 5 C20.625 7.875 20.625 7.875 21 11 C18.68241098 13.31758902 17.57431565 13.42792986 14.4375 14.125 C8.24030943 15.86739851 4.44070938 19.49572218 0 24 C-0.57878906 24.5775 -1.15757813 25.155 -1.75390625 25.75 C-2.16511719 26.1625 -2.57632813 26.575 -3 27 C-3.51949219 25.91460937 -4.03898437 24.82921875 -4.57421875 23.7109375 C-5.27820848 22.26541192 -5.98266025 20.8201113 -6.6875 19.375 C-7.19700195 18.30572266 -7.19700195 18.30572266 -7.71679688 17.21484375 C-9.4550314 13.67339397 -11.16160706 10.65701136 -13.8125 7.71875 C-14.534375 6.8215625 -15.25625 5.924375 -16 5 C-15.3125 1.125 -15.3125 1.125 -14 -2 C-8.64887908 -3.41647318 -4.64323847 -3.09549231 0 0 Z " fill="#4DAAD8" transform="translate(122,106)"/>
<path d="M0 0 C6.09289383 0.90265094 9.7759097 5.68117075 13.4375 10.25 C14.15808594 11.14203125 14.87867187 12.0340625 15.62109375 12.953125 C18 16 18 16 19.03271484 18.09643555 C20.46839282 20.69362294 21.61523846 22.20493925 24 24 C28.8451033 25.17152174 33.46030584 25.36131961 38.4296875 25.31762695 C40.73794041 25.31252665 43.02308752 25.41888946 45.328125 25.53320312 C52.91784864 25.7658852 52.91784864 25.7658852 59.65335083 22.73977661 C63.06308111 19.22315997 65.46209386 15.16289198 68 11 C69.44276436 9.24034595 70.91539198 7.50399004 72.4375 5.8125 C73.05496094 5.11769531 73.67242187 4.42289063 74.30859375 3.70703125 C76 2 76 2 79 0 C81.05859375 0.1328125 81.05859375 0.1328125 83 1 C88.93633952 9.59470031 90.53591178 21.83224896 91 32 C91.05285156 33.00417969 91.10570312 34.00835937 91.16015625 35.04296875 C91.34146323 41.26258632 91.19257795 47.46882585 88 53 C86.515 53.495 86.515 53.495 85 54 C85.44805842 51.38632586 85.9257919 49.15714657 87.0625 46.75 C89.40180294 39.8880447 87.78478392 32.07056749 86.6875 25.0625 C86.55432373 24.18948242 86.42114746 23.31646484 86.28393555 22.41699219 C85.32814176 16.41682454 84.01088805 10.74539443 82 5 C77.94551236 4.55728569 77.94551236 4.55728569 75.51953125 7.203125 C74.60437468 8.20722003 73.7027378 9.22374709 72.8125 10.25 C72.33562744 10.78488037 71.85875488 11.31976074 71.36743164 11.87084961 C65.78710303 18.22279753 60.68950812 24.96573783 56 32 C55.34 32 54.68 32 54 32 C54 31.01 54 30.02 54 29 C45.42 29 36.84 29 28 29 C28 29.99 28 30.98 28 32 C27.34 32 26.68 32 26 32 C24.72241211 30.59814453 24.72241211 30.59814453 23.27734375 28.6328125 C22.74286621 27.91609375 22.20838867 27.199375 21.65771484 26.4609375 C21.09004395 25.69007812 20.52237305 24.91921875 19.9375 24.125 C12.01016391 12.11421973 12.01016391 12.11421973 1 4 C-1.79368346 9.79549233 -3.07530499 15.43169369 -4.1875 21.75 C-4.45336914 23.13832031 -4.45336914 23.13832031 -4.72460938 24.5546875 C-6.41851605 33.9463863 -7.34159966 42.31680067 -3 51 C-3 51.99 -3 52.98 -3 54 C-3.66 54 -4.32 54 -5 54 C-12.69117383 39.28645007 -8.41715632 22.24532236 -4.09765625 6.9609375 C-3.05656383 4.15258143 -1.93519011 2.26047847 0 0 Z " fill="#DFECF1" transform="translate(59,29)"/>
<path d="M0 0 C1.55373847 3.10747694 0.58528628 5.74226527 0.0625 9.125 C-0.13214844 10.40632813 -0.32679687 11.68765625 -0.52734375 13.0078125 C-0.68332031 13.99523438 -0.83929688 14.98265625 -1 16 C-1.33 15.01 -1.66 14.02 -2 13 C-3.63234937 13.90351441 -5.25566824 14.8233569 -6.875 15.75 C-7.77992187 16.26046875 -8.68484375 16.7709375 -9.6171875 17.296875 C-12.24222323 19.17313005 -12.87152855 20.0342089 -14 23 C-14.32698087 25.99058942 -14.32698087 25.99058942 -14.31884766 29.32910156 C-14.33871735 30.61012756 -14.35858704 31.89115356 -14.37905884 33.21099854 C-14.39093436 34.6042056 -14.40259727 35.9974145 -14.4140625 37.390625 C-14.43277832 38.8198152 -14.45235205 40.24899441 -14.4727478 41.67816162 C-14.52403148 45.43291736 -14.56367716 49.18770892 -14.60089111 52.94262695 C-14.64095449 56.7769453 -14.69203615 60.61111517 -14.7421875 64.4453125 C-14.83890215 71.96343972 -14.92332101 79.4816389 -15 87 C-15.33 87 -15.66 87 -16 87 C-16 78.42 -16 69.84 -16 61 C-17.98 61 -19.96 61 -22 61 C-22.10152782 54.68300117 -22.17151879 48.36621321 -22.21972656 42.04858398 C-22.23982586 39.9000665 -22.26710993 37.7516036 -22.30175781 35.60327148 C-22.35034913 32.51272095 -22.37298579 29.42289445 -22.390625 26.33203125 C-22.41127014 25.37351761 -22.43191528 24.41500397 -22.45318604 23.42744446 C-22.45461897 19.15621538 -22.42519737 16.69869627 -20.16674805 12.98754883 C-17.48508787 10.52767327 -14.69701833 8.72309751 -11.5625 6.875 C-9.89380859 5.88113281 -9.89380859 5.88113281 -8.19140625 4.8671875 C-6.61166016 3.94292969 -6.61166016 3.94292969 -5 3 C-3.33234659 2.00164641 -1.66529185 1.0022878 0 0 Z " fill="#449FDC" transform="translate(52,45)"/>
<path d="M0 0 C3.19115345 1.19393155 5.97064593 2.46366669 8.75 4.4375 C9.34296875 4.84871094 9.9359375 5.25992188 10.546875 5.68359375 C12 7 12 7 13 10 C13.08397157 12.35680213 13.10728187 14.71594081 13.09765625 17.07421875 C13.0962413 17.7580513 13.09482635 18.44188385 13.09336853 19.1464386 C13.08777876 21.32683722 13.07522822 23.50713251 13.0625 25.6875 C13.05748367 27.16731622 13.052921 28.64713406 13.04882812 30.12695312 C13.03781271 33.75133557 13.02055512 37.3756577 13 41 C9.7 41 6.4 41 3 41 C2.20788071 39.10435574 1.41632424 37.20847629 0.625 35.3125 C0.18414062 34.25675781 -0.25671875 33.20101562 -0.7109375 32.11328125 C-1.34902344 30.57220703 -1.34902344 30.57220703 -2 29 C-2.41121094 28.12472656 -2.82242188 27.24945313 -3.24609375 26.34765625 C-4.14190894 23.55809702 -3.88032814 22.74186526 -2.6875 20.125 C-0.20581336 13.65724147 -0.2616749 6.84866367 0 0 Z " fill="#0C4566" transform="translate(150,58)"/>
<path d="M0 0 C0.03738281 0.99 0.07476562 1.98 0.11328125 3 C0.38733691 11.52375676 0.38733691 11.52375676 2.625 19.6875 C4.10299262 23.24811859 4.18029946 23.59505233 3 27 C2.17763872 28.9305268 1.32115287 30.84674767 0.4375 32.75 C-0.01753906 33.73484375 -0.47257812 34.7196875 -0.94140625 35.734375 C-1.29074219 36.48203125 -1.64007813 37.2296875 -2 38 C-5.63 38 -9.26 38 -13 38 C-13.11647041 33.45855006 -13.18734502 28.91748606 -13.25 24.375 C-13.28351562 23.08980469 -13.31703125 21.80460937 -13.3515625 20.48046875 C-13.46209893 9.81370301 -13.46209893 9.81370301 -11.2109375 6.25 C-8.17126091 3.15661888 -4.56716555 0 0 0 Z " fill="#0B4667" transform="translate(50,58)"/>
<path d="M0 0 C4.62 0 9.24 0 14 0 C13.67 1.32 13.34 2.64 13 4 C13.66 4 14.32 4 15 4 C16.68933922 5.6436814 18.35259924 7.3142876 20 9 C21.64864545 10.35555293 23.31003995 11.69631653 25 13 C23.44298069 17.67105792 20.91552627 21.08705685 18 25 C17.34 24.67 16.68 24.34 16 24 C16 23.34 16 22.68 16 22 C14.02 24.97 14.02 24.97 12 28 C11.34 27.67 10.68 27.34 10 27 C10.99 25.02 11.98 23.04 13 21 C12.01 22.32 11.02 23.64 10 25 C9.34 24.67 8.68 24.34 8 24 C8 23.34 8 22.68 8 22 C7.071875 22.99 7.071875 22.99 6.125 24 C4 26 4 26 2 26 C1.34 27.32 0.68 28.64 0 30 C0 20.1 0 10.2 0 0 Z " fill="#3A93B2" transform="translate(100,57)"/>
<path d="M0 0 C3.64948166 3.53619398 6.75768316 7.34320335 9.890625 11.3359375 C11.26666848 13.07382945 12.6720329 14.78901641 14.109375 16.4765625 C14.75390625 17.24742188 15.3984375 18.01828125 16.0625 18.8125 C16.65160156 19.49957031 17.24070312 20.18664062 17.84765625 20.89453125 C19 23 19 23 18.81640625 25.5859375 C17.61845334 29.12820973 15.9609966 30.7470678 13 33 C9.4375 33.125 9.4375 33.125 6 33 C3.71515694 34.39957197 3.71515694 34.39957197 2 36 C1.34 36 0.68 36 0 36 C-1.97851387 30.23650308 -2.27397336 25.12928884 -2.1875 19.0625 C-2.18685547 18.20720703 -2.18621094 17.35191406 -2.18554688 16.47070312 C-2.08680156 2.08680156 -2.08680156 2.08680156 0 0 Z " fill="#813200" transform="translate(61,36)"/>
<path d="M0 0 C4.125 2.25 4.125 2.25 5.3125 4.625 C4.6525 4.625 3.9925 4.625 3.3125 4.625 C3.374375 5.31980469 3.43625 6.01460937 3.5 6.73046875 C3.26332811 10.38409102 2.01497118 12.70989838 0.3125 15.9375 C-0.244375 17.00613281 -0.80125 18.07476562 -1.375 19.17578125 C-2.0246875 20.38814453 -2.0246875 20.38814453 -2.6875 21.625 C-6.6875 21.625 -6.6875 21.625 -8.6171875 20.04296875 C-20.6875 6.20331325 -20.6875 6.20331325 -20.6875 -1.375 C-13.71244019 -3.70001994 -6.57859932 -3.22294491 0 0 Z " fill="#FCFCFB" transform="translate(68.6875,121.375)"/>
<path d="M0 0 C1.04285156 -0.01417969 2.08570313 -0.02835937 3.16015625 -0.04296875 C5.9375 0.1875 5.9375 0.1875 8.9375 2.1875 C6.20682264 11.28975787 0.95784935 18.85206279 -6.0625 25.1875 C-9.0625 24.1875 -9.0625 24.1875 -10.16015625 22.48046875 C-10.47855469 21.78566406 -10.79695312 21.09085938 -11.125 20.375 C-11.44597656 19.68792969 -11.76695312 19.00085938 -12.09765625 18.29296875 C-12.41605469 17.59816406 -12.73445312 16.90335938 -13.0625 16.1875 C-13.4234375 15.51332031 -13.784375 14.83914062 -14.15625 14.14453125 C-15.60893759 11.00747745 -15.48674778 8.58148221 -15.0625 5.1875 C-10.53991508 0.41366036 -6.32487155 0.03918756 0 0 Z " fill="#FAFCFD" transform="translate(143.0625,118.8125)"/>
<path d="M0 0 C0.66 0.33 1.32 0.66 2 1 C2.144375 1.639375 2.28875 2.27875 2.4375 2.9375 C2.86165035 5.38210855 2.86165035 5.38210855 6 7 C6 7.99 6 8.98 6 10 C5.01 10 4.02 10 3 10 C3.01160156 11.01320313 3.02320313 12.02640625 3.03515625 13.0703125 C3.04454209 14.42187314 3.05364143 15.7734358 3.0625 17.125 C3.07087891 17.79015625 3.07925781 18.4553125 3.08789062 19.140625 C3.10782292 23.20681354 2.78890161 27.0120092 2 31 C0.989375 30.38125 -0.02125 29.7625 -1.0625 29.125 C-4.63227085 27.07056045 -8.009341 25.97730425 -12 25 C-12 22.69 -12 20.38 -12 18 C-12.66 17.67 -13.32 17.34 -14 17 C-11.85507879 14.35342605 -9.70891028 11.70786638 -7.5625 9.0625 C-6.95083984 8.30775391 -6.33917969 7.55300781 -5.70898438 6.77539062 C-5.12568359 6.05673828 -4.54238281 5.33808594 -3.94140625 4.59765625 C-3.40201416 3.93258057 -2.86262207 3.26750488 -2.30688477 2.58227539 C-1 1 -1 1 0 0 Z " fill="#1D6B9B" transform="translate(138,37)"/>
<path d="M0 0 C1.8277768 1.57286431 3.68443799 3.11253406 5.5625 4.625 C6.50480469 5.39457031 7.44710937 6.16414062 8.41796875 6.95703125 C11.1970866 9.15593993 14.02200565 11.08557506 17 13 C18.68083079 14.31543279 20.3524116 15.64316249 22 17 C13.31606642 17.81139857 8.05084523 16.17337798 0.75 11.5625 C-0.14807373 11.02133545 -1.04614746 10.4801709 -1.97143555 9.92260742 C-3.78891411 8.82487431 -5.60048791 7.71730022 -7.40576172 6.59960938 C-9.81714461 5.11274878 -12.246425 3.66512235 -14.69140625 2.234375 C-21.95028348 -2.02775629 -21.95028348 -2.02775629 -25 -4 C-25 -4.33 -25 -4.66 -25 -5 C-20.47948245 -5.52619781 -15.97841143 -5.96393199 -11.4296875 -6.140625 C-10.30022705 -6.18751465 -10.30022705 -6.18751465 -9.14794922 -6.23535156 C-4.77817405 -5.75655374 -2.67960363 -3.2052675 0 0 Z " fill="#1780A6" transform="translate(65,145)"/>
<path d="M0 0 C6.09289383 0.90265094 9.7759097 5.68117075 13.4375 10.25 C14.15808594 11.14203125 14.87867187 12.0340625 15.62109375 12.953125 C18 16 18 16 19.01074219 18.10742188 C20.44608204 20.7516552 21.54969226 22.21939901 24 24 C29.79285238 25.15617785 35.48848815 25.07557576 41.375 25 C42.98569936 25.00809722 44.59638494 25.01977937 46.20703125 25.03515625 C50.13907463 25.06491432 54.06813873 25.04568243 58 25 C58 25.33 58 25.66 58 26 C49.585 26.495 49.585 26.495 41 27 C41 27.33 41 27.66 41 28 C34.565 28.495 34.565 28.495 28 29 C28 29.99 28 30.98 28 32 C27.34 32 26.68 32 26 32 C24.72241211 30.59814453 24.72241211 30.59814453 23.27734375 28.6328125 C22.74286621 27.91609375 22.20838867 27.199375 21.65771484 26.4609375 C21.09004395 25.69007812 20.52237305 24.91921875 19.9375 24.125 C12.01016391 12.11421973 12.01016391 12.11421973 1 4 C-1.79368346 9.79549233 -3.07530499 15.43169369 -4.1875 21.75 C-4.45336914 23.13832031 -4.45336914 23.13832031 -4.72460938 24.5546875 C-6.41851605 33.9463863 -7.34159966 42.31680067 -3 51 C-3 51.99 -3 52.98 -3 54 C-3.66 54 -4.32 54 -5 54 C-12.69117383 39.28645007 -8.41715632 22.24532236 -4.09765625 6.9609375 C-3.05656383 4.15258143 -1.93519011 2.26047847 0 0 Z " fill="#D2D9DE" transform="translate(59,29)"/>
<path d="M0 0 C1.875 0.625 1.875 0.625 4 2 C5.38327396 5.03002866 6.14886672 7.05717747 5.625 10.375 C5.315625 11.179375 5.315625 11.179375 5 12 C1.9890638 9.9927092 1.36983503 9.16115776 0 6 C-1.79360702 8.10253933 -3.58494119 10.20694333 -5.375 12.3125 C-5.88289062 12.90740234 -6.39078125 13.50230469 -6.9140625 14.11523438 C-7.40390625 14.69208984 -7.89375 15.26894531 -8.3984375 15.86328125 C-8.84880371 16.39219971 -9.29916992 16.92111816 -9.76318359 17.46606445 C-10.92874273 18.91162467 -11.96996304 20.45494456 -13 22 C-12.67 22.33 -12.34 22.66 -12 23 C-11.63239269 25.32817964 -11.29758419 27.6618385 -11 30 C-9.948125 30.268125 -8.89625 30.53625 -7.8125 30.8125 C-4.35850547 31.88833436 -1.79286312 32.71493017 1 35 C1.3125 37.6875 1.3125 37.6875 1 40 C0.2575 39.690625 -0.485 39.38125 -1.25 39.0625 C-4.34316978 37.86741168 -7.13955244 37.08825103 -10.4375 36.75 C-14.04622242 35.69378856 -15.64268194 33.88116652 -18 31 C-19.22030173 28.41583163 -19.22020095 26.89586027 -18.54296875 24.140625 C-15.06720201 14.75776702 -7.04374235 6.86100375 0 0 Z " fill="#19577F" transform="translate(138,32)"/>
<path d="M0 0 C2 2 2 2 2.375 5.375 C2 9 2 9 0.25 11.375 C-3.95239644 14.41006409 -7.87352232 14.35975282 -13 14 C-15.89305092 12.71419959 -17.49900353 11.71570925 -19.3125 9.125 C-20.11268687 6.65169514 -20.14354627 4.58383294 -20 2 C-13.20962213 -1.26460475 -7.40136809 -1.51443378 0 0 Z " fill="#234053" transform="translate(109,132)"/>
<path d="M0 0 C3.63 0.33 7.26 0.66 11 1 C11 9.25 11 17.5 11 26 C7.37 26 3.74 26 0 26 C0.165 25.236875 0.33 24.47375 0.5 23.6875 C1.57758569 15.74030552 1.03900416 7.92240675 0 0 Z " fill="#0F6085" transform="translate(152,98)"/>
<path d="M0 0 C0 0.99 0 1.98 0 3 C6.93 3.495 6.93 3.495 14 4 C9.10056339 7.91954929 4.1979185 11.0771953 -1.1875 14.25 C-2.08275391 14.80429688 -2.97800781 15.35859375 -3.90039062 15.9296875 C-10.12531479 19.57924593 -14.80050739 20.8052384 -22 20 C-22 19.34 -22 18.68 -22 18 C-20.25714852 16.58355885 -18.45267785 15.24265534 -16.625 13.9375 C-10.730482 9.65788215 -5.32109421 4.97969657 0 0 Z " fill="#177DA3" transform="translate(141,139)"/>
<path d="M0 0 C4.62474118 6.93711177 4.91249755 17.8411984 4 26 C2.984375 28.3125 2.984375 28.3125 2 30 C-0.31 29.01 -2.62 28.02 -5 27 C-5 26.34 -5 25.68 -5 25 C-3.35 24.67 -1.7 24.34 0 24 C0 22.02 0 20.04 0 18 C-2.64 17.01 -5.28 16.02 -8 15 C-7.67 14.01 -7.34 13.02 -7 12 C-6.34 12 -5.68 12 -5 12 C-5 10.02 -5 8.04 -5 6 C-7.31 5.34 -9.62 4.68 -12 4 C-12 3.01 -12 2.02 -12 1 C-10.56260487 0.97287934 -9.12506137 0.95354933 -7.6875 0.9375 C-6.48673828 0.92009766 -6.48673828 0.92009766 -5.26171875 0.90234375 C-3 1 -3 1 0 2 C0 1.34 0 0.68 0 0 Z " fill="#50BCE7" transform="translate(150,92)"/>
<path d="M0 0 C3.63 0 7.26 0 11 0 C10.33333333 7.33333333 9.66666667 14.66666667 9 22 C8.67 21.01 8.34 20.02 8 19 C5.36 19 2.72 19 0 19 C0 12.73 0 6.46 0 0 Z " fill="#0A587C" transform="translate(37,96)"/>
<path d="M0 0 C4.62 0 9.24 0 14 0 C14 5.96967018 13.75046647 7.19493943 10.6875 11.875 C10.07261719 12.84179688 9.45773438 13.80859375 8.82421875 14.8046875 C8.22222656 15.52914062 7.62023437 16.25359375 7 17 C6.01 17 5.02 17 4 17 C4.99 15.02 5.98 13.04 7 11 C6.57847656 11.6496875 6.15695313 12.299375 5.72265625 12.96875 C5.17480469 13.8040625 4.62695312 14.639375 4.0625 15.5 C3.51722656 16.3353125 2.97195312 17.170625 2.41015625 18.03125 C1.94480469 18.6809375 1.47945313 19.330625 1 20 C0.67 20 0.34 20 0 20 C0 13.4 0 6.8 0 0 Z " fill="#3B9BBB" transform="translate(100,57)"/>
<path d="M0 0 C0 5.61 0 11.22 0 17 C-4.29 17 -8.58 17 -13 17 C-13.32289152 12.96385598 -13.23629571 10.48204325 -11.4375 6.8125 C-8.50178652 3.42513829 -4.75733323 0 0 0 Z " fill="#104161" transform="translate(50,58)"/>
<path d="M0 0 C0.66 0 1.32 0 2 0 C0.66511872 3.59391114 -0.96022723 6.75490696 -3 10 C-2.5875 9.5875 -2.175 9.175 -1.75 8.75 C0.16666667 6.83333333 2.08333333 4.91666667 4 3 C2.125 7.75 2.125 7.75 1 10 C2.32 9.34 3.64 8.68 5 8 C3.75971762 14.17222879 2.10396411 20.06682122 0 26 C-2.31 25.34 -4.62 24.68 -7 24 C-8.07827779 14.34684644 -6.02709331 7.69068015 0 0 Z " fill="#3A7A9B" transform="translate(107,85)"/>
<path d="M0 0 C0.39316406 0.57363281 0.78632812 1.14726562 1.19140625 1.73828125 C2.01318359 2.83076172 2.01318359 2.83076172 2.8515625 3.9453125 C3.29371094 4.53699219 3.73585938 5.12867188 4.19140625 5.73828125 C-7.66550982 7.03569456 -14.22043556 4.26638895 -23.80859375 -2.26171875 C-23.80859375 -2.59171875 -23.80859375 -2.92171875 -23.80859375 -3.26171875 C-4.77093685 -5.4777423 -4.77093685 -5.4777423 0 0 Z " fill="#15799F" transform="translate(63.80859375,143.26171875)"/>
<path d="M0 0 C0.3403125 1.85625 0.3403125 1.85625 0.6875 3.75 C1.48742356 6.93279446 1.967553 7.9657991 4.3125 10.4375 C9.60001466 13.51163643 13.72424122 12.93643852 19.59765625 12.05859375 C22.31926341 11.99221309 23.69961626 12.60276923 26 14 C24.72942818 14.47985967 23.45853152 14.9588593 22.1875 15.4375 C21.12595703 15.83775391 21.12595703 15.83775391 20.04296875 16.24609375 C15.21253506 18.02864385 11.1210685 19.01095527 6 18 C0.78673395 14.83545605 -3.05221477 10.28144854 -6 5 C-6 4.34 -6 3.68 -6 3 C-2.53846154 0 -2.53846154 0 0 0 Z " fill="#8CC2DA" transform="translate(80,138)"/>
<path d="M0 0 C1.32 0 2.64 0 4 0 C4 0.66 4 1.32 4 2 C6.31 2.33 8.62 2.66 11 3 C10.67 3.99 10.34 4.98 10 6 C8.02 6.33 6.04 6.66 4 7 C4.33 9.64 4.66 12.28 5 15 C3.35 15.33 1.7 15.66 0 16 C-0.66 14.02 -1.32 12.04 -2 10 C-5.66305234 9.25073929 -8.42355152 8.7619986 -12 10 C-11.8125 8.16796875 -11.8125 8.16796875 -11 6 C-8.75 4.55078125 -8.75 4.55078125 -6 3.3125 C-2.7706539 1.99958037 -2.7706539 1.99958037 0 0 Z " fill="#53C0EA" transform="translate(121,95)"/>
<path d="M0 0 C8.99484536 3.59793814 8.99484536 3.59793814 12 7 C12.8988007 10.13266209 12.95069987 12.69689119 13 16 C9.04 16 5.08 16 1 16 C0.67 10.72 0.34 5.44 0 0 Z " fill="#083859" transform="translate(150,58)"/>
<path d="M0 0 C2.60314665 1.74724824 4.80989321 3.7632952 7 6 C3.83869364 9.37206012 1.44466888 10.34021853 -3.0625 10.5 C-6.64124048 10.37199736 -7.69901048 10.22932535 -10.625 8 C-11.07875 7.34 -11.5325 6.68 -12 6 C-9.99745469 -0.00763592 -5.98891667 -0.91356356 0 0 Z " fill="#D4F7F9" transform="translate(103,109)"/>
<path d="M0 0 C0.33 0 0.66 0 1 0 C2.91958262 8.39817396 3.22588024 16.40400201 3 25 C1.8553125 25.2165625 1.8553125 25.2165625 0.6875 25.4375 C-2.08172908 25.9632594 -2.08172908 25.9632594 -5 27 C-4.34 19.08 -3.68 11.16 -3 3 C-2.01 3 -1.02 3 0 3 C0 2.01 0 1.02 0 0 Z " fill="#25677F" transform="translate(144,44)"/>
<path d="M0 0 C1.010625 0.0825 2.02125 0.165 3.0625 0.25 C3.7225 1.24 4.3825 2.23 5.0625 3.25 C2.36992408 8.40101481 -0.27603408 10.43638341 -5.6875 12.5546875 C-8.64571165 13.46885707 -10.87972147 13.83243401 -13.9375 13.25 C-15.8125 11.4375 -15.8125 11.4375 -16.9375 9.25 C-16.9375 8.26 -16.9375 7.27 -16.9375 6.25 C-14.6275 5.59 -12.3175 4.93 -9.9375 4.25 C-8.9475 5.735 -8.9475 5.735 -7.9375 7.25 C-6.6175 7.25 -5.2975 7.25 -3.9375 7.25 C-3.958125 6.280625 -3.97875 5.31125 -4 4.3125 C-3.91879622 0.33351457 -3.91879622 0.33351457 0 0 Z " fill="#0A1A27" transform="translate(128.9375,102.75)"/>
<path d="M0 0 C2.97 0.495 2.97 0.495 6 1 C6.33 2.98 6.66 4.96 7 7 C9.47266765 6.65555119 9.47266765 6.65555119 12 6 C12.33 5.34 12.66 4.68 13 4 C15.31 4.66 17.62 5.32 20 6 C19.38722388 8.96175123 18.74627478 10.38058783 17 13 C11.12593371 13.82236928 6.79402343 12.25494432 2 9 C-0.5 6.25 -0.5 6.25 -2 4 C-1.34 2.68 -0.68 1.36 0 0 Z " fill="#151D25" transform="translate(68,103)"/>
<path d="M0 0 C2.1796875 1.1015625 2.1796875 1.1015625 5.3046875 3.1015625 C2.87829162 5.52795838 1.66588161 5.67597245 -1.6953125 6.1015625 C-3.51238183 5.99576516 -5.32668181 5.8270086 -7.1328125 5.6015625 C-10.3823651 5.24872904 -12.76226973 5.1129326 -16.0078125 5.6640625 C-19.3989268 6.21610436 -21.55131921 5.37413121 -24.6953125 4.1015625 C-17.40749329 -1.62458116 -9.01985867 -3.00661956 0 0 Z " fill="#AAE1F5" transform="translate(109.6953125,145.8984375)"/>
<path d="M0 0 C0.625 1.8125 0.625 1.8125 1 4 C0.01 5.485 0.01 5.485 -1 7 C0.11375 7.12375 1.2275 7.2475 2.375 7.375 C6 8 6 8 8 10 C8.1875 13.0625 8.1875 13.0625 8 16 C7 17 7 17 4.4375 17.0625 C3.633125 17.041875 2.82875 17.02125 2 17 C2 17.66 2 18.32 2 19 C0.68 18.67 -0.64 18.34 -2 18 C-1.67 17.01 -1.34 16.02 -1 15 C-1 13.68 -1 12.36 -1 11 C-1.99 11 -2.98 11 -4 11 C-4.66 7.7 -5.32 4.4 -6 1 C-3.525 1.495 -3.525 1.495 -1 2 C-0.67 1.34 -0.34 0.68 0 0 Z " fill="#75DDF6" transform="translate(143,100)"/>
<path d="M0 0 C1.875 0.625 1.875 0.625 4 2 C5.38327396 5.03002866 6.14886672 7.05717747 5.625 10.375 C5.315625 11.179375 5.315625 11.179375 5 12 C1.9890638 9.9927092 1.36983503 9.16115776 0 6 C-0.73605469 6.9384375 -1.47210938 7.876875 -2.23046875 8.84375 C-3.21535803 10.06313673 -4.20107883 11.28185216 -5.1875 12.5 C-5.67025391 13.12003906 -6.15300781 13.74007812 -6.65039062 14.37890625 C-10.35915535 18.90907525 -10.35915535 18.90907525 -13.86328125 19.40625 C-14.56839844 19.2721875 -15.27351563 19.138125 -16 19 C-11.18758925 12.24375275 -5.8702924 5.8702924 0 0 Z " fill="#2C6879" transform="translate(138,32)"/>
<path d="M0 0 C3.08236365 2.78407039 3.95206337 3.80825346 5 8 C-1.27 8 -7.54 8 -14 8 C-14.66 6.02 -15.32 4.04 -16 2 C-10.72 2 -5.44 2 0 2 C0 1.34 0 0.68 0 0 Z " fill="#136F94" transform="translate(53,132)"/>
<path d="M0 0 C3.62528568 -0.20140476 5.86501708 0.14223235 9 2 C9.66 1.34 10.32 0.68 11 0 C13.625 -0.125 13.625 -0.125 16 0 C16.625 2.375 16.625 2.375 17 5 C14.01301414 7.98698586 11.73764683 7.94635296 7.5625 8.25 C3.78964807 7.98523846 2.01848498 7.19526181 -1 5 C-0.67 3.35 -0.34 1.7 0 0 Z " fill="#133042" transform="translate(92,138)"/>
<path d="M0 0 C1.98 0 3.96 0 6 0 C6 5.94 6 11.88 6 18 C4.02 18 2.04 18 0 18 C0 12.06 0 6.12 0 0 Z " fill="#94DEE9" transform="translate(30,106)"/>
<path d="M0 0 C1.98 0 3.96 0 6 0 C6 5.94 6 11.88 6 18 C4.02 18 2.04 18 0 18 C0 12.06 0 6.12 0 0 Z " fill="#81D0E6" transform="translate(164,97)"/>
<path d="M0 0 C1.98 0 3.96 0 6 0 C6 5.94 6 11.88 6 18 C4.02 18 2.04 18 0 18 C0 12.06 0 6.12 0 0 Z " fill="#6FC1E4" transform="translate(30,88)"/>
<path d="M0 0 C0.87785156 -0.02578125 1.75570312 -0.0515625 2.66015625 -0.078125 C3.41167969 0.03015625 4.16320312 0.1384375 4.9375 0.25 C5.5975 1.24 6.2575 2.23 6.9375 3.25 C6.39480469 3.72050781 5.85210937 4.19101563 5.29296875 4.67578125 C4.57753906 5.29839844 3.86210938 5.92101562 3.125 6.5625 C2.41730469 7.17738281 1.70960937 7.79226562 0.98046875 8.42578125 C-0.76386739 9.98334335 -2.43028041 11.57658875 -4.0625 13.25 C-4.73604499 11.81570999 -5.40109701 10.37742943 -6.0625 8.9375 C-6.43375 8.13699219 -6.805 7.33648437 -7.1875 6.51171875 C-8.0625 4.25 -8.0625 4.25 -8.0625 1.25 C-5.14081111 0.2761037 -3.05220526 0.05394177 0 0 Z " fill="#4CA9E0" transform="translate(123.0625,119.75)"/>
<path d="M0 0 C4.29 0 8.58 0 13 0 C13 2.97 13 5.94 13 9 C9.7 9 6.4 9 3 9 C2.01 6.03 1.02 3.06 0 0 Z " fill="#0A4C6E" transform="translate(150,90)"/>
<path d="M0 0 C2.475 0.495 2.475 0.495 5 1 C5.66 2.98 6.32 4.96 7 7 C5.68942607 7.36122881 4.37646376 7.71380311 3.0625 8.0625 C1.96615234 8.35833984 1.96615234 8.35833984 0.84765625 8.66015625 C0.23792969 8.77230469 -0.37179688 8.88445312 -1 9 C-1.33 8.67 -1.66 8.34 -2 8 C-4.18639453 7.92741054 -6.37500389 7.91626217 -8.5625 7.9375 C-9.76003906 7.94652344 -10.95757812 7.95554687 -12.19140625 7.96484375 C-13.58166016 7.98224609 -13.58166016 7.98224609 -15 8 C-15.33 8.66 -15.66 9.32 -16 10 C-16.66 8.35 -17.32 6.7 -18 5 C-16.30230469 4.96132812 -16.30230469 4.96132812 -14.5703125 4.921875 C-13.08850257 4.86560374 -11.60673323 4.80825618 -10.125 4.75 C-9.37863281 4.73582031 -8.63226563 4.72164063 -7.86328125 4.70703125 C-5.42861619 4.64013659 -5.42861619 4.64013659 -2 4 C-0.39662601 2.09371218 -0.39662601 2.09371218 0 0 Z " fill="#7BDFF7" transform="translate(130,113)"/>
<path d="M0 0 C2.64 0 5.28 0 8 0 C8 0.99 8 1.98 8 3 C8.66 3 9.32 3 10 3 C10.33 4.98 10.66 6.96 11 9 C7.37 9 3.74 9 0 9 C0 6.03 0 3.06 0 0 Z " fill="#176585" transform="translate(37,115)"/>
<path d="M0 0 C0.33 0 0.66 0 1 0 C0.9278125 1.09957031 0.855625 2.19914062 0.78125 3.33203125 C0.49021044 7.8864907 0.2350485 12.44232714 0 17 C-0.05671875 18.09957031 -0.1134375 19.19914062 -0.171875 20.33203125 C-0.33372434 26.11814524 0.41484002 29.82968005 3 35 C3 35.99 3 36.98 3 38 C2.34 38 1.68 38 1 38 C-5.04739732 26.43106599 -3.3692224 14.55514934 -1 2 C-0.67 1.34 -0.34 0.68 0 0 Z " fill="#E2EAF0" transform="translate(53,45)"/>
<path d="M0 0 C1.32 0.66 2.64 1.32 4 2 C3.39305845 5.15330554 2.3583335 7.18888867 0.4375 9.75 C-0.01753906 10.36359375 -0.47257812 10.9771875 -0.94140625 11.609375 C-1.29074219 12.06828125 -1.64007813 12.5271875 -2 13 C-2.66 12.34 -3.32 11.68 -4 11 C-4.99 12.32 -5.98 13.64 -7 15 C-7.66 14.67 -8.32 14.34 -9 14 C-7.68918099 11.85312331 -6.37643389 9.70746901 -5.0625 7.5625 C-4.68931641 6.95083984 -4.31613281 6.33917969 -3.93164062 5.70898438 C-1.11328125 1.11328125 -1.11328125 1.11328125 0 0 Z " fill="#3792B4" transform="translate(126,72)"/>
<path d="M0 0 C3.63 0 7.26 0 11 0 C10.67 3.63 10.34 7.26 10 11 C9.67 11 9.34 11 9 11 C9 9.35 9 7.7 9 6 C6.03 6 3.06 6 0 6 C0 4.02 0 2.04 0 0 Z " fill="#165471" transform="translate(37,96)"/>
<path d="M0 0 C4.33869838 -0.25521755 7.96679682 -0.4006298 12.0625 1.1875 C14 3 14 3 14.3125 5.6875 C14.1578125 6.8321875 14.1578125 6.8321875 14 8 C12.88625 7.5359375 12.88625 7.5359375 11.75 7.0625 C7.89841279 5.57438676 4.04716 4.78694778 0 4 C0 2.68 0 1.36 0 0 Z " fill="#12406A" transform="translate(125,64)"/>
<path d="M0 0 C3.63 0.33 7.26 0.66 11 1 C11 3.31 11 5.62 11 8 C8.03 8 5.06 8 2 8 C2 6.68 2 5.36 2 4 C1.34 4 0.68 4 0 4 C0 2.68 0 1.36 0 0 Z " fill="#0D567A" transform="translate(152,98)"/>
<path d="M0 0 C4.21023243 8.07816954 4.327094 18.53626522 1.6875 27.1875 C0.94921875 29.35546875 0.94921875 29.35546875 0 31 C-0.99 31.33 -1.98 31.66 -3 32 C-2.55093073 29.38042928 -2.04265184 27.09738127 -0.97314453 24.65551758 C0.07315377 21.80037794 0.23072111 19.72665498 0.1953125 16.69921875 C0.18564453 15.23452148 0.18564453 15.23452148 0.17578125 13.74023438 C0.15902344 12.73283203 0.14226562 11.72542969 0.125 10.6875 C0.11146484 9.14739258 0.11146484 9.14739258 0.09765625 7.57617188 C0.07416201 5.05054101 0.04131131 2.5253919 0 0 Z " fill="#EEF3F5" transform="translate(147,51)"/>
<path d="M0 0 C1.32 0 2.64 0 4 0 C4 0.66 4 1.32 4 2 C6.31 2.33 8.62 2.66 11 3 C11 3.66 11 4.32 11 5 C10.32195312 4.85820313 9.64390625 4.71640625 8.9453125 4.5703125 C1.7267946 3.43054652 -2.03559899 4.46020473 -8.00390625 8.65234375 C-10 10 -10 10 -12 10 C-11.8125 8.16796875 -11.8125 8.16796875 -11 6 C-8.75 4.55078125 -8.75 4.55078125 -6 3.3125 C-2.7706539 1.99958037 -2.7706539 1.99958037 0 0 Z " fill="#7EE6FA" transform="translate(121,95)"/>
<path d="M0 0 C2.64 0 5.28 0 8 0 C8 2.64 8 5.28 8 8 C5.36 8 2.72 8 0 8 C0 5.36 0 2.72 0 0 Z " fill="#0B5A7E" transform="translate(155,110)"/>
<path d="M0 0 C0.33 0.66 0.66 1.32 1 2 C1.639375 2.2475 2.27875 2.495 2.9375 2.75 C5.9127423 4.55317715 6.14907937 6.7381376 7 10 C3.04 9.67 -0.92 9.34 -5 9 C-5.33 8.01 -5.66 7.02 -6 6 C-5.195625 5.566875 -4.39125 5.13375 -3.5625 4.6875 C-0.72153646 3.19525998 -0.72153646 3.19525998 0 0 Z " fill="#58C7E9" transform="translate(143,81)"/>
<path d="M0 0 C-0.33 3.3 -0.66 6.6 -1 10 C-4.3 10 -7.6 10 -11 10 C-8.90723496 5.93073465 -5.08680655 0 0 0 Z " fill="#073556" transform="translate(50,58)"/>
<path d="M0 0 C2.31 0.33 4.62 0.66 7 1 C7.625 3.875 7.625 3.875 8 7 C6 9 6 9 3.375 9.125 C2.59125 9.08375 1.8075 9.0425 1 9 C-1.09230769 4.56923077 -1.09230769 4.56923077 -0.625 1.6875 C-0.41875 1.130625 -0.2125 0.57375 0 0 Z " fill="#4FB5E6" transform="translate(135,110)"/>
<path d="M0 0 C-0.66 0 -1.32 0 -2 0 C-2.33 0.99 -2.66 1.98 -3 3 C-3 2.34 -3 1.68 -3 1 C-4.60875 1.7425 -4.60875 1.7425 -6.25 2.5 C-9.25416808 3.88653911 -10.45934895 4 -14 4 C-14 2.02 -14 0.04 -14 -2 C-8.64887908 -3.41647318 -4.64323847 -3.09549231 0 0 Z " fill="#4DB3DD" transform="translate(122,106)"/>
<path d="M0 0 C2.97 0.495 2.97 0.495 6 1 C6 3.97 6 6.94 6 10 C4.02 10 2.04 10 0 10 C0 6.7 0 3.4 0 0 Z " fill="#5AB2E1" transform="translate(164,87)"/>
<path d="M0 0 C0.99 0.33 1.98 0.66 3 1 C3 1.66 3 2.32 3 3 C2.53722656 3.44214844 2.07445312 3.88429687 1.59765625 4.33984375 C-3.25043876 9.37759529 -3.7951281 19.33776716 -5 26 C-5.33 26 -5.66 26 -6 26 C-6.48046412 16.80000193 -6.10741295 7.3733753 0 0 Z " fill="#EADDD3" transform="translate(59,29)"/>
<path d="M0 0 C-1.55478653 1.15627814 -3.11919719 2.2996219 -4.6875 3.4375 C-5.55761719 4.07558594 -6.42773438 4.71367188 -7.32421875 5.37109375 C-9.98310742 6.98971649 -11.93887169 7.6083962 -15 8 C-13.125 3.25 -13.125 3.25 -12 1 C-4.35711773 -1.38056989 -4.35711773 -1.38056989 0 0 Z " fill="#50BEE8" transform="translate(125,93)"/>
<path d="M0 0 C1.98 0 3.96 0 6 0 C6 2.97 6 5.94 6 9 C4.02 9 2.04 9 0 9 C0 6.03 0 3.06 0 0 Z " fill="#94DEE9" transform="translate(164,115)"/>
<path d="M0 0 C1.98 0 3.96 0 6 0 C6 2.97 6 5.94 6 9 C4.02 9 2.04 9 0 9 C0 6.03 0 3.06 0 0 Z " fill="#81D0E6" transform="translate(30,106)"/>
<path d="M0 0 C1.98 0 3.96 0 6 0 C6 2.97 6 5.94 6 9 C4.02 9 2.04 9 0 9 C0 6.03 0 3.06 0 0 Z " fill="#6FC1E4" transform="translate(164,97)"/>
<path d="M0 0 C1.98 0 3.96 0 6 0 C6 2.97 6 5.94 6 9 C4.02 9 2.04 9 0 9 C0 6.03 0 3.06 0 0 Z " fill="#5BB2E1" transform="translate(30,88)"/>
<path d="M0 0 C0.33 0 0.66 0 1 0 C1.042721 1.66611905 1.04063832 3.33382885 1 5 C0 6 0 6 -3.25 6.1875 C-6.73221175 6.01338941 -8.90214817 5.50198876 -12 4 C-12 3.01 -12 2.02 -12 1 C-10.56260487 0.97287934 -9.12506137 0.95354933 -7.6875 0.9375 C-6.48673828 0.92009766 -6.48673828 0.92009766 -5.26171875 0.90234375 C-3 1 -3 1 0 2 C0 1.34 0 0.68 0 0 Z " fill="#54C5ED" transform="translate(150,92)"/>
<path d="M0 0 C0.33 0 0.66 0 1 0 C1.05429959 1.74965358 1.09292823 3.49979787 1.125 5.25 C1.14820313 6.22453125 1.17140625 7.1990625 1.1953125 8.203125 C0.99862781 11.0196498 0.44568916 12.60949036 -1 15 C-3.31 14.01 -5.62 13.02 -8 12 C-8 11.34 -8 10.68 -8 10 C-6.35 9.67 -4.7 9.34 -3 9 C-2.690625 7.88625 -2.38125 6.7725 -2.0625 5.625 C-1 2 -1 2 0 0 Z " fill="#52B3E0" transform="translate(153,107)"/>
<path d="M0 0 C3.96 0 7.92 0 12 0 C12.33 1.32 12.66 2.64 13 4 C8.71 4 4.42 4 0 4 C0 2.68 0 1.36 0 0 Z " fill="#073A5B" transform="translate(37,71)"/>
<path d="M0 0 C-1.67028292 3.94794145 -4.1795565 6.81796118 -7 10 C-7.33 10 -7.66 10 -8 10 C-8 7.69 -8 5.38 -8 3 C-8.66 2.67 -9.32 2.34 -10 2 C-6.3558226 -0.4294516 -4.28758728 -0.16179575 0 0 Z " fill="#237194" transform="translate(134,52)"/>
<path d="M0 0 C0.66 0 1.32 0 2 0 C2 0.66 2 1.32 2 2 C2.61488281 1.98839844 3.22976562 1.97679688 3.86328125 1.96484375 C4.67152344 1.95582031 5.47976562 1.94679688 6.3125 1.9375 C7.51326172 1.92009766 7.51326172 1.92009766 8.73828125 1.90234375 C11 2 11 2 14 3 C14 3.99 14 4.98 14 6 C9.71 5.67 5.42 5.34 1 5 C0.67 5.66 0.34 6.32 0 7 C0 4.69 0 2.38 0 0 Z " fill="#79E4FA" transform="translate(136,88)"/>
<path d="M0 0 C0.97066406 -0.01417969 1.94132812 -0.02835938 2.94140625 -0.04296875 C5.4375 0.1875 5.4375 0.1875 7.4375 2.1875 C6.695 2.47625 5.9525 2.765 5.1875 3.0625 C2.87010203 4.01052644 0.65832885 5.03595911 -1.5625 6.1875 C-1.975 5.73375 -2.3875 5.28 -2.8125 4.8125 C-4.62658095 3.12799626 -6.31535627 2.19484029 -8.5625 1.1875 C-5.47951949 0.15983983 -3.23119574 0.02151262 0 0 Z " fill="#204863" transform="translate(100.5625,134.8125)"/>
<path d="M0 0 C-1.95216435 1.95216435 -3.53199953 2.84826645 -6 4 C-5.67 4.66 -5.34 5.32 -5 6 C-5.61875 6.103125 -6.2375 6.20625 -6.875 6.3125 C-9.36526484 6.87525373 -9.36526484 6.87525373 -11 10 C-11.33 7.36 -11.66 4.72 -12 2 C-8.09971775 -0.60018816 -4.52565431 -0.15085514 0 0 Z " fill="#163347" transform="translate(101,132)"/>
<path d="M0 0 C2.64 0 5.28 0 8 0 C8.33 1.65 8.66 3.3 9 5 C6.03 5 3.06 5 0 5 C0 3.35 0 1.7 0 0 Z " fill="#0B5F84" transform="translate(37,115)"/>
<path d="M0 0 C1.84375 0.84375 1.84375 0.84375 3.09375 3.40625 C3.34125 4.210625 3.58875 5.015 3.84375 5.84375 C3.18375 6.50375 2.52375 7.16375 1.84375 7.84375 C1.18375 6.52375 0.52375 5.20375 -0.15625 3.84375 C-1.084375 4.17375 -2.0125 4.50375 -2.96875 4.84375 C-6.15625 5.84375 -6.15625 5.84375 -9.15625 5.84375 C-8.08731782 4.80784662 -7.00046512 3.79041058 -5.90625 2.78125 C-5.30296875 2.21277344 -4.6996875 1.64429687 -4.078125 1.05859375 C-2.15625 -0.15625 -2.15625 -0.15625 0 0 Z " fill="#D9DDDF" transform="translate(140.15625,29.15625)"/>
<path d="M0 0 C1.65 0 3.3 0 5 0 C5.38218767 1.65614657 5.71395102 3.32457024 6 5 C5 6 5 6 1.9375 6.0625 C0.4834375 6.0315625 0.4834375 6.0315625 -1 6 C-0.67 4.02 -0.34 2.04 0 0 Z " fill="#041523" transform="translate(103,138)"/>
<path d="M0 0 C1.2065625 0.0309375 1.2065625 0.0309375 2.4375 0.0625 C2.7675 2.0425 3.0975 4.0225 3.4375 6.0625 C1.4575 6.0625 -0.5225 6.0625 -2.5625 6.0625 C-2.94468767 4.40635343 -3.27645102 2.73792976 -3.5625 1.0625 C-2.5625 0.0625 -2.5625 0.0625 0 0 Z " fill="#051523" transform="translate(94.5625,137.9375)"/>
<path d="M0 0 C2.97 0 5.94 0 9 0 C9 1.32 9 2.64 9 4 C6.03 4 3.06 4 0 4 C0 2.68 0 1.36 0 0 Z " fill="#0A557A" transform="translate(37,102)"/>
<path d="M0 0 C0.33 0 0.66 0 1 0 C1 3.63 1 7.26 1 11 C0.67 10.01 0.34 9.02 0 8 C-2.64 8 -5.28 8 -8 8 C-8 7.01 -8 6.02 -8 5 C-5.36 5 -2.72 5 0 5 C0 3.35 0 1.7 0 0 Z " fill="#226079" transform="translate(45,107)"/>
<path d="M0 0 C0 0.33 0 0.66 0 1 C-10.4581422 2.37155963 -10.4581422 2.37155963 -13.1875 0.5 C-13.785625 0.005 -14.38375 -0.49 -15 -1 C-13.25181409 -1.22304441 -11.50129677 -1.4278645 -9.75 -1.625 C-8.77546875 -1.74101562 -7.8009375 -1.85703125 -6.796875 -1.9765625 C-3.86570607 -2.00112537 -2.45471036 -1.5312717 0 0 Z " fill="#2489AB" transform="translate(75,153)"/>
<path d="M0 0 C0.33 0 0.66 0 1 0 C2.27253436 3.64793184 3.32829194 7.1936543 4 11 C2.02 11 0.04 11 -2 11 C-1.34 7.37 -0.68 3.74 0 0 Z " fill="#53BFEA" transform="translate(135,98)"/>
<path d="M0 0 C3.96 0.33 7.92 0.66 12 1 C12 1.66 12 2.32 12 3 C11.21753906 3.04898438 10.43507812 3.09796875 9.62890625 3.1484375 C8.61699219 3.22320312 7.60507813 3.29796875 6.5625 3.375 C5.55316406 3.44460937 4.54382813 3.51421875 3.50390625 3.5859375 C2.26447266 3.79089844 2.26447266 3.79089844 1 4 C0.67 4.66 0.34 5.32 0 6 C-0.66 6 -1.32 6 -2 6 C-1.34 4.02 -0.68 2.04 0 0 Z " fill="#197095" transform="translate(151,123)"/>
<path d="M0 0 C0 1.65 0 3.3 0 5 C-1.65 5.33 -3.3 5.66 -5 6 C-5.33 4.35 -5.66 2.7 -6 1 C-4 0 -4 0 0 0 Z " fill="#83E6F3" transform="translate(126,105)"/>
<path d="M0 0 C2.97 0.495 2.97 0.495 6 1 C5.67 2.65 5.34 4.3 5 6 C3.35 5.67 1.7 5.34 0 5 C0 3.35 0 1.7 0 0 Z " fill="#F2F3F3" transform="translate(74,105)"/>
<path d="M0 0 C1.65 0.33 3.3 0.66 5 1 C4.34 3.31 3.68 5.62 3 8 C1.35 6.68 -0.3 5.36 -2 4 C-1.34 2.68 -0.68 1.36 0 0 Z " fill="#171C22" transform="translate(68,103)"/>
<path d="M0 0 C0.99 0.33 1.98 0.66 3 1 C5.56634861 1.22718496 8.11678107 1.41608184 10.6875 1.5625 C11.7403418 1.62727539 11.7403418 1.62727539 12.81445312 1.69335938 C14.54275206 1.7991736 16.2713511 1.90006581 18 2 C18 2.33 18 2.66 18 3 C11.565 3.495 11.565 3.495 5 4 C5 4.99 5 5.98 5 7 C4.34 7 3.68 7 3 7 C0.70351351 4.4385343 0 3.52032428 0 0 Z " fill="#EED3BA" transform="translate(82,54)"/>
<path d="M0 0 C1.32 0 2.64 0 4 0 C2.52307692 5.66153846 2.52307692 5.66153846 -0.125 7.375 C-1.053125 7.684375 -1.053125 7.684375 -2 8 C-2 4.79604584 -1.25664978 2.90600261 0 0 Z " fill="#1D637D" transform="translate(122,51)"/>
<path d="M0 0 C3.34998521 1.11666174 3.79340222 1.74694925 5.6875 4.5625 C6.12449219 5.20316406 6.56148438 5.84382813 7.01171875 6.50390625 C7.33785156 6.99761719 7.66398437 7.49132813 8 8 C7.01 9.485 7.01 9.485 6 11 C4.99126984 9.73608512 3.99328178 8.46359117 3 7.1875 C2.443125 6.47980469 1.88625 5.77210937 1.3125 5.04296875 C0 3 0 3 0 0 Z " fill="#E1DDDA" transform="translate(75,45)"/>
<path d="M0 0 C0.598125 0.350625 1.19625 0.70125 1.8125 1.0625 C-0.1675 4.0325 -0.1675 4.0325 -2.1875 7.0625 C-3.39378008 4.73035852 -4.3529738 2.56607861 -5.1875 0.0625 C-2.1875 -0.9375 -2.1875 -0.9375 0 0 Z " fill="#081724" transform="translate(132.1875,103.9375)"/>
<path d="M0 0 C0.80824219 0.10183594 1.61648437 0.20367187 2.44921875 0.30859375 C3.06410156 0.39238281 3.67898437 0.47617188 4.3125 0.5625 C3.9825 1.2225 3.6525 1.8825 3.3125 2.5625 C0.0125 2.5625 -3.2875 2.5625 -6.6875 2.5625 C-7.0175 1.9025 -7.3475 1.2425 -7.6875 0.5625 C-4.59271121 -0.46909626 -3.16118607 -0.41232862 0 0 Z " fill="#387292" transform="translate(101.6875,150.4375)"/>
<path d="M0 0 C0.33 0 0.66 0 1 0 C1 1.98 1 3.96 1 6 C3.64 6 6.28 6 9 6 C9 6.66 9 7.32 9 8 C5.7 8 2.4 8 -1 8 C-0.67 5.36 -0.34 2.72 0 0 Z " fill="#196A8E" transform="translate(154,112)"/>
<path d="M0 0 C0.625 1.875 0.625 1.875 1 4 C0.34 4.66 -0.32 5.32 -1 6 C-1.69748583 7.31747324 -2.36959957 8.64914193 -3 10 C-4.23921302 7.02588876 -5.30058404 4.14737182 -6 1 C-3.525 1.495 -3.525 1.495 -1 2 C-0.67 1.34 -0.34 0.68 0 0 Z " fill="#88EFFD" transform="translate(143,100)"/>
<path d="M0 0 C0.99 0.33 1.98 0.66 3 1 C3 1.66 3 2.32 3 3 C2 4 1 5 0 6 C-1.17574711 8.09989652 -1.17574711 8.09989652 -2 10 C-2.66 8.68 -3.32 7.36 -4 6 C-2.68 4.02 -1.36 2.04 0 0 Z " fill="#D1C7C0" transform="translate(59,29)"/>
<path d="M0 0 C0.33 0.99 0.66 1.98 1 3 C3.01508358 3.73323796 3.01508358 3.73323796 5 4 C5 4.66 5 5.32 5 6 C4.01 6 3.02 6 2 6 C2 6.66 2 7.32 2 8 C0.68 7.67 -0.64 7.34 -2 7 C-1.34 4.69 -0.68 2.38 0 0 Z " fill="#8CEDFC" transform="translate(143,111)"/>
<path d="M0 0 C-2.625 2.125 -2.625 2.125 -6 4 C-9.375 3.25 -9.375 3.25 -12 2 C-7.72170329 -0.29194467 -4.74957752 -1.52664992 0 0 Z " fill="#4DB8E0" transform="translate(125,93)"/>
<path d="M0 0 C2.31 0 4.62 0 7 0 C5.63016497 3.16115776 5.0109362 3.9927092 2 6 C1.34 4.02 0.68 2.04 0 0 Z " fill="#2780A5" transform="translate(127,52)"/>
<path d="M0 0 C0.33 1.32 0.66 2.64 1 4 C-1.4375 6.75 -1.4375 6.75 -4 9 C-4.66 8.34 -5.32 7.68 -6 7 C-4.02 4.69 -2.04 2.38 0 0 Z " fill="#D8E0E5" transform="translate(124,44)"/>
<path d="M0 0 C0.66 0 1.32 0 2 0 C1.38479725 3.99881788 -0.60268669 6.80358226 -3 10 C-3.66 10 -4.32 10 -5 10 C-3.66749209 6.4124787 -2.169283 3.1635377 0 0 Z " fill="#369BBD" transform="translate(114,64)"/>
<path d="M0 0 C4.24822374 0.47202486 6.19989709 2.96655518 9 6 C8.34 6.66 7.68 7.32 7 8 C5.29115995 6.37660195 3.62553283 4.70680947 2 3 C2 2.34 2 1.68 2 1 C1.34 0.67 0.68 0.34 0 0 Z " fill="#EBE6E2" transform="translate(60,30)"/>
<path d="M0 0 C0.33 0 0.66 0 1 0 C1.33 2.31 1.66 4.62 2 7 C0.02 7.99 0.02 7.99 -2 9 C-2.33 8.34 -2.66 7.68 -3 7 C-2.06421005 4.64018187 -1.06652192 2.30368736 0 0 Z " fill="#435967" transform="translate(73,104)"/>
<path d="M0 0 C2.0625 0.4375 2.0625 0.4375 4 1 C3.01 1.495 3.01 1.495 2 2 C2.33 3.65 2.66 5.3 3 7 C1.68 7.33 0.36 7.66 -1 8 C-1.04241723 5.66705225 -1.04092937 3.33297433 -1 1 C-0.67 0.67 -0.34 0.34 0 0 Z " fill="#305E75" transform="translate(126,103)"/>
<path d="M0 0 C0.99 0.33 1.98 0.66 3 1 C2.1875 3.9375 2.1875 3.9375 1 7 C0.01 7.33 -0.98 7.66 -2 8 C-1.47731534 5.23723823 -0.89130413 2.6739124 0 0 Z " fill="#D3E0E5" transform="translate(146,75)"/>
<path d="M0 0 C0.99 0.33 1.98 0.66 3 1 C1.41328692 3.38006962 0.12153042 5.14366088 -2 7 C-2.66 7 -3.32 7 -4 7 C-2.79618552 4.50638429 -1.54571278 2.31856917 0 0 Z " fill="#41A6C6" transform="translate(111,57)"/>
<path d="M0 0 C1.65 0 3.3 0 5 0 C3.68 2.31 2.36 4.62 1 7 C0.67 7 0.34 7 0 7 C0 4.69 0 2.38 0 0 Z " fill="#3BA1C2" transform="translate(100,57)"/>
<path d="M0 0 C-2.38573379 1.89213369 -4.07175348 3.02391783 -7 4 C-7.33 2.68 -7.66 1.36 -8 0 C-4.71303767 -0.79953138 -3.28976808 -1.09658936 0 0 Z " fill="#103046" transform="translate(130,111)"/>
<path d="M0 0 C0.33 0.66 0.66 1.32 1 2 C3.52733235 2.65555119 3.52733235 2.65555119 6 3 C5.38125 3.28875 4.7625 3.5775 4.125 3.875 C1.86674235 4.93720042 1.86674235 4.93720042 0 7 C0 6.34 0 5.68 0 5 C-0.99 4.67 -1.98 4.34 -3 4 C-2.01 2.68 -1.02 1.36 0 0 Z " fill="#43A0CC" transform="translate(133,106)"/>
<path d="M0 0 C0.66 0 1.32 0 2 0 C2 0.66 2 1.32 2 2 C3.32 2.33 4.64 2.66 6 3 C5.38125 3.28875 4.7625 3.5775 4.125 3.875 C1.86674235 4.93720042 1.86674235 4.93720042 0 7 C0 4.69 0 2.38 0 0 Z " fill="#87EFFE" transform="translate(136,88)"/>
<path d="M0 0 C0.99 0.33 1.98 0.66 3 1 C0.525 4.465 0.525 4.465 -2 8 C-2.66 7.67 -3.32 7.34 -4 7 C-2.68 4.69 -1.36 2.38 0 0 Z " fill="#3488AD" transform="translate(115,82)"/>
<path d="M0 0 C0.66 0 1.32 0 2 0 C2 0.66 2 1.32 2 2 C4.31 2 6.62 2 9 2 C8.67 2.66 8.34 3.32 8 4 C4.7 3.67 1.4 3.34 -2 3 C-1.34 2.01 -0.68 1.02 0 0 Z " fill="#2089AF" transform="translate(123,154)"/>
<path d="M0 0 C2.5654594 2.5654594 2.54046087 4.47686668 3 8 C2.34 8 1.68 8 1 8 C-1 5 -1 5 -0.625 2.3125 C-0.41875 1.549375 -0.2125 0.78625 0 0 Z " fill="#E2D8CF" transform="translate(53,75)"/>
<path d="M0 0 C0.99 0.33 1.98 0.66 3 1 C1.35 3.64 -0.3 6.28 -2 9 C-3 5 -3 5 -1.5625 2.25 C-1.046875 1.5075 -0.53125 0.765 0 0 Z " fill="#358EB2" transform="translate(103,75)"/>
<path d="M0 0 C0 3.59857954 -0.95830515 5.09451118 -3 8 C-3.66 8 -4.32 8 -5 8 C-3.8141763 4.62496331 -2.72426311 2.35277269 0 0 Z " fill="#31729A" transform="translate(105,100)"/>
</svg>
