<?xml version="1.0" encoding="UTF-8"?>
<svg version="1.1" xmlns="http://www.w3.org/2000/svg" width="200" height="200">
<path d="M0 0 C1.25296875 0.4125 2.5059375 0.825 3.796875 1.25 C28.74462541 10.06760046 48.21993996 28.50355897 60.08447266 52.01074219 C70.70512729 75.08730057 73.09510894 102.81586203 65 127 C64.5875 128.25296875 64.175 129.5059375 63.75 130.796875 C54.93239954 155.74462541 36.49644103 175.21993996 12.98925781 187.08447266 C-10.08730057 197.70512729 -37.81586203 200.09510894 -62 192 C-63.87945312 191.38125 -63.87945312 191.38125 -65.796875 190.75 C-90.74462541 181.93239954 -110.21993996 163.49644103 -122.08447266 139.98925781 C-132.70512729 116.91269943 -135.09510894 89.18413797 -127 65 C-126.5875 63.74703125 -126.175 62.4940625 -125.75 61.203125 C-116.93239954 36.25537459 -98.49644103 16.78006004 -74.98925781 4.91552734 C-51.91269943 -5.70512729 -24.18413797 -8.09510894 0 0 Z " fill="#FF8D00" transform="translate(131,4)"/>
<path d="M0 0 C8 1 8 1 11 2 C9.98408579 7.46864457 8.92908943 12.76390013 7 18 C8.6396875 18.2165625 8.6396875 18.2165625 10.3125 18.4375 C14 19 14 19 17 20 C17.07347656 19.12988281 17.07347656 19.12988281 17.1484375 18.2421875 C17.59649405 13.56076908 18.298021 9.42514541 20 5 C23.37992169 5.53771481 26.68737889 6.14303932 30 7 C29.48517081 12.852795 28.54642808 18.3297637 27 24 C27.54527344 24.14695312 28.09054688 24.29390625 28.65234375 24.4453125 C34.89578423 26.30233582 39.75713396 29.17010495 45 33 C43.63629701 35.99220268 42.05091917 38.29026529 39.875 40.75 C39.33617187 41.36359375 38.79734375 41.9771875 38.2421875 42.609375 C37.83226562 43.06828125 37.42234375 43.5271875 37 44 C35.92363281 43.46890625 34.84726563 42.9378125 33.73828125 42.390625 C20.04958823 35.72427876 7.51588502 30.32786202 -8 32 C-8.99 32.66 -9.98 33.32 -11 34 C-11.62537898 38.69034237 -10.7321941 41.21920262 -8 45 C-5.40531682 47.01074146 -5.40531682 47.01074146 -2.3125 48.75 C-1.46788208 49.25370117 -1.46788208 49.25370117 -0.60620117 49.76757812 C2.58244764 51.65290417 5.8136337 53.45523393 9.0625 55.234375 C32.18198389 67.89849859 32.18198389 67.89849859 37 80 C38.18018956 85.55979925 37.11320974 90.31312892 34.31640625 95.21484375 C29.84057 101.28444958 23.15928416 103.52481609 16 105 C12.32541714 105.47909118 8.70210741 105.76268542 5 106 C3.68 110.95 2.36 115.9 1 121 C-6.875 119.875 -6.875 119.875 -10 119 C-9.27275406 113.47293087 -7.66554027 108.30039859 -6 103 C-7.093125 102.855625 -8.18625 102.71125 -9.3125 102.5625 C-13 102 -13 102 -16 101 C-16.185625 102.7634375 -16.185625 102.7634375 -16.375 104.5625 C-16.86435935 108.54120426 -17.8055205 112.17766559 -19 116 C-22.63 115.34 -26.26 114.68 -30 114 C-28 102.28571429 -28 102.28571429 -26 97 C-26.67933594 96.90460938 -27.35867187 96.80921875 -28.05859375 96.7109375 C-31.66524648 95.83921002 -34.78276365 94.30834294 -38.0625 92.625 C-38.67416016 92.32078125 -39.28582031 92.0165625 -39.91601562 91.703125 C-43.180424 90.05151082 -46.1593562 88.30935132 -49 86 C-47.49087042 81.01987239 -44.44338151 77.75740058 -41 74 C-40.3915625 74.35191406 -39.783125 74.70382813 -39.15625 75.06640625 C-24.82202339 83.13994859 -9.91622363 90.89557683 7 89 C9.99352294 88.06905339 10.78635606 87.39811426 13 85 C14.16815292 81.63239046 14.16815292 81.63239046 13 78 C7.58619535 71.62405531 -0.04764356 68.01726336 -7.3125 64.1875 C-30.04724203 51.80528803 -30.04724203 51.80528803 -34.48046875 40.9296875 C-36.05409027 35.08480755 -35.38978384 30.20749247 -32.4765625 24.89453125 C-29.09385628 20.5542865 -24.16189353 17.72063118 -19 16 C-16.42502932 15.92964561 -13.88550071 15.9065066 -11.3125 15.9375 C-7.6928125 15.9684375 -7.6928125 15.9684375 -4 16 C-2.68 10.72 -1.36 5.44 0 0 Z " fill="#FFFCF9" transform="translate(102,40)"/>
</svg>
