<?xml version="1.0" encoding="UTF-8"?>
<svg version="1.1" xmlns="http://www.w3.org/2000/svg" width="200" height="200">
<path d="M0 0 C1.25296875 0.4125 2.5059375 0.825 3.796875 1.25 C28.74462541 10.06760046 48.21993996 28.50355897 60.08447266 52.01074219 C70.70512729 75.08730057 73.09510894 102.81586203 65 127 C64.5875 128.25296875 64.175 129.5059375 63.75 130.796875 C54.93239954 155.74462541 36.49644103 175.21993996 12.98925781 187.08447266 C-10.08730057 197.70512729 -37.81586203 200.09510894 -62 192 C-63.87945312 191.38125 -63.87945312 191.38125 -65.796875 190.75 C-90.74462541 181.93239954 -110.21993996 163.49644103 -122.08447266 139.98925781 C-132.70512729 116.91269943 -135.09510894 89.18413797 -127 65 C-126.5875 63.74703125 -126.175 62.4940625 -125.75 61.203125 C-116.93239954 36.25537459 -98.49644103 16.78006004 -74.98925781 4.91552734 C-51.91269943 -5.70512729 -24.18413797 -8.09510894 0 0 Z " fill="#FF8401" transform="translate(131,4)"/>
<path d="M0 0 C1.734375 1.2578125 1.734375 1.2578125 3 3 C3.29296875 5.26171875 3.29296875 5.26171875 3.1875 7.6875 C3.14689453 8.89986328 3.14689453 8.89986328 3.10546875 10.13671875 C3.05326172 11.05904297 3.05326172 11.05904297 3 12 C3.474375 11.505 3.94875 11.01 4.4375 10.5 C8.2362999 8.27631225 11.69930689 8.3068207 16 9 C19.18970398 10.73983854 21.44695493 12.44695493 24 15 C24.125 17.375 24.125 17.375 23 20 C20.46544483 21.65946665 17.8007053 22.85802677 15 24 C17.22066873 26.22066873 19.27181275 27.25486871 22.0625 28.6875 C37.00986474 36.75556911 49.47043503 48.8722335 55.4375 65 C58.44028519 75.07427933 57.57319625 83.54677963 53 93 C51.46335794 95.50302885 49.83986941 97.70016324 48 100 C55.39426196 100.63258895 60.42670754 99.88348321 66.90625 96.19140625 C69 95 69 95 72 94 C73.14209817 92.21771064 73.14209817 92.21771064 74 90 C74.3403125 89.26523438 74.680625 88.53046875 75.03125 87.7734375 C78.59387099 77.57399838 75.52862999 65.6509177 73.5 55.4375 C68.60304038 30.56272396 68.60304038 30.56272396 72.9375 22.4375 C77.64601877 16.31509174 84.47864412 12.44641459 92 11 C94.9375 10.875 94.9375 10.875 97 11 C93.24546929 12.9467937 89.37359823 14.46396167 85.4375 16 C80.69538551 17.69294366 80.69538551 17.69294366 77.8125 21.5 C77.544375 22.325 77.27625 23.15 77 24 C76.67 24.66 76.34 25.32 76 26 C75.22390413 35.14917442 76.74077708 42.77786718 79.5 51.4375 C83.29728487 64.43633246 86.71129131 80.0234523 80.9375 93 C76.04360667 100.57323158 69.53759289 104.42684604 61 107 C56.84546876 107.81086407 52.9134939 108.12834486 48.68359375 108.1328125 C47.50732422 108.13410156 46.33105469 108.13539063 45.11914062 108.13671875 C43.90419922 108.13285156 42.68925781 108.12898438 41.4375 108.125 C40.21869141 108.12886719 38.99988281 108.13273437 37.74414062 108.13671875 C35.98166992 108.13478516 35.98166992 108.13478516 34.18359375 108.1328125 C32.58342407 108.13112061 32.58342407 108.13112061 30.95092773 108.12939453 C28 108 28 108 25.61495972 107.50474548 C23.08938913 107.01725409 20.77758496 106.84419585 18.2097168 106.79467773 C17.28913986 106.77473251 16.36856293 106.75478729 15.42008972 106.73423767 C14.4397023 106.71752518 13.45931488 106.70081268 12.44921875 106.68359375 C10.92830376 106.6524221 10.92830376 106.6524221 9.37666321 106.62062073 C6.14700915 106.55538886 2.91727579 106.49636298 -0.3125 106.4375 C-2.50586748 106.39428971 -4.69922703 106.35067462 -6.89257812 106.30664062 C-12.26163562 106.19973456 -17.6307715 106.09791979 -23 106 C-22.20019464 101.36902821 -19.68945106 99.78591202 -16 97 C-11.43359013 94.71679507 -5.10220726 95.48197758 -0.2734375 96.671875 C1.8496436 97.38630864 3.93122678 98.14184222 6 99 C5.71125 98.29617187 5.4225 97.59234375 5.125 96.8671875 C2.07671739 88.7596025 -0.48093588 79.28808634 2.84765625 70.8515625 C5.95082936 66.53867784 10.07539045 65.83467959 15 65 C9.27657539 64.54329447 9.27657539 64.54329447 4.125 66.6875 C-1.45369136 72.75842884 -0.31106655 80.24999913 0 88 C0.22262671 90.38474711 0.55163908 92.6461052 1 95 C-7.67821097 90.34339899 -12.87055912 81.11826936 -16 72 C-16.58504224 69.6225672 -17.0908566 67.26004396 -17.5078125 64.84765625 C-17.89600167 62.76982231 -17.89600167 62.76982231 -20 61 C-26.50074159 60.33890763 -29.55962357 61.51815908 -35 65 C-35.66 65 -36.32 65 -37 65 C-35.68954637 61.06863911 -34.16791954 58.68793173 -31 56 C-27.52674819 54.8422494 -24.63932552 54.93133348 -21 55 C-24.79477295 45.82529578 -30.7030775 35.64846125 -40 31 C-39.67 33.31 -39.34 35.62 -39 38 C-39.66 38 -40.32 38 -41 38 C-41.12117188 37.36191406 -41.24234375 36.72382812 -41.3671875 36.06640625 C-41.61855469 34.82697266 -41.61855469 34.82697266 -41.875 33.5625 C-42.03742187 32.73878906 -42.19984375 31.91507813 -42.3671875 31.06640625 C-42.57601562 30.38449219 -42.78484375 29.70257813 -43 29 C-43.66 28.67 -44.32 28.34 -45 28 C-45 30.64 -45 33.28 -45 36 C-45.66 35.67 -46.32 35.34 -47 35 C-47 32.36 -47 29.72 -47 27 C-47.66 26.67 -48.32 26.34 -49 26 C-49 25.34 -49 24.68 -49 24 C-48.01 24 -47.02 24 -46 24 C-46.020625 23.05125 -46.04125 22.1025 -46.0625 21.125 C-46 18 -46 18 -45 16 C-44.34 16.33 -43.68 16.66 -43 17 C-43 18.65 -43 20.3 -43 22 C-42.34 22 -41.68 22 -41 22 C-40.67 20.02 -40.34 18.04 -40 16 C-39.01 16 -38.02 16 -37 16 C-37.99 17.98 -38.98 19.96 -40 22 C-39.44054688 21.7834375 -38.88109375 21.566875 -38.3046875 21.34375 C-30.81542583 18.74297746 -23.87027546 18.69380773 -16 19 C-16.04640625 18.20335938 -16.0928125 17.40671875 -16.140625 16.5859375 C-16.47235056 6.84742275 -16.47235056 6.84742275 -14.25 3.375 C-9.89334269 -1.22369383 -6.06524158 -1.85568993 0 0 Z " fill="#FFFDFB" transform="translate(78,46)"/>
<path d="M0 0 C0.66 0.66 1.32 1.32 2 2 C1.32453125 2.08636719 0.6490625 2.17273438 -0.046875 2.26171875 C-0.93890625 2.40222656 -1.8309375 2.54273437 -2.75 2.6875 C-4.07257813 2.87892578 -4.07257813 2.87892578 -5.421875 3.07421875 C-8.92416447 4.33185906 -10.09428023 5.82818135 -12 9 C-13.40427378 17.85687636 -11.60372477 26.5378945 -9 35 C-10.65 34.67 -12.3 34.34 -14 34 C-16.21330451 25.42344501 -18.15118603 15.09235564 -14.6171875 6.7265625 C-10.78684349 0.26863951 -7.09528148 -0.69789654 0 0 Z " fill="#FF921F" transform="translate(93,110)"/>
<path d="M0 0 C-3.75453071 1.9467937 -7.62640177 3.46396167 -11.5625 5 C-14.86590061 6.33132487 -14.86590061 6.33132487 -18 8 C-18.33 8.99 -18.66 9.98 -19 11 C-21.0625 11.6875 -21.0625 11.6875 -23 12 C-20.87787872 6.81259243 -16.74254697 4.64772737 -12 2 C-7.86386778 0.48341818 -4.39839007 -0.2665691 0 0 Z " fill="#FFDCB7" transform="translate(175,57)"/>
<path d="M0 0 C1.65 0.33 3.3 0.66 5 1 C4.67 2.32 4.34 3.64 4 5 C2.35 4.67 0.7 4.34 -1 4 C-0.67 2.68 -0.34 1.36 0 0 Z " fill="#FF8605" transform="translate(57,70)"/>
</svg>
