<?xml version="1.0" encoding="UTF-8"?>
<svg version="1.1" xmlns="http://www.w3.org/2000/svg" width="92" height="92">
<path d="M0 0 C10.02332063 7.30942515 17.6463475 16.79851899 20.25 29.25 C21.6939297 45.62914186 18.96217358 58.38013856 8.578125 71.3359375 C2.19458426 78.45604064 -8.09927042 84.57553758 -17.7578125 85.42700195 C-34.63084552 85.91537041 -46.99844032 83.29450178 -59.875 71.75 C-69.8679957 61.41656156 -72.23936298 48.89328247 -72.02734375 35.1015625 C-71.53324099 22.40238407 -65.22164587 11.86695986 -56.234375 3.17578125 C-39.95683645 -9.44187049 -17.56264294 -10.89479206 0 0 Z " fill="#B89F33" transform="translate(71.75,6.75)"/>
<path d="M0 0 C0.66 0 1.32 0 2 0 C2.16532721 11.18714122 2.16532721 11.18714122 1.25 15.6875 C0.98197674 19.23880815 1.35711744 20.03481974 2.9375 23.0625 C6.35640865 29.92389599 5.72218106 37.9044094 4.41796875 45.30078125 C3.73938557 47.96111749 3.73938557 47.96111749 5 50 C5.23172827 52.54615009 5.41894529 55.07396225 5.5625 57.625 C5.60568359 58.33140625 5.64886719 59.0378125 5.69335938 59.765625 C5.79944751 61.51018537 5.90022889 63.25506697 6 65 C4.46101439 65.79686606 2.91866216 66.58723141 1.375 67.375 C0.08722656 68.03628906 0.08722656 68.03628906 -1.2265625 68.7109375 C-10.10901439 72.83940105 -20.45028676 73.89896215 -29.8984375 70.9140625 C-38.29107143 67.70892857 -38.29107143 67.70892857 -40 66 C-40.09854655 64.35659133 -40.12972411 62.7088539 -40.125 61.0625 C-40.12757812 60.16660156 -40.13015625 59.27070312 -40.1328125 58.34765625 C-40 56 -40 56 -39 54 C-38.01 54 -37.02 54 -36 54 C-36 54.66 -36 55.32 -36 56 C-35.1646875 56.0928125 -35.1646875 56.0928125 -34.3125 56.1875 C-32 57 -32 57 -29.6875 59.625 C-27.19795624 62.38750219 -27.19795624 62.38750219 -23.8125 61.8125 C-22.554375 61.544375 -21.29625 61.27625 -20 61 C-17.37231341 61.01972738 -14.76076646 61.12118521 -12.13671875 61.2578125 C-11.43160156 61.17273438 -10.72648437 61.08765625 -10 61 C-9.34 60.01 -8.68 59.02 -8 58 C-8.7734375 58.495 -8.7734375 58.495 -9.5625 59 C-13.425513 60.58482585 -16.9396403 60.74004757 -20.9140625 59.3125 C-23.01652433 58.30733897 -24.99965753 57.19577668 -27 56 C-28.17175781 55.31164062 -28.17175781 55.31164062 -29.3671875 54.609375 C-34.11569058 51.65129112 -37.31501821 49.04776577 -40 44 C-40.6496875 42.8553125 -40.6496875 42.8553125 -41.3125 41.6875 C-42.16296546 38.36295319 -41.76528187 35.77645267 -41.3046875 32.40625 C-40.50187664 26.06610266 -40.1624322 21.37259493 -44 16 C-45.32157924 12.39569299 -45.07313094 8.80280908 -45 5 C-40.87062923 5.57187329 -38.26012171 6.99618116 -34.75 9.1875 C-27.44718178 12.90201989 -20.75022251 12.72406209 -12.94433594 10.71484375 C-7.90516756 8.8621711 -4.39001356 5.0099466 -1 1 C-0.67 0.67 -0.34 0.34 0 0 Z " fill="#E2D6C2" transform="translate(64,16)"/>
<path d="M0 0 C10.02332063 7.30942515 17.6463475 16.79851899 20.25 29.25 C21.6939297 45.62914186 18.96217358 58.38013856 8.578125 71.3359375 C2.19458426 78.45604064 -8.09927042 84.57553758 -17.7578125 85.42700195 C-34.63084552 85.91537041 -46.99844032 83.29450178 -59.875 71.75 C-69.8679957 61.41656156 -72.23936298 48.89328247 -72.02734375 35.1015625 C-71.53324099 22.40238407 -65.22164587 11.86695986 -56.234375 3.17578125 C-39.95683645 -9.44187049 -17.56264294 -10.89479206 0 0 Z M-55.5703125 8.91796875 C-56.97100003 10.2029869 -56.97100003 10.2029869 -56.75 12.25 C-57.74 12.58 -58.73 12.91 -59.75 13.25 C-61.08984531 15.51135465 -62.25311743 17.6975145 -63.375 20.0625 C-63.68695313 20.69220703 -63.99890625 21.32191406 -64.3203125 21.97070312 C-69.18490662 31.96199233 -69.11150594 43.07353272 -65.79296875 53.65234375 C-62.8488732 60.98501619 -58.72629246 67.08865651 -52.75 72.25 C-52.09 72.25 -51.43 72.25 -50.75 72.25 C-50.16734375 72.85328125 -49.5846875 73.4565625 -48.984375 74.078125 C-42.94923183 79.94445298 -33.9421641 81.76663804 -25.75 81.875 C-13.49596396 81.68417289 -3.67184693 76.70748823 5.11328125 68.51171875 C13.74525444 59.58400343 16.55645104 48.315573 16.39453125 36.23046875 C15.86339302 25.2775372 10.64653137 14.43333665 2.59375 7 C-15.72326447 -6.67670413 -38.3722472 -6.10061823 -55.5703125 8.91796875 Z " fill="#97822C" transform="translate(71.75,6.75)"/>
<path d="M0 0 C0.66 0.33 1.32 0.66 2 1 C2.4140625 3.06640625 2.4140625 3.06640625 2.625 5.5625 C2.69976562 6.38878906 2.77453125 7.21507812 2.8515625 8.06640625 C2.90054687 8.70449219 2.94953125 9.34257812 3 10 C3.66 10 4.32 10 5 10 C5.20496094 10.56589844 5.40992187 11.13179687 5.62109375 11.71484375 C5.89050781 12.44832031 6.15992187 13.18179687 6.4375 13.9375 C6.70433594 14.66839844 6.97117187 15.39929688 7.24609375 16.15234375 C7.85386948 17.98305678 7.85386948 17.98305678 9 19 C9.1328125 20.75 9.1328125 20.75 9.125 23 C9.12371094 23.81597656 9.12242188 24.63195312 9.12109375 25.47265625 C9.00601374 27.87448735 8.6290415 30.07840686 8.1875 32.4375 C7.51818714 38.15163367 9.61552565 42.47451835 13 47 C15.78524927 49.4681431 18.72833616 51.24634434 22 53 C22.69738281 53.4125 23.39476562 53.825 24.11328125 54.25 C28.52886843 56.71929924 31.84432122 57.58366175 37 57 C39.83378132 56.1025173 39.83378132 56.1025173 42 55 C40.125 58.875 40.125 58.875 39 60 C35.72941715 60.07298372 32.46990381 59.9961013 29.19921875 59.9375 C26.12214364 59.85187336 26.12214364 59.85187336 23.7734375 60.6796875 C23.18820313 60.78539062 22.60296875 60.89109375 22 61 C20.40234375 59.8203125 20.40234375 59.8203125 18.9375 58.125 C16.83429438 55.72611826 16.15110537 55.05036846 13 54 C13 53.34 13 52.68 13 52 C12.01 52 11.02 52 10 52 C9.67 55.96 9.34 59.92 9 64 C8.01 63.01 7.02 62.02 6 61 C5.02546875 60.52433594 5.02546875 60.52433594 4.03125 60.0390625 C-2.96762551 56.45886849 -7.2491898 48.15238431 -9.68359375 40.98828125 C-13.1195588 28.16857716 -11.14566977 16.41919212 -4.84765625 4.890625 C-3.43764636 2.65589235 -2.39131133 1.19565566 0 0 Z " fill="#B8A033" transform="translate(15,18)"/>
<path d="M0 0 C0.66 0 1.32 0 2 0 C2.16431535 11.1186722 2.16431535 11.1186722 1.3125 15.6875 C0.88035491 20.26823792 2.30889954 23.7865802 4 28 C3.01 27.67 2.02 27.34 1 27 C1 26.34 1 25.68 1 25 C-3.62 25.33 -8.24 25.66 -13 26 C-11 23 -11 23 -8 22 C-8 21.01 -8 20.02 -8 19 C-10.64 18.67 -13.28 18.34 -16 18 C-16.33 18.99 -16.66 19.98 -17 21 C-17.515625 20.690625 -18.03125 20.38125 -18.5625 20.0625 C-21.66665423 18.70940713 -24.65115007 18.38640576 -28 18 C-28.66 19.98 -29.32 21.96 -30 24 C-28.35 24.33 -26.7 24.66 -25 25 C-25 25.99 -25 26.98 -25 28 C-28.96 28 -32.92 28 -37 28 C-38.65554702 31.31109404 -39.2793272 32.79327201 -39.625 36.25 C-39.74875 37.4875 -39.8725 38.725 -40 40 C-40.66 39.67 -41.32 39.34 -42 39 C-41.835 37.700625 -41.67 36.40125 -41.5 35.0625 C-40.19929142 25.01766821 -40.19929142 25.01766821 -44 16 C-45.32157924 12.39569299 -45.07313094 8.80280908 -45 5 C-40.87062923 5.57187329 -38.26012171 6.99618116 -34.75 9.1875 C-27.44718178 12.90201989 -20.75022251 12.72406209 -12.94433594 10.71484375 C-7.90516756 8.8621711 -4.39001356 5.0099466 -1 1 C-0.67 0.67 -0.34 0.34 0 0 Z " fill="#D6BC91" transform="translate(64,16)"/>
<path d="M0 0 C7.42857143 -0.28571429 7.42857143 -0.28571429 11 2 C11.33 1.34 11.66 0.68 12 0 C14.64 0.33 17.28 0.66 20 1 C20.495 2.98 20.495 2.98 21 5 C19.35 5.66 17.7 6.32 16 7 C18.64 7 21.28 7 24 7 C24 9.97 24 12.94 24 16 C22.68 16.33 21.36 16.66 20 17 C19.67 17.66 19.34 18.32 19 19 C18.34 19 17.68 19 17 19 C16.01 17.02 15.02 15.04 14 13 C9.85906302 12.79029441 9.85906302 12.79029441 6 14 C6 14.928125 6 15.85625 6 16.8125 C6 18.875 6 20.9375 6 23 C4.68 23.33 3.36 23.66 2 24 C1.15901344 28.01804691 0.94595055 31.01803543 2 35 C-1.5875213 33.66749209 -4.8364623 32.169283 -8 30 C-8 29.34 -8 28.68 -8 28 C-8.99 28 -9.98 28 -11 28 C-12.34553453 25.30893093 -12.20594114 23.12834578 -12.25 20.125 C-12.27578125 19.07570313 -12.3015625 18.02640625 -12.328125 16.9453125 C-11.96122328 13.65193274 -11.32075272 12.32621332 -9 10 C-4.99512868 8.93203431 -1.12847197 8.90170305 3 9 C2.67 8.34 2.34 7.68 2 7 C-0.02463255 6.34786708 -0.02463255 6.34786708 -2 6 C-1.49396008 3.83125748 -1.00016187 2.00032373 0 0 Z " fill="#F8F3E3" transform="translate(36,34)"/>
<path d="M0 0 C3.40295412 3.53980214 3.5325645 7.06652107 3.6875 11.75 C3.72166016 12.44738281 3.75582031 13.14476563 3.79101562 13.86328125 C3.87308295 15.57497108 3.93822919 17.2874576 4 19 C2.46101439 19.79686606 0.91866216 20.58723141 -0.625 21.375 C-1.48351562 21.81585938 -2.34203125 22.25671875 -3.2265625 22.7109375 C-12.10901439 26.83940105 -22.45028676 27.89896215 -31.8984375 24.9140625 C-40.29107143 21.70892857 -40.29107143 21.70892857 -42 20 C-42.09854655 18.35659133 -42.12972411 16.7088539 -42.125 15.0625 C-42.12757812 14.16660156 -42.13015625 13.27070312 -42.1328125 12.34765625 C-42 10 -42 10 -41 8 C-40.01 8 -39.02 8 -38 8 C-38 8.66 -38 9.32 -38 10 C-37.443125 10.061875 -36.88625 10.12375 -36.3125 10.1875 C-34 11 -34 11 -31.6875 13.625 C-29.19795624 16.38750219 -29.19795624 16.38750219 -25.8125 15.8125 C-24.554375 15.544375 -23.29625 15.27625 -22 15 C-19.37302222 14.98422236 -16.76160445 15.05966292 -14.13671875 15.16015625 C-11.78243523 15.21728614 -11.78243523 15.21728614 -10 13 C-9.731875 12.236875 -9.46375 11.47375 -9.1875 10.6875 C-7.70488306 7.33210376 -5.74428956 5.40125336 -3 3 C-2.34 3 -1.68 3 -1 3 C-0.67 2.01 -0.34 1.02 0 0 Z " fill="#CDC0B1" transform="translate(66,62)"/>
<path d="M0 0 C1.875 1.8125 1.875 1.8125 3 4 C3 4.99 3 5.98 3 7 C3.66 7 4.32 7 5 7 C5.33 6.01 5.66 5.02 6 4 C6.66 4.33 7.32 4.66 8 5 C5.83355177 17.31454784 5.83355177 17.31454784 2 22 C-1.4375 23.25 -1.4375 23.25 -5 23 C-8.83353766 20.73472774 -11.13582375 18.03904853 -13 14 C-12 11 -12 11 -9.9375 9.8125 C-8.9784375 9.4103125 -8.9784375 9.4103125 -8 9 C-8.33 8.67 -8.66 8.34 -9 8 C-9.25 5.0625 -9.25 5.0625 -9 2 C-5.52957297 -0.31361802 -4.08165827 -0.51020728 0 0 Z " fill="#CEC5B9" transform="translate(50,46)"/>
<path d="M0 0 C0.16431535 11.1186722 0.16431535 11.1186722 -0.6875 15.6875 C-1.11964509 20.26823792 0.30889954 23.7865802 2 28 C1.01 27.67 0.02 27.34 -1 27 C-1 26.34 -1 25.68 -1 25 C-5.62 25.33 -10.24 25.66 -15 26 C-13 23 -13 23 -10 22 C-10 21.01 -10 20.02 -10 19 C-12.97 18.67 -15.94 18.34 -19 18 C-19 16.68 -19 15.36 -19 14 C-17.02 14 -15.04 14 -13 14 C-13 13.34 -13 12.68 -13 12 C-13.99 11.67 -14.98 11.34 -16 11 C-14.4840625 10.2265625 -14.4840625 10.2265625 -12.9375 9.4375 C-9.14448416 7.30200124 -6.40930162 4.58084112 -3.48046875 1.390625 C-2 0 -2 0 0 0 Z " fill="#D5B786" transform="translate(66,16)"/>
<path d="M0 0 C7.42857143 -0.28571429 7.42857143 -0.28571429 11 2 C11.33 1.34 11.66 0.68 12 0 C14.64 0.33 17.28 0.66 20 1 C20.33 2.32 20.66 3.64 21 5 C19.35 5.66 17.7 6.32 16 7 C18.64 7 21.28 7 24 7 C24 9.97 24 12.94 24 16 C22.68 16.33 21.36 16.66 20 17 C19.67 17.66 19.34 18.32 19 19 C18.34 19 17.68 19 17 19 C16.01 17.02 15.02 15.04 14 13 C9.83279593 12.61379131 9.83279593 12.61379131 6.1875 14.3125 C4.80544154 16.10476225 4.80544154 16.10476225 4 19 C3.34 19 2.68 19 2 19 C2.50797009 14.6822542 3.19682779 10.96697886 5 7 C2.69 6.67 0.38 6.34 -2 6 C-1.49396008 3.83125748 -1.00016187 2.00032373 0 0 Z " fill="#FAF7EC" transform="translate(36,34)"/>
<path d="M0 0 C2.57169467 1.28584733 2.93761413 2.36509584 4 5 C4.23046875 7.04296875 4.23046875 7.04296875 4.1875 9.1875 C4.1771875 9.97640625 4.166875 10.7653125 4.15625 11.578125 C4.00474614 13.92643478 3.61370323 16.1261671 3.1875 18.4375 C2.51818714 24.15163367 4.61552565 28.47451835 8 33 C10.78524927 35.4681431 13.72833616 37.24634434 17 39 C17.69738281 39.4125 18.39476563 39.825 19.11328125 40.25 C23.52886843 42.71929924 26.84432122 43.58366175 32 43 C34.83378132 42.1025173 34.83378132 42.1025173 37 41 C35.125 44.875 35.125 44.875 34 46 C30.72941715 46.07298372 27.46990381 45.9961013 24.19921875 45.9375 C21.12214364 45.85187336 21.12214364 45.85187336 18.7734375 46.6796875 C18.18820313 46.78539062 17.60296875 46.89109375 17 47 C15.40234375 45.8203125 15.40234375 45.8203125 13.9375 44.125 C11.83429438 41.72611826 11.15110537 41.05036846 8 40 C8 39.34 8 38.68 8 38 C7.01 38 6.02 38 5 38 C4.67 41.96 4.34 45.92 4 50 C2 49 2 49 1 46 C0.90601771 44.18945873 0.87008013 42.37547219 0.875 40.5625 C0.87242188 39.61503906 0.86984375 38.66757813 0.8671875 37.69140625 C1 35 1 35 1.5703125 32.83984375 C2.21944153 30.78549775 2.21944153 30.78549775 1 28 C0.84929203 25.86338742 0.7514034 23.72287876 0.68359375 21.58203125 C0.64169922 20.32841797 0.59980469 19.07480469 0.55664062 17.78320312 C0.51732422 16.47287109 0.47800781 15.16253906 0.4375 13.8125 C0.39429008 12.47720022 0.350675 11.14191348 0.30664062 9.80664062 C0.20043498 6.53786703 0.09839003 3.26901667 0 0 Z " fill="#AF9648" transform="translate(20,32)"/>
<path d="M0 0 C2 1.1875 2 1.1875 4 3 C4.25 5.6875 4.25 5.6875 4 8 C5.65 8 7.3 8 9 8 C8.67 9.32 8.34 10.64 8 12 C9.65 12.33 11.3 12.66 13 13 C13 13.99 13 14.98 13 16 C9.04 16 5.08 16 1 16 C-0.65554702 19.31109404 -1.2793272 20.79327201 -1.625 24.25 C-1.74875 25.4875 -1.8725 26.725 -2 28 C-2.66 27.67 -3.32 27.34 -4 27 C-3.835 25.72125 -3.67 24.4425 -3.5 23.125 C-2.92958264 18.0715842 -2.90456292 13.07937351 -3 8 C-2.34 8 -1.68 8 -1 8 C-1.33 5.69 -1.66 3.38 -2 1 C-1.34 0.67 -0.68 0.34 0 0 Z " fill="#E2CCAB" transform="translate(26,28)"/>
<path d="M0 0 C2.46800047 1.15173355 4.04783565 2.04783565 6 4 C6.73233696 9.13487423 6.77667243 14.34101813 4.3125 19 C0.58968633 23.82959611 -2.02730981 24.80546196 -8 26 C-6.68 22.7 -5.36 19.4 -4 16 C-3.34 16 -2.68 16 -2 16 C-1.896875 15.2575 -1.79375 14.515 -1.6875 13.75 C-0.95746496 10.82985982 0.06789398 9.26812446 2 7 C1.34 7 0.68 7 0 7 C0 4.69 0 2.38 0 0 Z " fill="#F9F3E3" transform="translate(62,42)"/>
<path d="M0 0 C0.99 0.33 1.98 0.66 3 1 C4.43450085 5.53000268 5.10797849 9.24894664 5 14 C-1.0605925 17.36561591 -6.03949747 19.61330541 -13 20 C-9.5 16.5 -9.5 16.5 -6 13 C-5.3574765 10.93125966 -5.3574765 10.93125966 -5 9 C-4.34 9 -3.68 9 -3 9 C-2.87625 8.2575 -2.7525 7.515 -2.625 6.75 C-2.04513299 4.19858515 -1.26291261 2.2732427 0 0 Z " fill="#F6E6C4" transform="translate(65,67)"/>
<path d="M0 0 C0.66 0 1.32 0 2 0 C1.25749403 4.08378283 0.17076699 8.01939223 -1 12 C-0.34 12 0.32 12 1 12 C1.33 11.01 1.66 10.02 2 9 C2.66 10.98 3.32 12.96 4 15 C3.21625 15.28875 2.4325 15.5775 1.625 15.875 C-1.09671632 16.84912254 -1.09671632 16.84912254 -3 19 C-8.83757339 14.69863014 -8.83757339 14.69863014 -10 11 C-10.0777346 8.66796188 -10.08967728 6.33160941 -10 4 C-6.5980513 1.90649311 -3.94727588 1.82057837 0 2 C0 1.34 0 0.68 0 0 Z " fill="#E2DDD2" transform="translate(39,41)"/>
<path d="M0 0 C2.60695746 3.90000836 2.38288505 8.10501065 2.375 12.625 C2.37584595 13.83071655 2.37584595 13.83071655 2.37670898 15.06079102 C2.2594857 21.40942475 0.96756031 26.36282721 -2 32 C-3.16832693 34.85322539 -3.16832693 34.85322539 -2.80859375 37.38671875 C-3.1418333 41.93645869 -6.37228154 44.15286084 -9.53125 47.171875 C-11.98853002 48.99150641 -13.06474324 49.58707178 -16.0625 49.5625 C-17.5165625 49.2840625 -17.5165625 49.2840625 -19 49 C-18.34 47.35 -17.68 45.7 -17 44 C-16.01 44 -15.02 44 -14 44 C-6.23476263 37.56687448 -1.36959636 27.94384021 0 18 C0.11130906 14.89429465 0.0943808 11.79465176 0.0625 8.6875 C0.05798828 7.85154297 0.05347656 7.01558594 0.04882812 6.15429688 C0.03710548 4.10283351 0.01917203 2.05140727 0 0 Z " fill="#917A22" transform="translate(87,34)"/>
<path d="M0 0 C0.79664063 0.47050781 1.59328125 0.94101563 2.4140625 1.42578125 C3.47367188 2.04839844 4.53328125 2.67101562 5.625 3.3125 C6.66914062 3.92738281 7.71328125 4.54226562 8.7890625 5.17578125 C16.3975122 9.51714682 16.3975122 9.51714682 25 10 C27.83378132 9.1025173 27.83378132 9.1025173 30 8 C28.125 11.875 28.125 11.875 27 13 C23.72941715 13.07298372 20.46990381 12.9961013 17.19921875 12.9375 C14.12214364 12.85187336 14.12214364 12.85187336 11.7734375 13.6796875 C11.18820313 13.78539063 10.60296875 13.89109375 10 14 C8.40234375 12.8203125 8.40234375 12.8203125 6.9375 11.125 C4.83429438 8.72611826 4.15110537 8.05036846 1 7 C1 6.34 1 5.68 1 5 C0.01 4.67 -0.98 4.34 -2 4 C-1.34 3.67 -0.68 3.34 0 3 C0 2.01 0 1.02 0 0 Z " fill="#BFA68B" transform="translate(27,65)"/>
<path d="M0 0 C0.33 0.66 0.66 1.32 1 2 C1.66 2 2.32 2 3 2 C3.33 1.34 3.66 0.68 4 0 C4 2.31 4 4.62 4 7 C4.99 7 5.98 7 7 7 C7.99 9.97 8.98 12.94 10 16 C9.01 15.67 8.02 15.34 7 15 C7 14.34 7 13.68 7 13 C2.38 13.33 -2.24 13.66 -7 14 C-5 11 -5 11 -2 10 C-2 9.01 -2 8.02 -2 7 C-4.64 6.67 -7.28 6.34 -10 6 C-10 5.67 -10 5.34 -10 5 C-6.7 4.67 -3.4 4.34 0 4 C0 2.68 0 1.36 0 0 Z " fill="#B5A280" transform="translate(58,28)"/>
<path d="M0 0 C0.027193 1.58323688 0.04648306 3.16661062 0.0625 4.75 C0.07410156 5.63171875 0.08570313 6.5134375 0.09765625 7.421875 C0.00826198 9.7818838 -0.33087179 11.74498524 -1 14 C-1.66 14 -2.32 14 -3 14 C-2.67 9.38 -2.34 4.76 -2 0 C-3.8253125 1.60875 -3.8253125 1.60875 -5.6875 3.25 C-6.42871094 3.88679688 -7.16992188 4.52359375 -7.93359375 5.1796875 C-10.09349511 7.02723193 -10.09349511 7.02723193 -12.25 9.375 C-16.08904395 11.64352597 -19.66082375 11.62771535 -24.0625 11.82421875 C-26.97010625 11.90960679 -26.97010625 11.90960679 -29.60546875 12.640625 C-32.54518525 13.08182226 -33.74849096 12.49660675 -36.3125 11.0625 C-37.00988281 10.68222656 -37.70726562 10.30195313 -38.42578125 9.91015625 C-38.94527344 9.60980469 -39.46476562 9.30945312 -40 9 C-37.06492554 7.82597022 -35.8749768 8.03849199 -32.77734375 8.9921875 C-28.30606593 10.18514477 -25.06078187 9.84110343 -20.5625 9.125 C-19.83095703 9.02058594 -19.09941406 8.91617187 -18.34570312 8.80859375 C-16.5618793 8.55209621 -14.78061703 8.27788741 -13 8 C-12.88527344 7.38511719 -12.77054688 6.77023438 -12.65234375 6.13671875 C-11.68931372 2.98236289 -9.63223492 1.8618247 -7 0 C-4.3333581 -1.33332095 -2.83319697 -0.67102033 0 0 Z " fill="#B49D4B" transform="translate(68,16)"/>
<path d="M0 0 C0.99 0 1.98 0 3 0 C3 0.66 3 1.32 3 2 C3.639375 2.12375 4.27875 2.2475 4.9375 2.375 C5.618125 2.58125 6.29875 2.7875 7 3 C7.33 3.66 7.66 4.32 8 5 C7.01 5.495 7.01 5.495 6 6 C6.33 8.97 6.66 11.94 7 15 C3.62537285 14.45276317 1.91765 13.9451 -1 12 C-1.328125 9.6875 -1.328125 9.6875 -1.25 7 C-1.23453125 6.113125 -1.2190625 5.22625 -1.203125 4.3125 C-1 2 -1 2 0 0 Z " fill="#D6B991" transform="translate(25,70)"/>
<path d="M0 0 C1.32 0 2.64 0 4 0 C4.2475 0.78375 4.495 1.5675 4.75 2.375 C6.15389099 5.32317108 7.00675737 5.9024777 10 7 C10 7.99 10 8.98 10 10 C13.3 10.66 16.6 11.32 20 12 C20 12.33 20 12.66 20 13 C7.33029613 13.3690205 7.33029613 13.3690205 2 11 C1.34 7.37 0.68 3.74 0 0 Z " fill="#DEC6A2" transform="translate(30,75)"/>
<path d="M0 0 C0 0.33 0 0.66 0 1 C4.95 1.33 9.9 1.66 15 2 C15 2.33 15 2.66 15 3 C13.69546875 3.07476563 12.3909375 3.14953125 11.046875 3.2265625 C1.3234482 3.91418091 -6.41915651 4.73651534 -14.8828125 9.85546875 C-15.58148437 10.23316406 -16.28015625 10.61085938 -17 11 C-17.66 10.67 -18.32 10.34 -19 10 C-15.25 7 -15.25 7 -13 7 C-13 6.34 -13 5.68 -13 5 C-12.34 5 -11.68 5 -11 5 C-10.67 3.68 -10.34 2.36 -10 1 C-3.375 -1.125 -3.375 -1.125 0 0 Z " fill="#937C21" transform="translate(39,1)"/>
<path d="M0 0 C0.33 0 0.66 0 1 0 C1.36103152 6.3782235 1.36103152 6.3782235 -0.125 8.9375 C-2.9699825 10.54965675 -4.7911929 10.52388687 -8 10 C-10.375 7.625 -10.375 7.625 -12 5 C-12 4.34 -12 3.68 -12 3 C-6.06 2.505 -6.06 2.505 0 2 C0 1.34 0 0.68 0 0 Z " fill="#E2AC9E" transform="translate(52,57)"/>
<path d="M0 0 C1.24151209 3.72453626 0.62512316 4.64114222 -1 8.125 C-3.45260664 12.78495261 -3.45260664 12.78495261 -7.5 14.375 C-11.702367 13.92474639 -13.1145044 13.04580091 -16 10 C-17.875 7.4375 -17.875 7.4375 -19 5 C-18.67 4.01 -18.34 3.02 -18 2 C-17.67 2.33 -17.34 2.66 -17 3 C-14.81360547 3.07258946 -12.62499611 3.08373783 -10.4375 3.0625 C-9.23996094 3.05347656 -8.04242188 3.04445312 -6.80859375 3.03515625 C-5.41833984 3.01775391 -5.41833984 3.01775391 -4 3 C-6.8995661 4.65876079 -8.91635209 5.2361216 -12.25 5.125 C-14.10625 5.063125 -14.10625 5.063125 -16 5 C-14.42422186 8.11490087 -14.42422186 8.11490087 -12 11 C-8.91440699 11.66721536 -8.91440699 11.66721536 -6 11 C-3.64278158 9.05207532 -3.64278158 9.05207532 -3.5625 5.5 C-3.376875 4.345 -3.19125 3.19 -3 2 C-2.01 1.34 -1.02 0.68 0 0 Z " fill="#765B4F" transform="translate(56,55)"/>
<path d="M0 0 C0.33 0 0.66 0 1 0 C1.20852314 6.40629424 1.1583195 11.92972642 -1 18 C-1.66 18 -2.32 18 -3 18 C-3.33 16.35 -3.66 14.7 -4 13 C-4.66 13 -5.32 13 -6 13 C-4.89999447 7.59163946 -3.9487058 4.07608341 0 0 Z " fill="#ECD7B2" transform="translate(65,17)"/>
<path d="M0 0 C1.3357457 3.77371512 0.72408671 6.85831347 0.0625 10.75 C-0.13214844 11.92046875 -0.32679687 13.0909375 -0.52734375 14.296875 C-0.68332031 15.18890625 -0.83929688 16.0809375 -1 17 C-4.85462635 18.35605968 -7.8956496 19.24143238 -12 19 C-8.5 15.5 -8.5 15.5 -5 12 C-4.3574765 9.93125966 -4.3574765 9.93125966 -4 8 C-3.34 8 -2.68 8 -2 8 C-1.855625 7.236875 -1.71125 6.47375 -1.5625 5.6875 C-1 3 -1 3 0 0 Z " fill="#E5D7C3" transform="translate(64,68)"/>
<path d="M0 0 C3.5 0.125 3.5 0.125 4.5 1.125 C4.6875 3.5625 4.6875 3.5625 4.5 6.125 C2.5 8.125 2.5 8.125 -0.5 8.375 C-3.5 8.125 -3.5 8.125 -5.5 6.125 C-4.77384077 0.17049431 -4.77384077 0.17049431 0 0 Z " fill="#33291E" transform="translate(46.5,47.875)"/>
<path d="M0 0 C0.99 0 1.98 0 3 0 C7 5.25714286 7 5.25714286 7 8 C6.34 8 5.68 8 5 8 C5.33 10.31 5.66 12.62 6 15 C5.01 15 4.02 15 3 15 C0.74315457 9.63999211 -0.36263859 5.8022175 0 0 Z " fill="#EEDCC0" transform="translate(19,21)"/>
<path d="M0 0 C6.09859495 0.23916059 6.09859495 0.23916059 8.578125 2.33203125 C12 6.37338362 12 6.37338362 12 9 C11.34 9 10.68 9 10 9 C10.22816406 9.54269531 10.45632812 10.08539063 10.69140625 10.64453125 C10.97886719 11.35996094 11.26632813 12.07539063 11.5625 12.8125 C11.85253906 13.52019531 12.14257812 14.22789063 12.44140625 14.95703125 C13 17 13 17 12 20 C11.55269531 19.05898438 11.10539062 18.11796875 10.64453125 17.1484375 C10.03429463 15.89041125 9.42359253 14.63261071 8.8125 13.375 C8.52052734 12.75753906 8.22855469 12.14007813 7.92773438 11.50390625 C5.77673299 7.10938729 3.25575777 3.65499576 0 0 Z " fill="#917E25" transform="translate(74,14)"/>
<path d="M0 0 C0 2.97 0 5.94 0 9 C-1.32 9.33 -2.64 9.66 -4 10 C-4.33 10.66 -4.66 11.32 -5 12 C-5.66 11.67 -6.32 11.34 -7 11 C-7 8.36 -7 5.72 -7 3 C-7.66 3 -8.32 3 -9 3 C-9 2.34 -9 1.68 -9 1 C-5.94152152 0.45627049 -3.11227195 0 0 0 Z " fill="#F2EDDF" transform="translate(60,41)"/>
<path d="M0 0 C2.60695714 3.90000788 2.3828826 8.10502307 2.375 12.625 C2.37556396 13.43098633 2.37612793 14.23697266 2.37670898 15.06738281 C2.27456786 20.61091097 1.41734621 24.98285826 -1.04296875 30.0078125 C-2.29001527 32.60370526 -2.70014677 35.15139429 -3 38 C-4.32 38 -5.64 38 -7 38 C-6.00207533 35.49400083 -4.99677739 32.9922171 -3.96484375 30.5 C-3.62582031 29.675 -3.28679687 28.85 -2.9375 28 C-2.42509766 26.7625 -2.42509766 26.7625 -1.90234375 25.5 C0.12953769 19.87054494 0.12319512 14.60293999 0.0625 8.6875 C0.05798828 7.85154297 0.05347656 7.01558594 0.04882812 6.15429688 C0.03710548 4.10283351 0.01917203 2.05140727 0 0 Z " fill="#8E7818" transform="translate(87,34)"/>
<path d="M0 0 C0.33 0.99 0.66 1.98 1 3 C0.34 3 -0.32 3 -1 3 C-1 3.66 -1 4.32 -1 5 C-3.8264789 7.51242569 -6.58426077 9.40598836 -10 11 C-10.99 11.66 -11.98 12.32 -13 13 C-13.99 12.67 -14.98 12.34 -16 12 C-11.23436843 6.68271976 -6.40212879 3.15025385 0 0 Z " fill="#998230" transform="translate(27,3)"/>
<path d="M0 0 C3.625 0.125 3.625 0.125 6.625 1.125 C6.625 1.785 6.625 2.445 6.625 3.125 C4.645 3.125 2.665 3.125 0.625 3.125 C0.955 5.105 1.285 7.085 1.625 9.125 C-2.45878077 9.125 -5.49815913 8.31787411 -9.375 7.125 C-9.375 6.795 -9.375 6.465 -9.375 6.125 C-5.91 5.63 -5.91 5.63 -2.375 5.125 C-2.375 4.465 -2.375 3.805 -2.375 3.125 C-3.035 2.465 -3.695 1.805 -4.375 1.125 C-3.375 0.125 -3.375 0.125 0 0 Z " fill="#D7C59F" transform="translate(46.375,26.875)"/>
<path d="M0 0 C4.9723422 1.49170266 9.41845739 3.60457417 14 6 C13.01 6.495 13.01 6.495 12 7 C10.86649466 9.01669827 10.86649466 9.01669827 10 11 C9.67 10.34 9.34 9.68 9 9 C8.13375 8.62875 8.13375 8.62875 7.25 8.25 C3.97149692 6.4286094 2.27680112 3.97249035 0 1 C0 0.67 0 0.34 0 0 Z " fill="#D3B985" transform="translate(22,22)"/>
<path d="M0 0 C0.99 0.33 1.98 0.66 3 1 C3 1.66 3 2.32 3 3 C3.99 3 4.98 3 6 3 C6.99 5.97 7.98 8.94 9 12 C8.01 11.67 7.02 11.34 6 11 C5.67 10.34 5.34 9.68 5 9 C2.47266765 8.34444881 2.47266765 8.34444881 0 8 C0 7.34 0 6.68 0 6 C-0.66 5.34 -1.32 4.68 -2 4 C-1.34 2.68 -0.68 1.36 0 0 Z " fill="#D2B588" transform="translate(59,32)"/>
<path d="M0 0 C5 2 5 2 7.375 3.125 C12.59362314 4.86454105 17.09676892 4.37732416 22 2 C20.125 5.875 20.125 5.875 19 7 C12.39694669 7.78515839 6.37414093 7.19547817 1 3 C0.67 2.01 0.34 1.02 0 0 Z " fill="#796757" transform="translate(35,71)"/>
<path d="M0 0 C0.10183594 0.58910156 0.20367188 1.17820313 0.30859375 1.78515625 C1.11335657 4.36312529 2.18805733 5.51874427 4.0625 7.4375 C6.95398161 10.63952259 6.95398161 10.63952259 7.375 13.9375 C7.25125 14.618125 7.1275 15.29875 7 16 C0.08270677 11.78947368 0.08270677 11.78947368 -1 8 C-1.1875 4.3125 -1.1875 4.3125 -1 1 C-0.67 0.67 -0.34 0.34 0 0 Z " fill="#E0DCD1" transform="translate(30,44)"/>
<path d="M0 0 C2.57543692 1.28771846 2.94031279 2.3577843 4 5 C4.53994543 10.03338956 4.01418635 15.05584156 3 20 C2.34 19.67 1.68 19.34 1 19 C0.67 12.73 0.34 6.46 0 0 Z " fill="#AD9849" transform="translate(20,32)"/>
<path d="M0 0 C1.485 0.99 1.485 0.99 3 2 C6.63939932 1.68269476 6.63939932 1.68269476 10 1 C10 4.3 10 7.6 10 11 C8.68 10.34 7.36 9.68 6 9 C6 8.01 6 7.02 6 6 C5.195625 5.7525 4.39125 5.505 3.5625 5.25 C1 4 1 4 0.1875 1.875 C0.125625 1.25625 0.06375 0.6375 0 0 Z " fill="#C9BCA3" transform="translate(34,76)"/>
<path d="M0 0 C1.65 0 3.3 0 5 0 C4.67 0.66 4.34 1.32 4 2 C3.34 1.67 2.68 1.34 2 1 C2 3.31 2 5.62 2 8 C2.66 8 3.32 8 4 8 C2.54744301 11.82946843 0.57104439 13.12050295 -3 15 C-2 10 -1 5 0 0 Z " fill="#D9D2C2" transform="translate(60,41)"/>
<path d="M0 0 C0.33 0 0.66 0 1 0 C1.02715383 1.74991334 1.04646551 3.49994945 1.0625 5.25 C1.07410156 6.22453125 1.08570312 7.1990625 1.09765625 8.203125 C1 11 1 11 0.4375 12.9375 C-0.21396507 16.00869249 0.41437923 18.67281901 0.9375 21.75 C1.13214844 22.92046875 1.32679687 24.0909375 1.52734375 25.296875 C1.68332031 26.18890625 1.83929688 27.0809375 2 28 C1.01 27.67 0.02 27.34 -1 27 C-1.06058594 26.33613281 -1.12117188 25.67226562 -1.18359375 24.98828125 C-1.26738281 24.10527344 -1.35117188 23.22226563 -1.4375 22.3125 C-1.51871094 21.44238281 -1.59992188 20.57226562 -1.68359375 19.67578125 C-1.93771117 17.01850803 -1.93771117 17.01850803 -2.625 14.5625 C-3.10642723 11.27274728 -2.43997149 8.88149622 -1.5625 5.6875 C-1.27503906 4.61886719 -0.98757812 3.55023438 -0.69140625 2.44921875 C-0.46324219 1.64097656 -0.23507813 0.83273438 0 0 Z " fill="#AC9A46" transform="translate(70,49)"/>
<path d="M0 0 C3.00617269 3.00617269 2.59585316 5.82381598 3 10 C-2.28557366 10.50338797 -4.90950339 9.34676996 -9 6 C-10.375 3.75 -10.375 3.75 -11 2 C-10.34 2 -9.68 2 -9 2 C-9 2.66 -9 3.32 -9 4 C-8.278125 4.268125 -7.55625 4.53625 -6.8125 4.8125 C-4.02409874 5.98982498 -1.55904276 7.39145884 1 9 C0.649375 8.2575 0.29875 7.515 -0.0625 6.75 C-1.04509293 3.8677274 -1.0326802 2.78823655 0 0 Z " fill="#E9E0D2" transform="translate(37,60)"/>
<path d="M0 0 C0.33 0.66 0.66 1.32 1 2 C3.52733235 2.65555119 3.52733235 2.65555119 6 3 C6 3.99 6 4.98 6 6 C2.37 6 -1.26 6 -5 6 C-3 2 -3 2 0 0 Z " fill="#A69E8B" transform="translate(33,38)"/>
<path d="M0 0 C0.33 0.66 0.66 1.32 1 2 C2.65 2 4.3 2 6 2 C5.65066406 2.4846875 5.30132812 2.969375 4.94140625 3.46875 C1.57638044 8.42572853 0.32047616 12.01777843 0 18 C-0.66 17.67 -1.32 17.34 -2 17 C-1.34 11.39 -0.68 5.78 0 0 Z " fill="#DAC6A1" transform="translate(24,38)"/>
<path d="M0 0 C0.66 0 1.32 0 2 0 C2 0.99 2 1.98 2 3 C2.99 3 3.98 3 5 3 C6.96189209 6.6678852 8.39301257 9.87248551 9 14 C8.01 14.495 8.01 14.495 7 15 C5.83092416 12.68868934 4.66464108 10.37604377 3.5 8.0625 C3.16613281 7.40314453 2.83226562 6.74378906 2.48828125 6.06445312 C0 1.11328125 0 1.11328125 0 0 Z " fill="#988531" transform="translate(1,59)"/>
<path d="M0 0 C0.66 0 1.32 0 2 0 C2.66 2.31 3.32 4.62 4 7 C3.01 7 2.02 7 1 7 C0.67 11.29 0.34 15.58 0 20 C-0.66 19.67 -1.32 19.34 -2 19 C-1.45118943 12.64780958 -0.83488387 6.32126362 0 0 Z " fill="#A68F6C" transform="translate(24,62)"/>
<path d="M0 0 C1 1 2 2 3 3 C3.66 3 4.32 3 5 3 C5 5.64 5 8.28 5 11 C-0.875 7.375 -0.875 7.375 -2 4 C-1.0625 1.8125 -1.0625 1.8125 0 0 Z " fill="#F9F6EA" transform="translate(32,43)"/>
<path d="M0 0 C1.32 0 2.64 0 4 0 C4 0.66 4 1.32 4 2 C4.99 2.33 5.98 2.66 7 3 C6.67 3.99 6.34 4.98 6 6 C1.545 6.495 1.545 6.495 -3 7 C-3 5.68 -3 4.36 -3 3 C-1.02 3 0.96 3 3 3 C3 2.34 3 1.68 3 1 C2.01 0.67 1.02 0.34 0 0 Z " fill="#DABD93" transform="translate(50,27)"/>
<path d="M0 0 C0.33 0.66 0.66 1.32 1 2 C-0.14453125 4.6796875 -0.14453125 4.6796875 -1.8125 7.875 C-2.62654297 9.44894531 -2.62654297 9.44894531 -3.45703125 11.0546875 C-3.96621094 12.02664062 -4.47539063 12.99859375 -5 14 C-5.67015705 15.33158242 -6.33850125 16.6640952 -7 18 C-7.33 16.02 -7.66 14.04 -8 12 C-7.01 11.67 -6.02 11.34 -5 11 C-5.33 8.69 -5.66 6.38 -6 4 C-5.38125 3.896875 -4.7625 3.79375 -4.125 3.6875 C-1.63473516 3.12474627 -1.63473516 3.12474627 0 0 Z " fill="#8E7A16" transform="translate(11,20)"/>
<path d="M0 0 C5 5 5 5 7.125 7.3125 C8.95122132 9.33448237 8.95122132 9.33448237 12 9 C12 9.99 12 10.98 12 12 C7.9869045 10.62408154 5.2333422 8.72281449 2 6 C1.01 5.34 0.02 4.68 -1 4 C-0.67 2.68 -0.34 1.36 0 0 Z " fill="#90761B" transform="translate(10,69)"/>
<path d="M0 0 C2.97 1.65 5.94 3.3 9 5 C7 7 7 7 3.875 7.125 C2.92625 7.08375 1.9775 7.0425 1 7 C1 6.34 1 5.68 1 5 C0.01 4.67 -0.98 4.34 -2 4 C-1.34 3.67 -0.68 3.34 0 3 C0 2.01 0 1.02 0 0 Z " fill="#B39C81" transform="translate(27,65)"/>
<path d="M0 0 C1.79378179 2.69067269 2.97313958 5.08578257 4.1875 8.0625 C4.55230469 8.94035156 4.91710937 9.81820312 5.29296875 10.72265625 C6 13 6 13 5 15 C2 10.25 2 10.25 2 8 C1.01 8 0.02 8 -1 8 C-1.04241723 5.66705225 -1.04092937 3.33297433 -1 1 C-0.67 0.67 -0.34 0.34 0 0 Z " fill="#917B1B" transform="translate(4,54)"/>
<path d="M0 0 C6.4 -0.49230769 6.4 -0.49230769 9.4375 2 C10.2109375 2.99 10.2109375 2.99 11 4 C10.39671875 3.89300781 9.7934375 3.78601562 9.171875 3.67578125 C4.1191966 2.79093221 4.1191966 2.79093221 -0.5625 4.4375 C-1.036875 4.953125 -1.51125 5.46875 -2 6 C-1.49396008 3.83125748 -1.00016187 2.00032373 0 0 Z " fill="#F6EBD1" transform="translate(36,34)"/>
<path d="M0 0 C2.35448165 2.55068845 2.98327924 3.71017358 3.1875 7.25 C3.125625 8.1575 3.06375 9.065 3 10 C2.34 8.68 1.68 7.36 1 6 C-1.31 6.66 -3.62 7.32 -6 8 C-6 6 -6 6 -4.625 4.375 C-3 3 -3 3 -1 3 C-0.67 2.01 -0.34 1.02 0 0 Z " fill="#CCBE99" transform="translate(66,62)"/>
<path d="M0 0 C2.64 0.33 5.28 0.66 8 1 C8.33 2.32 8.66 3.64 9 5 C7.35 5.33 5.7 5.66 4 6 C4 5.34 4 4.68 4 4 C2.35 3.67 0.7 3.34 -1 3 C-0.67 2.01 -0.34 1.02 0 0 Z " fill="#F5EBD2" transform="translate(48,34)"/>
<path d="M0 0 C1.485 0.2475 1.485 0.2475 3 0.5 C7.02732942 1.08474517 10.93474623 1.07132024 15 1 C11.09971775 3.60018816 7.52565431 3.15085514 3 3 C3.33 4.32 3.66 5.64 4 7 C2 5.1875 2 5.1875 0 3 C0 2.01 0 1.02 0 0 Z " fill="#7B4A40" transform="translate(37,57)"/>
<path d="M0 0 C0.66 1.32 1.32 2.64 2 4 C-4.435 4.495 -4.435 4.495 -11 5 C-11 4.34 -11 3.68 -11 3 C-10.28972656 2.86722656 -9.57945313 2.73445313 -8.84765625 2.59765625 C-7.92855469 2.42105469 -7.00945313 2.24445312 -6.0625 2.0625 C-4.68771484 1.80146484 -4.68771484 1.80146484 -3.28515625 1.53515625 C-1.04710156 1.22285012 -1.04710156 1.22285012 0 0 Z " fill="#DCC6BC" transform="translate(50,54)"/>
<path d="M0 0 C2 1.1875 2 1.1875 4 3 C4.25 5.6875 4.25 5.6875 4 8 C3.01 8 2.02 8 1 8 C1 6.68 1 5.36 1 4 C0.01 3.67 -0.98 3.34 -2 3 C-2 2.34 -2 1.68 -2 1 C-1.34 0.67 -0.68 0.34 0 0 Z " fill="#E8CFB3" transform="translate(26,28)"/>
<path d="M0 0 C1.98 0.66 3.96 1.32 6 2 C3.79812328 4.20187672 1.77114318 5.28178929 -1 6.6875 C-1.886875 7.14511719 -2.77375 7.60273438 -3.6875 8.07421875 C-4.450625 8.37972656 -5.21375 8.68523438 -6 9 C-6.66 8.67 -7.32 8.34 -8 8 C-4.25 5 -4.25 5 -2 5 C-2 4.34 -2 3.68 -2 3 C-1.34 3 -0.68 3 0 3 C0 2.01 0 1.02 0 0 Z " fill="#8E7917" transform="translate(28,3)"/>
<path d="M0 0 C2.50357861 0.8345262 4.66785852 1.79371992 7 3 C6.67 3.99 6.34 4.98 6 6 C3.69 6 1.38 6 -1 6 C-0.67 4.02 -0.34 2.04 0 0 Z " fill="#EDDECE" transform="translate(44,69)"/>
<path d="M0 0 C3.625 0.125 3.625 0.125 6.625 1.125 C6.625 1.785 6.625 2.445 6.625 3.125 C5.16707116 3.17899736 3.70857288 3.21779177 2.25 3.25 C1.43789063 3.27320313 0.62578125 3.29640625 -0.2109375 3.3203125 C-2.375 3.125 -2.375 3.125 -4.375 1.125 C-3.375 0.125 -3.375 0.125 0 0 Z " fill="#F5DEBC" transform="translate(46.375,26.875)"/>
<path d="M0 0 C0.66 0 1.32 0 2 0 C1.125 4.75 1.125 4.75 0 7 C-0.66 7 -1.32 7 -2 7 C-2 6.34 -2 5.68 -2 5 C-3.65 5.33 -5.3 5.66 -7 6 C-5 3 -5 3 -2.375 2.3125 C-1.59125 2.209375 -0.8075 2.10625 0 2 C0 1.34 0 0.68 0 0 Z " fill="#ECE9DC" transform="translate(39,41)"/>
<path d="M0 0 C0.33 0 0.66 0 1 0 C1 3.3 1 6.6 1 10 C0.01 9.67 -0.98 9.34 -2 9 C-1.67 7.68 -1.34 6.36 -1 5 C-1.66 5 -2.32 5 -3 5 C-1.125 1.125 -1.125 1.125 0 0 Z " fill="#F3E1C6" transform="translate(65,17)"/>
<path d="M0 0 C0.66 0 1.32 0 2 0 C2.33 2.97 2.66 5.94 3 9 C2.01 9.33 1.02 9.66 0 10 C0 6.7 0 3.4 0 0 Z " fill="#F2DDA8" transform="translate(67,72)"/>
<path d="M0 0 C0.66 0 1.32 0 2 0 C2 0.99 2 1.98 2 3 C1.34 3 0.68 3 0 3 C-0.12375 3.556875 -0.2475 4.11375 -0.375 4.6875 C-1.05976855 7.22114364 -1.99133763 9.57921032 -3 12 C-3.88336837 9.5332355 -4.1312406 8.36140628 -3.22265625 5.859375 C-2.83980469 5.16328125 -2.45695312 4.4671875 -2.0625 3.75 C-1.68222656 3.04359375 -1.30195312 2.3371875 -0.91015625 1.609375 C-0.60980469 1.07828125 -0.30945312 0.5471875 0 0 Z " fill="#E6DECF" transform="translate(58,55)"/>
<path d="M0 0 C1.32 0 2.64 0 4 0 C2.61811547 3.21043882 1.07578097 5.04936365 -1.625 7.25 C-2.57246094 8.03117187 -2.57246094 8.03117187 -3.5390625 8.828125 C-4.02117187 9.21484375 -4.50328125 9.6015625 -5 10 C-3.84826645 7.53199953 -2.95216435 5.95216435 -1 4 C-0.3574765 1.93125966 -0.3574765 1.93125966 0 0 Z " fill="#9D8135" transform="translate(80,72)"/>
<path d="M0 0 C3.7952131 1.49097658 5.61042731 3.75700849 8 7 C5.03 6.505 5.03 6.505 2 6 C1.34 4.02 0.68 2.04 0 0 Z " fill="#988432" transform="translate(72,8)"/>
<path d="M0 0 C0.66 0 1.32 0 2 0 C2 0.66 2 1.32 2 2 C3.1446875 2.4021875 3.1446875 2.4021875 4.3125 2.8125 C6.87380884 3.94424112 8.19692938 4.91223401 10 7 C9.01 7.495 9.01 7.495 8 8 C1.42857143 4 1.42857143 4 0 0 Z " fill="#E1D7C1" transform="translate(26,62)"/>
<path d="M0 0 C0.33 0 0.66 0 1 0 C1.1875 3.375 1.1875 3.375 1 7 C0.01 7.66 -0.98 8.32 -2 9 C-2.66 6.69 -3.32 4.38 -4 2 C-2.68 2 -1.36 2 0 2 C0 1.34 0 0.68 0 0 Z " fill="#D6A79A" transform="translate(52,57)"/>
<path d="M0 0 C2.97 0.495 2.97 0.495 6 1 C5.01 1.66 4.02 2.32 3 3 C3.66 3.66 4.32 4.32 5 5 C0.545 4.01 0.545 4.01 -4 3 C-2.68 2.67 -1.36 2.34 0 2 C0 1.34 0 0.68 0 0 Z " fill="#917D23" transform="translate(58,2)"/>
<path d="M0 0 C0.99 0 1.98 0 3 0 C3.66 1.32 4.32 2.64 5 4 C4.01 4 3.02 4 2 4 C2 4.99 2 5.98 2 7 C1.34 7 0.68 7 0 7 C0 4.69 0 2.38 0 0 Z " fill="#EAD0AB" transform="translate(19,21)"/>
<path d="M0 0 C0.99 0 1.98 0 3 0 C2.690625 0.495 2.38125 0.99 2.0625 1.5 C0.58355618 4.97986781 0.37597149 8.24028509 0 12 C-0.33 12 -0.66 12 -1 12 C-1.02698189 10.37509046 -1.04638757 8.75005367 -1.0625 7.125 C-1.07410156 6.22007813 -1.08570312 5.31515625 -1.09765625 4.3828125 C-1 2 -1 2 0 0 Z " fill="#C9AB87" transform="translate(25,70)"/>
<path d="M0 0 C0.99 0.33 1.98 0.66 3 1 C1.77065985 4.68802044 0.06140622 5.72356973 -3 8 C-2.45276317 4.62537285 -1.9451 2.91765 0 0 Z " fill="#F2EAD8" transform="translate(27,44)"/>
<path d="M0 0 C0.66 0 1.32 0 2 0 C2 1.98 2 3.96 2 6 C0.68 6.33 -0.64 6.66 -2 7 C-1.34 4.69 -0.68 2.38 0 0 Z " fill="#9B8336" transform="translate(4,25)"/>
<path d="M0 0 C1.32 0.33 2.64 0.66 4 1 C4 1.66 4 2.32 4 3 C4.99 3 5.98 3 7 3 C6.67 3.66 6.34 4.32 6 5 C3.03 4.505 3.03 4.505 0 4 C0 2.68 0 1.36 0 0 Z " fill="#E8CEAE" transform="translate(34,82)"/>
<path d="M0 0 C3.465 1.485 3.465 1.485 7 3 C6.67 3.99 6.34 4.98 6 6 C3.5625 5.25 3.5625 5.25 1 4 C0.1875 1.875 0.1875 1.875 0 0 Z " fill="#D0B999" transform="translate(34,76)"/>
<path d="M0 0 C0.99 0 1.98 0 3 0 C3.33 2.31 3.66 4.62 4 7 C1 5 1 5 0.3125 2.375 C0.209375 1.59125 0.10625 0.8075 0 0 Z " fill="#C9C3B8" transform="translate(33,53)"/>
<path d="M0 0 C0.66 0 1.32 0 2 0 C2 2.64 2 5.28 2 8 C1.34 8 0.68 8 0 8 C-0.79953138 4.71303767 -1.09658936 3.28976808 0 0 Z " fill="#B09A46" transform="translate(65,30)"/>
<path d="M0 0 C2 1 2 1 3 3 C0.36 3.33 -2.28 3.66 -5 4 C-5 3.34 -5 2.68 -5 2 C-2.625 0.9375 -2.625 0.9375 0 0 Z " fill="#E5CDA3" transform="translate(41,27)"/>
<path d="M0 0 C2.97 0.495 2.97 0.495 6 1 C6 2.65 6 4.3 6 6 C3.97945196 4.35830472 1.97956942 2.69088222 0 1 C0 0.67 0 0.34 0 0 Z " fill="#957A15" transform="translate(74,14)"/>
</svg>
