<?xml version="1.0" encoding="UTF-8"?>
<svg version="1.1" xmlns="http://www.w3.org/2000/svg" width="25" height="25">
<path d="M0 0 C8.25 0 16.5 0 25 0 C25 8.25 25 16.5 25 25 C16.75 25 8.5 25 0 25 C0 16.75 0 8.5 0 0 Z " fill="#1F1C18" transform="translate(0,0)"/>
<path d="M0 0 C2.33294775 -0.04241723 4.66702567 -0.04092937 7 0 C8 1 8 1 8.0625 4.0625 C8.041875 5.031875 8.02125 6.00125 8 7 C8.66 7 9.32 7 10 7 C10.7518819 11.26066408 11.35024359 14.8265198 10 19 C6.00462893 20.99768554 1.41058827 21.18430412 -3 21 C-6.1875 19.0625 -6.1875 19.0625 -8 16 C-8.68007223 13.15969834 -8.72717239 10.83425461 -8 8 C-5.46546343 4.78045355 -3.88702695 3.29567565 0 2 C0 1.34 0 0.68 0 0 Z " fill="#26201B" transform="translate(8,3)"/>
<path d="M0 0 C2.31 0 4.62 0 7 0 C7.33 5.61 7.66 11.22 8 17 C7.01 16.67 6.02 16.34 5 16 C5 15.34 5 14.68 5 14 C4.34 14 3.68 14 3 14 C2.34 12.02 1.68 10.04 1 8 C0.34 8 -0.32 8 -1 8 C-1.125 2.25 -1.125 2.25 0 0 Z " fill="#766856" transform="translate(9,4)"/>
<path d="M0 0 C0.66 0 1.32 0 2 0 C2.7518819 4.26066408 3.35024359 7.8265198 2 12 C-0.56893838 13.28446919 -2.76576337 13.32977144 -5.625 13.5625 C-6.62789062 13.64628906 -7.63078125 13.73007812 -8.6640625 13.81640625 C-9.43492188 13.87699219 -10.20578125 13.93757813 -11 14 C-11.33 13.01 -11.66 12.02 -12 11 C-4.25 10.875 -4.25 10.875 -2 12 C-1.67 11.34 -1.34 10.68 -1 10 C-0.34 10.33 0.32 10.66 1 11 C0.67 10.01 0.34 9.02 0 8 C-0.12781786 5.32605036 -0.04391871 2.67904143 0 0 Z " fill="#3B332E" transform="translate(16,10)"/>
<path d="M0 0 C0.66 0 1.32 0 2 0 C2 0.99 2 1.98 2 3 C2.66 3 3.32 3 4 3 C4.66 4.65 5.32 6.3 6 8 C5.01 8.33 4.02 8.66 3 9 C1.35 7.35 -0.3 5.7 -2 4 C-1.34 2.68 -0.68 1.36 0 0 Z " fill="#332C26" transform="translate(6,9)"/>
<path d="M0 0 C1.32 0 2.64 0 4 0 C4 0.66 4 1.32 4 2 C4.66 2.33 5.32 2.66 6 3 C5.01 3.495 5.01 3.495 4 4 C3.34 3.67 2.68 3.34 2 3 C2.33 4.98 2.66 6.96 3 9 C2.01 9.495 2.01 9.495 1 10 C1 9.34 1 8.68 1 8 C0.34 8 -0.32 8 -1 8 C-1.125 2.25 -1.125 2.25 0 0 Z " fill="#6F5840" transform="translate(9,4)"/>
<path d="M0 0 C0.99 0.66 1.98 1.32 3 2 C2.67 2.99 2.34 3.98 2 5 C2.66 5 3.32 5 4 5 C3.67 6.32 3.34 7.64 3 9 C0.03 8.505 0.03 8.505 -3 8 C-2.34 7.67 -1.68 7.34 -1 7 C-0.59270772 4.67843403 -0.25561323 2.3431213 0 0 Z " fill="#2C231D" transform="translate(19,15)"/>
<path d="M0 0 C0.66 0 1.32 0 2 0 C3.23076923 6.4 3.23076923 6.4 2.0625 9.4375 C1.711875 9.953125 1.36125 10.46875 1 11 C-0.28317892 7.15046324 -0.06643637 4.05261865 0 0 Z " fill="#463F38" transform="translate(16,10)"/>
<path d="M0 0 C0.99 0.33 1.98 0.66 3 1 C3.33 2.98 3.66 4.96 4 7 C3.34 7 2.68 7 2 7 C1.67 7.66 1.34 8.32 1 9 C0.08941469 5.92677456 -0.08886184 3.19902639 0 0 Z " fill="#B9A386" transform="translate(11,7)"/>
<path d="M0 0 C0.99 0 1.98 0 3 0 C3 3.3 3 6.6 3 10 C2.01 9.01 1.02 8.02 0 7 C0.375 5 0.375 5 1 3 C0.67 2.01 0.34 1.02 0 0 Z " fill="#876F51" transform="translate(13,4)"/>
</svg>
