<?xml version="1.0" encoding="UTF-8"?>
<svg version="1.1" xmlns="http://www.w3.org/2000/svg" width="128" height="128">
<path d="M0 0 C0 0.66 0 1.32 0 2 C0.680625 2.165 1.36125 2.33 2.0625 2.5 C6.35109203 4.68991933 9.19509056 8.12000999 12 12 C12 12.66 12 13.32 12 14 C12.66 14 13.32 14 14 14 C18.34847272 22.16083237 22.07714607 29.87798095 24 39 C24.226875 40.010625 24.45375 41.02125 24.6875 42.0625 C26.01657673 54.55582124 23.49532603 65.75211992 18 77 C17.32165413 78.66194738 16.64800425 80.32598903 16 82 C15.34 82 14.68 82 14 82 C13.34 83.65 12.68 85.3 12 87 C11.34 87 10.68 87 10 87 C9.505 88.98 9.505 88.98 9 91 C8.34 91 7.68 91 7 91 C7 91.66 7 92.32 7 93 C3.53846154 96 3.53846154 96 1 96 C1 96.66 1 97.32 1 98 C-8.55027302 104.76686012 -19.24187329 109.51360267 -31 110 C-31.71671875 110.03996094 -32.4334375 110.07992187 -33.171875 110.12109375 C-46.41445784 110.52024962 -58.36154205 105.96710176 -70 100 C-70 99.34 -70 98.68 -70 98 C-70.53625 97.773125 -71.0725 97.54625 -71.625 97.3125 C-83.10947942 90.96581401 -90.11484752 77.70572141 -94.12109375 65.6171875 C-97.85541127 50.24839627 -95.80275221 35.19164234 -89 21 C-86.85816787 17.50245873 -84.51513123 14.23629444 -82 11 C-81.47664063 10.24847656 -80.95328125 9.49695313 -80.4140625 8.72265625 C-79.94742188 8.15417969 -79.48078125 7.58570312 -79 7 C-78.34 7 -77.68 7 -77 7 C-77 6.34 -77 5.68 -77 5 C-73.53846154 2 -73.53846154 2 -71 2 C-71 1.34 -71 0.68 -71 0 C-45.39947978 -14.30481148 -25.66301864 -13.55599855 0 0 Z " fill="#5A8838" transform="translate(99,15)"/>
<path d="M0 0 C0 0.66 0 1.32 0 2 C0.680625 2.165 1.36125 2.33 2.0625 2.5 C6.35109203 4.68991933 9.19509056 8.12000999 12 12 C12 12.66 12 13.32 12 14 C12.66 14 13.32 14 14 14 C18.34847272 22.16083237 22.07714607 29.87798095 24 39 C24.226875 40.010625 24.45375 41.02125 24.6875 42.0625 C26.01657673 54.55582124 23.49532603 65.75211992 18 77 C17.32165413 78.66194738 16.64800425 80.32598903 16 82 C15.34 82 14.68 82 14 82 C13.34 83.65 12.68 85.3 12 87 C11.34 87 10.68 87 10 87 C9.505 88.98 9.505 88.98 9 91 C8.34 91 7.68 91 7 91 C7 91.66 7 92.32 7 93 C3.53846154 96 3.53846154 96 1 96 C1 96.66 1 97.32 1 98 C-8.55027302 104.76686012 -19.24187329 109.51360267 -31 110 C-31.71671875 110.03996094 -32.4334375 110.07992187 -33.171875 110.12109375 C-46.41445784 110.52024962 -58.36154205 105.96710176 -70 100 C-70 99.34 -70 98.68 -70 98 C-70.53625 97.773125 -71.0725 97.54625 -71.625 97.3125 C-83.10947942 90.96581401 -90.11484752 77.70572141 -94.12109375 65.6171875 C-97.85541127 50.24839627 -95.80275221 35.19164234 -89 21 C-86.85816787 17.50245873 -84.51513123 14.23629444 -82 11 C-81.47664063 10.24847656 -80.95328125 9.49695313 -80.4140625 8.72265625 C-79.94742188 8.15417969 -79.48078125 7.58570312 -79 7 C-78.34 7 -77.68 7 -77 7 C-77 6.34 -77 5.68 -77 5 C-73.53846154 2 -73.53846154 2 -71 2 C-71 1.34 -71 0.68 -71 0 C-45.39947978 -14.30481148 -25.66301864 -13.55599855 0 0 Z M-66 20 C-68.26470228 22.88020391 -68.26470228 22.88020391 -68.3125 26.4375 C-69.169579 30.87872754 -70.46609813 31.37011954 -74 34 C-80.5491502 43.52603666 -83.32686869 54.50561426 -82 66 C-81.35545404 67.67534556 -80.69348214 69.3443114 -80 71 C-80.309375 71.928125 -80.309375 71.928125 -80.625 72.875 C-81.26763236 76.51658339 -78.92131057 78.97248032 -77 82 C-76.34 82 -75.68 82 -75 82 C-74.74863281 82.58652344 -74.49726562 83.17304687 -74.23828125 83.77734375 C-71.32984303 88.99785273 -65.31304006 93.41938054 -60 96 C-59.01 96 -58.02 96 -57 96 C-57 96.66 -57 97.32 -57 98 C-49.87806629 100.54327188 -43.54231681 101.47007122 -36 101.375 C-35.07960937 101.38660156 -34.15921875 101.39820312 -33.2109375 101.41015625 C-24.95914549 101.37528952 -17.29717465 99.72211036 -10.125 95.5 C-9.07699219 94.89671875 -9.07699219 94.89671875 -8.0078125 94.28125 C-5.89602763 92.93365187 -3.89774978 91.63972239 -2 90 C-1.02375778 85.11878891 -2.15408621 82.29540881 -4.75 78.25 C-6.84765071 75.22006009 -8.88703116 72.99938649 -12 71 C-12.66 71 -13.32 71 -14 71 C-12.8553125 69.88625 -12.8553125 69.88625 -11.6875 68.75 C-9.0340057 66.22179007 -9.0340057 66.22179007 -7.5625 63.75 C-5.33538482 61.255631 -3.23607274 61.28765091 0 61 C0 60.34 0 59.68 0 59 C0.78375 58.855625 1.5675 58.71125 2.375 58.5625 C4.96421018 58.12201075 4.96421018 58.12201075 7 57 C7 55.68 7 54.36 7 53 C6.34 53 5.68 53 5 53 C5 52.01 5 51.02 5 50 C5.639375 49.7525 6.27875 49.505 6.9375 49.25 C9.18741541 48.18437567 9.18741541 48.18437567 9.75 45.875 C9.8325 45.25625 9.915 44.6375 10 44 C8.68 44.66 7.36 45.32 6 46 C5.67 44.35 5.34 42.7 5 41 C4.34 41 3.68 41 3 41 C3 40.34 3 39.68 3 39 C0.69 39 -1.62 39 -4 39 C-4 39.66 -4 40.32 -4 41 C-4.66 41 -5.32 41 -6 41 C-8.04169485 43.90548882 -9 45.40142046 -9 49 C-10.91789713 48.71653722 -12.83429183 48.4228972 -14.75 48.125 C-15.81734375 47.96257813 -16.8846875 47.80015625 -17.984375 47.6328125 C-20.7097635 47.06090455 -22.54684358 46.22657821 -25 45 C-26.32 45 -27.64 45 -29 45 C-29.309375 43.865625 -29.61875 42.73125 -29.9375 41.5625 C-30.62924531 38.21224901 -30.62924531 38.21224901 -32 37 C-34.22831353 36.76124577 -34.22831353 36.76124577 -36.8125 36.75 C-38.12154297 36.71132813 -38.12154297 36.71132813 -39.45703125 36.671875 C-42.52324232 37.06751514 -43.82125238 37.82614845 -46 40 C-46.79623822 42.09415804 -46.79623822 42.09415804 -47 44 C-48.48009643 43.02223933 -49.95905144 42.0427506 -51.4375 41.0625 C-52.67306641 40.24458984 -52.67306641 40.24458984 -53.93359375 39.41015625 C-56 38 -56 38 -57 37 C-46.77492542 31.77868532 -35.92558666 34.49856969 -25 36 C-25 38.31 -25 40.62 -25 43 C-24.34 42.34 -23.68 41.68 -23 41 C-21.01521557 40.5686477 -19.01065434 40.22508157 -17 39.9375 C-12.86094885 39.41396282 -12.86094885 39.41396282 -9 38 C-7.55151418 37.91657841 -6.09929131 37.89267139 -4.6484375 37.90234375 C-3.37226563 37.90717773 -3.37226563 37.90717773 -2.0703125 37.91210938 C-1.18085937 37.92048828 -0.29140625 37.92886719 0.625 37.9375 C1.5221875 37.94201172 2.419375 37.94652344 3.34375 37.95117188 C5.56256648 37.96297409 7.78125018 37.97943845 10 38 C10 36.68 10 35.36 10 34 C9.34 34 8.68 34 8 34 C7.95875 33.4225 7.9175 32.845 7.875 32.25 C6.54500609 28.83001567 4.09911668 27.79748768 1 26 C0.01 25.67 -0.98 25.34 -2 25 C-2.474375 23.865625 -2.94875 22.73125 -3.4375 21.5625 C-4.63576528 18.04461152 -4.63576528 18.04461152 -6.8125 16.625 C-15.14446237 14.24443932 -24.87183275 13.48239508 -33 16.75 C-35.140625 17.59375 -35.140625 17.59375 -37 18 C-39.75 16.25 -39.75 16.25 -42 14 C-51.41427985 11.02706952 -59.07075866 13.54320693 -66 20 Z " fill="#5C8F38" transform="translate(99,15)"/>
<path d="M0 0 C0 0.66 0 1.32 0 2 C0.680625 2.0825 1.36125 2.165 2.0625 2.25 C5.8746907 3.22332528 8.64070329 4.95807455 12 7 C12 7.66 12 8.32 12 9 C12.556875 9.226875 13.11375 9.45375 13.6875 9.6875 C16.66159588 11.37550036 18.72008865 13.46676517 21 16 C21 16.66 21 17.32 21 18 C21.66 18 22.32 18 23 18 C24.13277268 20.18376766 25.25622789 22.37157128 26.375 24.5625 C26.69210938 25.17158203 27.00921875 25.78066406 27.3359375 26.40820312 C32.98670216 37.53314605 34.82786712 52.82311141 30.94921875 64.9296875 C29.76674733 67.72715676 28.46403588 70.34255306 27 73 C26.312707 74.65826734 25.63977703 76.32282751 25 78 C24.34 78 23.68 78 23 78 C22.62875 79.175625 22.62875 79.175625 22.25 80.375 C20.79075497 83.43941457 19.94985044 83.61725761 17 85 C15.73195434 87.0335948 15.73195434 87.0335948 15 89 C14.67 89 14.34 89 14 89 C13.773125 87.824375 13.54625 86.64875 13.3125 85.4375 C11.85208465 79.63697705 9.11999357 75.46044002 4.1875 72.0625 C3.465625 71.711875 2.74375 71.36125 2 71 C3.24023608 67.27929177 4.95730148 66.37478909 8 64 C8.99 62.515 8.99 62.515 10 61 C13.125 60.8125 13.125 60.8125 16 61 C16 60.34 16 59.68 16 59 C18.31 58.34 20.62 57.68 23 57 C23 55.68 23 54.36 23 53 C22.34 53 21.68 53 21 53 C21 52.01 21 51.02 21 50 C23 48.3125 23 48.3125 25 47 C24.67 46.67 24.34 46.34 24 46 C22.515 46.495 22.515 46.495 21 47 C21 45.02 21 43.04 21 41 C20.34 41 19.68 41 19 41 C19 40.34 19 39.68 19 39 C16.69 39 14.38 39 12 39 C12 39.66 12 40.32 12 41 C11.34 41 10.68 41 10 41 C8.92474806 43.65228812 7.90543849 46.28368454 7 49 C-0.23440695 49.47438734 -6.62328029 48.70640157 -13 45 C-14.78513689 42.61129247 -15.26305742 40.94777032 -16 38 C-17.60379341 37.94583812 -19.20811406 37.90713362 -20.8125 37.875 C-22.15248047 37.84019531 -22.15248047 37.84019531 -23.51953125 37.8046875 C-26.25402714 37.81714173 -26.25402714 37.81714173 -29 40 C-29.72965366 42.56282742 -29.72965366 42.56282742 -30 45 C-35.17379682 42.75216109 -38.77697025 40.83454463 -42 36 C-30.94794185 31.17728372 -20.4634913 32.9775593 -9 36 C-8.505 38.475 -8.505 38.475 -8 41 C-7.67 40.67 -7.34 40.34 -7 40 C-5.02769832 39.62819644 -3.04669048 39.30199332 -1.0625 39 C3.10680541 38.43741399 3.10680541 38.43741399 7 37 C8.37548156 36.91691362 9.75485796 36.89263984 11.1328125 36.90234375 C11.93847656 36.90556641 12.74414062 36.90878906 13.57421875 36.91210938 C14.83685547 36.92467773 14.83685547 36.92467773 16.125 36.9375 C16.97449219 36.94201172 17.82398437 36.94652344 18.69921875 36.95117188 C20.79950909 36.96297126 22.8997633 36.98090694 25 37 C25.33 36.01 25.66 35.02 26 34 C25.34 34 24.68 34 24 34 C23.9175 33.38125 23.835 32.7625 23.75 32.125 C23.20721211 29.88670521 23.20721211 29.88670521 21.3125 28.9375 C19.50195402 28.20349487 17.68894034 27.47557614 15.875 26.75 C12.2630959 24.55144968 12.17241703 22.93597144 11 19 C5.08379177 14.56284383 -5.01193087 15.46438752 -12 16 C-14.63742237 16.76116016 -14.63742237 16.76116016 -17 17.75 C-19.140625 18.59375 -19.140625 18.59375 -21 19 C-23.75 17.25 -23.75 17.25 -26 15 C-32.03655209 13.09372039 -38.22628389 13.48968865 -44 16 C-47.08988935 18.1769675 -48.8942425 19.84136375 -51 23 C-51.103125 24.134375 -51.20625 25.26875 -51.3125 26.4375 C-52.169579 30.87872754 -53.46609813 31.37011954 -57 34 C-63.5491502 43.52603666 -66.32686869 54.50561426 -65 66 C-64.05916848 68.78304435 -64.05916848 68.78304435 -63 71 C-64.485 71.99 -64.485 71.99 -66 73 C-66.65239158 71.60721983 -67.29660552 70.21060788 -67.9375 68.8125 C-68.29714844 68.03519531 -68.65679687 67.25789063 -69.02734375 66.45703125 C-72.97217339 56.49197967 -72.71329392 41.07075543 -68.984375 31.09765625 C-67.18545184 27.26423666 -65.20591374 23.61349679 -63 20 C-62.46375 19.01 -61.9275 18.02 -61.375 17 C-53.11888412 6.57122205 -41.32990302 -0.03580989 -28.4375 -2.75 C-18.56240293 -3.46818888 -9.58986403 -2.47552304 0 0 Z " fill="#DEDEDE" transform="translate(83,15)"/>
<path d="M0 0 C0.99 0 1.98 0 3 0 C3.33 0.99 3.66 1.98 4 3 C4.99 3.33 5.98 3.66 7 4 C7 4.66 7 5.32 7 6 C7.79664063 6.13277344 8.59328125 6.26554687 9.4140625 6.40234375 C12.6015625 6.93359375 12.6015625 6.93359375 15.7890625 7.46484375 C17.37847656 7.72974609 17.37847656 7.72974609 19 8 C19.93457031 8.18175781 20.86914062 8.36351563 21.83203125 8.55078125 C33.10798055 10.14971364 46.32574445 10.19457549 57 6 C58.6881538 4.69397844 60.35894201 3.36472863 62 2 C62.66 2 63.32 2 64 2 C64 1.34 64 0.68 64 0 C68.44209835 0.50766838 70.80450885 1.88644452 74 5 C76.65684514 8.4763266 77.89863899 11.33552225 78.5625 15.6875 C78 19 78 19 75.87109375 21.0078125 C72.84185719 23.10973175 69.8552926 24.66272334 66.5 26.1875 C65.3965625 26.69667969 64.293125 27.20585938 63.15625 27.73046875 C56.919703 30.23898085 50.94617162 30.21445454 44.3125 30.25 C42.89807617 30.2809375 42.89807617 30.2809375 41.45507812 30.3125 C34.82075731 30.34897737 29.23452502 29.25534857 23 27 C23 26.34 23 25.68 23 25 C22.43152344 24.89171875 21.86304687 24.7834375 21.27734375 24.671875 C14.99587238 22.81867933 9.22325348 17.9044234 5 13 C5 12.34 5 11.68 5 11 C4.34 11 3.68 11 3 11 C-1.06153846 4.6 -1.06153846 4.6 -0.75 1.5625 C-0.5025 1.046875 -0.255 0.53125 0 0 Z " fill="#0444F8" transform="translate(19,86)"/>
<path d="M0 0 C0.495 2.475 0.495 2.475 1 5 C1.33 4.67 1.66 4.34 2 4 C3.97230168 3.62819644 5.95330952 3.30199332 7.9375 3 C12.10680541 2.43741399 12.10680541 2.43741399 16 1 C17.37548156 0.91691362 18.75485796 0.89263984 20.1328125 0.90234375 C20.93847656 0.90556641 21.74414062 0.90878906 22.57421875 0.91210938 C23.41597656 0.92048828 24.25773437 0.92886719 25.125 0.9375 C25.97449219 0.94201172 26.82398438 0.94652344 27.69921875 0.95117188 C29.79950909 0.96297126 31.8997633 0.98090694 34 1 C34.495 4.465 34.495 4.465 35 8 C33.35 8.99 31.7 9.98 30 11 C30 9.02 30 7.04 30 5 C29.34 5 28.68 5 28 5 C28 4.34 28 3.68 28 3 C25.69 3 23.38 3 21 3 C21 3.66 21 4.32 21 5 C20.34 5 19.68 5 19 5 C17.92474806 7.65228812 16.90543849 10.28368454 16 13 C8.76559305 13.47438734 2.37671971 12.70640157 -4 9 C-5.78513689 6.61129247 -6.26305742 4.94777032 -7 2 C-8.60379341 1.94583812 -10.20811406 1.90713362 -11.8125 1.875 C-12.70582031 1.85179687 -13.59914063 1.82859375 -14.51953125 1.8046875 C-17.25402714 1.81714173 -17.25402714 1.81714173 -20 4 C-20.72965366 6.56282742 -20.72965366 6.56282742 -21 9 C-26.17379682 6.75216109 -29.77697025 4.83454463 -33 0 C-21.94794185 -4.82271628 -11.4634913 -3.0224407 0 0 Z " fill="#F6F6F6" transform="translate(74,51)"/>
<path d="M0 0 C1.32 0 2.64 0 4 0 C4 1.32 4 2.64 4 4 C1.35261084 5.4606285 0.10551666 6 -3 6 C-3.33 6.66 -3.66 7.32 -4 8 C-5.31613281 7.96519531 -6.63226563 7.93039063 -7.98828125 7.89453125 C-20.24529027 7.65439895 -20.24529027 7.65439895 -32.125 10.33203125 C-38.56844864 11.8290825 -45.42527177 11.2081098 -52 11 C-51.67 8.69 -51.34 6.38 -51 4 C-50.30849854 4.00523682 -49.61699707 4.01047363 -48.90454102 4.01586914 C-45.79053648 4.036575 -42.67654639 4.04963963 -39.5625 4.0625 C-38.47388672 4.07087891 -37.38527344 4.07925781 -36.26367188 4.08789062 C-34.71196289 4.09272461 -34.71196289 4.09272461 -33.12890625 4.09765625 C-32.17056885 4.10289307 -31.21223145 4.10812988 -30.22485352 4.11352539 C-28.02714661 4.2505313 -28.02714661 4.2505313 -27 3 C-24.08375992 0.08375992 -16.82430546 0.90858863 -13 0.875 C-8.56072687 0.90846186 -4.36426195 1.20649783 0 2 C0 1.34 0 0.68 0 0 Z " fill="#A16852" transform="translate(102,68)"/>
<path d="M0 0 C1.32 0 2.64 0 4 0 C4 1.32 4 2.64 4 4 C1.35261084 5.4606285 0.10551666 6 -3 6 C-3.33 6.66 -3.66 7.32 -4 8 C-11.26 8 -18.52 8 -26 8 C-26.33 6.35 -26.66 4.7 -27 3 C-24.08375992 0.08375992 -16.82430546 0.90858863 -13 0.875 C-8.56072687 0.90846186 -4.36426195 1.20649783 0 2 C0 1.34 0 0.68 0 0 Z " fill="#925F4C" transform="translate(102,68)"/>
<path d="M0 0 C0.87785156 -0.00515625 1.75570312 -0.0103125 2.66015625 -0.015625 C4.9375 0.25 4.9375 0.25 6.9375 2.25 C7.625 5.3125 7.625 5.3125 7.9375 8.25 C6.9375 9.25 6.9375 9.25 3.55859375 9.34765625 C2.16402923 9.34098369 0.76948257 9.32902532 -0.625 9.3125 C-1.69137695 9.30573242 -1.69137695 9.30573242 -2.77929688 9.29882812 C-4.54040013 9.28700864 -6.30146036 9.26907263 -8.0625 9.25 C-8.25 5.875 -8.25 5.875 -8.0625 2.25 C-4.81167327 0.08278218 -3.77017847 -0.02221018 0 0 Z " fill="#1F1F1F" transform="translate(62.0625,51.75)"/>
<path d="M0 0 C2.31 0 4.62 0 7 0 C7 0.66 7 1.32 7 2 C7.66 2 8.32 2 9 2 C9 4.31 9 6.62 9 9 C4.126739 10.5912689 0.19209404 11.21192221 -5 11 C-4.44271087 7.65626525 -3.64826111 4.96687001 -2 2 C-1.34 2 -0.68 2 0 2 C0 1.34 0 0.68 0 0 Z " fill="#111210" transform="translate(95,54)"/>
<path d="M0 0 C0.33 0.99 0.66 1.98 1 3 C-0.375 4.5 -0.375 4.5 -2 6 C-2.66 6 -3.32 6 -4 6 C-4 6.99 -4 7.98 -4 9 C-4.66 9 -5.32 9 -6 9 C-6 9.66 -6 10.32 -6 11 C-13.92 11 -21.84 11 -30 11 C-26.56693977 9.28346989 -25.05946485 8.70832776 -21.453125 8.3671875 C-20.60878906 8.28339844 -19.76445313 8.19960937 -18.89453125 8.11328125 C-18.02183594 8.03464844 -17.14914063 7.95601563 -16.25 7.875 C-14.91775391 7.74544922 -14.91775391 7.74544922 -13.55859375 7.61328125 C-11.37297064 7.40176934 -9.18691762 7.19759773 -7 7 C-7 6.34 -7 5.68 -7 5 C-7.66 4.67 -8.32 4.34 -9 4 C-8.071875 3.71125 -7.14375 3.4225 -6.1875 3.125 C-2.90208333 2.1125 -2.90208333 2.1125 0 0 Z " fill="#516232" transform="translate(108,59)"/>
<path d="M0 0 C1.32 0 2.64 0 4 0 C4 1.32 4 2.64 4 4 C-15.96810934 4.18451025 -15.96810934 4.18451025 -25 3 C-25 2.67 -25 2.34 -25 2 C-16.85333864 0.18963081 -8.17719464 0.51323734 0 2 C0 1.34 0 0.68 0 0 Z " fill="#9A6551" transform="translate(102,68)"/>
<path d="M0 0 C1.95825873 -0.02694851 3.91662226 -0.04637218 5.875 -0.0625 C6.96554688 -0.07410156 8.05609375 -0.08570313 9.1796875 -0.09765625 C12 0 12 0 14 1 C13.67 2.32 13.34 3.64 13 5 C8.05 4.67 3.1 4.34 -2 4 C-1.34 2.68 -0.68 1.36 0 0 Z " fill="#547A38" transform="translate(95,48)"/>
<path d="M0 0 C5.28 0 10.56 0 16 0 C15.34 0.66 14.68 1.32 14 2 C13.01 2 12.02 2 11 2 C10.67 2.66 10.34 3.32 10 4 C4.39 3.67 -1.22 3.34 -7 3 C-7 2.67 -7 2.34 -7 2 C-3.535 1.505 -3.535 1.505 0 1 C0 0.67 0 0.34 0 0 Z " fill="#715343" transform="translate(88,72)"/>
<path d="M0 0 C0.99 0 1.98 0 3 0 C3 0.66 3 1.32 3 2 C3.66 2 4.32 2 5 2 C5 3.65 5 5.3 5 7 C3.35 7 1.7 7 0 7 C0 4.69 0 2.38 0 0 Z " fill="#030402" transform="translate(54,54)"/>
<path d="M0 0 C1.65 1.32 3.3 2.64 5 4 C4.34 4 3.68 4 3 4 C2.67 4.66 2.34 5.32 2 6 C1.67 5.67 1.34 5.34 1 5 C-1.01311449 4.60430892 -3.03597208 4.25747809 -5.0625 3.9375 C-6.71958984 3.67259766 -6.71958984 3.67259766 -8.41015625 3.40234375 C-9.26480469 3.26957031 -10.11945312 3.13679688 -11 3 C-11 2.67 -11 2.34 -11 2 C-7.37 2 -3.74 2 0 2 C0 1.34 0 0.68 0 0 Z " fill="#42622C" transform="translate(67,40)"/>
<path d="M0 0 C1.32 0.66 2.64 1.32 4 2 C3.01 2.66 2.02 3.32 1 4 C0.67 4.99 0.34 5.98 0 7 C-3 6 -3 6 -5 4 C-4.360625 3.71125 -3.72125 3.4225 -3.0625 3.125 C-0.84793921 2.17176549 -0.84793921 2.17176549 0 0 Z " fill="#4F7436" transform="translate(72,60)"/>
<path d="M0 0 C-0.33 0.99 -0.66 1.98 -1 3 C-3.0625 3.6875 -3.0625 3.6875 -5 4 C-5 3.34 -5 2.68 -5 2 C-7.64 2 -10.28 2 -13 2 C-13 1.67 -13 1.34 -13 1 C-11.20994059 0.63779734 -9.41787943 0.28547531 -7.625 -0.0625 C-6.12839844 -0.35833984 -6.12839844 -0.35833984 -4.6015625 -0.66015625 C-2 -1 -2 -1 0 0 Z " fill="#805445" transform="translate(71,75)"/>
<path d="M0 0 C0.33 0.99 0.66 1.98 1 3 C-0.25 4.5625 -0.25 4.5625 -2 6 C-4.1875 5.6875 -4.1875 5.6875 -6 5 C-4.02 3.35 -2.04 1.7 0 0 Z " fill="#628349" transform="translate(108,59)"/>
<path d="M0 0 C0.99 0.495 0.99 0.495 2 1 C1.67 2.65 1.34 4.3 1 6 C0.67 6 0.34 6 0 6 C0 4.02 0 2.04 0 0 Z " fill="#FFFFFF" transform="translate(123,48)"/>
<path d="" fill="#FFFFFF" transform="translate(0,0)"/>
</svg>
