<?xml version="1.0" encoding="UTF-8"?>
<svg version="1.1" xmlns="http://www.w3.org/2000/svg" width="64" height="64">
<path d="M0 0 C21.12 0 42.24 0 64 0 C64 21.12 64 42.24 64 64 C42.88 64 21.76 64 0 64 C0 42.88 0 21.76 0 0 Z " fill="#040404" transform="translate(0,0)"/>
<path d="M0 0 C-1.65688291 2.84867588 -3.32634821 5.04617754 -6 7 C-10.06495686 7.6154324 -13.92030524 7.41589121 -18 7 C-13.45575908 -0.81290543 -8.5612432 -0.87274809 0 0 Z " fill="#FEFEFE" transform="translate(51,23)"/>
<path d="M0 0 C10.5309417 -1.0735426 10.5309417 -1.0735426 14.1328125 1.55859375 C15.59155055 3.30978411 16.85490268 5.03123619 18 7 C7.4690583 8.0735426 7.4690583 8.0735426 3.8671875 5.44140625 C2.40844945 3.69021589 1.14509732 1.96876381 0 0 Z " fill="#FEFEFE" transform="translate(13,23)"/>
<path d="M0 0 C9.57668161 -1.0735426 9.57668161 -1.0735426 13.06640625 1.55859375 C14.52961293 3.31091597 15.81955587 5.04753546 17 7 C6.34726208 7.91746068 6.34726208 7.91746068 3.08984375 5.69921875 C0 1.9247449 0 1.9247449 0 0 Z " fill="#FAFAFA" transform="translate(34,34)"/>
<path d="M0 0 C-1.52206009 2.62901288 -2.84365964 4.84365964 -5 7 C-7.8203125 7.1953125 -7.8203125 7.1953125 -11.125 7.125 C-12.22070312 7.10695313 -13.31640625 7.08890625 -14.4453125 7.0703125 C-15.28835938 7.04710937 -16.13140625 7.02390625 -17 7 C-12.53193556 -0.39021629 -8.31224638 -0.93179986 0 0 Z " fill="#FBFBFB" transform="translate(30,34)"/>
<path d="M0 0 C3.71860179 1.53873177 4.35633541 2.47511388 7 6 C3.04 6 -0.92 6 -5 6 C-3.35 4.02 -1.7 2.04 0 0 Z " fill="#4973FE" transform="translate(31,38)"/>
<path d="M0 0 C3.96 0 7.92 0 12 0 C10.35 1.98 8.7 3.96 7 6 C3.28139821 4.46126823 2.64366459 3.52488612 0 0 Z " fill="#4973FE" transform="translate(26,20)"/>
</svg>
