<?xml version="1.0" encoding="UTF-8"?>
<svg version="1.1" xmlns="http://www.w3.org/2000/svg" width="64" height="64">
<path d="M0 0 C4.39434227 0.57458251 7.31051188 2.26109464 11.0625 4.5625 C17.52162507 8.0909611 22.71391877 9.62023362 30 8 C33.62214284 6.34630444 36.74664575 4.27499047 40 2 C43.15545823 0.1431342 44.10721755 0 48 0 C48.90562242 4.53507844 49.01878026 8.69715374 48.875 13.3125 C48.82088752 18.82656171 49.28049291 23.09627113 51.33203125 28.19140625 C52.18760814 30.50796825 52.23653492 32.55580583 52 35 C52.99 35.495 52.99 35.495 54 36 C56 38 56 38 56 42 C54.68 41.67 53.36 41.34 52 41 C52.495 41.680625 52.99 42.36125 53.5 43.0625 C55.35084433 46.68707015 55.43908161 48.97508528 55 53 C54 55.4375 54 55.4375 52 57 C48.07194791 57.57284093 44.75695746 57.25231915 41 56 C38.0524556 57.3589809 35.26426117 58.86121524 32.4453125 60.46289062 C28.05787437 62.82280053 24.94683614 63.61630924 20 63 C17.2332995 62.05186106 14.66698068 60.82396564 12.0625 59.5 C11.37865234 59.16613281 10.69480469 58.83226562 9.99023438 58.48828125 C8.32078773 57.67106961 6.65950015 56.8372253 5 56 C4.505 56.495 4.505 56.495 4 57 C-3.12881806 57.70119522 -3.12881806 57.70119522 -6.5625 54.9375 C-8.83264696 50.29850403 -7.5746716 46.72401481 -6 42 C-6.66 42 -7.32 42 -8 42 C-7.125 37.25 -7.125 37.25 -6 35 C-5.4739779 33.09031106 -4.97816664 31.1722299 -4.5 29.25 C-4.2421875 28.22390625 -3.984375 27.1978125 -3.71875 26.140625 C-2.57960213 21.16304409 -1.89366733 16.60902345 -2.0625 11.5 C-2.11454104 7.26154667 -1.70617437 3.94552823 0 0 Z " fill="#FAC62F" transform="translate(8,1)"/>
<path d="M0 0 C1.32 0.33 2.64 0.66 4 1 C4.02578125 2.13179687 4.0515625 3.26359375 4.078125 4.4296875 C4.13439626 5.91149743 4.19174382 7.39326677 4.25 8.875 C4.26417969 9.62136719 4.27835938 10.36773437 4.29296875 11.13671875 C4.35986341 13.57138381 4.35986341 13.57138381 5 17 C6.80192175 18.47924575 6.80192175 18.47924575 9 19 C12.50370531 21.78703832 13.86904223 23.06692592 14.5 27.5625 C13.72820513 32.86858974 13.72820513 32.86858974 11 35 C7.07194791 35.57284093 3.75695746 35.25231915 0 34 C-2.9475444 35.3589809 -5.73573883 36.86121524 -8.5546875 38.46289062 C-12.94212563 40.82280053 -16.05316386 41.61630924 -21 41 C-23.7667005 40.05186106 -26.33301932 38.82396564 -28.9375 37.5 C-29.62134766 37.16613281 -30.30519531 36.83226562 -31.00976562 36.48828125 C-32.67921227 35.67106961 -34.34049985 34.8372253 -36 34 C-36.495 34.495 -36.495 34.495 -37 35 C-44.12881806 35.70119522 -44.12881806 35.70119522 -47.5625 32.9375 C-49.82245547 28.31933013 -48.59796336 24.92202509 -47.125 20.1875 C-46 18 -46 18 -43 16 C-42.63637182 13.79274927 -42.63637182 13.79274927 -42.8125 11.375 C-42.83957031 10.55773438 -42.86664063 9.74046875 -42.89453125 8.8984375 C-42.92933594 8.27195312 -42.96414062 7.64546875 -43 7 C-42.34 7 -41.68 7 -41 7 C-41 5.02 -41 3.04 -41 1 C-39.68 1 -38.36 1 -37 1 C-36.67 7.27 -36.34 13.54 -36 20 C-31.88427068 20.82314586 -28.60133599 21.12869086 -24.45703125 21.1328125 C-22.59981445 21.13474609 -22.59981445 21.13474609 -20.70507812 21.13671875 C-18.77825195 21.13091797 -18.77825195 21.13091797 -16.8125 21.125 C-15.51634766 21.12886719 -14.22019531 21.13273437 -12.88476562 21.13671875 C-11.65048828 21.13542969 -10.41621094 21.13414063 -9.14453125 21.1328125 C-8.01378174 21.13168457 -6.88303223 21.13055664 -5.71801758 21.12939453 C-3.03338061 21.18509679 -3.03338061 21.18509679 -1 20 C-0.67 13.4 -0.34 6.8 0 0 Z " fill="#5C4114" transform="translate(49,23)"/>
<path d="M0 0 C4.42323682 0.58265272 7.5155864 2.26766211 11.3125 4.5625 C12.38113281 5.20316406 13.44976563 5.84382812 14.55078125 6.50390625 C15.35902344 6.99761719 16.16726562 7.49132812 17 8 C14.32549157 9.78300562 11.86092681 10.9583534 8.9375 12.25 C4.739893 14.27936356 4.739893 14.27936356 2.375 18.3125 C2.25125 19.199375 2.1275 20.08625 2 21 C2.5775 20.67 3.155 20.34 3.75 20 C6 19 6 19 10 19 C10 19.66 10 20.32 10 21 C16.93 21 23.86 21 31 21 C30.34 22.32 29.68 23.64 29 25 C28.97468767 28.51554704 28.97468767 28.51554704 29.375 32.25 C29.48585937 33.51328125 29.59671875 34.7765625 29.7109375 36.078125 C29.80632813 37.04234375 29.90171875 38.0065625 30 39 C29.01 38.67 28.02 38.34 27 38 C26.34 38.66 25.68 39.32 25 40 C23.0625 39.625 23.0625 39.625 21 39 C20.01 39 19.02 39 18 39 C15.79857668 41.4390706 15.79857668 41.4390706 14 44 C10.87709365 43.51421457 8.00419641 43.0013988 5 42 C3.34502644 38.69005287 3.89915665 35.00877 3.9375 31.375 C3.94426758 30.17230469 3.94426758 30.17230469 3.95117188 28.9453125 C3.96296832 26.96350994 3.98090395 24.98174567 4 23 C2.68 23 1.36 23 0 23 C0 24.98 0 26.96 0 29 C-0.66 29 -1.32 29 -2 29 C-1.67 32.3 -1.34 35.6 -1 39 C-5.75 42 -5.75 42 -8 42 C-7.125 37.25 -7.125 37.25 -6 35 C-5.4739779 33.09031106 -4.97816664 31.1722299 -4.5 29.25 C-4.2421875 28.22390625 -3.984375 27.1978125 -3.71875 26.140625 C-2.57960213 21.16304409 -1.89366733 16.60902345 -2.0625 11.5 C-2.11454104 7.26154667 -1.70617437 3.94552823 0 0 Z " fill="#F1AC2F" transform="translate(8,1)"/>
<path d="M0 0 C0.90562242 4.53507844 1.01878026 8.69715374 0.875 13.3125 C0.82088752 18.82656171 1.28049291 23.09627113 3.33203125 28.19140625 C4.18760814 30.50796825 4.23653492 32.55580583 4 35 C4.66 35.33 5.32 35.66 6 36 C8 38 8 38 8 42 C4.02319127 42.18076403 1.44386058 42.04080627 -2 40 C-2.33 40 -2.66 40 -3 40 C-3 34.39 -3 28.78 -3 23 C-5.31 22.34 -7.62 21.68 -10 21 C-10.33 20.34 -10.66 19.68 -11 19 C-8.36 19 -5.72 19 -3 19 C-4.45823672 15.12784599 -6.23104277 14.06222723 -9.9375 12.375 C-12.82656276 11.03896803 -15.34035479 9.7730968 -18 8 C-16.41779413 7.03980636 -14.83418669 6.08192202 -13.25 5.125 C-11.92742188 4.32449219 -11.92742188 4.32449219 -10.578125 3.5078125 C-4.58031088 0 -4.58031088 0 0 0 Z " fill="#F3B028" transform="translate(56,1)"/>
<path d="M0 0 C-0.66 0.33 -1.32 0.66 -2 1 C-1.84402344 1.63808594 -1.68804687 2.27617187 -1.52734375 2.93359375 C-1.23537109 4.17302734 -1.23537109 4.17302734 -0.9375 5.4375 C-0.64166016 6.67306641 -0.64166016 6.67306641 -0.33984375 7.93359375 C-0.22769531 8.61550781 -0.11554687 9.29742187 0 10 C-1 11 -1 11 -3.31665039 11.11352539 C-4.31688232 11.10828857 -5.31711426 11.10305176 -6.34765625 11.09765625 C-7.42724609 11.09443359 -8.50683594 11.09121094 -9.61914062 11.08789062 C-10.75544922 11.07951172 -11.89175781 11.07113281 -13.0625 11.0625 C-14.20267578 11.05798828 -15.34285156 11.05347656 -16.51757812 11.04882812 C-19.34510351 11.03699747 -22.1725264 11.0205141 -25 11 C-25 10.34 -25 9.68 -25 9 C-27.64 9.66 -30.28 10.32 -33 11 C-33 8.3125 -33 8.3125 -32 5 C-23.11818748 -2.99363127 -10.86337141 -3.77856397 0 0 Z " fill="#F9CB37" transform="translate(43,11)"/>
<path d="M0 0 C1.32 0 2.64 0 4 0 C4.33 6.27 4.66 12.54 5 19 C5.99 19 6.98 19 8 19 C8.37483918 23.68548971 8.34800941 27.17347766 6.5 31.5625 C3.90418707 34.09341761 3.40912449 34.44580834 0 34.6875 C-3.17877128 34.42606834 -3.96337396 34.02947949 -6.5625 31.9375 C-8.82245547 27.31933013 -7.59796336 23.92202509 -6.125 19.1875 C-5 17 -5 17 -2 15 C-1.63637182 12.79274927 -1.63637182 12.79274927 -1.8125 10.375 C-1.83957031 9.55773438 -1.86664062 8.74046875 -1.89453125 7.8984375 C-1.92933594 7.27195312 -1.96414062 6.64546875 -2 6 C-1.34 6 -0.68 6 0 6 C0 4.02 0 2.04 0 0 Z " fill="#B8C366" transform="translate(8,24)"/>
<path d="M0 0 C1.98 0.495 1.98 0.495 4 1 C4.02578125 2.13179687 4.0515625 3.26359375 4.078125 4.4296875 C4.13439626 5.91149743 4.19174382 7.39326677 4.25 8.875 C4.26417969 9.62136719 4.27835938 10.36773437 4.29296875 11.13671875 C4.35986341 13.57138381 4.35986341 13.57138381 5 17 C6.80192175 18.47924575 6.80192175 18.47924575 9 19 C12.50370531 21.78703832 13.86904223 23.06692592 14.5 27.5625 C13.72820513 32.86858974 13.72820513 32.86858974 11 35 C7.53012416 35.49671024 4.19679291 35.59839645 1 34 C-1.45908514 30.44621159 -1.15505438 27.2592834 -0.9765625 23.046875 C-0.95153656 22.38665344 -0.92651062 21.72643188 -0.90072632 21.04620361 C-0.81885175 18.94692111 -0.7221408 16.84862599 -0.625 14.75 C-0.56672689 13.32295641 -0.50942434 11.89587283 -0.453125 10.46875 C-0.31332364 6.97863306 -0.16021403 3.48924626 0 0 Z " fill="#149ECB" transform="translate(49,23)"/>
<path d="M0 0 C1.5625 1.8125 1.5625 1.8125 3 4 C1.80761658 7.57715025 0.52518202 8.08594537 -2.72265625 9.75195312 C-3.35042969 10.06068359 -3.97820313 10.36941406 -4.625 10.6875 C-5.22957031 11.00783203 -5.83414063 11.32816406 -6.45703125 11.65820312 C-10.83429977 13.84683738 -14.14780662 14.58961993 -19 14 C-21.61498904 13.05985244 -24.00378342 11.83403724 -26.4375 10.5 C-27.07365234 10.16613281 -27.70980469 9.83226562 -28.36523438 9.48828125 C-29.91693107 8.67159878 -31.45947571 7.8375666 -33 7 C-32.67 5.35 -32.34 3.7 -32 2 C-28.08125749 2 -27.3635067 2.14733486 -24.25 4 C-19.28777974 6.5821924 -15.24751088 6.87706498 -9.859375 5.421875 C-6.12841615 4.12294858 -3.0036639 2.62820592 0 0 Z " fill="#DE993A" transform="translate(47,50)"/>
<path d="M0 0 C6.625 -0.125 6.625 -0.125 10 1 C10.05379226 3.95857409 10.09357093 6.91617721 10.125 9.875 C10.14175781 10.71675781 10.15851562 11.55851562 10.17578125 12.42578125 C10.18222656 13.23144531 10.18867188 14.03710938 10.1953125 14.8671875 C10.20578613 15.61081543 10.21625977 16.35444336 10.22705078 17.12060547 C10 19 10 19 8 21 C4.4375 20.75 4.4375 20.75 1 20 C-0.1482685 17.703463 -0.11561175 16.41686833 -0.09765625 13.8671875 C-0.09443359 13.06152344 -0.09121094 12.25585938 -0.08789062 11.42578125 C-0.07951172 10.58402344 -0.07113281 9.74226563 -0.0625 8.875 C-0.05798828 8.02550781 -0.05347656 7.17601562 -0.04882812 6.30078125 C-0.03702874 4.20049091 -0.01909306 2.1002367 0 0 Z " fill="#F7B508" transform="translate(12,23)"/>
<path d="M0 0 C4.95 0 9.9 0 15 0 C14.34 1.32 13.68 2.64 13 4 C12.97468767 7.51554704 12.97468767 7.51554704 13.375 11.25 C13.48585938 12.51328125 13.59671875 13.7765625 13.7109375 15.078125 C13.80632813 16.04234375 13.90171875 17.0065625 14 18 C13.01 17.67 12.02 17.34 11 17 C10.34 17.66 9.68 18.32 9 19 C7.0625 18.625 7.0625 18.625 5 18 C4.01 18 3.02 18 2 18 C1 16 1 16 1.55859375 13.8359375 C1.84863281 13.02382813 2.13867188 12.21171875 2.4375 11.375 C2.72496094 10.55773438 3.01242188 9.74046875 3.30859375 8.8984375 C3.53675781 8.27195312 3.76492187 7.64546875 4 7 C3.34 7 2.68 7 2 7 C2 5.68 2 4.36 2 3 C1.34 3 0.68 3 0 3 C0 2.01 0 1.02 0 0 Z " fill="#E93D24" transform="translate(24,22)"/>
<path d="M0 0 C0.763125 0.0825 1.52625 0.165 2.3125 0.25 C2.3125 0.91 2.3125 1.57 2.3125 2.25 C1.6525 2.25 0.9925 2.25 0.3125 2.25 C0.3125 8.52 0.3125 14.79 0.3125 21.25 C1.6325 21.91 2.9525 22.57 4.3125 23.25 C-3.6075 23.25 -11.5275 23.25 -19.6875 23.25 C-18.0375 20.94 -16.3875 18.63 -14.6875 16.25 C-13.6975 16.91 -12.7075 17.57 -11.6875 18.25 C-9.65830157 17.99276031 -9.65830157 17.99276031 -7.6875 17.25 C-6.6975 16.92 -5.7075 16.59 -4.6875 16.25 C-4.79449219 15.43015625 -4.90148438 14.6103125 -5.01171875 13.765625 C-5.13160156 12.68796875 -5.25148438 11.6103125 -5.375 10.5 C-5.50261719 9.43265625 -5.63023438 8.3653125 -5.76171875 7.265625 C-5.65510279 2.93365017 -4.50163831 0.41875705 0 0 Z " fill="#E8940E" transform="translate(41.6875,21.75)"/>
<path d="M0 0 C0.66 0.33 1.32 0.66 2 1 C1.484375 1.4125 0.96875 1.825 0.4375 2.25 C-0.036875 2.8275 -0.51125 3.405 -1 4 C-0.77242269 6.16299211 -0.77242269 6.16299211 0 8 C2.31 8.33 4.62 8.66 7 9 C7 7.02 7 5.04 7 3 C7.66 3 8.32 3 9 3 C9.31692883 7.59546808 9.33049043 10.22885565 7.5 14.5 C4.90185174 17.09814826 4.44688792 17.44956184 1 17.6875 C-2.17877128 17.42606834 -2.96337396 17.02947949 -5.5625 14.9375 C-7.45332378 11.07364271 -7.19248952 9.09918272 -6 5 C-4.10888889 2.6818638 -2.66171969 1.33085985 0 0 Z " fill="#08A8DD" transform="translate(7,41)"/>
<path d="M0 0 C2.97 0.495 2.97 0.495 6 1 C4.68 1.33 3.36 1.66 2 2 C2.99 3.485 2.99 3.485 4 5 C6.29197122 5.38332925 6.29197122 5.38332925 8.9375 5.22265625 C9.91460937 5.20396484 10.89171875 5.18527344 11.8984375 5.16601562 C13.43371094 5.11477539 13.43371094 5.11477539 15 5.0625 C17.02058647 5.00269675 19.04145123 4.95148376 21.0625 4.91015625 C21.96097656 4.88058838 22.85945313 4.85102051 23.78515625 4.82055664 C26 5 26 5 28 7 C24.535 8.485 24.535 8.485 21 10 C21 10.33 21 10.66 21 11 C8.48008328 12.92760913 8.48008328 12.92760913 3.1875 10 C1.32421875 8.61328125 1.32421875 8.61328125 0 7 C-0.5 3.1875 -0.5 3.1875 0 0 Z " fill="#2F2517" transform="translate(16,44)"/>
<path d="M0 0 C0.33 2.31 0.66 4.62 1 7 C-5.6 7 -12.2 7 -19 7 C-17 1 -17 1 -16 -1 C-9.99527297 -2.10086662 -5.80576395 -1.93525465 0 0 Z " fill="#FCEF70" transform="translate(40,14)"/>
<path d="M0 0 C1.98 0.495 1.98 0.495 4 1 C4.01417969 2.16917969 4.02835938 3.33835937 4.04296875 4.54296875 C4.08988438 6.09118457 4.13813169 7.63936044 4.1875 9.1875 C4.19330078 9.95642578 4.19910156 10.72535156 4.20507812 11.51757812 C4.3732663 15.87178312 4.54157972 17.48541798 7.55078125 20.86328125 C8.35902344 21.56839844 9.16726562 22.27351563 10 23 C10 23.99 10 24.98 10 26 C7.03 26.33 4.06 26.66 1 27 C-1.15908873 20.99245922 -1.08010645 15.88392856 -0.625 9.5625 C-0.56828125 8.64017578 -0.5115625 7.71785156 -0.453125 6.76757812 C-0.31280733 4.51080221 -0.16152895 2.25534003 0 0 Z " fill="#9AC38C" transform="translate(49,23)"/>
<path d="M0 0 C1.32 0 2.64 0 4 0 C4 0.66 4 1.32 4 2 C5.98 2 7.96 2 10 2 C10 2.99 10 3.98 10 5 C10.66 5 11.32 5 12 5 C12 6.32 12 7.64 12 9 C12.66 9 13.32 9 14 9 C11.42465753 21.57534247 11.42465753 21.57534247 8 25 C5.875 24.625 5.875 24.625 4 24 C4.99 23.34 5.98 22.68 7 22 C7.50531866 20.07558585 7.50531866 20.07558585 7.51171875 17.8671875 C7.54716797 17.06152344 7.58261719 16.25585938 7.61914062 15.42578125 C7.64169922 14.58402344 7.66425781 13.74226563 7.6875 12.875 C7.72166016 12.02550781 7.75582031 11.17601562 7.79101562 10.30078125 C7.87359173 8.20098895 7.93846978 6.10051436 8 4 C4.04 4 0.08 4 -4 4 C-2.68 2.68 -1.36 1.36 0 0 Z " fill="#C37F0A" transform="translate(14,20)"/>
<path d="M0 0 C1.5625 1.8125 1.5625 1.8125 3 4 C1.80550306 7.58349082 0.30054082 8.44376611 -2.9453125 10.21484375 C-6.37322889 11.52475096 -9.36683622 11.25495886 -13 11 C-13 11.66 -13 12.32 -13 13 C-15.97 12.505 -15.97 12.505 -19 12 C-19.33 11.01 -19.66 10.02 -20 9 C-18.576875 8.6596875 -18.576875 8.6596875 -17.125 8.3125 C-11.00052233 6.57514817 -5.27825597 3.51883732 0 0 Z " fill="#DA992D" transform="translate(47,50)"/>
<path d="M0 0 C3.73487777 0.4979837 5.81237635 0.87491756 9 3 C9 3.66 9 4.32 9 5 C9.99 5 10.98 5 12 5 C11.67 8.3 11.34 11.6 11 15 C11.94875 15.103125 12.8975 15.20625 13.875 15.3125 C17 16 17 16 19 19 C19 20.32 19 21.64 19 23 C15.02319127 23.18076403 12.44386058 23.04080627 9 21 C8.67 21 8.34 21 8 21 C8 15.39 8 9.78 8 4 C5.69 3.34 3.38 2.68 1 2 C0.67 1.34 0.34 0.68 0 0 Z " fill="#766663" transform="translate(45,20)"/>
<path d="M0 0 C0.66 0 1.32 0 2 0 C2 6.6 2 13.2 2 20 C0.35 20.33 -1.3 20.66 -3 21 C-4.25433458 17.23699626 -4.10695422 13.72789091 -4.0625 9.8125 C-4.05798828 9.06291016 -4.05347656 8.31332031 -4.04882812 7.54101562 C-4.03706354 5.69397617 -4.01912865 3.84697787 -4 2 C-3.01 2 -2.02 2 -1 2 C-0.67 1.34 -0.34 0.68 0 0 Z " fill="#E4D327" transform="translate(47,23)"/>
<path d="M0 0 C4.75 0.75 4.75 0.75 7 3 C7.8563027 5.63233792 8.38929927 8.29546818 9 11 C8.01 10.67 7.02 10.34 6 10 C5.34 10.66 4.68 11.32 4 12 C2.0625 11.625 2.0625 11.625 0 11 C-0.99 11 -1.98 11 -3 11 C-3.33 10.34 -3.66 9.68 -4 9 C-3.22265625 6.8359375 -3.22265625 6.8359375 -2.0625 4.375 C-1.68222656 3.55773438 -1.30195313 2.74046875 -0.91015625 1.8984375 C-0.60980469 1.27195312 -0.30945313 0.64546875 0 0 Z " fill="#4A1905" transform="translate(29,29)"/>
<path d="M0 0 C0.94875 0.33 1.8975 0.66 2.875 1 C1.885 1.495 1.885 1.495 0.875 2 C1.535 4.97 2.195 7.94 2.875 11 C1.555 11.33 0.235 11.66 -1.125 12 C-0.465 11.67 0.195 11.34 0.875 11 C0.545 8.69 0.215 6.38 -0.125 4 C-6.95579148 2.81774763 -13.25131267 3.25535054 -20.125 4 C-20.455 5.65 -20.785 7.3 -21.125 9 C-21.455 8.01 -21.785 7.02 -22.125 6 C-22.785 5.67 -23.445 5.34 -24.125 5 C-21.5595406 2.4345406 -19.64813332 2.45953913 -16.125 2 C-16.125 1.34 -16.125 0.68 -16.125 0 C-11.44979446 -2.33760277 -4.89787981 -1.41227209 0 0 Z " fill="#FBE34E" transform="translate(40.125,10)"/>
<path d="M0 0 C0 4.62 0 9.24 0 14 C-9.375 8.7265625 -9.375 8.7265625 -12 7 C-12 6.34 -12 5.68 -12 5 C-10.37750059 4.16180842 -8.75191503 3.3295884 -7.125 2.5 C-6.22007813 2.0359375 -5.31515625 1.571875 -4.3828125 1.09375 C-2 0 -2 0 0 0 Z " fill="#C47B1F" transform="translate(54,4)"/>
<path d="M0 0 C3.51270703 0.87817676 5.31210848 1.65287051 8.25 3.5625 C8.95640625 4.01753906 9.6628125 4.47257813 10.390625 4.94140625 C11.18726563 5.46541016 11.18726563 5.46541016 12 6 C8.20593075 9.00363816 4.11356788 11.4632998 0 14 C0 9.38 0 4.76 0 0 Z " fill="#C47A1E" transform="translate(9,4)"/>
<path d="M0 0 C0.99 0.66 1.98 1.32 3 2 C5.01954441 1.66179847 5.01954441 1.66179847 7 1 C7.99 1 8.98 1 10 1 C13 5.33333333 13 5.33333333 13 7 C7.06 7 1.12 7 -5 7 C-3.35 4.69 -1.7 2.38 0 0 Z " fill="#F5BC44" transform="translate(27,38)"/>
<path d="M0 0 C0.33 0 0.66 0 1 0 C1 3.3 1 6.6 1 10 C0.34 10 -0.32 10 -1 10 C-0.67 13.3 -0.34 16.6 0 20 C-4.75 23 -4.75 23 -7 23 C-6.125 18.25 -6.125 18.25 -5 16 C-4.2322901 12.99057721 -3.52588463 9.96895333 -2.81640625 6.9453125 C-2.10862384 4.39187739 -1.28498429 2.30295886 0 0 Z " fill="#E88034" transform="translate(7,20)"/>
<path d="M0 0 C8.91 0 17.82 0 27 0 C26.67 1.32 26.34 2.64 26 4 C18.08 3.67 10.16 3.34 2 3 C1.67 3.66 1.34 4.32 1 5 C0.67 3.35 0.34 1.7 0 0 Z " fill="#B5A898" transform="translate(18,46)"/>
<path d="M0 0 C1.32 0 2.64 0 4 0 C4 6.6 4 13.2 4 20 C3.01 20 2.02 20 1 20 C-0.1482685 17.703463 -0.11561175 16.41686833 -0.09765625 13.8671875 C-0.09443359 13.06152344 -0.09121094 12.25585938 -0.08789062 11.42578125 C-0.07951172 10.58402344 -0.07113281 9.74226563 -0.0625 8.875 C-0.05798828 8.02550781 -0.05347656 7.17601562 -0.04882812 6.30078125 C-0.03702874 4.20049091 -0.01909306 2.1002367 0 0 Z " fill="#E0D832" transform="translate(12,23)"/>
<path d="M0 0 C2.30645358 0.93699677 3.4842052 1.84196676 5 3.8125 C5 4.8025 5 5.7925 5 6.8125 C0.545 7.3075 0.545 7.3075 -4 7.8125 C-4.33 5.8325 -4.66 3.8525 -5 1.8125 C-2 -0.1875 -2 -0.1875 0 0 Z " fill="#A3E5F4" transform="translate(54,42.1875)"/>
<path d="M0 0 C2.26274788 0.35355436 3.95088852 0.97544426 6 2 C6 3.98 6 5.96 6 8 C2.625 8.125 2.625 8.125 -1 8 C-1.66 7.34 -2.32 6.68 -3 6 C-2.63318342 3.06546739 -2.13562754 2.13562754 0 0 Z " fill="#A8E4F2" transform="translate(8,42)"/>
<path d="M0 0 C3.83690637 1.56318408 6.39154889 3.7953315 9 7 C8.91617963 10.43663532 7.65477998 13.02139604 6 16 C3.36 15.67 0.72 15.34 -2 15 C-2 14.67 -2 14.34 -2 14 C-1.030625 13.7525 -0.06125 13.505 0.9375 13.25 C4.01678672 12.32298437 4.01678672 12.32298437 5.1875 10.25 C4.88355664 6.60267969 2.36502525 4.65344296 0 2 C0 1.34 0 0.68 0 0 Z " fill="#128EBA" transform="translate(54,40)"/>
<path d="M0 0 C0.66 0.33 1.32 0.66 2 1 C2 3.97 2 6.94 2 10 C1.67 10 1.34 10 1 10 C1 8.02 1 6.04 1 4 C0.01 4 -0.98 4 -2 4 C-1.835 5.093125 -1.67 6.18625 -1.5 7.3125 C-0.83377888 12.53905159 -0.91298457 17.7404008 -1 23 C-1.99 22.67 -2.98 22.34 -4 22 C-4.10349817 15.58311325 -3.74507544 9.37305598 -3 3 C-2.34 3 -1.68 3 -1 3 C-0.67 2.01 -0.34 1.02 0 0 Z " fill="#FBC10F" transform="translate(45,21)"/>
<path d="M0 0 C0.99 0 1.98 0 3 0 C3.02691685 2.45840605 3.04679802 4.91651882 3.0625 7.375 C3.07087891 8.07367188 3.07925781 8.77234375 3.08789062 9.4921875 C3.11328125 14.7734375 3.11328125 14.7734375 2 17 C2.99 17.33 3.98 17.66 5 18 C3.68 18.33 2.36 18.66 1 19 C-0.26582219 15.13276369 -0.1118765 11.26848738 -0.0625 7.25 C-0.05798828 6.55261719 -0.05347656 5.85523438 -0.04882812 5.13671875 C-0.0371002 3.42444197 -0.01916653 1.71220967 0 0 Z " fill="#F3D513" transform="translate(15,25)"/>
<path d="M0 0 C0.33 2.31 0.66 4.62 1 7 C0.01 6.67 -0.98 6.34 -2 6 C-2 4.68 -2 3.36 -2 2 C-5.9813783 0.6728739 -9.85045227 0.93084087 -14 1 C-14.66 2.98 -15.32 4.96 -16 7 C-16.99 7 -17.98 7 -19 7 C-17.125 1.25 -17.125 1.25 -16 -1 C-9.99527297 -2.10086662 -5.80576395 -1.93525465 0 0 Z " fill="#FDE65E" transform="translate(40,14)"/>
<path d="M0 0 C0.33 0.99 0.66 1.98 1 3 C1.66 3 2.32 3 3 3 C3 4.32 3 5.64 3 7 C3.66 7 4.32 7 5 7 C4.69078116 8.45903258 4.37751201 9.91720722 4.0625 11.375 C3.88847656 12.18710937 3.71445312 12.99921875 3.53515625 13.8359375 C3 16 3 16 2 18 C1.34 18 0.68 18 0 18 C0 12.06 0 6.12 0 0 Z " fill="#E66F11" transform="translate(23,22)"/>
<path d="M0 0 C0.33 0.66 0.66 1.32 1 2 C0.01 3.98 -0.98 5.96 -2 8 C3.94 8 9.88 8 16 8 C16 8.33 16 8.66 16 9 C9.07 9 2.14 9 -5 9 C-5 8.34 -5 7.68 -5 7 C-6.32 6.67 -7.64 6.34 -9 6 C-7.35 6 -5.7 6 -4 6 C-3.67 4.35 -3.34 2.7 -3 1 C-2.01 0.67 -1.02 0.34 0 0 Z " fill="#F6BC53" transform="translate(23,13)"/>
<path d="M0 0 C2.875 0.3125 2.875 0.3125 6 1 C8 4 8 4 8 8 C5.125 8.125 5.125 8.125 2 8 C0 6 0 6 -0.125 2.875 C-0.08375 1.92625 -0.0425 0.9775 0 0 Z " fill="#704F24" transform="translate(56,35)"/>
<path d="M0 0 C0.66 0.33 1.32 0.66 2 1 C1.34 1.495 0.68 1.99 0 2.5 C-2.8827217 6.10340212 -2.30200997 8.46985042 -2 13 C-5 12 -5 12 -6.3125 9.6875 C-7 7 -7 7 -6.4375 4.875 C-4.58937282 2.46439933 -2.73133326 1.2973833 0 0 Z " fill="#1489AD" transform="translate(7,41)"/>
<path d="M0 0 C2 1.25 2 1.25 4 3 C4 4.32 4 5.64 4 7 C2.68 7.33 1.36 7.66 0 8 C0 7.34 0 6.68 0 6 C-0.99 6 -1.98 6 -3 6 C-2.42655063 3.13275314 -2.1385485 2.1385485 0 0 Z " fill="#92724C" transform="translate(31,31)"/>
<path d="M0 0 C3 3.75 3 3.75 3 6 C0.36 5.67 -2.28 5.34 -5 5 C-5 5.66 -5 6.32 -5 7 C-6.65 7 -8.3 7 -10 7 C-6.76478258 4.51137122 -3.40739705 2.24578442 0 0 Z " fill="#C69944" transform="translate(47,50)"/>
<path d="M0 0 C0.515625 0.268125 1.03125 0.53625 1.5625 0.8125 C7.06951202 3.49540329 11.86050576 5.373521 18 6 C18 6.33 18 6.66 18 7 C10.88486245 7.53699151 5.55004254 5.69707634 -1 3 C-1.33 3.99 -1.66 4.98 -2 6 C-1.125 1.125 -1.125 1.125 0 0 Z " fill="#C5A04A" transform="translate(16,51)"/>
<path d="M0 0 C-0.66 1.32 -1.32 2.64 -2 4 C-2 3.34 -2 2.68 -2 2 C-9.26 2 -16.52 2 -24 2 C-24 1.67 -24 1.34 -24 1 C-21.31264212 0.83071761 -18.62515116 0.6645047 -15.9375 0.5 C-14.80924805 0.42845703 -14.80924805 0.42845703 -13.65820312 0.35546875 C-9.09508249 0.07891598 -4.57143477 -0.0485677 0 0 Z " fill="#DCD2C0" transform="translate(45,46)"/>
<path d="M0 0 C0.66 1.32 1.32 2.64 2 4 C-2.62 4 -7.24 4 -12 4 C-12 3.34 -12 2.68 -12 2 C-10.37585622 1.80522261 -8.75063577 1.61940542 -7.125 1.4375 C-6.22007813 1.33308594 -5.31515625 1.22867187 -4.3828125 1.12109375 C-2 1 -2 1 0 2 C0 1.34 0 0.68 0 0 Z " fill="#FEE485" transform="translate(36,17)"/>
<path d="M0 0 C0.66 0.33 1.32 0.66 2 1 C1.67 2.65 1.34 4.3 1 6 C-0.98 6.66 -2.96 7.32 -5 8 C-4.125 3.25 -4.125 3.25 -3 1 C-2.01 0.67 -1.02 0.34 0 0 Z " fill="#6B4813" transform="translate(5,35)"/>
<path d="M0 0 C1.32 0 2.64 0 4 0 C5.19287411 3.87684087 6 6.91621923 6 11 C4.68 11 3.36 11 2 11 C2.33 7.7 2.66 4.4 3 1 C2.01 0.67 1.02 0.34 0 0 Z " fill="#E1973B" transform="translate(54,24)"/>
<path d="M0 0 C0 2.64 0 5.28 0 8 C-3.82097239 7.46930939 -6.06171403 6.50298434 -9 4 C-7.35 4 -5.7 4 -4 4 C-4 3.01 -4 2.02 -4 1 C-2 0 -2 0 0 0 Z " fill="#E5AB2A" transform="translate(57,16)"/>
<path d="M0 0 C2.875 0.3125 2.875 0.3125 6 1 C6.66 1.99 7.32 2.98 8 4 C7 5 7 5 4.5625 5.1875 C2 5 2 5 0 3 C0 2.01 0 1.02 0 0 Z " fill="#EB9C22" transform="translate(15,54)"/>
<path d="M0 0 C0.33 0.66 0.66 1.32 1 2 C-0.32 3.32 -1.64 4.64 -3 6 C-7.875 4.25 -7.875 4.25 -9 2 C-6.03 1.34 -3.06 0.68 0 0 Z " fill="#24BFE9" transform="translate(59,48)"/>
<path d="M0 0 C0.66 0.33 1.32 0.66 2 1 C2 3.97 2 6.94 2 10 C1.67 10 1.34 10 1 10 C1 8.02 1 6.04 1 4 C0.01 4 -0.98 4 -2 4 C-1.67 5.98 -1.34 7.96 -1 10 C-1.99 10.495 -1.99 10.495 -3 11 C-3 8.36 -3 5.72 -3 3 C-2.34 3 -1.68 3 -1 3 C-0.67 2.01 -0.34 1.02 0 0 Z " fill="#ECBD10" transform="translate(45,21)"/>
<path d="M0 0 C1.65 0.33 3.3 0.66 5 1 C4.01 1.495 4.01 1.495 3 2 C3.66 4.97 4.32 7.94 5 11 C3.68 11.33 2.36 11.66 1 12 C1.66 11.67 2.32 11.34 3 11 C2.7834375 10.45730469 2.566875 9.91460937 2.34375 9.35546875 C1.92609375 8.28232422 1.92609375 8.28232422 1.5 7.1875 C1.2215625 6.47980469 0.943125 5.77210937 0.65625 5.04296875 C0 3 0 3 0 0 Z " fill="#FED542" transform="translate(38,10)"/>
<path d="M0 0 C0.8353125 0.7734375 0.8353125 0.7734375 1.6875 1.5625 C1.0275 1.5625 0.3675 1.5625 -0.3125 1.5625 C-0.3125 2.2225 -0.3125 2.8825 -0.3125 3.5625 C-3.2825 3.0675 -3.2825 3.0675 -6.3125 2.5625 C-6.6425 1.5725 -6.9725 0.5825 -7.3125 -0.4375 C-2.88173077 -1.79134615 -2.88173077 -1.79134615 0 0 Z " fill="#D28924" transform="translate(34.3125,59.4375)"/>
<path d="M0 0 C0 1.98 0 3.96 0 6 C-1.32 6 -2.64 6 -4 6 C-3.67 4.68 -3.34 3.36 -3 2 C-4.65 2 -6.3 2 -8 2 C-8 1.67 -8 1.34 -8 1 C-2.25 0 -2.25 0 0 0 Z " fill="#232A1E" transform="translate(48,44)"/>
<path d="M0 0 C0.99 0 1.98 0 3 0 C2.67 0.99 2.34 1.98 2 3 C0.02 3.33 -1.96 3.66 -4 4 C-4.33 5.65 -4.66 7.3 -5 9 C-5.33 8.01 -5.66 7.02 -6 6 C-6.66 5.67 -7.32 5.34 -8 5 C-5.4345406 2.4345406 -3.52313332 2.45953913 0 2 C0 1.34 0 0.68 0 0 Z " fill="#FDDB46" transform="translate(24,10)"/>
<path d="M0 0 C0.33 0.99 0.66 1.98 1 3 C1.99 3 2.98 3 4 3 C4 3.66 4 4.32 4 5 C5.32 4.67 6.64 4.34 8 4 C7.01 5.485 7.01 5.485 6 7 C5.401875 6.835 4.80375 6.67 4.1875 6.5 C1.88655664 5.8885876 1.88655664 5.8885876 -1 6 C-1.33 5.34 -1.66 4.68 -2 4 C-1.0625 1.875 -1.0625 1.875 0 0 Z " fill="#73491C" transform="translate(27,34)"/>
<path d="M0 0 C0.96070434 2.88211302 1.10581883 4.69850044 1.0625 7.6875 C1.05347656 8.49574219 1.04445312 9.30398437 1.03515625 10.13671875 C1.02355469 10.75160156 1.01195312 11.36648437 1 12 C0.34 12 -0.32 12 -1 12 C-1.22162329 10.37675914 -1.42689803 8.751279 -1.625 7.125 C-1.74101563 6.22007813 -1.85703125 5.31515625 -1.9765625 4.3828125 C-1.98429687 3.59648437 -1.99203125 2.81015625 -2 2 C-1.34 1.34 -0.68 0.68 0 0 Z " fill="#F37506" transform="translate(38,24)"/>
<path d="M0 0 C0.99 0.66 1.98 1.32 3 2 C2.67 2.99 2.34 3.98 2 5 C0.02 5.33 -1.96 5.66 -4 6 C-4 5.01 -4 4.02 -4 3 C-2 1.3125 -2 1.3125 0 0 Z " fill="#F6C656" transform="translate(35,38)"/>
<path d="M0 0 C0.66 0 1.32 0 2 0 C2.375 7.5 2.375 7.5 -1 12 C-0.67 8.04 -0.34 4.08 0 0 Z " fill="#2E7E95" transform="translate(14,44)"/>
<path d="M0 0 C4.75 0.75 4.75 0.75 7 3 C6 4 6 4 2.9375 4.0625 C1.968125 4.041875 0.99875 4.02125 0 4 C-0.33 3.34 -0.66 2.68 -1 2 C-0.67 1.34 -0.34 0.68 0 0 Z " fill="#2C1E10" transform="translate(24,52)"/>
<path d="M0 0 C2.9375 0.8125 2.9375 0.8125 6 2 C6.33 2.99 6.66 3.98 7 5 C5.02 5 3.04 5 1 5 C0.67 3.35 0.34 1.7 0 0 Z " fill="#FDC815" transform="translate(44,14)"/>
<path d="M0 0 C0.556875 0.7115625 0.556875 0.7115625 1.125 1.4375 C3.62646962 3.52205802 5.81593418 3.64621491 9 4 C9 4.66 9 5.32 9 6 C6.03 5.67 3.06 5.34 0 5 C0 3.35 0 1.7 0 0 Z " fill="#39BEEE" transform="translate(4,46)"/>
<path d="M0 0 C1.31352023 0.30818356 2.62579572 0.62167665 3.9375 0.9375 C5.03384766 1.19853516 5.03384766 1.19853516 6.15234375 1.46484375 C8 2 8 2 9 3 C9.04080783 4.99958364 9.04254356 7.00045254 9 9 C8.71125 8.38125 8.4225 7.7625 8.125 7.125 C7.06279958 4.86674235 7.06279958 4.86674235 5 3 C2.41645782 2.83312552 2.41645782 2.83312552 0 3 C0 2.01 0 1.02 0 0 Z " fill="#D66219" transform="translate(28,27)"/>
<path d="M0 0 C5.875 2.75 5.875 2.75 7 5 C5.35 5.33 3.7 5.66 2 6 C0.99983813 3.99967627 0.50603992 2.16874252 0 0 Z " fill="#C67B16" transform="translate(14,6)"/>
<path d="M0 0 C4.75 0.875 4.75 0.875 7 2 C7 2.66 7 3.32 7 4 C4.36 3.67 1.72 3.34 -1 3 C-0.67 2.01 -0.34 1.02 0 0 Z " fill="#FAB429" transform="translate(8,1)"/>
<path d="M0 0 C0.99 0.66 1.98 1.32 3 2 C2.67 2.99 2.34 3.98 2 5 C0.35 5.33 -1.3 5.66 -3 6 C-1.125 1.125 -1.125 1.125 0 0 Z " fill="#F7C65B" transform="translate(27,38)"/>
<path d="M0 0 C0.99 0.33 1.98 0.66 3 1 C3.33 2.98 3.66 4.96 4 7 C3.01 6.67 2.02 6.34 1 6 C0.67 4.02 0.34 2.04 0 0 Z " fill="#FFD32B" transform="translate(41,12)"/>
<path d="M0 0 C0.99 0.33 1.98 0.66 3 1 C2.67 3.31 2.34 5.62 2 8 C1.34 8 0.68 8 0 8 C0 5.36 0 2.72 0 0 Z " fill="#EE820B" transform="translate(23,32)"/>
<path d="M0 0 C1.33332095 2.6666419 0.67102033 4.16680303 0 7 C-0.66 7 -1.32 7 -2 7 C-2.33 5.02 -2.66 3.04 -3 1 C-2.01 0.67 -1.02 0.34 0 0 Z " fill="#EEB121" transform="translate(10,17)"/>
</svg>
