<?xml version="1.0" encoding="UTF-8"?>
<svg version="1.1" xmlns="http://www.w3.org/2000/svg" width="200" height="200">
<path d="M0 0 C1.25296875 0.4125 2.5059375 0.825 3.796875 1.25 C28.74462541 10.06760046 48.21993996 28.50355897 60.08447266 52.01074219 C70.70512729 75.08730057 73.09510894 102.81586203 65 127 C64.5875 128.25296875 64.175 129.5059375 63.75 130.796875 C54.93239954 155.74462541 36.49644103 175.21993996 12.98925781 187.08447266 C-10.08730057 197.70512729 -37.81586203 200.09510894 -62 192 C-63.87945312 191.38125 -63.87945312 191.38125 -65.796875 190.75 C-90.74462541 181.93239954 -110.21993996 163.49644103 -122.08447266 139.98925781 C-132.70512729 116.91269943 -135.09510894 89.18413797 -127 65 C-126.5875 63.74703125 -126.175 62.4940625 -125.75 61.203125 C-116.93239954 36.25537459 -98.49644103 16.78006004 -74.98925781 4.91552734 C-51.91269943 -5.70512729 -24.18413797 -8.09510894 0 0 Z " fill="#010101" transform="translate(131,4)"/>
<path d="M0 0 C0 5.61 0 11.22 0 17 C-1.32773438 17.17015625 -2.65546875 17.3403125 -4.0234375 17.515625 C-17.427012 19.2524038 -17.427012 19.2524038 -30 24 C-30.94359375 24.44214844 -31.8871875 24.88429688 -32.859375 25.33984375 C-50.0480904 34.42591843 -61.28712622 50.19011249 -67 68.5625 C-69.85719648 82.19487536 -69.68055271 98.21035323 -64 111 C-63.50242187 112.15628906 -63.00484375 113.31257813 -62.4921875 114.50390625 C-54.53676555 131.6543159 -41.69698969 144.03932468 -24 151 C-16.40714992 153.57162327 -9.49131143 154.4473062 -1.5 154.3125 C-0.54480469 154.31572266 0.41039063 154.31894531 1.39453125 154.32226562 C11.24091158 154.24898404 20.24389331 153.03233617 29 148.375 C29.67861084 148.02308594 30.35722168 147.67117187 31.05639648 147.30859375 C48.30785992 138.13718786 59.94911314 124.67706039 66.2578125 106.0859375 C67.84658761 99.47997782 68.35149536 92.75525667 69 86 C74.28 86 79.56 86 85 86 C85.94393101 106.7664822 78.98135257 126.52656633 65 142 C64.40960938 142.7425 63.81921875 143.485 63.2109375 144.25 C51.01093499 159.20149244 32.03111138 168.76350476 13 171 C-11.78414585 172.79589674 -34.53542913 169.49529716 -53.88671875 152.859375 C-54.58410156 152.24578125 -55.28148438 151.6321875 -56 151 C-56.82242188 150.36835938 -57.64484375 149.73671875 -58.4921875 149.0859375 C-74.26305038 135.96811697 -83.81386508 114.07269338 -86 94 C-87.55363291 69.09175632 -80.03924467 47.40941479 -64.10546875 28.33203125 C-47.5385581 9.98241037 -24.66325443 0 0 0 Z " fill="#D2D2D2" transform="translate(100,14)"/>
<path d="M0 0 C11.33515308 9.27955537 18.96042669 22.85861874 21.51171875 37.2265625 C23.17068252 55.77009086 20.37322696 70.50583633 8.51171875 85.2265625 C7.76921875 86.2578125 7.02671875 87.2890625 6.26171875 88.3515625 C-3.4499901 98.50471266 -16.15968977 105.77652256 -30.33984375 106.33984375 C-32.72293415 106.34991315 -35.10614168 106.29462363 -37.48828125 106.2265625 C-37.48828125 100.6165625 -37.48828125 95.0065625 -37.48828125 89.2265625 C-35.42578125 88.8759375 -33.36328125 88.5253125 -31.23828125 88.1640625 C-19.56627191 85.62923219 -10.49475284 80.02546842 -3.48828125 70.2265625 C2.96167019 59.81780852 3.75461802 48.28372943 2.1171875 36.3515625 C-0.28767368 26.67005683 -7.07926884 18.43119909 -15.05078125 12.66015625 C-25.07727359 6.76316476 -36.70415562 4.33358538 -48.0703125 7.09765625 C-60.10962654 11.07597779 -68.40877627 17.27456363 -74.671875 28.3125 C-77.67418532 34.40510043 -78.56450515 40.52918574 -79.48828125 47.2265625 C-85.42828125 47.2265625 -91.36828125 47.2265625 -97.48828125 47.2265625 C-97.48828125 30.41826367 -92.31430117 17.92197106 -81.48828125 5.2265625 C-58.2984587 -17.03411858 -25.76822575 -18.36542306 0 0 Z " fill="#DFDFDF" transform="translate(137.48828125,52.7734375)"/>
<path d="M0 0 C4.96638578 2.20418245 7.851791 4.87260291 10.9609375 9.30078125 C12.66201817 14.40402326 12.52614997 18.61951559 10.2734375 23.48828125 C7.87490611 27.85462184 4.98341888 30.23631737 0.5859375 32.55078125 C-3.55713868 33.7345173 -7.00993152 34.1317587 -11.08984375 32.4609375 C-16.31874657 29.53629694 -19.7817855 25.88184687 -22.0390625 20.30078125 C-23.13153099 15.68913146 -22.30718806 12.22522316 -20.0390625 8.11328125 C-15.24580202 1.24835734 -8.39966821 -2.880346 0 0 Z " fill="#00F2F0" transform="translate(105.0390625,83.69921875)"/>
</svg>
