<?xml version="1.0" encoding="UTF-8"?>
<svg version="1.1" xmlns="http://www.w3.org/2000/svg" width="2405" height="2405">
<path d="M0 0 C793.65 0 1587.3 0 2405 0 C2405 793.65 2405 1587.3 2405 2405 C1611.35 2405 817.7 2405 0 2405 C0 1611.35 0 817.7 0 0 Z " fill="#04284C" transform="translate(0,0)"/>
<path d="M0 0 C2.98885268 2.77737346 5.01050908 5.43928991 6.9609375 9.015625 C7.78078125 10.50255859 7.78078125 10.50255859 8.6171875 12.01953125 C9.19726562 13.08558594 9.77734375 14.15164063 10.375 15.25 C11.6309504 17.52706973 12.88881161 19.80308641 14.1484375 22.078125 C14.46866882 22.65743774 14.78890015 23.23675049 15.11883545 23.83361816 C18.32026776 29.61041775 21.65048357 35.30823724 25 41 C29.8751271 49.29792827 34.63259514 57.65295042 39.3125 66.0625 C43.30087171 73.22838167 47.33975289 80.3408967 51.60986328 87.34228516 C54.92472446 92.80552738 58.05689647 98.36708557 61.1875 103.9375 C65.66086596 111.89530693 70.19740394 119.81103452 74.8125 127.6875 C79.96882985 136.4913781 85.06849526 145.32604113 90.125 154.1875 C90.46405365 154.78158661 90.8031073 155.37567322 91.1524353 155.98776245 C93.9870029 160.95538596 96.81838446 165.92482271 99.6484375 170.89501953 C105.29747088 180.81487986 110.98551718 190.70919988 116.75 200.5625 C121.9250287 209.40917698 127.04497119 218.28604889 132.125 227.1875 C132.46396301 227.78140533 132.80292603 228.37531067 133.15216064 228.98721313 C135.98682051 233.9550193 138.81828334 238.92464512 141.6484375 243.89501953 C142.15632813 244.78688965 142.66421875 245.67875977 143.1875 246.59765625 C143.83138672 247.72892944 143.83138672 247.72892944 144.48828125 248.88305664 C145.02839844 249.82914795 145.56851562 250.77523926 146.125 251.75 C146.7137934 252.8152041 146.7137934 252.8152041 147.31448162 253.90192747 C149.86807865 258.46388734 152.52672157 262.81868084 155.58035469 267.06438446 C166.96567972 283.49884294 167.98485505 298.14107453 167.6249187 317.36110544 C167.56347915 321.49156814 167.5849868 325.62180182 167.59555054 329.75259399 C167.60283127 336.88040206 167.55955382 344.00639243 167.48022079 351.13374329 C167.36560327 361.43789013 167.32989664 371.74117351 167.31238891 382.0458886 C167.28187745 398.77099733 167.18906524 415.4951408 167.05615234 432.21972656 C166.92730733 448.44949575 166.82837688 464.67900114 166.76904297 480.90917969 C166.76536484 481.91247883 166.76168671 482.91577797 166.75789712 483.94948012 C166.73962433 488.98359933 166.72193296 494.0177204 166.70453048 499.05184269 C166.55980027 540.70189924 166.31357463 582.35089396 166 624 C164.58665273 623.69804643 163.17403368 623.39268334 161.76171875 623.0859375 C160.97498779 622.91626465 160.18825684 622.7465918 159.37768555 622.57177734 C157.13614952 622.03274075 154.99076644 621.37644836 152.8125 620.625 C142.73173051 617.1476614 132.37399879 614.44885575 122 612 C120.12828125 611.52626953 120.12828125 611.52626953 118.21875 611.04296875 C111.60472837 609.58467243 104.86017925 608.93899476 98.13647461 608.19506836 C95.83442124 607.93992955 93.53341359 607.67663361 91.23242188 607.41210938 C77.35617526 605.83539039 63.60241423 604.8297168 49.625 604.875 C48.4390625 604.87113281 47.253125 604.86726563 46.03125 604.86328125 C31.45127371 604.87902636 17.26238641 605.99791393 2.875 608.25 C1.80416672 608.41523163 1.80416672 608.41523163 0.71170044 608.58380127 C-11.66484088 610.50307424 -23.88412567 612.80443255 -36 616 C-36.92973633 616.24443848 -37.85947266 616.48887695 -38.81738281 616.74072266 C-81.13557705 628.06961151 -124.13842592 645.66240357 -157.86328125 674.22265625 C-160 676 -160 676 -163 678 C-163.36703789 628.55546751 -163.64856629 579.11107389 -163.81704527 529.6654446 C-163.83705414 523.81447712 -163.85776353 517.96351232 -163.87890625 512.11254883 C-163.88310322 510.94783484 -163.88730018 509.78312085 -163.89162433 508.5831125 C-163.96105307 489.77822597 -164.08709746 470.97413018 -164.23444474 452.16971115 C-164.38460988 432.84301841 -164.4730536 413.51673687 -164.50541592 394.18948478 C-164.52725976 382.28406983 -164.5959817 370.38089058 -164.72666347 358.47616472 C-164.8119108 350.28819448 -164.83665326 342.10136249 -164.81602204 333.91298179 C-164.80587398 329.2031666 -164.820268 324.49722727 -164.9072876 319.78812027 C-165.32352142 296.09154435 -162.36560341 279.76441973 -148.95461845 259.93794096 C-146.052231 255.57543074 -143.53679899 251.0182676 -141 246.4375 C-140.04455739 244.76787371 -139.08654913 243.09971073 -138.125 241.43359375 C-134.7502413 235.57060964 -131.39514343 229.69644565 -128.04046631 223.82196045 C-126.32161801 220.81208536 -124.60230301 217.802477 -122.8828125 214.79296875 C-122.54968048 214.20988953 -122.21654846 213.6268103 -121.87332153 213.02606201 C-119.85323969 209.49102782 -117.83012099 205.95775145 -115.8046875 202.42578125 C-110.52278597 193.20982769 -105.29793573 183.96510207 -100.125 174.6875 C-94.91840143 165.35407837 -89.58829093 156.10099761 -84.18237305 146.88183594 C-78.54729765 137.25955244 -73.06133281 127.55617171 -67.59570312 117.83691406 C-58.087915 100.9335331 -48.49085597 84.08182157 -38.85888672 67.24902344 C-36.23738881 62.66708305 -33.61861558 58.08358805 -31 53.5 C-30.04689273 51.83202112 -29.09376733 50.1640526 -28.140625 48.49609375 C-27.64626953 47.63097168 -27.15191406 46.76584961 -26.64257812 45.87451172 C-12.859375 21.75390625 -12.859375 21.75390625 -10.96289062 18.43798828 C-9.56241676 15.98506875 -8.16524801 13.53045368 -6.77148438 11.07373047 C-6.22164886 10.10644264 -6.22164886 10.10644264 -5.66070557 9.11961365 C-4.95182878 7.87236499 -4.24421914 6.62439509 -3.5380249 5.37562561 C-1.11249191 1.11249191 -1.11249191 1.11249191 0 0 Z " fill="#FEFEFE" transform="translate(1201,527)"/>
<path d="M0 0 C0.68697842 0.32186688 1.37395683 0.64373377 2.08175278 0.97535419 C5.23945253 4.3082007 4.5364491 8.09145235 4.48101807 12.51005554 C4.48444214 13.49437057 4.48786621 14.47868561 4.49139404 15.49282837 C4.49803912 18.81671697 4.47588301 22.13980756 4.45410156 25.46362305 C4.45287683 27.87695445 4.45340916 30.29028729 4.45556259 32.70361805 C4.4564678 39.18229646 4.43323926 45.66068096 4.40512085 52.13928986 C4.38238656 58.21253921 4.38127087 64.2857161 4.37841797 70.35900879 C4.35740608 88.13521165 4.30156175 105.9113595 4.25 123.6875 C4.1675 163.390625 4.085 203.09375 4 244 C-100.94 244 -205.88 244 -314 244 C-319.76347068 226.70958796 -319.76347068 226.70958796 -321.25 218.0625 C-321.40984375 217.19560547 -321.5696875 216.32871094 -321.734375 215.43554688 C-323.27238007 206.94447721 -324.15698837 198.74595598 -324.16796875 190.12109375 C-324.17129715 189.19136246 -324.17462555 188.26163116 -324.17805481 187.3037262 C-324.18309404 185.34303274 -324.18546407 183.38233079 -324.18530273 181.42163086 C-324.18747578 178.47039063 -324.2056268 175.51953301 -324.22460938 172.56835938 C-324.25741778 161.85305597 -323.8511319 151.57913601 -322 141 C-321.82831299 139.9896167 -321.65662598 138.9792334 -321.47973633 137.93823242 C-314.60251991 99.58835537 -298.51690073 66.91244201 -272.06640625 38.25390625 C-270.23259442 36.2536994 -268.48962633 34.20656762 -266.75 32.125 C-241.85963406 3.76816757 -206.30168865 -16.46562079 -170.21899414 -26.38696289 C-168.6110236 -26.83119372 -167.00643021 -27.28770821 -165.40405273 -27.75170898 C-110.85625686 -43.27148328 -47.37996148 -29.54781987 0 0 Z " fill="#FEFEFE" transform="translate(1363,1277)"/>
<path d="M0 0 C0.33 0 0.66 0 1 0 C1 164.67 1 329.34 1 499 C-93.71 499 -188.42 499 -286 499 C-276.69684758 481.94422057 -267.22359649 465.00019523 -257.39697266 448.24023438 C-252.83889165 440.45969021 -248.34341983 432.6447254 -243.875 424.8125 C-243.53552338 424.21756744 -243.19604675 423.62263489 -242.84628296 423.00967407 C-240.5628198 419.00722916 -238.28134141 415.00365467 -236 411 C-229.61164546 399.79601476 -223.20104507 388.60552789 -216.75 377.4375 C-211.49881902 368.34586289 -206.26911742 359.24221947 -201.0625 350.125 C-200.73175476 349.54591888 -200.40100952 348.96683777 -200.0602417 348.37020874 C-196.68552176 342.46111536 -193.31346085 336.5505104 -189.94416809 330.63832092 C-188.25523789 327.67509502 -186.56534878 324.71241688 -184.875 321.75 C-184.54253265 321.16723297 -184.21006531 320.58446594 -183.86752319 319.98403931 C-179.25230757 311.89790307 -174.5838856 303.84444921 -169.875 295.8125 C-165.15471511 287.75985679 -160.54070853 279.65520602 -156 271.5 C-149.74637319 260.26977896 -143.29484196 249.1645881 -136.79736328 238.07421875 C-128.01848673 223.05878632 -119.3906645 207.96332942 -110.92236328 192.77075195 C-107.25508952 186.204004 -103.50996672 179.69245861 -99.6730957 173.22363281 C-96.5223887 167.90709418 -93.43676096 162.55572667 -90.375 157.1875 C-89.8809668 156.32133057 -89.38693359 155.45516113 -88.87792969 154.56274414 C-87.25125709 151.7088921 -85.62557066 148.85447984 -84 146 C-81.37671207 141.39485505 -78.75192515 136.79057078 -76.125 132.1875 C-75.785896 131.59314148 -75.44679199 130.99878296 -75.09741211 130.38641357 C-70.40554869 122.16619095 -65.66250396 113.97747111 -60.875 105.8125 C-55.54930355 96.72717824 -50.37627925 87.56474546 -45.25390625 78.36352539 C-40.63992261 70.09486931 -35.89812418 61.90670076 -31.109375 53.73828125 C-27.36460986 47.34867077 -23.66317946 40.93670342 -20 34.5 C-15.46579509 26.54607881 -10.90474453 18.60806854 -6.3125 10.6875 C-5.69955078 9.62402344 -5.08660156 8.56054688 -4.45507812 7.46484375 C-3.60526367 6.00304688 -3.60526367 6.00304688 -2.73828125 4.51171875 C-2.23337158 3.63990967 -1.72846191 2.76810059 -1.20825195 1.86987305 C-0.80952881 1.25281494 -0.41080566 0.63575684 0 0 Z " fill="#FEFEFE" transform="translate(917,1022)"/>
<path d="M0 0 C3.31642745 3.31642745 4.99076815 5.4087722 7.14453125 9.3828125 C7.73105469 10.454104 8.31757812 11.52539551 8.921875 12.62915039 C9.54578125 13.78278076 10.1696875 14.93641113 10.8125 16.125 C12.15887749 18.5867727 13.5109516 21.04539931 14.86328125 23.50390625 C15.20726959 24.13052658 15.55125793 24.75714691 15.90567017 25.40275574 C19.35340958 31.67107453 22.91316361 37.87281821 26.5 44.0625 C27.11858887 45.13081055 27.73717773 46.19912109 28.37451172 47.29980469 C29.62549015 49.45854689 30.87711584 51.61691415 32.12939453 53.77490234 C35.23963644 59.13724841 38.33902317 64.50584958 41.4375 69.875 C42.05367187 70.94242432 42.66984375 72.00984863 43.3046875 73.10961914 C48.23032428 81.64948031 53.1239808 90.207392 58.00997925 98.7699585 C62.81699019 107.19331023 67.64755461 115.60271556 72.5 124 C78.03230627 133.57380158 83.53030562 143.16669318 89.01025391 152.77050781 C93.81717909 161.19367328 98.6477315 169.60284964 103.5 178 C108.66831052 186.94554468 113.81416326 195.90363416 118.9375 204.875 C119.26860779 205.45471558 119.59971558 206.03443115 119.94085693 206.63171387 C123.31521064 212.54016638 126.68690462 218.45013089 130.05583191 224.36167908 C131.74476211 227.32490498 133.43465122 230.28758312 135.125 233.25 C135.45746735 233.83276703 135.78993469 234.41553406 136.13247681 235.01596069 C140.74769243 243.10209693 145.4161144 251.15555079 150.125 259.1875 C155.45146411 268.27426405 160.62567836 277.43790701 165.74829102 286.64086914 C170.33648765 294.86424546 175.05818436 303.00320235 179.82250977 311.12548828 C183.75624215 317.84124149 187.62083366 324.59208526 191.4375 331.375 C198.52785193 343.97298778 205.76032592 356.48739306 213 369 C220.23967635 381.51261086 227.47189131 394.02715388 234.5625 406.625 C239.47836048 415.35764341 244.49640265 424.02578003 249.56103516 432.67285156 C254.7473483 441.53880751 259.84805817 450.45258567 264.93286133 459.37695312 C268.3858462 465.43537442 271.8521582 471.48551829 275.34765625 477.51953125 C275.69892075 478.12627686 276.05018524 478.73302246 276.41209412 479.3581543 C278.09869753 482.27083544 279.78771408 485.1820518 281.48022461 488.09130859 C282.07456299 489.11691895 282.66890137 490.1425293 283.28125 491.19921875 C283.80783203 492.10502686 284.33441406 493.01083496 284.87695312 493.9440918 C286 496 286 496 286 497 C191.62 497 97.24 497 0 497 C0 332.99 0 168.98 0 0 Z " fill="#FEFEFE" transform="translate(1487,1024)"/>
<path d="M0 0 C0.8393811 -0.00945648 1.67876221 -0.01891296 2.5435791 -0.02865601 C3.45281128 -0.02258331 4.36204346 -0.01651062 5.29882812 -0.01025391 C6.24834351 -0.01312408 7.19785889 -0.01599426 8.17614746 -0.01895142 C10.19702751 -0.02099617 12.21792716 -0.01543768 14.23876953 -0.00292969 C17.2631762 0.01283487 20.28618729 -0.00261437 23.31054688 -0.02197266 C42.07042965 -0.04212104 63.16054953 0.1186515 77.83007812 13.38818359 C86.80670514 22.40086132 90.07165949 31.17791481 90.15234375 43.75732422 C90.14750977 45.46178711 90.14750977 45.46178711 90.14257812 47.20068359 C90.15869141 48.32539062 90.17480469 49.45009766 90.19140625 50.60888672 C90.19827677 62.43304691 87.68831706 72.49797152 79.15429688 81.07177734 C61.36576054 95.73684477 38.36395664 93.61937166 16.83007812 93.38818359 C16.83451935 94.0455098 16.83896057 94.702836 16.84353638 95.38008118 C16.88771472 102.20917593 16.91792167 109.03823022 16.93994141 115.86743164 C16.95001141 118.41757862 16.96366816 120.96771401 16.98095703 123.51782227 C17.00516124 127.17906549 17.01655118 130.84015633 17.02539062 134.50146484 C17.04087448 136.21720451 17.04087448 136.21720451 17.05667114 137.96760559 C17.0568222 139.02847885 17.05697327 140.08935211 17.05712891 141.18237305 C17.06157013 142.11725052 17.06601135 143.05212799 17.07058716 144.01533508 C16.83007812 146.38818359 16.83007812 146.38818359 14.83007812 149.38818359 C12.79882812 149.76049805 12.79882812 149.76049805 10.33007812 149.75146484 C9.44320313 149.75082031 8.55632812 149.75017578 7.64257812 149.74951172 C6.25039062 149.7253418 6.25039062 149.7253418 4.83007812 149.70068359 C3.43789062 149.70551758 3.43789062 149.70551758 2.01757812 149.71044922 C-4.90298048 149.65512499 -4.90298048 149.65512499 -7.16992188 147.38818359 C-7.42439747 144.90156651 -7.42439747 144.90156651 -7.43061829 141.70106506 C-7.43770309 140.49101303 -7.4447879 139.280961 -7.4520874 138.03424072 C-7.44979338 136.68615686 -7.44728365 135.33807334 -7.44458008 133.98999023 C-7.44892538 132.57585887 -7.45410792 131.16172986 -7.46006775 129.74760437 C-7.47348892 125.90051022 -7.47403296 122.05351412 -7.47150445 118.20640111 C-7.4704368 114.99801667 -7.47531282 111.78965223 -7.48010987 108.58127207 C-7.49121592 101.01372027 -7.49163636 93.44621811 -7.4855957 85.87866211 C-7.47955436 78.06468967 -7.4918684 70.25089723 -7.51316577 62.43695551 C-7.53076364 55.73457662 -7.53678599 49.03225511 -7.53352803 42.32985395 C-7.53171205 38.32400494 -7.53438241 34.31828429 -7.54824257 30.31245613 C-7.56078686 26.54578478 -7.55890938 22.7793946 -7.54583168 19.01272774 C-7.54345885 17.62879849 -7.54622578 16.24484966 -7.5544548 14.86094284 C-7.56486337 12.9747494 -7.55505194 11.08847638 -7.54414368 9.20228577 C-7.54431142 8.14574327 -7.54447916 7.08920076 -7.54465199 6.00064182 C-7.16992188 3.38818359 -7.16992188 3.38818359 -5.76786327 1.54861164 C-3.72389811 0.0642803 -2.5140529 0.00815893 0 0 Z " fill="#FCFDFD" transform="translate(1477.169921875,1656.61181640625)"/>
<path d="M0 0 C5.68697135 6.77571942 7.14985094 12.1815709 7.14526367 20.93774414 C7.14862228 21.85180527 7.1519809 22.76586639 7.15544128 23.70762634 C7.16495207 26.7334834 7.16689425 29.75928517 7.16796875 32.78515625 C7.17118046 34.88358076 7.17454447 36.98200504 7.17805481 39.08042908 C7.18404585 43.4794873 7.18589466 47.87852587 7.18530273 52.27758789 C7.18520094 57.92609007 7.19887154 63.57446704 7.21607494 69.22293949 C7.22716765 73.55594975 7.22922281 77.88892943 7.22869301 82.22195244 C7.22987655 84.30524567 7.23431909 86.38853961 7.24202538 88.47181892 C7.25177337 91.37852004 7.24896824 94.28494526 7.24291992 97.19165039 C7.24853943 98.05871613 7.25415894 98.92578186 7.25994873 99.81912231 C7.22831748 105.77168252 7.22831748 105.77168252 5 108 C2.45464859 108.19849071 0.04283241 108.27851775 -2.5 108.25 C-3.18964844 108.25773437 -3.87929687 108.26546875 -4.58984375 108.2734375 C-9.74666707 108.25333293 -9.74666707 108.25333293 -12 106 C-12 105.01 -12 104.02 -12 103 C-12.9178125 103.27714844 -13.835625 103.55429688 -14.78125 103.83984375 C-16.62203125 104.38318359 -16.62203125 104.38318359 -18.5 104.9375 C-20.30984375 105.47697266 -20.30984375 105.47697266 -22.15625 106.02734375 C-36.07323937 109.54902094 -56.14981294 111.15305979 -69 104 C-76.00945821 99.39311815 -79.39400724 93.81797828 -82 86 C-82.30967865 82.31796009 -82.32399097 78.63101763 -82.375 74.9375 C-82.41238281 73.93783203 -82.44976563 72.93816406 -82.48828125 71.90820312 C-82.58454595 63.67757121 -80.69382753 57.08059355 -75.08569336 50.88525391 C-66.09547898 42.26450039 -54.36820254 39.63582034 -42.24609375 39.8046875 C-41.06660912 39.80893234 -41.06660912 39.80893234 -39.86329651 39.81326294 C-37.38786641 39.82432711 -34.91281801 39.84940409 -32.4375 39.875 C-30.7441459 39.88504766 -29.05078605 39.89417035 -27.35742188 39.90234375 C-23.23813747 39.92422102 -19.11913311 39.95865282 -15 40 C-15.08120706 36.60321197 -15.19402019 33.20817618 -15.3125 29.8125 C-15.33505859 28.85279297 -15.35761719 27.89308594 -15.38085938 26.90429688 C-15.58634517 19.93539166 -15.58634517 19.93539166 -19 14 C-26.73518021 9.6861495 -36.45411107 9.73028332 -44.96875 11.6796875 C-47.01291809 12.35892057 -49.01474077 13.16410137 -51 14 C-51.12117188 15.12019531 -51.24234375 16.24039062 -51.3671875 17.39453125 C-51.53603267 18.86723636 -51.70532697 20.33989004 -51.875 21.8125 C-51.99294922 22.91948242 -51.99294922 22.91948242 -52.11328125 24.04882812 C-52.54460286 27.71506181 -52.9196783 29.87951745 -55 33 C-56.84765625 33.37231445 -56.84765625 33.37231445 -59.0625 33.36328125 C-60.25746094 33.36231445 -60.25746094 33.36231445 -61.4765625 33.36132812 C-62.72566406 33.3371582 -62.72566406 33.3371582 -64 33.3125 C-64.83273437 33.31572266 -65.66546875 33.31894531 -66.5234375 33.32226562 C-72.73299745 33.26700255 -72.73299745 33.26700255 -75 31 C-75.85989433 21.88112064 -76.30377686 11.8696581 -71 4 C-64.16384787 -4.12679496 -55.63865282 -7.64577679 -45.22875977 -8.81469727 C-29.65181187 -10.10979021 -12.68493238 -10.47689797 0 0 Z " fill="#FDFDFD" transform="translate(1657,1699)"/>
<path d="M0 0 C1.02770508 0.00483398 1.02770508 0.00483398 2.07617188 0.00976562 C2.75744141 -0.00634766 3.43871094 -0.02246094 4.140625 -0.0390625 C9.14112546 -0.04396015 9.14112546 -0.04396015 11.20654297 1.47631836 C13.09388609 3.90901548 13.98803468 6.33221299 15.05664062 9.22070312 C15.50225342 10.41179687 15.94786621 11.60289063 16.40698242 12.83007812 C16.88013807 14.11910668 17.3531991 15.40816996 17.82617188 16.69726562 C18.3185643 18.02050003 18.81181704 19.34341459 19.3059082 20.66601562 C20.29534263 23.31674444 21.28103961 25.9688127 22.26367188 28.62207031 C24.08872772 33.53338891 25.95346316 38.42896728 27.82617188 43.32226562 C28.46308501 44.99276444 29.09980534 46.66333678 29.73632812 48.33398438 C31.05606907 51.79514012 32.37659123 55.25599722 33.69726562 58.71679688 C34.04313721 59.62365234 34.38900879 60.53050781 34.74536133 61.46484375 C35.38803869 63.14988802 36.0310587 64.83480167 36.67456055 66.51953125 C40.64310601 76.92617612 44.53337148 87.36242959 48.43139648 97.79563904 C49.73183221 101.27561109 51.03343214 104.75514712 52.33520508 108.23461914 C53.00179463 110.01728224 53.66780017 111.80016382 54.33325195 113.58325195 C55.31240251 116.20647903 56.2936939 118.82889677 57.27539062 121.45117188 C57.56919113 122.23980118 57.86299164 123.02843048 58.16569519 123.84095764 C59.47243213 127.32594108 60.81742945 130.76382758 62.3371582 134.16186523 C63.70423042 137.48145815 63.89849276 139.77138016 63.63867188 143.32226562 C60.68836798 144.79741757 57.98371849 144.60918904 54.70117188 144.69726562 C53.45464844 144.74625 52.208125 144.79523438 50.92382812 144.84570312 C49.83972656 144.67296875 48.755625 144.50023437 47.63867188 144.32226562 C45.1103692 140.83280978 43.65144436 137.05436303 42.15820312 133.03320312 C41.71669922 131.8446875 41.27519531 130.65617187 40.8203125 129.43164062 C40.36849609 128.19929688 39.91667969 126.96695312 39.45117188 125.69726562 C38.9834217 124.44453117 38.51532591 123.19192571 38.046875 121.93945312 C34.63867188 112.70367441 34.63867188 112.70367441 34.63867188 109.32226562 C13.51867187 109.65226562 -7.60132813 109.98226563 -29.36132812 110.32226562 C-33.22836622 121.13475686 -33.22836622 121.13475686 -37.07958984 131.95288086 C-37.56615749 133.30408063 -38.05326242 134.65508711 -38.54101562 136.00585938 C-38.78988525 136.71327271 -39.03875488 137.42068604 -39.29516602 138.14953613 C-41.13318452 143.20819382 -41.13318452 143.20819382 -43.36132812 144.32226562 C-45.69226424 144.44509682 -48.02718852 144.49780794 -50.36132812 144.50976562 C-51.61945312 144.52394531 -52.87757813 144.538125 -54.17382812 144.55273438 C-57.36132812 144.32226562 -57.36132812 144.32226562 -59.36132812 142.32226562 C-59.04988202 136.84249774 -56.76592195 132.00819464 -54.67382812 127.00976562 C-51.81233966 120.14106452 -49.2344408 113.21004333 -46.78163147 106.18778992 C-43.68736067 97.35113293 -40.40287601 88.58696262 -37.11132812 79.82226562 C-36.78528595 78.9522995 -36.45924377 78.08233337 -36.12332153 77.18600464 C-31.75215261 65.52968756 -27.26863203 53.93216098 -22.5859375 42.39697266 C-20.01708297 36.04570881 -17.64833712 29.65367587 -15.41479492 23.17773438 C-13.75151335 18.37043765 -11.98016875 13.61605093 -10.11132812 8.88476562 C-9.39203125 7.06138672 -9.39203125 7.06138672 -8.65820312 5.20117188 C-6.53654796 0.49135304 -5.03542354 0.05435688 0 0 Z " fill="#F9FAFA" transform="translate(686.361328125,1659.677734375)"/>
<path d="M0 0 C2.70869976 2.01100437 4.861152 4.01599782 7.0859375 6.54296875 C7.75109375 7.28417969 8.41625 8.02539062 9.1015625 8.7890625 C13.09601918 14.12400126 13.10963358 18.92339427 13.03125 25.34375 C13.02923584 26.12504272 13.02722168 26.90633545 13.02514648 27.71130371 C13.0147284 30.61358561 12.98680592 33.51578344 12.9609375 36.41796875 C12.9196875 42.91484375 12.8784375 49.41171875 12.8359375 56.10546875 C-9.9340625 56.10546875 -32.7040625 56.10546875 -56.1640625 56.10546875 C-56.42838929 72.35622284 -56.42838929 72.35622284 -50.4765625 86.41796875 C-42.43235408 92.28806679 -32.73258225 92.11847132 -23.1640625 91.10546875 C-16.6203754 89.69512599 -11.304049 87.58093477 -7.1640625 82.10546875 C-5.35034914 78.31493831 -4.84342876 75.0340944 -4.6015625 70.85546875 C-4.2639328 65.20533905 -4.2639328 65.20533905 -3.1640625 64.10546875 C-0.46751396 64.03227254 2.20285208 64.01304338 4.8984375 64.04296875 C5.65705078 64.04748047 6.41566406 64.05199219 7.19726562 64.05664062 C9.07685621 64.06846195 10.95640649 64.08639797 12.8359375 64.10546875 C12.94495255 66.93986012 13.02371654 69.76997078 13.0859375 72.60546875 C13.11945313 73.39695312 13.15296875 74.1884375 13.1875 75.00390625 C13.30940772 82.4402772 10.94966191 87.50500459 6.51171875 93.37109375 C3.5391545 96.40875065 0.8454769 98.01819292 -2.9765625 99.85546875 C-4.13800781 100.4278125 -5.29945312 101.00015625 -6.49609375 101.58984375 C-20.3442248 107.31196819 -39.52101134 107.77316094 -53.57421875 102.359375 C-62.59061344 97.99397124 -68.5995853 92.89722398 -72.21533203 83.32128906 C-73.84116513 77.43349586 -73.50993987 71.27051722 -73.53515625 65.2109375 C-73.54414079 63.85484224 -73.55326291 62.49874788 -73.56251526 61.14265442 C-73.57894383 58.30756231 -73.58669405 55.47258743 -73.58959961 52.63745117 C-73.59497636 49.02964949 -73.63265128 45.42297115 -73.67834377 41.81548595 C-73.70829365 39.01593644 -73.71532701 36.21665163 -73.71632576 33.41695595 C-73.72249941 31.44844733 -73.75187066 29.4800546 -73.78184509 27.51176453 C-73.73274229 17.67187995 -71.5344309 10.69709758 -64.9765625 3.29296875 C-48.70482887 -11.70532486 -18.21491773 -10.90646308 0 0 Z " fill="#FBFCFC" transform="translate(1114.1640625,1699.89453125)"/>
<path d="M0 0 C2.20422212 1.20958269 3.52752882 1.92345204 6.04296875 2.12109375 C8.52988726 1.27282003 10.83773851 0.36706565 13.23046875 -0.69140625 C21.9125705 -4.30463486 29.17329659 -6.02556774 38.60546875 -6.12890625 C39.66870361 -6.1431665 39.66870361 -6.1431665 40.75341797 -6.15771484 C49.93322825 -6.10024791 57.75026668 -3.57750649 65.04296875 2.12109375 C70.80988036 8.86932132 72.34762695 16.23203562 72.27001953 24.88037109 C72.27031158 25.73956146 72.27060364 26.59875183 72.27090454 27.48397827 C72.26951728 30.30843395 72.25398459 33.13262196 72.23828125 35.95703125 C72.23454897 37.92143612 72.23170301 39.88584285 72.22970581 41.85025024 C72.22208628 47.00906556 72.2024522 52.16776744 72.18029785 57.32653809 C72.15980322 62.59528062 72.15069636 67.86404156 72.140625 73.1328125 C72.11920474 83.46228929 72.08508907 93.79168207 72.04296875 104.12109375 C69.39706861 104.14794054 66.75143779 104.16785732 64.10546875 104.18359375 C63.35072266 104.19197266 62.59597656 104.20035156 61.81835938 104.20898438 C59.89302562 104.21761816 57.96761294 104.17333708 56.04296875 104.12109375 C54.2787496 102.3568746 54.91283047 100.01979461 54.89952087 97.66911316 C54.90004959 96.88732193 54.90057831 96.1055307 54.90112305 95.30004883 C54.89764862 94.48048706 54.89417419 93.66092529 54.89059448 92.81652832 C54.88322294 91.03005978 54.87788504 89.24358198 54.87430382 87.45710182 C54.86715631 84.6282821 54.85150145 81.79963767 54.83296204 78.97087097 C54.78042096 70.92551118 54.73253367 62.88024434 54.71704102 54.8347168 C54.70695207 49.91857152 54.67759951 45.00286222 54.63572121 40.08688927 C54.62341424 38.21348051 54.6182894 36.34001013 54.62051964 34.46656227 C54.62287596 31.84027367 54.60068007 29.21523135 54.57299805 26.58911133 C54.57959946 25.81744125 54.58620087 25.04577118 54.59300232 24.25071716 C54.50346021 19.06530305 53.30704614 16.12291473 50.04296875 12.12109375 C44.56400161 7.68350564 37.81653822 8.476548 31.12646484 8.89648438 C25.87102641 9.46304207 20.89443764 11.07512873 16.04296875 13.12109375 C15.17222717 13.46876801 14.3014856 13.81644226 13.40435791 14.1746521 C10.64833625 16.01042317 10.64833625 16.01042317 10.44842529 19.77798462 C10.43696326 21.32938926 10.45336847 22.88114351 10.49121094 24.43212891 C10.49252518 25.70321754 10.49252518 25.70321754 10.49386597 26.99998474 C10.50245538 29.80404781 10.54623193 32.60643754 10.58984375 35.41015625 C10.60170728 37.35402164 10.61121854 39.2979027 10.61846924 41.24179077 C10.64324234 46.36110512 10.69715662 51.47969593 10.75793457 56.59869385 C10.83834781 63.82285644 10.87916536 71.04736928 10.92462158 78.27182007 C10.9489585 82.12145626 10.98421945 85.97075906 11.02801514 89.82022095 C11.04442115 91.56976292 11.0608004 93.31930514 11.07714844 95.06884766 C11.09432419 96.27665642 11.09432419 96.27665642 11.11184692 97.50886536 C11.12686116 99.37968879 11.09056979 101.25081573 11.04296875 103.12109375 C10.04296875 104.12109375 10.04296875 104.12109375 6.4453125 104.21875 C4.95700008 104.21207595 3.46870443 104.20011558 1.98046875 104.18359375 C1.22185547 104.17908203 0.46324219 104.17457031 -0.31835938 104.16992188 C-2.19794996 104.15810055 -4.07750024 104.14016453 -5.95703125 104.12109375 C-5.96249969 102.56920349 -5.96249969 102.56920349 -5.96807861 100.98596191 C-6.00508429 91.21674748 -6.06291784 81.44784664 -6.14093399 71.67887115 C-6.18037554 66.65699492 -6.21258035 61.63529316 -6.22802734 56.61328125 C-6.24321576 51.76308966 -6.27770019 46.91337785 -6.32534027 42.06340027 C-6.34013153 40.21677327 -6.34807097 38.37007777 -6.3489151 36.52339172 C-6.35129334 33.92849088 -6.37844064 31.33490679 -6.41113281 28.74023438 C-6.40610245 27.98353455 -6.40107208 27.22683472 -6.39588928 26.44720459 C-6.50149941 20.99859363 -7.85705182 16.64889941 -10.95703125 12.12109375 C-15.44599492 8.8762143 -19.82079992 8.64377401 -25.20703125 8.74609375 C-26.33202026 8.75697021 -26.33202026 8.75697021 -27.47973633 8.76806641 C-33.36863201 8.91422439 -38.46462021 9.9714607 -43.95703125 12.12109375 C-45.95551695 12.79228622 -47.95538231 13.45939444 -49.95703125 14.12109375 C-49.95481064 15.23387192 -49.95259003 16.34665009 -49.95030212 17.4931488 C-49.9300717 27.95601505 -49.91505959 38.41887736 -49.90521908 48.88175869 C-49.89999 54.26143137 -49.8928919 59.64108833 -49.8815918 65.02075195 C-49.8707638 70.20784218 -49.8647546 75.39491724 -49.86215401 80.5820179 C-49.8602996 82.56565655 -49.85667869 84.54929433 -49.85130119 86.53292656 C-49.84409193 89.30118511 -49.84304026 92.06938013 -49.84350586 94.83764648 C-49.83991058 95.66626694 -49.83631531 96.49488739 -49.83261108 97.34861755 C-49.84297909 103.00704159 -49.84297909 103.00704159 -50.95703125 104.12109375 C-53.63434505 104.22090589 -56.280073 104.2598925 -58.95703125 104.24609375 C-60.08238281 104.25189453 -60.08238281 104.25189453 -61.23046875 104.2578125 C-66.83042072 104.24770428 -66.83042072 104.24770428 -67.95703125 103.12109375 C-68.05461705 101.73198742 -68.08334764 100.33796426 -68.08401489 98.94543457 C-68.08683472 98.04519058 -68.08965454 97.14494659 -68.09255981 96.21742249 C-68.09053558 95.22205978 -68.08851135 94.22669708 -68.08642578 93.20117188 C-68.0881781 92.15900009 -68.08993042 91.11682831 -68.09173584 90.04307556 C-68.09615663 86.57948162 -68.09321556 83.11593826 -68.08984375 79.65234375 C-68.09051672 77.25720205 -68.09148669 74.86206041 -68.09274292 72.46691895 C-68.0942202 67.43969067 -68.09206436 62.41248013 -68.08740234 57.38525391 C-68.08170505 50.92502684 -68.08498389 44.46484132 -68.09097481 38.00461578 C-68.0945796 33.05657638 -68.09344221 28.1085469 -68.09084702 23.1605072 C-68.09017752 20.77774552 -68.09100695 18.39498294 -68.09332657 16.01222229 C-68.09585176 12.68846226 -68.09201438 9.36477054 -68.08642578 6.04101562 C-68.08845001 5.04565292 -68.09047424 4.05029022 -68.09255981 3.02476501 C-68.08973999 2.12452103 -68.08692017 1.22427704 -68.08401489 0.29675293 C-68.08363787 -0.49008125 -68.08326084 -1.27691544 -68.08287239 -2.08759308 C-67.95703125 -3.87890625 -67.95703125 -3.87890625 -66.95703125 -4.87890625 C-64.98083678 -5.00405553 -62.99964952 -5.05463385 -61.01953125 -5.06640625 C-59.93800781 -5.08058594 -58.85648438 -5.09476563 -57.7421875 -5.109375 C-54.95703125 -4.87890625 -54.95703125 -4.87890625 -52.95703125 -2.87890625 C-52.95703125 -1.55890625 -52.95703125 -0.23890625 -52.95703125 1.12109375 C-52.21839844 0.78335937 -51.47976563 0.445625 -50.71875 0.09765625 C-34.50582864 -7.03026089 -15.69226571 -9.63259298 0 0 Z " fill="#F8F9FA" transform="translate(1220.95703125,1698.87890625)"/>
<path d="M0 0 C0.78890625 -0.00386719 1.5778125 -0.00773437 2.390625 -0.01171875 C3.21046875 -0.00011719 4.0303125 0.01148438 4.875 0.0234375 C6.10476563 0.00603516 6.10476563 0.00603516 7.359375 -0.01171875 C8.54273438 -0.00591797 8.54273438 -0.00591797 9.75 0 C10.46929688 0.00338379 11.18859375 0.00676758 11.9296875 0.01025391 C14.46717556 0.51660506 15.28736658 1.38086183 16.875 3.3984375 C17.82299805 5.22583008 17.82299805 5.22583008 18.63671875 7.29296875 C19.1018689 8.46206787 19.1018689 8.46206787 19.57641602 9.65478516 C19.90182373 10.49831543 20.22723145 11.3418457 20.5625 12.2109375 C20.90917725 13.09313965 21.25585449 13.9753418 21.61303711 14.88427734 C24.50885571 22.31163071 27.23881733 29.79771645 29.93530273 37.29931641 C32.08194065 43.26249347 34.31055816 49.18592582 36.625 55.0859375 C40.51964554 65.02982941 40.51964554 65.02982941 42.3125 69.8359375 C42.62058594 70.65964844 42.92867187 71.48335937 43.24609375 72.33203125 C43.875 74.3984375 43.875 74.3984375 43.875 77.3984375 C44.535 77.3984375 45.195 77.3984375 45.875 77.3984375 C46.07738281 76.26921875 46.27976562 75.14 46.48828125 73.9765625 C48.0521134 66.95370894 50.69490988 60.26678767 53.18264771 53.53118896 C54.66766849 49.50956457 56.13494227 45.48148953 57.6015625 41.453125 C58.03254997 40.27056625 58.03254997 40.27056625 58.47224426 39.06411743 C61.01639553 32.05962854 63.41588639 25.01258386 65.6940918 17.91699219 C69.41043266 6.42712552 69.41043266 6.42712552 71.875 1.3984375 C75.27876894 -0.30344697 79.06175899 0.21385636 82.8125 0.2109375 C84.0490332 0.19256836 84.0490332 0.19256836 85.31054688 0.17382812 C86.50067383 0.17092773 86.50067383 0.17092773 87.71484375 0.16796875 C88.44050537 0.16385986 89.16616699 0.15975098 89.91381836 0.15551758 C91.875 0.3984375 91.875 0.3984375 94.875 2.3984375 C95.56364445 7.46906506 93.95538463 11.68463214 92.1640625 16.34765625 C91.88047882 17.10929077 91.59689514 17.87092529 91.30471802 18.65563965 C90.37887379 21.13590826 89.43950888 23.61081653 88.5 26.0859375 C87.85353656 27.81059588 87.2080364 29.53561561 86.56347656 31.26098633 C85.27329814 34.7109511 83.97825513 38.15902123 82.67871094 41.60546875 C80.2985833 47.92166103 77.96200326 54.25367392 75.625 60.5859375 C74.82719133 62.73841784 74.02901804 64.89076307 73.23046875 67.04296875 C71.62493336 71.37223984 70.02379881 75.70310468 68.42578125 80.03515625 C66.35665145 85.64352281 64.27517114 91.24721179 62.18994141 96.84960938 C61.03149409 99.97608361 59.88369313 103.1061345 58.73997498 106.23800659 C57.77732854 108.86658179 56.80468577 111.49139023 55.83004761 114.11553955 C55.14700217 115.96389841 54.47576528 117.81660771 53.80493164 119.66943359 C49.57525344 131.00570803 43.69084756 142.51207034 32.1875 147.7734375 C25.51222058 150.50046107 19.52984242 150.58152638 12.375 150.5859375 C11.32957031 150.59818359 10.28414062 150.61042969 9.20703125 150.62304688 C7.69689453 150.62594727 7.69689453 150.62594727 6.15625 150.62890625 C5.23908203 150.63301514 4.32191406 150.63712402 3.37695312 150.64135742 C0.72036134 150.38342331 -0.88719651 149.83301586 -3.125 148.3984375 C-4.54014574 145.56814602 -4.33280992 143.11464617 -4.375 139.9609375 C-4.40078125 138.80722656 -4.4265625 137.65351562 -4.453125 136.46484375 C-4.125 133.3984375 -4.125 133.3984375 -2.88305664 131.71630859 C-0.62613397 130.02447849 0.54004051 130.09947909 3.33203125 130.24609375 C4.63043945 130.28766602 4.63043945 130.28766602 5.95507812 130.33007812 C7.76519291 130.41676697 9.57510273 130.5078564 11.38476562 130.60351562 C17.12619831 130.77801432 20.3416624 130.32260786 24.875 126.3984375 C29.06339628 121.25269349 32.00242485 115.13296581 31.7734375 108.421875 C30.75614064 102.4891015 28.01640127 96.96868162 25.6875 91.4609375 C22.43530201 83.69402844 19.28079412 75.90984175 16.35266113 68.01516724 C12.97831394 58.94156314 9.4285113 49.93580913 5.89672852 40.92260742 C4.67749442 37.81039732 3.46071516 34.69723494 2.24414062 31.58398438 C1.46108276 29.58327647 0.67788474 27.58262342 -0.10546875 25.58203125 C-0.46489059 24.66215927 -0.82431244 23.74228729 -1.19462585 22.79454041 C-2.69088375 18.97999697 -4.20227097 15.1845135 -5.8527832 11.43383789 C-7.12223519 8.40503411 -7.66308664 6.62695732 -7.125 3.3984375 C-4.94130026 0.61068193 -3.5019344 0.01647415 0 0 Z " fill="#FCFCFC" transform="translate(1682.125,1691.6015625)"/>
<path d="M0 0 C0.70253906 0.00386719 1.40507813 0.00773437 2.12890625 0.01171875 C2.83144531 0.00785156 3.53398438 0.00398438 4.2578125 0 C9.50229247 0.01010497 9.50229247 0.01010497 10.62890625 1.13671875 C10.71755833 4.02105695 10.74411921 6.88134033 10.7265625 9.765625 C10.72514755 10.6298558 10.7237326 11.49408661 10.72227478 12.38450623 C10.71665864 15.15611167 10.70410344 17.92763755 10.69140625 20.69921875 C10.68639333 22.57356655 10.68183006 24.4479156 10.67773438 26.32226562 C10.66668397 30.92711419 10.64940855 35.53190296 10.62890625 40.13671875 C11.725979 39.66057129 12.82305176 39.18442383 13.95336914 38.69384766 C27.39972664 32.99734363 45.57655665 29.90099776 59.62890625 35.13671875 C66.97995177 38.67858614 71.85759084 43.49105635 75.01503944 51.13078499 C76.13281248 54.78333411 76.0195616 58.40252861 75.96948242 62.19311523 C75.97013954 63.51138054 75.97013954 63.51138054 75.97080994 64.85627747 C75.96873191 67.74035415 75.94544763 70.62383826 75.921875 73.5078125 C75.91627554 75.51562686 75.91200709 77.52344533 75.90901184 79.53126526 C75.89759069 84.80027706 75.86814698 90.0690384 75.8348999 95.33795166 C75.80414013 100.72070936 75.79049389 106.10350776 75.77539062 111.48632812 C75.74327463 122.03658574 75.69052898 132.58659217 75.62890625 143.13671875 C70.01890625 143.13671875 64.40890625 143.13671875 58.62890625 143.13671875 C58.61956055 140.56294434 58.61021484 137.98916992 58.60058594 135.33740234 C58.5667982 126.82764594 58.5112392 118.31813158 58.44500351 109.80856895 C58.40551726 104.64987299 58.37333434 99.49134801 58.35791016 94.33251953 C58.34275123 89.35266483 58.30831904 84.37328018 58.26059723 79.3936348 C58.24577559 77.49511427 58.23786479 75.59652665 58.2370224 73.69794846 C58.23465335 71.03559172 58.20757927 68.37453467 58.17480469 65.71240234 C58.17983505 64.92981049 58.18486542 64.14721863 58.19004822 63.34091187 C58.09200287 58.18336483 57.0283082 55.22976451 53.62890625 51.13671875 C47.20137022 46.93478384 40.04810903 47.16556501 32.62890625 48.13671875 C25.38640213 49.70820549 18.49371456 52.39079543 11.62890625 55.13671875 C11.29890625 84.17671875 10.96890625 113.21671875 10.62890625 143.13671875 C5.34890625 143.13671875 0.06890625 143.13671875 -5.37109375 143.13671875 C-7.10793363 141.39987887 -6.49721832 139.03442944 -6.49807739 136.67028809 C-6.50089722 135.48396286 -6.50371704 134.29763763 -6.50662231 133.07536316 C-6.50459808 131.76207535 -6.50257385 130.44878754 -6.50048828 129.09570312 C-6.5018423 127.70803278 -6.50362223 126.32036279 -6.50579834 124.93269348 C-6.51037263 121.15387154 -6.50858313 117.37507679 -6.50541925 113.59625435 C-6.50289563 109.65022837 -6.5052332 105.70420478 -6.50680542 101.75817871 C-6.50862711 95.13028544 -6.50622083 88.5024033 -6.50146484 81.87451172 C-6.49602222 74.20088672 -6.49778488 66.52728828 -6.50329125 58.85366392 C-6.5078224 52.27703482 -6.50847292 45.70041374 -6.50585258 39.12378359 C-6.50428982 35.19068752 -6.50409602 31.25760395 -6.50738907 27.32450867 C-6.51026781 23.62770526 -6.50829204 19.93093625 -6.50249481 16.23413658 C-6.50053159 14.22211632 -6.5035211 12.21009317 -6.50662231 10.19807434 C-6.50380249 9.01174911 -6.50098267 7.82542389 -6.49807739 6.60314941 C-6.49751185 5.0468066 -6.49751185 5.0468066 -6.49693489 3.45902252 C-6.25755319 -0.95858711 -3.86081355 0.00743895 0 0 Z " fill="#FCFCFC" transform="translate(938.37109375,1659.86328125)"/>
<path d="M0 0 C2.43816585 -0.0809723 4.87364384 -0.14046972 7.3125 -0.1875 C8.34793945 -0.22520508 8.34793945 -0.22520508 9.40429688 -0.26367188 C14.56654915 -0.33848713 14.56654915 -0.33848713 16.62695312 1.27050781 C18.12230791 3.15405925 18.79901185 4.68378143 19.54296875 6.96484375 C19.80795166 7.7547168 20.07293457 8.54458984 20.34594727 9.35839844 C20.62365967 10.20950195 20.90137207 11.06060547 21.1875 11.9375 C23.6150507 19.13053355 26.20373333 26.21698249 29.0625 33.25 C34.49598249 46.65465856 39.46656599 60.21014707 44.37304688 73.81591797 C44.69982422 74.71971191 45.02660156 75.62350586 45.36328125 76.5546875 C45.80087769 77.76874268 45.80087769 77.76874268 46.24731445 79.00732422 C46.97292114 81.03110045 46.97292114 81.03110045 48 83 C48.31114746 82.05608398 48.62229492 81.11216797 48.94287109 80.13964844 C55.37103557 60.65862495 61.94955061 41.25459442 68.93212891 21.96435547 C70.74988127 16.91836799 72.52304549 11.85670356 74.28857422 6.79223633 C75.1032798 4.46785754 75.89720006 2.20559987 77 0 C82.61 0 88.22 0 94 0 C94 5.0535475 93.85730128 7.12096624 92.1640625 11.54296875 C91.76429199 12.60306152 91.36452148 13.6631543 90.95263672 14.75537109 C90.5145166 15.88797363 90.07639648 17.02057617 89.625 18.1875 C88.70282215 20.620979 87.78095597 23.05457614 86.859375 25.48828125 C86.37969106 26.74565651 85.89987303 28.00298062 85.41992188 29.26025391 C83.19063668 35.11412 81.0389955 40.99677214 78.875 46.875 C75.90446534 54.91570118 72.88779588 62.93632756 69.8125 70.9375 C67.25819226 77.58731156 64.82666729 84.26723537 62.5 91 C60.04152494 98.09427542 57.51081065 105.15701073 54.875 112.1875 C54.56240234 113.03634766 54.24980469 113.88519531 53.92773438 114.75976562 C49.21589368 127.20335325 43.40236383 137.12711595 31 143 C23.16732016 145.74143794 14.19665526 145.65573242 6 145 C4.68 144.34 3.36 143.68 2 143 C2 139.04 2 135.08 2 131 C6.06189391 129.98452652 9.08897963 130.03167231 13.25 130.1875 C19.23253907 130.25509931 24.43583853 130.26060679 29 126 C31.37660848 122.83296892 33.27704378 119.561142 35 116 C35.38414063 115.23558594 35.76828125 114.47117187 36.1640625 113.68359375 C38.91298756 104.85877357 35.33186556 97.62305017 32.0625 89.4375 C31.55404645 88.13572614 31.04681997 86.8334724 30.54077148 85.53076172 C29.51915403 82.90758631 28.48999792 80.28759286 27.453125 77.67041016 C26.18819092 74.47534648 24.93413378 71.27645402 23.6875 68.07421875 C22.2640856 64.42068037 20.83386658 60.7699277 19.3984375 57.12109375 C15.94918086 48.33861951 12.55788771 39.53355655 9.16040039 30.73095703 C4.67938807 18.99862694 4.67938807 18.99862694 -0.1340332 7.40112305 C-1.17155951 4.52430567 -0.82839035 2.89936621 0 0 Z " fill="#FAFBFB" transform="translate(1311,1695)"/>
<path d="M0 0 C5.29087129 4.93976084 8.58802237 10.46665692 9.25317383 17.78588867 C9.32974812 20.84212595 9.31147553 23.88101347 9.25 26.9375 C9.24484375 27.99001953 9.2396875 29.04253906 9.234375 30.12695312 C9.15464979 37.84535021 9.15464979 37.84535021 8 39 C5.69006618 39.12557162 3.37581464 39.17575729 1.0625 39.1875 C-0.20464844 39.20167969 -1.47179687 39.21585938 -2.77734375 39.23046875 C-6 39 -6 39 -8 37 C-8.25537109 35.03222656 -8.25537109 35.03222656 -8.2734375 32.640625 C-8.2940625 31.77179688 -8.3146875 30.90296875 -8.3359375 30.0078125 C-8.36175655 28.18498754 -8.38011792 26.36204003 -8.390625 24.5390625 C-8.54102765 18.8738959 -9.16723976 15.46690785 -13 11 C-19.84295795 5.72521992 -25.40769934 5.79390685 -33.75 5.75 C-35.19632813 5.7190625 -35.19632813 5.7190625 -36.671875 5.6875 C-43.05203897 5.6528252 -49.61417665 5.84241055 -54.55737305 10.45239258 C-58.15428677 14.64868587 -59.1249115 17.12105015 -59.17700195 22.53198242 C-59.18983719 23.69046188 -59.20267242 24.84894135 -59.21589661 26.04252625 C-59.22328354 27.30079727 -59.23067047 28.5590683 -59.23828125 29.85546875 C-59.246353 31.14560379 -59.25442474 32.43573883 -59.26274109 33.76496887 C-59.27777174 36.50127023 -59.28760656 39.23754562 -59.29516602 41.97387695 C-59.30620121 45.46646427 -59.34056494 48.95840929 -59.38033772 52.45077038 C-59.41289778 55.7939766 -59.41729166 59.13711627 -59.42578125 62.48046875 C-59.44328934 63.72861862 -59.46079742 64.97676849 -59.47883606 66.26274109 C-59.45935859 74.08044758 -58.89239425 79.10760575 -53.1875 84.8125 C-44.38349524 89.59181687 -31.65438615 90.35874207 -22 88 C-16.71566329 86.10330057 -13.09128013 83.822397 -10 79 C-8.48416975 74.45250925 -8.60443651 69.74222753 -8.39453125 64.984375 C-8.10139297 59.10139297 -8.10139297 59.10139297 -7 58 C-4.30345146 57.92680379 -1.63308542 57.90757463 1.0625 57.9375 C1.82111328 57.94201172 2.57972656 57.94652344 3.36132812 57.95117188 C5.24091871 57.9629932 7.12046899 57.98092922 9 58 C9.11728126 61.66639248 9.18760891 65.3322952 9.25 69 C9.28351563 70.02996094 9.31703125 71.05992188 9.3515625 72.12109375 C9.43626937 78.77058279 8.65019613 83.40182962 5 89 C4.4225 89.886875 3.845 90.77375 3.25 91.6875 C-4.99397603 100.16047536 -15.82762477 102.92818609 -27.328125 103.16796875 C-29.30205844 103.17982816 -31.27603135 103.18621319 -33.25 103.1875 C-34.22324219 103.19974609 -35.19648437 103.21199219 -36.19921875 103.22460938 C-48.67186929 103.24945529 -60.3265845 101.42638973 -69.875 92.8125 C-77.30368047 84.42959279 -77.61527762 74.90535728 -77.56640625 64.15625 C-77.57165527 62.73717851 -77.57793637 61.31811051 -77.58518982 59.89904785 C-77.59553565 56.94050551 -77.59111674 53.9824459 -77.57641602 51.02392578 C-77.55922216 47.25806383 -77.58275901 43.49372702 -77.61790562 39.72803497 C-77.6400063 36.80232905 -77.63840818 33.87698117 -77.6301403 30.95121765 C-77.62932796 29.56392237 -77.63605235 28.17659887 -77.65091133 26.78938293 C-77.73867712 17.11681377 -76.78839066 9.26611039 -70.0874176 1.89660645 C-53.91229153 -13.69917187 -17.19108017 -14.42608126 0 0 Z " fill="#FBFBFC" transform="translate(897,1702)"/>
<path d="M0 0 C1.26714844 -0.01417969 2.53429687 -0.02835938 3.83984375 -0.04296875 C7.0625 0.1875 7.0625 0.1875 9.0625 2.1875 C9.31138897 4.61723423 9.31138897 4.61723423 9.30973816 7.73622131 C9.31393265 8.91550705 9.31812714 10.09479279 9.32244873 11.30981445 C9.31401947 13.26032715 9.31401947 13.26032715 9.30541992 15.25024414 C9.3064924 16.62821035 9.30843058 18.00617612 9.31117249 19.38414001 C9.31602898 23.13194743 9.30835552 26.87963618 9.29821944 30.62742925 C9.28945349 34.5427508 9.29119609 38.45806847 9.2915802 42.37339783 C9.29064299 48.94825229 9.28195083 55.52306066 9.26831055 62.09790039 C9.2525779 69.70963293 9.24731263 77.32131499 9.2480461 84.93306261 C9.24865552 92.24372185 9.24355836 99.55436457 9.23525429 106.86501884 C9.2317152 109.98183763 9.22989015 113.09865057 9.22936058 116.21547127 C9.22835924 119.88192544 9.2222798 123.5483369 9.21219444 127.21477699 C9.20785941 129.21008492 9.20844265 131.2054016 9.20913696 133.20071411 C9.20487198 134.37718002 9.20060699 135.55364594 9.19621277 136.76576233 C9.19453692 137.79465104 9.19286108 138.82353975 9.19113445 139.88360691 C9.0625 142.1875 9.0625 142.1875 8.0625 143.1875 C5.36595146 143.26069621 2.69558542 143.27992537 0 143.25 C-0.75861328 143.24548828 -1.51722656 143.24097656 -2.29882812 143.23632812 C-4.17841871 143.2245068 -6.05796899 143.20657078 -7.9375 143.1875 C-7.96082798 124.69027268 -7.97847868 106.19304833 -7.98931217 87.69580936 C-7.99447534 79.10782951 -8.00151844 70.51985877 -8.01293945 61.93188477 C-8.02288565 54.44934583 -8.02935327 46.96681349 -8.03158849 39.48426813 C-8.03289571 35.51985414 -8.03598226 31.55545905 -8.04323006 27.5910511 C-8.04998926 23.86389787 -8.05211717 20.13677143 -8.05060768 16.40961266 C-8.05088406 15.03774495 -8.05288978 13.6658764 -8.05670547 12.29401398 C-8.06164108 10.42889037 -8.05989794 8.56375256 -8.05775452 6.69862366 C-8.05867631 5.65238862 -8.0595981 4.60615358 -8.06054783 3.52821445 C-7.80364602 -1.3587777 -4.11377043 0.02088208 0 0 Z " fill="#FAFBFC" transform="translate(783.9375,1659.8125)"/>
<path d="M0 0 C4.74375 -0.0825 9.4875 -0.165 14.375 -0.25 C15.8501709 -0.28641602 17.3253418 -0.32283203 18.84521484 -0.36035156 C28.17459715 -0.43846388 34.91981826 0.90771546 42.875 5.75 C48.561365 11.77085706 49.62560857 18.01023961 49.4375 26.0625 C49.44458984 26.92166016 49.45167969 27.78082031 49.45898438 28.66601562 C49.39645177 34.96256751 48.55449481 39.95068779 44.38671875 44.92578125 C31.74637083 55.24146748 15.77638406 52 0 52 C0 34.84 0 17.68 0 0 Z " fill="#05294C" transform="translate(1494,1678)"/>
<path d="M0 0 C2.25559103 2.25559103 2.85143503 3.8726068 3.953125 6.84765625 C4.32179688 7.83644775 4.69046875 8.82523926 5.0703125 9.84399414 C5.65425781 11.43715454 5.65425781 11.43715454 6.25 13.0625 C6.85714844 14.69916626 6.85714844 14.69916626 7.4765625 16.36889648 C9.95072852 23.06303236 12.35064077 29.77971498 14.67724609 36.52636719 C17.24774885 43.88743322 20.16699928 51.11535934 23.10546875 58.33618164 C23.48058594 59.27324951 23.85570312 60.21031738 24.2421875 61.17578125 C24.5810498 62.01020752 24.91991211 62.84463379 25.26904297 63.7043457 C26 66 26 66 26 70 C9.17 70 -7.66 70 -25 70 C-23.87495466 63.24972795 -23.87495466 63.24972795 -22.72827148 60.16381836 C-22.47361618 59.47058472 -22.21896088 58.77735107 -21.95658875 58.06311035 C-21.6808754 57.32943237 -21.40516205 56.59575439 -21.12109375 55.83984375 C-20.83309402 55.06080688 -20.5450943 54.28177002 -20.24836731 53.47912598 C-19.31667275 50.9632615 -18.37728913 48.45035071 -17.4375 45.9375 C-16.79683408 44.21310811 -16.15653545 42.48857971 -15.51660156 40.76391602 C-4.61797373 11.4317487 -4.61797373 11.4317487 0 0 Z " fill="#062A4D" transform="translate(688,1684)"/>
<path d="M0 0 C1.90234375 1.875 1.90234375 1.875 6.90234375 9.875 C6.90234375 17.465 6.90234375 25.055 6.90234375 32.875 C-10.25765625 32.875 -27.41765625 32.875 -45.09765625 32.875 C-45.09765625 7.26599526 -45.09765625 7.26599526 -40.44921875 2.01171875 C-39.87945313 1.53347656 -39.3096875 1.05523438 -38.72265625 0.5625 C-38.15804688 0.07136719 -37.5934375 -0.41976563 -37.01171875 -0.92578125 C-28.18702525 -6.45472187 -8.6891719 -4.80322746 0 0 Z " fill="#04294C" transform="translate(1103.09765625,1710.125)"/>
<path d="M0 0 C0.7239798 0.0028299 1.44795959 0.00565979 2.19387817 0.00857544 C4.4861974 0.01969163 6.77811313 0.04477938 9.0703125 0.0703125 C10.63280682 0.0803534 12.19530732 0.08947731 13.7578125 0.09765625 C17.57058968 0.11789392 21.38250415 0.1570569 25.1953125 0.1953125 C25.1953125 8.1153125 25.1953125 16.0353125 25.1953125 24.1953125 C14.01134924 29.78729413 1.62221577 31.57307786 -10.8046875 30.1953125 C-14.793208 28.6017681 -16.40509603 27.79469971 -18.8046875 24.1953125 C-19.07956572 21.35393978 -19.22058049 18.66283525 -19.2421875 15.8203125 C-19.27505859 15.06492187 -19.30792969 14.30953125 -19.34179688 13.53125 C-19.38122906 9.43030308 -19.15832601 7.67410438 -16.65234375 4.28125 C-11.39462676 0.42991821 -6.36613986 -0.09511951 0 0 Z " fill="#082B4F" transform="translate(1616.8046875,1757.8046875)"/>
</svg>
