<?xml version="1.0" encoding="UTF-8"?>
<svg version="1.1" xmlns="http://www.w3.org/2000/svg" width="64" height="64">
<path d="M0 0 C21.12 0 42.24 0 64 0 C64 21.12 64 42.24 64 64 C42.88 64 21.76 64 0 64 C0 42.88 0 21.76 0 0 Z " fill="#B76DE9" transform="translate(0,0)"/>
<path d="M0 0 C21.12 0 42.24 0 64 0 C64 6.6 64 13.2 64 20 C63.34 20.66 62.68 21.32 62 22 C61.63168919 23.93257855 61.63168919 23.93257855 61.5859375 26.1328125 C61.54726563 26.93847656 61.50859375 27.74414062 61.46875 28.57421875 C61.42234375 29.83685547 61.42234375 29.83685547 61.375 31.125 C61.33632813 31.97449219 61.29765625 32.82398438 61.2578125 33.69921875 C61.16343506 35.79911684 61.08062414 37.89952891 61 40 C60.01 40.495 60.01 40.495 59 41 C59 35.39 59 29.78 59 24 C57.02 26.97 55.04 29.94 53 33 C53.66 33.66 54.32 34.32 55 35 C54.030625 35.598125 53.06125 36.19625 52.0625 36.8125 C48.76947958 38.71127509 48.76947958 38.71127509 48 42 C47.01 41.67 46.02 41.34 45 41 C46.20381448 38.50638429 47.45428722 36.31856917 49 34 C49.66 34 50.32 34 51 34 C52.485 28.06 52.485 28.06 54 22 C52.35 21.67 50.7 21.34 49 21 C49.625 18.1875 49.625 18.1875 51 15 C54.125 13.125 54.125 13.125 57 12 C57 10.68 57 9.36 57 8 C56.4225 7.7525 55.845 7.505 55.25 7.25 C53 6 53 6 51.1875 3.8125 C49.04017904 1.63228693 49.04017904 1.63228693 45.625 2.0625 C39.16650459 3.67077039 39.16650459 3.67077039 34.625 8.1875 C34.41875 8.785625 34.2125 9.38375 34 10 C35.98 10.33 37.96 10.66 40 11 C40.33 10.34 40.66 9.68 41 9 C41 11.31 41 13.62 41 16 C40.34 16 39.68 16 39 16 C38.505 18.475 38.505 18.475 38 21 C35 22 35 22 32 21 C32.3403125 22.11375 32.3403125 22.11375 32.6875 23.25 C33 26 33 26 31.5625 28.3125 C31.046875 28.869375 30.53125 29.42625 30 30 C30.66 30.33 31.32 30.66 32 31 C29.83125748 30.49396008 28.00032373 30.00016187 26 29 C25.67 29.66 25.34 30.32 25 31 C24.67 30.34 24.34 29.68 24 29 C23.566875 30.134375 23.13375 31.26875 22.6875 32.4375 C22.130625 33.613125 21.57375 34.78875 21 36 C19.515 36.495 19.515 36.495 18 37 C15.79086 33.68629 15.77518447 32.6553979 15.875 28.8125 C15.89304687 27.91144531 15.91109375 27.01039062 15.9296875 26.08203125 C15.95289063 25.39496094 15.97609375 24.70789063 16 24 C12.55369942 25.14876686 12.08379321 26.19140915 10 29 C9.34 29 8.68 29 8 29 C7.91878076 30.60332791 7.86070866 32.20784026 7.8125 33.8125 C7.76029297 35.15248047 7.76029297 35.15248047 7.70703125 36.51953125 C8.04918998 39.41647515 8.75393573 40.22555028 11 42 C10.67 42.99 10.34 43.98 10 45 C9.34 45 8.68 45 8 45 C8 44.34 8 43.68 8 43 C6.68 43 5.36 43 4 43 C4 43.66 4 44.32 4 45 C3.01 44.67 2.02 44.34 1 44 C2.32 43.34 3.64 42.68 5 42 C4.01 41.34 3.02 40.68 2 40 C1.01 40.495 1.01 40.495 0 41 C0 27.47 0 13.94 0 0 Z " fill="#906689" transform="translate(0,0)"/>
<path d="M0 0 C21.12 0 42.24 0 64 0 C64 6.6 64 13.2 64 20 C63.34 20.66 62.68 21.32 62 22 C61.63168919 23.93257855 61.63168919 23.93257855 61.5859375 26.1328125 C61.54726563 26.93847656 61.50859375 27.74414062 61.46875 28.57421875 C61.42234375 29.83685547 61.42234375 29.83685547 61.375 31.125 C61.33632813 31.97449219 61.29765625 32.82398438 61.2578125 33.69921875 C61.16343506 35.79911684 61.08062414 37.89952891 61 40 C60.01 40.495 60.01 40.495 59 41 C59 35.39 59 29.78 59 24 C57.02 26.97 55.04 29.94 53 33 C53.66 33.66 54.32 34.32 55 35 C54.030625 35.598125 53.06125 36.19625 52.0625 36.8125 C48.76947958 38.71127509 48.76947958 38.71127509 48 42 C47.01 41.67 46.02 41.34 45 41 C46.20381448 38.50638429 47.45428722 36.31856917 49 34 C49.66 34 50.32 34 51 34 C52.485 28.06 52.485 28.06 54 22 C52.35 21.67 50.7 21.34 49 21 C49.625 18.1875 49.625 18.1875 51 15 C54.125 13.125 54.125 13.125 57 12 C57 10.68 57 9.36 57 8 C56.4225 7.7525 55.845 7.505 55.25 7.25 C53 6 53 6 51.1875 3.8125 C49.08628957 1.65045795 49.08628957 1.65045795 45.99609375 2.1875 C41.1470308 3.03493955 36.52812476 4.61262212 31.875 6.1875 C30.95154785 6.49558594 30.0280957 6.80367188 29.07666016 7.12109375 C22.59374242 9.33151391 16.49384298 11.89555584 10.3984375 15.03125 C8 16 8 16 5 15 C4.01 15.66 3.02 16.32 2 17 C1.34 16.67 0.68 16.34 0 16 C0 10.72 0 5.44 0 0 Z " fill="#A37694" transform="translate(0,0)"/>
<path d="M0 0 C0.33 0 0.66 0 1 0 C1 14.52 1 29.04 1 44 C-8.57 44 -18.14 44 -28 44 C-26 32 -26 32 -25 28 C-24.34 27.67 -23.68 27.34 -23 27 C-22.67 26.01 -22.34 25.02 -22 24 C-19.9375 23.3125 -19.9375 23.3125 -18 23 C-18 22.34 -18 21.68 -18 21 C-17.01 20.67 -16.02 20.34 -15 20 C-13.64631404 18.68733482 -12.31200404 17.35432675 -11 16 C-10.34 15.67 -9.68 15.34 -9 15 C-9.66 14.34 -10.32 13.68 -11 13 C-10.04737966 11.51714758 -9.08771595 10.03881799 -8.125 8.5625 C-7.32449219 7.32693359 -7.32449219 7.32693359 -6.5078125 6.06640625 C-5 4 -5 4 -3 3 C-3 8.61 -3 14.22 -3 20 C-2.95101562 18.72382812 -2.90203125 17.44765625 -2.8515625 16.1328125 C-2.77653809 14.46351928 -2.70099012 12.79424954 -2.625 11.125 C-2.57859375 9.86236328 -2.57859375 9.86236328 -2.53125 8.57421875 C-2.49257813 7.76855469 -2.45390625 6.96289062 -2.4140625 6.1328125 C-2.3826416 5.38918457 -2.3512207 4.64555664 -2.31884766 3.87939453 C-2 2 -2 2 0 0 Z " fill="#FAD3FA" transform="translate(63,20)"/>
<path d="M0 0 C6.5515435 4.59732774 6.5515435 4.59732774 7.703125 8.19921875 C7.85007812 9.09060547 7.85007812 9.09060547 8 10 C4.375 13 4.375 13 1 13 C0.855625 13.61875 0.71125 14.2375 0.5625 14.875 C0 17 0 17 -1 19 C0.65 19.33 2.3 19.66 4 20 C3.67 22.31 3.34 24.62 3 27 C2.67 25.68 2.34 24.36 2 23 C-0.31 23 -2.62 23 -5 23 C-4.95875 24.051875 -4.9175 25.10375 -4.875 26.1875 C-4.99317642 29.79188068 -5.11506591 31.94820195 -7 35 C-9.1875 35.625 -9.1875 35.625 -12 36 C-15.72317444 37.28577587 -15.72317444 37.28577587 -19 39 C-19.33 39.99 -19.66 40.98 -20 42 C-21.65 41.67 -23.3 41.34 -25 41 C-23.515 40.505 -23.515 40.505 -22 40 C-22.66 39.67 -23.32 39.34 -24 39 C-24 38.34 -24 37.68 -24 37 C-22.02 37 -20.04 37 -18 37 C-17.34 35.02 -16.68 33.04 -16 31 C-15.67 31.66 -15.34 32.32 -15 33 C-13.68 33 -12.36 33 -11 33 C-11 30.69 -11 28.38 -11 26 C-10.01 26 -9.02 26 -8 26 C-7.690625 25.21625 -7.38125 24.4325 -7.0625 23.625 C-6 21 -6 21 -5 19 C-7.74931827 19.68732957 -9.53418821 20.35560222 -11.22265625 22.69140625 C-12.20324656 24.43116325 -13.10688055 26.2137611 -14 28 C-14.66 28 -15.32 28 -16 28 C-16 28.66 -16 29.32 -16 30 C-16.99 29.67 -17.98 29.34 -19 29 C-19 25 -19 25 -18 22 C-18 21.01 -18 20.02 -18 19 C-16.576875 18.9071875 -16.576875 18.9071875 -15.125 18.8125 C-11.84106255 18.34972608 -11.84106255 18.34972608 -10.625 15.6875 C-9.848991 12.8105309 -9.848991 12.8105309 -10 9 C-12.97 8.505 -12.97 8.505 -16 8 C-15.5625 5.75 -15.5625 5.75 -14 3 C-9.72041854 0.25492982 -4.8874233 -2.31509525 0 0 Z " fill="#CD8FEB" transform="translate(50,2)"/>
<path d="M0 0 C0.495 1.485 0.495 1.485 1 3 C-0.65 3.33 -2.3 3.66 -4 4 C-4 4.99 -4 5.98 -4 7 C-4.99 7 -5.98 7 -7 7 C-7.04898438 7.56847656 -7.09796875 8.13695312 -7.1484375 8.72265625 C-7.63143081 13.71081129 -8.47638163 18.22599578 -10 23 C-11.99954746 23.04254356 -14.00041636 23.04080783 -16 23 C-16.33 22.67 -16.66 22.34 -17 22 C-19.69235776 21.76321284 -22.36498156 21.57801975 -25.0625 21.4375 C-26.20041992 21.37272461 -26.20041992 21.37272461 -27.36132812 21.30664062 C-29.24065438 21.20026367 -31.12030244 21.09960066 -33 21 C-33 18.33333333 -33 15.66666667 -33 13 C-33.20625 12.154375 -33.4125 11.30875 -33.625 10.4375 C-33.74875 9.633125 -33.8725 8.82875 -34 8 C-28.91262124 2.91262124 -19.48807394 3.66555004 -12.67333984 3.51733398 C-7.83588104 3.33381975 -4.2839674 0 0 0 Z " fill="#976B8F" transform="translate(45,41)"/>
<path d="M0 0 C0.66 0.33 1.32 0.66 2 1 C1.6875 3.875 1.6875 3.875 1 7 C0.01 7.66 -0.98 8.32 -2 9 C-1.835 9.66 -1.67 10.32 -1.5 11 C-0.87816701 14.73099794 -0.93591074 18.21873378 -1 22 C-1.66 22.33 -2.32 22.66 -3 23 C-1.35 23 0.3 23 2 23 C2 22.34 2 21.68 2 21 C3.98 21 5.96 21 8 21 C8.33 21.66 8.66 22.32 9 23 C8.319375 23.12375 7.63875 23.2475 6.9375 23.375 C3.5722588 24.09100877 0.29986575 25.02945125 -3 26 C-2.835 26.928125 -2.67 27.85625 -2.5 28.8125 C-1.87838619 32.77528802 -2.01466448 35.0586579 -3 39 C2.28 39 7.56 39 13 39 C13.33 39.66 13.66 40.32 14 41 C4.43 41 -5.14 41 -15 41 C-15.0928125 35.369375 -15.0928125 35.369375 -15.1875 29.625 C-15.21481201 28.44244629 -15.24212402 27.25989258 -15.27026367 26.04150391 C-15.27775635 25.11257324 -15.28524902 24.18364258 -15.29296875 23.2265625 C-15.31653442 21.79691162 -15.31653442 21.79691162 -15.34057617 20.33837891 C-15.22818604 19.56671387 -15.1157959 18.79504883 -15 18 C-14.01 17.34 -13.02 16.68 -12 16 C-11.34 16.33 -10.68 16.66 -10 17 C-10 17.66 -10 18.32 -10 19 C-10.99 19.66 -11.98 20.32 -13 21 C-12.34 21.33 -11.68 21.66 -11 22 C-11 21.34 -11 20.68 -11 20 C-9.68 20 -8.36 20 -7 20 C-7 20.66 -7 21.32 -7 22 C-6.34 21.67 -5.68 21.34 -5 21 C-6.22007944 18.3094472 -6.22007944 18.3094472 -8 16 C-8.80799112 9.30521643 -8.80799112 9.30521643 -6.73046875 5.94921875 C-4.65502574 3.51019449 -2.88404193 1.44202097 0 0 Z " fill="#AD7CBC" transform="translate(15,23)"/>
<path d="M0 0 C3.96 0 7.92 0 12 0 C12.05376941 3.29188269 12.09356106 6.58289426 12.125 9.875 C12.14175781 10.81214844 12.15851563 11.74929688 12.17578125 12.71484375 C12.18222656 13.61074219 12.18867187 14.50664062 12.1953125 15.4296875 C12.20578613 16.25710449 12.21625977 17.08452148 12.22705078 17.93701172 C12 20 12 20 10 22 C9.63168919 23.93257855 9.63168919 23.93257855 9.5859375 26.1328125 C9.54726563 26.93847656 9.50859375 27.74414062 9.46875 28.57421875 C9.42234375 29.83685547 9.42234375 29.83685547 9.375 31.125 C9.33632813 31.97449219 9.29765625 32.82398438 9.2578125 33.69921875 C9.16343506 35.79911684 9.08062414 37.89952891 9 40 C8.01 40.495 8.01 40.495 7 41 C7 35.39 7 29.78 7 24 C5.02 26.97 3.04 29.94 1 33 C1.66 33.66 2.32 34.32 3 35 C2.030625 35.598125 1.06125 36.19625 0.0625 36.8125 C-3.23052042 38.71127509 -3.23052042 38.71127509 -4 42 C-4.99 41.67 -5.98 41.34 -7 41 C-5.79618552 38.50638429 -4.54571278 36.31856917 -3 34 C-2.34 34 -1.68 34 -1 34 C-0.01 30.04 0.98 26.08 2 22 C0.35 21.67 -1.3 21.34 -3 21 C-2.375 18.1875 -2.375 18.1875 -1 15 C2.125 13.125 2.125 13.125 5 12 C5 10.68 5 9.36 5 8 C4.4225 7.773125 3.845 7.54625 3.25 7.3125 C0.4336339 5.66961977 -1.08077114 3.60466773 -3 1 C-1.68 1.33 -0.36 1.66 1 2 C0.67 1.34 0.34 0.68 0 0 Z " fill="#362879" transform="translate(52,0)"/>
<path d="M0 0 C1.10844919 3.32534757 0.84454356 5.62182575 0 9 C-3 10 -3 10 -6 9 C-5.6596875 10.11375 -5.6596875 10.11375 -5.3125 11.25 C-5 14 -5 14 -6.4375 16.3125 C-6.953125 16.869375 -7.46875 17.42625 -8 18 C-7.34 18.33 -6.68 18.66 -6 19 C-8.16874252 18.49396008 -9.99967627 18.00016187 -12 17 C-12.33 17.66 -12.66 18.32 -13 19 C-13.33 18.34 -13.66 17.68 -14 17 C-14.433125 18.134375 -14.86625 19.26875 -15.3125 20.4375 C-15.869375 21.613125 -16.42625 22.78875 -17 24 C-17.99 24.33 -18.98 24.66 -20 25 C-22.20914 21.68629 -22.22481553 20.6553979 -22.125 16.8125 C-22.10695313 15.91144531 -22.08890625 15.01039062 -22.0703125 14.08203125 C-22.04710937 13.39496094 -22.02390625 12.70789062 -22 12 C-25.44630058 13.14876686 -25.91620679 14.19140915 -28 17 C-28.66 17 -29.32 17 -30 17 C-30 16.34 -30 15.68 -30 15 C-30.66 14.67 -31.32 14.34 -32 14 C-30.68 13.67 -29.36 13.34 -28 13 C-27.67 11.68 -27.34 10.36 -27 9 C-25.948125 8.71125 -24.89625 8.4225 -23.8125 8.125 C-19.40613661 6.82476162 -15.8236563 5.5491042 -12 3 C-12 3.66 -12 4.32 -12 5 C-10.37276701 4.54965877 -8.74826336 4.08944646 -7.125 3.625 C-6.22007813 3.36976562 -5.31515625 3.11453125 -4.3828125 2.8515625 C-1.85430274 2.1395685 -1.85430274 2.1395685 0 0 Z " fill="#502985" transform="translate(38,12)"/>
<path d="M0 0 C6.5515435 4.59732774 6.5515435 4.59732774 7.703125 8.19921875 C7.85007812 9.09060547 7.85007812 9.09060547 8 10 C4.57653445 13.14958831 1.55737263 13.56179109 -3 14 C-3.33 13.01 -3.66 12.02 -4 11 C-4.99 11.66 -5.98 12.32 -7 13 C-7.99 13 -8.98 13 -10 13 C-10 11.68 -10 10.36 -10 9 C-12.97 8.505 -12.97 8.505 -16 8 C-15.5625 5.75 -15.5625 5.75 -14 3 C-9.72041854 0.25492982 -4.8874233 -2.31509525 0 0 Z " fill="#FBCEE8" transform="translate(50,2)"/>
<path d="M0 0 C2.31 0 4.62 0 7 0 C7 0.66 7 1.32 7 2 C7.99 2.33 8.98 2.66 10 3 C10.33 4.65 10.66 6.3 11 8 C11.66 8 12.32 8 13 8 C12.67 9.98 12.34 11.96 12 14 C17.28 14 22.56 14 28 14 C28.33 14.66 28.66 15.32 29 16 C19.43 16 9.86 16 0 16 C0 10.72 0 5.44 0 0 Z " fill="#BA82DB" transform="translate(0,48)"/>
<path d="M0 0 C1.21945313 -0.03738281 2.43890625 -0.07476563 3.6953125 -0.11328125 C6.875 0.3125 6.875 0.3125 8.8046875 2.33203125 C9.15789063 2.98558594 9.51109375 3.63914063 9.875 4.3125 C9.29975586 3.97887451 8.72451172 3.64524902 8.13183594 3.30151367 C1.5640717 0.42332101 -7.01486585 4.30612288 -13.375 6.5 C-14.74664307 6.96212891 -14.74664307 6.96212891 -16.14599609 7.43359375 C-22.58523276 9.65080842 -28.66635161 12.2261612 -34.7265625 15.34375 C-37.125 16.3125 -37.125 16.3125 -40.125 15.3125 C-41.115 15.9725 -42.105 16.6325 -43.125 17.3125 C-43.785 16.9825 -44.445 16.6525 -45.125 16.3125 C-45.125 15.6525 -45.125 14.9925 -45.125 14.3125 C-32.7134999 5.18190873 -15.25252493 0.30764116 0 0 Z " fill="#2D2138" transform="translate(45.125,-0.3125)"/>
<path d="M0 0 C0.33 0 0.66 0 1 0 C0.94805091 3.25129636 0.852963 6.49995065 0.75 9.75 C0.72873047 11.13058594 0.72873047 11.13058594 0.70703125 12.5390625 C0.46103754 19.3284888 0.46103754 19.3284888 -1.796875 22.6171875 C-5.23676587 24.77626794 -8.07032104 24.56368346 -12 24 C-14.5 23 -14.5 23 -16 22 C-14 18 -14 18 -11 17 C-9.64631404 15.68733482 -8.31200404 14.35432675 -7 13 C-6.34 12.67 -5.68 12.34 -5 12 C-5.66 11.34 -6.32 10.68 -7 10 C-6.02223933 8.51990357 -5.0427506 7.04094856 -4.0625 5.5625 C-3.51722656 4.73878906 -2.97195312 3.91507813 -2.41015625 3.06640625 C-1 1 -1 1 0 0 Z " fill="#FAD1DB" transform="translate(59,23)"/>
<path d="M0 0 C3.96 0 7.92 0 12 0 C12 5.94 12 11.88 12 18 C9.46447088 16.73223544 9.15080425 15.53176935 8 13 C7.67 12.34 7.34 11.68 7 11 C6.34 11 5.68 11 5 11 C5 10.01 5 9.02 5 8 C4.4225 7.773125 3.845 7.54625 3.25 7.3125 C0.4336339 5.66961977 -1.08077114 3.60466773 -3 1 C-1.68 1.33 -0.36 1.66 1 2 C0.67 1.34 0.34 0.68 0 0 Z " fill="#5E4EA5" transform="translate(52,0)"/>
<path d="M0 0 C1.99021521 -0.09723451 1.99021521 -0.09723451 4.125 -0.4375 C5.40375 -0.623125 6.6825 -0.80875 8 -1 C7.67 0.32 7.34 1.64 7 3 C3.37 3.33 -0.26 3.66 -4 4 C-4 4.99 -4 5.98 -4 7 C-4.66 7 -5.32 7 -6 7 C-5.67 7.556875 -5.34 8.11375 -5 8.6875 C-3.8690399 11.30284522 -3.84337026 13.1806646 -4 16 C-5.32 15.67 -6.64 15.34 -8 15 C-8 11.7 -8 8.4 -8 5 C-11.44630058 6.14876686 -11.91620679 7.19140915 -14 10 C-14.66 10 -15.32 10 -16 10 C-16 9.34 -16 8.68 -16 8 C-16.66 7.67 -17.32 7.34 -18 7 C-16.68 6.67 -15.36 6.34 -14 6 C-13.67 4.68 -13.34 3.36 -13 2 C-10.66836622 1.32741333 -8.3347961 0.66152556 -6 0 C-5.236875 -0.226875 -4.47375 -0.45375 -3.6875 -0.6875 C-2 -1 -2 -1 0 0 Z " fill="#0C071C" transform="translate(24,19)"/>
<path d="M0 0 C1.98 0.66 3.96 1.32 6 2 C6 5.584276 5.27037086 6.23091007 3.0625 8.9375 C0.84701317 11.65579235 -0.26621521 13.58286497 -1 17 C-2.4375 18.75 -2.4375 18.75 -4 20 C-4.66 20 -5.32 20 -6 20 C-5.68954268 18.0830014 -5.37655329 16.16641277 -5.0625 14.25 C-4.88847656 13.18265625 -4.71445312 12.1153125 -4.53515625 11.015625 C-3.61885626 5.85224111 -3.61885626 5.85224111 -3 4 C-2.34 3.67 -1.68 3.34 -1 3 C-0.67 2.01 -0.34 1.02 0 0 Z " fill="#FCBCFA" transform="translate(41,44)"/>
<path d="M0 0 C0.66 0.33 1.32 0.66 2 1 C0.515 3.475 0.515 3.475 -1 6 C1.97 6.495 1.97 6.495 5 7 C5.33 6.34 5.66 5.68 6 5 C6 7.31 6 9.62 6 12 C5.01 12 4.02 12 3 12 C3 11.01 3 10.02 3 9 C2.443125 9.474375 1.88625 9.94875 1.3125 10.4375 C-1.21367985 12.14437828 -2.98656992 12.68279683 -6 13 C-6.66 12.67 -7.32 12.34 -8 12 C-8.59355614 9.35139573 -8.74209269 6.70802678 -9 4 C-7.54618103 3.30300448 -6.08677047 2.61766134 -4.625 1.9375 C-3.40683594 1.36322266 -3.40683594 1.36322266 -2.1640625 0.77734375 C-1.44992188 0.52082031 -0.73578125 0.26429688 0 0 Z " fill="#9C6791" transform="translate(35,4)"/>
<path d="M0 0 C2.31 0 4.62 0 7 0 C7 0.66 7 1.32 7 2 C7.99 2.33 8.98 2.66 10 3 C10.33 5.31 10.66 7.62 11 10 C8.69 9.67 6.38 9.34 4 9 C3.34 11.31 2.68 13.62 2 16 C1.34 16 0.68 16 0 16 C0 10.72 0 5.44 0 0 Z " fill="#B5B1F1" transform="translate(0,48)"/>
<path d="M0 0 C2.31 0 4.62 0 7 0 C7.125 6.75 7.125 6.75 6 9 C5.34 9 4.68 9 4 9 C3.7525 9.5775 3.505 10.155 3.25 10.75 C1.81700012 13.32939979 0.21575324 15.06121592 -2 17 C-2.66 17 -3.32 17 -4 17 C-3.79503906 16.35933594 -3.59007812 15.71867187 -3.37890625 15.05859375 C-1.81172636 10.02712149 -0.56957826 5.24011997 0 0 Z " fill="#EFE7F4" transform="translate(45,25)"/>
<path d="M0 0 C0.66 0 1.32 0 2 0 C2.66 2.64 3.32 5.28 4 8 C4.99 8 5.98 8 7 8 C7 8.99 7 9.98 7 11 C7.99 11.33 8.98 11.66 10 12 C10 12.66 10 13.32 10 14 C7.69 14 5.38 14 3 14 C3 14.66 3 15.32 3 16 C0.69 16.66 -1.62 17.32 -4 18 C-3.505 16.515 -3.505 16.515 -3 15 C-2.01 15 -1.02 15 0 15 C-0.63070732 9.5247049 -0.63070732 9.5247049 -1.6875 4.125 C-1.790625 3.42375 -1.89375 2.7225 -2 2 C-1.34 1.34 -0.68 0.68 0 0 Z " fill="#F9F5FA" transform="translate(14,30)"/>
<path d="M0 0 C0.66 0.33 1.32 0.66 2 1 C0.515 3.475 0.515 3.475 -1 6 C-0.34 6 0.32 6 1 6 C1.268125 6.763125 1.53625 7.52625 1.8125 8.3125 C2.94424112 10.87380884 3.91223401 12.19692938 6 14 C5.67 14.99 5.34 15.98 5 17 C4.34 17 3.68 17 3 17 C3 16.34 3 15.68 3 15 C1.68 15 0.36 15 -1 15 C-1 15.66 -1 16.32 -1 17 C-1.99 16.67 -2.98 16.34 -4 16 C-2.68 15.34 -1.36 14.68 0 14 C-0.99 13.34 -1.98 12.68 -3 12 C-3.99 12.495 -3.99 12.495 -5 13 C-5 9.37 -5 5.74 -5 2 C-3.35 1.34 -1.7 0.68 0 0 Z " fill="#9C729C" transform="translate(5,28)"/>
<path d="M0 0 C0.33 0 0.66 0 1 0 C1 10.56 1 21.12 1 32 C-2.74134509 28.25865491 -2.97324058 22.93961995 -3.02001953 17.80078125 C-2.9718098 15.36345649 -2.87486854 12.93457419 -2.75 10.5 C-2.71156982 9.69820312 -2.67313965 8.89640625 -2.63354492 8.0703125 C-2.25455291 2.25455291 -2.25455291 2.25455291 0 0 Z " fill="#E2B9ED" transform="translate(63,20)"/>
<path d="M0 0 C0 0.99 0 1.98 0 3 C3.3 3 6.6 3 10 3 C10 3.33 10 3.66 10 4 C5.545 4.495 5.545 4.495 1 5 C1 5.99 1 6.98 1 8 C1.66 8.33 2.32 8.66 3 9 C2.443125 8.7525 1.88625 8.505 1.3125 8.25 C-1.24050936 7.71646324 -1.24050936 7.71646324 -3.75 9.9375 C-4.4925 10.618125 -5.235 11.29875 -6 12 C-8.70452381 8.73203373 -9 7.20203536 -9 3 C-2.25 0 -2.25 0 0 0 Z " fill="#8D6386" transform="translate(26,8)"/>
<path d="M0 0 C4.29 0 8.58 0 13 0 C5.89403974 8.64238411 5.89403974 8.64238411 0 11 C0 7.37 0 3.74 0 0 Z " fill="#281C3B" transform="translate(0,0)"/>
<path d="M0 0 C-0.3125 3.375 -0.3125 3.375 -1 7 C-4.68087353 9.45391569 -7.44355588 9.22802759 -11.6875 9.125 C-12.7403418 9.11146484 -12.7403418 9.11146484 -13.81445312 9.09765625 C-15.54311525 9.07413704 -17.27160145 9.03826713 -19 9 C-18.67 8.34 -18.34 7.68 -18 7 C-15.03 7.495 -15.03 7.495 -12 8 C-12 6.68 -12 5.36 -12 4 C-10.3767313 3.3291288 -8.75132422 2.66342971 -7.125 2 C-6.22007813 1.62875 -5.31515625 1.2575 -4.3828125 0.875 C-2 0 -2 0 0 0 Z " fill="#EFE2F3" transform="translate(42,36)"/>
<path d="M0 0 C1.50433594 0.01353516 1.50433594 0.01353516 3.0390625 0.02734375 C3.80992188 0.03894531 4.58078125 0.05054687 5.375 0.0625 C4.055 1.0525 2.735 2.0425 1.375 3.0625 C1.705 4.0525 2.035 5.0425 2.375 6.0625 C1.385 7.0525 0.395 8.0425 -0.625 9.0625 C-0.955 8.4025 -1.285 7.7425 -1.625 7.0625 C-2.058125 8.196875 -2.49125 9.33125 -2.9375 10.5 C-3.494375 11.675625 -4.05125 12.85125 -4.625 14.0625 C-5.615 14.3925 -6.605 14.7225 -7.625 15.0625 C-7.955 14.4025 -8.285 13.7425 -8.625 13.0625 C-7.635 13.0625 -6.645 13.0625 -5.625 13.0625 C-6.11078543 9.93959365 -6.6236012 7.06669641 -7.625 4.0625 C-7.625 3.0725 -7.625 2.0825 -7.625 1.0625 C-4.98041621 -0.25979189 -2.94738699 -0.03427194 0 0 Z " fill="#553EB1" transform="translate(25.625,21.9375)"/>
<path d="M0 0 C0.99 0 1.98 0 3 0 C2.67 2.31 2.34 4.62 2 7 C1.31292969 7.26554687 0.62585938 7.53109375 -0.08203125 7.8046875 C-0.98308594 8.15789063 -1.88414063 8.51109375 -2.8125 8.875 C-4.15248047 9.39707031 -4.15248047 9.39707031 -5.51953125 9.9296875 C-9.48590506 11.63877427 -9.48590506 11.63877427 -12 15 C-13.65 14.67 -15.3 14.34 -17 14 C-16.01 13.67 -15.02 13.34 -14 13 C-14.66 12.67 -15.32 12.34 -16 12 C-16 11.34 -16 10.68 -16 10 C-14.02 10 -12.04 10 -10 10 C-9.34 8.02 -8.68 6.04 -8 4 C-7.67 4.66 -7.34 5.32 -7 6 C-5.68 6 -4.36 6 -3 6 C-2.87625 5.38125 -2.7525 4.7625 -2.625 4.125 C-2 2 -2 2 0 0 Z " fill="#8455C1" transform="translate(42,29)"/>
<path d="M0 0 C1.32 0.33 2.64 0.66 4 1 C5.0162256 6.60805977 4.96017114 11.76497252 4.5625 17.4375 C4.51029297 18.26443359 4.45808594 19.09136719 4.40429688 19.94335938 C4.27590237 21.96265478 4.13884576 23.98139629 4 26 C3.34 26.33 2.68 26.66 2 27 C1.97104024 23.87501937 1.95321517 20.7500731 1.9375 17.625 C1.92912109 16.73554688 1.92074219 15.84609375 1.91210938 14.9296875 C1.90888672 14.07890625 1.90566406 13.228125 1.90234375 12.3515625 C1.89710693 11.56604004 1.89187012 10.78051758 1.88647461 9.97119141 C2 8 2 8 3 6 C2.071875 6.20625 1.14375 6.4125 0.1875 6.625 C-3 7 -3 7 -6 5 C-2.25 2 -2.25 2 0 2 C0 1.34 0 0.68 0 0 Z " fill="#6B5C7B" transform="translate(57,14)"/>
<path d="M0 0 C0.87591797 0.33257812 0.87591797 0.33257812 1.76953125 0.671875 C-1.56380208 7.33854167 -1.56380208 7.33854167 -4.60546875 8.859375 C-5.47171875 9.1275 -6.33796875 9.395625 -7.23046875 9.671875 C-8.80828125 10.72375 -8.80828125 10.72375 -10.41796875 11.796875 C-13.23046875 13.671875 -13.23046875 13.671875 -15.23046875 13.671875 C-14.90046875 12.351875 -14.57046875 11.031875 -14.23046875 9.671875 C-13.59109375 9.56875 -12.95171875 9.465625 -12.29296875 9.359375 C-11.27203125 9.0190625 -11.27203125 9.0190625 -10.23046875 8.671875 C-9.90046875 7.681875 -9.57046875 6.691875 -9.23046875 5.671875 C-7.7421875 4.03125 -7.7421875 4.03125 -5.91796875 2.421875 C-5.32371094 1.88046875 -4.72945312 1.3390625 -4.1171875 0.78125 C-2.23046875 -0.328125 -2.23046875 -0.328125 0 0 Z " fill="#906788" transform="translate(15.23046875,0.328125)"/>
<path d="M0 0 C1.91015625 2.0234375 1.91015625 2.0234375 3 4 C2.42507812 3.66613281 1.85015625 3.33226562 1.2578125 2.98828125 C-4.62676653 0.41250531 -11.89191704 3.41570369 -17.640625 5.37890625 C-20.18387046 6.04840299 -22.38162513 6.1067777 -25 6 C-24.67 4.68 -24.34 3.36 -24 2 C-16.24880592 -0.00030815 -7.96387463 -1.22202498 0 0 Z " fill="#362940" transform="translate(52,0)"/>
<path d="M0 0 C3.81363425 7.62726851 4.24569719 13.56439647 4 22 C2.68 22 1.36 22 0 22 C0 19.36 0 16.72 0 14 C-0.66 13.67 -1.32 13.34 -2 13 C-1.34 13 -0.68 13 0 13 C0 8.71 0 4.42 0 0 Z " fill="#FADDFC" transform="translate(60,42)"/>
<path d="M0 0 C0.66 0.33 1.32 0.66 2 1 C1.67 1.99 1.34 2.98 1 4 C2.32 4 3.64 4 5 4 C4.34 5.32 3.68 6.64 3 8 C-0.33333333 8 -3.66666667 8 -7 8 C-7.33 7.34 -7.66 6.68 -8 6 C-5.63404067 3.38499232 -3.13950774 1.61000397 0 0 Z " fill="#6E48D9" transform="translate(46,12)"/>
<path d="M0 0 C0.66 0.33 1.32 0.66 2 1 C1.6875 3.875 1.6875 3.875 1 7 C0.01 7.66 -0.98 8.32 -2 9 C-3.20450304 11.55183404 -3.20450304 11.55183404 -4 14 C-6 12 -6 12 -7.0625 9.25 C-7 6 -7 6 -5.5 4.2734375 C-3.71835999 2.75760668 -1.91299884 1.34530093 0 0 Z " fill="#9381C1" transform="translate(15,23)"/>
<path d="M0 0 C-1.875 4.75 -1.875 4.75 -3 7 C-3.99 7 -4.98 7 -6 7 C-6 9.31 -6 11.62 -6 14 C-6.99 14 -7.98 14 -9 14 C-9.48867825 6.79199579 -9.48867825 6.79199579 -7.1875 3.0625 C-4.82036705 0.83063179 -3.27954537 0 0 0 Z " fill="#F4C3F3" transform="translate(45,21)"/>
<path d="M0 0 C0.33 0.99 0.66 1.98 1 3 C2.65 3 4.3 3 6 3 C6.33 3.66 6.66 4.32 7 5 C3.62902617 6.49821059 1.79557881 7 -2 7 C-2.33 6.01 -2.66 5.02 -3 4 C-3.99 4.66 -4.98 5.32 -6 6 C-6.99 6 -7.98 6 -9 6 C-8.67 4.68 -8.34 3.36 -8 2 C-6.865625 1.855625 -5.73125 1.71125 -4.5625 1.5625 C-1.19222799 1.38828522 -1.19222799 1.38828522 0 0 Z " fill="#E6A9E5" transform="translate(49,9)"/>
<path d="M0 0 C1.98 0 3.96 0 6 0 C5.34 2.97 4.68 5.94 4 9 C3.34 9 2.68 9 2 9 C2 9.66 2 10.32 2 11 C1.01 10.67 0.02 10.34 -1 10 C-1 6 -1 6 0 3 C0 2.01 0 1.02 0 0 Z " fill="#9E7FEB" transform="translate(32,21)"/>
<path d="M0 0 C0.33 0.99 0.66 1.98 1 3 C-0.65 3.33 -2.3 3.66 -4 4 C-4 4.99 -4 5.98 -4 7 C-4.99 7 -5.98 7 -7 7 C-7.33 8.32 -7.66 9.64 -8 11 C-8 9.68 -8 8.36 -8 7 C-9.2375 7.061875 -10.475 7.12375 -11.75 7.1875 C-15.50509752 7.37525488 -17.15982901 6.43717376 -20 4 C-19.11957031 3.96261719 -18.23914063 3.92523438 -17.33203125 3.88671875 C-15.58986328 3.78810547 -15.58986328 3.78810547 -13.8125 3.6875 C-12.66394531 3.62949219 -11.51539063 3.57148437 -10.33203125 3.51171875 C-6.49000415 2.92167707 -3.66455269 0 0 0 Z " fill="#A881B1" transform="translate(45,41)"/>
<path d="M0 0 C0.33 0 0.66 0 1 0 C1.268125 0.969375 1.53625 1.93875 1.8125 2.9375 C2.204375 3.948125 2.59625 4.95875 3 6 C3.99 6.33 4.98 6.66 6 7 C6 9.64 6 12.28 6 15 C2.91065856 13.45532928 1.17574416 11.69105198 -1 9 C-1.49469214 6.14476603 -1.29316798 3.93167982 -1 1 C-0.67 0.67 -0.34 0.34 0 0 Z " fill="#AF92DE" transform="translate(8,30)"/>
<path d="M0 0 C-0.33 3.96 -0.66 7.92 -1 12 C-3.31 11.67 -5.62 11.34 -8 11 C-7.40361667 9.72549553 -6.79752584 8.45553123 -6.1875 7.1875 C-5.85105469 6.47980469 -5.51460937 5.77210937 -5.16796875 5.04296875 C-2.28489484 0 -2.28489484 0 0 0 Z " fill="#F0C5CE" transform="translate(60,23)"/>
<path d="M0 0 C0.66 0.33 1.32 0.66 2 1 C0.35 3.64 -1.3 6.28 -3 9 C-2.34 9.66 -1.68 10.32 -1 11 C-2.4540625 11.8971875 -2.4540625 11.8971875 -3.9375 12.8125 C-7.23052042 14.71127509 -7.23052042 14.71127509 -8 18 C-8.99 17.67 -9.98 17.34 -11 17 C-9.79618552 14.50638429 -8.54571278 12.31856917 -7 10 C-6.34 10 -5.68 10 -5 10 C-4.5978125 8.3603125 -4.5978125 8.3603125 -4.1875 6.6875 C-3.12336261 3.38307337 -2.65345336 2.05039578 0 0 Z " fill="#4D3C50" transform="translate(56,24)"/>
<path d="M0 0 C0.99 0.33 1.98 0.66 3 1 C4.04449911 4.13349732 3.93423645 4.98968256 3 8 C1.906875 8.309375 0.81375 8.61875 -0.3125 8.9375 C-2.55407994 9.58337897 -4.7869351 10.2623117 -7 11 C-5.82388397 8.22008939 -4.31519951 6.0934711 -2.375 3.8125 C0.10753014 1.48618478 0.10753014 1.48618478 0 0 Z " fill="#A178A5" transform="translate(15,12)"/>
<path d="M0 0 C0 0.66 0 1.32 0 2 C-0.763125 2.45375 -1.52625 2.9075 -2.3125 3.375 C-5.0282672 5.0170918 -6.17364996 6.47789757 -8 9 C-8.66 9 -9.32 9 -10 9 C-10 8.34 -10 7.68 -10 7 C-10.66 6.67 -11.32 6.34 -12 6 C-10.68 5.67 -9.36 5.34 -8 5 C-7.938125 4.38125 -7.87625 3.7625 -7.8125 3.125 C-7 1 -7 1 -4.5625 -0.3125 C-2 -1 -2 -1 0 0 Z " fill="#745677" transform="translate(18,20)"/>
<path d="M0 0 C1.98 0 3.96 0 6 0 C6.33 0.66 6.66 1.32 7 2 C5.9790625 2.185625 5.9790625 2.185625 4.9375 2.375 C1.5722588 3.09100877 -1.70013425 4.02945125 -5 5 C-4.67 6.98 -4.34 8.96 -4 11 C-4.99 11.33 -5.98 11.66 -7 12 C-7.66 9.69 -8.32 7.38 -9 5 C-6.64031256 2.90250005 -5.45383006 2.03094296 -2.25 1.8125 C-1.13625 1.9053125 -1.13625 1.9053125 0 2 C0 1.34 0 0.68 0 0 Z " fill="#A396C9" transform="translate(17,44)"/>
<path d="M0 0 C-0.33 1.32 -0.66 2.64 -1 4 C-2.65 4.33 -4.3 4.66 -6 5 C-6 5.66 -6 6.32 -6 7 C-7.98 7.33 -9.96 7.66 -12 8 C-12 6.68 -12 5.36 -12 4 C-10.3767313 3.3291288 -8.75132422 2.66342971 -7.125 2 C-6.22007813 1.62875 -5.31515625 1.2575 -4.3828125 0.875 C-2 0 -2 0 0 0 Z " fill="#CB92E2" transform="translate(42,36)"/>
<path d="M0 0 C3.96 0 7.92 0 12 0 C7.34285714 4.65714286 7.34285714 4.65714286 3 5 C2.34 4.67 1.68 4.34 1 4 C0.67 2.68 0.34 1.36 0 0 Z " fill="#A8779E" transform="translate(26,12)"/>
<path d="M0 0 C0.66 0.33 1.32 0.66 2 1 C1.34 1.66 0.68 2.32 0 3 C-0.11601562 3.65355469 -0.23203125 4.30710937 -0.3515625 4.98046875 C-1 7 -1 7 -2.9609375 8.30078125 C-3.75757813 8.63464844 -4.55421875 8.96851563 -5.375 9.3125 C-6.16648437 9.65925781 -6.95796875 10.00601562 -7.7734375 10.36328125 C-10 11 -10 11 -13 10 C-12.67 9.34 -12.34 8.68 -12 8 C-10.66666667 7.66666667 -9.33333333 7.33333333 -8 7 C-7.67 6.34 -7.34 5.68 -7 5 C-6.34 4.855625 -5.68 4.71125 -5 4.5625 C-4.01 4.2840625 -4.01 4.2840625 -3 4 C-2.67 3.01 -2.34 2.02 -2 1 C-1.34 0.67 -0.68 0.34 0 0 Z " fill="#23192D" transform="translate(18,5)"/>
<path d="M0 0 C3.35620271 1.38877354 5.07298728 2.91677965 7 6 C7 6.66 7 7.32 7 8 C5.1875 8.625 5.1875 8.625 3 9 C2.01 8.34 1.02 7.68 0 7 C0 6.01 0 5.02 0 4 C-0.99 3.67 -1.98 3.34 -3 3 C-2.01 2.67 -1.02 2.34 0 2 C0 1.34 0 0.68 0 0 Z " fill="#AD77E7" transform="translate(21,34)"/>
<path d="M0 0 C2.64 0 5.28 0 8 0 C7.01 0.33 6.02 0.66 5 1 C5.185625 1.78375 5.37125 2.5675 5.5625 3.375 C6 6 6 6 5 8 C1.2047869 6.50902342 -0.61042731 4.24299151 -3 1 C-1.68 1.33 -0.36 1.66 1 2 C0.67 1.34 0.34 0.68 0 0 Z " fill="#6C517C" transform="translate(52,0)"/>
<path d="M0 0 C0.99 0 1.98 0 3 0 C3.02696365 1.79158489 3.04637917 3.58328473 3.0625 5.375 C3.07410156 6.37273438 3.08570313 7.37046875 3.09765625 8.3984375 C3 11 3 11 2 13 C1.34 13 0.68 13 0 13 C0 8.71 0 4.42 0 0 Z " fill="#EB9DF8" transform="translate(0,51)"/>
<path d="M0 0 C0.103125 0.639375 0.20625 1.27875 0.3125 1.9375 C0.539375 2.618125 0.76625 3.29875 1 4 C1.99 4.33 2.98 4.66 4 5 C3.67 5.66 3.34 6.32 3 7 C-1.27343092 7.36629408 -3.48812804 6.40814077 -7 4 C-4.83989616 0.75984424 -3.8842653 0 0 0 Z " fill="#F4CCF8" transform="translate(29,32)"/>
<path d="M0 0 C2.0625 1.75 2.0625 1.75 4 4 C3.9198832 6.6438545 3.23219261 7.71733073 1.5625 9.75 C0 11 0 11 -2 11 C-1.34 7.37 -0.68 3.74 0 0 Z " fill="#FAC7E1" transform="translate(37,53)"/>
<path d="M0 0 C0.99 0.99 1.98 1.98 3 3 C2.34 3 1.68 3 1 3 C1.33 3.556875 1.66 4.11375 2 4.6875 C3.1309601 7.30284522 3.15662974 9.1806646 3 12 C1.68 11.67 0.36 11.34 -1 11 C-1.02688151 9.35425434 -1.04634123 7.70838587 -1.0625 6.0625 C-1.07410156 5.14597656 -1.08570313 4.22945312 -1.09765625 3.28515625 C-1 1 -1 1 0 0 Z " fill="#26255D" transform="translate(17,23)"/>
<path d="M0 0 C1.32 0.33 2.64 0.66 4 1 C2.68 3.31 1.36 5.62 0 8 C-2.97 7.505 -2.97 7.505 -6 7 C-4.02 4.69 -2.04 2.38 0 0 Z " fill="#775371" transform="translate(13,0)"/>
<path d="M0 0 C0.33 0.66 0.66 1.32 1 2 C4.3 1.67 7.6 1.34 11 1 C11.33 1.99 11.66 2.98 12 4 C10.68 4.33 9.36 4.66 8 5 C8 4.67 8 4.34 8 4 C4.7 4.33 1.4 4.66 -2 5 C-1 1 -1 1 0 0 Z " fill="#291C3D" transform="translate(25,15)"/>
<path d="M0 0 C-0.33 2.31 -0.66 4.62 -1 7 C-2.65 7.33 -4.3 7.66 -6 8 C-6.1875 5.125 -6.1875 5.125 -6 2 C-3 0 -3 0 0 0 Z " fill="#522E7E" transform="translate(45,29)"/>
<path d="M0 0 C0.66 0 1.32 0 2 0 C2 2.64 2 5.28 2 8 C0.68 8 -0.64 8 -2 8 C-2.125 5.125 -2.125 5.125 -2 2 C-1.34 1.34 -0.68 0.68 0 0 Z " fill="#FDF1FC" transform="translate(62,56)"/>
<path d="M0 0 C4.875 0.875 4.875 0.875 6 2 C6.04092937 4.33297433 6.04241723 6.66705225 6 9 C3.43673506 7.71836753 3.17583941 6.57214871 2 4 C1.62875 3.2575 1.2575 2.515 0.875 1.75 C0.58625 1.1725 0.2975 0.595 0 0 Z " fill="#B58FAF" transform="translate(58,9)"/>
<path d="M0 0 C2.31 0 4.62 0 7 0 C6.02433888 1.16959987 5.044375 2.33561177 4.0625 3.5 C3.51722656 4.1496875 2.97195312 4.799375 2.41015625 5.46875 C1.94480469 5.9740625 1.47945313 6.479375 1 7 C0.67 7 0.34 7 0 7 C0 4.69 0 2.38 0 0 Z " fill="#3D3185" transform="translate(0,0)"/>
<path d="M0 0 C0.66 0 1.32 0 2 0 C2.84454356 3.37817425 3.10844919 5.67465243 2 9 C3.65 9 5.3 9 7 9 C7 9.33 7 9.66 7 10 C4.69 10 2.38 10 0 10 C0 6.66666667 0 3.33333333 0 0 Z " fill="#A175AC" transform="translate(12,52)"/>
<path d="M0 0 C3 1 3 1 4.75 3.875 C6 7 6 7 5 10 C4.34 10 3.68 10 3 10 C3 8.02 3 6.04 3 4 C1.68 3.67 0.36 3.34 -1 3 C-1.33 3.66 -1.66 4.32 -2 5 C-1.125 1.125 -1.125 1.125 0 0 Z " fill="#4A3C51" transform="translate(58,11)"/>
<path d="M0 0 C0.33 0.99 0.66 1.98 1 3 C-2.3171411 4.4216319 -5.44219804 5.39009109 -9 6 C-8.4375 4.125 -8.4375 4.125 -7 2 C-3.375 0.75 -3.375 0.75 0 0 Z " fill="#9F72A1" transform="translate(20,45)"/>
<path d="M0 0 C2.31 0 4.62 0 7 0 C7 1.32 7 2.64 7 4 C5.68 4.33 4.36 4.66 3 5 C3 4.34 3 3.68 3 3 C2.01 2.67 1.02 2.34 0 2 C0 1.34 0 0.68 0 0 Z " fill="#F9F0FB" transform="translate(45,25)"/>
<path d="M0 0 C1.65 0 3.3 0 5 0 C5 2.64 5 5.28 5 8 C4.01 7.34 3.02 6.68 2 6 C2 5.01 2 4.02 2 3 C1.34 3 0.68 3 0 3 C0 2.01 0 1.02 0 0 Z " fill="#5A4E94" transform="translate(59,3)"/>
<path d="M0 0 C0.66 0.33 1.32 0.66 2 1 C2 1.99 2 2.98 2 4 C2.99 4.33 3.98 4.66 5 5 C4.34 5 3.68 5 3 5 C3 5.66 3 6.32 3 7 C0.69 7.66 -1.62 8.32 -4 9 C-3.67 8.01 -3.34 7.02 -3 6 C-2.01 6 -1.02 6 0 6 C0 4.02 0 2.04 0 0 Z " fill="#EDB0F4" transform="translate(14,39)"/>
<path d="M0 0 C-0.33 3.63 -0.66 7.26 -1 11 C-1.33 9.68 -1.66 8.36 -2 7 C-2.66 7 -3.32 7 -4 7 C-3.34 5.35 -2.68 3.7 -2 2 C-3.32 1.67 -4.64 1.34 -6 1 C-4 0 -4 0 0 0 Z " fill="#78597D" transform="translate(8,27)"/>
<path d="M0 0 C0.66 0 1.32 0 2 0 C2.33 1.98 2.66 3.96 3 6 C1.68 6.33 0.36 6.66 -1 7 C-1.625 4.625 -1.625 4.625 -2 2 C-1.34 1.34 -0.68 0.68 0 0 Z " fill="#ECE5F2" transform="translate(14,30)"/>
<path d="M0 0 C1.65 0.33 3.3 0.66 5 1 C4.8125 2.875 4.8125 2.875 4 5 C1.4375 6.25 1.4375 6.25 -1 7 C-0.67 4.69 -0.34 2.38 0 0 Z " fill="#0E0912" transform="translate(55,19)"/>
<path d="M0 0 C1.65 0.33 3.3 0.66 5 1 C3.7934375 2.175625 3.7934375 2.175625 2.5625 3.375 C0.01309583 5.71982856 0.01309583 5.71982856 -1 8 C-1.99 7.67 -2.98 7.34 -4 7 C-2.79618552 4.50638429 -1.54571278 2.31856917 0 0 Z " fill="#8A708C" transform="translate(49,34)"/>
<path d="M0 0 C1.32 0.66 2.64 1.32 4 2 C3.67 2.99 3.34 3.98 3 5 C0.4375 6.1875 0.4375 6.1875 -2 7 C-2.125 4.625 -2.125 4.625 -2 2 C-1.34 1.34 -0.68 0.68 0 0 Z " fill="#D488E8" transform="translate(24,28)"/>
<path d="M0 0 C0 0.66 0 1.32 0 2 C-3.63 2 -7.26 2 -11 2 C-10 0 -10 0 -8.3125 -0.6875 C-5.37519398 -1.08443325 -2.88840266 -0.59080963 0 0 Z " fill="#FDEDFD" transform="translate(59,62)"/>
<path d="M0 0 C0.66 0.66 1.32 1.32 2 2 C0.625 4.5 0.625 4.5 -1 7 C-1.66 7 -2.32 7 -3 7 C-3 6.34 -3 5.68 -3 5 C-3.66 5 -4.32 5 -5 5 C-5.33 4.01 -5.66 3.02 -6 2 C-5.01 1.67 -4.02 1.34 -3 1 C-3 1.66 -3 2.32 -3 3 C-2.01 2.01 -1.02 1.02 0 0 Z " fill="#A676AF" transform="translate(11,42)"/>
<path d="M0 0 C1.50433594 0.01353516 1.50433594 0.01353516 3.0390625 0.02734375 C3.80992188 0.03894531 4.58078125 0.05054687 5.375 0.0625 C1.34207255 2.2969598 -2.07467434 2.60746743 -6.625 3.0625 C-6.955 2.4025 -7.285 1.7425 -7.625 1.0625 C-4.98041621 -0.25979189 -2.94738699 -0.03427194 0 0 Z " fill="#7D83C3" transform="translate(25.625,21.9375)"/>
<path d="M0 0 C0.99 0 1.98 0 3 0 C4.75 2.375 4.75 2.375 6 5 C5.67 5.66 5.34 6.32 5 7 C4.34 6.34 3.68 5.68 3 5 C0.93125966 4.3574765 0.93125966 4.3574765 -1 4 C-0.67 2.68 -0.34 1.36 0 0 Z " fill="#DAE6F7" transform="translate(5,51)"/>
<path d="M0 0 C0.99 0 1.98 0 3 0 C3.309375 0.78375 3.61875 1.5675 3.9375 2.375 C4.92875038 4.92330128 4.92875038 4.92330128 6 7 C4.02 7 2.04 7 0 7 C0.33 6.01 0.66 5.02 1 4 C0.61067144 1.85744207 0.61067144 1.85744207 0 0 Z " fill="#986C93" transform="translate(3,34)"/>
<path d="M0 0 C1.32 0 2.64 0 4 0 C3 2 2 4 1 6 C1.66 6.33 2.32 6.66 3 7 C1.0625 6.625 1.0625 6.625 -1 6 C-1.33 5.34 -1.66 4.68 -2 4 C-1.34 4 -0.68 4 0 4 C0 2.68 0 1.36 0 0 Z " fill="#1A0B50" transform="translate(29,24)"/>
<path d="M0 0 C-1.875 4.75 -1.875 4.75 -3 7 C-3.99 7 -4.98 7 -6 7 C-5.39816251 4.97954558 -4.72693904 2.97888961 -4 1 C-2 0 -2 0 0 0 Z " fill="#FBEBFB" transform="translate(45,21)"/>
<path d="M0 0 C0.66 0.33 1.32 0.66 2 1 C2.33 1.99 2.66 2.98 3 4 C0.69 4.66 -1.62 5.32 -4 6 C-4.33 5.01 -4.66 4.02 -5 3 C-4.360625 2.87625 -3.72125 2.7525 -3.0625 2.625 C-2.0415625 2.315625 -2.0415625 2.315625 -1 2 C-0.67 1.34 -0.34 0.68 0 0 Z " fill="#251C30" transform="translate(26,3)"/>
<path d="M0 0 C0.66 0.33 1.32 0.66 2 1 C1.67 5.29 1.34 9.58 1 14 C-1.60925025 8.78149951 -0.85182871 5.64336518 0 0 Z " fill="#E6C0F2" transform="translate(59,41)"/>
<path d="M0 0 C1.98 0 3.96 0 6 0 C5.67 0.66 5.34 1.32 5 2 C4.34 2 3.68 2 3 2 C3 3.32 3 4.64 3 6 C2.34 6 1.68 6 1 6 C0.67 4.02 0.34 2.04 0 0 Z " fill="#9349C2" transform="translate(32,21)"/>
<path d="M0 0 C2.31 0 4.62 0 7 0 C7 0.66 7 1.32 7 2 C4.69 2.33 2.38 2.66 0 3 C0 2.01 0 1.02 0 0 Z " fill="#B781EE" transform="translate(0,48)"/>
<path d="M0 0 C1.98 0 3.96 0 6 0 C6.33 0.66 6.66 1.32 7 2 C2.9472484 2.98248524 -0.83861737 3.08159574 -5 3 C-5 2.67 -5 2.34 -5 2 C-3.35 2 -1.7 2 0 2 C0 1.34 0 0.68 0 0 Z " fill="#C28FDB" transform="translate(17,44)"/>
<path d="M0 0 C-0.33 0.99 -0.66 1.98 -1 3 C-1.66 3 -2.32 3 -3 3 C-3.66 4.32 -4.32 5.64 -5 7 C-5.33 5.02 -5.66 3.04 -6 1 C-3 0 -3 0 0 0 Z " fill="#945AC9" transform="translate(45,27)"/>
<path d="M0 0 C0.33 0.66 0.66 1.32 1 2 C0.01 2 -0.98 2 -2 2 C-2.33 3.32 -2.66 4.64 -3 6 C-3.33 5.01 -3.66 4.02 -4 3 C-5.65 3 -7.3 3 -9 3 C-9 2.67 -9 2.34 -9 2 C-6.03 1.34 -3.06 0.68 0 0 Z " fill="#43218A" transform="translate(31,22)"/>
<path d="M0 0 C0.33 0 0.66 0 1 0 C0.67 2.64 0.34 5.28 0 8 C-0.66 8 -1.32 8 -2 8 C-1.125 1.125 -1.125 1.125 0 0 Z " fill="#B47085" transform="translate(35,56)"/>
<path d="M0 0 C-0.3125 1.9375 -0.3125 1.9375 -1 4 C-1.99 4.33 -2.98 4.66 -4 5 C-4 4.34 -4 3.68 -4 3 C-4.66 2.67 -5.32 2.34 -6 2 C-2.25 0 -2.25 0 0 0 Z " fill="#17121D" transform="translate(12,24)"/>
<path d="M0 0 C0.99 0.33 1.98 0.66 3 1 C3 2.32 3 3.64 3 5 C1.35 4.67 -0.3 4.34 -2 4 C-2 3.34 -2 2.68 -2 2 C-1.34 2 -0.68 2 0 2 C0 1.34 0 0.68 0 0 Z " fill="#CE9EBA" transform="translate(57,14)"/>
</svg>
