<?xml version="1.0" encoding="UTF-8"?>
<svg version="1.1" xmlns="http://www.w3.org/2000/svg" width="25" height="25">
<path d="M0 0 C8.25 0 16.5 0 25 0 C25 8.25 25 16.5 25 25 C16.75 25 8.5 25 0 25 C0 16.75 0 8.5 0 0 Z " fill="#FBFBFC" transform="translate(0,0)"/>
<path d="M0 0 C-0.33 1.32 -0.66 2.64 -1 4 C-0.071875 3.01 -0.071875 3.01 0.875 2 C3 0 3 0 5 0 C5.33 1.32 5.66 2.64 6 4 C5.360625 4.12375 4.72125 4.2475 4.0625 4.375 C3.381875 4.58125 2.70125 4.7875 2 5 C1.67 5.66 1.34 6.32 1 7 C2.32 6.67 3.64 6.34 5 6 C3.05355294 10.54170981 0.69370988 13.31530877 -3.9375 15.1875 C-6.6172029 15.89844159 -9.27039349 16.51830473 -12 17 C-10.68 15.35 -9.36 13.7 -8 12 C-8.33 11.67 -8.66 11.34 -9 11 C-9.66 11 -10.32 11 -11 11 C-9.60249952 7.84164893 -7.94801766 5.67727175 -5.5 3.25 C-4.8915625 2.63640625 -4.283125 2.0228125 -3.65625 1.390625 C-2 0 -2 0 0 0 Z " fill="#B16EA0" transform="translate(16,4)"/>
<path d="M0 0 C0.33 0 0.66 0 1 0 C1.33 3.3 1.66 6.6 2 10 C-0.31 10.66 -2.62 11.32 -5 12 C-3.68 10.35 -2.36 8.7 -1 7 C-1.33 6.67 -1.66 6.34 -2 6 C-2.66 6 -3.32 6 -4 6 C-2.84826645 3.53199953 -1.95216435 1.95216435 0 0 Z " fill="#3F97C6" transform="translate(9,9)"/>
<path d="M0 0 C0.33 1.32 0.66 2.64 1 4 C0.360625 4.12375 -0.27875 4.2475 -0.9375 4.375 C-1.9584375 4.684375 -1.9584375 4.684375 -3 5 C-3.33 5.66 -3.66 6.32 -4 7 C-2.68 6.67 -1.36 6.34 0 6 C-1.75 9.875 -1.75 9.875 -4 11 C-5.5625 8.1875 -5.5625 8.1875 -7 5 C-6.67 4.01 -6.34 3.02 -6 2 C-6 2.66 -6 3.32 -6 4 C-5.38125 3.34 -4.7625 2.68 -4.125 2 C-2 0 -2 0 0 0 Z " fill="#D05B99" transform="translate(21,4)"/>
<path d="M0 0 C0.66 0 1.32 0 2 0 C2.99 2.97 3.98 5.94 5 9 C3.35 8.67 1.7 8.34 0 8 C0 5.36 0 2.72 0 0 Z " fill="#8786B3" transform="translate(10,9)"/>
<path d="M0 0 C2.79705825 1.39852912 2.90914993 3.13651858 4 6 C4.99 7.485 4.99 7.485 6 9 C5.01 9.33 4.02 9.66 3 10 C1.74335022 7.09399739 1 5.20395416 1 2 C0.34 1.67 -0.32 1.34 -1 1 C-0.67 0.67 -0.34 0.34 0 0 Z " fill="#A37EAB" transform="translate(11,7)"/>
<path d="M0 0 C0.33 0 0.66 0 1 0 C1 1.98 1 3.96 1 6 C-0.66666667 6 -2.33333333 6 -4 6 C-2.84826645 3.53199953 -1.95216435 1.95216435 0 0 Z " fill="#6AA1C9" transform="translate(9,9)"/>
</svg>
