<svg xmlns="http://www.w3.org/2000/svg" width="256" height="256" fill="none" xmlns:v="https://vecta.io/nano"><g clip-path="url(#A)"><path d="M128 256c70.692 0 128-57.308 128-128S198.692 0 128 0 0 57.308 0 128s57.308 128 128 128z" fill="#000"/><path d="M194.99 145.573c-.704 3.592-1.81 6.815-3.352 9.669-1.91 3.558-4.624 6.814-8.21 9.802-3.419 2.82-6.971 4.868-10.59 6.11S164.629 173 159.099 173c-7.373 0-14.008-1.51-19.906-4.532s-10.255-7.486-13.07-13.395c-3.083 5.405-7.372 9.736-12.901 12.925s-12.4 4.801-20.643 4.801c-5.395 0-10.254-.839-14.577-2.484-4.289-1.645-7.976-4.029-11.059-7.117-2.446-2.451-4.39-5.338-5.798-8.595S59 147.621 59 143.425s.804-7.99 2.413-11.448 3.787-6.378 6.568-8.762c2.748-2.417 5.965-4.297 9.584-5.64s7.406-2.048 11.36-2.048l14.946-.268 14.946-.102v-9.969c0-6.279-1.81-10.878-5.462-13.764s-8.378-4.331-14.276-4.331-10.79 1.31-14.678 3.961c-3.854 2.653-5.965 6.916-6.367 12.858l-15.08-2.72c.469-4.163 1.608-7.788 3.384-10.944 2.145-3.827 4.926-6.915 8.277-9.333 3.385-2.383 7.239-4.163 11.528-5.27C90.467 74.537 94.824 74 99.247 74c2.715 0 5.463.269 8.311.839s5.597 1.376 8.311 2.485c2.681 1.107 5.195 2.551 7.473 4.331s4.189 3.861 5.798 6.177c3.083-4.297 6.937-7.621 11.594-9.971s10.49-3.525 17.527-3.525c8.009 0 14.41 1.444 19.269 4.331s8.948 6.916 12.265 12.085c2.815 4.331 4.726 9.031 5.731 14.133.971 5.103 1.474 11.112 1.474 18.027v4.802l-63.068.201v.738c0 3.962.435 7.789 1.274 11.549.871 3.76 2.278 7.083 4.255 9.97s4.524 5.238 7.741 7.017 7.138 2.685 11.83 2.685c4.524 0 8.846-1.343 12.902-4.062s6.769-7.016 8.11-12.925l14.946 2.686zM92.512 127.177c-4.793 0-8.948 1.375-12.433 4.162-3.519 2.786-5.261 6.748-5.261 11.918s1.676 9.131 5.06 11.918 7.54 4.162 12.433 4.162c3.552 0 7.071-.537 10.489-1.578 3.452-1.041 6.401-2.786 8.848-5.271 3.552-3.558 5.73-7.217 6.434-10.91.737-3.693 1.106-7.688 1.106-12.018v-2.586l-26.675.203zm88.538-11.65c-.134-4.297-.637-8.224-1.576-11.716-.904-3.525-2.412-6.546-4.523-9.132-1.743-2.216-3.954-4.029-6.635-5.438-2.715-1.41-6.133-2.116-10.322-2.116-3.552 0-6.635.605-9.216 1.846a22.76 22.76 0 0 0-6.836 5.002c-2.58 2.719-4.524 5.909-5.797 9.601s-1.944 7.688-1.944 12.019h46.849v-.068z" fill="#fff"/><circle cx="128.5" cy="127.5" r="108.5" stroke="#fff" stroke-width="12"/></g><defs><clipPath id="A"><path fill="#fff" d="M0 0h256v256H0z"/></clipPath></defs></svg>