<?xml version="1.0" encoding="UTF-8"?>
<svg version="1.1" xmlns="http://www.w3.org/2000/svg" width="64" height="64">
<path d="M0 0 C21.12 0 42.24 0 64 0 C64 21.12 64 42.24 64 64 C42.88 64 21.76 64 0 64 C0 42.88 0 21.76 0 0 Z " fill="#000000" transform="translate(0,0)"/>
<path d="M0 0 C2.5625 0.3125 2.5625 0.3125 4.4375 1.5 C5.5625 3.3125 5.5625 3.3125 5.375 5.875 C4.5625 8.3125 4.5625 8.3125 2.5625 10.3125 C-3.00568182 9.74431818 -3.00568182 9.74431818 -4.4375 8.3125 C-4.625 5.375 -4.625 5.375 -4.4375 2.3125 C-2.4375 0.3125 -2.4375 0.3125 0 0 Z " fill="#747474" transform="translate(40.4375,29.6875)"/>
<path d="M0 0 C2.5 0.25 2.5 0.25 4.5 2.25 C4.125 5.875 4.125 5.875 3.5 9.25 C-1.93440487 10.57841008 -1.93440487 10.57841008 -4.4375 9.125 C-5.5 7.25 -5.5 7.25 -5.3125 4.6875 C-4.22827241 1.43481722 -3.47807945 0.34780795 0 0 Z " fill="#767676" transform="translate(29.5,29.75)"/>
<path d="M0 0 C1.98 0 3.96 0 6 0 C5.01 0.495 5.01 0.495 4 1 C4.33 5.29 4.66 9.58 5 14 C6.98 14 8.96 14 11 14 C11.33 13.34 11.66 12.68 12 12 C11.67 13.32 11.34 14.64 11 16 C7.37 16 3.74 16 0 16 C0.33 15.34 0.66 14.68 1 14 C1.22950319 11.795636 1.41075933 9.58607827 1.5625 7.375 C1.64628906 6.18648437 1.73007813 4.99796875 1.81640625 3.7734375 C1.87699219 2.85820312 1.93757812 1.94296875 2 1 C1.34 0.67 0.68 0.34 0 0 Z " fill="#F0F0F0" transform="translate(11,24)"/>
<path d="M0 0 C1.32 0.66 2.64 1.32 4 2 C3.01 2 2.02 2 1 2 C1 4.31 1 6.62 1 9 C2.32 9.33 3.64 9.66 5 10 C3.35 10.33 1.7 10.66 0 11 C-1.62651522 7.74696956 -1.11453156 4.60774398 -1 1 C-0.67 0.67 -0.34 0.34 0 0 Z " fill="#F0F0F0" transform="translate(49,29)"/>
</svg>
