<?xml version="1.0" encoding="UTF-8"?>
<svg version="1.1" xmlns="http://www.w3.org/2000/svg" width="64" height="64">
<path d="M0 0 C21.12 0 42.24 0 64 0 C64 21.12 64 42.24 64 64 C42.88 64 21.76 64 0 64 C0 42.88 0 21.76 0 0 Z " fill="#F04144" transform="translate(0,0)"/>
<path d="M0 0 C21.12 0 42.24 0 64 0 C64 21.12 64 42.24 64 64 C42.88 64 21.76 64 0 64 C0 42.88 0 21.76 0 0 Z M12 10 C12 10.66 12 11.32 12 12 C11.34 12 10.68 12 10 12 C4.72036217 18.5149377 2.42174125 25.9163911 2.625 34.25 C3.68899298 42.05261522 7.13670737 49.36540953 13.0625 54.6015625 C19.69796812 59.39087215 26.83216469 61.29910383 35 61 C43.52633834 59.50113361 50.14557705 55.78644569 55.609375 49.04296875 C60.22564075 42.26120754 62.10924878 35.1389459 61 27 C59.62302315 21.52181154 56.90224156 16.80371017 54 12 C53.34 12 52.68 12 52 12 C52 11.34 52 10.68 52 10 C40.14944397 0.61580334 23.74010313 -0.16586203 12 10 Z " fill="#0C0D10" transform="translate(0,0)"/>
<path d="M0 0 C8.19256018 -0.63019694 8.19256018 -0.63019694 11.5625 2 C12.036875 2.66 12.51125 3.32 13 4 C15.46800047 2.84826645 17.04783565 1.95216435 19 0 C21.3828125 -0.1953125 21.3828125 -0.1953125 24.125 -0.125 C25.03507812 -0.10695313 25.94515625 -0.08890625 26.8828125 -0.0703125 C27.58148438 -0.04710938 28.28015625 -0.02390625 29 0 C30.05896707 3.64755324 30.07690133 6.34396522 29 10 C25.06609448 15.28994261 19.93964523 19.67030336 15 24 C8.82659842 21.08588361 4.03837752 16.43916836 0 11 C-0.87042159 7.13780148 -0.74163839 3.87300048 0 0 Z " fill="#FAEAE9" transform="translate(18,22)"/>
<path d="M0 0 C0.356132 3.23910529 0.34548779 4.56322159 -1.71484375 7.16796875 C-2.44832031 7.83441406 -3.18179688 8.50085938 -3.9375 9.1875 C-6.87557386 11.78710767 -6.87557386 11.78710767 -9 15 C-14.445 14.505 -14.445 14.505 -20 14 C-19.87625 15.546875 -19.7525 17.09375 -19.625 18.6875 C-19.59806072 23.43554823 -19.59806072 23.43554823 -21.265625 25.77734375 C-25.11413043 29 -25.11413043 29 -28 29 C-28.33 29.99 -28.66 30.98 -29 32 C-30.89827044 30.10172956 -30.2614668 26.97035826 -30.3125 24.4375 C-30.22934891 16.98413858 -29.22927868 12.60104666 -24.26953125 7.0703125 C-16.87509121 -0.04369967 -9.95624685 -1.73839231 0 0 Z " fill="#EA9D9E" transform="translate(38,8)"/>
<path d="M0 0 C2.28125 1.51171875 2.28125 1.51171875 4 3 C4 3.66 4 4.32 4 5 C4.66 5 5.32 5 6 5 C6.98484108 6.74681293 7.96266187 8.4975851 8.9375 10.25 C9.48277344 11.22453125 10.02804688 12.1990625 10.58984375 13.203125 C12.70593763 17.40014222 13.12405413 20.57188638 13.0625 25.25 C13.05347656 26.14203125 13.04445312 27.0340625 13.03515625 27.953125 C13.02355469 28.62859375 13.01195312 29.3040625 13 30 C11.19896519 26.78276688 10.40220898 23.71844859 9.625 20.125 C8.46123424 15.24315182 7.13596974 11.89292796 4 8 C2.02 8.99 2.02 8.99 0 10 C-2 7 -2 7 -3 4 C-9.55289691 0.6022016 -16.93817652 0.15464759 -24 2 C-30.05251303 4.8057386 -35.08912886 8.92712374 -38 15 C-39.21020438 18.62571354 -40.17035871 22.2699867 -41 26 C-41.66 26 -42.32 26 -43 26 C-42.93950287 23.62246262 -42.85232887 21.25080939 -42.75 18.875 C-42.73582031 18.20984375 -42.72164062 17.5446875 -42.70703125 16.859375 C-42.46182223 11.85711101 -41.18426235 8.84266245 -38 5 C-37.34 5 -36.68 5 -36 5 C-36 4.34 -36 3.68 -36 3 C-25.17477991 -5.5722555 -12.12193764 -6.56604955 0 0 Z " fill="#CF3638" transform="translate(48,7)"/>
<path d="M0 0 C6.64615385 1.47692308 6.64615385 1.47692308 8.4375 4.125 C8.623125 4.74375 8.80875 5.3625 9 6 C5.20832022 12.79342627 -0.16480451 15.64343079 -7 19 C-7.99 17.68 -8.98 16.36 -10 15 C-8.8758824 13.70756532 -7.75067408 12.41607925 -6.625 11.125 C-5.68527344 10.04605469 -5.68527344 10.04605469 -4.7265625 8.9453125 C-3.52573166 7.5923402 -2.2791655 6.2791655 -1 5 C-0.35232207 2.42938689 -0.35232207 2.42938689 0 0 Z " fill="#E74E50" transform="translate(38,8)"/>
<path d="M0 0 C0.66 0.33 1.32 0.66 2 1 C1.835 1.78375 1.67 2.5675 1.5 3.375 C0.18221681 12.92892814 0.88709138 19.84280543 6.3203125 27.9765625 C11.92028076 35.16777858 18.14713924 37.10906594 27 38.25 C29.33195736 38.52394385 31.66323188 38.76875732 34 39 C29.06010634 41.95244807 24.46304501 41.1013035 19 40 C10.64058871 37.18929939 4.92994044 32.31214721 0.68359375 24.61328125 C-3.07488512 16.27129155 -2.97339715 8.54851681 0 0 Z " fill="#F07F81" transform="translate(5,20)"/>
<path d="M0 0 C0.33 0.66 0.66 1.32 1 2 C0.16597656 2.07476562 -0.66804688 2.14953125 -1.52734375 2.2265625 C-10.91237356 3.32309519 -17.79550408 5.70504348 -23.875 13.1875 C-26.78808123 17.66296044 -27.85336177 22.84478908 -29 28 C-29.66 28 -30.32 28 -31 28 C-30.80983887 19.71934713 -28.99986619 13.45727181 -23.39453125 7.2109375 C-16.3735602 0.6880216 -9.35390403 -0.51753158 0 0 Z " fill="#7C1E20" transform="translate(36,5)"/>
<path d="M0 0 C2.97 0.33 5.94 0.66 9 1 C9.356132 4.23910529 9.34548779 5.56322159 7.28515625 8.16796875 C6.55167969 8.83441406 5.81820312 9.50085938 5.0625 10.1875 C2.12442614 12.78710767 2.12442614 12.78710767 0 16 C-2.97 15.67 -5.94 15.34 -9 15 C-8.319375 14.484375 -7.63875 13.96875 -6.9375 13.4375 C-3.39657527 10.49928587 -0.20890181 7.29212981 3 4 C1.68 3.34 0.36 2.68 -1 2 C-0.67 1.34 -0.34 0.68 0 0 Z " fill="#F0787A" transform="translate(29,7)"/>
<path d="M0 0 C1.3303125 0.37125 1.3303125 0.37125 2.6875 0.75 C-0.11106118 4.55604321 -3.18180432 7.46191935 -6.82421875 10.41796875 C-8.44132545 11.70079945 -8.44132545 11.70079945 -9.3125 13.75 C-10.3025 13.75 -11.2925 13.75 -12.3125 13.75 C-12.6425 15.4 -12.9725 17.05 -13.3125 18.75 C-13.9725 18.75 -14.6325 18.75 -15.3125 18.75 C-14.98803385 10.9628123 -11.11032368 6.61776927 -5.8125 1.1875 C-3.3125 -0.25 -3.3125 -0.25 0 0 Z " fill="#D5B4B4" transform="translate(23.3125,10.25)"/>
<path d="M0 0 C3.16115776 1.36983503 3.9927092 1.9890638 6 5 C-0.07439825 11.86214442 -0.07439825 11.86214442 -3.9375 12.4375 C-4.9584375 12.2209375 -4.9584375 12.2209375 -6 12 C-6.93423645 8.98968256 -7.04449911 8.13349732 -6 5 C-4.12382302 3.15500602 -2.07262391 1.6316401 0 0 Z " fill="#E85A5C" transform="translate(16,32)"/>
<path d="M0 0 C-0.99 0.66 -1.98 1.32 -3 2 C-3.99 1.67 -4.98 1.34 -6 1 C-15.54136791 0.12609093 -22.7126372 1.571887 -30.375 7.375 C-33.08904683 10.08904683 -34.52562679 12.47788622 -36 16 C-36.66 16 -37.32 16 -38 16 C-37.35494404 12.51669784 -36.01782732 9.90567134 -34 7 C-33.34 7 -32.68 7 -32 7 C-32 6.34 -32 5.68 -32 5 C-22.9199688 -2.19027851 -10.88142556 -4.83618914 0 0 Z " fill="#D93B3D" transform="translate(44,5)"/>
<path d="M0 0 C1.32 0.66 2.64 1.32 4 2 C3.67 2.66 3.34 3.32 3 4 C2.34 4 1.68 4 1 4 C0.7525 4.5775 0.505 5.155 0.25 5.75 C-1.16683317 8.3002997 -2.87627537 10.01785701 -5 12 C-6.9375 11.1875 -6.9375 11.1875 -9 10 C-9.33 9.01 -9.66 8.02 -10 7 C-8.9171875 6.6596875 -8.9171875 6.6596875 -7.8125 6.3125 C-4.46790687 4.75168987 -2.48396041 2.6968713 0 0 Z " fill="#E84446" transform="translate(21,37)"/>
<path d="M0 0 C1.32 0.33 2.64 0.66 4 1 C4.296875 3.203125 4.296875 3.203125 4 6 C1.953125 8.421875 1.953125 8.421875 -0.75 10.75 C-1.63171875 11.52859375 -2.5134375 12.3071875 -3.421875 13.109375 C-5.76718748 14.82927082 -7.16703824 15.60285583 -10 16 C-8.31043558 12.80860055 -6.49978696 10.43549944 -3.875 8 C-1.25228379 5.49413748 -0.21960064 3.73321086 0 0 Z " fill="#E96365" transform="translate(38,8)"/>
<path d="M0 0 C0.66 1.32 1.32 2.64 2 4 C-2.79496074 9.65233782 -7.650497 13.39331397 -15 15 C-18.42057144 15.01866615 -21.64635739 14.6564577 -25 14 C-25 13.67 -25 13.34 -25 13 C-24.09636719 12.86722656 -23.19273438 12.73445313 -22.26171875 12.59765625 C-21.08222656 12.42105469 -19.90273438 12.24445312 -18.6875 12.0625 C-17.51574219 11.88847656 -16.34398437 11.71445312 -15.13671875 11.53515625 C-11.57343498 10.92722365 -9.58212922 10.58212922 -7 8 C-6.175 7.38125 -5.35 6.7625 -4.5 6.125 C-2.1385112 4.11773452 -1.11316374 2.8335077 0 0 Z " fill="#F06366" transform="translate(54,45)"/>
<path d="M0 0 C6.44769407 0.25484957 11.03173685 0.68545568 16 5 C16 5.66 16 6.32 16 7 C16.66 7.33 17.32 7.66 18 8 C12.82651889 8.30432242 10.2968814 7.79297291 6 5 C3.68308546 4.27833809 1.35151077 3.59940471 -1 3 C-0.67 2.01 -0.34 1.02 0 0 Z " fill="#B72C2F" transform="translate(36,5)"/>
<path d="M0 0 C0.33 0 0.66 0 1 0 C1.09796875 0.79664062 1.1959375 1.59328125 1.296875 2.4140625 C2.41893 10.97481934 2.41893 10.97481934 7 18 C9.62766389 18.96219702 9.62766389 18.96219702 12 19 C10.68 19.99 9.36 20.98 8 22 C2.75131349 18.50087566 -0.0855015 14.04665587 -1.46875 7.92578125 C-1.70740352 6.29166756 -1.86285464 4.64574427 -2 3 C-1.34 3 -0.68 3 0 3 C0 2.01 0 1.02 0 0 Z " fill="#BC2D2F" transform="translate(7,30)"/>
<path d="M0 0 C0.8125 1.6875 0.8125 1.6875 1 4 C-1.3125 6.75 -1.3125 6.75 -4 9 C-4.66 9 -5.32 9 -6 9 C-6.33 9.99 -6.66 10.98 -7 12 C-8 11 -8 11 -8.09765625 8.71484375 C-8.08605469 7.79832031 -8.07445312 6.88179687 -8.0625 5.9375 C-8.05347656 5.01839844 -8.04445313 4.09929688 -8.03515625 3.15234375 C-8.02355469 2.44207031 -8.01195312 1.73179688 -8 1 C-7.34 1 -6.68 1 -6 1 C-5.67 1.66 -5.34 2.32 -5 3 C-3.35 2.01 -1.7 1.02 0 0 Z " fill="#E27B7D" transform="translate(16,28)"/>
<path d="M0 0 C2.97 0.33 5.94 0.66 9 1 C9 1.66 9 2.32 9 3 C8.26910156 3.43828125 7.53820312 3.8765625 6.78515625 4.328125 C2.88246715 6.67083318 0.223255 9.88389917 -2.81640625 13.234375 C-5 15 -5 15 -7.27734375 14.765625 C-7.84582031 14.51296875 -8.41429688 14.2603125 -9 14 C-8.319375 13.649375 -7.63875 13.29875 -6.9375 12.9375 C-3.116342 10.41716174 -0.14280085 7.30582798 3 4 C1.68 3.34 0.36 2.68 -1 2 C-0.67 1.34 -0.34 0.68 0 0 Z " fill="#F18183" transform="translate(29,7)"/>
<path d="M0 0 C0.90878906 0.29970703 0.90878906 0.29970703 1.8359375 0.60546875 C1.05347656 1.30414063 0.27101563 2.0028125 -0.53515625 2.72265625 C-1.55743422 3.64176855 -2.57956185 4.56104809 -3.6015625 5.48046875 C-4.3759668 6.17076172 -4.3759668 6.17076172 -5.16601562 6.875 C-8.05894187 9.4233996 -8.05894187 9.4233996 -10.1640625 12.60546875 C-10.8240625 12.60546875 -11.4840625 12.60546875 -12.1640625 12.60546875 C-11.8340625 10.95546875 -11.5040625 9.30546875 -11.1640625 7.60546875 C-10.5040625 7.60546875 -9.8440625 7.60546875 -9.1640625 7.60546875 C-8.9371875 7.02796875 -8.7103125 6.45046875 -8.4765625 5.85546875 C-6.55400237 2.55965139 -4.09040133 -0.74572299 0 0 Z " fill="#F2ABAD" transform="translate(24.1640625,11.39453125)"/>
<path d="M0 0 C2.1015625 0.42578125 2.1015625 0.42578125 4 1 C2.45036847 2.65795529 0.88475231 4.30098044 -0.6875 5.9375 C-1.55761719 6.85402344 -2.42773438 7.77054688 -3.32421875 8.71484375 C-6.05441092 11.04646772 -7.48192553 11.70207297 -11 12 C-10.67 11.01 -10.34 10.02 -10 9 C-9.195625 8.690625 -8.39125 8.38125 -7.5625 8.0625 C-4.48611668 6.78692643 -4.25833509 5.96607556 -3 3 C-1.625 1.1875 -1.625 1.1875 0 0 Z " fill="#F28E90" transform="translate(29,10)"/>
<path d="M0 0 C0.66 0.33 1.32 0.66 2 1 C-0.49872182 4.8373228 -3.0843836 8.45960866 -6 12 C-7.32 11.34 -8.64 10.68 -10 10 C-6.66666667 6.66666667 -3.33333333 3.33333333 0 0 Z " fill="#ED575A" transform="translate(39,15)"/>
<path d="M0 0 C1.85776765 3.13498292 2.20140476 5.37471432 2 9 C1.34 8.01 0.68 7.02 0 6 C-2.475 7.485 -2.475 7.485 -5 9 C-5 4.61031544 -2.87194899 3.23094261 0 0 Z " fill="#EF8C8E" transform="translate(16,23)"/>
<path d="M0 0 C0.99 0.33 1.98 0.66 3 1 C2.34 1.66 1.68 2.32 1 3 C-0.1446875 4.2684375 -0.1446875 4.2684375 -1.3125 5.5625 C-4.06727167 8.06101384 -5.37297382 8.68911204 -9 9 C-9 8.01 -9 7.02 -9 6 C-8.1646875 5.9071875 -8.1646875 5.9071875 -7.3125 5.8125 C-4.05012827 4.66626128 -2.31332126 2.50609803 0 0 Z " fill="#E94D50" transform="translate(21,37)"/>
<path d="M0 0 C0.99 0.33 1.98 0.66 3 1 C2.52949219 1.36351562 2.05898438 1.72703125 1.57421875 2.1015625 C-2.47192944 5.36863868 -5.00283426 8.06582581 -7 13 C-7.66 13 -8.32 13 -9 13 C-8.35494404 9.51669784 -7.01782732 6.90567134 -5 4 C-4.34 4 -3.68 4 -3 4 C-3 3.34 -3 2.68 -3 2 C-2.01 1.34 -1.02 0.68 0 0 Z " fill="#E25658" transform="translate(15,8)"/>
<path d="M0 0 C0.66 1.32 1.32 2.64 2 4 C-0.31 6.31 -2.62 8.62 -5 11 C-5.99 10.67 -6.98 10.34 -8 10 C-7 8 -7 8 -4.5625 6.125 C-2.13819855 4.11460368 -1.12886607 2.87347727 0 0 Z " fill="#E95457" transform="translate(54,45)"/>
<path d="M0 0 C0.66 0.33 1.32 0.66 2 1 C1.43410156 1.55429688 0.86820313 2.10859375 0.28515625 2.6796875 C-0.44832031 3.40414063 -1.18179688 4.12859375 -1.9375 4.875 C-2.66839844 5.59429688 -3.39929687 6.31359375 -4.15234375 7.0546875 C-6.05667999 8.87027192 -6.05667999 8.87027192 -7 11 C-7.66 11 -8.32 11 -9 11 C-9 10.01 -9 9.02 -9 8 C-8.34 8 -7.68 8 -7 8 C-6.773125 7.4225 -6.54625 6.845 -6.3125 6.25 C-4.66961977 3.4336339 -2.60466773 1.91922886 0 0 Z " fill="#EF6F71" transform="translate(36,12)"/>
<path d="M0 0 C1.32 0.66 2.64 1.32 4 2 C1.11912454 4.40072955 -1.56404834 6.47291037 -5 8 C-5.33 7.01 -5.66 6.02 -6 5 C-4.02 3.35 -2.04 1.7 0 0 Z " fill="#ED6B6E" transform="translate(16,32)"/>
<path d="M0 0 C2.16874252 0.50603992 3.99967627 0.99983813 6 2 C6 2.66 6 3.32 6 4 C6.66 4.33 7.32 4.66 8 5 C5.69 5 3.38 5 1 5 C0.67 3.35 0.34 1.7 0 0 Z " fill="#C63032" transform="translate(46,8)"/>
<path d="M0 0 C2.97 0.33 5.94 0.66 9 1 C9 1.66 9 2.32 9 3 C5.7 3 2.4 3 -1 3 C-0.67 2.01 -0.34 1.02 0 0 Z " fill="#CA8082" transform="translate(29,7)"/>
<path d="M0 0 C1.485 0.99 1.485 0.99 3 2 C2.34 4.64 1.68 7.28 1 10 C0.34 10 -0.32 10 -1 10 C-0.67 6.7 -0.34 3.4 0 0 Z " fill="#882325" transform="translate(6,23)"/>
<path d="M0 0 C0.391875 0.474375 0.78375 0.94875 1.1875 1.4375 C3.40808374 3.35179633 5.13375709 3.61266988 8 4 C6.68 4.99 5.36 5.98 4 7 C2 5.75 2 5.75 0 4 C0 2.68 0 1.36 0 0 Z " fill="#D63234" transform="translate(11,45)"/>
<path d="M0 0 C0.33 0 0.66 0 1 0 C1 2.97 1 5.94 1 9 C0.34 9 -0.32 9 -1 9 C-1.33 7.02 -1.66 5.04 -2 3 C-1.34 3 -0.68 3 0 3 C0 2.01 0 1.02 0 0 Z " fill="#A33132" transform="translate(7,30)"/>
<path d="M0 0 C0.99 0 1.98 0 3 0 C2.34 2.31 1.68 4.62 1 7 C0.34 7 -0.32 7 -1 7 C-0.67 4.69 -0.34 2.38 0 0 Z " fill="#D1A1A2" transform="translate(9,22)"/>
<path d="M0 0 C0.93065133 2.60582371 1.14917407 3.64198224 0.0625 6.25 C-0.4634375 7.11625 -0.4634375 7.11625 -1 8 C-1.66 8 -2.32 8 -3 8 C-2.45276317 4.62537285 -1.9451 2.91765 0 0 Z " fill="#6D1719" transform="translate(10,16)"/>
<path d="M0 0 C0.598125 0.20625 1.19625 0.4125 1.8125 0.625 C0.55708443 3.13583114 -0.68813488 3.49625446 -3.1875 4.625 C-3.8475 3.635 -4.5075 2.645 -5.1875 1.625 C-2.1875 -0.375 -2.1875 -0.375 0 0 Z " fill="#D7383B" transform="translate(51.1875,12.375)"/>
</svg>
