<?xml version="1.0" encoding="UTF-8"?>
<svg version="1.1" xmlns="http://www.w3.org/2000/svg" width="64" height="64">
<path d="M0 0 C21.12 0 42.24 0 64 0 C64 21.12 64 42.24 64 64 C42.88 64 21.76 64 0 64 C0 42.88 0 21.76 0 0 Z " fill="#9E4117" transform="translate(0,0)"/>
<path d="M0 0 C7.59 0 15.18 0 23 0 C23.495 0.99 23.495 0.99 24 2 C29.94 2.33 35.88 2.66 42 3 C42 6.3 42 9.6 42 13 C41.34 13 40.68 13 40 13 C40 10.36 40 7.72 40 5 C35.05 5 30.1 5 25 5 C25 6.65 25 8.3 25 10 C25.66 10.33 26.32 10.66 27 11 C26.9071875 12.2684375 26.9071875 12.2684375 26.8125 13.5625 C27.03229783 17.59212682 28.39562008 20.32329602 30 24 C30.5 26.625 30.5 26.625 30 29 C27.5 31.8125 27.5 31.8125 25 34 C26.32 35.65 27.64 37.3 29 39 C28.34 39 27.68 39 27 39 C26.67 40.32 26.34 41.64 26 43 C25.67 42.01 25.34 41.02 25 40 C19.59885717 38.70834474 19.59885717 38.70834474 14.75 40.5 C14.1725 40.995 13.595 41.49 13 42 C10.64809002 41.72330471 9.11312926 41.05656463 7 40 C6.34 40.99 5.68 41.98 5 43 C2.5 43.125 2.5 43.125 0 43 C-0.99 43.495 -0.99 43.495 -2 44 C-2.66 43.67 -3.32 43.34 -4 43 C-3.67 41.68 -3.34 40.36 -3 39 C-3 39.66 -3 40.32 -3 41 C-1.35444301 39.77190909 -1.35444301 39.77190909 0 38 C-0.36707617 36.11280345 -0.36707617 36.11280345 -1 34 C-0.72949547 31.99053778 -0.40632091 29.98645776 0 28 C-1.98 28.33 -3.96 28.66 -6 29 C-6.33 28.34 -6.66 27.68 -7 27 C-6.484375 26.62875 -5.96875 26.2575 -5.4375 25.875 C-3.64984052 23.99891246 -3.64984052 23.99891246 -4.375 21.0625 C-4.684375 19.5465625 -4.684375 19.5465625 -5 18 C-4.7018576 16.65835921 -4.37756808 15.32148827 -4 14 C-4.33 13.34 -4.66 12.68 -5 12 C-6.98 12 -8.96 12 -11 12 C-11 9.03 -11 6.06 -11 3 C-7.7 3 -4.4 3 -1 3 C-0.67 2.01 -0.34 1.02 0 0 Z " fill="#29252F" transform="translate(20,0)"/>
<path d="M0 0 C6.93 0 13.86 0 21 0 C21 21.12 21 42.24 21 64 C18.03 64 15.06 64 12 64 C12.556875 63.195625 13.11375 62.39125 13.6875 61.5625 C15.36264047 57.01569015 14.27811663 55.35836962 12.58203125 51.03515625 C12 49 12 49 13.1875 46.8125 C13.785625 46.214375 14.38375 45.61625 15 45 C15.70984824 43.01491564 16.3809708 41.01525365 17 39 C16.31292969 38.39414062 15.62585937 37.78828125 14.91796875 37.1640625 C8.83384344 31.50643524 5.42269263 27.21846711 4 19 C3.82726563 18.17757813 3.65453125 17.35515625 3.4765625 16.5078125 C2.75143447 12.69197483 2.40352777 8.86233719 2 5 C6.95 5 11.9 5 17 5 C17 7.64 17 10.28 17 13 C17.66 13 18.32 13 19 13 C19 9.7 19 6.4 19 3 C13.06 3 7.12 3 1 3 C0.67 2.01 0.34 1.02 0 0 Z " fill="#7E7969" transform="translate(43,0)"/>
<path d="M0 0 C2.77879271 1.72476789 2.98509216 4.06995568 3.8125 7.125 C5.47592837 8.78842837 7.5950709 8.48548097 9.875 8.6875 C10.79410156 8.77128906 11.71320312 8.85507812 12.66015625 8.94140625 C13.37042969 9.00199219 14.08070312 9.06257813 14.8125 9.125 C14.8125 8.465 14.8125 7.805 14.8125 7.125 C15.76125 7.16625 16.71 7.2075 17.6875 7.25 C20.91494856 7.47473818 20.91494856 7.47473818 22.8125 5.125 C22.8125 6.445 22.8125 7.765 22.8125 9.125 C24.41657328 9.15208567 26.0207785 9.17143483 27.625 9.1875 C28.96498047 9.20490234 28.96498047 9.20490234 30.33203125 9.22265625 C32.94663791 9.23509967 32.94663791 9.23509967 35.8125 8.125 C36.3075 9.115 36.3075 9.115 36.8125 10.125 C36.92570856 5.04196314 36.92570856 5.04196314 35.8125 0.125 C43.25097487 2.93955806 43.25097487 2.93955806 44.9375 6.5 C45.22625 7.36625 45.515 8.2325 45.8125 9.125 C46.10125 9.785 46.39 10.445 46.6875 11.125 C46.8125 13.125 46.8125 13.125 45.39160156 15.71948242 C41.64524228 19.21369655 38.61805853 18.76269296 33.671875 18.61328125 C32.78969299 18.60620651 31.90751099 18.59913177 30.99859619 18.59184265 C28.18569519 18.56389178 25.37479748 18.50115381 22.5625 18.4375 C20.65367462 18.41241794 18.74481798 18.38960461 16.8359375 18.36914062 C12.16068848 18.31406299 7.48693367 18.22778694 2.8125 18.125 C2.8125 17.465 2.8125 16.805 2.8125 16.125 C1.719375 16.063125 0.62625 16.00125 -0.5 15.9375 C-4.1875 15.125 -4.1875 15.125 -6.125 12.9375 C-7.37061429 9.6402857 -7.7813584 7.6139181 -7.1875 4.125 C-4.87630212 1.6212023 -3.46631052 0.19807489 0 0 Z " fill="#873013" transform="translate(12.1875,45.875)"/>
<path d="M0 0 C6.6 0 13.2 0 20 0 C19.67 0.99 19.34 1.98 19 3 C15.7 3 12.4 3 9 3 C9 5.97 9 8.94 9 12 C11.64 12 14.28 12 17 12 C17.33 12.66 17.66 13.32 18 14 C17.0625 16.625 17.0625 16.625 16 19 C16.33 19 16.66 19 17 19 C16.25 25.75 16.25 25.75 14 28 C13.71125 28.639375 13.4225 29.27875 13.125 29.9375 C11.79606898 32.37387353 10.2869391 33.47537393 8 35 C8 32.69 8 30.38 8 28 C7.67 28.99 7.34 29.98 7 31 C6.01 31 5.02 31 4 31 C4 30.34 4 29.68 4 29 C3.34 29 2.68 29 2 29 C2 30.32 2 31.64 2 33 C1.34 33 0.68 33 0 33 C0 22.11 0 11.22 0 0 Z " fill="#888477" transform="translate(0,0)"/>
<path d="M0 0 C1.98 0.66 3.96 1.32 6 2 C6 2.66 6 3.32 6 4 C8.31 4.33 10.62 4.66 13 5 C13.33 5.99 13.66 6.98 14 8 C13.34 8 12.68 8 12 8 C12 8.66 12 9.32 12 10 C10.68 10 9.36 10 8 10 C8 10.99 8 11.98 8 13 C6.68 13 5.36 13 4 13 C5.26946514 17.82442184 5.26946514 17.82442184 9 21 C9.1875 24.625 9.1875 24.625 9 28 C8.01 28.33 7.02 28.66 6 29 C4.81952528 31.41956465 4.81952528 31.41956465 3.9375 34.3125 C2.81571981 37.68685085 1.67784907 40.86055796 0 44 C-1.32 43.67 -2.64 43.34 -4 43 C-3.67 41.68 -3.34 40.36 -3 39 C-3 39.66 -3 40.32 -3 41 C-1.35444301 39.77190909 -1.35444301 39.77190909 0 38 C-0.36707617 36.11280345 -0.36707617 36.11280345 -1 34 C-0.72949547 31.99053778 -0.40632091 29.98645776 0 28 C-1.98 28.33 -3.96 28.66 -6 29 C-6.33 28.34 -6.66 27.68 -7 27 C-6.484375 26.62875 -5.96875 26.2575 -5.4375 25.875 C-3.64984052 23.99891246 -3.64984052 23.99891246 -4.375 21.0625 C-4.684375 19.5465625 -4.684375 19.5465625 -5 18 C-4.7018576 16.65835921 -4.37756808 15.32148827 -4 14 C-4.33 13.34 -4.66 12.68 -5 12 C-6.98 12 -8.96 12 -11 12 C-11 9.03 -11 6.06 -11 3 C-7.7 3 -4.4 3 -1 3 C-0.67 2.01 -0.34 1.02 0 0 Z " fill="#252530" transform="translate(20,0)"/>
<path d="M0 0 C3.45201639 1.47721422 5.64961936 3.43794001 8.25 6.125 C8.95640625 6.84945312 9.6628125 7.57390625 10.390625 8.3203125 C10.92171875 8.87460937 11.4528125 9.42890625 12 10 C11.43545368 11.48643845 10.84765111 12.96406016 10.25 14.4375 C9.92515625 15.26121094 9.6003125 16.08492187 9.265625 16.93359375 C8 19 8 19 6 19.84375 C3.46422994 20.04185704 2.14387064 19.30163575 0 18 C0.33 18.66 0.66 19.32 1 20 C1.13415472 22.6723621 1.04318541 25.32250488 1 28 C0.01 27.34 -0.98 26.68 -2 26 C-2.66 26.33 -3.32 26.66 -4 27 C-10.47058824 27.35294118 -10.47058824 27.35294118 -14 25 C-13.22914062 24.96261719 -12.45828125 24.92523438 -11.6640625 24.88671875 C-10.15972656 24.78810547 -10.15972656 24.78810547 -8.625 24.6875 C-7.62726562 24.62949219 -6.62953125 24.57148437 -5.6015625 24.51171875 C-4.74304688 24.34285156 -3.88453125 24.17398438 -3 24 C-2.34 23.01 -1.68 22.02 -1 21 C-1.99 20.67 -2.98 20.34 -4 20 C-3.34 19.01 -2.68 18.02 -2 17 C-3.65 18.32 -5.3 19.64 -7 21 C-7.33 19.68 -7.66 18.36 -8 17 C-9.32 16.67 -10.64 16.34 -12 16 C-11.01 15.34 -10.02 14.68 -9 14 C-11.46800047 15.15173355 -13.04783565 16.04783565 -15 18 C-15 16.68 -15 15.36 -15 14 C-16.65 14.33 -18.3 14.66 -20 15 C-20 14.34 -20 13.68 -20 13 C-20.99 12.67 -21.98 12.34 -23 12 C-22.34 11.34 -21.68 10.68 -21 10 C-20.34 10.66 -19.68 11.32 -19 12 C-15.98694043 11.61121812 -14.60314689 10.73543126 -12 9 C-10.02734375 9.0234375 -10.02734375 9.0234375 -7.9375 9.375 C-4.33525393 10.05225585 -4.33525393 10.05225585 -2 10 C-2.33 9.67 -2.66 9.34 -3 9 C-3.68268138 7.67479497 -4.3507041 6.34187818 -5 5 C-3.35 3.35 -1.7 1.7 0 0 Z " fill="#963D17" transform="translate(49,29)"/>
<path d="M0 0 C1.32 0 2.64 0 4 0 C4.33 0.66 4.66 1.32 5 2 C5.99 1.01 6.98 0.02 8 -1 C8.99 -0.67 9.98 -0.34 11 0 C10.01 0.66 9.02 1.32 8 2 C8.99 2.33 9.98 2.66 11 3 C11.99 4.485 11.99 4.485 13 6 C13.33 5.67 13.66 5.34 14 5 C13.34 4.34 12.68 3.68 12 3 C13.65 3 15.3 3 17 3 C16.67 3.99 16.34 4.98 16 6 C16.66 6.33 17.32 6.66 18 7 C17.34 8.32 16.68 9.64 16 11 C13.95840905 11.0272616 11.91671037 11.04651345 9.875 11.0625 C8.73804687 11.07410156 7.60109375 11.08570313 6.4296875 11.09765625 C3.1870844 11.005327 0.18067388 10.61389906 -3 10 C-3 10.66 -3 11.32 -3 12 C-4.60332791 12.08121924 -6.20784026 12.13929134 -7.8125 12.1875 C-8.70582031 12.22230469 -9.59914063 12.25710937 -10.51953125 12.29296875 C-13 12 -13 12 -14.796875 10.640625 C-16 9 -16 9 -16.4375 6.5625 C-15.86019318 3.18113147 -14.67885426 2.08355332 -12 0 C-10 -0.6875 -10 -0.6875 -8 -1 C-7.34 -1.226875 -6.68 -1.45375 -6 -1.6875 C-3.38852276 -2.09554332 -2.2961109 -1.21980892 0 0 Z " fill="#B85316" transform="translate(30,43)"/>
<path d="M0 0 C4.95 0 9.9 0 15 0 C16.17402193 7.33763707 16.09377123 14.58165418 16 22 C7.59720121 22.16159228 7.59720121 22.16159228 5 21 C1.85000633 16.38195372 0.58316373 11.55781688 1 6 C0.67 5.67 0.34 5.34 0 5 C0 3.35 0 1.7 0 0 Z " fill="#526C6B" transform="translate(45,5)"/>
<path d="M0 0 C1.32 1.65 2.64 3.3 4 5 C3.01 5.33 2.02 5.66 1 6 C1 6.66 1 7.32 1 8 C1.99 7.67 2.98 7.34 4 7 C4.89820173 10.6793004 4.99390281 13.68269775 4.5625 17.4375 C4.23088552 20.54795986 4 23.49049405 4 26.625 C4 27.40875 4 28.1925 4 29 C3 30 3 30 -0.3125 30.375 C-4 30 -4 30 -6.4375 27.5 C-6.953125 26.675 -7.46875 25.85 -8 25 C-7.01 24.67 -6.02 24.34 -5 24 C-5 21.69 -5 19.38 -5 17 C-5.928125 16.690625 -5.928125 16.690625 -6.875 16.375 C-9.84653645 14.45224112 -10.13024659 12.33405473 -11 9 C-10.34 8.67 -9.68 8.34 -9 8 C-8.01 8.33 -7.02 8.66 -6 9 C-6 8.01 -6 7.02 -6 6 C-4.68 6 -3.36 6 -2 6 C-2 5.34 -2 4.68 -2 4 C-1.34 4 -0.68 4 0 4 C0 2.68 0 1.36 0 0 Z " fill="#C38974" transform="translate(34,4)"/>
<path d="M0 0 C2.48357998 2.48357998 2.73315176 4.59604047 3.11328125 8.0234375 C3 10 3 10 1.0625 12.5 C0.381875 12.995 -0.29875 13.49 -1 14 C0.32 15.65 1.64 17.3 3 19 C2.34 19 1.68 19 1 19 C0.67 20.32 0.34 21.64 0 23 C-0.33 22.01 -0.66 21.02 -1 20 C-6.40114283 18.70834474 -6.40114283 18.70834474 -11.25 20.5 C-11.8275 20.995 -12.405 21.49 -13 22 C-15.35190998 21.72330471 -16.88687074 21.05656463 -19 20 C-19.66 20.99 -20.32 21.98 -21 23 C-22.65 22.67 -24.3 22.34 -26 22 C-24.35 17.71 -22.7 13.42 -21 9 C-20.34 9 -19.68 9 -19 9 C-18.4121875 9.99 -18.4121875 9.99 -17.8125 11 C-16.03516815 13.42601514 -16.03516815 13.42601514 -12.3125 13.25 C-11.219375 13.1675 -10.12625 13.085 -9 13 C-8.67 10.03 -8.34 7.06 -8 4 C-7.67 4 -7.34 4 -7 4 C-6.67 5.65 -6.34 7.3 -6 9 C-5.34 8.67 -4.68 8.34 -4 8 C-1.99199544 8.28112064 0.01014051 8.61067967 2 9 C2 8.34 2 7.68 2 7 C1.34 7 0.68 7 0 7 C0 4.69 0 2.38 0 0 Z " fill="#8B3411" transform="translate(46,20)"/>
<path d="M0 0 C0.99 0 1.98 0 3 0 C3.433125 0.94875 3.86625 1.8975 4.3125 2.875 C5.79302201 6.20041937 5.79302201 6.20041937 9 8 C9.1875 11.625 9.1875 11.625 9 15 C8.01 15.33 7.02 15.66 6 16 C4.81952528 18.41956465 4.81952528 18.41956465 3.9375 21.3125 C2.81571981 24.68685085 1.67784907 27.86055796 0 31 C-1.32 30.67 -2.64 30.34 -4 30 C-3.67 28.68 -3.34 27.36 -3 26 C-3 26.66 -3 27.32 -3 28 C-1.35444301 26.77190909 -1.35444301 26.77190909 0 25 C-0.36707617 23.11280345 -0.36707617 23.11280345 -1 21 C-0.72949547 18.99053778 -0.40632091 16.98645776 0 15 C-1.98 15.33 -3.96 15.66 -6 16 C-6.33 15.34 -6.66 14.68 -7 14 C-6.525625 13.566875 -6.05125 13.13375 -5.5625 12.6875 C-3.76313043 10.97690387 -3.76313043 10.97690387 -3 8 C-2.34 8 -1.68 8 -1 8 C-0.67 5.36 -0.34 2.72 0 0 Z " fill="#2C262F" transform="translate(20,13)"/>
<path d="M0 0 C2 1 2 1 3.1875 3.3125 C4.05587561 6.18481933 4.09473059 7.26317353 3 10 C2.01 11.485 2.01 11.485 1 13 C1.32126128 15.63434254 1.81355048 17.62710097 3 20 C3.33 18.35 3.66 16.7 4 15 C4.33 15 4.66 15 5 15 C5 17.31 5 19.62 5 22 C6.65 22.33 8.3 22.66 10 23 C10 23.66 10 24.32 10 25 C5.05 25 0.1 25 -5 25 C-5.13558695 21.95682614 -5.23437239 18.91974438 -5.3125 15.875 C-5.35439453 15.0190625 -5.39628906 14.163125 -5.43945312 13.28125 C-5.525699 8.79646437 -5.42265645 5.91343774 -2.48046875 2.3828125 C-1.66191406 1.59648438 -0.84335938 0.81015625 0 0 Z " fill="#AC7A67" transform="translate(5,39)"/>
<path d="M0 0 C0.0269501 2.93756119 0.04681474 5.87487555 0.0625 8.8125 C0.07087891 9.64587891 0.07925781 10.47925781 0.08789062 11.33789062 C0.09111328 12.14033203 0.09433594 12.94277344 0.09765625 13.76953125 C0.10289307 14.50792236 0.10812988 15.24631348 0.11352539 16.00708008 C0 18 0 18 -1 21 C-1.99 21 -2.98 21 -4 21 C-4 20.34 -4 19.68 -4 19 C-4.66 19 -5.32 19 -6 19 C-6 20.32 -6 21.64 -6 23 C-6.66 23 -7.32 23 -8 23 C-8 15.74 -8 8.48 -8 1 C-5.29120665 -0.35439668 -2.99066732 -0.06501451 0 0 Z " fill="#D7B17C" transform="translate(8,10)"/>
<path d="M0 0 C2.04470249 1.66736408 2.92566921 2.52497566 3.34057617 5.17651367 C3.32486572 5.99869385 3.30915527 6.82087402 3.29296875 7.66796875 C3.28330078 8.56064453 3.27363281 9.45332031 3.26367188 10.37304688 C3.23853516 11.30181641 3.21339844 12.23058594 3.1875 13.1875 C3.17396484 14.12787109 3.16042969 15.06824219 3.14648438 16.03710938 C3.11113603 18.35831735 3.05732915 20.67923088 3 23 C0.03 23 -2.94 23 -6 23 C-5.443125 22.195625 -4.88625 21.39125 -4.3125 20.5625 C-2.82768687 16.53229293 -3.05194258 16.28281639 -4.6875 12.625 C-5.625 10.32421875 -5.625 10.32421875 -6 8 C-4.49543862 4.8498246 -2.44430464 2.47123912 0 0 Z " fill="#AF7663" transform="translate(61,41)"/>
<path d="M0 0 C0.433125 0.61875 0.86625 1.2375 1.3125 1.875 C2.99740483 4.2197245 2.99740483 4.2197245 6 6 C6 8 6 10 6 12 C6.98511802 14.3396553 7.98470459 16.67328135 9 19 C9.1875 21.9375 9.1875 21.9375 9 24 C8.690625 23.360625 8.38125 22.72125 8.0625 22.0625 C7.1654837 20.06389179 7.1654837 20.06389179 6 19 C5.67 19.99 5.34 20.98 5 22 C5.66 22 6.32 22 7 22 C7 22.66 7 23.32 7 24 C3.7807732 25.0730756 3.09793558 24.79946725 0 24 C-0.66 24.33 -1.32 24.66 -2 25 C-4.23551759 21.64672361 -4.17283528 21.09256343 -3.625 17.3125 C-3.51414063 16.50425781 -3.40328125 15.69601563 -3.2890625 14.86328125 C-3.19367187 14.24839844 -3.09828125 13.63351563 -3 13 C-2.34 13 -1.68 13 -1 13 C0.94002992 6.55201154 0.94002992 6.55201154 0 0 Z " fill="#0F1520" transform="translate(41,5)"/>
<path d="M0 0 C3.63 0 7.26 0 11 0 C11 4.62 11 9.24 11 14 C3.125 14 3.125 14 0 13 C0.2784375 11.824375 0.2784375 11.824375 0.5625 10.625 C1.25962266 8.02910225 1.25962266 8.02910225 0 6 C-0.039992 4.00039988 -0.04346799 1.99952758 0 0 Z " fill="#D1ECEC" transform="translate(50,13)"/>
<path d="M0 0 C7.43847487 2.81455806 7.43847487 2.81455806 9.125 6.375 C9.41375 7.24125 9.7025 8.1075 10 9 C10.28875 9.66 10.5775 10.32 10.875 11 C11 13 11 13 9.6875 15.75 C5.70531662 19.08392097 1.99672522 18.42910808 -3 18 C-2.67 16.68 -2.34 15.36 -2 14 C-1.34 14 -0.68 14 0 14 C0.89214652 11.32356043 1.13540211 9.74615622 1.125 7 C1.12757812 6.319375 1.13015625 5.63875 1.1328125 4.9375 C1.06631126 2.78125219 1.06631126 2.78125219 0 0 Z " fill="#192737" transform="translate(48,46)"/>
<path d="M0 0 C0.5775 0.33 1.155 0.66 1.75 1 C4.19883862 2.27075898 4.19883862 2.27075898 8 2 C7.67 4.64 7.34 7.28 7 10 C5.35 9.67 3.7 9.34 2 9 C2 9.66 2 10.32 2 11 C-1.3 10.67 -4.6 10.34 -8 10 C-7.67 8.68 -7.34 7.36 -7 6 C-6.34 5.67 -5.68 5.34 -5 5 C-5.66 3.68 -6.32 2.36 -7 1 C-5.5459375 1.0309375 -5.5459375 1.0309375 -4.0625 1.0625 C-1.12534105 1.35618499 -1.12534105 1.35618499 0 0 Z " fill="#EBA154" transform="translate(26,41)"/>
<path d="M0 0 C1.37252731 2.74505463 1.13229255 5.00327412 1.125 8.0625 C1.12757812 9.14660156 1.13015625 10.23070312 1.1328125 11.34765625 C1 14 1 14 0 15 C-3.3125 15.375 -3.3125 15.375 -7 15 C-9.4375 12.5 -9.4375 12.5 -11 10 C-10.01 9.67 -9.02 9.34 -8 9 C-8 7.02 -8 5.04 -8 3 C-6.8553125 3.0928125 -6.8553125 3.0928125 -5.6875 3.1875 C-2.95474688 3.25898085 -2.95474688 3.25898085 -1.1875 1.5 C-0.795625 1.005 -0.40375 0.51 0 0 Z " fill="#A86958" transform="translate(37,19)"/>
<path d="M0 0 C6.6 0 13.2 0 20 0 C19.67 0.66 19.34 1.32 19 2 C15.37 2 11.74 2 8 2 C8 4.64 8 7.28 8 10 C5.36 10.33 2.72 10.66 0 11 C0 7.37 0 3.74 0 0 Z " fill="#AF8F66" transform="translate(0,0)"/>
<path d="M0 0 C0.60328125 0.19722656 1.2065625 0.39445312 1.828125 0.59765625 C1.79332031 1.28472656 1.75851562 1.97179688 1.72265625 2.6796875 C1.69558594 3.58074219 1.66851562 4.48179688 1.640625 5.41015625 C1.60582031 6.30347656 1.57101562 7.19679688 1.53515625 8.1171875 C1.88736481 11.09921995 2.73165748 11.58922936 4.828125 13.59765625 C4.828125 14.91765625 4.828125 16.23765625 4.828125 17.59765625 C4.168125 17.59765625 3.508125 17.59765625 2.828125 17.59765625 C2.828125 16.93765625 2.828125 16.27765625 2.828125 15.59765625 C1.735 15.53578125 0.641875 15.47390625 -0.484375 15.41015625 C-4.171875 14.59765625 -4.171875 14.59765625 -6.109375 12.41015625 C-7.35498929 9.11294195 -7.7657334 7.08657435 -7.171875 3.59765625 C-3.28860468 -0.60921993 -3.28860468 -0.60921993 0 0 Z " fill="#1B1722" transform="translate(12.171875,46.40234375)"/>
<path d="M0 0 C0.99 0.33 1.98 0.66 3 1 C2.01 1.66 1.02 2.32 0 3 C0.99 3.33 1.98 3.66 3 4 C3.99 5.485 3.99 5.485 5 7 C5.33 6.67 5.66 6.34 6 6 C5.34 5.34 4.68 4.68 4 4 C5.65 4 7.3 4 9 4 C8.67 4.99 8.34 5.98 8 7 C8.66 7.33 9.32 7.66 10 8 C9.34 9.32 8.68 10.64 8 12 C4.37 12 0.74 12 -3 12 C-3.75 8.8125 -3.75 8.8125 -4 5 C-2.0625 2.0625 -2.0625 2.0625 0 0 Z " fill="#DD8337" transform="translate(38,42)"/>
<path d="M0 0 C0.66 2.31 1.32 4.62 2 7 C0.35 8.32 -1.3 9.64 -3 11 C-3.33 9.68 -3.66 8.36 -4 7 C-5.32 6.67 -6.64 6.34 -8 6 C-7.01 5.34 -6.02 4.68 -5 4 C-7.46800047 5.15173355 -9.04783565 6.04783565 -11 8 C-11 6.68 -11 5.36 -11 4 C-12.65 4.33 -14.3 4.66 -16 5 C-16 4.34 -16 3.68 -16 3 C-16.99 2.67 -17.98 2.34 -19 2 C-18.34 1.34 -17.68 0.68 -17 0 C-16.34 0.66 -15.68 1.32 -15 2 C-8.67039514 1.18327679 -6.8472266 -1.12249616 0 0 Z " fill="#EC811A" transform="translate(45,39)"/>
<path d="M0 0 C2.48357998 2.48357998 2.73315176 4.59604047 3.11328125 8.0234375 C3 10 3 10 1.0625 12.5 C0.0415625 13.2425 0.0415625 13.2425 -1 14 C0.32 15.65 1.64 17.3 3 19 C2.34 19 1.68 19 1 19 C0.67 20.32 0.34 21.64 0 23 C-0.33 22.01 -0.66 21.02 -1 20 C-2.65 19.67 -4.3 19.34 -6 19 C-6 18.34 -6 17.68 -6 17 C-5.34 16.67 -4.68 16.34 -4 16 C-4.66 15.01 -5.32 14.02 -6 13 C-6.66 13.99 -7.32 14.98 -8 16 C-8 12.04 -8 8.08 -8 4 C-7.67 4 -7.34 4 -7 4 C-6.67 5.65 -6.34 7.3 -6 9 C-5.34 8.67 -4.68 8.34 -4 8 C-1.99199544 8.28112064 0.01014051 8.61067967 2 9 C2 8.34 2 7.68 2 7 C1.34 7 0.68 7 0 7 C0 4.69 0 2.38 0 0 Z " fill="#32272D" transform="translate(46,20)"/>
<path d="M0 0 C3.45201639 1.47721422 5.64961936 3.43794001 8.25 6.125 C8.95640625 6.84945312 9.6628125 7.57390625 10.390625 8.3203125 C11.18726563 9.15175781 11.18726563 9.15175781 12 10 C11.01 11.32 10.02 12.64 9 14 C6.95880212 12.38405168 4.95927063 10.7143618 3 9 C3 8.34 3 7.68 3 7 C0.69 7 -1.62 7 -4 7 C-4 4 -4 4 -2 1.8125 C-1.34 1.214375 -0.68 0.61625 0 0 Z " fill="#EA7812" transform="translate(49,29)"/>
<path d="M0 0 C2 1 2 1 3.1875 3.3125 C4.37681159 7.24637681 4.37681159 7.24637681 3 10 C1.10668717 11.92091214 -0.80551942 13.38772855 -3 15 C-3.66 15 -4.32 15 -5 15 C-5.76681614 7.33183857 -5.76681614 7.33183857 -3.88671875 4.06640625 C-2.5 2.4375 -2.5 2.4375 0 0 Z " fill="#B57B69" transform="translate(5,39)"/>
<path d="M0 0 C1.22147449 2.44294898 1.12430142 4.24418232 0.71875 6.9140625 C-0.76274939 11.21363137 -3.9443412 14.69719232 -7 18 C-7.33 18 -7.66 18 -8 18 C-8 14.04 -8 10.08 -8 6 C-7.34 6 -6.68 6 -6 6 C-6 4.68 -6 3.36 -6 2 C-5.34 2 -4.68 2 -4 2 C-4 2.66 -4 3.32 -4 4 C-3.01 4 -2.02 4 -1 4 C-0.67 2.68 -0.34 1.36 0 0 Z " fill="#3C3432" transform="translate(8,27)"/>
<path d="M0 0 C0.71542969 0.103125 1.43085938 0.20625 2.16796875 0.3125 C2.16796875 2.2925 2.16796875 4.2725 2.16796875 6.3125 C-1.29703125 7.7975 -1.29703125 7.7975 -4.83203125 9.3125 C-5.16203125 8.9825 -5.49203125 8.6525 -5.83203125 8.3125 C-6.10015625 8.951875 -6.36828125 9.59125 -6.64453125 10.25 C-7.83203125 12.3125 -7.83203125 12.3125 -10.83203125 13.3125 C-11.49203125 12.3225 -12.15203125 11.3325 -12.83203125 10.3125 C-11.28558477 8.63092713 -9.71922404 6.96765155 -8.14453125 5.3125 C-7.27441406 4.384375 -6.40429688 3.45625 -5.5078125 2.5 C-2.83203125 0.3125 -2.83203125 0.3125 0 0 Z " fill="#CB6110" transform="translate(17.83203125,27.6875)"/>
<path d="M0 0 C2.49361571 1.20381448 4.68143083 2.45428722 7 4 C7.1875 7.625 7.1875 7.625 7 11 C6.01 11.33 5.02 11.66 4 12 C2.79117904 14.00016466 2.79117904 14.00016466 2 16 C-0.83405655 13.16594345 -0.67620345 10.95031797 -1 7 C-0.7397104 4.65739357 -0.42579972 2.3182429 0 0 Z " fill="#121621" transform="translate(22,17)"/>
<path d="M0 0 C3.3 0 6.6 0 10 0 C9.01 3.63 8.02 7.26 7 11 C6.67 10.34 6.34 9.68 6 9 C4.02 9 2.04 9 0 9 C0 6.03 0 3.06 0 0 Z " fill="#61756E" transform="translate(9,3)"/>
<path d="M0 0 C1.31571603 0.2547514 2.62760376 0.52934141 3.9375 0.8125 C4.66839844 0.96332031 5.39929688 1.11414063 6.15234375 1.26953125 C6.76207031 1.51058594 7.37179688 1.75164063 8 2 C8.33 2.99 8.66 3.98 9 5 C8.34 5 7.68 5 7 5 C7 5.66 7 6.32 7 7 C5.68 7 4.36 7 3 7 C3 7.99 3 8.98 3 10 C1.35 10 -0.3 10 -2 10 C-3.4783226 7.04335481 -3.06032783 4.25770263 -3 1 C-2.01 1.495 -2.01 1.495 -1 2 C-0.67 1.34 -0.34 0.68 0 0 Z " fill="#201F28" transform="translate(25,3)"/>
<path d="M0 0 C0 2.97 0 5.94 0 9 C-2.375 9.625 -2.375 9.625 -5 10 C-5.66 9.34 -6.32 8.68 -7 8 C-7.33 8 -7.66 8 -8 8 C-8 5.69 -8 3.38 -8 1 C-5.29120665 -0.35439668 -2.99066732 -0.06501451 0 0 Z " fill="#E8BF83" transform="translate(8,10)"/>
<path d="M0 0 C2.01822917 0.06510417 4.03645833 0.13020833 6.0546875 0.1953125 C6.0546875 2.5053125 6.0546875 4.8153125 6.0546875 7.1953125 C2.7546875 7.1953125 -0.5453125 7.1953125 -3.9453125 7.1953125 C-3.9453125 0.39611571 -3.9453125 0.39611571 0 0 Z " fill="#607A77" transform="translate(53.9453125,5.8046875)"/>
<path d="M0 0 C0.33 0 0.66 0 1 0 C1 8.25 1 16.5 1 25 C-1.97 25 -4.94 25 -8 25 C-8.33 26.32 -8.66 27.64 -9 29 C-10.5 27.6875 -10.5 27.6875 -12 26 C-12 25.01 -12 24.02 -12 23 C-10.68 22.67 -9.36 22.34 -8 22 C-8 22.66 -8 23.32 -8 24 C-5.69 24 -3.38 24 -1 24 C-1.01160156 23.10539062 -1.02320313 22.21078125 -1.03515625 21.2890625 C-1.08867011 14.11820485 -0.91804983 7.11488616 0 0 Z " fill="#576A6D" transform="translate(62,3)"/>
<path d="M0 0 C2.31 0 4.62 0 7 0 C7 2.97 7 5.94 7 9 C4.03 9 1.06 9 -2 9 C-1.484375 8.071875 -0.96875 7.14375 -0.4375 6.1875 C1.40096246 3.07242053 1.40096246 3.07242053 0 0 Z " fill="#AF7F6C" transform="translate(57,55)"/>
<path d="M0 0 C1.32 0 2.64 0 4 0 C4 4.62 4 9.24 4 14 C3.01 13.34 2.02 12.68 1 12 C0.01 12.495 0.01 12.495 -1 13 C-0.7215625 12.0409375 -0.7215625 12.0409375 -0.4375 11.0625 C-0.293125 10.381875 -0.14875 9.70125 0 9 C-0.33 8.67 -0.66 8.34 -1 8 C-1.125 4.5 -1.125 4.5 -1 1 C-0.67 0.67 -0.34 0.34 0 0 Z " fill="#5E493A" transform="translate(60,30)"/>
<path d="M0 0 C2.31 0 4.62 0 7 0 C7.33 0.66 7.66 1.32 8 2 C6.41288961 5.65035389 4.646094 9.0087633 2 12 C1.34 12 0.68 12 0 12 C0 8.04 0 4.08 0 0 Z " fill="#C4DFDF" transform="translate(10,12)"/>
<path d="M0 0 C2.47362172 2.90381681 3.90554561 5.12737001 4 9 C2.0625 11.8125 2.0625 11.8125 0 14 C-0.99 13.67 -1.98 13.34 -3 13 C-3 9.04 -3 5.08 -3 1 C-2.67 1.66 -2.34 2.32 -2 3 C-1.34 3 -0.68 3 0 3 C0 2.01 0 1.02 0 0 Z " fill="#252E3C" transform="translate(55,50)"/>
<path d="M0 0 C5.94 0 11.88 0 18 0 C18 3.3 18 6.6 18 10 C17.34 10 16.68 10 16 10 C16 7.36 16 4.72 16 2 C10.72 2 5.44 2 0 2 C0 1.34 0 0.68 0 0 Z " fill="#354D52" transform="translate(44,3)"/>
<path d="M0 0 C0.99 0 1.98 0 3 0 C3.33 0.99 3.66 1.98 4 3 C3.01 3 2.02 3 1 3 C0.67 6.96 0.34 10.92 0 15 C-1.98 15.33 -3.96 15.66 -6 16 C-6.33 15.34 -6.66 14.68 -7 14 C-6.525625 13.566875 -6.05125 13.13375 -5.5625 12.6875 C-3.76313043 10.97690387 -3.76313043 10.97690387 -3 8 C-2.34 8 -1.68 8 -1 8 C-0.67 5.36 -0.34 2.72 0 0 Z " fill="#121621" transform="translate(20,13)"/>
<path d="M0 0 C0.66 0 1.32 0 2 0 C5 3.46153846 5 3.46153846 5 6 C4.01 6 3.02 6 2 6 C2 5.34 2 4.68 2 4 C1.34 4 0.68 4 0 4 C0.33 6.97 0.66 9.94 1 13 C-0.32 13.33 -1.64 13.66 -3 14 C-3.66 13.34 -4.32 12.68 -5 12 C-4.72285156 11.38511719 -4.44570313 10.77023438 -4.16015625 10.13671875 C-3.61681641 8.92435547 -3.61681641 8.92435547 -3.0625 7.6875 C-2.52302734 6.48673828 -2.52302734 6.48673828 -1.97265625 5.26171875 C-0.92153959 2.90510392 -0.92153959 2.90510392 0 0 Z " fill="#6B2F1B" transform="translate(25,29)"/>
<path d="M0 0 C1.5 1 1.5 1 3 3 C3.27345479 5.71846235 3.13491285 8.25677199 3 11 C2.01 10.34 1.02 9.68 0 9 C-0.99 9.495 -0.99 9.495 -2 10 C-8.47058824 10.35294118 -8.47058824 10.35294118 -12 8 C-11.22914062 7.96261719 -10.45828125 7.92523438 -9.6640625 7.88671875 C-8.15972656 7.78810547 -8.15972656 7.78810547 -6.625 7.6875 C-5.12839844 7.60048828 -5.12839844 7.60048828 -3.6015625 7.51171875 C-2.74304687 7.34285156 -1.88453125 7.17398438 -1 7 C-0.34 6.01 0.32 5.02 1 4 C0.01 3.67 -0.98 3.34 -2 3 C-1.34 2.01 -0.68 1.02 0 0 Z " fill="#AF4D14" transform="translate(47,46)"/>
<path d="M0 0 C2.62187494 1.04874998 3.79371361 1.64931313 5.25 4.125 C5.4975 4.74375 5.745 5.3625 6 6 C4.35 7.32 2.7 8.64 1 10 C0.67 8.68 0.34 7.36 0 6 C-1.32 5.67 -2.64 5.34 -4 5 C-3.01 4.34 -2.02 3.68 -1 3 C-0.67 2.01 -0.34 1.02 0 0 Z " fill="#F38C1D" transform="translate(41,40)"/>
<path d="M0 0 C1.98 0.66 3.96 1.32 6 2 C5.360625 2.433125 4.72125 2.86625 4.0625 3.3125 C1.73253997 4.91239177 1.73253997 4.91239177 1 8 C2.65 8 4.3 8 6 8 C6 8.33 6 8.66 6 9 C-0.75 9.125 -0.75 9.125 -3 8 C-2.45276317 4.62537285 -1.9451 2.91765 0 0 Z " fill="#E87E17" transform="translate(17,43)"/>
<path d="M0 0 C1.32 1.65 2.64 3.3 4 5 C3.01 5.33 2.02 5.66 1 6 C0.67 7.65 0.34 9.3 0 11 C-0.99 11 -1.98 11 -3 11 C-3 10.34 -3 9.68 -3 9 C-3.99 9 -4.98 9 -6 9 C-6 8.01 -6 7.02 -6 6 C-4.68 6 -3.36 6 -2 6 C-2 5.34 -2 4.68 -2 4 C-1.34 4 -0.68 4 0 4 C0 2.68 0 1.36 0 0 Z " fill="#B88A78" transform="translate(34,4)"/>
<path d="M0 0 C2.48357998 2.48357998 2.73315176 4.59604047 3.11328125 8.0234375 C3 10 3 10 1.0625 12.5 C0.381875 12.995 -0.29875 13.49 -1 14 C-1.99 13.67 -2.98 13.34 -4 13 C-4.33 11.35 -4.66 9.7 -5 8 C-2.69 8.33 -0.38 8.66 2 9 C2 8.34 2 7.68 2 7 C1.34 7 0.68 7 0 7 C0 4.69 0 2.38 0 0 Z " fill="#855440" transform="translate(46,20)"/>
<path d="M0 0 C5.28 0 10.56 0 16 0 C15.67 0.99 15.34 1.98 15 3 C4.44191344 3.3690205 4.44191344 3.3690205 0 1 C0 0.67 0 0.34 0 0 Z " fill="#735B57" transform="translate(21,0)"/>
<path d="M0 0 C1.57984913 2.01071707 2.94266986 3.88196736 4.0625 6.1875 C4.86702161 8.17892157 4.86702161 8.17892157 7 9 C7 9.99 7 10.98 7 12 C4.625 11.6875 4.625 11.6875 2 11 C-0.67927341 6.98108988 -0.15601248 4.75838077 0 0 Z " fill="#893826" transform="translate(13,49)"/>
<path d="M0 0 C-0.66 1.65 -1.32 3.3 -2 5 C-2.66 5 -3.32 5 -4 5 C-4.12375 5.804375 -4.2475 6.60875 -4.375 7.4375 C-4.58125 8.283125 -4.7875 9.12875 -5 10 C-5.99 10.495 -5.99 10.495 -7 11 C-7.62402869 2.73161984 -7.62402869 2.73161984 -5.1875 -0.125 C-3 -1 -3 -1 0 0 Z " fill="#7E2A0F" transform="translate(21,36)"/>
<path d="M0 0 C-5.41538462 4.06153846 -5.41538462 4.06153846 -8.375 3.75 C-8.91125 3.5025 -9.4475 3.255 -10 3 C-10 1.68 -10 0.36 -10 -1 C-5.92224809 -1.9267618 -3.57818963 -2.33958553 0 0 Z " fill="#973B10" transform="translate(39,38)"/>
<path d="M0 0 C0.99 0.33 1.98 0.66 3 1 C2.01 1.66 1.02 2.32 0 3 C0.99 3.33 1.98 3.66 3 4 C3.8125 5.9375 3.8125 5.9375 4 8 C3.34 8.66 2.68 9.32 2 10 C1.01 9.67 0.02 9.34 -1 9 C-0.34 9 0.32 9 1 9 C1 7.68 1 6.36 1 5 C-0.65 5.66 -2.3 6.32 -4 7 C-2.92598892 4.08482708 -2.22189824 2.22189824 0 0 Z " fill="#F5F2E2" transform="translate(38,42)"/>
<path d="M0 0 C0.33 0.66 0.66 1.32 1 2 C2.32 2 3.64 2 5 2 C5.33 3.65 5.66 5.3 6 7 C4.35 7.33 2.7 7.66 1 8 C-0.50559539 6.03617993 -1.89131683 4.21736634 -3 2 C-2.01 2 -1.02 2 0 2 C0 1.34 0 0.68 0 0 Z " fill="#9E3F0F" transform="translate(49,34)"/>
<path d="M0 0 C2.31 0 4.62 0 7 0 C6.34 2.64 5.68 5.28 5 8 C2.5 6.25 2.5 6.25 0 4 C0 2.68 0 1.36 0 0 Z " fill="#8F8F85" transform="translate(54,29)"/>
<path d="M0 0 C2 1 2 1 2.8515625 2.890625 C5.41509434 10.71069182 5.41509434 10.71069182 5 15 C4.71125 14.401875 4.4225 13.80375 4.125 13.1875 C2.95257974 10.80672208 2.95257974 10.80672208 1 8 C0.34 8 -0.32 8 -1 8 C-1.625 5.125 -1.625 5.125 -2 2 C-1.34 1.34 -0.68 0.68 0 0 Z " fill="#222531" transform="translate(45,14)"/>
<path d="M0 0 C0.99 0.33 1.98 0.66 3 1 C2.49287967 4.71888239 1.88391785 7.73454239 0 11 C-1.32 10.67 -2.64 10.34 -4 10 C-3.67 8.68 -3.34 7.36 -3 6 C-3 6.66 -3 7.32 -3 8 C-1.35444301 6.77190909 -1.35444301 6.77190909 0 5 C-0.3185177 2.89179203 -0.3185177 2.89179203 -1 1 C-0.67 0.67 -0.34 0.34 0 0 Z " fill="#271E26" transform="translate(20,33)"/>
<path d="M0 0 C1 3 1 3 -0.25 6.125 C-2 9 -2 9 -5 10 C-5.66 9.01 -6.32 8.02 -7 7 C-4.69 4.69 -2.38 2.38 0 0 Z " fill="#F07F13" transform="translate(12,31)"/>
<path d="M0 0 C1.32 0.33 2.64 0.66 4 1 C4 4.3 4 7.6 4 11 C1.29727467 8.12835434 0.05208163 6.69008159 -0.25 2.6875 C-0.1675 1.800625 -0.085 0.91375 0 0 Z " fill="#202937" transform="translate(5,50)"/>
<path d="M0 0 C0.66 0 1.32 0 2 0 C2.66 2.97 3.32 5.94 4 9 C3.34 9 2.68 9 2 9 C1.67 9.66 1.34 10.32 1 11 C0.01 8.03 -0.98 5.06 -2 2 C-1.34 1.34 -0.68 0.68 0 0 Z " fill="#91A5A9" transform="translate(48,13)"/>
<path d="M0 0 C3.3 0 6.6 0 10 0 C9.67 0.66 9.34 1.32 9 2 C6.69 2 4.38 2 2 2 C1.67 4.31 1.34 6.62 1 9 C0.67 9 0.34 9 0 9 C0 6.03 0 3.06 0 0 Z " fill="#4F5B56" transform="translate(9,3)"/>
<path d="M0 0 C3.23087421 0.55704728 5.02361137 1.33187535 7 4 C7 5.32 7 6.64 7 8 C6.34 8 5.68 8 5 8 C5 7.34 5 6.68 5 6 C3.35 5.67 1.7 5.34 0 5 C0 3.35 0 1.7 0 0 Z " fill="#16273A" transform="translate(10,56)"/>
<path d="M0 0 C1.32 0.33 2.64 0.66 4 1 C2.25 4.875 2.25 4.875 0 6 C-0.65555119 8.52733235 -0.65555119 8.52733235 -1 11 C-1.33 11 -1.66 11 -2 11 C-2.25 3.375 -2.25 3.375 0 0 Z " fill="#ECBB9B" transform="translate(2,42)"/>
<path d="M0 0 C2 2 2 2 2 6 C-0.64 6.33 -3.28 6.66 -6 7 C-6 6.34 -6 5.68 -6 5 C-4.04072937 3.2856382 -2.04119788 1.61594832 0 0 Z " fill="#CAA473" transform="translate(6,4)"/>
<path d="M0 0 C0.33 0.66 0.66 1.32 1 2 C1.99 1.67 2.98 1.34 4 1 C3.67 3.31 3.34 5.62 3 8 C2.01 8.33 1.02 8.66 0 9 C-0.84454356 5.62182575 -1.10844919 3.32534757 0 0 Z " fill="#778289" transform="translate(13,18)"/>
<path d="M0 0 C-0.66 0 -1.32 0 -2 0 C-2 0.66 -2 1.32 -2 2 C-4.70879335 3.35439668 -7.00933268 3.06501451 -10 3 C-10 2.01 -10 1.02 -10 0 C-6.33694766 -0.74926071 -3.57644848 -1.2380014 0 0 Z " fill="#792713" transform="translate(27,61)"/>
<path d="M0 0 C1.2065625 0.0309375 1.2065625 0.0309375 2.4375 0.0625 C1.04417426 3.42970387 -0.5414286 5.0484524 -3.5625 7.0625 C-3.60504356 5.06295254 -3.60330783 3.06208364 -3.5625 1.0625 C-2.5625 0.0625 -2.5625 0.0625 0 0 Z " fill="#D3B88C" transform="translate(11.5625,27.9375)"/>
<path d="M0 0 C2.97 1.98 2.97 1.98 6 4 C5.67 4.99 5.34 5.98 5 7 C3.125 6.8125 3.125 6.8125 1 6 C-0.25 3.4375 -0.25 3.4375 -1 1 C-0.67 0.67 -0.34 0.34 0 0 Z " fill="#98ADAE" transform="translate(56,48)"/>
<path d="M0 0 C0.66 0 1.32 0 2 0 C4.1519437 3.22791555 4.20086443 4.28400809 4 8 C2.0625 7.6875 2.0625 7.6875 0 7 C-1.04449911 3.86650268 -0.93423645 3.01031744 0 0 Z " fill="#772710" transform="translate(47,39)"/>
<path d="M0 0 C0.99 0.33 1.98 0.66 3 1 C-0.65333143 3.63379708 -3.48521602 5.46884894 -8 6 C-8 5.34 -8 4.68 -8 4 C-8.99 3.67 -9.98 3.34 -11 3 C-10.34 2.34 -9.68 1.68 -9 1 C-8.34 1.66 -7.68 2.32 -7 3 C-3.98694043 2.61121812 -2.60314689 1.73543126 0 0 Z " fill="#DF7418" transform="translate(37,38)"/>
<path d="M0 0 C0.66 0.33 1.32 0.66 2 1 C2 1.66 2 2.32 2 3 C3.65 2.67 5.3 2.34 7 2 C6.67 3.65 6.34 5.3 6 7 C5.67 6.34 5.34 5.68 5 5 C3.02 5 1.04 5 -1 5 C-0.67 3.35 -0.34 1.7 0 0 Z " fill="#D8B07C" transform="translate(1,17)"/>
<path d="M0 0 C3.3 0.33 6.6 0.66 10 1 C10 1.99 10 2.98 10 4 C6.6875 4.25 6.6875 4.25 3 4 C2.01 2.68 1.02 1.36 0 0 Z " fill="#792714" transform="translate(35,60)"/>
<path d="M0 0 C2.35302007 2.35302007 2.39392208 3.27435295 2.75 6.5 C2.84796875 7.2940625 2.9459375 8.088125 3.046875 8.90625 C3 11 3 11 1 13 C0.1276588 10.00519083 -0.10829766 7.36424089 -0.0625 4.25 C-0.05347656 3.45078125 -0.04445312 2.6515625 -0.03515625 1.828125 C-0.02355469 1.22484375 -0.01195312 0.6215625 0 0 Z " fill="#8C8E82" transform="translate(52,51)"/>
<path d="M0 0 C0.66 0.33 1.32 0.66 2 1 C0.515 7.435 0.515 7.435 -1 14 C-1.33 14 -1.66 14 -2 14 C-2.33 11.03 -2.66 8.06 -3 5 C-2.34 5 -1.68 5 -1 5 C-0.67 3.35 -0.34 1.7 0 0 Z " fill="#513E40" transform="translate(41,9)"/>
<path d="M0 0 C1.65 0 3.3 0 5 0 C5 1.65 5 3.3 5 5 C3.35 4.67 1.7 4.34 0 4 C0 4.66 0 5.32 0 6 C-0.66 6 -1.32 6 -2 6 C-1.67 5.01 -1.34 4.02 -1 3 C-0.34 2.67 0.32 2.34 1 2 C0.67 1.34 0.34 0.68 0 0 Z " fill="#F5F2E6" transform="translate(20,44)"/>
<path d="M0 0 C1.65 0 3.3 0 5 0 C4.67 0.99 4.34 1.98 4 3 C4.66 3.33 5.32 3.66 6 4 C6 4.66 6 5.32 6 6 C4.02 6 2.04 6 0 6 C0.66 4.68 1.32 3.36 2 2 C1.34 1.34 0.68 0.68 0 0 Z " fill="#EFE6D7" transform="translate(42,46)"/>
<path d="M0 0 C0.66 0.33 1.32 0.66 2 1 C2 1.66 2 2.32 2 3 C2.31478446 4.33783393 2.64587656 5.67203709 3 7 C1.02 7.33 -0.96 7.66 -3 8 C-3.33 7.34 -3.66 6.68 -4 6 C-3.525625 5.566875 -3.05125 5.13375 -2.5625 4.6875 C-0.76313043 2.97690387 -0.76313043 2.97690387 0 0 Z " fill="#1B1B25" transform="translate(17,21)"/>
<path d="M0 0 C1.32 0 2.64 0 4 0 C3.67 2.64 3.34 5.28 3 8 C2.34 8 1.68 8 1 8 C0.67 5.36 0.34 2.72 0 0 Z " fill="#E9E1CF" transform="translate(30,43)"/>
<path d="M0 0 C2 2 2 2 2.125 5.125 C2.08375 6.07375 2.0425 7.0225 2 8 C0.35 7.67 -1.3 7.34 -3 7 C-2.01 4.69 -1.02 2.38 0 0 Z " fill="#B95E13" transform="translate(23,35)"/>
<path d="M0 0 C-0.99 0.495 -0.99 0.495 -2 1 C-2.65213292 3.02463255 -2.65213292 3.02463255 -3 5 C-3.33 4.01 -3.66 3.02 -4 2 C-5.65 1.67 -7.3 1.34 -9 1 C-9 0.34 -9 -0.32 -9 -1 C-5.22102349 -2.0497157 -3.35080929 -2.10976881 0 0 Z " fill="#352121" transform="translate(49,38)"/>
<path d="M0 0 C0 0.99 0 1.98 0 3 C-2.64 3.33 -5.28 3.66 -8 4 C-8 3.01 -8 2.02 -8 1 C-5.07175348 0.02391783 -3.04386724 -0.08226668 0 0 Z " fill="#533839" transform="translate(32,7)"/>
<path d="M0 0 C1 2 2 4 3 6 C3.99 6 4.98 6 6 6 C6 6.99 6 7.98 6 9 C4.35 9 2.7 9 1 9 C-0.4783226 6.04335481 -0.06032783 3.25770263 0 0 Z " fill="#231419" transform="translate(22,4)"/>
<path d="M0 0 C4.75 1.875 4.75 1.875 7 3 C7 4.32 7 5.64 7 7 C6.34 7 5.68 7 5 7 C3.10090078 5.10090078 1.55180586 3.18663553 0 1 C0 0.67 0 0.34 0 0 Z " fill="#101720" transform="translate(48,46)"/>
<path d="M0 0 C0.66 0 1.32 0 2 0 C1.67 1.65 1.34 3.3 1 5 C2.32 5.33 3.64 5.66 5 6 C2.69 6.33 0.38 6.66 -2 7 C-2 6.01 -2 5.02 -2 4 C-1.34 4 -0.68 4 0 4 C0 2.68 0 1.36 0 0 Z " fill="#997657" transform="translate(2,29)"/>
<path d="M0 0 C0.33 0 0.66 0 1 0 C1 2.31 1 4.62 1 7 C2.65 7.33 4.3 7.66 6 8 C6 8.66 6 9.32 6 10 C4.68 10 3.36 10 2 10 C2 9.34 2 8.68 2 8 C1.34 8 0.68 8 0 8 C0 5.36 0 2.72 0 0 Z " fill="#585E5E" transform="translate(9,54)"/>
<path d="M0 0 C0.99 0.33 1.98 0.66 3 1 C2.6875 2.875 2.6875 2.875 2 5 C1.01 5.66 0.02 6.32 -1 7 C-1.04254356 5.00045254 -1.04080783 2.99958364 -1 1 C-0.67 0.67 -0.34 0.34 0 0 Z " fill="#6A513D" transform="translate(60,30)"/>
<path d="M0 0 C1.98 0 3.96 0 6 0 C6.33 0.99 6.66 1.98 7 3 C4.69 3 2.38 3 0 3 C0 2.01 0 1.02 0 0 Z " fill="#FAE06F" transform="translate(0,22)"/>
<path d="M0 0 C0.66 0.33 1.32 0.66 2 1 C2 2.65 2 4.3 2 6 C0.35 5.67 -1.3 5.34 -3 5 C-2.625 3.0625 -2.625 3.0625 -2 1 C-1.34 0.67 -0.68 0.34 0 0 Z " fill="#C47B65" transform="translate(37,11)"/>
<path d="M0 0 C0.433125 0.61875 0.86625 1.2375 1.3125 1.875 C2.99740483 4.2197245 2.99740483 4.2197245 6 6 C4.68 7.32 3.36 8.64 2 10 C0.68373308 6.38026598 0 3.90432869 0 0 Z " fill="#1A1C25" transform="translate(41,5)"/>
<path d="M0 0 C0.99 0.33 1.98 0.66 3 1 C2.34 2.65 1.68 4.3 1 6 C0.34 6 -0.32 6 -1 6 C-1.625 4.125 -1.625 4.125 -2 2 C-1.34 1.34 -0.68 0.68 0 0 Z " fill="#6A3A2A" transform="translate(18,35)"/>
<path d="M0 0 C0.66 0 1.32 0 2 0 C2 2.31 2 4.62 2 7 C1.01 7 0.02 7 -1 7 C-0.67 4.69 -0.34 2.38 0 0 Z " fill="#0F1C2D" transform="translate(27,21)"/>
<path d="M0 0 C1.65 0 3.3 0 5 0 C4.67 1.32 4.34 2.64 4 4 C2.68 3.67 1.36 3.34 0 3 C0 2.01 0 1.02 0 0 Z " fill="#F9D490" transform="translate(3,14)"/>
<path d="M0 0 C2.31 0 4.62 0 7 0 C6.67 1.65 6.34 3.3 6 5 C5.01 4.34 4.02 3.68 3 3 C2.34 3 1.68 3 1 3 C0.67 2.01 0.34 1.02 0 0 Z " fill="#31181B" transform="translate(34,9)"/>
<path d="M0 0 C1.98 0.66 3.96 1.32 6 2 C5.34 3.65 4.68 5.3 4 7 C2.35 5.35 0.7 3.7 -1 2 C-0.67 1.34 -0.34 0.68 0 0 Z " fill="#312B32" transform="translate(20,0)"/>
<path d="M0 0 C2 2 2 2 2 6 C0.68 6 -0.64 6 -2 6 C-2 4.35 -2 2.7 -2 1 C-1.34 0.67 -0.68 0.34 0 0 Z " fill="#38414A" transform="translate(51,58)"/>
<path d="M0 0 C1.65 0.33 3.3 0.66 5 1 C5 1.99 5 2.98 5 4 C2.69 3.67 0.38 3.34 -2 3 C-1.34 2.67 -0.68 2.34 0 2 C0 1.34 0 0.68 0 0 Z " fill="#ECBE8F" transform="translate(20,48)"/>
<path d="M0 0 C0.99 0 1.98 0 3 0 C3 1.98 3 3.96 3 6 C1.68 5.01 0.36 4.02 -1 3 C-0.67 2.01 -0.34 1.02 0 0 Z " fill="#F2C6A5" transform="translate(61,44)"/>
<path d="M0 0 C1.32 0 2.64 0 4 0 C3.67 1.65 3.34 3.3 3 5 C2.01 5 1.02 5 0 5 C0 3.35 0 1.7 0 0 Z " fill="#F4DA94" transform="translate(4,26)"/>
</svg>
