<?xml version="1.0" encoding="UTF-8"?>
<svg version="1.1" xmlns="http://www.w3.org/2000/svg" width="64" height="64">
<path d="M0 0 C4.75443996 2.60148602 8.57334904 6.33415548 12.27734375 10.24609375 C13.03273437 11.02210937 13.788125 11.798125 14.56640625 12.59765625 C17.7347664 17.50210415 16.33336204 22.76830743 15.2109375 28.19335938 C15.06785156 28.85013672 14.92476562 29.50691406 14.77734375 30.18359375 C14.63425781 30.86744141 14.49117187 31.55128906 14.34375 32.25585938 C13.99450604 33.92058889 13.63681429 35.5835425 13.27734375 37.24609375 C14.06625 37.54902344 14.85515625 37.85195313 15.66796875 38.1640625 C18.31488629 39.26166154 19.58667819 39.96369524 21.27734375 42.24609375 C22.71208983 46.43076981 22.80426745 51.07541073 21.27734375 55.24609375 C16.56100763 59.15964925 12.34460699 59.75160098 6.31640625 60.0703125 C4.28370956 60.02514073 4.28370956 60.02514073 3.27734375 61.24609375 C1.86509329 61.33896635 0.44825441 61.36356147 -0.96704102 61.35961914 C-1.86789932 61.35954361 -2.76875763 61.35946808 -3.69691467 61.35939026 C-4.67607346 61.35422897 -5.65523224 61.34906769 -6.6640625 61.34375 C-7.66146957 61.34233505 -8.65887665 61.3409201 -9.68650818 61.33946228 C-12.88608749 61.33384489 -16.08559794 61.32128946 -19.28515625 61.30859375 C-21.4485667 61.30358099 -23.61197824 61.2990177 -25.77539062 61.29492188 C-31.0911695 61.28386982 -36.40690796 61.26711479 -41.72265625 61.24609375 C-41.82426914 54.66256934 -41.89421095 48.07924798 -41.94238281 41.49511719 C-41.96246941 39.25643354 -41.98974405 37.01780217 -42.02441406 34.77929688 C-42.07306089 31.55716026 -42.09565499 28.33571874 -42.11328125 25.11328125 C-42.13392639 24.11618134 -42.15457153 23.11908142 -42.17584229 22.09176636 C-42.17820509 14.73628253 -40.34482735 11.23245528 -35.47265625 5.68359375 C-34.56515625 4.87921875 -33.65765625 4.07484375 -32.72265625 3.24609375 C-32.22765625 2.776875 -31.73265625 2.30765625 -31.22265625 1.82421875 C-23.40565339 -4.38750674 -9.06341044 -3.23803894 0 0 Z " fill="#312F44" transform="translate(41.72265625,2.75390625)"/>
<path d="M0 0 C6.0546875 -0.1953125 6.0546875 -0.1953125 8 0 C8.66 0.66 9.32 1.32 10 2 C9.67 2.99 9.34 3.98 9 5 C7.68 5 6.36 5 5 5 C5 5.66 5 6.32 5 7 C8.3 7 11.6 7 15 7 C15.33218192 3.99740483 15.33218192 3.99740483 13.5 2.3125 C13.005 1.879375 12.51 1.44625 12 1 C15.465 0.505 15.465 0.505 19 0 C22 4.75 22 4.75 22 7 C23.32 7 24.64 7 26 7 C26 6.34 26 5.68 26 5 C25.34 5 24.68 5 24 5 C24 4.34 24 3.68 24 3 C24.99 3.33 25.98 3.66 27 4 C27.375 6.1875 27.375 6.1875 27 9 C25.16038352 10.99022836 23.20813852 12.38989899 21 14 C21.54140625 14.70576172 21.54140625 14.70576172 22.09375 15.42578125 C22.5578125 16.04839844 23.021875 16.67101562 23.5 17.3125 C23.9640625 17.92738281 24.428125 18.54226562 24.90625 19.17578125 C26 21 26 21 26 24 C26.763125 24.268125 27.52625 24.53625 28.3125 24.8125 C30.95915172 25.98195076 32.29555616 26.69900082 34 29 C35.43544455 33.18671327 35.52458393 37.82699599 34 42 C28.56454152 46.62592211 23.95470974 46.38107999 17 46 C16.01 41.05 16.01 41.05 15 36 C14.34 36 13.68 36 13 36 C12.67 35.34 12.34 34.68 12 34 C11.01 34.495 11.01 34.495 10 35 C5.04579054 35.74665641 1.16506166 35.52533746 -3.0546875 32.69921875 C-4.34498257 31.71707342 -5.61853986 30.71257499 -6.875 29.6875 C-7.5246875 29.18798828 -8.174375 28.68847656 -8.84375 28.17382812 C-16.59230006 22.15514984 -16.59230006 22.15514984 -18.125 17.8125 C-17.96531345 12.9420602 -16.49065072 11.23332852 -13.19140625 7.80078125 C-9.7989263 5.01302143 -6.12622942 3.42219245 -2 2 C-2.66 3.32 -3.32 4.64 -4 6 C-3.34 6.33 -2.68 6.66 -2 7 C-1.34 4.69 -0.68 2.38 0 0 Z " fill="#AE7FEB" transform="translate(29,16)"/>
<path d="M0 0 C4.48827876 -0.3960246 7.07753141 0.91358054 11 3 C14.88411872 4.27067457 18.94908505 4.44911682 23 4.75 C24.06734375 4.85248047 24.06734375 4.85248047 25.15625 4.95703125 C28.51421379 5.2013607 30.56369652 5.25905519 33.5 3.515625 C33.995 3.01546875 34.49 2.5153125 35 2 C35.061875 2.61875 35.12375 3.2375 35.1875 3.875 C35.80875315 6.2501999 35.80875315 6.2501999 38.375 7.0625 C39.674375 7.5265625 39.674375 7.5265625 41 8 C43.1476793 9.61075948 43.87754537 10.64284065 44.75 13.1875 C45.08677284 16.97619444 45.32344161 20.37755125 44 24 C38.56454152 28.62592211 33.95470974 28.38107999 27 28 C26.34 24.7 25.68 21.4 25 18 C24.34 18 23.68 18 23 18 C23 16.68 23 15.36 23 14 C23.66 14 24.32 14 25 14 C25 13.34 25 12.68 25 12 C24.20335938 12.02320313 23.40671875 12.04640625 22.5859375 12.0703125 C9.59055527 12.29164504 9.59055527 12.29164504 5.375 8.5625 C4.92125 8.046875 4.4675 7.53125 4 7 C3.278125 6.525625 2.55625 6.05125 1.8125 5.5625 C1.214375 5.046875 0.61625 4.53125 0 4 C0 2.68 0 1.36 0 0 Z " fill="#AD84E9" transform="translate(19,34)"/>
<path d="M0 0 C0.33 0.66 0.66 1.32 1 2 C3.01669827 3.13350534 3.01669827 3.13350534 5 4 C4.67 4.99 4.34 5.98 4 7 C5.32 6.67 6.64 6.34 8 6 C8.33 7.65 8.66 9.3 9 11 C9.66 11 10.32 11 11 11 C11.33 11.99 11.66 12.98 12 14 C11.505 14.556875 11.01 15.11375 10.5 15.6875 C8.18492856 19.25656846 9.24761716 21.89609359 10 26 C9.34 26 8.68 26 8 26 C7.26919734 27.97746603 6.60578253 29.98072489 6 32 C6.33 32.66 6.66 33.32 7 34 C0.375 35.25 0.375 35.25 -3 33 C-3.38818359 30.28198242 -3.38818359 30.28198242 -3.3984375 26.85546875 C-3.40230469 25.62119141 -3.40617188 24.38691406 -3.41015625 23.11523438 C-3.39855469 21.81908203 -3.38695312 20.52292969 -3.375 19.1875 C-3.38660156 17.90294922 -3.39820313 16.61839844 -3.41015625 15.29492188 C-3.40628906 14.05677734 -3.40242187 12.81863281 -3.3984375 11.54296875 C-3.39505371 10.40883545 -3.39166992 9.27470215 -3.38818359 8.10620117 C-2.96228376 4.6981989 -1.96292831 2.78260195 0 0 Z " fill="#302D43" transform="translate(3,12)"/>
<path d="M0 0 C6.875 3.875 6.875 3.875 8 5 C9.4346959 5.09894455 10.87440397 5.12970735 12.3125 5.125 C13.09238281 5.12757812 13.87226562 5.13015625 14.67578125 5.1328125 C16.91251539 5.00499912 18.85266979 4.61913869 21 4 C20.67 4.99 20.34 5.98 20 7 C20.66 7 21.32 7 22 7 C24.32488647 10.63263511 24.23961213 13.76685233 24 18 C23 19 23 19 19.18359375 19.09765625 C17.60153318 19.09098089 16.01948841 19.07901875 14.4375 19.0625 C13.63119141 19.05798828 12.82488281 19.05347656 11.99414062 19.04882812 C9.99606244 19.03700518 7.99802217 19.01906914 6 19 C6.66 18.34 7.32 17.68 8 17 C6.68 16.67 5.36 16.34 4 16 C4.33 13.69 4.66 11.38 5 9 C3.66195313 9.23396484 3.66195313 9.23396484 2.296875 9.47265625 C1.12640625 9.66730469 -0.0440625 9.86195312 -1.25 10.0625 C-2.41015625 10.25972656 -3.5703125 10.45695312 -4.765625 10.66015625 C-7.62522624 10.9606216 -9.33325929 10.9439206 -12 10 C-12 9.01 -12 8.02 -12 7 C-9.03 7.33 -6.06 7.66 -3 8 C-3 7.01 -3 6.02 -3 5 C-2.67 4.01 -2.34 3.02 -2 2 C-1.34 2 -0.68 2 0 2 C0 1.34 0 0.68 0 0 Z " fill="#312F48" transform="translate(22,45)"/>
<path d="M0 0 C1.32 0.33 2.64 0.66 4 1 C4 1.66 4 2.32 4 3 C5.98 3 7.96 3 10 3 C9.1875 5.4375 9.1875 5.4375 8 8 C7.01 8.33 6.02 8.66 5 9 C4.34 8.67 3.68 8.34 3 8 C3 8.66 3 9.32 3 10 C4.32 10.33 5.64 10.66 7 11 C7.625 12.8125 7.625 12.8125 8 15 C7.01 16.485 7.01 16.485 6 18 C5.01 17.67 4.02 17.34 3 17 C3.33 16.34 3.66 15.68 4 15 C3.45730469 15.27714844 2.91460938 15.55429687 2.35546875 15.83984375 C1.64003906 16.20207031 0.92460937 16.56429688 0.1875 16.9375 C-0.52019531 17.29714844 -1.22789063 17.65679688 -1.95703125 18.02734375 C-4 19 -4 19 -7 20 C-7 19.34 -7 18.68 -7 18 C-8.32 17.67 -9.64 17.34 -11 17 C-11 16.01 -11 15.02 -11 14 C-11.99 14 -12.98 14 -14 14 C-14 13.01 -14 12.02 -14 11 C-15.32 10.34 -16.64 9.68 -18 9 C-15.94766315 6.7522025 -14.99332739 5.9977758 -12 5 C-11.67 4.34 -11.34 3.68 -11 3 C-8.69 3.66 -6.38 4.32 -4 5 C-2.68 3.35 -1.36 1.7 0 0 Z " fill="#3B3A61" transform="translate(21,5)"/>
<path d="M0 0 C3.15330554 0.60694155 5.18888867 1.6416665 7.75 3.5625 C8.67039062 4.24505859 8.67039062 4.24505859 9.609375 4.94140625 C10.06828125 5.29074219 10.5271875 5.64007813 11 6 C10.835 7.093125 10.67 8.18625 10.5 9.3125 C9.93281816 12.87525873 9.93281816 12.87525873 10 16 C6.08387715 15.59488384 2.66139305 15.22946289 -1.0625 13.9375 C-4.49201608 12.84297359 -7.4220224 12.8568809 -11 13 C-11 11.02 -11 9.04 -11 7 C-10.443125 7.185625 -9.88625 7.37125 -9.3125 7.5625 C-6.600867 8.07551165 -4.65628961 7.6640724 -2 7 C-2 5.68 -2 4.36 -2 3 C-1.34 2.01 -0.68 1.02 0 0 Z " fill="#322F4B" transform="translate(11,38)"/>
<path d="M0 0 C4.48827876 -0.3960246 7.07753141 0.91358054 11 3 C14.81026963 4.26133064 18.77279628 4.33319052 22.75 4.5625 C23.44738281 4.60568359 24.14476563 4.64886719 24.86328125 4.69335938 C26.57531922 4.79889596 28.28763561 4.8998991 30 5 C28.48046875 7.4609375 28.48046875 7.4609375 26 10 C23.18640076 10.52274521 21.11023803 10.71761881 18.3125 10.625 C17.60150146 10.61170654 16.89050293 10.59841309 16.15795898 10.5847168 C10.48334975 10.32927855 5.06851672 9.27986824 1 5 C0.27734375 2.32421875 0.27734375 2.32421875 0 0 Z " fill="#52C4F7" transform="translate(19,34)"/>
<path d="M0 0 C6.875 3.875 6.875 3.875 8 5 C9.4346959 5.09894455 10.87440397 5.12970735 12.3125 5.125 C13.09238281 5.12757812 13.87226562 5.13015625 14.67578125 5.1328125 C16.91251539 5.00499912 18.85266979 4.61913869 21 4 C18.68452895 8.75280899 18.68452895 8.75280899 15.75 9.8125 C12.49072677 10.03472317 9.26572028 10.06403373 6 10 C5.67 11.98 5.34 13.96 5 16 C3.95550089 12.86650268 4.06576355 12.01031744 5 9 C3.66195313 9.23396484 3.66195313 9.23396484 2.296875 9.47265625 C1.12640625 9.66730469 -0.0440625 9.86195312 -1.25 10.0625 C-2.41015625 10.25972656 -3.5703125 10.45695312 -4.765625 10.66015625 C-7.62522624 10.9606216 -9.33325929 10.9439206 -12 10 C-12 9.01 -12 8.02 -12 7 C-9.03 7.33 -6.06 7.66 -3 8 C-3 7.01 -3 6.02 -3 5 C-2.67 4.01 -2.34 3.02 -2 2 C-1.34 2 -0.68 2 0 2 C0 1.34 0 0.68 0 0 Z " fill="#302C3D" transform="translate(22,45)"/>
<path d="M0 0 C6.0546875 -0.1953125 6.0546875 -0.1953125 8 0 C8.66 0.66 9.32 1.32 10 2 C9.67 2.99 9.34 3.98 9 5 C7.68 5 6.36 5 5 5 C5 5.66 5 6.32 5 7 C8.3 7 11.6 7 15 7 C15.33218192 3.99740483 15.33218192 3.99740483 13.5 2.3125 C13.005 1.879375 12.51 1.44625 12 1 C15.465 0.505 15.465 0.505 19 0 C22 4.75 22 4.75 22 7 C23.32 7 24.64 7 26 7 C26 6.34 26 5.68 26 5 C25.34 5 24.68 5 24 5 C24 4.34 24 3.68 24 3 C24.99 3.33 25.98 3.66 27 4 C27 5.32 27 6.64 27 8 C21.66666667 8 16.33333333 8 11 8 C10.67 8.66 10.34 9.32 10 10 C10 9.34 10 8.68 10 8 C9.38511719 8.01160156 8.77023438 8.02320313 8.13671875 8.03515625 C7.32847656 8.04417969 6.52023438 8.05320312 5.6875 8.0625 C4.48673828 8.07990234 4.48673828 8.07990234 3.26171875 8.09765625 C1 8 1 8 -2 7 C-1.34 4.69 -0.68 2.38 0 0 Z " fill="#EAE4F2" transform="translate(29,16)"/>
<path d="M0 0 C0.49242187 0.3196875 0.98484375 0.639375 1.4921875 0.96875 C0.61175781 1.00613281 -0.26867188 1.04351562 -1.17578125 1.08203125 C-2.33722656 1.14777344 -3.49867187 1.21351562 -4.6953125 1.28125 C-5.84386719 1.33925781 -6.99242188 1.39726563 -8.17578125 1.45703125 C-12.69840235 2.15159557 -15.4097412 3.64349153 -18.3203125 7.15625 C-18.7121875 7.754375 -19.1040625 8.3525 -19.5078125 8.96875 C-21.8178125 7.97875 -24.1278125 6.98875 -26.5078125 5.96875 C-26.8378125 6.95875 -27.1678125 7.94875 -27.5078125 8.96875 C-29.1578125 9.29875 -30.8078125 9.62875 -32.5078125 9.96875 C-26.4222587 -1.26464648 -11.69696398 -4.8099665 0 0 Z " fill="#2F2E43" transform="translate(36.5078125,2.03125)"/>
<path d="M0 0 C1.32 0.66 2.64 1.32 4 2 C4 1.34 4 0.68 4 0 C5.32 0.33 6.64 0.66 8 1 C8 1.66 8 2.32 8 3 C9.32 3.33 10.64 3.66 12 4 C12.625 5.8125 12.625 5.8125 13 8 C12.01 9.485 12.01 9.485 11 11 C10.01 10.67 9.02 10.34 8 10 C8.33 9.34 8.66 8.68 9 8 C8.44570313 8.27714844 7.89140625 8.55429687 7.3203125 8.83984375 C4.546875 10.2265625 1.7734375 11.61328125 -1 13 C-1.38063221 10.6739143 -1.71269945 8.33944736 -2 6 C-1.67 5.67 -1.34 5.34 -1 5 C-0.63557767 3.33985384 -0.30027117 1.67293936 0 0 Z " fill="#33324E" transform="translate(16,12)"/>
<path d="M0 0 C0.66 0.66 1.32 1.32 2 2 C3.64991582 2.70710678 5.31562256 3.37943989 7 4 C6.67 4.99 6.34 5.98 6 7 C4.35 7 2.7 7 1 7 C1 7.66 1 8.32 1 9 C0.22914062 8.9278125 -0.54171875 8.855625 -1.3359375 8.78125 C-2.33882812 8.6884375 -3.34171875 8.595625 -4.375 8.5 C-5.37273438 8.4071875 -6.37046875 8.314375 -7.3984375 8.21875 C-9.89703736 7.97207053 -9.89703736 7.97207053 -12 8 C-12 6.02 -12 4.04 -12 2 C-11.46375 2.185625 -10.9275 2.37125 -10.375 2.5625 C-7.32909573 3.12358763 -4.99898401 2.71714835 -2 2 C-1.34 1.34 -0.68 0.68 0 0 Z " fill="#38375D" transform="translate(12,43)"/>
<path d="M0 0 C0.66 0 1.32 0 2 0 C4.32488647 3.63263511 4.23961213 6.76685233 4 11 C3 12 3 12 0.1875 12.3125 C-3 12 -3 12 -5.375 10 C-5.91125 9.34 -6.4475 8.68 -7 8 C-6.34 8 -5.68 8 -5 8 C-4.67 7.01 -4.34 6.02 -4 5 C-3.34 5.33 -2.68 5.66 -2 6 C-1.34 4.02 -0.68 2.04 0 0 Z " fill="#2F2C3A" transform="translate(42,52)"/>
<path d="M0 0 C6 6 6 6 6.25 8.8125 C6.20356246 14.36178662 4.46532877 19.68818322 3 25 C0.37330171 22.4587228 -1.55140574 20.38005327 -3 17 C-1.5459375 16.195625 -1.5459375 16.195625 -0.0625 15.375 C3.17521223 13.27521989 3.17521223 13.27521989 4.1875 10.0625 C4.29230743 6.76302336 4.29230743 6.76302336 1.5625 4.125 C0.716875 3.42375 -0.12875 2.7225 -1 2 C-0.67 1.34 -0.34 0.68 0 0 Z " fill="#040404" transform="translate(52,12)"/>
<path d="M0 0 C2.39073445 3.82517513 2.55966552 7.59665524 3 12 C3.66 12 4.32 12 5 12 C4.34 13.65 3.68 15.3 3 17 C1.02 16.34 -0.96 15.68 -3 15 C-3.55353075 4.44191344 -3.55353075 4.44191344 0 0 Z " fill="#161928" transform="translate(3,12)"/>
<path d="M0 0 C0.66 1.32 1.32 2.64 2 4 C1.34 4 0.68 4 0 4 C-0.73080266 5.97746603 -1.39421747 7.98072489 -2 10 C-1.67 10.66 -1.34 11.32 -1 12 C-7.625 13.25 -7.625 13.25 -11 11 C-11.1875 7.875 -11.1875 7.875 -11 5 C-10.01 5.495 -10.01 5.495 -9 6 C-9 6.99 -9 7.98 -9 9 C-8.01 9 -7.02 9 -6 9 C-6 6.36 -6 3.72 -6 1 C-4.68 1.66 -3.36 2.32 -2 3 C-1.34 2.01 -0.68 1.02 0 0 Z " fill="#2A2936" transform="translate(11,34)"/>
<path d="M0 0 C0.66 0 1.32 0 2 0 C2.33 0.66 2.66 1.32 3 2 C3.66 2 4.32 2 5 2 C5.33 6.29 5.66 10.58 6 15 C5.01 15.495 5.01 15.495 4 16 C1.39409715 14.69704858 1.03809045 13.7008725 0 11 C-0.1953125 8.203125 -0.1953125 8.203125 -0.125 5.25 C-0.09792969 3.77273437 -0.09792969 3.77273437 -0.0703125 2.265625 C-0.04710937 1.51796875 -0.02390625 0.7703125 0 0 Z " fill="#272C4C" transform="translate(0,28)"/>
<path d="M0 0 C3.63 0 7.26 0 11 0 C11.33 0.99 11.66 1.98 12 3 C13.62332967 4.38576923 15.28724465 5.72641268 17 7 C13.16774573 7.08912219 9.73437848 6.87867729 6 6 C6 6.66 6 7.32 6 8 C5.34 8 4.68 8 4 8 C4 6.02 4 4.04 4 2 C2.68 1.34 1.36 0.68 0 0 Z " fill="#35334D" transform="translate(10,56)"/>
<path d="M0 0 C2.64 0 5.28 0 8 0 C7.01 0.66 6.02 1.32 5 2 C6.32 2.66 7.64 3.32 9 4 C8.34 4 7.68 4 7 4 C7 4.99 7 5.98 7 7 C3.7 7 0.4 7 -3 7 C-3.66 5.68 -4.32 4.36 -5 3 C-2.03 3.495 -2.03 3.495 1 4 C0.67 2.68 0.34 1.36 0 0 Z " fill="#956EC5" transform="translate(37,16)"/>
<path d="M0 0 C0.66 0.33 1.32 0.66 2 1 C0.46355802 3.50682639 -0.41388235 4.80462745 -3.25 5.75 C-6.5132228 6.04665662 -9.72520212 6.06421172 -13 6 C-13.33 7.98 -13.66 9.96 -14 12 C-15.04449911 8.86650268 -14.93423645 8.01031744 -14 5 C-14.99 4.67 -15.98 4.34 -17 4 C-14.69 4.33 -12.38 4.66 -10 5 C-10.33 4.01 -10.66 3.02 -11 2 C-10.06027344 1.90912109 -10.06027344 1.90912109 -9.1015625 1.81640625 C-8.28429688 1.73261719 -7.46703125 1.64882813 -6.625 1.5625 C-5.81289063 1.48128906 -5.00078125 1.40007813 -4.1640625 1.31640625 C-1.95727195 1.10909886 -1.95727195 1.10909886 0 0 Z " fill="#121723" transform="translate(41,49)"/>
<path d="M0 0 C0.33 0.66 0.66 1.32 1 2 C3.02463255 2.65213292 3.02463255 2.65213292 5 3 C5.625 4.8125 5.625 4.8125 6 7 C5.01 8.485 5.01 8.485 4 10 C3.01 9.67 2.02 9.34 1 9 C1.33 8.34 1.66 7.68 2 7 C0.35 7.33 -1.3 7.66 -3 8 C-3.33 7.34 -3.66 6.68 -4 6 C-1.68421053 1.68421053 -1.68421053 1.68421053 0 0 Z " fill="#3F3452" transform="translate(23,13)"/>
<path d="M0 0 C0 1.32 0 2.64 0 4 C0.99 4.33 1.98 4.66 3 5 C-1.00941413 8.07388417 -3.04110792 9.1276781 -8.125 9.0625 C-9.03507812 9.05347656 -9.94515625 9.04445313 -10.8828125 9.03515625 C-11.58148438 9.02355469 -12.28015625 9.01195312 -13 9 C-9.52452927 7.05433049 -7.87493656 6.92362873 -4 8 C-4 6.02 -4 4.04 -4 2 C-4.66 1.67 -5.32 1.34 -6 1 C-3 0 -3 0 0 0 Z " fill="#D3BBF1" transform="translate(59,53)"/>
<path d="M0 0 C0.77601562 0.00773438 1.55203125 0.01546875 2.3515625 0.0234375 C3.11984375 0.01570312 3.888125 0.00796875 4.6796875 0 C11.63822736 0.02407799 11.63822736 0.02407799 14.9765625 2.2734375 C14.09613281 2.32242187 13.21570313 2.37140625 12.30859375 2.421875 C10.56642578 2.53402344 10.56642578 2.53402344 8.7890625 2.6484375 C7.64050781 2.71804688 6.49195313 2.78765625 5.30859375 2.859375 C2.17697133 3.24853324 -0.17629559 3.9544226 -3.0234375 5.2734375 C-3.0234375 4.6134375 -3.0234375 3.9534375 -3.0234375 3.2734375 C-4.6734375 2.9434375 -6.3234375 2.6134375 -8.0234375 2.2734375 C-5.41434161 -0.33565839 -3.55617434 0.01234783 0 0 Z " fill="#151921" transform="translate(23.0234375,0.7265625)"/>
<path d="M0 0 C0 0.99 0 1.98 0 3 C-0.66 3.66 -1.32 4.32 -2 5 C-2.21703776 10.26058181 -1.16027074 14.74050465 2 19 C-0.88461151 17.70689829 -3.12852073 16.58442376 -5 14 C-6.0625 10.75 -6.0625 10.75 -6 7 C-4.3048528 4.33841218 -2.27849827 2.17282878 0 0 Z " fill="#8B58C7" transform="translate(17,23)"/>
<path d="M0 0 C-1.546875 1.984375 -1.546875 1.984375 -4 4 C-7.453125 4.390625 -7.453125 4.390625 -11.25 4.25 C-12.51328125 4.21390625 -13.7765625 4.1778125 -15.078125 4.140625 C-16.52445313 4.07101563 -16.52445313 4.07101563 -18 4 C-14.81237635 1.87491756 -12.73487777 1.4979837 -9 1 C-9 0.67 -9 0.34 -9 0 C-3.375 -1.125 -3.375 -1.125 0 0 Z " fill="#37BCF7" transform="translate(49,40)"/>
<path d="M0 0 C3.71599191 -0.20086443 4.77208445 -0.1519437 8 2 C7 5 7 5 6 7 C3.5625 6.3125 3.5625 6.3125 1 5 C0.1875 2.375 0.1875 2.375 0 0 Z " fill="#3BBDF7" transform="translate(19,34)"/>
<path d="M0 0 C2.31 0.66 4.62 1.32 7 2 C7.33 3.65 7.66 5.3 8 7 C5 8 5 8 2.875 7.4375 C1 6 1 6 0.25 2.875 C0.1675 1.92625 0.085 0.9775 0 0 Z " fill="#26252D" transform="translate(38,3)"/>
<path d="M0 0 C1.875 0.3125 1.875 0.3125 4 1 C4.66 1.99 5.32 2.98 6 4 C5.34 4 4.68 4 4 4 C3.67 4.99 3.34 5.98 3 7 C0 7 0 7 -3 6 C-2 4 -1 2 0 0 Z " fill="#322D3C" transform="translate(11,38)"/>
<path d="M0 0 C1.91015625 0.23046875 1.91015625 0.23046875 3.91015625 2.23046875 C3.58015625 3.22046875 3.25015625 4.21046875 2.91015625 5.23046875 C1.79640625 5.04484375 0.68265625 4.85921875 -0.46484375 4.66796875 C-3.91553236 3.91366218 -3.91553236 3.91366218 -6.08984375 5.23046875 C-6.65234375 3.29296875 -6.65234375 3.29296875 -7.08984375 1.23046875 C-5.19495423 -0.66442077 -2.51845229 0.05027763 0 0 Z " fill="#C3AAE1" transform="translate(35.08984375,15.76953125)"/>
<path d="M0 0 C1.98362069 2.91708924 1.9876191 4.12380904 1.625 7.75 C1.41875 8.8225 1.2125 9.895 1 11 C-0.32 10.67 -1.64 10.34 -3 10 C-2.25 3.375 -2.25 3.375 0 0 Z " fill="#1C1F36" transform="translate(3,12)"/>
<path d="M0 0 C1.2375 0.144375 2.475 0.28875 3.75 0.4375 C9.49002931 1.07833262 15.24293318 1.5421622 21 2 C21 2.33 21 2.66 21 3 C18.25048307 3.22212255 15.50134388 3.42815588 12.75 3.625 C11.97269531 3.68945312 11.19539063 3.75390625 10.39453125 3.8203125 C3.27568856 4.30707097 3.27568856 4.30707097 0 2 C0 1.34 0 0.68 0 0 Z " fill="#252130" transform="translate(24,13)"/>
<path d="M0 0 C0.99 0.495 0.99 0.495 2 1 C2 1.99 2 2.98 2 4 C3.65 3.67 5.3 3.34 7 3 C6.67 4.32 6.34 5.64 6 7 C4.125 7.625 4.125 7.625 2 8 C0 6 0 6 -0.125 2.875 C-0.08375 1.92625 -0.0425 0.9775 0 0 Z " fill="#151725" transform="translate(0,39)"/>
<path d="M0 0 C0.66 0 1.32 0 2 0 C2.33 3.63 2.66 7.26 3 11 C2.01 11 1.02 11 0 11 C0 7.37 0 3.74 0 0 Z " fill="#21213A" transform="translate(0,28)"/>
<path d="M0 0 C0.66 0.33 1.32 0.66 2 1 C-3.0940919 7.70459519 -3.0940919 7.70459519 -6.875 8.9375 C-7.57625 8.958125 -8.2775 8.97875 -9 9 C-6.78310162 4.56620325 -4.22271781 2.53363068 0 0 Z " fill="#0D0D14" transform="translate(13,3)"/>
<path d="M0 0 C0.99 0 1.98 0 3 0 C3 0.66 3 1.32 3 2 C4.32 2.66 5.64 3.32 7 4 C6.01 4 5.02 4 4 4 C4 5.65 4 7.3 4 9 C3.67 9 3.34 9 3 9 C3 7.35 3 5.7 3 4 C1.68 4.33 0.36 4.66 -1 5 C-1 1 -1 1 0 0 Z " fill="#CBB0EE" transform="translate(52,38)"/>
<path d="M0 0 C1.98 0 3.96 0 6 0 C5.67 0.66 5.34 1.32 5 2 C4.67 2 4.34 2 4 2 C4 3.98 4 5.96 4 8 C3.67 7.34 3.34 6.68 3 6 C0.97536745 5.34786708 0.97536745 5.34786708 -1 5 C-0.67 3.35 -0.34 1.7 0 0 Z " fill="#3D375D" transform="translate(11,17)"/>
<path d="M0 0 C0.66 0.33 1.32 0.66 2 1 C2 1.66 2 2.32 2 3 C2.66 3.33 3.32 3.66 4 4 C3.01 4.495 3.01 4.495 2 5 C1.26924352 7.3140622 0.59861742 9.64828869 0 12 C-0.33 12 -0.66 12 -1 12 C-1.02687279 10.18757948 -1.04633715 8.37504767 -1.0625 6.5625 C-1.07410156 5.55316406 -1.08570312 4.54382812 -1.09765625 3.50390625 C-1 1 -1 1 0 0 Z " fill="#1C1B2C" transform="translate(1,50)"/>
<path d="M0 0 C5.61702128 0.89361702 5.61702128 0.89361702 8.25 1.625 C10.0976086 2.2114853 10.0976086 2.2114853 12 1 C12 1.99 12 2.98 12 4 C8.7 4 5.4 4 2 4 C1.34 2.68 0.68 1.36 0 0 Z " fill="#0D0D0D" transform="translate(32,19)"/>
<path d="M0 0 C2.64 1.32 5.28 2.64 8 4 C8 4.33 8 4.66 8 5 C5.03 4.67 2.06 4.34 -1 4 C-1 1 -1 1 0 0 Z " fill="#393557" transform="translate(35,10)"/>
<path d="M0 0 C4.62 0.66 9.24 1.32 14 2 C14 2.33 14 2.66 14 3 C12.41773035 3.19627391 10.83410729 3.38165538 9.25 3.5625 C8.36828125 3.66691406 7.4865625 3.77132812 6.578125 3.87890625 C4.11567549 3.99456676 2.33461936 3.73638695 0 3 C0 2.01 0 1.02 0 0 Z " fill="#181D30" transform="translate(10,52)"/>
<path d="M0 0 C0 1.32 0 2.64 0 4 C-4.75 3.125 -4.75 3.125 -7 2 C-7 1.34 -7 0.68 -7 0 C-3.98968256 -0.93423645 -3.13349732 -1.04449911 0 0 Z " fill="#252949" transform="translate(10,51)"/>
<path d="M0 0 C0.99 0 1.98 0 3 0 C3.04254356 1.99954746 3.04080783 4.00041636 3 6 C2 7 2 7 -1.0625 7.0625 C-2.5165625 7.0315625 -2.5165625 7.0315625 -4 7 C-3.525625 6.5875 -3.05125 6.175 -2.5625 5.75 C-0.83733482 3.817815 -0.43415125 2.51807725 0 0 Z " fill="#0F131D" transform="translate(43,57)"/>
<path d="M0 0 C2.475 0.495 2.475 0.495 5 1 C4.67 1.99 4.34 2.98 4 4 C4.66 4 5.32 4 6 4 C6 4.66 6 5.32 6 6 C4.68 6 3.36 6 2 6 C0 3 0 3 0 0 Z " fill="#5D4F70" transform="translate(49,17)"/>
<path d="M0 0 C2.475 0.99 2.475 0.99 5 2 C5 3.32 5 4.64 5 6 C3.68 6.33 2.36 6.66 1 7 C0.67 4.69 0.34 2.38 0 0 Z " fill="#9061CC" transform="translate(45,54)"/>
<path d="M0 0 C0.99 0.33 1.98 0.66 3 1 C3 2.98 3 4.96 3 7 C1.35 7 -0.3 7 -2 7 C-1.34 6.67 -0.68 6.34 0 6 C0 4.02 0 2.04 0 0 Z " fill="#A676E4" transform="translate(52,54)"/>
<path d="M0 0 C-1 3 -1 3 -3 4 C-3 3.34 -3 2.68 -3 2 C-4.65 1.67 -6.3 1.34 -8 1 C-4.93251126 -0.86240388 -3.40254489 -1.2151946 0 0 Z " fill="#C6B0E2" transform="translate(49,17)"/>
<path d="M0 0 C1.9375 0.3125 1.9375 0.3125 4 1 C4.33 1.99 4.66 2.98 5 4 C1.125 6 1.125 6 0 6 C0 4.02 0 2.04 0 0 Z " fill="#2A2C4E" transform="translate(0,45)"/>
<path d="M0 0 C3.53586014 3.17320782 5.58578031 5.16743695 6 10 C5.401875 9.236875 4.80375 8.47375 4.1875 7.6875 C2.53040668 5.6516425 0.89702326 3.8021721 -1 2 C-0.67 1.34 -0.34 0.68 0 0 Z " fill="#09090C" transform="translate(52,12)"/>
<path d="M0 0 C1.65 0 3.3 0 5 0 C5 1.65 5 3.3 5 5 C2.525 4.01 2.525 4.01 0 3 C0 2.01 0 1.02 0 0 Z " fill="#A472E5" transform="translate(50,42)"/>
<path d="M0 0 C5.875 3.75 5.875 3.75 7 6 C1.25 4.125 1.25 4.125 -1 3 C-0.67 2.01 -0.34 1.02 0 0 Z " fill="#28252D" transform="translate(50,14)"/>
</svg>
