<?xml version="1.0" encoding="UTF-8"?>
<svg version="1.1" xmlns="http://www.w3.org/2000/svg" width="64" height="64">
<path d="M0 0 C6.27 0 12.54 0 19 0 C20.04800781 1.81886719 21.09601562 3.63773438 22.17578125 5.51171875 C23.19838058 7.2857869 24.22113135 9.05976767 25.24389648 10.83374023 C25.95108596 12.06053706 26.65811957 13.28742375 27.36499023 14.5144043 C28.38483736 16.28458291 29.40525657 18.05443069 30.42578125 19.82421875 C31.03848877 20.88729248 31.65119629 21.95036621 32.2824707 23.0456543 C33.39997688 24.96789201 34.55926575 26.86663368 35.76489258 28.73486328 C37 31 37 31 36.3359375 33.41796875 C35.89507812 34.27003906 35.45421875 35.12210938 35 36 C34.66226563 37.02738281 34.32453125 38.05476563 33.9765625 39.11328125 C32.36291862 42.93286026 31.12586707 45.2296407 28 48 C21.50718041 49.55211816 14.57169992 48.725538 8 48 C7.59007813 47.24074219 7.18015625 46.48148438 6.7578125 45.69921875 C6.21898438 44.70535156 5.68015625 43.71148437 5.125 42.6875 C4.59132813 41.70136719 4.05765625 40.71523438 3.5078125 39.69921875 C1.99277874 36.90413542 1.99277874 36.90413542 0 34 C-4.65569896 40.90089534 -4.65569896 40.90089534 -9 48 C-11.89072297 45.40461405 -13.7908483 42.42716836 -15.8125 39.125 C-16.45832031 38.09632812 -17.10414062 37.06765625 -17.76953125 36.0078125 C-19 33 -19 33 -18.35546875 30.5078125 C-17.90816406 29.68023437 -17.46085937 28.85265625 -17 28 C-16.6390625 26.98421875 -16.278125 25.9684375 -15.90625 24.921875 C-14.27320265 21.23844598 -12.93062606 18.79838529 -10 16 C-4.21002054 14.21388808 2.02161007 14.6710304 8 15 C7.4225 14.08476562 6.845 13.16953125 6.25 12.2265625 C5.4997659 11.02618795 4.74977867 9.82565908 4 8.625 C3.6184375 8.02171875 3.236875 7.4184375 2.84375 6.796875 C0 2.2265625 0 2.2265625 0 0 Z M8 17 C7.04078278 18.74951568 6.08266183 20.49963244 5.125 22.25 C4.59132813 23.22453125 4.05765625 24.1990625 3.5078125 25.203125 C2.29794572 27.44733384 1.14019743 29.71960514 0 32 C5.94 32 11.88 32 18 32 C17.05125 30.081875 16.1025 28.16375 15.125 26.1875 C14.59132813 25.10855469 14.05765625 24.02960937 13.5078125 22.91796875 C12.02778861 19.92161735 12.02778861 19.92161735 10 17 C9.34 17 8.68 17 8 17 Z " fill="#DF1D12" transform="translate(23,8)"/>
<path d="M0 0 C3.04258634 0.15946001 6.03085763 0.42290971 9.0625 0.75 C5.39562282 8.31781036 1.47735278 15.59567446 -2.9375 22.75 C-4.06477007 24.62363609 -5.1898262 26.49860624 -6.3125 28.375 C-7.625 30.5625 -7.625 30.5625 -8.9375 32.75 C-11.82822297 30.15461405 -13.7283483 27.17716836 -15.75 23.875 C-16.39582031 22.84632812 -17.04164062 21.81765625 -17.70703125 20.7578125 C-18.9375 17.75 -18.9375 17.75 -18.2890625 15.26171875 C-17.62003906 14.01841797 -17.62003906 14.01841797 -16.9375 12.75 C-16.58816406 11.72261719 -16.23882812 10.69523437 -15.87890625 9.63671875 C-12.2445445 1.20458767 -8.75069972 -0.2728808 0 0 Z " fill="#DF1D12" transform="translate(22.9375,23.25)"/>
<path d="M0 0 C6.6 0 13.2 0 20 0 C21.32 2.26875 22.64 4.5375 24 6.875 C24.41765625 7.58769043 24.8353125 8.30038086 25.265625 9.03466797 C28 13.77777778 28 13.77777778 28 16 C21.73 16 15.46 16 9 16 C6.80273438 11.94726562 6.80273438 11.94726562 4.60546875 7.89453125 C3.12775848 5.23033829 1.56744421 2.61240702 0 0 Z " fill="#AC1716" transform="translate(22,40)"/>
</svg>
