<svg width="256" height="256" fill="none" xmlns="http://www.w3.org/2000/svg"><g clip-path="url(#a)"><path d="M128 256a128 128 0 1 0 0-256 128 128 0 0 0 0 256Z" fill="#fff"/><path fill="#D26B7F" d="M76 93h53v115H76z"/><path fill="#D26B7F" d="M93 37h48v66H93zm51 44h62v105h-62zM29 103h75v33H29z"/><path d="M98 107a30 30 0 0 1 19-9h2c11-1 22 6 27 15l1 3a31 31 0 0 1-1 29l-2 2a30 30 0 0 1-17 11 27 27 0 0 1-15 0 33 33 0 0 1-16-12c-3-5-6-12-6-18v-3c1-6 4-13 8-18Z" fill="#FEECAC"/><path d="M95 25c6-3 13-3 20-3 6 1 11 1 17 4 4 2 8 6 11 10 4 6 6 14 6 21l1 13 4-2c8-6 18-10 28-12h7a38 38 0 0 1 21 6c5 4 10 9 13 14s6 10 6 16c0 7-1 13-4 18a58 58 0 0 1-19 19c9 7 17 16 21 27 2 7 3 14 2 21s-4 14-8 20c-2 5-7 9-12 12a36 36 0 0 1-23 3 74 74 0 0 1-30-14l-10-8-3-2a72 72 0 0 1-20 29c-5 5-11 9-17 11a37 37 0 0 1-38-6 36 36 0 0 1-15-32c0-8 3-17 7-24l4-7a59 59 0 0 1-22-3c-5-2-10-5-14-9a39 39 0 0 1-9-19 49 49 0 0 1-2-13 59 59 0 0 1 4-26c2-3 4-7 7-9s6-4 10-4c6-2 12-1 19 1a90 90 0 0 1 24 12l-3-25c0-9 1-18 4-26a26 26 0 0 1 13-13Zm13 15 2 10c4 16 7 32 7 48a30 30 0 0 0-27 28v-2a107 107 0 0 0-29-11c-8-1-16 0-23 3-2 1-5 4-4 7l4-2 11-4c7-1 14 1 21 3l20 8a30 30 0 0 0 6 18c4 5 10 9 16 12v-1l-4 5c-7 12-14 24-23 34a68 68 0 0 1-9 7l7-1c4-2 7-6 10-9 8-11 13-23 20-34v-1h14a30 30 0 0 0 17-11 187 187 0 0 1 52 30l9 8 1-1c0-2 0-4-2-5-18-14-37-26-59-34 6-9 6-20 2-29l3-5c8-9 17-17 27-22 7-3 14-5 21-5l6-1a42 42 0 0 0-29 4c-5 2-11 6-15 10l-14 15v1a30 30 0 0 0-27-15v-6l-2-22a92 92 0 0 0-4-20l-5-10Z" fill="#EA8397"/></g><defs><clipPath id="a"><path fill="#fff" d="M0 0h256v256H0z"/></clipPath></defs></svg>