<svg width="500" height="500" viewBox="0 0 500 500" fill="none" xmlns="http://www.w3.org/2000/svg">
<g clip-path="url(#clip0_12805_63979)">
<rect width="500" height="500" rx="250" fill="white"/>
<g clip-path="url(#clip1_12805_63979)">
<mask id="mask0_12805_63979" style="mask-type:luminance" maskUnits="userSpaceOnUse" x="-36" y="-37" width="574" height="574">
<path d="M538 -37H-36V537H538V-37Z" fill="white"/>
</mask>
<g mask="url(#mask0_12805_63979)">
<path d="M521.163 256.091C521.163 401.956 402.916 520.201 257.051 520.201C111.187 520.201 -7.05981 401.956 -7.05981 256.091C-7.05981 110.226 111.187 -8.02051 257.051 -8.02051C402.916 -8.02051 521.163 110.226 521.163 256.091Z" stroke="#31C77F" stroke-width="1.20825"/>
<mask id="mask1_12805_63979" style="mask-type:alpha" maskUnits="userSpaceOnUse" x="13" y="12" width="488" height="488">
<path d="M498.687 256.091C498.687 389.543 390.503 497.726 257.051 497.726C123.599 497.726 15.4159 389.543 15.4159 256.091C15.4159 122.639 123.599 14.4551 257.051 14.4551C390.503 14.4551 498.687 122.639 498.687 256.091Z" fill="#31C77F" stroke="#31C77F" stroke-width="4.0275"/>
</mask>
<g mask="url(#mask1_12805_63979)">
<path d="M139.638 508.72C141.683 488.775 166.702 451.771 165.619 431.826C165.498 428.462 165.619 425.097 166.099 421.735C168.145 407.677 167.544 393.62 166.461 379.683C165.98 373.916 166.461 368.27 167.422 362.503C169.468 350.128 170.67 337.873 169.227 325.258C167.904 313.364 169.347 301.469 171.753 289.815C173.797 279.963 173.558 270.111 171.994 260.259C171.633 258.097 171.271 255.814 171.633 253.771C172.955 246.443 173.677 238.994 173.918 230.703C181.015 236.951 188.592 237.312 196.652 235.508C203.267 234.067 207.236 229.743 209.883 223.855C210.724 221.933 211.085 219.531 214.333 220.251C215.897 220.612 217.7 220.371 217.941 218.209C218.182 216.166 216.617 215.565 214.934 215.205C204.951 212.922 194.847 210.519 184.864 208.357C181.616 207.636 178.249 206.794 175.001 206.434C172.113 206.073 171.512 204.752 171.753 202.108C173.196 189.855 175.482 177.839 180.414 166.426C185.224 155.372 191.358 144.92 200.139 136.39C201.222 135.309 202.545 134.107 201.823 132.305C201.102 130.502 199.659 130.022 197.974 130.623C196.17 131.224 195.448 130.262 194.606 129.06C192.922 126.418 191.118 123.775 189.555 121.011C184.263 112.36 177.887 104.551 171.512 96.6214C170.189 94.9394 168.505 93.4977 166.702 92.176C161.289 88.3314 156.477 90.4941 155.876 97.2221C155.396 101.547 155.756 105.993 157.32 110.078C162.972 124.376 167.303 139.273 175.482 152.489C177.526 155.853 174.641 157.414 173.558 159.817C171.512 158.376 170.43 156.333 169.468 154.531C158.282 134.827 148.9 114.403 144.93 91.8155C143.849 85.9285 143.849 79.9211 144.088 74.0341C144.45 67.5462 147.336 65.8642 153.591 67.4261C158.162 68.6275 161.649 71.5111 165.018 74.6348C176.444 85.2075 186.188 97.1019 196.531 108.636C199.297 111.76 202.063 114.883 204.71 118.007C206.394 119.93 207.958 121.732 208.199 124.615C208.438 127.86 210.724 128.821 213.732 127.619C214.452 127.378 215.174 127.018 215.897 126.538C220.948 123.054 226.602 121.852 232.615 120.891C249.093 117.887 265.331 119.089 281.569 122.453C284.096 123.054 286.261 124.376 288.546 125.696C293.478 128.7 295.281 127.979 296.726 122.453C297.086 120.891 298.047 119.569 299.13 118.368C312.482 103.47 324.871 87.7306 339.544 74.0341C342.792 71.0305 346.04 68.147 350.371 66.8253C357.466 64.5426 360.473 66.7053 360.955 74.0341C361.796 87.9709 358.429 101.187 353.979 114.163C349.529 127.139 343.393 139.394 336.899 151.408C335.455 154.051 333.651 156.333 331.846 159.337C325.953 150.566 325.953 150.687 330.403 142.277C335.936 131.945 341.59 121.852 345.439 110.678C347.002 105.993 348.325 101.187 348.205 96.1408C348.084 93.017 347.483 90.2536 344.356 88.6919C341.349 87.25 338.943 88.5716 336.778 90.3738C334.133 92.6566 331.366 95.0594 328.96 97.7027C320.661 106.714 311.519 115.124 306.227 126.418C305.265 128.58 301.536 129.542 302.979 132.785C303.942 134.948 306.227 136.269 307.67 138.072C316.21 148.404 323.066 159.697 327.277 172.432C329.922 180.483 331.727 188.893 332.809 197.302C333.291 201.628 333.291 201.628 328.839 202.83C317.895 205.713 307.069 208.597 296.123 211.48C295.161 211.721 294.198 211.841 293.237 212.32C290.952 213.403 290.711 215.446 292.877 216.766C294.32 217.608 295.161 218.088 295.643 220.01C297.446 227.7 302.378 232.626 310.197 233.707C318.015 234.909 325.352 233.587 329.922 226.138C330.163 225.658 330.284 225.417 331.126 225.897C330.885 234.788 331.606 243.8 333.291 252.69C333.651 254.372 333.411 256.294 333.17 257.976C330.885 269.269 331.366 280.443 333.651 291.617C336.057 303.991 336.778 316.368 335.335 328.862C334.252 337.993 335.094 347.124 336.778 356.015C338.703 366.106 339.184 376.079 338.101 386.171C337.019 396.504 337.379 406.717 338.462 417.049C339.184 423.537 367.45 450.569 367.09 457.178C372.502 466.548 379.479 484.451 386.214 493.101L372.179 514.356L267.711 532.735L173.918 524.03L139.638 508.72Z" fill="white"/>
<path d="M790.225 281.167C784.573 276.843 778.077 273.718 771.702 270.474C751.494 260.262 730.807 251.371 710.119 242.481C691.114 234.311 674.274 223.137 660.201 207.878C658.036 205.597 655.632 203.433 653.226 201.39C650.219 198.748 646.851 198.508 643.241 200.309C638.19 202.832 633.139 205.475 628.327 208.479C621.471 212.684 609.924 218.932 602.588 222.297C564.458 240.078 525.005 254.495 485.554 268.912C450.553 281.768 416.632 297.027 383.796 314.567C371.648 321.055 360.581 329.105 350.238 337.996C348.555 339.437 346.871 341.12 345.185 342.441C345.066 342.322 344.946 342.322 344.825 342.201C344.344 343.642 343.261 344.964 341.818 345.565C341.217 347.968 339.412 350.01 336.166 350.01C335.925 350.01 335.684 350.01 335.443 350.01C335.203 364.188 335.684 378.364 337.248 392.542C337.849 397.708 336.526 401.192 332.918 405.038C315.116 424.019 295.029 439.999 274.461 455.618C273.86 456.098 273.018 456.458 272.536 457.06C270.612 459.944 268.446 459.703 265.56 458.262C260.269 455.618 254.975 457.06 250.284 459.823C247.639 461.385 245.714 461.264 243.308 460.063C231.28 453.936 219.373 447.809 208.307 439.879C193.391 429.307 178.477 418.854 165.366 406.119C163.803 404.676 162.72 403.115 162.119 401.552C161.879 401.433 161.517 401.313 161.277 401.192C161.156 401.192 161.156 401.192 161.037 401.072C158.39 399.991 162.72 396.267 159.833 395.785C159.232 396.026 158.75 396.145 158.149 396.386C157.428 397.107 152.015 397.949 148.286 401.192C148.045 401.433 147.685 401.673 147.324 401.913C136.259 410.684 133.491 423.299 139.987 435.794C141.189 438.076 140.829 439.639 139.867 441.681C134.814 452.013 135.296 461.986 142.634 471.116C144.558 473.64 146.361 476.282 149.008 478.205L155.022 482.41C158.509 484.333 163.562 486.255 166.207 486.976C177.394 489.98 188.7 491.901 200.247 492.383C205.541 492.622 210.952 491.782 216.244 491.302C226.469 490.34 236.813 489.499 246.917 488.057C250.766 487.456 254.374 488.537 257.982 488.658C261.23 488.778 264.597 489.138 267.244 487.456C272.417 484.333 278.19 484.213 283.723 483.731C295.99 482.65 308.019 479.887 319.687 476.163C331.594 472.438 343.502 468.835 354.929 463.547C366.355 458.262 376.339 451.533 382.113 439.879C382.714 438.798 383.315 438.076 384.278 437.477C393.059 432.189 407.372 429.546 415.189 426.303C427.338 419.574 439.366 412.846 451.635 406.358C468.956 397.228 486.396 388.216 505.159 382.089C536.914 371.516 569.75 366.23 602.827 362.145C614.977 360.583 627.244 359.621 639.273 356.619C660.082 351.332 680.169 344.123 700.496 337.636C707.231 335.474 714.087 333.31 720.583 330.427C740.911 321.537 760.396 310.843 779.88 300.391C783.49 298.468 786.977 296.065 790.345 293.543C796.12 288.976 795.999 285.612 790.225 281.167Z" fill="#231F20"/>
<path d="M367.709 72.3527C367.227 63.2217 360.972 58.2956 351.951 60.0978C347.861 60.9389 344.012 62.3806 340.525 64.9037C331.985 71.1512 324.767 78.8405 317.911 86.77C309.853 96.0213 301.673 105.272 293.856 114.764C291.449 117.647 289.284 117.768 286.277 116.446C281.586 114.283 276.655 112.601 271.484 112.241C253.441 110.919 235.398 110.319 218.078 117.047C214.47 118.488 212.426 117.767 210.02 114.884C202.322 105.633 194.383 96.5019 186.325 87.3708C179.228 79.3211 172.011 71.5117 163.231 65.2642C159.021 62.2606 154.45 60.8187 149.399 60.5784C143.023 60.3381 138.813 63.462 137.249 69.7095C136.769 71.6317 136.648 73.6742 136.648 75.5966C136.648 86.5297 138.694 97.2227 140.859 107.916C143.986 123.414 151.083 137.471 157.216 151.768C159.622 157.416 162.87 162.701 167.08 167.146C168.644 168.829 169.004 170.272 168.403 172.434C167.44 175.798 166.598 179.282 165.756 182.766C162.389 195.381 161.185 208.237 163.109 221.093C164.192 227.941 163.953 234.429 163.231 241.156C162.389 248.485 162.148 255.694 163.832 263.024C165.877 271.673 165.396 280.323 163.231 288.975C160.946 298.105 159.742 307.236 160.224 316.608C160.825 326.58 159.622 336.432 159.26 346.284C159.141 352.051 159.26 357.818 157.939 363.464C156.255 370.672 156.375 378.002 157.457 385.33C159.501 399.628 158.179 392.66 158.781 401.31C161.426 401.31 164.554 409.599 167.32 409.48C167.199 402.751 166.479 386.532 165.877 379.804C165.396 374.037 165.877 368.391 166.839 362.624C168.883 350.248 170.087 337.993 168.644 325.378C167.32 313.485 168.763 301.59 171.169 289.936C173.213 280.084 172.973 270.232 171.41 260.38C171.048 258.218 170.688 255.935 171.048 253.892C172.372 246.563 173.094 239.115 173.335 230.824C180.43 237.072 188.008 237.433 196.067 235.629C202.682 234.188 206.652 229.862 209.297 223.976C210.141 222.053 210.501 219.65 213.749 220.372C215.312 220.733 217.116 220.492 217.357 218.33C217.598 216.287 216.034 215.686 214.35 215.326C204.367 213.043 194.263 210.64 184.279 208.478C181.033 207.757 177.664 206.915 174.417 206.555C171.53 206.194 170.929 204.873 171.169 202.229C172.612 189.974 174.897 177.96 179.829 166.547C184.641 155.493 190.775 145.041 199.555 136.511C200.638 135.428 201.961 134.228 201.239 132.426C200.518 130.623 199.074 130.143 197.39 130.744C195.587 131.343 194.864 130.383 194.023 129.181C192.339 126.538 190.534 123.896 188.971 121.132C183.678 112.481 177.303 104.672 170.929 96.7422C169.605 95.06 167.922 93.6183 166.117 92.2968C160.705 88.4522 155.893 90.6147 155.292 97.3428C154.81 101.668 155.172 106.114 156.735 110.198C162.389 124.495 166.719 139.394 174.897 152.61C176.943 155.974 174.055 157.535 172.973 159.938C170.929 158.497 169.846 156.454 168.883 154.652C157.698 134.948 148.316 114.524 144.346 91.9363C143.263 86.0492 143.263 80.042 143.504 74.1548C143.865 67.667 146.752 65.985 153.007 67.5469C157.577 68.7483 161.065 71.6317 164.433 74.7556C175.86 85.3283 185.602 97.2227 195.947 108.757C198.713 111.88 201.48 115.004 204.127 118.128C205.81 120.05 207.373 121.852 207.614 124.736C207.854 127.981 210.141 128.94 213.146 127.74C213.869 127.499 214.591 127.139 215.312 126.659C220.364 123.175 226.017 121.973 232.031 121.012C248.51 118.008 264.747 119.209 280.985 122.574C283.511 123.173 285.676 124.495 287.962 125.817C292.894 128.821 294.697 128.1 296.14 122.574C296.502 121.011 297.464 119.69 298.546 118.488C311.898 103.59 324.287 87.8514 338.961 74.1548C342.209 71.1512 345.457 68.2678 349.785 66.9461C356.882 64.6634 359.889 66.8261 360.371 74.1548C361.213 88.0917 357.845 101.308 353.395 114.283C348.944 127.258 342.81 139.513 336.314 151.529C334.871 154.171 333.068 156.454 331.263 159.458C325.37 150.687 325.37 150.808 329.82 142.397C335.353 132.065 341.005 121.973 344.854 110.799C346.418 106.114 347.741 101.308 347.622 96.2616C347.501 93.1378 346.899 90.3744 343.773 88.8125C340.766 87.3708 338.36 88.6925 336.194 90.4947C333.548 92.7774 330.781 95.1802 328.377 97.8235C320.076 106.834 310.935 115.244 305.643 126.538C304.68 128.701 300.952 129.663 302.395 132.906C303.358 135.068 305.643 136.39 307.086 138.193C315.626 148.525 322.482 159.818 326.691 172.553C329.338 180.604 331.143 189.014 332.226 197.423C332.706 201.749 332.706 201.749 328.256 202.95C317.31 205.834 306.485 208.717 295.539 211.601C294.578 211.842 293.615 211.961 292.653 212.441C290.367 213.522 290.126 215.565 292.291 216.887C293.736 217.729 294.578 218.209 295.058 220.131C296.863 227.82 301.794 232.747 309.612 233.828C317.431 235.03 324.767 233.708 329.338 226.259C329.579 225.777 329.699 225.538 330.54 226.018C330.301 234.909 331.022 243.921 332.706 252.811C333.068 254.493 332.827 256.415 332.586 258.097C330.301 269.39 330.781 280.564 333.068 291.738C335.472 304.112 336.194 316.487 334.751 328.983C333.669 338.114 334.511 347.245 336.194 356.136C338.119 366.227 338.6 376.2 337.518 386.292C337.157 389.656 336.917 393.02 336.917 396.384C339.683 396.504 342.449 396.624 345.216 396.745C345.335 395.063 345.457 393.261 345.697 391.579C346.778 381.966 348.102 372.476 346.298 362.624C343.652 348.205 344.012 333.428 343.773 318.77C343.652 308.197 343.411 297.865 340.766 287.533C338.72 279.603 338.119 271.433 339.924 263.384C341.968 254.493 341.727 245.722 340.525 236.832C339.924 232.747 339.08 228.542 340.163 224.457C342.209 216.407 341.968 208.356 341.608 200.187C341.126 190.575 338.479 181.444 336.075 172.314C335.353 169.551 335.472 167.628 337.637 165.466C340.404 162.701 342.69 159.338 344.374 155.733C354.476 135.189 363.498 114.404 366.144 91.4558C367.106 85.4486 368.069 78.9606 367.709 72.3527Z" fill="#231F20"/>
<path d="M783.01 288.615C774.47 293.18 766.892 297.386 759.194 301.35C746.204 308.078 732.973 314.446 719.622 320.453C712.767 323.576 705.67 325.979 698.452 328.143C681.372 333.428 664.414 338.835 647.454 344.001C631.698 348.807 615.219 350.489 598.981 352.531C578.292 355.055 557.725 357.938 537.517 362.865C519.836 367.189 502.154 371.634 485.195 378.482C472.084 383.77 459.695 390.377 447.306 396.865C433.234 404.194 419.522 412.124 405.929 420.294C400.637 423.538 394.623 424.98 388.849 427.022C386.925 427.623 385.482 427.382 384.761 425.099C382.715 418.972 378.265 414.767 372.492 412.004C370.327 410.923 369.966 409.48 370.086 407.198C370.327 403.834 370.207 400.47 369.003 397.225C367.56 393.14 364.913 390.498 360.824 389.296C356.975 388.095 353.126 387.134 349.157 387.614C346.51 387.974 345.549 387.013 345.428 384.61C345.308 382.689 345.067 380.646 344.948 378.723C344.707 373.557 345.308 368.272 344.345 363.345C343.264 357.337 345.189 353.493 349.639 349.529C364.673 335.952 381.754 325.859 399.795 316.969C438.406 297.866 478.58 282.607 518.994 268.07C554.477 255.334 589.118 240.676 622.917 224.097C630.734 220.251 638.192 215.687 645.649 211.241C647.935 209.919 649.378 209.919 651.062 212.203C664.894 230.225 683.659 241.518 703.986 250.409C726.358 260.14 748.369 270.593 770.14 281.285C774.23 283.208 778.2 285.852 783.01 288.615Z" fill="#31C77F"/>
<path d="M147.332 444.802C149.257 445.642 150.58 446.123 151.782 446.603C153.948 447.444 156.234 447.565 157.677 445.401C159.241 443.119 157.797 441.318 156.113 439.755C154.188 438.073 152.264 436.391 150.34 434.589C142.522 427.381 145.889 414.284 153.227 409.719C155.03 408.638 156.354 408.156 157.797 409.96C158.159 410.44 158.639 410.8 159.001 411.28C174.156 428.34 193.16 440.717 212.164 452.85C220.825 458.378 229.725 463.664 239.348 467.508C241.754 468.469 242.836 469.672 242.355 472.314C241.873 474.477 241.995 476.639 242.836 478.801C243.678 481.085 242.474 481.686 240.55 481.805C237.423 482.166 234.297 482.647 231.049 482.647C219.02 482.886 206.992 485.41 194.965 484.329C182.696 483.127 170.788 480.484 159.602 474.957C155.631 473.034 152.144 470.512 149.498 466.909C144.325 460.18 144.206 452.971 147.332 444.802Z" fill="#31C77F"/>
<path d="M285.62 475.082C283.817 474.841 281.411 476.762 279.727 475.201C278.525 473.999 278.404 471.596 277.682 469.795C277.442 469.074 277.08 468.232 276.6 467.632C274.915 465.59 276.119 464.509 277.803 463.426C288.267 456.939 297.529 448.89 307.512 441.681C319.66 432.669 330.365 422.097 340.469 410.923C343.717 407.439 346.121 403.234 345.882 398.188C345.761 396.146 346.724 395.305 348.768 395.544C350.693 395.785 352.737 396.026 354.661 396.506C360.676 397.947 363.201 402.994 360.556 408.641C359.473 410.923 358.03 413.087 356.827 415.368C355.985 417.05 355.624 418.732 357.308 420.175C358.872 421.496 360.556 421.256 362.24 420.415C362.359 420.295 362.6 420.295 362.721 420.175C364.164 419.453 365.006 417.171 366.449 417.651C368.614 418.372 370.66 419.815 372.463 421.256C376.794 424.74 378.358 428.825 376.794 433.151C374.989 437.957 372.103 442.281 368.254 445.886C360.676 452.975 351.656 457.42 342.153 460.784C326.275 466.311 310.398 471.717 293.68 474.481C291.153 474.841 288.508 475.082 285.62 475.082Z" fill="#31C77F"/>
<path d="M179.771 149.245C173.878 143.478 170.511 136.75 167.984 129.782C164.857 121.251 161.85 112.721 159.806 103.83C159.324 101.908 159.205 99.9855 159.084 97.943C159.084 96.6215 158.843 95.0596 160.407 94.3388C161.971 93.738 163.173 94.6991 164.135 95.6603C169.188 100.106 173.518 105.272 177.005 111.039C181.216 117.887 185.425 124.736 189.875 131.584C191.559 134.227 191.559 136.149 189.034 137.952C185.185 140.715 183.141 145.039 179.771 149.245Z" fill="#FEFEFE"/>
<path d="M322.804 146.121C320.038 141.196 315.829 137.71 311.739 133.987C309.695 132.064 309.814 130.742 311.138 128.459C316.911 118.968 324.128 110.558 331.465 102.148C333.631 99.6247 335.555 96.7413 338.321 94.819C341.329 92.7765 343.132 93.6174 343.613 97.2218C343.735 98.183 343.735 99.2643 343.494 100.225C341.689 107.675 340.125 115.364 336.276 122.092C332.427 128.58 329.059 135.188 325.692 141.916C324.969 143.358 324.609 145.04 322.804 146.121Z" fill="#FEFEFE"/>
<path d="M259.798 481.324C259.197 481.205 258.114 481.205 257.153 481.083C252.942 480.484 250.416 478.441 249.935 475.197C249.455 471.952 252.1 467.628 255.589 466.306C262.085 463.662 268.097 465.585 270.864 471.112C272.668 474.596 272.187 476.399 269.18 478.802C266.895 480.482 263.647 481.444 259.798 481.324Z" fill="#31C77F"/>
<path d="M185.94 221.572C183.174 221.694 181.249 220.131 181.249 217.609C181.13 214.965 182.573 213.283 184.859 213.283C187.626 213.162 189.429 214.724 189.55 217.368C189.55 220.011 188.468 221.453 185.94 221.572Z" fill="#E7EBEB"/>
<path d="M313.08 217.607C312.479 219.53 312.117 221.573 309.832 222.053C307.667 222.534 305.623 220.492 305.623 218.208C305.742 215.806 307.185 214.603 309.35 214.484C311.275 214.364 312.719 215.565 313.08 217.607Z" fill="#EFF2F2"/>
<path d="M256.292 226.135C259.299 222.53 263.148 220.967 267.719 221.089C274.936 221.208 280.228 225.894 280.829 233.103C281.07 236.587 281.31 240.311 279.987 243.675C278.785 246.679 279.145 248.362 282.033 250.524C287.926 255.21 290.933 261.457 290.451 269.266C290.211 272.39 289.49 275.394 287.325 277.436C284.439 280.08 282.875 283.564 281.432 286.808C278.063 294.136 271.929 297.381 264.712 298.582C256.652 299.784 248.954 297.741 242.098 293.296C238.49 291.013 235.964 287.649 234.762 283.564C234.161 281.521 233.319 280.199 231.514 278.999C224.658 274.313 222.855 266.503 226.943 259.295C228.266 256.892 229.831 254.368 231.875 252.686C235.003 250.283 235.244 247.88 234.161 244.517C232.717 239.951 233.68 235.505 235.244 231.18C238.37 222.41 245.587 219.886 253.647 224.572C254.368 224.933 255.209 225.534 256.292 226.135Z" fill="#030202"/>
<path d="M274.559 277.321C269.99 276.961 265.659 274.198 262.411 269.512C257.84 262.783 257.84 262.783 253.631 269.753C250.383 275.038 245.451 277.682 239.198 277.321C230.897 276.72 226.929 268.791 231.5 261.702C233.184 259.059 235.588 256.897 238.115 254.974C242.084 251.971 242.325 251.37 240.641 246.443C239.558 243.2 238.595 240.077 238.836 236.591C239.437 229.023 245.332 225.899 251.828 229.504C252.909 230.104 253.75 230.945 254.713 231.547C257.119 232.988 259.164 233.108 260.607 230.225C262.411 226.741 265.538 226.62 268.786 226.98C272.394 227.34 274.44 229.504 275.763 232.747C276.484 234.549 276.364 236.231 275.642 237.913C274.681 240.316 273.598 242.599 272.635 245.002C270.35 249.929 270.591 251.01 275.642 253.172C279.851 254.974 283.099 257.617 284.904 261.943C288.152 269.392 283.581 277.081 274.559 277.321Z" fill="white"/>
<path d="M240.537 282.608C249.197 281.648 249.678 281.407 258.7 272.756C263.51 279.004 269.524 282.849 277.704 282.248C275.298 289.456 270.006 293.061 261.946 293.302C253.046 293.421 242.701 291.138 240.537 282.608Z" fill="#FDFDFD"/>
<path d="M247.786 236.714C248.146 236.955 249.107 237.076 249.469 237.556C251.032 239.598 252.355 241.881 252.596 244.523C252.716 245.726 252.115 246.807 250.791 247.288C249.71 247.649 248.867 247.167 248.146 246.446C246.222 244.404 244.779 242.001 245.139 238.997C245.258 237.796 245.981 236.955 247.786 236.714Z" fill="#0E0D0D"/>
<path d="M262.093 241.874C262.453 240.913 262.934 239.111 263.776 237.549C264.377 236.229 265.46 235.267 267.144 235.988C268.346 236.589 268.827 237.67 268.587 238.871C268.226 240.553 267.625 242.235 267.023 243.917C266.421 245.48 265.339 246.68 263.414 245.959C261.731 245.479 261.731 243.917 262.093 241.874Z" fill="#191717"/>
<path d="M145.285 469.431L134.22 499.708L141.677 503.432C141.677 503.432 152.022 478.321 153.224 475.918C154.307 473.396 145.285 469.431 145.285 469.431Z" fill="#231F20"/>
<path d="M366.372 449.727L361.801 454.652C361.801 454.652 380.805 499.105 386.459 499.227C392.112 499.227 388.503 490.215 388.503 490.215C388.503 490.215 371.905 455.494 369.018 449.367C366.854 444.44 366.372 449.727 366.372 449.727Z" fill="#231F20"/>
</g>
</g>
</g>
</g>
<defs>
<clipPath id="clip0_12805_63979">
<rect width="500" height="500" rx="250" fill="white"/>
</clipPath>
<clipPath id="clip1_12805_63979">
<rect width="574" height="574" fill="white" transform="translate(-36 -37)"/>
</clipPath>
</defs>
</svg>
