<svg xmlns="http://www.w3.org/2000/svg" width="256" height="256" fill="none"><circle cx="128" cy="128" r="128" fill="#F7F7F7"/><path fill="#070516" d="M111 155.5c0-2.3-1.8-3.8-4-3.4l-26 4.6a5 5 0 0 0-4 4.8v50c0 2.3 1.8 3.8 4 3.4l26-4.6a5 5 0 0 0 4-4.8v-50Z"/><path fill="#FF4D44" fill-rule="evenodd" d="M179 44.5c0-2.3-1.7-3.8-3.8-3.4l-25.4 4.6c-2 .4-3.8 2.6-3.8 4.8v50c0 2.3 1.7 3.8 3.8 3.4l25.4-4.6c2-.4 3.8-2.6 3.8-4.8v-50Z" clip-rule="evenodd"/><path fill="#070516" d="M116.1 55.4a6 6 0 0 0-6-3.3l-28.3 5c-2.4.4-3.4 2.6-2.4 4.8l62.5 138.7a6 6 0 0 0 6 3.3l28.3-5c2.4-.4 3.4-2.6 2.4-4.8L116.1 55.4Z"/></svg>