<?xml version="1.0" encoding="UTF-8"?>
<svg version="1.1" xmlns="http://www.w3.org/2000/svg" width="200" height="200">
<path d="M0 0 C1.25296875 0.4125 2.5059375 0.825 3.796875 1.25 C28.74462541 10.06760046 48.21993996 28.50355897 60.08447266 52.01074219 C70.70512729 75.08730057 73.09510894 102.81586203 65 127 C64.5875 128.25296875 64.175 129.5059375 63.75 130.796875 C54.93239954 155.74462541 36.49644103 175.21993996 12.98925781 187.08447266 C-10.08730057 197.70512729 -37.81586203 200.09510894 -62 192 C-63.87945312 191.38125 -63.87945312 191.38125 -65.796875 190.75 C-90.74462541 181.93239954 -110.21993996 163.49644103 -122.08447266 139.98925781 C-132.70512729 116.91269943 -135.09510894 89.18413797 -127 65 C-126.5875 63.74703125 -126.175 62.4940625 -125.75 61.203125 C-116.93239954 36.25537459 -98.49644103 16.78006004 -74.98925781 4.91552734 C-51.91269943 -5.70512729 -24.18413797 -8.09510894 0 0 Z " fill="#FEFEFE" transform="translate(131,4)"/>
<path d="M0 0 C0 42.24 0 84.48 0 128 C-3.4063688 126.63745248 -5.89206893 125.57887771 -8.87109375 123.671875 C-9.5990918 123.20894043 -10.32708984 122.74600586 -11.07714844 122.26904297 C-12.24552246 121.5171167 -12.24552246 121.5171167 -13.4375 120.75 C-14.2615332 120.22422363 -15.08556641 119.69844727 -15.93457031 119.15673828 C-17.70395895 118.02760203 -19.47231845 116.89685177 -21.23974609 115.76464844 C-24.02587834 113.98345581 -26.81851645 112.21292496 -29.61328125 110.4453125 C-34.23159911 107.52322621 -38.8396522 104.58557762 -43.44091797 101.63671875 C-45.09623787 100.57802149 -46.75396441 99.52307368 -48.41455078 98.47265625 C-50.5545738 97.11787436 -52.68468353 95.74884521 -54.8125 94.375 C-55.43479492 93.98554199 -56.05708984 93.59608398 -56.69824219 93.19482422 C-60.79964649 90.51368168 -60.79964649 90.51368168 -61.88671875 87.7265625 C-61.92410156 87.15679687 -61.96148437 86.58703125 -62 86 C-52.58997722 79.66514806 -52.58997722 79.66514806 -48 77 C-49.35521577 72.93435268 -52.04035171 71.8649215 -55.5625 69.8125 C-56.17802734 69.44447266 -56.79355469 69.07644531 -57.42773438 68.69726562 C-58.94716109 67.790321 -60.47299033 66.89411832 -62 66 C-61.90234375 63.76953125 -61.90234375 63.76953125 -61 61 C-58.84357638 59.31886975 -56.91567295 58.01383385 -54.5625 56.6875 C-53.96373047 56.32849609 -53.36496094 55.96949219 -52.74804688 55.59960938 C-48.32623512 53 -48.32623512 53 -46 53 C-46 52.34 -46 51.68 -46 51 C-46.70511719 50.74476562 -47.41023438 50.48953125 -48.13671875 50.2265625 C-51.2696348 48.88449478 -53.95714425 47.23270133 -56.8125 45.375 C-57.78832031 44.74335937 -58.76414063 44.11171875 -59.76953125 43.4609375 C-60.50558594 42.97882813 -61.24164063 42.49671875 -62 42 C-61.70210122 38.8679022 -61.46781901 37.41241706 -59.06420898 35.29345703 C-58.21673096 34.78669434 -57.36925293 34.27993164 -56.49609375 33.7578125 C-55.06076294 32.88189453 -55.06076294 32.88189453 -53.59643555 31.98828125 C-52.03276245 31.06595703 -52.03276245 31.06595703 -50.4375 30.125 C-48.24452867 28.79470428 -46.0518282 27.46396197 -43.859375 26.1328125 C-42.7156663 25.4453526 -41.57178497 24.75817983 -40.42773438 24.07128906 C-34.97027256 20.7852794 -29.58315763 17.38613118 -24.1875 14 C-21.37958502 12.24709017 -18.57157177 10.49433912 -15.76318359 8.7421875 C-13.80981582 7.51058895 -11.86565706 6.26432695 -9.92822266 5.0078125 C-8.93741699 4.36585937 -7.94661133 3.72390625 -6.92578125 3.0625 C-6.02899658 2.47597656 -5.13221191 1.88945313 -4.20825195 1.28515625 C-2 0 -2 0 0 0 Z " fill="#B3B4D3" transform="translate(98,38)"/>
<path d="M0 0 C4.58713156 1.83485263 6.10532065 2.74746543 9.36328125 6.10546875 C10.16830078 6.92466797 10.97332031 7.74386719 11.80273438 8.58789062 C12.63095703 9.44576172 13.45917969 10.30363281 14.3125 11.1875 C19.43236763 16.4447595 24.5463102 21.57454096 30.12182617 26.34887695 C33.23176467 29.08285772 36.10469862 32.04245169 39 35 C44.40881699 40.47530385 44.40881699 40.47530385 50.125 45.625 C53.70106212 48.69243184 57.15758929 51.86962596 60.5625 55.125 C61.11244629 55.62854004 61.66239258 56.13208008 62.22900391 56.65087891 C63.75390625 58.1328125 63.75390625 58.1328125 66 61 C65.81617037 65.50014932 63.94224212 67.54199429 60.80859375 70.6171875 C59.94556641 71.47183594 59.08253906 72.32648438 58.19335938 73.20703125 C57.28392578 74.08746094 56.37449219 74.96789062 55.4375 75.875 C54.11395508 77.18404297 54.11395508 77.18404297 52.76367188 78.51953125 C48.24984154 82.95662981 43.64752979 87.2309025 38.85180664 91.35986328 C35.75927319 94.09890609 32.8886627 97.04924187 30 100 C25.84461027 104.20366357 21.67075526 108.26394547 17.14453125 112.0703125 C13.3904897 115.4482661 9.8967602 119.10190157 6.39038086 122.73461914 C4.9630536 124.19268292 3.48525989 125.60099458 2 127 C1.34 127 0.68 127 0 127 C0 85.09 0 43.18 0 0 Z " fill="#6868A8" transform="translate(107,39)"/>
<path d="M0 0 C0 26.4 0 52.8 0 80 C-4.5852383 78.47158723 -7.2241371 77.43216929 -11.0546875 74.875 C-11.9923999 74.2550415 -12.9301123 73.63508301 -13.89624023 72.99633789 C-14.87923096 72.33754639 -15.86222168 71.67875488 -16.875 71 C-18.92497182 69.6433074 -20.97575816 68.28784477 -23.02734375 66.93359375 C-24.03522949 66.2669873 -25.04311523 65.60038086 -26.08154297 64.91357422 C-30.16359803 62.23705192 -34.2906405 59.63714051 -38.4375 57.0625 C-39.11087402 56.64419922 -39.78424805 56.22589844 -40.47802734 55.79492188 C-41.98412245 54.86129557 -43.49184015 53.93028728 -45 53 C-43.87921613 49.63764838 -43.54265017 49.4429279 -40.62109375 47.80859375 C-39.94755859 47.42123047 -39.27402344 47.03386719 -38.58007812 46.63476562 C-37.51950195 46.04211914 -37.51950195 46.04211914 -36.4375 45.4375 C-33.90513226 44.01634349 -31.45535399 42.55712581 -29 41 C-29 40.34 -29 39.68 -29 39 C-31.30676114 37.27939341 -31.30676114 37.27939341 -34.1875 35.5625 C-35.15042969 34.96566406 -36.11335938 34.36882812 -37.10546875 33.75390625 C-39.00474835 32.60306072 -40.9240009 31.48442515 -42.86328125 30.40234375 C-43.56839844 29.93957031 -44.27351563 29.47679688 -45 29 C-45 28.34 -45 27.68 -45 27 C-43.09838867 25.58642578 -43.09838867 25.58642578 -40.41796875 23.9453125 C-39.43135254 23.3356665 -38.44473633 22.72602051 -37.42822266 22.09790039 C-35.82406494 21.1213147 -35.82406494 21.1213147 -34.1875 20.125 C-31.9905117 18.77274239 -29.79390225 17.41986911 -27.59765625 16.06640625 C-26.49180176 15.38723145 -25.38594727 14.70805664 -24.24658203 14.00830078 C-21.23047071 12.1425667 -18.23389251 10.25050517 -15.24609375 8.33984375 C-14.37766846 7.78474121 -13.50924316 7.22963867 -12.61450195 6.65771484 C-10.97966928 5.61015216 -9.34663136 4.55978223 -7.71557617 3.50634766 C-6.98701416 3.04147949 -6.25845215 2.57661133 -5.5078125 2.09765625 C-4.87504395 1.69039307 -4.24227539 1.28312988 -3.59033203 0.86352539 C-2 0 -2 0 0 0 Z " fill="#8C8DBD" transform="translate(98,62)"/>
<path d="M0 0 C7.39411763 4.19524404 14.5010672 8.58107943 21.50390625 13.3984375 C23.97466665 15.12831114 23.97466665 15.12831114 27 16 C27 23.92 27 31.84 27 40 C22.4147617 38.47158723 19.7758629 37.43216929 15.9453125 34.875 C14.5387439 33.94506226 14.5387439 33.94506226 13.10375977 32.99633789 C12.12076904 32.33754639 11.13777832 31.67875488 10.125 31 C8.07502818 29.6433074 6.02424184 28.28784477 3.97265625 26.93359375 C2.96477051 26.2669873 1.95688477 25.60038086 0.91845703 24.91357422 C-3.16359803 22.23705192 -7.2906405 19.63714051 -11.4375 17.0625 C-12.44756104 16.43504883 -12.44756104 16.43504883 -13.47802734 15.79492188 C-14.98412245 14.86129557 -16.49184015 13.93028728 -18 13 C-16.83599063 9.50797189 -16.25731614 9.27269143 -13.18359375 7.51953125 C-12.41982422 7.07802734 -11.65605469 6.63652344 -10.86914062 6.18164062 C-10.06669922 5.72982422 -9.26425781 5.27800781 -8.4375 4.8125 C-7.63119141 4.34908203 -6.82488281 3.88566406 -5.99414062 3.40820312 C-4.00057554 2.26396754 -2.00257569 1.12836769 0 0 Z " fill="#8C8DBD" transform="translate(71,102)"/>
<path d="M0 0 C0 10.56 0 21.12 0 32 C-3.5837842 31.10405395 -5.42046383 30.28488427 -8.44140625 28.34765625 C-9.27220703 27.81849609 -10.10300781 27.28933594 -10.95898438 26.74414062 C-11.81814453 26.18919922 -12.67730469 25.63425781 -13.5625 25.0625 C-14.42552734 24.51142578 -15.28855469 23.96035156 -16.17773438 23.39257812 C-19.46987439 21.28734795 -22.74853502 19.16764332 -26 17 C-26 16.34 -26 15.68 -26 15 C-24.33520508 13.71899414 -24.33520508 13.71899414 -22.01953125 12.28515625 C-21.18486328 11.76373047 -20.35019531 11.24230469 -19.49023438 10.70507812 C-18.16475586 9.89200195 -18.16475586 9.89200195 -16.8125 9.0625 C-15.94818359 8.52431641 -15.08386719 7.98613281 -14.19335938 7.43164062 C-12.52731087 6.39626489 -10.85831153 5.36561846 -9.18603516 4.34033203 C-7.45429085 3.27854107 -5.73137994 2.20234477 -4.01171875 1.12109375 C-2 0 -2 0 0 0 Z " fill="#797AB2" transform="translate(98,86)"/>
</svg>
