<?xml version="1.0" encoding="UTF-8"?>
<svg version="1.1" xmlns="http://www.w3.org/2000/svg" width="200" height="200">
<path d="M0 0 C1.25296875 0.4125 2.5059375 0.825 3.796875 1.25 C28.74462541 10.06760046 48.21993996 28.50355897 60.08447266 52.01074219 C70.70512729 75.08730057 73.09510894 102.81586203 65 127 C64.5875 128.25296875 64.175 129.5059375 63.75 130.796875 C54.93239954 155.74462541 36.49644103 175.21993996 12.98925781 187.08447266 C-10.08730057 197.70512729 -37.81586203 200.09510894 -62 192 C-63.87945312 191.38125 -63.87945312 191.38125 -65.796875 190.75 C-90.74462541 181.93239954 -110.21993996 163.49644103 -122.08447266 139.98925781 C-132.70512729 116.91269943 -135.09510894 89.18413797 -127 65 C-126.5875 63.74703125 -126.175 62.4940625 -125.75 61.203125 C-116.93239954 36.25537459 -98.49644103 16.78006004 -74.98925781 4.91552734 C-51.91269943 -5.70512729 -24.18413797 -8.09510894 0 0 Z " fill="#FEFEFE" transform="translate(131,4)"/>
<path d="M0 0 C4.50388294 1.33580835 8.18856363 3.13664386 12.18359375 5.59765625 C12.75603317 5.94782303 13.3284726 6.29798981 13.91825867 6.6587677 C15.76144885 7.78784395 17.59942627 8.92511751 19.4375 10.0625 C20.71233215 10.84520869 21.98756193 11.62727009 23.26318359 12.40869141 C25.74930075 13.93211667 28.2338915 15.45797941 30.71728516 16.98583984 C34.50405288 19.30926939 38.30829193 21.60122799 42.125 23.875 C49.60903934 28.35512447 57.05596589 32.89470745 64.48925781 37.45849609 C66.26413241 38.54820421 68.03957897 39.63698101 69.81542969 40.72509766 C72.71219681 42.50114357 75.60640435 44.28129262 78.5 46.0625 C79.41475098 46.62291992 80.32950195 47.18333984 81.27197266 47.76074219 C82.12065918 48.28442383 82.9693457 48.80810547 83.84375 49.34765625 C84.97586914 50.04387085 84.97586914 50.04387085 86.13085938 50.75415039 C88 52 88 52 90 54 C90.63676845 59.63994911 90.63676845 59.63994911 90 62 C86.67764055 64.90660008 83.14681298 67.23900145 79.37109375 69.51171875 C78.26813965 70.17824463 77.16518555 70.84477051 76.02880859 71.53149414 C74.83171381 72.25017623 73.63461072 72.96884447 72.4375 73.6875 C71.18547627 74.44289134 69.9336901 75.19867655 68.68212891 75.95483398 C66.0821664 77.52518012 63.48119395 79.0938321 60.87939453 80.66113281 C55.44823149 83.93394547 50.02637759 87.2220506 44.60598755 90.51266479 C42.87755601 91.56094979 41.14776015 92.60695262 39.41772461 93.65258789 C33.44397197 97.26796809 27.50421046 100.92970963 21.6015625 104.66015625 C19.8103308 105.78588925 18.01855445 106.91075028 16.22662354 108.03536987 C14.53575658 109.10243489 12.85345967 110.18304165 11.17138672 111.26391602 C9.64795654 112.21995728 9.64795654 112.21995728 8.09375 113.1953125 C6.75860352 114.04633545 6.75860352 114.04633545 5.39648438 114.91455078 C3 116 3 116 0.75976562 115.80419922 C-1.61907087 114.71708942 -2.07778305 113.38239378 -3 111 C-2.23816406 110.36835938 -1.47632813 109.73671875 -0.69140625 109.0859375 C10.24264596 99.7301425 18.06871321 89.0548595 22 75 C22.35320312 73.75992188 22.70640625 72.51984375 23.0703125 71.2421875 C26.90910145 55.5221348 23.40976977 39.7483313 15.875 25.75 C11.32299558 18.43069774 5.21494652 10.80996435 -2 6 C-1.125 1.125 -1.125 1.125 0 0 Z " fill="#547FE2" transform="translate(61,42)"/>
</svg>
