<?xml version="1.0" encoding="UTF-8"?>
<svg version="1.1" xmlns="http://www.w3.org/2000/svg" width="128" height="128">
<path d="M0 0 C0.84600276 2.0364495 1.6762825 4.07943487 2.5 6.125 C2.9640625 7.26195312 3.428125 8.39890625 3.90625 9.5703125 C4.98315041 12.9471645 5.21360807 15.48614728 5 19 C5.66 19 6.32 19 7 19 C8.18295033 22.03557999 9.34335269 25.07931093 10.5 28.125 C10.83386719 28.9809375 11.16773438 29.836875 11.51171875 30.71875 C13.23859394 35.3002556 14.45737699 39.0178578 14 44 C14.66 44 15.32 44 16 44 C16.19335938 44.69867188 16.38671875 45.39734375 16.5859375 46.1171875 C16.84632812 47.02726562 17.10671875 47.93734375 17.375 48.875 C17.63023438 49.77992187 17.88546875 50.68484375 18.1484375 51.6171875 C18.8604315 54.14569726 18.8604315 54.14569726 21 56 C23.06874034 56.6425235 23.06874034 56.6425235 25 57 C25 58.32 25 59.64 25 61 C16.42 61 7.84 61 -1 61 C0 57 0 57 2 55 C2.99 55 3.98 55 5 55 C4.71125 54.11957031 4.4225 53.23914063 4.125 52.33203125 C3.75375 51.17058594 3.3825 50.00914063 3 48.8125 C2.62875 47.66394531 2.2575 46.51539063 1.875 45.33203125 C1.09369447 42.35679188 0.81636694 40.04716104 1 37 C0.34 37 -0.32 37 -1 37 C-2.98 31.72 -4.96 26.44 -7 21 C-8.07008171 23.90844251 -8.07008171 23.90844251 -8.37890625 26.6953125 C-9.12203275 30.64930634 -10.457049 34.14724567 -11.9375 37.875 C-14.04614331 43.20047872 -15.70671961 48.41452817 -17 54 C-16.01 54.66 -15.02 55.32 -14 56 C-13.67 57.65 -13.34 59.3 -13 61 C-20.59 61 -28.18 61 -36 61 C-36 59.68 -36 58.36 -36 57 C-33.525 56.505 -33.525 56.505 -31 56 C-31 55.34 -31 54.68 -31 54 C-30.31659546 53.33206421 -30.31659546 53.33206421 -29.61938477 52.65063477 C-27.72933592 50.7241128 -27.04719529 49.10590352 -26.08984375 46.58984375 C-25.7446167 45.69418701 -25.39938965 44.79853027 -25.04370117 43.87573242 C-24.67865479 42.90611572 -24.3136084 41.93649902 -23.9375 40.9375 C-23.55118408 39.93630127 -23.16486816 38.93510254 -22.7668457 37.90356445 C-20.57425762 32.20774977 -18.4397445 26.49189449 -16.328125 20.765625 C-15.88734619 19.58492432 -15.44656738 18.40422363 -14.99243164 17.18774414 C-14.13270349 14.8816782 -13.28520753 12.57100933 -12.45092773 10.25561523 C-12.05848877 9.20575439 -11.6660498 8.15589355 -11.26171875 7.07421875 C-10.92100342 6.14182373 -10.58028809 5.20942871 -10.22924805 4.2487793 C-7.87306035 -0.0616169 -4.60498378 -0.25583243 0 0 Z M-9 5 C-8 7 -8 7 -8 7 Z M0 5 C1 7 1 7 1 7 Z M1 8 C2 10 2 10 2 10 Z M-11 10 C-10 13 -10 13 -10 13 Z M2 11 C3 13 3 13 3 13 Z M-14 18 C-13 20 -13 20 -13 20 Z M-6 18 C-5 20 -5 20 -5 20 Z M-5 20 C-4 22 -4 22 -4 22 Z M-15 21 C-14 23 -14 23 -14 23 Z M6 22 C7 24 7 24 7 24 Z M-16 23 C-15 25 -15 25 -15 25 Z M-4 23 C-3 25 -3 25 -3 25 Z M-3 26 C-2 28 -2 28 -2 28 Z M-11 27 C-10 29 -10 29 -10 29 Z M-2 29 C-1 31 -1 31 -1 31 Z M-12 30 C-11 32 -11 32 -11 32 Z M-1 31 C0 34 0 34 0 34 Z M10 33 C11 35 11 35 11 35 Z M11 36 C12 38 12 38 12 38 Z M-15 38 C-14 40 -14 40 -14 40 Z M-16 41 C-15 43 -15 43 -15 43 Z M3 43 C4 45 4 45 4 45 Z M-17 44 C-16 46 -16 46 -16 46 Z M-25 46 C-24 48 -24 48 -24 48 Z M-18 46 C-17 49 -17 49 -17 49 Z M4 46 C5 48 5 48 5 48 Z M15 47 C16 49 16 49 16 49 Z M5 49 C6 51 6 51 6 51 Z M-19 50 C-18 53 -18 53 -18 53 Z M16 50 C17 52 17 52 17 52 Z M6 52 C7 54 7 54 7 54 Z " fill="#1B1B1B" transform="translate(69,29)"/>
<path d="M0 0 C0.66 1.32 1.32 2.64 2 4 C1.67 4.33 1.34 4.66 1 5 C0.95936168 6.66617115 0.957279 8.33388095 1 10 C1.99 10.33 2.98 10.66 4 11 C4.33 13.31 4.66 15.62 5 18 C4.01 17.34 3.02 16.68 2 16 C1.92523438 16.680625 1.85046875 17.36125 1.7734375 18.0625 C0.80183044 25.22572066 -1.10567958 31.5475044 -3.79150391 38.21484375 C-5.60947341 42.7557378 -6.89788868 47.23124909 -8 52 C-7.01 52.66 -6.02 53.32 -5 54 C-4.67 55.65 -4.34 57.3 -4 59 C-11.59 59 -19.18 59 -27 59 C-27 57.68 -27 56.36 -27 55 C-24.525 54.505 -24.525 54.505 -22 54 C-22 53.34 -22 52.68 -22 52 C-21.31659546 51.33206421 -21.31659546 51.33206421 -20.61938477 50.65063477 C-18.72933592 48.7241128 -18.04719529 47.10590352 -17.08984375 44.58984375 C-16.74429443 43.69402588 -16.39874512 42.79820801 -16.04272461 41.87524414 C-15.67800049 40.90578857 -15.31327637 39.93633301 -14.9375 38.9375 C-14.55408447 37.93775146 -14.17066895 36.93800293 -13.77563477 35.90795898 C-12.9499911 33.75337629 -12.12777444 31.59747792 -11.30859375 29.44042969 C-9.94479207 25.85485257 -8.56785799 22.27454654 -7.1875 18.6953125 C-4.78513557 12.46603849 -2.39015235 6.23396902 0 0 Z M-2 8 C-1 11 -1 11 -1 11 Z M-5 16 C-4 18 -4 18 -4 18 Z M-6 19 C-5 21 -5 21 -5 21 Z M-7 21 C-6 23 -6 23 -6 23 Z M-2 25 C-1 27 -1 27 -1 27 Z M-3 28 C-2 30 -2 30 -2 30 Z M-6 36 C-5 38 -5 38 -5 38 Z M-7 39 C-6 41 -6 41 -6 41 Z M-8 42 C-7 44 -7 44 -7 44 Z M-16 44 C-15 46 -15 46 -15 46 Z M-9 44 C-8 47 -8 47 -8 47 Z M-10 48 C-9 51 -9 51 -9 51 Z " fill="#222222" transform="translate(60,31)"/>
<path d="M0 0 C0.66 1.32 1.32 2.64 2 4 C1.67 4.33 1.34 4.66 1 5 C0.95936168 6.66617115 0.957279 8.33388095 1 10 C1.99 10.33 2.98 10.66 4 11 C4.33 13.31 4.66 15.62 5 18 C4.01 17.34 3.02 16.68 2 16 C1.90203125 16.75023438 1.8040625 17.50046875 1.703125 18.2734375 C0.67039292 25.34231054 -1.03790423 31.50064424 -4 38 C-4.66 37.34 -5.32 36.68 -6 36 C-5.79296875 33.79296875 -5.79296875 33.79296875 -5.1875 31.1875 C-4.89939453 29.90939453 -4.89939453 29.90939453 -4.60546875 28.60546875 C-4.40566406 27.74566406 -4.20585938 26.88585937 -4 26 C-3.66135207 24.33440507 -3.32641968 22.6680345 -3 21 C-3.2475 21.639375 -3.495 22.27875 -3.75 22.9375 C-5 25 -5 25 -7.125 25.75 C-8.053125 25.87375 -8.053125 25.87375 -9 26 C-8.37658609 22.4617797 -7.44678155 19.26706972 -6.15234375 15.91796875 C-5.79462891 14.98662109 -5.43691406 14.05527344 -5.06835938 13.09570312 C-4.69517578 12.13599609 -4.32199219 11.17628906 -3.9375 10.1875 C-3.56044922 9.20845703 -3.18339844 8.22941406 -2.79492188 7.22070312 C-1.86684405 4.8123999 -0.93509884 2.40558386 0 0 Z M-2 8 C-1 11 -1 11 -1 11 Z M-5 16 C-4 18 -4 18 -4 18 Z M-6 19 C-5 21 -5 21 -5 21 Z M-7 21 C-6 23 -6 23 -6 23 Z M-2 25 C-1 27 -1 27 -1 27 Z M-3 28 C-2 30 -2 30 -2 30 Z " fill="#404040" transform="translate(60,31)"/>
<path d="M0 0 C0.66 0 1.32 0 2 0 C2.125 2.875 2.125 2.875 2 6 C1.34 6.66 0.68 7.32 0 8 C-0.99 8 -1.98 8 -3 8 C-3 8.66 -3 9.32 -3 10 C3.93 10 10.86 10 18 10 C18 9.34 18 8.68 18 8 C16.35 8 14.7 8 13 8 C13 7.34 13 6.68 13 6 C15.97 6.495 15.97 6.495 19 7 C19 8.32 19 9.64 19 11 C10.42 11 1.84 11 -7 11 C-6 7 -6 7 -4 5 C-3.01 5 -2.02 5 -1 5 C-0.67 3.35 -0.34 1.7 0 0 Z M0 2 C1 4 1 4 1 4 Z " fill="#606060" transform="translate(75,79)"/>
<path d="M0 0 C0.99 0 1.98 0 3 0 C1.14032256 6.86650131 -1.32376271 13.41233898 -4 20 C-4.66 19.34 -5.32 18.68 -6 18 C-5.59204863 13.82406139 -3.96594082 10.06738823 -2.4375 6.1875 C-1.75494141 4.44533203 -1.75494141 4.44533203 -1.05859375 2.66796875 C-0.70925781 1.78753906 -0.35992187 0.90710937 0 0 Z " fill="#585858" transform="translate(50,57)"/>
<path d="M0 0 C0.99 0 1.98 0 3 0 C2.39363767 5.76044212 0.24341721 10.72014369 -2 16 C-2.66 15.34 -3.32 14.68 -4 14 C-3.828125 11.7578125 -3.828125 11.7578125 -3.25 9.125 C-3.06953125 8.26132812 -2.8890625 7.39765625 -2.703125 6.5078125 C-2.03785668 4.13502215 -1.18243615 2.15443875 0 0 Z M0 3 C1 5 1 5 1 5 Z M-1 6 C0 8 0 8 0 8 Z " fill="#505050" transform="translate(58,53)"/>
<path d="M0 0 C0.99 0 1.98 0 3 0 C3.70088156 1.74468372 4.38524009 3.49601161 5.0625 5.25 C5.44535156 6.22453125 5.82820313 7.1990625 6.22265625 8.203125 C7.01113787 11.04007395 7.02437812 12.29409552 6 15 C5.34 15 4.68 15 4 15 C3.4838106 12.419053 2.97611597 9.84987184 2.5625 7.25 C2.376875 6.5075 2.19125 5.765 2 5 C1.34 4.67 0.68 4.34 0 4 C0 2.68 0 1.36 0 0 Z " fill="#5C5C5C" transform="translate(73,48)"/>
<path d="M0 0 C7.59 0 15.18 0 23 0 C23 0.33 23 0.66 23 1 C15.41 1 7.82 1 0 1 C0 0.67 0 0.34 0 0 Z " fill="#080808" transform="translate(71,91)"/>
<path d="M0 0 C6.6 0 13.2 0 20 0 C20 0.33 20 0.66 20 1 C13.4 1 6.8 1 0 1 C0 0.67 0 0.34 0 0 Z " fill="#000000" transform="translate(35,91)"/>
<path d="M0 0 C0.66 0.99 1.32 1.98 2 3 C1.125 6.6875 1.125 6.6875 0 10 C-0.66 9.34 -1.32 8.68 -2 8 C-1.63723355 5.17042171 -0.90305236 2.70915709 0 0 Z " fill="#4B4B4B" transform="translate(57,39)"/>
<path d="M0 0 C0.66 1.32 1.32 2.64 2 4 C1.67 4.33 1.34 4.66 1 5 C0.63557767 6.66014616 0.30027117 8.32706064 0 10 C-0.66 9.34 -1.32 8.68 -2 8 C-1.69347955 5.0574037 -1.32728846 2.65457692 0 0 Z " fill="#4E4E4E" transform="translate(60,31)"/>
<path d="M0 0 C1 4 1 4 1 4 Z " fill="#3F3F3F" transform="translate(95,86)"/>
<path d="M0 0 C4 1 4 1 4 1 Z " fill="#151515" transform="translate(90,84)"/>
<path d="" fill="#000000" transform="translate(0,0)"/>
<path d="M0 0 C3 1 3 1 3 1 Z " fill="#464646" transform="translate(35,84)"/>
<path d="" fill="#555555" transform="translate(0,0)"/>
<path d="" fill="#555555" transform="translate(0,0)"/>
<path d="" fill="#6A6A6A" transform="translate(0,0)"/>
<path d="" fill="#555555" transform="translate(0,0)"/>
<path d="M0 0 C3 1 3 1 3 1 Z " fill="#717171" transform="translate(64,27)"/>
<path d="M0 0 C2 1 2 1 2 1 Z " fill="#909090" transform="translate(88,83)"/>
<path d="" fill="#7F7F7F" transform="translate(0,0)"/>
<path d="" fill="#000000" transform="translate(0,0)"/>
<path d="" fill="#555555" transform="translate(0,0)"/>
</svg>
