<?xml version="1.0" encoding="UTF-8"?>
<svg version="1.1" xmlns="http://www.w3.org/2000/svg" width="64" height="64">
<path d="M0 0 C21.12 0 42.24 0 64 0 C64 21.12 64 42.24 64 64 C42.88 64 21.76 64 0 64 C0 42.88 0 21.76 0 0 Z " fill="#A56F24" transform="translate(0,0)"/>
<path d="M0 0 C21.12 0 42.24 0 64 0 C64 21.12 64 42.24 64 64 C42.88 64 21.76 64 0 64 C0 42.88 0 21.76 0 0 Z M12 14 C11.28143888 16.08405461 11.28143888 16.08405461 11 18 C10.34 18 9.68 18 9 18 C5.18827476 24.67051918 5.20788285 31.46183019 6 39 C6.92087073 42.03178977 8.18517732 44.41639827 10 47 C10.5775 47.886875 11.155 48.77375 11.75 49.6875 C16.30279986 54.36676652 21.38185028 57.61069708 28 58 C28.83660156 58.061875 29.67320313 58.12375 30.53515625 58.1875 C37.08191458 58.47566543 41.52361081 57.60915351 47 54 C47.886875 53.4225 48.77375 52.845 49.6875 52.25 C55.5181377 46.5769471 58.14416225 40.52569959 58.375 32.4375 C58.30251756 24.63355725 56.6283299 18.88749632 51.25 13.125 C44.8953785 7.42775314 38.7276829 5.63766861 30.140625 5.78515625 C23.0883121 6.49296138 17.32837873 9.4486765 12 14 Z " fill="#020100" transform="translate(0,0)"/>
<path d="M0 0 C4.80602653 3.85049763 7.87333807 8.55751422 9.8125 14.375 C10.4459921 22.54808663 10.63124413 29.51498231 5.8125 36.375 C5.235 37.261875 4.6575 38.14875 4.0625 39.0625 C-0.1330126 43.37455462 -5.57490766 47.13453333 -11.7109375 47.54296875 C-12.65195312 47.54941406 -13.59296875 47.55585937 -14.5625 47.5625 C-15.49835937 47.57667969 -16.43421875 47.59085938 -17.3984375 47.60546875 C-20.43006149 47.3549564 -22.50105589 46.79831196 -25.1875 45.375 C-26.92642697 43.17269134 -27.9214412 40.90711761 -29.1875 38.375 C-28.61902344 38.5915625 -28.05054688 38.808125 -27.46484375 39.03125 C-21.81376156 41.0690359 -16.592192 42.77179672 -10.75 40.375 C-9.9765625 39.88 -9.9765625 39.88 -9.1875 39.375 C-10.8375 37.065 -12.4875 34.755 -14.1875 32.375 C-10.2275 32.375 -6.2675 32.375 -2.1875 32.375 C-2.1875 33.035 -2.1875 33.695 -2.1875 34.375 C2.34086135 30.45042016 3.58837536 26.84037105 4.125 20.9375 C3.57809623 14.70279705 1.08377358 9.89752497 -3.1875 5.375 C-8.64819789 1.55251148 -13.63591201 0.79770843 -20.1875 1.375 C-22.59307853 2.23765968 -22.59307853 2.23765968 -24.1875 3.375 C-23.5275 3.705 -22.8675 4.035 -22.1875 4.375 C-21.46590576 6.01863134 -20.79398579 7.68550386 -20.1875 9.375 C-24.6425 9.87 -24.6425 9.87 -29.1875 10.375 C-29.1875 9.715 -29.1875 9.055 -29.1875 8.375 C-28.5275 8.045 -27.8675 7.715 -27.1875 7.375 C-27.8475 6.715 -28.5075 6.055 -29.1875 5.375 C-33.57305881 10.5604406 -35.98852978 14.66076679 -37.1875 21.375 C-39.07111553 18.54957671 -39.50652686 17.56440682 -39.875 14.375 C-39.96136719 13.694375 -40.04773437 13.01375 -40.13671875 12.3125 C-40.1875 10.375 -40.1875 10.375 -39.1875 7.375 C-38.5275 7.375 -37.8675 7.375 -37.1875 7.375 C-37.06761719 6.48167969 -37.06761719 6.48167969 -36.9453125 5.5703125 C-35.47302655 1.30523672 -30.96934965 -0.53422133 -27.1875 -2.625 C-18.03327788 -6.15820854 -8.12516756 -5.60987178 0 0 Z " fill="#F9CF78" transform="translate(48.1875,10.625)"/>
<path d="M0 0 C6.08270911 3.26664008 10.6165065 7.01660864 13.0625 13.6875 C13.97450153 19.88911043 13.4513901 25.31618798 10.375 30.8125 C8.1875 32.3125 8.1875 32.3125 6.375 32.8125 C6.375 32.1525 6.375 31.4925 6.375 30.8125 C0.93 31.3075 0.93 31.3075 -4.625 31.8125 C-2.69923885 34.25179746 -0.82409405 36.61340595 1.375 38.8125 C-4.4924 41.10221707 -9.54264112 41.86991953 -15.4375 39.375 C-17.16925786 38.52609909 -18.89997987 37.67501006 -20.625 36.8125 C-20.295 35.8225 -19.965 34.8325 -19.625 33.8125 C-20.12 32.3275 -20.12 32.3275 -20.625 30.8125 C-17.655 30.8125 -14.685 30.8125 -11.625 30.8125 C-10.965 29.4925 -10.305 28.1725 -9.625 26.8125 C-7 24.5625 -7 24.5625 -4.625 22.8125 C-4.625 25.1225 -4.625 27.4325 -4.625 29.8125 C-1.655 29.8125 1.315 29.8125 4.375 29.8125 C4.375 22.8825 4.375 15.9525 4.375 8.8125 C-4.26797257 7.76283025 -4.26797257 7.76283025 -7.6875 11.8125 C-8.326875 12.8025 -8.96625 13.7925 -9.625 14.8125 C-10.615 14.4825 -11.605 14.1525 -12.625 13.8125 C-11.305 12.4925 -9.985 11.1725 -8.625 9.8125 C-12.255 9.4825 -15.885 9.1525 -19.625 8.8125 C-19.625 8.4825 -19.625 8.1525 -19.625 7.8125 C-16.16 7.3175 -16.16 7.3175 -12.625 6.8125 C-14.89915287 3.44161733 -14.89915287 3.44161733 -18.625 1.8125 C-12.01378351 -1.49310824 -7.11325271 -2.33020347 0 0 Z " fill="#A26A1B" transform="translate(39.625,12.1875)"/>
<path d="M0 0 C3.3 0.33 6.6 0.66 10 1 C10 7.93 10 14.86 10 22 C7.03 22 4.06 22 1 22 C0.67 20.68 0.34 19.36 0 18 C-3.18234105 19.75454385 -3.18234105 19.75454385 -6 22 C-8.67058851 22.14115161 -11.32432238 22.04247107 -14 22 C-14.61938706 19.08888084 -14.85054123 17.79756333 -14 15 C-11.66454508 12.47211059 -9.14297552 10.34896984 -6.4921875 8.15625 C-3.59411695 5.64882846 -1.86684738 3.30941126 0 0 Z " fill="#FDF1DB" transform="translate(34,20)"/>
<path d="M0 0 C0 2.31 0 4.62 0 7 C2.97 7 5.94 7 9 7 C9.33 5.68 9.66 4.36 10 3 C10 4.65 10 6.3 10 8 C6.7 8.33 3.4 8.66 0 9 C1.92576115 11.43929746 3.80090595 13.80090595 6 16 C0.1326 18.28971707 -4.91764112 19.05741953 -10.8125 16.5625 C-12.54425786 15.71359909 -14.27497987 14.86251006 -16 14 C-15.67 13.01 -15.34 12.02 -15 11 C-15.33 10.01 -15.66 9.02 -16 8 C-13.03 8 -10.06 8 -7 8 C-6.34 6.68 -5.68 5.36 -5 4 C-1.33333333 0 -1.33333333 0 0 0 Z " fill="#B17723" transform="translate(35,35)"/>
<path d="M0 0 C2.75829268 2.75829268 3.23421315 5.96643519 4.25 9.625 C5.91741822 15.30883625 7.65443611 19.7686481 11.57421875 24.31640625 C13.82467453 26.97379376 15.3455395 29.94561138 17 33 C8.92353244 30.74610208 4.46915895 26.14465967 0.25 19.0625 C-2.04151522 13.4707047 -1.41231382 6.91511747 -1 1 C-0.67 0.67 -0.34 0.34 0 0 Z " fill="#D69639" transform="translate(7,24)"/>
<path d="M0 0 C3.3 0.33 6.6 0.66 10 1 C10 7.93 10 14.86 10 22 C9.67 22 9.34 22 9 22 C8.7525 20.5459375 8.7525 20.5459375 8.5 19.0625 C6.76798968 12.82216871 1.45179228 8.45179228 -3 4 C-2.01 2.68 -1.02 1.36 0 0 Z " fill="#F3CF80" transform="translate(34,20)"/>
<path d="M0 0 C0.56847656 0.2165625 1.13695313 0.433125 1.72265625 0.65625 C8.83700164 3.22169008 14.53686788 3.4562209 22 2 C22.99 3.65 23.98 5.3 25 7 C21.35883 8.66227326 18.49709631 9.2724556 14.5 9.25 C13.5821875 9.25515625 12.664375 9.2603125 11.71875 9.265625 C8.74141981 8.97473642 6.64700969 8.393163 4 7 C2.26107303 4.79769134 1.2660588 2.53211761 0 0 Z " fill="#F9CD71" transform="translate(19,49)"/>
<path d="M0 0 C2.60025916 0.91009071 3.76626458 1.77626765 5.5 3.875 C6.82 2.885 8.14 1.895 9.5 0.875 C9.3125 3.1875 9.3125 3.1875 8.5 5.875 C6 7.625 6 7.625 3.5 8.875 C3.17 9.205 2.84 9.535 2.5 9.875 C-0.17058851 10.01615161 -2.82432238 9.91747107 -5.5 9.875 C-5.86174071 3.48424751 -5.86174071 3.48424751 -4.3125 0.875 C-2.5 -0.125 -2.5 -0.125 0 0 Z " fill="#F4CB75" transform="translate(25.5,32.125)"/>
<path d="M0 0 C3.96 0 7.92 0 12 0 C12 0.66 12 1.32 12 2 C12.66 2.33 13.32 2.66 14 3 C9.79890881 6.96102884 9.79890881 6.96102884 6.4375 7.125 C3.01705372 5.54633249 1.84135063 3.20531406 0 0 Z " fill="#ECB668" transform="translate(34,43)"/>
<path d="M0 0 C2.97 0 5.94 0 9 0 C6.16666667 5.66666667 6.16666667 5.66666667 4 8 C2.68 8 1.36 8 0 8 C0 5.36 0 2.72 0 0 Z " fill="#FDE9BF" transform="translate(20,21)"/>
<path d="M0 0 C0.72159424 1.64363134 1.39351421 3.31050386 2 5 C-2.455 5.495 -2.455 5.495 -7 6 C-7 5.34 -7 4.68 -7 4 C-6.34 3.67 -5.68 3.34 -5 3 C-5.33 2.01 -5.66 1.02 -6 0 C-2.25 -1.125 -2.25 -1.125 0 0 Z " fill="#E0A347" transform="translate(26,15)"/>
<path d="M0 0 C2.64 0.33 5.28 0.66 8 1 C7.01 2.32 6.02 3.64 5 5 C2.5625 4.625 2.5625 4.625 0 4 C-0.33 3.34 -0.66 2.68 -1 2 C-0.67 1.34 -0.34 0.68 0 0 Z " fill="#DB9D41" transform="translate(38,45)"/>
<path d="M0 0 C1.5 1.375 1.5 1.375 3 3 C3 3.66 3 4.32 3 5 C1.35 5.66 -0.3 6.32 -2 7 C-2.66 5.68 -3.32 4.36 -4 3 C-2.68 2.01 -1.36 1.02 0 0 Z " fill="#FDDEAF" transform="translate(18,10)"/>
<path d="M0 0 C5.75 3.625 5.75 3.625 8 7 C4.0521912 7 2.81491174 5.66275435 0 3 C0 2.01 0 1.02 0 0 Z " fill="#935C0F" transform="translate(41,13)"/>
<path d="M0 0 C0.99 0.33 1.98 0.66 3 1 C2.67 3.31 2.34 5.62 2 8 C1.34 8 0.68 8 0 8 C-0.38063221 5.6739143 -0.71269945 3.33944736 -1 1 C-0.67 0.67 -0.34 0.34 0 0 Z " fill="#CB9340" transform="translate(12,27)"/>
</svg>
