<svg xmlns="http://www.w3.org/2000/svg" width="60" height="60" viewBox="0 0 60 60" version="1.1"><path d="M 17.500 14.863 C 15.300 15.864, 12.825 17.542, 12 18.592 C 10.622 20.345, 10.639 20.391, 12.206 19.164 C 13.145 18.429, 14.270 18.046, 14.706 18.312 C 15.143 18.578, 17.058 17.492, 18.962 15.898 C 22.998 12.520, 22.863 12.424, 17.500 14.863 M 38.566 14.893 C 38.262 15.385, 39.201 16.085, 40.652 16.449 C 42.651 16.950, 43.009 17.391, 42.131 18.269 C 41.276 19.124, 40.216 19.142, 38.086 18.339 C 35.439 17.339, 34.428 17.744, 25.850 23.236 C 20.708 26.528, 16.308 29.402, 16.073 29.621 C 15.125 30.508, 21.557 36.029, 24.777 37.091 C 30.143 38.862, 38.901 37.783, 40.924 35.101 C 41.843 33.883, 43.698 32.339, 45.047 31.669 C 48.584 29.912, 49.763 24.409, 47.584 19.819 C 45.532 15.493, 40.047 12.498, 38.566 14.893 M 15 17.500 C 15 17.775, 15.225 18, 15.500 18 C 15.775 18, 16 17.775, 16 17.500 C 16 17.225, 15.775 17, 15.500 17 C 15.225 17, 15 17.225, 15 17.500 M 50 29.916 C 48.243 30.420, 47.603 31.207, 47.845 32.566 C 48.319 35.222, 48.727 35.472, 50.368 34.110 C 51.419 33.237, 53.577 28.513, 52.656 29.100 C 52.570 29.155, 51.375 29.522, 50 29.916 M 5 42.500 C 5 42.775, 5.225 43, 5.500 43 C 5.775 43, 6 42.775, 6 42.500 C 6 42.225, 5.775 42, 5.500 42 C 5.225 42, 5 42.225, 5 42.500 M 46 42.500 C 46 42.775, 46.225 43, 46.500 43 C 46.775 43, 47 42.775, 47 42.500 C 47 42.225, 46.775 42, 46.500 42 C 46.225 42, 46 42.225, 46 42.500 M 50 48.500 C 50 48.775, 50.225 49, 50.500 49 C 50.775 49, 51 48.775, 51 48.500 C 51 48.225, 50.775 48, 50.500 48 C 50.225 48, 50 48.225, 50 48.500 M 13 52.500 C 13 52.775, 13.225 53, 13.500 53 C 13.775 53, 14 52.775, 14 52.500 C 14 52.225, 13.775 52, 13.500 52 C 13.225 52, 13 52.225, 13 52.500 M 19 55.500 C 19 55.775, 19.225 56, 19.500 56 C 19.775 56, 20 55.775, 20 55.500 C 20 55.225, 19.775 55, 19.500 55 C 19.225 55, 19 55.225, 19 55.500 M 40 55.500 C 40 55.775, 40.225 56, 40.500 56 C 40.775 56, 41 55.775, 41 55.500 C 41 55.225, 40.775 55, 40.500 55 C 40.225 55, 40 55.225, 40 55.500" stroke="none" fill="#04c8f3" fill-rule="evenodd"/><path d="M 22.325 11.136 C 22.639 12.335, 21.595 13.836, 19.146 15.707 C 17.141 17.239, 15.115 18.366, 14.645 18.211 C 14.174 18.057, 13.075 18.508, 12.203 19.215 C 10.900 20.270, 10.759 20.262, 11.417 19.169 C 11.858 18.437, 13.632 16.976, 15.359 15.923 C 17.087 14.869, 18.026 14.006, 17.447 14.004 C 15.016 13.995, 7.994 20.382, 6.073 24.348 C 1.973 32.818, 4.337 44.740, 11.273 50.576 C 23.428 60.804, 39.711 59.802, 50.905 48.138 L 55.356 43.500 50.314 42.985 C 44.972 42.439, 42.454 41.004, 41.486 37.955 C 40.998 36.419, 40.451 36.258, 38.382 37.045 C 34.752 38.425, 27.447 38.218, 23.718 36.629 C 20.587 35.295, 15.236 30.390, 16.079 29.628 C 16.311 29.419, 22.074 25.647, 28.886 21.246 L 41.272 13.245 37.488 11.996 C 35.406 11.309, 31.038 10.433, 27.781 10.049 C 22.405 9.415, 21.901 9.515, 22.325 11.136 M 19.333 13.667 C 19.700 14.033, 20.300 14.033, 20.667 13.667 C 21.033 13.300, 20.733 13, 20 13 C 19.267 13, 18.967 13.300, 19.333 13.667 M 42 14.500 C 42 14.775, 42.225 15, 42.500 15 C 42.775 15, 43 14.775, 43 14.500 C 43 14.225, 42.775 14, 42.500 14 C 42.225 14, 42 14.225, 42 14.500 M 44 15.500 C 44 15.775, 44.225 16, 44.500 16 C 44.775 16, 45 15.775, 45 15.500 C 45 15.225, 44.775 15, 44.500 15 C 44.225 15, 44 15.225, 44 15.500 M 37.052 16.947 C 35.921 17.662, 36.210 18.015, 38.375 18.558 C 39.901 18.941, 41.597 18.803, 42.149 18.251 C 42.819 17.581, 42.215 17.378, 40.326 17.638 C 37.935 17.968, 37.808 17.882, 39.500 17.084 C 40.857 16.444, 41.018 16.123, 40 16.086 C 39.175 16.055, 37.848 16.443, 37.052 16.947 M 46 17 C 46 17.733, 46.300 18.033, 46.667 17.667 C 47.033 17.300, 47.033 16.700, 46.667 16.333 C 46.300 15.967, 46 16.267, 46 17 M 15 17.500 C 15 17.775, 15.225 18, 15.500 18 C 15.775 18, 16 17.775, 16 17.500 C 16 17.225, 15.775 17, 15.500 17 C 15.225 17, 15 17.225, 15 17.500 M 48.572 22.195 C 48.986 24.625, 48.682 26.931, 47.682 28.936 C 46.789 30.727, 46.551 32.223, 47.106 32.565 C 47.625 32.886, 47.926 32.604, 47.775 31.938 C 47.624 31.272, 48.705 30.386, 50.178 29.969 C 52.870 29.207, 53.085 30.044, 51.095 33.547 C 50.768 34.123, 51.288 33.736, 52.250 32.686 C 54.936 29.758, 54.438 25.504, 50.971 21.766 L 47.943 18.500 48.572 22.195 M 43 32.500 C 43 32.775, 43.225 33, 43.500 33 C 43.775 33, 44 32.775, 44 32.500 C 44 32.225, 43.775 32, 43.500 32 C 43.225 32, 43 32.225, 43 32.500 M 41 34.500 C 41 34.775, 41.225 35, 41.500 35 C 41.775 35, 42 34.775, 42 34.500 C 42 34.225, 41.775 34, 41.500 34 C 41.225 34, 41 34.225, 41 34.500 M 47.333 35.667 C 47.700 36.033, 48.300 36.033, 48.667 35.667 C 49.033 35.300, 48.733 35, 48 35 C 47.267 35, 46.967 35.300, 47.333 35.667" stroke="none" fill="#04e4f5" fill-rule="evenodd"/></svg>