<?xml version="1.0" encoding="UTF-8"?>
<svg version="1.1" xmlns="http://www.w3.org/2000/svg" width="200" height="200">
<path d="M0 0 C2.82045877 2.30263418 5.56336058 4.67903285 8.27832031 7.10449219 C11.1535235 9.666713 11.1535235 9.666713 14.50878906 11.77246094 C17.18066406 13.58496094 17.18066406 13.58496094 17.86816406 15.77246094 C18.02285156 16.66964844 18.02285156 16.66964844 18.18066406 17.58496094 C19.17066406 17.91496094 20.16066406 18.24496094 21.18066406 18.58496094 C21.51066406 19.57496094 21.84066406 20.56496094 22.18066406 21.58496094 C22.78394531 22.1740625 23.38722656 22.76316406 24.00878906 23.37011719 C26.61161449 26.02443736 28.16331475 28.75588582 29.93066406 32.02246094 C30.85105469 33.69115234 30.85105469 33.69115234 31.79003906 35.39355469 C33.13514811 38.48050439 33.50200878 40.27881822 33.18066406 43.58496094 C33.84066406 43.58496094 34.50066406 43.58496094 35.18066406 43.58496094 C39.64424539 56.0781479 40.85665551 67.12735329 40.55566406 80.33496094 C40.53909422 82.04587815 40.52476266 83.75681854 40.51269531 85.46777344 C40.3702832 98.68935945 40.3702832 98.68935945 39.18066406 103.58496094 C38.52066406 103.58496094 37.86066406 103.58496094 37.18066406 103.58496094 C37.18066406 105.89496094 37.18066406 108.20496094 37.18066406 110.58496094 C36.52066406 110.58496094 35.86066406 110.58496094 35.18066406 110.58496094 C34.52066406 113.88496094 33.86066406 117.18496094 33.18066406 120.58496094 C32.52066406 120.58496094 31.86066406 120.58496094 31.18066406 120.58496094 C31.10589844 121.42542969 31.03113281 122.26589844 30.95410156 123.13183594 C30.00301116 127.37811833 28.20111083 130.25695184 25.80566406 133.83496094 C25.40605469 134.45886719 25.00644531 135.08277344 24.59472656 135.72558594 C22.64505024 138.70140769 21.175244 140.58857431 18.18066406 142.58496094 C17.87128906 143.24496094 17.56191406 143.90496094 17.24316406 144.58496094 C16.18066406 146.58496094 16.18066406 146.58496094 14.29394531 147.52246094 C12.05773456 148.64676653 10.95666201 149.72870379 9.30566406 151.58496094 C-7.5531495 168.76523493 -31.7922615 178.47350042 -55.67724609 178.87768555 C-83.14890277 179.03784131 -105.50892955 171.73865683 -126.31811523 153.40429688 C-129.3378039 150.75277047 -132.36813316 148.62599484 -135.81933594 146.58496094 C-136.52084746 145.26962683 -137.18459519 143.93378502 -137.81933594 142.58496094 C-139.08777344 141.37839844 -139.08777344 141.37839844 -140.38183594 140.14746094 C-142.93144067 137.46710724 -143.50996572 136.19428011 -143.81933594 132.58496094 C-144.80933594 132.25496094 -145.79933594 131.92496094 -146.81933594 131.58496094 C-150.62798259 125.57828936 -153.21756631 119.65575401 -153.81933594 112.58496094 C-154.47933594 111.59496094 -155.13933594 110.60496094 -155.81933594 109.58496094 C-156.19144014 108.26192377 -156.52563767 106.92758159 -156.81933594 105.58496094 C-157.14933594 104.59496094 -157.47933594 103.60496094 -157.81933594 102.58496094 C-158.14933594 102.58496094 -158.47933594 102.58496094 -158.81933594 102.58496094 C-158.87027326 96.32278946 -158.90516878 90.06067193 -158.92919922 83.79833984 C-158.93922299 81.67038984 -158.95284555 79.5424535 -158.97021484 77.41455078 C-158.99462286 74.34631976 -159.00585555 71.27827173 -159.01464844 68.20996094 C-159.02497101 67.26693115 -159.03529358 66.32390137 -159.04592896 65.35229492 C-159.04686971 59.74541582 -158.41278806 54.96630789 -156.81933594 49.58496094 C-156.15933594 49.58496094 -155.49933594 49.58496094 -154.81933594 49.58496094 C-154.69816406 48.88628906 -154.57699219 48.18761719 -154.45214844 47.46777344 C-154.28457031 46.55769531 -154.11699219 45.64761719 -153.94433594 44.70996094 C-153.78191406 43.80503906 -153.61949219 42.90011719 -153.45214844 41.96777344 C-152.81933594 39.58496094 -152.81933594 39.58496094 -150.81933594 37.58496094 C-149.71378412 35.63398714 -148.89319267 33.94732054 -148.44433594 31.74511719 C-147.67559861 29.08816878 -146.42875814 27.18569548 -144.88183594 24.89746094 C-144.3571875 24.10984375 -143.83253906 23.32222656 -143.29199219 22.51074219 C-141.81933594 20.58496094 -141.81933594 20.58496094 -139.81933594 19.58496094 C-139.48933594 18.59496094 -139.15933594 17.60496094 -138.81933594 16.58496094 C-138.25988281 16.318125 -137.70042969 16.05128906 -137.12402344 15.77636719 C-133.75454168 14.03451645 -131.50732154 11.25605376 -128.94433594 8.52246094 C-95.59880991 -25.77011212 -37.69548479 -29.31871039 0 0 Z M34.18066406 46.58496094 C35.18066406 48.58496094 35.18066406 48.58496094 35.18066406 48.58496094 Z M35.18066406 49.58496094 C36.18066406 51.58496094 36.18066406 51.58496094 36.18066406 51.58496094 Z M36.18066406 52.58496094 C37.18066406 55.58496094 37.18066406 55.58496094 37.18066406 55.58496094 Z M-156.81933594 53.58496094 C-155.81933594 56.58496094 -155.81933594 56.58496094 -155.81933594 56.58496094 Z M37.18066406 56.58496094 C38.18066406 59.58496094 38.18066406 59.58496094 38.18066406 59.58496094 Z M-157.81933594 57.58496094 C-156.81933594 61.58496094 -156.81933594 61.58496094 -156.81933594 61.58496094 Z M38.18066406 60.58496094 C38.18066406 62.23496094 38.18066406 63.88496094 38.18066406 65.58496094 C38.51066406 65.58496094 38.84066406 65.58496094 39.18066406 65.58496094 C39.18066406 63.93496094 39.18066406 62.28496094 39.18066406 60.58496094 C38.85066406 60.58496094 38.52066406 60.58496094 38.18066406 60.58496094 Z M38.18066406 93.58496094 C38.18066406 95.23496094 38.18066406 96.88496094 38.18066406 98.58496094 C38.51066406 98.58496094 38.84066406 98.58496094 39.18066406 98.58496094 C39.18066406 96.93496094 39.18066406 95.28496094 39.18066406 93.58496094 C38.85066406 93.58496094 38.52066406 93.58496094 38.18066406 93.58496094 Z " fill="#010101" transform="translate(158.8193359375,19.4150390625)"/>
<path d="M0 0 C3.99710636 1.21179243 5.29341957 3.81262901 7.1940918 7.35351562 C7.5837915 8.10310547 7.97349121 8.85269531 8.375 9.625 C9.26173417 11.27483149 10.15120242 12.92319555 11.04296875 14.5703125 C11.75718994 15.89337402 11.75718994 15.89337402 12.48583984 17.24316406 C15.12591862 22.04996341 17.91016035 26.77161417 20.6875 31.5 C21.88706702 33.54797313 23.08627924 35.59615411 24.28515625 37.64453125 C25.1980542 39.20421631 25.1980542 39.20421631 26.12939453 40.79541016 C34.50059074 55.13635526 42.76664481 69.53991037 50.97802734 83.97290039 C53.05512812 87.61985283 55.14085406 91.25840175 57.296875 94.859375 C57.94140625 95.93703125 58.5859375 97.0146875 59.25 98.125 C59.79140625 99.01445312 60.3328125 99.90390625 60.890625 100.8203125 C62 103 62 103 62 106 C22.4 106 -17.2 106 -58 106 C-58.33 105.34 -58.66 104.68 -59 104 C-57.92700195 101.62768555 -57.92700195 101.62768555 -56.23828125 98.63671875 C-55.62001465 97.53295898 -55.00174805 96.42919922 -54.36474609 95.29199219 C-53.68086992 94.09037761 -52.99678279 92.88888307 -52.3125 91.6875 C-51.6173601 90.45381159 -50.92286666 89.21975872 -50.22900391 87.98535156 C-48.16364352 84.31729597 -46.08334939 80.65785989 -44 77 C-43.4445752 76.02305176 -42.88915039 75.04610352 -42.31689453 74.03955078 C-39.86968791 69.73880162 -37.4129892 65.4436227 -34.94921875 61.15234375 C-31.83408812 55.72139362 -28.76077767 50.26720704 -25.6875 44.8125 C-19.05041911 33.04156977 -12.2932548 21.34137893 -5.52685547 9.64453125 C-3.674121 6.43557382 -1.83395877 3.21971814 0 0 Z " fill="#CBCBCB" transform="translate(98,36)"/>
<path d="M0 0 C3.99710636 1.21179243 5.29341957 3.81262901 7.1940918 7.35351562 C7.5837915 8.10310547 7.97349121 8.85269531 8.375 9.625 C9.26173417 11.27483149 10.15120242 12.92319555 11.04296875 14.5703125 C11.51911621 15.45235352 11.99526367 16.33439453 12.48583984 17.24316406 C15.12591963 22.04996525 17.91021421 26.77158059 20.6875 31.5 C21.87531981 33.52845859 23.06281299 35.55710849 24.25 37.5859375 C24.85714844 38.62331055 25.46429688 39.66068359 26.08984375 40.72949219 C29.13704049 45.94680399 32.16869096 51.17303535 35.19229126 56.40405273 C36.16488097 58.08588644 37.1394243 59.7665899 38.11401367 61.44726562 C38.70931885 62.47787109 39.30462402 63.50847656 39.91796875 64.5703125 C40.44156982 65.47539551 40.9651709 66.38047852 41.50463867 67.31298828 C43.0933654 70.16776809 44.55933875 73.06809966 46 76 C44.68 76.33 43.36 76.66 42 77 C41.01 75.02 40.02 73.04 39 71 C36.03 71.99 36.03 71.99 33 73 C33 71.68 33 70.36 33 69 C32.01 68.67 31.02 68.34 30 68 C29.01 67.34 28.02 66.68 27 66 C24.84725052 66.30840599 24.84725052 66.30840599 23 67 C22.34 65.68 21.68 64.36 21 63 C19.68 63 18.36 63 17 63 C16.773125 63.70125 16.54625 64.4025 16.3125 65.125 C14.71856242 68.61648231 12.48017222 71.08579765 10 74 C8.72147713 76.21587348 8.72147713 76.21587348 8 78 C7.34 78 6.68 78 6 78 C5.67 79.32 5.34 80.64 5 82 C0.32542614 78.69829856 -3.55802438 75.62886377 -7 71 C-8.2375 69.824375 -8.2375 69.824375 -9.5 68.625 C-18.63748814 59.03063745 -17.17895745 47.50713721 -17 35 C-17.99 35.66 -18.98 36.32 -20 37 C-18.71992321 32.7859934 -17.12544885 29.19612282 -14.8828125 25.41015625 C-13.97208984 23.86231445 -13.97208984 23.86231445 -13.04296875 22.28320312 C-12.41003906 21.22037109 -11.77710937 20.15753906 -11.125 19.0625 C-9.87741846 16.94932838 -8.63001796 14.83604986 -7.3828125 12.72265625 C-6.79790039 11.73539551 -6.21298828 10.74813477 -5.61035156 9.73095703 C-3.70804217 6.50487565 -1.84510303 3.25906389 0 0 Z " fill="#CACACA" transform="translate(98,36)"/>
<path d="M0 0 C-0.45270302 2.23031689 -0.91239626 4.45921563 -1.375 6.6875 C-1.75785156 8.54955078 -1.75785156 8.54955078 -2.1484375 10.44921875 C-2.87386054 13.47403318 -3.75131221 16.16059255 -5 19 C-9.67800217 15.69587711 -13.53563984 12.61914687 -17 8 C-17.99 7.34 -18.98 6.68 -20 6 C-20 5.34 -20 4.68 -20 4 C-17.41806023 3.32749476 -14.83467929 2.66182099 -12.25 2 C-11.15558594 1.71382813 -11.15558594 1.71382813 -10.0390625 1.421875 C-6.55428354 0.53484036 -3.61876278 0 0 0 Z " fill="#080808" transform="translate(108,99)"/>
<path d="M0 0 C10.89 0 21.78 0 33 0 C32.34 0.33 31.68 0.66 31 1 C30.731875 1.721875 30.46375 2.44375 30.1875 3.1875 C28.70133887 6.70735531 26.46700696 9.10126682 24 12 C22.72147713 14.21587348 22.72147713 14.21587348 22 16 C21.34 15.67 20.68 15.34 20 15 C21.32 10.38 22.64 5.76 24 1 C17.07 2.65 10.14 4.3 3 6 C2.01 4.02 1.02 2.04 0 0 Z " fill="#ACACAC" transform="translate(84,98)"/>
<path d="M0 0 C1.98 1.65 3.96 3.3 6 5 C5.01 6.98 4.02 8.96 3 11 C0.55178556 9.08400609 0.00675177 8.02756971 -0.75 4.9375 C-1 2 -1 2 0 0 Z " fill="#9D9D9D" transform="translate(97,113)"/>
<path d="M0 0 C8.58 0 17.16 0 26 0 C26 0.33 26 0.66 26 1 C17.42 1 8.84 1 0 1 C0 0.67 0 0.34 0 0 Z " fill="#010101" transform="translate(86,199)"/>
<path d="M0 0 C1.98 0 3.96 0 6 0 C6.66 1.65 7.32 3.3 8 5 C6.35 5.33 4.7 5.66 3 6 C2.01 4.02 1.02 2.04 0 0 Z " fill="#9D9D9D" transform="translate(84,98)"/>
<path d="M0 0 C0.33 0 0.66 0 1 0 C1 8.58 1 17.16 1 26 C0.67 26 0.34 26 0 26 C0 17.42 0 8.84 0 0 Z " fill="#010101" transform="translate(199,86)"/>
<path d="M0 0 C2.97 0 5.94 0 9 0 C7.515 1.98 7.515 1.98 6 4 C4.68 3.67 3.36 3.34 2 3 C2 2.34 2 1.68 2 1 C1.34 0.67 0.68 0.34 0 0 Z " fill="#929292" transform="translate(106,98)"/>
<path d="M0 0 C0.66 0.66 1.32 1.32 2 2 C0.68 4.31 -0.64 6.62 -2 9 C-2.66 8.67 -3.32 8.34 -4 8 C-3.40138258 5.64828869 -2.73075648 3.3140622 -2 1 C-1.34 0.67 -0.68 0.34 0 0 Z " fill="#B2B2B2" transform="translate(108,105)"/>
<path d="M0 0 C3 3.625 3 3.625 3 7 C2.01 7 1.02 7 0 7 C-0.38133299 5.0085944 -0.71325582 3.00720923 -1 1 C-0.67 0.67 -0.34 0.34 0 0 Z " fill="#B2B2B2" transform="translate(157,135)"/>
<path d="M0 0 C2.97 0 5.94 0 9 0 C6.23776722 2.76223278 3.79293383 2.57856291 0 3 C0 2.01 0 1.02 0 0 Z " fill="#B6B6B6" transform="translate(97,98)"/>
<path d="M0 0 C0.99 0.99 1.98 1.98 3 3 C2.67 3.99 2.34 4.98 2 6 C1.01 6.33 0.02 6.66 -1 7 C-1.625 5.1875 -1.625 5.1875 -2 3 C-1.34 2.01 -0.68 1.02 0 0 Z " fill="#A8A8A8" transform="translate(86,57)"/>
<path d="M0 0 C0.66 0.33 1.32 0.66 2 1 C-0.31 3.31 -2.62 5.62 -5 8 C-5 5 -5 5 -2.5 2.3125 C-1.675 1.549375 -0.85 0.78625 0 0 Z " fill="#010101" transform="translate(30,25)"/>
<path d="M0 0 C1.98 0 3.96 0 6 0 C6 0.33 6 0.66 6 1 C4.02 1 2.04 1 0 1 C0 0.67 0 0.34 0 0 Z " fill="#010101" transform="translate(112,198)"/>
<path d="M0 0 C1.98 0 3.96 0 6 0 C6 0.33 6 0.66 6 1 C4.02 1 2.04 1 0 1 C0 0.67 0 0.34 0 0 Z " fill="#010101" transform="translate(80,198)"/>
<path d="M0 0 C1.65 0 3.3 0 5 0 C5 0.33 5 0.66 5 1 C3.35 1 1.7 1 0 1 C0 0.67 0 0.34 0 0 Z " fill="#010101" transform="translate(118,197)"/>
<path d="M0 0 C1.65 0 3.3 0 5 0 C5 0.33 5 0.66 5 1 C3.35 1 1.7 1 0 1 C0 0.67 0 0.34 0 0 Z " fill="#010101" transform="translate(75,197)"/>
<path d="M0 0 C1.65 0 3.3 0 5 0 C5 0.33 5 0.66 5 1 C3.35 1 1.7 1 0 1 C0 0.67 0 0.34 0 0 Z " fill="#010101" transform="translate(117,0)"/>
<path d="M0 0 C1.65 0 3.3 0 5 0 C5 0.33 5 0.66 5 1 C3.35 1 1.7 1 0 1 C0 0.67 0 0.34 0 0 Z " fill="#010101" transform="translate(76,0)"/>
<path d="M0 0 C4 1 4 1 4 1 Z " fill="#010101" transform="translate(123,196)"/>
<path d="M0 0 C4 1 4 1 4 1 Z " fill="#010101" transform="translate(68,195)"/>
<path d="M0 0 C4 1 4 1 4 1 Z " fill="#010101" transform="translate(69,2)"/>
<path d="M0 0 C4 1 4 1 4 1 Z " fill="#010101" transform="translate(122,1)"/>
<path d="M0 0 C3 1 3 1 3 1 Z " fill="#010101" transform="translate(72,196)"/>
<path d="M0 0 C3 1 3 1 3 1 Z " fill="#010101" transform="translate(127,195)"/>
<path d="M0 0 C3 1 3 1 3 1 Z " fill="#010101" transform="translate(130,194)"/>
<path d="M0 0 C3 1 3 1 3 1 Z " fill="#010101" transform="translate(65,194)"/>
<path d="M0 0 C3 1 3 1 3 1 Z " fill="#010101" transform="translate(135,192)"/>
<path d="M0 0 C3 1 3 1 3 1 Z " fill="#010101" transform="translate(60,192)"/>
<path d="" fill="#010101" transform="translate(0,0)"/>
<path d="" fill="#010101" transform="translate(0,0)"/>
<path d="" fill="#010101" transform="translate(0,0)"/>
<path d="" fill="#010101" transform="translate(0,0)"/>
<path d="" fill="#010101" transform="translate(0,0)"/>
<path d="" fill="#010101" transform="translate(0,0)"/>
<path d="M0 0 C3 1 3 1 3 1 Z " fill="#010101" transform="translate(137,6)"/>
<path d="M0 0 C3 1 3 1 3 1 Z " fill="#010101" transform="translate(132,4)"/>
<path d="M0 0 C3 1 3 1 3 1 Z " fill="#010101" transform="translate(63,4)"/>
<path d="M0 0 C3 1 3 1 3 1 Z " fill="#010101" transform="translate(129,3)"/>
<path d="M0 0 C3 1 3 1 3 1 Z " fill="#010101" transform="translate(66,3)"/>
<path d="M0 0 C3 1 3 1 3 1 Z " fill="#010101" transform="translate(126,2)"/>
<path d="M0 0 C3 1 3 1 3 1 Z " fill="#010101" transform="translate(73,1)"/>
<path d="M0 0 C2 1 2 1 2 1 Z " fill="#010101" transform="translate(133,193)"/>
<path d="M0 0 C2 1 2 1 2 1 Z " fill="#010101" transform="translate(63,193)"/>
<path d="M0 0 C2 1 2 1 2 1 Z " fill="#010101" transform="translate(138,191)"/>
<path d="M0 0 C2 1 2 1 2 1 Z " fill="#010101" transform="translate(58,191)"/>
<path d="M0 0 C2 1 2 1 2 1 Z " fill="#010101" transform="translate(140,190)"/>
<path d="M0 0 C2 1 2 1 2 1 Z " fill="#010101" transform="translate(56,190)"/>
<path d="M0 0 C2 1 2 1 2 1 Z " fill="#010101" transform="translate(142,189)"/>
<path d="M0 0 C2 1 2 1 2 1 Z " fill="#010101" transform="translate(54,189)"/>
<path d="M0 0 C2 1 2 1 2 1 Z " fill="#010101" transform="translate(144,188)"/>
<path d="M0 0 C2 1 2 1 2 1 Z " fill="#010101" transform="translate(52,188)"/>
<path d="M0 0 C2 1 2 1 2 1 Z " fill="#010101" transform="translate(146,187)"/>
<path d="M0 0 C2 1 2 1 2 1 Z " fill="#010101" transform="translate(50,187)"/>
<path d="M0 0 C2 1 2 1 2 1 Z " fill="#010101" transform="translate(148,186)"/>
<path d="M0 0 C2 1 2 1 2 1 Z " fill="#010101" transform="translate(47,185)"/>
<path d="M0 0 C2 1 2 1 2 1 Z " fill="#010101" transform="translate(151,184)"/>
<path d="M0 0 C2 1 2 1 2 1 Z " fill="#010101" transform="translate(45,184)"/>
<path d="M0 0 C2 1 2 1 2 1 Z " fill="#010101" transform="translate(154,182)"/>
<path d="M0 0 C2 1 2 1 2 1 Z " fill="#010101" transform="translate(42,182)"/>
<path d="M0 0 C2 1 2 1 2 1 Z " fill="#010101" transform="translate(157,180)"/>
<path d="M0 0 C2 1 2 1 2 1 Z " fill="#010101" transform="translate(38,179)"/>
<path d="M0 0 C2 1 2 1 2 1 Z " fill="#010101" transform="translate(162,176)"/>
<path d="M0 0 C2 1 2 1 2 1 Z " fill="#010101" transform="translate(32,174)"/>
<path d="" fill="#010101" transform="translate(0,0)"/>
<path d="" fill="#010101" transform="translate(0,0)"/>
<path d="" fill="#010101" transform="translate(0,0)"/>
<path d="" fill="#010101" transform="translate(0,0)"/>
<path d="" fill="#010101" transform="translate(0,0)"/>
<path d="" fill="#010101" transform="translate(0,0)"/>
<path d="" fill="#010101" transform="translate(0,0)"/>
<path d="" fill="#010101" transform="translate(0,0)"/>
<path d="M0 0 C2 1 2 1 2 1 Z " fill="#010101" transform="translate(164,23)"/>
<path d="M0 0 C2 1 2 1 2 1 Z " fill="#010101" transform="translate(37,19)"/>
<path d="M0 0 C2 1 2 1 2 1 Z " fill="#010101" transform="translate(158,18)"/>
<path d="M0 0 C2 1 2 1 2 1 Z " fill="#010101" transform="translate(155,16)"/>
<path d="M0 0 C2 1 2 1 2 1 Z " fill="#010101" transform="translate(41,16)"/>
<path d="M0 0 C2 1 2 1 2 1 Z " fill="#010101" transform="translate(152,14)"/>
<path d="M0 0 C2 1 2 1 2 1 Z " fill="#010101" transform="translate(44,14)"/>
<path d="M0 0 C2 1 2 1 2 1 Z " fill="#010101" transform="translate(149,12)"/>
<path d="M0 0 C2 1 2 1 2 1 Z " fill="#010101" transform="translate(47,12)"/>
<path d="M0 0 C2 1 2 1 2 1 Z " fill="#010101" transform="translate(147,11)"/>
<path d="M0 0 C2 1 2 1 2 1 Z " fill="#010101" transform="translate(49,11)"/>
<path d="M0 0 C2 1 2 1 2 1 Z " fill="#010101" transform="translate(51,10)"/>
<path d="M0 0 C2 1 2 1 2 1 Z " fill="#010101" transform="translate(144,9)"/>
<path d="M0 0 C2 1 2 1 2 1 Z " fill="#010101" transform="translate(53,9)"/>
<path d="M0 0 C2 1 2 1 2 1 Z " fill="#010101" transform="translate(142,8)"/>
<path d="M0 0 C2 1 2 1 2 1 Z " fill="#010101" transform="translate(55,8)"/>
<path d="M0 0 C2 1 2 1 2 1 Z " fill="#010101" transform="translate(140,7)"/>
<path d="M0 0 C2 1 2 1 2 1 Z " fill="#010101" transform="translate(57,7)"/>
<path d="M0 0 C2 1 2 1 2 1 Z " fill="#010101" transform="translate(59,6)"/>
<path d="M0 0 C2 1 2 1 2 1 Z " fill="#010101" transform="translate(135,5)"/>
<path d="M0 0 C2 1 2 1 2 1 Z " fill="#010101" transform="translate(61,5)"/>
<path d="" fill="#010101" transform="translate(0,0)"/>
<path d="" fill="#010101" transform="translate(0,0)"/>
<path d="" fill="#010101" transform="translate(0,0)"/>
<path d="" fill="#010101" transform="translate(0,0)"/>
<path d="" fill="#010101" transform="translate(0,0)"/>
<path d="" fill="#010101" transform="translate(0,0)"/>
<path d="" fill="#010101" transform="translate(0,0)"/>
<path d="" fill="#010101" transform="translate(0,0)"/>
<path d="" fill="#010101" transform="translate(0,0)"/>
<path d="" fill="#010101" transform="translate(0,0)"/>
<path d="" fill="#010101" transform="translate(0,0)"/>
<path d="" fill="#010101" transform="translate(0,0)"/>
<path d="" fill="#010101" transform="translate(0,0)"/>
<path d="" fill="#010101" transform="translate(0,0)"/>
<path d="" fill="#010101" transform="translate(0,0)"/>
<path d="" fill="#010101" transform="translate(0,0)"/>
<path d="" fill="#010101" transform="translate(0,0)"/>
<path d="" fill="#010101" transform="translate(0,0)"/>
<path d="" fill="#010101" transform="translate(0,0)"/>
<path d="" fill="#010101" transform="translate(0,0)"/>
<path d="" fill="#010101" transform="translate(0,0)"/>
<path d="" fill="#010101" transform="translate(0,0)"/>
<path d="" fill="#010101" transform="translate(0,0)"/>
<path d="" fill="#010101" transform="translate(0,0)"/>
<path d="" fill="#010101" transform="translate(0,0)"/>
<path d="" fill="#010101" transform="translate(0,0)"/>
<path d="" fill="#010101" transform="translate(0,0)"/>
<path d="" fill="#010101" transform="translate(0,0)"/>
<path d="" fill="#010101" transform="translate(0,0)"/>
<path d="" fill="#010101" transform="translate(0,0)"/>
<path d="" fill="#010101" transform="translate(0,0)"/>
<path d="" fill="#010101" transform="translate(0,0)"/>
<path d="" fill="#010101" transform="translate(0,0)"/>
<path d="" fill="#010101" transform="translate(0,0)"/>
<path d="" fill="#010101" transform="translate(0,0)"/>
<path d="" fill="#010101" transform="translate(0,0)"/>
<path d="" fill="#010101" transform="translate(0,0)"/>
<path d="" fill="#010101" transform="translate(0,0)"/>
<path d="" fill="#010101" transform="translate(0,0)"/>
<path d="" fill="#010101" transform="translate(0,0)"/>
<path d="" fill="#010101" transform="translate(0,0)"/>
<path d="" fill="#010101" transform="translate(0,0)"/>
<path d="" fill="#010101" transform="translate(0,0)"/>
<path d="" fill="#010101" transform="translate(0,0)"/>
<path d="" fill="#010101" transform="translate(0,0)"/>
<path d="" fill="#010101" transform="translate(0,0)"/>
<path d="" fill="#010101" transform="translate(0,0)"/>
<path d="" fill="#010101" transform="translate(0,0)"/>
<path d="" fill="#010101" transform="translate(0,0)"/>
<path d="" fill="#010101" transform="translate(0,0)"/>
<path d="" fill="#010101" transform="translate(0,0)"/>
<path d="" fill="#010101" transform="translate(0,0)"/>
<path d="" fill="#010101" transform="translate(0,0)"/>
<path d="" fill="#010101" transform="translate(0,0)"/>
<path d="" fill="#010101" transform="translate(0,0)"/>
<path d="" fill="#010101" transform="translate(0,0)"/>
<path d="" fill="#010101" transform="translate(0,0)"/>
<path d="" fill="#010101" transform="translate(0,0)"/>
<path d="" fill="#010101" transform="translate(0,0)"/>
<path d="" fill="#010101" transform="translate(0,0)"/>
<path d="" fill="#010101" transform="translate(0,0)"/>
<path d="" fill="#010101" transform="translate(0,0)"/>
<path d="" fill="#010101" transform="translate(0,0)"/>
<path d="" fill="#010101" transform="translate(0,0)"/>
</svg>
