<svg xmlns="http://www.w3.org/2000/svg" width="256" height="256" fill="none"><circle cx="128" cy="128" r="128" fill="#fff"/><path fill="#000" d="M202.7 143.2c5-5.6 8.8-11 12.8-17.4 1.4-2.3 6.2-11.7 8.1-12.3 3.8-1.1 5 2 4.6 5.3-1.1 8-11.2 22-16.5 28.2C168.5 197.5 76 202 41.2 139a99.8 99.8 0 0 1-9.5-23.5c-.2-1.2-.6-2.8.7-3.5 1.2-.3 2.2 2.5 2.5 3.4 1 2.4 1.6 5.2 2.5 7.7 27.6 71.2 118.4 71.5 165.3 20ZM234.7 112.3c-.5-.5-1-1.8-1.6-2.6-1.6-2-3.4-3-5.9-3.8-1.5-.5-6.8-1-7.3-1.4-.5-.4-.4-1.4-.3-2 5.6-3 14.7-.3 18.8 4.4 3.7 4.3-1.2 8.2-3.7 5.4ZM38 101.7c-.7.7-5 1.5-6.2 2-1.3.4-5.6 3.5-5.8.7-.3-3.9 8.8-6.8 12-4.7.6.5.6 1.5 0 2Z"/></svg>