<?xml version="1.0" encoding="UTF-8"?>
<svg version="1.1" xmlns="http://www.w3.org/2000/svg" width="200" height="200">
<path d="M0 0 C1.25296875 0.4125 2.5059375 0.825 3.796875 1.25 C28.74462541 10.06760046 48.21993996 28.50355897 60.08447266 52.01074219 C70.70512729 75.08730057 73.09510894 102.81586203 65 127 C64.5875 128.25296875 64.175 129.5059375 63.75 130.796875 C54.93239954 155.74462541 36.49644103 175.21993996 12.98925781 187.08447266 C-10.08730057 197.70512729 -37.81586203 200.09510894 -62 192 C-63.87945312 191.38125 -63.87945312 191.38125 -65.796875 190.75 C-90.74462541 181.93239954 -110.21993996 163.49644103 -122.08447266 139.98925781 C-132.70512729 116.91269943 -135.09510894 89.18413797 -127 65 C-126.5875 63.74703125 -126.175 62.4940625 -125.75 61.203125 C-116.93239954 36.25537459 -98.49644103 16.78006004 -74.98925781 4.91552734 C-51.91269943 -5.70512729 -24.18413797 -8.09510894 0 0 Z " fill="#C9292C" transform="translate(131,4)"/>
<path d="M0 0 C3.79417909 1.26472636 4.19595927 2.49032673 6.23046875 5.87109375 C6.86017578 6.90685547 7.48988281 7.94261719 8.13867188 9.00976562 C9.1528418 10.70649414 9.1528418 10.70649414 10.1875 12.4375 C10.90207542 13.61839536 11.61758532 14.7987257 12.33398438 15.97851562 C13.82314155 18.4325523 15.3082267 20.88898418 16.79052734 23.34716797 C20.15617598 28.92113834 23.58094302 34.4586967 27 40 C28.33099276 42.16259821 29.66172088 44.32535932 30.9921875 46.48828125 C33.6833707 50.86161829 36.37624761 55.23390634 39.0703125 59.60546875 C46.15692871 71.10792577 53.22648676 82.61980489 60.22119141 94.1784668 C60.7476123 95.04640869 61.2740332 95.91435059 61.81640625 96.80859375 C62.32703613 97.65147949 62.83766602 98.49436523 63.36376953 99.36279297 C65.75661378 103.21947807 68.27062178 106.99655865 70.79272461 110.76977539 C71.39032593 111.87373657 71.39032593 111.87373657 72 113 C71.67 113.66 71.34 114.32 71 115 C67.06669344 111.15864087 63.19975984 107.30550674 59.625 103.125 C56.88378551 99.93317491 53.99314112 96.95697023 51 94 C47.43599698 90.47893677 44.09695832 86.86813992 40.84375 83.0625 C38.65203687 80.61075311 36.33932896 78.31114427 34 76 C30.43599698 72.47893677 27.09695832 68.86813992 23.84375 65.0625 C20.85194954 61.71574016 17.62074619 58.61226862 14.42578125 55.4609375 C12.24596027 53.24952491 10.20198917 50.98620953 8.1875 48.625 C5.69229962 45.70407823 3.12184329 43.27043148 0 41 C-0.25885986 41.58555664 -0.51771973 42.17111328 -0.78442383 42.77441406 C-2.09221724 45.1688396 -3.49736101 46.71093329 -5.44921875 48.609375 C-6.13306641 49.28226563 -6.81691406 49.95515625 -7.52148438 50.6484375 C-8.23626953 51.34195313 -8.95105469 52.03546875 -9.6875 52.75 C-14.43976286 57.38334618 -18.99906281 62.0695688 -23.32739258 67.10253906 C-25.91690416 70.04016627 -28.70035718 72.7645227 -31.5 75.5 C-34.95132527 78.90842744 -38.36143602 82.2964945 -41.5 86 C-45.15878471 90.31736596 -49.20113893 94.2301025 -53.22460938 98.20288086 C-56.85222686 101.80153217 -60.26102154 105.511286 -63.56640625 109.41015625 C-65.50255561 111.55733007 -67.66635638 113.30280464 -70 115 C-68.61020176 111.23601628 -66.87676031 107.96877103 -64.76171875 104.5625 C-64.11323975 103.51368652 -63.46476074 102.46487305 -62.79663086 101.38427734 C-62.10061768 100.26746582 -61.40460449 99.1506543 -60.6875 98 C-59.96000942 96.82655677 -59.23288162 95.65288855 -58.50610352 94.47900391 C-57.03541959 92.10483794 -55.56260572 89.73201559 -54.08789062 87.36035156 C-52.24653561 84.39678626 -50.41048933 81.43006659 -48.578125 78.4609375 C-42.97948477 69.3915885 -37.343541 60.34614823 -31.6875 51.3125 C-24.36838903 39.62116822 -17.13493691 27.87839184 -9.91845703 16.12353516 C-6.61604857 10.74671996 -3.3078719 5.37345534 0 0 Z " fill="#FDF9F9" transform="translate(99,34)"/>
<path d="M0 0 C3.00025499 0.02016856 5.98634209 -0.06074204 8.98510742 -0.1496582 C24.65703698 -0.30924749 24.65703698 -0.30924749 30.64836121 5.17936707 C36.2019043 11.11793792 36.2019043 11.11793792 36.2019043 13.20776367 C14.7519043 13.20776367 -6.6980957 13.20776367 -28.7980957 13.20776367 C-22.1832675 -0.02189274 -13.72436231 -0.14897088 0 0 Z " fill="#FEFDFD" transform="translate(96.798095703125,113.792236328125)"/>
<path d="M0 0 C3.87939509 1.58620127 6.33361087 4.09920987 9.25 7.0625 C10.14203125 7.96097656 11.0340625 8.85945313 11.953125 9.78515625 C14 12 14 12 14 13 C5.75 13 -2.5 13 -11 13 C-9.02 10.69 -7.04 8.38 -5 6 C-3.32976457 4.00297937 -1.66185417 2.00400062 0 0 Z " fill="#FDF7F7" transform="translate(99,93)"/>
</svg>
