<?xml version="1.0" encoding="UTF-8"?>
<svg version="1.1" xmlns="http://www.w3.org/2000/svg" width="200" height="200">
<path d="M0 0 C2.82045877 2.30263418 5.56336058 4.67903285 8.27832031 7.10449219 C11.1535235 9.666713 11.1535235 9.666713 14.50878906 11.77246094 C17.18066406 13.58496094 17.18066406 13.58496094 17.86816406 15.77246094 C18.02285156 16.66964844 18.02285156 16.66964844 18.18066406 17.58496094 C19.17066406 17.91496094 20.16066406 18.24496094 21.18066406 18.58496094 C21.51066406 19.57496094 21.84066406 20.56496094 22.18066406 21.58496094 C22.78394531 22.1740625 23.38722656 22.76316406 24.00878906 23.37011719 C26.61161449 26.02443736 28.16331475 28.75588582 29.93066406 32.02246094 C30.85105469 33.69115234 30.85105469 33.69115234 31.79003906 35.39355469 C33.13514811 38.48050439 33.50200878 40.27881822 33.18066406 43.58496094 C33.84066406 43.58496094 34.50066406 43.58496094 35.18066406 43.58496094 C39.64424539 56.0781479 40.85665551 67.12735329 40.55566406 80.33496094 C40.53909422 82.04587815 40.52476266 83.75681854 40.51269531 85.46777344 C40.3702832 98.68935945 40.3702832 98.68935945 39.18066406 103.58496094 C38.52066406 103.58496094 37.86066406 103.58496094 37.18066406 103.58496094 C37.18066406 105.89496094 37.18066406 108.20496094 37.18066406 110.58496094 C36.52066406 110.58496094 35.86066406 110.58496094 35.18066406 110.58496094 C34.52066406 113.88496094 33.86066406 117.18496094 33.18066406 120.58496094 C32.52066406 120.58496094 31.86066406 120.58496094 31.18066406 120.58496094 C31.10589844 121.42542969 31.03113281 122.26589844 30.95410156 123.13183594 C30.00301116 127.37811833 28.20111083 130.25695184 25.80566406 133.83496094 C25.40605469 134.45886719 25.00644531 135.08277344 24.59472656 135.72558594 C22.64505024 138.70140769 21.175244 140.58857431 18.18066406 142.58496094 C17.87128906 143.24496094 17.56191406 143.90496094 17.24316406 144.58496094 C16.18066406 146.58496094 16.18066406 146.58496094 14.29394531 147.52246094 C12.05773456 148.64676653 10.95666201 149.72870379 9.30566406 151.58496094 C-7.5531495 168.76523493 -31.7922615 178.47350042 -55.67724609 178.87768555 C-83.14890277 179.03784131 -105.50892955 171.73865683 -126.31811523 153.40429688 C-129.3378039 150.75277047 -132.36813316 148.62599484 -135.81933594 146.58496094 C-136.52084746 145.26962683 -137.18459519 143.93378502 -137.81933594 142.58496094 C-139.08777344 141.37839844 -139.08777344 141.37839844 -140.38183594 140.14746094 C-142.93144067 137.46710724 -143.50996572 136.19428011 -143.81933594 132.58496094 C-144.80933594 132.25496094 -145.79933594 131.92496094 -146.81933594 131.58496094 C-150.62798259 125.57828936 -153.21756631 119.65575401 -153.81933594 112.58496094 C-154.47933594 111.59496094 -155.13933594 110.60496094 -155.81933594 109.58496094 C-156.19144014 108.26192377 -156.52563767 106.92758159 -156.81933594 105.58496094 C-157.14933594 104.59496094 -157.47933594 103.60496094 -157.81933594 102.58496094 C-158.14933594 102.58496094 -158.47933594 102.58496094 -158.81933594 102.58496094 C-158.87027326 96.32278946 -158.90516878 90.06067193 -158.92919922 83.79833984 C-158.93922299 81.67038984 -158.95284555 79.5424535 -158.97021484 77.41455078 C-158.99462286 74.34631976 -159.00585555 71.27827173 -159.01464844 68.20996094 C-159.02497101 67.26693115 -159.03529358 66.32390137 -159.04592896 65.35229492 C-159.04686971 59.74541582 -158.41278806 54.96630789 -156.81933594 49.58496094 C-156.15933594 49.58496094 -155.49933594 49.58496094 -154.81933594 49.58496094 C-154.69816406 48.88628906 -154.57699219 48.18761719 -154.45214844 47.46777344 C-154.28457031 46.55769531 -154.11699219 45.64761719 -153.94433594 44.70996094 C-153.78191406 43.80503906 -153.61949219 42.90011719 -153.45214844 41.96777344 C-152.81933594 39.58496094 -152.81933594 39.58496094 -150.81933594 37.58496094 C-149.71378412 35.63398714 -148.89319267 33.94732054 -148.44433594 31.74511719 C-147.67559861 29.08816878 -146.42875814 27.18569548 -144.88183594 24.89746094 C-144.3571875 24.10984375 -143.83253906 23.32222656 -143.29199219 22.51074219 C-141.81933594 20.58496094 -141.81933594 20.58496094 -139.81933594 19.58496094 C-139.48933594 18.59496094 -139.15933594 17.60496094 -138.81933594 16.58496094 C-138.25988281 16.318125 -137.70042969 16.05128906 -137.12402344 15.77636719 C-133.75454168 14.03451645 -131.50732154 11.25605376 -128.94433594 8.52246094 C-95.59880991 -25.77011212 -37.69548479 -29.31871039 0 0 Z M34.18066406 46.58496094 C35.18066406 48.58496094 35.18066406 48.58496094 35.18066406 48.58496094 Z M35.18066406 49.58496094 C36.18066406 51.58496094 36.18066406 51.58496094 36.18066406 51.58496094 Z M36.18066406 52.58496094 C37.18066406 55.58496094 37.18066406 55.58496094 37.18066406 55.58496094 Z M-156.81933594 53.58496094 C-155.81933594 56.58496094 -155.81933594 56.58496094 -155.81933594 56.58496094 Z M37.18066406 56.58496094 C38.18066406 59.58496094 38.18066406 59.58496094 38.18066406 59.58496094 Z M-157.81933594 57.58496094 C-156.81933594 61.58496094 -156.81933594 61.58496094 -156.81933594 61.58496094 Z M38.18066406 60.58496094 C38.18066406 62.23496094 38.18066406 63.88496094 38.18066406 65.58496094 C38.51066406 65.58496094 38.84066406 65.58496094 39.18066406 65.58496094 C39.18066406 63.93496094 39.18066406 62.28496094 39.18066406 60.58496094 C38.85066406 60.58496094 38.52066406 60.58496094 38.18066406 60.58496094 Z M38.18066406 93.58496094 C38.18066406 95.23496094 38.18066406 96.88496094 38.18066406 98.58496094 C38.51066406 98.58496094 38.84066406 98.58496094 39.18066406 98.58496094 C39.18066406 96.93496094 39.18066406 95.28496094 39.18066406 93.58496094 C38.85066406 93.58496094 38.52066406 93.58496094 38.18066406 93.58496094 Z " fill="#FEFEFE" transform="translate(158.8193359375,19.4150390625)"/>
<path d="M0 0 C5.94 0 11.88 0 18 0 C19.2684375 2.6915625 19.2684375 2.6915625 20.5625 5.4375 C24.678708 13.87614728 29.60708563 21.84256453 34.49243164 29.85131836 C38.0637812 35.71605946 41.4885186 41.61717558 44.70483398 47.68481445 C45.85773963 49.74570121 47.08440423 51.61393296 48.5 53.5 C52.54572507 58.92494953 56.68064869 65.2932975 58 72 C58.66 72 59.32 72 60 72 C60.98163422 73.93625098 61.96022454 75.87404539 62.9375 77.8125 C63.48277344 78.89144531 64.02804688 79.97039062 64.58984375 81.08203125 C66 84 66 84 67 87 C67.66 87 68.32 87 69 87 C69.27199219 87.73734375 69.54398438 88.4746875 69.82421875 89.234375 C70.93835024 91.85498993 72.18202888 93.92690131 73.8125 96.25 C81.88054974 108.11477902 81.88054974 108.11477902 83 115 C82.34 115 81.68 115 81 115 C80.7525 115.86625 80.505 116.7325 80.25 117.625 C77.91293666 123.93507101 77.91293666 123.93507101 75 127 C70.86949669 127.95783809 66.7643406 127.86032563 62.53979492 127.83984375 C61.26298355 127.85678284 59.98617218 127.87372192 58.67066956 127.89117432 C55.17031536 127.93561089 51.67090254 127.94146768 48.17030501 127.93767929 C45.24544786 127.93743982 42.32078996 127.9545708 39.39598829 127.97123432 C32.4926167 128.0097071 25.58972872 128.01547009 18.6862793 128.00195312 C11.57254039 127.98868007 4.46087786 128.03435897 -2.65243989 128.10858059 C-8.76565183 128.17004414 -14.87819718 128.19268737 -20.9917118 128.18490696 C-24.64054012 128.18077723 -28.28775399 128.19163475 -31.93628883 128.24069214 C-36.00945131 128.29364857 -40.07825732 128.2657291 -44.15161133 128.23046875 C-45.95588089 128.27025848 -45.95588089 128.27025848 -47.79660034 128.31085205 C-55.75243862 128.15082588 -55.75243862 128.15082588 -59.31192589 124.86734009 C-62.32315253 120.758253 -64.35652899 117.10228446 -65 112 C-64.38256836 110.10644531 -64.38256836 110.10644531 -63.33984375 108.328125 C-62.96102051 107.66796387 -62.58219727 107.00780273 -62.19189453 106.32763672 C-61.57096924 105.29920654 -61.57096924 105.29920654 -60.9375 104.25 C-60.31657471 103.18483154 -60.31657471 103.18483154 -59.68310547 102.09814453 C-57.01144161 97.55683475 -54.18572995 93.13933771 -51.1953125 88.80078125 C-49.54728449 86.31796781 -48.30991596 83.67441175 -47 81 C-46.03121127 79.36879163 -45.05090086 77.74439992 -44.0625 76.125 C-41.46249263 71.84568612 -39.17167683 67.51040573 -37 63 C-36.34 63 -35.68 63 -35 63 C-34.79375 62.21625 -34.5875 61.4325 -34.375 60.625 C-32.88479121 56.69626773 -30.95506692 53.43928909 -28.75390625 49.875 C-26.86979108 46.78656178 -25.08890299 43.65156506 -23.3125 40.5 C-20.12171464 34.86049061 -16.7749488 29.3280747 -13.375 23.8125 C-8.58513894 16.03573071 -4.08612263 8.17224525 0 0 Z " fill="#D0DDE7" transform="translate(91,41)"/>
<path d="M0 0 C3.05185208 2.83427629 5.13081497 5.61557061 7.1796875 9.234375 C8.06696533 10.78862183 8.06696533 10.78862183 8.97216797 12.37426758 C9.60010254 13.48825928 10.22803711 14.60225098 10.875 15.75 C11.54366823 16.92450833 12.21311468 18.09857392 12.88330078 19.2722168 C13.91474356 21.07874099 14.94570716 22.88552036 15.97433472 24.69364929 C19.23409845 30.42362347 22.54717687 36.12179695 25.875 41.8125 C26.71393799 43.24783081 26.71393799 43.24783081 27.56982422 44.7121582 C28.74253623 46.71811296 29.91555879 48.7238862 31.08886719 50.72949219 C32.82848201 53.7064825 34.56456032 56.68549419 36.29934692 59.66529846 C37.82413269 62.28321079 39.35133728 64.89970726 40.87896729 67.51596069 C41.61474534 68.77714285 42.34959892 70.0388649 43.08343506 71.30117798 C46.79048208 77.67625824 50.52234149 83.98675173 54.7734375 90.01977539 C56.83005638 93.34008505 58 96.07530009 58 100 C41.04086255 100.23378394 24.0822291 100.41002982 7.12184811 100.51812172 C-0.75354493 100.56964913 -8.62793585 100.63987245 -16.50268555 100.75439453 C-23.36781837 100.85418606 -30.23222545 100.91860893 -37.09806341 100.94088495 C-40.73269768 100.95390435 -44.36525617 100.98440715 -47.99922371 101.05730057 C-52.0603886 101.13809946 -56.1179654 101.1398925 -60.17993164 101.13525391 C-61.97960136 101.18918304 -61.97960136 101.18918304 -63.81562805 101.24420166 C-71.7756182 101.14578865 -71.7756182 101.14578865 -75.31023979 97.83805466 C-78.14276121 93.93261486 -79.82555583 90.69777667 -81 86 C-24.075 85.505 -24.075 85.505 34 85 C25.64880302 69.91372007 25.64880302 69.91372007 17 55 C15.89808196 53.09621037 14.80073043 51.1897731 13.70703125 49.28125 C13.08006348 48.1895752 12.4530957 47.09790039 11.80712891 45.97314453 C11.48077454 45.40484924 11.15442017 44.83655396 10.81817627 44.2510376 C10.4863031 43.67319519 10.15442993 43.09535278 9.8125 42.5 C9.30985626 41.62477692 9.30985626 41.62477692 8.79705811 40.73187256 C4.4486156 33.16699533 0.04241138 25.65898565 -4.6796875 18.3203125 C-6.89464461 14.42775475 -6.89464461 14.42775475 -7 12 C-5.56640625 8.984375 -5.56640625 8.984375 -3.5625 5.75 C-2.90378906 4.67234375 -2.24507813 3.5946875 -1.56640625 2.484375 C-1.04949219 1.66453125 -0.53257813 0.8446875 0 0 Z " fill="#5F5E6C" transform="translate(107,68)"/>
<path d="M0 0 C0.66 0 1.32 0 2 0 C3.06225586 1.45849609 3.06225586 1.45849609 4.21484375 3.5234375 C4.64837158 4.28849609 5.08189941 5.05355469 5.52856445 5.84179688 C6.22598755 7.09573242 6.22598755 7.09573242 6.9375 8.375 C7.92771877 10.12351223 8.91995915 11.87088089 9.9140625 13.6171875 C10.42356445 14.51276367 10.93306641 15.40833984 11.45800781 16.33105469 C13.83004221 20.43667218 16.31731248 24.46844983 18.8125 28.5 C22.31189927 34.1653741 25.61767043 39.87869947 28.7421875 45.76171875 C30.21123087 48.37588599 31.91360687 50.71370012 33.703125 53.11328125 C37.19633675 58.19527305 40.7982747 63.89122971 42 70 C42.66 70 43.32 70 44 70 C44.98163422 71.93625098 45.96022454 73.87404539 46.9375 75.8125 C47.48277344 76.89144531 48.02804688 77.97039062 48.58984375 79.08203125 C50 82 50 82 51 85 C51.66 85 52.32 85 53 85 C53.27199219 85.73734375 53.54398437 86.4746875 53.82421875 87.234375 C54.93835024 89.85498993 56.18202888 91.92690131 57.8125 94.25 C65.88054974 106.11477902 65.88054974 106.11477902 67 113 C66.34 113 65.68 113 65 113 C64.7525 113.86625 64.505 114.7325 64.25 115.625 C62.93221387 119.18302254 61.19813178 121.9226155 59 125 C57.13451819 122.20177729 55.72752404 119.45150266 54.29296875 116.42578125 C52.79178665 113.60936408 51.10632686 110.94460285 49.40307617 108.24682617 C46.88165447 104.2091293 44.47856964 100.10130235 42.0625 96 C41.49966309 95.04577148 40.93682617 94.09154297 40.35693359 93.10839844 C32.49695801 79.76881015 24.68089462 66.4032825 16.95703125 52.984375 C16.62024353 52.39948303 16.28345581 51.81459106 15.9364624 51.2119751 C14.30905766 48.38512042 12.68358448 45.55718401 11.06103516 42.72753906 C7.81338301 37.078598 4.49622586 31.49879001 1 26 C0.59007812 26.61488281 0.18015625 27.22976562 -0.2421875 27.86328125 C-2.49479167 31.2421875 -4.74739583 34.62109375 -7 38 C-7.66 38 -8.32 38 -9 38 C-9.26039062 38.68191406 -9.52078125 39.36382812 -9.7890625 40.06640625 C-11.17773381 43.43057448 -12.74978208 46.68356154 -14.375 49.9375 C-14.66632813 50.53240234 -14.95765625 51.12730469 -15.2578125 51.74023438 C-17.23532306 55.70826543 -19.52925751 59.3256984 -22 63 C-22.76939681 65.22602615 -22.76939681 65.22602615 -23 67 C-23.66 67 -24.32 67 -25 67 C-25.144375 67.78375 -25.28875 68.5675 -25.4375 69.375 C-26 72 -26 72 -27 74 C-27.66 74 -28.32 74 -29 74 C-29.2475 74.825 -29.495 75.65 -29.75 76.5 C-31.18704811 80.52373471 -33.02354515 84.21979024 -35 88 C-35.66 88 -36.32 88 -37 88 C-37 88.99 -37 89.98 -37 91 C-37.66 91 -38.32 91 -39 91 C-39 91.99 -39 92.98 -39 94 C-38.34 94.33 -37.68 94.66 -37 95 C-41.32547034 98.25050138 -45.09689352 98.36927717 -50.3125 98.1875 C-51.42334961 98.16719727 -51.42334961 98.16719727 -52.55664062 98.14648438 C-54.37141075 98.11135979 -56.18580288 98.05755972 -58 98 C-57.50481319 93.54331873 -56.13482956 92.07368926 -53 89 C-51.50791753 86.49873772 -50.11117717 84.00778195 -48.75 81.4375 C-44.32862308 73.28593339 -39.67880652 65.280945 -34.9375 57.3125 C-34.5886676 56.72574493 -34.23983521 56.13898987 -33.88043213 55.53445435 C-29.30249949 47.83687035 -24.7002438 40.15394238 -20.08203125 32.48046875 C-17.63268342 28.39822237 -15.22311299 24.29269788 -12.8125 20.1875 C-11.57907337 18.08878804 -10.34551406 15.99015421 -9.11181641 13.89160156 C-8.10922285 12.18582754 -7.10730449 10.47965671 -6.10546875 8.7734375 C-5.57566406 7.87882812 -5.04585937 6.98421875 -4.5 6.0625 C-3.83484375 4.93521484 -3.83484375 4.93521484 -3.15625 3.78515625 C-2 2 -2 2 0 0 Z " fill="#B3B4B5" transform="translate(107,43)"/>
<path d="M0 0 C4.10658618 1.36886206 4.51065938 3.23043894 6.5625 7 C7.26827569 8.27673654 7.97536765 9.55274611 8.68359375 10.828125 C9.05726074 11.50552734 9.43092773 12.18292969 9.81591797 12.88085938 C11.8597016 16.53859998 13.9937397 20.14275762 16.125 23.75 C16.55135742 24.47380859 16.97771484 25.19761719 17.41699219 25.94335938 C19.69566578 29.80773523 21.99297304 33.65996051 24.3125 37.5 C26.60106113 41.29487397 28.77549852 45.14147794 30.8984375 49.03125 C31.80979189 50.66005359 32.80145136 52.24363142 33.8125 53.8125 C35 56 35 56 35 60 C12.89 60 -9.22 60 -32 60 C-31.34 58.68 -30.68 57.36 -30 56 C-30 55.01 -30 54.02 -30 53 C-29.34 53 -28.68 53 -28 53 C-28 52.01 -28 51.02 -28 50 C-27.34 50 -26.68 50 -26 50 C-25.7525 49.175 -25.505 48.35 -25.25 47.5 C-23.81295189 43.47626529 -21.97645485 39.78020976 -20 36 C-19.34 36 -18.68 36 -18 36 C-17.34 33.69 -16.68 31.38 -16 29 C-15.34 29 -14.68 29 -14 29 C-13.9175 28.113125 -13.835 27.22625 -13.75 26.3125 C-13 23 -13 23 -11.21484375 20.8046875 C-8.49593501 17.36169548 -6.71123589 13.74890368 -4.8125 9.8125 C-4.45736328 9.08869141 -4.10222656 8.36488281 -3.73632812 7.61914062 C-2.81928204 5.74850582 -1.90915525 3.87448255 -1 2 C-0.67 1.34 -0.34 0.68 0 0 Z " fill="#FBFBFC" transform="translate(98,81)"/>
<path d="M0 0 C1.28132813 0.10183594 2.56265625 0.20367187 3.8828125 0.30859375 C4.87023438 0.39238281 5.85765625 0.47617188 6.875 0.5625 C6.875 1.2225 6.875 1.8825 6.875 2.5625 C1.595 2.5625 -3.685 2.5625 -9.125 2.5625 C-9.125 1.9025 -9.125 1.2425 -9.125 0.5625 C-6.07230154 -0.96384923 -3.36654311 -0.27544444 0 0 Z " fill="#A1A4A7" transform="translate(58.125,138.4375)"/>
<path d="M0 0 C8.58 0 17.16 0 26 0 C26 0.33 26 0.66 26 1 C17.42 1 8.84 1 0 1 C0 0.67 0 0.34 0 0 Z " fill="#FFFFFF" transform="translate(86,199)"/>
<path d="M0 0 C0.33 0 0.66 0 1 0 C1 8.58 1 17.16 1 26 C0.67 26 0.34 26 0 26 C0 17.42 0 8.84 0 0 Z " fill="#FFFFFF" transform="translate(199,86)"/>
<path d="M0 0 C0.66 0.33 1.32 0.66 2 1 C-0.31 3.31 -2.62 5.62 -5 8 C-5 5 -5 5 -2.5 2.3125 C-1.675 1.549375 -0.85 0.78625 0 0 Z " fill="#FFFFFF" transform="translate(30,25)"/>
<path d="M0 0 C1.98 0 3.96 0 6 0 C6 0.33 6 0.66 6 1 C4.02 1 2.04 1 0 1 C0 0.67 0 0.34 0 0 Z " fill="#FFFFFF" transform="translate(112,198)"/>
<path d="M0 0 C1.98 0 3.96 0 6 0 C6 0.33 6 0.66 6 1 C4.02 1 2.04 1 0 1 C0 0.67 0 0.34 0 0 Z " fill="#FFFFFF" transform="translate(80,198)"/>
<path d="M0 0 C1.65 0 3.3 0 5 0 C5 0.33 5 0.66 5 1 C3.35 1 1.7 1 0 1 C0 0.67 0 0.34 0 0 Z " fill="#FFFFFF" transform="translate(118,197)"/>
<path d="M0 0 C1.65 0 3.3 0 5 0 C5 0.33 5 0.66 5 1 C3.35 1 1.7 1 0 1 C0 0.67 0 0.34 0 0 Z " fill="#FFFFFF" transform="translate(75,197)"/>
<path d="M0 0 C1.65 0 3.3 0 5 0 C5 0.33 5 0.66 5 1 C3.35 1 1.7 1 0 1 C0 0.67 0 0.34 0 0 Z " fill="#FFFFFF" transform="translate(117,0)"/>
<path d="M0 0 C1.65 0 3.3 0 5 0 C5 0.33 5 0.66 5 1 C3.35 1 1.7 1 0 1 C0 0.67 0 0.34 0 0 Z " fill="#FFFFFF" transform="translate(76,0)"/>
<path d="M0 0 C4 1 4 1 4 1 Z " fill="#FFFFFF" transform="translate(123,196)"/>
<path d="M0 0 C4 1 4 1 4 1 Z " fill="#FFFFFF" transform="translate(68,195)"/>
<path d="M0 0 C4 1 4 1 4 1 Z " fill="#FFFFFF" transform="translate(69,2)"/>
<path d="M0 0 C4 1 4 1 4 1 Z " fill="#FFFFFF" transform="translate(122,1)"/>
<path d="M0 0 C3 1 3 1 3 1 Z " fill="#FFFFFF" transform="translate(72,196)"/>
<path d="M0 0 C3 1 3 1 3 1 Z " fill="#FFFFFF" transform="translate(127,195)"/>
<path d="M0 0 C3 1 3 1 3 1 Z " fill="#FFFFFF" transform="translate(130,194)"/>
<path d="M0 0 C3 1 3 1 3 1 Z " fill="#FFFFFF" transform="translate(65,194)"/>
<path d="M0 0 C3 1 3 1 3 1 Z " fill="#FFFFFF" transform="translate(135,192)"/>
<path d="M0 0 C3 1 3 1 3 1 Z " fill="#FFFFFF" transform="translate(60,192)"/>
<path d="" fill="#FFFFFF" transform="translate(0,0)"/>
<path d="" fill="#FFFFFF" transform="translate(0,0)"/>
<path d="" fill="#FFFFFF" transform="translate(0,0)"/>
<path d="" fill="#FFFFFF" transform="translate(0,0)"/>
<path d="" fill="#FFFFFF" transform="translate(0,0)"/>
<path d="" fill="#FFFFFF" transform="translate(0,0)"/>
<path d="M0 0 C3 1 3 1 3 1 Z " fill="#FFFFFF" transform="translate(137,6)"/>
<path d="M0 0 C3 1 3 1 3 1 Z " fill="#FFFFFF" transform="translate(132,4)"/>
<path d="M0 0 C3 1 3 1 3 1 Z " fill="#FFFFFF" transform="translate(63,4)"/>
<path d="M0 0 C3 1 3 1 3 1 Z " fill="#FFFFFF" transform="translate(129,3)"/>
<path d="M0 0 C3 1 3 1 3 1 Z " fill="#FFFFFF" transform="translate(66,3)"/>
<path d="M0 0 C3 1 3 1 3 1 Z " fill="#FFFFFF" transform="translate(126,2)"/>
<path d="M0 0 C3 1 3 1 3 1 Z " fill="#FFFFFF" transform="translate(73,1)"/>
<path d="M0 0 C2 1 2 1 2 1 Z " fill="#FFFFFF" transform="translate(133,193)"/>
<path d="M0 0 C2 1 2 1 2 1 Z " fill="#FFFFFF" transform="translate(63,193)"/>
<path d="M0 0 C2 1 2 1 2 1 Z " fill="#FFFFFF" transform="translate(138,191)"/>
<path d="M0 0 C2 1 2 1 2 1 Z " fill="#FFFFFF" transform="translate(58,191)"/>
<path d="M0 0 C2 1 2 1 2 1 Z " fill="#FFFFFF" transform="translate(140,190)"/>
<path d="M0 0 C2 1 2 1 2 1 Z " fill="#FFFFFF" transform="translate(56,190)"/>
<path d="M0 0 C2 1 2 1 2 1 Z " fill="#FFFFFF" transform="translate(142,189)"/>
<path d="M0 0 C2 1 2 1 2 1 Z " fill="#FFFFFF" transform="translate(54,189)"/>
<path d="M0 0 C2 1 2 1 2 1 Z " fill="#FFFFFF" transform="translate(144,188)"/>
<path d="M0 0 C2 1 2 1 2 1 Z " fill="#FFFFFF" transform="translate(52,188)"/>
<path d="M0 0 C2 1 2 1 2 1 Z " fill="#FFFFFF" transform="translate(146,187)"/>
<path d="M0 0 C2 1 2 1 2 1 Z " fill="#FFFFFF" transform="translate(50,187)"/>
<path d="M0 0 C2 1 2 1 2 1 Z " fill="#FFFFFF" transform="translate(148,186)"/>
<path d="M0 0 C2 1 2 1 2 1 Z " fill="#FFFFFF" transform="translate(47,185)"/>
<path d="M0 0 C2 1 2 1 2 1 Z " fill="#FFFFFF" transform="translate(151,184)"/>
<path d="M0 0 C2 1 2 1 2 1 Z " fill="#FFFFFF" transform="translate(45,184)"/>
<path d="M0 0 C2 1 2 1 2 1 Z " fill="#FFFFFF" transform="translate(154,182)"/>
<path d="M0 0 C2 1 2 1 2 1 Z " fill="#FFFFFF" transform="translate(42,182)"/>
<path d="M0 0 C2 1 2 1 2 1 Z " fill="#FFFFFF" transform="translate(157,180)"/>
<path d="M0 0 C2 1 2 1 2 1 Z " fill="#FFFFFF" transform="translate(38,179)"/>
<path d="M0 0 C2 1 2 1 2 1 Z " fill="#FFFFFF" transform="translate(162,176)"/>
<path d="M0 0 C2 1 2 1 2 1 Z " fill="#FFFFFF" transform="translate(32,174)"/>
<path d="" fill="#FFFFFF" transform="translate(0,0)"/>
<path d="" fill="#FFFFFF" transform="translate(0,0)"/>
<path d="" fill="#FFFFFF" transform="translate(0,0)"/>
<path d="" fill="#FFFFFF" transform="translate(0,0)"/>
<path d="" fill="#FFFFFF" transform="translate(0,0)"/>
<path d="" fill="#FFFFFF" transform="translate(0,0)"/>
<path d="" fill="#FFFFFF" transform="translate(0,0)"/>
<path d="" fill="#FFFFFF" transform="translate(0,0)"/>
<path d="M0 0 C2 1 2 1 2 1 Z " fill="#FFFFFF" transform="translate(164,23)"/>
<path d="M0 0 C2 1 2 1 2 1 Z " fill="#FFFFFF" transform="translate(37,19)"/>
<path d="M0 0 C2 1 2 1 2 1 Z " fill="#FFFFFF" transform="translate(158,18)"/>
<path d="M0 0 C2 1 2 1 2 1 Z " fill="#FFFFFF" transform="translate(155,16)"/>
<path d="M0 0 C2 1 2 1 2 1 Z " fill="#FFFFFF" transform="translate(41,16)"/>
<path d="M0 0 C2 1 2 1 2 1 Z " fill="#FFFFFF" transform="translate(152,14)"/>
<path d="M0 0 C2 1 2 1 2 1 Z " fill="#FFFFFF" transform="translate(44,14)"/>
<path d="M0 0 C2 1 2 1 2 1 Z " fill="#FFFFFF" transform="translate(149,12)"/>
<path d="M0 0 C2 1 2 1 2 1 Z " fill="#FFFFFF" transform="translate(47,12)"/>
<path d="M0 0 C2 1 2 1 2 1 Z " fill="#FFFFFF" transform="translate(147,11)"/>
<path d="M0 0 C2 1 2 1 2 1 Z " fill="#FFFFFF" transform="translate(49,11)"/>
<path d="M0 0 C2 1 2 1 2 1 Z " fill="#FFFFFF" transform="translate(51,10)"/>
<path d="M0 0 C2 1 2 1 2 1 Z " fill="#FFFFFF" transform="translate(144,9)"/>
<path d="M0 0 C2 1 2 1 2 1 Z " fill="#FFFFFF" transform="translate(53,9)"/>
<path d="M0 0 C2 1 2 1 2 1 Z " fill="#FFFFFF" transform="translate(142,8)"/>
<path d="M0 0 C2 1 2 1 2 1 Z " fill="#FFFFFF" transform="translate(55,8)"/>
<path d="M0 0 C2 1 2 1 2 1 Z " fill="#FFFFFF" transform="translate(140,7)"/>
<path d="M0 0 C2 1 2 1 2 1 Z " fill="#FFFFFF" transform="translate(57,7)"/>
<path d="M0 0 C2 1 2 1 2 1 Z " fill="#FFFFFF" transform="translate(59,6)"/>
<path d="M0 0 C2 1 2 1 2 1 Z " fill="#FFFFFF" transform="translate(135,5)"/>
<path d="M0 0 C2 1 2 1 2 1 Z " fill="#FFFFFF" transform="translate(61,5)"/>
<path d="" fill="#FFFFFF" transform="translate(0,0)"/>
<path d="" fill="#FFFFFF" transform="translate(0,0)"/>
<path d="" fill="#FFFFFF" transform="translate(0,0)"/>
<path d="" fill="#FFFFFF" transform="translate(0,0)"/>
<path d="" fill="#FFFFFF" transform="translate(0,0)"/>
<path d="" fill="#FFFFFF" transform="translate(0,0)"/>
<path d="" fill="#FFFFFF" transform="translate(0,0)"/>
<path d="" fill="#FFFFFF" transform="translate(0,0)"/>
<path d="" fill="#FFFFFF" transform="translate(0,0)"/>
<path d="" fill="#FFFFFF" transform="translate(0,0)"/>
<path d="" fill="#FFFFFF" transform="translate(0,0)"/>
<path d="" fill="#FFFFFF" transform="translate(0,0)"/>
<path d="" fill="#FFFFFF" transform="translate(0,0)"/>
<path d="" fill="#FFFFFF" transform="translate(0,0)"/>
<path d="" fill="#FFFFFF" transform="translate(0,0)"/>
<path d="" fill="#FFFFFF" transform="translate(0,0)"/>
<path d="" fill="#FFFFFF" transform="translate(0,0)"/>
<path d="" fill="#FFFFFF" transform="translate(0,0)"/>
<path d="" fill="#FBFDFD" transform="translate(0,0)"/>
<path d="" fill="#FFFFFF" transform="translate(0,0)"/>
<path d="" fill="#FBFDFE" transform="translate(0,0)"/>
<path d="" fill="#FFFFFF" transform="translate(0,0)"/>
<path d="" fill="#FFFFFF" transform="translate(0,0)"/>
<path d="" fill="#FFFFFF" transform="translate(0,0)"/>
<path d="" fill="#FFFFFF" transform="translate(0,0)"/>
<path d="" fill="#FFFFFF" transform="translate(0,0)"/>
<path d="" fill="#FBFDFD" transform="translate(0,0)"/>
<path d="" fill="#FFFFFF" transform="translate(0,0)"/>
<path d="" fill="#FCFDFD" transform="translate(0,0)"/>
<path d="" fill="#FBFDFD" transform="translate(0,0)"/>
<path d="" fill="#FFFFFF" transform="translate(0,0)"/>
<path d="" fill="#FFFFFF" transform="translate(0,0)"/>
<path d="" fill="#FFFFFF" transform="translate(0,0)"/>
<path d="" fill="#FFFFFF" transform="translate(0,0)"/>
<path d="" fill="#FFFFFF" transform="translate(0,0)"/>
<path d="" fill="#FFFFFF" transform="translate(0,0)"/>
<path d="" fill="#FFFFFF" transform="translate(0,0)"/>
<path d="" fill="#FFFFFF" transform="translate(0,0)"/>
<path d="" fill="#FFFFFF" transform="translate(0,0)"/>
<path d="" fill="#FFFFFF" transform="translate(0,0)"/>
<path d="" fill="#FFFFFF" transform="translate(0,0)"/>
<path d="" fill="#FFFFFF" transform="translate(0,0)"/>
<path d="" fill="#FFFFFF" transform="translate(0,0)"/>
<path d="" fill="#FFFFFF" transform="translate(0,0)"/>
<path d="" fill="#FFFFFF" transform="translate(0,0)"/>
<path d="" fill="#FFFFFF" transform="translate(0,0)"/>
<path d="" fill="#FFFFFF" transform="translate(0,0)"/>
<path d="" fill="#FFFFFF" transform="translate(0,0)"/>
<path d="" fill="#FFFFFF" transform="translate(0,0)"/>
<path d="" fill="#FFFFFF" transform="translate(0,0)"/>
<path d="" fill="#FFFFFF" transform="translate(0,0)"/>
<path d="" fill="#FFFFFF" transform="translate(0,0)"/>
<path d="" fill="#FFFFFF" transform="translate(0,0)"/>
<path d="" fill="#FFFFFF" transform="translate(0,0)"/>
<path d="" fill="#FFFFFF" transform="translate(0,0)"/>
<path d="" fill="#FFFFFF" transform="translate(0,0)"/>
<path d="" fill="#FFFFFF" transform="translate(0,0)"/>
<path d="" fill="#FFFFFF" transform="translate(0,0)"/>
<path d="" fill="#FFFFFF" transform="translate(0,0)"/>
<path d="" fill="#FFFFFF" transform="translate(0,0)"/>
<path d="" fill="#FFFFFF" transform="translate(0,0)"/>
<path d="" fill="#FFFFFF" transform="translate(0,0)"/>
<path d="" fill="#FFFFFF" transform="translate(0,0)"/>
<path d="" fill="#FFFFFF" transform="translate(0,0)"/>
</svg>
