<?xml version="1.0" encoding="UTF-8"?>
<svg version="1.1" xmlns="http://www.w3.org/2000/svg" width="200" height="200">
<path d="M0 0 C1.97057373 0.01244751 1.97057373 0.01244751 3.98095703 0.02514648 C31.08150857 0.4955143 54.80307004 11.85474289 73.79345703 30.99267578 C91.78688109 49.64155206 100.83579621 74.56605915 100.625 100.25 C100.61670166 101.56371582 100.60840332 102.87743164 100.59985352 104.23095703 C100.1294857 131.33150857 88.77025711 155.05307004 69.63232422 174.04345703 C50.98344794 192.03688109 26.05894085 201.08579621 0.375 200.875 C-1.59557373 200.86255249 -1.59557373 200.86255249 -3.60595703 200.84985352 C-30.70650857 200.3794857 -54.42807004 189.02025711 -73.41845703 169.88232422 C-91.41188109 151.23344794 -100.46079621 126.30894085 -100.25 100.625 C-100.24170166 99.31128418 -100.23340332 97.99756836 -100.22485352 96.64404297 C-99.7544857 69.54349143 -88.39525711 45.82192996 -69.25732422 26.83154297 C-50.60844794 8.83811891 -25.68394085 -0.21079621 0 0 Z " fill="#0DB8EF" transform="translate(99.8125,-0.4375)"/>
<path d="M0 0 C0 0.66 0 1.32 0 2 C-0.84820312 2.13535156 -1.69640625 2.27070312 -2.5703125 2.41015625 C-12.15851877 4.16975015 -19.48646364 7.338895 -28 12 C-29.32984991 12.67358847 -30.66148412 13.34380075 -32 14 C-32 14.66 -32 15.32 -32 16 C-33.65788785 17.34423339 -35.32576317 18.67618483 -37 20 C-37.53625 20.7425 -38.0725 21.485 -38.625 22.25 C-39.07875 22.8275 -39.5325 23.405 -40 24 C-40.99 24 -41.98 24 -43 24 C-43 24.66 -43 25.32 -43 26 C-48 28 -53 30 -58 32 C-58 32.66 -58 33.32 -58 34 C-59.64421131 35.26660762 -61.3427295 36.46305546 -63.0625 37.625 C-68.21179961 41.29930842 -72.20735003 44.95489353 -76 50 C-76.65742187 50.86109375 -77.31484375 51.7221875 -77.9921875 52.609375 C-90.02276279 69.40678202 -94.52424591 89.96917188 -91.375 110.375 C-89.85736327 116.81676744 -86.55050784 123.29966144 -81 127 C-81 127.66 -81 128.32 -81 129 C-80.278125 129.28746094 -79.55625 129.57492188 -78.8125 129.87109375 C-77.03799237 130.5833614 -75.26666278 131.30364744 -73.5 132.03515625 C-72.2625 132.54369141 -72.2625 132.54369141 -71 133.0625 C-70.175 133.40410156 -69.35 133.74570313 -68.5 134.09765625 C-59.65269825 137.29097922 -51.69485551 136.19025806 -42.796875 133.75390625 C-40.20938313 133.05643987 -37.632779 132.49484715 -35 132 C-37.29981827 127.87600769 -39.69041633 123.92094398 -42.34985352 120.01416016 C-46.87688881 113.31633889 -49.9346283 106.88596468 -52 99 C-52.66 99 -53.32 99 -54 99 C-53.67 99.99 -53.34 100.98 -53 102 C-52.43615871 107.69262838 -52.69280094 112.14944138 -56 117 C-60.34305906 121.48904424 -64.16016491 123.10487235 -70.3125 123.3125 C-75.21885894 123.28813067 -77.99003557 121.73018855 -82 119 C-82 118.34 -82 117.68 -82 117 C-82.66 117 -83.32 117 -84 117 C-84.33 115.68 -84.66 114.36 -85 113 C-84.01 112.505 -84.01 112.505 -83 112 C-82.5875 110.989375 -82.175 109.97875 -81.75 108.9375 C-78.90605928 101.97770538 -74.12326159 96.29931133 -68 92 C-67.25621094 91.86207031 -66.51242188 91.72414063 -65.74609375 91.58203125 C-62.2293203 90.83665537 -59.28102566 89.28174232 -56.125 87.625 C-44.61324505 81.65406776 -33.93936473 77.80109685 -21 76.75 C-20.07960938 76.65976563 -19.15921875 76.56953125 -18.2109375 76.4765625 C-10.33485396 75.78879183 -2.71676327 76.1994219 5 78 C4.67 81.3 4.34 84.6 4 88 C-2.625 88.125 -2.625 88.125 -6 87 C-8.71903026 86.90227587 -11.40662194 86.86089077 -14.125 86.875 C-15.2078125 86.86919922 -15.2078125 86.86919922 -16.3125 86.86328125 C-21.60783209 86.87270355 -26.7455876 87.34449905 -32 88 C-25.84357272 103.60087339 -25.84357272 103.60087339 -16 117 C-15.01 117 -14.02 117 -13 117 C-13 117.99 -13 118.98 -13 120 C-10.68143083 121.54571278 -8.49361571 122.79618552 -6 124 C-5.01 122.515 -5.01 122.515 -4 121 C-3.34 121 -2.68 121 -2 121 C-1.505 119.515 -1.505 119.515 -1 118 C-0.34 118.33 0.32 118.66 1 119 C-0.66666667 122.33333333 -2.33333333 125.66666667 -4 129 C-3.46375 129.12375 -2.9275 129.2475 -2.375 129.375 C0.4638286 130.12206016 3.22223202 131.05303364 6 132 C6.7425 131.21625 7.485 130.4325 8.25 129.625 C11.83857082 126.19954603 14.39544615 124.71370818 19.375 124.6875 C24.46993594 124.83759631 27.96406538 125.97840295 31.6640625 129.65234375 C35.0304084 133.42552292 36.80347534 135.99544851 37.3125 141.1875 C36.84930585 146.83846868 34.63653795 150.83743199 31.25 155.3125 C25.18412607 159.86190545 18.43320387 161.05186847 11 160 C2.08092259 157.81395161 -5.24814924 154.76191794 -12.6328125 149.16015625 C-14.93505734 147.71020999 -14.93505734 147.71020999 -17.3203125 148.62109375 C-18.20460938 149.07613281 -19.08890625 149.53117188 -20 150 C-22.57997431 151.0100325 -25.16238437 152.01004099 -27.75 153 C-28.41515625 153.26039063 -29.0803125 153.52078125 -29.765625 153.7890625 C-38.24444916 157.01753785 -45.99451555 158.30790737 -55.0625 158.125 C-55.92810547 158.11597656 -56.79371094 158.10695312 -57.68554688 158.09765625 C-59.79048779 158.07439723 -61.89528342 158.03854008 -64 158 C-64 158.66 -64 159.32 -64 160 C-63.2575 160.27199219 -62.515 160.54398438 -61.75 160.82421875 C-59.1602438 161.93148667 -57.2516587 163.14574483 -55 164.8125 C-42.72499258 173.17996339 -29.19267874 175.35285943 -14.6875 175.3125 C-13.54087891 175.32861328 -12.39425781 175.34472656 -11.21289062 175.36132812 C-0.27990523 175.36751544 9.4893453 173.34583071 19.1875 168.25 C20.20529541 167.72394165 20.20529541 167.72394165 21.24365234 167.18725586 C30.78123723 162.13331677 38.63884496 156.31358156 42.80859375 146 C45.77068149 135.86761712 44.0900676 125.9727001 39.3125 116.73828125 C36.52202809 111.03663464 36.52202809 111.03663464 32 107 C31.56799321 102.24792529 33.01510917 99.21789302 35 95 C38.12328448 96.33961962 39.74890168 97.61162498 41.65625 100.4140625 C42.12160156 101.09339844 42.58695313 101.77273437 43.06640625 102.47265625 C43.53949219 103.18292969 44.01257813 103.89320312 44.5 104.625 C44.97308594 105.31207031 45.44617188 105.99914062 45.93359375 106.70703125 C49.04870185 111.30634599 51.61112035 115.9856064 54 121 C54.33 120.34 54.66 119.68 55 119 C53.93447925 116.74146029 52.8218095 114.64790093 51.5625 112.5 C51.20140137 111.87432129 50.84030273 111.24864258 50.46826172 110.60400391 C47.59777039 105.74863801 44.3368474 101.37329199 40.6640625 97.0859375 C39.09915616 95.12429434 38.02235822 93.28223401 37 91 C36.34 91 35.68 91 35 91 C34.67 90.01 34.34 89.02 34 88 C35.6875 85.9375 35.6875 85.9375 38 84 C41.04873322 84.18164755 42.56640483 84.60682472 44.84375 86.671875 C45.3903125 87.35765625 45.936875 88.0434375 46.5 88.75 C48.45628611 91.14148583 50.28899586 93.26784982 52.5625 95.375 C62.99247218 106.60727773 66.63209375 122.02657262 67 137 C66.51179119 144.94838198 64.54658872 152.47907465 62 160 C62.66 160.33 63.32 160.66 64 161 C58.06672002 175.83319995 40.01854167 185.74373316 26 192 C12.93150878 197.29610978 0.5031402 199.39535933 -13.5625 199.375 C-14.2257428 199.37412384 -14.8889856 199.37324768 -15.57232666 199.37234497 C-43.6230016 199.25022384 -67.8921047 188.31184341 -87.60595703 168.44482422 C-105.59938109 149.79594794 -114.64829621 124.87144085 -114.4375 99.1875 C-114.42920166 97.87378418 -114.42090332 96.56006836 -114.41235352 95.20654297 C-113.9419857 68.10599143 -102.58275711 44.38442996 -83.44482422 25.39404297 C-61.34665065 4.07255411 -30.15173333 -5.14279908 0 0 Z " fill="#5050C4" transform="translate(114,1)"/>
<path d="M0 0 C16.71968636 11.48767566 29.33915169 28.88411843 33.1809082 49.05664062 C33.90782197 54.54453724 33.76757469 60.03734648 33.6875 65.5625 C33.67847656 66.75746094 33.66945313 67.95242187 33.66015625 69.18359375 C33.63681077 72.10177834 33.60406656 75.01952776 33.5625 77.9375 C32.9025 77.9375 32.2425 77.9375 31.5625 77.9375 C31.16417969 77.10605469 30.76585937 76.27460937 30.35546875 75.41796875 C29.82566406 74.33128906 29.29585938 73.24460937 28.75 72.125 C28.22792969 71.04605469 27.70585937 69.96710938 27.16796875 68.85546875 C25.78412315 66.34030413 24.59672253 64.87398211 22.5625 62.9375 C22.5625 62.2775 22.5625 61.6175 22.5625 60.9375 C21.0775 60.4425 21.0775 60.4425 19.5625 59.9375 C17.73828125 58.08984375 17.73828125 58.08984375 15.875 55.875 C14.94107422 54.77478516 14.94107422 54.77478516 13.98828125 53.65234375 C13.28251953 52.80349609 13.28251953 52.80349609 12.5625 51.9375 C10.12532742 52.20784634 10.12532742 52.20784634 7.5625 52.9375 C5.37759993 55.61392489 5.37759993 55.61392489 5.5625 57.9375 C6.2225 57.9375 6.8825 57.9375 7.5625 57.9375 C15.05317718 66.03087534 22.26836257 75.7389236 26.5625 85.9375 C26.0675 87.4225 26.0675 87.4225 25.5625 88.9375 C22.91354932 86.5751317 21.52371087 84.15850761 19.9375 81 C14.26410977 70.02941852 14.26410977 70.02941852 5.5625 61.9375 C5.43875 62.80375 5.315 63.67 5.1875 64.5625 C4.58191879 67.83263853 3.67943965 70.81006899 2.5625 73.9375 C4.0475 74.4325 4.0475 74.4325 5.5625 74.9375 C7.04910348 77.10705795 8.35541254 79.20886486 9.625 81.5 C10.16060547 82.4595459 10.16060547 82.4595459 10.70703125 83.43847656 C15.71181377 92.64036682 17.09623256 101.80514126 14.4375 112.0625 C10.62909937 123.29464931 1.46341312 130.68843929 -8.90649414 135.83959961 C-20.3743973 141.31722365 -31.16546913 143.44315195 -43.875 143.3125 C-44.99970703 143.32410156 -46.12441406 143.33570313 -47.28320312 143.34765625 C-58.48900874 143.30903774 -68.89186016 141.38226339 -78.8125 136.0625 C-79.45832031 135.73636719 -80.10414062 135.41023437 -80.76953125 135.07421875 C-85.29676782 132.73317288 -89.4219152 130.081485 -93.4375 126.9375 C-93.4375 126.2775 -93.4375 125.6175 -93.4375 124.9375 C-92.21675781 124.90011719 -90.99601562 124.86273438 -89.73828125 124.82421875 C-75.49733476 124.29742128 -63.3912348 122.18946936 -50.43359375 116.14453125 C-47.4375 114.9375 -47.4375 114.9375 -43.4375 114.9375 C-41.38671875 116.07421875 -41.38671875 116.07421875 -39.125 117.625 C-30.41403686 123.04200958 -18.86017874 127.86498169 -8.4375 125.9375 C-2.75282643 124.24648951 1.39490822 122.13235052 4.5625 116.9375 C6.70140265 112.87358496 6.96273904 109.50022507 6.5625 104.9375 C4.66922504 99.6784029 1.96466785 97.14741406 -2.4375 93.9375 C-6.49320252 92.58559916 -10.19657228 92.38024499 -14.4375 92.9375 C-17.8207553 94.8021306 -17.8207553 94.8021306 -20.4375 96.9375 C-21.0975 96.9375 -21.7575 96.9375 -22.4375 96.9375 C-22.9325 98.4225 -22.9325 98.4225 -23.4375 99.9375 C-26.92420834 98.8280928 -30.21234237 97.67412334 -33.4375 95.9375 C-32.79205571 92.45210083 -31.33615603 89.90930943 -29.4375 86.9375 C-32.59865776 88.30733503 -33.4302092 88.9265638 -35.4375 91.9375 C-39.45607317 90.63417897 -41.07415725 89.38404151 -43.4375 85.9375 C-44.241875 85.133125 -45.04625 84.32875 -45.875 83.5 C-50.61133336 78.76366664 -53.69625347 73.89390007 -56.625 67.9375 C-56.98013672 67.23882812 -57.33527344 66.54015625 -57.70117188 65.8203125 C-59.49556563 62.21109545 -60.9082334 58.98204478 -61.4375 54.9375 C-49.78631396 51.54806406 -37.13446872 51.96684128 -25.4375 54.9375 C-25.4375 51.9675 -25.4375 48.9975 -25.4375 45.9375 C-27.4175 45.4425 -27.4175 45.4425 -29.4375 44.9375 C-29.4375 43.9475 -29.4375 42.9575 -29.4375 41.9375 C-27.7875 41.9375 -26.1375 41.9375 -24.4375 41.9375 C-24.1075 38.9675 -23.7775 35.9975 -23.4375 32.9375 C-31.99103147 31.88284127 -40.45977941 31.82078547 -49.0625 31.875 C-50.46223797 31.88002803 -51.8619777 31.88458862 -53.26171875 31.88867188 C-56.65369169 31.90036833 -60.04557233 31.91675914 -63.4375 31.9375 C-60.96721914 17.24153304 -56.69054642 6.95361639 -45.4375 -3.0625 C-29.79032347 -13.36953143 -14.76436878 -9.65640256 0 0 Z " fill="#038EF0" transform="translate(143.4375,34.0625)"/>
<path d="M0 0 C3.05148104 1.01407337 4.08688717 2.11193007 6.07421875 4.60546875 C8.03050486 6.99695458 9.86321461 9.12331857 12.13671875 11.23046875 C22.56669093 22.46274648 26.2063125 37.88204137 26.57421875 52.85546875 C26.08600994 60.80385073 24.12080747 68.3345434 21.57421875 75.85546875 C22.23421875 76.18546875 22.89421875 76.51546875 23.57421875 76.85546875 C17.64093877 91.6886687 -0.40723958 101.59920191 -14.42578125 107.85546875 C-27.49427247 113.15157853 -39.92264105 115.25082808 -53.98828125 115.23046875 C-54.65152405 115.22959259 -55.31476685 115.22871643 -55.99810791 115.22781372 C-84.04878285 115.10569259 -108.31788595 104.16731216 -128.03173828 84.30029297 C-138.72993354 73.21239113 -147.07313038 58.67997842 -151.42578125 43.85546875 C-151.078125 41.42578125 -151.078125 41.42578125 -150.42578125 39.85546875 C-150.1834375 40.37496094 -149.94109375 40.89445312 -149.69140625 41.4296875 C-147.64392655 45.69002025 -145.44516152 49.18907843 -142.42578125 52.85546875 C-142.42578125 53.51546875 -142.42578125 54.17546875 -142.42578125 54.85546875 C-141.43578125 55.18546875 -140.44578125 55.51546875 -139.42578125 55.85546875 C-139.42578125 56.51546875 -139.42578125 57.17546875 -139.42578125 57.85546875 C-138.88953125 58.08234375 -138.35328125 58.30921875 -137.80078125 58.54296875 C-135.42578125 59.85546875 -135.42578125 59.85546875 -132.86328125 62.16796875 C-124.76357904 69.11644425 -113.78286445 71.76524947 -103.42578125 72.85546875 C-103.92078125 74.34046875 -103.92078125 74.34046875 -104.42578125 75.85546875 C-103.68328125 76.12746094 -102.94078125 76.39945312 -102.17578125 76.6796875 C-99.58602505 77.78695542 -97.67743995 79.00121358 -95.42578125 80.66796875 C-83.15077383 89.03543214 -69.61845999 91.20832818 -55.11328125 91.16796875 C-53.96666016 91.18408203 -52.82003906 91.20019531 -51.63867188 91.21679688 C-40.70568648 91.22298419 -30.93643595 89.20129946 -21.23828125 84.10546875 C-20.22048584 83.5794104 -20.22048584 83.5794104 -19.18212891 83.04272461 C-9.64454402 77.98878552 -1.78693629 72.16905031 2.3828125 61.85546875 C5.34490024 51.72308587 3.66428635 41.82816885 -1.11328125 32.59375 C-3.90375316 26.89210339 -3.90375316 26.89210339 -8.42578125 22.85546875 C-8.85778804 18.10339404 -7.41067208 15.07336177 -5.42578125 10.85546875 C-2.30249677 12.19508837 -0.67687957 13.46709373 1.23046875 16.26953125 C1.69582031 16.94886719 2.16117188 17.62820312 2.640625 18.328125 C3.11371094 19.03839844 3.58679688 19.74867187 4.07421875 20.48046875 C4.78384766 21.51107422 4.78384766 21.51107422 5.5078125 22.5625 C8.6229206 27.16181474 11.1853391 31.84107515 13.57421875 36.85546875 C13.90421875 36.19546875 14.23421875 35.53546875 14.57421875 34.85546875 C13.508698 32.59692904 12.39602825 30.50336968 11.13671875 28.35546875 C10.77562012 27.72979004 10.41452148 27.10411133 10.04248047 26.45947266 C7.17198914 21.60410676 3.91106615 17.22876074 0.23828125 12.94140625 C-1.32662509 10.97976309 -2.40342303 9.13770276 -3.42578125 6.85546875 C-4.08578125 6.85546875 -4.74578125 6.85546875 -5.42578125 6.85546875 C-5.75578125 5.86546875 -6.08578125 4.87546875 -6.42578125 3.85546875 C-3.11924859 -0.18584895 -3.11924859 -0.18584895 0 0 Z " fill="#5853C1" transform="translate(154.42578125,85.14453125)"/>
<path d="M0 0 C-0.33 3.3 -0.66 6.6 -1 10 C-7.625 10.125 -7.625 10.125 -11 9 C-13.71903026 8.90227587 -16.40662194 8.86089077 -19.125 8.875 C-19.846875 8.87113281 -20.56875 8.86726563 -21.3125 8.86328125 C-26.60783209 8.87270355 -31.7455876 9.34449905 -37 10 C-30.84357272 25.60087339 -30.84357272 25.60087339 -21 39 C-20.01 39 -19.02 39 -18 39 C-18 39.99 -18 40.98 -18 42 C-15.68143083 43.54571278 -13.49361571 44.79618552 -11 46 C-10.34 45.01 -9.68 44.02 -9 43 C-8.34 43 -7.68 43 -7 43 C-6.67 42.01 -6.34 41.02 -6 40 C-5.34 40.33 -4.68 40.66 -4 41 C-5.66666667 44.33333333 -7.33333333 47.66666667 -9 51 C-8.46375 51.12375 -7.9275 51.2475 -7.375 51.375 C-4.5361714 52.12206016 -1.77776798 53.05303364 1 54 C1.7425 53.21625 2.485 52.4325 3.25 51.625 C6.83857082 48.19954603 9.39544615 46.71370818 14.375 46.6875 C19.46993594 46.83759631 22.96406538 47.97840295 26.6640625 51.65234375 C30.0304084 55.42552292 31.80347534 57.99544851 32.3125 63.1875 C31.84930585 68.83846868 29.63653795 72.83743199 26.25 77.3125 C20.17608081 81.86793939 13.44116623 83.03713142 6 82 C-5.12805142 79.41469512 -13.73580493 74.48145813 -23 68 C-24.04800781 67.33355469 -25.09601563 66.66710937 -26.17578125 65.98046875 C-28.83063357 64.11876733 -30.60942143 62.38730883 -32.625 59.875 C-34.87493349 56.99004533 -34.87493349 56.99004533 -37.9609375 55.1953125 C-40.61323927 53.64051491 -41.55825369 51.56846203 -42.96875 48.90380859 C-44.27135854 46.49904027 -45.81210103 44.27315938 -47.34985352 42.01416016 C-51.87688881 35.31633889 -54.9346283 28.88596468 -57 21 C-57.66 21 -58.32 21 -59 21 C-58.67 21.99 -58.34 22.98 -58 24 C-57.43615871 29.69262838 -57.69280094 34.14944138 -61 39 C-65.34305906 43.48904424 -69.16016491 45.10487235 -75.3125 45.3125 C-80.21885894 45.28813067 -82.99003557 43.73018855 -87 41 C-87 40.34 -87 39.68 -87 39 C-87.66 39 -88.32 39 -89 39 C-89.33 37.68 -89.66 36.36 -90 35 C-89.01 34.505 -89.01 34.505 -88 34 C-87.5875 32.989375 -87.175 31.97875 -86.75 30.9375 C-83.90605928 23.97770538 -79.12326159 18.29931133 -73 14 C-72.25621094 13.86207031 -71.51242188 13.72414063 -70.74609375 13.58203125 C-67.2293203 12.83665537 -64.28102566 11.28174232 -61.125 9.625 C-41.84139166 -0.3770474 -21.5724389 -4.58904609 0 0 Z " fill="#0770E8" transform="translate(119,79)"/>
<path d="M0 0 C0 3.30989803 -0.50601548 4.13288678 -2.1875 6.875 C-7.76173943 16.62991901 -12.13325318 27.75880363 -11.94921875 39.140625 C-11.93734041 42.35569652 -12.02662249 44.93046534 -13 48 C-15.47883023 50.07253945 -17.928617 51.21127555 -20.87890625 52.51953125 C-29.45561261 56.58783126 -38.05060215 64.08131907 -41.8359375 72.9609375 C-43.78686469 79.37112684 -42.6754328 85.64194733 -41 92 C-40.34 92 -39.68 92 -39 92 C-38 93 -37 94 -36 95 C-31.70153116 97.53875452 -27.87535021 97.52706489 -23 97 C-17.79456122 95.37863382 -14.97850528 93.58231582 -12 89 C-11.06750386 86.20251159 -10.86523848 84.45679119 -10.875 81.5625 C-10.87242188 80.80066406 -10.86984375 80.03882812 -10.8671875 79.25390625 C-10.99723985 77.04684141 -11.39143801 75.12030724 -12 73 C-11.01 73 -10.02 73 -9 73 C-8.67128906 73.89138672 -8.67128906 73.89138672 -8.3359375 74.80078125 C-4.55600154 84.68085777 0.33301678 93.44402237 6.6796875 101.90625 C8 104 8 104 8 107 C-4.14519387 112.80857098 -15.27396191 113.37427 -27.98046875 109.12890625 C-38.17961716 105.31577056 -43.17525087 99.15678793 -48.01953125 89.625 C-53.885099 73.92116921 -49.46987228 53.62438887 -42.9921875 38.87890625 C-37.41233976 27.33245942 -27.36917038 13.43138973 -15 9 C-15 8.34 -15 7.68 -15 7 C-13.06374902 6.01836578 -11.12595461 5.03977546 -9.1875 4.0625 C-8.10855469 3.51722656 -7.02960937 2.97195312 -5.91796875 2.41015625 C-3 1 -3 1 0 0 Z " fill="#FBFCFE" transform="translate(71,26)"/>
<path d="M0 0 C10.7075393 5.0221202 16.62483608 14.67366586 20.9453125 25.33203125 C23.4157885 33.87431095 22.49553564 42.9190659 19 51 C12.05889949 63.46190982 -1.51151794 70.66358181 -14.67700195 74.8515625 C-22.32830575 76.98228935 -29.52247174 77.45636522 -37.4375 77.375 C-38.56220703 77.38660156 -39.68691406 77.39820313 -40.84570312 77.41015625 C-52.05150874 77.37153774 -62.45436016 75.44476339 -72.375 70.125 C-73.02082031 69.79886719 -73.66664062 69.47273438 -74.33203125 69.13671875 C-78.85926782 66.79567288 -82.9844152 64.143985 -87 61 C-87 60.34 -87 59.68 -87 59 C-85.77925781 58.96261719 -84.55851562 58.92523438 -83.30078125 58.88671875 C-69.05983476 58.35992128 -56.9537348 56.25196936 -43.99609375 50.20703125 C-41 49 -41 49 -37 49 C-34.94921875 50.13671875 -34.94921875 50.13671875 -32.6875 51.6875 C-23.97653686 57.10450958 -12.42267874 61.92748169 -2 60 C3.68467357 58.30898951 7.83240822 56.19485052 11 51 C13.13890265 46.93608496 13.40023904 43.56272507 13 39 C11.10672504 33.7409029 8.40216785 31.20991406 4 28 C-0.05570252 26.64809916 -3.75907228 26.44274499 -8 27 C-11.3832553 28.8646306 -11.3832553 28.8646306 -14 31 C-14.66 31 -15.32 31 -16 31 C-16.33 31.99 -16.66 32.98 -17 34 C-18.485 33.505 -18.485 33.505 -20 33 C-19.125 31.83333333 -18.25 30.66666667 -17.375 29.5 C-16.82328125 28.75621094 -16.2715625 28.01242188 -15.703125 27.24609375 C-14.68309175 25.90086641 -13.63829136 24.57314491 -12.546875 23.28515625 C-6.8721693 16.41003203 -3.61474435 8.07354067 0 0 Z " fill="#FBFCFE" transform="translate(137,100)"/>
<path d="M0 0 C16.71968636 11.48767566 29.33915169 28.88411843 33.1809082 49.05664062 C33.90782197 54.54453724 33.76757469 60.03734648 33.6875 65.5625 C33.67847656 66.75746094 33.66945313 67.95242187 33.66015625 69.18359375 C33.63681077 72.10177834 33.60406656 75.01952776 33.5625 77.9375 C32.9025 77.9375 32.2425 77.9375 31.5625 77.9375 C31.16417969 77.10605469 30.76585937 76.27460937 30.35546875 75.41796875 C29.82566406 74.33128906 29.29585938 73.24460937 28.75 72.125 C28.22792969 71.04605469 27.70585937 69.96710938 27.16796875 68.85546875 C25.78412315 66.34030413 24.59672253 64.87398211 22.5625 62.9375 C22.5625 62.2775 22.5625 61.6175 22.5625 60.9375 C21.0775 60.4425 21.0775 60.4425 19.5625 59.9375 C18.23046875 58.44140625 18.23046875 58.44140625 16.75 56.5 C14.40626988 53.62360395 12.17378122 51.59830081 8.9921875 49.74609375 C1.14171102 45.13138754 1.14171102 45.13138754 -1.4375 41.9375 C-2.29006003 37.87144445 -2.06941556 34.26623191 -1.6875 30.1796875 C-0.93909884 21.75627651 -3.50370482 12.01026734 -8.375 5.125 C-11.92256888 1.0578377 -15.99934793 -1.72195922 -21.48828125 -2.265625 C-27.43639297 -2.38890193 -31.39214065 -1.45528234 -36.1875 2.3125 C-40.00263746 7.27217869 -40.21229181 12.90380875 -39.4375 18.9375 C-37.09280102 23.80725942 -34.1699552 26.38197419 -29.4375 28.9375 C-26.20711158 29.72820548 -26.20711158 29.72820548 -23.4375 29.9375 C-23.4375 30.9275 -23.4375 31.9175 -23.4375 32.9375 C-23.97810059 32.8660376 -24.51870117 32.7945752 -25.07568359 32.72094727 C-33.06746088 31.78434696 -41.03055343 31.8243825 -49.0625 31.875 C-50.46223797 31.88002803 -51.8619777 31.88458862 -53.26171875 31.88867188 C-56.65369169 31.90036833 -60.04557233 31.91675914 -63.4375 31.9375 C-60.96721914 17.24153304 -56.69054642 6.95361639 -45.4375 -3.0625 C-29.79032347 -13.36953143 -14.76436878 -9.65640256 0 0 Z " fill="#FBFDFE" transform="translate(143.4375,34.0625)"/>
<path d="M0 0 C6.04472249 -0.37008505 10.64212399 -0.17503763 16 3 C21.09790411 7.60080558 24.25349418 12.38295681 26 19 C26.20367187 19.71414062 26.40734375 20.42828125 26.6171875 21.1640625 C27.78833635 25.96095984 27.96239343 30.11860543 27.62597656 35.05615234 C27.08479216 41.76192599 27.08479216 41.76192599 30.18359375 47.51171875 C32.72050282 49.22818063 35.27542621 50.61209745 38 52 C38.33 52.66 38.66 53.32 39 54 C38.175 54.78375 37.35 55.5675 36.5 56.375 C33.77011494 58.63721264 33.77011494 58.63721264 34 61 C34.66 61 35.32 61 36 61 C43.49067718 69.09337534 50.70586257 78.8014236 55 89 C54.505 90.485 54.505 90.485 54 92 C51.35104932 89.6376317 49.96121087 87.22100761 48.375 84.0625 C42.70160977 73.09191852 42.70160977 73.09191852 34 65 C33.814375 66.3303125 33.814375 66.3303125 33.625 67.6875 C33.05587264 70.70387502 32.23385564 73.20326054 31 76 C30.51789063 75.57847656 30.03578125 75.15695313 29.5390625 74.72265625 C28.90742188 74.17480469 28.27578125 73.62695312 27.625 73.0625 C26.99851563 72.51722656 26.37203125 71.97195312 25.7265625 71.41015625 C24.04367666 69.93041376 24.04367666 69.93041376 22 69 C21.73316406 70.02609375 21.46632812 71.0521875 21.19140625 72.109375 C18.25802564 82.3235962 11.79180543 92.78638508 4 100 C0.94185312 100.99514735 -0.32155272 101.2750462 -3.3125 100.0625 C-3.869375 99.711875 -4.42625 99.36125 -5 99 C-4.51013184 96.35471194 -3.83831347 94.74503278 -2.375 92.4375 C-1.92125 91.633125 -1.4675 90.82875 -1 90 C-1.33 89.01 -1.66 88.02 -2 87 C-1.01 87 -0.02 87 1 87 C1 85.68 1 84.36 1 83 C1.84578882 81.15336108 2.77367265 79.34357241 3.75 77.5625 C13.0511899 59.46466588 16.81994019 35.29261584 10.91796875 15.453125 C8.90619618 10.07698383 6.31049268 5.87944341 2 2 C1.34 1.34 0.68 0.68 0 0 Z " fill="#06B9F5" transform="translate(115,31)"/>
<path d="M0 0 C0 3.94025526 -1.77962197 6.35174913 -3.75 9.625 C-8.2572573 17.32948449 -11.87857023 24.02856181 -13 33 C-13.89718202 36.03774128 -14.92582895 39.02069539 -16 42 C-13.56758454 41.52042963 -11.14372807 41.03389113 -8.73046875 40.46484375 C-1.44648562 38.95434034 5.70367601 38.78230852 13.125 38.75 C14.13796143 38.740896 15.15092285 38.73179199 16.19458008 38.72241211 C22.68664459 38.74829374 28.69012459 39.47170466 35 41 C35.33 40.01 35.66 39.02 36 38 C35.67 41.96 35.34 45.92 35 50 C33.35 50.33 31.7 50.66 30 51 C30 51.33 30 51.66 30 52 C28.81470703 51.96519531 28.81470703 51.96519531 27.60546875 51.9296875 C14.14121032 51.71425937 -0.32513038 52.04119772 -13 57 C-14.44052734 57.54140625 -14.44052734 57.54140625 -15.91015625 58.09375 C-21.91688845 60.46302996 -27.34756511 63.22141331 -32.74609375 66.765625 C-35 68 -35 68 -37.56640625 68.51171875 C-42.3514129 69.47179232 -45.61932789 73.17722291 -48.48828125 76.96484375 C-50.99376142 80.81544897 -52.77404792 84.54199244 -54 89 C-54.99 88.67 -55.98 88.34 -57 88 C-58.37450602 79.97585675 -58.22075044 73.81613188 -53.4375 67 C-46.86966789 58.84239924 -38.52608064 52.33003665 -29 48 C-28.34 48 -27.68 48 -27 48 C-27.01160156 47.18015625 -27.02320312 46.3603125 -27.03515625 45.515625 C-27.04417969 44.43796875 -27.05320312 43.3603125 -27.0625 42.25 C-27.07410156 41.18265625 -27.08570312 40.1153125 -27.09765625 39.015625 C-27.01510087 36.46631499 -26.74617558 34.42066409 -26 32 C-25.443125 32.20625 -24.88625 32.4125 -24.3125 32.625 C-21.12775443 33.14144523 -19.79058757 32.63214921 -17 31 C-15.83249801 28.5119302 -14.98528516 26.28927498 -14.1875 23.6875 C-11.34956906 15.31517647 -7.58923892 5.05949262 0 0 Z " fill="#1892EA" transform="translate(85,26)"/>
<path d="M0 0 C2 1 2 1 2.875 3.3125 C3.81721834 6.05766023 3.81721834 6.05766023 5.84765625 7.79296875 C8.31901896 10.32712471 9.83790963 12.91348479 11.5625 16 C13.946001 20.25113485 13.946001 20.25113485 16.71484375 24.25 C18 26 18 26 18 28 C18.66 28 19.32 28 20 28 C21.375 29.46875 21.375 29.46875 23 31.5 C27.15809481 36.38274204 31.8667432 40.18377663 37 44 C37.72058594 44.54785156 38.44117188 45.09570312 39.18359375 45.66015625 C48.01466264 51.99584054 58.54394898 56.1501874 69.4375 56.125 C70.54996094 56.12757813 71.66242188 56.13015625 72.80859375 56.1328125 C75.66377492 56.01399223 78.22507946 55.65353269 81 55 C78.44695051 60.61670888 76.11300442 64.26776469 70.375 66.75 C60.24759578 70.09483075 50.42627135 67.35276807 41 63 C36.10639164 60.34238099 31.55761819 57.18862148 27 54 C25.42798828 53.00033203 25.42798828 53.00033203 23.82421875 51.98046875 C21.16936643 50.11876733 19.39057857 48.38730883 17.375 45.875 C15.12506651 42.99004533 15.12506651 42.99004533 12.0390625 41.1953125 C9.38676073 39.64051491 8.44174631 37.56846203 7.03125 34.90380859 C5.72878097 32.49929781 4.18823263 30.27364409 2.65063477 28.01489258 C-1.39489407 22.02943266 -4.27849095 16.45021828 -6.24609375 9.42578125 C-6.94350154 6.77841718 -6.94350154 6.77841718 -9 4 C-8.443125 3.896875 -7.88625 3.79375 -7.3125 3.6875 C-4.84867158 3.06501112 -4.84867158 3.06501112 -2.375 1.375 C-1.59125 0.92125 -0.8075 0.4675 0 0 Z " fill="#2A7DE6" transform="translate(69,93)"/>
<path d="M0 0 C-0.33 3.3 -0.66 6.6 -1 10 C-7.625 10.125 -7.625 10.125 -11 9 C-26.7382289 8.25632545 -42.04821219 8.89796383 -55.3359375 18.109375 C-56.15964844 18.55023438 -56.15964844 18.55023438 -57 19 C-57.66 18.67 -58.32 18.34 -59 18 C-58.7525 19.2065625 -58.7525 19.2065625 -58.5 20.4375 C-57.54255043 27.25932818 -56.95503867 33.06739006 -61 39 C-65.34305906 43.48904424 -69.16016491 45.10487235 -75.3125 45.3125 C-80.21885894 45.28813067 -82.99003557 43.73018855 -87 41 C-87 40.34 -87 39.68 -87 39 C-87.66 39 -88.32 39 -89 39 C-89.33 37.68 -89.66 36.36 -90 35 C-89.01 34.505 -89.01 34.505 -88 34 C-87.5875 32.989375 -87.175 31.97875 -86.75 30.9375 C-83.90605928 23.97770538 -79.12326159 18.29931133 -73 14 C-72.25621094 13.86207031 -71.51242188 13.72414063 -70.74609375 13.58203125 C-67.2293203 12.83665537 -64.28102566 11.28174232 -61.125 9.625 C-41.84139166 -0.3770474 -21.5724389 -4.58904609 0 0 Z " fill="#1B69DF" transform="translate(119,79)"/>
<path d="M0 0 C-3.50263419 11.67544732 -8.34812464 21.30420649 -17 30 C-26.2727345 26.16161317 -30.0727445 13.99465279 -33.71484375 5.34375 C-35 2 -35 2 -35 0 C-23.80350169 -3.25716314 -11.19649831 -3.25716314 0 0 Z " fill="#FAFCFE" transform="translate(117,89)"/>
<path d="M0 0 C1.72237197 5.1671159 1.65561622 10.10599758 -0.125 15.25 C-2.64088139 18.93995937 -5.52137764 22.17208903 -9.89453125 23.6328125 C-12.22254668 24.03881148 -14.38817755 24.09723268 -16.75 24.0625 C-17.54921875 24.05347656 -18.3484375 24.04445313 -19.171875 24.03515625 C-19.77515625 24.02355469 -20.3784375 24.01195313 -21 24 C-21.3183808 18.69365327 -20.98955485 15.439036 -18 11 C-7.10496183 0 -7.10496183 0 0 0 Z " fill="#363695" transform="translate(60,100)"/>
<path d="M0 0 C3.1875 -0.5 3.1875 -0.5 7 0 C12.2760724 5.12571801 13.82591201 12.70783053 14.11328125 19.79296875 C14.12346498 22.19972273 14.09037071 24.59513503 14 27 C8.68098483 27.50657287 6.13515188 26.32610043 2 23 C-2.43168048 17.96944378 -3.2724783 15.12750716 -3.234375 8.5546875 C-2.92838292 5.21937387 -1.77617832 2.81228233 0 0 Z " fill="#0166A5" transform="translate(106,37)"/>
<path d="M0 0 C1.44349674 0.73839246 2.87959051 1.49126643 4.3125 2.25 C5.51326172 2.87648438 5.51326172 2.87648438 6.73828125 3.515625 C9.13190204 5.08656783 10.43301591 6.6267037 12 9 C11.175 9.78375 10.35 10.5675 9.5 11.375 C6.77011494 13.63721264 6.77011494 13.63721264 7 16 C7.66 16 8.32 16 9 16 C16.49067718 24.09337534 23.70586257 33.8014236 28 44 C27.67 44.99 27.34 45.98 27 47 C24.35104932 44.6376317 22.96121087 42.22100761 21.375 39.0625 C15.70160977 28.09191852 15.70160977 28.09191852 7 20 C6.87625 20.886875 6.7525 21.77375 6.625 22.6875 C6.05587264 25.70387502 5.23385564 28.20326054 4 31 C2.85373678 30.02133662 1.70800212 29.04205413 0.5625 28.0625 C-0.39462891 27.24458984 -0.39462891 27.24458984 -1.37109375 26.41015625 C-2.26991149 25.63204305 -3.15936528 24.84063472 -4 24 C-3.46467411 18.43753333 -2.49855581 12.98296782 -1.4375 7.5 C-1.22963867 6.40945312 -1.22963867 6.40945312 -1.01757812 5.296875 C-0.68063335 3.53081963 -0.34064317 1.76534574 0 0 Z " fill="#0481DC" transform="translate(142,76)"/>
<path d="M0 0 C0.75410156 -0.00708984 1.50820312 -0.01417969 2.28515625 -0.02148438 C7.6459896 0.04040802 7.6459896 0.04040802 10.22265625 1.734375 C11.86850844 4.46286 11.95530936 7.31377922 12.25 10.4375 C10.14745846 12.28562441 8.85172736 13.37943859 6.0234375 13.65234375 C-1.42102268 12.79150226 -8.57596316 11.158103 -14.375 6.1875 C-14.82875 5.61 -15.2825 5.0325 -15.75 4.4375 C-10.29889155 0.79621724 -6.50412782 -0.17594063 0 0 Z " fill="#005EB7" transform="translate(136.75,129.5625)"/>
<path d="M0 0 C0 3.94025526 -1.77962197 6.35174913 -3.75 9.625 C-8.2572573 17.32948449 -11.87857023 24.02856181 -13 33 C-15.35228288 41.92968534 -15.35228288 41.92968534 -19 45 C-21.93981024 46.39640986 -23.72236256 47 -27 47 C-27.02715383 45.25008666 -27.04646551 43.50005055 -27.0625 41.75 C-27.07410156 40.77546875 -27.08570313 39.8009375 -27.09765625 38.796875 C-27.01195577 36.34241322 -26.70706066 34.33831086 -26 32 C-25.443125 32.20625 -24.88625 32.4125 -24.3125 32.625 C-21.12775443 33.14144523 -19.79058757 32.63214921 -17 31 C-15.83249801 28.5119302 -14.98528516 26.28927498 -14.1875 23.6875 C-11.34956906 15.31517647 -7.58923892 5.05949262 0 0 Z " fill="#01ABF8" transform="translate(85,26)"/>
<path d="M0 0 C3.29984422 3.01700043 5.38648705 6.10556967 7.5625 10 C9.946001 14.25113485 9.946001 14.25113485 12.71484375 18.25 C14 20 14 20 14 22 C14.66 22 15.32 22 16 22 C17.375 23.46875 17.375 23.46875 19 25.5 C23.15809481 30.38274204 27.8667432 34.18377663 33 38 C33.72058594 38.54785156 34.44117188 39.09570312 35.18359375 39.66015625 C44.01466264 45.99584054 54.54394898 50.1501874 65.4375 50.125 C66.54996094 50.12757813 67.66242188 50.13015625 68.80859375 50.1328125 C71.66377492 50.01399223 74.22507946 49.65353269 77 49 C75.32032666 51.26958543 73.9598095 52.79777677 71.12744141 53.39453125 C68.8426481 53.54055776 66.60139497 53.5534854 64.3125 53.5 C63.50103516 53.48864014 62.68957031 53.47728027 61.85351562 53.46557617 C55.74068258 53.26701975 51.26801767 52.15671098 46 49 C44.29441586 48.18174468 42.58595763 47.36945912 40.875 46.5625 C36.57554881 44.38590283 32.75780567 42.02258282 29 39 C29 38.34 29 37.68 29 37 C28.42507812 36.73960937 27.85015625 36.47921875 27.2578125 36.2109375 C24.83185323 34.90981748 22.94941474 33.43123945 20.875 31.625 C20.19179687 31.03976563 19.50859375 30.45453125 18.8046875 29.8515625 C16.99345245 27.99328239 16.01347365 26.3717373 15 24 C14.34 24 13.68 24 13 24 C11.44457269 21.86203813 10.02069996 19.73924864 8.625 17.5 C8.221604 16.8615918 7.81820801 16.22318359 7.40258789 15.56542969 C0 3.72489349 0 3.72489349 0 0 Z " fill="#28B4F7" transform="translate(73,99)"/>
<path d="M0 0 C0.33 0 0.66 0 1 0 C1.12117188 0.62648437 1.24234375 1.25296875 1.3671875 1.8984375 C1.53476563 2.71570312 1.70234375 3.53296875 1.875 4.375 C2.03742188 5.18710937 2.19984375 5.99921875 2.3671875 6.8359375 C2.86658932 9.18673923 2.86658932 9.18673923 5 11 C5.309375 12.093125 5.61875 13.18625 5.9375 14.3125 C6.81398859 17.95565369 6.81398859 17.95565369 8.625 20.6875 C10 23 10 23 10 27 C4.08215617 25.73189061 1.41406916 22.7151965 -2 18 C-3.84142662 14.31714676 -3.36956872 10.02829909 -3 6 C-1.5 2.375 -1.5 2.375 0 0 Z " fill="#0A7FD0" transform="translate(106,37)"/>
<path d="M0 0 C-0.66 0.66 -1.32 1.32 -2 2 C-2.99 2 -3.98 2 -5 2 C-4.505 6.95 -4.505 6.95 -4 12 C-5.98 12.33 -7.96 12.66 -10 13 C-10 10.36 -10 7.72 -10 5 C-10.66 5 -11.32 5 -12 5 C-12.33 5.66 -12.66 6.32 -13 7 C-13 6.34 -13 5.68 -13 5 C-14.14339844 5.16113281 -15.28679687 5.32226562 -16.46484375 5.48828125 C-20.8429911 6.03277899 -25.15419319 6.18351058 -29.5625 6.1875 C-30.63661133 6.20586914 -30.63661133 6.20586914 -31.73242188 6.22460938 C-36.52555094 6.23769344 -40.44930811 5.51291071 -45 4 C-45 3.67 -45 3.34 -45 3 C-44.14172607 3.02356567 -44.14172607 3.02356567 -43.26611328 3.04760742 C-31.43853119 3.32741746 -20.27082031 2.95941797 -8.65234375 0.65625 C-5.64537111 0.11595973 -3.03602714 -0.14203636 0 0 Z " fill="#8C4DCA" transform="translate(86,144)"/>
<path d="M0 0 C0 0.66 0 1.32 0 2 C0.78375 2.2475 1.5675 2.495 2.375 2.75 C5.3916501 4.18650005 5.71565565 5.04720831 7 8 C-3.37357631 13.55580866 -3.37357631 13.55580866 -9 14 C-9 11.03 -9 8.06 -9 5 C-8.01 4.67 -7.02 4.34 -6 4 C-6.66 3.34 -7.32 2.68 -8 2 C-2.25 0 -2.25 0 0 0 Z " fill="#444AAC" transform="translate(90,141)"/>
<path d="M0 0 C1.98 0.99 3.96 1.98 6 3 C5.67558396 4.66842534 5.34060811 6.33480481 5 8 C4.7834375 9.11375 4.7834375 9.11375 4.5625 10.25 C4.376875 10.8275 4.19125 11.405 4 12 C3.01 12.495 3.01 12.495 2 13 C2.18433594 13.56203125 2.36867187 14.1240625 2.55859375 14.703125 C3.07352759 17.38260374 2.72113422 19.11546311 2.0625 21.75 C1.86785156 22.54921875 1.67320312 23.3484375 1.47265625 24.171875 C1.31667969 24.77515625 1.16070312 25.3784375 1 26 C-2.875 25.125 -2.875 25.125 -4 24 C-3.46467411 18.43753333 -2.49855581 12.98296782 -1.4375 7.5 C-1.22963867 6.40945312 -1.22963867 6.40945312 -1.01757812 5.296875 C-0.68063335 3.53081963 -0.34064317 1.76534574 0 0 Z " fill="#0479C3" transform="translate(142,76)"/>
<path d="M0 0 C1.25664978 2.90600261 2 4.79604584 2 8 C0.25 9.60546875 0.25 9.60546875 -2 11.1875 C-2.7425 11.71730469 -3.485 12.24710938 -4.25 12.79296875 C-4.8275 13.19128906 -5.405 13.58960937 -6 14 C-9.53099355 10.62950616 -11.21476179 7.84230228 -12 3 C-10.75336669 2.49166409 -9.50250613 1.99368855 -8.25 1.5 C-7.55390625 1.2215625 -6.8578125 0.943125 -6.140625 0.65625 C-4 0 -4 0 0 0 Z " fill="#0264C5" transform="translate(82,89)"/>
<path d="M0 0 C4.18872543 0.24639561 6.70874696 1.81824793 9.5078125 4.921875 C17.60235767 16.19490649 16.57878963 28.7733212 16 42 C15.01 42.495 15.01 42.495 14 43 C13.96261719 41.83984375 13.92523438 40.6796875 13.88671875 39.484375 C13.17696064 20.1522591 13.17696064 20.1522591 3.875 3.6875 C3.25625 3.130625 2.6375 2.57375 2 2 C1.34 1.34 0.68 0.68 0 0 Z " fill="#07DCFD" transform="translate(115,31)"/>
<path d="M0 0 C0.66 0.66 1.32 1.32 2 2 C-0.03415274 9.29901866 -0.03415274 9.29901866 -2.65234375 11.19921875 C-5.51035828 12.43789312 -7.88495781 13 -11 13 C-11.125 6.25 -11.125 6.25 -10 4 C-6.76500317 1.75347442 -3.95761585 0.32088777 0 0 Z " fill="#0275C6" transform="translate(69,60)"/>
<path d="M0 0 C0.33 1.65 0.66 3.3 1 5 C-1.19279755 6.95984446 -2.41965894 7.96508517 -5.40234375 8.14453125 C-13.94989562 7.02505219 -13.94989562 7.02505219 -18 5 C-12.54059724 1.36039816 -6.59612984 -0.5073946 0 0 Z " fill="#004180" transform="translate(148,135)"/>
<path d="M0 0 C0.99 0 1.98 0 3 0 C10.6116637 7.77713465 17.76891318 17.95116879 22 28 C21.67 28.99 21.34 29.98 21 31 C18.36628131 28.65038508 17.00164164 26.2719596 15.4375 23.125 C12.60059195 17.75845605 9.21461563 13.12996143 5.42749023 8.41650391 C3.27058403 5.72152446 1.37788016 3.17677925 0 0 Z " fill="#02BEFB" transform="translate(148,92)"/>
<path d="M0 0 C3.5625 1.5 3.5625 1.5 6 3 C6 3.33 6 3.66 6 4 C4.27111445 4.16955795 2.54187557 4.33551514 0.8125 4.5 C-0.15042969 4.5928125 -1.11335938 4.685625 -2.10546875 4.78125 C-5 5 -5 5 -7.65625 4.9375 C-10.936461 5.02497229 -13.17376769 6.42256801 -16 8 C-16 8.66 -16 9.32 -16 10 C-16.66 10 -17.32 10 -18 10 C-18 7.8125 -18 7.8125 -17 5 C-12.0393841 0.31778602 -6.666868 -1.1786728 0 0 Z " fill="#0569CD" transform="translate(138,126)"/>
<path d="M0 0 C0 0.66 0 1.32 0 2 C-0.54527344 2.10957031 -1.09054688 2.21914062 -1.65234375 2.33203125 C-7.25535065 3.51009937 -12.6054387 5.087035 -18 7 C-18.99 6.01 -19.98 5.02 -21 4 C-15.40249126 -1.59750874 -7.35430801 -2.451436 0 0 Z " fill="#00509D" transform="translate(148,133)"/>
<path d="M0 0 C0.33 0 0.66 0 1 0 C1.34553378 5.75889634 1.36702695 10.06169381 -2 15 C-3.91719468 17.07830348 -5.60681016 18.3882599 -8 20 C-10.375 19.8125 -10.375 19.8125 -12 19 C-10.9171875 17.7625 -10.9171875 17.7625 -9.8125 16.5 C-5.67406622 11.52682531 -2.11343551 6.14817602 0 0 Z " fill="#424CB7" transform="translate(60,103)"/>
<path d="M0 0 C0 0.33 0 0.66 0 1 C-1.18758911 1.12060791 -1.18758911 1.12060791 -2.39916992 1.24365234 C-5.9961007 1.61323072 -9.59176243 1.99399469 -13.1875 2.375 C-14.43337891 2.50132813 -15.67925781 2.62765625 -16.96289062 2.7578125 C-18.16494141 2.88671875 -19.36699219 3.015625 -20.60546875 3.1484375 C-21.71043701 3.26364746 -22.81540527 3.37885742 -23.95385742 3.49755859 C-26.90221672 3.98387128 -29.2582572 4.85013254 -32 6 C-34.8125 6.125 -34.8125 6.125 -37 6 C-37 5.34 -37 4.68 -37 4 C-25.94717409 -1.95152164 -12.14327847 -0.20889588 0 0 Z " fill="#01D1F9" transform="translate(109,76)"/>
<path d="M0 0 C0.33 0 0.66 0 1 0 C1.12117188 0.62648437 1.24234375 1.25296875 1.3671875 1.8984375 C1.53476563 2.71570312 1.70234375 3.53296875 1.875 4.375 C2.03742188 5.18710937 2.19984375 5.99921875 2.3671875 6.8359375 C2.86658932 9.18673923 2.86658932 9.18673923 5 11 C5.309375 12.093125 5.61875 13.18625 5.9375 14.3125 C6.81398859 17.95565369 6.81398859 17.95565369 8.625 20.6875 C10 23 10 23 10 27 C7 26 7 26 5 23 C4.46034467 21.53483579 3.96271523 20.0537507 3.5 18.5625 C2.55982362 15.54269433 1.47888519 12.79840775 0 10 C-0.66 10 -1.32 10 -2 10 C-1.85950482 8.52031676 -1.71245174 7.04125484 -1.5625 5.5625 C-1.48128906 4.73878906 -1.40007812 3.91507813 -1.31640625 3.06640625 C-1 1 -1 1 0 0 Z " fill="#0574BE" transform="translate(106,37)"/>
<path d="M0 0 C0.66 0.66 1.32 1.32 2 2 C1.0925 2.721875 0.185 3.44375 -0.75 4.1875 C-6.8609465 9.32299025 -11.59491351 15.96320105 -12.75 24 C-12.8325 24.99 -12.915 25.98 -13 27 C-13.33 26.34 -13.66 25.68 -14 25 C-14.66 25 -15.32 25 -16 25 C-16.33 23.68 -16.66 22.36 -17 21 C-16.34 20.67 -15.68 20.34 -15 20 C-14.5875 18.989375 -14.175 17.97875 -13.75 16.9375 C-10.85026063 9.84115289 -6.03043833 4.59461968 0 0 Z " fill="#945DDC" transform="translate(46,93)"/>
<path d="M0 0 C0.64324219 0.2165625 1.28648438 0.433125 1.94921875 0.65625 C10.92675621 3.42250976 19.78615295 4.10796501 29 2 C27.31741691 4.28415177 25.96437698 5.80677555 23.11132812 6.37841797 C20.81289273 6.5037399 18.5510183 6.49577742 16.25 6.4375 C15.4765625 6.44458984 14.703125 6.45167969 13.90625 6.45898438 C8.33255003 6.39819738 4.11492666 5.20128693 -1 3 C-0.67 2.01 -0.34 1.02 0 0 Z " fill="#03B0F6" transform="translate(121,146)"/>
<path d="M0 0 C0.66 0.66 1.32 1.32 2 2 C1.5 3.8125 1.5 3.8125 0 6 C-3.23796254 7.6403775 -6.64691336 8.71830759 -10.1953125 9.45703125 C-11.08863281 9.72580078 -11.08863281 9.72580078 -12 10 C-12.33 10.66 -12.66 11.32 -13 12 C-12.67 9.36 -12.34 6.72 -12 4 C-11.46375 4.226875 -10.9275 4.45375 -10.375 4.6875 C-6.94766763 5.13846479 -4.97392976 3.61626617 -2 2 C-1.34 2 -0.68 2 0 2 C0 1.34 0 0.68 0 0 Z " fill="#018DE1" transform="translate(71,54)"/>
<path d="M0 0 C0.66 0.33 1.32 0.66 2 1 C-4.93 7.93 -11.86 14.86 -19 22 C-19 17.63604688 -16.29697402 15.68537662 -13.4375 12.6875 C-12.8919043 12.10589111 -12.34630859 11.52428223 -11.78417969 10.92504883 C-8.06375023 7.00117561 -4.23602964 3.36956903 0 0 Z " fill="#3394F2" transform="translate(39,19)"/>
<path d="M0 0 C2.3125 0.1875 2.3125 0.1875 5 1 C7.60188256 4.31964326 8 5.69316041 8 10 C4.63362603 8.5572683 2.33497429 6.83532593 0 4 C0 2.68 0 1.36 0 0 Z " fill="#02537F" transform="translate(109,37)"/>
<path d="M0 0 C0.33 0 0.66 0 1 0 C1 2.31 1 4.62 1 7 C-1.90600261 8.25664978 -3.79604584 9 -7 9 C-6.8125 6.6875 -6.8125 6.6875 -6 4 C-3.5 2.25 -3.5 2.25 -1 1 C-0.67 0.67 -0.34 0.34 0 0 Z " fill="#005DB4" transform="translate(65,64)"/>
<path d="M0 0 C-2.44463474 3.66695211 -3.88605531 3.76581659 -8 5 C-8.680625 5.4125 -9.36125 5.825 -10.0625 6.25 C-12 7 -12 7 -14.75 6.125 C-15.4925 5.75375 -16.235 5.3825 -17 5 C-12.00934748 1.67289832 -6.07888388 -0.58827908 0 0 Z " fill="#00478B" transform="translate(147,135)"/>
<path d="M0 0 C0 0.33 0 0.66 0 1 C-6.32448699 2.06965872 -12.64416673 3.13329546 -19 4 C-19 3.34 -19 2.68 -19 2 C-12.76443294 -1.59744254 -6.84862228 -0.98924544 0 0 Z " fill="#00C2F8" transform="translate(91,78)"/>
<path d="M0 0 C0.66 0.66 1.32 1.32 2 2 C1.113125 2.70125 0.22625 3.4025 -0.6875 4.125 C-2.98991271 6.02462656 -4.89221836 7.97779531 -6.75 10.3125 C-7.86375 11.6428125 -7.86375 11.6428125 -9 13 C-9.66 13 -10.32 13 -11 13 C-9.63422544 8.71506993 -7.79318655 6.56854295 -4.375 3.6875 C-3.55773438 2.99011719 -2.74046875 2.29273437 -1.8984375 1.57421875 C-0.95871094 0.79498047 -0.95871094 0.79498047 0 0 Z " fill="#7B78EB" transform="translate(46,93)"/>
<path d="M0 0 C-1 3 -1 3 -3.1796875 4.16796875 C-4.06914063 4.50441406 -4.95859375 4.84085937 -5.875 5.1875 C-6.75929688 5.53167969 -7.64359375 5.87585938 -8.5546875 6.23046875 C-11 7 -11 7 -14 7 C-13 4 -13 4 -10.8203125 2.83203125 C-9.93085937 2.49558594 -9.04140625 2.15914063 -8.125 1.8125 C-7.24070312 1.46832031 -6.35640625 1.12414062 -5.4453125 0.76953125 C-3 0 -3 0 0 0 Z " fill="#0DBDF8" transform="translate(69,82)"/>
<path d="M0 0 C0.74958984 0.29068359 1.49917969 0.58136719 2.27148438 0.88085938 C4.12174477 1.59975036 5.96756648 2.33004653 7.8125 3.0625 C4.1607757 4.11446105 1.99855406 3.84540526 -1.6875 2.8125 C-2.6259375 2.55984375 -3.564375 2.3071875 -4.53125 2.046875 C-7.19963712 1.05800213 -9.01946683 -0.11717026 -11.1875 -1.9375 C-6.92243961 -3.3591868 -3.98712257 -1.59136682 0 0 Z " fill="#6C3690" transform="translate(43.1875,133.9375)"/>
<path d="M0 0 C-0.66 0.66 -1.32 1.32 -2 2 C-2.99 2 -3.98 2 -5 2 C-5.33 2.99 -5.66 3.98 -6 5 C-6 4.34 -6 3.68 -6 3 C-9.3 2.67 -12.6 2.34 -16 2 C-16 1.67 -16 1.34 -16 1 C-10.63904667 -0.12862175 -5.44693314 -0.09688221 0 0 Z " fill="#9161DC" transform="translate(79,146)"/>
<path d="M0 0 C0 0.99 0 1.98 0 3 C-1.65 3.66 -3.3 4.32 -5 5 C-5 5.66 -5 6.32 -5 7 C-7.475 6.01 -7.475 6.01 -10 5 C-10 4.34 -10 3.68 -10 3 C-6.55549263 0.70366176 -4.06187717 0.45983515 0 0 Z " fill="#0056AD" transform="translate(133,132)"/>
<path d="M0 0 C1.32 1.32 2.64 2.64 4 4 C3.195625 4.763125 2.39125 5.52625 1.5625 6.3125 C-1.16799024 8.79430898 -1.16799024 8.79430898 -2 12 C-2.66 11.67 -3.32 11.34 -4 11 C-3.52269162 9.5410574 -3.04308958 8.08286504 -2.5625 6.625 C-2.29566406 5.81289062 -2.02882812 5.00078125 -1.75390625 4.1640625 C-1 2 -1 2 0 0 Z " fill="#05A3EA" transform="translate(150,81)"/>
<path d="M0 0 C2.97526665 2.55022856 4.50122302 5.40293526 6 9 C5.67 9.99 5.34 10.98 5 12 C2.02473335 9.44977144 0.49877698 6.59706474 -1 3 C-0.67 2.01 -0.34 1.02 0 0 Z " fill="#02AAFA" transform="translate(164,111)"/>
<path d="M0 0 C4.5565527 3.71274665 6.57400393 8.79007402 9 14 C8.01 14 7.02 14 6 14 C4.99515796 12.04414675 3.99626195 10.08523763 3 8.125 C2.1646875 6.48917969 2.1646875 6.48917969 1.3125 4.8203125 C0 2 0 2 0 0 Z " fill="#19A7F0" transform="translate(73,99)"/>
<path d="M0 0 C3.42362209 0.34934919 3.89068742 0.85543443 6.0625 3.3125 C4.60614629 3.53424933 3.14727044 3.73948698 1.6875 3.9375 C0.87539062 4.05351562 0.06328125 4.16953125 -0.7734375 4.2890625 C-1.48757812 4.29679688 -2.20171875 4.30453125 -2.9375 4.3125 C-3.5975 3.6525 -4.2575 2.9925 -4.9375 2.3125 C-2.9375 0.3125 -2.9375 0.3125 0 0 Z " fill="#0569C4" transform="translate(137.9375,126.6875)"/>
<path d="M0 0 C0.99 0.33 1.98 0.66 3 1 C1.47291037 4.43595166 -0.59927045 7.11912454 -3 10 C-3.99 9.01 -4.98 8.02 -6 7 C-4.71034824 5.62437146 -3.37310707 4.29233607 -2 3 C-1.34 3 -0.68 3 0 3 C0 2.01 0 1.02 0 0 Z " fill="#007BC4" transform="translate(112,119)"/>
<path d="M0 0 C0.66 0.66 1.32 1.32 2 2 C1.54917531 3.46067199 1.08906463 4.91848032 0.625 6.375 C0.36976563 7.18710938 0.11453125 7.99921875 -0.1484375 8.8359375 C-1 11 -1 11 -3 13 C-4.32757546 9.01727361 -3.3296542 6.9189808 -2 3 C-1.34 2.01 -0.68 1.02 0 0 Z " fill="#068BEB" transform="translate(148,94)"/>
<path d="M0 0 C1.32 0.66 2.64 1.32 4 2 C4 2.99 4 3.98 4 5 C3.360625 5.12375 2.72125 5.2475 2.0625 5.375 C1.0415625 5.684375 1.0415625 5.684375 0 6 C-0.33 6.66 -0.66 7.32 -1 8 C-0.67 5.36 -0.34 2.72 0 0 Z " fill="#0E80DC" transform="translate(59,58)"/>
<path d="M0 0 C0.66 0.33 1.32 0.66 2 1 C2 1.66 2 2.32 2 3 C0.35546875 4.21875 0.35546875 4.21875 -1.8125 5.5 C-2.52019531 5.9228125 -3.22789063 6.345625 -3.95703125 6.78125 C-4.63121094 7.1834375 -5.30539063 7.585625 -6 8 C-6.99 8.66 -7.98 9.32 -9 10 C-7.61811547 6.78956118 -6.07578097 4.95063635 -3.375 2.75 C-2.74335937 2.22921875 -2.11171875 1.7084375 -1.4609375 1.171875 C-0.73777344 0.59179688 -0.73777344 0.59179688 0 0 Z " fill="#136EA0" transform="translate(103,25)"/>
<path d="M0 0 C0.66 0.33 1.32 0.66 2 1 C1.01 3.97 0.02 6.94 -1 10 C-1.99 10 -2.98 10 -4 10 C-4 9.01 -4 8.02 -4 7 C-3.34 7.33 -2.68 7.66 -2 8 C-1.855625 7.236875 -1.71125 6.47375 -1.5625 5.6875 C-1 3 -1 3 0 0 Z " fill="#0296D8" transform="translate(148,80)"/>
<path d="M0 0 C4.875 4.625 4.875 4.625 6 8 C6.66 8.33 7.32 8.66 8 9 C7.01 9.33 6.02 9.66 5 10 C4.16121545 8.71186658 3.32913217 7.41936744 2.5 6.125 C2.0359375 5.40570313 1.571875 4.68640625 1.09375 3.9453125 C0 2 0 2 0 0 Z " fill="#28AEF5" transform="translate(81,113)"/>
<path d="M0 0 C0.66 0.66 1.32 1.32 2 2 C-3.625 6 -3.625 6 -7 6 C-6 3 -6 3 -2.9375 1.3125 C-1.968125 0.879375 -0.99875 0.44625 0 0 Z " fill="#3DA6F4" transform="translate(54,88)"/>
<path d="M0 0 C1.32 0.33 2.64 0.66 4 1 C2.02 3.31 0.04 5.62 -2 8 C-2.33 7.01 -2.66 6.02 -3 5 C-1.5625 2.3125 -1.5625 2.3125 0 0 Z " fill="#055FB2" transform="translate(174,161)"/>
<path d="M0 0 C0.99 0.33 1.98 0.66 3 1 C2.41196203 4.02419525 1.77321882 7.01758453 1 10 C0.34 9.67 -0.32 9.34 -1 9 C-0.67 6.03 -0.34 3.06 0 0 Z " fill="#0386CF" transform="translate(145,78)"/>
<path d="M0 0 C1.98 0 3.96 0 6 0 C6 1.65 6 3.3 6 5 C4.02 4.34 2.04 3.68 0 3 C0 2.01 0 1.02 0 0 Z " fill="#0189C4" transform="translate(114,76)"/>
<path d="M0 0 C0 0.99 0 1.98 0 3 C-3.3 2.67 -6.6 2.34 -10 2 C-6.00889681 0.0044484 -4.30013434 -0.19546065 0 0 Z " fill="#E8F3FB" transform="translate(120,64)"/>
<path d="M0 0 C0.928125 0.515625 1.85625 1.03125 2.8125 1.5625 C2.8125 1.8925 2.8125 2.2225 2.8125 2.5625 C-0.33374993 2.82468749 -1.80587017 2.81004367 -4.5 1.0625 C-5.056875 0.5675 -5.61375 0.0725 -6.1875 -0.4375 C-3.1875 -1.4375 -3.1875 -1.4375 0 0 Z " fill="#5E2174" transform="translate(38.1875,132.4375)"/>
<path d="M0 0 C2.32472205 2.85306797 3.7508258 5.54074837 5 9 C3.0625 8.4375 3.0625 8.4375 1 7 C0.25 3.375 0.25 3.375 0 0 Z " fill="#AC3082" transform="translate(3,125)"/>
<path d="M0 0 C2.97 0 5.94 0 9 0 C7.35 1.32 5.7 2.64 4 4 C2 3 2 3 0 0 Z " fill="#1278D7" transform="translate(129,126)"/>
<path d="M0 0 C0.66 0.66 1.32 1.32 2 2 C-0.31 3.65 -2.62 5.3 -5 7 C-3.92643531 2.70574125 -3.4915227 2.25259529 0 0 Z " fill="#6192F1" transform="translate(46,93)"/>
<path d="M0 0 C0.99 0 1.98 0 3 0 C2.43628586 3.26954202 1.50037734 4.82575883 -1 7 C-0.67 4.69 -0.34 2.38 0 0 Z " fill="#0170BC" transform="translate(140,89)"/>
</svg>
