<?xml version="1.0" encoding="UTF-8"?>
<svg version="1.1" xmlns="http://www.w3.org/2000/svg" width="200" height="200">
<path d="M0 0 C1.27746094 -0.020625 2.55492188 -0.04125 3.87109375 -0.0625 C30.69330719 -0.17120198 54.00670287 11.24040854 72.84082031 29.68554688 C91.77224773 48.710364 100.54787209 73.02347686 100.5625 99.5 C100.57474609 100.65113281 100.58699219 101.80226563 100.59960938 102.98828125 C100.63764932 125.48256697 93.28459304 147.19734431 78.375 164.25 C77.61316406 165.14332031 76.85132813 166.03664062 76.06640625 166.95703125 C61.16871211 183.94644532 38.93917028 197.88078147 15.96337891 200.08447266 C10.66544709 200.42327645 5.36952091 200.43454673 0.0625 200.4375 C-1.08412109 200.44974609 -2.23074219 200.46199219 -3.41210938 200.47460938 C-31.71838381 200.52266757 -54.64039829 188.08690952 -74.3203125 168.578125 C-95.78788288 145.72789754 -100.37134728 118.95709292 -99.76123047 88.73925781 C-99.048381 70.48111347 -90.32382917 50.35741164 -78.625 36.25 C-77.965 36.25 -77.305 36.25 -76.625 36.25 C-76.3878125 35.68796875 -76.150625 35.1259375 -75.90625 34.546875 C-74.33552303 31.73105958 -72.41028536 29.77044584 -70.125 27.5 C-69.3309375 26.70078125 -68.536875 25.9015625 -67.71875 25.078125 C-65.625 23.25 -65.625 23.25 -63.625 23.25 C-63.625 22.59 -63.625 21.93 -63.625 21.25 C-61.67648317 19.76159253 -59.75377364 18.43371375 -57.6875 17.125 C-57.06649414 16.72974121 -56.44548828 16.33448242 -55.80566406 15.92724609 C-37.77431677 4.74352822 -21.17303094 0.08393669 0 0 Z " fill="#E8A01C" transform="translate(99.625,-0.25)"/>
<path d="M0 0 C1.27746094 -0.020625 2.55492188 -0.04125 3.87109375 -0.0625 C30.69330719 -0.17120198 54.00670287 11.24040854 72.84082031 29.68554688 C91.77224773 48.710364 100.54787209 73.02347686 100.5625 99.5 C100.57474609 100.65113281 100.58699219 101.80226563 100.59960938 102.98828125 C100.63764932 125.48256697 93.28459304 147.19734431 78.375 164.25 C77.61316406 165.14332031 76.85132813 166.03664062 76.06640625 166.95703125 C61.16871211 183.94644532 38.93917028 197.88078147 15.96337891 200.08447266 C10.66544709 200.42327645 5.36952091 200.43454673 0.0625 200.4375 C-1.08412109 200.44974609 -2.23074219 200.46199219 -3.41210938 200.47460938 C-31.71838381 200.52266757 -54.64039829 188.08690952 -74.3203125 168.578125 C-95.78788288 145.72789754 -100.37134728 118.95709292 -99.76123047 88.73925781 C-99.048381 70.48111347 -90.32382917 50.35741164 -78.625 36.25 C-77.965 36.25 -77.305 36.25 -76.625 36.25 C-76.3878125 35.68796875 -76.150625 35.1259375 -75.90625 34.546875 C-74.33552303 31.73105958 -72.41028536 29.77044584 -70.125 27.5 C-69.3309375 26.70078125 -68.536875 25.9015625 -67.71875 25.078125 C-65.625 23.25 -65.625 23.25 -63.625 23.25 C-63.625 22.59 -63.625 21.93 -63.625 21.25 C-61.67648317 19.76159253 -59.75377364 18.43371375 -57.6875 17.125 C-57.06649414 16.72974121 -56.44548828 16.33448242 -55.80566406 15.92724609 C-37.77431677 4.74352822 -21.17303094 0.08393669 0 0 Z M-22.625 26.25 C-22.625 26.91 -22.625 27.57 -22.625 28.25 C-23.57375 28.37375 -24.5225 28.4975 -25.5 28.625 C-37.96294819 32.23269553 -44.97089067 48.2122925 -50.72583008 58.6484375 C-52.17355908 61.28709105 -53.61224013 63.93054796 -55.05078125 66.57421875 C-56.9111355 69.9789421 -58.83348587 73.32464338 -60.875 76.625 C-71.14715557 93.44751565 -77.94947187 111.1378319 -73.8359375 131.07421875 C-72.88622955 134.19520556 -71.81788652 137.21476652 -70.625 140.25 C-70.233125 141.44625 -69.84125 142.6425 -69.4375 143.875 C-61.56382248 158.53633056 -49.87181126 167.46153943 -34.2565918 172.29199219 C-28.38038208 173.73292203 -22.44782058 173.57482512 -16.4296875 173.5859375 C-15.16464386 173.5925943 -13.89960022 173.5992511 -12.59622192 173.60610962 C-9.92500687 173.61620846 -7.25419914 173.62179623 -4.58300781 173.62060547 C-1.20108077 173.62040324 2.17999685 173.64762738 5.56172371 173.68214989 C8.83538551 173.71007789 12.10904808 173.70857658 15.3828125 173.7109375 C16.57601105 173.72530853 17.76920959 173.73967957 18.99856567 173.75448608 C34.15609628 173.67368859 46.96908775 169.40867954 57.8984375 158.80078125 C61.81959944 155.06262199 61.81959944 155.06262199 63.375 150.25 C64.035 150.25 64.695 150.25 65.375 150.25 C74.16838472 136.11777455 76.32804576 121.25932408 73.25 105 C71.58904563 98.16304828 68.77427418 92.3748881 65.375 86.25 C64.48434442 84.5623372 63.59379376 82.8746173 62.70581055 81.18554688 C57.0517437 70.4753145 51.18749081 59.87468573 45.375 49.25 C44.715 49.25 44.055 49.25 43.375 49.25 C43.30667969 48.54488281 43.23835938 47.83976562 43.16796875 47.11328125 C42.15496141 43.45547642 40.21194373 41.16317708 37.6875 38.4375 C37.20563232 37.91559082 36.72376465 37.39368164 36.22729492 36.85595703 C26.89110077 27.23702733 15.14563892 22.09009392 1.76049805 21.87109375 C0.87015869 21.87238281 -0.02018066 21.87367187 -0.9375 21.875 C-1.85942139 21.87371094 -2.78134277 21.87242188 -3.73120117 21.87109375 C-10.60843569 21.97782096 -16.46546762 23.0187699 -22.625 26.25 Z " fill="#FEFEFD" transform="translate(99.625,-0.25)"/>
<path d="M0 0 C0.87358154 -0.00966797 1.74716309 -0.01933594 2.6472168 -0.02929688 C16.06075431 0.14156021 27.85742076 5.75099644 37.5 15.0625 C44.4375 22.62126866 44.4375 22.62126866 44.4375 27.4375 C45.0975 27.4375 45.7575 27.4375 46.4375 27.4375 C47.93093624 30.13819428 49.40456493 32.84922375 50.875 35.5625 C51.29587891 36.32304688 51.71675781 37.08359375 52.15039062 37.8671875 C54.4311677 42.10030975 55.90132732 45.58929067 56.4375 50.4375 C56.7675 50.7675 57.0975 51.0975 57.4375 51.4375 C57.25 53.375 57.25 53.375 56.4375 55.4375 C53.48204879 57.54853658 50.99894099 57.63535783 47.4375 57.4375 C47.4375 58.0975 47.4375 58.7575 47.4375 59.4375 C48.9225 59.9325 48.9225 59.9325 50.4375 60.4375 C49.4475 61.4275 48.4575 62.4175 47.4375 63.4375 C45.7875 62.7775 44.1375 62.1175 42.4375 61.4375 C42.4375 60.7775 42.4375 60.1175 42.4375 59.4375 C41.7775 59.4375 41.1175 59.4375 40.4375 59.4375 C40.7675 60.4275 41.0975 61.4175 41.4375 62.4375 C40.963125 62.870625 40.48875 63.30375 40 63.75 C38.20063043 65.46059613 38.20063043 65.46059613 37.4375 68.4375 C37.1075 67.4475 36.7775 66.4575 36.4375 65.4375 C34.7875 65.7675 33.1375 66.0975 31.4375 66.4375 C31.4375 65.7775 31.4375 65.1175 31.4375 64.4375 C29.4575 63.9425 29.4575 63.9425 27.4375 63.4375 C26.7775 61.1275 26.1175 58.8175 25.4375 56.4375 C24.7775 56.4375 24.1175 56.4375 23.4375 56.4375 C23.03144531 55.35082031 23.03144531 55.35082031 22.6171875 54.2421875 C21.46202549 51.49580894 20.12461271 49.0958745 18.5625 46.5625 C16.71690427 43.55386463 14.93135475 40.54054081 13.25 37.4375 C11.61281082 34.24719787 11.61281082 34.24719787 8.4375 32.4375 C8.4375 31.7775 8.4375 31.1175 8.4375 30.4375 C7.08634893 30.29962744 5.7308546 30.20422356 4.375 30.125 C3.62089844 30.06699219 2.86679688 30.00898437 2.08984375 29.94921875 C-1.94321436 30.69168158 -4.71750769 32.5941189 -7.5625 35.4375 C-9.70382247 38.61959896 -11.34656498 41.98190344 -13 45.4375 C-13.95742314 47.35072105 -14.91835363 49.26219101 -15.8828125 51.171875 C-16.34333008 52.08904297 -16.80384766 53.00621094 -17.27832031 53.95117188 C-18.83367881 56.96253518 -20.55518842 59.82891186 -22.375 62.6875 C-26.37867426 69.08330668 -30.26231227 75.54355211 -34.0625 82.0625 C-34.69905518 83.11211914 -35.33561035 84.16173828 -35.99145508 85.24316406 C-39.91846743 92.06334157 -41.82560829 97.53329813 -40.5625 105.4375 C-39.1793113 108.51823848 -37.9240433 110.0759567 -35.5625 112.4375 C-45.64187132 112.11235899 -53.09690084 107.73600975 -59.96484375 100.4296875 C-65.17830808 93.92879065 -70.11842623 86.2233896 -69.87890625 77.65356445 C-68.75051564 69.75047684 -64.04470626 62.29113669 -60.1875 55.4375 C-59.69999268 54.56101807 -59.21248535 53.68453613 -58.71020508 52.78149414 C-55.86153749 47.68125337 -52.94773048 42.63017404 -49.8828125 37.65625 C-48.36701023 35.10898464 -47.00219591 32.49960372 -45.625 29.875 C-42.76736169 24.59878761 -39.47319133 19.98143238 -35.5625 15.4375 C-34.98371094 14.76332031 -34.40492187 14.08914062 -33.80859375 13.39453125 C-29.98473046 9.2455968 -27.12755005 7.45965205 -21.5625 6.4375 C-21.5625 5.7775 -21.5625 5.1175 -21.5625 4.4375 C-14.52350526 0.7449126 -7.8080251 0.02756341 0 0 Z " fill="#D87A1E" transform="translate(98.5625,21.5625)"/>
<path d="M0 0 C0.77214844 0.13792969 1.54429688 0.27585938 2.33984375 0.41796875 C2.90832031 0.54816406 3.47679687 0.67835937 4.0625 0.8125 C4.0625 1.4725 4.0625 2.1325 4.0625 2.8125 C4.63871094 3.01230469 5.21492188 3.21210937 5.80859375 3.41796875 C8.91760556 5.34156878 10.3444838 8.03396899 12.125 11.125 C12.79660156 12.25550781 13.46820313 13.38601562 14.16015625 14.55078125 C14.78792969 15.62714844 15.41570312 16.70351562 16.0625 17.8125 C16.63871094 18.69292969 17.21492188 19.57335937 17.80859375 20.48046875 C19.0625 22.8125 19.0625 22.8125 19.0625 26.8125 C19.7225 26.8125 20.3825 26.8125 21.0625 26.8125 C21.43375 27.781875 21.805 28.75125 22.1875 29.75 C23.45743352 32.72306866 24.97524773 35.27987039 26.8125 37.9375 C30.0762456 42.67519523 32.72976642 47.65416213 35.3828125 52.75390625 C36.78272568 55.30305049 38.26531927 57.49469213 40 59.8125 C43.29815249 64.95148179 43.04330778 70.95879007 42.0625 76.8125 C39.56554545 80.34985227 37.03733172 82.22199272 33.0625 83.8125 C29.91969299 84.07319641 29.91969299 84.07319641 26.17016602 84.0871582 C25.48510986 84.09226913 24.80005371 84.09738007 24.09423828 84.10264587 C21.8348715 84.11651972 19.57581051 84.11558683 17.31640625 84.11328125 C15.74226264 84.11716938 14.16812009 84.1215043 12.59397888 84.12626648 C9.29626055 84.13372391 5.9986493 84.13344088 2.70092773 84.12817383 C-1.52033209 84.12237958 -5.74115308 84.13931111 -9.96234035 84.1625185 C-13.21290133 84.17726639 -16.46335688 84.17812612 -19.71394539 84.17500877 C-21.27003918 84.17552145 -22.82613896 84.18074915 -24.38220024 84.19082069 C-26.56034554 84.20318876 -28.73763932 84.19639211 -30.91577148 84.18481445 C-32.15391098 84.18544388 -33.39205048 84.1860733 -34.66770935 84.1867218 C-39.14494981 83.67430949 -41.75078059 82.12198349 -44.75 78.8125 C-46.96371791 73.21994949 -46.98345201 67.50433109 -44.79760742 61.87890625 C-43.17989809 58.78080388 -41.44275951 55.79756349 -39.625 52.8125 C-38.98925049 51.72525635 -38.35350098 50.6380127 -37.69848633 49.51782227 C-36.40652747 47.31221653 -35.1047696 45.11231958 -33.79296875 42.91845703 C-31.64964254 39.33064177 -29.55802944 35.71523139 -27.47485352 32.09228516 C-26.14860936 29.7909673 -24.80705018 27.49906471 -23.46484375 25.20703125 C-21.74820206 22.25587689 -20.10267822 19.27830636 -18.50390625 16.26171875 C-18.11243408 15.53283447 -17.72096191 14.8039502 -17.31762695 14.05297852 C-16.59497797 12.7002558 -15.88513728 11.34056167 -15.19213867 9.97241211 C-12.06009909 4.14671024 -7.18762778 -1.43752556 0 0 Z " fill="#FEFCFB" transform="translate(102.9375,51.1875)"/>
<path d="M0 0 C3.06026714 3.72300015 5.16118628 7.87141452 7.375 12.125 C7.77348145 12.88981689 8.17196289 13.65463379 8.58251953 14.44262695 C9.36996876 15.9557804 10.15629962 17.46951648 10.94140625 18.98388672 C11.79987903 20.61886554 12.69187249 22.23621335 13.59375 23.84765625 C20.00037863 35.54756646 22.08813185 50.55934077 19.4609375 63.6953125 C18.76733919 65.88281485 17.95435491 67.91411037 17 70 C16.66355469 70.79148437 16.32710937 71.58296875 15.98046875 72.3984375 C14.42878255 75.98998084 12.76527018 79.50868786 11 83 C10.34 83 9.68 83 9 83 C8.73058594 83.58136719 8.46117187 84.16273438 8.18359375 84.76171875 C3.9869328 92.69797857 -3.10440263 98.02330088 -11 102 C-13.48849839 102.72205134 -15.39462773 102.94210284 -18 103 C-17.62488281 102.55011719 -17.24976563 102.10023438 -16.86328125 101.63671875 C-7.55662173 89.93892757 -4.04504876 77.7833798 -5 63 C-5.48290926 60.21494574 -6.15189892 57.70332219 -7 55 C-7.66 55.99 -8.32 56.98 -9 58 C-8.99097656 57.40574219 -8.98195312 56.81148437 -8.97265625 56.19921875 C-9.21405153 49.45064635 -11.21870518 45.50528385 -15.01953125 40.01171875 C-18.55843519 34.63007193 -21.20291062 28.79344371 -24 23 C-24.66406969 21.66537134 -25.32941082 20.33136486 -26 19 C-25.34 19 -24.68 19 -24 19 C-24 19.66 -24 20.32 -24 21 C-22.7934375 20.7525 -22.7934375 20.7525 -21.5625 20.5 C-19 20 -19 20 -18 20 C-15.62984755 17.34515551 -15.62984755 17.34515551 -15 14 C-14.34 14 -13.68 14 -13 14 C-13 14.66 -13 15.32 -13 16 C-10.60280568 16.67958603 -10.60280568 16.67958603 -8 17 C-7.34 16.34 -6.68 15.68 -6 15 C-6.66 14.67 -7.32 14.34 -8 14 C-8 13.34 -8 12.68 -8 12 C-5.03 11.01 -2.06 10.02 1 9 C1 8.34 1 7.68 1 7 C0.34 6.67 -0.32 6.34 -1 6 C-0.67 5.34 -0.34 4.68 0 4 C0 2.68 0 1.36 0 0 Z " fill="#EEB01D" transform="translate(154,67)"/>
<path d="M0 0 C6 6.43055556 6 6.43055556 6 11 C6.66 11 7.32 11 8 11 C9.49343624 13.70069428 10.96706493 16.41172375 12.4375 19.125 C12.85837891 19.88554688 13.27925781 20.64609375 13.71289062 21.4296875 C15.9936677 25.66280975 17.46382732 29.15179067 18 34 C18.33 34.33 18.66 34.66 19 35 C18.8125 36.9375 18.8125 36.9375 18 39 C15.04454879 41.11103658 12.56144099 41.19785783 9 41 C9 41.66 9 42.32 9 43 C9.99 43.33 10.98 43.66 12 44 C11.01 44.99 10.02 45.98 9 47 C7.35 46.34 5.7 45.68 4 45 C4 44.34 4 43.68 4 43 C3.34 43 2.68 43 2 43 C2.33 43.99 2.66 44.98 3 46 C2.525625 46.433125 2.05125 46.86625 1.5625 47.3125 C-0.23686957 49.02309613 -0.23686957 49.02309613 -1 52 C-1.33 51.01 -1.66 50.02 -2 49 C-4.475 49.495 -4.475 49.495 -7 50 C-7 49.34 -7 48.68 -7 48 C-8.32 47.67 -9.64 47.34 -11 47 C-11.66 44.69 -12.32 42.38 -13 40 C-13.66 40 -14.32 40 -15 40 C-15.27070312 39.27554688 -15.54140625 38.55109375 -15.8203125 37.8046875 C-16.97547451 35.05830894 -18.31288729 32.6583745 -19.875 30.125 C-21.72059573 27.11636463 -23.50614525 24.10304081 -25.1875 21 C-26.82468918 17.80969787 -26.82468918 17.80969787 -30 16 C-30 15.34 -30 14.68 -30 14 C-37.22032206 13.7006013 -37.22032206 13.7006013 -44 16 C-39.06440964 7.02619934 -30.80838532 1.44644985 -21.09375 -1.3828125 C-14.41473013 -2.71524323 -6.08588524 -3.47764871 0 0 Z " fill="#B92C15" transform="translate(137,38)"/>
<path d="M0 0 C4.1815612 4.1815612 4.18385695 10.54878013 4.375 16.1875 C4.13241934 29.28685579 -1.25061603 41.31318203 -10 51 C-13.09943545 52.54971773 -16.37943598 52.16291442 -19.78125 52.16796875 C-20.55053833 52.17129715 -21.31982666 52.17462555 -22.11242676 52.17805481 C-23.73982138 52.18312004 -25.3672264 52.18546326 -26.99462891 52.18530273 C-29.49008175 52.1874913 -31.98509405 52.20565654 -34.48046875 52.22460938 C-36.05989432 52.22754291 -37.63932199 52.22952797 -39.21875 52.23046875 C-39.9677356 52.23765427 -40.71672119 52.24483978 -41.48840332 52.25224304 C-46.7711724 52.2288276 -46.7711724 52.2288276 -49 50 C-48.505 49.505 -48.505 49.505 -48 49 C-47.7746669 46.9720021 -47.55232815 44.94325126 -47.37890625 42.91015625 C-47 41 -47 41 -45 39 C-44.01 39 -43.02 39 -42 39 C-41.67 37.35 -41.34 35.7 -41 34 C-42.65 34 -44.3 34 -46 34 C-45.34 32.35 -44.68 30.7 -44 29 C-44.66 28.67 -45.32 28.34 -46 28 C-46.36345178 20.73096447 -46.36345178 20.73096447 -44.95117188 17.890625 C-42.54881376 15.56281453 -40.90050409 15.54531731 -37.6287384 15.54681396 C-36.56921211 15.57778168 -36.56921211 15.57778168 -35.48828125 15.609375 C-34.76005661 15.61503479 -34.03183197 15.62069458 -33.28153992 15.62652588 C-30.95785502 15.64889971 -28.63571793 15.69909331 -26.3125 15.75 C-24.73635041 15.77006391 -23.16017663 15.78831488 -21.58398438 15.8046875 C-17.72206076 15.84876717 -13.8612927 15.91779775 -10 16 C-10 15.34 -10 14.68 -10 14 C-5.61538462 11 -5.61538462 11 -3 11 C-1.515 5.555 -1.515 5.555 0 0 Z " fill="#B82714" transform="translate(146,120)"/>
<path d="M0 0 C0.99 0 1.98 0 3 0 C2.64506094 1.46334527 2.26437485 2.92043878 1.875 4.375 C1.66617188 5.18710938 1.45734375 5.99921875 1.2421875 6.8359375 C-0.61276636 11.56081997 -3.32881795 15.69638636 -6 20 C-8.3263383 23.79269689 -10.61040249 27.60766597 -12.875 31.4375 C-13.46796875 32.39720703 -14.0609375 33.35691406 -14.671875 34.34570312 C-18.54532408 40.97251406 -20.16973066 46.30853077 -19 54 C-17.6168113 57.08073848 -16.3615433 58.6384567 -14 61 C-24.07937132 60.67485899 -31.53440084 56.29850975 -38.40234375 48.9921875 C-43.60920331 42.49952643 -48.54638328 34.8005814 -48.3203125 26.2421875 C-47.32571203 19.27998418 -43.60711604 12.92597635 -40 7 C-39.01 7 -38.02 7 -37 7 C-37 6.01 -37 5.02 -37 4 C-35 3 -33 2 -31 1 C-29.5 2.3125 -29.5 2.3125 -28 4 C-28 4.99 -28 5.98 -28 7 C-28.33 7.33 -28.66 7.66 -29 8 C-28.01 8.33 -27.02 8.66 -26 9 C-25.67 9.99 -25.34 10.98 -25 12 C-24.01 11.67 -23.02 11.34 -22 11 C-21.67 10.01 -21.34 9.02 -21 8 C-20.34 8 -19.68 8 -19 8 C-19 8.66 -19 9.32 -19 10 C-18.34 10 -17.68 10 -17 10 C-17.33 10.99 -17.66 11.98 -18 13 C-18.99 12.67 -19.98 12.34 -21 12 C-21 13.32 -21 14.64 -21 16 C-19.02 16 -17.04 16 -15 16 C-14.505 17.98 -14.505 17.98 -14 20 C-13.34 20 -12.68 20 -12 20 C-10.41030753 17.98208664 -10.41030753 17.98208664 -8.875 15.5 C-8.33617187 14.6646875 -7.79734375 13.829375 -7.2421875 12.96875 C-6.83226562 12.3190625 -6.42234375 11.669375 -6 11 C-6.99 10.01 -7.98 9.02 -9 8 C-5.25 2.125 -5.25 2.125 -3 1 C-3.66 3.31 -4.32 5.62 -5 8 C-4.34 8 -3.68 8 -3 8 C-2.690625 6.865625 -2.38125 5.73125 -2.0625 4.5625 C-1 1 -1 1 0 0 Z " fill="#B92A15" transform="translate(77,73)"/>
<path d="M0 0 C0.87358154 -0.00966797 1.74716309 -0.01933594 2.6472168 -0.02929688 C11.86194612 0.08807722 19.60861224 2.47040845 27.375 7.375 C28.45652344 8.04402344 29.53804688 8.71304687 30.65234375 9.40234375 C33.19147706 11.25772728 34.7533578 12.8144632 36.4375 15.4375 C35.42171875 15.39109375 34.4059375 15.3446875 33.359375 15.296875 C19.99099142 14.86468985 10.25458308 16.92364832 -0.13671875 25.9765625 C-3.56040133 29.44986367 -6.1839119 33.19217187 -8.5625 37.4375 C-11 36.625 -11 36.625 -13.5625 35.4375 C-13.8925 34.4475 -14.2225 33.4575 -14.5625 32.4375 C-15.2225 32.1075 -15.8825 31.7775 -16.5625 31.4375 C-16.2325 29.4575 -15.9025 27.4775 -15.5625 25.4375 C-16.2225 25.4375 -16.8825 25.4375 -17.5625 25.4375 C-17.8925 26.4275 -18.2225 27.4175 -18.5625 28.4375 C-20.5625 27.4375 -20.5625 27.4375 -21.5625 25.4375 C-22.2225 25.4375 -22.8825 25.4375 -23.5625 25.4375 C-23.5625 26.0975 -23.5625 26.7575 -23.5625 27.4375 C-28.3125 28.5625 -28.3125 28.5625 -30.5625 27.4375 C-30.5625 25.4575 -30.5625 23.4775 -30.5625 21.4375 C-31.5525 21.4375 -32.5425 21.4375 -33.5625 21.4375 C-33.5625 20.4475 -33.5625 19.4575 -33.5625 18.4375 C-35.54741642 18.70426204 -35.54741642 18.70426204 -37.5625 19.4375 C-37.8925 20.4275 -38.2225 21.4175 -38.5625 22.4375 C-39.2225 22.1075 -39.8825 21.7775 -40.5625 21.4375 C-39.12604149 19.83240066 -37.68829294 18.22845576 -36.25 16.625 C-35.44949219 15.73167969 -34.64898437 14.83835937 -33.82421875 13.91796875 C-33.07785156 13.09941406 -32.33148438 12.28085937 -31.5625 11.4375 C-31.046875 10.86 -30.53125 10.2825 -30 9.6875 C-27.58280177 7.58558849 -24.61421941 7.18603495 -21.5625 6.4375 C-21.5625 5.7775 -21.5625 5.1175 -21.5625 4.4375 C-14.52350526 0.7449126 -7.8080251 0.02756341 0 0 Z " fill="#FCD028" transform="translate(98.5625,21.5625)"/>
<path d="M0 0 C1 2 1 2 0.6875 5.375 C0.61875862 14.86131038 7.38720032 23.33467421 13.64453125 29.875 C19.55923405 35.21098395 26.44070638 37.80190753 34 40 C34.125 42.375 34.125 42.375 34 45 C33.34 45.66 32.68 46.32 32 47 C32.99 47.495 32.99 47.495 34 48 C33.67 50.31 33.34 52.62 33 55 C31.68 55 30.36 55 29 55 C28.67 56.98 28.34 58.96 28 61 C28.99 60.67 29.98 60.34 31 60 C31.125 66.75 31.125 66.75 30 69 C30.99 69.495 30.99 69.495 32 70 C30.35 70 28.7 70 27 70 C27 70.99 27 71.98 27 73 C16.67242154 70.12623904 8.74153356 60.7593552 3 52 C-1.68711681 42.78081096 -4.38559426 33.63903281 -4.3125 23.3125 C-4.31048584 22.53592041 -4.30847168 21.75934082 -4.30639648 20.95922852 C-4.01531181 4.01531181 -4.01531181 4.01531181 0 0 Z " fill="#F9C514" transform="translate(29,95)"/>
<path d="M0 0 C2.75838453 3.405413 4.77231029 7.10972971 6.75 11 C7.24306641 11.92425781 7.24306641 11.92425781 7.74609375 12.8671875 C10.06889034 17.43437405 10.06889034 17.43437405 9.703125 20.4375 C9.47109375 20.953125 9.2390625 21.46875 9 22 C8.505 21.01 8.505 21.01 8 20 C7.34 20 6.68 20 6 20 C6.495 21.98 6.495 21.98 7 24 C8.32 23.67 9.64 23.34 11 23 C11.495 25.475 11.495 25.475 12 28 C11.01 28.33 10.02 28.66 9 29 C9 28.34 9 27.68 9 27 C8.34 27 7.68 27 7 27 C7.20625 27.5775 7.4125 28.155 7.625 28.75 C8.09239476 31.55436855 7.53712084 32.65386819 6 35 C5.01 35.495 5.01 35.495 4 36 C3.773125 36.763125 3.54625 37.52625 3.3125 38.3125 C1.38076447 42.26795847 -1.06799315 43.10421098 -5 45 C-5.66 45 -6.32 45 -7 45 C-7 44.34 -7 43.68 -7 43 C-8.65 43.66 -10.3 44.32 -12 45 C-12.3403125 44.36835937 -12.680625 43.73671875 -13.03125 43.0859375 C-17.23751474 35.32224674 -21.59782289 27.65353127 -26 20 C-25.34 19.67 -24.68 19.34 -24 19 C-24 19.66 -24 20.32 -24 21 C-22.7934375 20.7525 -22.7934375 20.7525 -21.5625 20.5 C-19 20 -19 20 -18 20 C-15.62984755 17.34515551 -15.62984755 17.34515551 -15 14 C-14.34 14 -13.68 14 -13 14 C-13 14.66 -13 15.32 -13 16 C-10.60280568 16.67958603 -10.60280568 16.67958603 -8 17 C-7.34 16.34 -6.68 15.68 -6 15 C-6.66 14.67 -7.32 14.34 -8 14 C-8 13.34 -8 12.68 -8 12 C-5.03 11.01 -2.06 10.02 1 9 C1 8.34 1 7.68 1 7 C0.34 6.67 -0.32 6.34 -1 6 C-0.67 5.34 -0.34 4.68 0 4 C0 2.68 0 1.36 0 0 Z " fill="#D7750D" transform="translate(154,67)"/>
<path d="M0 0 C1.31690575 0.00212242 1.31690575 0.00212242 2.66041565 0.00428772 C5.44161507 0.00984804 8.22273151 0.02239304 11.00390625 0.03515625 C12.89908737 0.04017638 14.79426977 0.04473839 16.68945312 0.04882812 C21.31513573 0.05980445 25.94075696 0.07704143 30.56640625 0.09765625 C30.56640625 0.42765625 30.56640625 0.75765625 30.56640625 1.09765625 C19.67640625 1.09765625 8.78640625 1.09765625 -2.43359375 1.09765625 C-5.17799884 6.58646642 -5.07813699 11.22428755 -3.43359375 17.09765625 C-3.76359375 17.42765625 -4.09359375 17.75765625 -4.43359375 18.09765625 C-3.11359375 18.42765625 -1.79359375 18.75765625 -0.43359375 19.09765625 C-0.68359375 21.47265625 -0.68359375 21.47265625 -1.43359375 24.09765625 C-2.09359375 24.36578125 -2.75359375 24.63390625 -3.43359375 24.91015625 C-5.59790418 25.88117738 -5.59790418 25.88117738 -5.91796875 27.88671875 C-6.30017011 30.97805327 -6.43359375 33.98206986 -6.43359375 37.09765625 C-11.38359375 37.09765625 -16.33359375 37.09765625 -21.43359375 37.09765625 C-21.43359375 35.77765625 -21.43359375 34.45765625 -21.43359375 33.09765625 C-19.78359375 33.09765625 -18.13359375 33.09765625 -16.43359375 33.09765625 C-16.43359375 32.43765625 -16.43359375 31.77765625 -16.43359375 31.09765625 C-17.09359375 31.09765625 -17.75359375 31.09765625 -18.43359375 31.09765625 C-18.43359375 30.10765625 -18.43359375 29.11765625 -18.43359375 28.09765625 C-19.75359375 28.09765625 -21.07359375 28.09765625 -22.43359375 28.09765625 C-22.76359375 29.08765625 -23.09359375 30.07765625 -23.43359375 31.09765625 C-23.76359375 30.76765625 -24.09359375 30.43765625 -24.43359375 30.09765625 C-24.25723923 27.40682753 -23.81523454 24.76914179 -23.43359375 22.09765625 C-23.10359375 23.08765625 -22.77359375 24.07765625 -22.43359375 25.09765625 C-21.77359375 25.09765625 -21.11359375 25.09765625 -20.43359375 25.09765625 C-20.10359375 24.10765625 -19.77359375 23.11765625 -19.43359375 22.09765625 C-19.43359375 22.75765625 -19.43359375 23.41765625 -19.43359375 24.09765625 C-18.77359375 24.09765625 -18.11359375 24.09765625 -17.43359375 24.09765625 C-17.43359375 22.77765625 -17.43359375 21.45765625 -17.43359375 20.09765625 C-18.75359375 20.09765625 -20.07359375 20.09765625 -21.43359375 20.09765625 C-21.43359375 19.43765625 -21.43359375 18.77765625 -21.43359375 18.09765625 C-20.77359375 18.09765625 -20.11359375 18.09765625 -19.43359375 18.09765625 C-19.21703125 16.95296875 -19.21703125 16.95296875 -18.99609375 15.78515625 C-18.43359375 13.09765625 -18.43359375 13.09765625 -17.43359375 10.09765625 C-20.40359375 10.75765625 -23.37359375 11.41765625 -26.43359375 12.09765625 C-26.43359375 11.10765625 -26.43359375 10.11765625 -26.43359375 9.09765625 C-25.44359375 9.09765625 -24.45359375 9.09765625 -23.43359375 9.09765625 C-23.43359375 7.44765625 -23.43359375 5.79765625 -23.43359375 4.09765625 C-22.46421875 3.97390625 -21.49484375 3.85015625 -20.49609375 3.72265625 C-18.98015625 3.41328125 -18.98015625 3.41328125 -17.43359375 3.09765625 C-17.10359375 2.43765625 -16.77359375 1.77765625 -16.43359375 1.09765625 C-10.96686933 -0.04040291 -5.56548713 -0.03424453 0 0 Z " fill="#D5741F" transform="translate(105.43359375,134.90234375)"/>
<path d="M0 0 C0.928125 0.391875 1.85625 0.78375 2.8125 1.1875 C3.4725 0.8575 4.1325 0.5275 4.8125 0.1875 C5.1425 0.8475 5.4725 1.5075 5.8125 2.1875 C7.83713255 2.83963292 7.83713255 2.83963292 9.8125 3.1875 C10.1425 2.5275 10.4725 1.8675 10.8125 1.1875 C11.875 3.5625 11.875 3.5625 12.8125 6.1875 C12.4825 6.8475 12.1525 7.5075 11.8125 8.1875 C13.7925 8.8475 15.7725 9.5075 17.8125 10.1875 C17.8125 9.5275 17.8125 8.8675 17.8125 8.1875 C19.1325 8.8475 20.4525 9.5075 21.8125 10.1875 C20.51041667 11.65234375 19.20833333 13.1171875 17.90625 14.58203125 C16.53098759 16.276948 16.53098759 16.276948 16.8125 19.1875 C17.4725 20.1775 18.1325 21.1675 18.8125 22.1875 C16.5025 25.1575 14.1925 28.1275 11.8125 31.1875 C10.8225 30.8575 9.8325 30.5275 8.8125 30.1875 C8.8125 28.8675 8.8125 27.5475 8.8125 26.1875 C6.8325 26.5175 4.8525 26.8475 2.8125 27.1875 C2.4825 26.1975 2.1525 25.2075 1.8125 24.1875 C2.1425 23.5275 2.4725 22.8675 2.8125 22.1875 C3.8025 22.1875 4.7925 22.1875 5.8125 22.1875 C6.1425 21.5275 6.4725 20.8675 6.8125 20.1875 C6.1525 20.1875 5.4925 20.1875 4.8125 20.1875 C4.8125 19.5275 4.8125 18.8675 4.8125 18.1875 C4.1525 18.1875 3.4925 18.1875 2.8125 18.1875 C2.4825 19.5075 2.1525 20.8275 1.8125 22.1875 C0.4925 22.1875 -0.8275 22.1875 -2.1875 22.1875 C-2.5175 21.1975 -2.8475 20.2075 -3.1875 19.1875 C-4.8375 18.8575 -6.4875 18.5275 -8.1875 18.1875 C-6.8675 17.8575 -5.5475 17.5275 -4.1875 17.1875 C-4.5175 15.5375 -4.8475 13.8875 -5.1875 12.1875 C-8.05474686 12.76094937 -9.0489515 13.0489515 -11.1875 15.1875 C-11.8475 14.8575 -12.5075 14.5275 -13.1875 14.1875 C-13.1875 15.1775 -13.1875 16.1675 -13.1875 17.1875 C-13.8475 17.1875 -14.5075 17.1875 -15.1875 17.1875 C-13.40089468 10.69075338 -10.31185467 5.47526657 -5.75 0.5625 C-3.1875 -0.8125 -3.1875 -0.8125 0 0 Z " fill="#CB5912" transform="translate(53.1875,62.8125)"/>
<path d="M0 0 C0.33 0 0.66 0 1 0 C1 1.65 1 3.3 1 5 C3.97 5 6.94 5 10 5 C7.34309994 6.77126671 5.4018354 7.60675317 2.4375 8.625 C-7.28391212 12.47098932 -13.88010247 19.00896043 -19 28 C-21.4375 27.1875 -21.4375 27.1875 -24 26 C-24.33 25.01 -24.66 24.02 -25 23 C-25.66 22.67 -26.32 22.34 -27 22 C-26.67 20.02 -26.34 18.04 -26 16 C-26.66 16 -27.32 16 -28 16 C-28.33 16.99 -28.66 17.98 -29 19 C-31 18 -31 18 -32 16 C-32.66 16 -33.32 16 -34 16 C-34 16.66 -34 17.32 -34 18 C-38.75 19.125 -38.75 19.125 -41 18 C-41 16.02 -41 14.04 -41 12 C-41.99 12 -42.98 12 -44 12 C-44 11.01 -44 10.02 -44 9 C-45.98491642 9.26676204 -45.98491642 9.26676204 -48 10 C-48.33 10.99 -48.66 11.98 -49 13 C-49.66 12.67 -50.32 12.34 -51 12 C-49.61875523 10.34190442 -48.21938652 8.69889493 -46.8125 7.0625 C-46.03519531 6.14597656 -45.25789063 5.22945312 -44.45703125 4.28515625 C-41.82644055 1.83858143 -40.54143626 1.1888766 -37 1 C-34.6875 1.9375 -34.6875 1.9375 -33 3 C-32.67 2.34 -32.34 1.68 -32 1 C-31 4 -31 4 -31.9375 6.1875 C-32.288125 6.785625 -32.63875 7.38375 -33 8 C-33.66 7.67 -34.32 7.34 -35 7 C-35 7.66 -35 8.32 -35 9 C-34.2575 8.79375 -33.515 8.5875 -32.75 8.375 C-29.67669159 7.95591249 -28.57213134 8.38050989 -26 10 C-26 9.34 -26 8.68 -26 8 C-26.66 8 -27.32 8 -28 8 C-28 7.01 -28 6.02 -28 5 C-26.68 4.67 -25.36 4.34 -24 4 C-23.67 4.99 -23.34 5.98 -23 7 C-22.34 7.33 -21.68 7.66 -21 8 C-21 6.35 -21 4.7 -21 3 C-20.34 3.66 -19.68 4.32 -19 5 C-17.67607028 6.01241685 -16.34400833 7.01439389 -15 8 C-15.33 9.32 -15.66 10.64 -16 12 C-15.01 12 -14.02 12 -13 12 C-12.34 12 -11.68 12 -11 12 C-11 11.34 -11 10.68 -11 10 C-11.66 10 -12.32 10 -13 10 C-13 9.01 -13 8.02 -13 7 C-13.66 6.67 -14.32 6.34 -15 6 C-13.68 6 -12.36 6 -11 6 C-11 6.66 -11 7.32 -11 8 C-8.36 8.33 -5.72 8.66 -3 9 C-3 8.01 -3 7.02 -3 6 C-2.01 6 -1.02 6 0 6 C0 4.02 0 2.04 0 0 Z " fill="#E89E0B" transform="translate(109,31)"/>
<path d="M0 0 C0.66 0 1.32 0 2 0 C2 0.66 2 1.32 2 2 C2.66 2.33 3.32 2.66 4 3 C4 3.66 4 4.32 4 5 C3.01 5.495 3.01 5.495 2 6 C2 7.98 2 9.96 2 12 C3.32 12.33 4.64 12.66 6 13 C4.68938409 17.23429756 3.05643741 21.07407404 1 25 C0.34 25 -0.32 25 -1 25 C-1.26941406 25.58136719 -1.53882813 26.16273438 -1.81640625 26.76171875 C-6.0130672 34.69797857 -13.10440263 40.02330088 -21 44 C-23.48849839 44.72205134 -25.39462773 44.94210284 -28 45 C-27.62488281 44.55011719 -27.24976563 44.10023438 -26.86328125 43.63671875 C-22.23892415 37.82423968 -18.03579149 31.13431128 -16.546875 23.75390625 C-16.36640625 23.17511719 -16.1859375 22.59632813 -16 22 C-13.0625 20.6875 -13.0625 20.6875 -10 20 C-9.34 20.33 -8.68 20.66 -8 21 C-8 20.01 -8 19.02 -8 18 C-8.99 17.67 -9.98 17.34 -11 17 C-11 15.68 -11 14.36 -11 13 C-9.68 12.34 -8.36 11.68 -7 11 C-7.66 11 -8.32 11 -9 11 C-9 10.34 -9 9.68 -9 9 C-7.68 8.67 -6.36 8.34 -5 8 C-5 7.34 -5 6.68 -5 6 C-3.68 5.67 -2.36 5.34 -1 5 C-0.67 3.35 -0.34 1.7 0 0 Z " fill="#FBCF26" transform="translate(164,125)"/>
<path d="M0 0 C5.54781186 6.31302728 7.4333233 11.76685721 7 20 C6.01 19.67 5.02 19.34 4 19 C4 19.99 4 20.98 4 22 C-0.75 23.125 -0.75 23.125 -3 22 C-3 22.66 -3 23.32 -3 24 C-2.34 24.33 -1.68 24.66 -1 25 C-1.99 25.33 -2.98 25.66 -4 26 C-3.67 28.97 -3.34 31.94 -3 35 C-4.65 35 -6.3 35 -8 35 C-8 35.99 -8 36.98 -8 38 C-6.68 38.33 -5.36 38.66 -4 39 C-4 39.99 -4 40.98 -4 42 C-5.98 42 -7.96 42 -10 42 C-11.4783226 39.04335481 -11.06032783 36.25770263 -11 33 C-9.515 32.505 -9.515 32.505 -8 32 C-8.33 31.34 -8.66 30.68 -9 30 C-11.31 30.33 -13.62 30.66 -16 31 C-15.67 32.32 -15.34 33.64 -15 35 C-15.99 35.495 -15.99 35.495 -17 36 C-17.66 36.99 -18.32 37.98 -19 39 C-19.16918268 37.41693353 -19.33523936 35.83353281 -19.5 34.25 C-19.5928125 33.36828125 -19.685625 32.4865625 -19.78125 31.578125 C-20 29 -20 29 -20 25 C-19.01 24.67 -18.02 24.34 -17 24 C-17 24.66 -17 25.32 -17 26 C-10.75521185 23.19214772 -10.75521185 23.19214772 -6.4375 18.1875 C-6.293125 17.465625 -6.14875 16.74375 -6 16 C-5.34 16 -4.68 16 -4 16 C-3.67 13.36 -3.34 10.72 -3 8 C-0.525 8.495 -0.525 8.495 2 9 C1.67 7.35 1.34 5.7 1 4 C-0.32 4.33 -1.64 4.66 -3 5 C-3.33 3.68 -3.66 2.36 -4 1 C-3.01 1.33 -2.02 1.66 -1 2 C-0.67 1.34 -0.34 0.68 0 0 Z " fill="#E9A21C" transform="translate(164,86)"/>
<path d="M0 0 C0.66 0 1.32 0 2 0 C2 0.99 2 1.98 2 3 C2.99 3 3.98 3 5 3 C6.125 6.75 6.125 6.75 5 9 C7.31 9 9.62 9 12 9 C12 8.34 12 7.68 12 7 C13.32 6.67 14.64 6.34 16 6 C15.67 6.99 15.34 7.98 15 9 C15.66 9 16.32 9 17 9 C17.33 8.34 17.66 7.68 18 7 C18.66 7 19.32 7 20 7 C19.67 8.98 19.34 10.96 19 13 C19.99 13.33 20.98 13.66 22 14 C22 14.99 22 15.98 22 17 C23.32 17 24.64 17 26 17 C25.25 22.75 25.25 22.75 23 25 C23 24.34 23 23.68 23 23 C21.35 23.66 19.7 24.32 18 25 C18 24.01 18 23.02 18 22 C17.01 22 16.02 22 15 22 C15 20.68 15 19.36 15 18 C11.51190809 18.77030122 11.51190809 18.77030122 8 20 C7.67 20.99 7.34 21.98 7 23 C6.34 22.67 5.68 22.34 5 22 C5.66 20.02 6.32 18.04 7 16 C6.34 16 5.68 16 5 16 C5 16.66 5 17.32 5 18 C4.34 18 3.68 18 3 18 C3 16.68 3 15.36 3 14 C2.01 14.66 1.02 15.32 0 16 C0.66 16.33 1.32 16.66 2 17 C2 17.66 2 18.32 2 19 C-0.475 18.01 -0.475 18.01 -3 17 C-2.67 15.68 -2.34 14.36 -2 13 C-2.99 13 -3.98 13 -5 13 C-5 12.34 -5 11.68 -5 11 C-4.34 11 -3.68 11 -3 11 C-3 10.34 -3 9.68 -3 9 C-3.99 9 -4.98 9 -6 9 C-6.33 9.66 -6.66 10.32 -7 11 C-7.66 11 -8.32 11 -9 11 C-7.125 6.25 -7.125 6.25 -6 4 C-5.01 3.67 -4.02 3.34 -3 3 C-2.484375 2.484375 -1.96875 1.96875 -1.4375 1.4375 C-0.963125 0.963125 -0.48875 0.48875 0 0 Z " fill="#E79907" transform="translate(63,40)"/>
<path d="M0 0 C0.66 0 1.32 0 2 0 C3.49343624 2.70069428 4.96706493 5.41172375 6.4375 8.125 C6.85837891 8.88554688 7.27925781 9.64609375 7.71289062 10.4296875 C9.9936677 14.66280975 11.46382732 18.15179067 12 23 C12.33 23.33 12.66 23.66 13 24 C12.8125 25.9375 12.8125 25.9375 12 28 C9.04454879 30.11103658 6.56144099 30.19785783 3 30 C3 30.66 3 31.32 3 32 C3.99 32.33 4.98 32.66 6 33 C5.01 33.99 4.02 34.98 3 36 C1.35 35.34 -0.3 34.68 -2 34 C-2 33.34 -2 32.68 -2 32 C-4.31 32.66 -6.62 33.32 -9 34 C-9 33.34 -9 32.68 -9 32 C-8.01 31.34 -7.02 30.68 -6 30 C-5.27034634 27.43717258 -5.27034634 27.43717258 -5 25 C-5.99 25.33 -6.98 25.66 -8 26 C-8 25.34 -8 24.68 -8 24 C-7.34 23.67 -6.68 23.34 -6 23 C-5.67 22.01 -5.34 21.02 -5 20 C-2.78298853 18.41034429 -0.42137527 17.27672514 2 16 C0.68 15.34 -0.64 14.68 -2 14 C-2 13.34 -2 12.68 -2 12 C-1.01 11.67 -0.02 11.34 1 11 C-0.65 10.67 -2.3 10.34 -4 10 C-4 9.34 -4 8.68 -4 8 C-3.34 8 -2.68 8 -2 8 C-1.67 7.01 -1.34 6.02 -1 5 C-0.67 5.66 -0.34 6.32 0 7 C0.66 7 1.32 7 2 7 C2.33 6.34 2.66 5.68 3 5 C2.01 5.33 1.02 5.66 0 6 C-1.125 2.25 -1.125 2.25 0 0 Z " fill="#CA5811" transform="translate(143,49)"/>
<path d="M0 0 C1.65322266 0.01740234 1.65322266 0.01740234 3.33984375 0.03515625 C4.99693359 0.04869141 4.99693359 0.04869141 6.6875 0.0625 C7.54214844 0.07410156 8.39679688 0.08570313 9.27734375 0.09765625 C8.94734375 1.08765625 8.61734375 2.07765625 8.27734375 3.09765625 C6.29734375 3.09765625 4.31734375 3.09765625 2.27734375 3.09765625 C2.27734375 4.74765625 2.27734375 6.39765625 2.27734375 8.09765625 C1.28734375 8.09765625 0.29734375 8.09765625 -0.72265625 8.09765625 C-0.72265625 9.08765625 -0.72265625 10.07765625 -0.72265625 11.09765625 C0.01984375 10.76765625 0.76234375 10.43765625 1.52734375 10.09765625 C4.27734375 9.09765625 4.27734375 9.09765625 8.27734375 9.09765625 C7.75465909 11.86041802 7.16864788 14.42374385 6.27734375 17.09765625 C5.61734375 17.09765625 4.95734375 17.09765625 4.27734375 17.09765625 C4.27734375 17.75765625 4.27734375 18.41765625 4.27734375 19.09765625 C5.59734375 19.09765625 6.91734375 19.09765625 8.27734375 19.09765625 C8.27734375 20.41765625 8.27734375 21.73765625 8.27734375 23.09765625 C6.29734375 23.42765625 4.31734375 23.75765625 2.27734375 24.09765625 C2.27734375 25.74765625 2.27734375 27.39765625 2.27734375 29.09765625 C2.60734375 28.43765625 2.93734375 27.77765625 3.27734375 27.09765625 C4.59734375 27.09765625 5.91734375 27.09765625 7.27734375 27.09765625 C7.27734375 28.08765625 7.27734375 29.07765625 7.27734375 30.09765625 C7.93734375 30.09765625 8.59734375 30.09765625 9.27734375 30.09765625 C9.27734375 30.75765625 9.27734375 31.41765625 9.27734375 32.09765625 C5.22459215 33.08014149 1.43872638 33.17925199 -2.72265625 33.09765625 C-2.39265625 32.10765625 -2.06265625 31.11765625 -1.72265625 30.09765625 C-3.37265625 30.09765625 -5.02265625 30.09765625 -6.72265625 30.09765625 C-5.72265625 27.09765625 -4.72265625 24.09765625 -3.72265625 21.09765625 C-3.72265625 21.75765625 -3.72265625 22.41765625 -3.72265625 23.09765625 C-3.06265625 23.09765625 -2.40265625 23.09765625 -1.72265625 23.09765625 C-1.72265625 22.10765625 -1.72265625 21.11765625 -1.72265625 20.09765625 C-3.70265625 19.76765625 -5.68265625 19.43765625 -7.72265625 19.09765625 C-7.72265625 16.45765625 -7.72265625 13.81765625 -7.72265625 11.09765625 C-7.06265625 11.09765625 -6.40265625 11.09765625 -5.72265625 11.09765625 C-5.72265625 10.43765625 -5.72265625 9.77765625 -5.72265625 9.09765625 C-6.38265625 8.76765625 -7.04265625 8.43765625 -7.72265625 8.09765625 C-6.73265625 8.09765625 -5.74265625 8.09765625 -4.72265625 8.09765625 C-5.05265625 7.10765625 -5.38265625 6.11765625 -5.72265625 5.09765625 C-4.73265625 5.09765625 -3.74265625 5.09765625 -2.72265625 5.09765625 C-3.00109375 4.13859375 -3.00109375 4.13859375 -3.28515625 3.16015625 C-3.42953125 2.47953125 -3.57390625 1.79890625 -3.72265625 1.09765625 C-2.72265625 0.09765625 -2.72265625 0.09765625 0 0 Z " fill="#E08C19" transform="translate(79.72265625,135.90234375)"/>
<path d="M0 0 C1.65 0 3.3 0 5 0 C5.36717663 7.4659249 5.36717663 7.4659249 3.625 10 C2 11 2 11 0 11 C0 11.66 0 12.32 0 13 C0.53625 12.360625 1.0725 11.72125 1.625 11.0625 C4.44367193 8.61470596 6.33860732 8.33285388 10 8 C10 12 10 12 9 15 C8.01 15.495 8.01 15.495 7 16 C6.6596875 17.1446875 6.6596875 17.1446875 6.3125 18.3125 C4.38076447 22.26795847 1.93200685 23.10421098 -2 25 C-2.66 25 -3.32 25 -4 25 C-4 24.34 -4 23.68 -4 23 C-5.65 23.66 -7.3 24.32 -9 25 C-10.00508801 23.21118264 -11.00392736 21.41885304 -12 19.625 C-12.8353125 18.12839844 -12.8353125 18.12839844 -13.6875 16.6015625 C-15 14 -15 14 -15 12 C-14.195625 11.71125 -13.39125 11.4225 -12.5625 11.125 C-9.8673532 10.26737432 -9.8673532 10.26737432 -9 8 C-8.01 8.33 -7.02 8.66 -6 9 C-4.33034549 8.68197057 -2.66321482 8.35015049 -1 8 C-0.67 8.33 -0.34 8.66 0 9 C0 8.2575 0 7.515 0 6.75 C0 4.5 0 2.25 0 0 Z " fill="#E69918" transform="translate(151,87)"/>
<path d="M0 0 C1.60433809 0.47859241 3.20846416 0.95789558 4.8125 1.4375 C6.15248047 1.83775391 6.15248047 1.83775391 7.51953125 2.24609375 C9.35473055 2.80387873 11.18033726 3.39344575 13 4 C13.125 6.375 13.125 6.375 13 9 C12.34 9.66 11.68 10.32 11 11 C11.66 11.33 12.32 11.66 13 12 C12.67 14.31 12.34 16.62 12 19 C10.68 19 9.36 19 8 19 C7.67 20.98 7.34 22.96 7 25 C7.99 24.67 8.98 24.34 10 24 C10 26.31 10 28.62 10 31 C9.67 30.34 9.34 29.68 9 29 C7.02 29 5.04 29 3 29 C3.61277612 26.03824877 4.25372522 24.61941217 6 22 C4.88625 21.401875 3.7725 20.80375 2.625 20.1875 C-0.75232412 18.37375186 -2.26197531 16.47604938 -4 13 C-3.67 12.34 -3.34 11.68 -3 11 C-3.66 10.67 -4.32 10.34 -5 10 C-4.34 8.02 -3.68 6.04 -3 4 C-2.01 4 -1.02 4 0 4 C0 2.68 0 1.36 0 0 Z " fill="#F4B907" transform="translate(50,131)"/>
<path d="M0 0 C0 2.97 0 5.94 0 9 C1.65 9 3.3 9 5 9 C5 10.32 5 11.64 5 13 C4.01 13 3.02 13 2 13 C2.33 14.65 2.66 16.3 3 18 C3.33 17.34 3.66 16.68 4 16 C5.32 16 6.64 16 8 16 C8 16.66 8 17.32 8 18 C7.34 18.33 6.68 18.66 6 19 C6 20.32 6 21.64 6 23 C4.33388095 23.042721 2.66617115 23.04063832 1 23 C0.67 22.67 0.34 22.34 0 22 C-0.33 22.66 -0.66 23.32 -1 24 C-1.804375 23.979375 -2.60875 23.95875 -3.4375 23.9375 C-5.93354885 23.70366379 -5.93354885 23.70366379 -7 25 C-6.01 25.66 -5.02 26.32 -4 27 C-10.0546875 27.1953125 -10.0546875 27.1953125 -12 27 C-12.66 26.34 -13.32 25.68 -14 25 C-13.67 24.67 -13.34 24.34 -13 24 C-12.7746669 21.9720021 -12.55232815 19.94325126 -12.37890625 17.91015625 C-12 16 -12 16 -10 14 C-9.01 14 -8.02 14 -7 14 C-6.67 12.35 -6.34 10.7 -6 9 C-4.68 9 -3.36 9 -2 9 C-3.84188612 6.94729537 -3.84188612 6.94729537 -6 6 C-6 5.34 -6 4.68 -6 4 C-5.34 4 -4.68 4 -4 4 C-4 3.34 -4 2.68 -4 2 C-1 0 -1 0 0 0 Z " fill="#C54A15" transform="translate(111,145)"/>
<path d="M0 0 C0.33 0.99 0.66 1.98 1 3 C0.01 3.495 0.01 3.495 -1 4 C-1 6.97 -1 9.94 -1 13 C0.98 13 2.96 13 5 13 C5 12.01 5 11.02 5 10 C3.35 9.67 1.7 9.34 0 9 C0.33 7.68 0.66 6.36 1 5 C2.65 5.33 4.3 5.66 6 6 C5.67 5.01 5.34 4.02 5 3 C5.66 3 6.32 3 7 3 C7.33 6.96 7.66 10.92 8 15 C6.68 15.33 5.36 15.66 4 16 C4 16.66 4 17.32 4 18 C2.68 18.33 1.36 18.66 0 19 C0 19.66 0 20.32 0 21 C0.99 20.67 1.98 20.34 3 20 C3.33 20.66 3.66 21.32 4 22 C2.02 22.33 0.04 22.66 -2 23 C-1.65213292 24.97536745 -1.65213292 24.97536745 -1 27 C-0.34 27.33 0.32 27.66 1 28 C1 28.99 1 29.98 1 31 C-1.31 31.33 -3.62 31.66 -6 32 C-5.98839844 30.79601562 -5.97679687 29.59203125 -5.96484375 28.3515625 C-5.95546566 26.77604321 -5.94636548 25.20052225 -5.9375 23.625 C-5.92912109 22.8309375 -5.92074219 22.036875 -5.91210938 21.21875 C-5.76959849 16.97607778 -5.76959849 16.97607778 -7 13 C-7.07033769 11.12620395 -7.0843022 9.24998898 -7.0625 7.375 C-7.05347656 6.37210937 -7.04445312 5.36921875 -7.03515625 4.3359375 C-7.02355469 3.56507812 -7.01195312 2.79421875 -7 2 C-4.69 1.34 -2.38 0.68 0 0 Z " fill="#F5BD0E" transform="translate(155,115)"/>
<path d="M0 0 C1.11375 0.495 1.11375 0.495 2.25 1 C5.13883312 2.22782871 5.13883312 2.22782871 9 2 C9 2.66 9 3.32 9 4 C9.66 4.33 10.32 4.66 11 5 C11.42793965 9.46279917 11.42793965 9.46279917 9.53125 11.84375 C-3.49936143 22.46871009 -3.49936143 22.46871009 -12 23 C-11.62488281 22.55011719 -11.24976563 22.10023438 -10.86328125 21.63671875 C-5.77243897 15.23790188 -1.75035028 8.05537548 0 0 Z " fill="#F8C411" transform="translate(148,147)"/>
<path d="M0 0 C0.80060349 0.00007553 1.60120697 0.00015106 2.42607117 0.00022888 C3.71527214 0.00797081 3.71527214 0.00797081 5.03051758 0.01586914 C5.91411453 0.01728409 6.79771149 0.01869904 7.70808411 0.02015686 C10.53044011 0.0257547 13.3527168 0.03830678 16.17504883 0.05102539 C18.08845914 0.05604067 20.0018707 0.06060353 21.9152832 0.06469727 C26.60606897 0.07572342 31.29679545 0.09298656 35.98754883 0.11352539 C35.98754883 0.44352539 35.98754883 0.77352539 35.98754883 1.11352539 C25.09754883 1.11352539 14.20754883 1.11352539 2.98754883 1.11352539 C0.24314374 6.60233556 0.34300559 11.24015669 1.98754883 17.11352539 C1.65754883 17.44352539 1.32754883 17.77352539 0.98754883 18.11352539 C2.30754883 18.44352539 3.62754883 18.77352539 4.98754883 19.11352539 C4.80004883 21.48852539 4.80004883 21.48852539 3.98754883 24.11352539 C1.42504883 25.42602539 1.42504883 25.42602539 -1.01245117 26.11352539 C-1.01245117 25.45352539 -1.01245117 24.79352539 -1.01245117 24.11352539 C-1.67245117 24.11352539 -2.33245117 24.11352539 -3.01245117 24.11352539 C-3.01245117 23.45352539 -3.01245117 22.79352539 -3.01245117 22.11352539 C-3.67245117 22.11352539 -4.33245117 22.11352539 -5.01245117 22.11352539 C-5.01245117 20.46352539 -5.01245117 18.81352539 -5.01245117 17.11352539 C-4.35245117 17.11352539 -3.69245117 17.11352539 -3.01245117 17.11352539 C-3.34245117 15.46352539 -3.67245117 13.81352539 -4.01245117 12.11352539 C-5.00245117 12.11352539 -5.99245117 12.11352539 -7.01245117 12.11352539 C-6.80620117 11.53602539 -6.59995117 10.95852539 -6.38745117 10.36352539 C-5.92087904 7.5640926 -6.74124344 6.57649037 -8.01245117 4.11352539 C-7.68245117 3.12352539 -7.35245117 2.13352539 -7.01245117 1.11352539 C-4.30620747 0.21144416 -2.77394132 -0.0087506 0 0 Z " fill="#CE611A" transform="translate(100.012451171875,134.886474609375)"/>
<path d="M0 0 C0.33 0 0.66 0 1 0 C1 1.65 1 3.3 1 5 C3.97 5 6.94 5 10 5 C7.34232363 6.77178425 5.33980212 7.64746624 2.375 8.6875 C-2.51469026 10.5676002 -6.07429002 13.16856467 -9.9921875 16.609375 C-12 18 -12 18 -16 18 C-16 17.34 -16 16.68 -16 16 C-16.66 16 -17.32 16 -18 16 C-18 17.32 -18 18.64 -18 20 C-19.32 19.34 -20.64 18.68 -22 18 C-22 16.68 -22 15.36 -22 14 C-23.32 13.67 -24.64 13.34 -26 13 C-25.34 12.67 -24.68 12.34 -24 12 C-23.09274566 9.88672575 -23.09274566 9.88672575 -22.375 7.4375 C-22.11460938 6.61121094 -21.85421875 5.78492188 -21.5859375 4.93359375 C-21.39257812 4.29550781 -21.19921875 3.65742187 -21 3 C-20.34 3.66 -19.68 4.32 -19 5 C-17.67607028 6.01241685 -16.34400833 7.01439389 -15 8 C-15.33 9.32 -15.66 10.64 -16 12 C-15.01 12 -14.02 12 -13 12 C-12.34 12 -11.68 12 -11 12 C-11 11.34 -11 10.68 -11 10 C-11.66 10 -12.32 10 -13 10 C-13 9.01 -13 8.02 -13 7 C-13.66 6.67 -14.32 6.34 -15 6 C-13.68 6 -12.36 6 -11 6 C-11 6.66 -11 7.32 -11 8 C-8.36 8.33 -5.72 8.66 -3 9 C-3 8.01 -3 7.02 -3 6 C-2.01 6 -1.02 6 0 6 C0 4.02 0 2.04 0 0 Z " fill="#F1B414" transform="translate(109,31)"/>
<path d="M0 0 C6.28611293 -0.40845888 9.92159776 0.4044026 15.25 3.6875 C16.1471875 4.19700195 16.1471875 4.19700195 17.0625 4.71679688 C20.8750765 6.97313363 23.44835847 9.39359576 26 13 C22.3958502 13.02900455 18.79173038 13.04680018 15.1875 13.0625 C13.65125977 13.07506836 13.65125977 13.07506836 12.08398438 13.08789062 C10.60961914 13.09272461 10.60961914 13.09272461 9.10546875 13.09765625 C7.74651489 13.10551147 7.74651489 13.10551147 6.36010742 13.11352539 C4 13 4 13 1 12 C1 10.35 1 8.7 1 7 C1.99 8.485 1.99 8.485 3 10 C3 6.40577503 1.85018932 5.00655764 0 2 C0 1.34 0 0.68 0 0 Z " fill="#FBCB15" transform="translate(109,24)"/>
<path d="M0 0 C0 0.66 0 1.32 0 2 C0.66 2 1.32 2 2 2 C2.33 1.34 2.66 0.68 3 0 C3 1.32 3 2.64 3 4 C2.34 4 1.68 4 1 4 C1 4.99 1 5.98 1 7 C0.01 7 -0.98 7 -2 7 C-1.484375 7.391875 -0.96875 7.78375 -0.4375 8.1875 C0.036875 8.785625 0.51125 9.38375 1 10 C0.6875 12.6875 0.6875 12.6875 0 15 C-0.99 14.67 -1.98 14.34 -3 14 C-3 13.01 -3 12.02 -3 11 C-4.32 11.33 -5.64 11.66 -7 12 C-7 12.99 -7 13.98 -7 15 C-6.34 15 -5.68 15 -5 15 C-5 15.66 -5 16.32 -5 17 C-5.99 17.33 -6.98 17.66 -8 18 C-8.66 17.34 -9.32 16.68 -10 16 C-11.32 16 -12.64 16 -14 16 C-14 15.34 -14 14.68 -14 14 C-13.34 14 -12.68 14 -12 14 C-12 12.68 -12 11.36 -12 10 C-12.598125 9.87625 -13.19625 9.7525 -13.8125 9.625 C-16 9 -16 9 -19 7 C-13.25 4 -13.25 4 -11 4 C-11 3.34 -11 2.68 -11 2 C-7.17010894 0.19769832 -4.21878192 -0.19622241 0 0 Z " fill="#F5BB0C" transform="translate(88,24)"/>
<path d="M0 0 C0.66 0 1.32 0 2 0 C2 0.99 2 1.98 2 3 C4.31 3.33 6.62 3.66 9 4 C9 4.66 9 5.32 9 6 C10.98 6 12.96 6 15 6 C14.67 6.99 14.34 7.98 14 9 C12.35 9 10.7 9 9 9 C8.67 10.65 8.34 12.3 8 14 C11.465 13.505 11.465 13.505 15 13 C14.01 13.33 13.02 13.66 12 14 C12 14.99 12 15.98 12 17 C10.68 17 9.36 17 8 17 C8 17.99 8 18.98 8 20 C8.99 20.66 9.98 21.32 11 22 C6.46201017 21.45544122 2.18641799 20.89385576 -2 19 C-2.875 16.875 -2.875 16.875 -3 15 C-1.68 14.67 -0.36 14.34 1 14 C1 11.36 1 8.72 1 6 C0.34 6 -0.32 6 -1 6 C-0.67 4.02 -0.34 2.04 0 0 Z " fill="#EEAD13" transform="translate(58,150)"/>
<path d="M0 0 C0 1.32 0 2.64 0 4 C0.99 4 1.98 4 3 4 C3.33 4.66 3.66 5.32 4 6 C5.32 5.67 6.64 5.34 8 5 C7.66830805 11.30214697 4.32676012 15.85216936 1 21 C0.67 20.01 0.34 19.02 0 18 C0.66 17.01 1.32 16.02 2 15 C1.01 15.33 0.02 15.66 -1 16 C-2.71567661 19.50294871 -2.71567661 19.50294871 -4 23 C-4.66 23 -5.32 23 -6 23 C-5.47731534 20.23723823 -4.89130413 17.6739124 -4 15 C-4.32380126 13.66431979 -4.65657551 12.33076989 -5 11 C-4.67 10.34 -4.34 9.68 -4 9 C-5.32 8.67 -6.64 8.34 -8 8 C-7.8125 5.125 -7.8125 5.125 -7 2 C-4.52409924 0.60333803 -2.83735815 0 0 0 Z " fill="#DD830E" transform="translate(78,58)"/>
<path d="M0 0 C2.75838453 3.405413 4.77231029 7.10972971 6.75 11 C7.07871094 11.61617187 7.40742188 12.23234375 7.74609375 12.8671875 C10.06889034 17.43437405 10.06889034 17.43437405 9.703125 20.4375 C9.47109375 20.953125 9.2390625 21.46875 9 22 C8.67 21.34 8.34 20.68 8 20 C7.34 20 6.68 20 6 20 C6.33 21.32 6.66 22.64 7 24 C8.32 23.67 9.64 23.34 11 23 C11.33 24.32 11.66 25.64 12 27 C9.36 26.34 6.72 25.68 4 25 C3.67 23.02 3.34 21.04 3 19 C2.34 19 1.68 19 1 19 C1 18.34 1 17.68 1 17 C-1.31 17.99 -3.62 18.98 -6 20 C-6 18.35 -6 16.7 -6 15 C-6.66 14.67 -7.32 14.34 -8 14 C-8 13.34 -8 12.68 -8 12 C-5.03 11.01 -2.06 10.02 1 9 C1 8.34 1 7.68 1 7 C0.34 6.67 -0.32 6.34 -1 6 C-0.67 5.34 -0.34 4.68 0 4 C0 2.68 0 1.36 0 0 Z " fill="#D67526" transform="translate(154,67)"/>
<path d="M0 0 C0.66 0 1.32 0 2 0 C2 1.65 2 3.3 2 5 C1.34 5 0.68 5 0 5 C0 5.66 0 6.32 0 7 C1.32 7.33 2.64 7.66 4 8 C4 8.99 4 9.98 4 11 C5.32 11.33 6.64 11.66 8 12 C8 12.66 8 13.32 8 14 C9.32 14.33 10.64 14.66 12 15 C12.33 16.32 12.66 17.64 13 19 C11.35 19.33 9.7 19.66 8 20 C7.67 20.99 7.34 21.98 7 23 C6.34 22.67 5.68 22.34 5 22 C5.66 20.02 6.32 18.04 7 16 C6.34 16 5.68 16 5 16 C5 16.66 5 17.32 5 18 C4.34 18 3.68 18 3 18 C3 16.68 3 15.36 3 14 C2.01 14.66 1.02 15.32 0 16 C0.66 16.33 1.32 16.66 2 17 C2 17.66 2 18.32 2 19 C-0.475 18.01 -0.475 18.01 -3 17 C-2.67 15.68 -2.34 14.36 -2 13 C-2.99 13 -3.98 13 -5 13 C-5 12.34 -5 11.68 -5 11 C-4.34 11 -3.68 11 -3 11 C-3 10.34 -3 9.68 -3 9 C-3.99 9 -4.98 9 -6 9 C-6.33 9.66 -6.66 10.32 -7 11 C-7.66 11 -8.32 11 -9 11 C-7.125 6.25 -7.125 6.25 -6 4 C-5.01 3.67 -4.02 3.34 -3 3 C-2.484375 2.484375 -1.96875 1.96875 -1.4375 1.4375 C-0.963125 0.963125 -0.48875 0.48875 0 0 Z " fill="#E29526" transform="translate(63,40)"/>
<path d="M0 0 C1.32 0 2.64 0 4 0 C3.938125 0.78375 3.87625 1.5675 3.8125 2.375 C3.874375 3.24125 3.93625 4.1075 4 5 C4.99 5.66 5.98 6.32 7 7 C6.01 7.495 6.01 7.495 5 8 C4.67 8.99 4.34 9.98 4 11 C4.99 11 5.98 11 7 11 C7 11.99 7 12.98 7 14 C4.69 14 2.38 14 0 14 C0 14.99 0 15.98 0 17 C1.32 17 2.64 17 4 17 C4 17.66 4 18.32 4 19 C0.62182575 19.84454356 -1.67465243 20.10844919 -5 19 C-5 18.34 -5 17.68 -5 17 C-4.34 17 -3.68 17 -3 17 C-2.7834375 15.8553125 -2.7834375 15.8553125 -2.5625 14.6875 C-2 12 -2 12 -1 9 C-3.97 9.66 -6.94 10.32 -10 11 C-10 10.01 -10 9.02 -10 8 C-9.01 8 -8.02 8 -7 8 C-7 6.35 -7 4.7 -7 3 C-6.030625 2.87625 -5.06125 2.7525 -4.0625 2.625 C-2.5465625 2.315625 -2.5465625 2.315625 -1 2 C-0.67 1.34 -0.34 0.68 0 0 Z " fill="#D8760A" transform="translate(89,136)"/>
<path d="M0 0 C2.66666667 0.66666667 5.33333333 1.33333333 8 2 C8 2.66 8 3.32 8 4 C10.97 4.495 10.97 4.495 14 5 C14 5.99 14 6.98 14 8 C28.85 8 43.7 8 59 8 C59 8.33 59 8.66 59 9 C51.39377988 9.06959844 43.7875929 9.12286116 36.18112659 9.15543652 C32.64887534 9.17107343 29.11684241 9.19227501 25.5847168 9.22631836 C21.52130063 9.26523603 17.45811279 9.27972547 13.39453125 9.29296875 C11.49741142 9.31619453 11.49741142 9.31619453 9.56196594 9.33988953 C8.38111923 9.34011612 7.20027252 9.34034271 5.98364258 9.34057617 C4.94661697 9.34723801 3.90959137 9.35389984 2.84114075 9.36076355 C-0.41903623 8.94679144 -2.32419039 7.86110796 -5 6 C-4.67 5.01 -4.34 4.02 -4 3 C-2.68 3 -1.36 3 0 3 C0 2.01 0 1.02 0 0 Z " fill="#E5A04E" transform="translate(70,164)"/>
<path d="M0 0 C3 1 3 1 4.09765625 2.8125 C4.41605469 3.534375 4.73445312 4.25625 5.0625 5 C6.32230077 8.1514696 6.32230077 8.1514696 9 10 C9 10.66 9 11.32 9 12 C7.35 12 5.7 12 4 12 C4 12.99 4 13.98 4 15 C5.32 15.33 6.64 15.66 8 16 C8 16.99 8 17.98 8 19 C6.02 19 4.04 19 2 19 C0.5216774 16.04335481 0.93967217 13.25770263 1 10 C1.99 9.67 2.98 9.34 4 9 C3.67 8.34 3.34 7.68 3 7 C0.69 7.33 -1.62 7.66 -4 8 C-3.67 9.32 -3.34 10.64 -3 12 C-3.99 12.495 -3.99 12.495 -5 13 C-5.99 14.485 -5.99 14.485 -7 16 C-7.16918268 14.41693353 -7.33523936 12.83353281 -7.5 11.25 C-7.5928125 10.36828125 -7.685625 9.4865625 -7.78125 8.578125 C-8 6 -8 6 -8 2 C-7.01 1.67 -6.02 1.34 -5 1 C-5 1.66 -5 2.32 -5 3 C-4.236875 2.484375 -3.47375 1.96875 -2.6875 1.4375 C-1.800625 0.963125 -0.91375 0.48875 0 0 Z " fill="#E9A427" transform="translate(152,109)"/>
<path d="M0 0 C3.3 0 6.6 0 10 0 C8.35 1.65 6.7 3.3 5 5 C5.66 5 6.32 5 7 5 C7.33 4.34 7.66 3.68 8 3 C8.99 3 9.98 3 11 3 C11.66 2.34 12.32 1.68 13 1 C13 3.31 13 5.62 13 8 C12.34 8 11.68 8 11 8 C11 8.99 11 9.98 11 11 C8.36 10.67 5.72 10.34 3 10 C3 9.34 3 8.68 3 8 C2.01 8.495 2.01 8.495 1 9 C1 9.99 1 10.98 1 12 C1.66 12 2.32 12 3 12 C3 12.66 3 13.32 3 14 C2.360625 14.12375 1.72125 14.2475 1.0625 14.375 C0.381875 14.58125 -0.29875 14.7875 -1 15 C-1.33 15.66 -1.66 16.32 -2 17 C-2.33 15.68 -2.66 14.36 -3 13 C-2.34 13 -1.68 13 -1 13 C-1 12.01 -1 11.02 -1 10 C-3.475 9.01 -3.475 9.01 -6 8 C-3.16569547 4.7457985 -1.31392226 3.4793247 3 3 C2.01 2.01 1.02 1.02 0 0 Z " fill="#FACC27" transform="translate(95,29)"/>
<path d="M0 0 C1.1875 2.25 1.1875 2.25 2 5 C0.625 7.3125 0.625 7.3125 -1 9 C-0.01 9.33 0.98 9.66 2 10 C2 10.99 2 11.98 2 13 C2.66 13.33 3.32 13.66 4 14 C4.66 14.66 5.32 15.32 6 16 C6 14.68 6 13.36 6 12 C6.66 12 7.32 12 8 12 C8 12.66 8 13.32 8 14 C8.99 14.33 9.98 14.66 11 15 C9.02 17.97 7.04 20.94 5 24 C2.525 23.01 2.525 23.01 0 22 C0.33 20.35 0.66 18.7 1 17 C0.34 16.67 -0.32 16.34 -1 16 C-1.0928125 14.824375 -1.0928125 14.824375 -1.1875 13.625 C-1.455625 12.75875 -1.72375 11.8925 -2 11 C-5.47307328 9.13016255 -5.47307328 9.13016255 -9 8 C-9 7.01 -9 6.02 -9 5 C-6 4 -6 4 -3.8125 4.9375 C-3.214375 5.288125 -2.61625 5.63875 -2 6 C-2 5.34 -2 4.68 -2 4 C-2.66 4 -3.32 4 -4 4 C-4 3.01 -4 2.02 -4 1 C-2 0 -2 0 0 0 Z " fill="#ECA709" transform="translate(85,35)"/>
<path d="M0 0 C0.99 0.66 1.98 1.32 3 2 C3 2.99 3 3.98 3 5 C4.65 5 6.3 5 8 5 C8 4.34 8 3.68 8 3 C8.66 3 9.32 3 10 3 C10 4.65 10 6.3 10 8 C10.61875 7.814375 11.2375 7.62875 11.875 7.4375 C14 7 14 7 16 8 C16 9.32 16 10.64 16 12 C16.66 12.33 17.32 12.66 18 13 C16.35 13 14.7 13 13 13 C13 13.99 13 14.98 13 16 C8.1889131 14.7038946 5.31559144 12.89135709 1.6875 9.5 C0.39392578 8.30890625 0.39392578 8.30890625 -0.92578125 7.09375 C-3 5 -3 5 -4 3 C-3.34 3 -2.68 3 -2 3 C-2 2.34 -2 1.68 -2 1 C-1.34 0.67 -0.68 0.34 0 0 Z " fill="#F8CA3A" transform="translate(43,152)"/>
<path d="M0 0 C1.65 0 3.3 0 5 0 C5.36717663 7.4659249 5.36717663 7.4659249 3.625 10 C2 11 2 11 0 11 C-0.33 11.99 -0.66 12.98 -1 14 C-1.66 14 -2.32 14 -3 14 C-3 14.99 -3 15.98 -3 17 C-4.32 17.33 -5.64 17.66 -7 18 C-7 17.34 -7 16.68 -7 16 C-9.31 16.33 -11.62 16.66 -14 17 C-14.33 15.35 -14.66 13.7 -15 12 C-14.195625 11.71125 -13.39125 11.4225 -12.5625 11.125 C-9.8673532 10.26737432 -9.8673532 10.26737432 -9 8 C-8.01 8.33 -7.02 8.66 -6 9 C-4.33034549 8.68197057 -2.66321482 8.35015049 -1 8 C-0.67 8.33 -0.34 8.66 0 9 C0 8.2575 0 7.515 0 6.75 C0 4.5 0 2.25 0 0 Z " fill="#E08E22" transform="translate(151,87)"/>
<path d="M0 0 C1.65322266 0.01740234 1.65322266 0.01740234 3.33984375 0.03515625 C4.99693359 0.04869141 4.99693359 0.04869141 6.6875 0.0625 C7.54214844 0.07410156 8.39679688 0.08570313 9.27734375 0.09765625 C8.94734375 1.08765625 8.61734375 2.07765625 8.27734375 3.09765625 C6.29734375 3.09765625 4.31734375 3.09765625 2.27734375 3.09765625 C2.27734375 4.74765625 2.27734375 6.39765625 2.27734375 8.09765625 C-0.03265625 8.42765625 -2.34265625 8.75765625 -4.72265625 9.09765625 C-4.72265625 11.40765625 -4.72265625 13.71765625 -4.72265625 16.09765625 C-2.74265625 16.42765625 -0.76265625 16.75765625 1.27734375 17.09765625 C0.94734375 18.08765625 0.61734375 19.07765625 0.27734375 20.09765625 C-2.36265625 19.76765625 -5.00265625 19.43765625 -7.72265625 19.09765625 C-7.72265625 16.45765625 -7.72265625 13.81765625 -7.72265625 11.09765625 C-7.06265625 11.09765625 -6.40265625 11.09765625 -5.72265625 11.09765625 C-5.72265625 10.43765625 -5.72265625 9.77765625 -5.72265625 9.09765625 C-6.38265625 8.76765625 -7.04265625 8.43765625 -7.72265625 8.09765625 C-6.73265625 8.09765625 -5.74265625 8.09765625 -4.72265625 8.09765625 C-5.05265625 7.10765625 -5.38265625 6.11765625 -5.72265625 5.09765625 C-4.73265625 5.09765625 -3.74265625 5.09765625 -2.72265625 5.09765625 C-3.00109375 4.13859375 -3.00109375 4.13859375 -3.28515625 3.16015625 C-3.42953125 2.47953125 -3.57390625 1.79890625 -3.72265625 1.09765625 C-2.72265625 0.09765625 -2.72265625 0.09765625 0 0 Z " fill="#E39108" transform="translate(79.72265625,135.90234375)"/>
<path d="M0 0 C3.46941546 0.45822468 6.67395049 0.89131683 10 2 C10 2.66 10 3.32 10 4 C9.34 4 8.68 4 8 4 C7.67 8.29 7.34 12.58 7 17 C7.66 17.33 8.32 17.66 9 18 C8.67 19.32 8.34 20.64 8 22 C7.67 21.34 7.34 20.68 7 20 C4.67843403 19.59270772 2.3431213 19.25561323 0 19 C0 18.01 0 17.02 0 16 C0.66 16 1.32 16 2 16 C2.33 13.69 2.66 11.38 3 9 C2.01 8.67 1.02 8.34 0 8 C0.66 7.34 1.32 6.68 2 6 C2.64767793 3.42938689 2.64767793 3.42938689 3 1 C2.01 0.67 1.02 0.34 0 0 Z " fill="#ECA811" transform="translate(60,134)"/>
<path d="M0 0 C0.66 0 1.32 0 2 0 C2 0.66 2 1.32 2 2 C4.76264289 2.59732819 7.16032769 3 10 3 C9.34 4.32 8.68 5.64 8 7 C8 6.34 8 5.68 8 5 C5.42672567 6.21030974 5.42672567 6.21030974 3 8 C3 9.32 3 10.64 3 12 C2.34 12 1.68 12 1 12 C1 11.34 1 10.68 1 10 C0.34 10 -0.32 10 -1 10 C-0.67 10.99 -0.34 11.98 0 13 C-1.32 13 -2.64 13 -4 13 C-4.66 13.66 -5.32 14.32 -6 15 C-7.65 11.7 -9.3 8.4 -11 5 C-10.34 5 -9.68 5 -9 5 C-9 5.66 -9 6.32 -9 7 C-8.195625 6.835 -7.39125 6.67 -6.5625 6.5 C-4 6 -4 6 -3 6 C-0.62984755 3.34515551 -0.62984755 3.34515551 0 0 Z M6 7 C6.66 7 7.32 7 8 7 C7.67 7.66 7.34 8.32 7 9 C6.67 8.34 6.34 7.68 6 7 Z " fill="#D36C16" transform="translate(139,81)"/>
<path d="M0 0 C1 2 1 2 0.6875 5.375 C0.55950834 10.74080417 3.15043334 14.77659362 5.6875 19.36328125 C7 22 7 22 7 25 C4.03 23.35 1.06 21.7 -2 20 C-2.33 23.96 -2.66 27.92 -3 32 C-3.33 32 -3.66 32 -4 32 C-4.32526601 21.26622156 -4.37342199 11.33001241 -1 1 C-0.67 0.67 -0.34 0.34 0 0 Z " fill="#FCCE1E" transform="translate(29,95)"/>
<path d="M0 0 C1.11375 0.495 1.11375 0.495 2.25 1 C5.13883312 2.22782871 5.13883312 2.22782871 9 2 C9 2.66 9 3.32 9 4 C9.66 4.33 10.32 4.66 11 5 C11 6.32 11 7.64 11 9 C10.34 9 9.68 9 9 9 C8.67 8.34 8.34 7.68 8 7 C7.67 7.33 7.34 7.66 7 8 C7.33 8.66 7.66 9.32 8 10 C3.89542386 12.98514628 1.02254631 13.2954439 -4 13 C-3.79503906 12.39671875 -3.59007812 11.7934375 -3.37890625 11.171875 C-2.97478516 9.97304687 -2.97478516 9.97304687 -2.5625 8.75 C-2.29566406 7.96109375 -2.02882812 7.1721875 -1.75390625 6.359375 C-1.08045292 4.25178012 -0.50849405 2.15246027 0 0 Z " fill="#F7C008" transform="translate(148,147)"/>
<path d="M0 0 C0.99 1.485 0.99 1.485 2 3 C4.05003955 4.19232613 4.05003955 4.19232613 6 5 C4.68 5.33 3.36 5.66 2 6 C2 9.96 2 13.92 2 18 C3.98 18.33 5.96 18.66 8 19 C8 18.01 8 17.02 8 16 C8.99 15.67 9.98 15.34 11 15 C12.21869929 12.49552484 12.21869929 12.49552484 13 10 C14.98 11.65 16.96 13.3 19 15 C18.01 15.33 17.02 15.66 16 16 C15.34 15.67 14.68 15.34 14 15 C13.67 15.99 13.34 16.98 13 18 C10.9375 18.6875 10.9375 18.6875 9 19 C9 19.66 9 20.32 9 21 C6.69 21.33 4.38 21.66 2 22 C0.33325679 19.08175756 -0.2432008 17.02405621 -0.1953125 13.671875 C-0.18886719 12.87265625 -0.18242187 12.0734375 -0.17578125 11.25 C-0.15902344 10.425 -0.14226563 9.6 -0.125 8.75 C-0.11597656 7.90953125 -0.10695313 7.0690625 -0.09765625 6.203125 C-0.07415817 4.13529396 -0.03828908 2.06761005 0 0 Z " fill="#FAC608" transform="translate(26,112)"/>
<path d="M0 0 C0.66 1.32 1.32 2.64 2 4 C3.65 4 5.3 4 7 4 C7 7.66666667 7 11.33333333 7 15 C2.05 15 -2.9 15 -8 15 C-8 13.68 -8 12.36 -8 11 C-4.7 11 -1.4 11 2 11 C2 9.35 2 7.7 2 6 C0.68 5.34 -0.64 4.68 -2 4 C-1.34 2.68 -0.68 1.36 0 0 Z " fill="#D06313" transform="translate(92,157)"/>
<path d="M0 0 C1.32 0.33 2.64 0.66 4 1 C4.3690205 17.8929385 4.3690205 17.8929385 2 25 C0.4375 23.75 0.4375 23.75 -1 22 C-0.6875 19.8125 -0.6875 19.8125 0 18 C0 18.66 0 19.32 0 20 C0.66 20 1.32 20 2 20 C1.67 18.35 1.34 16.7 1 15 C-0.32 14.67 -1.64 14.34 -3 14 C-2.34 12.68 -1.68 11.36 -1 10 C-0.34 10 0.32 10 1 10 C0.67 9.34 0.34 8.68 0 8 C-0.66 8 -1.32 8 -2 8 C-2 6.68 -2 5.36 -2 4 C-1.34 4 -0.68 4 0 4 C0 2.68 0 1.36 0 0 Z " fill="#F8CD4D" transform="translate(170,111)"/>
<path d="M0 0 C0 0.99 0 1.98 0 3 C-0.99 3 -1.98 3 -3 3 C-2.67 4.65 -2.34 6.3 -2 8 C-1.67 7.34 -1.34 6.68 -1 6 C0.32 6 1.64 6 3 6 C3 6.66 3 7.32 3 8 C2.01 8.495 2.01 8.495 1 9 C1 10.32 1 11.64 1 13 C-3.08718695 13.24042276 -6.17679443 12.42258812 -10 11 C-8.8905928 7.51329166 -7.73662334 4.22515763 -6 1 C-6.66 0.67 -7.32 0.34 -8 0 C-4.94736336 -0.98120464 -3.05263664 -0.98120464 0 0 Z " fill="#C1411B" transform="translate(116,155)"/>
<path d="M0 0 C-0.99 0.66 -1.98 1.32 -3 2 C-2.40844669 3.31823302 -1.80128537 4.62947051 -1.1875 5.9375 C-0.85105469 6.66839844 -0.51460937 7.39929688 -0.16796875 8.15234375 C0.93600134 10.33029489 0.93600134 10.33029489 4 11 C4.33 12.65 4.66 14.3 5 16 C4.34 16 3.68 16 3 16 C3.33 17.98 3.66 19.96 4 22 C3.34 22.33 2.68 22.66 2 23 C1.01 22.67 0.02 22.34 -1 22 C-2 19 -2 19 -1 16 C-1.66 15.67 -2.32 15.34 -3 15 C-1.68 15 -0.36 15 1 15 C1 14.34 1 13.68 1 13 C-0.32 12.67 -1.64 12.34 -3 12 C-2.34 12 -1.68 12 -1 12 C-1 11.34 -1 10.68 -1 10 C-1.99 10.33 -2.98 10.66 -4 11 C-5.66342837 9.33657163 -5.36048097 7.2174291 -5.5625 4.9375 C-5.64628906 4.01839844 -5.73007813 3.09929687 -5.81640625 2.15234375 C-5.90728516 1.08693359 -5.90728516 1.08693359 -6 0 C-2.25 -1.125 -2.25 -1.125 0 0 Z " fill="#F7C111" transform="translate(167,115)"/>
<path d="M0 0 C0.66 0 1.32 0 2 0 C3.19733988 2.11997834 4.38298713 4.24513676 5.5625 6.375 C5.90474609 6.97828125 6.24699219 7.5815625 6.59960938 8.203125 C7.46127095 9.76978241 8.23718183 11.38290862 9 13 C8.67 13.66 8.34 14.32 8 15 C4.76902047 15.86159454 2.77513726 16.30597523 -0.375 15.0625 C-0.91125 14.711875 -1.4475 14.36125 -2 14 C-2 13.34 -2 12.68 -2 12 C-1.01 11.67 -0.02 11.34 1 11 C-0.65 10.67 -2.3 10.34 -4 10 C-4 9.34 -4 8.68 -4 8 C-3.34 8 -2.68 8 -2 8 C-1.67 7.01 -1.34 6.02 -1 5 C-0.67 5.66 -0.34 6.32 0 7 C0.66 7 1.32 7 2 7 C2.33 6.34 2.66 5.68 3 5 C2.01 5.33 1.02 5.66 0 6 C-1.125 2.25 -1.125 2.25 0 0 Z " fill="#BF3B1C" transform="translate(143,49)"/>
<path d="M0 0 C1.5625 1.25 1.5625 1.25 3 3 C2.6875 5.1875 2.6875 5.1875 2 7 C3.98 7.66 5.96 8.32 8 9 C8 8.34 8 7.68 8 7 C9.32 7.66 10.64 8.32 12 9 C7.375 13.875 7.375 13.875 4 15 C1.3125 14.0625 1.3125 14.0625 -1 13 C-1 10.69 -1 8.38 -1 6 C-1.66 6 -2.32 6 -3 6 C-3.33 4.35 -3.66 2.7 -4 1 C-2.68 1.33 -1.36 1.66 0 2 C0 1.34 0 0.68 0 0 Z " fill="#D36B14" transform="translate(63,64)"/>
<path d="M0 0 C1.65 0 3.3 0 5 0 C5.433125 0.928125 5.86625 1.85625 6.3125 2.8125 C7.72038627 5.47184073 8.76123556 7.08105905 11 9 C10.34 9 9.68 9 9 9 C8.67 10.32 8.34 11.64 8 13 C6.68 13 5.36 13 4 13 C3.67 12.01 3.34 11.02 3 10 C1.35 9.67 -0.3 9.34 -2 9 C-0.68 8.67 0.64 8.34 2 8 C1.65555119 5.52733235 1.65555119 5.52733235 1 3 C0.34 2.67 -0.32 2.34 -1 2 C-0.67 1.34 -0.34 0.68 0 0 Z " fill="#C44915" transform="translate(47,72)"/>
<path d="M0 0 C-0.60183749 2.02045442 -1.27306096 4.02111039 -2 6 C-2.99 6.495 -2.99 6.495 -4 7 C-4.268125 7.825 -4.53625 8.65 -4.8125 9.5 C-5.204375 10.325 -5.59625 11.15 -6 12 C-8.625 12.8125 -8.625 12.8125 -11 13 C-10.67 12.01 -10.34 11.02 -10 10 C-9.34 10 -8.68 10 -8 10 C-8 9.34 -8 8.68 -8 8 C-8.66 7.67 -9.32 7.34 -10 7 C-9.38722388 4.03824877 -8.74627478 2.61941217 -7 0 C-3.86650268 -1.04449911 -3.01031744 -0.93423645 0 0 Z " fill="#E3931B" transform="translate(162,96)"/>
<path d="M0 0 C0.66 0.33 1.32 0.66 2 1 C2 1.66 2 2.32 2 3 C0.68 3.33 -0.64 3.66 -2 4 C-2.33 5.65 -2.66 7.3 -3 9 C-5.97 8.505 -5.97 8.505 -9 8 C-9 8.66 -9 9.32 -9 10 C-8.34 10.33 -7.68 10.66 -7 11 C-8.65 11.66 -10.3 12.32 -12 13 C-12 12.34 -12 11.68 -12 11 C-12.99 11.33 -13.98 11.66 -15 12 C-15 11.34 -15 10.68 -15 10 C-14.34 9.67 -13.68 9.34 -13 9 C-12.67 8.01 -12.34 7.02 -12 6 C-9.34765625 4.359375 -9.34765625 4.359375 -6.0625 2.75 C-4.98097656 2.20859375 -3.89945313 1.6671875 -2.78515625 1.109375 C-1.40650391 0.56023438 -1.40650391 0.56023438 0 0 Z " fill="#C54C18" transform="translate(150,63)"/>
<path d="M0 0 C0 2.97 0 5.94 0 9 C-1.32 8.34 -2.64 7.68 -4 7 C-3.67 7.33 -3.34 7.66 -3 8 C-4.33333333 8.33333333 -5.66666667 8.66666667 -7 9 C-7.66 9.2475 -8.32 9.495 -9 9.75 C-11 10 -11 10 -13.25 8.5625 C-13.8275 8.046875 -14.405 7.53125 -15 7 C-9.25 4 -9.25 4 -7 4 C-7 3.34 -7 2.68 -7 2 C-2.25 0 -2.25 0 0 0 Z " fill="#F4BE2B" transform="translate(84,24)"/>
<path d="M0 0 C0.99 0 1.98 0 3 0 C3.02689216 1.47906892 3.04634621 2.95827483 3.0625 4.4375 C3.07410156 5.26121094 3.08570313 6.08492187 3.09765625 6.93359375 C3 9 3 9 2 10 C2.66 10.33 3.32 10.66 4 11 C3.67 11.99 3.34 12.98 3 14 C2.05125 13.67 1.1025 13.34 0.125 13 C-2.77062452 11.89840809 -2.77062452 11.89840809 -5 12 C-5.33 12.99 -5.66 13.98 -6 15 C-6.33 14.34 -6.66 13.68 -7 13 C-5.92325298 10.71741367 -4.80453884 8.5643566 -3.5625 6.375 C-3.22412109 5.76398437 -2.88574219 5.15296875 -2.53710938 4.5234375 C-1.69853808 3.011647 -0.85017423 1.50529601 0 0 Z " fill="#D97E29" transform="translate(53,51)"/>
<path d="M0 0 C0.33 0 0.66 0 1 0 C1 1.65 1 3.3 1 5 C3.97 5 6.94 5 10 5 C7.31765469 6.7882302 5.04485923 7.85190382 2.0625 9 C-0.43644976 9.96490368 -2.78768547 10.87834103 -5.11328125 12.2109375 C-6.04720703 12.60152344 -6.04720703 12.60152344 -7 13 C-10.25 11.625 -10.25 11.625 -13 10 C-13 9.01 -13 8.02 -13 7 C-13.66 6.67 -14.32 6.34 -15 6 C-13.68 6 -12.36 6 -11 6 C-11 6.66 -11 7.32 -11 8 C-8.36 8.33 -5.72 8.66 -3 9 C-3 8.01 -3 7.02 -3 6 C-2.01 6 -1.02 6 0 6 C0 4.02 0 2.04 0 0 Z " fill="#F5BB06" transform="translate(109,31)"/>
<path d="M0 0 C-0.33 0.66 -0.66 1.32 -1 2 C-1.66 1.67 -2.32 1.34 -3 1 C-2.67 4.3 -2.34 7.6 -2 11 C-3.65 11.66 -5.3 12.32 -7 13 C-7 12.34 -7 11.68 -7 11 C-8.32 10.34 -9.64 9.68 -11 9 C-10.34 8.67 -9.68 8.34 -9 8 C-8.34 8.33 -7.68 8.66 -7 9 C-7 8.01 -7 7.02 -7 6 C-6.34 6 -5.68 6 -5 6 C-5.33 5.34 -5.66 4.68 -6 4 C-6.66 4 -7.32 4 -8 4 C-8 3.34 -8 2.68 -8 2 C-9.32 1.67 -10.64 1.34 -12 1 C-8.0186217 -0.3271261 -4.14954773 -0.06915913 0 0 Z " fill="#F8C92F" transform="translate(96,22)"/>
<path d="M0 0 C0.33 0.99 0.66 1.98 1 3 C1.66 3 2.32 3 3 3 C3.33 2.01 3.66 1.02 4 0 C4 0.99 4 1.98 4 3 C4.66 3 5.32 3 6 3 C6 3.66 6 4.32 6 5 C8.97 5.495 8.97 5.495 12 6 C12 7.65 12 9.3 12 11 C10.35 11 8.7 11 7 11 C7 10.34 7 9.68 7 9 C6.34 9 5.68 9 5 9 C5 8.01 5 7.02 5 6 C3.68 6 2.36 6 1 6 C0.67 6.99 0.34 7.98 0 9 C-0.33 8.67 -0.66 8.34 -1 8 C-0.82364548 5.30917128 -0.38164079 2.67148554 0 0 Z " fill="#D6751F" transform="translate(82,157)"/>
<path d="M0 0 C0.33 0.99 0.66 1.98 1 3 C2.65 2.67 4.3 2.34 6 2 C4.35 4.31 2.7 6.62 1 9 C0.01 8.67 -0.98 8.34 -2 8 C-2 6.68 -2 5.36 -2 4 C-3.98 4.33 -5.96 4.66 -8 5 C-8.33 4.01 -8.66 3.02 -9 2 C-8 0 -8 0 -6.1875 -0.6875 C-3.7469079 -1.03615601 -2.27793592 -0.94259417 0 0 Z " fill="#C54A17" transform="translate(64,85)"/>
<path d="M0 0 C0.99 0 1.98 0 3 0 C3 1.32 3 2.64 3 4 C4.32 4.66 5.64 5.32 7 6 C7 5.34 7 4.68 7 4 C6.01 3.67 5.02 3.34 4 3 C4.33 2.34 4.66 1.68 5 1 C5.99 1 6.98 1 8 1 C8 2.32 8 3.64 8 5 C8.66 5 9.32 5 10 5 C10 4.34 10 3.68 10 3 C10.99 2.67 11.98 2.34 13 2 C12.42647107 5.87132028 10.51295648 8.08172796 8 11 C7.67 9.68 7.34 8.36 7 7 C6.13375 7.309375 6.13375 7.309375 5.25 7.625 C2.42816426 8.09530596 1.33116317 7.60769874 -1 6 C-1.33 5.01 -1.66 4.02 -2 3 C-1.34 3 -0.68 3 0 3 C0 2.01 0 1.02 0 0 Z " fill="#D97908" transform="translate(58,53)"/>
<path d="M0 0 C0.99 0 1.98 0 3 0 C4.125 3.75 4.125 3.75 3 6 C5.31 6 7.62 6 10 6 C10 5.34 10 4.68 10 4 C11.32 3.67 12.64 3.34 14 3 C12.68 5.31 11.36 7.62 10 10 C10.7425 10.680625 10.7425 10.680625 11.5 11.375 C13 13 13 13 13 15 C12.01 14.67 11.02 14.34 10 14 C10 13.34 10 12.68 10 12 C8.68 11.67 7.36 11.34 6 11 C6 10.34 6 9.68 6 9 C4.68 8.67 3.36 8.34 2 8 C2 7.01 2 6.02 2 5 C0.68 4.67 -0.64 4.34 -2 4 C-2 3.34 -2 2.68 -2 2 C-1.34 2 -0.68 2 0 2 C0 1.34 0 0.68 0 0 Z " fill="#E39109" transform="translate(65,43)"/>
<path d="M0 0 C0.66 0 1.32 0 2 0 C2.125 2.375 2.125 2.375 2 5 C1.34 5.66 0.68 6.32 0 7 C0.66 7.33 1.32 7.66 2 8 C1.67 10.31 1.34 12.62 1 15 C0.01 14.34 -0.98 13.68 -2 13 C-1.34 13 -0.68 13 0 13 C0 12.01 0 11.02 0 10 C-1.65 10 -3.3 10 -5 10 C-5 10.99 -5 11.98 -5 13 C-6.32 13 -7.64 13 -9 13 C-9 12.01 -9 11.02 -9 10 C-8.34 10 -7.68 10 -7 10 C-7 9.34 -7 8.68 -7 8 C-7.66 8 -8.32 8 -9 8 C-9 7.34 -9 6.68 -9 6 C-7.35 6 -5.7 6 -4 6 C-4 5.34 -4 4.68 -4 4 C-2.68 4 -1.36 4 0 4 C0 2.68 0 1.36 0 0 Z " fill="#F1B516" transform="translate(61,135)"/>
<path d="M0 0 C3.96189783 4.23513217 5.43181728 8.547001 7 14 C5.02 14 3.04 14 1 14 C1 13.34 1 12.68 1 12 C0.01 12 -0.98 12 -2 12 C-2.33 10.68 -2.66 9.36 -3 8 C-1.35 8.33 0.3 8.66 2 9 C1.67 7.35 1.34 5.7 1 4 C-0.32 4.33 -1.64 4.66 -3 5 C-3.33 3.68 -3.66 2.36 -4 1 C-3.01 1.33 -2.02 1.66 -1 2 C-0.67 1.34 -0.34 0.68 0 0 Z " fill="#E6A240" transform="translate(164,86)"/>
<path d="M0 0 C0.66 0 1.32 0 2 0 C2.33 0.99 2.66 1.98 3 3 C2.34 3 1.68 3 1 3 C1.33 4.32 1.66 5.64 2 7 C3.32 6.67 4.64 6.34 6 6 C6 6.99 6 7.98 6 9 C4.68 9.33 3.36 9.66 2 10 C2 9.34 2 8.68 2 8 C-0.31 8.33 -2.62 8.66 -5 9 C-5.33 7.35 -5.66 5.7 -6 4 C-4.7934375 3.566875 -4.7934375 3.566875 -3.5625 3.125 C-0.8673532 2.26737432 -0.8673532 2.26737432 0 0 Z " fill="#DE8610" transform="translate(142,95)"/>
<path d="M0 0 C0.33 0.99 0.66 1.98 1 3 C2.98 3 4.96 3 7 3 C7.33 3.66 7.66 4.32 8 5 C6.02 5.33 4.04 5.66 2 6 C2.34786708 7.97536745 2.34786708 7.97536745 3 10 C3.66 10.33 4.32 10.66 5 11 C5 11.99 5 12.98 5 14 C2.69 14.33 0.38 14.66 -2 15 C-1.03644647 4.44191344 -1.03644647 4.44191344 0 0 Z " fill="#F8C207" transform="translate(151,132)"/>
<path d="M0 0 C0.66 0 1.32 0 2 0 C2.1875 2.3125 2.1875 2.3125 2 5 C1.0206121 6.02019573 0.02104551 7.02149805 -1 8 C-1 9.32 -1 10.64 -1 12 C-2.32 12.33 -3.64 12.66 -5 13 C-5 12.34 -5 11.68 -5 11 C-4.34 11 -3.68 11 -3 11 C-3 10.34 -3 9.68 -3 9 C-3.99 9 -4.98 9 -6 9 C-6.33 9.66 -6.66 10.32 -7 11 C-7.66 11 -8.32 11 -9 11 C-7.125 6.25 -7.125 6.25 -6 4 C-5.01 3.67 -4.02 3.34 -3 3 C-2.484375 2.484375 -1.96875 1.96875 -1.4375 1.4375 C-0.963125 0.963125 -0.48875 0.48875 0 0 Z " fill="#E39728" transform="translate(63,40)"/>
<path d="M0 0 C0.103125 0.598125 0.20625 1.19625 0.3125 1.8125 C1.08876455 4.28243264 2.07088921 5.32251235 4 7 C3.34 7 2.68 7 2 7 C1.67 7.99 1.34 8.98 1 10 C0.34 9.67 -0.32 9.34 -1 9 C-1 9.66 -1 10.32 -1 11 C-1.66 11 -2.32 11 -3 11 C-3 10.01 -3 9.02 -3 8 C-4.98491642 8.26676204 -4.98491642 8.26676204 -7 9 C-7.33 9.99 -7.66 10.98 -8 12 C-8.66 11.67 -9.32 11.34 -10 11 C-8.52116808 9.35386588 -7.04192523 7.70810092 -5.5625 6.0625 C-4.73878906 5.14597656 -3.91507812 4.22945312 -3.06640625 3.28515625 C-1 1 -1 1 0 0 Z " fill="#EBAD3F" transform="translate(68,32)"/>
<path d="M0 0 C3.3 0 6.6 0 10 0 C8.35 1.65 6.7 3.3 5 5 C5.66 5 6.32 5 7 5 C7.33 4.34 7.66 3.68 8 3 C8.99 3.66 9.98 4.32 11 5 C10.34 5 9.68 5 9 5 C9 5.99 9 6.98 9 8 C7.35 7.67 5.7 7.34 4 7 C4 6.34 4 5.68 4 5 C-0.95 6.485 -0.95 6.485 -6 8 C-3.16569547 4.7457985 -1.31392226 3.4793247 3 3 C2.01 2.01 1.02 1.02 0 0 Z " fill="#F9C409" transform="translate(95,29)"/>
<path d="M0 0 C0.66 0 1.32 0 2 0 C2 3.63 2 7.26 2 11 C2.66 11 3.32 11 4 11 C4 9.35 4 7.7 4 6 C5.32 5.67 6.64 5.34 8 5 C9 7 9 7 9 10 C8.01 10 7.02 10 6 10 C6 10.99 6 11.98 6 13 C3.03 12.505 3.03 12.505 0 12 C0 8.04 0 4.08 0 0 Z " fill="#F9CB2A" transform="translate(28,118)"/>
<path d="M0 0 C1.9375 0.3125 1.9375 0.3125 4 1 C4.33 1.99 4.66 2.98 5 4 C5.99 4.33 6.98 4.66 8 5 C8 5.66 8 6.32 8 7 C8.99 7 9.98 7 11 7 C10.34 8.32 9.68 9.64 9 11 C9 10.34 9 9.68 9 9 C7.35 9.66 5.7 10.32 4 11 C4 10.01 4 9.02 4 8 C3.01 8 2.02 8 1 8 C0.67 5.36 0.34 2.72 0 0 Z " fill="#E49616" transform="translate(77,54)"/>
<path d="M0 0 C1.37562854 1.28965176 2.70766393 2.62689293 4 4 C4 4.66 4 5.32 4 6 C2.35 6 0.7 6 -1 6 C-1 6.99 -1 7.98 -1 9 C0.32 9.33 1.64 9.66 3 10 C3 10.99 3 11.98 3 13 C1.02 13 -0.96 13 -3 13 C-4.54586876 9.90826248 -4.29359521 7.40570448 -4 4 C-2 1.5625 -2 1.5625 0 0 Z " fill="#F3BC25" transform="translate(157,115)"/>
<path d="M0 0 C0.66 0.99 1.32 1.98 2 3 C1.67 3.66 1.34 4.32 1 5 C1.99 4.67 2.98 4.34 4 4 C4.33 4.66 4.66 5.32 5 6 C4.01 6 3.02 6 2 6 C2 6.66 2 7.32 2 8 C0.37373596 9.38232443 -1.2925002 10.71937515 -3 12 C-3.66 11.67 -4.32 11.34 -5 11 C-5 11.99 -5 12.98 -5 14 C-5.66 14 -6.32 14 -7 14 C-5.53967505 8.68972746 -3.01679014 4.53669968 0 0 Z " fill="#CD6338" transform="translate(45,66)"/>
<path d="M0 0 C2.38564077 0.57584432 4.66682784 1.22227595 7 2 C7.33 1.34 7.66 0.68 8 0 C9 3 9 3 8.0625 5.1875 C7.711875 5.785625 7.36125 6.38375 7 7 C6.34 6.67 5.68 6.34 5 6 C5 6.99 5 7.98 5 9 C4.34 9 3.68 9 3 9 C3 8.01 3 7.02 3 6 C0.525 5.01 0.525 5.01 -2 4 C-1.34 2.68 -0.68 1.36 0 0 Z " fill="#EDAD1C" transform="translate(69,32)"/>
<path d="M0 0 C0.33 1.65 0.66 3.3 1 5 C0.01 4.67 -0.98 4.34 -2 4 C-2 3.01 -2 2.02 -2 1 C-3.32 1.33 -4.64 1.66 -6 2 C-6 2.99 -6 3.98 -6 5 C-5.34 5 -4.68 5 -4 5 C-4 5.66 -4 6.32 -4 7 C-4.99 7.33 -5.98 7.66 -7 8 C-7.66 7.34 -8.32 6.68 -9 6 C-10.32 6 -11.64 6 -13 6 C-13 5.34 -13 4.68 -13 4 C-12.34 4 -11.68 4 -11 4 C-10.67 3.01 -10.34 2.02 -10 1 C-6.78548731 -0.60725635 -3.56387464 -0.05748185 0 0 Z " fill="#F0B62B" transform="translate(87,34)"/>
<path d="M0 0 C2.97 1.65 5.94 3.3 9 5 C4.87230526 8.09577105 4.63559821 8.23772299 0 8 C-0.99 8.33 -1.98 8.66 -3 9 C-2.67 7.68 -2.34 6.36 -2 5 C-1.34 5 -0.68 5 0 5 C0 3.35 0 1.7 0 0 Z " fill="#FCD22B" transform="translate(120,26)"/>
<path d="M0 0 C0.99 0 1.98 0 3 0 C3 2.66666667 3 5.33333333 3 8 C3.99 8.66 4.98 9.32 6 10 C-0.0546875 10.1953125 -0.0546875 10.1953125 -2 10 C-2.66 9.34 -3.32 8.68 -4 8 C-2.68 5.36 -1.36 2.72 0 0 Z " fill="#C74E0E" transform="translate(101,162)"/>
<path d="M0 0 C1.32 0 2.64 0 4 0 C4 0.66 4 1.32 4 2 C7.465 1.505 7.465 1.505 11 1 C10.01 1.33 9.02 1.66 8 2 C8 2.99 8 3.98 8 5 C6.68 5 5.36 5 4 5 C4 5.99 4 6.98 4 8 C4.99 8.66 5.98 9.32 7 10 C0.25 9.25 0.25 9.25 -2 7 C-1.01 7 -0.02 7 1 7 C1.33 5.02 1.66 3.04 2 1 C1.34 0.67 0.68 0.34 0 0 Z " fill="#EFB740" transform="translate(62,162)"/>
<path d="M0 0 C2.31 0.66 4.62 1.32 7 2 C7.33 3.65 7.66 5.3 8 7 C6.68 7 5.36 7 4 7 C4.33 7.99 4.66 8.98 5 10 C3.68 10 2.36 10 1 10 C1.020625 8.906875 1.04125 7.81375 1.0625 6.6875 C1.18544452 3.05615809 1.18544452 3.05615809 0 0 Z " fill="#F2B305" transform="translate(53,132)"/>
<path d="M0 0 C1.32 0.66 2.64 1.32 4 2 C3.814375 2.928125 3.62875 3.85625 3.4375 4.8125 C2.75876119 8.01343771 2.75876119 8.01343771 4 11 C2.02 10.34 0.04 9.68 -2 9 C-2 6.69 -2 4.38 -2 2 C-1.34 2 -0.68 2 0 2 C0 1.34 0 0.68 0 0 Z " fill="#F9C718" transform="translate(43,133)"/>
<path d="M0 0 C1.62723299 0.45034123 3.25173664 0.91055354 4.875 1.375 C5.77992187 1.63023438 6.68484375 1.88546875 7.6171875 2.1484375 C10 3 10 3 12 5 C12.40047444 7.32275177 12.7397104 9.65739357 13 12 C11.68 11.67 10.36 11.34 9 11 C9.33 9.02 9.66 7.04 10 5 C9.34 5 8.68 5 8 5 C7.67 5.99 7.34 6.98 7 8 C5 7 5 7 4 5 C3.34 5 2.68 5 2 5 C2 4.01 2 3.02 2 2 C1.34 2 0.68 2 0 2 C0 1.34 0 0.68 0 0 Z " fill="#ECA920" transform="translate(73,42)"/>
<path d="M0 0 C0.33 0.99 0.66 1.98 1 3 C0.01 3.66 -0.98 4.32 -2 5 C-2.33 5.99 -2.66 6.98 -3 8 C-3.66 8 -4.32 8 -5 8 C-5 10.31 -5 12.62 -5 15 C-7 13 -7 13 -7.1953125 10.3984375 C-7.17210937 9.40070313 -7.14890625 8.40296875 -7.125 7.375 C-7.10695312 6.37210937 -7.08890625 5.36921875 -7.0703125 4.3359375 C-7.04710937 3.56507812 -7.02390625 2.79421875 -7 2 C-4.69 1.34 -2.38 0.68 0 0 Z " fill="#EBA409" transform="translate(155,115)"/>
<path d="M0 0 C0.33 0.66 0.66 1.32 1 2 C0.67 2.66 0.34 3.32 0 4 C0.66 4.33 1.32 4.66 2 5 C1.01 5.33 0.02 5.66 -1 6 C-0.67 7.98 -0.34 9.96 0 12 C-0.99 12 -1.98 12 -3 12 C-3.433125 10.2984375 -3.433125 10.2984375 -3.875 8.5625 C-4.24625 7.386875 -4.6175 6.21125 -5 5 C-5.66 4.67 -6.32 4.34 -7 4 C-7 3.34 -7 2.68 -7 2 C-4.03 2.495 -4.03 2.495 -1 3 C-0.67 2.01 -0.34 1.02 0 0 Z " fill="#EBA311" transform="translate(161,106)"/>
<path d="M0 0 C0.33 1.32 0.66 2.64 1 4 C2.134375 4.12375 3.26875 4.2475 4.4375 4.375 C5.613125 4.58125 6.78875 4.7875 8 5 C8.33 5.66 8.66 6.32 9 7 C8.01 7.33 7.02 7.66 6 8 C6 7.34 6 6.68 6 6 C4.70414084 6.42492126 3.4133956 6.86545882 2.125 7.3125 C1.40570313 7.55613281 0.68640625 7.79976563 -0.0546875 8.05078125 C-2.33994905 8.96335547 -2.33994905 8.96335547 -4 12 C-4.66 12 -5.32 12 -6 12 C-6 11.34 -6 10.68 -6 10 C-5.34 10 -4.68 10 -4 10 C-3.67 9.01 -3.34 8.02 -3 7 C-2.34 7 -1.68 7 -1 7 C-1.309375 5.824375 -1.309375 5.824375 -1.625 4.625 C-1.74875 3.75875 -1.8725 2.8925 -2 2 C-1.34 1.34 -0.68 0.68 0 0 Z " fill="#DD8209" transform="translate(157,88)"/>
<path d="M0 0 C1.32 0 2.64 0 4 0 C4.33 0.99 4.66 1.98 5 3 C5.99 3 6.98 3 8 3 C8 5.31 8 7.62 8 10 C7.67 9.01 7.34 8.02 7 7 C4.69 7 2.38 7 0 7 C0 4.69 0 2.38 0 0 Z " fill="#E49723" transform="translate(75,145)"/>
<path d="M0 0 C1.65322266 0.01740234 1.65322266 0.01740234 3.33984375 0.03515625 C4.99693359 0.04869141 4.99693359 0.04869141 6.6875 0.0625 C7.54214844 0.07410156 8.39679688 0.08570313 9.27734375 0.09765625 C8.94734375 1.08765625 8.61734375 2.07765625 8.27734375 3.09765625 C6.29734375 3.09765625 4.31734375 3.09765625 2.27734375 3.09765625 C2.27734375 3.75765625 2.27734375 4.41765625 2.27734375 5.09765625 C0.95734375 5.09765625 -0.36265625 5.09765625 -1.72265625 5.09765625 C-2.38265625 3.77765625 -3.04265625 2.45765625 -3.72265625 1.09765625 C-2.72265625 0.09765625 -2.72265625 0.09765625 0 0 Z " fill="#E39213" transform="translate(79.72265625,135.90234375)"/>
<path d="M0 0 C0.66 0 1.32 0 2 0 C2 0.99 2 1.98 2 3 C4.31 3.33 6.62 3.66 9 4 C9 4.66 9 5.32 9 6 C8.34 6 7.68 6 7 6 C7 6.66 7 7.32 7 8 C6.34 8 5.68 8 5 8 C4.67 8.66 4.34 9.32 4 10 C3.34 10 2.68 10 2 10 C1.67 8.68 1.34 7.36 1 6 C0.34 6 -0.32 6 -1 6 C-0.67 4.02 -0.34 2.04 0 0 Z " fill="#EFB423" transform="translate(58,150)"/>
<path d="M0 0 C1.5 1.375 1.5 1.375 3 3 C3 3.66 3 4.32 3 5 C2.01 5.33 1.02 5.66 0 6 C-1.71567661 9.50294871 -1.71567661 9.50294871 -3 13 C-3.66 13 -4.32 13 -5 13 C-4.47731534 10.23723823 -3.89130413 7.6739124 -3 5 C-3 4.01 -3 3.02 -3 2 C-2.01 1.34 -1.02 0.68 0 0 Z " fill="#D77615" transform="translate(77,68)"/>
<path d="M0 0 C0.99 0.33 1.98 0.66 3 1 C3 1.66 3 2.32 3 3 C2.01 3.495 2.01 3.495 1 4 C1 4.99 1 5.98 1 7 C1.66 7 2.32 7 3 7 C3 7.66 3 8.32 3 9 C2.360625 9.12375 1.72125 9.2475 1.0625 9.375 C0.381875 9.58125 -0.29875 9.7875 -1 10 C-1.33 10.66 -1.66 11.32 -2 12 C-2.33 10.68 -2.66 9.36 -3 8 C-2.34 8 -1.68 8 -1 8 C-1 7.01 -1 6.02 -1 5 C-2.32 4.34 -3.64 3.68 -5 3 C-2.6875 1.4375 -2.6875 1.4375 0 0 Z " fill="#F6C223" transform="translate(95,34)"/>
<path d="M0 0 C3 1 3 1 5 4 C4.625 6.1875 4.625 6.1875 4 8 C2.33333333 8 0.66666667 8 -1 8 C-1.625 5.125 -1.625 5.125 -2 2 C-1.34 1.34 -0.68 0.68 0 0 Z " fill="#EDAF2C" transform="translate(152,109)"/>
<path d="M0 0 C0.66 1.98 1.32 3.96 2 6 C0.02 6.99 0.02 6.99 -2 8 C-2 8.66 -2 9.32 -2 10 C-2.66 10 -3.32 10 -4 10 C-4 8.68 -4 7.36 -4 6 C-4.66 6 -5.32 6 -6 6 C-6 5.34 -6 4.68 -6 4 C-5.34 4 -4.68 4 -4 4 C-4 3.01 -4 2.02 -4 1 C-2 0 -2 0 0 0 Z " fill="#E69E2A" transform="translate(152,100)"/>
<path d="M0 0 C0.66 0 1.32 0 2 0 C2.45375 0.969375 2.9075 1.93875 3.375 2.9375 C4.65786221 6.07079582 4.65786221 6.07079582 7 7 C7 9 7 9 5.5 10.625 C5.005 11.07875 4.51 11.5325 4 12 C3.01 11.67 2.02 11.34 1 11 C1.33 10.34 1.66 9.68 2 9 C1.34 8.67 0.68 8.34 0 8 C0.33 6.68 0.66 5.36 1 4 C0.34 3.67 -0.32 3.34 -1 3 C-0.67 2.01 -0.34 1.02 0 0 Z " fill="#BF3B1B" transform="translate(47,83)"/>
<path d="M0 0 C3.3 0 6.6 0 10 0 C10.33 0.99 10.66 1.98 11 3 C7.32589215 4.17571451 3.83070817 4.07366746 0 4 C0 2.68 0 1.36 0 0 Z " fill="#D36A08" transform="translate(84,168)"/>
<path d="M0 0 C-0.875 4.75 -0.875 4.75 -2 7 C-2.99 7 -3.98 7 -5 7 C-5 5.68 -5 4.36 -5 3 C-5.99 3 -6.98 3 -8 3 C-8.33 3.99 -8.66 4.98 -9 6 C-9 4.68 -9 3.36 -9 2 C-5.5647952 -0.29013653 -4.014669 -0.17842973 0 0 Z " fill="#DE8718" transform="translate(88,145)"/>
<path d="M0 0 C1.0625 1.875 1.0625 1.875 2 4 C1.67 4.66 1.34 5.32 1 6 C-2 6 -5 6 -8 6 C-7.67 4.35 -7.34 2.7 -7 1 C-5.5459375 1.0309375 -5.5459375 1.0309375 -4.0625 1.0625 C-1.12534105 1.35618499 -1.12534105 1.35618499 0 0 Z " fill="#D0661A" transform="translate(57,63)"/>
<path d="M0 0 C0.92538169 3.70152678 1.08174162 4.63458162 0 8 C0.66 8 1.32 8 2 8 C2.33 7.01 2.66 6.02 3 5 C3.66 5.33 4.32 5.66 5 6 C5 5.34 5 4.68 5 4 C6.32 4.33 7.64 4.66 9 5 C5.9315153 7.97550031 4.53763669 8.96474513 0.1875 9.25 C-0.864375 9.1675 -1.91625 9.085 -3 9 C-2.01 6.03 -1.02 3.06 0 0 Z " fill="#F5BB07" transform="translate(147,151)"/>
<path d="M0 0 C0.33 0 0.66 0 1 0 C1.33 3.3 1.66 6.6 2 10 C0.02 10.33 -1.96 10.66 -4 11 C-4.33 9.68 -4.66 8.36 -5 7 C-4.34 7 -3.68 7 -3 7 C-3 6.01 -3 5.02 -3 4 C-2.34 4 -1.68 4 -1 4 C-0.67 2.68 -0.34 1.36 0 0 Z " fill="#EFB431" transform="translate(171,101)"/>
<path d="M0 0 C0.99 0.33 1.98 0.66 3 1 C3 1.66 3 2.32 3 3 C3.66 3.33 4.32 3.66 5 4 C-0.625 9 -0.625 9 -4 9 C-4.99 9.33 -5.98 9.66 -7 10 C-7 9.34 -7 8.68 -7 8 C-5.25 6.7109375 -5.25 6.7109375 -3 5.375 C-2.2575 4.92898437 -1.515 4.48296875 -0.75 4.0234375 C-0.1725 3.68570313 0.405 3.34796875 1 3 C0.34 2.34 -0.32 1.68 -1 1 C-0.67 0.67 -0.34 0.34 0 0 Z " fill="#FCD53A" transform="translate(154,153)"/>
<path d="M0 0 C1.04005702 3.38018531 1.08004482 6.4780279 1 10 C1.66 10.33 2.32 10.66 3 11 C2.01 11.66 1.02 12.32 0 13 C-0.33 12.34 -0.66 11.68 -1 11 C-0.67 10.34 -0.34 9.68 0 9 C-1.32 8.34 -2.64 7.68 -4 7 C-3.67 5.02 -3.34 3.04 -3 1 C-2.01 0.67 -1.02 0.34 0 0 Z " fill="#C84F0D" transform="translate(64,76)"/>
<path d="M0 0 C0.66 0.33 1.32 0.66 2 1 C2 1.66 2 2.32 2 3 C0.68 3.33 -0.64 3.66 -2 4 C-2.33 5.65 -2.66 7.3 -3 9 C-5.97 8.505 -5.97 8.505 -9 8 C-7.68 7.01 -6.36 6.02 -5 5 C-5 5.66 -5 6.32 -5 7 C-4.34 7 -3.68 7 -3 7 C-3.99 5.68 -4.98 4.36 -6 3 C-4.03533587 1.93224776 -2.03144641 0.93446535 0 0 Z " fill="#C34510" transform="translate(150,63)"/>
<path d="M0 0 C1.65 0 3.3 0 5 0 C5 0.66 5 1.32 5 2 C7.97 2.495 7.97 2.495 11 3 C11 3.66 11 4.32 11 5 C7.37 5 3.74 5 0 5 C0 3.35 0 1.7 0 0 Z " fill="#E59F3A" transform="translate(73,166)"/>
<path d="M0 0 C0 2.97 0 5.94 0 9 C-1.32 8.34 -2.64 7.68 -4 7 C-3.67 7.33 -3.34 7.66 -3 8 C-4.32 8.33 -5.64 8.66 -7 9 C-6.67 7.68 -6.34 6.36 -6 5 C-4.68 5 -3.36 5 -2 5 C-2 4.01 -2 3.02 -2 2 C-3.65 2.33 -5.3 2.66 -7 3 C-4.74624683 0.74624683 -3.20799182 0 0 0 Z " fill="#F7CA44" transform="translate(84,24)"/>
<path d="M0 0 C0.66 0 1.32 0 2 0 C2 0.66 2 1.32 2 2 C2.99 2.33 3.98 2.66 5 3 C4.34 4.32 3.68 5.64 3 7 C2.34 7 1.68 7 1 7 C0.67 7.66 0.34 8.32 0 9 C-0.66 9 -1.32 9 -2 9 C-1.125 1.125 -1.125 1.125 0 0 Z " fill="#FCCE19" transform="translate(149,150)"/>
<path d="M0 0 C0.66 0 1.32 0 2 0 C2.33 2.64 2.66 5.28 3 8 C0.69 7.67 -1.62 7.34 -4 7 C-4.33 5.68 -4.66 4.36 -5 3 C-2.50907189 1.75453595 -1.58919267 2.2232422 1 3 C0.67 2.01 0.34 1.02 0 0 Z " fill="#F2B508" transform="translate(160,118)"/>
<path d="M0 0 C0 1.32 0 2.64 0 4 C0.99 3.67 1.98 3.34 3 3 C3 3.99 3 4.98 3 6 C1.35 6.66 -0.3 7.32 -2 8 C-2 7.34 -2 6.68 -2 6 C-2.99 5.67 -3.98 5.34 -5 5 C-4.34 5 -3.68 5 -3 5 C-3 4.34 -3 3.68 -3 3 C-3.66 2.67 -4.32 2.34 -5 2 C-2 0 -2 0 0 0 Z " fill="#F2B407" transform="translate(168,115)"/>
<path d="M0 0 C1.34096777 2.68193553 1.01150432 5.08407792 0.96875 8.0234375 C1.00227898 10.14414565 1.32910345 11.98731036 2 14 C1.01 14.495 1.01 14.495 0 15 C-0.99 14.34 -1.98 13.68 -3 13 C-2.45144652 8.428721 -1.58255197 4.32564205 0 0 Z " fill="#F1B328" transform="translate(29,95)"/>
<path d="M0 0 C2.0625 1.6875 2.0625 1.6875 4 4 C3.75 6.75 3.75 6.75 3 9 C1.35 9.33 -0.3 9.66 -2 10 C-1.67 9.01 -1.34 8.02 -1 7 C-0.34 7 0.32 7 1 7 C1 6.34 1 5.68 1 5 C0.34 4.67 -0.32 4.34 -1 4 C-0.67 2.68 -0.34 1.36 0 0 Z " fill="#E49205" transform="translate(153,99)"/>
<path d="M0 0 C1.65 0 3.3 0 5 0 C4.01 0.33 3.02 0.66 2 1 C3.6380249 4.51005335 5.03134491 7.45543849 8 10 C6.02 10.99 6.02 10.99 4 12 C3.731875 11.21625 3.46375 10.4325 3.1875 9.625 C2.15185568 6.71885077 2.15185568 6.71885077 -1 5 C-0.67 3.35 -0.34 1.7 0 0 Z " fill="#FCD22D" transform="translate(107,23)"/>
<path d="M0 0 C0.99 0.33 1.98 0.66 3 1 C2.67 1.33 2.34 1.66 2 2 C3.32 2.33 4.64 2.66 6 3 C5.8125 5.375 5.8125 5.375 5 8 C2.4375 9.3125 2.4375 9.3125 0 10 C0 6.66666667 0 3.33333333 0 0 Z " fill="#CA5815" transform="translate(99,151)"/>
<path d="M0 0 C0.33 0 0.66 0 1 0 C1.66 2.97 2.32 5.94 3 9 C2.01 9.495 2.01 9.495 1 10 C0.01 9.67 -0.98 9.34 -2 9 C-3 6 -3 6 -2 3 C-2.66 2.67 -3.32 2.34 -4 2 C-2.68 2 -1.36 2 0 2 C0 1.34 0 0.68 0 0 Z " fill="#FAC80F" transform="translate(168,128)"/>
<path d="M0 0 C0.33 0.99 0.66 1.98 1 3 C1.66 3 2.32 3 3 3 C3.33 2.01 3.66 1.02 4 0 C4 0.99 4 1.98 4 3 C4.66 3 5.32 3 6 3 C6 3.99 6 4.98 6 6 C4.35 6 2.7 6 1 6 C0.67 6.99 0.34 7.98 0 9 C-0.33 8.67 -0.66 8.34 -1 8 C-0.82364548 5.30917128 -0.38164079 2.67148554 0 0 Z " fill="#D97906" transform="translate(82,157)"/>
<path d="M0 0 C0.33 0 0.66 0 1 0 C1.19448477 2.12437212 1.38038289 4.24953191 1.5625 6.375 C1.66691406 7.55835938 1.77132812 8.74171875 1.87890625 9.9609375 C2 13 2 13 1 15 C0.34 15 -0.32 15 -1 15 C-1 14.01 -1 13.02 -1 12 C-1.66 12 -2.32 12 -3 12 C-3 10.68 -3 9.36 -3 8 C-2.34 7.67 -1.68 7.34 -1 7 C-0.59270772 4.67843403 -0.25561323 2.3431213 0 0 Z " fill="#F7C528" transform="translate(48,139)"/>
<path d="M0 0 C3.465 1.485 3.465 1.485 7 3 C5.515 5.475 5.515 5.475 4 8 C3.67 7.34 3.34 6.68 3 6 C0.98330173 4.86649466 0.98330173 4.86649466 -1 4 C-0.67 2.68 -0.34 1.36 0 0 Z " fill="#F4BC13" transform="translate(50,149)"/>
<path d="M0 0 C3.07692308 5.41538462 3.07692308 5.41538462 2.6875 8.375 C2.460625 8.91125 2.23375 9.4475 2 10 C-1 6.25 -1 6.25 -1 4 C-1.66 4 -2.32 4 -3 4 C-3.33 3.01 -3.66 2.02 -4 1 C-2 0 -2 0 0 0 Z " fill="#D77515" transform="translate(161,79)"/>
<path d="M0 0 C2.50037734 2.17424117 3.43628586 3.73045798 4 7 C1.69 7.33 -0.62 7.66 -3 8 C-3.33 7.34 -3.66 6.68 -4 6 C-3.34 6 -2.68 6 -2 6 C-2 5.01 -2 4.02 -2 3 C-1.34 3 -0.68 3 0 3 C0 2.01 0 1.02 0 0 Z " fill="#C85632" transform="translate(148,57)"/>
<path d="M0 0 C0.99 0.33 1.98 0.66 3 1 C4.125 4.4375 4.125 4.4375 5 8 C5.33 8.66 5.66 9.32 6 10 C4.35 10 2.7 10 1 10 C0.67 6.7 0.34 3.4 0 0 Z " fill="#FACA1D" transform="translate(93,23)"/>
<path d="M0 0 C0.33 0.99 0.66 1.98 1 3 C0.34 3 -0.32 3 -1 3 C-1.433125 3.928125 -1.433125 3.928125 -1.875 4.875 C-3 7 -3 7 -5 9 C-5.66 6.69 -6.32 4.38 -7 2 C-3.98968256 1.06576355 -3.13349732 0.95550089 0 2 C0 1.34 0 0.68 0 0 Z " fill="#FCD22E" transform="translate(164,147)"/>
<path d="M0 0 C3.62528568 -0.20140476 5.86501708 0.14223235 9 2 C8.67 3.32 8.34 4.64 8 6 C7.67 5.34 7.34 4.68 7 4 C4.67843403 3.59270772 2.3431213 3.25561323 0 3 C0 2.01 0 1.02 0 0 Z " fill="#ECA404" transform="translate(60,150)"/>
<path d="M0 0 C0.66 0 1.32 0 2 0 C2 0.66 2 1.32 2 2 C2.66 2.33 3.32 2.66 4 3 C4 3.66 4 4.32 4 5 C3.01 5.495 3.01 5.495 2 6 C2 6.66 2 7.32 2 8 C0.35 8 -1.3 8 -3 8 C-3 7.01 -3 6.02 -3 5 C-2.34 5 -1.68 5 -1 5 C-0.67 3.35 -0.34 1.7 0 0 Z " fill="#F9CD3A" transform="translate(164,125)"/>
<path d="M0 0 C3.35661695 1.67830848 4.32506861 4.70789347 6 8 C5.67 8.66 5.34 9.32 5 10 C0.125 7.375 0.125 7.375 -1 4 C-0.5625 1.8125 -0.5625 1.8125 0 0 Z " fill="#F2B71A" transform="translate(31,110)"/>
<path d="M0 0 C0.99 0.66 1.98 1.32 3 2 C3.99 2 4.98 2 6 2 C6.66 2.33 7.32 2.66 8 3 C7.67 3.99 7.34 4.98 7 6 C6.05125 5.67 5.1025 5.34 4.125 5 C1.22937548 3.89840809 1.22937548 3.89840809 -1 4 C-1.33 4.99 -1.66 5.98 -2 7 C-2.33 6.34 -2.66 5.68 -3 5 C-1.5625 2.375 -1.5625 2.375 0 0 Z " fill="#D67933" transform="translate(49,59)"/>
<path d="M0 0 C1.32 0 2.64 0 4 0 C4 0.99 4 1.98 4 3 C4.66 3 5.32 3 6 3 C6 3.66 6 4.32 6 5 C3.36 5 0.72 5 -2 5 C-2 4.34 -2 3.68 -2 3 C-1.34 3 -0.68 3 0 3 C0 2.01 0 1.02 0 0 Z " fill="#DE8C31" transform="translate(83,163)"/>
<path d="M0 0 C0.66 0 1.32 0 2 0 C3.125 5.75 3.125 5.75 2 8 C2.66 8.33 3.32 8.66 4 9 C4 9.66 4 10.32 4 11 C1.525 10.01 1.525 10.01 -1 9 C-1.08886184 5.80097361 -0.91058531 3.07322544 0 0 Z " fill="#DE871A" transform="translate(61,48)"/>
<path d="M0 0 C2.24366996 1.12183498 4.07335866 2.39446555 6 4 C6 4.66 6 5.32 6 6 C1.25 7.125 1.25 7.125 -1 6 C-1.042721 4.33388095 -1.04063832 2.66617115 -1 1 C-0.67 0.67 -0.34 0.34 0 0 Z " fill="#E8A42C" transform="translate(69,43)"/>
<path d="M0 0 C-0.33 0.66 -0.66 1.32 -1 2 C-1.66 1.67 -2.32 1.34 -3 1 C-3 2.32 -3 3.64 -3 5 C-4.65 4.67 -6.3 4.34 -8 4 C-8 3.34 -8 2.68 -8 2 C-9.32 1.67 -10.64 1.34 -12 1 C-8.0186217 -0.3271261 -4.14954773 -0.06915913 0 0 Z " fill="#FBD545" transform="translate(96,22)"/>
<path d="M0 0 C3 3.75 3 3.75 3 6 C4.32 5.67 5.64 5.34 7 5 C7.33 6.32 7.66 7.64 8 9 C5.36 8.34 2.72 7.68 0 7 C0 4.69 0 2.38 0 0 Z " fill="#DF8B24" transform="translate(158,85)"/>
<path d="M0 0 C0.103125 0.598125 0.20625 1.19625 0.3125 1.8125 C1.08876455 4.28243264 2.07088921 5.32251235 4 7 C0.71023192 8.09658936 -0.71303767 7.79953138 -4 7 C-3.43628586 3.73045798 -2.50037734 2.17424117 0 0 Z " fill="#EDAD2C" transform="translate(68,32)"/>
<path d="M0 0 C0.33 0 0.66 0 1 0 C1 1.65 1 3.3 1 5 C-1.31 5.66 -3.62 6.32 -6 7 C-5.67 5.35 -5.34 3.7 -5 2 C-3.35 2 -1.7 2 0 2 C0 1.34 0 0.68 0 0 Z " fill="#E89A03" transform="translate(72,157)"/>
<path d="M0 0 C2.475 0.99 2.475 0.99 5 2 C5 2.66 5 3.32 5 4 C3.35 4.33 1.7 4.66 0 5 C-0.33 5.99 -0.66 6.98 -1 8 C-1.66 7.67 -2.32 7.34 -3 7 C-2.690625 6.401875 -2.38125 5.80375 -2.0625 5.1875 C-0.89790296 2.91043228 -0.89790296 2.91043228 0 0 Z " fill="#DF8B1B" transform="translate(71,55)"/>
<path d="M0 0 C1.98 0.495 1.98 0.495 4 1 C4 1.66 4 2.32 4 3 C3.34 3 2.68 3 2 3 C2.04125 3.7425 2.0825 4.485 2.125 5.25 C1.99601866 8.08758952 1.42948778 9.58773938 0 12 C-0.76173392 7.6835078 -1.16063604 4.25566547 0 0 Z " fill="#DB811C" transform="translate(56,48)"/>
<path d="M0 0 C-0.99 0.66 -1.98 1.32 -3 2 C-2.835 2.61875 -2.67 3.2375 -2.5 3.875 C-2 6 -2 6 -2 8 C-2.99 8 -3.98 8 -5 8 C-5.33 5.36 -5.66 2.72 -6 0 C-2.25 -1.125 -2.25 -1.125 0 0 Z " fill="#F3BF32" transform="translate(167,115)"/>
<path d="M0 0 C2.23960447 2.87949147 4.29864224 5.76742026 6 9 C5.67 9.66 5.34 10.32 5 11 C4.01 11 3.02 11 2 11 C1.87625 10.360625 1.7525 9.72125 1.625 9.0625 C1.41875 8.381875 1.2125 7.70125 1 7 C0.34 6.67 -0.32 6.34 -1 6 C-0.67 5.34 -0.34 4.68 0 4 C0 2.68 0 1.36 0 0 Z " fill="#D67B42" transform="translate(154,67)"/>
<path d="M0 0 C0.66 0.66 1.32 1.32 2 2 C1.625 4.125 1.625 4.125 1 6 C-0.32 6.33 -1.64 6.66 -3 7 C-3.33 5.68 -3.66 4.36 -4 3 C-2.68 2.67 -1.36 2.34 0 2 C0 1.34 0 0.68 0 0 Z " fill="#CB5D2A" transform="translate(152,64)"/>
<path d="M0 0 C2.64 0 5.28 0 8 0 C8.33 1.65 8.66 3.3 9 5 C8.01 4.67 7.02 4.34 6 4 C6 3.01 6 2.02 6 1 C4.02 1.66 2.04 2.32 0 3 C0 2.01 0 1.02 0 0 Z " fill="#F4C02F" transform="translate(79,34)"/>
<path d="M0 0 C0 0.66 0 1.32 0 2 C-0.99 2.495 -0.99 2.495 -2 3 C-1.67 3.66 -1.34 4.32 -1 5 C-2.65 5 -4.3 5 -6 5 C-6.66 3.68 -7.32 2.36 -8 1 C-5.07175348 0.02391783 -3.04386724 -0.08226668 0 0 Z " fill="#FCCB0E" transform="translate(105,22)"/>
<path d="M0 0 C2.97 0.495 2.97 0.495 6 1 C6 1.66 6 2.32 6 3 C5.01 3.495 5.01 3.495 4 4 C4 4.99 4 5.98 4 7 C2.68 7 1.36 7 0 7 C0 6.01 0 5.02 0 4 C0.66 4 1.32 4 2 4 C2 3.34 2 2.68 2 2 C1.34 2 0.68 2 0 2 C0 1.34 0 0.68 0 0 Z " fill="#F5BF20" transform="translate(52,141)"/>
<path d="M0 0 C1.65 0 3.3 0 5 0 C4.34 2.31 3.68 4.62 3 7 C2.01 6.67 1.02 6.34 0 6 C0 4 0 2 0 0 Z " fill="#DB811D" transform="translate(151,87)"/>
<path d="M0 0 C1.32 0 2.64 0 4 0 C4 2.31 4 4.62 4 7 C2.68 6.67 1.36 6.34 0 6 C0 4.02 0 2.04 0 0 Z " fill="#D26F2D" transform="translate(95,162)"/>
<path d="M0 0 C0 0.99 0 1.98 0 3 C-0.66 3 -1.32 3 -2 3 C-2.33 4.32 -2.66 5.64 -3 7 C-3.99 6.34 -4.98 5.68 -6 5 C-5.6875 3.0625 -5.6875 3.0625 -5 1 C-2 0 -2 0 0 0 Z " fill="#F2B304" transform="translate(94,39)"/>
<path d="M0 0 C1.67542976 0.28604898 3.34385343 0.61781233 5 1 C4.67 2.32 4.34 3.64 4 5 C2.68 5 1.36 5 0 5 C-0.5625 3.0625 -0.5625 3.0625 -1 1 C-0.67 0.67 -0.34 0.34 0 0 Z " fill="#F3B921" transform="translate(56,164)"/>
<path d="M0 0 C0.66 0.33 1.32 0.66 2 1 C2.40729228 3.32156597 2.74438677 5.6568787 3 8 C2.01 8 1.02 8 0 8 C-0.38063221 5.6739143 -0.71269945 3.33944736 -1 1 C-0.67 0.67 -0.34 0.34 0 0 Z " fill="#ECA602" transform="translate(158,110)"/>
<path d="M0 0 C0.33 0.66 0.66 1.32 1 2 C2.65 1.67 4.3 1.34 6 1 C6.33 2.32 6.66 3.64 7 5 C5.35 5 3.7 5 2 5 C2 4.34 2 3.68 2 3 C0.68 2.67 -0.64 2.34 -2 2 C-1.34 1.34 -0.68 0.68 0 0 Z " fill="#E59505" transform="translate(164,98)"/>
<path d="M0 0 C1.32 0 2.64 0 4 0 C4 0.66 4 1.32 4 2 C4.66 2 5.32 2 6 2 C6.33 1.34 6.66 0.68 7 0 C7 1.32 7 2.64 7 4 C5.02 4 3.04 4 1 4 C0.67 2.68 0.34 1.36 0 0 Z " fill="#F8C518" transform="translate(84,24)"/>
<path d="M0 0 C0.99 0 1.98 0 3 0 C3 0.66 3 1.32 3 2 C2.34 2 1.68 2 1 2 C1 2.66 1 3.32 1 4 C2.32 3.67 3.64 3.34 5 3 C5 3.99 5 4.98 5 6 C3.35 6.33 1.7 6.66 0 7 C0 4.69 0 2.38 0 0 Z " fill="#F8C104" transform="translate(34,141)"/>
<path d="M0 0 C0.99 0.33 1.98 0.66 3 1 C3 2.65 3 4.3 3 6 C3.66 6 4.32 6 5 6 C5 6.66 5 7.32 5 8 C2.525 7.01 2.525 7.01 0 6 C0 4.02 0 2.04 0 0 Z " fill="#F9C929" transform="translate(42,136)"/>
<path d="M0 0 C1.32 0.33 2.64 0.66 4 1 C4.625 2.8125 4.625 2.8125 5 5 C4.01 6.485 4.01 6.485 3 8 C2.34 7.67 1.68 7.34 1 7 C0.59270772 4.67843403 0.25561323 2.3431213 0 0 Z " fill="#CF620B" transform="translate(64,71)"/>
<path d="M0 0 C1.32 0 2.64 0 4 0 C4 0.66 4 1.32 4 2 C4.66 2 5.32 2 6 2 C6 2.66 6 3.32 6 4 C6.66 4 7.32 4 8 4 C8 4.66 8 5.32 8 6 C6.02 5.34 4.04 4.68 2 4 C2 3.01 2 2.02 2 1 C1.34 0.67 0.68 0.34 0 0 Z " fill="#F6C012" transform="translate(94,37)"/>
<path d="M0 0 C1.32 0 2.64 0 4 0 C4 0.66 4 1.32 4 2 C3.34 2 2.68 2 2 2 C2 3.98 2 5.96 2 8 C1.34 8 0.68 8 0 8 C0 5.36 0 2.72 0 0 Z " fill="#C95414" transform="translate(103,141)"/>
<path d="M0 0 C0.66 0.33 1.32 0.66 2 1 C1.67 2.65 1.34 4.3 1 6 C0.01 6 -0.98 6 -2 6 C-2.33 4.68 -2.66 3.36 -3 2 C-2.01 1.34 -1.02 0.68 0 0 Z " fill="#C95619" transform="translate(60,77)"/>
<path d="M0 0 C0.99 0 1.98 0 3 0 C2.67 2.31 2.34 4.62 2 7 C1.34 7 0.68 7 0 7 C0 4.69 0 2.38 0 0 Z " fill="#CB5D25" transform="translate(101,162)"/>
<path d="M0 0 C0.33 0.66 0.66 1.32 1 2 C1.66 2.33 2.32 2.66 3 3 C3 4.32 3 5.64 3 7 C2.34 7 1.68 7 1 7 C-2 3.53846154 -2 3.53846154 -2 1 C-1.34 0.67 -0.68 0.34 0 0 Z " fill="#FCCB0B" transform="translate(156,149)"/>
<path d="M0 0 C1.65 0.33 3.3 0.66 5 1 C5 1.66 5 2.32 5 3 C3.68 3 2.36 3 1 3 C0.67 3.99 0.34 4.98 0 6 C-1.125 2.25 -1.125 2.25 0 0 Z " fill="#FBCC1C" transform="translate(40,127)"/>
<path d="M0 0 C1.98 1.65 3.96 3.3 6 5 C5.01 5.33 4.02 5.66 3 6 C0.8125 4.5625 0.8125 4.5625 -1 3 C-0.67 2.01 -0.34 1.02 0 0 Z " fill="#F5B903" transform="translate(39,122)"/>
<path d="M0 0 C0.66 1.32 1.32 2.64 2 4 C0.35 5.65 -1.3 7.3 -3 9 C-3 5.30581799 -1.71820705 3.22163822 0 0 Z " fill="#C85847" transform="translate(37,80)"/>
<path d="M0 0 C0.66 0 1.32 0 2 0 C2.66 1.98 3.32 3.96 4 6 C2.68 6 1.36 6 0 6 C-1.125 2.25 -1.125 2.25 0 0 Z " fill="#C34938" transform="translate(143,49)"/>
<path d="M0 0 C0.66 0.33 1.32 0.66 2 1 C1.67 2.98 1.34 4.96 1 7 C0.01 6.67 -0.98 6.34 -2 6 C-2.6875 3.9375 -2.6875 3.9375 -3 2 C-2.01 2 -1.02 2 0 2 C0 1.34 0 0.68 0 0 Z " fill="#EEAB08" transform="translate(76,32)"/>
<path d="M0 0 C1.32 0.66 2.64 1.32 4 2 C2.03533587 3.06775224 0.03144641 4.06553465 -2 5 C-2.66 4.67 -3.32 4.34 -4 4 C-2.68 2.68 -1.36 1.36 0 0 Z " fill="#FDD437" transform="translate(142,165)"/>
<path d="M0 0 C2.64 0 5.28 0 8 0 C7.67 0.99 7.34 1.98 7 3 C5.68 3 4.36 3 3 3 C3 2.34 3 1.68 3 1 C2.01 1.33 1.02 1.66 0 2 C0 1.34 0 0.68 0 0 Z " fill="#EAA215" transform="translate(65,156)"/>
<path d="M0 0 C1.98 0 3.96 0 6 0 C5.67 0.99 5.34 1.98 5 3 C3.35 3 1.7 3 0 3 C0 2.01 0 1.02 0 0 Z " fill="#DD8413" transform="translate(83,136)"/>
<path d="M0 0 C1.65 1.65 3.3 3.3 5 5 C2.03 4.67 -0.94 4.34 -4 4 C-2.68 3.67 -1.36 3.34 0 3 C0 2.01 0 1.02 0 0 Z " fill="#C2442E" transform="translate(58,129)"/>
<path d="M0 0 C0.66 0.33 1.32 0.66 2 1 C2 1.99 2 2.98 2 4 C1.34 4 0.68 4 0 4 C0 4.66 0 5.32 0 6 C-0.99 5.67 -1.98 5.34 -3 5 C-2.01 3.35 -1.02 1.7 0 0 Z " fill="#E79E1A" transform="translate(77,48)"/>
</svg>
