<svg xmlns="http://www.w3.org/2000/svg" width="256" height="256" fill="none" xmlns:v="https://vecta.io/nano"><path d="M128 256c70.692 0 128-57.308 128-128S198.692 0 128 0 0 57.308 0 128s57.308 128 128 128z" fill="#1f2925"/><path d="M40.461 187.459c1.157 3.469 4.11 6.513 7.878 7.198l4.11.343h8.915 13.016c3.562 0 6.052-2.971 6.851-4.456l18.497-39.764 52.741 41.478c3.426 2.742 4.453 2.742 8.231 2.742h47.612c5.471-1.028 9.42-8.882 6.919-14.16L156.933 58.57C154.356 53.398 146.305 50 142.889 50H109.32c-4.462 0-10.285 6.17-11.989 10.284l-19.182 40.792c-1.037 5.141 2.731 7.812 6.841 7.884 6.508.114 21.853.274 28.43 0 5.823-.243 7.774-2.971 8.573-4.456l6.851-15.083 35.623 77.813c-15.423-11.998-38.031-28.794-45.566-34.279-5.499-4.002-10.121-6.822-13.017-6.856-9.933-.114-29.654-.274-34.586 0-4.659 0-8.563 5.256-9.934 7.884l-18.839 42.164c-3.083 6.513-2.75 9.255-2.065 11.312z" fill="#d7fe51"/></svg>