<?xml version="1.0" encoding="UTF-8"?>
<svg version="1.1" xmlns="http://www.w3.org/2000/svg" width="200" height="200">
<path d="M0 0 C2.82045877 2.30263418 5.56336058 4.67903285 8.27832031 7.10449219 C11.1535235 9.666713 11.1535235 9.666713 14.50878906 11.77246094 C17.18066406 13.58496094 17.18066406 13.58496094 17.86816406 15.77246094 C18.02285156 16.66964844 18.02285156 16.66964844 18.18066406 17.58496094 C19.17066406 17.91496094 20.16066406 18.24496094 21.18066406 18.58496094 C21.51066406 19.57496094 21.84066406 20.56496094 22.18066406 21.58496094 C22.78394531 22.1740625 23.38722656 22.76316406 24.00878906 23.37011719 C26.61161449 26.02443736 28.16331475 28.75588582 29.93066406 32.02246094 C30.85105469 33.69115234 30.85105469 33.69115234 31.79003906 35.39355469 C33.13514811 38.48050439 33.50200878 40.27881822 33.18066406 43.58496094 C33.84066406 43.58496094 34.50066406 43.58496094 35.18066406 43.58496094 C39.64424539 56.0781479 40.85665551 67.12735329 40.55566406 80.33496094 C40.53909422 82.04587815 40.52476266 83.75681854 40.51269531 85.46777344 C40.3702832 98.68935945 40.3702832 98.68935945 39.18066406 103.58496094 C38.52066406 103.58496094 37.86066406 103.58496094 37.18066406 103.58496094 C37.18066406 105.89496094 37.18066406 108.20496094 37.18066406 110.58496094 C36.52066406 110.58496094 35.86066406 110.58496094 35.18066406 110.58496094 C34.52066406 113.88496094 33.86066406 117.18496094 33.18066406 120.58496094 C32.52066406 120.58496094 31.86066406 120.58496094 31.18066406 120.58496094 C31.10589844 121.42542969 31.03113281 122.26589844 30.95410156 123.13183594 C30.00301116 127.37811833 28.20111083 130.25695184 25.80566406 133.83496094 C25.40605469 134.45886719 25.00644531 135.08277344 24.59472656 135.72558594 C22.64505024 138.70140769 21.175244 140.58857431 18.18066406 142.58496094 C17.87128906 143.24496094 17.56191406 143.90496094 17.24316406 144.58496094 C16.18066406 146.58496094 16.18066406 146.58496094 14.29394531 147.52246094 C12.05773456 148.64676653 10.95666201 149.72870379 9.30566406 151.58496094 C-7.5531495 168.76523493 -31.7922615 178.47350042 -55.67724609 178.87768555 C-83.14890277 179.03784131 -105.50892955 171.73865683 -126.31811523 153.40429688 C-129.3378039 150.75277047 -132.36813316 148.62599484 -135.81933594 146.58496094 C-136.52084746 145.26962683 -137.18459519 143.93378502 -137.81933594 142.58496094 C-139.08777344 141.37839844 -139.08777344 141.37839844 -140.38183594 140.14746094 C-142.93144067 137.46710724 -143.50996572 136.19428011 -143.81933594 132.58496094 C-144.80933594 132.25496094 -145.79933594 131.92496094 -146.81933594 131.58496094 C-150.62798259 125.57828936 -153.21756631 119.65575401 -153.81933594 112.58496094 C-154.47933594 111.59496094 -155.13933594 110.60496094 -155.81933594 109.58496094 C-156.19144014 108.26192377 -156.52563767 106.92758159 -156.81933594 105.58496094 C-157.14933594 104.59496094 -157.47933594 103.60496094 -157.81933594 102.58496094 C-158.14933594 102.58496094 -158.47933594 102.58496094 -158.81933594 102.58496094 C-158.87027326 96.32278946 -158.90516878 90.06067193 -158.92919922 83.79833984 C-158.93922299 81.67038984 -158.95284555 79.5424535 -158.97021484 77.41455078 C-158.99462286 74.34631976 -159.00585555 71.27827173 -159.01464844 68.20996094 C-159.02497101 67.26693115 -159.03529358 66.32390137 -159.04592896 65.35229492 C-159.04686971 59.74541582 -158.41278806 54.96630789 -156.81933594 49.58496094 C-156.15933594 49.58496094 -155.49933594 49.58496094 -154.81933594 49.58496094 C-154.69816406 48.88628906 -154.57699219 48.18761719 -154.45214844 47.46777344 C-154.28457031 46.55769531 -154.11699219 45.64761719 -153.94433594 44.70996094 C-153.78191406 43.80503906 -153.61949219 42.90011719 -153.45214844 41.96777344 C-152.81933594 39.58496094 -152.81933594 39.58496094 -150.81933594 37.58496094 C-149.71378412 35.63398714 -148.89319267 33.94732054 -148.44433594 31.74511719 C-147.67559861 29.08816878 -146.42875814 27.18569548 -144.88183594 24.89746094 C-144.3571875 24.10984375 -143.83253906 23.32222656 -143.29199219 22.51074219 C-141.81933594 20.58496094 -141.81933594 20.58496094 -139.81933594 19.58496094 C-139.48933594 18.59496094 -139.15933594 17.60496094 -138.81933594 16.58496094 C-138.25988281 16.318125 -137.70042969 16.05128906 -137.12402344 15.77636719 C-133.75454168 14.03451645 -131.50732154 11.25605376 -128.94433594 8.52246094 C-95.59880991 -25.77011212 -37.69548479 -29.31871039 0 0 Z M34.18066406 46.58496094 C35.18066406 48.58496094 35.18066406 48.58496094 35.18066406 48.58496094 Z M35.18066406 49.58496094 C36.18066406 51.58496094 36.18066406 51.58496094 36.18066406 51.58496094 Z M36.18066406 52.58496094 C37.18066406 55.58496094 37.18066406 55.58496094 37.18066406 55.58496094 Z M-156.81933594 53.58496094 C-155.81933594 56.58496094 -155.81933594 56.58496094 -155.81933594 56.58496094 Z M37.18066406 56.58496094 C38.18066406 59.58496094 38.18066406 59.58496094 38.18066406 59.58496094 Z M-157.81933594 57.58496094 C-156.81933594 61.58496094 -156.81933594 61.58496094 -156.81933594 61.58496094 Z M38.18066406 60.58496094 C38.18066406 62.23496094 38.18066406 63.88496094 38.18066406 65.58496094 C38.51066406 65.58496094 38.84066406 65.58496094 39.18066406 65.58496094 C39.18066406 63.93496094 39.18066406 62.28496094 39.18066406 60.58496094 C38.85066406 60.58496094 38.52066406 60.58496094 38.18066406 60.58496094 Z M38.18066406 93.58496094 C38.18066406 95.23496094 38.18066406 96.88496094 38.18066406 98.58496094 C38.51066406 98.58496094 38.84066406 98.58496094 39.18066406 98.58496094 C39.18066406 96.93496094 39.18066406 95.28496094 39.18066406 93.58496094 C38.85066406 93.58496094 38.52066406 93.58496094 38.18066406 93.58496094 Z " fill="#FDFDFD" transform="translate(158.8193359375,19.4150390625)"/>
<path d="M0 0 C1.23556641 0.01740234 1.23556641 0.01740234 2.49609375 0.03515625 C3.32238281 0.04417969 4.14867187 0.05320312 5 0.0625 C5.63808594 0.07410156 6.27617187 0.08570312 6.93359375 0.09765625 C6.93359375 0.75765625 6.93359375 1.41765625 6.93359375 2.09765625 C7.69671875 2.30390625 8.45984375 2.51015625 9.24609375 2.72265625 C11.93359375 4.09765625 11.93359375 4.09765625 13.80859375 6.59765625 C15.29499339 11.2220107 15.46605924 15.44868643 13.93359375 20.09765625 C9.82644262 25.65691729 4.07233907 27.32504096 -2.19140625 29.59765625 C-4.17434516 30.33410206 -6.15612265 31.07368271 -8.13671875 31.81640625 C-9.12188477 32.18580322 -10.10705078 32.5552002 -11.12207031 32.93579102 C-14.02800154 34.08250135 -16.85094605 35.33988143 -19.68359375 36.65625 C-24.71679114 38.98848744 -29.81363975 40.887671 -35.06640625 42.66015625 C-36.8035869 43.25592325 -38.54056766 43.85227342 -40.27734375 44.44921875 C-41.09944336 44.73055664 -41.92154297 45.01189453 -42.76855469 45.30175781 C-46.59228754 46.62617017 -50.38168007 48.04142667 -54.16796875 49.46875 C-56.06640625 50.09765625 -56.06640625 50.09765625 -58.06640625 50.09765625 C-58.06640625 50.75765625 -58.06640625 51.41765625 -58.06640625 52.09765625 C-58.76765625 52.2678125 -59.46890625 52.43796875 -60.19140625 52.61328125 C-61.14015625 52.855625 -62.08890625 53.09796875 -63.06640625 53.34765625 C-64.45859375 53.69570312 -64.45859375 53.69570312 -65.87890625 54.05078125 C-69.12141873 55.11572407 -71.93370693 56.50783377 -74.95605469 58.06787109 C-78.43150139 59.76377972 -82.04120752 61.02137341 -85.69140625 62.28515625 C-86.41585937 62.54490234 -87.1403125 62.80464844 -87.88671875 63.07226562 C-91.93204035 64.49032673 -95.79500672 65.53846672 -100.06640625 66.09765625 C-100.06640625 66.75765625 -100.06640625 67.41765625 -100.06640625 68.09765625 C-103.03640625 68.09765625 -106.00640625 68.09765625 -109.06640625 68.09765625 C-109.06640625 67.43765625 -109.06640625 66.77765625 -109.06640625 66.09765625 C-109.82953125 65.89140625 -110.59265625 65.68515625 -111.37890625 65.47265625 C-114.06640625 64.09765625 -114.06640625 64.09765625 -115.94140625 61.59765625 C-117.42780589 56.9733018 -117.59887174 52.74662607 -116.06640625 48.09765625 C-111.95925512 42.53839521 -106.20515157 40.87027154 -99.94140625 38.59765625 C-97.95846734 37.86121044 -95.97668985 37.12162979 -93.99609375 36.37890625 C-92.50662231 35.82046021 -92.50662231 35.82046021 -90.98706055 35.25073242 C-88.21142069 34.15490804 -85.52751096 32.95017997 -82.828125 31.6796875 C-76.40588412 28.7036114 -69.77471507 26.35858498 -63.10180664 24.02075195 C-60.97382544 23.27460889 -58.84911035 22.5196606 -56.72460938 21.76367188 C-46.34756859 18.09765625 -46.34756859 18.09765625 -44.06640625 18.09765625 C-44.06640625 17.43765625 -44.06640625 16.77765625 -44.06640625 16.09765625 C-42.349375 15.54464844 -42.349375 15.54464844 -40.59765625 14.98046875 C-33.92724098 12.75612573 -27.35246627 10.27013228 -20.77050781 7.79931641 C-18.54480902 6.96455609 -16.31738165 6.13452586 -14.08984375 5.3046875 C-12.67567475 4.77502384 -11.26160835 4.24508614 -9.84765625 3.71484375 C-8.84780701 3.3429744 -8.84780701 3.3429744 -7.82775879 2.96359253 C-5.13899176 1.95019073 -2.72821511 0.12893266 0 0 Z " fill="#090909" transform="translate(151.06640625,65.90234375)"/>
<path d="M0 0 C3.00685978 1.79132072 4.52657334 3.24682123 6.375 6.1875 C7.28723156 10.29254201 6.74596572 13.89718856 6 18 C5.835 18.94875 5.67 19.8975 5.5 20.875 C3.40615037 23.84128698 1.25246129 24.21381347 -2.171875 25.19140625 C-5.50049746 26.14309803 -8.7386525 27.27626263 -12 28.4375 C-13.11375 28.82808594 -14.2275 29.21867187 -15.375 29.62109375 C-18.00563032 30.62175377 -20.51109986 31.67025552 -23.0625 32.83984375 C-29.24191351 35.62385282 -35.6190887 37.85188466 -42 40.125 C-43.21945313 40.56714844 -44.43890625 41.00929687 -45.6953125 41.46484375 C-50.86696678 43.31345883 -55.92383649 45.08618102 -61.3125 46.1796875 C-62.529375 46.45039063 -63.74625 46.72109375 -65 47 C-65.495 47.99 -65.495 47.99 -66 49 C-66.99 48.67 -67.98 48.34 -69 48 C-69 48.66 -69 49.32 -69 50 C-73.10487198 51.53755186 -77.21259694 53.06715415 -81.32299805 54.58984375 C-82.71733832 55.10758977 -84.11091377 55.62740086 -85.50366211 56.14941406 C-92.91958623 58.9273921 -100.1833698 61.5630558 -108 63 C-108 63.66 -108 64.32 -108 65 C-112.9604067 64.53518883 -115.53577322 63.20935811 -119.3125 60 C-120.17488281 59.278125 -121.03726563 58.55625 -121.92578125 57.8125 C-122.97163244 56.8986112 -124.01791104 55.98208896 -125 55 C-125.01953125 52.890625 -125.01953125 52.890625 -124.8125 50.25 C-124.75707031 49.38890625 -124.70164063 48.5278125 -124.64453125 47.640625 C-123.80979471 44.22073468 -122.39237819 42.57245239 -120 40 C-117.39379883 38.66967773 -117.39379883 38.66967773 -114.45703125 37.68359375 C-112.84538086 37.12575195 -112.84538086 37.12575195 -111.20117188 36.55664062 C-110.08291016 36.18732422 -108.96464844 35.81800781 -107.8125 35.4375 C-105.6095828 34.68941258 -103.40773793 33.93815925 -101.20703125 33.18359375 C-100.13348389 32.81572754 -99.05993652 32.44786133 -97.95385742 32.06884766 C-95.49538049 31.17925248 -93.15639485 30.21541903 -90.7890625 29.11328125 C-84.34121739 26.1454355 -77.59715824 23.91620944 -70.90454102 21.57128906 C-68.54193125 20.74278711 -66.18201364 19.90692603 -63.82226562 19.0703125 C-62.32046587 18.54123112 -60.81851809 18.01256967 -59.31640625 17.484375 C-58.61125381 17.23443787 -57.90610138 16.98450073 -57.17958069 16.72698975 C-52.23037877 15 -52.23037877 15 -50 15 C-50 14.34 -50 13.68 -50 13 C-48.78699219 12.59910156 -47.57398437 12.19820312 -46.32421875 11.78515625 C-40.13533842 9.72219614 -33.97497344 7.57778115 -27.8125 5.4375 C-25.5274564 4.64420668 -23.24230377 3.85122736 -20.95703125 3.05859375 C-19.95647705 2.71111084 -18.95592285 2.36362793 -17.92504883 2.00561523 C-16.95978271 1.67376221 -15.9945166 1.34190918 -15 1 C-13.40430176 0.44493774 -13.40430176 0.44493774 -11.77636719 -0.12133789 C-7.63793629 -1.43106466 -4.1690827 -1.06150076 0 0 Z " fill="#090909" transform="translate(159,119)"/>
<path d="M0 0 C2.3515625 1.390625 2.3515625 1.390625 4.625 3.25 C5.38039063 3.85328125 6.13578125 4.4565625 6.9140625 5.078125 C8.97203381 6.9742334 10.58562032 8.58319589 12 11 C12.07421875 13.359375 12.07421875 13.359375 11.6875 15.75 C11.56761719 16.54921875 11.44773438 17.3484375 11.32421875 18.171875 C11.16373047 19.07679687 11.16373047 19.07679687 11 20 C10.34 20 9.68 20 9 20 C9.33 21.32 9.66 22.64 10 24 C5.70412742 25.63462437 1.40066386 27.22212238 -2.9453125 28.71875 C-3.79480469 29.01136719 -4.64429688 29.30398437 -5.51953125 29.60546875 C-7.26350078 30.20422291 -9.00830227 30.80055902 -10.75390625 31.39453125 C-15.35969831 32.98587797 -19.67485899 34.72847556 -24 37 C-25.98636298 37.70626239 -27.98848259 38.36893571 -30 39 C-37.83151126 41.53330598 -45.54607332 44.3671242 -53.26757812 47.21484375 C-54.20666016 47.55902344 -55.14574219 47.90320312 -56.11328125 48.2578125 C-56.95673096 48.5686377 -57.80018066 48.87946289 -58.66918945 49.19970703 C-61 50 -61 50 -63.24291992 50.48388672 C-63.82275635 50.6542041 -64.40259277 50.82452148 -65 51 C-65.495 51.99 -65.495 51.99 -66 53 C-67.55629639 53.4727989 -69.11722238 53.93255728 -70.69091797 54.34375 C-75.73720521 55.77792426 -80.63614849 57.70390446 -85.5625 59.5 C-87.77190412 60.30272024 -89.98153248 61.10482361 -92.19140625 61.90625 C-93.16279541 62.26009766 -94.13418457 62.61394531 -95.13500977 62.97851562 C-102.18944742 65.49370669 -107.71214783 67.35750076 -114.875 64.1640625 C-117.42689461 62.43417241 -118.82406979 60.59637358 -119.69140625 57.65625 C-120.45191835 52.34067067 -120.28800101 48.45471105 -117 44 C-112.47300782 40.56057351 -108.0174513 38.73688655 -102.6875 37 C-98.21641877 35.51913233 -93.85219092 33.98078999 -89.5625 32.02734375 C-84.90465394 29.90991238 -80.15273569 28.21192344 -75.3125 26.5625 C-73.55971359 25.95886224 -71.80711042 25.35469218 -70.0546875 24.75 C-68.77416504 24.30914062 -68.77416504 24.30914062 -67.46777344 23.859375 C-65.20296997 23.07068206 -62.94747548 22.26148796 -60.6953125 21.4375 C-60.05424561 21.20345459 -59.41317871 20.96940918 -58.75268555 20.72827148 C-57.0515003 20.10431289 -55.35186418 19.47613527 -53.65234375 18.84765625 C-51 18 -51 18 -48 18 C-47.67 17.34 -47.34 16.68 -47 16 C-45.515 16.495 -45.515 16.495 -44 17 C-44 16.34 -44 15.68 -44 15 C-43.13834229 14.68772461 -42.27668457 14.37544922 -41.38891602 14.05371094 C-38.15066722 12.87838039 -34.91350408 11.70014724 -31.67700195 10.52001953 C-30.28386273 10.0126923 -28.89031705 9.50647962 -27.49633789 9.00146484 C-25.47690745 8.26962963 -23.4587471 7.53444991 -21.44140625 6.796875 C-20.78709625 6.55787476 -20.13278625 6.31887451 -19.45864868 6.07263184 C-15.84286236 4.73518166 -12.32783755 3.28084269 -8.83984375 1.640625 C-5.74474966 0.23532446 -3.44277715 -0.70063535 0 0 Z " fill="#090909" transform="translate(154,16)"/>
<path d="M0 0 C0.86625 0.2475 1.7325 0.495 2.625 0.75 C5 2 5 2 6.3125 4.625 C6.6528125 5.800625 6.6528125 5.800625 7 7 C7.66 7 8.32 7 9 7 C9.60700029 12.94860288 9.18871354 16.74658467 5.58203125 21.58984375 C2.24759585 24.56201951 -1.52616056 25.25023454 -5.87866211 25.29052734 C-6.8199144 25.30328705 -7.76116669 25.31604675 -8.73094177 25.32919312 C-9.73625443 25.33141876 -10.74156708 25.33364441 -11.77734375 25.3359375 C-13.34350182 25.3459227 -13.34350182 25.3459227 -14.94129944 25.35610962 C-17.14598838 25.36621933 -19.35070782 25.37092716 -21.55541992 25.37060547 C-24.922226 25.37498015 -28.28772242 25.41132295 -31.65429688 25.44921875 C-33.7994747 25.45508698 -35.94465873 25.45905633 -38.08984375 25.4609375 C-39.09313217 25.47530853 -40.09642059 25.48967957 -41.13011169 25.50448608 C-47.07224618 25.46577016 -50.4282074 24.88758857 -55 21 C-51.88635015 17.56503984 -48.45604211 15.29253099 -44.4375 13.0625 C-43.50442017 12.54091309 -43.50442017 12.54091309 -42.55249023 12.00878906 C-12.5089521 -4.58661577 -12.5089521 -4.58661577 0 0 Z " fill="#080808" transform="translate(92,1)"/>
<path d="M0 0 C1.45170593 -0.01429802 1.45170593 -0.01429802 2.93273926 -0.02888489 C3.97136108 -0.02797348 5.00998291 -0.02706207 6.08007812 -0.02612305 C7.15253784 -0.03040817 8.22499756 -0.0346933 9.32995605 -0.03910828 C11.59610285 -0.04484804 13.86226806 -0.04535445 16.12841797 -0.04101562 C19.5983005 -0.03785367 23.06733212 -0.06132692 26.53710938 -0.08666992 C28.73893121 -0.08894271 30.94075535 -0.08964651 33.14257812 -0.08862305 C34.18119995 -0.09783279 35.21982178 -0.10704254 36.28991699 -0.11653137 C37.25772095 -0.11030258 38.2255249 -0.10407379 39.22265625 -0.09765625 C40.07218872 -0.09828568 40.92172119 -0.0989151 41.79699707 -0.0995636 C44.59675294 0.35315024 45.99709546 1.43209171 48.11132812 3.2746582 C31.94148999 16.40610342 12.96572576 23.57130584 -7.88867188 24.2746582 C-8.21867187 23.2846582 -8.54867187 22.2946582 -8.88867188 21.2746582 C-9.87867187 20.9446582 -10.86867188 20.6146582 -11.88867188 20.2746582 C-11.88867188 19.6146582 -11.88867188 18.9546582 -11.88867188 18.2746582 C-12.54867187 18.2746582 -13.20867187 18.2746582 -13.88867188 18.2746582 C-14.50026996 12.28099701 -14.07591243 8.51911115 -10.37304688 3.68481445 C-7.22010964 0.68952408 -4.26866861 0.02315088 0 0 Z " fill="#090909" transform="translate(112.888671875,173.725341796875)"/>
<path d="M0 0 C8.58 0 17.16 0 26 0 C26 0.33 26 0.66 26 1 C17.42 1 8.84 1 0 1 C0 0.67 0 0.34 0 0 Z " fill="#EEEEEE" transform="translate(86,199)"/>
<path d="M0 0 C0.33 0 0.66 0 1 0 C1 8.58 1 17.16 1 26 C0.67 26 0.34 26 0 26 C0 17.42 0 8.84 0 0 Z " fill="#FFFFFF" transform="translate(199,86)"/>
<path d="M0 0 C2.64 0 5.28 0 8 0 C7 2 7 2 4.71484375 2.8515625 C3.79832031 3.10679687 2.88179688 3.36203125 1.9375 3.625 C0.55884766 4.01558594 0.55884766 4.01558594 -0.84765625 4.4140625 C-1.55792969 4.60742188 -2.26820312 4.80078125 -3 5 C-3 4.34 -3 3.68 -3 3 C-2.34 3 -1.68 3 -1 3 C-0.67 2.01 -0.34 1.02 0 0 Z " fill="#343434" transform="translate(115,155)"/>
<path d="M0 0 C-1.97420135 2.52259061 -2.96745642 2.9929808 -6.1875 3.6875 C-7.5796875 3.8421875 -7.5796875 3.8421875 -9 4 C-9 3.34 -9 2.68 -9 2 C-3.375 -1.125 -3.375 -1.125 0 0 Z " fill="#4A4A4A" transform="translate(164,140)"/>
<path d="M0 0 C0.66 0.33 1.32 0.66 2 1 C-0.31 3.31 -2.62 5.62 -5 8 C-5 5 -5 5 -2.5 2.3125 C-1.675 1.549375 -0.85 0.78625 0 0 Z " fill="#FFFFFF" transform="translate(30,25)"/>
<path d="M0 0 C1.98 0 3.96 0 6 0 C6 0.33 6 0.66 6 1 C4.02 1 2.04 1 0 1 C0 0.67 0 0.34 0 0 Z " fill="#0B0B0B" transform="translate(112,198)"/>
<path d="M0 0 C1.98 0 3.96 0 6 0 C6 0.33 6 0.66 6 1 C4.02 1 2.04 1 0 1 C0 0.67 0 0.34 0 0 Z " fill="#FFFFFF" transform="translate(80,198)"/>
<path d="M0 0 C1.65 0 3.3 0 5 0 C5 0.33 5 0.66 5 1 C3.35 1 1.7 1 0 1 C0 0.67 0 0.34 0 0 Z " fill="#000000" transform="translate(118,197)"/>
<path d="M0 0 C1.65 0 3.3 0 5 0 C5 0.33 5 0.66 5 1 C3.35 1 1.7 1 0 1 C0 0.67 0 0.34 0 0 Z " fill="#FFFFFF" transform="translate(75,197)"/>
<path d="M0 0 C1.65 0 3.3 0 5 0 C5 0.33 5 0.66 5 1 C3.35 1 1.7 1 0 1 C0 0.67 0 0.34 0 0 Z " fill="#FFFFFF" transform="translate(117,0)"/>
<path d="M0 0 C1.65 0 3.3 0 5 0 C5 0.33 5 0.66 5 1 C3.35 1 1.7 1 0 1 C0 0.67 0 0.34 0 0 Z " fill="#3F3F3F" transform="translate(76,0)"/>
<path d="M0 0 C4 1 4 1 4 1 Z " fill="#010101" transform="translate(123,196)"/>
<path d="M0 0 C4 1 4 1 4 1 Z " fill="#FFFFFF" transform="translate(68,195)"/>
<path d="M0 0 C4 1 4 1 4 1 Z " fill="#000000" transform="translate(69,2)"/>
<path d="M0 0 C4 1 4 1 4 1 Z " fill="#FFFFFF" transform="translate(122,1)"/>
<path d="M0 0 C3 1 3 1 3 1 Z " fill="#FFFFFF" transform="translate(72,196)"/>
<path d="M0 0 C3 1 3 1 3 1 Z " fill="#000000" transform="translate(127,195)"/>
<path d="M0 0 C3 1 3 1 3 1 Z " fill="#000000" transform="translate(130,194)"/>
<path d="M0 0 C3 1 3 1 3 1 Z " fill="#FFFFFF" transform="translate(65,194)"/>
<path d="M0 0 C3 1 3 1 3 1 Z " fill="#000000" transform="translate(135,192)"/>
<path d="M0 0 C3 1 3 1 3 1 Z " fill="#FFFFFF" transform="translate(60,192)"/>
<path d="" fill="#FFFFFF" transform="translate(0,0)"/>
<path d="" fill="#FFFFFF" transform="translate(0,0)"/>
<path d="" fill="#FFFFFF" transform="translate(0,0)"/>
<path d="" fill="#FFFFFF" transform="translate(0,0)"/>
<path d="" fill="#FFFFFF" transform="translate(0,0)"/>
<path d="" fill="#FFFFFF" transform="translate(0,0)"/>
<path d="M0 0 C3 1 3 1 3 1 Z " fill="#FFFFFF" transform="translate(137,6)"/>
<path d="M0 0 C3 1 3 1 3 1 Z " fill="#FFFFFF" transform="translate(132,4)"/>
<path d="M0 0 C3 1 3 1 3 1 Z " fill="#010101" transform="translate(63,4)"/>
<path d="M0 0 C3 1 3 1 3 1 Z " fill="#FFFFFF" transform="translate(129,3)"/>
<path d="M0 0 C3 1 3 1 3 1 Z " fill="#000000" transform="translate(66,3)"/>
<path d="M0 0 C3 1 3 1 3 1 Z " fill="#FFFFFF" transform="translate(126,2)"/>
<path d="M0 0 C3 1 3 1 3 1 Z " fill="#0A0A0A" transform="translate(73,1)"/>
<path d="M0 0 C2 1 2 1 2 1 Z " fill="#000000" transform="translate(133,193)"/>
<path d="M0 0 C2 1 2 1 2 1 Z " fill="#FFFFFF" transform="translate(63,193)"/>
<path d="M0 0 C2 1 2 1 2 1 Z " fill="#000000" transform="translate(138,191)"/>
<path d="M0 0 C2 1 2 1 2 1 Z " fill="#FFFFFF" transform="translate(58,191)"/>
<path d="M0 0 C2 1 2 1 2 1 Z " fill="#000000" transform="translate(140,190)"/>
<path d="M0 0 C2 1 2 1 2 1 Z " fill="#FFFFFF" transform="translate(56,190)"/>
<path d="M0 0 C2 1 2 1 2 1 Z " fill="#000000" transform="translate(142,189)"/>
<path d="M0 0 C2 1 2 1 2 1 Z " fill="#FFFFFF" transform="translate(54,189)"/>
<path d="M0 0 C2 1 2 1 2 1 Z " fill="#000000" transform="translate(144,188)"/>
<path d="M0 0 C2 1 2 1 2 1 Z " fill="#FFFFFF" transform="translate(52,188)"/>
<path d="M0 0 C2 1 2 1 2 1 Z " fill="#000000" transform="translate(146,187)"/>
<path d="M0 0 C2 1 2 1 2 1 Z " fill="#FFFFFF" transform="translate(50,187)"/>
<path d="M0 0 C2 1 2 1 2 1 Z " fill="#000000" transform="translate(148,186)"/>
<path d="M0 0 C2 1 2 1 2 1 Z " fill="#FFFFFF" transform="translate(47,185)"/>
<path d="M0 0 C2 1 2 1 2 1 Z " fill="#000000" transform="translate(151,184)"/>
<path d="M0 0 C2 1 2 1 2 1 Z " fill="#FFFFFF" transform="translate(45,184)"/>
<path d="M0 0 C2 1 2 1 2 1 Z " fill="#000000" transform="translate(154,182)"/>
<path d="M0 0 C2 1 2 1 2 1 Z " fill="#656565" transform="translate(42,182)"/>
<path d="M0 0 C2 1 2 1 2 1 Z " fill="#000000" transform="translate(157,180)"/>
<path d="M0 0 C2 1 2 1 2 1 Z " fill="#262626" transform="translate(38,179)"/>
<path d="M0 0 C2 1 2 1 2 1 Z " fill="#7F7F7F" transform="translate(162,176)"/>
<path d="M0 0 C2 1 2 1 2 1 Z " fill="#FFFFFF" transform="translate(32,174)"/>
<path d="" fill="#FFFFFF" transform="translate(0,0)"/>
<path d="" fill="#FFFFFF" transform="translate(0,0)"/>
<path d="" fill="#FFFFFF" transform="translate(0,0)"/>
<path d="" fill="#FFFFFF" transform="translate(0,0)"/>
<path d="" fill="#FFFFFF" transform="translate(0,0)"/>
<path d="" fill="#FFFFFF" transform="translate(0,0)"/>
<path d="" fill="#FFFFFF" transform="translate(0,0)"/>
<path d="" fill="#FFFFFF" transform="translate(0,0)"/>
<path d="M0 0 C2 1 2 1 2 1 Z " fill="#BBBBBB" transform="translate(164,23)"/>
<path d="M0 0 C2 1 2 1 2 1 Z " fill="#101010" transform="translate(37,19)"/>
<path d="M0 0 C2 1 2 1 2 1 Z " fill="#4E4E4E" transform="translate(158,18)"/>
<path d="M0 0 C2 1 2 1 2 1 Z " fill="#000000" transform="translate(155,16)"/>
<path d="M0 0 C2 1 2 1 2 1 Z " fill="#010101" transform="translate(41,16)"/>
<path d="M0 0 C2 1 2 1 2 1 Z " fill="#FFFFFF" transform="translate(152,14)"/>
<path d="M0 0 C2 1 2 1 2 1 Z " fill="#000000" transform="translate(44,14)"/>
<path d="M0 0 C2 1 2 1 2 1 Z " fill="#FFFFFF" transform="translate(149,12)"/>
<path d="M0 0 C2 1 2 1 2 1 Z " fill="#000000" transform="translate(47,12)"/>
<path d="M0 0 C2 1 2 1 2 1 Z " fill="#FFFFFF" transform="translate(147,11)"/>
<path d="M0 0 C2 1 2 1 2 1 Z " fill="#000000" transform="translate(49,11)"/>
<path d="M0 0 C2 1 2 1 2 1 Z " fill="#000000" transform="translate(51,10)"/>
<path d="M0 0 C2 1 2 1 2 1 Z " fill="#FFFFFF" transform="translate(144,9)"/>
<path d="M0 0 C2 1 2 1 2 1 Z " fill="#000000" transform="translate(53,9)"/>
<path d="M0 0 C2 1 2 1 2 1 Z " fill="#FFFFFF" transform="translate(142,8)"/>
<path d="M0 0 C2 1 2 1 2 1 Z " fill="#000000" transform="translate(55,8)"/>
<path d="M0 0 C2 1 2 1 2 1 Z " fill="#FFFFFF" transform="translate(140,7)"/>
<path d="M0 0 C2 1 2 1 2 1 Z " fill="#000000" transform="translate(57,7)"/>
<path d="M0 0 C2 1 2 1 2 1 Z " fill="#000000" transform="translate(59,6)"/>
<path d="M0 0 C2 1 2 1 2 1 Z " fill="#FFFFFF" transform="translate(135,5)"/>
<path d="M0 0 C2 1 2 1 2 1 Z " fill="#000000" transform="translate(61,5)"/>
<path d="" fill="#FFFFFF" transform="translate(0,0)"/>
<path d="" fill="#000000" transform="translate(0,0)"/>
<path d="" fill="#000000" transform="translate(0,0)"/>
<path d="" fill="#000000" transform="translate(0,0)"/>
<path d="" fill="#000000" transform="translate(0,0)"/>
<path d="" fill="#474747" transform="translate(0,0)"/>
<path d="" fill="#242424" transform="translate(0,0)"/>
<path d="" fill="#000000" transform="translate(0,0)"/>
<path d="" fill="#000000" transform="translate(0,0)"/>
<path d="" fill="#3F3F3F" transform="translate(0,0)"/>
<path d="" fill="#000000" transform="translate(0,0)"/>
<path d="" fill="#252525" transform="translate(0,0)"/>
<path d="" fill="#848484" transform="translate(0,0)"/>
<path d="" fill="#FFFFFF" transform="translate(0,0)"/>
<path d="" fill="#FFFFFF" transform="translate(0,0)"/>
<path d="" fill="#FFFFFF" transform="translate(0,0)"/>
<path d="" fill="#FFFFFF" transform="translate(0,0)"/>
<path d="" fill="#FFFFFF" transform="translate(0,0)"/>
<path d="" fill="#FFFFFF" transform="translate(0,0)"/>
<path d="" fill="#FFFFFF" transform="translate(0,0)"/>
<path d="" fill="#FFFFFF" transform="translate(0,0)"/>
<path d="" fill="#FFFFFF" transform="translate(0,0)"/>
<path d="" fill="#FFFFFF" transform="translate(0,0)"/>
<path d="" fill="#FFFFFF" transform="translate(0,0)"/>
<path d="" fill="#FFFFFF" transform="translate(0,0)"/>
<path d="" fill="#FFFFFF" transform="translate(0,0)"/>
<path d="" fill="#FFFFFF" transform="translate(0,0)"/>
<path d="" fill="#FFFFFF" transform="translate(0,0)"/>
<path d="" fill="#FFFFFF" transform="translate(0,0)"/>
<path d="" fill="#FFFFFF" transform="translate(0,0)"/>
<path d="" fill="#FFFFFF" transform="translate(0,0)"/>
<path d="" fill="#FFFFFF" transform="translate(0,0)"/>
<path d="" fill="#FFFFFF" transform="translate(0,0)"/>
<path d="" fill="#FFFFFF" transform="translate(0,0)"/>
<path d="" fill="#FFFFFF" transform="translate(0,0)"/>
<path d="" fill="#FFFFFF" transform="translate(0,0)"/>
<path d="" fill="#FFFFFF" transform="translate(0,0)"/>
<path d="" fill="#FFFFFF" transform="translate(0,0)"/>
<path d="" fill="#FFFFFF" transform="translate(0,0)"/>
<path d="" fill="#FFFFFF" transform="translate(0,0)"/>
<path d="" fill="#FFFFFF" transform="translate(0,0)"/>
<path d="" fill="#FFFFFF" transform="translate(0,0)"/>
<path d="" fill="#FFFFFF" transform="translate(0,0)"/>
<path d="" fill="#FFFFFF" transform="translate(0,0)"/>
<path d="" fill="#FFFFFF" transform="translate(0,0)"/>
<path d="" fill="#FFFFFF" transform="translate(0,0)"/>
<path d="" fill="#FFFFFF" transform="translate(0,0)"/>
<path d="" fill="#FFFFFF" transform="translate(0,0)"/>
<path d="" fill="#FFFFFF" transform="translate(0,0)"/>
<path d="" fill="#1F1F1F" transform="translate(0,0)"/>
<path d="" fill="#FFFFFF" transform="translate(0,0)"/>
<path d="" fill="#404040" transform="translate(0,0)"/>
<path d="" fill="#FFFFFF" transform="translate(0,0)"/>
<path d="" fill="#474747" transform="translate(0,0)"/>
<path d="" fill="#616161" transform="translate(0,0)"/>
<path d="" fill="#484848" transform="translate(0,0)"/>
<path d="" fill="#000000" transform="translate(0,0)"/>
<path d="" fill="#757575" transform="translate(0,0)"/>
<path d="" fill="#000000" transform="translate(0,0)"/>
<path d="" fill="#FFFFFF" transform="translate(0,0)"/>
<path d="" fill="#000000" transform="translate(0,0)"/>
<path d="" fill="#FFFFFF" transform="translate(0,0)"/>
<path d="" fill="#000000" transform="translate(0,0)"/>
<path d="" fill="#FFFFFF" transform="translate(0,0)"/>
</svg>
