<svg fill="none" xmlns="http://www.w3.org/2000/svg" viewBox="0 0 256 256"><g clip-path="url(#a)"><path d="M128 256a128 128 0 1 0 0-256 128 128 0 0 0 0 256Z" fill="#000"/><path d="M156 139a5 5 0 0 1 4 10l-63 24a5 5 0 0 1-4-9v-1l63-24ZM156 111a5 5 0 0 1 4 10l-63 24a5 5 0 0 1-4-9l63-25ZM156 83a5 5 0 0 1 4 10l-63 24a5 5 0 0 1-4-9l63-25ZM160 170a5 5 0 0 1 1 11h-29a5 5 0 0 1-1-11h29ZM124 75a5 5 0 0 1 0 11H95a5 5 0 0 1 0-11h29Z" fill="#fff" stroke="#000" stroke-width=".4"/></g><defs><clipPath id="a"><path fill="#fff" d="M0 0h256v256H0z"/></clipPath></defs></svg>