<?xml version="1.0" encoding="UTF-8"?>
<svg version="1.1" xmlns="http://www.w3.org/2000/svg" width="200" height="200">
<path d="M0 0 C2.82045877 2.30263418 5.56336058 4.67903285 8.27832031 7.10449219 C11.1535235 9.666713 11.1535235 9.666713 14.50878906 11.77246094 C17.18066406 13.58496094 17.18066406 13.58496094 17.86816406 15.77246094 C18.02285156 16.66964844 18.02285156 16.66964844 18.18066406 17.58496094 C19.17066406 17.91496094 20.16066406 18.24496094 21.18066406 18.58496094 C21.51066406 19.57496094 21.84066406 20.56496094 22.18066406 21.58496094 C22.78394531 22.1740625 23.38722656 22.76316406 24.00878906 23.37011719 C26.61161449 26.02443736 28.16331475 28.75588582 29.93066406 32.02246094 C30.85105469 33.69115234 30.85105469 33.69115234 31.79003906 35.39355469 C33.13514811 38.48050439 33.50200878 40.27881822 33.18066406 43.58496094 C33.84066406 43.58496094 34.50066406 43.58496094 35.18066406 43.58496094 C39.64424539 56.0781479 40.85665551 67.12735329 40.55566406 80.33496094 C40.53909422 82.04587815 40.52476266 83.75681854 40.51269531 85.46777344 C40.3702832 98.68935945 40.3702832 98.68935945 39.18066406 103.58496094 C38.52066406 103.58496094 37.86066406 103.58496094 37.18066406 103.58496094 C37.18066406 105.89496094 37.18066406 108.20496094 37.18066406 110.58496094 C36.52066406 110.58496094 35.86066406 110.58496094 35.18066406 110.58496094 C34.52066406 113.88496094 33.86066406 117.18496094 33.18066406 120.58496094 C32.52066406 120.58496094 31.86066406 120.58496094 31.18066406 120.58496094 C31.10589844 121.42542969 31.03113281 122.26589844 30.95410156 123.13183594 C30.00301116 127.37811833 28.20111083 130.25695184 25.80566406 133.83496094 C25.40605469 134.45886719 25.00644531 135.08277344 24.59472656 135.72558594 C22.64505024 138.70140769 21.175244 140.58857431 18.18066406 142.58496094 C17.87128906 143.24496094 17.56191406 143.90496094 17.24316406 144.58496094 C16.18066406 146.58496094 16.18066406 146.58496094 14.29394531 147.52246094 C12.05773456 148.64676653 10.95666201 149.72870379 9.30566406 151.58496094 C-7.5531495 168.76523493 -31.7922615 178.47350042 -55.67724609 178.87768555 C-83.14890277 179.03784131 -105.50892955 171.73865683 -126.31811523 153.40429688 C-129.3378039 150.75277047 -132.36813316 148.62599484 -135.81933594 146.58496094 C-136.52084746 145.26962683 -137.18459519 143.93378502 -137.81933594 142.58496094 C-139.08777344 141.37839844 -139.08777344 141.37839844 -140.38183594 140.14746094 C-142.93144067 137.46710724 -143.50996572 136.19428011 -143.81933594 132.58496094 C-144.80933594 132.25496094 -145.79933594 131.92496094 -146.81933594 131.58496094 C-150.62798259 125.57828936 -153.21756631 119.65575401 -153.81933594 112.58496094 C-154.47933594 111.59496094 -155.13933594 110.60496094 -155.81933594 109.58496094 C-156.19144014 108.26192377 -156.52563767 106.92758159 -156.81933594 105.58496094 C-157.14933594 104.59496094 -157.47933594 103.60496094 -157.81933594 102.58496094 C-158.14933594 102.58496094 -158.47933594 102.58496094 -158.81933594 102.58496094 C-158.87027326 96.32278946 -158.90516878 90.06067193 -158.92919922 83.79833984 C-158.93922299 81.67038984 -158.95284555 79.5424535 -158.97021484 77.41455078 C-158.99462286 74.34631976 -159.00585555 71.27827173 -159.01464844 68.20996094 C-159.02497101 67.26693115 -159.03529358 66.32390137 -159.04592896 65.35229492 C-159.04686971 59.74541582 -158.41278806 54.96630789 -156.81933594 49.58496094 C-156.15933594 49.58496094 -155.49933594 49.58496094 -154.81933594 49.58496094 C-154.69816406 48.88628906 -154.57699219 48.18761719 -154.45214844 47.46777344 C-154.28457031 46.55769531 -154.11699219 45.64761719 -153.94433594 44.70996094 C-153.78191406 43.80503906 -153.61949219 42.90011719 -153.45214844 41.96777344 C-152.81933594 39.58496094 -152.81933594 39.58496094 -150.81933594 37.58496094 C-149.71378412 35.63398714 -148.89319267 33.94732054 -148.44433594 31.74511719 C-147.67559861 29.08816878 -146.42875814 27.18569548 -144.88183594 24.89746094 C-144.3571875 24.10984375 -143.83253906 23.32222656 -143.29199219 22.51074219 C-141.81933594 20.58496094 -141.81933594 20.58496094 -139.81933594 19.58496094 C-139.48933594 18.59496094 -139.15933594 17.60496094 -138.81933594 16.58496094 C-138.25988281 16.318125 -137.70042969 16.05128906 -137.12402344 15.77636719 C-133.75454168 14.03451645 -131.50732154 11.25605376 -128.94433594 8.52246094 C-95.59880991 -25.77011212 -37.69548479 -29.31871039 0 0 Z M34.18066406 46.58496094 C35.18066406 48.58496094 35.18066406 48.58496094 35.18066406 48.58496094 Z M35.18066406 49.58496094 C36.18066406 51.58496094 36.18066406 51.58496094 36.18066406 51.58496094 Z M36.18066406 52.58496094 C37.18066406 55.58496094 37.18066406 55.58496094 37.18066406 55.58496094 Z M-156.81933594 53.58496094 C-155.81933594 56.58496094 -155.81933594 56.58496094 -155.81933594 56.58496094 Z M37.18066406 56.58496094 C38.18066406 59.58496094 38.18066406 59.58496094 38.18066406 59.58496094 Z M-157.81933594 57.58496094 C-156.81933594 61.58496094 -156.81933594 61.58496094 -156.81933594 61.58496094 Z M38.18066406 60.58496094 C38.18066406 62.23496094 38.18066406 63.88496094 38.18066406 65.58496094 C38.51066406 65.58496094 38.84066406 65.58496094 39.18066406 65.58496094 C39.18066406 63.93496094 39.18066406 62.28496094 39.18066406 60.58496094 C38.85066406 60.58496094 38.52066406 60.58496094 38.18066406 60.58496094 Z M38.18066406 93.58496094 C38.18066406 95.23496094 38.18066406 96.88496094 38.18066406 98.58496094 C38.51066406 98.58496094 38.84066406 98.58496094 39.18066406 98.58496094 C39.18066406 96.93496094 39.18066406 95.28496094 39.18066406 93.58496094 C38.85066406 93.58496094 38.52066406 93.58496094 38.18066406 93.58496094 Z " fill="#D300D1" transform="translate(158.8193359375,19.4150390625)"/>
<path d="M0 0 C18.83525281 8.51342298 33.98131781 31.67038756 44 49 C44.78375 48.175 45.5675 47.35 46.375 46.5 C49 44 49 44 51 44 C51.33 42.68 51.66 41.36 52 40 C52.66 40 53.32 40 54 40 C52.70891809 43.39002721 51.24218459 46.52160831 49.453125 49.67578125 C48.94450928 50.57490234 48.43589355 51.47402344 47.91186523 52.40039062 C47.36344971 53.36138672 46.81503418 54.32238281 46.25 55.3125 C45.681604 56.31345703 45.11320801 57.31441406 44.52758789 58.34570312 C39.08909261 67.89738975 33.5529816 77.39183877 27.99609375 86.875 C27.48030762 87.75929688 26.96452148 88.64359375 26.43310547 89.5546875 C25.53544182 91.08637389 24.62948639 92.61326391 23.71142578 94.1328125 C21.50445892 97.79914961 21.50445892 97.79914961 21 102 C27.86905917 103.18135191 35.29374836 104.34584503 42 102 C46.90276395 97.4538662 49.41484602 91.00783895 51.75585938 84.85766602 C53 83 53 83 55.63476562 82.23413086 C56.41529297 82.15686768 57.19582031 82.07960449 58 82 C60.01048951 85.43146714 62.00655245 88.87110912 64 92.3125 C64.57234375 93.28896484 65.1446875 94.26542969 65.734375 95.27148438 C66.27578125 96.20927734 66.8171875 97.14707031 67.375 98.11328125 C67.87773438 98.97735596 68.38046875 99.84143066 68.8984375 100.73168945 C70 103 70 103 70 106 C69.28980713 105.95174072 68.57961426 105.90348145 67.84790039 105.85375977 C54.8648185 104.62534499 54.8648185 104.62534499 42.94873047 108.43896484 C38.25904163 113.76439608 36.37163504 120.14182481 35 127 C57.77 127 80.54 127 104 127 C104 127.66 104 128.32 104 129 C90.14 129 76.28 129 62 129 C69.75552918 137.86346192 77.15592401 144.10303494 89 146 C104.08760425 146.95915143 116.19334594 145.08494584 128.21484375 135.48046875 C134.77400459 129.63885987 140.86543955 123.28140134 147 117 C147.66 117.66 148.32 118.32 149 119 C148.625 121.625 148.625 121.625 148 124 C147.34 124 146.68 124 146 124 C145.92523438 124.84046875 145.85046875 125.6809375 145.7734375 126.546875 C144.8223471 130.79315739 143.02044677 133.6719909 140.625 137.25 C140.22539062 137.87390625 139.82578125 138.4978125 139.4140625 139.140625 C137.46438618 142.11644676 135.99457994 144.00361337 133 146 C132.690625 146.66 132.38125 147.32 132.0625 148 C131 150 131 150 129.11328125 150.9375 C126.8770705 152.06180559 125.77599795 153.14374285 124.125 155 C107.26618643 172.18027399 83.02707444 181.88853949 59.14208984 182.29272461 C31.67043317 182.45288037 9.31040638 175.1536959 -11.4987793 156.81933594 C-14.51846797 154.16780953 -17.54879722 152.0410339 -21 150 C-21.70151152 148.6846659 -22.36525925 147.34882408 -23 146 C-24.2684375 144.7934375 -24.2684375 144.7934375 -25.5625 143.5625 C-28.11210474 140.8821463 -28.69062979 139.60931917 -29 136 C-29.99 135.67 -30.98 135.34 -32 135 C-35.80864665 128.99332842 -38.39823038 123.07079307 -39 116 C-39.66 115.01 -40.32 114.02 -41 113 C-41.3721042 111.67696283 -41.70630173 110.34262065 -42 109 C-42.33 108.01 -42.66 107.02 -43 106 C-43.33 106 -43.66 106 -44 106 C-44.05093732 99.73782852 -44.08583284 93.47571099 -44.10986328 87.21337891 C-44.11988705 85.08542891 -44.13350961 82.95749256 -44.15087891 80.82958984 C-44.17528692 77.76135882 -44.18651961 74.6933108 -44.1953125 71.625 C-44.20563507 70.68197021 -44.21595764 69.73894043 -44.22659302 68.76733398 C-44.22753377 63.16045488 -43.59345212 58.38134696 -42 53 C-41.34 53 -40.68 53 -40 53 C-39.87882812 52.30132812 -39.75765625 51.60265625 -39.6328125 50.8828125 C-39.46523438 49.97273438 -39.29765625 49.06265625 -39.125 48.125 C-38.96257813 47.22007813 -38.80015625 46.31515625 -38.6328125 45.3828125 C-38 43 -38 43 -36 41 C-34.89444818 39.0490262 -34.07385673 37.3623596 -33.625 35.16015625 C-32.85626267 32.50320785 -31.6094222 30.60073455 -30.0625 28.3125 C-29.53785156 27.52488281 -29.01320313 26.73726562 -28.47265625 25.92578125 C-27 24 -27 24 -25 23 C-24.67 22.01 -24.34 21.02 -24 20 C-23.17435547 19.60748047 -23.17435547 19.60748047 -22.33203125 19.20703125 C-18.1746783 17.0552355 -15.24702268 13.32102139 -12.04101562 9.96289062 C-8.29572201 6.11147299 -4.45474079 3.00934961 0 0 Z M-42 57 C-41 60 -41 60 -41 60 Z M-43 61 C-42 65 -42 65 -42 65 Z " fill="#7F1BC5" transform="translate(44,16)"/>
<path d="M0 0 C3.01717554 2.9615594 5.36825444 6.06414569 7.73046875 9.55859375 C8.20532715 10.25976318 8.68018555 10.96093262 9.16943359 11.68334961 C20.03777316 28.07603768 28.11935235 46.14670796 33.921875 64.92578125 C37.20125521 74.88345378 42.84642569 83.96082238 48.16796875 92.93359375 C49.39537597 95.01903431 50.62192067 97.10498273 51.84765625 99.19140625 C52.46092773 100.23458008 53.07419922 101.27775391 53.70605469 102.35253906 C57.1238105 108.2014258 60.46806749 114.09227132 63.81103516 119.98413086 C64.27429199 120.79889893 64.73754883 121.61366699 65.21484375 122.453125 C65.61799805 123.1644458 66.02115234 123.8757666 66.43652344 124.60864258 C67.41275801 126.27397124 68.47218852 127.8899234 69.54296875 129.49609375 C73.83660632 130.43859956 76.45193543 129.21853764 80.04296875 126.99609375 C84.58612483 123.74989876 87.40292986 120.04429441 90.54296875 115.49609375 C95.22986864 109.3871003 100.18278914 103.57044699 105.375 97.88671875 C107.92712335 95.07248543 110.39208931 92.19031935 112.83984375 89.28515625 C114.90413012 87.11670864 117.19471996 85.34853726 119.54296875 83.49609375 C119.71122188 87.81916919 119.87171062 92.14244367 120.02514648 96.46606445 C120.07837324 97.93554351 120.13368624 99.40494859 120.19116211 100.87426758 C120.27361588 102.99153701 120.34845586 105.10896283 120.421875 107.2265625 C120.46900635 108.49910889 120.5161377 109.77165527 120.56469727 111.08276367 C120.54567744 114.07058616 120.25956044 116.60801207 119.54296875 119.49609375 C118.88296875 119.49609375 118.22296875 119.49609375 117.54296875 119.49609375 C117.54296875 121.80609375 117.54296875 124.11609375 117.54296875 126.49609375 C116.88296875 126.49609375 116.22296875 126.49609375 115.54296875 126.49609375 C115.21296875 127.48609375 114.88296875 128.47609375 114.54296875 129.49609375 C113.15234375 130.86328125 113.15234375 130.86328125 111.29296875 132.37109375 C107.93391543 135.19945283 104.84525295 138.18462365 101.78857422 141.32910156 C91.42984945 151.97331483 82.00778338 158.88837677 66.7109375 159.69921875 C52.33522967 159.8685107 41.04211135 157.00683509 30.41796875 146.74609375 C27.54296875 143.80484951 27.54296875 143.80484951 27.54296875 141.49609375 C41.40296875 141.49609375 55.26296875 141.49609375 69.54296875 141.49609375 C69.54296875 140.83609375 69.54296875 140.17609375 69.54296875 139.49609375 C46.77296875 139.49609375 24.00296875 139.49609375 0.54296875 139.49609375 C1.40553056 133.45816106 2.36103453 130.42737202 5.54296875 125.62109375 C5.91164062 125.04101562 6.2803125 124.4609375 6.66015625 123.86328125 C9.30118709 119.73787541 9.30118709 119.73787541 10.54296875 118.49609375 C12.39666486 118.4087173 14.25364416 118.38911222 16.109375 118.3984375 C17.23408203 118.40166016 18.35878906 118.40488281 19.51757812 118.40820312 C20.70158203 118.41658203 21.88558594 118.42496094 23.10546875 118.43359375 C24.29333984 118.43810547 25.48121094 118.44261719 26.70507812 118.44726562 C29.65109101 118.459097 32.59700556 118.47558088 35.54296875 118.49609375 C30.94410395 108.91871328 30.94410395 108.91871328 25.60546875 99.74609375 C23.54296875 96.49609375 23.54296875 96.49609375 23.54296875 94.49609375 C20.84587603 94.84489612 19.805633 95.16199509 18.0949707 97.33789062 C17.66144287 98.12228516 17.22791504 98.90667969 16.78125 99.71484375 C16.30236328 100.56433594 15.82347656 101.41382812 15.33007812 102.2890625 C14.84345703 103.18238281 14.35683594 104.07570313 13.85546875 104.99609375 C12.87335159 106.7570438 11.89032704 108.5174882 10.90625 110.27734375 C10.47610596 111.06173828 10.04596191 111.84613281 9.6027832 112.65429688 C8.54296875 114.49609375 8.54296875 114.49609375 7.54296875 115.49609375 C5.9812413 115.58294978 4.41567531 115.60311594 2.8515625 115.59375 C1.90732422 115.59052734 0.96308594 115.58730469 -0.00976562 115.58398438 C-1.00298828 115.57560547 -1.99621094 115.56722656 -3.01953125 115.55859375 C-4.01662109 115.55408203 -5.01371094 115.54957031 -6.04101562 115.54492188 C-8.51307974 115.53309382 -10.98502643 115.51661224 -13.45703125 115.49609375 C-14.39773181 112.98039169 -14.59638456 111.85104206 -13.59936523 109.31152344 C-12.90822632 108.12671387 -12.90822632 108.12671387 -12.203125 106.91796875 C-11.68508301 106.01602783 -11.16704102 105.11408691 -10.63330078 104.18481445 C-10.05950684 103.21503662 -9.48571289 102.24525879 -8.89453125 101.24609375 C-8.3104248 100.23699951 -7.72631836 99.22790527 -7.12451172 98.18823242 C-5.24685926 94.95066807 -3.35225021 91.72340013 -1.45703125 88.49609375 C-0.20980924 86.35221848 1.03629762 84.20769404 2.28125 82.0625 C5.13121081 77.15744231 7.99334048 72.25968437 10.86230469 67.36572266 C13.7628334 62.41325105 16.65260256 57.45450119 19.54296875 52.49609375 C18.88296875 52.49609375 18.22296875 52.49609375 17.54296875 52.49609375 C17.46175781 53.0890625 17.38054687 53.68203125 17.296875 54.29296875 C16.31178641 57.17167324 14.95089368 58.02071761 12.48046875 59.74609375 C11.38025391 60.52726562 11.38025391 60.52726562 10.2578125 61.32421875 C9.69191406 61.7109375 9.12601563 62.09765625 8.54296875 62.49609375 C8.15367188 61.78066406 7.764375 61.06523438 7.36328125 60.328125 C2.7591216 52.12762866 -2.54407599 44.78430457 -8.45703125 37.49609375 C-8.90626953 36.93712402 -9.35550781 36.3781543 -9.81835938 35.80224609 C-16.87989219 27.05568891 -24.34681026 19.17830595 -33.45703125 12.49609375 C-25.19226877 6.98625209 -16.31044548 2.72157049 -6.95703125 -0.62890625 C-5.8278125 -1.03496094 -5.8278125 -1.03496094 -4.67578125 -1.44921875 C-2.45703125 -1.50390625 -2.45703125 -1.50390625 0 0 Z M118.54296875 109.49609375 C118.54296875 111.14609375 118.54296875 112.79609375 118.54296875 114.49609375 C118.87296875 114.49609375 119.20296875 114.49609375 119.54296875 114.49609375 C119.54296875 112.84609375 119.54296875 111.19609375 119.54296875 109.49609375 C119.21296875 109.49609375 118.88296875 109.49609375 118.54296875 109.49609375 Z " fill="#921DCB" transform="translate(78.45703125,3.50390625)"/>
<path d="M0 0 C2.4296875 1.69140625 2.4296875 1.69140625 4.5 3.4375 C5.12132812 3.92089844 5.74265625 4.40429688 6.3828125 4.90234375 C14.5811341 12.12642534 19.80533381 23.10119078 25 32.5625 C35.25099509 51.13269171 49.46231201 67.25834886 70.5 73.4375 C73.19348172 73.95159031 75.75879936 74.2344481 78.5 74.4375 C73.29843244 79.63906756 61.63805822 77.74788099 54.73681641 77.75219727 C30.26698036 77.46585173 9.28964934 68.37023119 -8.9987793 52.25683594 C-12.01846797 49.60530953 -15.04879722 47.4785339 -18.5 45.4375 C-19.20151152 44.1221659 -19.86525925 42.78632408 -20.5 41.4375 C-21.345625 40.633125 -22.19125 39.82875 -23.0625 39 C-25.61210474 36.3196463 -26.19062979 35.04681917 -26.5 31.4375 C-27.49 31.1075 -28.48 30.7775 -29.5 30.4375 C-33.30864665 24.43082842 -35.89823038 18.50829307 -36.5 11.4375 C-37.16 10.4475 -37.82 9.4575 -38.5 8.4375 C-39.40058319 6.11099343 -39.5816807 4.82256614 -39.0625 2.375 C-31.83506816 -6.58701548 -9.03459543 -4.71260626 0 0 Z " fill="#2A0E8C" transform="translate(41.5,120.5625)"/>
<path d="M0 0 C2.72403307 0.34032136 3.75013434 0.68503949 5.48535156 2.87231445 C5.9490918 3.6943335 6.41283203 4.51635254 6.890625 5.36328125 C7.426875 6.29849609 7.963125 7.23371094 8.515625 8.19726562 C9.37414062 9.73930664 9.37414062 9.73930664 10.25 11.3125 C10.8584375 12.38048828 11.466875 13.44847656 12.09375 14.54882812 C13.39939086 16.84298772 14.70032405 19.13915693 15.99414062 21.43994141 C17.97578885 24.96213407 19.97720865 28.47276842 21.984375 31.98046875 C22.31506485 32.55847229 22.6457547 33.13647583 22.98646545 33.73199463 C23.65598421 34.90218467 24.32554498 36.07235068 24.99514771 37.24249268 C26.00068607 39.00119995 27.00440325 40.76093419 28.00756836 42.52099609 C38.38984716 61.28549032 38.38984716 61.28549032 49.67456055 79.48461914 C51 82 51 82 51 87 C27.9 87 4.8 87 -19 87 C-18.13743819 80.96206731 -17.18193422 77.93127827 -14 73.125 C-13.44699219 72.25488281 -13.44699219 72.25488281 -12.8828125 71.3671875 C-10.24178166 67.24178166 -10.24178166 67.24178166 -9 66 C-7.14630389 65.91262355 -5.28932459 65.89301847 -3.43359375 65.90234375 C-2.30888672 65.90556641 -1.18417969 65.90878906 -0.02539062 65.91210938 C1.15861328 65.92048828 2.34261719 65.92886719 3.5625 65.9375 C4.75037109 65.94201172 5.93824219 65.94652344 7.16210938 65.95117188 C10.10812226 65.96300325 13.05403681 65.97948713 16 66 C11.4011352 56.42261953 11.4011352 56.42261953 6.0625 47.25 C4 44 4 44 4 42 C1.30290728 42.34880237 0.26266425 42.66590134 -1.44799805 44.84179688 C-1.88152588 45.62619141 -2.31505371 46.41058594 -2.76171875 47.21875 C-3.24060547 48.06824219 -3.71949219 48.91773438 -4.21289062 49.79296875 C-4.69951172 50.68628906 -5.18613281 51.57960937 -5.6875 52.5 C-6.66961716 54.26095005 -7.65264171 56.02139445 -8.63671875 57.78125 C-9.06686279 58.56564453 -9.49700684 59.35003906 -9.94018555 60.15820312 C-11 62 -11 62 -12 63 C-13.56172745 63.08685603 -15.12729344 63.10702219 -16.69140625 63.09765625 C-17.63564453 63.09443359 -18.57988281 63.09121094 -19.55273438 63.08789062 C-20.54595703 63.07951172 -21.53917969 63.07113281 -22.5625 63.0625 C-23.55958984 63.05798828 -24.55667969 63.05347656 -25.58398438 63.04882812 C-28.05604849 63.03700007 -30.52799518 63.02051849 -33 63 C-33.94070056 60.48429794 -34.13935331 59.35494831 -33.14233398 56.81542969 C-32.68157471 56.02555664 -32.22081543 55.23568359 -31.74609375 54.421875 C-31.22805176 53.51993408 -30.71000977 52.61799316 -30.17626953 51.6887207 C-29.60247559 50.71894287 -29.02868164 49.74916504 -28.4375 48.75 C-27.85339355 47.74090576 -27.26928711 46.73181152 -26.66748047 45.69213867 C-24.78982801 42.45457432 -22.89521896 39.22730638 -21 36 C-19.75277799 33.85612473 -18.50667113 31.71160029 -17.26171875 29.56640625 C-14.41175794 24.66134856 -11.54962827 19.76359062 -8.68066406 14.86962891 C-5.78013535 9.9171573 -2.89036619 4.95840744 0 0 Z " fill="#FCFBFD" transform="translate(98,56)"/>
<path d="M0 0 C18.83525281 8.51342298 33.98131781 31.67038756 44 49 C44.78375 48.175 45.5675 47.35 46.375 46.5 C49 44 49 44 51 44 C51.33 42.68 51.66 41.36 52 40 C52.66 40 53.32 40 54 40 C52.63981742 43.59924614 51.03292649 46.89201441 49.13671875 50.23828125 C48.57919922 51.22376953 48.02167969 52.20925781 47.44726562 53.22460938 C46.57618164 54.75311523 46.57618164 54.75311523 45.6875 56.3125 C45.11837891 57.31990234 44.54925781 58.32730469 43.96289062 59.36523438 C40.76752929 64.99655429 37.47782732 70.53857135 34 76 C29.99040183 74.66346728 29.23209773 72.22440801 27.375 68.6875 C17.57316274 50.82112139 4.66379126 36.87695432 -15 30 C-18.98079672 29.11126399 -22.94990917 28.47357083 -27 28 C-27 26.68 -27 25.36 -27 24 C-26.34 23.67 -25.68 23.34 -25 23 C-24.67 22.01 -24.34 21.02 -24 20 C-23.44957031 19.73832031 -22.89914063 19.47664063 -22.33203125 19.20703125 C-18.1746783 17.0552355 -15.24702268 13.32102139 -12.04101562 9.96289062 C-8.29572201 6.11147299 -4.45474079 3.00934961 0 0 Z " fill="#7619C2" transform="translate(44,16)"/>
<path d="M0 0 C14.99761215 0.93735076 27.84430325 6.9412023 39 17 C39.57492188 17.48339844 40.14984375 17.96679688 40.7421875 18.46484375 C46.59396588 23.76380436 50.63540554 30.57711316 54.83837891 37.18896484 C55.88161761 38.81543494 56.96016217 40.41913071 58.04296875 42.01953125 C58.60628906 42.87933594 59.16960937 43.73914063 59.75 44.625 C60.23984375 45.35976562 60.7296875 46.09453125 61.234375 46.8515625 C62 49 62 49 61.3984375 51.31640625 C59.63624587 54.69804213 57.79521712 58.01827593 55.875 61.3125 C55.50246094 61.95767578 55.12992187 62.60285156 54.74609375 63.26757812 C53.83367787 64.84675945 52.91724491 66.42361864 52 68 C51.01 68 50.02 68 49 68 C48.52691406 67.04480469 48.05382813 66.08960937 47.56640625 65.10546875 C41.74723499 53.61182236 35.79814795 43.4129511 24.1640625 37.0234375 C15.77651521 34.31042838 6.53652131 34.86475319 -2.1875 34.9375 C-3.23486328 34.94201172 -4.28222656 34.94652344 -5.36132812 34.95117188 C-7.90761536 34.96279876 -10.4537746 34.97913719 -13 35 C-14.1015625 30.265625 -14.1015625 30.265625 -13.1875 27.875 C-12.14868136 26.23476005 -11.076966 24.615449 -10 23 C-9.835 21.824375 -9.67 20.64875 -9.5 19.4375 C-9 16 -9 16 -7 14 C-5.88563667 12.03347647 -5.06930004 10.34650022 -4.625 8.125 C-3.70641202 5.00180087 -1.86110145 2.64156334 0 0 Z M-13 30 C-12 33 -12 33 -12 33 Z " fill="#4712B0" transform="translate(15,43)"/>
<path d="M0 0 C0.99 0.99 0.99 0.99 2 2 C1.625 4.625 1.625 4.625 1 7 C0.34 7 -0.32 7 -1 7 C-1.07476562 7.84046875 -1.14953125 8.6809375 -1.2265625 9.546875 C-2.1776529 13.79315739 -3.97955323 16.6719909 -6.375 20.25 C-6.77460938 20.87390625 -7.17421875 21.4978125 -7.5859375 22.140625 C-9.53561382 25.11644676 -11.00542006 27.00361337 -14 29 C-14.4640625 29.99 -14.4640625 29.99 -14.9375 31 C-16 33 -16 33 -17.89453125 33.9140625 C-20.2432247 35.12544799 -21.14360597 36.30834701 -22.75 38.375 C-30.71677869 46.39198948 -44.05028994 46.41749422 -54.6875 46.5625 C-63.79127872 46.49740961 -70.93260281 45.46547478 -79 41 C-79.93585938 40.50371094 -80.87171875 40.00742188 -81.8359375 39.49609375 C-91.63510816 33.80049736 -101.24682386 24.85945071 -107 15 C-107.33 13.68 -107.66 12.36 -108 11 C-86.55 11 -65.1 11 -43 11 C-43 11.33 -43 11.66 -43 12 C-56.86 12 -70.72 12 -85 12 C-77.24447082 20.86346192 -69.84407599 27.10303494 -58 29 C-42.91239575 29.95915143 -30.80665406 28.08494584 -18.78515625 18.48046875 C-12.22599541 12.63885987 -6.13456045 6.28140134 0 0 Z " fill="#6110BB" transform="translate(191,133)"/>
<path d="M0 0 C3.01717554 2.9615594 5.36825444 6.06414569 7.73046875 9.55859375 C8.20532715 10.25976318 8.68018555 10.96093262 9.16943359 11.68334961 C32.54296875 46.9375914 32.54296875 46.9375914 32.54296875 63.49609375 C31.88296875 63.49609375 31.22296875 63.49609375 30.54296875 63.49609375 C30.13046875 62.42359375 29.71796875 61.35109375 29.29296875 60.24609375 C27.85819599 56.95612644 26.52853489 54.628641 23.54296875 52.49609375 C20.37513675 52.16161116 20.37513675 52.16161116 17.54296875 52.49609375 C17.46175781 53.0890625 17.38054687 53.68203125 17.296875 54.29296875 C16.31178641 57.17167324 14.95089368 58.02071761 12.48046875 59.74609375 C11.38025391 60.52726562 11.38025391 60.52726562 10.2578125 61.32421875 C9.69191406 61.7109375 9.12601563 62.09765625 8.54296875 62.49609375 C8.15367188 61.78066406 7.764375 61.06523438 7.36328125 60.328125 C2.7591216 52.12762866 -2.54407599 44.78430457 -8.45703125 37.49609375 C-8.90626953 36.93712402 -9.35550781 36.3781543 -9.81835938 35.80224609 C-16.87989219 27.05568891 -24.34681026 19.17830595 -33.45703125 12.49609375 C-25.19226877 6.98625209 -16.31044548 2.72157049 -6.95703125 -0.62890625 C-5.8278125 -1.03496094 -5.8278125 -1.03496094 -4.67578125 -1.44921875 C-2.45703125 -1.50390625 -2.45703125 -1.50390625 0 0 Z " fill="#BA26D7" transform="translate(78.45703125,3.50390625)"/>
<path d="M0 0 C1.32 0 2.64 0 4 0 C6.01048951 3.43146714 8.00655245 6.87110912 10 10.3125 C10.57234375 11.28896484 11.1446875 12.26542969 11.734375 13.27148438 C12.27578125 14.20927734 12.8171875 15.14707031 13.375 16.11328125 C13.87773438 16.97735596 14.38046875 17.84143066 14.8984375 18.73168945 C16 21 16 21 16 24 C15.28457031 23.96221436 14.56914063 23.92442871 13.83203125 23.88549805 C0.94663349 22.72241048 0.94663349 22.72241048 -10.90478516 26.32324219 C-13.26875021 29.09649815 -14.40091306 31.7875294 -15.73828125 35.19140625 C-16.36283203 36.58166016 -16.36283203 36.58166016 -17 38 C-18.32 38 -19.64 38 -21 38 C-22.33838733 35.54429825 -23.67086232 33.08570084 -25 30.625 C-25.3815625 29.92632812 -25.763125 29.22765625 -26.15625 28.5078125 C-29 23.2265625 -29 23.2265625 -29 21 C-27.90042969 21.14824219 -26.80085938 21.29648438 -25.66796875 21.44921875 C-20.90054223 21.80332108 -16.43065976 22.01483634 -12 20 C-7.29615193 15.22732113 -4.53921383 8.90579449 -1.85351562 2.84179688 C-1 1 -1 1 0 0 Z " fill="#771CB2" transform="translate(98,98)"/>
<path d="M0 0 C0 0.66 0 1.32 0 2 C7.59 2 15.18 2 23 2 C23 2.33 23 2.66 23 3 C22.34515625 2.96221436 21.6903125 2.92442871 21.015625 2.88549805 C9.08320883 1.79741722 9.08320883 1.79741722 -1.81005859 5.32324219 C-4.1133669 8.10112642 -5.30020924 10.83877146 -6.66796875 14.19140625 C-7.10753906 15.11824219 -7.54710938 16.04507813 -8 17 C-9.32 17 -10.64 17 -12 17 C-13.33838733 14.54429825 -14.67086232 12.08570084 -16 9.625 C-16.3815625 8.92632812 -16.763125 8.22765625 -17.15625 7.5078125 C-20 2.2265625 -20 2.2265625 -20 0 C-17.22949974 -0.1946838 -14.45886998 -0.38102792 -11.6875 -0.5625 C-10.90181641 -0.61857422 -10.11613281 -0.67464844 -9.30664062 -0.73242188 C-8.1706543 -0.80493164 -8.1706543 -0.80493164 -7.01171875 -0.87890625 C-6.31522217 -0.9260376 -5.61872559 -0.97316895 -4.90112305 -1.02172852 C-3 -1 -3 -1 0 0 Z " fill="#4A11A2" transform="translate(89,119)"/>
<path d="M0 0 C18.83525281 8.51342298 33.98131781 31.67038756 44 49 C44.78375 48.175 45.5675 47.35 46.375 46.5 C49 44 49 44 51 44 C51.33 42.68 51.66 41.36 52 40 C52.66 40 53.32 40 54 40 C52.57250019 43.79049707 50.83763458 47.27122456 48.875 50.8125 C48.33617187 51.78832031 47.79734375 52.76414063 47.2421875 53.76953125 C46.83226562 54.50558594 46.42234375 55.24164063 46 56 C45.7525 55.4225 45.505 54.845 45.25 54.25 C44.09691413 51.92631235 44.09691413 51.92631235 42.16796875 50.19140625 C39.40654155 47.40012578 37.41641061 44.22753013 35.3125 40.9375 C30.93830068 34.25386556 26.25079674 28.0309652 21 22 C20.57605957 21.50371094 20.15211914 21.00742187 19.71533203 20.49609375 C13.44208008 13.17997382 7.09631579 7.324463 -1 2 C-0.67 1.34 -0.34 0.68 0 0 Z " fill="#8E1ECD" transform="translate(44,16)"/>
<path d="M0 0 C3.72554694 0.50345229 5.61124615 1.06834754 8 4 C8.8353125 4.9590625 8.8353125 4.9590625 9.6875 5.9375 C11 8 11 8 11 12 C11.66 12 12.32 12 13 12 C13.32871094 12.80050781 13.32871094 12.80050781 13.6640625 13.6171875 C15.85967108 18.77597515 18.41360689 23.51086867 21.35986328 28.27709961 C22.89142105 30.81974084 24.32265112 33.38911506 25.7265625 36.00390625 C29.20759756 42.42115615 32.84392034 48.7437603 36.5 55.0625 C37.13808594 56.16916016 37.77617187 57.27582031 38.43359375 58.41601562 C40.2816022 61.6150732 42.14026113 64.80775215 44 68 C44.56074219 68.9782373 45.12148437 69.95647461 45.69921875 70.96435547 C46.22128906 71.8617041 46.74335938 72.75905273 47.28125 73.68359375 C47.73564453 74.4717749 48.19003906 75.25995605 48.65820312 76.07202148 C50.01753012 78.27607174 50.01753012 78.27607174 53 80 C51.35 80 49.7 80 48 80 C47.6282666 79.33170166 47.2565332 78.66340332 46.87353516 77.97485352 C37.5857606 61.2800439 37.5857606 61.2800439 27.98217773 44.76611328 C25.27884833 40.20742892 22.62921078 35.61963128 20.00390625 31.015625 C19.47268158 30.08403313 19.47268158 30.08403313 18.9307251 29.13362122 C17.15750433 26.02192947 15.3872245 22.90859131 13.61962891 19.79370117 C8.14176496 8.72380945 8.14176496 8.72380945 0 0 Z " fill="#B314B3" transform="translate(98,55)"/>
<path d="M0 0 C1.18239258 -0.00362549 1.18239258 -0.00362549 2.38867188 -0.00732422 C5.78173463 0.01310798 9.1742053 0.04013949 12.56689453 0.09570312 C14.42724396 0.12607618 16.28786089 0.13965083 18.1484375 0.1484375 C27.3929898 0.52412322 34.77821289 4.56918635 41.08984375 11.2578125 C45.30700017 16.39174205 49.14461435 22.04798952 51.83984375 28.1328125 C51.34484375 29.6178125 51.34484375 29.6178125 50.83984375 31.1328125 C50.21078125 30.05902344 49.58171875 28.98523438 48.93359375 27.87890625 C43.15551144 18.20527081 37.81167472 9.42613766 26.83984375 5.1328125 C22.51461931 4.26584529 18.31516708 3.95284464 13.91015625 3.81640625 C11.9765625 3.75356445 11.9765625 3.75356445 10.00390625 3.68945312 C8.65755466 3.64965222 7.31120046 3.60993977 5.96484375 3.5703125 C4.59504042 3.52706067 3.22524854 3.48344438 1.85546875 3.43945312 C-1.48297782 3.33365728 -4.82149525 3.23156878 -8.16015625 3.1328125 C-8.16015625 2.4728125 -8.16015625 1.8128125 -8.16015625 1.1328125 C-5.37297981 0.34519171 -2.89328702 0.00462873 0 0 Z " fill="#971FD1" transform="translate(10.16015625,76.8671875)"/>
<path d="M0 0 C0.64710937 0.54269531 1.29421875 1.08539063 1.9609375 1.64453125 C6.54633341 5.80401094 9.83937822 10.51203359 13.0625 15.75 C13.46911865 16.40025146 13.8757373 17.05050293 14.29467773 17.72045898 C17.09681119 22.4655031 17.09681119 22.4655031 16.59936523 25.21191406 C16.40157471 25.80198242 16.20378418 26.39205078 16 27 C15.38125 25.76636719 15.38125 25.76636719 14.75 24.5078125 C8.21590072 11.87716524 0.6150905 0.63053976 -13 -5 C-16.12164157 -5.47714211 -19.22106033 -5.59947138 -22.375 -5.6875 C-23.20644531 -5.72166016 -24.03789062 -5.75582031 -24.89453125 -5.79101562 C-26.92923351 -5.87287146 -28.96459208 -5.93812701 -31 -6 C-31 -6.33 -31 -6.66 -31 -7 C-18.28199995 -8.33873685 -9.80518349 -8.69184592 0 0 Z " fill="#6917B2" transform="translate(48,124)"/>
<path d="M0 0 C0.99 0.33 1.98 0.66 3 1 C-4.00466034 8.00466034 -11.73791502 7.04997343 -21.0625 7.0625 C-23.70853346 7.05067384 -26.35406122 7.02734035 -29 7 C-29 6.34 -29 5.68 -29 5 C-27.22496094 4.81824219 -27.22496094 4.81824219 -25.4140625 4.6328125 C-11.82194009 4.35790877 -11.82194009 4.35790877 0 0 Z " fill="#9B1FD2" transform="translate(159,175)"/>
<path d="M0 0 C4.84120706 1.84765334 9.36497105 4.18837216 13.96484375 6.5625 C20.03457852 9.43722638 25.25077935 10.35554018 31.875 10.625 C32.65875 10.66367188 33.4425 10.70234375 34.25 10.7421875 C36.16631367 10.83566622 38.08312319 10.91888495 40 11 C40 11.33 40 11.66 40 12 C28.75825527 13.26157358 20.15823882 13.78373713 10 8 C9.02546875 7.47148437 8.0509375 6.94296875 7.046875 6.3984375 C2.14842359 3.62082399 2.14842359 3.62082399 0 2 C0 1.34 0 0.68 0 0 Z " fill="#8A1CCB" transform="translate(102,168)"/>
<path d="M0 0 C11.0142356 3.96126017 19.60173297 13.4995429 26 23 C25.67 23.66 25.34 24.32 25 25 C24.24976562 24.07058594 23.49953125 23.14117187 22.7265625 22.18359375 C16.76805274 14.93826509 11.13271697 8.87654376 3 4 C2.01 3.34 1.02 2.68 0 2 C0 1.34 0 0.68 0 0 Z " fill="#5710AF" transform="translate(40,51)"/>
<path d="M0 0 C0.66 0 1.32 0 2 0 C1.49844814 5.32498673 -1.34435727 9.35205395 -4.0625 13.8125 C-4.53494141 14.60076172 -5.00738281 15.38902344 -5.49414062 16.20117188 C-6.65631315 18.13812608 -7.82504417 20.07078295 -9 22 C-9.99 21.67 -10.98 21.34 -12 21 C-11.4409112 17.75728494 -10.5867822 16.06942576 -8 14 C-7.34 14 -6.68 14 -6 14 C-5.731875 13.0925 -5.46375 12.185 -5.1875 11.25 C-4.08829381 8.24164622 -2.91391727 6.49641383 -1 4 C-0.29485154 1.85266073 -0.29485154 1.85266073 0 0 Z " fill="#6F20AA" transform="translate(87,70)"/>
<path d="M0 0 C3.72554694 0.50345229 5.61124615 1.06834754 8 4 C8.8353125 4.9590625 8.8353125 4.9590625 9.6875 5.9375 C11 8 11 8 11 12 C11.66 12 12.32 12 13 12 C15.29013653 15.4352048 15.17842973 16.985331 15 21 C11.60165582 16.75206978 9.01707777 12.01862067 6.31640625 7.3125 C4.42558771 4.09110544 3.15337536 2.10225024 0 0 Z " fill="#9F27BB" transform="translate(98,55)"/>
<path d="M0 0 C0.66 0 1.32 0 2 0 C0.57250019 3.79049707 -1.16236542 7.27122456 -3.125 10.8125 C-3.93324219 12.27623047 -3.93324219 12.27623047 -4.7578125 13.76953125 C-5.16773437 14.50558594 -5.57765625 15.24164063 -6 16 C-8.015625 12.25 -8.015625 12.25 -7.875 10 C-6.72196182 7.36448415 -5.18070808 5.85029777 -3 4 C-2.34 4 -1.68 4 -1 4 C-0.67 2.68 -0.34 1.36 0 0 Z " fill="#9C28BB" transform="translate(96,56)"/>
<path d="M0 0 C6.11774896 -0.49940808 9.02495953 0.75099398 14 4 C14 4.66 14 5.32 14 6 C13.175 5.71125 12.35 5.4225 11.5 5.125 C7.69204819 3.90101549 3.88729173 2.9383118 0 2 C0 1.34 0 0.68 0 0 Z " fill="#A221D5" transform="translate(31,79)"/>
<path d="M0 0 C1.8141927 0.28094582 3.62635001 0.57506433 5.4375 0.875 C6.95150391 1.11863281 6.95150391 1.11863281 8.49609375 1.3671875 C9.32238281 1.57601562 10.14867187 1.78484375 11 2 C11.33 2.66 11.66 3.32 12 4 C7.48382401 4.07654536 3.40914783 4.10228696 -1 3 C-0.67 2.01 -0.34 1.02 0 0 Z " fill="#4310A4" transform="translate(15,43)"/>
<path d="M0 0 C8.58 0 17.16 0 26 0 C26 0.33 26 0.66 26 1 C17.42 1 8.84 1 0 1 C0 0.67 0 0.34 0 0 Z " fill="#290D89" transform="translate(86,199)"/>
<path d="M0 0 C0.33 0 0.66 0 1 0 C1 8.58 1 17.16 1 26 C0.67 26 0.34 26 0 26 C0 17.42 0 8.84 0 0 Z " fill="#9D1ECF" transform="translate(199,86)"/>
<path d="M0 0 C2.0625 2.25 2.0625 2.25 4 5 C3.75 7.3125 3.75 7.3125 3 9 C1.68 8.67 0.36 8.34 -1 8 C-0.7525 7.13375 -0.7525 7.13375 -0.5 6.25 C0.14462031 3.73335631 0.14462031 3.73335631 0 0 Z " fill="#5514A2" transform="translate(73,87)"/>
<path d="M0 0 C0.66 0.33 1.32 0.66 2 1 C-0.31 3.31 -2.62 5.62 -5 8 C-5 5 -5 5 -2.5 2.3125 C-1.675 1.549375 -0.85 0.78625 0 0 Z " fill="#7219C1" transform="translate(30,25)"/>
<path d="M0 0 C1.98 0 3.96 0 6 0 C6 0.33 6 0.66 6 1 C4.02 1 2.04 1 0 1 C0 0.67 0 0.34 0 0 Z " fill="#2B0F8F" transform="translate(112,198)"/>
<path d="M0 0 C1.98 0 3.96 0 6 0 C6 0.33 6 0.66 6 1 C4.02 1 2.04 1 0 1 C0 0.67 0 0.34 0 0 Z " fill="#270D85" transform="translate(80,198)"/>
<path d="M0 0 C1.65 0 3.3 0 5 0 C5 0.33 5 0.66 5 1 C3.35 1 1.7 1 0 1 C0 0.67 0 0.34 0 0 Z " fill="#290E90" transform="translate(118,197)"/>
<path d="M0 0 C1.65 0 3.3 0 5 0 C5 0.33 5 0.66 5 1 C3.35 1 1.7 1 0 1 C0 0.67 0 0.34 0 0 Z " fill="#270C83" transform="translate(75,197)"/>
<path d="M0 0 C1.65 0 3.3 0 5 0 C5 0.33 5 0.66 5 1 C3.35 1 1.7 1 0 1 C0 0.67 0 0.34 0 0 Z " fill="#DE00D9" transform="translate(117,0)"/>
<path d="M0 0 C1.65 0 3.3 0 5 0 C5 0.33 5 0.66 5 1 C3.35 1 1.7 1 0 1 C0 0.67 0 0.34 0 0 Z " fill="#E100DA" transform="translate(76,0)"/>
<path d="M0 0 C4 1 4 1 4 1 Z " fill="#6315AF" transform="translate(123,196)"/>
<path d="M0 0 C4 1 4 1 4 1 Z " fill="#260C82" transform="translate(68,195)"/>
<path d="M0 0 C4 1 4 1 4 1 Z " fill="#C028DA" transform="translate(69,2)"/>
<path d="M0 0 C4 1 4 1 4 1 Z " fill="#DE00D9" transform="translate(122,1)"/>
<path d="M0 0 C3 1 3 1 3 1 Z " fill="#260C82" transform="translate(72,196)"/>
<path d="M0 0 C3 1 3 1 3 1 Z " fill="#7919C0" transform="translate(127,195)"/>
<path d="M0 0 C3 1 3 1 3 1 Z " fill="#7F1BC7" transform="translate(130,194)"/>
<path d="M0 0 C3 1 3 1 3 1 Z " fill="#260C81" transform="translate(65,194)"/>
<path d="M0 0 C3 1 3 1 3 1 Z " fill="#821BC8" transform="translate(135,192)"/>
<path d="M0 0 C3 1 3 1 3 1 Z " fill="#260C81" transform="translate(60,192)"/>
<path d="" fill="#290D89" transform="translate(0,0)"/>
<path d="" fill="#7410C5" transform="translate(0,0)"/>
<path d="" fill="#290E89" transform="translate(0,0)"/>
<path d="" fill="#901DCD" transform="translate(0,0)"/>
<path d="" fill="#320F92" transform="translate(0,0)"/>
<path d="" fill="#2514A1" transform="translate(0,0)"/>
<path d="M0 0 C3 1 3 1 3 1 Z " fill="#DD00D8" transform="translate(137,6)"/>
<path d="M0 0 C3 1 3 1 3 1 Z " fill="#DD00D8" transform="translate(132,4)"/>
<path d="M0 0 C3 1 3 1 3 1 Z " fill="#C028DA" transform="translate(63,4)"/>
<path d="M0 0 C3 1 3 1 3 1 Z " fill="#DD00D8" transform="translate(129,3)"/>
<path d="M0 0 C3 1 3 1 3 1 Z " fill="#C028DA" transform="translate(66,3)"/>
<path d="M0 0 C3 1 3 1 3 1 Z " fill="#DE00D8" transform="translate(126,2)"/>
<path d="M0 0 C3 1 3 1 3 1 Z " fill="#C727DD" transform="translate(73,1)"/>
<path d="M0 0 C2 1 2 1 2 1 Z " fill="#811BC7" transform="translate(133,193)"/>
<path d="M0 0 C2 1 2 1 2 1 Z " fill="#260C81" transform="translate(63,193)"/>
<path d="M0 0 C2 1 2 1 2 1 Z " fill="#841BC8" transform="translate(138,191)"/>
<path d="M0 0 C2 1 2 1 2 1 Z " fill="#260C81" transform="translate(58,191)"/>
<path d="M0 0 C2 1 2 1 2 1 Z " fill="#851BC9" transform="translate(140,190)"/>
<path d="M0 0 C2 1 2 1 2 1 Z " fill="#260C81" transform="translate(56,190)"/>
<path d="M0 0 C2 1 2 1 2 1 Z " fill="#871CCA" transform="translate(142,189)"/>
<path d="M0 0 C2 1 2 1 2 1 Z " fill="#260C81" transform="translate(54,189)"/>
<path d="M0 0 C2 1 2 1 2 1 Z " fill="#881CCA" transform="translate(144,188)"/>
<path d="M0 0 C2 1 2 1 2 1 Z " fill="#260C81" transform="translate(52,188)"/>
<path d="M0 0 C2 1 2 1 2 1 Z " fill="#8A1CCB" transform="translate(146,187)"/>
<path d="M0 0 C2 1 2 1 2 1 Z " fill="#260C81" transform="translate(50,187)"/>
<path d="M0 0 C2 1 2 1 2 1 Z " fill="#8B1CCB" transform="translate(148,186)"/>
<path d="M0 0 C2 1 2 1 2 1 Z " fill="#260C81" transform="translate(47,185)"/>
<path d="M0 0 C2 1 2 1 2 1 Z " fill="#8E1CCC" transform="translate(151,184)"/>
<path d="M0 0 C2 1 2 1 2 1 Z " fill="#260C81" transform="translate(45,184)"/>
<path d="M0 0 C2 1 2 1 2 1 Z " fill="#901DCD" transform="translate(154,182)"/>
<path d="M0 0 C2 1 2 1 2 1 Z " fill="#260C81" transform="translate(42,182)"/>
<path d="M0 0 C2 1 2 1 2 1 Z " fill="#921DCE" transform="translate(157,180)"/>
<path d="M0 0 C2 1 2 1 2 1 Z " fill="#260C81" transform="translate(38,179)"/>
<path d="M0 0 C2 1 2 1 2 1 Z " fill="#A021D4" transform="translate(162,176)"/>
<path d="M0 0 C2 1 2 1 2 1 Z " fill="#260C81" transform="translate(32,174)"/>
<path d="" fill="#270C83" transform="translate(0,0)"/>
<path d="" fill="#7410C7" transform="translate(0,0)"/>
<path d="" fill="#280D88" transform="translate(0,0)"/>
<path d="" fill="#7310C5" transform="translate(0,0)"/>
<path d="" fill="#2514A1" transform="translate(0,0)"/>
<path d="" fill="#D900D6" transform="translate(0,0)"/>
<path d="" fill="#3113A6" transform="translate(0,0)"/>
<path d="" fill="#3613A9" transform="translate(0,0)"/>
<path d="M0 0 C2 1 2 1 2 1 Z " fill="#DB00D7" transform="translate(164,23)"/>
<path d="M0 0 C2 1 2 1 2 1 Z " fill="#7419C2" transform="translate(37,19)"/>
<path d="M0 0 C2 1 2 1 2 1 Z " fill="#DC00D7" transform="translate(158,18)"/>
<path d="M0 0 C2 1 2 1 2 1 Z " fill="#DC00D7" transform="translate(155,16)"/>
<path d="M0 0 C2 1 2 1 2 1 Z " fill="#8B1DCD" transform="translate(41,16)"/>
<path d="M0 0 C2 1 2 1 2 1 Z " fill="#DC00D8" transform="translate(152,14)"/>
<path d="M0 0 C2 1 2 1 2 1 Z " fill="#C128DA" transform="translate(44,14)"/>
<path d="M0 0 C2 1 2 1 2 1 Z " fill="#DC00D8" transform="translate(149,12)"/>
<path d="M0 0 C2 1 2 1 2 1 Z " fill="#C028DA" transform="translate(47,12)"/>
<path d="M0 0 C2 1 2 1 2 1 Z " fill="#DC00D8" transform="translate(147,11)"/>
<path d="M0 0 C2 1 2 1 2 1 Z " fill="#C028DA" transform="translate(49,11)"/>
<path d="M0 0 C2 1 2 1 2 1 Z " fill="#C028DA" transform="translate(51,10)"/>
<path d="M0 0 C2 1 2 1 2 1 Z " fill="#DC00D8" transform="translate(144,9)"/>
<path d="M0 0 C2 1 2 1 2 1 Z " fill="#C028DA" transform="translate(53,9)"/>
<path d="M0 0 C2 1 2 1 2 1 Z " fill="#DC00D8" transform="translate(142,8)"/>
<path d="M0 0 C2 1 2 1 2 1 Z " fill="#C028DA" transform="translate(55,8)"/>
<path d="M0 0 C2 1 2 1 2 1 Z " fill="#DD00D8" transform="translate(140,7)"/>
<path d="M0 0 C2 1 2 1 2 1 Z " fill="#C028DA" transform="translate(57,7)"/>
<path d="M0 0 C2 1 2 1 2 1 Z " fill="#C028DA" transform="translate(59,6)"/>
<path d="M0 0 C2 1 2 1 2 1 Z " fill="#DD00D8" transform="translate(135,5)"/>
<path d="M0 0 C2 1 2 1 2 1 Z " fill="#C028DA" transform="translate(61,5)"/>
<path d="" fill="#260C81" transform="translate(0,0)"/>
<path d="" fill="#8D1CCC" transform="translate(0,0)"/>
<path d="" fill="#8F1DCD" transform="translate(0,0)"/>
<path d="" fill="#260C81" transform="translate(0,0)"/>
<path d="" fill="#921DCE" transform="translate(0,0)"/>
<path d="" fill="#260C81" transform="translate(0,0)"/>
<path d="" fill="#260C81" transform="translate(0,0)"/>
<path d="" fill="#911DCE" transform="translate(0,0)"/>
<path d="" fill="#911DCE" transform="translate(0,0)"/>
<path d="" fill="#260C81" transform="translate(0,0)"/>
<path d="" fill="#981ED1" transform="translate(0,0)"/>
<path d="" fill="#260C81" transform="translate(0,0)"/>
<path d="" fill="#260C81" transform="translate(0,0)"/>
<path d="" fill="#A723D8" transform="translate(0,0)"/>
<path d="" fill="#260C81" transform="translate(0,0)"/>
<path d="" fill="#AD25DA" transform="translate(0,0)"/>
<path d="" fill="#A221D6" transform="translate(0,0)"/>
<path d="" fill="#260C81" transform="translate(0,0)"/>
<path d="" fill="#8A18CE" transform="translate(0,0)"/>
<path d="" fill="#260C81" transform="translate(0,0)"/>
<path d="" fill="#7511C7" transform="translate(0,0)"/>
<path d="" fill="#260C81" transform="translate(0,0)"/>
<path d="" fill="#6E0FC5" transform="translate(0,0)"/>
<path d="" fill="#260C81" transform="translate(0,0)"/>
<path d="" fill="#7110C6" transform="translate(0,0)"/>
<path d="" fill="#260C81" transform="translate(0,0)"/>
<path d="" fill="#7310C6" transform="translate(0,0)"/>
<path d="" fill="#260C81" transform="translate(0,0)"/>
<path d="" fill="#7310C6" transform="translate(0,0)"/>
<path d="" fill="#7310C6" transform="translate(0,0)"/>
<path d="" fill="#260C81" transform="translate(0,0)"/>
<path d="" fill="#7410C7" transform="translate(0,0)"/>
<path d="" fill="#260C82" transform="translate(0,0)"/>
<path d="" fill="#DA00D6" transform="translate(0,0)"/>
<path d="" fill="#7119C1" transform="translate(0,0)"/>
<path d="" fill="#DA00D6" transform="translate(0,0)"/>
<path d="" fill="#DA00D6" transform="translate(0,0)"/>
<path d="" fill="#7119C1" transform="translate(0,0)"/>
<path d="" fill="#7119C1" transform="translate(0,0)"/>
<path d="" fill="#7119C1" transform="translate(0,0)"/>
<path d="" fill="#DA00D7" transform="translate(0,0)"/>
<path d="" fill="#DB00D7" transform="translate(0,0)"/>
<path d="" fill="#DB00D7" transform="translate(0,0)"/>
<path d="" fill="#DB00D7" transform="translate(0,0)"/>
<path d="" fill="#DB00D7" transform="translate(0,0)"/>
<path d="" fill="#DB00D7" transform="translate(0,0)"/>
<path d="" fill="#DB00D7" transform="translate(0,0)"/>
<path d="" fill="#7319C2" transform="translate(0,0)"/>
<path d="" fill="#7319C2" transform="translate(0,0)"/>
<path d="" fill="#DB00D7" transform="translate(0,0)"/>
<path d="" fill="#7319C2" transform="translate(0,0)"/>
<path d="" fill="#DB00D7" transform="translate(0,0)"/>
<path d="" fill="#7419C2" transform="translate(0,0)"/>
<path d="" fill="#DB00D7" transform="translate(0,0)"/>
<path d="" fill="#7419C2" transform="translate(0,0)"/>
<path d="" fill="#DB00D7" transform="translate(0,0)"/>
<path d="" fill="#7419C2" transform="translate(0,0)"/>
<path d="" fill="#DC00D7" transform="translate(0,0)"/>
<path d="" fill="#7219C1" transform="translate(0,0)"/>
<path d="" fill="#DC00D7" transform="translate(0,0)"/>
<path d="" fill="#9721D2" transform="translate(0,0)"/>
<path d="" fill="#DC00D8" transform="translate(0,0)"/>
<path d="" fill="#C028DA" transform="translate(0,0)"/>
<path d="" fill="#DC00D8" transform="translate(0,0)"/>
</svg>
