<?xml version="1.0" encoding="UTF-8"?>
<svg version="1.1" xmlns="http://www.w3.org/2000/svg" width="64" height="64">
<path d="M0 0 C21.12 0 42.24 0 64 0 C64 21.12 64 42.24 64 64 C42.88 64 21.76 64 0 64 C0 42.88 0 21.76 0 0 Z " fill="#6FD14D" transform="translate(0,0)"/>
<path d="M0 0 C5.29145902 4.41767588 7.77309087 10.77014139 10.8125 16.8125 C11.42287109 17.97587891 12.03324219 19.13925781 12.66210938 20.33789062 C13.5196582 22.03655273 13.5196582 22.03655273 14.39453125 23.76953125 C14.91893799 24.79667236 15.44334473 25.82381348 15.98364258 26.88208008 C17.24198817 30.7423567 17.07924811 33.10067858 16 37 C13.7315344 39.64119278 12.32348143 39.95658306 8.87133789 40.41992188 C2.09114669 40.51065712 2.09114669 40.51065712 -0.84448242 40.50097656 C-2.92832704 40.50000428 -5.00848381 40.54163787 -7.09179688 40.5859375 C-8.41115234 40.58851562 -9.73050781 40.59109375 -11.08984375 40.59375 C-12.89763306 40.60438477 -12.89763306 40.60438477 -14.74194336 40.61523438 C-19.01876509 39.80762173 -20.53460495 38.56529436 -23 35 C-22.9849253 29.97402259 -21.38902622 26.14604543 -19.1640625 21.69921875 C-18.30941406 19.98702148 -18.30941406 19.98702148 -17.4375 18.24023438 C-16.839375 17.06783203 -16.24125 15.89542969 -15.625 14.6875 C-15.02791284 13.48408736 -14.43155223 12.28031395 -13.8359375 11.07617188 C-7.77085934 -0.9515338 -7.77085934 -0.9515338 0 0 Z " fill="#70D14E" transform="translate(35,9)"/>
<path d="M0 0 C5.29145902 4.41767588 7.77309087 10.77014139 10.8125 16.8125 C11.42287109 17.97587891 12.03324219 19.13925781 12.66210938 20.33789062 C13.5196582 22.03655273 13.5196582 22.03655273 14.39453125 23.76953125 C14.91893799 24.79667236 15.44334473 25.82381348 15.98364258 26.88208008 C17.24198817 30.7423567 17.07924811 33.10067858 16 37 C13.7315344 39.64119278 12.32348143 39.95658306 8.87133789 40.41992188 C2.09114669 40.51065712 2.09114669 40.51065712 -0.84448242 40.50097656 C-2.92832704 40.50000428 -5.00848381 40.54163787 -7.09179688 40.5859375 C-8.41115234 40.58851562 -9.73050781 40.59109375 -11.08984375 40.59375 C-12.89763306 40.60438477 -12.89763306 40.60438477 -14.74194336 40.61523438 C-19.01876509 39.80762173 -20.53460495 38.56529436 -23 35 C-22.9849253 29.97402259 -21.38902622 26.14604543 -19.1640625 21.69921875 C-18.30941406 19.98702148 -18.30941406 19.98702148 -17.4375 18.24023438 C-16.839375 17.06783203 -16.24125 15.89542969 -15.625 14.6875 C-15.02791284 13.48408736 -14.43155223 12.28031395 -13.8359375 11.07617188 C-7.77085934 -0.9515338 -7.77085934 -0.9515338 0 0 Z M-5 3 C-9.24222345 8.55930366 -12.36526829 14.32309841 -15.375 20.625 C-15.83777344 21.553125 -16.30054688 22.48125 -16.77734375 23.4375 C-17.20917969 24.33726563 -17.64101563 25.23703125 -18.0859375 26.1640625 C-18.4782959 26.97311035 -18.8706543 27.7821582 -19.27490234 28.61572266 C-20.14404163 31.47363993 -19.85526042 33.16606981 -19 36 C-16.37550198 38.62449802 -8.98611458 37.22985959 -5.21704102 37.24023438 C-3.07463839 37.24994498 -0.93319303 37.28095753 1.20898438 37.3125 C2.56509845 37.31902936 3.92121941 37.3242801 5.27734375 37.328125 C6.51734131 37.3374707 7.75733887 37.34681641 9.03491211 37.35644531 C10.01339111 37.23881836 10.99187012 37.12119141 12 37 C14.2423725 34.29356457 14.2423725 34.29356457 13.859375 31.796875 C12.71109158 28.05973442 11.03959382 24.71787319 9.25 21.25 C8.70702271 20.19026978 8.70702271 20.19026978 8.15307617 19.10913086 C7.43290597 17.7084697 6.70991681 16.30925377 5.98388672 14.91162109 C5.14509829 13.28191554 4.33684507 11.63655346 3.53515625 9.98828125 C3.13167969 9.18777344 2.72820313 8.38726562 2.3125 7.5625 C1.97863281 6.88316406 1.64476563 6.20382813 1.30078125 5.50390625 C-0.5370289 3.37911073 -2.28319413 3.31988925 -5 3 Z " fill="#F4FDF0" transform="translate(35,9)"/>
<path d="M0 0 C1.98 0.495 1.98 0.495 4 1 C3.01 2.98 2.02 4.96 1 7 C-1 4 -1 4 -0.625 1.8125 C-0.41875 1.214375 -0.2125 0.61625 0 0 Z " fill="#EBFAE6" transform="translate(15,33)"/>
</svg>
