<svg xmlns="http://www.w3.org/2000/svg" width="256" height="256" fill="none"><circle cx="128" cy="128" r="122" fill="#000"/><path fill="#fff" d="M128 0C57.4 0 0 57.4 0 128s57.4 128 128 128 128-57.4 128-128S198.6 0 128 0Zm109.5 103.8a140 140 0 0 1-46.1 16.8c8.3-34 9.2-61.4 8.4-78.7a112.4 112.4 0 0 1 37.7 61.9Zm-55 122.3a111.4 111.4 0 0 1-42.7 13.5 347 347 0 0 0 40.6-83.2c6.4 38 2.9 64.3 2 69.7ZM75.5 156.4a347 347 0 0 0 40.6 83.2A111.4 111.4 0 0 1 73.6 226c-.9-5.4-4.4-31.6 2-69.7ZM73 30.2a111.6 111.6 0 0 1 40.2-13.4c-9 13.4-23.4 38.7-37.6 78.7A238.5 238.5 0 0 1 73 30.2Zm107.4 65.3a364.6 364.6 0 0 0-37.6-78.7c14.5 1.9 28 6.6 40.2 13.5 1.2 10 2.7 33.5-2.6 65.2ZM128 228.8c-8.6-12.4-25.2-40.3-41-88l-.3-.7a374.5 374.5 0 0 0 82.6 0l-.2.8c-15.8 47.4-32.5 75.4-41.1 88Zm-45-105a308 308 0 0 1 4-12.7c15.7-47.4 32.4-75.4 41-88 2.4 3.5 5.5 8.3 9 14.4a403.8 403.8 0 0 1 36 86.2 342 342 0 0 1-45 2.8c-17.2 0-32-1-45-2.8Zm-26.8-82c-.8 17.4 0 45 8.4 78.9-24.4-5-39.2-12-46.3-16.1 5.3-25 19-47 37.9-62.7ZM15.8 128c0-2.2 0-4.5.2-6.7 9.7 4.9 25 11 47.4 15.3-7.9 34.4-8 61.7-7 77.7A112 112 0 0 1 15.8 128Zm183.8 86.3c1-16 .9-43.4-7-77.8 22.8-4.5 38-10.9 47.4-15.9l.2 7.4a112 112 0 0 1-40.6 86.3Z"/></svg>