<?xml version="1.0" standalone="no"?>
<!DOCTYPE svg PUBLIC "-//W3C//DTD SVG 20010904//EN"
 "http://www.w3.org/TR/2001/REC-SVG-20010904/DTD/svg10.dtd">
<svg version="1.0" xmlns="http://www.w3.org/2000/svg"
 width="64.000000pt" height="64.000000pt" viewBox="0 0 64.000000 64.000000"
 preserveAspectRatio="xMidYMid meet">

<g transform="translate(0.000000,64.000000) scale(0.100000,-0.100000)"
fill="#000000" stroke="none">
<path d="M434 574 c3 -9 6 -18 6 -20 0 -2 15 -4 33 -4 l32 1 -24 19 c-28 24
-56 27 -47 4z"/>
<path d="M427 508 c-24 -8 -27 -14 -21 -32 5 -11 9 -61 9 -110 l1 -90 47 -15
c66 -23 69 -28 47 -91 -10 -30 -15 -59 -11 -63 5 -5 23 -7 42 -5 31 3 34 7 52
63 25 78 27 225 5 277 -26 58 -52 78 -100 77 -24 0 -56 -5 -71 -11z"/>
<path d="M210 71 c0 -19 28 -43 47 -39 18 3 16 6 -13 25 -19 12 -34 19 -34 14z"/>
</g>
</svg>
