<svg width="256" height="256" fill="none" xmlns="http://www.w3.org/2000/svg"><path d="m123 134 60 28c-11 85-73 65-92 62-14-32-13-25-14-44 7-53 46-104 77-115 30-11 42-8 56 2 38 41 18 108 4 142l-26-11-4 6c12 6 34 16 37 10 49-111-8-167-11-170-3-4-59-66-133-29C4 51-35 180 60 231c98 42 138-35 142-78l-76-26-3 7Z" fill="url(#a)"/><path d="M103 100c-51 68-29 122-15 135-43-7-122-81-49-179 68-79 147-37 170 0-14-9-60-18-106 44Z" fill="url(#b)"/><path d="M152 66c15 33 9 61 3 71l27 10c18 6 16 14 16 21s-9 25-13 33l23 9c5 2 10-1 12-6 25-77 11-105 2-125-19-33-59-20-70-13Z" fill="url(#c)"/><path d="M130 235c-41 7-52-25-52-42 28-7 43-52 45-59s12 1 16 1c2 0 16 11 33 16s19 12 18 16c-3 19-19 60-60 68Z" fill="url(#d)"/><defs><linearGradient id="b" x1="7.5" y1="168.4" x2="185" y2="28.2" gradientUnits="userSpaceOnUse"><stop stop-color="#4A9DAF"/><stop offset=".1" stop-color="#72EEF8"/><stop offset=".3" stop-color="#2CBBF9"/><stop offset=".6" stop-color="#3BA5FB"/><stop offset=".9" stop-color="#3D78E1"/></linearGradient><linearGradient id="c" x1="183.4" y1="212.6" x2="222.5" y2="54.3" gradientUnits="userSpaceOnUse"><stop stop-color="#1E61A3"/><stop offset=".4" stop-color="#2065AA"/><stop offset=".5" stop-color="#2980D7"/><stop offset=".8" stop-color="#1F63A8"/><stop offset=".9" stop-color="#154D83"/></linearGradient><linearGradient id="d" x1="80.6" y1="224.1" x2="179.8" y2="162.3" gradientUnits="userSpaceOnUse"><stop stop-color="#2B96B5"/><stop offset=".3" stop-color="#41B4D7"/><stop offset=".7" stop-color="#52CCF1"/><stop offset="1" stop-color="#2FA8C9"/></linearGradient><radialGradient id="a" cx="0" cy="0" r="1" gradientUnits="userSpaceOnUse" gradientTransform="rotate(-54 254 69) scale(324.999 349.77)"><stop stop-color="#FDC8C8"/><stop offset=".4" stop-color="#2DBCFA"/><stop offset=".6" stop-color="#A8BFFE"/><stop offset=".8" stop-color="#EFC7FD"/></radialGradient></defs></svg>