<?xml version="1.0" encoding="UTF-8"?>
<svg version="1.1" xmlns="http://www.w3.org/2000/svg" width="200" height="200">
<path d="M0 0 C1.97057373 0.01244751 1.97057373 0.01244751 3.98095703 0.02514648 C31.08150857 0.4955143 54.80307004 11.85474289 73.79345703 30.99267578 C91.78688109 49.64155206 100.83579621 74.56605915 100.625 100.25 C100.61670166 101.56371582 100.60840332 102.87743164 100.59985352 104.23095703 C100.1294857 131.33150857 88.77025711 155.05307004 69.63232422 174.04345703 C50.98344794 192.03688109 26.05894085 201.08579621 0.375 200.875 C-1.59557373 200.86255249 -1.59557373 200.86255249 -3.60595703 200.84985352 C-30.70650857 200.3794857 -54.42807004 189.02025711 -73.41845703 169.88232422 C-91.41188109 151.23344794 -100.46079621 126.30894085 -100.25 100.625 C-100.24170166 99.31128418 -100.23340332 97.99756836 -100.22485352 96.64404297 C-99.7544857 69.54349143 -88.39525711 45.82192996 -69.25732422 26.83154297 C-50.60844794 8.83811891 -25.68394085 -0.21079621 0 0 Z " fill="#F0F1F6" transform="translate(99.8125,-0.4375)"/>
<path d="M0 0 C4.33993343 2.34356405 7.71615882 5.32982457 11 9 C11 9.66 11 10.32 11 11 C11.99 11.33 12.98 11.66 14 12 C15.46484375 13.5234375 15.46484375 13.5234375 16.9375 15.375 C19.10578493 18.01911803 21.23362446 19.97841788 24 22 C24 22.66 24 23.32 24 24 C25.485 24.495 25.485 24.495 27 25 C28.39453125 26.453125 28.39453125 26.453125 29.8125 28.25 C32.60139694 31.64001257 35.55230533 34.29109704 39 37 C37.41332422 40.90285767 34.86649519 43.33520982 31.875 46.25 C30.96492188 47.14203125 30.05484375 48.0340625 29.1171875 48.953125 C28.06917969 49.96632813 28.06917969 49.96632813 27 51 C22.52201737 49.35138948 20.28149445 47.51043592 17 44 C15.67073375 42.66261196 14.33709094 41.3295651 13 40 C12.31164062 39.31035156 11.62328125 38.62070313 10.9140625 37.91015625 C9.41053517 36.40969734 7.8949799 34.9212899 6.375 33.4375 C3.4305026 30.41551582 0.71020116 27.2317519 -2 24 C-6.10108886 25.62156024 -8.83148167 28.5767703 -11.859375 31.6640625 C-12.683237 32.49216934 -12.683237 32.49216934 -13.52374268 33.33700562 C-15.27059293 35.09501815 -17.01034601 36.8598689 -18.75 38.625 C-19.93573591 39.8207708 -21.1219288 41.01608865 -22.30859375 42.2109375 C-25.21105085 45.13540253 -28.1071641 48.06601874 -31 51 C-34.85027991 49.21799313 -37.2799142 46.92324595 -40.25 43.875 C-41.14203125 42.96492188 -42.0340625 42.05484375 -42.953125 41.1171875 C-43.62859375 40.41851562 -44.3040625 39.71984375 -45 39 C-43.62800577 35.92355013 -42.06323072 33.8145975 -39.68359375 31.44067383 C-39.00949463 30.76349808 -38.33539551 30.08632233 -37.64086914 29.3886261 C-36.91375732 28.6686998 -36.18664551 27.9487735 -35.4375 27.20703125 C-34.69040771 26.46039719 -33.94331543 25.71376312 -33.17358398 24.94450378 C-31.595627 23.36956469 -30.01524347 21.79705358 -28.43261719 20.22680664 C-26.0039759 17.81644597 -23.58345607 15.39815497 -21.1640625 12.97851562 C-19.63067997 11.45004753 -18.09684132 9.92203687 -16.5625 8.39453125 C-15.83538818 7.66853226 -15.10827637 6.94253326 -14.35913086 6.1945343 C-13.68503174 5.52681503 -13.01093262 4.85909576 -12.31640625 4.17114258 C-11.72287354 3.58142166 -11.12934082 2.99170074 -10.51782227 2.3841095 C-7.2329716 -0.61136178 -4.31944776 -0.35995398 0 0 Z " fill="#050505" transform="translate(103,107)"/>
<path d="M0 0 C4.08290097 1.61551447 6.78433836 4.54639696 9.7890625 7.62890625 C10.60580948 8.45345558 10.60580948 8.45345558 11.4390564 9.29466248 C13.17253779 11.04591176 14.89916551 12.80371688 16.625 14.5625 C18.35884152 16.32395811 20.09412183 18.08393623 21.83236694 19.84104919 C22.91247367 20.93341505 23.98989603 22.02844296 25.06436157 23.12635803 C27.76313489 25.91551945 27.76313489 25.91551945 31 28 C31.26643311 27.40759521 31.53286621 26.81519043 31.80737305 26.20483398 C33.02445218 23.95479475 34.26299628 22.50668388 36.08203125 20.72265625 C36.68466797 20.12646484 37.28730469 19.53027344 37.90820312 18.91601562 C38.53662109 18.30435547 39.16503906 17.69269531 39.8125 17.0625 C40.42931641 16.45470703 41.04613281 15.84691406 41.68164062 15.22070312 C42.89085956 14.0294747 44.10318536 12.84139046 45.31884766 11.65673828 C46.82625221 10.17122459 48.29662645 8.64835404 49.76171875 7.12109375 C52 5 52 5 55 4 C56.20882096 1.99983534 56.20882096 1.99983534 57 0 C61.41006862 0.4305067 63.83000573 3.4217054 66.75 6.4375 C67.25660156 6.94087891 67.76320313 7.44425781 68.28515625 7.96289062 C72 11.73280618 72 11.73280618 72 14 C70.56580496 15.2340748 69.12554257 16.46215372 67.6484375 17.64453125 C65.26598366 19.6035632 63.15185707 21.79296711 61 24 C59.824375 25.1446875 59.824375 25.1446875 58.625 26.3125 C56.50136456 28.48669819 54.53314401 30.69153131 52.5625 33 C49.602125 36.42273291 46.52113478 39.16778289 43 42 C42.154375 42.845625 41.30875 43.69125 40.4375 44.5625 C34.26190476 50.73809524 34.26190476 50.73809524 29.6875 51.6875 C25.83404899 50.96905998 25.00320984 50.43437655 22.22851562 47.90991211 C21.52855469 47.27423309 20.82859375 46.63855408 20.10742188 45.98361206 C16.89843985 42.96315587 13.75923943 39.88294026 10.65625 36.75390625 C10.00168823 36.09792953 9.34712646 35.44195282 8.67272949 34.76609802 C6.61276177 32.70059855 4.55632634 30.63162405 2.5 28.5625 C1.0913795 27.14885566 -0.31747267 25.73544214 -1.7265625 24.32226562 C-5.15372133 20.88416851 -8.57772019 17.44295344 -12 14 C-10.21799313 10.14972009 -7.92324595 7.7200858 -4.875 4.75 C-3.96492188 3.85796875 -3.05484375 2.9659375 -2.1171875 2.046875 C-1.41851562 1.37140625 -0.71984375 0.6959375 0 0 Z " fill="#040404" transform="translate(70,43)"/>
<path d="M0 0 C3.06999295 1.20380533 4.96637209 3.28777366 7.29573059 5.59016418 C8.65117981 6.89920715 8.65117981 6.89920715 10.03401184 8.23469543 C11.98323059 10.77766418 11.98323059 10.77766418 11.95515442 12.57917786 C10.49242305 15.88786812 7.97135041 18.05488741 5.38166809 20.49641418 C4.24079725 21.60423398 3.1001798 22.71231478 1.95979309 23.82063293 C0.15547004 25.55646857 -1.65267004 27.28804255 -3.46598816 29.01448059 C-5.21499528 30.68523767 -6.94847063 32.37092882 -8.68083191 34.05891418 C-9.22970062 34.57256531 -9.77856934 35.08621643 -10.34407043 35.61543274 C-13.13452739 38.24014304 -13.13452739 38.24014304 -14.20036316 41.77766418 C-12.40329151 44.8143001 -9.96053606 47.09670314 -7.41520691 49.49641418 C-6.27433607 50.60423398 -5.13371862 51.71231478 -3.99333191 52.82063293 C-2.18900886 54.55646857 -0.38086877 56.28804255 1.43244934 58.01448059 C3.18145646 59.68523767 4.91493181 61.37092882 6.64729309 63.05891418 C7.1961618 63.57256531 7.74503052 64.08621643 8.31053162 64.61543274 C9.81770325 66.09211731 9.81770325 66.09211731 11.98323059 68.77766418 C11.92128941 72.96311805 8.99953517 75.22822573 6.17073059 78.09016418 C5.29803528 78.993797 4.42533997 79.89742981 3.52619934 80.82844543 C0.98323059 82.77766418 0.98323059 82.77766418 -1.12614441 82.77375793 C-3.32930646 81.61300107 -4.74713734 80.3412456 -6.45426941 78.52766418 C-7.05755066 77.89602356 -7.66083191 77.26438293 -8.28239441 76.61360168 C-8.85473816 76.00774231 -9.42708191 75.40188293 -10.01676941 74.77766418 C-10.90364441 73.91141418 -11.79051941 73.04516418 -12.70426941 72.15266418 C-15.01676941 69.77766418 -15.01676941 69.77766418 -16.82926941 67.40266418 C-18.78189847 65.05950931 -20.70746943 63.24974661 -23.01676941 61.27766418 C-26.08579587 58.65679501 -28.56213109 55.99408681 -31.01676941 52.77766418 C-31.86239441 51.93203918 -32.70801941 51.08641418 -33.57926941 50.21516418 C-38.89933066 44.89510293 -38.89933066 44.89510293 -39.31632996 40.92732239 C-38.95197816 37.09643198 -38.06591109 36.04974812 -35.41130066 33.32063293 C-34.58839539 32.46131165 -33.76549011 31.60199036 -32.91764832 30.71662903 C-32.22472687 30.01518768 -32.22472687 30.01518768 -31.51780701 29.29957581 C-29.90032344 27.65959887 -28.30625776 25.99882723 -26.71354675 24.33479309 C-23.70050769 21.19828985 -20.65522182 18.09553572 -17.59465027 15.00544739 C-16.32012208 13.7141296 -15.05101357 12.41744293 -13.78703308 11.11579895 C-11.94187373 9.21625198 -10.08113348 7.33334622 -8.21598816 5.45344543 C-7.65240097 4.86718887 -7.08881378 4.28093231 -6.50814819 3.6769104 C-2.53088601 -0.27901385 -2.53088601 -0.27901385 0 0 Z " fill="#040405" transform="translate(145.0167694091797,59.22233581542969)"/>
<path d="M0 0 C3.07142895 1.37705097 5.24701662 2.96679218 7.66699219 5.29711914 C8.36741638 5.96864517 9.06784058 6.6401712 9.78948975 7.33204651 C12.9514965 10.41802745 16.11202718 13.50509697 19.25537109 16.61010742 C20.91586337 18.24248606 22.58614089 19.86497133 24.26611328 21.47729492 C26.69451729 23.80822913 29.09181399 26.16751055 31.484375 28.53515625 C32.23740906 29.24801285 32.99044312 29.96086945 33.76629639 30.69532776 C37.06280253 34.01951474 39.48830491 36.69105188 39.97558594 41.46826172 C39.40217643 47.53274014 35.13062151 50.99074298 30.90625 54.97265625 C30.08499634 55.78117538 29.26374268 56.58969452 28.41760254 57.42271423 C25.7988177 59.99126102 23.15046543 62.52669736 20.5 65.0625 C18.71540247 66.80194038 16.93282484 68.54345567 15.15234375 70.28710938 C10.7913503 74.54906231 6.40567402 78.78427688 2 83 C-1.85027991 81.21799313 -4.2799142 78.92324595 -7.25 75.875 C-8.14203125 74.96492188 -9.0340625 74.05484375 -9.953125 73.1171875 C-10.96632812 72.06917969 -10.96632812 72.06917969 -12 71 C-10.37843976 66.89891114 -7.4232297 64.16851833 -4.3359375 61.140625 C-3.50783066 60.316763 -3.50783066 60.316763 -2.66299438 59.47625732 C-0.90498185 57.72940707 0.8598689 55.98965399 2.625 54.25 C3.8207708 53.06426409 5.01608865 51.8780712 6.2109375 50.69140625 C9.13540253 47.78894915 12.06601874 44.8928359 15 42 C13.66828017 38.00484052 11.19104539 36.64788873 8 34 C8 33.34 8 32.68 8 32 C7.01 31.67 6.02 31.34 5 31 C5 30.34 5 29.68 5 29 C4.01 28.67 3.02 28.34 2 28 C-0.75510948 25.46239916 -3.20872146 22.7792006 -5.5625 19.875 C-7.60627348 17.46439539 -9.39287695 15.73808203 -12 14 C-10.41332422 10.09714233 -7.86649519 7.66479018 -4.875 4.75 C-3.96492188 3.85796875 -3.05484375 2.9659375 -2.1171875 2.046875 C-1.41851562 1.37140625 -0.71984375 0.6959375 0 0 Z " fill="#030303" transform="translate(54,59)"/>
</svg>
