<?xml version="1.0" encoding="UTF-8"?>
<svg version="1.1" xmlns="http://www.w3.org/2000/svg" width="128" height="128">
<path d="M0 0 C42.24 0 84.48 0 128 0 C128 42.24 128 84.48 128 128 C85.76 128 43.52 128 0 128 C0 85.76 0 43.52 0 0 Z " fill="#E5E6E5" transform="translate(0,0)"/>
<path d="M0 0 C0.66 0.33 1.32 0.66 2 1 C1.97679688 1.53625 1.95359375 2.0725 1.9296875 2.625 C1.74002024 10.86197799 2.86918898 18.86219924 4 27 C5.50736624 25.8142624 7.01471342 24.62850056 8.52197266 23.44262695 C9.8031606 22.43593263 11.08539525 21.43056906 12.36865234 20.42651367 C15.19800671 18.21172339 18.01377178 15.98871292 20.79296875 13.7109375 C21.56253906 13.08445312 22.33210938 12.45796875 23.125 11.8125 C23.78757813 11.26207031 24.45015625 10.71164063 25.1328125 10.14453125 C27 9 27 9 31 9 C33.32421875 11.265625 33.32421875 11.265625 35.6875 14.25 C36.47511719 15.22453125 37.26273437 16.1990625 38.07421875 17.203125 C39.80919211 19.72288347 40.39888694 21.1100185 41 24 C39.42412109 25.17755859 39.42412109 25.17755859 37.81640625 26.37890625 C34.20097769 29.08283519 30.59066555 31.79349466 26.98339844 34.50830078 C25.33721481 35.74638325 23.68846647 36.98105476 22.0390625 38.21484375 C21.26304688 38.80394531 20.48703125 39.39304688 19.6875 40 C19.03136719 40.495 18.37523437 40.99 17.69921875 41.5 C15.81822039 43.16046752 14.43630737 44.94939502 13 47 C13.99 47.495 13.99 47.495 15 48 C15 48.66 15 49.32 15 50 C15.80824219 49.77957031 16.61648437 49.55914062 17.44921875 49.33203125 C22.12370407 48.89492316 25.46043851 50.09582534 29.8125 51.6875 C30.58787109 51.94466797 31.36324219 52.20183594 32.16210938 52.46679688 C32.89880859 52.72912109 33.63550781 52.99144531 34.39453125 53.26171875 C35.06331299 53.49850342 35.73209473 53.73528809 36.42114258 53.97924805 C38 55 38 55 38.77001953 56.9765625 C39.07346802 59.64639376 38.50253837 60.7941458 37 63 C32.22259729 66.60882939 25.94922094 68.80553626 20 68 C13.05111489 65.71053464 6.5245424 62.26809909 0 59 C-0.43344727 59.38333496 -0.86689453 59.76666992 -1.31347656 60.16162109 C-3.28845726 61.90384752 -5.26914146 63.63946035 -7.25 65.375 C-7.93191406 65.97828125 -8.61382812 66.5815625 -9.31640625 67.203125 C-9.98027344 67.78320312 -10.64414062 68.36328125 -11.328125 68.9609375 C-11.9355957 69.49509277 -12.54306641 70.02924805 -13.16894531 70.57958984 C-15.02901183 72.02250544 -16.86404532 73.02273888 -19 74 C-19.33 73.01 -19.66 72.02 -20 71 C-20.66 71 -21.32 71 -22 71 C-22.0825 70.38125 -22.165 69.7625 -22.25 69.125 C-22.81258459 66.81562433 -22.81258459 66.81562433 -25.0625 65.75 C-26.0215625 65.37875 -26.0215625 65.37875 -27 65 C-27 64.34 -27 63.68 -27 63 C-27.66 63 -28.32 63 -29 63 C-29.33 61.68 -29.66 60.36 -30 59 C-16.3667426 46.33029613 -16.3667426 46.33029613 -10 41 C-10.33 39.80375 -10.66 38.6075 -11 37.375 C-12.8996076 28.75160147 -13.62875897 19.76157241 -9 12 C-7.5 10.05859375 -7.5 10.05859375 -6 8.4375 C-3.62762464 5.78185594 -1.7131775 3.14082541 0 0 Z " fill="#A5AAAF" transform="translate(59,29)"/>
<path d="M0 0 C3.91147658 1.30382553 4.52742643 3.01918185 6.75 6.4375 C9.98712302 11.23874572 9.98712302 11.23874572 15 13.6875 C16.485 13.8421875 16.485 13.8421875 18 14 C17.67 15.32 17.34 16.64 17 18 C21.01139468 19.22085925 25.02914396 20.28616641 29.125 21.1875 C30.33542969 21.45626953 30.33542969 21.45626953 31.5703125 21.73046875 C34.27158416 22.0301275 36.37666568 21.65816751 39 21 C39 21.66 39 22.32 39 23 C40.65 22.67 42.3 22.34 44 22 C43.01 20.35 42.02 18.7 41 17 C42.65 17.33 44.3 17.66 46 18 C46.0625 20.6875 46.0625 20.6875 45 24 C40.78374143 27.54954508 35.25033877 30.00917307 29.734375 30.41015625 C21.72973411 29.20946012 14.1496129 24.58119267 7 21 C6.56655273 21.38333496 6.13310547 21.76666992 5.68652344 22.16162109 C3.71154274 23.90384752 1.73085854 25.63946035 -0.25 27.375 C-1.27287109 28.27992187 -1.27287109 28.27992187 -2.31640625 29.203125 C-2.98027344 29.78320312 -3.64414062 30.36328125 -4.328125 30.9609375 C-5.23933105 31.76217041 -5.23933105 31.76217041 -6.16894531 32.57958984 C-8.02901183 34.02250544 -9.86404532 35.02273888 -12 36 C-12.495 34.515 -12.495 34.515 -13 33 C-13.66 33 -14.32 33 -15 33 C-15.12375 32.071875 -15.12375 32.071875 -15.25 31.125 C-15.81258459 28.81562433 -15.81258459 28.81562433 -18.0625 27.75 C-18.701875 27.5025 -19.34125 27.255 -20 27 C-20 26.34 -20 25.68 -20 25 C-20.66 25 -21.32 25 -22 25 C-22.33 23.68 -22.66 22.36 -23 21 C-9.68406554 8.63810352 -9.68406554 8.63810352 -3.48828125 3.3046875 C-2.28385674 2.24884029 -1.13257488 1.13257488 0 0 Z " fill="#999FA6" transform="translate(52,67)"/>
<path d="M0 0 C0.66 0.33 1.32 0.66 2 1 C2.0872253 5.39570794 2.14046869 9.79119271 2.1875 14.1875 C2.21263672 15.43337891 2.23777344 16.67925781 2.26367188 17.96289062 C2.27817383 19.7659668 2.27817383 19.7659668 2.29296875 21.60546875 C2.31653442 23.26292114 2.31653442 23.26292114 2.34057617 24.95385742 C1.74711047 30.26186567 -1.51436543 34.09186427 -5 38 C-7.25 39.3125 -7.25 39.3125 -9 40 C-12.42268269 32.86941107 -12.92828165 25.84489 -12 18 C-10.45908251 14.3008969 -8.7139853 11.37058307 -6 8.4375 C-3.62762464 5.78185594 -1.7131775 3.14082541 0 0 Z " fill="#CEB55B" transform="translate(59,29)"/>
<path d="M0 0 C3.91147658 1.30382553 4.52742643 3.01918185 6.75 6.4375 C9.98712302 11.23874572 9.98712302 11.23874572 15 13.6875 C15.99 13.790625 16.98 13.89375 18 14 C17.67 15.32 17.34 16.64 17 18 C21.01139468 19.22085925 25.02914396 20.28616641 29.125 21.1875 C30.33542969 21.45626953 30.33542969 21.45626953 31.5703125 21.73046875 C34.27158416 22.0301275 36.37666568 21.65816751 39 21 C39 21.66 39 22.32 39 23 C40.65 22.67 42.3 22.34 44 22 C43.01 20.35 42.02 18.7 41 17 C42.65 17.33 44.3 17.66 46 18 C46.0625 20.6875 46.0625 20.6875 45 24 C41.17174739 27.37636533 36.84481359 29.45149411 31.6875 29.1875 C25.64013235 28.10152905 20.33583509 24.91115749 15 22 C13.6697694 21.32716363 12.33775223 20.65775466 11 20 C11 19.34 11 18.68 11 18 C10.42636719 17.77054688 9.85273437 17.54109375 9.26171875 17.3046875 C6.410028 15.65967073 4.8508057 13.70251978 2.8125 11.125 C1.77029297 9.82949219 1.77029297 9.82949219 0.70703125 8.5078125 C-0.85699572 6.21008867 -1.79101676 4.7585788 -2 2 C-1.34 1.34 -0.68 0.68 0 0 Z " fill="#A0944B" transform="translate(52,67)"/>
<path d="M0 0 C1.65 0 3.3 0 5 0 C5 0.66 5 1.32 5 2 C5.83917969 1.78859375 6.67835937 1.5771875 7.54296875 1.359375 C11.74972174 0.92206283 14.35807968 1.79684449 18.3125 3.25 C19.54613281 3.68828125 20.77976562 4.1265625 22.05078125 4.578125 C23.51064453 5.28195313 23.51064453 5.28195313 25 6 C25.66666667 8 26.33333333 10 27 12 C25.35 12.33 23.7 12.66 22 13 C22 12.34 22 11.68 22 11 C21.113125 11.4125 20.22625 11.825 19.3125 12.25 C13.05054736 14.11827805 5.62239376 10.81119688 0 8 C0.33 6.68 0.66 5.36 1 4 C0.34 4 -0.32 4 -1 4 C-0.67 2.68 -0.34 1.36 0 0 Z " fill="#E2CD73" transform="translate(69,77)"/>
<path d="M0 0 C0.66 0 1.32 0 2 0 C2.12375 1.03125 2.2475 2.0625 2.375 3.125 C2.94528027 6.66073769 3.61906463 9.70109884 5 13 C5.99 13.66 6.98 14.32 8 15 C7.12323882 16.1810666 6.22268773 17.34449718 5.3125 18.5 C4.81363281 19.1496875 4.31476563 19.799375 3.80078125 20.46875 C2 22 2 22 -0.40234375 22.578125 C-4.2052132 21.7317721 -5.73298885 19.2798184 -7.875 16.25 C-8.29007813 15.71117188 -8.70515625 15.17234375 -9.1328125 14.6171875 C-12.02426436 10.66553663 -12.02426436 10.66553663 -11.91796875 7.75 C-10.53009679 5.10418453 -8.39233527 3.71757404 -6 2 C-5.74476562 3.04800781 -5.74476562 3.04800781 -5.484375 4.1171875 C-5.24203125 5.02726562 -4.9996875 5.93734375 -4.75 6.875 C-4.51796875 7.77992187 -4.2859375 8.68484375 -4.046875 9.6171875 C-3.20122743 12.13654232 -3.20122743 12.13654232 -0.953125 13.3203125 C0.81273902 14.05477786 0.81273902 14.05477786 2 14 C1.505 13.13375 1.01 12.2675 0.5 11.375 C-1.06086639 7.86305063 -1.34410712 5.78517831 -1 2 C-0.67 1.34 -0.34 0.68 0 0 Z " fill="#A3A5A5" transform="translate(66,58)"/>
<path d="M0 0 C1.65 0.33 3.3 0.66 5 1 C5 1.66 5 2.32 5 3 C4.01 3 3.02 3 2 3 C2.66 6.3 3.32 9.6 4 13 C2.68 13 1.36 13 0 13 C0 14.65 0 16.3 0 18 C0.66 18 1.32 18 2 18 C1.67 19.65 1.34 21.3 1 23 C-2 22 -2 22 -3.13671875 20.2109375 C-5.08487844 15.22153306 -5.64010627 10.64598754 -3.6875 5.625 C-2.47513213 3.73909442 -1.24362692 1.86544037 0 0 Z " fill="#E7D48D" transform="translate(52,38)"/>
<path d="M0 0 C1.77706209 2.66559313 2.87548273 5.0280615 4 8 C5.41377341 5.36095629 6.37240135 2.92879371 7 0 C7.99 0.66 8.98 1.32 10 2 C12.88214887 1.11785113 12.88214887 1.11785113 15 0 C15.66 1.65 16.32 3.3 17 5 C15.45346042 6.37236619 13.88707224 7.72238961 12.3125 9.0625 C11.44238281 9.81660156 10.57226562 10.57070312 9.67578125 11.34765625 C7 13 7 13 4.16796875 12.74609375 C3.45253906 12.49988281 2.73710938 12.25367187 2 12 C0.40861915 7.82262526 -0.21278058 4.46839215 0 0 Z " fill="#A3A7AE" transform="translate(68,59)"/>
<path d="M0 0 C3.90562315 1.30187438 4.691951 3.07596651 7 6.4375 C9.96513762 10.74657801 9.96513762 10.74657801 14 14 C12.75 15.5625 12.75 15.5625 11 17 C7.99641885 16.82219816 7.02194771 16.02235491 4.89453125 13.85546875 C4.20746094 12.97503906 3.52039062 12.09460938 2.8125 11.1875 C2.11769531 10.31480469 1.42289063 9.44210938 0.70703125 8.54296875 C-0.84391014 6.23252745 -1.79035723 4.76129483 -2 2 C-1.34 1.34 -0.68 0.68 0 0 Z " fill="#575857" transform="translate(52,67)"/>
<path d="M0 0 C0.33 0 0.66 0 1 0 C1.268125 1.258125 1.53625 2.51625 1.8125 3.8125 C2.59532537 6.99448801 3.25335928 9.00244311 6 11 C6.33 9.68 6.66 8.36 7 7 C7.78375 6.87625 8.5675 6.7525 9.375 6.625 C12.14057822 6.20882007 12.14057822 6.20882007 14 4 C13.71637301 9.81435334 11.18303812 13.19901923 7 17 C4.80078125 18.203125 4.80078125 18.203125 3 19 C0.04328652 12.47059106 -0.35368021 7.12600133 0 0 Z " fill="#CDB962" transform="translate(47,50)"/>
<path d="M0 0 C0.66 0.33 1.32 0.66 2 1 C2 7.6 2 14.2 2 21 C1.01 20.34 0.02 19.68 -1 19 C-1.1875 15.875 -1.1875 15.875 -1 13 C-1.99 13 -2.98 13 -4 13 C-4 14.65 -4 16.3 -4 18 C-4.33 18 -4.66 18 -5 18 C-5 16.02 -5 14.04 -5 12 C-4.01 12 -3.02 12 -2 12 C-2.99 10.68 -3.98 9.36 -5 8 C-3.35 5.36 -1.7 2.72 0 0 Z " fill="#CAB566" transform="translate(59,29)"/>
<path d="M0 0 C2.70975727 4.0646359 4.45789719 8.37369157 6 13 C5.01 13 4.02 13 3 13 C2.67 12.34 2.34 11.68 2 11 C2 11.66 2 12.32 2 13 C-0.71928517 12.62492618 -1.84218661 12.15781339 -3.8125 10.1875 C-5 8 -5 8 -4.9375 6 C-3.73895537 3.44310478 -2.0814699 1.88003733 0 0 Z " fill="#C6C8CA" transform="translate(59,60)"/>
<path d="M0 0 C3.36720387 1.39332574 4.9859524 2.9789286 7 6 C6 8 6 8 4.15234375 8.6328125 C3.05599609 8.87644531 3.05599609 8.87644531 1.9375 9.125 C1.20402344 9.29257812 0.47054687 9.46015625 -0.28515625 9.6328125 C-0.85105469 9.75398438 -1.41695313 9.87515625 -2 10 C-4 7 -4 7 -3.8125 5 C-2.90059285 2.75530549 -1.81466246 1.57796735 0 0 Z " fill="#A7ADB4" transform="translate(87,37)"/>
<path d="M0 0 C0.8353125 0.37125 0.8353125 0.37125 1.6875 0.75 C1.3575 2.07 1.0275 3.39 0.6875 4.75 C1.80125 5.03875 2.915 5.3275 4.0625 5.625 C7.6875 6.75 7.6875 6.75 9.6875 8.75 C4.2485835 8.96755666 -0.18330814 8.85428384 -5.3125 6.75 C-5.3125 6.09 -5.3125 5.43 -5.3125 4.75 C-5.9725 4.42 -6.6325 4.09 -7.3125 3.75 C-2.88173077 -0.31153846 -2.88173077 -0.31153846 0 0 Z " fill="#9B893D" transform="translate(68.3125,80.25)"/>
<path d="M0 0 C5.75 0.875 5.75 0.875 8 2 C9.67116886 1.88708319 11.33855636 1.71251023 13 1.5 C17.77777778 0.88888889 17.77777778 0.88888889 20 2 C21.67654729 1.72057545 23.34608154 1.39171753 25 1 C22.39992986 3.86007715 19.93242379 5.88915351 15.95703125 6.1171875 C10.06954925 5.45229882 5.27085776 3.67904118 0 1 C0 0.67 0 0.34 0 0 Z " fill="#6C674C" transform="translate(70,90)"/>
<path d="M0 0 C0.66 0 1.32 0 2 0 C2 0.66 2 1.32 2 2 C2.53625 2.10441406 3.0725 2.20882812 3.625 2.31640625 C6.62825606 3.18083028 9.21824209 4.51532627 12 5.9375 C13.03125 6.46214844 14.0625 6.98679687 15.125 7.52734375 C16.07375 8.01332031 17.0225 8.49929687 18 9 C19.33245557 9.66841932 20.66538585 10.33590113 22 11 C18.83854578 12.04914935 17.23862061 12.0077192 14.21484375 10.63671875 C13.51939453 10.32669922 12.82394531 10.01667969 12.10742188 9.69726562 C11.39134766 9.36404297 10.67527344 9.03082031 9.9375 8.6875 C9.21755859 8.36587891 8.49761719 8.04425781 7.75585938 7.71289062 C4.63375712 6.30113223 1.86450622 4.90967081 -1 3 C-0.67 2.01 -0.34 1.02 0 0 Z " fill="#B3B3AD" transform="translate(61,85)"/>
<path d="M0 0 C2.16874252 0.50603992 3.99967627 0.99983813 6 2 C6 2.99 6 3.98 6 5 C4.35 5.33 2.7 5.66 1 6 C1 5.34 1 4.68 1 4 C-0.051875 4.350625 -1.10375 4.70125 -2.1875 5.0625 C-5.7954681 5.94970527 -7.52632489 6.05262882 -11 5 C-10.360625 4.896875 -9.72125 4.79375 -9.0625 4.6875 C-8.381875 4.460625 -7.70125 4.23375 -7 4 C-6.67 3.01 -6.34 2.02 -6 1 C-3.03 1.495 -3.03 1.495 0 2 C0 1.34 0 0.68 0 0 Z " fill="#D3BF48" transform="translate(90,84)"/>
<path d="M0 0 C2 1 2 1 3.125 3.3125 C4 6 4 6 4 10 C4.66 10 5.32 10 6 10 C5.67 11.65 5.34 13.3 5 15 C2 14 2 14 0.85546875 12.23046875 C-0.04926529 9.87155032 -0.43441652 7.82259026 -0.6875 5.3125 C-0.77386719 4.52488281 -0.86023437 3.73726562 -0.94921875 2.92578125 C-0.96597656 2.29027344 -0.98273437 1.65476563 -1 1 C-0.67 0.67 -0.34 0.34 0 0 Z " fill="#DFC76D" transform="translate(48,46)"/>
<path d="M0 0 C1.6875 2 1.6875 2 3 4 C2.34 5.32 1.68 6.64 1 8 C-0.32 8 -1.64 8 -3 8 C-3 7.34 -3 6.68 -3 6 C-3.66 6 -4.32 6 -5 6 C-5.33 4.68 -5.66 3.36 -6 2 C-3 0 -3 0 0 0 Z " fill="#A0A6AD" transform="translate(42,94)"/>
<path d="M0 0 C10.55808656 0.77904328 10.55808656 0.77904328 15 3 C15 3.66 15 4.32 15 5 C14.2575 4.979375 13.515 4.95875 12.75 4.9375 C10.08136077 4.8423693 10.08136077 4.8423693 8.0625 5.75 C6 6 6 6 2.75 4.1875 C1.8425 3.465625 0.935 2.74375 0 2 C0 1.34 0 0.68 0 0 Z " fill="#E5CB71" transform="translate(68,79)"/>
<path d="M0 0 C3.90562315 1.30187438 4.691951 3.07596651 7 6.4375 C9.96513762 10.74657801 9.96513762 10.74657801 14 14 C12.35 13.67 10.7 13.34 9 13 C8.67 12.01 8.34 11.02 8 10 C7.34 10 6.68 10 6 10 C4.61767557 8.37373596 3.28062485 6.7074998 2 5 C1.01 6.485 1.01 6.485 0 8 C-0.66 6.02 -1.32 4.04 -2 2 C-1.34 1.34 -0.68 0.68 0 0 Z " fill="#666665" transform="translate(52,67)"/>
<path d="M0 0 C13.24038462 1.35576923 13.24038462 1.35576923 18 4 C18 4.66 18 5.32 18 6 C12.41647287 6.44080477 7.11144037 5.23395685 2 3 C1.34 2.01 0.68 1.02 0 0 Z " fill="#958438" transform="translate(66,87)"/>
<path d="M0 0 C0.66 0 1.32 0 2 0 C3.28446919 2.56893838 3.32977144 4.76576337 3.5625 7.625 C3.64628906 8.62789062 3.73007813 9.63078125 3.81640625 10.6640625 C3.87699219 11.43492188 3.93757813 12.20578125 4 13 C2.02 13.99 2.02 13.99 0 15 C-0.19390729 12.68802845 -0.37996367 10.3753971 -0.5625 8.0625 C-0.71912109 6.13083984 -0.71912109 6.13083984 -0.87890625 4.16015625 C-0.91886719 3.11730469 -0.95882812 2.07445312 -1 1 C-0.67 0.67 -0.34 0.34 0 0 Z " fill="#CECABE" transform="translate(62,42)"/>
<path d="M0 0 C0.66 0 1.32 0 2 0 C3.125 1.625 3.125 1.625 4 4 C3.07647305 8.19784979 2.64025108 9.57316595 -1 12 C-2.1875 10.4375 -2.1875 10.4375 -3 8 C-1.625 4.3125 -1.625 4.3125 0 1 C0 0.67 0 0.34 0 0 Z " fill="#9399A0" transform="translate(46,87)"/>
<path d="M0 0 C2.24151134 2.24151134 2.88195135 3.93138755 4 6.875 C5.19719556 10.00828527 6.44975459 13.02408246 8 16 C1.33 12.78 1.33 12.78 0.3125 10.375 C-0.14471421 6.900172 -0.05840231 3.50413832 0 0 Z " fill="#7E8183" transform="translate(62,58)"/>
<path d="M0 0 C3 1 3 1 4.75 3.875 C6 7 6 7 5 10 C6.32 10.33 7.64 10.66 9 11 C6.8125 11.4375 6.8125 11.4375 4 11 C2.01558218 8.86004673 0.4976696 6.49824035 -1 4 C-0.01 4 0.98 4 2 4 C1.34 2.68 0.68 1.36 0 0 Z " fill="#A2A4A6" transform="translate(59,69)"/>
<path d="M0 0 C0.99 0.33 1.98 0.66 3 1 C3 1.66 3 2.32 3 3 C2.34 3 1.68 3 1 3 C1 3.99 1 4.98 1 6 C2.32 6.66 3.64 7.32 5 8 C5 8.66 5 9.32 5 10 C2.28071483 9.62492618 1.15781339 9.15781339 -0.8125 7.1875 C-2 5 -2 5 -1.75 2.8125 C-1 1 -1 1 0 0 Z " fill="#BABCBF" transform="translate(56,63)"/>
<path d="M0 0 C0.66 0 1.32 0 2 0 C2 3.3 2 6.6 2 10 C1.01 10.33 0.02 10.66 -1 11 C-2.23076923 4.6 -2.23076923 4.6 -1.0625 1.5625 C-0.711875 1.046875 -0.36125 0.53125 0 0 Z " fill="#DDDDD1" transform="translate(62,32)"/>
<path d="M0 0 C1.65 0 3.3 0 5 0 C5 0.66 5 1.32 5 2 C5.928125 1.773125 6.85625 1.54625 7.8125 1.3125 C11 1 11 1 12.875 2.4375 C13.431875 3.2109375 13.431875 3.2109375 14 4 C12.0625 4.5625 12.0625 4.5625 10 5 C9.67 4.67 9.34 4.34 9 4 C7.48530552 3.76807135 5.96245438 3.58784762 4.4375 3.4375 C3.61121094 3.35371094 2.78492187 3.26992187 1.93359375 3.18359375 C1.29550781 3.12300781 0.65742187 3.06242187 0 3 C0 2.01 0 1.02 0 0 Z " fill="#CCB361" transform="translate(69,77)"/>
<path d="M0 0 C1 3 1 3 -0.1875 5.5 C-1.94150569 7.9193182 -3.51794573 9.37382651 -6 11 C-7 8 -7 8 -6.3125 5.9375 C-4.77617643 3.66959378 -3.45716327 3.10968664 -1 2 C-0.67 1.34 -0.34 0.68 0 0 Z " fill="#D7BF66" transform="translate(60,54)"/>
<path d="M0 0 C1.98 0.495 1.98 0.495 4 1 C3.67 2.32 3.34 3.64 3 5 C4.11375 5.28875 5.2275 5.5775 6.375 5.875 C10 7 10 7 12 9 C7.40375182 8.08075036 3.17409117 6.08704559 -1 4 C-0.67 2.68 -0.34 1.36 0 0 Z " fill="#B69D33" transform="translate(66,80)"/>
<path d="M0 0 C0.33 0.66 0.66 1.32 1 2 C1.66 2 2.32 2 3 2 C3 2.66 3 3.32 3 4 C-4.28571429 8.57142857 -4.28571429 8.57142857 -9 8 C-6.98399225 6.41599391 -5.15123812 5.06913743 -2.8125 4 C-0.64763188 3.07270141 -0.64763188 3.07270141 0 0 Z " fill="#B9B8B0" transform="translate(97,88)"/>
<path d="M0 0 C3.57314692 0 4.82043338 0.35893336 8 2 C7.67 2.66 7.34 3.32 7 4 C4.6859378 4.73075648 2.35171131 5.40138258 0 6 C0.185625 5.38125 0.37125 4.7625 0.5625 4.125 C1.23686176 1.95839822 1.23686176 1.95839822 0 0 Z M-2 1 C0 2 0 2 0 2 Z " fill="#A0A5AD" transform="translate(44,75)"/>
<path d="M0 0 C0.66 0 1.32 0 2 0 C2 3.63 2 7.26 2 11 C-1 8 -1 8 -1.25 4.9375 C-1 2 -1 2 0 0 Z " fill="#C1C5CA" transform="translate(66,58)"/>
<path d="M0 0 C0 1.32 0 2.64 0 4 C-0.66 4 -1.32 4 -2 4 C-2.33 5.98 -2.66 7.96 -3 10 C-4.20628008 7.66785852 -5.1654738 5.50357861 -6 3 C-2.25 0 -2.25 0 0 0 Z " fill="#999A9B" transform="translate(68,54)"/>
<path d="M0 0 C1.8272911 2.74093665 2.93698178 5.13825324 4.125 8.1875 C4.47820312 9.08855469 4.83140625 9.98960938 5.1953125 10.91796875 C5.46085937 11.60503906 5.72640625 12.29210937 6 13 C4.078125 12.66796875 4.078125 12.66796875 2 12 C0.11301833 7.94298942 -0.21117043 4.43457902 0 0 Z " fill="#75787D" transform="translate(68,59)"/>
<path d="M0 0 C0.99 0 1.98 0 3 0 C3.33 2.31 3.66 4.62 4 7 C3.01 7.66 2.02 8.32 1 9 C0 8 0 8 -0.09765625 6.15234375 C-0.06510417 4.1015625 -0.03255208 2.05078125 0 0 Z " fill="#A88F48" transform="translate(55,42)"/>
<path d="M0 0 C0.66 0 1.32 0 2 0 C2.125 3.375 2.125 3.375 2 7 C1.34 7.66 0.68 8.32 0 9 C-0.99 7.68 -1.98 6.36 -3 5 C-1.625 2.5 -1.625 2.5 0 0 Z " fill="#D3BF6F" transform="translate(57,32)"/>
<path d="M0 0 C-0.33 0.99 -0.66 1.98 -1 3 C-3.75 3.6875 -3.75 3.6875 -7 4 C-9.375 2.5625 -9.375 2.5625 -11 1 C-10.05125 1.020625 -9.1025 1.04125 -8.125 1.0625 C-4.96309465 0.99926189 -3.14866406 0 0 0 Z " fill="#AA9127" transform="translate(91,88)"/>
<path d="M0 0 C2.97 0.495 2.97 0.495 6 1 C5.625 2.9375 5.625 2.9375 5 5 C4.01 5.495 4.01 5.495 3 6 C1.5 4.6875 1.5 4.6875 0 3 C0 2.01 0 1.02 0 0 Z " fill="#B4973B" transform="translate(54,52)"/>
<path d="M0 0 C1.65 1.65 3.3 3.3 5 5 C4.67 5.99 4.34 6.98 4 8 C3.34 7.67 2.68 7.34 2 7 C2 6.34 2 5.68 2 5 C1.34 5 0.68 5 0 5 C-0.5625 3.0625 -0.5625 3.0625 -1 1 C-0.67 0.67 -0.34 0.34 0 0 Z " fill="#767A81" transform="translate(56,79)"/>
<path d="M0 0 C0.66 0.33 1.32 0.66 2 1 C1.34 2.32 0.68 3.64 0 5 C-1.32 5 -2.64 5 -4 5 C-4 4.34 -4 3.68 -4 3 C-2 1.375 -2 1.375 0 0 Z " fill="#B3B6BC" transform="translate(43,97)"/>
<path d="M0 0 C-3.60752884 2.40501922 -5.45356758 3.24602334 -9.75 2.5625 C-10.4925 2.376875 -11.235 2.19125 -12 2 C-8.09971775 -0.60018816 -4.52565431 -0.15085514 0 0 Z " fill="#CDB444" transform="translate(91,87)"/>
<path d="M0 0 C1.7074998 1.28062485 3.37373596 2.61767557 5 4 C5 4.66 5 5.32 5 6 C3.68 6 2.36 6 1 6 C1 5.34 1 4.68 1 4 C0.01 3.67 -0.98 3.34 -2 3 C-1.34 2.01 -0.68 1.02 0 0 Z " fill="#E1D499" transform="translate(73,73)"/>
<path d="M0 0 C4.875 2.625 4.875 2.625 6 6 C5.34 6.66 4.68 7.32 4 8 C0 2.25 0 2.25 0 0 Z " fill="#8A8E98" transform="translate(50,74)"/>
<path d="M0 0 C2.64 1.65 5.28 3.3 8 5 C4.61976483 5 2.16531063 4.12544378 -1 3 C-0.67 2.01 -0.34 1.02 0 0 Z " fill="#CEB64D" transform="translate(70,82)"/>
<path d="M0 0 C1.32 1.65 2.64 3.3 4 5 C2.35 5.33 0.7 5.66 -1 6 C-1.042721 4.33388095 -1.04063832 2.66617115 -1 1 C-0.67 0.67 -0.34 0.34 0 0 Z " fill="#B8BBBE" transform="translate(65,73)"/>
<path d="M0 0 C2 1 2 1 3.125 4.0625 C3.41375 5.031875 3.7025 6.00125 4 7 C2.68 7 1.36 7 0 7 C-0.38133299 5.0085944 -0.71325582 3.00720923 -1 1 C-0.67 0.67 -0.34 0.34 0 0 Z " fill="#E1CA7F" transform="translate(48,46)"/>
<path d="M0 0 C0.66 0.33 1.32 0.66 2 1 C1.67 3.97 1.34 6.94 1 10 C0.67 10 0.34 10 0 10 C-0.19412181 8.52168779 -0.38012131 7.04230684 -0.5625 5.5625 C-0.66691406 4.73878906 -0.77132812 3.91507813 -0.87890625 3.06640625 C-0.91886719 2.38449219 -0.95882812 1.70257812 -1 1 C-0.67 0.67 -0.34 0.34 0 0 Z " fill="#A8996A" transform="translate(59,29)"/>
</svg>
