<svg width="256" height="256" fill="none" xmlns="http://www.w3.org/2000/svg"><g clip-path="url(#a)"><path d="M128 256a128 128 0 1 0 0-256 128 128 0 0 0 0 256Z" fill="#FFCE4F"/><path d="m72.6 218.8-20-15.8-8.2-102.8L179 62l-3 20-61.3 25.6-21.5 26.8-7 23.7-3.1 52.7-10.4 7.9Z" fill="#FFE815"/><path d="M178.2 85.3c-23.9-10.1-6.8-18 5.2-20.3l37.3-14v30.8l-18.4-2.6c-4 .8-14.3 3-24 6.1Z" fill="#B2D01E"/><path d="m166.3 54.9-.8 12.4c18.5-.6 27.7-1 37.2 2 3 .9 13.1-14 13.1-18L202.7 59l-36.4-4Z" fill="#798D12"/><path d="M67.4 194.6c4.4 12.6-9.7 11.2-15.6 7.3l-11-12.6-8.8-52.9 81.4-80h56.7c-1.7 2.2-4.8 6 5.3 10.7C29 83.7 61 177.9 67.4 194.6Z" fill="#E2AF16"/><path d="M43 190.6c-11-50 14.6-105.9 107-137.4C94.4 51 0 92.2 43 190.6Z" fill="#A65A0A"/><path d="M222 56.2c-2-10.2-13.6-2.4-19.2 2.7-24.2 0-44.8-11.4-98.8 0S36 113 33.5 127.5a93 93 0 0 0 29.8 85.6c12.7 12.3 24.7 0 22.2-15.5-5-25.5-1.8-81.3 50.4-100.5a698 698 0 0 1 67-18c4.6 3.3 15 7.7 19-1 .8-3 2-11.6 0-21.9Z" stroke="#000" stroke-width="6"/><path d="m147.1 65.1.8 3.5m6.7-4 .9 3.6" stroke="#000" stroke-width="6" stroke-linecap="round"/><path d="M85.5 97.5c1.6-1.5 5.5-4.8 8.2-5.7" stroke="#010100" stroke-width="6" stroke-linecap="round"/></g><defs><clipPath id="a"><path fill="#fff" d="M0 0h256v256H0z"/></clipPath></defs></svg>