<?xml version="1.0" standalone="no"?>
<!DOCTYPE svg PUBLIC "-//W3C//DTD SVG 20010904//EN"
 "http://www.w3.org/TR/2001/REC-SVG-20010904/DTD/svg10.dtd">
<svg version="1.0" xmlns="http://www.w3.org/2000/svg"
 width="200.000000pt" height="200.000000pt" viewBox="0 0 200.000000 200.000000"
 preserveAspectRatio="xMidYMid meet">

<g transform="translate(0.000000,200.000000) scale(0.100000,-0.100000)"
fill="#000000" stroke="none">
<path d="M827 1985 c-395 -75 -702 -364 -799 -752 -18 -70 -22 -117 -22 -233
0 -182 22 -278 99 -436 133 -274 366 -462 662 -536 70 -18 117 -22 233 -22
182 0 278 22 436 99 274 133 462 366 536 662 18 70 22 117 22 233 0 182 -22
278 -99 436 -132 272 -367 463 -657 535 -111 27 -306 34 -411 14z m-125 -408
c-4 -59 -7 -67 -22 -62 -10 3 -24 -1 -32 -9 -8 -8 -43 -28 -77 -45 -57 -29
-61 -30 -51 -10 10 18 183 201 186 196 0 -1 -1 -33 -4 -70z m11 -100 c4 3 7 1
7 -5 0 -7 11 -12 24 -12 14 0 27 -4 30 -9 9 -15 -42 -22 -102 -15 -53 6 -59 4
-84 -21 -50 -50 -58 -134 -13 -151 14 -6 13 -8 -2 -19 -16 -12 -16 -14 1 -41
10 -16 30 -39 45 -52 23 -21 22 -20 -15 3 -23 14 -46 36 -52 48 -11 23 -25
121 -25 170 0 32 41 79 70 82 27 3 73 27 73 38 0 6 8 3 18 -6 10 -10 22 -14
25 -10z m105 -71 c16 -18 16 -18 -10 -12 -32 7 -58 -1 -58 -19 0 -9 13 -11 45
-7 44 4 45 4 45 -23 0 -27 -1 -27 -19 -11 -22 20 -52 18 -58 -4 -4 -12 -3 -12
5 -2 12 17 42 12 53 -8 8 -15 20 -51 20 -60 1 -3 5 -11 11 -17 8 -10 6 -13 -5
-13 -8 0 -17 -7 -21 -15 -4 -11 -22 -15 -74 -15 -103 0 -132 8 -132 35 0 13 6
26 13 28 6 3 1 6 -13 6 -37 1 -50 19 -50 67 0 29 7 48 23 66 22 24 29 25 116
24 74 -2 95 -6 109 -20z m-319 -75 c15 -20 20 -39 17 -63 -3 -18 -5 -37 -5
-42 -2 -25 -15 9 -18 47 -5 57 -9 66 -35 77 l-23 9 22 0 c13 1 30 -11 42 -28z
m365 -15 c-3 -14 -10 -26 -15 -26 -5 0 -5 10 0 23 4 12 6 29 3 37 -3 11 -1 12
7 4 7 -7 9 -22 5 -38z m-394 16 c0 -4 -5 -13 -12 -20 -9 -9 -9 -12 0 -12 7 0
12 -10 12 -21 0 -16 -5 -20 -20 -16 -11 3 -20 0 -20 -5 0 -6 12 -8 30 -4 18 3
30 1 30 -5 0 -6 -5 -7 -12 -3 -7 5 -9 2 -5 -9 5 -14 2 -14 -26 2 -38 21 -49
65 -20 87 20 15 43 18 43 6z m1220 -89 c0 -5 7 -48 14 -98 8 -49 13 -91 12
-92 0 0 -10 -3 -21 -5 -15 -2 -21 3 -23 20 -4 29 -25 23 -32 -9 -6 -25 -40
-40 -40 -17 0 7 5 42 10 78 21 138 18 130 50 130 17 0 30 -3 30 -7z m-112
-115 c-3 -95 -5 -103 -23 -103 -15 0 -22 10 -30 45 l-10 45 -3 -52 c-3 -45 -6
-53 -23 -53 -19 0 -20 6 -17 103 3 100 3 102 27 102 19 0 27 -8 37 -40 l12
-40 1 48 c1 35 5 47 16 47 13 0 15 -16 13 -102z m-1088 67 c15 10 57 -31 65
-63 5 -20 8 -23 15 -11 8 11 12 10 25 -9 34 -48 112 -67 147 -35 10 9 18 11
18 6 0 -6 -7 -16 -15 -23 -10 -9 -12 -16 -6 -20 6 -3 15 -29 20 -56 13 -69 54
-158 101 -220 40 -54 121 -114 152 -114 28 0 21 -19 -9 -27 -16 -5 -68 -8
-118 -8 -77 1 -99 5 -153 30 -43 19 -68 37 -78 56 -8 16 -32 39 -54 51 -27 16
-38 28 -35 39 4 12 -1 15 -23 11 -22 -3 -34 2 -49 21 -10 14 -28 26 -39 28
-24 5 -30 41 -9 59 12 10 18 10 30 0 8 -7 15 -19 15 -26 0 -12 5 -12 30 1 36
19 44 19 37 1 -6 -14 21 -32 31 -21 3 3 0 5 -6 5 -7 0 -12 7 -12 15 0 21 -24
29 -48 16 -17 -9 -24 -5 -48 30 -25 37 -26 41 -11 57 13 13 20 14 29 4 7 -7
20 -12 30 -12 26 0 23 49 -4 90 -28 41 -45 48 -50 19 -5 -37 -25 -33 -32 6 -7
33 -1 88 11 108 3 4 11 3 18 -3 8 -7 19 -9 25 -5z m344 -15 c-28 -46 -76 -64
-132 -50 -44 11 -92 43 -92 62 0 5 13 2 29 -7 18 -9 47 -13 73 -11 37 3 39 2
13 -5 -24 -6 -21 -7 19 -5 29 2 59 12 75 24 34 27 35 27 15 -8z m600 8 c7 -29
26 -163 26 -177 0 -20 -38 -11 -43 9 -7 28 -24 25 -31 -5 -4 -15 -14 -25 -25
-25 -17 0 -17 5 -5 93 7 50 13 97 14 104 0 10 8 13 52 22 4 0 10 -9 12 -21z
m-104 -103 c0 -58 -4 -105 -9 -105 -5 0 -16 -2 -24 -5 -10 -4 -17 6 -24 37
l-11 43 -1 -42 c0 -24 -3 -43 -5 -43 -2 0 -11 -3 -20 -6 -14 -5 -16 7 -16 100
0 88 3 106 15 106 8 0 18 1 23 3 4 1 12 -18 19 -43 l11 -45 1 46 c1 48 6 59
28 59 10 0 13 -24 13 -105z m-139 -25 c8 -55 12 -100 8 -100 -4 0 -14 -3 -23
-6 -12 -5 -16 0 -16 21 0 32 -23 29 -28 -4 -3 -21 -27 -39 -38 -28 -9 9 19
201 30 209 6 4 20 8 32 8 18 0 22 -10 35 -100z m-211 28 c0 -9 -4 -19 -9 -23
-12 -7 -34 32 -26 45 3 6 1 10 -4 10 -16 0 -13 -41 4 -60 13 -15 13 -21 -5
-58 -18 -38 -23 -41 -41 -32 -22 13 -23 57 0 52 9 -2 11 5 6 28 -4 18 -2 44 5
61 12 29 12 29 41 12 16 -10 29 -25 29 -35z m88 -3 c-3 -25 -2 -48 3 -51 15
-9 10 -61 -8 -82 -10 -12 -35 -24 -55 -28 l-38 -6 0 60 c0 34 5 64 11 68 6 3
9 21 7 40 -4 35 -7 33 71 42 10 2 12 -9 9 -43z m-374 9 c20 -3 33 -10 30 -15
-10 -16 -51 -9 -75 12 -16 14 -18 19 -7 15 9 -2 33 -8 52 -12z m-176 -49 c15
-32 15 -45 1 -45 -5 0 -8 4 -4 9 14 24 -19 19 -61 -9 -25 -18 -48 -29 -52 -26
-7 8 44 52 71 61 9 4 17 13 17 21 0 22 16 16 28 -11z m249 -17 c-3 -8 -6 -5
-6 6 -1 11 2 17 5 13 3 -3 4 -12 1 -19z m23 -51 c0 -18 -2 -19 -10 -7 -13 20
-13 43 0 35 6 -3 10 -16 10 -28z m668 -129 l-3 -143 -27 -3 c-25 -3 -27 1 -41
60 l-15 63 -1 -67 c-1 -38 -5 -68 -10 -68 -5 0 -17 -3 -25 -6 -15 -6 -16 9
-14 137 l3 144 28 3 c15 2 27 0 27 -5 1 -4 7 -30 15 -58 l14 -50 0 62 c1 61 4
66 44 72 4 0 6 -63 5 -141z m-568 110 c0 -17 -18 -44 -24 -37 -8 7 5 49 15 49
5 0 9 -6 9 -12z m-476 -20 c3 -13 6 -27 6 -33 -1 -15 -30 27 -30 42 0 22 17
15 24 -9z m876 -92 c0 -57 -5 -117 -10 -133 -19 -52 -96 -71 -124 -31 -12 17
-16 49 -16 135 0 62 3 113 8 113 4 0 17 3 30 6 22 6 22 6 22 -110 0 -96 3
-116 15 -116 12 0 15 20 15 119 0 116 1 120 23 123 12 2 25 2 30 0 4 -2 7 -49
7 -106z m-199 64 c19 -11 28 -70 10 -70 -5 0 -16 -3 -24 -6 -9 -3 -16 3 -20
15 -3 12 -10 21 -16 21 -7 0 -11 -33 -11 -96 0 -72 3 -95 13 -92 15 6 22 68 7
68 -6 0 -10 10 -8 22 2 16 12 24 36 29 l32 6 0 -83 0 -84 -31 2 c-17 1 -34 8
-36 16 -3 7 -12 11 -20 8 -8 -3 -23 -1 -34 4 -16 9 -19 22 -19 95 0 46 5 95
11 109 18 39 70 57 110 36z m-471 -195 c11 -13 9 -24 -10 -66 -13 -27 -29 -54
-36 -60 -10 -8 -10 -15 -2 -28 8 -13 8 -26 0 -47 l-10 -29 -3 30 c-1 17 -3 44
-5 60 -3 42 30 155 46 155 4 0 13 -7 20 -15z m189 -142 c-2 -46 -14 -80 -23
-65 -4 7 -4 25 0 40 4 15 6 33 5 40 -1 6 3 12 9 12 5 0 10 -12 9 -27z m-374
-121 c-9 -35 -12 -37 -29 -23 -8 7 -12 19 -9 27 3 8 2 14 -1 14 -4 0 -11 -10
-16 -22 -8 -22 -9 -22 -9 -2 -1 27 3 31 40 32 29 1 30 -1 24 -26z m513 16 c17
-17 15 -48 -3 -48 -14 0 -35 29 -35 49 0 15 23 14 38 -1z m42 -32 c0 -6 -7 -2
-15 8 -8 11 -15 25 -15 30 0 6 7 2 15 -8 8 -11 15 -25 15 -30z m-395 16 c6
-16 -3 -19 -82 -27 -57 -5 -63 -4 -63 13 0 28 6 30 76 29 42 -1 65 -6 69 -15z
m255 6 c0 -5 9 -3 20 4 17 11 22 10 30 -2 26 -41 4 -49 -75 -28 -57 15 -65 33
-14 33 22 0 39 -3 39 -7z"/>
<path d="M615 1396 c-11 -8 -18 -17 -15 -19 9 -9 83 8 82 18 -2 16 -45 17 -67
1z"/>
<path d="M608 1326 c-16 -13 -28 -26 -28 -29 0 -12 35 7 48 25 15 21 42 23 62
6 12 -11 12 -10 1 5 -19 24 -51 21 -83 -7z"/>
<path d="M694 1294 c-10 -8 -14 -13 -7 -10 6 4 14 2 18 -4 8 -12 55 -13 74 -1
7 5 10 14 7 20 -10 16 -69 13 -92 -5z m79 -5 c-8 -8 -19 -8 -40 -1 -28 10 -28
10 12 11 28 1 36 -2 28 -10z"/>
<path d="M728 1223 c12 -2 32 -2 45 0 12 2 2 4 -23 4 -25 0 -35 -2 -22 -4z"/>
<path d="M1652 1155 c0 -16 2 -22 5 -12 2 9 2 23 0 30 -3 6 -5 -1 -5 -18z"/>
<path d="M577 843 c-4 -3 -7 -11 -7 -17 0 -6 5 -5 12 2 6 6 9 14 7 17 -3 3 -9
2 -12 -2z"/>
<path d="M685 770 c10 -11 20 -20 23 -20 3 0 -3 9 -13 20 -10 11 -20 20 -23
20 -3 0 3 -9 13 -20z"/>
<path d="M820 650 c20 -13 33 -13 25 0 -3 6 -14 10 -23 10 -15 0 -15 -2 -2
-10z"/>
<path d="M1398 1105 c-3 -14 -1 -25 3 -25 5 0 9 11 9 25 0 14 -2 25 -4 25 -2
0 -6 -11 -8 -25z"/>
<path d="M1142 1070 c0 -19 2 -27 5 -17 2 9 2 25 0 35 -3 9 -5 1 -5 -18z"/>
<path d="M1010 1074 c0 -14 4 -23 10 -19 6 3 10 15 10 26 0 10 -4 19 -10 19
-5 0 -10 -12 -10 -26z"/>
<path d="M1010 990 c0 -16 5 -30 10 -30 6 0 10 14 10 30 0 17 -4 30 -10 30 -5
0 -10 -13 -10 -30z"/>
</g>
</svg>
