<?xml version="1.0" encoding="UTF-8"?>
<svg version="1.1" xmlns="http://www.w3.org/2000/svg" width="64" height="64">
<path d="M0 0 C7.16155643 5.77544874 10.99377907 12.92709163 12.0078125 22.078125 C12.38798982 31.9627354 9.50249031 39.76191201 3.3125 47.4375 C-2.2851621 53.46575149 -9.05808741 56.67538769 -17.23828125 57.47265625 C-27.26465783 57.76567615 -34.4804856 55.63636333 -42.234375 49.2109375 C-49.22829641 42.40106666 -52.31802443 35.02520708 -52.625 25.3125 C-52.40243814 15.38376835 -49.26400104 8.32687944 -42.3125 1.1875 C-29.31072714 -9.56308251 -13.65516642 -9.52033098 0 0 Z " fill="#4520E6" transform="translate(52.3125,6.8125)"/>
<path d="M0 0 C2.25 0.25 2.25 0.25 4 1 C2.68 2.32 1.36 3.64 0 5 C0.350625 5.680625 0.70125 6.36125 1.0625 7.0625 C2.24524766 10.76844267 1.8377454 13.23014568 1 17 C0.34 17.99 -0.32 18.98 -1 20 C-0.484375 20.70125 0.03125 21.4025 0.5625 22.125 C2.3511306 25.70226119 2.20521711 27.22365304 1 31 C-0.67828623 33.36681391 -1.95533804 34.79684479 -4.87182617 35.36401367 C-7.10782002 35.51072436 -9.32172559 35.56060905 -11.5625 35.5625 C-17.07621571 35.29092898 -17.07621571 35.29092898 -21.77734375 37.58984375 C-22.18082031 38.05519531 -22.58429687 38.52054688 -23 39 C-25.07641602 38.58813477 -25.07641602 38.58813477 -27 38 C-23.9708569 34.88340015 -20.92461194 31.78406344 -17.875 28.6875 C-17.0190625 27.80642578 -16.163125 26.92535156 -15.28125 26.01757812 C-14.44335938 25.17001953 -13.60546875 24.32246094 -12.7421875 23.44921875 C-11.9776123 22.66893311 -11.21303711 21.88864746 -10.42529297 21.0847168 C-7.78507231 18.81525392 -5.16247068 17.42930881 -2 16 C-2 13.36 -2 10.72 -2 8 C-7.41916466 12.54961389 -12.46887305 17.38119115 -17.40551758 22.44262695 C-18.58652997 23.64549826 -19.79113285 24.8251256 -21 26 C-21.33 26 -21.66 26 -22 26 C-22 18.74 -22 11.48 -22 4 C-13.25 4.25 -13.25 4.25 -10.51269531 4.36035156 C-5.6262696 4.49106892 -5.6262696 4.49106892 -1.5625 1.96875 C-1.046875 1.3190625 -0.53125 0.669375 0 0 Z " fill="#FDFDFE" transform="translate(44,12)"/>
<path d="M0 0 C4.875 1.875 4.875 1.875 6 3 C6.4603413 8.29392491 6.4603413 8.29392491 4.90234375 10.68359375 C2.06303392 12.64837283 -0.28441648 12.28858169 -3.6875 12.1875 C-5.45673828 12.14689453 -5.45673828 12.14689453 -7.26171875 12.10546875 C-8.16535156 12.07066406 -9.06898437 12.03585938 -10 12 C-3.84965831 3.55353075 -3.84965831 3.55353075 0 0 Z " fill="#4520E6" transform="translate(37,33)"/>
<path d="M0 0 C3.96 0 7.92 0 12 0 C12 2 12 2 10.390625 3.62109375 C9.33101562 4.52021484 9.33101562 4.52021484 8.25 5.4375 C7.20585938 6.33275391 7.20585938 6.33275391 6.140625 7.24609375 C4.13831164 8.88667532 2.07086713 10.44684965 0 12 C0 8.04 0 4.08 0 0 Z " fill="#4521E6" transform="translate(25,19)"/>
</svg>
