<?xml version="1.0" encoding="UTF-8"?>
<svg version="1.1" xmlns="http://www.w3.org/2000/svg" width="150" height="150">
<path d="M0 0 C2.26685452 1.68622161 4.37461281 3.45620684 6.4765625 5.34375 C7.70826172 6.43623047 7.70826172 6.43623047 8.96484375 7.55078125 C22.24806842 20.02774039 31.07984821 37.58848816 31.8125 55.9453125 C32.13371051 77.23647878 28.10626638 96.0522542 13.4765625 112.34375 C12.74824219 113.16488281 12.01992187 113.98601562 11.26953125 114.83203125 C-1.20742789 128.11525592 -18.76817566 136.94703571 -37.125 137.6796875 C-58.41616628 138.00089801 -77.2319417 133.97345388 -93.5234375 119.34375 C-94.34457031 118.61542969 -95.16570312 117.88710937 -96.01171875 117.13671875 C-109.29494342 104.65975961 -118.12672321 87.09901184 -118.859375 68.7421875 C-119.18058551 47.45102122 -115.15314138 28.6352458 -100.5234375 12.34375 C-99.79511719 11.52261719 -99.06679687 10.70148437 -98.31640625 9.85546875 C-72.64852592 -17.47107913 -30.68115209 -20.13747444 0 0 Z " fill="#F0EDE8" transform="translate(118.5234375,12.65625)"/>
<path d="M0 0 C5.61 0 11.22 0 17 0 C17 10.64398431 14.67149611 17.51375856 7.36328125 25.3359375 C6.89321655 25.83956818 6.42315186 26.34319885 5.93884277 26.86209106 C-1.89598005 35.17082194 -10.12231616 43.11696046 -18.27880859 51.10742188 C-20.48431203 53.2705941 -22.68024674 55.4431163 -24.875 57.6171875 C-25.54684326 58.27040985 -26.21868652 58.9236322 -26.91088867 59.59664917 C-32.01865123 64.67617976 -34.55910178 68.79550891 -36 76 C-41.61 76 -47.22 76 -53 76 C-53.69178712 65.10435287 -49.76054881 58.26319838 -43 50 C-40.10468475 46.92252016 -37.07091394 44.00017448 -34.0234375 41.07421875 C-32.2831212 39.37379672 -30.54356065 37.67260092 -28.8046875 35.97070312 C-26.08915318 33.32317993 -23.36873086 30.68147271 -20.63476562 28.05297852 C-17.97726981 25.49281899 -15.34289498 22.91059232 -12.7109375 20.32421875 C-11.89732758 19.55301193 -11.08371765 18.78180511 -10.24545288 17.98722839 C-4.63544366 12.42869566 -2.24348982 7.57902189 0 0 Z " fill="#070707" transform="translate(93,37)"/>
<path d="M0 0 C5.61 0 11.22 0 17 0 C17.53625 1.711875 18.0725 3.42375 18.625 5.1875 C20.79946275 11.22163414 23.21350641 14.10675321 29 17 C27.46751951 20.58402695 25.3325399 23.02850134 22.625 25.8125 C21.85414062 26.62332031 21.08328125 27.43414062 20.2890625 28.26953125 C18 30 18 30 15.890625 29.8828125 C7.82993277 26.11893555 3.62042911 18.34569624 0.625 10.3125 C0 7 0 7 0 0 Z " fill="#080807" transform="translate(40,37)"/>
<path d="M0 0 C8.06069223 3.76387695 12.27019589 11.53711626 15.265625 19.5703125 C15.890625 22.8828125 15.890625 22.8828125 15.890625 29.8828125 C10.280625 29.8828125 4.670625 29.8828125 -1.109375 29.8828125 C-1.50125 28.5215625 -1.893125 27.1603125 -2.296875 25.7578125 C-4.08696384 20.39598979 -6.42779188 16.47726733 -11.421875 13.5078125 C-11.97875 13.3015625 -12.535625 13.0953125 -13.109375 12.8828125 C-11.57689451 9.29878555 -9.4419149 6.85431116 -6.734375 4.0703125 C-5.96351562 3.25949219 -5.19265625 2.44867188 -4.3984375 1.61328125 C-2.109375 -0.1171875 -2.109375 -0.1171875 0 0 Z " fill="#080707" transform="translate(94.109375,83.1171875)"/>
<path d="M0 0 C2.875 1.6875 2.875 1.6875 5 4 C5.33 5.65 5.66 7.3 6 9 C0.06 9 -5.88 9 -12 9 C-10.48005275 1.40026373 -7.89383104 -1.10790611 0 0 Z " fill="#1A1A19" transform="translate(78,104)"/>
<path d="M0 0 C5.94 0 11.88 0 18 0 C17 5 17 5 14.875 7.3125 C11.17949567 9.48160037 9.21875652 9.75334938 5 9 C2.72015409 7.17726605 1.62813892 5.5162147 0 3 C0 2.01 0 1.02 0 0 Z " fill="#1A1A19" transform="translate(66,37)"/>
</svg>
