<?xml version="1.0" encoding="UTF-8"?>
<svg version="1.1" xmlns="http://www.w3.org/2000/svg" width="200" height="200">
<path d="M0 0 C1.25296875 0.4125 2.5059375 0.825 3.796875 1.25 C28.74462541 10.06760046 48.21993996 28.50355897 60.08447266 52.01074219 C70.70512729 75.08730057 73.09510894 102.81586203 65 127 C64.5875 128.25296875 64.175 129.5059375 63.75 130.796875 C54.93239954 155.74462541 36.49644103 175.21993996 12.98925781 187.08447266 C-10.08730057 197.70512729 -37.81586203 200.09510894 -62 192 C-63.87945312 191.38125 -63.87945312 191.38125 -65.796875 190.75 C-90.74462541 181.93239954 -110.21993996 163.49644103 -122.08447266 139.98925781 C-132.70512729 116.91269943 -135.09510894 89.18413797 -127 65 C-126.5875 63.74703125 -126.175 62.4940625 -125.75 61.203125 C-116.93239954 36.25537459 -98.49644103 16.78006004 -74.98925781 4.91552734 C-51.91269943 -5.70512729 -24.18413797 -8.09510894 0 0 Z " fill="#F1E869" transform="translate(131,4)"/>
<path d="M0 0 C1.25296875 0.4125 2.5059375 0.825 3.796875 1.25 C28.74462541 10.06760046 48.21993996 28.50355897 60.08447266 52.01074219 C66.71512345 66.41782024 69 80.12366447 69 96 C3 96 -63 96 -131 96 C-131 68.36663585 -121.64070222 43.69756349 -102.0625 23.8984375 C-75.59197837 -1.7154873 -35.16347513 -11.77020088 0 0 Z " fill="#FE6B6B" transform="translate(131,4)"/>
<path d="M0 0 C57.42 0 114.84 0 174 0 C170.65368481 6.02336733 167.80022441 10.94865419 163.375 16 C162.85284912 16.5995752 162.33069824 17.19915039 161.79272461 17.81689453 C149.91792861 31.15295562 134.85987989 40.37016313 118 46 C116.76378906 46.41507813 115.52757812 46.83015625 114.25390625 47.2578125 C95.84377482 52.75766537 74.16295751 52.07965105 56 46 C54.12054688 45.38125 54.12054688 45.38125 52.203125 44.75 C30.0082827 36.90539484 10.57407675 21.1481535 0 0 Z " fill="#BBFECA" transform="translate(13,150)"/>
<path d="M0 0 C1.25296875 0.4125 2.5059375 0.825 3.796875 1.25 C25.9917173 9.09460516 45.42592325 24.8518465 56 46 C-1.42 46 -58.84 46 -118 46 C-114.65368481 39.97663267 -111.80022441 35.05134581 -107.375 30 C-106.85284912 29.4004248 -106.33069824 28.80084961 -105.79272461 28.18310547 C-93.91792861 14.84704438 -78.85987989 5.62983687 -62 0 C-60.76378906 -0.41507812 -59.52757812 -0.83015625 -58.25390625 -1.2578125 C-39.84377482 -6.75766537 -18.16295751 -6.07965105 0 0 Z " fill="#BADBFE" transform="translate(131,4)"/>
<path d="M0 0 C7.18118788 0.61394479 7.18118788 0.61394479 14.1796875 -0.73828125 C14.8396875 -0.40828125 15.4996875 -0.07828125 16.1796875 0.26171875 C18.49051284 0.35907694 20.80431708 0.39149248 23.1171875 0.38671875 C24.98697266 0.39058594 24.98697266 0.39058594 26.89453125 0.39453125 C30.18645047 0.41371306 30.18645047 0.41371306 33.1796875 -0.73828125 C34.1696875 -0.40828125 35.1596875 -0.07828125 36.1796875 0.26171875 C38.356559 0.35130395 40.53613345 0.37930189 42.71484375 0.37524414 C43.37370575 0.37539017 44.03256775 0.37553619 44.71139526 0.37568665 C46.88835956 0.37499029 49.06523815 0.36720867 51.2421875 0.359375 C52.75528924 0.35750921 54.26839158 0.35608607 55.78149414 0.35508728 C59.76535713 0.35126961 63.74918365 0.34144899 67.73303223 0.3303833 C71.78555816 0.32017263 75.83808991 0.3155852 79.890625 0.31054688 C87.01295317 0.30097166 94.13525675 0.28646541 101.25756836 0.26844788 C114.17680762 0.23869714 114.17680762 0.23869714 119.23828125 0.296875 C120.35332031 0.30589844 121.46835938 0.31492188 122.6171875 0.32421875 C124.28587891 0.34162109 124.28587891 0.34162109 125.98828125 0.359375 C129.06817551 0.36467464 129.06817551 0.36467464 131.5703125 -0.26953125 C135.24297661 -0.92929127 138.7981087 -0.58798845 142.4921875 -0.30078125 C143.60303711 -0.2224707 143.60303711 -0.2224707 144.73632812 -0.14257812 C146.55121459 -0.01377973 148.36552075 0.12315137 150.1796875 0.26171875 C149.66819493 5.33828247 148.54432842 9.12343777 146.1796875 13.63671875 C145.6434375 14.67570313 145.1071875 15.7146875 144.5546875 16.78515625 C143.1796875 19.26171875 143.1796875 19.26171875 142.1796875 20.26171875 C139.9267773 20.35878009 137.67075571 20.38358513 135.41575623 20.38197327 C134.70028014 20.38282769 133.98480405 20.38368212 133.24764687 20.38456243 C130.83230936 20.38621933 128.41704017 20.38069246 126.00170898 20.37524414 C124.27744549 20.37496229 122.55318188 20.37511996 120.82891846 20.37568665 C116.13283603 20.3759747 111.43677891 20.37007677 106.74070239 20.36311269 C101.83861591 20.35688039 96.93652892 20.35627545 92.03443909 20.35508728 C82.74485854 20.3519736 73.4552897 20.34375971 64.16571432 20.33373779 C53.5927379 20.3225778 43.01976093 20.31706649 32.44678009 20.31204236 C10.69107601 20.30157713 -11.06461751 20.28397698 -32.8203125 20.26171875 C-34.02214725 17.6842178 -35.20688136 15.10100713 -36.3828125 12.51171875 C-36.72505859 11.78210938 -37.06730469 11.0525 -37.41992188 10.30078125 C-37.73896484 9.59179688 -38.05800781 8.8828125 -38.38671875 8.15234375 C-38.68521729 7.50297852 -38.98371582 6.85361328 -39.29125977 6.18457031 C-39.92897473 3.86678394 -39.57574066 2.51267572 -38.8203125 0.26171875 C-37.88832031 0.27332031 -36.95632812 0.28492188 -35.99609375 0.296875 C-29.70168781 0.3414259 -23.53067934 0.30327259 -17.2578125 -0.30078125 C-11.41772672 -0.81862137 -5.83285525 -0.5001446 0 0 Z " fill="#F9B22F" transform="translate(44.8203125,129.73828125)"/>
<path d="M0 0 C0.75543594 0.00446144 1.51087189 0.00892289 2.28919983 0.01351953 C3.08987381 0.01039954 3.89054779 0.00727956 4.71548462 0.00406504 C7.4133071 -0.00394762 10.1109067 0.00242132 12.80873108 0.00869775 C14.73679232 0.00598933 16.66485253 0.00242925 18.59291077 -0.00192237 C23.84071879 -0.01106645 29.08844848 -0.00749382 34.33625793 -0.0011642 C39.81796994 0.00388537 45.29967507 -0.00079274 50.78138733 -0.00393653 C59.98843088 -0.00757923 69.19544239 -0.00276913 78.40248108 0.00674462 C89.06002368 0.01762975 99.71748977 0.01410438 110.37503052 0.00309181 C119.51133888 -0.00597243 128.64762415 -0.00727058 137.78393555 -0.00203085 C143.24680333 0.00109361 148.70963511 0.00148518 154.17250061 -0.00510383 C159.30734352 -0.01086413 164.44208739 -0.0069046 169.57691956 0.00468469 C171.46599666 0.00733834 173.35508203 0.00655425 175.24415588 0.00215936 C177.8139721 -0.00326985 180.38346684 0.00350582 182.95326233 0.01351953 C183.70869827 0.00905808 184.46413422 0.00459664 185.24246216 0 C190.39293095 0.03918668 190.39293095 0.03918668 192.62123108 2.26748681 C192.62123108 6.88748681 192.62123108 11.50748681 192.62123108 16.26748681 C126.62123108 16.26748681 60.62123108 16.26748681 -7.37876892 16.26748681 C-7.37876892 0.05614041 -7.37876892 0.05614041 0 0 Z " fill="#F62726" transform="translate(7.3787689208984375,83.7325131893158)"/>
<path d="M0 0 C2.140625 2.78515625 2.140625 2.78515625 4.25 6.0625 C4.95640625 7.14660156 5.6628125 8.23070312 6.390625 9.34765625 C8 12 8 12 8 13 C-49.42 13 -106.84 13 -166 13 C-159.59311921 1.46761458 -159.59311921 1.46761458 -157 -1 C-154.12952423 -1.63644314 -154.12952423 -1.63644314 -150.73742676 -1.6526947 C-149.45034317 -1.6708725 -148.16325958 -1.68905029 -146.83717346 -1.70777893 C-145.41293158 -1.70271635 -143.98869137 -1.69716086 -142.56445312 -1.69116211 C-141.06296526 -1.70288998 -139.56149294 -1.71677839 -138.06004333 -1.73266602 C-133.98358213 -1.76939622 -129.90760447 -1.77510759 -125.83099937 -1.77476192 C-121.56598897 -1.7790806 -117.30116675 -1.80998027 -113.03625488 -1.83753967 C-105.87393358 -1.87991456 -98.71175127 -1.90334198 -91.54931641 -1.91430664 C-83.26714563 -1.9270989 -74.98537315 -1.96406222 -66.70335627 -2.01528162 C-57.88848043 -2.06970167 -49.07359056 -2.10864992 -40.25861168 -2.14187169 C-37.7176064 -2.15234847 -35.1766256 -2.16547576 -32.63563538 -2.1790905 C-28.64329808 -2.19956264 -24.65106607 -2.20950501 -20.65867805 -2.21128082 C-19.1929183 -2.21346897 -17.7271591 -2.2190723 -16.26142693 -2.2283268 C-14.26184332 -2.2403268 -12.26219138 -2.23861593 -10.26257324 -2.2361908 C-9.14318108 -2.23891463 -8.02378891 -2.24163847 -6.87047577 -2.24444485 C-3.98625779 -1.99882974 -2.39153906 -1.59123657 0 0 Z " fill="#2FA7DE" transform="translate(179,37)"/>
<path d="M0 0 C37.62 0 75.24 0 114 0 C110.39272602 3.60727398 107.27812363 5.72747752 102.8125 7.9375 C102.11850098 8.28304932 101.42450195 8.62859863 100.70947266 8.98461914 C76.17181982 20.75379767 47.55256435 21.46937508 22.02734375 12.64453125 C14.11805799 9.76548854 6.73709865 6.08433848 0 1 C0 0.67 0 0.34 0 0 Z " fill="#49D71F" transform="translate(43,182)"/>
<path d="M0 0 C64.68 0 129.36 0 196 0 C196.33 2.31 196.66 4.62 197 7 C131.66 7 66.32 7 -1 7 C-0.67 4.69 -0.34 2.38 0 0 Z " fill="#FB5354" transform="translate(2,78)"/>
<path d="M0 0 C1.0323666 0.00050323 2.0647332 0.00100645 3.12838364 0.00152493 C4.89920052 -0.00092228 4.89920052 -0.00092228 6.70579147 -0.00341892 C8.66629692 0.00186069 8.66629692 0.00186069 10.66640854 0.00724697 C12.04758831 0.00756876 13.42876821 0.00752982 14.80994797 0.00715542 C19.35815864 0.00815023 23.90630741 0.02043218 28.45449448 0.03434658 C29.22765471 0.03655988 30.00081495 0.03877317 30.79740429 0.04105353 C38.08639244 0.06218359 45.37535569 0.08734413 52.66429138 0.12233734 C61.99514354 0.16689162 71.32556711 0.19148882 80.65652871 0.18858916 C87.21298098 0.18819714 93.76911764 0.21062018 100.32545066 0.24995607 C104.2431887 0.27284834 108.16035879 0.28565331 112.07815933 0.27404881 C115.76558423 0.26361964 119.45180234 0.28143325 123.13902092 0.32084942 C125.13591724 0.3349632 127.13295414 0.31947225 129.12983322 0.30309963 C137.7238624 0.43366814 137.7238624 0.43366814 140.62877274 2.51231098 C142.0323143 4.17349148 142.0323143 4.17349148 143.68886948 7.12419033 C143.35886948 7.78419033 143.02886948 8.44419033 142.68886948 9.12419033 C92.52886948 9.12419033 42.36886948 9.12419033 -9.31113052 9.12419033 C-2.57162909 0.13818842 -2.57162909 0.13818842 0 0 Z " fill="#6CBFEE" transform="translate(32.31113052368164,26.87580966949463)"/>
<path d="M0 0 C0.33 0.99 0.66 1.98 1 3 C-51.8 3 -104.6 3 -159 3 C-158.34 1.68 -157.68 0.36 -157 -1 C-137.1204516 -1.17723945 -117.24083902 -1.34291313 -97.36108017 -1.49477577 C-88.13080173 -1.5655568 -78.90058307 -1.64013839 -69.67041016 -1.72363281 C-61.62645481 -1.79638732 -53.5824784 -1.86204595 -45.53839612 -1.91914403 C-41.27816358 -1.94963267 -37.01802686 -1.98370125 -32.75789642 -2.02626419 C-28.74924502 -2.06620257 -24.740634 -2.09666241 -20.73185158 -2.11981392 C-19.25962544 -2.12999435 -17.78741868 -2.14365515 -16.31525993 -2.16103554 C-14.30675614 -2.18423003 -12.29810818 -2.19374419 -10.28948975 -2.20254517 C-9.16490231 -2.2117631 -8.04031487 -2.22098103 -6.88164902 -2.23047829 C-3.9988246 -1.99990599 -2.35524366 -1.65749684 0 0 Z " fill="#47B1E5" transform="translate(179,37)"/>
<path d="M0 0 C64.02 0 128.04 0 194 0 C193.34 1.32 192.68 2.64 192 4 C190.87722656 3.91621094 189.75445312 3.83242187 188.59765625 3.74609375 C178.28608258 2.97465664 178.28608258 2.97465664 168.00390625 3.7421875 C164.34350723 4.21311603 160.68442352 4.05848291 157 4 C157 3.34 157 2.68 157 2 C156.278125 2.309375 155.55625 2.61875 154.8125 2.9375 C152.18306945 3.93084043 149.78080588 4.61377696 147 5 C146.67 4.67 146.34 4.34 146 4 C143.83239354 3.9109788 141.66184583 3.89314686 139.49243164 3.90234375 C138.47290657 3.90453415 138.47290657 3.90453415 137.43278503 3.9067688 C135.95241131 3.91058328 134.4720422 3.91670869 132.99168587 3.92483521 C130.65130325 3.93754809 128.31097699 3.94410143 125.9705658 3.94897461 C120.15647486 3.96237938 114.34243729 3.98657026 108.52838135 4.01037598 C103.62010949 4.03006933 98.71185746 4.04572691 93.80355644 4.05593872 C91.4935185 4.06244127 89.18356144 4.07495072 86.87355042 4.08764648 C85.4613553 4.09127818 84.04915943 4.09463002 82.63696289 4.09765625 C81.40087784 4.10289307 80.16479279 4.10812988 78.89125061 4.11352539 C76 4 76 4 74 3 C73.195625 3.144375 72.39125 3.28875 71.5625 3.4375 C59.64 5.32 59.64 5.32 55 3 C53.3294063 3.31305844 51.66316387 3.64960761 50 4 C48.23095968 4.08990638 46.45881604 4.13012682 44.6875 4.125 C43.80449219 4.12757813 42.92148437 4.13015625 42.01171875 4.1328125 C39 4 39 4 35.26171875 3.46484375 C30.50664785 2.83495854 25.89726446 3.11959264 21.125 3.4375 C14.40450697 3.85818001 7.73468414 4.0727152 1 4 C0.67 2.68 0.34 1.36 0 0 Z " fill="#F2D858" transform="translate(3,127)"/>
<path d="M0 0 C1.54829829 0.01018205 1.54829829 0.01018205 3.12787533 0.0205698 C4.31543423 0.01632999 5.50299313 0.01209019 6.72653866 0.0077219 C8.6755785 0.03928631 8.6755785 0.03928631 10.66399288 0.07148838 C12.04885466 0.07621389 13.43372522 0.0787845 14.81859493 0.07936192 C18.57711947 0.08757774 22.33470171 0.12743367 26.09292245 0.17402816 C30.02454489 0.2185462 33.95630207 0.23770742 37.88809872 0.26059055 C44.48990879 0.30306594 51.09128699 0.36601988 57.69280148 0.44111729 C65.3283462 0.52772974 72.9636087 0.58223418 80.5995422 0.61949724 C87.94242372 0.65604998 95.28495921 0.71505514 102.62759876 0.78441143 C105.75392505 0.81355823 108.88015993 0.8348416 112.00658512 0.84985256 C115.68654056 0.86855387 119.36577894 0.90688829 123.04538631 0.96049595 C125.04256245 0.9849256 127.03994781 0.98977556 129.03726864 0.99411106 C130.81437725 1.02581898 130.81437725 1.02581898 132.62738705 1.05816746 C134.1751198 1.07343935 134.1751198 1.07343935 135.75411987 1.08901978 C138.31413937 1.61079502 138.31413937 1.61079502 141.31413937 5.61079502 C92.47413937 5.61079502 43.63413937 5.61079502 -6.68586063 5.61079502 C-2.68586063 0.61079502 -2.68586063 0.61079502 0 0 Z " fill="#84C8F3" transform="translate(32.6858606338501,26.38920497894287)"/>
<path d="M0 0 C37.62 0 75.24 0 114 0 C109.49982863 4.50017137 109.49982863 4.50017137 105.52172852 4.50793457 C104.18430099 4.52485352 104.18430099 4.52485352 102.81985474 4.54211426 C101.84934174 4.53401733 100.87882874 4.52592041 99.87890625 4.51757812 C98.33685013 4.52809204 98.33685013 4.52809204 96.76364136 4.53881836 C93.36298673 4.5564339 89.9631632 4.54476243 86.5625 4.53125 C84.20125163 4.53394388 81.84000434 4.53782542 79.47875977 4.54284668 C74.52902672 4.54874658 69.57958232 4.5401626 64.62988281 4.52148438 C58.28079758 4.49869498 51.93238866 4.51181537 45.58332825 4.53577423 C40.70718273 4.55021867 35.83119793 4.54563234 30.95504761 4.53526306 C28.61383993 4.53259205 26.27261772 4.53587862 23.931427 4.54518127 C20.66092195 4.55532416 17.39151674 4.53987625 14.12109375 4.51757812 C13.15058075 4.52567505 12.18006775 4.53377197 11.18014526 4.54211426 C10.28852692 4.53083496 9.39690857 4.51955566 8.47827148 4.50793457 C7.70547348 4.50642647 6.93267548 4.50491837 6.13645935 4.50336456 C4 4 4 4 0 0 Z " fill="#88EC7D" transform="translate(43,182)"/>
<path d="M0 0 C2.43013524 -0.00101704 4.86027037 -0.00235731 7.29040527 -0.0039978 C13.7207239 -0.00666938 20.15101797 -0.00228341 26.58133316 0.00424194 C30.55116091 0.00781988 34.52098504 0.00943204 38.49081421 0.01049805 C76.9122194 0.02334321 115.31898668 0.21330418 153.73046875 1.1328125 C153.40046875 2.1228125 153.07046875 3.1128125 152.73046875 4.1328125 C87.72046875 4.1328125 22.71046875 4.1328125 -44.26953125 4.1328125 C-44.26953125 3.1428125 -44.26953125 2.1528125 -44.26953125 1.1328125 C-29.50440178 0.16553633 -14.793472 -0.01421645 0 0 Z " fill="#FA4647" transform="translate(45.26953125,80.8671875)"/>
<path d="M0 0 C33.66 0 67.32 0 102 0 C97.42270454 4.57729546 93.25854432 5.21781326 86.87356567 5.29327393 C86.10197113 5.29236755 85.33037659 5.29146118 84.53540039 5.29052734 C83.70696121 5.29724457 82.87852203 5.30396179 82.02497864 5.31088257 C79.29914274 5.32980804 76.57355367 5.33378372 73.84765625 5.3359375 C71.94485881 5.34236822 70.04206235 5.34909679 68.13926697 5.35610962 C64.15572823 5.36806802 60.17227612 5.37179182 56.1887207 5.37060547 C51.09327403 5.37040213 45.99838418 5.3977257 40.9030695 5.43214989 C36.97474125 5.4544227 33.04654707 5.45844292 29.11816216 5.45738602 C27.23994461 5.45974057 25.36172329 5.46855587 23.48356819 5.48405075 C20.85331652 5.50372262 18.22426659 5.4978688 15.59399414 5.48583984 C14.43963867 5.50269836 14.43963867 5.50269836 13.26196289 5.51989746 C7.76805389 5.45628961 4.57597921 4.04198042 0 1 C0 0.67 0 0.34 0 0 Z " fill="#71E45B" transform="translate(49,186)"/>
<path d="M0 0 C64.68 0 129.36 0 196 0 C196 0.66 196 1.32 196 2 C195.02075562 1.99777939 194.04151123 1.99555878 193.03259277 1.99327087 C183.7369758 1.97286813 174.44136347 1.95794617 165.14572906 1.94818783 C160.36846472 1.9430021 155.59121867 1.93598421 150.81396484 1.92456055 C146.19090092 1.91357664 141.56785442 1.90769084 136.94477844 1.90512276 C135.19403306 1.90329611 133.44328848 1.89973026 131.69255066 1.89426994 C121.93630432 1.86509288 112.27856449 2.05668127 102.54998779 2.8266449 C97.59826851 3.06845018 92.7602189 2.66935448 87.82617188 2.26660156 C81.6768382 1.83812579 75.53535769 1.85113348 69.37353516 1.86962891 C67.23723376 1.87503229 65.10113923 1.86961751 62.96484375 1.86328125 C55.99976018 1.86061947 49.12362273 2.02213004 42.19506836 2.82836914 C39.34550009 3.05117489 36.76871865 2.6734721 34 2 C34 2.66 34 3.32 34 4 C22.45 4 10.9 4 -1 4 C-0.67 2.68 -0.34 1.36 0 0 Z " fill="#FD5F60" transform="translate(2,78)"/>
<path d="M0 0 C40.92 0 81.84 0 124 0 C120.70652666 3.29347334 120.49413256 3.37529962 116.1796875 3.38095093 C115.18702881 3.3894104 114.19437012 3.39786987 113.17163086 3.40658569 C112.08374268 3.400513 110.99585449 3.39444031 109.875 3.38818359 C108.15518921 3.39606903 108.15518921 3.39606903 106.40063477 3.40411377 C102.60028572 3.41734733 98.80035351 3.40856347 95 3.3984375 C92.3658846 3.40045726 89.73176974 3.40336788 87.09765625 3.40713501 C81.57287049 3.41259407 76.048205 3.40539711 70.5234375 3.39111328 C64.13462179 3.37478635 57.74609329 3.38007477 51.35728455 3.3965925 C45.21324856 3.41184205 39.06934 3.4102341 32.92529297 3.4014473 C30.30973267 3.39944176 27.69416507 3.40191687 25.07861328 3.40888596 C21.42720949 3.41647921 17.77636219 3.40492531 14.125 3.38818359 C13.03711182 3.39425629 11.94922363 3.40032898 10.82836914 3.40658569 C9.83571045 3.39812622 8.84305176 3.38966675 7.8203125 3.38095093 C6.52504639 3.37925431 6.52504639 3.37925431 5.20361328 3.37752342 C3 3 3 3 0 0 Z " fill="#A4F6A8" transform="translate(38,179)"/>
<path d="M0 0 C0 0.33 0 0.66 0 1 C-52.14 1 -104.28 1 -158 1 C-157.67 0.34 -157.34 -0.32 -157 -1 C-137.1204516 -1.17723945 -117.24083902 -1.34291313 -97.36108017 -1.49477577 C-88.13080173 -1.5655568 -78.90058307 -1.64013839 -69.67041016 -1.72363281 C-61.62645481 -1.79638732 -53.5824784 -1.86204595 -45.53839612 -1.91914403 C-41.27816358 -1.94963267 -37.01802686 -1.98370125 -32.75789642 -2.02626419 C-28.74924502 -2.06620257 -24.740634 -2.09666241 -20.73185158 -2.11981392 C-19.25962544 -2.12999435 -17.78741868 -2.14365515 -16.31525993 -2.16103554 C-14.30675614 -2.18423003 -12.29810818 -2.19374419 -10.28948975 -2.20254517 C-9.16490231 -2.2117631 -8.04031487 -2.22098103 -6.88164902 -2.23047829 C-4.04176868 -2.00334072 -2.40356169 -1.47683406 0 0 Z " fill="#55B6E9" transform="translate(179,37)"/>
<path d="M0 0 C2.44814491 -0.35352612 2.44814491 -0.35352612 5.59341431 -0.32279968 C6.78255936 -0.31850952 7.97170441 -0.31421936 9.19688416 -0.30979919 C10.50814774 -0.28966263 11.81941132 -0.26952606 13.17041016 -0.2487793 C14.55984069 -0.23807532 15.94928198 -0.2286973 17.33872986 -0.22055054 C21.11763009 -0.19461688 24.89611161 -0.15006122 28.67478991 -0.10225272 C32.62118633 -0.05545898 36.56770942 -0.02566431 40.51425171 0.00590515 C47.99064499 0.06830862 55.46679689 0.14608115 62.94298398 0.22932547 C71.45304379 0.32333694 79.9632308 0.40029137 88.47347188 0.47578681 C105.9825262 0.63149542 123.49129903 0.80870985 141 1 C141 1.66 141 2.32 141 3 C93.81 3 46.62 3 -2 3 C-1.34 2.01 -0.68 1.02 0 0 Z " fill="#99CFF7" transform="translate(30,27)"/>
<path d="M0 0 C27.39 0 54.78 0 83 0 C83 0.66 83 1.32 83 2 C78.79832224 4.02145546 75.35675465 4.25306116 70.71875 4.25878906 C69.64705566 4.26404602 69.64705566 4.26404602 68.55371094 4.26940918 C66.20237383 4.27818 63.85133993 4.27239391 61.5 4.265625 C59.86002546 4.26697299 58.2200513 4.26891464 56.58007812 4.27142334 C53.14709662 4.2743683 49.71421936 4.27009718 46.28125 4.26074219 C41.8863495 4.249348 37.4916933 4.25591084 33.09680176 4.26788712 C29.7115699 4.27512268 26.32639573 4.27280999 22.94116211 4.26763153 C21.32088187 4.26629973 19.70059634 4.26792628 18.08032227 4.27259064 C15.81382422 4.27768381 13.54771889 4.26990672 11.28125 4.25878906 C9.99283203 4.25719788 8.70441406 4.25560669 7.37695312 4.25396729 C4.1394258 4.01048566 1.90552245 3.39786642 -1 2 C-0.67 1.34 -0.34 0.68 0 0 Z " fill="#5ADC37" transform="translate(59,190)"/>
<path d="M0 0 C1.25695679 0.00539291 1.25695679 0.00539291 2.53930664 0.01089478 C3.41727402 0.01074875 4.29524139 0.01060272 5.19981384 0.01045227 C8.11630685 0.01115172 11.03273683 0.01894561 13.94921875 0.02676392 C15.96561142 0.02862798 17.98200454 0.03005194 19.99839783 0.03105164 C25.31671388 0.03487772 30.6350028 0.04470878 35.95330811 0.05575562 C41.37576938 0.06596779 46.79823502 0.07054884 52.22070312 0.07559204 C62.86850153 0.08633097 73.51627976 0.10340847 84.1640625 0.12442017 C83.8340625 1.11442017 83.5040625 2.10442017 83.1640625 3.12442017 C71.72484614 3.17068861 60.28565191 3.20626135 48.84636116 3.22804451 C43.53507312 3.23849745 38.22384894 3.25268413 32.91259766 3.27529907 C27.79033655 3.29697369 22.668137 3.3089774 17.54583359 3.31417465 C15.5881338 3.31788011 13.63043752 3.32511557 11.67276382 3.33588028 C8.93818029 3.35032374 6.2038536 3.35240112 3.46923828 3.35147095 C2.65356384 3.3586615 1.8378894 3.36585205 0.99749756 3.3732605 C-4.60783318 3.35252449 -4.60783318 3.35252449 -6.8359375 1.12442017 C-5.00236306 -0.70915427 -2.43958055 0.0044205 0 0 Z " fill="#66E04A" transform="translate(60.8359375,187.87557983398438)"/>
<path d="M0 0 C1.00675781 -0.02578125 2.01351563 -0.0515625 3.05078125 -0.078125 C5.6875 0.25 5.6875 0.25 9.6875 3.25 C-1.5325 3.25 -12.7525 3.25 -24.3125 3.25 C-24.3125 2.59 -24.3125 1.93 -24.3125 1.25 C-16.21602748 0.70700304 -8.11365499 0.1848213 0 0 Z " fill="#FB5354" transform="translate(25.3125,78.75)"/>
</svg>
