<?xml version="1.0" encoding="UTF-8"?>
<svg version="1.1" xmlns="http://www.w3.org/2000/svg" width="501" height="501">
<path d="M0 0 C165.33 0 330.66 0 501 0 C501 165.33 501 330.66 501 501 C335.67 501 170.34 501 0 501 C0 335.67 0 170.34 0 0 Z " fill="#FEFEFE" transform="translate(0,0)"/>
<path d="M0 0 C5.0158783 0.53934175 8.94345521 2.22420486 13.3125 4.625 C13.97330566 4.98400391 14.63411133 5.34300781 15.31494141 5.71289062 C20.6411935 8.67148473 25.38176612 12.01998654 30 16 C30.72316406 16.56847656 31.44632813 17.13695312 32.19140625 17.72265625 C49.6200606 31.99899747 59.77310149 54.97844811 62 77 C63.47911473 100.51282381 56.53987901 124.60981217 41.109375 142.671875 C40.41328125 143.44015625 39.7171875 144.2084375 39 145 C38.26265625 145.83015625 37.5253125 146.6603125 36.765625 147.515625 C20.55018115 164.79090178 -3.1915157 174.69753915 -26.73926067 175.57398319 C-32.02917249 175.67380209 -37.31495734 175.66396791 -42.60546875 175.62890625 C-44.9094504 175.62973743 -47.21343197 175.63220615 -49.51741028 175.63621521 C-54.30354029 175.63904853 -59.08919587 175.62460275 -63.87524414 175.59692383 C-69.99248088 175.56263209 -76.10888267 175.56895364 -82.226161 175.5875864 C-86.96609922 175.59816989 -91.70584429 175.5892097 -96.44576454 175.57420158 C-98.70189147 175.56904358 -100.95803873 175.56947242 -103.21416283 175.57574654 C-106.36221001 175.58122353 -109.50907071 175.56075089 -112.65698242 175.53344727 C-113.57503159 175.53997314 -114.49308075 175.54649902 -115.43894958 175.55322266 C-123.55828266 175.43405372 -131.22423704 172.93620082 -137 167 C-141.27440805 160.43052626 -143.12875256 155.436321 -143.11352539 147.57910156 C-143.11344986 146.27805481 -143.11337433 144.97700806 -143.11329651 143.63653564 C-143.10819024 142.22123171 -143.10297425 140.80592816 -143.09765625 139.390625 C-143.09579035 137.93902637 -143.09436726 136.48742712 -143.09336853 135.03582764 C-143.08955688 131.22180431 -143.07973815 127.40781927 -143.06866455 123.59381104 C-143.05842135 119.69926471 -143.05386468 115.80471217 -143.04882812 111.91015625 C-143.03811465 104.27342007 -143.02105449 96.63671541 -143 89 C-142.27131714 88.99413376 -141.54263428 88.98826752 -140.79187012 88.98222351 C-133.85064347 88.92379034 -126.90967896 88.85143558 -119.96875763 88.76428509 C-116.40221 88.71997179 -112.83576644 88.68063597 -109.26904297 88.65356445 C-76.45995913 88.39661438 -50.01834419 84.00396861 -25.25 60.5625 C-14.10832677 48.91799591 -6.94765133 33.47729967 -3 18 C-2.78730469 17.17886719 -2.57460938 16.35773438 -2.35546875 15.51171875 C-1.12216606 10.37443634 -0.50062202 5.25653124 0 0 Z " fill="#0EAFF7" transform="translate(335,217)"/>
<path d="M0 0 C0.8997757 -0.00426498 1.79955139 -0.00852997 2.72659302 -0.01292419 C3.70638123 -0.01247101 4.68616943 -0.01201782 5.69564819 -0.0115509 C7.25250839 -0.01658882 7.25250839 -0.01658882 8.84082031 -0.02172852 C12.27730502 -0.03123838 15.71374098 -0.03318192 19.15023804 -0.03425598 C21.5419517 -0.0374695 23.93366517 -0.04083364 26.32537842 -0.04434204 C31.3439886 -0.05033408 36.36258156 -0.05218196 41.38119507 -0.05158997 C47.79676126 -0.05148856 54.21221624 -0.06511823 60.62775612 -0.08236217 C65.57100934 -0.09351059 70.51423596 -0.09550827 75.45750046 -0.09498024 C77.82166297 -0.09615694 80.18582625 -0.10056122 82.54997635 -0.10831261 C85.86684057 -0.11816589 89.18346722 -0.11521291 92.50033569 -0.10920715 C93.46797852 -0.11482666 94.43562134 -0.12044617 95.43258667 -0.12623596 C118.92667222 -0.01873487 139.91710949 11.19080307 156.73617554 26.94621277 C171.15343045 42.06303912 181.80962269 63.93449377 181.54867554 85.07121277 C181.5396521 86.02898621 181.53062866 86.98675964 181.52133179 87.97355652 C181.50392944 89.04283386 181.50392944 89.04283386 181.48617554 90.13371277 C177.35221183 89.68273491 173.40305683 89.14650209 169.37458801 88.11479187 C164.13490465 86.93403187 159.06324838 86.82389284 153.70907593 86.81144714 C152.670439 86.80151733 151.63180206 86.79158752 150.56169128 86.78135681 C147.15237713 86.75233146 143.74324878 86.7385494 140.33383179 86.72746277 C138.57765943 86.71898064 138.57765943 86.71898064 136.78600883 86.71032715 C130.5953164 86.6804366 124.40471614 86.66191665 118.21395874 86.65324402 C111.83744428 86.64226248 105.46178129 86.59415587 99.0855341 86.53730011 C94.16371721 86.49997159 89.24210446 86.48963236 84.320158 86.48657227 C81.96990725 86.4805394 79.61965922 86.46455059 77.26954842 86.4382019 C73.97660196 86.40390438 70.68572462 86.40788039 67.39266968 86.42082214 C66.43288208 86.40239258 65.47309448 86.38396301 64.48422241 86.36497498 C57.19807642 86.45420873 52.28550191 88.76974019 46.48617554 93.13371277 C44.22041715 95.38706344 44.22041715 95.38706344 42.92367554 97.75871277 C42.46863647 98.49347839 42.01359741 99.22824402 41.54476929 99.98527527 C39.36438002 104.41041954 39.33926662 108.47406206 39.28085327 113.38078308 C39.27095367 114.10313141 39.26105408 114.82547974 39.25085449 115.56971741 C39.2193407 117.95039119 39.19452224 120.3310849 39.16976929 122.71183777 C39.14919101 124.3652243 39.12819431 126.01860568 39.10679626 127.67198181 C39.0516658 132.0185986 39.00221681 136.36526215 38.95394897 140.71195984 C38.90366797 145.14946137 38.84801638 149.58689519 38.79281616 154.02433777 C38.68534501 162.72740547 38.58387562 171.43052992 38.48617554 180.13371277 C32.68791356 180.25816364 26.89044457 180.34845106 21.09115601 180.40837097 C19.12226807 180.43337324 17.15347161 180.46738677 15.18490601 180.51091003 C-6.60426138 180.98026615 -6.60426138 180.98026615 -15.95132446 173.07121277 C-16.46694946 172.43183777 -16.98257446 171.79246277 -17.51382446 171.13371277 C-18.31819946 170.17465027 -18.31819946 170.17465027 -19.13882446 169.19621277 C-21.99648486 164.90972217 -22.76450364 161.22759405 -22.77452087 156.11274719 C-22.78160568 154.90435181 -22.78869049 153.69595642 -22.79598999 152.45094299 C-22.79351257 151.13341034 -22.79103516 149.81587769 -22.78848267 148.4584198 C-22.79283212 147.050336 -22.79801605 145.64225457 -22.80397034 144.23417664 C-22.81734747 140.41591593 -22.81794038 136.5977543 -22.81540704 132.77947474 C-22.81433631 129.58871411 -22.81922336 126.39797344 -22.82401246 123.2072171 C-22.83510349 115.67732934 -22.83554752 108.14749146 -22.82949829 100.61759949 C-22.8234599 92.85760704 -22.83576696 85.09779598 -22.85706836 77.33783448 C-22.87470082 70.66845328 -22.88068307 63.99912974 -22.87743062 57.3297261 C-22.87562001 53.34950381 -22.87823148 49.36941087 -22.89214516 45.38920975 C-22.90474549 41.64464691 -22.90275876 37.90036613 -22.88973427 34.1558075 C-22.88625127 32.13304404 -22.8975306 30.11027188 -22.90930176 28.08753967 C-22.8545682 18.61427301 -21.50047834 12.75078611 -15.06069946 5.64152527 C-10.60886375 1.30210965 -6.05376296 0.01301073 0 0 Z " fill="#00C9A6" transform="translate(153.51382446289063,125.86628723144531)"/>
</svg>
