<?xml version="1.0" encoding="UTF-8"?>
<svg version="1.1" xmlns="http://www.w3.org/2000/svg" width="64" height="64">
<path d="M0 0 C21.12 0 42.24 0 64 0 C64 21.12 64 42.24 64 64 C42.88 64 21.76 64 0 64 C0 42.88 0 21.76 0 0 Z " fill="#EF5125" transform="translate(0,0)"/>
<path d="M0 0 C3.86645292 0.81533109 6.27558673 2.18211406 8.9375 5.1875 C10.11172242 8.29573582 9.99331882 10.74297733 9.83984375 14.02734375 C9.86565578 16.32449615 9.86565578 16.32449615 12 19 C14.74561602 23.11842403 14.54367526 25.10692268 14 30 C12.61695277 33.66100738 11.49389486 34.72678157 8.0625 36.625 C3.16936509 38.62572878 -1.73281071 38.32624428 -6.9375 38.1875 C-7.90751953 38.17396484 -8.87753906 38.16042969 -9.87695312 38.14648438 C-12.25189129 38.11138677 -14.62564378 38.06222275 -17 38 C-17.0740421 32.90970056 -17.12855008 27.81971308 -17.16479492 22.72900391 C-17.1799009 20.99652651 -17.20038694 19.26408746 -17.22631836 17.53173828 C-17.26262321 15.04450022 -17.27970765 12.55776674 -17.29296875 10.0703125 C-17.30845261 9.29317902 -17.32393646 8.51604553 -17.33988953 7.71536255 C-17.34057617 5.53173828 -17.34057617 5.53173828 -17 2 C-11.91317909 -1.39121394 -5.94306508 -0.42881191 0 0 Z " fill="#F8F8F8" transform="translate(35,13)"/>
<path d="M0 0 C2.06183633 -0.08150744 4.12461349 -0.1394194 6.1875 -0.1875 C7.33605469 -0.22230469 8.48460937 -0.25710938 9.66796875 -0.29296875 C13.32821741 0.02885851 15.13777662 0.72797962 18 3 C19.0625 6.375 19.0625 6.375 19 10 C17.5 12.875 17.5 12.875 15 15 C11.00681597 16.23425688 8.97225528 16.42271968 5.125 14.75 C2.25473316 11.03553703 2.3540877 7.96506369 2.23828125 3.36328125 C2.15964844 2.58339844 2.08101562 1.80351562 2 1 C1.34 0.67 0.68 0.34 0 0 Z " fill="#EF5227" transform="translate(23,16)"/>
</svg>
