<?xml version="1.0" encoding="UTF-8"?>
<svg version="1.1" xmlns="http://www.w3.org/2000/svg" width="200" height="200">
<path d="M0 0 C1.25296875 0.4125 2.5059375 0.825 3.796875 1.25 C28.74462541 10.06760046 48.21993996 28.50355897 60.08447266 52.01074219 C70.70512729 75.08730057 73.09510894 102.81586203 65 127 C64.5875 128.25296875 64.175 129.5059375 63.75 130.796875 C54.93239954 155.74462541 36.49644103 175.21993996 12.98925781 187.08447266 C-10.08730057 197.70512729 -37.81586203 200.09510894 -62 192 C-63.87945312 191.38125 -63.87945312 191.38125 -65.796875 190.75 C-90.74462541 181.93239954 -110.21993996 163.49644103 -122.08447266 139.98925781 C-132.70512729 116.91269943 -135.09510894 89.18413797 -127 65 C-126.5875 63.74703125 -126.175 62.4940625 -125.75 61.203125 C-116.93239954 36.25537459 -98.49644103 16.78006004 -74.98925781 4.91552734 C-51.91269943 -5.70512729 -24.18413797 -8.09510894 0 0 Z " fill="#000000" transform="translate(131,4)"/>
<path d="M0 0 C9.41435626 -0.06959064 18.82862362 -0.1228572 28.24318123 -0.15543652 C32.6150129 -0.17107503 36.98666824 -0.19228001 41.35839844 -0.22631836 C45.57943321 -0.25897675 49.80029865 -0.27686667 54.02145004 -0.28463173 C55.62976623 -0.29016363 57.23807342 -0.30096615 58.84631729 -0.31719017 C61.10363859 -0.33905107 63.36026521 -0.34196339 65.61767578 -0.34057617 C66.90118927 -0.34723801 68.18470276 -0.35389984 69.5071106 -0.36076355 C73.29157563 0.03011543 75.73393394 1.09754646 79 3 C79 4.98 79 6.96 79 9 C80.27875 9.061875 81.5575 9.12375 82.875 9.1875 C92.14855566 10.25024657 99.62115811 15.40227628 106 22 C106.99 23.485 106.99 23.485 108 25 C110.62087679 25.28906167 113.01849434 25.39302074 115.640625 25.37109375 C117.201825 25.38848617 118.76302287 25.40607044 120.32421875 25.42382812 C122.78405856 25.43387529 125.24375387 25.43750435 127.70361328 25.43579102 C130.07888591 25.4393776 132.45305066 25.46679137 134.828125 25.49609375 C135.55646545 25.48791122 136.28480591 25.4797287 137.03521729 25.47129822 C142.12957889 25.54498433 145.20805194 26.575144 149 30 C149.77294922 32.47363281 149.77294922 32.47363281 149.8046875 35.203125 C149.84335937 36.67265625 149.84335937 36.67265625 149.8828125 38.171875 C149.88023437 39.18765625 149.87765625 40.2034375 149.875 41.25 C149.9059375 42.796875 149.9059375 42.796875 149.9375 44.375 C149.98458283 46.91747285 150.00444327 49.45718042 150 52 C149.01 51.67 148.02 51.34 147 51 C146.97812622 50.10692139 146.97812622 50.10692139 146.95581055 49.19580078 C146.88145656 46.50486949 146.78475813 43.81519667 146.6875 41.125 C146.66494141 40.18785156 146.64238281 39.25070313 146.61914062 38.28515625 C146.58369141 37.38925781 146.54824219 36.49335937 146.51171875 35.5703125 C146.48553467 34.74289551 146.45935059 33.91547852 146.43237305 33.06298828 C146.16903363 30.60672068 146.16903363 30.60672068 143 29 C140.32604377 28.86681939 137.74808614 28.84295671 135.078125 28.90234375 C133.47917064 28.90640973 131.88020952 28.90829317 130.28125 28.90820312 C127.76761851 28.91629106 125.2571256 28.93733269 122.74414062 28.99633789 C108.6594001 29.29462584 108.6594001 29.29462584 104.48999023 26.04174805 C102.800519 23.76908102 101.42161029 21.44416725 100 19 C97.28028428 16.99111866 97.28028428 16.99111866 94.5625 15.9375 C93.26505859 15.36322266 93.26505859 15.36322266 91.94140625 14.77734375 C91.30074219 14.52082031 90.66007812 14.26429687 90 14 C91.03060547 14.88751953 91.03060547 14.88751953 92.08203125 15.79296875 C92.98308594 16.58316406 93.88414063 17.37335938 94.8125 18.1875 C95.70582031 18.96480469 96.59914063 19.74210937 97.51953125 20.54296875 C100 23 100 23 101.1418457 25.6159668 C102.88309662 28.40439187 102.88309662 28.40439187 106.65771484 28.61181641 C108.17531614 28.63268234 109.69341586 28.62758479 111.2109375 28.6015625 C112.41866318 28.61357193 112.41866318 28.61357193 113.65078735 28.62582397 C116.22603505 28.6489233 118.79970931 28.63942471 121.375 28.625 C123.94285597 28.6211487 126.51001159 28.62463525 129.07778931 28.64559937 C130.67489469 28.65765653 132.27219641 28.65507159 133.86923218 28.63589478 C138.37510326 28.65843748 141.56206399 28.94960247 145 32 C145.56420898 34.20483398 145.56420898 34.20483398 145.49609375 36.74609375 C145.49802734 37.66583984 145.49996094 38.58558594 145.50195312 39.53320312 C145.45906901 41.46558748 145.41220957 43.39788781 145.36132812 45.33007812 C145.37067454 48.00128407 145.41012691 50.39288562 146 53 C148.8485514 55.66839571 148.8485514 55.66839571 152 57 C152 57.33 152 57.66 152 58 C151.02733437 57.99880661 151.02733437 57.99880661 150.03501892 57.99758911 C143.26969019 57.99514637 136.5055055 58.0344276 129.74047852 58.09765625 C127.21774616 58.11579492 124.69491459 58.12338866 122.17211914 58.12011719 C118.53974973 58.11725424 114.90942901 58.15263502 111.27734375 58.1953125 C110.15416245 58.18621857 109.03098114 58.17712463 107.87376404 58.16775513 C102.60967768 58.26487766 99.0195249 58.40206964 94.93969727 61.93310547 C94.43922379 62.46096649 93.93875031 62.98882751 93.42311096 63.53268433 C91.28628006 65.73588953 88.80019936 66.82782352 86 68 C85.34 68 84.68 68 84 68 C83.9071875 69.423125 83.9071875 69.423125 83.8125 70.875 C83.10828237 76.07127249 80.47950619 80.45271375 78 85 C75.39368483 82.65431635 73.85595651 80.23299819 72.25 77.125 C71.80140625 76.28195313 71.3528125 75.43890625 70.890625 74.5703125 C69.85921726 71.59370594 70.12313201 69.98348988 71 67 C70.319375 66.9175 69.63875 66.835 68.9375 66.75 C61.94823636 64.96550715 56.83863565 61.03531154 53 55 C50.90043749 50.3996847 49.18629761 45.88626332 48.6875 40.8359375 C48.27158117 37.90053544 48.27158117 37.90053544 46.05078125 36.35546875 C35.7071101 31.94354625 25.10496072 32.07559437 14 32 C13.67 31.34 13.34 30.68 13 30 C13.66 29.01 14.32 28.02 15 27 C16.05149786 21.31611018 16.19581355 14.66094157 15 9 C13.03307514 6.55208042 11.65832339 5.74687127 8.75 4.65625 C8.1725 4.4396875 7.595 4.223125 7 4 C7 3.34 7 2.68 7 2 C5.35 2 3.7 2 2 2 C3.19109375 2.46212891 3.19109375 2.46212891 4.40625 2.93359375 C7.94082793 4.65179135 10.32286869 6.09800663 13 9 C13.88109092 11.91296448 13.9784876 14.65729957 13.9375 17.6875 C13.92847656 18.43636475 13.91945313 19.18522949 13.91015625 19.95678711 C13.68842975 23.59611778 13.26878003 25.67103773 10.94140625 28.51953125 C10.30074219 29.00808594 9.66007812 29.49664062 9 30 C9.31710938 29.33613281 9.63421875 28.67226562 9.9609375 27.98828125 C11.21184151 24.39075657 11.45190052 20.9560199 11.625 17.1875 C11.66367187 16.49462891 11.70234375 15.80175781 11.7421875 15.08789062 C11.83573568 13.39232985 11.91892364 11.69620288 12 10 C10.88044922 9.58041016 10.88044922 9.58041016 9.73828125 9.15234375 C7.31002836 8.13046843 5.33683189 7.06562753 3.1875 5.5625 C2.58292969 5.15128906 1.97835938 4.74007812 1.35546875 4.31640625 C0.90816406 3.88199219 0.46085937 3.44757812 0 3 C0 2.01 0 1.02 0 0 Z " fill="#D6D6D6" transform="translate(22,59)"/>
<path d="M0 0 C23.1 0 46.2 0 70 0 C70 0.33 70 0.66 70 1 C48.88 1 27.76 1 6 1 C6 1.66 6 2.32 6 3 C7.3921875 3.4021875 7.3921875 3.4021875 8.8125 3.8125 C11.88024193 4.95538425 13.03730959 5.5065396 15 8 C15.37231445 9.92944336 15.37231445 9.92944336 15.36328125 12.08984375 C15.36263672 12.87423828 15.36199219 13.65863281 15.36132812 14.46679688 C15.34521484 15.28212891 15.32910156 16.09746094 15.3125 16.9375 C15.31572266 17.74896484 15.31894531 18.56042969 15.32226562 19.39648438 C15.28474286 23.55468922 15.08171876 26.31672006 13 30 C13.5983667 29.99887207 14.1967334 29.99774414 14.81323242 29.99658203 C40.56776292 30.11035409 40.56776292 30.11035409 48 37 C49.39296893 40.30026484 49.98414698 43.2618378 50.48046875 46.8046875 C51.45868311 52.82107354 54.59604493 56.59604493 58.8125 60.8125 C62.48915262 63.33569297 65.77496583 64.61593708 70 66 C69.938125 66.69480469 69.87625 67.38960938 69.8125 68.10546875 C70.04917189 71.75909102 71.29752882 74.08489838 73 77.3125 C73.556875 78.38113281 74.11375 79.44976562 74.6875 80.55078125 C75.120625 81.35902344 75.55375 82.16726562 76 83 C79.17572701 78.94606915 81.73013905 74.69030614 82.25390625 69.46875 C83 67 83 67 85.36328125 65.33984375 C86.33652344 64.87707031 87.30976562 64.41429688 88.3125 63.9375 C92.4663874 61.96480641 92.4663874 61.96480641 95.84588623 58.93865967 C98.49521783 56.55431377 99.71128154 56.48823999 103.22753906 56.45410156 C104.78870453 56.42452362 104.78870453 56.42452362 106.38140869 56.39434814 C108.05659576 56.39250519 108.05659576 56.39250519 109.765625 56.390625 C111.48842682 56.36582062 111.48842682 56.36582062 113.24603271 56.34051514 C116.91407566 56.29193385 120.5817037 56.27064077 124.25 56.25 C126.73700016 56.22184894 129.2239809 56.19192275 131.7109375 56.16015625 C137.80721609 56.08617203 143.90337751 56.03458887 150 56 C149.02659668 55.44280273 148.05319336 54.88560547 147.05029297 54.31152344 C144 52 144 52 143.22705078 49.61816406 C143.21657715 48.75932617 143.20610352 47.90048828 143.1953125 47.015625 C143.15664063 45.61376953 143.15664063 45.61376953 143.1171875 44.18359375 C143.11976563 43.21550781 143.12234375 42.24742188 143.125 41.25 C143.104375 40.26644531 143.08375 39.28289062 143.0625 38.26953125 C143.0154316 35.84550842 142.99555508 33.42438611 143 31 C139.15074869 28.42391878 135.2030081 28.80571092 130.76171875 28.90234375 C129.12044658 28.90640879 127.47916783 28.90829319 125.83789062 28.90820312 C123.26284813 28.91629689 120.69086878 28.93742291 118.11645508 28.99633789 C103.72567585 29.29324006 103.72567585 29.29324006 99.41040039 26.05932617 C97.67034932 23.78462383 96.3789861 21.50175251 95 19 C92.7831871 16.80384758 90.44562383 14.94651692 88 13 C88.66 12.67 89.32 12.34 90 12 C92.171875 12.93359375 92.171875 12.93359375 94.75 14.4375 C95.59046875 14.91058594 96.4309375 15.38367188 97.296875 15.87109375 C100 18 100 18 101.02880859 19.97973633 C102.45489285 22.6596883 103.55038022 24.16775768 106 26 C112.03707894 27.10313755 118.00756419 26.94274679 124.125 26.8125 C126.61161216 26.78626179 129.09744677 26.77146229 131.584198 26.77262878 C133.12690758 26.77060491 134.66971589 26.75141458 136.21194458 26.71284485 C139.33539946 26.68599162 141.64459025 26.82373817 144.46533203 28.22265625 C146.41153978 30.47661622 146.53406002 31.71185579 146.609375 34.66796875 C146.64160156 35.56064453 146.67382812 36.45332031 146.70703125 37.37304688 C146.72121094 38.30181641 146.73539063 39.23058594 146.75 40.1875 C146.77964844 41.12787109 146.80929688 42.06824219 146.83984375 43.03710938 C146.91053562 45.35815916 146.96323165 47.67820535 147 50 C148.093125 50.45375 149.18625 50.9075 150.3125 51.375 C152.82137765 52.41642091 154.69717067 53.46478044 157 55 C156.6299345 57.51733384 156.18613928 58.79834182 154.44213867 60.68774414 C144.924595 67.29297618 133.56008326 65.62265421 122.49584961 65.37426758 C119.76360394 65.32342733 117.03343725 65.31463837 114.30078125 65.30859375 C113.47145584 65.2755162 112.64213043 65.24243866 111.78767395 65.20835876 C108.17010741 65.20893665 105.89016365 65.31900336 102.95783997 67.56230164 C101.07651028 69.42516331 101.07651028 69.42516331 99.45718384 71.37442017 C97.56958951 73.48014986 95.73584911 74.11458887 93.0625 74.9375 C85.95920618 78.14264477 83.7388189 85.31098852 80.83642578 92.08544922 C79.66088628 94.77622001 78.33731205 97.38672048 77 100 C74.82104932 97.48058828 73.4484044 94.90754472 72.125 91.8828125 C67.04054027 80.15997775 67.04054027 80.15997775 56.6484375 73.265625 C49.66147305 69.92672163 45.517539 63.00057809 42.69140625 56.04296875 C41.37325524 52.14809317 40.88315612 48.88013517 40.9375 44.75 C40.94652344 43.85796875 40.95554688 42.9659375 40.96484375 42.046875 C40.97644531 41.37140625 40.98804688 40.6959375 41 40 C37.50871726 39.29611235 34.16081563 38.93492317 30.609375 38.89453125 C21.01926439 38.76017752 13.68518401 38.46029607 6 32 C7 29 7 29 9.015625 27.359375 C11.93880043 23.88378846 11.66948731 20.66355903 11.75 16.25 C11.77964844 15.45722656 11.80929688 14.66445312 11.83984375 13.84765625 C11.91027787 11.89897906 11.95743482 9.94948505 12 8 C11.25363281 7.72285156 10.50726563 7.44570312 9.73828125 7.16015625 C7.26737878 6.11328316 5.34357292 5.01110442 3.1875 3.4375 C2.58292969 3.00308594 1.97835938 2.56867187 1.35546875 2.12109375 C0.90816406 1.75113281 0.46085937 1.38117187 0 1 C0 0.67 0 0.34 0 0 Z " fill="#282828" transform="translate(23,60)"/>
<path d="M0 0 C3 1 3 1 4 3 C4.09658497 4.71921244 4.13075525 6.44214036 4.1328125 8.1640625 C4.13474609 9.72447266 4.13474609 9.72447266 4.13671875 11.31640625 C4.13285156 12.40824219 4.12898438 13.50007813 4.125 14.625 C4.13080078 16.22794922 4.13080078 16.22794922 4.13671875 17.86328125 C4.13103608 22.48329416 4.08348888 26.98000514 3.40234375 31.5546875 C2.92204581 35.66753009 3.83760148 37.54016238 6 41 C9.15277249 37.57307338 9.66643139 34.5865684 10 30 C9.67 29.01 9.34 28.02 9 27 C8.90612887 25.17766025 8.86929409 23.3520984 8.8671875 21.52734375 C8.86589844 20.46322266 8.86460938 19.39910156 8.86328125 18.30273438 C8.86714844 17.19220703 8.87101562 16.08167969 8.875 14.9375 C8.86919922 13.2659082 8.86919922 13.2659082 8.86328125 11.56054688 C8.86457031 10.49771484 8.86585937 9.43488281 8.8671875 8.33984375 C8.86831543 7.36394287 8.86944336 6.38804199 8.87060547 5.38256836 C9 3 9 3 10 1 C11.19625 1.20625 12.3925 1.4125 13.625 1.625 C17.59715357 2.13730956 20.24334963 1.4514331 24 0 C25.32 0 26.64 0 28 0 C28.02691685 2.45840605 28.04679802 4.91651882 28.0625 7.375 C28.07087891 8.07367188 28.07925781 8.77234375 28.08789062 9.4921875 C28.11328125 14.7734375 28.11328125 14.7734375 27 17 C25.68 16.67 24.36 16.34 23 16 C23 12.04 23 8.08 23 4 C20.69 4.66 18.38 5.32 16 6 C16.01160156 6.62648438 16.02320313 7.25296875 16.03515625 7.8984375 C16.04417969 8.71570313 16.05320313 9.53296875 16.0625 10.375 C16.07410156 11.18710938 16.08570313 11.99921875 16.09765625 12.8359375 C16 15 16 15 15 17 C21.6 17 28.2 17 35 17 C34.34 16.34 33.68 15.68 33 15 C32.8046875 12.8359375 32.8046875 12.8359375 32.875 10.375 C32.89304688 9.55773437 32.91109375 8.74046875 32.9296875 7.8984375 C32.95289063 7.27195312 32.97609375 6.64546875 33 6 C35.31399097 8.20680338 36.57446774 10.14893549 38 13 C38.66 13.33 39.32 13.66 40 14 C40.28875 13.21625 40.5775 12.4325 40.875 11.625 C42 9 42 9 44 7 C44.02689216 8.47906892 44.04634621 9.95827483 44.0625 11.4375 C44.07410156 12.26121094 44.08570313 13.08492187 44.09765625 13.93359375 C44 16 44 16 43 17 C44.04454346 16.98428955 45.08908691 16.9685791 46.1652832 16.95239258 C50.03971652 16.89810303 53.91411619 16.8636537 57.78881836 16.83520508 C59.4659592 16.82011616 61.14306057 16.79964252 62.82006836 16.77368164 C65.23040504 16.73730189 67.64022019 16.72027514 70.05078125 16.70703125 C70.80087967 16.69154739 71.55097809 16.67606354 72.32380676 16.66011047 C77.61330911 16.65839946 77.61330911 16.65839946 79.72209167 18.52128601 C80.3546563 19.25324944 80.3546563 19.25324944 81 20 C80.02733437 19.99880661 80.02733437 19.99880661 79.03501892 19.99758911 C72.26969019 19.99514637 65.5055055 20.0344276 58.74047852 20.09765625 C56.21774616 20.11579492 53.69491459 20.12338866 51.17211914 20.12011719 C47.53974973 20.11725424 43.90942901 20.15263502 40.27734375 20.1953125 C39.15416245 20.18621857 38.03098114 20.17712463 36.87376404 20.16775513 C31.60967768 20.26487766 28.0195249 20.40206964 23.93969727 23.93310547 C23.43922379 24.46096649 22.93875031 24.98882751 22.42311096 25.53268433 C20.28628006 27.73588953 17.80019936 28.82782352 15 30 C14.34 30 13.68 30 13 30 C12.9071875 31.423125 12.9071875 31.423125 12.8125 32.875 C12.10828237 38.07127249 9.47950619 42.45271375 7 47 C4.39368483 44.65431635 2.85595651 42.23299819 1.25 39.125 C0.80140625 38.28195313 0.3528125 37.43890625 -0.109375 36.5703125 C-1.14078274 33.59370594 -0.87686799 31.98348988 0 29 C-0.804375 28.87625 -1.60875 28.7525 -2.4375 28.625 C-3.7059375 28.315625 -3.7059375 28.315625 -5 28 C-5.33 27.34 -5.66 26.68 -6 26 C-4.68 26 -3.36 26 -2 26 C-2.88751953 25.48953125 -2.88751953 25.48953125 -3.79296875 24.96875 C-9.42898885 21.51174583 -13.44708039 18.21479978 -16 12 C-16.61972668 9.26947493 -16.84932785 6.81254683 -17 4 C-16.01 4 -15.02 4 -14 4 C-14 3.01 -14 2.02 -14 1 C-8.23448276 1.91724138 -8.23448276 1.91724138 -5.875 2.75 C-3.83364921 3.24160592 -3.83364921 3.24160592 -1.9375 1.5 C-1.298125 1.005 -0.65875 0.51 0 0 Z " fill="#ECECEC" transform="translate(93,97)"/>
<path d="M0 0 C1.79050781 0.0937793 1.79050781 0.0937793 3.6171875 0.18945312 C4.82632813 0.21716797 6.03546875 0.24488281 7.28125 0.2734375 C16.14256344 0.52732906 16.14256344 0.52732906 17.3671875 1.75195312 C17.40799533 3.75153676 17.40973106 5.75240566 17.3671875 7.75195312 C15.0571875 7.09195313 12.7471875 6.43195313 10.3671875 5.75195312 C10.3671875 7.40195313 10.3671875 9.05195312 10.3671875 10.75195312 C11.3571875 10.75195312 12.3471875 10.75195312 13.3671875 10.75195312 C13.3671875 12.40195313 13.3671875 14.05195312 13.3671875 15.75195312 C12.0471875 15.42195313 10.7271875 15.09195313 9.3671875 14.75195312 C9.3671875 16.40195313 9.3671875 18.05195312 9.3671875 19.75195312 C12.0071875 19.09195313 14.6471875 18.43195313 17.3671875 17.75195312 C17.4909375 18.53570312 17.6146875 19.31945312 17.7421875 20.12695312 C18.15836743 22.89253134 18.15836743 22.89253134 20.3671875 24.75195312 C9.8071875 24.75195312 -0.7528125 24.75195312 -11.6328125 24.75195312 C-11.3028125 24.09195313 -10.9728125 23.43195313 -10.6328125 22.75195312 C-10.59258859 20.41896652 -10.58961003 18.08488647 -10.6328125 15.75195312 C-11.6228125 17.40195313 -12.6128125 19.05195312 -13.6328125 20.75195312 C-16.6328125 19.75195312 -16.6328125 19.75195312 -18.3203125 16.68945312 C-18.7534375 15.72007813 -19.1865625 14.75070313 -19.6328125 13.75195312 C-19.6740625 15.01007813 -19.7153125 16.26820312 -19.7578125 17.56445312 C-19.78101562 18.27214844 -19.80421875 18.97984375 -19.828125 19.70898438 C-19.76535712 22.06555031 -19.76535712 22.06555031 -17.6328125 24.75195312 C-24.8928125 24.75195312 -32.1528125 24.75195312 -39.6328125 24.75195312 C-38.4609375 15.57226562 -38.4609375 15.57226562 -37.6328125 12.75195312 C-35.07671734 10.88241245 -33.83324974 10.75195312 -30.6328125 10.75195312 C-30.3028125 14.71195313 -29.9728125 18.67195313 -29.6328125 22.75195312 C-28.6428125 23.08195312 -27.6528125 23.41195312 -26.6328125 23.75195312 C-26.60703125 22.69234375 -26.58125 21.63273437 -26.5546875 20.54101562 C-26.4984147 19.15295311 -26.44106717 17.76493388 -26.3828125 16.37695312 C-26.36154297 15.32894531 -26.36154297 15.32894531 -26.33984375 14.25976562 C-26.2421875 12.22851562 -26.2421875 12.22851562 -25.6328125 8.75195312 C-22.77803392 6.53683448 -20.18684923 6.377844 -16.6328125 6.75195312 C-15.9728125 7.41195312 -15.3128125 8.07195312 -14.6328125 8.75195312 C-14.4255957 8.180979 -14.21837891 7.61000488 -14.00488281 7.02172852 C-10.79846149 0.1582172 -7.24161342 -0.13365394 0 0 Z " fill="#060606" transform="translate(146.6328125,90.248046875)"/>
<path d="M0 0 C0.02691685 2.45840605 0.04679802 4.91651882 0.0625 7.375 C0.07087891 8.07367188 0.07925781 8.77234375 0.08789062 9.4921875 C0.11328125 14.7734375 0.11328125 14.7734375 -1 17 C-2.32 16.67 -3.64 16.34 -5 16 C-5 12.04 -5 8.08 -5 4 C-7.31 4.66 -9.62 5.32 -12 6 C-11.98839844 6.62648438 -11.97679688 7.25296875 -11.96484375 7.8984375 C-11.95582031 8.71570313 -11.94679688 9.53296875 -11.9375 10.375 C-11.92589844 11.18710938 -11.91429688 11.99921875 -11.90234375 12.8359375 C-12 15 -12 15 -13 17 C-6.4 17 0.2 17 7 17 C6.34 16.34 5.68 15.68 5 15 C4.8046875 12.8359375 4.8046875 12.8359375 4.875 10.375 C4.89304687 9.55773437 4.91109375 8.74046875 4.9296875 7.8984375 C4.95289062 7.27195312 4.97609375 6.64546875 5 6 C7.31399097 8.20680338 8.57446774 10.14893549 10 13 C10.66 13.33 11.32 13.66 12 14 C12.28875 13.21625 12.5775 12.4325 12.875 11.625 C14 9 14 9 16 7 C16.02689216 8.47906892 16.04634621 9.95827483 16.0625 11.4375 C16.07410156 12.26121094 16.08570313 13.08492187 16.09765625 13.93359375 C16 16 16 16 15 17 C16.04454346 16.98428955 17.08908691 16.9685791 18.1652832 16.95239258 C22.03971652 16.89810303 25.91411619 16.8636537 29.78881836 16.83520508 C31.4659592 16.82011616 33.14306057 16.79964252 34.82006836 16.77368164 C37.23040504 16.73730189 39.64022019 16.72027514 42.05078125 16.70703125 C42.80087967 16.69154739 43.55097809 16.67606354 44.32380676 16.66011047 C49.61330911 16.65839946 49.61330911 16.65839946 51.72209167 18.52128601 C52.3546563 19.25324944 52.3546563 19.25324944 53 20 C52.01734161 20.00879936 52.01734161 20.00879936 51.01483154 20.01777649 C44.20149632 20.0816695 37.38863523 20.16607884 30.57568359 20.26245117 C28.03245288 20.29572254 25.48914793 20.32374749 22.94580078 20.34643555 C19.29167011 20.37994006 15.63822112 20.43225561 11.984375 20.48828125 C10.84570984 20.49467117 9.70704468 20.5010611 8.53387451 20.50764465 C7.47307678 20.52743881 6.41227905 20.54723297 5.31933594 20.56762695 C4.38667908 20.57873001 3.45402222 20.58983307 2.49310303 20.60127258 C-0.41364534 21.0661552 -1.81749957 22.07214859 -4 24 C-4.66 23.34 -5.32 22.68 -6 22 C-6.7734375 22.680625 -6.7734375 22.680625 -7.5625 23.375 C-10.57300574 25.38200383 -13.50927237 26.12731809 -17 27 C-19.15159508 23.77260738 -19.24840937 22.90082021 -19.23046875 19.18359375 C-19.22853516 18.25482422 -19.22660156 17.32605469 -19.22460938 16.36914062 C-19.21236328 15.40169922 -19.20011719 14.43425781 -19.1875 13.4375 C-19.18685547 12.46619141 -19.18621094 11.49488281 -19.18554688 10.49414062 C-19.14043257 3.28086515 -19.14043257 3.28086515 -18 1 C-16.205625 1.309375 -16.205625 1.309375 -14.375 1.625 C-9.18039837 2.29497512 -5.14731796 0 0 0 Z " fill="#F4F4F4" transform="translate(121,97)"/>
<path d="M0 0 C3.08301416 -0.11644156 6.16546123 -0.18732432 9.25 -0.25 C10.12269531 -0.28351563 10.99539062 -0.31703125 11.89453125 -0.3515625 C18.3647767 -0.45034487 18.3647767 -0.45034487 21.6171875 1.85546875 C23 4 23 4 22.875 6.5625 C22 9 22 9 20 12 C20.99 12.33 21.98 12.66 23 13 C23.48457487 19.42061701 23.48457487 19.42061701 21.5625 21.71875 C17.68012306 23.65993847 14.0226955 23.31768369 9.75 23.1875 C8.90953125 23.17396484 8.0690625 23.16042969 7.203125 23.14648438 C5.13514062 23.11123464 3.06748729 23.0574302 1 23 C1.00785522 22.06148193 1.00785522 22.06148193 1.01586914 21.10400391 C1.03661618 18.27767943 1.04965286 15.45137095 1.0625 12.625 C1.07087891 11.64015625 1.07925781 10.6553125 1.08789062 9.640625 C1.09111328 8.69960937 1.09433594 7.75859375 1.09765625 6.7890625 C1.10289307 5.91975098 1.10812988 5.05043945 1.11352539 4.15478516 C1.14122351 1.94950006 1.14122351 1.94950006 0 0 Z " fill="#080808" transform="translate(39,65)"/>
<path d="M0 0 C1.084021 0.00523682 2.16804199 0.01047363 3.28491211 0.01586914 C4.45473633 0.0190918 5.62456055 0.02231445 6.82983398 0.02563477 C8.0615332 0.03401367 9.29323242 0.04239258 10.56225586 0.05102539 C12.41560547 0.05779297 12.41560547 0.05779297 14.30639648 0.06469727 C17.37089703 0.07652931 20.43530307 0.09301366 23.49975586 0.11352539 C19.4436037 2.81762683 15.14063061 4.18417543 10.56225586 5.80102539 C9.65540039 6.13424805 8.74854492 6.4674707 7.81420898 6.81079102 C6.93829102 7.12081055 6.06237305 7.43083008 5.15991211 7.75024414 C4.36206299 8.03601318 3.56421387 8.32178223 2.7421875 8.61621094 C0.20727695 9.17838979 -1.06070631 8.92021788 -3.50024414 8.11352539 C-4.24274414 7.92790039 -4.98524414 7.74227539 -5.75024414 7.55102539 C-6.32774414 7.40665039 -6.90524414 7.26227539 -7.50024414 7.11352539 C-7.52950434 11.28017708 -7.54713008 15.44680198 -7.56274414 19.61352539 C-7.57112305 20.78657227 -7.57950195 21.95961914 -7.58813477 23.16821289 C-7.62045105 30.44808635 -7.62045105 30.44808635 -6.87524414 37.67602539 C-6.48867347 41.21958991 -6.66328003 42.60231356 -8.43774414 45.61352539 C-8.81801758 46.28383789 -9.19829102 46.95415039 -9.59008789 47.64477539 C-9.89043945 48.12946289 -10.19079102 48.61415039 -10.50024414 49.11352539 C-14.55287572 43.95563065 -14.55287572 43.95563065 -15.50024414 41.11352539 C-15.25694263 39.26955606 -15.01185652 37.42580565 -14.75805664 35.58325195 C-14.24738967 30.69129454 -14.35731222 25.77687299 -14.37524414 20.86352539 C-14.37137695 19.78844727 -14.36750977 18.71336914 -14.36352539 17.60571289 C-14.36545898 16.0549707 -14.36545898 16.0549707 -14.36743164 14.47290039 C-14.36855957 13.53929688 -14.3696875 12.60569336 -14.37084961 11.64379883 C-14.39985895 9.14588113 -14.39985895 9.14588113 -15.13354492 6.96606445 C-15.50024414 5.11352539 -15.50024414 5.11352539 -13.50024414 2.11352539 C-11.15258789 1.63696289 -11.15258789 1.63696289 -8.43774414 1.48852539 C-5.15770481 1.29087596 -3.01229259 0.13677532 0 0 Z " fill="#0B0B0B" transform="translate(110.500244140625,90.886474609375)"/>
<path d="M0 0 C4.31248609 -0.02886537 8.62494762 -0.04675255 12.9375 -0.0625 C14.78504883 -0.07506836 14.78504883 -0.07506836 16.66992188 -0.08789062 C17.83974609 -0.09111328 19.00957031 -0.09433594 20.21484375 -0.09765625 C21.84087524 -0.10551147 21.84087524 -0.10551147 23.49975586 -0.11352539 C26 0 26 0 27 1 C27.04080783 2.99958364 27.04254356 5.00045254 27 7 C24.69 6.34 22.38 5.68 20 5 C20 6.65 20 8.3 20 10 C20.99 10 21.98 10 23 10 C23 11.65 23 13.3 23 15 C21.68 14.67 20.36 14.34 19 14 C19 15.65 19 17.3 19 19 C21.64 18.34 24.28 17.68 27 17 C27.12375 17.78375 27.2475 18.5675 27.375 19.375 C27.79117993 22.14057822 27.79117993 22.14057822 30 24 C19.44 24 8.88 24 -2 24 C-1.34 23.34 -0.68 22.68 0 22 C2.72869407 22.03287583 5.2966618 22.56397771 8 23 C7.67 22.34 7.34 21.68 7 21 C6.90534655 19.64842019 6.86927838 18.29238852 6.8671875 16.9375 C6.86589844 16.14085938 6.86460937 15.34421875 6.86328125 14.5234375 C6.86714844 13.69070312 6.87101563 12.85796875 6.875 12 C6.87113281 11.16726562 6.86726562 10.33453125 6.86328125 9.4765625 C6.86457031 8.67992188 6.86585938 7.88328125 6.8671875 7.0625 C6.86831543 6.33160156 6.86944336 5.60070312 6.87060547 4.84765625 C7 3 7 3 8 1 C5.36 1 2.72 1 0 1 C0 0.67 0 0.34 0 0 Z " fill="#0D0D0D" transform="translate(137,91)"/>
<path d="M0 0 C0.74958984 0.01353516 1.49917969 0.02707031 2.27148438 0.04101562 C4.11879767 0.07631461 5.96574066 0.13012083 7.8125 0.1875 C7.91015625 6.33984375 7.91015625 6.33984375 7.8125 8.1875 C6.8125 9.1875 6.8125 9.1875 3.75 9.25 C2.780625 9.229375 1.81125 9.20875 0.8125 9.1875 C0.8125 7.5375 0.8125 5.8875 0.8125 4.1875 C-0.8375 4.5175 -2.4875 4.8475 -4.1875 5.1875 C-3.8575 9.4775 -3.5275 13.7675 -3.1875 18.1875 C-1.8675 18.5175 -0.5475 18.8475 0.8125 19.1875 C-0.58509905 15.64231116 -0.58509905 15.64231116 -2.1875 12.1875 C1.1125 12.1875 4.4125 12.1875 7.8125 12.1875 C8.1425 15.8175 8.4725 19.4475 8.8125 23.1875 C6.22804227 23.2956866 3.64812648 23.37487237 1.0625 23.4375 C0.33289063 23.47101563 -0.39671875 23.50453125 -1.1484375 23.5390625 C-4.51205527 23.60021919 -6.77457384 23.43836722 -9.67578125 21.67578125 C-11.78113577 18.21037859 -11.73466702 15.05532436 -11.625 11.125 C-11.63208984 10.40505859 -11.63917969 9.68511719 -11.64648438 8.94335938 C-11.61228615 6.11016768 -11.4751423 3.7495088 -10.171875 1.203125 C-6.92457362 -0.45887964 -3.55380664 -0.12104669 0 0 Z " fill="#090909" transform="translate(87.1875,64.8125)"/>
<path d="M0 0 C1.32 0.33 2.64 0.66 4 1 C4 2.98 4 4.96 4 7 C5.27875 7.061875 6.5575 7.12375 7.875 7.1875 C17.14855566 8.25024657 24.62115811 13.40227628 31 20 C31.66 20.99 32.32 21.98 33 23 C35.62087679 23.28906167 38.01849434 23.39302074 40.640625 23.37109375 C42.201825 23.38848617 43.76302287 23.40607044 45.32421875 23.42382812 C47.78405856 23.43387529 50.24375387 23.43750435 52.70361328 23.43579102 C55.07888591 23.4393776 57.45305066 23.46679137 59.828125 23.49609375 C60.55646545 23.48791122 61.28480591 23.4797287 62.03521729 23.47129822 C67.12957889 23.54498433 70.20805194 24.575144 74 28 C74.77294922 30.47363281 74.77294922 30.47363281 74.8046875 33.203125 C74.83046875 34.1828125 74.85625 35.1625 74.8828125 36.171875 C74.88023437 37.18765625 74.87765625 38.2034375 74.875 39.25 C74.895625 40.28125 74.91625 41.3125 74.9375 42.375 C74.98458283 44.91747285 75.00444327 47.45718042 75 50 C73.515 49.505 73.515 49.505 72 49 C71.98541748 48.40461426 71.97083496 47.80922852 71.95581055 47.19580078 C71.88145656 44.50486949 71.78475813 41.81519667 71.6875 39.125 C71.66494141 38.18785156 71.64238281 37.25070313 71.61914062 36.28515625 C71.58369141 35.38925781 71.54824219 34.49335937 71.51171875 33.5703125 C71.48553467 32.74289551 71.45935059 31.91547852 71.43237305 31.06298828 C71.16903363 28.60672068 71.16903363 28.60672068 68 27 C65.32604377 26.86681939 62.74808614 26.84295671 60.078125 26.90234375 C58.47917064 26.90640973 56.88020952 26.90829317 55.28125 26.90820312 C52.76761851 26.91629106 50.2571256 26.93733269 47.74414062 26.99633789 C33.6525327 27.29477127 33.6525327 27.29477127 29.54272461 24.07470703 C27.79296875 21.69140625 27.79296875 21.69140625 26.35009766 19.22485352 C24.21077525 15.69942041 21.76593173 14.73298943 18.0625 13 C17.15443604 12.57158813 17.15443604 12.57158813 16.22802734 12.13452148 C11.76327413 10.11469531 7.87491517 9.0974983 3 9 C2.690625 7.88625 2.38125 6.7725 2.0625 5.625 C1.17673517 2.2054845 1.17673517 2.2054845 0 0 Z " fill="#ACACAC" transform="translate(97,61)"/>
<path d="M0 0 C1.084021 0.00523682 2.16804199 0.01047363 3.28491211 0.01586914 C4.45473633 0.0190918 5.62456055 0.02231445 6.82983398 0.02563477 C8.0615332 0.03401367 9.29323242 0.04239258 10.56225586 0.05102539 C12.41560547 0.05779297 12.41560547 0.05779297 14.30639648 0.06469727 C17.37089703 0.07652931 20.43530307 0.09301366 23.49975586 0.11352539 C19.4436037 2.81762683 15.14063061 4.18417543 10.56225586 5.80102539 C9.65540039 6.13424805 8.74854492 6.4674707 7.81420898 6.81079102 C6.93829102 7.12081055 6.06237305 7.43083008 5.15991211 7.75024414 C4.36206299 8.03601318 3.56421387 8.32178223 2.7421875 8.61621094 C0.23918117 9.17131425 -1.09179301 8.89849736 -3.50024414 8.11352539 C-5.08049419 7.90160444 -6.66422875 7.71429168 -8.25024414 7.55102539 C-9.04946289 7.46723633 -9.84868164 7.38344727 -10.67211914 7.29711914 C-11.27540039 7.2365332 -11.87868164 7.17594727 -12.50024414 7.11352539 C-12.83024414 5.46352539 -13.16024414 3.81352539 -13.50024414 2.11352539 C-12.7899707 2.05293945 -12.07969727 1.99235352 -11.34790039 1.92993164 C-9.96924805 1.80424805 -9.96924805 1.80424805 -8.56274414 1.67602539 C-7.6462207 1.59481445 -6.72969727 1.51360352 -5.78540039 1.42993164 C-3.0436384 1.05030306 -2.8346842 0.12871088 0 0 Z " fill="#191919" transform="translate(110.500244140625,90.886474609375)"/>
<path d="M0 0 C3.63 0 7.26 0 11 0 C10.67 0.66 10.34 1.32 10 2 C9.91599471 3.59447464 9.89272533 5.19240545 9.90234375 6.7890625 C9.90556641 7.73007813 9.90878906 8.67109375 9.91210938 9.640625 C9.92048828 10.62546875 9.92886719 11.6103125 9.9375 12.625 C9.94201172 13.61757812 9.94652344 14.61015625 9.95117188 15.6328125 C9.96297855 18.0886016 9.979446 20.54427104 10 23 C7.03 23 4.06 23 1 23 C1.00785522 22.06148193 1.00785522 22.06148193 1.01586914 21.10400391 C1.03661618 18.27767943 1.04965286 15.45137095 1.0625 12.625 C1.07087891 11.64015625 1.07925781 10.6553125 1.08789062 9.640625 C1.09111328 8.69960937 1.09433594 7.75859375 1.09765625 6.7890625 C1.10289307 5.91975098 1.10812988 5.05043945 1.11352539 4.15478516 C1.14122351 1.94950006 1.14122351 1.94950006 0 0 Z " fill="#070707" transform="translate(63,65)"/>
<path d="M0 0 C4.08319884 -0.0871142 8.16615864 -0.14043048 12.25 -0.1875 C13.40886719 -0.21263672 14.56773438 -0.23777344 15.76171875 -0.26367188 C16.87675781 -0.27333984 17.99179688 -0.28300781 19.140625 -0.29296875 C20.16704102 -0.3086792 21.19345703 -0.32438965 22.25097656 -0.34057617 C25.36219561 0.04487237 26.7062117 0.91975476 29 3 C28.6516423 5.52559333 28.07136963 6.90781423 26.5 8.9375 C23.1461738 10.36287614 21.16094106 9.4348902 17.859375 8.171875 C16.91578125 7.78515625 15.9721875 7.3984375 15 7 C13.69325156 6.48299984 12.38591639 5.96748123 11.078125 5.453125 C7.37632531 3.99068022 3.68640874 2.50079091 0 1 C0 0.67 0 0.34 0 0 Z " fill="#0F0F0F" transform="translate(65,91)"/>
<path d="M0 0 C0.66 0.33 1.32 0.66 2 1 C1.74609375 2.859375 1.74609375 2.859375 1 5 C-0.77734375 6.265625 -0.77734375 6.265625 -2.9375 7.25 C-4.00291016 7.75273438 -4.00291016 7.75273438 -5.08984375 8.265625 C-7 9 -7 9 -9 9 C-9.061875 9.94875 -9.12375 10.8975 -9.1875 11.875 C-9.89171763 17.07127249 -12.52049381 21.45271375 -15 26 C-17.62286742 23.64019303 -19.18405224 21.18330046 -20.8125 18.0625 C-21.27269531 17.20785156 -21.73289062 16.35320312 -22.20703125 15.47265625 C-23 13 -23 13 -21 9 C-19.35 12.63 -17.7 16.26 -16 20 C-12.28183672 15.04244897 -11.66018906 11.66994309 -12.4375 5.5625 C-12.623125 4.716875 -12.80875 3.87125 -13 3 C-12.01 3.66 -11.02 4.32 -10 5 C-7.69368804 4.40098087 -7.69368804 4.40098087 -5.375 3.1875 C-4.57835938 2.80980469 -3.78171875 2.43210937 -2.9609375 2.04296875 C-1.05365449 1.1510712 -1.05365449 1.1510712 0 0 Z " fill="#DCDCDC" transform="translate(115,118)"/>
<path d="M0 0 C5.55135645 1.38783911 9.87678218 4.09379364 14 8 C14.53077148 9.01255859 15.06154297 10.02511719 15.60839844 11.06835938 C17.78189254 14.36775806 17.78189254 14.36775806 21.72705078 14.74121094 C23.216222 14.76855908 24.70619417 14.76446537 26.1953125 14.734375 C26.98396698 14.74333801 27.77262146 14.75230103 28.58517456 14.76153564 C31.09921626 14.78562026 33.61095268 14.7697199 36.125 14.75 C38.64558091 14.75144061 41.16574753 14.76126617 43.68624878 14.78131104 C45.25321313 14.7915407 46.82031066 14.7897426 48.38723755 14.77484131 C53.77867749 14.77867749 53.77867749 14.77867749 56 17 C55.01 17.495 55.01 17.495 54 18 C53.01 17.67 52.02 17.34 51 17 C48.2789967 16.95309879 45.57902626 16.95940713 42.859375 17 C41.21484364 17.00115873 39.57030889 16.99977556 37.92578125 16.99609375 C35.3396226 16.99168135 32.75708142 16.9998592 30.17138672 17.05126953 C15.74984763 17.31357974 15.74984763 17.31357974 11.40600586 14.05273438 C9.66884383 11.78004579 8.37932301 9.49762784 7 7 C5.10515117 5.09976445 5.10515117 5.09976445 3.0625 3.5 C2.051875 2.675 1.04125 1.85 0 1 C0 0.67 0 0.34 0 0 Z " fill="#080808" transform="translate(111,72)"/>
<path d="M0 0 C0.33 3.96 0.66 7.92 1 12 C4.63 12 8.26 12 12 12 C12.33 12.66 12.66 13.32 13 14 C5.74 14 -1.52 14 -9 14 C-7.828125 4.8203125 -7.828125 4.8203125 -7 2 C-4.44390484 0.13045932 -3.20043724 0 0 0 Z " fill="#171717" transform="translate(116,101)"/>
<path d="M0 0 C0.99 0.33 1.98 0.66 3 1 C3 7.6 3 14.2 3 21 C1.68 21.33 0.36 21.66 -1 22 C-2.70913373 18.58173253 -2.18458479 14.76645237 -2.1875 11 C-2.19974609 10.16726562 -2.21199219 9.33453125 -2.22460938 8.4765625 C-2.22654297 7.67992188 -2.22847656 6.88328125 -2.23046875 6.0625 C-2.23457764 5.33160156 -2.23868652 4.60070312 -2.24291992 3.84765625 C-2 2 -2 2 0 0 Z " fill="#F8F8F8" transform="translate(146,92)"/>
<path d="M0 0 C23.1 0 46.2 0 70 0 C70 0.33 70 0.66 70 1 C48.88 1 27.76 1 6 1 C6 1.66 6 2.32 6 3 C6.66 3 7.32 3 8 3 C8 3.66 8 4.32 8 5 C2.25 3.375 2.25 3.375 0 0 Z " fill="#020202" transform="translate(23,60)"/>
<path d="M0 0 C0.495 1.485 0.495 1.485 1 3 C-22 3 -45 3 -68 3 C-68 2.34 -68 1.68 -68 1 C-59.72452487 0.8692472 -51.44904452 0.73883245 -43.17355728 0.60884857 C-39.33087148 0.54848053 -35.48818759 0.48799629 -31.64550781 0.42724609 C-27.93672862 0.36861706 -24.22794474 0.31029379 -20.51915741 0.25218201 C-19.10458963 0.22996396 -17.69002357 0.20763596 -16.27545929 0.18519592 C-14.29334465 0.15377134 -12.31122323 0.12277483 -10.32910156 0.09179688 C-9.20103088 0.07403198 -8.07296021 0.05626709 -6.91070557 0.03796387 C-4.6072982 0.00792089 -2.30360328 0 0 0 Z " fill="#212121" transform="translate(97,60)"/>
<path d="M0 0 C1.98 0.66 3.96 1.32 6 2 C5.01 2.33 4.02 2.66 3 3 C5.26503379 11.68262954 7.28583504 17.54482943 15.25 22.375 C16.82597106 23.26319179 18.40701107 24.14270443 20 25 C17 26 17 26 15.16796875 25.25 C7.71671296 20.54703776 2.96493154 15.66950265 0.45703125 7.08984375 C-0.070896 4.67581745 -0.23827307 2.46215506 0 0 Z " fill="#212121" transform="translate(73,98)"/>
<path d="M0 0 C1.69190821 2.53786232 2.61924649 4.51377247 3.6875 7.3125 C5.81574919 12.24361321 8.78296952 14.83203375 13 18 C13.66 18.66 14.32 19.32 15 20 C9.87814412 20 8.54839653 18.48644596 4.91015625 15.140625 C1.99375094 11.87234256 0.00429999 8.2781598 -1 4 C-0.58984375 1.73046875 -0.58984375 1.73046875 0 0 Z " fill="#E4E4E4" transform="translate(73,103)"/>
<path d="M0 0 C0.66 0.33 1.32 0.66 2 1 C1.6875 2.9375 1.6875 2.9375 1 5 C-2 6 -2 6 -6 6 C-8.64632287 6.3121764 -8.64632287 6.3121764 -11 7 C-11.33 7.66 -11.66 8.32 -12 9 C-12.33 7.02 -12.66 5.04 -13 3 C-11.515 3.99 -11.515 3.99 -10 5 C-7.69368804 4.40098087 -7.69368804 4.40098087 -5.375 3.1875 C-4.57835938 2.80980469 -3.78171875 2.43210937 -2.9609375 2.04296875 C-1.05365449 1.1510712 -1.05365449 1.1510712 0 0 Z " fill="#969696" transform="translate(115,118)"/>
<path d="M0 0 C0.33 0 0.66 0 1 0 C1 2.97 1 5.94 1 9 C2.98 9.495 2.98 9.495 5 10 C5 11.32 5 12.64 5 14 C3.35 13.67 1.7 13.34 0 13 C0 8.71 0 4.42 0 0 Z " fill="#D6D6D6" transform="translate(83,70)"/>
<path d="M0 0 C4.875 1.75 4.875 1.75 6 4 C5.91075148 6.7235195 5.76646668 9.41013311 5.5625 12.125 C5.51029297 12.87910156 5.45808594 13.63320312 5.40429688 14.41015625 C5.27454996 16.2737937 5.13792512 18.13694996 5 20 C4.67 20 4.34 20 4 20 C4 14.72 4 9.44 4 4 C1.525 3.01 1.525 3.01 -1 2 C-0.67 1.34 -0.34 0.68 0 0 Z " fill="#292929" transform="translate(31,64)"/>
<path d="M0 0 C0 0.99 0 1.98 0 3 C-1.98 3.66 -3.96 4.32 -6 5 C-6 6.65 -6 8.3 -6 10 C-8 7 -8 7 -8 3 C-5.36 2.01 -2.72 1.02 0 0 Z " fill="#ECECEC" transform="translate(112,122)"/>
<path d="M0 0 C1.66832577 2.50248865 2.62381674 4.41149187 3.625 7.1875 C3.88539062 7.90292969 4.14578125 8.61835937 4.4140625 9.35546875 C4.60742188 9.89816406 4.80078125 10.44085938 5 11 C4.34 11.66 3.68 12.32 3 13 C2.29819469 11.5903653 1.61406042 10.17192359 0.9375 8.75 C0.55464844 7.96109375 0.17179687 7.1721875 -0.22265625 6.359375 C-1.08564091 3.74006478 -0.93045933 2.55144824 0 0 Z " fill="#DBDBDB" transform="translate(73,103)"/>
<path d="M0 0 C0.33 0.99 0.66 1.98 1 3 C-2.57643579 3 -6.12176091 2.74637226 -9.6875 2.5 C-10.7403418 2.42845703 -10.7403418 2.42845703 -11.81445312 2.35546875 C-13.54303016 2.23787848 -15.27152348 2.11905865 -17 2 C-17 1.67 -17 1.34 -17 1 C-14.9168207 0.83141902 -12.83344956 0.66520745 -10.75 0.5 C-9.58984375 0.4071875 -8.4296875 0.314375 -7.234375 0.21875 C-4.82731342 0.05595356 -2.41256049 0 0 0 Z " fill="#424242" transform="translate(97,60)"/>
<path d="M0 0 C2.09782787 2.09782787 2.6509396 3.3799207 3.625 6.125 C3.88539062 6.84945312 4.14578125 7.57390625 4.4140625 8.3203125 C4.70410156 9.15175781 4.70410156 9.15175781 5 10 C4.34 10.66 3.68 11.32 3 12 C2.29773859 10.75823305 1.61370891 9.50614401 0.9375 8.25 C0.36322266 7.20585937 0.36322266 7.20585937 -0.22265625 6.140625 C-1.1312406 3.63859372 -0.88336837 2.4667645 0 0 Z " fill="#D0D0D0" transform="translate(93,127)"/>
<path d="M0 0 C1.65 0 3.3 0 5 0 C4.67 1.65 4.34 3.3 4 5 C2.68 5 1.36 5 0 5 C0 3.35 0 1.7 0 0 Z " fill="#EDEDED" transform="translate(49,79)"/>
<path d="M0 0 C1.7936743 1.1217963 3.5848773 2.24754483 5.375 3.375 C6.37273437 4.00148438 7.37046875 4.62796875 8.3984375 5.2734375 C11 7 11 7 13 9 C8.47328804 8.46744565 5.5799445 6.78440128 2 4 C0.82421875 1.86328125 0.82421875 1.86328125 0 0 Z " fill="#2F2F2F" transform="translate(80,115)"/>
<path d="M0 0 C2.475 0.495 2.475 0.495 5 1 C4.67 2.32 4.34 3.64 4 5 C2.68 5 1.36 5 0 5 C0 3.35 0 1.7 0 0 Z " fill="#E4E4E4" transform="translate(49,69)"/>
<path d="M0 0 C0.66 0.66 1.32 1.32 2 2 C-0.97 2.66 -3.94 3.32 -7 4 C-7.33 3.01 -7.66 2.02 -8 1 C-3.375 -1.125 -3.375 -1.125 0 0 Z " fill="#D2D2D2" transform="translate(128,95)"/>
<path d="M0 0 C2.475 0.495 2.475 0.495 5 1 C5 3.97 5 6.94 5 10 C4.67 10 4.34 10 4 10 C3.67 8.02 3.34 6.04 3 4 C2.01 3.67 1.02 3.34 0 3 C0 2.01 0 1.02 0 0 Z " fill="#D9D9D9" transform="translate(67,93)"/>
<path d="M0 0 C1.98 0.66 3.96 1.32 6 2 C4.68 2.33 3.36 2.66 2 3 C2 3.66 2 4.32 2 5 C1.34 5 0.68 5 0 5 C0 3.35 0 1.7 0 0 Z " fill="#333333" transform="translate(73,98)"/>
</svg>
