<?xml version="1.0" encoding="UTF-8"?>
<svg version="1.1" xmlns="http://www.w3.org/2000/svg" width="200" height="200">
<path d="M0 0 C1.25296875 0.4125 2.5059375 0.825 3.796875 1.25 C28.74462541 10.06760046 48.21993996 28.50355897 60.08447266 52.01074219 C70.70512729 75.08730057 73.09510894 102.81586203 65 127 C64.5875 128.25296875 64.175 129.5059375 63.75 130.796875 C54.93239954 155.74462541 36.49644103 175.21993996 12.98925781 187.08447266 C-10.08730057 197.70512729 -37.81586203 200.09510894 -62 192 C-63.87945312 191.38125 -63.87945312 191.38125 -65.796875 190.75 C-90.74462541 181.93239954 -110.21993996 163.49644103 -122.08447266 139.98925781 C-132.70512729 116.91269943 -135.09510894 89.18413797 -127 65 C-126.5875 63.74703125 -126.175 62.4940625 -125.75 61.203125 C-116.93239954 36.25537459 -98.49644103 16.78006004 -74.98925781 4.91552734 C-51.91269943 -5.70512729 -24.18413797 -8.09510894 0 0 Z " fill="#FBFC02" transform="translate(131,4)"/>
<path d="M0 0 C1.36118958 -0.02190399 1.36118958 -0.02190399 2.74987793 -0.04425049 C11.15800232 -0.17068445 19.5670948 -0.23910987 27.97597218 -0.29209328 C33.62384837 -0.32777271 39.27029055 -0.38085534 44.91748047 -0.47753906 C50.37826628 -0.5707531 55.83778571 -0.61907981 61.29932213 -0.63648605 C63.37451182 -0.65052079 65.44966058 -0.68002451 67.52439308 -0.72578812 C79.06196536 -0.9676799 87.37744228 -0.84459634 96.40409851 6.83145142 C98.5014871 9.43682141 99.08878364 10.95695504 99.35620117 14.25634766 C98.44864173 21.1787752 95.96421773 29.66115741 90.97338867 34.62744141 C88.48287444 36.09356981 86.04391092 37.20334289 83.35620117 38.25634766 C82.0104686 39.02674869 80.67530957 39.81619925 79.35620117 40.63134766 C76.35620117 42.25634766 76.35620117 42.25634766 74.35620117 42.25634766 C75.05745117 42.97822266 75.75870117 43.70009766 76.48120117 44.44384766 C76.92979492 44.90662109 77.37838867 45.36939453 77.84057617 45.84619141 C79.3179355 47.29769456 79.3179355 47.29769456 81.05932617 48.38525391 C82.73120117 49.50634766 82.73120117 49.50634766 85.35620117 52.25634766 C85.52791095 55.80501645 85.18535617 57.8781333 84.35620117 61.25634766 C84.12610352 63.02171875 84.12610352 63.02171875 83.89135742 64.82275391 C82.66164789 70.88565016 80.91283066 75.51699558 75.83105469 79.16040039 C58.6663849 89.22915821 39.46898422 87.41945627 20.29284668 86.94299316 C15.66664766 86.83925752 11.03987744 86.79472309 6.4128418 86.74462891 C-2.60750849 86.63853297 -11.6253662 86.46869789 -20.64379883 86.25634766 C-19.04778962 79.72624184 -17.42057381 73.23792483 -15.40942383 66.82275391 C-15.21039459 66.18542831 -15.01136536 65.54810272 -14.80630493 64.89146423 C-14.17246838 62.86608642 -13.53341633 60.84240646 -12.89379883 58.81884766 C-12.45116821 57.41002021 -12.00862349 56.00116577 -11.56616211 54.59228516 C-8.05395542 43.43719353 -4.409355 32.32857905 -0.64379883 21.25634766 C4.3463204 21.25634766 5.38897382 22.57015278 9.10620117 25.75634766 C10.09104492 26.59166016 11.07588867 27.42697266 12.09057617 28.28759766 C13.21206055 29.26212891 13.21206055 29.26212891 14.35620117 30.25634766 C12.10962092 38.78007641 9.5151573 47.15416003 6.78588867 55.53369141 C6.48682617 56.46052734 6.18776367 57.38736328 5.87963867 58.34228516 C5.61070801 59.16776855 5.34177734 59.99325195 5.06469727 60.84375 C4.35023607 63.27666023 3.85348251 65.76994096 3.35620117 68.25634766 C23.15620117 68.25634766 42.95620117 68.25634766 63.35620117 68.25634766 C64.34620117 64.95634766 65.33620117 61.65634766 66.35620117 58.25634766 C67.67620117 54.95634766 68.99620117 51.65634766 70.35620117 48.25634766 C55.83620117 48.25634766 41.31620117 48.25634766 26.35620117 48.25634766 C27.35620117 43.25634766 27.35620117 43.25634766 30.35620117 34.25634766 C44.87620117 33.92634766 59.39620117 33.59634766 74.35620117 33.25634766 C76.33620117 27.64634766 78.31620117 22.03634766 80.35620117 16.25634766 C44.38620117 16.25634766 8.41620117 16.25634766 -28.64379883 16.25634766 C-23.02072191 10.63327073 -23.02072191 10.63327073 -20.12817383 8.61572266 C-19.21165039 7.96990234 -19.21165039 7.96990234 -18.27661133 7.31103516 C-17.6552832 6.88048828 -17.03395508 6.44994141 -16.39379883 6.00634766 C-10.23010401 1.68926586 -7.60911374 0.0926597 0 0 Z " fill="#030300" transform="translate(64.643798828125,58.74365234375)"/>
</svg>
