<?xml version="1.0" encoding="UTF-8"?>
<svg version="1.1" xmlns="http://www.w3.org/2000/svg" width="200" height="200">
<path d="M0 0 C2.82045877 2.30263418 5.56336058 4.67903285 8.27832031 7.10449219 C11.1535235 9.666713 11.1535235 9.666713 14.50878906 11.77246094 C17.18066406 13.58496094 17.18066406 13.58496094 17.86816406 15.77246094 C18.02285156 16.66964844 18.02285156 16.66964844 18.18066406 17.58496094 C19.17066406 17.91496094 20.16066406 18.24496094 21.18066406 18.58496094 C21.51066406 19.57496094 21.84066406 20.56496094 22.18066406 21.58496094 C22.78394531 22.1740625 23.38722656 22.76316406 24.00878906 23.37011719 C26.61161449 26.02443736 28.16331475 28.75588582 29.93066406 32.02246094 C30.85105469 33.69115234 30.85105469 33.69115234 31.79003906 35.39355469 C33.13514811 38.48050439 33.50200878 40.27881822 33.18066406 43.58496094 C33.84066406 43.58496094 34.50066406 43.58496094 35.18066406 43.58496094 C39.64424539 56.0781479 40.85665551 67.12735329 40.55566406 80.33496094 C40.53909422 82.04587815 40.52476266 83.75681854 40.51269531 85.46777344 C40.3702832 98.68935945 40.3702832 98.68935945 39.18066406 103.58496094 C38.52066406 103.58496094 37.86066406 103.58496094 37.18066406 103.58496094 C37.18066406 105.89496094 37.18066406 108.20496094 37.18066406 110.58496094 C36.52066406 110.58496094 35.86066406 110.58496094 35.18066406 110.58496094 C34.52066406 113.88496094 33.86066406 117.18496094 33.18066406 120.58496094 C32.52066406 120.58496094 31.86066406 120.58496094 31.18066406 120.58496094 C31.10589844 121.42542969 31.03113281 122.26589844 30.95410156 123.13183594 C30.00301116 127.37811833 28.20111083 130.25695184 25.80566406 133.83496094 C25.40605469 134.45886719 25.00644531 135.08277344 24.59472656 135.72558594 C22.64505024 138.70140769 21.175244 140.58857431 18.18066406 142.58496094 C17.87128906 143.24496094 17.56191406 143.90496094 17.24316406 144.58496094 C16.18066406 146.58496094 16.18066406 146.58496094 14.29394531 147.52246094 C12.05773456 148.64676653 10.95666201 149.72870379 9.30566406 151.58496094 C-7.5531495 168.76523493 -31.7922615 178.47350042 -55.67724609 178.87768555 C-83.14890277 179.03784131 -105.50892955 171.73865683 -126.31811523 153.40429688 C-129.3378039 150.75277047 -132.36813316 148.62599484 -135.81933594 146.58496094 C-136.52084746 145.26962683 -137.18459519 143.93378502 -137.81933594 142.58496094 C-139.08777344 141.37839844 -139.08777344 141.37839844 -140.38183594 140.14746094 C-142.93144067 137.46710724 -143.50996572 136.19428011 -143.81933594 132.58496094 C-144.80933594 132.25496094 -145.79933594 131.92496094 -146.81933594 131.58496094 C-150.62798259 125.57828936 -153.21756631 119.65575401 -153.81933594 112.58496094 C-154.47933594 111.59496094 -155.13933594 110.60496094 -155.81933594 109.58496094 C-156.19144014 108.26192377 -156.52563767 106.92758159 -156.81933594 105.58496094 C-157.14933594 104.59496094 -157.47933594 103.60496094 -157.81933594 102.58496094 C-158.14933594 102.58496094 -158.47933594 102.58496094 -158.81933594 102.58496094 C-158.87027326 96.32278946 -158.90516878 90.06067193 -158.92919922 83.79833984 C-158.93922299 81.67038984 -158.95284555 79.5424535 -158.97021484 77.41455078 C-158.99462286 74.34631976 -159.00585555 71.27827173 -159.01464844 68.20996094 C-159.02497101 67.26693115 -159.03529358 66.32390137 -159.04592896 65.35229492 C-159.04686971 59.74541582 -158.41278806 54.96630789 -156.81933594 49.58496094 C-156.15933594 49.58496094 -155.49933594 49.58496094 -154.81933594 49.58496094 C-154.69816406 48.88628906 -154.57699219 48.18761719 -154.45214844 47.46777344 C-154.28457031 46.55769531 -154.11699219 45.64761719 -153.94433594 44.70996094 C-153.78191406 43.80503906 -153.61949219 42.90011719 -153.45214844 41.96777344 C-152.81933594 39.58496094 -152.81933594 39.58496094 -150.81933594 37.58496094 C-149.71378412 35.63398714 -148.89319267 33.94732054 -148.44433594 31.74511719 C-147.67559861 29.08816878 -146.42875814 27.18569548 -144.88183594 24.89746094 C-144.3571875 24.10984375 -143.83253906 23.32222656 -143.29199219 22.51074219 C-141.81933594 20.58496094 -141.81933594 20.58496094 -139.81933594 19.58496094 C-139.48933594 18.59496094 -139.15933594 17.60496094 -138.81933594 16.58496094 C-138.25988281 16.318125 -137.70042969 16.05128906 -137.12402344 15.77636719 C-133.75454168 14.03451645 -131.50732154 11.25605376 -128.94433594 8.52246094 C-95.59880991 -25.77011212 -37.69548479 -29.31871039 0 0 Z M34.18066406 46.58496094 C35.18066406 48.58496094 35.18066406 48.58496094 35.18066406 48.58496094 Z M35.18066406 49.58496094 C36.18066406 51.58496094 36.18066406 51.58496094 36.18066406 51.58496094 Z M36.18066406 52.58496094 C37.18066406 55.58496094 37.18066406 55.58496094 37.18066406 55.58496094 Z M-156.81933594 53.58496094 C-155.81933594 56.58496094 -155.81933594 56.58496094 -155.81933594 56.58496094 Z M37.18066406 56.58496094 C38.18066406 59.58496094 38.18066406 59.58496094 38.18066406 59.58496094 Z M-157.81933594 57.58496094 C-156.81933594 61.58496094 -156.81933594 61.58496094 -156.81933594 61.58496094 Z M38.18066406 60.58496094 C38.18066406 62.23496094 38.18066406 63.88496094 38.18066406 65.58496094 C38.51066406 65.58496094 38.84066406 65.58496094 39.18066406 65.58496094 C39.18066406 63.93496094 39.18066406 62.28496094 39.18066406 60.58496094 C38.85066406 60.58496094 38.52066406 60.58496094 38.18066406 60.58496094 Z M38.18066406 93.58496094 C38.18066406 95.23496094 38.18066406 96.88496094 38.18066406 98.58496094 C38.51066406 98.58496094 38.84066406 98.58496094 39.18066406 98.58496094 C39.18066406 96.93496094 39.18066406 95.28496094 39.18066406 93.58496094 C38.85066406 93.58496094 38.52066406 93.58496094 38.18066406 93.58496094 Z " fill="#7F80FF" transform="translate(158.8193359375,19.4150390625)"/>
<path d="M0 0 C2.03956793 1.35971195 3.55694533 2.74856413 5.25 4.5 C4.91226563 5.61117187 4.57453125 6.72234375 4.2265625 7.8671875 C2.12160142 14.86246221 0.06558561 21.76515472 -1.21875 28.96484375 C-2.1585721 33.4497301 -3.53258642 37.81625056 -4.84765625 42.203125 C-5.69444392 45.29701588 -6.28394143 48.32887981 -6.75 51.5 C-41.17900302 45.07099698 -41.17900302 45.07099698 -44.75 41.5 C-45.28652943 39.05613792 -45.73266269 36.65460932 -46.125 34.1875 C-46.25777344 33.51009766 -46.39054687 32.83269531 -46.52734375 32.13476562 C-46.8359375 30.13671875 -46.8359375 30.13671875 -46.75 26.5 C-43.83210985 23.30093134 -40.73668331 22.00043136 -36.75 20.5 C-34.11176671 18.97322631 -31.5397278 17.36072897 -28.95703125 15.7421875 C-26.75 14.5 -26.75 14.5 -24.75 14.5 C-24.75 13.84 -24.75 13.18 -24.75 12.5 C-23.574375 11.9225 -22.39875 11.345 -21.1875 10.75 C-15.83213526 8.06288917 -10.81845266 5.36557026 -6.125 1.625 C-2.75 -0.5 -2.75 -0.5 0 0 Z " fill="#FFFFFF" transform="translate(168.75,62.5)"/>
<path d="M0 0 C2.1875 1.0625 2.1875 1.0625 3.0625 3 C4.12335211 5.49589801 4.12335211 5.49589801 7.8125 6.3125 C8.92625 6.56 10.04 6.8075 11.1875 7.0625 C12.51977526 11.40139645 11.52752987 14.8939544 10.4375 19.1875 C10.2521167 19.94724121 10.0667334 20.70698242 9.87573242 21.48974609 C8.66820567 26.36871557 7.29170896 31.17468462 5.78125 35.96875 C4.92613108 38.98416935 4.52582818 41.94988078 4.1875 45.0625 C-2.08139871 44.40492321 -8.0668695 43.17774047 -14.1875 41.6875 C-15.06921875 41.47867188 -15.9509375 41.26984375 -16.859375 41.0546875 C-22.16720718 39.7783173 -27.3837846 38.31203531 -32.60302734 36.71386719 C-35.19232145 35.95052612 -37.78393207 35.36780547 -40.4375 34.875 C-41.69433594 34.63716797 -41.69433594 34.63716797 -42.9765625 34.39453125 C-43.58242188 34.28496094 -44.18828125 34.17539063 -44.8125 34.0625 C-45.1425 31.4225 -45.4725 28.7825 -45.8125 26.0625 C-44.86375 25.52625 -43.915 24.99 -42.9375 24.4375 C-33.94769345 19.37131688 -33.94769345 19.37131688 -25.4375 13.5625 C-21.4877849 10.64233149 -17.09709775 8.67994087 -12.68359375 6.55859375 C-10.16902706 5.24828213 -8.09049409 3.87509489 -5.875 2.125 C-2.8125 0.0625 -2.8125 0.0625 0 0 Z " fill="#FFFFFF" transform="translate(80.8125,114.9375)"/>
<path d="M0 0 C6.30543009 0.6629541 12.33977679 1.89018293 18.5 3.375 C19.84771484 3.68824219 19.84771484 3.68824219 21.22265625 4.0078125 C23.82835223 4.62984182 26.41469289 5.29832078 29 6 C30.18154663 6.30901245 30.18154663 6.30901245 31.38696289 6.62426758 C33.56640625 7.29296875 33.56640625 7.29296875 37 9 C38.18359375 11.77734375 38.18359375 11.77734375 38.4375 14.9375 C38.59025391 16.49791016 38.59025391 16.49791016 38.74609375 18.08984375 C38.82988281 19.05019531 38.91367188 20.01054688 39 21 C39.30163826 22.34085914 39.62117073 23.67887273 40 25 C38.54462432 25.83848804 37.08559627 26.67063934 35.625 27.5 C34.81289062 27.9640625 34.00078125 28.428125 33.1640625 28.90625 C31 30 31 30 29 30 C29 30.66 29 31.32 29 32 C28.32195312 32.36351562 27.64390625 32.72703125 26.9453125 33.1015625 C20.52273375 36.57082249 14.24327939 40.22005533 8 44 C1.33333333 48 1.33333333 48 -1 48 C-1 48.66 -1 49.32 -1 50 C-3.75 50.6875 -3.75 50.6875 -7 51 C-9.203125 49.51953125 -9.203125 49.51953125 -11 48 C-9.70080056 41.27014689 -8.2374701 34.59880016 -6.625 27.9375 C-6.18599268 26.10942428 -5.74719395 24.28129845 -5.30859375 22.453125 C-5.09058105 21.54626953 -4.87256836 20.63941406 -4.64794922 19.70507812 C-3.64917361 15.5353593 -2.66739853 11.36168877 -1.6875 7.1875 C-1.51621582 6.45845459 -1.34493164 5.72940918 -1.16845703 4.97827148 C-0.77871061 3.31890888 -0.38931089 1.65946484 0 0 Z " fill="#FFFFFF" transform="translate(39,87)"/>
<path d="M0 0 C0.63164063 0.18175781 1.26328125 0.36351562 1.9140625 0.55078125 C7.26742956 2.0549694 12.61651157 3.37262671 18.0625 4.5 C23.01533482 5.53161554 27.79250489 6.7866627 32.61328125 8.30859375 C35.99257381 9.28753775 39.41256217 9.93745118 42.87109375 10.5703125 C45 11 45 11 48 12 C48.495 15.96 48.495 15.96 49 20 C48.46632812 20.29132812 47.93265625 20.58265625 47.3828125 20.8828125 C42.29830214 23.68017287 37.30181468 26.59521051 32.3359375 29.59765625 C30.4034339 30.75780473 28.46162621 31.89025372 26.5 33 C20.7679683 36.25221657 15.03611356 39.54526904 9.625 43.3125 C7.20701569 44.86691849 5.8130921 45.68925145 3 46 C1.49498432 44.56041979 -0.00316627 43.10940945 -1.40625 41.5703125 C-3.63437334 39.37495568 -6.14857701 38.22203842 -9 37 C-7.85320501 29.6061902 -6.07145014 22.55812518 -3.94921875 15.38671875 C-2.8826208 11.58120261 -2.08350773 7.77980066 -1.39453125 3.890625 C-1 2 -1 2 0 0 Z " fill="#FFFFFF" transform="translate(117,40)"/>
<path d="M0 0 C3.05463855 0.26437807 6.06217891 0.62075409 9.08984375 1.1015625 C6.50170566 14.96172305 3.08136546 28.58405621 -0.91015625 42.1015625 C-1.18859375 43.35324219 -1.46703125 44.60492188 -1.75390625 45.89453125 C-2.91015625 49.1015625 -2.91015625 49.1015625 -4.93359375 50.30078125 C-6.09761719 50.54248047 -6.09761719 50.54248047 -7.28515625 50.7890625 C-11.21977055 51.8374509 -13.45763756 52.66803634 -15.91015625 56.1015625 C-17.17799749 59.23506967 -17.17799749 59.23506967 -17.91015625 62.1015625 C-20.44785085 59.12132715 -21.37431018 56.89055225 -21.97265625 53.0390625 C-22.51985449 49.57347364 -22.90642897 48.10715343 -24.91015625 45.1015625 C-25.28226045 43.77852533 -25.61645798 42.44418315 -25.91015625 41.1015625 C-26.40515625 39.6165625 -26.40515625 39.6165625 -26.91015625 38.1015625 C-27.24015625 38.1015625 -27.57015625 38.1015625 -27.91015625 38.1015625 C-27.95952135 33.15366073 -27.99585894 28.20590167 -28.02001953 23.2578125 C-28.03008942 21.57386784 -28.04374613 19.88994071 -28.06103516 18.20605469 C-28.08524051 15.78836749 -28.09662921 13.37091107 -28.10546875 10.953125 C-28.11579132 10.1978653 -28.12611389 9.44260559 -28.13674927 8.66445923 C-28.13714943 6.8086227 -28.03238341 4.9533697 -27.91015625 3.1015625 C-27.25015625 2.4415625 -26.59015625 1.7815625 -25.91015625 1.1015625 C-25.67683594 1.73320313 -25.44351562 2.36484375 -25.203125 3.015625 C-24.0836757 5.27137828 -24.0836757 5.27137828 -21.7734375 6 C-16.27726817 7.0268494 -12.16443898 7.51853256 -6.91015625 5.1015625 C-6.35328125 4.2146875 -5.79640625 3.3278125 -5.22265625 2.4140625 C-2.91015625 0.1015625 -2.91015625 0.1015625 0 0 Z " fill="#FFFFFF" transform="translate(27.91015625,83.8984375)"/>
<path d="M0 0 C0.62261719 0.15855469 1.24523437 0.31710938 1.88671875 0.48046875 C7.00350895 1.77215498 12.12449135 3.03440135 17.26171875 4.2421875 C18.18573486 4.45979736 19.10975098 4.67740723 20.06176758 4.90161133 C21.91131044 5.33610864 23.76139548 5.76830568 25.61206055 6.19799805 C30.16613145 7.26877328 34.57144996 8.47849523 39 10 C40.61878424 10.40098325 42.24359112 10.77894357 43.875 11.125 C45.04675781 11.37636719 45.04675781 11.37636719 46.2421875 11.6328125 C46.82226562 11.75398437 47.40234375 11.87515625 48 12 C46.93457944 21.05607477 46.93457944 21.05607477 45 24 C43.00825684 24.68589831 41.04097844 25.07851137 38.97265625 25.47265625 C36.14619366 26.22824526 34.77029219 27.734026 33 30 C31.73762269 32.52475462 31.90143596 34.31200466 31.9375 37.125 C31.94652344 38.03507812 31.95554688 38.94515625 31.96484375 39.8828125 C31.97644531 40.58148438 31.98804688 41.28015625 32 42 C18.04086308 38.26094547 6.54004418 30.21624091 -4.01171875 20.6015625 C-6.59347362 18.35391708 -9.06582082 16.7194921 -12 15 C-13.1875 12.9375 -13.1875 12.9375 -14 11 C-14.66 10.34 -15.32 9.68 -16 9 C-15.34773438 8.93683594 -14.69546875 8.87367188 -14.0234375 8.80859375 C-8.94010051 8.09632677 -5.75988121 7.40268316 -2.375 3.375 C-1.55759111 2.26856255 -0.75595671 1.14930003 0 0 Z " fill="#FFFFFF" transform="translate(35,151)"/>
<path d="M0 0 C13.80767891 4.8853985 25.26388419 12.80764179 35.73046875 22.96875 C37.78993258 24.81198786 39.55151142 25.80332878 42 27 C42.36162029 28.32594105 42.69728039 29.65938457 43 31 C43.99 31.33 44.98 31.66 46 32 C45.67 32.99 45.34 33.98 45 35 C43.0390625 35.84375 43.0390625 35.84375 40.625 36.5 C37.22942435 37.42908259 35.27242941 38.2675082 33 41 C32.505 41.99 32.505 41.99 32 43 C27.59716997 42.59233055 23.5937451 41.95907337 19.375 40.625 C14.25296459 39.00874797 9.08431179 37.91641037 3.828125 36.828125 C-2.82286722 35.38933893 -9.40820828 33.68647139 -16 32 C-15.69106068 30.3743193 -15.3777305 28.74947252 -15.0625 27.125 C-14.88847656 26.22007813 -14.71445313 25.31515625 -14.53515625 24.3828125 C-14 22 -14 22 -13 20 C-11.741875 19.71125 -10.48375 19.4225 -9.1875 19.125 C-5.37848738 18.24599709 -3.39507802 17.22414349 -1 14 C1.76596609 9.39005652 0.81789792 5.07317765 0 0 Z " fill="#FFFFFF" transform="translate(134,6)"/>
<path d="M0 0 C0.33 0.99 0.66 1.98 1 3 C2.06201737 5.22739701 2.06201737 5.22739701 4 8 C8.50158469 19.26638561 8.48884185 29.95318659 8.25 41.875 C8.22988095 43.64190657 8.21163985 45.40883557 8.1953125 47.17578125 C8.15179819 51.4510875 8.08307859 55.72528711 8 60 C7.67 60 7.34 60 7 60 C6.7525 59.05125 6.505 58.1025 6.25 57.125 C5.33777401 53.97310254 5.33777401 53.97310254 3.19921875 52.83203125 C-0.52508088 51.42301558 -4.09091084 51.28100682 -8 52 C-10.93973281 54.35418376 -10.93973281 54.35418376 -13 57 C-13.66 57 -14.32 57 -15 57 C-15 57.66 -15 58.32 -15 59 C-18.96 58.34 -22.92 57.68 -27 57 C-26.54109375 55.10378906 -26.0821875 53.20757812 -25.609375 51.25390625 C-25.15158347 49.36049546 -24.69379788 47.46708323 -24.23614502 45.57363892 C-23.9129668 44.23667921 -23.58968451 42.89974465 -23.26629639 41.56283569 C-21.18780592 32.96830517 -19.11905104 24.37188105 -17.15527344 15.75024414 C-16.60377674 13.36304231 -16.10011278 11.20022556 -15 9 C-13.109375 8.2890625 -13.109375 8.2890625 -10.75 7.625 C-6.78642099 6.38164799 -4.02840964 4.93377184 -1 2 C-0.67 1.34 -0.34 0.68 0 0 Z M2 8 C3 10 3 10 3 10 Z M3 11 C4 13 4 13 4 13 Z M4 14 C5 17 5 17 5 17 Z M5 18 C6 21 6 21 6 21 Z M6 22 C6 23.65 6 25.3 6 27 C6.33 27 6.66 27 7 27 C7 25.35 7 23.7 7 22 C6.67 22 6.34 22 6 22 Z " fill="#FEFEFF" transform="translate(191,58)"/>
<path d="M0 0 C0.66 0 1.32 0 2 0 C2.37511719 0.70125 2.75023438 1.4025 3.13671875 2.125 C5.89638981 7.241166 8.71840378 12.26523276 11.84765625 17.1640625 C12.97372084 18.9581315 14.02606724 20.77797197 15.0625 22.625 C16.95494962 26.04807017 16.95494962 26.04807017 19.3125 29.25 C19.869375 30.1575 20.42625 31.065 21 32 C19.59272064 36.22183809 17.16521141 36.84508756 13.3671875 38.859375 C10.64234846 40.17233374 7.91060777 41.17905935 5 42 C5 42.66 5 43.32 5 44 C1.8432748 45.90689056 0.19353023 46.17113953 -3.375 45.3125 C-4.66664062 45.01666016 -4.66664062 45.01666016 -5.984375 44.71484375 C-6.97953125 44.47894531 -7.9746875 44.24304688 -9 44 C-11.54082685 43.45440751 -14.08251923 42.91283247 -16.625 42.375 C-18.75014638 41.91734588 -20.87519816 41.45925112 -23 41 C-20.89338295 28.1662672 -18.01421603 15.3771661 -14 3 C-12.60974609 2.80083984 -12.60974609 2.80083984 -11.19140625 2.59765625 C-9.39509766 2.33275391 -9.39509766 2.33275391 -7.5625 2.0625 C-6.36753906 1.88847656 -5.17257813 1.71445313 -3.94140625 1.53515625 C-1.12044324 1.31014787 -1.12044324 1.31014787 0 0 Z " fill="#FFFFFF" transform="translate(110,121)"/>
<path d="M0 0 C8.14230682 0.6622929 15.88789415 2.70146132 23.6796875 5.0546875 C27.49216907 6.14012343 31.29591187 6.88254382 35.20703125 7.5078125 C35.79871094 7.67023438 36.39039063 7.83265625 37 8 C38.56447023 11.12894046 37.18097756 13.34617299 36.1875 16.625 C34.98516558 20.61642312 33.85295514 24.53323222 33.0625 28.625 C31.78691663 32.67685305 30.58244099 33.80168394 27 36 C25.00892752 37.01765927 23.00781177 38.01577854 21 39 C18.95884726 40.34629224 16.93399897 41.7087718 14.9296875 43.109375 C13 44 13 44 11.0078125 44.078125 C7.76016719 42.3342532 6.62290857 39.16497393 5 36 C4.22003734 34.62520073 3.43343271 33.25415091 2.640625 31.88671875 C1.84347643 30.48713495 1.04660337 29.08739419 0.25 27.6875 C-0.16121094 26.97271484 -0.57242188 26.25792969 -0.99609375 25.52148438 C-4 20.22722436 -4 20.22722436 -4 18 C-4.66 18 -5.32 18 -6 18 C-7.76462683 14.91190305 -8 13.76687864 -8 10 C-6.34614767 8.65080468 -4.678298 7.31866272 -3 6 C-1.73152315 3.41501488 -1.73152315 3.41501488 -1 1 C-0.67 0.67 -0.34 0.34 0 0 Z " fill="#FFFFFF" transform="translate(123,108)"/>
<path d="M0 0 C5.80667919 0.51197283 11.34686655 1.67615965 17 3.0625 C17.77472656 3.24876953 18.54945312 3.43503906 19.34765625 3.62695312 C21.23270759 4.08076178 23.1164927 4.53982492 25 5 C24.48604545 8.99042069 23.89546809 12.74426527 22.625 16.5625 C20.95783542 21.87302913 19.83820515 27.24873813 18.74609375 32.703125 C18.02396973 35.8940814 17.08840358 38.91696839 16 42 C15.26394531 42.04898438 14.52789062 42.09796875 13.76953125 42.1484375 C12.79371094 42.22320312 11.81789063 42.29796875 10.8125 42.375 C9.36810547 42.47941406 9.36810547 42.47941406 7.89453125 42.5859375 C4.98491062 43.00215853 2.67109226 43.79874096 0 45 C-0.83848804 43.54462432 -1.67063934 42.08559627 -2.5 40.625 C-2.9640625 39.81289062 -3.428125 39.00078125 -3.90625 38.1640625 C-5 36 -5 36 -5 34 C-5.66 34 -6.32 34 -7 34 C-7.40992187 33.22914062 -7.81984375 32.45828125 -8.2421875 31.6640625 C-8.78101562 30.66117188 -9.31984375 29.65828125 -9.875 28.625 C-10.67550781 27.12839844 -10.67550781 27.12839844 -11.4921875 25.6015625 C-12.8820138 22.94651605 -12.8820138 22.94651605 -15 21 C-15.69658363 19.34561387 -16.36096883 17.67745682 -17 16 C-17.65698758 14.66187088 -18.32205824 13.32763594 -19 12 C-13.18848321 7.76045087 -7.50450675 4.07485774 -1 1 C-0.67 0.67 -0.34 0.34 0 0 Z " fill="#FFFFFF" transform="translate(89,34)"/>
<path d="M0 0 C3.79827569 4.93775839 7.00499013 9.94844307 9.9375 15.4375 C11.7240511 18.77481373 13.54966665 21.90294892 15.8125 24.9375 C17.73030801 27.62243122 18.60163668 28.85044 19 32 C17.21482174 34.64698845 15.87978754 36.56010623 13 38 C12.71125 38.825 12.4225 39.65 12.125 40.5 C11 43 11 43 9.34375 43.734375 C1.57851598 44.61443486 -7.2959839 41.01816013 -14.66796875 38.6953125 C-18.40207802 37.58195999 -22.18763033 36.79936783 -26 36 C-25.32778176 30.81916648 -24.38892815 25.77119009 -23.1875 20.6875 C-23.03474609 19.97271484 -22.88199219 19.25792969 -22.72460938 18.52148438 C-21.4887356 13.33863034 -21.4887356 13.33863034 -18.86328125 11.51953125 C-18.24839844 11.34808594 -17.63351563 11.17664062 -17 11 C-17 10.34 -17 9.68 -17 9 C-15.824375 8.4225 -14.64875 7.845 -13.4375 7.25 C-9.53675896 5.30309372 -5.77060698 3.18695205 -2 1 C-1.34 0.67 -0.68 0.34 0 0 Z " fill="#FFFFFF" transform="translate(67,48)"/>
<path d="M0 0 C0.19916016 1.03060547 0.19916016 1.03060547 0.40234375 2.08203125 C0.57894531 2.98308594 0.75554688 3.88414063 0.9375 4.8125 C1.11152344 5.70582031 1.28554688 6.59914063 1.46484375 7.51953125 C1.97741153 10.11397171 1.97741153 10.11397171 3 13 C3.825 13.33 4.65 13.66 5.5 14 C6.325 14.33 7.15 14.66 8 15 C9.39900828 19.19702485 7.91420644 22.3153712 6.625 26.375 C6.15689211 27.88220452 5.6906958 29.39000429 5.2265625 30.8984375 C5.00218506 31.60983887 4.77780762 32.32124023 4.54663086 33.05419922 C3.91000817 35.12481305 3.91000817 35.12481305 3.66796875 37.84375 C3 40 3 40 0.63671875 41.6953125 C-0.33652344 42.16710938 -1.30976562 42.63890625 -2.3125 43.125 C-5.82714897 44.86120844 -8.89608287 46.61237144 -12 49 C-14.9375 50.375 -14.9375 50.375 -18 51 C-20.5 49.6875 -20.5 49.6875 -23 48 C-27.90157937 46.61477105 -31.22164738 47.37536011 -36 49 C-36.36989592 42.58847078 -36.36989592 42.58847078 -34.625 39.8125 C-34.08875 39.214375 -33.5525 38.61625 -33 38 C-31.8924367 36.03099857 -31.07771726 34.38367784 -30.62890625 32.16796875 C-29.85735635 29.5082781 -28.61137016 27.60361601 -27.0625 25.3125 C-26.53785156 24.52488281 -26.01320313 23.73726562 -25.47265625 22.92578125 C-24 21 -24 21 -22 20 C-21.67 19.01 -21.34 18.02 -21 17 C-19.68649619 16.2950674 -18.35022173 15.63176221 -17 15 C-15.36893069 13.62483715 -15.36893069 13.62483715 -13.87109375 12.03125 C-13.03094727 11.17466797 -13.03094727 11.17466797 -12.17382812 10.30078125 C-11.60083984 9.70652344 -11.02785156 9.11226562 -10.4375 8.5 C-9.29269053 7.32065437 -8.14563543 6.14348348 -6.99609375 4.96875 C-6.49263428 4.44732422 -5.9891748 3.92589844 -5.47045898 3.38867188 C-1.88220816 0 -1.88220816 0 0 0 Z " fill="#FFFFFF" transform="translate(41,19)"/>
<path d="M0 0 C-0.33 0.66 -0.66 1.32 -1 2 C-1.99 2 -2.98 2 -4 2 C-5.75163456 5.77222089 -6.22490027 8.666639 -6.125 12.8125 C-6.10695312 13.78832031 -6.08890625 14.76414062 -6.0703125 15.76953125 C-6.04710937 16.50558594 -6.02390625 17.24164062 -6 18 C-7.68029297 18.93972656 -7.68029297 18.93972656 -9.39453125 19.8984375 C-10.86722287 20.72389523 -12.33987718 21.54941954 -13.8125 22.375 C-14.55048828 22.7875 -15.28847656 23.2 -16.04882812 23.625 C-16.76103516 24.02460938 -17.47324219 24.42421875 -18.20703125 24.8359375 C-18.8616333 25.20251465 -19.51623535 25.5690918 -20.19067383 25.94677734 C-21.83176306 26.90206799 -23.4200344 27.9466896 -25 29 C-30.6679694 28.61850206 -36.01759236 27.37409385 -41.5 25.9375 C-42.22703125 25.75123047 -42.9540625 25.56496094 -43.703125 25.37304688 C-45.46987724 24.91973545 -47.23510775 24.4604998 -49 24 C-49.66 20.7 -50.32 17.4 -51 14 C-51.99 13.67 -52.98 13.34 -54 13 C-54 12.34 -54 11.68 -54 11 C-56.475 10.01 -56.475 10.01 -59 9 C-45.02997576 -2.97929579 -17.05596162 -3.56520937 0 0 Z " fill="#FFFEFF" transform="translate(116,1)"/>
<path d="M0 0 C0.76828125 0.40347656 1.5365625 0.80695313 2.328125 1.22265625 C4.76200253 2.43959501 6.74651346 2.54225521 9.453125 2.78515625 C10.81824219 2.91083984 10.81824219 2.91083984 12.2109375 3.0390625 C12.90960938 3.09964844 13.60828125 3.16023437 14.328125 3.22265625 C13.998125 4.87265625 13.668125 6.52265625 13.328125 8.22265625 C12.668125 8.22265625 12.008125 8.22265625 11.328125 8.22265625 C11.25335938 9.063125 11.17859375 9.90359375 11.1015625 10.76953125 C10.1504721 15.01581364 8.34857177 17.89464715 5.953125 21.47265625 C5.55351562 22.0965625 5.15390625 22.72046875 4.7421875 23.36328125 C2.79251118 26.33910301 1.32270494 28.22626962 -1.671875 30.22265625 C-1.98125 30.88265625 -2.290625 31.54265625 -2.609375 32.22265625 C-3.671875 34.22265625 -3.671875 34.22265625 -5.51953125 35.12890625 C-7.93326275 36.35548487 -9.33210095 37.74908045 -11.171875 39.72265625 C-13.51437444 42.23551929 -15.51541756 43.83824509 -18.671875 45.22265625 C-19.105 44.12953125 -19.538125 43.03640625 -19.984375 41.91015625 C-21.54991225 38.25477447 -23.05485366 36.03116692 -26.671875 34.22265625 C-24.17080012 12.74708061 -24.17080012 12.74708061 -19.7578125 8.2890625 C-17.44740666 7.04405582 -15.12235386 6.15780784 -12.671875 5.22265625 C-10.09256394 3.58092859 -7.56163256 1.87992649 -5.03125 0.1640625 C-2.671875 -0.77734375 -2.671875 -0.77734375 0 0 Z " fill="#FFFFFF" transform="translate(178.671875,131.77734375)"/>
<path d="M0 0 C2.37266991 0.5517837 4.74775305 1.09328136 7.125 1.625 C9.08367448 2.08187326 11.04213128 2.53968604 13 3 C13.19335938 3.67546875 13.38671875 4.3509375 13.5859375 5.046875 C13.97652344 6.38492188 13.97652344 6.38492188 14.375 7.75 C14.63023437 8.63171875 14.88546875 9.5134375 15.1484375 10.421875 C15.92764894 12.78095552 16.73828292 14.86182297 18 17 C18.66 17.33 19.32 17.66 20 18 C2.21391121 25.5883313 -13.86059506 26.44298919 -33 26 C-32.5148291 25.55325928 -32.0296582 25.10651855 -31.52978516 24.64624023 C-29.49881219 22.4606592 -29.54317963 21.00564359 -29.375 18.0625 C-28.94813614 11.32414911 -28.94813614 11.32414911 -28 9 C-25.99609375 7.47265625 -25.99609375 7.47265625 -23.4375 6.0625 C-20.09506643 4.20875315 -17.05276565 2.29113496 -14 0 C-9.09806983 -3.05269903 -5.25640612 -1.53525074 0 0 Z " fill="#FFFFFF" transform="translate(120,172)"/>
<path d="M0 0 C2.31 0 4.62 0 7 0 C8.65 3.3 10.3 6.6 12 10 C6.8121774 14.65573823 1.21811716 17.89094142 -5 21 C-4.04296522 13.61394333 -2.95870791 6.85882288 0 0 Z " fill="#FFFFFF" transform="translate(53,35)"/>
<path d="M0 0 C9.405 2.475 9.405 2.475 19 5 C19 5.66 19 6.32 19 7 C18.41992188 7.31453125 17.83984375 7.6290625 17.2421875 7.953125 C13.58428045 9.95712688 10.00925426 11.93081637 6.625 14.375 C5.75875 14.91125 4.8925 15.4475 4 16 C3.01 15.67 2.02 15.34 1 15 C0.3125 12.9375 0.3125 12.9375 0 11 C-0.66 11 -1.32 11 -2 11 C-3.25 8.3125 -3.25 8.3125 -4 5 C-2.68 3.35 -1.36 1.7 0 0 Z " fill="#FFFFFF" transform="translate(66,27)"/>
<path d="M0 0 C0.66 0.33 1.32 0.66 2 1 C0.35 7.27 -1.3 13.54 -3 20 C-12.75 18.125 -12.75 18.125 -15 17 C-15 14.36 -15 11.72 -15 9 C-14.41992188 8.68546875 -13.83984375 8.3709375 -13.2421875 8.046875 C-8.67817073 5.54645657 -4.27883784 2.96227235 0 0 Z " fill="#FFFFFF" transform="translate(41,63)"/>
<path d="M0 0 C0.78503906 0.20496094 1.57007812 0.40992188 2.37890625 0.62109375 C9.22015321 2.41362365 9.22015321 2.41362365 16.1875 3.5625 C17.115625 3.706875 18.04375 3.85125 19 4 C19.33 4.66 19.66 5.32 20 6 C16.55040222 8.38818308 13.03768058 10.65720795 9.4375 12.8125 C8.71433594 13.25207031 7.99117187 13.69164062 7.24609375 14.14453125 C4.40173811 15.22785975 2.86681037 14.9301631 0 14 C-2 12 -2 12 -2.01171875 9.6875 C-1.90472656 8.800625 -1.79773438 7.91375 -1.6875 7 C-1.58824219 6.113125 -1.48898438 5.22625 -1.38671875 4.3125 C-1 2 -1 2 0 0 Z " fill="#FFFFFF" transform="translate(86,164)"/>
<path d="M0 0 C0.61875 0.78375 1.2375 1.5675 1.875 2.375 C3.89858661 4.96837647 3.89858661 4.96837647 6 7 C5.69216142 10.89928865 4.37791318 12.98754934 2 16 C-0.62728858 15.38357466 -3.25153582 14.75732213 -5.875 14.125 C-6.62136719 13.95097656 -7.36773437 13.77695313 -8.13671875 13.59765625 C-13.7734375 12.2265625 -13.7734375 12.2265625 -16 10 C-10.88084541 6.18786361 -5.63098876 3.00064027 0 0 Z " fill="#FFFFFF" transform="translate(132,157)"/>
<path d="M0 0 C4.3177458 0.50797009 8.03302114 1.19682779 12 3 C12.3125 6.25 12.3125 6.25 12 10 C8.88108562 13.30237993 5.12860302 15.16506533 1 17 C0.34 17 -0.32 17 -1 17 C-1 17.66 -1 18.32 -1 19 C-1.99 19.33 -2.98 19.66 -4 20 C-3.21085905 13.21338787 -1.58725189 6.63850633 0 0 Z " fill="#FFFFFF" transform="translate(163,118)"/>
<path d="M0 0 C1.65 0.66 3.3 1.32 5 2 C5 2.66 5 3.32 5 4 C5.66 4 6.32 4 7 4 C6.44549838 8.03994039 5.80044424 11.99777881 5 16 C-1.6 14.35 -8.2 12.7 -15 11 C-14.34 10.67 -13.68 10.34 -13 10 C-13 9.34 -13 8.68 -13 8 C-12.22914062 7.59007812 -11.45828125 7.18015625 -10.6640625 6.7578125 C-9.66117187 6.21898437 -8.65828125 5.68015625 -7.625 5.125 C-6.62726563 4.59132813 -5.62953125 4.05765625 -4.6015625 3.5078125 C-1.94651605 2.1179862 -1.94651605 2.1179862 0 0 Z " fill="#FFFFFF" transform="translate(110,21)"/>
<path d="M0 0 C1.67641098 4.09086452 0.2409319 7.71511018 -0.9375 11.75 C-1.13279297 12.44738281 -1.32808594 13.14476562 -1.52929688 13.86328125 C-2.0108246 15.57798973 -2.50425157 17.28934877 -3 19 C-6.96 19.495 -6.96 19.495 -11 20 C-14.875 13.375 -14.875 13.375 -16 10 C-15.34773437 9.61328125 -14.69546875 9.2265625 -14.0234375 8.828125 C-9.26704237 5.99393085 -4.56976538 3.12668157 0 0 Z " fill="#FFFFFF" transform="translate(152,145)"/>
<path d="M0 0 C8.58 0 17.16 0 26 0 C26 0.33 26 0.66 26 1 C17.42 1 8.84 1 0 1 C0 0.67 0 0.34 0 0 Z " fill="#FFFFFF" transform="translate(86,199)"/>
<path d="M0 0 C0.33 0 0.66 0 1 0 C1 8.58 1 17.16 1 26 C0.67 26 0.34 26 0 26 C0 17.42 0 8.84 0 0 Z " fill="#FFFFFF" transform="translate(199,86)"/>
<path d="M0 0 C0.66 0.33 1.32 0.66 2 1 C-0.31 3.31 -2.62 5.62 -5 8 C-5 5 -5 5 -2.5 2.3125 C-1.675 1.549375 -0.85 0.78625 0 0 Z " fill="#FFFFFF" transform="translate(30,25)"/>
<path d="M0 0 C1.98 0 3.96 0 6 0 C6 0.33 6 0.66 6 1 C4.02 1 2.04 1 0 1 C0 0.67 0 0.34 0 0 Z " fill="#FFFFFF" transform="translate(112,198)"/>
<path d="M0 0 C1.98 0 3.96 0 6 0 C6 0.33 6 0.66 6 1 C4.02 1 2.04 1 0 1 C0 0.67 0 0.34 0 0 Z " fill="#48E1FF" transform="translate(80,198)"/>
<path d="M0 0 C1.65 0 3.3 0 5 0 C5 0.33 5 0.66 5 1 C3.35 1 1.7 1 0 1 C0 0.67 0 0.34 0 0 Z " fill="#FFFFFF" transform="translate(118,197)"/>
<path d="M0 0 C1.65 0 3.3 0 5 0 C5 0.33 5 0.66 5 1 C3.35 1 1.7 1 0 1 C0 0.67 0 0.34 0 0 Z " fill="#23DCFF" transform="translate(75,197)"/>
<path d="M0 0 C1.65 0 3.3 0 5 0 C5 0.33 5 0.66 5 1 C3.35 1 1.7 1 0 1 C0 0.67 0 0.34 0 0 Z " fill="#FE00FF" transform="translate(117,0)"/>
<path d="M0 0 C1.65 0 3.3 0 5 0 C5 0.33 5 0.66 5 1 C3.35 1 1.7 1 0 1 C0 0.67 0 0.34 0 0 Z " fill="#FFFFFF" transform="translate(76,0)"/>
<path d="M0 0 C4 1 4 1 4 1 Z " fill="#FFFFFF" transform="translate(123,196)"/>
<path d="M0 0 C4 1 4 1 4 1 Z " fill="#24DBFF" transform="translate(68,195)"/>
<path d="M0 0 C4 1 4 1 4 1 Z " fill="#FFFFFF" transform="translate(69,2)"/>
<path d="M0 0 C4 1 4 1 4 1 Z " fill="#FE00FF" transform="translate(122,1)"/>
<path d="M0 0 C3 1 3 1 3 1 Z " fill="#24DBFF" transform="translate(72,196)"/>
<path d="M0 0 C3 1 3 1 3 1 Z " fill="#FFFFFF" transform="translate(127,195)"/>
<path d="M0 0 C3 1 3 1 3 1 Z " fill="#FFFFFF" transform="translate(130,194)"/>
<path d="M0 0 C3 1 3 1 3 1 Z " fill="#FFFFFF" transform="translate(65,194)"/>
<path d="M0 0 C3 1 3 1 3 1 Z " fill="#FFFFFF" transform="translate(135,192)"/>
<path d="M0 0 C3 1 3 1 3 1 Z " fill="#FFFFFF" transform="translate(60,192)"/>
<path d="" fill="#FFFFFF" transform="translate(0,0)"/>
<path d="" fill="#6D92FF" transform="translate(0,0)"/>
<path d="" fill="#FFFFFF" transform="translate(0,0)"/>
<path d="" fill="#738BFF" transform="translate(0,0)"/>
<path d="" fill="#FFFFFF" transform="translate(0,0)"/>
<path d="" fill="#D4D4FF" transform="translate(0,0)"/>
<path d="M0 0 C3 1 3 1 3 1 Z " fill="#FFFFFF" transform="translate(137,6)"/>
<path d="M0 0 C3 1 3 1 3 1 Z " fill="#FFAAFF" transform="translate(132,4)"/>
<path d="M0 0 C3 1 3 1 3 1 Z " fill="#FFFFFF" transform="translate(63,4)"/>
<path d="M0 0 C3 1 3 1 3 1 Z " fill="#FD02FF" transform="translate(129,3)"/>
<path d="M0 0 C3 1 3 1 3 1 Z " fill="#FFFFFF" transform="translate(66,3)"/>
<path d="M0 0 C3 1 3 1 3 1 Z " fill="#FE00FF" transform="translate(126,2)"/>
<path d="M0 0 C3 1 3 1 3 1 Z " fill="#FFFFFF" transform="translate(73,1)"/>
<path d="M0 0 C2 1 2 1 2 1 Z " fill="#FFFFFF" transform="translate(133,193)"/>
<path d="M0 0 C2 1 2 1 2 1 Z " fill="#FFFFFF" transform="translate(63,193)"/>
<path d="M0 0 C2 1 2 1 2 1 Z " fill="#FFFFFF" transform="translate(138,191)"/>
<path d="M0 0 C2 1 2 1 2 1 Z " fill="#FFFFFF" transform="translate(58,191)"/>
<path d="M0 0 C2 1 2 1 2 1 Z " fill="#FFFFFF" transform="translate(140,190)"/>
<path d="M0 0 C2 1 2 1 2 1 Z " fill="#FFFFFF" transform="translate(56,190)"/>
<path d="M0 0 C2 1 2 1 2 1 Z " fill="#37C9FF" transform="translate(142,189)"/>
<path d="M0 0 C2 1 2 1 2 1 Z " fill="#FFFFFF" transform="translate(54,189)"/>
<path d="M0 0 C2 1 2 1 2 1 Z " fill="#38C8FF" transform="translate(144,188)"/>
<path d="M0 0 C2 1 2 1 2 1 Z " fill="#FFFFFF" transform="translate(52,188)"/>
<path d="M0 0 C2 1 2 1 2 1 Z " fill="#39C7FF" transform="translate(146,187)"/>
<path d="M0 0 C2 1 2 1 2 1 Z " fill="#FFFFFF" transform="translate(50,187)"/>
<path d="M0 0 C2 1 2 1 2 1 Z " fill="#3AC6FF" transform="translate(148,186)"/>
<path d="M0 0 C2 1 2 1 2 1 Z " fill="#FFFFFF" transform="translate(47,185)"/>
<path d="M0 0 C2 1 2 1 2 1 Z " fill="#3CC3FF" transform="translate(151,184)"/>
<path d="M0 0 C2 1 2 1 2 1 Z " fill="#FFFFFF" transform="translate(45,184)"/>
<path d="M0 0 C2 1 2 1 2 1 Z " fill="#3EC1FF" transform="translate(154,182)"/>
<path d="M0 0 C2 1 2 1 2 1 Z " fill="#FFFFFF" transform="translate(42,182)"/>
<path d="M0 0 C2 1 2 1 2 1 Z " fill="#40C0FF" transform="translate(157,180)"/>
<path d="M0 0 C2 1 2 1 2 1 Z " fill="#FFFFFF" transform="translate(38,179)"/>
<path d="M0 0 C2 1 2 1 2 1 Z " fill="#FFFFFF" transform="translate(162,176)"/>
<path d="M0 0 C2 1 2 1 2 1 Z " fill="#FFFFFF" transform="translate(32,174)"/>
<path d="" fill="#3BC4FF" transform="translate(0,0)"/>
<path d="" fill="#FFFFFF" transform="translate(0,0)"/>
<path d="" fill="#FFFFFF" transform="translate(0,0)"/>
<path d="" fill="#B4CAFF" transform="translate(0,0)"/>
<path d="" fill="#FFFFFF" transform="translate(0,0)"/>
<path d="" fill="#FFFFFF" transform="translate(0,0)"/>
<path d="" fill="#FFFFFF" transform="translate(0,0)"/>
<path d="" fill="#FFFFFF" transform="translate(0,0)"/>
<path d="M0 0 C2 1 2 1 2 1 Z " fill="#FFFFFF" transform="translate(164,23)"/>
<path d="M0 0 C2 1 2 1 2 1 Z " fill="#FFFFFF" transform="translate(37,19)"/>
<path d="M0 0 C2 1 2 1 2 1 Z " fill="#FFFFFF" transform="translate(158,18)"/>
<path d="M0 0 C2 1 2 1 2 1 Z " fill="#FFFFFF" transform="translate(155,16)"/>
<path d="M0 0 C2 1 2 1 2 1 Z " fill="#FFFFFF" transform="translate(41,16)"/>
<path d="M0 0 C2 1 2 1 2 1 Z " fill="#FFFFFF" transform="translate(152,14)"/>
<path d="M0 0 C2 1 2 1 2 1 Z " fill="#D32CFF" transform="translate(44,14)"/>
<path d="M0 0 C2 1 2 1 2 1 Z " fill="#FFFFFF" transform="translate(149,12)"/>
<path d="M0 0 C2 1 2 1 2 1 Z " fill="#D628FF" transform="translate(47,12)"/>
<path d="M0 0 C2 1 2 1 2 1 Z " fill="#FFFFFF" transform="translate(147,11)"/>
<path d="M0 0 C2 1 2 1 2 1 Z " fill="#D826FF" transform="translate(49,11)"/>
<path d="M0 0 C2 1 2 1 2 1 Z " fill="#DA24FF" transform="translate(51,10)"/>
<path d="M0 0 C2 1 2 1 2 1 Z " fill="#FFFFFF" transform="translate(144,9)"/>
<path d="M0 0 C2 1 2 1 2 1 Z " fill="#FFFFFF" transform="translate(53,9)"/>
<path d="M0 0 C2 1 2 1 2 1 Z " fill="#FFFFFF" transform="translate(142,8)"/>
<path d="M0 0 C2 1 2 1 2 1 Z " fill="#FFFFFF" transform="translate(55,8)"/>
<path d="M0 0 C2 1 2 1 2 1 Z " fill="#FFFFFF" transform="translate(140,7)"/>
<path d="M0 0 C2 1 2 1 2 1 Z " fill="#FFFFFF" transform="translate(57,7)"/>
<path d="M0 0 C2 1 2 1 2 1 Z " fill="#FFFFFF" transform="translate(59,6)"/>
<path d="M0 0 C2 1 2 1 2 1 Z " fill="#FFFFFF" transform="translate(135,5)"/>
<path d="M0 0 C2 1 2 1 2 1 Z " fill="#FFFFFF" transform="translate(61,5)"/>
<path d="" fill="#FFFFFF" transform="translate(0,0)"/>
<path d="" fill="#3BC5FF" transform="translate(0,0)"/>
<path d="" fill="#3DC2FF" transform="translate(0,0)"/>
<path d="" fill="#FFFFFF" transform="translate(0,0)"/>
<path d="" fill="#3FC0FF" transform="translate(0,0)"/>
<path d="" fill="#FFFFFF" transform="translate(0,0)"/>
<path d="" fill="#FFFFFF" transform="translate(0,0)"/>
<path d="" fill="#41BFFF" transform="translate(0,0)"/>
<path d="" fill="#FFFFFF" transform="translate(0,0)"/>
<path d="" fill="#FFFFFF" transform="translate(0,0)"/>
<path d="" fill="#FFFFFF" transform="translate(0,0)"/>
<path d="" fill="#FFFFFF" transform="translate(0,0)"/>
<path d="" fill="#FFFFFF" transform="translate(0,0)"/>
<path d="" fill="#FFFFFF" transform="translate(0,0)"/>
<path d="" fill="#FFFFFF" transform="translate(0,0)"/>
<path d="" fill="#FFFFFF" transform="translate(0,0)"/>
<path d="" fill="#FFFFFF" transform="translate(0,0)"/>
<path d="" fill="#FFFFFF" transform="translate(0,0)"/>
<path d="" fill="#FFFFFF" transform="translate(0,0)"/>
<path d="" fill="#FFFFFF" transform="translate(0,0)"/>
<path d="" fill="#FFFFFF" transform="translate(0,0)"/>
<path d="" fill="#FFFFFF" transform="translate(0,0)"/>
<path d="" fill="#FFFFFF" transform="translate(0,0)"/>
<path d="" fill="#FFFFFF" transform="translate(0,0)"/>
<path d="" fill="#FFFFFF" transform="translate(0,0)"/>
<path d="" fill="#FFFFFF" transform="translate(0,0)"/>
<path d="" fill="#FFFFFF" transform="translate(0,0)"/>
<path d="" fill="#FFFFFF" transform="translate(0,0)"/>
<path d="" fill="#FFFFFF" transform="translate(0,0)"/>
<path d="" fill="#FFFFFF" transform="translate(0,0)"/>
<path d="" fill="#FFFFFF" transform="translate(0,0)"/>
<path d="" fill="#FFFFFF" transform="translate(0,0)"/>
<path d="" fill="#3AC5FF" transform="translate(0,0)"/>
<path d="" fill="#FFFFFF" transform="translate(0,0)"/>
<path d="" fill="#FFFFFF" transform="translate(0,0)"/>
<path d="" fill="#FFFFFF" transform="translate(0,0)"/>
<path d="" fill="#FFFFFF" transform="translate(0,0)"/>
<path d="" fill="#FFFFFF" transform="translate(0,0)"/>
<path d="" fill="#FFFFFF" transform="translate(0,0)"/>
<path d="" fill="#FFFFFF" transform="translate(0,0)"/>
<path d="" fill="#FFFFFF" transform="translate(0,0)"/>
<path d="" fill="#FFFFFF" transform="translate(0,0)"/>
<path d="" fill="#FFFFFF" transform="translate(0,0)"/>
<path d="" fill="#FFFFFF" transform="translate(0,0)"/>
<path d="" fill="#FFFFFF" transform="translate(0,0)"/>
<path d="" fill="#FFFFFF" transform="translate(0,0)"/>
<path d="" fill="#FFFFFF" transform="translate(0,0)"/>
<path d="" fill="#FFFFFF" transform="translate(0,0)"/>
<path d="" fill="#FFFFFF" transform="translate(0,0)"/>
<path d="" fill="#FFFFFF" transform="translate(0,0)"/>
<path d="" fill="#FFFFFF" transform="translate(0,0)"/>
<path d="" fill="#FFFFFF" transform="translate(0,0)"/>
<path d="" fill="#FFFFFF" transform="translate(0,0)"/>
<path d="" fill="#FFFFFF" transform="translate(0,0)"/>
<path d="" fill="#FFFFFF" transform="translate(0,0)"/>
<path d="" fill="#FFFFFF" transform="translate(0,0)"/>
<path d="" fill="#FFFFFF" transform="translate(0,0)"/>
<path d="" fill="#FFFFFF" transform="translate(0,0)"/>
<path d="" fill="#FFFFFF" transform="translate(0,0)"/>
<path d="" fill="#FFFFFF" transform="translate(0,0)"/>
<path d="" fill="#CF30FF" transform="translate(0,0)"/>
<path d="" fill="#FFFFFF" transform="translate(0,0)"/>
<path d="" fill="#D52AFF" transform="translate(0,0)"/>
<path d="" fill="#FFFFFF" transform="translate(0,0)"/>
</svg>
