<svg xmlns="http://www.w3.org/2000/svg" width="256" height="256" fill="none"><circle cx="128" cy="128" r="128" fill="#02081C"/><path fill="url(#a)" d="m70.7 128.5.1 33.8 28.7 17V199L54 172.4v-53.8l16.7 9.9Zm0-33.9v19.7L54 104.5V84.7l16.7-9.9 16.8 9.9-16.8 10Zm40.8-10 16.9-9.8 16.8 9.9-16.8 10-16.9-10Zm-28.7 70.8v-20l16.7 10v19.7l-16.7-9.7Zm28.7 31 16.9 9.9 16.8-10V206l-16.8 10-16.9-10v-19.7Zm57.7-101.7 16.7-9.9 16.8 9.9v19.8l-16.8 9.8V94.6l-16.7-10Zm16.7 77.6.1-33.8 16.7-10v53.8L157.2 199v-19.8l28.7-17Zm-12-7-16.7 9.8v-19.7l16.7-10v20Zm0-53.7.1 20-28.8 16.8v33.9l-16.7 9.8-16.9-9.8v-33.9l-28.8-16.9v-19.9l16.8-9.8 28.8 17 28.8-17 16.8 9.8h-.1ZM82.9 68 128.3 41l45.5 26.9-16.7 9.8-28.8-17-28.9 17-16.7-10v.2Z"/><path fill="url(#b)" d="m70.7 128.5.1 33.8 28.7 17V199L54 172.4v-53.8l16.7 9.9Zm0-33.9v19.7L54 104.5V84.7l16.7-9.9 16.8 9.9-16.8 10Zm40.8-10 16.9-9.8 16.8 9.9-16.8 10-16.9-10Zm-28.7 70.8v-20l16.7 10v19.7l-16.7-9.7Zm28.7 31 16.9 9.9 16.8-10V206l-16.8 10-16.9-10v-19.7Zm57.7-101.7 16.7-9.9 16.8 9.9v19.8l-16.8 9.8V94.6l-16.7-10Zm16.7 77.6.1-33.8 16.7-10v53.8L157.2 199v-19.8l28.7-17Zm-12-7-16.7 9.8v-19.7l16.7-10v20Zm0-53.7.1 20-28.8 16.8v33.9l-16.7 9.8-16.9-9.8v-33.9l-28.8-16.9v-19.9l16.8-9.8 28.8 17 28.8-17 16.8 9.8h-.1ZM82.9 68 128.3 41l45.5 26.9-16.7 9.8-28.8-17-28.9 17-16.7-10v.2Z"/><defs><linearGradient id="a" x1="128.4" x2="128.4" y1="41" y2="216" gradientUnits="userSpaceOnUse"><stop stop-color="#fff"/><stop offset="1" stop-color="#999"/></linearGradient><linearGradient id="b" x1="54.4" x2="200.8" y1="128.6" y2="143.5" gradientUnits="userSpaceOnUse"><stop stop-color="#9D62FF"/><stop offset=".3" stop-color="#FF7D6F"/><stop offset=".7" stop-color="#FFA756"/><stop offset="1" stop-color="#6EC5FF"/></linearGradient></defs></svg>