<?xml version="1.0" encoding="UTF-8"?>
<svg version="1.1" xmlns="http://www.w3.org/2000/svg" width="200" height="200">
<path d="M0 0 C2.82045877 2.30263418 5.56336058 4.67903285 8.27832031 7.10449219 C11.1535235 9.666713 11.1535235 9.666713 14.50878906 11.77246094 C17.18066406 13.58496094 17.18066406 13.58496094 17.86816406 15.77246094 C18.02285156 16.66964844 18.02285156 16.66964844 18.18066406 17.58496094 C19.17066406 17.91496094 20.16066406 18.24496094 21.18066406 18.58496094 C21.51066406 19.57496094 21.84066406 20.56496094 22.18066406 21.58496094 C22.78394531 22.1740625 23.38722656 22.76316406 24.00878906 23.37011719 C26.61161449 26.02443736 28.16331475 28.75588582 29.93066406 32.02246094 C30.85105469 33.69115234 30.85105469 33.69115234 31.79003906 35.39355469 C33.13514811 38.48050439 33.50200878 40.27881822 33.18066406 43.58496094 C33.84066406 43.58496094 34.50066406 43.58496094 35.18066406 43.58496094 C39.64424539 56.0781479 40.85665551 67.12735329 40.55566406 80.33496094 C40.53909422 82.04587815 40.52476266 83.75681854 40.51269531 85.46777344 C40.3702832 98.68935945 40.3702832 98.68935945 39.18066406 103.58496094 C38.52066406 103.58496094 37.86066406 103.58496094 37.18066406 103.58496094 C37.18066406 105.89496094 37.18066406 108.20496094 37.18066406 110.58496094 C36.52066406 110.58496094 35.86066406 110.58496094 35.18066406 110.58496094 C34.52066406 113.88496094 33.86066406 117.18496094 33.18066406 120.58496094 C32.52066406 120.58496094 31.86066406 120.58496094 31.18066406 120.58496094 C31.10589844 121.42542969 31.03113281 122.26589844 30.95410156 123.13183594 C30.00301116 127.37811833 28.20111083 130.25695184 25.80566406 133.83496094 C25.40605469 134.45886719 25.00644531 135.08277344 24.59472656 135.72558594 C22.64505024 138.70140769 21.175244 140.58857431 18.18066406 142.58496094 C17.87128906 143.24496094 17.56191406 143.90496094 17.24316406 144.58496094 C16.18066406 146.58496094 16.18066406 146.58496094 14.29394531 147.52246094 C12.05773456 148.64676653 10.95666201 149.72870379 9.30566406 151.58496094 C-7.5531495 168.76523493 -31.7922615 178.47350042 -55.67724609 178.87768555 C-83.14890277 179.03784131 -105.50892955 171.73865683 -126.31811523 153.40429688 C-129.3378039 150.75277047 -132.36813316 148.62599484 -135.81933594 146.58496094 C-136.52084746 145.26962683 -137.18459519 143.93378502 -137.81933594 142.58496094 C-139.08777344 141.37839844 -139.08777344 141.37839844 -140.38183594 140.14746094 C-142.93144067 137.46710724 -143.50996572 136.19428011 -143.81933594 132.58496094 C-144.80933594 132.25496094 -145.79933594 131.92496094 -146.81933594 131.58496094 C-150.62798259 125.57828936 -153.21756631 119.65575401 -153.81933594 112.58496094 C-154.47933594 111.59496094 -155.13933594 110.60496094 -155.81933594 109.58496094 C-156.19144014 108.26192377 -156.52563767 106.92758159 -156.81933594 105.58496094 C-157.14933594 104.59496094 -157.47933594 103.60496094 -157.81933594 102.58496094 C-158.14933594 102.58496094 -158.47933594 102.58496094 -158.81933594 102.58496094 C-158.87027326 96.32278946 -158.90516878 90.06067193 -158.92919922 83.79833984 C-158.93922299 81.67038984 -158.95284555 79.5424535 -158.97021484 77.41455078 C-158.99462286 74.34631976 -159.00585555 71.27827173 -159.01464844 68.20996094 C-159.02497101 67.26693115 -159.03529358 66.32390137 -159.04592896 65.35229492 C-159.04686971 59.74541582 -158.41278806 54.96630789 -156.81933594 49.58496094 C-156.15933594 49.58496094 -155.49933594 49.58496094 -154.81933594 49.58496094 C-154.69816406 48.88628906 -154.57699219 48.18761719 -154.45214844 47.46777344 C-154.28457031 46.55769531 -154.11699219 45.64761719 -153.94433594 44.70996094 C-153.78191406 43.80503906 -153.61949219 42.90011719 -153.45214844 41.96777344 C-152.81933594 39.58496094 -152.81933594 39.58496094 -150.81933594 37.58496094 C-149.71378412 35.63398714 -148.89319267 33.94732054 -148.44433594 31.74511719 C-147.67559861 29.08816878 -146.42875814 27.18569548 -144.88183594 24.89746094 C-144.3571875 24.10984375 -143.83253906 23.32222656 -143.29199219 22.51074219 C-141.81933594 20.58496094 -141.81933594 20.58496094 -139.81933594 19.58496094 C-139.48933594 18.59496094 -139.15933594 17.60496094 -138.81933594 16.58496094 C-138.25988281 16.318125 -137.70042969 16.05128906 -137.12402344 15.77636719 C-133.75454168 14.03451645 -131.50732154 11.25605376 -128.94433594 8.52246094 C-95.59880991 -25.77011212 -37.69548479 -29.31871039 0 0 Z M34.18066406 46.58496094 C35.18066406 48.58496094 35.18066406 48.58496094 35.18066406 48.58496094 Z M35.18066406 49.58496094 C36.18066406 51.58496094 36.18066406 51.58496094 36.18066406 51.58496094 Z M36.18066406 52.58496094 C37.18066406 55.58496094 37.18066406 55.58496094 37.18066406 55.58496094 Z M-156.81933594 53.58496094 C-155.81933594 56.58496094 -155.81933594 56.58496094 -155.81933594 56.58496094 Z M37.18066406 56.58496094 C38.18066406 59.58496094 38.18066406 59.58496094 38.18066406 59.58496094 Z M-157.81933594 57.58496094 C-156.81933594 61.58496094 -156.81933594 61.58496094 -156.81933594 61.58496094 Z M38.18066406 60.58496094 C38.18066406 62.23496094 38.18066406 63.88496094 38.18066406 65.58496094 C38.51066406 65.58496094 38.84066406 65.58496094 39.18066406 65.58496094 C39.18066406 63.93496094 39.18066406 62.28496094 39.18066406 60.58496094 C38.85066406 60.58496094 38.52066406 60.58496094 38.18066406 60.58496094 Z M38.18066406 93.58496094 C38.18066406 95.23496094 38.18066406 96.88496094 38.18066406 98.58496094 C38.51066406 98.58496094 38.84066406 98.58496094 39.18066406 98.58496094 C39.18066406 96.93496094 39.18066406 95.28496094 39.18066406 93.58496094 C38.85066406 93.58496094 38.52066406 93.58496094 38.18066406 93.58496094 Z " fill="#262525" transform="translate(158.8193359375,19.4150390625)"/>
<path d="M0 0 C1.1446875 0.07541016 1.1446875 0.07541016 2.3125 0.15234375 C11.26114024 3.18291523 18.00207609 11.78656618 24.5 18.33203125 C25.58679235 19.42001787 26.67395702 20.50763271 27.76147461 21.59489441 C30.02362583 23.85859965 32.28240733 26.12559428 34.53857422 28.39526367 C37.43653467 31.31034513 40.34116771 34.21866717 43.24807739 37.12482166 C45.48561721 39.36263245 47.72054927 41.60303186 49.95458984 43.84433556 C51.02575471 44.91868848 52.09753152 45.99243162 53.16992188 47.06556129 C54.6587913 48.55658536 56.14433014 50.05084536 57.62890625 51.54614258 C58.47525635 52.39630447 59.32160645 53.24646637 60.19360352 54.12239075 C62 56.0625 62 56.0625 62 57.0625 C59.29105233 57.14394943 56.58458737 57.20320614 53.875 57.25 C53.11445313 57.27513672 52.35390625 57.30027344 51.5703125 57.32617188 C45.80536972 57.40071855 41.78970104 56.39964954 37.2421875 52.58984375 C33.18347451 47.87014036 31.00658369 42.92880643 29 37.0625 C24.4531478 42.79548756 24.57581196 47.96968142 25 55.0625 C25.4857858 57.52522277 26.15649446 59.69014068 27 62.0625 C19.29068181 71.42739845 19.29068181 71.42739845 14.09765625 72.8671875 C9.82695624 72.97263688 6.68517344 72.35238107 2.75 70.6875 C-1.18602874 66.93038166 -4.05163712 62.61422516 -7 58.0625 C-7.66 57.0725 -8.32 56.0825 -9 55.0625 C-11.67305379 58.88918753 -12.36860441 61.41320719 -12.25 66.0625 C-12.22679688 67.5784375 -12.22679688 67.5784375 -12.203125 69.125 C-12.01427356 71.8560824 -11.60765292 74.39666785 -11 77.0625 C-33.62332921 66.36190972 -33.62332921 66.36190972 -39 55.0625 C-39.87515889 52.39144213 -40.45650658 49.82937557 -41 47.0625 C-44.77373916 61.68573926 -39.04368234 75.46873542 -32 88.0625 C-31.01 89.5475 -31.01 89.5475 -30 91.0625 C-29.72688656 93.3037196 -29.55121446 95.55756646 -29.4375 97.8125 C-29.15862055 102.62317056 -28.79183291 107.31150256 -28 112.0625 C-27.21625 112.371875 -26.4325 112.68125 -25.625 113 C-23 114.0625 -23 114.0625 -21 115.0625 C-21.66 117.3725 -22.32 119.6825 -23 122.0625 C-17.89611411 122.63849192 -12.79155086 123.2079061 -7.6862793 123.77148438 C-5.95300966 123.96372941 -4.21993125 124.15770731 -2.48706055 124.35351562 C0.01724604 124.63617851 2.5221956 124.91240753 5.02734375 125.1875 C6.17166115 125.31874268 6.17166115 125.31874268 7.33909607 125.45263672 C17.73860981 126.90906601 17.73860981 126.90906601 27.45703125 124.0234375 C28.17697266 123.60835938 28.89691406 123.19328125 29.63867188 122.765625 C30.35603516 122.32734375 31.07339844 121.8890625 31.8125 121.4375 C33.26870278 120.55587942 34.73331103 119.6879528 36.20703125 118.8359375 C36.8410083 118.44841309 37.47498535 118.06088867 38.12817383 117.66162109 C40 117.0625 40 117.0625 42.11698914 118.02505493 C42.73838272 118.3674118 43.35977631 118.70976868 44 119.0625 C39.95547391 123.8966643 35.74441334 128.50010942 31.31640625 132.984375 C30.69781235 133.61104065 30.07921844 134.2377063 29.44187927 134.88336182 C28.14330065 136.19566528 26.8432376 137.50650139 25.54174805 138.81591797 C24.21954866 140.149697 22.90184389 141.48794631 21.58862305 142.83056641 C19.67432195 144.7875985 17.74705295 146.73098186 15.81640625 148.671875 C15.23701797 149.26877136 14.6576297 149.86566772 14.0606842 150.48065186 C9.75680836 154.76207162 5.68996787 157.46029724 -0.44140625 158.4609375 C-1.14136719 158.45320312 -1.84132813 158.44546875 -2.5625 158.4375 C-3.26503906 158.44523438 -3.96757813 158.45296875 -4.69140625 158.4609375 C-16.83009864 156.36593475 -27.01180674 142.21310694 -35.4296875 133.80078125 C-36.59401612 132.63967531 -37.7584157 131.47864052 -38.92288208 130.31767273 C-41.34325499 127.90323759 -43.76160379 125.48679609 -46.17871094 123.0690918 C-49.26684102 119.98085948 -52.36183533 116.89960474 -55.45857048 113.82000446 C-57.85725794 111.43245305 -60.25136892 109.04035265 -62.64422989 106.64696312 C-63.78363653 105.50873079 -64.9246518 104.37210624 -66.06734848 103.2371769 C-67.66283324 101.65154072 -69.25179777 100.05963207 -70.83935547 98.46606445 C-71.74185028 97.56499466 -72.64434509 96.66392487 -73.57418823 95.73554993 C-77.95262988 90.91085855 -81.08991808 86.49388335 -81.3125 79.875 C-81.36857422 78.80185547 -81.36857422 78.80185547 -81.42578125 77.70703125 C-80.26942809 70.52491115 -75.81906649 65.29078245 -70.79785156 60.3269043 C-70.18588928 59.70632645 -69.573927 59.0857486 -68.94342041 58.44636536 C-66.93583865 56.41624734 -64.9140432 54.40104391 -62.890625 52.38671875 C-61.48009967 50.97095315 -60.07009405 49.55466958 -58.6605835 48.13789368 C-55.71164819 45.17857742 -52.75538972 42.22682554 -49.79394531 39.2800293 C-46.00813874 35.51142354 -42.24308158 31.72282805 -38.4834938 27.92808819 C-35.57890355 25.00149504 -32.66266374 22.08673251 -29.74291229 19.17527199 C-28.35010614 17.78328342 -26.96111515 16.38746616 -25.57611847 14.98770714 C-23.63580502 13.02989186 -21.6800951 11.08882975 -19.71972656 9.15112305 C-19.15632568 8.57602997 -18.5929248 8.00093689 -18.01245117 7.40841675 C-13.0479721 2.55947514 -7.19307862 -0.69257683 0 0 Z " fill="#EF5643" transform="translate(106,22.9375)"/>
<path d="M0 0 C0 0.66 0 1.32 0 2 C0.66 2.33 1.32 2.66 2 3 C1.67 4.134375 1.34 5.26875 1 6.4375 C-2.54673811 21.03271008 2.95224957 34.39896188 10 47 C10.66 47.99 11.32 48.98 12 50 C12.27311344 52.2412196 12.44878554 54.49506646 12.5625 56.75 C12.84137945 61.56067056 13.20816709 66.24900256 14 71 C14.78375 71.309375 15.5675 71.61875 16.375 71.9375 C19 73 19 73 21 74 C20.34 76.31 19.68 78.62 19 81 C24.10388589 81.57599192 29.20844914 82.1454061 34.3137207 82.70898438 C36.04699034 82.90122941 37.78006875 83.09520731 39.51293945 83.29101562 C42.01724604 83.57367851 44.5221956 83.84990753 47.02734375 84.125 C48.17166115 84.25624268 48.17166115 84.25624268 49.33909607 84.39013672 C59.73860981 85.84656601 59.73860981 85.84656601 69.45703125 82.9609375 C70.17697266 82.54585938 70.89691406 82.13078125 71.63867188 81.703125 C72.35603516 81.26484375 73.07339844 80.8265625 73.8125 80.375 C75.26870278 79.49337942 76.73331103 78.6254528 78.20703125 77.7734375 C78.8410083 77.38591309 79.47498535 76.99838867 80.12817383 76.59912109 C82 76 82 76 84.11698914 76.96255493 C84.73838272 77.3049118 85.35977631 77.64726868 86 78 C81.95547391 82.8341643 77.74441334 87.43760942 73.31640625 91.921875 C72.69781235 92.54854065 72.07921844 93.1752063 71.44187927 93.82086182 C70.14330065 95.13316528 68.8432376 96.44400139 67.54174805 97.75341797 C66.21954866 99.087197 64.90184389 100.42544631 63.58862305 101.76806641 C61.67432195 103.7250985 59.74705295 105.66848186 57.81640625 107.609375 C57.23701797 108.20627136 56.6576297 108.80316772 56.0606842 109.41815186 C51.75680836 113.69957162 47.68996787 116.39779724 41.55859375 117.3984375 C40.50865234 117.38683594 40.50865234 117.38683594 39.4375 117.375 C38.73496094 117.38273437 38.03242187 117.39046875 37.30859375 117.3984375 C25.30331232 115.32645999 15.61310252 101.78594058 7.3046875 93.5078125 C6.77326267 92.97921505 6.24183784 92.4506176 5.69430923 91.90600204 C2.897065 89.12358283 0.10257489 86.33843436 -2.68945312 83.55078125 C-5.57003092 80.67574994 -8.45982214 77.81016131 -11.35170174 74.94650459 C-13.58368138 72.7330883 -15.80898321 70.51305111 -18.03246689 68.29110336 C-19.09615144 67.23044616 -20.16233746 66.17229145 -21.2310524 65.11670303 C-22.7147138 63.65001399 -24.18871277 62.17424786 -25.66064453 60.69580078 C-26.50096222 59.85912872 -27.34127991 59.02245667 -28.20706177 58.16043091 C-30 56 -30 56 -30 53 C-30.495 52.525625 -30.99 52.05125 -31.5 51.5625 C-33 50 -33 50 -33 46 C-34.485 46.495 -34.485 46.495 -36 47 C-35.814375 45.989375 -35.62875 44.97875 -35.4375 43.9375 C-35.00231753 40.02085773 -35.29146979 36.85755337 -36 33 C-34.02 32.505 -34.02 32.505 -32 32 C-32.2475 31.2575 -32.495 30.515 -32.75 29.75 C-33 27 -33 27 -31.3125 24.75 C-29.08903214 23.06737567 -27.72339328 22.38905618 -25 22 C-24.9175 21.21625 -24.835 20.4325 -24.75 19.625 C-24 17 -24 17 -22.125 15.75 C-20.42273121 15.14919925 -18.71254562 14.57084854 -17 14 C-16.9175 13.21625 -16.835 12.4325 -16.75 11.625 C-16 9 -16 9 -14.125 7.75 C-12.42273121 7.14919925 -10.71254562 6.57084854 -9 6 C-7.77479736 2.99152582 -7.77479736 2.99152582 -7 0 C-2.25 -1.125 -2.25 -1.125 0 0 Z " fill="#ED394E" transform="translate(64,64)"/>
<path d="M0 0 C0.7425 0.309375 1.485 0.61875 2.25 0.9375 C4.80347378 2.04308459 4.80347378 2.04308459 6.84667969 2.26171875 C10.06927765 3.36660948 11.81975734 5.4669033 14.203125 7.875 C14.6857782 8.35952637 15.1684314 8.84405273 15.66571045 9.34326172 C16.68106163 10.36531964 17.69281638 11.39096142 18.70117188 12.41992188 C20.25134876 14.00137598 21.81205923 15.57179375 23.375 17.140625 C31 24.83657397 31 24.83657397 31 26 C28.29105233 26.08144943 25.58458737 26.14070614 22.875 26.1875 C22.11445313 26.21263672 21.35390625 26.23777344 20.5703125 26.26367188 C14.80379261 26.33823894 10.8272534 25.312065 6.2421875 21.5625 C1.9017611 16.60201269 -0.0770493 11.25524551 -2 5 C-1.01 4.01 -0.02 3.02 1 2 C0.67 1.34 0.34 0.68 0 0 Z " fill="#E84B4B" transform="translate(137,54)"/>
<path d="M0 0 C0.51046875 0.40734375 1.0209375 0.8146875 1.546875 1.234375 C-3.43716668 7.26768862 -8.87227803 12.7527921 -14.453125 18.234375 C-15.443125 17.574375 -16.433125 16.914375 -17.453125 16.234375 C-18.113125 16.234375 -18.773125 16.234375 -19.453125 16.234375 C-18.793125 14.584375 -18.133125 12.934375 -17.453125 11.234375 C-20.093125 10.904375 -22.733125 10.574375 -25.453125 10.234375 C-25.453125 9.904375 -25.453125 9.574375 -25.453125 9.234375 C-23.71289062 8.87085938 -23.71289062 8.87085938 -21.9375 8.5 C-16.65996434 7.18410344 -12.36875959 4.59120463 -7.74609375 1.8046875 C-2.96407007 -0.92509193 -2.96407007 -0.92509193 0 0 Z " fill="#E62656" transform="translate(148.453125,140.765625)"/>
<path d="M0 0 C0 3.54069923 -0.49579807 5.78647769 -2 9 C-5.125 10.375 -5.125 10.375 -8 11 C-8.33 13.31 -8.66 15.62 -9 18 C-10.32 18.33 -11.64 18.66 -13 19 C-12.84402344 19.60328125 -12.68804688 20.2065625 -12.52734375 20.828125 C-12.23537109 22.02695313 -12.23537109 22.02695313 -11.9375 23.25 C-11.74027344 24.03890625 -11.54304688 24.8278125 -11.33984375 25.640625 C-10.98502733 28.10394822 -11.23122456 29.65604132 -12 32 C-11.34 32 -10.68 32 -10 32 C-9.896875 32.763125 -9.79375 33.52625 -9.6875 34.3125 C-8.95635961 37.17059424 -8.23048087 38.15742885 -6 40 C-6.99 40 -7.98 40 -9 40 C-10.5703125 38.35546875 -10.5703125 38.35546875 -12.125 36.1875 C-12.64320312 35.47980469 -13.16140625 34.77210937 -13.6953125 34.04296875 C-16.54577816 29.57951504 -16.54544078 25.11875197 -16 20 C-13.96364042 11.61894984 -6.01793318 5.67729545 0 0 Z " fill="#E85648" transform="translate(41,78)"/>
<path d="M0 0 C0.33 0 0.66 0 1 0 C1.07476562 0.67804688 1.14953125 1.35609375 1.2265625 2.0546875 C2.28146702 9.52175673 4.73446128 14.81631022 9 21 C8.01 21 7.02 21 6 21 C6 20.34 6 19.68 6 19 C5.34 19 4.68 19 4 19 C4 18.01 4 17.02 4 16 C3.01 16 2.02 16 1 16 C1.33 20.62 1.66 25.24 2 30 C-2.5041268 23.24380979 -3.07200818 13.53562845 -1.546875 5.66015625 C-1.07956937 3.76089265 -0.54634293 1.87805383 0 0 Z " fill="#3D1F1A" transform="translate(65,67)"/>
<path d="M0 0 C0.33 0 0.66 0 1 0 C1.06058594 0.73605469 1.12117188 1.47210938 1.18359375 2.23046875 C1.26738281 3.20628906 1.35117188 4.18210937 1.4375 5.1875 C1.51871094 6.15042969 1.59992188 7.11335938 1.68359375 8.10546875 C1.97349361 10.75751558 2.47679265 13.38396323 3 16 C-1.29 14.02 -5.58 12.04 -10 10 C-9.34 8.02 -8.68 6.04 -8 4 C-7.01 4.33 -6.02 4.66 -5 5 C-5.33 5.99 -5.66 6.98 -6 8 C-5.34 8 -4.68 8 -4 8 C-3.67 6.02 -3.34 4.04 -3 2 C-2.67 2 -2.34 2 -2 2 C-1.67 3.98 -1.34 5.96 -1 8 C-0.67 5.36 -0.34 2.72 0 0 Z " fill="#EC494C" transform="translate(92,84)"/>
<path d="M0 0 C2.11967125 3.17950688 3.61883807 6.44594279 5.125 9.9375 C5.40214844 10.55818359 5.67929688 11.17886719 5.96484375 11.81835938 C7.41872184 15.18090009 8 17.26583573 8 21 C7.67 20.34 7.34 19.68 7 19 C6.34 19 5.68 19 5 19 C5 19.66 5 20.32 5 21 C4.34 21 3.68 21 3 21 C2.31292445 18.50935112 2 16.62113708 2 14 C1.68554487 11.66404762 1.3496418 9.33094534 1 7 C0.66666667 4.66666667 0.33333333 2.33333333 0 0 Z " fill="#E24B4C" transform="translate(64,91)"/>
<path d="M0 0 C0.66 0.33 1.32 0.66 2 1 C1.67 3.31 1.34 5.62 1 8 C-2.47325181 9.1577506 -5.36067448 9.06866652 -9 9 C-9 8.34 -9 7.68 -9 7 C-7.02053408 5.63636792 -5.0180755 4.30581356 -3 3 C-1.20605554 1.37648891 -1.20605554 1.37648891 0 0 Z " fill="#D84C6A" transform="translate(122,106)"/>
<path d="M0 0 C0.78375 0.639375 1.5675 1.27875 2.375 1.9375 C1.385 2.2675 0.395 2.5975 -0.625 2.9375 C-0.625 3.9275 -0.625 4.9175 -0.625 5.9375 C-1.945 4.9475 -3.265 3.9575 -4.625 2.9375 C-3.965 1.9475 -3.305 0.9575 -2.625 -0.0625 C-8.235 -0.0625 -13.845 -0.0625 -19.625 -0.0625 C-14.69562241 -4.99187759 -5.450283 -3.65947573 0 0 Z " fill="#DB634A" transform="translate(114.625,26.0625)"/>
<path d="M0 0 C0.99 1.32 1.98 2.64 3 4 C2 6 2 6 0 9 C-0.5827119 10.54766142 -1.12264187 12.11192222 -1.625 13.6875 C-2.01558594 14.89986328 -2.01558594 14.89986328 -2.4140625 16.13671875 C-2.70410156 17.05904297 -2.70410156 17.05904297 -3 18 C-3.33 18 -3.66 18 -4 18 C-4.738041 5.33029613 -4.738041 5.33029613 0 0 Z " fill="#361F1F" transform="translate(97,77)"/>
<path d="M0 0 C0.66 0.33 1.32 0.66 2 1 C1.97679687 1.71285156 1.95359375 2.42570312 1.9296875 3.16015625 C1.82184326 8.88360394 2.07942689 13.59838814 4 19 C2.35 20.32 0.7 21.64 -1 23 C-0.814375 22.2575 -0.62875 21.515 -0.4375 20.75 C0.17650875 18.15099583 0.17650875 18.15099583 -0.5 16.28125 C-1.21272929 13.02942261 -0.83818639 10.0582367 -0.5625 6.75 C-0.46066406 5.48671875 -0.35882813 4.2234375 -0.25390625 2.921875 C-0.17011719 1.95765625 -0.08632812 0.9934375 0 0 Z " fill="#DE4D51" transform="translate(129,66)"/>
<path d="M0 0 C1.67542976 0.28604898 3.34385343 0.61781233 5 1 C2.44559585 5.22797927 2.44559585 5.22797927 0 7 C-3.7174474 7.53255567 -7.26996191 7.35275316 -11 7 C-11 6.67 -11 6.34 -11 6 C-8.36 6 -5.72 6 -3 6 C-3.99 5.01 -4.98 4.02 -6 3 C-5.195625 2.690625 -4.39125 2.38125 -3.5625 2.0625 C-1.10919595 1.23664655 -1.10919595 1.23664655 0 0 Z " fill="#E5464F" transform="translate(123,88)"/>
<path d="M0 0 C0 0.33 0 0.66 0 1 C-9.44573505 1.30470113 -18.6421436 0.14169926 -28 -1 C-28 -1.33 -28 -1.66 -28 -2 C-18.80121294 -4.12279701 -9.15761084 -1.45785768 0 0 Z " fill="#401D24" transform="translate(120,148)"/>
<path d="M0 0 C0.886875 0.103125 1.77375 0.20625 2.6875 0.3125 C2.6875 1.3025 2.6875 2.2925 2.6875 3.3125 C-0.27591714 4.95884286 -2.94426256 5.86931086 -6.3125 6.3125 C-6.9725 5.9825 -7.6325 5.6525 -8.3125 5.3125 C-4.12788462 0.38942308 -4.12788462 0.38942308 0 0 Z " fill="#ED603F" transform="translate(96.3125,25.6875)"/>
<path d="M0 0 C3.43338516 1.20632452 5.50364585 2.38477184 8 5 C8.66 5 9.32 5 10 5 C10 5.66 10 6.32 10 7 C10.66 7.33 11.32 7.66 12 8 C11.67 9.32 11.34 10.64 11 12 C9.16364422 10.19047409 7.33083792 8.37759362 5.5 6.5625 C4.97535156 6.04623047 4.45070313 5.52996094 3.91015625 4.99804688 C2.58775448 3.68423213 1.29164432 2.34406495 0 1 C0 0.67 0 0.34 0 0 Z " fill="#C93050" transform="translate(63,148)"/>
<path d="M0 0 C0.33 1.32 0.66 2.64 1 4 C1.66 4 2.32 4 3 4 C3.103125 4.763125 3.20625 5.52625 3.3125 6.3125 C4.04364039 9.17059424 4.76951913 10.15742885 7 12 C6.01 12 5.02 12 4 12 C2.39453125 10.3203125 2.39453125 10.3203125 0.8125 8.125 C0.01779297 7.04605469 0.01779297 7.04605469 -0.79296875 5.9453125 C-2 4 -2 4 -2 2 C-1.34 2 -0.68 2 0 2 C0 1.34 0 0.68 0 0 Z " fill="#D84C4D" transform="translate(28,106)"/>
<path d="M0 0 C0.99 0.33 1.98 0.66 3 1 C2.72285156 1.4846875 2.44570313 1.969375 2.16015625 2.46875 C-0.51209285 7.4138373 -1.59967438 11.39544133 -2 17 C-2.33 17 -2.66 17 -3 17 C-3.02712153 15.083412 -3.04645097 13.1667127 -3.0625 11.25 C-3.07410156 10.18265625 -3.08570312 9.1153125 -3.09765625 8.015625 C-3.01454043 5.44900837 -2.89084647 3.39800183 -2 1 C-1.34 0.67 -0.68 0.34 0 0 Z " fill="#3B231E" transform="translate(27,89)"/>
<path d="M0 0 C1.32 0 2.64 0 4 0 C3.67 4.62 3.34 9.24 3 14 C0.81005752 10.71508627 0.64722661 9.16904361 0.375 5.3125 C0.30023438 4.31863281 0.22546875 3.32476562 0.1484375 2.30078125 C0.09945312 1.54152344 0.05046875 0.78226562 0 0 Z " fill="#E35E48" transform="translate(65,64)"/>
<path d="M0 0 C0.33 0 0.66 0 1 0 C1.06058594 0.73605469 1.12117188 1.47210938 1.18359375 2.23046875 C1.26738281 3.20628906 1.35117188 4.18210937 1.4375 5.1875 C1.51871094 6.15042969 1.59992188 7.11335938 1.68359375 8.10546875 C1.97666151 10.78649602 2.42703754 13.3662986 3 16 C0.525 15.01 0.525 15.01 -2 14 C-1.34 9.38 -0.68 4.76 0 0 Z " fill="#CE4F50" transform="translate(92,84)"/>
<path d="M0 0 C0.33 0 0.66 0 1 0 C1 5.94 1 11.88 1 18 C-1.00378805 14.99431793 -1.29045938 13.99484235 -1.5625 10.5625 C-1.80800744 7.6013796 -2.20970486 4.86726916 -3 2 C-2.01 2.33 -1.02 2.66 0 3 C0 2.01 0 1.02 0 0 Z " fill="#DD5C4E" transform="translate(63,70)"/>
<path d="M0 0 C8.58 0 17.16 0 26 0 C26 0.33 26 0.66 26 1 C17.42 1 8.84 1 0 1 C0 0.67 0 0.34 0 0 Z " fill="#262626" transform="translate(86,199)"/>
<path d="M0 0 C1.65 0 3.3 0 5 0 C5.33 0.99 5.66 1.98 6 3 C6.66 3.33 7.32 3.66 8 4 C7.67 5.32 7.34 6.64 7 8 C5.83035398 6.8572081 4.66435444 5.71068285 3.5 4.5625 C2.8503125 3.92441406 2.200625 3.28632813 1.53125 2.62890625 C0 1 0 1 0 0 Z " fill="#CD2952" transform="translate(75,160)"/>
<path d="M0 0 C0.33 0 0.66 0 1 0 C1 8.58 1 17.16 1 26 C0.67 26 0.34 26 0 26 C0 17.42 0 8.84 0 0 Z " fill="#262626" transform="translate(199,86)"/>
<path d="M0 0 C2 1 2 1 2.6328125 2.84765625 C2.79523438 3.57855469 2.95765625 4.30945312 3.125 5.0625 C3.29257813 5.79597656 3.46015625 6.52945313 3.6328125 7.28515625 C3.75398437 7.85105469 3.87515625 8.41695312 4 9 C3.566875 8.505 3.13375 8.01 2.6875 7.5 C1.00259517 5.66781808 1.00259517 5.66781808 -2 6 C-2.33 6.66 -2.66 7.32 -3 8 C-2.45276317 4.62537285 -1.9451 2.91765 0 0 Z " fill="#3C1E1B" transform="translate(134,59)"/>
<path d="M0 0 C4.29 0.99 8.58 1.98 13 3 C9.77208445 5.1519437 8.71599191 5.20086443 5 5 C4.67 4.01 4.34 3.02 4 2 C2.68 2 1.36 2 0 2 C0 1.34 0 0.68 0 0 Z " fill="#E72C52" transform="translate(82,145)"/>
<path d="M0 0 C3.91211733 1.15585285 6.8745041 2.35534962 10 5 C8.35 5.33 6.7 5.66 5 6 C4.67 5.01 4.34 4.02 4 3 C2.68 3 1.36 3 0 3 C0 2.01 0 1.02 0 0 Z " fill="#3E1F21" transform="translate(84,95)"/>
<path d="M0 0 C0.66 0 1.32 0 2 0 C1.814375 0.94875 1.62875 1.8975 1.4375 2.875 C0.71313368 5.89868793 0.71313368 5.89868793 2 8 C-1.875 6.25 -1.875 6.25 -3 4 C-2.34 4 -1.68 4 -1 4 C-0.67 2.68 -0.34 1.36 0 0 Z " fill="#DC4E46" transform="translate(75,81)"/>
<path d="M0 0 C1.98 1.65 3.96 3.3 6 5 C5.01 5.66 4.02 6.32 3 7 C1.68 6.01 0.36 5.02 -1 4 C-0.67 2.68 -0.34 1.36 0 0 Z " fill="#E2584A" transform="translate(138,50)"/>
<path d="M0 0 C0.66 0.33 1.32 0.66 2 1 C-0.64 2.98 -3.28 4.96 -6 7 C-6.99 6.34 -7.98 5.68 -9 5 C-7.54735962 4.1361871 -6.0876837 3.28419546 -4.625 2.4375 C-3.40683594 1.72400391 -3.40683594 1.72400391 -2.1640625 0.99609375 C-1.44992188 0.66738281 -0.73578125 0.33867187 0 0 Z " fill="#D52C59" transform="translate(142,142)"/>
<path d="M0 0 C0.33 1.65 0.66 3.3 1 5 C0.01 4.01 -0.98 3.02 -2 2 C-3.32 3.65 -4.64 5.3 -6 7 C-6.1875 4.625 -6.1875 4.625 -6 2 C-3 0 -3 0 0 0 Z " fill="#D3524B" transform="translate(99,76)"/>
<path d="M0 0 C1.98 1.65 3.96 3.3 6 5 C4.1875 5.6875 4.1875 5.6875 2 6 C0.25 4.5625 0.25 4.5625 -1 3 C-0.67 2.01 -0.34 1.02 0 0 Z " fill="#E25E48" transform="translate(130,42)"/>
<path d="M0 0 C0.66 0 1.32 0 2 0 C2 0.99 2 1.98 2 3 C2.66 3 3.32 3 4 3 C3.34 4.32 2.68 5.64 2 7 C1.34 6.01 0.68 5.02 0 4 C-0.66 4 -1.32 4 -2 4 C-1.34 2.68 -0.68 1.36 0 0 Z " fill="#E42756" transform="translate(123,161)"/>
<path d="M0 0 C1.32 0.66 2.64 1.32 4 2 C3.34 3.98 2.68 5.96 2 8 C1.01 8 0.02 8 -1 8 C-0.835 7.05125 -0.67 6.1025 -0.5 5.125 C0.0526635 2.19831099 0.0526635 2.19831099 0 0 Z " fill="#D43854" transform="translate(81,136)"/>
<path d="M0 0 C1.9375 0.75 1.9375 0.75 4 2 C4.75 4.125 4.75 4.125 5 6 C2.525 5.01 2.525 5.01 0 4 C0 2.68 0 1.36 0 0 Z " fill="#E4484A" transform="translate(107,88)"/>
<path d="M0 0 C-0.66 1.32 -1.32 2.64 -2 4 C-3.32 3.67 -4.64 3.34 -6 3 C-6 2.01 -6 1.02 -6 0 C-3 -1 -3 -1 0 0 Z " fill="#F02256" transform="translate(96,171)"/>
<path d="M0 0 C0.66 0.33 1.32 0.66 2 1 C1.67 1.99 1.34 2.98 1 4 C0.34 4 -0.32 4 -1 4 C-1.33 4.66 -1.66 5.32 -2 6 C-2.99 5.67 -3.98 5.34 -5 5 C-3.35 3.35 -1.7 1.7 0 0 Z " fill="#E56148" transform="translate(93,26)"/>
<path d="M0 0 C0.66 0.99 1.32 1.98 2 3 C1.67 3.66 1.34 4.32 1 5 C-2.0625 5.625 -2.0625 5.625 -5 6 C-3.35 4.02 -1.7 2.04 0 0 Z " fill="#401A24" transform="translate(122,170)"/>
<path d="M0 0 C2.125 0.9375 2.125 0.9375 4 2 C2.68 3.32 1.36 4.64 0 6 C0 4.68 0 3.36 0 2 C-0.66 1.67 -1.32 1.34 -2 1 C-1.34 0.67 -0.68 0.34 0 0 Z " fill="#D52D58" transform="translate(146,140)"/>
<path d="M0 0 C3.465 1.98 3.465 1.98 7 4 C5.02 4.99 5.02 4.99 3 6 C2.67 5.34 2.34 4.68 2 4 C1.01 3.67 0.02 3.34 -1 3 C-0.67 2.01 -0.34 1.02 0 0 Z " fill="#37201F" transform="translate(77,90)"/>
<path d="M0 0 C0.33 0 0.66 0 1 0 C1.33 3.3 1.66 6.6 2 10 C1.01 10.66 0.02 11.32 -1 12 C-0.67 8.04 -0.34 4.08 0 0 Z " fill="#F05347" transform="translate(61,76)"/>
<path d="M0 0 C0.66 0.33 1.32 0.66 2 1 C-0.31 3.31 -2.62 5.62 -5 8 C-5 5 -5 5 -2.5 2.3125 C-1.675 1.549375 -0.85 0.78625 0 0 Z " fill="#262626" transform="translate(30,25)"/>
<path d="M0 0 C1.98 0 3.96 0 6 0 C6 0.33 6 0.66 6 1 C4.02 1 2.04 1 0 1 C0 0.67 0 0.34 0 0 Z " fill="#262626" transform="translate(112,198)"/>
<path d="M0 0 C1.98 0 3.96 0 6 0 C6 0.33 6 0.66 6 1 C4.02 1 2.04 1 0 1 C0 0.67 0 0.34 0 0 Z " fill="#262626" transform="translate(80,198)"/>
<path d="M0 0 C1.65 0 3.3 0 5 0 C5 0.33 5 0.66 5 1 C3.35 1 1.7 1 0 1 C0 0.67 0 0.34 0 0 Z " fill="#262626" transform="translate(118,197)"/>
<path d="M0 0 C1.65 0 3.3 0 5 0 C5 0.33 5 0.66 5 1 C3.35 1 1.7 1 0 1 C0 0.67 0 0.34 0 0 Z " fill="#262626" transform="translate(75,197)"/>
<path d="M0 0 C1.65 0 3.3 0 5 0 C5 0.33 5 0.66 5 1 C3.35 1 1.7 1 0 1 C0 0.67 0 0.34 0 0 Z " fill="#262626" transform="translate(117,0)"/>
<path d="M0 0 C1.65 0 3.3 0 5 0 C5 0.33 5 0.66 5 1 C3.35 1 1.7 1 0 1 C0 0.67 0 0.34 0 0 Z " fill="#262626" transform="translate(76,0)"/>
<path d="M0 0 C4 1 4 1 4 1 Z " fill="#262626" transform="translate(123,196)"/>
<path d="M0 0 C4 1 4 1 4 1 Z " fill="#262626" transform="translate(68,195)"/>
<path d="M0 0 C4 1 4 1 4 1 Z " fill="#262626" transform="translate(69,2)"/>
<path d="M0 0 C4 1 4 1 4 1 Z " fill="#262626" transform="translate(122,1)"/>
<path d="M0 0 C3 1 3 1 3 1 Z " fill="#262626" transform="translate(72,196)"/>
<path d="M0 0 C3 1 3 1 3 1 Z " fill="#262626" transform="translate(127,195)"/>
<path d="M0 0 C3 1 3 1 3 1 Z " fill="#262626" transform="translate(130,194)"/>
<path d="M0 0 C3 1 3 1 3 1 Z " fill="#262626" transform="translate(65,194)"/>
<path d="M0 0 C3 1 3 1 3 1 Z " fill="#262626" transform="translate(135,192)"/>
<path d="M0 0 C3 1 3 1 3 1 Z " fill="#262626" transform="translate(60,192)"/>
<path d="" fill="#262626" transform="translate(0,0)"/>
<path d="" fill="#262626" transform="translate(0,0)"/>
<path d="" fill="#262626" transform="translate(0,0)"/>
<path d="" fill="#262626" transform="translate(0,0)"/>
<path d="" fill="#262626" transform="translate(0,0)"/>
<path d="" fill="#262626" transform="translate(0,0)"/>
<path d="M0 0 C3 1 3 1 3 1 Z " fill="#262626" transform="translate(137,6)"/>
<path d="M0 0 C3 1 3 1 3 1 Z " fill="#262626" transform="translate(132,4)"/>
<path d="M0 0 C3 1 3 1 3 1 Z " fill="#262626" transform="translate(63,4)"/>
<path d="M0 0 C3 1 3 1 3 1 Z " fill="#262626" transform="translate(129,3)"/>
<path d="M0 0 C3 1 3 1 3 1 Z " fill="#262626" transform="translate(66,3)"/>
<path d="M0 0 C3 1 3 1 3 1 Z " fill="#262626" transform="translate(126,2)"/>
<path d="M0 0 C3 1 3 1 3 1 Z " fill="#262626" transform="translate(73,1)"/>
<path d="M0 0 C2 1 2 1 2 1 Z " fill="#262626" transform="translate(133,193)"/>
<path d="M0 0 C2 1 2 1 2 1 Z " fill="#262626" transform="translate(63,193)"/>
<path d="M0 0 C2 1 2 1 2 1 Z " fill="#262626" transform="translate(138,191)"/>
<path d="M0 0 C2 1 2 1 2 1 Z " fill="#262626" transform="translate(58,191)"/>
<path d="M0 0 C2 1 2 1 2 1 Z " fill="#262626" transform="translate(140,190)"/>
<path d="M0 0 C2 1 2 1 2 1 Z " fill="#262626" transform="translate(56,190)"/>
<path d="M0 0 C2 1 2 1 2 1 Z " fill="#262626" transform="translate(142,189)"/>
<path d="M0 0 C2 1 2 1 2 1 Z " fill="#262626" transform="translate(54,189)"/>
<path d="M0 0 C2 1 2 1 2 1 Z " fill="#262626" transform="translate(144,188)"/>
<path d="M0 0 C2 1 2 1 2 1 Z " fill="#262626" transform="translate(52,188)"/>
<path d="M0 0 C2 1 2 1 2 1 Z " fill="#262626" transform="translate(146,187)"/>
<path d="M0 0 C2 1 2 1 2 1 Z " fill="#262626" transform="translate(50,187)"/>
<path d="M0 0 C2 1 2 1 2 1 Z " fill="#262626" transform="translate(148,186)"/>
<path d="M0 0 C2 1 2 1 2 1 Z " fill="#262626" transform="translate(47,185)"/>
<path d="M0 0 C2 1 2 1 2 1 Z " fill="#262626" transform="translate(151,184)"/>
<path d="M0 0 C2 1 2 1 2 1 Z " fill="#262626" transform="translate(45,184)"/>
<path d="M0 0 C2 1 2 1 2 1 Z " fill="#262626" transform="translate(154,182)"/>
<path d="M0 0 C2 1 2 1 2 1 Z " fill="#262626" transform="translate(42,182)"/>
<path d="M0 0 C2 1 2 1 2 1 Z " fill="#262626" transform="translate(157,180)"/>
<path d="M0 0 C2 1 2 1 2 1 Z " fill="#262626" transform="translate(38,179)"/>
<path d="M0 0 C2 1 2 1 2 1 Z " fill="#262626" transform="translate(162,176)"/>
<path d="M0 0 C2 1 2 1 2 1 Z " fill="#262626" transform="translate(32,174)"/>
<path d="" fill="#262626" transform="translate(0,0)"/>
<path d="" fill="#262626" transform="translate(0,0)"/>
<path d="" fill="#262626" transform="translate(0,0)"/>
<path d="" fill="#262626" transform="translate(0,0)"/>
<path d="" fill="#262626" transform="translate(0,0)"/>
<path d="" fill="#262626" transform="translate(0,0)"/>
<path d="" fill="#262626" transform="translate(0,0)"/>
<path d="" fill="#262626" transform="translate(0,0)"/>
<path d="M0 0 C2 1 2 1 2 1 Z " fill="#262626" transform="translate(164,23)"/>
<path d="M0 0 C2 1 2 1 2 1 Z " fill="#262626" transform="translate(37,19)"/>
<path d="M0 0 C2 1 2 1 2 1 Z " fill="#262626" transform="translate(158,18)"/>
<path d="M0 0 C2 1 2 1 2 1 Z " fill="#262626" transform="translate(155,16)"/>
<path d="M0 0 C2 1 2 1 2 1 Z " fill="#262626" transform="translate(41,16)"/>
<path d="M0 0 C2 1 2 1 2 1 Z " fill="#262626" transform="translate(152,14)"/>
<path d="M0 0 C2 1 2 1 2 1 Z " fill="#262626" transform="translate(44,14)"/>
<path d="M0 0 C2 1 2 1 2 1 Z " fill="#262626" transform="translate(149,12)"/>
<path d="M0 0 C2 1 2 1 2 1 Z " fill="#262626" transform="translate(47,12)"/>
<path d="M0 0 C2 1 2 1 2 1 Z " fill="#262626" transform="translate(147,11)"/>
<path d="M0 0 C2 1 2 1 2 1 Z " fill="#262626" transform="translate(49,11)"/>
<path d="M0 0 C2 1 2 1 2 1 Z " fill="#262626" transform="translate(51,10)"/>
<path d="M0 0 C2 1 2 1 2 1 Z " fill="#262626" transform="translate(144,9)"/>
<path d="M0 0 C2 1 2 1 2 1 Z " fill="#262626" transform="translate(53,9)"/>
<path d="M0 0 C2 1 2 1 2 1 Z " fill="#262626" transform="translate(142,8)"/>
<path d="M0 0 C2 1 2 1 2 1 Z " fill="#262626" transform="translate(55,8)"/>
<path d="M0 0 C2 1 2 1 2 1 Z " fill="#262626" transform="translate(140,7)"/>
<path d="M0 0 C2 1 2 1 2 1 Z " fill="#262626" transform="translate(57,7)"/>
<path d="M0 0 C2 1 2 1 2 1 Z " fill="#262626" transform="translate(59,6)"/>
<path d="M0 0 C2 1 2 1 2 1 Z " fill="#262626" transform="translate(135,5)"/>
<path d="M0 0 C2 1 2 1 2 1 Z " fill="#262626" transform="translate(61,5)"/>
<path d="" fill="#262626" transform="translate(0,0)"/>
<path d="" fill="#262626" transform="translate(0,0)"/>
<path d="" fill="#262626" transform="translate(0,0)"/>
<path d="" fill="#262626" transform="translate(0,0)"/>
<path d="" fill="#262626" transform="translate(0,0)"/>
<path d="" fill="#262626" transform="translate(0,0)"/>
<path d="" fill="#262626" transform="translate(0,0)"/>
<path d="" fill="#262626" transform="translate(0,0)"/>
<path d="" fill="#262626" transform="translate(0,0)"/>
<path d="" fill="#262626" transform="translate(0,0)"/>
<path d="" fill="#262626" transform="translate(0,0)"/>
<path d="" fill="#262626" transform="translate(0,0)"/>
<path d="" fill="#262626" transform="translate(0,0)"/>
<path d="" fill="#262626" transform="translate(0,0)"/>
<path d="" fill="#262626" transform="translate(0,0)"/>
<path d="" fill="#262626" transform="translate(0,0)"/>
<path d="" fill="#262626" transform="translate(0,0)"/>
<path d="" fill="#262626" transform="translate(0,0)"/>
<path d="" fill="#262626" transform="translate(0,0)"/>
<path d="" fill="#262626" transform="translate(0,0)"/>
<path d="" fill="#262626" transform="translate(0,0)"/>
<path d="" fill="#262626" transform="translate(0,0)"/>
<path d="" fill="#262626" transform="translate(0,0)"/>
<path d="" fill="#262626" transform="translate(0,0)"/>
<path d="" fill="#262626" transform="translate(0,0)"/>
<path d="" fill="#262626" transform="translate(0,0)"/>
<path d="" fill="#262626" transform="translate(0,0)"/>
<path d="" fill="#262626" transform="translate(0,0)"/>
<path d="" fill="#262626" transform="translate(0,0)"/>
<path d="" fill="#262626" transform="translate(0,0)"/>
<path d="" fill="#262626" transform="translate(0,0)"/>
<path d="" fill="#262626" transform="translate(0,0)"/>
<path d="" fill="#262626" transform="translate(0,0)"/>
<path d="" fill="#262626" transform="translate(0,0)"/>
<path d="" fill="#262626" transform="translate(0,0)"/>
<path d="" fill="#262626" transform="translate(0,0)"/>
<path d="" fill="#262626" transform="translate(0,0)"/>
<path d="" fill="#262626" transform="translate(0,0)"/>
<path d="" fill="#262626" transform="translate(0,0)"/>
<path d="" fill="#262626" transform="translate(0,0)"/>
<path d="" fill="#262626" transform="translate(0,0)"/>
<path d="" fill="#262626" transform="translate(0,0)"/>
<path d="" fill="#262626" transform="translate(0,0)"/>
<path d="" fill="#262626" transform="translate(0,0)"/>
<path d="" fill="#262626" transform="translate(0,0)"/>
<path d="" fill="#262626" transform="translate(0,0)"/>
<path d="" fill="#262626" transform="translate(0,0)"/>
<path d="" fill="#262626" transform="translate(0,0)"/>
<path d="" fill="#262626" transform="translate(0,0)"/>
<path d="" fill="#262626" transform="translate(0,0)"/>
<path d="" fill="#262626" transform="translate(0,0)"/>
<path d="" fill="#262626" transform="translate(0,0)"/>
<path d="" fill="#262626" transform="translate(0,0)"/>
<path d="" fill="#262626" transform="translate(0,0)"/>
<path d="" fill="#262626" transform="translate(0,0)"/>
<path d="" fill="#262626" transform="translate(0,0)"/>
<path d="" fill="#262626" transform="translate(0,0)"/>
<path d="" fill="#262626" transform="translate(0,0)"/>
<path d="" fill="#262626" transform="translate(0,0)"/>
<path d="" fill="#262626" transform="translate(0,0)"/>
<path d="" fill="#262626" transform="translate(0,0)"/>
<path d="" fill="#262626" transform="translate(0,0)"/>
<path d="" fill="#262626" transform="translate(0,0)"/>
<path d="" fill="#262626" transform="translate(0,0)"/>
</svg>
