<?xml version="1.0" encoding="UTF-8"?>
<svg version="1.1" xmlns="http://www.w3.org/2000/svg" width="64" height="64">
<path d="M0 0 C21.12 0 42.24 0 64 0 C64 21.12 64 42.24 64 64 C42.88 64 21.76 64 0 64 C0 42.88 0 21.76 0 0 Z " fill="#FBFBFB" transform="translate(0,0)"/>
<path d="M0 0 C4.88309353 1.47972531 9.13204005 3.71525747 12 8 C12.87990216 12.98649169 12.65774023 17.83147096 12.4375 22.875 C12.293125 27.53625 12.14875 32.1975 12 37 C-5.82 37 -23.64 37 -42 37 C-33.625 11.875 -33.625 11.875 -23.6875 6.0625 C-22.800625 5.711875 -21.91375 5.36125 -21 5 C-20.484375 5.495 -19.96875 5.99 -19.4375 6.5 C-16.00402262 8.61290915 -13.99976632 8.45898958 -10 8 C-6.80721481 6.9941953 -3.75746764 5.91720926 -1 4 C-0.18677881 1.94007442 -0.18677881 1.94007442 0 0 Z " fill="#161732" transform="translate(52,27)"/>
<path d="M0 0 C0.86625 0.33 1.7325 0.66 2.625 1 C7.61353111 2.495535 12.6492794 1.95832723 17.79296875 1.6796875 C21 2 21 2 23.42578125 3.7578125 C25 6 25 6 25 10 C26.32 9.01 27.64 8.02 29 7 C30.98 10.96 32.96 14.92 35 19 C30.33322046 23.66677954 26.89321878 25.70577436 20.3125 26.375 C17 26 17 26 15.37109375 24.58203125 C11.77707895 22.18404773 7.97242829 21.91617529 3.75 21.3125 C2.90953125 21.18294922 2.0690625 21.05339844 1.203125 20.91992188 C-0.86302567 20.60295558 -2.93133006 20.30008484 -5 20 C-6.125 12.375 -6.125 12.375 -5 9 C-6.32 9.33 -7.64 9.66 -9 10 C-7.51559252 5.2993763 -7.51559252 5.2993763 -5.0625 3.875 C-4.381875 3.58625 -3.70125 3.2975 -3 3 C-1.29078411 1.4587688 -1.29078411 1.4587688 0 0 Z " fill="#E7C0B2" transform="translate(18,10)"/>
<path d="M0 0 C0.33 0.99 0.66 1.98 1 3 C1.825 3.804375 2.65 4.60875 3.5 5.4375 C8.17517883 10.2295583 7 12.84550317 7 20 C1.72 20 -3.56 20 -9 20 C-6.86233829 12.755702 -3.77315981 6.53281715 0 0 Z " fill="#15172E" transform="translate(19,44)"/>
<path d="M0 0 C1.40907283 2.81814566 0.50872691 4.17277204 -0.4375 7.125 C-0.72496094 8.03507812 -1.01242188 8.94515625 -1.30859375 9.8828125 C-1.53675781 10.58148438 -1.76492187 11.28015625 -2 12 C-3.65 11.01 -5.3 10.02 -7 9 C-7.99 10.32 -8.98 11.64 -10 13 C-14 7.25 -14 7.25 -14 5 C-13.07316406 4.72285156 -12.14632812 4.44570313 -11.19140625 4.16015625 C-9.99386719 3.79792969 -8.79632813 3.43570313 -7.5625 3.0625 C-6.36753906 2.70285156 -5.17257813 2.34320313 -3.94140625 1.97265625 C-1.14132455 1.29110858 -1.14132455 1.29110858 0 0 Z " fill="#83180F" transform="translate(51,33)"/>
<path d="M0 0 C2.97 0 5.94 0 9 0 C8.67 1.98 8.34 3.96 8 6 C4.625 6.125 4.625 6.125 1 6 C0.34 5.34 -0.32 4.68 -1 4 C-0.67 2.68 -0.34 1.36 0 0 Z " fill="#2D607C" transform="translate(29,52)"/>
<path d="M0 0 C0.33 0.99 0.66 1.98 1 3 C2.2375 4.2065625 2.2375 4.2065625 3.5 5.4375 C7.06743138 9.09411716 7.02806241 11.35125314 7.0625 16.25 C7.041875 17.4875 7.02125 18.725 7 20 C6.34 20 5.68 20 5 20 C4.96132813 18.98679687 4.96132813 18.98679687 4.921875 17.953125 C4.65678272 12.24236068 4.65678272 12.24236068 1.9375 7.375 C0.9784375 6.694375 0.9784375 6.694375 0 6 C-0.99 6.33 -1.98 6.66 -3 7 C-1.125 1.125 -1.125 1.125 0 0 Z " fill="#090A19" transform="translate(19,44)"/>
<path d="M0 0 C1.98 0.99 1.98 0.99 4 2 C4.125 9.75 4.125 9.75 3 12 C2.34 12 1.68 12 1 12 C0.03929566 9.11788698 -0.10581883 7.30149956 -0.0625 4.3125 C-0.05347656 3.50425781 -0.04445312 2.69601563 -0.03515625 1.86328125 C-0.02355469 1.24839844 -0.01195312 0.63351563 0 0 Z " fill="#900E04" transform="translate(43,41)"/>
<path d="M0 0 C-0.66 1.32 -1.32 2.64 -2 4 C-4.31 4 -6.62 4 -9 4 C-9 3.01 -9 2.02 -9 1 C-6.04335481 -0.4783226 -3.25770263 -0.06032783 0 0 Z " fill="#3E4384" transform="translate(37,60)"/>
<path d="M0 0 C1.40907283 2.81814566 0.50872691 4.17277204 -0.4375 7.125 C-0.72496094 8.03507812 -1.01242188 8.94515625 -1.30859375 9.8828125 C-1.53675781 10.58148438 -1.76492187 11.28015625 -2 12 C-2.99 11.34 -3.98 10.68 -5 10 C-3.375 2.25 -3.375 2.25 0 0 Z " fill="#F1F1F1" transform="translate(51,33)"/>
<path d="M0 0 C1.32 0 2.64 0 4 0 C5.125 2.3125 5.125 2.3125 6 5 C5.01 6.485 5.01 6.485 4 8 C0 2.25 0 2.25 0 0 Z " fill="#F1F1F0" transform="translate(37,38)"/>
<path d="M0 0 C0 3 0 3 -1.75 5.04296875 C-2.4925 5.75066406 -3.235 6.45835938 -4 7.1875 C-4.7425 7.90292969 -5.485 8.61835937 -6.25 9.35546875 C-6.8275 9.89816406 -7.405 10.44085938 -8 11 C-8 6.92453987 -6.44695552 5.19463638 -4 2 C-1.75 0.625 -1.75 0.625 0 0 Z " fill="#131321" transform="translate(29,33)"/>
<path d="M0 0 C0.515625 0.309375 1.03125 0.61875 1.5625 0.9375 C4.66665423 2.29059287 7.65115007 2.61359424 11 3 C10.67 3.66 10.34 4.32 10 5 C8.68 5 7.36 5 6 5 C5.67 5.66 5.34 6.32 5 7 C3.35 4.69 1.7 2.38 0 0 Z " fill="#0C070C" transform="translate(31,33)"/>
<path d="M0 0 C0.33 0 0.66 0 1 0 C1 1.65 1 3.3 1 5 C-5.96428571 7.27678571 -5.96428571 7.27678571 -10 6 C-9.36191406 5.73445313 -8.72382812 5.46890625 -8.06640625 5.1953125 C-7.24011719 4.84210937 -6.41382813 4.48890625 -5.5625 4.125 C-4.73878906 3.77695312 -3.91507813 3.42890625 -3.06640625 3.0703125 C-0.84253285 2.1755063 -0.84253285 2.1755063 0 0 Z " fill="#120D10" transform="translate(52,29)"/>
</svg>
