<?xml version="1.0" encoding="UTF-8"?>
<svg version="1.1" xmlns="http://www.w3.org/2000/svg" width="64" height="64">
<path d="M0 0 C8.04071716 5.46768767 14.35713546 11.78672485 16.953125 21.328125 C17.97008074 32.73931439 17.08780568 41.52074309 9.640625 50.578125 C3.75028057 56.89640044 -1.9995096 60.87830798 -10.81640625 61.6640625 C-22.23808647 61.92046185 -29.76998744 60.10045244 -38.2578125 52.1875 C-45.41707366 44.7468705 -47.46537447 37.63799487 -47.41040039 27.37304688 C-47.154444 17.46241552 -43.06295379 11.07888989 -36.046875 4.328125 C-26.55128048 -3.80505814 -11.27874483 -6.1129075 0 0 Z " fill="#558530" transform="translate(47.046875,2.671875)"/>
<path d="M0 0 C0.495 0.99 0.495 0.99 1 2 C2.32 2 3.64 2 5 2 C5.33 1.34 5.66 0.68 6 0 C8.72351445 5.44702889 7.71806495 14.92443264 6.3515625 20.77734375 C3.08026111 28.73191849 -3.41575843 35.91495966 -11 40 C-18.9498579 43.23461267 -30.03556066 43.69649214 -38.0625 40.375 C-42.17844955 38.17455005 -45.65202093 35.2295618 -49 32 C-48.505 30.515 -48.505 30.515 -48 29 C-47.154375 29.04125 -46.30875 29.0825 -45.4375 29.125 C-37.5333276 28.83757555 -30.78249793 25.35355427 -24.1875 21.25 C-20.17905991 19.67806271 -16.84871157 19.81307935 -12.5859375 19.9921875 C-10.11609707 19.99964925 -8.29802688 19.89311962 -6 19 C-3.5705484 15.3558226 -3.83820425 13.28758728 -4 9 C-3.34 9 -2.68 9 -2 9 C-1.855625 7.700625 -1.71125 6.40125 -1.5625 5.0625 C-1.125 1.125 -1.125 1.125 0 0 Z " fill="#55852E" transform="translate(57,22)"/>
<path d="M0 0 C1.32380952 5.2952381 1.32380952 5.2952381 -0.0625 8.3125 C-3.70259891 11.48290873 -7.80030361 11.00968519 -12.375 10.8125 C-17.40165758 10.74491469 -20.75484204 12.46923276 -25 15 C-30.08731301 18.03073967 -34.17633495 18.79564304 -40 18 C-42.5625 16.875 -42.5625 16.875 -44 15 C-44.4375 11.9375 -44.4375 11.9375 -44 9 C-40.49310001 6.66206668 -39.40303453 6.88407223 -35.3125 7.125 C-31.27739767 7.20695548 -28.59419804 7.16207972 -25.125 5.0625 C-20.404175 2.21802828 -15.46702056 2.42501896 -10.07421875 2.2734375 C-5.92390802 1.90428661 -4.35984777 0 0 0 Z " fill="#2C2C09" transform="translate(53,32)"/>
<path d="M0 0 C1.34208375 2.68416751 1 4.98879642 1 8 C2.65 8 4.3 8 6 8 C6.495 8.99 6.495 8.99 7 10 C4.24921116 10.91692961 2.64051087 11.10886083 -0.1875 11.0625 C-2.0746875 11.0315625 -2.0746875 11.0315625 -4 11 C-4 9.35 -4 7.7 -4 6 C-4.66 6 -5.32 6 -6 6 C-6 6.99 -6 7.98 -6 9 C-6.66 9 -7.32 9 -8 9 C-8 8.34 -8 7.68 -8 7 C-10.05990478 8.29467677 -10.05990478 8.29467677 -12 10 C-12 10.99 -12 11.98 -12 13 C-15.67410785 14.17571451 -19.16929183 14.07366746 -23 14 C-21.68 13.67 -20.36 13.34 -19 13 C-19.66 10.03 -20.32 7.06 -21 4 C-22.65 3.67 -24.3 3.34 -26 3 C-26 3.66 -26 4.32 -26 5 C-26.99 5.495 -26.99 5.495 -28 6 C-29.13350534 8.01669827 -29.13350534 8.01669827 -30 10 C-30.75 8.25 -30.75 8.25 -31 6 C-29.14944202 3.76656796 -27.59616917 2.29808458 -25 1 C-19.01248208 0.4489364 -15.0920609 0.65378855 -10 4 C-6.01258575 3.80062929 -3.29530306 2.16548487 0 0 Z " fill="#030906" transform="translate(39,22)"/>
<path d="M0 0 C0.35904616 4.42823593 0.35904616 4.42823593 -1.03515625 6.6484375 C-4.02166963 8.70277871 -7.12776652 8.31570847 -10.625 8.3125 C-17.12076178 8.48099472 -20.85685271 9.50467696 -26.046875 13.625 C-29.35208794 15.95186991 -31.99351198 16 -36 16 C-38.9375 15.3125 -38.9375 15.3125 -41 14 C-41.8125 11.875 -41.8125 11.875 -42 10 C-40.515 10.99 -40.515 10.99 -39 12 C-32.33327966 13.13084408 -27.70982637 11.3220808 -22 8 C-22.64066406 8.30035156 -23.28132813 8.60070313 -23.94140625 8.91015625 C-29.52007281 11.36277419 -33.0522071 12.55159815 -39 11 C-39.33 10.01 -39.66 9.02 -40 8 C-38.82244141 8.06960937 -38.82244141 8.06960937 -37.62109375 8.140625 C-31.72656546 8.3431364 -28.06261643 8.46370224 -23.1171875 4.9453125 C-18.92230648 3.07232134 -13.95857216 3.44853842 -9.42578125 3.37109375 C-5.54379755 2.9505824 -3.49875868 0 0 0 Z " fill="#694738" transform="translate(52,33)"/>
<path d="M0 0 C0.62347659 8.26106479 0.62347659 8.26106479 -1.6875 11 C-7.21698325 13.39112789 -10.46295214 12.84568262 -16 11 C-15.67 9.68 -15.34 8.36 -15 7 C-16.32 6.67 -17.64 6.34 -19 6 C-17.68 5.67 -16.36 5.34 -15 5 C-14.938125 4.38125 -14.87625 3.7625 -14.8125 3.125 C-14 1 -14 1 -11.875 -0.25 C-7.87920276 -1.29238189 -3.78857119 -1.89428559 0 0 Z " fill="#284217" transform="translate(55,19)"/>
<path d="M0 0 C3.96 0 7.92 0 12 0 C12 0.33 12 0.66 12 1 C9.69 1 7.38 1 5 1 C5.66 3.97 6.32 6.94 7 10 C4.03 10 1.06 10 -2 10 C-2.66 8.68 -3.32 7.36 -4 6 C-3.125 3.75 -3.125 3.75 -2 2 C-1.34 2 -0.68 2 0 2 C0 1.34 0 0.68 0 0 Z " fill="#253B1C" transform="translate(13,25)"/>
<path d="M0 0 C1.34208375 2.68416751 1 4.98879642 1 8 C2.65 8 4.3 8 6 8 C6.33 8.66 6.66 9.32 7 10 C4.24921116 10.91692961 2.64051087 11.10886083 -0.1875 11.0625 C-2.0746875 11.0315625 -2.0746875 11.0315625 -4 11 C-4 9.35 -4 7.7 -4 6 C-4.66 6 -5.32 6 -6 6 C-6 6.99 -6 7.98 -6 9 C-6.66 9 -7.32 9 -8 9 C-8 8.34 -8 7.68 -8 7 C-8.66 6.67 -9.32 6.34 -10 6 C-6.66666667 4 -3.33333333 2 0 0 Z " fill="#091104" transform="translate(39,22)"/>
<path d="M0 0 C0.66 0 1.32 0 2 0 C2.33 1.65 2.66 3.3 3 5 C5.31 5.33 7.62 5.66 10 6 C10 6.33 10 6.66 10 7 C8.93072266 7.09087891 8.93072266 7.09087891 7.83984375 7.18359375 C2.53039712 7.64808101 -2.733409 8.18075251 -8 9 C-8 8.34 -8 7.68 -8 7 C-7.34 6.67 -6.68 6.34 -6 6 C-6 5.01 -6 4.02 -6 3 C-4.68 2.34 -3.36 1.68 -2 1 C-2 1.66 -2 2.32 -2 3 C-1.34 3 -0.68 3 0 3 C0 2.01 0 1.02 0 0 Z " fill="#5B7A43" transform="translate(33,28)"/>
<path d="M0 0 C2.92908678 1.07493729 5.29813463 2.39889459 8 4 C7.01 4.33 6.02 4.66 5 5 C4.67 5.66 4.34 6.32 4 7 C4 6.34 4 5.68 4 5 C0.7 4.67 -2.6 4.34 -6 4 C-6 3.67 -6 3.34 -6 3 C-7.65 2.67 -9.3 2.34 -11 2 C-11 2.66 -11 3.32 -11 4 C-11.99 4.495 -11.99 4.495 -13 5 C-14.13350534 7.01669827 -14.13350534 7.01669827 -15 9 C-15.75 7.25 -15.75 7.25 -16 5 C-11.39572491 -0.55688373 -6.89089694 -0.77121957 0 0 Z " fill="#1E440C" transform="translate(24,23)"/>
<path d="M0 0 C0.99 0.33 1.98 0.66 3 1 C-6.51372259 6.5321244 -6.51372259 6.5321244 -11.125 5.8125 C-12.07375 5.544375 -13.0225 5.27625 -14 5 C-14.33 4.01 -14.66 3.02 -15 2 C-13.75283203 2.03480469 -13.75283203 2.03480469 -12.48046875 2.0703125 C-11.39378906 2.08835938 -10.30710937 2.10640625 -9.1875 2.125 C-8.10855469 2.14820313 -7.02960937 2.17140625 -5.91796875 2.1953125 C-2.80597132 2.23023717 -2.80597132 2.23023717 0 0 Z " fill="#704B2E" transform="translate(27,39)"/>
<path d="M0 0 C1.485 0.99 1.485 0.99 3 2 C6.20379124 2.24246783 6.20379124 2.24246783 9.6875 2.125 C10.86699219 2.10695312 12.04648437 2.08890625 13.26171875 2.0703125 C14.16535156 2.04710937 15.06898437 2.02390625 16 2 C14 5 14 5 10.1875 5.8125 C6.63449344 6.12258057 4.0918872 5.96756458 1 4 C0.1875 1.875 0.1875 1.875 0 0 Z " fill="#6D4833" transform="translate(10,43)"/>
<path d="M0 0 C0.66 0 1.32 0 2 0 C1 3 1 3 -0.578125 4.1796875 C-3.9625144 5.32601294 -7.22395529 5.21165138 -10.75 5.125 C-11.44738281 5.11597656 -12.14476562 5.10695313 -12.86328125 5.09765625 C-14.57566958 5.07419888 -16.28788004 5.03833104 -18 5 C-17.67 4.34 -17.34 3.68 -17 3 C-14.4966352 2.73991015 -12.07238169 2.57879592 -9.5625 2.5 C-4.2965085 2.61007058 -4.2965085 2.61007058 0 0 Z " fill="#3C2111" transform="translate(49,35)"/>
<path d="M0 0 C0 1.32 0 2.64 0 4 C-2.31 4.66 -4.62 5.32 -7 6 C-7.33 4.02 -7.66 2.04 -8 0 C-5.13822943 -1.43088528 -3.06624227 -0.59991697 0 0 Z " fill="#D4DAD5" transform="translate(53,24)"/>
<path d="M0 0 C0.66 0.33 1.32 0.66 2 1 C2.625 4.0625 2.625 4.0625 3 7 C0.69 7 -1.62 7 -4 7 C-4 3 -4 3 -3 1 C-2.01 0.67 -1.02 0.34 0 0 Z " fill="#686F69" transform="translate(44,24)"/>
<path d="M0 0 C3.96 0 7.92 0 12 0 C12 0.33 12 0.66 12 1 C10.948125 1.0825 9.89625 1.165 8.8125 1.25 C4.68154455 2.06264697 3.12267599 3.31102901 0 6 C-0.99 6 -1.98 6 -3 6 C-2.67 4.68 -2.34 3.36 -2 2 C-1.34 2 -0.68 2 0 2 C0 1.34 0 0.68 0 0 Z " fill="#547539" transform="translate(13,25)"/>
<path d="M0 0 C0.66 0.33 1.32 0.66 2 1 C-8.54183267 7.05179283 -8.54183267 7.05179283 -16 6 C-18.0625 4 -18.0625 4 -19 2 C-18.01 2 -17.02 2 -16 2 C-16 2.66 -16 3.32 -16 4 C-10.38833215 4.47758875 -6.92221885 3.33545439 -1.91796875 0.77734375 C-1.28503906 0.52082031 -0.65210937 0.26429687 0 0 Z " fill="#41200D" transform="translate(29,40)"/>
<path d="M0 0 C0.33 0.99 0.66 1.98 1 3 C-5.67216405 6.75510682 -10.49118208 7.44219467 -18 6 C-18 5.67 -18 5.34 -18 5 C-16.95199219 4.80664062 -15.90398438 4.61328125 -14.82421875 4.4140625 C-13.44524407 4.15140066 -12.06634151 3.88836 -10.6875 3.625 C-9.99720703 3.49867187 -9.30691406 3.37234375 -8.59570312 3.2421875 C-5.16296686 2.57885682 -2.94753542 1.96502361 0 0 Z " fill="#567539" transform="translate(54,28)"/>
<path d="M0 0 C0.763125 0.61875 1.52625 1.2375 2.3125 1.875 C4.99625809 4.05597052 4.99625809 4.05597052 8 6 C7 7 7 7 4.125 7.0625 C2.578125 7.0315625 2.578125 7.0315625 1 7 C0.01 7 -0.98 7 -2 7 C-1.34 4.69 -0.68 2.38 0 0 Z " fill="#5B8038" transform="translate(8,45)"/>
<path d="M0 0 C0.66 0 1.32 0 2 0 C2.33 1.65 2.66 3.3 3 5 C-1.1205746 6.99785435 -4.45194365 7.17835515 -9 7 C-6.35261084 5.5393715 -5.10551666 5 -2 5 C-1.34 3.35 -0.68 1.7 0 0 Z " fill="#1E291A" transform="translate(25,29)"/>
<path d="M0 0 C0.33 0.99 0.66 1.98 1 3 C-0.010625 2.7525 -1.02125 2.505 -2.0625 2.25 C-6.01949955 1.99876193 -6.59435995 2.04502837 -9.6875 4 C-13 6 -13 6 -15.20703125 5.625 C-15.79871094 5.41875 -16.39039063 5.2125 -17 5 C-11.18524285 1.72408048 -6.75479274 -0.7342166 0 0 Z " fill="#4F6C35" transform="translate(53,20)"/>
<path d="M0 0 C0.66 0 1.32 0 2 0 C2 1.65 2 3.3 2 5 C-0.76264289 5.59732819 -3.16032769 6 -6 6 C-6 5.01 -6 4.02 -6 3 C-4.68 2.34 -3.36 1.68 -2 1 C-2 1.66 -2 2.32 -2 3 C-1.34 3 -0.68 3 0 3 C0 2.01 0 1.02 0 0 Z " fill="#545B4E" transform="translate(33,28)"/>
<path d="M0 0 C0.66 1.98 1.32 3.96 2 6 C-0.3431213 5.74438677 -2.67843403 5.40729228 -5 5 C-5.33 4.34 -5.66 3.68 -6 3 C-2.25 0 -2.25 0 0 0 Z " fill="#ABB9AE" transform="translate(18,29)"/>
<path d="M0 0 C0 0.66 0 1.32 0 2 C0.99 2.33 1.98 2.66 3 3 C-1.61073111 4.29676812 -5.33840089 3.71109139 -10 3 C-7.14414946 0.14414946 -3.95889689 0 0 0 Z " fill="#54742F" transform="translate(25,35)"/>
<path d="M0 0 C0.33 0.66 0.66 1.32 1 2 C-3.75 6 -3.75 6 -6 6 C-6 6.99 -6 7.98 -6 9 C-6.66 9 -7.32 9 -8 9 C-8 8.34 -8 7.68 -8 7 C-8.66 6.67 -9.32 6.34 -10 6 C-6.66666667 4 -3.33333333 2 0 0 Z " fill="#142809" transform="translate(39,22)"/>
<path d="M0 0 C1.77049689 -0.05410687 3.54146849 -0.09284119 5.3125 -0.125 C6.29863281 -0.14820312 7.28476562 -0.17140625 8.30078125 -0.1953125 C11 0 11 0 14 2 C13.01 2 12.02 2 11 2 C10.67 2.66 10.34 3.32 10 4 C10 3.34 10 2.68 10 2 C6.7 1.67 3.4 1.34 0 1 C0 0.67 0 0.34 0 0 Z " fill="#253B1B" transform="translate(18,26)"/>
<path d="M0 0 C1.65 0 3.3 0 5 0 C4.01 0.33 3.02 0.66 2 1 C1.835 1.66 1.67 2.32 1.5 3 C1.335 3.66 1.17 4.32 1 5 C0.01 5.33 -0.98 5.66 -2 6 C-2.33 5.34 -2.66 4.68 -3 4 C-2.34 4 -1.68 4 -1 4 C-0.67 2.68 -0.34 1.36 0 0 Z " fill="#527C35" transform="translate(11,35)"/>
<path d="M0 0 C0.25 2.3125 0.25 2.3125 0 5 C-2 6.8125 -2 6.8125 -4 8 C-4.66 7.34 -5.32 6.68 -6 6 C-5.360625 5.71125 -4.72125 5.4225 -4.0625 5.125 C-1.84793921 4.17176549 -1.84793921 4.17176549 -1 2 C-1.99 1.67 -2.98 1.34 -4 1 C-2 0 -2 0 0 0 Z " fill="#60432D" transform="translate(52,33)"/>
<path d="M0 0 C0.66 0 1.32 0 2 0 C1.45276317 3.37462715 0.9451 5.08235 -1 8 C-1.66 8 -2.32 8 -3 8 C-2.5359375 7.13375 -2.5359375 7.13375 -2.0625 6.25 C-1.07416636 4.15705816 -0.4831387 2.25464725 0 0 Z " fill="#32330E" transform="translate(52,34)"/>
<path d="M0 0 C0.66 0.33 1.32 0.66 2 1 C1.34 2.32 0.68 3.64 0 5 C-0.99 5 -1.98 5 -3 5 C-2.625 3.0625 -2.625 3.0625 -2 1 C-1.34 0.67 -0.68 0.34 0 0 Z " fill="#5C7C3B" transform="translate(13,26)"/>
</svg>
