<?xml version="1.0" encoding="UTF-8"?>
<svg version="1.1" xmlns="http://www.w3.org/2000/svg" width="64" height="64">
<path d="M0 0 C6.18303003 4.85619955 9.90520665 11.15847186 12.0078125 18.6796875 C13.07225285 29.12605558 11.85330933 37.99230669 5.3828125 46.4296875 C-0.04814944 52.27628429 -7.14010659 56.30692058 -15.09375 56.91796875 C-25.49727733 57.13711179 -33.68490522 55.64533321 -41.4609375 48.3828125 C-48.48559836 40.5696693 -50.47915305 32.52214004 -50.3046875 22.15234375 C-49.86754887 17.29464073 -48.54062825 13.79701209 -45.9921875 9.6796875 C-45.5796875 8.98230469 -45.1671875 8.28492188 -44.7421875 7.56640625 C-40.73426686 1.52036688 -34.99028465 -2.62674239 -28.1015625 -4.9609375 C-17.96713297 -6.68754401 -8.61046546 -5.70654378 0 0 Z " fill="#65D7F8" transform="translate(50.9921875,6.3203125)"/>
<path d="M0 0 C7.2706622 5.71043426 10.61088398 12.67262602 12.0078125 21.6796875 C9.6978125 21.6796875 7.3878125 21.6796875 5.0078125 21.6796875 C4.6675 20.95523437 4.3271875 20.23078125 3.9765625 19.484375 C0.19291837 11.9372125 -3.75779623 6.42448459 -11.9921875 3.6796875 C-20.19757725 2.90243835 -27.45927257 2.47093259 -34.1875 7.828125 C-39.28700223 13.06008184 -42.05137084 18.54766922 -42.3046875 25.8671875 C-42.21853622 32.40391606 -39.78764026 37.49602874 -35.6796875 42.4921875 C-29.06481732 47.87638416 -24.89627706 49.4222769 -16.28515625 49.125 C-10.41534129 48.33121719 -5.44983976 46.27645215 -1.3359375 41.9296875 C0.79215939 39.05923124 2.56859891 35.95062747 4.0078125 32.6796875 C6.3178125 32.6796875 8.6278125 32.6796875 11.0078125 32.6796875 C10.65730095 39.51466271 6.96268151 44.8649463 2.11328125 49.484375 C-6.62213321 56.41067996 -14.91008166 57.78914466 -25.9921875 56.6796875 C-34.57112201 54.61934638 -40.98558974 50.02040618 -45.8046875 42.6796875 C-50.44626166 35.07574349 -50.77548507 27.38408175 -49.9921875 18.6796875 C-49.11577275 15.328397 -47.81026322 12.61701609 -45.9921875 9.6796875 C-45.5796875 8.98230469 -45.1671875 8.28492188 -44.7421875 7.56640625 C-40.73426686 1.52036688 -34.99028465 -2.62674239 -28.1015625 -4.9609375 C-17.96713297 -6.68754401 -8.61046546 -5.70654378 0 0 Z " fill="#0151ED" transform="translate(50.9921875,6.3203125)"/>
<path d="M0 0 C1.8125 1.125 1.8125 1.125 3 3 C3.1875 6.1875 3.1875 6.1875 3 9 C8.41143702 7.83416626 8.41143702 7.83416626 12.625 4.3125 C13.40875 3.549375 14.1925 2.78625 15 2 C17.8125 2.1875 17.8125 2.1875 20 3 C20 8 20 13 20 18 C19.34 18.33 18.68 18.66 18 19 C18.99 19.33 19.98 19.66 21 20 C22.18232605 22.54654842 22.02721306 23.88570517 21.375 26.625 C19.59476353 29.69995391 18.35692559 29.95241573 15 31 C9.97841188 31.59705991 4.42848475 32.24905936 -0.1796875 29.87890625 C-1.8125 28.5 -1.8125 28.5 -4 26 C-3.67 24.68 -3.34 23.36 -3 22 C0.96 21.505 0.96 21.505 5 21 C3.02 20.34 1.04 19.68 -1 19 C-0.125 14.125 -0.125 14.125 1 13 C3.33944736 13.28730055 5.6739143 13.61936779 8 14 C8 13.34 8 12.68 8 12 C6.20906809 11.91913853 4.41710372 11.86087298 2.625 11.8125 C1.62726562 11.77769531 0.62953125 11.74289063 -0.3984375 11.70703125 C-1.68621094 11.85205078 -1.68621094 11.85205078 -3 12 C-5.85379693 16.28069539 -5.74379118 19.97399355 -5 25 C-3.6393094 28.22393593 -1.95816234 31.10471711 0 34 C-3.31183996 32.81720001 -5.36287562 30.99266013 -7.21923828 27.99755859 C-8.92330319 23.63775276 -8.52665984 18.92292643 -8.4375 14.3125 C-8.44458984 13.26771484 -8.45167969 12.22292969 -8.45898438 11.14648438 C-8.39512469 3.51770834 -8.39512469 3.51770834 -6.62915039 1.20385742 C-4.30135748 -0.51626049 -2.82324954 -0.42348743 0 0 Z " fill="#02A3D0" transform="translate(25,14)"/>
<path d="M0 0 C0.66 0.33 1.32 0.66 2 1 C1.97905273 1.66531738 1.95810547 2.33063477 1.93652344 3.01611328 C1.85299391 6.05225302 1.80122397 9.08815043 1.75 12.125 C1.71648438 13.17171875 1.68296875 14.2184375 1.6484375 15.296875 C1.56945308 21.53664416 1.81851613 25.24232741 6 30 C6.08734957 28.66493251 6.08734957 28.66493251 4.5 26.5625 C2.59300223 22.03338029 2.18187329 17.86063514 3 13 C4.23828125 10.71484375 4.23828125 10.71484375 6 9 C8.19140625 8.57421875 8.19140625 8.57421875 10.5625 8.6875 C11.74005859 8.72423828 11.74005859 8.72423828 12.94140625 8.76171875 C15 9 15 9 17 10 C17 10.66 17 11.32 17 12 C14.69 12 12.38 12 10 12 C9.67 13.65 9.34 15.3 9 17 C11.31 17.33 13.62 17.66 16 18 C12.99382731 21.00617269 10.17618402 20.59585316 6 21 C6.34459029 23.49827963 6.78535443 24.77221286 8.53125 26.625 C12.03801647 28.57813575 15.35286416 28.32176528 19.25 28.1875 C19.99507812 28.17396484 20.74015625 28.16042969 21.5078125 28.14648438 C23.33885416 28.11127204 25.16952169 28.05746851 27 28 C24.94022052 31.03572262 23.74339658 32.75393158 20.203125 33.92578125 C19.22859375 34.05339844 18.2540625 34.18101563 17.25 34.3125 C16.26515625 34.45300781 15.2803125 34.59351563 14.265625 34.73828125 C13.51796875 34.82464844 12.7703125 34.91101562 12 35 C12 36.32 12 37.64 12 39 C12.66 39.33 13.32 39.66 14 40 C7.15648061 39.45251845 3.55303279 37.12752733 -1.625 32.8125 C-6.27601299 27.30472145 -8.70106088 21.46272735 -8.3203125 14.203125 C-7.55202727 8.91882172 -6.26176448 5.1737344 -2.3125 1.5 C-1.549375 1.005 -0.78625 0.51 0 0 Z " fill="#50C0E5" transform="translate(16,16)"/>
<path d="M0 0 C1.30453125 -0.02578125 2.6090625 -0.0515625 3.953125 -0.078125 C7.93091119 0.2656343 10.33935866 1.23750977 13.75 3.25 C13.42 4.9 13.09 6.55 12.75 8.25 C11.3578125 8.37375 11.3578125 8.37375 9.9375 8.5 C6.66893494 8.90085722 6.66893494 8.90085722 5.3125 11.25 C3.75 13.25 3.75 13.25 0.0625 14 C-1.030625 14.0825 -2.12375 14.165 -3.25 14.25 C-3.559375 13.115625 -3.86875 11.98125 -4.1875 10.8125 C-4.87924531 7.46224901 -4.87924531 7.46224901 -6.25 6.25 C-11.05119262 5.56411534 -13.46091228 7.47133567 -17.25 10.25 C-18.24 10.745 -18.24 10.745 -19.25 11.25 C-17.83590577 7.85470083 -16.22643772 6.19087183 -13.25 4.0625 C-12.198125 3.29873047 -12.198125 3.29873047 -11.125 2.51953125 C-7.34283059 -0.04131262 -4.56956201 0.05375955 0 0 Z " fill="#5FD9FC" transform="translate(31.25,8.75)"/>
<path d="M0 0 C7.41624871 1.71144201 13.70427154 6.61282773 17.9375 12.875 C20.29495198 17.02086382 21.27386615 21.31806233 22 26 C19.69 26 17.38 26 15 26 C14.63648438 25.26394531 14.27296875 24.52789063 13.8984375 23.76953125 C10.69365222 17.27130696 10.69365222 17.27130696 5.75 12.125 C1.48416285 8.8286713 0.88109703 5.13973267 0 0 Z " fill="#147BFF" transform="translate(41,2)"/>
<path d="M0 0 C1.17369141 0.05607422 1.17369141 0.05607422 2.37109375 0.11328125 C3.54865234 0.15001953 3.54865234 0.15001953 4.75 0.1875 C6.80859375 0.42578125 6.80859375 0.42578125 8.80859375 1.42578125 C8.80859375 2.08578125 8.80859375 2.74578125 8.80859375 3.42578125 C6.49859375 3.42578125 4.18859375 3.42578125 1.80859375 3.42578125 C1.47859375 5.07578125 1.14859375 6.72578125 0.80859375 8.42578125 C3.11859375 8.75578125 5.42859375 9.08578125 7.80859375 9.42578125 C4.80242106 12.43195394 1.98477777 12.02163441 -2.19140625 12.42578125 C-1.84681596 14.92406088 -1.40605182 16.19799411 0.33984375 18.05078125 C3.84661022 20.003917 7.16145791 19.74754653 11.05859375 19.61328125 C11.80367187 19.59974609 12.54875 19.58621094 13.31640625 19.57226562 C15.14744791 19.53705329 16.97811544 19.48324976 18.80859375 19.42578125 C15.02734375 24.32421875 15.02734375 24.32421875 13.05859375 25.23828125 C12.31609375 25.30015625 11.57359375 25.36203125 10.80859375 25.42578125 C9.50921875 25.54953125 8.20984375 25.67328125 6.87109375 25.80078125 C3.48192302 25.75038466 2.87215122 25.47380245 -0.00390625 23.30078125 C-4.25504449 17.71357099 -5.52507245 13.7234983 -5.58984375 6.79296875 C-4.97538648 3.14236968 -3.79573052 0.73749488 0 0 Z " fill="#0B96BB" transform="translate(24.19140625,24.57421875)"/>
<path d="M0 0 C8.25 0.33 16.5 0.66 25 1 C23 7 23 7 20.77734375 8.34765625 C15.13430054 9.67309678 8.12445469 10.60702239 2.8203125 7.87890625 C1.1875 6.5 1.1875 6.5 -1 4 C-0.67 2.68 -0.34 1.36 0 0 Z " fill="#B62E7C" transform="translate(22,36)"/>
<path d="M0 0 C1.8125 0.05078125 1.8125 0.05078125 4 0.3125 C4.721875 0.39113281 5.44375 0.46976563 6.1875 0.55078125 C7.0846875 0.77314453 7.0846875 0.77314453 8 1 C8.33 1.66 8.66 2.32 9 3 C9.99 2.34 10.98 1.68 12 1 C14.33199388 0.92094936 16.66832622 0.91201231 19 1 C19 2.32 19 3.64 19 5 C18.01 5.495 18.01 5.495 17 6 C17.99 6.33 18.98 6.66 20 7 C20.33 7.99 20.66 8.98 21 10 C15.72 10 10.44 10 5 10 C4.67 9.34 4.34 8.68 4 8 C2.02111039 7.27306096 0.02045442 6.60183749 -2 6 C-1.125 1.125 -1.125 1.125 0 0 Z " fill="#12A2C9" transform="translate(26,27)"/>
<path d="M0 0 C0.33 0.66 0.66 1.32 1 2 C3.52733235 2.65555119 3.52733235 2.65555119 6 3 C4.88820837 6.33537489 3.52588702 7.63707344 1 10 C1.66 10.33 2.32 10.66 3 11 C2.01 12.485 2.01 12.485 1 14 C-0.29315906 21.54115917 1.81390781 26.8105637 6 33 C2.69087332 31.81816904 0.63254777 29.9943853 -1.22363281 27.00195312 C-2.92131168 22.62429064 -2.48412092 17.87328092 -2.375 13.25 C-2.37371094 12.19683594 -2.37242188 11.14367187 -2.37109375 10.05859375 C-2.28123985 2.28123985 -2.28123985 2.28123985 0 0 Z " fill="#0D7693" transform="translate(19,15)"/>
<path d="M0 0 C8.03959739 3.63696073 13.07803726 8.15607453 17 16 C17.85011149 18.33450306 18.4434294 20.57132828 19 23 C18.34 23 17.68 23 17 23 C16.731875 22.030625 16.46375 21.06125 16.1875 20.0625 C15.795625 19.051875 15.40375 18.04125 15 17 C14.01 16.67 13.02 16.34 12 16 C7.22727273 11.68181818 7.22727273 11.68181818 6 8 C5.01 7.67 4.02 7.34 3 7 C3 6.34 3 5.68 3 5 C2.01 4.67 1.02 4.34 0 4 C0 2.68 0 1.36 0 0 Z " fill="#3989FF" transform="translate(44,3)"/>
<path d="M0 0 C2.8125 0.1875 2.8125 0.1875 5 1 C5 5 5 9 5 13 C2.36 13 -0.28 13 -3 13 C-3 12.01 -3 11.02 -3 10 C-1.68 9.34 -0.36 8.68 1 8 C-2.63 7.67 -6.26 7.34 -10 7 C-10 6.67 -10 6.34 -10 6 C-9.278125 5.938125 -8.55625 5.87625 -7.8125 5.8125 C-4.75606387 5.18563992 -4.75606387 5.18563992 -2.5 2.375 C-1.675 1.59125 -0.85 0.8075 0 0 Z " fill="#05A3CD" transform="translate(40,16)"/>
<path d="M0 0 C2.31 0 4.62 0 7 0 C7 3.63 7 7.26 7 11 C4.36 11 1.72 11 -1 11 C-0.67 7.37 -0.34 3.74 0 0 Z " fill="#F5FAFF" transform="translate(56,28)"/>
<path d="M0 0 C2.84346988 1.46383643 5.52165104 2.96891147 8 5 C8.875 8.25 8.875 8.25 9 11 C9.66 11.33 10.32 11.66 11 12 C7.62664725 11.67563916 4.6819295 11.29725132 1.5625 9.9375 C-0.95753315 6.81265889 -0.25729613 3.92376598 0 0 Z " fill="#4CB7DD" transform="translate(19,44)"/>
<path d="M0 0 C3.71599191 -0.20086443 4.77208445 -0.1519437 8 2 C10.0492094 2.45139459 10.0492094 2.45139459 12.1875 2.625 C13.445625 2.74875 14.70375 2.8725 16 3 C16 2.34 16 1.68 16 1 C17.32 1 18.64 1 20 1 C19.67 2.32 19.34 3.64 19 5 C16.58303128 5.05411124 14.16728213 5.09372278 11.75 5.125 C11.06808594 5.14175781 10.38617188 5.15851562 9.68359375 5.17578125 C5.9391765 5.21213482 3.17647273 5.07944349 0 3 C0 2.01 0 1.02 0 0 Z " fill="#6F0B46" transform="translate(23,38)"/>
<path d="M0 0 C-1.375 2 -1.375 2 -4 4 C-8.51173786 4.56858235 -12.68284941 4.4390502 -17 3 C-17 2.01 -17 1.02 -17 0 C-14.72979256 -0.19493195 -12.45879711 -0.38070418 -10.1875 -0.5625 C-8.92292969 -0.66691406 -7.65835938 -0.77132812 -6.35546875 -0.87890625 C-3 -1 -3 -1 0 0 Z " fill="#079EC7" transform="translate(43,45)"/>
<path d="M0 0 C1.07765625 0.01804687 2.1553125 0.03609375 3.265625 0.0546875 C4.49539062 0.08949219 4.49539062 0.08949219 5.75 0.125 C6.08 0.785 6.41 1.445 6.75 2.125 C5.1 2.455 3.45 2.785 1.75 3.125 C1.42 5.105 1.09 7.085 0.75 9.125 C-2.25 5.375 -2.25 5.375 -2.25 3.125 C-4.89 2.795 -7.53 2.465 -10.25 2.125 C-6.7733662 -0.01836161 -4.03770805 -0.08777626 0 0 Z " fill="#00A9D7" transform="translate(35.25,22.875)"/>
<path d="M0 0 C4.79677333 2.94347454 8.95177727 5.76797992 10.75 11.3125 C10.87375 12.1478125 10.87375 12.1478125 11 13 C11.66 13 12.32 13 13 13 C13 13.66 13 14.32 13 15 C10.69 15 8.38 15 6 15 C6.66 14.34 7.32 13.68 8 13 C7.50628906 12.31292969 7.01257812 11.62585937 6.50390625 10.91796875 C5.54291016 9.56638672 5.54291016 9.56638672 4.5625 8.1875 C3.92441406 7.29417969 3.28632812 6.40085937 2.62890625 5.48046875 C1 3 1 3 0 0 Z " fill="#2680FF" transform="translate(50,13)"/>
<path d="M0 0 C0.33 0 0.66 0 1 0 C1.01417969 0.61746094 1.02835938 1.23492188 1.04296875 1.87109375 C1.42666642 8.68432002 3.27877821 13.31518147 7 19 C2.80405485 17.10477268 1.12307738 15.17033056 -1 11 C-1.46571673 7.20408964 -1.73591152 3.47182303 0 0 Z " fill="#0E708A" transform="translate(18,29)"/>
<path d="M0 0 C1.134375 0.020625 2.26875 0.04125 3.4375 0.0625 C3.4375 1.3825 3.4375 2.7025 3.4375 4.0625 C1.1275 4.7225 -1.1825 5.3825 -3.5625 6.0625 C-3.94468767 4.40635343 -4.27645102 2.73792976 -4.5625 1.0625 C-3.5625 0.0625 -3.5625 0.0625 0 0 Z " fill="#717273" transform="translate(41.5625,27.9375)"/>
<path d="M0 0 C2.64 0.33 5.28 0.66 8 1 C7.3125 2.9375 7.3125 2.9375 6 5 C3.375 5.75 3.375 5.75 1 6 C0 1.125 0 1.125 0 0 Z " fill="#4D595C" transform="translate(26,27)"/>
<path d="M0 0 C2.31 0 4.62 0 7 0 C7.33 0.99 7.66 1.98 8 3 C2.72 3 -2.56 3 -8 3 C-8 2.67 -8 2.34 -8 2 C-5.36 2 -2.72 2 0 2 C0 1.34 0 0.68 0 0 Z " fill="#2E7899" transform="translate(39,34)"/>
<path d="M0 0 C0.99 0.33 1.98 0.66 3 1 C2.01 1.66 1.02 2.32 0 3 C-0.33 3.99 -0.66 4.98 -1 6 C-0.34 6.33 0.32 6.66 1 7 C-2.63 7 -6.26 7 -10 7 C-10 6.67 -10 6.34 -10 6 C-9.278125 5.938125 -8.55625 5.87625 -7.8125 5.8125 C-4.15342375 4.75543353 -2.50788398 2.79449929 0 0 Z " fill="#15829C" transform="translate(40,16)"/>
<path d="M0 0 C0.66 1.98 1.32 3.96 2 6 C-0.97 6 -3.94 6 -7 6 C-7 5.01 -7 4.02 -7 3 C-4.46815512 0.64276511 -3.52809907 0 0 0 Z " fill="#14819E" transform="translate(44,23)"/>
<path d="M0 0 C2.67863922 -0.21718696 4.41628148 -0.35440053 6.75 1.0625 C8.57905748 3.89753909 8.68754809 6.68800975 9 10 C8.34 10 7.68 10 7 10 C6.67 8.02 6.34 6.04 6 4 C3.03 3.505 3.03 3.505 0 3 C0 2.01 0 1.02 0 0 Z " fill="#1487A3" transform="translate(20,14)"/>
<path d="M0 0 C0.66 0.33 1.32 0.66 2 1 C2 1.99 2 2.98 2 4 C3.32 4 4.64 4 6 4 C6.66 3.01 7.32 2.02 8 1 C8 2.32 8 3.64 8 5 C7 6 7 6 3.4375 6.0625 C2.303125 6.041875 1.16875 6.02125 0 6 C-0.38218767 4.34385343 -0.71395102 2.67542976 -1 1 C-0.67 0.67 -0.34 0.34 0 0 Z " fill="#C6CACC" transform="translate(25,28)"/>
<path d="M0 0 C1.65 0.33 3.3 0.66 5 1 C4.67 1.99 4.34 2.98 4 4 C2.35 4.33 0.7 4.66 -1 5 C-0.67 3.35 -0.34 1.7 0 0 Z " fill="#AD3684" transform="translate(20,17)"/>
<path d="M0 0 C0.66 0.33 1.32 0.66 2 1 C-0.64478179 5.0367722 -3.75175242 6.87587621 -8 9 C-6.4169423 4.7257442 -3.49431596 2.73468206 0 0 Z " fill="#52CBFC" transform="translate(20,11)"/>
<path d="M0 0 C1.32 0 2.64 0 4 0 C3.67 1.32 3.34 2.64 3 4 C0.03 3.67 -2.94 3.34 -6 3 C-6 2.67 -6 2.34 -6 2 C-4.02 2 -2.04 2 0 2 C0 1.34 0 0.68 0 0 Z " fill="#7A134E" transform="translate(39,39)"/>
<path d="M0 0 C2.24027294 2.88035092 4.16172132 5.84866512 6 9 C2.66476748 7.61990379 0.81392049 6.15049348 -1 3 C-0.67 2.01 -0.34 1.02 0 0 Z " fill="#086A84" transform="translate(19,39)"/>
<path d="M0 0 C1.23556641 0.01740234 1.23556641 0.01740234 2.49609375 0.03515625 C3.32238281 0.04417969 4.14867187 0.05320313 5 0.0625 C5.63808594 0.07410156 6.27617187 0.08570313 6.93359375 0.09765625 C6.93359375 0.42765625 6.93359375 0.75765625 6.93359375 1.09765625 C4.29359375 1.42765625 1.65359375 1.75765625 -1.06640625 2.09765625 C-1.39640625 3.08765625 -1.72640625 4.07765625 -2.06640625 5.09765625 C-2.62890625 3.16015625 -2.62890625 3.16015625 -3.06640625 1.09765625 C-2.06640625 0.09765625 -2.06640625 0.09765625 0 0 Z " fill="#8D3A7B" transform="translate(24.06640625,35.90234375)"/>
</svg>
