<?xml version="1.0" encoding="UTF-8"?>
<svg version="1.1" xmlns="http://www.w3.org/2000/svg" width="25" height="25">
<path d="M0 0 C3.17852316 1.64448689 5.37801764 3.75603527 7 7 C8.03037808 16.00844834 8.03037808 16.00844834 5.953125 20.0234375 C3.47535361 23.0113383 1.48573267 24.83006326 -2.390625 25.2734375 C-11.05997149 25.58136511 -11.05997149 25.58136511 -14.625 22.625 C-18.45795689 18.38857397 -18.38863816 15.34807028 -18.359375 9.7734375 C-17.80289254 5.47884463 -16.16828113 3.86654007 -13 1 C-9.03716439 -0.98141781 -4.30789762 -0.55820645 0 0 Z " fill="#F0F3FB" transform="translate(18,0)"/>
<path d="M0 0 C2.20592068 1.75417629 2.93878596 2.67505547 3.46875 5.48828125 C3.56350591 14.05184637 3.56350591 14.05184637 0.625 17.625 C-3.0256544 20.92797303 -4.67612793 21.1376944 -9.5 21.125 C-10.4796875 21.12757812 -11.459375 21.13015625 -12.46875 21.1328125 C-15 21 -15 21 -17 20 C-17 19.34 -17 18.68 -17 18 C-16.28972656 17.74347656 -15.57945313 17.48695312 -14.84765625 17.22265625 C-11.96189652 16.02059364 -9.51103711 14.87037867 -7 13 C-6.13728434 10.53694679 -6.04939468 8.68218866 -6.16015625 6.0859375 C-6 4 -6 4 -4.68359375 2.2890625 C-3 1 -3 1 0 0 Z " fill="#F13D5E" transform="translate(22,4)"/>
<path d="M0 0 C2.33984375 1.40234375 2.33984375 1.40234375 4 3 C4 3.66 4 4.32 4 5 C3.37351562 5.03738281 2.74703125 5.07476563 2.1015625 5.11328125 C0.87566406 5.21189453 0.87566406 5.21189453 -0.375 5.3125 C-1.18710937 5.37050781 -1.99921875 5.42851563 -2.8359375 5.48828125 C-5.37921338 5.82990528 -5.37921338 5.82990528 -7 9 C-7.66 7.35 -8.32 5.7 -9 4 C-9.33 5.65 -9.66 7.3 -10 9 C-12.97 8.505 -12.97 8.505 -16 8 C-16 4 -16 4 -14.1875 1.75 C-9.61142268 -0.76235618 -5.12312189 -0.8474911 0 0 Z " fill="#1F97EE" transform="translate(18,0)"/>
<path d="M0 0 C2.64 1.65 5.28 3.3 8 5 C6.68 7.31 5.36 9.62 4 12 C2 10.5 2 10.5 0 8 C-0.35800135 5.24128373 -0.18660165 2.79902476 0 0 Z " fill="#1865F1" transform="translate(0,10)"/>
<path d="M0 0 C0 2.97 0 5.94 0 9 C-2.97 8.505 -2.97 8.505 -6 8 C-6 6.68 -6 5.36 -6 4 C-1.66666667 0 -1.66666667 0 0 0 Z " fill="#1187EE" transform="translate(8,0)"/>
<path d="M0 0 C2.50037734 2.17424117 3.43628586 3.73045798 4 7 C3.01 7.495 3.01 7.495 2 8 C1.01 7.34 0.02 6.68 -1 6 C-0.67 4.02 -0.34 2.04 0 0 Z " fill="#BDDAFA" transform="translate(8,3)"/>
<path d="M0 0 C0.99 0.33 1.98 0.66 3 1 C3 2.32 3 3.64 3 5 C0.03 4.505 0.03 4.505 -3 4 C-2.01 2.68 -1.02 1.36 0 0 Z " fill="#288BF0" transform="translate(5,4)"/>
</svg>
