<?xml version="1.0" encoding="UTF-8"?>
<svg version="1.1" xmlns="http://www.w3.org/2000/svg" width="50" height="50">
<path d="M0 0 C16.5 0 33 0 50 0 C50 16.5 50 33 50 50 C33.5 50 17 50 0 50 C0 33.5 0 17 0 0 Z " fill="#123148" transform="translate(0,0)"/>
<path d="M0 0 C-0.51398137 18.06644507 -0.51398137 18.06644507 -6.64453125 24.80859375 C-10.2819381 28.11316598 -13.87307485 31.01233501 -18.98046875 30.9921875 C-22.06650746 30.73361231 -24.45745957 30.38995093 -27 28.5625 C-28 27 -28 27 -28 25 C-27.27554687 24.76925781 -26.55109375 24.53851563 -25.8046875 24.30078125 C-14.34826708 20.43614876 -9.75764435 14.79343889 -3 5 C-3.598125 5.66 -4.19625 6.32 -4.8125 7 C-11.00578114 13.19328114 -18.7871177 19.82908583 -27.8125 20.125 C-29.3903125 20.063125 -29.3903125 20.063125 -31 20 C-31 13.68177374 -28.55215435 10.47435914 -24.25390625 5.953125 C-21.06309801 3.18812653 -18.08428059 1.91426365 -14 1 C-12.515 0.6596875 -12.515 0.6596875 -11 0.3125 C-7.30245251 -0.0726612 -3.71700622 -0.06408631 0 0 Z " fill="#04C598" transform="translate(40,10)"/>
<path d="M0 0 C0 3.99904969 -1.72586967 5.80200422 -4 9 C-4.66 8.34 -5.32 7.68 -6 7 C-4.02 4.69 -2.04 2.38 0 0 Z M-8 8 C-7.34 8.33 -6.68 8.66 -6 9 C-6.99 9 -7.98 9 -9 9 C-8.67 8.67 -8.34 8.34 -8 8 Z " fill="#123F4E" transform="translate(37,13)"/>
</svg>
