<?xml version="1.0" encoding="UTF-8"?>
<svg version="1.1" xmlns="http://www.w3.org/2000/svg" width="200" height="200">
<path d="M0 0 C2.82045877 2.30263418 5.56336058 4.67903285 8.27832031 7.10449219 C11.1535235 9.666713 11.1535235 9.666713 14.50878906 11.77246094 C17.18066406 13.58496094 17.18066406 13.58496094 17.86816406 15.77246094 C18.02285156 16.66964844 18.02285156 16.66964844 18.18066406 17.58496094 C19.17066406 17.91496094 20.16066406 18.24496094 21.18066406 18.58496094 C21.51066406 19.57496094 21.84066406 20.56496094 22.18066406 21.58496094 C22.78394531 22.1740625 23.38722656 22.76316406 24.00878906 23.37011719 C26.61161449 26.02443736 28.16331475 28.75588582 29.93066406 32.02246094 C30.85105469 33.69115234 30.85105469 33.69115234 31.79003906 35.39355469 C33.13514811 38.48050439 33.50200878 40.27881822 33.18066406 43.58496094 C33.84066406 43.58496094 34.50066406 43.58496094 35.18066406 43.58496094 C39.64424539 56.0781479 40.85665551 67.12735329 40.55566406 80.33496094 C40.53909422 82.04587815 40.52476266 83.75681854 40.51269531 85.46777344 C40.3702832 98.68935945 40.3702832 98.68935945 39.18066406 103.58496094 C38.52066406 103.58496094 37.86066406 103.58496094 37.18066406 103.58496094 C37.18066406 105.89496094 37.18066406 108.20496094 37.18066406 110.58496094 C36.52066406 110.58496094 35.86066406 110.58496094 35.18066406 110.58496094 C34.52066406 113.88496094 33.86066406 117.18496094 33.18066406 120.58496094 C32.52066406 120.58496094 31.86066406 120.58496094 31.18066406 120.58496094 C31.10589844 121.42542969 31.03113281 122.26589844 30.95410156 123.13183594 C30.00301116 127.37811833 28.20111083 130.25695184 25.80566406 133.83496094 C25.40605469 134.45886719 25.00644531 135.08277344 24.59472656 135.72558594 C22.64505024 138.70140769 21.175244 140.58857431 18.18066406 142.58496094 C17.87128906 143.24496094 17.56191406 143.90496094 17.24316406 144.58496094 C16.18066406 146.58496094 16.18066406 146.58496094 14.29394531 147.52246094 C12.05773456 148.64676653 10.95666201 149.72870379 9.30566406 151.58496094 C-7.5531495 168.76523493 -31.7922615 178.47350042 -55.67724609 178.87768555 C-83.14890277 179.03784131 -105.50892955 171.73865683 -126.31811523 153.40429688 C-129.3378039 150.75277047 -132.36813316 148.62599484 -135.81933594 146.58496094 C-136.52084746 145.26962683 -137.18459519 143.93378502 -137.81933594 142.58496094 C-139.08777344 141.37839844 -139.08777344 141.37839844 -140.38183594 140.14746094 C-142.93144067 137.46710724 -143.50996572 136.19428011 -143.81933594 132.58496094 C-144.80933594 132.25496094 -145.79933594 131.92496094 -146.81933594 131.58496094 C-150.62798259 125.57828936 -153.21756631 119.65575401 -153.81933594 112.58496094 C-154.47933594 111.59496094 -155.13933594 110.60496094 -155.81933594 109.58496094 C-156.19144014 108.26192377 -156.52563767 106.92758159 -156.81933594 105.58496094 C-157.14933594 104.59496094 -157.47933594 103.60496094 -157.81933594 102.58496094 C-158.14933594 102.58496094 -158.47933594 102.58496094 -158.81933594 102.58496094 C-158.87027326 96.32278946 -158.90516878 90.06067193 -158.92919922 83.79833984 C-158.93922299 81.67038984 -158.95284555 79.5424535 -158.97021484 77.41455078 C-158.99462286 74.34631976 -159.00585555 71.27827173 -159.01464844 68.20996094 C-159.02497101 67.26693115 -159.03529358 66.32390137 -159.04592896 65.35229492 C-159.04686971 59.74541582 -158.41278806 54.96630789 -156.81933594 49.58496094 C-156.15933594 49.58496094 -155.49933594 49.58496094 -154.81933594 49.58496094 C-154.69816406 48.88628906 -154.57699219 48.18761719 -154.45214844 47.46777344 C-154.28457031 46.55769531 -154.11699219 45.64761719 -153.94433594 44.70996094 C-153.78191406 43.80503906 -153.61949219 42.90011719 -153.45214844 41.96777344 C-152.81933594 39.58496094 -152.81933594 39.58496094 -150.81933594 37.58496094 C-149.71378412 35.63398714 -148.89319267 33.94732054 -148.44433594 31.74511719 C-147.67559861 29.08816878 -146.42875814 27.18569548 -144.88183594 24.89746094 C-144.3571875 24.10984375 -143.83253906 23.32222656 -143.29199219 22.51074219 C-141.81933594 20.58496094 -141.81933594 20.58496094 -139.81933594 19.58496094 C-139.48933594 18.59496094 -139.15933594 17.60496094 -138.81933594 16.58496094 C-138.25988281 16.318125 -137.70042969 16.05128906 -137.12402344 15.77636719 C-133.75454168 14.03451645 -131.50732154 11.25605376 -128.94433594 8.52246094 C-95.59880991 -25.77011212 -37.69548479 -29.31871039 0 0 Z M34.18066406 46.58496094 C35.18066406 48.58496094 35.18066406 48.58496094 35.18066406 48.58496094 Z M35.18066406 49.58496094 C36.18066406 51.58496094 36.18066406 51.58496094 36.18066406 51.58496094 Z M36.18066406 52.58496094 C37.18066406 55.58496094 37.18066406 55.58496094 37.18066406 55.58496094 Z M-156.81933594 53.58496094 C-155.81933594 56.58496094 -155.81933594 56.58496094 -155.81933594 56.58496094 Z M37.18066406 56.58496094 C38.18066406 59.58496094 38.18066406 59.58496094 38.18066406 59.58496094 Z M-157.81933594 57.58496094 C-156.81933594 61.58496094 -156.81933594 61.58496094 -156.81933594 61.58496094 Z M38.18066406 60.58496094 C38.18066406 62.23496094 38.18066406 63.88496094 38.18066406 65.58496094 C38.51066406 65.58496094 38.84066406 65.58496094 39.18066406 65.58496094 C39.18066406 63.93496094 39.18066406 62.28496094 39.18066406 60.58496094 C38.85066406 60.58496094 38.52066406 60.58496094 38.18066406 60.58496094 Z M38.18066406 93.58496094 C38.18066406 95.23496094 38.18066406 96.88496094 38.18066406 98.58496094 C38.51066406 98.58496094 38.84066406 98.58496094 39.18066406 98.58496094 C39.18066406 96.93496094 39.18066406 95.28496094 39.18066406 93.58496094 C38.85066406 93.58496094 38.52066406 93.58496094 38.18066406 93.58496094 Z " fill="#040404" transform="translate(158.8193359375,19.4150390625)"/>
<path d="M0 0 C2.82045877 2.30263418 5.56336058 4.67903285 8.27832031 7.10449219 C11.1535235 9.666713 11.1535235 9.666713 14.50878906 11.77246094 C17.18066406 13.58496094 17.18066406 13.58496094 17.86816406 15.77246094 C18.02285156 16.66964844 18.02285156 16.66964844 18.18066406 17.58496094 C19.17066406 17.91496094 20.16066406 18.24496094 21.18066406 18.58496094 C21.51066406 19.57496094 21.84066406 20.56496094 22.18066406 21.58496094 C22.78394531 22.1740625 23.38722656 22.76316406 24.00878906 23.37011719 C26.61161449 26.02443736 28.16331475 28.75588582 29.93066406 32.02246094 C30.85105469 33.69115234 30.85105469 33.69115234 31.79003906 35.39355469 C33.13514811 38.48050439 33.50200878 40.27881822 33.18066406 43.58496094 C33.84066406 43.58496094 34.50066406 43.58496094 35.18066406 43.58496094 C39.64424539 56.0781479 40.85665551 67.12735329 40.55566406 80.33496094 C40.53909422 82.04587815 40.52476266 83.75681854 40.51269531 85.46777344 C40.3702832 98.68935945 40.3702832 98.68935945 39.18066406 103.58496094 C38.52066406 103.58496094 37.86066406 103.58496094 37.18066406 103.58496094 C37.18066406 105.89496094 37.18066406 108.20496094 37.18066406 110.58496094 C36.52066406 110.58496094 35.86066406 110.58496094 35.18066406 110.58496094 C34.52066406 113.88496094 33.86066406 117.18496094 33.18066406 120.58496094 C32.52066406 120.58496094 31.86066406 120.58496094 31.18066406 120.58496094 C31.10589844 121.42542969 31.03113281 122.26589844 30.95410156 123.13183594 C30.00301116 127.37811833 28.20111083 130.25695184 25.80566406 133.83496094 C25.40605469 134.45886719 25.00644531 135.08277344 24.59472656 135.72558594 C22.64505024 138.70140769 21.175244 140.58857431 18.18066406 142.58496094 C17.87128906 143.24496094 17.56191406 143.90496094 17.24316406 144.58496094 C16.18066406 146.58496094 16.18066406 146.58496094 14.29394531 147.52246094 C12.05773456 148.64676653 10.95666201 149.72870379 9.30566406 151.58496094 C-7.5531495 168.76523493 -31.7922615 178.47350042 -55.67724609 178.87768555 C-83.14890277 179.03784131 -105.50892955 171.73865683 -126.31811523 153.40429688 C-129.3378039 150.75277047 -132.36813316 148.62599484 -135.81933594 146.58496094 C-136.52084746 145.26962683 -137.18459519 143.93378502 -137.81933594 142.58496094 C-139.08777344 141.37839844 -139.08777344 141.37839844 -140.38183594 140.14746094 C-142.93144067 137.46710724 -143.50996572 136.19428011 -143.81933594 132.58496094 C-144.80933594 132.25496094 -145.79933594 131.92496094 -146.81933594 131.58496094 C-150.62798259 125.57828936 -153.21756631 119.65575401 -153.81933594 112.58496094 C-154.47933594 111.59496094 -155.13933594 110.60496094 -155.81933594 109.58496094 C-156.19144014 108.26192377 -156.52563767 106.92758159 -156.81933594 105.58496094 C-157.14933594 104.59496094 -157.47933594 103.60496094 -157.81933594 102.58496094 C-158.14933594 102.58496094 -158.47933594 102.58496094 -158.81933594 102.58496094 C-158.87027326 96.32278946 -158.90516878 90.06067193 -158.92919922 83.79833984 C-158.93922299 81.67038984 -158.95284555 79.5424535 -158.97021484 77.41455078 C-158.99462286 74.34631976 -159.00585555 71.27827173 -159.01464844 68.20996094 C-159.02497101 67.26693115 -159.03529358 66.32390137 -159.04592896 65.35229492 C-159.04686971 59.74541582 -158.41278806 54.96630789 -156.81933594 49.58496094 C-156.15933594 49.58496094 -155.49933594 49.58496094 -154.81933594 49.58496094 C-154.69816406 48.88628906 -154.57699219 48.18761719 -154.45214844 47.46777344 C-154.28457031 46.55769531 -154.11699219 45.64761719 -153.94433594 44.70996094 C-153.78191406 43.80503906 -153.61949219 42.90011719 -153.45214844 41.96777344 C-152.81933594 39.58496094 -152.81933594 39.58496094 -150.81933594 37.58496094 C-149.71378412 35.63398714 -148.89319267 33.94732054 -148.44433594 31.74511719 C-147.67559861 29.08816878 -146.42875814 27.18569548 -144.88183594 24.89746094 C-144.3571875 24.10984375 -143.83253906 23.32222656 -143.29199219 22.51074219 C-141.81933594 20.58496094 -141.81933594 20.58496094 -139.81933594 19.58496094 C-139.48933594 18.59496094 -139.15933594 17.60496094 -138.81933594 16.58496094 C-138.25988281 16.318125 -137.70042969 16.05128906 -137.12402344 15.77636719 C-133.75454168 14.03451645 -131.50732154 11.25605376 -128.94433594 8.52246094 C-95.59880991 -25.77011212 -37.69548479 -29.31871039 0 0 Z M-99.81933594 17.58496094 C-100.66625 18.2153125 -101.51316406 18.84566406 -102.38574219 19.49511719 C-104.92670141 21.46047909 -107.38321193 23.4915459 -109.81933594 25.58496094 C-110.74359375 26.36419922 -110.74359375 26.36419922 -111.68652344 27.15917969 C-124.80850938 39.16247098 -132.12861905 57.36858461 -133.26074219 74.85449219 C-133.97099497 95.96888699 -128.32421106 113.78807636 -114.38183594 129.83496094 C-112.87811575 131.43455591 -111.35822374 133.0191695 -109.81933594 134.58496094 C-109.20574219 135.21144531 -108.59214844 135.83792969 -107.95996094 136.48339844 C-93.54013212 150.10212565 -75.05614049 155.06158166 -55.64355469 154.80371094 C-45.29731731 154.47190136 -34.95060556 152.61448378 -25.81933594 147.58496094 C-24.90023437 147.11445313 -23.98113281 146.64394531 -23.03417969 146.15917969 C-11.29391449 139.81186212 -1.64666391 131.12807215 5.18066406 119.58496094 C5.70144531 118.71871094 6.22222656 117.85246094 6.75878906 116.95996094 C16.23373247 99.73279111 19.26160832 79.53169779 14.15185547 60.48925781 C8.16662195 40.65361168 -3.89906579 25.34080368 -21.78808594 14.84277344 C-45.74668266 2.16993675 -77.33974627 0.63380562 -99.81933594 17.58496094 Z M34.18066406 46.58496094 C35.18066406 48.58496094 35.18066406 48.58496094 35.18066406 48.58496094 Z M35.18066406 49.58496094 C36.18066406 51.58496094 36.18066406 51.58496094 36.18066406 51.58496094 Z M36.18066406 52.58496094 C37.18066406 55.58496094 37.18066406 55.58496094 37.18066406 55.58496094 Z M-156.81933594 53.58496094 C-155.81933594 56.58496094 -155.81933594 56.58496094 -155.81933594 56.58496094 Z M37.18066406 56.58496094 C38.18066406 59.58496094 38.18066406 59.58496094 38.18066406 59.58496094 Z M-157.81933594 57.58496094 C-156.81933594 61.58496094 -156.81933594 61.58496094 -156.81933594 61.58496094 Z M38.18066406 60.58496094 C38.18066406 62.23496094 38.18066406 63.88496094 38.18066406 65.58496094 C38.51066406 65.58496094 38.84066406 65.58496094 39.18066406 65.58496094 C39.18066406 63.93496094 39.18066406 62.28496094 39.18066406 60.58496094 C38.85066406 60.58496094 38.52066406 60.58496094 38.18066406 60.58496094 Z M38.18066406 93.58496094 C38.18066406 95.23496094 38.18066406 96.88496094 38.18066406 98.58496094 C38.51066406 98.58496094 38.84066406 98.58496094 39.18066406 98.58496094 C39.18066406 96.93496094 39.18066406 95.28496094 39.18066406 93.58496094 C38.85066406 93.58496094 38.52066406 93.58496094 38.18066406 93.58496094 Z " fill="#010101" transform="translate(158.8193359375,19.4150390625)"/>
<path d="M0 0 C1.56621094 0.50853516 1.56621094 0.50853516 3.1640625 1.02734375 C21.11885471 7.68340788 34.1206717 21.33107914 43 38 C44.61944419 41.60425079 45.87434908 45.2152027 47 49 C47.29777344 49.8971875 47.59554687 50.794375 47.90234375 51.71875 C53.6596554 71.03360198 49.27046986 91.50785758 39.875 108.921875 C30.30975352 124.6248213 15.02377702 137.81694152 -3 142.5 C-23.78577811 147.42294745 -44.2107625 145.93231348 -63.03125 135.28515625 C-81.47104532 123.66523368 -93.19563299 106.84609971 -98.44482422 85.86767578 C-100.87987166 73.28980982 -100.12888351 59.11919249 -96 47 C-95.67128906 46.01386719 -95.34257813 45.02773437 -95.00390625 44.01171875 C-88.02363855 25.3896205 -73.64016407 10.87515248 -56 2 C-37.40362873 -5.75207198 -19.03341196 -6.25501499 0 0 Z M-74.6953125 27.9375 C-81.11906734 35.55215571 -84.91432831 43.58114899 -88 53 C-88.26554687 53.76441406 -88.53109375 54.52882812 -88.8046875 55.31640625 C-93.54481023 71.90683582 -88.93754216 89.7468415 -81.17578125 104.5390625 C-72.0145229 119.92232403 -57.23026384 129.3237026 -40.515625 134.81640625 C-22.52125771 139.25294853 -4.81251608 135.04020437 10.96484375 126.0078125 C27.5134188 115.06062128 36.71429786 98.83111033 40.6875 79.6875 C42.17065728 62.18624411 38.65731121 45.41119083 27.86328125 31.18359375 C25.66770031 28.673811 23.38771397 26.32669914 21 24 C20.33613281 23.30390625 19.67226562 22.6078125 18.98828125 21.890625 C14.48130291 17.46090915 9.58970349 14.47012469 4 11.625 C3.34765381 11.29097168 2.69530762 10.95694336 2.02319336 10.61279297 C-24.09431488 -2.02481592 -55.80604097 7.3509316 -74.6953125 27.9375 Z " fill="#F6F6F6" transform="translate(125,29)"/>
<path d="M0 0 C1.39195915 4.17587745 -0.17676781 6.13474776 -2 10 C-3.051875 9.835 -4.10375 9.67 -5.1875 9.5 C-15.97474792 8.19709972 -24.46173762 8.397284 -34.0625 13.6875 C-40.49515716 18.7515067 -45.98912005 24.90916537 -48 33 C-49.30494221 43.98121178 -47.68692484 53.07667447 -41.4609375 62.2734375 C-33.91008663 71.61358953 -23.8955654 77.34371804 -12 79 C-4.01724665 79.68925283 3.99101873 79.88550138 12 80 C7.86403344 84.19763166 4.88008338 86.14887779 -1.1328125 86.3984375 C-3.1302078 86.4063847 -5.12772184 86.39804552 -7.125 86.375 C-8.59839844 86.39240234 -8.59839844 86.39240234 -10.1015625 86.41015625 C-24.39279066 86.35374351 -36.4503581 81.58880091 -47 72 C-56.58251234 61.57197187 -59.59560465 50.43885366 -59.33984375 36.625 C-59.0330918 30.37286066 -57.10325033 25.40107691 -54 20 C-53.50371094 19.11828125 -53.00742188 18.2365625 -52.49609375 17.328125 C-46.6834344 8.08389567 -37.42026785 1.08306278 -26.7578125 -1.5546875 C-18.01495575 -2.96642358 -8.43668033 -2.76374011 0 0 Z " fill="#F4F4F4" transform="translate(120,69)"/>
<path d="M0 0 C5.46096996 3.43570958 9.98264948 7.90631881 13.76953125 13.11328125 C11.6428329 15.45264943 9.70728269 16.91981973 6.76953125 18.11328125 C5.77953125 18.11328125 4.78953125 18.11328125 3.76953125 18.11328125 C3.04765625 17.18515625 2.32578125 16.25703125 1.58203125 15.30078125 C-1.98163425 10.81438094 -6.11531807 9.51443738 -11.6875 8.796875 C-17.65253299 8.51282581 -22.47663953 9.36506975 -27.23046875 13.11328125 C-31.68440503 17.61480231 -33.61498873 21.83512478 -33.85546875 28.17578125 C-33.37035104 36.31956573 -30.8144891 40.88144215 -24.91796875 46.42578125 C-13.91130118 55.60099679 -1.22748372 55.39694209 12.33203125 55.23828125 C13.83267631 55.22823048 15.3333279 55.21910834 16.83398438 55.2109375 C20.47930406 55.18909216 24.12437501 55.15467815 27.76953125 55.11328125 C25.53046733 59.81063074 22.51934176 62.738376 17.76953125 65.11328125 C2.3841052 66.20986343 -15.03387337 67.35663027 -28.10546875 57.92578125 C-29.5143827 56.69265358 -30.88984358 55.42032621 -32.23046875 54.11328125 C-32.95105469 53.41976562 -33.67164062 52.72625 -34.4140625 52.01171875 C-41.12813297 45.03894098 -44.36526667 38.33678673 -44.73046875 28.61328125 C-44.35888741 18.41277419 -40.6207018 11.06879471 -33.23046875 4.11328125 C-24.24663931 -2.85377015 -10.56204882 -4.85532092 0 0 Z " fill="#F6F6F6" transform="translate(118.23046875,81.88671875)"/>
<path d="M0 0 C0 3.3 0 6.6 0 10 C-0.82242188 10.09796875 -1.64484375 10.1959375 -2.4921875 10.296875 C-17.23589875 12.2717832 -27.41863491 17.1646055 -37.171875 28.4921875 C-45.29930614 39.64135585 -46.59617761 52.65189941 -44.5390625 65.98828125 C-41.09747864 78.68165233 -32.95626803 88.70552282 -21.88671875 95.42578125 C-13.81821505 99.82579071 -6.38336788 102.03590696 2.75 102.5625 C3.79607422 102.62727539 3.79607422 102.62727539 4.86328125 102.69335938 C6.57531922 102.79889596 8.28763561 102.8998991 10 103 C9.67 103.66 9.34 104.32 9 105 C-7.15846255 105.28740348 -20.66703249 105.4371369 -35 97 C-35.75410156 96.55785156 -36.50820312 96.11570312 -37.28515625 95.66015625 C-47.18974083 89.07618384 -52.87743308 76.44418267 -55.58764648 65.17016602 C-58.27937586 51.00392418 -55.59228874 36.48337466 -47.75 24.40625 C-41.62038703 15.97803217 -35.09758672 10.08896257 -26 5 C-24.948125 4.401875 -23.89625 3.80375 -22.8125 3.1875 C-15.12020421 -0.06035822 -8.25908774 -0.24777263 0 0 Z " fill="#F6F6F6" transform="translate(104,54)"/>
<path d="M0 0 C0.495 0.99 0.495 0.99 1 2 C0.38253906 2.14695312 -0.23492187 2.29390625 -0.87109375 2.4453125 C-14.92499527 6.16735035 -23.11446259 14.9312037 -30.26953125 27.171875 C-34.83174254 36.52199001 -34.65262937 49.2154288 -31.4375 59 C-26.00412538 71.38657431 -17.63598804 78.91086025 -5.75 84.95703125 C1.53252684 87.71901231 8.83280089 88.35278756 16.5625 88.625 C17.47580078 88.66367188 18.38910156 88.70234375 19.33007812 88.7421875 C21.55319924 88.83530252 23.77633613 88.92112166 26 89 C26 89.33 26 89.66 26 90 C1.85586341 92.04960903 1.85586341 92.04960903 -8 87 C-8.8765625 86.55140625 -9.753125 86.1028125 -10.65625 85.640625 C-23.23995114 78.59072014 -31.62542259 68.85282847 -36 55 C-36.18175781 54.4328125 -36.36351562 53.865625 -36.55078125 53.28125 C-39.00786621 40.80353158 -36.91871585 29.04439519 -30.25 18.3125 C-24.7505777 10.60779558 -10.95138 -4.86728 0 0 Z " fill="#1D1D1D" transform="translate(95,66)"/>
<path d="M0 0 C-3.92665547 2.61777031 -7.10303003 2.05447225 -11.625 1.875 C-22.06301894 1.69225724 -28.51471642 3.8795431 -36.2734375 11.06640625 C-42.41225354 17.94132467 -43.38513475 25.70765789 -43.265625 34.62109375 C-42.47290943 44.70490216 -37.091257 51.1646131 -30 58 C-29.45601562 58.52722656 -28.91203125 59.05445313 -28.3515625 59.59765625 C-19.02512703 67.33812427 -5.8675047 67.48555876 5.62329102 67.67285156 C6.53522217 67.69057617 7.44715332 67.70830078 8.38671875 67.7265625 C9.20358154 67.73252441 10.02044434 67.73848633 10.86206055 67.74462891 C13 68 13 68 16 70 C7.70978622 74.14510689 -9.08218876 70.64631377 -17.875 68.375 C-24.07162136 66.28938139 -29.02227582 63.2016274 -34 59 C-34.65742187 58.46503906 -35.31484375 57.93007812 -35.9921875 57.37890625 C-42.23158379 51.79558382 -46.49148856 43.19454093 -47.30859375 34.84765625 C-47.69931985 23.37451704 -45.16894043 15.1321337 -37.125 6.5 C-26.69220424 -3.11336161 -13.25511959 -4.15846889 0 0 Z " fill="#1A1A1A" transform="translate(118,79)"/>
<path d="M0 0 C0.33 0 0.66 0 1 0 C1.33 1.98 1.66 3.96 2 6 C2.33 6 2.66 6 3 6 C3.02578125 6.81082031 3.0515625 7.62164062 3.078125 8.45703125 C3.7499189 21.57228025 7.39032152 32.74393111 17.1015625 42.00390625 C28.21630905 51.09600458 39.467576 54.12862703 53.5625 54.625 C54.93245117 54.68300781 54.93245117 54.68300781 56.33007812 54.7421875 C58.55319924 54.83530252 60.77633613 54.92112166 63 55 C63 55.33 63 55.66 63 56 C38.85586341 58.04960903 38.85586341 58.04960903 29 53 C28.1234375 52.55140625 27.246875 52.1028125 26.34375 51.640625 C13.04708542 44.19128882 4.65550322 33.73652614 0.43579102 19.03417969 C-0.01696951 16.92078992 -0.11401102 15.04945506 -0.09765625 12.890625 C-0.09443359 12.13652344 -0.09121094 11.38242188 -0.08789062 10.60546875 C-0.07951172 9.82816406 -0.07113281 9.05085938 -0.0625 8.25 C-0.05798828 7.45722656 -0.05347656 6.66445312 -0.04882812 5.84765625 C-0.03708565 3.89840492 -0.01915146 1.94919262 0 0 Z " fill="#2C2C2C" transform="translate(58,100)"/>
<path d="M0 0 C-3.92665547 2.61777031 -7.10303003 2.05447225 -11.625 1.875 C-18.58058116 1.75322573 -24.11686871 1.89036983 -30 6 C-30.69222656 6.474375 -31.38445312 6.94875 -32.09765625 7.4375 C-37.85721893 11.91596369 -40.89315402 17.49209915 -44 24 C-44.33 24 -44.66 24 -45 24 C-45.8386703 18.54864303 -43.90068799 15.52148108 -40.84375 11.24609375 C-30.11001181 -1.82996443 -16.01261472 -5.0235654 0 0 Z " fill="#2A2A2A" transform="translate(118,79)"/>
<path d="M0 0 C3.30265222 0.60577748 6.37814834 1.45079023 9.5625 2.5 C18.13367808 4.92023624 27.15383473 4.74873772 36 5 C36 5.33 36 5.66 36 6 C22.85002325 7.11630876 12.05756897 8.02878448 0 2 C0 1.34 0 0.68 0 0 Z " fill="#4B4B4B" transform="translate(85,150)"/>
<path d="M0 0 C0.66 0.33 1.32 0.66 2 1 C0.62863779 4.24140159 -1.33969859 6.56125075 -3.625 9.20703125 C-6.18125772 12.54033322 -8.06001459 16.28513432 -10 20 C-10.33 20 -10.66 20 -11 20 C-11.85366694 14.45116487 -9.75749838 11.46942171 -6.66796875 7.125 C-4.61097476 4.50438002 -2.46018037 2.24310563 0 0 Z " fill="#0F0F0F" transform="translate(84,83)"/>
<path d="M0 0 C1.58953491 0.05945801 1.58953491 0.05945801 3.21118164 0.12011719 C4.94078125 0.18392578 4.94078125 0.18392578 6.70532227 0.24902344 C7.91510742 0.30445313 9.12489258 0.35988281 10.37133789 0.41699219 C11.57725586 0.45695313 12.78317383 0.49691406 14.02563477 0.53808594 C23.04976283 0.91094215 23.04976283 0.91094215 26.43383789 3.16699219 C23.83058844 4.46861691 22.07130207 4.20409439 19.16430664 4.08105469 C18.11049805 4.03722656 17.05668945 3.99339844 15.97094727 3.94824219 C14.86557617 3.89667969 13.76020508 3.84511719 12.62133789 3.79199219 C11.52756836 3.74816406 10.43379883 3.70433594 9.30688477 3.65917969 C4.57146189 3.45140976 0.07119367 3.20009523 -4.56616211 2.16699219 C-2.56616211 0.16699219 -2.56616211 0.16699219 0 0 Z " fill="#414141" transform="translate(107.566162109375,145.8330078125)"/>
<path d="M0 0 C1.86562642 1.57297914 2.90238443 2.45510217 3.34057617 4.90112305 C3.32486572 5.59761963 3.30915527 6.29411621 3.29296875 7.01171875 C3.28330078 7.76904297 3.27363281 8.52636719 3.26367188 9.30664062 C3.23853516 10.09232422 3.21339844 10.87800781 3.1875 11.6875 C3.17396484 12.48478516 3.16042969 13.28207031 3.14648438 14.10351562 C3.11117089 16.06929967 3.05736447 18.03473582 3 20 C2.01 20.33 1.02 20.66 0 21 C-1.18637743 17.44086771 -1.14615346 14.201855 -1.125 10.5 C-1.12886719 9.82324219 -1.13273437 9.14648438 -1.13671875 8.44921875 C-1.13062416 5.35926233 -0.9844023 2.95320689 0 0 Z " fill="#232323" transform="translate(72,99)"/>
<path d="M0 0 C3.04570091 1.32478249 4.70378203 2.60504271 6.6875 5.25 C9.71292655 8.9753967 13.15426998 11.2760867 17.2421875 13.73828125 C17.82226562 14.15464844 18.40234375 14.57101563 19 15 C19 15.66 19 16.32 19 17 C11.17569335 14.18986169 4.83053279 8.70041646 0 2 C0 1.34 0 0.68 0 0 Z " fill="#1E1E1E" transform="translate(66,134)"/>
<path d="M0 0 C0.33 0.66 0.66 1.32 1 2 C0.31292969 2.20496094 -0.37414062 2.40992187 -1.08203125 2.62109375 C-1.98308594 2.89050781 -2.88414063 3.15992187 -3.8125 3.4375 C-5.15248047 3.83775391 -5.15248047 3.83775391 -6.51953125 4.24609375 C-8.35473055 4.80387873 -10.18033726 5.39344575 -12 6 C-12 5.34 -12 4.68 -12 4 C-12.66 3.67 -13.32 3.34 -14 3 C-12.42274653 2.29866401 -10.83788667 1.614417 -9.25 0.9375 C-7.92742187 0.36322266 -7.92742187 0.36322266 -6.578125 -0.22265625 C-3.83374717 -1.05012775 -2.61069939 -1.12307113 0 0 Z " fill="#212121" transform="translate(95,66)"/>
<path d="M0 0 C1.13115234 0.08217773 1.13115234 0.08217773 2.28515625 0.16601562 C3.06246094 0.23884766 3.83976562 0.31167969 4.640625 0.38671875 C5.82978516 0.47856445 5.82978516 0.47856445 7.04296875 0.57226562 C8.99338369 0.72500896 10.94222055 0.89767119 12.890625 1.07421875 C12.560625 1.73421875 12.230625 2.39421875 11.890625 3.07421875 C5.290625 3.07421875 -1.309375 3.07421875 -8.109375 3.07421875 C-3.609375 -0.30078125 -3.609375 -0.30078125 0 0 Z " fill="#D2D2D2" transform="translate(101.109375,155.92578125)"/>
<path d="M0 0 C3.23165844 0.71730736 6.18707922 1.81315074 9.25 3.0625 C10.14203125 3.42472656 11.0340625 3.78695312 11.953125 4.16015625 C12.96632813 4.57587891 12.96632813 4.57587891 14 5 C10.6484259 6.13508688 8.64324324 5.87309359 5.3125 4.75 C4.52488281 4.49734375 3.73726563 4.2446875 2.92578125 3.984375 C1 3 1 3 0 0 Z " fill="#282828" transform="translate(91,141)"/>
<path d="M0 0 C0.33 0 0.66 0 1 0 C0.37802877 6.33881314 -0.28542887 12.67094142 -1 19 C-1.33 19 -1.66 19 -2 19 C-2.05411124 16.58303128 -2.09372278 14.16728213 -2.125 11.75 C-2.14175781 11.06808594 -2.15851562 10.38617188 -2.17578125 9.68359375 C-2.21213482 5.9391765 -2.07944349 3.17647273 0 0 Z " fill="#020202" transform="translate(61,96)"/>
<path d="M0 0 C9.41002278 0.96355353 9.41002278 0.96355353 14 2 C10.24464902 4.50356732 9.13110586 3.9608592 4.8125 3.125 C3.72582031 2.92132813 2.63914062 2.71765625 1.51953125 2.5078125 C0.68808594 2.34023437 -0.14335938 2.17265625 -1 2 C-0.67 1.34 -0.34 0.68 0 0 Z " fill="#181818" transform="translate(104,77)"/>
<path d="M0 0 C8.58 0 17.16 0 26 0 C26 0.33 26 0.66 26 1 C17.42 1 8.84 1 0 1 C0 0.67 0 0.34 0 0 Z " fill="#000000" transform="translate(86,199)"/>
<path d="M0 0 C0.33 0 0.66 0 1 0 C1 8.58 1 17.16 1 26 C0.67 26 0.34 26 0 26 C0 17.42 0 8.84 0 0 Z " fill="#000000" transform="translate(199,86)"/>
<path d="M0 0 C0.99 0.99 1.98 1.98 3 3 C2.6875 5.6875 2.6875 5.6875 2 8 C1.01 8.33 0.02 8.66 -1 9 C-0.67 6.03 -0.34 3.06 0 0 Z " fill="#313131" transform="translate(72,99)"/>
<path d="M0 0 C0.66 0.33 1.32 0.66 2 1 C1.071875 2.1446875 1.071875 2.1446875 0.125 3.3125 C-2.05597052 5.99625809 -2.05597052 5.99625809 -4 9 C-4.66 8.01 -5.32 7.02 -6 6 C-4.02 4.02 -2.04 2.04 0 0 Z " fill="#0F0F0F" transform="translate(75,73)"/>
<path d="M0 0 C0.66 0.33 1.32 0.66 2 1 C-0.31 3.31 -2.62 5.62 -5 8 C-5 5 -5 5 -2.5 2.3125 C-1.675 1.549375 -0.85 0.78625 0 0 Z " fill="#1C2C1E" transform="translate(30,25)"/>
<path d="M0 0 C1.98 0 3.96 0 6 0 C6 0.33 6 0.66 6 1 C4.02 1 2.04 1 0 1 C0 0.67 0 0.34 0 0 Z " fill="#000000" transform="translate(112,198)"/>
<path d="M0 0 C1.98 0 3.96 0 6 0 C6 0.33 6 0.66 6 1 C4.02 1 2.04 1 0 1 C0 0.67 0 0.34 0 0 Z " fill="#000000" transform="translate(80,198)"/>
<path d="M0 0 C1.65 0 3.3 0 5 0 C5 0.33 5 0.66 5 1 C3.35 1 1.7 1 0 1 C0 0.67 0 0.34 0 0 Z " fill="#000000" transform="translate(118,197)"/>
<path d="M0 0 C1.65 0 3.3 0 5 0 C5 0.33 5 0.66 5 1 C3.35 1 1.7 1 0 1 C0 0.67 0 0.34 0 0 Z " fill="#000000" transform="translate(75,197)"/>
<path d="M0 0 C1.65 0 3.3 0 5 0 C5 0.33 5 0.66 5 1 C3.35 1 1.7 1 0 1 C0 0.67 0 0.34 0 0 Z " fill="#47704C" transform="translate(117,0)"/>
<path d="M0 0 C1.65 0 3.3 0 5 0 C5 0.33 5 0.66 5 1 C3.35 1 1.7 1 0 1 C0 0.67 0 0.34 0 0 Z " fill="#38593C" transform="translate(76,0)"/>
<path d="M0 0 C4 1 4 1 4 1 Z " fill="#000000" transform="translate(123,196)"/>
<path d="M0 0 C4 1 4 1 4 1 Z " fill="#000000" transform="translate(68,195)"/>
<path d="M0 0 C4 1 4 1 4 1 Z " fill="#355439" transform="translate(69,2)"/>
<path d="M0 0 C4 1 4 1 4 1 Z " fill="#47704C" transform="translate(122,1)"/>
<path d="M0 0 C3 1 3 1 3 1 Z " fill="#000000" transform="translate(72,196)"/>
<path d="M0 0 C3 1 3 1 3 1 Z " fill="#000000" transform="translate(127,195)"/>
<path d="M0 0 C3 1 3 1 3 1 Z " fill="#000000" transform="translate(130,194)"/>
<path d="M0 0 C3 1 3 1 3 1 Z " fill="#000000" transform="translate(65,194)"/>
<path d="M0 0 C3 1 3 1 3 1 Z " fill="#000000" transform="translate(135,192)"/>
<path d="M0 0 C3 1 3 1 3 1 Z " fill="#000000" transform="translate(60,192)"/>
<path d="" fill="#2F4A32" transform="translate(0,0)"/>
<path d="" fill="#000000" transform="translate(0,0)"/>
<path d="" fill="#2F4A32" transform="translate(0,0)"/>
<path d="" fill="#000000" transform="translate(0,0)"/>
<path d="" fill="#2F4A32" transform="translate(0,0)"/>
<path d="" fill="#172519" transform="translate(0,0)"/>
<path d="M0 0 C3 1 3 1 3 1 Z " fill="#47704C" transform="translate(137,6)"/>
<path d="M0 0 C3 1 3 1 3 1 Z " fill="#47704C" transform="translate(132,4)"/>
<path d="M0 0 C3 1 3 1 3 1 Z " fill="#172519" transform="translate(63,4)"/>
<path d="M0 0 C3 1 3 1 3 1 Z " fill="#47704C" transform="translate(129,3)"/>
<path d="M0 0 C3 1 3 1 3 1 Z " fill="#172519" transform="translate(66,3)"/>
<path d="M0 0 C3 1 3 1 3 1 Z " fill="#47704C" transform="translate(126,2)"/>
<path d="M0 0 C3 1 3 1 3 1 Z " fill="#47704C" transform="translate(73,1)"/>
<path d="M0 0 C2 1 2 1 2 1 Z " fill="#000000" transform="translate(133,193)"/>
<path d="M0 0 C2 1 2 1 2 1 Z " fill="#000000" transform="translate(63,193)"/>
<path d="M0 0 C2 1 2 1 2 1 Z " fill="#000000" transform="translate(138,191)"/>
<path d="M0 0 C2 1 2 1 2 1 Z " fill="#000000" transform="translate(58,191)"/>
<path d="M0 0 C2 1 2 1 2 1 Z " fill="#000000" transform="translate(140,190)"/>
<path d="M0 0 C2 1 2 1 2 1 Z " fill="#000000" transform="translate(56,190)"/>
<path d="M0 0 C2 1 2 1 2 1 Z " fill="#000000" transform="translate(142,189)"/>
<path d="M0 0 C2 1 2 1 2 1 Z " fill="#000000" transform="translate(54,189)"/>
<path d="M0 0 C2 1 2 1 2 1 Z " fill="#000000" transform="translate(144,188)"/>
<path d="M0 0 C2 1 2 1 2 1 Z " fill="#000000" transform="translate(52,188)"/>
<path d="M0 0 C2 1 2 1 2 1 Z " fill="#000000" transform="translate(146,187)"/>
<path d="M0 0 C2 1 2 1 2 1 Z " fill="#000000" transform="translate(50,187)"/>
<path d="M0 0 C2 1 2 1 2 1 Z " fill="#000000" transform="translate(148,186)"/>
<path d="M0 0 C2 1 2 1 2 1 Z " fill="#000000" transform="translate(47,185)"/>
<path d="M0 0 C2 1 2 1 2 1 Z " fill="#000000" transform="translate(151,184)"/>
<path d="M0 0 C2 1 2 1 2 1 Z " fill="#000000" transform="translate(45,184)"/>
<path d="M0 0 C2 1 2 1 2 1 Z " fill="#000000" transform="translate(154,182)"/>
<path d="M0 0 C2 1 2 1 2 1 Z " fill="#000000" transform="translate(42,182)"/>
<path d="M0 0 C2 1 2 1 2 1 Z " fill="#000000" transform="translate(157,180)"/>
<path d="M0 0 C2 1 2 1 2 1 Z " fill="#000000" transform="translate(38,179)"/>
<path d="M0 0 C2 1 2 1 2 1 Z " fill="#000000" transform="translate(162,176)"/>
<path d="M0 0 C2 1 2 1 2 1 Z " fill="#000000" transform="translate(32,174)"/>
<path d="" fill="#000000" transform="translate(0,0)"/>
<path d="" fill="#000000" transform="translate(0,0)"/>
<path d="" fill="#47704C" transform="translate(0,0)"/>
<path d="" fill="#000000" transform="translate(0,0)"/>
<path d="" fill="#233826" transform="translate(0,0)"/>
<path d="" fill="#000000" transform="translate(0,0)"/>
<path d="" fill="#000000" transform="translate(0,0)"/>
<path d="" fill="#47704C" transform="translate(0,0)"/>
<path d="M0 0 C2 1 2 1 2 1 Z " fill="#233826" transform="translate(164,23)"/>
<path d="M0 0 C2 1 2 1 2 1 Z " fill="#000000" transform="translate(37,19)"/>
<path d="M0 0 C2 1 2 1 2 1 Z " fill="#233826" transform="translate(158,18)"/>
<path d="M0 0 C2 1 2 1 2 1 Z " fill="#233826" transform="translate(155,16)"/>
<path d="M0 0 C2 1 2 1 2 1 Z " fill="#233826" transform="translate(41,16)"/>
<path d="M0 0 C2 1 2 1 2 1 Z " fill="#233826" transform="translate(152,14)"/>
<path d="M0 0 C2 1 2 1 2 1 Z " fill="#233826" transform="translate(44,14)"/>
<path d="M0 0 C2 1 2 1 2 1 Z " fill="#233826" transform="translate(149,12)"/>
<path d="M0 0 C2 1 2 1 2 1 Z " fill="#233826" transform="translate(47,12)"/>
<path d="M0 0 C2 1 2 1 2 1 Z " fill="#233826" transform="translate(147,11)"/>
<path d="M0 0 C2 1 2 1 2 1 Z " fill="#47704C" transform="translate(49,11)"/>
<path d="M0 0 C2 1 2 1 2 1 Z " fill="#47704C" transform="translate(51,10)"/>
<path d="M0 0 C2 1 2 1 2 1 Z " fill="#47704C" transform="translate(144,9)"/>
<path d="M0 0 C2 1 2 1 2 1 Z " fill="#233826" transform="translate(53,9)"/>
<path d="M0 0 C2 1 2 1 2 1 Z " fill="#47704C" transform="translate(142,8)"/>
<path d="M0 0 C2 1 2 1 2 1 Z " fill="#233826" transform="translate(55,8)"/>
<path d="M0 0 C2 1 2 1 2 1 Z " fill="#47704C" transform="translate(140,7)"/>
<path d="M0 0 C2 1 2 1 2 1 Z " fill="#233826" transform="translate(57,7)"/>
<path d="M0 0 C2 1 2 1 2 1 Z " fill="#000000" transform="translate(59,6)"/>
<path d="M0 0 C2 1 2 1 2 1 Z " fill="#47704C" transform="translate(135,5)"/>
<path d="M0 0 C2 1 2 1 2 1 Z " fill="#000000" transform="translate(61,5)"/>
<path d="" fill="#000000" transform="translate(0,0)"/>
<path d="" fill="#000000" transform="translate(0,0)"/>
<path d="" fill="#000000" transform="translate(0,0)"/>
<path d="" fill="#000000" transform="translate(0,0)"/>
<path d="" fill="#000000" transform="translate(0,0)"/>
<path d="" fill="#000000" transform="translate(0,0)"/>
<path d="" fill="#000000" transform="translate(0,0)"/>
<path d="" fill="#000000" transform="translate(0,0)"/>
<path d="" fill="#000000" transform="translate(0,0)"/>
<path d="" fill="#000000" transform="translate(0,0)"/>
<path d="" fill="#000000" transform="translate(0,0)"/>
<path d="" fill="#000000" transform="translate(0,0)"/>
<path d="" fill="#000000" transform="translate(0,0)"/>
<path d="" fill="#000000" transform="translate(0,0)"/>
<path d="" fill="#000000" transform="translate(0,0)"/>
<path d="" fill="#000000" transform="translate(0,0)"/>
<path d="" fill="#000000" transform="translate(0,0)"/>
<path d="" fill="#000000" transform="translate(0,0)"/>
<path d="" fill="#000000" transform="translate(0,0)"/>
<path d="" fill="#000000" transform="translate(0,0)"/>
<path d="" fill="#000000" transform="translate(0,0)"/>
<path d="" fill="#000000" transform="translate(0,0)"/>
<path d="" fill="#000000" transform="translate(0,0)"/>
<path d="" fill="#000000" transform="translate(0,0)"/>
<path d="" fill="#000000" transform="translate(0,0)"/>
<path d="" fill="#000000" transform="translate(0,0)"/>
<path d="" fill="#000000" transform="translate(0,0)"/>
<path d="" fill="#000000" transform="translate(0,0)"/>
<path d="" fill="#000000" transform="translate(0,0)"/>
<path d="" fill="#000000" transform="translate(0,0)"/>
<path d="" fill="#000000" transform="translate(0,0)"/>
<path d="" fill="#000000" transform="translate(0,0)"/>
<path d="" fill="#000000" transform="translate(0,0)"/>
<path d="" fill="#000000" transform="translate(0,0)"/>
<path d="" fill="#000000" transform="translate(0,0)"/>
<path d="" fill="#000000" transform="translate(0,0)"/>
<path d="" fill="#000000" transform="translate(0,0)"/>
<path d="" fill="#000000" transform="translate(0,0)"/>
<path d="" fill="#000000" transform="translate(0,0)"/>
<path d="" fill="#000000" transform="translate(0,0)"/>
<path d="" fill="#000000" transform="translate(0,0)"/>
<path d="" fill="#000000" transform="translate(0,0)"/>
<path d="" fill="#000000" transform="translate(0,0)"/>
<path d="" fill="#000000" transform="translate(0,0)"/>
<path d="" fill="#000000" transform="translate(0,0)"/>
<path d="" fill="#000000" transform="translate(0,0)"/>
<path d="" fill="#000000" transform="translate(0,0)"/>
<path d="" fill="#47704C" transform="translate(0,0)"/>
<path d="" fill="#000000" transform="translate(0,0)"/>
<path d="" fill="#000000" transform="translate(0,0)"/>
<path d="" fill="#000000" transform="translate(0,0)"/>
<path d="" fill="#000000" transform="translate(0,0)"/>
<path d="" fill="#000000" transform="translate(0,0)"/>
<path d="" fill="#000000" transform="translate(0,0)"/>
<path d="" fill="#000000" transform="translate(0,0)"/>
<path d="" fill="#47704C" transform="translate(0,0)"/>
<path d="" fill="#000000" transform="translate(0,0)"/>
<path d="" fill="#000000" transform="translate(0,0)"/>
<path d="" fill="#000000" transform="translate(0,0)"/>
<path d="" fill="#000000" transform="translate(0,0)"/>
<path d="" fill="#000000" transform="translate(0,0)"/>
<path d="" fill="#000000" transform="translate(0,0)"/>
<path d="" fill="#47704C" transform="translate(0,0)"/>
<path d="" fill="#47704C" transform="translate(0,0)"/>
</svg>
