<?xml version="1.0" encoding="UTF-8"?>
<svg version="1.1" xmlns="http://www.w3.org/2000/svg" width="200" height="200">
<path d="M0 0 C2.82045877 2.30263418 5.56336058 4.67903285 8.27832031 7.10449219 C11.1535235 9.666713 11.1535235 9.666713 14.50878906 11.77246094 C17.18066406 13.58496094 17.18066406 13.58496094 17.86816406 15.77246094 C18.02285156 16.66964844 18.02285156 16.66964844 18.18066406 17.58496094 C19.17066406 17.91496094 20.16066406 18.24496094 21.18066406 18.58496094 C21.51066406 19.57496094 21.84066406 20.56496094 22.18066406 21.58496094 C22.78394531 22.1740625 23.38722656 22.76316406 24.00878906 23.37011719 C26.61161449 26.02443736 28.16331475 28.75588582 29.93066406 32.02246094 C30.85105469 33.69115234 30.85105469 33.69115234 31.79003906 35.39355469 C33.13514811 38.48050439 33.50200878 40.27881822 33.18066406 43.58496094 C33.84066406 43.58496094 34.50066406 43.58496094 35.18066406 43.58496094 C39.64424539 56.0781479 40.85665551 67.12735329 40.55566406 80.33496094 C40.53909422 82.04587815 40.52476266 83.75681854 40.51269531 85.46777344 C40.3702832 98.68935945 40.3702832 98.68935945 39.18066406 103.58496094 C38.52066406 103.58496094 37.86066406 103.58496094 37.18066406 103.58496094 C37.18066406 105.89496094 37.18066406 108.20496094 37.18066406 110.58496094 C36.52066406 110.58496094 35.86066406 110.58496094 35.18066406 110.58496094 C34.52066406 113.88496094 33.86066406 117.18496094 33.18066406 120.58496094 C32.52066406 120.58496094 31.86066406 120.58496094 31.18066406 120.58496094 C31.10589844 121.42542969 31.03113281 122.26589844 30.95410156 123.13183594 C30.00301116 127.37811833 28.20111083 130.25695184 25.80566406 133.83496094 C25.40605469 134.45886719 25.00644531 135.08277344 24.59472656 135.72558594 C22.64505024 138.70140769 21.175244 140.58857431 18.18066406 142.58496094 C17.87128906 143.24496094 17.56191406 143.90496094 17.24316406 144.58496094 C16.18066406 146.58496094 16.18066406 146.58496094 14.29394531 147.52246094 C12.05773456 148.64676653 10.95666201 149.72870379 9.30566406 151.58496094 C-7.5531495 168.76523493 -31.7922615 178.47350042 -55.67724609 178.87768555 C-83.14890277 179.03784131 -105.50892955 171.73865683 -126.31811523 153.40429688 C-129.3378039 150.75277047 -132.36813316 148.62599484 -135.81933594 146.58496094 C-136.52084746 145.26962683 -137.18459519 143.93378502 -137.81933594 142.58496094 C-139.08777344 141.37839844 -139.08777344 141.37839844 -140.38183594 140.14746094 C-142.93144067 137.46710724 -143.50996572 136.19428011 -143.81933594 132.58496094 C-144.80933594 132.25496094 -145.79933594 131.92496094 -146.81933594 131.58496094 C-150.62798259 125.57828936 -153.21756631 119.65575401 -153.81933594 112.58496094 C-154.47933594 111.59496094 -155.13933594 110.60496094 -155.81933594 109.58496094 C-156.19144014 108.26192377 -156.52563767 106.92758159 -156.81933594 105.58496094 C-157.14933594 104.59496094 -157.47933594 103.60496094 -157.81933594 102.58496094 C-158.14933594 102.58496094 -158.47933594 102.58496094 -158.81933594 102.58496094 C-158.87027326 96.32278946 -158.90516878 90.06067193 -158.92919922 83.79833984 C-158.93922299 81.67038984 -158.95284555 79.5424535 -158.97021484 77.41455078 C-158.99462286 74.34631976 -159.00585555 71.27827173 -159.01464844 68.20996094 C-159.02497101 67.26693115 -159.03529358 66.32390137 -159.04592896 65.35229492 C-159.04686971 59.74541582 -158.41278806 54.96630789 -156.81933594 49.58496094 C-156.15933594 49.58496094 -155.49933594 49.58496094 -154.81933594 49.58496094 C-154.69816406 48.88628906 -154.57699219 48.18761719 -154.45214844 47.46777344 C-154.28457031 46.55769531 -154.11699219 45.64761719 -153.94433594 44.70996094 C-153.78191406 43.80503906 -153.61949219 42.90011719 -153.45214844 41.96777344 C-152.81933594 39.58496094 -152.81933594 39.58496094 -150.81933594 37.58496094 C-149.71378412 35.63398714 -148.89319267 33.94732054 -148.44433594 31.74511719 C-147.67559861 29.08816878 -146.42875814 27.18569548 -144.88183594 24.89746094 C-144.3571875 24.10984375 -143.83253906 23.32222656 -143.29199219 22.51074219 C-141.81933594 20.58496094 -141.81933594 20.58496094 -139.81933594 19.58496094 C-139.48933594 18.59496094 -139.15933594 17.60496094 -138.81933594 16.58496094 C-138.25988281 16.318125 -137.70042969 16.05128906 -137.12402344 15.77636719 C-133.75454168 14.03451645 -131.50732154 11.25605376 -128.94433594 8.52246094 C-95.59880991 -25.77011212 -37.69548479 -29.31871039 0 0 Z M34.18066406 46.58496094 C35.18066406 48.58496094 35.18066406 48.58496094 35.18066406 48.58496094 Z M35.18066406 49.58496094 C36.18066406 51.58496094 36.18066406 51.58496094 36.18066406 51.58496094 Z M36.18066406 52.58496094 C37.18066406 55.58496094 37.18066406 55.58496094 37.18066406 55.58496094 Z M-156.81933594 53.58496094 C-155.81933594 56.58496094 -155.81933594 56.58496094 -155.81933594 56.58496094 Z M37.18066406 56.58496094 C38.18066406 59.58496094 38.18066406 59.58496094 38.18066406 59.58496094 Z M-157.81933594 57.58496094 C-156.81933594 61.58496094 -156.81933594 61.58496094 -156.81933594 61.58496094 Z M38.18066406 60.58496094 C38.18066406 62.23496094 38.18066406 63.88496094 38.18066406 65.58496094 C38.51066406 65.58496094 38.84066406 65.58496094 39.18066406 65.58496094 C39.18066406 63.93496094 39.18066406 62.28496094 39.18066406 60.58496094 C38.85066406 60.58496094 38.52066406 60.58496094 38.18066406 60.58496094 Z M38.18066406 93.58496094 C38.18066406 95.23496094 38.18066406 96.88496094 38.18066406 98.58496094 C38.51066406 98.58496094 38.84066406 98.58496094 39.18066406 98.58496094 C39.18066406 96.93496094 39.18066406 95.28496094 39.18066406 93.58496094 C38.85066406 93.58496094 38.52066406 93.58496094 38.18066406 93.58496094 Z " fill="#D0874E" transform="translate(158.8193359375,19.4150390625)"/>
<path d="M0 0 C1.75944472 2.63916708 2.68645652 4.68626145 3.75 7.625 C10.05557879 23.48099923 22.89975213 33.32653049 38.25830078 39.97802734 C64.93097854 50.90530975 94.8268329 53.81684634 123 47 C123.70624512 46.83371094 124.41249023 46.66742188 125.14013672 46.49609375 C142.04744185 42.38443207 158.15361741 35.09337023 170 22 C170.56589844 21.38898438 171.13179687 20.77796875 171.71484375 20.1484375 C176.96891856 14.03904819 179.07037093 7.75447209 181 0 C181.33 0 181.66 0 182 0 C182.05513412 1.66627552 182.09329293 3.33311412 182.125 5 C182.14820313 5.928125 182.17140625 6.85625 182.1953125 7.8125 C181.74527285 15.15714712 179.60264283 20.38331807 175.5625 26.375 C175.16740234 26.98988281 174.77230469 27.60476562 174.36523438 28.23828125 C172.42962195 31.18195806 170.96642278 33.02238481 168 35 C167.690625 35.66 167.38125 36.32 167.0625 37 C166 39 166 39 164.11328125 39.9375 C161.8770705 41.06180559 160.77599795 42.14374285 159.125 44 C142.26618643 61.18027399 118.02707444 70.88853949 94.14208984 71.29272461 C66.67043317 71.45288037 44.31040638 64.1536959 23.5012207 45.81933594 C20.48153203 43.16780953 17.45120278 41.0410339 14 39 C13.29848848 37.6846659 12.63474075 36.34882408 12 35 C11.154375 34.195625 10.30875 33.39125 9.4375 32.5625 C6.88789526 29.8821463 6.30937021 28.60931917 6 25 C5.01 24.67 4.02 24.34 3 24 C1.875 21.125 1.875 21.125 1 18 C0.67 17.01 0.34 16.02 0 15 C-0.07029121 12.42734182 -0.09370832 9.88358569 -0.0625 7.3125 C-0.05798828 6.61060547 -0.05347656 5.90871094 -0.04882812 5.18554688 C-0.03706927 3.45699462 -0.01913454 1.72848635 0 0 Z " fill="#FDDB8F" transform="translate(9,127)"/>
<path d="M0 0 C0.17015625 1.10472656 0.3403125 2.20945312 0.515625 3.34765625 C2.12515319 13.70412986 3.84724608 24.03318561 5.72949219 34.34399414 C5.89481445 35.26946045 6.06013672 36.19492676 6.23046875 37.1484375 C6.37895264 37.96489746 6.52743652 38.78135742 6.68041992 39.62255859 C7.01470602 42.10940201 7.05486935 44.49383547 7 47 C6.04480469 47.47308594 5.08960938 47.94617188 4.10546875 48.43359375 C-12.85029325 57.02592174 -26.3377582 67.88022071 -32.81640625 86.32421875 C-33.26429141 87.86832634 -33.64368803 89.43222732 -34 91 C-36.41178168 87.38232749 -36.28968863 84.73010053 -36.265625 80.55078125 C-36.26753845 79.81933395 -36.2694519 79.08788666 -36.27142334 78.33427429 C-36.27278397 76.78510189 -36.269096 75.23591805 -36.26074219 73.68676758 C-36.25011735 71.3384366 -36.26060118 68.9908841 -36.2734375 66.64257812 C-36.27211438 65.13281083 -36.26954885 63.62304402 -36.265625 62.11328125 C-36.26967346 61.4202742 -36.27372192 60.72726715 -36.27789307 60.01325989 C-36.23097728 55.0241109 -35.34183153 50.7660337 -34 46 C-33.34 46 -32.68 46 -32 46 C-31.87882812 45.30132812 -31.75765625 44.60265625 -31.6328125 43.8828125 C-31.46523438 42.97273438 -31.29765625 42.06265625 -31.125 41.125 C-30.96257813 40.22007813 -30.80015625 39.31515625 -30.6328125 38.3828125 C-30 36 -30 36 -28 34 C-26.89444818 32.0490262 -26.07385673 30.3623596 -25.625 28.16015625 C-24.85626267 25.50320785 -23.6094222 23.60073455 -22.0625 21.3125 C-21.53785156 20.52488281 -21.01320313 19.73726562 -20.47265625 18.92578125 C-19 17 -19 17 -17 16 C-16.67 15.01 -16.34 14.02 -16 13 C-15.15501953 12.58621094 -15.15501953 12.58621094 -14.29296875 12.1640625 C-11.04687313 10.5161298 -8.80119504 7.97247244 -6.3125 5.375 C-1.11890625 0 -1.11890625 0 0 0 Z M-34 50 C-33 53 -33 53 -33 53 Z M-35 54 C-34 58 -34 58 -34 58 Z " fill="#FFFFFF" transform="translate(36,23)"/>
<path d="M0 0 C3.60981135 2.06274934 6.78119441 4.37413228 10 7 C10.99 7.66 11.98 8.32 13 9 C13.2475 10.0209375 13.2475 10.0209375 13.5 11.0625 C13.7475 12.0215625 13.7475 12.0215625 14 13 C14.99 13.33 15.98 13.66 17 14 C17.33 14.99 17.66 15.98 18 17 C18.60328125 17.58910156 19.2065625 18.17820312 19.828125 18.78515625 C22.43095043 21.43947643 23.98265069 24.17092488 25.75 27.4375 C26.67039062 29.10619141 26.67039062 29.10619141 27.609375 30.80859375 C28.95448405 33.89554345 29.32134471 35.69385728 29 39 C29.66 39 30.32 39 31 39 C37.52592828 54.40028751 36.12370426 69.68945672 35 86 C33.23607816 83.35411724 31.86736992 80.76872392 30.4375 77.9375 C27.09523963 71.78156058 22.93600468 66.93600468 18 62 C17.36191406 61.36191406 16.72382813 60.72382812 16.06640625 60.06640625 C9.45630607 53.89606326 1.4570365 49.16945609 -7 46 C-6.14665222 37.00105979 -4.45964263 28.18755387 -2.81640625 19.3046875 C-1.64299944 12.87525139 -0.61707467 6.50733284 0 0 Z M30 42 C31 44 31 44 31 44 Z M31 45 C32 47 32 47 32 47 Z M32 48 C33 51 33 51 33 51 Z M33 52 C34 55 34 55 34 55 Z M34 56 C34 57.65 34 59.3 34 61 C34.33 61 34.66 61 35 61 C35 59.35 35 57.7 35 56 C34.67 56 34.34 56 34 56 Z " fill="#FFFFFF" transform="translate(163,24)"/>
<path d="M0 0 C0.9708252 -0.00064453 1.94165039 -0.00128906 2.94189453 -0.00195312 C9.92185048 0.04937866 16.4994902 0.5776749 23.3125 2.1875 C23.3125 3.1775 23.3125 4.1675 23.3125 5.1875 C22.590625 5.72375 21.86875 6.26 21.125 6.8125 C16.44484693 10.76462926 13.59118234 16.20610285 12.3125 22.1875 C12.16139043 25.02138831 12.05618466 27.83610548 11.99609375 30.671875 C11.97531265 31.48746887 11.95453156 32.30306274 11.93312073 33.14337158 C11.86788703 35.74133105 11.80886232 38.33938913 11.75 40.9375 C11.70678986 42.701833 11.66317478 44.46615613 11.61914062 46.23046875 C11.51147257 50.54937968 11.4122049 54.86836854 11.3125 59.1875 C4.0525 59.1875 -3.2075 59.1875 -10.6875 59.1875 C-10.71328125 56.3928125 -10.7390625 53.598125 -10.765625 50.71875 C-10.80411342 47.99143702 -10.84925165 45.26430878 -10.89501953 42.53710938 C-10.92312497 40.65178346 -10.94439106 38.76634201 -10.95849609 36.88085938 C-10.98007089 34.159559 -11.02679349 31.43963269 -11.078125 28.71875 C-11.07935364 27.88508911 -11.08058228 27.05142822 -11.08184814 26.19250488 C-11.22758394 20.27822171 -12.73801578 16.26469768 -15.6875 11.1875 C-16.0192926 10.47533325 -16.35108521 9.7631665 -16.69293213 9.02941895 C-17.96766281 6.66864433 -19.27302458 6.243833 -21.6875 5.1875 C-22.3475 4.5275 -23.0075 3.8675 -23.6875 3.1875 C-15.84321482 0.31763957 -8.25854691 -0.00564784 0 0 Z " fill="#FFFFFF" transform="translate(98.6875,-0.1875)"/>
<path d="M0 0 C5.60149921 3.84102803 10.02656519 9.01719557 12.1875 15.5 C12.27294291 16.83528807 12.30524625 18.17443888 12.30102539 19.51245117 C12.30094986 20.31305466 12.30087433 21.11365814 12.30079651 21.93852234 C12.29563522 22.79798965 12.29047394 23.65745697 12.28515625 24.54296875 C12.2837413 25.4265657 12.28232635 26.31016266 12.28086853 27.22053528 C12.27527069 30.04289128 12.26271861 32.86516797 12.25 35.6875 C12.24498472 37.60091031 12.24042186 39.51432187 12.23632812 41.42773438 C12.22530197 46.11852014 12.20803883 50.80924663 12.1875 55.5 C12.84105469 55.33628906 13.49460937 55.17257813 14.16796875 55.00390625 C17.95741774 54.37151437 21.67240951 54.39303291 25.5 54.4375 C26.61084961 54.44426758 26.61084961 54.44426758 27.74414062 54.45117188 C29.55862899 54.46287825 31.37307534 54.48081102 33.1875 54.5 C33.1968457 53.46182129 33.20619141 52.42364258 33.21582031 51.35400391 C33.25605104 47.45840402 33.32189671 43.56356674 33.39501953 39.66845703 C33.42303914 37.99082321 33.44434709 36.31306204 33.45849609 34.63525391 C33.56797038 22.3814321 34.11097992 12.3775394 42.72265625 2.875 C44.1875 1.5 44.1875 1.5 47.1875 -0.5 C49.2734375 -0.328125 49.2734375 -0.328125 51.5625 0.25 C52.35269531 0.44851562 53.14289063 0.64703125 53.95703125 0.8515625 C56.4463054 1.5752394 58.8244307 2.43280741 61.1875 3.5 C61.1875 3.83 61.1875 4.16 61.1875 4.5 C60.60742188 4.58636719 60.02734375 4.67273438 59.4296875 4.76171875 C53.76965975 5.77977655 50.18854439 7.11790376 46.1875 11.5 C43.29477077 17.75539173 42.72321215 23.06872467 42.67578125 29.90625 C42.65783005 30.8715564 42.63987885 31.83686279 42.62138367 32.8314209 C42.56758802 35.88757068 42.53348394 38.94356706 42.5 42 C42.46679978 44.08335454 42.43230764 46.16668891 42.39648438 48.25 C42.3094684 53.33335166 42.24913682 58.41602512 42.1875 63.5 C29.6475 63.5 17.1075 63.5 4.1875 63.5 C4.16171875 60.26058594 4.1359375 57.02117188 4.109375 53.68359375 C4.07091974 50.5327093 4.02577059 47.38198656 3.97998047 44.23120117 C3.95182281 42.04801199 3.93058248 39.86472185 3.91650391 37.68139648 C3.89500271 34.53577177 3.84831416 31.39135426 3.796875 28.24609375 C3.79564636 27.2760289 3.79441772 26.30596405 3.79315186 25.3065033 C3.66206909 19.1878237 2.77805229 15.50253492 -0.8125 10.5 C-5.21754332 6.79575903 -9.29948503 5.64062379 -14.8125 4.5 C-11.12653966 0.81403966 -5.11474418 -0.90928785 0 0 Z " fill="#633001" transform="translate(75.8125,3.5)"/>
<path d="M0 0 C0.66 0.33 1.32 0.66 2 1 C1.525625 1.5775 1.05125 2.155 0.5625 2.75 C-3.18250381 8.14280548 -2.34561258 14.48085731 -1.265625 20.71020508 C-0.9334454 22.48118563 -0.59457807 24.25092125 -0.25 26.01953125 C-0.07243164 26.9593132 0.10513672 27.89909515 0.28808594 28.86735535 C0.85274353 31.85024406 1.42597997 34.83140017 2 37.8125 C2.57242561 40.81173167 3.14305839 43.81129223 3.71191406 46.811203 C4.06560263 48.67357433 4.42165284 50.53549898 4.78027344 52.39692688 C4.94043945 53.23507431 5.10060547 54.07322174 5.265625 54.93676758 C5.47880371 56.04427116 5.47880371 56.04427116 5.69628906 57.17414856 C6 59 6 59 6 61 C4.45892578 61.72703125 4.45892578 61.72703125 2.88671875 62.46875 C-12.09429473 69.66195686 -28.46693901 78.84785528 -34.84350586 95.1574707 C-37.00161379 101.89723402 -37.56620407 108.26261344 -37.75 115.3125 C-37.79253906 116.37017578 -37.83507813 117.42785156 -37.87890625 118.51757812 C-38.03891554 123.21414719 -38.06532689 127.3996776 -37 132 C-39.5376946 129.01976465 -40.46415393 126.78898975 -41.0625 122.9375 C-41.60969824 119.47191114 -41.99627272 118.00559093 -44 115 C-44.3721042 113.67696283 -44.70630173 112.34262065 -45 111 C-45.33 110.01 -45.66 109.02 -46 108 C-46.33 108 -46.66 108 -47 108 C-45.89715944 93.66307273 -39.83674628 80.87579512 -29.3671875 70.9765625 C-11.43083004 56 -11.43083004 56 -4 56 C-4.21205078 54.90123535 -4.42410156 53.8024707 -4.64257812 52.67041016 C-5.43458822 48.553335 -6.21439237 44.43402284 -6.99072266 40.31396484 C-7.32696801 38.53860227 -7.6664231 36.76384423 -8.00927734 34.98974609 C-12.26292563 12.95262363 -12.26292563 12.95262363 -11 8 C-8.59375 5.2734375 -8.59375 5.2734375 -5.5 3.375 C-4.4790625 2.72273438 -3.458125 2.07046875 -2.40625 1.3984375 C-1.6121875 0.93695313 -0.818125 0.47546875 0 0 Z " fill="#643102" transform="translate(47,14)"/>
<path d="M0 0 C4.3038116 1.39240964 8.32222218 3.2528005 11 7 C12.95035704 16.14777975 9.2863662 27.13664927 7.5 36.125 C7.16190809 37.86181347 6.8246612 39.59879165 6.48828125 41.3359375 C5.66859121 45.55925511 4.83747404 49.78017451 4 54 C5.40548096 54.46031616 5.40548096 54.46031616 6.83935547 54.92993164 C17.53803923 58.55207987 25.15712624 65.19088323 33 73 C34.02287109 73.97066406 34.02287109 73.97066406 35.06640625 74.9609375 C41.16212517 81.20666293 46.65885733 90.57893279 47.21484375 99.4140625 C46.97604653 102.01728858 46.62725657 104.46461841 46 107 C45.34 107 44.68 107 44 107 C44 109.31 44 111.62 44 114 C43.34 114 42.68 114 42 114 C41.34 117.3 40.68 120.6 40 124 C39.12677317 120.5070927 38.86247113 117.48262358 38.76147461 113.90844727 C38.27695693 98.54300039 34.77906191 86.65244082 23.5625 75.59765625 C15.17951314 68.29996679 5.31429385 63.04803574 -5 59 C-4.38414498 48.89997772 -2.43965991 39.08329468 -0.50854492 29.17382812 C2.67657098 14.49536672 2.67657098 14.49536672 0 0 Z M45 97 C45 98.65 45 100.3 45 102 C45.33 102 45.66 102 46 102 C46 100.35 46 98.7 46 97 C45.67 97 45.34 97 45 97 Z " fill="#643102" transform="translate(152,16)"/>
<path d="M0 0 C4.16658481 1.5624693 5.45469423 3.4888489 8 7.125 C9.95855737 13.00067211 9.88044771 19.00270077 7.1875 24.625 C5.64889649 27.5017759 4.86152858 28.21731428 2 30.125 C-0.875 30.5625 -0.875 30.5625 -4 30.125 C-7.60995045 27.25344851 -9.877703 24.61418799 -11 20.125 C-11.63483469 14.1167431 -11.04421858 9.47862578 -8 4.125 C-5.27685436 1.18105877 -4.02718557 0.1677994 0 0 Z " fill="#633001" transform="translate(135,102.875)"/>
<path d="M0 0 C3.71306415 3.50678281 5.08708547 7.02046622 6 12 C6.09595719 18.10927446 4.90363128 22.15003386 1 27 C-1 29 -1 29 -3.8125 29.375 C-7.77229259 28.90914205 -9.23935669 27.83732784 -12 25 C-14.88167297 19.12582049 -15.32744783 11.96865846 -13.2421875 5.734375 C-11.89421599 3.20825517 -10.36003802 1.28803042 -8.125 -0.5 C-5.0264223 -1.22907711 -3.03919806 -0.94974939 0 0 Z " fill="#633001" transform="translate(69,104)"/>
<path d="M0 0 C1.216875 0.4125 2.43375 0.825 3.6875 1.25 C5.45817923 1.83380093 7.22902855 2.41708611 9 3 C9.95519531 3.32484375 10.91039062 3.6496875 11.89453125 3.984375 C40.49226962 13.33709447 73.87289144 13.40623267 102.15625 2.890625 C105 2 105 2 107 3 C81.69059322 16.23283705 54.21216142 22.38278529 26.0703125 13.70214844 C16.88735814 10.5877408 7.93279603 6.61906385 0 1 C0 0.67 0 0.34 0 0 Z " fill="#633001" transform="translate(44,181)"/>
<path d="M0 0 C8.58 0 17.16 0 26 0 C26 0.33 26 0.66 26 1 C17.42 1 8.84 1 0 1 C0 0.67 0 0.34 0 0 Z " fill="#633001" transform="translate(86,199)"/>
<path d="M0 0 C0.33 0 0.66 0 1 0 C1 8.58 1 17.16 1 26 C0.67 26 0.34 26 0 26 C0 17.42 0 8.84 0 0 Z " fill="#FFFFFF" transform="translate(199,86)"/>
<path d="M0 0 C0.66 0.33 1.32 0.66 2 1 C-0.31 3.31 -2.62 5.62 -5 8 C-5 5 -5 5 -2.5 2.3125 C-1.675 1.549375 -0.85 0.78625 0 0 Z " fill="#FFFFFF" transform="translate(30,25)"/>
<path d="M0 0 C1.98 0 3.96 0 6 0 C6 0.33 6 0.66 6 1 C4.02 1 2.04 1 0 1 C0 0.67 0 0.34 0 0 Z " fill="#633001" transform="translate(112,198)"/>
<path d="M0 0 C1.98 0 3.96 0 6 0 C6 0.33 6 0.66 6 1 C4.02 1 2.04 1 0 1 C0 0.67 0 0.34 0 0 Z " fill="#633001" transform="translate(80,198)"/>
<path d="M0 0 C1.65 0 3.3 0 5 0 C5 0.33 5 0.66 5 1 C3.35 1 1.7 1 0 1 C0 0.67 0 0.34 0 0 Z " fill="#633001" transform="translate(118,197)"/>
<path d="M0 0 C1.65 0 3.3 0 5 0 C5 0.33 5 0.66 5 1 C3.35 1 1.7 1 0 1 C0 0.67 0 0.34 0 0 Z " fill="#633001" transform="translate(75,197)"/>
<path d="M0 0 C1.65 0 3.3 0 5 0 C5 0.33 5 0.66 5 1 C3.35 1 1.7 1 0 1 C0 0.67 0 0.34 0 0 Z " fill="#FFFFFF" transform="translate(117,0)"/>
<path d="M0 0 C1.65 0 3.3 0 5 0 C5 0.33 5 0.66 5 1 C3.35 1 1.7 1 0 1 C0 0.67 0 0.34 0 0 Z " fill="#FFFFFF" transform="translate(76,0)"/>
<path d="M0 0 C4 1 4 1 4 1 Z " fill="#633001" transform="translate(123,196)"/>
<path d="M0 0 C4 1 4 1 4 1 Z " fill="#633001" transform="translate(68,195)"/>
<path d="M0 0 C4 1 4 1 4 1 Z " fill="#633001" transform="translate(69,2)"/>
<path d="M0 0 C4 1 4 1 4 1 Z " fill="#FFFFFF" transform="translate(122,1)"/>
<path d="M0 0 C3 1 3 1 3 1 Z " fill="#633001" transform="translate(72,196)"/>
<path d="M0 0 C3 1 3 1 3 1 Z " fill="#633001" transform="translate(127,195)"/>
<path d="M0 0 C3 1 3 1 3 1 Z " fill="#633001" transform="translate(130,194)"/>
<path d="M0 0 C3 1 3 1 3 1 Z " fill="#633001" transform="translate(65,194)"/>
<path d="M0 0 C3 1 3 1 3 1 Z " fill="#633001" transform="translate(135,192)"/>
<path d="M0 0 C3 1 3 1 3 1 Z " fill="#633001" transform="translate(60,192)"/>
<path d="" fill="#633001" transform="translate(0,0)"/>
<path d="" fill="#633001" transform="translate(0,0)"/>
<path d="" fill="#633001" transform="translate(0,0)"/>
<path d="" fill="#633001" transform="translate(0,0)"/>
<path d="" fill="#633001" transform="translate(0,0)"/>
<path d="" fill="#FFFFFF" transform="translate(0,0)"/>
<path d="M0 0 C3 1 3 1 3 1 Z " fill="#633001" transform="translate(137,6)"/>
<path d="M0 0 C3 1 3 1 3 1 Z " fill="#633001" transform="translate(132,4)"/>
<path d="M0 0 C3 1 3 1 3 1 Z " fill="#633001" transform="translate(63,4)"/>
<path d="M0 0 C3 1 3 1 3 1 Z " fill="#633001" transform="translate(129,3)"/>
<path d="M0 0 C3 1 3 1 3 1 Z " fill="#633001" transform="translate(66,3)"/>
<path d="M0 0 C3 1 3 1 3 1 Z " fill="#633001" transform="translate(126,2)"/>
<path d="M0 0 C3 1 3 1 3 1 Z " fill="#FFFFFF" transform="translate(73,1)"/>
<path d="M0 0 C2 1 2 1 2 1 Z " fill="#633001" transform="translate(133,193)"/>
<path d="M0 0 C2 1 2 1 2 1 Z " fill="#633001" transform="translate(63,193)"/>
<path d="M0 0 C2 1 2 1 2 1 Z " fill="#633001" transform="translate(138,191)"/>
<path d="M0 0 C2 1 2 1 2 1 Z " fill="#633001" transform="translate(58,191)"/>
<path d="M0 0 C2 1 2 1 2 1 Z " fill="#633001" transform="translate(140,190)"/>
<path d="M0 0 C2 1 2 1 2 1 Z " fill="#633001" transform="translate(56,190)"/>
<path d="M0 0 C2 1 2 1 2 1 Z " fill="#633001" transform="translate(142,189)"/>
<path d="M0 0 C2 1 2 1 2 1 Z " fill="#633001" transform="translate(54,189)"/>
<path d="M0 0 C2 1 2 1 2 1 Z " fill="#633001" transform="translate(144,188)"/>
<path d="M0 0 C2 1 2 1 2 1 Z " fill="#633001" transform="translate(52,188)"/>
<path d="M0 0 C2 1 2 1 2 1 Z " fill="#633001" transform="translate(146,187)"/>
<path d="M0 0 C2 1 2 1 2 1 Z " fill="#633001" transform="translate(50,187)"/>
<path d="M0 0 C2 1 2 1 2 1 Z " fill="#633001" transform="translate(148,186)"/>
<path d="M0 0 C2 1 2 1 2 1 Z " fill="#633001" transform="translate(47,185)"/>
<path d="M0 0 C2 1 2 1 2 1 Z " fill="#633001" transform="translate(151,184)"/>
<path d="M0 0 C2 1 2 1 2 1 Z " fill="#633001" transform="translate(45,184)"/>
<path d="M0 0 C2 1 2 1 2 1 Z " fill="#633001" transform="translate(154,182)"/>
<path d="M0 0 C2 1 2 1 2 1 Z " fill="#633001" transform="translate(42,182)"/>
<path d="M0 0 C2 1 2 1 2 1 Z " fill="#633001" transform="translate(157,180)"/>
<path d="M0 0 C2 1 2 1 2 1 Z " fill="#633001" transform="translate(38,179)"/>
<path d="M0 0 C2 1 2 1 2 1 Z " fill="#B08648" transform="translate(162,176)"/>
<path d="M0 0 C2 1 2 1 2 1 Z " fill="#B08648" transform="translate(32,174)"/>
<path d="" fill="#FEDC90" transform="translate(0,0)"/>
<path d="" fill="#B08648" transform="translate(0,0)"/>
<path d="" fill="#633001" transform="translate(0,0)"/>
<path d="" fill="#633001" transform="translate(0,0)"/>
<path d="" fill="#FFFFFF" transform="translate(0,0)"/>
<path d="" fill="#FFFFFF" transform="translate(0,0)"/>
<path d="" fill="#FFFFFF" transform="translate(0,0)"/>
<path d="" fill="#FFFFFF" transform="translate(0,0)"/>
<path d="M0 0 C2 1 2 1 2 1 Z " fill="#FFFFFF" transform="translate(164,23)"/>
<path d="M0 0 C2 1 2 1 2 1 Z " fill="#633001" transform="translate(37,19)"/>
<path d="M0 0 C2 1 2 1 2 1 Z " fill="#633001" transform="translate(158,18)"/>
<path d="M0 0 C2 1 2 1 2 1 Z " fill="#633001" transform="translate(155,16)"/>
<path d="M0 0 C2 1 2 1 2 1 Z " fill="#633001" transform="translate(41,16)"/>
<path d="M0 0 C2 1 2 1 2 1 Z " fill="#633001" transform="translate(152,14)"/>
<path d="M0 0 C2 1 2 1 2 1 Z " fill="#633001" transform="translate(44,14)"/>
<path d="M0 0 C2 1 2 1 2 1 Z " fill="#633001" transform="translate(149,12)"/>
<path d="M0 0 C2 1 2 1 2 1 Z " fill="#633001" transform="translate(47,12)"/>
<path d="M0 0 C2 1 2 1 2 1 Z " fill="#9A5C28" transform="translate(147,11)"/>
<path d="M0 0 C2 1 2 1 2 1 Z " fill="#633001" transform="translate(49,11)"/>
<path d="M0 0 C2 1 2 1 2 1 Z " fill="#633001" transform="translate(51,10)"/>
<path d="M0 0 C2 1 2 1 2 1 Z " fill="#9A5C28" transform="translate(144,9)"/>
<path d="M0 0 C2 1 2 1 2 1 Z " fill="#633001" transform="translate(53,9)"/>
<path d="M0 0 C2 1 2 1 2 1 Z " fill="#7D4514" transform="translate(142,8)"/>
<path d="M0 0 C2 1 2 1 2 1 Z " fill="#633001" transform="translate(55,8)"/>
<path d="M0 0 C2 1 2 1 2 1 Z " fill="#633001" transform="translate(140,7)"/>
<path d="M0 0 C2 1 2 1 2 1 Z " fill="#633001" transform="translate(57,7)"/>
<path d="M0 0 C2 1 2 1 2 1 Z " fill="#633001" transform="translate(59,6)"/>
<path d="M0 0 C2 1 2 1 2 1 Z " fill="#633001" transform="translate(135,5)"/>
<path d="M0 0 C2 1 2 1 2 1 Z " fill="#633001" transform="translate(61,5)"/>
<path d="" fill="#633001" transform="translate(0,0)"/>
<path d="" fill="#633001" transform="translate(0,0)"/>
<path d="" fill="#633001" transform="translate(0,0)"/>
<path d="" fill="#633001" transform="translate(0,0)"/>
<path d="" fill="#633001" transform="translate(0,0)"/>
<path d="" fill="#633001" transform="translate(0,0)"/>
<path d="" fill="#633001" transform="translate(0,0)"/>
<path d="" fill="#633001" transform="translate(0,0)"/>
<path d="" fill="#633001" transform="translate(0,0)"/>
<path d="" fill="#633001" transform="translate(0,0)"/>
<path d="" fill="#B18648" transform="translate(0,0)"/>
<path d="" fill="#633001" transform="translate(0,0)"/>
<path d="" fill="#633001" transform="translate(0,0)"/>
<path d="" fill="#FEDC90" transform="translate(0,0)"/>
<path d="" fill="#D4AD69" transform="translate(0,0)"/>
<path d="" fill="#FEDC90" transform="translate(0,0)"/>
<path d="" fill="#FEDC90" transform="translate(0,0)"/>
<path d="" fill="#764613" transform="translate(0,0)"/>
<path d="" fill="#FEDC90" transform="translate(0,0)"/>
<path d="" fill="#FEDC90" transform="translate(0,0)"/>
<path d="" fill="#FEDC90" transform="translate(0,0)"/>
<path d="" fill="#FEDC90" transform="translate(0,0)"/>
<path d="" fill="#FEDC90" transform="translate(0,0)"/>
<path d="" fill="#FEDC90" transform="translate(0,0)"/>
<path d="" fill="#FEDC90" transform="translate(0,0)"/>
<path d="" fill="#FEDC90" transform="translate(0,0)"/>
<path d="" fill="#FEDC90" transform="translate(0,0)"/>
<path d="" fill="#FEDC90" transform="translate(0,0)"/>
<path d="" fill="#FEDC90" transform="translate(0,0)"/>
<path d="" fill="#FEDC90" transform="translate(0,0)"/>
<path d="" fill="#FEDC90" transform="translate(0,0)"/>
<path d="" fill="#FEDC90" transform="translate(0,0)"/>
<path d="" fill="#FEDC90" transform="translate(0,0)"/>
<path d="" fill="#FFFFFF" transform="translate(0,0)"/>
<path d="" fill="#FFFFFF" transform="translate(0,0)"/>
<path d="" fill="#FFFFFF" transform="translate(0,0)"/>
<path d="" fill="#FFFFFF" transform="translate(0,0)"/>
<path d="" fill="#FFFFFF" transform="translate(0,0)"/>
<path d="" fill="#FFFFFF" transform="translate(0,0)"/>
<path d="" fill="#FFFFFF" transform="translate(0,0)"/>
<path d="" fill="#FFFFFF" transform="translate(0,0)"/>
<path d="" fill="#FFFFFF" transform="translate(0,0)"/>
<path d="" fill="#FFFFFF" transform="translate(0,0)"/>
<path d="" fill="#FFFFFF" transform="translate(0,0)"/>
<path d="" fill="#FFFFFF" transform="translate(0,0)"/>
<path d="" fill="#FFFFFF" transform="translate(0,0)"/>
<path d="" fill="#FFFFFF" transform="translate(0,0)"/>
<path d="" fill="#FFFFFF" transform="translate(0,0)"/>
<path d="" fill="#FFFFFF" transform="translate(0,0)"/>
<path d="" fill="#FFFFFF" transform="translate(0,0)"/>
<path d="" fill="#FFFFFF" transform="translate(0,0)"/>
<path d="" fill="#632F00" transform="translate(0,0)"/>
<path d="" fill="#FFFFFF" transform="translate(0,0)"/>
<path d="" fill="#633001" transform="translate(0,0)"/>
<path d="" fill="#FFFFFF" transform="translate(0,0)"/>
<path d="" fill="#633001" transform="translate(0,0)"/>
<path d="" fill="#633001" transform="translate(0,0)"/>
<path d="" fill="#633001" transform="translate(0,0)"/>
<path d="" fill="#633001" transform="translate(0,0)"/>
<path d="" fill="#633001" transform="translate(0,0)"/>
<path d="" fill="#633001" transform="translate(0,0)"/>
<path d="" fill="#633001" transform="translate(0,0)"/>
<path d="" fill="#633001" transform="translate(0,0)"/>
<path d="" fill="#D0874E" transform="translate(0,0)"/>
</svg>
