<svg width="256" height="256" fill="none" xmlns="http://www.w3.org/2000/svg"><g clip-path="url(#a)"><path d="M128 256a128 128 0 1 0 0-256 128 128 0 0 0 0 256Z" fill="url(#b)"/><circle cx="128" cy="128" r="94" fill="url(#c)"/><circle cx="128" cy="128" r="89" fill="url(#d)"/><path d="M94 181c-32-9-4-42 14-58 12-7 25-16 56 19 25 29 4 39-9 40l-61-1Z" fill="url(#e)" stroke="#B57C25" stroke-opacity=".2"/><ellipse cx="81.8" cy="114.9" rx="15.1" ry="18.7" transform="rotate(-21 82 115)" fill="url(#f)" stroke="#B57C25" stroke-opacity=".2"/><ellipse cx="112.7" cy="89.3" rx="15.1" ry="18.7" transform="rotate(-6 113 89)" fill="url(#g)" stroke="#B57C25" stroke-opacity=".2"/><ellipse cx="149.5" cy="92" rx="15.1" ry="18.7" fill="url(#h)" stroke="#B57C25" stroke-opacity=".2"/><ellipse cx="176.7" cy="121.5" rx="15.1" ry="18.7" transform="rotate(9 177 121)" fill="url(#i)" stroke="#B57C25" stroke-opacity=".2"/></g><defs><radialGradient id="b" cx="0" cy="0" r="1" gradientUnits="userSpaceOnUse" gradientTransform="rotate(111 48 71) scale(204.039)"><stop stop-color="#F5E291"/><stop offset="1" stop-color="#E8C771"/></radialGradient><radialGradient id="c" cx="0" cy="0" r="1" gradientUnits="userSpaceOnUse" gradientTransform="rotate(113 65 74) scale(189.102)"><stop offset=".4" stop-color="#976E2C"/><stop offset=".8" stop-color="#E9CA74"/><stop offset="1" stop-color="#FEF6CE"/></radialGradient><radialGradient id="d" cx="0" cy="0" r="1" gradientUnits="userSpaceOnUse" gradientTransform="rotate(129 58 80) scale(114.898)"><stop stop-color="#F9E89C"/><stop offset="1" stop-color="#E1BB65"/></radialGradient><radialGradient id="e" cx="0" cy="0" r="1" gradientUnits="userSpaceOnUse" gradientTransform="rotate(142 56 93) scale(71.7147 148.767)"><stop stop-color="#FEFDF2"/><stop offset=".3" stop-color="#F6D671"/><stop offset=".5" stop-color="#C39436"/><stop offset=".8" stop-color="#895C16"/><stop offset="1" stop-color="#A16819"/></radialGradient><radialGradient id="f" cx="0" cy="0" r="1" gradientUnits="userSpaceOnUse" gradientTransform="rotate(166 39 60) scale(25.355 29.5706)"><stop stop-color="#FFFEF4"/><stop offset=".4" stop-color="#FADD89"/><stop offset=".6" stop-color="#AF7F2E"/><stop offset=".8" stop-color="#A66E1E"/><stop offset="1" stop-color="#BD7D22"/></radialGradient><radialGradient id="g" cx="0" cy="0" r="1" gradientUnits="userSpaceOnUse" gradientTransform="matrix(-24.73971 13.8725 -16.179 -28.85307 122 81)"><stop stop-color="#FFFEF4"/><stop offset=".4" stop-color="#FADD89"/><stop offset=".6" stop-color="#AF7F2E"/><stop offset=".8" stop-color="#A66E1E"/><stop offset="1" stop-color="#BD7D22"/></radialGradient><radialGradient id="h" cx="0" cy="0" r="1" gradientUnits="userSpaceOnUse" gradientTransform="rotate(139 65 72) scale(29.5883 34.5078)"><stop stop-color="#FFFEF4"/><stop offset=".4" stop-color="#FADD89"/><stop offset=".6" stop-color="#AF7F2E"/><stop offset=".8" stop-color="#A66E1E"/><stop offset="1" stop-color="#BD7D22"/></radialGradient><radialGradient id="i" cx="0" cy="0" r="1" gradientUnits="userSpaceOnUse" gradientTransform="matrix(-13.62049 24.7122 -28.82094 -15.88508 184 108)"><stop stop-color="#FFFEF4"/><stop offset=".3" stop-color="#FADD89"/><stop offset=".6" stop-color="#AF7F2E"/><stop offset=".8" stop-color="#A66E1E"/><stop offset="1" stop-color="#BD7D22"/></radialGradient><clipPath id="a"><path fill="#fff" d="M0 0h256v256H0z"/></clipPath></defs></svg>