<?xml version="1.0" encoding="UTF-8"?>
<svg version="1.1" xmlns="http://www.w3.org/2000/svg" width="200" height="200">
<path d="M0 0 C1.25296875 0.4125 2.5059375 0.825 3.796875 1.25 C28.74462541 10.06760046 48.21993996 28.50355897 60.08447266 52.01074219 C70.70512729 75.08730057 73.09510894 102.81586203 65 127 C64.5875 128.25296875 64.175 129.5059375 63.75 130.796875 C54.93239954 155.74462541 36.49644103 175.21993996 12.98925781 187.08447266 C-10.08730057 197.70512729 -37.81586203 200.09510894 -62 192 C-63.87945312 191.38125 -63.87945312 191.38125 -65.796875 190.75 C-90.74462541 181.93239954 -110.21993996 163.49644103 -122.08447266 139.98925781 C-132.70512729 116.91269943 -135.09510894 89.18413797 -127 65 C-126.5875 63.74703125 -126.175 62.4940625 -125.75 61.203125 C-116.93239954 36.25537459 -98.49644103 16.78006004 -74.98925781 4.91552734 C-51.91269943 -5.70512729 -24.18413797 -8.09510894 0 0 Z " fill="#000000" transform="translate(131,4)"/>
<path d="M0 0 C9.72679634 8.30452389 16.9271514 18.12530577 20.7109375 30.453125 C20.83984375 33.30859375 20.83984375 33.30859375 20.7109375 35.453125 C14.50913911 36.09914567 10.52248512 35.43116925 5.375 31.83203125 C3.45123859 30.23792848 1.98655382 28.60572754 0.7109375 26.453125 C0.33582031 26.93523437 -0.03929687 27.41734375 -0.42578125 27.9140625 C-5.74505121 34.4794083 -5.74505121 34.4794083 -10.2890625 35.453125 C-12.98018232 35.58893852 -15.59008431 35.54461579 -18.2890625 35.453125 C-18.12921875 34.75058594 -17.969375 34.04804687 -17.8046875 33.32421875 C-16.70856416 27.22080467 -16.44142298 20.90681835 -18.4765625 15.015625 C-22.84264621 8.84288597 -27.87023036 4.23914014 -35.2890625 2.453125 C-42.59958899 1.60571103 -48.90703405 2.70547444 -55.2890625 6.453125 C-60.23318436 10.65823075 -63.55497667 16.08939256 -64.640625 22.54296875 C-65.07433377 29.03718687 -62.89704328 34.12705814 -59.2890625 39.453125 C-54.98645361 44.20657674 -50.54250476 47.17510509 -44.03031921 47.7315979 C-42.79787979 47.74492157 -41.56544037 47.75824524 -40.2956543 47.77197266 C-39.27043419 47.78704109 -39.27043419 47.78704109 -38.22450256 47.80241394 C-35.97910353 47.83315405 -33.73382324 47.85025514 -31.48828125 47.8671875 C-29.92599981 47.88590657 -28.36372839 47.90548054 -26.8014679 47.9258728 C-22.69983849 47.97712209 -18.59817634 48.01678621 -14.49639893 48.05401611 C-10.30676214 48.09410105 -6.11726076 48.14517287 -1.92773438 48.1953125 C6.28506363 48.29198644 14.49792885 48.37641835 22.7109375 48.453125 C22.56298233 50.21695623 22.41150836 51.98049253 22.25854492 53.74389648 C22.13258186 55.21704567 22.13258186 55.21704567 22.0040741 56.71995544 C20.41634341 71.52376097 11.13218665 84.14951077 0.1796875 93.6484375 C-10.30279373 101.75694504 -23.21013347 107.854863 -36.66015625 107.31640625 C-44.93797994 106.57375915 -44.93797994 106.57375915 -52.6171875 108.828125 C-54.25167825 110.61336078 -54.25167825 110.61336078 -55.64453125 112.56640625 C-59.43442403 116.9144305 -65.92859168 118.66630139 -71.2890625 120.453125 C-72.77029797 120.5337872 -74.25488454 120.56073693 -75.73828125 120.55078125 C-76.58583984 120.54755859 -77.43339844 120.54433594 -78.30664062 120.54101562 C-79.18771484 120.53263672 -80.06878906 120.52425781 -80.9765625 120.515625 C-81.86923828 120.51111328 -82.76191406 120.50660156 -83.68164062 120.50195312 C-85.88418237 120.49017483 -88.08658849 120.47372664 -90.2890625 120.453125 C-89.59718178 114.00042696 -88.27597273 107.90956826 -86.66210938 101.6328125 C-85.64429878 97.51683119 -84.75164421 93.7158292 -85.2890625 89.453125 C-86.76076576 87.30149805 -86.76076576 87.30149805 -88.8515625 85.453125 C-99.13758512 74.63821115 -103.9161346 60.11568488 -103.57421875 45.3984375 C-102.29842078 27.74698611 -95.99687232 14.37105115 -83.28515625 2.140625 C-59.87308423 -17.65196817 -24.28938646 -19.51851593 0 0 Z " fill="#5EFDD7" transform="translate(140.2890625,46.546875)"/>
<path d="M0 0 C21.78 0 43.56 0 66 0 C64.28390626 18.87703112 57.90800466 32.67237867 43.46875 45.1953125 C32.98626877 53.30382004 20.07892903 59.401738 6.62890625 58.86328125 C-1.64891744 58.12063415 -1.64891744 58.12063415 -9.328125 60.375 C-10.96261575 62.16023578 -10.96261575 62.16023578 -12.35546875 64.11328125 C-16.14536153 68.4613055 -22.63952918 70.21317639 -28 72 C-29.48123547 72.0806622 -30.96582204 72.10761193 -32.44921875 72.09765625 C-33.29677734 72.09443359 -34.14433594 72.09121094 -35.01757812 72.08789062 C-36.33918945 72.07532227 -36.33918945 72.07532227 -37.6875 72.0625 C-38.58017578 72.05798828 -39.47285156 72.05347656 -40.39257812 72.04882812 C-42.59511987 72.03704983 -44.79752599 72.02060164 -47 72 C-46.31261551 65.36318424 -44.95828166 58.99207631 -43.4375 52.5 C-43.20353516 51.48679688 -42.96957031 50.47359375 -42.72851562 49.4296875 C-42.15590618 46.95227521 -41.57965985 44.47577035 -41 42 C-40.23333008 42.15380127 -39.46666016 42.30760254 -38.67675781 42.46606445 C-19.38537015 46.22633761 1.16475093 44.15400726 17.8515625 33.11328125 C20.36293836 31.18232912 22.69308254 29.16974939 25 27 C25.93392578 26.14535156 25.93392578 26.14535156 26.88671875 25.2734375 C33.01557794 19.02062385 36.32757491 10.82853544 40 3 C40.33 2.34 40.66 1.68 41 1 C27.47 1 13.94 1 0 1 C0 0.67 0 0.34 0 0 Z " fill="#01D59C" transform="translate(97,95)"/>
<path d="M0 0 C14.91726537 7.17037635 24.96765296 19.09210031 31.1875 34.2734375 C32.00199554 37.00669659 32.16482575 39.16705747 32 42 C25.89493812 42.63594395 21.96564274 41.97731125 16.82421875 38.58203125 C12.05153221 34.44297761 10.33359396 30.52339999 9.125 24.4375 C7.67794034 17.89754208 5.52436604 12.35302806 2.26953125 6.453125 C1.13562804 4.26207511 0.46696316 2.40795463 0 0 Z " fill="#00D39B" transform="translate(129,40)"/>
</svg>
