<?xml version="1.0" encoding="UTF-8"?>
<svg version="1.1" xmlns="http://www.w3.org/2000/svg" width="952" height="947">
<path d="M0 0 C1.88310127 -0.0146228 1.88310127 -0.0146228 3.804245 -0.02954102 C7.85000409 -0.05448433 11.89558474 -0.06797407 15.94140625 -0.07421875 C16.976283 -0.07616556 16.976283 -0.07616556 18.03206635 -0.0781517 C41.06487404 -0.11096602 63.70588934 0.75497667 86.50390625 4.23828125 C88.42082275 4.52711182 88.42082275 4.52711182 90.37646484 4.82177734 C133.29327096 11.48560105 175.02004061 24.20965956 214.50390625 42.23828125 C215.31585449 42.60244141 216.12780273 42.96660156 216.96435547 43.34179688 C230.61943946 49.47299404 243.59310573 56.6779653 256.50390625 64.23828125 C257.71675293 64.94621826 257.71675293 64.94621826 258.95410156 65.66845703 C285.7933088 81.42783073 310.7765003 100.34916758 333.5546875 121.53515625 C335.77974529 123.59782928 338.05837469 125.58828052 340.35546875 127.5703125 C344.60021039 131.27095955 348.59714659 135.18342212 352.56640625 139.17578125 C353.23478516 139.84029297 353.90316406 140.50480469 354.59179688 141.18945312 C358.53816232 145.14348886 362.29842553 149.20713548 365.94750977 153.43676758 C367.90370296 155.70104203 369.92127784 157.9060332 371.94140625 160.11328125 C376.34087495 165.00649267 380.48523655 170.02840978 384.50390625 175.23828125 C385.01663086 175.90021484 385.52935547 176.56214844 386.05761719 177.24414062 C413.91846057 213.34774347 437.0719536 252.63117874 453.50390625 295.23828125 C453.91592285 296.3041748 454.32793945 297.37006836 454.75244141 298.46826172 C472.39417422 344.67021814 483.51681921 394.97053372 483.70703125 444.54296875 C483.71409088 445.7727092 483.72115051 447.00244965 483.72842407 448.26945496 C483.74594518 452.21741513 483.75311622 456.16529028 483.75390625 460.11328125 C483.75434811 461.12306093 483.75434811 461.12306093 483.75479889 462.1532402 C483.75622585 482.33668414 483.52919077 502.23824214 480.50390625 522.23828125 C480.30302221 523.61292645 480.10234781 524.9876023 479.90185547 526.36230469 C472.3486246 577.42159805 456.53346852 625.04576572 433.50390625 671.23828125 C433.07609863 672.0979248 432.64829102 672.95756836 432.20751953 673.84326172 C414.32623089 709.48525911 390.33075006 741.8521474 363.50390625 771.23828125 C362.67503906 772.15996094 361.84617187 773.08164062 360.9921875 774.03125 C351.9659914 784.00618496 342.68423436 793.91879481 332.40234375 802.6171875 C330.17490592 804.51921775 328.03367654 806.50435845 325.87890625 808.48828125 C319.67441459 814.07232375 313.12449154 819.16520317 306.50390625 824.23828125 C305.75818359 824.81384766 305.01246094 825.38941406 304.24414062 825.98242188 C240.06852302 875.41712649 162.99915777 908.2026925 82.57324219 918.83251953 C80.52510891 919.10327975 78.47879221 919.38815077 76.43457031 919.68701172 C37.64350729 925.23285622 -5.74229641 925.0661337 -44.49609375 919.23828125 C-45.6975 919.0666748 -46.89890625 918.89506836 -48.13671875 918.71826172 C-93.43494484 912.1455549 -137.79910023 899.81890175 -179.26416016 880.28222656 C-181.39843177 879.28396082 -183.54361785 878.31549458 -185.6953125 877.35546875 C-226.99451801 858.73974295 -265.45664523 831.71862424 -298.546875 800.94140625 C-300.77193279 798.87873322 -303.05056219 796.88828198 -305.34765625 794.90625 C-309.59239789 791.20560295 -313.58933409 787.29314038 -317.55859375 783.30078125 C-318.22697266 782.63626953 -318.89535156 781.97175781 -319.58398438 781.28710938 C-323.53034982 777.33307364 -327.29061303 773.26942702 -330.93969727 769.03979492 C-332.89589046 766.77552047 -334.91346534 764.5705293 -336.93359375 762.36328125 C-341.33298808 757.47015255 -345.478748 752.44909172 -349.49609375 747.23828125 C-350.28113281 746.22145264 -350.28113281 746.22145264 -351.08203125 745.18408203 C-401.18313968 680.0387241 -434.5913488 603.88503484 -445.49609375 522.23828125 C-445.72039062 520.69213135 -445.72039062 520.69213135 -445.94921875 519.11474609 C-451.37199565 480.7170446 -451.29353396 438.56493451 -445.49609375 400.23828125 C-445.29520971 398.86363605 -445.09453531 397.4889602 -444.89404297 396.11425781 C-437.3387829 345.04124723 -421.50165557 297.45445961 -398.49609375 251.23828125 C-398.0789209 250.39458984 -397.66174805 249.55089844 -397.23193359 248.68164062 C-379.47504256 213.00795205 -355.29633865 180.59527864 -328.49609375 151.23828125 C-327.66722656 150.31660156 -326.83835937 149.39492187 -325.984375 148.4453125 C-317.0556678 138.57811345 -307.88418756 128.71645255 -297.7109375 120.11328125 C-295.89000955 118.57175495 -294.09797032 117.00780424 -292.3125 115.42578125 C-265.81977754 92.03418953 -236.71192154 72.15807904 -205.61962891 55.38818359 C-203.56406052 54.27508551 -201.51982996 53.14329471 -199.4765625 52.0078125 C-151.26310371 25.4980296 -96.10647207 9.77052631 -41.68359375 2.98828125 C-41.01763184 2.90519714 -40.35166992 2.82211304 -39.66552734 2.73651123 C-26.446576 1.10707482 -13.32579717 0.08636596 0 0 Z " fill="#ECA435" transform="translate(458.49609375,11.76171875)"/>
<path d="M0 0 C1.16971848 -0.00710495 2.33943695 -0.0142099 3.54460144 -0.02153015 C52.42612918 -0.25101709 52.42612918 -0.25101709 73.37890625 3.203125 C74.15915161 3.33132629 74.93939697 3.45952759 75.74328613 3.59161377 C85.43548723 5.19240357 95.1121158 6.88063557 104.76953125 8.6796875 C105.52521393 8.8181459 106.28089661 8.95660431 107.05947876 9.09925842 C112.26087347 10.08509222 112.26087347 10.08509222 113.37890625 11.203125 C115.58139494 11.64965695 117.79140646 12.05918094 120.00390625 12.453125 C126.7105649 13.71874415 133.0148638 15.62090174 139.46484375 17.875 C144.41034079 19.59011355 149.44169899 21.00772557 154.48193359 22.41552734 C158.21817338 23.48109102 161.73648561 24.7214494 165.29199219 26.31005859 C167.98371243 27.46194355 170.71779632 28.48189681 173.45703125 29.515625 C210.34182462 43.62916672 245.69829851 62.61497267 277.37890625 86.203125 C278.44310791 86.99348145 278.44310791 86.99348145 279.52880859 87.79980469 C291.85689928 96.99742824 303.64215375 106.70093492 315.015625 117.05859375 C316.52636115 118.42949316 318.04881226 119.78766246 319.5859375 121.12890625 C325.46745078 126.28900734 331.02565037 131.7433907 336.56640625 137.265625 C337.32695313 138.02157959 338.0875 138.77753418 338.87109375 139.55639648 C343.57969104 144.27783353 348.03167397 149.14959032 352.37890625 154.203125 C353.37667073 155.32490903 354.37660323 156.44476925 355.37890625 157.5625 C364.34301217 167.65101305 372.41124321 178.31868754 380.37890625 189.203125 C381.36579687 190.53652388 382.35276885 191.86986254 383.33984375 193.203125 C392.68572708 205.93295077 399.58769219 216.95166958 398.37890625 233.203125 C396.58720687 243.66725166 391.08663397 252.73898918 382.90234375 259.44140625 C372.33352889 266.81994418 361.08526165 267.87333002 348.609375 265.7265625 C334.23610472 261.54799356 326.11468265 249.42093885 318.01025391 237.78051758 C311.07169256 227.83495694 303.54259877 218.45020434 295.62890625 209.265625 C294.85075562 208.36142822 294.85075562 208.36142822 294.05688477 207.43896484 C290.8182671 203.72460931 287.42989657 200.21626432 283.92333984 196.75463867 C282.20032697 195.02372707 280.61967757 193.21214682 279.06640625 191.328125 C275.68775502 187.41639769 271.97978216 184.02354077 268.1015625 180.61328125 C265.73366569 178.517166 263.41739989 176.37646958 261.11157227 174.21264648 C225.55080111 141.00580749 181.48782889 116.85149321 136.06787109 100.19726562 C133.90513916 99.39767924 131.75840903 98.57353392 129.6171875 97.71875 C110.70768919 90.4111898 90.24887595 86.60922769 70.27294922 83.57275391 C68.37890625 83.203125 68.37890625 83.203125 66.37890625 82.203125 C63.89594299 81.99597163 61.42847857 81.82946734 58.94140625 81.703125 C51.78155988 81.33734288 51.78155988 81.33734288 48.37890625 80.203125 C46.49854113 80.09462747 44.6146065 80.04426385 42.73120117 80.02612305 C40.98482613 80.00687019 40.98482613 80.00687019 39.20317078 79.98722839 C37.30049187 79.97614799 37.30049187 79.97614799 35.359375 79.96484375 C34.70451929 79.96076822 34.04966358 79.9566927 33.37496376 79.95249367 C29.87799015 79.93157663 26.38105589 79.91732506 22.8840332 79.90795898 C20.05372427 79.89926923 17.22393408 79.87882515 14.39379883 79.84643555 C-11.02404515 79.56226985 -35.80803319 81.41269127 -60.55859375 87.703125 C-61.80455322 88.00718262 -63.0505127 88.31124023 -64.33422852 88.62451172 C-67.76758447 89.4676026 -71.19489498 90.33149141 -74.62109375 91.203125 C-76.18355124 91.59131696 -77.74604437 91.97936556 -79.30859375 92.3671875 C-92.11996062 95.65010026 -104.51070309 99.89129692 -116.62109375 105.203125 C-117.61665283 105.63431641 -117.61665283 105.63431641 -118.63232422 106.07421875 C-129.47454212 110.77275688 -140.15087713 115.72291844 -150.62109375 121.203125 C-151.39710938 121.60901855 -152.173125 122.01491211 -152.97265625 122.43310547 C-181.62955169 137.54052039 -207.2567457 156.77393362 -230.9609375 178.765625 C-233.11999362 180.74396717 -235.31200353 182.63955801 -237.55859375 184.515625 C-247.2850127 192.96545146 -255.62213823 203.15665527 -263.62109375 213.203125 C-264.5285516 214.30843951 -265.43748662 215.41254242 -266.34765625 216.515625 C-288.91576199 244.02498992 -307.54862786 275.01100463 -320.75976562 308.06738281 C-321.55006116 310.02699317 -322.36754469 311.9717351 -323.19921875 313.9140625 C-346.32774539 369.05733918 -352.88349256 433.33697249 -343.62109375 492.203125 C-343.32756382 494.23820039 -343.0346009 496.27335763 -342.7421875 498.30859375 C-332.79468098 564.71377335 -301.56387997 631.27294307 -255.88671875 680.7265625 C-254.04845546 682.73597444 -252.2700227 684.77451338 -250.49609375 686.83984375 C-246.00272927 691.9864392 -241.1987389 696.8094967 -236.37109375 701.640625 C-235.49324219 702.53072266 -234.61539063 703.42082031 -233.7109375 704.33789062 C-227.66106512 710.40104969 -221.30937816 715.86120042 -214.62109375 721.203125 C-213.3732297 722.25132464 -212.12918304 723.30410177 -210.890625 724.36328125 C-193.37230099 739.16562495 -173.79604724 751.36920157 -153.62109375 762.203125 C-152.76402832 762.66525391 -151.90696289 763.12738281 -151.02392578 763.60351562 C-108.97922878 786.03362818 -63.68495448 797.19477913 -16.62109375 802.203125 C-15.92601212 802.28933609 -15.23093048 802.37554718 -14.51478577 802.46437073 C-8.97947852 803.13648361 -3.51909364 803.3915123 2.0546875 803.44140625 C2.96549072 803.45110947 3.87629395 803.46081268 4.81469727 803.47080994 C7.77364563 803.4957507 10.7323631 803.50835572 13.69140625 803.515625 C15.21681534 803.51955261 15.21681534 803.51955261 16.77304077 803.52355957 C36.21959642 803.52889172 55.1493603 801.97610579 74.37890625 799.203125 C75.57290039 799.0376416 76.76689453 798.8721582 77.99707031 798.70166016 C85.15705901 797.69909822 92.27530434 796.54856195 99.37890625 795.203125 C100.22743164 795.04295898 101.07595703 794.88279297 101.95019531 794.71777344 C127.23018838 789.74870876 152.13439778 780.15121431 175.37890625 769.203125 C176.23339355 768.80270996 177.08788086 768.40229492 177.96826172 767.98974609 C208.83102283 753.39034891 236.8864777 733.83709914 262.37890625 711.203125 C263.35988281 710.33429687 264.34085938 709.46546875 265.3515625 708.5703125 C271.29363171 703.21205359 277.02079132 697.65879514 282.69140625 692.015625 C283.34931152 691.36239258 284.0072168 690.70916016 284.68505859 690.03613281 C289.118288 685.58833884 293.28826181 680.96608454 297.37890625 676.203125 C298.23613281 675.22730469 299.09335937 674.25148438 299.9765625 673.24609375 C308.8966503 662.91236288 316.98223451 651.94008005 324.80078125 640.75390625 C331.55567552 631.15829094 339.05500249 624.17059316 350.81640625 621.390625 C352.57984375 621.2978125 352.57984375 621.2978125 354.37890625 621.203125 C355.62800781 621.12771484 355.62800781 621.12771484 356.90234375 621.05078125 C368.22966536 620.65416635 377.58936583 623.96159319 386.37890625 631.203125 C393.29604954 638.96493595 397.73353499 646.72073127 398.37890625 657.203125 C398.45818359 658.27046875 398.45818359 658.27046875 398.5390625 659.359375 C399.56219516 684.62630338 370.54253949 712.47092375 354.57421875 729.796875 C353.38231533 731.10330295 352.19769364 732.41729751 351.05541992 733.76733398 C345.49109168 740.31017754 339.40661009 746.32638634 333.32739258 752.38500977 C331.44562351 754.26141975 329.56925887 756.14311469 327.69335938 758.02539062 C321.76082134 763.96186124 315.83052165 769.82485049 309.37890625 775.203125 C308.7542749 775.73446045 308.12964355 776.2657959 307.48608398 776.81323242 C256.38152667 820.13275708 197.08839025 850.9366534 132.37890625 868.203125 C131.43370117 868.45964844 130.48849609 868.71617187 129.51464844 868.98046875 C119.01775864 871.81643021 108.57410616 873.99388064 97.80859375 875.52734375 C94.76136895 875.96434886 91.77746143 876.53442575 88.76953125 877.1875 C82.64825579 878.43971312 76.4752223 879.00872289 70.25878906 879.58081055 C68.27744082 879.76345553 66.2969118 879.95491762 64.31640625 880.14648438 C48.00261731 881.6890258 31.82292072 882.43942749 15.44140625 882.453125 C14.48613037 882.45446442 13.53085449 882.45580383 12.54663086 882.45718384 C-5.32645135 882.45179501 -22.88418994 881.38965489 -40.62109375 879.203125 C-41.58257324 879.08565918 -42.54405273 878.96819336 -43.53466797 878.84716797 C-49.2600981 878.12105194 -54.93873454 877.20847391 -60.62109375 876.203125 C-61.56839355 876.04118652 -62.51569336 875.87924805 -63.49169922 875.71240234 C-134.46955865 863.45845339 -201.43837199 833.25864485 -257.62109375 788.203125 C-258.63945312 787.39617188 -259.6578125 786.58921875 -260.70703125 785.7578125 C-266.2654332 781.28929329 -271.58211923 776.59682774 -276.8203125 771.7578125 C-278.94059375 769.82383212 -281.08363481 767.94844538 -283.26171875 766.08203125 C-288.12746258 761.83689755 -292.68580958 757.28889853 -297.23950195 752.71508789 C-298.68134596 751.26788115 -300.12846491 749.82610474 -301.57617188 748.38476562 C-306.80345933 743.16161859 -311.84492791 737.84261207 -316.62109375 732.203125 C-317.53362406 731.14693657 -318.44637201 730.09093612 -319.359375 729.03515625 C-325.69256591 721.60639058 -331.7888388 714.03292727 -337.62109375 706.203125 C-338.36746094 705.20369873 -338.36746094 705.20369873 -339.12890625 704.18408203 C-391.09000602 634.28936377 -426.45123703 544.9271088 -426.82421875 456.9921875 C-426.83127838 455.87356323 -426.83833801 454.75493896 -426.84561157 453.60241699 C-427.07774695 405.9928116 -427.07774695 405.9928116 -423.62109375 383.203125 C-423.47543976 382.23868469 -423.47543976 382.23868469 -423.32684326 381.25476074 C-413.01627622 313.67485133 -387.92180056 247.6953627 -347.62109375 192.203125 C-347.07743164 191.44596191 -346.53376953 190.68879883 -345.97363281 189.90869141 C-339.35033598 180.69407124 -332.58437995 171.69346024 -325.140625 163.125 C-322.69073032 160.28388183 -320.3389603 157.38271978 -317.99609375 154.453125 C-314.48360673 150.1315115 -310.73300596 146.20730513 -306.74609375 142.32421875 C-304.72939347 140.31122564 -302.85330325 138.23796016 -300.99609375 136.078125 C-296.05492772 130.3418288 -290.71018769 125.21247568 -284.9765625 120.27734375 C-282.60517658 118.18910839 -280.29285605 116.04866739 -277.98413086 113.8918457 C-271.73100492 108.05602002 -265.33212144 102.51285634 -258.62109375 97.203125 C-257.9967041 96.70087402 -257.37231445 96.19862305 -256.72900391 95.68115234 C-224.34538784 69.64666205 -187.34569775 47.40340225 -148.62109375 32.203125 C-147.44426025 31.73894165 -147.44426025 31.73894165 -146.24365234 31.26538086 C-99.7832938 13.03758482 -50.1996171 0.20239263 0 0 Z " fill="#F9D29A" transform="translate(457.62109375,25.796875)"/>
<path d="M0 0 C6.17089309 2.63992291 12.15945017 5.28159384 16.80664062 10.20214844 C19.0035987 12.68043499 19.0035987 12.68043499 22.64257812 12.62402344 C24.56263672 12.41132813 24.56263672 12.41132813 26.52148438 12.19433594 C27.79894531 12.06800781 29.07640625 11.94167969 30.39257812 11.81152344 C32.56989336 11.52121474 34.74395014 11.19748006 36.90402222 10.79864502 C40.20031848 10.30180114 43.32223466 10.1783757 46.65478516 10.15820312 C47.94538849 10.14859558 49.23599182 10.13898804 50.56570435 10.12908936 C51.97023335 10.12423067 53.37476446 10.11995451 54.77929688 10.11621094 C55.50009304 10.11338356 56.22088921 10.11055618 56.96352768 10.10764313 C60.80186065 10.09265828 64.64015632 10.08343281 68.47851562 10.07910156 C71.5928963 10.07477258 74.70699121 10.06110146 77.82128906 10.03808594 C102.1022659 9.86227209 126.14372015 10.73548402 150.08398438 15.31933594 C150.41398437 15.64933594 150.74398438 15.97933594 151.08398438 16.31933594 C153.89448695 16.7872563 156.70311201 17.21736941 159.52148438 17.63183594 C165.67274304 18.59116233 171.18806759 19.7767839 176.88867188 22.36621094 C179.14325272 23.3450681 181.33087286 23.95714882 183.70898438 24.56933594 C188.34346891 25.91319117 192.53196106 27.85607941 196.83398438 30.00683594 C197.52548584 30.35222412 198.2169873 30.6976123 198.92944336 31.0534668 C202.22120392 32.73481451 205.40196591 34.47541575 208.48632812 36.51464844 C216.4949943 41.67600048 222.8198442 43.20619107 232.18408203 44.24731445 C249.76537806 46.292797 267.22997129 54.68612605 278.77148438 68.31152344 C288.87171676 81.95654891 296.72028219 97.26363334 302.08398438 113.31933594 C303.70437598 118.12018005 305.29239103 122.02775962 308.52148438 126.00683594 C333.33263225 159.01249137 348.25682887 201.59877375 353.08398438 242.31933594 C353.18694824 243.10904785 353.28991211 243.89875977 353.39599609 244.71240234 C355.09917289 257.97996126 355.2672904 271.21353165 355.27148438 284.56933594 C355.27248138 285.43250427 355.27347839 286.29567261 355.27450562 287.18499756 C355.2741826 289.65174092 355.26518028 292.11825601 355.25195312 294.58496094 C355.25074463 295.33603119 355.24953613 296.08710144 355.24829102 296.8609314 C355.20073438 302.08583593 355.20073438 302.08583593 354.08398438 304.31933594 C353.92616065 306.08754615 353.80758698 307.85933679 353.70898438 309.63183594 C353.18522078 316.40853106 351.74137191 322.74181143 350.08398438 329.31933594 C349.80683594 330.53234375 349.5296875 331.74535156 349.24414062 332.99511719 C347.42614387 340.75866557 345.19999418 348.28542273 342.58398438 355.81933594 C342.29942383 356.64377197 342.01486328 357.46820801 341.72167969 358.31762695 C340.10227287 362.87070832 338.25113364 367.16383694 336.02758789 371.453125 C334.89508717 373.6929272 333.95070764 376.00099285 332.97802734 378.31347656 C320.26879906 406.8276818 302.64174482 432.91749435 282.08398438 456.31933594 C281.55844971 456.92592041 281.03291504 457.53250488 280.49145508 458.1574707 C276.14505153 463.16348107 271.68301789 468.04782482 267.14648438 472.88183594 C266.48197266 473.59791016 265.81746094 474.31398438 265.1328125 475.05175781 C261.23587865 479.20571543 257.21354493 483.06831035 252.88598633 486.77124023 C250.57228873 488.75893248 248.36679404 490.85332883 246.14648438 492.94433594 C219.06326378 517.62349812 174.62694685 551.17331018 136.27148438 551.50683594 C135.21960938 551.44496094 134.16773438 551.38308594 133.08398438 551.31933594 C132.64648438 548.25683594 132.64648438 548.25683594 133.08398438 544.31933594 C134.55382415 542.50745798 136.22471053 541.07487288 137.96289062 539.51855469 C140.58501794 536.7998481 142.49185948 533.76966059 144.45898438 530.56933594 C147.84377237 525.12012832 151.48659303 520.1456582 155.63085938 515.23339844 C158.53077881 511.78858968 161.34029811 508.27804951 164.14648438 504.75683594 C164.66025635 504.11488281 165.17402832 503.47292969 165.70336914 502.81152344 C167.93226703 500.02566867 170.15080568 497.23370311 172.34570312 494.42089844 C177.14731884 488.28916914 182.3426484 482.80626106 188.03710938 477.49902344 C190.55822226 474.81432689 192.56953783 471.88766299 194.58398438 468.81933594 C195.00760254 468.17859131 195.4312207 467.53784668 195.86767578 466.87768555 C199.52376246 461.2890203 203.01262821 455.60168231 206.45898438 449.88183594 C206.95849609 449.05425781 207.45800781 448.22667969 207.97265625 447.37402344 C210.57574977 443.0109436 212.9711656 438.61493788 215.19921875 434.05004883 C216.72482049 431.06577985 218.67883375 428.41303535 220.61914062 425.69042969 C224.55738958 419.31571737 225.93150762 412.99128314 227.20898438 405.69433594 C227.54491837 403.84798113 227.88085576 402.00162695 228.21679688 400.15527344 C228.36004395 399.34622559 228.50329102 398.53717773 228.65087891 397.70361328 C229.09916178 395.23578322 229.58537206 392.77744551 230.08398438 390.31933594 C230.74398438 390.31933594 231.40398437 390.31933594 232.08398438 390.31933594 C232.16648437 389.47371094 232.24898437 388.62808594 232.33398438 387.75683594 C233.06923053 384.38695774 234.26351081 382.01538359 236.05664062 379.09277344 C237.25582617 377.1230537 237.25582617 377.1230537 238.39648438 374.00683594 C239.69102813 370.82026668 241.48811466 368.27567981 243.52148438 365.50683594 C246.9904424 360.72231968 249.17533011 355.8911838 251.08398438 350.31933594 C251.74398438 350.31933594 252.40398437 350.31933594 253.08398438 350.31933594 C255.48800078 337.19577095 253.6095011 326.59308583 249.08398438 314.31933594 C248.60058594 312.88267578 248.60058594 312.88267578 248.10742188 311.41699219 C247.7696875 310.72476562 247.43195313 310.03253906 247.08398438 309.31933594 C246.09398437 308.98933594 245.10398437 308.65933594 244.08398438 308.31933594 C243.14537898 306.44212515 242.21436983 304.56048259 241.33398438 302.65527344 C239.46633207 299.16509819 236.99433219 296.24063771 234.47460938 293.20214844 C233.08398438 291.31933594 233.08398438 291.31933594 233.08398438 289.31933594 C232.09398437 288.98933594 231.10398437 288.65933594 230.08398438 288.31933594 C228.61132812 286.67480469 228.61132812 286.67480469 227.02148438 284.50683594 C224.22784448 280.78002641 221.30968764 277.22457526 218.27148438 273.69433594 C214.48204289 269.18501576 211.12233159 264.55705184 207.89648438 259.63183594 C207.47214111 258.99012451 207.04779785 258.34841309 206.6105957 257.68725586 C204.86636823 255.0465425 203.13670064 252.40393602 201.46289062 249.71777344 C194.74766229 239.84551567 182.5359084 233.65116029 171.40429688 230.11230469 C169.1958686 229.35757247 167.38913572 228.45868171 165.39648438 227.25683594 C149.65705977 218.0507574 131.92825608 220.98250487 115.04931641 225.32910156 C111.04591367 226.39909254 107.06429071 227.54191231 103.08398438 228.69433594 C101.66579967 229.0994235 100.24750423 229.50412355 98.82910156 229.90844727 C90.77888742 232.21156942 82.75544344 234.58652125 74.78320312 237.14746094 C71.11345506 238.30999992 67.42906783 239.40609301 63.73657227 240.4934082 C55.64593445 242.8781216 47.67955271 245.4598678 39.75537109 248.3503418 C36.27908903 249.6030523 32.90887334 250.66747412 29.27148438 251.31933594 C17.99186852 253.56653213 9.38617256 260.34491917 2.56054688 269.32324219 C-3.80295338 278.86849257 -6.38881118 290.18493869 -9.27148438 301.12988281 C-10.99514301 307.5058599 -13.10490305 313.35118776 -15.91601562 319.31933594 C-18.73569403 326.44218026 -20.01994058 333.66762079 -18.91601562 341.31933594 C-16.83506763 345.41711308 -15.19230885 347.49963669 -10.91601562 349.31933594 C-4.70581561 350.3715137 1.46053389 350.34206443 7.73510742 350.15161133 C18.93773564 349.84805857 27.79357694 350.54207762 38.08398438 355.31933594 C39.25574219 355.85042969 40.4275 356.38152344 41.63476562 356.92871094 C49.25674367 360.69222445 55.37117163 364.88451448 59.23632812 372.62792969 C61.04785641 378.37974071 61.35879444 385.86171431 59.25585938 391.56542969 C58.20898438 393.19433594 58.20898438 393.19433594 56.08398438 395.31933594 C55.42398437 395.31933594 54.76398438 395.31933594 54.08398438 395.31933594 C53.74173828 396.86234375 53.74173828 396.86234375 53.39257812 398.43652344 C52.22584231 402.51445493 49.96613237 405.34394377 47.14648438 408.44433594 C44.07669376 411.90287733 41.42350101 415.31662311 39.08398438 419.31933594 C35.97520948 422.25540112 32.95044365 423.84745883 29.03222656 425.48535156 C27.07102169 426.32488488 25.14810065 427.22113333 23.22460938 428.14355469 C22.58394531 428.44970703 21.94328125 428.75585938 21.28320312 429.07128906 C19.96644853 429.70327849 18.65137854 430.33878809 17.33789062 430.97753906 C14.40171365 432.37415874 12.37793272 433.31933594 9.08398438 433.31933594 C9.08398438 433.97933594 9.08398438 434.63933594 9.08398438 435.31933594 C6.79297596 436.09216944 4.5012072 436.86261886 2.20898438 437.63183594 C1.57734375 437.84517578 0.94570313 438.05851562 0.29492188 438.27832031 C-1.77163591 438.97061717 -3.84307202 439.64641052 -5.91601562 440.31933594 C-7.07073364 440.70448364 -7.07073364 440.70448364 -8.2487793 441.09741211 C-14.60342005 443.13001149 -20.85840533 444.23721515 -27.47851562 445.00683594 C-28.55407715 445.13276123 -29.62963867 445.25868652 -30.73779297 445.38842773 C-47.4417861 447.18013419 -64.35005428 447.33622646 -80.91601562 444.31933594 C-80.91601562 442.00933594 -80.91601562 439.69933594 -80.91601562 437.31933594 C-81.94726562 437.21621094 -82.97851562 437.11308594 -84.04101562 437.00683594 C-87.91601563 436.31933594 -87.91601563 436.31933594 -90.66601562 434.88183594 C-98.20162438 431.25894711 -106.38707071 431.19695748 -114.60351562 430.88183594 C-139.46520987 429.86546277 -159.10333345 421.72660856 -176.91601562 404.31933594 C-177.64691406 403.6503125 -178.3778125 402.98128906 -179.13085938 402.29199219 C-184.54819759 397.21793085 -188.74571816 391.38098703 -192.73535156 385.15380859 C-193.54054731 383.90272487 -194.35957166 382.66045979 -195.19042969 381.42626953 C-200.72432002 373.14628516 -204.89442524 365.39391568 -203.84179688 355.17480469 C-202.27846689 348.6642279 -198.70532526 344.26435009 -194.49902344 339.25195312 C-191.56177198 335.66600579 -188.89114525 331.87974434 -186.16601562 328.13183594 C-184.96439823 326.50181724 -183.76125728 324.87292063 -182.55664062 323.24511719 C-179.00457901 318.44033651 -175.45965218 313.63033199 -171.91601562 308.81933594 C-170.75196409 307.23990077 -169.58790157 305.6604737 -168.42382812 304.08105469 C-166.06258365 300.87669696 -163.70343016 297.67081377 -161.34570312 294.46386719 C-155.68762274 286.77055066 -150.0163071 279.08782196 -144.29101562 271.44433594 C-143.56374268 270.47234253 -143.56374268 270.47234253 -142.82177734 269.48071289 C-142.36561035 268.87316162 -141.90944336 268.26561035 -141.43945312 267.63964844 C-141.01269287 267.06239014 -140.58593262 266.48513184 -140.14624023 265.89038086 C-138.91601562 264.31933594 -138.91601562 264.31933594 -136.56835938 261.94042969 C-134.1090924 258.03932298 -134.67391123 254.72977579 -135.10351562 250.25683594 C-135.16087891 249.45439453 -135.21824219 248.65195312 -135.27734375 247.82519531 C-135.57751281 243.60802185 -135.57751281 243.60802185 -136.43408203 239.48217773 C-137.10109282 236.48873873 -137.06492385 233.62719306 -137.08398438 230.56152344 C-137.08817383 229.90526474 -137.09236328 229.24900604 -137.09667969 228.57286072 C-137.10645671 226.44662482 -137.10646988 224.3205906 -137.10351562 222.19433594 C-137.10324371 221.47136322 -137.1029718 220.7483905 -137.10269165 220.00350952 C-137.0773041 205.38129617 -136.20819125 191.4461558 -132.63476562 177.20605469 C-131.96686255 174.52355266 -131.42150539 171.84884343 -130.91601562 169.13183594 C-129.93203691 164.12994412 -128.82962455 159.05551802 -126.91601562 154.31933594 C-126.25601563 153.98933594 -125.59601563 153.65933594 -124.91601562 153.31933594 C-124.00851562 153.91746094 -123.10101563 154.51558594 -122.16601562 155.13183594 C-115.20809913 159.30077546 -106.1273115 160.06964175 -98.29101562 158.44433594 C-97.535625 158.24066406 -96.78023438 158.03699219 -96.00195312 157.82714844 C-93.91601562 157.31933594 -93.91601562 157.31933594 -89.91601562 157.31933594 C-89.91601562 156.65933594 -89.91601562 155.99933594 -89.91601562 155.31933594 C-88.23632812 153.81152344 -88.23632812 153.81152344 -86.04101562 152.19433594 C-85.32171875 151.65550781 -84.60242188 151.11667969 -83.86132812 150.56152344 C-81.91601562 149.31933594 -81.91601562 149.31933594 -79.91601562 149.31933594 C-79.66464844 148.76503906 -79.41328125 148.21074219 -79.15429688 147.63964844 C-77.70913866 144.93168636 -75.96440724 142.6351995 -74.10351562 140.19433594 C-64.13063785 126.55389622 -61.41342948 113.45220101 -61.63476562 96.85717773 C-61.66582956 94.52083037 -61.67574959 92.18516634 -61.68164062 89.84863281 C-61.73145038 80.3044054 -62.15983846 70.83397907 -62.91601562 61.31933594 C-66.260323 62.04299909 -68.25863905 63.1364909 -70.91601562 65.31933594 C-71.57601562 64.98933594 -72.23601562 64.65933594 -72.91601562 64.31933594 C-71.7972318 63.1467069 -70.67078512 61.98138456 -69.54101562 60.81933594 C-68.91453125 60.16964844 -68.28804687 59.51996094 -67.64257812 58.85058594 C-65.91601562 57.31933594 -65.91601562 57.31933594 -63.91601562 57.31933594 C-64.41101563 56.24683594 -64.90601563 55.17433594 -65.41601562 54.06933594 C-68.62299333 45.44103877 -67.52159488 36.59171103 -63.91601562 28.31933594 C-63.42875 27.18625 -62.94148437 26.05316406 -62.43945312 24.88574219 C-48.12261647 -7.47106505 -32.93081551 -12.91304452 0 0 Z " fill="#FEB33B" transform="translate(401.916015625,191.6806640625)"/>
<path d="M0 0 C2.02609557 0.69313796 4.07075102 1.33288062 6.125 1.9375 C7.87296875 2.46537109 7.87296875 2.46537109 9.65625 3.00390625 C11.59188235 3.5805257 13.52874757 4.15310254 15.46875 4.71484375 C22.28685443 6.80227065 29.40802442 9.89646132 34.83872986 14.58869934 C37.52232646 16.34107707 38.88892084 16.2831904 42.06079102 16.08081055 C43.07149155 16.02689651 44.08219208 15.97298248 45.1235199 15.91743469 C46.21842239 15.84542343 47.31332489 15.77341217 48.44140625 15.69921875 C50.80855138 15.57591234 53.17591563 15.45675678 55.54345703 15.34130859 C56.77316223 15.28021912 58.00286743 15.21912964 59.26983643 15.15618896 C68.925774 14.7518767 78.59574587 14.81405526 88.25854492 14.81469727 C91.93224566 14.81250314 95.60564837 14.79421731 99.27929688 14.77539062 C123.82117789 14.71650974 147.89492576 16.26451785 172 21 C172.78552246 21.15194824 173.57104492 21.30389648 174.38037109 21.46044922 C189.85717875 24.53407462 204.30442873 30.2350495 218.6875 36.625 C219.90723511 37.16483521 219.90723511 37.16483521 221.15161133 37.71557617 C224.95015261 39.44332894 228.40638827 41.23425958 231.83203125 43.62109375 C236.83169737 46.84132281 242.21480978 47.49245983 248 48.4375 C271.7676228 52.78062839 290.88403627 62.11554256 304.95996094 82.40063477 C307.05245929 85.55311588 309.03011072 88.77004188 311 92 C311.88791299 93.4128282 312.77593615 94.82558716 313.6640625 96.23828125 C318.39623951 103.89388436 322.22517235 111.24711924 324.96484375 119.8515625 C327.3172453 127.006414 330.69711648 133.04673403 334.625 139.4375 C335.70850612 141.22566966 336.7905222 143.01474298 337.87109375 144.8046875 C338.40331543 145.68608398 338.93553711 146.56748047 339.48388672 147.47558594 C356.57927982 175.94037897 367.77013283 205.5748469 375 238 C375.22059082 238.98581055 375.44118164 239.97162109 375.66845703 240.98730469 C380.54290843 263.25617607 380.25845116 285.42755098 380.03710938 308.11669922 C380.01541886 310.38649754 379.99868572 312.65637212 379.99414062 314.92626953 C379.93719835 329.04510781 376.55493539 342.39421466 373 356 C372.65775391 357.33466309 372.65775391 357.33466309 372.30859375 358.69628906 C366.9165704 379.35225874 358.07157962 399.21368556 348 418 C347.65791504 418.64549805 347.31583008 419.29099609 346.96337891 419.95605469 C335.9254803 440.66030854 321.77631686 459.77707655 306.36376953 477.43139648 C305.42889762 478.50668327 304.50320396 479.58999889 303.58544922 480.67993164 C298.21922009 486.9747719 292.38613998 492.79996286 286.54052734 498.64477539 C284.76238228 500.42510252 282.99240439 502.21328377 281.22265625 504.00195312 C274.45512358 510.80240749 267.53478315 517.04875233 260 523 C258.1849197 524.55950185 256.37183674 526.12133812 254.5625 527.6875 C246.91502954 534.08538378 238.68426823 539.66326464 230.46459961 545.29418945 C228.81123566 546.43852367 227.16881125 547.59881517 225.53735352 548.77416992 C202.00284692 565.67923804 175.47813279 574.21332761 147.50390625 580.22900391 C144.08262188 580.98181996 140.68443835 581.80651356 137.28125 582.63671875 C125.63668986 585.29610581 114.04274924 585.1575635 102.15966797 585.13037109 C99.40196124 585.125052 96.64442027 585.13032037 93.88671875 585.13671875 C63.05301463 585.15209733 63.05301463 585.15209733 48.92578125 581.09375 C45.17825974 580.0396156 41.40819786 579.10655958 37.625 578.1875 C35.56163094 577.66964501 33.49986872 577.14578595 31.43847656 576.62011719 C29.67572044 576.1718392 27.9119105 575.72769825 26.14746094 575.28613281 C5.32060489 570.0448937 -14.36538625 563.15424847 -33.9375 554.3125 C-34.91412598 553.87325195 -35.89075195 553.43400391 -36.89697266 552.98144531 C-42.22490574 550.51274092 -47.08186333 547.76972372 -51.9074707 544.42602539 C-54.45689304 542.68863467 -57.09506358 541.16040563 -59.77075195 539.62817383 C-68.17014541 534.80087265 -75.20272738 530.7515085 -78 521 C-78.24050903 518.00064087 -78.24050903 518.00064087 -78.22705078 514.81103516 C-78.22689972 513.61024323 -78.22674866 512.40945129 -78.22659302 511.17227173 C-78.21627045 509.89081268 -78.20594788 508.60935364 -78.1953125 507.2890625 C-78.1915779 505.95242526 -78.18873304 504.61578526 -78.18673706 503.27914429 C-78.17913577 499.77744868 -78.15951788 496.2759215 -78.1373291 492.77429199 C-78.11679474 489.19460325 -78.10771918 485.61488704 -78.09765625 482.03515625 C-78.07626829 475.02336873 -78.04217516 468.01169247 -78 461 C-78.93657944 460.84535782 -79.87315887 460.69071564 -80.83811951 460.53138733 C-83.6232166 460.06332242 -86.3886216 459.53713143 -89.16015625 458.99609375 C-94.90514424 457.94580929 -100.61749931 457.47132482 -106.4375 457.0625 C-114.55942587 456.41261634 -122.22106224 455.54482392 -130 453 C-131.08796875 452.67386719 -132.1759375 452.34773438 -133.296875 452.01171875 C-148.0845416 447.23037322 -159.60433666 439.31634907 -170.53173828 428.44482422 C-171.89719812 427.10116088 -173.30461535 425.80050473 -174.71484375 424.50390625 C-185.34520436 414.52872966 -199.3872118 395.45401905 -200.1328125 380.30078125 C-200.13023437 379.31464844 -200.12765625 378.32851563 -200.125 377.3125 C-200.12757813 376.33925781 -200.13015625 375.36601563 -200.1328125 374.36328125 C-200.08898437 373.25339844 -200.04515625 372.14351562 -200 371 C-199.98960693 370.31067383 -199.97921387 369.62134766 -199.96850586 368.91113281 C-199.61597217 362.34474775 -197.1525026 358.33992114 -193.3125 353.125 C-192.7345166 352.31200439 -192.1565332 351.49900879 -191.56103516 350.66137695 C-189.72625747 348.09332989 -187.86549291 345.54579769 -186 343 C-184.80302604 341.34531199 -183.6064063 339.69036768 -182.41015625 338.03515625 C-176.81970729 330.34433869 -171.09353221 322.77729249 -165.17651367 315.33544922 C-160.78950847 309.79254342 -156.58890457 304.11651989 -152.43310547 298.39868164 C-149.36060873 294.17410439 -146.23988289 290.00908102 -142.99609375 285.9140625 C-142.34809814 285.08028076 -141.70010254 284.24649902 -141.0324707 283.38745117 C-139.79622502 281.79961993 -138.54177794 280.22572854 -137.26635742 278.66918945 C-132.90872399 273.00558326 -132.2364034 269.02774471 -133 262 C-133.07847168 261.15888672 -133.15694336 260.31777344 -133.23779297 259.45117188 C-133.40690073 257.64423035 -133.58115799 255.83776553 -133.75976562 254.03173828 C-137.71979919 204.05643664 -126.38041945 153.36615443 -98.25 111.625 C-97.33202637 110.25819092 -97.33202637 110.25819092 -96.39550781 108.86376953 C-90.05139924 99.49050697 -83.4285641 90.5823496 -75.8125 82.1875 C-74.99652344 81.28386719 -74.18054688 80.38023437 -73.33984375 79.44921875 C-71 77 -71 77 -68.81640625 75.20703125 C-66.04486176 72.77007966 -64.19257211 70.83216013 -63.79296875 67.03027344 C-63.73126669 63.78951315 -63.84938309 60.56572999 -63.96948242 57.32739258 C-64.20096192 49.3440414 -62.39345758 43.21131041 -59 36 C-58.61344238 35.14937988 -58.22688477 34.29875977 -57.82861328 33.42236328 C-51.21269788 18.97424302 -44.75105713 5.60159841 -30 -2 C-21.99826377 -4.48942905 -7.05956023 -4.70637349 0 0 Z M-38 20 C-39.85460883 22.93970552 -41.47711828 25.9705972 -43.0625 29.0625 C-43.49224121 29.89595947 -43.92198242 30.72941895 -44.36474609 31.58813477 C-50.08199879 42.88713455 -55.82973759 54.61357682 -52.3125 67.5234375 C-51.46103322 69.9517574 -51.46103322 69.9517574 -50 73 C-50.556875 73.20625 -51.11375 73.4125 -51.6875 73.625 C-54.92501302 75.55000774 -56.68231141 78.03850902 -59 81 C-56.08482708 79.92598892 -54.22189824 79.22189824 -52 77 C-51.01 77 -50.02 77 -49 77 C-48.19723446 87.23313818 -47.75808892 97.42440278 -47.70483398 107.68847656 C-47.6932773 109.22958531 -47.67276741 110.7706529 -47.64331055 112.31152344 C-47.39217602 125.56132496 -48.33180116 138.60946681 -55.875 150 C-56.90753906 151.57201172 -56.90753906 151.57201172 -57.9609375 153.17578125 C-60.46244988 156.64051966 -63.16271916 159.80805906 -66 163 C-66 163.66 -66 164.32 -66 165 C-66.53625 165.2475 -67.0725 165.495 -67.625 165.75 C-70.5823982 167.30652537 -73.29724051 169.03435673 -76 171 C-76 171.66 -76 172.32 -76 173 C-77.65269077 173.2410174 -79.30588023 173.47893398 -80.9609375 173.703125 C-82.85726577 173.97921877 -84.7422398 174.33042479 -86.625 174.6875 C-95.60488914 175.77067729 -104.30278686 173.52777243 -112 169 C-115.63786297 175.77965371 -117.23854125 182.67624256 -118.5 190.1875 C-118.62745605 190.9307251 -118.75491211 191.6739502 -118.88623047 192.43969727 C-119.14166024 193.93281797 -119.39544021 195.42622198 -119.64746094 196.91992188 C-119.95849456 198.75510642 -120.27928013 200.58863244 -120.6015625 202.421875 C-120.77429688 203.41703125 -120.94703125 204.4121875 -121.125 205.4375 C-121.27195312 206.28183594 -121.41890625 207.12617188 -121.5703125 207.99609375 C-122.84212345 216.88720846 -123.18635288 225.6805874 -123.18530273 234.65722656 C-123.18748177 236.7326331 -123.2056848 238.80749988 -123.22460938 240.8828125 C-123.2562893 248.69998016 -122.65478793 256.20967331 -121.45703125 263.94775391 C-120.03912138 273.41714985 -120.03912138 273.41714985 -122.94921875 278.2109375 C-123.84435292 279.28062536 -124.75844313 280.33463918 -125.6875 281.375 C-126.71191946 282.5972637 -127.73259067 283.82267619 -128.75 285.05078125 C-129.28625 285.69225098 -129.8225 286.3337207 -130.375 286.99462891 C-133.13712793 290.4033006 -135.65089622 293.98469423 -138.1875 297.5625 C-143.06272773 304.3904716 -148.08128217 311.09317786 -153.1875 317.75 C-158.39539542 324.54383888 -163.48959759 331.38703128 -168.421875 338.3828125 C-172.25325946 343.79564887 -176.22591362 349.10684259 -180.18017578 354.43017578 C-181.29973277 355.94168906 -182.41410252 357.45706263 -183.52246094 358.97680664 C-184.78317897 360.70310709 -186.06521828 362.413803 -187.3515625 364.12109375 C-190.69268059 369.9561744 -190.57009572 376.59556019 -189 383 C-184.29692434 394.71068025 -176.62710254 405.8372277 -168 415 C-167.29520508 415.7719873 -167.29520508 415.7719873 -166.57617188 416.55957031 C-151.20757415 433.31193066 -131.79926766 444.78652751 -108.67333984 446.13574219 C-106.13665509 446.24487921 -103.59977263 446.34305761 -101.0625 446.4375 C-91.8056034 446.8024454 -82.25555071 447.31324714 -73.8671875 451.6015625 C-70.93247963 453.29225025 -70.93247963 453.29225025 -67 453 C-67 455.31 -67 457.62 -67 460 C-42.46884959 464.46746154 -13.35567123 464.23922877 10 455 C12.41104923 454.23213323 14.82791656 453.48231796 17.25 452.75 C18.89742188 452.24726562 18.89742188 452.24726562 20.578125 451.734375 C21.37734375 451.49203125 22.1765625 451.2496875 23 451 C23 450.34 23 449.68 23 449 C23.99 448.87431641 23.99 448.87431641 25 448.74609375 C28.9940606 447.7527792 32.36381997 445.95774144 36 444.0625 C37.39487358 443.34318789 38.7906864 442.62569378 40.1875 441.91015625 C40.8475 441.57000488 41.5075 441.22985352 42.1875 440.87939453 C44 440 44 440 46.6875 439.05859375 C52.33935026 436.47134473 55.98197018 430.63725108 59.6875 425.8125 C64.77533784 419.22466216 64.77533784 419.22466216 67 417 C67.39764263 415.01178687 67.73775349 413.01055661 68 411 C68.66 411 69.32 411 70 411 C73.96411938 407.03588062 74.34498923 403.68153977 74.5 398.125 C74.22590468 389.97922981 72.46355744 385.15063743 66.6875 379.4375 C55.01285325 369.90138667 39.80555383 365.4428582 25 365.875 C3.11111111 366.34722222 3.11111111 366.34722222 -3 361 C-6.10932487 356.07868925 -5.54592917 350.60576049 -5 345 C-3.80346838 340.10285511 -2.05096854 335.47956752 -0.08544922 330.84228516 C2.67059726 324.228569 4.56517968 317.54932417 6.375 310.625 C10.59356826 295.1730579 16.04942113 281.19429908 30.140625 272.015625 C35.56592677 269.05222488 41.1767175 267.13038319 47.1875 265.75 C54.55827648 264.02983183 61.61340132 261.42321564 68.72729492 258.86816406 C73.42156723 257.19325725 78.04633054 255.6664974 82.8984375 254.53051758 C87.53335848 253.36048002 92.06806584 251.81386709 96.625 250.375 C106.73810235 247.22517323 116.89611442 244.30697408 127.125 241.5625 C128.38650879 241.2207373 129.64801758 240.87897461 130.94775391 240.52685547 C148.22745506 235.94548707 163.62240716 234.89959854 179.70898438 243.33691406 C183.23048482 245.17331414 186.64985905 246.63274298 190.4375 247.8125 C204.98311747 252.95380809 213.79281464 262.38161614 222 275 C223.52778327 277.28042283 225.07323002 279.54834802 226.625 281.8125 C227.34429688 282.86308594 228.06359375 283.91367187 228.8046875 284.99609375 C231.61428188 288.84053873 234.73706463 292.29312139 237.98828125 295.765625 C239.8242209 297.80476574 241.39367728 299.86133032 242.9375 302.125 C243.618125 303.07375 244.29875 304.0225 245 305 C245.66 305 246.32 305 247 305 C247.37125 306.06541016 247.37125 306.06541016 247.75 307.15234375 C249.14749092 310.33600274 250.90398312 312.79221298 253 315.5625 C255.30945386 318.62337543 257.41837027 321.4989967 259 325 C259.66 325 260.32 325 261 325 C261.69427323 327.08281968 262.38582475 329.16657256 263.06640625 331.25390625 C263.69754607 333.11035519 264.37358716 334.9520447 265.08984375 336.77734375 C268.77166578 346.53875802 268.89735395 355.78822508 267 366 C266.34 366 265.68 366 265 366 C264.5978125 367.10794922 264.5978125 367.10794922 264.1875 368.23828125 C261.51796362 375.14921918 258.28492681 380.66105724 253.79296875 386.53515625 C251.54596422 389.62417555 250.30808262 392.4199844 249 396 C248.44184138 397.25194457 247.87932112 398.5019535 247.3125 399.75 C245.81276848 402.87945113 245.81276848 402.87945113 246 406 C245.34 406 244.68 406 244 406 C243.55955806 408.08247792 243.11937352 410.16501058 242.68041992 412.24780273 C242.30823184 414.00829327 241.93336673 415.76821984 241.5559082 417.52758789 C240.63965558 421.82354602 239.82488512 426.09039028 239.1875 430.4375 C237.99133659 436.63580129 234.33648493 441.74633665 231 447 C229.22051166 449.88565676 227.54949373 452.80963411 225.94140625 455.79296875 C220.2678946 466.30303484 214.05232967 476.28398822 207.27954102 486.12011719 C206.11538781 487.83047393 204.99459195 489.57014001 203.87890625 491.3125 C202.1605889 493.77030112 200.63791695 495.39746658 198.3125 497.25 C190.10250269 504.22018187 183.72255567 512.56028695 177.37207031 521.18969727 C174.73116306 524.7609815 172.06179147 528.14770629 169 531.375 C164.45119178 536.27591262 160.96122721 541.90278727 157.38671875 547.53076172 C155.0527024 551.15458804 152.80165264 554.34417474 149.65625 557.30859375 C146.60492699 559.83450251 146.60492699 559.83450251 146.625 563.875 C146.74875 564.90625 146.8725 565.9375 147 567 C174.59242364 569.25244275 208.77949555 547.51782154 230 532 C230.98685791 531.28263672 230.98685791 531.28263672 231.99365234 530.55078125 C244.40686052 521.48485686 256.21786603 511.88602834 267.47070312 501.41162109 C269.00458024 499.9957722 270.55388083 498.59907167 272.109375 497.20703125 C277.6539273 492.23085905 282.89766135 487.12324265 287.8046875 481.50390625 C289.28138915 479.81962554 290.78753503 478.16075812 292.3203125 476.52734375 C299.8559455 468.49498896 306.43673224 459.83171675 313 451 C313.44875488 450.40316406 313.89750977 449.80632812 314.35986328 449.19140625 C327.25528486 432.0041264 337.30278436 413.11991034 347 394 C347.3727002 393.27723877 347.74540039 392.55447754 348.12939453 391.80981445 C356.73354075 374.97305547 362.61451535 355.90506684 365.45703125 337.24609375 C366 334 366 334 367 332 C367.20418935 330.00348191 367.36522296 328.00240179 367.5 326 C367.88888889 320.22222222 367.88888889 320.22222222 369 318 C369.11164567 315.41282275 369.16378734 312.85348103 369.16796875 310.265625 C369.17432091 309.09397293 369.17432091 309.09397293 369.18080139 307.89865112 C369.19074613 305.34904697 369.19071133 302.79962025 369.1875 300.25 C369.18689575 299.38276306 369.1862915 298.51552612 369.18566895 297.62200928 C369.16039644 284.32035102 368.83285337 271.19355594 367 258 C366.80664062 256.5763916 366.80664062 256.5763916 366.609375 255.12402344 C361.2447083 216.88835499 348.07820353 175.96120306 324.625 144.77734375 C319.88314301 138.44151794 317.03866593 132.93510253 314.625 125.4375 C306.80883818 101.18434182 292.83739415 78.72271523 269.81591797 66.89599609 C261.09219599 62.59160517 253.05353827 60.7779741 243.5 59.6875 C234.36790313 58.59859539 228.74072807 56.21379922 220.98632812 51.19726562 C216.8956444 48.73159293 212.55955357 46.73702771 208.25 44.6875 C207.38632812 44.26718506 206.52265625 43.84687012 205.6328125 43.41381836 C200.5959008 41.01907106 195.61806861 39.13452804 190.2421875 37.64404297 C188.03016285 37.00866394 185.90175737 36.25166407 183.75 35.4375 C178.75171435 33.72990063 173.65820493 33.1497863 168.4296875 32.52734375 C165 32 165 32 161.8046875 31.0390625 C156.66973708 29.63670438 151.52883797 29.05796043 146.25 28.4375 C145.2290625 28.31181641 144.208125 28.18613281 143.15625 28.05664062 C140.10528063 27.68688482 137.05592849 27.32671904 134 27 C133.24797302 26.91446365 132.49594604 26.82892731 131.72113037 26.74079895 C123.60409399 25.89605724 115.51051292 25.83621786 107.359375 25.83203125 C105.86403371 25.8288071 104.36869272 25.82544222 102.87335205 25.82194519 C99.753614 25.81599516 96.63390347 25.814101 93.51416016 25.81469727 C89.55986086 25.81479863 85.60574211 25.80115376 81.65148544 25.78392506 C78.56611353 25.772686 75.48078364 25.77078167 72.39539337 25.77130699 C70.93967314 25.77014443 69.48395118 25.76582254 68.02825165 25.75797462 C59.31407712 25.71538902 50.9027572 26.22845135 42.29864502 27.57060242 C33.9460719 28.65788968 33.9460719 28.65788968 31.05078125 26.64453125 C30.47714844 26.03996094 29.90351563 25.43539062 29.3125 24.8125 C18.65770467 14.60499245 -2.82329178 7.65656185 -17.4375 7.1875 C-27.17357093 7.81354447 -32.31502538 12.51032905 -38 20 Z " fill="#FEE2B4" transform="translate(388,176)"/>
<path d="M0 0 C0.63397705 0.34184326 1.2679541 0.68368652 1.92114258 1.03588867 C2.61119385 1.38868896 3.30124512 1.74148926 4.01220703 2.10498047 C7.32483448 3.82192117 10.52650602 5.61932327 13.63989258 7.67651367 C21.65118472 12.82663005 27.97170345 14.36048852 37.33374023 15.40136719 C54.91503626 17.44684974 72.3796295 25.84017878 83.92114258 39.46557617 C94.02137496 53.11060165 101.86994039 68.41768608 107.23364258 84.47338867 C108.85403418 89.27423279 110.44204923 93.18181235 113.67114258 97.16088867 C143.33749643 136.62530435 157.20466514 186.85058366 160.23364258 235.47338867 C160.29197266 236.28106689 160.35030273 237.08874512 160.41040039 237.92089844 C160.63293446 243.11858131 160.00536042 245.86950256 156.60864258 250.03588867 C155.8790332 250.96014648 155.14942383 251.8844043 154.39770508 252.83666992 C153.68356445 253.70678711 152.96942383 254.5769043 152.23364258 255.47338867 C151.14198567 256.88365133 150.05765074 258.29963939 148.98364258 259.72338867 C148.50668945 260.35245117 148.02973633 260.98151367 147.53833008 261.62963867 C146.25624273 263.44145074 145.17256873 265.27698114 144.10864258 267.22338867 C141.11214725 272.41731391 141.11214725 272.41731391 138.23364258 274.47338867 C132.29954348 275.38632699 128.09107555 273.68914449 123.23364258 270.47338867 C116.61150005 265.42159762 112.59859369 258.12570874 108.28833008 251.15209961 C106.3625771 248.08694278 104.29247383 245.11918333 102.22973633 242.14526367 C101.23364258 240.47338867 101.23364258 240.47338867 101.23364258 238.47338867 C100.24364258 238.14338867 99.25364258 237.81338867 98.23364258 237.47338867 C97.96551758 236.77213867 97.69739258 236.07088867 97.42114258 235.34838867 C95.64145455 231.03967029 92.48431459 226.59872468 88.23364258 224.47338867 C87.75926758 223.50401367 87.28489258 222.53463867 86.79614258 221.53588867 C85.43731416 218.25595692 85.43731416 218.25595692 82.23364258 216.47338867 C81.77989258 215.71026367 81.32614258 214.94713867 80.85864258 214.16088867 C79.31505581 211.35329607 79.31505581 211.35329607 76.79614258 209.09838867 C74.41622048 206.66041969 73.01606574 204.36482257 71.37792969 201.41333008 C70.2098547 199.43306042 68.93605965 197.60085323 67.57739258 195.74682617 C61.6167662 187.6073023 57.46719842 180.46272737 55.23364258 170.47338867 C54.81750309 168.952411 54.40091585 167.43155568 53.98364258 165.91088867 C53.23364258 162.47338867 53.23364258 162.47338867 53.23364258 158.47338867 C52.57364258 158.47338867 51.91364258 158.47338867 51.23364258 158.47338867 C48.35511473 150.94746663 45.95365604 143.88356379 44.67895508 135.91088867 C44.00026503 132.19595367 42.73986747 128.92390386 41.23364258 125.47338867 C40.77602539 124.39186523 40.3184082 123.3103418 39.84692383 122.19604492 C36.92428137 114.7362473 36.92428137 114.7362473 31.23364258 109.47338867 C27.57351225 108.36227768 24.12264645 107.58212436 20.32739258 107.11791992 C10.6981596 105.88994955 5.68398355 102.70174956 -0.39135742 95.22338867 C-2.74699797 92.07371198 -4.68962494 88.85595966 -6.57885742 85.41088867 C-9.77678334 79.92627379 -14.1156562 75.45545445 -19.76635742 72.47338867 C-23.50505533 72.67045035 -24.43313958 73.11240268 -27.01635742 75.91088867 C-28.74524598 78.31857146 -28.74524598 78.31857146 -29.76635742 80.47338867 C-32.48528306 81.37969722 -34.37979729 81.69540445 -37.20385742 81.78588867 C-37.96569336 81.82327148 -38.7275293 81.8606543 -39.51245117 81.89916992 C-42.77177139 81.28345778 -43.71459101 80.07880634 -45.76635742 77.47338867 C-47.28014188 74.77132168 -48.56177659 71.98557561 -49.82885742 69.16088867 C-50.16723633 68.42676758 -50.50561523 67.69264648 -50.85424805 66.9362793 C-51.52281457 65.47888187 -52.18302989 64.01762189 -52.83447266 62.55249023 C-53.6890858 60.64578719 -54.58887482 58.75950061 -55.49291992 56.87573242 C-59.28015789 46.75706901 -57.34643232 32.17196822 -53.50854492 22.20776367 C-50.76308439 16.37186328 -48.08474634 11.22754556 -42.76635742 7.47338867 C-39.69474218 7.01945539 -36.84258744 7.10424107 -33.76635742 7.47338867 C-33.76635742 6.81338867 -33.76635742 6.15338867 -33.76635742 5.47338867 C-30.80491399 3.91613629 -27.8201567 2.4098793 -24.82885742 0.91088867 C-23.99805664 0.47325195 -23.16725586 0.03561523 -22.3112793 -0.4152832 C-14.16178762 -4.44246392 -8.04336037 -4.10891497 0 0 Z " fill="#DA8C01" transform="translate(596.766357421875,220.526611328125)"/>
<path d="M0 0 C2.02609557 0.69313796 4.07075102 1.33288062 6.125 1.9375 C7.87296875 2.46537109 7.87296875 2.46537109 9.65625 3.00390625 C11.59188235 3.5805257 13.52874757 4.15310254 15.46875 4.71484375 C22.28685443 6.80227065 29.40802442 9.89646132 34.83872986 14.58869934 C37.52232646 16.34107707 38.88892084 16.2831904 42.06079102 16.08081055 C43.07149155 16.02689651 44.08219208 15.97298248 45.1235199 15.91743469 C46.21842239 15.84542343 47.31332489 15.77341217 48.44140625 15.69921875 C50.80855138 15.57591234 53.17591563 15.45675678 55.54345703 15.34130859 C56.77316223 15.28021912 58.00286743 15.21912964 59.26983643 15.15618896 C68.925774 14.7518767 78.59574587 14.81405526 88.25854492 14.81469727 C91.93224566 14.81250314 95.60564837 14.79421731 99.27929688 14.77539062 C123.82117789 14.71650974 147.89492576 16.26451785 172 21 C172.78552246 21.15194824 173.57104492 21.30389648 174.38037109 21.46044922 C189.85717875 24.53407462 204.30442873 30.2350495 218.6875 36.625 C219.90723511 37.16483521 219.90723511 37.16483521 221.15161133 37.71557617 C224.95015261 39.44332894 228.40638827 41.23425958 231.83203125 43.62109375 C236.83169737 46.84132281 242.21480978 47.49245983 248 48.4375 C271.7676228 52.78062839 290.88403627 62.11554256 304.95996094 82.40063477 C307.05245929 85.55311588 309.03011072 88.77004188 311 92 C311.88791299 93.4128282 312.77593615 94.82558716 313.6640625 96.23828125 C318.39623951 103.89388436 322.22517235 111.24711924 324.96484375 119.8515625 C327.3172453 127.006414 330.69711648 133.04673403 334.625 139.4375 C335.70850612 141.22566966 336.7905222 143.01474298 337.87109375 144.8046875 C338.40331543 145.68608398 338.93553711 146.56748047 339.48388672 147.47558594 C356.57927982 175.94037897 367.77013283 205.5748469 375 238 C375.22059082 238.98581055 375.44118164 239.97162109 375.66845703 240.98730469 C380.54290843 263.25617607 380.25845116 285.42755098 380.03710938 308.11669922 C380.01541886 310.38649754 379.99868572 312.65637212 379.99414062 314.92626953 C379.93719835 329.04510781 376.55493539 342.39421466 373 356 C372.65775391 357.33466309 372.65775391 357.33466309 372.30859375 358.69628906 C366.9165704 379.35225874 358.07157962 399.21368556 348 418 C347.65791504 418.64549805 347.31583008 419.29099609 346.96337891 419.95605469 C335.9254803 440.66030854 321.77631686 459.77707655 306.36376953 477.43139648 C305.42889762 478.50668327 304.50320396 479.58999889 303.58544922 480.67993164 C298.21922009 486.9747719 292.38613998 492.79996286 286.54052734 498.64477539 C284.76238228 500.42510252 282.99240439 502.21328377 281.22265625 504.00195312 C274.45512358 510.80240749 267.53478315 517.04875233 260 523 C258.1849197 524.55950185 256.37183674 526.12133812 254.5625 527.6875 C246.91502954 534.08538378 238.68426823 539.66326464 230.46459961 545.29418945 C228.81123566 546.43852367 227.16881125 547.59881517 225.53735352 548.77416992 C202.00284692 565.67923804 175.47813279 574.21332761 147.50390625 580.22900391 C144.08262188 580.98181996 140.68443835 581.80651356 137.28125 582.63671875 C125.63668986 585.29610581 114.04274924 585.1575635 102.15966797 585.13037109 C99.40196124 585.125052 96.64442027 585.13032037 93.88671875 585.13671875 C63.05301463 585.15209733 63.05301463 585.15209733 48.92578125 581.09375 C45.17825974 580.0396156 41.40819786 579.10655958 37.625 578.1875 C35.56163094 577.66964501 33.49986872 577.14578595 31.43847656 576.62011719 C29.67572044 576.1718392 27.9119105 575.72769825 26.14746094 575.28613281 C5.32060489 570.0448937 -14.36538625 563.15424847 -33.9375 554.3125 C-34.91412598 553.87325195 -35.89075195 553.43400391 -36.89697266 552.98144531 C-42.22490574 550.51274092 -47.08186333 547.76972372 -51.9074707 544.42602539 C-54.45689304 542.68863467 -57.09506358 541.16040563 -59.77075195 539.62817383 C-68.17014541 534.80087265 -75.20272738 530.7515085 -78 521 C-78.24050903 518.00064087 -78.24050903 518.00064087 -78.22705078 514.81103516 C-78.22689972 513.61024323 -78.22674866 512.40945129 -78.22659302 511.17227173 C-78.21627045 509.89081268 -78.20594788 508.60935364 -78.1953125 507.2890625 C-78.1915779 505.95242526 -78.18873304 504.61578526 -78.18673706 503.27914429 C-78.17913577 499.77744868 -78.15951788 496.2759215 -78.1373291 492.77429199 C-78.11679474 489.19460325 -78.10771918 485.61488704 -78.09765625 482.03515625 C-78.07626829 475.02336873 -78.04217516 468.01169247 -78 461 C-78.93657944 460.84535782 -79.87315887 460.69071564 -80.83811951 460.53138733 C-83.6232166 460.06332242 -86.3886216 459.53713143 -89.16015625 458.99609375 C-94.90514424 457.94580929 -100.61749931 457.47132482 -106.4375 457.0625 C-114.55942587 456.41261634 -122.22106224 455.54482392 -130 453 C-131.08796875 452.67386719 -132.1759375 452.34773438 -133.296875 452.01171875 C-148.0845416 447.23037322 -159.60433666 439.31634907 -170.53173828 428.44482422 C-171.89719812 427.10116088 -173.30461535 425.80050473 -174.71484375 424.50390625 C-185.34520436 414.52872966 -199.3872118 395.45401905 -200.1328125 380.30078125 C-200.13023437 379.31464844 -200.12765625 378.32851563 -200.125 377.3125 C-200.12757813 376.33925781 -200.13015625 375.36601563 -200.1328125 374.36328125 C-200.08898437 373.25339844 -200.04515625 372.14351562 -200 371 C-199.98960693 370.31067383 -199.97921387 369.62134766 -199.96850586 368.91113281 C-199.61597217 362.34474775 -197.1525026 358.33992114 -193.3125 353.125 C-192.7345166 352.31200439 -192.1565332 351.49900879 -191.56103516 350.66137695 C-189.72625747 348.09332989 -187.86549291 345.54579769 -186 343 C-184.80302604 341.34531199 -183.6064063 339.69036768 -182.41015625 338.03515625 C-176.81970729 330.34433869 -171.09353221 322.77729249 -165.17651367 315.33544922 C-160.78950847 309.79254342 -156.58890457 304.11651989 -152.43310547 298.39868164 C-149.36060873 294.17410439 -146.23988289 290.00908102 -142.99609375 285.9140625 C-142.34809814 285.08028076 -141.70010254 284.24649902 -141.0324707 283.38745117 C-139.79622502 281.79961993 -138.54177794 280.22572854 -137.26635742 278.66918945 C-132.90872399 273.00558326 -132.2364034 269.02774471 -133 262 C-133.07847168 261.15888672 -133.15694336 260.31777344 -133.23779297 259.45117188 C-133.40690073 257.64423035 -133.58115799 255.83776553 -133.75976562 254.03173828 C-137.71979919 204.05643664 -126.38041945 153.36615443 -98.25 111.625 C-97.33202637 110.25819092 -97.33202637 110.25819092 -96.39550781 108.86376953 C-90.05139924 99.49050697 -83.4285641 90.5823496 -75.8125 82.1875 C-74.99652344 81.28386719 -74.18054688 80.38023437 -73.33984375 79.44921875 C-71 77 -71 77 -68.81640625 75.20703125 C-66.04486176 72.77007966 -64.19257211 70.83216013 -63.79296875 67.03027344 C-63.73126669 63.78951315 -63.84938309 60.56572999 -63.96948242 57.32739258 C-64.20096192 49.3440414 -62.39345758 43.21131041 -59 36 C-58.61344238 35.14937988 -58.22688477 34.29875977 -57.82861328 33.42236328 C-51.21269788 18.97424302 -44.75105713 5.60159841 -30 -2 C-21.99826377 -4.48942905 -7.05956023 -4.70637349 0 0 Z M-38 20 C-39.85460883 22.93970552 -41.47711828 25.9705972 -43.0625 29.0625 C-43.49224121 29.89595947 -43.92198242 30.72941895 -44.36474609 31.58813477 C-50.08199879 42.88713455 -55.82973759 54.61357682 -52.3125 67.5234375 C-51.46103322 69.9517574 -51.46103322 69.9517574 -50 73 C-50.556875 73.20625 -51.11375 73.4125 -51.6875 73.625 C-54.92501302 75.55000774 -56.68231141 78.03850902 -59 81 C-56.08482708 79.92598892 -54.22189824 79.22189824 -52 77 C-51.01 77 -50.02 77 -49 77 C-48.19723446 87.23313818 -47.75808892 97.42440278 -47.70483398 107.68847656 C-47.6932773 109.22958531 -47.67276741 110.7706529 -47.64331055 112.31152344 C-47.39217602 125.56132496 -48.33180116 138.60946681 -55.875 150 C-56.90753906 151.57201172 -56.90753906 151.57201172 -57.9609375 153.17578125 C-60.46244988 156.64051966 -63.16271916 159.80805906 -66 163 C-66 163.66 -66 164.32 -66 165 C-66.53625 165.2475 -67.0725 165.495 -67.625 165.75 C-70.5823982 167.30652537 -73.29724051 169.03435673 -76 171 C-76 171.66 -76 172.32 -76 173 C-77.65269077 173.2410174 -79.30588023 173.47893398 -80.9609375 173.703125 C-82.85726577 173.97921877 -84.7422398 174.33042479 -86.625 174.6875 C-95.60488914 175.77067729 -104.30278686 173.52777243 -112 169 C-115.63786297 175.77965371 -117.23854125 182.67624256 -118.5 190.1875 C-118.62745605 190.9307251 -118.75491211 191.6739502 -118.88623047 192.43969727 C-119.14166024 193.93281797 -119.39544021 195.42622198 -119.64746094 196.91992188 C-119.95849456 198.75510642 -120.27928013 200.58863244 -120.6015625 202.421875 C-120.77429688 203.41703125 -120.94703125 204.4121875 -121.125 205.4375 C-121.27195312 206.28183594 -121.41890625 207.12617188 -121.5703125 207.99609375 C-122.84212345 216.88720846 -123.18635288 225.6805874 -123.18530273 234.65722656 C-123.18748177 236.7326331 -123.2056848 238.80749988 -123.22460938 240.8828125 C-123.2562893 248.69998016 -122.65478793 256.20967331 -121.45703125 263.94775391 C-120.03912138 273.41714985 -120.03912138 273.41714985 -122.94921875 278.2109375 C-123.84435292 279.28062536 -124.75844313 280.33463918 -125.6875 281.375 C-126.71191946 282.5972637 -127.73259067 283.82267619 -128.75 285.05078125 C-129.28625 285.69225098 -129.8225 286.3337207 -130.375 286.99462891 C-133.13712793 290.4033006 -135.65089622 293.98469423 -138.1875 297.5625 C-143.06272773 304.3904716 -148.08128217 311.09317786 -153.1875 317.75 C-158.39539542 324.54383888 -163.48959759 331.38703128 -168.421875 338.3828125 C-172.25325946 343.79564887 -176.22591362 349.10684259 -180.18017578 354.43017578 C-181.29973277 355.94168906 -182.41410252 357.45706263 -183.52246094 358.97680664 C-184.78317897 360.70310709 -186.06521828 362.413803 -187.3515625 364.12109375 C-190.69268059 369.9561744 -190.57009572 376.59556019 -189 383 C-184.29692434 394.71068025 -176.62710254 405.8372277 -168 415 C-167.29520508 415.7719873 -167.29520508 415.7719873 -166.57617188 416.55957031 C-151.20757415 433.31193066 -131.79926766 444.78652751 -108.67333984 446.13574219 C-106.13665715 446.24487912 -103.59976213 446.34283674 -101.0625 446.4375 C-92.72852661 446.77254984 -85.05845649 447.70981449 -77 450 C-75.71416016 450.25910156 -75.71416016 450.25910156 -74.40234375 450.5234375 C-71.78097321 451.30938634 -70.76686792 451.90308634 -69 454 C-68.48095703 456.89135742 -68.48095703 456.89135742 -68.3203125 460.60546875 C-68.27188957 461.64252457 -68.27188957 461.64252457 -68.2224884 462.70053101 C-67.72797226 474.6154026 -67.72163513 486.56763282 -67.67407227 498.49121094 C-67.65862417 501.74719326 -67.61851089 505.00211162 -67.57421875 508.2578125 C-67.57612717 509.2484671 -67.57803558 510.2391217 -67.58000183 511.25979614 C-67.47838806 516.98361459 -66.97345094 520.55469097 -63 525 C-60.87044442 526.72384736 -60.87044442 526.72384736 -58.47265625 527.96484375 C-57.60398926 528.45154541 -56.73532227 528.93824707 -55.84033203 529.43969727 C-54.92364746 529.93397217 -54.00696289 530.42824707 -53.0625 530.9375 C-51.65266846 531.71855103 -51.65266846 531.71855103 -50.21435547 532.51538086 C-47.48343979 534.02387996 -44.74276579 535.51318957 -42 537 C-40.65687906 537.74096884 -39.31434042 538.48299523 -37.97265625 539.2265625 C-29.62800985 543.80297301 -21.13566035 547.36348441 -12.25 550.74609375 C-9.5425842 551.79066162 -6.86525074 552.88276278 -4.1875 554 C2.7211879 556.78376168 9.87753254 558.84211835 17 561 C17.89847656 561.2784375 18.79695312 561.556875 19.72265625 561.84375 C25.89934871 563.74109793 32.13859317 565.39230169 38.38671875 567.03515625 C40.66302083 567.64299043 42.92979713 568.288991 45.1796875 568.98828125 C62.6421113 573.61278817 80.78419528 574.40174297 98.75 574.4375 C99.58336884 574.44340149 100.41673767 574.44930298 101.27536011 574.4553833 C111.54784742 574.50475504 121.25539856 573.72431366 131.33447266 571.72387695 C135.49163437 570.90291089 139.60401117 570.35175981 143.8125 569.875 C149.46541522 569.249189 149.46541522 569.249189 155 568 C155 567.34 155 566.68 155 566 C156.7015625 565.8453125 156.7015625 565.8453125 158.4375 565.6875 C163.23353249 565.07027147 167.47271981 563.65934945 172 562 C173.13050781 561.61070312 174.26101563 561.22140625 175.42578125 560.8203125 C201.32180396 551.72901362 224.55038003 536.94078423 246 520 C246.99128906 519.22140625 247.98257812 518.4428125 249.00390625 517.640625 C255.41059643 512.50069149 261.46233891 507.00434879 267.47070312 501.41162109 C269.00458024 499.9957722 270.55388083 498.59907167 272.109375 497.20703125 C277.6539273 492.23085905 282.89766135 487.12324265 287.8046875 481.50390625 C289.28138915 479.81962554 290.78753503 478.16075812 292.3203125 476.52734375 C299.8559455 468.49498896 306.43673224 459.83171675 313 451 C313.44875488 450.40316406 313.89750977 449.80632812 314.35986328 449.19140625 C327.25528486 432.0041264 337.30278436 413.11991034 347 394 C347.3727002 393.27723877 347.74540039 392.55447754 348.12939453 391.80981445 C356.73354075 374.97305547 362.61451535 355.90506684 365.45703125 337.24609375 C366 334 366 334 367 332 C367.20418935 330.00348191 367.36522296 328.00240179 367.5 326 C367.88888889 320.22222222 367.88888889 320.22222222 369 318 C369.11164567 315.41282275 369.16378734 312.85348103 369.16796875 310.265625 C369.17432091 309.09397293 369.17432091 309.09397293 369.18080139 307.89865112 C369.19074613 305.34904697 369.19071133 302.79962025 369.1875 300.25 C369.18689575 299.38276306 369.1862915 298.51552612 369.18566895 297.62200928 C369.16039644 284.32035102 368.83285337 271.19355594 367 258 C366.80664062 256.5763916 366.80664062 256.5763916 366.609375 255.12402344 C361.2447083 216.88835499 348.07820353 175.96120306 324.625 144.77734375 C319.88314301 138.44151794 317.03866593 132.93510253 314.625 125.4375 C306.80883818 101.18434182 292.83739415 78.72271523 269.81591797 66.89599609 C261.09219599 62.59160517 253.05353827 60.7779741 243.5 59.6875 C234.36790313 58.59859539 228.74072807 56.21379922 220.98632812 51.19726562 C216.8956444 48.73159293 212.55955357 46.73702771 208.25 44.6875 C207.38632812 44.26718506 206.52265625 43.84687012 205.6328125 43.41381836 C200.5959008 41.01907106 195.61806861 39.13452804 190.2421875 37.64404297 C188.03016285 37.00866394 185.90175737 36.25166407 183.75 35.4375 C178.75171435 33.72990063 173.65820493 33.1497863 168.4296875 32.52734375 C165 32 165 32 161.8046875 31.0390625 C156.66973708 29.63670438 151.52883797 29.05796043 146.25 28.4375 C145.2290625 28.31181641 144.208125 28.18613281 143.15625 28.05664062 C140.10528063 27.68688482 137.05592849 27.32671904 134 27 C133.24797302 26.91446365 132.49594604 26.82892731 131.72113037 26.74079895 C123.60409399 25.89605724 115.51051292 25.83621786 107.359375 25.83203125 C105.86403371 25.8288071 104.36869272 25.82544222 102.87335205 25.82194519 C99.753614 25.81599516 96.63390347 25.814101 93.51416016 25.81469727 C89.55986086 25.81479863 85.60574211 25.80115376 81.65148544 25.78392506 C78.56611353 25.772686 75.48078364 25.77078167 72.39539337 25.77130699 C70.93967314 25.77014443 69.48395118 25.76582254 68.02825165 25.75797462 C59.31407712 25.71538902 50.9027572 26.22845135 42.29864502 27.57060242 C33.9460719 28.65788968 33.9460719 28.65788968 31.05078125 26.64453125 C30.47714844 26.03996094 29.90351563 25.43539062 29.3125 24.8125 C18.65770467 14.60499245 -2.82329178 7.65656185 -17.4375 7.1875 C-27.17357093 7.81354447 -32.31502538 12.51032905 -38 20 Z " fill="#FEFCF9" transform="translate(388,176)"/>
<path d="M0 0 C2.01989469 -0.01183202 4.03666306 -0.06099862 6.0559082 -0.11157227 C17.81792916 -0.17578181 25.23281573 2.81666834 33.66723633 10.86303711 C34.15256836 11.31485352 34.63790039 11.76666992 35.13793945 12.23217773 C38.51144607 15.42455648 41.45210882 18.8130543 44.35473633 22.42553711 C45.24418945 23.30532227 45.24418945 23.30532227 46.15161133 24.20288086 C48.16662699 27.92542602 47.70442712 31.83529249 47.60473633 35.98803711 C47.59958008 36.85106445 47.59442383 37.7140918 47.58911133 38.60327148 C47.54460803 42.18300523 47.49566939 45.00273791 46.35473633 48.42553711 C45.69093914 58.42880634 45.91263714 69.27509758 51.80395508 77.77319336 C54.51280817 80.65945244 57.68210612 82.08399769 61.35473633 83.42553711 C62.25546875 83.76633301 63.15620117 84.10712891 64.08422852 84.45825195 C67.5113056 85.47184403 70.2774123 85.68390388 73.84301758 85.69116211 C75.09469727 85.69535156 76.34637695 85.69954102 77.63598633 85.70385742 C78.97974476 85.69570595 80.32349576 85.68623619 81.66723633 85.67553711 C82.69276611 85.6708844 82.69276611 85.6708844 83.73901367 85.6661377 C102.12796692 85.56868867 120.8006966 85.44835172 138.35473633 79.42553711 C139.35891602 79.13549805 140.3630957 78.84545898 141.39770508 78.54663086 C153.77510665 74.37722874 163.2556343 63.65141605 170.75317383 53.32788086 C176.20396239 46.85340761 183.61431719 43.93343916 191.85473633 43.05053711 C196.30733702 43.52760147 198.63012075 44.9931351 202.35473633 47.42553711 C202.93700313 51.41822375 203.19708179 54.91773873 201.18286133 58.52319336 C197.11019763 63.40069298 192.15478676 66.94176914 186.90551758 70.46850586 C184.25741352 72.32754856 184.25741352 72.32754856 182.38989258 74.96850586 C179.99908879 77.85490813 177.8616252 78.97576443 174.47973633 80.55053711 C172.96766602 81.2659668 172.96766602 81.2659668 171.42504883 81.99584961 C170.4118457 82.46764648 169.39864258 82.93944336 168.35473633 83.42553711 C167.34797852 83.9450293 166.3412207 84.46452148 165.30395508 84.99975586 C162.55012511 86.33107763 159.97436789 87.26284337 157.04223633 88.11303711 C152.45915943 89.47000804 147.90910235 90.8908996 143.37036133 92.39038086 C142.29052979 92.74463135 141.21069824 93.09888184 140.09814453 93.46386719 C137.94351015 94.17210717 135.79088337 94.88649339 133.640625 95.60791016 C122.50495126 99.24385179 111.7242504 100.72034034 100.04223633 101.05053711 C98.87015625 101.08630859 97.69807617 101.12208008 96.49047852 101.15893555 C92.44540228 101.26820568 88.40060976 101.35316809 84.35473633 101.42553711 C83.57124817 101.43991821 82.78776001 101.45429932 81.98052979 101.46911621 C76.8728141 101.55876292 71.76551867 101.62063541 66.65713501 101.65570068 C64.98210168 101.66871851 63.30709723 101.68650427 61.63217163 101.70953369 C36.50086367 102.03046799 14.56298983 95.96492491 -3.89916992 78.10913086 C-4.80538086 77.22354492 -5.7115918 76.33795898 -6.64526367 75.42553711 C-7.37616211 74.75651367 -8.10706055 74.08749023 -8.86010742 73.39819336 C-14.27744564 68.32413202 -18.47496621 62.4871882 -22.46459961 56.26000977 C-23.26979536 55.00892604 -24.0888197 53.76666097 -24.91967773 52.5324707 C-30.81887064 43.7059089 -35.27506693 35.29802566 -33.24194336 24.37475586 C-31.54429177 18.82890877 -27.73325206 14.28004048 -23.97583008 9.9675293 C-23.07741489 8.92635676 -22.20998244 7.85774991 -21.37329102 6.76635742 C-15.59931528 -0.70478301 -8.83108306 0.02442753 0 0 Z " fill="#6E3E01" transform="translate(231.645263671875,520.574462890625)"/>
<path d="M0 0 C0.33 0 0.66 0 1 0 C0.98259766 0.9446814 0.98259766 0.9446814 0.96484375 1.90844727 C0.93515451 4.79440039 0.96710194 7.67660876 1 10.5625 C0.97099609 12.0484668 0.97099609 12.0484668 0.94140625 13.56445312 C1.02414378 17.71511932 1.08902567 20.79263081 3.64331055 24.17797852 C15.14029747 34.58547541 30.11617772 36.4435352 45 36 C58.04925656 35.11337433 71.08427101 33.63629449 83 28 C83.93569824 27.55833496 84.87139648 27.11666992 85.83544922 26.66162109 C97.6655017 21.00990717 109.39290939 15.17103804 120.4855957 8.15942383 C130.86702259 1.71792772 142.90133734 -0.43888951 155 1 C164.23651878 3.48087424 172.86146172 7.63694274 178 16 C178.57041016 16.89138672 178.57041016 16.89138672 179.15234375 17.80078125 C180.35265695 20.9149579 180.22624467 23.67500285 180.1875 27 C180.17783203 28.8253125 180.17783203 28.8253125 180.16796875 30.6875 C180.03394204 33.33063144 179.78329524 35.49345523 179 38 C178.34 38 177.68 38 177 38 C176.77183594 39.02867187 176.54367187 40.05734375 176.30859375 41.1171875 C175.14185794 45.195119 172.882148 48.02460783 170.0625 51.125 C166.99270938 54.5835414 164.33951663 57.99728717 162 62 C158.8912251 64.93606518 155.86645927 66.52812289 151.94824219 68.16601562 C149.98703731 69.00554894 148.06411628 69.90179739 146.140625 70.82421875 C145.49996094 71.13037109 144.85929688 71.43652344 144.19921875 71.75195312 C142.88246415 72.38394256 141.56739417 73.01945215 140.25390625 73.65820312 C137.31772928 75.0548228 135.29394835 76 132 76 C132 76.66 132 77.32 132 78 C129.70899158 78.77283351 127.41722282 79.54328292 125.125 80.3125 C124.49335938 80.52583984 123.86171875 80.73917969 123.2109375 80.95898438 C121.14437972 81.65128123 119.07294361 82.32707459 117 83 C116.23018799 83.25676514 115.46037598 83.51353027 114.66723633 83.77807617 C108.31259557 85.81067555 102.05761029 86.91787921 95.4375 87.6875 C94.36193848 87.81342529 93.28637695 87.93935059 92.17822266 88.0690918 C75.47422952 89.86079825 58.56596135 90.01689052 42 87 C42 84.69 42 82.38 42 80 C40.96875 79.896875 39.9375 79.79375 38.875 79.6875 C35 79 35 79 32.25 77.5625 C27.67620914 75.36356208 22.98890931 74.75455034 18 74 C18 73.67 18 73.34 18 73 C18.55551041 72.98160568 19.11102081 72.96321136 19.68336487 72.94425964 C25.54170303 72.74781251 31.39922569 72.53382641 37.2565918 72.31030273 C39.43351727 72.22943769 41.61060574 72.15283024 43.7878418 72.08081055 C62.08794413 71.47094733 78.20591476 68.95596382 95.5 62.9375 C97.46633336 62.26272544 99.43356543 61.59065279 101.40124512 60.91981506 C103.16553892 60.31688676 104.92758023 59.70737856 106.68945312 59.09741211 C108.99773206 58.33224147 111.32631903 57.62685412 113.66723633 56.96826172 C117.76819675 55.77681721 121.37834066 54.08671466 125.1875 52.1875 C125.88552734 51.85685547 126.58355469 51.52621094 127.30273438 51.18554688 C131.6692749 49.02097255 134.03388844 46.94474714 137 43 C139.69029993 40.82602026 142.42534468 38.77979525 145.22265625 36.75 C151.35305315 32.20607849 151.35305315 32.20607849 154.609375 25.54296875 C154.65578125 24.76566406 154.7021875 23.98835937 154.75 23.1875 C154.80671875 22.39730469 154.8634375 21.60710938 154.921875 20.79296875 C154.94765625 20.20128906 154.9734375 19.60960937 155 19 C153.824375 18.5359375 153.824375 18.5359375 152.625 18.0625 C150 17 150 17 148 16 C138.7000335 15.25600268 131.04138617 19.13217819 124 25 C122.11585473 27.15558993 120.42892692 29.38675341 118.7421875 31.69921875 C111.45272801 41.32588161 102.43731358 48.22945706 91 52 C89.9790625 52.350625 88.958125 52.70125 87.90625 53.0625 C71.40971002 58.11549423 53.78455253 58.15716563 36.65893555 58.35046387 C34.67936734 58.37434415 32.70000918 58.41400056 30.72070312 58.45410156 C21.6188012 58.47071954 13.3294325 57.50039223 6.0625 51.625 C5.0415625 50.325625 5.0415625 50.325625 4 49 C2.9171875 47.700625 2.9171875 47.700625 1.8125 46.375 C-2.47415327 38.39295597 -2.58996147 28.89058211 -2 20 C-1.505 18.515 -1.505 18.515 -1 17 C-0.85596652 15.66636297 -0.75409577 14.32781954 -0.68359375 12.98828125 C-0.64169922 12.23095703 -0.59980469 11.47363281 -0.55664062 10.69335938 C-0.51732422 9.90767578 -0.47800781 9.12199219 -0.4375 8.3125 C-0.39431641 7.51521484 -0.35113281 6.71792969 -0.30664062 5.89648438 C-0.20072632 3.93118553 -0.09987449 1.96561504 0 0 Z " fill="#D98A01" transform="translate(279,549)"/>
<path d="M0 0 C1.125 1.625 1.125 1.625 1.125 3.625 C1.785 3.625 2.445 3.625 3.125 3.625 C3.125 4.285 3.125 4.945 3.125 5.625 C4.115 5.955 5.105 6.285 6.125 6.625 C7.115 11.575 7.115 11.575 8.125 16.625 C8.85203125 16.73457031 9.5790625 16.84414063 10.328125 16.95703125 C38.91535861 21.46501809 38.91535861 21.46501809 48.08984375 28.03125 C49.125 29.625 49.125 29.625 48.8125 31.8125 C48.585625 32.410625 48.35875 33.00875 48.125 33.625 C47.07699219 33.77195312 47.07699219 33.77195312 46.0078125 33.921875 C45.09773438 34.07140625 44.18765625 34.2209375 43.25 34.375 C42.34507812 34.51421875 41.44015625 34.6534375 40.5078125 34.796875 C39.72148437 35.07015625 38.93515625 35.3434375 38.125 35.625 C37.87943359 36.2864502 37.63386719 36.94790039 37.38085938 37.62939453 C36.96642578 38.28794434 36.55199219 38.94649414 36.125 39.625 C33.27099609 40.23095703 33.27099609 40.23095703 29.6484375 40.3828125 C28.33746094 40.45113281 27.02648437 40.51945312 25.67578125 40.58984375 C24.28390039 40.64442091 22.89197193 40.697797 21.5 40.75 C8.10452132 40.2689903 8.10452132 40.2689903 -3.39323425 45.16389465 C-3.91210709 45.79921616 -4.43097992 46.43453766 -4.96557617 47.08911133 C-9.3288268 52.23490538 -14.09578025 56.91568832 -18.90234375 61.64453125 C-19.86011419 62.59278272 -20.81742606 63.54149755 -21.77430725 64.49064636 C-25.79561621 68.47877305 -29.82111012 72.46259706 -33.85717773 76.43579102 C-36.34229885 78.88280842 -38.81966044 81.33746878 -41.29254341 83.7968502 C-42.66939964 85.16197437 -44.05441093 86.51885815 -45.43968201 87.8754425 C-50.67335935 93.0880422 -55.00878027 98.35378963 -58.99391174 104.58500671 C-60.875 106.625 -60.875 106.625 -63.60484314 106.92805481 C-64.3539949 106.82804672 -65.10314667 106.72803864 -65.875 106.625 C-66.26175568 85.45458889 -66.26175568 85.45458889 -64.37890625 76.27734375 C-63.66258863 72.50695875 -63.44354522 68.72948241 -63.21875 64.90234375 C-62.875 62.625 -62.875 62.625 -60.875 59.625 C-60.215 59.625 -59.555 59.625 -58.875 59.625 C-58.606875 58.77035156 -58.33875 57.91570312 -58.0625 57.03515625 C-50.30918196 34.76987122 -33.07934524 17.94359261 -15.41064453 3.04833984 C-13.7577364 1.68378987 -13.7577364 1.68378987 -12.875 -0.375 C-8.6776393 -1.57424591 -3.69461478 -2.70938417 0 0 Z " fill="#DA8B00" transform="translate(432.875,241.375)"/>
<path d="M0 0 C2.01989469 -0.01183202 4.03666306 -0.06099862 6.0559082 -0.11157227 C17.81792916 -0.17578181 25.23281573 2.81666834 33.66723633 10.86303711 C34.15256836 11.31485352 34.63790039 11.76666992 35.13793945 12.23217773 C38.51144607 15.42455648 41.45210882 18.8130543 44.35473633 22.42553711 C44.94125977 23.0894043 45.5277832 23.75327148 46.13208008 24.43725586 C48.70864398 28.62725914 48.13157808 33.72749413 47.35473633 38.42553711 C46.09664635 40.61730392 44.80773726 42.11720291 42.96020508 43.82788086 C41.21352949 45.42458921 41.21352949 45.42458921 39.97583008 47.83959961 C38.08187005 50.86080813 36.01116846 52.6402687 33.22973633 54.86303711 C32.3402832 55.58362305 31.45083008 56.30420898 30.53442383 57.04663086 C22.86894056 62.78161773 15.50814451 66.93675878 6.54223633 70.36303711 C5.00792969 70.97888672 5.00792969 70.97888672 3.44262695 71.60717773 C2.45842773 71.98938477 1.47422852 72.3715918 0.46020508 72.76538086 C-0.86781128 73.28152954 -0.86781128 73.28152954 -2.22265625 73.80810547 C-4.86842576 74.48241274 -6.13081665 74.42745587 -8.64526367 73.42553711 C-14.39011313 68.26472964 -18.9273111 61.99235091 -22.87182617 55.39038086 C-24.13446578 53.27949217 -25.47155021 51.21238497 -26.85620117 49.17944336 C-32.04466627 41.35348041 -34.86811083 33.89829666 -33.22583008 24.40698242 C-31.59302107 18.83428356 -27.73388788 14.28077023 -23.97583008 9.9675293 C-23.07741489 8.92635676 -22.20998244 7.85774991 -21.37329102 6.76635742 C-15.59931528 -0.70478301 -8.83108306 0.02442753 0 0 Z " fill="#341D00" transform="translate(231.645263671875,520.574462890625)"/>
<path d="M0 0 C2.0625 0.4375 2.0625 0.4375 4 1 C4.80276554 11.23313818 5.24191108 21.42440278 5.29516602 31.68847656 C5.3067227 33.22958531 5.32723259 34.7706529 5.35668945 36.31152344 C5.60631043 49.48147031 4.71411445 62.5620846 -2.8125 73.875 C-3.50988281 74.92558594 -4.20726562 75.97617187 -4.92578125 77.05859375 C-5.61027344 78.02925781 -6.29476562 78.99992187 -7 80 C-7.59167969 80.85722656 -8.18335938 81.71445312 -8.79296875 82.59765625 C-12.478206 87.64904552 -16.56961371 91.8166701 -22 95 C-22.66 95 -23.32 95 -24 95 C-24 95.66 -24 96.32 -24 97 C-35.36235964 100.21185242 -45.90663631 101.26262935 -56.875 95.875 C-57.90625 95.25625 -58.9375 94.6375 -60 94 C-60 90.53967114 -59.19833097 87.93386243 -58.1875 84.625 C-57.85105469 83.50351562 -57.51460938 82.38203125 -57.16796875 81.2265625 C-56.06248443 78.17261586 -54.70894564 75.74522119 -53 73 C-52.40367801 71.55516698 -51.84148042 70.09582361 -51.3125 68.625 C-43.70969781 49.31900792 -31.2510188 31.82625353 -18 16 C-17.55881836 15.47229004 -17.11763672 14.94458008 -16.66308594 14.40087891 C-11.91933424 8.79319892 -7.69459297 4.13363926 -1 1 C-0.67 0.67 -0.34 0.34 0 0 Z " fill="#FFE3B5" transform="translate(336,252)"/>
<path d="M0 0 C2.3125 2.0625 2.3125 2.0625 4 4 C4.66 4.33 5.32 4.66 6 5 C6 5.66 6 6.32 6 7 C6.66 7 7.32 7 8 7 C8.66 8.32 9.32 9.64 10 11 C15.08303686 11.11320856 15.08303686 11.11320856 20 10 C21.82859013 9.83201205 23.66430827 9.73437922 25.5 9.6875 C26.4590625 9.65011719 27.418125 9.61273438 28.40625 9.57421875 C31 10 31 10 32.8125 11.80859375 C34.59800093 15.10354776 34.50915687 17.30861272 34 21 C32.55713962 23.4421748 31.06623675 24.98295936 29 27 C28.34 27 27.68 27 27 27 C26.62488281 27.84304688 26.62488281 27.84304688 26.2421875 28.703125 C24.8078618 31.35527441 23.06909334 33.4464328 21.125 35.75 C18.17005747 39.38111857 15.87744109 42.8010619 13.93359375 47.04296875 C9.55439056 56.22280472 9.55439056 56.22280472 6 58 C3.3276379 58.13415472 0.67749512 58.04318541 -2 58 C-2.33 57.01 -2.66 56.02 -3 55 C-3.680625 54.896875 -4.36125 54.79375 -5.0625 54.6875 C-14.46916542 52.48594001 -19.00116628 47.48805468 -25 40 C-26.00385452 38.33565212 -27.00464403 36.6694443 -28 35 C-29.65002828 33.64613064 -31.3174387 32.31321858 -33 31 C-36.67914742 26.70766135 -38.43465315 24.14547004 -38.33984375 18.3515625 C-37.31395351 11.25287373 -33.30689891 5.5886161 -27.84375 1.15625 C-19.99501397 -3.7658387 -8.41734426 -3.6597149 0 0 Z " fill="#B76900" transform="translate(607,236)"/>
<path d="M0 0 C2.87608249 0.45221423 5.75072487 0.91155099 8.625 1.375 C9.83736328 1.56449219 9.83736328 1.56449219 11.07421875 1.7578125 C14.54554324 2.32225551 17.7533806 2.91477583 21.0859375 4.06640625 C24.71316163 5.2284794 28.22546648 5.41705275 32 5.5625 C36.73157942 5.77150774 41.3367983 6.11836343 46 7 C45.66662999 10.8893168 44.5453011 12.90463985 41.74584961 15.58813477 C37.94444728 18.66232155 33.60898116 20.95583478 29.375 23.375 C27.37570008 24.53933148 25.37699359 25.70468261 23.37890625 26.87109375 C22.43418457 27.42007324 21.48946289 27.96905273 20.51611328 28.53466797 C12.35823892 33.28564429 4.69493945 38.57848007 -2.9375 44.125 C-3.76789795 44.72368896 -4.5982959 45.32237793 -5.45385742 45.93920898 C-9.63220514 49.01450369 -12.76101588 51.92772019 -16 56 C-17.64743796 56.71286072 -19.31774602 57.37370631 -21 58 C-23.51921864 59.59600884 -25.91057454 61.35880558 -28.3125 63.125 C-28.95767578 63.59292969 -29.60285156 64.06085938 -30.26757812 64.54296875 C-31.84848894 65.6905929 -33.42472301 66.84465477 -35 68 C-32.07038067 70.50630278 -30.08812486 71.40528494 -26.25 71.6875 C-25.45078125 71.75324219 -24.6515625 71.81898438 -23.828125 71.88671875 C-23.22484375 71.92410156 -22.6215625 71.96148438 -22 72 C-22 72.33 -22 72.66 -22 73 C-22.82201904 73.02505615 -23.64403809 73.0501123 -24.4909668 73.07592773 C-28.22329374 73.19212655 -31.95538317 73.31474505 -35.6875 73.4375 C-37.62786133 73.49647461 -37.62786133 73.49647461 -39.60742188 73.55664062 C-40.85458984 73.59853516 -42.10175781 73.64042969 -43.38671875 73.68359375 C-44.53358154 73.72025146 -45.68044434 73.75690918 -46.86206055 73.79467773 C-49.66993278 73.97840298 -52.26225814 74.3699382 -55 75 C-50.9696161 68.83958281 -46.76372175 62.84713337 -42.375 56.9375 C-41.4614978 55.70205444 -41.4614978 55.70205444 -40.52954102 54.44165039 C-36.2075337 48.60421432 -31.84631743 42.79682886 -27.47460938 36.99658203 C-23.14735593 31.23696746 -18.9441145 25.39134877 -14.74316406 19.53930664 C-9.9715943 12.91349617 -5.03216155 6.42935313 0 0 Z " fill="#DA8C03" transform="translate(269,448)"/>
<path d="M0 0 C1.45561662 0.24416148 2.91135166 0.48761781 4.3671875 0.73046875 C22.6831699 3.84158495 22.6831699 3.84158495 27 6 C27 7.32 27 8.64 27 10 C25.99839844 10.39832031 24.99679687 10.79664063 23.96484375 11.20703125 C22.62237704 11.74214036 21.27993019 12.27729928 19.9375 12.8125 C19.28072266 13.07353516 18.62394531 13.33457031 17.94726562 13.60351562 C14.74517107 14.88119867 11.58133703 16.18755 8.43359375 17.59765625 C5.00166418 18.99932032 1.74790335 19.86360461 -1.875 20.625 C-5.75140632 21.16177291 -5.75140632 21.16177291 -9 23 C-27.74137516 27.75400783 -48.86121802 26.45717158 -67 20 C-67.66 19.34 -68.32 18.68 -69 18 C-68.69662736 14.1572799 -67.6041664 11.81066418 -65 9 C-62.51953125 8.171875 -62.51953125 8.171875 -59.8125 7.75 C-58.91144531 7.60046875 -58.01039063 7.4509375 -57.08203125 7.296875 C-56.05142578 7.14992188 -56.05142578 7.14992188 -55 7 C-55 6.34 -55 5.68 -55 5 C-36.98449266 -3.16547021 -19.20654421 -3.38084958 0 0 Z " fill="#412500" transform="translate(470,396)"/>
<path d="M0 0 C-9.35354058 6.27671802 -19.71060058 10.51579886 -30 15 C-29.505 16.485 -29.505 16.485 -29 18 C-32.3 20.31 -35.6 22.62 -39 25 C-38.34 25 -37.68 25 -37 25 C-36.34 25.33 -35.68 25.66 -35 26 C-39.66407789 31.00956514 -44.30300885 33.20838344 -50.71484375 35.2421875 C-54.60642876 36.53273022 -58.3325944 38.1662972 -62 40 C-61.34 37.69 -60.68 35.38 -60 33 C-61.485 33.495 -61.485 33.495 -63 34 C-63 34.66 -63 35.32 -63 36 C-63.66 36 -64.32 36 -65 36 C-65.2475 36.53625 -65.495 37.0725 -65.75 37.625 C-67.29814886 40.56648283 -69.13010957 43.25359843 -71 46 C-71.66 46.99 -72.32 47.98 -73 49 C-72.46992914 37.3384411 -65.13949443 27.79165278 -57 20 C-49.33145141 13.06392487 -40.74184152 10.34838022 -30.83203125 8.0625 C-24.40742416 6.28116144 -18.16752242 3.92849617 -11.92114258 1.60449219 C-10.95716553 1.25547852 -9.99318848 0.90646484 -9 0.546875 C-8.13375 0.22557617 -7.2675 -0.09572266 -6.375 -0.42675781 C-3.81523457 -1.04459593 -2.45422529 -0.86778452 0 0 Z " fill="#FFDEA7" transform="translate(469,432)"/>
<path d="M0 0 C4.05226429 -0.70474162 6.01179222 -0.6219807 9.55078125 1.60546875 C20.56493018 10.30256709 20.56493018 10.30256709 21.625 16.875 C21.37924029 21.06877052 19.79071229 23.54671887 16.90234375 26.5234375 C11.13803576 30.9975821 5.00096386 31.12528041 -2 31 C-2.38297872 9.27659574 -2.38297872 9.27659574 0 0 Z " fill="#402602" transform="translate(268,376)"/>
<path d="M0 0 C2.125 0.375 2.125 0.375 4 1 C4.80276554 11.23313818 5.24191108 21.42440278 5.29516602 31.68847656 C5.3067227 33.22958531 5.32723259 34.7706529 5.35668945 36.31152344 C5.60631043 49.48147031 4.71411445 62.5620846 -2.8125 73.875 C-3.50730469 74.92300781 -4.20210938 75.97101563 -4.91796875 77.05078125 C-5.60503906 78.02402344 -6.29210937 78.99726563 -7 80 C-7.92232422 81.32064453 -7.92232422 81.32064453 -8.86328125 82.66796875 C-12.1402195 87.12198903 -15.1682997 90.28953398 -20 93 C-19.39847691 89.43898328 -17.99087117 87.49234341 -15.6875 84.75 C-12.83454465 81.21582878 -10.78608939 77.82433904 -8.91015625 73.70703125 C-8 72 -8 72 -5.75 69.875 C-3.66887642 68.05365515 -3.66887642 68.05365515 -3.875 64.9375 C-3.91625 63.968125 -3.9575 62.99875 -4 62 C-3.34 61.01 -2.68 60.02 -2 59 C-1.01 59 -0.02 59 1 59 C0.81566406 58.43796875 0.63132812 57.8759375 0.44140625 57.296875 C-0.07352759 54.61739626 0.27886578 52.88453689 0.9375 50.25 C1.13214844 49.45078125 1.32679688 48.6515625 1.52734375 47.828125 C1.68332031 47.22484375 1.83929688 46.6215625 2 46 C-0.475 46.495 -0.475 46.495 -3 47 C-3 46.01 -3 45.02 -3 44 C-1.68 44 -0.36 44 1 44 C1 43.34 1 42.68 1 42 C0.34 42 -0.32 42 -1 42 C-0.11422172 35.41993281 -0.11422172 35.41993281 0.53125 33.046875 C1.04687704 30.79530358 1.09805258 28.80696713 1.0625 26.5 C1.05347656 25.7471875 1.04445313 24.994375 1.03515625 24.21875 C1.02355469 23.4865625 1.01195312 22.754375 1 22 C1 17.8725485 1.45533613 14.084979 2 10 C1.34 9.67 0.68 9.34 0 9 C0 9.66 0 10.32 0 11 C-2.475 10.505 -2.475 10.505 -5 10 C-5 9.01 -5 8.02 -5 7 C-4.34 7 -3.68 7 -3 7 C-2.87625 6.21625 -2.7525 5.4325 -2.625 4.625 C-2 2 -2 2 0 0 Z " fill="#FFDEA6" transform="translate(336,252)"/>
<path d="M0 0 C-6.04408681 3.07906309 -12.15731921 5.00890999 -18.6875 6.75 C-19.50710205 6.97260498 -20.3267041 7.19520996 -21.17114258 7.42456055 C-31.69845298 10.15077351 -31.69845298 10.15077351 -36 8 C-39.13854629 7.7684679 -42.26985751 7.60590119 -45.4140625 7.48242188 C-49.14233763 7.28793508 -51.74769879 6.78898935 -55 5 C-53.05287109 4.94392578 -53.05287109 4.94392578 -51.06640625 4.88671875 C-40.46797913 4.52445529 -29.97124443 3.80645996 -19.4375 2.5625 C-17.84240601 2.37917114 -17.84240601 2.37917114 -16.21508789 2.19213867 C-15.21469482 2.06814697 -14.21430176 1.94415527 -13.18359375 1.81640625 C-12.30243896 1.70756104 -11.42128418 1.59871582 -10.51342773 1.48657227 C-7.92475969 1.07535306 -7.92475969 1.07535306 -5.36352539 -0.11352539 C-3 -1 -3 -1 0 0 Z " fill="#FED590" transform="translate(394,633)"/>
<path d="M0 0 C0.33 1.32 0.66 2.64 1 4 C1.66 4 2.32 4 3 4 C2.67 5.98 2.34 7.96 2 10 C1.01 10 0.02 10 -1 10 C0.81222534 12.0624994 0.81222534 12.0624994 3 14 C3.99 14 4.98 14 6 14 C6 14.66 6 15.32 6 16 C6.7425 16.103125 7.485 16.20625 8.25 16.3125 C11.17014018 17.04253504 12.73187554 18.06789398 15 20 C8.85493655 20.32919983 4.60711303 19.4508703 -1 17 C-1.99 16.608125 -2.98 16.21625 -4 15.8125 C-4.66 15.544375 -5.32 15.27625 -6 15 C-4.36041242 9.76727367 -2.61047965 4.84803364 0 0 Z " fill="#FFDDA4" transform="translate(281,331)"/>
<path d="M0 0 C1.32 0.33 2.64 0.66 4 1 C3.55084229 1.37810318 3.10168457 1.75620636 2.63891602 2.14576721 C-3.5584441 7.45663175 -9.31108332 13.1827247 -15.0625 18.96484375 C-16.1045974 20.00881066 -17.14691909 21.05255372 -18.18945312 22.09608459 C-20.90744446 24.81785922 -23.6224169 27.54262523 -26.33673096 30.26806641 C-29.11717018 33.05881073 -31.90051029 35.84665871 -34.68359375 38.63476562 C-40.12520842 44.08704358 -45.56363103 49.54249109 -51 55 C-51 52 -51 52 -49.15322876 49.79919434 C-48.28878143 48.94442505 -47.42433411 48.08965576 -46.53369141 47.20898438 C-45.82162285 46.49866814 -45.82162285 46.49866814 -45.09516907 45.77400208 C-43.52081558 44.20684893 -41.93621787 42.6504796 -40.3515625 41.09375 C-39.25703831 40.00736075 -38.16324676 38.92023291 -37.07015991 37.83239746 C-34.18716765 34.96654677 -31.29573334 32.1093726 -28.40203857 29.2543335 C-23.77502553 24.68643943 -19.16053328 20.10590634 -14.54667282 15.5247345 C-12.93295907 13.92498307 -11.31548783 12.3291088 -9.69741821 10.73376465 C-8.70656101 9.75293284 -7.71578322 8.7720208 -6.72509766 7.79101562 C-5.85905914 6.93624634 -4.99302063 6.08147705 -4.10073853 5.20080566 C-1.86635569 2.98722963 -1.86635569 2.98722963 0 0 Z " fill="#F8AB2F" transform="translate(431,284)"/>
<path d="M0 0 C0.66 0.33 1.32 0.66 2 1 C-12.19 15.19 -26.38 29.38 -41 44 C-41 41 -41 41 -39.49609375 39.23828125 C-38.81675781 38.60277344 -38.13742188 37.96726563 -37.4375 37.3125 C-34.7015155 34.73651459 -32.17054196 32.07781369 -29.71875 29.234375 C-26.00733699 24.95258794 -22.07960814 20.93136547 -18.0625 16.9375 C-17.39798828 16.26912109 -16.73347656 15.60074219 -16.04882812 14.91210938 C-12.0529268 10.92395956 -7.94623615 7.12432752 -3.66186523 3.44750977 C-2.39770934 2.34641085 -1.1854343 1.1854343 0 0 Z " fill="#FBC475" transform="translate(165,128)"/>
<path d="M0 0 C1.2065625 0.433125 1.2065625 0.433125 2.4375 0.875 C6.58131067 2.18357179 10.74978663 3.11217765 15 4 C13.4375 6.4375 13.4375 6.4375 11 9 C7.25 9.8125 7.25 9.8125 4 10 C3.79503906 9.44570313 3.59007812 8.89140625 3.37890625 8.3203125 C3.10949219 7.59585937 2.84007812 6.87140625 2.5625 6.125 C2.29566406 5.40570313 2.02882813 4.68640625 1.75390625 3.9453125 C1.02083146 1.96351155 1.02083146 1.96351155 0 0 Z " fill="#FBAD33" transform="translate(720,491)"/>
<path d="M0 0 C2.42936835 3.64405252 2.32947342 5.598817 2.375 9.9375 C2.40335937 11.16339844 2.43171875 12.38929688 2.4609375 13.65234375 C1.92995685 17.50870319 1.00244663 18.63245809 -2 21 C-1.85845864 18.43719792 -1.71191438 15.87484515 -1.5625 13.3125 C-1.52318359 12.59126953 -1.48386719 11.87003906 -1.44335938 11.12695312 C-1.21814322 7.33292718 -0.87160695 3.71348508 0 0 Z " fill="#FFBA46" transform="translate(460,564)"/>
<path d="M0 0 C2.42957843 3.64436764 2.26845889 5.47927548 2.25 9.8125 C2.25515625 11.01519531 2.2603125 12.21789062 2.265625 13.45703125 C2.00271299 16.96381355 1.26107598 19.73221185 0 23 C-0.66 23 -1.32 23 -2 23 C-1.855625 21.989375 -1.71125 20.97875 -1.5625 19.9375 C-0.72514477 13.32239365 -0.40713437 6.65274878 0 0 Z " fill="#FFD691" transform="translate(655,519)"/>
<path d="M0 0 C0.66 0 1.32 0 2 0 C2.99 2.97 3.98 5.94 5 9 C4.67 9.33 4.34 9.66 4 10 C8.455 10.99 8.455 10.99 13 12 C13 12.33 13 12.66 13 13 C11.7625 13.04125 10.525 13.0825 9.25 13.125 C8.20585937 13.15980469 8.20585937 13.15980469 7.140625 13.1953125 C4.55924794 12.9597854 3.11099236 12.52082245 1 11 C0.13671875 8.65234375 0.13671875 8.65234375 -0.3125 5.9375 C-0.47363281 5.03902344 -0.63476562 4.14054688 -0.80078125 3.21484375 C-0.86652344 2.48394531 -0.93226563 1.75304687 -1 1 C-0.67 0.67 -0.34 0.34 0 0 Z " fill="#F2A425" transform="translate(439,247)"/>
<path d="M0 0 C0.79560764 2.91499943 1.25322499 5.74561419 1.5625 8.75 C1.64628906 9.54921875 1.73007812 10.3484375 1.81640625 11.171875 C1.87699219 11.77515625 1.93757813 12.3784375 2 13 C0.02 13.99 -1.96 14.98 -4 16 C-3.39891424 10.34979382 -1.92471317 5.33835539 0 0 Z " fill="#FFDDA4" transform="translate(395,482)"/>
<path d="M0 0 C0 4.12314295 -2.21437177 5.9335864 -4.8125 8.875 C-7.90119463 12.40871339 -10.71129799 15.87881565 -13 20 C-13.66 19.67 -14.32 19.34 -15 19 C-10.90651922 11.76818396 -5.68512655 6.00525989 0 0 Z " fill="#F6AD34" transform="translate(454,591)"/>
<path d="M0 0 C6.54344169 0.356915 11.71137595 1.9959214 17 6 C17.33 6.99 17.66 7.98 18 9 C13.98696492 7.443154 10.0907072 5.68861143 6.1875 3.875 C4.44533203 3.06675781 4.44533203 3.06675781 2.66796875 2.2421875 C1.78753906 1.83226562 0.90710938 1.42234375 0 1 C0 0.67 0 0.34 0 0 Z " fill="#FFD897" transform="translate(435,545)"/>
<path d="M0 0 C-0.33 1.65 -0.66 3.3 -1 5 C-1.66 5 -2.32 5 -3 5 C-3.2165625 6.794375 -3.2165625 6.794375 -3.4375 8.625 C-3.87039343 12.1005158 -4.39616256 15.54950034 -5 19 C-5.33 19 -5.66 19 -6 19 C-6.1015405 14.2275967 -5.80583141 9.6553896 -5.21875 4.91796875 C-4.96222723 2.99054759 -4.96222723 2.99054759 -5 1 C-2 0 -2 0 0 0 Z " fill="#FFDA9D" transform="translate(635,577)"/>
<path d="M0 0 C0.66 0.33 1.32 0.66 2 1 C0.68 1.33 -0.64 1.66 -2 2 C-2.2165625 2.86625 -2.2165625 2.86625 -2.4375 3.75 C-2.95833333 5.83333333 -3.47916667 7.91666667 -4 10 C-3.01 10.66 -2.02 11.32 -1 12 C-2.65 11.67 -4.3 11.34 -6 11 C-6.75 8.8125 -6.75 8.8125 -7 6 C-4.88388365 2.67467431 -3.77269733 1.25756578 0 0 Z " fill="#9E5E00" transform="translate(408,404)"/>
<path d="M0 0 C1.2065625 0.433125 1.2065625 0.433125 2.4375 0.875 C6.58131067 2.18357179 10.74978663 3.11217765 15 4 C15 4.33 15 4.66 15 5 C9.06 5.495 9.06 5.495 3 6 C2.01 4.02 1.02 2.04 0 0 Z " fill="#EFA121" transform="translate(720,491)"/>
<path d="M0 0 C4.5575811 0.54256918 8.07269376 1.59006208 12 4 C13.375 6.1875 13.375 6.1875 14 8 C9.33333333 5.66666667 4.66666667 3.33333333 0 1 C0 0.67 0 0.34 0 0 Z " fill="#D3860D" transform="translate(249,521)"/>
<path d="M0 0 C0 3.34238213 -0.48151073 5.03533048 -2 8 C-4.625 10.3125 -4.625 10.3125 -7 12 C-5.63855967 6.80177328 -3.53269829 3.90456127 0 0 Z " fill="#F4A629" transform="translate(747,478)"/>
<path d="M0 0 C-1.86731246 2.38601036 -2.94463485 2.98586422 -5.9375 3.75 C-8.73675772 3.97851083 -10.36224767 3.75201578 -13 3 C-11.21189234 2.30329584 -9.41937948 1.61788811 -7.625 0.9375 C-6.62726563 0.55464844 -5.62953125 0.17179688 -4.6015625 -0.22265625 C-2 -1 -2 -1 0 0 Z " fill="#FDCD7E" transform="translate(409,628)"/>
<path d="M0 0 C1.32 0 2.64 0 4 0 C2.7508258 3.45925163 1.32472205 6.14693203 -1 9 C-0.67 7.02 -0.34 5.04 0 3 C-0.66 2.67 -1.32 2.34 -2 2 C-1.34 1.34 -0.68 0.68 0 0 Z " fill="#FFD793" transform="translate(636,567)"/>
<path d="M0 0 C0.33 0.99 0.66 1.98 1 3 C0.0479279 4.00596297 -0.91187346 5.00461563 -1.875 6 C-2.40867187 6.556875 -2.94234375 7.11375 -3.4921875 7.6875 C-5 9 -5 9 -7 9 C-5.44499019 5.18315774 -2.96404505 2.80804268 0 0 Z " fill="#FFC055" transform="translate(542,729)"/>
<path d="M0 0 C-4.30769231 3.93846154 -4.30769231 3.93846154 -7.8125 4.25 C-8.534375 4.1675 -9.25625 4.085 -10 4 C-10 3.34 -10 2.68 -10 2 C-8.71211992 1.46987262 -7.41953322 0.9511671 -6.125 0.4375 C-5.40570313 0.14746094 -4.68640625 -0.14257812 -3.9453125 -0.44140625 C-2 -1 -2 -1 0 0 Z " fill="#FDCB79" transform="translate(421,623)"/>
<path d="M0 0 C-1.5830577 4.2742558 -4.50568404 6.26531794 -8 9 C-6.68994234 5.06982701 -4.75047804 0 0 0 Z " fill="#874B00" transform="translate(407,571)"/>
<path d="M0 0 C2.97 0.99 5.94 1.98 9 3 C9 3.99 9 4.98 9 6 C8.01 6.66 7.02 7.32 6 8 C5.67 7.01 5.34 6.02 5 5 C5.33 4.34 5.66 3.68 6 3 C5.195625 2.87625 4.39125 2.7525 3.5625 2.625 C2.716875 2.41875 1.87125 2.2125 1 2 C0.67 1.34 0.34 0.68 0 0 Z " fill="#FFDCA2" transform="translate(575,422)"/>
<path d="M0 0 C0.33 0.66 0.66 1.32 1 2 C1.66 2.33 2.32 2.66 3 3 C-3.625 7 -3.625 7 -7 7 C-4.69 4.69 -2.38 2.38 0 0 Z " fill="#FFC86E" transform="translate(336,249)"/>
<path d="M0 0 C0.66 0.33 1.32 0.66 2 1 C0.02 2.98 -1.96 4.96 -4 7 C-4.99 6.67 -5.98 6.34 -7 6 C-4.69 4.02 -2.38 2.04 0 0 Z " fill="#F7A92C" transform="translate(262,494)"/>
</svg>
