<?xml version="1.0" encoding="UTF-8"?>
<svg version="1.1" xmlns="http://www.w3.org/2000/svg" width="25" height="25">
<path d="M0 0 C3.58740251 0.84079746 5.24509386 2.66799571 7.8125 5.2734375 C8.69550781 6.14355469 9.57851563 7.01367188 10.48828125 7.91015625 C12.5 10.5859375 12.5 10.5859375 13.0859375 13.0859375 C12.24514004 16.67334001 10.41794179 18.33103136 7.8125 20.8984375 C6.94238281 21.78144531 6.07226562 22.66445313 5.17578125 23.57421875 C2.5 25.5859375 2.5 25.5859375 0 26.171875 C-3.58740251 25.33107754 -5.24509386 23.50387929 -7.8125 20.8984375 C-8.69550781 20.02832031 -9.57851562 19.15820312 -10.48828125 18.26171875 C-12.5 15.5859375 -12.5 15.5859375 -13.0859375 13.0859375 C-12.24514004 9.49853499 -10.41794179 7.84084364 -7.8125 5.2734375 C-6.94238281 4.39042969 -6.07226562 3.50742187 -5.17578125 2.59765625 C-2.5 0.5859375 -2.5 0.5859375 0 0 Z " fill="#0A0A0A" transform="translate(12.5,-0.5859375)"/>
<path d="M0 0 C0.33 0.99 0.66 1.98 1 3 C2.88316159 4.10836423 2.88316159 4.10836423 5 5 C5.99 5.66 6.98 6.32 8 7 C8.66 5.68 9.32 4.36 10 3 C13.34373475 3.55728913 16.03312999 4.35173889 19 6 C19.45375 5.505 19.9075 5.01 20.375 4.5 C22 3 22 3 24 3 C24.33 2.34 24.66 1.68 25 1 C24.45160287 4.98501916 22.52586116 6.93737246 19.75 9.75 C18.98171875 10.54921875 18.2134375 11.3484375 17.421875 12.171875 C15 14 15 14 12.53515625 14.5625 C8.89481672 13.75478214 7.26980988 11.89734583 4.6875 9.25 C3.80449219 8.36828125 2.92148437 7.4865625 2.01171875 6.578125 C0 4 0 4 0 0 Z " fill="#050505" transform="translate(0,11)"/>
<path d="M0 0 C2.46800047 1.15173355 4.04783565 2.04783565 6 4 C5.68134222 7.29279709 4.45484649 8.86535088 2 11 C-0.99324263 9.9024777 -1.84610901 9.32317108 -3.25 6.375 C-3.4975 5.59125 -3.745 4.8075 -4 4 C-2.68 2.68 -1.36 1.36 0 0 Z " fill="#E4E4E4" transform="translate(17,7)"/>
<path d="M0 0 C1.38938077 1.96147874 2.7260411 3.96166576 4 6 C2.68 7.65 1.36 9.3 0 11 C-2.46800047 9.84826645 -4.04783565 8.95216435 -6 7 C-5.75558954 4.47442523 -5.17639341 3.2147398 -3.5625 1.25 C-2 0 -2 0 0 0 Z " fill="#EEEEEE" transform="translate(8,7)"/>
</svg>
