<?xml version="1.0" encoding="UTF-8"?>
<svg version="1.1" xmlns="http://www.w3.org/2000/svg" width="756" height="756">
<path d="M0 0 C2.50719763 2.18997598 4.89231399 4.4512112 7.25 6.80078125 C8.29607422 7.81205078 8.29607422 7.81205078 9.36328125 8.84375 C21.50210737 21.40684577 27.62863094 38.55778983 28.25 55.80078125 C29.13816406 55.99671875 30.02632813 56.19265625 30.94140625 56.39453125 C50.51236434 60.97622881 69.19059471 68.02095287 87.25 76.80078125 C88.14654297 77.23342285 89.04308594 77.66606445 89.96679688 78.11181641 C117.46498192 91.52029987 145.76309269 109.54233691 166.625 132.30078125 C169.0820174 134.56879732 171.26471344 136.25232139 174.25 137.80078125 C177.68256036 137.27294751 177.68256036 137.27294751 181.0625 135.67578125 C198.93917122 128.2019187 220.14201671 128.27750681 238.13574219 135.56445312 C245.95840727 138.93957091 252.77478014 143.27817823 259.25 148.80078125 C260.05695312 149.41050781 260.86390625 150.02023438 261.6953125 150.6484375 C274.11947946 161.11589315 282.41452953 178.0345877 285.25 193.80078125 C285.476875 194.91453125 285.70375 196.02828125 285.9375 197.17578125 C287.75475386 218.25592608 283.61532911 238.2632177 270.5 255.1953125 C265.35911624 261.14838449 259.83594939 267.44832774 253.25 271.80078125 C252.59 271.80078125 251.93 271.80078125 251.25 271.80078125 C251.59611328 272.75597656 251.59611328 272.75597656 251.94921875 273.73046875 C264.92376388 312.3976902 267.15923338 358.49108453 261.25 398.80078125 C261.11577637 399.7434082 260.98155273 400.68603516 260.84326172 401.65722656 C258.81173096 415.60122171 255.92095555 429.20019182 252.25 442.80078125 C252.91386719 443.39246094 253.57773437 443.98414063 254.26171875 444.59375 C269.69461022 458.40449813 281.4949235 472.92126107 285.25 493.80078125 C285.476875 494.91453125 285.70375 496.02828125 285.9375 497.17578125 C287.75187493 518.22253048 283.64284199 538.33584402 270.47265625 555.2109375 C256.47463872 571.52145705 238.51638531 583.02240328 216.73730469 585.03271484 C201.68784992 585.92177134 188.19996174 583.61326531 174.25 577.80078125 C173.8375 578.22488281 173.425 578.64898438 173 579.0859375 C169.34257323 582.80051156 165.59963562 586.34669637 161.64453125 589.7421875 C159.83646382 591.29659457 158.04498692 592.8703288 156.26171875 594.453125 C125.25503518 621.80522016 71.11999892 660.80078125 28.25 660.80078125 C28.22421875 661.50460937 28.1984375 662.2084375 28.171875 662.93359375 C27.12870306 681.09426893 20.24464004 696.24057575 8.25 709.80078125 C7.47269531 710.71923828 7.47269531 710.71923828 6.6796875 711.65625 C-4.58511714 724.02489229 -22.96350667 732.88523408 -39.52929688 733.98535156 C-61.5287021 734.95488781 -81.76554281 731.57534843 -98.84985352 716.6496582 C-101.23531518 714.44214197 -103.49572548 712.14283904 -105.75 709.80078125 C-106.41257812 709.15753906 -107.07515625 708.51429688 -107.7578125 707.8515625 C-116.61353526 698.69800153 -121.74826156 685.97732477 -124.75 673.80078125 C-124.94722656 673.01960937 -125.14445312 672.2384375 -125.34765625 671.43359375 C-125.89429137 667.85658336 -125.8113183 664.41856122 -125.75 660.80078125 C-127.16925781 660.47207031 -127.16925781 660.47207031 -128.6171875 660.13671875 C-183.8878613 647.02932912 -230.87689236 616.31343586 -271.75 577.80078125 C-272.97976563 578.22230469 -274.20953125 578.64382813 -275.4765625 579.078125 C-277.10929309 579.63175204 -278.74211019 580.185124 -280.375 580.73828125 C-281.18324219 581.01607422 -281.99148438 581.29386719 -282.82421875 581.58007812 C-302.16519369 588.10569162 -323.01729478 585.8994454 -341.1875 576.98828125 C-347.23280975 573.86291831 -352.69559672 570.39211054 -357.75 565.80078125 C-358.48347656 565.15882813 -359.21695313 564.516875 -359.97265625 563.85546875 C-375.00994686 549.87568915 -382.47396496 531.08525594 -383.96484375 510.890625 C-384.65740193 490.30779592 -377.25468833 470.37088133 -363.2734375 455.33984375 C-358.93245421 450.97198131 -354.37596905 446.86471668 -349.75 442.80078125 C-349.91081055 442.18485107 -350.07162109 441.5689209 -350.23730469 440.93432617 C-353.43189911 428.55356383 -356.2066163 416.20801492 -358.0625 403.55078125 C-358.22137695 402.47078857 -358.38025391 401.3907959 -358.54394531 400.27807617 C-360.47689072 386.4426477 -360.95699939 372.74667511 -360.9375 358.80078125 C-360.93656342 357.93406799 -360.93562683 357.06735474 -360.93466187 356.17437744 C-360.8727993 329.74656623 -360.7699817 295.84074464 -348.75 271.80078125 C-349.33394531 271.53265625 -349.91789062 271.26453125 -350.51953125 270.98828125 C-364.77068115 263.40097903 -375.30937454 247.2080653 -380.03222656 232.14868164 C-386.29490718 210.9036343 -384.33690258 189.94955171 -374.41015625 170.125 C-363.98375875 151.55388202 -346.87869724 138.84596127 -326.75 132.80078125 C-320.04228581 130.93135274 -313.63763593 130.41467973 -306.6875 130.42578125 C-305.68468994 130.42666748 -304.68187988 130.42755371 -303.64868164 130.4284668 C-293.93181458 130.58144552 -284.19577973 131.78722707 -275.56640625 136.5625 C-272.91494709 138.07923106 -272.91494709 138.07923106 -270.66015625 137.23828125 C-268.38591303 135.52678533 -266.28058323 133.73179708 -264.1875 131.80078125 C-263.29675781 130.98867187 -262.40601563 130.1765625 -261.48828125 129.33984375 C-259.76587544 127.74274849 -258.05337318 126.13483783 -256.35546875 124.51171875 C-221.23605274 91.43863092 -172.91821874 65.61528639 -125.75 55.80078125 C-125.78222656 54.80175781 -125.81445312 53.80273438 -125.84765625 52.7734375 C-125.44340449 36.32847587 -117.62941879 20.78792268 -106.75 8.80078125 C-105.62464844 7.53621094 -105.62464844 7.53621094 -104.4765625 6.24609375 C-77.13596868 -22.8641178 -30.78540217 -24.61957589 0 0 Z M-86.75 27.80078125 C-91.55208269 34.2687027 -96.75 41.53519698 -96.75 49.80078125 C-93.18443967 49.60920024 -89.6242126 49.36593255 -86.0625 49.11328125 C-84.55139648 49.03303711 -84.55139648 49.03303711 -83.00976562 48.95117188 C-76.90579821 48.51424974 -76.90579821 48.51424974 -71.75 45.4140625 C-71.09 44.55167969 -70.43 43.68929687 -69.75 42.80078125 C-63.35060468 36.55957323 -57.84336801 33.71855651 -48.8125 33.36328125 C-39.54061312 33.63186236 -33.26420339 37.46092394 -26.75 43.80078125 C-25.87130249 44.81350098 -25.87130249 44.81350098 -24.97485352 45.84667969 C-22.3346788 48.16556023 -21.00797076 48.38743445 -17.546875 48.62890625 C-16.5671875 48.70625 -15.5875 48.78359375 -14.578125 48.86328125 C-13.05445313 48.95609375 -13.05445313 48.95609375 -11.5 49.05078125 C-10.46875 49.128125 -9.4375 49.20546875 -8.375 49.28515625 C-5.83404095 49.47337544 -3.29309702 49.64461503 -0.75 49.80078125 C-2.98082433 38.15444924 -8.67507985 28.1232981 -18.2890625 20.890625 C-40.7138249 6.0144798 -67.95592802 7.53199194 -86.75 27.80078125 Z M-29.4375 78.11328125 C-29.83324219 78.74878906 -30.22898437 79.38429688 -30.63671875 80.0390625 C-31.75 81.80078125 -31.75 81.80078125 -34.75 83.80078125 C-35.16678607 86.31974199 -35.16678607 86.31974199 -35.04296875 89.24609375 C-35.03330078 90.32246094 -35.02363281 91.39882812 -35.01367188 92.5078125 C-34.98853516 93.63574219 -34.96339844 94.76367188 -34.9375 95.92578125 C-34.92396484 97.06144531 -34.91042969 98.19710937 -34.89648438 99.3671875 C-34.86104319 102.17885512 -34.81163517 104.98958542 -34.75 107.80078125 C-33.14724015 107.17493272 -31.54596008 106.54529371 -29.9453125 105.9140625 C-29.05344238 105.56384033 -28.16157227 105.21361816 -27.24267578 104.8527832 C-24.06541184 103.51185957 -21.4955016 101.88974986 -18.75 99.80078125 C-17.81220703 99.09695312 -17.81220703 99.09695312 -16.85546875 98.37890625 C-10.48002054 93.25904344 -4.27822002 86.06090717 -2.75 77.80078125 C-17.03679405 73.38487878 -17.03679405 73.38487878 -29.4375 78.11328125 Z M-84.9375 75.73828125 C-85.66130859 75.82529297 -86.38511719 75.91230469 -87.13085938 76.00195312 C-91.06426327 76.4523244 -91.06426327 76.4523244 -94.75 77.80078125 C-92.40501881 87.70181293 -84.83554705 95.99704503 -76.75 101.80078125 C-70.13119653 105.99046923 -70.13119653 105.99046923 -62.75 107.80078125 C-62.51617712 103.94764997 -62.37510247 100.09635213 -62.25 96.23828125 C-62.18296875 95.15224609 -62.1159375 94.06621094 -62.046875 92.94726562 C-61.81307134 86.81355293 -61.81307134 86.81355293 -64.53125 81.53173828 C-66.53129891 79.80982118 -68.59535939 78.31874511 -70.75 76.80078125 C-71.08 76.14078125 -71.41 75.48078125 -71.75 74.80078125 C-76.19998814 74.66964211 -80.53270447 75.17622137 -84.9375 75.73828125 Z M24.25 83.80078125 C23.95867187 84.55101563 23.66734375 85.30125 23.3671875 86.07421875 C18.69696374 97.73509192 13.0768734 106.82198232 4.25 115.80078125 C3.63511719 116.42855469 3.02023437 117.05632812 2.38671875 117.703125 C-8.22222155 127.72141766 -20.87696211 132.30732861 -34.75 135.80078125 C-34.75 140.09078125 -34.75 144.38078125 -34.75 148.80078125 C-32.51669922 149.03861328 -32.51669922 149.03861328 -30.23828125 149.28125 C16.75913044 154.54548848 63.72132257 172.46056544 96.78051758 207.48706055 C98.16998756 209.02294481 98.16998756 209.02294481 100.25 208.80078125 C100.51167969 209.39503906 100.77335938 209.98929687 101.04296875 210.6015625 C102.32347962 212.93466159 103.59378094 214.21348313 105.5625 215.98828125 C109.91242755 220.20177196 113.53017382 224.86678639 117.1875 229.67578125 C117.76733643 230.43785889 118.34717285 231.19993652 118.94458008 231.98510742 C123.09635962 237.49350049 123.09635962 237.49350049 124.25 239.80078125 C127.46852831 239.17012368 129.75801069 238.0205743 132.5 236.23828125 C133.55960938 235.55572266 133.55960938 235.55572266 134.640625 234.859375 C135.17171875 234.51003906 135.7028125 234.16070312 136.25 233.80078125 C135.94255859 232.53234375 135.94255859 232.53234375 135.62890625 231.23828125 C130.44073967 209.39336933 131.35254838 188.19045173 142.75 168.30078125 C145.40751961 163.99757662 148.21581553 159.84636054 151.25 155.80078125 C145.86034706 150.13315194 140.1354712 145.092403 134.01586914 140.2277832 C132.61317985 139.09426752 131.22477284 137.94308234 129.84155273 136.78588867 C123.44266984 131.45662213 116.87858245 126.58656769 109.9375 121.98828125 C108.90133545 121.3017749 107.8651709 120.61526855 106.79760742 119.90795898 C85.23107317 105.81060984 50.79675747 83.80078125 24.25 83.80078125 Z M-236.45703125 144.6953125 C-239.29523963 147.3014357 -242.21822839 149.80046681 -245.15625 152.29296875 C-246.98369102 153.90951754 -246.98369102 153.90951754 -248.75 156.80078125 C-248.3375 157.26484375 -247.925 157.72890625 -247.5 158.20703125 C-238.95451696 168.43109131 -233.04495521 180.66414108 -230.75 193.80078125 C-230.62109375 194.49171875 -230.4921875 195.18265625 -230.359375 195.89453125 C-230.05181967 197.8693602 -229.8728217 199.8058591 -229.75 201.80078125 C-229.69714844 202.65671875 -229.64429688 203.51265625 -229.58984375 204.39453125 C-229.28086765 214.38923637 -231.21679008 224.15982701 -233.75 233.80078125 C-232.29550599 234.80635735 -230.83627557 235.8050856 -229.375 236.80078125 C-228.56289062 237.35765625 -227.75078125 237.91453125 -226.9140625 238.48828125 C-224.88681813 239.97363969 -224.88681813 239.97363969 -222.75 239.80078125 C-221.53995325 238.28746464 -220.40876169 236.71095161 -219.3125 235.11328125 C-206.68151244 217.39826471 -191.40941334 201.53806004 -173.75 188.80078125 C-173.20150391 188.39730469 -172.65300781 187.99382812 -172.08789062 187.578125 C-154.78620193 174.96188775 -135.09648116 165.34596353 -114.75 158.80078125 C-114.06099609 158.56955566 -113.37199219 158.33833008 -112.66210938 158.10009766 C-97.55819671 153.05228669 -81.7342296 150.19797984 -65.86279297 149.05566406 C-63.76679476 149.02335168 -63.76679476 149.02335168 -62.75 147.80078125 C-62.67755947 145.78113926 -62.66622812 143.75911001 -62.6875 141.73828125 C-62.69652344 140.63355469 -62.70554687 139.52882812 -62.71484375 138.390625 C-62.72644531 137.53597656 -62.73804688 136.68132812 -62.75 135.80078125 C-63.430625 135.67703125 -64.11125 135.55328125 -64.8125 135.42578125 C-76.97683767 132.8376243 -88.49792928 127.37756207 -97.953125 119.24609375 C-99.6994671 117.71649872 -99.6994671 117.71649872 -101.859375 116.85546875 C-104.26649848 115.51265193 -104.619158 114.27872188 -105.75 111.80078125 C-106.9545707 110.32206687 -108.18679689 108.86568699 -109.4375 107.42578125 C-114.37956685 101.37647538 -117.46651148 94.84697013 -120.75 87.80078125 C-121.41147359 86.464864 -122.0754865 85.13016222 -122.75 83.80078125 C-160.83069412 83.80078125 -209.59881998 119.94019118 -236.45703125 144.6953125 Z M-342.52734375 173.453125 C-352.48171732 183.96732274 -356.16138984 196.79648294 -356.02734375 211.03515625 C-355.11041477 223.48472725 -349.26982335 234.80763438 -340.75 243.80078125 C-340.09 243.80078125 -339.43 243.80078125 -338.75 243.80078125 C-337.37093917 240.76980929 -336.02641957 237.72467322 -334.6875 234.67578125 C-334.29755859 233.81984375 -333.90761719 232.96390625 -333.50585938 232.08203125 C-330.70815682 225.64483952 -330.65950926 222.20054651 -332.8125 215.48828125 C-334.73733908 207.91724755 -334.27204364 200.84486854 -330.75 193.80078125 C-326.92457636 188.0930063 -322.382483 183.86034176 -315.75 181.80078125 C-313.95895569 181.64749367 -312.16722261 181.5021154 -310.375 181.36328125 C-305.69317554 180.66654242 -303.56903769 179.00249055 -300.61279297 175.31225586 C-298.56185973 172.53390751 -296.62844935 169.69795079 -294.75 166.80078125 C-293.98954794 165.65931136 -293.22790055 164.51863655 -292.46484375 163.37890625 C-291.61599609 162.10273438 -291.61599609 162.10273438 -290.75 160.80078125 C-308.87050429 152.60099998 -329.03111575 160.64133329 -342.52734375 173.453125 Z M199.3125 158.80078125 C198.35472656 158.98640625 197.39695312 159.17203125 196.41015625 159.36328125 C195.34087891 159.57984375 195.34087891 159.57984375 194.25 159.80078125 C194.25 163.98879259 196.55099086 166.11199379 199.0625 169.23828125 C199.96493587 170.38273987 200.86728176 171.52726944 201.76953125 172.671875 C202.58808594 173.70441406 203.40664063 174.73695313 204.25 175.80078125 C204.724375 176.56777344 205.19875 177.33476562 205.6875 178.125 C207.98089176 180.58466266 210.16275613 180.64598681 213.4375 181.17578125 C221.04641624 182.73484649 225.24281477 185.71232074 230.5625 191.17578125 C235.19934 198.38864347 236.29653455 205.33616354 235.25 213.80078125 C234.65708074 215.19863333 234.05897739 216.59429254 233.45703125 217.98828125 C231.65795974 223.0893986 233.01807336 226.26803636 235.18554688 231.05664062 C235.63994141 231.98283203 236.09433594 232.90902344 236.5625 233.86328125 C237.22668945 235.30477539 237.22668945 235.30477539 237.90429688 236.77539062 C238.99405661 239.13067779 240.108999 241.47000217 241.25 243.80078125 C249.06108603 240.10801298 253.0390916 231.50696142 256.25 223.80078125 C260.50399973 211.89839858 259.19399777 198.23014079 254.25 186.80078125 C247.81545952 174.53692935 238.96194168 166.26842403 226.25 160.80078125 C217.20258639 157.99102547 208.65478558 156.95539151 199.3125 158.80078125 Z M-268.75 177.80078125 C-270.54302821 180.07055107 -272.33446793 182.34154369 -274.125 184.61328125 C-274.63289063 185.25587891 -275.14078125 185.89847656 -275.6640625 186.56054688 C-276.39882813 187.49350586 -276.39882813 187.49350586 -277.1484375 188.4453125 C-277.59880371 189.01612549 -278.04916992 189.58693848 -278.51318359 190.17504883 C-281.47934701 194.07392017 -282.04015411 195.77378615 -281.4375 200.61328125 C-280.79421018 203.97942673 -280.36106666 206.13567468 -278.02734375 208.67578125 C-275.67319223 210.24806393 -273.27642305 211.52309166 -270.75 212.80078125 C-268.57938701 214.08580516 -266.41277112 215.3776024 -264.25 216.67578125 C-261.19878596 218.76841387 -261.19878596 218.76841387 -257.75 219.80078125 C-254.60665229 206.26410644 -257.44663094 194.01730159 -263.37109375 181.796875 C-264.93566717 179.53201093 -266.21704827 178.79567737 -268.75 177.80078125 Z M-34.75 177.80078125 C-34.75 228.95078125 -34.75 280.10078125 -34.75 332.80078125 C-31.25527389 331.4028908 -28.30006512 330.0836193 -25.07421875 328.25390625 C-24.17646729 327.74609619 -23.27871582 327.23828613 -22.35375977 326.71508789 C-20.91021118 325.8912561 -20.91021118 325.8912561 -19.4375 325.05078125 C-17.91757446 324.18731079 -17.91757446 324.18731079 -16.36694336 323.30639648 C-6.12129948 317.47100898 4.06095125 311.52784313 14.23388672 305.56689453 C19.23538629 302.63821978 24.24298348 299.72001025 29.25 296.80078125 C31.23440455 295.64327982 33.21877948 294.48572763 35.203125 293.328125 C43.04296875 288.75488281 43.04296875 288.75488281 50.8828125 284.18164062 C51.91148437 283.58158203 52.94015625 282.98152344 54 282.36328125 C61.75 277.84244792 69.5 273.32161458 77.25 268.80078125 C76.01904859 265.53648573 74.65172904 262.62643389 72.78125 259.68359375 C72.29769043 258.91942139 71.81413086 258.15524902 71.31591797 257.36791992 C70.79916504 256.56201416 70.28241211 255.7561084 69.75 254.92578125 C69.21391113 254.08442627 68.67782227 253.24307129 68.12548828 252.3762207 C58.17888247 236.81716083 48.07983706 221.28773931 36.19140625 207.125 C34.69541254 205.33402162 33.26927112 203.48453986 31.875 201.61328125 C14.56182571 183.06345165 -10.82649118 180.07921066 -34.75 177.80078125 Z M169.25 177.80078125 C162.29490045 186.26991608 159.10179291 197.03268952 159.125 207.80078125 C159.12242187 208.99703125 159.11984375 210.19328125 159.1171875 211.42578125 C159.23242062 214.35405818 159.57176437 216.95865101 160.25 219.80078125 C162.89522793 218.38261723 165.52896158 216.94979241 168.1484375 215.484375 C171.25 213.80078125 171.25 213.80078125 174.1015625 212.5234375 C178.1642516 210.55201462 180.60811884 208.93930038 182.85546875 204.953125 C184.06601665 201.28651963 184.54615849 198.65955215 184.25 194.80078125 C181.88502952 190.16847668 178.77112659 186.59533923 175.25 182.80078125 C174.52941406 181.86234375 173.80882812 180.92390625 173.06640625 179.95703125 C172.16728516 178.8896875 172.16728516 178.8896875 171.25 177.80078125 C170.59 177.80078125 169.93 177.80078125 169.25 177.80078125 Z M-128.5390625 199.484375 C-129.26867187 200.24878906 -129.99828125 201.01320312 -130.75 201.80078125 C-131.81347656 202.87005859 -131.81347656 202.87005859 -132.8984375 203.9609375 C-147.40493077 219.22679594 -158.49070222 238.09884146 -169.75 255.80078125 C-170.36762207 256.75726563 -170.98524414 257.71375 -171.62158203 258.69921875 C-172.18087402 259.58867187 -172.74016602 260.478125 -173.31640625 261.39453125 C-173.81213135 262.17505859 -174.30785645 262.95558594 -174.81860352 263.75976562 C-176.08704833 265.92553509 -176.08704833 265.92553509 -174.75 268.80078125 C-172.42029155 270.46122467 -172.42029155 270.46122467 -169.4765625 272.03125 C-168.35572266 272.66095703 -167.23488281 273.29066406 -166.08007812 273.93945312 C-165.47752197 274.27259521 -164.87496582 274.6057373 -164.25415039 274.94897461 C-161.0365468 276.72854308 -157.83595213 278.53831968 -154.6328125 280.34375 C-153.97295349 280.7145871 -153.31309448 281.08542419 -152.63323975 281.46749878 C-146.10945728 285.14142888 -139.67671357 288.95949982 -133.25 292.80078125 C-122.99717581 298.91376048 -112.66860369 304.87461269 -102.28759766 310.765625 C-96.17582111 314.24282219 -90.09435667 317.76211109 -84.0546875 321.36328125 C-83.4276593 321.73694824 -82.8006311 322.11061523 -82.15460205 322.49560547 C-79.13260618 324.29858297 -76.11471041 326.10805781 -73.1015625 327.92578125 C-72.03421875 328.56515625 -70.966875 329.20453125 -69.8671875 329.86328125 C-68.92472168 330.43175781 -67.98225586 331.00023437 -67.01123047 331.5859375 C-64.88417887 332.95853843 -64.88417887 332.95853843 -62.75 332.80078125 C-62.75 281.65078125 -62.75 230.50078125 -62.75 177.80078125 C-85.56387931 177.80078125 -111.76451712 183.01634124 -128.5390625 199.484375 Z M-304.75 234.80078125 C-307.76535191 239.22476472 -309.77052281 243.84084125 -311.75 248.80078125 C-312.141875 249.71085937 -312.53375 250.6209375 -312.9375 251.55859375 C-313.92034537 253.87339216 -313.92034537 253.87339216 -313.75 256.80078125 C-301.36875591 259.22847617 -288.80429613 255.86739412 -278.22265625 249.2109375 C-275.35980361 247.15466653 -275.35980361 247.15466653 -272.75 244.80078125 C-272.75 244.14078125 -272.75 243.48078125 -272.75 242.80078125 C-274.51028803 241.47227903 -274.51028803 241.47227903 -276.80078125 240.19921875 C-277.64447266 239.709375 -278.48816406 239.21953125 -279.35742188 238.71484375 C-280.69643555 237.95300781 -280.69643555 237.95300781 -282.0625 237.17578125 C-282.94357422 236.66015625 -283.82464844 236.14453125 -284.73242188 235.61328125 C-291.71268022 231.60029623 -297.441848 230.32730639 -304.75 234.80078125 Z M184.3125 237.05078125 C183.43787109 237.56769531 182.56324219 238.08460938 181.66210938 238.6171875 C178.37096758 240.5847189 178.37096758 240.5847189 175.25 242.80078125 C175.25 243.46078125 175.25 244.12078125 175.25 244.80078125 C185.14103872 253.34495512 196.3121661 257.04148375 209.25 257.80078125 C211.59121063 257.5282224 213.9289023 257.2107337 216.25 256.80078125 C215.53286389 252.12100843 213.9202014 247.96349517 212.125 243.61328125 C211.85429688 242.88947266 211.58359375 242.16566406 211.3046875 241.41992188 C209.67093906 237.49965496 209.01156996 236.11495137 204.9453125 234.4375 C203.72585938 234.22738281 202.50640625 234.01726562 201.25 233.80078125 C200.15558594 233.32125 199.06117188 232.84171875 197.93359375 232.34765625 C192.30770845 231.51242407 188.98337054 234.11683519 184.3125 237.05078125 Z M-247.75 257.80078125 C-248.32105469 258.42984375 -248.89210938 259.05890625 -249.48046875 259.70703125 C-262.51237227 273.46408043 -280.3026142 282.79593137 -299.42431641 284.03979492 C-303.14166225 284.09370839 -306.84562693 284.06445469 -310.5625 283.98828125 C-311.83931641 283.97474609 -313.11613281 283.96121094 -314.43164062 283.94726562 C-317.53822548 283.91236018 -320.64387016 283.86333369 -323.75 283.80078125 C-335.86845504 333.93861054 -335.86845504 382.66295196 -323.75 432.80078125 C-322.79867187 432.64222656 -321.84734375 432.48367188 -320.8671875 432.3203125 C-299.87885042 429.35582836 -279.36312696 432.70944033 -261.75 444.80078125 C-258.33260345 447.52944931 -255.23516997 450.49849299 -252.16796875 453.61328125 C-249.74656517 455.80388869 -248.90317903 456.48622789 -245.75 456.80078125 C-243.54821692 455.84705776 -243.54821692 455.84705776 -241.5 454.36328125 C-240.79359375 453.89019531 -240.0871875 453.41710937 -239.359375 452.9296875 C-238.82828125 452.55714844 -238.2971875 452.18460938 -237.75 451.80078125 C-238.02150879 451.15343018 -238.29301758 450.5060791 -238.57275391 449.83911133 C-261.71096453 394.31426014 -266.54415731 335.51881261 -243.75 278.80078125 C-242.17952841 275.22466734 -240.49270411 271.71440232 -238.71875 268.234375 C-237.41702283 265.7252579 -237.41702283 265.7252579 -238.75 262.80078125 C-240.83812458 261.34433368 -240.83812458 261.34433368 -243.3125 260.11328125 C-244.13878906 259.67628906 -244.96507812 259.23929687 -245.81640625 258.7890625 C-246.45449219 258.46292969 -247.09257812 258.13679688 -247.75 257.80078125 Z M143.5 261.23828125 C142.70078125 261.71136719 141.9015625 262.18445313 141.078125 262.671875 C140.47484375 263.04441406 139.8715625 263.41695313 139.25 263.80078125 C139.52150879 264.44813232 139.79301758 265.0954834 140.07275391 265.76245117 C163.86444721 322.85546721 167.79125774 382.47594578 144.15087891 440.4921875 C142.69952429 444.21143121 141.46456115 447.99867679 140.25 451.80078125 C140.82524414 452.19386475 141.40048828 452.58694824 141.99316406 452.99194336 C143.36523438 453.92952474 144.73730469 454.86710612 146.109375 455.8046875 C148.16768781 456.96918985 148.16768781 456.96918985 150.30078125 456.67578125 C152.73295416 455.58398419 153.92894702 454.23966337 155.6875 452.23828125 C167.91071018 439.56067664 186.09506486 432.08476459 203.56640625 431.5859375 C211.21202538 431.49370169 218.6973053 431.52658514 226.25 432.80078125 C231.17659593 412.41607692 235.3451072 391.87185124 235.453125 370.82421875 C235.46013931 369.90421585 235.46715363 368.98421295 235.47438049 368.03633118 C235.49178892 365.08276415 235.49823311 362.1293977 235.5 359.17578125 C235.50067474 358.16601227 235.50134949 357.15624329 235.50204468 356.11587524 C235.48612413 341.13017786 235.07820751 326.56040726 232.25 311.80078125 C232.04648926 310.7348877 231.84297852 309.66899414 231.63330078 308.57080078 C230.01752553 300.27696552 228.33188521 291.99188217 226.25 283.80078125 C225.50540527 283.8164917 224.76081055 283.83220215 223.99365234 283.84838867 C198.25929057 284.31993991 176.58943753 282.16805159 156.8125 263.92578125 C156.03003906 263.16523438 155.24757813 262.4046875 154.44140625 261.62109375 C150.28950255 258.17227535 148.02510068 258.50991172 143.5 261.23828125 Z M-191.75 291.80078125 C-192.23859497 292.66521851 -192.23859497 292.66521851 -192.73706055 293.54711914 C-193.72881969 295.30176994 -194.72060269 297.05640726 -195.71240234 298.81103516 C-196.87565942 300.86920667 -198.03874152 302.92747708 -199.20166016 304.98583984 C-202.78229921 311.32288812 -206.36854567 317.65670043 -209.96142578 323.98681641 C-211.59774881 326.87763776 -213.22322337 329.77435988 -214.84765625 332.671875 C-216.55761073 335.71715908 -218.29828134 338.73196381 -220.12109375 341.7109375 C-224.37336086 348.88931195 -226.30136246 354.46732186 -224.75 362.80078125 C-221.3911205 370.91214041 -216.71649914 378.50956457 -212.25 386.05078125 C-211.02572821 388.1300238 -209.80178018 390.20945701 -208.578125 392.2890625 C-207.95228516 393.3507666 -207.32644531 394.4124707 -206.68164062 395.50634766 C-204.70339587 398.88026509 -202.74728879 402.26617619 -200.796875 405.65625 C-200.16072266 406.7587207 -199.52457031 407.86119141 -198.86914062 408.99707031 C-197.64007749 411.12834542 -196.41470616 413.26175454 -195.19335938 415.39746094 C-194.63970703 416.35426758 -194.08605469 417.31107422 -193.515625 418.296875 C-192.78520996 419.56809204 -192.78520996 419.56809204 -192.04003906 420.86499023 C-190.89010803 422.93751497 -190.89010803 422.93751497 -188.75 423.80078125 C-186.57445165 422.83598615 -186.57445165 422.83598615 -184.1484375 421.328125 C-183.19582031 420.76544922 -182.24320313 420.20277344 -181.26171875 419.62304688 C-180.22660156 419.00107422 -179.19148438 418.37910156 -178.125 417.73828125 C-175.92460391 416.43468525 -173.72407958 415.13130569 -171.5234375 413.828125 C-170.39518555 413.1563623 -169.26693359 412.48459961 -168.10449219 411.79248047 C-163.00431108 408.76429434 -157.87699509 405.78325904 -152.75 402.80078125 C-150.74984625 401.6343782 -148.74984678 400.46771053 -146.75 399.30078125 C-134.75 392.30078125 -134.75 392.30078125 -131.74780273 390.54956055 C-129.75505606 389.38708441 -127.76237986 388.22448746 -125.76977539 387.06176758 C-120.65938138 384.07997286 -115.54764452 381.1005193 -110.43359375 378.125 C-104.53429616 374.69171592 -98.64043986 371.249237 -92.75 367.80078125 C-91.92918945 367.32141113 -91.10837891 366.84204102 -90.26269531 366.34814453 C-88.10919236 365.08807759 -85.9600113 363.82102482 -83.8125 362.55078125 C-82.89005493 362.01263794 -82.89005493 362.01263794 -81.94897461 361.46362305 C-78.80229021 359.67895059 -78.80229021 359.67895059 -76.75 356.80078125 C-77.32105469 356.48028809 -77.89210938 356.15979492 -78.48046875 355.82958984 C-92.64302144 347.8730047 -106.7183801 339.77944192 -120.73388672 331.56689453 C-125.73538635 328.63821974 -130.74299851 325.72003611 -135.75 322.80078125 C-137.74090902 321.63936337 -139.7317944 320.47790498 -141.72265625 319.31640625 C-145.81330628 316.93013819 -149.90451794 314.54483656 -153.99609375 312.16015625 C-155.02387939 311.56090332 -156.05166504 310.96165039 -157.1105957 310.34423828 C-159.13862593 309.16214592 -161.16709881 307.98081262 -163.19604492 306.80029297 C-167.78938022 304.12501596 -172.37278946 301.43617373 -176.9296875 298.69921875 C-177.71802979 298.22774414 -178.50637207 297.75626953 -179.31860352 297.27050781 C-180.77039166 296.40047745 -182.21903258 295.52516441 -183.66381836 294.64355469 C-187.43458167 292.3523234 -187.43458167 292.3523234 -191.75 291.80078125 Z M86.74609375 294.37109375 C85.79025391 294.93054688 84.83441406 295.49 83.84960938 296.06640625 C82.80611328 296.68 81.76261719 297.29359375 80.6875 297.92578125 C78.47789785 299.22010887 76.2682615 300.51437812 74.05859375 301.80859375 C72.92405762 302.47407227 71.78952148 303.13955078 70.62060547 303.82519531 C65.50191544 306.82537203 60.37591092 309.81296443 55.25 312.80078125 C49.27214323 316.28685046 43.29493995 319.77402357 37.3203125 323.265625 C35.33860694 324.42328883 33.35683605 325.58084084 31.375 326.73828125 C29.90969849 327.59413818 29.90969849 327.59413818 28.41479492 328.46728516 C21.94648678 332.24059699 15.46176147 335.98447434 8.96972656 339.71679688 C-0.69308657 345.27242976 -10.33345473 350.83442767 -19.75 356.80078125 C-18.3198329 361.09128254 -15.17975597 361.99842345 -11.375 363.98828125 C-3.38029289 368.29619592 4.45284946 372.83283972 12.25 377.48828125 C22.34038813 383.50279814 32.47904585 389.42514413 42.66308594 395.28027344 C50.12539783 399.57138673 57.56846104 403.89410313 65 408.23828125 C73.3893429 413.14133002 81.796764 418.00862986 90.25 422.80078125 C93.06165902 419.43997603 95.33596689 416.0960808 97.4296875 412.25 C98.02241455 411.16992676 98.6151416 410.08985352 99.22583008 408.97705078 C99.85255615 407.82575684 100.47928223 406.67446289 101.125 405.48828125 C102.45578578 403.06037144 103.79125305 400.6350698 105.12890625 398.2109375 C105.46796494 397.59623596 105.80702362 396.98153442 106.15635681 396.34820557 C110.25077057 388.95283763 114.53986488 381.67238864 118.85693359 374.4050293 C119.40559082 373.47601807 119.95424805 372.54700684 120.51953125 371.58984375 C121.00010986 370.78240723 121.48068848 369.9749707 121.97583008 369.14306641 C125.16475966 363.28091075 126.44999656 358.41790513 125.25 351.80078125 C123.06915995 346.20416762 120.17206515 341.03950287 117.25 335.80078125 C116.73002441 334.85654297 116.21004883 333.91230469 115.67431641 332.93945312 C111.59072817 325.52678847 107.43581266 318.15611725 103.25 310.80078125 C102.41275391 309.32641602 102.41275391 309.32641602 101.55859375 307.82226562 C100.02380434 305.12436473 98.48255706 302.43031263 96.9375 299.73828125 C96.47561279 298.9289917 96.01372559 298.11970215 95.5378418 297.28588867 C94.47108324 295.44033718 93.36515033 293.61750188 92.25 291.80078125 C90.26588285 291.80078125 88.39551992 293.40298298 86.74609375 294.37109375 Z M-69.7890625 385.58984375 C-70.8320752 386.19449463 -71.87508789 386.79914551 -72.94970703 387.42211914 C-74.08005371 388.08332764 -75.21040039 388.74453613 -76.375 389.42578125 C-77.55431143 390.11161366 -78.73383909 390.7970744 -79.91357422 391.48217773 C-82.94615659 393.24469567 -85.9757182 395.01233551 -89.00439453 396.78155518 C-91.65774346 398.33079552 -94.31334058 399.87616975 -96.96875 401.421875 C-101.90905178 404.29931857 -106.84614253 407.18222294 -111.78222656 410.06689453 C-115.76977281 412.39657152 -119.75895029 414.72344639 -123.74829102 417.05004883 C-125.74113177 418.21236368 -127.73380897 419.37495899 -129.72631836 420.5378418 C-134.86032041 423.5339729 -139.99662962 426.52604093 -145.13671875 429.51171875 C-155.41880628 435.48853761 -165.66861774 441.49031422 -175.75 447.80078125 C-166.06425955 465.63714706 -156.26319565 483.43577745 -145.75 500.80078125 C-145.17765625 501.75597656 -144.6053125 502.71117187 -144.015625 503.6953125 C-139.10723013 511.52597338 -134.99725954 513.48896637 -125.75 515.80078125 C-104.96 515.80078125 -84.17 515.80078125 -62.75 515.80078125 C-62.75 471.91078125 -62.75 428.02078125 -62.75 382.80078125 C-65.64559757 382.80078125 -67.29134938 384.13519857 -69.7890625 385.58984375 Z M-34.75 382.80078125 C-34.75 426.69078125 -34.75 470.58078125 -34.75 515.80078125 C-1.96051346 519.50328437 -1.96051346 519.50328437 39.13671875 510.98828125 C41.61149952 508.42658581 43.27529566 505.88743966 45.0625 502.80078125 C45.42867432 502.17413574 45.79484863 501.54749023 46.17211914 500.90185547 C47.54433381 498.54207241 48.8976325 496.17199613 50.25 493.80078125 C50.84844727 492.75567383 51.44689453 491.71056641 52.06347656 490.63378906 C56.17956445 483.4460646 56.17956445 483.4460646 60.27416992 476.24609375 C63.30423044 470.90510052 66.34953131 465.58260699 69.57421875 460.35546875 C70.0544751 459.57155762 70.53473145 458.78764648 71.02954102 457.97998047 C71.90044129 456.56940964 72.78429181 455.16671881 73.68334961 453.77392578 C74.96996787 451.76681189 74.96996787 451.76681189 76.25 448.80078125 C75.0967159 445.16454432 73.24943503 443.89823839 69.97265625 442.12890625 C69.0808667 441.63793457 68.18907715 441.14696289 67.27026367 440.64111328 C66.29420166 440.11630371 65.31813965 439.59149414 64.3125 439.05078125 C62.20425501 437.88939074 60.09754471 436.72521102 57.9921875 435.55859375 C56.88584961 434.94661133 55.77951172 434.33462891 54.63964844 433.70410156 C49.01285631 430.54460348 43.47734132 427.23464393 37.9375 423.92578125 C25.8796605 416.74390696 13.74566864 409.70303655 1.57617188 402.71240234 C-3.73047171 399.66256241 -9.0328327 396.60530695 -14.33468628 393.54714966 C-16.01914608 392.57578191 -17.70402556 391.60514205 -19.38891602 390.63452148 C-20.41170654 390.04485596 -21.43449707 389.45519043 -22.48828125 388.84765625 C-23.38587158 388.33041992 -24.28346191 387.81318359 -25.20825195 387.28027344 C-26.9739205 386.252519 -28.72154305 385.19338043 -30.45385742 384.11035156 C-32.59899406 382.63564038 -32.59899406 382.63564038 -34.75 382.80078125 Z M-314.75 458.80078125 C-313.56739175 462.29529171 -312.35847293 465.77605882 -311.07421875 469.234375 C-310.34778948 471.19080544 -309.63955857 473.15572937 -309.01953125 475.1484375 C-307.78893105 478.24193523 -305.80855025 479.7641237 -303.0546875 481.48828125 C-298.08932078 483.60806658 -294.35848418 484.75771592 -289.23974609 482.87988281 C-283.42699928 480.03330689 -278.03350887 476.52652796 -272.75 472.80078125 C-274.52238859 467.48361549 -280.02905402 465.41756823 -284.75 462.80078125 C-294.26242044 458.22224555 -304.36321541 456.76689667 -314.75 458.80078125 Z M175.25 470.80078125 C175.25 471.46078125 175.25 472.12078125 175.25 472.80078125 C181.42342072 477.90423292 189.95207922 483.5794671 198.04296875 483.99609375 C203.24890168 482.74149625 206.86418906 481.02097738 210.25 476.80078125 C211.68869508 473.97535708 212.85207965 471.06683598 214 468.11328125 C214.31582031 467.32888672 214.63164063 466.54449219 214.95703125 465.73632812 C216.54738781 462.36545597 216.54738781 462.36545597 217.25 458.80078125 C202.19372622 456.25043283 186.70851792 460.54406087 175.25 470.80078125 Z M-340.75 471.80078125 C-350.52408615 481.88470875 -355.71847073 493.57363453 -356.1875 507.67578125 C-355.85543418 521.45651268 -350.36430797 533.65775977 -341.0390625 543.6640625 C-331.23374203 552.81681045 -318.19755561 558.04257686 -304.75 557.80078125 C-300.70421394 557.32508347 -296.73491088 556.64227203 -292.75 555.80078125 C-292.75 552.2462581 -293.42278836 551.56262752 -295.55859375 548.82421875 C-296.43161133 547.695 -296.43161133 547.695 -297.32226562 546.54296875 C-297.93779297 545.76179687 -298.55332031 544.980625 -299.1875 544.17578125 C-299.79916016 543.386875 -300.41082031 542.59796875 -301.04101562 541.78515625 C-305.09167111 536.11027873 -305.09167111 536.11027873 -311.3125 534.05078125 C-319.55762815 532.42763191 -324.83532658 528.68158009 -329.5625 521.7578125 C-333.38254467 515.46227835 -333.27543136 508.98828571 -332.75 501.80078125 C-332.10610218 499.7933351 -331.44437747 497.79133001 -330.75 495.80078125 C-331.16000185 490.11023831 -332.87102118 485.54939836 -335.1875 480.42578125 C-335.50009766 479.70261719 -335.81269531 478.97945313 -336.13476562 478.234375 C-337.64277176 474.32815839 -337.64277176 474.32815839 -340.75 471.80078125 Z M242.25 471.80078125 C241.12327825 474.19581812 239.99857442 476.59176835 238.875 478.98828125 C238.39933594 479.99858398 238.39933594 479.99858398 237.9140625 481.02929688 C233.65043501 489.95112461 233.65043501 489.95112461 234.7734375 499.6328125 C236.60004227 507.942367 235.74291187 516.52654298 231.25 523.80078125 C226.08736654 529.73612992 220.16221283 533.2418937 212.3125 534.36328125 C206.3802778 535.74019936 203.52224961 541.05399941 200.25 545.80078125 C199.34121094 547.11755859 199.34121094 547.11755859 198.4140625 548.4609375 C196.99832336 550.55795956 195.61032749 552.66754042 194.25 554.80078125 C205.40811169 559.67122714 217.27293196 557.88347925 228.375 553.67578125 C241.74491322 547.69864357 250.64610662 537.13191825 256.25 523.80078125 C260.51864298 512.01119588 259.21846897 498.13237716 254.25 486.80078125 C251.0070145 480.68368063 247.84685528 475.95762231 242.25 471.80078125 Z M-228.8125 478.30078125 C-229.54597656 478.76484375 -230.27945313 479.22890625 -231.03515625 479.70703125 C-231.60105469 480.06796875 -232.16695312 480.42890625 -232.75 480.80078125 C-232.31646457 484.48583243 -231.86151023 488.14619067 -231.23828125 491.8046875 C-227.62974086 513.07204258 -231.02200015 533.21055515 -243.00390625 551.36328125 C-244.83399413 553.9180348 -246.76334061 556.36636274 -248.75 558.80078125 C-244.85186246 567.39906549 -235.93354599 573.07767663 -228.75 578.80078125 C-227.65213368 579.68984483 -226.55448347 580.57917531 -225.45703125 581.46875 C-199.64003281 602.25143375 -156.27386741 632.80078125 -121.75 632.80078125 C-121.4096875 631.91777344 -121.069375 631.03476562 -120.71875 630.125 C-117.341906 621.76371871 -113.44504473 614.87328598 -107.75 607.80078125 C-107.28078125 607.16785156 -106.8115625 606.53492188 -106.328125 605.8828125 C-96.63507172 593.42438814 -80.79874664 585.82099064 -65.7265625 582.30859375 C-63.76221664 581.98263513 -63.76221664 581.98263513 -62.75 580.80078125 C-62.65126184 578.80278553 -62.62028201 576.80120967 -62.625 574.80078125 C-62.62242187 573.70765625 -62.61984375 572.61453125 -62.6171875 571.48828125 C-62.44452245 568.88247771 -62.44452245 568.88247771 -63.75 567.80078125 C-65.27997243 567.56198201 -66.8189135 567.38019694 -68.359375 567.22265625 C-123.73117356 561.18042682 -176.21071685 536.00470787 -211.7578125 492.19140625 C-215.25408476 487.72890067 -218.53919286 483.1154208 -221.8125 478.48828125 C-222.451875 477.60140625 -223.09125 476.71453125 -223.75 475.80078125 C-225.64945294 475.80078125 -227.25909875 477.31449474 -228.8125 478.30078125 Z M125.25 475.80078125 C123.36589508 478.18388667 121.57982216 480.5831889 119.8125 483.05078125 C114.80931813 489.86647057 109.61411193 496.1924678 103.72460938 502.27490234 C102.70365211 503.33135647 101.68976855 504.39467542 100.68164062 505.46337891 C65.2030297 543.05078421 16.12700254 563.13091145 -34.75 567.80078125 C-34.75 572.09078125 -34.75 576.38078125 -34.75 580.80078125 C-33.5125 581.19265625 -32.275 581.58453125 -31 581.98828125 C-10.0125488 589.03901054 8.4420599 600.11517285 18.65625 620.41796875 C20.6231638 624.50267479 22.4636369 628.63426396 24.25 632.80078125 C66.5187337 625.98324356 109.35022746 599.60003258 140.25 570.80078125 C142.34336344 568.95876505 144.4489764 567.13193735 146.55859375 565.30859375 C148.1842534 563.85939139 149.72675861 562.35663025 151.25 560.80078125 C149.8320652 557.69952279 148.03970776 554.95090678 146.12744141 552.13354492 C133.30293343 533.05465544 130.03781122 512.19937971 134.25 489.80078125 C134.84791976 487.10610234 135.51907526 484.46343565 136.25 481.80078125 C134.79550599 480.79520515 133.33627557 479.7964769 131.875 478.80078125 C131.06289063 478.24390625 130.25078125 477.68703125 129.4140625 477.11328125 C127.38681813 475.62792281 127.38681813 475.62792281 125.25 475.80078125 Z M160.25 495.80078125 C156.91482634 510.33454612 160.25429336 523.50555718 167.78515625 536.0703125 C168.26855469 536.64136719 168.75195312 537.21242188 169.25 537.80078125 C172.19028934 538.12165162 172.19028934 538.12165162 173.73974609 536.55419922 C181.17118967 528.19255388 181.17118967 528.19255388 184.82421875 517.90234375 C184.03259394 512.33075542 182.6577162 509.03541759 178.390625 505.29296875 C175.09199748 503.19454608 171.78866353 501.45770841 168.25 499.80078125 C166.64570689 498.96769136 165.04151392 498.13440856 163.4375 497.30078125 C162.385625 496.80578125 161.33375 496.31078125 160.25 495.80078125 Z M-278.75 507.80078125 C-281.34018769 511.0780869 -282.00806312 514.16238514 -282.36328125 518.328125 C-280.82074112 527.06263565 -273.80268205 532.82375772 -267.75 538.80078125 C-258.68435713 529.06360928 -256.5117608 516.81737158 -256.58203125 504.0703125 C-256.72963445 501.19719906 -257.09225516 498.59488133 -257.75 495.80078125 C-264.15599308 495.80078125 -274.03944487 503.84343946 -278.75 507.80078125 Z M-34.75 609.80078125 C-34.98382288 613.65391253 -35.12489753 617.50521037 -35.25 621.36328125 C-35.31703125 622.44931641 -35.3840625 623.53535156 -35.453125 624.65429688 C-35.67755422 630.79846077 -35.67755422 630.79846077 -32.96875 636.10498047 C-30.97264097 637.84845695 -28.96856637 639.35616779 -26.75 640.80078125 C-26.42 641.13078125 -26.09 641.46078125 -25.75 641.80078125 C-17.90662211 641.66072093 -10.33709144 640.76296007 -2.75 638.80078125 C-7.86843735 626.71200961 -15.90231962 617.67456082 -27.75 611.80078125 C-30.06872398 611.03066354 -32.38065361 610.409206 -34.75 609.80078125 Z M-84.5546875 622.4296875 C-89.12489403 627.36583583 -92.3773367 632.51761732 -94.75 638.80078125 C-87.27840673 640.73308986 -79.49135235 642.16894325 -71.75 641.80078125 C-69.78582182 640.57393702 -69.78582182 640.57393702 -68.75 638.80078125 C-68.75 638.14078125 -68.75 637.48078125 -68.75 636.80078125 C-66.75 635.80078125 -64.75 634.80078125 -62.75 633.80078125 C-62.75 625.88078125 -62.75 617.96078125 -62.75 609.80078125 C-70.7014002 609.80078125 -79.1220845 617.25037306 -84.5546875 622.4296875 Z M-96.75 666.80078125 C-95.49731894 678.46819441 -89.45959749 688.3729175 -80.3984375 695.703125 C-69.26071822 703.85814237 -57.62859804 707.98553962 -43.75 706.80078125 C-27.72382236 704.27145083 -16.23632534 696.83888808 -6.80859375 683.9453125 C-3.22671265 678.47393814 -0.75 673.38435124 -0.75 666.80078125 C-4.18804294 667.10748629 -7.62531287 667.42214075 -11.0625 667.73828125 C-12.03896484 667.82529297 -13.01542969 667.91230469 -14.02148438 668.00195312 C-15.42817383 668.1324707 -15.42817383 668.1324707 -16.86328125 668.265625 C-17.72735596 668.34417725 -18.59143066 668.42272949 -19.48168945 668.50366211 C-23.28417952 668.99915832 -23.28417952 668.99915832 -26.0390625 671.47265625 C-26.70035156 672.50132812 -26.70035156 672.50132812 -27.375 673.55078125 C-31.37173682 679.11623727 -37.0067253 682.50951588 -43.75 683.80078125 C-51.39075549 684.48699763 -58.58163392 683.84805248 -64.9140625 679.21875 C-67.83757439 676.70584371 -70.43598279 674.20417717 -72.80859375 671.15625 C-77.11467288 667.70795556 -81.18231079 667.78818434 -86.5625 667.48828125 C-87.54154297 667.41544922 -88.52058594 667.34261719 -89.52929688 667.26757812 C-91.93553798 667.0915117 -94.3412098 666.93663562 -96.75 666.80078125 Z " fill="#07233A" transform="translate(423.75,22.19921875)"/>
</svg>
