<svg xmlns="http://www.w3.org/2000/svg" width="400" height="400" fill="none" xmlns:v="https://vecta.io/nano"><g clip-path="url(#A)"><path d="M200 400c110.457 0 200-89.543 200-200S310.457 0 200 0 0 89.543 0 200s89.543 200 200 200z" fill="#ff1156"/><g fill="#fff"><path d="M129.247 113.956l46.56-28.745c4.098-2.314 4.098-7.109 1.143-10.037l-38.893-37.61a1.97 1.97 0 0 0-2.76 0l-3.68 3.708c-4.712 4.74-4.684 12.379.056 17.09l15.194 14.024c2.593 2.565 2.091 6.858-1.003 8.782l-18.15 11.124a12.04 12.04 0 0 0-3.903 16.589l2.732 4.432c.557.92 1.784 1.199 2.704.642zm44.943 154.175c3.819-16.532-.697-33.902-12.128-46.475l-29.414-33.345c-16.365-18.568-12.323-47.34 8.532-60.667l48.12-30.751a8.15 8.15 0 0 1 9.87.864c17.592 16.226 78.844 74.718 76.112 135.134 0 0 .084 93.816-92.31 128.917-13.578 5.158-27.323-7.249-23.754-21.328 12.769-50.574 14.999-72.377 14.999-72.377l-.027.028zm12.044-144.446l-33.763 21.412c-8.141 5.158-9.786 16.338-3.485 23.642l30.752 35.547c17.62 19.377 24.618 46.142 18.707 71.68l-5.158 22.61c-2.23 9.814 9.34 16.672 16.979 10.093 32.397-27.964 77.813-95.182-16.923-184.287-1.924-1.812-4.851-2.091-7.109-.669v-.028z"/></g></g><defs><clipPath id="A"><path fill="#fff" d="M0 0h400v400H0z"/></clipPath></defs></svg>