<?xml version="1.0" encoding="UTF-8"?>
<svg version="1.1" xmlns="http://www.w3.org/2000/svg" width="64" height="64">
<path d="M0 0 C7.43527445 5.18384555 11.97456664 11.71385079 13.77734375 20.64453125 C14.89865348 30.76366787 12.76194533 38.64215366 6.96484375 46.95703125 C1.18939501 54.11858768 -5.96224788 57.95081032 -15.11328125 58.96484375 C-24.99789165 59.34502107 -32.79706826 56.45952156 -40.47265625 50.26953125 C-47.38888832 43.84731575 -50.30070796 36.05268671 -50.66015625 26.70703125 C-50.3854528 17.30739591 -46.58201667 9.49307324 -40.22265625 2.64453125 C-28.74696393 -7.94841551 -12.91112833 -7.8737461 0 0 Z " fill="#131414" transform="translate(50.22265625,5.35546875)"/>
<path d="M0 0 C7.96923077 6.83076923 7.96923077 6.83076923 10.9375 9.8125 C11.52402344 10.39644531 12.11054688 10.98039062 12.71484375 11.58203125 C14 13 14 13 14 14 C12.35 14 10.7 14 9 14 C9 20.27 9 26.54 9 33 C6.03 33 3.06 33 0 33 C0 22.11 0 11.22 0 0 Z " fill="#FFFFFF" transform="translate(15,16)"/>
<path d="M0 0 C2.97 0 5.94 0 9 0 C9 10.89 9 21.78 9 33 C1.03076923 26.16923077 1.03076923 26.16923077 -1.9375 23.1875 C-2.52402344 22.60355469 -3.11054687 22.01960938 -3.71484375 21.41796875 C-5 20 -5 20 -5 19 C-3.35 19 -1.7 19 0 19 C0 12.73 0 6.46 0 0 Z " fill="#FFFFFF" transform="translate(40,15)"/>
</svg>
