<?xml version="1.0" encoding="UTF-8"?>
<svg version="1.1" xmlns="http://www.w3.org/2000/svg" width="128" height="128">
<path d="M0 0 C0.86613922 -0.00525696 1.73227844 -0.01051392 2.62466431 -0.01593018 C5.4648078 -0.0290471 8.30438286 -0.02042169 11.14453125 -0.01025391 C13.13175564 -0.01227703 15.11897931 -0.01519045 17.10620117 -0.01895142 C21.26195373 -0.02336352 25.41751226 -0.01697959 29.57324219 -0.00292969 C34.88593493 0.01416143 40.19817292 0.00431428 45.510849 -0.01364708 C49.61164748 -0.024515 53.71233908 -0.02102477 57.81314087 -0.0132637 C59.77145441 -0.01127001 61.72977783 -0.01369161 63.68807983 -0.02070236 C66.43033356 -0.02836646 69.17186242 -0.01664355 71.9140625 0 C72.7142984 -0.00607269 73.5145343 -0.01214539 74.33901978 -0.0184021 C79.82121777 0.04288493 83.91545241 1.22211255 88.95703125 3.38818359 C88.95703125 4.04818359 88.95703125 4.70818359 88.95703125 5.38818359 C89.57578125 5.63568359 90.19453125 5.88318359 90.83203125 6.13818359 C93.30771812 7.59446999 93.90828127 8.76630866 94.95703125 11.38818359 C95.61703125 11.38818359 96.27703125 11.38818359 96.95703125 11.38818359 C99.50215748 17.31202188 100.39388033 22.01820303 100.34521484 28.43115234 C100.35310028 29.73036118 100.35310028 29.73036118 100.36114502 31.05581665 C100.37426194 33.89596014 100.36563653 36.7355352 100.35546875 39.57568359 C100.35749187 41.56290799 100.3604053 43.55013165 100.36416626 45.53735352 C100.36857837 49.69310608 100.36219443 53.8486646 100.34814453 58.00439453 C100.33105341 63.31708728 100.34090056 68.62932526 100.35886192 73.94200134 C100.36972984 78.04279982 100.36623962 82.14349142 100.35847855 86.24429321 C100.35648486 88.20260676 100.35890645 90.16093017 100.36591721 92.11923218 C100.3735813 94.8614859 100.36185839 97.60301476 100.34521484 100.34521484 C100.35128754 101.14545074 100.35736023 101.94568665 100.36361694 102.77017212 C100.30232991 108.25237011 99.12310229 112.34660476 96.95703125 117.38818359 C96.29703125 117.38818359 95.63703125 117.38818359 94.95703125 117.38818359 C94.70953125 118.00693359 94.46203125 118.62568359 94.20703125 119.26318359 C92.75074486 121.73887046 91.57890619 122.33943362 88.95703125 123.38818359 C88.95703125 124.04818359 88.95703125 124.70818359 88.95703125 125.38818359 C83.03319297 127.93330983 78.32701181 128.82503268 71.9140625 128.77636719 C71.04792328 128.78162415 70.18178406 128.7868811 69.28939819 128.79229736 C66.4492547 128.80541428 63.60967964 128.79678888 60.76953125 128.78662109 C58.78230686 128.78864422 56.79508319 128.79155764 54.80786133 128.7953186 C50.65210877 128.79973071 46.49655024 128.79334678 42.34082031 128.77929688 C37.02812757 128.76220576 31.71588958 128.77205291 26.4032135 128.79001427 C22.30241502 128.80088219 18.20172342 128.79739196 14.10092163 128.78963089 C12.14260809 128.7876372 10.18428467 128.79005879 8.22598267 128.79706955 C5.48372894 128.80473364 2.74220008 128.79301074 0 128.77636719 C-0.8002359 128.78243988 -1.6004718 128.78851257 -2.42495728 128.79476929 C-7.90715527 128.73348225 -12.00138991 127.55425463 -17.04296875 125.38818359 C-17.04296875 124.72818359 -17.04296875 124.06818359 -17.04296875 123.38818359 C-17.97109375 123.01693359 -17.97109375 123.01693359 -18.91796875 122.63818359 C-21.39365562 121.1818972 -21.99421877 120.01005853 -23.04296875 117.38818359 C-23.70296875 117.38818359 -24.36296875 117.38818359 -25.04296875 117.38818359 C-27.58809498 111.46434531 -28.47981783 106.75816416 -28.43115234 100.34521484 C-28.4364093 99.47907562 -28.44166626 98.6129364 -28.44708252 97.72055054 C-28.46019944 94.88040705 -28.45157403 92.04083199 -28.44140625 89.20068359 C-28.44342937 87.2134592 -28.4463428 85.22623554 -28.45010376 83.23901367 C-28.45451587 79.08326111 -28.44813193 74.92770258 -28.43408203 70.77197266 C-28.41699091 65.45927991 -28.42683806 60.14704193 -28.44479942 54.83436584 C-28.45566734 50.73356737 -28.45217712 46.63287576 -28.44441605 42.53207397 C-28.44242236 40.57376043 -28.44484395 38.61543702 -28.45185471 36.65713501 C-28.4595188 33.91488129 -28.44779589 31.17335243 -28.43115234 28.43115234 C-28.43722504 27.63091644 -28.44329773 26.83068054 -28.44955444 26.00619507 C-28.38826741 20.52399707 -27.20903979 16.42976243 -25.04296875 11.38818359 C-24.38296875 11.38818359 -23.72296875 11.38818359 -23.04296875 11.38818359 C-22.79546875 10.76943359 -22.54796875 10.15068359 -22.29296875 9.51318359 C-20.83668236 7.03749673 -19.66484369 6.43693357 -17.04296875 5.38818359 C-17.04296875 4.72818359 -17.04296875 4.06818359 -17.04296875 3.38818359 C-11.11913047 0.84305736 -6.41294931 -0.04866549 0 0 Z " fill="#9FF3E7" transform="translate(28.04296875,-0.38818359375)"/>
<path d="M0 0 C0 0.66 0 1.32 0 2 C0.680625 2.165 1.36125 2.33 2.0625 2.5 C9.98251181 6.54426135 15.00972119 15.54871427 17.97265625 23.6640625 C21.42740845 35.07277908 20.43198785 44.91378814 16 56 C9.26778066 68.03593164 -0.75398079 75.33784032 -13.8125 79.25 C-24.83783631 81.6515584 -35.37908569 80.02045184 -45.0234375 74.1640625 C-50.06926069 70.63333903 -54.4891504 67.08467873 -58 62 C-58 61.34 -58 60.68 -58 60 C-58.66 60 -59.32 60 -60 60 C-65.7865547 46.29204519 -68.32975476 35.08643533 -63.0703125 20.59375 C-62.13778645 18.33390586 -61.13342526 16.16474015 -60 14 C-59.34 14 -58.68 14 -58 14 C-57.835 13.319375 -57.67 12.63875 -57.5 11.9375 C-55.31008067 7.64890797 -51.87999001 4.80490944 -48 2 C-47.34 2 -46.68 2 -46 2 C-46 1.34 -46 0.68 -46 0 C-30.71167497 -7.44537815 -15.43153146 -8.43793099 0 0 Z " fill="#010101" transform="translate(87,27)"/>
<path d="M0 0 C5.94 0 11.88 0 18 0 C18 5.94 18 11.88 18 18 C12.06 18 6.12 18 0 18 C0 12.06 0 6.12 0 0 Z " fill="#99ECEE" transform="translate(55,73)"/>
<path d="M0 0 C5.94 0 11.88 0 18 0 C18 5.94 18 11.88 18 18 C12.06 18 6.12 18 0 18 C0 12.06 0 6.12 0 0 Z " fill="#A8FEE0" transform="translate(73,55)"/>
<path d="M0 0 C5.94 0 11.88 0 18 0 C18 5.94 18 11.88 18 18 C12.06 18 6.12 18 0 18 C0 12.06 0 6.12 0 0 Z " fill="#000000" transform="translate(55,55)"/>
<path d="M0 0 C5.94 0 11.88 0 18 0 C18 5.94 18 11.88 18 18 C12.06 18 6.12 18 0 18 C0 12.06 0 6.12 0 0 Z " fill="#99ECEE" transform="translate(37,55)"/>
<path d="M0 0 C5.94 0 11.88 0 18 0 C18 5.94 18 11.88 18 18 C12.06 18 6.12 18 0 18 C0 12.06 0 6.12 0 0 Z " fill="#A8FEE0" transform="translate(55,37)"/>
</svg>
