<?xml version="1.0" encoding="UTF-8"?>
<svg version="1.1" xmlns="http://www.w3.org/2000/svg" width="200" height="200">
<path d="M0 0 C1.25296875 0.4125 2.5059375 0.825 3.796875 1.25 C28.74462541 10.06760046 48.21993996 28.50355897 60.08447266 52.01074219 C70.70512729 75.08730057 73.09510894 102.81586203 65 127 C64.5875 128.25296875 64.175 129.5059375 63.75 130.796875 C54.93239954 155.74462541 36.49644103 175.21993996 12.98925781 187.08447266 C-10.08730057 197.70512729 -37.81586203 200.09510894 -62 192 C-63.87945312 191.38125 -63.87945312 191.38125 -65.796875 190.75 C-90.74462541 181.93239954 -110.21993996 163.49644103 -122.08447266 139.98925781 C-132.70512729 116.91269943 -135.09510894 89.18413797 -127 65 C-126.5875 63.74703125 -126.175 62.4940625 -125.75 61.203125 C-116.93239954 36.25537459 -98.49644103 16.78006004 -74.98925781 4.91552734 C-51.91269943 -5.70512729 -24.18413797 -8.09510894 0 0 Z " fill="#010001" transform="translate(131,4)"/>
<path d="M0 0 C9.90053086 -0.30183646 19.79996039 -0.53249618 29.7041626 -0.67355824 C34.30394478 -0.74128257 38.90057034 -0.83303191 43.49853516 -0.98071289 C47.94032469 -1.12247699 52.37908987 -1.19978765 56.82296753 -1.23340416 C58.51382085 -1.25734022 60.20451669 -1.30409382 61.89407349 -1.37449074 C67.2001185 -1.58668168 71.89603475 -1.57700819 77 0 C80.8881744 3.93151975 82.80780568 7.91442592 85 13 C86.02254341 14.83131249 87.06287643 16.65299764 88.1328125 18.45703125 C89.13231909 20.24100655 90.1296714 22.02619032 91.125 23.8125 C96.48168345 33.3643595 101.95772926 42.84088205 107.50634766 52.2824707 C108.34431885 53.71079224 108.34431885 53.71079224 109.19921875 55.16796875 C109.69252686 56.00610107 110.18583496 56.8442334 110.6940918 57.70776367 C114.00901462 63.52638591 114.00901462 63.52638591 113.94921875 66.66796875 C112.61865 71.33864834 110.29055157 75.15838446 107.8125 79.3125 C106.71751766 81.18678059 105.62382257 83.06181366 104.53125 84.9375 C103.95503906 85.92234375 103.37882813 86.9071875 102.78515625 87.921875 C99.73313286 93.18444486 96.77521612 98.49930005 93.8125 103.8125 C92.71505029 105.77745912 91.61739527 107.74230359 90.51953125 109.70703125 C90.00229492 110.63286011 89.48505859 111.55868896 88.95214844 112.51257324 C86.73359624 116.47591852 84.50753045 120.43499036 82.2800293 124.39331055 C81.86665062 125.12804344 81.45327194 125.86277634 81.02736664 126.61977386 C80.01831535 128.41322248 79.00916767 130.20661687 78 132 C68.05704031 132.51221835 58.11725996 132.90177381 48.16374683 133.13986778 C43.53969692 133.25423178 38.92472609 133.40883618 34.3059082 133.65966797 C4.57706408 135.23212454 4.57706408 135.23212454 -2.87890625 129.96704102 C-7.42993079 124.86877249 -9.88539053 119.08338143 -12.05838013 112.66558838 C-13.29281396 109.17108643 -14.96801015 106.36367976 -16.9453125 103.234375 C-18.5829555 100.4127003 -20.21775244 97.58942957 -21.84960938 94.7644043 C-24.61325423 90.00312485 -27.42071522 85.29111132 -30.3984375 80.66015625 C-30.9229248 79.83741211 -31.44741211 79.01466797 -31.98779297 78.16699219 C-32.96828806 76.6403705 -33.96390421 75.1233147 -34.97705078 73.61816406 C-36.28125 71.58203125 -36.28125 71.58203125 -38 68 C-36.91514881 64.37597878 -35.07953558 61.17741794 -33.234375 57.88671875 C-32.68088379 56.89776611 -32.12739258 55.90881348 -31.55712891 54.88989258 C-30.96077637 53.83310303 -30.36442383 52.77631348 -29.75 51.6875 C-29.1317334 50.58752686 -28.5134668 49.48755371 -27.87646484 48.35424805 C-22.46540043 38.75867276 -16.93034692 29.23717895 -11.3515625 19.73828125 C-8.80126056 15.38941728 -6.2885206 11.02036284 -3.79052734 6.64135742 C-3.42408615 5.99951256 -3.05764496 5.35766769 -2.68009949 4.69637299 C-1.78648041 3.13105949 -0.89320439 1.56555016 0 0 Z " fill="#B0BEEE" transform="translate(62,34)"/>
<path d="M0 0 C2.18943853 1.39977257 4.33494018 2.83302045 6.45581055 4.33544922 C7.32334961 4.94904297 8.19088867 5.56263672 9.0847168 6.19482422 C12.95665476 8.97357246 16.80463016 11.78440314 20.64331055 14.60888672 C22.78522301 16.22071307 22.78522301 16.22071307 24.89331055 17.21044922 C24.89331055 17.87044922 24.89331055 18.53044922 24.89331055 19.21044922 C26.00706055 19.64357422 26.00706055 19.64357422 27.14331055 20.08544922 C29.46070852 21.03347566 31.67248169 22.05890833 33.89331055 23.21044922 C33.89331055 23.87044922 33.89331055 24.53044922 33.89331055 25.21044922 C34.88331055 25.21044922 35.87331055 25.21044922 36.89331055 25.21044922 C37.88331055 26.69544922 37.88331055 26.69544922 38.89331055 28.21044922 C40.37831055 28.70544922 40.37831055 28.70544922 41.89331055 29.21044922 C43.56287324 30.87421482 45.22900962 32.54142016 46.89331055 34.21044922 C49.16151556 36.01334663 51.51869496 37.67626269 53.89331055 39.33544922 C54.4965918 39.76470703 55.09987305 40.19396484 55.72143555 40.63623047 C60.26888486 43.84910226 64.8673968 46.79056482 69.89331055 49.21044922 C70.70928711 48.66259766 71.52526367 48.11474609 72.3659668 47.55029297 C81.32038992 41.55310427 90.33547065 35.6525689 99.3684082 29.77441406 C107.24793459 24.64243173 115.08637309 19.45207389 122.89331055 14.21044922 C123.88331055 14.70544922 123.88331055 14.70544922 124.89331055 15.21044922 C117.76502194 27.98382098 110.63174154 40.75278991 103.32983398 53.42797852 C98.42254772 61.96878708 93.66569947 70.59381205 88.89331055 79.21044922 C78.95035086 79.72266757 69.01057051 80.11222303 59.05705738 80.350317 C54.43300746 80.464681 49.81803663 80.61928539 45.19921875 80.87011719 C15.47037462 82.44257376 15.47037462 82.44257376 8.0144043 77.17749023 C3.46337976 72.07922171 1.00792002 66.29383065 -1.16506958 59.8760376 C-2.39950342 56.38153564 -4.0746996 53.57412898 -6.05200195 50.44482422 C-7.68921695 47.62364011 -9.32386092 44.80100197 -10.95629883 41.97705078 C-13.72588912 37.20823003 -16.53761181 32.48415395 -19.50512695 27.83544922 C-20.02961426 27.00819336 -20.55410156 26.1809375 -21.09448242 25.32861328 C-22.07682377 23.79023564 -23.07257591 22.26031043 -24.08374023 20.74072266 C-25.38793945 18.69482422 -25.38793945 18.69482422 -27.10668945 15.21044922 C-26.37573242 13.05029297 -26.37573242 13.05029297 -25.10668945 11.21044922 C-23.12091631 10.50253009 -21.11701823 9.84528988 -19.10668945 9.21044922 C-15.37526125 7.13964209 -11.79201175 4.80698046 -8.20825195 2.49169922 C-7.4812207 2.04310547 -6.75418945 1.59451172 -6.00512695 1.13232422 C-5.35205566 0.71563477 -4.69898437 0.29894531 -4.02612305 -0.13037109 C-2.10668945 -0.78955078 -2.10668945 -0.78955078 0 0 Z " fill="#B79ACF" transform="translate(51.106689453125,86.78955078125)"/>
<path d="M0 0 C2.45125074 0.01835156 4.89646249 0.09604837 7.34638596 0.17691517 C9.05791423 0.19169811 10.76949113 0.20158747 12.48107529 0.20680714 C16.05748067 0.22967044 19.63025764 0.29115066 23.20551682 0.38419056 C27.79370879 0.50336836 32.37955324 0.55708705 36.96911716 0.5861187 C41.34519254 0.61598522 45.72069265 0.6756442 50.09638596 0.73941517 C51.35139876 0.75469604 51.35139876 0.75469604 52.63176537 0.77028561 C54.99022259 0.80492106 57.34717389 0.86044603 59.70502853 0.92325306 C60.40684753 0.93131977 61.10866653 0.93938648 61.83175278 0.94769764 C63.77273178 1.01274586 63.77273178 1.01274586 66.88935471 1.45425892 C67.87935471 2.93925892 67.87935471 2.93925892 68.88935471 4.45425892 C68.55935471 5.44425892 68.22935471 6.43425892 67.88935471 7.45425892 C67.88935471 6.79425892 67.88935471 6.13425892 67.88935471 5.45425892 C60.87499988 10.31062181 55.23372935 16.05980463 49.50849533 22.35269642 C44.99579867 27.07032556 41.16322444 29.55086534 34.93891525 31.49673939 C31.48910848 32.57993066 28.18184433 33.89354447 24.83076096 35.25113392 C23.6209758 35.73453236 22.41119064 36.21793079 21.16474533 36.71597767 C19.29176806 37.4655644 17.41974183 38.21725905 15.5497551 38.97427845 C13.70842003 39.71860247 11.86338529 40.45375348 10.01826096 41.18863392 C8.39512985 41.84170521 8.39512985 41.84170521 6.73920822 42.50796986 C3.88935471 43.45425892 3.88935471 43.45425892 -0.11064529 43.45425892 C-0.11064529 44.11425892 -0.11064529 44.77425892 -0.11064529 45.45425892 C-1.08002029 45.79457142 -2.04939529 46.13488392 -3.04814529 46.48550892 C-16.73481375 51.39305868 -29.4445826 57.63083101 -41.85283279 65.20425892 C-44.11064529 66.45425892 -44.11064529 66.45425892 -46.11064529 66.45425892 C-44.47679473 60.20346289 -41.08045649 55.01063138 -37.79814529 49.51675892 C-36.52854714 47.36782755 -35.2603533 45.21806598 -33.99345779 43.06754017 C-33.34795975 41.97264271 -32.7024617 40.87774525 -32.03740311 39.74966908 C-28.49880317 33.69746153 -25.06974988 27.58374576 -21.63872147 21.47012806 C-20.67566604 19.75647211 -19.69629299 18.05183656 -18.69733047 16.35886097 C-17.04532539 13.48055599 -17.04532539 13.48055599 -15.89671707 10.35078907 C-12.32165414 2.21376652 -8.55392093 0.1664245 0 0 Z " fill="#ADD0FD" transform="translate(72.11064529418945,32.54574108123779)"/>
<path d="M0 0 C0.99 0.495 0.99 0.495 2 1 C-5.12828861 13.77337176 -12.261569 26.54234069 -19.56347656 39.2175293 C-24.47223769 47.76090475 -29.21260851 56.38269532 -34 65 C-59.08 65 -84.16 65 -110 65 C-106.52026995 62.39020246 -103.07593855 60.32065795 -99.25 58.3125 C-98.59314209 57.96509766 -97.93628418 57.61769531 -97.25952148 57.25976562 C-88.53778724 52.67101103 -79.70152426 48.3077555 -70.85546875 43.96484375 C-58.69029667 37.97304258 -47.22888872 31.25284904 -35.98828125 23.671875 C-31.86035889 20.893328 -27.68411602 18.19291267 -23.5 15.5 C-15.61021308 10.41686023 -7.7933183 5.22957749 0 0 Z " fill="#BA7FB9" transform="translate(174,101)"/>
<path d="M0 0 C24.09 0 48.18 0 73 0 C66.26063887 7.86258798 66.26063887 7.86258798 62.73046875 11.33203125 C61.98732422 12.06744141 61.24417969 12.80285156 60.47851562 13.56054688 C59.34446289 14.67526367 59.34446289 14.67526367 58.1875 15.8125 C56.65787536 17.31669447 55.13041545 18.82309449 53.60546875 20.33203125 C52.93668701 20.98921143 52.26790527 21.6463916 51.57885742 22.32348633 C49.9161474 23.92800578 49.9161474 23.92800578 49 26 C45.62554794 25.31548513 42.88998639 24.03557892 39.84375 22.4453125 C38.82982178 21.91768311 37.81589355 21.39005371 36.77124023 20.84643555 C35.69173096 20.27836182 34.61222168 19.71028809 33.5 19.125 C32.395354 18.5472583 31.29070801 17.9695166 30.15258789 17.37426758 C20.02423586 12.05653717 9.98812262 6.57606642 0 1 C0 0.67 0 0.34 0 0 Z " fill="#A4FBFE" transform="translate(65,35)"/>
<path d="M0 0 C0.25966392 4.06806813 0.08618443 7.16090263 -1.3125 11 C-2.80366997 15.09546682 -3.68512179 19.15615577 -4.5 23.4375 C-4.76039062 24.7265625 -5.02078125 26.015625 -5.2890625 27.34375 C-5.71251372 29.52149911 -6.09710206 31.70827387 -6.3984375 33.90625 C-7.22849647 38.3150878 -8.19939271 40.35996649 -11.765625 43.2109375 C-15.11010366 45.30318113 -18.50265394 47.17652824 -22 49 C-23.73057167 49.99756656 -25.45996364 50.99718621 -27.1875 52 C-30.73355263 54 -30.73355263 54 -33 54 C-31.36624584 47.7495728 -27.97051499 42.55565215 -24.6875 37.0625 C-20.81559269 30.52811943 -16.96743303 23.989562 -13.2890625 17.34375 C-12.70423096 16.28921631 -12.11939941 15.23468262 -11.5168457 14.14819336 C-10.39612947 12.11915275 -9.28246651 10.08619745 -8.17651367 8.04907227 C-7.67095947 7.13697998 -7.16540527 6.2248877 -6.64453125 5.28515625 C-6.20471924 4.47957275 -5.76490723 3.67398926 -5.31176758 2.84399414 C-3.84886159 0.78753985 -2.67798611 0 0 0 Z " fill="#A4F8FB" transform="translate(59,45)"/>
<path d="M0 0 C10.00496705 -0.06941263 20.00987712 -0.12276667 30.01503563 -0.15543652 C34.66050069 -0.17111389 39.30580141 -0.19238972 43.95117188 -0.22631836 C48.43154141 -0.25883827 52.91175257 -0.27683739 57.39223099 -0.28463173 C59.10433065 -0.29018854 60.81642133 -0.30103921 62.52845383 -0.31719017 C64.92069195 -0.33886699 67.31226983 -0.34197109 69.70458984 -0.34057617 C70.41740616 -0.351362 71.13022247 -0.36214783 71.86463928 -0.3732605 C73.83627319 -0.36076355 73.83627319 -0.36076355 77 0 C77.99 1.485 77.99 1.485 79 3 C78.67 3.99 78.34 4.98 78 6 C78 5.34 78 4.68 78 4 C71.70859298 8.39069925 66.35588098 13.39844926 61 18.875 C60.22527344 19.65875 59.45054688 20.4425 58.65234375 21.25 C56.76352907 23.16213338 54.87958609 25.07880182 53 27 C53 26.01 53 25.02 53 24 C60.26 16.74 67.52 9.48 75 2 C50.25 1.67 25.5 1.34 0 1 C0 0.67 0 0.34 0 0 Z " fill="#A3D7D8" transform="translate(62,34)"/>
<path d="M0 0 C0.55268555 0.26006836 1.10537109 0.52013672 1.67480469 0.78808594 C1.34480469 1.77808594 1.01480469 2.76808594 0.67480469 3.78808594 C0.67480469 3.12808594 0.67480469 2.46808594 0.67480469 1.78808594 C-5.61660234 6.17878518 -10.96931433 11.1865352 -16.32519531 16.66308594 C-17.09992188 17.44683594 -17.87464844 18.23058594 -18.67285156 19.03808594 C-20.56166625 20.95021932 -22.44560922 22.86688776 -24.32519531 24.78808594 C-24.32519531 19.75187147 -20.08084725 17.0719146 -16.70019531 13.65527344 C-16.18714844 13.14448242 -15.67410156 12.63369141 -15.14550781 12.10742188 C-13.58091524 10.5438023 -12.03884746 8.96010452 -10.49707031 7.37402344 C-9.50879062 6.38053742 -8.51924794 5.38830586 -7.52832031 4.39746094 C-6.62758789 3.48963867 -5.72685547 2.58181641 -4.79882812 1.64648438 C-2.32519531 -0.21191406 -2.32519531 -0.21191406 0 0 Z " fill="#A7D5F5" transform="translate(139.3251953125,36.2119140625)"/>
<path d="M0 0 C4.75 0.75 4.75 0.75 7 3 C6.22269531 3.06058594 5.44539063 3.12117188 4.64453125 3.18359375 C1.81257756 3.73467787 1.81257756 3.73467787 0.63671875 6.28515625 C0.32347656 7.20167969 0.01023437 8.11820313 -0.3125 9.0625 C-0.63863281 9.98160156 -0.96476562 10.90070312 -1.30078125 11.84765625 C-1.53152344 12.55792969 -1.76226562 13.26820312 -2 14 C-2.66 13.01 -3.32 12.02 -4 11 C-4.66 11 -5.32 11 -6 11 C-4.54955729 6.89041233 -2.48889248 3.56741255 0 0 Z " fill="#A5D6F8" transform="translate(62,35)"/>
<path d="M0 0 C0.21192221 5.19209404 -0.4087311 9.126739 -2 14 C-2.33 14 -2.66 14 -3 14 C-2.67 10.7 -2.34 7.4 -2 4 C-2.66 4 -3.32 4 -4 4 C-3.67 4.99 -3.34 5.98 -3 7 C-4.375 8.5 -4.375 8.5 -6 10 C-6.66 10 -7.32 10 -8 10 C-5.39090909 3.29090909 -5.39090909 3.29090909 -4 1 C-1 0 -1 0 0 0 Z " fill="#ABF2FD" transform="translate(59,45)"/>
<path d="M0 0 C0.33 1.32 0.66 2.64 1 4 C1.928125 3.484375 2.85625 2.96875 3.8125 2.4375 C7 1 7 1 10 2 C8.04480616 3.17192047 6.0857461 4.3373929 4.125 5.5 C3.03445312 6.1496875 1.94390625 6.799375 0.8203125 7.46875 C-2 9 -2 9 -4 9 C-2.94124926 5.59687262 -1.99097846 2.98646769 0 0 Z " fill="#AFECF4" transform="translate(30,90)"/>
<path d="M0 0 C0.99 0.33 1.98 0.66 3 1 C-1.54735232 4.67286149 -6.18074417 7.14422708 -12 8 C-8.19752197 4.773655 -4.44929561 2.22464781 0 0 Z " fill="#A9ACD6" transform="translate(49,86)"/>
<path d="M0 0 C0.66 0.33 1.32 0.66 2 1 C0.49760034 4.61941735 -0.82145293 7.7321794 -3 11 C-3.99 11 -4.98 11 -6 11 C-4.54955729 6.89041233 -2.48889248 3.56741255 0 0 Z " fill="#A8DFEA" transform="translate(62,35)"/>
<path d="M0 0 C0.66 0.66 1.32 1.32 2 2 C1.20994338 3.43838552 0.41788955 4.87567415 -0.375 6.3125 C-0.81585938 7.11300781 -1.25671875 7.91351563 -1.7109375 8.73828125 C-2.73513335 10.53527943 -3.85267138 12.27900708 -5 14 C-5.66 13.67 -6.32 13.34 -7 13 C-3.535 6.565 -3.535 6.565 0 0 Z " fill="#A3E1E3" transform="translate(48,58)"/>
<path d="M0 0 C1 3 1 3 1 6 C-0.31129922 7.35500919 -1.64691687 8.68671343 -3 10 C-4.23512079 12.13309192 -4.23512079 12.13309192 -5 14 C-5.66 13.67 -6.32 13.34 -7 13 C-3.535 6.565 -3.535 6.565 0 0 Z " fill="#1C0F1C" transform="translate(159,130)"/>
<path d="M0 0 C0.66 0.33 1.32 0.66 2 1 C-0.475 5.455 -0.475 5.455 -3 10 C-3.66 8.68 -4.32 7.36 -5 6 C-4.34 5.67 -3.68 5.34 -3 5 C-3 4.01 -3 3.02 -3 2 C-2.01 1.34 -1.02 0.68 0 0 Z " fill="#A786B2" transform="translate(174,101)"/>
<path d="M0 0 C0.99 0.33 1.98 0.66 3 1 C1.68 3.31 0.36 5.62 -1 8 C-1.33 8 -1.66 8 -2 8 C-1.125 1.125 -1.125 1.125 0 0 Z " fill="#0C1317" transform="translate(42,64)"/>
<path d="M0 0 C1.04187157 3.12561472 1.23843794 4.04680182 0 7 C-2.0625 8.25 -2.0625 8.25 -4 9 C-2.80100302 5.9168649 -1.52299523 2.93720508 0 0 Z " fill="#A8E8EA" transform="translate(55,46)"/>
</svg>
