<?xml version="1.0" encoding="UTF-8"?>
<svg version="1.1" xmlns="http://www.w3.org/2000/svg" width="25" height="25">
<path d="M0 0 C1.04027344 -0.01675781 2.08054687 -0.03351562 3.15234375 -0.05078125 C6.39694157 0.35424908 7.79524871 0.97968963 10.0625 3.3125 C10.0625 4.3025 10.0625 5.2925 10.0625 6.3125 C6.71432062 7.02996701 4.32312303 7.36462461 0.9375 6.6875 C-1.91802486 6.06943103 -1.91802486 6.06943103 -4.3125 7.3125 C-6.24834119 9.34465598 -6.24834119 9.34465598 -6.4375 12.8125 C-6.29282458 16.29496089 -6.29282458 16.29496089 -4.2265625 18.0546875 C-1.38638715 19.61532993 0.02063415 19.43852654 3.1875 18.9375 C7.88937927 18.22593964 7.88937927 18.22593964 10.0625 19.3125 C9.75 21.1875 9.75 21.1875 9.0625 23.3125 C4.39709182 26.42277212 -0.47445405 25.91786455 -5.9375 25.3125 C-9.68944005 23.21141357 -11.28615773 21.19884863 -12.9375 17.3125 C-13.67898241 12.57046134 -13.37537689 9.14295617 -11.125 4.875 C-7.57389347 0.71513235 -5.3144054 0.01970731 0 0 Z " fill="#3A6CEA" transform="translate(13.9375,-0.3125)"/>
<path d="M0 0 C-0.3125 1.875 -0.3125 1.875 -1 4 C-4.52679099 6.35119399 -6.02879485 6.21443452 -10.1875 6.125 C-11.27417969 6.10695313 -12.36085938 6.08890625 -13.48046875 6.0703125 C-14.72763672 6.03550781 -14.72763672 6.03550781 -16 6 C-16.66 4.68 -17.32 3.36 -18 2 C-17.30132812 1.86722656 -16.60265625 1.73445313 -15.8828125 1.59765625 C-14.51769531 1.33275391 -14.51769531 1.33275391 -13.125 1.0625 C-12.22007813 0.88847656 -11.31515625 0.71445312 -10.3828125 0.53515625 C-4.27544098 -0.83649932 -4.27544098 -0.83649932 0 0 Z " fill="#2E91F3" transform="translate(24,19)"/>
<path d="M0 0 C1.91595968 -0.08133791 3.83291932 -0.13934367 5.75 -0.1875 C7.35101562 -0.23970703 7.35101562 -0.23970703 8.984375 -0.29296875 C12.32849074 0.03191296 13.68710342 0.59166836 16 3 C16 3.99 16 4.98 16 6 C11.45831463 7.0562059 9.21570307 6.85079647 5 5 C2.67402489 4.6186926 0.34087842 4.27539746 -2 4 C-1.34 2.68 -0.68 1.36 0 0 Z " fill="#2E91F3" transform="translate(8,0)"/>
<path d="M0 0 C0.66 0 1.32 0 2 0 C2.33 1.32 2.66 2.64 3 4 C3.556875 4.061875 4.11375 4.12375 4.6875 4.1875 C7.94987173 5.33373872 9.68667874 7.49390197 12 10 C9.69 10 7.38 10 5 10 C4.67 10.66 4.34 11.32 4 12 C0.81076967 7.81413519 -0.50423019 5.29441695 0 0 Z " fill="#4654E0" transform="translate(1,11)"/>
<path d="M0 0 C4.62 0 9.24 0 14 0 C13.67 0.99 13.34 1.98 13 3 C9.04 3 5.08 3 1 3 C0.67 2.01 0.34 1.02 0 0 Z " fill="#1EB0F8" transform="translate(7,22)"/>
<path d="M0 0 C3.96 0 7.92 0 12 0 C12 0.99 12 1.98 12 3 C7.71 3 3.42 3 -1 3 C-0.67 2.01 -0.34 1.02 0 0 Z " fill="#1DB1F8" transform="translate(8,0)"/>
<path d="M0 0 C0.66 0 1.32 0 2 0 C2.33 1.32 2.66 2.64 3 4 C3.99 4 4.98 4 6 4 C6 4.66 6 5.32 6 6 C4.02 6 2.04 6 0 6 C0 4.02 0 2.04 0 0 Z " fill="#366AEC" transform="translate(1,11)"/>
<path d="M0 0 C1.65 0 3.3 0 5 0 C5.33 1.32 5.66 2.64 6 4 C4.68 4.33 3.36 4.66 2 5 C1.34 3.35 0.68 1.7 0 0 Z " fill="#A1788F" transform="translate(2,10)"/>
<path d="M0 0 C-1.6875 2.0625 -1.6875 2.0625 -4 4 C-6.75 3.75 -6.75 3.75 -9 3 C-7.14340032 -0.71319936 -3.69365381 -0.09982848 0 0 Z " fill="#4F40D9" transform="translate(13,4)"/>
</svg>
