<?xml version="1.0" encoding="UTF-8"?>
<!DOCTYPE svg PUBLIC "-//W3C//DTD SVG 1.1//EN" "http://www.w3.org/Graphics/SVG/1.1/DTD/svg11.dtd">
<svg xmlns="http://www.w3.org/2000/svg" version="1.1" width="200px" height="200px" style="shape-rendering:geometricPrecision; text-rendering:geometricPrecision; image-rendering:optimizeQuality; fill-rule:evenodd; clip-rule:evenodd" xmlns:xlink="http://www.w3.org/1999/xlink">
<g><path style="opacity:0.972" fill="#fdfdfe" d="M 87.5,-0.5 C 94.8333,-0.5 102.167,-0.5 109.5,-0.5C 134.023,2.76101 154.69,13.4277 171.5,31.5C 170.167,31.5 169.5,32.1667 169.5,33.5C 167.571,33.2308 165.905,33.7308 164.5,35C 165.094,35.4643 165.761,35.631 166.5,35.5C 166.167,36.1667 165.833,36.8333 165.5,37.5C 164.5,37.5 163.5,37.5 162.5,37.5C 161.719,35.6777 160.552,35.0111 159,35.5C 158.097,36.7014 156.931,37.5348 155.5,38C 156.5,38.3333 157.5,38.6667 158.5,39C 156.881,39.2355 155.881,40.0689 155.5,41.5C 155.167,41.5 154.833,41.5 154.5,41.5C 150.654,40.2048 146.987,40.7048 143.5,43C 144.381,43.7083 145.047,44.5416 145.5,45.5C 142.551,46.7964 139.884,48.4631 137.5,50.5C 134.677,51.2166 132.01,52.2166 129.5,53.5C 128.198,54.8069 126.865,54.8069 125.5,53.5C 124.668,43.1827 124.168,32.8494 124,22.5C 123.167,66.495 122.667,66.495 122.5,22.5C 118.898,22.4674 115.898,23.8007 113.5,26.5C 112.808,25.9747 112.308,25.3081 112,24.5C 111.228,25.8491 110.061,26.6824 108.5,27C 109.737,27.2321 110.737,27.7321 111.5,28.5C 109.876,28.3601 108.71,29.0267 108,30.5C 104.501,29.013 103.167,30.013 104,33.5C 102.187,33.7467 100.353,34.08 98.5,34.5C 99.8549,35.6753 99.6883,36.6753 98,37.5C 97.5774,36.0439 96.7441,35.5439 95.5,36C 94.4495,37.3848 93.1161,38.3848 91.5,39C 92.3805,39.7083 93.0472,40.5416 93.5,41.5C 91.326,41.7497 89.6594,42.7497 88.5,44.5C 87.5416,44.0472 86.7083,43.3805 86,42.5C 85.2904,43.9733 84.1238,44.6399 82.5,44.5C 82.6567,45.8734 82.49,47.2068 82,48.5C 81.5774,47.0439 80.7441,46.5439 79.5,47C 78.2842,48.7398 76.6175,49.7398 74.5,50C 75.624,50.2492 76.624,50.7492 77.5,51.5C 76.467,52.452 75.3004,52.452 74,51.5C 69.9454,52.5407 69.7787,53.2074 73.5,53.5C 70.8818,55.4361 68.2151,57.4361 65.5,59.5C 64.5,58.8333 63.5,58.1667 62.5,57.5C 61.3961,58.6313 61.7295,59.4646 63.5,60C 61.4156,60.6972 59.7489,61.8639 58.5,63.5C 56.1189,62.1697 53.7856,62.3364 51.5,64C 52.5,64.3333 53.5,64.6667 54.5,65C 52.9238,65.4396 51.5904,66.273 50.5,67.5C 47.6405,66.5518 44.9738,66.8851 42.5,68.5C 39.8333,69.1667 39.8333,69.8333 42.5,70.5C 42.8333,70.5 43.1667,70.5 43.5,70.5C 40.8397,71.6237 38.173,72.9571 35.5,74.5C 34.3279,74.0814 33.3279,73.4147 32.5,72.5C 30.7801,73.934 28.7801,74.7674 26.5,75C 27.8333,75.3333 29.1667,75.6667 30.5,76C 25.7847,78.3765 20.7847,79.5431 15.5,79.5C 10.8333,79.5 6.16667,79.5 1.5,79.5C 1.73731,78.209 1.40397,77.209 0.5,76.5C 0.678497,73.7835 1.1785,71.1168 2,68.5C 2.33333,69.5 2.66667,70.5 3,71.5C 4.78033,67.8888 5.447,64.2221 5,60.5C 5.66667,59.1667 6.33333,57.8333 7,56.5C 7.66667,57.8333 8.33333,57.8333 9,56.5C 9.49224,55.451 9.32557,54.451 8.5,53.5C 9.24717,53.2635 10.0805,52.9302 11,52.5C 10.0155,50.4021 10.3489,48.4021 12,46.5C 13.3333,44.5 14.6667,42.5 16,40.5C 17.2812,40.6192 18.4479,40.1192 19.5,39C 18.5494,38.2825 18.3828,37.4491 19,36.5C 21.3153,36.4257 23.1486,35.0924 24.5,32.5C 25.1667,32.5 25.5,32.1667 25.5,31.5C 26.1667,31.5 26.5,31.1667 26.5,30.5C 27.1667,30.5 27.5,30.1667 27.5,29.5C 28.1667,29.5 28.5,29.1667 28.5,28.5C 29.1667,28.5 29.5,28.1667 29.5,27.5C 30.1667,27.5 30.5,27.1667 30.5,26.5C 31.1667,26.5 31.5,26.1667 31.5,25.5C 47.6797,11.4093 66.3463,2.74261 87.5,-0.5 Z"/></g>
<g><path style="opacity:1" fill="#92c4d6" d="M 129.5,53.5 C 129.5,54.1667 129.5,54.8333 129.5,55.5C 129.167,55.5 128.833,55.5 128.5,55.5C 126.001,56.3008 124.001,57.6342 122.5,59.5C 121.833,59.5 121.167,59.5 120.5,59.5C 119.688,48.2425 119.188,36.9091 119,25.5C 116.745,27.0549 114.245,28.0549 111.5,28.5C 110.737,27.7321 109.737,27.2321 108.5,27C 110.061,26.6824 111.228,25.8491 112,24.5C 112.308,25.3081 112.808,25.9747 113.5,26.5C 115.898,23.8007 118.898,22.4674 122.5,22.5C 122.667,66.495 123.167,66.495 124,22.5C 124.168,32.8494 124.668,43.1827 125.5,53.5C 126.865,54.8069 128.198,54.8069 129.5,53.5 Z"/></g>
<g><path style="opacity:0.009" fill="#fefffe" d="M 31.5,25.5 C 30.8333,25.5 30.5,25.8333 30.5,26.5C 29.8333,26.5 29.5,26.8333 29.5,27.5C 28.8333,27.5 28.5,27.8333 28.5,28.5C 27.8333,28.5 27.5,28.8333 27.5,29.5C 26.8333,29.5 26.5,29.8333 26.5,30.5C 25.8333,30.5 25.5,30.8333 25.5,31.5C 24.8333,31.5 24.5,31.8333 24.5,32.5C 23.475,32.1034 23.3083,31.4368 24,30.5C 25.8333,28.6667 27.6667,26.8333 29.5,25C 30.4368,24.3083 31.1034,24.475 31.5,25.5 Z"/></g>
<g><path style="opacity:1" fill="#74bcdb" d="M 120.5,59.5 C 118.091,60.7007 116.091,62.3674 114.5,64.5C 110.85,66.4717 107.184,68.4717 103.5,70.5C 101.583,69.254 99.75,68.5873 98,68.5C 96.4943,71.474 94.8276,71.8073 93,69.5C 91.6012,70.2266 90.1012,70.7266 88.5,71C 93.1969,71.8248 93.0303,73.3248 88,75.5C 87.0497,74.9777 86.2164,74.311 85.5,73.5C 83.5,73.5 81.5,73.5 79.5,73.5C 76.9877,74.3797 74.821,75.713 73,77.5C 72,77.1667 71,76.8333 70,76.5C 62.4679,77.4383 55.1345,79.105 48,81.5C 46.7387,81.2409 45.7387,80.5742 45,79.5C 43.3333,80.8333 41.6667,82.1667 40,83.5C 38.7025,82.2164 37.5358,82.3831 36.5,84C 31.5327,85.2265 27.0327,84.3931 23,81.5C 15.9326,83.136 8.7659,83.8026 1.5,83.5C 1.66501,86.8499 1.49834,90.1832 1,93.5C 0.617425,92.944 0.117425,92.6107 -0.5,92.5C -0.5,90.5 -0.5,88.5 -0.5,86.5C 0.434475,85.4324 0.767809,84.099 0.5,82.5C 4.7068,81.9308 8.87346,81.2641 13,80.5C 14.4609,81.8825 15.2942,81.5492 15.5,79.5C 20.7847,79.5431 25.7847,78.3765 30.5,76C 29.1667,75.6667 27.8333,75.3333 26.5,75C 28.7801,74.7674 30.7801,73.934 32.5,72.5C 33.3279,73.4147 34.3279,74.0814 35.5,74.5C 38.173,72.9571 40.8397,71.6237 43.5,70.5C 48.6966,70.4021 53.0299,68.4021 56.5,64.5C 57.944,65.981 58.6106,65.6477 58.5,63.5C 59.7489,61.8639 61.4156,60.6972 63.5,60C 61.7295,59.4646 61.3961,58.6313 62.5,57.5C 63.5,58.1667 64.5,58.8333 65.5,59.5C 68.2151,57.4361 70.8818,55.4361 73.5,53.5C 75.1347,54.8146 76.8014,54.8146 78.5,53.5C 79.4803,52.0186 80.647,50.6853 82,49.5C 82.3333,49.8333 82.6667,50.1667 83,50.5C 83.6667,49.1667 84.3333,47.8333 85,46.5C 87.1489,47.8398 88.3155,47.1731 88.5,44.5C 89.6594,42.7497 91.326,41.7497 93.5,41.5C 94.1174,41.6107 94.6174,41.944 95,42.5C 95.5,41.3333 96.3333,40.5 97.5,40C 96.6598,38.3335 97.1598,38.1669 99,39.5C 101.925,37.2861 104.759,34.9528 107.5,32.5C 108.736,31.7542 110.07,31.4208 111.5,31.5C 111.5,30.5 111.5,29.5 111.5,28.5C 114.245,28.0549 116.745,27.0549 119,25.5C 119.188,36.9091 119.688,48.2425 120.5,59.5 Z"/></g>
<g><path style="opacity:1" fill="#5a72a4" d="M 169.5,33.5 C 168.5,34.1667 167.5,34.8333 166.5,35.5C 165.761,35.631 165.094,35.4643 164.5,35C 165.905,33.7308 167.571,33.2308 169.5,33.5 Z"/></g>
<g><path style="opacity:1" fill="#a6cede" d="M 111.5,28.5 C 111.5,29.5 111.5,30.5 111.5,31.5C 110.07,31.4208 108.736,31.7542 107.5,32.5C 104.759,34.9528 101.925,37.2861 99,39.5C 97.1598,38.1669 96.6598,38.3335 97.5,40C 96.3333,40.5 95.5,41.3333 95,42.5C 94.6174,41.944 94.1174,41.6107 93.5,41.5C 93.0472,40.5416 92.3805,39.7083 91.5,39C 93.1161,38.3848 94.4495,37.3848 95.5,36C 96.7441,35.5439 97.5774,36.0439 98,37.5C 99.6883,36.6753 99.8549,35.6753 98.5,34.5C 100.353,34.08 102.187,33.7467 104,33.5C 103.167,30.013 104.501,29.013 108,30.5C 108.71,29.0267 109.876,28.3601 111.5,28.5 Z"/></g>
<g><path style="opacity:1" fill="#bccedd" d="M 174.5,34.5 C 174.167,33.1667 173.833,33.1667 173.5,34.5C 172.833,34.5 172.5,34.8333 172.5,35.5C 170.5,35.5 168.5,35.5 166.5,35.5C 167.5,34.8333 168.5,34.1667 169.5,33.5C 169.5,32.1667 170.167,31.5 171.5,31.5C 173.298,30.5371 174.632,31.2038 175.5,33.5C 175.376,34.1067 175.043,34.44 174.5,34.5 Z"/></g>
<g><path style="opacity:1" fill="#6c7faf" d="M 166.5,35.5 C 168.5,35.5 170.5,35.5 172.5,35.5C 170.485,36.9238 168.152,37.5905 165.5,37.5C 165.833,36.8333 166.167,36.1667 166.5,35.5 Z"/></g>
<g><path style="opacity:0.926" fill="#354aa8" d="M 173.5,34.5 C 173.833,34.5 174.167,34.5 174.5,34.5C 175.542,36.7914 177.042,37.7914 179,37.5C 179.617,38.4491 179.451,39.2825 178.5,40C 179.552,41.1192 180.719,41.6192 182,41.5C 185.809,46.9497 188.976,52.783 191.5,59C 190.327,60.8261 190.327,62.6595 191.5,64.5C 187.386,67.2686 183.386,66.9353 179.5,63.5C 178.914,63.7093 178.414,64.0426 178,64.5C 173.661,63.015 169.161,62.1817 164.5,62C 163.675,60.3117 162.675,60.1451 161.5,61.5C 160.692,61.1924 160.025,60.6924 159.5,60C 151.842,59.5732 144.342,58.4066 137,56.5C 136.667,57.1667 136.333,57.8333 136,58.5C 134.667,57.1667 133.333,57.1667 132,58.5C 131.51,57.2068 131.343,55.8734 131.5,54.5C 134.267,54.1298 136.267,52.7964 137.5,50.5C 142.215,49.7509 146.215,47.7509 149.5,44.5C 151.848,44.4077 153.514,43.4077 154.5,41.5C 154.833,41.5 155.167,41.5 155.5,41.5C 158.331,40.9213 160.664,39.588 162.5,37.5C 163.5,37.5 164.5,37.5 165.5,37.5C 168.152,37.5905 170.485,36.9238 172.5,35.5C 172.5,34.8333 172.833,34.5 173.5,34.5 Z"/></g>
<g><path style="opacity:1" fill="#a3bed4" d="M 162.5,37.5 C 160.664,39.588 158.331,40.9213 155.5,41.5C 155.881,40.0689 156.881,39.2355 158.5,39C 157.5,38.6667 156.5,38.3333 155.5,38C 156.931,37.5348 158.097,36.7014 159,35.5C 160.552,35.0111 161.719,35.6777 162.5,37.5 Z"/></g>
<g><path style="opacity:1" fill="#b4c4da" d="M 154.5,41.5 C 153.514,43.4077 151.848,44.4077 149.5,44.5C 148.167,44.8333 146.833,45.1667 145.5,45.5C 145.047,44.5416 144.381,43.7083 143.5,43C 146.987,40.7048 150.654,40.2048 154.5,41.5 Z"/></g>
<g><path style="opacity:1" fill="#afd0e0" d="M 88.5,44.5 C 88.3155,47.1731 87.1489,47.8398 85,46.5C 84.3333,47.8333 83.6667,49.1667 83,50.5C 82.6667,50.1667 82.3333,49.8333 82,49.5C 80.647,50.6853 79.4803,52.0186 78.5,53.5C 76.8014,54.8146 75.1347,54.8146 73.5,53.5C 69.7787,53.2074 69.9454,52.5407 74,51.5C 75.3004,52.452 76.467,52.452 77.5,51.5C 76.624,50.7492 75.624,50.2492 74.5,50C 76.6175,49.7398 78.2842,48.7398 79.5,47C 80.7441,46.5439 81.5774,47.0439 82,48.5C 82.49,47.2068 82.6567,45.8734 82.5,44.5C 84.1238,44.6399 85.2904,43.9733 86,42.5C 86.7083,43.3805 87.5416,44.0472 88.5,44.5 Z"/></g>
<g><path style="opacity:1" fill="#6d83b5" d="M 149.5,44.5 C 146.215,47.7509 142.215,49.7509 137.5,50.5C 139.884,48.4631 142.551,46.7964 145.5,45.5C 146.833,45.1667 148.167,44.8333 149.5,44.5 Z"/></g>
<g><path style="opacity:1" fill="#6a7cb3" d="M 137.5,50.5 C 136.267,52.7964 134.267,54.1298 131.5,54.5C 130.833,54.8333 130.167,55.1667 129.5,55.5C 129.5,54.8333 129.5,54.1667 129.5,53.5C 132.01,52.2166 134.677,51.2166 137.5,50.5 Z"/></g>
<g><path style="opacity:1" fill="#7d95c2" d="M 128.5,55.5 C 128.218,56.7777 127.551,57.7777 126.5,58.5C 125.041,58.4326 123.708,58.7659 122.5,59.5C 124.001,57.6342 126.001,56.3008 128.5,55.5 Z"/></g>
<g><path style="opacity:1" fill="#3c59af" d="M 131.5,54.5 C 131.343,55.8734 131.51,57.2068 132,58.5C 133.333,57.1667 134.667,57.1667 136,58.5C 136.333,57.8333 136.667,57.1667 137,56.5C 144.342,58.4066 151.842,59.5732 159.5,60C 160.025,60.6924 160.692,61.1924 161.5,61.5C 162.675,60.1451 163.675,60.3117 164.5,62C 169.161,62.1817 173.661,63.015 178,64.5C 178.414,64.0426 178.914,63.7093 179.5,63.5C 183.386,66.9353 187.386,67.2686 191.5,64.5C 192.222,64.0825 192.722,63.4158 193,62.5C 194.145,65.4318 194.978,68.4318 195.5,71.5C 194.596,72.209 194.263,73.209 194.5,74.5C 188.859,74.1758 183.525,72.8425 178.5,70.5C 177.833,71.1667 177.167,71.8333 176.5,72.5C 174.321,70.3141 171.821,69.9808 169,71.5C 164.623,69.8278 160.29,68.1612 156,66.5C 155.619,67.4818 154.786,68.1485 153.5,68.5C 149.529,67.256 145.529,65.9226 141.5,64.5C 139.443,66.5311 137.61,66.5311 136,64.5C 135.667,65.1667 135.333,65.8333 135,66.5C 134.781,65.062 134.281,63.7287 133.5,62.5C 131.175,63.463 128.508,63.963 125.5,64C 126.074,62.0807 126.407,60.2474 126.5,58.5C 127.551,57.7777 128.218,56.7777 128.5,55.5C 128.833,55.5 129.167,55.5 129.5,55.5C 130.167,55.1667 130.833,54.8333 131.5,54.5 Z"/></g>
<g><path style="opacity:1" fill="#3449a7" d="M 121.5,73.5 C 121.5,76.1667 121.5,78.8333 121.5,81.5C 121.5,90.8333 121.5,100.167 121.5,109.5C 113.552,114.451 105.886,119.784 98.5,125.5C 91.1095,128.853 84.4428,133.186 78.5,138.5C 77.2921,139.234 75.9587,139.567 74.5,139.5C 72.1184,140.351 70.1184,141.684 68.5,143.5C 67.1242,144.465 65.7908,145.465 64.5,146.5C 63.391,146.557 62.391,146.89 61.5,147.5C 60.8333,147.833 60.1667,148.167 59.5,148.5C 56.5465,149.428 53.5465,150.261 50.5,151C 50.8333,151.333 51.1667,151.667 51.5,152C 50.5842,152.278 49.9175,152.778 49.5,153.5C 42.5415,155.594 35.8748,158.26 29.5,161.5C 27.9724,162.309 26.3057,162.976 24.5,163.5C 24.1667,163.5 23.8333,163.5 23.5,163.5C 23.5,162.833 23.1667,162.5 22.5,162.5C 21.1316,161.528 19.6316,160.528 18,159.5C 15.7433,157.043 14.7433,154.376 15,151.5C 14,151.167 13,150.833 12,150.5C 9.93771,147.277 8.10438,143.943 6.5,140.5C 6.83333,140.5 7.16667,140.5 7.5,140.5C 7.83333,140.5 8.16667,140.5 8.5,140.5C 20.4851,138.142 32.4851,135.642 44.5,133C 47.4294,132.223 50.2628,132.39 53,133.5C 55.0903,132.206 57.0903,131.206 59,130.5C 59.414,130.957 59.914,131.291 60.5,131.5C 64.0833,129.933 67.75,128.6 71.5,127.5C 73.1727,129.086 75.1727,129.753 77.5,129.5C 77.5,126.833 77.5,124.167 77.5,121.5C 78.2878,110.879 78.7878,100.212 79,89.5C 80.3756,88.2949 81.5423,86.9616 82.5,85.5C 85.7198,83.3971 88.7198,81.0638 91.5,78.5C 95.4822,75.8592 99.4822,73.1925 103.5,70.5C 107.184,68.4717 110.85,66.4717 114.5,64.5C 116.609,63.6091 118.609,62.4424 120.5,61C 121.5,60.3333 122.5,60.3333 123.5,61C 121.611,64.8362 120.945,69.0029 121.5,73.5 Z"/></g>
<g><path style="opacity:1" fill="#7e94b2" d="M 42.5,68.5 C 42.5,69.1667 42.5,69.8333 42.5,70.5C 39.8333,69.8333 39.8333,69.1667 42.5,68.5 Z"/></g>
<g><path style="opacity:1" fill="#cfe4ed" d="M 58.5,63.5 C 58.6106,65.6477 57.944,65.981 56.5,64.5C 53.0299,68.4021 48.6966,70.4021 43.5,70.5C 43.1667,70.5 42.8333,70.5 42.5,70.5C 42.5,69.8333 42.5,69.1667 42.5,68.5C 44.9738,66.8851 47.6405,66.5518 50.5,67.5C 51.5904,66.273 52.9238,65.4396 54.5,65C 53.5,64.6667 52.5,64.3333 51.5,64C 53.7856,62.3364 56.1189,62.1697 58.5,63.5 Z"/></g>
<g><path style="opacity:1" fill="#4264b5" d="M 126.5,58.5 C 126.407,60.2474 126.074,62.0807 125.5,64C 128.508,63.963 131.175,63.463 133.5,62.5C 134.281,63.7287 134.781,65.062 135,66.5C 135.333,65.8333 135.667,65.1667 136,64.5C 137.61,66.5311 139.443,66.5311 141.5,64.5C 145.529,65.9226 149.529,67.256 153.5,68.5C 154.786,68.1485 155.619,67.4818 156,66.5C 160.29,68.1612 164.623,69.8278 169,71.5C 171.821,69.9808 174.321,70.3141 176.5,72.5C 177.167,71.8333 177.833,71.1667 178.5,70.5C 183.525,72.8425 188.859,74.1758 194.5,74.5C 195.404,73.791 195.737,72.791 195.5,71.5C 196.768,73.9052 197.435,76.5718 197.5,79.5C 197.167,79.5 196.833,79.5 196.5,79.5C 193.904,81.6261 191.071,81.9594 188,80.5C 187.692,81.3081 187.192,81.9747 186.5,82.5C 178.845,80.1725 171.345,78.1725 164,76.5C 159.937,76.7164 155.937,76.7164 152,76.5C 143.876,74.4554 135.709,72.4554 127.5,70.5C 126.14,72.9812 125.14,72.6478 124.5,69.5C 127.133,68.1156 127.133,66.7822 124.5,65.5C 123.914,65.7093 123.414,66.0426 123,66.5C 122.814,69.0356 122.314,71.369 121.5,73.5C 120.945,69.0029 121.611,64.8362 123.5,61C 122.5,60.3333 121.5,60.3333 120.5,61C 118.609,62.4424 116.609,63.6091 114.5,64.5C 116.091,62.3674 118.091,60.7007 120.5,59.5C 121.167,59.5 121.833,59.5 122.5,59.5C 123.708,58.7659 125.041,58.4326 126.5,58.5 Z"/></g>
<g><path style="opacity:0.788" fill="#fefefe" d="M -0.5,76.5 C -0.166667,76.5 0.166667,76.5 0.5,76.5C 0.159572,78.5476 0.492905,79.5476 1.5,79.5C 6.16667,79.5 10.8333,79.5 15.5,79.5C 15.2942,81.5492 14.4609,81.8825 13,80.5C 8.87346,81.2641 4.7068,81.9308 0.5,82.5C 0.5,81.8333 0.166667,81.5 -0.5,81.5C -0.5,79.8333 -0.5,78.1667 -0.5,76.5 Z"/></g>
<g><path style="opacity:1" fill="#4870ba" d="M 196.5,79.5 C 196.833,86.1667 197.167,86.1667 197.5,79.5C 198.461,81.2646 198.795,83.2646 198.5,85.5C 197.523,88.2869 197.19,91.2869 197.5,94.5C 196.609,93.7387 195.942,92.7387 195.5,91.5C 192.788,90.7719 190.121,89.9385 187.5,89C 181.786,88.9773 176.286,88.144 171,86.5C 169.893,86.5852 168.893,86.9186 168,87.5C 167.626,86.5838 167.126,85.7504 166.5,85C 155.689,84.7637 145.189,82.9304 135,79.5C 134.228,79.6448 133.561,79.9781 133,80.5C 129.691,78.3756 126.358,77.0423 123,76.5C 122.802,78.3817 122.302,80.0484 121.5,81.5C 121.5,78.8333 121.5,76.1667 121.5,73.5C 122.314,71.369 122.814,69.0356 123,66.5C 123.414,66.0426 123.914,65.7093 124.5,65.5C 127.133,66.7822 127.133,68.1156 124.5,69.5C 125.14,72.6478 126.14,72.9812 127.5,70.5C 135.709,72.4554 143.876,74.4554 152,76.5C 155.937,76.7164 159.937,76.7164 164,76.5C 171.345,78.1725 178.845,80.1725 186.5,82.5C 187.192,81.9747 187.692,81.3081 188,80.5C 191.071,81.9594 193.904,81.6261 196.5,79.5 Z"/></g>
<g><path style="opacity:1" fill="#507dc0" d="M 197.5,94.5 C 197.5,97.5 197.5,100.5 197.5,103.5C 196.751,102.469 196.085,101.302 195.5,100C 192.202,99.5133 189.202,98.3466 186.5,96.5C 185.833,96.8333 185.167,97.1667 184.5,97.5C 179.536,96.9899 174.703,95.9899 170,94.5C 168.054,94.5879 166.054,94.9212 164,95.5C 162.739,95.2409 161.739,94.5742 161,93.5C 160.586,93.9574 160.086,94.2907 159.5,94.5C 152.449,93.0117 145.449,91.345 138.5,89.5C 137.158,90.9023 136.324,90.5689 136,88.5C 134.653,92.375 133.486,92.375 132.5,88.5C 131.808,89.0253 131.308,89.6919 131,90.5C 128.737,88.2882 126.07,86.6215 123,85.5C 122.502,88.4816 122.335,91.4816 122.5,94.5C 122.5,98.1667 122.5,101.833 122.5,105.5C 122.768,107.099 122.434,108.432 121.5,109.5C 121.5,100.167 121.5,90.8333 121.5,81.5C 122.302,80.0484 122.802,78.3817 123,76.5C 126.358,77.0423 129.691,78.3756 133,80.5C 133.561,79.9781 134.228,79.6448 135,79.5C 145.189,82.9304 155.689,84.7637 166.5,85C 167.126,85.7504 167.626,86.5838 168,87.5C 168.893,86.9186 169.893,86.5852 171,86.5C 176.286,88.144 181.786,88.9773 187.5,89C 190.121,89.9385 192.788,90.7719 195.5,91.5C 195.942,92.7387 196.609,93.7387 197.5,94.5 Z"/></g>
<g><path style="opacity:1" fill="#6eb2d7" d="M 103.5,70.5 C 99.4822,73.1925 95.4822,75.8592 91.5,78.5C 88.2722,76.9736 85.6055,77.6403 83.5,80.5C 74.2674,80.5573 65.1007,81.8906 56,84.5C 53.4703,82.7807 51.637,83.2807 50.5,86C 47.7983,86.6066 45.1316,86.4399 42.5,85.5C 41.2588,86.0372 40.0921,86.7039 39,87.5C 38.228,87.3552 37.5613,87.0219 37,86.5C 36.4806,87.5156 35.6473,88.1822 34.5,88.5C 30.5532,89.1875 26.7199,90.1875 23,91.5C 20.5241,91.5475 18.1908,91.2142 16,90.5C 15.5,91 15,91.5 14.5,92C 10.789,92.1747 7.12236,92.6747 3.5,93.5C 2.14682,94.5237 1.48015,95.857 1.5,97.5C 0.989877,100.983 0.32321,104.316 -0.5,107.5C -0.5,102.5 -0.5,97.5 -0.5,92.5C 0.117425,92.6107 0.617425,92.944 1,93.5C 1.49834,90.1832 1.66501,86.8499 1.5,83.5C 8.7659,83.8026 15.9326,83.136 23,81.5C 27.0327,84.3931 31.5327,85.2265 36.5,84C 37.5358,82.3831 38.7025,82.2164 40,83.5C 41.6667,82.1667 43.3333,80.8333 45,79.5C 45.7387,80.5742 46.7387,81.2409 48,81.5C 55.1345,79.105 62.4679,77.4383 70,76.5C 71,76.8333 72,77.1667 73,77.5C 74.821,75.713 76.9877,74.3797 79.5,73.5C 81.5,73.5 83.5,73.5 85.5,73.5C 86.2164,74.311 87.0497,74.9777 88,75.5C 93.0303,73.3248 93.1969,71.8248 88.5,71C 90.1012,70.7266 91.6012,70.2266 93,69.5C 94.8276,71.8073 96.4943,71.474 98,68.5C 99.75,68.5873 101.583,69.254 103.5,70.5 Z"/></g>
<g><path style="opacity:1" fill="#629ed0" d="M 91.5,78.5 C 88.7198,81.0638 85.7198,83.3971 82.5,85.5C 80.326,85.7497 78.6594,86.7497 77.5,88.5C 75.8518,90.4293 74.1851,92.4293 72.5,94.5C 69.401,94.7162 66.2343,94.7162 63,94.5C 61.7574,96.8329 60.0907,97.4996 58,96.5C 45.9728,98.604 34.4728,100.937 23.5,103.5C 21.8791,102.295 20.5458,102.461 19.5,104C 13.644,105.557 7.81068,106.057 2,105.5C 1.39233,107.154 0.892334,108.821 0.5,110.5C 0.166667,110.5 -0.166667,110.5 -0.5,110.5C -0.5,109.5 -0.5,108.5 -0.5,107.5C 0.32321,104.316 0.989877,100.983 1.5,97.5C 5.91077,98.4554 10.5774,97.9554 15.5,96C 14.1667,95.6667 12.8333,95.3333 11.5,95C 16.7513,94.1963 21.918,94.363 27,95.5C 28.2426,93.1671 29.9093,92.5004 32,93.5C 32.7579,91.0904 34.4246,90.0904 37,90.5C 38.5757,91.8523 40.7424,92.5189 43.5,92.5C 46.7916,91.0348 49.9582,89.3681 53,87.5C 53.6739,88.5784 54.6739,89.2451 56,89.5C 58.1846,89.0788 60.3513,88.5788 62.5,88C 58.5761,87.2015 58.5761,86.7015 62.5,86.5C 65.7745,87.6291 68.9412,87.2957 72,85.5C 73.0875,87.9316 73.5875,87.5983 73.5,84.5C 77.3038,84.9516 80.6371,83.6182 83.5,80.5C 85.6055,77.6403 88.2722,76.9736 91.5,78.5 Z"/></g>
<g><path style="opacity:1" fill="#68a9d4" d="M 83.5,80.5 C 80.6371,83.6182 77.3038,84.9516 73.5,84.5C 73.5875,87.5983 73.0875,87.9316 72,85.5C 68.9412,87.2957 65.7745,87.6291 62.5,86.5C 58.5761,86.7015 58.5761,87.2015 62.5,88C 60.3513,88.5788 58.1846,89.0788 56,89.5C 54.6739,89.2451 53.6739,88.5784 53,87.5C 49.9582,89.3681 46.7916,91.0348 43.5,92.5C 40.7424,92.5189 38.5757,91.8523 37,90.5C 34.4246,90.0904 32.7579,91.0904 32,93.5C 29.9093,92.5004 28.2426,93.1671 27,95.5C 21.918,94.363 16.7513,94.1963 11.5,95C 12.8333,95.3333 14.1667,95.6667 15.5,96C 10.5774,97.9554 5.91077,98.4554 1.5,97.5C 1.48015,95.857 2.14682,94.5237 3.5,93.5C 7.12236,92.6747 10.789,92.1747 14.5,92C 15,91.5 15.5,91 16,90.5C 18.1908,91.2142 20.5241,91.5475 23,91.5C 26.7199,90.1875 30.5532,89.1875 34.5,88.5C 35.6473,88.1822 36.4806,87.5156 37,86.5C 37.5613,87.0219 38.228,87.3552 39,87.5C 40.0921,86.7039 41.2588,86.0372 42.5,85.5C 45.1316,86.4399 47.7983,86.6066 50.5,86C 51.637,83.2807 53.4703,82.7807 56,84.5C 65.1007,81.8906 74.2674,80.5573 83.5,80.5 Z"/></g>
<g><path style="opacity:0.015" fill="#6f95c1" d="M 198.5,85.5 C 198.833,85.5 199.167,85.5 199.5,85.5C 199.5,94.1667 199.5,102.833 199.5,111.5C 199.167,111.5 198.833,111.5 198.5,111.5C 198.5,102.833 198.5,94.1667 198.5,85.5 Z"/></g>
<g><path style="opacity:1" fill="#578ac6" d="M 197.5,103.5 C 197.5,105.167 197.5,106.833 197.5,108.5C 192.716,107.208 187.883,106.208 183,105.5C 180.218,106.559 177.718,105.892 175.5,103.5C 174.833,104.167 174.167,104.833 173.5,105.5C 167.05,103.874 160.55,102.207 154,100.5C 153.667,100.833 153.333,101.167 153,101.5C 149.673,100.762 146.673,99.4282 144,97.5C 143.439,98.0219 142.772,98.3552 142,98.5C 139.458,97.0981 136.792,96.0981 134,95.5C 132.112,97.9223 130.112,97.9223 128,95.5C 127.333,96.1667 126.667,96.8333 126,97.5C 125.578,95.5743 124.411,94.5743 122.5,94.5C 122.335,91.4816 122.502,88.4816 123,85.5C 126.07,86.6215 128.737,88.2882 131,90.5C 131.308,89.6919 131.808,89.0253 132.5,88.5C 133.486,92.375 134.653,92.375 136,88.5C 136.324,90.5689 137.158,90.9023 138.5,89.5C 145.449,91.345 152.449,93.0117 159.5,94.5C 160.086,94.2907 160.586,93.9574 161,93.5C 161.739,94.5742 162.739,95.2409 164,95.5C 166.054,94.9212 168.054,94.5879 170,94.5C 174.703,95.9899 179.536,96.9899 184.5,97.5C 185.167,97.1667 185.833,96.8333 186.5,96.5C 189.202,98.3466 192.202,99.5133 195.5,100C 196.085,101.302 196.751,102.469 197.5,103.5 Z"/></g>
<g><path style="opacity:1" fill="#5a90c9" d="M 77.5,88.5 C 77.5,89.8333 77.5,91.1667 77.5,92.5C 77.0583,95.4466 75.8916,98.1133 74,100.5C 73.586,100.043 73.086,99.7093 72.5,99.5C 71.2997,100.531 69.9663,101.365 68.5,102C 63.8333,102.333 59.1667,102.667 54.5,103C 53.3279,103.419 52.3279,104.085 51.5,105C 47.9106,105.207 44.4106,105.707 41,106.5C 40.586,106.043 40.086,105.709 39.5,105.5C 33.7925,107.841 28.1259,109.341 22.5,110C 16.8009,110.742 11.1343,110.575 5.5,109.5C 4.35268,109.818 3.51935,110.484 3,111.5C 2.66667,111.167 2.33333,110.833 2,110.5C 1.80192,112.382 1.30192,114.048 0.5,115.5C 0.5,113.833 0.5,112.167 0.5,110.5C 0.892334,108.821 1.39233,107.154 2,105.5C 7.81068,106.057 13.644,105.557 19.5,104C 20.5458,102.461 21.8791,102.295 23.5,103.5C 34.4728,100.937 45.9728,98.604 58,96.5C 60.0907,97.4996 61.7574,96.8329 63,94.5C 66.2343,94.7162 69.401,94.7162 72.5,94.5C 74.1851,92.4293 75.8518,90.4293 77.5,88.5 Z"/></g>
<g><path style="opacity:1" fill="#5e95cb" d="M 122.5,94.5 C 124.411,94.5743 125.578,95.5743 126,97.5C 126.667,96.8333 127.333,96.1667 128,95.5C 130.112,97.9223 132.112,97.9223 134,95.5C 136.792,96.0981 139.458,97.0981 142,98.5C 142.772,98.3552 143.439,98.0219 144,97.5C 146.673,99.4282 149.673,100.762 153,101.5C 153.333,101.167 153.667,100.833 154,100.5C 160.55,102.207 167.05,103.874 173.5,105.5C 174.167,104.833 174.833,104.167 175.5,103.5C 177.718,105.892 180.218,106.559 183,105.5C 187.883,106.208 192.716,107.208 197.5,108.5C 197.263,109.791 197.596,110.791 198.5,111.5C 198.795,113.735 198.461,115.735 197.5,117.5C 197.336,111.833 197.003,111.5 196.5,116.5C 192.158,116.261 187.824,115.927 183.5,115.5C 183.082,114.778 182.416,114.278 181.5,114C 176.231,113.53 171.064,112.697 166,111.5C 165.586,111.957 165.086,112.291 164.5,112.5C 162.821,111.218 160.987,110.218 159,109.5C 154.686,109.374 150.353,109.374 146,109.5C 142.629,106.957 139.296,106.624 136,108.5C 132.631,105.909 129.297,105.909 126,108.5C 125.333,107.167 124.667,105.833 124,104.5C 123.617,105.056 123.117,105.389 122.5,105.5C 122.5,101.833 122.5,98.1667 122.5,94.5 Z"/></g>
<g><path style="opacity:1" fill="#5382c2" d="M 77.5,92.5 C 77.5,96.8333 77.5,101.167 77.5,105.5C 76.7321,106.263 76.2321,107.263 76,108.5C 75.3086,106.109 74.3086,106.109 73,108.5C 72.586,108.043 72.086,107.709 71.5,107.5C 63.267,109.463 55.1003,111.463 47,113.5C 46.586,113.043 46.086,112.709 45.5,112.5C 31.0471,115.982 16.3804,117.982 1.5,118.5C 0.667923,118.754 0.0012563,119.754 -0.5,121.5C -0.5,119.833 -0.5,118.167 -0.5,116.5C 0.166667,116.5 0.5,116.167 0.5,115.5C 1.30192,114.048 1.80192,112.382 2,110.5C 2.33333,110.833 2.66667,111.167 3,111.5C 3.51935,110.484 4.35268,109.818 5.5,109.5C 11.1343,110.575 16.8009,110.742 22.5,110C 28.1259,109.341 33.7925,107.841 39.5,105.5C 40.086,105.709 40.586,106.043 41,106.5C 44.4106,105.707 47.9106,105.207 51.5,105C 52.3279,104.085 53.3279,103.419 54.5,103C 59.1667,102.667 63.8333,102.333 68.5,102C 69.9663,101.365 71.2997,100.531 72.5,99.5C 73.086,99.7093 73.586,100.043 74,100.5C 75.8916,98.1133 77.0583,95.4466 77.5,92.5 Z"/></g>
<g><path style="opacity:0.981" fill="#4d79be" d="M 77.5,105.5 C 77.5,107.167 77.5,108.833 77.5,110.5C 76.4168,110.461 75.4168,110.127 74.5,109.5C 66.9174,111.343 59.4174,113.343 52,115.5C 47.4449,114.918 42.9449,115.584 38.5,117.5C 37.914,117.291 37.414,116.957 37,116.5C 32.9385,117.224 28.9385,118.224 25,119.5C 24.6667,119.167 24.3333,118.833 24,118.5C 19.8422,120.306 15.5088,121.639 11,122.5C 10.4387,121.978 9.77203,121.645 9,121.5C 6.96543,122.789 4.79876,123.789 2.5,124.5C 2.16667,122.5 1.83333,120.5 1.5,118.5C 16.3804,117.982 31.0471,115.982 45.5,112.5C 46.086,112.709 46.586,113.043 47,113.5C 55.1003,111.463 63.267,109.463 71.5,107.5C 72.086,107.709 72.586,108.043 73,108.5C 74.3086,106.109 75.3086,106.109 76,108.5C 76.2321,107.263 76.7321,106.263 77.5,105.5 Z"/></g>
<g><path style="opacity:0.998" fill="#4870ba" d="M 77.5,110.5 C 77.8747,113.397 77.3747,116.063 76,118.5C 75.9998,114.073 74.8332,113.573 72.5,117C 52.6379,120.461 32.8046,123.961 13,127.5C 11.8926,127.415 10.8926,127.081 10,126.5C 8.4157,127.861 6.58236,128.528 4.5,128.5C 4.16667,128.5 3.83333,128.5 3.5,128.5C 3.16667,124.5 2.83333,124.5 2.5,128.5C 1.16667,127.167 1.16667,125.833 2.5,124.5C 4.79876,123.789 6.96543,122.789 9,121.5C 9.77203,121.645 10.4387,121.978 11,122.5C 15.5088,121.639 19.8422,120.306 24,118.5C 24.3333,118.833 24.6667,119.167 25,119.5C 28.9385,118.224 32.9385,117.224 37,116.5C 37.414,116.957 37.914,117.291 38.5,117.5C 42.9449,115.584 47.4449,114.918 52,115.5C 59.4174,113.343 66.9174,111.343 74.5,109.5C 75.4168,110.127 76.4168,110.461 77.5,110.5 Z"/></g>
<g><path style="opacity:1" fill="#67a5d2" d="M 183.5,115.5 C 183.53,116.497 183.03,117.164 182,117.5C 179.416,118.589 176.916,119.589 174.5,120.5C 173.167,120.5 171.833,120.5 170.5,120.5C 170.265,119.903 169.765,119.57 169,119.5C 165.307,121.27 161.473,122.604 157.5,123.5C 157.071,122.047 156.904,120.381 157,118.5C 155.795,119.071 154.628,119.738 153.5,120.5C 154.641,121.425 154.641,122.259 153.5,123C 152.256,123.456 151.423,122.956 151,121.5C 150.61,125.166 149.443,125.332 147.5,122C 143.783,122.037 140.616,120.871 138,118.5C 133.696,117.62 129.196,117.62 124.5,118.5C 122.185,118.201 122.185,117.368 124.5,116C 121.653,115.056 119.153,115.556 117,117.5C 116.586,117.043 116.086,116.709 115.5,116.5C 111.304,120.038 106.638,122.704 101.5,124.5C 100.609,125.11 99.609,125.443 98.5,125.5C 105.886,119.784 113.552,114.451 121.5,109.5C 122.434,108.432 122.768,107.099 122.5,105.5C 123.117,105.389 123.617,105.056 124,104.5C 124.667,105.833 125.333,107.167 126,108.5C 129.297,105.909 132.631,105.909 136,108.5C 139.296,106.624 142.629,106.957 146,109.5C 150.353,109.374 154.686,109.374 159,109.5C 160.987,110.218 162.821,111.218 164.5,112.5C 165.086,112.291 165.586,111.957 166,111.5C 171.064,112.697 176.231,113.53 181.5,114C 182.416,114.278 183.082,114.778 183.5,115.5 Z"/></g>
<g><path style="opacity:0.904" fill="#d2e2eb" d="M 183.5,115.5 C 187.824,115.927 192.158,116.261 196.5,116.5C 196.5,117.167 196.833,117.5 197.5,117.5C 197.784,119.415 197.451,121.081 196.5,122.5C 196.84,120.452 196.507,119.452 195.5,119.5C 189.492,120.034 183.492,120.701 177.5,121.5C 176.274,121.48 175.274,121.147 174.5,120.5C 176.916,119.589 179.416,118.589 182,117.5C 183.03,117.164 183.53,116.497 183.5,115.5 Z"/></g>
<g><path style="opacity:0.99" fill="#4163b3" d="M 82.5,85.5 C 81.5423,86.9616 80.3756,88.2949 79,89.5C 78.7878,100.212 78.2878,110.879 77.5,121.5C 76.2652,121.721 75.2652,122.388 74.5,123.5C 73.8333,123.167 73.1667,122.833 72.5,122.5C 66.7274,124.068 60.8941,125.401 55,126.5C 51.8283,126.144 48.6616,126.81 45.5,128.5C 44.7065,128.069 43.8732,127.735 43,127.5C 37.0913,128.769 31.258,130.269 25.5,132C 22.9528,132.66 20.4528,132.493 18,131.5C 14.1405,132.863 10.3072,133.863 6.5,134.5C 6.16667,134.5 5.83333,134.5 5.5,134.5C 5.73731,133.209 5.40397,132.209 4.5,131.5C 4.5,130.5 4.5,129.5 4.5,128.5C 6.58236,128.528 8.4157,127.861 10,126.5C 10.8926,127.081 11.8926,127.415 13,127.5C 32.8046,123.961 52.6379,120.461 72.5,117C 74.8332,113.573 75.9998,114.073 76,118.5C 77.3747,116.063 77.8747,113.397 77.5,110.5C 77.5,108.833 77.5,107.167 77.5,105.5C 77.5,101.167 77.5,96.8333 77.5,92.5C 77.5,91.1667 77.5,89.8333 77.5,88.5C 78.6594,86.7497 80.326,85.7497 82.5,85.5 Z"/></g>
<g><path style="opacity:0.971" fill="#fdfefe" d="M 195.5,119.5 C 195.5,120.5 195.5,121.5 195.5,122.5C 194.167,123.5 194.167,124.5 195.5,125.5C 195.768,127.099 195.434,128.432 194.5,129.5C 194.167,125.5 193.833,125.5 193.5,129.5C 192.596,130.209 192.263,131.209 192.5,132.5C 191.167,133.167 191.167,133.833 192.5,134.5C 192.598,136.553 191.931,138.22 190.5,139.5C 190.167,136.833 189.833,136.833 189.5,139.5C 188.167,140.167 188.167,140.833 189.5,141.5C 186.746,148.686 182.746,155.019 177.5,160.5C 177.167,159.167 176.833,159.167 176.5,160.5C 175.167,160.833 175.167,161.167 176.5,161.5C 176.262,163.404 175.262,164.738 173.5,165.5C 173.167,164.167 172.833,164.167 172.5,165.5C 171.833,165.5 171.5,165.833 171.5,166.5C 170.833,166.5 170.5,166.833 170.5,167.5C 169.833,167.5 169.5,167.833 169.5,168.5C 168.833,168.5 168.5,168.833 168.5,169.5C 167.833,169.5 167.5,169.833 167.5,170.5C 166.833,170.5 166.5,170.833 166.5,171.5C 165.833,171.5 165.5,171.833 165.5,172.5C 164.833,172.5 164.5,172.833 164.5,173.5C 163.833,173.5 163.5,173.833 163.5,174.5C 162.508,174.328 161.842,174.662 161.5,175.5C 160.833,175.5 160.5,175.833 160.5,176.5C 159.833,176.5 159.5,176.833 159.5,177.5C 158.833,177.5 158.5,177.833 158.5,178.5C 157.508,178.328 156.842,178.662 156.5,179.5C 155.833,179.5 155.5,179.833 155.5,180.5C 154.508,180.328 153.842,180.662 153.5,181.5C 152.833,181.5 152.5,181.833 152.5,182.5C 151.508,182.328 150.842,182.662 150.5,183.5C 149.833,183.5 149.5,183.833 149.5,184.5C 148.508,184.328 147.842,184.662 147.5,185.5C 146.508,185.328 145.842,185.662 145.5,186.5C 144.508,186.328 143.842,186.662 143.5,187.5C 142.508,187.328 141.842,187.662 141.5,188.5C 140.508,188.328 139.842,188.662 139.5,189.5C 138.508,189.328 137.842,189.662 137.5,190.5C 136.209,190.263 135.209,190.596 134.5,191.5C 133.508,191.328 132.842,191.662 132.5,192.5C 131.209,192.263 130.209,192.596 129.5,193.5C 128.209,193.263 127.209,193.596 126.5,194.5C 124.901,194.232 123.568,194.566 122.5,195.5C 120.585,195.216 118.919,195.549 117.5,196.5C 115.265,196.205 113.265,196.539 111.5,197.5C 78.5408,200.74 50.5408,190.74 27.5,167.5C 27.62,166.414 28.2867,165.747 29.5,165.5C 34.9243,163.956 40.2576,162.122 45.5,160C 43.8807,159.764 42.8807,158.931 42.5,157.5C 45.3311,156.921 47.6644,155.588 49.5,153.5C 52.7109,153.014 55.7109,152.014 58.5,150.5C 59.8206,152.42 61.154,152.587 62.5,151C 61.8333,150.667 61.1667,150.333 60.5,150C 61.2524,149.329 61.5858,148.496 61.5,147.5C 62.391,146.89 63.391,146.557 64.5,146.5C 67.7227,147.826 70.7227,147.326 73.5,145C 72.9558,144.283 72.2891,143.783 71.5,143.5C 71.8417,142.662 72.5084,142.328 73.5,142.5C 74.3117,153.758 74.8117,165.091 75,176.5C 75.8331,132.505 76.3331,132.505 76.5,176.5C 78.1238,176.36 79.2904,177.027 80,178.5C 80.7724,177.151 81.9391,176.318 83.5,176C 82.2625,175.768 81.2625,175.268 80.5,174.5C 81.1667,174.5 81.5,174.167 81.5,173.5C 82.8249,174.953 83.6582,174.619 84,172.5C 84.6667,173.167 85.3333,173.833 86,174.5C 88.5297,172.627 91.0297,170.793 93.5,169C 91.8807,168.764 90.8807,167.931 90.5,166.5C 91.9587,166.567 93.2921,166.234 94.5,165.5C 94.3691,166.376 94.7025,167.043 95.5,167.5C 99.0296,164.805 102.696,162.305 106.5,160C 103.818,157.67 104.151,157.17 107.5,158.5C 109.167,157.667 110.833,156.833 112.5,156C 111.833,155.333 111.167,154.667 110.5,154C 111.833,153 113.167,152 114.5,151C 115.742,150.689 116.742,151.189 117.5,152.5C 118.817,150.841 120.483,149.674 122.5,149C 121.692,148.692 121.025,148.192 120.5,147.5C 121.716,146.904 123.049,146.737 124.5,147C 123.619,146.292 122.953,145.458 122.5,144.5C 124.288,144.785 125.955,144.452 127.5,143.5C 129.389,140.008 131.722,139.341 134.5,141.5C 135.59,140.273 136.924,139.44 138.5,139C 137.376,138.751 136.376,138.251 135.5,137.5C 136.274,136.289 137.107,136.289 138,137.5C 138.464,136.906 138.631,136.239 138.5,135.5C 141.608,136.428 144.608,135.928 147.5,134C 145.729,133.465 145.396,132.631 146.5,131.5C 147.293,131.931 148.127,132.265 149,132.5C 153.611,130.925 158.111,129.091 162.5,127C 162,126.833 161.5,126.667 161,126.5C 155.178,127.812 155.011,127.146 160.5,124.5C 162.029,124.529 163.196,125.196 164,126.5C 165.657,124.142 167.824,122.142 170.5,120.5C 171.833,120.5 173.167,120.5 174.5,120.5C 175.274,121.147 176.274,121.48 177.5,121.5C 183.492,120.701 189.492,120.034 195.5,119.5 Z"/></g>
<g><path style="opacity:1" fill="#70b6d9" d="M 157.5,123.5 C 154.903,124.889 152.57,126.722 150.5,129C 146.792,129.29 143.459,130.457 140.5,132.5C 137.675,131.726 135.508,130.059 134,127.5C 131.085,128.377 128.085,129.043 125,129.5C 123.674,129.245 122.674,128.578 122,127.5C 120.938,128.097 119.772,128.43 118.5,128.5C 114.974,127.487 111.808,125.821 109,123.5C 105.836,123.767 104.836,125.433 106,128.5C 107.494,127.253 108.994,127.253 110.5,128.5C 108.5,129.833 106.5,129.833 104.5,128.5C 103.289,127.28 103.289,126.113 104.5,125C 103.552,124.517 102.552,124.351 101.5,124.5C 106.638,122.704 111.304,120.038 115.5,116.5C 116.086,116.709 116.586,117.043 117,117.5C 119.153,115.556 121.653,115.056 124.5,116C 122.185,117.368 122.185,118.201 124.5,118.5C 129.196,117.62 133.696,117.62 138,118.5C 140.616,120.871 143.783,122.037 147.5,122C 149.443,125.332 150.61,125.166 151,121.5C 151.423,122.956 152.256,123.456 153.5,123C 154.641,122.259 154.641,121.425 153.5,120.5C 154.628,119.738 155.795,119.071 157,118.5C 156.904,120.381 157.071,122.047 157.5,123.5 Z"/></g>
<g><path style="opacity:0.012" fill="#fefffe" d="M 195.5,122.5 C 195.833,122.5 196.167,122.5 196.5,122.5C 196.737,123.791 196.404,124.791 195.5,125.5C 195.5,124.5 195.5,123.5 195.5,122.5 Z"/></g>
<g><path style="opacity:1" fill="#74bcdb" d="M 140.5,132.5 C 139.449,133.222 138.782,134.222 138.5,135.5C 138.631,136.239 138.464,136.906 138,137.5C 137.107,136.289 136.274,136.289 135.5,137.5C 136.376,138.251 137.376,138.751 138.5,139C 136.924,139.44 135.59,140.273 134.5,141.5C 131.722,139.341 129.389,140.008 127.5,143.5C 125.955,144.452 124.288,144.785 122.5,144.5C 115.288,147.808 108.622,151.975 102.5,157C 100.375,160.48 97.7081,163.313 94.5,165.5C 93.2921,166.234 91.9587,166.567 90.5,166.5C 87.7427,167.862 85.0761,169.362 82.5,171C 81.7476,171.671 81.4142,172.504 81.5,173.5C 81.5,174.167 81.1667,174.5 80.5,174.5C 78.5209,162.88 77.8542,150.88 78.5,138.5C 84.4428,133.186 91.1095,128.853 98.5,125.5C 99.609,125.443 100.609,125.11 101.5,124.5C 102.552,124.351 103.552,124.517 104.5,125C 103.289,126.113 103.289,127.28 104.5,128.5C 106.5,129.833 108.5,129.833 110.5,128.5C 108.994,127.253 107.494,127.253 106,128.5C 104.836,125.433 105.836,123.767 109,123.5C 111.808,125.821 114.974,127.487 118.5,128.5C 119.772,128.43 120.938,128.097 122,127.5C 122.674,128.578 123.674,129.245 125,129.5C 128.085,129.043 131.085,128.377 134,127.5C 135.508,130.059 137.675,131.726 140.5,132.5 Z"/></g>
<g><path style="opacity:1" fill="#a6cbdc" d="M 170.5,120.5 C 167.824,122.142 165.657,124.142 164,126.5C 163.196,125.196 162.029,124.529 160.5,124.5C 155.011,127.146 155.178,127.812 161,126.5C 161.5,126.667 162,126.833 162.5,127C 158.111,129.091 153.611,130.925 149,132.5C 148.127,132.265 147.293,131.931 146.5,131.5C 145.396,132.631 145.729,133.465 147.5,134C 144.608,135.928 141.608,136.428 138.5,135.5C 138.782,134.222 139.449,133.222 140.5,132.5C 143.459,130.457 146.792,129.29 150.5,129C 152.57,126.722 154.903,124.889 157.5,123.5C 161.473,122.604 165.307,121.27 169,119.5C 169.765,119.57 170.265,119.903 170.5,120.5 Z"/></g>
<g><path style="opacity:0.01" fill="#4568b8" d="M 2.5,128.5 C 2.83333,128.5 3.16667,128.5 3.5,128.5C 3.5,129.5 3.5,130.5 3.5,131.5C 2.59603,130.791 2.26269,129.791 2.5,128.5 Z"/></g>
<g><path style="opacity:0.009" fill="#fefffe" d="M 193.5,129.5 C 193.833,129.5 194.167,129.5 194.5,129.5C 194.737,130.791 194.404,131.791 193.5,132.5C 193.5,131.5 193.5,130.5 193.5,129.5 Z"/></g>
<g><path style="opacity:0.965" fill="#3b57ae" d="M 77.5,121.5 C 77.5,124.167 77.5,126.833 77.5,129.5C 75.1727,129.753 73.1727,129.086 71.5,127.5C 67.75,128.6 64.0833,129.933 60.5,131.5C 59.914,131.291 59.414,130.957 59,130.5C 57.0903,131.206 55.0903,132.206 53,133.5C 50.2628,132.39 47.4294,132.223 44.5,133C 32.4851,135.642 20.4851,138.142 8.5,140.5C 8.16667,139.167 7.83333,139.167 7.5,140.5C 7.16667,140.5 6.83333,140.5 6.5,140.5C 6.16667,139.167 5.83333,137.833 5.5,136.5C 6.33825,136.158 6.67158,135.492 6.5,134.5C 10.3072,133.863 14.1405,132.863 18,131.5C 20.4528,132.493 22.9528,132.66 25.5,132C 31.258,130.269 37.0913,128.769 43,127.5C 43.8732,127.735 44.7065,128.069 45.5,128.5C 48.6616,126.81 51.8283,126.144 55,126.5C 60.8941,125.401 66.7274,124.068 72.5,122.5C 73.1667,122.833 73.8333,123.167 74.5,123.5C 75.2652,122.388 76.2652,121.721 77.5,121.5 Z"/></g>
<g><path style="opacity:0.008" fill="#4161b3" d="M 3.5,131.5 C 3.83333,131.5 4.16667,131.5 4.5,131.5C 4.5,132.5 4.5,133.5 4.5,134.5C 3.59603,133.791 3.26269,132.791 3.5,131.5 Z"/></g>
<g><path style="opacity:0.014" fill="#fefffe" d="M 192.5,132.5 C 192.833,132.5 193.167,132.5 193.5,132.5C 193.672,133.492 193.338,134.158 192.5,134.5C 192.5,133.833 192.5,133.167 192.5,132.5 Z"/></g>
<g><path style="opacity:0.008" fill="#3e5db0" d="M 4.5,134.5 C 4.83333,134.5 5.16667,134.5 5.5,134.5C 5.5,135.167 5.5,135.833 5.5,136.5C 4.66175,136.158 4.32842,135.492 4.5,134.5 Z"/></g>
<g><path style="opacity:0.01" fill="#fefffe" d="M 189.5,139.5 C 189.833,139.5 190.167,139.5 190.5,139.5C 190.672,140.492 190.338,141.158 189.5,141.5C 189.5,140.833 189.5,140.167 189.5,139.5 Z"/></g>
<g><path style="opacity:1" fill="#94c3d4" d="M 78.5,138.5 C 77.8542,150.88 78.5209,162.88 80.5,174.5C 81.2625,175.268 82.2625,175.768 83.5,176C 81.9391,176.318 80.7724,177.151 80,178.5C 79.2904,177.027 78.1238,176.36 76.5,176.5C 76.3331,132.505 75.8331,132.505 75,176.5C 74.8117,165.091 74.3117,153.758 73.5,142.5C 74.1098,141.609 74.4431,140.609 74.5,139.5C 75.9587,139.567 77.2921,139.234 78.5,138.5 Z"/></g>
<g><path style="opacity:1" fill="#6478ac" d="M 74.5,139.5 C 74.4431,140.609 74.1098,141.609 73.5,142.5C 72.5084,142.328 71.8417,142.662 71.5,143.5C 70.5,143.5 69.5,143.5 68.5,143.5C 70.1184,141.684 72.1184,140.351 74.5,139.5 Z"/></g>
<g><path style="opacity:1" fill="#b3c3da" d="M 68.5,143.5 C 69.5,143.5 70.5,143.5 71.5,143.5C 72.2891,143.783 72.9558,144.283 73.5,145C 70.7227,147.326 67.7227,147.826 64.5,146.5C 65.7908,145.465 67.1242,144.465 68.5,143.5 Z"/></g>
<g><path style="opacity:1" fill="#8babc7" d="M 61.5,147.5 C 61.5858,148.496 61.2524,149.329 60.5,150C 61.1667,150.333 61.8333,150.667 62.5,151C 61.154,152.587 59.8206,152.42 58.5,150.5C 58.8333,149.833 59.1667,149.167 59.5,148.5C 60.1667,148.167 60.8333,147.833 61.5,147.5 Z"/></g>
<g><path style="opacity:1" fill="#5668ad" d="M 59.5,148.5 C 59.1667,149.167 58.8333,149.833 58.5,150.5C 55.7109,152.014 52.7109,153.014 49.5,153.5C 49.9175,152.778 50.5842,152.278 51.5,152C 51.1667,151.667 50.8333,151.333 50.5,151C 53.5465,150.261 56.5465,149.428 59.5,148.5 Z"/></g>
<g><path style="opacity:1" fill="#abcfe0" d="M 122.5,144.5 C 122.953,145.458 123.619,146.292 124.5,147C 123.049,146.737 121.716,146.904 120.5,147.5C 121.025,148.192 121.692,148.692 122.5,149C 120.483,149.674 118.817,150.841 117.5,152.5C 116.742,151.189 115.742,150.689 114.5,151C 113.167,152 111.833,153 110.5,154C 111.167,154.667 111.833,155.333 112.5,156C 110.833,156.833 109.167,157.667 107.5,158.5C 104.151,157.17 103.818,157.67 106.5,160C 102.696,162.305 99.0296,164.805 95.5,167.5C 94.7025,167.043 94.3691,166.376 94.5,165.5C 97.7081,163.313 100.375,160.48 102.5,157C 108.622,151.975 115.288,147.808 122.5,144.5 Z"/></g>
<g><path style="opacity:1" fill="#5769a7" d="M 49.5,153.5 C 47.6644,155.588 45.3311,156.921 42.5,157.5C 38.4567,159.624 34.1234,160.958 29.5,161.5C 35.8748,158.26 42.5415,155.594 49.5,153.5 Z"/></g>
<g><path style="opacity:0.016" fill="#fefffe" d="M 176.5,160.5 C 176.833,160.5 177.167,160.5 177.5,160.5C 177.315,161.17 176.981,161.17 176.5,160.5 Z"/></g>
<g><path style="opacity:0.01" fill="#5363a2" d="M 22.5,162.5 C 23.1667,162.5 23.5,162.833 23.5,163.5C 23.5,163.833 23.5,164.167 23.5,164.5C 23.1667,164.5 22.8333,164.5 22.5,164.5C 21.1667,163.833 21.1667,163.167 22.5,162.5 Z"/></g>
<g><path style="opacity:1" fill="#b6cbdd" d="M 42.5,157.5 C 42.8807,158.931 43.8807,159.764 45.5,160C 40.2576,162.122 34.9243,163.956 29.5,165.5C 28.2867,165.747 27.62,166.414 27.5,167.5C 26.603,166.402 25.7697,166.402 25,167.5C 23.955,166.627 23.1217,165.627 22.5,164.5C 22.8333,164.5 23.1667,164.5 23.5,164.5C 24.1667,164.5 24.5,164.167 24.5,163.5C 26.3057,162.976 27.9724,162.309 29.5,161.5C 34.1234,160.958 38.4567,159.624 42.5,157.5 Z"/></g>
<g><path style="opacity:0.012" fill="#fefffe" d="M 172.5,165.5 C 172.833,165.5 173.167,165.5 173.5,165.5C 173.315,166.17 172.981,166.17 172.5,165.5 Z"/></g>
<g><path style="opacity:0.012" fill="#fefffe" d="M 171.5,166.5 C 171.833,166.5 172.167,166.5 172.5,166.5C 172.315,167.17 171.981,167.17 171.5,166.5 Z"/></g>
<g><path style="opacity:0.016" fill="#fefffe" d="M 170.5,167.5 C 170.833,167.5 171.167,167.5 171.5,167.5C 171.315,168.17 170.981,168.17 170.5,167.5 Z"/></g>
<g><path style="opacity:0.016" fill="#fefffe" d="M 169.5,168.5 C 169.833,168.5 170.167,168.5 170.5,168.5C 170.315,169.17 169.981,169.17 169.5,168.5 Z"/></g>
<g><path style="opacity:1" fill="#aad1e0" d="M 90.5,166.5 C 90.8807,167.931 91.8807,168.764 93.5,169C 91.0297,170.793 88.5297,172.627 86,174.5C 85.3333,173.833 84.6667,173.167 84,172.5C 83.6582,174.619 82.8249,174.953 81.5,173.5C 81.4142,172.504 81.7476,171.671 82.5,171C 85.0761,169.362 87.7427,167.862 90.5,166.5 Z"/></g>
<g><path style="opacity:0.016" fill="#fefffe" d="M 168.5,169.5 C 168.833,169.5 169.167,169.5 169.5,169.5C 169.315,170.17 168.981,170.17 168.5,169.5 Z"/></g>
<g><path style="opacity:0.016" fill="#fefffe" d="M 167.5,170.5 C 167.833,170.5 168.167,170.5 168.5,170.5C 168.315,171.17 167.981,171.17 167.5,170.5 Z"/></g>
<g><path style="opacity:0.012" fill="#fefffe" d="M 166.5,171.5 C 166.833,171.5 167.167,171.5 167.5,171.5C 167.315,172.17 166.981,172.17 166.5,171.5 Z"/></g>
<g><path style="opacity:0.012" fill="#fefffe" d="M 165.5,172.5 C 165.833,172.5 166.167,172.5 166.5,172.5C 166.315,173.17 165.981,173.17 165.5,172.5 Z"/></g>
<g><path style="opacity:0.012" fill="#fefffe" d="M 164.5,173.5 C 164.833,173.5 165.167,173.5 165.5,173.5C 165.315,174.17 164.981,174.17 164.5,173.5 Z"/></g>
<g><path style="opacity:0.008" fill="#fefffe" d="M 163.5,174.5 C 163.833,174.5 164.167,174.5 164.5,174.5C 164.315,175.17 163.981,175.17 163.5,174.5 Z"/></g>
<g><path style="opacity:0.006" fill="#fefffe" d="M 161.5,176.5 C 161.5,176.167 161.5,175.833 161.5,175.5C 162.167,175.5 162.833,175.5 163.5,175.5C 163.158,176.338 162.492,176.672 161.5,176.5 Z"/></g>
<g><path style="opacity:0.016" fill="#fefffe" d="M 160.5,176.5 C 160.833,176.5 161.167,176.5 161.5,176.5C 161.315,177.17 160.981,177.17 160.5,176.5 Z"/></g>
<g><path style="opacity:0.016" fill="#fefffe" d="M 159.5,177.5 C 159.833,177.5 160.167,177.5 160.5,177.5C 160.315,178.17 159.981,178.17 159.5,177.5 Z"/></g>
<g><path style="opacity:0.008" fill="#fefffe" d="M 158.5,178.5 C 158.833,178.5 159.167,178.5 159.5,178.5C 159.315,179.17 158.981,179.17 158.5,178.5 Z"/></g>
<g><path style="opacity:0.01" fill="#fefffe" d="M 156.5,180.5 C 156.5,180.167 156.5,179.833 156.5,179.5C 157.167,179.5 157.833,179.5 158.5,179.5C 158.158,180.338 157.492,180.672 156.5,180.5 Z"/></g>
<g><path style="opacity:0.016" fill="#fefffe" d="M 155.5,180.5 C 155.833,180.5 156.167,180.5 156.5,180.5C 156.315,181.17 155.981,181.17 155.5,180.5 Z"/></g>
<g><path style="opacity:0.006" fill="#fefffe" d="M 153.5,182.5 C 153.5,182.167 153.5,181.833 153.5,181.5C 154.167,181.5 154.833,181.5 155.5,181.5C 155.158,182.338 154.492,182.672 153.5,182.5 Z"/></g>
<g><path style="opacity:0.016" fill="#fefffe" d="M 152.5,182.5 C 152.833,182.5 153.167,182.5 153.5,182.5C 153.315,183.17 152.981,183.17 152.5,182.5 Z"/></g>
<g><path style="opacity:0.006" fill="#fefffe" d="M 150.5,184.5 C 150.5,184.167 150.5,183.833 150.5,183.5C 151.167,183.5 151.833,183.5 152.5,183.5C 152.158,184.338 151.492,184.672 150.5,184.5 Z"/></g>
<g><path style="opacity:0.012" fill="#fefffe" d="M 149.5,184.5 C 149.833,184.5 150.167,184.5 150.5,184.5C 150.315,185.17 149.981,185.17 149.5,184.5 Z"/></g>
<g><path style="opacity:0.01" fill="#fefffe" d="M 147.5,186.5 C 147.5,186.167 147.5,185.833 147.5,185.5C 148.167,185.5 148.833,185.5 149.5,185.5C 149.158,186.338 148.492,186.672 147.5,186.5 Z"/></g>
<g><path style="opacity:0.008" fill="#fefffe" d="M 145.5,187.5 C 145.5,187.167 145.5,186.833 145.5,186.5C 146.167,186.5 146.833,186.5 147.5,186.5C 147.158,187.338 146.492,187.672 145.5,187.5 Z"/></g>
<g><path style="opacity:0.01" fill="#fefffe" d="M 143.5,188.5 C 143.5,188.167 143.5,187.833 143.5,187.5C 144.167,187.5 144.833,187.5 145.5,187.5C 145.158,188.338 144.492,188.672 143.5,188.5 Z"/></g>
<g><path style="opacity:0.01" fill="#fefffe" d="M 141.5,189.5 C 141.5,189.167 141.5,188.833 141.5,188.5C 142.167,188.5 142.833,188.5 143.5,188.5C 143.158,189.338 142.492,189.672 141.5,189.5 Z"/></g>
<g><path style="opacity:0.01" fill="#fefffe" d="M 139.5,190.5 C 139.5,190.167 139.5,189.833 139.5,189.5C 140.167,189.5 140.833,189.5 141.5,189.5C 141.158,190.338 140.492,190.672 139.5,190.5 Z"/></g>
<g><path style="opacity:0.01" fill="#fefffe" d="M 137.5,191.5 C 137.5,191.167 137.5,190.833 137.5,190.5C 138.167,190.5 138.833,190.5 139.5,190.5C 139.158,191.338 138.492,191.672 137.5,191.5 Z"/></g>
<g><path style="opacity:0.007" fill="#fefffe" d="M 134.5,192.5 C 134.5,192.167 134.5,191.833 134.5,191.5C 135.5,191.5 136.5,191.5 137.5,191.5C 136.791,192.404 135.791,192.737 134.5,192.5 Z"/></g>
<g><path style="opacity:0.014" fill="#fefffe" d="M 132.5,193.5 C 132.5,193.167 132.5,192.833 132.5,192.5C 133.167,192.5 133.833,192.5 134.5,192.5C 134.158,193.338 133.492,193.672 132.5,193.5 Z"/></g>
<g><path style="opacity:0.009" fill="#fefffe" d="M 129.5,194.5 C 129.5,194.167 129.5,193.833 129.5,193.5C 130.5,193.5 131.5,193.5 132.5,193.5C 131.791,194.404 130.791,194.737 129.5,194.5 Z"/></g>
<g><path style="opacity:0.01" fill="#fefffe" d="M 126.5,195.5 C 126.5,195.167 126.5,194.833 126.5,194.5C 127.5,194.5 128.5,194.5 129.5,194.5C 128.791,195.404 127.791,195.737 126.5,195.5 Z"/></g>
<g><path style="opacity:0.01" fill="#fefffe" d="M 122.5,196.5 C 122.5,196.167 122.5,195.833 122.5,195.5C 123.833,195.5 125.167,195.5 126.5,195.5C 125.432,196.434 124.099,196.768 122.5,196.5 Z"/></g>
<g><path style="opacity:0.009" fill="#fefffe" d="M 117.5,197.5 C 117.5,197.167 117.5,196.833 117.5,196.5C 119.167,196.5 120.833,196.5 122.5,196.5C 121.081,197.451 119.415,197.784 117.5,197.5 Z"/></g>
<g><path style="opacity:0.01" fill="#fefffe" d="M 111.5,198.5 C 111.5,198.167 111.5,197.833 111.5,197.5C 113.5,197.5 115.5,197.5 117.5,197.5C 115.735,198.461 113.735,198.795 111.5,198.5 Z"/></g>
<g><path style="opacity:0.013" fill="#fefffe" d="M 85.5,199.5 C 93.9839,198.507 102.651,198.174 111.5,198.5C 111.5,198.833 111.5,199.167 111.5,199.5C 102.833,199.5 94.1667,199.5 85.5,199.5 Z"/></g>
</svg>
