<?xml version="1.0" encoding="UTF-8"?>
<svg version="1.1" xmlns="http://www.w3.org/2000/svg" width="64" height="64">
<path d="M0 0 C21.12 0 42.24 0 64 0 C64 21.12 64 42.24 64 64 C42.88 64 21.76 64 0 64 C0 42.88 0 21.76 0 0 Z " fill="#F6F6F6" transform="translate(0,0)"/>
<path d="M0 0 C4.17916348 2.74506038 6.4537724 4.7766333 7.78125 9.69238281 C8.63789481 18.26319044 7.95499325 26.7574939 6.86035156 35.28222656 C3.14826336 37.52027277 -0.58657177 39.71718288 -4.32714844 41.90722656 C-5.38224609 42.54402344 -6.43734375 43.18082031 -7.52441406 43.83691406 C-8.54599609 44.42988281 -9.56757812 45.02285156 -10.62011719 45.63378906 C-11.55750732 46.1888916 -12.49489746 46.74399414 -13.46069336 47.31591797 C-16.13964844 48.28222656 -16.13964844 48.28222656 -18.71240234 47.59228516 C-19.51339355 47.15996582 -20.31438477 46.72764648 -21.13964844 46.28222656 C-21.86176514 45.91484375 -22.58388184 45.54746094 -23.32788086 45.16894531 C-25.66295954 43.87685266 -27.99733525 42.58379817 -30.32714844 41.28222656 C-31.14634766 40.83105469 -31.96554688 40.37988281 -32.80957031 39.91503906 C-33.59267578 39.47933594 -34.37578125 39.04363281 -35.18261719 38.59472656 C-35.89442139 38.19898438 -36.60622559 37.80324219 -37.33959961 37.39550781 C-39.13964844 36.28222656 -39.13964844 36.28222656 -41.13964844 34.28222656 C-43.11474217 25.40016308 -43.88538439 15.02354438 -41.13964844 6.28222656 C-29.61399996 -8.23759085 -14.88241566 -7.90119065 0 0 Z " fill="#2B3865" transform="translate(48.1396484375,11.7177734375)"/>
<path d="M0 0 C1.64935547 0.56654297 1.64935547 0.56654297 3.33203125 1.14453125 C10.50112283 4.58022385 10.50112283 4.58022385 13 8 C15.0921601 14.34561976 14.83981942 21.61186188 13 28 C10.499731 31.44529508 7.91984788 32.54959377 4 34 C2.73863607 34.81603032 1.48725126 35.64785344 0.25 36.5 C-3 38 -3 38 -5.27734375 37.2734375 C-6.17582031 36.85320313 -7.07429688 36.43296875 -8 36 C-9.09957031 35.59007812 -10.19914062 35.18015625 -11.33203125 34.7578125 C-18.66879345 31.31587468 -18.66879345 31.31587468 -21 28 C-22.65027876 21.51559875 -21.79327609 14.57151794 -21 8 C-18.44696285 6.4609776 -15.88460065 4.94404807 -13.3125 3.4375 C-12.59126953 2.99986328 -11.87003906 2.56222656 -11.12695312 2.11132812 C-4.44798423 -1.76186388 -4.44798423 -1.76186388 0 0 Z " fill="#F5F6F6" transform="translate(35,14)"/>
<path d="M0 0 C2.75108306 1.54346478 5.30310565 3.1636399 7.8203125 5.0625 C6.47265625 6.578125 6.47265625 6.578125 4.8203125 8.0625 C2.30544183 7.80456455 0.1494015 7.17219633 -2.2421875 6.375 C-4.89542888 5.94705784 -5.97637018 6.56531683 -8.1796875 8.0625 C-8.8790389 10.24791552 -8.8790389 10.24791552 -8.9296875 12.6875 C-8.98640625 13.50476562 -9.043125 14.32203125 -9.1015625 15.1640625 C-9.12734375 15.79054688 -9.153125 16.41703125 -9.1796875 17.0625 C-4.95718695 18.66705021 -3.02486392 19.40057057 1.2578125 17.6875 C2.52625 16.883125 2.52625 16.883125 3.8203125 16.0625 C5.1403125 17.0525 6.4603125 18.0425 7.8203125 19.0625 C6.43796372 20.10152033 5.03875459 21.11813446 3.6328125 22.125 C2.46685547 22.97771484 2.46685547 22.97771484 1.27734375 23.84765625 C-1.77671217 25.35769026 -2.98093314 25.08488668 -6.1796875 24.0625 C-6.91832031 23.83175781 -7.65695313 23.60101563 -8.41796875 23.36328125 C-10.94476841 22.15936352 -12.41707934 21.26683235 -14.1796875 19.0625 C-14.88272429 14.32907676 -14.64251505 9.81291057 -14.1796875 5.0625 C-5.36982203 -1.58323991 -5.36982203 -1.58323991 0 0 Z " fill="#2D3965" transform="translate(34.1796875,19.9375)"/>
</svg>
