<?xml version="1.0" encoding="UTF-8"?>
<svg version="1.1" xmlns="http://www.w3.org/2000/svg" width="200" height="200">
<path d="M0 0 C2.82045877 2.30263418 5.56336058 4.67903285 8.27832031 7.10449219 C11.1535235 9.666713 11.1535235 9.666713 14.50878906 11.77246094 C17.18066406 13.58496094 17.18066406 13.58496094 17.86816406 15.77246094 C18.02285156 16.66964844 18.02285156 16.66964844 18.18066406 17.58496094 C19.17066406 17.91496094 20.16066406 18.24496094 21.18066406 18.58496094 C21.51066406 19.57496094 21.84066406 20.56496094 22.18066406 21.58496094 C22.78394531 22.1740625 23.38722656 22.76316406 24.00878906 23.37011719 C26.61161449 26.02443736 28.16331475 28.75588582 29.93066406 32.02246094 C30.85105469 33.69115234 30.85105469 33.69115234 31.79003906 35.39355469 C33.13514811 38.48050439 33.50200878 40.27881822 33.18066406 43.58496094 C33.84066406 43.58496094 34.50066406 43.58496094 35.18066406 43.58496094 C39.64424539 56.0781479 40.85665551 67.12735329 40.55566406 80.33496094 C40.53909422 82.04587815 40.52476266 83.75681854 40.51269531 85.46777344 C40.3702832 98.68935945 40.3702832 98.68935945 39.18066406 103.58496094 C38.52066406 103.58496094 37.86066406 103.58496094 37.18066406 103.58496094 C37.18066406 105.89496094 37.18066406 108.20496094 37.18066406 110.58496094 C36.52066406 110.58496094 35.86066406 110.58496094 35.18066406 110.58496094 C34.52066406 113.88496094 33.86066406 117.18496094 33.18066406 120.58496094 C32.52066406 120.58496094 31.86066406 120.58496094 31.18066406 120.58496094 C31.10589844 121.42542969 31.03113281 122.26589844 30.95410156 123.13183594 C30.00301116 127.37811833 28.20111083 130.25695184 25.80566406 133.83496094 C25.40605469 134.45886719 25.00644531 135.08277344 24.59472656 135.72558594 C22.64505024 138.70140769 21.175244 140.58857431 18.18066406 142.58496094 C17.87128906 143.24496094 17.56191406 143.90496094 17.24316406 144.58496094 C16.18066406 146.58496094 16.18066406 146.58496094 14.29394531 147.52246094 C12.05773456 148.64676653 10.95666201 149.72870379 9.30566406 151.58496094 C-7.5531495 168.76523493 -31.7922615 178.47350042 -55.67724609 178.87768555 C-83.14890277 179.03784131 -105.50892955 171.73865683 -126.31811523 153.40429688 C-129.3378039 150.75277047 -132.36813316 148.62599484 -135.81933594 146.58496094 C-136.52084746 145.26962683 -137.18459519 143.93378502 -137.81933594 142.58496094 C-139.08777344 141.37839844 -139.08777344 141.37839844 -140.38183594 140.14746094 C-142.93144067 137.46710724 -143.50996572 136.19428011 -143.81933594 132.58496094 C-144.80933594 132.25496094 -145.79933594 131.92496094 -146.81933594 131.58496094 C-150.62798259 125.57828936 -153.21756631 119.65575401 -153.81933594 112.58496094 C-154.47933594 111.59496094 -155.13933594 110.60496094 -155.81933594 109.58496094 C-156.19144014 108.26192377 -156.52563767 106.92758159 -156.81933594 105.58496094 C-157.14933594 104.59496094 -157.47933594 103.60496094 -157.81933594 102.58496094 C-158.14933594 102.58496094 -158.47933594 102.58496094 -158.81933594 102.58496094 C-158.87027326 96.32278946 -158.90516878 90.06067193 -158.92919922 83.79833984 C-158.93922299 81.67038984 -158.95284555 79.5424535 -158.97021484 77.41455078 C-158.99462286 74.34631976 -159.00585555 71.27827173 -159.01464844 68.20996094 C-159.02497101 67.26693115 -159.03529358 66.32390137 -159.04592896 65.35229492 C-159.04686971 59.74541582 -158.41278806 54.96630789 -156.81933594 49.58496094 C-156.15933594 49.58496094 -155.49933594 49.58496094 -154.81933594 49.58496094 C-154.69816406 48.88628906 -154.57699219 48.18761719 -154.45214844 47.46777344 C-154.28457031 46.55769531 -154.11699219 45.64761719 -153.94433594 44.70996094 C-153.78191406 43.80503906 -153.61949219 42.90011719 -153.45214844 41.96777344 C-152.81933594 39.58496094 -152.81933594 39.58496094 -150.81933594 37.58496094 C-149.71378412 35.63398714 -148.89319267 33.94732054 -148.44433594 31.74511719 C-147.67559861 29.08816878 -146.42875814 27.18569548 -144.88183594 24.89746094 C-144.3571875 24.10984375 -143.83253906 23.32222656 -143.29199219 22.51074219 C-141.81933594 20.58496094 -141.81933594 20.58496094 -139.81933594 19.58496094 C-139.48933594 18.59496094 -139.15933594 17.60496094 -138.81933594 16.58496094 C-138.25988281 16.318125 -137.70042969 16.05128906 -137.12402344 15.77636719 C-133.75454168 14.03451645 -131.50732154 11.25605376 -128.94433594 8.52246094 C-95.59880991 -25.77011212 -37.69548479 -29.31871039 0 0 Z M34.18066406 46.58496094 C35.18066406 48.58496094 35.18066406 48.58496094 35.18066406 48.58496094 Z M35.18066406 49.58496094 C36.18066406 51.58496094 36.18066406 51.58496094 36.18066406 51.58496094 Z M36.18066406 52.58496094 C37.18066406 55.58496094 37.18066406 55.58496094 37.18066406 55.58496094 Z M-156.81933594 53.58496094 C-155.81933594 56.58496094 -155.81933594 56.58496094 -155.81933594 56.58496094 Z M37.18066406 56.58496094 C38.18066406 59.58496094 38.18066406 59.58496094 38.18066406 59.58496094 Z M-157.81933594 57.58496094 C-156.81933594 61.58496094 -156.81933594 61.58496094 -156.81933594 61.58496094 Z M38.18066406 60.58496094 C38.18066406 62.23496094 38.18066406 63.88496094 38.18066406 65.58496094 C38.51066406 65.58496094 38.84066406 65.58496094 39.18066406 65.58496094 C39.18066406 63.93496094 39.18066406 62.28496094 39.18066406 60.58496094 C38.85066406 60.58496094 38.52066406 60.58496094 38.18066406 60.58496094 Z M38.18066406 93.58496094 C38.18066406 95.23496094 38.18066406 96.88496094 38.18066406 98.58496094 C38.51066406 98.58496094 38.84066406 98.58496094 39.18066406 98.58496094 C39.18066406 96.93496094 39.18066406 95.28496094 39.18066406 93.58496094 C38.85066406 93.58496094 38.52066406 93.58496094 38.18066406 93.58496094 Z " fill="#E0A94C" transform="translate(158.8193359375,19.4150390625)"/>
<path d="M0 0 C2.37631835 3.52328801 4.19383549 7.31420997 6.0625 11.125 C9.4073926 17.89589584 12.90886729 24.57910846 16.44750977 31.25048828 C24 45.50942063 24 45.50942063 24 48 C44.46 48 64.92 48 86 48 C86.99 45.03 86.99 45.03 88 42 C88.685784 40.64384289 89.41456622 39.30844762 90.1875 38 C92.32102782 34.26632631 94.28227186 30.48039091 96.1875 26.625 C97.10532817 24.79135204 98.02320386 22.95772771 98.94189453 21.12451172 C99.70364118 19.59504257 100.45906794 18.06241993 101.21044922 16.52783203 C102.49834353 13.90557551 103.80988079 11.29619113 105.125 8.6875 C105.53258545 7.84461426 105.9401709 7.00172852 106.36010742 6.13330078 C109.35366641 0.26696387 109.35366641 0.26696387 112.6953125 -1.11328125 C115 -1 115 -1 116.75 0.125 C124.0713694 11.10705409 119.09573761 34.46772783 116.70654297 46.56396484 C114.85427747 55.26204913 112.6823229 63.38554285 108 71 C106.75999542 73.26493341 105.53121167 75.53603858 104.3125 77.8125 C103.68988281 78.97394531 103.06726563 80.13539063 102.42578125 81.33203125 C101.72001953 82.65267578 101.72001953 82.65267578 101 84 C100.34 84 99.68 84 99 84 C98.731875 84.7425 98.46375 85.485 98.1875 86.25 C97.04723249 88.89061949 95.90619694 90.85552844 94 93 C93.34 93 92.68 93 92 93 C92 93.66 92 94.32 92 95 C91.34 95 90.68 95 90 95 C90 95.99 90 96.98 90 98 C89.34 98 88.68 98 88 98 C88 98.66 88 99.32 88 100 C87.34 100 86.68 100 86 100 C86 100.66 86 101.32 86 102 C85.01 102 84.02 102 83 102 C83 102.66 83 103.32 83 104 C82.34 104 81.68 104 81 104 C81 104.66 81 105.32 81 106 C79.09625645 107.44963959 77.12532841 108.81184323 75.125 110.125 C73.48917969 111.21167969 73.48917969 111.21167969 71.8203125 112.3203125 C69 114 69 114 67 114 C67 114.66 67 115.32 67 116 C58.14368026 121.08203768 58.14368026 121.08203768 53.65234375 120.91015625 C47.18699523 118.92713647 41.53011597 114.78376356 36 111 C35.25621094 110.50628906 34.51242188 110.01257813 33.74609375 109.50390625 C32.12058501 108.39724676 30.55223136 107.20729106 29 106 C29 105.34 29 104.68 29 104 C27.35 103.34 25.7 102.68 24 102 C24 101.34 24 100.68 24 100 C23.34 100 22.68 100 22 100 C22 99.34 22 98.68 22 98 C21.34 98 20.68 98 20 98 C18.08984375 95.953125 18.08984375 95.953125 15.9375 93.25 C15.22464844 92.36828125 14.51179688 91.4865625 13.77734375 90.578125 C12 88 12 88 11.44140625 85.734375 C11.22291016 84.87585938 11.22291016 84.87585938 11 84 C9.515 83.505 9.515 83.505 8 83 C6.46484375 80.671875 6.46484375 80.671875 4.9375 77.75 C4.17759766 76.31914062 4.17759766 76.31914062 3.40234375 74.859375 C2.1330384 72.27126494 1.04051922 69.68619397 0 67 C-0.30679688 66.30261719 -0.61359375 65.60523437 -0.9296875 64.88671875 C-3.16948932 59.67594013 -4.79739807 54.42410268 -6.1875 48.9375 C-6.35427246 48.28934326 -6.52104492 47.64118652 -6.69287109 46.97338867 C-8.83865804 38.18404244 -9.16055503 29.51912635 -9.125 20.5 C-9.12886719 19.51902344 -9.13273437 18.53804687 -9.13671875 17.52734375 C-9.12883165 11.60413463 -8.76459736 5.87404955 -8 0 C-4.62848454 -1.12383849 -3.31972498 -1.16190374 0 0 Z " fill="#FEFCFA" transform="translate(45,49)"/>
<path d="M0 0 C17.16 0 34.32 0 52 0 C52 0.66 52 1.32 52 2 C51.34 2 50.68 2 50 2 C49.86271484 2.76570313 49.86271484 2.76570313 49.72265625 3.546875 C48.70934062 6.98667076 47.06692988 10.07096159 45.4375 13.25 C44.70952535 14.68744426 43.981664 16.12494591 43.25390625 17.5625 C42.88023926 18.29726562 42.50657227 19.03203125 42.12158203 19.7890625 C40.35672831 23.26806017 38.61654891 26.75929531 36.875 30.25 C36.21627497 31.56777289 35.55742297 32.88548233 34.8984375 34.203125 C34.58229492 34.83541016 34.26615234 35.46769531 33.94042969 36.11914062 C31.62695312 40.74609375 29.31347656 45.37304688 27 50 C26.34 50 25.68 50 25 50 C24.484375 48.96875 23.96875 47.9375 23.4375 46.875 C23.06753906 46.13636719 22.69757813 45.39773437 22.31640625 44.63671875 C21.38261531 42.76636598 20.45338987 40.8937307 19.52734375 39.01953125 C14.85082474 29.58910403 9.9671187 20.27452925 5.03393555 10.97607422 C4.69273682 10.32396973 4.35153809 9.67186523 4 9 C3.62593018 8.31824707 3.25186035 7.63649414 2.86645508 6.93408203 C2 5 2 5 2 2 C1.34 2 0.68 2 0 2 C0 1.34 0 0.68 0 0 Z " fill="#E1AA4C" transform="translate(74,106)"/>
<path d="M0 0 C0.33 0 0.66 0 1 0 C2.00906191 20.85394622 -4.35001793 42.7025197 -16 60 C-16.66 60 -17.32 60 -18 60 C-18 60.99 -18 61.98 -18 63 C-18.66 63 -19.32 63 -20 63 C-20.33644531 64.06927734 -20.33644531 64.06927734 -20.6796875 65.16015625 C-24.29137327 72.9284863 -33.67976243 80.65188896 -41 85 C-41.66 85 -42.32 85 -43 85 C-42.30058404 81.85262818 -41.23921302 78.97411124 -40 76 C-39.34 76 -38.68 76 -38 76 C-37.87093262 75.41589355 -37.74186523 74.83178711 -37.60888672 74.22998047 C-37.02073758 72.07594911 -36.26763199 70.30592438 -35.2578125 68.3203125 C-34.91363281 67.63839844 -34.56945312 66.95648438 -34.21484375 66.25390625 C-33.85519531 65.55136719 -33.49554688 64.84882813 -33.125 64.125 C-32.77308594 63.43019531 -32.42117187 62.73539063 -32.05859375 62.01953125 C-31.36300264 60.64644991 -30.66592049 59.27412281 -29.96728516 57.90258789 C-28.63144567 55.27507725 -27.31679709 52.63709629 -26 50 C-25.40960938 48.83082031 -24.81921875 47.66164062 -24.2109375 46.45703125 C-23.59894268 45.24219538 -22.98696365 44.02735157 -22.375 42.8125 C-22.06304687 42.19697266 -21.75109375 41.58144531 -21.4296875 40.94726562 C-20.10858878 38.31930416 -18.93176534 35.79529603 -18 33 C-17.34 33 -16.68 33 -16 33 C-15.67 31.824375 -15.34 30.64875 -15 29.4375 C-13.21440897 24.00271564 -10.53441163 19.13305398 -7.78125 14.14233398 C-6.29443353 11.4457324 -4.97649909 8.92949728 -4 6 C-3.34 6 -2.68 6 -2 6 C-1.855625 5.195625 -1.71125 4.39125 -1.5625 3.5625 C-1 1 -1 1 0 0 Z " fill="#E1AB4F" transform="translate(155,68)"/>
<path d="M0 0 C1.5 1.25 1.5 1.25 3 3 C3 4.32 3 5.64 3 7 C3.66 7 4.32 7 5 7 C5.46148437 8.00675781 5.92296875 9.01351562 6.3984375 10.05078125 C10.88221759 19.74736395 15.67279986 29.23619151 20.703125 38.66015625 C22.51189118 42.05356052 24.24624109 45.47709633 25.95507812 48.92163086 C27.95275575 52.89504899 30.04536059 56.81904954 32.125 60.75 C33.00298371 62.4112578 33.88060133 64.07270914 34.7578125 65.734375 C35.1408252 66.45850586 35.52383789 67.18263672 35.91845703 67.92871094 C36.27536621 68.61223633 36.63227539 69.29576172 37 70 C37.37624512 70.68610352 37.75249023 71.37220703 38.14013672 72.07910156 C39 74 39 74 39 77 C39.66 77 40.32 77 41 77 C41.99 79.97 42.98 82.94 44 86 C39.10732256 84.50298675 36.12188433 81.69541201 32.5 78.25 C31.94441406 77.73695313 31.38882813 77.22390625 30.81640625 76.6953125 C27.23764985 73.34391239 23.98316049 69.89591855 21 66 C21 65.34 21 64.68 21 64 C19.515 63.505 19.515 63.505 18 63 C16.39145456 60.56496436 14.9597683 58.1769391 13.5625 55.625 C13.18029297 54.95855469 12.79808594 54.29210937 12.40429688 53.60546875 C7.3253667 44.48236498 4.43295175 34.79176034 2.25 24.625 C2.0331958 23.62782959 1.8163916 22.63065918 1.59301758 21.60327148 C0.08343925 14.28945064 -0.64571821 7.47598197 0 0 Z " fill="#E1AB4F" transform="translate(44,67)"/>
<path d="M0 0 C2.03872694 0.6364925 4.07778925 1.27191176 6.1171875 1.90625 C7.10041992 2.21304688 8.08365234 2.51984375 9.09667969 2.8359375 C13.812404 4.28131943 18.56591849 5.57980852 23.328125 6.86328125 C25.875 7.6875 25.875 7.6875 28.875 9.6875 C29.1875 12.1875 29.1875 12.1875 28.875 14.6875 C28.215 15.3475 27.555 16.0075 26.875 16.6875 C22.33122793 16.30976473 18.10997574 15.29488001 13.75 14 C12.54859375 13.65195312 11.3471875 13.30390625 10.109375 12.9453125 C6.92408691 12.00764525 3.75104097 11.03332456 0.578125 10.0546875 C-1.2812148 9.49467477 -3.14058972 8.93477864 -5 8.375 C-6.31895264 7.9569812 -6.31895264 7.9569812 -7.66455078 7.53051758 C-16.34696109 4.94092579 -23.07162208 6.46881523 -31.625 8.9375 C-32.39674561 9.15422363 -33.16849121 9.37094727 -33.96362305 9.59423828 C-37.89364591 10.71022518 -41.79451583 11.88860858 -45.67578125 13.1640625 C-46.39378906 13.39834961 -47.11179687 13.63263672 -47.8515625 13.87402344 C-49.20818305 14.32178443 -50.5613406 14.78022655 -51.91015625 15.25097656 C-55.68525208 16.50207187 -58.31075274 16.9424649 -62.125 15.6875 C-63.125 14.6875 -63.125 14.6875 -63.1875 12.125 C-63.166875 11.320625 -63.14625 10.51625 -63.125 9.6875 C-62.465 9.6875 -61.805 9.6875 -61.125 9.6875 C-61.125 9.0275 -61.125 8.3675 -61.125 7.6875 C-60.38121094 7.47996094 -59.63742188 7.27242187 -58.87109375 7.05859375 C-49.88452797 4.52283316 -40.95420309 1.82485538 -32.03491211 -0.93774414 C-31.08366455 -1.23028076 -30.13241699 -1.52281738 -29.15234375 -1.82421875 C-27.87991821 -2.21806763 -27.87991821 -2.21806763 -26.58178711 -2.61987305 C-16.94758583 -5.33598445 -9.29037135 -2.95260479 0 0 Z " fill="#FEFCFA" transform="translate(117.125,34.3125)"/>
<path d="M0 0 C8.58 0 17.16 0 26 0 C26 0.33 26 0.66 26 1 C17.42 1 8.84 1 0 1 C0 0.67 0 0.34 0 0 Z " fill="#CF9B45" transform="translate(86,199)"/>
<path d="M0 0 C0.33 0 0.66 0 1 0 C1 8.58 1 17.16 1 26 C0.67 26 0.34 26 0 26 C0 17.42 0 8.84 0 0 Z " fill="#CF9B45" transform="translate(199,86)"/>
<path d="M0 0 C0.66 0.33 1.32 0.66 2 1 C-0.31 3.31 -2.62 5.62 -5 8 C-5 5 -5 5 -2.5 2.3125 C-1.675 1.549375 -0.85 0.78625 0 0 Z " fill="#000000" transform="translate(30,25)"/>
<path d="M0 0 C1.98 0 3.96 0 6 0 C6 0.33 6 0.66 6 1 C4.02 1 2.04 1 0 1 C0 0.67 0 0.34 0 0 Z " fill="#E0A94C" transform="translate(112,198)"/>
<path d="M0 0 C1.98 0 3.96 0 6 0 C6 0.33 6 0.66 6 1 C4.02 1 2.04 1 0 1 C0 0.67 0 0.34 0 0 Z " fill="#E0A94C" transform="translate(80,198)"/>
<path d="M0 0 C1.65 0 3.3 0 5 0 C5 0.33 5 0.66 5 1 C3.35 1 1.7 1 0 1 C0 0.67 0 0.34 0 0 Z " fill="#E0A94C" transform="translate(118,197)"/>
<path d="M0 0 C1.65 0 3.3 0 5 0 C5 0.33 5 0.66 5 1 C3.35 1 1.7 1 0 1 C0 0.67 0 0.34 0 0 Z " fill="#B3853A" transform="translate(75,197)"/>
<path d="M0 0 C1.65 0 3.3 0 5 0 C5 0.33 5 0.66 5 1 C3.35 1 1.7 1 0 1 C0 0.67 0 0.34 0 0 Z " fill="#000000" transform="translate(117,0)"/>
<path d="M0 0 C1.65 0 3.3 0 5 0 C5 0.33 5 0.66 5 1 C3.35 1 1.7 1 0 1 C0 0.67 0 0.34 0 0 Z " fill="#000000" transform="translate(76,0)"/>
<path d="M0 0 C4 1 4 1 4 1 Z " fill="#E0A94C" transform="translate(123,196)"/>
<path d="M0 0 C4 1 4 1 4 1 Z " fill="#A77E38" transform="translate(68,195)"/>
<path d="M0 0 C4 1 4 1 4 1 Z " fill="#000000" transform="translate(69,2)"/>
<path d="M0 0 C4 1 4 1 4 1 Z " fill="#000000" transform="translate(122,1)"/>
<path d="M0 0 C3 1 3 1 3 1 Z " fill="#E0A94C" transform="translate(72,196)"/>
<path d="M0 0 C3 1 3 1 3 1 Z " fill="#E1A94C" transform="translate(127,195)"/>
<path d="M0 0 C3 1 3 1 3 1 Z " fill="#E0A84C" transform="translate(130,194)"/>
<path d="M0 0 C3 1 3 1 3 1 Z " fill="#4A3819" transform="translate(65,194)"/>
<path d="M0 0 C3 1 3 1 3 1 Z " fill="#E0A94C" transform="translate(135,192)"/>
<path d="M0 0 C3 1 3 1 3 1 Z " fill="#4B3819" transform="translate(60,192)"/>
<path d="" fill="#000000" transform="translate(0,0)"/>
<path d="" fill="#E2A94C" transform="translate(0,0)"/>
<path d="" fill="#000000" transform="translate(0,0)"/>
<path d="" fill="#E1AA4C" transform="translate(0,0)"/>
<path d="" fill="#000000" transform="translate(0,0)"/>
<path d="" fill="#000000" transform="translate(0,0)"/>
<path d="M0 0 C3 1 3 1 3 1 Z " fill="#000000" transform="translate(137,6)"/>
<path d="M0 0 C3 1 3 1 3 1 Z " fill="#000000" transform="translate(132,4)"/>
<path d="M0 0 C3 1 3 1 3 1 Z " fill="#000000" transform="translate(63,4)"/>
<path d="M0 0 C3 1 3 1 3 1 Z " fill="#000000" transform="translate(129,3)"/>
<path d="M0 0 C3 1 3 1 3 1 Z " fill="#000000" transform="translate(66,3)"/>
<path d="M0 0 C3 1 3 1 3 1 Z " fill="#000000" transform="translate(126,2)"/>
<path d="M0 0 C3 1 3 1 3 1 Z " fill="#000000" transform="translate(73,1)"/>
<path d="M0 0 C2 1 2 1 2 1 Z " fill="#E1AA4C" transform="translate(133,193)"/>
<path d="M0 0 C2 1 2 1 2 1 Z " fill="#DFA74A" transform="translate(63,193)"/>
<path d="M0 0 C2 1 2 1 2 1 Z " fill="#E1AA4C" transform="translate(138,191)"/>
<path d="M0 0 C2 1 2 1 2 1 Z " fill="#DFA749" transform="translate(58,191)"/>
<path d="M0 0 C2 1 2 1 2 1 Z " fill="#E1AA4C" transform="translate(140,190)"/>
<path d="M0 0 C2 1 2 1 2 1 Z " fill="#6F5326" transform="translate(56,190)"/>
<path d="M0 0 C2 1 2 1 2 1 Z " fill="#E1AA4C" transform="translate(142,189)"/>
<path d="M0 0 C2 1 2 1 2 1 Z " fill="#E0A84B" transform="translate(54,189)"/>
<path d="M0 0 C2 1 2 1 2 1 Z " fill="#E1AA4C" transform="translate(144,188)"/>
<path d="M0 0 C2 1 2 1 2 1 Z " fill="#715526" transform="translate(52,188)"/>
<path d="M0 0 C2 1 2 1 2 1 Z " fill="#E0AA4C" transform="translate(146,187)"/>
<path d="M0 0 C2 1 2 1 2 1 Z " fill="#6F5324" transform="translate(50,187)"/>
<path d="M0 0 C2 1 2 1 2 1 Z " fill="#E1AA4C" transform="translate(148,186)"/>
<path d="M0 0 C2 1 2 1 2 1 Z " fill="#6F5426" transform="translate(47,185)"/>
<path d="M0 0 C2 1 2 1 2 1 Z " fill="#E1AA4C" transform="translate(151,184)"/>
<path d="M0 0 C2 1 2 1 2 1 Z " fill="#6F5325" transform="translate(45,184)"/>
<path d="M0 0 C2 1 2 1 2 1 Z " fill="#E1AA4C" transform="translate(154,182)"/>
<path d="M0 0 C2 1 2 1 2 1 Z " fill="#E0A94A" transform="translate(42,182)"/>
<path d="M0 0 C2 1 2 1 2 1 Z " fill="#E1AA4C" transform="translate(157,180)"/>
<path d="M0 0 C2 1 2 1 2 1 Z " fill="#6F5425" transform="translate(38,179)"/>
<path d="M0 0 C2 1 2 1 2 1 Z " fill="#E1AA4C" transform="translate(162,176)"/>
<path d="M0 0 C2 1 2 1 2 1 Z " fill="#705526" transform="translate(32,174)"/>
<path d="" fill="#000000" transform="translate(0,0)"/>
<path d="" fill="#E1AA4C" transform="translate(0,0)"/>
<path d="" fill="#000000" transform="translate(0,0)"/>
<path d="" fill="#E1AA4C" transform="translate(0,0)"/>
<path d="" fill="#000000" transform="translate(0,0)"/>
<path d="" fill="#705526" transform="translate(0,0)"/>
<path d="" fill="#000000" transform="translate(0,0)"/>
<path d="" fill="#000000" transform="translate(0,0)"/>
<path d="M0 0 C2 1 2 1 2 1 Z " fill="#6F5425" transform="translate(164,23)"/>
<path d="M0 0 C2 1 2 1 2 1 Z " fill="#000000" transform="translate(37,19)"/>
<path d="M0 0 C2 1 2 1 2 1 Z " fill="#000000" transform="translate(158,18)"/>
<path d="M0 0 C2 1 2 1 2 1 Z " fill="#6F5328" transform="translate(155,16)"/>
<path d="M0 0 C2 1 2 1 2 1 Z " fill="#000000" transform="translate(41,16)"/>
<path d="M0 0 C2 1 2 1 2 1 Z " fill="#000000" transform="translate(152,14)"/>
<path d="M0 0 C2 1 2 1 2 1 Z " fill="#000000" transform="translate(44,14)"/>
<path d="M0 0 C2 1 2 1 2 1 Z " fill="#6F5328" transform="translate(149,12)"/>
<path d="M0 0 C2 1 2 1 2 1 Z " fill="#000000" transform="translate(47,12)"/>
<path d="M0 0 C2 1 2 1 2 1 Z " fill="#000000" transform="translate(147,11)"/>
<path d="M0 0 C2 1 2 1 2 1 Z " fill="#000000" transform="translate(49,11)"/>
<path d="M0 0 C2 1 2 1 2 1 Z " fill="#000000" transform="translate(51,10)"/>
<path d="M0 0 C2 1 2 1 2 1 Z " fill="#000000" transform="translate(144,9)"/>
<path d="M0 0 C2 1 2 1 2 1 Z " fill="#000000" transform="translate(53,9)"/>
<path d="M0 0 C2 1 2 1 2 1 Z " fill="#000000" transform="translate(142,8)"/>
<path d="M0 0 C2 1 2 1 2 1 Z " fill="#000000" transform="translate(55,8)"/>
<path d="M0 0 C2 1 2 1 2 1 Z " fill="#000000" transform="translate(140,7)"/>
<path d="M0 0 C2 1 2 1 2 1 Z " fill="#000000" transform="translate(57,7)"/>
<path d="M0 0 C2 1 2 1 2 1 Z " fill="#000000" transform="translate(59,6)"/>
<path d="M0 0 C2 1 2 1 2 1 Z " fill="#000000" transform="translate(135,5)"/>
<path d="M0 0 C2 1 2 1 2 1 Z " fill="#000000" transform="translate(61,5)"/>
<path d="" fill="#DFA84B" transform="translate(0,0)"/>
<path d="" fill="#E1AA4C" transform="translate(0,0)"/>
<path d="" fill="#E1AA4C" transform="translate(0,0)"/>
<path d="" fill="#DFA748" transform="translate(0,0)"/>
<path d="" fill="#E1AA4C" transform="translate(0,0)"/>
<path d="" fill="#000000" transform="translate(0,0)"/>
<path d="" fill="#E1AA4B" transform="translate(0,0)"/>
<path d="" fill="#E1AA4C" transform="translate(0,0)"/>
<path d="" fill="#E1AA4C" transform="translate(0,0)"/>
<path d="" fill="#000000" transform="translate(0,0)"/>
<path d="" fill="#E1AA4C" transform="translate(0,0)"/>
<path d="" fill="#DFAA4A" transform="translate(0,0)"/>
<path d="" fill="#DFA84B" transform="translate(0,0)"/>
<path d="" fill="#E1AA4C" transform="translate(0,0)"/>
<path d="" fill="#DFAA4C" transform="translate(0,0)"/>
<path d="" fill="#E1AA4C" transform="translate(0,0)"/>
<path d="" fill="#E1AA4C" transform="translate(0,0)"/>
<path d="" fill="#DFA748" transform="translate(0,0)"/>
<path d="" fill="#E1AA4C" transform="translate(0,0)"/>
<path d="" fill="#000000" transform="translate(0,0)"/>
<path d="" fill="#E1AA4C" transform="translate(0,0)"/>
<path d="" fill="#DFAA4A" transform="translate(0,0)"/>
<path d="" fill="#E1AA4C" transform="translate(0,0)"/>
<path d="" fill="#DFAA4A" transform="translate(0,0)"/>
<path d="" fill="#E1AA4C" transform="translate(0,0)"/>
<path d="" fill="#000000" transform="translate(0,0)"/>
<path d="" fill="#E1AA4C" transform="translate(0,0)"/>
<path d="" fill="#DFA748" transform="translate(0,0)"/>
<path d="" fill="#E1AA4C" transform="translate(0,0)"/>
<path d="" fill="#E1AA4C" transform="translate(0,0)"/>
<path d="" fill="#000000" transform="translate(0,0)"/>
<path d="" fill="#E1AA4C" transform="translate(0,0)"/>
<path d="" fill="#000000" transform="translate(0,0)"/>
<path d="" fill="#E1AA4D" transform="translate(0,0)"/>
<path d="" fill="#000000" transform="translate(0,0)"/>
<path d="" fill="#DFAA4A" transform="translate(0,0)"/>
<path d="" fill="#DFA84B" transform="translate(0,0)"/>
<path d="" fill="#000000" transform="translate(0,0)"/>
<path d="" fill="#000000" transform="translate(0,0)"/>
<path d="" fill="#000000" transform="translate(0,0)"/>
<path d="" fill="#000000" transform="translate(0,0)"/>
<path d="" fill="#DFAA4A" transform="translate(0,0)"/>
<path d="" fill="#DFAA4A" transform="translate(0,0)"/>
<path d="" fill="#000000" transform="translate(0,0)"/>
<path d="" fill="#DFA750" transform="translate(0,0)"/>
<path d="" fill="#000000" transform="translate(0,0)"/>
<path d="" fill="#000000" transform="translate(0,0)"/>
<path d="" fill="#000000" transform="translate(0,0)"/>
<path d="" fill="#000000" transform="translate(0,0)"/>
<path d="" fill="#DFAA4A" transform="translate(0,0)"/>
<path d="" fill="#000000" transform="translate(0,0)"/>
<path d="" fill="#000000" transform="translate(0,0)"/>
<path d="" fill="#000000" transform="translate(0,0)"/>
<path d="" fill="#000000" transform="translate(0,0)"/>
<path d="" fill="#000000" transform="translate(0,0)"/>
<path d="" fill="#000000" transform="translate(0,0)"/>
<path d="" fill="#000000" transform="translate(0,0)"/>
<path d="" fill="#DFA750" transform="translate(0,0)"/>
<path d="" fill="#000000" transform="translate(0,0)"/>
<path d="" fill="#000000" transform="translate(0,0)"/>
<path d="" fill="#000000" transform="translate(0,0)"/>
<path d="" fill="#000000" transform="translate(0,0)"/>
<path d="" fill="#000000" transform="translate(0,0)"/>
<path d="" fill="#000000" transform="translate(0,0)"/>
</svg>
