<?xml version="1.0" encoding="UTF-8"?>
<svg version="1.1" xmlns="http://www.w3.org/2000/svg" width="25" height="25">
<path d="M0 0 C8.25 0 16.5 0 25 0 C25 8.25 25 16.5 25 25 C16.75 25 8.5 25 0 25 C0 16.75 0 8.5 0 0 Z " fill="#00F4FB" transform="translate(0,0)"/>
<path d="M0 0 C1.32 0.33 2.64 0.66 4 1 C4 1.99 4 2.98 4 4 C7.465 3.505 7.465 3.505 11 3 C11.33 5.31 11.66 7.62 12 10 C13.32 9.01 14.64 8.02 16 7 C15.01 6.67 14.02 6.34 13 6 C13.33 5.01 13.66 4.02 14 3 C14 3.66 14 4.32 14 5 C16.97 5 19.94 5 23 5 C23.33 4.34 23.66 3.68 24 3 C26.60341656 5.60341656 25 10.31821299 25 14 C16.75 14 8.5 14 0 14 C0 9.38 0 4.76 0 0 Z " fill="#00EFF6" transform="translate(0,11)"/>
<path d="M0 0 C1.1446875 0.3403125 1.1446875 0.3403125 2.3125 0.6875 C2.6425 2.6675 2.9725 4.6475 3.3125 6.6875 C0.6725 6.6875 -1.9675 6.6875 -4.6875 6.6875 C-5.375 4.875 -5.375 4.875 -5.6875 2.6875 C-3.97309355 -0.07459928 -3.26180423 -0.37927956 0 0 Z " fill="#002526" transform="translate(18.6875,9.3125)"/>
<path d="M0 0 C2.64 0 5.28 0 8 0 C7.67 1.65 7.34 3.3 7 5 C5.02 5 3.04 5 1 5 C0.67 3.35 0.34 1.7 0 0 Z " fill="#000909" transform="translate(3,10)"/>
<path d="M0 0 C0.66 0 1.32 0 2 0 C2 0.99 2 1.98 2 3 C3.32 3.33 4.64 3.66 6 4 C4.35 5.32 2.7 6.64 1 8 C0.26919734 6.02253397 -0.39421747 4.01927511 -1 2 C-0.67 1.34 -0.34 0.68 0 0 Z " fill="#001718" transform="translate(11,14)"/>
<path d="M0 0 C1.5 1.25 1.5 1.25 3 3 C3 4.32 3 5.64 3 7 C2.01 7 1.02 7 0 7 C0 6.34 0 5.68 0 5 C-1.32 4.67 -2.64 4.34 -4 4 C-2.68 2.68 -1.36 1.36 0 0 Z " fill="#00191A" transform="translate(12,3)"/>
<path d="M0 0 C0 0.66 0 1.32 0 2 C1.32 2.33 2.64 2.66 4 3 C3.01 3.33 2.02 3.66 1 4 C1 4.66 1 5.32 1 6 C0.34 6 -0.32 6 -1 6 C-1 4.68 -1 3.36 -1 2 C-3.64 2 -6.28 2 -9 2 C-9 1.67 -9 1.34 -9 1 C-5.846632 0.29925156 -3.27275026 0 0 0 Z " fill="#009598" transform="translate(12,8)"/>
</svg>
