<svg width="256" height="256" fill="none" xmlns="http://www.w3.org/2000/svg"><circle cx="128" cy="128" r="128" fill="#2F0D30"/><path d="m114.6 154.1-.4 1.6H142.6l-.3-1.6-5.4-23.2a16.3 16.3 0 0 0-8.5-30.4 16.4 16.4 0 0 0-8.4 30.4l-5.4 23.2Z" fill="#FF6A4D"/><path d="M187.7 145.8h-1.1l-.2 1.1a45.2 45.2 0 0 1-44.8 39.3h-26.3c-25 0-45.3-20.2-45.3-45V115c0-24.8 20.3-45 45.3-45h26.3c23 0 42 17.1 44.8 39.2l.2 1.2H204.7l-.1-1.5C201.5 77 174.4 52 141.6 52h-26.3A63.2 63.2 0 0 0 52 115v26.1c0 34.8 28.4 63 63.3 63h26.3c32.8 0 59.9-25 63-56.9v-1.4h-16.9Z" fill="#FF6A4D"/></svg>