<?xml version="1.0" encoding="UTF-8"?>
<svg version="1.1" xmlns="http://www.w3.org/2000/svg" width="64" height="64">
<path d="M0 0 C0.87462891 -0.00128906 1.74925781 -0.00257812 2.65039062 -0.00390625 C3.56111328 -0.00003906 4.47183594 0.00382812 5.41015625 0.0078125 C6.31701172 0.00394531 7.22386719 0.00007813 8.15820312 -0.00390625 C9.03412109 -0.00261719 9.91003906 -0.00132813 10.8125 0 C11.61034912 0.00112793 12.40819824 0.00225586 13.23022461 0.00341797 C15.43346066 0.13055081 17.35649588 0.52387594 19.47265625 1.1328125 C19.47265625 1.7928125 19.47265625 2.4528125 19.47265625 3.1328125 C20.05015625 3.2565625 20.62765625 3.3803125 21.22265625 3.5078125 C26.93543765 5.09469622 30.14952714 8.33845285 33.47265625 13.1328125 C34.34765625 16.0703125 34.34765625 16.0703125 34.47265625 18.1328125 C35.13265625 18.1328125 35.79265625 18.1328125 36.47265625 18.1328125 C37.76212909 20.71175818 37.60213475 22.5880314 37.60546875 25.47265625 C37.60675781 26.53548828 37.60804687 27.59832031 37.609375 28.69335938 C37.60550781 29.80775391 37.60164063 30.92214844 37.59765625 32.0703125 C37.60152344 33.18083984 37.60539062 34.29136719 37.609375 35.43554688 C37.60808594 36.49966797 37.60679688 37.56378906 37.60546875 38.66015625 C37.60434082 39.63718506 37.60321289 40.61421387 37.60205078 41.62084961 C37.47265625 44.1328125 37.47265625 44.1328125 36.47265625 47.1328125 C35.81265625 47.1328125 35.15265625 47.1328125 34.47265625 47.1328125 C33.39740431 49.78510062 32.37809474 52.41649704 31.47265625 55.1328125 C29.22244444 57.83306667 26.57101382 59.50617477 23.47265625 61.1328125 C22.48265625 61.1328125 21.49265625 61.1328125 20.47265625 61.1328125 C20.47265625 61.7928125 20.47265625 62.4528125 20.47265625 63.1328125 C17.83267976 64.45280075 15.83188308 64.26237282 12.87890625 64.265625 C11.21021484 64.26755859 11.21021484 64.26755859 9.5078125 64.26953125 C8.34121094 64.26566406 7.17460938 64.26179688 5.97265625 64.2578125 C4.80605469 64.26167969 3.63945312 64.26554687 2.4375 64.26953125 C1.32503906 64.26824219 0.21257813 64.26695313 -0.93359375 64.265625 C-1.95775391 64.26449707 -2.98191406 64.26336914 -4.03710938 64.26220703 C-6.52734375 64.1328125 -6.52734375 64.1328125 -8.52734375 63.1328125 C-8.52734375 62.4728125 -8.52734375 61.8128125 -8.52734375 61.1328125 C-9.20796875 61.0915625 -9.88859375 61.0503125 -10.58984375 61.0078125 C-15.7930134 59.45793218 -19.3371653 55.78370519 -22.46484375 51.4453125 C-23.52734375 49.1328125 -23.52734375 49.1328125 -23.52734375 46.1328125 C-24.18734375 46.1328125 -24.84734375 46.1328125 -25.52734375 46.1328125 C-26.37765477 43.17783392 -26.65581478 40.54362378 -26.66015625 37.47265625 C-26.66144531 36.59673828 -26.66273437 35.72082031 -26.6640625 34.81835938 C-26.66019531 33.91150391 -26.65632813 33.00464844 -26.65234375 32.0703125 C-26.65621094 31.15958984 -26.66007812 30.24886719 -26.6640625 29.31054688 C-26.66277344 28.43591797 -26.66148438 27.56128906 -26.66015625 26.66015625 C-26.65902832 25.86343506 -26.65790039 25.06671387 -26.65673828 24.24584961 C-26.52734375 22.1328125 -26.52734375 22.1328125 -25.52734375 19.1328125 C-24.86734375 19.1328125 -24.20734375 19.1328125 -23.52734375 19.1328125 C-23.27210937 18.22789063 -23.27210937 18.22789063 -23.01171875 17.3046875 C-20.43479876 8.80633435 -20.43479876 8.80633435 -16.52734375 6.1328125 C-13.57230061 4.95693028 -10.58727685 3.99587055 -7.52734375 3.1328125 C-7.52734375 2.4728125 -7.52734375 1.8128125 -7.52734375 1.1328125 C-4.69677577 0.18928984 -2.93270006 0.00415187 0 0 Z " fill="#FCFDFD" transform="translate(26.52734375,-0.1328125)"/>
<path d="M0 0 C3.63 0 7.26 0 11 0 C11 1.65 11 3.3 11 5 C13.64 5 16.28 5 19 5 C19 6.32 19 7.64 19 9 C20.65 9 22.3 9 24 9 C24 11.97 24 14.94 24 18 C20.37 18 16.74 18 13 18 C13 16.68 13 15.36 13 14 C11.68 13.67 10.36 13.34 9 13 C9 11.68 9 10.36 9 9 C6.69 9 4.38 9 2 9 C2 10.65 2 12.3 2 14 C1.01 14 0.02 14 -1 14 C-1 19.61 -1 25.22 -1 31 C-0.01 31 0.98 31 2 31 C2 32.32 2 33.64 2 35 C3.98 35 5.96 35 8 35 C8 33.68 8 32.36 8 31 C8.99 31 9.98 31 11 31 C11 29.35 11 27.7 11 26 C15.29 26 19.58 26 24 26 C24 29.3 24 32.6 24 36 C22.68 36 21.36 36 20 36 C20 37.32 20 38.64 20 40 C17.03 40 14.06 40 11 40 C11 41.32 11 42.64 11 44 C7.37 44 3.74 44 0 44 C0 42.68 0 41.36 0 40 C-2.97 40 -5.94 40 -9 40 C-9 38.35 -9 36.7 -9 35 C-10.32 35 -11.64 35 -13 35 C-13 26.42 -13 17.84 -13 9 C-11.68 9 -10.36 9 -9 9 C-9 7.68 -9 6.36 -9 5 C-6.03 5 -3.06 5 0 5 C0 3.35 0 1.7 0 0 Z " fill="#404245" transform="translate(27,10)"/>
<path d="M0 0 C4.29 0 8.58 0 13 0 C13 3.3 13 6.6 13 10 C11.68 10 10.36 10 9 10 C9 11.32 9 12.64 9 14 C6.03 14 3.06 14 0 14 C0 13.67 0 13.34 0 13 C2.64 13 5.28 13 8 13 C8 11.68 8 10.36 8 9 C9.32 9 10.64 9 12 9 C12 6.36 12 3.72 12 1 C9.36 1 6.72 1 4 1 C4 2.32 4 3.64 4 5 C2.68 5 1.36 5 0 5 C0 3.35 0 1.7 0 0 Z " fill="#BD8989" transform="translate(38,36)"/>
<path d="M0 0 C0.99 0 1.98 0 3 0 C3 4.29 3 8.58 3 13 C2.01 13 1.02 13 0 13 C0 8.71 0 4.42 0 0 Z " fill="#E3B23D" transform="translate(14,32)"/>
<path d="M0 0 C0.99 0 1.98 0 3 0 C3 4.29 3 8.58 3 13 C2.01 13 1.02 13 0 13 C0 8.71 0 4.42 0 0 Z " fill="#60CC9D" transform="translate(14,19)"/>
<path d="M0 0 C3.63 0 7.26 0 11 0 C11 1.65 11 3.3 11 5 C10.67 4.01 10.34 3.02 10 2 C7.36 2 4.72 2 2 2 C2 2.99 2 3.98 2 5 C1.34 5 0.68 5 0 5 C0 3.35 0 1.7 0 0 Z " fill="#7F99B7" transform="translate(27,10)"/>
<path d="M0 0 C0.66 0 1.32 0 2 0 C2 0.66 2 1.32 2 2 C4.64 2 7.28 2 10 2 C10.33 1.34 10.66 0.68 11 0 C11 1.32 11 2.64 11 4 C7.37 4 3.74 4 0 4 C0 2.68 0 1.36 0 0 Z " fill="#8E6363" transform="translate(27,50)"/>
<path d="M0 0 C2.97 0 5.94 0 9 0 C9 0.66 9 1.32 9 2 C7.35 2 5.7 2 4 2 C4 2.66 4 3.32 4 4 C2.68 4 1.36 4 0 4 C0 2.68 0 1.36 0 0 Z " fill="#396290" transform="translate(18,15)"/>
<path d="M0 0 C1.32 0 2.64 0 4 0 C4 1.32 4 2.64 4 4 C5.65 4 7.3 4 9 4 C9 4.33 9 4.66 9 5 C6.03 5 3.06 5 0 5 C0 3.35 0 1.7 0 0 Z " fill="#AC9259" transform="translate(18,45)"/>
<path d="M0 0 C0.99 0 1.98 0 3 0 C3 1.65 3 3.3 3 5 C0.03 5 -2.94 5 -6 5 C-6 4.67 -6 4.34 -6 4 C-4.02 4 -2.04 4 0 4 C0 2.68 0 1.36 0 0 Z " fill="#B16666" transform="translate(35,41)"/>
</svg>
