<?xml version="1.0" encoding="UTF-8"?>
<svg version="1.1" xmlns="http://www.w3.org/2000/svg" width="64" height="64">
<path d="M0 0 C8.81047514 5.19434969 14.48814942 12.48996989 17.24609375 22.32421875 C18.35744167 33.23093555 16.98391131 42.04985827 9.99609375 50.63671875 C4.23467963 56.74357098 -2.59763992 60.7988172 -11.05078125 61.66015625 C-22.03447975 61.78440623 -29.89682524 59.89481336 -38 52.25 C-45.14911627 44.40030218 -47.25042115 36.36475729 -47.0625 25.86328125 C-46.28781843 16.97895848 -42.28940188 10.27642471 -35.75390625 4.32421875 C-25.35703865 -3.57900943 -12.05437228 -5.6412087 0 0 Z " fill="#0D9B01" transform="translate(46.75390625,2.67578125)"/>
<path d="M0 0 C8.81047514 5.19434969 14.48814942 12.48996989 17.24609375 22.32421875 C18.35744167 33.23093555 16.98391131 42.04985827 9.99609375 50.63671875 C4.23467963 56.74357098 -2.59763992 60.7988172 -11.05078125 61.66015625 C-22.03447975 61.78440623 -29.89682524 59.89481336 -38 52.25 C-45.14911627 44.40030218 -47.25042115 36.36475729 -47.0625 25.86328125 C-46.28781843 16.97895848 -42.28940188 10.27642471 -35.75390625 4.32421875 C-25.35703865 -3.57900943 -12.05437228 -5.6412087 0 0 Z M-29.75390625 8.32421875 C-29.75390625 8.98421875 -29.75390625 9.64421875 -29.75390625 10.32421875 C-31.73390625 11.31421875 -31.73390625 11.31421875 -33.75390625 12.32421875 C-33.75390625 12.98421875 -33.75390625 13.64421875 -33.75390625 14.32421875 C-34.41390625 14.32421875 -35.07390625 14.32421875 -35.75390625 14.32421875 C-40.30519309 21.43560444 -40.75948401 27.98952612 -39.75390625 36.32421875 C-38.71708576 39.38998968 -37.51191376 41.57733202 -35.75390625 44.32421875 C-35.09390625 44.32421875 -34.43390625 44.32421875 -33.75390625 44.32421875 C-33.09390625 45.64421875 -32.43390625 46.96421875 -31.75390625 48.32421875 C-31.09390625 48.32421875 -30.43390625 48.32421875 -29.75390625 48.32421875 C-29.75390625 48.98421875 -29.75390625 49.64421875 -29.75390625 50.32421875 C-22.85752639 54.65135906 -16.8228599 55.34510826 -8.75390625 54.32421875 C-5.54693566 53.2994017 -2.6651868 52.00930103 0.24609375 50.32421875 C0.24609375 49.66421875 0.24609375 49.00421875 0.24609375 48.32421875 C1.56609375 47.66421875 2.88609375 47.00421875 4.24609375 46.32421875 C4.24609375 45.66421875 4.24609375 45.00421875 4.24609375 44.32421875 C4.90609375 44.32421875 5.56609375 44.32421875 6.24609375 44.32421875 C10.38244888 37.17792662 11.31492775 30.50490979 10.24609375 22.32421875 C9.19594279 19.30050822 7.96037499 17.05635448 6.24609375 14.32421875 C5.58609375 14.32421875 4.92609375 14.32421875 4.24609375 14.32421875 C3.58609375 13.00421875 2.92609375 11.68421875 2.24609375 10.32421875 C1.58609375 10.32421875 0.92609375 10.32421875 0.24609375 10.32421875 C0.24609375 9.66421875 0.24609375 9.00421875 0.24609375 8.32421875 C-9.26055885 2.23996108 -20.24725365 2.23996108 -29.75390625 8.32421875 Z " fill="#B5F6AE" transform="translate(46.75390625,2.67578125)"/>
<path d="M0 0 C2.1953125 1.09375 2.1953125 1.09375 5.3203125 3.09375 C5.3203125 3.75375 5.3203125 4.41375 5.3203125 5.09375 C6.6403125 5.75375 7.9603125 6.41375 9.3203125 7.09375 C9.3203125 7.75375 9.3203125 8.41375 9.3203125 9.09375 C9.9803125 9.09375 10.6403125 9.09375 11.3203125 9.09375 C15.64745281 15.99012986 16.34120201 22.02479635 15.3203125 30.09375 C14.29549545 33.30072059 13.00539478 36.18246945 11.3203125 39.09375 C10.6603125 39.09375 10.0003125 39.09375 9.3203125 39.09375 C8.6603125 40.41375 8.0003125 41.73375 7.3203125 43.09375 C6.6603125 43.09375 6.0003125 43.09375 5.3203125 43.09375 C5.3203125 43.75375 5.3203125 44.41375 5.3203125 45.09375 C-1.82597963 49.23010513 -8.49899646 50.162584 -16.6796875 49.09375 C-19.70339803 48.04359904 -21.94755177 46.80803124 -24.6796875 45.09375 C-24.6796875 44.43375 -24.6796875 43.77375 -24.6796875 43.09375 C-25.9996875 42.43375 -27.3196875 41.77375 -28.6796875 41.09375 C-28.6796875 40.43375 -28.6796875 39.77375 -28.6796875 39.09375 C-29.3396875 39.09375 -29.9996875 39.09375 -30.6796875 39.09375 C-35.23097434 31.98236431 -35.68526526 25.42844263 -34.6796875 17.09375 C-33.64286701 14.02797907 -32.43769501 11.84063673 -30.6796875 9.09375 C-30.0196875 9.09375 -29.3596875 9.09375 -28.6796875 9.09375 C-28.0196875 7.77375 -27.3596875 6.45375 -26.6796875 5.09375 C-26.0196875 5.09375 -25.3596875 5.09375 -24.6796875 5.09375 C-24.6796875 4.43375 -24.6796875 3.77375 -24.6796875 3.09375 C-17.19858949 -1.69415273 -8.55721727 -2.89398601 0 0 Z M-24.5546875 13.15625 C-28.21769219 18.2198153 -28.33501855 23.02963025 -27.6796875 29.09375 C-25.86792144 34.48763637 -22.16283084 37.85062503 -17.6796875 41.09375 C-12.84903975 42.70396592 -7.5318763 43.05177887 -2.64453125 41.41015625 C2.51812232 38.67565183 6.46564249 34.65776003 8.3203125 29.09375 C9.05519652 22.20270641 8.48328241 17.68089383 4.3203125 12.09375 C0.14013996 7.89174889 -3.47955688 5.95679733 -9.4296875 5.78125 C-16.07643479 5.86832529 -20.14965427 8.12371916 -24.5546875 13.15625 Z " fill="#09DB11" transform="translate(41.6796875,7.90625)"/>
<path d="M0 0 C4.101939 0.01760489 4.95892934 0.14333151 8.3125 2.8125 C8.951875 3.658125 9.59125 4.50375 10.25 5.375 C10.58 5.705 10.91 6.035 11.25 6.375 C11.68836682 9.75668693 11.73685233 12.99844355 11.25 16.375 C8.8125 19.4375 8.8125 19.4375 6.25 21.375 C5.92 21.705 5.59 22.035 5.25 22.375 C1.86831307 22.81336682 -1.37344355 22.86185233 -4.75 22.375 C-7.8125 19.9375 -7.8125 19.9375 -9.75 17.375 C-10.08 17.045 -10.41 16.715 -10.75 16.375 C-11.18836682 12.99331307 -11.23685233 9.75155645 -10.75 6.375 C-8.3125 3.3125 -8.3125 3.3125 -5.75 1.375 C-4.10843264 -0.26656736 -2.25784199 0.08684008 0 0 Z " fill="#E7E9E7" transform="translate(31.75,20.625)"/>
</svg>
