<?xml version="1.0" encoding="UTF-8"?>
<svg version="1.1" xmlns="http://www.w3.org/2000/svg" width="200" height="200">
<path d="M0 0 C2.72537664 2.18327175 5.3735747 4.42458083 7.9921875 6.734375 C8.61480469 7.27320312 9.23742187 7.81203125 9.87890625 8.3671875 C27.90327004 25.08909143 37.87382175 50.52390822 39.2109375 74.6875 C40.06359739 102.26219893 30.69814787 128.22369002 12.02734375 148.61328125 C-5.89595113 167.41254801 -30.81249877 178.4986616 -56.65625 179.9375 C-85.89942609 180.30533869 -111.79460369 170.05291117 -133.1953125 149.984375 C-151.17448493 131.05893033 -161.46623971 106.06939208 -161.3203125 79.984375 C-161.31539795 78.93523926 -161.3104834 77.88610352 -161.30541992 76.80517578 C-160.89729526 49.60942277 -149.04374128 25.15343837 -129.87011719 6.10668945 C-94.32688551 -27.6193695 -38.51305066 -29.00983037 0 0 Z " fill="#571E63" transform="translate(161.0078125,20.265625)"/>
<path d="M0 0 C29.90218298 -0.8191027 56.79794779 9.57065475 78.8515625 29.73046875 C90.29013325 40.86173461 90.29013325 40.86173461 92.03125 45.15234375 C87.6599039 61.82319162 68.29641925 76.06558946 54.40625 84.3046875 C30.69372932 97.28619477 3.00266637 101.0668603 -23.11181641 93.53417969 C-47.6739729 85.66925239 -69.96670732 69.82284819 -82.2578125 46.73046875 C-82.49242188 46.2096875 -82.72703125 45.68890625 -82.96875 45.15234375 C-63.66081469 21.83021571 -39.81793976 4.21590374 -8.96875 0.33984375 C-5.98114253 0.17102347 -2.9905467 0.11479461 0 0 Z " fill="#FDFCFD" transform="translate(94.96875,102.84765625)"/>
<path d="M0 0 C1.56234375 -0.01160156 1.56234375 -0.01160156 3.15625 -0.0234375 C20.22629728 0.01966868 35.93456037 7.26126524 48.25 19 C61.90882801 33.32986393 67.33952581 49.89849534 67.0703125 69.3203125 C67.04710937 70.28710938 67.02390625 71.25390625 67 72.25 C62.63924257 70.92224699 58.8709722 69.1796212 54.875 67 C46.05035387 62.3915602 36.5917978 59.77696341 27 57.25 C26.3304126 57.05277344 25.6608252 56.85554688 24.97094727 56.65234375 C17.32235672 54.6110185 9.41985239 54.85395067 1.5625 54.875 C0.80366516 54.87554382 0.04483032 54.87608765 -0.73699951 54.87664795 C-12.24556215 54.91463602 -23.02681285 55.56516281 -34 59.25 C-34.67047363 59.46430664 -35.34094727 59.67861328 -36.03173828 59.89941406 C-46.28455691 63.22897511 -55.63752824 67.94998007 -65 73.25 C-65.83555036 50.38162933 -65.83555036 50.38162933 -61 40.25 C-60.525625 39.198125 -60.05125 38.14625 -59.5625 37.0625 C-51.24295226 20.10342192 -37.52595293 9.00523007 -20 2.25 C-13.27408765 0.12564867 -7.02523571 -0.05216759 0 0 Z " fill="#FDFDFD" transform="translate(99,33.75)"/>
<path d="M0 0 C10.40768915 7.15951568 18.94598934 16.35380153 24 28 C2.88451832 44.82080744 -23.15294687 53.322719 -50.20947266 50.79345703 C-70.0364711 48.51483827 -88.71406421 40.99502035 -104 28 C-101.19281019 15.83551083 -88.73224358 5.13358394 -78.6875 -1.3125 C-53.94528753 -15.7943163 -24.46244413 -14.68910141 0 0 Z " fill="#2B113B" transform="translate(140,149)"/>
</svg>
