<?xml version="1.0" encoding="UTF-8"?>
<svg version="1.1" xmlns="http://www.w3.org/2000/svg" width="25" height="25">
<path d="M0 0 C3.17852316 1.64448689 5.37801764 3.75603527 7 7 C8.03037808 16.00844834 8.03037808 16.00844834 5.953125 20.0234375 C3.47535361 23.0113383 1.48573267 24.83006326 -2.390625 25.2734375 C-11.05997149 25.58136511 -11.05997149 25.58136511 -14.625 22.625 C-18.45795689 18.38857397 -18.38863816 15.34807028 -18.359375 9.7734375 C-17.80289254 5.47884463 -16.16828113 3.86654007 -13 1 C-9.03716439 -0.98141781 -4.30789762 -0.55820645 0 0 Z " fill="#1B36AE" transform="translate(18,0)"/>
<path d="M0 0 C2.31 0 4.62 0 7 0 C7.66 2.64 8.32 5.28 9 8 C12.51653861 7.68031467 14.53431968 7.37757864 17.3125 5.125 C19.18474473 3.01631216 19.18474473 3.01631216 20 0 C21.65 0 23.3 0 25 0 C25.34751969 2.91916538 25.53280018 5.13195476 23.95703125 7.69921875 C21.3872801 10.81155665 19.67641096 12.80825365 15.609375 13.2734375 C6.94002851 13.58136511 6.94002851 13.58136511 3.375 10.625 C-0.05359169 6.83550392 -0.10928274 5.02700597 0 0 Z " fill="#061747" transform="translate(0,12)"/>
<path d="M0 0 C1.2065625 0.0309375 1.2065625 0.0309375 2.4375 0.0625 C2.7675 0.7225 3.0975 1.3825 3.4375 2.0625 C2.7775 2.0625 2.1175 2.0625 1.4375 2.0625 C1.4375 5.0325 1.4375 8.0025 1.4375 11.0625 C3.0875 10.4025 4.7375 9.7425 6.4375 9.0625 C6.1875 11.4375 6.1875 11.4375 5.4375 14.0625 C3.6875 15.4375 3.6875 15.4375 1.4375 16.0625 C-0.23685587 15.77023078 -1.90552511 15.44108036 -3.5625 15.0625 C-3.58935412 12.75006208 -3.60882841 10.4375373 -3.625 8.125 C-3.63660156 6.83722656 -3.64820313 5.54945312 -3.66015625 4.22265625 C-3.53232863 0.08615436 -3.53232863 0.08615436 0 0 Z " fill="#9AC9B7" transform="translate(11.5625,4.9375)"/>
<path d="M0 0 C2.31 0 4.62 0 7 0 C7 3.96 7 7.92 7 12 C6.67 12 6.34 12 6 12 C6 10.35 6 8.7 6 7 C3.69 7 1.38 7 -1 7 C-0.67 4.69 -0.34 2.38 0 0 Z " fill="#19327F" transform="translate(1,5)"/>
<path d="M0 0 C1.32 0.66 2.64 1.32 4 2 C4 4.97 4 7.94 4 11 C3.34 10.34 2.68 9.68 2 9 C0.68 9.33 -0.64 9.66 -2 10 C-2 7.03 -2 4.06 -2 1 C-1.34 0.67 -0.68 0.34 0 0 Z " fill="#41618E" transform="translate(15,6)"/>
<path d="M0 0 C2.64 0 5.28 0 8 0 C8.33 2.31 8.66 4.62 9 7 C7.35 7 5.7 7 4 7 C3.67 7.99 3.34 8.98 3 10 C2.87625 8.906875 2.7525 7.81375 2.625 6.6875 C2.24535199 2.92618198 2.24535199 2.92618198 0 0 Z " fill="#152E7D" transform="translate(16,5)"/>
<path d="M0 0 C0.33 0 0.66 0 1 0 C1 1.98 1 3.96 1 6 C2.65 5.34 4.3 4.68 6 4 C5.75 6.375 5.75 6.375 5 9 C3.25 10.375 3.25 10.375 1 11 C-1.75 10.625 -1.75 10.625 -4 10 C-4 9.01 -4 8.02 -4 7 C-2.68 7 -1.36 7 0 7 C0 4.69 0 2.38 0 0 Z " fill="#5E818E" transform="translate(12,10)"/>
<path d="M0 0 C2.31 0 4.62 0 7 0 C7.33 2.64 7.66 5.28 8 8 C7.67 7.34 7.34 6.68 7 6 C4.69 6 2.38 6 0 6 C0 4.02 0 2.04 0 0 Z " fill="#0D2266" transform="translate(0,12)"/>
<path d="M0 0 C1.65 0 3.3 0 5 0 C5 1.98 5 3.96 5 6 C2.36 6.33 -0.28 6.66 -3 7 C-2.01 4.69 -1.02 2.38 0 0 Z " fill="#0D2265" transform="translate(20,12)"/>
<path d="M0 0 C0.37769531 0.50144531 0.75539063 1.00289063 1.14453125 1.51953125 C-8.26549153 2.85210528 -8.26549153 2.85210528 -12.85546875 1.51953125 C-12.85546875 0.85953125 -12.85546875 0.19953125 -12.85546875 -0.48046875 C-11.08733763 -0.72962814 -9.31571893 -0.95413507 -7.54296875 -1.16796875 C-6.55683594 -1.29558594 -5.57070313 -1.42320313 -4.5546875 -1.5546875 C-1.85546875 -1.48046875 -1.85546875 -1.48046875 0 0 Z " fill="#223FA5" transform="translate(21.85546875,3.48046875)"/>
<path d="M0 0 C0.33 1.32 0.66 2.64 1 4 C-2.44069624 6.29379749 -3.72290301 7 -8 7 C-8 6.34 -8 5.68 -8 5 C-7.05125 4.731875 -6.1025 4.46375 -5.125 4.1875 C-1.74732727 3.25013412 -1.74732727 3.25013412 0 0 Z " fill="#8EBBAD" transform="translate(17,14)"/>
<path d="M0 0 C2.64 0 5.28 0 8 0 C8 0.99 8 1.98 8 3 C6.35 3.33 4.7 3.66 3 4 C2.01 2.68 1.02 1.36 0 0 Z " fill="#173195" transform="translate(16,5)"/>
<path d="M0 0 C2.31 0 4.62 0 7 0 C6.67 0.99 6.34 1.98 6 3 C4.02 3 2.04 3 0 3 C0 2.01 0 1.02 0 0 Z " fill="#173095" transform="translate(1,5)"/>
</svg>
