<?xml version="1.0" encoding="UTF-8"?>
<svg version="1.1" xmlns="http://www.w3.org/2000/svg" width="64" height="64">
<path d="M0 0 C21.12 0 42.24 0 64 0 C64 21.12 64 42.24 64 64 C42.88 64 21.76 64 0 64 C0 42.88 0 21.76 0 0 Z " fill="#D13017" transform="translate(0,0)"/>
<path d="M0 0 C3.74625827 1.71893863 6.52289589 4.23769932 9.5625 6.98828125 C10.77024248 8.05795915 11.97856532 9.12698218 13.1875 10.1953125 C13.75895752 10.71722168 14.33041504 11.23913086 14.91918945 11.77685547 C16.68540836 13.35846543 16.68540836 13.35846543 19.48046875 14.921875 C22.38430394 18.06542641 22.07740669 20.47168198 22.00195312 24.63671875 C21.93911133 26.01730469 21.93911133 26.01730469 21.875 27.42578125 C21.85244141 28.36164062 21.82988281 29.2975 21.80664062 30.26171875 C21.74780595 32.56803799 21.66567146 34.87108963 21.5625 37.17578125 C20.30169947 36.23358637 19.04137678 35.29075204 17.78125 34.34765625 C17.07935547 33.82268555 16.37746094 33.29771484 15.65429688 32.75683594 C12.86010196 30.64488376 10.16735142 28.52014753 7.5625 26.17578125 C7.5625 25.51578125 7.5625 24.85578125 7.5625 24.17578125 C6.964375 23.90765625 6.36625 23.63953125 5.75 23.36328125 C3.59025192 22.19084658 2.20459744 20.98208843 0.5625 19.17578125 C-2.57767636 20.57349231 -4.76135237 22.2288764 -7.22265625 24.6171875 C-8.26583008 25.61588867 -8.26583008 25.61588867 -9.33007812 26.63476562 C-10.7806587 28.040954 -12.23117921 29.44720434 -13.68164062 30.85351562 C-14.72288086 31.8502832 -14.72288086 31.8502832 -15.78515625 32.8671875 C-16.41429932 33.47763916 -17.04344238 34.08809082 -17.69165039 34.71704102 C-19.4375 36.17578125 -19.4375 36.17578125 -22.4375 37.17578125 C-24.51385134 20.4990546 -24.51385134 20.4990546 -21.16015625 15.13134766 C-17.95780602 11.63237685 -14.20707896 8.94380207 -10.22558594 6.39501953 C-8.41287893 5.15899293 -6.89162134 3.79112509 -5.2890625 2.296875 C-2.4375 0.17578125 -2.4375 0.17578125 0 0 Z " fill="#FDFDFC" transform="translate(32.4375,9.82421875)"/>
<path d="M0 0 C4.00519822 1.87366946 7.11993019 4.49345365 10.4375 7.375 C11.56066024 8.34177084 12.68435046 9.30792634 13.80859375 10.2734375 C14.34508545 10.7478125 14.88157715 11.2221875 15.43432617 11.7109375 C17.14132162 13.18367312 17.14132162 13.18367312 19.890625 14.7109375 C22.81415996 17.88351433 22.51551573 20.26228181 22.43945312 24.4609375 C22.39755859 25.38132812 22.35566406 26.30171875 22.3125 27.25 C22.28994141 28.18585937 22.26738281 29.12171875 22.24414062 30.0859375 C22.18530595 32.39225674 22.10317146 34.69530838 22 37 C20.76689565 36.10959463 19.53873436 35.21234296 18.3125 34.3125 C17.62800781 33.81363281 16.94351563 33.31476562 16.23828125 32.80078125 C11.40895704 28.91540872 8.50374889 25.76508994 6.54296875 19.82421875 C6.15302734 18.66728516 5.76308594 17.51035156 5.36132812 16.31835938 C4.97396484 15.12017578 4.58660156 13.92199219 4.1875 12.6875 C3.78080078 11.46998047 3.37410156 10.25246094 2.95507812 8.99804688 C1.95667658 6.00284223 0.97223195 3.00378036 0 0 Z " fill="#FDFDFD" transform="translate(32,10)"/>
<path d="M0 0 C0.66 0 1.32 0 2 0 C3.36915412 3.59865208 4.71770631 7.20468119 6.0625 10.8125 C6.45244141 11.83666016 6.84238281 12.86082031 7.24414062 13.91601562 C7.79038086 15.39038086 7.79038086 15.39038086 8.34765625 16.89453125 C8.68804932 17.80050049 9.02844238 18.70646973 9.37915039 19.63989258 C10 22 10 22 9 25 C9 24.34 9 23.68 9 23 C8.401875 22.731875 7.80375 22.46375 7.1875 22.1875 C5.02775192 21.01506533 3.64209744 19.80630718 2 18 C-1.94139078 19.66751148 -4.7892812 22.22710649 -8 25 C-6.43889635 16.25781959 -3.21518143 8.24016625 0 0 Z " fill="#ABA8A8" transform="translate(31,11)"/>
<path d="M0 0 C9.24107143 6.02678571 9.24107143 6.02678571 12 9 C10.38113585 10.67262717 8.7547271 12.33795537 7.125 14 C5.76761719 15.3921875 5.76761719 15.3921875 4.3828125 16.8125 C2 19 2 19 0 19 C0 12.73 0 6.46 0 0 Z " fill="#AAA9A9" transform="translate(10,28)"/>
<path d="M0 0 C0 6.27 0 12.54 0 19 C-4.74499501 15.59942024 -8.4589432 12.6815323 -12 8 C-10.18959679 6.66382103 -8.3766216 5.33112616 -6.5625 4 C-5.55316406 3.2575 -4.54382812 2.515 -3.50390625 1.75 C-1 0 -1 0 0 0 Z " fill="#AAA9A9" transform="translate(54,28)"/>
<path d="M0 0 C0.33 0 0.66 0 1 0 C1 6.27 1 12.54 1 19 C2.27875 17.865625 3.5575 16.73125 4.875 15.5625 C8.75 12.125 8.75 12.125 11 11 C9.69715366 14.90853901 8.2920056 17.46045282 5 20 C3.35 20 1.7 20 0 20 C0 13.4 0 6.8 0 0 Z " fill="#A72F1D" transform="translate(9,28)"/>
<path d="M0 0 C3.43752007 1.5277867 6.18953688 3.50181056 9 6 C9 6.66 9 7.32 9 8 C9.5775 8.226875 10.155 8.45375 10.75 8.6875 C13.5663661 10.33038023 15.08077114 12.39533227 17 15 C13.52935269 13.4467033 10.77070538 11.3770513 7.8125 9 C6.49185547 7.948125 6.49185547 7.948125 5.14453125 6.875 C3 5 3 5 2 3 C0.35 3.33 -1.3 3.66 -3 4 C-2.01 2.68 -1.02 1.36 0 0 Z " fill="#B02A16" transform="translate(31,28)"/>
</svg>
