<svg width="500" height="500" viewBox="0 0 500 500" fill="none" xmlns="http://www.w3.org/2000/svg">
<rect width="500" height="500" rx="250" fill="#FFF720"/>
<path d="M374.052 200.844C351.054 179.681 322.847 165.006 292.316 158.324C293.905 157.021 295.494 155.623 297.02 154.098C310.525 140.592 315.324 123.526 307.729 115.963C300.929 109.162 286.437 112.34 273.789 122.858C271.406 104.109 261.999 90.0947 250.749 90.0947C239.5 90.0947 230.061 104.109 227.678 122.858C214.966 112.34 200.571 109.162 193.738 115.963C186.175 123.557 190.941 140.623 204.447 154.098C206.005 155.623 207.626 157.052 209.214 158.356C172.356 166.511 139.067 186.23 114.205 214.637C89.3425 243.044 74.2079 278.651 71.0074 316.266L68.0841 351H113.687L116.324 320.111C119.112 287.248 134.137 256.63 158.426 234.319C182.715 212.007 214.495 199.63 247.476 199.636H254.277C287.256 199.623 319.037 211.999 343.322 234.313C367.607 256.626 382.624 287.248 385.397 320.111L388.034 351H433.669L430.777 316.266C427.036 272.032 406.786 230.828 374.052 200.844Z" fill="black"/>
<path d="M206.289 258.018C197.264 258.018 189.923 271.046 189.923 287.126C189.923 303.207 197.264 316.236 206.289 316.236C215.314 316.236 222.655 303.207 222.655 287.126C222.655 271.046 215.314 258.018 206.289 258.018ZM295.429 258.018C286.404 258.018 279.063 271.046 279.063 287.126C279.063 303.207 286.404 316.236 295.429 316.236C304.454 316.236 311.795 303.207 311.795 287.126C311.795 271.046 304.454 258.018 295.429 258.018Z" fill="black"/>
</svg>
