<?xml version="1.0" encoding="UTF-8"?>
<svg version="1.1" xmlns="http://www.w3.org/2000/svg" width="64" height="64">
<path d="M0 0 C21.12 0 42.24 0 64 0 C64 21.12 64 42.24 64 64 C42.88 64 21.76 64 0 64 C0 42.88 0 21.76 0 0 Z " fill="#B87540" transform="translate(0,0)"/>
<path d="M0 0 C2.4164124 0.48328248 4.65832183 1.21944061 7 2 C7.125 7.75 7.125 7.75 6 10 C9.58327753 11.00217064 9.58327753 11.00217064 13 10 C13.72159424 8.35636866 14.39351421 6.68949614 15 5 C15.66 5 16.32 5 17 5 C17.33 4.34 17.66 3.68 18 3 C18.495 5.97 18.495 5.97 19 9 C18.34 9 17.68 9 17 9 C16.34 10.65 15.68 12.3 15 14 C16.32 14.33 17.64 14.66 19 15 C15.7 15.99 12.4 16.98 9 18 C10.65 18.33 12.3 18.66 14 19 C14.25532751 22.06393013 14.21861333 23.63233212 12.625 26.3125 C12.08875 26.869375 11.5525 27.42625 11 28 C10.34 28 9.68 28 9 28 C8.34 28.66 7.68 29.32 7 30 C5 28 5 28 4.875 25.375 C4.91625 24.59125 4.9575 23.8075 5 23 C4.34 23 3.68 23 3 23 C2.67 23.99 2.34 24.98 2 26 C1.34 22.37 0.68 18.74 0 15 C0 16.32 0 17.64 0 19 C-1 21.25 -1 21.25 -2 23 C-2.66 23 -3.32 23 -4 23 C-4 24.32 -4 25.64 -4 27 C-3.01 27.33 -2.02 27.66 -1 28 C-2.0625 29.5 -2.0625 29.5 -4 31 C-7.6875 31.1875 -7.6875 31.1875 -11 31 C-11.99 32.98 -12.98 34.96 -14 37 C-13.01 37.33 -12.02 37.66 -11 38 C-10.67 38.33 -10.34 38.66 -10 39 C-9.34 38.34 -8.68 37.68 -8 37 C-7.67 38.65 -7.34 40.3 -7 42 C-6.01 42.33 -5.02 42.66 -4 43 C-4 43.99 -4 44.98 -4 46 C-9.94 46 -15.88 46 -22 46 C-22 34.12 -22 22.24 -22 10 C-16.06 9.67 -10.12 9.34 -4 9 C-4.99 8.01 -5.98 7.02 -7 6 C-7.1875 3.3125 -7.1875 3.3125 -7 1 C-6.34 1.99 -5.68 2.98 -5 4 C-4.01904252 5.01868662 -3.02297922 6.02351983 -2 7 C-2 6.67 -2 6.34 -2 6 C-1.15151515 1.15151515 -1.15151515 1.15151515 0 0 Z " fill="#C37B45" transform="translate(22,18)"/>
<path d="M0 0 C0 9.24 0 18.48 0 28 C-14.85 28 -29.7 28 -45 28 C-44.67 26.68 -44.34 25.36 -44 24 C-42.68 23.67 -41.36 23.34 -40 23 C-39.67 21.68 -39.34 20.36 -39 19 C-38.46375 19.185625 -37.9275 19.37125 -37.375 19.5625 C-34.33377558 20.12272555 -31.98956802 19.73078329 -29 19 C-28.67 18.34 -28.34 17.68 -28 17 C-26.35 17.33 -24.7 17.66 -23 18 C-23 18.66 -23 19.32 -23 20 C-20.30766494 17.30766494 -20.03372972 15.315459 -19.9375 11.5625 C-19.958125 10.716875 -19.97875 9.87125 -20 9 C-20.07843384 5.78421264 -19.91590216 3.09116979 -19 0 C-16.77369595 -0.39163671 -14.54376235 -0.76267785 -12.3125 -1.125 C-11.07113281 -1.33382812 -9.82976563 -1.54265625 -8.55078125 -1.7578125 C-5 -2 -5 -2 0 0 Z " fill="#7B7768" transform="translate(64,36)"/>
<path d="M0 0 C21.12 0 42.24 0 64 0 C64 4.62 64 9.24 64 14 C58.72 14 53.44 14 48 14 C47.67 15.32 47.34 16.64 47 18 C46.67 18.66 46.34 19.32 46 20 C45.34 20 44.68 20 44 20 C43.34 17.36 42.68 14.72 42 12 C42.66 12 43.32 12 44 12 C44 13.32 44 14.64 44 16 C44.66 16 45.32 16 46 16 C46.44597649 11.93496176 46.44597649 11.93496176 43.75 9.5 C42.8425 8.675 41.935 7.85 41 7 C40.34 6.236875 39.68 5.47375 39 4.6875 C37.10631071 2.80240128 37.10631071 2.80240128 34.5 2.5625 C31.57005897 3.07523968 30.26032856 4.11639287 28 6 C27.01 6.33 26.02 6.66 25 7 C23.60287726 8.95597184 22.26220093 10.95436401 21 13 C20.01 12.67 19.02 12.34 18 12 C17.67 11.34 17.34 10.68 17 10 C16.21625 10 15.4325 10 14.625 10 C13.08333333 10 11.54166667 10 10 10 C9.071875 10.495 9.071875 10.495 8.125 11 C6 12 6 12 2 12 C2 9.69 2 7.38 2 5 C1.34 5 0.68 5 0 5 C0 3.35 0 1.7 0 0 Z " fill="#545047" transform="translate(0,0)"/>
<path d="M0 0 C9 1 9 1 12 2 C11.34 2.61875 10.68 3.2375 10 3.875 C7.7715451 5.75637427 7.7715451 5.75637427 8 8 C9.98 8 11.96 8 14 8 C14.87867729 11.73437848 15.08912219 15.16774573 15 19 C13.68 19 12.36 19 11 19 C10.01 20.98 9.02 22.96 8 25 C8.99 25.33 9.98 25.66 11 26 C11.33 26.33 11.66 26.66 12 27 C12.66 26.34 13.32 25.68 14 25 C14.33 26.65 14.66 28.3 15 30 C15.99 30.33 16.98 30.66 18 31 C18 31.99 18 32.98 18 34 C12.06 34 6.12 34 0 34 C0 22.78 0 11.56 0 0 Z " fill="#A2A3A4" transform="translate(0,30)"/>
<path d="M0 0 C0.66 0 1.32 0 2 0 C2 2.31 2 4.62 2 7 C3.29217171 6.52219697 4.58372046 6.04270894 5.875 5.5625 C6.59429688 5.29566406 7.31359375 5.02882813 8.0546875 4.75390625 C10.03648845 4.02083146 10.03648845 4.02083146 12 3 C12 3.66 12 4.32 12 5 C13.65 5 15.3 5 17 5 C17.33 3.68 17.66 2.36 18 1 C19.07174496 6.74845024 19.3460425 9.04785709 16 14 C15.49985047 16.54258463 15.49985047 16.54258463 16 19 C16.99 20.32 17.98 21.64 19 23 C12.73 23 6.46 23 0 23 C0 15.41 0 7.82 0 0 Z " fill="#343435" transform="translate(0,5)"/>
<path d="M0 0 C3.09375 0.061875 3.09375 0.061875 6.25 0.125 C6.25 6.065 6.25 12.005 6.25 18.125 C4.6 17.795 2.95 17.465 1.25 17.125 C-1.19043988 17.20822732 -3.62923369 17.35783274 -6.0625 17.5625 C-7.31675781 17.66433594 -8.57101563 17.76617187 -9.86328125 17.87109375 C-11.29220703 17.99677734 -11.29220703 17.99677734 -12.75 18.125 C-13.375 16.25 -13.375 16.25 -13.75 14.125 C-13.09 13.465 -12.43 12.805 -11.75 12.125 C-11.44647463 9.55804255 -11.37165457 7.02037932 -11.2890625 4.4375 C-10.75 2.125 -10.75 2.125 -9.1328125 0.8203125 C-6.01196614 -0.0903607 -3.24641764 -0.06492835 0 0 Z " fill="#221D19" transform="translate(57.75,17.875)"/>
<path d="M0 0 C0.66 0.33 1.32 0.66 2 1 C2.5797881 3.10463079 3.06551685 5.23564276 3.5 7.375 C4.29180502 11.25656593 4.78929752 13.68394627 7 17 C7.99 17.33 8.98 17.66 10 18 C10 17.34 10 16.68 10 16 C10.99 15.67 11.98 15.34 13 15 C13 16.65 13 18.3 13 20 C13.66 20.33 14.32 20.66 15 21 C14.67 21.99 14.34 22.98 14 24 C11.69 24.33 9.38 24.66 7 25 C7 24.34 7 23.68 7 23 C6.01 23.33 5.02 23.66 4 24 C3.67 24.99 3.34 25.98 3 27 C2.0409375 27.2165625 2.0409375 27.2165625 1.0625 27.4375 C-1.20311706 27.80104993 -1.20311706 27.80104993 -2.25 30.0625 C-2.62125 31.0215625 -2.62125 31.0215625 -3 32 C-3 31.01 -3 30.02 -3 29 C-3.639375 28.896875 -4.27875 28.79375 -4.9375 28.6875 C-5.9584375 28.3471875 -5.9584375 28.3471875 -7 28 C-7.33 27.01 -7.66 26.02 -8 25 C-8.66 25.33 -9.32 25.66 -10 26 C-10 25.34 -10 24.68 -10 24 C-11.32 23.67 -12.64 23.34 -14 23 C-12.68 20.69 -11.36 18.38 -10 16 C-8.329375 16.061875 -8.329375 16.061875 -6.625 16.125 C-2.95633975 16.41121859 -2.95633975 16.41121859 -1 14 C-1.66 13.67 -2.32 13.34 -3 13 C-3 9 -3 9 -1 7 C-0.59952556 4.67724823 -0.2602896 2.34260643 0 0 Z " fill="#A37D51" transform="translate(21,32)"/>
<path d="M0 0 C4.8049601 0.08225324 8.22014401 0.64303154 12.375 3.25 C15.96919744 7.47901673 17.95568622 11.6591496 18.375 17.25 C16.395 17.58 14.415 17.91 12.375 18.25 C12.705 15.61 13.035 12.97 13.375 10.25 C12.385 10.25 11.395 10.25 10.375 10.25 C9.715 12.23 9.055 14.21 8.375 16.25 C6.0625 16.9375 6.0625 16.9375 3.375 17.25 C1.5625 15.8125 1.5625 15.8125 0.375 14.25 C1.035 11.94 1.695 9.63 2.375 7.25 C0.065 6.92 -2.245 6.59 -4.625 6.25 C-5.42453138 9.53696233 -5.72158936 10.96023192 -4.625 14.25 C-5.285 14.25 -5.945 14.25 -6.625 14.25 C-6.625 13.59 -6.625 12.93 -6.625 12.25 C-7.615 11.92 -8.605 11.59 -9.625 11.25 C-10.4375 9.0625 -10.4375 9.0625 -10.625 6.25 C-8.25 3.5 -8.25 3.5 -5.625 1.25 C-4.00405182 -0.37094818 -2.23372115 0.04049041 0 0 Z " fill="#524333" transform="translate(26.625,12.75)"/>
<path d="M0 0 C0.33 0.99 0.66 1.98 1 3 C3.475 3.495 3.475 3.495 6 4 C6.05816623 7.41659491 6.09365195 10.83306205 6.125 14.25 C6.15013672 15.70212891 6.15013672 15.70212891 6.17578125 17.18359375 C6.18222656 18.11816406 6.18867187 19.05273438 6.1953125 20.015625 C6.20578613 20.87446289 6.21625977 21.73330078 6.22705078 22.61816406 C5.98293323 25.17903596 5.28990512 26.79511029 4 29 C3.34 29 2.68 29 2 29 C1.67 28.34 1.34 27.68 1 27 C-1.3140622 26.26924352 -3.64828869 25.59861742 -6 25 C-6 23.68 -6 22.36 -6 21 C-6.66 21 -7.32 21 -8 21 C-8 21.66 -8 22.32 -8 23 C-9.875 22.6875 -9.875 22.6875 -12 22 C-14.1519437 18.77208445 -14.20086443 17.71599191 -14 14 C-13.34 14 -12.68 14 -12 14 C-11.34 15.98 -10.68 17.96 -10 20 C-5.50970641 16.86378037 -5.50970641 16.86378037 -3.125 12.1875 C-3.08375 11.465625 -3.0425 10.74375 -3 10 C-5.31 9.67 -7.62 9.34 -10 9 C-10 8.67 -10 8.34 -10 8 C-6.7 7.34 -3.4 6.68 0 6 C-0.66 5.67 -1.32 5.34 -2 5 C-1.34 3.35 -0.68 1.7 0 0 Z " fill="#B6682D" transform="translate(39,27)"/>
<path d="M0 0 C9 1 9 1 12 2 C11.34 2.61875 10.68 3.2375 10 3.875 C7.7715451 5.75637427 7.7715451 5.75637427 8 8 C9.98 8 11.96 8 14 8 C13.04956626 9.33897583 12.08940853 10.67105427 11.125 12 C10.59132813 12.7425 10.05765625 13.485 9.5078125 14.25 C9.01023437 14.8275 8.51265625 15.405 8 16 C7.34 16 6.68 16 6 16 C5.67 16.99 5.34 17.98 5 19 C4.34 19.33 3.68 19.66 3 20 C2.84850702 23.62885324 2.84850702 23.62885324 4 27 C2.68 27.33 1.36 27.66 0 28 C0 18.76 0 9.52 0 0 Z " fill="#969794" transform="translate(0,30)"/>
<path d="M0 0 C0.80566406 0.04833984 1.61132812 0.09667969 2.44140625 0.14648438 C3.28316406 0.20255859 4.12492187 0.25863281 4.9921875 0.31640625 C6.26642578 0.3947168 6.26642578 0.3947168 7.56640625 0.47460938 C9.66697874 0.60442003 11.76712941 0.74102365 13.8671875 0.87890625 C13.8671875 3.18890625 13.8671875 5.49890625 13.8671875 7.87890625 C8.5871875 7.87890625 3.3071875 7.87890625 -2.1328125 7.87890625 C-2.4628125 9.19890625 -2.7928125 10.51890625 -3.1328125 11.87890625 C-3.4628125 12.53890625 -3.7928125 13.19890625 -4.1328125 13.87890625 C-4.7928125 13.87890625 -5.4528125 13.87890625 -6.1328125 13.87890625 C-6.7928125 11.23890625 -7.4528125 8.59890625 -8.1328125 5.87890625 C-7.4728125 5.87890625 -6.8128125 5.87890625 -6.1328125 5.87890625 C-6.1328125 7.19890625 -6.1328125 8.51890625 -6.1328125 9.87890625 C-5.4728125 9.87890625 -4.8128125 9.87890625 -4.1328125 9.87890625 C-4.1328125 8.55890625 -4.1328125 7.23890625 -4.1328125 5.87890625 C-5.1228125 5.21890625 -6.1128125 4.55890625 -7.1328125 3.87890625 C-6.8028125 2.88890625 -6.4728125 1.89890625 -6.1328125 0.87890625 C-3.77622853 -0.29938574 -2.60708014 -0.16523747 0 0 Z " fill="#454240" transform="translate(50.1328125,6.12109375)"/>
<path d="M0 0 C0.268125 0.556875 0.53625 1.11375 0.8125 1.6875 C3.24164023 7.08166098 3.24164023 7.08166098 8 10 C8 9.34 8 8.68 8 8 C8.99 7.67 9.98 7.34 11 7 C11 8.65 11 10.3 11 12 C11.66 12.33 12.32 12.66 13 13 C12.67 13.99 12.34 14.98 12 16 C9.69 16.33 7.38 16.66 5 17 C5 16.34 5 15.68 5 15 C3.35 15.33 1.7 15.66 0 16 C0 16.66 0 17.32 0 18 C-0.66 18 -1.32 18 -2 18 C-2.12375 16.865625 -2.2475 15.73125 -2.375 14.5625 C-2.58125 13.386875 -2.7875 12.21125 -3 11 C-3.66 10.67 -4.32 10.34 -5 10 C-4.34 9.34 -3.68 8.68 -3 8 C-2.01 8 -1.02 8 0 8 C-0.185625 7.4225 -0.37125 6.845 -0.5625 6.25 C-1.04023546 3.79307475 -0.75729364 2.35602466 0 0 Z " fill="#362920" transform="translate(23,40)"/>
<path d="M0 0 C0.515625 0.165 1.03125 0.33 1.5625 0.5 C4.73363876 1.15049 7.77218334 1.0620734 11 1 C11.33 3.64 11.66 6.28 12 9 C6.06 9 0.12 9 -6 9 C-5.67 7.68 -5.34 6.36 -5 5 C-3.68 4.67 -2.36 4.34 -1 4 C-0.67 2.68 -0.34 1.36 0 0 Z " fill="#9D9C99" transform="translate(25,55)"/>
<path d="M0 0 C1.75570312 0.02707031 1.75570312 0.02707031 3.546875 0.0546875 C4.88492188 0.08949219 4.88492188 0.08949219 6.25 0.125 C5.28513672 0.54265625 5.28513672 0.54265625 4.30078125 0.96875 C1.98963843 1.96700641 1.98963843 1.96700641 1.4375 4.625 C1.045625 5.45 0.65375 6.275 0.25 7.125 C-2.0640622 7.85575648 -4.39828869 8.52638258 -6.75 9.125 C-7.08 10.115 -7.41 11.105 -7.75 12.125 C-8.74 12.62 -8.74 12.62 -9.75 13.125 C-10.40213292 15.14963255 -10.40213292 15.14963255 -10.75 17.125 C-9.76 17.455 -8.77 17.785 -7.75 18.125 C-9.4 18.125 -11.05 18.125 -12.75 18.125 C-13.375 16.25 -13.375 16.25 -13.75 14.125 C-13.09 13.465 -12.43 12.805 -11.75 12.125 C-11.44647463 9.55804255 -11.37165457 7.02037932 -11.2890625 4.4375 C-10.75 2.125 -10.75 2.125 -9.1328125 0.8203125 C-6.01196614 -0.0903607 -3.24641764 -0.06492835 0 0 Z " fill="#362F29" transform="translate(57.75,17.875)"/>
<path d="M0 0 C7.26 0 14.52 0 22 0 C22 0.33 22 0.66 22 1 C18.7 1.66 15.4 2.32 12 3 C12 3.66 12 4.32 12 5 C11.01 5.33 10.02 5.66 9 6 C7.29144978 9.00007271 7.29144978 9.00007271 6 12 C4.68 12 3.36 12 2 12 C2 9.69 2 7.38 2 5 C1.34 5 0.68 5 0 5 C0 3.35 0 1.7 0 0 Z " fill="#6E6B60" transform="translate(0,0)"/>
<path d="M0 0 C0 4.29 0 8.58 0 13 C-10.73046875 5.953125 -10.73046875 5.953125 -14 3 C-14 2.34 -14 1.68 -14 1 C-13.01 1 -12.02 1 -11 1 C-11 0.34 -11 -0.32 -11 -1 C-6.13160991 -2.13218374 -4.94554184 -1.97821674 0 0 Z " fill="#656869" transform="translate(64,36)"/>
<path d="M0 0 C-0.99 0.495 -0.99 0.495 -2 1 C-2 1.99 -2 2.98 -2 4 C0.64 4 3.28 4 6 4 C3.33333333 6.66666667 0.66666667 9.33333333 -2 12 C-2.391875 11.505 -2.78375 11.01 -3.1875 10.5 C-5.57092548 8.52750995 -6.98084776 8.76775752 -10 9 C-11.66666667 9 -13.33333333 9 -15 9 C-14.34 7.35 -13.68 5.7 -13 4 C-12.01 4 -11.02 4 -10 4 C-10 3.34 -10 2.68 -10 2 C-6.49223216 0.39644899 -3.85645121 -0.22036864 0 0 Z " fill="#5D5B58" transform="translate(22,1)"/>
<path d="M0 0 C4.62 0 9.24 0 14 0 C14 2.31 14 4.62 14 7 C11.37438891 7.08074203 8.75124324 7.1403623 6.125 7.1875 C5.00544922 7.22520508 5.00544922 7.22520508 3.86328125 7.26367188 C1.6953125 7.29296875 1.6953125 7.29296875 -2 7 C-2.66 6.01 -3.32 5.02 -4 4 C-2.68 3.67 -1.36 3.34 0 3 C0 2.01 0 1.02 0 0 Z " fill="#6B6A6A" transform="translate(50,0)"/>
<path d="M0 0 C2.64 0 5.28 0 8 0 C8 0.33 8 0.66 8 1 C6.35 1.33 4.7 1.66 3 2 C4.65 2.33 6.3 2.66 8 3 C8.25532751 6.06393013 8.21861333 7.63233212 6.625 10.3125 C6.08875 10.869375 5.5525 11.42625 5 12 C4.34 12 3.68 12 3 12 C2.34 12.66 1.68 13.32 1 14 C-1 12 -1 12 -1.125 9.375 C-1.08375 8.59125 -1.0425 7.8075 -1 7 C-1.66 7 -2.32 7 -3 7 C-3.33 7.99 -3.66 8.98 -4 10 C-4 7.69 -4 5.38 -4 3 C-3.01 3 -2.02 3 -1 3 C-0.67 2.01 -0.34 1.02 0 0 Z " fill="#B16632" transform="translate(28,34)"/>
<path d="M0 0 C6.27 0 12.54 0 19 0 C18.01 1.98 17.02 3.96 16 6 C15.67 6.763125 15.34 7.52625 15 8.3125 C14 10 14 10 11 11 C10.01 10.67 9.02 10.34 8 10 C7.67 9.01 7.34 8.02 7 7 C8.32 6.01 9.64 5.02 11 4 C8.03 4 5.06 4 2 4 C1.34 2.68 0.68 1.36 0 0 Z " fill="#818691" transform="translate(0,28)"/>
<path d="M0 0 C2.81870287 2.81870287 2.7303841 5.09056945 3 9 C2.0625 11.4375 2.0625 11.4375 1 13 C0.34 13 -0.32 13 -1 13 C-1 14.32 -1 15.64 -1 17 C-0.01 17.33 0.98 17.66 2 18 C0.75 19.5625 0.75 19.5625 -1 21 C-3.109375 20.58984375 -3.109375 20.58984375 -5 20 C-4.98259766 19.07767578 -4.98259766 19.07767578 -4.96484375 18.13671875 C-4.95582031 17.32847656 -4.94679688 16.52023438 -4.9375 15.6875 C-4.92589844 14.88699219 -4.91429687 14.08648437 -4.90234375 13.26171875 C-4.90342145 10.83138666 -4.90342145 10.83138666 -6 8 C-4.1875 5.5 -4.1875 5.5 -2 3 C-1.34 2.01 -0.68 1.02 0 0 Z " fill="#C87A3F" transform="translate(19,28)"/>
<path d="M0 0 C1.33599921 0.32248257 2.66893378 0.65772583 4 1 C5.32 1 6.64 1 8 1 C9.85776765 4.13498292 10.20140476 6.37471432 10 10 C9.01 10.33 8.02 10.66 7 11 C7 9.68 7 8.36 7 7 C4.69 6.67 2.38 6.34 0 6 C-0.79953138 9.28696233 -1.09658936 10.71023192 0 14 C-0.66 14 -1.32 14 -2 14 C-2 13.34 -2 12.68 -2 12 C-2.99 11.67 -3.98 11.34 -5 11 C-5.8125 8.8125 -5.8125 8.8125 -6 6 C-3.625 3.25 -3.625 3.25 -1 1 C-0.67 0.67 -0.34 0.34 0 0 Z " fill="#72462E" transform="translate(22,13)"/>
<path d="M0 0 C0.66 0 1.32 0 2 0 C2 2.64 2 5.28 2 8 C2.66 8 3.32 8 4 8 C3.67 11.63 3.34 15.26 3 19 C8.28 19.99 13.56 20.98 19 22 C19 22.33 19 22.66 19 23 C12.73 23 6.46 23 0 23 C0 15.41 0 7.82 0 0 Z " fill="#101114" transform="translate(0,5)"/>
<path d="M0 0 C0 0.66 0 1.32 0 2 C-0.99 2 -1.98 2 -3 2 C-0.65867136 4.4923821 1.46812701 6.64956863 4.3359375 8.5390625 C10.74084052 12.80226293 10.74084052 12.80226293 11.578125 16.671875 C11.56398283 19.17503969 11.40235844 21.53120809 11 24 C7.125 21.375 7.125 21.375 6 18 C6.99 18 7.98 18 9 18 C6.09668337 13.98002312 3.1559203 11.65978899 -1 9 C-3.11280937 7.41539297 -5.03568865 5.77723408 -7 4 C-7 3.34 -7 2.68 -7 2 C-4.35261084 0.5393715 -3.10551666 0 0 0 Z " fill="#CFCBB4" transform="translate(53,35)"/>
<path d="M0 0 C0.66 0 1.32 0 2 0 C1.34 1.98 0.68 3.96 0 6 C0.66 6.33 1.32 6.66 2 7 C2.33333333 8.33333333 2.66666667 9.66666667 3 11 C3.66 11.33 4.32 11.66 5 12 C2.69631264 13.06652192 0.35981813 14.06421005 -2 15 C-2.66 14.67 -3.32 14.34 -4 14 C-4 12.68 -4 11.36 -4 10 C-4.66 10 -5.32 10 -6 10 C-6 10.66 -6 11.32 -6 12 C-7.875 11.6875 -7.875 11.6875 -10 11 C-12.1519437 7.77208445 -12.20086443 6.71599191 -12 3 C-11.34 3 -10.68 3 -10 3 C-9.34 4.98 -8.68 6.96 -8 9 C-3.04437087 5.26978687 -3.04437087 5.26978687 0 0 Z " fill="#91491E" transform="translate(37,38)"/>
<path d="M0 0 C2.4164124 0.48328248 4.65832183 1.21944061 7 2 C7.125 7.75 7.125 7.75 6 10 C6.66 10.33 7.32 10.66 8 11 C8 12.32 8 13.64 8 15 C7.34 15 6.68 15 6 15 C5.67 14.34 5.34 13.68 5 13 C4.38125 12.731875 3.7625 12.46375 3.125 12.1875 C0.25239522 10.58222086 -0.67894786 8.98974957 -2 6 C-1.6 1.6 -1.6 1.6 0 0 Z " fill="#AEA49F" transform="translate(22,18)"/>
<path d="M0 0 C0.66 0 1.32 0 2 0 C2 3.3 2 6.6 2 10 C0.68 10 -0.64 10 -2 10 C-2.7115625 10.99 -2.7115625 10.99 -3.4375 12 C-3.953125 12.66 -4.46875 13.32 -5 14 C-7.6875 14.25 -7.6875 14.25 -10 14 C-10.33 12.68 -10.66 11.36 -11 10 C-10.01 9.67 -9.02 9.34 -8 9 C-6.14944215 7.17387625 -6.14944215 7.17387625 -4.375 5 C-3.76398437 4.278125 -3.15296875 3.55625 -2.5234375 2.8125 C-2.02070313 2.214375 -1.51796875 1.61625 -1 1 C-0.67 0.67 -0.34 0.34 0 0 Z " fill="#A29E94" transform="translate(13,39)"/>
<path d="M0 0 C4.4127954 0.09472906 7.53789232 0.93325574 11.375 3.25 C14.97643726 7.46563587 16.95638641 11.66848548 17.375 17.25 C15.395 17.58 13.415 17.91 11.375 18.25 C11.70052083 16.23177083 12.02604167 14.21354167 12.3515625 12.1953125 C12.35929687 11.55335937 12.36703125 10.91140625 12.375 10.25 C11.715 9.59 11.055 8.93 10.375 8.25 C9.385 8.25 8.395 8.25 7.375 8.25 C7.045 6.6 6.715 4.95 6.375 3.25 C5.116875 3.105625 3.85875 2.96125 2.5625 2.8125 C-0.05167123 2.51251314 -2.09939892 2.09186703 -4.625 1.25 C-3.625 0.25 -3.625 0.25 0 0 Z " fill="#533526" transform="translate(27.625,12.75)"/>
<path d="M0 0 C0.99 0.33 1.98 0.66 3 1 C2.34 1 1.68 1 1 1 C1 1.66 1 2.32 1 3 C1.53625 3.226875 2.0725 3.45375 2.625 3.6875 C6.56378456 5.86419673 9.82029144 8.82029144 13 12 C11.41870971 12.22331199 9.83478911 12.42804644 8.25 12.625 C7.36828125 12.74101563 6.4865625 12.85703125 5.578125 12.9765625 C2.77140122 13.00207817 1.36615134 12.44843844 -1 11 C-1.14285714 3.57142857 -1.14285714 3.57142857 0 0 Z " fill="#888370" transform="translate(45,36)"/>
<path d="M0 0 C5.28 0 10.56 0 16 0 C16 1.32 16 2.64 16 4 C14.67935547 4.09087891 14.67935547 4.09087891 13.33203125 4.18359375 C11.58986328 4.30927734 11.58986328 4.30927734 9.8125 4.4375 C8.66394531 4.51871094 7.51539063 4.59992187 6.33203125 4.68359375 C3.48401829 4.95403812 0.78789518 5.37521747 -2 6 C-1.34 4.02 -0.68 2.04 0 0 Z " fill="#6B6F7F" transform="translate(48,14)"/>
<path d="M0 0 C0.66 0.33 1.32 0.66 2 1 C1.67 1.33 1.34 1.66 1 2 C1.99 2.33 2.98 2.66 4 3 C4 2.34 4 1.68 4 1 C4.66 1 5.32 1 6 1 C6 1.99 6 2.98 6 4 C5.05125 4.0825 4.1025 4.165 3.125 4.25 C2.09375 4.4975 1.0625 4.745 0 5 C-0.309375 5.639375 -0.61875 6.27875 -0.9375 6.9375 C-1.288125 7.618125 -1.63875 8.29875 -2 9 C-4.33163378 9.67258667 -6.6652039 10.33847444 -9 11 C-11.20578622 12.51377486 -13.02927782 14.173477 -15 16 C-14.01 13.03 -13.02 10.06 -12 7 C-11.34 7.66 -10.68 8.32 -10 9 C-9.46375 8.071875 -8.9275 7.14375 -8.375 6.1875 C-5.80786001 2.74212791 -3.9923069 1.47541777 0 0 Z " fill="#E5AD6C" transform="translate(31,3)"/>
<path d="M0 0 C6.0546875 -0.1953125 6.0546875 -0.1953125 8 0 C10 2 10 2 10.125 4.625 C10.08375 5.40875 10.0425 6.1925 10 7 C8.54176788 7.0270043 7.08339325 7.04639787 5.625 7.0625 C4.81289063 7.07410156 4.00078125 7.08570312 3.1640625 7.09765625 C1 7 1 7 -1 6 C-0.67 4.02 -0.34 2.04 0 0 Z " fill="#A5A6A5" transform="translate(54,57)"/>
<path d="M0 0 C2.2734375 -0.23828125 2.2734375 -0.23828125 5 0 C6.9140625 1.64453125 6.9140625 1.64453125 8.625 3.8125 C10.65956195 6.33959166 12.65827796 8.75052762 15 11 C14.67 11.99 14.34 12.98 14 14 C13.34 14 12.68 14 12 14 C12 12.68 12 11.36 12 10 C9.36 9.67 6.72 9.34 4 9 C4.33 6.69 4.66 4.38 5 2 C4.34 2 3.68 2 3 2 C3 2.66 3 3.32 3 4 C1.68 3.67 0.36 3.34 -1 3 C-0.67 2.01 -0.34 1.02 0 0 Z " fill="#BE8C53" transform="translate(32,2)"/>
<path d="M0 0 C4.29 0 8.58 0 13 0 C13 3 13 3 11.46875 4.60546875 C10.8190625 5.12753906 10.169375 5.64960937 9.5 6.1875 C8.8503125 6.71730469 8.200625 7.24710937 7.53125 7.79296875 C7.0259375 8.19128906 6.520625 8.58960938 6 9 C4 7.25 4 7.25 2 5 C2 3.68 2 2.36 2 1 C1.34 0.67 0.68 0.34 0 0 Z " fill="#635D52" transform="translate(37,0)"/>
<path d="M0 0 C0 1.65 0 3.3 0 5 C-5.28 5 -10.56 5 -16 5 C-15.67 3.68 -15.34 2.36 -15 1 C-13.14375 1.0309375 -13.14375 1.0309375 -11.25 1.0625 C-7.36718126 1.069348 -3.83521477 0 0 0 Z " fill="#23211F" transform="translate(64,8)"/>
<path d="M0 0 C0.99 0.33 1.98 0.66 3 1 C2.01 2.485 2.01 2.485 1 4 C2.65 4.33 4.3 4.66 6 5 C4.68 5.33 3.36 5.66 2 6 C2.2784375 7.175625 2.2784375 7.175625 2.5625 8.375 C3 11 3 11 2 13 C2.66 13.33 3.32 13.66 4 14 C1.36 14 -1.28 14 -4 14 C-4 12.02 -4 10.04 -4 8 C-2.35 8 -0.7 8 1 8 C0.01 7.34 -0.98 6.68 -2 6 C-2.33 5.34 -2.66 4.68 -3 4 C-2.67 3.34 -2.34 2.68 -2 2 C-1.34 2 -0.68 2 0 2 C0 1.34 0 0.68 0 0 Z " fill="#817D70" transform="translate(51,50)"/>
<path d="M0 0 C3.375 -0.1875 3.375 -0.1875 7 0 C7.66 0.99 8.32 1.98 9 3 C9.66 3.33 10.32 3.66 11 4 C11 4.66 11 5.32 11 6 C7.9020403 7.54897985 4.73783448 6.83239539 1.375 6.5625 C0.66859375 6.51029297 -0.0378125 6.45808594 -0.765625 6.40429688 C-2.51079987 6.27458793 -4.25545725 6.13795046 -6 6 C-6 5.67 -6 5.34 -6 5 C-4.02 4.67 -2.04 4.34 0 4 C0 3.01 0 2.02 0 1 C0 0.67 0 0.34 0 0 Z " fill="#C57E41" transform="translate(29,7)"/>
<path d="M0 0 C-0.95117134 1.1725131 -1.91117009 2.33787015 -2.875 3.5 C-3.67550781 4.47453125 -3.67550781 4.47453125 -4.4921875 5.46875 C-4.98976563 5.9740625 -5.48734375 6.479375 -6 7 C-6.66 7 -7.32 7 -8 7 C-8.33 7.99 -8.66 8.98 -9 10 C-9.99 10.495 -9.99 10.495 -11 11 C-11.15149298 14.62885324 -11.15149298 14.62885324 -10 18 C-11.32 18.33 -12.64 18.66 -14 19 C-14.62440191 10.88277512 -14.62440191 10.88277512 -12.1875 7.4375 C-10 6 -10 6 -7 6 C-6.9175 5.21625 -6.835 4.4325 -6.75 3.625 C-6 1 -6 1 -4.0625 -0.375 C-2 -1 -2 -1 0 0 Z " fill="#D3D4CE" transform="translate(14,39)"/>
<path d="M0 0 C0.33 0.99 0.66 1.98 1 3 C2.65 3.33 4.3 3.66 6 4 C6 5.65 6 7.3 6 9 C3.27457733 10.36271133 1.03912726 10.16923601 -2 10.1875 C-3.0725 10.20167969 -4.145 10.21585938 -5.25 10.23046875 C-8 10 -8 10 -10 8 C-6.7 7.34 -3.4 6.68 0 6 C-0.66 5.67 -1.32 5.34 -2 5 C-1.34 3.35 -0.68 1.7 0 0 Z " fill="#925127" transform="translate(39,27)"/>
<path d="M0 0 C8.625 0.875 8.625 0.875 12 2 C10.18959679 3.33617897 8.3766216 4.66887384 6.5625 6 C5.55316406 6.7425 4.54382813 7.485 3.50390625 8.25 C1 10 1 10 0 10 C0 6.7 0 3.4 0 0 Z " fill="#A3A7A9" transform="translate(0,30)"/>
<path d="M0 0 C0.22304441 1.74818591 0.4278645 3.49870323 0.625 5.25 C0.74101563 6.22453125 0.85703125 7.1990625 0.9765625 8.203125 C1.00112537 11.13429393 0.5312717 12.54528964 -1 15 C-1.66 15 -2.32 15 -3 15 C-3.33 14.34 -3.66 13.68 -4 13 C-6.52733235 12.34444881 -6.52733235 12.34444881 -9 12 C-7.68 11.34 -6.36 10.68 -5 10 C-5 9.67 -5 9.34 -5 9 C-4.67619874 7.66431979 -4.34342449 6.33076989 -4 5 C-3.01 5.33 -2.02 5.66 -1 6 C-1 5.34 -1 4.68 -1 4 C-1.99 4 -2.98 4 -4 4 C-4 3.34 -4 2.68 -4 2 C-1 0 -1 0 0 0 Z " fill="#AF622A" transform="translate(44,41)"/>
<path d="M0 0 C-0.14308594 0.92232422 -0.14308594 0.92232422 -0.2890625 1.86328125 C-0.39992188 2.67152344 -0.51078125 3.47976562 -0.625 4.3125 C-0.74101562 5.11300781 -0.85703125 5.91351563 -0.9765625 6.73828125 C-1.21533407 9.28723215 -1.21533407 9.28723215 1 12 C-0.98 12 -2.96 12 -5 12 C-6.33691415 9.24752969 -7.01837615 7.39508723 -6.875 4.3125 C-6 2 -6 2 -4.0625 0.6875 C-2 0 -2 0 0 0 Z " fill="#3C3937" transform="translate(17,15)"/>
<path d="M0 0 C2 2 2 2 2 5 C2.99 5.33 3.98 5.66 5 6 C5 6.99 5 7.98 5 9 C3.02 9 1.04 9 -1 9 C-1 8.01 -1 7.02 -1 6 C-1.66 6 -2.32 6 -3 6 C-3 4.68 -3 3.36 -3 2 C-3.45375 2.495 -3.9075 2.99 -4.375 3.5 C-6 5 -6 5 -8 5 C-8 4.01 -8 3.02 -8 2 C-6.0085944 1.61866701 -4.00720923 1.28674418 -2 1 C-1.67 1.33 -1.34 1.66 -1 2 C-0.67 1.34 -0.34 0.68 0 0 Z " fill="#A6A5A2" transform="translate(13,55)"/>
<path d="M0 0 C0.66 0.33 1.32 0.66 2 1 C3.24317016 6.537758 3.60799077 12.78401846 1 18 C-0.32 18 -1.64 18 -3 18 C-2.34 16.68 -1.68 15.36 -1 14 C-1.66 13.67 -2.32 13.34 -3 13 C-3 9 -3 9 -1 7 C-0.59952556 4.67724823 -0.2602896 2.34260643 0 0 Z " fill="#A55725" transform="translate(21,32)"/>
<path d="M0 0 C2 2 2 2 2 6 C1.34 6 0.68 6 0 6 C-0.66 7.65 -1.32 9.3 -2 11 C-4.31 11.33 -6.62 11.66 -9 12 C-9 11.01 -9 10.02 -9 9 C-8.21625 8.773125 -7.4325 8.54625 -6.625 8.3125 C-3.78125 7.21875 -3.78125 7.21875 -2.6875 4.375 C-2.460625 3.59125 -2.23375 2.8075 -2 2 C-1.34 2 -0.68 2 0 2 C0 1.34 0 0.68 0 0 Z " fill="#96867A" transform="translate(39,21)"/>
<path d="M0 0 C0.268125 0.556875 0.53625 1.11375 0.8125 1.6875 C3.53577357 7.07195042 3.53577357 7.07195042 8 11 C5.69 10.67 3.38 10.34 1 10 C0.34 12.31 -0.32 14.62 -1 17 C-1.66 16.34 -2.32 15.68 -3 15 C-3 13.68 -3 12.36 -3 11 C-3.66 10.67 -4.32 10.34 -5 10 C-4.34 9.34 -3.68 8.68 -3 8 C-2.01 8 -1.02 8 0 8 C-0.185625 7.4225 -0.37125 6.845 -0.5625 6.25 C-1.04023546 3.79307475 -0.75729364 2.35602466 0 0 Z " fill="#673618" transform="translate(23,40)"/>
<path d="M0 0 C2.76223278 2.76223278 2.57856291 5.20706617 3 9 C0.33333333 9.66666667 -2.33333333 10.33333333 -5 11 C-5.33 10.01 -5.66 9.02 -6 8 C-4.1875 5.5 -4.1875 5.5 -2 3 C-1.34 2.01 -0.68 1.02 0 0 Z " fill="#E29753" transform="translate(19,28)"/>
<path d="M0 0 C0.99 1.485 0.99 1.485 2 3 C2.99 3 3.98 3 5 3 C8 8.75 8 8.75 8 11 C2.25 10.125 2.25 10.125 0 9 C0 6.03 0 3.06 0 0 Z " fill="#2E2D2D" transform="translate(3,15)"/>
<path d="M0 0 C5.75 1.875 5.75 1.875 8 3 C8 3.99 8 4.98 8 6 C6.68 6 5.36 6 4 6 C3.34 6.66 2.68 7.32 2 8 C0.2925002 6.71937515 -1.37373596 5.38232443 -3 4 C-3 3.34 -3 2.68 -3 2 C-2.01 2 -1.02 2 0 2 C0 1.34 0 0.68 0 0 Z " fill="#8C9198" transform="translate(53,35)"/>
<path d="M0 0 C0.33 0.99 0.66 1.98 1 3 C0.34 3 -0.32 3 -1 3 C-1.33 3.99 -1.66 4.98 -2 6 C-4.31 6 -6.62 6 -9 6 C-8.8125 4.125 -8.8125 4.125 -8 2 C-5.10888212 0.47835901 -3.28176588 0 0 0 Z " fill="#BFC0BE" transform="translate(28,58)"/>
<path d="M0 0 C0.66 0 1.32 0 2 0 C2.33 2.31 2.66 4.62 3 7 C3.66 7 4.32 7 5 7 C5.33 6.34 5.66 5.68 6 5 C6 5.99 6 6.98 6 8 C5.071875 8.12375 5.071875 8.12375 4.125 8.25 C1.81562433 8.81258459 1.81562433 8.81258459 0.75 11.0625 C0.5025 11.701875 0.255 12.34125 0 13 C0 12.01 0 11.02 0 10 C-1.32 9.67 -2.64 9.34 -4 9 C-3.01 8.67 -2.02 8.34 -1 8 C-0.67 5.36 -0.34 2.72 0 0 Z " fill="#685640" transform="translate(18,51)"/>
<path d="M0 0 C0 2.97 0 5.94 0 9 C-0.33 7.68 -0.66 6.36 -1 5 C-1.66 5 -2.32 5 -3 5 C-3.33 5.99 -3.66 6.98 -4 8 C-4.66 8 -5.32 8 -6 8 C-6 7.01 -6 6.02 -6 5 C-6.66 4.67 -7.32 4.34 -8 4 C-4.5 0 -4.5 0 0 0 Z " fill="#2B221A" transform="translate(64,19)"/>
<path d="M0 0 C0.66 0 1.32 0 2 0 C2 1.32 2 2.64 2 4 C2.66 4 3.32 4 4 4 C4 3.01 4 2.02 4 1 C9.94 1 15.88 1 22 1 C22 1.33 22 1.66 22 2 C16.72 2 11.44 2 6 2 C5.67 3.32 5.34 4.64 5 6 C4.67 6.66 4.34 7.32 4 8 C3.34 8 2.68 8 2 8 C1.34 5.36 0.68 2.72 0 0 Z " fill="#523D2E" transform="translate(42,12)"/>
<path d="M0 0 C2.97 0.33 5.94 0.66 9 1 C8.3125 3.4375 8.3125 3.4375 7 6 C4.375 6.8125 4.375 6.8125 2 7 C2.33 5.68 2.66 4.36 3 3 C1.68 3.33 0.36 3.66 -1 4 C-0.67 2.68 -0.34 1.36 0 0 Z " fill="#92908C" transform="translate(25,55)"/>
<path d="M0 0 C-0.309375 0.763125 -0.61875 1.52625 -0.9375 2.3125 C-1.67893593 4.18789677 -2.36228217 6.08684652 -3 8 C-3.66 8 -4.32 8 -5 8 C-5 7.34 -5 6.68 -5 6 C-6.32 5.67 -7.64 5.34 -9 5 C-6.81610567 0.16423399 -5.20641855 -0.13701101 0 0 Z " fill="#716759" transform="translate(16,50)"/>
<path d="M0 0 C0.33 0 0.66 0 1 0 C1.33 2.64 1.66 5.28 2 8 C-2.29 7.34 -6.58 6.68 -11 6 C-9.60804085 3.2160817 -7.84424221 3.02101003 -5 2 C-5 2.66 -5 3.32 -5 4 C-3.35 4 -1.7 4 0 4 C0 2.68 0 1.36 0 0 Z " fill="#454546" transform="translate(17,6)"/>
<path d="M0 0 C4.48507164 0.0645334 7.4588917 1.05697935 11.375 3.25 C12.8125 5.4375 12.8125 5.4375 13.375 7.25 C12.385 6.92 11.395 6.59 10.375 6.25 C10.375 6.91 10.375 7.57 10.375 8.25 C9.385 8.25 8.395 8.25 7.375 8.25 C7.045 6.6 6.715 4.95 6.375 3.25 C5.116875 3.105625 3.85875 2.96125 2.5625 2.8125 C-0.05167123 2.51251314 -2.09939892 2.09186703 -4.625 1.25 C-3.625 0.25 -3.625 0.25 0 0 Z " fill="#2C1C12" transform="translate(27.625,12.75)"/>
<path d="M0 0 C5.94 0 11.88 0 18 0 C18 0.33 18 0.66 18 1 C11.73 1.99 5.46 2.98 -1 4 C-0.67 2.68 -0.34 1.36 0 0 Z " fill="#C2C0AA" transform="translate(4,0)"/>
<path d="M0 0 C1.65 0.33 3.3 0.66 5 1 C5 1.99 5 2.98 5 4 C4.34 4 3.68 4 3 4 C3 6.31 3 8.62 3 11 C2.34 11 1.68 11 1 11 C0.63743142 9.5437328 0.28520207 8.08488815 -0.0625 6.625 C-0.35833984 5.40683594 -0.35833984 5.40683594 -0.66015625 4.1640625 C-1 2 -1 2 0 0 Z " fill="#BD8953" transform="translate(36,53)"/>
<path d="M0 0 C0.33 2.31 0.66 4.62 1 7 C0.01 7.33 -0.98 7.66 -2 8 C-2 6.68 -2 5.36 -2 4 C-3.32 3.67 -4.64 3.34 -6 3 C-6 2.01 -6 1.02 -6 0 C-3 -1 -3 -1 0 0 Z " fill="#7F7161" transform="translate(31,16)"/>
<path d="M0 0 C0.79921875 0.00902344 1.5984375 0.01804688 2.421875 0.02734375 C3.02515625 0.03894531 3.6284375 0.05054687 4.25 0.0625 C4.25 1.0525 4.25 2.0425 4.25 3.0625 C2.64679026 3.25801338 1.04237014 3.44361983 -0.5625 3.625 C-1.45582031 3.72941406 -2.34914063 3.83382813 -3.26953125 3.94140625 C-5.75 4.0625 -5.75 4.0625 -8.75 3.0625 C-8.75 2.4025 -8.75 1.7425 -8.75 1.0625 C-5.75519083 0.1901588 -3.11424089 -0.04579766 0 0 Z " fill="#7A7E8B" transform="translate(59.75,1.9375)"/>
<path d="M0 0 C0.33 0.99 0.66 1.98 1 3 C1.66 3.33 2.32 3.66 3 4 C0.69631264 5.06652192 -1.64018187 6.06421005 -4 7 C-4.66 6.67 -5.32 6.34 -6 6 C-5.625 3.5625 -5.625 3.5625 -5 1 C-3 0 -3 0 0 0 Z " fill="#DA8C49" transform="translate(39,46)"/>
<path d="M0 0 C2 3.75 2 3.75 2 6 C1.01 6 0.02 6 -1 6 C-1 6.99 -1 7.98 -1 9 C-1.99 9 -2.98 9 -4 9 C-4 6.69 -4 4.38 -4 2 C-2.68 1.34 -1.36 0.68 0 0 Z " fill="#987447" transform="translate(43,55)"/>
<path d="M0 0 C1.32 0 2.64 0 4 0 C4 0.66 4 1.32 4 2 C4.99 2.33 5.98 2.66 7 3 C5.8125 4.5625 5.8125 4.5625 4 6 C1.3125 5.6875 1.3125 5.6875 -1 5 C-1 2 -1 2 0 0 Z " fill="#212227" transform="translate(29,24)"/>
<path d="M0 0 C2.16874252 0.50603992 3.99967627 0.99983813 6 2 C5.67 4.31 5.34 6.62 5 9 C4.01 8.34 3.02 7.68 2 7 C1.8125 4.375 1.8125 4.375 2 2 C1.34 2 0.68 2 0 2 C-0.33 2.99 -0.66 3.98 -1 5 C-0.67 3.35 -0.34 1.7 0 0 Z " fill="#DDC5B0" transform="translate(25,39)"/>
<path d="M0 0 C2.3125 -0.25 2.3125 -0.25 5 0 C6.8125 1.8125 6.8125 1.8125 8 4 C8 4.99 8 5.98 8 7 C7.34 7 6.68 7 6 7 C6 7.66 6 8.32 6 9 C5.34 8.67 4.68 8.34 4 8 C4.33 6.02 4.66 4.04 5 2 C4.34 2 3.68 2 3 2 C3 2.66 3 3.32 3 4 C1.68 3.67 0.36 3.34 -1 3 C-0.67 2.01 -0.34 1.02 0 0 Z " fill="#D29352" transform="translate(32,2)"/>
<path d="M0 0 C3.3 0.33 6.6 0.66 10 1 C9 5 9 5 7 8 C6.34 7.67 5.68 7.34 5 7 C5 5.68 5 4.36 5 3 C3.35 2.67 1.7 2.34 0 2 C0 1.34 0 0.68 0 0 Z " fill="#C07C48" transform="translate(26,38)"/>
<path d="M0 0 C0.66 0 1.32 0 2 0 C2 3 2 3 0.46875 4.60546875 C-0.1809375 5.12753906 -0.830625 5.64960937 -1.5 6.1875 C-2.1496875 6.71730469 -2.799375 7.24710937 -3.46875 7.79296875 C-3.9740625 8.19128906 -4.479375 8.58960938 -5 9 C-5.66 8.34 -6.32 7.68 -7 7 C-6.625 4.875 -6.625 4.875 -6 3 C-5.38125 2.87625 -4.7625 2.7525 -4.125 2.625 C-1.80879168 2.12802644 -1.80879168 2.12802644 0 0 Z " fill="#5E5D5F" transform="translate(48,0)"/>
<path d="M0 0 C1.32 0 2.64 0 4 0 C3.67 3.3 3.34 6.6 3 10 C4.32 10.33 5.64 10.66 7 11 C5.35 11.33 3.7 11.66 2 12 C2 9.69 2 7.38 2 5 C1.34 5 0.68 5 0 5 C0 3.35 0 1.7 0 0 Z " fill="#7C593D" transform="translate(0,0)"/>
<path d="M0 0 C0 2.97 0 5.94 0 9 C-1.65 9 -3.3 9 -5 9 C-5 8.01 -5 7.02 -5 6 C-4.01 6 -3.02 6 -2 6 C-2.33 4.35 -2.66 2.7 -3 1 C-1 0 -1 0 0 0 Z " fill="#6D5D46" transform="translate(47,55)"/>
<path d="M0 0 C0.99 0.33 1.98 0.66 3 1 C2.34 1 1.68 1 1 1 C1 1.66 1 2.32 1 3 C1.61875 3.268125 2.2375 3.53625 2.875 3.8125 C5 5 5 5 7 8 C4.36 7.67 1.72 7.34 -1 7 C-0.67 4.69 -0.34 2.38 0 0 Z " fill="#9F9B8C" transform="translate(45,36)"/>
<path d="M0 0 C2.38564077 0.57584432 4.66682784 1.22227595 7 2 C7 3.98 7 5.96 7 8 C6.01 8.33 5.02 8.66 4 9 C4 7.35 4 5.7 4 4 C3.34 4 2.68 4 2 4 C2 3.01 2 2.02 2 1 C1.34 0.67 0.68 0.34 0 0 Z " fill="#AC9E89" transform="translate(22,18)"/>
<path d="M0 0 C0.99 0.66 1.98 1.32 3 2 C2.01 2.495 2.01 2.495 1 3 C0.84850702 6.62885324 0.84850702 6.62885324 2 10 C0.68 10.33 -0.64 10.66 -2 11 C-2.05399736 9.54207116 -2.09279177 8.08357288 -2.125 6.625 C-2.15980469 5.40683594 -2.15980469 5.40683594 -2.1953125 4.1640625 C-2 2 -2 2 0 0 Z " fill="#C7C9C4" transform="translate(2,47)"/>
<path d="M0 0 C0.66 0 1.32 0 2 0 C2 0.99 2 1.98 2 3 C2.66 3 3.32 3 4 3 C4.33 5.31 4.66 7.62 5 10 C2 9 2 9 0 6 C-0.125 2.8125 -0.125 2.8125 0 0 Z " fill="#D0CEC6" transform="translate(22,19)"/>
<path d="M0 0 C1.2065625 0.0309375 1.2065625 0.0309375 2.4375 0.0625 C1.1175 2.3725 -0.2025 4.6825 -1.5625 7.0625 C-2.5525 6.7325 -3.5425 6.4025 -4.5625 6.0625 C-3.48963568 0.08511307 -3.48963568 0.08511307 0 0 Z " fill="#91704E" transform="translate(22.5625,5.9375)"/>
<path d="M0 0 C0.33 0.66 0.66 1.32 1 2 C1.99 2.33 2.98 2.66 4 3 C3.1875 5.4375 3.1875 5.4375 2 8 C1.01 8.33 0.02 8.66 -1 9 C-1 8.01 -1 7.02 -1 6 C-1.0309375 4.700625 -1.0309375 4.700625 -1.0625 3.375 C-1 1 -1 1 0 0 Z " fill="#6A6150" transform="translate(45,46)"/>
<path d="M0 0 C0.99 0 1.98 0 3 0 C3 0.99 3 1.98 3 3 C2.01 3.495 2.01 3.495 1 4 C0.34786708 6.02463255 0.34786708 6.02463255 0 8 C0.99 8.33 1.98 8.66 3 9 C1.35 9 -0.3 9 -2 9 C-2.6875 7.3125 -2.6875 7.3125 -3 5 C-1.75 2.25 -1.75 2.25 0 0 Z " fill="#2B2A2D" transform="translate(47,27)"/>
<path d="M0 0 C0.66 0 1.32 0 2 0 C2.66 1.98 3.32 3.96 4 6 C4.99 6 5.98 6 7 6 C6.67 6.99 6.34 7.98 6 9 C4.125 8.6875 4.125 8.6875 2 8 C-0.1519437 4.77208445 -0.20086443 3.71599191 0 0 Z " fill="#C27D4C" transform="translate(25,41)"/>
<path d="M0 0 C0.99 0.33 1.98 0.66 3 1 C-2.445 4.96 -2.445 4.96 -8 9 C-8 8.01 -8 7.02 -8 6 C-6.35546875 4.359375 -6.35546875 4.359375 -4.1875 2.75 C-3.47980469 2.20859375 -2.77210937 1.6671875 -2.04296875 1.109375 C-1.36878906 0.74328125 -0.69460938 0.3771875 0 0 Z " fill="#CFD2CC" transform="translate(9,31)"/>
<path d="M0 0 C1.25541557 3.76624671 0.37061958 5.37188934 -1 9 C-1.66 8.67 -2.32 8.34 -3 8 C-3 5.69 -3 3.38 -3 1 C-2.01 0.67 -1.02 0.34 0 0 Z " fill="#4F4946" transform="translate(50,19)"/>
<path d="M0 0 C1.98 0.66 3.96 1.32 6 2 C6 2.66 6 3.32 6 4 C4.35 4.33 2.7 4.66 1 5 C1 5.66 1 6.32 1 7 C0.34 6.67 -0.32 6.34 -1 6 C-0.67 4.02 -0.34 2.04 0 0 Z " fill="#413E38" transform="translate(22,51)"/>
<path d="M0 0 C1.09054688 0.02320313 2.18109375 0.04640625 3.3046875 0.0703125 C4.40039062 0.08835937 5.49609375 0.10640625 6.625 0.125 C7.46804687 0.14820313 8.31109375 0.17140625 9.1796875 0.1953125 C5.17108499 2.86771417 2.64663611 3.38906043 -2.1328125 2.7578125 C-3.0196875 2.5721875 -3.9065625 2.3865625 -4.8203125 2.1953125 C-2.8203125 0.1953125 -2.8203125 0.1953125 0 0 Z " fill="#534E45" transform="translate(54.8203125,6.8046875)"/>
<path d="M0 0 C0.66 0.66 1.32 1.32 2 2 C1.67 2.99 1.34 3.98 1 5 C-1.5625 6.1875 -1.5625 6.1875 -4 7 C-4 5.68 -4 4.36 -4 3 C-2 1.25 -2 1.25 0 0 Z " fill="#D08144" transform="translate(19,36)"/>
<path d="M0 0 C2.97 0 5.94 0 9 0 C9.33 0.66 9.66 1.32 10 2 C6.7 2.33 3.4 2.66 0 3 C0 2.01 0 1.02 0 0 Z " fill="#090B0F" transform="translate(48,32)"/>
<path d="M0 0 C1.32 0 2.64 0 4 0 C4 1.98 4 3.96 4 6 C2.68 5.67 1.36 5.34 0 5 C-0.5625 3.0625 -0.5625 3.0625 -1 1 C-0.67 0.67 -0.34 0.34 0 0 Z " fill="#10100F" transform="translate(60,30)"/>
<path d="M0 0 C1.32 0.66 2.64 1.32 4 2 C3.67 2.99 3.34 3.98 3 5 C1.35 4.67 -0.3 4.34 -2 4 C-2.33 4.66 -2.66 5.32 -3 6 C-3.66 5.67 -4.32 5.34 -5 5 C-4.34 3.68 -3.68 2.36 -3 1 C-3 1.66 -3 2.32 -3 3 C-1.68 2.67 -0.36 2.34 1 2 C0.67 1.34 0.34 0.68 0 0 Z " fill="#767675" transform="translate(60,57)"/>
<path d="M0 0 C1.06546953 3.1964086 1.07427838 5.65747276 1 9 C-0.9375 8.6875 -0.9375 8.6875 -3 8 C-3.33 7.01 -3.66 6.02 -4 5 C-2.0625 2.3125 -2.0625 2.3125 0 0 Z " fill="#B3A99D" transform="translate(14,40)"/>
<path d="M0 0 C0 0.66 0 1.32 0 2 C-0.99 2 -1.98 2 -3 2 C-2.34 3.32 -1.68 4.64 -1 6 C-3.16874252 5.49396008 -4.99967627 5.00016187 -7 4 C-7 3.34 -7 2.68 -7 2 C-4.35261084 0.5393715 -3.10551666 0 0 0 Z " fill="#D3D6D1" transform="translate(53,35)"/>
<path d="M0 0 C0.66 0.99 1.32 1.98 2 3 C-0.05233685 5.2477975 -1.00667261 6.0022242 -4 7 C-3.6875 4.625 -3.6875 4.625 -3 2 C-2.01 1.34 -1.02 0.68 0 0 Z " fill="#ACAFB0" transform="translate(4,37)"/>
<path d="M0 0 C1.65 0 3.3 0 5 0 C5 0.99 5 1.98 5 3 C4.34 3 3.68 3 3 3 C2.34 4.32 1.68 5.64 1 7 C0.34 6.34 -0.32 5.68 -1 5 C-0.625 2.375 -0.625 2.375 0 0 Z " fill="#6F5A42" transform="translate(34,20)"/>
<path d="M0 0 C2.31 0 4.62 0 7 0 C6.1875 1.9375 6.1875 1.9375 5 4 C4.01 4.33 3.02 4.66 2 5 C2 4.34 2 3.68 2 3 C1.34 2.67 0.68 2.34 0 2 C0 1.34 0 0.68 0 0 Z " fill="#838483" transform="translate(2,53)"/>
<path d="M0 0 C0 2.97 0 5.94 0 9 C-0.33 8.34 -0.66 7.68 -1 7 C-2.32 7 -3.64 7 -5 7 C-4.67 6.34 -4.34 5.68 -4 5 C-3.01 5.33 -2.02 5.66 -1 6 C-1 5.34 -1 4.68 -1 4 C-1.99 4 -2.98 4 -4 4 C-4 3.34 -4 2.68 -4 2 C-1 0 -1 0 0 0 Z " fill="#A25925" transform="translate(44,41)"/>
<path d="M0 0 C1.4540625 0.0309375 1.4540625 0.0309375 2.9375 0.0625 C2.9375 0.7225 2.9375 1.3825 2.9375 2.0625 C0.6647325 3.55774178 -1.6304943 4.84649715 -4.0625 6.0625 C-4.105221 4.39638095 -4.10313832 2.72867115 -4.0625 1.0625 C-3.0625 0.0625 -3.0625 0.0625 0 0 Z " fill="#999C9D" transform="translate(4.0625,42.9375)"/>
<path d="M0 0 C0.66 0.33 1.32 0.66 2 1 C2.81309902 4.91765889 3.37553268 8.17907588 2 12 C0.68 11.67 -0.64 11.34 -2 11 C-1.34 10.34 -0.68 9.68 0 9 C0.24253813 6.78927023 0.24253813 6.78927023 0.125 4.375 C0.10695313 3.55773438 0.08890625 2.74046875 0.0703125 1.8984375 C0.04710937 1.27195313 0.02390625 0.64546875 0 0 Z " fill="#994A1E" transform="translate(21,32)"/>
<path d="M0 0 C-0.66 2.97 -1.32 5.94 -2 9 C-2.33 9 -2.66 9 -3 9 C-3 7.35 -3 5.7 -3 4 C-3.99 4.33 -4.98 4.66 -6 5 C-6 4.01 -6 3.02 -6 2 C-2.25 0 -2.25 0 0 0 Z " fill="#4B4847" transform="translate(17,15)"/>
<path d="M0 0 C0.66 0.33 1.32 0.66 2 1 C2 2.98 2 4.96 2 7 C-1.875 4.375 -1.875 4.375 -3 1 C-2.01 0.67 -1.02 0.34 0 0 Z " fill="#A7A699" transform="translate(62,52)"/>
<path d="M0 0 C1.98 0.66 3.96 1.32 6 2 C6.33 3.65 6.66 5.3 7 7 C5.82780457 6.21654285 4.66236332 5.42297164 3.5 4.625 C2.8503125 4.18414062 2.200625 3.74328125 1.53125 3.2890625 C1.0259375 2.86367188 0.520625 2.43828125 0 2 C0 1.34 0 0.68 0 0 Z " fill="#8C8876" transform="translate(57,42)"/>
<path d="M0 0 C2.66666667 0.66666667 5.33333333 1.33333333 8 2 C4.38026598 3.31626692 1.90432869 4 -2 4 C-1.34 2.68 -0.68 1.36 0 0 Z " fill="#533624" transform="translate(22,13)"/>
<path d="M0 0 C2.33944736 0.28730055 4.6739143 0.61936779 7 1 C7 1.66 7 2.32 7 3 C5.68 3 4.36 3 3 3 C2.34 3.66 1.68 4.32 1 5 C0.34 3.68 -0.32 2.36 -1 1 C-0.67 0.67 -0.34 0.34 0 0 Z " fill="#8C8B83" transform="translate(54,38)"/>
<path d="M0 0 C2.31 0 4.62 0 7 0 C7 0.99 7 1.98 7 3 C4 4 4 4 1 3 C0.67 2.01 0.34 1.02 0 0 Z " fill="#B2ADA3" transform="translate(7,35)"/>
<path d="M0 0 C0 0.66 0 1.32 0 2 C-2.31 2.33 -4.62 2.66 -7 3 C-7 2.01 -7 1.02 -7 0 C-4.3333581 -1.33332095 -2.83319697 -0.67102033 0 0 Z " fill="#04070B" transform="translate(7,25)"/>
<path d="M0 0 C0.99 0 1.98 0 3 0 C2.67 1.32 2.34 2.64 2 4 C0.68 4.33 -0.64 4.66 -2 5 C-1.34 3.35 -0.68 1.7 0 0 Z " fill="#555555" transform="translate(9,5)"/>
<path d="M0 0 C0 0.66 0 1.32 0 2 C0.66 2.33 1.32 2.66 2 3 C1.01 3 0.02 3 -1 3 C-1.33 2.67 -1.66 2.34 -2 2 C-3.98 2.99 -3.98 2.99 -6 4 C-6 3.01 -6 2.02 -6 1 C-4 0 -4 0 0 0 Z " fill="#B0B3B8" transform="translate(11,56)"/>
<path d="M0 0 C1.04005702 3.38018531 1.08004482 6.4780279 1 10 C-0.5625 8.875 -0.5625 8.875 -2 7 C-1.56521739 1.56521739 -1.56521739 1.56521739 0 0 Z " fill="#B5986C" transform="translate(16,50)"/>
<path d="M0 0 C0.99 0.33 1.98 0.66 3 1 C2.34 2.32 1.68 3.64 1 5 C-0.32 4.67 -1.64 4.34 -3 4 C-2.01 2.68 -1.02 1.36 0 0 Z " fill="#423120" transform="translate(13,50)"/>
<path d="M0 0 C2 2 2 2 2 6 C0.68 6 -0.64 6 -2 6 C-2 4.68 -2 3.36 -2 2 C-1.34 2 -0.68 2 0 2 C0 1.34 0 0.68 0 0 Z " fill="#9D876C" transform="translate(39,21)"/>
<path d="M0 0 C0.33 1.32 0.66 2.64 1 4 C-0.98 4 -2.96 4 -5 4 C-5.33 3.34 -5.66 2.68 -6 2 C-2.25 0 -2.25 0 0 0 Z " fill="#BA7138" transform="translate(42,12)"/>
<path d="M0 0 C3.3 0.66 6.6 1.32 10 2 C10 2.33 10 2.66 10 3 C6.37 3 2.74 3 -1 3 C-0.67 2.01 -0.34 1.02 0 0 Z " fill="#242120" transform="translate(49,9)"/>
<path d="M0 0 C0.66 0 1.32 0 2 0 C2 1.32 2 2.64 2 4 C2.66 4 3.32 4 4 4 C4 4.99 4 5.98 4 7 C1 6 1 6 -0.25 4.0625 C-0.4975 3.381875 -0.745 2.70125 -1 2 C-0.67 1.34 -0.34 0.68 0 0 Z " fill="#8E8F8F" transform="translate(8,57)"/>
<path d="M0 0 C2.64 0 5.28 0 8 0 C8 0.99 8 1.98 8 3 C5.125 3.1875 5.125 3.1875 2 3 C1.34 2.01 0.68 1.02 0 0 Z " fill="#8A9098" transform="translate(0,29)"/>
<path d="M0 0 C1.77706209 2.66559313 2.87548273 5.0280615 4 8 C3.34 8 2.68 8 2 8 C2 7.34 2 6.68 2 6 C1.01 5.67 0.02 5.34 -1 5 C-1.33 4.01 -1.66 3.02 -2 2 C-1.34 2 -0.68 2 0 2 C0 1.34 0 0.68 0 0 Z " fill="#6B2E14" transform="translate(18,19)"/>
<path d="M0 0 C1.32 0.66 2.64 1.32 4 2 C3.67 3.65 3.34 5.3 3 7 C1.68 5.35 0.36 3.7 -1 2 C-0.67 1.34 -0.34 0.68 0 0 Z " fill="#C67E41" transform="translate(40,15)"/>
</svg>
