<svg width="256" height="256" fill="none" xmlns="http://www.w3.org/2000/svg"><g clip-path="url(#a)"><path d="M128 256a128 128 0 1 0 0-256 128 128 0 0 0 0 256Z" fill="#000"/><path d="M41 68c-3 9 16 24 24 31 10 27 15 71 16 79 0 6 0 19 6 31 11 25 27 29 41 24 42-12 52-112 53-119 3-12 9-12 12-13 2-2 12-4 21-14 8-9 9-22 7-25s-9-10-20-12c-13-2-46 19-59 23-20-5-37 0-46 2-10-8-24-24-37-23-14 1-14 3-18 16Z" fill="#fff"/><path d="M118 228c-16 2-19-9-19-14-1-15 7-27 24-25 13 1 17 13 17 19-1 6-6 19-22 20Zm44-105c-8-19-20-9-25-1-12 24 7 28 18 26 4-1 11-8 7-25Zm-5-39c-2 2 2 4 4 4 2 5 4 3 6 1v-7c1-3 5-3 5-3l-1-2v-4h-4c0 2-4 2-6 2s-4 1-1 4c4 2 3 4 1 5h-4Z" fill="#000"/><ellipse cx="95.9" cy="130" rx="11.4" ry="13.1" fill="#000"/></g><defs><clipPath id="a"><path fill="#fff" d="M0 0h256v256H0z"/></clipPath></defs></svg>