<?xml version="1.0" encoding="UTF-8"?>
<svg version="1.1" xmlns="http://www.w3.org/2000/svg" width="64" height="64">
<path d="M0 0 C21.12 0 42.24 0 64 0 C64 21.12 64 42.24 64 64 C42.88 64 21.76 64 0 64 C0 42.88 0 21.76 0 0 Z " fill="#090F19" transform="translate(0,0)"/>
<path d="M0 0 C2.27467581 1.09677235 4.54454524 2.20198422 6.8125 3.3125 C7.45509766 3.62123047 8.09769531 3.92996094 8.75976562 4.24804688 C14.92310113 7.28181306 14.92310113 7.28181306 17 10 C18.825087 15.475261 18.60065426 21.30045849 18 27 C15.75 30.25 15.75 30.25 13 32 C12.360625 32.433125 11.72125 32.86625 11.0625 33.3125 C6.02565414 34.99144862 1.37953719 33.92942965 -3.375 31.875 C-6.5390625 30.01953125 -6.5390625 30.01953125 -9 27 C-10.56005175 19.83078922 -9.72261064 12.24185561 -9 5 C-6.36 5.33 -3.72 5.66 -1 6 C-1.99 5.01 -2.98 4.02 -4 3 C-2.66666667 3 -1.33333333 3 0 3 C0 2.01 0 1.02 0 0 Z " fill="#583E77" transform="translate(28,14)"/>
<path d="M0 0 C21.12 0 42.24 0 64 0 C64 21.12 64 42.24 64 64 C42.88 64 21.76 64 0 64 C0 42.88 0 21.76 0 0 Z M3.83837891 3.83837891 C1.08281355 8.5773658 1.28405379 12.85615869 1.3359375 18.25 C1.33115387 19.34086914 1.32637024 20.43173828 1.32144165 21.55566406 C1.31804387 23.85873865 1.32723757 26.16186155 1.34814453 28.46484375 C1.3749094 31.98807417 1.34838999 35.50811856 1.31640625 39.03125 C1.31971037 41.27084036 1.32611663 43.51042874 1.3359375 45.75 C1.32581635 46.80219727 1.31569519 47.85439453 1.30526733 48.93847656 C1.37691745 53.41420524 1.56216802 56.24702202 3.83837891 60.16162109 C8.5773658 62.91718645 12.85615869 62.71594621 18.25 62.6640625 C19.34086914 62.66884613 20.43173828 62.67362976 21.55566406 62.67855835 C23.85873865 62.68195613 26.16186155 62.67276243 28.46484375 62.65185547 C31.98807417 62.6250906 35.50811856 62.65161001 39.03125 62.68359375 C41.27084036 62.68028963 43.51042874 62.67388337 45.75 62.6640625 C46.80219727 62.67418365 47.85439453 62.68430481 48.93847656 62.69473267 C53.41420524 62.62308255 56.24702202 62.43783198 60.16162109 60.16162109 C62.91718645 55.4226342 62.71594621 51.14384131 62.6640625 45.75 C62.66884613 44.65913086 62.67362976 43.56826172 62.67855835 42.44433594 C62.68195613 40.14126135 62.67276243 37.83813845 62.65185547 35.53515625 C62.6250906 32.01192583 62.65161001 28.49188144 62.68359375 24.96875 C62.68028963 22.72915964 62.67388337 20.48957126 62.6640625 18.25 C62.67418365 17.19780273 62.68430481 16.14560547 62.69473267 15.06152344 C62.62308255 10.58579476 62.43783198 7.75297798 60.16162109 3.83837891 C55.4226342 1.08281355 51.14384131 1.28405379 45.75 1.3359375 C44.65913086 1.33115387 43.56826172 1.32637024 42.44433594 1.32144165 C40.14126135 1.31804387 37.83813845 1.32723757 35.53515625 1.34814453 C32.01192583 1.3749094 28.49188144 1.34838999 24.96875 1.31640625 C22.72915964 1.31971037 20.48957126 1.32611663 18.25 1.3359375 C17.19780273 1.32581635 16.14560547 1.31569519 15.06152344 1.30526733 C10.58579476 1.37691745 7.75297798 1.56216802 3.83837891 3.83837891 Z " fill="#DFC8A4" transform="translate(0,0)"/>
<path d="M0 0 C2.27467581 1.09677235 4.54454524 2.20198422 6.8125 3.3125 C7.45509766 3.62123047 8.09769531 3.92996094 8.75976562 4.24804688 C14.92310113 7.28181306 14.92310113 7.28181306 17 10 C18.16009247 13.48027742 18.20416521 16.33321643 18.25 20 C18.27578125 21.2375 18.3015625 22.475 18.328125 23.75 C18 27 18 27 16.484375 28.9375 C15.99453125 29.288125 15.5046875 29.63875 15 30 C14.97421875 28.81921875 14.9484375 27.6384375 14.921875 26.421875 C14.86558603 24.86454677 14.80823886 23.30725653 14.75 21.75 C14.73582031 20.97269531 14.72164062 20.19539063 14.70703125 19.39453125 C14.50650929 14.53383509 14.50650929 14.53383509 11.953125 10.453125 C11.30859375 9.97359375 10.6640625 9.4940625 10 9 C9.34 9.66 8.68 10.32 8 11 C7.484375 10.67 6.96875 10.34 6.4375 10 C3.35974576 8.55718425 3.35974576 8.55718425 -3 9 C-2.67 14.28 -2.34 19.56 -2 25 C-2.99 25 -3.98 25 -5 25 C-5.33 22.69 -5.66 20.38 -6 18 C-6.66 19.32 -7.32 20.64 -8 22 C-8 16.39 -8 10.78 -8 5 C-5.69 5.33 -3.38 5.66 -1 6 C-1.99 5.01 -2.98 4.02 -4 3 C-2.66666667 3 -1.33333333 3 0 3 C0 2.01 0 1.02 0 0 Z " fill="#DBB1AB" transform="translate(28,14)"/>
<path d="M0 0 C2.97 0 5.94 0 9 0 C9 21.12 9 42.24 9 64 C2.07 64 -4.86 64 -12 64 C-12 63.34 -12 62.68 -12 62 C-10.55367187 61.96132812 -10.55367187 61.96132812 -9.078125 61.921875 C-7.81484375 61.86515625 -6.5515625 61.8084375 -5.25 61.75 C-3.37054688 61.68039063 -3.37054688 61.68039063 -1.453125 61.609375 C1.92210718 61.23141632 1.92210718 61.23141632 4.18261719 59.66113281 C7.12093788 55.35864818 6.57010612 50.90168523 6.53125 45.8125 C6.53699036 44.17051636 6.53699036 44.17051636 6.54284668 42.49536133 C6.54556736 40.18211955 6.53819534 37.86884708 6.52148438 35.55566406 C6.5000784 32.01297478 6.52128226 28.47231364 6.546875 24.9296875 C6.54423175 22.68228719 6.53910684 20.43488813 6.53125 18.1875 C6.53934692 17.12700439 6.54744385 16.06650879 6.55578613 14.97387695 C6.59115096 9.33009229 6.59115096 9.33009229 4.15429688 4.42578125 C3.08791992 3.72001953 3.08791992 3.72001953 2 3 C1.01 2.34 0.02 1.68 -1 1 C-0.67 0.67 -0.34 0.34 0 0 Z " fill="#67E0F9" transform="translate(55,0)"/>
<path d="M0 0 C0.33 0 0.66 0 1 0 C1.0093457 0.61520508 1.01869141 1.23041016 1.02832031 1.86425781 C1.08211085 4.66031086 1.16573819 7.4547062 1.25 10.25 C1.26417969 11.21808594 1.27835937 12.18617187 1.29296875 13.18359375 C1.32519531 14.11816406 1.35742188 15.05273438 1.390625 16.015625 C1.4220459 17.30388184 1.4220459 17.30388184 1.45410156 18.61816406 C2.21581171 21.94161852 3.19826107 23.04827642 6 25 C8.87694498 25.41782599 11.38706996 25.60476278 14.265625 25.609375 C15.05902283 25.62591125 15.85242065 25.64244751 16.66986084 25.65948486 C19.19665269 25.70795616 21.72284281 25.72933287 24.25 25.75 C25.96617609 25.77816057 27.68232416 25.80808812 29.3984375 25.83984375 C33.59890878 25.91371436 37.7990462 25.96329387 42 26 C42 26.66 42 27.32 42 28 C27.81 28 13.62 28 -1 28 C-1.020625 23.565625 -1.04125 19.13125 -1.0625 14.5625 C-1.071604 13.16201416 -1.08070801 11.76152832 -1.09008789 10.31860352 C-1.09258545 9.22475342 -1.09508301 8.13090332 -1.09765625 7.00390625 C-1.10289307 5.87799072 -1.10812988 4.7520752 -1.11352539 3.59204102 C-1 1 -1 1 0 0 Z " fill="#C65DAF" transform="translate(1,36)"/>
<path d="M0 0 C5.94555519 2.08897885 5.94555519 2.08897885 8 5 C8.29296875 7.48046875 8.29296875 7.48046875 8.1875 10.1875 C8.16042969 11.08855469 8.13335937 11.98960938 8.10546875 12.91796875 C8.07066406 13.60503906 8.03585938 14.29210938 8 15 C5.0280615 13.87548273 2.66559313 12.77706209 0 11 C-0.29296875 8.3984375 -0.29296875 8.3984375 -0.1875 5.375 C-0.16042969 4.37210938 -0.13335938 3.36921875 -0.10546875 2.3359375 C-0.07066406 1.56507812 -0.03585938 0.79421875 0 0 Z " fill="#0A0D1C" transform="translate(28,25)"/>
<path d="M0 0 C1.278954 0.54378329 2.5479371 1.1110416 3.8125 1.6875 C4.87404297 2.15736328 4.87404297 2.15736328 5.95703125 2.63671875 C8.67179837 4.44829375 9.65910135 6.02345407 11 9 C11.3984375 12.4453125 11.3984375 12.4453125 11.375 16.125 C11.38273437 17.34445313 11.39046875 18.56390625 11.3984375 19.8203125 C11 23 11 23 9.4765625 24.9296875 C8.98929688 25.28289063 8.50203125 25.63609375 8 26 C7.98582031 24.83082031 7.97164062 23.66164063 7.95703125 22.45703125 C7.91011562 20.90881543 7.86186831 19.36063956 7.8125 17.8125 C7.80669922 17.04357422 7.80089844 16.27464844 7.79492188 15.48242188 C7.62892455 11.18493559 7.37806097 9.46572728 4.57421875 6.01171875 C2.19337747 4.0140313 2.19337747 4.0140313 0 3 C0 2.01 0 1.02 0 0 Z " fill="#75D2F4" transform="translate(35,18)"/>
<path d="M0 0 C3.94551269 1.27962574 5.96105231 2.34886111 8 6 C8.21326685 8.6729445 8.28545631 11.0926212 8.1875 13.75 C8.17396484 14.44738281 8.16042969 15.14476562 8.14648438 15.86328125 C8.1112945 17.57585541 8.05749155 19.28802941 8 21 C4.30581799 19.768606 2.64890254 17.79208646 0 15 C2.475 15.495 2.475 15.495 5 16 C4.75965787 9.81119027 4.58715582 5.58715582 0 1 C0 0.67 0 0.34 0 0 Z " fill="#8184F4" transform="translate(31,24)"/>
<path d="M0 0 C0.33 0 0.66 0 1 0 C1.33 4.29 1.66 8.58 2 13 C2.33 9.37 2.66 5.74 3 2 C3.33 2 3.66 2 4 2 C4.06058594 3.25296875 4.12117188 4.5059375 4.18359375 5.796875 C4.26802256 7.44792724 4.35266939 9.09896835 4.4375 10.75 C4.47681641 11.575 4.51613281 12.4 4.55664062 13.25 C4.59853516 14.04921875 4.64042969 14.8484375 4.68359375 15.671875 C4.72025146 16.4050293 4.75690918 17.13818359 4.79467773 17.89355469 C5.00114785 20.01177605 5.43132086 21.9519456 6 24 C1.125 23.125 1.125 23.125 0 22 C-0.08700342 20.36527118 -0.10701063 18.72685945 -0.09765625 17.08984375 C-0.09443359 16.10048828 -0.09121094 15.11113281 -0.08789062 14.09179688 C-0.07951172 13.05087891 -0.07113281 12.00996094 -0.0625 10.9375 C-0.05798828 9.89271484 -0.05347656 8.84792969 -0.04882812 7.77148438 C-0.03699913 5.1809334 -0.02051689 2.59049441 0 0 Z " fill="#8C5E66" transform="translate(19,19)"/>
<path d="M0 0 C0.66 0 1.32 0 2 0 C2.33 2.31 2.66 4.62 3 7 C-3.93 7 -10.86 7 -18 7 C-18 6.34 -18 5.68 -18 5 C-17.03578125 4.97421875 -16.0715625 4.9484375 -15.078125 4.921875 C-13.81484375 4.86515625 -12.5515625 4.8084375 -11.25 4.75 C-9.99703125 4.70359375 -8.7440625 4.6571875 -7.453125 4.609375 C-3.54644809 3.91996143 -2.51578272 2.9389985 0 0 Z " fill="#73AEFB" transform="translate(61,57)"/>
<path d="M0 0 C2.9375 1.25 2.9375 1.25 6 3 C6.875 5.1875 6.875 5.1875 7 7 C7.66 7 8.32 7 9 7 C9.33 7.99 9.66 8.98 10 10 C8 11 8 11 6.1953125 10.6171875 C1.46426206 8.92115055 -1.17033338 7.36240271 -4 3 C-2.66666667 3 -1.33333333 3 0 3 C0 2.01 0 1.02 0 0 Z " fill="#9B849B" transform="translate(28,14)"/>
<path d="M0 0 C1.98 0.99 1.98 0.99 4 2 C4 7.94 4 13.88 4 20 C3.34 20 2.68 20 2 20 C1.93941406 18.97519531 1.87882812 17.95039062 1.81640625 16.89453125 C1.73194974 15.53384305 1.64730433 14.17316657 1.5625 12.8125 C1.52318359 12.13896484 1.48386719 11.46542969 1.44335938 10.77148438 C1.21072435 7.10300898 0.82792989 3.58305794 0 0 Z " fill="#79AEF7" transform="translate(38,25)"/>
<path d="M0 0 C4.60428934 1.31551124 8.18320388 3.09196486 12 6 C12 6.66 12 7.32 12 8 C6.92387682 8.61528766 4.17017994 6.61658349 0 4 C0 2.68 0 1.36 0 0 Z " fill="#612572" transform="translate(24,40)"/>
<path d="M0 0 C2.97 0 5.94 0 9 0 C8.67 2.97 8.34 5.94 8 9 C7.443125 8.21625 6.88625 7.4325 6.3125 6.625 C3.92331435 3.91295142 2.39926587 3.03866457 -1 2 C-0.67 1.34 -0.34 0.68 0 0 Z " fill="#87D1DB" transform="translate(55,0)"/>
<path d="M0 0 C1.32 0 2.64 0 4 0 C4 0.66 4 1.32 4 2 C3.34 2 2.68 2 2 2 C2.02320313 2.74765625 2.04640625 3.4953125 2.0703125 4.265625 C2.08835937 5.25046875 2.10640625 6.2353125 2.125 7.25 C2.14820313 8.22453125 2.17140625 9.1990625 2.1953125 10.203125 C2 13 2 13 0 17 C0 11.39 0 5.78 0 0 Z " fill="#F2C3A0" transform="translate(20,19)"/>
<path d="M0 0 C3.65316671 1.24976756 4.78065836 1.67098753 7 5 C6.9765625 7.69921875 6.9765625 7.69921875 6.625 10.6875 C6.51414062 11.68136719 6.40328125 12.67523438 6.2890625 13.69921875 C6.19367187 14.45847656 6.09828125 15.21773437 6 16 C5.67 16 5.34 16 5 16 C4.97421875 15.33613281 4.9484375 14.67226563 4.921875 13.98828125 C4.56357587 8.41021532 4.11546932 5.11546932 0 1 C0 0.67 0 0.34 0 0 Z " fill="#9283D6" transform="translate(31,24)"/>
<path d="M0 0 C1.29640378 0.59393382 2.58698839 1.20057989 3.875 1.8125 C4.59429687 2.14894531 5.31359375 2.48539063 6.0546875 2.83203125 C8 4 8 4 10 7 C9.01 7.495 9.01 7.495 8 8 C6.0546875 7.109375 6.0546875 7.109375 3.875 5.75 C3.15054688 5.31171875 2.42609375 4.8734375 1.6796875 4.421875 C1.12539063 3.95265625 0.57109375 3.4834375 0 3 C0 2.01 0 1.02 0 0 Z " fill="#8BACD5" transform="translate(35,18)"/>
<path d="M0 0 C0.66 0 1.32 0 2 0 C2.33 2.64 2.66 5.28 3 8 C2.01 8 1.02 8 0 8 C0 5.36 0 2.72 0 0 Z " fill="#C47B9F" transform="translate(23,31)"/>
<path d="M0 0 C0.33 1.32 0.66 2.64 1 4 C-0.98 4 -2.96 4 -5 4 C-5.33 3.34 -5.66 2.68 -6 2 C-4.02 1.34 -2.04 0.68 0 0 Z " fill="#73B5F8" transform="translate(59,60)"/>
<path d="M0 0 C1.98 0 3.96 0 6 0 C6.33 0.99 6.66 1.98 7 3 C4.625 3.1875 4.625 3.1875 2 3 C1.34 2.01 0.68 1.02 0 0 Z " fill="#6B34BF" transform="translate(29,45)"/>
<path d="M0 0 C1.98 0.99 3.96 1.98 6 3 C6 3.66 6 4.32 6 5 C2.73045798 4.43628586 1.17424117 3.50037734 -1 1 C-0.67 0.67 -0.34 0.34 0 0 Z " fill="#C5A9AC" transform="translate(28,14)"/>
</svg>
