<?xml version="1.0" encoding="UTF-8"?>
<svg version="1.1" xmlns="http://www.w3.org/2000/svg" width="200" height="200">
<path d="M0 0 C2.82045877 2.30263418 5.56336058 4.67903285 8.27832031 7.10449219 C11.1535235 9.666713 11.1535235 9.666713 14.50878906 11.77246094 C17.18066406 13.58496094 17.18066406 13.58496094 17.86816406 15.77246094 C18.02285156 16.66964844 18.02285156 16.66964844 18.18066406 17.58496094 C19.17066406 17.91496094 20.16066406 18.24496094 21.18066406 18.58496094 C21.51066406 19.57496094 21.84066406 20.56496094 22.18066406 21.58496094 C22.78394531 22.1740625 23.38722656 22.76316406 24.00878906 23.37011719 C26.61161449 26.02443736 28.16331475 28.75588582 29.93066406 32.02246094 C30.85105469 33.69115234 30.85105469 33.69115234 31.79003906 35.39355469 C33.13514811 38.48050439 33.50200878 40.27881822 33.18066406 43.58496094 C33.84066406 43.58496094 34.50066406 43.58496094 35.18066406 43.58496094 C39.64424539 56.0781479 40.85665551 67.12735329 40.55566406 80.33496094 C40.53909422 82.04587815 40.52476266 83.75681854 40.51269531 85.46777344 C40.3702832 98.68935945 40.3702832 98.68935945 39.18066406 103.58496094 C38.52066406 103.58496094 37.86066406 103.58496094 37.18066406 103.58496094 C37.18066406 105.89496094 37.18066406 108.20496094 37.18066406 110.58496094 C36.52066406 110.58496094 35.86066406 110.58496094 35.18066406 110.58496094 C34.52066406 113.88496094 33.86066406 117.18496094 33.18066406 120.58496094 C32.52066406 120.58496094 31.86066406 120.58496094 31.18066406 120.58496094 C31.10589844 121.42542969 31.03113281 122.26589844 30.95410156 123.13183594 C30.00301116 127.37811833 28.20111083 130.25695184 25.80566406 133.83496094 C25.40605469 134.45886719 25.00644531 135.08277344 24.59472656 135.72558594 C22.64505024 138.70140769 21.175244 140.58857431 18.18066406 142.58496094 C17.87128906 143.24496094 17.56191406 143.90496094 17.24316406 144.58496094 C16.18066406 146.58496094 16.18066406 146.58496094 14.29394531 147.52246094 C12.05773456 148.64676653 10.95666201 149.72870379 9.30566406 151.58496094 C-7.5531495 168.76523493 -31.7922615 178.47350042 -55.67724609 178.87768555 C-83.14890277 179.03784131 -105.50892955 171.73865683 -126.31811523 153.40429688 C-129.3378039 150.75277047 -132.36813316 148.62599484 -135.81933594 146.58496094 C-136.52084746 145.26962683 -137.18459519 143.93378502 -137.81933594 142.58496094 C-139.08777344 141.37839844 -139.08777344 141.37839844 -140.38183594 140.14746094 C-142.93144067 137.46710724 -143.50996572 136.19428011 -143.81933594 132.58496094 C-144.80933594 132.25496094 -145.79933594 131.92496094 -146.81933594 131.58496094 C-150.62798259 125.57828936 -153.21756631 119.65575401 -153.81933594 112.58496094 C-154.47933594 111.59496094 -155.13933594 110.60496094 -155.81933594 109.58496094 C-156.19144014 108.26192377 -156.52563767 106.92758159 -156.81933594 105.58496094 C-157.14933594 104.59496094 -157.47933594 103.60496094 -157.81933594 102.58496094 C-158.14933594 102.58496094 -158.47933594 102.58496094 -158.81933594 102.58496094 C-158.87027326 96.32278946 -158.90516878 90.06067193 -158.92919922 83.79833984 C-158.93922299 81.67038984 -158.95284555 79.5424535 -158.97021484 77.41455078 C-158.99462286 74.34631976 -159.00585555 71.27827173 -159.01464844 68.20996094 C-159.02497101 67.26693115 -159.03529358 66.32390137 -159.04592896 65.35229492 C-159.04686971 59.74541582 -158.41278806 54.96630789 -156.81933594 49.58496094 C-156.15933594 49.58496094 -155.49933594 49.58496094 -154.81933594 49.58496094 C-154.69816406 48.88628906 -154.57699219 48.18761719 -154.45214844 47.46777344 C-154.28457031 46.55769531 -154.11699219 45.64761719 -153.94433594 44.70996094 C-153.78191406 43.80503906 -153.61949219 42.90011719 -153.45214844 41.96777344 C-152.81933594 39.58496094 -152.81933594 39.58496094 -150.81933594 37.58496094 C-149.71378412 35.63398714 -148.89319267 33.94732054 -148.44433594 31.74511719 C-147.67559861 29.08816878 -146.42875814 27.18569548 -144.88183594 24.89746094 C-144.3571875 24.10984375 -143.83253906 23.32222656 -143.29199219 22.51074219 C-141.81933594 20.58496094 -141.81933594 20.58496094 -139.81933594 19.58496094 C-139.48933594 18.59496094 -139.15933594 17.60496094 -138.81933594 16.58496094 C-138.25988281 16.318125 -137.70042969 16.05128906 -137.12402344 15.77636719 C-133.75454168 14.03451645 -131.50732154 11.25605376 -128.94433594 8.52246094 C-95.59880991 -25.77011212 -37.69548479 -29.31871039 0 0 Z M34.18066406 46.58496094 C35.18066406 48.58496094 35.18066406 48.58496094 35.18066406 48.58496094 Z M35.18066406 49.58496094 C36.18066406 51.58496094 36.18066406 51.58496094 36.18066406 51.58496094 Z M36.18066406 52.58496094 C37.18066406 55.58496094 37.18066406 55.58496094 37.18066406 55.58496094 Z M-156.81933594 53.58496094 C-155.81933594 56.58496094 -155.81933594 56.58496094 -155.81933594 56.58496094 Z M37.18066406 56.58496094 C38.18066406 59.58496094 38.18066406 59.58496094 38.18066406 59.58496094 Z M-157.81933594 57.58496094 C-156.81933594 61.58496094 -156.81933594 61.58496094 -156.81933594 61.58496094 Z M38.18066406 60.58496094 C38.18066406 62.23496094 38.18066406 63.88496094 38.18066406 65.58496094 C38.51066406 65.58496094 38.84066406 65.58496094 39.18066406 65.58496094 C39.18066406 63.93496094 39.18066406 62.28496094 39.18066406 60.58496094 C38.85066406 60.58496094 38.52066406 60.58496094 38.18066406 60.58496094 Z M38.18066406 93.58496094 C38.18066406 95.23496094 38.18066406 96.88496094 38.18066406 98.58496094 C38.51066406 98.58496094 38.84066406 98.58496094 39.18066406 98.58496094 C39.18066406 96.93496094 39.18066406 95.28496094 39.18066406 93.58496094 C38.85066406 93.58496094 38.52066406 93.58496094 38.18066406 93.58496094 Z " fill="#FFFFFF" transform="translate(158.8193359375,19.4150390625)"/>
<path d="M0 0 C1.01578125 0.46792969 2.0315625 0.93585937 3.078125 1.41796875 C25.49386676 12.84999705 41.05032845 31.38566199 49 55 C49.495 56.98 49.495 56.98 50 59 C27.89 59.33 5.78 59.66 -17 60 C-17 62.64 -17 65.28 -17 68 C17.155 68.495 17.155 68.495 52 69 C52.76349973 73.58099836 53.1350512 77.41665449 53.125 82 C53.12886719 83.7634375 53.12886719 83.7634375 53.1328125 85.5625 C53 89 53 89 52 95 C29.23 95.33 6.46 95.66 -17 96 C-17 98.64 -17 101.28 -17 104 C16.165 104.495 16.165 104.495 50 105 C41.70377395 129.88867815 27.8368691 149.90861699 4.11962891 161.95507812 C-2.00698279 164.89992237 -8.10935758 167.79915168 -15 168 C-18.17578125 166.4453125 -18.17578125 166.4453125 -21.3125 164.125 C-21.8686499 163.71950928 -22.4247998 163.31401855 -22.99780273 162.89624023 C-27.55621242 159.50859461 -31.77461361 155.77199677 -35.87890625 151.84765625 C-37.86500783 150.11758987 -39.65022718 149.13366233 -42 148 C-42.68486725 146.67592331 -43.34870203 145.34090759 -44 144 C-45.2684375 142.7934375 -45.2684375 142.7934375 -46.5625 141.5625 C-49.11210474 138.8821463 -49.69062979 137.60931917 -50 134 C-50.99 133.67 -51.98 133.34 -53 133 C-56.80864665 126.99332842 -59.39823038 121.07079307 -60 114 C-60.66 113.01 -61.32 112.02 -62 111 C-62.3721042 109.67696283 -62.70630173 108.34262065 -63 107 C-63.33 106.01 -63.66 105.02 -64 104 C-64.33 104 -64.66 104 -65 104 C-65.05093732 97.73782852 -65.08583284 91.47571099 -65.10986328 85.21337891 C-65.11988705 83.08542891 -65.13350961 80.95749256 -65.15087891 78.82958984 C-65.17528692 75.76135882 -65.18651961 72.6933108 -65.1953125 69.625 C-65.20563507 68.68197021 -65.21595764 67.73894043 -65.22659302 66.76733398 C-65.22753377 61.16045488 -64.59345212 56.38134696 -63 51 C-62.34 51 -61.68 51 -61 51 C-60.87882812 50.30132812 -60.75765625 49.60265625 -60.6328125 48.8828125 C-60.46523438 47.97273438 -60.29765625 47.06265625 -60.125 46.125 C-59.96257813 45.22007813 -59.80015625 44.31515625 -59.6328125 43.3828125 C-59 41 -59 41 -57 39 C-55.89444818 37.0490262 -55.07385673 35.3623596 -54.625 33.16015625 C-53.85626267 30.50320785 -52.6094222 28.60073455 -51.0625 26.3125 C-50.53785156 25.52488281 -50.01320313 24.73726562 -49.47265625 23.92578125 C-48 22 -48 22 -46 21 C-45.67 20.01 -45.34 19.02 -45 18 C-44.443125 17.73445313 -43.88625 17.46890625 -43.3125 17.1953125 C-39.90450365 15.43374682 -37.60588464 12.62813829 -35 9.875 C-32.69498323 7.55346098 -30.35760926 5.26804569 -28 3 C-27.49903809 2.51402344 -26.99807617 2.02804688 -26.48193359 1.52734375 C-17.4126669 -6.91719911 -10.20283325 -4.79166852 0 0 Z M-63 55 C-62 58 -62 58 -62 58 Z M-64 59 C-63 63 -63 63 -63 63 Z " fill="#FFFFFF" transform="translate(65,18)"/>
<path d="M0 0 C8.65842473 4.52422193 15.47176763 10.30631573 22.29296875 17.21484375 C23.10636719 18.02953125 23.91976562 18.84421875 24.7578125 19.68359375 C34.82737987 30.28676212 43.00820939 43.63392491 45.29296875 58.21484375 C46.06487549 58.20437012 46.83678223 58.19389648 47.63208008 58.18310547 C51.12317663 58.14157921 54.61422124 58.11552818 58.10546875 58.08984375 C59.32041016 58.07308594 60.53535156 58.05632812 61.78710938 58.0390625 C62.95048828 58.03261719 64.11386719 58.02617188 65.3125 58.01953125 C66.92282104 58.0038208 66.92282104 58.0038208 68.56567383 57.98779297 C71.29296875 58.21484375 71.29296875 58.21484375 74.29296875 60.21484375 C74.66796875 63.21484375 74.66796875 63.21484375 74.29296875 66.21484375 C70.89399202 68.48082823 69.72977702 68.45227029 65.75 68.41015625 C64.67685547 68.40371094 63.60371094 68.39726563 62.49804688 68.390625 C60.8187207 68.36548828 60.8187207 68.36548828 59.10546875 68.33984375 C57.40874023 68.32630859 57.40874023 68.32630859 55.67773438 68.3125 C52.88260047 68.28891237 50.0878903 68.25599675 47.29296875 68.21484375 C47.62296875 68.87484375 47.95296875 69.53484375 48.29296875 70.21484375 C48.38899188 71.85846987 48.42371436 73.50591641 48.42578125 75.15234375 C48.42707031 76.12945312 48.42835938 77.1065625 48.4296875 78.11328125 C48.42582031 79.13679688 48.42195313 80.1603125 48.41796875 81.21484375 C48.42183594 82.23835938 48.42570312 83.261875 48.4296875 84.31640625 C48.42839844 85.29351562 48.42710937 86.270625 48.42578125 87.27734375 C48.42465332 88.17582031 48.42352539 89.07429688 48.42236328 90 C48.29296875 92.21484375 48.29296875 92.21484375 47.29296875 94.21484375 C48.00428955 94.20437012 48.71561035 94.19389648 49.44848633 94.18310547 C52.66744461 94.14156374 55.88634651 94.11552336 59.10546875 94.08984375 C60.22501953 94.07308594 61.34457031 94.05632812 62.49804688 94.0390625 C63.57119141 94.03261719 64.64433594 94.02617188 65.75 94.01953125 C67.23463745 94.0038208 67.23463745 94.0038208 68.74926758 93.98779297 C71.29296875 94.21484375 71.29296875 94.21484375 74.29296875 96.21484375 C74.66796875 99.21484375 74.66796875 99.21484375 74.29296875 102.21484375 C70.79960057 104.54375587 69.4328901 104.45035518 65.3125 104.41015625 C64.14912109 104.40371094 62.98574219 104.39726563 61.78710938 104.390625 C60.57216797 104.37386719 59.35722656 104.35710937 58.10546875 104.33984375 C56.87892578 104.33082031 55.65238281 104.32179688 54.38867188 104.3125 C51.3565758 104.28890392 48.32486937 104.25598216 45.29296875 104.21484375 C45.1384021 105.05341919 45.1384021 105.05341919 44.98071289 105.90893555 C43.88362208 111.37596077 42.28094014 116.07818513 39.73046875 121.02734375 C39.37823242 121.71602539 39.02599609 122.40470703 38.66308594 123.11425781 C26.55579048 146.10211836 7.06172924 161.43147821 -17.39453125 169.52734375 C-23.92118774 171.42966306 -28.76004253 172.47783892 -35.20703125 169.71484375 C-36.44453125 168.97234375 -36.44453125 168.97234375 -37.70703125 168.21484375 C-36.08000543 164.96079211 -32.54358715 164.5918327 -29.26953125 163.46484375 C-8.70961961 156.05162198 8.76309067 140.96129232 18.29980469 121.12011719 C20.58396388 115.92093578 22.49757147 110.60103559 24.29296875 105.21484375 C23.10026619 105.20604439 23.10026619 105.20604439 21.88346863 105.19706726 C14.39367279 105.13918723 6.90421142 105.06713817 -0.58528614 104.97912884 C-4.43582381 104.93438204 -8.28625463 104.89513577 -12.13696289 104.8684082 C-15.8524469 104.84241768 -19.56752065 104.8020464 -23.28275108 104.75165749 C-24.70088286 104.73495979 -26.11908564 104.72346358 -27.53730202 104.71722984 C-29.52213365 104.70762121 -31.50683707 104.67788091 -33.49145508 104.6472168 C-34.62174637 104.63611374 -35.75203766 104.62501068 -36.9165802 104.61357117 C-39.70703125 104.21484375 -39.70703125 104.21484375 -41.60722351 102.88313293 C-42.70703125 101.21484375 -42.70703125 101.21484375 -42.51953125 98.08984375 C-42.25140625 97.14109375 -41.98328125 96.19234375 -41.70703125 95.21484375 C-38.87308738 93.79787182 -36.49829387 94.09538446 -33.32958984 94.10131836 C-32.67580856 94.10117233 -32.02202728 94.10102631 -31.34843445 94.10087585 C-29.18407898 94.10157339 -27.01980921 94.10935835 -24.85546875 94.1171875 C-23.35617113 94.11905224 -21.85687291 94.12047588 -20.35757446 94.12147522 C-16.40871503 94.12529596 -12.45989229 94.13512247 -8.51104736 94.1461792 C-4.48263038 94.15640284 -0.45420747 94.16097488 3.57421875 94.16601562 C11.48048748 94.17674513 19.38671932 94.19433835 27.29296875 94.21484375 C27.29296875 85.63484375 27.29296875 77.05484375 27.29296875 68.21484375 C25.27905029 68.2305542 23.26513184 68.24626465 21.19018555 68.26245117 C14.54059172 68.31213217 7.89098975 68.34528672 1.24125957 68.37028027 C-2.79100158 68.38594477 -6.82307278 68.40719705 -10.85522461 68.44116211 C-14.74557045 68.47372804 -18.63573345 68.49169086 -22.52620506 68.49947548 C-24.01140408 68.50502401 -25.49659295 68.51585886 -26.98171425 68.53203392 C-29.06005197 68.55377226 -31.13763157 68.55681231 -33.21606445 68.55541992 C-34.39965042 68.56208176 -35.58323639 68.56874359 -36.8026886 68.5756073 C-39.70703125 68.21484375 -39.70703125 68.21484375 -41.62443542 66.88887024 C-42.70703125 65.21484375 -42.70703125 65.21484375 -42.51953125 62.08984375 C-42.25140625 61.14109375 -41.98328125 60.19234375 -41.70703125 59.21484375 C-38.95109987 57.83687806 -36.68923311 58.05185436 -33.60498047 58.00952148 C-32.32380341 57.98957626 -31.04262634 57.96963104 -29.72262573 57.94908142 C-28.31899131 57.93209706 -26.91535562 57.91521826 -25.51171875 57.8984375 C-24.07967528 57.87786835 -22.64763788 57.85687189 -21.21560669 57.83546448 C-17.44436562 57.78023972 -13.67306973 57.73083228 -9.9017334 57.68261719 C-6.05423089 57.63240508 -2.20680812 57.57671751 1.640625 57.52148438 C9.19133875 57.41389788 16.74211875 57.31245404 24.29296875 57.21484375 C23.391529 54.69839555 22.479969 52.18638439 21.5625 49.67578125 C21.31246216 48.97445068 21.06242432 48.27312012 20.80480957 47.55053711 C16.49916418 35.84593561 9.06817404 25.99004904 0.29296875 17.21484375 C-0.32964844 16.59222656 -0.95226562 15.96960938 -1.59375 15.328125 C-10.85917384 6.68428095 -21.55325176 1.52074367 -33.37109375 -2.55859375 C-36.70703125 -3.78515625 -36.70703125 -3.78515625 -39.70703125 -5.78515625 C-28.52289351 -14.62842795 -11.32118732 -5.5924667 0 0 Z " fill="#3B218C" transform="translate(89.70703125,18.78515625)"/>
<path d="M0 0 C8.58 0 17.16 0 26 0 C26 0.33 26 0.66 26 1 C17.42 1 8.84 1 0 1 C0 0.67 0 0.34 0 0 Z " fill="#FFFFFF" transform="translate(86,199)"/>
<path d="M0 0 C0.33 0 0.66 0 1 0 C1 8.58 1 17.16 1 26 C0.67 26 0.34 26 0 26 C0 17.42 0 8.84 0 0 Z " fill="#FFFFFF" transform="translate(199,86)"/>
<path d="M0 0 C0.66 0.33 1.32 0.66 2 1 C-0.31 3.31 -2.62 5.62 -5 8 C-5 5 -5 5 -2.5 2.3125 C-1.675 1.549375 -0.85 0.78625 0 0 Z " fill="#FFFFFF" transform="translate(30,25)"/>
<path d="M0 0 C1.98 0 3.96 0 6 0 C6 0.33 6 0.66 6 1 C4.02 1 2.04 1 0 1 C0 0.67 0 0.34 0 0 Z " fill="#FFFFFF" transform="translate(112,198)"/>
<path d="M0 0 C1.98 0 3.96 0 6 0 C6 0.33 6 0.66 6 1 C4.02 1 2.04 1 0 1 C0 0.67 0 0.34 0 0 Z " fill="#FFFFFF" transform="translate(80,198)"/>
<path d="M0 0 C1.65 0 3.3 0 5 0 C5 0.33 5 0.66 5 1 C3.35 1 1.7 1 0 1 C0 0.67 0 0.34 0 0 Z " fill="#FFFFFF" transform="translate(118,197)"/>
<path d="M0 0 C1.65 0 3.3 0 5 0 C5 0.33 5 0.66 5 1 C3.35 1 1.7 1 0 1 C0 0.67 0 0.34 0 0 Z " fill="#FFFFFF" transform="translate(75,197)"/>
<path d="M0 0 C1.65 0 3.3 0 5 0 C5 0.33 5 0.66 5 1 C3.35 1 1.7 1 0 1 C0 0.67 0 0.34 0 0 Z " fill="#FFFFFF" transform="translate(117,0)"/>
<path d="M0 0 C1.65 0 3.3 0 5 0 C5 0.33 5 0.66 5 1 C3.35 1 1.7 1 0 1 C0 0.67 0 0.34 0 0 Z " fill="#FFFFFF" transform="translate(76,0)"/>
<path d="M0 0 C4 1 4 1 4 1 Z " fill="#FFFFFF" transform="translate(123,196)"/>
<path d="M0 0 C4 1 4 1 4 1 Z " fill="#FFFFFF" transform="translate(68,195)"/>
<path d="M0 0 C4 1 4 1 4 1 Z " fill="#FFFFFF" transform="translate(69,2)"/>
<path d="M0 0 C4 1 4 1 4 1 Z " fill="#FFFFFF" transform="translate(122,1)"/>
<path d="M0 0 C3 1 3 1 3 1 Z " fill="#FFFFFF" transform="translate(72,196)"/>
<path d="M0 0 C3 1 3 1 3 1 Z " fill="#FFFFFF" transform="translate(127,195)"/>
<path d="M0 0 C3 1 3 1 3 1 Z " fill="#FFFFFF" transform="translate(130,194)"/>
<path d="M0 0 C3 1 3 1 3 1 Z " fill="#FFFFFF" transform="translate(65,194)"/>
<path d="M0 0 C3 1 3 1 3 1 Z " fill="#FFFFFF" transform="translate(135,192)"/>
<path d="M0 0 C3 1 3 1 3 1 Z " fill="#FFFFFF" transform="translate(60,192)"/>
<path d="" fill="#FFFFFF" transform="translate(0,0)"/>
<path d="" fill="#FFFFFF" transform="translate(0,0)"/>
<path d="" fill="#FFFFFF" transform="translate(0,0)"/>
<path d="" fill="#FFFFFF" transform="translate(0,0)"/>
<path d="" fill="#FFFFFF" transform="translate(0,0)"/>
<path d="" fill="#FFFFFF" transform="translate(0,0)"/>
<path d="M0 0 C3 1 3 1 3 1 Z " fill="#FFFFFF" transform="translate(137,6)"/>
<path d="M0 0 C3 1 3 1 3 1 Z " fill="#FFFFFF" transform="translate(132,4)"/>
<path d="M0 0 C3 1 3 1 3 1 Z " fill="#FFFFFF" transform="translate(63,4)"/>
<path d="M0 0 C3 1 3 1 3 1 Z " fill="#FFFFFF" transform="translate(129,3)"/>
<path d="M0 0 C3 1 3 1 3 1 Z " fill="#FFFFFF" transform="translate(66,3)"/>
<path d="M0 0 C3 1 3 1 3 1 Z " fill="#FFFFFF" transform="translate(126,2)"/>
<path d="M0 0 C3 1 3 1 3 1 Z " fill="#FFFFFF" transform="translate(73,1)"/>
<path d="M0 0 C2 1 2 1 2 1 Z " fill="#FFFFFF" transform="translate(133,193)"/>
<path d="M0 0 C2 1 2 1 2 1 Z " fill="#FFFFFF" transform="translate(63,193)"/>
<path d="M0 0 C2 1 2 1 2 1 Z " fill="#FFFFFF" transform="translate(138,191)"/>
<path d="M0 0 C2 1 2 1 2 1 Z " fill="#FFFFFF" transform="translate(58,191)"/>
<path d="M0 0 C2 1 2 1 2 1 Z " fill="#FFFFFF" transform="translate(140,190)"/>
<path d="M0 0 C2 1 2 1 2 1 Z " fill="#3B218C" transform="translate(56,190)"/>
<path d="M0 0 C2 1 2 1 2 1 Z " fill="#FFFFFF" transform="translate(142,189)"/>
<path d="M0 0 C2 1 2 1 2 1 Z " fill="#3B218C" transform="translate(54,189)"/>
<path d="M0 0 C2 1 2 1 2 1 Z " fill="#FFFFFF" transform="translate(144,188)"/>
<path d="M0 0 C2 1 2 1 2 1 Z " fill="#3B218C" transform="translate(52,188)"/>
<path d="M0 0 C2 1 2 1 2 1 Z " fill="#FFFFFF" transform="translate(146,187)"/>
<path d="M0 0 C2 1 2 1 2 1 Z " fill="#3B218C" transform="translate(50,187)"/>
<path d="M0 0 C2 1 2 1 2 1 Z " fill="#FFFFFF" transform="translate(148,186)"/>
<path d="M0 0 C2 1 2 1 2 1 Z " fill="#FFFFFF" transform="translate(47,185)"/>
<path d="M0 0 C2 1 2 1 2 1 Z " fill="#FFFFFF" transform="translate(151,184)"/>
<path d="M0 0 C2 1 2 1 2 1 Z " fill="#FFFFFF" transform="translate(45,184)"/>
<path d="M0 0 C2 1 2 1 2 1 Z " fill="#FFFFFF" transform="translate(154,182)"/>
<path d="M0 0 C2 1 2 1 2 1 Z " fill="#FFFFFF" transform="translate(42,182)"/>
<path d="M0 0 C2 1 2 1 2 1 Z " fill="#FFFFFF" transform="translate(157,180)"/>
<path d="M0 0 C2 1 2 1 2 1 Z " fill="#FFFFFF" transform="translate(38,179)"/>
<path d="M0 0 C2 1 2 1 2 1 Z " fill="#FFFFFF" transform="translate(162,176)"/>
<path d="M0 0 C2 1 2 1 2 1 Z " fill="#FFFFFF" transform="translate(32,174)"/>
<path d="" fill="#FFFFFF" transform="translate(0,0)"/>
<path d="" fill="#FFFFFF" transform="translate(0,0)"/>
<path d="" fill="#FFFFFF" transform="translate(0,0)"/>
<path d="" fill="#FFFFFF" transform="translate(0,0)"/>
<path d="" fill="#FFFFFF" transform="translate(0,0)"/>
<path d="" fill="#FFFFFF" transform="translate(0,0)"/>
<path d="" fill="#FFFFFF" transform="translate(0,0)"/>
<path d="" fill="#FFFFFF" transform="translate(0,0)"/>
<path d="M0 0 C2 1 2 1 2 1 Z " fill="#FFFFFF" transform="translate(164,23)"/>
<path d="M0 0 C2 1 2 1 2 1 Z " fill="#FFFFFF" transform="translate(37,19)"/>
<path d="M0 0 C2 1 2 1 2 1 Z " fill="#FFFFFF" transform="translate(158,18)"/>
<path d="M0 0 C2 1 2 1 2 1 Z " fill="#FFFFFF" transform="translate(155,16)"/>
<path d="M0 0 C2 1 2 1 2 1 Z " fill="#FFFFFF" transform="translate(41,16)"/>
<path d="M0 0 C2 1 2 1 2 1 Z " fill="#FFFFFF" transform="translate(152,14)"/>
<path d="M0 0 C2 1 2 1 2 1 Z " fill="#FFFFFF" transform="translate(44,14)"/>
<path d="M0 0 C2 1 2 1 2 1 Z " fill="#FFFFFF" transform="translate(149,12)"/>
<path d="M0 0 C2 1 2 1 2 1 Z " fill="#3B218C" transform="translate(47,12)"/>
<path d="M0 0 C2 1 2 1 2 1 Z " fill="#FFFFFF" transform="translate(147,11)"/>
<path d="M0 0 C2 1 2 1 2 1 Z " fill="#3B218C" transform="translate(49,11)"/>
<path d="M0 0 C2 1 2 1 2 1 Z " fill="#3B218C" transform="translate(51,10)"/>
<path d="M0 0 C2 1 2 1 2 1 Z " fill="#FFFFFF" transform="translate(144,9)"/>
<path d="M0 0 C2 1 2 1 2 1 Z " fill="#3B218C" transform="translate(53,9)"/>
<path d="M0 0 C2 1 2 1 2 1 Z " fill="#FFFFFF" transform="translate(142,8)"/>
<path d="M0 0 C2 1 2 1 2 1 Z " fill="#FFFFFF" transform="translate(55,8)"/>
<path d="M0 0 C2 1 2 1 2 1 Z " fill="#FFFFFF" transform="translate(140,7)"/>
<path d="M0 0 C2 1 2 1 2 1 Z " fill="#FFFFFF" transform="translate(57,7)"/>
<path d="M0 0 C2 1 2 1 2 1 Z " fill="#FFFFFF" transform="translate(59,6)"/>
<path d="M0 0 C2 1 2 1 2 1 Z " fill="#FFFFFF" transform="translate(135,5)"/>
<path d="M0 0 C2 1 2 1 2 1 Z " fill="#FFFFFF" transform="translate(61,5)"/>
<path d="" fill="#FFFFFF" transform="translate(0,0)"/>
<path d="" fill="#FFFFFF" transform="translate(0,0)"/>
<path d="" fill="#FFFFFF" transform="translate(0,0)"/>
<path d="" fill="#FFFFFF" transform="translate(0,0)"/>
<path d="" fill="#FFFFFF" transform="translate(0,0)"/>
<path d="" fill="#FFFFFF" transform="translate(0,0)"/>
<path d="" fill="#FFFFFF" transform="translate(0,0)"/>
<path d="" fill="#FFFFFF" transform="translate(0,0)"/>
<path d="" fill="#FFFFFF" transform="translate(0,0)"/>
<path d="" fill="#FFFFFF" transform="translate(0,0)"/>
<path d="" fill="#FFFFFF" transform="translate(0,0)"/>
<path d="" fill="#FFFFFF" transform="translate(0,0)"/>
<path d="" fill="#FFFFFF" transform="translate(0,0)"/>
<path d="" fill="#FFFFFF" transform="translate(0,0)"/>
<path d="" fill="#FFFFFF" transform="translate(0,0)"/>
<path d="" fill="#FFFFFF" transform="translate(0,0)"/>
<path d="" fill="#FFFFFF" transform="translate(0,0)"/>
<path d="" fill="#FFFFFF" transform="translate(0,0)"/>
<path d="" fill="#FFFFFF" transform="translate(0,0)"/>
<path d="" fill="#FFFFFF" transform="translate(0,0)"/>
<path d="" fill="#FFFFFF" transform="translate(0,0)"/>
<path d="" fill="#FFFFFF" transform="translate(0,0)"/>
<path d="" fill="#FFFFFF" transform="translate(0,0)"/>
<path d="" fill="#FFFFFF" transform="translate(0,0)"/>
<path d="" fill="#FFFFFF" transform="translate(0,0)"/>
<path d="" fill="#FFFFFF" transform="translate(0,0)"/>
<path d="" fill="#FFFFFF" transform="translate(0,0)"/>
<path d="" fill="#FFFFFF" transform="translate(0,0)"/>
<path d="" fill="#FFFFFF" transform="translate(0,0)"/>
<path d="" fill="#FFFFFF" transform="translate(0,0)"/>
<path d="" fill="#FFFFFF" transform="translate(0,0)"/>
<path d="" fill="#FFFFFF" transform="translate(0,0)"/>
<path d="" fill="#FFFFFF" transform="translate(0,0)"/>
<path d="" fill="#FFFFFF" transform="translate(0,0)"/>
<path d="" fill="#FFFFFF" transform="translate(0,0)"/>
<path d="" fill="#FFFFFF" transform="translate(0,0)"/>
<path d="" fill="#FFFFFF" transform="translate(0,0)"/>
<path d="" fill="#FFFFFF" transform="translate(0,0)"/>
<path d="" fill="#FFFFFF" transform="translate(0,0)"/>
<path d="" fill="#FFFFFF" transform="translate(0,0)"/>
<path d="" fill="#FFFFFF" transform="translate(0,0)"/>
<path d="" fill="#FFFFFF" transform="translate(0,0)"/>
<path d="" fill="#FFFFFF" transform="translate(0,0)"/>
<path d="" fill="#FFFFFF" transform="translate(0,0)"/>
<path d="" fill="#FFFFFF" transform="translate(0,0)"/>
<path d="" fill="#FFFFFF" transform="translate(0,0)"/>
<path d="" fill="#FFFFFF" transform="translate(0,0)"/>
<path d="" fill="#FFFFFF" transform="translate(0,0)"/>
<path d="" fill="#FFFFFF" transform="translate(0,0)"/>
<path d="" fill="#FFFFFF" transform="translate(0,0)"/>
<path d="" fill="#FFFFFF" transform="translate(0,0)"/>
<path d="" fill="#FFFFFF" transform="translate(0,0)"/>
<path d="" fill="#FFFFFF" transform="translate(0,0)"/>
<path d="" fill="#FFFFFF" transform="translate(0,0)"/>
<path d="" fill="#FFFFFF" transform="translate(0,0)"/>
<path d="" fill="#FFFFFF" transform="translate(0,0)"/>
<path d="" fill="#FFFFFF" transform="translate(0,0)"/>
<path d="" fill="#FFFFFF" transform="translate(0,0)"/>
<path d="" fill="#FFFFFF" transform="translate(0,0)"/>
<path d="" fill="#FFFFFF" transform="translate(0,0)"/>
<path d="" fill="#FFFFFF" transform="translate(0,0)"/>
<path d="" fill="#FFFFFF" transform="translate(0,0)"/>
<path d="" fill="#FFFFFF" transform="translate(0,0)"/>
<path d="" fill="#FFFFFF" transform="translate(0,0)"/>
</svg>
