<svg xmlns="http://www.w3.org/2000/svg" width="256" height="256" fill="none" xmlns:v="https://vecta.io/nano"><circle cx="128" cy="128" r="128" fill="#23201f"/><g fill="#ede1d5"><path fill-rule="evenodd" d="M127.043 85.043l-42.218 42.218 41.957 41.957L169 127l-41.957-41.957zM127.91 112L112 127.91l15.91 15.91 15.91-15.91L127.91 112z"/><circle cx="191.028" cy="127.5" r="33.5"/><path d="M170.028 101.5v52l-15.998-14-.001-23 15.999-15z"/></g><g fill="#23201f"><circle cx="190.5" cy="127.5" r="15.5"/><path d="M179.5 116.636v21.748L169 127.5l10.5-10.864z"/></g><g fill="#ede1d5"><circle cx="126.5" cy="63.5" r="33.5" transform="rotate(270 126.5 63.5)"/><path d="M100.5 84.5h52l-14 15.998-23 .001-15-15.999z"/></g><g fill="#23201f"><circle cx="126.5" cy="64.028" r="15.5" transform="rotate(270 126.5 64.028)"/><path d="M115.637 75.028h21.747l-10.884 10.5-10.863-10.5z"/></g><g fill="#ede1d5"><circle cx="126.5" cy="191.028" r="33.5" transform="rotate(90 126.5 191.028)"/><path d="M152.5 170.028h-52l14-15.998 23-.001 15 15.999z"/></g><g fill="#23201f"><circle cx="126.5" cy="190.5" r="15.5" transform="rotate(90 126.5 190.5)"/><path d="M137.363 179.5h-21.747L126.5 169l10.863 10.5z"/></g><g fill="#ede1d5"><circle cx="63.5" cy="126.5" r="33.5" transform="rotate(180 63.5 126.5)"/><path d="M84.5 152.5v-52l15.998 14 .001 23-15.999 15z"/></g><g fill="#23201f"><circle cx="64.028" cy="126.5" r="15.5" transform="rotate(180 64.028 126.5)"/><path d="M75.028 137.364v-21.748l10.5 10.884-10.5 10.864z"/></g></svg>