<?xml version="1.0" encoding="UTF-8"?>
<svg version="1.1" xmlns="http://www.w3.org/2000/svg" width="200" height="200">
<path d="M0 0 C1.25296875 0.4125 2.5059375 0.825 3.796875 1.25 C28.74462541 10.06760046 48.21993996 28.50355897 60.08447266 52.01074219 C70.70512729 75.08730057 73.09510894 102.81586203 65 127 C64.5875 128.25296875 64.175 129.5059375 63.75 130.796875 C54.93239954 155.74462541 36.49644103 175.21993996 12.98925781 187.08447266 C-10.08730057 197.70512729 -37.81586203 200.09510894 -62 192 C-63.87945312 191.38125 -63.87945312 191.38125 -65.796875 190.75 C-90.74462541 181.93239954 -110.21993996 163.49644103 -122.08447266 139.98925781 C-132.70512729 116.91269943 -135.09510894 89.18413797 -127 65 C-126.5875 63.74703125 -126.175 62.4940625 -125.75 61.203125 C-116.93239954 36.25537459 -98.49644103 16.78006004 -74.98925781 4.91552734 C-51.91269943 -5.70512729 -24.18413797 -8.09510894 0 0 Z " fill="#00EBBE" transform="translate(131,4)"/>
<path d="M0 0 C0.73151779 0.00719055 1.46303558 0.0143811 2.21672058 0.02178955 C2.98754471 0.0214975 3.75836884 0.02120544 4.55255127 0.02090454 C7.10657413 0.02230059 9.66030713 0.03787454 12.21427917 0.05352783 C13.98261862 0.05725699 15.75096012 0.06010442 17.51930237 0.06210327 C22.17840763 0.06974741 26.83738862 0.08940255 31.4964447 0.11151123 C36.24872659 0.13195289 41.00102852 0.14110139 45.75334167 0.15118408 C55.08152134 0.17264774 64.40960868 0.20679305 73.73771667 0.24884033 C73.72986145 1.1559375 73.72986145 1.1559375 73.72184753 2.08135986 C73.70094309 4.84550927 73.68801389 7.60964198 73.67521667 10.37384033 C73.66264832 11.80083252 73.66264832 11.80083252 73.64982605 13.25665283 C73.64499207 14.64884033 73.64499207 14.64884033 73.64006042 16.06915283 C73.6322052 17.34169922 73.6322052 17.34169922 73.62419128 18.63995361 C73.75173131 21.57090572 74.20573532 24.3662009 74.73771667 27.24884033 C64.48925171 27.31829067 54.24084255 27.3716263 43.99219036 27.40427685 C39.23353462 27.41994594 34.47503965 27.44120682 29.71647644 27.47515869 C25.12587716 27.50770791 20.5354327 27.52568398 15.94472694 27.53347206 C14.19158808 27.53902357 12.43845787 27.54986408 10.68538475 27.5660305 C8.23348421 27.58774608 5.78222689 27.59080977 3.33024597 27.5894165 C2.60232346 27.60020233 1.87440094 27.61098816 1.12442017 27.62210083 C-1.80602992 27.60403206 -3.77621477 27.59154911 -6.21354675 25.87307739 C-7.68457176 23.59481859 -7.6345703 21.91223695 -7.62556458 19.21368408 C-7.62492004 18.23979736 -7.62427551 17.26591064 -7.62361145 16.26251221 C-7.60749817 15.24737549 -7.59138489 14.23223877 -7.57478333 13.18634033 C-7.57800598 12.16733643 -7.58122864 11.14833252 -7.58454895 10.09844971 C-7.51116087 0.03093881 -7.51116087 0.03093881 0 0 Z " fill="#1621E8" transform="translate(65.26228332519531,122.75115966796875)"/>
<path d="M0 0 C10.26576008 -0.04627383 20.53149548 -0.08184393 30.79733849 -0.10362434 C35.56382294 -0.11407612 40.33023621 -0.12826064 45.09667969 -0.15087891 C49.69374927 -0.17255773 54.29075024 -0.18455812 58.88786697 -0.18975449 C60.64460964 -0.19345919 62.40134841 -0.20069322 64.15806198 -0.21146011 C66.61245688 -0.22590924 69.06656573 -0.22798073 71.52099609 -0.22705078 C72.25251389 -0.23424133 72.98403168 -0.24143188 73.73771667 -0.24884033 C78.77189568 -0.22810432 78.77189568 -0.22810432 81 2 C81.45420837 5.81454286 81.32404776 9.66152514 81.3125 13.5 C81.32861328 14.57121094 81.34472656 15.64242187 81.36132812 16.74609375 C81.36197266 17.76832031 81.36261719 18.79054688 81.36328125 19.84375 C81.36626221 20.78412109 81.36924316 21.72449219 81.37231445 22.69335938 C81.1880188 23.83514648 81.1880188 23.83514648 81 25 C77.33955333 27.44029778 74.6361545 27.26882249 70.4074707 27.22705078 C69.25101547 27.22748886 69.25101547 27.22748886 68.07119751 27.22793579 C65.52261098 27.22654233 62.97431672 27.21098049 60.42578125 27.1953125 C58.65887105 27.19158242 56.89195878 27.18873543 55.12504578 27.18673706 C50.47417492 27.17910017 45.82342894 27.1594512 41.17260742 27.1373291 C36.42693776 27.11687188 31.68124792 27.10773561 26.93554688 27.09765625 C17.62364304 27.07620537 8.31183191 27.04206873 -1 27 C-0.83701416 26.45182617 -0.67402832 25.90365234 -0.50610352 25.33886719 C0.06803556 22.68558577 0.11273652 20.29257322 0.09765625 17.578125 C0.09443359 16.55332031 0.09121094 15.52851562 0.08789062 14.47265625 C0.07951172 13.40917969 0.07113281 12.34570312 0.0625 11.25 C0.05573242 9.63158203 0.05573242 9.63158203 0.04882812 7.98046875 C0.03705727 5.32025617 0.02061399 2.66015635 0 0 Z " fill="#1621E8" transform="translate(45,87)"/>
<path d="M0 0 C0.77097015 -0.00043808 1.54194031 -0.00087616 2.33627319 -0.00132751 C4.88500276 0.00076279 7.43307479 0.02410471 9.98168945 0.04760742 C11.74859762 0.05320253 13.51551044 0.05747303 15.28242493 0.06047058 C19.93336838 0.07192609 24.58403086 0.1013993 29.23486328 0.13458252 C33.98051146 0.16526821 38.72620504 0.1789727 43.47192383 0.1940918 C52.78389625 0.22626836 62.09566011 0.27747322 71.4074707 0.34057617 C71.0774707 1.33057617 70.7474707 2.32057617 70.4074707 3.34057617 C70.31627569 4.67804567 70.27681768 6.01953422 70.2746582 7.36010742 C70.27336914 8.13547852 70.27208008 8.91084961 70.27075195 9.7097168 C70.27461914 10.51602539 70.27848633 11.32233398 70.2824707 12.15307617 C70.27860352 12.9477832 70.27473633 13.74249023 70.27075195 14.5612793 C70.27204102 15.34051758 70.27333008 16.11975586 70.2746582 16.92260742 C70.2763501 17.97798706 70.2763501 17.97798706 70.27807617 19.0546875 C70.43699273 21.8621134 70.9306679 24.57120645 71.4074707 27.34057617 C61.15900574 27.41002651 50.91059658 27.46336214 40.66194439 27.49601269 C35.90328865 27.51168178 31.14479367 27.53294266 26.38623047 27.56689453 C21.79563119 27.59944375 17.20518673 27.61741982 12.61448097 27.6252079 C10.86134211 27.63075941 9.1082119 27.64159992 7.35513878 27.65776634 C4.90323824 27.67948192 2.45198092 27.68254561 0 27.68115234 C-0.72792252 27.69193817 -1.45584503 27.702724 -2.20582581 27.71383667 C-7.10861861 27.68360669 -7.10861861 27.68360669 -9.5428009 25.95808411 C-10.97476264 23.75159956 -10.980474 22.17952663 -10.9909668 19.55932617 C-10.99483398 18.63506836 -10.99870117 17.71081055 -11.00268555 16.75854492 C-10.99108398 15.79561523 -10.97948242 14.83268555 -10.9675293 13.84057617 C-10.97913086 12.87764648 -10.99073242 11.9147168 -11.00268555 10.92260742 C-10.99881836 9.99834961 -10.99495117 9.0740918 -10.9909668 8.12182617 C-10.98758301 7.2768457 -10.98419922 6.43186523 -10.98071289 5.5612793 C-9.92148426 -0.4983079 -5.17378719 -0.07666142 0 0 Z " fill="#1621E8" transform="translate(68.592529296875,50.659423828125)"/>
</svg>
