<svg xmlns="http://www.w3.org/2000/svg" width="256" height="256" fill="none" xmlns:v="https://vecta.io/nano"><g clip-path="url(#A)"><path d="M128 256c70.692 0 128-57.308 128-128S198.692 0 128 0 0 57.308 0 128s57.308 128 128 128z" fill="#000"/><path d="M136.008 128L203 93l-11.186-21-61.399 24.436c-1.398.636-3.432.636-4.83 0L64.186 72 53 93l66.992 35L53 163l11.186 21 61.399-24.436c1.398-.637 3.432-.637 4.83 0L191.814 184 203 163l-66.992-35z" fill="#23f7dd"/></g><defs><clipPath id="A"><path fill="#fff" d="M0 0h256v256H0z"/></clipPath></defs></svg>