<?xml version="1.0" encoding="UTF-8"?>
<svg version="1.1" xmlns="http://www.w3.org/2000/svg" width="64" height="64">
<path d="M0 0 C21.12 0 42.24 0 64 0 C64 21.12 64 42.24 64 64 C42.88 64 21.76 64 0 64 C0 42.88 0 21.76 0 0 Z " fill="#FEFEFE" transform="translate(0,0)"/>
<path d="M0 0 C3.3 0 6.6 0 10 0 C10 9.57 10 19.14 10 29 C11.32 29 12.64 29 14 29 C14 25.7 14 22.4 14 19 C15.65 19 17.3 19 19 19 C19 22.3 19 25.6 19 29 C22.3 29 25.6 29 29 29 C29 31.97 29 34.94 29 38 C19.43 38 9.86 38 0 38 C0 25.46 0 12.92 0 0 Z " fill="#1B0E6C" transform="translate(15,13)"/>
<path d="M0 0 C2.97 0 5.94 0 9 0 C9 2.97 9 5.94 9 9 C10.65 9 12.3 9 14 9 C14 12.3 14 15.6 14 19 C10.7 19 7.4 19 4 19 C4 14.38 4 9.76 4 5 C2.68 5 1.36 5 0 5 C0 3.35 0 1.7 0 0 Z " fill="#1B0D6A" transform="translate(30,13)"/>
<path d="M0 0 C1.65 0 3.3 0 5 0 C5 2.97 5 5.94 5 9 C3.35 9 1.7 9 0 9 C0 6.03 0 3.06 0 0 Z " fill="#1A0C67" transform="translate(44,13)"/>
</svg>
