<svg xmlns="http://www.w3.org/2000/svg" width="256" height="257" fill="none" xmlns:v="https://vecta.io/nano"><path d="M128 256.4c70.692 0 128-57.308 128-128S198.692.4 128 .4 0 57.708 0 128.4s57.308 128 128 128z" fill="url(#A)"/><path d="M62.599 76.187c1.833-3.45 4.492-6.396 7.762-8.552l54.442-38.163-55.771 92.532s-4.887-8.265-6.792-12.433c-4.779-10.673-4.636-22.89.359-33.383zM40.14 140.008c1.222 17.895 10.098 34.39 24.364 45.242l60.227 42.116s-37.66-54.478-69.462-108.668c-3.234-5.713-5.39-12.002-6.396-18.47-.431-2.947-.431-5.929 0-8.876l-2.444 4.707a71.47 71.47 0 0 0-6.504 20.915 129.82 129.82 0 0 0 .216 23.034zm153.514 7.331c-1.941-4.169-6.792-12.434-6.792-12.434l-55.663 92.461 54.441-38.091c3.235-2.192 5.894-5.103 7.762-8.553 5.031-10.529 5.139-22.747.36-33.383h-.108zm22.1-30.473c-1.222-17.896-10.098-34.39-24.364-45.242l-60.12-42.153s37.66 54.477 69.426 108.667a55.33 55.33 0 0 1 6.361 18.471c.431 2.946.431 5.929 0 8.876l2.443-4.708a71.46 71.46 0 0 0 6.504-20.914c.647-7.69.575-15.38-.179-23.07l-.072.072z" fill="#fff"/><defs><linearGradient id="A" x1="-.02" y1="128.414" x2="256.016" y2="128.414" gradientUnits="userSpaceOnUse"><stop stop-color="#513eff"/><stop offset=".18" stop-color="#5157ff"/><stop offset=".57" stop-color="#5298ff"/><stop offset="1" stop-color="#52e5ff"/></linearGradient></defs></svg>