<svg xmlns="http://www.w3.org/2000/svg" width="100%" height="100%" viewBox="0 0 256 256" fill-rule="evenodd" stroke-linecap="round" stroke-linejoin="round" stroke-miterlimit="1.5" xmlns:v="https://vecta.io/nano"><path d="M128 256c70.692 0 128-57.308 128-128S198.692 0 128 0 0 57.308 0 128s57.308 128 128 128z" fill="#130e56" fill-rule="nonzero"/><path d="M36.144,115.868L116.22,36.6L143.383,41.946L150.814,70.437L123.733,62.029L116.22,36.6L123.733,62.029L43.692,142.36L36.144,115.868ZM63.412,122.568L43.692,142.36L98.562,157.448L113.912,213.021L141.189,220.418L220.804,140.619L214.146,112.509L186.221,106.221L105.994,184.356M150.814,70.437L70.127,149.629L63.412,122.568M63.412,122.568L36.144,115.868M81.913,70.562L90.129,95.754L115.92,104.685L109.359,76.456L81.913,70.562ZM70.127,149.629L77.487,177.505L133.232,192.555L141.189,220.418M113.912,213.021L193.793,131.513L186.221,106.221M193.793,131.513L220.804,140.619M151.075,140.451L159.707,166.293L187.148,174.353L178.833,146.777L151.075,140.451ZM98.562,157.448L128.416,126.817L135.774,155.353L109.165,146.569L100.6,119.721L128.416,126.817" fill="none" stroke="url(#A)" stroke-width="4.97"/><defs><linearGradient id="A" x1="75.712" y1="178.852" x2="181.767" y2="72.327" gradientUnits="userSpaceOnUse"><stop offset="0" stop-color="#61beff"/><stop offset=".5" stop-color="#7e71ff"/><stop offset="1" stop-color="#a857f1"/></linearGradient></defs></svg>