<?xml version="1.0" encoding="UTF-8"?>
<svg version="1.1" xmlns="http://www.w3.org/2000/svg" width="200" height="200">
<path d="M0 0 C1.25296875 0.4125 2.5059375 0.825 3.796875 1.25 C28.74462541 10.06760046 48.21993996 28.50355897 60.08447266 52.01074219 C70.70512729 75.08730057 73.09510894 102.81586203 65 127 C64.5875 128.25296875 64.175 129.5059375 63.75 130.796875 C54.93239954 155.74462541 36.49644103 175.21993996 12.98925781 187.08447266 C-10.08730057 197.70512729 -37.81586203 200.09510894 -62 192 C-63.87945312 191.38125 -63.87945312 191.38125 -65.796875 190.75 C-90.74462541 181.93239954 -110.21993996 163.49644103 -122.08447266 139.98925781 C-132.70512729 116.91269943 -135.09510894 89.18413797 -127 65 C-126.5875 63.74703125 -126.175 62.4940625 -125.75 61.203125 C-116.93239954 36.25537459 -98.49644103 16.78006004 -74.98925781 4.91552734 C-51.91269943 -5.70512729 -24.18413797 -8.09510894 0 0 Z " fill="#FEFEFE" transform="translate(131,4)"/>
<path d="M0 0 C0.33 0 0.66 0 1 0 C1.33 17.49 1.66 34.98 2 53 C4.97 53.495 4.97 53.495 8 54 C8.17942163 57.94727588 8.09350689 60.5980513 6 64 C6.66 64 7.32 64 8 64 C9.54236738 66.03366201 10.97124441 68.06122316 12.375 70.1875 C13.15183557 71.34886917 13.93046264 72.50904216 14.7109375 73.66796875 C15.08959961 74.23177246 15.46826172 74.79557617 15.85839844 75.37646484 C16.93182192 76.90304016 18.10808799 78.35580049 19.2890625 79.80078125 C21 82 21 82 21 84 C21.99 84 22.98 84 24 84 C24.03758423 82.68394775 24.03758423 82.68394775 24.07592773 81.34130859 C24.17145384 78.06482809 24.27066243 74.78850102 24.37231445 71.51220703 C24.41544251 70.09818835 24.45713168 68.68412498 24.49731445 67.27001953 C24.5555575 65.2293556 24.61909141 63.18891205 24.68359375 61.1484375 C24.72025146 59.92302246 24.75690918 58.69760742 24.79467773 57.43505859 C24.98672113 54.22215658 25.4055394 51.16058413 26 48 C25.360625 47.79375 24.72125 47.5875 24.0625 47.375 C22 46 22 46 21.1875 43 C21 40 21 40 22 38 C23.65 38 25.3 38 27 38 C27 38.66 27 39.32 27 40 C28.65 40.33 30.3 40.66 32 41 C32.5491602 43.11818934 33.03060709 45.19291861 33.3737793 47.35595703 C34.04799019 50.20262525 35.052908 52.13206861 36.58203125 54.6171875 C37.10216797 55.47183594 37.62230469 56.32648438 38.15820312 57.20703125 C38.70412109 58.08746094 39.25003906 58.96789062 39.8125 59.875 C40.8821288 61.62201737 41.95115079 63.36940643 43.01953125 65.1171875 C43.52822754 65.94573242 44.03692383 66.77427734 44.56103516 67.62792969 C46.43603231 70.71878011 48.22732256 73.84952726 50 77 C42.37756657 74.92575374 35.25579383 72.12167874 28 69 C27.67 73.95 27.34 78.9 27 84 C28.485 84.495 28.485 84.495 30 85 C31.39935013 87.79870027 31.25265405 89.90498792 31 93 C29.875 94.875 29.875 94.875 28 96 C22.86352357 96.64205955 22.86352357 96.64205955 20.30078125 94.73657227 C18.63349781 92.51071132 18.85384144 91.55716635 19.1875 88.83984375 C19.3869962 82.97726785 16.65069933 79.89153874 13 75.5625 C11.87143251 74.17085428 10.74624518 72.77645827 9.625 71.37890625 C9.12226562 70.7763501 8.61953125 70.17379395 8.1015625 69.55297852 C7 68 7 68 7 66 C6.34 66 5.68 66 5 66 C5 65.01 5 64.02 5 63 C1.2950062 62.97672743 -0.9374402 62.96472553 -3.65429688 65.61181641 C-5.2895162 67.79090597 -6.78528539 70.01538958 -8.25 72.3125 C-9.27603265 73.85026643 -10.30207404 75.38802704 -11.328125 76.92578125 C-11.7705957 77.61067627 -12.21306641 78.29557129 -12.66894531 79.0012207 C-13.10819336 79.66081787 -13.54744141 80.32041504 -14 81 C-14.48823242 81.74403076 -14.97646484 82.48806152 -15.47949219 83.25463867 C-15.98125977 83.83060791 -16.48302734 84.40657715 -17 85 C-17.99 85 -18.98 85 -20 85 C-20 85.66 -20 86.32 -20 87 C-18.68 87 -17.36 87 -16 87 C-15.64335664 92.34965035 -15.64335664 92.34965035 -17.0625 94.9375 C-19 96 -19 96 -22.4375 96.125 C-24.2009375 95.568125 -24.2009375 95.568125 -26 95 C-26.82951172 93.38544922 -26.82951172 93.38544922 -27.67578125 91.73828125 C-30.19424974 86.98259457 -34.03284547 85.31155792 -38.75 83.0625 C-39.93916016 82.46598633 -39.93916016 82.46598633 -41.15234375 81.85742188 C-43.09278914 80.88719918 -45.04526049 79.94109184 -47 79 C-45.56744232 75.08973417 -43.71750091 71.71898223 -41.5234375 68.18359375 C-40.853125 67.08982422 -40.1828125 65.99605469 -39.4921875 64.86914062 C-38.43131557 63.14657815 -37.36774176 61.42583709 -36.29882812 59.70825195 C-35.26172743 58.03818682 -34.23616722 56.36097249 -33.2109375 54.68359375 C-32.59524902 53.68900146 -31.97956055 52.69440918 -31.34521484 51.66967773 C-29.64487359 48.29522553 -29.97338483 45.65207167 -30.125 41.9375 C-30 39 -30 39 -28 36 C-24.375 35.8125 -24.375 35.8125 -21 36 C-20.7525 35.31550781 -20.505 34.63101563 -20.25 33.92578125 C-18.78286381 30.49176561 -16.94277004 27.36547249 -15 24.1875 C-14.61134766 23.54675537 -14.22269531 22.90601074 -13.82226562 22.24584961 C-12.55358425 20.16054285 -11.27758814 18.07986058 -10 16 C-9.54367188 15.25459961 -9.08734375 14.50919922 -8.6171875 13.74121094 C-7.24991985 11.51176264 -5.8763658 9.28634103 -4.5 7.0625 C-4.066875 6.35826904 -3.63375 5.65403809 -3.1875 4.9284668 C-2.15279152 3.26800012 -1.08030233 1.63117078 0 0 Z " fill="#B3BFE6" transform="translate(98,22)"/>
<path d="M0 0 C0 3.84612567 -1.1845248 4.90511805 -3.5 7.9375 C-6.42692971 11.85207559 -9.24488535 15.795445 -11.9375 19.875 C-16.796114 27.2237707 -21.8274819 34.44848739 -26.86474609 41.67529297 C-28.25843254 43.67484358 -29.65181417 45.67460668 -31.04492188 47.67456055 C-32.44245201 49.68056409 -33.84084884 51.68596418 -35.24023438 53.69067383 C-39.22953637 59.41575284 -43.15752958 65.17528126 -47 71 C-50.786607 69.73779767 -51.20572716 68.52750573 -53.3125 65.1875 C-57.02364677 59.45023082 -60.87879256 53.83701247 -64.8125 48.25 C-70.47083605 40.19474039 -76.07563704 32.10549408 -81.63818359 23.98388672 C-83.09433704 21.86257032 -84.55635992 19.74538755 -86.01953125 17.62890625 C-86.51815674 16.90670898 -87.01678223 16.18451172 -87.53051758 15.44042969 C-88.48104182 14.06399352 -89.43263086 12.68829181 -90.38549805 11.31347656 C-92.71283835 7.93920406 -94.93845826 4.54666556 -97 1 C-93.1679527 2.43904812 -89.67043548 4.20108455 -86.09765625 6.1953125 C-84.96618164 6.82566406 -83.83470703 7.45601563 -82.66894531 8.10546875 C-82.07907837 8.43595215 -81.48921143 8.76643555 -80.88146973 9.10693359 C-79.05064792 10.13163354 -77.21660998 11.15036502 -75.38183594 12.16796875 C-70.32974418 14.97583732 -65.28609907 17.78630394 -60.35546875 20.8046875 C-59.72568115 21.18608887 -59.09589355 21.56749023 -58.44702148 21.96044922 C-56.88709223 22.9160209 -55.34122997 23.89445717 -53.796875 24.875 C-50.09078069 26.3657195 -47.8436095 25.95653464 -44 25 C-41.4930405 23.85681857 -41.4930405 23.85681857 -39.25 22.3125 C-35.91944832 20.20480759 -32.59471069 18.18331579 -29.125 16.3125 C-23.57205711 13.31199052 -18.03325135 10.28663652 -12.5 7.25 C-11.17186279 6.523573 -11.17186279 6.523573 -9.81689453 5.7824707 C-8.98013184 5.32316162 -8.14336914 4.86385254 -7.28125 4.390625 C-6.52908203 3.97844727 -5.77691406 3.56626953 -5.00195312 3.14160156 C-3.29159484 2.16628018 -1.63822595 1.09215063 0 0 Z " fill="#C8CAF8" transform="translate(148,109)"/>
<path d="M0 0 C0.33 0.66 0.66 1.32 1 2 C1.66 2 2.32 2 3 2 C4.35638993 4.01941146 5.57600263 6.02084465 6.7734375 8.1328125 C7.13845367 8.76226776 7.50346985 9.39172302 7.87954712 10.04025269 C9.05175275 12.0645223 10.21372227 14.09444489 11.375 16.125 C12.53097925 18.13300737 13.68907306 20.13976491 14.84902954 22.14547729 C15.57082146 23.39497865 16.29003218 24.64597597 17.00619507 25.89871216 C20.87880185 33.65715618 20.87880185 33.65715618 27.625 38.1875 C28.73875 38.455625 29.8525 38.72375 31 39 C33 42 33 42 32.625 44.1875 C32.41875 44.785625 32.2125 45.38375 32 46 C31.34 45.01 30.68 44.02 30 43 C27.94074861 42.27617533 27.94074861 42.27617533 26 42 C26 41.34 26 40.68 26 40 C24.35 40 22.7 40 21 40 C20.66551741 42.832168 20.66551741 42.832168 21 46 C21.66088623 46.5775 22.32177246 47.155 23.00268555 47.75 C25.8362126 50.94200408 25.39056502 53.04417058 25.20703125 57.25 C25.18154709 57.94512695 25.15606293 58.64025391 25.12980652 59.35644531 C25.04332141 61.57225512 24.92779724 63.78552272 24.8125 66 C24.75275761 67.48951224 24.69479566 68.97909703 24.63867188 70.46875 C24.15292476 82.2170216 24.15292476 82.2170216 23 86 C22.01 86 21.02 86 20 86 C18.46606445 84.37939453 18.46606445 84.37939453 16.86328125 82.1328125 C16.28642578 81.32972656 15.70957031 80.52664062 15.11523438 79.69921875 C14.52033203 78.84972656 13.92542969 78.00023438 13.3125 77.125 C12.70599609 76.28324219 12.09949219 75.44148438 11.47460938 74.57421875 C7 68.28258577 7 68.28258577 7 66 C6.34 66 5.68 66 5 66 C5.66 62.7 6.32 59.4 7 56 C5.5459375 55.814375 5.5459375 55.814375 4.0625 55.625 C3.051875 55.41875 2.04125 55.2125 1 55 C-0.23988346 52.52023308 -0.16499323 50.78984163 -0.22119141 48.01538086 C-0.24436432 46.97768051 -0.26753723 45.93998016 -0.29141235 44.87083435 C-0.3112619 43.74685745 -0.33111145 42.62288055 -0.3515625 41.46484375 C-0.37471527 40.31585098 -0.39786804 39.16685822 -0.42172241 37.98304749 C-0.46939773 35.55116238 -0.51462737 33.1192283 -0.55761719 30.68725586 C-0.62478393 26.94952388 -0.70249836 23.21211317 -0.78125 19.47460938 C-0.82615686 17.11719953 -0.87044863 14.75977787 -0.9140625 12.40234375 C-0.93796051 11.27634262 -0.96185852 10.15034149 -0.98648071 8.99021912 C-1.0033493 7.95567093 -1.0202179 6.92112274 -1.03759766 5.85522461 C-1.05456696 4.93970322 -1.07153625 4.02418182 -1.08901978 3.08091736 C-1 1 -1 1 0 0 Z " fill="#CFE7F3" transform="translate(99,20)"/>
<path d="M0 0 C3.78974331 1.42656395 7.25926779 3.15775642 10.796875 5.125 C11.92222656 5.75019531 13.04757813 6.37539062 14.20703125 7.01953125 C15.08415771 7.50993896 15.08415771 7.50993896 15.97900391 8.01025391 C17.70136378 8.97281896 19.42681217 9.92985106 21.15234375 10.88671875 C22.89428301 11.85708717 24.63617513 12.82824241 26.35548401 13.83816528 C29.7144521 15.80106324 33.04550762 17.46775217 36.64428711 18.95263672 C41.28927407 21.0089547 45.7099153 23.0164098 49 27 C51.66309867 34.00815441 50.5990957 41.80919355 50.0625 49.125 C49.9771228 51.15072401 49.89957382 53.17679398 49.83007812 55.203125 C49.64365197 60.14402444 49.3511829 65.06818442 49 70 C46.39031876 67.4920764 44.1740624 65.01571043 42.15234375 62.015625 C41.63551025 61.25386963 41.11867676 60.49211426 40.58618164 59.70727539 C40.0421167 58.89637451 39.49805176 58.08547363 38.9375 57.25 C37.76839311 55.52462848 36.59911982 53.79936971 35.4296875 52.07421875 C34.84928711 51.21489746 34.26888672 50.35557617 33.67089844 49.47021484 C31.31698124 45.99024199 28.94287055 42.52441281 26.5625 39.0625 C26.12768311 38.42900635 25.69286621 37.7955127 25.24487305 37.14282227 C22.06011136 32.51279718 18.8337698 27.91292861 15.59985352 23.31713867 C10.2099397 15.65516669 4.88095156 8.00035669 0 0 Z " fill="#6F88DF" transform="translate(51,110)"/>
<path d="M0 0 C1.65 0 3.3 0 5 0 C5 0.66 5 1.32 5 2 C7.475 2.495 7.475 2.495 10 3 C10.5491602 5.11818934 11.03060709 7.19291861 11.3737793 9.35595703 C12.04799019 12.20262525 13.052908 14.13206861 14.58203125 16.6171875 C15.10216797 17.47183594 15.62230469 18.32648438 16.15820312 19.20703125 C16.70412109 20.08746094 17.25003906 20.96789062 17.8125 21.875 C18.8821288 23.62201737 19.95115079 25.36940643 21.01953125 27.1171875 C21.78257568 28.36000488 21.78257568 28.36000488 22.56103516 29.62792969 C24.43603231 32.71878011 26.22732256 35.84952726 28 39 C20.37756657 36.92575374 13.25579383 34.12167874 6 31 C5.67 35.95 5.34 40.9 5 46 C5.99 46.33 6.98 46.66 8 47 C9.39935013 49.79870027 9.25265405 51.90498792 9 55 C7.875 56.875 7.875 56.875 6 58 C0.86352357 58.64205955 0.86352357 58.64205955 -1.69921875 56.73657227 C-3.36650219 54.51071132 -3.14615856 53.55716635 -2.8125 50.83984375 C-2.6130038 44.97726785 -5.34930067 41.89153874 -9 37.5625 C-10.12856749 36.17085428 -11.25375482 34.77645827 -12.375 33.37890625 C-12.87773438 32.7763501 -13.38046875 32.17379395 -13.8984375 31.55297852 C-15 30 -15 30 -15 28 C-15.66 28 -16.32 28 -17 28 C-17 27.01 -17 26.02 -17 25 C-20.7049938 24.97672743 -22.9374402 24.96472553 -25.65429688 27.61181641 C-27.2895162 29.79090597 -28.78528539 32.01538958 -30.25 34.3125 C-31.27603265 35.85026643 -32.30207404 37.38802704 -33.328125 38.92578125 C-33.7705957 39.61067627 -34.21306641 40.29557129 -34.66894531 41.0012207 C-35.10819336 41.66081787 -35.54744141 42.32041504 -36 43 C-36.48823242 43.74403076 -36.97646484 44.48806152 -37.47949219 45.25463867 C-37.98125977 45.83060791 -38.48302734 46.40657715 -39 47 C-39.99 47 -40.98 47 -42 47 C-42 47.66 -42 48.32 -42 49 C-40.68 49 -39.36 49 -38 49 C-37.64335664 54.34965035 -37.64335664 54.34965035 -39.0625 56.9375 C-42.21566824 58.66665678 -44.62508255 57.8590699 -48 57 C-50.15502531 53.76746204 -50.46856135 52.74849077 -50 49 C-49.525625 48.566875 -49.05125 48.13375 -48.5625 47.6875 C-45.99085326 44.91012153 -46.3030844 41.69762964 -46 38 C-44.5 39.1875 -44.5 39.1875 -43 41 C-42.8125 43.6875 -42.8125 43.6875 -43 46 C-38.88330499 43.0324884 -36.13551991 39.69789406 -33.375 35.5 C-29.06207588 29.07432588 -29.06207588 29.07432588 -27.23828125 26.890625 C-25.68300256 24.51600391 -25.68858144 23.05882072 -25.8125 20.25 C-25.874375 18.8475 -25.93625 17.445 -26 16 C-20.555 17.485 -20.555 17.485 -15 19 C-15.33 21.31 -15.66 23.62 -16 26 C-15.34 26 -14.68 26 -14 26 C-12.45763262 28.03366201 -11.02875559 30.06122316 -9.625 32.1875 C-8.84816443 33.34886917 -8.06953736 34.50904216 -7.2890625 35.66796875 C-6.91040039 36.23177246 -6.53173828 36.79557617 -6.14160156 37.37646484 C-5.06817808 38.90304016 -3.89191201 40.35580049 -2.7109375 41.80078125 C-1 44 -1 44 -1 46 C-0.01 46 0.98 46 2 46 C2.03758423 44.68394775 2.03758423 44.68394775 2.07592773 43.34130859 C2.17145384 40.06482809 2.27066243 36.78850102 2.37231445 33.51220703 C2.41544251 32.09818835 2.45713168 30.68412498 2.49731445 29.27001953 C2.5555575 27.2293556 2.61909141 25.18891205 2.68359375 23.1484375 C2.72025146 21.92302246 2.75690918 20.69760742 2.79467773 19.43505859 C2.98672113 16.22215658 3.4055394 13.16058413 4 10 C3.0409375 9.690625 3.0409375 9.690625 2.0625 9.375 C0 8 0 8 -0.8125 5 C-1 2 -1 2 0 0 Z " fill="#BFC4EC" transform="translate(120,60)"/>
<path d="M0 0 C1.093125 0.0825 2.18625 0.165 3.3125 0.25 C2.6525 0.91 1.9925 1.57 1.3125 2.25 C0.98360612 4.10536424 0.98360612 4.10536424 0.99365234 6.24072266 C0.97378265 7.06142242 0.95391296 7.88212219 0.93344116 8.72769165 C0.91611435 10.05744522 0.91611435 10.05744522 0.8984375 11.4140625 C0.87907135 12.32127045 0.8597052 13.22847839 0.8397522 14.16317749 C0.77986784 17.06702204 0.73353584 19.97090604 0.6875 22.875 C0.64932835 24.84116333 0.61027711 26.8073098 0.5703125 28.7734375 C0.47415909 33.5988217 0.390161 38.42428418 0.3125 43.25 C-1.58980372 42.31245222 -3.49054044 41.37172461 -5.390625 40.4296875 C-6.44926758 39.90616699 -7.50791016 39.38264648 -8.59863281 38.84326172 C-12.45615547 36.85352153 -16.05635232 34.62421194 -19.6875 32.25 C-19.0275 29.61 -18.3675 26.97 -17.6875 24.25 C-19.0075 24.25 -20.3275 24.25 -21.6875 24.25 C-21.6875 23.59 -21.6875 22.93 -21.6875 22.25 C-20.6975 21.92 -19.7075 21.59 -18.6875 21.25 C-17.2206504 19.61647732 -17.2206504 19.61647732 -15.875 17.57421875 C-15.35679688 16.82849609 -14.83859375 16.08277344 -14.3046875 15.31445312 C-13.50417969 14.13786133 -13.50417969 14.13786133 -12.6875 12.9375 C-11.62537939 11.39947752 -10.56289093 9.86170899 -9.5 8.32421875 C-9.03207031 7.63932373 -8.56414062 6.95442871 -8.08203125 6.2487793 C-7.62183594 5.58918213 -7.16164063 4.92958496 -6.6875 4.25 C-6.21054688 3.51112549 -5.73359375 2.77225098 -5.2421875 2.01098633 C-3.6875 0.25 -3.6875 0.25 0 0 Z " fill="#DDE0F8" transform="translate(99.6875,84.75)"/>
<path d="M0 0 C2.12055629 2.74583352 3.99809349 5.54210547 5.77734375 8.51953125 C6.29103516 9.37740234 6.80472656 10.23527344 7.33398438 11.11914062 C7.86314453 12.00794922 8.39230469 12.89675781 8.9375 13.8125 C9.72543945 15.12831055 9.72543945 15.12831055 10.52929688 16.47070312 C13.40614231 21.2846485 16.23700989 26.11982711 19 31 C-0.23404255 25.76595745 -0.23404255 25.76595745 -4 22 C-4.11981139 18.68620269 -3.90040346 15.37365485 -3.75 12.0625 C-3.72292969 11.12986328 -3.69585937 10.19722656 -3.66796875 9.23632812 C-3.62800781 8.34494141 -3.58804688 7.45355469 -3.546875 6.53515625 C-3.51432617 5.714104 -3.48177734 4.89305176 -3.44824219 4.04711914 C-3 2 -3 2 0 0 Z " fill="#B5DCF5" transform="translate(129,68)"/>
<path d="M0 0 C0.13559675 2.56428515 0.23433188 5.12135216 0.3125 7.6875 C0.35439453 8.40873047 0.39628906 9.12996094 0.43945312 9.87304688 C0.45556641 10.57880859 0.47167969 11.28457031 0.48828125 12.01171875 C0.51446533 12.65584717 0.54064941 13.29997559 0.56762695 13.96362305 C0 16 0 16 -5 21 C-10.94 17.7 -16.88 14.4 -23 11 C-23 10.34 -23 9.68 -23 9 C-21.49759766 8.40251953 -21.49759766 8.40251953 -19.96484375 7.79296875 C-18.62237704 7.25785964 -17.27993019 6.72270072 -15.9375 6.1875 C-15.28072266 5.92646484 -14.62394531 5.66542969 -13.94726562 5.39648438 C-10.63342493 4.07421297 -7.33864313 2.72323843 -4.06640625 1.30078125 C-1 0 -1 0 0 0 Z " fill="#D8D3FA" transform="translate(74,90)"/>
<path d="M0 0 C3.63 0.99 7.26 1.98 11 3 C10.67 4.65 10.34 6.3 10 8 C8.81019531 8.15726563 7.62039062 8.31453125 6.39453125 8.4765625 C0.76966455 9.88680667 -1.33843033 13.68197263 -4.3125 18.375 C-4.82361328 19.14328125 -5.33472656 19.9115625 -5.86132812 20.703125 C-6.81320884 22.13404062 -7.75560563 23.57134872 -8.68481445 25.01708984 C-9.11882568 25.6714502 -9.55283691 26.32581055 -10 27 C-10.48750732 27.74330566 -10.97501465 28.48661133 -11.47729492 29.25244141 C-11.9797876 29.82913574 -12.48228027 30.40583008 -13 31 C-13.99 31 -14.98 31 -16 31 C-16 31.66 -16 32.32 -16 33 C-14.68 33 -13.36 33 -12 33 C-11.64335664 38.34965035 -11.64335664 38.34965035 -13.0625 40.9375 C-16.21566824 42.66665678 -18.62508255 41.8590699 -22 41 C-24.15502531 37.76746204 -24.46856135 36.74849077 -24 33 C-23.525625 32.566875 -23.05125 32.13375 -22.5625 31.6875 C-19.99085326 28.91012153 -20.3030844 25.69762964 -20 22 C-18.5 23.1875 -18.5 23.1875 -17 25 C-16.8125 27.6875 -16.8125 27.6875 -17 30 C-12.88330499 27.0324884 -10.13551991 23.69789406 -7.375 19.5 C-3.06207588 13.07432588 -3.06207588 13.07432588 -1.23828125 10.890625 C0.31699744 8.51600391 0.31141856 7.05882072 0.1875 4.25 C0.125625 2.8475 0.06375 1.445 0 0 Z " fill="#B8BDEC" transform="translate(94,76)"/>
<path d="M0 0 C6.20477864 1.93624298 12.10825719 4.25609141 18 7 C18.02709444 9.08326131 18.04643873 11.16662441 18.0625 13.25 C18.07410156 14.41015625 18.08570312 15.5703125 18.09765625 16.765625 C18.01782092 19.40977128 17.78643778 21.49826091 17 24 C16.01 24 15.02 24 14 24 C12.46606445 22.37939453 12.46606445 22.37939453 10.86328125 20.1328125 C10.28642578 19.32972656 9.70957031 18.52664062 9.11523438 17.69921875 C8.22288086 16.42498047 8.22288086 16.42498047 7.3125 15.125 C6.70599609 14.28324219 6.09949219 13.44148438 5.47460938 12.57421875 C1 6.28258577 1 6.28258577 1 4 C0.34 4 -0.32 4 -1 4 C-0.67 2.68 -0.34 1.36 0 0 Z " fill="#F2F5F4" transform="translate(105,82)"/>
<path d="M0 0 C-0.61883655 3.21857878 -1.72290832 5.34240892 -3.6171875 8.00390625 C-4.14183594 8.74447266 -4.66648437 9.48503906 -5.20703125 10.24804688 C-5.75746094 11.01181641 -6.30789062 11.77558594 -6.875 12.5625 C-7.41769531 13.33013672 -7.96039063 14.09777344 -8.51953125 14.88867188 C-13.40757475 21.74268886 -13.40757475 21.74268886 -16 24 C-16.66 24 -17.32 24 -18 24 C-18.90413673 20.16275828 -19.10576898 16.62497726 -19.0625 12.6875 C-19.05347656 11.61886719 -19.04445313 10.55023438 -19.03515625 9.44921875 C-19.02355469 8.64097656 -19.01195313 7.83273438 -19 7 C-16.58757287 5.82379175 -14.17072309 4.6589044 -11.75 3.5 C-11.06808594 3.16613281 -10.38617188 2.83226563 -9.68359375 2.48828125 C-6.1479008 0.80625256 -3.98070714 0 0 0 Z " fill="#DBDEF8" transform="translate(95,82)"/>
<path d="M0 0 C1.65 0 3.3 0 5 0 C5 0.66 5 1.32 5 2 C6.65 2.33 8.3 2.66 10 3 C10.6875 4.8125 10.6875 4.8125 11 7 C9.9375 8.75 9.9375 8.75 8 10 C5 10.4375 5 10.4375 2 10 C0.0625 8.375 0.0625 8.375 -1 6 C-0.6875 2.75 -0.6875 2.75 0 0 Z " fill="#829ADA" transform="translate(120,60)"/>
<path d="M0 0 C5.445 1.485 5.445 1.485 11 3 C10.67 4.65 10.34 6.3 10 8 C3.59903382 9.32850242 3.59903382 9.32850242 1.0625 7.9375 C-0.41793945 5.23787512 -0.20161999 3.02429981 0 0 Z " fill="#99A9E3" transform="translate(94,76)"/>
<path d="M0 0 C1.32 0 2.64 0 4 0 C4 0.66 4 1.32 4 2 C6.31 2 8.62 2 11 2 C10.125 6.875 10.125 6.875 9 8 C3.72434608 8.45875252 3.72434608 8.45875252 1.125 6.8125 C-0.34781139 4.43963721 -0.22223194 2.74086056 0 0 Z " fill="#96A7E1" transform="translate(117,110)"/>
<path d="M0 0 C1.65 0 3.3 0 5 0 C5 0.66 5 1.32 5 2 C7.97 2.495 7.97 2.495 11 3 C10.67 4.32 10.34 5.64 10 7 C3.57451737 8.33359073 3.57451737 8.33359073 1.0625 6.875 C-0.30361625 4.46420662 -0.22111261 2.72705554 0 0 Z " fill="#91A3E0" transform="translate(68,62)"/>
<path d="M0 0 C0.66 0 1.32 0 2 0 C2.35640731 11.7812416 1.25940704 23.30024254 0 35 C-0.33 35 -0.66 35 -1 35 C-1.02485364 30.97982745 -1.04293238 26.95968512 -1.05493164 22.93945312 C-1.05993786 21.5738853 -1.06674482 20.20832276 -1.07543945 18.84277344 C-1.08766831 16.87176882 -1.09272866 14.9007239 -1.09765625 12.9296875 C-1.10289307 11.74616699 -1.10812988 10.56264648 -1.11352539 9.34326172 C-1.00470177 6.13846468 -0.60517483 3.14523388 0 0 Z " fill="#B2C0EC" transform="translate(124,70)"/>
<path d="M0 0 C5.94 0.99 5.94 0.99 12 2 C10 6 10 6 9 7 C5.5625 6.75 5.5625 6.75 2 6 C0 3 0 3 0 0 Z " fill="#92A4E0" transform="translate(70,111)"/>
<path d="M0 0 C1.65 0 3.3 0 5 0 C5 0.66 5 1.32 5 2 C6.65 2.33 8.3 2.66 10 3 C10.33 4.32 10.66 5.64 11 7 C9.5410574 6.52269162 8.08286504 6.04308958 6.625 5.5625 C5.81289062 5.29566406 5.00078125 5.02882813 4.1640625 4.75390625 C2 4 2 4 0 3 C-0.33 3.99 -0.66 4.98 -1 6 C-0.67 4.02 -0.34 2.04 0 0 Z " fill="#9DAEE4" transform="translate(120,60)"/>
<path d="M0 0 C3.3 0.99 6.6 1.98 10 3 C10 3.99 10 4.98 10 6 C4.06 5.01 4.06 5.01 -2 4 C-1.34 2.68 -0.68 1.36 0 0 Z " fill="#A9B5E9" transform="translate(72,107)"/>
<path d="M0 0 C3.625 0.3125 3.625 0.3125 5.625 2.0625 C6.625 4.3125 6.625 4.3125 6.3125 6.5625 C5.9721875 7.42875 5.9721875 7.42875 5.625 8.3125 C4.965 7.3225 4.305 6.3325 3.625 5.3125 C1.56574861 4.58867533 1.56574861 4.58867533 -0.375 4.3125 C-0.375 3.6525 -0.375 2.9925 -0.375 2.3125 C-1.695 1.9825 -3.015 1.6525 -4.375 1.3125 C-3.375 0.3125 -3.375 0.3125 0 0 Z " fill="#C5CBF1" transform="translate(125.375,57.6875)"/>
<path d="M0 0 C3.90532683 0.37793485 7.2815754 0.76052513 11 2 C11 3.65 11 5.3 11 7 C10.67 6.01 10.34 5.02 10 4 C7.69 4 5.38 4 3 4 C3 3.34 3 2.68 3 2 C1.68 1.67 0.36 1.34 -1 1 C-0.67 0.67 -0.34 0.34 0 0 Z " fill="#ADB9EA" transform="translate(118,108)"/>
<path d="M0 0 C1.5 1.1875 1.5 1.1875 3 3 C3.1875 5.6875 3.1875 5.6875 3 8 C3.99 7.67 4.98 7.34 6 7 C6 7.66 6 8.32 6 9 C5.34 9 4.68 9 4 9 C4 9.66 4 10.32 4 11 C5.32 11.33 6.64 11.66 8 12 C4.83157817 12.35204687 3.35463289 12.22397867 0.625 10.5 C-1.81620707 6.74429682 -0.86334568 4.31672841 0 0 Z " fill="#C4C9F2" transform="translate(74,98)"/>
<path d="M0 0 C2.97 0.99 5.94 1.98 9 3 C8.67 4.32 8.34 5.64 8 7 C6.02 6.34 4.04 5.68 2 5 C2 4.34 2 3.68 2 3 C0.35 3 -1.3 3 -3 3 C-2.01 2.01 -1.02 1.02 0 0 Z " fill="#ACB8EA" transform="translate(71,59)"/>
<path d="M0 0 C0.99 0 1.98 0 3 0 C3 0.66 3 1.32 3 2 C4.32 2 5.64 2 7 2 C7 2.66 7 3.32 7 4 C7.66 4.33 8.32 4.66 9 5 C8 6 8 6 5.625 6.25 C3 6 3 6 1.1875 4.6875 C0 3 0 3 0 0 Z " fill="#8198DA" transform="translate(94,79)"/>
<path d="M0 0 C2.31 0.33 4.62 0.66 7 1 C7.33 2.32 7.66 3.64 8 5 C5.125 5.125 5.125 5.125 2 5 C1.34 4.34 0.68 3.68 0 3 C0 2.01 0 1.02 0 0 Z " fill="#859BDB" transform="translate(118,113)"/>
<path d="M0 0 C0.33 0 0.66 0 1 0 C1 5.28 1 10.56 1 16 C1.99 16.33 2.98 16.66 4 17 C4.33 17.99 4.66 18.98 5 20 C1.125 19.125 1.125 19.125 0 18 C-0.08631874 16.65732587 -0.10706473 15.31025678 -0.09765625 13.96484375 C-0.09443359 13.15595703 -0.09121094 12.34707031 -0.08789062 11.51367188 C-0.07951172 10.66353516 -0.07113281 9.81339844 -0.0625 8.9375 C-0.05798828 8.08349609 -0.05347656 7.22949219 -0.04882812 6.34960938 C-0.03700373 4.23304337 -0.01906769 2.11651315 0 0 Z " fill="#DCDFF3" transform="translate(124,90)"/>
<path d="M0 0 C2.97 0.495 2.97 0.495 6 1 C6 1.66 6 2.32 6 3 C6.66 3 7.32 3 8 3 C8 3.66 8 4.32 8 5 C5.69 4.67 3.38 4.34 1 4 C0.67 2.68 0.34 1.36 0 0 Z " fill="#839ADA" transform="translate(71,113)"/>
<path d="M0 0 C3.3125 -0.25 3.3125 -0.25 7 0 C8.9375 2 8.9375 2 10 4 C6.31733897 3.40049704 2.65456815 2.75241109 -1 2 C-0.67 1.34 -0.34 0.68 0 0 Z " fill="#C7CDF2" transform="translate(70,58)"/>
<path d="M0 0 C2.64 0 5.28 0 8 0 C7.67 0.99 7.34 1.98 7 3 C4.625 3.1875 4.625 3.1875 2 3 C1.34 2.01 0.68 1.02 0 0 Z " fill="#7E95D9" transform="translate(69,67)"/>
<path d="M0 0 C3.3 0.99 6.6 1.98 10 3 C9.67 3.99 9.34 4.98 9 6 C8.01 5.67 7.02 5.34 6 5 C6 4.34 6 3.68 6 3 C4.35 3 2.7 3 1 3 C0.67 2.01 0.34 1.02 0 0 Z " fill="#8C9FDE" transform="translate(120,63)"/>
<path d="M0 0 C1.65 0 3.3 0 5 0 C5 0.66 5 1.32 5 2 C6.65 2.33 8.3 2.66 10 3 C6.18510326 4.46726798 3.70988378 3.43336419 0 2 C0 1.34 0 0.68 0 0 Z " fill="#AAB6E9" transform="translate(120,60)"/>
</svg>
