<?xml version="1.0" encoding="UTF-8"?>
<svg version="1.1" xmlns="http://www.w3.org/2000/svg" width="64" height="64">
<path d="M0 0 C7.7024392 5.6467635 12.70749645 12.00861465 14.62109375 21.48828125 C15.81436929 32.25686539 13.21811116 41.19087871 6.45703125 49.66796875 C-0.00154511 56.0715785 -8.15316893 59.49785683 -17.12890625 59.86328125 C-26.63463638 59.67504897 -34.45058915 55.92171855 -41.37890625 49.48828125 C-47.99632936 42.31940622 -49.96000622 33.99279624 -49.65625 24.40625 C-48.76438072 15.02278022 -44.43619344 7.66992508 -37.16796875 1.66015625 C-26.086416 -6.13096957 -11.66269856 -7.4112715 0 0 Z " fill="#2775CA" transform="translate(49.37890625,4.51171875)"/>
<path d="M0 0 C2.3125 2.0625 2.3125 2.0625 4 4 C2.02 4.99 2.02 4.99 0 6 C-0.66 5.34 -1.32 4.68 -2 4 C-4.53951544 4.09111938 -4.53951544 4.09111938 -7 5 C-7.99 6.485 -7.99 6.485 -9 8 C-6.69 8 -4.38 8 -2 8 C-2.33 8.99 -2.66 9.98 -3 11 C-5.31 11 -7.62 11 -10 11 C-10 11.66 -10 12.32 -10 13 C-7.36 13 -4.72 13 -2 13 C-2.33 13.99 -2.66 14.98 -3 16 C-4.98 16 -6.96 16 -9 16 C-8.01 17.32 -7.02 18.64 -6 20 C-2.97580475 19.41196203 0.01758453 18.77321882 3 18 C3 21 3 21 1.8125 22.625 C-0.56324016 24.42728564 -2.01111028 24.86098187 -5 25 C-8.93614016 23.45641562 -10.63226576 22.55160136 -13 19 C-13 18.01 -13 17.02 -13 16 C-14.65 16 -16.3 16 -18 16 C-17.505 14.515 -17.505 14.515 -17 13 C-16.01 13 -15.02 13 -14 13 C-14 12.34 -14 11.68 -14 11 C-15.32 11 -16.64 11 -18 11 C-17.67 10.01 -17.34 9.02 -17 8 C-15.68 8 -14.36 8 -13 8 C-12.9175 7.236875 -12.835 6.47375 -12.75 5.6875 C-11.83961241 2.42527779 -10.87113354 1.68890208 -8 0 C-4.61786861 -1.12737713 -3.35228621 -1.06292002 0 0 Z " fill="#FDFEFE" transform="translate(37,20)"/>
<path d="M0 0 C7.05680009 1.98085616 10.8716154 4.92756128 15 11 C18.35236153 17.03900587 19.07978135 23.42139228 17.49609375 30.13671875 C15.43845157 36.30964529 11.99540326 40.98378622 6.375 44.375 C3 46 3 46 0 46 C0 44.68 0 43.36 0 42 C1.609375 40.7265625 1.609375 40.7265625 3.75 39.625 C8.69838028 36.78734476 11.187404 33.437788 13 28 C13.78201598 21.5002934 12.83094554 16.36566684 9 11 C6.30014107 8.22259943 3.21911926 6.1460795 0 4 C0 2.68 0 1.36 0 0 Z " fill="#FDFEFE" transform="translate(38,9)"/>
<path d="M0 0 C-0.125 1.75 -0.125 1.75 -1 4 C-2.97946592 5.36363208 -4.9819245 6.69418644 -7 8 C-11.75927663 13.15588302 -13.49016362 17.70595536 -13.31640625 24.65625 C-12.60805975 29.90326112 -10.29645254 33.76837009 -6.5 37.375 C-4.37411645 38.75682431 -2.31500842 39.97110737 0 41 C0 42.32 0 43.64 0 45 C-5.39317471 44.66292658 -9.18607847 41.57455407 -13 38 C-17.60855386 31.89037432 -18.8058211 25.47428263 -18 18 C-16.14397755 10.24489984 -12.45579554 5.56936178 -6 1 C-4 0 -4 0 0 0 Z " fill="#FEFEFE" transform="translate(26,10)"/>
</svg>
