<?xml version="1.0" encoding="UTF-8"?>
<svg version="1.1" xmlns="http://www.w3.org/2000/svg" width="64" height="64">
<path d="M0 0 C21.12 0 42.24 0 64 0 C64 21.12 64 42.24 64 64 C42.88 64 21.76 64 0 64 C0 42.88 0 21.76 0 0 Z " fill="#151515" transform="translate(0,0)"/>
<path d="M0 0 C1.65 0 3.3 0 5 0 C5 0.66 5 1.32 5 2 C5.66 2 6.32 2 7 2 C7.33 2.33 7.66 2.66 8 3 C7.67 2.01 7.34 1.02 7 0 C10.3 0 13.6 0 17 0 C13 3 13 3 11 3 C11.20625 3.763125 11.4125 4.52625 11.625 5.3125 C12 8 12 8 10 11 C7.375 11.1875 7.375 11.1875 5 11 C5.33 10.01 5.66 9.02 6 8 C5.01 8.495 5.01 8.495 4 9 C2.66666667 9.66666667 1.33333333 10.33333333 0 11 C-1.11392405 3.34177215 -1.11392405 3.34177215 0 0 Z " fill="#454445" transform="translate(22,26)"/>
<path d="M0 0 C1.98 0 3.96 0 6 0 C6 0.99 6 1.98 6 3 C6.99 2.67 7.98 2.34 9 2 C9.33 1.34 9.66 0.68 10 0 C11.32 0.33 12.64 0.66 14 1 C13.01 1 12.02 1 11 1 C11.33 2.65 11.66 4.3 12 6 C11.01 6.33 10.02 6.66 9 7 C7.31461399 8.99665314 7.31461399 8.99665314 6 11 C3.03 10.505 3.03 10.505 0 10 C-1.125 5.25 -1.125 5.25 0 3 C0.66 3 1.32 3 2 3 C2 2.34 2 1.68 2 1 C1.34 0.67 0.68 0.34 0 0 Z " fill="#272728" transform="translate(48,26)"/>
<path d="M0 0 C1.65 0 3.3 0 5 0 C5 0.66 5 1.32 5 2 C5.66 2 6.32 2 7 2 C7 6 7 6 4.625 8.75 C2 11 2 11 0 11 C-1.11392405 3.34177215 -1.11392405 3.34177215 0 0 Z " fill="#474748" transform="translate(22,26)"/>
<path d="M0 0 C0 0.66 0 1.32 0 2 C3.04913228 3.01111093 3.04913228 3.01111093 6 2 C5.67 3.32 5.34 4.64 5 6 C4.34 6 3.68 6 3 6 C3 6.66 3 7.32 3 8 C2.38125 7.79375 1.7625 7.5875 1.125 7.375 C0.42375 7.25125 -0.2775 7.1275 -1 7 C-1.66 7.66 -2.32 8.32 -3 9 C-3.12375 8.195625 -3.2475 7.39125 -3.375 6.5625 C-3.684375 5.2940625 -3.684375 5.2940625 -4 4 C-4.66 3.67 -5.32 3.34 -6 3 C-3.375 0 -3.375 0 0 0 Z " fill="#212121" transform="translate(40,28)"/>
<path d="M0 0 C1.98 0 3.96 0 6 0 C6 1.65 6 3.3 6 5 C4.68 4.67 3.36 4.34 2 4 C1.67 4.66 1.34 5.32 1 6 C1 5.01 1 4.02 1 3 C-0.98 3 -2.96 3 -5 3 C-5 2.67 -5 2.34 -5 2 C-3.35 1.67 -1.7 1.34 0 1 C0 0.67 0 0.34 0 0 Z " fill="#100F10" transform="translate(13,27)"/>
<path d="M0 0 C2.31 0 4.62 0 7 0 C7.33 0.99 7.66 1.98 8 3 C5.69 3 3.38 3 1 3 C1 3.66 1 4.32 1 5 C0.34 5 -0.32 5 -1 5 C-0.67 3.35 -0.34 1.7 0 0 Z " fill="#525353" transform="translate(7,26)"/>
<path d="M0 0 C0.33 0.66 0.66 1.32 1 2 C2.98 1.67 4.96 1.34 7 1 C5.7260411 3.03833424 4.38938077 5.03852126 3 7 C2.34 7 1.68 7 1 7 C0.67 4.69 0.34 2.38 0 0 Z " fill="#3C393A" transform="translate(21,30)"/>
<path d="M0 0 C1.32 0.33 2.64 0.66 4 1 C3.01 1 2.02 1 1 1 C1.33 2.65 1.66 4.3 2 6 C0.68 6.33 -0.64 6.66 -2 7 C-2 3 -2 3 0 0 Z " fill="#434344" transform="translate(58,26)"/>
<path d="M0 0 C0.66 1.32 1.32 2.64 2 4 C1.01 5.485 1.01 5.485 0 7 C-2.625 7.1875 -2.625 7.1875 -5 7 C-4.67 6.01 -4.34 5.02 -4 4 C-3.01 4 -2.02 4 -1 4 C-0.67 2.68 -0.34 1.36 0 0 Z " fill="#636063" transform="translate(32,30)"/>
<path d="M0 0 C0.33 0 0.66 0 1 0 C1 3.3 1 6.6 1 10 C0.67 9.34 0.34 8.68 0 8 C-1.65 8 -3.3 8 -5 8 C-4.01 7.67 -3.02 7.34 -2 7 C-2 6.34 -2 5.68 -2 5 C-1.34 5 -0.68 5 0 5 C0 3.35 0 1.7 0 0 Z " fill="#403E40" transform="translate(19,27)"/>
<path d="M0 0 C0.99 0.33 1.98 0.66 3 1 C2.34 3.64 1.68 6.28 1 9 C0.67 9 0.34 9 0 9 C-0.12375 8.195625 -0.2475 7.39125 -0.375 6.5625 C-0.684375 5.2940625 -0.684375 5.2940625 -1 4 C-1.66 3.67 -2.32 3.34 -3 3 C-2.01 2.01 -1.02 1.02 0 0 Z " fill="#4B484A" transform="translate(37,28)"/>
</svg>
