<?xml version="1.0" encoding="UTF-8"?>
<svg version="1.1" xmlns="http://www.w3.org/2000/svg" width="25" height="25">
<path d="M0 0 C8.25 0 16.5 0 25 0 C25 8.25 25 16.5 25 25 C16.75 25 8.5 25 0 25 C0 16.75 0 8.5 0 0 Z " fill="#07051E" transform="translate(0,0)"/>
<path d="M0 0 C0.99 0.66 1.98 1.32 3 2 C3.69696335 5.71132984 3.59147788 9.27650593 3 13 C0.9375 15.25 0.9375 15.25 -2 16 C-6.23065693 15.78117292 -8.45829418 15.36113721 -12 13 C-12.69696335 9.28867016 -12.59147788 5.72349407 -12 2 C-8.40928907 -1.9171392 -4.89690081 -1.17888353 0 0 Z " fill="#A1A1A9" transform="translate(17,5)"/>
<path d="M0 0 C2.11984182 1.02572992 3.39936836 2.16864862 4.9375 3.9375 C2.25 5.625 2.25 5.625 -1.0625 6.9375 C-3.9375 5.625 -3.9375 5.625 -6.0625 3.9375 C-2.6533684 -0.0804051 -2.6533684 -0.0804051 0 0 Z " fill="#302E42" transform="translate(13.0625,5.0625)"/>
<path d="M0 0 C0.66 0 1.32 0 2 0 C2 2.31 2 4.62 2 7 C0.02 7.99 -1.96 8.98 -4 10 C-4 7.69 -4 5.38 -4 3 C-2.68 2.67 -1.36 2.34 0 2 C0 1.34 0 0.68 0 0 Z " fill="#2A293D" transform="translate(17,10)"/>
<path d="M0 0 C0.66 0 1.32 0 2 0 C2 0.66 2 1.32 2 2 C3.32 2.33 4.64 2.66 6 3 C6 5.31 6 7.62 6 10 C4.02 9.01 2.04 8.02 0 7 C0 4.69 0 2.38 0 0 Z " fill="#29283C" transform="translate(6,10)"/>
</svg>
