<?xml version="1.0" encoding="UTF-8"?>
<svg version="1.1" xmlns="http://www.w3.org/2000/svg" width="25" height="25">
<path d="M0 0 C8.25 0 16.5 0 25 0 C25 8.25 25 16.5 25 25 C16.75 25 8.5 25 0 25 C0 16.75 0 8.5 0 0 Z " fill="#FDFDFE" transform="translate(0,0)"/>
<path d="M0 0 C0.125 4.75 0.125 4.75 -1 7 C-1.039992 8.99960012 -1.04346799 11.00047242 -1 13 C-1.99 12.67 -2.98 12.34 -4 12 C-4 14.31 -4 16.62 -4 19 C-6.475 18.01 -6.475 18.01 -9 17 C-9 12.71 -9 8.42 -9 4 C-2.25 0 -2.25 0 0 0 Z " fill="#AF9EED" transform="translate(17,3)"/>
<path d="M0 0 C0 1.65 0 3.3 0 5 C-3.96 6.98 -3.96 6.98 -8 9 C-8 7.02 -8 5.04 -8 3 C-2.25 0 -2.25 0 0 0 Z " fill="#8871DD" transform="translate(17,3)"/>
<path d="M0 0 C1.32 0.33 2.64 0.66 4 1 C4 3.31 4 5.62 4 8 C2.68 7.34 1.36 6.68 0 6 C0 4.02 0 2.04 0 0 Z " fill="#7E66D9" transform="translate(9,14)"/>
</svg>
