<?xml version="1.0" encoding="UTF-8"?>
<!DOCTYPE svg PUBLIC "-//W3C//DTD SVG 1.1//EN" "http://www.w3.org/Graphics/SVG/1.1/DTD/svg11.dtd">
<svg xmlns="http://www.w3.org/2000/svg" version="1.1" width="200px" height="200px" style="shape-rendering:geometricPrecision; text-rendering:geometricPrecision; image-rendering:optimizeQuality; fill-rule:evenodd; clip-rule:evenodd" xmlns:xlink="http://www.w3.org/1999/xlink">
<g><path style="opacity:0.994" fill="#1b1012" d="M 87.5,-0.5 C 94.8333,-0.5 102.167,-0.5 109.5,-0.5C 111.265,0.461384 113.265,0.794717 115.5,0.5C 115.5,1.5 115.5,2.5 115.5,3.5C 116.5,3.5 117.5,3.5 118.5,3.5C 118.5,4.83333 118.5,6.16667 118.5,7.5C 117.5,7.5 116.5,7.5 115.5,7.5C 115.5,8.83333 115.5,10.1667 115.5,11.5C 114.167,11.5 112.833,11.5 111.5,11.5C 110.866,6.23402 110.199,6.23402 109.5,11.5C 111.154,18.0663 111.821,24.7329 111.5,31.5C 110.167,31.5 108.833,31.5 107.5,31.5C 107.5,34.1667 107.5,36.8333 107.5,39.5C 108.873,39.3433 110.207,39.51 111.5,40C 107.5,40.3333 103.5,40.6667 99.5,41C 101.437,41.1216 102.77,41.955 103.5,43.5C 101.901,43.2322 100.568,43.5655 99.5,44.5C 96.8478,44.4095 94.5145,45.0762 92.5,46.5C 84.3537,49.6435 78.0204,54.9769 73.5,62.5C 72.8333,62.5 72.5,62.8333 72.5,63.5C 72.1667,63.5 71.8333,63.5 71.5,63.5C 67.5,63.5 63.5,63.5 59.5,63.5C 58.8333,63.5 58.1667,63.5 57.5,63.5C 61.9819,62.6745 66.6486,62.1745 71.5,62C 60.8333,61 60.8333,60 71.5,59C 68.854,58.5026 66.1873,58.3359 63.5,58.5C 63.9577,55.6062 63.291,53.1062 61.5,51C 64.1667,50 64.1667,49 61.5,48C 63.0487,44.6862 64.382,41.1862 65.5,37.5C 63.9312,35.3476 63.4312,33.0143 64,30.5C 65.5695,30.67 67.4028,31.0033 69.5,31.5C 71.1485,24.9712 71.8151,18.3045 71.5,11.5C 72.8333,11.5 74.1667,11.5 75.5,11.5C 75.9279,7.76061 77.2612,4.42728 79.5,1.5C 82.2804,0.921588 84.9471,0.254922 87.5,-0.5 Z"/></g>
<g><path style="opacity:0.985" fill="#140d0e" d="M 79.5,1.5 C 77.2612,4.42728 75.9279,7.76061 75.5,11.5C 74.1667,11.5 72.8333,11.5 71.5,11.5C 71.8151,18.3045 71.1485,24.9712 69.5,31.5C 67.4028,31.0033 65.5695,30.67 64,30.5C 63.4312,33.0143 63.9312,35.3476 65.5,37.5C 64.382,41.1862 63.0487,44.6862 61.5,48C 64.1667,49 64.1667,50 61.5,51C 63.291,53.1062 63.9577,55.6062 63.5,58.5C 66.1873,58.3359 68.854,58.5026 71.5,59C 60.8333,60 60.8333,61 71.5,62C 66.6486,62.1745 61.9819,62.6745 57.5,63.5C 52.9593,65.2017 49.4593,68.2017 47,72.5C 46.3333,80.1667 46.3333,87.8333 47,95.5C 48.7261,96.5762 50.5594,96.7429 52.5,96C 53.2524,95.3292 53.5858,94.4959 53.5,93.5C 56.4309,91.9092 59.0976,89.9092 61.5,87.5C 63.5676,89.961 63.2342,92.461 60.5,95C 61.7932,95.49 63.1266,95.6567 64.5,95.5C 64.5,96.8333 64.5,98.1667 64.5,99.5C 63.5,99.5 62.5,99.5 61.5,99.5C 60.0042,108.765 59.3375,118.098 59.5,127.5C 60.8333,127.5 62.1667,127.5 63.5,127.5C 63.5,128.833 63.5,130.167 63.5,131.5C 61.5,131.5 59.5,131.5 57.5,131.5C 58.1667,134.167 58.8333,136.833 59.5,139.5C 60.8333,139.5 62.1667,139.5 63.5,139.5C 64.3129,141.887 64.6462,144.22 64.5,146.5C 63.8333,147.833 62.8333,148.833 61.5,149.5C 59.8235,148.817 59.1568,147.483 59.5,145.5C 58.325,145.281 57.325,145.614 56.5,146.5C 56.607,149.06 56.607,151.56 56.5,154C 57.3561,156.354 59.0228,157.854 61.5,158.5C 63.1667,158.5 64.8333,158.5 66.5,158.5C 67.4922,162.783 67.8256,167.116 67.5,171.5C 68.8333,171.5 70.1667,171.5 71.5,171.5C 71.4211,173.666 70.7545,175.666 69.5,177.5C 70.7545,179.334 71.4211,181.334 71.5,183.5C 72.8333,183.5 74.1667,183.5 75.5,183.5C 75.5,184.833 75.5,186.167 75.5,187.5C 76.8333,187.5 78.1667,187.5 79.5,187.5C 78.8333,190.167 78.1667,192.833 77.5,195.5C 57.2995,191.114 40.1328,181.447 26,166.5C 24.0627,166.821 22.5627,165.821 21.5,163.5C 22.8549,162.325 22.6883,161.325 21,160.5C 20.6667,160.833 20.3333,161.167 20,161.5C 18.4263,160.016 17.093,158.349 16,156.5C 16.9791,154.721 16.6458,153.055 15,151.5C 14.3333,150.167 13.6667,150.167 13,151.5C 9.72199,147.279 7.22199,142.612 5.5,137.5C 5.83333,136.833 6.16667,136.167 6.5,135.5C 5.23473,132.204 4.06806,128.871 3,125.5C 2.66667,126.5 2.33333,127.5 2,128.5C 2.99479,124.775 2.66146,121.108 1,117.5C 0.78997,119.058 0.28997,120.391 -0.5,121.5C -0.5,119.833 -0.5,118.167 -0.5,116.5C 0.833333,114.5 0.833333,112.5 -0.5,110.5C -0.5,102.5 -0.5,94.5 -0.5,86.5C 0.833333,84.8333 0.833333,83.1667 -0.5,81.5C -0.5,79.8333 -0.5,78.1667 -0.5,76.5C 0.620635,74.0458 1.45397,71.3791 2,68.5C 2.33333,69.5 2.66667,70.5 3,71.5C 4.78033,67.8888 5.447,64.2221 5,60.5C 5.66667,59.1667 6.33333,57.8333 7,56.5C 7.66667,57.8333 8.33333,57.8333 9,56.5C 9,55.1667 9,53.8333 9,52.5C 10.1313,53.6039 10.9646,53.2705 11.5,51.5C 10.3387,49.7763 10.5053,48.1096 12,46.5C 13.3333,44.5 14.6667,42.5 16,40.5C 17.2812,40.6192 18.4479,40.1192 19.5,39C 18.5494,38.2825 18.3828,37.4491 19,36.5C 21.3153,36.4257 23.1486,35.0924 24.5,32.5C 25.1667,32.5 25.5,32.1667 25.5,31.5C 26.1667,31.5 26.5,31.1667 26.5,30.5C 27.1667,30.5 27.5,30.1667 27.5,29.5C 28.1667,29.5 28.5,29.1667 28.5,28.5C 29.1667,28.5 29.5,28.1667 29.5,27.5C 30.1667,27.5 30.5,27.1667 30.5,26.5C 31.1667,26.5 31.5,26.1667 31.5,25.5C 45.3012,13.2661 61.3012,5.26606 79.5,1.5 Z"/></g>
<g><path style="opacity:0.988" fill="#231315" d="M 115.5,0.5 C 124.086,2.36194 132.419,5.02861 140.5,8.5C 140.215,12.9981 139.882,17.4981 139.5,22C 139.628,24.7073 140.295,27.2073 141.5,29.5C 139.711,32.5561 139.044,35.8894 139.5,39.5C 138.167,39.5 136.833,39.5 135.5,39.5C 134.724,42.5737 134.557,45.5737 135,48.5C 133.846,49.7433 132.512,50.7433 131,51.5C 131.263,50.0494 131.096,48.7161 130.5,47.5C 129.735,48.6119 128.735,49.2786 127.5,49.5C 127.167,49.5 126.833,49.5 126.5,49.5C 126.027,48.0937 125.027,47.427 123.5,47.5C 123.167,47.5 122.833,47.5 122.5,47.5C 120.698,46.5418 118.698,45.8751 116.5,45.5C 112.455,43.8227 108.122,43.1561 103.5,43.5C 102.77,41.955 101.437,41.1216 99.5,41C 103.5,40.6667 107.5,40.3333 111.5,40C 110.207,39.51 108.873,39.3433 107.5,39.5C 107.5,36.8333 107.5,34.1667 107.5,31.5C 108.833,31.5 110.167,31.5 111.5,31.5C 111.821,24.7329 111.154,18.0663 109.5,11.5C 110.199,6.23402 110.866,6.23402 111.5,11.5C 112.833,11.5 114.167,11.5 115.5,11.5C 115.5,10.1667 115.5,8.83333 115.5,7.5C 116.5,7.5 117.5,7.5 118.5,7.5C 118.5,6.16667 118.5,4.83333 118.5,3.5C 117.5,3.5 116.5,3.5 115.5,3.5C 115.5,2.5 115.5,1.5 115.5,0.5 Z"/></g>
<g><path style="opacity:0.008" fill="#120c0c" d="M 31.5,25.5 C 30.8333,25.5 30.5,25.8333 30.5,26.5C 29.8333,26.5 29.5,26.8333 29.5,27.5C 28.8333,27.5 28.5,27.8333 28.5,28.5C 27.8333,28.5 27.5,28.8333 27.5,29.5C 26.8333,29.5 26.5,29.8333 26.5,30.5C 25.8333,30.5 25.5,30.8333 25.5,31.5C 24.8333,31.5 24.5,31.8333 24.5,32.5C 23.475,32.1034 23.3083,31.4368 24,30.5C 25.8333,28.6667 27.6667,26.8333 29.5,25C 30.4368,24.3083 31.1034,24.475 31.5,25.5 Z"/></g>
<g><path style="opacity:0.975" fill="#2d1719" d="M 185.5,48.5 C 185.167,48.5 184.833,48.5 184.5,48.5C 184.167,47.1667 183.833,47.1667 183.5,48.5C 184.594,54.9049 181.927,57.2382 175.5,55.5C 175.5,63.5 175.5,71.5 175.5,79.5C 174.167,79.5 172.833,79.5 171.5,79.5C 171.5,82.1667 171.5,84.8333 171.5,87.5C 172.833,87.5 174.167,87.5 175.5,87.5C 175.945,94.8416 176.612,102.175 177.5,109.5C 177.357,113.619 176.69,117.619 175.5,121.5C 177.798,125.863 178.964,130.53 179,135.5C 179.49,134.207 179.657,132.873 179.5,131.5C 180.5,131.5 181.5,131.5 182.5,131.5C 182.343,132.873 182.51,134.207 183,135.5C 185.471,137.37 186.971,139.37 187.5,141.5C 187.833,142.833 188.167,142.833 188.5,141.5C 188.833,141.5 189.167,141.5 189.5,141.5C 186.746,148.686 182.746,155.019 177.5,160.5C 177.167,159.167 176.833,159.167 176.5,160.5C 175.167,160.833 175.167,161.167 176.5,161.5C 176.262,163.404 175.262,164.738 173.5,165.5C 173.167,164.167 172.833,164.167 172.5,165.5C 171.833,165.5 171.5,165.833 171.5,166.5C 170.833,166.5 170.5,166.833 170.5,167.5C 170.167,167.5 169.833,167.5 169.5,167.5C 167.656,165.721 166.99,163.388 167.5,160.5C 166.167,160.5 164.833,160.5 163.5,160.5C 163.296,157.482 162.963,154.482 162.5,151.5C 161.5,151.5 160.5,151.5 159.5,151.5C 159.5,150.167 159.5,148.833 159.5,147.5C 160.675,147.719 161.675,147.386 162.5,146.5C 160.666,144.502 159.666,142.168 159.5,139.5C 158.167,139.5 156.833,139.5 155.5,139.5C 155.5,132.833 155.5,126.167 155.5,119.5C 156.833,119.5 158.167,119.5 159.5,119.5C 159.5,118.167 159.5,116.833 159.5,115.5C 158.167,115.5 156.833,115.5 155.5,115.5C 155.334,111.154 155.501,106.821 156,102.5C 157.183,103.731 158.349,103.731 159.5,102.5C 157.335,100.275 154.668,99.1085 151.5,99C 156.833,98 156.833,97 151.5,96C 152.793,95.51 154.127,95.3433 155.5,95.5C 155.5,94.1667 155.5,92.8333 155.5,91.5C 153.508,91.3285 151.842,91.9951 150.5,93.5C 147.941,91.5434 148.274,89.8767 151.5,88.5C 151.245,86.6565 151.078,84.6565 151,82.5C 148.904,81.2845 149.071,80.4512 151.5,80C 150.217,77.2053 150.217,74.3719 151.5,71.5C 152.318,74.1071 152.818,76.7737 153,79.5C 154.117,76.9301 154.95,74.2634 155.5,71.5C 155.284,69.6161 154.617,67.9494 153.5,66.5C 156.075,63.3661 158.408,60.0327 160.5,56.5C 159.885,54.8839 158.885,53.5505 157.5,52.5C 158.82,50.7299 160.32,50.3966 162,51.5C 162.492,50.451 162.326,49.451 161.5,48.5C 161.846,47.3044 162.346,47.3044 163,48.5C 163.494,46.8659 163.66,45.1992 163.5,43.5C 166.276,43.9111 166.943,43.0777 165.5,41C 166.703,39.6315 167.703,38.1315 168.5,36.5C 166.922,35.7022 165.256,35.2022 163.5,35C 165.101,34.7266 166.601,34.2266 168,33.5C 170.149,34.8398 171.316,34.1731 171.5,31.5C 172.88,30.2935 174.047,30.6269 175,32.5C 175.617,33.4491 175.451,34.2825 174.5,35C 175.743,37.0338 177.243,37.8671 179,37.5C 179.617,38.4491 179.451,39.2825 178.5,40C 182,41.2905 184.334,44.1239 185.5,48.5 Z"/></g>
<g><path style="opacity:1" fill="#dd48b2" d="M 116.5,45.5 C 118.698,45.8751 120.698,46.5418 122.5,47.5C 121.325,47.281 120.325,47.6143 119.5,48.5C 120.833,49.8333 120.833,51.1667 119.5,52.5C 119.977,53.4776 120.643,54.3109 121.5,55C 119.709,63.5724 118.876,72.4058 119,81.5C 116.887,83.2711 117.053,84.7711 119.5,86C 119.167,86.3333 118.833,86.6667 118.5,87C 120.788,89.7291 120.955,92.5624 119,95.5C 118.667,94.5 118.333,93.5 118,92.5C 117.833,93.1667 117.667,93.8333 117.5,94.5C 119.469,97.1676 119.802,100.001 118.5,103C 119.133,106.459 119.8,109.959 120.5,113.5C 121.396,112.494 122.062,112.494 122.5,113.5C 120.578,115.687 118.912,118.02 117.5,120.5C 114.402,120.413 114.068,120.913 116.5,122C 115.646,123.022 114.646,123.855 113.5,124.5C 112.424,119.817 111.09,115.317 109.5,111C 112.081,108.84 112.081,106.674 109.5,104.5C 111.605,102.408 113.272,100.075 114.5,97.5C 116.299,94.4954 116.966,91.162 116.5,87.5C 114.179,83.161 112.179,78.661 110.5,74C 111.429,65.1972 111.763,56.3638 111.5,47.5C 115.449,47.3068 115.449,46.8068 111.5,46C 113.134,45.5065 114.801,45.3398 116.5,45.5 Z"/></g>
<g><path style="opacity:1" fill="#dc46bb" d="M 122.5,47.5 C 122.833,47.5 123.167,47.5 123.5,47.5C 123.973,48.9063 124.973,49.573 126.5,49.5C 126.833,49.5 127.167,49.5 127.5,49.5C 127.5,49.8333 127.5,50.1667 127.5,50.5C 125.396,50.2011 123.396,50.5344 121.5,51.5C 122.167,52.5 122.833,53.5 123.5,54.5C 122.18,73.4651 122.18,92.4651 123.5,111.5C 124.172,112.949 124.839,114.282 125.5,115.5C 125.5,115.833 125.5,116.167 125.5,116.5C 123.5,118.167 121.5,119.833 119.5,121.5C 118.508,121.672 117.842,121.338 117.5,120.5C 118.912,118.02 120.578,115.687 122.5,113.5C 122.062,112.494 121.396,112.494 120.5,113.5C 119.8,109.959 119.133,106.459 118.5,103C 119.802,100.001 119.469,97.1676 117.5,94.5C 117.667,93.8333 117.833,93.1667 118,92.5C 118.333,93.5 118.667,94.5 119,95.5C 120.955,92.5624 120.788,89.7291 118.5,87C 118.833,86.6667 119.167,86.3333 119.5,86C 117.053,84.7711 116.887,83.2711 119,81.5C 118.876,72.4058 119.709,63.5724 121.5,55C 120.643,54.3109 119.977,53.4776 119.5,52.5C 120.833,51.1667 120.833,49.8333 119.5,48.5C 120.325,47.6143 121.325,47.281 122.5,47.5 Z"/></g>
<g><path style="opacity:1" fill="#712661" d="M 123.5,47.5 C 125.027,47.427 126.027,48.0937 126.5,49.5C 124.973,49.573 123.973,48.9063 123.5,47.5 Z"/></g>
<g><path style="opacity:0.923" fill="#34191d" d="M 183.5,48.5 C 183.833,48.5 184.167,48.5 184.5,48.5C 184.833,49.8333 185.167,49.8333 185.5,48.5C 187.81,51.1019 189.643,54.1019 191,57.5C 191.595,58.8989 191.428,60.2322 190.5,61.5C 191.183,64.4614 192.016,64.7947 193,62.5C 195.939,69.9209 197.772,77.5876 198.5,85.5C 197.167,94.1667 197.167,102.833 198.5,111.5C 198.57,115.425 197.903,119.091 196.5,122.5C 196.167,117.167 195.833,117.167 195.5,122.5C 194.167,123.5 194.167,124.5 195.5,125.5C 195.768,127.099 195.434,128.432 194.5,129.5C 194.167,125.5 193.833,125.5 193.5,129.5C 192.596,130.209 192.263,131.209 192.5,132.5C 191.167,133.167 191.167,133.833 192.5,134.5C 192.598,136.553 191.931,138.22 190.5,139.5C 190.167,136.833 189.833,136.833 189.5,139.5C 188.662,139.842 188.328,140.508 188.5,141.5C 188.167,141.5 187.833,141.5 187.5,141.5C 186.971,139.37 185.471,137.37 183,135.5C 182.51,134.207 182.343,132.873 182.5,131.5C 181.5,131.5 180.5,131.5 179.5,131.5C 179.657,132.873 179.49,134.207 179,135.5C 178.964,130.53 177.798,125.863 175.5,121.5C 176.69,117.619 177.357,113.619 177.5,109.5C 176.612,102.175 175.945,94.8416 175.5,87.5C 174.167,87.5 172.833,87.5 171.5,87.5C 171.5,84.8333 171.5,82.1667 171.5,79.5C 172.833,79.5 174.167,79.5 175.5,79.5C 175.5,71.5 175.5,63.5 175.5,55.5C 181.927,57.2382 184.594,54.9049 183.5,48.5 Z"/></g>
<g><path style="opacity:1" fill="#dc587a" d="M 92.5,46.5 C 92.6602,48.1992 92.4935,49.8659 92,51.5C 90.6439,50.6198 89.1439,50.2865 87.5,50.5C 87.5497,53.1977 86.5497,55.3644 84.5,57C 85.8146,58.3946 85.4812,59.3946 83.5,60C 85.437,60.1216 86.7703,60.955 87.5,62.5C 82.8333,62.5 78.1667,62.5 73.5,62.5C 78.0204,54.9769 84.3537,49.6435 92.5,46.5 Z"/></g>
<g><path style="opacity:1" fill="#dc43c4" d="M 127.5,50.5 C 129.389,51.604 131.055,52.9373 132.5,54.5C 130.769,56.3043 129.103,57.471 127.5,58C 128.272,59.221 129.272,60.221 130.5,61C 129.328,61.4186 128.328,62.0853 127.5,63C 128.811,77.4512 128.811,91.9512 127.5,106.5C 127.556,107.737 128.056,108.737 129,109.5C 129.77,108.402 130.603,108.402 131.5,109.5C 129.833,111.833 127.833,113.833 125.5,115.5C 124.839,114.282 124.172,112.949 123.5,111.5C 122.18,92.4651 122.18,73.4651 123.5,54.5C 122.833,53.5 122.167,52.5 121.5,51.5C 123.396,50.5344 125.396,50.2011 127.5,50.5 Z"/></g>
<g><path style="opacity:1" fill="#e3538a" d="M 99.5,44.5 C 98.7375,45.2679 97.7375,45.7679 96.5,46C 97.416,51.4704 98.0826,56.8037 98.5,62C 94.8484,62.4986 91.1817,62.6653 87.5,62.5C 86.7703,60.955 85.437,60.1216 83.5,60C 85.4812,59.3946 85.8146,58.3946 84.5,57C 86.5497,55.3644 87.5497,53.1977 87.5,50.5C 89.1439,50.2865 90.6439,50.6198 92,51.5C 92.4935,49.8659 92.6602,48.1992 92.5,46.5C 94.5145,45.0762 96.8478,44.4095 99.5,44.5 Z"/></g>
<g><path style="opacity:1" fill="#da3fd0" d="M 132.5,54.5 C 136.693,58.0228 139.693,62.3562 141.5,67.5C 139.648,66.9111 137.815,66.2444 136,65.5C 135.833,66.1667 135.667,66.8333 135.5,67.5C 136.607,69.8807 137.273,72.3807 137.5,75C 136.248,84.7954 136.248,93.962 137.5,102.5C 136.2,105.432 134.2,107.766 131.5,109.5C 130.603,108.402 129.77,108.402 129,109.5C 128.056,108.737 127.556,107.737 127.5,106.5C 128.811,91.9512 128.811,77.4512 127.5,63C 128.328,62.0853 129.328,61.4186 130.5,61C 129.272,60.221 128.272,59.221 127.5,58C 129.103,57.471 130.769,56.3043 132.5,54.5 Z"/></g>
<g><path style="opacity:1" fill="#9a44e8" d="M 71.5,63.5 C 71.8333,63.5 72.1667,63.5 72.5,63.5C 76.5,63.5 80.5,63.5 84.5,63.5C 81.4458,67.2209 78.1125,70.5542 74.5,73.5C 73.7611,73.631 73.0944,73.4643 72.5,73C 73.6956,72.3457 73.6956,71.8457 72.5,71.5C 71.1374,72.8793 70.1374,72.7126 69.5,71C 70.1667,70 70.8333,69 71.5,68C 71.1639,66.9701 70.4972,66.4701 69.5,66.5C 70.1667,65.5 70.8333,64.5 71.5,63.5 Z"/></g>
<g><path style="opacity:1" fill="#e1a0ea" d="M 95.5,63.5 C 100.099,63.2 104.599,63.5333 109,64.5C 109.667,65.8333 109.667,67.1667 109,68.5C 105.641,70.6952 102.807,73.3619 100.5,76.5C 98.4176,76.472 96.5843,77.1387 95,78.5C 94.5,78 94,77.5 93.5,77C 94.87,75.5587 95.87,73.892 96.5,72C 94.9526,72.7127 93.2859,73.546 91.5,74.5C 90.2867,74.2528 89.62,73.5862 89.5,72.5C 91.5091,73.9997 92.8424,73.4997 93.5,71C 93.2517,69.2509 92.2517,68.4176 90.5,68.5C 92.665,67.0645 94.165,67.7312 95,70.5C 95.6836,68.5211 95.1836,66.8544 93.5,65.5C 94.2427,64.8182 94.9094,64.1515 95.5,63.5 Z"/></g>
<g><path style="opacity:1" fill="#a65ceb" d="M 69.5,66.5 C 70.4972,66.4701 71.1639,66.9701 71.5,68C 70.8333,69 70.1667,70 69.5,71C 70.1374,72.7126 71.1374,72.8793 72.5,71.5C 73.6956,71.8457 73.6956,72.3457 72.5,73C 73.0944,73.4643 73.7611,73.631 74.5,73.5C 74.1667,74.1667 73.8333,74.8333 73.5,75.5C 70.8333,77.5 68.5,79.8333 66.5,82.5C 66.1667,82.5 65.8333,82.5 65.5,82.5C 62.5,82.5 59.5,82.5 56.5,82.5C 56.3433,81.1266 56.51,79.7932 57,78.5C 61.0356,74.2964 65.2022,70.2964 69.5,66.5 Z"/></g>
<g><path style="opacity:1" fill="#4a48c9" d="M 57.5,63.5 C 58.1667,63.5 58.8333,63.5 59.5,63.5C 58.158,64.793 56.4913,65.6264 54.5,66C 54.9574,66.414 55.2907,66.914 55.5,67.5C 53.0105,69.6554 51.3439,72.322 50.5,75.5C 51.2787,80.1133 51.7787,84.78 52,89.5C 53.9142,90.676 53.7476,91.676 51.5,92.5C 51.9569,93.2975 52.6236,93.6309 53.5,93.5C 53.5858,94.4959 53.2524,95.3292 52.5,96C 50.5594,96.7429 48.7261,96.5762 47,95.5C 46.3333,87.8333 46.3333,80.1667 47,72.5C 49.4593,68.2017 52.9593,65.2017 57.5,63.5 Z"/></g>
<g><path style="opacity:1" fill="#914abb" d="M 90.5,68.5 C 92.2517,68.4176 93.2517,69.2509 93.5,71C 92.8424,73.4997 91.5091,73.9997 89.5,72.5C 89.4326,71.0413 89.7659,69.7079 90.5,68.5 Z"/></g>
<g><path style="opacity:1" fill="#5c46d9" d="M 59.5,63.5 C 63.5,63.5 67.5,63.5 71.5,63.5C 70.8333,64.5 70.1667,65.5 69.5,66.5C 65.2022,70.2964 61.0356,74.2964 57,78.5C 56.51,79.7932 56.3433,81.1266 56.5,82.5C 59.5,82.5 62.5,82.5 65.5,82.5C 64.1667,84.1667 62.8333,85.8333 61.5,87.5C 59.0976,89.9092 56.4309,91.9092 53.5,93.5C 52.6236,93.6309 51.9569,93.2975 51.5,92.5C 53.7476,91.676 53.9142,90.676 52,89.5C 51.7787,84.78 51.2787,80.1133 50.5,75.5C 51.3439,72.322 53.0105,69.6554 55.5,67.5C 55.2907,66.914 54.9574,66.414 54.5,66C 56.4913,65.6264 58.158,64.793 59.5,63.5 Z"/></g>
<g><path style="opacity:1" fill="#db4ea2" d="M 103.5,43.5 C 108.122,43.1561 112.455,43.8227 116.5,45.5C 114.801,45.3398 113.134,45.5065 111.5,46C 115.449,46.8068 115.449,47.3068 111.5,47.5C 111.763,56.3638 111.429,65.1972 110.5,74C 112.179,78.661 114.179,83.161 116.5,87.5C 114.704,86.2073 113.037,84.7073 111.5,83C 106.177,82.5006 100.844,82.334 95.5,82.5C 97.1667,80.5 98.8333,78.5 100.5,76.5C 102.807,73.3619 105.641,70.6952 109,68.5C 109.667,67.1667 109.667,65.8333 109,64.5C 104.599,63.5333 100.099,63.2 95.5,63.5C 91.8333,63.5 88.1667,63.5 84.5,63.5C 80.5,63.5 76.5,63.5 72.5,63.5C 72.5,62.8333 72.8333,62.5 73.5,62.5C 78.1667,62.5 82.8333,62.5 87.5,62.5C 91.1817,62.6653 94.8484,62.4986 98.5,62C 98.0826,56.8037 97.416,51.4704 96.5,46C 97.7375,45.7679 98.7375,45.2679 99.5,44.5C 100.568,43.5655 101.901,43.2322 103.5,43.5 Z"/></g>
<g><path style="opacity:1" fill="#d33bd6" d="M 141.5,67.5 C 146.266,79.892 144.932,91.5586 137.5,102.5C 136.248,93.962 136.248,84.7954 137.5,75C 137.273,72.3807 136.607,69.8807 135.5,67.5C 135.667,66.8333 135.833,66.1667 136,65.5C 137.815,66.2444 139.648,66.9111 141.5,67.5 Z"/></g>
<g><path style="opacity:1" fill="#dea6e3" d="M 84.5,63.5 C 88.1667,63.5 91.8333,63.5 95.5,63.5C 94.9094,64.1515 94.2427,64.8182 93.5,65.5C 95.1836,66.8544 95.6836,68.5211 95,70.5C 94.165,67.7312 92.665,67.0645 90.5,68.5C 89.7659,69.7079 89.4326,71.0413 89.5,72.5C 89.62,73.5862 90.2867,74.2528 91.5,74.5C 93.2859,73.546 94.9526,72.7127 96.5,72C 95.87,73.892 94.87,75.5587 93.5,77C 94,77.5 94.5,78 95,78.5C 96.5843,77.1387 98.4176,76.472 100.5,76.5C 98.8333,78.5 97.1667,80.5 95.5,82.5C 95.1667,82.5 94.8333,82.5 94.5,82.5C 92.3926,81.5318 90.0593,81.1984 87.5,81.5C 87.2739,78.7508 87.6072,76.0841 88.5,73.5C 86.9918,71.4925 85.1584,69.8259 83,68.5C 81.3509,70.6499 79.5176,72.6499 77.5,74.5C 76.914,74.2907 76.414,73.9574 76,73.5C 75.5831,74.756 74.7498,75.4226 73.5,75.5C 73.8333,74.8333 74.1667,74.1667 74.5,73.5C 78.1125,70.5542 81.4458,67.2209 84.5,63.5 Z"/></g>
<g><path style="opacity:1" fill="#dcaddd" d="M 94.5,82.5 C 85.1667,82.5 75.8333,82.5 66.5,82.5C 68.5,79.8333 70.8333,77.5 73.5,75.5C 74.7498,75.4226 75.5831,74.756 76,73.5C 76.414,73.9574 76.914,74.2907 77.5,74.5C 79.5176,72.6499 81.3509,70.6499 83,68.5C 85.1584,69.8259 86.9918,71.4925 88.5,73.5C 87.6072,76.0841 87.2739,78.7508 87.5,81.5C 90.0593,81.1984 92.3926,81.5318 94.5,82.5 Z"/></g>
<g><path style="opacity:0.992" fill="#291517" d="M 140.5,8.5 C 152.267,14.271 162.6,21.9377 171.5,31.5C 171.316,34.1731 170.149,34.8398 168,33.5C 166.601,34.2266 165.101,34.7266 163.5,35C 165.256,35.2022 166.922,35.7022 168.5,36.5C 167.703,38.1315 166.703,39.6315 165.5,41C 166.943,43.0777 166.276,43.9111 163.5,43.5C 163.66,45.1992 163.494,46.8659 163,48.5C 162.346,47.3044 161.846,47.3044 161.5,48.5C 162.326,49.451 162.492,50.451 162,51.5C 160.32,50.3966 158.82,50.7299 157.5,52.5C 158.885,53.5505 159.885,54.8839 160.5,56.5C 158.408,60.0327 156.075,63.3661 153.5,66.5C 154.617,67.9494 155.284,69.6161 155.5,71.5C 154.95,74.2634 154.117,76.9301 153,79.5C 152.818,76.7737 152.318,74.1071 151.5,71.5C 150.217,74.3719 150.217,77.2053 151.5,80C 149.071,80.4512 148.904,81.2845 151,82.5C 151.078,84.6565 151.245,86.6565 151.5,88.5C 148.274,89.8767 147.941,91.5434 150.5,93.5C 151.842,91.9951 153.508,91.3285 155.5,91.5C 155.5,92.8333 155.5,94.1667 155.5,95.5C 154.127,95.3433 152.793,95.51 151.5,96C 156.833,97 156.833,98 151.5,99C 154.668,99.1085 157.335,100.275 159.5,102.5C 158.349,103.731 157.183,103.731 156,102.5C 155.501,106.821 155.334,111.154 155.5,115.5C 156.833,115.5 158.167,115.5 159.5,115.5C 159.5,116.833 159.5,118.167 159.5,119.5C 158.167,119.5 156.833,119.5 155.5,119.5C 155.5,126.167 155.5,132.833 155.5,139.5C 156.833,139.5 158.167,139.5 159.5,139.5C 159.666,142.168 160.666,144.502 162.5,146.5C 161.675,147.386 160.675,147.719 159.5,147.5C 159.5,148.833 159.5,150.167 159.5,151.5C 160.5,151.5 161.5,151.5 162.5,151.5C 162.963,154.482 163.296,157.482 163.5,160.5C 164.833,160.5 166.167,160.5 167.5,160.5C 166.99,163.388 167.656,165.721 169.5,167.5C 169.5,167.833 169.5,168.167 169.5,168.5C 168.833,168.5 168.5,168.833 168.5,169.5C 167.833,169.5 167.5,169.833 167.5,170.5C 166.833,170.5 166.5,170.833 166.5,171.5C 165.833,171.5 165.5,171.833 165.5,172.5C 164.833,172.5 164.5,172.833 164.5,173.5C 163.833,173.5 163.5,173.833 163.5,174.5C 162.508,174.328 161.842,174.662 161.5,175.5C 160.833,175.5 160.5,175.833 160.5,176.5C 159.833,176.5 159.5,176.833 159.5,177.5C 158.833,177.5 158.5,177.833 158.5,178.5C 157.508,178.328 156.842,178.662 156.5,179.5C 155.833,179.5 155.5,179.833 155.5,180.5C 154.508,180.328 153.842,180.662 153.5,181.5C 152.833,181.5 152.5,181.833 152.5,182.5C 151.508,182.328 150.842,182.662 150.5,183.5C 150.167,183.5 149.833,183.5 149.5,183.5C 147.5,183.5 145.5,183.5 143.5,183.5C 143.5,178.167 143.5,172.833 143.5,167.5C 142.167,167.5 140.833,167.5 139.5,167.5C 139.5,164.833 139.5,162.167 139.5,159.5C 138.167,159.5 136.833,159.5 135.5,159.5C 135.5,154.167 135.5,148.833 135.5,143.5C 134.167,143.5 132.833,143.5 131.5,143.5C 131.5,140.833 131.5,138.167 131.5,135.5C 130.167,135.5 128.833,135.5 127.5,135.5C 127.988,132.289 127.321,129.456 125.5,127C 126.628,123.752 126.628,120.252 125.5,116.5C 125.5,116.167 125.5,115.833 125.5,115.5C 127.833,113.833 129.833,111.833 131.5,109.5C 134.2,107.766 136.2,105.432 137.5,102.5C 144.932,91.5586 146.266,79.892 141.5,67.5C 139.693,62.3562 136.693,58.0228 132.5,54.5C 131.055,52.9373 129.389,51.604 127.5,50.5C 127.5,50.1667 127.5,49.8333 127.5,49.5C 128.735,49.2786 129.735,48.6119 130.5,47.5C 131.096,48.7161 131.263,50.0494 131,51.5C 132.512,50.7433 133.846,49.7433 135,48.5C 134.557,45.5737 134.724,42.5737 135.5,39.5C 136.833,39.5 138.167,39.5 139.5,39.5C 139.044,35.8894 139.711,32.5561 141.5,29.5C 140.295,27.2073 139.628,24.7073 139.5,22C 139.882,17.4981 140.215,12.9981 140.5,8.5 Z"/></g>
<g><path style="opacity:1" fill="#1d1111" d="M 65.5,82.5 C 65.8333,82.5 66.1667,82.5 66.5,82.5C 75.8333,82.5 85.1667,82.5 94.5,82.5C 94.8333,82.5 95.1667,82.5 95.5,82.5C 100.844,82.334 106.177,82.5006 111.5,83C 113.037,84.7073 114.704,86.2073 116.5,87.5C 116.966,91.162 116.299,94.4954 114.5,97.5C 110.5,100.833 106.833,104.5 103.5,108.5C 102.167,109.167 101.167,110.167 100.5,111.5C 95.8333,115.5 91.5,119.833 87.5,124.5C 84.5,126.833 81.8333,129.5 79.5,132.5C 78.1667,133.167 77.1667,134.167 76.5,135.5C 72.5,139.167 68.5,142.833 64.5,146.5C 64.6462,144.22 64.3129,141.887 63.5,139.5C 62.1667,139.5 60.8333,139.5 59.5,139.5C 58.8333,136.833 58.1667,134.167 57.5,131.5C 59.5,131.5 61.5,131.5 63.5,131.5C 63.5,130.167 63.5,128.833 63.5,127.5C 62.1667,127.5 60.8333,127.5 59.5,127.5C 59.3375,118.098 60.0042,108.765 61.5,99.5C 62.5,99.5 63.5,99.5 64.5,99.5C 64.5,98.1667 64.5,96.8333 64.5,95.5C 63.1266,95.6567 61.7932,95.49 60.5,95C 63.2342,92.461 63.5676,89.961 61.5,87.5C 62.8333,85.8333 64.1667,84.1667 65.5,82.5 Z"/></g>
<g><path style="opacity:0.014" fill="#371b1f" d="M 198.5,85.5 C 198.833,85.5 199.167,85.5 199.5,85.5C 199.5,94.1667 199.5,102.833 199.5,111.5C 199.167,111.5 198.833,111.5 198.5,111.5C 198.5,102.833 198.5,94.1667 198.5,85.5 Z"/></g>
<g><path style="opacity:1" fill="#de4ca5" d="M 114.5,97.5 C 113.272,100.075 111.605,102.408 109.5,104.5C 112.081,106.674 112.081,108.84 109.5,111C 111.09,115.317 112.424,119.817 113.5,124.5C 114.646,123.855 115.646,123.022 116.5,122C 114.068,120.913 114.402,120.413 117.5,120.5C 117.842,121.338 118.508,121.672 119.5,121.5C 115.167,126.5 110.5,131.167 105.5,135.5C 104.5,135.5 103.5,135.5 102.5,135.5C 102.192,129.575 102.525,123.741 103.5,118C 102.572,117.612 101.905,116.945 101.5,116C 102.871,113.681 103.538,111.181 103.5,108.5C 106.833,104.5 110.5,100.833 114.5,97.5 Z"/></g>
<g><path style="opacity:1" fill="#e05097" d="M 103.5,108.5 C 103.538,111.181 102.871,113.681 101.5,116C 101.905,116.945 102.572,117.612 103.5,118C 102.525,123.741 102.192,129.575 102.5,135.5C 103.5,135.5 104.5,135.5 105.5,135.5C 102.833,138.833 99.8333,141.833 96.5,144.5C 95.7001,140.919 97.0335,138.086 100.5,136C 99.552,135.517 98.552,135.351 97.5,135.5C 97.7068,128.515 97.7068,122.015 97.5,116C 99.1412,114.871 100.141,113.371 100.5,111.5C 101.167,110.167 102.167,109.167 103.5,108.5 Z"/></g>
<g><path style="opacity:0.012" fill="#351b1e" d="M 195.5,122.5 C 195.833,122.5 196.167,122.5 196.5,122.5C 196.737,123.791 196.404,124.791 195.5,125.5C 195.5,124.5 195.5,123.5 195.5,122.5 Z"/></g>
<g><path style="opacity:1" fill="#e1538b" d="M 100.5,111.5 C 100.141,113.371 99.1412,114.871 97.5,116C 97.7068,122.015 97.7068,128.515 97.5,135.5C 98.552,135.351 99.552,135.517 100.5,136C 97.0335,138.086 95.7001,140.919 96.5,144.5C 93.8333,147.833 90.8333,150.833 87.5,153.5C 87.3381,143.609 87.3381,133.943 87.5,124.5C 91.5,119.833 95.8333,115.5 100.5,111.5 Z"/></g>
<g><path style="opacity:0.009" fill="#331a1d" d="M 193.5,129.5 C 193.833,129.5 194.167,129.5 194.5,129.5C 194.737,130.791 194.404,131.791 193.5,132.5C 193.5,131.5 193.5,130.5 193.5,129.5 Z"/></g>
<g><path style="opacity:0.014" fill="#331a1d" d="M 192.5,132.5 C 192.833,132.5 193.167,132.5 193.5,132.5C 193.672,133.492 193.338,134.158 192.5,134.5C 192.5,133.833 192.5,133.167 192.5,132.5 Z"/></g>
<g><path style="opacity:1" fill="#e25880" d="M 87.5,124.5 C 87.3381,133.943 87.3381,143.609 87.5,153.5C 87.1667,154.167 86.8333,154.833 86.5,155.5C 84.7162,155.893 83.0495,156.559 81.5,157.5C 80.5084,157.672 79.8417,157.338 79.5,156.5C 84.2478,155.996 84.5811,154.662 80.5,152.5C 81.8333,146.167 83.1667,139.833 84.5,133.5C 83.8555,132.268 83.6888,130.935 84,129.5C 82.871,131.141 81.371,132.141 79.5,132.5C 81.8333,129.5 84.5,126.833 87.5,124.5 Z"/></g>
<g><path style="opacity:0.01" fill="#311a19" d="M 189.5,139.5 C 189.833,139.5 190.167,139.5 190.5,139.5C 190.672,140.492 190.338,141.158 189.5,141.5C 189.5,140.833 189.5,140.167 189.5,139.5 Z"/></g>
<g><path style="opacity:1" fill="#e75b73" d="M 79.5,156.5 C 77.0359,156.176 74.3692,156.009 71.5,156C 71.8333,155.667 72.1667,155.333 72.5,155C 71.2842,153.26 69.6175,152.26 67.5,152C 67.8333,151.667 68.1667,151.333 68.5,151C 67.1667,150.333 66.1667,149.333 65.5,148C 69.77,144.239 73.4367,140.072 76.5,135.5C 77.1667,134.167 78.1667,133.167 79.5,132.5C 81.371,132.141 82.871,131.141 84,129.5C 83.6888,130.935 83.8555,132.268 84.5,133.5C 83.1667,139.833 81.8333,146.167 80.5,152.5C 84.5811,154.662 84.2478,155.996 79.5,156.5 Z"/></g>
<g><path style="opacity:0.985" fill="#221213" d="M 125.5,116.5 C 126.628,120.252 126.628,123.752 125.5,127C 127.321,129.456 127.988,132.289 127.5,135.5C 128.833,135.5 130.167,135.5 131.5,135.5C 131.5,138.167 131.5,140.833 131.5,143.5C 132.833,143.5 134.167,143.5 135.5,143.5C 135.5,148.833 135.5,154.167 135.5,159.5C 136.833,159.5 138.167,159.5 139.5,159.5C 139.5,162.167 139.5,164.833 139.5,167.5C 140.833,167.5 142.167,167.5 143.5,167.5C 143.5,172.833 143.5,178.167 143.5,183.5C 145.5,183.5 147.5,183.5 149.5,183.5C 149.5,183.833 149.5,184.167 149.5,184.5C 148.508,184.328 147.842,184.662 147.5,185.5C 146.508,185.328 145.842,185.662 145.5,186.5C 144.508,186.328 143.842,186.662 143.5,187.5C 142.508,187.328 141.842,187.662 141.5,188.5C 140.508,188.328 139.842,188.662 139.5,189.5C 138.508,189.328 137.842,189.662 137.5,190.5C 136.209,190.263 135.209,190.596 134.5,191.5C 133.508,191.328 132.842,191.662 132.5,192.5C 131.209,192.263 130.209,192.596 129.5,193.5C 128.209,193.263 127.209,193.596 126.5,194.5C 124.901,194.232 123.568,194.566 122.5,195.5C 121.5,195.5 120.5,195.5 119.5,195.5C 119.5,194.167 119.5,192.833 119.5,191.5C 116.833,191.5 114.167,191.5 111.5,191.5C 111.5,186.167 111.5,180.833 111.5,175.5C 108.833,175.5 106.167,175.5 103.5,175.5C 103.5,170.167 103.5,164.833 103.5,159.5C 102.5,159.5 101.5,159.5 100.5,159.5C 100.336,156.813 100.503,154.146 101,151.5C 101.645,150.354 102.478,149.354 103.5,148.5C 103.167,148.167 102.833,147.833 102.5,147.5C 100.705,149.703 98.3712,150.869 95.5,151C 95.2364,154.708 93.4031,157.208 90,158.5C 88.9412,158.37 88.1079,157.87 87.5,157C 88.7659,156.691 89.9326,156.191 91,155.5C 91.6877,154.668 91.521,154.002 90.5,153.5C 89.3777,154.63 88.0443,155.297 86.5,155.5C 86.8333,154.833 87.1667,154.167 87.5,153.5C 90.8333,150.833 93.8333,147.833 96.5,144.5C 99.8333,141.833 102.833,138.833 105.5,135.5C 110.5,131.167 115.167,126.5 119.5,121.5C 121.5,119.833 123.5,118.167 125.5,116.5 Z"/></g>
<g><path style="opacity:1" fill="#cf5966" d="M 76.5,135.5 C 73.4367,140.072 69.77,144.239 65.5,148C 66.1667,149.333 67.1667,150.333 68.5,151C 68.1667,151.333 67.8333,151.667 67.5,152C 69.6175,152.26 71.2842,153.26 72.5,155C 72.1667,155.333 71.8333,155.667 71.5,156C 74.3692,156.009 77.0359,156.176 79.5,156.5C 79.8417,157.338 80.5084,157.672 81.5,157.5C 74.43,158.774 67.93,157.107 62,152.5C 61.5172,151.552 61.3505,150.552 61.5,149.5C 62.8333,148.833 63.8333,147.833 64.5,146.5C 68.5,142.833 72.5,139.167 76.5,135.5 Z"/></g>
<g><path style="opacity:0.986" fill="#1b1010" d="M 61.5,149.5 C 61.3505,150.552 61.5172,151.552 62,152.5C 67.93,157.107 74.43,158.774 81.5,157.5C 83.0495,156.559 84.7162,155.893 86.5,155.5C 88.0443,155.297 89.3777,154.63 90.5,153.5C 91.521,154.002 91.6877,154.668 91,155.5C 89.9326,156.191 88.7659,156.691 87.5,157C 88.1079,157.87 88.9412,158.37 90,158.5C 93.4031,157.208 95.2364,154.708 95.5,151C 98.3712,150.869 100.705,149.703 102.5,147.5C 102.833,147.833 103.167,148.167 103.5,148.5C 102.478,149.354 101.645,150.354 101,151.5C 100.503,154.146 100.336,156.813 100.5,159.5C 101.5,159.5 102.5,159.5 103.5,159.5C 103.5,164.833 103.5,170.167 103.5,175.5C 106.167,175.5 108.833,175.5 111.5,175.5C 111.5,180.833 111.5,186.167 111.5,191.5C 114.167,191.5 116.833,191.5 119.5,191.5C 119.5,192.833 119.5,194.167 119.5,195.5C 118.508,195.328 117.842,195.662 117.5,196.5C 115.265,196.205 113.265,196.539 111.5,197.5C 100.065,197.958 88.732,197.292 77.5,195.5C 78.1667,192.833 78.8333,190.167 79.5,187.5C 78.1667,187.5 76.8333,187.5 75.5,187.5C 75.5,186.167 75.5,184.833 75.5,183.5C 74.1667,183.5 72.8333,183.5 71.5,183.5C 71.4211,181.334 70.7545,179.334 69.5,177.5C 70.7545,175.666 71.4211,173.666 71.5,171.5C 70.1667,171.5 68.8333,171.5 67.5,171.5C 67.8256,167.116 67.4922,162.783 66.5,158.5C 64.8333,158.5 63.1667,158.5 61.5,158.5C 59.0228,157.854 57.3561,156.354 56.5,154C 56.607,151.56 56.607,149.06 56.5,146.5C 57.325,145.614 58.325,145.281 59.5,145.5C 59.1568,147.483 59.8235,148.817 61.5,149.5 Z"/></g>
<g><path style="opacity:0.016" fill="#2c1816" d="M 176.5,160.5 C 176.833,160.5 177.167,160.5 177.5,160.5C 177.315,161.17 176.981,161.17 176.5,160.5 Z"/></g>
<g><path style="opacity:0.012" fill="#2c1718" d="M 172.5,165.5 C 172.833,165.5 173.167,165.5 173.5,165.5C 173.315,166.17 172.981,166.17 172.5,165.5 Z"/></g>
<g><path style="opacity:0.012" fill="#2c1718" d="M 171.5,166.5 C 171.833,166.5 172.167,166.5 172.5,166.5C 172.315,167.17 171.981,167.17 171.5,166.5 Z"/></g>
<g><path style="opacity:0.016" fill="#2a1717" d="M 170.5,167.5 C 170.833,167.5 171.167,167.5 171.5,167.5C 171.315,168.17 170.981,168.17 170.5,167.5 Z"/></g>
<g><path style="opacity:0.016" fill="#2a1717" d="M 169.5,168.5 C 169.833,168.5 170.167,168.5 170.5,168.5C 170.315,169.17 169.981,169.17 169.5,168.5 Z"/></g>
<g><path style="opacity:0.016" fill="#2a1717" d="M 168.5,169.5 C 168.833,169.5 169.167,169.5 169.5,169.5C 169.315,170.17 168.981,170.17 168.5,169.5 Z"/></g>
<g><path style="opacity:0.016" fill="#2a1717" d="M 167.5,170.5 C 167.833,170.5 168.167,170.5 168.5,170.5C 168.315,171.17 167.981,171.17 167.5,170.5 Z"/></g>
<g><path style="opacity:0.012" fill="#2a1717" d="M 166.5,171.5 C 166.833,171.5 167.167,171.5 167.5,171.5C 167.315,172.17 166.981,172.17 166.5,171.5 Z"/></g>
<g><path style="opacity:0.012" fill="#2a1717" d="M 165.5,172.5 C 165.833,172.5 166.167,172.5 166.5,172.5C 166.315,173.17 165.981,173.17 165.5,172.5 Z"/></g>
<g><path style="opacity:0.012" fill="#2a1717" d="M 164.5,173.5 C 164.833,173.5 165.167,173.5 165.5,173.5C 165.315,174.17 164.981,174.17 164.5,173.5 Z"/></g>
<g><path style="opacity:0.008" fill="#2a1717" d="M 163.5,174.5 C 163.833,174.5 164.167,174.5 164.5,174.5C 164.315,175.17 163.981,175.17 163.5,174.5 Z"/></g>
<g><path style="opacity:0.006" fill="#281616" d="M 161.5,176.5 C 161.5,176.167 161.5,175.833 161.5,175.5C 162.167,175.5 162.833,175.5 163.5,175.5C 163.158,176.338 162.492,176.672 161.5,176.5 Z"/></g>
<g><path style="opacity:0.016" fill="#281616" d="M 160.5,176.5 C 160.833,176.5 161.167,176.5 161.5,176.5C 161.315,177.17 160.981,177.17 160.5,176.5 Z"/></g>
<g><path style="opacity:0.016" fill="#271615" d="M 159.5,177.5 C 159.833,177.5 160.167,177.5 160.5,177.5C 160.315,178.17 159.981,178.17 159.5,177.5 Z"/></g>
<g><path style="opacity:0.008" fill="#271615" d="M 158.5,178.5 C 158.833,178.5 159.167,178.5 159.5,178.5C 159.315,179.17 158.981,179.17 158.5,178.5 Z"/></g>
<g><path style="opacity:0.01" fill="#271615" d="M 156.5,180.5 C 156.5,180.167 156.5,179.833 156.5,179.5C 157.167,179.5 157.833,179.5 158.5,179.5C 158.158,180.338 157.492,180.672 156.5,180.5 Z"/></g>
<g><path style="opacity:0.016" fill="#271615" d="M 155.5,180.5 C 155.833,180.5 156.167,180.5 156.5,180.5C 156.315,181.17 155.981,181.17 155.5,180.5 Z"/></g>
<g><path style="opacity:0.006" fill="#271615" d="M 153.5,182.5 C 153.5,182.167 153.5,181.833 153.5,181.5C 154.167,181.5 154.833,181.5 155.5,181.5C 155.158,182.338 154.492,182.672 153.5,182.5 Z"/></g>
<g><path style="opacity:0.016" fill="#271615" d="M 152.5,182.5 C 152.833,182.5 153.167,182.5 153.5,182.5C 153.315,183.17 152.981,183.17 152.5,182.5 Z"/></g>
<g><path style="opacity:0.004" fill="#261514" d="M 150.5,184.5 C 150.5,184.167 150.5,183.833 150.5,183.5C 151.167,183.5 151.833,183.5 152.5,183.5C 152.158,184.338 151.492,184.672 150.5,184.5 Z"/></g>
<g><path style="opacity:0.012" fill="#241514" d="M 149.5,184.5 C 149.833,184.5 150.167,184.5 150.5,184.5C 150.315,185.17 149.981,185.17 149.5,184.5 Z"/></g>
<g><path style="opacity:0.01" fill="#241514" d="M 147.5,186.5 C 147.5,186.167 147.5,185.833 147.5,185.5C 148.167,185.5 148.833,185.5 149.5,185.5C 149.158,186.338 148.492,186.672 147.5,186.5 Z"/></g>
<g><path style="opacity:0.008" fill="#241514" d="M 145.5,187.5 C 145.5,187.167 145.5,186.833 145.5,186.5C 146.167,186.5 146.833,186.5 147.5,186.5C 147.158,187.338 146.492,187.672 145.5,187.5 Z"/></g>
<g><path style="opacity:0.01" fill="#221312" d="M 143.5,188.5 C 143.5,188.167 143.5,187.833 143.5,187.5C 144.167,187.5 144.833,187.5 145.5,187.5C 145.158,188.338 144.492,188.672 143.5,188.5 Z"/></g>
<g><path style="opacity:0.01" fill="#221312" d="M 141.5,189.5 C 141.5,189.167 141.5,188.833 141.5,188.5C 142.167,188.5 142.833,188.5 143.5,188.5C 143.158,189.338 142.492,189.672 141.5,189.5 Z"/></g>
<g><path style="opacity:0.01" fill="#221312" d="M 139.5,190.5 C 139.5,190.167 139.5,189.833 139.5,189.5C 140.167,189.5 140.833,189.5 141.5,189.5C 141.158,190.338 140.492,190.672 139.5,190.5 Z"/></g>
<g><path style="opacity:0.01" fill="#221312" d="M 137.5,191.5 C 137.5,191.167 137.5,190.833 137.5,190.5C 138.167,190.5 138.833,190.5 139.5,190.5C 139.158,191.338 138.492,191.672 137.5,191.5 Z"/></g>
<g><path style="opacity:0.008" fill="#221212" d="M 134.5,192.5 C 134.5,192.167 134.5,191.833 134.5,191.5C 135.5,191.5 136.5,191.5 137.5,191.5C 136.791,192.404 135.791,192.737 134.5,192.5 Z"/></g>
<g><path style="opacity:0.014" fill="#201212" d="M 132.5,193.5 C 132.5,193.167 132.5,192.833 132.5,192.5C 133.167,192.5 133.833,192.5 134.5,192.5C 134.158,193.338 133.492,193.672 132.5,193.5 Z"/></g>
<g><path style="opacity:0.009" fill="#201212" d="M 129.5,194.5 C 129.5,194.167 129.5,193.833 129.5,193.5C 130.5,193.5 131.5,193.5 132.5,193.5C 131.791,194.404 130.791,194.737 129.5,194.5 Z"/></g>
<g><path style="opacity:0.01" fill="#201212" d="M 126.5,195.5 C 126.5,195.167 126.5,194.833 126.5,194.5C 127.5,194.5 128.5,194.5 129.5,194.5C 128.791,195.404 127.791,195.737 126.5,195.5 Z"/></g>
<g><path style="opacity:0.009" fill="#201112" d="M 122.5,196.5 C 122.5,196.167 122.5,195.833 122.5,195.5C 123.833,195.5 125.167,195.5 126.5,195.5C 125.432,196.434 124.099,196.768 122.5,196.5 Z"/></g>
<g><path style="opacity:0.01" fill="#1f1111" d="M 117.5,197.5 C 117.5,197.167 117.5,196.833 117.5,196.5C 119.167,196.5 120.833,196.5 122.5,196.5C 121.081,197.451 119.415,197.784 117.5,197.5 Z"/></g>
<g><path style="opacity:0.01" fill="#1d1211" d="M 111.5,198.5 C 111.5,198.167 111.5,197.833 111.5,197.5C 113.5,197.5 115.5,197.5 117.5,197.5C 115.735,198.461 113.735,198.795 111.5,198.5 Z"/></g>
<g><path style="opacity:0.013" fill="#1b100f" d="M 85.5,199.5 C 93.9839,198.507 102.651,198.174 111.5,198.5C 111.5,198.833 111.5,199.167 111.5,199.5C 102.833,199.5 94.1667,199.5 85.5,199.5 Z"/></g>
</svg>
