<?xml version="1.0" encoding="UTF-8"?>
<svg version="1.1" xmlns="http://www.w3.org/2000/svg" width="200" height="200">
<path d="M0 0 C1.25296875 0.4125 2.5059375 0.825 3.796875 1.25 C28.74462541 10.06760046 48.21993996 28.50355897 60.08447266 52.01074219 C70.70512729 75.08730057 73.09510894 102.81586203 65 127 C64.5875 128.25296875 64.175 129.5059375 63.75 130.796875 C54.93239954 155.74462541 36.49644103 175.21993996 12.98925781 187.08447266 C-10.08730057 197.70512729 -37.81586203 200.09510894 -62 192 C-63.87945312 191.38125 -63.87945312 191.38125 -65.796875 190.75 C-90.74462541 181.93239954 -110.21993996 163.49644103 -122.08447266 139.98925781 C-132.70512729 116.91269943 -135.09510894 89.18413797 -127 65 C-126.5875 63.74703125 -126.175 62.4940625 -125.75 61.203125 C-116.93239954 36.25537459 -98.49644103 16.78006004 -74.98925781 4.91552734 C-51.91269943 -5.70512729 -24.18413797 -8.09510894 0 0 Z " fill="#E62058" transform="translate(131,4)"/>
<path d="M0 0 C0.87898956 -0.00043808 1.75797913 -0.00087616 2.66360474 -0.00132751 C5.54224583 0.00074709 8.42028994 0.02401495 11.29882812 0.04760742 C13.30521324 0.05320811 15.31160247 0.05747597 17.31799316 0.06047058 C22.57877077 0.07188213 27.83929683 0.10131743 33.09997559 0.13458252 C38.47612099 0.16536314 43.85230735 0.17899296 49.22851562 0.1940918 C59.76247984 0.22619077 70.296258 0.27734228 80.83007812 0.34057617 C80.93848426 9.08958885 78.47588284 15.33223181 72.54492188 21.83666992 C66.22830281 27.37630168 59.17851367 28.48852858 51.04418945 28.45410156 C49.6975396 28.4543206 49.6975396 28.4543206 48.32368469 28.45454407 C45.3531351 28.45384681 42.38264803 28.44606314 39.41210938 28.43823242 C37.35373468 28.43636758 35.29535955 28.43494399 33.23698425 28.4339447 C27.81677019 28.43012476 22.39658288 28.42029891 16.97637939 28.40924072 C11.44649619 28.39901538 5.91660868 28.39444467 0.38671875 28.3894043 C-10.46550655 28.3786762 -21.31771199 28.36160602 -32.16992188 28.34057617 C-32.03181763 26.89957283 -31.887464 25.45916751 -31.74047852 24.01904297 C-31.62090538 22.81576607 -31.62090538 22.81576607 -31.49891663 21.58818054 C-30.56823003 15.22997802 -26.20676202 9.81704741 -21.29492188 5.90307617 C-14.6733595 1.10172683 -7.9421052 -0.10539091 0 0 Z " fill="#FEFCFC" transform="translate(77.169921875,46.659423828125)"/>
<path d="M0 0 C1.26100525 0.00007553 2.5220105 0.00015106 3.82122803 0.00022888 C5.19234253 0.00533511 6.56345662 0.01055109 7.93457031 0.01586914 C9.34132843 0.01773511 10.74808719 0.01915817 12.15484619 0.02015686 C15.85050258 0.02396796 19.54611944 0.03378619 23.24176025 0.04486084 C27.01566025 0.05510525 30.78956666 0.05966097 34.56347656 0.06469727 C41.96323414 0.07540975 49.36295918 0.09246923 56.76269531 0.11352539 C55.63184924 9.62870961 53.70686829 16.04202634 46.25097656 22.50805664 C37.63847318 28.06494658 30.24391599 28.66460073 20.10253906 28.50415039 C18.70293492 28.4966749 17.3033202 28.49098816 15.90370178 28.48699951 C12.24893463 28.47184566 8.59481988 28.43265554 4.94030762 28.38818359 C1.19955262 28.34700695 -2.54130947 28.3289411 -6.28222656 28.30883789 C-13.60088092 28.26614859 -20.91900083 28.19802539 -28.23730469 28.11352539 C-28.35864631 19.29100971 -25.0699028 13.26634568 -19.10449219 6.84008789 C-13.36531314 1.53314827 -7.65833109 -0.01531666 0 0 Z " fill="#FEFDFE" transform="translate(73.2373046875,89.886474609375)"/>
<path d="M0 0 C3.77426504 1.30647636 5.66208011 2.63540222 8.375 5.5625 C10.55656488 10.17734879 10.79997224 13.97976607 10 19 C8.22080689 22.76367773 6.70768445 24.50626666 3.3125 26.875 C-0.95586263 28.32463259 -4.55194437 28.96528985 -9 28 C-13.19094501 25.54734468 -16.16699798 22.52198139 -18 18 C-18.42537199 12.64031296 -18.48854141 9.33060313 -15 5 C-10.01201959 0.62030989 -6.65831866 -0.67080076 0 0 Z " fill="#FEFAFB" transform="translate(63,132)"/>
</svg>
