<svg width="256" height="256" fill="none" xmlns="http://www.w3.org/2000/svg"><g clip-path="url(#a)"><path d="M128.9 0a128 128 0 1 1-1.7 256A128 128 0 0 1 129 0Z" fill="#2B61D1"/><path d="m144.1 202.3-14.6 8.4-31.6-18.2 14.4-8.4h.6l31.2 18.2ZM200.5 87.8v17l-31-17.9-8.4-4.8-8.3 4.8-39.5 22.9-8.3 4.8V125L89.5 116l-8.3-4.9-8.3 4.9-14.5 8.2V87.8l71-41 71 41Z" fill="#fff"/><path d="M200.5 124.3v45.6L161 192.6 121.6 170v-45.6l39.5-22.8 39.4 22.8ZM103.9 143.5v26.3l-22.8 13-22.7-13v-26.3l22.6-13 22.9 13Z" fill="#fff"/></g><defs><clipPath id="a"><path fill="#fff" d="M0 0h256v256H0z"/></clipPath></defs></svg>