<?xml version="1.0" encoding="UTF-8"?>
<svg version="1.1" xmlns="http://www.w3.org/2000/svg" width="64" height="64">
<path d="M0 0 C2.31733685 1.26666827 2.31733685 1.26666827 4.56640625 1.3515625 C6.4453125 2.15625 6.4453125 2.15625 8.11328125 5.3671875 C8.64121531 6.74720209 9.14656772 8.13600069 9.6328125 9.53125 C9.8918335 10.25787842 10.15085449 10.98450684 10.41772461 11.7331543 C13.8083868 21.66146104 14.56143893 30.27153762 10.4453125 40.15625 C6.5139848 47.21310531 0.65154075 52.3417986 -6.7421875 55.53125 C-16.16232009 57.07553403 -25.19116426 57.23155043 -33.5546875 52.15625 C-40.66640385 46.69612809 -44.73034254 39.90287583 -46.5546875 31.15625 C-47.40210321 22.60061062 -45.41135928 14.44496329 -43.5546875 6.15625 C-42.60207031 5.86492188 -41.64945313 5.57359375 -40.66796875 5.2734375 C-37.52874106 4.40580938 -37.52874106 4.40580938 -35.7421875 2.28125 C-25.67092434 -7.50226279 -11.49962095 -5.76657377 0 0 Z " fill="#F17C0A" transform="translate(48.5546875,5.84375)"/>
<path d="M0 0 C5.38212611 8.07318917 7.96846767 17.18347753 6.59375 26.859375 C4.45163566 36.09086775 -0.25835841 42.44657123 -8.015625 47.8125 C-15.26949615 52.15339927 -24.68078838 52.18038685 -32.78125 50.3828125 C-40.01513272 47.85988427 -45.55837825 43.30999317 -49.34765625 36.62109375 C-54.40942576 25.60857012 -53.25073735 15.69579587 -51 4 C-50.67 4 -50.34 4 -50 4 C-49.34 8.95 -48.68 13.9 -48 19 C-46.68 19.33 -45.36 19.66 -44 20 C-44.7425 18.7934375 -44.7425 18.7934375 -45.5 17.5625 C-47.34527349 13.17997546 -47.28061086 9.67684769 -47 5 C-45.68 5.66 -44.36 6.32 -43 7 C-43 7.66 -43 8.32 -43 9 C-42.4225 9.226875 -41.845 9.45375 -41.25 9.6875 C-38.41941846 11.33867256 -36.89809894 13.35621933 -35 16 C-35 16.33 -35 16.66 -35 17 C-36.65 17.33 -38.3 17.66 -40 18 C-38.73053486 22.82442184 -38.73053486 22.82442184 -35 26 C-37.52935589 27.26467795 -38.34190903 26.7249339 -41 26 C-41.99 26 -42.98 26 -44 26 C-44.66 27.32 -45.32 28.64 -46 30 C-44.68 30 -43.36 30 -42 30 C-41.67 30.66 -41.34 31.32 -41 32 C-40.01 32.33 -39.02 32.66 -38 33 C-37.67 31.35 -37.34 29.7 -37 28 C-35.576875 27.5359375 -35.576875 27.5359375 -34.125 27.0625 C-31.13919592 26.12605258 -31.13919592 26.12605258 -29 25 C-26.921875 25.6484375 -26.921875 25.6484375 -25 27 C-24.390625 29.1640625 -24.390625 29.1640625 -24.25 31.625 C-24.19328125 32.44226562 -24.1365625 33.25953125 -24.078125 34.1015625 C-24.05234375 34.72804687 -24.0265625 35.35453125 -24 36 C-23.01 35.34 -22.02 34.68 -21 34 C-20.65259077 32.00239695 -20.32033957 30.00212229 -20 28 C-18.4375 25.625 -18.4375 25.625 -17 24 C-14.13275314 24.57344937 -13.1385485 24.8614515 -11 27 C-10.375 29.125 -10.375 29.125 -10 31 C-9.21625 30.79375 -8.4325 30.5875 -7.625 30.375 C-6.325625 30.189375 -6.325625 30.189375 -5 30 C-4.34 30.66 -3.68 31.32 -3 32 C-2.690625 31.030625 -2.38125 30.06125 -2.0625 29.0625 C-1 26 -1 26 0 25 C-0.2475 23.576875 -0.2475 23.576875 -0.5 22.125 C-1 19 -1 19 0 16 C0.07051114 13.26134713 0.09357765 10.54972412 0.0625 7.8125 C0.05798828 7.06291016 0.05347656 6.31332031 0.04882812 5.54101562 C0.03706354 3.69397617 0.01912865 1.84697787 0 0 Z " fill="#F95F28" transform="translate(55,11)"/>
<path d="M0 0 C2.875 1.6875 2.875 1.6875 3.875 4.6875 C4.865 3.6975 5.855 2.7075 6.875 1.6875 C7.535 2.3475 8.195 3.0075 8.875 3.6875 C8.38580078 4.50541016 8.38580078 4.50541016 7.88671875 5.33984375 C4.8158124 10.63919541 2.58446344 15.80861354 0.875 21.6875 C-1.27220899 19.54029101 -1.6684221 18.60959857 -2.125 15.6875 C-1.795 15.0275 -1.465 14.3675 -1.125 13.6875 C-2.445 13.0275 -3.765 12.3675 -5.125 11.6875 C-4.465 11.6875 -3.805 11.6875 -3.125 11.6875 C-3.62 10.2025 -3.62 10.2025 -4.125 8.6875 C-3.1875 6 -3.1875 6 -2.125 3.6875 C-2.90875 4.3475 -3.6925 5.0075 -4.5 5.6875 C-7.125 7.6875 -7.125 7.6875 -9.125 7.6875 C-9.455 8.3475 -9.785 9.0075 -10.125 9.6875 C-13.125 10.6875 -13.125 10.6875 -16.125 10.6875 C-17.17476964 13.83680893 -17.22631595 16.07564456 -17.1875 19.375 C-17.17847656 20.36886719 -17.16945313 21.36273437 -17.16015625 22.38671875 C-17.14855469 23.14597656 -17.13695313 23.90523437 -17.125 24.6875 C-19.125 23.6875 -19.125 23.6875 -20.125 20.6875 C-21.115 20.0275 -22.105 19.3675 -23.125 18.6875 C-23.125 17.6975 -23.125 16.7075 -23.125 15.6875 C-25.10456942 13.99661778 -27.10445196 12.32919528 -29.125 10.6875 C-29.125 10.0275 -29.125 9.3675 -29.125 8.6875 C-30.115 8.3575 -31.105 8.0275 -32.125 7.6875 C-32.4402595 13.67743047 -31.80719822 17.32310356 -29.125 22.6875 C-31.5 22.1875 -31.5 22.1875 -34.125 20.6875 C-35.93796008 15.59394549 -36.45081646 11.11777435 -36.125 5.6875 C-35.795 5.0275 -35.465 4.3675 -35.125 3.6875 C-34.2175 3.8525 -33.31 4.0175 -32.375 4.1875 C-27.68691179 5.03348678 -27.68691179 5.03348678 -23.30859375 3.62890625 C-22.73238281 3.17386719 -22.15617187 2.71882812 -21.5625 2.25 C-15.51207354 -2.47984341 -7.11167365 -2.81811134 0 0 Z " fill="#272A31" transform="translate(41.125,9.3125)"/>
<path d="M0 0 C2.1698314 1.02599056 4.10388068 1.67707326 6.4453125 2.15625 C6.1153125 3.14625 5.7853125 4.13625 5.4453125 5.15625 C5.4453125 4.49625 5.4453125 3.83625 5.4453125 3.15625 C4.7853125 3.48625 4.1253125 3.81625 3.4453125 4.15625 C3.9403125 5.084375 3.9403125 5.084375 4.4453125 6.03125 C6.28755928 11.78827119 6.25721211 17.19415927 3.9453125 22.78125 C3.4503125 23.565 2.9553125 24.34875 2.4453125 25.15625 C1.4553125 24.82625 0.4653125 24.49625 -0.5546875 24.15625 C-0.2246875 21.84625 0.1053125 19.53625 0.4453125 17.15625 C-1.2046875 17.81625 -2.8546875 18.47625 -4.5546875 19.15625 C-3.97834611 14.40143354 -2.00400229 11.18576788 0.4453125 7.15625 C-0.2146875 6.82625 -0.8746875 6.49625 -1.5546875 6.15625 C-2.2146875 7.14625 -2.8746875 8.13625 -3.5546875 9.15625 C-4.2146875 8.82625 -4.8746875 8.49625 -5.5546875 8.15625 C-5.5546875 7.16625 -5.5546875 6.17625 -5.5546875 5.15625 C-11.62754435 2.53014974 -18.60179037 1.84077768 -24.9375 3.94921875 C-28.51571622 5.67230811 -30.69600388 7.29756638 -33.5546875 10.15625 C-36.5246875 9.16625 -39.4946875 8.17625 -42.5546875 7.15625 C-42.8846875 7.81625 -43.2146875 8.47625 -43.5546875 9.15625 C-43.5546875 8.16625 -43.5546875 7.17625 -43.5546875 6.15625 C-42.6471875 5.90875 -41.7396875 5.66125 -40.8046875 5.40625 C-37.55237534 4.41748844 -37.55237534 4.41748844 -35.7421875 2.28125 C-25.67092434 -7.50226279 -11.49962095 -5.76657377 0 0 Z " fill="#F3B73A" transform="translate(48.5546875,5.84375)"/>
<path d="M0 0 C2.86724686 0.57344937 3.8614515 0.8614515 6 3 C6.625 5.125 6.625 5.125 7 7 C8.65 6.67 10.3 6.34 12 6 C12.66 7.65 13.32 9.3 14 11 C13.01 11.33 12.02 11.66 11 12 C10.401875 12.639375 9.80375 13.27875 9.1875 13.9375 C6.58408582 16.39214766 4.45638591 17.17347293 1 18 C0.34 17.67 -0.32 17.34 -1 17 C-1 17.66 -1 18.32 -1 19 C-2.41655793 19.0272415 -3.83327045 19.04650467 -5.25 19.0625 C-6.43335938 19.07990234 -6.43335938 19.07990234 -7.640625 19.09765625 C-11.77925077 18.92635551 -15.19943068 17.58357055 -19 16 C-19 15.34 -19 14.68 -19 14 C-20.32 13.67 -21.64 13.34 -23 13 C-23 12.01 -23 11.02 -23 10 C-21.02 10 -19.04 10 -17 10 C-16.9175 9.071875 -16.835 8.14375 -16.75 7.1875 C-16 4 -16 4 -13.9375 2.125 C-13.298125 1.75375 -12.65875 1.3825 -12 1 C-10.046875 1.7109375 -10.046875 1.7109375 -8 3 C-7.390625 5.1640625 -7.390625 5.1640625 -7.25 7.625 C-7.19328125 8.44226562 -7.1365625 9.25953125 -7.078125 10.1015625 C-7.03945313 11.04128906 -7.03945313 11.04128906 -7 12 C-6.01 11.34 -5.02 10.68 -4 10 C-3.65259077 8.00239695 -3.32033957 6.00212229 -3 4 C-1.4375 1.625 -1.4375 1.625 0 0 Z " fill="#F1DCC5" transform="translate(38,35)"/>
<path d="M0 0 C0.66 0 1.32 0 2 0 C4.83939618 6.3886414 4.82729733 13.91078748 3.453125 20.703125 C2.83149213 23.06705421 2.83149213 23.06705421 3.5625 25.6875 C3.706875 26.450625 3.85125 27.21375 4 28 C3.34 28.66 2.68 29.32 2 30 C1.28591666 31.98356483 0.61382258 33.98315437 0 36 C-0.66 35.01 -1.32 34.02 -2 33 C-4.475 33.495 -4.475 33.495 -7 34 C-8.24403138 31.51193724 -8.06732288 29.76023814 -8 27 C-8 26.01 -8 25.02 -8 24 C-6.35 24 -4.7 24 -3 24 C-3 23.34 -3 22.68 -3 22 C-2 21 -1 20 0 19 C1.18681726 15.43954823 1.09689832 12.56191663 1.0625 8.8125 C1.05347656 7.54019531 1.04445313 6.26789062 1.03515625 4.95703125 C1.02355469 3.98121094 1.01195312 3.00539063 1 2 C0.34 1.67 -0.32 1.34 -1 1 C-0.67 0.67 -0.34 0.34 0 0 Z " fill="#BA4C1B" transform="translate(52,9)"/>
<path d="M0 0 C3.73487777 0.4979837 5.81237635 0.87491756 9 3 C9 3.66 9 4.32 9 5 C9.99 5 10.98 5 12 5 C12 5.66 12 6.32 12 7 C12.804375 7.309375 13.60875 7.61875 14.4375 7.9375 C17 9 17 9 18 10 C18.07226502 11.85287502 18.0838122 13.70833878 18.0625 15.5625 C18.05347656 16.57441406 18.04445313 17.58632813 18.03515625 18.62890625 C18.02355469 19.41136719 18.01195313 20.19382812 18 21 C16 20 16 20 15 17 C14.01 16.34 13.02 15.68 12 15 C12 14.01 12 13.02 12 12 C10.02043058 10.30911778 8.02054804 8.64169528 6 7 C6 6.34 6 5.68 6 5 C5.01 4.67 4.02 4.34 3 4 C2.6847405 9.98993047 3.31780178 13.63560356 6 19 C3.625 18.5 3.625 18.5 1 17 C-0.81296008 11.90644549 -1.32581646 7.43027435 -1 2 C-0.67 1.34 -0.34 0.68 0 0 Z " fill="#2E2218" transform="translate(6,13)"/>
<path d="M0 0 C0.66 0 1.32 0 2 0 C3.70535764 5.96875175 3.88107833 11.87072738 1.5 17.625 C1.005 18.40875 0.51 19.1925 0 20 C-0.99 19.67 -1.98 19.34 -3 19 C-2.67 16.69 -2.34 14.38 -2 12 C-3.65 12.66 -5.3 13.32 -7 14 C-6.51726991 8.85087905 -3.66411915 3.66411915 0 0 Z " fill="#F1DAC4" transform="translate(51,11)"/>
<path d="M0 0 C1.98 0.99 1.98 0.99 4 2 C4 2.66 4 3.32 4 4 C4.5775 4.226875 5.155 4.45375 5.75 4.6875 C8.58058154 6.33867256 10.10190106 8.35621933 12 11 C12 11.33 12 11.66 12 12 C10.35 12.33 8.7 12.66 7 13 C7.66 14.98 8.32 16.96 9 19 C6.36643453 18.63985429 5.26297275 18.31003103 3.515625 16.25 C0.2789721 10.4959504 -0.5229385 6.58902514 0 0 Z " fill="#EBD2BF" transform="translate(8,16)"/>
<path d="M0 0 C0.33 0 0.66 0 1 0 C1.12117187 1.07121094 1.24234375 2.14242188 1.3671875 3.24609375 C1.53597601 4.64328752 1.70527313 6.04041991 1.875 7.4375 C1.95363281 8.14455078 2.03226562 8.85160156 2.11328125 9.58007812 C2.33927676 11.39673432 2.66300727 13.20062522 3 15 C3.66 15.33 4.32 15.66 5 16 C5 18.31 5 20.62 5 23 C4.34 22.34 3.68 21.68 3 21 C0.93125966 20.3574765 0.93125966 20.3574765 -1 20 C-1.33 20.66 -1.66 21.32 -2 22 C-2.30071865 14.44862068 -1.42625566 7.41143564 0 0 Z " fill="#FDA647" transform="translate(4,15)"/>
<path d="M0 0 C0.99 0.66 1.98 1.32 3 2 C2.67386719 2.54527344 2.34773438 3.09054688 2.01171875 3.65234375 C-1.0591876 8.95169541 -3.29053656 14.12111354 -5 20 C-7.14720899 17.85279101 -7.5434221 16.92209857 -8 14 C-7.67 13.34 -7.34 12.68 -7 12 C-7.66 11.67 -8.32 11.34 -9 11 C-8.34 11 -7.68 11 -7 11 C-6.6596875 10.2265625 -6.6596875 10.2265625 -6.3125 9.4375 C-4.5024447 6.07596873 -2.26003596 3.07088856 0 0 Z " fill="#2E2115" transform="translate(47,11)"/>
<path d="M0 0 C1.78016355 2.67024533 2.97163019 5.05030861 4.1875 8 C4.55230469 8.86625 4.91710938 9.7325 5.29296875 10.625 C6 13 6 13 5 16 C4.01 16.66 3.02 17.32 2 18 C1.26393501 21.56769552 1.26393501 21.56769552 1 25 C-0.43674659 22.71810835 -1.11759022 21.5711525 -0.5625 18.875 C0.16864831 15.13801973 0.10652245 11.47681728 0.0625 7.6875 C0.05798828 6.94693359 0.05347656 6.20636719 0.04882812 5.44335938 C0.03712175 3.62887101 0.01918898 1.81442466 0 0 Z " fill="#F8B978" transform="translate(55,11)"/>
<path d="M0 0 C0.66 0.66 1.32 1.32 2 2 C-4.48719012 5.86736334 -9.242796 7.83710835 -17 7 C-19.78881798 6.18422331 -22.32037097 5.14841244 -25 4 C-21.22628488 2.6642543 -18.14168653 3.27591329 -14.25 3.9375 C-13.07953125 4.13214844 -11.9090625 4.32679687 -10.703125 4.52734375 C-9.36507812 4.76130859 -9.36507812 4.76130859 -8 5 C-8 4.34 -8 3.68 -8 3 C-7.236875 2.87625 -6.47375 2.7525 -5.6875 2.625 C-2.79732864 2.11897208 -2.79732864 2.11897208 0 0 Z " fill="#21262E" transform="translate(45,49)"/>
<path d="M0 0 C3.21561653 3.21561653 3.97094793 5.12843777 4.125 9.75 C4.08375 10.8225 4.0425 11.895 4 13 C2.68 13.33 1.36 13.66 0 14 C-2.27571116 5.96498906 -2.27571116 5.96498906 -1.125 1.9375 C-0.75375 1.298125 -0.3825 0.65875 0 0 Z " fill="#AC5507" transform="translate(31,33)"/>
<path d="M0 0 C2.31 0.33 4.62 0.66 7 1 C7.625 2.8125 7.625 2.8125 8 5 C7.01 6.485 7.01 6.485 6 8 C4.68 7.67 3.36 7.34 2 7 C2 6.34 2 5.68 2 5 C0.68 5 -0.64 5 -2 5 C-1.34 3.35 -0.68 1.7 0 0 Z " fill="#F2852D" transform="translate(11,36)"/>
<path d="M0 0 C1.32 0 2.64 0 4 0 C3.75 2.875 3.75 2.875 3 6 C1.125 7.3125 1.125 7.3125 -1 8 C-1.99 8.33 -2.98 8.66 -4 9 C-5.32 7.02 -6.64 5.04 -8 3 C-7.01 2.67 -6.02 2.34 -5 2 C-4.67 2.66 -4.34 3.32 -4 4 C-3.01 4.33 -2.02 4.66 -1 5 C-0.67 3.35 -0.34 1.7 0 0 Z " fill="#CF6506" transform="translate(18,39)"/>
<path d="M0 0 C0.66 0 1.32 0 2 0 C4.61281488 5.87883349 4.18328202 11.70731728 4 18 C3.01 18.33 2.02 18.66 1 19 C1 13.39 1 7.78 1 2 C0.34 1.67 -0.32 1.34 -1 1 C-0.67 0.67 -0.34 0.34 0 0 Z " fill="#271D15" transform="translate(52,9)"/>
<path d="M0 0 C4.03520597 1.58962659 8.01811282 3.28232318 12 5 C11.34 5.66 10.68 6.32 10 7 C8.0625 6.625 8.0625 6.625 6 6 C5.01 6 4.02 6 3 6 C2.34 6.66 1.68 7.32 1 8 C0.67 5.36 0.34 2.72 0 0 Z " fill="#AE4E1D" transform="translate(8,31)"/>
<path d="M0 0 C0.99 0 1.98 0 3 0 C3.99 2.64 4.98 5.28 6 8 C4.35 8.66 2.7 9.32 1 10 C-0.24403138 7.51193724 -0.06732288 5.76023814 0 3 C0 2.01 0 1.02 0 0 Z " fill="#C35005" transform="translate(44,33)"/>
<path d="M0 0 C0.66 0.66 1.32 1.32 2 2 C-4.625 6 -4.625 6 -8 6 C-8 5.01 -8 4.02 -8 3 C-7.236875 2.87625 -6.47375 2.7525 -5.6875 2.625 C-2.79732864 2.11897208 -2.79732864 2.11897208 0 0 Z " fill="#3E4044" transform="translate(45,49)"/>
<path d="M0 0 C3 3.75 3 3.75 3 6 C2.34 6 1.68 6 1 6 C0.67 5.34 0.34 4.68 0 4 C-1.98 4.99 -1.98 4.99 -4 6 C-4 5.01 -4 4.02 -4 3 C-3.34 3 -2.68 3 -2 3 C-2 2.34 -2 1.68 -2 1 C-1.34 0.67 -0.68 0.34 0 0 Z " fill="#AD817D" transform="translate(51,30)"/>
<path d="M0 0 C-0.33 1.65 -0.66 3.3 -1 5 C-2.98 5.33 -4.96 5.66 -7 6 C-7 5.34 -7 4.68 -7 4 C-2.52941176 0 -2.52941176 0 0 0 Z M-9 5 C-8.34 5.66 -7.68 6.32 -7 7 C-7.99 6.67 -8.98 6.34 -10 6 C-9.67 5.67 -9.34 5.34 -9 5 Z " fill="#DFB562" transform="translate(39,13)"/>
<path d="M0 0 C0.99 0 1.98 0 3 0 C3.33 0.66 3.66 1.32 4 2 C4.99 2.66 5.98 3.32 7 4 C7 4.66 7 5.32 7 6 C6.01 6.33 5.02 6.66 4 7 C0 1.125 0 1.125 0 0 Z " fill="#262A2F" transform="translate(10,41)"/>
<path d="M0 0 C0.99 0.33 1.98 0.66 3 1 C2.34 1 1.68 1 1 1 C1 1.66 1 2.32 1 3 C1.66 3 2.32 3 3 3 C2.67 4.32 2.34 5.64 2 7 C1.01 6.67 0.02 6.34 -1 6 C-1.042721 4.33388095 -1.04063832 2.66617115 -1 1 C-0.67 0.67 -0.34 0.34 0 0 Z " fill="#53271C" transform="translate(25,40)"/>
<path d="M0 0 C0.99 0.33 1.98 0.66 3 1 C3 2.65 3 4.3 3 6 C1.68 6.33 0.36 6.66 -1 7 C-1 6.01 -1 5.02 -1 4 C-0.34 4 0.32 4 1 4 C0.67 2.68 0.34 1.36 0 0 Z " fill="#451C11" transform="translate(38,38)"/>
<path d="M0 0 C0.33 0 0.66 0 1 0 C1.33 3.63 1.66 7.26 2 11 C1.01 11.33 0.02 11.66 -1 12 C-0.67 8.04 -0.34 4.08 0 0 Z " fill="#FDD48E" transform="translate(4,15)"/>
<path d="M0 0 C1.06546953 3.1964086 1.07427838 5.65747276 1 9 C-1.5654594 6.4345406 -1.54046087 4.52313332 -2 1 C-1.34 0.67 -0.68 0.34 0 0 Z " fill="#993D18" transform="translate(54,27)"/>
</svg>
