<?xml version="1.0" encoding="UTF-8"?>
<svg version="1.1" xmlns="http://www.w3.org/2000/svg" width="64" height="64">
<path d="M0 0 C21.12 0 42.24 0 64 0 C64 21.12 64 42.24 64 64 C42.88 64 21.76 64 0 64 C0 42.88 0 21.76 0 0 Z " fill="#00BAF9" transform="translate(0,0)"/>
<path d="M0 0 C2.05859375 0.171875 2.05859375 0.171875 4.4375 0.75 C5.21996094 0.93046875 6.00242187 1.1109375 6.80859375 1.296875 C9 2 9 2 12 4 C13.05224174 8.50960746 13.32950189 10.95334694 11.9375 15.375 C9.52859789 18.63867383 7.84279923 18.92401621 4 20 C1.19195735 22.0115195 1.19195735 22.0115195 -1 24 C-3.35065055 22.1889447 -3.95628835 21.32149217 -4.36328125 18.328125 C-4.12903226 4.12903226 -4.12903226 4.12903226 0 0 Z " fill="#F5FCFC" transform="translate(35,23)"/>
<path d="M0 0 C3.5045275 0.97347986 4.88857413 1.85992177 7.1875 4.75 C11.27162784 12.07326372 11.85291069 19.01934914 10.67578125 27.2734375 C10.45277344 27.84320313 10.22976562 28.41296875 10 29 C9.01 29.33 8.02 29.66 7 30 C0.70182231 22.15275595 -3.73405841 14.42043788 -3 4 C-1.5078125 1.66796875 -1.5078125 1.66796875 0 0 Z " fill="#F8FDFE" transform="translate(19,17)"/>
<path d="M0 0 C1.32 0.33 2.64 0.66 4 1 C4 6.94 4 12.88 4 19 C3.01 18.67 2.02 18.34 1 18 C1.01160156 17.03578125 1.02320312 16.0715625 1.03515625 15.078125 C1.04417969 13.81484375 1.05320312 12.5515625 1.0625 11.25 C1.07990234 9.37054688 1.07990234 9.37054688 1.09765625 7.453125 C1.02021027 4.71463499 0.82780815 2.58119707 0 0 Z " fill="#0FB7F1" transform="translate(28,27)"/>
</svg>
