<?xml version="1.0" encoding="UTF-8"?>
<!DOCTYPE svg PUBLIC "-//W3C//DTD SVG 1.1//EN" "http://www.w3.org/Graphics/SVG/1.1/DTD/svg11.dtd">
<svg xmlns="http://www.w3.org/2000/svg" version="1.1" width="200px" height="200px" style="shape-rendering:geometricPrecision; text-rendering:geometricPrecision; image-rendering:optimizeQuality; fill-rule:evenodd; clip-rule:evenodd" xmlns:xlink="http://www.w3.org/1999/xlink">
<g><path style="opacity:0.994" fill="#483430" d="M 87.5,-0.5 C 94.8333,-0.5 102.167,-0.5 109.5,-0.5C 134.036,2.85186 154.87,13.5185 172,31.5C 173.147,30.5419 174.147,30.8753 175,32.5C 175.617,33.4491 175.451,34.2825 174.5,35C 175.743,37.0338 177.243,37.8671 179,37.5C 179.617,38.4491 179.451,39.2825 178.5,40C 179.552,41.1192 180.719,41.6192 182,41.5C 184.112,44.7271 185.945,48.0604 187.5,51.5C 187.5,51.8333 187.5,52.1667 187.5,52.5C 186.167,52.8333 186.167,53.1667 187.5,53.5C 187.5,53.8333 187.5,54.1667 187.5,54.5C 187.5,54.8333 187.5,55.1667 187.5,55.5C 186.038,54.5423 184.705,53.3756 183.5,52C 181.444,51.6892 179.444,51.1892 177.5,50.5C 176.063,53.0443 174.563,53.0443 173,50.5C 172.667,51.1667 172.333,51.8333 172,52.5C 170.899,50.6061 169.566,49.9394 168,50.5C 167.667,51.1667 167.333,51.8333 167,52.5C 166.418,49.3323 165.418,48.999 164,51.5C 163.333,50.8333 162.667,50.1667 162,49.5C 160.451,52.0026 158.784,52.0026 157,49.5C 153.578,53.4991 150.911,52.8324 149,47.5C 148.667,47.8333 148.333,48.1667 148,48.5C 147.667,47.5 147.333,46.5 147,45.5C 144.814,44.9783 142.481,44.9783 140,45.5C 139.326,44.4216 138.326,43.7549 137,43.5C 118.526,44.6315 100.192,44.6315 82,43.5C 80.2949,44.7633 78.6282,45.0966 77,44.5C 75.0283,45.3052 73.5283,46.6385 72.5,48.5C 71.914,48.2907 71.414,47.9574 71,47.5C 69.3425,54.3319 67.5092,54.9986 65.5,49.5C 64.4826,52.028 63.3159,52.028 62,49.5C 60.4506,52.0026 58.7839,52.0026 57,49.5C 55.1118,52.2727 53.1118,52.606 51,50.5C 50.3741,52.9913 49.5407,52.9913 48.5,50.5C 47.2798,51.7111 46.1131,51.7111 45,50.5C 44.6667,51.1667 44.3333,51.8333 44,52.5C 43.044,51.1059 41.7106,50.4393 40,50.5C 37.2367,50.9177 34.57,51.5844 32,52.5C 30.1551,50.6499 28.1551,50.3166 26,51.5C 25.3086,49.1088 24.3086,49.1088 23,51.5C 22.6667,51.1667 22.3333,50.8333 22,50.5C 20.3333,51.1667 18.6667,51.8333 17,52.5C 16.6924,51.6919 16.1924,51.0253 15.5,50.5C 13.6796,53.3929 11.6796,56.7263 9.5,60.5C 8.61432,59.675 8.28099,58.675 8.5,57.5C 9.80686,56.1984 9.80686,54.865 8.5,53.5C 9.24717,53.2635 10.0805,52.9302 11,52.5C 10.0155,50.4021 10.3489,48.4021 12,46.5C 13.3333,44.5 14.6667,42.5 16,40.5C 17.2812,40.6192 18.4479,40.1192 19.5,39C 18.5494,38.2825 18.3828,37.4491 19,36.5C 21.3153,36.4257 23.1486,35.0924 24.5,32.5C 25.1667,32.5 25.5,32.1667 25.5,31.5C 26.1667,31.5 26.5,31.1667 26.5,30.5C 27.1667,30.5 27.5,30.1667 27.5,29.5C 28.1667,29.5 28.5,29.1667 28.5,28.5C 29.1667,28.5 29.5,28.1667 29.5,27.5C 30.1667,27.5 30.5,27.1667 30.5,26.5C 31.1667,26.5 31.5,26.1667 31.5,25.5C 47.6797,11.4093 66.3463,2.74261 87.5,-0.5 Z"/></g>
<g><path style="opacity:0.012" fill="#495559" d="M 31.5,25.5 C 30.8333,25.5 30.5,25.8333 30.5,26.5C 29.8333,26.5 29.5,26.8333 29.5,27.5C 28.8333,27.5 28.5,27.8333 28.5,28.5C 27.8333,28.5 27.5,28.8333 27.5,29.5C 26.8333,29.5 26.5,29.8333 26.5,30.5C 25.8333,30.5 25.5,30.8333 25.5,31.5C 24.8333,31.5 24.5,31.8333 24.5,32.5C 23.475,32.1034 23.3083,31.4368 24,30.5C 25.8333,28.6667 27.6667,26.8333 29.5,25C 30.4368,24.3083 31.1034,24.475 31.5,25.5 Z"/></g>
<g><path style="opacity:1" fill="#f5f5f5" d="M 139.5,54.5 C 135.875,66.6466 130.208,77.8133 122.5,88C 115.079,90.6378 109.079,88.6378 104.5,82C 102.833,81.3333 101.167,81.3333 99.5,82C 91.6715,87.4914 87.3382,94.9914 86.5,104.5C 86.5,105.167 86.5,105.833 86.5,106.5C 95.6577,107.33 104.991,107.83 114.5,108C 114.043,108.414 113.709,108.914 113.5,109.5C 103.851,110.332 94.1838,110.832 84.5,111C 84,111.5 83.5,112 83,112.5C 82.6667,122.833 82.3333,133.167 82,143.5C 80.9887,144.337 79.8221,144.67 78.5,144.5C 78.5,113.167 78.5,81.8333 78.5,50.5C 99.1694,50.3334 119.836,50.5 140.5,51C 139.663,52.0113 139.33,53.1779 139.5,54.5 Z"/></g>
<g><path style="opacity:0.997" fill="#432e2a" d="M 187.5,55.5 C 188.833,55.1667 188.833,54.8333 187.5,54.5C 187.5,54.1667 187.5,53.8333 187.5,53.5C 187.5,53.1667 187.5,52.8333 187.5,52.5C 187.5,52.1667 187.5,51.8333 187.5,51.5C 190.278,54.3669 191.278,57.7002 190.5,61.5C 191.183,64.4614 192.016,64.7947 193,62.5C 195.939,69.9209 197.772,77.5876 198.5,85.5C 197.521,88.6248 197.187,91.9581 197.5,95.5C 195.753,95.5926 193.919,95.926 192,96.5C 190.194,93.3159 188.194,92.9825 186,95.5C 185.586,95.0426 185.086,94.7093 184.5,94.5C 183.11,96.2029 181.61,96.8696 180,96.5C 179.047,94.4078 177.714,94.0745 176,95.5C 174.667,94.8333 173.333,94.1667 172,93.5C 170.037,96.9464 168.704,96.9464 168,93.5C 167.667,94.1667 167.333,94.8333 167,95.5C 164.502,96.1212 162.168,95.4545 160,93.5C 157.912,94.3081 155.912,95.3081 154,96.5C 152.921,94.6063 151.587,94.273 150,95.5C 148.559,94.7402 147.059,94.0736 145.5,93.5C 141.563,95.428 137.729,96.7613 134,97.5C 133.383,96.5509 133.549,95.7175 134.5,95C 133.833,94.6667 133.167,94.3333 132.5,94C 135.282,91.7938 135.949,89.1272 134.5,86C 137.063,75.1396 136.563,74.9729 133,85.5C 129.891,89.3971 126.557,93.0638 123,96.5C 119.554,95.8725 116.054,95.3725 112.5,95C 111.061,94.0094 110.061,92.676 109.5,91C 109.728,90.6012 110.062,90.4346 110.5,90.5C 116.963,92.8087 122.463,91.4753 127,86.5C 134.032,75.4156 139.532,63.5823 143.5,51C 143.164,49.9701 142.497,49.4701 141.5,49.5C 119.833,49.5 98.1667,49.5 76.5,49.5C 75.5043,62.9898 75.171,76.6565 75.5,90.5C 74.6706,82.3434 74.1706,74.0101 74,65.5C 73.6667,73.5 73.3333,81.5 73,89.5C 72.7811,88.062 72.2811,86.7287 71.5,85.5C 70.2888,86.2739 70.2888,87.1072 71.5,88C 69.8158,90.7497 68.8158,93.4164 68.5,96C 65.3261,96.5056 62.4927,95.6722 60,93.5C 59.6758,95.5689 58.8425,95.9023 57.5,94.5C 56.2519,95.0402 55.0852,95.7069 54,96.5C 51.409,95.8453 48.7423,94.8453 46,93.5C 43.5398,94.5979 41.0398,95.5979 38.5,96.5C 37.0944,95.5734 35.5944,94.5734 34,93.5C 32.0404,97.446 30.0404,97.446 28,93.5C 27.3109,94.3567 26.4776,95.0233 25.5,95.5C 24.2798,94.2889 23.1131,94.2889 22,95.5C 21.6667,94.8333 21.3333,94.1667 21,93.5C 19.3333,94.5 17.6667,95.5 16,96.5C 15.3333,95.8333 14.6667,95.1667 14,94.5C 11.9022,94.4482 9.73557,94.7815 7.5,95.5C 6.35268,95.1822 5.51935,94.5156 5,93.5C 3.35839,95.1019 1.52505,96.4352 -0.5,97.5C -0.5,93.8333 -0.5,90.1667 -0.5,86.5C 0.833333,84.8333 0.833333,83.1667 -0.5,81.5C -0.5,79.8333 -0.5,78.1667 -0.5,76.5C 0.620635,74.0458 1.45397,71.3791 2,68.5C 2.33333,69.5 2.66667,70.5 3,71.5C 4.78033,67.8888 5.447,64.2221 5,60.5C 5.66667,59.1667 6.33333,57.8333 7,56.5C 7.38258,57.056 7.88258,57.3893 8.5,57.5C 8.28099,58.675 8.61432,59.675 9.5,60.5C 11.6796,56.7263 13.6796,53.3929 15.5,50.5C 16.1924,51.0253 16.6924,51.6919 17,52.5C 18.6667,51.8333 20.3333,51.1667 22,50.5C 22.3333,50.8333 22.6667,51.1667 23,51.5C 24.3086,49.1088 25.3086,49.1088 26,51.5C 28.1551,50.3166 30.1551,50.6499 32,52.5C 34.57,51.5844 37.2367,50.9177 40,50.5C 41.7106,50.4393 43.044,51.1059 44,52.5C 44.3333,51.8333 44.6667,51.1667 45,50.5C 46.1131,51.7111 47.2798,51.7111 48.5,50.5C 49.5407,52.9913 50.3741,52.9913 51,50.5C 53.1118,52.606 55.1118,52.2727 57,49.5C 58.7839,52.0026 60.4506,52.0026 62,49.5C 63.3159,52.028 64.4826,52.028 65.5,49.5C 67.5092,54.9986 69.3425,54.3319 71,47.5C 71.414,47.9574 71.914,48.2907 72.5,48.5C 73.5283,46.6385 75.0283,45.3052 77,44.5C 78.6282,45.0966 80.2949,44.7633 82,43.5C 100.192,44.6315 118.526,44.6315 137,43.5C 138.326,43.7549 139.326,44.4216 140,45.5C 142.481,44.9783 144.814,44.9783 147,45.5C 147.333,46.5 147.667,47.5 148,48.5C 148.333,48.1667 148.667,47.8333 149,47.5C 150.911,52.8324 153.578,53.4991 157,49.5C 158.784,52.0026 160.451,52.0026 162,49.5C 162.667,50.1667 163.333,50.8333 164,51.5C 165.418,48.999 166.418,49.3323 167,52.5C 167.333,51.8333 167.667,51.1667 168,50.5C 169.566,49.9394 170.899,50.6061 172,52.5C 172.333,51.8333 172.667,51.1667 173,50.5C 174.563,53.0443 176.063,53.0443 177.5,50.5C 179.444,51.1892 181.444,51.6892 183.5,52C 184.705,53.3756 186.038,54.5423 187.5,55.5 Z"/></g>
<g><path style="opacity:1" fill="#422f2c" d="M 84.5,57.5 C 100.536,56.8489 116.202,57.5156 131.5,59.5C 130.559,61.0495 129.893,62.7162 129.5,64.5C 126.726,71.2172 123.059,77.3839 118.5,83C 116.711,83.5205 115.044,83.1871 113.5,82C 104.832,72.9672 96.6653,73.4672 89,83.5C 87.6063,85.3875 86.4396,87.3875 85.5,89.5C 84.5056,79.0131 84.1722,68.3464 84.5,57.5 Z"/></g>
<g><path style="opacity:1" fill="#dedcdd" d="M 129.5,64.5 C 129.893,62.7162 130.559,61.0495 131.5,59.5C 132.434,58.4324 132.768,57.099 132.5,55.5C 116.132,54.8486 100.132,55.5152 84.5,57.5C 83.5062,66.9856 83.1729,76.6522 83.5,86.5C 82.1721,81.7124 81.5054,76.5457 81.5,71C 81.5222,65.4513 81.8556,59.9513 82.5,54.5C 99.4902,53.3337 116.49,53.1671 133.5,54C 135.113,58.6094 133.78,62.1094 129.5,64.5 Z"/></g>
<g><path style="opacity:1" fill="#afabab" d="M 131.5,59.5 C 116.202,57.5156 100.536,56.8489 84.5,57.5C 100.132,55.5152 116.132,54.8486 132.5,55.5C 132.768,57.099 132.434,58.4324 131.5,59.5 Z"/></g>
<g><path style="opacity:1" fill="#a9a3a3" d="M 84.5,57.5 C 84.1722,68.3464 84.5056,79.0131 85.5,89.5C 85.44,90.0431 85.1067,90.3764 84.5,90.5C 83.5713,89.3112 83.238,87.9778 83.5,86.5C 83.1729,76.6522 83.5062,66.9856 84.5,57.5 Z"/></g>
<g><path style="opacity:0.998" fill="#3f2a26" d="M 197.5,95.5 C 197.179,101.026 197.512,106.36 198.5,111.5C 198.57,115.425 197.903,119.091 196.5,122.5C 196.768,120.901 196.434,119.568 195.5,118.5C 195.564,117.421 195.064,116.421 194,115.5C 193.5,115.667 193,115.833 192.5,116C 193.451,116.718 193.617,117.551 193,118.5C 192.333,117.167 191.667,117.167 191,118.5C 191.617,116.905 191.284,115.572 190,114.5C 189.19,119.046 187.857,119.38 186,115.5C 185.333,118.167 184.667,118.167 184,115.5C 183,116.833 182,116.833 181,115.5C 180.389,119.272 179.389,119.272 178,115.5C 176.149,117.781 174.482,117.781 173,115.5C 173.077,116.738 172.911,117.738 172.5,118.5C 171.749,117.624 171.249,116.624 171,115.5C 169.333,115.5 167.667,115.5 166,115.5C 165.667,116.167 165.333,116.833 165,117.5C 161.795,116.253 158.629,116.253 155.5,117.5C 154.808,116.975 154.308,116.308 154,115.5C 153,118.167 152,118.167 151,115.5C 150.667,116.167 150.333,116.833 150,117.5C 147.018,116.823 144.185,116.823 141.5,117.5C 140.117,114.924 139.283,115.258 139,118.5C 138.667,117.5 138.333,116.5 138,115.5C 136.455,115.366 134.788,115.7 133,116.5C 131.989,116.108 131.489,115.441 131.5,114.5C 130.572,116.335 129.406,116.668 128,115.5C 126.956,116.623 126.29,117.956 126,119.5C 124.149,117.96 122.982,116.46 122.5,115C 124.891,113.691 124.891,112.691 122.5,112C 122.833,111.667 123.167,111.333 123.5,111C 122.069,110.535 120.903,109.701 120,108.5C 119.74,110.618 118.74,112.284 117,113.5C 116.722,112.584 116.222,111.918 115.5,111.5C 115.703,109.956 116.37,108.622 117.5,107.5C 107.188,106.501 96.8548,106.168 86.5,106.5C 86.5,105.833 86.5,105.167 86.5,104.5C 89.6813,97.3253 94.0146,90.8253 99.5,85C 104.116,84.751 107.783,86.5843 110.5,90.5C 110.062,90.4346 109.728,90.6012 109.5,91C 110.061,92.676 111.061,94.0094 112.5,95C 116.054,95.3725 119.554,95.8725 123,96.5C 126.557,93.0638 129.891,89.3971 133,85.5C 136.563,74.9729 137.063,75.1396 134.5,86C 135.949,89.1272 135.282,91.7938 132.5,94C 133.167,94.3333 133.833,94.6667 134.5,95C 133.549,95.7175 133.383,96.5509 134,97.5C 137.729,96.7613 141.563,95.428 145.5,93.5C 147.059,94.0736 148.559,94.7402 150,95.5C 151.587,94.273 152.921,94.6063 154,96.5C 155.912,95.3081 157.912,94.3081 160,93.5C 162.168,95.4545 164.502,96.1212 167,95.5C 167.333,94.8333 167.667,94.1667 168,93.5C 168.704,96.9464 170.037,96.9464 172,93.5C 173.333,94.1667 174.667,94.8333 176,95.5C 177.714,94.0745 179.047,94.4078 180,96.5C 181.61,96.8696 183.11,96.2029 184.5,94.5C 185.086,94.7093 185.586,95.0426 186,95.5C 188.194,92.9825 190.194,93.3159 192,96.5C 193.919,95.926 195.753,95.5926 197.5,95.5 Z"/></g>
<g><path style="opacity:1" fill="#bdb9ba" d="M 141.5,49.5 C 142.497,49.4701 143.164,49.9701 143.5,51C 139.532,63.5823 134.032,75.4156 127,86.5C 122.463,91.4753 116.963,92.8087 110.5,90.5C 107.783,86.5843 104.116,84.751 99.5,85C 94.0146,90.8253 89.6813,97.3253 86.5,104.5C 87.3382,94.9914 91.6715,87.4914 99.5,82C 101.167,81.3333 102.833,81.3333 104.5,82C 109.079,88.6378 115.079,90.6378 122.5,88C 130.208,77.8133 135.875,66.6466 139.5,54.5C 140.931,53.2196 141.598,51.5529 141.5,49.5 Z"/></g>
<g><path style="opacity:0.998" fill="#3e2824" d="M 75.5,90.5 C 75.5,99.8333 75.5,109.167 75.5,118.5C 73.7048,124.084 72.8715,130.084 73,136.5C 72.6667,134.167 72.3333,131.833 72,129.5C 70.6156,134.212 69.4489,138.212 68.5,141.5C 67.3689,140.249 66.0356,139.249 64.5,138.5C 63.3527,138.818 62.5194,139.484 62,140.5C 61,137.833 60,137.833 59,140.5C 58.6667,139.833 58.3333,139.167 58,138.5C 56.6015,139.051 55.2682,139.384 54,139.5C 51.8024,137.625 49.969,137.625 48.5,139.5C 46.674,138.956 44.674,138.956 42.5,139.5C 39.7759,139.954 37.9425,138.954 37,136.5C 36.323,138.689 35.1563,139.022 33.5,137.5C 32.5224,137.977 31.6891,138.643 31,139.5C 29.6047,138.57 28.1047,138.57 26.5,139.5C 24.9707,139.471 23.804,138.804 23,137.5C 21.8631,138.364 20.5298,139.364 19,140.5C 17.6914,138.109 16.6914,138.109 16,140.5C 14.5972,138.802 12.7638,138.302 10.5,139C 10.8333,138.667 11.1667,138.333 11.5,138C 10.5838,137.626 9.75044,137.126 9,136.5C 9.33077,138.019 9.1641,139.352 8.5,140.5C 8.16667,139.167 7.83333,139.167 7.5,140.5C 7.5,140.833 7.5,141.167 7.5,141.5C 6.62709,136.331 5.12709,130.997 3,125.5C 2.66667,126.5 2.33333,127.5 2,128.5C 2.99479,124.775 2.66146,121.108 1,117.5C 0.78997,119.058 0.28997,120.391 -0.5,121.5C -0.5,119.833 -0.5,118.167 -0.5,116.5C 0.833333,114.5 0.833333,112.5 -0.5,110.5C -0.5,106.167 -0.5,101.833 -0.5,97.5C 1.52505,96.4352 3.35839,95.1019 5,93.5C 5.51935,94.5156 6.35268,95.1822 7.5,95.5C 9.73557,94.7815 11.9022,94.4482 14,94.5C 14.6667,95.1667 15.3333,95.8333 16,96.5C 17.6667,95.5 19.3333,94.5 21,93.5C 21.3333,94.1667 21.6667,94.8333 22,95.5C 23.1131,94.2889 24.2798,94.2889 25.5,95.5C 26.4776,95.0233 27.3109,94.3567 28,93.5C 30.0404,97.446 32.0404,97.446 34,93.5C 35.5944,94.5734 37.0944,95.5734 38.5,96.5C 41.0398,95.5979 43.5398,94.5979 46,93.5C 48.7423,94.8453 51.409,95.8453 54,96.5C 55.0852,95.7069 56.2519,95.0402 57.5,94.5C 58.8425,95.9023 59.6758,95.5689 60,93.5C 62.4927,95.6722 65.3261,96.5056 68.5,96C 68.8158,93.4164 69.8158,90.7497 71.5,88C 70.2888,87.1072 70.2888,86.2739 71.5,85.5C 72.2811,86.7287 72.7811,88.062 73,89.5C 73.3333,81.5 73.6667,73.5 74,65.5C 74.1706,74.0101 74.6706,82.3434 75.5,90.5 Z"/></g>
<g><path style="opacity:0.012" fill="#402b27" d="M 198.5,85.5 C 198.833,85.5 199.167,85.5 199.5,85.5C 199.5,94.1667 199.5,102.833 199.5,111.5C 199.167,111.5 198.833,111.5 198.5,111.5C 198.5,102.833 198.5,94.1667 198.5,85.5 Z"/></g>
<g><path style="opacity:1" fill="#a8a2a3" d="M 76.5,49.5 C 76.5,82.5 76.5,115.5 76.5,148.5C 78.8333,148.5 81.1667,148.5 83.5,148.5C 83.3335,136.829 83.5001,125.162 84,113.5C 94.4555,112.774 104.956,112.108 115.5,111.5C 114.833,112.833 114.167,114.167 113.5,115.5C 103.833,115.5 94.1667,115.5 84.5,115.5C 84.5,126.833 84.5,138.167 84.5,149.5C 81.5,149.5 78.5,149.5 75.5,149.5C 75.5,139.167 75.5,128.833 75.5,118.5C 75.5,109.167 75.5,99.8333 75.5,90.5C 75.171,76.6565 75.5043,62.9898 76.5,49.5 Z"/></g>
<g><path style="opacity:1" fill="#e4e2e3" d="M 76.5,49.5 C 98.1667,49.5 119.833,49.5 141.5,49.5C 141.598,51.5529 140.931,53.2196 139.5,54.5C 139.33,53.1779 139.663,52.0113 140.5,51C 119.836,50.5 99.1694,50.3334 78.5,50.5C 78.5,81.8333 78.5,113.167 78.5,144.5C 79.8221,144.67 80.9887,144.337 82,143.5C 82.3333,133.167 82.6667,122.833 83,112.5C 83.5,112 84,111.5 84.5,111C 94.1838,110.832 103.851,110.332 113.5,109.5C 113.709,108.914 114.043,108.414 114.5,108C 104.991,107.83 95.6577,107.33 86.5,106.5C 96.8548,106.168 107.188,106.501 117.5,107.5C 116.37,108.622 115.703,109.956 115.5,111.5C 104.956,112.108 94.4555,112.774 84,113.5C 83.5001,125.162 83.3335,136.829 83.5,148.5C 81.1667,148.5 78.8333,148.5 76.5,148.5C 76.5,115.5 76.5,82.5 76.5,49.5 Z"/></g>
<g><path style="opacity:0.995" fill="#3c2623" d="M 195.5,118.5 C 195.5,119.833 195.5,121.167 195.5,122.5C 194.167,123.5 194.167,124.5 195.5,125.5C 195.768,127.099 195.434,128.432 194.5,129.5C 194.167,125.5 193.833,125.5 193.5,129.5C 192.596,130.209 192.263,131.209 192.5,132.5C 191.167,133.167 191.167,133.833 192.5,134.5C 192.598,136.553 191.931,138.22 190.5,139.5C 190.539,137.776 190.206,137.443 189.5,138.5C 187.321,136.836 185.488,137.17 184,139.5C 182.87,138.886 181.537,138.886 180,139.5C 178.105,139.385 176.438,138.718 175,137.5C 174.667,138.167 174.333,138.833 174,139.5C 173.259,138.359 172.425,138.359 171.5,139.5C 170.483,136.972 169.316,136.972 168,139.5C 167.667,138.833 167.333,138.167 167,137.5C 165.004,137.996 163.337,138.996 162,140.5C 161,137.833 160,137.833 159,140.5C 158.667,139.833 158.333,139.167 158,138.5C 156.602,139.051 155.268,139.384 154,139.5C 151.802,137.625 149.969,137.625 148.5,139.5C 145.335,139.449 142.002,139.282 138.5,139C 137.874,138.25 137.374,137.416 137,136.5C 136.323,138.689 135.156,139.022 133.5,137.5C 132.522,137.977 131.689,138.643 131,139.5C 129.605,138.57 128.105,138.57 126.5,139.5C 124.971,139.471 123.804,138.804 123,137.5C 121.863,138.364 120.53,139.364 119,140.5C 117.691,138.109 116.691,138.109 116,140.5C 114.597,138.802 112.764,138.302 110.5,139C 111.696,138.346 111.696,137.846 110.5,137.5C 109.23,138.562 108.063,139.562 107,140.5C 105.691,138.109 104.691,138.109 104,140.5C 103.044,139.106 101.711,138.439 100,138.5C 97.9135,139.418 95.7468,140.085 93.5,140.5C 92.7993,136.424 91.2993,132.758 89,129.5C 87.9563,130.623 87.2896,131.956 87,133.5C 86.2571,127.846 85.7571,122.346 85.5,117C 95.5794,116.845 104.913,116.345 113.5,115.5C 114.167,114.167 114.833,112.833 115.5,111.5C 116.222,111.918 116.722,112.584 117,113.5C 118.74,112.284 119.74,110.618 120,108.5C 120.903,109.701 122.069,110.535 123.5,111C 123.167,111.333 122.833,111.667 122.5,112C 124.891,112.691 124.891,113.691 122.5,115C 122.982,116.46 124.149,117.96 126,119.5C 126.29,117.956 126.956,116.623 128,115.5C 129.406,116.668 130.572,116.335 131.5,114.5C 131.489,115.441 131.989,116.108 133,116.5C 134.788,115.7 136.455,115.366 138,115.5C 138.333,116.5 138.667,117.5 139,118.5C 139.283,115.258 140.117,114.924 141.5,117.5C 144.185,116.823 147.018,116.823 150,117.5C 150.333,116.833 150.667,116.167 151,115.5C 152,118.167 153,118.167 154,115.5C 154.308,116.308 154.808,116.975 155.5,117.5C 158.629,116.253 161.795,116.253 165,117.5C 165.333,116.833 165.667,116.167 166,115.5C 167.667,115.5 169.333,115.5 171,115.5C 171.249,116.624 171.749,117.624 172.5,118.5C 172.911,117.738 173.077,116.738 173,115.5C 174.482,117.781 176.149,117.781 178,115.5C 179.389,119.272 180.389,119.272 181,115.5C 182,116.833 183,116.833 184,115.5C 184.667,118.167 185.333,118.167 186,115.5C 187.857,119.38 189.19,119.046 190,114.5C 191.284,115.572 191.617,116.905 191,118.5C 191.667,117.167 192.333,117.167 193,118.5C 193.617,117.551 193.451,116.718 192.5,116C 193,115.833 193.5,115.667 194,115.5C 195.064,116.421 195.564,117.421 195.5,118.5 Z"/></g>
<g><path style="opacity:0.016" fill="#3f2925" d="M 195.5,122.5 C 195.833,122.5 196.167,122.5 196.5,122.5C 196.737,123.791 196.404,124.791 195.5,125.5C 195.5,124.5 195.5,123.5 195.5,122.5 Z"/></g>
<g><path style="opacity:0.012" fill="#3d2723" d="M 193.5,129.5 C 193.833,129.5 194.167,129.5 194.5,129.5C 194.737,130.791 194.404,131.791 193.5,132.5C 193.5,131.5 193.5,130.5 193.5,129.5 Z"/></g>
<g><path style="opacity:0.012" fill="#3c2622" d="M 192.5,132.5 C 192.833,132.5 193.167,132.5 193.5,132.5C 193.672,133.492 193.338,134.158 192.5,134.5C 192.5,133.833 192.5,133.167 192.5,132.5 Z"/></g>
<g><path style="opacity:0.008" fill="#3c2521" d="M 189.5,139.5 C 189.833,139.5 190.167,139.5 190.5,139.5C 190.672,140.492 190.338,141.158 189.5,141.5C 189.5,140.833 189.5,140.167 189.5,139.5 Z"/></g>
<g><path style="opacity:0.99" fill="#3a231f" d="M 113.5,115.5 C 104.913,116.345 95.5794,116.845 85.5,117C 85.7571,122.346 86.2571,127.846 87,133.5C 87.2896,131.956 87.9563,130.623 89,129.5C 91.2993,132.758 92.7993,136.424 93.5,140.5C 95.7468,140.085 97.9135,139.418 100,138.5C 101.711,138.439 103.044,139.106 104,140.5C 104.691,138.109 105.691,138.109 107,140.5C 108.063,139.562 109.23,138.562 110.5,137.5C 111.696,137.846 111.696,138.346 110.5,139C 112.764,138.302 114.597,138.802 116,140.5C 116.691,138.109 117.691,138.109 119,140.5C 120.53,139.364 121.863,138.364 123,137.5C 123.804,138.804 124.971,139.471 126.5,139.5C 128.105,138.57 129.605,138.57 131,139.5C 131.689,138.643 132.522,137.977 133.5,137.5C 135.156,139.022 136.323,138.689 137,136.5C 137.374,137.416 137.874,138.25 138.5,139C 142.002,139.282 145.335,139.449 148.5,139.5C 149.969,137.625 151.802,137.625 154,139.5C 155.268,139.384 156.602,139.051 158,138.5C 158.333,139.167 158.667,139.833 159,140.5C 160,137.833 161,137.833 162,140.5C 163.337,138.996 165.004,137.996 167,137.5C 167.333,138.167 167.667,138.833 168,139.5C 169.316,136.972 170.483,136.972 171.5,139.5C 172.425,138.359 173.259,138.359 174,139.5C 174.333,138.833 174.667,138.167 175,137.5C 176.438,138.718 178.105,139.385 180,139.5C 181.537,138.886 182.87,138.886 184,139.5C 185.488,137.17 187.321,136.836 189.5,138.5C 189.5,138.833 189.5,139.167 189.5,139.5C 188.167,140.167 188.167,140.833 189.5,141.5C 186.746,148.686 182.746,155.019 177.5,160.5C 177.167,159.167 176.833,159.167 176.5,160.5C 175.167,160.833 175.167,161.167 176.5,161.5C 176.262,163.404 175.262,164.738 173.5,165.5C 173.167,164.167 172.833,164.167 172.5,165.5C 172.167,165.5 171.833,165.5 171.5,165.5C 170.06,166.363 168.726,166.363 167.5,165.5C 166.186,166.313 165.019,167.313 164,168.5C 162.097,168.306 160.263,168.306 158.5,168.5C 157.029,167.583 155.529,166.583 154,165.5C 152.034,168.226 150.034,168.56 148,166.5C 147.581,167.672 146.915,168.672 146,169.5C 144.494,166.526 142.828,166.193 141,168.5C 137.277,168.195 133.61,168.195 130,168.5C 127.365,165.494 125.365,165.828 124,169.5C 123,168.167 122,166.833 121,165.5C 121.213,169.516 120.213,169.516 118,165.5C 114.392,166.397 111.392,167.397 109,168.5C 108.085,167.672 107.419,166.672 107,165.5C 103.831,165.863 101.164,167.197 99,169.5C 98.5172,168.552 98.3505,167.552 98.5,166.5C 96.8561,166.286 95.3561,166.62 94,167.5C 93.6667,166.833 93.3333,166.167 93,165.5C 91.3506,168.877 89.3506,169.21 87,166.5C 85.5981,168.973 84.0981,168.973 82.5,166.5C 81.1575,167.902 80.3242,167.569 80,165.5C 79.3946,167.481 78.3946,167.815 77,166.5C 75.3333,167.167 73.6667,167.833 72,168.5C 70.513,167.747 70.3463,166.914 71.5,166C 70.0654,166.311 68.7321,166.145 67.5,165.5C 66.3044,165.846 66.3044,166.346 67.5,167C 66.2341,167.309 65.0674,167.809 64,168.5C 62.0967,168.306 60.2633,168.306 58.5,168.5C 57.0295,167.583 55.5295,166.583 54,165.5C 52.0341,168.226 50.0341,168.56 48,166.5C 47.5814,167.672 46.9147,168.672 46,169.5C 44.4943,166.526 42.8276,166.193 41,168.5C 37.864,168.229 34.6974,167.896 31.5,167.5C 31.1667,167.833 30.8333,168.167 30.5,168.5C 31.5244,169.852 32.5244,171.185 33.5,172.5C 29.6011,169.352 25.7678,166.685 22,164.5C 21.3828,163.551 21.5494,162.718 22.5,162C 20.8619,161.758 19.3619,160.925 18,159.5C 16.1023,156.814 14.9356,154.147 14.5,151.5C 14.1667,150.167 13.8333,150.167 13.5,151.5C 11.0002,148.506 9.00025,145.173 7.5,141.5C 7.5,141.167 7.5,140.833 7.5,140.5C 7.83333,140.5 8.16667,140.5 8.5,140.5C 9.1641,139.352 9.33077,138.019 9,136.5C 9.75044,137.126 10.5838,137.626 11.5,138C 11.1667,138.333 10.8333,138.667 10.5,139C 12.7638,138.302 14.5972,138.802 16,140.5C 16.6914,138.109 17.6914,138.109 19,140.5C 20.5298,139.364 21.8631,138.364 23,137.5C 23.804,138.804 24.9707,139.471 26.5,139.5C 28.1047,138.57 29.6047,138.57 31,139.5C 31.6891,138.643 32.5224,137.977 33.5,137.5C 35.1563,139.022 36.323,138.689 37,136.5C 37.9425,138.954 39.7759,139.954 42.5,139.5C 44.674,138.956 46.674,138.956 48.5,139.5C 49.969,137.625 51.8024,137.625 54,139.5C 55.2682,139.384 56.6015,139.051 58,138.5C 58.3333,139.167 58.6667,139.833 59,140.5C 60,137.833 61,137.833 62,140.5C 62.5194,139.484 63.3527,138.818 64.5,138.5C 66.0356,139.249 67.3689,140.249 68.5,141.5C 69.4489,138.212 70.6156,134.212 72,129.5C 72.3333,131.833 72.6667,134.167 73,136.5C 72.8715,130.084 73.7048,124.084 75.5,118.5C 75.5,128.833 75.5,139.167 75.5,149.5C 78.5,149.5 81.5,149.5 84.5,149.5C 84.5,138.167 84.5,126.833 84.5,115.5C 94.1667,115.5 103.833,115.5 113.5,115.5 Z"/></g>
<g><path style="opacity:0.008" fill="#495255" d="M 13.5,151.5 C 13.8333,151.5 14.1667,151.5 14.5,151.5C 14.1667,154.167 13.8333,154.167 13.5,151.5 Z"/></g>
<g><path style="opacity:0.016" fill="#3b2520" d="M 176.5,160.5 C 176.833,160.5 177.167,160.5 177.5,160.5C 177.315,161.17 176.981,161.17 176.5,160.5 Z"/></g>
<g><path style="opacity:0.993" fill="#36201c" d="M 171.5,165.5 C 171.5,165.833 171.5,166.167 171.5,166.5C 170.833,166.5 170.5,166.833 170.5,167.5C 169.833,167.5 169.5,167.833 169.5,168.5C 168.833,168.5 168.5,168.833 168.5,169.5C 167.833,169.5 167.5,169.833 167.5,170.5C 166.833,170.5 166.5,170.833 166.5,171.5C 165.833,171.5 165.5,171.833 165.5,172.5C 164.833,172.5 164.5,172.833 164.5,173.5C 163.833,173.5 163.5,173.833 163.5,174.5C 162.508,174.328 161.842,174.662 161.5,175.5C 160.833,175.5 160.5,175.833 160.5,176.5C 159.833,176.5 159.5,176.833 159.5,177.5C 158.833,177.5 158.5,177.833 158.5,178.5C 157.508,178.328 156.842,178.662 156.5,179.5C 155.833,179.5 155.5,179.833 155.5,180.5C 154.508,180.328 153.842,180.662 153.5,181.5C 152.833,181.5 152.5,181.833 152.5,182.5C 151.833,182.5 151.167,182.5 150.5,182.5C 138.846,182.502 127.346,182.835 116,183.5C 112.497,182.479 109.163,181.812 106,181.5C 104,182.167 102,182.833 100,183.5C 82.8226,182.507 65.6559,182.507 48.5,183.5C 42.6522,180.985 37.6522,177.318 33.5,172.5C 32.5244,171.185 31.5244,169.852 30.5,168.5C 30.8333,168.167 31.1667,167.833 31.5,167.5C 34.6974,167.896 37.864,168.229 41,168.5C 42.8276,166.193 44.4943,166.526 46,169.5C 46.9147,168.672 47.5814,167.672 48,166.5C 50.0341,168.56 52.0341,168.226 54,165.5C 55.5295,166.583 57.0295,167.583 58.5,168.5C 60.2633,168.306 62.0967,168.306 64,168.5C 65.0674,167.809 66.2341,167.309 67.5,167C 66.3044,166.346 66.3044,165.846 67.5,165.5C 68.7321,166.145 70.0654,166.311 71.5,166C 70.3463,166.914 70.513,167.747 72,168.5C 73.6667,167.833 75.3333,167.167 77,166.5C 78.3946,167.815 79.3946,167.481 80,165.5C 80.3242,167.569 81.1575,167.902 82.5,166.5C 84.0981,168.973 85.5981,168.973 87,166.5C 89.3506,169.21 91.3506,168.877 93,165.5C 93.3333,166.167 93.6667,166.833 94,167.5C 95.3561,166.62 96.8561,166.286 98.5,166.5C 98.3505,167.552 98.5172,168.552 99,169.5C 101.164,167.197 103.831,165.863 107,165.5C 107.419,166.672 108.085,167.672 109,168.5C 111.392,167.397 114.392,166.397 118,165.5C 120.213,169.516 121.213,169.516 121,165.5C 122,166.833 123,168.167 124,169.5C 125.365,165.828 127.365,165.494 130,168.5C 133.61,168.195 137.277,168.195 141,168.5C 142.828,166.193 144.494,166.526 146,169.5C 146.915,168.672 147.581,167.672 148,166.5C 150.034,168.56 152.034,168.226 154,165.5C 155.529,166.583 157.029,167.583 158.5,168.5C 160.263,168.306 162.097,168.306 164,168.5C 165.019,167.313 166.186,166.313 167.5,165.5C 168.726,166.363 170.06,166.363 171.5,165.5 Z"/></g>
<g><path style="opacity:0.012" fill="#3c241f" d="M 172.5,165.5 C 172.833,165.5 173.167,165.5 173.5,165.5C 173.315,166.17 172.981,166.17 172.5,165.5 Z"/></g>
<g><path style="opacity:0.012" fill="#3c241f" d="M 171.5,166.5 C 171.833,166.5 172.167,166.5 172.5,166.5C 172.315,167.17 171.981,167.17 171.5,166.5 Z"/></g>
<g><path style="opacity:0.016" fill="#3a241f" d="M 170.5,167.5 C 170.833,167.5 171.167,167.5 171.5,167.5C 171.315,168.17 170.981,168.17 170.5,167.5 Z"/></g>
<g><path style="opacity:0.016" fill="#3a241f" d="M 169.5,168.5 C 169.833,168.5 170.167,168.5 170.5,168.5C 170.315,169.17 169.981,169.17 169.5,168.5 Z"/></g>
<g><path style="opacity:0.016" fill="#3a241f" d="M 168.5,169.5 C 168.833,169.5 169.167,169.5 169.5,169.5C 169.315,170.17 168.981,170.17 168.5,169.5 Z"/></g>
<g><path style="opacity:0.016" fill="#3a241f" d="M 167.5,170.5 C 167.833,170.5 168.167,170.5 168.5,170.5C 168.315,171.17 167.981,171.17 167.5,170.5 Z"/></g>
<g><path style="opacity:0.012" fill="#3a241f" d="M 166.5,171.5 C 166.833,171.5 167.167,171.5 167.5,171.5C 167.315,172.17 166.981,172.17 166.5,171.5 Z"/></g>
<g><path style="opacity:0.012" fill="#3a241f" d="M 165.5,172.5 C 165.833,172.5 166.167,172.5 166.5,172.5C 166.315,173.17 165.981,173.17 165.5,172.5 Z"/></g>
<g><path style="opacity:0.012" fill="#39231e" d="M 164.5,173.5 C 164.833,173.5 165.167,173.5 165.5,173.5C 165.315,174.17 164.981,174.17 164.5,173.5 Z"/></g>
<g><path style="opacity:0.008" fill="#39231e" d="M 163.5,174.5 C 163.833,174.5 164.167,174.5 164.5,174.5C 164.315,175.17 163.981,175.17 163.5,174.5 Z"/></g>
<g><path style="opacity:0.006" fill="#37201d" d="M 161.5,176.5 C 161.5,176.167 161.5,175.833 161.5,175.5C 162.167,175.5 162.833,175.5 163.5,175.5C 163.158,176.338 162.492,176.672 161.5,176.5 Z"/></g>
<g><path style="opacity:0.016" fill="#37221d" d="M 160.5,176.5 C 160.833,176.5 161.167,176.5 161.5,176.5C 161.315,177.17 160.981,177.17 160.5,176.5 Z"/></g>
<g><path style="opacity:0.016" fill="#37221d" d="M 159.5,177.5 C 159.833,177.5 160.167,177.5 160.5,177.5C 160.315,178.17 159.981,178.17 159.5,177.5 Z"/></g>
<g><path style="opacity:0.008" fill="#36201c" d="M 158.5,178.5 C 158.833,178.5 159.167,178.5 159.5,178.5C 159.315,179.17 158.981,179.17 158.5,178.5 Z"/></g>
<g><path style="opacity:0.004" fill="#341f1c" d="M 156.5,180.5 C 156.5,180.167 156.5,179.833 156.5,179.5C 157.167,179.5 157.833,179.5 158.5,179.5C 158.158,180.338 157.492,180.672 156.5,180.5 Z"/></g>
<g><path style="opacity:0.016" fill="#34211d" d="M 155.5,180.5 C 155.833,180.5 156.167,180.5 156.5,180.5C 156.315,181.17 155.981,181.17 155.5,180.5 Z"/></g>
<g><path style="opacity:0.969" fill="#2d1d1a" d="M 150.5,182.5 C 150.5,182.833 150.5,183.167 150.5,183.5C 149.833,183.5 149.5,183.833 149.5,184.5C 148.508,184.328 147.842,184.662 147.5,185.5C 146.508,185.328 145.842,185.662 145.5,186.5C 144.508,186.328 143.842,186.662 143.5,187.5C 142.508,187.328 141.842,187.662 141.5,188.5C 140.508,188.328 139.842,188.662 139.5,189.5C 138.508,189.328 137.842,189.662 137.5,190.5C 136.209,190.263 135.209,190.596 134.5,191.5C 133.508,191.328 132.842,191.662 132.5,192.5C 131.209,192.263 130.209,192.596 129.5,193.5C 128.209,193.263 127.209,193.596 126.5,194.5C 124.901,194.232 123.568,194.566 122.5,195.5C 120.585,195.216 118.919,195.549 117.5,196.5C 115.265,196.205 113.265,196.539 111.5,197.5C 93.5264,199.226 76.1931,196.726 59.5,190C 55.4401,188.311 51.7734,186.144 48.5,183.5C 65.6559,182.507 82.8226,182.507 100,183.5C 102,182.833 104,182.167 106,181.5C 109.163,181.812 112.497,182.479 116,183.5C 127.346,182.835 138.846,182.502 150.5,182.5 Z"/></g>
<g><path style="opacity:0.006" fill="#331f1c" d="M 153.5,182.5 C 153.5,182.167 153.5,181.833 153.5,181.5C 154.167,181.5 154.833,181.5 155.5,181.5C 155.158,182.338 154.492,182.672 153.5,182.5 Z"/></g>
<g><path style="opacity:0.016" fill="#34211d" d="M 152.5,182.5 C 152.833,182.5 153.167,182.5 153.5,182.5C 153.315,183.17 152.981,183.17 152.5,182.5 Z"/></g>
<g><path style="opacity:0.004" fill="#301d1a" d="M 150.5,184.5 C 150.5,184.167 150.5,183.833 150.5,183.5C 151.167,183.5 151.833,183.5 152.5,183.5C 152.158,184.338 151.492,184.672 150.5,184.5 Z"/></g>
<g><path style="opacity:0.012" fill="#311f1b" d="M 149.5,184.5 C 149.833,184.5 150.167,184.5 150.5,184.5C 150.315,185.17 149.981,185.17 149.5,184.5 Z"/></g>
<g><path style="opacity:0.004" fill="#2c1d19" d="M 147.5,186.5 C 147.5,186.167 147.5,185.833 147.5,185.5C 148.167,185.5 148.833,185.5 149.5,185.5C 149.158,186.338 148.492,186.672 147.5,186.5 Z"/></g>
<g><path style="opacity:0.004" fill="#301e1b" d="M 145.5,187.5 C 145.5,187.167 145.5,186.833 145.5,186.5C 146.167,186.5 146.833,186.5 147.5,186.5C 147.158,187.338 146.492,187.672 145.5,187.5 Z"/></g>
<g><path style="opacity:0.008" fill="#2d1c1a" d="M 143.5,188.5 C 143.5,188.167 143.5,187.833 143.5,187.5C 144.167,187.5 144.833,187.5 145.5,187.5C 145.158,188.338 144.492,188.672 143.5,188.5 Z"/></g>
<g><path style="opacity:0.008" fill="#2c1c1a" d="M 141.5,189.5 C 141.5,189.167 141.5,188.833 141.5,188.5C 142.167,188.5 142.833,188.5 143.5,188.5C 143.158,189.338 142.492,189.672 141.5,189.5 Z"/></g>
<g><path style="opacity:0.01" fill="#2f1e1a" d="M 139.5,190.5 C 139.5,190.167 139.5,189.833 139.5,189.5C 140.167,189.5 140.833,189.5 141.5,189.5C 141.158,190.338 140.492,190.672 139.5,190.5 Z"/></g>
<g><path style="opacity:0.008" fill="#2b1c19" d="M 137.5,191.5 C 137.5,191.167 137.5,190.833 137.5,190.5C 138.167,190.5 138.833,190.5 139.5,190.5C 139.158,191.338 138.492,191.672 137.5,191.5 Z"/></g>
<g><path style="opacity:0.012" fill="#2d1d1a" d="M 134.5,192.5 C 134.5,192.167 134.5,191.833 134.5,191.5C 135.5,191.5 136.5,191.5 137.5,191.5C 136.791,192.404 135.791,192.737 134.5,192.5 Z"/></g>
<g><path style="opacity:0.012" fill="#2a1c19" d="M 132.5,193.5 C 132.5,193.167 132.5,192.833 132.5,192.5C 133.167,192.5 133.833,192.5 134.5,192.5C 134.158,193.338 133.492,193.672 132.5,193.5 Z"/></g>
<g><path style="opacity:0.012" fill="#2b1c19" d="M 129.5,194.5 C 129.5,194.167 129.5,193.833 129.5,193.5C 130.5,193.5 131.5,193.5 132.5,193.5C 131.791,194.404 130.791,194.737 129.5,194.5 Z"/></g>
<g><path style="opacity:0.014" fill="#2b1c19" d="M 126.5,195.5 C 126.5,195.167 126.5,194.833 126.5,194.5C 127.5,194.5 128.5,194.5 129.5,194.5C 128.791,195.404 127.791,195.737 126.5,195.5 Z"/></g>
<g><path style="opacity:0.006" fill="#2c1c1a" d="M 122.5,196.5 C 122.5,196.167 122.5,195.833 122.5,195.5C 123.833,195.5 125.167,195.5 126.5,195.5C 125.432,196.434 124.099,196.768 122.5,196.5 Z"/></g>
<g><path style="opacity:0.008" fill="#2c1c1a" d="M 117.5,197.5 C 117.5,197.167 117.5,196.833 117.5,196.5C 119.167,196.5 120.833,196.5 122.5,196.5C 121.081,197.451 119.415,197.784 117.5,197.5 Z"/></g>
<g><path style="opacity:0.011" fill="#2a1c19" d="M 111.5,198.5 C 111.5,198.167 111.5,197.833 111.5,197.5C 113.5,197.5 115.5,197.5 117.5,197.5C 115.735,198.461 113.735,198.795 111.5,198.5 Z"/></g>
<g><path style="opacity:0.014" fill="#2d1d1b" d="M 85.5,199.5 C 93.9839,198.507 102.651,198.174 111.5,198.5C 111.5,198.833 111.5,199.167 111.5,199.5C 102.833,199.5 94.1667,199.5 85.5,199.5 Z"/></g>
</svg>
