<?xml version="1.0" encoding="UTF-8"?>
<svg version="1.1" xmlns="http://www.w3.org/2000/svg" width="64" height="64">
<path d="M0 0 C21.12 0 42.24 0 64 0 C64 21.12 64 42.24 64 64 C42.88 64 21.76 64 0 64 C0 42.88 0 21.76 0 0 Z " fill="#351B0C" transform="translate(0,0)"/>
<path d="M0 0 C0.9075 0.474375 1.815 0.94875 2.75 1.4375 C6.02885532 1.22642707 6.02885532 1.22642707 8.75 0.4375 C6.56482901 2.84325607 4.49080329 4.23285581 1.5625 5.625 C0.84707031 5.96917969 0.13164063 6.31335938 -0.60546875 6.66796875 C-1.14816406 6.92191406 -1.69085938 7.17585938 -2.25 7.4375 C-3.24 6.7775 -4.23 6.1175 -5.25 5.4375 C-9.12720334 5.10752525 -12.0289089 5.13672064 -15.25 7.4375 C-17.55567313 10.66544238 -17.57369432 13.55316819 -17.25 17.4375 C-16.38676251 20.02721247 -15.71898968 21.10250737 -13.5 22.6875 C-9.41249453 24.05000182 -6.37412097 23.93710932 -2.4375 22.1875 C-0.10887096 20.63222235 -0.10887096 20.63222235 0.5625 18.25 C0.6553125 17.3528125 0.6553125 17.3528125 0.75 16.4375 C-0.9 16.4375 -2.55 16.4375 -4.25 16.4375 C-1.84497637 13.80229259 0.7685849 12.03447057 3.8125 10.1875 C4.69035156 9.64609375 5.56820312 9.1046875 6.47265625 8.546875 C7.22417969 8.18078125 7.97570313 7.8146875 8.75 7.4375 C9.41 7.7675 10.07 8.0975 10.75 8.4375 C10.09 9.4275 9.43 10.4175 8.75 11.4375 C8.40249009 13.21917779 8.11652465 15.01338779 7.875 16.8125 C7.08906512 21.39510491 6.33538193 24.25049384 2.75 27.4375 C-2.2596032 30.89651173 -7.34318291 31.43404889 -13.25 30.4375 C-16.22383797 29.14244153 -18.85804851 27.64237148 -21.25 25.4375 C-21.25 24.7775 -21.25 24.1175 -21.25 23.4375 C-21.91 23.4375 -22.57 23.4375 -23.25 23.4375 C-24.90028686 17.60111964 -25.49203775 11.11164947 -22.6875 5.5625 C-16.89327204 -1.86599738 -8.63436268 -4.15113591 0 0 Z " fill="#FDFDFD" transform="translate(40.25,17.5625)"/>
<path d="M0 0 C0.66 0 1.32 0 2 0 C2.33 4.29 2.66 8.58 3 13 C3.66 13 4.32 13 5 13 C5.33 16.3 5.66 19.6 6 23 C-0.93 23 -7.86 23 -15 23 C-17.25 12.875 -17.25 12.875 -17 7 C-15.78763672 6.87044922 -15.78763672 6.87044922 -14.55078125 6.73828125 C-7.91486602 5.86576646 -4.18964975 5.30688968 0 0 Z " fill="#512913" transform="translate(45,41)"/>
<path d="M0 0 C2.97 0 5.94 0 9 0 C10.71036463 5.3591425 11.48263876 10.39525319 12 16 C8.7 16 5.4 16 2 16 C0.64007308 10.47529689 -0.2417234 5.68049985 0 0 Z " fill="#783D1C" transform="translate(28,48)"/>
<path d="M0 0 C0.99 6.27 1.98 12.54 3 19 C1.02 19 -0.96 19 -3 19 C-4.24200752 13.6822785 -5.30834212 8.41798672 -6 3 C-2.25 0 -2.25 0 0 0 Z " fill="#613116" transform="translate(43,45)"/>
<path d="M0 0 C-1.32291145 3.96873434 -2.91149738 4.29905037 -6.5625 6.1875 C-7.57441406 6.71730469 -8.58632813 7.24710938 -9.62890625 7.79296875 C-10.41136719 8.19128906 -11.19382812 8.58960938 -12 9 C-10.68 9.33 -9.36 9.66 -8 10 C-8.125 12.3125 -8.125 12.3125 -9 15 C-12.0625 16.8125 -12.0625 16.8125 -15 18 C-16 15 -17 12 -18 9 C-15.37785672 7.49480613 -12.75255792 5.99568681 -10.125 4.5 C-9.37863281 4.07074219 -8.63226563 3.64148438 -7.86328125 3.19921875 C-7.14785156 2.79316406 -6.43242188 2.38710938 -5.6953125 1.96875 C-5.03547363 1.59169922 -4.37563477 1.21464844 -3.69580078 0.82617188 C-2 0 -2 0 0 0 Z " fill="#0A0502" transform="translate(49,24)"/>
<path d="M0 0 C0.66 0.33 1.32 0.66 2 1 C2.6328125 3.06640625 2.6328125 3.06640625 3.125 5.5625 C3.29257812 6.38878906 3.46015625 7.21507812 3.6328125 8.06640625 C3.75398438 8.70449219 3.87515625 9.34257813 4 10 C-2.625 9.25 -2.625 9.25 -6 7 C-5.8125 5.1875 -5.8125 5.1875 -5 3 C-2.5625 1.1875 -2.5625 1.1875 0 0 Z " fill="#513423" transform="translate(30,32)"/>
<path d="M0 0 C0.66 0 1.32 0 2 0 C3.20307987 3.60923962 3.40565724 6.21386577 3 10 C0.5 11.9375 0.5 11.9375 -2 13 C-3.41000664 10.17998673 -3.24548451 8.12992745 -3 5 C-1.625 2.125 -1.625 2.125 0 0 Z " fill="#1E0F06" transform="translate(25,24)"/>
<path d="M0 0 C0.99 0.33 1.98 0.66 3 1 C3 3.31 3 5.62 3 8 C3.66 8 4.32 8 5 8 C5.33 10.64 5.66 13.28 6 16 C4.68 16 3.36 16 2 16 C0.61470179 10.54538831 -0.2396943 5.63281599 0 0 Z " fill="#8A4620" transform="translate(28,48)"/>
<path d="M0 0 C0.66 0 1.32 0 2 0 C3.2982126 5.76081841 4.25706972 11.08739655 4 17 C3.34 17 2.68 17 2 17 C0.7603328 11.69229868 -0.43472695 6.42662124 -1 1 C-0.67 0.67 -0.34 0.34 0 0 Z " fill="#6A3619" transform="translate(38,47)"/>
<path d="M0 0 C2.31 0 4.62 0 7 0 C6.875 2.3125 6.875 2.3125 6 5 C2.9375 6.8125 2.9375 6.8125 0 8 C-1.125 2.25 -1.125 2.25 0 0 Z " fill="#1F1008" transform="translate(34,34)"/>
<path d="M0 0 C-5.28350251 3.23199069 -10.60520389 6.39446441 -16 9.4375 C-16.9075 9.95183594 -17.815 10.46617188 -18.75 10.99609375 C-19.86375 11.49302734 -19.86375 11.49302734 -21 12 C-21.66 11.67 -22.32 11.34 -23 11 C-19.73925221 8.96253343 -16.46493707 6.94799087 -13.1875 4.9375 C-12.25873047 4.35677734 -11.32996094 3.77605469 -10.37304688 3.17773438 C-9.48037109 2.63310547 -8.58769531 2.08847656 -7.66796875 1.52734375 C-6.84578857 1.01937256 -6.0236084 0.51140137 -5.17651367 -0.01196289 C-3 -1 -3 -1 0 0 Z " fill="#FEFEFE" transform="translate(55,20)"/>
<path d="M0 0 C0.66 0.33 1.32 0.66 2 1 C2.6328125 3.06640625 2.6328125 3.06640625 3.125 5.5625 C3.29257812 6.38878906 3.46015625 7.21507812 3.6328125 8.06640625 C3.75398438 8.70449219 3.87515625 9.34257813 4 10 C3.01 10 2.02 10 1 10 C0.566875 8.2984375 0.566875 8.2984375 0.125 6.5625 C-0.24625 5.386875 -0.6175 4.21125 -1 3 C-1.66 2.67 -2.32 2.34 -3 2 C-2.01 1.34 -1.02 0.68 0 0 Z " fill="#685347" transform="translate(30,32)"/>
<path d="M0 0 C0.66 0 1.32 0 2 0 C2.33 2.64 2.66 5.28 3 8 C2.01 8.66 1.02 9.32 0 10 C-1.36952673 7.26094655 -1.12621361 5.02912668 -1 2 C-0.67 1.34 -0.34 0.68 0 0 Z " fill="#331B0E" transform="translate(23,27)"/>
<path d="M0 0 C0.66 0 1.32 0 2 0 C2 2.31 2 4.62 2 7 C1.01 7.495 1.01 7.495 0 8 C-1.125 2.25 -1.125 2.25 0 0 Z " fill="#3C281C" transform="translate(34,34)"/>
</svg>
