<?xml version="1.0" encoding="UTF-8"?>
<svg version="1.1" xmlns="http://www.w3.org/2000/svg" width="200" height="200">
<path d="M0 0 C1.83111328 -0.02416992 1.83111328 -0.02416992 3.69921875 -0.04882812 C30.06414896 -0.06277782 54.09954085 11.06991488 72.75 29.3125 C92.86623059 49.62695155 101.18537746 75.47773815 101.11572266 103.6237793 C100.97633914 113.40683996 99.84961917 122.05238774 96.75 131.3125 C96.3375 132.56546875 95.925 133.8184375 95.5 135.109375 C86.678566 160.06797172 68.12887463 179.84308617 44.5859375 191.55859375 C30.57448145 198.17054043 16.3614155 200.69820817 0.9375 200.625 C-0.30354492 200.61936035 -1.54458984 200.6137207 -2.82324219 200.60791016 C-11.37495737 200.49429226 -19.08050145 200.00863724 -27.25 197.3125 C-27.88260742 197.10850586 -28.51521484 196.90451172 -29.16699219 196.69433594 C-42.24663026 192.40111503 -53.68735713 186.21129293 -64.25 177.3125 C-65.05050781 176.65765625 -65.85101563 176.0028125 -66.67578125 175.328125 C-84.58467965 160.06517582 -95.97713353 137.56474693 -99.25 114.3125 C-100.32334607 99.03449676 -100.13464225 83.90536872 -95.25 69.3125 C-94.8375 68.05953125 -94.425 66.8065625 -94 65.515625 C-85.17748466 40.55396883 -66.62945329 20.79080282 -43.08984375 9.06640625 C-29.18737243 2.5042124 -15.29624259 -0.0398755 0 0 Z " fill="#3771FF" transform="translate(99.25,-0.3125)"/>
<path d="M0 0 C2.64164734 1.11721802 2.64164734 1.11721802 4.64164734 4.11721802 C4.35029367 7.95430454 3.31505966 9.94605553 0.6385498 12.6484375 C-0.00204376 13.30464584 -0.64263733 13.96085419 -1.30264282 14.63694763 C-2.3631208 15.69234993 -2.3631208 15.69234993 -3.44502258 16.76907349 C-4.55732239 17.89911552 -4.55732239 17.89911552 -5.6920929 19.05198669 C-8.14723746 21.5400403 -10.61709437 24.01283204 -13.08882141 26.48440552 C-14.79974951 28.20564424 -16.51030055 29.92725784 -18.2204895 31.64923096 C-21.80741884 35.25560175 -25.40226758 38.85385865 -29.00215149 42.44729614 C-33.62019195 47.05933174 -38.21258371 51.6960135 -42.79871655 56.33975029 C-46.32367371 59.90161962 -49.86446705 63.44740889 -53.4100132 66.98877335 C-55.11047997 68.69211924 -56.80532515 70.40109607 -58.49445152 72.11568832 C-60.85493638 74.50800199 -63.23645679 76.87718203 -65.62471008 79.24172974 C-66.32157425 79.95747665 -67.01843842 80.67322357 -67.73641968 81.41065979 C-72.52665088 86.08818878 -72.52665088 86.08818878 -76.71670532 86.23443604 C-79.35835266 85.11721802 -79.35835266 85.11721802 -81.35835266 82.11721802 C-81.06699899 78.28013149 -80.03176498 76.28838051 -77.35525513 73.58599854 C-76.71466156 72.92979019 -76.07406799 72.27358185 -75.4140625 71.5974884 C-74.70707718 70.89388687 -74.00009186 70.19028534 -73.27168274 69.46536255 C-72.53014954 68.71200119 -71.78861633 67.95863983 -71.02461243 67.18244934 C-68.56946787 64.69439574 -66.09961096 62.22160399 -63.62788391 59.75003052 C-61.91695582 58.02879179 -60.20640478 56.3071782 -58.49621582 54.58520508 C-54.90928648 50.97883429 -51.31443774 47.38057739 -47.71455383 43.78713989 C-43.09651338 39.17510429 -38.50412161 34.53842253 -33.91798878 29.89468575 C-30.39303161 26.33281642 -26.85223827 22.78702714 -23.30669212 19.24566269 C-21.60622536 17.54231679 -19.91138017 15.83333996 -18.2222538 14.11874771 C-15.86176894 11.72643404 -13.48024853 9.35725401 -11.09199524 6.9927063 C-10.39513107 6.27695938 -9.69826691 5.56121246 -8.98028564 4.82377625 C-4.19005444 0.14624726 -4.19005444 0.14624726 0 0 Z " fill="#FDFEFF" transform="translate(138.3583526611328,56.882781982421875)"/>
<path d="M0 0 C1.9375 1.125 1.9375 1.125 3 3 C2.84421659 8.90966744 0.19811716 11.5372369 -3.79296875 15.45703125 C-4.66844109 16.33967903 -4.66844109 16.33967903 -5.56159973 17.24015808 C-6.79542433 18.47737583 -8.03554872 19.70833904 -9.28149414 20.93334961 C-11.18145819 22.80654332 -13.05327867 24.70490563 -14.92382812 26.60742188 C-16.12860849 27.80889805 -17.33493905 29.00882218 -18.54296875 30.20703125 C-19.09945602 30.77363968 -19.6559433 31.34024811 -20.22929382 31.92402649 C-23.64955908 35.24388535 -26.02114174 36.86875344 -31 37 C-32.875 35.9375 -32.875 35.9375 -34 34 C-34.47968195 31.05429498 -34.61963171 28.95334327 -32.94989014 26.38433838 C-31.39791953 24.60276626 -29.77388109 22.94247236 -28.0859375 21.2890625 C-27.17504868 20.36956314 -27.17504868 20.36956314 -26.24575806 19.43148804 C-24.96010756 18.14176154 -23.6668763 16.85955352 -22.36669922 15.58447266 C-20.38150885 13.63140354 -18.43034599 11.64841109 -16.48046875 9.66015625 C-15.22587758 8.40953004 -13.96942638 7.16076642 -12.7109375 5.9140625 C-12.12943939 5.32041901 -11.54794128 4.72677551 -10.94882202 4.11514282 C-7.357733 0.6453085 -5.23431593 -0.85236195 0 0 Z " fill="#F7F9FF" transform="translate(94,60)"/>
<path d="M0 0 C2.71834972 0.57159715 3.66167518 1.13268947 5.1862793 3.4597168 C5.64599609 5.64599609 5.64599609 5.64599609 5.1862793 8.4597168 C3.40417983 11.00526837 1.22890329 13.11732049 -0.98168945 15.29174805 C-1.61351639 15.92835861 -2.24534332 16.56496918 -2.89631653 17.22087097 C-4.23446664 18.56242099 -5.57894163 19.89768755 -6.92919922 21.22705078 C-8.99383058 23.26492245 -11.0304592 25.32806042 -13.06567383 27.39526367 C-14.36941222 28.69569799 -15.67470081 29.9945804 -16.98168945 31.29174805 C-17.89448921 32.21972954 -17.89448921 32.21972954 -18.82572937 33.16645813 C-23.12283126 37.34683655 -23.12283126 37.34683655 -26.62744141 37.91943359 C-29.34579112 37.34783644 -30.28911659 36.78674413 -31.8137207 34.4597168 C-32.2734375 32.2734375 -32.2734375 32.2734375 -31.8137207 29.4597168 C-30.03162124 26.91416522 -27.8563447 24.8021131 -25.64575195 22.62768555 C-25.01392502 21.99107498 -24.38209808 21.35446442 -23.73112488 20.69856262 C-22.39297477 19.35701261 -21.04849978 18.02174605 -19.69824219 16.69238281 C-17.63361083 14.65451114 -15.59698221 12.59137318 -13.56176758 10.52416992 C-12.25802919 9.22373561 -10.95274059 7.92485319 -9.64575195 6.62768555 C-9.03721878 6.00903122 -8.42868561 5.39037689 -7.80171204 4.75297546 C-3.50461014 0.57259704 -3.50461014 0.57259704 0 0 Z " fill="#FCFDFF" transform="translate(134.813720703125,102.540283203125)"/>
</svg>
