<svg xmlns="http://www.w3.org/2000/svg" width="256" height="256" fill="none" xmlns:v="https://vecta.io/nano"><g clip-path="url(#A)"><path d="M128 256c70.692 0 128-57.308 128-128S198.692 0 128 0 0 57.308 0 128s57.308 128 128 128z" fill="#fff"/><g fill="#000"><path d="M128 103.5l21.076-12.313L164 100.5l-36 21L33.5 67 128 16l94.5 51-15.5 9-79-42.5-62.499 34.001 62.499 36zm20.419 34.609L148 163l-15.5 9v-42.5l95.5-55V182l-95.5 59v-18.5l80-49V101l-64.081 37.109zm-40.565.391L86.5 126v-18l37 21v112L28 182.5V74l15.5 9v90.5l64.354 39.5v-74.5z"/></g></g><defs><clipPath id="A"><path fill="#fff" d="M0 0h256v256H0z"/></clipPath></defs></svg>