<?xml version="1.0" encoding="UTF-8"?>
<svg version="1.1" xmlns="http://www.w3.org/2000/svg" width="200" height="200">
<path d="M0 0 C1.25296875 0.4125 2.5059375 0.825 3.796875 1.25 C28.74462541 10.06760046 48.21993996 28.50355897 60.08447266 52.01074219 C70.70512729 75.08730057 73.09510894 102.81586203 65 127 C64.5875 128.25296875 64.175 129.5059375 63.75 130.796875 C54.93239954 155.74462541 36.49644103 175.21993996 12.98925781 187.08447266 C-10.08730057 197.70512729 -37.81586203 200.09510894 -62 192 C-63.87945312 191.38125 -63.87945312 191.38125 -65.796875 190.75 C-90.74462541 181.93239954 -110.21993996 163.49644103 -122.08447266 139.98925781 C-132.70512729 116.91269943 -135.09510894 89.18413797 -127 65 C-126.5875 63.74703125 -126.175 62.4940625 -125.75 61.203125 C-116.93239954 36.25537459 -98.49644103 16.78006004 -74.98925781 4.91552734 C-51.91269943 -5.70512729 -24.18413797 -8.09510894 0 0 Z " fill="#902C62" transform="translate(131,4)"/>
<path d="M0 0 C2.99755859 1.42358398 2.99755859 1.42358398 6.1484375 3.24609375 C6.71877716 3.57292648 7.28911682 3.89975922 7.8767395 4.23649597 C9.71527004 5.29385319 11.54541948 6.36474184 13.375 7.4375 C14.63718421 8.1707297 15.89955484 8.9036386 17.16210938 9.63623047 C20.78333971 11.74303247 24.39190944 13.87077984 28 16 C28.92586914 16.54060059 29.85173828 17.08120117 30.80566406 17.63818359 C33.04733593 18.95095877 35.27647248 20.28178699 37.5 21.625 C38.12052246 21.98907959 38.74104492 22.35315918 39.38037109 22.72827148 C43.43325628 25.23750291 45.83108196 27.75467701 48 32 C48.54780148 34.86010033 48.85428005 37.14465775 48.875 40 C48.88442627 41.06347656 48.88442627 41.06347656 48.89404297 42.1484375 C48.72594354 45.78411557 48.30470507 47.66679734 45.828125 50.375 C42.6657151 52.2761019 39.75706195 54 36 54 C35.91363281 52.90300781 35.82726562 51.80601563 35.73828125 50.67578125 C35.59751928 49.22124094 35.45552705 47.76681933 35.3125 46.3125 C35.23225586 45.2306543 35.23225586 45.2306543 35.15039062 44.12695312 C34.73780618 40.1984317 34.28845942 38.35957268 31.75 35.1953125 C29.12918226 33.10312561 26.56366715 31.28501781 23.6875 29.5625 C22.57375 28.89347656 21.46 28.22445312 20.3125 27.53515625 C18.87602696 26.68835965 17.43837163 25.84356762 16 25 C15.02675781 24.42878418 14.05351563 23.85756836 13.05078125 23.26904297 C6.04377508 19.16225271 -0.97444929 15.07497403 -8 11 C-8.07613738 17.45947714 -8.12863649 23.9188383 -8.16479492 30.37866211 C-8.17987052 32.57564621 -8.20033426 34.77260026 -8.22631836 36.96948242 C-8.26275502 40.12947 -8.27973884 43.28905924 -8.29296875 46.44921875 C-8.30845261 47.42960617 -8.32393646 48.40999359 -8.33988953 49.42008972 C-8.36119445 56.21978714 -8.36119445 56.21978714 -5 62 C-3.22933925 63.58231825 -3.22933925 63.58231825 -1.14453125 64.828125 C-0.34869629 65.33150391 0.44713867 65.83488281 1.26708984 66.35351562 C6.00331407 69.20692783 10.76835495 72.00534647 15.56762695 74.75146484 C17.3289065 75.75938892 19.08748789 76.77189791 20.84570312 77.78515625 C27.34028284 81.54622959 27.34028284 81.54622959 34 85 C34.24441588 82.79723963 34.41826648 80.58658067 34.5625 78.375 C34.66691406 77.14523438 34.77132812 75.91546875 34.87890625 74.6484375 C33.89336768 70.5573574 33.46988373 70.18797724 30.15625 67.9375 C28.4521074 66.9331261 26.73212973 65.95529866 25 65 C24.10595459 64.47486816 23.21190918 63.94973633 22.29077148 63.40869141 C19.52161421 61.78570445 16.73358312 60.20108026 13.9375 58.625 C12.97650391 58.07972656 12.01550781 57.53445312 11.02539062 56.97265625 C8.68527607 55.6454271 6.34348085 54.32127316 4 53 C7.55666669 49.39929926 10.36220533 47.0790114 15 45 C20.63063146 46.21608313 25.45680275 49.36558558 30.375 52.25 C31.18710938 52.71535156 31.99921875 53.18070313 32.8359375 53.66015625 C35.25158113 55.06541048 37.6242343 56.5285916 40 58 C40.77359863 58.42740479 41.54719727 58.85480957 42.34423828 59.29516602 C45.62832619 61.32141673 47.61116876 62.75162158 48.78369141 66.51611328 C49.15316886 69.53756035 49.21119526 72.39514431 49.125 75.4375 C49.11033691 76.47487305 49.09567383 77.51224609 49.08056641 78.58105469 C48.84250534 83.165012 48.59799845 86.13609766 45.953125 89.95703125 C43.35717641 91.7623955 40.96132808 92.91343752 38 94 C36.948125 94.66 35.89625 95.32 34.8125 96 C31.19334396 97.28681104 28.60573377 97.09175977 25 96 C21.06751484 94.08567453 17.35919468 91.83509001 13.625 89.5625 C11.48707371 88.28369609 9.34905224 87.00505129 7.2109375 85.7265625 C6.16131836 85.09395508 5.11169922 84.46134766 4.03027344 83.80957031 C1.30104 82.17977026 -1.44528938 80.59038612 -4.2109375 79.0234375 C-4.98518066 78.58185303 -5.75942383 78.14026855 -6.55712891 77.68530273 C-7.97485484 76.87857848 -9.39619378 76.07815656 -10.82177734 75.28540039 C-16.13827666 72.22267874 -19.62135784 68.6596731 -22 63 C-22.26742554 60.53381348 -22.26742554 60.53381348 -22.29052734 57.74414062 C-22.30328705 56.69625366 -22.31604675 55.6483667 -22.32919312 54.56872559 C-22.33141876 53.44260864 -22.33364441 52.3164917 -22.3359375 51.15625 C-22.3425943 49.9950061 -22.3492511 48.83376221 -22.35610962 47.6373291 C-22.36623171 45.18287744 -22.37092678 42.72839829 -22.37060547 40.27392578 C-22.37498348 36.51418961 -22.41132325 32.7556226 -22.44921875 28.99609375 C-22.45508591 26.61198319 -22.45905598 24.22786704 -22.4609375 21.84375 C-22.47530853 20.71763306 -22.48967957 19.59151611 -22.50448608 18.43127441 C-22.49833282 17.38338745 -22.49217957 16.33550049 -22.48583984 15.25585938 C-22.48868988 14.33526733 -22.49153992 13.41467529 -22.49447632 12.46618652 C-21.63866987 8.19787628 -18.62280472 6.43457544 -15.1953125 4.04296875 C-14.18210937 3.43066406 -13.16890625 2.81835938 -12.125 2.1875 C-11.11695313 1.56230469 -10.10890625 0.93710937 -9.0703125 0.29296875 C-5.35080933 -1.27338691 -3.88035739 -0.95258085 0 0 Z " fill="#FCFAFB" transform="translate(67,63)"/>
<path d="M0 0 C16.4855882 8.72160894 16.4855882 8.72160894 23.8125 13.0625 C24.87223022 13.68910522 24.87223022 13.68910522 25.95336914 14.32836914 C40.79131339 23.18697009 40.79131339 23.18697009 44 28 C44.22705078 29.90112305 44.22705078 29.90112305 44.1953125 32.01171875 C44.18886719 32.76904297 44.18242188 33.52636719 44.17578125 34.30664062 C44.15902344 35.09232422 44.14226562 35.87800781 44.125 36.6875 C44.11597656 37.48478516 44.10695312 38.28207031 44.09765625 39.10351562 C44.07411585 41.069139 44.03824547 43.03460775 44 45 C38.27839715 43.32871213 33.85800154 40.50561748 28.90234375 37.265625 C26.09687037 35.69004832 26.09687037 35.69004832 23.3671875 36.6640625 C22.58601563 37.10492188 21.80484375 37.54578125 21 38 C20.33355469 38.35320312 19.66710937 38.70640625 18.98046875 39.0703125 C18.09294922 39.59238281 18.09294922 39.59238281 17.1875 40.125 C15.6096875 41.053125 15.6096875 41.053125 14 42 C20.15513678 46.22034706 26.44496774 50.07344447 32.9375 53.75 C34.6149552 54.70017584 36.29081831 55.65316954 37.96484375 56.609375 C38.6930835 57.02155273 39.42132324 57.43373047 40.17163086 57.85839844 C42 59 42 59 44 61 C44.14497985 63.58064129 44.18677545 66.04943884 44.125 68.625 C44.11597656 69.33140625 44.10695312 70.0378125 44.09765625 70.765625 C44.07407603 72.51056098 44.03820461 74.25532295 44 76 C34.61415086 71.68486006 25.74172019 66.60396065 16.875 61.3125 C15.7722876 60.65886475 14.6695752 60.00522949 13.53344727 59.33178711 C12.48858154 58.70280518 11.44371582 58.07382324 10.3671875 57.42578125 C9.42987793 56.86286377 8.49256836 56.29994629 7.52685547 55.7199707 C3.85456943 53.22033252 1.42091266 51.26273799 0 47 C-0.08687799 45.45029552 -0.1176866 43.89710293 -0.11352539 42.3449707 C-0.11344986 41.40422195 -0.11337433 40.46347321 -0.11329651 39.49421692 C-0.10813522 38.48163315 -0.10297394 37.46904938 -0.09765625 36.42578125 C-0.0962413 35.38681198 -0.09482635 34.34784271 -0.09336853 33.27738953 C-0.08776656 29.95573052 -0.07521372 26.63413867 -0.0625 23.3125 C-0.05748525 21.06184993 -0.0529223 18.81119881 -0.04882812 16.56054688 C-0.03779649 11.04034163 -0.02105643 5.52017561 0 0 Z " fill="#7B2D67" transform="translate(58,73)"/>
<path d="M0 0 C2.75271294 1.16371611 5.29670874 2.61867904 7.875 4.125 C8.6273291 4.55514404 9.3796582 4.98528809 10.15478516 5.4284668 C12.77827098 6.93821855 15.38892644 8.46888744 18 10 C19.05960938 10.61407715 20.11921875 11.2281543 21.2109375 11.86083984 C24.60673776 13.83175682 27.99227346 15.81923853 31.375 17.8125 C32.46280762 18.44623535 33.55061523 19.0799707 34.67138672 19.73291016 C35.69506348 20.34312012 36.71874023 20.95333008 37.7734375 21.58203125 C38.68528809 22.12061768 39.59713867 22.6592041 40.53662109 23.21411133 C43.83702486 25.60682228 46.17582105 28.35164211 48 32 C48.78921743 37.23969168 49.59807672 42.84929651 48 48 C44.82115886 51.14592415 39.75520817 55 35 55 C34.97421875 53.83082031 34.9484375 52.66164062 34.921875 51.45703125 C34.86557633 49.90881774 34.80822938 48.3606421 34.75 46.8125 C34.73582031 46.04357422 34.72164062 45.27464844 34.70703125 44.48242188 C34.67480469 43.73154297 34.64257812 42.98066406 34.609375 42.20703125 C34.58842773 41.5210083 34.56748047 40.83498535 34.54589844 40.12817383 C33.50015422 36.05136153 30.86286167 33.60360833 27.49243164 31.24584961 C26.55778076 30.71999268 25.62312988 30.19413574 24.66015625 29.65234375 C23.60618652 29.05236572 22.5522168 28.4523877 21.46630859 27.83422852 C20.34305176 27.20830811 19.21979492 26.5823877 18.0625 25.9375 C16.90129665 25.28085376 15.74065717 24.62320946 14.58056641 23.96459961 C12.21719647 22.62460835 9.85088443 21.29005991 7.48193359 19.95996094 C3.19901227 17.54912849 -1.06632572 15.10840385 -5.33032227 12.66430664 C-9.21673184 10.43675941 -13.10817884 8.21807468 -17 6 C-7.4921455 -1.62839489 -7.4921455 -1.62839489 0 0 Z " fill="#FCF9FA" transform="translate(107,41)"/>
<path d="M0 0 C2.43607957 1.14823399 4.64196642 2.31054316 6.9375 3.6875 C7.59991699 4.07325195 8.26233398 4.45900391 8.94482422 4.85644531 C10.44324654 5.73032818 11.93884648 6.60906208 13.43212891 7.49169922 C16.33174528 9.19485856 19.24881058 10.86572208 22.16796875 12.53515625 C24.32064836 13.77285354 26.47299302 15.01113356 28.625 16.25 C29.65616943 16.83998779 30.68733887 17.42997559 31.74975586 18.0378418 C46.28349222 26.47344027 46.28349222 26.47344027 48 32 C48.88218355 37.52400838 49.12188888 42.50108651 48 48 C44.81606891 51.47574802 41.39583499 53.36311249 37 55 C36.34 55 35.68 55 35 55 C34.97421875 53.83082031 34.9484375 52.66164062 34.921875 51.45703125 C34.86557633 49.90881774 34.80822938 48.3606421 34.75 46.8125 C34.73582031 46.04357422 34.72164062 45.27464844 34.70703125 44.48242188 C34.67480469 43.73154297 34.64257812 42.98066406 34.609375 42.20703125 C34.58842773 41.5210083 34.56748047 40.83498535 34.54589844 40.12817383 C33.49569747 36.03398696 30.84842942 33.59139634 27.46069336 31.22998047 C26.51331299 30.69775879 25.56593262 30.16553711 24.58984375 29.6171875 C23.52556152 29.01229492 22.4612793 28.40740234 21.36474609 27.78417969 C20.23375488 27.15415039 19.10276367 26.52412109 17.9375 25.875 C16.77097481 25.21374976 15.60512644 24.55130419 14.43994141 23.88769531 C9.94502892 21.33170977 5.43564115 18.80195529 0.92138672 16.28027344 C-0.92640993 15.24717137 -2.77203818 14.2101768 -4.61499023 13.16845703 C-6.25839318 12.23973695 -7.90749758 11.32101735 -9.56274414 10.41357422 C-11.42537834 9.35992529 -13.22205664 8.19100784 -15 7 C-15 6.01 -15 5.02 -15 4 C-13.49609375 2.578125 -13.49609375 2.578125 -11.4375 1.25 C-10.77621094 0.80140625 -10.11492187 0.3528125 -9.43359375 -0.109375 C-5.9178156 -1.39604822 -3.62070331 -0.86262483 0 0 Z " fill="#FCF9FA" transform="translate(87,52)"/>
<path d="M0 0 C0.11632513 3.41637953 0.18728897 6.83224897 0.25 10.25 C0.30027344 11.70212891 0.30027344 11.70212891 0.3515625 13.18359375 C0.45058184 20.36249557 0.45058184 20.36249557 -1.7890625 23.53125 C-2.51867187 24.0159375 -3.24828125 24.500625 -4 25 C-4.61101562 25.41765625 -5.22203125 25.8353125 -5.8515625 26.265625 C-10.77777778 29 -10.77777778 29 -13 29 C-13 21.41 -13 13.82 -13 6 C-2.25 0 -2.25 0 0 0 Z " fill="#FAF5F8" transform="translate(135,116)"/>
<path d="M0 0 C0.14575327 3.39537852 0.23421542 6.78994902 0.3125 10.1875 C0.3753418 11.62706055 0.3753418 11.62706055 0.43945312 13.09570312 C0.56334173 20.25646478 0.56334173 20.25646478 -2.3203125 24.0625 C-9.14919355 29 -9.14919355 29 -13 29 C-14.80295932 9.28848531 -14.80295932 9.28848531 -10.62109375 3.98046875 C-7.22363251 1.87643473 -4.07762029 0 0 0 Z " fill="#FCF7F9" transform="translate(155,105)"/>
</svg>
