<?xml version="1.0" encoding="UTF-8"?>
<svg version="1.1" xmlns="http://www.w3.org/2000/svg" width="128" height="128">
<path d="M0 0 C5.82945515 4.3282752 5.82945515 4.3282752 7.98828125 6.21875 C7.98828125 6.87875 7.98828125 7.53875 7.98828125 8.21875 C8.55417969 8.41082031 9.12007813 8.60289063 9.703125 8.80078125 C12.95543239 10.81887968 14.58387789 13.71873882 16.55078125 16.90625 C17.12989258 17.80633789 17.12989258 17.80633789 17.72070312 18.72460938 C27.38227539 34.04815926 29.40975254 51.98951417 26.00805664 69.61303711 C23.48743321 80.53125276 17.32090389 89.84526779 9.98828125 98.21875 C9.32828125 98.21875 8.66828125 98.21875 7.98828125 98.21875 C7.79621094 98.78464844 7.60414062 99.35054688 7.40625 99.93359375 C5.38815157 103.18590114 2.48829243 104.81434664 -0.69921875 106.78125 C-1.29927734 107.16732422 -1.89933594 107.55339844 -2.51757812 107.95117188 C-17.84112801 117.61274414 -35.78248292 119.64022129 -53.40600586 116.23852539 C-64.32422151 113.71790196 -73.63823654 107.55137264 -82.01171875 100.21875 C-82.01171875 99.55875 -82.01171875 98.89875 -82.01171875 98.21875 C-82.57761719 98.02667969 -83.14351562 97.83460937 -83.7265625 97.63671875 C-86.97886989 95.61862032 -88.60731539 92.71876118 -90.57421875 89.53125 C-90.96029297 88.93119141 -91.34636719 88.33113281 -91.74414062 87.71289062 C-101.40571289 72.38934074 -103.43319004 54.44798583 -100.03149414 36.82446289 C-97.51087071 25.90624724 -91.34434139 16.59223221 -84.01171875 8.21875 C-83.35171875 8.21875 -82.69171875 8.21875 -82.01171875 8.21875 C-81.72361328 7.36990234 -81.72361328 7.36990234 -81.4296875 6.50390625 C-79.41158907 3.25159886 -76.51172993 1.62315336 -73.32421875 -0.34375 C-72.72416016 -0.72982422 -72.12410156 -1.11589844 -71.50585938 -1.51367188 C-49.67783397 -15.2763474 -21.01977549 -14.73292282 0 0 Z " fill="#C70BFB" transform="translate(101.01171875,10.78125)"/>
<path d="M0 0 C3.01301524 1.65420444 5.03758608 3.08410674 7.1875 5.75 C7.1875 6.41 7.1875 7.07 7.1875 7.75 C7.8475 7.75 8.5075 7.75 9.1875 7.75 C11.25116015 13.81200168 12.65030378 19.92127011 10.2890625 26.1015625 C9.33117301 28.02413502 8.2677076 29.89339318 7.1875 31.75 C6.5275 31.75 5.8675 31.75 5.1875 31.75 C5.1875 32.41 5.1875 33.07 5.1875 33.75 C4.5275 33.75 3.8675 33.75 3.1875 33.75 C3.1875 34.41 3.1875 35.07 3.1875 35.75 C2.5275 35.75 1.8675 35.75 1.1875 35.75 C0.919375 36.389375 0.65125 37.02875 0.375 37.6875 C-0.8125 39.75 -0.8125 39.75 -3.8125 40.75 C-3.8125 41.41 -3.8125 42.07 -3.8125 42.75 C-4.4725 42.75 -5.1325 42.75 -5.8125 42.75 C-6.080625 43.389375 -6.34875 44.02875 -6.625 44.6875 C-7.8125 46.75 -7.8125 46.75 -10.8125 47.75 C-10.8125 48.41 -10.8125 49.07 -10.8125 49.75 C-11.4725 49.75 -12.1325 49.75 -12.8125 49.75 C-12.8125 50.41 -12.8125 51.07 -12.8125 51.75 C-13.4725 51.75 -14.1325 51.75 -14.8125 51.75 C-15.1528125 52.678125 -15.1528125 52.678125 -15.5 53.625 C-17.19179835 56.36410209 -18.80494161 56.80024472 -21.8125 57.75 C-22.8125 56.75 -22.8125 56.75 -22.875 54.1875 C-22.854375 53.383125 -22.83375 52.57875 -22.8125 51.75 C-23.4725 51.75 -24.1325 51.75 -24.8125 51.75 C-24.8125 51.09 -24.8125 50.43 -24.8125 49.75 C-26.7925 50.245 -26.7925 50.245 -28.8125 50.75 C-31.43636487 47.68882432 -31.8125 47.01826873 -31.8125 42.75 C-32.4725 42.75 -33.1325 42.75 -33.8125 42.75 C-33.8125 42.09 -33.8125 41.43 -33.8125 40.75 C-35.7925 41.245 -35.7925 41.245 -37.8125 41.75 C-40.43636487 38.68882432 -40.8125 38.01826873 -40.8125 33.75 C-42.4625 33.75 -44.1125 33.75 -45.8125 33.75 C-46.4725 32.43 -47.1325 31.11 -47.8125 29.75 C-44.15267795 26.0408542 -40.48642152 22.33823822 -36.81396484 18.64160156 C-35.56476298 17.38232287 -34.31735944 16.12125764 -33.07177734 14.85839844 C-31.28428925 13.04673588 -29.49049773 11.24153161 -27.6953125 9.4375 C-26.85771896 8.58442261 -26.85771896 8.58442261 -26.00320435 7.71411133 C-24.64374115 6.3542535 -23.23243393 5.04658827 -21.8125 3.75 C-21.1525 3.75 -20.4925 3.75 -19.8125 3.75 C-19.8125 3.09 -19.8125 2.43 -19.8125 1.75 C-13.2461373 -1.60303627 -7.05723997 -2.75035905 0 0 Z " fill="#FDFCFE" transform="translate(66.8125,36.25)"/>
<path d="M0 0 C4.85382305 2.66286126 8.53491331 6.49827096 11.0625 11.4375 C12.95788353 18.6399574 12.69671003 24.37141649 9 31 C6.4375 33.9375 6.4375 33.9375 4 36 C3.34 36 2.68 36 2 36 C2 36.66 2 37.32 2 38 C1.34 38 0.68 38 0 38 C0 38.66 0 39.32 0 40 C-1.375 41.625 -1.375 41.625 -3 43 C-3.66 43 -4.32 43 -5 43 C-5 43.66 -5 44.32 -5 45 C-5.66 45 -6.32 45 -7 45 C-7 45.66 -7 46.32 -7 47 C-9.375 49.625 -9.375 49.625 -12 52 C-12.66 52 -13.32 52 -14 52 C-14 52.66 -14 53.32 -14 54 C-14.66 54 -15.32 54 -16 54 C-16 54.66 -16 55.32 -16 56 C-18 57.625 -18 57.625 -20 59 C-20.99 58.34 -21.98 57.68 -23 57 C-23.12375 56.175 -23.2475 55.35 -23.375 54.5 C-23.58125 53.675 -23.7875 52.85 -24 52 C-26.42383077 50.83046584 -26.42383077 50.83046584 -29 50 C-29.66 49.01 -30.32 48.02 -31 47 C-30.18015625 46.20335937 -29.3603125 45.40671875 -28.515625 44.5859375 C-27.42681394 43.51589905 -26.33828737 42.44557107 -25.25 41.375 C-24.44175781 40.59189453 -24.44175781 40.59189453 -23.6171875 39.79296875 C-17.81817003 34.06467101 -13.018218 28.08486135 -12.6875 19.6875 C-12.78926406 14.9828694 -14.10263317 11.25750606 -16 7 C-16.391875 6.01 -16.78375 5.02 -17.1875 4 C-17.5896875 3.01 -17.5896875 3.01 -18 2 C-12.52509569 -1.32549743 -6.14390476 -0.99030044 0 0 Z " fill="#FEFDFE" transform="translate(95,36)"/>
<path d="M0 0 C0.66 0.33 1.32 0.66 2 1 C3.92703902 6.78111706 3.82194251 12.80815332 1.6875 18.5 C-1.3518257 23.0534625 -5.60146177 26.77325661 -9.5390625 30.546875 C-12.10435058 32.94237813 -12.10435058 32.94237813 -14 36 C-14.66 36 -15.32 36 -16 36 C-16 36.66 -16 37.32 -16 38 C-16.66 38 -17.32 38 -18 38 C-18 38.66 -18 39.32 -18 40 C-18.66 40 -19.32 40 -20 40 C-20 40.66 -20 41.32 -20 42 C-20.66 42 -21.32 42 -22 42 C-22.33 42.99 -22.66 43.98 -23 45 C-23.66 45 -24.32 45 -25 45 C-25 45.66 -25 46.32 -25 47 C-25.66 47 -26.32 47 -27 47 C-27 47.66 -27 48.32 -27 49 C-27.99 49 -28.98 49 -30 49 C-29.67 47.35 -29.34 45.7 -29 44 C-28.34 44 -27.68 44 -27 44 C-27 43.34 -27 42.68 -27 42 C-26.34 42 -25.68 42 -25 42 C-25 41.34 -25 40.68 -25 40 C-24.34 40 -23.68 40 -23 40 C-22.5978125 39.0409375 -22.5978125 39.0409375 -22.1875 38.0625 C-21 36 -21 36 -18 35 C-18 34.34 -18 33.68 -18 33 C-17.34 33 -16.68 33 -16 33 C-16 32.34 -16 31.68 -16 31 C-15.34 31 -14.68 31 -14 31 C-13.67 30.01 -13.34 29.02 -13 28 C-12.34 28 -11.68 28 -11 28 C-11 27.34 -11 26.68 -11 26 C-10.34 26 -9.68 26 -9 26 C-9 25.34 -9 24.68 -9 24 C-8.34 24 -7.68 24 -7 24 C-6.731875 23.360625 -6.46375 22.72125 -6.1875 22.0625 C-5 20 -5 20 -2 19 C0.60195132 12.83748371 0.19487486 6.59326599 0 0 Z " fill="#9212C0" transform="translate(106,48)"/>
<path d="M0 0 C2 1 2 1 2.60546875 2.73046875 C3.04913271 5.2826347 3.24287972 7.72189272 3.3125 10.3125 C3.36857422 11.66794922 3.36857422 11.66794922 3.42578125 13.05078125 C2.41562419 20.04774068 -2.43310127 24.85820509 -7.296875 29.58984375 C-7.89050842 30.17923233 -8.48414185 30.76862091 -9.09576416 31.37586975 C-10.97352082 33.23697722 -12.86148609 35.08731564 -14.75 36.9375 C-16.03324452 38.20567993 -17.31580366 39.47455378 -18.59765625 40.74414062 C-21.7239062 43.83750413 -24.85934959 46.92126091 -28 50 C-28.66 49.67 -29.32 49.34 -30 49 C-30 46 -30 46 -27.625 43.3125 C-25 41 -25 41 -23 41 C-23 40.34 -23 39.68 -23 39 C-22.34 39 -21.68 39 -21 39 C-21 38.34 -21 37.68 -21 37 C-18.625 34.375 -18.625 34.375 -16 32 C-15.34 32 -14.68 32 -14 32 C-14 31.34 -14 30.68 -14 30 C-11.625 27.375 -11.625 27.375 -9 25 C-8.34 25 -7.68 25 -7 25 C-7 24.34 -7 23.68 -7 23 C-6.34 23 -5.68 23 -5 23 C-5 22.34 -5 21.68 -5 21 C-4.34 21 -3.68 21 -3 21 C-0.89627565 15.81081326 0.11832922 11.95125106 0.0625 6.3125 C0.05347656 5.13300781 0.04445313 3.95351563 0.03515625 2.73828125 C0.02355469 1.83464844 0.01195313 0.93101563 0 0 Z " fill="#900EBF" transform="translate(77,47)"/>
<path d="M0 0 C0.33 0 0.66 0 1 0 C1.57374185 6.88490225 0.4753869 11.02667877 -3 17 C-3.66 17 -4.32 17 -5 17 C-5 17.66 -5 18.32 -5 19 C-5.66 19 -6.32 19 -7 19 C-7 19.66 -7 20.32 -7 21 C-7.66 21 -8.32 21 -9 21 C-9.268125 21.639375 -9.53625 22.27875 -9.8125 22.9375 C-11 25 -11 25 -14 26 C-14 26.66 -14 27.32 -14 28 C-14.66 28 -15.32 28 -16 28 C-16.268125 28.639375 -16.53625 29.27875 -16.8125 29.9375 C-18 32 -18 32 -21 33 C-21 33.66 -21 34.32 -21 35 C-21.66 35 -22.32 35 -23 35 C-23 35.66 -23 36.32 -23 37 C-23.66 37 -24.32 37 -25 37 C-25.3403125 37.928125 -25.3403125 37.928125 -25.6875 38.875 C-27.37929835 41.61410209 -28.99244161 42.05024472 -32 43 C-32 40 -32 40 -29.62915039 37.30444336 C-28.54278975 36.22533676 -27.44836389 35.15431225 -26.34765625 34.08984375 C-25.77293076 33.52173477 -25.19820526 32.95362579 -24.60606384 32.36830139 C-22.7651438 30.55082858 -20.91438678 28.74379154 -19.0625 26.9375 C-17.21592885 25.12596451 -15.37149374 23.31232646 -13.52964783 21.49598694 C-12.38203888 20.36538228 -11.23136821 19.23787555 -10.07740784 18.11375427 C-7.17297026 15.33769695 -7.17297026 15.33769695 -5 12 C-4.34 12 -3.68 12 -3 12 C-2.01 8.04 -1.02 4.08 0 0 Z " fill="#DEDADF" transform="translate(77,51)"/>
<path d="M0 0 C0.33 0 0.66 0 1 0 C1.46535671 7.60082634 0.63698727 12.97711215 -4.5625 18.9375 C-7 21 -7 21 -9 21 C-9 21.66 -9 22.32 -9 23 C-9.66 23 -10.32 23 -11 23 C-11 23.66 -11 24.32 -11 25 C-12.375 26.625 -12.375 26.625 -14 28 C-14.66 28 -15.32 28 -16 28 C-16 28.66 -16 29.32 -16 30 C-16.66 30 -17.32 30 -18 30 C-18 30.66 -18 31.32 -18 32 C-20.375 34.625 -20.375 34.625 -23 37 C-23.66 37 -24.32 37 -25 37 C-25 37.66 -25 38.32 -25 39 C-25.66 39 -26.32 39 -27 39 C-27 39.66 -27 40.32 -27 41 C-29 42.625 -29 42.625 -31 44 C-31.99 43.01 -32.98 42.02 -34 41 C-33.5472168 40.61577881 -33.09443359 40.23155762 -32.62792969 39.83569336 C-26.59880424 34.64712372 -20.9030035 29.15587266 -15.25 23.5625 C-13.85201172 22.20801758 -13.85201172 22.20801758 -12.42578125 20.82617188 C-6.20408858 14.66250073 -1.12868029 9.02944231 0 0 Z " fill="#E0DDE1" transform="translate(106,51)"/>
</svg>
