<?xml version="1.0" encoding="UTF-8"?>
<svg version="1.1" xmlns="http://www.w3.org/2000/svg" width="64" height="64">
<path d="M0 0 C1.13695313 0.05196533 1.13695313 0.05196533 2.296875 0.10498047 C7.81955037 0.44455037 7.81955037 0.44455037 10.0625 2.6875 C10.3125 5.6875 10.3125 5.6875 10.0625 8.6875 C7.65925836 11.09074164 7.12172883 10.93949953 3.84399414 10.94628906 C2.97291519 10.95259338 2.10183624 10.95889771 1.20436096 10.96539307 C0.26164841 10.9613446 -0.68106415 10.95729614 -1.65234375 10.953125 C-2.61902481 10.95503845 -3.58570587 10.9569519 -4.5816803 10.95892334 C-6.62859354 10.96028592 -8.67551541 10.95658443 -10.72241211 10.94824219 C-13.85875866 10.93755534 -16.99453087 10.94812912 -20.13085938 10.9609375 C-22.11718877 10.95961569 -24.1035178 10.95705285 -26.08984375 10.953125 C-27.03053207 10.95717346 -27.9712204 10.96122192 -28.94041443 10.96539307 C-30.25176109 10.95593658 -30.25176109 10.95593658 -31.58959961 10.94628906 C-32.74304115 10.94390228 -32.74304115 10.94390228 -33.91978455 10.94146729 C-35.9375 10.6875 -35.9375 10.6875 -38.9375 8.6875 C-39.1875 5.125 -39.1875 5.125 -38.9375 1.6875 C-37.9375 0.6875 -37.9375 0.6875 -36.09570312 0.68164062 C-35.31130859 0.73513672 -34.52691406 0.78863281 -33.71875 0.84375 C-32.86925781 0.89660156 -32.01976562 0.94945313 -31.14453125 1.00390625 C-29.33984375 1.12630208 -27.53515625 1.24869792 -25.73046875 1.37109375 C-24.88097656 1.42394531 -24.03148437 1.47679688 -23.15625 1.53125 C-22.37185547 1.58474609 -21.58746094 1.63824219 -20.77929688 1.69335938 C-18.91885787 1.9038091 -18.91885787 1.9038091 -17.9375 0.6875 C-11.89729425 -0.39110817 -6.10015424 -0.31654162 0 0 Z " fill="#775052" transform="translate(46.9375,25.3125)"/>
<path d="M0 0 C2.12721057 0.03809055 4.25324227 0.15559297 6.375 0.3125 C8.11910156 0.43044922 8.11910156 0.43044922 9.8984375 0.55078125 C13 1 13 1 16 3 C16.33 3.66 16.66 4.32 17 5 C17 4.34 17 3.68 17 3 C17.495 3.309375 17.99 3.61875 18.5 3.9375 C21.97986781 5.41644382 25.24028509 5.62402851 29 6 C28.34 7.32 27.68 8.64 27 10 C22.89589245 10.05796132 18.79188984 10.09358313 14.6875 10.125 C13.52025391 10.14175781 12.35300781 10.15851562 11.15039062 10.17578125 C9.47299805 10.18544922 9.47299805 10.18544922 7.76171875 10.1953125 C6.2142395 10.21102295 6.2142395 10.21102295 4.63549805 10.22705078 C2 10 2 10 -1 8 C-1.25 4.4375 -1.25 4.4375 -1 1 C-0.67 0.67 -0.34 0.34 0 0 Z " fill="#3B3B3B" transform="translate(9,26)"/>
<path d="M0 0 C2 2 2 2 2.25 5 C2 8 2 8 0 10 C-3.125 10.125 -3.125 10.125 -6 10 C-6.12375 8.865625 -6.2475 7.73125 -6.375 6.5625 C-6.58125 5.386875 -6.7875 4.21125 -7 3 C-7.66 2.67 -8.32 2.34 -9 2 C-9 3.65 -9 5.3 -9 7 C-9.33 7 -9.66 7 -10 7 C-10.33 5.02 -10.66 3.04 -11 1 C-7.26779887 0.12183503 -3.83453269 -0.25563551 0 0 Z " fill="#987D7E" transform="translate(55,26)"/>
<path d="M0 0 C3 1 3 1 4 3 C4 2.34 4 1.68 4 1 C4.495 1.309375 4.99 1.61875 5.5 1.9375 C8.97986781 3.41644382 12.24028509 3.62402851 16 4 C15.34 5.32 14.68 6.64 14 8 C2.47835991 8.18451025 2.47835991 8.18451025 -3 7 C-2.01 6.67 -1.02 6.34 0 6 C0 4.02 0 2.04 0 0 Z " fill="#5E2326" transform="translate(22,28)"/>
<path d="M0 0 C2.02408755 0.09002398 4.04544287 0.24641038 6.0625 0.4375 C7.71958984 0.59025391 7.71958984 0.59025391 9.41015625 0.74609375 C10.26480469 0.82988281 11.11945312 0.91367187 12 1 C12.33 2.32 12.66 3.64 13 5 C5.61538462 5.36923077 5.61538462 5.36923077 2.5 3.5 C2.005 3.005 1.51 2.51 1 2 C1 2.66 1 3.32 1 4 C1.66 4.33 2.32 4.66 3 5 C2.01 5.33 1.02 5.66 0 6 C-0.38218767 4.34385343 -0.71395102 2.67542976 -1 1 C-0.67 0.67 -0.34 0.34 0 0 Z " fill="#D28287" transform="translate(25,27)"/>
<path d="M0 0 C1.98 0 3.96 0 6 0 C5.34 0.66 4.68 1.32 4 2 C4.99 2.33 5.98 2.66 7 3 C7 5.31 7 7.62 7 10 C5.35 10 3.7 10 2 10 C0.89131683 6.67395049 0.45822468 3.46941546 0 0 Z " fill="#AE151D" transform="translate(42,26)"/>
<path d="M0 0 C1.65 0 3.3 0 5 0 C5 1.98 5 3.96 5 6 C3.35 6.33 1.7 6.66 0 7 C0 4.69 0 2.38 0 0 Z " fill="#FB1B29" transform="translate(50,28)"/>
<path d="M0 0 C0 2.31 0 4.62 0 7 C-1.32 7 -2.64 7 -4 7 C-4 5.02 -4 3.04 -4 1 C-2 0 -2 0 0 0 Z " fill="#080808" transform="translate(22,27)"/>
<path d="M0 0 C0.66 0 1.32 0 2 0 C2.33 2.31 2.66 4.62 3 7 C2.01 7 1.02 7 0 7 C0 4.69 0 2.38 0 0 Z " fill="#FE0D1C" transform="translate(39,27)"/>
</svg>
