<svg width="24" height="24" fill="none" xmlns="http://www.w3.org/2000/svg">
    <g clip-path="url(#a)">
        <path d="M12 24c6.627 0 12-5.373 12-12S18.627 0 12 0 0 5.373 0 12s5.373 12 12 12Z" fill="#08003B"/>
        <path d="m8.338 5.98 1.646-.535.86 2.09 1.16 6.37-.33.104L8.87 8.177 8.338 5.98Z" fill="#069BFD"/>
        <path d="m13.685 5.448 1.647.536-.53 2.197-2.8 5.832-.328-.11 1.152-6.366.86-2.089Z" fill="#069BFD"/>
        <path d="m18.33 8.164 1.018 1.403-1.718 1.463-5.69 3.067-.202-.282 4.67-4.468 1.922-1.183Z" fill="#069BFD"/>
        <path d="m3.185 14.819-.001-1.734 2.25-.172 6.406.87-.002.347-6.403.863-2.25-.175Z" fill="#069BFD"/>
        <path d="M20.492 13.095v1.733l-2.25.173-6.406-.87.002-.347 6.404-.863 2.25.174Z" fill="#069BFD"/>
        <path d="m4.328 9.56 1.017-1.402 1.922 1.185 4.677 4.475-.206.278-5.69-3.07-1.72-1.466Z" fill="#069BFD"/>
        <path d="m8.338 5.98 1.646-.535.86 2.09 1.16 6.37-.33.104L8.87 8.177 8.338 5.98Z" fill="#069BFD"/>
    </g>
    <defs>
        <clipPath id="a">
            <path fill="#fff" d="M0 0h24v24H0z"/>
        </clipPath>
    </defs>
</svg>
