<svg xmlns="http://www.w3.org/2000/svg" width="256" height="256" fill="none" xmlns:v="https://vecta.io/nano"><g clip-path="url(#B)"><path d="M128 256c70.692 0 128-57.308 128-128S198.692 0 128 0 0 57.308 0 128s57.308 128 128 128z" fill="url(#A)"/><g stroke="#000" stroke-width="10" stroke-miterlimit="22.4058"><g stroke-linecap="round" stroke-linejoin="round"><path d="M145 57v33h-34V57m0 142v-33h34v33"/><path d="M111.672 127.072H181V166H75V90H181"/></g><path d="M128 235c59.094 0 107-47.906 107-107S187.094 21 128 21 21 68.906 21 128s47.906 107 107 107z" stroke-linejoin="round"/></g></g><defs><linearGradient id="A" x1="36" y1="33" x2="224" y2="212.5" gradientUnits="userSpaceOnUse"><stop stop-color="#af8a3c"/><stop offset="1" stop-color="#eed796"/></linearGradient><clipPath id="B"><path fill="#fff" d="M0 0h256v256H0z"/></clipPath></defs></svg>