<?xml version="1.0" encoding="UTF-8"?>
<svg version="1.1" xmlns="http://www.w3.org/2000/svg" width="96" height="96">
<path d="M0 0 C1.31653564 0.01135986 1.31653564 0.01135986 2.65966797 0.02294922 C9.45144448 0.1952272 15.06562583 1.23369297 21.125 4.4375 C21.98222656 4.87320312 22.83945313 5.30890625 23.72265625 5.7578125 C36.08766834 12.58374678 43.23004062 22.68856753 47.52075195 36.01293945 C48.54203578 40.11086661 48.61362209 44.10669413 48.5625 48.3125 C48.55492676 49.19019043 48.54735352 50.06788086 48.53955078 50.97216797 C48.3672728 57.76394448 47.32880703 63.37812583 44.125 69.4375 C43.47144531 70.72333984 43.47144531 70.72333984 42.8046875 72.03515625 C35.97875322 84.40016834 25.87393247 91.54254062 12.54956055 95.83325195 C8.45163339 96.85453578 4.45580587 96.92612209 0.25 96.875 C-0.62769043 96.86742676 -1.50538086 96.85985352 -2.40966797 96.85205078 C-9.20144448 96.6797728 -14.81562583 95.64130703 -20.875 92.4375 C-22.16083984 91.78394531 -22.16083984 91.78394531 -23.47265625 91.1171875 C-35.83766834 84.29125322 -42.98004062 74.18643247 -47.27075195 60.86206055 C-48.29203578 56.76413339 -48.36362209 52.76830587 -48.3125 48.5625 C-48.30492676 47.68480957 -48.29735352 46.80711914 -48.28955078 45.90283203 C-48.1172728 39.11105552 -47.07880703 33.49687417 -43.875 27.4375 C-43.43929687 26.58027344 -43.00359375 25.72304688 -42.5546875 24.83984375 C-35.72875322 12.47483166 -25.62393247 5.33245938 -12.29956055 1.04174805 C-8.20163339 0.02046422 -4.20580587 -0.05112209 0 0 Z " fill="#020302" transform="translate(47.875,-0.4375)"/>
<path d="M0 0 C1.65 0 3.3 0 5 0 C5 1.65 5 3.3 5 5 C5.33 4.67 5.66 4.34 6 4 C6 2.68 6 1.36 6 0 C9.63 0 13.26 0 17 0 C17 0.66 17 1.32 17 2 C17.66 2 18.32 2 19 2 C19 2.66 19 3.32 19 4 C18.34 4 17.68 4 17 4 C17 7.63 17 11.26 17 15 C15.02 15 13.04 15 11 15 C11.99 15.33 12.98 15.66 14 16 C14 19.3 14 22.6 14 26 C15.98 26.33 17.96 26.66 20 27 C19.67 28.32 19.34 29.64 19 31 C18.34 30.67 17.68 30.34 17 30 C17 31.98 17 33.96 17 36 C15.68528432 35.71848913 14.37324233 35.42446661 13.0625 35.125 C12.33160156 34.96257812 11.60070313 34.80015625 10.84765625 34.6328125 C9 34 9 34 8 32 C7.34 32 6.68 32 6 32 C6 30.35 6 28.7 6 27 C5.01 26.67 4.02 26.34 3 26 C3 22.7 3 19.4 3 16 C3.99 16 4.98 16 6 16 C4.68 15.67 3.36 15.34 2 15 C2 20.61 2 26.22 2 32 C0.02 32 -1.96 32 -4 32 C-3.87625 33.8871875 -3.87625 33.8871875 -3.75 35.8125 C-3.73617315 39.71858469 -3.73617315 39.71858469 -5.875 42 C-8 43 -8 43 -10 43 C-10.33 43.99 -10.66 44.98 -11 46 C-14 48 -14 48 -18 48 C-18 45.03 -18 42.06 -18 39 C-16.35 39 -14.7 39 -13 39 C-13 38.34 -13 37.68 -13 37 C-19.93 37 -26.86 37 -34 37 C-34 35.68 -34 34.36 -34 33 C-31.03 32.505 -31.03 32.505 -28 32 C-29.98 32 -31.96 32 -34 32 C-34 28.7 -34 25.4 -34 22 C-32.68 22 -31.36 22 -30 22 C-31.32 21.01 -32.64 20.02 -34 19 C-33.01 19 -32.02 19 -31 19 C-31 18.01 -31 17.02 -31 16 C-26.05 16 -21.1 16 -16 16 C-15.34 14.35 -14.68 12.7 -14 11 C-13.01 10.67 -12.02 10.34 -11 10 C-10.34 10.66 -9.68 11.32 -9 12 C-8.67 10.68 -8.34 9.36 -8 8 C-9.04800781 7.85304688 -9.04800781 7.85304688 -10.1171875 7.703125 C-11.02726562 7.55359375 -11.93734375 7.4040625 -12.875 7.25 C-13.77992187 7.11078125 -14.68484375 6.9715625 -15.6171875 6.828125 C-18 6 -18 6 -19.3203125 3.921875 C-19.54460938 3.28765625 -19.76890625 2.6534375 -20 2 C-17.40483479 0.70241739 -15.45816973 0.86730898 -12.5625 0.875 C-11.59441406 0.87242188 -10.62632813 0.86984375 -9.62890625 0.8671875 C-7 1 -7 1 -4 2 C-3.3125 4.0625 -3.3125 4.0625 -3 6 C-2.01 5.34 -1.02 4.68 0 4 C0 2.68 0 1.36 0 0 Z " fill="#262D28" transform="translate(50,31)"/>
<path d="M0 0 C0.33 0 0.66 0 1 0 C1 1.65 1 3.3 1 5 C1.99 4.67 2.98 4.34 4 4 C4 4.66 4 5.32 4 6 C3.01 6 2.02 6 1 6 C1 9.3 1 12.6 1 16 C2.32 16.33 3.64 16.66 5 17 C4.505 19.475 4.505 19.475 4 22 C4.99 21.67 5.98 21.34 7 21 C7 21.99 7 22.98 7 24 C8.918125 24.309375 8.918125 24.309375 10.875 24.625 C11.95394531 24.79902344 11.95394531 24.79902344 13.0546875 24.9765625 C14.01761719 24.98816406 14.01761719 24.98816406 15 25 C15.66 24.34 16.32 23.68 17 23 C17.66 22.34 18.32 21.68 19 21 C19.6425235 18.93125966 19.6425235 18.93125966 20 17 C21.125 22.75 21.125 22.75 20 25 C21.32 25.33 22.64 25.66 24 26 C21 28 21 28 17 28 C17.495 30.475 17.495 30.475 18 33 C17.01 33.495 17.01 33.495 16 34 C16.66 34 17.32 34 18 34 C17.67 36.64 17.34 39.28 17 42 C16.01 42 15.02 42 14 42 C13.505 42.99 13.505 42.99 13 44 C10 42 10 42 9.3125 39.375 C9.1578125 38.199375 9.1578125 38.199375 9 37 C8.319375 37.763125 7.63875 38.52625 6.9375 39.3125 C1.54589801 44.24524225 -3.68995195 45.54484289 -10.875 45.4375 C-11.57463867 45.43137695 -12.27427734 45.42525391 -12.99511719 45.41894531 C-20.16852143 45.20277875 -25.20881014 43.45080085 -30.5625 38.75 C-31.036875 38.1725 -31.51125 37.595 -32 37 C-31.34 37 -30.68 37 -30 37 C-30 36.01 -30 35.02 -30 34 C-26.7 34 -23.4 34 -20 34 C-20 35.32 -20 36.64 -20 38 C-15.37247356 36.22018214 -12.31950978 34.79372547 -9 31 C-8 30 -7 29 -6 28 C-6.66 27.67 -7.32 27.34 -8 27 C-7.34 27 -6.68 27 -6 27 C-6 25.35 -6 23.7 -6 22 C-2.25 20.875 -2.25 20.875 0 22 C0 16.72 0 11.44 0 6 C-0.66 5.67 -1.32 5.34 -2 5 C-1.34 5 -0.68 5 0 5 C0 3.35 0 1.7 0 0 Z " fill="#0C0E0D" transform="translate(52,41)"/>
<path d="M0 0 C7.92 0 15.84 0 24 0 C24 1.65 24 3.3 24 5 C22.35 5.33 20.7 5.66 19 6 C19 7.32 19 8.64 19 10 C12.73 10 6.46 10 0 10 C0 8.68 0 7.36 0 6 C1.98 5.67 3.96 5.34 6 5 C4.02 5 2.04 5 0 5 C0 3.35 0 1.7 0 0 Z " fill="#28302B" transform="translate(16,58)"/>
<path d="M0 0 C4.95 0 9.9 0 15 0 C15 3.3 15 6.6 15 10 C9.06 10 3.12 10 -3 10 C-3 8.68 -3 7.36 -3 6 C-1.68 6 -0.36 6 1 6 C-0.32 5.01 -1.64 4.02 -3 3 C-2.01 3 -1.02 3 0 3 C0 2.01 0 1.02 0 0 Z " fill="#262D28" transform="translate(19,47)"/>
<path d="M0 0 C0.96808594 -0.00257812 1.93617187 -0.00515625 2.93359375 -0.0078125 C5.5625 0.125 5.5625 0.125 8.5625 1.125 C9.25 3.1875 9.25 3.1875 9.5625 5.125 C10.5525 4.795 11.5425 4.465 12.5625 4.125 C13.5625 5.125 13.5625 5.125 13.625 8.1875 C13.604375 9.156875 13.58375 10.12625 13.5625 11.125 C12.5725 11.125 11.5825 11.125 10.5625 11.125 C10.8925 12.445 11.2225 13.765 11.5625 15.125 C10.9025 15.125 10.2425 15.125 9.5625 15.125 C9.5625 16.445 9.5625 17.765 9.5625 19.125 C10.2225 19.125 10.8825 19.125 11.5625 19.125 C11.5625 19.785 11.5625 20.445 11.5625 21.125 C10.9025 21.125 10.2425 21.125 9.5625 21.125 C9.2325 22.445 8.9025 23.765 8.5625 25.125 C8.5625 21.825 8.5625 18.525 8.5625 15.125 C6.9125 15.125 5.2625 15.125 3.5625 15.125 C3.5625 14.795 3.5625 14.465 3.5625 14.125 C5.2125 14.125 6.8625 14.125 8.5625 14.125 C8.5625 13.465 8.5625 12.805 8.5625 12.125 C6.9125 12.125 5.2625 12.125 3.5625 12.125 C3.8925 10.475 4.2225 8.825 4.5625 7.125 C3.86382812 7.02703125 3.16515625 6.9290625 2.4453125 6.828125 C1.53523438 6.67859375 0.62515625 6.5290625 -0.3125 6.375 C-1.21742187 6.23578125 -2.12234375 6.0965625 -3.0546875 5.953125 C-5.4375 5.125 -5.4375 5.125 -6.7578125 3.046875 C-6.98210938 2.41265625 -7.20640625 1.7784375 -7.4375 1.125 C-4.84233479 -0.17258261 -2.89566973 -0.00769102 0 0 Z " fill="#060A07" transform="translate(37.4375,31.875)"/>
<path d="M0 0 C1.32 0 2.64 0 4 0 C4.33 1.98 4.66 3.96 5 6 C5.66 6 6.32 6 7 6 C7.99 9.3 8.98 12.6 10 16 C5.71 16 1.42 16 -3 16 C-3 12.7 -3 9.4 -3 6 C-2.34 5.67 -1.68 5.34 -1 5 C-0.34444881 2.47266765 -0.34444881 2.47266765 0 0 Z " fill="#313834" transform="translate(68,41)"/>
<path d="M0 0 C1.65 0 3.3 0 5 0 C5.19573608 1.43640171 5.38127816 2.87419504 5.5625 4.3125 C5.66691406 5.11300781 5.77132812 5.91351563 5.87890625 6.73828125 C6 9 6 9 5 12 C5 12.99 5 13.98 5 15 C4.01 15.33 3.02 15.66 2 16 C2 19.3 2 22.6 2 26 C0.35 26 -1.3 26 -3 26 C-3 24.68 -3 23.36 -3 22 C-2.34 22 -1.68 22 -1 22 C-1 21.34 -1 20.68 -1 20 C-1.66 20 -2.32 20 -3 20 C-3.125 14.25 -3.125 14.25 -2 12 C-1.01 12 -0.02 12 1 12 C0.67 8.04 0.34 4.08 0 0 Z " fill="#363B38" transform="translate(50,31)"/>
<path d="M0 0 C0.66 0 1.32 0 2 0 C2 3.3 2 6.6 2 10 C4.97 10.495 4.97 10.495 8 11 C7.67 12.32 7.34 13.64 7 15 C6.34 14.67 5.68 14.34 5 14 C5 15.98 5 17.96 5 20 C2.36 19.34 -0.28 18.68 -3 18 C-3 14.04 -3 10.08 -3 6 C-2.34 6 -1.68 6 -1 6 C-0.67 4.02 -0.34 2.04 0 0 Z " fill="#343C37" transform="translate(62,47)"/>
<path d="M0 0 C0.185625 0.9590625 0.185625 0.9590625 0.375 1.9375 C0.684375 2.9584375 0.684375 2.9584375 1 4 C1.66 4.33 2.32 4.66 3 5 C2.34 5 1.68 5 1 5 C1 8.3 1 11.6 1 15 C2.65 15 4.3 15 6 15 C6 11.7 6 8.4 6 5 C6.33 5 6.66 5 7 5 C7 8.3 7 11.6 7 15 C9.31 15 11.62 15 14 15 C14.79953138 18.28696233 15.09658936 19.71023192 14 23 C13.01 23 12.02 23 11 23 C10.67 21.35 10.34 19.7 10 18 C9.34 18 8.68 18 8 18 C7.87625 18.928125 7.87625 18.928125 7.75 19.875 C7 22 7 22 4.9375 23.25 C4.298125 23.4975 3.65875 23.745 3 24 C2.67 23.01 2.34 22.02 2 21 C2.33 20.34 2.66 19.68 3 19 C3.66 19 4.32 19 5 19 C5.33 18.01 5.66 17.02 6 16 C3.69 16 1.38 16 -1 16 C-0.67 12.37 -0.34 8.74 0 5 C-0.66 5 -1.32 5 -2 5 C-2.33 6.32 -2.66 7.64 -3 9 C-3 7.35 -3 5.7 -3 4 C-2.01 4 -1.02 4 0 4 C0 2.68 0 1.36 0 0 Z M3 0 C4 4 4 4 4 4 Z " fill="#020804" transform="translate(64,42)"/>
<path d="M0 0 C2.64 0 5.28 0 8 0 C8 1.32 8 2.64 8 4 C7.01 4.495 7.01 4.495 6 5 C6.66 5 7.32 5 8 5 C7.67 7.64 7.34 10.28 7 13 C6.01 13 5.02 13 4 13 C3.67 13.66 3.34 14.32 3 15 C0 13 0 13 -0.6875 10.0625 C-1.0615766 6.39654933 -0.97403752 3.530886 0 0 Z " fill="#2F3533" transform="translate(62,70)"/>
<path d="M0 0 C2.31 0.33 4.62 0.66 7 1 C7 1.66 7 2.32 7 3 C9.31 3.33 11.62 3.66 14 4 C14 4.66 14 5.32 14 6 C14.495 6.4125 14.99 6.825 15.5 7.25 C17.65847858 9.76822501 17.21374961 11.79375585 17 15 C15.35 15 13.7 15 12 15 C10.27735506 11.70450534 8.70554068 8.66881155 8 5 C8 5.66 8 6.32 8 7 C7.4225 6.690625 6.845 6.38125 6.25 6.0625 C4.15705816 5.07416636 2.25464725 4.4831387 0 4 C0 2.68 0 1.36 0 0 Z " fill="#2B302E" transform="translate(38,13)"/>
<path d="M0 0 C2.64 0 5.28 0 8 0 C7.41196203 3.02419525 6.77321882 6.01758453 6 9 C5.34 9 4.68 9 4 9 C4.33 10.98 4.66 12.96 5 15 C3.35 15 1.7 15 0 15 C-1.69897522 11.79082458 -2.14319141 10.50116992 -1.125 6.9375 C-0.75375 5.968125 -0.3825 4.99875 0 4 C0 2.68 0 1.36 0 0 Z " fill="#232826" transform="translate(56,31)"/>
<path d="M0 0 C3.63 0 7.26 0 11 0 C10.67 1.32 10.34 2.64 10 4 C9.34 4 8.68 4 8 4 C7.67 4.99 7.34 5.98 7 7 C4 9 4 9 0 9 C0 6.03 0 3.06 0 0 Z " fill="#2F3732" transform="translate(32,70)"/>
<path d="M0 0 C0.66 0 1.32 0 2 0 C2 0.66 2 1.32 2 2 C2.66 2 3.32 2 4 2 C4 2.66 4 3.32 4 4 C3.34 4 2.68 4 2 4 C2 7.63 2 11.26 2 15 C0.35 15 -1.3 15 -3 15 C-3.66 13.02 -4.32 11.04 -5 9 C-4.34 9 -3.68 9 -3 9 C-2.87625 8.2575 -2.7525 7.515 -2.625 6.75 C-2.04513299 4.19858515 -1.26291261 2.2732427 0 0 Z " fill="#2F3431" transform="translate(65,31)"/>
<path d="M0 0 C1.50433594 0.01353516 1.50433594 0.01353516 3.0390625 0.02734375 C3.80992188 0.03894531 4.58078125 0.05054687 5.375 0.0625 C5.375 2.7025 5.375 5.3425 5.375 8.0625 C3.57876144 7.66600587 1.78801565 7.24456548 0 6.8125 C-0.99773438 6.58046875 -1.99546875 6.3484375 -3.0234375 6.109375 C-5.625 5.0625 -5.625 5.0625 -6.9765625 2.953125 C-7.19054687 2.32921875 -7.40453125 1.7053125 -7.625 1.0625 C-4.98041621 -0.25979189 -2.94738699 -0.03427194 0 0 Z " fill="#292D2A" transform="translate(37.625,31.9375)"/>
<path d="M0 0 C3.96 0 7.92 0 12 0 C12 1.65 12 3.3 12 5 C8.04 5 4.08 5 0 5 C0 3.35 0 1.7 0 0 Z " fill="#252E2A" transform="translate(19,69)"/>
<path d="M0 0 C0.66 0.66 1.32 1.32 2 2 C3.98821313 2.39764263 5.98944339 2.73775349 8 3 C8 3.66 8 4.32 8 5 C6.35 5.33 4.7 5.66 3 6 C2.67 7.32 2.34 8.64 2 10 C0.35 10 -1.3 10 -3 10 C-3.29296875 3.9453125 -3.29296875 3.9453125 -3 2 C-2.01 1.34 -1.02 0.68 0 0 Z " fill="#2F3631" transform="translate(38,41)"/>
<path d="M0 0 C0 1.32 0 2.64 0 4 C-5.61 4 -11.22 4 -17 4 C-16.01 3.67 -15.02 3.34 -14 3 C-14 2.34 -14 1.68 -14 1 C-9.27685687 0.22887459 -4.78478822 -0.09764874 0 0 Z " fill="#262A29" transform="translate(37,13)"/>
<path d="M0 0 C1.65 0 3.3 0 5 0 C5 3.3 5 6.6 5 10 C3.35 10 1.7 10 0 10 C0 6.7 0 3.4 0 0 Z " fill="#323A35" transform="translate(53,47)"/>
<path d="M0 0 C0.33 0.99 0.66 1.98 1 3 C1.66 3 2.32 3 3 3 C3 4.98 3 6.96 3 9 C1.02 9 -0.96 9 -3 9 C-3 7.02 -3 5.04 -3 3 C-2.01 3 -1.02 3 0 3 C0 2.01 0 1.02 0 0 Z M-5.8125 8.375 C-4.884375 8.58125 -3.95625 8.7875 -3 9 C-3 9.33 -3 9.66 -3 10 C-5.97 10 -8.94 10 -12 10 C-9 8 -9 8 -5.8125 8.375 Z " fill="#1A221D" transform="translate(49,54)"/>
<path d="M0 0 C3.96 0 7.92 0 12 0 C12 1.32 12 2.64 12 4 C8.04 4 4.08 4 0 4 C0 2.68 0 1.36 0 0 Z " fill="#313833" transform="translate(16,64)"/>
<path d="M0 0 C1.98 0 3.96 0 6 0 C5.67 1.32 5.34 2.64 5 4 C4.34 3.67 3.68 3.34 3 3 C3 4.98 3 6.96 3 9 C0.36 8.34 -2.28 7.68 -5 7 C-5 6.34 -5 5.68 -5 5 C-4.01 4.67 -3.02 4.34 -2 4 C-1.34 4.33 -0.68 4.66 0 5 C0 3.35 0 1.7 0 0 Z " fill="#202622" transform="translate(64,58)"/>
<path d="M0 0 C0.66 0 1.32 0 2 0 C2.99 3.3 3.98 6.6 5 10 C2.69 10 0.38 10 -2 10 C-2 8.02 -2 6.04 -2 4 C-1.34 4 -0.68 4 0 4 C0 2.68 0 1.36 0 0 Z " fill="#2A2F2D" transform="translate(73,47)"/>
<path d="M0 0 C0.33 0 0.66 0 1 0 C1 1.65 1 3.3 1 5 C1.99 4.67 2.98 4.34 4 4 C4 4.66 4 5.32 4 6 C3.01 6 2.02 6 1 6 C1 9.3 1 12.6 1 16 C2.32 16.33 3.64 16.66 5 17 C4.34 18.32 3.68 19.64 3 21 C3 19.68 3 18.36 3 17 C2.34 17 1.68 17 1 17 C1 18.65 1 20.3 1 22 C0.67 22 0.34 22 0 22 C0 16.72 0 11.44 0 6 C-0.66 5.67 -1.32 5.34 -2 5 C-1.34 5 -0.68 5 0 5 C0 3.35 0 1.7 0 0 Z M-3 21 C-2.01 21.66 -1.02 22.32 0 23 C-1.98 23.33 -3.96 23.66 -6 24 C-6 23.34 -6 22.68 -6 22 C-5.01 21.67 -4.02 21.34 -3 21 Z " fill="#010703" transform="translate(52,41)"/>
<path d="M0 0 C0.99 0.33 1.98 0.66 3 1 C3 4.3 3 7.6 3 11 C1.35 11 -0.3 11 -2 11 C-2 9.68 -2 8.36 -2 7 C-1.34 7 -0.68 7 0 7 C0 6.34 0 5.68 0 5 C-0.66 5 -1.32 5 -2 5 C-2 3.68 -2 2.36 -2 1 C-1.34 0.67 -0.68 0.34 0 0 Z " fill="#383E3A" transform="translate(49,46)"/>
<path d="M0 0 C2.97 0 5.94 0 9 0 C9 1.65 9 3.3 9 5 C7.02 5 5.04 5 3 5 C3 4.34 3 3.68 3 3 C2.01 3 1.02 3 0 3 C0 2.01 0 1.02 0 0 Z " fill="#2C3331" transform="translate(22,75)"/>
<path d="M0 0 C0.99 0 1.98 0 3 0 C3 3.3 3 6.6 3 10 C1.35 10 -0.3 10 -2 10 C-2 8.68 -2 7.36 -2 6 C-1.34 6 -0.68 6 0 6 C0 4.02 0 2.04 0 0 Z " fill="#303632" transform="translate(31,47)"/>
<path d="M0 0 C1.9375 0.375 1.9375 0.375 4 1 C5.35439668 3.70879335 5.06501451 6.00933268 5 9 C3.35 9 1.7 9 0 9 C0 8.01 0 7.02 0 6 C0.66 6 1.32 6 2 6 C2 5.34 2 4.68 2 4 C1.34 4 0.68 4 0 4 C0 2.68 0 1.36 0 0 Z " fill="#363937" transform="translate(50,19)"/>
<path d="M0 0 C2.31 0 4.62 0 7 0 C7 1.65 7 3.3 7 5 C5.35 5.33 3.7 5.66 2 6 C2 5.34 2 4.68 2 4 C1.34 3.67 0.68 3.34 0 3 C0 2.01 0 1.02 0 0 Z " fill="#242726" transform="translate(72,33)"/>
<path d="M0 0 C0.66 0.66 1.32 1.32 2 2 C1.625 5.125 1.625 5.125 1 8 C2.32 8.33 3.64 8.66 5 9 C2 11 2 11 -0.6875 10.625 C-1.450625 10.41875 -2.21375 10.2125 -3 10 C-2.42655063 7.13275314 -2.1385485 6.1385485 0 4 C0 2.68 0 1.36 0 0 Z " fill="#2E3431" transform="translate(71,58)"/>
<path d="M0 0 C0.33 1.32 0.66 2.64 1 4 C1.66 4 2.32 4 3 4 C3 4.66 3 5.32 3 6 C2.34 6 1.68 6 1 6 C1 7.32 1 8.64 1 10 C-0.32 10 -1.64 10 -3 10 C-3 8.02 -3 6.04 -3 4 C-2.01 4 -1.02 4 0 4 C0 2.68 0 1.36 0 0 Z " fill="#1B211D" transform="translate(37,47)"/>
<path d="M0 0 C1.65 0 3.3 0 5 0 C4.67 2.64 4.34 5.28 4 8 C3.01 8 2.02 8 1 8 C0.67 8.66 0.34 9.32 0 10 C0 6.7 0 3.4 0 0 Z " fill="#383C3B" transform="translate(65,75)"/>
<path d="M0 0 C1.98 0 3.96 0 6 0 C6 1.32 6 2.64 6 4 C2.625 4.625 2.625 4.625 -1 5 C-1.66 4.34 -2.32 3.68 -3 3 C-2.01 3 -1.02 3 0 3 C0 2.01 0 1.02 0 0 Z " fill="#2E3632" transform="translate(19,47)"/>
<path d="M0 0 C1.65 0 3.3 0 5 0 C4.45276317 3.37462715 3.9451 5.08235 2 8 C0.23537317 4.91190305 0 3.76687864 0 0 Z " fill="#262B28" transform="translate(50,31)"/>
<path d="M0 0 C1.65 0 3.3 0 5 0 C5 1.65 5 3.3 5 5 C3.35 5 1.7 5 0 5 C0 3.35 0 1.7 0 0 Z " fill="#2F3732" transform="translate(29,58)"/>
<path d="M0 0 C1.98 0.495 1.98 0.495 4 1 C3.67 2.98 3.34 4.96 3 7 C2.01 7 1.02 7 0 7 C-0.93423645 3.98968256 -1.04449911 3.13349732 0 0 Z " fill="#282D2B" transform="translate(75,58)"/>
<path d="M0 0 C1.32 0 2.64 0 4 0 C4 1.32 4 2.64 4 4 C4.66 4.33 5.32 4.66 6 5 C4.02 5 2.04 5 0 5 C0 3.35 0 1.7 0 0 Z " fill="#29302B" transform="translate(16,58)"/>
<path d="M0 0 C1.98 0 3.96 0 6 0 C6 0.99 6 1.98 6 3 C2.7 3 -0.6 3 -4 3 C-2.68 2.67 -1.36 2.34 0 2 C0 1.34 0 0.68 0 0 Z " fill="#2A2F2B" transform="translate(28,43)"/>
<path d="M0 0 C0.99 0.33 1.98 0.66 3 1 C2.34 1 1.68 1 1 1 C1 2.65 1 4.3 1 6 C1.66 6 2.32 6 3 6 C3 6.66 3 7.32 3 8 C1.68 7.67 0.36 7.34 -1 7 C-1.33 5.35 -1.66 3.7 -2 2 C-1.34 2 -0.68 2 0 2 C0 1.34 0 0.68 0 0 Z " fill="#202321" transform="translate(49,17)"/>
<path d="M0 0 C1.65 0 3.3 0 5 0 C5 1.32 5 2.64 5 4 C3.35 4 1.7 4 0 4 C0 2.68 0 1.36 0 0 Z " fill="#333A36" transform="translate(20,70)"/>
<path d="M0 0 C1.65 0 3.3 0 5 0 C4.67 1.32 4.34 2.64 4 4 C3.34 3.67 2.68 3.34 2 3 C2 3.66 2 4.32 2 5 C1.34 5 0.68 5 0 5 C0 3.35 0 1.7 0 0 Z " fill="#2B322D" transform="translate(65,58)"/>
<path d="M0 0 C1.65 0 3.3 0 5 0 C5 1.32 5 2.64 5 4 C3.35 4 1.7 4 0 4 C0 2.68 0 1.36 0 0 Z " fill="#343B36" transform="translate(16,53)"/>
<path d="M0 0 C1.32 0.33 2.64 0.66 4 1 C4 2.32 4 3.64 4 5 C3.34 5 2.68 5 2 5 C2 5.66 2 6.32 2 7 C1.34 7 0.68 7 0 7 C0 4.69 0 2.38 0 0 Z " fill="#333834" transform="translate(44,36)"/>
<path d="M0 0 C0.33 0 0.66 0 1 0 C1 2.64 1 5.28 1 8 C0.01 7.67 -0.98 7.34 -2 7 C-2 5.68 -2 4.36 -2 3 C-1.34 3 -0.68 3 0 3 C0 2.01 0 1.02 0 0 Z " fill="#1A1F1E" transform="translate(64,76)"/>
</svg>
