<svg xmlns="http://www.w3.org/2000/svg" width="256" height="256" fill="none"><circle cx="128" cy="128" r="128" fill="#000001"/><path fill="#B2F516" d="M180.3 60a11.7 11.7 0 0 0-11.2 14.8 61.8 61.8 0 0 1 22.9-4.4A11.7 11.7 0 0 0 180.3 60ZM192 72.5c-8.5.1-15.8 1.7-22.2 4.3a11.7 11.7 0 0 0 22.2-4.3ZM166.2 76.1V72c-12.9 0-23.3 10.4-23.3 23.4v.7a59.8 59.8 0 0 1 23.4-20ZM142.9 99.6c2.3-3.3 4.9-6.4 7.6-9.3a58 58 0 0 1 15.7-11.8v73.3c0 12.9-10.4 23.3-23.3 23.3V99.6ZM136.3 105.7A23.4 23.4 0 0 0 116.6 95v48.3l6.3-12.6.8-1.6c4-8 8-16 12.6-23.4ZM116.6 147.9l8.2-16.1.8-1.7c3.8-7.7 7.6-15.2 11.9-22.3 1.6 3.2 2.5 6.8 2.5 10.5v78c-13 0-23.4-10.5-23.4-23.4v-25ZM113.7 148.7v-33.2c-13 0-23.4 10.5-23.4 23.4v38.7c3.5-2.5 6.7-5.5 9.6-8.7a111 111 0 0 0 13.8-20.2ZM90.3 180.2c4.1-2.8 7.8-6.1 11.2-10 4.6-5 8.5-10.9 12.2-17.2v12.3c0 13-10.5 23.4-23.4 23.4v-8.5ZM86.2 180.2c.8-2.3 1.2-4.8 1.2-7.3v-17.6c-13 0-23.4 10.4-23.4 23.3v8c8.7-.5 16-2.8 22.2-6.4ZM64 188.7a52 52 0 0 0 21-5.4 23.4 23.4 0 0 1-21 13v-7.6Z"/></svg>