<?xml version="1.0" encoding="UTF-8"?>
<svg version="1.1" xmlns="http://www.w3.org/2000/svg" width="64" height="64">
<path d="M0 0 C21.12 0 42.24 0 64 0 C64 21.12 64 42.24 64 64 C42.88 64 21.76 64 0 64 C0 42.88 0 21.76 0 0 Z " fill="#000000" transform="translate(0,0)"/>
<path d="M0 0 C3.96 0 7.92 0 12 0 C12 1.65 12 3.3 12 5 C8.04 5 4.08 5 0 5 C0 11.6 0 18.2 0 25 C3.96 25 7.92 25 12 25 C12 22.36 12 19.72 12 17 C10.68 17 9.36 17 8 17 C8 15.68 8 14.36 8 13 C10.97 13 13.94 13 17 13 C17 17.29 17 21.58 17 26 C15.35 26 13.7 26 12 26 C12 27.32 12 28.64 12 30 C8.04 30 4.08 30 0 30 C0 28.68 0 27.36 0 26 C-1.65 26 -3.3 26 -5 26 C-5 18.74 -5 11.48 -5 4 C-3.35 4 -1.7 4 0 4 C0 2.68 0 1.36 0 0 Z " fill="#5D825C" transform="translate(26,17)"/>
<path d="M0 0 C1.32 0 2.64 0 4 0 C4 6.6 4 13.2 4 20 C2.68 20 1.36 20 0 20 C0 13.4 0 6.8 0 0 Z " fill="#9DEC9D" transform="translate(22,22)"/>
<path d="M0 0 C2.64 0 5.28 0 8 0 C8 3.96 8 7.92 8 12 C6.68 12 5.36 12 4 12 C4 9.36 4 6.72 4 4 C2.68 4 1.36 4 0 4 C0 2.68 0 1.36 0 0 Z " fill="#9EF29F" transform="translate(34,30)"/>
<path d="M0 0 C3.96 0 7.92 0 12 0 C12 1.32 12 2.64 12 4 C8.04 4 4.08 4 0 4 C0 2.68 0 1.36 0 0 Z " fill="#A2F8A1" transform="translate(26,43)"/>
<path d="M0 0 C3.96 0 7.92 0 12 0 C12 1.32 12 2.64 12 4 C8.04 4 4.08 4 0 4 C0 2.68 0 1.36 0 0 Z " fill="#A2F8A2" transform="translate(26,17)"/>
<path d="M0 0 C0.99 0.33 1.98 0.66 3 1 C3 3.31 3 5.62 3 8 C1.68 8.33 0.36 8.66 -1 9 C-1 8.34 -1 7.68 -1 7 C-1.99 6.67 -2.98 6.34 -4 6 C-2.68 6 -1.36 6 0 6 C0 4.02 0 2.04 0 0 Z " fill="#0C0C0C" transform="translate(38,16)"/>
</svg>
