<?xml version="1.0" encoding="UTF-8"?>
<svg version="1.1" xmlns="http://www.w3.org/2000/svg" width="200" height="200">
<path d="M0 0 C2.82045877 2.30263418 5.56336058 4.67903285 8.27832031 7.10449219 C11.1535235 9.666713 11.1535235 9.666713 14.50878906 11.77246094 C17.18066406 13.58496094 17.18066406 13.58496094 17.86816406 15.77246094 C18.02285156 16.66964844 18.02285156 16.66964844 18.18066406 17.58496094 C19.17066406 17.91496094 20.16066406 18.24496094 21.18066406 18.58496094 C21.51066406 19.57496094 21.84066406 20.56496094 22.18066406 21.58496094 C22.78394531 22.1740625 23.38722656 22.76316406 24.00878906 23.37011719 C26.61161449 26.02443736 28.16331475 28.75588582 29.93066406 32.02246094 C30.85105469 33.69115234 30.85105469 33.69115234 31.79003906 35.39355469 C33.13514811 38.48050439 33.50200878 40.27881822 33.18066406 43.58496094 C33.84066406 43.58496094 34.50066406 43.58496094 35.18066406 43.58496094 C39.64424539 56.0781479 40.85665551 67.12735329 40.55566406 80.33496094 C40.53909422 82.04587815 40.52476266 83.75681854 40.51269531 85.46777344 C40.3702832 98.68935945 40.3702832 98.68935945 39.18066406 103.58496094 C38.52066406 103.58496094 37.86066406 103.58496094 37.18066406 103.58496094 C37.18066406 105.89496094 37.18066406 108.20496094 37.18066406 110.58496094 C36.52066406 110.58496094 35.86066406 110.58496094 35.18066406 110.58496094 C34.52066406 113.88496094 33.86066406 117.18496094 33.18066406 120.58496094 C32.52066406 120.58496094 31.86066406 120.58496094 31.18066406 120.58496094 C31.10589844 121.42542969 31.03113281 122.26589844 30.95410156 123.13183594 C30.00301116 127.37811833 28.20111083 130.25695184 25.80566406 133.83496094 C25.40605469 134.45886719 25.00644531 135.08277344 24.59472656 135.72558594 C22.64505024 138.70140769 21.175244 140.58857431 18.18066406 142.58496094 C17.87128906 143.24496094 17.56191406 143.90496094 17.24316406 144.58496094 C16.18066406 146.58496094 16.18066406 146.58496094 14.29394531 147.52246094 C12.05773456 148.64676653 10.95666201 149.72870379 9.30566406 151.58496094 C-7.5531495 168.76523493 -31.7922615 178.47350042 -55.67724609 178.87768555 C-83.14890277 179.03784131 -105.50892955 171.73865683 -126.31811523 153.40429688 C-129.3378039 150.75277047 -132.36813316 148.62599484 -135.81933594 146.58496094 C-136.52084746 145.26962683 -137.18459519 143.93378502 -137.81933594 142.58496094 C-139.08777344 141.37839844 -139.08777344 141.37839844 -140.38183594 140.14746094 C-142.93144067 137.46710724 -143.50996572 136.19428011 -143.81933594 132.58496094 C-144.80933594 132.25496094 -145.79933594 131.92496094 -146.81933594 131.58496094 C-150.62798259 125.57828936 -153.21756631 119.65575401 -153.81933594 112.58496094 C-154.47933594 111.59496094 -155.13933594 110.60496094 -155.81933594 109.58496094 C-156.19144014 108.26192377 -156.52563767 106.92758159 -156.81933594 105.58496094 C-157.14933594 104.59496094 -157.47933594 103.60496094 -157.81933594 102.58496094 C-158.14933594 102.58496094 -158.47933594 102.58496094 -158.81933594 102.58496094 C-158.87027326 96.32278946 -158.90516878 90.06067193 -158.92919922 83.79833984 C-158.93922299 81.67038984 -158.95284555 79.5424535 -158.97021484 77.41455078 C-158.99462286 74.34631976 -159.00585555 71.27827173 -159.01464844 68.20996094 C-159.02497101 67.26693115 -159.03529358 66.32390137 -159.04592896 65.35229492 C-159.04686971 59.74541582 -158.41278806 54.96630789 -156.81933594 49.58496094 C-156.15933594 49.58496094 -155.49933594 49.58496094 -154.81933594 49.58496094 C-154.69816406 48.88628906 -154.57699219 48.18761719 -154.45214844 47.46777344 C-154.28457031 46.55769531 -154.11699219 45.64761719 -153.94433594 44.70996094 C-153.78191406 43.80503906 -153.61949219 42.90011719 -153.45214844 41.96777344 C-152.81933594 39.58496094 -152.81933594 39.58496094 -150.81933594 37.58496094 C-149.71378412 35.63398714 -148.89319267 33.94732054 -148.44433594 31.74511719 C-147.67559861 29.08816878 -146.42875814 27.18569548 -144.88183594 24.89746094 C-144.3571875 24.10984375 -143.83253906 23.32222656 -143.29199219 22.51074219 C-141.81933594 20.58496094 -141.81933594 20.58496094 -139.81933594 19.58496094 C-139.48933594 18.59496094 -139.15933594 17.60496094 -138.81933594 16.58496094 C-138.25988281 16.318125 -137.70042969 16.05128906 -137.12402344 15.77636719 C-133.75454168 14.03451645 -131.50732154 11.25605376 -128.94433594 8.52246094 C-95.59880991 -25.77011212 -37.69548479 -29.31871039 0 0 Z M34.18066406 46.58496094 C35.18066406 48.58496094 35.18066406 48.58496094 35.18066406 48.58496094 Z M35.18066406 49.58496094 C36.18066406 51.58496094 36.18066406 51.58496094 36.18066406 51.58496094 Z M36.18066406 52.58496094 C37.18066406 55.58496094 37.18066406 55.58496094 37.18066406 55.58496094 Z M-156.81933594 53.58496094 C-155.81933594 56.58496094 -155.81933594 56.58496094 -155.81933594 56.58496094 Z M37.18066406 56.58496094 C38.18066406 59.58496094 38.18066406 59.58496094 38.18066406 59.58496094 Z M-157.81933594 57.58496094 C-156.81933594 61.58496094 -156.81933594 61.58496094 -156.81933594 61.58496094 Z M38.18066406 60.58496094 C38.18066406 62.23496094 38.18066406 63.88496094 38.18066406 65.58496094 C38.51066406 65.58496094 38.84066406 65.58496094 39.18066406 65.58496094 C39.18066406 63.93496094 39.18066406 62.28496094 39.18066406 60.58496094 C38.85066406 60.58496094 38.52066406 60.58496094 38.18066406 60.58496094 Z M38.18066406 93.58496094 C38.18066406 95.23496094 38.18066406 96.88496094 38.18066406 98.58496094 C38.51066406 98.58496094 38.84066406 98.58496094 39.18066406 98.58496094 C39.18066406 96.93496094 39.18066406 95.28496094 39.18066406 93.58496094 C38.85066406 93.58496094 38.52066406 93.58496094 38.18066406 93.58496094 Z " fill="#01E0AB" transform="translate(158.8193359375,19.4150390625)"/>
<path d="M0 0 C0 3.96 0 7.92 0 12 C0.99 11.67 1.98 11.34 3 11 C5.33299825 10.96045766 7.66708189 10.95598268 10 11 C9.97679687 10.30132812 9.95359375 9.60265625 9.9296875 8.8828125 C9.91164062 7.97273438 9.89359375 7.06265625 9.875 6.125 C9.85179687 5.22007813 9.82859375 4.31515625 9.8046875 3.3828125 C10 1 10 1 12 -1 C16.55555556 -0.44444444 16.55555556 -0.44444444 18 1 C18.07205511 2.68608966 18.08386068 4.37500659 18.0625 6.0625 C18.05347656 6.98160156 18.04445312 7.90070312 18.03515625 8.84765625 C18.02355469 9.55792969 18.01195312 10.26820312 18 11 C19.0725 10.9175 20.145 10.835 21.25 10.75 C29.56221547 10.76473797 37.52105939 14.19651897 44.28125 18.8515625 C45.9952893 20.05998297 45.9952893 20.05998297 48.01171875 20.9375 C50.26833973 22.14339569 51.62618543 23.45854324 53.3125 25.375 C53.84488281 25.96023437 54.37726563 26.54546875 54.92578125 27.1484375 C56 29 56 29 55.66796875 31.2265625 C55.33732422 32.10441406 55.33732422 32.10441406 55 33 C54.34 33 53.68 33 53 33 C52.67 33.99 52.34 34.98 52 36 C51.34 36 50.68 36 50 36 C48.81635295 38.85991021 48.95140649 39.88092103 50.14453125 42.8046875 C50.69496094 43.81789062 51.24539062 44.83109375 51.8125 45.875 C57.11282032 55.72025058 58.9585972 64.82818499 55.94921875 75.84765625 C54.72563676 79.28018271 53.41505895 82.64245104 52 86 C50.47984152 89.39733311 50.47984152 89.39733311 50 93 C50.99 93 51.98 93 53 93 C55.1640625 94.3046875 55.1640625 94.3046875 57 97 C57.55202574 100.71656328 57.46620916 104.37582353 57.375 108.125 C57.37371094 109.13949219 57.37242187 110.15398437 57.37109375 111.19921875 C57.28097625 118.71902375 57.28097625 118.71902375 55 121 C53.19674683 121.26742554 53.19674683 121.26742554 50.98779297 121.29052734 C49.74411453 121.3096669 49.74411453 121.3096669 48.47531128 121.32919312 C47.57338043 121.33141876 46.67144958 121.33364441 45.7421875 121.3359375 C44.8063382 121.3425943 43.87048889 121.3492511 42.90628052 121.35610962 C40.91394008 121.36625891 38.92156549 121.37092594 36.92919922 121.37060547 C33.93526485 121.37491329 30.94288544 121.41102284 27.94921875 121.44921875 C13.47589881 121.53405119 -0.21600189 120.47743285 -13 113 C-13.99 112.46375 -14.98 111.9275 -16 111.375 C-16.66 110.92125 -17.32 110.4675 -18 110 C-18 109.34 -18 108.68 -18 108 C-19.32 107.34 -20.64 106.68 -22 106 C-22 105.34 -22 104.68 -22 104 C-23.485 103.505 -23.485 103.505 -25 103 C-35.14115787 90.9294339 -39.76061204 77.1013694 -39.35546875 61.30078125 C-38.38522946 52.29141639 -35.40948041 43.87407215 -31 36 C-30.34 36 -29.68 36 -29 36 C-28.89558594 35.41863281 -28.79117188 34.83726563 -28.68359375 34.23828125 C-26.32414935 26.51278615 -17.64854353 20.84212314 -11 17 C-9.68 16.67 -8.36 16.34 -7 16 C-7 10.72 -7 5.44 -7 0 C-4 -1 -4 -1 0 0 Z " fill="#0D0835" transform="translate(84,37)"/>
<path d="M0 0 C-0.7578125 3.78125 -0.7578125 3.78125 -2.9375 5.75 C-5 7 -5 7 -7 7 C-7.66 8.32 -8.32 9.64 -9 11 C-9.66 11 -10.32 11 -11 11 C-11.495 12.485 -11.495 12.485 -12 14 C-15.16011267 18.17098444 -18.27136841 20.71863967 -23.50390625 21.5703125 C-25.94312047 21.68731339 -28.38612961 21.74503874 -30.828125 21.734375 C-34.30434002 22.0254866 -35.43268529 22.76243213 -38 25 C-38.66 25 -39.32 25 -40 25 C-42.73689905 30.87885917 -42.64113958 36.6286754 -42 43 C-40.24860999 46.90694695 -38.85472093 48.40983555 -35.375 50.8125 C-32.21251057 51.92522776 -30.83268797 51.99132027 -27.625 51.9375 C-19.67977882 52.47840008 -13.74035806 58.72281322 -7.83544922 63.55078125 C-5.49169583 65.40134259 -2.99426061 66.98580187 -0.5 68.625 C1.974854 70.54033569 2.91367611 71.36428621 3.34179688 74.51708984 C3.30119141 75.40605957 3.26058594 76.2950293 3.21875 77.2109375 C3.18716797 78.1086084 3.15558594 79.0062793 3.12304688 79.93115234 C3.08244141 80.61387207 3.04183594 81.2965918 3 82 C-2.0312747 82.10010954 -7.06194897 82.17204301 -12.09399414 82.21972656 C-13.79982625 82.23963837 -15.50559198 82.26677813 -17.21118164 82.30175781 C-31.5657432 82.58842747 -45.83082438 81.80610115 -56.8125 71.3125 C-57.8953125 70.1678125 -57.8953125 70.1678125 -59 69 C-59.66 68.67 -60.32 68.34 -61 68 C-61.33 67.01 -61.66 66.02 -62 65 C-62.99 64.34 -63.98 63.68 -65 63 C-66.15016778 60.6910811 -67.16533915 58.44718488 -68.125 56.0625 C-68.38925781 55.42892578 -68.65351562 54.79535156 -68.92578125 54.14257812 C-73.29517911 43.59613812 -74.16514703 30.94095628 -69.75 20.1875 C-67.78979212 16.22291055 -65.66628974 12.5263832 -63 9 C-62.29875 8.05125 -61.5975 7.1025 -60.875 6.125 C-60.25625 5.42375 -59.6375 4.7225 -59 4 C-58.34 4 -57.68 4 -57 4 C-57 3.34 -57 2.68 -57 2 C-52.61538462 -1 -52.61538462 -1 -50 -1 C-49.95101562 0.05960938 -49.90203125 1.11921875 -49.8515625 2.2109375 C-49.77653291 3.59898497 -49.70098515 4.98700451 -49.625 6.375 C-49.5940625 7.07367188 -49.563125 7.77234375 -49.53125 8.4921875 C-49.40500502 12.70185827 -49.40500502 12.70185827 -47 16 C-46.01 16 -45.02 16 -44 16 C-42.79729036 13.59458071 -42.79683337 11.89633409 -42.68359375 9.2109375 C-42.64169922 8.26992187 -42.59980469 7.32890625 -42.55664062 6.359375 C-42.51732422 5.37453125 -42.47800781 4.3896875 -42.4375 3.375 C-42.39431641 2.38242188 -42.35113281 1.38984375 -42.30664062 0.3671875 C-42.20038931 -2.08839838 -42.09835036 -4.54408703 -42 -7 C-26.71758791 -9.89001741 -13.19822583 -8.11805767 0 0 Z " fill="#02E0AB" transform="translate(127,66)"/>
<path d="M0 0 C3 1 3 1 4.16796875 2.72265625 C7.8859992 11.25560735 8.61477928 20.96623937 6.19921875 29.9921875 C5.28185432 32.2094467 4.47124474 34.10558788 3 36 C1.515 36.495 1.515 36.495 0 37 C-0.99 36.34 -1.98 35.68 -3 35 C-3 34.34 -3 33.68 -3 33 C-4.32 32.67 -5.64 32.34 -7 32 C-7 31.34 -7 30.68 -7 30 C-7.99 29.67 -8.98 29.34 -10 29 C-9.84917969 28.44054687 -9.69835937 27.88109375 -9.54296875 27.3046875 C-8.97866985 24.90946195 -8.60553277 22.5682083 -8.3125 20.125 C-8.20550781 19.30257812 -8.09851563 18.48015625 -7.98828125 17.6328125 C-7.86592898 14.36220622 -7.86592898 14.36220622 -10 9 C-6.7 6.03 -3.4 3.06 0 0 Z " fill="#02DEA9" transform="translate(123,84)"/>
<path d="M0 0 C0 0.66 0 1.32 0 2 C0.99 2 1.98 2 3 2 C3.08096803 3.45742463 3.13917774 4.91612807 3.1875 6.375 C3.22230469 7.18710938 3.25710937 7.99921875 3.29296875 8.8359375 C3.19628906 9.55007812 3.09960938 10.26421875 3 11 C-0.47042703 13.31361802 -1.91834173 13.51020728 -6 13 C-7.9375 11.375 -7.9375 11.375 -9 9 C-8.92777005 5.46073241 -8.67194991 3.6951206 -6.1875 1.125 C-4 0 -4 0 0 0 Z " fill="#02D6A5" transform="translate(102,96)"/>
<path d="M0 0 C8.58 0 17.16 0 26 0 C26 0.33 26 0.66 26 1 C17.42 1 8.84 1 0 1 C0 0.67 0 0.34 0 0 Z " fill="#01D8A4" transform="translate(86,199)"/>
<path d="M0 0 C0.33 0 0.66 0 1 0 C1 8.58 1 17.16 1 26 C0.67 26 0.34 26 0 26 C0 17.42 0 8.84 0 0 Z " fill="#01D8A5" transform="translate(199,86)"/>
<path d="M0 0 C0.66 0.33 1.32 0.66 2 1 C-0.31 3.31 -2.62 5.62 -5 8 C-5 5 -5 5 -2.5 2.3125 C-1.675 1.549375 -0.85 0.78625 0 0 Z " fill="#000000" transform="translate(30,25)"/>
<path d="M0 0 C1.98 0 3.96 0 6 0 C6 0.33 6 0.66 6 1 C4.02 1 2.04 1 0 1 C0 0.67 0 0.34 0 0 Z " fill="#01E0A9" transform="translate(112,198)"/>
<path d="M0 0 C1.98 0 3.96 0 6 0 C6 0.33 6 0.66 6 1 C4.02 1 2.04 1 0 1 C0 0.67 0 0.34 0 0 Z " fill="#009570" transform="translate(80,198)"/>
<path d="M0 0 C1.65 0 3.3 0 5 0 C5 0.33 5 0.66 5 1 C3.35 1 1.7 1 0 1 C0 0.67 0 0.34 0 0 Z " fill="#01E1AC" transform="translate(118,197)"/>
<path d="M0 0 C1.65 0 3.3 0 5 0 C5 0.33 5 0.66 5 1 C3.35 1 1.7 1 0 1 C0 0.67 0 0.34 0 0 Z " fill="#01E0AB" transform="translate(75,197)"/>
<path d="M0 0 C1.65 0 3.3 0 5 0 C5 0.33 5 0.66 5 1 C3.35 1 1.7 1 0 1 C0 0.67 0 0.34 0 0 Z " fill="#000000" transform="translate(117,0)"/>
<path d="M0 0 C1.65 0 3.3 0 5 0 C5 0.33 5 0.66 5 1 C3.35 1 1.7 1 0 1 C0 0.67 0 0.34 0 0 Z " fill="#000000" transform="translate(76,0)"/>
<path d="M0 0 C4 1 4 1 4 1 Z " fill="#01E1AC" transform="translate(123,196)"/>
<path d="M0 0 C4 1 4 1 4 1 Z " fill="#007055" transform="translate(68,195)"/>
<path d="M0 0 C4 1 4 1 4 1 Z " fill="#000000" transform="translate(69,2)"/>
<path d="M0 0 C4 1 4 1 4 1 Z " fill="#000000" transform="translate(122,1)"/>
<path d="M0 0 C3 1 3 1 3 1 Z " fill="#01E0A7" transform="translate(72,196)"/>
<path d="M0 0 C3 1 3 1 3 1 Z " fill="#00E2AC" transform="translate(127,195)"/>
<path d="M0 0 C3 1 3 1 3 1 Z " fill="#02E2AC" transform="translate(130,194)"/>
<path d="M0 0 C3 1 3 1 3 1 Z " fill="#01E1AA" transform="translate(65,194)"/>
<path d="M0 0 C3 1 3 1 3 1 Z " fill="#02E1AB" transform="translate(135,192)"/>
<path d="M0 0 C3 1 3 1 3 1 Z " fill="#009571" transform="translate(60,192)"/>
<path d="" fill="#000000" transform="translate(0,0)"/>
<path d="" fill="#02E2AC" transform="translate(0,0)"/>
<path d="" fill="#000000" transform="translate(0,0)"/>
<path d="" fill="#01E1AB" transform="translate(0,0)"/>
<path d="" fill="#000000" transform="translate(0,0)"/>
<path d="" fill="#000000" transform="translate(0,0)"/>
<path d="M0 0 C3 1 3 1 3 1 Z " fill="#000000" transform="translate(137,6)"/>
<path d="M0 0 C3 1 3 1 3 1 Z " fill="#000000" transform="translate(132,4)"/>
<path d="M0 0 C3 1 3 1 3 1 Z " fill="#000000" transform="translate(63,4)"/>
<path d="M0 0 C3 1 3 1 3 1 Z " fill="#000000" transform="translate(129,3)"/>
<path d="M0 0 C3 1 3 1 3 1 Z " fill="#000000" transform="translate(66,3)"/>
<path d="M0 0 C3 1 3 1 3 1 Z " fill="#000000" transform="translate(126,2)"/>
<path d="M0 0 C3 1 3 1 3 1 Z " fill="#000000" transform="translate(73,1)"/>
<path d="M0 0 C2 1 2 1 2 1 Z " fill="#01E2AC" transform="translate(133,193)"/>
<path d="M0 0 C2 1 2 1 2 1 Z " fill="#01E0AC" transform="translate(63,193)"/>
<path d="M0 0 C2 1 2 1 2 1 Z " fill="#01E2AC" transform="translate(138,191)"/>
<path d="M0 0 C2 1 2 1 2 1 Z " fill="#006F55" transform="translate(58,191)"/>
<path d="M0 0 C2 1 2 1 2 1 Z " fill="#02E2AC" transform="translate(140,190)"/>
<path d="M0 0 C2 1 2 1 2 1 Z " fill="#00E0AB" transform="translate(56,190)"/>
<path d="M0 0 C2 1 2 1 2 1 Z " fill="#02E2AC" transform="translate(142,189)"/>
<path d="M0 0 C2 1 2 1 2 1 Z " fill="#007156" transform="translate(54,189)"/>
<path d="M0 0 C2 1 2 1 2 1 Z " fill="#01E2AC" transform="translate(144,188)"/>
<path d="M0 0 C2 1 2 1 2 1 Z " fill="#006F55" transform="translate(52,188)"/>
<path d="M0 0 C2 1 2 1 2 1 Z " fill="#01E2AC" transform="translate(146,187)"/>
<path d="M0 0 C2 1 2 1 2 1 Z " fill="#000000" transform="translate(50,187)"/>
<path d="M0 0 C2 1 2 1 2 1 Z " fill="#02E2AC" transform="translate(148,186)"/>
<path d="M0 0 C2 1 2 1 2 1 Z " fill="#007156" transform="translate(47,185)"/>
<path d="M0 0 C2 1 2 1 2 1 Z " fill="#01E2AC" transform="translate(151,184)"/>
<path d="M0 0 C2 1 2 1 2 1 Z " fill="#006F53" transform="translate(45,184)"/>
<path d="M0 0 C2 1 2 1 2 1 Z " fill="#02E2AC" transform="translate(154,182)"/>
<path d="M0 0 C2 1 2 1 2 1 Z " fill="#017055" transform="translate(42,182)"/>
<path d="M0 0 C2 1 2 1 2 1 Z " fill="#01E2AC" transform="translate(157,180)"/>
<path d="M0 0 C2 1 2 1 2 1 Z " fill="#00E0A9" transform="translate(38,179)"/>
<path d="M0 0 C2 1 2 1 2 1 Z " fill="#02E2AC" transform="translate(162,176)"/>
<path d="M0 0 C2 1 2 1 2 1 Z " fill="#006F55" transform="translate(32,174)"/>
<path d="" fill="#000000" transform="translate(0,0)"/>
<path d="" fill="#02E2AC" transform="translate(0,0)"/>
<path d="" fill="#000000" transform="translate(0,0)"/>
<path d="" fill="#02E2AC" transform="translate(0,0)"/>
<path d="" fill="#000000" transform="translate(0,0)"/>
<path d="" fill="#00E0A5" transform="translate(0,0)"/>
<path d="" fill="#000000" transform="translate(0,0)"/>
<path d="" fill="#000000" transform="translate(0,0)"/>
<path d="M0 0 C2 1 2 1 2 1 Z " fill="#00E0AD" transform="translate(164,23)"/>
<path d="M0 0 C2 1 2 1 2 1 Z " fill="#000000" transform="translate(37,19)"/>
<path d="M0 0 C2 1 2 1 2 1 Z " fill="#006F57" transform="translate(158,18)"/>
<path d="M0 0 C2 1 2 1 2 1 Z " fill="#006F57" transform="translate(155,16)"/>
<path d="M0 0 C2 1 2 1 2 1 Z " fill="#000000" transform="translate(41,16)"/>
<path d="M0 0 C2 1 2 1 2 1 Z " fill="#000000" transform="translate(152,14)"/>
<path d="M0 0 C2 1 2 1 2 1 Z " fill="#000000" transform="translate(44,14)"/>
<path d="M0 0 C2 1 2 1 2 1 Z " fill="#006F57" transform="translate(149,12)"/>
<path d="M0 0 C2 1 2 1 2 1 Z " fill="#000000" transform="translate(47,12)"/>
<path d="M0 0 C2 1 2 1 2 1 Z " fill="#000000" transform="translate(147,11)"/>
<path d="M0 0 C2 1 2 1 2 1 Z " fill="#000000" transform="translate(49,11)"/>
<path d="M0 0 C2 1 2 1 2 1 Z " fill="#000000" transform="translate(51,10)"/>
<path d="M0 0 C2 1 2 1 2 1 Z " fill="#000000" transform="translate(144,9)"/>
<path d="M0 0 C2 1 2 1 2 1 Z " fill="#000000" transform="translate(53,9)"/>
<path d="M0 0 C2 1 2 1 2 1 Z " fill="#000000" transform="translate(142,8)"/>
<path d="M0 0 C2 1 2 1 2 1 Z " fill="#000000" transform="translate(55,8)"/>
<path d="M0 0 C2 1 2 1 2 1 Z " fill="#000000" transform="translate(140,7)"/>
<path d="M0 0 C2 1 2 1 2 1 Z " fill="#000000" transform="translate(57,7)"/>
<path d="M0 0 C2 1 2 1 2 1 Z " fill="#000000" transform="translate(59,6)"/>
<path d="M0 0 C2 1 2 1 2 1 Z " fill="#000000" transform="translate(135,5)"/>
<path d="M0 0 C2 1 2 1 2 1 Z " fill="#000000" transform="translate(61,5)"/>
<path d="" fill="#02E1AC" transform="translate(0,0)"/>
<path d="" fill="#02E2AC" transform="translate(0,0)"/>
<path d="" fill="#02E2AC" transform="translate(0,0)"/>
<path d="" fill="#00DFA7" transform="translate(0,0)"/>
<path d="" fill="#02E2AC" transform="translate(0,0)"/>
<path d="" fill="#00DFA7" transform="translate(0,0)"/>
<path d="" fill="#000000" transform="translate(0,0)"/>
<path d="" fill="#02E2AC" transform="translate(0,0)"/>
<path d="" fill="#02E2AC" transform="translate(0,0)"/>
<path d="" fill="#00DFAA" transform="translate(0,0)"/>
<path d="" fill="#02E2AC" transform="translate(0,0)"/>
<path d="" fill="#000000" transform="translate(0,0)"/>
<path d="" fill="#01E2AC" transform="translate(0,0)"/>
<path d="" fill="#02E2AC" transform="translate(0,0)"/>
<path d="" fill="#01E2AC" transform="translate(0,0)"/>
<path d="" fill="#02E2AC" transform="translate(0,0)"/>
<path d="" fill="#02E2AC" transform="translate(0,0)"/>
<path d="" fill="#000000" transform="translate(0,0)"/>
<path d="" fill="#02E2AC" transform="translate(0,0)"/>
<path d="" fill="#02E1AB" transform="translate(0,0)"/>
<path d="" fill="#02E2AC" transform="translate(0,0)"/>
<path d="" fill="#000000" transform="translate(0,0)"/>
<path d="" fill="#02E2AC" transform="translate(0,0)"/>
<path d="" fill="#000000" transform="translate(0,0)"/>
<path d="" fill="#02E2AC" transform="translate(0,0)"/>
<path d="" fill="#02E1AB" transform="translate(0,0)"/>
<path d="" fill="#02E2AC" transform="translate(0,0)"/>
<path d="" fill="#000000" transform="translate(0,0)"/>
<path d="" fill="#02E2AC" transform="translate(0,0)"/>
<path d="" fill="#02E2AC" transform="translate(0,0)"/>
<path d="" fill="#000000" transform="translate(0,0)"/>
<path d="" fill="#02E2AC" transform="translate(0,0)"/>
<path d="" fill="#000000" transform="translate(0,0)"/>
<path d="" fill="#000000" transform="translate(0,0)"/>
<path d="" fill="#000000" transform="translate(0,0)"/>
<path d="" fill="#000000" transform="translate(0,0)"/>
<path d="" fill="#01E1AB" transform="translate(0,0)"/>
<path d="" fill="#000000" transform="translate(0,0)"/>
<path d="" fill="#000000" transform="translate(0,0)"/>
<path d="" fill="#000000" transform="translate(0,0)"/>
<path d="" fill="#02E3AD" transform="translate(0,0)"/>
<path d="" fill="#000000" transform="translate(0,0)"/>
<path d="" fill="#000000" transform="translate(0,0)"/>
<path d="" fill="#02E3AD" transform="translate(0,0)"/>
<path d="" fill="#000000" transform="translate(0,0)"/>
<path d="" fill="#000000" transform="translate(0,0)"/>
<path d="" fill="#000000" transform="translate(0,0)"/>
<path d="" fill="#000000" transform="translate(0,0)"/>
<path d="" fill="#000000" transform="translate(0,0)"/>
<path d="" fill="#000000" transform="translate(0,0)"/>
<path d="" fill="#000000" transform="translate(0,0)"/>
<path d="" fill="#000000" transform="translate(0,0)"/>
<path d="" fill="#000000" transform="translate(0,0)"/>
<path d="" fill="#00DFAF" transform="translate(0,0)"/>
<path d="" fill="#000000" transform="translate(0,0)"/>
<path d="" fill="#000000" transform="translate(0,0)"/>
<path d="" fill="#000000" transform="translate(0,0)"/>
<path d="" fill="#000000" transform="translate(0,0)"/>
<path d="" fill="#000000" transform="translate(0,0)"/>
<path d="" fill="#000000" transform="translate(0,0)"/>
<path d="" fill="#000000" transform="translate(0,0)"/>
<path d="" fill="#00DFAF" transform="translate(0,0)"/>
<path d="" fill="#000000" transform="translate(0,0)"/>
<path d="" fill="#000000" transform="translate(0,0)"/>
</svg>
