<?xml version="1.0" encoding="UTF-8"?>
<svg version="1.1" xmlns="http://www.w3.org/2000/svg" width="25" height="25">
<path d="M0 0 C8.25 0 16.5 0 25 0 C25 8.25 25 16.5 25 25 C16.75 25 8.5 25 0 25 C0 16.75 0 8.5 0 0 Z " fill="#262930" transform="translate(0,0)"/>
<path d="M0 0 C1.65 0 3.3 0 5 0 C5 8.25 5 16.5 5 25 C1.04 25 -2.92 25 -7 25 C-6 20 -6 20 -5 17 C-4.34 17 -3.68 17 -3 17 C-3 14.36 -3 11.72 -3 9 C-2.34 9 -1.68 9 -1 9 C-0.67 6.03 -0.34 3.06 0 0 Z " fill="#1A1C21" transform="translate(20,0)"/>
<path d="M0 0 C2.97 0 5.94 0 9 0 C8.07123493 2.75323238 7.13243408 5.50231935 6.1875 8.25 C5.92646484 9.02730469 5.66542969 9.80460938 5.39648438 10.60546875 C5.13544922 11.35957031 4.87441406 12.11367187 4.60546875 12.890625 C4.36981201 13.58188477 4.13415527 14.27314453 3.89135742 14.98535156 C3 17 3 17 0 21 C0 14.07 0 7.14 0 0 Z " fill="#272A33" transform="translate(0,0)"/>
<path d="M0 0 C0.33 0.66 0.66 1.32 1 2 C2.65 2 4.3 2 6 2 C6.33 1.34 6.66 0.68 7 0 C7.625 2.375 7.625 2.375 8 5 C7.34 5.66 6.68 6.32 6 7 C6 6.34 6 5.68 6 5 C4.35 5 2.7 5 1 5 C0.67 5.66 0.34 6.32 0 7 C-1.125 2.25 -1.125 2.25 0 0 Z " fill="#D8D8D9" transform="translate(9,9)"/>
</svg>
