<?xml version="1.0" encoding="UTF-8"?>
<svg version="1.1" xmlns="http://www.w3.org/2000/svg" width="200" height="200">
<path d="M0 0 C2.82045877 2.30263418 5.56336058 4.67903285 8.27832031 7.10449219 C11.1535235 9.666713 11.1535235 9.666713 14.50878906 11.77246094 C17.18066406 13.58496094 17.18066406 13.58496094 17.86816406 15.77246094 C18.02285156 16.66964844 18.02285156 16.66964844 18.18066406 17.58496094 C19.17066406 17.91496094 20.16066406 18.24496094 21.18066406 18.58496094 C21.51066406 19.57496094 21.84066406 20.56496094 22.18066406 21.58496094 C22.78394531 22.1740625 23.38722656 22.76316406 24.00878906 23.37011719 C26.61161449 26.02443736 28.16331475 28.75588582 29.93066406 32.02246094 C30.85105469 33.69115234 30.85105469 33.69115234 31.79003906 35.39355469 C33.13514811 38.48050439 33.50200878 40.27881822 33.18066406 43.58496094 C33.84066406 43.58496094 34.50066406 43.58496094 35.18066406 43.58496094 C39.64424539 56.0781479 40.85665551 67.12735329 40.55566406 80.33496094 C40.53909422 82.04587815 40.52476266 83.75681854 40.51269531 85.46777344 C40.3702832 98.68935945 40.3702832 98.68935945 39.18066406 103.58496094 C38.52066406 103.58496094 37.86066406 103.58496094 37.18066406 103.58496094 C37.18066406 105.89496094 37.18066406 108.20496094 37.18066406 110.58496094 C36.52066406 110.58496094 35.86066406 110.58496094 35.18066406 110.58496094 C34.52066406 113.88496094 33.86066406 117.18496094 33.18066406 120.58496094 C32.52066406 120.58496094 31.86066406 120.58496094 31.18066406 120.58496094 C31.10589844 121.42542969 31.03113281 122.26589844 30.95410156 123.13183594 C30.00301116 127.37811833 28.20111083 130.25695184 25.80566406 133.83496094 C25.40605469 134.45886719 25.00644531 135.08277344 24.59472656 135.72558594 C22.64505024 138.70140769 21.175244 140.58857431 18.18066406 142.58496094 C17.87128906 143.24496094 17.56191406 143.90496094 17.24316406 144.58496094 C16.18066406 146.58496094 16.18066406 146.58496094 14.29394531 147.52246094 C12.05773456 148.64676653 10.95666201 149.72870379 9.30566406 151.58496094 C-7.5531495 168.76523493 -31.7922615 178.47350042 -55.67724609 178.87768555 C-83.14890277 179.03784131 -105.50892955 171.73865683 -126.31811523 153.40429688 C-129.3378039 150.75277047 -132.36813316 148.62599484 -135.81933594 146.58496094 C-136.52084746 145.26962683 -137.18459519 143.93378502 -137.81933594 142.58496094 C-139.08777344 141.37839844 -139.08777344 141.37839844 -140.38183594 140.14746094 C-142.93144067 137.46710724 -143.50996572 136.19428011 -143.81933594 132.58496094 C-144.80933594 132.25496094 -145.79933594 131.92496094 -146.81933594 131.58496094 C-150.62798259 125.57828936 -153.21756631 119.65575401 -153.81933594 112.58496094 C-154.47933594 111.59496094 -155.13933594 110.60496094 -155.81933594 109.58496094 C-156.19144014 108.26192377 -156.52563767 106.92758159 -156.81933594 105.58496094 C-157.14933594 104.59496094 -157.47933594 103.60496094 -157.81933594 102.58496094 C-158.14933594 102.58496094 -158.47933594 102.58496094 -158.81933594 102.58496094 C-158.87027326 96.32278946 -158.90516878 90.06067193 -158.92919922 83.79833984 C-158.93922299 81.67038984 -158.95284555 79.5424535 -158.97021484 77.41455078 C-158.99462286 74.34631976 -159.00585555 71.27827173 -159.01464844 68.20996094 C-159.02497101 67.26693115 -159.03529358 66.32390137 -159.04592896 65.35229492 C-159.04686971 59.74541582 -158.41278806 54.96630789 -156.81933594 49.58496094 C-156.15933594 49.58496094 -155.49933594 49.58496094 -154.81933594 49.58496094 C-154.69816406 48.88628906 -154.57699219 48.18761719 -154.45214844 47.46777344 C-154.28457031 46.55769531 -154.11699219 45.64761719 -153.94433594 44.70996094 C-153.78191406 43.80503906 -153.61949219 42.90011719 -153.45214844 41.96777344 C-152.81933594 39.58496094 -152.81933594 39.58496094 -150.81933594 37.58496094 C-149.71378412 35.63398714 -148.89319267 33.94732054 -148.44433594 31.74511719 C-147.67559861 29.08816878 -146.42875814 27.18569548 -144.88183594 24.89746094 C-144.3571875 24.10984375 -143.83253906 23.32222656 -143.29199219 22.51074219 C-141.81933594 20.58496094 -141.81933594 20.58496094 -139.81933594 19.58496094 C-139.48933594 18.59496094 -139.15933594 17.60496094 -138.81933594 16.58496094 C-138.25988281 16.318125 -137.70042969 16.05128906 -137.12402344 15.77636719 C-133.75454168 14.03451645 -131.50732154 11.25605376 -128.94433594 8.52246094 C-95.59880991 -25.77011212 -37.69548479 -29.31871039 0 0 Z M34.18066406 46.58496094 C35.18066406 48.58496094 35.18066406 48.58496094 35.18066406 48.58496094 Z M35.18066406 49.58496094 C36.18066406 51.58496094 36.18066406 51.58496094 36.18066406 51.58496094 Z M36.18066406 52.58496094 C37.18066406 55.58496094 37.18066406 55.58496094 37.18066406 55.58496094 Z M-156.81933594 53.58496094 C-155.81933594 56.58496094 -155.81933594 56.58496094 -155.81933594 56.58496094 Z M37.18066406 56.58496094 C38.18066406 59.58496094 38.18066406 59.58496094 38.18066406 59.58496094 Z M-157.81933594 57.58496094 C-156.81933594 61.58496094 -156.81933594 61.58496094 -156.81933594 61.58496094 Z M38.18066406 60.58496094 C38.18066406 62.23496094 38.18066406 63.88496094 38.18066406 65.58496094 C38.51066406 65.58496094 38.84066406 65.58496094 39.18066406 65.58496094 C39.18066406 63.93496094 39.18066406 62.28496094 39.18066406 60.58496094 C38.85066406 60.58496094 38.52066406 60.58496094 38.18066406 60.58496094 Z M38.18066406 93.58496094 C38.18066406 95.23496094 38.18066406 96.88496094 38.18066406 98.58496094 C38.51066406 98.58496094 38.84066406 98.58496094 39.18066406 98.58496094 C39.18066406 96.93496094 39.18066406 95.28496094 39.18066406 93.58496094 C38.85066406 93.58496094 38.52066406 93.58496094 38.18066406 93.58496094 Z " fill="#0193ED" transform="translate(158.8193359375,19.4150390625)"/>
<path d="M0 0 C9.24 0 18.48 0 28 0 C28 9.57 28 19.14 28 29 C37.57 29 47.14 29 57 29 C57 38.57 57 48.14 57 58 C47.43 58 37.86 58 28 58 C28 76.15 28 94.3 28 113 C18.76 113 9.52 113 0 113 C0 75.71 0 38.42 0 0 Z " fill="#FCFEFE" transform="translate(57,43)"/>
<path d="M0 0 C9.57 0 19.14 0 29 0 C29 18.15 29 36.3 29 55 C19.43 55 9.86 55 0 55 C0 36.85 0 18.7 0 0 Z " fill="#FAFEFE" transform="translate(114,101)"/>
<path d="M0 0 C0.33 0 0.66 0 1 0 C1 18.15 1 36.3 1 55 C10.57 55 20.14 55 30 55 C30 36.85 30 18.7 30 0 C30.33 0 30.66 0 31 0 C31 19.14 31 38.28 31 58 C27.71023192 59.09658936 26.28696233 58.79953138 23 58 C23 57.34 23 56.68 23 56 C15.41 56 7.82 56 0 56 C0 37.52 0 19.04 0 0 Z " fill="#29B5D9" transform="translate(113,101)"/>
<path d="M0 0 C1.99954746 -0.04254356 4.00041636 -0.04080783 6 0 C6.33 0.33 6.66 0.66 7 1 C9.88471653 1.10111378 12.74043131 1.13862788 15.625 1.125 C16.42035156 1.12886719 17.21570313 1.13273437 18.03515625 1.13671875 C22.79464435 1.1289035 27.30652624 0.79273149 32 0 C32 1.32 32 2.64 32 4 C21.44 3.67 10.88 3.34 0 3 C0 2.01 0 1.02 0 0 Z " fill="#0D5EE0" transform="translate(56,40)"/>
<path d="M0 0 C0.99 0.495 0.99 0.495 2 1 C3.5195764 1.15123831 5.04472502 1.24881693 6.5703125 1.31640625 C7.91416016 1.37924805 7.91416016 1.37924805 9.28515625 1.44335938 C10.22230469 1.48267578 11.15945312 1.52199219 12.125 1.5625 C13.54232422 1.62727539 13.54232422 1.62727539 14.98828125 1.69335938 C17.32537092 1.79959072 19.6625683 1.90163176 22 2 C21.67 2.66 21.34 3.32 21 4 C17.04 3.67 13.08 3.34 9 3 C8.67 3.66 8.34 4.32 8 5 C5.69 5 3.38 5 1 5 C0.67 3.35 0.34 1.7 0 0 Z " fill="#04AAE3" transform="translate(55,155)"/>
<path d="M0 0 C8.58 0 17.16 0 26 0 C26 0.33 26 0.66 26 1 C17.42 1 8.84 1 0 1 C0 0.67 0 0.34 0 0 Z " fill="#00D8E3" transform="translate(86,199)"/>
<path d="M0 0 C0.33 0 0.66 0 1 0 C1 8.58 1 17.16 1 26 C0.67 26 0.34 26 0 26 C0 17.42 0 8.84 0 0 Z " fill="#00BFE7" transform="translate(199,86)"/>
<path d="M0 0 C0 1.65 0 3.3 0 5 C-2.64 4.67 -5.28 4.34 -8 4 C-5.28323295 -0.07515058 -4.95403667 0 0 0 Z " fill="#04A3EB" transform="translate(144,96)"/>
<path d="M0 0 C2.64 0 5.28 0 8 0 C8.33 0.99 8.66 1.98 9 3 C6.36 3 3.72 3 1 3 C0.67 2.01 0.34 1.02 0 0 Z " fill="#04B3E6" transform="translate(79,157)"/>
<path d="M0 0 C0.66 0.33 1.32 0.66 2 1 C-0.31 3.31 -2.62 5.62 -5 8 C-5 5 -5 5 -2.5 2.3125 C-1.675 1.549375 -0.85 0.78625 0 0 Z " fill="#0060F5" transform="translate(30,25)"/>
<path d="M0 0 C1.98 0 3.96 0 6 0 C6 0.33 6 0.66 6 1 C4.02 1 2.04 1 0 1 C0 0.67 0 0.34 0 0 Z " fill="#00E0E1" transform="translate(112,198)"/>
<path d="M0 0 C1.98 0 3.96 0 6 0 C6 0.33 6 0.66 6 1 C4.02 1 2.04 1 0 1 C0 0.67 0 0.34 0 0 Z " fill="#00D1E5" transform="translate(80,198)"/>
<path d="M0 0 C1.65 0 3.3 0 5 0 C5 0.33 5 0.66 5 1 C3.35 1 1.7 1 0 1 C0 0.67 0 0.34 0 0 Z " fill="#00E2E1" transform="translate(118,197)"/>
<path d="M0 0 C1.65 0 3.3 0 5 0 C5 0.33 5 0.66 5 1 C3.35 1 1.7 1 0 1 C0 0.67 0 0.34 0 0 Z " fill="#00CEE4" transform="translate(75,197)"/>
<path d="M0 0 C1.65 0 3.3 0 5 0 C5 0.33 5 0.66 5 1 C3.35 1 1.7 1 0 1 C0 0.67 0 0.34 0 0 Z " fill="#0060F5" transform="translate(117,0)"/>
<path d="M0 0 C1.65 0 3.3 0 5 0 C5 0.33 5 0.66 5 1 C3.35 1 1.7 1 0 1 C0 0.67 0 0.34 0 0 Z " fill="#0060F5" transform="translate(76,0)"/>
<path d="M0 0 C4 1 4 1 4 1 Z " fill="#00E3E1" transform="translate(123,196)"/>
<path d="M0 0 C4 1 4 1 4 1 Z " fill="#00C9E6" transform="translate(68,195)"/>
<path d="M0 0 C4 1 4 1 4 1 Z " fill="#0060F5" transform="translate(69,2)"/>
<path d="M0 0 C4 1 4 1 4 1 Z " fill="#0060F5" transform="translate(122,1)"/>
<path d="M0 0 C3 1 3 1 3 1 Z " fill="#01CBE5" transform="translate(72,196)"/>
<path d="M0 0 C3 1 3 1 3 1 Z " fill="#00E3E0" transform="translate(127,195)"/>
<path d="M0 0 C3 1 3 1 3 1 Z " fill="#00E5E1" transform="translate(130,194)"/>
<path d="M0 0 C3 1 3 1 3 1 Z " fill="#01C7E7" transform="translate(65,194)"/>
<path d="M0 0 C3 1 3 1 3 1 Z " fill="#00E5E1" transform="translate(135,192)"/>
<path d="M0 0 C3 1 3 1 3 1 Z " fill="#00C4E6" transform="translate(60,192)"/>
<path d="" fill="#007EF0" transform="translate(0,0)"/>
<path d="" fill="#00D4E4" transform="translate(0,0)"/>
<path d="" fill="#007BF1" transform="translate(0,0)"/>
<path d="" fill="#00D0E5" transform="translate(0,0)"/>
<path d="" fill="#0075F3" transform="translate(0,0)"/>
<path d="" fill="#0060F5" transform="translate(0,0)"/>
<path d="M0 0 C3 1 3 1 3 1 Z " fill="#0061F6" transform="translate(137,6)"/>
<path d="M0 0 C3 1 3 1 3 1 Z " fill="#0060F5" transform="translate(132,4)"/>
<path d="M0 0 C3 1 3 1 3 1 Z " fill="#0060F5" transform="translate(63,4)"/>
<path d="M0 0 C3 1 3 1 3 1 Z " fill="#0060F5" transform="translate(129,3)"/>
<path d="M0 0 C3 1 3 1 3 1 Z " fill="#0060F5" transform="translate(66,3)"/>
<path d="M0 0 C3 1 3 1 3 1 Z " fill="#0060F5" transform="translate(126,2)"/>
<path d="M0 0 C3 1 3 1 3 1 Z " fill="#0060F5" transform="translate(73,1)"/>
<path d="M0 0 C2 1 2 1 2 1 Z " fill="#00E5E0" transform="translate(133,193)"/>
<path d="M0 0 C2 1 2 1 2 1 Z " fill="#00C5E7" transform="translate(63,193)"/>
<path d="M0 0 C2 1 2 1 2 1 Z " fill="#00E6E2" transform="translate(138,191)"/>
<path d="M0 0 C2 1 2 1 2 1 Z " fill="#01C1E7" transform="translate(58,191)"/>
<path d="M0 0 C2 1 2 1 2 1 Z " fill="#00E6E1" transform="translate(140,190)"/>
<path d="M0 0 C2 1 2 1 2 1 Z " fill="#00C0E8" transform="translate(56,190)"/>
<path d="M0 0 C2 1 2 1 2 1 Z " fill="#00E7E1" transform="translate(142,189)"/>
<path d="M0 0 C2 1 2 1 2 1 Z " fill="#01BEE6" transform="translate(54,189)"/>
<path d="M0 0 C2 1 2 1 2 1 Z " fill="#01E6E1" transform="translate(144,188)"/>
<path d="M0 0 C2 1 2 1 2 1 Z " fill="#00BCE7" transform="translate(52,188)"/>
<path d="M0 0 C2 1 2 1 2 1 Z " fill="#00E6E1" transform="translate(146,187)"/>
<path d="M0 0 C2 1 2 1 2 1 Z " fill="#00BAE7" transform="translate(50,187)"/>
<path d="M0 0 C2 1 2 1 2 1 Z " fill="#01E8E1" transform="translate(148,186)"/>
<path d="M0 0 C2 1 2 1 2 1 Z " fill="#01B8E8" transform="translate(47,185)"/>
<path d="M0 0 C2 1 2 1 2 1 Z " fill="#00E7E1" transform="translate(151,184)"/>
<path d="M0 0 C2 1 2 1 2 1 Z " fill="#00B7E9" transform="translate(45,184)"/>
<path d="M0 0 C2 1 2 1 2 1 Z " fill="#01E7E2" transform="translate(154,182)"/>
<path d="M0 0 C2 1 2 1 2 1 Z " fill="#00B3EA" transform="translate(42,182)"/>
<path d="M0 0 C2 1 2 1 2 1 Z " fill="#00E7E1" transform="translate(157,180)"/>
<path d="M0 0 C2 1 2 1 2 1 Z " fill="#00AFE9" transform="translate(38,179)"/>
<path d="M0 0 C2 1 2 1 2 1 Z " fill="#01E7E1" transform="translate(162,176)"/>
<path d="M0 0 C2 1 2 1 2 1 Z " fill="#01A8EC" transform="translate(32,174)"/>
<path d="" fill="#0091ED" transform="translate(0,0)"/>
<path d="" fill="#00DAE3" transform="translate(0,0)"/>
<path d="" fill="#0081F0" transform="translate(0,0)"/>
<path d="" fill="#00D6E4" transform="translate(0,0)"/>
<path d="" fill="#0060F5" transform="translate(0,0)"/>
<path d="" fill="#00A1EB" transform="translate(0,0)"/>
<path d="" fill="#0060F5" transform="translate(0,0)"/>
<path d="" fill="#0060F5" transform="translate(0,0)"/>
<path d="M0 0 C2 1 2 1 2 1 Z " fill="#0179F2" transform="translate(164,23)"/>
<path d="M0 0 C2 1 2 1 2 1 Z " fill="#0060F5" transform="translate(37,19)"/>
<path d="M0 0 C2 1 2 1 2 1 Z " fill="#0073F2" transform="translate(158,18)"/>
<path d="M0 0 C2 1 2 1 2 1 Z " fill="#0070F3" transform="translate(155,16)"/>
<path d="M0 0 C2 1 2 1 2 1 Z " fill="#0060F5" transform="translate(41,16)"/>
<path d="M0 0 C2 1 2 1 2 1 Z " fill="#016DF4" transform="translate(152,14)"/>
<path d="M0 0 C2 1 2 1 2 1 Z " fill="#0060F5" transform="translate(44,14)"/>
<path d="M0 0 C2 1 2 1 2 1 Z " fill="#006BF4" transform="translate(149,12)"/>
<path d="M0 0 C2 1 2 1 2 1 Z " fill="#0060F5" transform="translate(47,12)"/>
<path d="M0 0 C2 1 2 1 2 1 Z " fill="#0068F4" transform="translate(147,11)"/>
<path d="M0 0 C2 1 2 1 2 1 Z " fill="#0060F5" transform="translate(49,11)"/>
<path d="M0 0 C2 1 2 1 2 1 Z " fill="#0060F5" transform="translate(51,10)"/>
<path d="M0 0 C2 1 2 1 2 1 Z " fill="#0065F5" transform="translate(144,9)"/>
<path d="M0 0 C2 1 2 1 2 1 Z " fill="#0060F5" transform="translate(53,9)"/>
<path d="M0 0 C2 1 2 1 2 1 Z " fill="#0065F5" transform="translate(142,8)"/>
<path d="M0 0 C2 1 2 1 2 1 Z " fill="#0060F5" transform="translate(55,8)"/>
<path d="M0 0 C2 1 2 1 2 1 Z " fill="#0063F6" transform="translate(140,7)"/>
<path d="M0 0 C2 1 2 1 2 1 Z " fill="#0060F5" transform="translate(57,7)"/>
<path d="M0 0 C2 1 2 1 2 1 Z " fill="#0060F5" transform="translate(59,6)"/>
<path d="M0 0 C2 1 2 1 2 1 Z " fill="#0060F5" transform="translate(135,5)"/>
<path d="M0 0 C2 1 2 1 2 1 Z " fill="#0060F5" transform="translate(61,5)"/>
<path d="" fill="#01BAE9" transform="translate(0,0)"/>
<path d="" fill="#01E8E1" transform="translate(0,0)"/>
<path d="" fill="#01E7E3" transform="translate(0,0)"/>
<path d="" fill="#01B5E9" transform="translate(0,0)"/>
<path d="" fill="#00E7E1" transform="translate(0,0)"/>
<path d="" fill="#02B2EB" transform="translate(0,0)"/>
<path d="" fill="#01B1EB" transform="translate(0,0)"/>
<path d="" fill="#00E7E1" transform="translate(0,0)"/>
<path d="" fill="#02E7E2" transform="translate(0,0)"/>
<path d="" fill="#00AEE9" transform="translate(0,0)"/>
<path d="" fill="#02E7E2" transform="translate(0,0)"/>
<path d="" fill="#01AEEB" transform="translate(0,0)"/>
<path d="" fill="#00ABE9" transform="translate(0,0)"/>
<path d="" fill="#00E7E1" transform="translate(0,0)"/>
<path d="" fill="#00AAEB" transform="translate(0,0)"/>
<path d="" fill="#00E7E1" transform="translate(0,0)"/>
<path d="" fill="#00E7E1" transform="translate(0,0)"/>
<path d="" fill="#00A7EB" transform="translate(0,0)"/>
<path d="" fill="#00E6E1" transform="translate(0,0)"/>
<path d="" fill="#00A7EB" transform="translate(0,0)"/>
<path d="" fill="#01E6E2" transform="translate(0,0)"/>
<path d="" fill="#00A5EB" transform="translate(0,0)"/>
<path d="" fill="#01E6E2" transform="translate(0,0)"/>
<path d="" fill="#01A5EC" transform="translate(0,0)"/>
<path d="" fill="#00E5E1" transform="translate(0,0)"/>
<path d="" fill="#01A3EC" transform="translate(0,0)"/>
<path d="" fill="#00E5E1" transform="translate(0,0)"/>
<path d="" fill="#00A2EB" transform="translate(0,0)"/>
<path d="" fill="#00E4E0" transform="translate(0,0)"/>
<path d="" fill="#00E5E1" transform="translate(0,0)"/>
<path d="" fill="#009BED" transform="translate(0,0)"/>
<path d="" fill="#01E3E2" transform="translate(0,0)"/>
<path d="" fill="#0092ED" transform="translate(0,0)"/>
<path d="" fill="#018DEF" transform="translate(0,0)"/>
<path d="" fill="#0060F5" transform="translate(0,0)"/>
<path d="" fill="#0088F0" transform="translate(0,0)"/>
<path d="" fill="#0087F0" transform="translate(0,0)"/>
<path d="" fill="#0060F5" transform="translate(0,0)"/>
<path d="" fill="#0060F5" transform="translate(0,0)"/>
<path d="" fill="#0060F5" transform="translate(0,0)"/>
<path d="" fill="#0082F0" transform="translate(0,0)"/>
<path d="" fill="#0081F1" transform="translate(0,0)"/>
<path d="" fill="#0180F1" transform="translate(0,0)"/>
<path d="" fill="#017EF2" transform="translate(0,0)"/>
<path d="" fill="#007DF1" transform="translate(0,0)"/>
<path d="" fill="#007BF2" transform="translate(0,0)"/>
<path d="" fill="#007BF2" transform="translate(0,0)"/>
<path d="" fill="#0060F5" transform="translate(0,0)"/>
<path d="" fill="#0060F5" transform="translate(0,0)"/>
<path d="" fill="#0178F1" transform="translate(0,0)"/>
<path d="" fill="#0060F5" transform="translate(0,0)"/>
<path d="" fill="#0177F3" transform="translate(0,0)"/>
<path d="" fill="#0060F5" transform="translate(0,0)"/>
<path d="" fill="#0175F2" transform="translate(0,0)"/>
<path d="" fill="#0060F5" transform="translate(0,0)"/>
<path d="" fill="#0174F3" transform="translate(0,0)"/>
<path d="" fill="#0060F5" transform="translate(0,0)"/>
<path d="" fill="#0071F3" transform="translate(0,0)"/>
<path d="" fill="#0060F5" transform="translate(0,0)"/>
<path d="" fill="#016EF5" transform="translate(0,0)"/>
<path d="" fill="#0060F5" transform="translate(0,0)"/>
<path d="" fill="#016DF5" transform="translate(0,0)"/>
<path d="" fill="#0060F5" transform="translate(0,0)"/>
<path d="" fill="#0168F5" transform="translate(0,0)"/>
</svg>
