<?xml version="1.0" encoding="UTF-8"?>
<svg version="1.1" xmlns="http://www.w3.org/2000/svg" width="96" height="96">
<path d="M0 0 C1.31653564 0.01135986 1.31653564 0.01135986 2.65966797 0.02294922 C9.45144448 0.1952272 15.06562583 1.23369297 21.125 4.4375 C21.98222656 4.87320312 22.83945313 5.30890625 23.72265625 5.7578125 C36.08766834 12.58374678 43.23004062 22.68856753 47.52075195 36.01293945 C48.54203578 40.11086661 48.61362209 44.10669413 48.5625 48.3125 C48.55492676 49.19019043 48.54735352 50.06788086 48.53955078 50.97216797 C48.3672728 57.76394448 47.32880703 63.37812583 44.125 69.4375 C43.47144531 70.72333984 43.47144531 70.72333984 42.8046875 72.03515625 C35.97875322 84.40016834 25.87393247 91.54254062 12.54956055 95.83325195 C8.45163339 96.85453578 4.45580587 96.92612209 0.25 96.875 C-0.62769043 96.86742676 -1.50538086 96.85985352 -2.40966797 96.85205078 C-9.20144448 96.6797728 -14.81562583 95.64130703 -20.875 92.4375 C-22.16083984 91.78394531 -22.16083984 91.78394531 -23.47265625 91.1171875 C-35.83766834 84.29125322 -42.98004062 74.18643247 -47.27075195 60.86206055 C-48.29203578 56.76413339 -48.36362209 52.76830587 -48.3125 48.5625 C-48.30492676 47.68480957 -48.29735352 46.80711914 -48.28955078 45.90283203 C-48.1172728 39.11105552 -47.07880703 33.49687417 -43.875 27.4375 C-43.43929687 26.58027344 -43.00359375 25.72304688 -42.5546875 24.83984375 C-35.72875322 12.47483166 -25.62393247 5.33245938 -12.29956055 1.04174805 C-8.20163339 0.02046422 -4.20580587 -0.05112209 0 0 Z " fill="#ED321A" transform="translate(47.875,-0.4375)"/>
<path d="M0 0 C0.33 0 0.66 0 1 0 C1 1.65 1 3.3 1 5 C0.34 5 -0.32 5 -1 5 C0.25541557 7.51083114 1.50063488 7.87125446 4 9 C3.67 10.65 3.34 12.3 3 14 C1.35 14.33 -0.3 14.66 -2 15 C0.58110689 19.58544817 0.58110689 19.58544817 5 22 C5.66 19.36 6.32 16.72 7 14 C8.60520004 14.06023265 10.20934327 14.14908599 11.8125 14.25 C13.15248047 14.31960937 13.15248047 14.31960937 14.51953125 14.390625 C17 15 17 15 18.85546875 16.8828125 C20 19 20 19 19.5 21.625 C17.6534166 24.54875705 16.28700992 25.09607227 13 26 C12.34 26 11.68 26 11 26 C12.05470702 28.19054536 13.15568104 30.24304461 14.46875 32.29296875 C18.91757004 40.15784704 19.47017604 49.15372497 19 58 C17.88625 58.268125 16.7725 58.53625 15.625 58.8125 C11.78159049 59.65809019 11.78159049 59.65809019 10 63 C9.01 63 8.02 63 7 63 C6.67 61.35 6.34 59.7 6 58 C3.03 58 0.06 58 -3 58 C-3 57.67 -3 57.34 -3 57 C-1.88625 56.731875 -0.7725 56.46375 0.375 56.1875 C4.21840951 55.34190981 4.21840951 55.34190981 6 52 C6.39013716 50.0103005 6.73202649 48.00980131 7 46 C6.01 46 5.02 46 4 46 C4 42.7 4 39.4 4 36 C2.35 36 0.7 36 -1 36 C-3.3125 34 -3.3125 34 -5 32 C-4.34 32 -3.68 32 -3 32 C-2.67 30.35 -2.34 28.7 -2 27 C-4.51083114 28.25541557 -4.87125446 29.50063488 -6 32 C-6.61875 31.835 -7.2375 31.67 -7.875 31.5 C-9.96063386 30.92365356 -9.96063386 30.92365356 -12 31 C-13.54278761 30.84405035 -15.08437905 30.67607097 -16.625 30.5 C-17.44226562 30.4071875 -18.25953125 30.314375 -19.1015625 30.21875 C-19.72804687 30.1465625 -20.35453125 30.074375 -21 30 C-21.33 31.65 -21.66 33.3 -22 35 C-23.98 34.01 -25.96 33.02 -28 32 C-28 33.65 -28 35.3 -28 37 C-28.639375 37.268125 -29.27875 37.53625 -29.9375 37.8125 C-32.33131686 38.88667752 -32.33131686 38.88667752 -33 42 C-33.495 41.505 -33.495 41.505 -34 41 C-34.33 41.99 -34.66 42.98 -35 44 C-34.071875 44.0928125 -34.071875 44.0928125 -33.125 44.1875 C-31 45 -31 45 -29.6875 47.3125 C-28.980426 50.07651653 -29.02466937 51.36660729 -30 54 C-30.66 53.34 -31.32 52.68 -32 52 C-32 50.68 -32 49.36 -32 48 C-34.16352397 48.81880887 -34.16352397 48.81880887 -34.875 50.9375 C-36.24628053 53.4515143 -37.4839253 53.7825445 -40 55 C-40.33 55.99 -40.66 56.98 -41 58 C-41.99 58 -42.98 58 -44 58 C-44 59.65 -44 61.3 -44 63 C-46.16874252 62.49396008 -47.99967627 62.00016187 -50 61 C-51.485 61.495 -51.485 61.495 -53 62 C-53 62.66 -53 63.32 -53 64 C-51.2984375 64.185625 -51.2984375 64.185625 -49.5625 64.375 C-48.386875 64.58125 -47.21125 64.7875 -46 65 C-45.505 65.99 -45.505 65.99 -45 67 C-42.98330173 68.13350534 -42.98330173 68.13350534 -41 69 C-41.66 69 -42.32 69 -43 69 C-43 70.65 -43 72.3 -43 74 C-45.475 74.99 -45.475 74.99 -48 76 C-48.495 75.01 -48.495 75.01 -49 74 C-49.99 74 -50.98 74 -52 74 C-58.80502855 68.2270137 -63.53802642 59.75628855 -65 51 C-62.36 51.66 -59.72 52.32 -57 53 C-56.18537505 48.34500026 -55.56606279 43.69023454 -55 39 C-57.475 39.495 -57.475 39.495 -60 40 C-59.34 38.68 -58.68 37.36 -58 36 C-57.01 36 -56.02 36 -55 36 C-54.59007812 35.15695313 -54.18015625 34.31390625 -53.7578125 33.4453125 C-52.94957031 31.80175781 -52.94957031 31.80175781 -52.125 30.125 C-51.59132813 29.03445312 -51.05765625 27.94390625 -50.5078125 26.8203125 C-49 24 -49 24 -47 22 C-47.36681658 19.06546739 -47.86437246 18.13562754 -50 16 C-50.25 13 -50.25 13 -50 10 C-48 8 -48 8 -45.21484375 7.953125 C-44.13332031 8.05109375 -43.05179688 8.1490625 -41.9375 8.25 C-40.85339844 8.33765625 -39.76929687 8.4253125 -38.65234375 8.515625 C-37.77707031 8.67546875 -36.90179688 8.8353125 -36 9 C-35.67 9.66 -35.34 10.32 -35 11 C-34.835 10.2575 -34.67 9.515 -34.5 8.75 C-32.78687549 5.60927174 -31.06812481 4.20179895 -27.81640625 2.72265625 C-19.60414791 0.61548872 -9.87208918 0.89586389 -2 4 C-1.34 2.68 -0.68 1.36 0 0 Z " fill="#EAC497" transform="translate(66,9)"/>
<path d="M0 0 C1.31653564 0.01135986 1.31653564 0.01135986 2.65966797 0.02294922 C9.45144448 0.1952272 15.06562583 1.23369297 21.125 4.4375 C21.98222656 4.87320312 22.83945313 5.30890625 23.72265625 5.7578125 C36.08766834 12.58374678 43.23004062 22.68856753 47.52075195 36.01293945 C48.54213642 40.11127042 48.61204087 44.10639863 48.5625 48.3125 C48.55549072 49.62033447 48.55549072 49.62033447 48.54833984 50.95458984 C48.38013552 58.3022468 47.54977663 66.01272337 42.125 71.4375 C39.3277092 69.36993723 39.09807727 68.29309629 38.4375 64.75 C38.334375 63.656875 38.23125 62.56375 38.125 61.4375 C39.61 62.4275 39.61 62.4275 41.125 63.4375 C40.93671228 60.99269921 40.93671228 60.99269921 40.125 58.4375 C39.49078125 58.19386719 38.8565625 57.95023438 38.203125 57.69921875 C36.125 56.4375 36.125 56.4375 35 53.35546875 C34.71125 52.12441406 34.4225 50.89335938 34.125 49.625 C32.90122948 44.44036506 31.44899636 41.54234895 28.125 37.4375 C28.455 36.4475 28.785 35.4575 29.125 34.4375 C30.07375 34.375625 31.0225 34.31375 32 34.25 C35.29073824 33.77469189 35.29073824 33.77469189 36.625 31.0625 C37.48448488 28.21775473 37.48448488 28.21775473 35.125 25.4375 C32.70892583 24.63951782 32.70892583 24.63951782 30 24.25 C28.63488281 24.01216797 28.63488281 24.01216797 27.2421875 23.76953125 C26.19417969 23.60517578 26.19417969 23.60517578 25.125 23.4375 C24.795 26.0775 24.465 28.7175 24.125 31.4375 C22.805 31.4375 21.485 31.4375 20.125 31.4375 C16.125 27.21527778 16.125 27.21527778 16.125 24.4375 C17.775 23.7775 19.425 23.1175 21.125 22.4375 C21.125 21.1175 21.125 19.7975 21.125 18.4375 C19.805 17.7775 18.485 17.1175 17.125 16.4375 C17.125 15.7775 17.125 15.1175 17.125 14.4375 C17.785 14.4375 18.445 14.4375 19.125 14.4375 C18.63 12.9525 18.63 12.9525 18.125 11.4375 C17.465 12.4275 16.805 13.4175 16.125 14.4375 C15.30773438 14.11523438 14.49046875 13.79296875 13.6484375 13.4609375 C5.98688471 11.23551973 -4.48418698 10.80585306 -11.875 14.125 C-15.04551596 16.14194585 -15.04551596 16.14194585 -15.875 19.1875 C-15.875 19.93 -15.875 20.6725 -15.875 21.4375 C-16.535 21.1075 -17.195 20.7775 -17.875 20.4375 C-17.875 19.7775 -17.875 19.1175 -17.875 18.4375 C-19.85409398 18.41063447 -21.83328971 18.39116625 -23.8125 18.375 C-24.91464844 18.36339844 -26.01679688 18.35179688 -27.15234375 18.33984375 C-29.78947634 18.12487429 -29.78947634 18.12487429 -30.875 19.4375 C-31.20861919 22.35358998 -31.20861919 22.35358998 -30.875 25.4375 C-29.89479625 26.4569119 -28.89696992 27.45996356 -27.875 28.4375 C-27.97451108 31.32332141 -29.09218778 32.74880249 -30.75 35.125 C-33.27956348 39.06814307 -34.56470617 42.97058921 -35.875 47.4375 C-37.195 47.1075 -38.515 46.7775 -39.875 46.4375 C-40.535 47.4275 -41.195 48.4175 -41.875 49.4375 C-39.4 48.9425 -39.4 48.9425 -36.875 48.4375 C-36.6950072 53.65729128 -36.90405192 57.51012981 -38.875 62.4375 C-44.36346068 61.82767104 -44.36346068 61.82767104 -46.54711914 60.16210938 C-48.19989914 58.01553135 -48.27374022 56.84544498 -48.30859375 54.15625 C-48.32003418 53.3194873 -48.33147461 52.48272461 -48.34326172 51.62060547 C-48.33311035 50.73518066 -48.32295898 49.84975586 -48.3125 48.9375 C-48.30492676 48.03273926 -48.29735352 47.12797852 -48.28955078 46.19580078 C-48.11962137 39.28823205 -47.13464581 33.6024823 -43.875 27.4375 C-43.43929687 26.58027344 -43.00359375 25.72304688 -42.5546875 24.83984375 C-35.72875322 12.47483166 -25.62393247 5.33245938 -12.29956055 1.04174805 C-8.20163339 0.02046422 -4.20580587 -0.05112209 0 0 Z " fill="#51140C" transform="translate(47.875,-0.4375)"/>
<path d="M0 0 C0.66 0 1.32 0 2 0 C1.79375 0.94875 1.5875 1.8975 1.375 2.875 C1.189375 4.421875 1.189375 4.421875 1 6 C3.35953094 8.35953094 4.77895617 8.49141413 8 9 C9.125 16.75 9.125 16.75 8 19 C8.99 19 9.98 19 11 19 C11.34530062 22.71198163 11.25629673 24.57283878 9.3125 27.8125 C6.72648483 30.25873057 5.44947811 30.55775922 2 31 C-1.47917182 33.31944788 -2.29429766 35.26369964 -4 39 C-4.66 39 -5.32 39 -6 39 C-6.309375 38.360625 -6.61875 37.72125 -6.9375 37.0625 C-7.8345163 35.06389179 -7.8345163 35.06389179 -9 34 C-9.495 34.99 -9.495 34.99 -10 36 C-10.66 36 -11.32 36 -12 36 C-12.33 36.99 -12.66 37.98 -13 39 C-14.32 39 -15.64 39 -17 39 C-17.33 38.34 -17.66 37.68 -18 37 C-19.485 37.495 -19.485 37.495 -21 38 C-21.33 37.34 -21.66 36.68 -22 36 C-22.33 37.32 -22.66 38.64 -23 40 C-24.98 40 -26.96 40 -29 40 C-29.268125 40.639375 -29.53625 41.27875 -29.8125 41.9375 C-31 44 -31 44 -34 45 C-34 45.66 -34 46.32 -34 47 C-35.65 46.34 -37.3 45.68 -39 45 C-39 44.01 -39 43.02 -39 42 C-39.99 41.34 -40.98 40.68 -42 40 C-42 39.34 -42 38.68 -42 38 C-44.31 37.67 -46.62 37.34 -49 37 C-48.67 35.35 -48.34 33.7 -48 32 C-45.33333333 33.33333333 -42.66666667 34.66666667 -40 36 C-40 34.35 -40 32.7 -40 31 C-39.01 31 -38.02 31 -37 31 C-36.87625 30.071875 -36.87625 30.071875 -36.75 29.125 C-35.76174558 26.32494581 -34.59640015 26.25886068 -32 25 C-30.73195434 22.9664052 -30.73195434 22.9664052 -30 21 C-29.34 21 -28.68 21 -28 21 C-27.34 21.99 -26.68 22.98 -26 24 C-26.33 22.02 -26.66 20.04 -27 18 C-28.32 17.67 -29.64 17.34 -31 17 C-30.67 15.68 -30.34 14.36 -30 13 C-29.67 13.33 -29.34 13.66 -29 14 C-28.67 13.34 -28.34 12.68 -28 12 C-28.66 11.67 -29.32 11.34 -30 11 C-29.195625 10.7525 -28.39125 10.505 -27.5625 10.25 C-24.828919 9.27761141 -24.828919 9.27761141 -24.1875 6.875 C-24.0946875 5.946875 -24.0946875 5.946875 -24 5 C-22.35 5.66 -20.7 6.32 -19 7 C-19 6.34 -19 5.68 -19 5 C-18.34 5 -17.68 5 -17 5 C-17 4.34 -17 3.68 -17 3 C-16.41992188 3.01160156 -15.83984375 3.02320313 -15.2421875 3.03515625 C-10.71292612 3.08747445 -6.4463058 3.00041881 -2 2 C-1.67 1.67 -1.34 1.34 -1 1 C-0.67 0.67 -0.34 0.34 0 0 Z " fill="#9B2816" transform="translate(62,36)"/>
<path d="M0 0 C0.99 0.66 1.98 1.32 3 2 C4.65549531 2.38499891 6.3222433 2.72793135 8 3 C7.67 5.64 7.34 8.28 7 11 C8.65 10.34 10.3 9.68 12 9 C12.4125 9.61875 12.825 10.2375 13.25 10.875 C15.09603601 13.11661515 16.4187471 13.7900377 19 15 C20.75 16.625 20.75 16.625 22 18 C20.02 18 18.04 18 16 18 C15.505 20.475 15.505 20.475 15 23 C13.02 22.01 11.04 21.02 9 20 C9 21.65 9 23.3 9 25 C8.360625 25.268125 7.72125 25.53625 7.0625 25.8125 C4.66868314 26.88667752 4.66868314 26.88667752 4 30 C3.67 29.67 3.34 29.34 3 29 C2.67 29.99 2.34 30.98 2 32 C2.928125 32.0928125 2.928125 32.0928125 3.875 32.1875 C6 33 6 33 7.3125 35.3125 C8.019574 38.07651653 7.97533063 39.36660729 7 42 C6.34 41.34 5.68 40.68 5 40 C5 38.68 5 37.36 5 36 C2.83647603 36.81880887 2.83647603 36.81880887 2.125 38.9375 C0.75371947 41.4515143 -0.4839253 41.7825445 -3 43 C-3.33 43.99 -3.66 44.98 -4 46 C-4.99 46 -5.98 46 -7 46 C-7 47.65 -7 49.3 -7 51 C-9.16874252 50.49396008 -10.99967627 50.00016187 -13 49 C-14.485 49.495 -14.485 49.495 -16 50 C-16 50.66 -16 51.32 -16 52 C-14.2984375 52.185625 -14.2984375 52.185625 -12.5625 52.375 C-11.386875 52.58125 -10.21125 52.7875 -9 53 C-8.67 53.66 -8.34 54.32 -8 55 C-5.98330173 56.13350534 -5.98330173 56.13350534 -4 57 C-4.66 57 -5.32 57 -6 57 C-6 58.65 -6 60.3 -6 62 C-7.65 62.66 -9.3 63.32 -11 64 C-11.33 63.34 -11.66 62.68 -12 62 C-12.99 62 -13.98 62 -15 62 C-21.80502855 56.2270137 -26.53802642 47.75628855 -28 39 C-25.36 39.66 -22.72 40.32 -20 41 C-19.18537505 36.34500026 -18.56606279 31.69023454 -18 27 C-19.65 27.33 -21.3 27.66 -23 28 C-22.34 26.68 -21.68 25.36 -21 24 C-20.01 24 -19.02 24 -18 24 C-17.60167969 23.19175781 -17.20335937 22.38351563 -16.79296875 21.55078125 C-15.99826172 19.94783203 -15.99826172 19.94783203 -15.1875 18.3125 C-14.66542969 17.25675781 -14.14335937 16.20101562 -13.60546875 15.11328125 C-10.73412137 9.54524265 -10.73412137 9.54524265 -9 7 C-7.7934375 6.7834375 -7.7934375 6.7834375 -6.5625 6.5625 C-3.63877645 6.21181306 -3.63877645 6.21181306 -1.6875 2.9375 C-1.130625 1.968125 -0.57375 0.99875 0 0 Z " fill="#FAB263" transform="translate(29,21)"/>
<path d="M0 0 C1.60520004 0.06023265 3.20934327 0.14908599 4.8125 0.25 C6.15248047 0.31960937 6.15248047 0.31960937 7.51953125 0.390625 C10 1 10 1 11.85546875 2.8828125 C13 5 13 5 12.5 7.625 C10.6534166 10.54875705 9.28700992 11.09607227 6 12 C5.34 12 4.68 12 4 12 C5.05470702 14.19054536 6.15568104 16.24304461 7.46875 18.29296875 C11.91757004 26.15784704 12.47017604 35.15372497 12 44 C10.88625 44.268125 9.7725 44.53625 8.625 44.8125 C4.78159049 45.65809019 4.78159049 45.65809019 3 49 C2.01 49 1.02 49 0 49 C-0.495 46.525 -0.495 46.525 -1 44 C-3.97 44 -6.94 44 -10 44 C-10 43.67 -10 43.34 -10 43 C-8.88625 42.731875 -7.7725 42.46375 -6.625 42.1875 C-2.78159049 41.34190981 -2.78159049 41.34190981 -1 38 C-0.60986284 36.0103005 -0.26797351 34.00980131 0 32 C-0.99 32 -1.98 32 -3 32 C-3 28.7 -3 25.4 -3 22 C-4.65 22 -6.3 22 -8 22 C-10.3125 20 -10.3125 20 -12 18 C-11.34 18 -10.68 18 -10 18 C-9.67 16.35 -9.34 14.7 -9 13 C-11.51083114 14.25541557 -11.87125446 15.50063488 -13 18 C-14.32 17.67 -15.64 17.34 -17 17 C-16.34 16.67 -15.68 16.34 -15 16 C-16.32 15.67 -17.64 15.34 -19 15 C-18.01 13.02 -17.02 11.04 -16 9 C-15.01 9 -14.02 9 -13 9 C-12.67 8.34 -12.34 7.68 -12 7 C-11.67 7.99 -11.34 8.98 -11 10 C-10.01 10 -9.02 10 -8 10 C-8.33 9.443125 -8.66 8.88625 -9 8.3125 C-10.1309601 5.69715478 -10.15662974 3.8193354 -10 1 C-9.4225 1.78375 -8.845 2.5675 -8.25 3.375 C-6.17102363 5.80047244 -4.90959667 6.85694417 -2 8 C-1.34 5.36 -0.68 2.72 0 0 Z " fill="#D28767" transform="translate(73,23)"/>
<path d="M0 0 C1.95404698 1.76794727 3.20121946 3.33804868 4.5625 5.625 C5.77912906 8.11190375 5.77912906 8.11190375 8 9 C8 10.65 8 12.3 8 14 C7.34 13.67 6.68 13.34 6 13 C6 12.34 6 11.68 6 11 C4.02090602 10.97313447 2.04171029 10.95366625 0.0625 10.9375 C-1.59072266 10.92009766 -1.59072266 10.92009766 -3.27734375 10.90234375 C-5.91447634 10.68737429 -5.91447634 10.68737429 -7 12 C-7.33361919 14.91608998 -7.33361919 14.91608998 -7 18 C-6.01979625 19.0194119 -5.02196992 20.02246356 -4 21 C-4.09951108 23.88582141 -5.21718778 25.31130249 -6.875 27.6875 C-9.40456348 31.63064307 -10.68970617 35.53308921 -12 40 C-13.32 39.67 -14.64 39.34 -16 39 C-16.66 39.99 -17.32 40.98 -18 42 C-15.525 41.505 -15.525 41.505 -13 41 C-12.8200072 46.21979128 -13.02905192 50.07262981 -15 55 C-20.48846068 54.39017104 -20.48846068 54.39017104 -22.67211914 52.72460938 C-24.32489914 50.57803135 -24.39874022 49.40794498 -24.43359375 46.71875 C-24.44503418 45.8819873 -24.45647461 45.04522461 -24.46826172 44.18310547 C-24.45811035 43.29768066 -24.44795898 42.41225586 -24.4375 41.5 C-24.42992676 40.59523926 -24.42235352 39.69047852 -24.41455078 38.75830078 C-24.24462137 31.85073205 -23.25964581 26.1649823 -20 20 C-19.56429688 19.14277344 -19.12859375 18.28554688 -18.6796875 17.40234375 C-14.81190497 10.3959508 -10.01146903 3.71920101 -2.5 0.5 C-1.675 0.335 -0.85 0.17 0 0 Z " fill="#4E1006" transform="translate(24,7)"/>
<path d="M0 0 C0.66 0 1.32 0 2 0 C1.79375 0.94875 1.5875 1.8975 1.375 2.875 C1.189375 4.421875 1.189375 4.421875 1 6 C3.35953094 8.35953094 4.77895617 8.49141413 8 9 C9.125 16.75 9.125 16.75 8 19 C8.99 19 9.98 19 11 19 C11.125 21.875 11.125 21.875 11 25 C10.34 25.66 9.68 26.32 9 27 C8.76152344 26.38511719 8.52304688 25.77023438 8.27734375 25.13671875 C6.6864692 22.47553105 5.40827275 21.95735111 2.5625 20.8125 C1.78003906 20.48894531 0.99757813 20.16539063 0.19140625 19.83203125 C-1.52416128 19.18066604 -3.25910835 18.58029722 -5 18 C-4.67 19.32 -4.34 20.64 -4 22 C-3.34 22 -2.68 22 -2 22 C-2.33 22.99 -2.66 23.98 -3 25 C-3 24.34 -3 23.68 -3 23 C-7.82360189 22.80705592 -11.49646738 23.24252386 -16 25 C-16 23 -16 23 -14 21 C-15.32 20.67 -16.64 20.34 -18 20 C-18 19.01 -18 18.02 -18 17 C-18.66 16.67 -19.32 16.34 -20 16 C-18.02579865 13.47740939 -17.03254358 13.0070192 -13.8125 12.3125 C-12.884375 12.209375 -11.95625 12.10625 -11 12 C-11.33 10.68 -11.66 9.36 -12 8 C-13.98 8.33 -15.96 8.66 -18 9 C-18 9.66 -18 10.32 -18 11 C-23.47619048 16 -23.47619048 16 -26 16 C-26.33 16.66 -26.66 17.32 -27 18 C-28.32 17.67 -29.64 17.34 -31 17 C-30.67 15.68 -30.34 14.36 -30 13 C-29.67 13.33 -29.34 13.66 -29 14 C-28.67 13.34 -28.34 12.68 -28 12 C-28.66 11.67 -29.32 11.34 -30 11 C-29.195625 10.7525 -28.39125 10.505 -27.5625 10.25 C-24.828919 9.27761141 -24.828919 9.27761141 -24.1875 6.875 C-24.125625 6.25625 -24.06375 5.6375 -24 5 C-21.525 5.99 -21.525 5.99 -19 7 C-19 6.34 -19 5.68 -19 5 C-18.34 5 -17.68 5 -17 5 C-17 4.34 -17 3.68 -17 3 C-16.41992188 3.01160156 -15.83984375 3.02320313 -15.2421875 3.03515625 C-10.71292612 3.08747445 -6.4463058 3.00041881 -2 2 C-1.67 1.67 -1.34 1.34 -1 1 C-0.67 0.67 -0.34 0.34 0 0 Z " fill="#772B21" transform="translate(62,36)"/>
<path d="M0 0 C0.88453857 0.00161133 1.76907715 0.00322266 2.68041992 0.00488281 C12.50412012 0.18885737 19.98763994 3.23397596 28.25 8.375 C27.26 9.035 26.27 9.695 25.25 10.375 C24.755 9.88 24.755 9.88 24.25 9.375 C21.92182036 9.00739269 19.5881615 8.67258419 17.25 8.375 C17.25 10.025 17.25 11.675 17.25 13.375 C16.26 13.705 15.27 14.035 14.25 14.375 C13.69828125 14.07335938 13.1465625 13.77171875 12.578125 13.4609375 C9.14277048 11.85854059 5.72025954 11.9939678 2 12 C1.23727783 11.99798584 0.47455566 11.99597168 -0.3112793 11.99389648 C-6.1308953 12.09927687 -9.74790118 13.33450856 -14.75 16.375 C-16.84765625 16.1484375 -16.84765625 16.1484375 -18.75 15.375 C-20.375 12.9375 -20.375 12.9375 -21.75 10.375 C-23.6754644 8.1513932 -23.6754644 8.1513932 -26.75 7.375 C-25.23329636 6.57544999 -23.71138002 5.78578612 -22.1875 5 C-21.34058594 4.55914063 -20.49367188 4.11828125 -19.62109375 3.6640625 C-13.05415362 0.7156404 -7.09564323 -0.01342473 0 0 Z " fill="#3D110B" transform="translate(47.75,-0.375)"/>
<path d="M0 0 C0.66 0 1.32 0 2 0 C2.38133299 1.9914056 2.71325582 3.99279077 3 6 C2.67 6.33 2.34 6.66 2 7 C1.76136926 9.22427418 1.58444777 11.45529333 1.4375 13.6875 C1.35371094 14.90824219 1.26992188 16.12898438 1.18359375 17.38671875 C1.02031843 20.6001161 0.96541313 23.78342108 1 27 C0.34 27 -0.32 27 -1 27 C-1.33 27.99 -1.66 28.98 -2 30 C-3.32 30 -4.64 30 -6 30 C-5.67 31.65 -5.34 33.3 -5 35 C-6.65 35 -8.3 35 -10 35 C-10.33 35.99 -10.66 36.98 -11 38 C-11.99 37.67 -12.98 37.34 -14 37 C-14 37.66 -14 38.32 -14 39 C-14.99 39 -15.98 39 -17 39 C-18.15000639 34.16997316 -17.58225354 31.62462174 -16 27 C-15.22959967 23.26093662 -14.55331945 19.51135122 -13.87890625 15.75390625 C-12.75342602 10.94685512 -11.60953773 6.42559056 -7.8125 3.0625 C-7.214375 2.711875 -6.61625 2.36125 -6 2 C-6 2.99 -6 3.98 -6 5 C-5.05021103 7.15028304 -5.05021103 7.15028304 -4 9 C-3.34 9 -2.68 9 -2 9 C-1.855625 8.071875 -1.71125 7.14375 -1.5625 6.1875 C-1 3 -1 3 0 0 Z " fill="#EFB685" transform="translate(28,27)"/>
<path d="M0 0 C0.33 1.32 0.66 2.64 1 4 C-2.465 5.485 -2.465 5.485 -6 7 C-6 7.66 -6 8.32 -6 9 C-6 9.99 -6 10.98 -6 12 C-4.35 12.33 -2.7 12.66 -1 13 C-1.33 13.66 -1.66 14.32 -2 15 C-0.948125 14.7215625 -0.948125 14.7215625 0.125 14.4375 C3.33888698 13.94843024 5.83560336 14.33768442 9 15 C8.67 14.67 8.34 14.34 8 14 C7.855625 13.34 7.71125 12.68 7.5625 12 C7.376875 11.34 7.19125 10.68 7 10 C6.34 9.67 5.68 9.34 5 9 C8.71489368 9.61469464 11.84694062 10.64016952 15.25 12.25 C16.12140625 12.64703125 16.9928125 13.0440625 17.890625 13.453125 C20 15 20 15 20.921875 17.546875 C20.94765625 18.35640625 20.9734375 19.1659375 21 20 C17.87707139 23.12292861 14.28198647 22.79066568 10 23 C6.63537925 22.97453518 3.29397715 22.78904268 -0.0625 22.5625 C-1.3609082 22.48418945 -1.3609082 22.48418945 -2.68554688 22.40429688 C-4.79079032 22.2763539 -6.89546828 22.13916029 -9 22 C-9.13535156 21.39671875 -9.27070312 20.7934375 -9.41015625 20.171875 C-10.15969531 17.41198282 -11.3736857 15.34189259 -13 13 C-13.66 13 -14.32 13 -15 13 C-14.67 10.69 -14.34 8.38 -14 6 C-13.01 6.33 -12.02 6.66 -11 7 C-10.54625 6.34 -10.0925 5.68 -9.625 5 C-9.08875 4.34 -8.5525 3.68 -8 3 C-7.34 3 -6.68 3 -6 3 C-6 2.34 -6 1.68 -6 1 C-3 0 -3 0 0 0 Z " fill="#6D261D" transform="translate(50,44)"/>
<path d="M0 0 C4 2 4 2 5 4 C5.039992 5.99960012 5.04346799 8.00047242 5 10 C4.01 9.01 3.02 8.02 2 7 C2 8.65 2 10.3 2 12 C2.99 12.33 3.98 12.66 5 13 C4.26815145 21.10935405 -1.22134273 25.45363724 -6.90625 30.7890625 C-10.12990555 33.41194588 -11.74228153 34.01227231 -15.9375 33.8125 C-16.948125 33.544375 -17.95875 33.27625 -19 33 C-18.35546875 32.34644531 -17.7109375 31.69289063 -17.046875 31.01953125 C-14.41093217 27.13101253 -14.34020354 24.2755799 -14.25 19.6875 C-14.22035156 18.94693359 -14.19070312 18.20636719 -14.16015625 17.44335938 C-14.08994155 15.62947954 -14.04264952 13.81473722 -14 12 C-13.34 12.33 -12.68 12.66 -12 13 C-12 13.99 -12 14.98 -12 16 C-8.72226496 15.24849977 -8.72226496 15.24849977 -7 12 C-3.375 11.3125 -3.375 11.3125 0 11 C0 7.37 0 3.74 0 0 Z " fill="#712609" transform="translate(85,56)"/>
<path d="M0 0 C0.33 0 0.66 0 1 0 C1.33 1.98 1.66 3.96 2 6 C2.99 5.34 3.98 4.68 5 4 C5.33 5.98 5.66 7.96 6 10 C8.49004504 9.43923199 8.49004504 9.43923199 11 8 C11.33 7.01 11.66 6.02 12 5 C13 2 13 2 15.625 0.625 C16.800625 0.315625 16.800625 0.315625 18 0 C18.33 2.97 18.66 5.94 19 9 C21.24585673 7.07790522 21.24585673 7.07790522 21.875 3.9375 C22.24625 2.968125 22.6175 1.99875 23 1 C25.125 0.125 25.125 0.125 27 0 C27.12375 1.0725 27.2475 2.145 27.375 3.25 C27.89643936 6.37863615 28.40088254 8.33480424 30 11 C29.34 11.99 28.68 12.98 28 14 C27.01 13.34 26.02 12.68 25 12 C25 13.65 25 15.3 25 17 C19.96450958 19.51774521 11.50152654 19.16025416 6 18 C3.15769179 15.72913488 1.9842243 13.47190933 1 10 C0.67 10.66 0.34 11.32 0 12 C-1.32 12 -2.64 12 -4 12 C-4 11.34 -4 10.68 -4 10 C-3.01 9.34 -2.02 8.68 -1 8 C-0.42251197 6.03638136 -0.42251197 6.03638136 -0.3125 3.875 C-0.209375 2.59625 -0.10625 1.3175 0 0 Z " fill="#581003" transform="translate(35,78)"/>
<path d="M0 0 C-0.06009392 2.75230148 -0.14712621 5.4992444 -0.25 8.25 C-0.27126953 9.41595703 -0.27126953 9.41595703 -0.29296875 10.60546875 C-0.54187913 16.42997175 -0.54187913 16.42997175 -3.046875 19.546875 C-3.69140625 20.02640625 -4.3359375 20.5059375 -5 21 C-3.68 21 -2.36 21 -1 21 C-1.18359375 22.890625 -1.18359375 22.890625 -2 25 C-4.28515625 26.046875 -4.28515625 26.046875 -7.0625 26.75 C-8.44115234 27.11351562 -8.44115234 27.11351562 -9.84765625 27.484375 C-10.55792969 27.65453125 -11.26820312 27.8246875 -12 28 C-12.625 25.6875 -12.625 25.6875 -13 23 C-12.34 22.01 -11.68 21.02 -11 20 C-11 21.32 -11 22.64 -11 24 C-10.34 24 -9.68 24 -9 24 C-8.3185177 22.10820797 -8.3185177 22.10820797 -8 20 C-8.66 19.34 -9.32 18.68 -10 18 C-10.125 14.375 -10.125 14.375 -10 11 C-11.99863756 11.57944932 -11.99863756 11.57944932 -14 13 C-14.70381157 14.98723268 -15.3711811 16.98777953 -16 19 C-16.99 19.66 -17.98 20.32 -19 21 C-19.33 16.38 -19.66 11.76 -20 7 C-19.34 7 -18.68 7 -18 7 C-17.67 6.34 -17.34 5.68 -17 5 C-16.01 5.99 -15.02 6.98 -14 8 C-14 6.35 -14 4.7 -14 3 C-8.9399763 -0.03601422 -5.70860216 -0.14153559 0 0 Z " fill="#EF4316" transform="translate(72,67)"/>
<path d="M0 0 C0.99 0.66 1.98 1.32 3 2 C4.65549531 2.38499891 6.3222433 2.72793135 8 3 C7.67 5.64 7.34 8.28 7 11 C8.65 10.34 10.3 9.68 12 9 C12.4125 9.61875 12.825 10.2375 13.25 10.875 C15.09603601 13.11661515 16.4187471 13.7900377 19 15 C20.75 16.625 20.75 16.625 22 18 C20.02 18 18.04 18 16 18 C15.67 19.65 15.34 21.3 15 23 C10.545 21.02 10.545 21.02 6 19 C6.33 19.33 6.66 19.66 7 20 C6.01 22.475 6.01 22.475 5 25 C3.68 24.67 2.36 24.34 1 24 C0.34 24.99 -0.32 25.98 -1 27 C-0.85899143 24.72886197 -0.71203245 22.45809275 -0.5625 20.1875 C-0.48128906 18.92292969 -0.40007813 17.65835938 -0.31640625 16.35546875 C0 13 0 13 1 10 C1 8.68 1 7.36 1 6 C0.34 6 -0.32 6 -1 6 C-1.10957031 6.63808594 -1.21914063 7.27617187 -1.33203125 7.93359375 C-1.49058594 8.75988281 -1.64914063 9.58617187 -1.8125 10.4375 C-1.96332031 11.26121094 -2.11414063 12.08492187 -2.26953125 12.93359375 C-2.51058594 13.61550781 -2.75164063 14.29742187 -3 15 C-3.99 15.33 -4.98 15.66 -6 16 C-6.33 14.68 -6.66 13.36 -7 12 C-7.99 12.495 -7.99 12.495 -9 13 C-8.814375 12.38125 -8.62875 11.7625 -8.4375 11.125 C-7.76313824 8.95839822 -7.76313824 8.95839822 -9 7 C-8.2575 6.95875 -7.515 6.9175 -6.75 6.875 C-2.90448224 5.65142617 -1.95694517 3.40653418 0 0 Z " fill="#E2A477" transform="translate(29,21)"/>
<path d="M0 0 C0.99 0.33 1.98 0.66 3 1 C2.73227331 6.35453373 2.73227331 6.35453373 2 9 C0.7315625 9.8971875 0.7315625 9.8971875 -0.5625 10.8125 C-3.26910403 12.75913578 -3.26910403 12.75913578 -3.328125 15.68359375 C-3.31392221 18.4708913 -3.21557904 21.22142572 -3 24 C-2.34 24 -1.68 24 -1 24 C-1.875 28.75 -1.875 28.75 -3 31 C-1.35 30.67 0.3 30.34 2 30 C2.1799928 35.21979128 1.97094808 39.07262981 0 44 C-5.48846068 43.39017104 -5.48846068 43.39017104 -7.67211914 41.72460938 C-9.32489914 39.57803135 -9.39874022 38.40794498 -9.43359375 35.71875 C-9.44495361 34.88190674 -9.45631348 34.04506348 -9.46801758 33.18286133 C-9.45794678 32.29751709 -9.44787598 31.41217285 -9.4375 30.5 C-9.43065186 29.59596436 -9.42380371 28.69192871 -9.41674805 27.76049805 C-9.25133078 20.86439474 -8.21761805 15.16795792 -5 9 C-4.54496094 8.1234375 -4.08992187 7.246875 -3.62109375 6.34375 C-2.45879401 4.19796586 -1.25914493 2.08997417 0 0 Z " fill="#3D100B" transform="translate(9,18)"/>
<path d="M0 0 C-0.33 1.65 -0.66 3.3 -1 5 C-2.65 5 -4.3 5 -6 5 C-5.34 7.97 -4.68 10.94 -4 14 C-4.99 14 -5.98 14 -7 14 C-7.33 13.34 -7.66 12.68 -8 12 C-9.32 12.33 -10.64 12.66 -12 13 C-12.33 14.98 -12.66 16.96 -13 19 C-13.66 19 -14.32 19 -15 19 C-15 19.66 -15 20.32 -15 21 C-15.99 21 -16.98 21 -18 21 C-18 20.34 -18 19.68 -18 19 C-18.598125 18.896875 -19.19625 18.79375 -19.8125 18.6875 C-22.28243264 17.91123545 -23.32251235 16.92911079 -25 15 C-25.33 15.66 -25.66 16.32 -26 17 C-26 16.34 -26 15.68 -26 15 C-26.99 14.67 -27.98 14.34 -29 14 C-28.34 13.67 -27.68 13.34 -27 13 C-27.33 12.01 -27.66 11.02 -28 10 C-27.34 10 -26.68 10 -26 10 C-25.67 9.01 -25.34 8.02 -25 7 C-13.57142857 4.71428571 -13.57142857 4.71428571 -9 7 C-9 5.02 -9 3.04 -9 1 C-5.92677456 0.08941469 -3.19902639 -0.08886184 0 0 Z " fill="#F8E8B9" transform="translate(69,19)"/>
<path d="M0 0 C0.103125 0.639375 0.20625 1.27875 0.3125 1.9375 C0.6528125 2.9584375 0.6528125 2.9584375 1 4 C1.99 4.33 2.98 4.66 4 5 C3.01 5 2.02 5 1 5 C1.66 5.33 2.32 5.66 3 6 C3 7.98 3 9.96 3 12 C2.01 12.33 1.02 12.66 0 13 C0 10.36 0 7.72 0 5 C-0.66 5 -1.32 5 -2 5 C-1.95875 6.19625 -1.9175 7.3925 -1.875 8.625 C-1.86148292 12.42329953 -2.57990247 15.44975618 -4 19 C-4.66 19 -5.32 19 -6 19 C-6 19.66 -6 20.32 -6 21 C-8.475 20.01 -8.475 20.01 -11 19 C-11 18.01 -11 17.02 -11 16 C-11.99 15.34 -12.98 14.68 -14 14 C-14 13.34 -14 12.68 -14 12 C-16.31 11.67 -18.62 11.34 -21 11 C-20.67 9.35 -20.34 7.7 -20 6 C-17.33333333 7.33333333 -14.66666667 8.66666667 -12 10 C-12 8.35 -12 6.7 -12 5 C-11.01 5 -10.02 5 -9 5 C-9 4.01 -9 3.02 -9 2 C-2.25 0 -2.25 0 0 0 Z " fill="#872F21" transform="translate(34,62)"/>
<path d="M0 0 C1.60520004 0.06023265 3.20934327 0.14908599 4.8125 0.25 C6.15248047 0.31960937 6.15248047 0.31960937 7.51953125 0.390625 C10 1 10 1 11.85546875 2.8828125 C13 5 13 5 12.5 7.625 C10.6534166 10.54875705 9.28700992 11.09607227 6 12 C5.34 12 4.68 12 4 12 C3.957279 13.66611905 3.95936168 15.33382885 4 17 C4.33 17.33 4.66 17.66 5 18 C4.71269945 20.33944736 4.38063221 22.6739143 4 25 C3.01 25 2.02 25 1 25 C0.67 25.99 0.34 26.98 0 28 C-0.95619733 24.00204108 -1.1039592 20.29196078 -1.0625 16.1875 C-1.05347656 15.02605469 -1.04445313 13.86460938 -1.03515625 12.66796875 C-1.02355469 11.78753906 -1.01195313 10.90710937 -1 10 C-1.99 9.67 -2.98 9.34 -4 9 C-3.34 8.67 -2.68 8.34 -2 8 C-1.31527335 6.11235097 -1.31527335 6.11235097 -0.875 3.9375 C-0.70742187 3.20402344 -0.53984375 2.47054688 -0.3671875 1.71484375 C-0.24601562 1.14894531 -0.12484375 0.58304688 0 0 Z " fill="#985842" transform="translate(73,23)"/>
<path d="M0 0 C0.33 0 0.66 0 1 0 C1 1.65 1 3.3 1 5 C0.34 5 -0.32 5 -1 5 C-0.67 5.99 -0.34 6.98 0 8 C-2.64738916 9.4606285 -3.89448334 10 -7 10 C-7 10.66 -7 11.32 -7 12 C-10.63 12 -14.26 12 -18 12 C-18 11.34 -18 10.68 -18 10 C-22.52381127 7.95698846 -27.16371695 6.99043705 -32 6 C-28.12925738 2.12925738 -24.05055896 1.74522684 -18.81054688 1.7265625 C-17.69776367 1.73816406 -17.69776367 1.73816406 -16.5625 1.75 C-15.82451172 1.74226562 -15.08652344 1.73453125 -14.32617188 1.7265625 C-9.83450437 1.74253287 -6.2295533 2.31085985 -2 4 C-1.34 2.68 -0.68 1.36 0 0 Z " fill="#DFA978" transform="translate(66,9)"/>
<path d="M0 0 C1.35683751 1.6475884 2.68456721 3.31916921 4 5 C4.680625 5.8353125 5.36125 6.670625 6.0625 7.53125 C8.63280399 12.13292328 8.89456197 16.18412381 9.25 21.375 C9.36601563 22.76525391 9.36601563 22.76525391 9.484375 24.18359375 C9.67170461 26.45496532 9.8431091 28.72635753 10 31 C9.01 31 8.02 31 7 31 C7 27.7 7 24.4 7 21 C5.35 21 3.7 21 2 21 C-0.3125 19 -0.3125 19 -2 17 C-1.34 17 -0.68 17 0 17 C0.33 15.35 0.66 13.7 1 12 C-1.51083114 13.25541557 -1.87125446 14.50063488 -3 17 C-4.32 16.67 -5.64 16.34 -7 16 C-6.34 15.67 -5.68 15.34 -5 15 C-6.32 14.67 -7.64 14.34 -9 14 C-8.01 12.02 -7.02 10.04 -6 8 C-5.01 8 -4.02 8 -3 8 C-2.67 7.34 -2.34 6.68 -2 6 C-1.67 6.99 -1.34 7.98 -1 9 C-0.01 9 0.98 9 2 9 C1.67 8.443125 1.34 7.88625 1 7.3125 C-0.1309601 4.69715478 -0.15662974 2.8193354 0 0 Z " fill="#CD9776" transform="translate(63,24)"/>
<path d="M0 0 C1.32 0 2.64 0 4 0 C4 0.66 4 1.32 4 2 C6.97 2.495 6.97 2.495 10 3 C10 3.66 10 4.32 10 5 C6.88089144 6.79275866 4.32317572 7.34290718 0.75 7.625 C-0.14203125 7.69976563 -1.0340625 7.77453125 -1.953125 7.8515625 C-2.62859375 7.90054687 -3.3040625 7.94953125 -4 8 C-4.33 7.34 -4.66 6.68 -5 6 C-5.53625 6.99 -6.0725 7.98 -6.625 9 C-9 12 -9 12 -12.0625 12.5625 C-15 12 -15 12 -16.875 10.875 C-18.50531294 8.15781176 -18.33015665 6.10347254 -18 3 C-16 1 -16 1 -13.25 0.91796875 C-11.64125 1.05138672 -11.64125 1.05138672 -10 1.1875 C-8.39125 1.30158203 -8.39125 1.30158203 -6.75 1.41796875 C-4 2 -4 2 -2 5 C-1.34 3.35 -0.68 1.7 0 0 Z " fill="#D4A583" transform="translate(34,16)"/>
<path d="M0 0 C0.33 0 0.66 0 1 0 C1 3.63 1 7.26 1 11 C1.66 11.33 2.32 11.66 3 12 C2.01 12.33 1.02 12.66 0 13 C0 13.66 0 14.32 0 15 C1.32 15 2.64 15 4 15 C4.33 14.01 4.66 13.02 5 12 C5.83905565 13.12073862 6.67107831 14.24674547 7.5 15.375 C7.9640625 16.00148438 8.428125 16.62796875 8.90625 17.2734375 C10 19 10 19 10 21 C1.02703823 20.00750536 -8.52077342 16.47922658 -15 10 C-14.67 9.01 -14.34 8.02 -14 7 C-13.67 7.99 -13.34 8.98 -13 10 C-9.27385847 8.88145414 -9.27385847 8.88145414 -7 6 C-5.68 6.66 -4.36 7.32 -3 8 C-3 7.34 -3 6.68 -3 6 C-2.34 5.67 -1.68 5.34 -1 5 C-0.34444881 2.47266765 -0.34444881 2.47266765 0 0 Z " fill="#BF5132" transform="translate(31,75)"/>
<path d="M0 0 C0.66 0 1.32 0 2 0 C1.67 1.65 1.34 3.3 1 5 C0.34 5 -0.32 5 -1 5 C-1 5.66 -1 6.32 -1 7 C-2.32 7.33 -3.64 7.66 -5 8 C-5.33 9.32 -5.66 10.64 -6 12 C-6.28875 11.360625 -6.5775 10.72125 -6.875 10.0625 C-7.82823451 7.84793921 -7.82823451 7.84793921 -10 7 C-10.33 7.66 -10.66 8.32 -11 9 C-11 8.34 -11 7.68 -11 7 C-12.32 7 -13.64 7 -15 7 C-15 7.66 -15 8.32 -15 9 C-15.99 9 -16.98 9 -18 9 C-18 9.66 -18 10.32 -18 11 C-23.47619048 16 -23.47619048 16 -26 16 C-26.33 16.66 -26.66 17.32 -27 18 C-28.32 17.67 -29.64 17.34 -31 17 C-30.67 15.68 -30.34 14.36 -30 13 C-29.67 13.33 -29.34 13.66 -29 14 C-28.67 13.34 -28.34 12.68 -28 12 C-28.66 11.67 -29.32 11.34 -30 11 C-29.195625 10.7525 -28.39125 10.505 -27.5625 10.25 C-24.828919 9.27761141 -24.828919 9.27761141 -24.1875 6.875 C-24.125625 6.25625 -24.06375 5.6375 -24 5 C-21.525 5.99 -21.525 5.99 -19 7 C-19 6.34 -19 5.68 -19 5 C-18.34 5 -17.68 5 -17 5 C-17 4.34 -17 3.68 -17 3 C-16.41992188 3.01160156 -15.83984375 3.02320313 -15.2421875 3.03515625 C-10.71292612 3.08747445 -6.4463058 3.00041881 -2 2 C-1.67 1.67 -1.34 1.34 -1 1 C-0.67 0.67 -0.34 0.34 0 0 Z " fill="#884232" transform="translate(62,36)"/>
<path d="M0 0 C7.42857143 -0.14285714 7.42857143 -0.14285714 11 1 C11 1.66 11 2.32 11 3 C10.01 3.33 9.02 3.66 8 4 C7.67 4.99 7.34 5.98 7 7 C9.97 7.495 9.97 7.495 13 8 C12.67 8.66 12.34 9.32 12 10 C11.01 10.33 10.02 10.66 9 11 C9.99 12.485 9.99 12.485 11 14 C10.01 14.33 9.02 14.66 8 15 C7.67 17.64 7.34 20.28 7 23 C5.68 23 4.36 23 3 23 C-1 18.77777778 -1 18.77777778 -1 16 C0.65 15.34 2.3 14.68 4 14 C4 12.68 4 11.36 4 10 C2.68 9.34 1.36 8.68 0 8 C0 7.34 0 6.68 0 6 C0.66 6 1.32 6 2 6 C1.34 5.01 0.68 4.02 0 3 C0 2.01 0 1.02 0 0 Z " fill="#501A0F" transform="translate(65,8)"/>
<path d="M0 0 C0.99 0.66 1.98 1.32 3 2 C3 3.32 3 4.64 3 6 C0.83125748 5.49396008 -0.99967627 5.00016187 -3 4 C-3.99 4.33 -4.98 4.66 -6 5 C-6 5.66 -6 6.32 -6 7 C-4.865625 7.12375 -3.73125 7.2475 -2.5625 7.375 C-1.386875 7.58125 -0.21125 7.7875 1 8 C1.33 8.66 1.66 9.32 2 10 C4.01669827 11.13350534 4.01669827 11.13350534 6 12 C5.34 12 4.68 12 4 12 C4 13.65 4 15.3 4 17 C2.35 17.66 0.7 18.32 -1 19 C-1.33 18.34 -1.66 17.68 -2 17 C-2.66 17.33 -3.32 17.66 -4 18 C-4 15.69 -4 13.38 -4 11 C-4.9590625 10.8453125 -4.9590625 10.8453125 -5.9375 10.6875 C-6.618125 10.460625 -7.29875 10.23375 -8 10 C-8.33 9.01 -8.66 8.02 -9 7 C-9.33 7 -9.66 7 -10 7 C-10 5.35 -10 3.7 -10 2 C-6.38026598 0.68373308 -3.90432869 0 0 0 Z " fill="#EE8A4F" transform="translate(19,66)"/>
<path d="M0 0 C1.875 2 1.875 2 3 4 C1.50198648 7.61477175 -0.57537417 9.68620463 -3.5 12.25 C-4.2940625 12.95640625 -5.088125 13.6628125 -5.90625 14.390625 C-8 16 -8 16 -10 16 C-10.1080023 13.89695523 -10.18558987 11.79233091 -10.25 9.6875 C-10.31960937 7.92986328 -10.31960937 7.92986328 -10.390625 6.13671875 C-10 3 -10 3 -8.17578125 1.109375 C-5.21793416 -0.39875529 -3.27241043 -0.48738028 0 0 Z " fill="#B37854" transform="translate(83,73)"/>
<path d="M0 0 C0.99 0.495 0.99 0.495 2 1 C2.625 3.5625 2.625 3.5625 3 6 C3.66 6 4.32 6 5 6 C5.33 5.34 5.66 4.68 6 4 C7.65 4 9.3 4 11 4 C11.1799928 9.21979128 10.97094808 13.07262981 9 18 C3.62068966 17.40229885 3.62068966 17.40229885 1.3125 15.90625 C-0.71958131 12.95489381 -0.28445643 10.33525011 -0.1875 6.8125 C-0.16042969 5.54019531 -0.13335938 4.26789062 -0.10546875 2.95703125 C-0.07066406 1.98121094 -0.03585937 1.00539062 0 0 Z " fill="#771808" transform="translate(0,44)"/>
<path d="M0 0 C1 2 1 2 1 6 C3.475 6.99 3.475 6.99 6 8 C5.67386719 8.47308594 5.34773438 8.94617187 5.01171875 9.43359375 C1.71454814 14.42311741 -0.36458649 19.25610865 -2 25 C-3.32 24.34 -4.64 23.68 -6 23 C-6 22.01 -6 21.02 -6 20 C-6.99 20.33 -7.98 20.66 -9 21 C-9.125 17.625 -9.125 17.625 -9 14 C-7 12 -7 12 -4.375 11.875 C-3.59125 11.91625 -2.8075 11.9575 -2 12 C-1.93941406 11.21753906 -1.87882813 10.43507813 -1.81640625 9.62890625 C-1.73261719 8.61699219 -1.64882812 7.60507812 -1.5625 6.5625 C-1.48128906 5.55316406 -1.40007813 4.54382813 -1.31640625 3.50390625 C-1 1 -1 1 0 0 Z " fill="#AA341A" transform="translate(14,22)"/>
<path d="M0 0 C0.4125 0.474375 0.825 0.94875 1.25 1.4375 C3.182185 3.16266518 4.48192275 3.56584875 7 4 C7 5.98 7 7.96 7 10 C6.34 10 5.68 10 5 10 C4.67 10.99 4.34 11.98 4 13 C2.68 13 1.36 13 0 13 C0.33 14.65 0.66 16.3 1 18 C-0.98 18.33 -2.96 18.66 -5 19 C-5.66 16.69 -6.32 14.38 -7 12 C-6.01 12.33 -5.02 12.66 -4 13 C-3.87882812 12.22914062 -3.75765625 11.45828125 -3.6328125 10.6640625 C-3.46523438 9.66117188 -3.29765625 8.65828125 -3.125 7.625 C-2.96257813 6.62726562 -2.80015625 5.62953125 -2.6328125 4.6015625 C-2 2 -2 2 0 0 Z " fill="#FABE77" transform="translate(22,44)"/>
<path d="M0 0 C-0.33 1.65 -0.66 3.3 -1 5 C-2.65 5 -4.3 5 -6 5 C-5.34 7.97 -4.68 10.94 -4 14 C-4.99 14 -5.98 14 -7 14 C-7.33 13.34 -7.66 12.68 -8 12 C-9.32 12.33 -10.64 12.66 -12 13 C-12 13.66 -12 14.32 -12 15 C-13.65 15 -15.3 15 -17 15 C-17 14.01 -17 13.02 -17 12 C-16.34 12 -15.68 12 -15 12 C-15 11.34 -15 10.68 -15 10 C-16.65 9.67 -18.3 9.34 -20 9 C-16.36576791 6.67409146 -13.22911669 6.83734167 -9 7 C-9 5.02 -9 3.04 -9 1 C-5.92677456 0.08941469 -3.19902639 -0.08886184 0 0 Z " fill="#EFD9B2" transform="translate(69,19)"/>
<path d="M0 0 C6 2 6 2 7.375 4.75 C8.33589395 9.74664854 8.73651431 13.55316424 6 18 C4.02 18 2.04 18 0 18 C0 12.06 0 6.12 0 0 Z " fill="#FCB280" transform="translate(76,50)"/>
<path d="M0 0 C-0.33 5.61 -0.66 11.22 -1 17 C-1.33 15.68 -1.66 14.36 -2 13 C-2.99 13 -3.98 13 -5 13 C-5.33 13.66 -5.66 14.32 -6 15 C-6.33 13.02 -6.66 11.04 -7 9 C-7.99 8.67 -8.98 8.34 -10 8 C-10.33 8.66 -10.66 9.32 -11 10 C-11 7.03 -11 4.06 -11 1 C-8 0 -8 0 0 0 Z " fill="#F1441B" transform="translate(72,67)"/>
<path d="M0 0 C1.98 0.66 3.96 1.32 6 2 C6.25 7.625 6.25 7.625 4 11 C3.01 11.495 3.01 11.495 2 12 C2.66 13.98 3.32 15.96 4 18 C3.34 18.33 2.68 18.66 2 19 C1.34 18.67 0.68 18.34 0 18 C0 18.66 0 19.32 0 20 C-0.99 20 -1.98 20 -3 20 C-4.13835673 15.21890172 -3.67624234 12.56310414 -2 8 C-1.65596692 5.66822025 -1.32050798 3.33512959 -1 1 C-0.67 0.67 -0.34 0.34 0 0 Z " fill="#FACB94" transform="translate(14,46)"/>
<path d="M0 0 C0.99 0.66 1.98 1.32 3 2 C4.65 2.33 6.3 2.66 8 3 C7.34 6.3 6.68 9.6 6 13 C5.67 12.34 5.34 11.68 5 11 C2.97536745 10.34786708 2.97536745 10.34786708 1 10 C1 8.68 1 7.36 1 6 C0.34 6 -0.32 6 -1 6 C-1.10957031 6.63808594 -1.21914063 7.27617187 -1.33203125 7.93359375 C-1.49058594 8.75988281 -1.64914063 9.58617187 -1.8125 10.4375 C-1.96332031 11.26121094 -2.11414063 12.08492187 -2.26953125 12.93359375 C-2.51058594 13.61550781 -2.75164063 14.29742187 -3 15 C-3.99 15.33 -4.98 15.66 -6 16 C-6.33 14.68 -6.66 13.36 -7 12 C-7.99 12.495 -7.99 12.495 -9 13 C-8.814375 12.38125 -8.62875 11.7625 -8.4375 11.125 C-7.76313824 8.95839822 -7.76313824 8.95839822 -9 7 C-8.2575 6.95875 -7.515 6.9175 -6.75 6.875 C-2.90448224 5.65142617 -1.95694517 3.40653418 0 0 Z " fill="#C28D6A" transform="translate(29,21)"/>
<path d="M0 0 C2.1875 0.3125 2.1875 0.3125 4 1 C3.67 1.33 3.34 1.66 3 2 C6.34252724 2.07427838 8.8035914 2.06546953 12 1 C12 1.66 12 2.32 12 3 C12.99 3 13.98 3 15 3 C14.67 3.66 14.34 4.32 14 5 C13.34 5 12.68 5 12 5 C12.33 6.32 12.66 7.64 13 9 C13.66 9 14.32 9 15 9 C14.67 9.99 14.34 10.98 14 12 C14 11.34 14 10.68 14 10 C9.17639811 9.80705592 5.50353262 10.24252386 1 12 C1 10 1 10 3 8 C1.68 7.67 0.36 7.34 -1 7 C-1 6.01 -1 5.02 -1 4 C-1.66 3.67 -2.32 3.34 -3 3 C-1.75 1.4375 -1.75 1.4375 0 0 Z " fill="#90392C" transform="translate(45,49)"/>
<path d="M0 0 C1.32 0.66 2.64 1.32 4 2 C4 3.65 4 5.3 4 7 C3.360625 7.268125 2.72125 7.53625 2.0625 7.8125 C-0.33131686 8.88667752 -0.33131686 8.88667752 -1 12 C-1.33 11.67 -1.66 11.34 -2 11 C-2.33 11.99 -2.66 12.98 -3 14 C-2.38125 14.061875 -1.7625 14.12375 -1.125 14.1875 C1 15 1 15 2.3125 17.3125 C3.019574 20.07651653 2.97533063 21.36660729 2 24 C1.34 23.34 0.68 22.68 0 22 C0 20.68 0 19.36 0 18 C-2.16352397 18.81880887 -2.16352397 18.81880887 -2.875 20.9375 C-4.24628053 23.4515143 -5.4839253 23.7825445 -8 25 C-8.33 25.99 -8.66 26.98 -9 28 C-9.66 28 -10.32 28 -11 28 C-10.67 26.35 -10.34 24.7 -10 23 C-9.01 22.67 -8.02 22.34 -7 22 C-5.78130071 19.49552484 -5.78130071 19.49552484 -5 17 C-4.34 17 -3.68 17 -3 17 C-3.66 16.01 -4.32 15.02 -5 14 C-5.25760279 11.30547479 -5.08900053 8.71451625 -5 6 C-2 6 -2 6 0 7 C0.59070014 5.05396726 0.59070014 5.05396726 1 3 C0.67 2.67 0.34 2.34 0 2 C0 1.34 0 0.68 0 0 Z " fill="#E36A36" transform="translate(34,39)"/>
<path d="M0 0 C0.33 0 0.66 0 1 0 C1 1.65 1 3.3 1 5 C0.34 5 -0.32 5 -1 5 C-0.67 5.99 -0.34 6.98 0 8 C-2.64738916 9.4606285 -3.89448334 10 -7 10 C-7.33 10.66 -7.66 11.32 -8 12 C-8 11.34 -8 10.68 -8 10 C-10.97 9.505 -10.97 9.505 -14 9 C-14.38133299 7.0085944 -14.71325582 5.00720923 -15 3 C-14 2 -14 2 -11.3125 1.8125 C-7.87374757 2.00714636 -5.20497153 2.77905847 -2 4 C-1.34 2.68 -0.68 1.36 0 0 Z " fill="#E5B586" transform="translate(66,9)"/>
<path d="M0 0 C0.33 0 0.66 0 1 0 C1 2.31 1 4.62 1 7 C1.969375 6.979375 2.93875 6.95875 3.9375 6.9375 C7 7 7 7 8 8 C8.04080783 9.99958364 8.04254356 12.00045254 8 14 C7.34 14 6.68 14 6 14 C6 14.66 6 15.32 6 16 C3.525 15.01 3.525 15.01 1 14 C1 13.01 1 12.02 1 11 C0.01 10.34 -0.98 9.68 -2 9 C-2 8.34 -2 7.68 -2 7 C-4.31 6.67 -6.62 6.34 -9 6 C-8.67 4.35 -8.34 2.7 -8 1 C-5.33333333 2.33333333 -2.66666667 3.66666667 0 5 C0 3.35 0 1.7 0 0 Z " fill="#A01C12" transform="translate(22,67)"/>
<path d="M0 0 C0.33 1.65 0.66 3.3 1 5 C-2.30994713 6.65497356 -5.99123 6.10084335 -9.625 6.0625 C-10.42679688 6.05798828 -11.22859375 6.05347656 -12.0546875 6.04882812 C-14.03649006 6.03703168 -16.01825433 6.01909605 -18 6 C-19.0625 4.125 -19.0625 4.125 -20 2 C-19.67 1.34 -19.34 0.68 -19 0 C-17 0 -17 0 -15 1.9375 C-14.01 2.9584375 -14.01 2.9584375 -13 4 C-12.34 4.33 -11.68 4.66 -11 5 C-11.33 4.01 -11.66 3.02 -12 2 C-7.72424275 -1.23921004 -5.16347713 -1.11369115 0 0 Z " fill="#7C1F0D" transform="translate(59,90)"/>
<path d="M0 0 C2.31 0 4.62 0 7 0 C7.66 1.32 8.32 2.64 9 4 C9.33 3.01 9.66 2.02 10 1 C12.0625 0.3125 12.0625 0.3125 14 0 C14.625 2.8125 14.625 2.8125 15 6 C14.01 7.485 14.01 7.485 13 9 C12.38125 8.814375 11.7625 8.62875 11.125 8.4375 C8.95839822 7.76313824 8.95839822 7.76313824 7 9 C4.3276379 9.13415472 1.67749512 9.04318541 -1 9 C0.375 7 0.375 7 2 5 C2.66 5 3.32 5 4 5 C3.73323796 3.01508358 3.73323796 3.01508358 3 1 C2.01 0.67 1.02 0.34 0 0 Z " fill="#7D291D" transform="translate(47,43)"/>
<path d="M0 0 C1.4375 1.875 1.4375 1.875 3 4.5 C4.21662906 6.98690375 4.21662906 6.98690375 6.4375 7.875 C6.4375 9.525 6.4375 11.175 6.4375 12.875 C5.7775 12.545 5.1175 12.215 4.4375 11.875 C4.4375 11.215 4.4375 10.555 4.4375 9.875 C3.344375 9.895625 2.25125 9.91625 1.125 9.9375 C-2.5625 9.875 -2.5625 9.875 -5.5625 8.875 C-6.6875 3.25 -6.6875 3.25 -5.5625 -0.125 C-3.17368412 -1.23978074 -2.19103725 -1.57754682 0 0 Z " fill="#631C0F" transform="translate(25.5625,8.125)"/>
<path d="M0 0 C3.71489368 0.61469464 6.84694062 1.64016952 10.25 3.25 C11.55710937 3.84554687 11.55710937 3.84554687 12.890625 4.453125 C15 6 15 6 15.796875 8.671875 C15.89742187 9.82429688 15.89742187 9.82429688 16 11 C15.01 11.66 14.02 12.32 13 13 C12.34 11.35 11.68 9.7 11 8 C10.01 8.495 10.01 8.495 9 9 C7.12137125 8.91255632 5.24544819 8.75824458 3.375 8.5625 C2.37210938 8.46066406 1.36921875 8.35882813 0.3359375 8.25390625 C-0.43492188 8.17011719 -1.20578125 8.08632813 -2 8 C-2 7.01 -2 6.02 -2 5 C0.97 5.495 0.97 5.495 4 6 C3.67 5.67 3.34 5.34 3 5 C2.855625 4.34 2.71125 3.68 2.5625 3 C2.376875 2.34 2.19125 1.68 2 1 C1.34 0.67 0.68 0.34 0 0 Z " fill="#792B20" transform="translate(55,53)"/>
<path d="M0 0 C3.875 1.75 3.875 1.75 5 4 C5.928125 4.4640625 5.928125 4.4640625 6.875 4.9375 C9.05810535 6.02905268 10.37010468 7.20711515 12 9 C10.02 9 8.04 9 6 9 C5.67 10.65 5.34 12.3 5 14 C2.5 12.625 2.5 12.625 0 11 C0 10.34 0 9.68 0 9 C-1.32 8.34 -2.64 7.68 -4 7 C-4 6.34 -4 5.68 -4 5 C-3.01 5 -2.02 5 -1 5 C-0.67 3.35 -0.34 1.7 0 0 Z " fill="#D39F75" transform="translate(39,30)"/>
<path d="M0 0 C1.32 0.66 2.64 1.32 4 2 C3.67 3.32 3.34 4.64 3 6 C2.01 6 1.02 6 0 6 C0.33 7.32 0.66 8.64 1 10 C-0.65 10.66 -2.3 11.32 -4 12 C-3.87625 13.1446875 -3.87625 13.1446875 -3.75 14.3125 C-4 17 -4 17 -5.75 18.75 C-7.87389833 19.92994352 -9.61982989 20.57496962 -12 21 C-12 18.69 -12 16.38 -12 14 C-11.67 14.66 -11.34 15.32 -11 16 C-10.34 16 -9.68 16 -9 16 C-9 13.03 -9 10.06 -9 7 C-8.67 7 -8.34 7 -8 7 C-8 10.3 -8 13.6 -8 17 C-7.34 17 -6.68 17 -6 17 C-5.67 14.69 -5.34 12.38 -5 10 C-4.01 10 -3.02 10 -2 10 C-2 9.34 -2 8.68 -2 8 C-2.99 7.67 -3.98 7.34 -5 7 C-4.34 7 -3.68 7 -3 7 C-3 5.35 -3 3.7 -3 2 C-2.67 2.66 -2.34 3.32 -2 4 C-1.34 4 -0.68 4 0 4 C0 2.68 0 1.36 0 0 Z " fill="#DA341A" transform="translate(52,68)"/>
<path d="M0 0 C2.4375 1 2.4375 1 4 2 C3.01 2.33 2.02 2.66 1 3 C-0.70855022 6.00007271 -0.70855022 6.00007271 -2 9 C-2.66 9 -3.32 9 -4 9 C-4.309375 8.360625 -4.61875 7.72125 -4.9375 7.0625 C-5.8345163 5.06389179 -5.8345163 5.06389179 -7 4 C-7.33 4.66 -7.66 5.32 -8 6 C-8.66 6 -9.32 6 -10 6 C-10.33 6.99 -10.66 7.98 -11 9 C-12.32 9 -13.64 9 -15 9 C-15.33 7.35 -15.66 5.7 -16 4 C-14.6078125 3.566875 -14.6078125 3.566875 -13.1875 3.125 C-3.61463415 -0.25365854 -3.61463415 -0.25365854 0 0 Z " fill="#B72917" transform="translate(60,66)"/>
<path d="M0 0 C2 3 2 3 2 6 C-4.13018106 6.95784079 -9.81959734 6.97547621 -16 6.5625 C-16.87011719 6.51029297 -17.74023438 6.45808594 -18.63671875 6.40429688 C-20.75821809 6.27607439 -22.87917725 6.1389652 -25 6 C-25 5.01 -25 4.02 -25 3 C-23.04707031 3.05220703 -23.04707031 3.05220703 -21.0546875 3.10546875 C-19.32813796 3.13361901 -17.60157439 3.16091784 -15.875 3.1875 C-15.0190625 3.21263672 -14.163125 3.23777344 -13.28125 3.26367188 C-8.05384474 3.32398809 -4.56718676 2.85261993 0 0 Z " fill="#2B0703" transform="translate(66,60)"/>
<path d="M0 0 C0.28488281 0.58136719 0.56976563 1.16273437 0.86328125 1.76171875 C1.57295983 3.15912709 2.31558387 4.54084161 3.10546875 5.89453125 C5.86489852 10.78579485 6.36538685 13.53845261 5 19 C4.01 19 3.02 19 2 19 C1.67 19.99 1.34 20.98 1 22 C0.04380267 18.00204108 -0.1039592 14.29196078 -0.0625 10.1875 C-0.05347656 9.02605469 -0.04445313 7.86460938 -0.03515625 6.66796875 C-0.02355469 5.78753906 -0.01195313 4.90710937 0 4 C-0.99 3.67 -1.98 3.34 -3 3 C-2.01 2.01 -1.02 1.02 0 0 Z " fill="#F7C095" transform="translate(72,29)"/>
<path d="M0 0 C3.08089673 2.77280706 4.68775452 5.06326356 6 9 C0.19834261 8.02541328 -4.83982722 6.98746845 -10 4 C-8.6875 2.5 -8.6875 2.5 -7 1 C-6.01 1 -5.02 1 -4 1 C-4 1.66 -4 2.32 -4 3 C-2.68 3 -1.36 3 0 3 C0 2.01 0 1.02 0 0 Z " fill="#D55421" transform="translate(35,87)"/>
<path d="M0 0 C0.66 0 1.32 0 2 0 C3.53690745 2.41040161 4.09752136 3.50082285 3.5390625 6.359375 C3.23742187 7.14828125 2.93578125 7.9371875 2.625 8.75 C2.18027344 9.94882812 2.18027344 9.94882812 1.7265625 11.171875 C1.36691406 12.07679687 1.36691406 12.07679687 1 13 C-2.31467895 11.46593371 -4.03944771 10.13688367 -6 7 C-6 6.34 -6 5.68 -6 5 C-5.195625 4.731875 -4.39125 4.46375 -3.5625 4.1875 C-2.716875 3.795625 -1.87125 3.40375 -1 3 C-0.67 2.01 -0.34 1.02 0 0 Z " fill="#6D453B" transform="translate(70,19)"/>
<path d="M0 0 C0 3.13694823 -0.42260863 5.96939343 -0.9375 9.0625 C-1.11152344 10.12597656 -1.28554688 11.18945312 -1.46484375 12.28515625 C-2 15 -2 15 -3 17 C-2.34 17 -1.68 17 -1 17 C-1 17.66 -1 18.32 -1 19 C-2.65 18.67 -4.3 18.34 -6 18 C-7.08285493 14.10172227 -6.96023435 12.48486107 -5 9 C-4.87625 8.175 -4.7525 7.35 -4.625 6.5 C-3.84117379 3.36469517 -2.40057983 2.09082759 0 0 Z " fill="#F4C394" transform="translate(21,29)"/>
<path d="M0 0 C4 2 4 2 5 4 C5.039992 5.99960012 5.04346799 8.00047242 5 10 C4.01 9.01 3.02 8.02 2 7 C2 8.65 2 10.3 2 12 C2.99 12.33 3.98 12.66 5 13 C5 13.66 5 14.32 5 15 C4.43796875 14.83628906 3.8759375 14.67257813 3.296875 14.50390625 C0.86940944 13.97135003 -1.26889681 13.90101319 -3.75 13.9375 C-4.94882813 13.95103516 -4.94882813 13.95103516 -6.171875 13.96484375 C-6.77515625 13.97644531 -7.3784375 13.98804687 -8 14 C-7.67 13.34 -7.34 12.68 -7 12 C-4.67843403 11.59270772 -2.3431213 11.25561323 0 11 C0 7.37 0 3.74 0 0 Z " fill="#994839" transform="translate(85,56)"/>
<path d="M0 0 C2.475 0.99 2.475 0.99 5 2 C4.01 2.66 3.02 3.32 2 4 C1.7497843 7.08365871 1.7497843 7.08365871 2 10 C1.360625 10.12375 0.72125 10.2475 0.0625 10.375 C-0.618125 10.58125 -1.29875 10.7875 -2 11 C-2.33 11.66 -2.66 12.32 -3 13 C-4.32 12.67 -5.64 12.34 -7 12 C-6.67 10.68 -6.34 9.36 -6 8 C-5.67 8.33 -5.34 8.66 -5 9 C-4.67 8.34 -4.34 7.68 -4 7 C-4.66 6.67 -5.32 6.34 -6 6 C-5.195625 5.7525 -4.39125 5.505 -3.5625 5.25 C-0.828919 4.27761141 -0.828919 4.27761141 -0.1875 1.875 C-0.125625 1.25625 -0.06375 0.6375 0 0 Z " fill="#9A4C35" transform="translate(38,41)"/>
<path d="M0 0 C0.33 1.65 0.66 3.3 1 5 C1.66 5 2.32 5 3 5 C2.45276317 8.37462715 1.9451 10.08235 0 13 C-0.66 13 -1.32 13 -2 13 C-4.41685712 8.77050005 -5.34833144 5.87664009 -5 1 C-1.125 0 -1.125 0 0 0 Z " fill="#601107" transform="translate(5,37)"/>
<path d="M0 0 C-2.46542986 2.46542986 -3.89290254 2.2600215 -7.26367188 2.2734375 C-7.93978516 2.26570313 -8.61589844 2.25796875 -9.3125 2.25 C-10.62863281 2.25515625 -11.94476563 2.2603125 -13.30078125 2.265625 C-16.70204521 2.02139485 -18.96426305 1.47970157 -22 0 C-22 -0.33 -22 -0.66 -22 -1 C-13.81368874 -3.20096183 -7.96889529 -2.86695266 0 0 Z " fill="#5E2017" transform="translate(62,62)"/>
<path d="M0 0 C2.4375 1 2.4375 1 4 2 C2.92598892 4.91517292 2.22189824 6.77810176 0 9 C-0.556875 8.195625 -1.11375 7.39125 -1.6875 6.5625 C-4.21864487 3.75771784 -5.32579134 3.30618405 -9 3 C-9 2.34 -9 1.68 -9 1 C-5.97562661 -0.5121867 -3.33758466 -0.17263369 0 0 Z " fill="#611D15" transform="translate(86,69)"/>
<path d="M0 0 C3 2 3 2 3.8125 5 C3.874375 5.99 3.93625 6.98 4 8 C3.34 8.66 2.68 9.32 2 10 C1.01 10 0.02 10 -1 10 C-1.33 8.68 -1.66 7.36 -2 6 C-2.99 6.66 -3.98 7.32 -5 8 C-7.6875 8.125 -7.6875 8.125 -10 8 C-9.38125 7.5875 -8.7625 7.175 -8.125 6.75 C-5.93231719 4.94426121 -5.07211583 3.5909466 -4 1 C-3.34 1 -2.68 1 -2 1 C-1.34 1.99 -0.68 2.98 0 4 C0 2.68 0 1.36 0 0 Z " fill="#B53812" transform="translate(36,56)"/>
<path d="M0 0 C1.98 0 3.96 0 6 0 C6.25 3.3125 6.25 3.3125 6 7 C4.1875 8.9375 4.1875 8.9375 2 10 C1.01 10 0.02 10 -1 10 C-1.125 2.25 -1.125 2.25 0 0 Z " fill="#D9332A" transform="translate(33,76)"/>
<path d="M0 0 C0.33 0 0.66 0 1 0 C1 4.62 1 9.24 1 14 C-0.98 14 -2.96 14 -5 14 C-5.33 14.66 -5.66 15.32 -6 16 C-6 12.37 -6 8.74 -6 5 C-5.34 5 -4.68 5 -4 5 C-4 7.64 -4 10.28 -4 13 C-3.34 12.34 -2.68 11.68 -2 11 C-2.33 11 -2.66 11 -3 11 C-3 9.02 -3 7.04 -3 5 C-2.01 5 -1.02 5 0 5 C0 3.35 0 1.7 0 0 Z " fill="#861107" transform="translate(38,62)"/>
<path d="M0 0 C1.32 0 2.64 0 4 0 C4 0.66 4 1.32 4 2 C6.97 2.495 6.97 2.495 10 3 C10 3.66 10 4.32 10 5 C6.36576791 7.32590854 3.22911669 7.16265833 -1 7 C-1.04254356 5.00045254 -1.04080783 2.99958364 -1 1 C-0.67 0.67 -0.34 0.34 0 0 Z " fill="#F7E3B8" transform="translate(34,16)"/>
<path d="M0 0 C0.99 0.33 1.98 0.66 3 1 C3.33 1.99 3.66 2.98 4 4 C4.66 4.33 5.32 4.66 6 5 C6.625 7.0625 6.625 7.0625 7 9 C7.66 9 8.32 9 9 9 C9 10.98 9 12.96 9 15 C4.11133116 11.44460448 0.87660209 7.86276377 -1 2 C-0.67 1.34 -0.34 0.68 0 0 Z " fill="#CC7548" transform="translate(6,68)"/>
<path d="M0 0 C0 3.63 0 7.26 0 11 C-1.65 11 -3.3 11 -5 11 C-5.33 8.03 -5.66 5.06 -6 2 C-1.125 0 -1.125 0 0 0 Z " fill="#FCC38B" transform="translate(28,37)"/>
<path d="M0 0 C1.485 0.99 1.485 0.99 3 2 C4.65 2.33 6.3 2.66 8 3 C7.34 6.3 6.68 9.6 6 13 C5.67 12.34 5.34 11.68 5 11 C3.68 10.67 2.36 10.34 1 10 C0.67 6.7 0.34 3.4 0 0 Z " fill="#A76D4C" transform="translate(29,21)"/>
<path d="M0 0 C0.66 0.99 1.32 1.98 2 3 C1.34 3 0.68 3 0 3 C-0.12117187 4.02480469 -0.24234375 5.04960938 -0.3671875 6.10546875 C-0.53610459 7.46618979 -0.7053952 8.8268645 -0.875 10.1875 C-0.95363281 10.86103516 -1.03226563 11.53457031 -1.11328125 12.22851562 C-1.60471413 16.10327484 -2.35980901 19.45084723 -4 23 C-4.66 22.67 -5.32 22.34 -6 22 C-5.34 18.7 -4.68 15.4 -4 12 C-5.65 12.33 -7.3 12.66 -9 13 C-8.34 11.68 -7.68 10.36 -7 9 C-6.01 9 -5.02 9 -4 9 C-2.68 6.03 -1.36 3.06 0 0 Z " fill="#C7795C" transform="translate(15,36)"/>
<path d="M0 0 C0.33 0 0.66 0 1 0 C1.66 6.6 2.32 13.2 3 20 C2.01 20 1.02 20 0 20 C0 16.7 0 13.4 0 10 C-1.65 10 -3.3 10 -5 10 C-5.66 9.01 -6.32 8.02 -7 7 C-5.35 6.34 -3.7 5.68 -2 5 C-2 5.66 -2 6.32 -2 7 C-1.34 4.69 -0.68 2.38 0 0 Z " fill="#B5674B" transform="translate(70,35)"/>
<path d="M0 0 C0.99 0 1.98 0 3 0 C3 0.99 3 1.98 3 3 C3.66 3 4.32 3 5 3 C5 3.99 5 4.98 5 6 C4.34 6 3.68 6 3 6 C3 7.32 3 8.64 3 10 C1.35 10 -0.3 10 -2 10 C-2 7.69 -2 5.38 -2 3 C-1.34 3 -0.68 3 0 3 C0 2.01 0 1.02 0 0 Z " fill="#3E0602" transform="translate(25,64)"/>
<path d="M0 0 C0.66 0 1.32 0 2 0 C1.67 1.65 1.34 3.3 1 5 C0.34 5 -0.32 5 -1 5 C-1 5.66 -1 6.32 -1 7 C-2.65 7.33 -4.3 7.66 -6 8 C-6.33 7.34 -6.66 6.68 -7 6 C-9.31 6 -11.62 6 -14 6 C-14 5.34 -14 4.68 -14 4 C-14.66 3.67 -15.32 3.34 -16 3 C-14.80375 3.020625 -13.6075 3.04125 -12.375 3.0625 C-8.81828526 3.0625 -5.48669507 2.76537209 -2 2 C-1.67 1.67 -1.34 1.34 -1 1 C-0.67 0.67 -0.34 0.34 0 0 Z " fill="#9E5D45" transform="translate(62,36)"/>
<path d="M0 0 C1.76462683 3.08809695 2 4.23312136 2 8 C-0.25 9.125 -0.25 9.125 -3 10 C-5.171875 9.0546875 -5.171875 9.0546875 -7 8 C-6.02133662 6.85373678 -5.04205413 5.70800212 -4.0625 4.5625 C-3.51722656 3.92441406 -2.97195312 3.28632813 -2.41015625 2.62890625 C-1.63204305 1.73008851 -0.84063472 0.84063472 0 0 Z " fill="#46150F" transform="translate(18,9)"/>
<path d="M0 0 C1.33895632 1.66215268 2.67130142 3.32963607 4 5 C4.5775 5.61875 5.155 6.2375 5.75 6.875 C7.58241777 9.99011021 7.32190405 12.45905542 7 16 C6.34 16.99 5.68 17.98 5 19 C2.8614515 16.8614515 2.57344937 15.86724686 2 13 C2.66 12.67 3.32 12.34 4 12 C4 12.66 4 13.32 4 14 C4.66 14.33 5.32 14.66 6 15 C5.67 13.35 5.34 11.7 5 10 C4.01 10 3.02 10 2 10 C0.39644899 6.49223216 -0.22036864 3.85645121 0 0 Z " fill="#BE8666" transform="translate(63,24)"/>
<path d="M0 0 C0.33 1.32 0.66 2.64 1 4 C1.66 4 2.32 4 3 4 C3.66 2.68 4.32 1.36 5 0 C7.97 0.495 7.97 0.495 11 1 C10.81640625 2.890625 10.81640625 2.890625 10 5 C7.71484375 6.046875 7.71484375 6.046875 4.9375 6.75 C3.55884766 7.11351563 3.55884766 7.11351563 2.15234375 7.484375 C1.44207031 7.65453125 0.73179688 7.8246875 0 8 C-0.79953138 4.71303767 -1.09658936 3.28976808 0 0 Z " fill="#A94920" transform="translate(60,87)"/>
<path d="M0 0 C1.32 0.99 2.64 1.98 4 3 C3.34 5.97 2.68 8.94 2 12 C-0.97 11.505 -0.97 11.505 -4 11 C-4.33 9.68 -4.66 8.36 -5 7 C-3.35 6.34 -1.7 5.68 0 5 C0 3.35 0 1.7 0 0 Z " fill="#B74729" transform="translate(7,50)"/>
<path d="M0 0 C3 1 3 1 4 3 C4.30343947 6.48955396 4.39470082 8.37505704 2.5 11.375 C2.005 11.91125 1.51 12.4475 1 13 C-1.7972908 10.93243723 -2.02692273 9.85559629 -2.6875 6.3125 C-2.790625 5.219375 -2.89375 4.12625 -3 3 C-1.515 3.99 -1.515 3.99 0 5 C0 3.35 0 1.7 0 0 Z " fill="#621707" transform="translate(89,58)"/>
<path d="M0 0 C1.32 0 2.64 0 4 0 C4.125 3.375 4.125 3.375 4 7 C1.4345406 9.5654594 -0.47686668 9.54046087 -4 10 C-3.71125 9.46375 -3.4225 8.9275 -3.125 8.375 C-1.83288192 5.64719516 -0.91441408 2.87387282 0 0 Z " fill="#4D0A03" transform="translate(48,80)"/>
<path d="M0 0 C1.65 0 3.3 0 5 0 C5 0.66 5 1.32 5 2 C5.66 2 6.32 2 7 2 C7.33 3.65 7.66 5.3 8 7 C5.125 7.125 5.125 7.125 2 7 C0 5 0 5 -0.125 2.375 C-0.08375 1.59125 -0.0425 0.8075 0 0 Z " fill="#F8E2BE" transform="translate(17,21)"/>
<path d="M0 0 C2.31 0.33 4.62 0.66 7 1 C7.33 2.65 7.66 4.3 8 6 C6.35 6.66 4.7 7.32 3 8 C2.67 7.34 2.34 6.68 2 6 C1.01 6.495 1.01 6.495 0 7 C0 4.69 0 2.38 0 0 Z " fill="#E39B6B" transform="translate(15,77)"/>
<path d="M0 0 C-1.55603771 3.81936528 -3.95604931 6.26044438 -7 9 C-7.66 9 -8.32 9 -9 9 C-8.6875 5.625 -8.6875 5.625 -8 2 C-4.77208445 -0.1519437 -3.71599191 -0.20086443 0 0 Z " fill="#B03F28" transform="translate(86,77)"/>
<path d="M0 0 C1.32 0.66 2.64 1.32 4 2 C4 3.65 4 5.3 4 7 C3.360625 7.268125 2.72125 7.53625 2.0625 7.8125 C-0.33131686 8.88667752 -0.33131686 8.88667752 -1 12 C-1.99 12 -2.98 12 -4 12 C-4.33 10.02 -4.66 8.04 -5 6 C-2 6 -2 6 0 7 C0.59070014 5.05396726 0.59070014 5.05396726 1 3 C0.67 2.67 0.34 2.34 0 2 C0 1.34 0 0.68 0 0 Z " fill="#B16240" transform="translate(34,39)"/>
<path d="M0 0 C-0.33 1.32 -0.66 2.64 -1 4 C-1.66 4 -2.32 4 -3 4 C-3 4.66 -3 5.32 -3 6 C-3.99 6 -4.98 6 -6 6 C-6 5.34 -6 4.68 -6 4 C-6.639375 3.896875 -7.27875 3.79375 -7.9375 3.6875 C-8.618125 3.460625 -9.29875 3.23375 -10 3 C-10.33 2.01 -10.66 1.02 -11 0 C-7.18243176 -1.37432457 -3.92744671 -0.67975039 0 0 Z " fill="#DDB997" transform="translate(57,34)"/>
<path d="M0 0 C0.33 0 0.66 0 1 0 C1.33 2.31 1.66 4.62 2 7 C2.66 5.02 3.32 3.04 4 1 C4.33 1 4.66 1 5 1 C5 2.98 5 4.96 5 7 C5.66 7 6.32 7 7 7 C6.34 8.65 5.68 10.3 5 12 C3.68 11.67 2.36 11.34 1 11 C0.34 11.99 -0.32 12.98 -1 14 C-0.67 9.38 -0.34 4.76 0 0 Z " fill="#CF8B5C" transform="translate(29,34)"/>
<path d="M0 0 C2 0.3125 2 0.3125 4 1 C4.33 1.66 4.66 2.32 5 3 C3.02 3.33 1.04 3.66 -1 4 C-1.103125 5.11375 -1.20625 6.2275 -1.3125 7.375 C-1.539375 8.57125 -1.76625 9.7675 -2 11 C-2.99 11.66 -3.98 12.32 -5 13 C-5.33 9.7 -5.66 6.4 -6 3 C-5.195625 2.690625 -4.39125 2.38125 -3.5625 2.0625 C-1.10919595 1.23664655 -1.10919595 1.23664655 0 0 Z " fill="#F0B87B" transform="translate(80,75)"/>
<path d="M0 0 C0.66 -0.33 1.32 -0.66 2 -1 C2 0.32 2 1.64 2 3 C2.66 3.33 3.32 3.66 4 4 C3.01 5.485 3.01 5.485 2 7 C1.01 7 0.02 7 -1 7 C-1.33 5.35 -1.66 3.7 -2 2 C-4.97 2 -7.94 2 -11 2 C-11 1.67 -11 1.34 -11 1 C-3.93203883 -1.31067961 -3.93203883 -1.31067961 0 0 Z " fill="#D47554" transform="translate(74,65)"/>
<path d="M0 0 C4.22961842 1.30916761 8.23847603 2.63811286 12 5 C12.875 7.6875 12.875 7.6875 13 10 C12.01 10.66 11.02 11.32 10 12 C9.71125 11.195625 9.4225 10.39125 9.125 9.5625 C8.26737432 6.8673532 8.26737432 6.8673532 6 6 C6.33 5.34 6.66 4.68 7 4 C4.03 3.505 4.03 3.505 1 3 C0.67 2.01 0.34 1.02 0 0 Z " fill="#6B1F15" transform="translate(58,54)"/>
<path d="M0 0 C0.66 0.33 1.32 0.66 2 1 C2 1.66 2 2.32 2 3 C1.34 3 0.68 3 0 3 C-0.2475 3.969375 -0.495 4.93875 -0.75 5.9375 C-1.1625 6.948125 -1.575 7.95875 -2 9 C-4.125 9.875 -4.125 9.875 -6 10 C-6.33 8.02 -6.66 6.04 -7 4 C-6.401875 3.896875 -5.80375 3.79375 -5.1875 3.6875 C-2.71756736 2.91123545 -1.67748765 1.92911079 0 0 Z " fill="#FB943F" transform="translate(29,53)"/>
<path d="M0 0 C1.125 7.75 1.125 7.75 0 10 C0.99 10 1.98 10 3 10 C3 11.98 3 13.96 3 16 C2.896875 15.360625 2.79375 14.72125 2.6875 14.0625 C2.460625 13.381875 2.23375 12.70125 2 12 C1.01 11.67 0.02 11.34 -1 11 C-2.3125 8.625 -2.3125 8.625 -3 6 C-2.34 5.01 -1.68 4.02 -1 3 C-1.99 3.33 -2.98 3.66 -4 4 C-4.66 3.67 -5.32 3.34 -6 3 C-6 2.34 -6 1.68 -6 1 C-4 0 -4 0 0 0 Z " fill="#9B4831" transform="translate(70,45)"/>
<path d="M0 0 C2.97 0 5.94 0 9 0 C9 0.99 9 1.98 9 3 C8.34 3 7.68 3 7 3 C7 3.66 7 4.32 7 5 C4.69 5 2.38 5 0 5 C0 3.35 0 1.7 0 0 Z " fill="#6E2D1F" transform="translate(39,56)"/>
<path d="M0 0 C2.49824035 1.4976696 4.86004673 3.01558218 7 5 C7.4375 7.8125 7.4375 7.8125 7 10 C6.34 9.67 5.68 9.34 5 9 C5 8.34 5 7.68 5 7 C2.69 7 0.38 7 -2 7 C-1.34 6.34 -0.68 5.68 0 5 C-0.99 4.67 -1.98 4.34 -3 4 C-2.67 3.01 -2.34 2.02 -2 1 C-1.34 0.67 -0.68 0.34 0 0 Z " fill="#AC5A39" transform="translate(25,11)"/>
<path d="M0 0 C0.66 0 1.32 0 2 0 C3.125 1.625 3.125 1.625 4 4 C3.07647305 8.19784979 2.64025108 9.57316595 -1 12 C-1.02698189 10.37509046 -1.04638757 8.75005367 -1.0625 7.125 C-1.07410156 6.22007813 -1.08570313 5.31515625 -1.09765625 4.3828125 C-1 2 -1 2 0 0 Z " fill="#DF591C" transform="translate(54,76)"/>
<path d="M0 0 C3.5 0.3125 3.5 0.3125 7 1 C7.33 1.66 7.66 2.32 8 3 C10.01669827 4.13350534 10.01669827 4.13350534 12 5 C11.34 5 10.68 5 10 5 C9.67 5.99 9.34 6.98 9 8 C9 7.01 9 6.02 9 5 C6.03 4.67 3.06 4.34 0 4 C-0.33 3.01 -0.66 2.02 -1 1 C-0.67 0.67 -0.34 0.34 0 0 Z " fill="#CF7954" transform="translate(13,73)"/>
<path d="M0 0 C0.33 0 0.66 0 1 0 C1.33 2.64 1.66 5.28 2 8 C0.68 8.33 -0.64 8.66 -2 9 C-2 8.34 -2 7.68 -2 7 C-4.31 6.67 -6.62 6.34 -9 6 C-8.67 4.35 -8.34 2.7 -8 1 C-5.33333333 2.33333333 -2.66666667 3.66666667 0 5 C0 3.35 0 1.7 0 0 Z " fill="#A64320" transform="translate(22,67)"/>
<path d="M0 0 C1.953125 1.14453125 1.953125 1.14453125 4 3 C4.609375 5.69921875 4.609375 5.69921875 4.75 8.6875 C4.80671875 9.68136719 4.8634375 10.67523438 4.921875 11.69921875 C4.94765625 12.45847656 4.9734375 13.21773437 5 14 C2.69 13.67 0.38 13.34 -2 13 C-2 12.34 -2 11.68 -2 11 C-1.01 11 -0.02 11 1 11 C1.12469099 5.42169984 1.12469099 5.42169984 0 0 Z " fill="#E8A579" transform="translate(76,37)"/>
<path d="M0 0 C0.33 0.99 0.66 1.98 1 3 C2.32 3 3.64 3 5 3 C5 2.01 5 1.02 5 0 C5.99 0 6.98 0 8 0 C8.125 2.375 8.125 2.375 8 5 C7.34 5.66 6.68 6.32 6 7 C1.44444444 6.44444444 1.44444444 6.44444444 0 5 C-0.04063832 3.33382885 -0.042721 1.66611905 0 0 Z " fill="#EFA426" transform="translate(62,80)"/>
<path d="M0 0 C0.12375 1.0725 0.2475 2.145 0.375 3.25 C0.89643936 6.37863615 1.40088254 8.33480424 3 11 C2.01 12.485 2.01 12.485 1 14 C-0.32 13.34 -1.64 12.68 -3 12 C-2.33333333 8.66666667 -1.66666667 5.33333333 -1 2 C-1.99 1.67 -2.98 1.34 -4 1 C-2 0 -2 0 0 0 Z " fill="#742305" transform="translate(62,78)"/>
<path d="M0 0 C0.66 0.33 1.32 0.66 2 1 C1.67 6.28 1.34 11.56 1 17 C0.67 15.68 0.34 14.36 0 13 C-0.99 13 -1.98 13 -3 13 C-3 9.7 -3 6.4 -3 3 C-2.67 3 -2.34 3 -2 3 C-1.67 4.65 -1.34 6.3 -1 8 C-0.67 5.36 -0.34 2.72 0 0 Z " fill="#E86828" transform="translate(70,67)"/>
<path d="M0 0 C0.33 0.66 0.66 1.32 1 2 C1.99 2 2.98 2 4 2 C3.67 2.66 3.34 3.32 3 4 C1.35 3.67 -0.3 3.34 -2 3 C-2 3.66 -2 4.32 -2 5 C-4.97 5 -7.94 5 -11 5 C-10.67 4.01 -10.34 3.02 -10 2 C-6.7 1.34 -3.4 0.68 0 0 Z " fill="#A64D3E" transform="translate(56,50)"/>
<path d="M0 0 C-0.33 2.31 -0.66 4.62 -1 7 C-2.32 7 -3.64 7 -5 7 C-5.33 4.69 -5.66 2.38 -6 0 C-3 -1 -3 -1 0 0 Z " fill="#FED076" transform="translate(27,48)"/>
<path d="M0 0 C0.66 1.32 1.32 2.64 2 4 C0.35 5.65 -1.3 7.3 -3 9 C-4.32 8.34 -5.64 7.68 -7 7 C-6.34 6.67 -5.68 6.34 -5 6 C-5 5.01 -5 4.02 -5 3 C-3.35 3 -1.7 3 0 3 C0 2.01 0 1.02 0 0 Z " fill="#E8C09F" transform="translate(84,26)"/>
<path d="M0 0 C0.33 0 0.66 0 1 0 C1 3.3 1 6.6 1 10 C1.66 10 2.32 10 3 10 C3.33 9.01 3.66 8.02 4 7 C4.33 7.99 4.66 8.98 5 10 C2.37801226 12.15377564 0.35595828 13.40072174 -3 14 C-3 11.69 -3 9.38 -3 7 C-2.67 7.66 -2.34 8.32 -2 9 C-1.34 9 -0.68 9 0 9 C0 6.03 0 3.06 0 0 Z " fill="#E2572D" transform="translate(43,75)"/>
<path d="M0 0 C0.66 0 1.32 0 2 0 C2 3.3 2 6.6 2 10 C0.02 10.99 0.02 10.99 -2 12 C-3.15957207 8.52128379 -2.77456651 7.65780355 -1.5625 4.3125 C-1.13130859 3.10013672 -1.13130859 3.10013672 -0.69140625 1.86328125 C-0.46324219 1.24839844 -0.23507813 0.63351563 0 0 Z " fill="#FBA474" transform="translate(74,54)"/>
<path d="M0 0 C0.66 0 1.32 0 2 0 C2 1.98 2 3.96 2 6 C1.34 6 0.68 6 0 6 C-0.33 6.99 -0.66 7.98 -1 9 C-2.32 9 -3.64 9 -5 9 C-4.67 10.65 -4.34 12.3 -4 14 C-4.99 13.34 -5.98 12.68 -7 12 C-6.67 9.69 -6.34 7.38 -6 5 C-5.67 5.66 -5.34 6.32 -5 7 C-3.68 7 -2.36 7 -1 7 C-0.67 4.69 -0.34 2.38 0 0 Z " fill="#FBB65F" transform="translate(27,48)"/>
<path d="M0 0 C2.97 0 5.94 0 9 0 C8 4 8 4 5.5625 5.75 C3 7 3 7 1 7 C1.20625 6.21625 1.4125 5.4325 1.625 4.625 C1.74875 3.75875 1.8725 2.8925 2 2 C1.34 1.34 0.68 0.68 0 0 Z " fill="#D69F72" transform="translate(34,23)"/>
<path d="M0 0 C0.33 0 0.66 0 1 0 C1 1.65 1 3.3 1 5 C0.34 5 -0.32 5 -1 5 C-0.67 5.99 -0.34 6.98 0 8 C-4.455 7.01 -4.455 7.01 -9 6 C-9.33 4.68 -9.66 3.36 -10 2 C-7.36 2.66 -4.72 3.32 -2 4 C-1.34 2.68 -0.68 1.36 0 0 Z " fill="#B67B60" transform="translate(66,9)"/>
<path d="M0 0 C4.95 0.99 4.95 0.99 10 2 C9.34 3.98 8.68 5.96 8 8 C5.5 6.625 5.5 6.625 3 5 C3 4.34 3 3.68 3 3 C2.34 2.67 1.68 2.34 1 2 C0.67 1.34 0.34 0.68 0 0 Z " fill="#C27955" transform="translate(36,36)"/>
<path d="M0 0 C0.66 0 1.32 0 2 0 C2.2832445 3.7073558 2.46544537 7.30381618 2 11 C-0.5 13 -0.5 13 -3 14 C-3 14.99 -3 15.98 -3 17 C-3.99 16.67 -4.98 16.34 -6 16 C-4.94435472 13.44885725 -4.30520158 12.19421919 -1.9375 10.6875 C0.93053683 8.18953244 0.72351483 5.66342845 1 2 C0.34 1.67 -0.32 1.34 -1 1 C-0.67 0.67 -0.34 0.34 0 0 Z " fill="#6A1808" transform="translate(51,78)"/>
<path d="M0 0 C2.1934064 4.3868128 3.30178681 6.9702199 3 12 C2 14.375 2 14.375 1 16 C-0.32 15.67 -1.64 15.34 -3 15 C-2.01 14.34 -1.02 13.68 0 13 C0.36530232 9.87442041 0.36530232 9.87442041 0.1875 6.375 C0.14689453 4.59222656 0.14689453 4.59222656 0.10546875 2.7734375 C0.07066406 1.85820313 0.03585938 0.94296875 0 0 Z " fill="#DB9D82" transform="translate(81,52)"/>
<path d="M0 0 C0.99 0.33 1.98 0.66 3 1 C3.6875 3.0625 3.6875 3.0625 4 5 C4.66 5 5.32 5 6 5 C5.67 5.99 5.34 6.98 5 8 C5 7.34 5 6.68 5 6 C4.071875 6.0825 3.14375 6.165 2.1875 6.25 C-1 6 -1 6 -2.875 4 C-3.24625 3.34 -3.6175 2.68 -4 2 C-2.68 2 -1.36 2 0 2 C0 1.34 0 0.68 0 0 Z " fill="#943F30" transform="translate(54,53)"/>
<path d="M0 0 C1.67542976 0.28604898 3.34385343 0.61781233 5 1 C5 1.99 5 2.98 5 4 C4.34 4 3.68 4 3 4 C2.67 4.99 2.34 5.98 2 7 C1.34 7 0.68 7 0 7 C-0.38133299 5.0085944 -0.71325582 3.00720923 -1 1 C-0.67 0.67 -0.34 0.34 0 0 Z " fill="#E8BC8E" transform="translate(52,11)"/>
<path d="M0 0 C0.99 0.33 1.98 0.66 3 1 C3.25 6.625 3.25 6.625 1 10 C0.01 9.67 -0.98 9.34 -2 9 C-1.34 6.03 -0.68 3.06 0 0 Z " fill="#FDC78A" transform="translate(17,47)"/>
<path d="M0 0 C0.625 2.8125 0.625 2.8125 1 6 C0.01 7.485 0.01 7.485 -1 9 C-1.66 9 -2.32 9 -3 9 C-3.33 6.36 -3.66 3.72 -4 1 C-2 0 -2 0 0 0 Z " fill="#702A1D" transform="translate(61,43)"/>
<path d="M0 0 C1.50433594 0.01353516 1.50433594 0.01353516 3.0390625 0.02734375 C3.80992188 0.03894531 4.58078125 0.05054688 5.375 0.0625 C4.385 1.5475 4.385 1.5475 3.375 3.0625 C3.375 2.4025 3.375 1.7425 3.375 1.0625 C1.395 1.3925 -0.585 1.7225 -2.625 2.0625 C-2.625 2.7225 -2.625 3.3825 -2.625 4.0625 C-5.265 3.7325 -7.905 3.4025 -10.625 3.0625 C-6.58365069 0.36826713 -4.81510472 -0.05598959 0 0 Z " fill="#BD7D59" transform="translate(46.625,10.9375)"/>
<path d="M0 0 C1.32 0.33 2.64 0.66 4 1 C4.33 3.31 4.66 5.62 5 8 C3.68 8 2.36 8 1 8 C0.67 5.36 0.34 2.72 0 0 Z " fill="#F0680F" transform="translate(62,75)"/>
<path d="M0 0 C0.66 0 1.32 0 2 0 C2 4.29 2 8.58 2 13 C1.67 13 1.34 13 1 13 C0.67 11.02 0.34 9.04 0 7 C-0.99 6.67 -1.98 6.34 -3 6 C-2 4 -1 2 0 0 Z " fill="#D33E0D" transform="translate(65,69)"/>
<path d="M0 0 C0 0.99 0 1.98 0 3 C-2.64 3.66 -5.28 4.32 -8 5 C-8.33 3.68 -8.66 2.36 -9 1 C-5.92677456 0.08941469 -3.19902639 -0.08886184 0 0 Z " fill="#FEFCDE" transform="translate(69,19)"/>
<path d="M0 0 C2 3 2 3 2 6 C-0.64 6.33 -3.28 6.66 -6 7 C-4.60667426 3.63279613 -3.0210714 2.0140476 0 0 Z " fill="#4A110A" transform="translate(66,60)"/>
<path d="M0 0 C1.47794803 3.84266488 0.40602326 6.25060463 -1 10 C-1.34976758 11.32911682 -1.69096017 12.66082739 -2 14 C-2.66 14 -3.32 14 -4 14 C-3.91231752 12.4156683 -3.80412671 10.83246433 -3.6875 9.25 C-3.60048828 7.92742188 -3.60048828 7.92742188 -3.51171875 6.578125 C-2.9358819 3.67696226 -1.92403852 2.20774393 0 0 Z " fill="#FBDEB0" transform="translate(22,32)"/>
<path d="M0 0 C0 3.01490557 -0.51952735 4.86864114 -1.5 7.6875 C-1.91765625 8.89986328 -1.91765625 8.89986328 -2.34375 10.13671875 C-2.5603125 10.75160156 -2.776875 11.36648437 -3 12 C-3.66 12 -4.32 12 -5 12 C-5.35338623 9.03155565 -5.5417682 6.84401782 -3.88671875 4.265625 C-2.64496832 2.79651181 -1.32662082 1.39295186 0 0 Z " fill="#D9A07B" transform="translate(21,29)"/>
<path d="M0 0 C2.31 0 4.62 0 7 0 C6.42415568 2.38564077 5.77772405 4.66682784 5 7 C4.34 7 3.68 7 3 7 C1.79371992 4.66785852 0.8345262 2.50357861 0 0 Z " fill="#D12513" transform="translate(53,68)"/>
<path d="M0 0 C0.99 0.33 1.98 0.66 3 1 C3.33 1.99 3.66 2.98 4 4 C4.66 4.33 5.32 4.66 6 5 C5.01 6.32 4.02 7.64 3 9 C0.9375 6.1875 0.9375 6.1875 -1 3 C-0.67 2.01 -0.34 1.02 0 0 Z " fill="#D45518" transform="translate(6,68)"/>
<path d="M0 0 C2.64 0.66 5.28 1.32 8 2 C7.360625 2.4125 6.72125 2.825 6.0625 3.25 C3.58535424 5.00723864 3.58535424 5.00723864 3 9 C2.01 6.03 1.02 3.06 0 0 Z " fill="#E47E2E" transform="translate(1,60)"/>
<path d="M0 0 C3.875 1.75 3.875 1.75 5 4 C5.039992 5.99960012 5.04346799 8.00047242 5 10 C0.07692308 5.69230769 0.07692308 5.69230769 -0.3125 2.1875 C-0.209375 1.465625 -0.10625 0.74375 0 0 Z " fill="#B73F21" transform="translate(85,56)"/>
<path d="M0 0 C0.33 0 0.66 0 1 0 C1.33 3.96 1.66 7.92 2 12 C1.01 12.495 1.01 12.495 0 13 C-1.57170996 9.85658007 -1.23175783 6.44228549 -1 3 C-0.67 2.01 -0.34 1.02 0 0 Z " fill="#FAC49C" transform="translate(80,53)"/>
<path d="M0 0 C3.875 1.75 3.875 1.75 5 4 C4.34 4 3.68 4 3 4 C2.896875 4.61875 2.79375 5.2375 2.6875 5.875 C2 8 2 8 -1 10 C-0.835 9.46375 -0.67 8.9275 -0.5 8.375 C0.09660212 5.54113991 0.0656368 2.8880194 0 0 Z " fill="#793627" transform="translate(61,42)"/>
<path d="M0 0 C2.97 0.495 2.97 0.495 6 1 C5.34 2.65 4.68 4.3 4 6 C2.68 5.67 1.36 5.34 0 5 C0.66 4.67 1.32 4.34 2 4 C0.68 3.67 -0.64 3.34 -2 3 C-1.34 2.01 -0.68 1.02 0 0 Z " fill="#B88262" transform="translate(56,35)"/>
<path d="M0 0 C1.65 0 3.3 0 5 0 C5 2.31 5 4.62 5 7 C4.01 7.495 4.01 7.495 3 8 C0.9375 5.6875 0.9375 5.6875 -1 3 C-0.67 2.01 -0.34 1.02 0 0 Z " fill="#7F361A" transform="translate(77,34)"/>
<path d="M0 0 C1.98 0 3.96 0 6 0 C4.92598892 2.91517292 4.22189824 4.77810176 2 7 C0.5393715 4.35261084 0 3.10551666 0 0 Z " fill="#D39D73" transform="translate(73,30)"/>
<path d="M0 0 C0 0.99 0 1.98 0 3 C-4.05431692 4.15837626 -6.21812119 3.83691257 -10 2 C-6.3558226 -0.4294516 -4.28758728 -0.16179575 0 0 Z " fill="#FCF0C5" transform="translate(59,26)"/>
<path d="M0 0 C0.66 0 1.32 0 2 0 C2.433125 1.11375 2.433125 1.11375 2.875 2.25 C3.82302644 4.56739797 4.84845911 6.77917115 6 9 C4.35 8.67 2.7 8.34 1 8 C0.40267181 5.23735711 0 2.83967231 0 0 Z " fill="#791A0C" transform="translate(14,21)"/>
<path d="M0 0 C0.33 0.99 0.66 1.98 1 3 C1.66 3 2.32 3 3 3 C3 4.98 3 6.96 3 9 C2.34 9 1.68 9 1 9 C1 8.34 1 7.68 1 7 C0.34 7 -0.32 7 -1 7 C-1.04254356 5.00045254 -1.04080783 2.99958364 -1 1 C-0.67 0.67 -0.34 0.34 0 0 Z " fill="#F43823" transform="translate(40,75)"/>
<path d="M0 0 C0.66 0.33 1.32 0.66 2 1 C2.625 4.0625 2.625 4.0625 3 7 C2.34 7 1.68 7 1 7 C0.67 7.66 0.34 8.32 0 9 C0 8.34 0 7.68 0 7 C-0.99 6.67 -1.98 6.34 -3 6 C-2.34 5.67 -1.68 5.34 -1 5 C-1.33 4.01 -1.66 3.02 -2 2 C-1.34 2 -0.68 2 0 2 C0 1.34 0 0.68 0 0 Z " fill="#F5D8AE" transform="translate(43,27)"/>
<path d="M0 0 C2.97 0 5.94 0 9 0 C9.33 0.66 9.66 1.32 10 2 C6.7 2.33 3.4 2.66 0 3 C0 2.01 0 1.02 0 0 Z " fill="#EACBAB" transform="translate(74,24)"/>
<path d="M0 0 C4.75 0.875 4.75 0.875 7 2 C7 3.98 7 5.96 7 8 C6.5875 7.38125 6.175 6.7625 5.75 6.125 C3.94426121 3.93231719 2.5909466 3.07211583 0 2 C0 1.34 0 0.68 0 0 Z " fill="#913123" transform="translate(65,55)"/>
<path d="M0 0 C1.98 0.66 3.96 1.32 6 2 C4.68 3.65 3.36 5.3 2 7 C0.4375 5.75 0.4375 5.75 -1 4 C-0.6875 1.8125 -0.6875 1.8125 0 0 Z " fill="#B0371D" transform="translate(14,28)"/>
<path d="M0 0 C2.125 0.9375 2.125 0.9375 4 2 C3.34 3.65 2.68 5.3 2 7 C-0.2477975 4.94766315 -1.0022242 3.99332739 -2 1 C-1.34 0.67 -0.68 0.34 0 0 Z " fill="#FBA969" transform="translate(20,61)"/>
<path d="M0 0 C0.99 0.495 0.99 0.495 2 1 C3.28571429 7.42857143 3.28571429 7.42857143 2 10 C1.34 10 0.68 10 0 10 C0 6.7 0 3.4 0 0 Z " fill="#901E12" transform="translate(0,44)"/>
<path d="M0 0 C1.32 0.33 2.64 0.66 4 1 C2.515 3.475 2.515 3.475 1 6 C-0.32 5.67 -1.64 5.34 -3 5 C-2.67 3.68 -2.34 2.36 -2 1 C-1.67 1.33 -1.34 1.66 -1 2 C-0.67 1.34 -0.34 0.68 0 0 Z " fill="#8C3A24" transform="translate(34,48)"/>
<path d="M0 0 C0.66 0 1.32 0 2 0 C2.33 1.98 2.66 3.96 3 6 C2.01 6.33 1.02 6.66 0 7 C-0.66 7.66 -1.32 8.32 -2 9 C-1.51421457 5.87709365 -1.0013988 3.00419641 0 0 Z " fill="#E8BD8F" transform="translate(28,27)"/>
<path d="M0 0 C1.98 0 3.96 0 6 0 C5.8125 1.875 5.8125 1.875 5 4 C2.4375 5.25 2.4375 5.25 0 6 C0.185625 5.38125 0.37125 4.7625 0.5625 4.125 C1.23686176 1.95839822 1.23686176 1.95839822 0 0 Z " fill="#9E694A" transform="translate(20,28)"/>
<path d="M0 0 C0.66 0 1.32 0 2 0 C2 0.99 2 1.98 2 3 C3.32 2.67 4.64 2.34 6 2 C5.01 3.32 4.02 4.64 3 6 C2.01 5.67 1.02 5.34 0 5 C0 4.34 0 3.68 0 3 C-0.66 2.67 -1.32 2.34 -2 2 C-1.34 1.34 -0.68 0.68 0 0 Z " fill="#501307" transform="translate(42,87)"/>
<path d="M0 0 C0.66 0 1.32 0 2 0 C2.3125 2.25 2.3125 2.25 2 5 C-2.10810811 9 -2.10810811 9 -5 9 C-4.67 8.01 -4.34 7.02 -4 6 C-3.01 5.67 -2.02 5.34 -1 5 C-0.67 3.35 -0.34 1.7 0 0 Z " fill="#310505" transform="translate(49,81)"/>
<path d="M0 0 C2.31 0.33 4.62 0.66 7 1 C6.67 2.32 6.34 3.64 6 5 C5.01 4.67 4.02 4.34 3 4 C2.01 4 1.02 4 0 4 C0 2.68 0 1.36 0 0 Z " fill="#FBCF94" transform="translate(15,77)"/>
<path d="M0 0 C1.32 0.66 2.64 1.32 4 2 C3.67 3.32 3.34 4.64 3 6 C2.01 6 1.02 6 0 6 C-0.33 6.66 -0.66 7.32 -1 8 C-1.33 6.68 -1.66 5.36 -2 4 C-1.34 4 -0.68 4 0 4 C0 2.68 0 1.36 0 0 Z " fill="#EB311A" transform="translate(52,68)"/>
<path d="M0 0 C2 3.75 2 3.75 2 6 C0.35 6 -1.3 6 -3 6 C-3 3 -3 3 -1.5 1.3125 C-0.7575 0.6628125 -0.7575 0.6628125 0 0 Z " fill="#69231A" transform="translate(64,48)"/>
<path d="M0 0 C1.68496298 0.96885372 3.35178756 1.96986723 5 3 C5 3.33 5 3.66 5 4 C3.02 4 1.04 4 -1 4 C-1.33 5.32 -1.66 6.64 -2 8 C-2.125 5.125 -2.125 5.125 -2 2 C-1.34 1.34 -0.68 0.68 0 0 Z " fill="#B87E65" transform="translate(18,17)"/>
<path d="M0 0 C1.0209375 0.2165625 1.0209375 0.2165625 2.0625 0.4375 C5.36273082 1.06945909 8.67144426 1.54313941 12 2 C12 2.33 12 2.66 12 3 C8.04 3 4.08 3 0 3 C0 2.01 0 1.02 0 0 Z " fill="#3F0703" transform="translate(41,63)"/>
<path d="M0 0 C0.99 0 1.98 0 3 0 C2.34 4.62 1.68 9.24 1 14 C0.67 14 0.34 14 0 14 C0 9.38 0 4.76 0 0 Z " fill="#FBBA8F" transform="translate(78,51)"/>
<path d="M0 0 C2.64 0.33 5.28 0.66 8 1 C7.67 2.32 7.34 3.64 7 5 C4.11562221 3.70700306 2.12780579 2.34058637 0 0 Z " fill="#FBE1BE" transform="translate(19,17)"/>
<path d="M0 0 C3 2 3 2 3.6875 5.125 C3.8421875 6.548125 3.8421875 6.548125 4 8 C3.01 8.66 2.02 9.32 1 10 C0 3.375 0 3.375 0 0 Z " fill="#C05028" transform="translate(36,56)"/>
<path d="M0 0 C0.93065133 2.60582371 1.14917407 3.64198224 0.0625 6.25 C-0.4634375 7.11625 -0.4634375 7.11625 -1 8 C-1.66 8 -2.32 8 -3 8 C-2.25 2.25 -2.25 2.25 0 0 Z " fill="#611B0D" transform="translate(84,32)"/>
<path d="M0 0 C0.99 0 1.98 0 3 0 C3 0.66 3 1.32 3 2 C3.66 2 4.32 2 5 2 C5.33 1.34 5.66 0.68 6 0 C6 0.99 6 1.98 6 3 C6.66 3.33 7.32 3.66 8 4 C5.69 4 3.38 4 1 4 C0.67 2.68 0.34 1.36 0 0 Z " fill="#86210C" transform="translate(19,13)"/>
<path d="M0 0 C2.97 0.495 2.97 0.495 6 1 C5.67 2.32 5.34 3.64 5 5 C3.35 4.67 1.7 4.34 0 4 C0 2.68 0 1.36 0 0 Z " fill="#BF7E45" transform="translate(65,87)"/>
<path d="M0 0 C0.33 0.66 0.66 1.32 1 2 C0.0625 4.125 0.0625 4.125 -1 6 C-1.66 6 -2.32 6 -3 6 C-3.33 6.99 -3.66 7.98 -4 9 C-3.6875 5.625 -3.6875 5.625 -3 2 C-2.01 1.34 -1.02 0.68 0 0 Z " fill="#D67745" transform="translate(81,77)"/>
<path d="M0 0 C3.34098676 2.22732451 3.90203779 3.24862913 5 7 C4.67 7.99 4.34 8.98 4 10 C1.2027092 7.93243723 0.97307727 6.85559629 0.3125 3.3125 C0.209375 2.219375 0.10625 1.12625 0 0 Z " fill="#831C09" transform="translate(86,61)"/>
<path d="M0 0 C0 1.98 0 3.96 0 6 C-1.65 5.67 -3.3 5.34 -5 5 C-5 4.34 -5 3.68 -5 3 C-1.42307692 0 -1.42307692 0 0 0 Z " fill="#BE2E0D" transform="translate(9,56)"/>
<path d="M0 0 C0.33 0 0.66 0 1 0 C1 1.98 1 3.96 1 6 C1.66 6 2.32 6 3 6 C2.34 7.65 1.68 9.3 1 11 C0.34 11 -0.32 11 -1 11 C-1.14285714 3.57142857 -1.14285714 3.57142857 0 0 Z " fill="#D99367" transform="translate(33,35)"/>
<path d="M0 0 C-0.33 1.32 -0.66 2.64 -1 4 C-2.9375 3.6875 -2.9375 3.6875 -5 3 C-5.33 2.01 -5.66 1.02 -6 0 C-2.25 -1.125 -2.25 -1.125 0 0 Z " fill="#EAC99D" transform="translate(52,34)"/>
<path d="M0 0 C0.66 0 1.32 0 2 0 C2 1.65 2 3.3 2 5 C0.02 5 -1.96 5 -4 5 C-2.71937515 3.2925002 -1.38232443 1.62626404 0 0 Z " fill="#741A05" transform="translate(29,82)"/>
<path d="M0 0 C2.31 0 4.62 0 7 0 C7.33 0.99 7.66 1.98 8 3 C5.36 2.67 2.72 2.34 0 2 C0 1.34 0 0.68 0 0 Z " fill="#310D0A" transform="translate(77,70)"/>
<path d="M0 0 C0.66 0 1.32 0 2 0 C2.33 0.66 2.66 1.32 3 2 C5.02463255 2.65213292 5.02463255 2.65213292 7 3 C4.35261084 4.4606285 3.10551666 5 0 5 C0 3.35 0 1.7 0 0 Z " fill="#FBA845" transform="translate(4,64)"/>
<path d="M0 0 C1.65 0.33 3.3 0.66 5 1 C3 4 3 4 0.375 4.6875 C-0.800625 4.8421875 -0.800625 4.8421875 -2 5 C-2 3 -2 3 0 1 C0 0.67 0 0.34 0 0 Z " fill="#853429" transform="translate(48,56)"/>
<path d="M0 0 C3.375 -0.1875 3.375 -0.1875 7 0 C7.66 0.99 8.32 1.98 9 3 C7.68 3 6.36 3 5 3 C4.67 3.66 4.34 4.32 4 5 C3.896875 4.360625 3.79375 3.72125 3.6875 3.0625 C3.460625 2.381875 3.23375 1.70125 3 1 C2.01 0.67 1.02 0.34 0 0 Z " fill="#793326" transform="translate(47,43)"/>
<path d="M0 0 C0.66 0.33 1.32 0.66 2 1 C2.625 3.5625 2.625 3.5625 3 6 C1.68 6.99 0.36 7.98 -1 9 C-0.67 6.03 -0.34 3.06 0 0 Z " fill="#F8BE90" transform="translate(74,36)"/>
<path d="M0 0 C0 1.98 0 3.96 0 6 C-1.32 5.34 -2.64 4.68 -4 4 C-4 3.01 -4 2.02 -4 1 C-2 0 -2 0 0 0 Z " fill="#89250D" transform="translate(12,41)"/>
<path d="M0 0 C2 1.1875 2 1.1875 4 3 C4.25 5.6875 4.25 5.6875 4 8 C3.34 8 2.68 8 2 8 C0.23537317 4.91190305 0 3.76687864 0 0 Z " fill="#4F2519" transform="translate(29,21)"/>
<path d="M0 0 C-0.33 1.65 -0.66 3.3 -1 5 C-1.99 5.33 -2.98 5.66 -4 6 C-4 4.35 -4 2.7 -4 1 C-2 0 -2 0 0 0 Z " fill="#FEF7CF" transform="translate(37,17)"/>
<path d="M0 0 C0 0.33 0 0.66 0 1 C-0.94875 1.309375 -1.8975 1.61875 -2.875 1.9375 C-5.86080408 2.87394742 -5.86080408 2.87394742 -8 4 C-8.33 2.68 -8.66 1.36 -9 0 C-5.52176885 -1.15941038 -3.54104422 -0.70820884 0 0 Z " fill="#683129" transform="translate(82,72)"/>
<path d="M0 0 C1.32 0 2.64 0 4 0 C4 1.65 4 3.3 4 5 C3.01 5 2.02 5 1 5 C0.67 3.35 0.34 1.7 0 0 Z " fill="#CC2114" transform="translate(44,70)"/>
<path d="M0 0 C2.31 0 4.62 0 7 0 C5.60804085 2.7839183 3.84424221 2.97898997 1 4 C0.67 2.68 0.34 1.36 0 0 Z " fill="#9B1708" transform="translate(44,67)"/>
<path d="M0 0 C1.2065625 0.0309375 1.2065625 0.0309375 2.4375 0.0625 C2.7675 1.0525 3.0975 2.0425 3.4375 3.0625 C2.1175 2.7325 0.7975 2.4025 -0.5625 2.0625 C-0.8925 2.7225 -1.2225 3.3825 -1.5625 4.0625 C-2.2225 3.0725 -2.8825 2.0825 -3.5625 1.0625 C-2.5625 0.0625 -2.5625 0.0625 0 0 Z " fill="#581B14" transform="translate(39.5625,53.9375)"/>
<path d="M0 0 C0.33 0.66 0.66 1.32 1 2 C-2 4 -2 4 -4.125 3.75 C-6 3 -6 3 -7 1 C-3.535 0.505 -3.535 0.505 0 0 Z " fill="#561A09" transform="translate(35,12)"/>
</svg>
