<?xml version="1.0" encoding="UTF-8"?>
<svg version="1.1" xmlns="http://www.w3.org/2000/svg" width="96" height="96">
<path d="M0 0 C3.39496314 2.41205197 6.32648987 4.96144823 9.125 8.0625 C9.60582031 8.55105469 10.08664063 9.03960937 10.58203125 9.54296875 C20.72229742 20.35069548 21.58914791 32.5633164 21.40234375 46.609375 C21.05522225 56.78469785 17.0749254 64.02029314 11.125 72.0625 C10.5475 72.92875 9.97 73.795 9.375 74.6875 C2.45519877 81.99173463 -7.92459655 88.45041096 -18.17407227 89.23950195 C-40.45085705 89.78178427 -40.45085705 89.78178427 -48.875 85.0625 C-49.64457031 84.63839844 -50.41414063 84.21429688 -51.20703125 83.77734375 C-62.53348523 76.85026201 -70.61320487 66.96136086 -74.44213867 54.16748047 C-76.69833955 43.1957016 -76.38977957 28.90663923 -70.875 19.0625 C-70.45089844 18.29292969 -70.02679688 17.52335937 -69.58984375 16.73046875 C-62.66276201 5.40401477 -52.77386086 -2.67570487 -39.97998047 -6.50463867 C-26.13922873 -9.35080578 -11.86737751 -7.46776439 0 0 Z " fill="#EFA91A" transform="translate(74.875,6.9375)"/>
<path d="M0 0 C3.39496314 2.41205197 6.32648987 4.96144823 9.125 8.0625 C9.60582031 8.55105469 10.08664063 9.03960937 10.58203125 9.54296875 C20.72229742 20.35069548 21.58914791 32.5633164 21.40234375 46.609375 C21.05522225 56.78469785 17.0749254 64.02029314 11.125 72.0625 C10.5475 72.92875 9.97 73.795 9.375 74.6875 C2.45519877 81.99173463 -7.92459655 88.45041096 -18.17407227 89.23950195 C-40.45085705 89.78178427 -40.45085705 89.78178427 -48.875 85.0625 C-49.64457031 84.63839844 -50.41414063 84.21429688 -51.20703125 83.77734375 C-62.53348523 76.85026201 -70.61320487 66.96136086 -74.44213867 54.16748047 C-76.69833955 43.1957016 -76.38977957 28.90663923 -70.875 19.0625 C-70.45089844 18.29292969 -70.02679688 17.52335937 -69.58984375 16.73046875 C-62.66276201 5.40401477 -52.77386086 -2.67570487 -39.97998047 -6.50463867 C-26.13922873 -9.35080578 -11.86737751 -7.46776439 0 0 Z M-59.625 13.8125 C-67.25595592 23.15108242 -69.07187562 32.2257229 -68.12744141 43.98193359 C-67.19826087 51.64003473 -64.77208406 59.04608244 -59.875 65.0625 C-59.39417969 65.69542969 -58.91335937 66.32835938 -58.41796875 66.98046875 C-52.80116956 73.99160217 -45.60568498 78.78942225 -36.875 81.0625 C-23.51482164 82.40015639 -12.66270854 81.51760882 -1.6875 73.4375 C5.99979466 66.92263865 12.41480287 58.46758528 13.28466797 48.17285156 C14.05827796 34.35059174 12.24031017 23.95328223 3.125 13.0625 C-2.01071462 7.48992998 -7.57387027 4.15038967 -14.875 2.0625 C-15.865 2.0625 -16.855 2.0625 -17.875 2.0625 C-18.37 0.5775 -18.37 0.5775 -18.875 -0.9375 C-35.76432109 -1.70909335 -47.6068283 1.1998811 -59.625 13.8125 Z " fill="#F3B821" transform="translate(74.875,6.9375)"/>
<path d="M0 0 C15.76022681 -0.55407047 15.76022681 -0.55407047 23 3 C24.4540625 3.5878125 24.4540625 3.5878125 25.9375 4.1875 C35.25591246 9.70247881 42.00913721 17.35694923 45.13671875 27.79296875 C47.87368266 39.63141274 46.863025 51.92579273 40.5625 62.38671875 C34.67187418 70.72705194 25.9572234 77.41657581 16 80 C12.69586412 80.41837528 9.45268626 80.4776841 6.125 80.4375 C5.24094482 80.42920166 4.35688965 80.42090332 3.44604492 80.41235352 C-7.46774431 80.12931016 -15.04928559 76.47780947 -23 69 C-32.0514102 59.37616861 -35.41884744 48.55105225 -35.359375 35.51171875 C-34.78364304 29.88581622 -32.78835579 24.90074654 -30 20 C-29.34 19.67 -28.68 19.34 -28 19 C-28.20496094 19.60328125 -28.40992188 20.2065625 -28.62109375 20.828125 C-28.89050781 21.62734375 -29.15992188 22.4265625 -29.4375 23.25 C-29.70433594 24.03890625 -29.97117187 24.8278125 -30.24609375 25.640625 C-31.5928906 29.85547109 -32.20680319 33.54960786 -32.3125 38 C-32.34988281 39.03125 -32.38726562 40.0625 -32.42578125 41.125 C-31.90269396 44.65703893 -30.71112615 45.77548624 -28 48 C-27.67386719 47.39671875 -27.34773438 46.7934375 -27.01171875 46.171875 C-26.57472656 45.37265625 -26.13773438 44.5734375 -25.6875 43.75 C-25.25824219 42.96109375 -24.82898437 42.1721875 -24.38671875 41.359375 C-23 39 -23 39 -21.33203125 36.890625 C-19.71202323 34.97671559 -19.71202323 34.97671559 -20 32 C-19.01 32.33 -18.02 32.66 -17 33 C-18.06290281 36.01155797 -19.21459848 38.30564026 -21.0625 40.9375 C-23.06746949 44.10664532 -23.64818064 46.30589675 -24 50 C-23.01 50 -22.02 50 -21 50 C-21 49.34 -21 48.68 -21 48 C-16.05 48.33 -11.1 48.66 -6 49 C-6.33 49.99 -6.66 50.98 -7 52 C-8.65 52 -10.3 52 -12 52 C-12 51.67 -12 51.34 -12 51 C-15.96 51 -19.92 51 -24 51 C-23.01 52.32 -22.02 53.64 -21 55 C-21.33 55.66 -21.66 56.32 -22 57 C-21.38253906 56.72285156 -20.76507813 56.44570312 -20.12890625 56.16015625 C-14.30347882 53.66861119 -9.32222824 52.40788569 -3 52 C-3.66 52.99 -4.32 53.98 -5 55 C-2.36 54.67 0.28 54.34 3 54 C3 52.35 3 50.7 3 49 C4.65 49.33 6.3 49.66 8 50 C8 52.31 8 54.62 8 57 C4.15684269 58.83074039 1.58291618 59.1466425 -2.625 58.625 C-5.46354287 58.29059632 -8.13886615 58 -11 58 C-12.32 58 -13.64 58 -15 58 C-15.33 58.99 -15.66 59.98 -16 61 C-13.525 60.505 -13.525 60.505 -11 60 C-11.33 61.32 -11.66 62.64 -12 64 C-5.07 64.495 -5.07 64.495 2 65 C2 64.34 2 63.68 2 63 C4.97 62.34 7.94 61.68 11 61 C10.34 61 9.68 61 9 61 C7.66216607 60.68521554 6.32796291 60.35412344 5 60 C5.78375 59.54625 6.5675 59.0925 7.375 58.625 C10.03698031 57.11571258 10.03698031 57.11571258 12 55 C14.625 55.375 14.625 55.375 17 56 C15.19642667 59.17772443 13.62113708 61.37886292 11 64 C16.94 63.505 16.94 63.505 23 63 C22.01 61.35 21.02 59.7 20 58 C20.33 57.01 20.66 56.02 21 55 C19.824375 55.0928125 19.824375 55.0928125 18.625 55.1875 C17.75875 55.125625 16.8925 55.06375 16 55 C15.34 54.01 14.68 53.02 14 52 C21.04007955 52.9973446 27.43901392 54.2241982 34 57 C33.67 56.01 33.34 55.02 33 54 C34.32 52.68 35.64 51.36 37 50 C36.03796805 45.71458496 34.99968066 42.75079925 32.3125 39.25 C31.549375 38.1775 30.78625 37.105 30 36 C30.33 35.01 30.66 34.02 31 33 C33.5625 31.8125 33.5625 31.8125 36 31 C35.835 30.195625 35.67 29.39125 35.5 28.5625 C34.90752652 24.34112648 34.91493291 20.25335455 35 16 C32.06556598 16.26656572 32.06556598 16.26656572 29 17 C28.34 17.99 27.68 18.98 27 20 C26.34 20 25.68 20 25 20 C25.4793247 15.68607774 26.7457985 13.83430453 30 11 C23.722669 3.35803182 14.82440777 2.46167339 5.58911133 1.50732422 C3.72701816 1.32812088 1.86361537 1.16261167 0 1 C0 0.67 0 0.34 0 0 Z " fill="#AE4B04" transform="translate(42,8)"/>
<path d="M0 0 C0.598125 0.20625 1.19625 0.4125 1.8125 0.625 C1.1525 1.285 0.4925 1.945 -0.1875 2.625 C-0.8300235 4.69374034 -0.8300235 4.69374034 -1.1875 6.625 C-0.65125 5.965 -0.115 5.305 0.4375 4.625 C2.8125 2.625 2.8125 2.625 6.0625 2.375 C7.42375 2.49875 7.42375 2.49875 8.8125 2.625 C8.87308594 3.22828125 8.93367188 3.8315625 8.99609375 4.453125 C9.07988281 5.25234375 9.16367188 6.0515625 9.25 6.875 C9.33121094 7.66390625 9.41242188 8.4528125 9.49609375 9.265625 C9.74070317 11.61809967 9.74070317 11.61809967 10.5 13.76171875 C10.6546875 14.68404297 10.6546875 14.68404297 10.8125 15.625 C9.18800757 17.33279973 7.52029973 19.00050757 5.8125 20.625 C5.8125 24.01770924 6.1952006 24.38362848 8.25 26.875 C10.85979729 30.40195462 11.89720877 33.13543517 11.8125 37.625 C9.875 39.9375 9.875 39.9375 7.8125 41.625 C7.8125 42.285 7.8125 42.945 7.8125 43.625 C2.9292044 42.70259972 -1.83989555 41.42472899 -6.640625 40.1484375 C-7.48109375 39.97570313 -8.3215625 39.80296875 -9.1875 39.625 C-9.5175 39.955 -9.8475 40.285 -10.1875 40.625 C-8.5375 40.955 -6.8875 41.285 -5.1875 41.625 C-4.1875 44.625 -4.1875 44.625 -4.1875 46.625 C-3.8575 47.615 -3.5275 48.605 -3.1875 49.625 C-4.60127782 49.99052803 -6.01870576 50.34195495 -7.4375 50.6875 C-8.22640625 50.88472656 -9.0153125 51.08195312 -9.828125 51.28515625 C-12.29144822 51.63997267 -13.84354132 51.39377544 -16.1875 50.625 C-14.7025 50.13 -14.7025 50.13 -13.1875 49.625 C-11.95780122 46.11309191 -11.95780122 46.11309191 -11.1875 42.625 C-13.12824861 42.90117533 -13.12824861 42.90117533 -15.1875 43.625 C-15.8475 44.615 -16.5075 45.605 -17.1875 46.625 C-16.1975 46.625 -15.2075 46.625 -14.1875 46.625 C-14.5175 47.285 -14.8475 47.945 -15.1875 48.625 C-17.25390625 49.0390625 -17.25390625 49.0390625 -19.75 49.25 C-20.57628906 49.32476562 -21.40257813 49.39953125 -22.25390625 49.4765625 C-22.89199219 49.52554688 -23.53007813 49.57453125 -24.1875 49.625 C-24.1875 50.285 -24.1875 50.945 -24.1875 51.625 C-33.59752278 51.80951025 -33.59752278 51.80951025 -38.1875 50.625 C-38.6825 49.14 -38.6825 49.14 -39.1875 47.625 C-41.1675 48.12 -41.1675 48.12 -43.1875 48.625 C-42.13708421 45.76022966 -41.48625437 44.78586774 -38.75 43.3125 C-36.1875 42.625 -36.1875 42.625 -33.1875 43.625 C-31.54802962 43.89596422 -29.90068271 44.12136832 -28.25 44.3125 C-27.39535156 44.41949219 -26.54070313 44.52648437 -25.66015625 44.63671875 C-22.87526213 44.6235202 -21.460535 44.22074241 -19.1875 42.625 C-18.37165432 39.56591587 -18.37165432 39.56591587 -18.1875 36.625 C-18.8475 36.295 -19.5075 35.965 -20.1875 35.625 C-18.7025 35.13 -18.7025 35.13 -17.1875 34.625 C-17.1875 35.615 -17.1875 36.605 -17.1875 37.625 C-15.2075 37.625 -13.2275 37.625 -11.1875 37.625 C-12.1775 34.16 -12.1775 34.16 -13.1875 30.625 C-14.1775 30.625 -15.1675 30.625 -16.1875 30.625 C-16.1875 28.975 -16.1875 27.325 -16.1875 25.625 C-16.8475 25.625 -17.5075 25.625 -18.1875 25.625 C-17.8575 22.325 -17.5275 19.025 -17.1875 15.625 C-16.5275 15.625 -15.8675 15.625 -15.1875 15.625 C-15.22875 14.531875 -15.27 13.43875 -15.3125 12.3125 C-15.1875 8.625 -15.1875 8.625 -13.1875 5.625 C-14.1775 5.295 -15.1675 4.965 -16.1875 4.625 C-15.5275 3.305 -14.8675 1.985 -14.1875 0.625 C-13.26517578 0.76808594 -13.26517578 0.76808594 -12.32421875 0.9140625 C-11.51597656 1.02492188 -10.70773438 1.13578125 -9.875 1.25 C-9.07449219 1.36601562 -8.27398437 1.48203125 -7.44921875 1.6015625 C-4.21199684 1.63510884 -3.22952764 -0.55363331 0 0 Z " fill="#F4C11E" transform="translate(68.1875,21.375)"/>
<path d="M0 0 C0.99 0.33 1.98 0.66 3 1 C6.32926836 9.71893692 5.34959659 24.67259288 2.375 33.3125 C0.14664834 38.23541873 -2.79321582 42.66555545 -6 47 C-6.86625 48.299375 -6.86625 48.299375 -7.75 49.625 C-14.66980123 56.92923463 -25.04959655 63.38791096 -35.29907227 64.17700195 C-57.57585705 64.71928427 -57.57585705 64.71928427 -66 60 C-66.76957031 59.57589844 -67.53914063 59.15179688 -68.33203125 58.71484375 C-77.88188828 52.87430086 -86.00382561 44.59854946 -90 34 C-89.67 33.01 -89.34 32.02 -89 31 C-85.42274505 31.8655456 -83.47314417 32.38111511 -81.19921875 35.35546875 C-80.70035156 36.29003906 -80.20148438 37.22460938 -79.6875 38.1875 C-74.23484234 47.33505068 -65.09199204 53.81977417 -54.73828125 56.609375 C-40.36929733 58.65915873 -28.54564323 57.03190224 -16.625 48.3125 C-8.50130244 41.36237031 -3.86554576 31.88812475 -2.70092773 21.27441406 C-2.55860386 18.53535073 -2.47854799 15.80489647 -2.4375 13.0625 C-2.40307029 11.21987274 -2.3604685 9.37737493 -2.30859375 7.53515625 C-2.29626709 6.734729 -2.28394043 5.93430176 -2.27124023 5.10961914 C-2 3 -2 3 0 0 Z " fill="#DD6A0D" transform="translate(92,32)"/>
<path d="M0 0 C0 1.65 0 3.3 0 5 C0.66 5.33 1.32 5.66 2 6 C1.34 9.3 0.68 12.6 0 16 C-0.66 16 -1.32 16 -2 16 C-1.979375 17.093125 -1.95875 18.18625 -1.9375 19.3125 C-2 23 -2 23 -3 26 C-2.34 26 -1.68 26 -1 26 C-1 27.65 -1 29.3 -1 31 C-0.01 30.67 0.98 30.34 2 30 C4 32 4 32 4.125 35.125 C4.08375 36.07375 4.0425 37.0225 4 38 C2.02 38 0.04 38 -2 38 C-2 37.01 -2 36.02 -2 35 C-6.23084903 36.68807908 -6.23084903 36.68807908 -9 40 C-9.99 40 -10.98 40 -12 40 C-12 39.34 -12 38.68 -12 38 C-12.66 38 -13.32 38 -14 38 C-14 37.01 -14 36.02 -14 35 C-14.66 34.67 -15.32 34.34 -16 34 C-15.67 33.34 -15.34 32.68 -15 32 C-16.98 32.495 -16.98 32.495 -19 33 C-19 33.66 -19 34.32 -19 35 C-21.31 35 -23.62 35 -26 35 C-26 34.01 -26 33.02 -26 32 C-26.99 32 -27.98 32 -29 32 C-29 31.01 -29 30.02 -29 29 C-28.34 29 -27.68 29 -27 29 C-26.87625 28.4225 -26.7525 27.845 -26.625 27.25 C-25.99351176 24.97664233 -25.11141809 23.0746471 -24 21 C-23.67 21 -23.34 21 -23 21 C-23 23.64 -23 26.28 -23 29 C-20.36 29 -17.72 29 -15 29 C-14.01 25.04 -13.02 21.08 -12 17 C-13.32 17 -14.64 17 -16 17 C-21.79545455 16.20454545 -21.79545455 16.20454545 -23 15 C-23.04092937 12.66702567 -23.04241723 10.33294775 -23 8 C-21.35 7.67 -19.7 7.34 -18 7 C-17.87625 6.195625 -17.7525 5.39125 -17.625 4.5625 C-17.41875 3.716875 -17.2125 2.87125 -17 2 C-16.34 1.67 -15.68 1.34 -15 1 C-15 1.66 -15 2.32 -15 3 C-14.01 2.34 -13.02 1.68 -12 1 C-7.95630876 0.10140195 -4.13393859 -0.09842711 0 0 Z " fill="#FDE342" transform="translate(53,21)"/>
<path d="M0 0 C2.76725575 -0.23060465 4.592376 -0.19182306 7.125 1 C9.12615779 3.13456831 9.52990811 4.38336468 10.375 7.125 C11.02035632 9.23614021 11.02035632 9.23614021 12 11 C14.90351124 12.16448881 14.90351124 12.16448881 18 12 C19.32 12 20.64 12 22 12 C23.18414294 15.55242882 22.69535532 16.69830562 21.5625 20.1875 C21.13130859 21.53908203 21.13130859 21.53908203 20.69140625 22.91796875 C20.46324219 23.60503906 20.23507813 24.29210937 20 25 C16.59254812 25.76286236 14.35001838 26.11667279 11 25 C10.67 22.69 10.34 20.38 10 18 C9.01 20.31 8.02 22.62 7 25 C6.34 25 5.68 25 5 25 C5 25.99 5 26.98 5 28 C5.99 28 6.98 28 8 28 C8 28.99 8 29.98 8 31 C10.31 31 12.62 31 15 31 C15 30.34 15 29.68 15 29 C16.32 28.67 17.64 28.34 19 28 C19.33 29.98 19.66 31.96 20 34 C20.66 34 21.32 34 22 34 C22 34.66 22 35.32 22 36 C22.99 36 23.98 36 25 36 C25.33 35.34 25.66 34.68 26 34 C26 34.99 26 35.98 26 37 C23.03 37.66 20.06 38.32 17 39 C17.66 38.01 18.32 37.02 19 36 C12.9490696 37.16554807 6.96533774 38.45343096 1 40 C0.34 38.02 -0.32 36.04 -1 34 C2.26225174 33.02596275 5.22738661 32.86584201 8.625 32.875 C9.58664063 32.87242188 10.54828125 32.86984375 11.5390625 32.8671875 C14 33 14 33 16 34 C16.33 33.34 16.66 32.68 17 32 C16.16855469 32.01160156 15.33710937 32.02320313 14.48046875 32.03515625 C13.39378906 32.04417969 12.30710937 32.05320313 11.1875 32.0625 C10.10855469 32.07410156 9.02960937 32.08570313 7.91796875 32.09765625 C5 32 5 32 2 31 C2 31.66 2 32.32 2 33 C1.01 33 0.02 33 -1 33 C-1.71952398 28.32309412 -0.56898727 26.03183074 2.0625 22.3125 C2.63097656 21.56613281 3.19945312 20.81976563 3.78515625 20.05078125 C4.18605469 19.37402344 4.58695313 18.69726562 5 18 C4.27323128 14.92490134 4.27323128 14.92490134 2 13.375 C-0.88010676 9.95487322 -1.0424255 6.39528198 -1 2 C-0.67 1.34 -0.34 0.68 0 0 Z " fill="#F3BB29" transform="translate(19,25)"/>
<path d="M0 0 C0.495 0.99 0.495 0.99 1 2 C-3.95 2 -8.9 2 -14 2 C-14 2.66 -14 3.32 -14 4 C-14.88042969 4.24234375 -15.76085938 4.4846875 -16.66796875 4.734375 C-17.82941406 5.06953125 -18.99085937 5.4046875 -20.1875 5.75 C-21.33605469 6.07484375 -22.48460938 6.3996875 -23.66796875 6.734375 C-27.09081576 8.03449508 -29.22751116 9.65594194 -32 12 C-32.66 12 -33.32 12 -34 12 C-34 12.66 -34 13.32 -34 14 C-33.34 14 -32.68 14 -32 14 C-32 14.66 -32 15.32 -32 16 C-31.38125 16.0825 -30.7625 16.165 -30.125 16.25 C-28 17 -28 17 -26.84375 18.75 C-25.85467415 21.38753559 -25.96781848 22.98116569 -26.375 25.75 C-26.54128906 26.94882812 -26.54128906 26.94882812 -26.7109375 28.171875 C-26.80632813 28.77515625 -26.90171875 29.3784375 -27 30 C-27.33 30 -27.66 30 -28 30 C-28 27.36 -28 24.72 -28 22 C-30.97 21.01 -33.94 20.02 -37 19 C-37.17786056 24.15795631 -37.11596899 28.18029285 -35 33 C-34.34 33.33 -33.68 33.66 -33 34 C-33.51289171 38.4878025 -35.20284728 40.5446937 -38 44 C-39.14087768 46.29613618 -40.06235523 48.60900583 -41 51 C-45.875 48.25 -45.875 48.25 -47 46 C-47.87915216 37.15082911 -46.14183633 30.24732036 -43 22 C-44.65 25.96 -46.3 29.92 -48 34 C-49.56085666 27.75657338 -46.11979747 23.01917044 -43.04248047 17.66650391 C-38.6881687 10.70572355 -32.35035931 6.35725754 -25 3 C-24.33742188 2.6803125 -23.67484375 2.360625 -22.9921875 2.03125 C-15.65776585 -0.98060376 -7.77537089 -0.25758897 0 0 Z " fill="#E49814" transform="translate(56,6)"/>
<path d="M0 0 C0.9075 0.0825 1.815 0.165 2.75 0.25 C2.81058594 0.85328125 2.87117188 1.4565625 2.93359375 2.078125 C3.05927734 3.27695312 3.05927734 3.27695312 3.1875 4.5 C3.30931641 5.68335938 3.30931641 5.68335938 3.43359375 6.890625 C3.67820317 9.24309967 3.67820317 9.24309967 4.4375 11.38671875 C4.540625 12.00160156 4.64375 12.61648437 4.75 13.25 C3.12550757 14.95779973 1.45779973 16.62550757 -0.25 18.25 C-0.25 21.64270924 0.1327006 22.00862848 2.1875 24.5 C4.79729729 28.02695462 5.83470877 30.76043517 5.75 35.25 C3.8125 37.5625 3.8125 37.5625 1.75 39.25 C1.75 39.91 1.75 40.57 1.75 41.25 C0.265 40.755 0.265 40.755 -1.25 40.25 C-0.92 39.59 -0.59 38.93 -0.25 38.25 C-1.9 38.25 -3.55 38.25 -5.25 38.25 C-4.26 36.93 -3.27 35.61 -2.25 34.25 C-3.00925781 34.42917969 -3.76851562 34.60835937 -4.55078125 34.79296875 C-5.54464844 35.00566406 -6.53851563 35.21835937 -7.5625 35.4375 C-8.54863281 35.65792969 -9.53476563 35.87835938 -10.55078125 36.10546875 C-11.44152344 36.15316406 -12.33226562 36.20085938 -13.25 36.25 C-14.24 35.26 -15.23 34.27 -16.25 33.25 C-11.63 33.25 -7.01 33.25 -2.25 33.25 C-2.25 30.94 -2.25 28.63 -2.25 26.25 C-3.9 25.92 -5.55 25.59 -7.25 25.25 C-7.58 22.61 -7.91 19.97 -8.25 17.25 C-9.24 17.25 -10.23 17.25 -11.25 17.25 C-10.92 18.24 -10.59 19.23 -10.25 20.25 C-10.21045766 22.58299825 -10.20598268 24.91708189 -10.25 27.25 C-13.125 27.4375 -13.125 27.4375 -16.25 27.25 C-16.91 26.26 -17.57 25.27 -18.25 24.25 C-16.6 23.92 -14.95 23.59 -13.25 23.25 C-13.59444881 20.77733235 -13.59444881 20.77733235 -14.25 18.25 C-14.91 17.92 -15.57 17.59 -16.25 17.25 C-16.25 16.59 -16.25 15.93 -16.25 15.25 C-14.6 14.59 -12.95 13.93 -11.25 13.25 C-13.23 12.59 -15.21 11.93 -17.25 11.25 C-15.9375 9.75 -15.9375 9.75 -14.25 8.25 C-13.26 8.25 -12.27 8.25 -11.25 8.25 C-10.92 7.26 -10.59 6.27 -10.25 5.25 C-10.25 5.91 -10.25 6.57 -10.25 7.25 C-9.59 7.25 -8.93 7.25 -8.25 7.25 C-8.58 6.26 -8.91 5.27 -9.25 4.25 C-8.59 3.59 -7.93 2.93 -7.25 2.25 C-7.25 2.91 -7.25 3.57 -7.25 4.25 C-6.71375 3.59 -6.1775 2.93 -5.625 2.25 C-3.25 0.25 -3.25 0.25 0 0 Z " fill="#DC7210" transform="translate(74.25,23.75)"/>
<path d="M0 0 C0.33 0.66 0.66 1.32 1 2 C0.41261827 3.64703018 -0.24615119 5.26883609 -0.9375 6.875 C-3.17737978 12.79858451 -4.27027382 18.71401266 -3 25 C-1.08477885 27.33898196 -1.08477885 27.33898196 1 29 C1.32613281 28.39671875 1.65226563 27.7934375 1.98828125 27.171875 C2.42527344 26.37265625 2.86226562 25.5734375 3.3125 24.75 C3.74175781 23.96109375 4.17101563 23.1721875 4.61328125 22.359375 C6 20 6 20 7.66796875 17.890625 C9.28797677 15.97671559 9.28797677 15.97671559 9 13 C9.99 13.33 10.98 13.66 12 14 C10.93709719 17.01155797 9.78540152 19.30564026 7.9375 21.9375 C5.93253051 25.10664532 5.35181936 27.30589675 5 31 C5.99 31 6.98 31 8 31 C8 30.34 8 29.68 8 29 C12.95 29.33 17.9 29.66 23 30 C22.67 30.99 22.34 31.98 22 33 C20.35 33 18.7 33 17 33 C17 32.67 17 32.34 17 32 C13.04 32 9.08 32 5 32 C5.99 33.32 6.98 34.64 8 36 C7.67 36.66 7.34 37.32 7 38 C7.61746094 37.72285156 8.23492187 37.44570312 8.87109375 37.16015625 C14.69652118 34.66861119 19.67777176 33.40788569 26 33 C25.34 33.99 24.68 34.98 24 36 C26.64 35.67 29.28 35.34 32 35 C32 33.35 32 31.7 32 30 C33.65 30.33 35.3 30.66 37 31 C37 33.31 37 35.62 37 38 C33.15684269 39.83074039 30.58291618 40.1466425 26.375 39.625 C23.53645713 39.29059632 20.86113385 39 18 39 C16.68 39 15.36 39 14 39 C13.67 39.99 13.34 40.98 13 42 C15.475 41.505 15.475 41.505 18 41 C17.67 42.32 17.34 43.64 17 45 C16.071875 45.103125 15.14375 45.20625 14.1875 45.3125 C10.96745642 46.0070192 9.97420135 46.47740939 8 49 C7.608125 48.566875 7.21625 48.13375 6.8125 47.6875 C5.03417702 45.87580592 5.03417702 45.87580592 2.55859375 44.76171875 C-0.64444097 42.55627041 -1.36715337 40.72578896 -2.75 37.125 C-3.36101563 35.58199219 -3.36101563 35.58199219 -3.984375 34.0078125 C-7.59749441 23.30742042 -6.88189546 13.47512289 -2.19140625 3.265625 C-1 1 -1 1 0 0 Z " fill="#C26306" transform="translate(13,27)"/>
<path d="M0 0 C0.99 0.33 1.98 0.66 3 1 C6.32926836 9.71893692 5.34959659 24.67259288 2.375 33.3125 C0.14664834 38.23541873 -2.79321582 42.66555545 -6 47 C-6.86625 48.299375 -6.86625 48.299375 -7.75 49.625 C-13.43289396 55.62361029 -21.08683251 60.52136193 -29 63 C-30.32 63 -31.64 63 -33 63 C-33 62.34 -33 61.68 -33 61 C-29.535 60.505 -29.535 60.505 -26 60 C-26 58.02 -26 56.04 -26 54 C-24.989375 53.46375 -23.97875 52.9275 -22.9375 52.375 C-12.57906229 46.36042327 -6.91496898 38.216365 -3.60693359 26.72900391 C-2.59802008 22.19254564 -2.5068357 17.69478519 -2.4375 13.0625 C-2.40307029 11.21987274 -2.3604685 9.37737493 -2.30859375 7.53515625 C-2.29626709 6.734729 -2.28394043 5.93430176 -2.27124023 5.10961914 C-2 3 -2 3 0 0 Z " fill="#E46910" transform="translate(92,32)"/>
<path d="M0 0 C0.66 0 1.32 0 2 0 C3.07258816 2.52058217 3.7684257 4.30669022 4 7 C3.2421875 8.87109375 3.2421875 8.87109375 2.125 10.875 C-2.26638671 19.62790004 -0.88488062 31.05952071 1.75 40.1875 C3.32063427 44.60834122 5.0261369 48.32640441 8 52 C8.40734375 52.55945313 8.8146875 53.11890625 9.234375 53.6953125 C14.47083499 60.49094316 21.7809831 64.72600401 30 67 C32.45140859 67.27821125 34.91179765 67.48557345 37.375 67.625 C38.62023438 67.69976562 39.86546875 67.77453125 41.1484375 67.8515625 C42.55996094 67.92503906 42.55996094 67.92503906 44 68 C44 68.33 44 68.66 44 69 C31.15646205 70.8037456 22.35500966 67.98316626 11.8671875 60.47265625 C7.08112283 56.60558879 4.2664798 52.53295961 1.51953125 47.0390625 C0.14348056 44.7616601 0.14348056 44.7616601 -2.55078125 44.2734375 C-3.76314453 44.13808594 -3.76314453 44.13808594 -5 44 C-7 43 -7 43 -7.61010742 41.23852539 C-9.56697311 30.00339607 -9.59644587 16.10786652 -4 6 C-3.46246094 5.01966797 -3.46246094 5.01966797 -2.9140625 4.01953125 C-1.875 2.3125 -1.875 2.3125 0 0 Z " fill="#F2AC2E" transform="translate(8,20)"/>
<path d="M0 0 C0.66 0 1.32 0 2 0 C2 2.31 2 4.62 2 7 C-4.435 7.495 -4.435 7.495 -11 8 C-10.01 8.33 -9.02 8.66 -8 9 C-7.34 8.67 -6.68 8.34 -6 8 C-3.3276379 7.86584528 -0.67749512 7.95681459 2 8 C1.67 8.99 1.34 9.98 1 11 C1.99 11.33 2.98 11.66 4 12 C4 12.66 4 13.32 4 14 C3.443125 13.86722656 2.88625 13.73445313 2.3125 13.59765625 C-2.7858701 12.41779695 -7.79787441 11.56750461 -13 11 C-12.030625 11.268125 -11.06125 11.53625 -10.0625 11.8125 C-9.051875 12.204375 -8.04125 12.59625 -7 13 C-6 16 -6 16 -6 18 C-5.505 19.485 -5.505 19.485 -5 21 C-6.41377782 21.36552803 -7.83120576 21.71695495 -9.25 22.0625 C-10.03890625 22.25972656 -10.8278125 22.45695312 -11.640625 22.66015625 C-14.10394822 23.01497267 -15.65604132 22.76877544 -18 22 C-17.01 21.67 -16.02 21.34 -15 21 C-13.77030122 17.48809191 -13.77030122 17.48809191 -13 14 C-14.94074861 14.27617533 -14.94074861 14.27617533 -17 15 C-17.99 16.485 -17.99 16.485 -19 18 C-18.01 18 -17.02 18 -16 18 C-16.33 18.66 -16.66 19.32 -17 20 C-19.06640625 20.4140625 -19.06640625 20.4140625 -21.5625 20.625 C-22.38878906 20.69976562 -23.21507813 20.77453125 -24.06640625 20.8515625 C-25.02353516 20.92503906 -25.02353516 20.92503906 -26 21 C-26 21.66 -26 22.32 -26 23 C-35.41002278 23.18451025 -35.41002278 23.18451025 -40 22 C-40.33 21.01 -40.66 20.02 -41 19 C-42.32 19.33 -43.64 19.66 -45 20 C-43.94958421 17.13522966 -43.29875437 16.16086774 -40.5625 14.6875 C-38 14 -38 14 -35 15 C-33.36052962 15.27096422 -31.71318271 15.49636832 -30.0625 15.6875 C-29.20785156 15.79449219 -28.35320313 15.90148437 -27.47265625 16.01171875 C-24.68776213 15.9985202 -23.273035 15.59574241 -21 14 C-20.18415432 10.94091587 -20.18415432 10.94091587 -20 8 C-20.66 7.67 -21.32 7.34 -22 7 C-21.01 6.67 -20.02 6.34 -19 6 C-19 6.99 -19 7.98 -19 9 C-17.02 9 -15.04 9 -13 9 C-13 6.69 -13 4.38 -13 2 C-11.68 2.66 -10.36 3.32 -9 4 C-9 4.66 -9 5.32 -9 6 C-6.03 6 -3.06 6 0 6 C0 4.02 0 2.04 0 0 Z " fill="#E5991B" transform="translate(70,50)"/>
<path d="M0 0 C1.89693861 0.28438952 3.79252027 0.57783792 5.6875 0.875 C6.74324219 1.03742187 7.79898438 1.19984375 8.88671875 1.3671875 C11.79794914 1.95893069 14.28955607 2.8031806 17 4 C17 4.99 17 5.98 17 7 C14.69 6.67 12.38 6.34 10 6 C12.68841859 8.25245881 14.64641875 9.88213958 18 11 C18 10.34 18 9.68 18 9 C20.95481492 6.25624329 21.77471908 6 26 6 C26 6.66 26 7.32 26 8 C25.34 8 24.68 8 24 8 C24.0825 8.90492187 24.165 9.80984375 24.25 10.7421875 C24 14 24 14 22.3125 16.1953125 C16.62477281 20.94149026 10.56889907 25.8919756 3 27 C2.34 26.34 1.68 25.68 1 25 C2.98 24.67 4.96 24.34 7 24 C7.103125 22.9275 7.20625 21.855 7.3125 20.75 C7.97238025 17.15065316 8.40003822 15.49996325 11 13 C11.99 13 12.98 13 14 13 C13.67 12.34 13.34 11.68 13 11 C12.01 10.67 11.02 10.34 10 10 C10 10.99 10 11.98 10 13 C7.36 13 4.72 13 2 13 C2 13.66 2 14.32 2 15 C-11.6332574 15.18451025 -11.6332574 15.18451025 -18 14 C-18 13.67 -18 13.34 -18 13 C-16.02 13 -14.04 13 -12 13 C-12 12.34 -12 11.68 -12 11 C-9.03 10.34 -6.06 9.68 -3 9 C-3.66 9 -4.32 9 -5 9 C-6.33783393 8.68521554 -7.67203709 8.35412344 -9 8 C-8.21625 7.54625 -7.4325 7.0925 -6.625 6.625 C-3.96301969 5.11571258 -3.96301969 5.11571258 -2 3 C0.625 3.375 0.625 3.375 3 4 C1.19642667 7.17772443 -0.37886292 9.37886292 -3 12 C2.94 11.505 2.94 11.505 9 11 C8.01 9.35 7.02 7.7 6 6 C6.33 5.01 6.66 4.02 7 3 C5.824375 3.0928125 5.824375 3.0928125 4.625 3.1875 C3.75875 3.125625 2.8925 3.06375 2 3 C1.34 2.01 0.68 1.02 0 0 Z " fill="#C85C0D" transform="translate(56,60)"/>
<path d="M0 0 C0.495 1.485 0.495 1.485 1 3 C1.99 3.33 2.98 3.66 4 4 C4 4.66 4 5.32 4 6 C3.23816406 6.09796875 2.47632813 6.1959375 1.69140625 6.296875 C-13.09197724 8.43778946 -22.6292004 14.46220299 -32 26 C-32.66 25.34 -33.32 24.68 -34 24 C-34 22.68 -34 21.36 -34 20 C-34.66 19.67 -35.32 19.34 -36 19 C-26.24806587 7.99424577 -15.3355884 -0.29491516 0 0 Z " fill="#FBFBCD" transform="translate(44,0)"/>
<path d="M0 0 C1.41805831 0.28482368 2.83440379 0.57818144 4.25 0.875 C5.03890625 1.03742187 5.8278125 1.19984375 6.640625 1.3671875 C9 2 9 2 13 4 C13 12.58 13 21.16 13 30 C12.01 30 11.02 30 10 30 C7.42113193 23.94526627 6.38979206 18.55925943 6 12 C4.68 12 3.36 12 2 12 C-3.79545455 11.20454545 -3.79545455 11.20454545 -5 10 C-5.04092937 7.66702567 -5.04241723 5.33294775 -5 3 C-3.35 2.67 -1.7 2.34 0 2 C0 1.34 0 0.68 0 0 Z " fill="#FEF491" transform="translate(35,26)"/>
<path d="M0 0 C0.495 0.99 0.495 0.99 1 2 C-3.95 2 -8.9 2 -14 2 C-14 2.66 -14 3.32 -14 4 C-14.88042969 4.24234375 -15.76085938 4.4846875 -16.66796875 4.734375 C-17.82941406 5.06953125 -18.99085937 5.4046875 -20.1875 5.75 C-21.33605469 6.07484375 -22.48460938 6.3996875 -23.66796875 6.734375 C-27.09081576 8.03449508 -29.22751116 9.65594194 -32 12 C-32.66 12 -33.32 12 -34 12 C-34 12.66 -34 13.32 -34 14 C-33.34 14 -32.68 14 -32 14 C-32 14.66 -32 15.32 -32 16 C-31.38125 16.0825 -30.7625 16.165 -30.125 16.25 C-28 17 -28 17 -26.84375 18.75 C-25.85467415 21.38753559 -25.96781848 22.98116569 -26.375 25.75 C-26.54128906 26.94882812 -26.54128906 26.94882812 -26.7109375 28.171875 C-26.80632813 28.77515625 -26.90171875 29.3784375 -27 30 C-27.33 30 -27.66 30 -28 30 C-28 27.36 -28 24.72 -28 22 C-30.97 21.01 -33.94 20.02 -37 19 C-37.33 19.66 -37.66 20.32 -38 21 C-38.99 20.67 -39.98 20.34 -41 20 C-41.33 20.66 -41.66 21.32 -42 22 C-42.45375 22.53625 -42.9075 23.0725 -43.375 23.625 C-45.6136523 26.89687644 -46.69094979 30.25985653 -48 34 C-49.28051365 31.04384278 -48.97087222 29.91982455 -47.84765625 26.828125 C-42.35821219 15.82521306 -36.46557992 8.23687387 -25 3 C-24.33742188 2.6803125 -23.67484375 2.360625 -22.9921875 2.03125 C-15.65776585 -0.98060376 -7.77537089 -0.25758897 0 0 Z " fill="#DF9024" transform="translate(56,6)"/>
<path d="M0 0 C0.99 0 1.98 0 3 0 C-0.06768972 10.56819109 -7.69332716 17.57710099 -17 23 C-21.53074556 25.38945423 -24.81979945 27 -30 27 C-30 26.34 -30 25.68 -30 25 C-26.535 24.505 -26.535 24.505 -23 24 C-23 22.02 -23 20.04 -23 18 C-21.989375 17.46375 -20.97875 16.9275 -19.9375 16.375 C-15.04565426 13.59102275 -10.96658302 9.96658302 -7 6 C-5.68 6.66 -4.36 7.32 -3 8 C-3 7.34 -3 6.68 -3 6 C-2.34 6 -1.68 6 -1 6 C-0.67 4.02 -0.34 2.04 0 0 Z " fill="#F7A608" transform="translate(89,68)"/>
<path d="M0 0 C0.40605469 0.96679688 0.40605469 0.96679688 0.8203125 1.953125 C1.20960937 2.62859375 1.59890625 3.3040625 2 4 C5.45463334 4.9012087 8.41911208 5 12 5 C13.18414294 8.55242882 12.69535532 9.69830562 11.5625 13.1875 C11.27503906 14.08855469 10.98757812 14.98960938 10.69140625 15.91796875 C10.46324219 16.60503906 10.23507813 17.29210937 10 18 C6.59254812 18.76286236 4.35001838 19.11667279 1 18 C0.67 15.69 0.34 13.38 0 11 C-0.99 13.31 -1.98 15.62 -3 18 C-3.66 17.01 -4.32 16.02 -5 15 C-4.3125 12.375 -4.3125 12.375 -3 9 C-2.45118007 7.37740194 -1.90975347 5.75228808 -1.375 4.125 C-0.91666667 2.75 -0.45833333 1.375 0 0 Z " fill="#F0CC33" transform="translate(29,32)"/>
<path d="M0 0 C0.33 0.66 0.66 1.32 1 2 C3.01669827 3.13350534 3.01669827 3.13350534 5 4 C4.67 5.65 4.34 7.3 4 9 C2.68 9.33 1.36 9.66 0 10 C2.31 10.66 4.62 11.32 7 12 C6.67 8.7 6.34 5.4 6 2 C6.99 2 7.98 2 9 2 C9.18175781 2.84884766 9.18175781 2.84884766 9.3671875 3.71484375 C9.53476563 4.44832031 9.70234375 5.18179688 9.875 5.9375 C10.11863281 7.03384766 10.11863281 7.03384766 10.3671875 8.15234375 C10.82961523 10.20700294 10.82961523 10.20700294 13 11 C13 12.98 13 14.96 13 17 C11.54257537 17.08096803 10.08387193 17.13917774 8.625 17.1875 C7.81289062 17.22230469 7.00078125 17.25710937 6.1640625 17.29296875 C5.44992188 17.19628906 4.73578125 17.09960938 4 17 C3.34 16.01 2.68 15.02 2 14 C-1.56769552 13.26393501 -1.56769552 13.26393501 -5 13 C-5.33 10.69 -5.66 8.38 -6 6 C-5.34 6 -4.68 6 -4 6 C-4 4.35 -4 2.7 -4 1 C-2.68 0.67 -1.36 0.34 0 0 Z " fill="#E09012" transform="translate(57,39)"/>
<path d="M0 0 C1.9852357 3.97047139 2.40222022 6.66609658 3 11 C3.391875 12.051875 3.78375 13.10375 4.1875 14.1875 C5 17 5 17 4.125 19.375 C3.75375 19.91125 3.3825 20.4475 3 21 C2.01 21 1.02 21 0 21 C0 20.34 0 19.68 0 19 C-0.66 19 -1.32 19 -2 19 C-2 18.01 -2 17.02 -2 16 C-2.66 15.67 -3.32 15.34 -4 15 C-3.67 14.34 -3.34 13.68 -3 13 C-4.32 13.33 -5.64 13.66 -7 14 C-7 14.66 -7 15.32 -7 16 C-9.31 16 -11.62 16 -14 16 C-14 15.01 -14 14.02 -14 13 C-14.99 13 -15.98 13 -17 13 C-17 12.01 -17 11.02 -17 10 C-16.34 10 -15.68 10 -15 10 C-14.87625 9.4225 -14.7525 8.845 -14.625 8.25 C-13.99351176 5.97664233 -13.11141809 4.0746471 -12 2 C-11.67 2 -11.34 2 -11 2 C-11 4.64 -11 7.28 -11 10 C-8.36 10 -5.72 10 -3 10 C-2.01 6.7 -1.02 3.4 0 0 Z " fill="#EFC441" transform="translate(41,40)"/>
<path d="M0 0 C0.9075 0.0825 1.815 0.165 2.75 0.25 C3.75039787 5.14325047 4.25810641 8.21564052 2 12.8125 C1.2575 13.616875 0.515 14.42125 -0.25 15.25 C-1.24 15.25 -2.23 15.25 -3.25 15.25 C-2.59 14.59 -1.93 13.93 -1.25 13.25 C-2.9 12.26 -4.55 11.27 -6.25 10.25 C-6.91 12.23 -7.57 14.21 -8.25 16.25 C-9.57 15.92 -10.89 15.59 -12.25 15.25 C-11.92 14.59 -11.59 13.93 -11.25 13.25 C-13.23 12.59 -15.21 11.93 -17.25 11.25 C-15.9375 9.75 -15.9375 9.75 -14.25 8.25 C-13.26 8.25 -12.27 8.25 -11.25 8.25 C-10.92 7.26 -10.59 6.27 -10.25 5.25 C-10.25 5.91 -10.25 6.57 -10.25 7.25 C-9.59 7.25 -8.93 7.25 -8.25 7.25 C-8.58 6.26 -8.91 5.27 -9.25 4.25 C-8.59 3.59 -7.93 2.93 -7.25 2.25 C-7.25 2.91 -7.25 3.57 -7.25 4.25 C-6.71375 3.59 -6.1775 2.93 -5.625 2.25 C-3.25 0.25 -3.25 0.25 0 0 Z " fill="#ED9F17" transform="translate(74.25,23.75)"/>
<path d="M0 0 C9.43098981 -0.45818574 17.39332962 -0.44110675 26 4 C26.66 4.66 27.32 5.32 28 6 C27.34 7.65 26.68 9.3 26 11 C22.75118205 10.47599711 19.77803667 9.5961246 16.6875 8.5 C12.43799439 7.03834119 8.46891196 6.40626472 4 6 C4 5.34 4 4.68 4 4 C2.68 3.67 1.36 3.34 0 3 C0 2.01 0 1.02 0 0 Z " fill="#FCEE39" transform="translate(44,0)"/>
<path d="M0 0 C0.556875 0.20625 1.11375 0.4125 1.6875 0.625 C1.3575 1.945 1.0275 3.265 0.6875 4.625 C-1.6225 4.955 -3.9325 5.285 -6.3125 5.625 C-6.3125 6.615 -6.3125 7.605 -6.3125 8.625 C-9.89581625 8.65407084 -13.47910208 8.67182263 -17.0625 8.6875 C-18.07828125 8.69587891 -19.0940625 8.70425781 -20.140625 8.71289062 C-21.1203125 8.71611328 -22.1 8.71933594 -23.109375 8.72265625 C-24.01010742 8.72789307 -24.91083984 8.73312988 -25.83886719 8.73852539 C-28.14639804 8.63262312 -30.10384405 8.27632813 -32.3125 7.625 C-32.3125 6.965 -32.3125 6.305 -32.3125 5.625 C-29.31169881 3.92134157 -26.93473291 3.31383772 -23.50390625 3.0625 C-22.59189453 2.98773438 -21.67988281 2.91296875 -20.74023438 2.8359375 C-19.79470703 2.76632813 -18.84917969 2.69671875 -17.875 2.625 C-12.41836997 2.22163515 -4.93211421 -0.7998023 0 0 Z " fill="#EA660F" transform="translate(65.3125,87.375)"/>
<path d="M0 0 C0 0.66 0 1.32 0 2 C-0.66 2 -1.32 2 -2 2 C-1.87625 3.35738281 -1.87625 3.35738281 -1.75 4.7421875 C-2 8 -2 8 -3.6875 10.1953125 C-9.37522719 14.94149026 -15.43110093 19.8919756 -23 21 C-23.66 20.34 -24.32 19.68 -25 19 C-23.02 18.67 -21.04 18.34 -19 18 C-18.8453125 16.39125 -18.8453125 16.39125 -18.6875 14.75 C-17.71457086 9.44311377 -17.71457086 9.44311377 -15 7 C-11.3125 5.75 -11.3125 5.75 -8 5 C-8 4.34 -8 3.68 -8 3 C-5.04518508 0.25624329 -4.22528092 0 0 0 Z " fill="#C8540C" transform="translate(82,66)"/>
<path d="M0 0 C0.33 0.66 0.66 1.32 1 2 C0.41261827 3.64703018 -0.24615119 5.26883609 -0.9375 6.875 C-3.17737978 12.79858451 -4.27027382 18.71401266 -3 25 C-1.08477885 27.33898196 -1.08477885 27.33898196 1 29 C1.32613281 28.39671875 1.65226563 27.7934375 1.98828125 27.171875 C2.42527344 26.37265625 2.86226562 25.5734375 3.3125 24.75 C3.74175781 23.96109375 4.17101563 23.1721875 4.61328125 22.359375 C6 20 6 20 7.66796875 17.890625 C9.28797677 15.97671559 9.28797677 15.97671559 9 13 C9.99 13.33 10.98 13.66 12 14 C10.93709719 17.01155797 9.78540152 19.30564026 7.9375 21.9375 C5.93253051 25.10664532 5.35181936 27.30589675 5 31 C5.99 31 6.98 31 8 31 C8 30.34 8 29.68 8 29 C12.95 29.33 17.9 29.66 23 30 C22.67 30.99 22.34 31.98 22 33 C20.35 33 18.7 33 17 33 C17 32.67 17 32.34 17 32 C13.04 32 9.08 32 5 32 C4.67 32.66 4.34 33.32 4 34 C4 33.34 4 32.68 4 32 C1.52733235 32.34444881 1.52733235 32.34444881 -1 33 C-1.33 33.66 -1.66 34.32 -2 35 C-2.66 33.68 -3.32 32.36 -4 31 C-4.33 31 -4.66 31 -5 31 C-7.46551258 20.02644809 -6.22945437 10.94453618 -1 1 C-0.67 0.67 -0.34 0.34 0 0 Z " fill="#C37005" transform="translate(13,27)"/>
<path d="M0 0 C0.66 0 1.32 0 2 0 C3.84970294 3.78748697 4.39991413 5.78703731 3.0546875 9.8671875 C2.11982396 12.05209715 1.18492655 14.23699231 0.25 16.421875 C-1.75986615 22.17511686 -1.90020669 27.94889671 -2 34 C-2.33 34 -2.66 34 -3 34 C-3 32.02 -3 30.04 -3 28 C-3.66 28 -4.32 28 -5 28 C-4.87431641 26.82630859 -4.87431641 26.82630859 -4.74609375 25.62890625 C-4.64425781 24.61699219 -4.54242188 23.60507812 -4.4375 22.5625 C-4.33308594 21.55316406 -4.22867187 20.54382813 -4.12109375 19.50390625 C-4.06115234 18.26447266 -4.06115234 18.26447266 -4 17 C-4.33 16.67 -4.66 16.34 -5 16 C-5.99 18.475 -5.99 18.475 -7 21 C-8.94372988 15.65787787 -6.1563326 10.9318102 -4 6 C-2.80042706 3.74273908 -1.62023953 1.99829542 0 0 Z " fill="#FAE647" transform="translate(8,20)"/>
<path d="M0 0 C15.76022681 -0.55407047 15.76022681 -0.55407047 23 3 C24.4540625 3.5878125 24.4540625 3.5878125 25.9375 4.1875 C32.45753036 8.04629348 37.8352582 12.02283109 40.0625 19.5 C40.40653847 20.99308197 40.73108041 22.49157748 41 24 C39.02 24.99 39.02 24.99 37 26 C37 23.69 37 21.38 37 19 C36.34 19 35.68 19 35 19 C35 18.01 35 17.02 35 16 C32.06556598 16.26656572 32.06556598 16.26656572 29 17 C28.34 17.99 27.68 18.98 27 20 C26.34 20 25.68 20 25 20 C25.4793247 15.68607774 26.7457985 13.83430453 30 11 C23.722669 3.35803182 14.82440777 2.46167339 5.58911133 1.50732422 C3.72701816 1.32812088 1.86361537 1.16261167 0 1 C0 0.67 0 0.34 0 0 Z " fill="#C65F02" transform="translate(42,8)"/>
<path d="M0 0 C0.33 0 0.66 0 1 0 C1.62906047 13.76943466 0.46889385 26.11666558 -9 37 C-18.21373957 46.09599209 -26.81745519 50.31665478 -39.6875 50.25 C-42.12837563 50.20003018 -44.56075616 50.11017914 -47 50 C-47 49.67 -47 49.34 -47 49 C-45.96101563 48.90203125 -44.92203125 48.8040625 -43.8515625 48.703125 C-29.7151208 47.246355 -19.0269921 43.93993326 -9.1796875 32.97265625 C-2.16888857 23.51336222 -0.4209969 11.49321531 0 0 Z " fill="#FACF64" transform="translate(89,40)"/>
<path d="M0 0 C1.44977894 2.34112451 2.04314411 3.5796929 1.7578125 6.359375 C1.54898437 7.14828125 1.34015625 7.9371875 1.125 8.75 C0.92132813 9.54921875 0.71765625 10.3484375 0.5078125 11.171875 C0.34023438 11.77515625 0.17265625 12.3784375 0 13 C0.66 13 1.32 13 2 13 C2.66 18.28 3.32 23.56 4 29 C3.01 29.33 2.02 29.66 1 30 C-2 28 -2 28 -2.67480469 26.13232422 C-3.23417653 22.46449116 -3.22606337 18.82919339 -3.25 15.125 C-3.270625 14.33480469 -3.29125 13.54460938 -3.3125 12.73046875 C-3.34591065 7.71051904 -2.6876524 4.39926261 0 0 Z " fill="#F2BB24" transform="translate(3,35)"/>
<path d="M0 0 C2.94904167 0.30092262 4.47320786 0.53583169 7 2 C9.10567846 4.70790251 10.8104712 7.49647165 12.51953125 10.46875 C13.8924079 13.06132815 13.8924079 13.06132815 16 15 C15.67 15.66 15.34 16.32 15 17 C14.01 17 13.02 17 12 17 C11.67 17.66 11.34 18.32 11 19 C0 7.38202247 0 7.38202247 0 0 Z " fill="#E1830D" transform="translate(2,63)"/>
<path d="M0 0 C0.495 0.99 0.495 0.99 1 2 C-3.95 2 -8.9 2 -14 2 C-14 2.66 -14 3.32 -14 4 C-15.23363281 4.29390625 -15.23363281 4.29390625 -16.4921875 4.59375 C-25.00771553 6.87504619 -30.45623266 10.19954092 -37 16 C-37.66 16.33 -38.32 16.66 -39 17 C-38.35330586 15.65686601 -37.68096422 14.32608822 -37 13 C-36.649375 12.195625 -36.29875 11.39125 -35.9375 10.5625 C-33.01856846 6.70197764 -29.32890694 5.0220095 -25 3 C-24.33097656 2.67644531 -23.66195312 2.35289063 -22.97265625 2.01953125 C-15.64185936 -0.97751239 -7.7676913 -0.25733456 0 0 Z " fill="#D67E22" transform="translate(56,6)"/>
<path d="M0 0 C0.99 0.33 1.98 0.66 3 1 C4.58466433 4.6583108 4.11064817 8.83147995 4.0625 12.75 C4.05798828 13.44738281 4.05347656 14.14476562 4.04882812 14.86328125 C4.0371002 16.57555803 4.01916653 18.28779033 4 20 C3.34 20 2.68 20 2 20 C2 21.65 2 23.3 2 25 C1.34 24.67 0.68 24.34 0 24 C0.01160156 23.36191406 0.02320312 22.72382812 0.03515625 22.06640625 C0.04417969 21.24011719 0.05320312 20.41382812 0.0625 19.5625 C0.07990234 18.32693359 0.07990234 18.32693359 0.09765625 17.06640625 C0.23267348 15.00836062 0.23267348 15.00836062 -1 14 C-1 15.98 -1 17.96 -1 20 C-1.33 20 -1.66 20 -2 20 C-2.05392397 17.22890693 -2.09363455 14.45886182 -2.125 11.6875 C-2.14175781 10.90181641 -2.15851563 10.11613281 -2.17578125 9.30664062 C-2.18544922 8.1706543 -2.18544922 8.1706543 -2.1953125 7.01171875 C-2.20578613 6.31522217 -2.21625977 5.61872559 -2.22705078 4.90112305 C-2 3 -2 3 0 0 Z " fill="#E98C11" transform="translate(92,32)"/>
<path d="M0 0 C3.43950364 0.61198376 5.51564485 1.92058847 8.25 4.0625 C8.95640625 4.61035156 9.6628125 5.15820312 10.390625 5.72265625 C11.18726563 6.35494141 11.18726563 6.35494141 12 7 C11 9 10 11 9 13 C6.85379208 12.0379068 5.27107775 11.3252933 3.75 9.5 C1.46112583 7.53810785 -0.89784276 7.17287487 -3.79296875 6.5390625 C-7.32290721 5.67688284 -10.62083733 4.32752819 -14 3 C-14 2.67 -14 2.34 -14 2 C-9.28596212 2.47939368 -5.33420699 2.96834048 -1 5 C-0.67 3.35 -0.34 1.7 0 0 Z " fill="#F6CA27" transform="translate(71,6)"/>
<path d="M0 0 C0.99 0 1.98 0 3 0 C3.13277344 0.68707031 3.26554687 1.37414062 3.40234375 2.08203125 C3.57894531 2.98308594 3.75554688 3.88414063 3.9375 4.8125 C4.11152344 5.70582031 4.28554688 6.59914063 4.46484375 7.51953125 C4.97741153 10.11397171 4.97741153 10.11397171 6 13 C6.66 13.33 7.32 13.66 8 14 C7.62952882 16.74148672 7.31412056 18.58593199 5.625 20.8125 C4 22 4 22 1 22 C1.20625 20.80375 1.4125 19.6075 1.625 18.375 C2.13581838 14.4423982 1.56734717 11.6878757 0 8 C-1.32 9.32 -2.64 10.64 -4 12 C-3.53898164 7.29761275 -2.96823597 3.76737643 0 0 Z " fill="#E29F16" transform="translate(15,26)"/>
<path d="M0 0 C0.66 0 1.32 0 2 0 C2.33 1.98 2.66 3.96 3 6 C3.66 6 4.32 6 5 6 C5 6.66 5 7.32 5 8 C5.99 8 6.98 8 8 8 C8.33 7.34 8.66 6.68 9 6 C9 6.99 9 7.98 9 9 C6.03 9.66 3.06 10.32 0 11 C0.66 10.01 1.32 9.02 2 8 C-4.0509304 9.16554807 -10.03466226 10.45343096 -16 12 C-16.66 10.02 -17.32 8.04 -18 6 C-14.73774826 5.02596275 -11.77261339 4.86584201 -8.375 4.875 C-7.41335937 4.87242188 -6.45171875 4.86984375 -5.4609375 4.8671875 C-3 5 -3 5 -1 6 C-1.020625 5.195625 -1.04125 4.39125 -1.0625 3.5625 C-1 1 -1 1 0 0 Z " fill="#E8A722" transform="translate(36,53)"/>
<path d="M0 0 C-1 2 -1 2 -4 4 C-5.13350534 6.01669827 -5.13350534 6.01669827 -6 8 C-6.33 8.33 -6.66 8.66 -7 9 C-6.01 9.66 -5.02 10.32 -4 11 C-2.93753473 12.96752828 -1.92862192 14.96587579 -1 17 C-2.98 17 -4.96 17 -7 17 C-7.433125 16.030625 -7.86625 15.06125 -8.3125 14.0625 C-9.7014861 10.72268235 -9.7014861 10.72268235 -13 10 C-13 9.34 -13 8.68 -13 8 C-13.66 8 -14.32 8 -15 8 C-15 7.34 -15 6.68 -15 6 C-13.57421875 4.74609375 -13.57421875 4.74609375 -11.6875 3.4375 C-11.07261719 3.00308594 -10.45773438 2.56867187 -9.82421875 2.12109375 C-6.5137164 0.08658802 -3.78957383 -0.10242091 0 0 Z " fill="#F2B92D" transform="translate(37,12)"/>
<path d="M0 0 C0.66 0 1.32 0 2 0 C2 2.31 2 4.62 2 7 C1.34 7 0.68 7 0 7 C0.020625 8.093125 0.04125 9.18625 0.0625 10.3125 C0 14 0 14 -1 17 C-0.34 17 0.32 17 1 17 C1 18.65 1 20.3 1 22 C1.99 21.67 2.98 21.34 4 21 C6 23 6 23 6.125 26.125 C6.08375 27.07375 6.0425 28.0225 6 29 C4.02 29 2.04 29 0 29 C0 28.01 0 27.02 0 26 C-0.66 26 -1.32 26 -2 26 C-2 19.4 -2 12.8 -2 6 C-1.34 6 -0.68 6 0 6 C0 4.02 0 2.04 0 0 Z " fill="#F9CE31" transform="translate(51,30)"/>
<path d="M0 0 C2 1 2 1 2.8515625 3.06640625 C3.10679688 3.89011719 3.36203125 4.71382812 3.625 5.5625 C3.88539062 6.38878906 4.14578125 7.21507813 4.4140625 8.06640625 C4.60742188 8.70449219 4.80078125 9.34257813 5 10 C5.886875 9.79375 6.77375 9.5875 7.6875 9.375 C11.2252711 8.97449761 12.86632967 9.43316484 16 11 C16 11.66 16 12.32 16 13 C17.98 12.34 19.96 11.68 22 11 C21.67 12.32 21.34 13.64 21 15 C20.071875 15.103125 19.14375 15.20625 18.1875 15.3125 C14.96745642 16.0070192 13.97420135 16.47740939 12 19 C11.608125 18.566875 11.21625 18.13375 10.8125 17.6875 C9.04728019 15.86807449 9.04728019 15.86807449 6.5625 14.875 C2.79017733 12.1147639 1.36661522 8.40523454 0 4 C0 2.68 0 1.36 0 0 Z " fill="#B65C04" transform="translate(9,57)"/>
<path d="M0 0 C1.79068573 2.6860286 2.66055791 4.6626589 3.625 7.6875 C3.88539062 8.49574219 4.14578125 9.30398437 4.4140625 10.13671875 C4.60742188 10.75160156 4.80078125 11.36648437 5 12 C4.34 12 3.68 12 3 12 C3 12.66 3 13.32 3 14 C2.01 13.67 1.02 13.34 0 13 C-0.33 10.36 -0.66 7.72 -1 5 C-1.99 5 -2.98 5 -4 5 C-3.67 5.99 -3.34 6.98 -3 8 C-2.96045766 10.33299825 -2.95598268 12.66708189 -3 15 C-5.875 15.1875 -5.875 15.1875 -9 15 C-9.66 14.01 -10.32 13.02 -11 12 C-9.35 11.67 -7.7 11.34 -6 11 C-6.34444881 8.52733235 -6.34444881 8.52733235 -7 6 C-7.66 5.67 -8.32 5.34 -9 5 C-9 4.34 -9 3.68 -9 3 C-6.6875 2.375 -6.6875 2.375 -4 2 C-3.01 2.66 -2.02 3.32 -1 4 C-0.67 2.68 -0.34 1.36 0 0 Z " fill="#E08311" transform="translate(67,36)"/>
<path d="M0 0 C0.99 0 1.98 0 3 0 C1.70931268 4.63288815 -0.0438844 7.69753944 -3.125 11.375 C-4.21167969 12.68597656 -4.21167969 12.68597656 -5.3203125 14.0234375 C-6.15175781 15.00183594 -6.15175781 15.00183594 -7 16 C-8.32 15.67 -9.64 15.34 -11 15 C-11.66 16.32 -12.32 17.64 -13 19 C-13.99 18.67 -14.98 18.34 -16 18 C-15.505 16.515 -15.505 16.515 -15 15 C-14.01 14.67 -13.02 14.34 -12 14 C-11.9175 13.236875 -11.835 12.47375 -11.75 11.6875 C-10.85384206 8.47626739 -9.78388975 7.70625501 -7 6 C-5.68 6.66 -4.36 7.32 -3 8 C-3 7.34 -3 6.68 -3 6 C-2.34 6 -1.68 6 -1 6 C-0.67 4.02 -0.34 2.04 0 0 Z " fill="#F6981A" transform="translate(89,68)"/>
<path d="M0 0 C0.33 0.99 0.66 1.98 1 3 C1.99 3.33 2.98 3.66 4 4 C4 4.66 4 5.32 4 6 C3.21496094 6.12117187 2.42992188 6.24234375 1.62109375 6.3671875 C-4.05051213 7.27186083 -9.52492254 8.2579299 -15 10 C-15 9.34 -15 8.68 -15 8 C-13.35 7.34 -11.7 6.68 -10 6 C-10.66 4.68 -11.32 3.36 -12 2 C-7.8794254 0.00214565 -4.54805635 -0.17835515 0 0 Z " fill="#FDF3AD" transform="translate(44,0)"/>
<path d="M0 0 C1.41805831 0.28482368 2.83440379 0.57818144 4.25 0.875 C5.03890625 1.03742187 5.8278125 1.19984375 6.640625 1.3671875 C9 2 9 2 13 4 C13 8.95 13 13.9 13 19 C12.67 19 12.34 19 12 19 C12 14.38 12 9.76 12 5 C7.05 5 2.1 5 -3 5 C-3 5.66 -3 6.32 -3 7 C0.96 7.99 0.96 7.99 5 9 C3.875 10.5625 3.875 10.5625 2 12 C-3.43478261 11.56521739 -3.43478261 11.56521739 -5 10 C-5.04092937 7.66702567 -5.04241723 5.33294775 -5 3 C-3.35 2.67 -1.7 2.34 0 2 C0 1.34 0 0.68 0 0 Z " fill="#FCEF6B" transform="translate(35,26)"/>
<path d="M0 0 C0.99 0 1.98 0 3 0 C3.18175781 0.84884766 3.18175781 0.84884766 3.3671875 1.71484375 C3.53476563 2.44832031 3.70234375 3.18179688 3.875 3.9375 C4.11863281 5.03384766 4.11863281 5.03384766 4.3671875 6.15234375 C4.82961523 8.20700294 4.82961523 8.20700294 7 9 C7 10.98 7 12.96 7 15 C4.03 15 1.06 15 -2 15 C-2.66 13.68 -3.32 12.36 -4 11 C-2.35 10.67 -0.7 10.34 1 10 C0.67 6.7 0.34 3.4 0 0 Z " fill="#FAB92B" transform="translate(63,41)"/>
<path d="M0 0 C-0.33 1.32 -0.66 2.64 -1 4 C-3.31 4.33 -5.62 4.66 -8 5 C-8 5.99 -8 6.98 -8 8 C-10.31 8 -12.62 8 -15 8 C-14.34 7.67 -13.68 7.34 -13 7 C-13 5.68 -13 4.36 -13 3 C-16.3 3 -19.6 3 -23 3 C-23 2.67 -23 2.34 -23 2 C-22.04738281 1.95101562 -21.09476563 1.90203125 -20.11328125 1.8515625 C-18.85902344 1.77679688 -17.60476562 1.70203125 -16.3125 1.625 C-14.45044922 1.52058594 -14.45044922 1.52058594 -12.55078125 1.4140625 C-0.10165663 -0.0376506 -0.10165663 -0.0376506 0 0 Z " fill="#F07B17" transform="translate(67,88)"/>
<path d="M0 0 C0.8971875 0.309375 0.8971875 0.309375 1.8125 0.625 C1.1525 1.553125 0.4925 2.48125 -0.1875 3.4375 C-2.45324554 6.42136556 -2.45324554 6.42136556 -2.1875 9.625 C-3.5075 9.955 -4.8275 10.285 -6.1875 10.625 C-6.1875 9.965 -6.1875 9.305 -6.1875 8.625 C-7.1775 8.625 -8.1675 8.625 -9.1875 8.625 C-9.1875 7.965 -9.1875 7.305 -9.1875 6.625 C-10.5075 5.965 -11.8275 5.305 -13.1875 4.625 C-12.5275 3.635 -11.8675 2.645 -11.1875 1.625 C-9.18795254 1.58245644 -7.18708364 1.58419217 -5.1875 1.625 C-2.1875 -0.375 -2.1875 -0.375 0 0 Z " fill="#ECAF13" transform="translate(68.1875,21.375)"/>
<path d="M0 0 C2.625 0.375 2.625 0.375 5 1 C3.26440562 4.057952 1.61527381 6.63379989 -1 9 C0.32 9 1.64 9 3 9 C3 9.66 3 10.32 3 11 C-3.27 11 -9.54 11 -16 11 C-16 10.67 -16 10.34 -16 10 C-14.02 10 -12.04 10 -10 10 C-10 9.34 -10 8.68 -10 8 C-7.03 7.34 -4.06 6.68 -1 6 C-1.66 6 -2.32 6 -3 6 C-4.33783393 5.68521554 -5.67203709 5.35412344 -7 5 C-6.21625 4.54625 -5.4325 4.0925 -4.625 3.625 C-1.96301969 2.11571258 -1.96301969 2.11571258 0 0 Z " fill="#CE700B" transform="translate(54,63)"/>
<path d="M0 0 C1.2375 0.37125 1.2375 0.37125 2.5 0.75 C5.59195917 2.29597958 6.47807355 3.9561471 8 7 C3.83861737 7.08159574 0.0527516 6.98248524 -4 6 C-4 5.01 -4 4.02 -4 3 C-4.99 3.66 -5.98 4.32 -7 5 C-7.99 4.67 -8.98 4.34 -10 4 C-7.26634436 -0.10048346 -4.7993062 -1.59976873 0 0 Z " fill="#F5BB31" transform="translate(35,65)"/>
<path d="M0 0 C1.134375 0.4125 2.26875 0.825 3.4375 1.25 C4.4375 4.25 4.4375 4.25 4.4375 6.25 C4.7675 7.24 5.0975 8.23 5.4375 9.25 C4.02372218 9.61552803 2.60629424 9.96695495 1.1875 10.3125 C0.39859375 10.50972656 -0.3903125 10.70695312 -1.203125 10.91015625 C-3.66644822 11.26497267 -5.21854132 11.01877544 -7.5625 10.25 C-6.5725 9.92 -5.5825 9.59 -4.5625 9.25 C-3.33280122 5.73809191 -3.33280122 5.73809191 -2.5625 2.25 C-3.5525 1.59 -4.5425 0.93 -5.5625 0.25 C-3.5625 -0.75 -3.5625 -0.75 0 0 Z " fill="#DF7C12" transform="translate(59.5625,61.75)"/>
<path d="M0 0 C0.33 0 0.66 0 1 0 C1 2.64 1 5.28 1 8 C3.475 8.99 3.475 8.99 6 10 C5.67 11.32 5.34 12.64 5 14 C2.69 14 0.38 14 -2 14 C-2 13.01 -2 12.02 -2 11 C-2.99 11 -3.98 11 -5 11 C-5 10.01 -5 9.02 -5 8 C-4.34 8 -3.68 8 -3 8 C-2.87625 7.4225 -2.7525 6.845 -2.625 6.25 C-1.99351176 3.97664233 -1.11141809 2.0746471 0 0 Z " fill="#FAE372" transform="translate(29,42)"/>
<path d="M0 0 C0.66 0.66 1.32 1.32 2 2 C1.34 3.65 0.68 5.3 0 7 C-4.84688192 6.21824485 -9.3766367 4.60155722 -14 3 C-9.57621813 -1.62260353 -6.23782822 -1.27066871 0 0 Z " fill="#FCE531" transform="translate(70,4)"/>
<path d="M0 0 C4.35535069 1.16142685 6.64619703 2.07699505 9 6 C6.42098087 9.29541333 4.04060914 9.50523153 0 10 C-0.66 10.20625 -1.32 10.4125 -2 10.625 C-4.81127313 11.15211371 -7.22351473 10.56791744 -10 10 C-10.33 9.01 -10.66 8.02 -11 7 C-9.906875 7.185625 -8.81375 7.37125 -7.6875 7.5625 C-4.06375867 8.2578068 -4.06375867 8.2578068 -1 7 C0.32 7 1.64 7 3 7 C3 5.68 3 4.36 3 3 C1.68 2.34 0.36 1.68 -1 1 C-0.67 0.67 -0.34 0.34 0 0 Z " fill="#D28307" transform="translate(64,13)"/>
<path d="M0 0 C0.33292585 4.24480464 0.43885872 6.35542625 -2 9.9375 C-2.66 10.618125 -3.32 11.29875 -4 12 C-4.66 11.67 -5.32 11.34 -6 11 C-5.34 10.34 -4.68 9.68 -4 9 C-4.825 8.5875 -5.65 8.175 -6.5 7.75 C-7.325 7.1725 -8.15 6.595 -9 6 C-9 4.68 -9 3.36 -9 2 C-7.68786298 1.66524067 -6.37527913 1.33223233 -5.0625 1 C-3.96615234 0.7215625 -3.96615234 0.7215625 -2.84765625 0.4375 C-1 0 -1 0 0 0 Z " fill="#F39E1E" transform="translate(77,28)"/>
<path d="M0 0 C4.04420651 1.77945087 7.46078487 4.39529673 11 7 C8.50907189 8.24546405 7.58919267 7.7767578 5 7 C4.67 7.99 4.34 8.98 4 10 C1.13792848 8.71700242 -1.0245088 7.469364 -3 5 C-3 4.01 -3 3.02 -3 2 C-2.01 2 -1.02 2 0 2 C0 1.34 0 0.68 0 0 Z " fill="#DA7807" transform="translate(17,78)"/>
<path d="M0 0 C0.33 0 0.66 0 1 0 C1.65473869 14.33150245 -0.08258364 25.2290104 -9 37 C-9.66 36.34 -10.32 35.68 -11 35 C-10.41992188 34.26910156 -10.41992188 34.26910156 -9.828125 33.5234375 C-2.52479501 23.58078529 -0.44443756 12.13314551 0 0 Z " fill="#FAC640" transform="translate(89,40)"/>
<path d="M0 0 C15.76022681 -0.55407047 15.76022681 -0.55407047 23 3 C24.4540625 3.5878125 24.4540625 3.5878125 25.9375 4.1875 C30.4708559 6.87050655 34.16455801 10.41173094 38 14 C37.67 14.66 37.34 15.32 37 16 C36.21689453 15.22076172 36.21689453 15.22076172 35.41796875 14.42578125 C24.68109422 4.25301571 14.25680916 2.11981971 0 1 C0 0.67 0 0.34 0 0 Z " fill="#B15502" transform="translate(42,8)"/>
<path d="M0 0 C3.465 1.485 3.465 1.485 7 3 C6.67 3.99 6.34 4.98 6 6 C6.61875 5.34 7.2375 4.68 7.875 4 C10 2 10 2 12 2 C11.8125 3.8125 11.8125 3.8125 11 6 C8.4375 7.75 8.4375 7.75 6 9 C6.33 10.32 6.66 11.64 7 13 C5.68 13 4.36 13 3 13 C2.49487756 11.39743892 1.99608373 9.79288208 1.5 8.1875 C1.2215625 7.29417969 0.943125 6.40085937 0.65625 5.48046875 C0 3 0 3 0 0 Z " fill="#C45F02" transform="translate(67,33)"/>
<path d="M0 0 C1.65 0 3.3 0 5 0 C5.33 1.98 5.66 3.96 6 6 C4.35 6.33 2.7 6.66 1 7 C2.65 9.64 4.3 12.28 6 15 C2 14 2 14 0.25 11.3125 C-1.03966191 7.89489594 -1.32850484 5.61355326 -1 2 C-0.67 1.34 -0.34 0.68 0 0 Z " fill="#FBD146" transform="translate(19,25)"/>
<path d="M0 0 C2.71843438 3.62457917 3.41789544 4.80884715 4 9 C3.01 9.66 2.02 10.32 1 11 C0.4547378 13.92167234 0.07321151 16.67824236 -0.1875 19.625 C-0.26935547 20.42679688 -0.35121094 21.22859375 -0.43554688 22.0546875 C-0.63596151 24.03525571 -0.8195807 26.01751032 -1 28 C-1.33 28 -1.66 28 -2 28 C-2.33 22.39 -2.66 16.78 -3 11 C-2.34 11 -1.68 11 -1 11 C-0.67 7.37 -0.34 3.74 0 0 Z " fill="#EDA71B" transform="translate(90,24)"/>
<path d="M0 0 C0.66 0.33 1.32 0.66 2 1 C2 13.15151515 2 13.15151515 -2 18 C-2.33 18.99 -2.66 19.98 -3 21 C-3.66 20.67 -4.32 20.34 -5 20 C-4.58427734 18.58847656 -4.58427734 18.58847656 -4.16015625 17.1484375 C-3.79792969 15.90320312 -3.43570313 14.65796875 -3.0625 13.375 C-2.70285156 12.14523438 -2.34320313 10.91546875 -1.97265625 9.6484375 C-1.11514028 6.43189164 -0.48096015 3.29078001 0 0 Z M3 6 C3.66 6 4.32 6 5 6 C5 7.65 5 9.3 5 11 C4.34 11 3.68 11 3 11 C3 9.35 3 7.7 3 6 Z " fill="#DD7A09" transform="translate(91,46)"/>
<path d="M0 0 C-0.66 3.3 -1.32 6.6 -2 10 C-7 11 -7 11 -9 10 C-8.67 9.01 -8.34 8.02 -8 7 C-7.01 7.33 -6.02 7.66 -5 8 C-4.34 5.69 -3.68 3.38 -3 1 C-4.65 1.66 -6.3 2.32 -8 3 C-8.66 2.01 -9.32 1.02 -10 0 C-6.30581799 -1.231394 -3.7943739 -0.64432764 0 0 Z " fill="#D38C0B" transform="translate(41,40)"/>
<path d="M0 0 C1.36125 0.12375 1.36125 0.12375 2.75 0.25 C3.08 3.22 3.41 6.19 3.75 9.25 C3.09 7.93 2.43 6.61 1.75 5.25 C-1.55 5.58 -4.85 5.91 -8.25 6.25 C-8.58 5.59 -8.91 4.93 -9.25 4.25 C-8.59 3.59 -7.93 2.93 -7.25 2.25 C-7.25 2.91 -7.25 3.57 -7.25 4.25 C-6.71375 3.59 -6.1775 2.93 -5.625 2.25 C-3.25 0.25 -3.25 0.25 0 0 Z " fill="#E1850D" transform="translate(74.25,23.75)"/>
<path d="M0 0 C0.66 0 1.32 0 2 0 C2 6.93 2 13.86 2 21 C1.67 21 1.34 21 1 21 C1 19.02 1 17.04 1 15 C0.34 15 -0.32 15 -1 15 C-0.91621094 14.24074219 -0.83242188 13.48148438 -0.74609375 12.69921875 C-0.64425781 11.70535156 -0.54242188 10.71148437 -0.4375 9.6875 C-0.33308594 8.70136719 -0.22867187 7.71523438 -0.12109375 6.69921875 C0.16602527 3.90069653 0.16602527 3.90069653 -1 1 C-0.67 0.67 -0.34 0.34 0 0 Z M-3 2 C-2.34 2.33 -1.68 2.66 -1 3 C-1.66 4.65 -2.32 6.3 -3 8 C-4.125 4.25 -4.125 4.25 -3 2 Z " fill="#FCD446" transform="translate(4,33)"/>
<path d="M0 0 C0.98484375 0.00902344 1.9696875 0.01804688 2.984375 0.02734375 C4.10585938 0.04474609 4.10585938 0.04474609 5.25 0.0625 C3.25 1.0625 1.25 2.0625 -0.75 3.0625 C-0.42 3.7225 -0.09 4.3825 0.25 5.0625 C-2.39 5.7225 -5.03 6.3825 -7.75 7.0625 C-8.41 5.0825 -9.07 3.1025 -9.75 1.0625 C-6.43929162 0.06140485 -3.44915231 -0.04106134 0 0 Z " fill="#F1A623" transform="translate(27.75,57.9375)"/>
<path d="M0 0 C0.99 0.33 1.98 0.66 3 1 C0.03 4.3 -2.94 7.6 -6 11 C-6.66 10.34 -7.32 9.68 -8 9 C-8 7.68 -8 6.36 -8 5 C-8.66 4.67 -9.32 4.34 -10 4 C-6.91190305 2.23537317 -5.76687864 2 -2 2 C-1.34 1.34 -0.68 0.68 0 0 Z " fill="#FDF3A8" transform="translate(18,15)"/>
<path d="M0 0 C6.49465992 1.34794829 6.49465992 1.34794829 8.9375 4.5 C10 7 10 7 10 9 C9.34 9 8.68 9 8 9 C8 8.34 8 7.68 8 7 C7.01 7 6.02 7 5 7 C5 7.66 5 8.32 5 9 C4.34 9 3.68 9 3 9 C0 3.375 0 3.375 0 0 Z " fill="#E3930F" transform="translate(2,63)"/>
<path d="M0 0 C2.475 0.99 2.475 0.99 5 2 C5 5.3 5 8.6 5 12 C4.01 12 3.02 12 2 12 C1.4654744 10.75579353 0.94791389 9.50429064 0.4375 8.25 C0.14746094 7.55390625 -0.14257812 6.8578125 -0.44140625 6.140625 C-1.07831803 3.69987216 -0.80248831 2.3596345 0 0 Z " fill="#FDE675" transform="translate(43,44)"/>
<path d="M0 0 C0.66 0 1.32 0 2 0 C2 0.66 2 1.32 2 2 C2.928125 2.12375 2.928125 2.12375 3.875 2.25 C6 3 6 3 7.15625 4.75 C8.14532585 7.38753559 8.03218152 8.98116569 7.625 11.75 C7.45871094 12.94882812 7.45871094 12.94882812 7.2890625 14.171875 C7.14597656 15.07679687 7.14597656 15.07679687 7 16 C6.67 16 6.34 16 6 16 C6 13.36 6 10.72 6 8 C5.01 7.67 4.02 7.34 3 7 C3 6.01 3 5.02 3 4 C1.35 3.67 -0.3 3.34 -2 3 C-1.34 2.01 -0.68 1.02 0 0 Z " fill="#D9950B" transform="translate(22,20)"/>
<path d="M0 0 C0.66 0.33 1.32 0.66 2 1 C2.02708567 2.60407328 2.04643483 4.2082785 2.0625 5.8125 C2.07410156 6.70582031 2.08570312 7.59914063 2.09765625 8.51953125 C2 11 2 11 1 14 C0.01 14.33 -0.98 14.66 -2 15 C-2.33 13.35 -2.66 11.7 -3 10 C-2.34 10 -1.68 10 -1 10 C-1.33 7.69 -1.66 5.38 -2 3 C-1.34 3 -0.68 3 0 3 C0 2.01 0 1.02 0 0 Z " fill="#EEB216" transform="translate(88,21)"/>
<path d="M0 0 C-0.33 2.31 -0.66 4.62 -1 7 C-5.875 8 -5.875 8 -7 8 C-6.67 5.69 -6.34 3.38 -6 1 C-3 0 -3 0 0 0 Z " fill="#EFB82C" transform="translate(38,41)"/>
<path d="M0 0 C2.66666667 0.66666667 5.33333333 1.33333333 8 2 C8 1.34 8 0.68 8 0 C10.4375 0.375 10.4375 0.375 13 1 C13.33 1.66 13.66 2.32 14 3 C12.35 3.33 10.7 3.66 9 4 C9 4.66 9 5.32 9 6 C4.75177626 5.52797514 2.80010291 3.03344482 0 0 Z " fill="#B14100" transform="translate(65,65)"/>
<path d="M0 0 C2.31 0 4.62 0 7 0 C7.33 0.99 7.66 1.98 8 3 C10.31 3.33 12.62 3.66 15 4 C15 4.66 15 5.32 15 6 C15.66 6.33 16.32 6.66 17 7 C10.19775182 6.82679461 5.34589067 5.31167204 0 1 C0 0.67 0 0.34 0 0 Z " fill="#9B4503" transform="translate(24,80)"/>
<path d="M0 0 C2.64 0 5.28 0 8 0 C7.67 0.99 7.34 1.98 7 3 C7.99 3.33 8.98 3.66 10 4 C10 4.66 10 5.32 10 6 C8.54096742 5.69078116 7.08279278 5.37751201 5.625 5.0625 C4.81289062 4.88847656 4.00078125 4.71445312 3.1640625 4.53515625 C1 4 1 4 -1 3 C-0.67 2.01 -0.34 1.02 0 0 Z " fill="#F29D27" transform="translate(64,58)"/>
<path d="M0 0 C1.32 0 2.64 0 4 0 C4.33 0.99 4.66 1.98 5 3 C5.99 3.33 6.98 3.66 8 4 C8 4.66 8 5.32 8 6 C4.37 6.33 0.74 6.66 -3 7 C-2.67 6.34 -2.34 5.68 -2 5 C-1.34 5 -0.68 5 0 5 C0 3.35 0 1.7 0 0 Z " fill="#FEEF8A" transform="translate(40,0)"/>
<path d="M0 0 C0.33 0.66 0.66 1.32 1 2 C-5.04334172 3.79061977 -13.0551837 5.97240815 -19 3 C-19 2.34 -19 1.68 -19 1 C-18.21496094 1.01160156 -17.42992187 1.02320312 -16.62109375 1.03515625 C-10.96280225 1.08375507 -5.57121122 1.01294749 0 0 Z " fill="#9E3300" transform="translate(59,74)"/>
<path d="M0 0 C1.134375 0.4125 2.26875 0.825 3.4375 1.25 C3.7675 2.24 4.0975 3.23 4.4375 4.25 C4.1075 4.91 3.7775 5.57 3.4375 6.25 C-1.03790984 7.51229508 -1.03790984 7.51229508 -3.5625 6.25 C-3.2325 4.93 -2.9025 3.61 -2.5625 2.25 C-3.5525 1.59 -4.5425 0.93 -5.5625 0.25 C-3.5625 -0.75 -3.5625 -0.75 0 0 Z " fill="#E4811A" transform="translate(59.5625,61.75)"/>
<path d="M0 0 C0.66 0 1.32 0 2 0 C2 0.99 2 1.98 2 3 C2.99 3.33 3.98 3.66 5 4 C3.68 4 2.36 4 1 4 C0.67 4.99 0.34 5.98 0 7 C-0.99 6.67 -1.98 6.34 -3 6 C-2.01 5.01 -1.02 4.02 0 3 C-1.13888672 3.26876953 -1.13888672 3.26876953 -2.30078125 3.54296875 C-3.79158203 3.86201172 -3.79158203 3.86201172 -5.3125 4.1875 C-6.29863281 4.40792969 -7.28476563 4.62835938 -8.30078125 4.85546875 C-9.63689453 4.92701172 -9.63689453 4.92701172 -11 5 C-11.99 4.01 -12.98 3.02 -14 2 C-9.38 2 -4.76 2 0 2 C0 1.34 0 0.68 0 0 Z " fill="#CD7507" transform="translate(72,55)"/>
<path d="M0 0 C0.33 0.99 0.66 1.98 1 3 C1.99 3 2.98 3 4 3 C4 2.34 4 1.68 4 1 C8.95 1.33 13.9 1.66 19 2 C18.67 2.99 18.34 3.98 18 5 C16.35 5 14.7 5 13 5 C13 4.67 13 4.34 13 4 C9.04 4 5.08 4 1 4 C0.67 4.66 0.34 5.32 0 6 C-1 3 -1 3 0 0 Z " fill="#D0840C" transform="translate(17,55)"/>
<path d="M0 0 C0 2.97 0 5.94 0 9 C-0.66 9 -1.32 9 -2 9 C-2.33 6.69 -2.66 4.38 -3 2 C-3.99 4.31 -4.98 6.62 -6 9 C-6.66 8.01 -7.32 7.02 -8 6 C-7.25 2.875 -7.25 2.875 -6 0 C-4 -1 -4 -1 0 0 Z " fill="#F9D94D" transform="translate(32,41)"/>
<path d="M0 0 C0.66 0 1.32 0 2 0 C2 2.97 2 5.94 2 9 C1.01 9 0.02 9 -1 9 C-2.68798827 10.43750191 -2.68798827 10.43750191 -4 12 C-3.53680089 7.27536912 -2.90108294 3.82942948 0 0 Z " fill="#F4B32C" transform="translate(15,26)"/>
<path d="M0 0 C2.75 0.0625 2.75 0.0625 6 1 C7.76511299 3.22511214 8.77297776 5.40437603 10 8 C8.02 8 6.04 8 4 8 C2.66666667 5.33333333 1.33333333 2.66666667 0 0 Z " fill="#FADB3E" transform="translate(26,21)"/>
<path d="M0 0 C1.32 0 2.64 0 4 0 C4.33 0.66 4.66 1.32 5 2 C7.3140622 2.73075648 9.64828869 3.40138258 12 4 C12 4.66 12 5.32 12 6 C9.36 6 6.72 6 4 6 C4 5.34 4 4.68 4 4 C2.68 3.67 1.36 3.34 0 3 C0 2.01 0 1.02 0 0 Z " fill="#FCEF61" transform="translate(44,0)"/>
<path d="M0 0 C-0.66 1.32 -1.32 2.64 -2 4 C-5 4 -8 4 -11 4 C-11 3.01 -11 2.02 -11 1 C-3.375 -1.125 -3.375 -1.125 0 0 Z " fill="#CF740D" transform="translate(39,61)"/>
<path d="M0 0 C0.66 0 1.32 0 2 0 C3.1577506 3.47325181 3.06866652 6.36067448 3 10 C0.125 10.1875 0.125 10.1875 -3 10 C-3.66 9.01 -4.32 8.02 -5 7 C-3.35 6.67 -1.7 6.34 0 6 C0 4.02 0 2.04 0 0 Z " fill="#D26D04" transform="translate(61,41)"/>
<path d="M0 0 C-1.32 0.33 -2.64 0.66 -4 1 C-3.67 1.99 -3.34 2.98 -3 4 C-4.32 5.32 -5.64 6.64 -7 8 C-7.99 7.34 -8.98 6.68 -10 6 C-5.22352941 -1.74117647 -5.22352941 -1.74117647 0 0 Z " fill="#C54C04" transform="translate(73,73)"/>
<path d="M0 0 C0 0.66 0 1.32 0 2 C0.99 2.33 1.98 2.66 3 3 C1.68 3 0.36 3 -1 3 C-1.33 3.99 -1.66 4.98 -2 6 C-3.98 5.34 -5.96 4.68 -8 4 C-8 3.34 -8 2.68 -8 2 C-4.91190305 0.23537317 -3.76687864 0 0 0 Z " fill="#D06307" transform="translate(28,63)"/>
<path d="M0 0 C0.33 0 0.66 0 1 0 C1.33 3.3 1.66 6.6 2 10 C0.02 10 -1.96 10 -4 10 C-3.52449439 8.51965236 -3.04448784 7.04074979 -2.5625 5.5625 C-2.29566406 4.73878906 -2.02882813 3.91507813 -1.75390625 3.06640625 C-1 1 -1 1 0 0 Z " fill="#FEE88E" transform="translate(29,42)"/>
<path d="M0 0 C1.65 0 3.3 0 5 0 C5.38218767 1.65614657 5.71395102 3.32457024 6 5 C5 6 5 6 2.4375 6.0625 C1.2309375 6.0315625 1.2309375 6.0315625 0 6 C0 4.02 0 2.04 0 0 Z " fill="#F3BE2B" transform="translate(56,42)"/>
<path d="M0 0 C2.625 0.375 2.625 0.375 5 1 C3.515 3.475 3.515 3.475 2 6 C1.443125 5.814375 0.88625 5.62875 0.3125 5.4375 C-2.399133 4.92448835 -4.34371039 5.3359276 -7 6 C-6.21625 5.38125 -5.4325 4.7625 -4.625 4.125 C-2.03162353 2.10141339 -2.03162353 2.10141339 0 0 Z " fill="#C96004" transform="translate(54,63)"/>
<path d="M0 0 C0 2.31 0 4.62 0 7 C-1.32 7 -2.64 7 -4 7 C-4 6.01 -4 5.02 -4 4 C-4.66 3.67 -5.32 3.34 -6 3 C-3.375 0 -3.375 0 0 0 Z " fill="#FEE779" transform="translate(43,52)"/>
<path d="M0 0 C0.66 0 1.32 0 2 0 C3.1875 3.1875 3.1875 3.1875 4 7 C2.625 9.9375 2.625 9.9375 1 12 C0.01879536 8.94736336 0.01879536 7.05263664 1 4 C0.01 4 -0.98 4 -2 4 C-1.34 2.68 -0.68 1.36 0 0 Z " fill="#FDEA65" transform="translate(8,20)"/>
<path d="M0 0 C1.98 0 3.96 0 6 0 C6 2.64 6 5.28 6 8 C1.125 3.375 1.125 3.375 0 0 Z " fill="#F7CB1E" transform="translate(20,32)"/>
<path d="M0 0 C0.99 0.33 1.98 0.66 3 1 C3.33 2.65 3.66 4.3 4 6 C2.02 6 0.04 6 -2 6 C-1.125 1.125 -1.125 1.125 0 0 Z " fill="#FBDB43" transform="translate(53,53)"/>
<path d="M0 0 C4.35535069 1.16142685 6.64619703 2.07699505 9 6 C7.02 6.33 5.04 6.66 3 7 C3 5.68 3 4.36 3 3 C1.68 2.34 0.36 1.68 -1 1 C-0.67 0.67 -0.34 0.34 0 0 Z " fill="#E28118" transform="translate(64,13)"/>
<path d="M0 0 C1.32 0.33 2.64 0.66 4 1 C3.67 2.32 3.34 3.64 3 5 C2.34 4.67 1.68 4.34 1 4 C0.34 5.32 -0.32 6.64 -1 8 C-1.99 7.67 -2.98 7.34 -4 7 C-3.67 6.01 -3.34 5.02 -3 4 C-2.01 3.67 -1.02 3.34 0 3 C0 2.01 0 1.02 0 0 Z " fill="#F29406" transform="translate(77,79)"/>
<path d="M0 0 C-0.5 1.9375 -0.5 1.9375 -2 4 C-4.69658452 4.68790422 -7.2017019 4.81946464 -10 5 C-8.94958421 2.13522966 -8.29875437 1.16086774 -5.5625 -0.3125 C-3 -1 -3 -1 0 0 Z " fill="#E99B2C" transform="translate(35,65)"/>
<path d="M0 0 C0.99 0 1.98 0 3 0 C2.67 5.61 2.34 11.22 2 17 C1.67 17 1.34 17 1 17 C0.67 11.39 0.34 5.78 0 0 Z " fill="#E7AB24" transform="translate(87,35)"/>
<path d="M0 0 C0.33 0.66 0.66 1.32 1 2 C2.32 1.67 3.64 1.34 5 1 C4.67 1.99 4.34 2.98 4 4 C3.34 4 2.68 4 2 4 C1.67 4.66 1.34 5.32 1 6 C-1.31 6 -3.62 6 -6 6 C-4.6875 4.5 -4.6875 4.5 -3 3 C-2.01 3 -1.02 3 0 3 C0 2.01 0 1.02 0 0 Z " fill="#E8980E" transform="translate(63,29)"/>
<path d="M0 0 C3.0916909 2.52956528 3.90931332 5.22454612 5 9 C3.02 9.99 3.02 9.99 1 11 C1 8.69 1 6.38 1 4 C0.34 3.67 -0.32 3.34 -1 3 C-0.67 2.01 -0.34 1.02 0 0 Z " fill="#C7690A" transform="translate(78,23)"/>
<path d="M0 0 C0.92232422 0.10828125 0.92232422 0.10828125 1.86328125 0.21875 C3.07564453 0.35796875 3.07564453 0.35796875 4.3125 0.5 C5.51326172 0.63921875 5.51326172 0.63921875 6.73828125 0.78125 C9.11896555 1.04813463 9.11896555 1.04813463 12 1 C11.67 1.66 11.34 2.32 11 3 C3.6375 4.425 3.6375 4.425 0 2 C0 1.34 0 0.68 0 0 Z " fill="#FBB846" transform="translate(42,67)"/>
<path d="M0 0 C1.65 0.33 3.3 0.66 5 1 C1.55384615 5.8 1.55384615 5.8 -1.25 6.8125 C-2.11625 6.9053125 -2.11625 6.9053125 -3 7 C-3.33 6.01 -3.66 5.02 -4 4 C-2.68 3.34 -1.36 2.68 0 2 C0 1.34 0 0.68 0 0 Z " fill="#DE7E1A" transform="translate(49,62)"/>
<path d="M0 0 C0.99 0 1.98 0 3 0 C3.66 2.97 4.32 5.94 5 9 C3.68 9 2.36 9 1 9 C0.67 6.03 0.34 3.06 0 0 Z " fill="#F5A520" transform="translate(63,41)"/>
<path d="M0 0 C0.99 0 1.98 0 3 0 C3 4.62 3 9.24 3 14 C2.67 14 2.34 14 2 14 C-0.29612756 4.58997722 -0.29612756 4.58997722 0 0 Z " fill="#FCEF7F" transform="translate(44,31)"/>
<path d="M0 0 C0.66 0.33 1.32 0.66 2 1 C-0.97 3.64 -3.94 6.28 -7 9 C-7.99 8.67 -8.98 8.34 -10 8 C-6.7 5.36 -3.4 2.72 0 0 Z " fill="#FCD981" transform="translate(77,76)"/>
<path d="M0 0 C0.33 0 0.66 0 1 0 C1 2.64 1 5.28 1 8 C1.66 8 2.32 8 3 8 C3 10.31 3 12.62 3 15 C1.51171875 13.88671875 1.51171875 13.88671875 0 12 C-0.29296875 9.08203125 -0.29296875 9.08203125 -0.1875 5.8125 C-0.16042969 4.72582031 -0.13335937 3.63914063 -0.10546875 2.51953125 C-0.07066406 1.68808594 -0.03585937 0.85664062 0 0 Z " fill="#DC8815" transform="translate(9,40)"/>
<path d="M0 0 C3 1 3 1 5 4 C5.125 7.1875 5.125 7.1875 5 10 C1.55783328 7.3401439 1.00495326 4.09711714 0 0 Z " fill="#D15B0D" transform="translate(74,48)"/>
<path d="M0 0 C1.36125 0.12375 1.36125 0.12375 2.75 0.25 C1.33912765 3.07174471 -0.32866953 3.18769801 -3.25 4.25 C-4.178125 4.62125 -5.10625 4.9925 -6.0625 5.375 C-6.784375 5.66375 -7.50625 5.9525 -8.25 6.25 C-8.58 5.59 -8.91 4.93 -9.25 4.25 C-8.59 3.59 -7.93 2.93 -7.25 2.25 C-7.25 2.91 -7.25 3.57 -7.25 4.25 C-6.71375 3.59 -6.1775 2.93 -5.625 2.25 C-3.25 0.25 -3.25 0.25 0 0 Z " fill="#D97508" transform="translate(74.25,23.75)"/>
<path d="M0 0 C0.99 0.33 1.98 0.66 3 1 C1.37680325 2.31472947 -0.248615 3.62671662 -1.875 4.9375 C-2.77992187 5.66839844 -3.68484375 6.39929688 -4.6171875 7.15234375 C-7 9 -7 9 -9 10 C-7.02955353 5.40229157 -4.12362307 2.74908205 0 0 Z " fill="#BA5903" transform="translate(26,13)"/>
<path d="M0 0 C1.98 0 3.96 0 6 0 C3.3401439 3.44216672 0.09711714 3.99504674 -4 5 C-4.66 4.34 -5.32 3.68 -6 3 C-4.02 2.67 -2.04 2.34 0 2 C0 1.34 0 0.68 0 0 Z " fill="#B75D13" transform="translate(63,82)"/>
<path d="M0 0 C1.65 0.33 3.3 0.66 5 1 C4.67 2.32 4.34 3.64 4 5 C1.36 5.33 -1.28 5.66 -4 6 C-2.68 5.67 -1.36 5.34 0 5 C0 3.35 0 1.7 0 0 Z " fill="#CC7A03" transform="translate(45,57)"/>
<path d="M0 0 C1.75547734 2.6848477 2.00627277 3.92002215 1.75 7.1875 C1.5025 8.115625 1.255 9.04375 1 10 C0.01 10.495 0.01 10.495 -1 11 C-2.41687119 6.74938644 -1.19320039 4.28148375 0 0 Z " fill="#EAAD2E" transform="translate(41,40)"/>
<path d="M0 0 C0.33 0.66 0.66 1.32 1 2 C1.66 2.33 2.32 2.66 3 3 C0.03 2.505 0.03 2.505 -3 2 C-2.95875 3.093125 -2.9175 4.18625 -2.875 5.3125 C-3 9 -3 9 -5 12 C-5.33 10.02 -5.66 8.04 -6 6 C-5.34 6 -4.68 6 -4 6 C-4 4.35 -4 2.7 -4 1 C-2.68 0.67 -1.36 0.34 0 0 Z " fill="#EAA61A" transform="translate(57,39)"/>
<path d="M0 0 C3.465 1.485 3.465 1.485 7 3 C5.35 4.65 3.7 6.3 2 8 C0.74335022 5.09399739 0 3.20395416 0 0 Z " fill="#D66E07" transform="translate(67,33)"/>
<path d="M0 0 C-1.32 1.65 -2.64 3.3 -4 5 C-4.99 4.67 -5.98 4.34 -7 4 C-6.625 2.0625 -6.625 2.0625 -6 0 C-3.50907189 -1.24546405 -2.58919267 -0.7767578 0 0 Z " fill="#FACB3C" transform="translate(70,22)"/>
<path d="M0 0 C1.98 0.99 3.96 1.98 6 3 C4.515 5.475 4.515 5.475 3 8 C2.34 7.34 1.68 6.68 1 6 C1 4.68 1 3.36 1 2 C0.34 1.67 -0.32 1.34 -1 1 C-0.67 0.67 -0.34 0.34 0 0 Z " fill="#FBF390" transform="translate(9,18)"/>
<path d="M0 0 C0.66 0.33 1.32 0.66 2 1 C1 4 1 4 -1.75 5.625 C-4.56668945 6.81667631 -6.99043417 7.55741679 -10 8 C-6.66666667 5.33333333 -3.33333333 2.66666667 0 0 Z " fill="#F8AA22" transform="translate(76,79)"/>
<path d="M0 0 C0.99 0.66 1.98 1.32 3 2 C2.34 2.61875 1.68 3.2375 1 3.875 C-1.2284549 5.75637427 -1.2284549 5.75637427 -1 8 C-1.99 7.67 -2.98 7.34 -4 7 C-3.67 6.34 -3.34 5.68 -3 5 C-3.66 4.67 -4.32 4.34 -5 4 C-4.67 3.34 -4.34 2.68 -4 2 C-2.68 2 -1.36 2 0 2 C0 1.34 0 0.68 0 0 Z " fill="#D56815" transform="translate(77,57)"/>
<path d="M0 0 C0 0.99 0 1.98 0 3 C-2.8125 3.625 -2.8125 3.625 -6 4 C-6.99 3.34 -7.98 2.68 -9 2 C-5.62902617 0.50178941 -3.79557881 0 0 0 Z " fill="#FDD444" transform="translate(68,50)"/>
<path d="M0 0 C-2.06756277 2.7972908 -3.14440371 3.02692273 -6.6875 3.6875 C-7.780625 3.790625 -8.87375 3.89375 -10 4 C-9.67 3.01 -9.34 2.02 -9 1 C-5.8035914 -0.06546953 -3.34252724 -0.07427838 0 0 Z " fill="#FCD447" transform="translate(64,36)"/>
<path d="M0 0 C3.42298577 1.14099526 4.14758766 2.00085621 6 5 C6 5.99 6 6.98 6 8 C5.34 8 4.68 8 4 8 C4 7.01 4 6.02 4 5 C3.34 5 2.68 5 2 5 C2 4.34 2 3.68 2 3 C0.68 3 -0.64 3 -2 3 C-2 2.34 -2 1.68 -2 1 C-1.34 0.67 -0.68 0.34 0 0 Z " fill="#F7B623" transform="translate(60,23)"/>
<path d="M0 0 C5.71658336 -0.45732667 8.48649253 0.47726246 13 4 C10.21078018 5.39460991 8.87922897 4.58060045 5.9375 3.6875 C4.58978516 3.29111328 4.58978516 3.29111328 3.21484375 2.88671875 C1 2 1 2 0 0 Z " fill="#FCD54B" transform="translate(56,6)"/>
<path d="M0 0 C0.66 1.32 1.32 2.64 2 4 C-0.76223278 6.76223278 -3.20706617 6.57856291 -7 7 C-7 6.34 -7 5.68 -7 5 C-3.535 4.505 -3.535 4.505 0 4 C0 2.68 0 1.36 0 0 Z " fill="#F5940B" transform="translate(66,88)"/>
<path d="M0 0 C0.99 0 1.98 0 3 0 C3 2.64 3 5.28 3 8 C2.34 8 1.68 8 1 8 C-0.35439668 5.29120665 -0.06501451 2.99066732 0 0 Z " fill="#FDF390" transform="translate(44,48)"/>
<path d="M0 0 C2 2 2 2 2 5 C3.32 5.33 4.64 5.66 6 6 C5.01 6.495 5.01 6.495 4 7 C4 7.66 4 8.32 4 9 C3.01 8.67 2.02 8.34 1 8 C0.67 5.36 0.34 2.72 0 0 Z " fill="#E88E0C" transform="translate(66,41)"/>
<path d="M0 0 C0.99 0 1.98 0 3 0 C3 0.66 3 1.32 3 2 C3.66 2.33 4.32 2.66 5 3 C3.1875 4.0625 3.1875 4.0625 1 5 C0.01 4.67 -0.98 4.34 -2 4 C-1.34 2.68 -0.68 1.36 0 0 Z " fill="#F6C627" transform="translate(27,16)"/>
<path d="M0 0 C1.625 2.5 1.625 2.5 3 5 C2.01 5.66 1.02 6.32 0 7 C-0.33 5.68 -0.66 4.36 -1 3 C-2.32 3.33 -3.64 3.66 -5 4 C-5 3.34 -5 2.68 -5 2 C-2 0 -2 0 0 0 Z " fill="#C55D13" transform="translate(74,72)"/>
<path d="M0 0 C2.94956528 1.36944102 5.52468811 2.87830409 8 5 C8 5.66 8 6.32 8 7 C4.78448712 6.65548076 3.97940123 5.97711248 1.75 3.5 C0 1 0 1 0 0 Z " fill="#A44F02" transform="translate(16,72)"/>
<path d="M0 0 C0.33 0.99 0.66 1.98 1 3 C0.00390625 4.82421875 0.00390625 4.82421875 -1.4375 6.6875 C-1.91058594 7.31011719 -2.38367188 7.93273437 -2.87109375 8.57421875 C-3.24363281 9.04472656 -3.61617188 9.51523438 -4 10 C-4.66 9.34 -5.32 8.68 -6 8 C-4.02 5.36 -2.04 2.72 0 0 Z " fill="#FBCD63" transform="translate(84,67)"/>
<path d="M0 0 C0.66 0 1.32 0 2 0 C2 0.66 2 1.32 2 2 C2.99 2 3.98 2 5 2 C5.33 1.34 5.66 0.68 6 0 C6 0.99 6 1.98 6 3 C3.03 3.66 0.06 4.32 -3 5 C-1.625 2.5 -1.625 2.5 0 0 Z " fill="#E29820" transform="translate(39,59)"/>
<path d="M0 0 C0.99 0.33 1.98 0.66 3 1 C3.5625 2.9375 3.5625 2.9375 4 5 C4.66 5.66 5.32 6.32 6 7 C5.01 7.33 4.02 7.66 3 8 C2.67 7.01 2.34 6.02 2 5 C1.01 4.67 0.02 4.34 -1 4 C-0.67 2.68 -0.34 1.36 0 0 Z " fill="#FACB26" transform="translate(53,22)"/>
<path d="M0 0 C0.33 0.66 0.66 1.32 1 2 C0.22265625 3.9453125 0.22265625 3.9453125 -0.9375 6.125 C-1.31777344 6.84945312 -1.69804687 7.57390625 -2.08984375 8.3203125 C-2.39019531 8.87460937 -2.69054687 9.42890625 -3 10 C-3.33 10 -3.66 10 -4 10 C-4 8.02 -4 6.04 -4 4 C-3.01 4 -2.02 4 -1 4 C-0.67 2.68 -0.34 1.36 0 0 Z " fill="#FBCA37" transform="translate(22,48)"/>
<path d="M0 0 C0.33 1.32 0.66 2.64 1 4 C-0.65 4.33 -2.3 4.66 -4 5 C-4 4.34 -4 3.68 -4 3 C-4.99 2.67 -5.98 2.34 -7 2 C-4.6921509 0.84607545 -2.52769669 0.46562834 0 0 Z " fill="#EFBA34" transform="translate(39,49)"/>
<path d="M0 0 C0.598125 0.185625 1.19625 0.37125 1.8125 0.5625 C4.16408762 1.22093687 4.16408762 1.22093687 7 0 C6.67 1.32 6.34 2.64 6 4 C3.03 3.505 3.03 3.505 0 3 C0 2.01 0 1.02 0 0 Z " fill="#D17805" transform="translate(32,47)"/>
<path d="M0 0 C1.32 0 2.64 0 4 0 C3.67 1.65 3.34 3.3 3 5 C2.01 5 1.02 5 0 5 C0 3.35 0 1.7 0 0 Z " fill="#FDE365" transform="translate(19,26)"/>
<path d="M0 0 C1.32 0.33 2.64 0.66 4 1 C4 1.66 4 2.32 4 3 C3.01 3 2.02 3 1 3 C1 3.66 1 4.32 1 5 C-0.65 4.67 -2.3 4.34 -4 4 C-2.68 3.67 -1.36 3.34 0 3 C0 2.01 0 1.02 0 0 Z " fill="#A93A00" transform="translate(66,70)"/>
<path d="M0 0 C0.66 0 1.32 0 2 0 C2 1.98 2 3.96 2 6 C-0.475 5.01 -0.475 5.01 -3 4 C-1.625 2 -1.625 2 0 0 Z " fill="#B04201" transform="translate(78,59)"/>
<path d="M0 0 C1.65 0 3.3 0 5 0 C4.67 0.66 4.34 1.32 4 2 C3.34 2 2.68 2 2 2 C2 3.98 2 5.96 2 8 C1.34 7.67 0.68 7.34 0 7 C0 4.69 0 2.38 0 0 Z " fill="#FBE25A" transform="translate(30,29)"/>
<path d="M0 0 C0.66 0 1.32 0 2 0 C2 0.66 2 1.32 2 2 C3.32 2.33 4.64 2.66 6 3 C6 3.33 6 3.66 6 4 C3.125 4.125 3.125 4.125 0 4 C-0.66 3.34 -1.32 2.68 -2 2 C-1.34 1.34 -0.68 0.68 0 0 Z " fill="#D67E15" transform="translate(22,20)"/>
<path d="M0 0 C0.66 0 1.32 0 2 0 C1.34 1.32 0.68 2.64 0 4 C-0.33 3.01 -0.66 2.02 -1 1 C-0.67 0.67 -0.34 0.34 0 0 Z M-3 2 C-2.34 2.33 -1.68 2.66 -1 3 C-1.66 4.65 -2.32 6.3 -3 8 C-4.125 4.25 -4.125 4.25 -3 2 Z " fill="#FDDB36" transform="translate(4,33)"/>
</svg>
