<?xml version="1.0" encoding="UTF-8"?>
<svg version="1.1" xmlns="http://www.w3.org/2000/svg" width="64" height="64">
<path d="M0 0 C7.43527445 5.18384555 11.97456664 11.71385079 13.77734375 20.64453125 C14.89865348 30.76366787 12.76194533 38.64215366 6.96484375 46.95703125 C1.18939501 54.11858768 -5.96224788 57.95081032 -15.11328125 58.96484375 C-24.99789165 59.34502107 -32.79706826 56.45952156 -40.47265625 50.26953125 C-47.38888832 43.84731575 -50.30070796 36.05268671 -50.66015625 26.70703125 C-50.3854528 17.30739591 -46.58201667 9.49307324 -40.22265625 2.64453125 C-28.74696393 -7.94841551 -12.91112833 -7.8737461 0 0 Z M-11.59765625 10.14453125 C-14.22265625 12.64453125 -14.22265625 12.64453125 -18.09765625 12.70703125 C-18.77957031 12.66449219 -19.46148438 12.62195313 -20.1640625 12.578125 C-24.02849645 12.70278416 -26.14349975 14.35025778 -29.22265625 16.64453125 C-31.68513987 20.13966929 -32.34049574 22.54742579 -32.09765625 26.70703125 C-32.25528961 31.67248194 -33.7477214 32.34334314 -37.22265625 35.64453125 C-37.90562315 39.3629066 -37.73589056 40.89441956 -35.59765625 44.01953125 C-32.47254456 46.15776556 -30.9410316 46.32749815 -27.22265625 45.64453125 C-26.43890625 44.81953125 -25.65515625 43.99453125 -24.84765625 43.14453125 C-22.22265625 40.64453125 -22.22265625 40.64453125 -18.34765625 40.58203125 C-17.66574219 40.62457031 -16.98382813 40.66710938 -16.28125 40.7109375 C-12.41681605 40.58627834 -10.30181275 38.93880472 -7.22265625 36.64453125 C-4.76017263 33.14939321 -4.10481676 30.74163671 -4.34765625 26.58203125 C-4.19002289 21.61658056 -2.6975911 20.94571936 0.77734375 17.64453125 C1.46031065 13.9261559 1.29057806 12.39464294 -0.84765625 9.26953125 C-5.07842745 6.37479306 -8.03111501 6.39027731 -11.59765625 10.14453125 Z " fill="#464DFF" transform="translate(50.22265625,5.35546875)"/>
<path d="M0 0 C2.5 0.0625 2.5 0.0625 5 1 C6.5 3.3125 6.5 3.3125 7 6 C5.9375 8.25 5.9375 8.25 4 10 C1.3125 10.75 1.3125 10.75 -1 11 C-0.94199219 11.66386719 -0.88398437 12.32773437 -0.82421875 13.01171875 C-0.59522138 17.4935245 -0.52333452 20.20555753 -2.875 24.125 C-7.26226927 26.75736156 -11.00816393 26.43617985 -16 26 C-16.226875 26.94875 -16.45375 27.8975 -16.6875 28.875 C-18 32 -18 32 -20.625 33.375 C-21.40875 33.58125 -22.1925 33.7875 -23 34 C-25.0625 32.25 -25.0625 32.25 -27 30 C-26.82246387 26.98188578 -26.16264785 26.16264785 -24 24 C-21.375 23.375 -21.375 23.375 -19 23 C-19.05800781 22.33613281 -19.11601562 21.67226563 -19.17578125 20.98828125 C-19.40477862 16.5064755 -19.47666548 13.79444247 -17.125 9.875 C-12.73773073 7.24263844 -8.99183607 7.56382015 -4 8 C-3.71125 7.05125 -3.4225 6.1025 -3.125 5.125 C-2 2 -2 2 0 0 Z M-15 14 C-15.33333333 17 -15.33333333 17 -15 20 C-13.11499729 22.31563087 -13.11499729 22.31563087 -10 22.25 C-6.88500271 22.31563087 -6.88500271 22.31563087 -5 20 C-4.66666667 17 -4.66666667 17 -5 14 C-6.88500271 11.68436913 -6.88500271 11.68436913 -10 11.75 C-13.11499729 11.68436913 -13.11499729 11.68436913 -15 14 Z " fill="#464DFF" transform="translate(42,15)"/>
</svg>
