<?xml version="1.0" encoding="UTF-8"?>
<svg version="1.1" xmlns="http://www.w3.org/2000/svg" width="200" height="200">
<path d="M0 0 C1.25296875 0.4125 2.5059375 0.825 3.796875 1.25 C28.74462541 10.06760046 48.21993996 28.50355897 60.08447266 52.01074219 C70.70512729 75.08730057 73.09510894 102.81586203 65 127 C64.5875 128.25296875 64.175 129.5059375 63.75 130.796875 C54.93239954 155.74462541 36.49644103 175.21993996 12.98925781 187.08447266 C-10.08730057 197.70512729 -37.81586203 200.09510894 -62 192 C-63.87945312 191.38125 -63.87945312 191.38125 -65.796875 190.75 C-90.74462541 181.93239954 -110.21993996 163.49644103 -122.08447266 139.98925781 C-132.70512729 116.91269943 -135.09510894 89.18413797 -127 65 C-126.5875 63.74703125 -126.175 62.4940625 -125.75 61.203125 C-116.93239954 36.25537459 -98.49644103 16.78006004 -74.98925781 4.91552734 C-51.91269943 -5.70512729 -24.18413797 -8.09510894 0 0 Z " fill="#040806" transform="translate(131,4)"/>
<path d="M0 0 C0.72574219 0.44601563 1.45148438 0.89203125 2.19921875 1.3515625 C7.45070085 4.93257315 11.68978989 9.56918654 15 15 C15 15.99 15 16.98 15 18 C10.26343296 16.22056374 6.01313933 13.83130928 1.62109375 11.33984375 C-3.58309872 8.67957845 -8.5160301 8.78534034 -14.25 8.75 C-15.07113281 8.729375 -15.89226562 8.70875 -16.73828125 8.6875 C-25.77694433 8.63020261 -32.31004141 11.41125574 -39.23046875 17.18359375 C-44.71938572 22.76541199 -49.0183288 29.29938735 -53.44238281 35.734375 C-75.09866157 67.23441683 -75.09866157 67.23441683 -92 71 C-105.66391963 72.88234374 -114.79485823 70.04443823 -126.20703125 62.55078125 C-131.97898714 58.16208276 -136.58663593 51.13255821 -138 44 C-137.56171875 44.36351562 -137.1234375 44.72703125 -136.671875 45.1015625 C-123.86587222 55.25266227 -111.98132076 58.33457262 -96 57 C-81.33062087 53.72258824 -72.03453109 38.00050654 -64 26.5 C-49.22109681 5.40683304 -26.84428075 -16.82775808 0 0 Z " fill="#45B997" transform="translate(160,67)"/>
<path d="M0 0 C11.34699202 2.04713774 20.25224785 6.42254533 27 16 C29.74276705 24.22830116 28.25681604 32.39544312 24.6796875 40.10546875 C19.12843501 49.67169688 11.43635906 56.43177434 0.9375 59.8125 C-11.7534618 62.90139891 -22.93981734 61.49129572 -34.1875 55.25 C-38.75405755 52.41460233 -41.75895591 49.26453169 -45 45 C-42.69798903 42.69798903 -41.5065044 42.45224299 -38.38671875 41.7109375 C-37.46826172 41.49179688 -36.54980469 41.27265625 -35.60351562 41.046875 C-34.64123047 40.82515625 -33.67894531 40.6034375 -32.6875 40.375 C-31.26147461 40.03082031 -31.26147461 40.03082031 -29.80664062 39.6796875 C-25.42755281 38.65147401 -21.51927184 37.86780739 -17 38 C-17 38.66 -17 39.32 -17 40 C-22.75 43 -22.75 43 -25 43 C-24.13107648 45.28160004 -24.13107648 45.28160004 -21.3671875 46.1015625 C-14.36650571 47.96949384 -6.04505978 48.43457741 0.625 45.25 C3.49447991 43.53321715 5.72247125 41.45272327 8 39 C8.66 39 9.32 39 10 39 C13.26740584 31.29825766 15.9347038 23.5716148 13.08984375 15.37890625 C10.54504402 9.87199236 7.90405435 6.51812595 3 3 C1.98477128 2.01546424 0.98095748 1.01868662 0 0 Z " fill="#32C3A9" transform="translate(151,77)"/>
<path d="M0 0 C0.7849585 0.00572021 1.56991699 0.01144043 2.37866211 0.01733398 C13.57646756 0.35805197 22.02001792 5.12621563 30.25 12.5 C30.82621094 13.00273438 31.40242188 13.50546875 31.99609375 14.0234375 C33.25 15.5 33.25 15.5 33.25 18.5 C11.48690525 24.19714522 11.48690525 24.19714522 6.25 22.5 C12 18.5 12 18.5 14.25 18.5 C14.25 17.84 14.25 17.18 14.25 16.5 C6.11469486 14.3305853 -3.08084957 12.45838265 -11.0625 16.0625 C-17.16464145 19.68564649 -22.19422969 24.43824029 -24.30859375 31.33984375 C-25.83749504 38.82198902 -25.01320418 44.51294124 -21.328125 51.2265625 C-18.91305367 54.70569991 -16.13774309 56.97579927 -12.75 59.5 C-17.15010233 61.00688436 -19.86169844 59.76938805 -24.0078125 58.00390625 C-29.49990086 54.99186349 -35.05993155 50.7226771 -38.0078125 45.1015625 C-40.17976997 37.48827999 -39.51118167 29.07372967 -36.203125 21.91015625 C-28.29165888 8.78818152 -15.45711132 -0.13216926 0 0 Z " fill="#94E37B" transform="translate(59.75,61.5)"/>
<path d="M0 0 C5.31027254 1.46032495 9.46330032 3.98320986 14 7 C14.33 6.34 14.66 5.68 15 5 C15.66 6.98 16.32 8.96 17 11 C16.01 11.33 15.02 11.66 14 12 C12.45703125 10.92578125 12.45703125 10.92578125 10.8125 9.3125 C7.15880792 5.96328226 3.49852971 4.05196092 -1 2 C-0.67 1.34 -0.34 0.68 0 0 Z " fill="#042B3D" transform="translate(161,78)"/>
<path d="M0 0 C1.97986082 0.11347619 3.95891598 0.2410935 5.9375 0.375 C7.03964844 0.44460937 8.14179687 0.51421875 9.27734375 0.5859375 C10.62505859 0.79089844 10.62505859 0.79089844 12 1 C12.33 1.66 12.66 2.32 13 3 C7.55106131 4.19876651 4.77830905 3.91360308 0 1 C0 0.67 0 0.34 0 0 Z " fill="#20301C" transform="translate(36,120)"/>
<path d="M0 0 C4.50802601 1.25805377 7.4912812 2.90407165 11 6 C10.01 6.33 9.02 6.66 8 7 C5 5.1875 5 5.1875 2 3 C1.01 2.34 0.02 1.68 -1 1 C-0.67 0.67 -0.34 0.34 0 0 Z " fill="#092729" transform="translate(161,78)"/>
</svg>
