<?xml version="1.0" encoding="UTF-8"?>
<svg version="1.1" xmlns="http://www.w3.org/2000/svg" width="100" height="100">
<path d="M0 0 C1.05968994 0.00572021 2.11937988 0.01144043 3.21118164 0.01733398 C15.77465276 0.30350247 24.8838804 3.98032736 34.25 12.5 C34.87519531 13.04527344 35.50039062 13.59054687 36.14453125 14.15234375 C44.65666903 22.0339528 50.11388972 32.54880176 50.71875 44.171875 C50.75294526 46.19765486 50.7626697 48.22397117 50.75 50.25 C50.74427979 51.30968994 50.73855957 52.36937988 50.73266602 53.46118164 C50.44649753 66.02465276 46.76967264 75.1338804 38.25 84.5 C37.43208984 85.43779297 37.43208984 85.43779297 36.59765625 86.39453125 C28.7160472 94.90666903 18.20119824 100.36388972 6.578125 100.96875 C4.55234514 101.00294526 2.52602883 101.0126697 0.5 101 C-0.55968994 100.99427979 -1.61937988 100.98855957 -2.71118164 100.98266602 C-15.27465276 100.69649753 -24.3838804 97.01967264 -33.75 88.5 C-34.37519531 87.95472656 -35.00039063 87.40945312 -35.64453125 86.84765625 C-44.15666903 78.9660472 -49.61388972 68.45119824 -50.21875 56.828125 C-50.25294526 54.80234514 -50.2626697 52.77602883 -50.25 50.75 C-50.24427979 49.69031006 -50.23855957 48.63062012 -50.23266602 47.53881836 C-49.94649753 34.97534724 -46.26967264 25.8661196 -37.75 16.5 C-37.20472656 15.87480469 -36.65945312 15.24960938 -36.09765625 14.60546875 C-26.25497215 3.97536992 -14.17368884 -0.08863464 0 0 Z " fill="#082824" transform="translate(49.75,-0.5)"/>
<path d="M0 0 C5.43894302 0.16689897 8.03858817 2.13623313 11.8125 6 C17.59590032 13.48010767 17.95899384 21.16025797 17.1875 30.3125 C15.86064444 38.89077549 13.73803695 45.69540653 6.75 51.25 C3.52632105 52.58664737 1.64929722 52.87769138 -1.8125 52.3125 C-6.36831802 49.50146335 -8.54258973 46.30361073 -11.3125 41.75 C-14.07526374 37.2445699 -15.96147147 34.47998083 -20.8125 32.3125 C-24.03854461 31.62610753 -25.796526 31.66617232 -28.60546875 33.453125 C-32.53057205 36.63337927 -35.14431719 40.06317182 -37.8125 44.3125 C-40.90423752 45.85836876 -43.40679552 45.60609521 -46.8125 45.3125 C-50.97813383 42.76683488 -52.05916104 38.6820447 -53.2734375 34.171875 C-54.45359127 27.91192889 -54.71856655 21.84948633 -52.5625 15.8125 C-49.14763514 10.93412162 -49.14763514 10.93412162 -46.8125 9.3125 C-42.3640635 9.38620191 -40.36132572 9.82321309 -37.00390625 12.81640625 C-36.1179978 13.82760135 -35.2418616 14.84742991 -34.375 15.875 C-30.94262593 19.69903307 -30.94262593 19.69903307 -26.50390625 22.14453125 C-22.22057628 22.2335986 -19.21670023 20.72403329 -15.8125 18.3125 C-14.09290204 16.06271431 -14.09290204 16.06271431 -12.75 13.5 C-12.24855469 12.61699219 -11.74710938 11.73398437 -11.23046875 10.82421875 C-10.76253906 9.99535156 -10.29460938 9.16648437 -9.8125 8.3125 C-4.86437218 0.39871903 -4.86437218 0.39871903 0 0 Z " fill="#94F7DF" transform="translate(67.8125,23.6875)"/>
<path d="M0 0 C1.05968994 0.00572021 2.11937988 0.01144043 3.21118164 0.01733398 C15.77465276 0.30350247 24.8838804 3.98032736 34.25 12.5 C34.87519531 13.04527344 35.50039062 13.59054687 36.14453125 14.15234375 C44.65666903 22.0339528 50.11388972 32.54880176 50.71875 44.171875 C50.75294526 46.19765486 50.7626697 48.22397117 50.75 50.25 C50.74427979 51.30968994 50.73855957 52.36937988 50.73266602 53.46118164 C50.44649753 66.02465276 46.76967264 75.1338804 38.25 84.5 C37.43208984 85.43779297 37.43208984 85.43779297 36.59765625 86.39453125 C28.7160472 94.90666903 18.20119824 100.36388972 6.578125 100.96875 C4.55234514 101.00294526 2.52602883 101.0126697 0.5 101 C-0.55968994 100.99427979 -1.61937988 100.98855957 -2.71118164 100.98266602 C-15.27465276 100.69649753 -24.3838804 97.01967264 -33.75 88.5 C-34.37519531 87.95472656 -35.00039063 87.40945312 -35.64453125 86.84765625 C-44.15666903 78.9660472 -49.61388972 68.45119824 -50.21875 56.828125 C-50.25294526 54.80234514 -50.2626697 52.77602883 -50.25 50.75 C-50.24427979 49.69031006 -50.23855957 48.63062012 -50.23266602 47.53881836 C-49.94649753 34.97534724 -46.26967264 25.8661196 -37.75 16.5 C-37.20472656 15.87480469 -36.65945312 15.24960938 -36.09765625 14.60546875 C-26.25497215 3.97536992 -14.17368884 -0.08863464 0 0 Z M-34.1328125 15.66015625 C-44.34873564 27.28261953 -48.67544466 39.24665361 -48.06640625 54.515625 C-47.12662666 66.34988647 -41.68138461 76.74892353 -33.75 85.5 C-21.26738382 95.85470711 -8.96954564 99.85488446 7.19970703 98.72753906 C17.51977577 97.58223017 27.58615769 91.25376103 35.25 84.5 C36.89290335 82.43681904 38.40456771 80.42596187 39.875 78.25 C40.26816406 77.6729834 40.66132812 77.0959668 41.06640625 76.50146484 C48.22741151 65.73885972 49.96627664 53.20453484 47.71875 40.49609375 C43.7093904 24.8290853 34.98434734 14.70316657 21.25 6.5 C3.4955817 -2.45033278 -19.90371966 2.31595724 -34.1328125 15.66015625 Z " fill="#0E3731" transform="translate(49.75,-0.5)"/>
</svg>
