<?xml version="1.0" encoding="UTF-8"?>
<svg version="1.1" xmlns="http://www.w3.org/2000/svg" width="200" height="200">
<path d="M0 0 C2.82045877 2.30263418 5.56336058 4.67903285 8.27832031 7.10449219 C11.1535235 9.666713 11.1535235 9.666713 14.50878906 11.77246094 C17.18066406 13.58496094 17.18066406 13.58496094 17.86816406 15.77246094 C18.02285156 16.66964844 18.02285156 16.66964844 18.18066406 17.58496094 C19.17066406 17.91496094 20.16066406 18.24496094 21.18066406 18.58496094 C21.51066406 19.57496094 21.84066406 20.56496094 22.18066406 21.58496094 C22.78394531 22.1740625 23.38722656 22.76316406 24.00878906 23.37011719 C26.61161449 26.02443736 28.16331475 28.75588582 29.93066406 32.02246094 C30.85105469 33.69115234 30.85105469 33.69115234 31.79003906 35.39355469 C33.13514811 38.48050439 33.50200878 40.27881822 33.18066406 43.58496094 C33.84066406 43.58496094 34.50066406 43.58496094 35.18066406 43.58496094 C39.64424539 56.0781479 40.85665551 67.12735329 40.55566406 80.33496094 C40.53909422 82.04587815 40.52476266 83.75681854 40.51269531 85.46777344 C40.3702832 98.68935945 40.3702832 98.68935945 39.18066406 103.58496094 C38.52066406 103.58496094 37.86066406 103.58496094 37.18066406 103.58496094 C37.18066406 105.89496094 37.18066406 108.20496094 37.18066406 110.58496094 C36.52066406 110.58496094 35.86066406 110.58496094 35.18066406 110.58496094 C34.52066406 113.88496094 33.86066406 117.18496094 33.18066406 120.58496094 C32.52066406 120.58496094 31.86066406 120.58496094 31.18066406 120.58496094 C31.10589844 121.42542969 31.03113281 122.26589844 30.95410156 123.13183594 C30.00301116 127.37811833 28.20111083 130.25695184 25.80566406 133.83496094 C25.40605469 134.45886719 25.00644531 135.08277344 24.59472656 135.72558594 C22.64505024 138.70140769 21.175244 140.58857431 18.18066406 142.58496094 C17.87128906 143.24496094 17.56191406 143.90496094 17.24316406 144.58496094 C16.18066406 146.58496094 16.18066406 146.58496094 14.29394531 147.52246094 C12.05773456 148.64676653 10.95666201 149.72870379 9.30566406 151.58496094 C-7.5531495 168.76523493 -31.7922615 178.47350042 -55.67724609 178.87768555 C-83.14890277 179.03784131 -105.50892955 171.73865683 -126.31811523 153.40429688 C-129.3378039 150.75277047 -132.36813316 148.62599484 -135.81933594 146.58496094 C-136.52084746 145.26962683 -137.18459519 143.93378502 -137.81933594 142.58496094 C-139.08777344 141.37839844 -139.08777344 141.37839844 -140.38183594 140.14746094 C-142.93144067 137.46710724 -143.50996572 136.19428011 -143.81933594 132.58496094 C-144.80933594 132.25496094 -145.79933594 131.92496094 -146.81933594 131.58496094 C-150.62798259 125.57828936 -153.21756631 119.65575401 -153.81933594 112.58496094 C-154.47933594 111.59496094 -155.13933594 110.60496094 -155.81933594 109.58496094 C-156.19144014 108.26192377 -156.52563767 106.92758159 -156.81933594 105.58496094 C-157.14933594 104.59496094 -157.47933594 103.60496094 -157.81933594 102.58496094 C-158.14933594 102.58496094 -158.47933594 102.58496094 -158.81933594 102.58496094 C-158.87027326 96.32278946 -158.90516878 90.06067193 -158.92919922 83.79833984 C-158.93922299 81.67038984 -158.95284555 79.5424535 -158.97021484 77.41455078 C-158.99462286 74.34631976 -159.00585555 71.27827173 -159.01464844 68.20996094 C-159.02497101 67.26693115 -159.03529358 66.32390137 -159.04592896 65.35229492 C-159.04686971 59.74541582 -158.41278806 54.96630789 -156.81933594 49.58496094 C-156.15933594 49.58496094 -155.49933594 49.58496094 -154.81933594 49.58496094 C-154.69816406 48.88628906 -154.57699219 48.18761719 -154.45214844 47.46777344 C-154.28457031 46.55769531 -154.11699219 45.64761719 -153.94433594 44.70996094 C-153.78191406 43.80503906 -153.61949219 42.90011719 -153.45214844 41.96777344 C-152.81933594 39.58496094 -152.81933594 39.58496094 -150.81933594 37.58496094 C-149.71378412 35.63398714 -148.89319267 33.94732054 -148.44433594 31.74511719 C-147.67559861 29.08816878 -146.42875814 27.18569548 -144.88183594 24.89746094 C-144.3571875 24.10984375 -143.83253906 23.32222656 -143.29199219 22.51074219 C-141.81933594 20.58496094 -141.81933594 20.58496094 -139.81933594 19.58496094 C-139.48933594 18.59496094 -139.15933594 17.60496094 -138.81933594 16.58496094 C-138.25988281 16.318125 -137.70042969 16.05128906 -137.12402344 15.77636719 C-133.75454168 14.03451645 -131.50732154 11.25605376 -128.94433594 8.52246094 C-95.59880991 -25.77011212 -37.69548479 -29.31871039 0 0 Z M34.18066406 46.58496094 C35.18066406 48.58496094 35.18066406 48.58496094 35.18066406 48.58496094 Z M35.18066406 49.58496094 C36.18066406 51.58496094 36.18066406 51.58496094 36.18066406 51.58496094 Z M36.18066406 52.58496094 C37.18066406 55.58496094 37.18066406 55.58496094 37.18066406 55.58496094 Z M-156.81933594 53.58496094 C-155.81933594 56.58496094 -155.81933594 56.58496094 -155.81933594 56.58496094 Z M37.18066406 56.58496094 C38.18066406 59.58496094 38.18066406 59.58496094 38.18066406 59.58496094 Z M-157.81933594 57.58496094 C-156.81933594 61.58496094 -156.81933594 61.58496094 -156.81933594 61.58496094 Z M38.18066406 60.58496094 C38.18066406 62.23496094 38.18066406 63.88496094 38.18066406 65.58496094 C38.51066406 65.58496094 38.84066406 65.58496094 39.18066406 65.58496094 C39.18066406 63.93496094 39.18066406 62.28496094 39.18066406 60.58496094 C38.85066406 60.58496094 38.52066406 60.58496094 38.18066406 60.58496094 Z M38.18066406 93.58496094 C38.18066406 95.23496094 38.18066406 96.88496094 38.18066406 98.58496094 C38.51066406 98.58496094 38.84066406 98.58496094 39.18066406 98.58496094 C39.18066406 96.93496094 39.18066406 95.28496094 39.18066406 93.58496094 C38.85066406 93.58496094 38.52066406 93.58496094 38.18066406 93.58496094 Z " fill="#1FC5C9" transform="translate(158.8193359375,19.4150390625)"/>
<path d="M0 0 C2.79610849 1.02920589 3.85723527 1.76219024 5.4140625 4.35546875 C6.01347656 5.75732422 6.01347656 5.75732422 6.625 7.1875 C7.02976562 8.10917969 7.43453125 9.03085938 7.8515625 9.98046875 C10.17531364 16.09019538 11.38994829 21.64687699 11.375 28.1875 C11.37338867 28.9292749 11.37177734 29.6710498 11.37011719 30.43530273 C11.22218776 37.14796287 9.69000795 42.84203755 7 49 C6.58427734 50.06927734 6.58427734 50.06927734 6.16015625 51.16015625 C0.90061462 63.35162832 -10.54556716 72.0012982 -22.5 76.9375 C-34.80269523 80.98479189 -48.2296184 80.56320467 -60 75 C-65.59245404 72.08181915 -65.59245404 72.08181915 -68 70 C-68 69.34 -68 68.68 -68 68 C-66.390625 66.44921875 -66.390625 66.44921875 -64.25 64.6875 C-61.09829823 62.01637687 -58.44230671 59.35817172 -56 56 C-53.79704671 56.48954517 -51.88715033 57.05275824 -49.8359375 58.01171875 C-43.20918826 60.32104045 -34.5898327 60.13768688 -27.90625 58.01953125 C-25.46253063 56.82343366 -23.24353594 55.53551671 -21 54 C-20.05125 53.360625 -19.1025 52.72125 -18.125 52.0625 C-11.70917169 45.83537253 -8.89860483 38.81819789 -8.65136719 30.02099609 C-8.64266602 29.31281738 -8.63396484 28.60463867 -8.625 27.875 C-8.61114258 27.1938916 -8.59728516 26.5127832 -8.58300781 25.81103516 C-8.62634116 21.12533169 -9.72854807 18.05015503 -12 14 C-12 13.34 -12 12.68 -12 12 C-10.390625 10.44921875 -10.390625 10.44921875 -8.25 8.6875 C-5.09829823 6.01637687 -2.44230671 3.35817172 0 0 Z " fill="#FAFDFD" transform="translate(139,71)"/>
<path d="M0 0 C0 3 0 3 -2.625 5.91796875 C-3.74249406 7.01550756 -4.86785643 8.10507895 -6 9.1875 C-6.85851562 10.02571289 -6.85851562 10.02571289 -7.734375 10.88085938 C-9.14962788 12.26073093 -10.57397155 13.63126734 -12 15 C-13.7325 14.2575 -13.7325 14.2575 -15.5 13.5 C-22.96779877 11.04224344 -32.33903866 10.39321169 -39.85546875 12.984375 C-42.0615889 14.18166634 -44.009364 15.47591931 -46 17 C-46.886875 17.556875 -47.77375 18.11375 -48.6875 18.6875 C-54.80357453 24.80357453 -58.13602174 31.91363765 -58.25 40.5 C-58.22259326 47.09132131 -57.13089679 52.78488436 -55 59 C-56.20749447 60.06345325 -57.41604746 61.12570461 -58.625 62.1875 C-59.29789063 62.77917969 -59.97078125 63.37085937 -60.6640625 63.98046875 C-63.41323572 66.35726232 -66.20292603 68.67979107 -69 71 C-70.13011652 68.7941576 -71.25415788 66.58554973 -72.375 64.375 C-72.69210938 63.75753906 -73.00921875 63.14007813 -73.3359375 62.50390625 C-79.28098063 50.73767506 -79.65952921 38.28438315 -75.96484375 25.66796875 C-71.4909124 13.29673347 -61.91318363 2.23232461 -49.97265625 -3.4375 C-32.3344811 -10.9631214 -16.75076153 -9.01964083 0 0 Z " fill="#FAFDFE" transform="translate(128,58)"/>
<path d="M0 0 C3.12578143 1.6720747 5.39281175 3.7856235 7 7 C7.51512617 11.09157355 7.94367269 15.23589546 5.953125 18.95703125 C3.55501226 21.85592636 1.60351712 23.79811835 -2.171875 24.2734375 C-9.98876369 24.58137554 -9.98876369 24.58137554 -13.5625 21.625 C-17.3057723 17.59378368 -17.39037018 14.90519941 -17.359375 9.55078125 C-16.78039966 5.44131496 -15.00085071 3.78650423 -12 1 C-8.27533151 -0.86233425 -4.05504687 -0.57130829 0 0 Z " fill="#FBFDFE" transform="translate(55,138)"/>
<path d="M0 0 C3.12578143 1.6720747 5.39281175 3.7856235 7 7 C7.51512617 11.09157355 7.94367269 15.23589546 5.953125 18.95703125 C3.55501226 21.85592636 1.60351712 23.79811835 -2.171875 24.2734375 C-9.98876369 24.58137554 -9.98876369 24.58137554 -13.5625 21.625 C-17.3057723 17.59378368 -17.39037018 14.90519941 -17.359375 9.55078125 C-16.78039966 5.44131496 -15.00085071 3.78650423 -12 1 C-8.27533151 -0.86233425 -4.05504687 -0.57130829 0 0 Z " fill="#FBFDFE" transform="translate(155,38)"/>
<path d="M0 0 C8.58 0 17.16 0 26 0 C26 0.33 26 0.66 26 1 C17.42 1 8.84 1 0 1 C0 0.67 0 0.34 0 0 Z " fill="#1EC4C8" transform="translate(86,199)"/>
<path d="M0 0 C0.33 0 0.66 0 1 0 C1 8.58 1 17.16 1 26 C0.67 26 0.34 26 0 26 C0 17.42 0 8.84 0 0 Z " fill="#1EC4C8" transform="translate(199,86)"/>
<path d="M0 0 C0.75410156 0.00451172 1.50820312 0.00902344 2.28515625 0.01367188 C4.14847127 0.02546501 6.01174555 0.04340058 7.875 0.0625 C7.875 0.3925 7.875 0.7225 7.875 1.0625 C6.88757813 1.12308594 5.90015625 1.18367188 4.8828125 1.24609375 C3.60148437 1.32988281 2.32015625 1.41367188 1 1.5 C-0.27617188 1.58121094 -1.55234375 1.66242188 -2.8671875 1.74609375 C-6.00800152 1.85456027 -6.00800152 1.85456027 -8.125 3.0625 C-8.785 2.4025 -9.445 1.7425 -10.125 1.0625 C-6.93675432 -0.53162284 -3.49603338 -0.03924735 0 0 Z " fill="#4FD1D4" transform="translate(99.125,68.9375)"/>
<path d="M0 0 C0.66 0.33 1.32 0.66 2 1 C-0.31 3.31 -2.62 5.62 -5 8 C-5 5 -5 5 -2.5 2.3125 C-1.675 1.549375 -0.85 0.78625 0 0 Z " fill="#1DB0A2" transform="translate(30,25)"/>
<path d="M0 0 C1.98 0 3.96 0 6 0 C6 0.33 6 0.66 6 1 C4.02 1 2.04 1 0 1 C0 0.67 0 0.34 0 0 Z " fill="#1EC5C9" transform="translate(112,198)"/>
<path d="M0 0 C1.98 0 3.96 0 6 0 C6 0.33 6 0.66 6 1 C4.02 1 2.04 1 0 1 C0 0.67 0 0.34 0 0 Z " fill="#1EC4C8" transform="translate(80,198)"/>
<path d="M0 0 C1.65 0 3.3 0 5 0 C5 0.33 5 0.66 5 1 C3.35 1 1.7 1 0 1 C0 0.67 0 0.34 0 0 Z " fill="#1EC7CB" transform="translate(118,197)"/>
<path d="M0 0 C1.65 0 3.3 0 5 0 C5 0.33 5 0.66 5 1 C3.35 1 1.7 1 0 1 C0 0.67 0 0.34 0 0 Z " fill="#1EC4C8" transform="translate(75,197)"/>
<path d="M0 0 C1.65 0 3.3 0 5 0 C5 0.33 5 0.66 5 1 C3.35 1 1.7 1 0 1 C0 0.67 0 0.34 0 0 Z " fill="#47704C" transform="translate(117,0)"/>
<path d="M0 0 C1.65 0 3.3 0 5 0 C5 0.33 5 0.66 5 1 C3.35 1 1.7 1 0 1 C0 0.67 0 0.34 0 0 Z " fill="#387355" transform="translate(76,0)"/>
<path d="M0 0 C4 1 4 1 4 1 Z " fill="#1EC6CA" transform="translate(123,196)"/>
<path d="M0 0 C4 1 4 1 4 1 Z " fill="#1EC4C8" transform="translate(68,195)"/>
<path d="M0 0 C4 1 4 1 4 1 Z " fill="#3A866A" transform="translate(69,2)"/>
<path d="M0 0 C4 1 4 1 4 1 Z " fill="#47704C" transform="translate(122,1)"/>
<path d="M0 0 C3 1 3 1 3 1 Z " fill="#1EC4C8" transform="translate(72,196)"/>
<path d="M0 0 C3 1 3 1 3 1 Z " fill="#1EC5C8" transform="translate(127,195)"/>
<path d="M0 0 C3 1 3 1 3 1 Z " fill="#1EC6CA" transform="translate(130,194)"/>
<path d="M0 0 C3 1 3 1 3 1 Z " fill="#1EC5C9" transform="translate(65,194)"/>
<path d="M0 0 C3 1 3 1 3 1 Z " fill="#1FCACD" transform="translate(135,192)"/>
<path d="M0 0 C3 1 3 1 3 1 Z " fill="#1DC2C7" transform="translate(60,192)"/>
<path d="" fill="#368D75" transform="translate(0,0)"/>
<path d="" fill="#1EC7CC" transform="translate(0,0)"/>
<path d="" fill="#3A8B73" transform="translate(0,0)"/>
<path d="" fill="#1EC7CB" transform="translate(0,0)"/>
<path d="" fill="#2F563B" transform="translate(0,0)"/>
<path d="" fill="#22ADA6" transform="translate(0,0)"/>
<path d="M0 0 C3 1 3 1 3 1 Z " fill="#47704C" transform="translate(137,6)"/>
<path d="M0 0 C3 1 3 1 3 1 Z " fill="#47704C" transform="translate(132,4)"/>
<path d="M0 0 C3 1 3 1 3 1 Z " fill="#29A99C" transform="translate(63,4)"/>
<path d="M0 0 C3 1 3 1 3 1 Z " fill="#47704C" transform="translate(129,3)"/>
<path d="M0 0 C3 1 3 1 3 1 Z " fill="#1FBDB0" transform="translate(66,3)"/>
<path d="M0 0 C3 1 3 1 3 1 Z " fill="#47704C" transform="translate(126,2)"/>
<path d="M0 0 C3 1 3 1 3 1 Z " fill="#47704C" transform="translate(73,1)"/>
<path d="M0 0 C2 1 2 1 2 1 Z " fill="#1EC5CA" transform="translate(133,193)"/>
<path d="M0 0 C2 1 2 1 2 1 Z " fill="#1EC4C8" transform="translate(63,193)"/>
<path d="M0 0 C2 1 2 1 2 1 Z " fill="#1EC4C8" transform="translate(138,191)"/>
<path d="M0 0 C2 1 2 1 2 1 Z " fill="#1EC6C9" transform="translate(58,191)"/>
<path d="M0 0 C2 1 2 1 2 1 Z " fill="#1FC8CC" transform="translate(140,190)"/>
<path d="M0 0 C2 1 2 1 2 1 Z " fill="#1DC4C9" transform="translate(56,190)"/>
<path d="M0 0 C2 1 2 1 2 1 Z " fill="#1EC6CA" transform="translate(142,189)"/>
<path d="M0 0 C2 1 2 1 2 1 Z " fill="#1EC4C7" transform="translate(54,189)"/>
<path d="M0 0 C2 1 2 1 2 1 Z " fill="#1EC5C9" transform="translate(144,188)"/>
<path d="M0 0 C2 1 2 1 2 1 Z " fill="#1DC2C8" transform="translate(52,188)"/>
<path d="M0 0 C2 1 2 1 2 1 Z " fill="#1EC5C9" transform="translate(146,187)"/>
<path d="M0 0 C2 1 2 1 2 1 Z " fill="#1DCCCB" transform="translate(50,187)"/>
<path d="M0 0 C2 1 2 1 2 1 Z " fill="#1EC7CB" transform="translate(148,186)"/>
<path d="M0 0 C2 1 2 1 2 1 Z " fill="#1DC3C8" transform="translate(47,185)"/>
<path d="M0 0 C2 1 2 1 2 1 Z " fill="#1FC8CC" transform="translate(151,184)"/>
<path d="M0 0 C2 1 2 1 2 1 Z " fill="#1DC2C8" transform="translate(45,184)"/>
<path d="M0 0 C2 1 2 1 2 1 Z " fill="#1FCBCF" transform="translate(154,182)"/>
<path d="M0 0 C2 1 2 1 2 1 Z " fill="#1DC1C7" transform="translate(42,182)"/>
<path d="M0 0 C2 1 2 1 2 1 Z " fill="#20CCD0" transform="translate(157,180)"/>
<path d="M0 0 C2 1 2 1 2 1 Z " fill="#1EC3C6" transform="translate(38,179)"/>
<path d="M0 0 C2 1 2 1 2 1 Z " fill="#1FC9CD" transform="translate(162,176)"/>
<path d="M0 0 C2 1 2 1 2 1 Z " fill="#1EAFB8" transform="translate(32,174)"/>
<path d="" fill="#1AC7C7" transform="translate(0,0)"/>
<path d="" fill="#1EC8CC" transform="translate(0,0)"/>
<path d="" fill="#47704C" transform="translate(0,0)"/>
<path d="" fill="#1EC8CC" transform="translate(0,0)"/>
<path d="" fill="#33857A" transform="translate(0,0)"/>
<path d="" fill="#1EC4C8" transform="translate(0,0)"/>
<path d="" fill="#00BFBE" transform="translate(0,0)"/>
<path d="" fill="#47704C" transform="translate(0,0)"/>
<path d="M0 0 C2 1 2 1 2 1 Z " fill="#319A8A" transform="translate(164,23)"/>
<path d="M0 0 C2 1 2 1 2 1 Z " fill="#05CFCF" transform="translate(37,19)"/>
<path d="M0 0 C2 1 2 1 2 1 Z " fill="#329A8A" transform="translate(158,18)"/>
<path d="M0 0 C2 1 2 1 2 1 Z " fill="#339B8A" transform="translate(155,16)"/>
<path d="M0 0 C2 1 2 1 2 1 Z " fill="#33857A" transform="translate(41,16)"/>
<path d="M0 0 C2 1 2 1 2 1 Z " fill="#32998A" transform="translate(152,14)"/>
<path d="M0 0 C2 1 2 1 2 1 Z " fill="#23B7A5" transform="translate(44,14)"/>
<path d="M0 0 C2 1 2 1 2 1 Z " fill="#32A28D" transform="translate(149,12)"/>
<path d="M0 0 C2 1 2 1 2 1 Z " fill="#234932" transform="translate(47,12)"/>
<path d="M0 0 C2 1 2 1 2 1 Z " fill="#329C8A" transform="translate(147,11)"/>
<path d="M0 0 C2 1 2 1 2 1 Z " fill="#47704C" transform="translate(49,11)"/>
<path d="M0 0 C2 1 2 1 2 1 Z " fill="#47704C" transform="translate(51,10)"/>
<path d="M0 0 C2 1 2 1 2 1 Z " fill="#47704C" transform="translate(144,9)"/>
<path d="M0 0 C2 1 2 1 2 1 Z " fill="#23B7A5" transform="translate(53,9)"/>
<path d="M0 0 C2 1 2 1 2 1 Z " fill="#47704C" transform="translate(142,8)"/>
<path d="M0 0 C2 1 2 1 2 1 Z " fill="#2E9C89" transform="translate(55,8)"/>
<path d="M0 0 C2 1 2 1 2 1 Z " fill="#47704C" transform="translate(140,7)"/>
<path d="M0 0 C2 1 2 1 2 1 Z " fill="#2E9C89" transform="translate(57,7)"/>
<path d="M0 0 C2 1 2 1 2 1 Z " fill="#10E1E1" transform="translate(59,6)"/>
<path d="M0 0 C2 1 2 1 2 1 Z " fill="#47704C" transform="translate(135,5)"/>
<path d="M0 0 C2 1 2 1 2 1 Z " fill="#0BE3E3" transform="translate(61,5)"/>
<path d="" fill="#1DC3C8" transform="translate(0,0)"/>
<path d="" fill="#20CCD0" transform="translate(0,0)"/>
<path d="" fill="#20CDD1" transform="translate(0,0)"/>
<path d="" fill="#1FC6C8" transform="translate(0,0)"/>
<path d="" fill="#20CDD1" transform="translate(0,0)"/>
<path d="" fill="#1EC4C8" transform="translate(0,0)"/>
<path d="" fill="#1CC4C8" transform="translate(0,0)"/>
<path d="" fill="#1EC5C9" transform="translate(0,0)"/>
<path d="" fill="#20CFD3" transform="translate(0,0)"/>
<path d="" fill="#1DC3C9" transform="translate(0,0)"/>
<path d="" fill="#20CDD1" transform="translate(0,0)"/>
<path d="" fill="#1EC6C8" transform="translate(0,0)"/>
<path d="" fill="#1EC4C8" transform="translate(0,0)"/>
<path d="" fill="#1FC7CB" transform="translate(0,0)"/>
<path d="" fill="#1FC5C9" transform="translate(0,0)"/>
<path d="" fill="#20CCD0" transform="translate(0,0)"/>
<path d="" fill="#20CBCF" transform="translate(0,0)"/>
<path d="" fill="#1EC3C3" transform="translate(0,0)"/>
<path d="" fill="#20CFD4" transform="translate(0,0)"/>
<path d="" fill="#1BBFC5" transform="translate(0,0)"/>
<path d="" fill="#20D0D4" transform="translate(0,0)"/>
<path d="" fill="#1FC3C3" transform="translate(0,0)"/>
<path d="" fill="#20D0D4" transform="translate(0,0)"/>
<path d="" fill="#1FC3C3" transform="translate(0,0)"/>
<path d="" fill="#20D0D4" transform="translate(0,0)"/>
<path d="" fill="#1FC3C3" transform="translate(0,0)"/>
<path d="" fill="#20CFD4" transform="translate(0,0)"/>
<path d="" fill="#1FC3C3" transform="translate(0,0)"/>
<path d="" fill="#21D1D5" transform="translate(0,0)"/>
<path d="" fill="#20CCD0" transform="translate(0,0)"/>
<path d="" fill="#1EC4C8" transform="translate(0,0)"/>
<path d="" fill="#20CDD1" transform="translate(0,0)"/>
<path d="" fill="#20C2C4" transform="translate(0,0)"/>
<path d="" fill="#1EC4C8" transform="translate(0,0)"/>
<path d="" fill="#0BA0A0" transform="translate(0,0)"/>
<path d="" fill="#1EC6C8" transform="translate(0,0)"/>
<path d="" fill="#1CC2C7" transform="translate(0,0)"/>
<path d="" fill="#00FFFF" transform="translate(0,0)"/>
<path d="" fill="#00FFFF" transform="translate(0,0)"/>
<path d="" fill="#007F7D" transform="translate(0,0)"/>
<path d="" fill="#1FC3C3" transform="translate(0,0)"/>
<path d="" fill="#1FC3C3" transform="translate(0,0)"/>
<path d="" fill="#1FC3C3" transform="translate(0,0)"/>
<path d="" fill="#1BBFC5" transform="translate(0,0)"/>
<path d="" fill="#1EC3C3" transform="translate(0,0)"/>
<path d="" fill="#1F9AA9" transform="translate(0,0)"/>
<path d="" fill="#1F9AA9" transform="translate(0,0)"/>
<path d="" fill="#47704C" transform="translate(0,0)"/>
<path d="" fill="#002319" transform="translate(0,0)"/>
<path d="" fill="#1EC6C8" transform="translate(0,0)"/>
<path d="" fill="#0BA0A0" transform="translate(0,0)"/>
<path d="" fill="#1DC3C9" transform="translate(0,0)"/>
<path d="" fill="#00FFFF" transform="translate(0,0)"/>
<path d="" fill="#1EC3C3" transform="translate(0,0)"/>
<path d="" fill="#0BA0A0" transform="translate(0,0)"/>
<path d="" fill="#47704C" transform="translate(0,0)"/>
<path d="" fill="#0BA0A0" transform="translate(0,0)"/>
<path d="" fill="#1CBFC6" transform="translate(0,0)"/>
<path d="" fill="#23D3DA" transform="translate(0,0)"/>
<path d="" fill="#1CBFC6" transform="translate(0,0)"/>
<path d="" fill="#00FFFF" transform="translate(0,0)"/>
<path d="" fill="#1DD5CE" transform="translate(0,0)"/>
<path d="" fill="#47704C" transform="translate(0,0)"/>
<path d="" fill="#47704C" transform="translate(0,0)"/>
</svg>
