<?xml version="1.0" encoding="UTF-8"?>
<svg version="1.1" xmlns="http://www.w3.org/2000/svg" width="25" height="25">
<path d="M0 0 C3.17852316 1.64448689 5.37801764 3.75603527 7 7 C8.03037808 16.00844834 8.03037808 16.00844834 5.953125 20.0234375 C3.47535361 23.0113383 1.48573267 24.83006326 -2.390625 25.2734375 C-11.05997149 25.58136511 -11.05997149 25.58136511 -14.625 22.625 C-18.45795689 18.38857397 -18.38863816 15.34807028 -18.359375 9.7734375 C-17.80289254 5.47884463 -16.16828113 3.86654007 -13 1 C-9.03716439 -0.98141781 -4.30789762 -0.55820645 0 0 Z " fill="#1DEBA1" transform="translate(18,0)"/>
<path d="M0 0 C0.7734375 -0.00773438 1.546875 -0.01546875 2.34375 -0.0234375 C5.04583262 0.47586038 5.92075936 1.14022551 7.5 3.375 C7.8984375 5.53125 7.8984375 5.53125 7.875 7.875 C7.88273437 8.6484375 7.89046875 9.421875 7.8984375 10.21875 C7.39913962 12.92083262 6.73477449 13.79575936 4.5 15.375 C2.34375 15.7734375 2.34375 15.7734375 0 15.75 C-0.7734375 15.75773437 -1.546875 15.76546875 -2.34375 15.7734375 C-5.04583262 15.27413962 -5.92075936 14.60977449 -7.5 12.375 C-7.8984375 10.21875 -7.8984375 10.21875 -7.875 7.875 C-7.88273438 7.1015625 -7.89046875 6.328125 -7.8984375 5.53125 C-7.04925027 0.93564854 -4.36327591 -0.04363276 0 0 Z " fill="#04281B" transform="translate(12.5,4.625)"/>
<path d="M0 0 C1.23556641 0.01740234 1.23556641 0.01740234 2.49609375 0.03515625 C3.32238281 0.04417969 4.14867187 0.05320312 5 0.0625 C5.63808594 0.07410156 6.27617187 0.08570313 6.93359375 0.09765625 C7.26359375 1.74765625 7.59359375 3.39765625 7.93359375 5.09765625 C7.27359375 5.09765625 6.61359375 5.09765625 5.93359375 5.09765625 C5.93359375 4.43765625 5.93359375 3.77765625 5.93359375 3.09765625 C5.27359375 3.09765625 4.61359375 3.09765625 3.93359375 3.09765625 C3.93359375 4.08765625 3.93359375 5.07765625 3.93359375 6.09765625 C5.25359375 6.09765625 6.57359375 6.09765625 7.93359375 6.09765625 C7.60359375 7.08765625 7.27359375 8.07765625 6.93359375 9.09765625 C6.93359375 8.43765625 6.93359375 7.77765625 6.93359375 7.09765625 C5.94359375 7.09765625 4.95359375 7.09765625 3.93359375 7.09765625 C3.93359375 8.08765625 3.93359375 9.07765625 3.93359375 10.09765625 C4.59359375 10.42765625 5.25359375 10.75765625 5.93359375 11.09765625 C-0.21875 11.1953125 -0.21875 11.1953125 -2.06640625 11.09765625 C-3.06640625 10.09765625 -3.06640625 10.09765625 -3.19921875 8.06640625 C-3.19664062 7.25171875 -3.1940625 6.43703125 -3.19140625 5.59765625 C-3.19398438 4.78296875 -3.1965625 3.96828125 -3.19921875 3.12890625 C-3.01779538 0.35419587 -2.78048479 0.13140287 0 0 Z " fill="#1BDE98" transform="translate(10.06640625,6.90234375)"/>
<path d="M0 0 C1.32 0.66 2.64 1.32 4 2 C4 4.97 4 7.94 4 11 C2.02 11.99 2.02 11.99 0 13 C0 12.34 0 11.68 0 11 C-0.66 11 -1.32 11 -2 11 C-2 10.01 -2 9.02 -2 8 C-0.68 7.67 0.64 7.34 2 7 C0.68 7 -0.64 7 -2 7 C-2 6.01 -2 5.02 -2 4 C-1.34 4 -0.68 4 0 4 C0 4.66 0 5.32 0 6 C0.66 6 1.32 6 2 6 C1.34 4.02 0.68 2.04 0 0 Z " fill="#07402B" transform="translate(16,6)"/>
</svg>
