<?xml version="1.0" encoding="UTF-8"?>
<svg version="1.1" xmlns="http://www.w3.org/2000/svg" width="200" height="200">
<path d="M0 0 C2.82045877 2.30263418 5.56336058 4.67903285 8.27832031 7.10449219 C11.1535235 9.666713 11.1535235 9.666713 14.50878906 11.77246094 C17.18066406 13.58496094 17.18066406 13.58496094 17.86816406 15.77246094 C18.02285156 16.66964844 18.02285156 16.66964844 18.18066406 17.58496094 C19.17066406 17.91496094 20.16066406 18.24496094 21.18066406 18.58496094 C21.51066406 19.57496094 21.84066406 20.56496094 22.18066406 21.58496094 C22.78394531 22.1740625 23.38722656 22.76316406 24.00878906 23.37011719 C26.61161449 26.02443736 28.16331475 28.75588582 29.93066406 32.02246094 C30.85105469 33.69115234 30.85105469 33.69115234 31.79003906 35.39355469 C33.13514811 38.48050439 33.50200878 40.27881822 33.18066406 43.58496094 C33.84066406 43.58496094 34.50066406 43.58496094 35.18066406 43.58496094 C39.64424539 56.0781479 40.85665551 67.12735329 40.55566406 80.33496094 C40.53909422 82.04587815 40.52476266 83.75681854 40.51269531 85.46777344 C40.3702832 98.68935945 40.3702832 98.68935945 39.18066406 103.58496094 C38.52066406 103.58496094 37.86066406 103.58496094 37.18066406 103.58496094 C37.18066406 105.89496094 37.18066406 108.20496094 37.18066406 110.58496094 C36.52066406 110.58496094 35.86066406 110.58496094 35.18066406 110.58496094 C34.52066406 113.88496094 33.86066406 117.18496094 33.18066406 120.58496094 C32.52066406 120.58496094 31.86066406 120.58496094 31.18066406 120.58496094 C31.10589844 121.42542969 31.03113281 122.26589844 30.95410156 123.13183594 C30.00301116 127.37811833 28.20111083 130.25695184 25.80566406 133.83496094 C25.40605469 134.45886719 25.00644531 135.08277344 24.59472656 135.72558594 C22.64505024 138.70140769 21.175244 140.58857431 18.18066406 142.58496094 C17.87128906 143.24496094 17.56191406 143.90496094 17.24316406 144.58496094 C16.18066406 146.58496094 16.18066406 146.58496094 14.29394531 147.52246094 C12.05773456 148.64676653 10.95666201 149.72870379 9.30566406 151.58496094 C-7.5531495 168.76523493 -31.7922615 178.47350042 -55.67724609 178.87768555 C-83.14890277 179.03784131 -105.50892955 171.73865683 -126.31811523 153.40429688 C-129.3378039 150.75277047 -132.36813316 148.62599484 -135.81933594 146.58496094 C-136.52084746 145.26962683 -137.18459519 143.93378502 -137.81933594 142.58496094 C-139.08777344 141.37839844 -139.08777344 141.37839844 -140.38183594 140.14746094 C-142.93144067 137.46710724 -143.50996572 136.19428011 -143.81933594 132.58496094 C-144.80933594 132.25496094 -145.79933594 131.92496094 -146.81933594 131.58496094 C-150.62798259 125.57828936 -153.21756631 119.65575401 -153.81933594 112.58496094 C-154.47933594 111.59496094 -155.13933594 110.60496094 -155.81933594 109.58496094 C-156.19144014 108.26192377 -156.52563767 106.92758159 -156.81933594 105.58496094 C-157.14933594 104.59496094 -157.47933594 103.60496094 -157.81933594 102.58496094 C-158.14933594 102.58496094 -158.47933594 102.58496094 -158.81933594 102.58496094 C-158.87027326 96.32278946 -158.90516878 90.06067193 -158.92919922 83.79833984 C-158.93922299 81.67038984 -158.95284555 79.5424535 -158.97021484 77.41455078 C-158.99462286 74.34631976 -159.00585555 71.27827173 -159.01464844 68.20996094 C-159.02497101 67.26693115 -159.03529358 66.32390137 -159.04592896 65.35229492 C-159.04686971 59.74541582 -158.41278806 54.96630789 -156.81933594 49.58496094 C-156.15933594 49.58496094 -155.49933594 49.58496094 -154.81933594 49.58496094 C-154.69816406 48.88628906 -154.57699219 48.18761719 -154.45214844 47.46777344 C-154.28457031 46.55769531 -154.11699219 45.64761719 -153.94433594 44.70996094 C-153.78191406 43.80503906 -153.61949219 42.90011719 -153.45214844 41.96777344 C-152.81933594 39.58496094 -152.81933594 39.58496094 -150.81933594 37.58496094 C-149.71378412 35.63398714 -148.89319267 33.94732054 -148.44433594 31.74511719 C-147.67559861 29.08816878 -146.42875814 27.18569548 -144.88183594 24.89746094 C-144.3571875 24.10984375 -143.83253906 23.32222656 -143.29199219 22.51074219 C-141.81933594 20.58496094 -141.81933594 20.58496094 -139.81933594 19.58496094 C-139.48933594 18.59496094 -139.15933594 17.60496094 -138.81933594 16.58496094 C-138.25988281 16.318125 -137.70042969 16.05128906 -137.12402344 15.77636719 C-133.75454168 14.03451645 -131.50732154 11.25605376 -128.94433594 8.52246094 C-95.59880991 -25.77011212 -37.69548479 -29.31871039 0 0 Z M34.18066406 46.58496094 C35.18066406 48.58496094 35.18066406 48.58496094 35.18066406 48.58496094 Z M35.18066406 49.58496094 C36.18066406 51.58496094 36.18066406 51.58496094 36.18066406 51.58496094 Z M36.18066406 52.58496094 C37.18066406 55.58496094 37.18066406 55.58496094 37.18066406 55.58496094 Z M-156.81933594 53.58496094 C-155.81933594 56.58496094 -155.81933594 56.58496094 -155.81933594 56.58496094 Z M37.18066406 56.58496094 C38.18066406 59.58496094 38.18066406 59.58496094 38.18066406 59.58496094 Z M-157.81933594 57.58496094 C-156.81933594 61.58496094 -156.81933594 61.58496094 -156.81933594 61.58496094 Z M38.18066406 60.58496094 C38.18066406 62.23496094 38.18066406 63.88496094 38.18066406 65.58496094 C38.51066406 65.58496094 38.84066406 65.58496094 39.18066406 65.58496094 C39.18066406 63.93496094 39.18066406 62.28496094 39.18066406 60.58496094 C38.85066406 60.58496094 38.52066406 60.58496094 38.18066406 60.58496094 Z M38.18066406 93.58496094 C38.18066406 95.23496094 38.18066406 96.88496094 38.18066406 98.58496094 C38.51066406 98.58496094 38.84066406 98.58496094 39.18066406 98.58496094 C39.18066406 96.93496094 39.18066406 95.28496094 39.18066406 93.58496094 C38.85066406 93.58496094 38.52066406 93.58496094 38.18066406 93.58496094 Z " fill="#662BC9" transform="translate(158.8193359375,19.4150390625)"/>
<path d="M0 0 C2.65903218 -0.36054243 5.09431802 -0.52343019 7.76342773 -0.56274414 C8.56535049 -0.58567032 9.36727325 -0.6085965 10.1934967 -0.63221741 C12.85682044 -0.70173714 15.51965243 -0.74638394 18.18359375 -0.78515625 C19.5503509 -0.80724057 19.5503509 -0.80724057 20.94471931 -0.82977104 C25.77485653 -0.90415664 30.60475156 -0.95716573 35.43530273 -0.99536133 C40.40712631 -1.03956386 45.37360818 -1.16330898 50.34345913 -1.30527592 C54.17935165 -1.39917745 58.01400197 -1.43024577 61.8509388 -1.44509697 C63.68157086 -1.46330927 65.51213702 -1.50516633 67.34164238 -1.57191658 C81.16731641 -2.04652576 81.16731641 -2.04652576 85.91167068 1.38112259 C89.78168084 5.08883465 92.69139579 9.17461089 95 14 C94.43306112 18.06038947 92.33361949 20.44172678 89.8125 23.625 C88.9114568 24.77213421 88.01041523 25.9192697 87.109375 27.06640625 C86.61630859 27.68918457 86.12324219 28.31196289 85.61523438 28.95361328 C83.20632864 32.00552499 80.82327404 35.07737375 78.43823242 38.14794922 C77.20522424 39.73514834 75.97104589 41.32143924 74.7355957 42.90673828 C74.16413818 43.64005371 73.59268066 44.37336914 73.00390625 45.12890625 C72.49674072 45.77931885 71.9895752 46.42973145 71.46704102 47.09985352 C69.95919617 49.0528501 68.47586192 51.0227569 67 53 C68.26325386 55.65965367 69.6314606 58.00993639 71.3984375 60.36328125 C71.8723291 60.99596924 72.3462207 61.62865723 72.83447266 62.28051758 C73.59703369 63.28634888 73.59703369 63.28634888 74.375 64.3125 C74.90013184 65.00947998 75.42526367 65.70645996 75.96630859 66.42456055 C80.26631884 72.10146858 84.6827863 77.68066125 89.16552734 83.21411133 C95.0395751 90.47128662 95.0395751 90.47128662 94.86732483 92.77250671 C92.58460803 98.63505805 89.12442106 104.23450834 84 108 C78.02918683 110.35206811 71.34220752 109.85720722 65.03515625 109.76171875 C63.19247385 109.77303815 61.34981087 109.7880625 59.50718689 109.80659485 C55.65708309 109.83018484 51.81091043 109.80666345 47.96118164 109.74975586 C43.05120612 109.68129189 38.15138204 109.73428263 33.2420435 109.82339764 C29.43981351 109.87817192 25.63995951 109.86600536 21.83755302 109.83448219 C20.02960283 109.82770975 18.2214413 109.84163663 16.41383553 109.8775692 C1.7620903 110.11289919 1.7620903 110.11289919 -3.66287231 104.93692017 C-11.10585112 96.49680569 -11.10585112 96.49680569 -10.88169861 91.20951843 C-9.663034 88.15557018 -7.86812328 86.14635272 -5.6875 83.6875 C-0.91243141 78.18936214 3.47838139 72.46754946 7.80004883 66.6081543 C10.74710006 62.62455746 13.79075284 58.77627261 17 55 C15.73674614 52.34034633 14.3685394 49.99006361 12.6015625 47.63671875 C12.12775146 47.00419189 11.65394043 46.37166504 11.16577148 45.7199707 C10.65731689 45.04925537 10.1488623 44.37854004 9.625 43.6875 C9.09914307 42.98906982 8.57328613 42.29063965 8.03149414 41.57104492 C3.772399 35.94514502 -0.60798063 30.42162204 -5.07763672 24.96166992 C-7.67451176 21.76691796 -9.98228632 18.60742749 -12 15 C-11.30132812 14.16855469 -10.60265625 13.33710937 -9.8828125 12.48046875 C-8.96346318 11.38287824 -8.04419668 10.28521835 -7.125 9.1875 C-6.66480469 8.64029297 -6.20460938 8.09308594 -5.73046875 7.52929688 C-3.68242038 5.08054339 -1.77281117 2.65921675 0 0 Z " fill="#FEFEFE" transform="translate(58,46)"/>
<path d="M0 0 C3.16402141 1.36196778 4.88801175 2.76320523 6.9609375 5.5 C7.5075 6.21285156 8.0540625 6.92570312 8.6171875 7.66015625 C9.19726562 8.43230469 9.77734375 9.20445313 10.375 10 C11.63260928 11.64598862 12.89042754 13.29181759 14.1484375 14.9375 C15.1089502 16.20207031 15.1089502 16.20207031 16.08886719 17.4921875 C19.02970489 21.3511917 22.01551083 25.17472651 25 29 C26.16691495 30.49980686 27.33358085 31.99980752 28.5 33.5 C29.0775 34.2425 29.655 34.985 30.25 35.75 C49.5 60.5 49.5 60.5 51.25244141 62.75317383 C52.41092492 64.24262951 53.56945305 65.73205048 54.72802734 67.22143555 C57.77027635 71.13246994 60.811587 75.04422937 63.8515625 78.95703125 C64.48320313 79.76978516 65.11484375 80.58253906 65.765625 81.41992188 C66.9716418 82.97178172 68.17738748 84.52385232 69.3828125 86.07617188 C69.929375 86.77935547 70.4759375 87.48253906 71.0390625 88.20703125 C71.54856445 88.86396973 72.05806641 89.5209082 72.58300781 90.19775391 C73.82846178 91.78182372 75.11070351 93.33682393 76.3984375 94.88671875 C78 97 78 97 78 99 C68.34236938 99.18566598 58.68535637 99.32765865 49.02632809 99.41449738 C44.54075357 99.45618448 40.05640318 99.51268903 35.5715332 99.60351562 C31.2401643 99.69068084 26.90996972 99.73832285 22.57779121 99.75901794 C20.92827431 99.77375787 19.27881908 99.80254415 17.62980461 99.84584045 C4.73381596 100.17085397 4.73381596 100.17085397 0.38796997 97.23608398 C-4 92.3908812 -4 92.3908812 -4 89 C15.14 89 34.28 89 54 89 C47.04200628 79.72267504 40.12330557 70.58436106 32.859375 61.5703125 C29.82344882 57.79465798 26.86603882 53.9637536 23.92260742 50.11547852 C20.37057106 45.47298449 16.78154276 40.86002831 13.1875 36.25 C6.40283317 27.54220143 -0.30931616 18.78013328 -7 10 C-6.02223933 8.51990357 -5.0427506 7.04094856 -4.0625 5.5625 C-3.51722656 4.73878906 -2.97195312 3.91507813 -2.41015625 3.06640625 C-1 1 -1 1 0 0 Z " fill="#662BC9" transform="translate(57,52)"/>
<path d="M0 0 C16.83 0 33.66 0 51 0 C47.41937618 4.7741651 43.83628359 9.53018043 40.1875 14.25 C35.39891136 20.45603295 30.68689061 26.71684955 26 33 C22.06322574 31.68774191 21.1728218 29.8038606 18.8125 26.4375 C18.09707031 25.42558594 17.38164063 24.41367188 16.64453125 23.37109375 C16.10183594 22.58863281 15.55914062 21.80617188 15 21 C18.33333333 16 21.66666667 11 25 6 C13.615 5.505 13.615 5.505 2 5 C1.34 3.35 0.68 1.7 0 0 Z " fill="#662BC9" transform="translate(97,64)"/>
<path d="M0 0 C4.18215012 1.5251419 6.24573131 4.57528546 8.75 8.0625 C9.16121094 8.61744141 9.57242188 9.17238281 9.99609375 9.74414062 C13 13.84083005 13 13.84083005 13 15 C5.74 15 -1.52 15 -9 15 C-9 10.9255567 -6.90830751 8.88254967 -4.5 5.8125 C-3.85611328 4.97428711 -3.85611328 4.97428711 -3.19921875 4.11914062 C-2.13921945 2.74114153 -1.07043812 1.36990593 0 0 Z " fill="#662BC9" transform="translate(87,116)"/>
<path d="M0 0 C8.58 0 17.16 0 26 0 C26 0.33 26 0.66 26 1 C17.42 1 8.84 1 0 1 C0 0.67 0 0.34 0 0 Z " fill="#662BC9" transform="translate(86,199)"/>
<path d="M0 0 C0.33 0 0.66 0 1 0 C1 8.58 1 17.16 1 26 C0.67 26 0.34 26 0 26 C0 17.42 0 8.84 0 0 Z " fill="#662BC9" transform="translate(199,86)"/>
<path d="M0 0 C0.66 0.33 1.32 0.66 2 1 C-0.31 3.31 -2.62 5.62 -5 8 C-5 5 -5 5 -2.5 2.3125 C-1.675 1.549375 -0.85 0.78625 0 0 Z " fill="#662BC9" transform="translate(30,25)"/>
<path d="M0 0 C1.98 0 3.96 0 6 0 C6 0.33 6 0.66 6 1 C4.02 1 2.04 1 0 1 C0 0.67 0 0.34 0 0 Z " fill="#662BC9" transform="translate(112,198)"/>
<path d="M0 0 C1.98 0 3.96 0 6 0 C6 0.33 6 0.66 6 1 C4.02 1 2.04 1 0 1 C0 0.67 0 0.34 0 0 Z " fill="#662BC9" transform="translate(80,198)"/>
<path d="M0 0 C1.65 0 3.3 0 5 0 C5 0.33 5 0.66 5 1 C3.35 1 1.7 1 0 1 C0 0.67 0 0.34 0 0 Z " fill="#662BC9" transform="translate(118,197)"/>
<path d="M0 0 C1.65 0 3.3 0 5 0 C5 0.33 5 0.66 5 1 C3.35 1 1.7 1 0 1 C0 0.67 0 0.34 0 0 Z " fill="#662BC9" transform="translate(75,197)"/>
<path d="M0 0 C1.65 0 3.3 0 5 0 C5 0.33 5 0.66 5 1 C3.35 1 1.7 1 0 1 C0 0.67 0 0.34 0 0 Z " fill="#662BC9" transform="translate(117,0)"/>
<path d="M0 0 C1.65 0 3.3 0 5 0 C5 0.33 5 0.66 5 1 C3.35 1 1.7 1 0 1 C0 0.67 0 0.34 0 0 Z " fill="#662BC9" transform="translate(76,0)"/>
<path d="M0 0 C4 1 4 1 4 1 Z " fill="#662BC9" transform="translate(123,196)"/>
<path d="M0 0 C4 1 4 1 4 1 Z " fill="#662BC9" transform="translate(68,195)"/>
<path d="M0 0 C4 1 4 1 4 1 Z " fill="#662BC9" transform="translate(69,2)"/>
<path d="M0 0 C4 1 4 1 4 1 Z " fill="#662BC9" transform="translate(122,1)"/>
<path d="M0 0 C3 1 3 1 3 1 Z " fill="#662BC9" transform="translate(72,196)"/>
<path d="M0 0 C3 1 3 1 3 1 Z " fill="#662BC9" transform="translate(127,195)"/>
<path d="M0 0 C3 1 3 1 3 1 Z " fill="#662BC9" transform="translate(130,194)"/>
<path d="M0 0 C3 1 3 1 3 1 Z " fill="#662BC9" transform="translate(65,194)"/>
<path d="M0 0 C3 1 3 1 3 1 Z " fill="#662BC9" transform="translate(135,192)"/>
<path d="M0 0 C3 1 3 1 3 1 Z " fill="#662BC9" transform="translate(60,192)"/>
<path d="" fill="#662BC9" transform="translate(0,0)"/>
<path d="" fill="#662BC9" transform="translate(0,0)"/>
<path d="" fill="#662BC9" transform="translate(0,0)"/>
<path d="" fill="#662BC9" transform="translate(0,0)"/>
<path d="" fill="#662BC9" transform="translate(0,0)"/>
<path d="" fill="#662BC9" transform="translate(0,0)"/>
<path d="M0 0 C3 1 3 1 3 1 Z " fill="#662BC9" transform="translate(137,6)"/>
<path d="M0 0 C3 1 3 1 3 1 Z " fill="#662BC9" transform="translate(132,4)"/>
<path d="M0 0 C3 1 3 1 3 1 Z " fill="#662BC9" transform="translate(63,4)"/>
<path d="M0 0 C3 1 3 1 3 1 Z " fill="#662BC9" transform="translate(129,3)"/>
<path d="M0 0 C3 1 3 1 3 1 Z " fill="#662BC9" transform="translate(66,3)"/>
<path d="M0 0 C3 1 3 1 3 1 Z " fill="#662BC9" transform="translate(126,2)"/>
<path d="M0 0 C3 1 3 1 3 1 Z " fill="#662BC9" transform="translate(73,1)"/>
<path d="M0 0 C2 1 2 1 2 1 Z " fill="#662BC9" transform="translate(133,193)"/>
<path d="M0 0 C2 1 2 1 2 1 Z " fill="#662BC9" transform="translate(63,193)"/>
<path d="M0 0 C2 1 2 1 2 1 Z " fill="#662BC9" transform="translate(138,191)"/>
<path d="M0 0 C2 1 2 1 2 1 Z " fill="#662BC9" transform="translate(58,191)"/>
<path d="M0 0 C2 1 2 1 2 1 Z " fill="#662BC9" transform="translate(140,190)"/>
<path d="M0 0 C2 1 2 1 2 1 Z " fill="#662BC9" transform="translate(56,190)"/>
<path d="M0 0 C2 1 2 1 2 1 Z " fill="#662BC9" transform="translate(142,189)"/>
<path d="M0 0 C2 1 2 1 2 1 Z " fill="#662BC9" transform="translate(54,189)"/>
<path d="M0 0 C2 1 2 1 2 1 Z " fill="#662BC9" transform="translate(144,188)"/>
<path d="M0 0 C2 1 2 1 2 1 Z " fill="#662BC9" transform="translate(52,188)"/>
<path d="M0 0 C2 1 2 1 2 1 Z " fill="#662BC9" transform="translate(146,187)"/>
<path d="M0 0 C2 1 2 1 2 1 Z " fill="#662BC9" transform="translate(50,187)"/>
<path d="M0 0 C2 1 2 1 2 1 Z " fill="#662BC9" transform="translate(148,186)"/>
<path d="M0 0 C2 1 2 1 2 1 Z " fill="#662BC9" transform="translate(47,185)"/>
<path d="M0 0 C2 1 2 1 2 1 Z " fill="#662BC9" transform="translate(151,184)"/>
<path d="M0 0 C2 1 2 1 2 1 Z " fill="#662BC9" transform="translate(45,184)"/>
<path d="M0 0 C2 1 2 1 2 1 Z " fill="#662BC9" transform="translate(154,182)"/>
<path d="M0 0 C2 1 2 1 2 1 Z " fill="#662BC9" transform="translate(42,182)"/>
<path d="M0 0 C2 1 2 1 2 1 Z " fill="#662BC9" transform="translate(157,180)"/>
<path d="M0 0 C2 1 2 1 2 1 Z " fill="#662BC9" transform="translate(38,179)"/>
<path d="M0 0 C2 1 2 1 2 1 Z " fill="#662BC9" transform="translate(162,176)"/>
<path d="M0 0 C2 1 2 1 2 1 Z " fill="#662BC9" transform="translate(32,174)"/>
<path d="" fill="#662BC9" transform="translate(0,0)"/>
<path d="" fill="#662BC9" transform="translate(0,0)"/>
<path d="" fill="#662BC9" transform="translate(0,0)"/>
<path d="" fill="#662BC9" transform="translate(0,0)"/>
<path d="" fill="#662BC9" transform="translate(0,0)"/>
<path d="" fill="#662BC9" transform="translate(0,0)"/>
<path d="" fill="#662BC9" transform="translate(0,0)"/>
<path d="" fill="#662BC9" transform="translate(0,0)"/>
<path d="M0 0 C2 1 2 1 2 1 Z " fill="#662BC9" transform="translate(164,23)"/>
<path d="M0 0 C2 1 2 1 2 1 Z " fill="#662BC9" transform="translate(37,19)"/>
<path d="M0 0 C2 1 2 1 2 1 Z " fill="#662BC9" transform="translate(158,18)"/>
<path d="M0 0 C2 1 2 1 2 1 Z " fill="#662BC9" transform="translate(155,16)"/>
<path d="M0 0 C2 1 2 1 2 1 Z " fill="#662BC9" transform="translate(41,16)"/>
<path d="M0 0 C2 1 2 1 2 1 Z " fill="#662BC9" transform="translate(152,14)"/>
<path d="M0 0 C2 1 2 1 2 1 Z " fill="#662BC9" transform="translate(44,14)"/>
<path d="M0 0 C2 1 2 1 2 1 Z " fill="#662BC9" transform="translate(149,12)"/>
<path d="M0 0 C2 1 2 1 2 1 Z " fill="#662BC9" transform="translate(47,12)"/>
<path d="M0 0 C2 1 2 1 2 1 Z " fill="#662BC9" transform="translate(147,11)"/>
<path d="M0 0 C2 1 2 1 2 1 Z " fill="#662BC9" transform="translate(49,11)"/>
<path d="M0 0 C2 1 2 1 2 1 Z " fill="#662BC9" transform="translate(51,10)"/>
<path d="M0 0 C2 1 2 1 2 1 Z " fill="#662BC9" transform="translate(144,9)"/>
<path d="M0 0 C2 1 2 1 2 1 Z " fill="#662BC9" transform="translate(53,9)"/>
<path d="M0 0 C2 1 2 1 2 1 Z " fill="#662BC9" transform="translate(142,8)"/>
<path d="M0 0 C2 1 2 1 2 1 Z " fill="#662BC9" transform="translate(55,8)"/>
<path d="M0 0 C2 1 2 1 2 1 Z " fill="#662BC9" transform="translate(140,7)"/>
<path d="M0 0 C2 1 2 1 2 1 Z " fill="#662BC9" transform="translate(57,7)"/>
<path d="M0 0 C2 1 2 1 2 1 Z " fill="#662BC9" transform="translate(59,6)"/>
<path d="M0 0 C2 1 2 1 2 1 Z " fill="#662BC9" transform="translate(135,5)"/>
<path d="M0 0 C2 1 2 1 2 1 Z " fill="#662BC9" transform="translate(61,5)"/>
<path d="" fill="#662BC9" transform="translate(0,0)"/>
<path d="" fill="#662BC9" transform="translate(0,0)"/>
<path d="" fill="#662BC9" transform="translate(0,0)"/>
<path d="" fill="#662BC9" transform="translate(0,0)"/>
<path d="" fill="#662BC9" transform="translate(0,0)"/>
<path d="" fill="#662BC9" transform="translate(0,0)"/>
<path d="" fill="#662BC9" transform="translate(0,0)"/>
<path d="" fill="#662BC9" transform="translate(0,0)"/>
<path d="" fill="#662BC9" transform="translate(0,0)"/>
<path d="" fill="#662BC9" transform="translate(0,0)"/>
<path d="" fill="#662BC9" transform="translate(0,0)"/>
<path d="" fill="#662BC9" transform="translate(0,0)"/>
<path d="" fill="#662BC9" transform="translate(0,0)"/>
<path d="" fill="#662BC9" transform="translate(0,0)"/>
<path d="" fill="#662BC9" transform="translate(0,0)"/>
<path d="" fill="#662BC9" transform="translate(0,0)"/>
<path d="" fill="#662BC9" transform="translate(0,0)"/>
<path d="" fill="#662BC9" transform="translate(0,0)"/>
<path d="" fill="#662BC9" transform="translate(0,0)"/>
<path d="" fill="#662BC9" transform="translate(0,0)"/>
<path d="" fill="#662BC9" transform="translate(0,0)"/>
<path d="" fill="#662BC9" transform="translate(0,0)"/>
<path d="" fill="#662BC9" transform="translate(0,0)"/>
<path d="" fill="#662BC9" transform="translate(0,0)"/>
<path d="" fill="#662BC9" transform="translate(0,0)"/>
<path d="" fill="#662BC9" transform="translate(0,0)"/>
<path d="" fill="#662BC9" transform="translate(0,0)"/>
<path d="" fill="#662BC9" transform="translate(0,0)"/>
<path d="" fill="#662BC9" transform="translate(0,0)"/>
<path d="" fill="#662BC9" transform="translate(0,0)"/>
<path d="" fill="#662BC9" transform="translate(0,0)"/>
<path d="" fill="#662BC9" transform="translate(0,0)"/>
<path d="" fill="#662BC9" transform="translate(0,0)"/>
<path d="" fill="#662BC9" transform="translate(0,0)"/>
<path d="" fill="#662BC9" transform="translate(0,0)"/>
<path d="" fill="#662BC9" transform="translate(0,0)"/>
<path d="" fill="#662BC9" transform="translate(0,0)"/>
<path d="" fill="#662BC9" transform="translate(0,0)"/>
<path d="" fill="#662BC9" transform="translate(0,0)"/>
<path d="" fill="#662BC9" transform="translate(0,0)"/>
<path d="" fill="#662BC9" transform="translate(0,0)"/>
<path d="" fill="#662BC9" transform="translate(0,0)"/>
<path d="" fill="#662BC9" transform="translate(0,0)"/>
<path d="" fill="#662BC9" transform="translate(0,0)"/>
<path d="" fill="#662BC9" transform="translate(0,0)"/>
<path d="" fill="#662BC9" transform="translate(0,0)"/>
<path d="" fill="#662BC9" transform="translate(0,0)"/>
<path d="" fill="#662BC9" transform="translate(0,0)"/>
<path d="" fill="#662BC9" transform="translate(0,0)"/>
<path d="" fill="#662BC9" transform="translate(0,0)"/>
<path d="" fill="#662BC9" transform="translate(0,0)"/>
<path d="" fill="#662BC9" transform="translate(0,0)"/>
<path d="" fill="#662BC9" transform="translate(0,0)"/>
<path d="" fill="#662BC9" transform="translate(0,0)"/>
<path d="" fill="#662BC9" transform="translate(0,0)"/>
<path d="" fill="#662BC9" transform="translate(0,0)"/>
<path d="" fill="#662BC9" transform="translate(0,0)"/>
<path d="" fill="#662BC9" transform="translate(0,0)"/>
<path d="" fill="#662BC9" transform="translate(0,0)"/>
<path d="" fill="#662BC9" transform="translate(0,0)"/>
<path d="" fill="#662BC9" transform="translate(0,0)"/>
<path d="" fill="#662BC9" transform="translate(0,0)"/>
<path d="" fill="#662BC9" transform="translate(0,0)"/>
<path d="" fill="#662BC9" transform="translate(0,0)"/>
</svg>
