<?xml version="1.0" encoding="UTF-8"?>
<svg version="1.1" xmlns="http://www.w3.org/2000/svg" width="200" height="200">
<path d="M0 0 C2.82045877 2.30263418 5.56336058 4.67903285 8.27832031 7.10449219 C11.1535235 9.666713 11.1535235 9.666713 14.50878906 11.77246094 C17.18066406 13.58496094 17.18066406 13.58496094 17.86816406 15.77246094 C18.02285156 16.66964844 18.02285156 16.66964844 18.18066406 17.58496094 C19.17066406 17.91496094 20.16066406 18.24496094 21.18066406 18.58496094 C21.51066406 19.57496094 21.84066406 20.56496094 22.18066406 21.58496094 C22.78394531 22.1740625 23.38722656 22.76316406 24.00878906 23.37011719 C26.61161449 26.02443736 28.16331475 28.75588582 29.93066406 32.02246094 C30.85105469 33.69115234 30.85105469 33.69115234 31.79003906 35.39355469 C33.13514811 38.48050439 33.50200878 40.27881822 33.18066406 43.58496094 C33.84066406 43.58496094 34.50066406 43.58496094 35.18066406 43.58496094 C39.64424539 56.0781479 40.85665551 67.12735329 40.55566406 80.33496094 C40.53909422 82.04587815 40.52476266 83.75681854 40.51269531 85.46777344 C40.3702832 98.68935945 40.3702832 98.68935945 39.18066406 103.58496094 C38.52066406 103.58496094 37.86066406 103.58496094 37.18066406 103.58496094 C37.18066406 105.89496094 37.18066406 108.20496094 37.18066406 110.58496094 C36.52066406 110.58496094 35.86066406 110.58496094 35.18066406 110.58496094 C34.52066406 113.88496094 33.86066406 117.18496094 33.18066406 120.58496094 C32.52066406 120.58496094 31.86066406 120.58496094 31.18066406 120.58496094 C31.10589844 121.42542969 31.03113281 122.26589844 30.95410156 123.13183594 C30.00301116 127.37811833 28.20111083 130.25695184 25.80566406 133.83496094 C25.40605469 134.45886719 25.00644531 135.08277344 24.59472656 135.72558594 C22.64505024 138.70140769 21.175244 140.58857431 18.18066406 142.58496094 C17.87128906 143.24496094 17.56191406 143.90496094 17.24316406 144.58496094 C16.18066406 146.58496094 16.18066406 146.58496094 14.29394531 147.52246094 C12.05773456 148.64676653 10.95666201 149.72870379 9.30566406 151.58496094 C-7.5531495 168.76523493 -31.7922615 178.47350042 -55.67724609 178.87768555 C-83.14890277 179.03784131 -105.50892955 171.73865683 -126.31811523 153.40429688 C-129.3378039 150.75277047 -132.36813316 148.62599484 -135.81933594 146.58496094 C-136.52084746 145.26962683 -137.18459519 143.93378502 -137.81933594 142.58496094 C-139.08777344 141.37839844 -139.08777344 141.37839844 -140.38183594 140.14746094 C-142.93144067 137.46710724 -143.50996572 136.19428011 -143.81933594 132.58496094 C-144.80933594 132.25496094 -145.79933594 131.92496094 -146.81933594 131.58496094 C-150.62798259 125.57828936 -153.21756631 119.65575401 -153.81933594 112.58496094 C-154.47933594 111.59496094 -155.13933594 110.60496094 -155.81933594 109.58496094 C-156.19144014 108.26192377 -156.52563767 106.92758159 -156.81933594 105.58496094 C-157.14933594 104.59496094 -157.47933594 103.60496094 -157.81933594 102.58496094 C-158.14933594 102.58496094 -158.47933594 102.58496094 -158.81933594 102.58496094 C-158.87027326 96.32278946 -158.90516878 90.06067193 -158.92919922 83.79833984 C-158.93922299 81.67038984 -158.95284555 79.5424535 -158.97021484 77.41455078 C-158.99462286 74.34631976 -159.00585555 71.27827173 -159.01464844 68.20996094 C-159.02497101 67.26693115 -159.03529358 66.32390137 -159.04592896 65.35229492 C-159.04686971 59.74541582 -158.41278806 54.96630789 -156.81933594 49.58496094 C-156.15933594 49.58496094 -155.49933594 49.58496094 -154.81933594 49.58496094 C-154.69816406 48.88628906 -154.57699219 48.18761719 -154.45214844 47.46777344 C-154.28457031 46.55769531 -154.11699219 45.64761719 -153.94433594 44.70996094 C-153.78191406 43.80503906 -153.61949219 42.90011719 -153.45214844 41.96777344 C-152.81933594 39.58496094 -152.81933594 39.58496094 -150.81933594 37.58496094 C-149.71378412 35.63398714 -148.89319267 33.94732054 -148.44433594 31.74511719 C-147.67559861 29.08816878 -146.42875814 27.18569548 -144.88183594 24.89746094 C-144.3571875 24.10984375 -143.83253906 23.32222656 -143.29199219 22.51074219 C-141.81933594 20.58496094 -141.81933594 20.58496094 -139.81933594 19.58496094 C-139.48933594 18.59496094 -139.15933594 17.60496094 -138.81933594 16.58496094 C-138.25988281 16.318125 -137.70042969 16.05128906 -137.12402344 15.77636719 C-133.75454168 14.03451645 -131.50732154 11.25605376 -128.94433594 8.52246094 C-95.59880991 -25.77011212 -37.69548479 -29.31871039 0 0 Z M34.18066406 46.58496094 C35.18066406 48.58496094 35.18066406 48.58496094 35.18066406 48.58496094 Z M35.18066406 49.58496094 C36.18066406 51.58496094 36.18066406 51.58496094 36.18066406 51.58496094 Z M36.18066406 52.58496094 C37.18066406 55.58496094 37.18066406 55.58496094 37.18066406 55.58496094 Z M-156.81933594 53.58496094 C-155.81933594 56.58496094 -155.81933594 56.58496094 -155.81933594 56.58496094 Z M37.18066406 56.58496094 C38.18066406 59.58496094 38.18066406 59.58496094 38.18066406 59.58496094 Z M-157.81933594 57.58496094 C-156.81933594 61.58496094 -156.81933594 61.58496094 -156.81933594 61.58496094 Z M38.18066406 60.58496094 C38.18066406 62.23496094 38.18066406 63.88496094 38.18066406 65.58496094 C38.51066406 65.58496094 38.84066406 65.58496094 39.18066406 65.58496094 C39.18066406 63.93496094 39.18066406 62.28496094 39.18066406 60.58496094 C38.85066406 60.58496094 38.52066406 60.58496094 38.18066406 60.58496094 Z M38.18066406 93.58496094 C38.18066406 95.23496094 38.18066406 96.88496094 38.18066406 98.58496094 C38.51066406 98.58496094 38.84066406 98.58496094 39.18066406 98.58496094 C39.18066406 96.93496094 39.18066406 95.28496094 39.18066406 93.58496094 C38.85066406 93.58496094 38.52066406 93.58496094 38.18066406 93.58496094 Z " fill="#462A71" transform="translate(158.8193359375,19.4150390625)"/>
<path d="M0 0 C0.33 0 0.66 0 1 0 C1.33 43.23 1.66 86.46 2 131 C2.66 131.33 3.32 131.66 4 132 C5.433564 134.18807136 6.05160495 135.43234551 5.8125 138.0625 C4.85525712 140.3451561 3.95342158 141.48067211 2 143 C1.29875 143.165 0.5975 143.33 -0.125 143.5 C-0.74375 143.665 -1.3625 143.83 -2 144 C-2.33 144.99 -2.66 145.98 -3 147 C-3.99 147.33 -4.98 147.66 -6 148 C-6.680625 148.680625 -7.36125 149.36125 -8.0625 150.0625 C-8.701875 150.701875 -9.34125 151.34125 -10 152 C-10.66 152 -11.32 152 -12 152 C-12 152.66 -12 153.32 -12 154 C-13.95927063 155.7143618 -15.95880212 157.38405168 -18 159 C-18.33 158.01 -18.66 157.02 -19 156 C-18.505 155.01 -18.505 155.01 -18 154 C-17.34 154 -16.68 154 -16 154 C-15.34 149.05 -14.68 144.1 -14 139 C-13.34 139 -12.68 139 -12 139 C-12 116.56 -12 94.12 -12 71 C-12.66 71 -13.32 71 -14 71 C-14.66 68.69 -15.32 66.38 -16 64 C-16.66 64 -17.32 64 -18 64 C-18 63.34 -18 62.68 -18 62 C-17.34 62 -16.68 62 -16 62 C-15.855625 61.401875 -15.71125 60.80375 -15.5625 60.1875 C-15.1127561 58.43849596 -14.57107659 56.71322977 -14 55 C-13.34 55 -12.68 55 -12 55 C-11.855625 54.236875 -11.71125 53.47375 -11.5625 52.6875 C-11 50 -11 50 -10 47 C-9.34 47 -8.68 47 -8 47 C-7.855625 45.824375 -7.71125 44.64875 -7.5625 43.4375 C-7.08589824 39.61787728 -6.55546456 35.80889981 -6 32 C-5.34 32 -4.68 32 -4 32 C-3.93941406 31.11699219 -3.87882812 30.23398437 -3.81640625 29.32421875 C-3.29621939 21.8735423 -2.71312742 14.43473264 -2 7 C-1.34 7 -0.68 7 0 7 C0 4.69 0 2.38 0 0 Z " fill="#F6F4F9" transform="translate(83,21)"/>
<path d="M0 0 C0.33 0 0.66 0 1 0 C2.03026944 6.69675136 2.10152799 13.2314676 2 20 C2.66 20 3.32 20 4 20 C4.66 26.6 5.32 33.2 6 40 C6.66 40 7.32 40 8 40 C8.99 45.445 8.99 45.445 10 51 C10.66 51 11.32 51 12 51 C13.25664978 53.90600261 14 55.79604584 14 59 C14.66 59 15.32 59 16 59 C18.21538462 64.41538462 18.21538462 64.41538462 17.125 67.375 C16.75375 67.91125 16.3825 68.4475 16 69 C15.34 69 14.68 69 14 69 C12.74837768 75.77951733 12.85594909 82.50978843 12.8671875 89.38671875 C12.86623077 90.68011673 12.86527405 91.97351471 12.86428833 93.30610657 C12.86281919 96.0386373 12.86493887 98.77113521 12.86962891 101.50366211 C12.8752973 104.97180931 12.8720606 108.4398786 12.86605644 111.90802288 C12.86152746 115.25509403 12.86472079 118.6021454 12.8671875 121.94921875 C12.86516327 123.1777507 12.86313904 124.40628265 12.86105347 125.67204285 C12.88110384 133.16348377 13.25114649 140.54567835 14 148 C14.66 148 15.32 148 16 148 C16.66 150.97 17.32 153.94 18 157 C18.66 157 19.32 157 20 157 C20 157.66 20 158.32 20 159 C17 159 17 159 15.4375 157.5625 C14.963125 157.046875 14.48875 156.53125 14 156 C13.34 155.67 12.68 155.34 12 155 C12 154.34 12 153.68 12 153 C10.68 152.34 9.36 151.68 8 151 C8 150.34 8 149.68 8 149 C7.1028125 148.8453125 7.1028125 148.8453125 6.1875 148.6875 C3.66608978 147.89505679 2.80534232 146.88056492 1 145 C-1.09989652 143.82425289 -1.09989652 143.82425289 -3 143 C-3 142.34 -3 141.68 -3 141 C-3.99 141 -4.98 141 -6 141 C-6.1875 138.6875 -6.1875 138.6875 -6 136 C-4.5625 134.3125 -4.5625 134.3125 -3 133 C-2.505 132.01 -2.505 132.01 -2 131 C-1.34 131 -0.68 131 0 131 C0 87.77 0 44.54 0 0 Z " fill="#FAFAFB" transform="translate(115,20)"/>
<path d="M0 0 C2.31 0 4.62 0 7 0 C7 0.99 7 1.98 7 3 C9.475 3.99 9.475 3.99 12 5 C12 5.66 12 6.32 12 7 C12.598125 7.144375 13.19625 7.28875 13.8125 7.4375 C18.81609195 8.72413793 18.81609195 8.72413793 21 12 C21.99 12.33 22.98 12.66 24 13 C25.02019573 13.9793879 26.02149805 14.97895449 27 16 C27.66 16.33 28.32 16.66 29 17 C29 17.66 29 18.32 29 19 C29.99 19.33 30.98 19.66 32 20 C28.37673261 21.2077558 27.35853631 20.54311128 24 19 C24 18.34 24 17.68 24 17 C19.545 16.01 19.545 16.01 15 15 C15 14.34 15 13.68 15 13 C7.41 13 -0.18 13 -8 13 C-8 13.66 -8 14.32 -8 15 C-10.97 15.66 -13.94 16.32 -17 17 C-17 17.66 -17 18.32 -17 19 C-19.64 19.66 -22.28 20.32 -25 21 C-24.00269864 18.5067466 -23.34925469 17.22532561 -21.0625 15.75 C-19 15 -19 15 -16 15 C-15.67 14.01 -15.34 13.02 -15 12 C-12.93783068 9.54503653 -10.83336981 8.4166849 -8 7 C-7.67 6.34 -7.34 5.68 -7 5 C-6.01 4.690625 -5.02 4.38125 -4 4.0625 C-3.01 3.711875 -2.02 3.36125 -1 3 C-0.67 2.01 -0.34 1.02 0 0 Z " fill="#F6F6FA" transform="translate(96,160)"/>
<path d="M0 0 C0.33 0.66 0.66 1.32 1 2 C1.66 2 2.32 2 3 2 C3.66 1.34 4.32 0.68 5 0 C5 0.66 5 1.32 5 2 C8.63 2 12.26 2 16 2 C16.33 1.34 16.66 0.68 17 0 C17 0.99 17 1.98 17 3 C17.66 3.33 18.32 3.66 19 4 C16.53721199 5.231394 14.7204945 5.07159196 12 5 C12.99 5.33 13.98 5.66 15 6 C15.495 8.475 15.495 8.475 16 11 C14.7625 11.0825 13.525 11.165 12.25 11.25 C8.22704239 11.72537594 6.68286446 12.91967413 4 16 C3.01 16 2.02 16 1 16 C0.34 17.32 -0.32 18.64 -1 20 C-1.99 20 -2.98 20 -4 20 C-4.33 20.99 -4.66 21.98 -5 23 C-7.0315526 25.418515 -9.07697999 26.81252312 -12 28 C-12.99 28 -13.98 28 -15 28 C-15 29.32 -15 30.64 -15 32 C-15.8125 34.1875 -15.8125 34.1875 -17 36 C-18.485 36.495 -18.485 36.495 -20 37 C-20 36.01 -20 35.02 -20 34 C-20.99 34 -21.98 34 -23 34 C-23 32.68 -23 31.36 -23 30 C-22.34 30 -21.68 30 -21 30 C-20.34 28.68 -19.68 27.36 -19 26 C-18.34 26 -17.68 26 -17 26 C-17 25.34 -17 24.68 -17 24 C-16.38125 23.731875 -15.7625 23.46375 -15.125 23.1875 C-12.7004767 22.04443152 -12.7004767 22.04443152 -11 19 C-10.01 18.67 -9.02 18.34 -8 18 C-7.525625 17.505 -7.05125 17.01 -6.5625 16.5 C-4.74806281 14.75814029 -3.44440923 14.42144987 -1 14 C-0.25073929 10.33694766 0.2380014 7.57644848 -1 4 C-1.66 4 -2.32 4 -3 4 C-3 3.34 -3 2.68 -3 2 C-2.01 2 -1.02 2 0 2 C0 1.34 0 0.68 0 0 Z " fill="#373562" transform="translate(88,149)"/>
<path d="M0 0 C0.33 0.66 0.66 1.32 1 2 C2.32 2 3.64 2 5 2 C5 5.63 5 9.26 5 13 C4.67 13 4.34 13 4 13 C3.67 31.81 3.34 50.62 3 70 C2.34 70 1.68 70 1 70 C0.00745169 61.59698507 -0.31823369 53.22494325 -0.55761719 44.77416992 C-0.62576263 42.41105381 -0.70326144 40.0483564 -0.78125 37.68554688 C-0.82608145 36.18491248 -0.87037273 34.68426182 -0.9140625 33.18359375 C-0.93796051 32.47641708 -0.96185852 31.76924042 -0.98648071 31.04063416 C-1.03018115 29.36098512 -1.02053609 27.68009192 -1 26 C-0.67 25.67 -0.34 25.34 0 25 C0.14549982 21.87175382 0.01536351 19.08193874 -0.5625 16 C-1.03836353 12.73693578 -0.68725769 10.20720254 0 7 C-0.33 7 -0.66 7 -1 7 C-1.04254356 5.00045254 -1.04080783 2.99958364 -1 1 C-0.67 0.67 -0.34 0.34 0 0 Z " fill="#593274" transform="translate(112,15)"/>
<path d="M0 0 C1.3096875 -0.00257813 2.619375 -0.00515625 3.96875 -0.0078125 C9.18971963 0.1885514 9.18971963 0.1885514 11.5 1.125 C12.75 3.6875 12.75 3.6875 13.5 6.125 C11.25 7.3125 11.25 7.3125 8.5 8.125 C6.5 6.75 6.5 6.75 4.5 5.125 C1.83238236 4.87375174 1.83238236 4.87375174 -0.5 5.125 C-0.17 6.115 0.16 7.105 0.5 8.125 C-2.66791647 9.26544993 -4.96304552 8.88044277 -8.21875 8.31640625 C-13.29998321 7.8900699 -18.43917464 8.63033286 -23.5 9.125 C-23.5 8.465 -23.5 7.805 -23.5 7.125 C-22.51 7.125 -21.52 7.125 -20.5 7.125 C-20.5 6.465 -20.5 5.805 -20.5 5.125 C-17.12902617 3.62678941 -15.29557881 3.125 -11.5 3.125 C-11.5 2.465 -11.5 1.805 -11.5 1.125 C-7.67904503 -0.1031641 -3.98826961 -0.00785092 0 0 Z " fill="#2D2C53" transform="translate(99.5,171.875)"/>
<path d="M0 0 C0.33 0 0.66 0 1 0 C2.03026944 6.69675136 2.10152799 13.2314676 2 20 C2.66 20 3.32 20 4 20 C4.36692116 22.49870275 4.7187099 24.99809525 5.0625 27.5 C5.16626953 28.19609375 5.27003906 28.8921875 5.37695312 29.609375 C6.05235795 34.63997643 5.80733869 38.98659609 5 44 C3.68 44 2.36 44 1 44 C1 58.19 1 72.38 1 87 C0.67 87 0.34 87 0 87 C0 58.29 0 29.58 0 0 Z " fill="#DFCFE7" transform="translate(115,20)"/>
<path d="M0 0 C0.33 0 0.66 0 1 0 C1.19491452 1.45736087 1.38069358 2.91594593 1.5625 4.375 C1.66691406 5.18710938 1.77132812 5.99921875 1.87890625 6.8359375 C2 9 2 9 1 11 C1.61875 10.79375 2.2375 10.5875 2.875 10.375 C3.926875 10.189375 3.926875 10.189375 5 10 C5.66 10.66 6.32 11.32 7 12 C6.01 13.485 6.01 13.485 5 15 C5.66 15.33 6.32 15.66 7 16 C6.34 17.32 5.68 18.64 5 20 C3.35 20 1.7 20 0 20 C-0.33 20.66 -0.66 21.32 -1 22 C-1 21.34 -1 20.68 -1 20 C-1.61875 19.855625 -2.2375 19.71125 -2.875 19.5625 C-5 19 -5 19 -7 18 C-7 17.34 -7 16.68 -7 16 C-9.475 15.01 -9.475 15.01 -12 14 C-12 13.34 -12 12.68 -12 12 C-12.9590625 11.8453125 -12.9590625 11.8453125 -13.9375 11.6875 C-14.9584375 11.3471875 -14.9584375 11.3471875 -16 11 C-16.33 10.01 -16.66 9.02 -17 8 C-18.93618425 7.32843384 -18.93618425 7.32843384 -21 7 C-21.66 6.67 -22.32 6.34 -23 6 C-23 5.34 -23 4.68 -23 4 C-17.38754688 3.43875469 -13.65354321 5.08906021 -9 8 C-6.5 10.125 -6.5 10.125 -5 12 C-5 12.66 -5 13.32 -5 14 C-3.35 14.66 -1.7 15.32 0 16 C0 16.66 0 17.32 0 18 C0.99 18 1.98 18 3 18 C3 17.34 3 16.68 3 16 C2.34 16 1.68 16 1 16 C-1.25929298 11.48141403 -1.23967948 7.95337583 -1 3 C-0.67 2.01 -0.34 1.02 0 0 Z " fill="#2B2E52" transform="translate(132,161)"/>
<path d="M0 0 C0.33 0 0.66 0 1 0 C1 24.75 1 49.5 1 75 C0.67 75 0.34 75 0 75 C0 69.72 0 64.44 0 59 C-0.66 59 -1.32 59 -2 59 C-2 44.81 -2 30.62 -2 16 C-1.34 16 -0.68 16 0 16 C0 10.72 0 5.44 0 0 Z " fill="#9E82B8" transform="translate(99,48)"/>
<path d="M0 0 C0.66 0 1.32 0 2 0 C2 10.56 2 21.12 2 32 C1.34 32 0.68 32 0 32 C-0.33 32.99 -0.66 33.98 -1 35 C-1.99 33.68 -2.98 32.36 -4 31 C-3.01 31 -2.02 31 -1 31 C-1.33 30.34 -1.66 29.68 -2 29 C-2.25797575 25.04437178 -2.09440189 22.40340307 0 19 C-0.66 19 -1.32 19 -2 19 C-1.37802877 12.66118686 -0.71457113 6.32905858 0 0 Z " fill="#2F2A57" transform="translate(69,128)"/>
<path d="M0 0 C0.33 0.66 0.66 1.32 1 2 C1.66 2 2.32 2 3 2 C3 3.32 3 4.64 3 6 C2.34 6 1.68 6 1 6 C0.855625 6.763125 0.71125 7.52625 0.5625 8.3125 C0 11 0 11 -1 14 C-1.66 14 -2.32 14 -3 14 C-3.33 14.99 -3.66 15.98 -4 17 C-4.99 17 -5.98 17 -7 17 C-7.33 15.02 -7.66 13.04 -8 11 C-7.67 11.66 -7.34 12.32 -7 13 C-6.34 13 -5.68 13 -5 13 C-5 11.68 -5 10.36 -5 9 C-5.66 9 -6.32 9 -7 9 C-7 8.01 -7 7.02 -7 6 C-6.34 6 -5.68 6 -5 6 C-5 4.68 -5 3.36 -5 2 C-3.68 2 -2.36 2 -1 2 C-0.67 1.34 -0.34 0.68 0 0 Z " fill="#582D76" transform="translate(72,62)"/>
<path d="M0 0 C0 1.32 0 2.64 0 4 C-3 6 -3 6 -6 6 C-6 7.32 -6 8.64 -6 10 C-6.8125 12.1875 -6.8125 12.1875 -8 14 C-8.99 14.33 -9.98 14.66 -11 15 C-11 14.01 -11 13.02 -11 12 C-11.99 12 -12.98 12 -14 12 C-14 10.68 -14 9.36 -14 8 C-13.34 8 -12.68 8 -12 8 C-11.34 6.68 -10.68 5.36 -10 4 C-9.34 4 -8.68 4 -8 4 C-8 3.34 -8 2.68 -8 2 C-4.91190305 0.23537317 -3.76687864 0 0 0 Z " fill="#323057" transform="translate(79,171)"/>
<path d="M0 0 C0.33 0.66 0.66 1.32 1 2 C1.66 2 2.32 2 3 2 C3.66 1.34 4.32 0.68 5 0 C5 0.66 5 1.32 5 2 C8.63 2 12.26 2 16 2 C16.33 1.34 16.66 0.68 17 0 C17 0.99 17 1.98 17 3 C17.66 3.33 18.32 3.66 19 4 C16.53721199 5.231394 14.7204945 5.07159196 12 5 C12.99 5.33 13.98 5.66 15 6 C15.33 7.65 15.66 9.3 16 11 C14.68 10.67 13.36 10.34 12 10 C12 9.34 12 8.68 12 8 C9.36 8 6.72 8 4 8 C3.67 6.68 3.34 5.36 3 4 C2.34 4 1.68 4 1 4 C0.67 4.66 0.34 5.32 0 6 C0 4.02 0 2.04 0 0 Z " fill="#2A295F" transform="translate(88,149)"/>
<path d="M0 0 C1.06863281 0.01804688 2.13726562 0.03609375 3.23828125 0.0546875 C4.04652344 0.07789063 4.85476562 0.10109375 5.6875 0.125 C5.6875 1.445 5.6875 2.765 5.6875 4.125 C7.0075 4.455 8.3275 4.785 9.6875 5.125 C6.51958353 6.26544993 4.22445448 5.88044277 0.96875 5.31640625 C-4.11248321 4.8900699 -9.25167464 5.63033286 -14.3125 6.125 C-14.3125 5.465 -14.3125 4.805 -14.3125 4.125 C-13.3225 4.125 -12.3325 4.125 -11.3125 4.125 C-11.3125 3.465 -11.3125 2.805 -11.3125 2.125 C-7.38392246 0.27368517 -4.32474888 -0.09504943 0 0 Z " fill="#2A2A54" transform="translate(90.3125,174.875)"/>
<path d="M0 0 C0.66 0 1.32 0 2 0 C2.33 3.96 2.66 7.92 3 12 C3.99 12.33 4.98 12.66 6 13 C3 14 3 14 0.8125 13.0625 C0.214375 12.711875 -0.38375 12.36125 -1 12 C-1 11.34 -1 10.68 -1 10 C-1.99 10 -2.98 10 -4 10 C-4.1875 7.6875 -4.1875 7.6875 -4 5 C-2.5625 3.3125 -2.5625 3.3125 -1 2 C-0.67 1.34 -0.34 0.68 0 0 Z " fill="#E8EAF4" transform="translate(113,151)"/>
<path d="M0 0 C0.66 0 1.32 0 2 0 C2.66 0.99 3.32 1.98 4 3 C4.99 3.33 5.98 3.66 7 4 C8.02019573 4.9793879 9.02149805 5.97895449 10 7 C10.66 7.33 11.32 7.66 12 8 C12 8.66 12 9.32 12 10 C12.99 10.33 13.98 10.66 15 11 C11.37673261 12.2077558 10.35853631 11.54311128 7 10 C7 9.34 7 8.68 7 8 C2.545 7.01 2.545 7.01 -2 6 C-1.34 4.02 -0.68 2.04 0 0 Z " fill="#DFE1ED" transform="translate(113,169)"/>
<path d="M0 0 C5.39040653 -0.53904065 9.62871165 0.88063194 14 4 C14.33 4.99 14.66 5.98 15 7 C12.08517222 7.80967438 10.53886783 8.21845993 7.6875 7.0625 C7.130625 6.711875 6.57375 6.36125 6 6 C6 5.34 6 4.68 6 4 C5.071875 3.7834375 5.071875 3.7834375 4.125 3.5625 C2 3 2 3 0 2 C0 1.34 0 0.68 0 0 Z " fill="#3B3D58" transform="translate(109,165)"/>
<path d="M0 0 C0.33 0.99 0.66 1.98 1 3 C1.66 3 2.32 3 3 3 C3.66 2.34 4.32 1.68 5 1 C5 2.32 5 3.64 5 5 C5.99 5 6.98 5 8 5 C8.33 5.66 8.66 6.32 9 7 C11.01669827 8.13350534 11.01669827 8.13350534 13 9 C12.67 9.66 12.34 10.32 12 11 C9.69 10.34 7.38 9.68 5 9 C4.67 9.66 4.34 10.32 4 11 C3.54625 10.525625 3.0925 10.05125 2.625 9.5625 C1.06741796 7.90972192 1.06741796 7.90972192 -1 7 C-1.04254356 5.00045254 -1.04080783 2.99958364 -1 1 C-0.67 0.67 -0.34 0.34 0 0 Z " fill="#3C3964" transform="translate(104,156)"/>
<path d="M0 0 C1.32 0.33 2.64 0.66 4 1 C3.34 3.64 2.68 6.28 2 9 C1.34 9 0.68 9 0 9 C-0.33 10.32 -0.66 11.64 -1 13 C-1.99 13 -2.98 13 -4 13 C-4.33 13.99 -4.66 14.98 -5 16 C-4.67 13.69 -4.34 11.38 -4 9 C-3.34 9 -2.68 9 -2 9 C-1.7834375 7.0509375 -1.7834375 7.0509375 -1.5625 5.0625 C-1.125 1.125 -1.125 1.125 0 0 Z " fill="#553E78" transform="translate(133,80)"/>
<path d="M0 0 C0.66 0 1.32 0 2 0 C2 0.99 2 1.98 2 3 C2.66 3 3.32 3 4 3 C4 3.66 4 4.32 4 5 C3.01 5 2.02 5 1 5 C0.67 5.99 0.34 6.98 0 8 C-2.0625 9.6875 -2.0625 9.6875 -4 11 C-4 9.68 -4 8.36 -4 7 C-4.99 7 -5.98 7 -7 7 C-6.67 6.01 -6.34 5.02 -6 4 C-5.01 3.67 -4.02 3.34 -3 3 C-2.484375 2.484375 -1.96875 1.96875 -1.4375 1.4375 C-0.963125 0.963125 -0.48875 0.48875 0 0 Z " fill="#393755" transform="translate(83,164)"/>
<path d="M0 0 C0.33 0 0.66 0 1 0 C1.11611395 4.24977046 1.18722349 8.49913337 1.25 12.75 C1.30027344 14.55984375 1.30027344 14.55984375 1.3515625 16.40625 C1.36445312 17.56640625 1.37734375 18.7265625 1.390625 19.921875 C1.41157227 20.99018555 1.43251953 22.05849609 1.45410156 23.15917969 C0.88788601 26.70137551 -0.32805409 27.70071043 -3 30 C-3.66 30.99 -4.32 31.98 -5 33 C-5.66 32.67 -6.32 32.34 -7 32 C-7 31.34 -7 30.68 -7 30 C-6.34 30 -5.68 30 -5 30 C-5 29.34 -5 28.68 -5 28 C-4.34 28 -3.68 28 -3 28 C-3 27.01 -3 26.02 -3 25 C-2.34 25 -1.68 25 -1 25 C-0.67 16.75 -0.34 8.5 0 0 Z " fill="#2F2D55" transform="translate(112,127)"/>
<path d="M0 0 C2.625 0.9375 2.625 0.9375 5 2 C5 2.66 5 3.32 5 4 C2.03 4.66 -0.94 5.32 -4 6 C-4 6.66 -4 7.32 -4 8 C-6.64 8.66 -9.28 9.32 -12 10 C-11.00269864 7.5067466 -10.34925469 6.22532561 -8.0625 4.75 C-6 4 -6 4 -3 4 C-2.67 3.01 -2.34 2.02 -2 1 C-1.34 0.67 -0.68 0.34 0 0 Z " fill="#EAEAF6" transform="translate(83,171)"/>
<path d="M0 0 C1.61949011 2.57213134 2.04408751 3.67669159 1.625 6.75 C1.41875 7.4925 1.2125 8.235 1 9 C0.01 9.33 -0.98 9.66 -2 10 C-2 11.32 -2 12.64 -2 14 C-1.34 14 -0.68 14 0 14 C0 14.66 0 15.32 0 16 C-0.99 16 -1.98 16 -3 16 C-3.33 14.68 -3.66 13.36 -4 12 C-4.66 12 -5.32 12 -6 12 C-6 11.34 -6 10.68 -6 10 C-5.34 10 -4.68 10 -4 10 C-3.855625 9.401875 -3.71125 8.80375 -3.5625 8.1875 C-3.1127561 6.43849596 -2.57107659 4.71322977 -2 3 C-1.34 3 -0.68 3 0 3 C0 2.01 0 1.02 0 0 Z " fill="#F2E7F7" transform="translate(71,73)"/>
<path d="M0 0 C0.33 0 0.66 0 1 0 C1 1.65 1 3.3 1 5 C1.66 5 2.32 5 3 5 C3.33 8.96 3.66 12.92 4 17 C2.68 17 1.36 17 0 17 C0 11.39 0 5.78 0 0 Z " fill="#EFDFF7" transform="translate(116,35)"/>
<path d="M0 0 C2.31 0 4.62 0 7 0 C6.01 0.33 5.02 0.66 4 1 C4.185625 1.61875 4.37125 2.2375 4.5625 2.875 C5 5 5 5 4 7 C1.4375 7.625 1.4375 7.625 -1 8 C-1 7.01 -1 6.02 -1 5 C-1.99 4.67 -2.98 4.34 -4 4 C-3.01 3.67 -2.02 3.34 -1 3 C-0.67 2.01 -0.34 1.02 0 0 Z " fill="#EBEDED" transform="translate(96,160)"/>
<path d="M0 0 C0.66 0.33 1.32 0.66 2 1 C1.34 2.32 0.68 3.64 0 5 C1.32 5.33 2.64 5.66 4 6 C3.1875 7.9375 3.1875 7.9375 2 10 C1.01 10.33 0.02 10.66 -1 11 C-1 10.01 -1 9.02 -1 8 C-1.99 8 -2.98 8 -4 8 C-4 6.68 -4 5.36 -4 4 C-3.34 4 -2.68 4 -2 4 C-1.34 2.68 -0.68 1.36 0 0 Z " fill="#33325C" transform="translate(69,175)"/>
<path d="M0 0 C1.32 0 2.64 0 4 0 C4 1.98 4 3.96 4 6 C4.66 6 5.32 6 6 6 C7.125 11.75 7.125 11.75 6 14 C5.34 14 4.68 14 4 14 C2.80712589 10.12315913 2 7.08378077 2 3 C1.34 3 0.68 3 0 3 C0 2.01 0 1.02 0 0 Z " fill="#5F3E7D" transform="translate(121,57)"/>
<path d="M0 0 C0.66 0 1.32 0 2 0 C2.66 2.97 3.32 5.94 4 9 C4.66 9 5.32 9 6 9 C6 9.66 6 10.32 6 11 C3 11 3 11 1.4375 9.5625 C0.963125 9.046875 0.48875 8.53125 0 8 C-0.66 7.67 -1.32 7.34 -2 7 C-2 6.34 -2 5.68 -2 5 C-2.66 4.67 -3.32 4.34 -4 4 C-3.01 3.67 -2.02 3.34 -1 3 C-0.67 2.01 -0.34 1.02 0 0 Z " fill="#D5D9EA" transform="translate(129,168)"/>
<path d="M0 0 C0.33 3.3 0.66 6.6 1 10 C0.01 10 -0.98 10 -2 10 C-2.33 10.99 -2.66 11.98 -3 13 C-3.33 9.04 -3.66 5.08 -4 1 C-2 0 -2 0 0 0 Z " fill="#663C80" transform="translate(123,43)"/>
<path d="M0 0 C5.45454545 -0.36363636 5.45454545 -0.36363636 7.875 1.25 C9 3 9 3 9 7 C8.01 7 7.02 7 6 7 C6 6.34 6 5.68 6 5 C5.195625 4.731875 4.39125 4.46375 3.5625 4.1875 C2.716875 3.795625 1.87125 3.40375 1 3 C0.67 2.01 0.34 1.02 0 0 Z " fill="#2A2C48" transform="translate(119,172)"/>
<path d="M0 0 C0.69738281 0.00451172 1.39476563 0.00902344 2.11328125 0.01367188 C3.82555803 0.0253998 5.53779033 0.04333347 7.25 0.0625 C7.25 0.3925 7.25 0.7225 7.25 1.0625 C3.29 1.0625 -0.67 1.0625 -4.75 1.0625 C-4.75 2.0525 -4.75 3.0425 -4.75 4.0625 C-7.06 4.0625 -9.37 4.0625 -11.75 4.0625 C-11.75 3.0725 -11.75 2.0825 -11.75 1.0625 C-7.88276369 -0.20332219 -4.01848738 -0.0493765 0 0 Z " fill="#595773" transform="translate(99.75,171.9375)"/>
<path d="M0 0 C0.66 0 1.32 0 2 0 C2.08075665 2.29109597 2.13907731 4.58299267 2.1875 6.875 C2.22230469 8.15117188 2.25710937 9.42734375 2.29296875 10.7421875 C2.19628906 11.81726563 2.09960938 12.89234375 2 14 C1.01 14.66 0.02 15.32 -1 16 C-0.67 10.72 -0.34 5.44 0 0 Z " fill="#EFD1F7" transform="translate(81,29)"/>
<path d="M0 0 C0.33 0.66 0.66 1.32 1 2 C1.99 2.33 2.98 2.66 4 3 C3.67 5.97 3.34 8.94 3 12 C2.34 12 1.68 12 1 12 C0.63762737 10.37681021 0.28534843 8.7513642 -0.0625 7.125 C-0.25972656 6.22007813 -0.45695312 5.31515625 -0.66015625 4.3828125 C-1 2 -1 2 0 0 Z " fill="#5E3D79" transform="translate(76,41)"/>
<path d="M0 0 C0.33 0.66 0.66 1.32 1 2 C2.32 2 3.64 2 5 2 C5 5.63 5 9.26 5 13 C4.67 13 4.34 13 4 13 C4 10.36 4 7.72 4 5 C2.35 5.66 0.7 6.32 -1 7 C-1.04254356 5.00045254 -1.04080783 2.99958364 -1 1 C-0.67 0.67 -0.34 0.34 0 0 Z " fill="#632D79" transform="translate(112,15)"/>
<path d="M0 0 C0.99 0 1.98 0 3 0 C3.33 0.66 3.66 1.32 4 2 C4.66 2 5.32 2 6 2 C6.25 8.625 6.25 8.625 4 12 C3.34 12 2.68 12 2 12 C2.185625 11.0925 2.37125 10.185 2.5625 9.25 C2.95734621 6.31685676 2.94691572 4.7355343 2 2 C1.34 2 0.68 2 0 2 C0 1.34 0 0.68 0 0 Z " fill="#424166" transform="translate(85,151)"/>
<path d="M0 0 C1.65 0 3.3 0 5 0 C5 0.99 5 1.98 5 3 C5.66 3 6.32 3 7 3 C7 3.99 7 4.98 7 6 C5.02 6.33 3.04 6.66 1 7 C0.67 4.69 0.34 2.38 0 0 Z " fill="#5F457F" transform="translate(64,89)"/>
<path d="M0 0 C5.41538462 -0.36923077 5.41538462 -0.36923077 8.375 1.5 C8.91125 1.995 9.4475 2.49 10 3 C8.68 3.99 7.36 4.98 6 6 C6 5.34 6 4.68 6 4 C5.071875 3.7834375 5.071875 3.7834375 4.125 3.5625 C2 3 2 3 0 2 C0 1.34 0 0.68 0 0 Z " fill="#323351" transform="translate(109,165)"/>
<path d="M0 0 C0.33 0.66 0.66 1.32 1 2 C1.66 2 2.32 2 3 2 C3 3.32 3 4.64 3 6 C2.34 6 1.68 6 1 6 C0.67 6.99 0.34 7.98 0 9 C-1.5 7.6875 -1.5 7.6875 -3 6 C-3 3 -3 3 -1.5 1.3125 C-0.7575 0.6628125 -0.7575 0.6628125 0 0 Z " fill="#643A82" transform="translate(72,62)"/>
<path d="M0 0 C1.32 0.66 2.64 1.32 4 2 C4 2.66 4 3.32 4 4 C4.99 4.33 5.98 4.66 7 5 C5.68 5.99 4.36 6.98 3 8 C3 7.34 3 6.68 3 6 C1.68 5.67 0.36 5.34 -1 5 C-0.67 3.35 -0.34 1.7 0 0 Z " fill="#363959" transform="translate(128,175)"/>
<path d="M0 0 C8.58 0 17.16 0 26 0 C26 0.33 26 0.66 26 1 C17.42 1 8.84 1 0 1 C0 0.67 0 0.34 0 0 Z " fill="#232452" transform="translate(86,199)"/>
<path d="M0 0 C2.03833424 1.2739589 4.03852126 2.61061923 6 4 C6 4.66 6 5.32 6 6 C6.99 6.33 7.98 6.66 9 7 C5.37673261 8.2077558 4.35853631 7.54311128 1 6 C1 5.34 1 4.68 1 4 C0.01 3.67 -0.98 3.34 -2 3 C-1.34 3 -0.68 3 0 3 C0 2.01 0 1.02 0 0 Z " fill="#AAACC7" transform="translate(119,173)"/>
<path d="M0 0 C0.33 0 0.66 0 1 0 C1 8.58 1 17.16 1 26 C0.67 26 0.34 26 0 26 C0 17.42 0 8.84 0 0 Z " fill="#3C3074" transform="translate(199,86)"/>
<path d="M0 0 C0.66 0 1.32 0 2 0 C3.125 5.75 3.125 5.75 2 8 C1.34 8 0.68 8 0 8 C-0.33 9.98 -0.66 11.96 -1 14 C-2.15837573 10.52487282 -1.77265943 8.86329714 -1.0625 5.3125 C-0.86785156 4.31863281 -0.67320313 3.32476562 -0.47265625 2.30078125 C-0.31667969 1.54152344 -0.16070312 0.78226563 0 0 Z " fill="#E3D6EC" transform="translate(77,53)"/>
<path d="M0 0 C1.125 1.75 1.125 1.75 2 4 C1.125 6.25 1.125 6.25 0 8 C-0.66 8 -1.32 8 -2 8 C-2.33 8.99 -2.66 9.98 -3 11 C-3 8.69 -3 6.38 -3 4 C-2.01 3.67 -1.02 3.34 0 3 C0 2.01 0 1.02 0 0 Z " fill="#F4E9F9" transform="translate(131,81)"/>
<path d="M0 0 C0.5775 0.37125 1.155 0.7425 1.75 1.125 C1.09 1.125 0.43 1.125 -0.25 1.125 C-0.25 1.785 -0.25 2.445 -0.25 3.125 C-2.89 3.785 -5.53 4.445 -8.25 5.125 C-7.26858061 2.67145152 -6.52754408 1.32853232 -4.375 -0.25 C-2.25 -0.875 -2.25 -0.875 0 0 Z " fill="#ACABCA" transform="translate(79.25,175.875)"/>
<path d="M0 0 C0.99 0 1.98 0 3 0 C3.33 0.66 3.66 1.32 4 2 C6.01669827 3.13350534 6.01669827 3.13350534 8 4 C7.67 4.66 7.34 5.32 7 6 C4.69 5.34 2.38 4.68 0 4 C-0.33 4.66 -0.66 5.32 -1 6 C-1.33 5.01 -1.66 4.02 -2 3 C-1.34 3 -0.68 3 0 3 C0 2.01 0 1.02 0 0 Z " fill="#49486B" transform="translate(109,161)"/>
<path d="M0 0 C1.32 0 2.64 0 4 0 C3.67 2.64 3.34 5.28 3 8 C2.34 8 1.68 8 1 8 C0.67 5.36 0.34 2.72 0 0 Z " fill="#484B6C" transform="translate(128,160)"/>
<path d="M0 0 C0.66 0 1.32 0 2 0 C2.33 2.31 2.66 4.62 3 7 C2.01 7.33 1.02 7.66 0 8 C-0.38063221 5.6739143 -0.71269945 3.33944736 -1 1 C-0.67 0.67 -0.34 0.34 0 0 Z " fill="#F0E1F5" transform="translate(121,60)"/>
<path d="M0 0 C1.98 0.99 1.98 0.99 4 2 C3.34 2 2.68 2 2 2 C2 4.31 2 6.62 2 9 C1.34 9 0.68 9 0 9 C0 6.03 0 3.06 0 0 Z " fill="#76438D" transform="translate(81,19)"/>
<path d="M0 0 C2.97 0.495 2.97 0.495 6 1 C5.01 1.495 5.01 1.495 4 2 C3.67 2.99 3.34 3.98 3 5 C2.01 4.67 1.02 4.34 0 4 C0 2.68 0 1.36 0 0 Z " fill="#313052" transform="translate(85,163)"/>
<path d="M0 0 C0.66 0.33 1.32 0.66 2 1 C1.43628586 4.26954202 0.50037734 5.82575883 -2 8 C-2.33 7.01 -2.66 6.02 -3 5 C-2.67 4.34 -2.34 3.68 -2 3 C-1.34 3 -0.68 3 0 3 C0 2.01 0 1.02 0 0 Z " fill="#C8C8E0" transform="translate(67,172)"/>
<path d="M0 0 C0.99 0.33 1.98 0.66 3 1 C3 1.66 3 2.32 3 3 C3.99 3.33 4.98 3.66 6 4 C4.68 4.99 3.36 5.98 2 7 C2 5.68 2 4.36 2 3 C1.01 3 0.02 3 -1 3 C-0.67 2.01 -0.34 1.02 0 0 Z " fill="#514E6B" transform="translate(77,168)"/>
<path d="M0 0 C2.86724686 0.57344937 3.8614515 0.8614515 6 3 C5 4 5 4 2.4375 4.0625 C1.2309375 4.0315625 1.2309375 4.0315625 0 4 C0 2.68 0 1.36 0 0 Z " fill="#592E74" transform="translate(121,53)"/>
<path d="M0 0 C0 1.32 0 2.64 0 4 C-2.86724686 3.42655063 -3.8614515 3.1385485 -6 1 C-4 0 -4 0 0 0 Z " fill="#2C2B48" transform="translate(79,171)"/>
<path d="M0 0 C0.66 0.33 1.32 0.66 2 1 C-0.31 3.31 -2.62 5.62 -5 8 C-5 5 -5 5 -2.5 2.3125 C-1.675 1.549375 -0.85 0.78625 0 0 Z " fill="#5A2770" transform="translate(30,25)"/>
<path d="M0 0 C1.98 0 3.96 0 6 0 C6 0.33 6 0.66 6 1 C4.02 1 2.04 1 0 1 C0 0.67 0 0.34 0 0 Z " fill="#232452" transform="translate(112,198)"/>
<path d="M0 0 C1.98 0 3.96 0 6 0 C6 0.33 6 0.66 6 1 C4.02 1 2.04 1 0 1 C0 0.67 0 0.34 0 0 Z " fill="#232452" transform="translate(80,198)"/>
<path d="M0 0 C1.65 0 3.3 0 5 0 C5 0.33 5 0.66 5 1 C3.35 1 1.7 1 0 1 C0 0.67 0 0.34 0 0 Z " fill="#232452" transform="translate(118,197)"/>
<path d="M0 0 C1.65 0 3.3 0 5 0 C5 0.33 5 0.66 5 1 C3.35 1 1.7 1 0 1 C0 0.67 0 0.34 0 0 Z " fill="#232452" transform="translate(75,197)"/>
<path d="M0 0 C1.65 0 3.3 0 5 0 C5 0.33 5 0.66 5 1 C3.35 1 1.7 1 0 1 C0 0.67 0 0.34 0 0 Z " fill="#5D2772" transform="translate(117,0)"/>
<path d="M0 0 C1.65 0 3.3 0 5 0 C5 0.33 5 0.66 5 1 C3.35 1 1.7 1 0 1 C0 0.67 0 0.34 0 0 Z " fill="#582769" transform="translate(76,0)"/>
<path d="M0 0 C4 1 4 1 4 1 Z " fill="#232452" transform="translate(123,196)"/>
<path d="M0 0 C4 1 4 1 4 1 Z " fill="#232452" transform="translate(68,195)"/>
<path d="M0 0 C4 1 4 1 4 1 Z " fill="#562868" transform="translate(69,2)"/>
<path d="M0 0 C4 1 4 1 4 1 Z " fill="#5E2874" transform="translate(122,1)"/>
<path d="M0 0 C3 1 3 1 3 1 Z " fill="#232452" transform="translate(72,196)"/>
<path d="M0 0 C3 1 3 1 3 1 Z " fill="#222450" transform="translate(127,195)"/>
<path d="M0 0 C3 1 3 1 3 1 Z " fill="#222550" transform="translate(130,194)"/>
<path d="M0 0 C3 1 3 1 3 1 Z " fill="#232452" transform="translate(65,194)"/>
<path d="M0 0 C3 1 3 1 3 1 Z " fill="#232651" transform="translate(135,192)"/>
<path d="M0 0 C3 1 3 1 3 1 Z " fill="#232452" transform="translate(60,192)"/>
<path d="" fill="#382869" transform="translate(0,0)"/>
<path d="" fill="#2D2F68" transform="translate(0,0)"/>
<path d="" fill="#3A286A" transform="translate(0,0)"/>
<path d="" fill="#2F316A" transform="translate(0,0)"/>
<path d="" fill="#3D286D" transform="translate(0,0)"/>
<path d="" fill="#5A277A" transform="translate(0,0)"/>
<path d="M0 0 C3 1 3 1 3 1 Z " fill="#632A79" transform="translate(137,6)"/>
<path d="M0 0 C3 1 3 1 3 1 Z " fill="#622978" transform="translate(132,4)"/>
<path d="M0 0 C3 1 3 1 3 1 Z " fill="#562868" transform="translate(63,4)"/>
<path d="M0 0 C3 1 3 1 3 1 Z " fill="#612877" transform="translate(129,3)"/>
<path d="M0 0 C3 1 3 1 3 1 Z " fill="#562868" transform="translate(66,3)"/>
<path d="M0 0 C3 1 3 1 3 1 Z " fill="#5F2875" transform="translate(126,2)"/>
<path d="M0 0 C3 1 3 1 3 1 Z " fill="#572769" transform="translate(73,1)"/>
<path d="M0 0 C2 1 2 1 2 1 Z " fill="#232651" transform="translate(133,193)"/>
<path d="M0 0 C2 1 2 1 2 1 Z " fill="#232452" transform="translate(63,193)"/>
<path d="M0 0 C2 1 2 1 2 1 Z " fill="#242754" transform="translate(138,191)"/>
<path d="M0 0 C2 1 2 1 2 1 Z " fill="#242553" transform="translate(58,191)"/>
<path d="M0 0 C2 1 2 1 2 1 Z " fill="#232755" transform="translate(140,190)"/>
<path d="M0 0 C2 1 2 1 2 1 Z " fill="#242553" transform="translate(56,190)"/>
<path d="M0 0 C2 1 2 1 2 1 Z " fill="#232755" transform="translate(142,189)"/>
<path d="M0 0 C2 1 2 1 2 1 Z " fill="#242553" transform="translate(54,189)"/>
<path d="M0 0 C2 1 2 1 2 1 Z " fill="#232756" transform="translate(144,188)"/>
<path d="M0 0 C2 1 2 1 2 1 Z " fill="#242553" transform="translate(52,188)"/>
<path d="M0 0 C2 1 2 1 2 1 Z " fill="#232755" transform="translate(146,187)"/>
<path d="M0 0 C2 1 2 1 2 1 Z " fill="#242553" transform="translate(50,187)"/>
<path d="M0 0 C2 1 2 1 2 1 Z " fill="#232754" transform="translate(148,186)"/>
<path d="M0 0 C2 1 2 1 2 1 Z " fill="#252654" transform="translate(47,185)"/>
<path d="M0 0 C2 1 2 1 2 1 Z " fill="#242855" transform="translate(151,184)"/>
<path d="M0 0 C2 1 2 1 2 1 Z " fill="#252654" transform="translate(45,184)"/>
<path d="M0 0 C2 1 2 1 2 1 Z " fill="#242855" transform="translate(154,182)"/>
<path d="M0 0 C2 1 2 1 2 1 Z " fill="#252556" transform="translate(42,182)"/>
<path d="M0 0 C2 1 2 1 2 1 Z " fill="#232955" transform="translate(157,180)"/>
<path d="M0 0 C2 1 2 1 2 1 Z " fill="#252557" transform="translate(38,179)"/>
<path d="M0 0 C2 1 2 1 2 1 Z " fill="#232A58" transform="translate(162,176)"/>
<path d="M0 0 C2 1 2 1 2 1 Z " fill="#26265A" transform="translate(32,174)"/>
<path d="" fill="#2E2760" transform="translate(0,0)"/>
<path d="" fill="#2A2E63" transform="translate(0,0)"/>
<path d="" fill="#372868" transform="translate(0,0)"/>
<path d="" fill="#2D3067" transform="translate(0,0)"/>
<path d="" fill="#5B277A" transform="translate(0,0)"/>
<path d="" fill="#522F7F" transform="translate(0,0)"/>
<path d="" fill="#5C2679" transform="translate(0,0)"/>
<path d="" fill="#5C2779" transform="translate(0,0)"/>
<path d="M0 0 C2 1 2 1 2 1 Z " fill="#642C85" transform="translate(164,23)"/>
<path d="M0 0 C2 1 2 1 2 1 Z " fill="#59276E" transform="translate(37,19)"/>
<path d="M0 0 C2 1 2 1 2 1 Z " fill="#652B82" transform="translate(158,18)"/>
<path d="M0 0 C2 1 2 1 2 1 Z " fill="#652B82" transform="translate(155,16)"/>
<path d="M0 0 C2 1 2 1 2 1 Z " fill="#58266C" transform="translate(41,16)"/>
<path d="M0 0 C2 1 2 1 2 1 Z " fill="#652B82" transform="translate(152,14)"/>
<path d="M0 0 C2 1 2 1 2 1 Z " fill="#58276B" transform="translate(44,14)"/>
<path d="M0 0 C2 1 2 1 2 1 Z " fill="#652B80" transform="translate(149,12)"/>
<path d="M0 0 C2 1 2 1 2 1 Z " fill="#58276A" transform="translate(47,12)"/>
<path d="M0 0 C2 1 2 1 2 1 Z " fill="#652B7E" transform="translate(147,11)"/>
<path d="M0 0 C2 1 2 1 2 1 Z " fill="#59286B" transform="translate(49,11)"/>
<path d="M0 0 C2 1 2 1 2 1 Z " fill="#58276A" transform="translate(51,10)"/>
<path d="M0 0 C2 1 2 1 2 1 Z " fill="#642B7C" transform="translate(144,9)"/>
<path d="M0 0 C2 1 2 1 2 1 Z " fill="#58276A" transform="translate(53,9)"/>
<path d="M0 0 C2 1 2 1 2 1 Z " fill="#642B7B" transform="translate(142,8)"/>
<path d="M0 0 C2 1 2 1 2 1 Z " fill="#57276A" transform="translate(55,8)"/>
<path d="M0 0 C2 1 2 1 2 1 Z " fill="#632A7A" transform="translate(140,7)"/>
<path d="M0 0 C2 1 2 1 2 1 Z " fill="#57276A" transform="translate(57,7)"/>
<path d="M0 0 C2 1 2 1 2 1 Z " fill="#562869" transform="translate(59,6)"/>
<path d="M0 0 C2 1 2 1 2 1 Z " fill="#632A79" transform="translate(135,5)"/>
<path d="M0 0 C2 1 2 1 2 1 Z " fill="#562869" transform="translate(61,5)"/>
<path d="" fill="#252654" transform="translate(0,0)"/>
<path d="" fill="#232754" transform="translate(0,0)"/>
<path d="" fill="#242855" transform="translate(0,0)"/>
<path d="" fill="#252655" transform="translate(0,0)"/>
<path d="" fill="#232955" transform="translate(0,0)"/>
<path d="" fill="#252557" transform="translate(0,0)"/>
<path d="" fill="#252557" transform="translate(0,0)"/>
<path d="" fill="#222955" transform="translate(0,0)"/>
<path d="" fill="#222956" transform="translate(0,0)"/>
<path d="" fill="#262658" transform="translate(0,0)"/>
<path d="" fill="#222956" transform="translate(0,0)"/>
<path d="" fill="#262658" transform="translate(0,0)"/>
<path d="" fill="#262659" transform="translate(0,0)"/>
<path d="" fill="#232A58" transform="translate(0,0)"/>
<path d="" fill="#26265A" transform="translate(0,0)"/>
<path d="" fill="#222A58" transform="translate(0,0)"/>
<path d="" fill="#222A58" transform="translate(0,0)"/>
<path d="" fill="#26265A" transform="translate(0,0)"/>
<path d="" fill="#222A58" transform="translate(0,0)"/>
<path d="" fill="#27275B" transform="translate(0,0)"/>
<path d="" fill="#222A58" transform="translate(0,0)"/>
<path d="" fill="#28275B" transform="translate(0,0)"/>
<path d="" fill="#252A59" transform="translate(0,0)"/>
<path d="" fill="#28275A" transform="translate(0,0)"/>
<path d="" fill="#252A59" transform="translate(0,0)"/>
<path d="" fill="#28275A" transform="translate(0,0)"/>
<path d="" fill="#252A59" transform="translate(0,0)"/>
<path d="" fill="#292759" transform="translate(0,0)"/>
<path d="" fill="#252B5B" transform="translate(0,0)"/>
<path d="" fill="#252B5B" transform="translate(0,0)"/>
<path d="" fill="#2B275C" transform="translate(0,0)"/>
<path d="" fill="#262C5C" transform="translate(0,0)"/>
<path d="" fill="#2E2860" transform="translate(0,0)"/>
<path d="" fill="#5E2E84" transform="translate(0,0)"/>
<path d="" fill="#5C2776" transform="translate(0,0)"/>
<path d="" fill="#5F2D84" transform="translate(0,0)"/>
<path d="" fill="#602E85" transform="translate(0,0)"/>
<path d="" fill="#5D2774" transform="translate(0,0)"/>
<path d="" fill="#5C2873" transform="translate(0,0)"/>
<path d="" fill="#5C2873" transform="translate(0,0)"/>
<path d="" fill="#612C84" transform="translate(0,0)"/>
<path d="" fill="#612C84" transform="translate(0,0)"/>
<path d="" fill="#622C84" transform="translate(0,0)"/>
<path d="" fill="#622C84" transform="translate(0,0)"/>
<path d="" fill="#622C84" transform="translate(0,0)"/>
<path d="" fill="#622C84" transform="translate(0,0)"/>
<path d="" fill="#632C85" transform="translate(0,0)"/>
<path d="" fill="#59276F" transform="translate(0,0)"/>
<path d="" fill="#59276F" transform="translate(0,0)"/>
<path d="" fill="#652C85" transform="translate(0,0)"/>
<path d="" fill="#59276E" transform="translate(0,0)"/>
<path d="" fill="#652C85" transform="translate(0,0)"/>
<path d="" fill="#59276F" transform="translate(0,0)"/>
<path d="" fill="#642B83" transform="translate(0,0)"/>
<path d="" fill="#59276E" transform="translate(0,0)"/>
<path d="" fill="#652B82" transform="translate(0,0)"/>
<path d="" fill="#59276E" transform="translate(0,0)"/>
<path d="" fill="#652B82" transform="translate(0,0)"/>
<path d="" fill="#59276E" transform="translate(0,0)"/>
<path d="" fill="#652B82" transform="translate(0,0)"/>
<path d="" fill="#58266B" transform="translate(0,0)"/>
<path d="" fill="#652B82" transform="translate(0,0)"/>
<path d="" fill="#58276B" transform="translate(0,0)"/>
<path d="" fill="#642B7C" transform="translate(0,0)"/>
</svg>
