<svg xmlns="http://www.w3.org/2000/svg" width="256" height="256" fill="none" xmlns:v="https://vecta.io/nano"><path d="M128 256c70.692 0 128-57.308 128-128S198.692 0 128 0 0 57.308 0 128s57.308 128 128 128z" fill="#000"/><g fill="#fff"><path d="M66.236 115.345H47v53.651h19.236v-53.651z"/><path d="M47 86.003v16.766l18.556 12.972.68-.396V86.003H47z"/><path d="M178.274 86l-112.037.004 27.982 19.56h84.055c3.268 0 5.944 2.722 5.944 6.045v14.599l19.236 13.45v-28.049c0-14.082-11.326-25.609-25.18-25.609zm-58.867 83h112.039l-27.983-19.564h-84.056c-3.259 0-5.943-2.73-5.943-6.045v-14.599l-19.236-13.45v28.041C94.22 157.496 105.532 169 119.407 169z"/></g></svg>