<?xml version="1.0" encoding="UTF-8"?>
<svg version="1.1" xmlns="http://www.w3.org/2000/svg" width="200" height="200">
<path d="M0 0 C2.82045877 2.30263418 5.56336058 4.67903285 8.27832031 7.10449219 C11.1535235 9.666713 11.1535235 9.666713 14.50878906 11.77246094 C17.18066406 13.58496094 17.18066406 13.58496094 17.86816406 15.77246094 C18.02285156 16.66964844 18.02285156 16.66964844 18.18066406 17.58496094 C19.17066406 17.91496094 20.16066406 18.24496094 21.18066406 18.58496094 C21.51066406 19.57496094 21.84066406 20.56496094 22.18066406 21.58496094 C22.78394531 22.1740625 23.38722656 22.76316406 24.00878906 23.37011719 C26.61161449 26.02443736 28.16331475 28.75588582 29.93066406 32.02246094 C30.85105469 33.69115234 30.85105469 33.69115234 31.79003906 35.39355469 C33.13514811 38.48050439 33.50200878 40.27881822 33.18066406 43.58496094 C33.84066406 43.58496094 34.50066406 43.58496094 35.18066406 43.58496094 C39.64424539 56.0781479 40.85665551 67.12735329 40.55566406 80.33496094 C40.53909422 82.04587815 40.52476266 83.75681854 40.51269531 85.46777344 C40.3702832 98.68935945 40.3702832 98.68935945 39.18066406 103.58496094 C38.52066406 103.58496094 37.86066406 103.58496094 37.18066406 103.58496094 C37.18066406 105.89496094 37.18066406 108.20496094 37.18066406 110.58496094 C36.52066406 110.58496094 35.86066406 110.58496094 35.18066406 110.58496094 C34.52066406 113.88496094 33.86066406 117.18496094 33.18066406 120.58496094 C32.52066406 120.58496094 31.86066406 120.58496094 31.18066406 120.58496094 C31.10589844 121.42542969 31.03113281 122.26589844 30.95410156 123.13183594 C30.00301116 127.37811833 28.20111083 130.25695184 25.80566406 133.83496094 C25.40605469 134.45886719 25.00644531 135.08277344 24.59472656 135.72558594 C22.64505024 138.70140769 21.175244 140.58857431 18.18066406 142.58496094 C17.87128906 143.24496094 17.56191406 143.90496094 17.24316406 144.58496094 C16.18066406 146.58496094 16.18066406 146.58496094 14.29394531 147.52246094 C12.05773456 148.64676653 10.95666201 149.72870379 9.30566406 151.58496094 C-7.5531495 168.76523493 -31.7922615 178.47350042 -55.67724609 178.87768555 C-83.14890277 179.03784131 -105.50892955 171.73865683 -126.31811523 153.40429688 C-129.3378039 150.75277047 -132.36813316 148.62599484 -135.81933594 146.58496094 C-136.52084746 145.26962683 -137.18459519 143.93378502 -137.81933594 142.58496094 C-139.08777344 141.37839844 -139.08777344 141.37839844 -140.38183594 140.14746094 C-142.93144067 137.46710724 -143.50996572 136.19428011 -143.81933594 132.58496094 C-144.80933594 132.25496094 -145.79933594 131.92496094 -146.81933594 131.58496094 C-150.62798259 125.57828936 -153.21756631 119.65575401 -153.81933594 112.58496094 C-154.47933594 111.59496094 -155.13933594 110.60496094 -155.81933594 109.58496094 C-156.19144014 108.26192377 -156.52563767 106.92758159 -156.81933594 105.58496094 C-157.14933594 104.59496094 -157.47933594 103.60496094 -157.81933594 102.58496094 C-158.14933594 102.58496094 -158.47933594 102.58496094 -158.81933594 102.58496094 C-158.87027326 96.32278946 -158.90516878 90.06067193 -158.92919922 83.79833984 C-158.93922299 81.67038984 -158.95284555 79.5424535 -158.97021484 77.41455078 C-158.99462286 74.34631976 -159.00585555 71.27827173 -159.01464844 68.20996094 C-159.02497101 67.26693115 -159.03529358 66.32390137 -159.04592896 65.35229492 C-159.04686971 59.74541582 -158.41278806 54.96630789 -156.81933594 49.58496094 C-156.15933594 49.58496094 -155.49933594 49.58496094 -154.81933594 49.58496094 C-154.69816406 48.88628906 -154.57699219 48.18761719 -154.45214844 47.46777344 C-154.28457031 46.55769531 -154.11699219 45.64761719 -153.94433594 44.70996094 C-153.78191406 43.80503906 -153.61949219 42.90011719 -153.45214844 41.96777344 C-152.81933594 39.58496094 -152.81933594 39.58496094 -150.81933594 37.58496094 C-149.71378412 35.63398714 -148.89319267 33.94732054 -148.44433594 31.74511719 C-147.67559861 29.08816878 -146.42875814 27.18569548 -144.88183594 24.89746094 C-144.3571875 24.10984375 -143.83253906 23.32222656 -143.29199219 22.51074219 C-141.81933594 20.58496094 -141.81933594 20.58496094 -139.81933594 19.58496094 C-139.48933594 18.59496094 -139.15933594 17.60496094 -138.81933594 16.58496094 C-138.25988281 16.318125 -137.70042969 16.05128906 -137.12402344 15.77636719 C-133.75454168 14.03451645 -131.50732154 11.25605376 -128.94433594 8.52246094 C-95.59880991 -25.77011212 -37.69548479 -29.31871039 0 0 Z M34.18066406 46.58496094 C35.18066406 48.58496094 35.18066406 48.58496094 35.18066406 48.58496094 Z M35.18066406 49.58496094 C36.18066406 51.58496094 36.18066406 51.58496094 36.18066406 51.58496094 Z M36.18066406 52.58496094 C37.18066406 55.58496094 37.18066406 55.58496094 37.18066406 55.58496094 Z M-156.81933594 53.58496094 C-155.81933594 56.58496094 -155.81933594 56.58496094 -155.81933594 56.58496094 Z M37.18066406 56.58496094 C38.18066406 59.58496094 38.18066406 59.58496094 38.18066406 59.58496094 Z M-157.81933594 57.58496094 C-156.81933594 61.58496094 -156.81933594 61.58496094 -156.81933594 61.58496094 Z M38.18066406 60.58496094 C38.18066406 62.23496094 38.18066406 63.88496094 38.18066406 65.58496094 C38.51066406 65.58496094 38.84066406 65.58496094 39.18066406 65.58496094 C39.18066406 63.93496094 39.18066406 62.28496094 39.18066406 60.58496094 C38.85066406 60.58496094 38.52066406 60.58496094 38.18066406 60.58496094 Z M38.18066406 93.58496094 C38.18066406 95.23496094 38.18066406 96.88496094 38.18066406 98.58496094 C38.51066406 98.58496094 38.84066406 98.58496094 39.18066406 98.58496094 C39.18066406 96.93496094 39.18066406 95.28496094 39.18066406 93.58496094 C38.85066406 93.58496094 38.52066406 93.58496094 38.18066406 93.58496094 Z " fill="#1C1C1C" transform="translate(158.8193359375,19.4150390625)"/>
<path d="M0 0 C2.09863281 0.97705078 2.09863281 0.97705078 4.203125 2.1953125 C5.00693604 2.65687744 5.81074707 3.11844238 6.63891602 3.59399414 C7.50057373 4.09922607 8.36223145 4.60445801 9.25 5.125 C10.15226318 5.64763428 11.05452637 6.17026855 11.98413086 6.70874023 C19.54244484 11.10517132 27.05687828 15.57684645 34.5625 20.0625 C35.63854492 20.70525879 36.71458984 21.34801758 37.82324219 22.01025391 C38.83161133 22.61659668 39.83998047 23.22293945 40.87890625 23.84765625 C41.7716626 24.38398682 42.66441895 24.92031738 43.58422852 25.47290039 C44.38143311 25.97684326 45.1786377 26.48078613 46 27 C46.69751373 27.4040506 47.39502747 27.8081012 48.11367798 28.22439575 C50 30 50 30 50.5415802 32.67414856 C50.5598436 33.75081284 50.57810699 34.82747711 50.59692383 35.93676758 C50.62567093 37.15846146 50.65441803 38.38015533 50.68403625 39.63887024 C50.69347173 40.97407924 50.70109181 42.30930212 50.70703125 43.64453125 C50.72242906 45.01593017 50.73827937 46.38732407 50.75456238 47.75871277 C50.78302847 50.63458396 50.79443261 53.50998163 50.79614258 56.38598633 C50.80131854 60.06264425 50.86622857 63.73557697 50.94643116 67.41125965 C50.99856132 70.24508078 51.00970391 73.0780112 51.00964928 75.91226768 C51.01936808 77.92326877 51.07046895 79.93393283 51.12226868 81.94429016 C51.03359403 90.87012943 51.03359403 90.87012943 48.05831909 94.12254333 C45.76151534 95.6745864 43.52208865 96.85965893 41 98 C39.75172442 98.73411408 38.51026061 99.48016404 37.28125 100.24609375 C36.02247233 100.97938328 34.76198249 101.70973976 33.5 102.4375 C28.11948903 105.55001242 22.79482238 108.733462 17.515625 112.015625 C16.39736328 112.70470947 15.27910156 113.39379395 14.12695312 114.10375977 C11.89970819 115.47807552 9.67943695 116.86376659 7.46679688 118.26147461 C6.44134766 118.89061768 5.41589844 119.51976074 4.359375 120.16796875 C3.44639648 120.73797607 2.53341797 121.3079834 1.59277344 121.89526367 C-1.51838518 123.22087504 -2.82745617 123.05376304 -6 122 C-7.98193359 121.11132812 -7.98193359 121.11132812 -9.8984375 120.03125 C-10.61733154 119.62962646 -11.33622559 119.22800293 -12.0769043 118.81420898 C-13.21446167 118.16367554 -13.21446167 118.16367554 -14.375 117.5 C-15.56766479 116.82723022 -15.56766479 116.82723022 -16.78442383 116.14086914 C-23.63201165 112.2581317 -30.39151923 108.23504814 -37.11621094 104.14404297 C-40.50788484 102.08424723 -43.91056993 100.04279457 -47.3125 98 C-48.27385864 97.42076782 -48.27385864 97.42076782 -49.25463867 96.82983398 C-52.57828936 94.82693628 -52.57828936 94.82693628 -56 93 C-56.56016082 84.89936753 -56.9842521 76.80697288 -57.24349213 68.691679 C-57.36806053 64.92073659 -57.53607742 61.16314235 -57.81054688 57.39990234 C-59.53083118 33.18630469 -59.53083118 33.18630469 -53.71795654 26.29431152 C-48.03190538 21.72624435 -41.74500191 18.85586954 -34.9836731 16.22740173 C-30.58950712 14.4197617 -26.649325 12.00355576 -22.625 9.5 C-21.2807701 8.7086202 -19.9347387 7.92028199 -18.5859375 7.13671875 C-16.32786906 5.80532732 -14.12199369 4.43652 -11.9140625 3.01953125 C-11.03492188 2.45621094 -10.15578125 1.89289062 -9.25 1.3125 C-8.53328125 0.83425781 -7.8165625 0.35601562 -7.078125 -0.13671875 C-4.31166839 -1.28594227 -2.87312092 -0.75424753 0 0 Z " fill="#FBFBFB" transform="translate(103,39)"/>
<path d="M0 0 C3.48605588 1.03984433 6.54609297 2.77489601 9.6953125 4.57421875 C10.5716333 5.07405273 11.4479541 5.57388672 12.35083008 6.08886719 C13.26630615 6.61641602 14.18178223 7.14396484 15.125 7.6875 C16.52818481 8.4923584 16.52818481 8.4923584 17.9597168 9.31347656 C24.42184449 13.03948919 30.78744041 16.86799315 37 21 C33.98215148 24.48213291 31.62280559 26.35673224 27 27 C23.75418378 25.86549537 20.92876993 24.15835991 18 22.375 C16.82824219 21.69630859 16.82824219 21.69630859 15.6328125 21.00390625 C12.21371643 19.00655552 8.92911335 16.96150534 5.75 14.6015625 C3.18102746 12.79738725 3.18102746 12.79738725 0.57421875 12.99609375 C-2.88748695 14.34610644 -6.01852933 16.14522307 -9.1875 18.0625 C-15.75 22 -15.75 22 -18 22 C-18 22.66 -18 23.32 -18 24 C-16.88625 24.433125 -16.88625 24.433125 -15.75 24.875 C-13 26 -13 26 -11 27.1875 C-8.33020936 28.27210245 -6.75690699 27.68922675 -4 27 C0.73113419 27 2.32547562 28.1605948 6 31 C6 31.66 6 32.32 6 33 C4.02 33.495 4.02 33.495 2 34 C2 34.66 2 35.32 2 36 C3.2375 36.185625 4.475 36.37125 5.75 36.5625 C6.44609375 36.66691406 7.1421875 36.77132812 7.859375 36.87890625 C10.01210033 37.12509416 10.01210033 37.12509416 12.03125 36.375 C14 36 14 36 15.921875 36.99609375 C16.82679687 37.70958984 16.82679687 37.70958984 17.75 38.4375 C18.36359375 38.91058594 18.9771875 39.38367188 19.609375 39.87109375 C20.06828125 40.24363281 20.5271875 40.61617187 21 41 C20.505 41.99 20.505 41.99 20 43 C19.34 43 18.68 43 18 43 C21.16528359 46.72181697 25.58941191 48.6720195 29.81835938 50.95117188 C33.40558462 52.93388743 36.2664133 54.93756077 39 58 C32.43545673 62.53647299 25.66376456 66.68174898 18.796875 70.73828125 C16.3638172 72.17605325 13.96090057 73.64842679 11.578125 75.16796875 C10.54171875 75.81378906 9.5053125 76.45960938 8.4375 77.125 C7.52871094 77.70507812 6.61992188 78.28515625 5.68359375 78.8828125 C2.26049502 80.30785797 0.58368456 79.84801166 -3 79 C-5.67797852 77.72827148 -5.67797852 77.72827148 -8.37890625 76.12109375 C-9.37728516 75.53368408 -10.37566406 74.94627441 -11.40429688 74.34106445 C-12.96760742 73.39880005 -12.96760742 73.39880005 -14.5625 72.4375 C-16.70962235 71.14841574 -18.85675767 69.85935308 -21.00390625 68.5703125 C-22.54908936 67.63880371 -22.54908936 67.63880371 -24.12548828 66.68847656 C-26.54185635 65.26911173 -28.96650793 63.94616828 -31.46484375 62.6796875 C-37.43395919 59.52693923 -37.43395919 59.52693923 -40 57 C-41.02224673 53.11338679 -40.84004036 49.9058287 -40 46 C-35.67450637 47.5849137 -31.74048836 49.72477326 -27.75 52 C-27.06196289 52.38865234 -26.37392578 52.77730469 -25.66503906 53.17773438 C-21.85648863 55.33883336 -18.07459749 57.5402668 -14.3125 59.78125 C-13.54969727 60.235 -12.78689453 60.68875 -12.00097656 61.15625 C-10.52602143 62.03674382 -9.05389434 62.9219964 -7.58496094 63.8125 C-6.91239258 64.2146875 -6.23982422 64.616875 -5.546875 65.03125 C-4.95745117 65.38767578 -4.36802734 65.74410156 -3.76074219 66.11132812 C-1.77522223 67.11344857 -0.21597188 67.73177596 2 68 C4.08689545 67.23275933 4.08689545 67.23275933 6.109375 65.91015625 C6.86347656 65.45576172 7.61757812 65.00136719 8.39453125 64.53320312 C9.17183594 64.04787109 9.94914062 63.56253906 10.75 63.0625 C11.54277344 62.58103516 12.33554688 62.09957031 13.15234375 61.60351562 C15.10861183 60.41325613 17.05710972 59.21193009 19 58 C13.42058162 53.00561143 13.42058162 53.00561143 6.54296875 50.8984375 C5.04022349 51.16980206 3.54208843 51.46841658 2.05078125 51.796875 C-0.49676744 52.04920363 -1.47481763 51.49014227 -3.5625 50.0625 C-4.366875 49.381875 -5.17125 48.70125 -6 48 C-5.01 47.01 -4.02 46.02 -3 45 C-4.63709315 43.31135412 -4.63709315 43.31135412 -7 42 C-7.928125 42.20625 -8.85625 42.4125 -9.8125 42.625 C-13.48043907 43.05652224 -14.00609513 42.6431805 -16.875 40.5625 C-17.9297954 39.72459976 -18.9761394 38.8754311 -20 38 C-19.67 37.01 -19.34 36.02 -19 35 C-19.54527344 34.67725098 -20.09054688 34.35450195 -20.65234375 34.02197266 C-23.10613557 32.56385405 -25.55308133 31.09462082 -28 29.625 C-28.85851562 29.11710937 -29.71703125 28.60921875 -30.6015625 28.0859375 C-31.41367188 27.59609375 -32.22578125 27.10625 -33.0625 26.6015625 C-33.81660156 26.15119629 -34.57070312 25.70083008 -35.34765625 25.23681641 C-36.16556641 24.62459229 -36.16556641 24.62459229 -37 24 C-37 23.34 -37 22.68 -37 22 C-35.38623047 20.79833984 -35.38623047 20.79833984 -33.1171875 19.4609375 C-32.28566162 18.9664209 -31.45413574 18.4719043 -30.59741211 17.96240234 C-29.69901611 17.43855957 -28.80062012 16.9147168 -27.875 16.375 C-26.96951416 15.83955566 -26.06402832 15.30411133 -25.13110352 14.75244141 C-18.67483443 10.94549849 -12.18171256 7.20348603 -5.65234375 3.5234375 C-3.72711766 2.41763753 -1.84731826 1.23154551 0 0 Z " fill="#212121" transform="translate(100,58)"/>
<path d="M0 0 C8.58 0 17.16 0 26 0 C26 0.33 26 0.66 26 1 C17.42 1 8.84 1 0 1 C0 0.67 0 0.34 0 0 Z " fill="#1B1B1B" transform="translate(86,199)"/>
<path d="M0 0 C0.33 0 0.66 0 1 0 C1 8.58 1 17.16 1 26 C0.67 26 0.34 26 0 26 C0 17.42 0 8.84 0 0 Z " fill="#1B1B1B" transform="translate(199,86)"/>
<path d="M0 0 C0.66 0.33 1.32 0.66 2 1 C-0.31 3.31 -2.62 5.62 -5 8 C-5 5 -5 5 -2.5 2.3125 C-1.675 1.549375 -0.85 0.78625 0 0 Z " fill="#1D2E1F" transform="translate(30,25)"/>
<path d="M0 0 C1.98 0 3.96 0 6 0 C6 0.33 6 0.66 6 1 C4.02 1 2.04 1 0 1 C0 0.67 0 0.34 0 0 Z " fill="#1B1B1B" transform="translate(112,198)"/>
<path d="M0 0 C1.98 0 3.96 0 6 0 C6 0.33 6 0.66 6 1 C4.02 1 2.04 1 0 1 C0 0.67 0 0.34 0 0 Z " fill="#1B1B1B" transform="translate(80,198)"/>
<path d="M0 0 C1.65 0 3.3 0 5 0 C5 0.33 5 0.66 5 1 C3.35 1 1.7 1 0 1 C0 0.67 0 0.34 0 0 Z " fill="#1C1C1C" transform="translate(118,197)"/>
<path d="M0 0 C1.65 0 3.3 0 5 0 C5 0.33 5 0.66 5 1 C3.35 1 1.7 1 0 1 C0 0.67 0 0.34 0 0 Z " fill="#1A1A1A" transform="translate(75,197)"/>
<path d="M0 0 C1.65 0 3.3 0 5 0 C5 0.33 5 0.66 5 1 C3.35 1 1.7 1 0 1 C0 0.67 0 0.34 0 0 Z " fill="#47704C" transform="translate(117,0)"/>
<path d="M0 0 C1.65 0 3.3 0 5 0 C5 0.33 5 0.66 5 1 C3.35 1 1.7 1 0 1 C0 0.67 0 0.34 0 0 Z " fill="#3A5A3E" transform="translate(76,0)"/>
<path d="M0 0 C4 1 4 1 4 1 Z " fill="#1B1B1B" transform="translate(123,196)"/>
<path d="M0 0 C4 1 4 1 4 1 Z " fill="#1B1B1B" transform="translate(68,195)"/>
<path d="M0 0 C4 1 4 1 4 1 Z " fill="#37563B" transform="translate(69,2)"/>
<path d="M0 0 C4 1 4 1 4 1 Z " fill="#47704C" transform="translate(122,1)"/>
<path d="M0 0 C3 1 3 1 3 1 Z " fill="#1A1A1A" transform="translate(72,196)"/>
<path d="M0 0 C3 1 3 1 3 1 Z " fill="#1B1B1B" transform="translate(127,195)"/>
<path d="M0 0 C3 1 3 1 3 1 Z " fill="#1B1B1B" transform="translate(130,194)"/>
<path d="M0 0 C3 1 3 1 3 1 Z " fill="#1B1B1B" transform="translate(65,194)"/>
<path d="M0 0 C3 1 3 1 3 1 Z " fill="#1C1C1C" transform="translate(135,192)"/>
<path d="M0 0 C3 1 3 1 3 1 Z " fill="#191919" transform="translate(60,192)"/>
<path d="" fill="#324E36" transform="translate(0,0)"/>
<path d="" fill="#1B1B1B" transform="translate(0,0)"/>
<path d="" fill="#37523A" transform="translate(0,0)"/>
<path d="" fill="#1B1B1B" transform="translate(0,0)"/>
<path d="" fill="#2F4A32" transform="translate(0,0)"/>
<path d="" fill="#202E22" transform="translate(0,0)"/>
<path d="M0 0 C3 1 3 1 3 1 Z " fill="#47704C" transform="translate(137,6)"/>
<path d="M0 0 C3 1 3 1 3 1 Z " fill="#47704C" transform="translate(132,4)"/>
<path d="M0 0 C3 1 3 1 3 1 Z " fill="#212F23" transform="translate(63,4)"/>
<path d="M0 0 C3 1 3 1 3 1 Z " fill="#47704C" transform="translate(129,3)"/>
<path d="M0 0 C3 1 3 1 3 1 Z " fill="#28362A" transform="translate(66,3)"/>
<path d="M0 0 C3 1 3 1 3 1 Z " fill="#47704C" transform="translate(126,2)"/>
<path d="M0 0 C3 1 3 1 3 1 Z " fill="#47704C" transform="translate(73,1)"/>
<path d="M0 0 C2 1 2 1 2 1 Z " fill="#1C1C1C" transform="translate(133,193)"/>
<path d="M0 0 C2 1 2 1 2 1 Z " fill="#1B1B1B" transform="translate(63,193)"/>
<path d="M0 0 C2 1 2 1 2 1 Z " fill="#1B1B1B" transform="translate(138,191)"/>
<path d="M0 0 C2 1 2 1 2 1 Z " fill="#1A1A1A" transform="translate(58,191)"/>
<path d="M0 0 C2 1 2 1 2 1 Z " fill="#1C1C1C" transform="translate(140,190)"/>
<path d="M0 0 C2 1 2 1 2 1 Z " fill="#1A1A1A" transform="translate(56,190)"/>
<path d="M0 0 C2 1 2 1 2 1 Z " fill="#1B1B1B" transform="translate(142,189)"/>
<path d="M0 0 C2 1 2 1 2 1 Z " fill="#191919" transform="translate(54,189)"/>
<path d="M0 0 C2 1 2 1 2 1 Z " fill="#1C1C1C" transform="translate(144,188)"/>
<path d="M0 0 C2 1 2 1 2 1 Z " fill="#1A1A1A" transform="translate(52,188)"/>
<path d="M0 0 C2 1 2 1 2 1 Z " fill="#1B1B1B" transform="translate(146,187)"/>
<path d="M0 0 C2 1 2 1 2 1 Z " fill="#181818" transform="translate(50,187)"/>
<path d="M0 0 C2 1 2 1 2 1 Z " fill="#1B1B1B" transform="translate(148,186)"/>
<path d="M0 0 C2 1 2 1 2 1 Z " fill="#1A1A1A" transform="translate(47,185)"/>
<path d="M0 0 C2 1 2 1 2 1 Z " fill="#1C1C1C" transform="translate(151,184)"/>
<path d="M0 0 C2 1 2 1 2 1 Z " fill="#1B1B1B" transform="translate(45,184)"/>
<path d="M0 0 C2 1 2 1 2 1 Z " fill="#1C1C1C" transform="translate(154,182)"/>
<path d="M0 0 C2 1 2 1 2 1 Z " fill="#191919" transform="translate(42,182)"/>
<path d="M0 0 C2 1 2 1 2 1 Z " fill="#1C1C1C" transform="translate(157,180)"/>
<path d="M0 0 C2 1 2 1 2 1 Z " fill="#191919" transform="translate(38,179)"/>
<path d="M0 0 C2 1 2 1 2 1 Z " fill="#1C1C1C" transform="translate(162,176)"/>
<path d="M0 0 C2 1 2 1 2 1 Z " fill="#171717" transform="translate(32,174)"/>
<path d="" fill="#121212" transform="translate(0,0)"/>
<path d="" fill="#1B1B1B" transform="translate(0,0)"/>
<path d="" fill="#47704C" transform="translate(0,0)"/>
<path d="" fill="#1B1B1B" transform="translate(0,0)"/>
<path d="" fill="#3D513F" transform="translate(0,0)"/>
<path d="" fill="#1B1B1B" transform="translate(0,0)"/>
<path d="" fill="#060606" transform="translate(0,0)"/>
<path d="" fill="#47704C" transform="translate(0,0)"/>
<path d="M0 0 C2 1 2 1 2 1 Z " fill="#314533" transform="translate(164,23)"/>
<path d="M0 0 C2 1 2 1 2 1 Z " fill="#000000" transform="translate(37,19)"/>
<path d="M0 0 C2 1 2 1 2 1 Z " fill="#304533" transform="translate(158,18)"/>
<path d="M0 0 C2 1 2 1 2 1 Z " fill="#304533" transform="translate(155,16)"/>
<path d="M0 0 C2 1 2 1 2 1 Z " fill="#2D4230" transform="translate(41,16)"/>
<path d="M0 0 C2 1 2 1 2 1 Z " fill="#304533" transform="translate(152,14)"/>
<path d="M0 0 C2 1 2 1 2 1 Z " fill="#263B29" transform="translate(44,14)"/>
<path d="M0 0 C2 1 2 1 2 1 Z " fill="#2F4331" transform="translate(149,12)"/>
<path d="M0 0 C2 1 2 1 2 1 Z " fill="#233826" transform="translate(47,12)"/>
<path d="M0 0 C2 1 2 1 2 1 Z " fill="#304432" transform="translate(147,11)"/>
<path d="M0 0 C2 1 2 1 2 1 Z " fill="#47704C" transform="translate(49,11)"/>
<path d="M0 0 C2 1 2 1 2 1 Z " fill="#47704C" transform="translate(51,10)"/>
<path d="M0 0 C2 1 2 1 2 1 Z " fill="#47704C" transform="translate(144,9)"/>
<path d="M0 0 C2 1 2 1 2 1 Z " fill="#263B29" transform="translate(53,9)"/>
<path d="M0 0 C2 1 2 1 2 1 Z " fill="#47704C" transform="translate(142,8)"/>
<path d="M0 0 C2 1 2 1 2 1 Z " fill="#283D2B" transform="translate(55,8)"/>
<path d="M0 0 C2 1 2 1 2 1 Z " fill="#47704C" transform="translate(140,7)"/>
<path d="M0 0 C2 1 2 1 2 1 Z " fill="#3D513F" transform="translate(57,7)"/>
<path d="M0 0 C2 1 2 1 2 1 Z " fill="#0A0A0A" transform="translate(59,6)"/>
<path d="M0 0 C2 1 2 1 2 1 Z " fill="#47704C" transform="translate(135,5)"/>
<path d="M0 0 C2 1 2 1 2 1 Z " fill="#191919" transform="translate(61,5)"/>
<path d="" fill="#1E1E1E" transform="translate(0,0)"/>
<path d="" fill="#1D1D1D" transform="translate(0,0)"/>
<path d="" fill="#1E1E1E" transform="translate(0,0)"/>
<path d="" fill="#1A1A1A" transform="translate(0,0)"/>
<path d="" fill="#1D1D1D" transform="translate(0,0)"/>
<path d="" fill="#1A1A1A" transform="translate(0,0)"/>
<path d="" fill="#1B1B1B" transform="translate(0,0)"/>
<path d="" fill="#1B1B1B" transform="translate(0,0)"/>
<path d="" fill="#1E1E1E" transform="translate(0,0)"/>
<path d="" fill="#191919" transform="translate(0,0)"/>
<path d="" fill="#1D1D1D" transform="translate(0,0)"/>
<path d="" fill="#1D1D1D" transform="translate(0,0)"/>
<path d="" fill="#1B1B1B" transform="translate(0,0)"/>
<path d="" fill="#1C1C1C" transform="translate(0,0)"/>
<path d="" fill="#1B1B1B" transform="translate(0,0)"/>
<path d="" fill="#1D1D1D" transform="translate(0,0)"/>
<path d="" fill="#1D1D1D" transform="translate(0,0)"/>
<path d="" fill="#171717" transform="translate(0,0)"/>
<path d="" fill="#1D1D1D" transform="translate(0,0)"/>
<path d="" fill="#1B1B1B" transform="translate(0,0)"/>
<path d="" fill="#1E1E1E" transform="translate(0,0)"/>
<path d="" fill="#191919" transform="translate(0,0)"/>
<path d="" fill="#1E1E1E" transform="translate(0,0)"/>
<path d="" fill="#1B1B1B" transform="translate(0,0)"/>
<path d="" fill="#1E1E1E" transform="translate(0,0)"/>
<path d="" fill="#191919" transform="translate(0,0)"/>
<path d="" fill="#1D1D1D" transform="translate(0,0)"/>
<path d="" fill="#1B1B1B" transform="translate(0,0)"/>
<path d="" fill="#1E1E1E" transform="translate(0,0)"/>
<path d="" fill="#1D1D1D" transform="translate(0,0)"/>
<path d="" fill="#1C1C1C" transform="translate(0,0)"/>
<path d="" fill="#1D1D1D" transform="translate(0,0)"/>
<path d="" fill="#1E1E1E" transform="translate(0,0)"/>
<path d="" fill="#1B1B1B" transform="translate(0,0)"/>
<path d="" fill="#060606" transform="translate(0,0)"/>
<path d="" fill="#1D1D1D" transform="translate(0,0)"/>
<path d="" fill="#1B1B1B" transform="translate(0,0)"/>
<path d="" fill="#060606" transform="translate(0,0)"/>
<path d="" fill="#000000" transform="translate(0,0)"/>
<path d="" fill="#060606" transform="translate(0,0)"/>
<path d="" fill="#191919" transform="translate(0,0)"/>
<path d="" fill="#1B1B1B" transform="translate(0,0)"/>
<path d="" fill="#191919" transform="translate(0,0)"/>
<path d="" fill="#1B1B1B" transform="translate(0,0)"/>
<path d="" fill="#171717" transform="translate(0,0)"/>
<path d="" fill="#141414" transform="translate(0,0)"/>
<path d="" fill="#171717" transform="translate(0,0)"/>
<path d="" fill="#47704C" transform="translate(0,0)"/>
<path d="" fill="#000000" transform="translate(0,0)"/>
<path d="" fill="#1D1D1D" transform="translate(0,0)"/>
<path d="" fill="#000000" transform="translate(0,0)"/>
<path d="" fill="#191919" transform="translate(0,0)"/>
<path d="" fill="#060606" transform="translate(0,0)"/>
<path d="" fill="#171717" transform="translate(0,0)"/>
<path d="" fill="#000000" transform="translate(0,0)"/>
<path d="" fill="#47704C" transform="translate(0,0)"/>
<path d="" fill="#000000" transform="translate(0,0)"/>
<path d="" fill="#191919" transform="translate(0,0)"/>
<path d="" fill="#000000" transform="translate(0,0)"/>
<path d="" fill="#1B1B1B" transform="translate(0,0)"/>
<path d="" fill="#000000" transform="translate(0,0)"/>
<path d="" fill="#171717" transform="translate(0,0)"/>
<path d="" fill="#47704C" transform="translate(0,0)"/>
<path d="" fill="#47704C" transform="translate(0,0)"/>
</svg>
