<?xml version="1.0" encoding="UTF-8"?>
<svg version="1.1" xmlns="http://www.w3.org/2000/svg" width="200" height="200">
<path d="M0 0 C2.16585104 0.02148274 4.32838768 0.00004279 6.49414062 -0.02539062 C19.20199291 -0.05184507 30.83153721 2.49867057 42.41601562 7.89648438 C43.0744043 8.19321045 43.73279297 8.48993652 44.41113281 8.7956543 C49.37132243 11.06494709 54.18556444 13.56983114 58.93164062 16.25976562 C61.11428481 17.54821946 61.11428481 17.54821946 63.33789062 18.43945312 C65.65069783 19.80835824 66.03045557 21.12122214 67.16601562 23.52148438 C68.99428884 25.45199333 68.99428884 25.45199333 71.10351562 27.20898438 C71.79316406 27.81097656 72.4828125 28.41296875 73.19335938 29.03320312 C75.19603534 30.70867198 75.19603534 30.70867198 78.16601562 31.52148438 C78.56820312 32.66617187 78.56820312 32.66617187 78.97851562 33.83398438 C79.98705012 36.7772393 79.98705012 36.7772393 83.04101562 38.39648438 C86.99952527 41.08827093 88.13552129 43.2262079 90.16601562 47.52148438 C90.16601562 49.18815104 90.16601562 50.85481771 90.16601562 52.52148438 C90.74738281 52.6890625 91.32875 52.85664062 91.92773438 53.02929688 C95.39532332 55.34102284 96.40395257 58.63484326 97.97851562 62.39648438 C98.30271484 63.11707031 98.62691406 63.83765625 98.9609375 64.58007812 C101.30407307 70.02899724 101.30407307 70.02899724 100.63755798 72.40663147 C99.9921711 75.30117171 100.89770861 77.56163609 101.66784668 80.36453247 C102.47508458 83.85967872 102.45178652 87.28876492 102.43164062 90.86132812 C102.43355408 91.6277211 102.43546753 92.39411407 102.43743896 93.18373108 C102.43879046 94.79298229 102.43516701 96.4022448 102.42675781 98.01147461 C102.41605809 100.44930998 102.42668071 102.88640611 102.43945312 105.32421875 C102.4445554 112.99381623 102.09951498 120.05784915 100.16601562 127.52148438 C100.49601563 128.51148438 100.82601562 129.50148437 101.16601562 130.52148438 C100.15115288 133.2927285 99.0767678 135.90797237 97.85351562 138.58398438 C97.53189453 139.31681641 97.21027344 140.04964844 96.87890625 140.8046875 C94.44883591 146.23866409 94.44883591 146.23866409 92.16601562 148.52148438 C89.55189466 151.56938627 89.55189466 151.56938627 89.16601562 155.52148438 C88.18847918 156.54345429 87.18542752 157.54128063 86.16601562 158.52148438 C85.85664063 159.20210937 85.54726562 159.88273438 85.22851562 160.58398438 C84.16601562 162.52148438 84.16601562 162.52148438 82.22851562 163.39648438 C79.85036865 164.43894771 79.85036865 164.43894771 78.66601562 167.52148438 C76.98822781 170.87706001 76.42415724 171.08406896 73.16601562 172.52148438 C71.4582159 174.1459768 69.79050805 175.81368465 68.16601562 177.52148438 C67.60914063 178.05773437 67.05226562 178.59398437 66.47851562 179.14648438 C64.92682621 180.69256465 64.92682621 180.69256465 63.16601562 183.52148438 C61.50602744 183.8866256 59.83796143 184.21572941 58.16601562 184.52148438 C55.59354665 185.80231056 55.59354665 185.80231056 53.10351562 187.39648438 C52.26691406 187.90953125 51.4303125 188.42257813 50.56835938 188.95117188 C47.6365044 190.86760391 44.89464831 192.86571496 42.29101562 195.20898438 C40.16601563 196.52148438 40.16601563 196.52148438 37.45898438 196.48046875 C33.73833927 196.5268113 30.89901145 197.37811358 27.35351562 198.49023438 C19.64200827 200.71337596 12.32402958 201.13682239 4.33203125 201.04296875 C2.16618021 201.02148601 0.00364357 201.04292596 -2.16210938 201.06835938 C-14.86996166 201.09481382 -26.49950596 198.54429818 -38.08398438 193.14648438 C-39.07156738 192.70139526 -39.07156738 192.70139526 -40.07910156 192.24731445 C-45.03929118 189.97802166 -49.85353319 187.47313761 -54.59960938 184.78320312 C-56.78225356 183.49474929 -56.78225356 183.49474929 -59.00585938 182.60351562 C-61.31866658 181.23461051 -61.69842432 179.92174661 -62.83398438 177.52148438 C-64.66225759 175.59097542 -64.66225759 175.59097542 -66.77148438 173.83398438 C-67.80595703 172.93099609 -67.80595703 172.93099609 -68.86132812 172.00976562 C-70.86400409 170.33429677 -70.86400409 170.33429677 -73.83398438 169.52148438 C-74.10210937 168.75835937 -74.37023437 167.99523437 -74.64648438 167.20898438 C-75.65501887 164.26572945 -75.65501887 164.26572945 -78.70898438 162.64648438 C-82.66749402 159.95469782 -83.80349004 157.81676085 -85.83398438 153.52148438 C-85.83398438 151.85481771 -85.83398438 150.18815104 -85.83398438 148.52148438 C-86.70603516 148.27011719 -86.70603516 148.27011719 -87.59570312 148.01367188 C-91.06329207 145.70194591 -92.07192132 142.40812549 -93.64648438 138.64648438 C-94.1327832 137.56560547 -94.1327832 137.56560547 -94.62890625 136.46289062 C-96.97204182 131.01397151 -96.97204182 131.01397151 -96.30552673 128.63633728 C-95.66013985 125.74179704 -96.56567736 123.48133266 -97.33581543 120.67843628 C-98.14305333 117.18329003 -98.11975527 113.75420383 -98.09960938 110.18164062 C-98.10152283 109.41524765 -98.10343628 108.64885468 -98.10540771 107.85923767 C-98.10675921 106.24998646 -98.10313576 104.64072395 -98.09472656 103.03149414 C-98.08402684 100.59365877 -98.09464946 98.15656264 -98.10742188 95.71875 C-98.11252415 88.04915252 -97.76748373 80.9851196 -95.83398438 73.52148438 C-96.16398437 72.53148438 -96.49398437 71.54148437 -96.83398438 70.52148438 C-95.81912163 67.75024025 -94.74473655 65.13499638 -93.52148438 62.45898438 C-93.03905273 61.35973633 -93.03905273 61.35973633 -92.546875 60.23828125 C-90.11680466 54.80430466 -90.11680466 54.80430466 -87.83398438 52.52148438 C-85.21986341 49.47358248 -85.21986341 49.47358248 -84.83398438 45.52148438 C-82.49933102 41.22533947 -80.16918608 38.68908523 -75.83398438 36.52148438 C-75.33898437 35.53148437 -74.84398438 34.54148438 -74.33398438 33.52148438 C-72.65619656 30.16590874 -72.09212599 29.95889979 -68.83398438 28.52148438 C-67.12618465 26.89699195 -65.4584768 25.2292841 -63.83398438 23.52148438 C-63.27710938 22.98523438 -62.72023437 22.44898437 -62.14648438 21.89648438 C-60.59479496 20.3504041 -60.59479496 20.3504041 -58.83398438 17.52148438 C-57.17399619 17.15634315 -55.50593018 16.82723934 -53.83398438 16.52148438 C-51.2615154 15.24065819 -51.2615154 15.24065819 -48.77148438 13.64648438 C-47.93488281 13.1334375 -47.09828125 12.62039063 -46.23632812 12.09179688 C-43.30447315 10.17536484 -40.56261706 8.17725379 -37.95898438 5.83398438 C-35.83398438 4.52148438 -35.83398438 4.52148438 -33.12695312 4.5625 C-29.40630802 4.51615745 -26.5669802 3.66485517 -23.02148438 2.55273438 C-15.30997702 0.32959279 -7.99199833 -0.09385364 0 0 Z M-92.83398438 63.52148438 C-91.83398438 65.52148438 -91.83398438 65.52148438 -91.83398438 65.52148438 Z M96.16601562 63.52148438 C97.16601562 65.52148438 97.16601562 65.52148438 97.16601562 65.52148438 Z M-93.83398438 65.52148438 C-92.83398438 67.52148438 -92.83398438 67.52148438 -92.83398438 67.52148438 Z M97.16601562 65.52148438 C98.16601562 67.52148438 98.16601562 67.52148438 98.16601562 67.52148438 Z M-94.83398438 68.52148438 C-93.83398438 70.52148438 -93.83398438 70.52148438 -93.83398438 70.52148438 Z M98.16601562 68.52148438 C99.16601562 70.52148438 99.16601562 70.52148438 99.16601562 70.52148438 Z M-94.83398438 130.52148438 C-93.83398438 132.52148438 -93.83398438 132.52148438 -93.83398438 132.52148438 Z M98.16601562 130.52148438 C99.16601562 132.52148438 99.16601562 132.52148438 99.16601562 132.52148438 Z M-93.83398438 133.52148438 C-92.83398438 135.52148438 -92.83398438 135.52148438 -92.83398438 135.52148438 Z M97.16601562 133.52148438 C98.16601562 135.52148438 98.16601562 135.52148438 98.16601562 135.52148438 Z M-92.83398438 135.52148438 C-91.83398438 137.52148438 -91.83398438 137.52148438 -91.83398438 137.52148438 Z M96.16601562 135.52148438 C97.16601562 137.52148438 97.16601562 137.52148438 97.16601562 137.52148438 Z " fill="#252525" transform="translate(97.833984375,-0.521484375)"/>
<path d="M0 0 C3.4375 0.5625 3.4375 0.5625 5.875 2.1875 C7.88559535 5.24360493 7.88746811 6.96275513 7.4375 10.5625 C6.57324999 13.15525002 5.87023517 14.23794863 3.6875 15.875 C0.54832448 16.83419252 -1.42419424 16.47783918 -4.5625 15.5625 C-7.58047955 13.41814611 -8.42605315 12.27505579 -9.125 8.625 C-8.12394196 3.1747951 -5.40141971 0.85285574 0 0 Z " fill="#F4F4F4" transform="translate(39.5625,97.4375)"/>
<path d="M0 0 C3.31469389 1.22499557 4.84046741 2.16720362 6.875 5.0625 C7.4375 8 7.4375 8 6.875 11.0625 C4.41905875 14.38524404 2.9493356 15.83868008 -1.125 16.6875 C-5.1993356 15.83868008 -6.66905875 14.38524404 -9.125 11.0625 C-9.8125 8.0625 -9.8125 8.0625 -9.125 5.0625 C-6.16174116 1.74647225 -4.52716343 0.09054327 0 0 Z " fill="#F4F4F4" transform="translate(141.125,144.9375)"/>
<path d="M0 0 C3.66429424 0.93956262 5.1724973 2.64813931 7.4375 5.625 C8.0625 8.625 8.0625 8.625 7.4375 11.625 C4.98155875 14.94774404 3.5118356 16.40118008 -0.5625 17.25 C-4.6368356 16.40118008 -6.10655875 14.94774404 -8.5625 11.625 C-9.25 8.625 -9.25 8.625 -8.5625 5.625 C-5.86086991 2.73488409 -3.87821714 0.94590662 0 0 Z " fill="#F6F6F6" transform="translate(131.5625,33.375)"/>
<path d="M0 0 C3.4375 0.9375 3.4375 0.9375 5.4375 2.0625 C7.12135831 5.21973433 6.33452275 7.58861508 5.4375 10.9375 C3.75 12.9375 3.75 12.9375 1.4375 13.9375 C-2.06239972 13.86607348 -3.85513143 13.59771066 -6.4375 11.1875 C-7.81113504 8.44022993 -8.09312116 6.96962094 -7.5625 3.9375 C-5.24143877 0.40948693 -4.27159402 -0.07494025 0 0 Z " fill="#EEEEEE" transform="translate(110.5625,152.0625)"/>
<path d="M0 0 C3 0.5625 3 0.5625 5.4375 2.6875 C7 5.5625 7 5.5625 6.9375 8.75 C6 11.5625 6 11.5625 3 13.5625 C-0.5 13.9375 -0.5 13.9375 -4 13.5625 C-6.38460953 11.48558202 -6.8959746 10.15693084 -7.4375 7.0625 C-6.64602694 2.53979681 -4.41632799 0.8280615 0 0 Z " fill="#F2F2F2" transform="translate(121,137.4375)"/>
<path d="M0 0 C1.9375 1.0625 1.9375 1.0625 3 3 C3.4375 6.5 3.4375 6.5 3 10 C0.76679398 12.66266871 -0.6200117 12.95347082 -4.0625 13.375 C-7 13 -7 13 -8.875 11.9375 C-10.64273274 8.8930714 -10.36823916 6.4368988 -10 3 C-7.77766882 -1.05248626 -4.20052866 -0.45005664 0 0 Z " fill="#EFEFEF" transform="translate(53,70)"/>
<path d="M0 0 C1.9375 1.125 1.9375 1.125 3 3 C3.42030443 6.29238472 3.295454 8.33957342 1.9375 11.375 C0 13 0 13 -3.5 13.5 C-7 13 -7 13 -8.9375 11.375 C-10.295454 8.33957342 -10.42030443 6.29238472 -10 3 C-7.72054654 -1.02256493 -4.21158603 -0.45124136 0 0 Z " fill="#F4F4F4" transform="translate(137,57)"/>
<path d="M0 0 C2.375 1.125 2.375 1.125 4 3 C4.62060815 6.64607289 4.47464453 8.30628876 2.375 11.375 C-0.67785921 13.46379841 -2.36968224 13.54068562 -6 13 C-7.875 11.9375 -7.875 11.9375 -9 10 C-9.63316583 4.09045226 -9.63316583 4.09045226 -7.875 1.0625 C-5.09808875 -0.51108304 -3.13770673 -0.38420899 0 0 Z " fill="#F3F3F3" transform="translate(154,59)"/>
<path d="M0 0 C2.38460953 2.07691798 2.8959746 3.40556916 3.4375 6.5 C3 9 3 9 1.4375 11.375 C-1 13 -1 13 -4.625 12.875 C-8 12 -8 12 -10 10 C-10.54587156 3.99541284 -10.54587156 3.99541284 -8.9375 1.0625 C-5.84506242 -0.63335287 -3.44485259 -0.43060657 0 0 Z " fill="#F9F9F9" transform="translate(60,87)"/>
<path d="M0 0 C3.0625 0.3125 3.0625 0.3125 4.9375 1.5 C6.46909584 3.96757108 6.49072025 5.45769831 6.0625 8.3125 C4.9375 10.125 4.9375 10.125 3.0625 11.3125 C0.0625 11.75 0.0625 11.75 -2.9375 11.3125 C-4.875 9.625 -4.875 9.625 -5.9375 7.3125 C-5.61764525 2.8345335 -4.76027546 0.50641228 0 0 Z " fill="#F0F0F0" transform="translate(83.9375,151.6875)"/>
<path d="M0 0 C2 2 2 2 2.3125 4.4375 C2 7 2 7 0.875 8.8125 C-1.87155972 10.55198782 -3.81846974 10.39769128 -7 10 C-8.875 8.8125 -8.875 8.8125 -10 7 C-10.42674516 4.15503228 -10.36066991 2.63647631 -8.9375 0.125 C-5.82785011 -1.68060316 -3.38260527 -0.79952488 0 0 Z " fill="#EFEFEF" transform="translate(153,79)"/>
<path d="M0 0 C1.8125 1.125 1.8125 1.125 3 3 C3.4375 6 3.4375 6 3 9 C1.3125 10.9375 1.3125 10.9375 -1 12 C-4.37036311 11.75925978 -5.58798021 11.41201979 -8 9 C-8.333728 5.86295684 -8.52849028 3.83445834 -6.8125 1.125 C-4.34492892 -0.40659584 -2.85480169 -0.42822025 0 0 Z " fill="#F0F0F0" transform="translate(66,49)"/>
<path d="M0 0 C2 2 2 2 2.25 5.5 C2 9 2 9 0 11 C-3.13704316 11.333728 -5.16554166 11.52849028 -7.875 9.8125 C-9.40659584 7.34492892 -9.42822025 5.85480169 -9 3 C-6.73157826 -0.65467947 -4.03373275 -0.4291205 0 0 Z " fill="#F2F2F2" transform="translate(166,83)"/>
<path d="M0 0 C3.5 0.25 3.5 0.25 5.5 2.25 C5.833728 5.38704316 6.02849028 7.41554166 4.3125 10.125 C1.84492892 11.65659584 0.35480169 11.67822025 -2.5 11.25 C-4.3125 10.125 -4.3125 10.125 -5.5 8.25 C-5.8125 5.1875 -5.8125 5.1875 -5.5 2.25 C-3.5 0.25 -3.5 0.25 0 0 Z " fill="#F1F1F1" transform="translate(72.5,80.75)"/>
<path d="M0 0 C3.5 0.25 3.5 0.25 5.5 2.25 C5.833728 5.38704316 6.02849028 7.41554166 4.3125 10.125 C1.81963619 11.67229478 0.38032665 11.75405716 -2.5 11.25 C-4.82411336 9.08617032 -5.43683957 7.7805476 -5.8125 4.625 C-5.27879498 0.56884188 -3.95279674 0.28234262 0 0 Z " fill="#F4F4F4" transform="translate(95.5,142.75)"/>
<path d="M0 0 C3.5625 0.1875 3.5625 0.1875 5.5625 2.1875 C5.896228 5.32454316 6.09099028 7.35304166 4.375 10.0625 C1.88213619 11.60979478 0.44282665 11.69155716 -2.4375 11.1875 C-4.3125 9.5625 -4.3125 9.5625 -5.4375 7.1875 C-4.89471446 0.26698443 -4.89471446 0.26698443 0 0 Z " fill="#F4F4F4" transform="translate(106.4375,128.8125)"/>
<path d="M0 0 C2.9375 0.8125 2.9375 0.8125 4.9375 2.8125 C4.6875 6.375 4.6875 6.375 3.9375 9.8125 C1.17499964 11.19375018 -1.00981099 11.00329306 -4.0625 10.8125 C-6.0625 8.8125 -6.0625 8.8125 -6.375 5.875 C-6.0625 2.8125 -6.0625 2.8125 -4.9375 0.875 C-3.0625 -0.1875 -3.0625 -0.1875 0 0 Z " fill="#F4F4F4" transform="translate(132.0625,75.1875)"/>
<path d="M0 0 C2.875 0.6875 2.875 0.6875 3.875 1.6875 C4.0625 5.125 4.0625 5.125 3.875 8.6875 C1.875 10.6875 1.875 10.6875 -1.0625 11 C-4.125 10.6875 -4.125 10.6875 -6.0625 9.5625 C-7.125 7.6875 -7.125 7.6875 -7 4.625 C-5.75350662 0.44034366 -4.32624662 -0.43262466 0 0 Z " fill="#F2F2F2" transform="translate(67.125,64.3125)"/>
<path d="M0 0 C2.5 0.25 2.5 0.25 4.5 2.25 C4.8125 5.25 4.8125 5.25 4.5 8.25 C1.5 10.25 1.5 10.25 -1.0625 10 C-3.5 9.25 -3.5 9.25 -5.5 7.25 C-5.08994391 3.14943907 -4.53376372 0.45337637 0 0 Z " fill="#E9E9E9" transform="translate(74.5,140.75)"/>
<path d="M0 0 C3.29714793 0.32971479 4.6226839 0.6226839 7 3 C7.3125 5.5 7.3125 5.5 7 8 C4 10 4 10 1.4375 9.75 C-1 9 -1 9 -3 7 C-2.67028521 3.70285207 -2.3773161 2.3773161 0 0 Z " fill="#EBEBEB" transform="translate(124,90)"/>
<path d="M0 0 C3.625 0.375 3.625 0.375 7 1 C7.625 3.875 7.625 3.875 8 7 C6 9 6 9 3 9.25 C0 9 0 9 -2 7 C-2.25 4.5 -2.25 4.5 -2 2 C-1.34 1.34 -0.68 0.68 0 0 Z " fill="#ECECEC" transform="translate(83,132)"/>
<path d="M0 0 C0.99 0.103125 1.98 0.20625 3 0.3125 C5 3.3125 5 3.3125 4.6875 5.9375 C4 8.3125 4 8.3125 3 9.3125 C0.0625 9.5 0.0625 9.5 -3 9.3125 C-5 7.3125 -5 7.3125 -5.25 4.8125 C-4.86676958 0.9801958 -3.75087075 0.3907157 0 0 Z " fill="#EFEFEF" transform="translate(97,117.6875)"/>
<path d="M0 0 C3.0625 0.1875 3.0625 0.1875 5.0625 2.1875 C5.3125 4.6875 5.3125 4.6875 5.0625 7.1875 C3.0625 9.1875 3.0625 9.1875 0.0625 9.5 C-0.9275 9.396875 -1.9175 9.29375 -2.9375 9.1875 C-4.9375 6.1875 -4.9375 6.1875 -4.625 3.5625 C-3.63731654 0.1505026 -3.65603948 0.23336422 0 0 Z " fill="#EFEFEF" transform="translate(77.9375,47.8125)"/>
<path d="M0 0 C2.5625 0.3125 2.5625 0.3125 4.4375 1.5 C5.5625 3.3125 5.5625 3.3125 5.3125 5.9375 C4.5625 8.3125 4.5625 8.3125 3.5625 9.3125 C0.625 9.5 0.625 9.5 -2.4375 9.3125 C-4.4375 7.3125 -4.4375 7.3125 -4.6875 4.8125 C-4.34234788 1.3609788 -3.44095645 0.44114826 0 0 Z " fill="#EDEDED" transform="translate(157.4375,97.6875)"/>
<path d="M0 0 C3.29714793 0.32971479 4.6226839 0.6226839 7 3 C6.8125 5.5 6.8125 5.5 6 8 C3 10 3 10 0.9375 9.75 C-1 9 -1 9 -3 7 C-2.67028521 3.70285207 -2.3773161 2.3773161 0 0 Z " fill="#EDEDED" transform="translate(79,62)"/>
<path d="M0 0 C2.5 0.25 2.5 0.25 4.5 2.25 C4.6875 5.3125 4.6875 5.3125 4.5 8.25 C3.5 9.25 3.5 9.25 0.5625 9.4375 C-2.5 9.25 -2.5 9.25 -4.5 7.25 C-4.75 4.75 -4.75 4.75 -4.5 2.25 C-2.5 0.25 -2.5 0.25 0 0 Z " fill="#F0F0F0" transform="translate(143.5,92.75)"/>
<path d="M0 0 C2.5 0.25 2.5 0.25 4.5 2.25 C4.6875 5.3125 4.6875 5.3125 4.5 8.25 C3.5 9.25 3.5 9.25 0.5625 9.4375 C-2.5 9.25 -2.5 9.25 -4.5 7.25 C-4.75 4.75 -4.75 4.75 -4.5 2.25 C-2.5 0.25 -2.5 0.25 0 0 Z " fill="#F5F5F5" transform="translate(87.5,78.75)"/>
<path d="M0 0 C4.75 0.875 4.75 0.875 7 2 C6.125 6.875 6.125 6.875 5 8 C2.5625 8.1875 2.5625 8.1875 0 8 C-0.66 7.34 -1.32 6.68 -2 6 C-1.64644564 3.73725212 -1.02455574 2.04911148 0 0 Z " fill="#E7E7E7" transform="translate(98,80)"/>
<path d="M0 0 C2.33944736 0.28730055 4.6739143 0.61936779 7 1 C7.125 3.375 7.125 3.375 7 6 C6.34 6.66 5.68 7.32 5 8 C0.44444444 7.44444444 0.44444444 7.44444444 -1 6 C-1.125 3.5 -1.125 3.5 -1 1 C-0.67 0.67 -0.34 0.34 0 0 Z " fill="#ECECEC" transform="translate(148,110)"/>
<path d="M0 0 C2.4375 0.1875 2.4375 0.1875 3.4375 1.1875 C3.625 3.625 3.625 3.625 3.4375 6.1875 C2.7775 6.8475 2.1175 7.5075 1.4375 8.1875 C-1.1875 7.8125 -1.1875 7.8125 -3.5625 7.1875 C-4.1875 4.8125 -4.1875 4.8125 -4.5625 2.1875 C-2.5625 0.1875 -2.5625 0.1875 0 0 Z " fill="#F0F0F0" transform="translate(68.5625,130.8125)"/>
<path d="M0 0 C2.625 0.375 2.625 0.375 5 1 C5.625 3.375 5.625 3.375 6 6 C4 8 4 8 1.375 8.125 C0.59125 8.08375 -0.1925 8.0425 -1 8 C-1.625 5.125 -1.625 5.125 -2 2 C-1.34 1.34 -0.68 0.68 0 0 Z " fill="#F1F1F1" transform="translate(78,121)"/>
<path d="M0 0 C2.625 0.375 2.625 0.375 5 1 C5.625 3.375 5.625 3.375 6 6 C4 8 4 8 1.375 8.125 C0.59125 8.08375 -0.1925 8.0425 -1 8 C-1.625 5.125 -1.625 5.125 -2 2 C-1.34 1.34 -0.68 0.68 0 0 Z " fill="#F2F2F2" transform="translate(89,107)"/>
<path d="M0 0 C3.125 0.375 3.125 0.375 6 1 C6.125 3.375 6.125 3.375 6 6 C5.34 6.66 4.68 7.32 4 8 C1.375 7.625 1.375 7.625 -1 7 C-1.625 4.625 -1.625 4.625 -2 2 C-1.34 1.34 -0.68 0.68 0 0 Z " fill="#EDEDED" transform="translate(89,49)"/>
<path d="M0 0 C2.625 0.375 2.625 0.375 5 1 C5.625 3.375 5.625 3.375 6 6 C5.34 6.66 4.68 7.32 4 8 C1.375 7.625 1.375 7.625 -1 7 C-1.625 4.625 -1.625 4.625 -2 2 C-1.34 1.34 -0.68 0.68 0 0 Z " fill="#F6F6F6" transform="translate(117,102)"/>
<path d="M0 0 C2.625 0.375 2.625 0.375 5 1 C5.625 3.375 5.625 3.375 6 6 C5.34 6.66 4.68 7.32 4 8 C1.375 7.625 1.375 7.625 -1 7 C-1.625 4.625 -1.625 4.625 -2 2 C-1.34 1.34 -0.68 0.68 0 0 Z " fill="#F2F2F2" transform="translate(92,64)"/>
<path d="M0 0 C2.5625 0.1875 2.5625 0.1875 4.5625 2.1875 C4.02678571 5.72321429 4.02678571 5.72321429 2.5625 7.1875 C0.0625 7.3125 0.0625 7.3125 -2.4375 7.1875 C-3.4375 6.1875 -3.4375 6.1875 -3.5625 3.6875 C-3.39599509 0.35740177 -3.31519894 0.2550153 0 0 Z " fill="#F5F5F5" transform="translate(136.4375,104.8125)"/>
<path d="M0 0 C2.125 0.375 2.125 0.375 4 1 C4.625 3.375 4.625 3.375 5 6 C4.34 6.66 3.68 7.32 3 8 C0.875 7.625 0.875 7.625 -1 7 C-1.625 4.625 -1.625 4.625 -2 2 C-1.34 1.34 -0.68 0.68 0 0 Z " fill="#EAEAEA" transform="translate(64,120)"/>
<path d="M0 0 C2.625 0.375 2.625 0.375 5 1 C5.625 2.875 5.625 2.875 6 5 C5.34 5.66 4.68 6.32 4 7 C1.375 6.625 1.375 6.625 -1 6 C-1.625 4.125 -1.625 4.125 -2 2 C-1.34 1.34 -0.68 0.68 0 0 Z " fill="#E3E3E3" transform="translate(109,84)"/>
<path d="M0 0 C2.00720923 0.28674418 4.0085944 0.61866701 6 1 C5.67 2.65 5.34 4.3 5 6 C3.34385343 6.38218767 1.67542976 6.71395102 0 7 C-1 6 -1 6 -1.125 3.5 C-1 1 -1 1 0 0 Z " fill="#E6E6E6" transform="translate(75,111)"/>
<path d="M0 0 C1.66611905 -0.042721 3.33382885 -0.04063832 5 0 C6 1 6 1 6.0625 3.5625 C6.041875 4.366875 6.02125 5.17125 6 6 C3.625 6.625 3.625 6.625 1 7 C0.34 6.34 -0.32 5.68 -1 5 C-0.625 2.375 -0.625 2.375 0 0 Z " fill="#F1F1F1" transform="translate(140,118)"/>
<path d="M0 0 C1.67542976 0.28604898 3.34385343 0.61781233 5 1 C5.625 2.875 5.625 2.875 6 5 C5.34 5.66 4.68 6.32 4 7 C1.375 6.625 1.375 6.625 -1 6 C-1.042721 4.33388095 -1.04063832 2.66617115 -1 1 C-0.67 0.67 -0.34 0.34 0 0 Z " fill="#EBEBEB" transform="translate(109,110)"/>
<path d="M0 0 C1.67542976 0.28604898 3.34385343 0.61781233 5 1 C5.625 2.875 5.625 2.875 6 5 C5.34 5.66 4.68 6.32 4 7 C1.375 6.625 1.375 6.625 -1 6 C-1.042721 4.33388095 -1.04063832 2.66617115 -1 1 C-0.67 0.67 -0.34 0.34 0 0 Z " fill="#EBEBEB" transform="translate(86,97)"/>
<path d="M0 0 C1.32 0.66 2.64 1.32 4 2 C3.67 3.65 3.34 5.3 3 7 C1.35 7 -0.3 7 -2 7 C-2.33 5.35 -2.66 3.7 -3 2 C-2.01 1.34 -1.02 0.68 0 0 Z " fill="#ECECEC" transform="translate(101,52)"/>
<path d="M0 0 C1.2065625 0.0309375 1.2065625 0.0309375 2.4375 0.0625 C2.81968767 1.71864657 3.15145102 3.38707024 3.4375 5.0625 C2.4375 6.0625 2.4375 6.0625 -0.125 6.125 C-1.3315625 6.0940625 -1.3315625 6.0940625 -2.5625 6.0625 C-2.94468767 4.40635343 -3.27645102 2.73792976 -3.5625 1.0625 C-2.5625 0.0625 -2.5625 0.0625 0 0 Z " fill="#ECECEC" transform="translate(128.5625,112.9375)"/>
<path d="M0 0 C1.2065625 0.0309375 1.2065625 0.0309375 2.4375 0.0625 C2.81968767 1.71864657 3.15145102 3.38707024 3.4375 5.0625 C2.4375 6.0625 2.4375 6.0625 -0.125 6.125 C-1.3315625 6.0940625 -1.3315625 6.0940625 -2.5625 6.0625 C-2.94468767 4.40635343 -3.27645102 2.73792976 -3.5625 1.0625 C-2.5625 0.0625 -2.5625 0.0625 0 0 Z " fill="#E9E9E9" transform="translate(104.5625,67.9375)"/>
<path d="M0 0 C2.125 0.375 2.125 0.375 4 1 C4.5625 2.9375 4.5625 2.9375 5 5 C4 6 4 6 1.4375 6.0625 C0.2309375 6.0315625 0.2309375 6.0315625 -1 6 C-1.625 4.125 -1.625 4.125 -2 2 C-1.34 1.34 -0.68 0.68 0 0 Z " fill="#D9D9D9" transform="translate(111,72)"/>
<path d="M0 0 C1.32 0 2.64 0 4 0 C4.33 1.65 4.66 3.3 5 5 C3.35 5.33 1.7 5.66 0 6 C-0.38218767 4.34385343 -0.71395102 2.67542976 -1 1 C-0.67 0.67 -0.34 0.34 0 0 Z " fill="#E3E3E3" transform="translate(133,123)"/>
<path d="M0 0 C1.65 0 3.3 0 5 0 C5 1.65 5 3.3 5 5 C3.125 5.625 3.125 5.625 1 6 C0.34 5.34 -0.32 4.68 -1 4 C-0.625 1.875 -0.625 1.875 0 0 Z " fill="#E2E2E2" transform="translate(63,112)"/>
<path d="M0 0 C2.0625 0.4375 2.0625 0.4375 4 1 C3.67 2.65 3.34 4.3 3 6 C1.35 5.67 -0.3 5.34 -2 5 C-1.125 1.125 -1.125 1.125 0 0 Z " fill="#DFDFDF" transform="translate(76,102)"/>
<path d="M0 0 C1.65 0.33 3.3 0.66 5 1 C5 2.32 5 3.64 5 5 C3.02 5 1.04 5 -1 5 C-0.67 3.35 -0.34 1.7 0 0 Z " fill="#DEDEDE" transform="translate(119,118)"/>
<path d="M0 0 C1.98 0.495 1.98 0.495 4 1 C3.67 2.32 3.34 3.64 3 5 C1.68 5 0.36 5 -1 5 C-0.67 3.35 -0.34 1.7 0 0 Z " fill="#EAEAEA" transform="translate(126,126)"/>
<path d="M0 0 C1.32 0 2.64 0 4 0 C4 1.65 4 3.3 4 5 C2.35 4.67 0.7 4.34 -1 4 C-0.67 2.68 -0.34 1.36 0 0 Z " fill="#DCDCDC" transform="translate(65,104)"/>
<path d="M0 0 C1.20628008 2.33214148 2.1654738 4.49642139 3 7 C1.68 7.33 0.36 7.66 -1 8 C-2.2077558 4.37673261 -1.54311128 3.35853631 0 0 Z " fill="#363636" transform="translate(89,146)"/>
<path d="M0 0 C0.99 0.33 1.98 0.66 3 1 C1.35 1.33 -0.3 1.66 -2 2 C-1.34 1.34 -0.68 0.68 0 0 Z " fill="#181818" transform="translate(132,196)"/>
<path d="M0 0 C2.475 0.495 2.475 0.495 5 1 C4.01 1.33 3.02 1.66 2 2 C1.34 1.34 0.68 0.68 0 0 Z " fill="#141414" transform="translate(65,196)"/>
<path d="M0 0 C2.475 0.495 2.475 0.495 5 1 C4.01 1.33 3.02 1.66 2 2 C1.34 1.34 0.68 0.68 0 0 Z " fill="#1C1C1C" transform="translate(60,194)"/>
<path d="M0 0 C2.475 0.495 2.475 0.495 5 1 C4.01 1.33 3.02 1.66 2 2 C1.34 1.34 0.68 0.68 0 0 Z " fill="#1C1C1C" transform="translate(135,4)"/>
<path d="M0 0 C2.475 0.495 2.475 0.495 5 1 C4.01 1.33 3.02 1.66 2 2 C1.34 1.34 0.68 0.68 0 0 Z " fill="#141414" transform="translate(130,2)"/>
<path d="M0 0 C0.99 0.33 1.98 0.66 3 1 C1.35 1.33 -0.3 1.66 -2 2 C-1.34 1.34 -0.68 0.68 0 0 Z " fill="#181818" transform="translate(67,2)"/>
<path d="M0 0 C0.99 0.33 1.98 0.66 3 1 C2.01 1 1.02 1 0 1 C0 0.67 0 0.34 0 0 Z " fill="#040404" transform="translate(42,184)"/>
<path d="M0 0 C0.66 0.33 1.32 0.66 2 1 C1.01 1 0.02 1 -1 1 C-0.67 0.67 -0.34 0.34 0 0 Z " fill="#090909" transform="translate(43,14)"/>
<path d="M0 0 C0.99 0.33 1.98 0.66 3 1 C2.01 1 1.02 1 0 1 C0 0.67 0 0.34 0 0 Z " fill="#040404" transform="translate(155,14)"/>
<path d="M0 0 C3 1 3 1 3 1 Z " fill="#060606" transform="translate(123,199)"/>
<path d="M0 0 C3 1 3 1 3 1 Z " fill="#060606" transform="translate(74,199)"/>
<path d="M0 0 C3 1 3 1 3 1 Z " fill="#060606" transform="translate(127,198)"/>
<path d="M0 0 C3 1 3 1 3 1 Z " fill="#0C0C0C" transform="translate(70,198)"/>
<path d="" fill="#060606" transform="translate(0,0)"/>
<path d="" fill="#060606" transform="translate(0,0)"/>
<path d="" fill="#060606" transform="translate(0,0)"/>
<path d="" fill="#060606" transform="translate(0,0)"/>
<path d="M0 0 C3 1 3 1 3 1 Z " fill="#0C0C0C" transform="translate(127,1)"/>
<path d="M0 0 C3 1 3 1 3 1 Z " fill="#060606" transform="translate(70,1)"/>
<path d="M0 0 C3 1 3 1 3 1 Z " fill="#060606" transform="translate(123,0)"/>
<path d="M0 0 C3 1 3 1 3 1 Z " fill="#060606" transform="translate(74,0)"/>
<path d="M0 0 C2 1 2 1 2 1 Z " fill="#151515" transform="translate(58,193)"/>
<path d="M0 0 C2 1 2 1 2 1 Z " fill="#1F1F1F" transform="translate(142,192)"/>
<path d="M0 0 C2 1 2 1 2 1 Z " fill="#292929" transform="translate(56,192)"/>
<path d="M0 0 C2 1 2 1 2 1 Z " fill="#1F1F1F" transform="translate(144,191)"/>
<path d="M0 0 C2 1 2 1 2 1 Z " fill="#000000" transform="translate(54,191)"/>
<path d="M0 0 C2 1 2 1 2 1 Z " fill="#090909" transform="translate(156,184)"/>
<path d="M0 0 C2 1 2 1 2 1 Z " fill="#000000" transform="translate(144,8)"/>
<path d="M0 0 C2 1 2 1 2 1 Z " fill="#1F1F1F" transform="translate(54,8)"/>
<path d="M0 0 C2 1 2 1 2 1 Z " fill="#292929" transform="translate(142,7)"/>
<path d="M0 0 C2 1 2 1 2 1 Z " fill="#1F1F1F" transform="translate(56,7)"/>
<path d="M0 0 C2 1 2 1 2 1 Z " fill="#151515" transform="translate(140,6)"/>
<path d="" fill="#131313" transform="translate(0,0)"/>
<path d="" fill="#000000" transform="translate(0,0)"/>
<path d="" fill="#000000" transform="translate(0,0)"/>
<path d="" fill="#000000" transform="translate(0,0)"/>
<path d="" fill="#000000" transform="translate(0,0)"/>
<path d="" fill="#131313" transform="translate(0,0)"/>
<path d="" fill="#000000" transform="translate(0,0)"/>
<path d="" fill="#2B2B2B" transform="translate(0,0)"/>
<path d="" fill="#2B2B2B" transform="translate(0,0)"/>
<path d="" fill="#000000" transform="translate(0,0)"/>
<path d="" fill="#000000" transform="translate(0,0)"/>
<path d="" fill="#131313" transform="translate(0,0)"/>
<path d="" fill="#131313" transform="translate(0,0)"/>
<path d="" fill="#000000" transform="translate(0,0)"/>
<path d="" fill="#000000" transform="translate(0,0)"/>
<path d="" fill="#000000" transform="translate(0,0)"/>
<path d="" fill="#131313" transform="translate(0,0)"/>
<path d="" fill="#131313" transform="translate(0,0)"/>
<path d="" fill="#131313" transform="translate(0,0)"/>
<path d="" fill="#131313" transform="translate(0,0)"/>
<path d="" fill="#131313" transform="translate(0,0)"/>
<path d="" fill="#000000" transform="translate(0,0)"/>
<path d="" fill="#000000" transform="translate(0,0)"/>
<path d="" fill="#000000" transform="translate(0,0)"/>
<path d="" fill="#000000" transform="translate(0,0)"/>
<path d="" fill="#131313" transform="translate(0,0)"/>
<path d="" fill="#000000" transform="translate(0,0)"/>
<path d="" fill="#000000" transform="translate(0,0)"/>
<path d="" fill="#000000" transform="translate(0,0)"/>
<path d="" fill="#131313" transform="translate(0,0)"/>
<path d="" fill="#000000" transform="translate(0,0)"/>
<path d="" fill="#000000" transform="translate(0,0)"/>
<path d="" fill="#000000" transform="translate(0,0)"/>
<path d="" fill="#131313" transform="translate(0,0)"/>
<path d="" fill="#000000" transform="translate(0,0)"/>
<path d="" fill="#000000" transform="translate(0,0)"/>
<path d="" fill="#000000" transform="translate(0,0)"/>
<path d="" fill="#000000" transform="translate(0,0)"/>
<path d="" fill="#000000" transform="translate(0,0)"/>
<path d="" fill="#000000" transform="translate(0,0)"/>
<path d="" fill="#000000" transform="translate(0,0)"/>
<path d="" fill="#131313" transform="translate(0,0)"/>
<path d="" fill="#000000" transform="translate(0,0)"/>
<path d="" fill="#000000" transform="translate(0,0)"/>
<path d="" fill="#000000" transform="translate(0,0)"/>
<path d="" fill="#131313" transform="translate(0,0)"/>
<path d="" fill="#000000" transform="translate(0,0)"/>
<path d="" fill="#000000" transform="translate(0,0)"/>
<path d="" fill="#000000" transform="translate(0,0)"/>
<path d="" fill="#000000" transform="translate(0,0)"/>
<path d="" fill="#131313" transform="translate(0,0)"/>
<path d="" fill="#131313" transform="translate(0,0)"/>
<path d="" fill="#131313" transform="translate(0,0)"/>
<path d="" fill="#131313" transform="translate(0,0)"/>
<path d="" fill="#131313" transform="translate(0,0)"/>
<path d="" fill="#000000" transform="translate(0,0)"/>
<path d="" fill="#000000" transform="translate(0,0)"/>
<path d="" fill="#000000" transform="translate(0,0)"/>
<path d="" fill="#131313" transform="translate(0,0)"/>
<path d="" fill="#131313" transform="translate(0,0)"/>
<path d="" fill="#000000" transform="translate(0,0)"/>
<path d="" fill="#000000" transform="translate(0,0)"/>
<path d="" fill="#2B2B2B" transform="translate(0,0)"/>
<path d="" fill="#2B2B2B" transform="translate(0,0)"/>
<path d="" fill="#131313" transform="translate(0,0)"/>
<path d="" fill="#000000" transform="translate(0,0)"/>
<path d="" fill="#000000" transform="translate(0,0)"/>
<path d="" fill="#000000" transform="translate(0,0)"/>
<path d="" fill="#000000" transform="translate(0,0)"/>
<path d="" fill="#131313" transform="translate(0,0)"/>
</svg>
