<?xml version="1.0" encoding="UTF-8"?>
<svg version="1.1" xmlns="http://www.w3.org/2000/svg" width="200" height="200">
<path d="M0 0 C2.82045877 2.30263418 5.56336058 4.67903285 8.27832031 7.10449219 C11.1535235 9.666713 11.1535235 9.666713 14.50878906 11.77246094 C17.18066406 13.58496094 17.18066406 13.58496094 17.86816406 15.77246094 C18.02285156 16.66964844 18.02285156 16.66964844 18.18066406 17.58496094 C19.17066406 17.91496094 20.16066406 18.24496094 21.18066406 18.58496094 C21.51066406 19.57496094 21.84066406 20.56496094 22.18066406 21.58496094 C22.78394531 22.1740625 23.38722656 22.76316406 24.00878906 23.37011719 C26.61161449 26.02443736 28.16331475 28.75588582 29.93066406 32.02246094 C30.85105469 33.69115234 30.85105469 33.69115234 31.79003906 35.39355469 C33.13514811 38.48050439 33.50200878 40.27881822 33.18066406 43.58496094 C33.84066406 43.58496094 34.50066406 43.58496094 35.18066406 43.58496094 C39.64424539 56.0781479 40.85665551 67.12735329 40.55566406 80.33496094 C40.53909422 82.04587815 40.52476266 83.75681854 40.51269531 85.46777344 C40.3702832 98.68935945 40.3702832 98.68935945 39.18066406 103.58496094 C38.52066406 103.58496094 37.86066406 103.58496094 37.18066406 103.58496094 C37.18066406 105.89496094 37.18066406 108.20496094 37.18066406 110.58496094 C36.52066406 110.58496094 35.86066406 110.58496094 35.18066406 110.58496094 C34.52066406 113.88496094 33.86066406 117.18496094 33.18066406 120.58496094 C32.52066406 120.58496094 31.86066406 120.58496094 31.18066406 120.58496094 C31.10589844 121.42542969 31.03113281 122.26589844 30.95410156 123.13183594 C30.00301116 127.37811833 28.20111083 130.25695184 25.80566406 133.83496094 C25.40605469 134.45886719 25.00644531 135.08277344 24.59472656 135.72558594 C22.64505024 138.70140769 21.175244 140.58857431 18.18066406 142.58496094 C17.87128906 143.24496094 17.56191406 143.90496094 17.24316406 144.58496094 C16.18066406 146.58496094 16.18066406 146.58496094 14.29394531 147.52246094 C12.05773456 148.64676653 10.95666201 149.72870379 9.30566406 151.58496094 C-7.5531495 168.76523493 -31.7922615 178.47350042 -55.67724609 178.87768555 C-83.14890277 179.03784131 -105.50892955 171.73865683 -126.31811523 153.40429688 C-129.3378039 150.75277047 -132.36813316 148.62599484 -135.81933594 146.58496094 C-136.52084746 145.26962683 -137.18459519 143.93378502 -137.81933594 142.58496094 C-139.08777344 141.37839844 -139.08777344 141.37839844 -140.38183594 140.14746094 C-142.93144067 137.46710724 -143.50996572 136.19428011 -143.81933594 132.58496094 C-144.80933594 132.25496094 -145.79933594 131.92496094 -146.81933594 131.58496094 C-150.62798259 125.57828936 -153.21756631 119.65575401 -153.81933594 112.58496094 C-154.47933594 111.59496094 -155.13933594 110.60496094 -155.81933594 109.58496094 C-156.19144014 108.26192377 -156.52563767 106.92758159 -156.81933594 105.58496094 C-157.14933594 104.59496094 -157.47933594 103.60496094 -157.81933594 102.58496094 C-158.14933594 102.58496094 -158.47933594 102.58496094 -158.81933594 102.58496094 C-158.87027326 96.32278946 -158.90516878 90.06067193 -158.92919922 83.79833984 C-158.93922299 81.67038984 -158.95284555 79.5424535 -158.97021484 77.41455078 C-158.99462286 74.34631976 -159.00585555 71.27827173 -159.01464844 68.20996094 C-159.02497101 67.26693115 -159.03529358 66.32390137 -159.04592896 65.35229492 C-159.04686971 59.74541582 -158.41278806 54.96630789 -156.81933594 49.58496094 C-156.15933594 49.58496094 -155.49933594 49.58496094 -154.81933594 49.58496094 C-154.69816406 48.88628906 -154.57699219 48.18761719 -154.45214844 47.46777344 C-154.28457031 46.55769531 -154.11699219 45.64761719 -153.94433594 44.70996094 C-153.78191406 43.80503906 -153.61949219 42.90011719 -153.45214844 41.96777344 C-152.81933594 39.58496094 -152.81933594 39.58496094 -150.81933594 37.58496094 C-149.71378412 35.63398714 -148.89319267 33.94732054 -148.44433594 31.74511719 C-147.67559861 29.08816878 -146.42875814 27.18569548 -144.88183594 24.89746094 C-144.3571875 24.10984375 -143.83253906 23.32222656 -143.29199219 22.51074219 C-141.81933594 20.58496094 -141.81933594 20.58496094 -139.81933594 19.58496094 C-139.48933594 18.59496094 -139.15933594 17.60496094 -138.81933594 16.58496094 C-138.25988281 16.318125 -137.70042969 16.05128906 -137.12402344 15.77636719 C-133.75454168 14.03451645 -131.50732154 11.25605376 -128.94433594 8.52246094 C-95.59880991 -25.77011212 -37.69548479 -29.31871039 0 0 Z M34.18066406 46.58496094 C35.18066406 48.58496094 35.18066406 48.58496094 35.18066406 48.58496094 Z M35.18066406 49.58496094 C36.18066406 51.58496094 36.18066406 51.58496094 36.18066406 51.58496094 Z M36.18066406 52.58496094 C37.18066406 55.58496094 37.18066406 55.58496094 37.18066406 55.58496094 Z M-156.81933594 53.58496094 C-155.81933594 56.58496094 -155.81933594 56.58496094 -155.81933594 56.58496094 Z M37.18066406 56.58496094 C38.18066406 59.58496094 38.18066406 59.58496094 38.18066406 59.58496094 Z M-157.81933594 57.58496094 C-156.81933594 61.58496094 -156.81933594 61.58496094 -156.81933594 61.58496094 Z M38.18066406 60.58496094 C38.18066406 62.23496094 38.18066406 63.88496094 38.18066406 65.58496094 C38.51066406 65.58496094 38.84066406 65.58496094 39.18066406 65.58496094 C39.18066406 63.93496094 39.18066406 62.28496094 39.18066406 60.58496094 C38.85066406 60.58496094 38.52066406 60.58496094 38.18066406 60.58496094 Z M38.18066406 93.58496094 C38.18066406 95.23496094 38.18066406 96.88496094 38.18066406 98.58496094 C38.51066406 98.58496094 38.84066406 98.58496094 39.18066406 98.58496094 C39.18066406 96.93496094 39.18066406 95.28496094 39.18066406 93.58496094 C38.85066406 93.58496094 38.52066406 93.58496094 38.18066406 93.58496094 Z " fill="#CB8672" transform="translate(158.8193359375,19.4150390625)"/>
<path d="M0 0 C2.82045877 2.30263418 5.56336058 4.67903285 8.27832031 7.10449219 C11.1535235 9.666713 11.1535235 9.666713 14.50878906 11.77246094 C17.18066406 13.58496094 17.18066406 13.58496094 17.86816406 15.77246094 C18.02285156 16.66964844 18.02285156 16.66964844 18.18066406 17.58496094 C19.17066406 17.91496094 20.16066406 18.24496094 21.18066406 18.58496094 C21.51066406 19.57496094 21.84066406 20.56496094 22.18066406 21.58496094 C22.78394531 22.1740625 23.38722656 22.76316406 24.00878906 23.37011719 C26.61161449 26.02443736 28.16331475 28.75588582 29.93066406 32.02246094 C30.85105469 33.69115234 30.85105469 33.69115234 31.79003906 35.39355469 C33.13514811 38.48050439 33.50200878 40.27881822 33.18066406 43.58496094 C33.84066406 43.58496094 34.50066406 43.58496094 35.18066406 43.58496094 C39.64424539 56.0781479 40.85665551 67.12735329 40.55566406 80.33496094 C40.53909422 82.04587815 40.52476266 83.75681854 40.51269531 85.46777344 C40.3702832 98.68935945 40.3702832 98.68935945 39.18066406 103.58496094 C38.52066406 103.58496094 37.86066406 103.58496094 37.18066406 103.58496094 C37.18066406 105.89496094 37.18066406 108.20496094 37.18066406 110.58496094 C36.52066406 110.58496094 35.86066406 110.58496094 35.18066406 110.58496094 C34.52066406 113.88496094 33.86066406 117.18496094 33.18066406 120.58496094 C32.52066406 120.58496094 31.86066406 120.58496094 31.18066406 120.58496094 C31.10589844 121.42542969 31.03113281 122.26589844 30.95410156 123.13183594 C30.00301116 127.37811833 28.20111083 130.25695184 25.80566406 133.83496094 C25.40605469 134.45886719 25.00644531 135.08277344 24.59472656 135.72558594 C22.64505024 138.70140769 21.175244 140.58857431 18.18066406 142.58496094 C17.87128906 143.24496094 17.56191406 143.90496094 17.24316406 144.58496094 C16.18066406 146.58496094 16.18066406 146.58496094 14.29394531 147.52246094 C12.05773456 148.64676653 10.95666201 149.72870379 9.30566406 151.58496094 C-3.76936271 164.90929966 -22.36690996 174.60725052 -40.81933594 177.58496094 C-43.23730469 177.17480469 -43.23730469 177.17480469 -44.81933594 176.58496094 C-40.19433594 172.58496094 -40.19433594 172.58496094 -36.81933594 172.58496094 C-36.15933594 171.92496094 -35.49933594 171.26496094 -34.81933594 170.58496094 C-33.15266927 169.91829427 -31.4860026 169.2516276 -29.81933594 168.58496094 C-29.15933594 167.92496094 -28.49933594 167.26496094 -27.81933594 166.58496094 C-26.89121094 166.15183594 -26.89121094 166.15183594 -25.94433594 165.70996094 C-23.66414878 164.64921631 -23.66414878 164.64921631 -21.81933594 162.45996094 C-19.81933594 160.58496094 -19.81933594 160.58496094 -15.81933594 160.58496094 C-14.46359845 159.2744147 -13.13320762 157.93747591 -11.81933594 156.58496094 C-8.84269355 154.94477023 -6.042084 153.65921029 -2.81933594 152.58496094 C-2.01496094 151.90433594 -1.21058594 151.22371094 -0.38183594 150.52246094 C2.18066406 148.58496094 2.18066406 148.58496094 6.18066406 148.58496094 C6.51066406 147.92496094 6.84066406 147.26496094 7.18066406 146.58496094 C8.17066406 146.25496094 9.16066406 145.92496094 10.18066406 145.58496094 C10.18066406 138.98496094 10.18066406 132.38496094 10.18066406 125.58496094 C9.19066406 125.25496094 8.20066406 124.92496094 7.18066406 124.58496094 C7.84066406 123.59496094 8.50066406 122.60496094 9.18066406 121.58496094 C9.45423249 119.65358412 9.45423249 119.65358412 9.37597656 117.57324219 C9.36953125 116.81591797 9.36308594 116.05859375 9.35644531 115.27832031 C9.33130859 114.09979492 9.33130859 114.09979492 9.30566406 112.89746094 C9.29664063 112.10017578 9.28761719 111.30289063 9.27832031 110.48144531 C9.25477991 108.51582193 9.21890953 106.55035319 9.18066406 104.58496094 C6.13139248 105.22598223 6.13139248 105.22598223 5.24316406 107.27246094 C4.89253906 108.03558594 4.54191406 108.79871094 4.18066406 109.58496094 C0.62328701 115.43741995 0.62328701 115.43741995 -2.81933594 116.58496094 C-3.83121489 118.24444241 -4.83199053 119.91076656 -5.81933594 121.58496094 C-6.47933594 121.58496094 -7.13933594 121.58496094 -7.81933594 121.58496094 C-8.47933594 122.90496094 -9.13933594 124.22496094 -9.81933594 125.58496094 C-10.80933594 124.92496094 -11.79933594 124.26496094 -12.81933594 123.58496094 C-13.15964844 124.57496094 -13.15964844 124.57496094 -13.50683594 125.58496094 C-15.22504952 129.51230627 -17.48708201 132.99756272 -19.81933594 136.58496094 C-23.53821833 136.07784061 -26.55387832 135.46887879 -29.81933594 133.58496094 C-30.14933594 134.90496094 -30.47933594 136.22496094 -30.81933594 137.58496094 C-37.56933594 137.70996094 -37.56933594 137.70996094 -39.81933594 136.58496094 C-39.81933594 137.24496094 -39.81933594 137.90496094 -39.81933594 138.58496094 C-40.85574219 138.50117188 -41.89214844 138.41738281 -42.95996094 138.33105469 C-44.32972726 138.22785312 -45.6995204 138.1250072 -47.06933594 138.02246094 C-47.75125 137.96638672 -48.43316406 137.9103125 -49.13574219 137.85253906 C-52.56139403 137.60309839 -55.54634771 137.44616349 -58.81933594 138.58496094 C-59.01464844 136.53417969 -59.20996094 134.48339844 -59.40527344 132.43261719 C-59.54191406 131.82289063 -59.67855469 131.21316406 -59.81933594 130.58496094 C-60.47933594 130.25496094 -61.13933594 129.92496094 -61.81933594 129.58496094 C-61.81933594 128.92496094 -61.81933594 128.26496094 -61.81933594 127.58496094 C-63.79933594 126.59496094 -63.79933594 126.59496094 -65.81933594 125.58496094 C-65.81933594 124.92496094 -65.81933594 124.26496094 -65.81933594 123.58496094 C-66.47933594 123.58496094 -67.13933594 123.58496094 -67.81933594 123.58496094 C-69.32714844 121.90527344 -69.32714844 121.90527344 -70.94433594 119.70996094 C-71.48316406 118.99066406 -72.02199219 118.27136719 -72.57714844 117.53027344 C-73.81933594 115.58496094 -73.81933594 115.58496094 -73.81933594 113.58496094 C-74.47933594 113.58496094 -75.13933594 113.58496094 -75.81933594 113.58496094 C-77.76464844 111.46777344 -77.76464844 111.46777344 -79.94433594 108.70996094 C-81.03101562 107.35257813 -81.03101562 107.35257813 -82.13964844 105.96777344 C-83.81933594 103.58496094 -83.81933594 103.58496094 -83.81933594 101.58496094 C-84.47933594 101.58496094 -85.13933594 101.58496094 -85.81933594 101.58496094 C-89.14841799 98.58759075 -91.51126092 95.30622977 -92.30664062 90.86230469 C-92.4078746 87.91549386 -92.34503652 85.02941852 -92.19433594 82.08496094 C-92.15373047 80.56515625 -92.15373047 80.56515625 -92.11230469 79.01464844 C-92.04214901 76.53581462 -91.94393233 74.06155389 -91.81933594 71.58496094 C-92.47933594 71.58496094 -93.13933594 71.58496094 -93.81933594 71.58496094 C-93.81933594 70.92496094 -93.81933594 70.26496094 -93.81933594 69.58496094 C-94.43808594 69.46121094 -95.05683594 69.33746094 -95.69433594 69.20996094 C-97.81933594 68.58496094 -97.81933594 68.58496094 -99.81933594 66.58496094 C-96.81933594 64.58496094 -96.81933594 64.58496094 -94.38183594 64.77246094 C-91.5494906 65.67052165 -89.98311603 66.55270308 -87.81933594 68.58496094 C-87.28930664 70.89746094 -87.28930664 70.89746094 -87.24511719 73.58496094 C-87.21740234 74.55433594 -87.1896875 75.52371094 -87.16113281 76.52246094 C-87.15146484 77.53308594 -87.14179687 78.54371094 -87.13183594 79.58496094 C-87.0897425 81.58503719 -87.0443172 83.58504688 -86.99511719 85.58496094 C-86.97831909 86.91527344 -86.97831909 86.91527344 -86.96118164 88.27246094 C-86.90917678 90.74469296 -86.90917678 90.74469296 -85.81933594 93.58496094 C-85.15933594 93.58496094 -84.49933594 93.58496094 -83.81933594 93.58496094 C-83.81933594 94.24496094 -83.81933594 94.90496094 -83.81933594 95.58496094 C-83.15933594 95.58496094 -82.49933594 95.58496094 -81.81933594 95.58496094 C-80.31152344 97.26464844 -80.31152344 97.26464844 -78.69433594 99.45996094 C-78.15550781 100.17925781 -77.61667969 100.89855469 -77.06152344 101.63964844 C-75.81933594 103.58496094 -75.81933594 103.58496094 -75.81933594 105.58496094 C-75.15933594 105.58496094 -74.49933594 105.58496094 -73.81933594 105.58496094 C-72.31152344 107.26464844 -72.31152344 107.26464844 -70.69433594 109.45996094 C-70.15550781 110.17925781 -69.61667969 110.89855469 -69.06152344 111.63964844 C-67.81933594 113.58496094 -67.81933594 113.58496094 -67.81933594 115.58496094 C-67.15933594 115.58496094 -66.49933594 115.58496094 -65.81933594 115.58496094 C-64.31152344 117.33496094 -64.31152344 117.33496094 -62.69433594 119.58496094 C-62.15550781 120.32746094 -61.61667969 121.06996094 -61.06152344 121.83496094 C-60.65160156 122.41246094 -60.24167969 122.98996094 -59.81933594 123.58496094 C-54.62188437 122.09415586 -50.31931025 119.73823899 -45.69433594 117.02246094 C-44.29851595 116.20417747 -42.90015274 115.39021348 -41.49902344 114.58105469 C-40.88784668 114.22197021 -40.27666992 113.86288574 -39.64697266 113.49291992 C-37.72393854 112.53756808 -35.91461163 112.02915939 -33.81933594 111.58496094 C-33.81933594 110.92496094 -33.81933594 110.26496094 -33.81933594 109.58496094 C-32.05287024 108.57726573 -30.2809977 107.57904379 -28.50683594 106.58496094 C-27.52070313 106.02808594 -26.53457031 105.47121094 -25.51855469 104.89746094 C-22.81933594 103.58496094 -22.81933594 103.58496094 -19.81933594 103.58496094 C-19.81933594 102.92496094 -19.81933594 102.26496094 -19.81933594 101.58496094 C-18.90667969 101.09189453 -18.90667969 101.09189453 -17.97558594 100.58886719 C-16.08378725 99.56228819 -14.20193796 98.51728349 -12.32714844 97.45996094 C-9.74502608 96.0797619 -7.23620556 94.8731784 -4.56152344 93.70996094 C2.95127816 90.62330696 2.95127816 90.62330696 7.98828125 84.71289062 C8.92506975 80.31103725 8.6981628 76.04838754 8.18066406 71.58496094 C10.16066406 70.92496094 12.14066406 70.26496094 14.18066406 69.58496094 C14.18066406 65.62496094 14.18066406 61.66496094 14.18066406 57.58496094 C13.19066406 57.25496094 12.20066406 56.92496094 11.18066406 56.58496094 C9.21970601 54.62400288 9.99659985 50.83893251 9.96972656 48.15527344 C9.94165644 46.6227107 9.91299196 45.09015876 9.88378906 43.55761719 C9.84251308 41.13265296 9.80564156 38.70788986 9.77929688 36.28271484 C9.7517138 33.94814004 9.70584106 31.61449223 9.65722656 29.28027344 C9.65234726 28.19264206 9.65234726 28.19264206 9.64736938 27.08303833 C9.5647205 23.11888501 9.5647205 23.11888501 7.79003906 19.67260742 C5.79441241 18.32392467 3.78980213 17.42121029 1.55566406 16.52246094 C-2.70991345 14.80380592 -2.70991345 14.80380592 -3.81933594 12.58496094 C-5.02589844 12.36839844 -5.02589844 12.36839844 -6.25683594 12.14746094 C-8.81933594 11.58496094 -8.81933594 11.58496094 -10.81933594 8.58496094 C-11.64433594 8.41996094 -12.46933594 8.25496094 -13.31933594 8.08496094 C-14.14433594 7.91996094 -14.96933594 7.75496094 -15.81933594 7.58496094 C-16.80933594 6.09996094 -16.80933594 6.09996094 -17.81933594 4.58496094 C-19.80059444 3.8645033 -21.80437687 3.20494834 -23.81933594 2.58496094 C-25.83403692 1.61491972 -27.83855641 0.62251212 -29.81933594 -0.41503906 C-29.81933594 -1.07503906 -29.81933594 -1.73503906 -29.81933594 -2.41503906 C-30.80933594 -2.74503906 -31.79933594 -3.07503906 -32.81933594 -3.41503906 C-34.16179905 -4.06312471 -35.49366395 -4.7332649 -36.81933594 -5.41503906 C-37.85058594 -5.91003906 -38.88183594 -6.40503906 -39.94433594 -6.91503906 C-42.81933594 -8.41503906 -42.81933594 -8.41503906 -44.81933594 -10.41503906 C-45.80933594 -10.74503906 -46.79933594 -11.07503906 -47.81933594 -11.41503906 C-47.81933594 -12.07503906 -47.81933594 -12.73503906 -47.81933594 -13.41503906 C-49.13933594 -13.74503906 -50.45933594 -14.07503906 -51.81933594 -14.41503906 C-51.81933594 -15.07503906 -51.81933594 -15.73503906 -51.81933594 -16.41503906 C-52.80933594 -16.08503906 -53.79933594 -15.75503906 -54.81933594 -15.41503906 C-55.56183594 -15.62128906 -56.30433594 -15.82753906 -57.06933594 -16.04003906 C-61.98871824 -16.71086392 -65.82985097 -14.07469571 -69.81933594 -11.41503906 C-70.41746094 -10.94066406 -71.01558594 -10.46628906 -71.63183594 -9.97753906 C-74.85113285 -7.67804127 -78.37379299 -6.09529457 -81.94433594 -4.41503906 C-83.90618448 -3.45034335 -83.90618448 -3.45034335 -85.69433594 -1.85253906 C-88.35718828 -0.05119777 -90.65769318 0.22568335 -93.81933594 0.58496094 C-94.31433594 2.06996094 -94.31433594 2.06996094 -94.81933594 3.58496094 C-96.45967787 4.3140018 -98.13235511 4.97151337 -99.81933594 5.58496094 C-100.68558594 6.12121094 -101.55183594 6.65746094 -102.44433594 7.20996094 C-104.81933594 8.58496094 -104.81933594 8.58496094 -107.81933594 8.58496094 C-108.31433594 10.06996094 -108.31433594 10.06996094 -108.81933594 11.58496094 C-110.56933594 12.58496094 -110.56933594 12.58496094 -112.81933594 13.58496094 C-113.58246094 14.05933594 -114.34558594 14.53371094 -115.13183594 15.02246094 C-118.21758791 16.81650278 -121.53856091 18.1789145 -124.81933594 19.58496094 C-125.14933594 44.66496094 -125.47933594 69.74496094 -125.81933594 95.58496094 C-126.47933594 95.58496094 -127.13933594 95.58496094 -127.81933594 95.58496094 C-127.78904297 96.20838379 -127.75875 96.83180664 -127.72753906 97.47412109 C-127.1665268 109.18417322 -126.63642941 120.85862018 -126.81933594 132.58496094 C-125.82933594 132.58496094 -124.83933594 132.58496094 -123.81933594 132.58496094 C-123.48933594 134.56496094 -123.15933594 136.54496094 -122.81933594 138.58496094 C-122.48933594 138.58496094 -122.15933594 138.58496094 -121.81933594 138.58496094 C-121.32433594 145.01996094 -121.32433594 145.01996094 -120.81933594 151.58496094 C-119.16933594 151.91496094 -117.51933594 152.24496094 -115.81933594 152.58496094 C-114.82933594 153.57496094 -114.82933594 153.57496094 -113.81933594 154.58496094 C-112.99433594 154.91496094 -112.16933594 155.24496094 -111.31933594 155.58496094 C-108.41257585 156.74766497 -107.21834987 157.78693306 -105.81933594 160.58496094 C-104.49933594 160.58496094 -103.17933594 160.58496094 -101.81933594 160.58496094 C-100.82933594 161.57496094 -100.82933594 161.57496094 -99.81933594 162.58496094 C-98.49933594 162.58496094 -97.17933594 162.58496094 -95.81933594 162.58496094 C-95.48933594 161.59496094 -95.15933594 160.60496094 -94.81933594 159.58496094 C-93.82933594 159.58496094 -92.83933594 159.58496094 -91.81933594 159.58496094 C-91.48933594 158.92496094 -91.15933594 158.26496094 -90.81933594 157.58496094 C-89.82933594 157.25496094 -88.83933594 156.92496094 -87.81933594 156.58496094 C-87.81933594 157.57496094 -87.81933594 158.56496094 -87.81933594 159.58496094 C-86.82933594 159.25496094 -85.83933594 158.92496094 -84.81933594 158.58496094 C-84.40683594 159.05933594 -83.99433594 159.53371094 -83.56933594 160.02246094 C-81.60950152 161.77231309 -80.33425153 162.01707677 -77.81933594 162.58496094 C-77.15933594 163.24496094 -76.49933594 163.90496094 -75.81933594 164.58496094 C-74.49525925 165.26982819 -73.16024353 165.93366296 -71.81933594 166.58496094 C-66.96449723 169.29463836 -66.96449723 169.29463836 -65.81933594 171.58496094 C-64.70558594 171.89433594 -63.59183594 172.20371094 -62.44433594 172.52246094 C-59.00516307 173.53049436 -58.0397687 174.01393353 -55.81933594 176.58496094 C-55.15933594 176.58496094 -54.49933594 176.58496094 -53.81933594 176.58496094 C-53.81933594 177.24496094 -53.81933594 177.90496094 -53.81933594 178.58496094 C-81.78940592 179.70128302 -105.16089728 172.0452978 -126.31811523 153.40429688 C-129.3378039 150.75277047 -132.36813316 148.62599484 -135.81933594 146.58496094 C-136.52084746 145.26962683 -137.18459519 143.93378502 -137.81933594 142.58496094 C-139.08777344 141.37839844 -139.08777344 141.37839844 -140.38183594 140.14746094 C-142.93144067 137.46710724 -143.50996572 136.19428011 -143.81933594 132.58496094 C-144.80933594 132.25496094 -145.79933594 131.92496094 -146.81933594 131.58496094 C-150.62798259 125.57828936 -153.21756631 119.65575401 -153.81933594 112.58496094 C-154.47933594 111.59496094 -155.13933594 110.60496094 -155.81933594 109.58496094 C-156.19144014 108.26192377 -156.52563767 106.92758159 -156.81933594 105.58496094 C-157.14933594 104.59496094 -157.47933594 103.60496094 -157.81933594 102.58496094 C-158.14933594 102.58496094 -158.47933594 102.58496094 -158.81933594 102.58496094 C-158.87027326 96.32278946 -158.90516878 90.06067193 -158.92919922 83.79833984 C-158.93922299 81.67038984 -158.95284555 79.5424535 -158.97021484 77.41455078 C-158.99462286 74.34631976 -159.00585555 71.27827173 -159.01464844 68.20996094 C-159.02497101 67.26693115 -159.03529358 66.32390137 -159.04592896 65.35229492 C-159.04686971 59.74541582 -158.41278806 54.96630789 -156.81933594 49.58496094 C-156.15933594 49.58496094 -155.49933594 49.58496094 -154.81933594 49.58496094 C-154.69816406 48.88628906 -154.57699219 48.18761719 -154.45214844 47.46777344 C-154.28457031 46.55769531 -154.11699219 45.64761719 -153.94433594 44.70996094 C-153.78191406 43.80503906 -153.61949219 42.90011719 -153.45214844 41.96777344 C-152.81933594 39.58496094 -152.81933594 39.58496094 -150.81933594 37.58496094 C-149.71378412 35.63398714 -148.89319267 33.94732054 -148.44433594 31.74511719 C-147.67559861 29.08816878 -146.42875814 27.18569548 -144.88183594 24.89746094 C-144.3571875 24.10984375 -143.83253906 23.32222656 -143.29199219 22.51074219 C-141.81933594 20.58496094 -141.81933594 20.58496094 -139.81933594 19.58496094 C-139.48933594 18.59496094 -139.15933594 17.60496094 -138.81933594 16.58496094 C-138.25988281 16.318125 -137.70042969 16.05128906 -137.12402344 15.77636719 C-133.75454168 14.03451645 -131.50732154 11.25605376 -128.94433594 8.52246094 C-95.59880991 -25.77011212 -37.69548479 -29.31871039 0 0 Z M34.18066406 46.58496094 C35.18066406 48.58496094 35.18066406 48.58496094 35.18066406 48.58496094 Z M35.18066406 49.58496094 C36.18066406 51.58496094 36.18066406 51.58496094 36.18066406 51.58496094 Z M36.18066406 52.58496094 C37.18066406 55.58496094 37.18066406 55.58496094 37.18066406 55.58496094 Z M-156.81933594 53.58496094 C-155.81933594 56.58496094 -155.81933594 56.58496094 -155.81933594 56.58496094 Z M37.18066406 56.58496094 C38.18066406 59.58496094 38.18066406 59.58496094 38.18066406 59.58496094 Z M-157.81933594 57.58496094 C-156.81933594 61.58496094 -156.81933594 61.58496094 -156.81933594 61.58496094 Z M38.18066406 60.58496094 C38.18066406 62.23496094 38.18066406 63.88496094 38.18066406 65.58496094 C38.51066406 65.58496094 38.84066406 65.58496094 39.18066406 65.58496094 C39.18066406 63.93496094 39.18066406 62.28496094 39.18066406 60.58496094 C38.85066406 60.58496094 38.52066406 60.58496094 38.18066406 60.58496094 Z M38.18066406 93.58496094 C38.18066406 95.23496094 38.18066406 96.88496094 38.18066406 98.58496094 C38.51066406 98.58496094 38.84066406 98.58496094 39.18066406 98.58496094 C39.18066406 96.93496094 39.18066406 95.28496094 39.18066406 93.58496094 C38.85066406 93.58496094 38.52066406 93.58496094 38.18066406 93.58496094 Z " fill="#FDFCFC" transform="translate(158.8193359375,19.4150390625)"/>
<path d="M0 0 C6.625 -0.125 6.625 -0.125 10 1 C10.495 1.99 10.495 1.99 11 3 C11.99 3.33 12.98 3.66 14 4 C14.495 4.99 14.495 4.99 15 6 C16.175625 6.2165625 16.175625 6.2165625 17.375 6.4375 C20.41500438 7.08892951 20.86564696 7.86564696 23 10 C24.7634375 10.7115625 24.7634375 10.7115625 26.5625 11.4375 C30.37911111 13.17232323 30.28687474 13.57374949 32 17 C35.02934491 17.65772428 35.02934491 17.65772428 38 18 C38.495 18.99 38.495 18.99 39 20 C39.94875 20.309375 40.8975 20.61875 41.875 20.9375 C44.97430013 21.99126204 45.83823168 22.73996948 48 25 C49.32594105 25.36162029 50.65938457 25.69728039 52 26 C52.99 26.99 52.99 26.99 54 28 C54.825 28.33 55.65 28.66 56.5 29 C59 30 59 30 61 32 C62.97999626 33.03834199 64.99770336 33.96529482 67.02734375 34.90234375 C69.28689856 36.15964058 70.46533703 36.89379997 72 39 C72.26154123 41.65834628 72.34939122 44.07685104 72.29296875 46.73046875 C72.28872391 47.48088943 72.28447906 48.23131012 72.28010559 49.00447083 C72.2633245 51.39918026 72.2256749 53.79304534 72.1875 56.1875 C72.17245235 57.8118368 72.15876409 59.4361868 72.14648438 61.06054688 C72.11342305 65.04068948 72.06164594 69.02020163 72 73 C73.32 73.66 74.64 74.32 76 75 C76 78.96 76 82.92 76 87 C74.68 87.33 73.36 87.66 72 88 C72 93.28 72 98.56 72 104 C69.525 104.99 69.525 104.99 67 106 C64.7054437 107.24185664 62.44256717 108.50344161 60.1875 109.8125 C59.26263794 110.34327148 59.26263794 110.34327148 58.3190918 110.88476562 C54.92685 112.84229104 51.59899256 114.86805594 48.3125 117 C45 119 45 119 42 119 C42 119.66 42 120.32 42 121 C40.2335343 122.0076952 38.46166177 123.00591714 36.6875 124 C35.70136719 124.556875 34.71523437 125.11375 33.69921875 125.6875 C31 127 31 127 28 127 C28 127.66 28 128.32 28 129 C19.77508585 133.58245217 11.43284179 137.78357911 3 142 C3 120.55 3 99.1 3 77 C1.35 76.34 -0.3 75.68 -2 75 C-3.19018187 74.39760539 -4.36850828 73.77097941 -5.53125 73.1171875 C-6.17102783 72.75818359 -6.81080566 72.39917969 -7.4699707 72.02929688 C-8.13988037 71.64837891 -8.80979004 71.26746094 -9.5 70.875 C-10.19762451 70.48119141 -10.89524902 70.08738281 -11.61401367 69.68164062 C-17.31152589 66.4433138 -22.88739087 63.03356964 -28.42578125 59.53125 C-30.97938073 57.8884191 -30.97938073 57.8884191 -34 57 C-34 56.34 -34 55.68 -34 55 C-34.56589844 54.89042969 -35.13179687 54.78085937 -35.71484375 54.66796875 C-38.33254327 53.90279504 -40.25336344 52.76189214 -42.5625 51.3125 C-47.11480336 48.51108255 -51.74687081 45.92006779 -56.45703125 43.39453125 C-59.01296277 41.99289138 -61.51012637 40.5153809 -64 39 C-63.375 37.0625 -63.375 37.0625 -62 35 C-58.9375 34.375 -58.9375 34.375 -56 34 C-55.67 33.34 -55.34 32.68 -55 32 C-52 30 -52 30 -50.1875 29.125 C-47.7927986 27.94756907 -47.7927986 27.94756907 -44.9375 25.9375 C-42 24 -42 24 -39 23 C-38.34 22.34 -37.68 21.68 -37 21 C-36.0409375 20.7834375 -36.0409375 20.7834375 -35.0625 20.5625 C-32.92506235 20.16279559 -32.92506235 20.16279559 -31.5625 18.5625 C-29.59429827 16.59429827 -27.56721583 16.02688633 -25 15 C-24.484375 14.484375 -23.96875 13.96875 -23.4375 13.4375 C-21.66407647 11.66407647 -20.44126145 11.44386572 -18 11 C-15.85744207 10.61067144 -15.85744207 10.61067144 -14 10 C-13.67 9.34 -13.34 8.68 -13 8 C-9.21206976 4.77324461 -5.0592508 2 0 2 C0 1.34 0 0.68 0 0 Z " fill="#F17069" transform="translate(97,2)"/>
<path d="M0 0 C4.13391602 1.65356641 7.80997424 3.51568101 11.625 5.75 C12.85886243 6.46442765 14.09324488 7.17795787 15.328125 7.890625 C16.24754883 8.42139648 16.24754883 8.42139648 17.18554688 8.96289062 C21.41666415 11.38132257 25.7098009 13.68854579 30 16 C30 16.66 30 17.32 30 18 C30.51175781 18.08378906 31.02351563 18.16757812 31.55078125 18.25390625 C35.03591988 19.3155673 38.04703483 21.13010494 41.1875 22.9375 C42.09145508 23.44893555 42.09145508 23.44893555 43.01367188 23.97070312 C44.41869234 24.77018349 45.80083568 25.61042069 47.16577148 26.4765625 C49.60383917 27.78705801 51.68948453 28.5609164 54.30493164 29.3828125 C59.50053256 31.2866774 63.81989902 33.31726586 67 38 C69.75018236 47.87760989 68.67630301 58.68526848 68.16729736 68.81817627 C67.99224451 72.67148012 67.91551811 76.5266653 67.83007812 80.3828125 C67.64862775 87.92704792 67.35924629 95.46191357 67 103 C61.47321429 97.61607143 61.47321429 97.61607143 60 94 C59.34 94 58.68 94 58 94 C56.4921875 92.3203125 56.4921875 92.3203125 54.875 90.125 C54.33617187 89.40570313 53.79734375 88.68640625 53.2421875 87.9453125 C52 86 52 86 52 84 C51.34 84 50.68 84 50 84 C48.4921875 82.3203125 48.4921875 82.3203125 46.875 80.125 C46.33617187 79.40570313 45.79734375 78.68640625 45.2421875 77.9453125 C44 76 44 76 44 74 C43.34 74 42.68 74 42 74 C42 73.34 42 72.68 42 72 C41.34 72 40.68 72 40 72 C37.8209949 68.73149235 37.76000086 67.78211276 37.76171875 64 C37.74560547 63.030625 37.72949219 62.06125 37.71289062 61.0625 C37.69596407 59.02089686 37.69075522 56.97916293 37.69726562 54.9375 C37.64102143 52.20874931 37.54737092 49.67452878 37 47 C34.81411363 44.63601814 34.81411363 44.63601814 32 44 C29.25760857 44.21329449 29.25760857 44.21329449 27 45 C28.2375 45.680625 28.2375 45.680625 29.5 46.375 C30.325 46.91125 31.15 47.4475 32 48 C32 48.66 32 49.32 32 50 C32.66 50 33.32 50 34 50 C34.00410889 50.63502441 34.00821777 51.27004883 34.01245117 51.92431641 C34.04552098 54.82546477 34.11617746 57.72455014 34.1875 60.625 C34.19330078 61.62402344 34.19910156 62.62304688 34.20507812 63.65234375 C34.40293926 70.29168398 35.25939245 73.32743945 40 78 C40 78.66 40 79.32 40 80 C40.66 80 41.32 80 42 80 C43.9453125 82.1171875 43.9453125 82.1171875 46.125 84.875 C46.84945312 85.77992187 47.57390625 86.68484375 48.3203125 87.6171875 C50 90 50 90 50 92 C50.66 92 51.32 92 52 92 C53.5078125 93.6796875 53.5078125 93.6796875 55.125 95.875 C55.66382813 96.59429687 56.20265625 97.31359375 56.7578125 98.0546875 C58 100 58 100 58 102 C58.66 102 59.32 102 60 102 C62.125 103.875 62.125 103.875 64 106 C64 106.66 64 107.32 64 108 C65.485 108.495 65.485 108.495 67 109 C67.495 113.455 67.495 113.455 68 118 C63.49380023 116.43225369 59.81418636 114.06224207 55.875 111.4375 C51.17686034 108.26507011 51.17686034 108.26507011 46 106 C46 105.34 46 104.68 46 104 C45.22269531 103.87044922 45.22269531 103.87044922 44.4296875 103.73828125 C41.05225963 102.71202101 38.15378638 100.95911496 35.125 99.1875 C34.52558594 98.84396484 33.92617187 98.50042969 33.30859375 98.14648438 C31.52697981 97.1165492 29.76093947 96.06485743 28 95 C27.41621582 94.65114746 26.83243164 94.30229492 26.23095703 93.94287109 C24.77403616 93.03256455 23.3803422 92.02270808 22 91 C21.625 88.25 21.625 88.25 22 86 C20.02 85.34 18.04 84.68 16 84 C16 83.34 16 82.68 16 82 C13.03 82.495 13.03 82.495 10 83 C10 82.01 10 81.02 10 80 C9.34 80 8.68 80 8 80 C8 79.34 8 78.68 8 78 C7.195625 77.814375 7.195625 77.814375 6.375 77.625 C3.5361714 76.87793984 0.77776798 75.94696636 -2 75 C-1.01 74.505 -1.01 74.505 0 74 C0 49.58 0 25.16 0 0 Z " fill="#A24741" transform="translate(33,41)"/>
<path d="M0 0 C0 8.58 0 17.16 0 26 C-7.02702703 29.51351351 -7.02702703 29.51351351 -12 28 C-12.598125 27.4225 -13.19625 26.845 -13.8125 26.25 C-16.1652616 24.57901996 -16.1652616 24.57901996 -19.875 25.875 C-29.43584026 29.56680961 -38.50858146 34.02707625 -46.328125 40.71484375 C-48 42 -48 42 -50 42 C-50 42.66 -50 43.32 -50 44 C-50.66 44 -51.32 44 -52 44 C-52 44.66 -52 45.32 -52 46 C-50.02 46.66 -48.04 47.32 -46 48 C-46 48.66 -46 49.32 -46 50 C-45.44183594 50.09925781 -44.88367188 50.19851562 -44.30859375 50.30078125 C-40.61719003 51.41882062 -37.69696142 53.75308515 -34.53515625 55.91796875 C-32.02169711 57.3069227 -32.02169711 57.3069227 -29.37109375 56.23828125 C-28.58863281 55.82964844 -27.80617187 55.42101562 -27 55 C-26.01 54.67 -25.02 54.34 -24 54 C-24 53.34 -24 52.68 -24 52 C-18.58823529 48 -18.58823529 48 -16 48 C-16 47.34 -16 46.68 -16 46 C-14.12762629 45.03654556 -12.2519701 44.07946898 -10.375 43.125 C-9.33085937 42.59132812 -8.28671875 42.05765625 -7.2109375 41.5078125 C-2.63662768 39.35977893 0.91696524 38 6 38 C6 41.3 6 44.6 6 48 C4.68 48.33 3.36 48.66 2 49 C2 54.28 2 59.56 2 65 C0.35 65.66 -1.3 66.32 -3 67 C-5.2945563 68.24185664 -7.55743283 69.50344161 -9.8125 70.8125 C-10.73736206 71.34327148 -10.73736206 71.34327148 -11.6809082 71.88476562 C-15.07315 73.84229104 -18.40100744 75.86805594 -21.6875 78 C-25 80 -25 80 -28 80 C-28 80.66 -28 81.32 -28 82 C-29.7664657 83.0076952 -31.53833823 84.00591714 -33.3125 85 C-34.29863281 85.556875 -35.28476563 86.11375 -36.30078125 86.6875 C-39 88 -39 88 -42 88 C-42 88.66 -42 89.32 -42 90 C-48.06524043 93.37920539 -54.18059706 96.62712535 -60.3984375 99.71484375 C-61.35689575 100.19238098 -61.35689575 100.19238098 -62.3347168 100.67956543 C-63.88934869 101.4539728 -65.44460806 102.22712031 -67 103 C-67.1390481 94.59426368 -67.24564303 86.18900807 -67.31087303 77.78240585 C-67.34218138 73.87877523 -67.38464173 69.97593156 -67.45263672 66.07275391 C-67.51785217 62.30553719 -67.55370979 58.53907705 -67.56926346 54.77133942 C-67.58034637 53.33432349 -67.60199011 51.89734881 -67.63438034 50.46065521 C-67.6779531 48.44781415 -67.68045106 46.43421094 -67.68115234 44.42089844 C-67.69447601 43.27506287 -67.70779968 42.12922729 -67.7215271 40.94866943 C-67 38 -67 38 -64.14492798 35.59869385 C-61 34 -61 34 -58 34 C-58 33.34 -58 32.68 -58 32 C-56.2335343 30.9923048 -54.46166177 29.99408286 -52.6875 29 C-51.70136719 28.443125 -50.71523437 27.88625 -49.69921875 27.3125 C-47 26 -47 26 -44 26 C-44 25.34 -44 24.68 -44 24 C-43.32195312 23.63648437 -42.64390625 23.27296875 -41.9453125 22.8984375 C-37.23818063 20.35580394 -32.57241547 17.7787348 -28 15 C-23.65793319 12.36178219 -19.22807582 9.92917875 -14.75390625 7.5234375 C-11.09475 5.49922341 -7.54327294 3.31500231 -3.99609375 1.1015625 C-2 0 -2 0 0 0 Z " fill="#DB5B54" transform="translate(167,41)"/>
<path d="M0 0 C6.74423077 2.24807692 6.74423077 2.24807692 9.76171875 4.12890625 C10.40560547 4.52400391 11.04949219 4.91910156 11.71289062 5.32617188 C12.36451172 5.73416016 13.01613281 6.14214844 13.6875 6.5625 C18.63489885 9.69681319 18.63489885 9.69681319 24 12 C24 12.66 24 13.32 24 14 C24.598125 14.12375 25.19625 14.2475 25.8125 14.375 C28 15 28 15 31 17 C29.02 17.99 29.02 17.99 27 19 C28.2375 19.680625 28.2375 19.680625 29.5 20.375 C30.325 20.91125 31.15 21.4475 32 22 C32 22.66 32 23.32 32 24 C32.66 24 33.32 24 34 24 C34.00410889 24.63502441 34.00821777 25.27004883 34.01245117 25.92431641 C34.04552098 28.82546477 34.11617746 31.72455014 34.1875 34.625 C34.19330078 35.62402344 34.19910156 36.62304688 34.20507812 37.65234375 C34.40293926 44.29168398 35.25939245 47.32743945 40 52 C40 52.66 40 53.32 40 54 C40.66 54 41.32 54 42 54 C43.9453125 56.1171875 43.9453125 56.1171875 46.125 58.875 C46.84945312 59.77992187 47.57390625 60.68484375 48.3203125 61.6171875 C50 64 50 64 50 66 C50.66 66 51.32 66 52 66 C53.5078125 67.6796875 53.5078125 67.6796875 55.125 69.875 C55.66382813 70.59429687 56.20265625 71.31359375 56.7578125 72.0546875 C58 74 58 74 58 76 C58.66 76 59.32 76 60 76 C62.125 77.875 62.125 77.875 64 80 C64 80.66 64 81.32 64 82 C65.485 82.495 65.485 82.495 67 83 C67.495 87.455 67.495 87.455 68 92 C63.49380023 90.43225369 59.81418636 88.06224207 55.875 85.4375 C51.17686034 82.26507011 51.17686034 82.26507011 46 80 C46 79.34 46 78.68 46 78 C45.22269531 77.87044922 45.22269531 77.87044922 44.4296875 77.73828125 C41.05225963 76.71202101 38.15378638 74.95911496 35.125 73.1875 C34.52558594 72.84396484 33.92617187 72.50042969 33.30859375 72.14648438 C31.52697981 71.1165492 29.76093947 70.06485743 28 69 C27.41621582 68.65114746 26.83243164 68.30229492 26.23095703 67.94287109 C24.77403616 67.03256455 23.3803422 66.02270808 22 65 C21.625 62.25 21.625 62.25 22 60 C20.02 59.34 18.04 58.68 16 58 C16 57.34 16 56.68 16 56 C13.03 56.495 13.03 56.495 10 57 C10 56.01 10 55.02 10 54 C9.34 54 8.68 54 8 54 C8 53.34 8 52.68 8 52 C7.195625 51.814375 7.195625 51.814375 6.375 51.625 C3.5361714 50.87793984 0.77776798 49.94696636 -2 49 C-1.01 48.505 -1.01 48.505 0 48 C0 32.16 0 16.32 0 0 Z " fill="#886A59" transform="translate(33,67)"/>
<path d="M0 0 C1 1 1 1 1.11352539 2.94946289 C1.10567017 4.1984436 1.10567017 4.1984436 1.09765625 5.47265625 C1.09282227 6.82133789 1.09282227 6.82133789 1.08789062 8.19726562 C1.07532227 9.61555664 1.07532227 9.61555664 1.0625 11.0625 C1.05798828 12.01189453 1.05347656 12.96128906 1.04882812 13.93945312 C1.0370011 16.29303065 1.02052025 18.64648477 1 21 C0.18160645 21.40484619 0.18160645 21.40484619 -0.65332031 21.81787109 C-1.72984863 22.35275146 -1.72984863 22.35275146 -2.828125 22.8984375 C-3.5387207 23.25083496 -4.24931641 23.60323242 -4.98144531 23.96630859 C-7.39203436 25.20075877 -9.68971651 26.58816009 -12 28 C-13.32520503 28.68268138 -14.65812182 29.3507041 -16 30 C-16.66 30.33 -17.32 30.66 -18 31 C-19.34189957 31.67094978 -20.69668689 32.31667586 -22.0625 32.9375 C-24.07417692 33.91518787 -24.07417692 33.91518787 -25.5625 35.625 C-27 37 -27 37 -30 37 C-32.18777466 38.9375006 -32.18777466 38.9375006 -34 41 C-34.99 40.505 -34.99 40.505 -36 40 C-36.33 40.99 -36.66 41.98 -37 43 C-38.890625 44.31640625 -38.890625 44.31640625 -41.25 45.5625 C-42.06210938 45.99433594 -42.87421875 46.42617187 -43.7109375 46.87109375 C-46 48 -46 48 -48.875 49.125 C-51.18992924 50.07820616 -52.290522 51.21281845 -54 53 C-58.08547126 54.36182375 -61.8157463 54.91518385 -65.90771484 53.20068359 C-67.88906061 52.10072119 -69.78827134 50.92362763 -71.6875 49.6875 C-72.33783203 49.28337891 -72.98816406 48.87925781 -73.65820312 48.46289062 C-76.28852746 46.81391054 -78.83250023 45.12569544 -81.31640625 43.26171875 C-82.99516799 41.88579661 -82.99516799 41.88579661 -85.25 41.125 C-88.52423446 39.78554045 -91.28699895 37.97074257 -94.23046875 36.0234375 C-95.94785169 34.83311347 -95.94785169 34.83311347 -98 35 C-98.33 33.68 -98.66 32.36 -99 31 C-97.4493684 29.96122737 -95.88390319 28.94457445 -94.3125 27.9375 C-93.44238281 27.36902344 -92.57226562 26.80054688 -91.67578125 26.21484375 C-88.40311946 24.72900752 -87.35639049 24.78908666 -84 26 C-80.95997337 27.67845686 -78.02004191 29.4428503 -75.08398438 31.29296875 C-71.66975332 33.44085999 -71.66975332 33.44085999 -67.76953125 33.80859375 C-67.18558594 33.54175781 -66.60164063 33.27492187 -66 33 C-64.9275 32.649375 -63.855 32.29875 -62.75 31.9375 C-61.8425 31.628125 -60.935 31.31875 -60 31 C-60 30.34 -60 29.68 -60 29 C-59.15179688 28.59910156 -58.30359375 28.19820312 -57.4296875 27.78515625 C-50.97580262 24.65750435 -44.80490122 21.38455061 -38.8125 17.4375 C-22.96567144 7 -22.96567144 7 -18 7 C-18 6.34 -18 5.68 -18 5 C-6.55783157 -2.13842334 -6.55783157 -2.13842334 0 0 Z " fill="#3D1B27" transform="translate(169,144)"/>
<path d="M0 0 C0.66019292 5.18151416 0.93889138 9.83609739 0 15 C-3.09286581 18.51462024 -6.77494824 20.1036759 -11 22 C-13.00696212 23.09146098 -15.00734891 24.19512556 -17 25.3125 C-17.886875 25.78300781 -18.77375 26.25351563 -19.6875 26.73828125 C-22.16220242 28.04427468 -22.16220242 28.04427468 -25 30 C-25.99 30 -26.98 30 -28 30 C-28 30.66 -28 31.32 -28 32 C-29.7664657 33.0076952 -31.53833823 34.00591714 -33.3125 35 C-34.29863281 35.556875 -35.28476563 36.11375 -36.30078125 36.6875 C-39 38 -39 38 -42 38 C-42 38.66 -42 39.32 -42 40 C-48.06524043 43.37920539 -54.18059706 46.62712535 -60.3984375 49.71484375 C-61.35689575 50.19238098 -61.35689575 50.19238098 -62.3347168 50.67956543 C-63.88934869 51.4539728 -65.44460806 52.22712031 -67 53 C-67.12366591 47.51912668 -67.21436943 42.03906643 -67.2746582 36.55712891 C-67.29979147 34.69272719 -67.33390383 32.8284239 -67.37719727 30.96435547 C-67.43790352 28.28328169 -67.46622058 25.60351098 -67.48828125 22.921875 C-67.51408768 22.08944275 -67.5398941 21.2570105 -67.56648254 20.39935303 C-67.5692949 14.58700398 -67.5692949 14.58700398 -64.59838867 11.52368164 C-63.74092041 11.0208667 -62.88345215 10.51805176 -62 10 C-60.9790625 9.35611328 -60.9790625 9.35611328 -59.9375 8.69921875 C-59.298125 8.36535156 -58.65875 8.03148438 -58 7.6875 C-57.360625 7.34074219 -56.72125 6.99398437 -56.0625 6.63671875 C-52.74528178 5.61265328 -50.36987511 6.32758344 -47.29052734 7.83911133 C-45.39804288 8.87568695 -43.54076166 9.95741401 -41.6875 11.0625 C-40.71973633 11.62807617 -40.71973633 11.62807617 -39.73242188 12.20507812 C-38.15121848 13.13037493 -36.5750854 14.06432681 -35 15 C-36.62339805 16.70884005 -38.29319053 18.37446717 -40 20 C-40.66 20 -41.32 20 -42 20 C-42 23.3 -42 26.6 -42 30 C-41.05125 29.34 -40.1025 28.68 -39.125 28 C-36 26 -36 26 -34 26 C-34 22.7 -34 19.4 -34 16 C-33.236875 16.226875 -32.47375 16.45375 -31.6875 16.6875 C-30.800625 16.790625 -29.91375 16.89375 -29 17 C-27.2912354 15.62485459 -27.2912354 15.62485459 -26 14 C-25.34 14 -24.68 14 -24 14 C-24 13.34 -24 12.68 -24 12 C-18.58823529 8 -18.58823529 8 -16 8 C-15.505 10.97 -15.505 10.97 -15 14 C-11.23565872 12.37312592 -11.23565872 12.37312592 -8 10 C-7.20769179 7.3093426 -7.18228407 4.82540309 -7 2 C-4 0 -4 0 0 0 Z " fill="#BD967F" transform="translate(167,91)"/>
<path d="M0 0 C0.08086147 1.79093191 0.13912702 3.58289628 0.1875 5.375 C0.23970703 6.87160156 0.23970703 6.87160156 0.29296875 8.3984375 C0.19628906 9.25695312 0.09960938 10.11546875 0 11 C-0.99 11.66 -1.98 12.32 -3 13 C-3.66 13.99 -4.32 14.98 -5 16 C-6.485 16.495 -6.485 16.495 -8 17 C-9.00916033 18.76591887 -9.00916033 18.76591887 -10 21 C-13.55737705 26.85245902 -13.55737705 26.85245902 -17 28 C-18.01187895 29.65948148 -19.0126546 31.32580562 -20 33 C-20.66 33 -21.32 33 -22 33 C-22.66 34.32 -23.32 35.64 -24 37 C-24.99 36.34 -25.98 35.68 -27 35 C-27.226875 35.66 -27.45375 36.32 -27.6875 37 C-29.40571358 40.92734533 -31.66774607 44.41260178 -34 48 C-37.71888239 47.49287967 -40.73454239 46.88391785 -44 45 C-44.33 46.32 -44.66 47.64 -45 49 C-51.75 49.125 -51.75 49.125 -54 48 C-54 48.66 -54 49.32 -54 50 C-55.03640625 49.91621094 -56.0728125 49.83242187 -57.140625 49.74609375 C-58.51039132 49.64289218 -59.88018447 49.54004626 -61.25 49.4375 C-61.93191406 49.38142578 -62.61382812 49.32535156 -63.31640625 49.26757812 C-66.90767589 49.00607791 -69.45895426 49.11473856 -73 50 C-73.33 47.03 -73.66 44.06 -74 41 C-72.68 40.360625 -71.36 39.72125 -70 39.0625 C-58.8366982 33.47295426 -48.0683244 27.18826903 -37.57421875 20.43359375 C-35 19 -35 19 -32 19 C-32 18.34 -32 17.68 -32 17 C-31.3915625 16.67128906 -30.783125 16.34257813 -30.15625 16.00390625 C-24.24590421 12.79667449 -18.36406784 9.54088185 -12.5 6.25 C-11.80583984 5.86142822 -11.11167969 5.47285645 -10.39648438 5.07250977 C-1.37770583 0 -1.37770583 0 0 0 Z " fill="#D5D5D5" transform="translate(173,108)"/>
<path d="M0 0 C0.99 0.495 0.99 0.495 2 1 C2.05392397 3.77109307 2.09363455 6.54113818 2.125 9.3125 C2.14175781 10.09818359 2.15851563 10.88386719 2.17578125 11.69335938 C2.18222656 12.45068359 2.18867188 13.20800781 2.1953125 13.98828125 C2.20578613 14.68477783 2.21625977 15.38127441 2.22705078 16.09887695 C2 18 2 18 0 21 C-1.051875 20.938125 -1.051875 20.938125 -2.125 20.875 C-5.97599486 21.04243456 -8.03077633 22.73361767 -11.1328125 24.90625 C-13 26 -13 26 -16 26 C-16 26.66 -16 27.32 -16 28 C-17.2375 28.58394531 -17.2375 28.58394531 -18.5 29.1796875 C-26.80023017 33.20011149 -34.56507701 37.74082636 -42.34375 42.6875 C-53.84496359 50 -53.84496359 50 -58 50 C-58 50.66 -58 51.32 -58 52 C-64.2501083 56.04418773 -64.2501083 56.04418773 -67.25390625 55.8671875 C-73.54411316 53.88080637 -80.14885116 50.52027645 -85 46 C-86.4904875 42.49468413 -86.61604006 39.73523025 -86 36 C-82.10840997 33.40560664 -78.66429173 31.63244634 -74 31 C-71.05188829 32.31371996 -68.54671968 34.02877282 -66 36 C-66 35.34 -66 34.68 -66 34 C-62.10939581 32.5950596 -58.76907638 33.30486761 -54.75 33.9375 C-53.48671875 34.13214844 -52.2234375 34.32679688 -50.921875 34.52734375 C-49.47554687 34.76130859 -49.47554687 34.76130859 -48 35 C-48 34.34 -48 33.68 -48 33 C-45.03 33.33 -42.06 33.66 -39 34 C-38.67 32.68 -38.34 31.36 -38 30 C-34.7 30.99 -31.4 31.98 -28 33 C-27.773125 32.34 -27.54625 31.68 -27.3125 31 C-26.19601924 28.44804398 -25.0152121 26.09577512 -23.625 23.6875 C-23.22539062 22.99011719 -22.82578125 22.29273438 -22.4140625 21.57421875 C-21.94742188 21.05472656 -21.48078125 20.53523438 -21 20 C-19.68 20 -18.36 20 -17 20 C-16.67 19.34 -16.34 18.68 -16 18 C-15.34 18 -14.68 18 -14 18 C-13.62875 16.7934375 -13.62875 16.7934375 -13.25 15.5625 C-12.8375 14.716875 -12.425 13.87125 -12 13 C-10.67696283 12.6278958 -9.34262065 12.29369827 -8 12 C-6.91568906 10.25132517 -6.91568906 10.25132517 -6 8 C-4 4.75 -4 4.75 -2 2 C-1.34 2 -0.68 2 0 2 C0 1.34 0 0.68 0 0 Z " fill="#C45564" transform="translate(167,123)"/>
<path d="M0 0 C1.98 0.66 3.96 1.32 6 2 C6 2.66 6 3.32 6 4 C6.66 4 7.32 4 8 4 C8.00410889 4.63502441 8.00821777 5.27004883 8.01245117 5.92431641 C8.04552098 8.82546477 8.11617746 11.72455014 8.1875 14.625 C8.19330078 15.62402344 8.19910156 16.62304688 8.20507812 17.65234375 C8.40293926 24.29168398 9.25939245 27.32743945 14 32 C14 32.66 14 33.32 14 34 C14.66 34 15.32 34 16 34 C17.9453125 36.1171875 17.9453125 36.1171875 20.125 38.875 C20.84945312 39.77992187 21.57390625 40.68484375 22.3203125 41.6171875 C24 44 24 44 24 46 C24.66 46 25.32 46 26 46 C27.5078125 47.6796875 27.5078125 47.6796875 29.125 49.875 C29.66382813 50.59429687 30.20265625 51.31359375 30.7578125 52.0546875 C32 54 32 54 32 56 C32.66 56 33.32 56 34 56 C36.125 57.875 36.125 57.875 38 60 C38 60.66 38 61.32 38 62 C38.99 62.33 39.98 62.66 41 63 C41.495 67.455 41.495 67.455 42 72 C37.49380023 70.43225369 33.81418636 68.06224207 29.875 65.4375 C25.17686034 62.26507011 25.17686034 62.26507011 20 60 C20 59.34 20 58.68 20 58 C19.48179688 57.91363281 18.96359375 57.82726562 18.4296875 57.73828125 C15.05225963 56.71202101 12.15378638 54.95911496 9.125 53.1875 C8.22587891 52.67219727 8.22587891 52.67219727 7.30859375 52.14648438 C6.11297463 51.45530759 4.92361151 50.75318837 3.7409668 50.04003906 C2.04670995 49.02790413 0.31839378 48.07347927 -1.41015625 47.12109375 C-4 45 -4 45 -4.69140625 42.1171875 C-4.64886719 41.04726562 -4.60632812 39.97734375 -4.5625 38.875 C-4.54316406 37.82054687 -4.52382813 36.76609375 -4.50390625 35.6796875 C-4.08493647 32.62023376 -3.46470769 30.19846541 -2.5078125 27.296875 C-0.72608657 21.65661052 -0.449946 16.257689 -0.3125 10.375 C-0.27833984 9.37082031 -0.24417969 8.36664063 -0.20898438 7.33203125 C-0.12752109 4.88813282 -0.05805078 2.44454719 0 0 Z " fill="#898989" transform="translate(59,87)"/>
<path d="M0 0 C4.9236197 0 6.23806853 0.20542234 10 3 C10 3.66 10 4.32 10 5 C10.66 5 11.32 5 12 5 C12 5.99 12 6.98 12 8 C13.98 7.67 15.96 7.34 18 7 C18 7.66 18 8.32 18 9 C18.61875 9.144375 19.2375 9.28875 19.875 9.4375 C22 10 22 10 24 11 C24.103125 11.78117187 24.20625 12.56234375 24.3125 13.3671875 C24.75642192 16.18138529 24.75642192 16.18138529 27.25 17.6953125 C28.1575 18.16710937 29.065 18.63890625 30 19.125 C34.90011481 21.70034443 34.90011481 21.70034443 36 25 C33.69 25.99 31.38 26.98 29 28 C29.33 29.98 29.66 31.96 30 34 C29.34 34 28.68 34 28 34 C26.59545898 32.02807617 26.59545898 32.02807617 24.99609375 29.29296875 C24.42052734 28.31392578 23.84496094 27.33488281 23.25195312 26.32617188 C22.65318359 25.29041016 22.05441406 24.25464844 21.4375 23.1875 C20.83486328 22.16333984 20.23222656 21.13917969 19.61132812 20.08398438 C15.1485668 12.4457004 15.1485668 12.4457004 14 9 C13.34 9 12.68 9 12 9 C12.66 10.98 13.32 12.96 14 15 C13.01 15.66 12.02 16.32 11 17 C11.33 18.98 11.66 20.96 12 23 C12.66 23 13.32 23 14 23 C14.47179687 24.15628906 14.47179687 24.15628906 14.953125 25.3359375 C15.38109375 26.33882812 15.8090625 27.34171875 16.25 28.375 C16.66765625 29.37273437 17.0853125 30.37046875 17.515625 31.3984375 C19.10395374 34.18219261 20.03323813 34.94768703 23 36 C22.67 37.32 22.34 38.64 22 40 C25.465 39.505 25.465 39.505 29 39 C32 42.75 32 42.75 32 45 C32.66 45 33.32 45 34 45 C33.505 44.05125 33.01 43.1025 32.5 42.125 C31 39 31 39 31 37 C31.99 37.33 32.98 37.66 34 38 C34 38.99 34 39.98 34 41 C34.66 41 35.32 41 36 41 C36 41.66 36 42.32 36 43 C39.3 42.01 42.6 41.02 46 40 C46 40.99 46 41.98 46 43 C43.09399739 44.25664978 41.20395416 45 38 45 C38 45.66 38 46.32 38 47 C34.69114687 48.56290509 31.65634267 49.64918874 28 50 C24.20697117 48.60067991 21.03791876 46.66949031 18 44 C18 43.34 18 42.68 18 42 C18.66 42 19.32 42 20 42 C20 41.01 20 40.02 20 39 C19.01 39.66 18.02 40.32 17 41 C12.61216283 41.75220066 9.70046469 40.03649435 5.96484375 37.97265625 C3.73863625 36.78375603 3.73863625 36.78375603 0 36 C0 24.12 0 12.24 0 0 Z " fill="#B6384E" transform="translate(31,116)"/>
<path d="M0 0 C3.47988948 1.13453931 6.77259982 2.26216913 10 4 C10 4.66 10 5.32 10 6 C10.83724609 6.15855469 10.83724609 6.15855469 11.69140625 6.3203125 C14.43098632 7.12688937 16.51107128 8.37203491 18.9375 9.875 C19.77152344 10.38804688 20.60554688 10.90109375 21.46484375 11.4296875 C22.30144531 11.94789062 23.13804688 12.46609375 24 13 C25.3008252 13.51808228 25.3008252 13.51808228 26.62792969 14.04663086 C29 16 29 16 29.56762695 19.9206543 C29.56683605 21.55538956 29.53862389 23.19025864 29.48828125 24.82421875 C29.48120651 25.68561966 29.47413177 26.54702057 29.46684265 27.43452454 C29.43884839 30.18639913 29.37610323 32.93624033 29.3125 35.6875 C29.28742352 37.55270499 29.26460921 39.41794187 29.24414062 41.28320312 C29.18900551 45.85625248 29.10270033 50.4277815 29 55 C23.47321429 49.61607143 23.47321429 49.61607143 22 46 C21.34 46 20.68 46 20 46 C18.4921875 44.3203125 18.4921875 44.3203125 16.875 42.125 C16.33617188 41.40570313 15.79734375 40.68640625 15.2421875 39.9453125 C14 38 14 38 14 36 C13.34 36 12.68 36 12 36 C10.4921875 34.3203125 10.4921875 34.3203125 8.875 32.125 C8.33617188 31.40570313 7.79734375 30.68640625 7.2421875 29.9453125 C6 28 6 28 6 26 C5.34 26 4.68 26 4 26 C4 25.34 4 24.68 4 24 C3.34 24 2.68 24 2 24 C-0.16926659 20.74610012 -0.24080049 19.86604043 -0.1953125 16.11328125 C-0.18886719 15.17548828 -0.18242188 14.23769531 -0.17578125 13.27148438 C-0.15902344 12.29501953 -0.14226562 11.31855469 -0.125 10.3125 C-0.11597656 9.32443359 -0.10695313 8.33636719 -0.09765625 7.31835938 C-0.0740843 4.87866235 -0.04118022 2.43945303 0 0 Z " fill="#896B59" transform="translate(71,89)"/>
<path d="M0 0 C0 3.3 0 6.6 0 10 C-1.32 10.33 -2.64 10.66 -4 11 C-4 16.28 -4 21.56 -4 27 C-4.33 27 -4.66 27 -5 27 C-5 22.05 -5 17.1 -5 12 C-7.31 12.66 -9.62 13.32 -12 14 C-12.0928125 15.85625 -12.0928125 15.85625 -12.1875 17.75 C-12.60657863 21.13256322 -12.85075025 21.84268269 -15.3125 24.4375 C-17.64089064 25.79121549 -19.35869979 26.60869626 -22 27 C-22 24.69 -22 22.38 -22 20 C-22.94875 20.66 -23.8975 21.32 -24.875 22 C-28 24 -28 24 -30 24 C-30 24.66 -30 25.32 -30 26 C-32.25 28.1875 -32.25 28.1875 -35 30 C-37.171875 29.61328125 -37.171875 29.61328125 -39 29 C-39.00257813 29.60328125 -39.00515625 30.2065625 -39.0078125 30.828125 C-39.12941302 33.34120232 -39.34283065 35.56805482 -40 38 C-44.58536585 42 -44.58536585 42 -48 42 C-48.35042185 38.59961015 -48.5412406 35.3854069 -48 32 C-45 29.375 -45 29.375 -42 28 C-44.26394477 26.15917112 -46.3815941 24.81365159 -49.015625 23.52734375 C-52.32352673 21.90135824 -55.16855046 20.36828032 -58 18 C-59.02912886 14.47008801 -58.77489974 11.5659738 -58 8 C-56.02 8.66 -54.04 9.32 -52 10 C-52 10.66 -52 11.32 -52 12 C-51.44183594 12.09925781 -50.88367188 12.19851562 -50.30859375 12.30078125 C-46.61719003 13.41882062 -43.69696142 15.75308515 -40.53515625 17.91796875 C-38.02169711 19.3069227 -38.02169711 19.3069227 -35.37109375 18.23828125 C-34.58863281 17.82964844 -33.80617187 17.42101562 -33 17 C-32.01 16.67 -31.02 16.34 -30 16 C-30 15.34 -30 14.68 -30 14 C-24.58823529 10 -24.58823529 10 -22 10 C-22 9.34 -22 8.68 -22 8 C-20.12762629 7.03654556 -18.2519701 6.07946898 -16.375 5.125 C-15.33085937 4.59132813 -14.28671875 4.05765625 -13.2109375 3.5078125 C-8.63662768 1.35977893 -5.08303476 0 0 0 Z " fill="#D75D55" transform="translate(173,79)"/>
<path d="M0 0 C2.98082065 1.68041585 5.87000619 3.43338429 8.74023438 5.29296875 C13.05123734 7.92197384 15.16811996 7.95427951 20 7 C22.359375 7.86328125 22.359375 7.86328125 24 10 C24.48660764 13.07694099 24.37487377 16.08246556 24.25 19.1875 C24.23195312 20.03248047 24.21390625 20.87746094 24.1953125 21.74804688 C24.14820586 23.83251573 24.07646233 25.91640144 24 28 C19.30997455 27.48961488 16.38548641 26.27115023 12.5 23.625 C8.07168435 20.67011551 8.07168435 20.67011551 3.375 18.1875 C1 17 1 17 0 15 C-1.33092714 14.65718543 -2.664733 14.32550103 -4 14 C-5.40298481 13.19262195 -6.77854488 12.33599001 -8.125 11.4375 C-10.83575542 9.49340297 -10.83575542 9.49340297 -14 9 C-14.33 7.68 -14.66 6.36 -15 5 C-13.4493684 3.96122737 -11.88390319 2.94457445 -10.3125 1.9375 C-9.44238281 1.36902344 -8.57226562 0.80054688 -7.67578125 0.21484375 C-4.40593514 -1.26971412 -3.35219318 -1.21303086 0 0 Z " fill="#2A141C" transform="translate(85,170)"/>
<path d="M0 0 C4 1 4 1 5.9375 2.0625 C9.53032273 3.69560124 12.33262147 3.22245951 16 2 C16 2.99 16 3.98 16 5 C15.34 5 14.68 5 14 5 C16.99535382 8.34097157 19.78889565 10.39978035 24 12 C26.00946222 11.72949547 28.01354224 11.40632091 30 11 C30.66 11.66 31.32 12.32 32 13 C31.625 15.125 31.625 15.125 31 17 C29.02 16.01 27.04 15.02 25 14 C25 18.29 25 22.58 25 27 C25.99 27 26.98 27 28 27 C28 27.66 28 28.32 28 29 C26.35 29.33 24.7 29.66 23 30 C22.67 29.01 22.34 28.02 22 27 C21.071875 26.896875 20.14375 26.79375 19.1875 26.6875 C15.77685288 25.95187023 15.24255143 25.4375559 13 23 C11.35636866 22.27840576 9.68949614 21.60648579 8 21 C7.34 20.67 6.68 20.34 6 20 C6 19.34 6 18.68 6 18 C5.01 18 4.02 18 3 18 C2.34 17.34 1.68 16.68 1 16 C0.67 16 0.34 16 0 16 C0 10.72 0 5.44 0 0 Z " fill="#866D5B" transform="translate(35,153)"/>
<path d="M0 0 C2.65760676 2.65760676 3.12091902 5.1659821 3.8125 8.8125 C3.4375 11.75 3.4375 11.75 2.8125 13.8125 C5.1225 12.8225 7.4325 11.8325 9.8125 10.8125 C9.1525 9.719375 8.4925 8.62625 7.8125 7.5 C6.22785071 4.87542462 5.8125 3.9868622 5.8125 0.8125 C8.8125 1.8125 8.8125 1.8125 10.5 4.75 C11.8125 7.8125 11.8125 7.8125 11.8125 9.8125 C12.410625 9.4825 13.00875 9.1525 13.625 8.8125 C15.8125 7.8125 15.8125 7.8125 18.8125 7.8125 C18.8125 8.4725 18.8125 9.1325 18.8125 9.8125 C17.8534375 10.5240625 17.8534375 10.5240625 16.875 11.25 C14.52877037 12.7216365 14.52877037 12.7216365 13.8125 15.8125 C12.8225 15.8125 11.8325 15.8125 10.8125 15.8125 C10.8125 16.4725 10.8125 17.1325 10.8125 17.8125 C4.5623917 21.85668773 4.5623917 21.85668773 1.55859375 21.6796875 C-4.73161316 19.69330637 -11.33635116 16.33277645 -16.1875 11.8125 C-17.6779875 8.30718413 -17.80354006 5.54773025 -17.1875 1.8125 C-10.22706858 -2.56262832 -7.37486153 -4.00349626 0 0 Z " fill="#903150" transform="translate(98.1875,157.1875)"/>
<path d="M0 0 C0.99 0.33 1.98 0.66 3 1 C3 1.99 3 2.98 3 4 C3.66 4 4.32 4 5 4 C5.31453125 4.77085937 5.6290625 5.54171875 5.953125 6.3359375 C6.38109375 7.33882812 6.8090625 8.34171875 7.25 9.375 C7.66765625 10.37273437 8.0853125 11.37046875 8.515625 12.3984375 C10.10395374 15.18219261 11.03323813 15.94768703 14 17 C13.67 18.32 13.34 19.64 13 21 C16.465 20.505 16.465 20.505 20 20 C23 23.75 23 23.75 23 26 C23.66 26 24.32 26 25 26 C24.505 25.05125 24.01 24.1025 23.5 23.125 C22 20 22 20 22 18 C22.99 18.33 23.98 18.66 25 19 C25 19.99 25 20.98 25 22 C25.66 22 26.32 22 27 22 C27 22.66 27 23.32 27 24 C30.3 23.01 33.6 22.02 37 21 C37 21.99 37 22.98 37 24 C34.09399739 25.25664978 32.20395416 26 29 26 C29 26.66 29 27.32 29 28 C25.69114687 29.56290509 22.65634267 30.64918874 19 31 C15.20697117 29.60067991 12.03791876 27.66949031 9 25 C9 24.34 9 23.68 9 23 C9.66 23 10.32 23 11 23 C11 22.01 11 21.02 11 20 C10.01 20.66 9.02 21.32 8 22 C3.61216283 22.75220066 0.70046469 21.03649435 -3.03515625 18.97265625 C-5.26136375 17.78375603 -5.26136375 17.78375603 -9 17 C-9 13.04 -9 9.08 -9 5 C-5.42871914 6.42851234 -2.10247728 7.89474485 1.3125 9.625 C2.19550781 10.07101563 3.07851563 10.51703125 3.98828125 10.9765625 C4.65214844 11.31429687 5.31601562 11.65203125 6 12 C5.67 10.68 5.34 9.36 5 8 C4.34 8 3.68 8 3 8 C0 2.25 0 2.25 0 0 Z " fill="#933356" transform="translate(40,135)"/>
<path d="M0 0 C0.66 0 1.32 0 2 0 C3.296875 1.7565918 3.296875 1.7565918 4.75 4.19921875 C5.2759375 5.07900391 5.801875 5.95878906 6.34375 6.86523438 C6.8903125 7.79658203 7.436875 8.72792969 8 9.6875 C8.5465625 10.59951172 9.093125 11.51152344 9.65625 12.45117188 C12.09796949 16.5655889 14.30801589 20.51314944 16 25 C16.66 25 17.32 25 18 25 C17.34 23.02 16.68 21.04 16 19 C18.75 17.375 18.75 17.375 22 16 C24.3125 16.625 24.3125 16.625 26 18 C26.33 18.99 26.66 19.98 27 21 C22.375 24 22.375 24 19 24 C19 24.66 19 25.32 19 26 C19.70125 25.67 20.4025 25.34 21.125 25 C24.26003116 23.90955438 26.70563182 23.84677357 30 24 C30.99 26.31 31.98 28.62 33 31 C29.55930376 33.29379749 28.27709699 34 24 34 C24 33.34 24 32.68 24 32 C23.34 32 22.68 32 22 32 C21.67 31.01 21.34 30.02 21 29 C20.34 28.67 19.68 28.34 19 28 C19.495 28.94875 19.99 29.8975 20.5 30.875 C22 34 22 34 22 36 C21.34 36 20.68 36 20 36 C19.608125 35.175 19.21625 34.35 18.8125 33.5 C18.214375 32.675 17.61625 31.85 17 31 C13.37400578 30.58274322 13.37400578 30.58274322 10 31 C10 29.68 10 28.36 10 27 C9.38640625 26.75121094 8.7728125 26.50242188 8.140625 26.24609375 C5.62103242 24.77939661 4.97470823 23.67229492 3.75 21.0625 C3.41484375 20.37285156 3.0796875 19.68320313 2.734375 18.97265625 C2 17 2 17 2 14 C1.34 14 0.68 14 0 14 C-0.66 12.02 -1.32 10.04 -2 8 C-0.68 7.34 0.64 6.68 2 6 C1.34 4.02 0.68 2.04 0 0 Z " fill="#C5505F" transform="translate(43,125)"/>
<path d="M0 0 C1.98 0.66 3.96 1.32 6 2 C6 2.66 6 3.32 6 4 C6.53109375 4.10441406 7.0621875 4.20882812 7.609375 4.31640625 C12.93758517 5.83999576 17.80999284 8.37900616 22 12 C23.02668053 15.53178101 22.77521499 18.43257547 22 22 C21.01 21.67 20.02 21.34 19 21 C18.99742187 21.60328125 18.99484375 22.2065625 18.9921875 22.828125 C18.87058698 25.34120232 18.65716935 27.56805482 18 30 C13.41463415 34 13.41463415 34 10 34 C9.64957815 30.59961015 9.4587594 27.3854069 10 24 C13 21.375 13 21.375 16 20 C13.73605523 18.15917112 11.6184059 16.81365159 8.984375 15.52734375 C5.67647327 13.90135824 2.83144954 12.36828032 0 10 C-1.02912886 6.47008801 -0.77489974 3.5659738 0 0 Z " fill="#A24740" transform="translate(115,87)"/>
<path d="M0 0 C2.40145644 1.28449996 3.97571166 2.34531425 5.6875 4.4375 C0.9375 8.4375 0.9375 8.4375 -1.3125 8.4375 C-1.2196875 9.17355469 -1.126875 9.90960938 -1.03125 10.66796875 C-0.80267284 13.75784212 -0.73843208 16.38722864 -1.3125 19.4375 C-3.62334305 21.92772356 -6.13470751 23.2825192 -9.3125 24.4375 C-9.9725 24.4375 -10.6325 24.4375 -11.3125 24.4375 C-11.3125 17.5075 -11.3125 10.5775 -11.3125 3.4375 C-3.3125 -0.5625 -3.3125 -0.5625 0 0 Z " fill="#F9F8F7" transform="translate(126.3125,102.5625)"/>
<path d="M0 0 C1.05517467 5.01207966 1.05517467 5.01207966 0 8 C-2.91880803 10.22635808 -5.89572171 11.82281187 -9.1796875 13.45703125 C-12.22997838 14.84260712 -12.22997838 14.84260712 -14 18 C-15.9453125 18.51171875 -15.9453125 18.51171875 -18.125 18.6875 C-19.40375 18.790625 -20.6825 18.89375 -22 19 C-22 14.71 -22 10.42 -22 6 C-20.02 6.66 -18.04 7.32 -16 8 C-16.33 6.02 -16.66 4.04 -17 2 C-16.01 2.33 -15.02 2.66 -14 3 C-13.3125 5.0625 -13.3125 5.0625 -13 7 C-12.14535156 6.4946875 -11.29070312 5.989375 -10.41015625 5.46875 C-8.75306641 4.49421875 -8.75306641 4.49421875 -7.0625 3.5 C-5.96035156 2.8503125 -4.85820313 2.200625 -3.72265625 1.53125 C-1 0 -1 0 0 0 Z " fill="#BE947C" transform="translate(82,161)"/>
<path d="M0 0 C5.625 -0.25 5.625 -0.25 9 2 C9.12375 2.80179687 9.2475 3.60359375 9.375 4.4296875 C9.7588325 7.19093531 9.7588325 7.19093531 12.25 8.6953125 C13.1575 9.16710937 14.065 9.63890625 15 10.125 C19.90011481 12.70034443 19.90011481 12.70034443 21 16 C18.69 16.99 16.38 17.98 14 19 C14.33 20.98 14.66 22.96 15 25 C14.34 25 13.68 25 13 25 C11.57958984 23.02807617 11.57958984 23.02807617 9.9609375 20.29296875 C9.38085938 19.31392578 8.80078125 18.33488281 8.203125 17.32617188 C7.59984375 16.29041016 6.9965625 15.25464844 6.375 14.1875 C5.76398437 13.16333984 5.15296875 12.13917969 4.5234375 11.08398438 C0 3.38505336 0 3.38505336 0 0 Z " fill="#B54152" transform="translate(46,125)"/>
<path d="M0 0 C3 1 3 1 4.6875 3.9375 C6 7 6 7 6 9 C6.598125 8.67 7.19625 8.34 7.8125 8 C10 7 10 7 13 7 C13 7.66 13 8.32 13 9 C12.360625 9.474375 11.72125 9.94875 11.0625 10.4375 C8.71627037 11.9091365 8.71627037 11.9091365 8 15 C7.01 15 6.02 15 5 15 C5 15.66 5 16.32 5 17 C2.1875 18.5625 2.1875 18.5625 -1 20 C-1.99 19.67 -2.98 19.34 -4 19 C-4 17.68 -4 16.36 -4 15 C-4.99 15 -5.98 15 -7 15 C-7.67408308 13.73308493 -8.33900497 12.46129251 -9 11.1875 C-9.37125 10.47980469 -9.7425 9.77210938 -10.125 9.04296875 C-11 7 -11 7 -11 4 C-8.69 3.01 -6.38 2.02 -4 1 C-2.52924754 5.41225737 -1.63115642 8.48281619 -3 13 C-0.69 12.01 1.62 11.02 4 10 C3.34 8.906875 2.68 7.81375 2 6.6875 C0.41535071 4.06292462 0 3.1743622 0 0 Z " fill="#A5385C" transform="translate(104,158)"/>
<path d="M0 0 C1.6875 1.375 1.6875 1.375 2.6875 4.375 C-1.9375 7.375 -1.9375 7.375 -5.3125 7.375 C-5.3125 8.035 -5.3125 8.695 -5.3125 9.375 C-4.61125 9.045 -3.91 8.715 -3.1875 8.375 C-0.05246884 7.28455438 2.39313182 7.22177357 5.6875 7.375 C6.6775 9.685 7.6675 11.995 8.6875 14.375 C5.24680376 16.66879749 3.96459699 17.375 -0.3125 17.375 C-0.3125 16.715 -0.3125 16.055 -0.3125 15.375 C-0.9725 15.375 -1.6325 15.375 -2.3125 15.375 C-2.6425 14.385 -2.9725 13.395 -3.3125 12.375 C-4.3025 12.375 -5.2925 12.375 -6.3125 12.375 C-6.3125 11.385 -6.3125 10.395 -6.3125 9.375 C-6.9725 9.045 -7.6325 8.715 -8.3125 8.375 C-7.6525 8.375 -6.9925 8.375 -6.3125 8.375 C-6.9725 6.395 -7.6325 4.415 -8.3125 2.375 C-2.94588088 -0.79618402 -2.94588088 -0.79618402 0 0 Z " fill="#D75A54" transform="translate(67.3125,141.625)"/>
<path d="M0 0 C2 3 2 3 3 6 C2.360625 6.28875 1.72125 6.5775 1.0625 6.875 C-1.15206079 7.82823451 -1.15206079 7.82823451 -2 10 C0.31 9.34 2.62 8.68 5 8 C5 8.99 5 9.98 5 11 C5.66 11 6.32 11 7 11 C7.99 13.31 8.98 15.62 10 18 C7.34724439 19.02029062 6.19114092 19.06488808 3.45703125 18.13671875 C-3.57479726 14.28323518 -3.57479726 14.28323518 -4.87109375 10.37109375 C-5.10236447 7.86981201 -5.16829029 5.50455551 -5 3 C-3.35 2.01 -1.7 1.02 0 0 Z " fill="#9D4251" transform="translate(86,156)"/>
<path d="M0 0 C3.43931834 1.3073075 6.61300905 2.81036334 9.8125 4.625 C10.99779297 5.29402344 10.99779297 5.29402344 12.20703125 5.9765625 C12.79871094 6.31429687 13.39039063 6.65203125 14 7 C14 7.66 14 8.32 14 9 C5.56043372 13.69097481 5.56043372 13.69097481 1 13 C0 12 0 12 -0.09765625 9.27734375 C-0.08605469 8.17519531 -0.07445313 7.07304687 -0.0625 5.9375 C-0.05347656 4.83277344 -0.04445313 3.72804687 -0.03515625 2.58984375 C-0.02355469 1.73519531 -0.01195313 0.88054687 0 0 Z " fill="#9C405A" transform="translate(31,140)"/>
<path d="M0 0 C3.0831351 1.19899698 6.06279492 2.47700477 9 4 C9 4.66 9 5.32 9 6 C9.53625 6.0825 10.0725 6.165 10.625 6.25 C13.8352431 7.26376098 16.26292392 9.07160549 19 11 C15.8745041 13.64465038 12.91211733 14.84414715 9 16 C5.37841255 10.83132665 2.26099956 5.90372107 0 0 Z " fill="#D45952" transform="translate(70,141)"/>
<path d="M0 0 C0.62003906 0.31582031 1.24007812 0.63164062 1.87890625 0.95703125 C5.97533059 2.97129515 8.55002072 3.11249482 13 2 C8.375 6 8.375 6 5 6 C5 6.66 5 7.32 5 8 C-1 11 -7 14 -13 17 C-13.66 16.01 -14.32 15.02 -15 14 C-10.375 11.875 -10.375 11.875 -7 13 C-6.773125 12.34 -6.54625 11.68 -6.3125 11 C-4.59428642 7.07265467 -2.33225393 3.58739822 0 0 Z " fill="#A4375A" transform="translate(146,143)"/>
<path d="M0 0 C0.99 0.33 1.98 0.66 3 1 C3 1.99 3 2.98 3 4 C3.66 4 4.32 4 5 4 C5 4.66 5 5.32 5 6 C9.95 4.515 9.95 4.515 15 3 C15 3.99 15 4.98 15 6 C12.09399739 7.25664978 10.20395416 8 7 8 C7 8.66 7 9.32 7 10 C3.37 10.33 -0.26 10.66 -4 11 C-5.32 8.36 -6.64 5.72 -8 3 C-7 2 -7 2 -4.625 1.6875 C-2 2 -2 2 -0.1875 3.875 C1 6 1 6 1 8 C1.66 8 2.32 8 3 8 C2.505 7.05125 2.01 6.1025 1.5 5.125 C0 2 0 2 0 0 Z " fill="#A34944" transform="translate(62,153)"/>
<path d="M0 0 C0.66 0 1.32 0 2 0 C3.296875 1.78833008 3.296875 1.78833008 4.75 4.26953125 C5.2759375 5.15833984 5.801875 6.04714844 6.34375 6.96289062 C6.8903125 7.90326172 7.436875 8.84363281 8 9.8125 C9.08287161 11.65261555 10.16618649 13.49247032 11.25 15.33203125 C11.72953125 16.15421143 12.2090625 16.9763916 12.703125 17.82348633 C13.75028443 19.58090845 14.86522447 21.2978367 16 23 C16 23.99 16 24.98 16 26 C16.66 26 17.32 26 18 26 C18.67154933 27.28913487 19.33708859 28.58140204 20 29.875 C20.37125 30.59429687 20.7425 31.31359375 21.125 32.0546875 C22 34 22 34 22 36 C21.34 36 20.68 36 20 36 C19.608125 35.175 19.21625 34.35 18.8125 33.5 C18.214375 32.675 17.61625 31.85 17 31 C13.37400578 30.58274322 13.37400578 30.58274322 10 31 C10 30.01 10 29.02 10 28 C10.99 27.67 11.98 27.34 13 27 C12.42456984 23.16110137 11.32382252 20.49365958 9.27734375 17.20703125 C8.73916016 16.32982422 8.20097656 15.45261719 7.64648438 14.54882812 C7.08251953 13.64583984 6.51855469 12.74285156 5.9375 11.8125 C4.81772821 10.00891752 3.70164255 8.2030395 2.58984375 6.39453125 C2.09347412 5.59893799 1.59710449 4.80334473 1.08569336 3.98364258 C0 2 0 2 0 0 Z " fill="#C7786E" transform="translate(43,125)"/>
<path d="M0 0 C5.875 1.875 5.875 1.875 7 3 C7.15582303 4.34015221 7.25044142 5.68758903 7.31640625 7.03515625 C7.37924805 8.24848633 7.37924805 8.24848633 7.44335938 9.48632812 C7.48267578 10.33646484 7.52199219 11.18660156 7.5625 12.0625 C7.60568359 12.91650391 7.64886719 13.77050781 7.69335938 14.65039062 C7.79976702 16.76672037 7.90041731 18.88333813 8 21 C5.5625 20.625 5.5625 20.625 3 20 C1.49843126 16.99686252 1.90718796 14.20932478 1.9375 10.875 C1.94652344 9.59367188 1.95554688 8.31234375 1.96484375 6.9921875 C1.97644531 6.00476563 1.98804688 5.01734375 2 4 C0.68 3.34 -0.64 2.68 -2 2 C-1.34 1.34 -0.68 0.68 0 0 Z " fill="#2B121B" transform="translate(134,159)"/>
<path d="M0 0 C5 0 5 0 7.8125 2.75 C10 6 10 6 10 10 C6.27034861 12.03435531 4.33094958 13 0 13 C0 8.71 0 4.42 0 0 Z " fill="#9B4040" transform="translate(31,116)"/>
<path d="M0 0 C0.66 0 1.32 0 2 0 C2 0.66 2 1.32 2 2 C2.66 2 3.32 2 4 2 C4 2.99 4 3.98 4 5 C5.98 4.67 7.96 4.34 10 4 C10 4.66 10 5.32 10 6 C6.25 7.125 6.25 7.125 4 6 C3.34 7.32 2.68 8.64 2 10 C0.68 10 -0.64 10 -2 10 C-1.649375 10.5775 -1.29875 11.155 -0.9375 11.75 C0.14917407 14.35801776 -0.06934867 15.39417629 -1 18 C-2.66611905 18.042721 -4.33382885 18.04063832 -6 18 C-7 17 -7 17 -7.0625 13.4375 C-7.041875 12.303125 -7.02125 11.16875 -7 10 C-4.03 9.01 -1.06 8.02 2 7 C1.34 4.69 0.68 2.38 0 0 Z " fill="#A7535F" transform="translate(39,119)"/>
<path d="M0 0 C2.475 0.99 2.475 0.99 5 2 C4.01 3.485 4.01 3.485 3 5 C3.33 5.99 3.66 6.98 4 8 C2.54462432 8.83848804 1.08559627 9.67063934 -0.375 10.5 C-1.18710938 10.9640625 -1.99921875 11.428125 -2.8359375 11.90625 C-5 13 -5 13 -7 13 C-6 10 -6 10 -4.125 8.8125 C-2 8 -2 8 1 8 C1 7.34 1 6.68 1 6 C-3.95 7.485 -3.95 7.485 -9 9 C-9.66 7.68 -10.32 6.36 -11 5 C-10.67 4.34 -10.34 3.68 -10 3 C-7.03 3.33 -4.06 3.66 -1 4 C-0.67 2.68 -0.34 1.36 0 0 Z " fill="#C7636D" transform="translate(129,153)"/>
<path d="M0 0 C0.35040695 3.40024521 0.530811 6.61342582 0 10 C-4.38095238 14 -4.38095238 14 -8 14 C-8.35040695 10.59975479 -8.530811 7.38657418 -8 4 C-3.61904762 0 -3.61904762 0 0 0 Z " fill="#462F36" transform="translate(133,107)"/>
<path d="M0 0 C1 2 1 2 1.375 4.3125 C2.07615261 7.32745622 3.30918652 9.42702297 5 12 C2.03 13.32 -0.94 14.64 -4 16 C-4 10.88077064 -3.76610642 6.07545503 -3 1 C-2.01 0.67 -1.02 0.34 0 0 Z " fill="#B54867" transform="translate(104,156)"/>
<path d="M0 0 C4.77609498 1.64178265 8.79382904 4.26546702 13 7 C10.06171403 9.50298434 7.82097239 10.46930939 4 11 C3.13341385 9.73760288 2.28207941 8.46472499 1.4375 7.1875 C0.72400391 6.12595703 0.72400391 6.12595703 -0.00390625 5.04296875 C-1 3 -1 3 0 0 Z " fill="#C5505F" transform="translate(53,131)"/>
<path d="M0 0 C0.29296875 6.0546875 0.29296875 6.0546875 0 8 C-3 10 -3 10 -6 10 C-6 10.66 -6 11.32 -6 12 C-6.99 12 -7.98 12 -9 12 C-9.49014085 6.6084507 -9.49014085 6.6084507 -7.1875 3.75 C-2.5 0 -2.5 0 0 0 Z " fill="#FCFAFA" transform="translate(151,99)"/>
<path d="M0 0 C0.33 0 0.66 0 1 0 C1 11.22 1 22.44 1 34 C-3.19174654 32.95206337 -4.21592961 32.08236365 -7 29 C-2.25 26 -2.25 26 0 26 C0 17.42 0 8.84 0 0 Z " fill="#DFC9BE" transform="translate(167,41)"/>
<path d="M0 0 C1.6491828 4.25315564 2.49974625 6.6648225 0.625 10.9375 C0.08875 11.948125 -0.4475 12.95875 -1 14 C-1.66 14 -2.32 14 -3 14 C-3.67408308 12.73308493 -4.33900497 11.46129251 -5 10.1875 C-5.37125 9.47980469 -5.7425 8.77210938 -6.125 8.04296875 C-7 6 -7 6 -7 3 C-1.125 0 -1.125 0 0 0 Z " fill="#9D405B" transform="translate(100,159)"/>
<path d="M0 0 C0 2.64 0 5.28 0 8 C-6.875 12 -6.875 12 -8 12 C-8 9.36 -8 6.72 -8 4 C-1.125 0 -1.125 0 0 0 Z " fill="#493137" transform="translate(159,94)"/>
<path d="M0 0 C3.9069283 1.30230943 4.23708974 2.73116269 6.125 6.3125 C6.64320312 7.27800781 7.16140625 8.24351562 7.6953125 9.23828125 C8.78164401 11.53779136 9.51677111 13.51903214 10 16 C9.34 16 8.68 16 8 16 C7.34 14.02 6.68 12.04 6 10 C4.39125 10.495 4.39125 10.495 2.75 11 C-1 12 -1 12 -5 12 C-5 11.34 -5 10.68 -5 10 C-2.69 9.01 -0.38 8.02 2 7 C1.67 6.401875 1.34 5.80375 1 5.1875 C0 3 0 3 0 0 Z " fill="#DB8774" transform="translate(67,139)"/>
<path d="M0 0 C2 3 2 3 3 6 C1.02 6.99 1.02 6.99 -1 8 C-0.34 10.31 0.32 12.62 1 15 C-1.475 14.01 -1.475 14.01 -4 13 C-4.33 9.7 -4.66 6.4 -5 3 C-3.35 2.01 -1.7 1.02 0 0 Z " fill="#AD4B47" transform="translate(86,156)"/>
<path d="M0 0 C2.25 0.875 2.25 0.875 4 2 C3.67 3.32 3.34 4.64 3 6 C1.02 5.01 -0.96 4.02 -3 3 C-3 7.29 -3 11.58 -3 16 C-2.01 16 -1.02 16 0 16 C0 16.66 0 17.32 0 18 C-1.65 18.33 -3.3 18.66 -5 19 C-4.67 13.39 -4.34 7.78 -4 2 C-2.68 1.34 -1.36 0.68 0 0 Z " fill="#A4836D" transform="translate(63,164)"/>
<path d="M0 0 C0.61875 0.7734375 0.61875 0.7734375 1.25 1.5625 C0.59 2.8825 -0.07 4.2025 -0.75 5.5625 C-3.89624993 5.82468749 -5.36837017 5.81004367 -8.0625 4.0625 C-8.619375 3.5675 -9.17625 3.0725 -9.75 2.5625 C-3.31521739 -2.72321429 -3.31521739 -2.72321429 0 0 Z " fill="#9E4350" transform="translate(48.75,151.4375)"/>
<path d="M0 0 C1.70884005 1.62339805 3.37446717 3.29319053 5 5 C5 5.66 5 6.32 5 7 C0.56923077 9.09230769 0.56923077 9.09230769 -2.3125 8.625 C-2.869375 8.41875 -3.42625 8.2125 -4 8 C-3.67 6.35 -3.34 4.7 -3 3 C-2.34 3 -1.68 3 -1 3 C-0.67 2.01 -0.34 1.02 0 0 Z " fill="#C65C67" transform="translate(154,138)"/>
<path d="M0 0 C0.99 0.33 1.98 0.66 3 1 C3 1.99 3 2.98 3 4 C3.66 4 4.32 4 5 4 C5 4.66 5 5.32 5 6 C9.95 4.515 9.95 4.515 15 3 C15 3.99 15 4.98 15 6 C13.75579353 6.5345256 12.50429064 7.05208611 11.25 7.5625 C10.55390625 7.85253906 9.8578125 8.14257812 9.140625 8.44140625 C6.63564658 9.09507763 5.37942087 8.99814689 3 8 C0 2.96428571 0 2.96428571 0 0 Z " fill="#AE3F44" transform="translate(62,153)"/>
<path d="M0 0 C1.9375 0.375 1.9375 0.375 4 1 C4.33 1.66 4.66 2.32 5 3 C8.3 2.34 11.6 1.68 15 1 C15 1.66 15 2.32 15 3 C11.535 4.485 11.535 4.485 8 6 C8 6.99 8 7.98 8 9 C7.01 9.33 6.02 9.66 5 10 C3.33333333 6.66666667 1.66666667 3.33333333 0 0 Z " fill="#AD3C52" transform="translate(115,158)"/>
<path d="M0 0 C1.5 1.3125 1.5 1.3125 3 3 C3 3.99 3 4.98 3 6 C3.66 6 4.32 6 5 6 C5.66 7.65 6.32 9.3 7 11 C2.57238086 9.60846256 0.0443745 7.47928514 -3 4 C-3 3.34 -3 2.68 -3 2 C-2.01 1.34 -1.02 0.68 0 0 Z " fill="#B74768" transform="translate(40,137)"/>
<path d="M0 0 C3.04021747 1.03812304 4.47344114 2.47645094 6.5625 4.875 C4.5825 5.535 2.6025 6.195 0.5625 6.875 C0.5625 6.215 0.5625 5.555 0.5625 4.875 C-0.05625 4.75125 -0.675 4.6275 -1.3125 4.5 C-3.4375 3.875 -3.4375 3.875 -5.4375 1.875 C-2.4375 -0.125 -2.4375 -0.125 0 0 Z " fill="#D7D5D5" transform="translate(64.4375,84.125)"/>
<path d="M0 0 C0 0.66 0 1.32 0 2 C-0.66 2 -1.32 2 -2 2 C-2 2.66 -2 3.32 -2 4 C-4.8125 5.5625 -4.8125 5.5625 -8 7 C-8.99 6.67 -9.98 6.34 -11 6 C-10.74609375 4.11328125 -10.74609375 4.11328125 -10 2 C-8.22265625 0.91796875 -8.22265625 0.91796875 -6.0625 0.1875 C-5.35222656 -0.06644531 -4.64195313 -0.32039062 -3.91015625 -0.58203125 C-2 -1 -2 -1 0 0 Z " fill="#C14E5D" transform="translate(111,171)"/>
<path d="M0 0 C3.2542015 2.83430453 4.5206753 4.68607774 5 9 C2.6875 10.5625 2.6875 10.5625 0 12 C-0.99 11.67 -1.98 11.34 -3 11 C-1.625 9.5 -1.625 9.5 0 8 C0.66 8 1.32 8 2 8 C1.01 5.69 0.02 3.38 -1 1 C-0.67 0.67 -0.34 0.34 0 0 Z " fill="#CD6565" transform="translate(115,159)"/>
<path d="M0 0 C3.3 0.33 6.6 0.66 10 1 C10 1.66 10 2.32 10 3 C5.545 4.485 5.545 4.485 1 6 C0.34 4.68 -0.32 3.36 -1 2 C-0.67 1.34 -0.34 0.68 0 0 Z " fill="#C75265" transform="translate(119,156)"/>
<path d="M0 0 C0.66 0 1.32 0 2 0 C2 0.66 2 1.32 2 2 C2.66 2 3.32 2 4 2 C4 2.99 4 3.98 4 5 C5.98 4.67 7.96 4.34 10 4 C10 4.66 10 5.32 10 6 C6.25 7.125 6.25 7.125 4 6 C3.34 7.32 2.68 8.64 2 10 C0.68 10 -0.64 10 -2 10 C-2 9.34 -2 8.68 -2 8 C-0.68 7.67 0.64 7.34 2 7 C1.34 4.69 0.68 2.38 0 0 Z " fill="#AC7061" transform="translate(39,119)"/>
<path d="M0 0 C2.64 1.65 5.28 3.3 8 5 C4.8745041 7.64465038 1.91211733 8.84414715 -2 10 C-1.34 8.68 -0.68 7.36 0 6 C0.66 6 1.32 6 2 6 C1.34 4.02 0.68 2.04 0 0 Z " fill="#A63C4E" transform="translate(81,147)"/>
<path d="M0 0 C3.06630664 0.8974556 4.73038808 1.73038808 7 4 C3.535 5.485 3.535 5.485 0 7 C-0.99 5.35 -1.98 3.7 -3 2 C-2.01 1.34 -1.02 0.68 0 0 Z " fill="#9D4352" transform="translate(91,154)"/>
<path d="M0 0 C0 0.99 0 1.98 0 3 C-1.6796875 4.38671875 -1.6796875 4.38671875 -3.875 5.6875 C-4.59429687 6.12449219 -5.31359375 6.56148437 -6.0546875 7.01171875 C-8 8 -8 8 -10 8 C-10 6.68 -10 5.36 -10 4 C-8.71086513 3.32845067 -7.41859796 2.66291141 -6.125 2 C-5.40570313 1.62875 -4.68640625 1.2575 -3.9453125 0.875 C-2 0 -2 0 0 0 Z " fill="#BF514C" transform="translate(79,160)"/>
<path d="M0 0 C-2.13300328 2.36557373 -3.95949399 3.62967528 -6.9375 4.75 C-7.94103516 5.14445313 -7.94103516 5.14445313 -8.96484375 5.546875 C-11.37945237 6.0844846 -12.72462957 5.96322377 -15 5 C-15.33 4.01 -15.66 3.02 -16 2 C-15.01 2 -14.02 2 -13 2 C-13 2.66 -13 3.32 -13 4 C-12.22076172 3.566875 -12.22076172 3.566875 -11.42578125 3.125 C-4.49912127 -0.56239016 -4.49912127 -0.56239016 0 0 Z " fill="#BC726C" transform="translate(92,153)"/>
<path d="M0 0 C2.27521866 2.16687491 4.15794162 4.45620509 6 7 C7.65 6.67 9.3 6.34 11 6 C11.33 6.66 11.66 7.32 12 8 C9.25 9.1875 9.25 9.1875 6 10 C3.625 8.75 3.625 8.75 2 7 C2 6.34 2 5.68 2 5 C1.34 5 0.68 5 0 5 C-0.5625 3.0625 -0.5625 3.0625 -1 1 C-0.67 0.67 -0.34 0.34 0 0 Z " fill="#913344" transform="translate(53,156)"/>
<path d="M0 0 C0.66 0 1.32 0 2 0 C2.12375 1.03125 2.2475 2.0625 2.375 3.125 C2.93889814 6.62116846 3.78682059 9.68397627 5 13 C3.35 12.67 1.7 12.34 0 12 C0 8.04 0 4.08 0 0 Z " fill="#8F3550" transform="translate(31,140)"/>
<path d="M0 0 C0.33 1.32 0.66 2.64 1 4 C-0.98 4.99 -2.96 5.98 -5 7 C-5.66 6.34 -6.32 5.68 -7 5 C-7 4.01 -7 3.02 -7 2 C-2.25 0 -2.25 0 0 0 Z " fill="#9D4245" transform="translate(44,127)"/>
<path d="M0 0 C0.33 0 0.66 0 1 0 C1.12375 0.969375 1.2475 1.93875 1.375 2.9375 C1.58125 3.948125 1.7875 4.95875 2 6 C2.66 6.33 3.32 6.66 4 7 C4 8.98 4 10.96 4 13 C2.68 13 1.36 13 0 13 C0 8.71 0 4.42 0 0 Z " fill="#9C1C2F" transform="translate(31,116)"/>
<path d="M0 0 C0.495 0.350625 0.99 0.70125 1.5 1.0625 C5.22697603 2.46011601 8.09802848 1.65032859 12 1 C7.375 5 7.375 5 4 5 C3.67 5.66 3.34 6.32 3 7 C0 2.25 0 2.25 0 0 Z " fill="#A4395A" transform="translate(147,144)"/>
<path d="M0 0 C0.66 0.33 1.32 0.66 2 1 C2.625 3.5625 2.625 3.5625 3 6 C1.03533587 7.06775224 -0.96855359 8.06553465 -3 9 C-3.66 8.67 -4.32 8.34 -5 8 C-3.35 5.36 -1.7 2.72 0 0 Z " fill="#B84F6E" transform="translate(146,143)"/>
<path d="M0 0 C0.99 0.33 1.98 0.66 3 1 C3 1.99 3 2.98 3 4 C3.66 4 4.32 4 5 4 C8 9.75 8 9.75 8 12 C7.01 11.67 6.02 11.34 5 11 C5 10.01 5 9.02 5 8 C4.34 8 3.68 8 3 8 C0 2.25 0 2.25 0 0 Z " fill="#A3365B" transform="translate(40,135)"/>
<path d="M0 0 C1.32 0 2.64 0 4 0 C4.33 1.65 4.66 3.3 5 5 C1 5 1 5 -1 4 C-0.67 2.68 -0.34 1.36 0 0 Z " fill="#DA5B54" transform="translate(52,147)"/>
<path d="M0 0 C8.58 0 17.16 0 26 0 C26 0.33 26 0.66 26 1 C17.42 1 8.84 1 0 1 C0 0.67 0 0.34 0 0 Z " fill="#FFFFFF" transform="translate(86,199)"/>
<path d="M0 0 C0.33 0 0.66 0 1 0 C1 8.58 1 17.16 1 26 C0.67 26 0.34 26 0 26 C0 17.42 0 8.84 0 0 Z " fill="#FFFFFF" transform="translate(199,86)"/>
<path d="M0 0 C0.66 0.33 1.32 0.66 2 1 C2 2.98 2 4.96 2 7 C1.01 7.495 1.01 7.495 0 8 C0 7.34 0 6.68 0 6 C-1.32 5.67 -2.64 5.34 -4 5 C-3.34 4.01 -2.68 3.02 -2 2 C-1.34 2 -0.68 2 0 2 C0 1.34 0 0.68 0 0 Z " fill="#B84553" transform="translate(167,123)"/>
<path d="M0 0 C4.39158329 1.4638611 4.87947433 3.97831338 7 8 C6.01 8.33 5.02 8.66 4 9 C0 3.375 0 3.375 0 0 Z " fill="#A93C52" transform="translate(155,136)"/>
<path d="M0 0 C1.32 0.66 2.64 1.32 4 2 C3.67 3.32 3.34 4.64 3 6 C1.02 5.01 -0.96 4.02 -3 3 C-2.01 2.01 -1.02 1.02 0 0 Z " fill="#AB6457" transform="translate(63,164)"/>
<path d="M0 0 C0.66 0.66 1.32 1.32 2 2 C-1.96 3.98 -1.96 3.98 -6 6 C-6.66 5.01 -7.32 4.02 -8 3 C-3.375 0.875 -3.375 0.875 0 2 C0 1.34 0 0.68 0 0 Z " fill="#B8495C" transform="translate(139,154)"/>
<path d="M0 0 C2.0625 0.4375 2.0625 0.4375 4 1 C4 1.99 4 2.98 4 4 C2.35 4.33 0.7 4.66 -1 5 C-1 1 -1 1 0 0 Z " fill="#C14954" transform="translate(43,131)"/>
<path d="M0 0 C0.68707555 2.49064888 1 4.37886292 1 7 C1.66 7 2.32 7 3 7 C3 7.66 3 8.32 3 9 C0.5625 8.1875 0.5625 8.1875 -2 7 C-2.33 6.01 -2.66 5.02 -3 4 C-2.34 4 -1.68 4 -1 4 C-0.67 2.68 -0.34 1.36 0 0 Z " fill="#9D4658" transform="translate(52,154)"/>
<path d="M0 0 C0.66 0 1.32 0 2 0 C3.65 2.97 5.3 5.94 7 9 C6.01 9 5.02 9 4 9 C0 2.25 0 2.25 0 0 Z " fill="#BD796E" transform="translate(43,125)"/>
<path d="M0 0 C1.4540625 0.0309375 1.4540625 0.0309375 2.9375 0.0625 C3.2675 0.7225 3.5975 1.3825 3.9375 2.0625 C1.9575 2.7225 -0.0225 3.3825 -2.0625 4.0625 C-2.7225 3.0725 -3.3825 2.0825 -4.0625 1.0625 C-3.0625 0.0625 -3.0625 0.0625 0 0 Z " fill="#9D413F" transform="translate(49.0625,124.9375)"/>
<path d="M0 0 C2.32472205 2.85306797 3.7508258 5.54074837 5 9 C2.525 8.01 2.525 8.01 0 7 C0 4.69 0 2.38 0 0 Z " fill="#A76468" transform="translate(82,162)"/>
<path d="M0 0 C0 0.66 0 1.32 0 2 C-0.639375 2.474375 -1.27875 2.94875 -1.9375 3.4375 C-4.28372963 4.9091365 -4.28372963 4.9091365 -5 8 C-5.66 7.01 -6.32 6.02 -7 5 C-5.64703851 0.94111554 -4.27479763 0 0 0 Z " fill="#AE3B54" transform="translate(117,165)"/>
<path d="M0 0 C0 0.66 0 1.32 0 2 C-6.75 6 -6.75 6 -9 6 C-8 3 -8 3 -5.0625 1.3125 C-2 0 -2 0 0 0 Z " fill="#BB524C" transform="translate(167,133)"/>
<path d="M0 0 C0.99 0 1.98 0 3 0 C3 1.98 3 3.96 3 6 C2.01 6.33 1.02 6.66 0 7 C0 4.69 0 2.38 0 0 Z " fill="#A74D49" transform="translate(32,116)"/>
<path d="M0 0 C0.66 0.33 1.32 0.66 2 1 C0.71034824 2.37562854 -0.62689293 3.70766393 -2 5 C-2.66 5 -3.32 5 -4 5 C-4.33 5.66 -4.66 6.32 -5 7 C-5.33 6.01 -5.66 5.02 -6 4 C-5.34 4 -4.68 4 -4 4 C-4 3.34 -4 2.68 -4 2 C-2.125 0.9375 -2.125 0.9375 0 0 Z " fill="#C27365" transform="translate(73,159)"/>
<path d="M0 0 C1.5 1.3125 1.5 1.3125 3 3 C3 3.99 3 4.98 3 6 C3.66 6 4.32 6 5 6 C5 6.66 5 7.32 5 8 C4.01 8 3.02 8 2 8 C1.01 5.69 0.02 3.38 -1 1 C-0.67 0.67 -0.34 0.34 0 0 Z " fill="#DA8E79" transform="translate(56,145)"/>
<path d="M0 0 C2.475 0.99 2.475 0.99 5 2 C5 3.32 5 4.64 5 6 C4.01 6.495 4.01 6.495 3 7 C2.01 4.69 1.02 2.38 0 0 Z " fill="#D96F63" transform="translate(70,141)"/>
<path d="M0 0 C1.32 0.66 2.64 1.32 4 2 C4 2.66 4 3.32 4 4 C2.68 4.33 1.36 4.66 0 5 C-0.5625 3.0625 -0.5625 3.0625 -1 1 C-0.67 0.67 -0.34 0.34 0 0 Z " fill="#9D3E63" transform="translate(33,141)"/>
<path d="M0 0 C-5.75 4 -5.75 4 -8 4 C-7 1 -7 1 -5.125 -0.25 C-3 -1 -3 -1 0 0 Z " fill="#D25652" transform="translate(130,162)"/>
<path d="M0 0 C1.98 0.99 3.96 1.98 6 3 C5.01 4.485 5.01 4.485 4 6 C3.34 6 2.68 6 2 6 C1.34 4.02 0.68 2.04 0 0 Z " fill="#983849" transform="translate(48,149)"/>
<path d="M0 0 C1.32 0 2.64 0 4 0 C4 0.66 4 1.32 4 2 C3.01 2.33 2.02 2.66 1 3 C0.34 3.99 -0.32 4.98 -1 6 C-1.625 4.125 -1.625 4.125 -2 2 C-1.34 1.34 -0.68 0.68 0 0 Z " fill="#B33F54" transform="translate(51,145)"/>
<path d="M0 0 C0.99 0.33 1.98 0.66 3 1 C4.1875 3.5625 4.1875 3.5625 5 6 C4.01 6 3.02 6 2 6 C0 3 0 3 0 0 Z " fill="#D37E71" transform="translate(67,139)"/>
<path d="M0 0 C0.66 0.33 1.32 0.66 2 1 C-0.31 3.31 -2.62 5.62 -5 8 C-5 5 -5 5 -2.5 2.3125 C-1.675 1.549375 -0.85 0.78625 0 0 Z " fill="#FFFFFF" transform="translate(30,25)"/>
<path d="M0 0 C1.98 0 3.96 0 6 0 C6 0.33 6 0.66 6 1 C4.02 1 2.04 1 0 1 C0 0.67 0 0.34 0 0 Z " fill="#FFFFFF" transform="translate(112,198)"/>
<path d="M0 0 C1.98 0 3.96 0 6 0 C6 0.33 6 0.66 6 1 C4.02 1 2.04 1 0 1 C0 0.67 0 0.34 0 0 Z " fill="#FFFFFF" transform="translate(80,198)"/>
<path d="M0 0 C1.65 0 3.3 0 5 0 C5 0.33 5 0.66 5 1 C3.35 1 1.7 1 0 1 C0 0.67 0 0.34 0 0 Z " fill="#FFFFFF" transform="translate(118,197)"/>
<path d="M0 0 C1.65 0 3.3 0 5 0 C5 0.33 5 0.66 5 1 C3.35 1 1.7 1 0 1 C0 0.67 0 0.34 0 0 Z " fill="#FFFFFF" transform="translate(75,197)"/>
<path d="M0 0 C1.65 0 3.3 0 5 0 C5 0.33 5 0.66 5 1 C3.35 1 1.7 1 0 1 C0 0.67 0 0.34 0 0 Z " fill="#FFFFFF" transform="translate(117,0)"/>
<path d="M0 0 C1.65 0 3.3 0 5 0 C5 0.33 5 0.66 5 1 C3.35 1 1.7 1 0 1 C0 0.67 0 0.34 0 0 Z " fill="#FFFFFF" transform="translate(76,0)"/>
<path d="M0 0 C4 1 4 1 4 1 Z " fill="#FFFFFF" transform="translate(123,196)"/>
<path d="M0 0 C4 1 4 1 4 1 Z " fill="#FFFFFF" transform="translate(68,195)"/>
<path d="M0 0 C4 1 4 1 4 1 Z " fill="#FFFFFF" transform="translate(69,2)"/>
<path d="M0 0 C4 1 4 1 4 1 Z " fill="#FFFFFF" transform="translate(122,1)"/>
<path d="M0 0 C3 1 3 1 3 1 Z " fill="#FFFFFF" transform="translate(72,196)"/>
<path d="M0 0 C3 1 3 1 3 1 Z " fill="#FFFFFF" transform="translate(127,195)"/>
<path d="M0 0 C3 1 3 1 3 1 Z " fill="#FFFFFF" transform="translate(130,194)"/>
<path d="M0 0 C3 1 3 1 3 1 Z " fill="#FFFFFF" transform="translate(65,194)"/>
<path d="M0 0 C3 1 3 1 3 1 Z " fill="#FFFFFF" transform="translate(135,192)"/>
<path d="M0 0 C3 1 3 1 3 1 Z " fill="#FFFFFF" transform="translate(60,192)"/>
<path d="" fill="#FFFFFF" transform="translate(0,0)"/>
<path d="" fill="#FFFFFF" transform="translate(0,0)"/>
<path d="" fill="#FFFFFF" transform="translate(0,0)"/>
<path d="" fill="#FFFFFF" transform="translate(0,0)"/>
<path d="" fill="#FFFFFF" transform="translate(0,0)"/>
<path d="" fill="#FFFFFF" transform="translate(0,0)"/>
<path d="M0 0 C3 1 3 1 3 1 Z " fill="#FFFFFF" transform="translate(137,6)"/>
<path d="M0 0 C3 1 3 1 3 1 Z " fill="#FFFFFF" transform="translate(132,4)"/>
<path d="M0 0 C3 1 3 1 3 1 Z " fill="#FFFFFF" transform="translate(63,4)"/>
<path d="M0 0 C3 1 3 1 3 1 Z " fill="#FFFFFF" transform="translate(129,3)"/>
<path d="M0 0 C3 1 3 1 3 1 Z " fill="#FFFFFF" transform="translate(66,3)"/>
<path d="M0 0 C3 1 3 1 3 1 Z " fill="#FFFFFF" transform="translate(126,2)"/>
<path d="M0 0 C3 1 3 1 3 1 Z " fill="#FFFFFF" transform="translate(73,1)"/>
<path d="M0 0 C2 1 2 1 2 1 Z " fill="#FFFFFF" transform="translate(133,193)"/>
<path d="M0 0 C2 1 2 1 2 1 Z " fill="#FFFFFF" transform="translate(63,193)"/>
<path d="M0 0 C2 1 2 1 2 1 Z " fill="#FFFFFF" transform="translate(138,191)"/>
<path d="M0 0 C2 1 2 1 2 1 Z " fill="#FFFFFF" transform="translate(58,191)"/>
<path d="M0 0 C2 1 2 1 2 1 Z " fill="#FFFFFF" transform="translate(140,190)"/>
<path d="M0 0 C2 1 2 1 2 1 Z " fill="#FFFFFF" transform="translate(56,190)"/>
<path d="M0 0 C2 1 2 1 2 1 Z " fill="#FFFFFF" transform="translate(142,189)"/>
<path d="M0 0 C2 1 2 1 2 1 Z " fill="#FFFFFF" transform="translate(54,189)"/>
<path d="M0 0 C2 1 2 1 2 1 Z " fill="#FFFFFF" transform="translate(144,188)"/>
<path d="M0 0 C2 1 2 1 2 1 Z " fill="#FFFFFF" transform="translate(52,188)"/>
<path d="M0 0 C2 1 2 1 2 1 Z " fill="#FFFFFF" transform="translate(146,187)"/>
<path d="M0 0 C2 1 2 1 2 1 Z " fill="#FFFFFF" transform="translate(50,187)"/>
<path d="M0 0 C2 1 2 1 2 1 Z " fill="#FFFFFF" transform="translate(148,186)"/>
<path d="M0 0 C2 1 2 1 2 1 Z " fill="#FFFFFF" transform="translate(47,185)"/>
<path d="M0 0 C2 1 2 1 2 1 Z " fill="#FFFFFF" transform="translate(151,184)"/>
<path d="M0 0 C2 1 2 1 2 1 Z " fill="#FFFFFF" transform="translate(45,184)"/>
<path d="M0 0 C2 1 2 1 2 1 Z " fill="#FFFFFF" transform="translate(154,182)"/>
<path d="M0 0 C2 1 2 1 2 1 Z " fill="#FFFFFF" transform="translate(42,182)"/>
<path d="M0 0 C2 1 2 1 2 1 Z " fill="#FFFFFF" transform="translate(157,180)"/>
<path d="M0 0 C2 1 2 1 2 1 Z " fill="#FFFFFF" transform="translate(38,179)"/>
<path d="M0 0 C2 1 2 1 2 1 Z " fill="#FFFFFF" transform="translate(162,176)"/>
<path d="M0 0 C2 1 2 1 2 1 Z " fill="#FFFFFF" transform="translate(32,174)"/>
<path d="" fill="#FFFFFF" transform="translate(0,0)"/>
<path d="" fill="#FFFFFF" transform="translate(0,0)"/>
<path d="" fill="#FFFFFF" transform="translate(0,0)"/>
<path d="" fill="#FFFFFF" transform="translate(0,0)"/>
<path d="" fill="#FFFFFF" transform="translate(0,0)"/>
<path d="" fill="#FFFFFF" transform="translate(0,0)"/>
<path d="" fill="#FFFFFF" transform="translate(0,0)"/>
<path d="" fill="#FFFFFF" transform="translate(0,0)"/>
<path d="M0 0 C2 1 2 1 2 1 Z " fill="#FFFFFF" transform="translate(164,23)"/>
<path d="M0 0 C2 1 2 1 2 1 Z " fill="#FFFFFF" transform="translate(37,19)"/>
<path d="M0 0 C2 1 2 1 2 1 Z " fill="#FFFFFF" transform="translate(158,18)"/>
<path d="M0 0 C2 1 2 1 2 1 Z " fill="#FFFFFF" transform="translate(155,16)"/>
<path d="M0 0 C2 1 2 1 2 1 Z " fill="#FFFFFF" transform="translate(41,16)"/>
<path d="M0 0 C2 1 2 1 2 1 Z " fill="#FFFFFF" transform="translate(152,14)"/>
<path d="M0 0 C2 1 2 1 2 1 Z " fill="#FFFFFF" transform="translate(44,14)"/>
<path d="M0 0 C2 1 2 1 2 1 Z " fill="#FFFFFF" transform="translate(149,12)"/>
<path d="M0 0 C2 1 2 1 2 1 Z " fill="#FFFFFF" transform="translate(47,12)"/>
<path d="M0 0 C2 1 2 1 2 1 Z " fill="#FFFFFF" transform="translate(147,11)"/>
<path d="M0 0 C2 1 2 1 2 1 Z " fill="#FFFFFF" transform="translate(49,11)"/>
<path d="M0 0 C2 1 2 1 2 1 Z " fill="#FFFFFF" transform="translate(51,10)"/>
<path d="M0 0 C2 1 2 1 2 1 Z " fill="#FFFFFF" transform="translate(144,9)"/>
<path d="M0 0 C2 1 2 1 2 1 Z " fill="#FFFFFF" transform="translate(53,9)"/>
<path d="M0 0 C2 1 2 1 2 1 Z " fill="#FFFFFF" transform="translate(142,8)"/>
<path d="M0 0 C2 1 2 1 2 1 Z " fill="#FFFFFF" transform="translate(55,8)"/>
<path d="M0 0 C2 1 2 1 2 1 Z " fill="#FFFFFF" transform="translate(140,7)"/>
<path d="M0 0 C2 1 2 1 2 1 Z " fill="#FFFFFF" transform="translate(57,7)"/>
<path d="M0 0 C2 1 2 1 2 1 Z " fill="#FFFFFF" transform="translate(59,6)"/>
<path d="M0 0 C2 1 2 1 2 1 Z " fill="#FFFFFF" transform="translate(135,5)"/>
<path d="M0 0 C2 1 2 1 2 1 Z " fill="#FFFFFF" transform="translate(61,5)"/>
<path d="" fill="#FFFFFF" transform="translate(0,0)"/>
<path d="" fill="#FFFFFF" transform="translate(0,0)"/>
<path d="" fill="#FFFFFF" transform="translate(0,0)"/>
<path d="" fill="#FFFFFF" transform="translate(0,0)"/>
<path d="" fill="#FFFFFF" transform="translate(0,0)"/>
<path d="" fill="#FFFFFF" transform="translate(0,0)"/>
<path d="" fill="#FFFFFF" transform="translate(0,0)"/>
<path d="" fill="#FFFFFF" transform="translate(0,0)"/>
<path d="" fill="#FFFFFF" transform="translate(0,0)"/>
<path d="" fill="#FFFFFF" transform="translate(0,0)"/>
<path d="" fill="#FFFFFF" transform="translate(0,0)"/>
<path d="" fill="#FFFFFF" transform="translate(0,0)"/>
<path d="" fill="#FFFFFF" transform="translate(0,0)"/>
<path d="" fill="#FFFFFF" transform="translate(0,0)"/>
<path d="" fill="#FFFFFF" transform="translate(0,0)"/>
<path d="" fill="#FFFFFF" transform="translate(0,0)"/>
<path d="" fill="#FFFFFF" transform="translate(0,0)"/>
<path d="" fill="#FFFFFF" transform="translate(0,0)"/>
<path d="" fill="#FFFFFF" transform="translate(0,0)"/>
<path d="" fill="#FFFFFF" transform="translate(0,0)"/>
<path d="" fill="#FFFFFF" transform="translate(0,0)"/>
<path d="" fill="#FFFFFF" transform="translate(0,0)"/>
<path d="" fill="#FFFFFF" transform="translate(0,0)"/>
<path d="" fill="#FFFFFF" transform="translate(0,0)"/>
<path d="" fill="#FFFFFF" transform="translate(0,0)"/>
<path d="" fill="#FFFFFF" transform="translate(0,0)"/>
<path d="" fill="#FFFFFF" transform="translate(0,0)"/>
<path d="" fill="#FFFFFF" transform="translate(0,0)"/>
<path d="" fill="#FFFFFF" transform="translate(0,0)"/>
<path d="" fill="#FFFFFF" transform="translate(0,0)"/>
<path d="" fill="#FFFFFF" transform="translate(0,0)"/>
<path d="" fill="#FFFFFF" transform="translate(0,0)"/>
<path d="" fill="#FFFFFF" transform="translate(0,0)"/>
<path d="" fill="#FFFFFF" transform="translate(0,0)"/>
<path d="" fill="#FFFFFF" transform="translate(0,0)"/>
<path d="" fill="#FFFFFF" transform="translate(0,0)"/>
<path d="" fill="#FFFFFF" transform="translate(0,0)"/>
<path d="" fill="#FFFFFF" transform="translate(0,0)"/>
<path d="" fill="#FFFFFF" transform="translate(0,0)"/>
<path d="" fill="#FFFFFF" transform="translate(0,0)"/>
<path d="" fill="#FFFFFF" transform="translate(0,0)"/>
<path d="" fill="#FFFFFF" transform="translate(0,0)"/>
<path d="" fill="#FFFFFF" transform="translate(0,0)"/>
<path d="" fill="#FFFFFF" transform="translate(0,0)"/>
<path d="" fill="#FFFFFF" transform="translate(0,0)"/>
<path d="" fill="#FFFFFF" transform="translate(0,0)"/>
<path d="" fill="#FFFFFF" transform="translate(0,0)"/>
<path d="" fill="#FFFFFF" transform="translate(0,0)"/>
<path d="" fill="#FFFFFF" transform="translate(0,0)"/>
<path d="" fill="#FFFFFF" transform="translate(0,0)"/>
<path d="" fill="#FFFFFF" transform="translate(0,0)"/>
<path d="" fill="#FFFFFF" transform="translate(0,0)"/>
<path d="" fill="#FFFFFF" transform="translate(0,0)"/>
<path d="" fill="#FFFFFF" transform="translate(0,0)"/>
<path d="" fill="#FFFFFF" transform="translate(0,0)"/>
<path d="" fill="#FFFFFF" transform="translate(0,0)"/>
<path d="" fill="#FFFFFF" transform="translate(0,0)"/>
<path d="" fill="#FFFFFF" transform="translate(0,0)"/>
<path d="" fill="#FFFFFF" transform="translate(0,0)"/>
<path d="" fill="#FFFFFF" transform="translate(0,0)"/>
<path d="" fill="#FFFFFF" transform="translate(0,0)"/>
<path d="" fill="#FFFFFF" transform="translate(0,0)"/>
<path d="" fill="#FFFFFF" transform="translate(0,0)"/>
<path d="" fill="#FFFFFF" transform="translate(0,0)"/>
</svg>
