<svg xmlns="http://www.w3.org/2000/svg" width="256" height="256" fill="none" xmlns:v="https://vecta.io/nano"><g clip-path="url(#A)"><path d="M128 256c70.692 0 128-57.308 128-128S198.692 0 128 0 0 57.308 0 128s57.308 128 128 128z" fill="#000"/><circle cx="128" cy="128" r="112" fill="#fff"/><circle cx="128" cy="128" r="104" fill="#000"/><g fill="#fff"><path d="M77.088 173.702c-1.265-1.098-.952-2.663 0-3.551l7.708-7.695 2.614-2.691 3.316-3.82c2.634-3.696 1.851-17.318-2.372-21.308-5.929-6.511-19.33-18.231-23.124-24.86-4.743-8.287-.836-12.643 1.779-15.981 1.299-1.659 2.239-1.046 2.965 0 6.127 6.511 20.397 20.709 26.682 27.227 6.256 6.487 10.431 11.719 11.893 20.266 4.071 23.8-18.32 38.048-20.194 40.108-1.487 1.634-2.569 1.183-2.965.592l-8.301-8.287zm4.498-96.223c1.092-1.27 2.659-.965 3.551-.017l7.732 7.671 2.704 2.601 3.836 3.297c3.709 2.616 17.327 1.768 21.297-2.475 6.482-5.961 18.137-19.418 24.748-23.244 8.263-4.783 12.638-.897 15.989 1.701 1.666 1.291 1.057 2.234.015 2.965-6.481 6.159-20.611 20.496-27.098 26.814-6.457 6.287-11.669 10.487-20.208 11.991-23.78 4.186-38.137-18.136-40.205-20-1.642-1.479-1.196-2.564-.606-2.962l8.246-8.341zm95.204 5.502c1.28 1.08.989 2.65.049 3.551l-7.6 7.801-2.576 2.727-3.263 3.866c-2.582 3.732-1.611 17.342 2.668 21.273 6.019 6.428 19.581 17.961 23.467 24.537 4.858 8.219 1.011 12.629-1.557 16.004-1.276 1.677-2.224 1.077-2.964.041-6.217-6.425-20.682-20.424-27.058-26.854-6.345-6.4-10.592-11.573-12.173-20.099-4.401-23.741 17.79-38.299 19.635-40.384 1.465-1.655 2.553-1.219 2.956-.633l8.416 8.17zm-4.49 94.701c-1.09 1.271-2.657.968-3.551.022l-7.743-7.66-2.708-2.596-3.84-3.292c-3.713-2.611-17.33-1.742-21.293 2.506-6.474 5.97-18.109 19.444-24.714 23.281-8.256 4.796-12.637.915-15.992-1.678-1.667-1.289-1.06-2.232-.019-2.965 6.472-6.168 20.581-20.526 27.059-26.853 6.447-6.297 11.653-10.505 20.19-12.02 23.774-4.221 38.163 18.079 40.235 19.94 1.643 1.477 1.2 2.562.61 2.961l-8.234 8.354z"/></g></g><defs><clipPath id="A"><path fill="#fff" d="M0 0h256v256H0z"/></clipPath></defs></svg>