<svg xmlns="http://www.w3.org/2000/svg" width="256" height="256" fill="none" xmlns:v="https://vecta.io/nano"><g clip-path="url(#D)"><path d="M128 256c70.692 0 128-57.308 128-128S198.692 0 128 0 0 57.308 0 128s57.308 128 128 128z" fill="#111523"/><path d="M44.448 186.746a105.32 105.32 0 0 0 32.612 29.59c12.834 7.455 27.099 12.113 41.861 13.668-7.594-11.428-18.633-21.942-32.414-29.946s-28.375-12.377-42.059-13.312z" fill="url(#A)"/><path d="M105.025 168.185c-26.55-15.424-55.287-19.355-75.849-12.411a105.78 105.78 0 0 0 7.817 18.967c17.865-.414 37.37 4.438 55.52 14.98s32.031 25.091 40.526 40.818c6.855-.211 13.673-1.084 20.36-2.607-4.156-21.299-21.831-44.318-48.374-59.747z" fill="url(#A)"/><path d="M231.547 105.575c-3.376-13.73-9.483-26.64-17.959-37.957s-19.145-20.811-31.371-27.914a105.24 105.24 0 0 0-39.788-13.426c-14.03-1.757-28.269-.669-41.869 3.199 22.72 2.781 47.94 11.31 72.672 25.678s44.652 32.049 58.315 50.421z" fill="url(#B)"/><path d="M198.49 155.931c-11.63-19.314-31.552-37.808-56.093-52.065S91.926 81.465 69.408 80.927c-19.811-.469-34.68 5.29-40.783 15.797-.035.063-.083.122-.122.184a105.72 105.72 0 0 0-1.453 5.926c8.522-3.365 18.397-5.238 29.376-5.447 24.417-.459 51.742 7.351 76.958 22.001s45.552 34.527 57.244 55.958c5.242 9.656 8.512 19.162 9.808 28.243a99.7 99.7 0 0 0 4.425-4.191c.038-.066.063-.136.101-.206 6.103-10.517 3.743-26.282-6.472-43.261z" fill="url(#C)"/><path d="M123.725 136.001c-37.583-21.834-79.113-25.254-99.084-10.016a104.86 104.86 0 0 0 1.091 14.25c5.875-1.781 11.93-2.902 18.053-3.344 22.317-1.679 46.922 4.539 69.249 17.517s39.929 31.281 49.528 51.486c2.654 5.534 4.678 11.35 6.035 17.336a105.57 105.57 0 0 0 12.925-6.106c3.344-24.9-20.203-59.285-57.796-81.123z" fill="url(#B)"/><path d="M217.821 123.604c-11.762-19.293-31.859-37.839-56.574-52.19s-50.744-22.623-73.336-23.287c-17.222-.497-30.562 3.677-37.478 11.564 28.719-4.866 66.6 3.312 103.317 24.642s62.597 50.192 72.586 77.548c3.424-9.908.445-23.564-8.515-38.277z" fill="url(#A)"/></g><defs><linearGradient id="A" x1="162.428" y1="67.117" x2="67.365" y2="230.539" gradientUnits="userSpaceOnUse"><stop offset="0" stop-color="#a4d756"/><stop offset="1" stop-color="#00b6e7"/></linearGradient><linearGradient id="B" x1="162.428" y1="67.118" x2="67.365" y2="230.539" gradientUnits="userSpaceOnUse"><stop offset="0" stop-color="#a4d756"/><stop offset="1" stop-color="#00b6e7"/></linearGradient><linearGradient id="C" x1="162.428" y1="67.117" x2="67.366" y2="230.539" gradientUnits="userSpaceOnUse"><stop offset="0" stop-color="#a4d756"/><stop offset="1" stop-color="#00b6e7"/></linearGradient><clipPath id="D"><path fill="#fff" d="M0 0h256v256H0z"/></clipPath></defs></svg>