<svg xmlns="http://www.w3.org/2000/svg" width="256" height="256" fill="none" xmlns:v="https://vecta.io/nano"><g clip-path="url(#A)"><path d="M244.44 81.691c-6.273-15.099-16.092-29.112-27.456-40.46-11.363-11.382-25.879-19.901-40.953-26.184C161.483 9.026 145.325 6 128.608 6s-33.892.592-48.408 6.645c-15.074 6.25-27.685 18.125-39.048 29.507C29.789 53.5 16.619 65.572 10.379 80.671c-6.043 14.572-4.072 32.303-4.072 49.046s1.215 33.191 7.258 47.763c6.24 15.066 18.95 25.757 30.313 37.106 11.363 11.381 21.642 25 36.717 31.25C95.143 251.888 111.892 256 128.608 256s33.137-4.967 47.653-11.02c15.074-6.25 28.704-16.019 40.034-27.401 11.363-11.382 20.526-25.263 26.766-40.362 6.042-14.572 12.939-30.756 12.939-47.5s-5.55-33.487-11.56-48.026zm-80.823 119.408l-26.503-3.948 7.587-51.315-55.469 42.763-16.289-21.349 48.638-37.533-48.638-37.5 16.289-21.349 55.47 42.764-7.587-51.316 26.503-3.947 10.509 71.349-10.509 71.382z" fill="#6fc7ba"/></g><defs><clipPath id="A"><path fill="#fff" d="M0 0h256v256H0z"/></clipPath></defs></svg>