<?xml version="1.0" encoding="UTF-8"?>
<svg version="1.1" xmlns="http://www.w3.org/2000/svg" width="200" height="200">
<path d="M0 0 C2.82045877 2.30263418 5.56336058 4.67903285 8.27832031 7.10449219 C11.1535235 9.666713 11.1535235 9.666713 14.50878906 11.77246094 C17.18066406 13.58496094 17.18066406 13.58496094 17.86816406 15.77246094 C18.02285156 16.66964844 18.02285156 16.66964844 18.18066406 17.58496094 C19.17066406 17.91496094 20.16066406 18.24496094 21.18066406 18.58496094 C21.51066406 19.57496094 21.84066406 20.56496094 22.18066406 21.58496094 C22.78394531 22.1740625 23.38722656 22.76316406 24.00878906 23.37011719 C26.61161449 26.02443736 28.16331475 28.75588582 29.93066406 32.02246094 C30.85105469 33.69115234 30.85105469 33.69115234 31.79003906 35.39355469 C33.13514811 38.48050439 33.50200878 40.27881822 33.18066406 43.58496094 C33.84066406 43.58496094 34.50066406 43.58496094 35.18066406 43.58496094 C39.64424539 56.0781479 40.85665551 67.12735329 40.55566406 80.33496094 C40.53909422 82.04587815 40.52476266 83.75681854 40.51269531 85.46777344 C40.3702832 98.68935945 40.3702832 98.68935945 39.18066406 103.58496094 C38.52066406 103.58496094 37.86066406 103.58496094 37.18066406 103.58496094 C37.18066406 105.89496094 37.18066406 108.20496094 37.18066406 110.58496094 C36.52066406 110.58496094 35.86066406 110.58496094 35.18066406 110.58496094 C34.52066406 113.88496094 33.86066406 117.18496094 33.18066406 120.58496094 C32.52066406 120.58496094 31.86066406 120.58496094 31.18066406 120.58496094 C31.10589844 121.42542969 31.03113281 122.26589844 30.95410156 123.13183594 C30.00301116 127.37811833 28.20111083 130.25695184 25.80566406 133.83496094 C25.40605469 134.45886719 25.00644531 135.08277344 24.59472656 135.72558594 C22.64505024 138.70140769 21.175244 140.58857431 18.18066406 142.58496094 C17.87128906 143.24496094 17.56191406 143.90496094 17.24316406 144.58496094 C16.18066406 146.58496094 16.18066406 146.58496094 14.29394531 147.52246094 C12.05773456 148.64676653 10.95666201 149.72870379 9.30566406 151.58496094 C-7.5531495 168.76523493 -31.7922615 178.47350042 -55.67724609 178.87768555 C-83.14890277 179.03784131 -105.50892955 171.73865683 -126.31811523 153.40429688 C-129.3378039 150.75277047 -132.36813316 148.62599484 -135.81933594 146.58496094 C-136.52084746 145.26962683 -137.18459519 143.93378502 -137.81933594 142.58496094 C-139.08777344 141.37839844 -139.08777344 141.37839844 -140.38183594 140.14746094 C-142.93144067 137.46710724 -143.50996572 136.19428011 -143.81933594 132.58496094 C-144.80933594 132.25496094 -145.79933594 131.92496094 -146.81933594 131.58496094 C-150.62798259 125.57828936 -153.21756631 119.65575401 -153.81933594 112.58496094 C-154.47933594 111.59496094 -155.13933594 110.60496094 -155.81933594 109.58496094 C-156.19144014 108.26192377 -156.52563767 106.92758159 -156.81933594 105.58496094 C-157.14933594 104.59496094 -157.47933594 103.60496094 -157.81933594 102.58496094 C-158.14933594 102.58496094 -158.47933594 102.58496094 -158.81933594 102.58496094 C-158.87027326 96.32278946 -158.90516878 90.06067193 -158.92919922 83.79833984 C-158.93922299 81.67038984 -158.95284555 79.5424535 -158.97021484 77.41455078 C-158.99462286 74.34631976 -159.00585555 71.27827173 -159.01464844 68.20996094 C-159.02497101 67.26693115 -159.03529358 66.32390137 -159.04592896 65.35229492 C-159.04686971 59.74541582 -158.41278806 54.96630789 -156.81933594 49.58496094 C-156.15933594 49.58496094 -155.49933594 49.58496094 -154.81933594 49.58496094 C-154.69816406 48.88628906 -154.57699219 48.18761719 -154.45214844 47.46777344 C-154.28457031 46.55769531 -154.11699219 45.64761719 -153.94433594 44.70996094 C-153.78191406 43.80503906 -153.61949219 42.90011719 -153.45214844 41.96777344 C-152.81933594 39.58496094 -152.81933594 39.58496094 -150.81933594 37.58496094 C-149.71378412 35.63398714 -148.89319267 33.94732054 -148.44433594 31.74511719 C-147.67559861 29.08816878 -146.42875814 27.18569548 -144.88183594 24.89746094 C-144.3571875 24.10984375 -143.83253906 23.32222656 -143.29199219 22.51074219 C-141.81933594 20.58496094 -141.81933594 20.58496094 -139.81933594 19.58496094 C-139.48933594 18.59496094 -139.15933594 17.60496094 -138.81933594 16.58496094 C-138.25988281 16.318125 -137.70042969 16.05128906 -137.12402344 15.77636719 C-133.75454168 14.03451645 -131.50732154 11.25605376 -128.94433594 8.52246094 C-95.59880991 -25.77011212 -37.69548479 -29.31871039 0 0 Z M34.18066406 46.58496094 C35.18066406 48.58496094 35.18066406 48.58496094 35.18066406 48.58496094 Z M35.18066406 49.58496094 C36.18066406 51.58496094 36.18066406 51.58496094 36.18066406 51.58496094 Z M36.18066406 52.58496094 C37.18066406 55.58496094 37.18066406 55.58496094 37.18066406 55.58496094 Z M-156.81933594 53.58496094 C-155.81933594 56.58496094 -155.81933594 56.58496094 -155.81933594 56.58496094 Z M37.18066406 56.58496094 C38.18066406 59.58496094 38.18066406 59.58496094 38.18066406 59.58496094 Z M-157.81933594 57.58496094 C-156.81933594 61.58496094 -156.81933594 61.58496094 -156.81933594 61.58496094 Z M38.18066406 60.58496094 C38.18066406 62.23496094 38.18066406 63.88496094 38.18066406 65.58496094 C38.51066406 65.58496094 38.84066406 65.58496094 39.18066406 65.58496094 C39.18066406 63.93496094 39.18066406 62.28496094 39.18066406 60.58496094 C38.85066406 60.58496094 38.52066406 60.58496094 38.18066406 60.58496094 Z M38.18066406 93.58496094 C38.18066406 95.23496094 38.18066406 96.88496094 38.18066406 98.58496094 C38.51066406 98.58496094 38.84066406 98.58496094 39.18066406 98.58496094 C39.18066406 96.93496094 39.18066406 95.28496094 39.18066406 93.58496094 C38.85066406 93.58496094 38.52066406 93.58496094 38.18066406 93.58496094 Z " fill="#FFFEFE" transform="translate(158.8193359375,19.4150390625)"/>
<path d="M0 0 C5.18814015 -0.44874657 8.47951414 0.92445686 12.8125 3.5625 C13.42633545 3.92601562 14.0401709 4.28953125 14.67260742 4.6640625 C22.50000807 9.38538442 29.26538307 15.09668485 35.95703125 21.30078125 C37.92135853 23.06836551 37.92135853 23.06836551 40.2265625 24.1015625 C40.81179687 24.39804687 41.39703125 24.69453125 42 25 C42.36162029 26.32594105 42.69728039 27.65938457 43 29 C44.485 29.495 44.485 29.495 46 30 C46.495 31.485 46.495 31.485 47 33 C47.60328125 33.58910156 48.2065625 34.17820313 48.828125 34.78515625 C51.43095043 37.43947643 52.98265069 40.17092488 54.75 43.4375 C55.36359375 44.54996094 55.9771875 45.66242187 56.609375 46.80859375 C57.95448405 49.89554345 58.32134471 51.69385728 58 55 C58.66 55 59.32 55 60 55 C64.46358133 67.49318697 65.67599145 78.54239235 65.375 91.75 C65.35843016 93.46091721 65.3440986 95.1718576 65.33203125 96.8828125 C65.18961913 110.10439851 65.18961913 110.10439851 64 115 C63.34 115 62.68 115 62 115 C62 117.31 62 119.62 62 122 C61.34 122 60.68 122 60 122 C59.34 125.3 58.68 128.6 58 132 C57.34 132 56.68 132 56 132 C55.92523438 132.84046875 55.85046875 133.6809375 55.7734375 134.546875 C54.8223471 138.79315739 53.02044677 141.6719909 50.625 145.25 C50.22539062 145.87390625 49.82578125 146.4978125 49.4140625 147.140625 C47.46438618 150.11644676 45.99457994 152.00361337 43 154 C42.5359375 154.99 42.5359375 154.99 42.0625 156 C41 158 41 158 39.11328125 158.9375 C36.8770705 160.06180559 35.77599795 161.14374285 34.125 163 C24.69040104 172.63533511 13.28786079 178.8026135 1 184 C-2.50701746 180.61646907 -5.56127084 177.13475841 -8.5 173.25 C-9.37890482 172.09374891 -10.25781114 170.93749897 -11.13671875 169.78125 C-11.59997559 169.16894531 -12.06323242 168.55664062 -12.54052734 167.92578125 C-14.57840737 165.23678867 -16.63031703 162.55862589 -18.68164062 159.87988281 C-20.33719165 157.717753 -21.99109346 155.55437119 -23.64453125 153.390625 C-26.38927991 149.79894809 -29.13483428 146.20788859 -31.88085938 142.6171875 C-33.50790952 140.48965751 -35.13481377 138.362016 -36.76171875 136.234375 C-39.41555966 132.76390637 -42.07019455 129.29404677 -44.72583008 125.82495117 C-45.78035822 124.4459029 -46.83358991 123.06586225 -47.88549805 121.68481445 C-51.02203821 117.56932087 -54.18632018 113.47761519 -57.375 109.40234375 C-58.11194092 108.45327148 -58.84888184 107.50419922 -59.6081543 106.52636719 C-61.05506778 104.66295928 -62.50943956 102.80531398 -63.97192383 100.95410156 C-64.62700928 100.10686523 -65.28209473 99.25962891 -65.95703125 98.38671875 C-66.54460205 97.63608154 -67.13217285 96.88544434 -67.73754883 96.11206055 C-69 94 -69 94 -69 90 C-67.515 89.505 -67.515 89.505 -66 89 C-65.6278958 87.67696283 -65.29369827 86.34262065 -65 85 C-64.01 84.505 -64.01 84.505 -63 84 C-62.67 83.01 -62.34 82.02 -62 81 C-61.01 80.505 -61.01 80.505 -60 80 C-59.67 79.01 -59.34 78.02 -59 77 C-58.01 76.505 -58.01 76.505 -57 76 C-56.67 75.01 -56.34 74.02 -56 73 C-55.01 72.505 -55.01 72.505 -54 72 C-53.67 71.34 -53.34 70.68 -53 70 C-52 68 -52 68 -50 67 C-49.505 65.515 -49.505 65.515 -49 64 C-48.01 63.505 -48.01 63.505 -47 63 C-46.67 62.01 -46.34 61.02 -46 60 C-45.01 59.505 -45.01 59.505 -44 59 C-43.67 58.01 -43.34 57.02 -43 56 C-42.01 55.505 -42.01 55.505 -41 55 C-40.67 54.34 -40.34 53.68 -40 53 C-39 51 -39 51 -37 50 C-36.67 49.01 -36.34 48.02 -36 47 C-35.34 46.67 -34.68 46.34 -34 46 C-33.67 45.01 -33.34 44.02 -33 43 C-32.34 42.67 -31.68 42.34 -31 42 C-30.67 41.01 -30.34 40.02 -30 39 C-29.34 38.67 -28.68 38.34 -28 38 C-27.505 37.01 -27.505 37.01 -27 36 C-26 34 -26 34 -24 33 C-23.67 32.01 -23.34 31.02 -23 30 C-22.34 29.67 -21.68 29.34 -21 29 C-20.505 27.515 -20.505 27.515 -20 26 C-19.34 25.67 -18.68 25.34 -18 25 C-17.505 23.515 -17.505 23.515 -17 22 C-16.34 21.67 -15.68 21.34 -15 21 C-14.67 20.34 -14.34 19.68 -14 19 C-13 17 -13 17 -11 16 C-10.67 15.01 -10.34 14.02 -10 13 C-9.34 12.67 -8.68 12.34 -8 12 C-7.67 11.01 -7.34 10.02 -7 9 C-6.34 8.67 -5.68 8.34 -5 8 C-4.67 7.01 -4.34 6.02 -4 5 C-3.34 4.67 -2.68 4.34 -2 4 C-0.86649466 1.98330173 -0.86649466 1.98330173 0 0 Z M59 58 C60 60 60 60 60 60 Z M60 61 C61 63 61 63 61 63 Z M61 64 C62 67 62 67 62 67 Z M62 68 C63 71 63 71 63 71 Z M63 72 C63 73.65 63 75.3 63 77 C63.33 77 63.66 77 64 77 C64 75.35 64 73.7 64 72 C63.67 72 63.34 72 63 72 Z M63 105 C63 106.65 63 108.3 63 110 C63.33 110 63.66 110 64 110 C64 108.35 64 106.7 64 105 C63.67 105 63.34 105 63 105 Z " fill="#FF5751" transform="translate(134,8)"/>
<path d="M0 0 C2.71224618 1.61268692 5.37352812 3.24901874 8 5 C8.2475 6.0209375 8.2475 6.0209375 8.5 7.0625 C8.7475 8.0215625 8.7475 8.0215625 9 9 C9.99 9.33 10.98 9.66 12 10 C12.495 11.485 12.495 11.485 13 13 C13.60328125 13.58910156 14.2065625 14.17820312 14.828125 14.78515625 C17.43095043 17.43947643 18.98265069 20.17092488 20.75 23.4375 C21.36359375 24.54996094 21.9771875 25.66242187 22.609375 26.80859375 C23.95448405 29.89554345 24.32134471 31.69385728 24 35 C24.66 35 25.32 35 26 35 C30.46358133 47.49318697 31.67599145 58.54239235 31.375 71.75 C31.35843016 73.46091721 31.3440986 75.1718576 31.33203125 76.8828125 C31.18961913 90.10439851 31.18961913 90.10439851 30 95 C29.34 95 28.68 95 28 95 C28 97.31 28 99.62 28 102 C27.34 102 26.68 102 26 102 C25.34 105.3 24.68 108.6 24 112 C23.34 112 22.68 112 22 112 C21.92523438 112.84046875 21.85046875 113.6809375 21.7734375 114.546875 C20.8223471 118.79315739 19.02044677 121.6719909 16.625 125.25 C16.22539062 125.87390625 15.82578125 126.4978125 15.4140625 127.140625 C13.46438618 130.11644676 11.99457994 132.00361337 9 134 C8.690625 134.66 8.38125 135.32 8.0625 136 C6.72559536 138.51652638 5.59810804 138.93019081 3 140 C2.2575 140.37125 1.515 140.7425 0.75 141.125 C-0.11625 141.558125 -0.11625 141.558125 -1 142 C-1.99 141.34 -2.98 140.68 -4 140 C-4 139.34 -4 138.68 -4 138 C-4.99 137.34 -5.98 136.68 -7 136 C-8.77834981 134.35844633 -9.91317885 133.17364229 -11 131 C-12.48704951 128.97220521 -14.01441679 126.9815465 -15.5625 125 C-16.95679759 123.06010771 -17.93428197 121.13143606 -19 119 C-19.53625 118.29875 -20.0725 117.5975 -20.625 116.875 C-22 115 -22 115 -22 113 C-23.485 112.505 -23.485 112.505 -25 112 C-25 111.01 -25 110.02 -25 109 C-26.485 108.505 -26.485 108.505 -28 108 C-29.01187895 106.34051852 -30.0126546 104.67419438 -31 103 C-31.66 103 -32.32 103 -33 103 C-34 101 -35 99 -36 97 C-36.66 96.34 -37.32 95.68 -38 95 C-38 94.34 -38 93.68 -38 93 C-38.99 92.34 -39.98 91.68 -41 91 C-41 90.34 -41 89.68 -41 89 C-41.99 88.34 -42.98 87.68 -44 87 C-45.125 85 -45.125 85 -46 83 C-46.95865509 80.66924071 -46.95865509 80.66924071 -50 79 C-52.40338351 76.59661649 -52.98290157 74.21373036 -53.25 70.875 C-52.96353217 67.5806199 -52.22477726 67.22477726 -50 65 C-49.34 64.01 -48.68 63.02 -48 62 C-47 61 -47 61 -44 59 C-44 58.01 -44 57.02 -44 56 C-42.515 55.505 -42.515 55.505 -41 55 C-41 54.01 -41 53.02 -41 52 C-39.515 51.505 -39.515 51.505 -38 51 C-38 50.01 -38 49.02 -38 48 C-36.515 47.505 -36.515 47.505 -35 47 C-34.26676204 44.98491642 -34.26676204 44.98491642 -34 43 C-33.01 43 -32.02 43 -31 43 C-31.33 42.01 -31.66 41.02 -32 40 C-31.566875 39.5875 -31.13375 39.175 -30.6875 38.75 C-28.93491004 36.9324993 -27.484334 35.04095924 -26 33 C-20 25 -14 17 -8 9 C-7.46375 8.278125 -6.9275 7.55625 -6.375 6.8125 C-5 5 -5 5 -4 4 C-3.34 3.01 -2.68 2.02 -2 1 C-1.505 1.495 -1.505 1.495 -1 2 C-0.67 1.34 -0.34 0.68 0 0 Z M25 38 C26 40 26 40 26 40 Z M26 41 C27 43 27 43 27 43 Z M27 44 C28 47 28 47 28 47 Z M28 48 C29 51 29 51 29 51 Z M29 52 C29 53.65 29 55.3 29 57 C29.33 57 29.66 57 30 57 C30 55.35 30 53.7 30 52 C29.67 52 29.34 52 29 52 Z M29 85 C29 86.65 29 88.3 29 90 C29.33 90 29.66 90 30 90 C30 88.35 30 86.7 30 85 C29.67 85 29.34 85 29 85 Z " fill="#FFFDFD" transform="translate(168,28)"/>
<path d="M0 0 C0 57.09 0 114.18 0 173 C-6.28491872 169.22904877 -11.51110045 166.0684607 -16.8125 161.3125 C-20.37323272 158.15649385 -23.89443998 155.42500762 -28 153 C-28.70151152 151.6846659 -29.36525925 150.34882408 -30 149 C-31.2684375 147.7934375 -31.2684375 147.7934375 -32.5625 146.5625 C-35.11210474 143.8821463 -35.69062979 142.60931917 -36 139 C-36.99 138.67 -37.98 138.34 -39 138 C-42.80864665 131.99332842 -45.39823038 126.07079307 -46 119 C-46.66 118.01 -47.32 117.02 -48 116 C-48.3721042 114.67696283 -48.70630173 113.34262065 -49 112 C-49.33 111.01 -49.66 110.02 -50 109 C-50.33 109 -50.66 109 -51 109 C-51.05093732 102.73782852 -51.08583284 96.47571099 -51.10986328 90.21337891 C-51.11988705 88.08542891 -51.13350961 85.95749256 -51.15087891 83.82958984 C-51.17528692 80.76135882 -51.18651961 77.6933108 -51.1953125 74.625 C-51.20563507 73.68197021 -51.21595764 72.73894043 -51.22659302 71.76733398 C-51.22753377 66.16045488 -50.59345212 61.38134696 -49 56 C-48.34 56 -47.68 56 -47 56 C-46.87882812 55.30132812 -46.75765625 54.60265625 -46.6328125 53.8828125 C-46.46523438 52.97273438 -46.29765625 52.06265625 -46.125 51.125 C-45.96257813 50.22007813 -45.80015625 49.31515625 -45.6328125 48.3828125 C-45 46 -45 46 -43 44 C-41.89444818 42.0490262 -41.07385673 40.3623596 -40.625 38.16015625 C-39.85626267 35.50320785 -38.6094222 33.60073455 -37.0625 31.3125 C-36.53785156 30.52488281 -36.01320313 29.73726562 -35.47265625 28.92578125 C-34 27 -34 27 -32 26 C-31.67 25.01 -31.34 24.02 -31 23 C-30.443125 22.73445313 -29.88625 22.46890625 -29.3125 22.1953125 C-25.90606057 20.43455158 -23.60136864 17.63105932 -21 14.875 C-6.58294619 -0 -6.58294619 -0 0 0 Z M-49 60 C-48 63 -48 63 -48 63 Z M-50 64 C-49 68 -49 68 -49 68 Z " fill="#FF5852" transform="translate(51,13)"/>
<path d="M0 0 C0.33 0 0.66 0 1 0 C1 32.01 1 64.02 1 97 C0.01 97.495 0.01 97.495 -1 98 C-4.11593017 92.28554504 -6.33085208 87.55764966 -7 81 C-7.66 80.01 -8.32 79.02 -9 78 C-9.3721042 76.67696283 -9.70630173 75.34262065 -10 74 C-10.33 73.01 -10.66 72.02 -11 71 C-11.33 71 -11.66 71 -12 71 C-12.05093732 64.73782852 -12.08583284 58.47571099 -12.10986328 52.21337891 C-12.11988705 50.08542891 -12.13350961 47.95749256 -12.15087891 45.82958984 C-12.17528692 42.76135882 -12.18651961 39.6933108 -12.1953125 36.625 C-12.20563507 35.68197021 -12.21595764 34.73894043 -12.22659302 33.76733398 C-12.22753377 28.16045488 -11.59345212 23.38134696 -10 18 C-9.34 18 -8.68 18 -8 18 C-7.81824219 16.95199219 -7.81824219 16.95199219 -7.6328125 15.8828125 C-7.38144531 14.51769531 -7.38144531 14.51769531 -7.125 13.125 C-6.96257813 12.22007813 -6.80015625 11.31515625 -6.6328125 10.3828125 C-6 8 -6 8 -4 6 C-3.67 5.34 -3.34 4.68 -3 4 C-2 2 -2 2 0 0 Z M-10 22 C-9 25 -9 25 -9 25 Z M-11 26 C-10 30 -10 30 -10 30 Z " fill="#FFFFFF" transform="translate(12,51)"/>
<path d="M0 0 C8.58 0 17.16 0 26 0 C26 0.33 26 0.66 26 1 C17.42 1 8.84 1 0 1 C0 0.67 0 0.34 0 0 Z " fill="#FFFFFF" transform="translate(86,199)"/>
<path d="M0 0 C0.33 0 0.66 0 1 0 C1 8.58 1 17.16 1 26 C0.67 26 0.34 26 0 26 C0 17.42 0 8.84 0 0 Z " fill="#FFFFFF" transform="translate(199,86)"/>
<path d="M0 0 C0.66 0.33 1.32 0.66 2 1 C-0.31 3.31 -2.62 5.62 -5 8 C-5 5 -5 5 -2.5 2.3125 C-1.675 1.549375 -0.85 0.78625 0 0 Z " fill="#FF564F" transform="translate(30,25)"/>
<path d="M0 0 C1.98 0 3.96 0 6 0 C6 0.33 6 0.66 6 1 C4.02 1 2.04 1 0 1 C0 0.67 0 0.34 0 0 Z " fill="#FFFFFF" transform="translate(112,198)"/>
<path d="M0 0 C1.98 0 3.96 0 6 0 C6 0.33 6 0.66 6 1 C4.02 1 2.04 1 0 1 C0 0.67 0 0.34 0 0 Z " fill="#FFFFFF" transform="translate(80,198)"/>
<path d="M0 0 C1.65 0 3.3 0 5 0 C5 0.33 5 0.66 5 1 C3.35 1 1.7 1 0 1 C0 0.67 0 0.34 0 0 Z " fill="#FFFFFF" transform="translate(118,197)"/>
<path d="M0 0 C1.65 0 3.3 0 5 0 C5 0.33 5 0.66 5 1 C3.35 1 1.7 1 0 1 C0 0.67 0 0.34 0 0 Z " fill="#FFFFFF" transform="translate(75,197)"/>
<path d="M0 0 C1.65 0 3.3 0 5 0 C5 0.33 5 0.66 5 1 C3.35 1 1.7 1 0 1 C0 0.67 0 0.34 0 0 Z " fill="#FFFFFF" transform="translate(117,0)"/>
<path d="M0 0 C1.65 0 3.3 0 5 0 C5 0.33 5 0.66 5 1 C3.35 1 1.7 1 0 1 C0 0.67 0 0.34 0 0 Z " fill="#FFFFFF" transform="translate(76,0)"/>
<path d="M0 0 C4 1 4 1 4 1 Z " fill="#FFFFFF" transform="translate(123,196)"/>
<path d="M0 0 C4 1 4 1 4 1 Z " fill="#FFFFFF" transform="translate(68,195)"/>
<path d="M0 0 C4 1 4 1 4 1 Z " fill="#FFFFFF" transform="translate(69,2)"/>
<path d="M0 0 C4 1 4 1 4 1 Z " fill="#FFFFFF" transform="translate(122,1)"/>
<path d="M0 0 C3 1 3 1 3 1 Z " fill="#FFFFFF" transform="translate(72,196)"/>
<path d="M0 0 C3 1 3 1 3 1 Z " fill="#FFFFFF" transform="translate(127,195)"/>
<path d="M0 0 C3 1 3 1 3 1 Z " fill="#FFFFFF" transform="translate(130,194)"/>
<path d="M0 0 C3 1 3 1 3 1 Z " fill="#FFFFFF" transform="translate(65,194)"/>
<path d="M0 0 C3 1 3 1 3 1 Z " fill="#FF8684" transform="translate(135,192)"/>
<path d="M0 0 C3 1 3 1 3 1 Z " fill="#FFFFFF" transform="translate(60,192)"/>
<path d="" fill="#FFFFFF" transform="translate(0,0)"/>
<path d="" fill="#FFFFFF" transform="translate(0,0)"/>
<path d="" fill="#FFFFFF" transform="translate(0,0)"/>
<path d="" fill="#FFFFFF" transform="translate(0,0)"/>
<path d="" fill="#FFFFFF" transform="translate(0,0)"/>
<path d="" fill="#FFFFFF" transform="translate(0,0)"/>
<path d="M0 0 C3 1 3 1 3 1 Z " fill="#FF908B" transform="translate(137,6)"/>
<path d="M0 0 C3 1 3 1 3 1 Z " fill="#FFFFFF" transform="translate(132,4)"/>
<path d="M0 0 C3 1 3 1 3 1 Z " fill="#FFFFFF" transform="translate(63,4)"/>
<path d="M0 0 C3 1 3 1 3 1 Z " fill="#FFFFFF" transform="translate(129,3)"/>
<path d="M0 0 C3 1 3 1 3 1 Z " fill="#FFFFFF" transform="translate(66,3)"/>
<path d="M0 0 C3 1 3 1 3 1 Z " fill="#FFFFFF" transform="translate(126,2)"/>
<path d="M0 0 C3 1 3 1 3 1 Z " fill="#FFFFFF" transform="translate(73,1)"/>
<path d="M0 0 C2 1 2 1 2 1 Z " fill="#FFFFFF" transform="translate(133,193)"/>
<path d="M0 0 C2 1 2 1 2 1 Z " fill="#FFFFFF" transform="translate(63,193)"/>
<path d="M0 0 C2 1 2 1 2 1 Z " fill="#FF564F" transform="translate(138,191)"/>
<path d="M0 0 C2 1 2 1 2 1 Z " fill="#FFFFFF" transform="translate(58,191)"/>
<path d="M0 0 C2 1 2 1 2 1 Z " fill="#FF564F" transform="translate(140,190)"/>
<path d="M0 0 C2 1 2 1 2 1 Z " fill="#FFFFFF" transform="translate(56,190)"/>
<path d="M0 0 C2 1 2 1 2 1 Z " fill="#FF564F" transform="translate(142,189)"/>
<path d="M0 0 C2 1 2 1 2 1 Z " fill="#FFFFFF" transform="translate(54,189)"/>
<path d="M0 0 C2 1 2 1 2 1 Z " fill="#FF564F" transform="translate(144,188)"/>
<path d="M0 0 C2 1 2 1 2 1 Z " fill="#FFFFFF" transform="translate(52,188)"/>
<path d="M0 0 C2 1 2 1 2 1 Z " fill="#FF564F" transform="translate(146,187)"/>
<path d="M0 0 C2 1 2 1 2 1 Z " fill="#FF7F7F" transform="translate(50,187)"/>
<path d="M0 0 C2 1 2 1 2 1 Z " fill="#FF564F" transform="translate(148,186)"/>
<path d="M0 0 C2 1 2 1 2 1 Z " fill="#FF5551" transform="translate(47,185)"/>
<path d="M0 0 C2 1 2 1 2 1 Z " fill="#FF564F" transform="translate(151,184)"/>
<path d="M0 0 C2 1 2 1 2 1 Z " fill="#FF5750" transform="translate(45,184)"/>
<path d="M0 0 C2 1 2 1 2 1 Z " fill="#FF564F" transform="translate(154,182)"/>
<path d="M0 0 C2 1 2 1 2 1 Z " fill="#FF564F" transform="translate(42,182)"/>
<path d="M0 0 C2 1 2 1 2 1 Z " fill="#FF564F" transform="translate(157,180)"/>
<path d="M0 0 C2 1 2 1 2 1 Z " fill="#FF564F" transform="translate(38,179)"/>
<path d="M0 0 C2 1 2 1 2 1 Z " fill="#FF564F" transform="translate(162,176)"/>
<path d="M0 0 C2 1 2 1 2 1 Z " fill="#FF564F" transform="translate(32,174)"/>
<path d="" fill="#FF5952" transform="translate(0,0)"/>
<path d="" fill="#FFFFFF" transform="translate(0,0)"/>
<path d="" fill="#FFFFFF" transform="translate(0,0)"/>
<path d="" fill="#FFFFFF" transform="translate(0,0)"/>
<path d="" fill="#FFFFFF" transform="translate(0,0)"/>
<path d="" fill="#FFFFFF" transform="translate(0,0)"/>
<path d="" fill="#FFFFFF" transform="translate(0,0)"/>
<path d="" fill="#FFFFFF" transform="translate(0,0)"/>
<path d="M0 0 C2 1 2 1 2 1 Z " fill="#FF564F" transform="translate(164,23)"/>
<path d="M0 0 C2 1 2 1 2 1 Z " fill="#FF564F" transform="translate(37,19)"/>
<path d="M0 0 C2 1 2 1 2 1 Z " fill="#FF564F" transform="translate(158,18)"/>
<path d="M0 0 C2 1 2 1 2 1 Z " fill="#FF564F" transform="translate(155,16)"/>
<path d="M0 0 C2 1 2 1 2 1 Z " fill="#FF564F" transform="translate(41,16)"/>
<path d="M0 0 C2 1 2 1 2 1 Z " fill="#FF564F" transform="translate(152,14)"/>
<path d="M0 0 C2 1 2 1 2 1 Z " fill="#FF564F" transform="translate(44,14)"/>
<path d="M0 0 C2 1 2 1 2 1 Z " fill="#FF564F" transform="translate(149,12)"/>
<path d="M0 0 C2 1 2 1 2 1 Z " fill="#FF5551" transform="translate(47,12)"/>
<path d="M0 0 C2 1 2 1 2 1 Z " fill="#FF564F" transform="translate(147,11)"/>
<path d="M0 0 C2 1 2 1 2 1 Z " fill="#FF7F7F" transform="translate(49,11)"/>
<path d="M0 0 C2 1 2 1 2 1 Z " fill="#FFFFFF" transform="translate(51,10)"/>
<path d="M0 0 C2 1 2 1 2 1 Z " fill="#FF564F" transform="translate(144,9)"/>
<path d="M0 0 C2 1 2 1 2 1 Z " fill="#FFFFFF" transform="translate(53,9)"/>
<path d="M0 0 C2 1 2 1 2 1 Z " fill="#FF564F" transform="translate(142,8)"/>
<path d="M0 0 C2 1 2 1 2 1 Z " fill="#FFFFFF" transform="translate(55,8)"/>
<path d="M0 0 C2 1 2 1 2 1 Z " fill="#FF564F" transform="translate(140,7)"/>
<path d="M0 0 C2 1 2 1 2 1 Z " fill="#FFFFFF" transform="translate(57,7)"/>
<path d="M0 0 C2 1 2 1 2 1 Z " fill="#FFFFFF" transform="translate(59,6)"/>
<path d="M0 0 C2 1 2 1 2 1 Z " fill="#FF7F7F" transform="translate(135,5)"/>
<path d="M0 0 C2 1 2 1 2 1 Z " fill="#FFFFFF" transform="translate(61,5)"/>
<path d="" fill="#FFFFFF" transform="translate(0,0)"/>
<path d="" fill="#FF564F" transform="translate(0,0)"/>
<path d="" fill="#FF564F" transform="translate(0,0)"/>
<path d="" fill="#FF564F" transform="translate(0,0)"/>
<path d="" fill="#FF564F" transform="translate(0,0)"/>
<path d="" fill="#FF564F" transform="translate(0,0)"/>
<path d="" fill="#FF564F" transform="translate(0,0)"/>
<path d="" fill="#FF564F" transform="translate(0,0)"/>
<path d="" fill="#FF564F" transform="translate(0,0)"/>
<path d="" fill="#FF564F" transform="translate(0,0)"/>
<path d="" fill="#FF564F" transform="translate(0,0)"/>
<path d="" fill="#FF564F" transform="translate(0,0)"/>
<path d="" fill="#FF564F" transform="translate(0,0)"/>
<path d="" fill="#FF564F" transform="translate(0,0)"/>
<path d="" fill="#FF564F" transform="translate(0,0)"/>
<path d="" fill="#FF564E" transform="translate(0,0)"/>
<path d="" fill="#FF564E" transform="translate(0,0)"/>
<path d="" fill="#FF564F" transform="translate(0,0)"/>
<path d="" fill="#FFFFFF" transform="translate(0,0)"/>
<path d="" fill="#FF564F" transform="translate(0,0)"/>
<path d="" fill="#FFFFFF" transform="translate(0,0)"/>
<path d="" fill="#FF564F" transform="translate(0,0)"/>
<path d="" fill="#FFFFFF" transform="translate(0,0)"/>
<path d="" fill="#FF564F" transform="translate(0,0)"/>
<path d="" fill="#FFFFFF" transform="translate(0,0)"/>
<path d="" fill="#FF564F" transform="translate(0,0)"/>
<path d="" fill="#FFFFFF" transform="translate(0,0)"/>
<path d="" fill="#FF564F" transform="translate(0,0)"/>
<path d="" fill="#FFFFFF" transform="translate(0,0)"/>
<path d="" fill="#FFFFFF" transform="translate(0,0)"/>
<path d="" fill="#FF564F" transform="translate(0,0)"/>
<path d="" fill="#FFFFFF" transform="translate(0,0)"/>
<path d="" fill="#FF554E" transform="translate(0,0)"/>
<path d="" fill="#FFFFFF" transform="translate(0,0)"/>
<path d="" fill="#FF564F" transform="translate(0,0)"/>
<path d="" fill="#FFFFFF" transform="translate(0,0)"/>
<path d="" fill="#FFFFFF" transform="translate(0,0)"/>
<path d="" fill="#FF564F" transform="translate(0,0)"/>
<path d="" fill="#FF564F" transform="translate(0,0)"/>
<path d="" fill="#FF564F" transform="translate(0,0)"/>
<path d="" fill="#FFFFFF" transform="translate(0,0)"/>
<path d="" fill="#FFFFFF" transform="translate(0,0)"/>
<path d="" fill="#FFFFFF" transform="translate(0,0)"/>
<path d="" fill="#FFFFFF" transform="translate(0,0)"/>
<path d="" fill="#FF0000" transform="translate(0,0)"/>
<path d="" fill="#FF554E" transform="translate(0,0)"/>
<path d="" fill="#FF564F" transform="translate(0,0)"/>
<path d="" fill="#FF564F" transform="translate(0,0)"/>
<path d="" fill="#FF564F" transform="translate(0,0)"/>
<path d="" fill="#FF564F" transform="translate(0,0)"/>
<path d="" fill="#FF564F" transform="translate(0,0)"/>
<path d="" fill="#FF564F" transform="translate(0,0)"/>
<path d="" fill="#FF564F" transform="translate(0,0)"/>
<path d="" fill="#FF564F" transform="translate(0,0)"/>
<path d="" fill="#FF564F" transform="translate(0,0)"/>
<path d="" fill="#FF564F" transform="translate(0,0)"/>
<path d="" fill="#FF564F" transform="translate(0,0)"/>
<path d="" fill="#FF564F" transform="translate(0,0)"/>
<path d="" fill="#FF564F" transform="translate(0,0)"/>
<path d="" fill="#FF564F" transform="translate(0,0)"/>
<path d="" fill="#FF564F" transform="translate(0,0)"/>
<path d="" fill="#FF564F" transform="translate(0,0)"/>
<path d="" fill="#FF5851" transform="translate(0,0)"/>
<path d="" fill="#FF564F" transform="translate(0,0)"/>
</svg>
