<?xml version="1.0" encoding="UTF-8"?>
<svg version="1.1" xmlns="http://www.w3.org/2000/svg" width="25" height="25">
<path d="M0 0 C8.25 0 16.5 0 25 0 C25 8.25 25 16.5 25 25 C16.75 25 8.5 25 0 25 C0 16.75 0 8.5 0 0 Z " fill="#F8F9F9" transform="translate(0,0)"/>
<path d="M0 0 C0.66 1.32 1.32 2.64 2 4 C2.721875 3.34 3.44375 2.68 4.1875 2 C7.21597933 -0.1535853 8.39703406 -0.41176754 12 0 C9.37409557 3.69571734 7.45427785 5.82782162 3 7 C2.34 6.67 1.68 6.34 1 6 C1 6.99 1 7.98 1 9 C1.58265625 8.77570312 2.1653125 8.55140625 2.765625 8.3203125 C5 8 5 8 6.921875 9.1796875 C7.52515625 9.73914062 8.1284375 10.29859375 8.75 10.875 C9.67039062 11.70644531 9.67039062 11.70644531 10.609375 12.5546875 C12 14 12 14 12 15 C8.39703406 15.41176754 7.21597933 15.1535853 4.1875 13 C3.465625 12.34 2.74375 11.68 2 11 C1.34 12.32 0.68 13.64 0 15 C-2 13 -2 13 -2.265625 10.46875 C-2.26046875 9.4890625 -2.2553125 8.509375 -2.25 7.5 C-2.25515625 6.5203125 -2.2603125 5.540625 -2.265625 4.53125 C-2 2 -2 2 0 0 Z " fill="#599984" transform="translate(7,5)"/>
</svg>
