<?xml version="1.0" encoding="UTF-8"?>
<svg version="1.1" xmlns="http://www.w3.org/2000/svg" width="200" height="200">
<path d="M0 0 C2.82045877 2.30263418 5.56336058 4.67903285 8.27832031 7.10449219 C11.1535235 9.666713 11.1535235 9.666713 14.50878906 11.77246094 C17.18066406 13.58496094 17.18066406 13.58496094 17.86816406 15.77246094 C18.02285156 16.66964844 18.02285156 16.66964844 18.18066406 17.58496094 C19.17066406 17.91496094 20.16066406 18.24496094 21.18066406 18.58496094 C21.51066406 19.57496094 21.84066406 20.56496094 22.18066406 21.58496094 C22.78394531 22.1740625 23.38722656 22.76316406 24.00878906 23.37011719 C26.61161449 26.02443736 28.16331475 28.75588582 29.93066406 32.02246094 C30.85105469 33.69115234 30.85105469 33.69115234 31.79003906 35.39355469 C33.13514811 38.48050439 33.50200878 40.27881822 33.18066406 43.58496094 C33.84066406 43.58496094 34.50066406 43.58496094 35.18066406 43.58496094 C39.64424539 56.0781479 40.85665551 67.12735329 40.55566406 80.33496094 C40.53909422 82.04587815 40.52476266 83.75681854 40.51269531 85.46777344 C40.3702832 98.68935945 40.3702832 98.68935945 39.18066406 103.58496094 C38.52066406 103.58496094 37.86066406 103.58496094 37.18066406 103.58496094 C37.18066406 105.89496094 37.18066406 108.20496094 37.18066406 110.58496094 C36.52066406 110.58496094 35.86066406 110.58496094 35.18066406 110.58496094 C34.52066406 113.88496094 33.86066406 117.18496094 33.18066406 120.58496094 C32.52066406 120.58496094 31.86066406 120.58496094 31.18066406 120.58496094 C31.10589844 121.42542969 31.03113281 122.26589844 30.95410156 123.13183594 C30.00301116 127.37811833 28.20111083 130.25695184 25.80566406 133.83496094 C25.40605469 134.45886719 25.00644531 135.08277344 24.59472656 135.72558594 C22.64505024 138.70140769 21.175244 140.58857431 18.18066406 142.58496094 C17.87128906 143.24496094 17.56191406 143.90496094 17.24316406 144.58496094 C16.18066406 146.58496094 16.18066406 146.58496094 14.29394531 147.52246094 C12.05773456 148.64676653 10.95666201 149.72870379 9.30566406 151.58496094 C-7.5531495 168.76523493 -31.7922615 178.47350042 -55.67724609 178.87768555 C-83.14890277 179.03784131 -105.50892955 171.73865683 -126.31811523 153.40429688 C-129.3378039 150.75277047 -132.36813316 148.62599484 -135.81933594 146.58496094 C-136.52084746 145.26962683 -137.18459519 143.93378502 -137.81933594 142.58496094 C-139.08777344 141.37839844 -139.08777344 141.37839844 -140.38183594 140.14746094 C-142.93144067 137.46710724 -143.50996572 136.19428011 -143.81933594 132.58496094 C-144.80933594 132.25496094 -145.79933594 131.92496094 -146.81933594 131.58496094 C-150.62798259 125.57828936 -153.21756631 119.65575401 -153.81933594 112.58496094 C-154.47933594 111.59496094 -155.13933594 110.60496094 -155.81933594 109.58496094 C-156.19144014 108.26192377 -156.52563767 106.92758159 -156.81933594 105.58496094 C-157.14933594 104.59496094 -157.47933594 103.60496094 -157.81933594 102.58496094 C-158.14933594 102.58496094 -158.47933594 102.58496094 -158.81933594 102.58496094 C-158.87027326 96.32278946 -158.90516878 90.06067193 -158.92919922 83.79833984 C-158.93922299 81.67038984 -158.95284555 79.5424535 -158.97021484 77.41455078 C-158.99462286 74.34631976 -159.00585555 71.27827173 -159.01464844 68.20996094 C-159.02497101 67.26693115 -159.03529358 66.32390137 -159.04592896 65.35229492 C-159.04686971 59.74541582 -158.41278806 54.96630789 -156.81933594 49.58496094 C-156.15933594 49.58496094 -155.49933594 49.58496094 -154.81933594 49.58496094 C-154.69816406 48.88628906 -154.57699219 48.18761719 -154.45214844 47.46777344 C-154.28457031 46.55769531 -154.11699219 45.64761719 -153.94433594 44.70996094 C-153.78191406 43.80503906 -153.61949219 42.90011719 -153.45214844 41.96777344 C-152.81933594 39.58496094 -152.81933594 39.58496094 -150.81933594 37.58496094 C-149.71378412 35.63398714 -148.89319267 33.94732054 -148.44433594 31.74511719 C-147.67559861 29.08816878 -146.42875814 27.18569548 -144.88183594 24.89746094 C-144.3571875 24.10984375 -143.83253906 23.32222656 -143.29199219 22.51074219 C-141.81933594 20.58496094 -141.81933594 20.58496094 -139.81933594 19.58496094 C-139.48933594 18.59496094 -139.15933594 17.60496094 -138.81933594 16.58496094 C-138.25988281 16.318125 -137.70042969 16.05128906 -137.12402344 15.77636719 C-133.75454168 14.03451645 -131.50732154 11.25605376 -128.94433594 8.52246094 C-95.59880991 -25.77011212 -37.69548479 -29.31871039 0 0 Z M34.18066406 46.58496094 C35.18066406 48.58496094 35.18066406 48.58496094 35.18066406 48.58496094 Z M35.18066406 49.58496094 C36.18066406 51.58496094 36.18066406 51.58496094 36.18066406 51.58496094 Z M36.18066406 52.58496094 C37.18066406 55.58496094 37.18066406 55.58496094 37.18066406 55.58496094 Z M-156.81933594 53.58496094 C-155.81933594 56.58496094 -155.81933594 56.58496094 -155.81933594 56.58496094 Z M37.18066406 56.58496094 C38.18066406 59.58496094 38.18066406 59.58496094 38.18066406 59.58496094 Z M-157.81933594 57.58496094 C-156.81933594 61.58496094 -156.81933594 61.58496094 -156.81933594 61.58496094 Z M38.18066406 60.58496094 C38.18066406 62.23496094 38.18066406 63.88496094 38.18066406 65.58496094 C38.51066406 65.58496094 38.84066406 65.58496094 39.18066406 65.58496094 C39.18066406 63.93496094 39.18066406 62.28496094 39.18066406 60.58496094 C38.85066406 60.58496094 38.52066406 60.58496094 38.18066406 60.58496094 Z M38.18066406 93.58496094 C38.18066406 95.23496094 38.18066406 96.88496094 38.18066406 98.58496094 C38.51066406 98.58496094 38.84066406 98.58496094 39.18066406 98.58496094 C39.18066406 96.93496094 39.18066406 95.28496094 39.18066406 93.58496094 C38.85066406 93.58496094 38.52066406 93.58496094 38.18066406 93.58496094 Z " fill="#4FB5D9" transform="translate(158.8193359375,19.4150390625)"/>
<path d="M0 0 C2.53046823 -0.29216869 4.8129288 -0.3963314 7.34375 -0.36328125 C8.06864624 -0.36377975 8.79354248 -0.36427826 9.54040527 -0.36479187 C11.07367696 -0.36245041 12.60695241 -0.35271756 14.14013672 -0.33618164 C16.49090845 -0.31259124 18.84054629 -0.31561921 21.19140625 -0.32226562 C22.67969428 -0.31668885 24.16797752 -0.30957897 25.65625 -0.30078125 C26.36148804 -0.30169266 27.06672607 -0.30260406 27.79333496 -0.30354309 C32.76896779 -0.23103221 32.76896779 -0.23103221 35 2 C35.375 4.9375 35.375 4.9375 35 8 C32.86415121 10.10422251 31.51229918 10.92946532 28.52636719 11.34057617 C27.62563477 11.32486572 26.72490234 11.30915527 25.796875 11.29296875 C24.32734375 11.2784668 24.32734375 11.2784668 22.828125 11.26367188 C21.30445312 11.2259668 21.30445312 11.2259668 19.75 11.1875 C18.71875 11.17396484 17.6875 11.16042969 16.625 11.14648438 C14.08310951 11.11118034 11.5414881 11.05737473 9 11 C9 15.29 9 19.58 9 24 C10.34835938 23.97679688 11.69671875 23.95359375 13.0859375 23.9296875 C14.84895281 23.91093202 16.61197409 23.89273158 18.375 23.875 C19.26445313 23.85824219 20.15390625 23.84148438 21.0703125 23.82421875 C21.92109375 23.81777344 22.771875 23.81132813 23.6484375 23.8046875 C24.82672119 23.78897705 24.82672119 23.78897705 26.02880859 23.77294922 C28 24 28 24 30 26 C29.42307692 32.57692308 29.42307692 32.57692308 28 34 C22.06 34.33 16.12 34.66 10 35 C9.67 49.85 9.34 64.7 9 80 C10.65 80.33 12.3 80.66 14 81 C19.68274803 84.65092751 24.02850089 89.48656625 26 96 C27.1396797 103.62708721 24.81951664 110.83121289 20.58984375 117.1328125 C16.80577411 121.57700239 12.54490322 123.61997773 6.80859375 124.4765625 C-0.42328943 124.795 -5.57486266 123.92376209 -11 119 C-16.98972611 112.99491562 -18.47290521 108.21383715 -18.50854492 99.79370117 C-18.2774632 91.95499077 -14.82525486 87.7563462 -9.4375 82.5 C-6.87834226 80.9251337 -4.92901161 80.50685059 -2 80 C-2.00444122 79.04199997 -2.00888245 78.08399994 -2.01345825 77.0969696 C-2.05396892 68.07692254 -2.08396735 59.05689388 -2.10362434 50.03677654 C-2.11406985 45.39923504 -2.12824303 40.76176687 -2.15087891 36.12426758 C-2.17257995 31.65038645 -2.18456285 27.17657594 -2.18975449 22.70264626 C-2.19345517 20.99417827 -2.20068152 19.28571422 -2.21146011 17.57727623 C-2.22593871 15.18774379 -2.22797948 12.79850466 -2.22705078 10.40893555 C-2.23424133 9.69971451 -2.24143188 8.99049347 -2.24884033 8.25978088 C-2.23342481 4.60393109 -2.08851622 3.13277433 0 0 Z " fill="#FAFDFD" transform="translate(92,38)"/>
<path d="M0 0 C0 32.67 0 65.34 0 99 C-0.99 99 -1.98 99 -3 99 C-6.11593017 93.28554504 -8.33085208 88.55764966 -9 82 C-9.66 81.01 -10.32 80.02 -11 79 C-11.3721042 77.67696283 -11.70630173 76.34262065 -12 75 C-12.33 74.01 -12.66 73.02 -13 72 C-13.33 72 -13.66 72 -14 72 C-14.05093732 65.73782852 -14.08583284 59.47571099 -14.10986328 53.21337891 C-14.11988705 51.08542891 -14.13350961 48.95749256 -14.15087891 46.82958984 C-14.17528692 43.76135882 -14.18651961 40.6933108 -14.1953125 37.625 C-14.20563507 36.68197021 -14.21595764 35.73894043 -14.22659302 34.76733398 C-14.22753377 29.16045488 -13.59345212 24.38134696 -12 19 C-11.34 19 -10.68 19 -10 19 C-9.81824219 17.95199219 -9.81824219 17.95199219 -9.6328125 16.8828125 C-9.38144531 15.51769531 -9.38144531 15.51769531 -9.125 14.125 C-8.96257813 13.22007813 -8.80015625 12.31515625 -8.6328125 11.3828125 C-8 9 -8 9 -6 7 C-5.690625 6.360625 -5.38125 5.72125 -5.0625 5.0625 C-2.45454545 0 -2.45454545 0 0 0 Z M-12 23 C-11 26 -11 26 -11 26 Z M-13 27 C-12 31 -12 31 -12 31 Z " fill="#F1FAFD" transform="translate(14,50)"/>
<path d="M0 0 C0.495 1.485 0.495 1.485 1 3 C-1.22432218 4.32134971 -3.45383619 5.63211206 -5.6875 6.9375 C-6.31333984 7.31068359 -6.93917969 7.68386719 -7.58398438 8.06835938 C-11.07960765 10.09984725 -13.9535714 11.38733651 -18 12 C-20.78307606 13.33542672 -20.78307606 13.33542672 -23 15 C-23 15.66 -23 16.32 -23 17 C-24.31484375 17.73089844 -24.31484375 17.73089844 -25.65625 18.4765625 C-35.54123174 23.99450337 -45.33174639 29.6665887 -55.09960938 35.38916016 C-56.09541016 35.9722998 -57.09121094 36.55543945 -58.1171875 37.15625 C-59.45692627 37.94225586 -59.45692627 37.94225586 -60.82373047 38.74414062 C-62.19411976 39.53495087 -63.5848399 40.29241995 -65 41 C-65.95648438 41.60972656 -66.91296875 42.21945313 -67.8984375 42.84765625 C-68.46046875 43.20537109 -69.0225 43.56308594 -69.6015625 43.93164062 C-70.78008783 44.68314521 -71.95462691 45.44093944 -73.125 46.20507812 C-76.46967539 48.31649992 -77.92714239 49 -82 49 C-80.66937406 45.00812219 -78.99359189 42.90004215 -76 40 C-75.67 39.29875 -75.34 38.5975 -75 37.875 C-74 36 -74 36 -72.3046875 35.26171875 C-68.97526866 33.43900301 -66.6933114 30.67677312 -64.125 27.9375 C-48.02722419 11.38253089 -23.38760097 -0.57042929 0 0 Z " fill="#F4FAFC" transform="translate(94,0)"/>
<path d="M0 0 C0.99 0 1.98 0 3 0 C5.15305957 3.85756507 6.39253254 6.55129785 6 11 C6.66 11 7.32 11 8 11 C12.46358133 23.49318697 13.67599145 34.54239235 13.375 47.75 C13.35843016 49.46091721 13.3440986 51.1718576 13.33203125 52.8828125 C13.18961913 66.10439851 13.18961913 66.10439851 12 71 C11.34 71 10.68 71 10 71 C10 73.31 10 75.62 10 78 C9.34 78 8.68 78 8 78 C7.01 82.95 7.01 82.95 6 88 C5.34 88 4.68 88 4 88 C3.896875 88.9075 3.79375 89.815 3.6875 90.75 C3 94 3 94 0 98 C0 65.66 0 33.32 0 0 Z M7 14 C8 16 8 16 8 16 Z M8 17 C9 19 9 19 9 19 Z M9 20 C10 23 10 23 10 23 Z M10 24 C11 27 11 27 11 27 Z M11 28 C11 29.65 11 31.3 11 33 C11.33 33 11.66 33 12 33 C12 31.35 12 29.7 12 28 C11.67 28 11.34 28 11 28 Z M11 61 C11 62.65 11 64.3 11 66 C11.33 66 11.66 66 12 66 C12 64.35 12 62.7 12 61 C11.67 61 11.34 61 11 61 Z " fill="#EBF8FD" transform="translate(186,52)"/>
<path d="M0 0 C24.85900775 0.25366334 46.23914178 12.87381269 63.95703125 29.30078125 C65.92135853 31.06836551 65.92135853 31.06836551 68.2265625 32.1015625 C68.81179687 32.39804687 69.39703125 32.69453125 70 33 C70.36162029 34.32594105 70.69728039 35.65938457 71 37 C72.485 37.495 72.485 37.495 74 38 C74.33 38.99 74.66 39.98 75 41 C75.99 41.9590625 75.99 41.9590625 77 42.9375 C79.11087214 45.1143369 79.42411162 46.12655694 80 49 C72.49975365 45.39921801 64.88207526 41.69447402 58 37 C58 36.34 58 35.68 58 35 C57.29190186 34.89872803 56.58380371 34.79745605 55.85424805 34.69311523 C52.58747484 33.89982389 50.22799748 32.6136516 47.33203125 30.91015625 C46.27435547 30.29076172 45.21667969 29.67136719 44.12695312 29.03320312 C43.03318359 28.38287109 41.93941406 27.73253906 40.8125 27.0625 C39.70712891 26.41603516 38.60175781 25.76957031 37.46289062 25.10351562 C29.28941127 20.28941127 29.28941127 20.28941127 27 18 C25.33036048 17.13143533 23.63871043 16.3049744 21.9375 15.5 C13.69096961 11.46211301 5.87057346 6.71861395 -2 2 C-1.34 1.34 -0.68 0.68 0 0 Z " fill="#F2F9FA" transform="translate(106,0)"/>
<path d="M0 0 C2.31 0.66 4.62 1.32 7 2 C7 2.99 7 3.98 7 5 C8.299375 5.4021875 8.299375 5.4021875 9.625 5.8125 C12.92352943 6.97309369 15.87663129 8.43831565 19 10 C19.969375 10.309375 20.93875 10.61875 21.9375 10.9375 C31.04938272 14.09876543 31.04938272 14.09876543 33 18 C34.64991582 18.70710678 36.3207762 19.36562656 38 20 C41.25 21.4375 41.25 21.4375 44 23 C44.495 24.485 44.495 24.485 45 26 C48.54924701 28.63658349 51.63890395 29.49289581 56 30 C56.495 31.485 56.495 31.485 57 33 C59.60033596 34.88480095 59.60033596 34.88480095 62.75 36.625 C64.32007812 37.54152344 64.32007812 37.54152344 65.921875 38.4765625 C68.73093745 39.86683452 70.94678742 40.47613857 74 41 C76.3125 42.5625 76.3125 42.5625 78 44 C71.88920054 44.1505123 66.39296026 43.79237553 60.4375 42.4375 C59.66591553 42.26259033 58.89433105 42.08768066 58.09936523 41.9074707 C41.83341358 37.96194241 27.99253451 29.82506424 15.5012207 18.81933594 C12.48153203 16.16780953 9.45120278 14.0410339 6 12 C5.29848848 10.6846659 4.63474075 9.34882408 4 8 C2.37253306 6.29503463 0.71108689 4.62102968 -1 3 C-0.67 2.01 -0.34 1.02 0 0 Z " fill="#F9FCFD" transform="translate(17,154)"/>
<path d="M0 0 C0.99 0.66 1.98 1.32 3 2 C1.25 5.875 1.25 5.875 -1 7 C-1.28875 7.639375 -1.5775 8.27875 -1.875 8.9375 C-3 11 -3 11 -4.890625 11.94140625 C-7.1258538 13.06315996 -8.22522796 14.14512117 -9.875 16 C-25.23868767 31.65663935 -47.19687624 41.46995623 -69 43 C-67.824375 42.071875 -67.824375 42.071875 -66.625 41.125 C-64.03162353 39.10141339 -64.03162353 39.10141339 -62 37 C-60.68481889 36.29820168 -59.34871251 35.63497779 -58 35 C-56.94039062 34.47019531 -56.94039062 34.47019531 -55.859375 33.9296875 C-53.90625 32.953125 -51.953125 31.9765625 -50 31 C-50 30.34 -50 29.68 -50 29 C-48.35 28.67 -46.7 28.34 -45 28 C-45 27.34 -45 26.68 -45 26 C-41.7508723 23.6791945 -38.94120709 22.56302958 -35 22 C-35 21.34 -35 20.68 -35 20 C-32.69 19.34 -30.38 18.68 -28 18 C-28 17.34 -28 16.68 -28 16 C-27.071875 15.731875 -26.14375 15.46375 -25.1875 15.1875 C-22.14311405 14.053317 -21.10288378 13.30315842 -19 11 C-18.01 10.67 -17.02 10.34 -16 10 C-15.34 9.443125 -14.68 8.88625 -14 8.3125 C-9.65361009 4.96215778 -4.84850416 2.54737522 0 0 Z " fill="#F7FBFC" transform="translate(178,155)"/>
<path d="M0 0 C4.09206332 1.808121 6.69807584 4.16345973 9 8 C9.61578345 13.54205101 9.3004016 17.31555902 6 22 C2.60572623 24.97223444 -0.58743358 26.35413943 -5.125 26.0625 C-9.35797073 25.21754654 -11.47312506 23.56735286 -14 20 C-15.51584676 15.99642386 -16.30169563 12.47495644 -15.4375 8.25 C-11.23602079 1.67377167 -7.6880936 -0.52122668 0 0 Z " fill="#56B9D4" transform="translate(99,127)"/>
<path d="M0 0 C0.99 0.33 1.98 0.66 3 1 C3 1.66 3 2.32 3 3 C1.88625 3.474375 0.7725 3.94875 -0.375 4.4375 C-3.59463074 5.82527187 -5.69281385 6.74940078 -8.375 8.9375 C-10.5859991 10.67471358 -12.37317366 12.03683034 -15 13 C-15.99 12.67 -16.98 12.34 -18 12 C-18 11.34 -18 10.68 -18 10 C-17.15115234 9.77957031 -17.15115234 9.77957031 -16.28515625 9.5546875 C-14.02588015 8.86380166 -12.04881905 8.18251078 -10 7 C-8.85968434 3.92202417 -8.85968434 3.92202417 -9 1 C-7.88625 1.020625 -6.7725 1.04125 -5.625 1.0625 C-2.16784079 1.26380718 -2.16784079 1.26380718 0 0 Z " fill="#60B6CB" transform="translate(124,185)"/>
<path d="M0 0 C-0.721875 0.40992188 -1.44375 0.81984375 -2.1875 1.2421875 C-3.115625 1.78101563 -4.04375 2.31984375 -5 2.875 C-5.928125 3.40867188 -6.85625 3.94234375 -7.8125 4.4921875 C-8.534375 4.98976562 -9.25625 5.48734375 -10 6 C-10 6.66 -10 7.32 -10 8 C-12.31 8.33 -14.62 8.66 -17 9 C-16.67 8.34 -16.34 7.68 -16 7 C-15.34 7 -14.68 7 -14 7 C-13.34 5.68 -12.68 4.36 -12 3 C-11.34 3 -10.68 3 -10 3 C-10 2.34 -10 1.68 -10 1 C-3.375 -1.125 -3.375 -1.125 0 0 Z " fill="#5FBDD0" transform="translate(174,158)"/>
<path d="M0 0 C1.46366342 0.39753821 2.9208935 0.81881384 4.375 1.25 C5.18710937 1.48203125 5.99921875 1.7140625 6.8359375 1.953125 C9.49798884 3.24090435 9.80257962 4.3803161 11 7 C12.98248715 7.71706982 14.98415349 8.38290413 17 9 C18.875 10.625 18.875 10.625 20 12 C15.87161932 11.39288519 12.59577618 10.12477683 9 8 C8.67 7.01 8.34 6.02 8 5 C7.236875 4.896875 6.47375 4.79375 5.6875 4.6875 C2.82503132 3.95524057 1.80432431 3.27914649 0 1 C0 0.67 0 0.34 0 0 Z " fill="#A7D5E1" transform="translate(15,151)"/>
<path d="M0 0 C0.66 1.32 1.32 2.64 2 4 C0.58994275 5.15395711 -0.82833458 6.29787466 -2.25 7.4375 C-3.43335938 8.39462891 -3.43335938 8.39462891 -4.640625 9.37109375 C-8.49838589 12.03448165 -11.63864155 12.12317577 -16.25 12.0625 C-17.14203125 12.05347656 -18.0340625 12.04445312 -18.953125 12.03515625 C-19.62859375 12.02355469 -20.3040625 12.01195312 -21 12 C-21 11.67 -21 11.34 -21 11 C-20.14728516 10.96132812 -20.14728516 10.96132812 -19.27734375 10.921875 C-13.43683251 10.49285581 -9.92940606 9.11860383 -5 6 C-4.34 6 -3.68 6 -3 6 C-2.690625 5.38125 -2.38125 4.7625 -2.0625 4.125 C-1.375 2.75 -0.6875 1.375 0 0 Z " fill="#6BBED3" transform="translate(114,151)"/>
<path d="M0 0 C0.5775 0.185625 1.155 0.37125 1.75 0.5625 C4.20692525 1.04023546 5.64397534 0.75729364 8 0 C8 0.99 8 1.98 8 3 C6.35 3.33 4.7 3.66 3 4 C3 4.66 3 5.32 3 6 C0.625 7.0625 0.625 7.0625 -2 8 C-2.66 7.67 -3.32 7.34 -4 7 C-4 6.34 -4 5.68 -4 5 C-3.34 4.67 -2.68 4.34 -2 4 C-0.86649466 1.98330173 -0.86649466 1.98330173 0 0 Z " fill="#73C0D0" transform="translate(149,167)"/>
<path d="M0 0 C2.97 0.495 2.97 0.495 6 1 C6 1.66 6 2.32 6 3 C7.32 3.66 8.64 4.32 10 5 C10 5.66 10 6.32 10 7 C10.66 7 11.32 7 12 7 C12 7.66 12 8.32 12 9 C6.71181939 7.18690951 3.11407709 4.67111564 0 0 Z " fill="#8AC1CD" transform="translate(57,175)"/>
<path d="M0 0 C-2.43406923 2.94650486 -4.316358 3.33883349 -8 4 C-8.66 4.66 -9.32 5.32 -10 6 C-10.99 6.66 -11.98 7.32 -13 8 C-13 6.68 -13 5.36 -13 4 C-11.68 3.67 -10.36 3.34 -9 3 C-9 2.34 -9 1.68 -9 1 C-5.64919071 -1.10976881 -3.77897651 -1.0497157 0 0 Z " fill="#7AB5C4" transform="translate(145,176)"/>
<path d="M0 0 C1.61841797 0.08701172 1.61841797 0.08701172 3.26953125 0.17578125 C4.35621094 0.22089844 5.44289063 0.26601562 6.5625 0.3125 C7.39394531 0.37050781 8.22539063 0.42851563 9.08203125 0.48828125 C7.26953125 1.55078125 7.26953125 1.55078125 5.08203125 2.48828125 C4.09203125 2.15828125 3.10203125 1.82828125 2.08203125 1.48828125 C1.75203125 2.47828125 1.42203125 3.46828125 1.08203125 4.48828125 C-1.22796875 4.81828125 -3.53796875 5.14828125 -5.91796875 5.48828125 C-3.7352554 0.62504274 -3.7352554 0.62504274 0 0 Z " fill="#75BAD3" transform="translate(96.91796875,-0.48828125)"/>
<path d="M0 0 C0.721875 0.309375 1.44375 0.61875 2.1875 0.9375 C4.92064829 2.07436775 4.92064829 2.07436775 7.625 2.4375 C10.32652211 3.07733418 11.33530322 3.8096095 13 6 C13 6.66 13 7.32 13 8 C12.319375 7.71125 11.63875 7.4225 10.9375 7.125 C7.67106907 5.87402645 4.37153877 4.92552045 1 4 C0.67 2.68 0.34 1.36 0 0 Z " fill="#6CB1C3" transform="translate(32,160)"/>
<path d="M0 0 C-1.43011973 0.86646667 -2.86940619 1.71781829 -4.3125 2.5625 C-5.51326172 3.27599609 -5.51326172 3.27599609 -6.73828125 4.00390625 C-9 5 -9 5 -12 4 C-12 3.34 -12 2.68 -12 2 C-10.75579353 1.4654744 -9.50429064 0.94791389 -8.25 0.4375 C-7.55390625 0.14746094 -6.8578125 -0.14257812 -6.140625 -0.44140625 C-3.69987216 -1.07831803 -2.3596345 -0.80248831 0 0 Z " fill="#9BC9D3" transform="translate(118,193)"/>
<path d="M0 0 C8.58 0 17.16 0 26 0 C26 0.33 26 0.66 26 1 C17.42 1 8.84 1 0 1 C0 0.67 0 0.34 0 0 Z " fill="#D6EBEF" transform="translate(86,199)"/>
<path d="M0 0 C1.98 0 3.96 0 6 0 C4.25 4.875 4.25 4.875 2 6 C-0.125 5.5625 -0.125 5.5625 -2 5 C-2 4.34 -2 3.68 -2 3 C-1.34 3 -0.68 3 0 3 C0 2.01 0 1.02 0 0 Z " fill="#97CDD8" transform="translate(179,151)"/>
<path d="M0 0 C0.33 0 0.66 0 1 0 C1 8.58 1 17.16 1 26 C0.67 26 0.34 26 0 26 C0 17.42 0 8.84 0 0 Z " fill="#FFFFFF" transform="translate(199,86)"/>
<path d="M0 0 C1.65 0.33 3.3 0.66 5 1 C4.67 1.99 4.34 2.98 4 4 C3.34 4 2.68 4 2 4 C2 4.66 2 5.32 2 6 C1.01 6 0.02 6 -1 6 C-1.33 5.01 -1.66 4.02 -2 3 C-1.34 2.01 -0.68 1.02 0 0 Z " fill="#49B1E4" transform="translate(99,1)"/>
<path d="M0 0 C4.12838068 0.60711481 7.40422382 1.87522317 11 4 C11.33 4.99 11.66 5.98 12 7 C3.09923664 4.64885496 3.09923664 4.64885496 0 0 Z " fill="#73BBCE" transform="translate(45,168)"/>
<path d="M0 0 C3.96017943 0.28286996 6.84549333 2.77750666 10 5 C9.01 5.495 9.01 5.495 8 6 C6.32936253 5.00664799 4.66324401 4.00568242 3 3 C0.30745009 2.29329272 0.30745009 2.29329272 -2 2 C-1.34 1.34 -0.68 0.68 0 0 Z " fill="#77B4C1" transform="translate(73,184)"/>
<path d="M0 0 C0.66 0.33 1.32 0.66 2 1 C0.06745228 3.0245738 -1.63158688 4.42105792 -4 6 C-6.1875 5.625 -6.1875 5.625 -8 5 C-7.01 4.67 -6.02 4.34 -5 4 C-5 3.34 -5 2.68 -5 2 C-2.625 0.9375 -2.625 0.9375 0 0 Z " fill="#72B3C2" transform="translate(165,161)"/>
<path d="M0 0 C3.36720387 1.39332574 4.9859524 2.9789286 7 6 C6.401875 5.79375 5.80375 5.5875 5.1875 5.375 C2.71549154 4.69328085 2.71549154 4.69328085 0 7 C0 4.69 0 2.38 0 0 Z " fill="#70BDD7" transform="translate(162,34)"/>
<path d="M0 0 C0.66 0.99 1.32 1.98 2 3 C2 2.34 2 1.68 2 1 C3.32 1.66 4.64 2.32 6 3 C2.86501708 4.85776765 0.62528568 5.20140476 -3 5 C-2.34 4.67 -1.68 4.34 -1 4 C-0.34786708 1.97536745 -0.34786708 1.97536745 0 0 Z " fill="#48B1E4" transform="translate(144,27)"/>
<path d="M0 0 C-1 3 -1 3 -3.875 4.75 C-7 6 -7 6 -10 5 C-8.71186658 4.16121545 -7.41936744 3.32913217 -6.125 2.5 C-5.40570313 2.0359375 -4.68640625 1.571875 -3.9453125 1.09375 C-2 0 -2 0 0 0 Z " fill="#A8D6E0" transform="translate(79,10)"/>
<path d="M0 0 C2.31 0.33 4.62 0.66 7 1 C7 1.66 7 2.32 7 3 C7.66 3.33 8.32 3.66 9 4 C3.46153846 3.38461538 3.46153846 3.38461538 1.125 1.4375 C0.75375 0.963125 0.3825 0.48875 0 0 Z " fill="#68BACC" transform="translate(90,194)"/>
<path d="M0 0 C0.99 0.33 1.98 0.66 3 1 C3 1.66 3 2.32 3 3 C-0.465 4.485 -0.465 4.485 -4 6 C-3.0022242 3.00667261 -2.2477975 2.05233685 0 0 Z " fill="#A5D4E1" transform="translate(124,185)"/>
<path d="M0 0 C0.66 0.33 1.32 0.66 2 1 C1.67 1.99 1.34 2.98 1 4 C0.34 4 -0.32 4 -1 4 C-1.33 4.99 -1.66 5.98 -2 7 C-2.66 7 -3.32 7 -4 7 C-2.92598892 4.08482708 -2.22189824 2.22189824 0 0 Z " fill="#5AB9D2" transform="translate(178,150)"/>
<path d="M0 0 C0.66 0.33 1.32 0.66 2 1 C-0.31 3.31 -2.62 5.62 -5 8 C-5 5 -5 5 -2.5 2.3125 C-1.675 1.549375 -0.85 0.78625 0 0 Z " fill="#FFFFFF" transform="translate(30,25)"/>
<path d="M0 0 C1.98 0 3.96 0 6 0 C6 0.33 6 0.66 6 1 C4.02 1 2.04 1 0 1 C0 0.67 0 0.34 0 0 Z " fill="#FFFFFF" transform="translate(112,198)"/>
<path d="M0 0 C1.98 0 3.96 0 6 0 C6 0.33 6 0.66 6 1 C4.02 1 2.04 1 0 1 C0 0.67 0 0.34 0 0 Z " fill="#FFFFFF" transform="translate(80,198)"/>
<path d="M0 0 C1.65 0 3.3 0 5 0 C5 0.33 5 0.66 5 1 C3.35 1 1.7 1 0 1 C0 0.67 0 0.34 0 0 Z " fill="#FFFFFF" transform="translate(118,197)"/>
<path d="M0 0 C1.65 0 3.3 0 5 0 C5 0.33 5 0.66 5 1 C3.35 1 1.7 1 0 1 C0 0.67 0 0.34 0 0 Z " fill="#FFFFFF" transform="translate(75,197)"/>
<path d="M0 0 C1.65 0 3.3 0 5 0 C5 0.33 5 0.66 5 1 C3.35 1 1.7 1 0 1 C0 0.67 0 0.34 0 0 Z " fill="#FFFFFF" transform="translate(117,0)"/>
<path d="M0 0 C1.65 0 3.3 0 5 0 C5 0.33 5 0.66 5 1 C3.35 1 1.7 1 0 1 C0 0.67 0 0.34 0 0 Z " fill="#FFFFFF" transform="translate(76,0)"/>
<path d="M0 0 C4 1 4 1 4 1 Z " fill="#FFFFFF" transform="translate(123,196)"/>
<path d="M0 0 C4 1 4 1 4 1 Z " fill="#FFFFFF" transform="translate(68,195)"/>
<path d="M0 0 C4 1 4 1 4 1 Z " fill="#FFFFFF" transform="translate(69,2)"/>
<path d="M0 0 C4 1 4 1 4 1 Z " fill="#FFFFFF" transform="translate(122,1)"/>
<path d="M0 0 C3 1 3 1 3 1 Z " fill="#FFFFFF" transform="translate(72,196)"/>
<path d="M0 0 C3 1 3 1 3 1 Z " fill="#FFFFFF" transform="translate(127,195)"/>
<path d="M0 0 C3 1 3 1 3 1 Z " fill="#FFFFFF" transform="translate(130,194)"/>
<path d="M0 0 C3 1 3 1 3 1 Z " fill="#FFFFFF" transform="translate(65,194)"/>
<path d="M0 0 C3 1 3 1 3 1 Z " fill="#FFFFFF" transform="translate(135,192)"/>
<path d="M0 0 C3 1 3 1 3 1 Z " fill="#FFFFFF" transform="translate(60,192)"/>
<path d="" fill="#FFFFFF" transform="translate(0,0)"/>
<path d="" fill="#FFFFFF" transform="translate(0,0)"/>
<path d="" fill="#FFFFFF" transform="translate(0,0)"/>
<path d="" fill="#FFFFFF" transform="translate(0,0)"/>
<path d="" fill="#FFFFFF" transform="translate(0,0)"/>
<path d="" fill="#FFFFFF" transform="translate(0,0)"/>
<path d="M0 0 C3 1 3 1 3 1 Z " fill="#FFFFFF" transform="translate(137,6)"/>
<path d="M0 0 C3 1 3 1 3 1 Z " fill="#FFFFFF" transform="translate(132,4)"/>
<path d="M0 0 C3 1 3 1 3 1 Z " fill="#FFFFFF" transform="translate(63,4)"/>
<path d="M0 0 C3 1 3 1 3 1 Z " fill="#FFFFFF" transform="translate(129,3)"/>
<path d="M0 0 C3 1 3 1 3 1 Z " fill="#FFFFFF" transform="translate(66,3)"/>
<path d="M0 0 C3 1 3 1 3 1 Z " fill="#FFFFFF" transform="translate(126,2)"/>
<path d="M0 0 C3 1 3 1 3 1 Z " fill="#FFFFFF" transform="translate(73,1)"/>
<path d="M0 0 C2 1 2 1 2 1 Z " fill="#FFFFFF" transform="translate(133,193)"/>
<path d="M0 0 C2 1 2 1 2 1 Z " fill="#FFFFFF" transform="translate(63,193)"/>
<path d="M0 0 C2 1 2 1 2 1 Z " fill="#FFFFFF" transform="translate(138,191)"/>
<path d="M0 0 C2 1 2 1 2 1 Z " fill="#FFFFFF" transform="translate(58,191)"/>
<path d="M0 0 C2 1 2 1 2 1 Z " fill="#FFFFFF" transform="translate(140,190)"/>
<path d="M0 0 C2 1 2 1 2 1 Z " fill="#FFFFFF" transform="translate(56,190)"/>
<path d="M0 0 C2 1 2 1 2 1 Z " fill="#FFFFFF" transform="translate(142,189)"/>
<path d="M0 0 C2 1 2 1 2 1 Z " fill="#FFFFFF" transform="translate(54,189)"/>
<path d="M0 0 C2 1 2 1 2 1 Z " fill="#FFFFFF" transform="translate(144,188)"/>
<path d="M0 0 C2 1 2 1 2 1 Z " fill="#FFFFFF" transform="translate(52,188)"/>
<path d="M0 0 C2 1 2 1 2 1 Z " fill="#FFFFFF" transform="translate(146,187)"/>
<path d="M0 0 C2 1 2 1 2 1 Z " fill="#FFFFFF" transform="translate(50,187)"/>
<path d="M0 0 C2 1 2 1 2 1 Z " fill="#FFFFFF" transform="translate(148,186)"/>
<path d="M0 0 C2 1 2 1 2 1 Z " fill="#FFFFFF" transform="translate(47,185)"/>
<path d="M0 0 C2 1 2 1 2 1 Z " fill="#FFFFFF" transform="translate(151,184)"/>
<path d="M0 0 C2 1 2 1 2 1 Z " fill="#FFFFFF" transform="translate(45,184)"/>
<path d="M0 0 C2 1 2 1 2 1 Z " fill="#FFFFFF" transform="translate(154,182)"/>
<path d="M0 0 C2 1 2 1 2 1 Z " fill="#FFFFFF" transform="translate(42,182)"/>
<path d="M0 0 C2 1 2 1 2 1 Z " fill="#FFFFFF" transform="translate(157,180)"/>
<path d="M0 0 C2 1 2 1 2 1 Z " fill="#FFFFFF" transform="translate(38,179)"/>
<path d="M0 0 C2 1 2 1 2 1 Z " fill="#FFFFFF" transform="translate(162,176)"/>
<path d="M0 0 C2 1 2 1 2 1 Z " fill="#FFFFFF" transform="translate(32,174)"/>
<path d="" fill="#FFFFFF" transform="translate(0,0)"/>
<path d="" fill="#FFFFFF" transform="translate(0,0)"/>
<path d="" fill="#FFFFFF" transform="translate(0,0)"/>
<path d="" fill="#FFFFFF" transform="translate(0,0)"/>
<path d="" fill="#FFFFFF" transform="translate(0,0)"/>
<path d="" fill="#FFFFFF" transform="translate(0,0)"/>
<path d="" fill="#FFFFFF" transform="translate(0,0)"/>
<path d="" fill="#FFFFFF" transform="translate(0,0)"/>
<path d="M0 0 C2 1 2 1 2 1 Z " fill="#FFFFFF" transform="translate(164,23)"/>
<path d="M0 0 C2 1 2 1 2 1 Z " fill="#FFFFFF" transform="translate(37,19)"/>
<path d="M0 0 C2 1 2 1 2 1 Z " fill="#FFFFFF" transform="translate(158,18)"/>
<path d="M0 0 C2 1 2 1 2 1 Z " fill="#FFFFFF" transform="translate(155,16)"/>
<path d="M0 0 C2 1 2 1 2 1 Z " fill="#FFFFFF" transform="translate(41,16)"/>
<path d="M0 0 C2 1 2 1 2 1 Z " fill="#FFFFFF" transform="translate(152,14)"/>
<path d="M0 0 C2 1 2 1 2 1 Z " fill="#FFFFFF" transform="translate(44,14)"/>
<path d="M0 0 C2 1 2 1 2 1 Z " fill="#FFFFFF" transform="translate(149,12)"/>
<path d="M0 0 C2 1 2 1 2 1 Z " fill="#FFFFFF" transform="translate(47,12)"/>
<path d="M0 0 C2 1 2 1 2 1 Z " fill="#FFFFFF" transform="translate(147,11)"/>
<path d="M0 0 C2 1 2 1 2 1 Z " fill="#FFFFFF" transform="translate(49,11)"/>
<path d="M0 0 C2 1 2 1 2 1 Z " fill="#FFFFFF" transform="translate(51,10)"/>
<path d="M0 0 C2 1 2 1 2 1 Z " fill="#FFFFFF" transform="translate(144,9)"/>
<path d="M0 0 C2 1 2 1 2 1 Z " fill="#FFFFFF" transform="translate(53,9)"/>
<path d="M0 0 C2 1 2 1 2 1 Z " fill="#FFFFFF" transform="translate(142,8)"/>
<path d="M0 0 C2 1 2 1 2 1 Z " fill="#FFFFFF" transform="translate(55,8)"/>
<path d="M0 0 C2 1 2 1 2 1 Z " fill="#FFFFFF" transform="translate(140,7)"/>
<path d="M0 0 C2 1 2 1 2 1 Z " fill="#FFFFFF" transform="translate(57,7)"/>
<path d="M0 0 C2 1 2 1 2 1 Z " fill="#FFFFFF" transform="translate(59,6)"/>
<path d="M0 0 C2 1 2 1 2 1 Z " fill="#FFFFFF" transform="translate(135,5)"/>
<path d="M0 0 C2 1 2 1 2 1 Z " fill="#FFFFFF" transform="translate(61,5)"/>
<path d="" fill="#FFFFFF" transform="translate(0,0)"/>
<path d="" fill="#FFFFFF" transform="translate(0,0)"/>
<path d="" fill="#FFFFFF" transform="translate(0,0)"/>
<path d="" fill="#FFFFFF" transform="translate(0,0)"/>
<path d="" fill="#FFFFFF" transform="translate(0,0)"/>
<path d="" fill="#FFFFFF" transform="translate(0,0)"/>
<path d="" fill="#FFFFFF" transform="translate(0,0)"/>
<path d="" fill="#FFFFFF" transform="translate(0,0)"/>
<path d="" fill="#FFFFFF" transform="translate(0,0)"/>
<path d="" fill="#FFFFFF" transform="translate(0,0)"/>
<path d="" fill="#FFFFFF" transform="translate(0,0)"/>
<path d="" fill="#FFFFFF" transform="translate(0,0)"/>
<path d="" fill="#FFFFFF" transform="translate(0,0)"/>
<path d="" fill="#FFFFFF" transform="translate(0,0)"/>
<path d="" fill="#FFFFFF" transform="translate(0,0)"/>
<path d="" fill="#FFFFFF" transform="translate(0,0)"/>
<path d="" fill="#FFFFFF" transform="translate(0,0)"/>
<path d="" fill="#FFFFFF" transform="translate(0,0)"/>
<path d="" fill="#FFFFFF" transform="translate(0,0)"/>
<path d="" fill="#FFFFFF" transform="translate(0,0)"/>
<path d="" fill="#FFFFFF" transform="translate(0,0)"/>
<path d="" fill="#FFFFFF" transform="translate(0,0)"/>
<path d="" fill="#FFFFFF" transform="translate(0,0)"/>
<path d="" fill="#FFFFFF" transform="translate(0,0)"/>
<path d="" fill="#FFFFFF" transform="translate(0,0)"/>
<path d="" fill="#FFFFFF" transform="translate(0,0)"/>
<path d="" fill="#FFFFFF" transform="translate(0,0)"/>
<path d="" fill="#FFFFFF" transform="translate(0,0)"/>
<path d="" fill="#FFFFFF" transform="translate(0,0)"/>
<path d="" fill="#FFFFFF" transform="translate(0,0)"/>
<path d="" fill="#FFFFFF" transform="translate(0,0)"/>
<path d="" fill="#FFFFFF" transform="translate(0,0)"/>
<path d="" fill="#FFFFFF" transform="translate(0,0)"/>
<path d="" fill="#FFFFFF" transform="translate(0,0)"/>
<path d="" fill="#FFFFFF" transform="translate(0,0)"/>
<path d="" fill="#FFFFFF" transform="translate(0,0)"/>
<path d="" fill="#FFFFFF" transform="translate(0,0)"/>
<path d="" fill="#FFFFFF" transform="translate(0,0)"/>
<path d="" fill="#FFFFFF" transform="translate(0,0)"/>
<path d="" fill="#FFFFFF" transform="translate(0,0)"/>
<path d="" fill="#FFFFFF" transform="translate(0,0)"/>
<path d="" fill="#FFFFFF" transform="translate(0,0)"/>
<path d="" fill="#FFFFFF" transform="translate(0,0)"/>
<path d="" fill="#FFFFFF" transform="translate(0,0)"/>
<path d="" fill="#FFFFFF" transform="translate(0,0)"/>
<path d="" fill="#FFFFFF" transform="translate(0,0)"/>
<path d="" fill="#FFFFFF" transform="translate(0,0)"/>
<path d="" fill="#FFFFFF" transform="translate(0,0)"/>
<path d="" fill="#FFFFFF" transform="translate(0,0)"/>
<path d="" fill="#FFFFFF" transform="translate(0,0)"/>
<path d="" fill="#FFFFFF" transform="translate(0,0)"/>
<path d="" fill="#FFFFFF" transform="translate(0,0)"/>
<path d="" fill="#FFFFFF" transform="translate(0,0)"/>
<path d="" fill="#FFFFFF" transform="translate(0,0)"/>
<path d="" fill="#FFFFFF" transform="translate(0,0)"/>
<path d="" fill="#FFFFFF" transform="translate(0,0)"/>
<path d="" fill="#FFFFFF" transform="translate(0,0)"/>
<path d="" fill="#FFFFFF" transform="translate(0,0)"/>
<path d="" fill="#FFFFFF" transform="translate(0,0)"/>
<path d="" fill="#FFFFFF" transform="translate(0,0)"/>
<path d="" fill="#FFFFFF" transform="translate(0,0)"/>
<path d="" fill="#FFFFFF" transform="translate(0,0)"/>
<path d="" fill="#FFFFFF" transform="translate(0,0)"/>
<path d="" fill="#FFFFFF" transform="translate(0,0)"/>
</svg>
