<svg xmlns="http://www.w3.org/2000/svg" width="256" height="256" fill="none" xmlns:v="https://vecta.io/nano"><g clip-path="url(#B)"><path fill-rule="evenodd" d="M209.101 225.894l-80.793-81.715-81.92 82.33c16.282 10.854 41.779 29.389 81.1 29.593s70.861-19.353 81.511-30.105l.102-.103zM225.895 46.08l-81.92 81.715 81.613 82.535c42.496-54.272 38.604-110.183.307-164.352v.102zM29.696 209.101L100.66 20.173 1.127 120.32c-5.12 29.184 10.035 66.253 28.57 88.781zm37.376-37.171c5.12-1.332 117.965-117.248 142.234-141.312C196.711 13.824 153.498-.717 131.892 0l-64.82 171.93z" fill="url(#A)"/></g><defs><linearGradient id="A" x1="70.261" y1="242.453" x2="197.442" y2="20.245" gradientUnits="userSpaceOnUse"><stop stop-color="#850000"/><stop offset=".251" stop-color="#c70158"/><stop offset=".482" stop-color="#de1e41"/><stop offset=".639" stop-color="#f63b2a"/><stop offset="1" stop-color="#ff8700"/></linearGradient><clipPath id="B"><path fill="#fff" d="M0 0h256v256H0z"/></clipPath></defs></svg>