<?xml version="1.0" encoding="UTF-8"?>
<svg version="1.1" xmlns="http://www.w3.org/2000/svg" width="200" height="200">
<path d="M0 0 C2.16585104 0.02148274 4.32838768 0.00004279 6.49414062 -0.02539062 C19.20199291 -0.05184507 30.83153721 2.49867057 42.41601562 7.89648438 C43.0744043 8.19321045 43.73279297 8.48993652 44.41113281 8.7956543 C49.37132243 11.06494709 54.18556444 13.56983114 58.93164062 16.25976562 C61.11428481 17.54821946 61.11428481 17.54821946 63.33789062 18.43945312 C65.65069783 19.80835824 66.03045557 21.12122214 67.16601562 23.52148438 C68.99428884 25.45199333 68.99428884 25.45199333 71.10351562 27.20898438 C71.79316406 27.81097656 72.4828125 28.41296875 73.19335938 29.03320312 C75.19603534 30.70867198 75.19603534 30.70867198 78.16601562 31.52148438 C78.56820312 32.66617187 78.56820312 32.66617187 78.97851562 33.83398438 C79.98705012 36.7772393 79.98705012 36.7772393 83.04101562 38.39648438 C86.99952527 41.08827093 88.13552129 43.2262079 90.16601562 47.52148438 C90.16601562 49.18815104 90.16601562 50.85481771 90.16601562 52.52148438 C90.74738281 52.6890625 91.32875 52.85664062 91.92773438 53.02929688 C95.39532332 55.34102284 96.40395257 58.63484326 97.97851562 62.39648438 C98.30271484 63.11707031 98.62691406 63.83765625 98.9609375 64.58007812 C101.30407307 70.02899724 101.30407307 70.02899724 100.63755798 72.40663147 C99.9921711 75.30117171 100.89770861 77.56163609 101.66784668 80.36453247 C102.47508458 83.85967872 102.45178652 87.28876492 102.43164062 90.86132812 C102.43355408 91.6277211 102.43546753 92.39411407 102.43743896 93.18373108 C102.43879046 94.79298229 102.43516701 96.4022448 102.42675781 98.01147461 C102.41605809 100.44930998 102.42668071 102.88640611 102.43945312 105.32421875 C102.4445554 112.99381623 102.09951498 120.05784915 100.16601562 127.52148438 C100.49601563 128.51148438 100.82601562 129.50148437 101.16601562 130.52148438 C100.15115288 133.2927285 99.0767678 135.90797237 97.85351562 138.58398438 C97.53189453 139.31681641 97.21027344 140.04964844 96.87890625 140.8046875 C94.44883591 146.23866409 94.44883591 146.23866409 92.16601562 148.52148438 C89.55189466 151.56938627 89.55189466 151.56938627 89.16601562 155.52148438 C88.18847918 156.54345429 87.18542752 157.54128063 86.16601562 158.52148438 C85.85664063 159.20210937 85.54726562 159.88273438 85.22851562 160.58398438 C84.16601562 162.52148438 84.16601562 162.52148438 82.22851562 163.39648438 C79.85036865 164.43894771 79.85036865 164.43894771 78.66601562 167.52148438 C76.98822781 170.87706001 76.42415724 171.08406896 73.16601562 172.52148438 C71.4582159 174.1459768 69.79050805 175.81368465 68.16601562 177.52148438 C67.60914063 178.05773437 67.05226562 178.59398437 66.47851562 179.14648438 C64.92682621 180.69256465 64.92682621 180.69256465 63.16601562 183.52148438 C61.50602744 183.8866256 59.83796143 184.21572941 58.16601562 184.52148438 C55.59354665 185.80231056 55.59354665 185.80231056 53.10351562 187.39648438 C52.26691406 187.90953125 51.4303125 188.42257813 50.56835938 188.95117188 C47.6365044 190.86760391 44.89464831 192.86571496 42.29101562 195.20898438 C40.16601563 196.52148438 40.16601563 196.52148438 37.45898438 196.48046875 C33.73833927 196.5268113 30.89901145 197.37811358 27.35351562 198.49023438 C19.64200827 200.71337596 12.32402958 201.13682239 4.33203125 201.04296875 C2.16618021 201.02148601 0.00364357 201.04292596 -2.16210938 201.06835938 C-14.86996166 201.09481382 -26.49950596 198.54429818 -38.08398438 193.14648438 C-39.07156738 192.70139526 -39.07156738 192.70139526 -40.07910156 192.24731445 C-45.03929118 189.97802166 -49.85353319 187.47313761 -54.59960938 184.78320312 C-56.78225356 183.49474929 -56.78225356 183.49474929 -59.00585938 182.60351562 C-61.31866658 181.23461051 -61.69842432 179.92174661 -62.83398438 177.52148438 C-64.66225759 175.59097542 -64.66225759 175.59097542 -66.77148438 173.83398438 C-67.80595703 172.93099609 -67.80595703 172.93099609 -68.86132812 172.00976562 C-70.86400409 170.33429677 -70.86400409 170.33429677 -73.83398438 169.52148438 C-74.10210937 168.75835937 -74.37023437 167.99523437 -74.64648438 167.20898438 C-75.65501887 164.26572945 -75.65501887 164.26572945 -78.70898438 162.64648438 C-82.66749402 159.95469782 -83.80349004 157.81676085 -85.83398438 153.52148438 C-85.83398438 151.85481771 -85.83398438 150.18815104 -85.83398438 148.52148438 C-86.70603516 148.27011719 -86.70603516 148.27011719 -87.59570312 148.01367188 C-91.06329207 145.70194591 -92.07192132 142.40812549 -93.64648438 138.64648438 C-94.1327832 137.56560547 -94.1327832 137.56560547 -94.62890625 136.46289062 C-96.97204182 131.01397151 -96.97204182 131.01397151 -96.30552673 128.63633728 C-95.66013985 125.74179704 -96.56567736 123.48133266 -97.33581543 120.67843628 C-98.14305333 117.18329003 -98.11975527 113.75420383 -98.09960938 110.18164062 C-98.10152283 109.41524765 -98.10343628 108.64885468 -98.10540771 107.85923767 C-98.10675921 106.24998646 -98.10313576 104.64072395 -98.09472656 103.03149414 C-98.08402684 100.59365877 -98.09464946 98.15656264 -98.10742188 95.71875 C-98.11252415 88.04915252 -97.76748373 80.9851196 -95.83398438 73.52148438 C-96.16398437 72.53148438 -96.49398437 71.54148437 -96.83398438 70.52148438 C-95.81912163 67.75024025 -94.74473655 65.13499638 -93.52148438 62.45898438 C-93.03905273 61.35973633 -93.03905273 61.35973633 -92.546875 60.23828125 C-90.11680466 54.80430466 -90.11680466 54.80430466 -87.83398438 52.52148438 C-85.21986341 49.47358248 -85.21986341 49.47358248 -84.83398438 45.52148438 C-82.49933102 41.22533947 -80.16918608 38.68908523 -75.83398438 36.52148438 C-75.33898437 35.53148437 -74.84398438 34.54148438 -74.33398438 33.52148438 C-72.65619656 30.16590874 -72.09212599 29.95889979 -68.83398438 28.52148438 C-67.12618465 26.89699195 -65.4584768 25.2292841 -63.83398438 23.52148438 C-63.27710938 22.98523438 -62.72023437 22.44898437 -62.14648438 21.89648438 C-60.59479496 20.3504041 -60.59479496 20.3504041 -58.83398438 17.52148438 C-57.17399619 17.15634315 -55.50593018 16.82723934 -53.83398438 16.52148438 C-51.2615154 15.24065819 -51.2615154 15.24065819 -48.77148438 13.64648438 C-47.93488281 13.1334375 -47.09828125 12.62039063 -46.23632812 12.09179688 C-43.30447315 10.17536484 -40.56261706 8.17725379 -37.95898438 5.83398438 C-35.83398438 4.52148438 -35.83398438 4.52148438 -33.12695312 4.5625 C-29.40630802 4.51615745 -26.5669802 3.66485517 -23.02148438 2.55273438 C-15.30997702 0.32959279 -7.99199833 -0.09385364 0 0 Z M-92.83398438 63.52148438 C-91.83398438 65.52148438 -91.83398438 65.52148438 -91.83398438 65.52148438 Z M96.16601562 63.52148438 C97.16601562 65.52148438 97.16601562 65.52148438 97.16601562 65.52148438 Z M-93.83398438 65.52148438 C-92.83398438 67.52148438 -92.83398438 67.52148438 -92.83398438 67.52148438 Z M97.16601562 65.52148438 C98.16601562 67.52148438 98.16601562 67.52148438 98.16601562 67.52148438 Z M-94.83398438 68.52148438 C-93.83398438 70.52148438 -93.83398438 70.52148438 -93.83398438 70.52148438 Z M98.16601562 68.52148438 C99.16601562 70.52148438 99.16601562 70.52148438 99.16601562 70.52148438 Z M-94.83398438 130.52148438 C-93.83398438 132.52148438 -93.83398438 132.52148438 -93.83398438 132.52148438 Z M98.16601562 130.52148438 C99.16601562 132.52148438 99.16601562 132.52148438 99.16601562 132.52148438 Z M-93.83398438 133.52148438 C-92.83398438 135.52148438 -92.83398438 135.52148438 -92.83398438 135.52148438 Z M97.16601562 133.52148438 C98.16601562 135.52148438 98.16601562 135.52148438 98.16601562 135.52148438 Z M-92.83398438 135.52148438 C-91.83398438 137.52148438 -91.83398438 137.52148438 -91.83398438 137.52148438 Z M96.16601562 135.52148438 C97.16601562 137.52148438 97.16601562 137.52148438 97.16601562 137.52148438 Z " fill="#172851" transform="translate(97.833984375,-0.521484375)"/>
<path d="M0 0 C2.2037654 3.3056481 2.49044368 5.30419406 3.125 9.1875 C6.44852969 25.14702374 15.54548888 40.00568834 28.6875 49.8125 C49.50721459 63.07346471 69.61173912 65.26732682 94 62 C93.45663983 72.32384314 85.08829443 81.18697914 78 88 C63.73047914 99.86817755 48.14178506 103.51910607 30 102 C13.93087711 99.40396583 0.60074418 90.21715419 -9.03125 77.26953125 C-18.48418373 63.07010325 -21.48789449 46.78857229 -18.64990234 29.91894531 C-15.87751649 18.35482229 -8.4570576 8.11460633 0 0 Z " fill="#FCD63D" transform="translate(61,56)"/>
<path d="M0 0 C12.31356177 9.87261582 21.34780952 21.41099648 25 37 C25.22450825 40.31850169 25.19072225 43.61347096 25.125 46.9375 C25.11597656 47.81212891 25.10695313 48.68675781 25.09765625 49.58789062 C25.0742957 51.72538064 25.03843247 53.86272786 25 56 C13.66541055 52.1196901 3.01926015 40.82728702 -3.1875 30.76171875 C-4 29 -4 29 -4 26 C-4.64614258 25.83201904 -5.29228516 25.66403809 -5.95800781 25.4909668 C-52.5265465 13.11990445 -52.5265465 13.11990445 -59 2 C-59 -1.32089214 -58.31998588 -2.63734934 -56.125 -5.125 C-39.660283 -15.0038302 -15.13136969 -10.74772288 0 0 Z " fill="#FAD43D" transform="translate(133,51)"/>
<path d="M0 0 C0.53367188 0.18175781 1.06734375 0.36351563 1.6171875 0.55078125 C5.72318185 1.93602156 9.8207015 3.22864069 14 4.375 C18.47926923 5.68583466 22.28492272 7.62845132 26.28515625 10.01171875 C27.81452934 11.08322062 27.81452934 11.08322062 29 11 C29 17.27 29 23.54 29 30 C17.67612634 25.47045054 5.21439691 14.30621637 0 3 C0 2.01 0 1.02 0 0 Z " fill="#F86E05" transform="translate(129,77)"/>
<path d="M0 0 C0 0.99 0 1.98 0 3 C-7.42857143 3.28571429 -7.42857143 3.28571429 -11 1 C-7.27569643 0.30710631 -3.78916254 -0.11144596 0 0 Z " fill="#D0B940" transform="translate(155,118)"/>
<path d="M0 0 C0.99 0.33 1.98 0.66 3 1 C1.35 1.33 -0.3 1.66 -2 2 C-1.34 1.34 -0.68 0.68 0 0 Z " fill="#02164B" transform="translate(132,196)"/>
<path d="M0 0 C2.475 0.495 2.475 0.495 5 1 C4.01 1.33 3.02 1.66 2 2 C1.34 1.34 0.68 0.68 0 0 Z " fill="#00124B" transform="translate(65,196)"/>
<path d="M0 0 C2.475 0.495 2.475 0.495 5 1 C4.01 1.33 3.02 1.66 2 2 C1.34 1.34 0.68 0.68 0 0 Z " fill="#05204D" transform="translate(60,194)"/>
<path d="M0 0 C2.475 0.495 2.475 0.495 5 1 C4.01 1.33 3.02 1.66 2 2 C1.34 1.34 0.68 0.68 0 0 Z " fill="#05204D" transform="translate(135,4)"/>
<path d="M0 0 C2.475 0.495 2.475 0.495 5 1 C4.01 1.33 3.02 1.66 2 2 C1.34 1.34 0.68 0.68 0 0 Z " fill="#00124B" transform="translate(130,2)"/>
<path d="M0 0 C0.99 0.33 1.98 0.66 3 1 C1.35 1.33 -0.3 1.66 -2 2 C-1.34 1.34 -0.68 0.68 0 0 Z " fill="#02164B" transform="translate(67,2)"/>
<path d="M0 0 C0.99 0.33 1.98 0.66 3 1 C2.01 1 1.02 1 0 1 C0 0.67 0 0.34 0 0 Z " fill="#01103D" transform="translate(42,184)"/>
<path d="M0 0 C0.66 0.33 1.32 0.66 2 1 C1.01 1 0.02 1 -1 1 C-0.67 0.67 -0.34 0.34 0 0 Z " fill="#00084D" transform="translate(43,14)"/>
<path d="M0 0 C0.99 0.33 1.98 0.66 3 1 C2.01 1 1.02 1 0 1 C0 0.67 0 0.34 0 0 Z " fill="#01103D" transform="translate(155,14)"/>
<path d="M0 0 C3 1 3 1 3 1 Z " fill="#00053C" transform="translate(123,199)"/>
<path d="M0 0 C3 1 3 1 3 1 Z " fill="#000212" transform="translate(74,199)"/>
<path d="M0 0 C3 1 3 1 3 1 Z " fill="#000E4E" transform="translate(127,198)"/>
<path d="M0 0 C3 1 3 1 3 1 Z " fill="#000A5D" transform="translate(70,198)"/>
<path d="" fill="#00053C" transform="translate(0,0)"/>
<path d="" fill="#00053C" transform="translate(0,0)"/>
<path d="" fill="#00053C" transform="translate(0,0)"/>
<path d="" fill="#00053C" transform="translate(0,0)"/>
<path d="M0 0 C3 1 3 1 3 1 Z " fill="#000A5D" transform="translate(127,1)"/>
<path d="M0 0 C3 1 3 1 3 1 Z " fill="#000E4E" transform="translate(70,1)"/>
<path d="M0 0 C3 1 3 1 3 1 Z " fill="#000212" transform="translate(123,0)"/>
<path d="M0 0 C3 1 3 1 3 1 Z " fill="#00053C" transform="translate(74,0)"/>
<path d="M0 0 C2 1 2 1 2 1 Z " fill="#111439" transform="translate(58,193)"/>
<path d="M0 0 C2 1 2 1 2 1 Z " fill="#062169" transform="translate(142,192)"/>
<path d="M0 0 C2 1 2 1 2 1 Z " fill="#02215F" transform="translate(56,192)"/>
<path d="M0 0 C2 1 2 1 2 1 Z " fill="#02192D" transform="translate(144,191)"/>
<path d="M0 0 C2 1 2 1 2 1 Z " fill="#000D36" transform="translate(54,191)"/>
<path d="M0 0 C2 1 2 1 2 1 Z " fill="#00084D" transform="translate(156,184)"/>
<path d="M0 0 C2 1 2 1 2 1 Z " fill="#000D36" transform="translate(144,8)"/>
<path d="M0 0 C2 1 2 1 2 1 Z " fill="#02192D" transform="translate(54,8)"/>
<path d="M0 0 C2 1 2 1 2 1 Z " fill="#02215F" transform="translate(142,7)"/>
<path d="M0 0 C2 1 2 1 2 1 Z " fill="#062169" transform="translate(56,7)"/>
<path d="M0 0 C2 1 2 1 2 1 Z " fill="#111439" transform="translate(140,6)"/>
<path d="" fill="#00107F" transform="translate(0,0)"/>
<path d="" fill="#001B51" transform="translate(0,0)"/>
<path d="" fill="#00001B" transform="translate(0,0)"/>
<path d="" fill="#00001B" transform="translate(0,0)"/>
<path d="" fill="#00001B" transform="translate(0,0)"/>
<path d="" fill="#000600" transform="translate(0,0)"/>
<path d="" fill="#001B51" transform="translate(0,0)"/>
<path d="" fill="#0D3353" transform="translate(0,0)"/>
<path d="" fill="#0D3353" transform="translate(0,0)"/>
<path d="" fill="#001B51" transform="translate(0,0)"/>
<path d="" fill="#001B51" transform="translate(0,0)"/>
<path d="" fill="#00107F" transform="translate(0,0)"/>
<path d="" fill="#00107F" transform="translate(0,0)"/>
<path d="" fill="#001B51" transform="translate(0,0)"/>
<path d="" fill="#001B51" transform="translate(0,0)"/>
<path d="" fill="#00001B" transform="translate(0,0)"/>
<path d="" fill="#000600" transform="translate(0,0)"/>
<path d="" fill="#000600" transform="translate(0,0)"/>
<path d="" fill="#000600" transform="translate(0,0)"/>
<path d="" fill="#000600" transform="translate(0,0)"/>
<path d="" fill="#000600" transform="translate(0,0)"/>
<path d="" fill="#001B51" transform="translate(0,0)"/>
<path d="" fill="#001B51" transform="translate(0,0)"/>
<path d="" fill="#001B51" transform="translate(0,0)"/>
<path d="" fill="#001B51" transform="translate(0,0)"/>
<path d="" fill="#000600" transform="translate(0,0)"/>
<path d="" fill="#001B51" transform="translate(0,0)"/>
<path d="" fill="#00001B" transform="translate(0,0)"/>
<path d="" fill="#00001B" transform="translate(0,0)"/>
<path d="" fill="#00107F" transform="translate(0,0)"/>
<path d="" fill="#001B51" transform="translate(0,0)"/>
<path d="" fill="#001B51" transform="translate(0,0)"/>
<path d="" fill="#001B51" transform="translate(0,0)"/>
<path d="" fill="#00107F" transform="translate(0,0)"/>
<path d="" fill="#001B51" transform="translate(0,0)"/>
<path d="" fill="#001B51" transform="translate(0,0)"/>
<path d="" fill="#001B51" transform="translate(0,0)"/>
<path d="" fill="#001B51" transform="translate(0,0)"/>
<path d="" fill="#001B51" transform="translate(0,0)"/>
<path d="" fill="#001B51" transform="translate(0,0)"/>
<path d="" fill="#001B51" transform="translate(0,0)"/>
<path d="" fill="#00107F" transform="translate(0,0)"/>
<path d="" fill="#00001B" transform="translate(0,0)"/>
<path d="" fill="#00001B" transform="translate(0,0)"/>
<path d="" fill="#001B51" transform="translate(0,0)"/>
<path d="" fill="#000600" transform="translate(0,0)"/>
<path d="" fill="#001B51" transform="translate(0,0)"/>
<path d="" fill="#001B51" transform="translate(0,0)"/>
<path d="" fill="#001B51" transform="translate(0,0)"/>
<path d="" fill="#001B51" transform="translate(0,0)"/>
<path d="" fill="#000600" transform="translate(0,0)"/>
<path d="" fill="#000600" transform="translate(0,0)"/>
<path d="" fill="#000600" transform="translate(0,0)"/>
<path d="" fill="#000600" transform="translate(0,0)"/>
<path d="" fill="#000600" transform="translate(0,0)"/>
<path d="" fill="#00001B" transform="translate(0,0)"/>
<path d="" fill="#001B51" transform="translate(0,0)"/>
<path d="" fill="#001B51" transform="translate(0,0)"/>
<path d="" fill="#00107F" transform="translate(0,0)"/>
<path d="" fill="#00107F" transform="translate(0,0)"/>
<path d="" fill="#001B51" transform="translate(0,0)"/>
<path d="" fill="#001B51" transform="translate(0,0)"/>
<path d="" fill="#0D3353" transform="translate(0,0)"/>
<path d="" fill="#0D3353" transform="translate(0,0)"/>
<path d="" fill="#000600" transform="translate(0,0)"/>
<path d="" fill="#00001B" transform="translate(0,0)"/>
<path d="" fill="#00001B" transform="translate(0,0)"/>
<path d="" fill="#00001B" transform="translate(0,0)"/>
<path d="" fill="#001B51" transform="translate(0,0)"/>
<path d="" fill="#00107F" transform="translate(0,0)"/>
</svg>
