<svg xmlns="http://www.w3.org/2000/svg" width="256" height="256" fill="none" xmlns:v="https://vecta.io/nano"><g clip-path="url(#A)"><path d="M255.71.29H.29v255.42h255.42V.29z" fill="#000" stroke="#000" stroke-miterlimit="10"/><path d="M216.874 73.956c-3.019-2.38-6.618-5.631-13.178-6.443-6.153-.813-12.422 3.309-16.66 6.037s-12.248 10.739-15.557 13.177-11.784 4.702-25.426 12.887-67.164 42.55-67.164 42.55l13.932.174-62.113 31.986h6.211l-8.94 6.792s7.895 2.089 14.512-2.09v1.915s73.956-29.141 88.236-21.594l-8.708 2.554c.755 0 14.803.929 14.803.929.341 2.909 1.319 5.707 2.864 8.195a19.91 19.91 0 0 0 6.076 6.201c8.475 5.573 8.649 8.65 8.649 8.65S150 187.675 150 189.939c0 0 6.502-1.974 12.539-1.799a47.96 47.96 0 0 1 11.32 1.799s-.465-2.438-6.328-4.063-11.668-8.011-14.512-11.494c-1.742-2.217-2.878-4.849-3.295-7.638s-.102-5.638.915-8.268c2.032-5.282 9.114-8.185 23.742-15.731 17.241-8.94 21.189-15.558 23.627-20.724s6.037-15.441 8.069-20.26c2.554-6.211 5.688-9.52 8.301-11.493S228.6 83.94 228.6 83.94l-11.726-9.985z" fill="#fff"/></g><defs><clipPath id="A"><rect width="256" height="256" rx="128" fill="#fff"/></clipPath></defs></svg>