<?xml version="1.0" encoding="UTF-8"?>
<svg version="1.1" xmlns="http://www.w3.org/2000/svg" width="200" height="200">
<path d="M0 0 C1.25296875 0.4125 2.5059375 0.825 3.796875 1.25 C28.74462541 10.06760046 48.21993996 28.50355897 60.08447266 52.01074219 C70.70512729 75.08730057 73.09510894 102.81586203 65 127 C64.5875 128.25296875 64.175 129.5059375 63.75 130.796875 C54.93239954 155.74462541 36.49644103 175.21993996 12.98925781 187.08447266 C-10.08730057 197.70512729 -37.81586203 200.09510894 -62 192 C-63.87945312 191.38125 -63.87945312 191.38125 -65.796875 190.75 C-90.74462541 181.93239954 -110.21993996 163.49644103 -122.08447266 139.98925781 C-132.70512729 116.91269943 -135.09510894 89.18413797 -127 65 C-126.5875 63.74703125 -126.175 62.4940625 -125.75 61.203125 C-116.93239954 36.25537459 -98.49644103 16.78006004 -74.98925781 4.91552734 C-51.91269943 -5.70512729 -24.18413797 -8.09510894 0 0 Z " fill="#0F1014" transform="translate(131,4)"/>
<path d="M0 0 C2.71773401 1.47522676 2.71773401 1.47522676 5.04296875 1.13671875 C7.20495284 0.16786281 9.28226018 -0.88602399 11.36328125 -2.01953125 C22.45597772 -7.60648233 33.94547407 -10.77631344 46.375 -8.19921875 C52.04149124 -6.32118165 56.4150008 -3.14447178 59.5625 1.93359375 C61.22458761 6.02928242 61.46200917 9.35347729 61.42578125 13.73046875 C61.42151123 14.51671631 61.41724121 15.30296387 61.4128418 16.11303711 C61.10835556 26.78727033 57.62767561 36.53290755 51.74609375 45.4609375 C50.64684026 47.91593695 50.97855932 48.78668297 51.92578125 51.29296875 C52.87373206 53.43207642 53.85648774 55.55591781 54.86328125 57.66796875 C60.12237975 68.70303047 63.18472282 80.91868817 59.86328125 93.04296875 C57.78573404 98.60606909 53.88866949 101.78033633 48.69921875 104.4296875 C38.27070721 107.67574532 25.70046346 105.5129876 15.92578125 101.29296875 C13.03669142 99.70155247 10.22363066 98.07147331 7.4609375 96.26953125 C3.89149513 94.89455345 2.4081683 95.7926685 -1.07421875 97.29296875 C-2.45031918 97.85726285 -3.82663567 98.42103022 -5.203125 98.984375 C-7.4328892 99.92186697 -9.65991312 100.86536313 -11.88476562 101.81445312 C-20.86161736 105.57945506 -31.07148435 107.14694533 -40.65625 104.609375 C-46.49584236 101.91847297 -50.30026797 97.46090594 -52.88671875 91.60546875 C-56.36242338 80.93726551 -53.19505767 70.32137624 -49.07421875 60.29296875 C-47.53169237 57.27867408 -45.91847915 54.39076111 -44.11328125 51.52734375 C-42.90768071 49.41731961 -42.90768071 49.41731961 -43.23046875 47.4140625 C-44.41007138 44.44867256 -45.65832589 41.52442797 -46.94921875 38.60546875 C-47.49276979 37.33934898 -48.03444492 36.07242218 -48.57421875 34.8046875 C-49.41251876 32.84210493 -50.2592069 30.88286635 -51.13671875 28.9375 C-54.18696782 21.3558713 -54.45638073 11.55611662 -52.3828125 3.66015625 C-49.71521848 -2.2107829 -45.14530929 -5.99297945 -39.26171875 -8.51953125 C-25.80027642 -12.92233382 -11.67117963 -6.52886057 0 0 Z " fill="#E7E8E8" transform="translate(96.07421875,51.70703125)"/>
<path d="M0 0 C15.85174624 5.81396335 33.99347821 26.1752201 41.4921875 40.9140625 C41.23763543 45.37963304 39.33605756 47.75902773 36.4921875 51.1015625 C35.67621094 52.06191406 34.86023438 53.02226563 34.01953125 54.01171875 C33.18550781 54.96949219 32.35148437 55.92726562 31.4921875 56.9140625 C30.75097656 57.77902344 30.00976562 58.64398438 29.24609375 59.53515625 C21.33397437 68.57556359 11.54659418 79.50058011 0.046875 83.8359375 C-3.67182806 83.94965931 -5.17938449 82.44533903 -8.0703125 80.1640625 C-8.58843506 79.75575195 -9.10655762 79.34744141 -9.64038086 78.92675781 C-11.28349766 77.61226437 -12.89900415 76.27028017 -14.5078125 74.9140625 C-15.01828125 74.48480469 -15.52875 74.05554688 -16.0546875 73.61328125 C-26.13462038 65.01416325 -36.45340151 54.80665551 -42.5078125 42.9140625 C-41.34772789 30.12676623 -22.60264021 15.62217884 -13.5078125 7.9140625 C-3.72892885 -0.12778261 -3.72892885 -0.12778261 0 0 Z " fill="#121317" transform="translate(100.5078125,58.0859375)"/>
<path d="M0 0 C3 1 3 1 4.28125 3.1171875 C9.32597389 14.53249219 13.88892745 26.95088139 10.2734375 39.52734375 C7.96355999 44.56963734 4.76604716 47.70415167 -0.29296875 50.07421875 C-11.54930812 53.92378936 -23.75087797 49.55254987 -33.94921875 44.5546875 C-36.00784553 43.42357388 -38.01923748 42.26146122 -40 41 C-40 40.34 -40 39.68 -40 39 C-38.14709617 37.64747118 -36.23929645 36.37000693 -34.3125 35.125 C-20.493588 25.86730065 -9.0636149 13.9345372 0 0 Z " fill="#121317" transform="translate(143,104)"/>
<path d="M0 0 C0.66 0 1.32 0 2 0 C3.12109375 1.51171875 3.12109375 1.51171875 4.4375 3.6875 C13.24206117 17.34751769 26.22779905 32.61389952 41 40 C40 43 40 43 37.0859375 44.53515625 C35.85363601 45.0554909 34.61636325 45.5641704 33.375 46.0625 C32.16585937 46.56910156 30.95671875 47.07570312 29.7109375 47.59765625 C23.35041641 50.0012637 17.74559043 51.34488863 10.9375 51.3125 C10.25623047 51.32861328 9.57496094 51.34472656 8.87304688 51.36132812 C4.1621528 51.36585348 0.99163822 50.47656386 -3 48 C-9.14946508 41.57101378 -10.52106237 36.38942932 -10.3828125 27.6796875 C-9.35481422 17.79831627 -5.30705461 8.33320489 0 0 Z " fill="#121317" transform="translate(55,103)"/>
<path d="M0 0 C4.36353961 4.4783696 6.28763311 9.07980064 6.4375 15.3125 C6.24480343 26.46137289 2.0600223 37.71656159 -4 47 C-4.66 47 -5.32 47 -6 47 C-7.35252882 45.14709617 -8.62999307 43.23929645 -9.875 41.3125 C-19.13269935 27.493588 -31.0654628 16.0636149 -45 7 C-44 4 -44 4 -41.12109375 2.46484375 C-28.65009011 -2.7060602 -12.19225208 -9.48286273 0 0 Z " fill="#121317" transform="translate(149,50)"/>
<path d="M0 0 C2.0419368 1.12547698 4.02865335 2.28058578 5.98046875 3.5546875 C3.01080817 6.72232545 -0.09473732 9.44540201 -3.51953125 12.1171875 C-15.6109434 21.7508497 -25.10599929 31.89907815 -34.01953125 44.5546875 C-37.01953125 43.5546875 -37.01953125 43.5546875 -38.5546875 40.7109375 C-43.34288694 29.24864933 -46.39743335 19.19286482 -45.01953125 6.5546875 C-42.64216128 0.78107472 -39.38163448 -2.8615118 -33.65625 -5.55859375 C-22.61968664 -9.27014913 -10.06814575 -4.8191642 0 0 Z " fill="#121317" transform="translate(91.01953125,51.4453125)"/>
<path d="M0 0 C0.66 0 1.32 0 2 0 C2.25394531 0.68707031 2.50789063 1.37414062 2.76953125 2.08203125 C3.11371094 2.98308594 3.45789063 3.88414063 3.8125 4.8125 C4.14894531 5.70582031 4.48539063 6.59914063 4.83203125 7.51953125 C5.97141874 9.93930066 7.09692319 11.18417026 9 13 C9 13.66 9 14.32 9 15 C9.54140625 15.26554687 10.0828125 15.53109375 10.640625 15.8046875 C13.37525582 17.19011305 16.06124141 18.65258458 18.75 20.125 C19.73484375 20.66382812 20.7196875 21.20265625 21.734375 21.7578125 C22.48203125 22.16773437 23.2296875 22.57765625 24 23 C21.66161642 24.55892239 19.7801505 25.54209559 17.25 26.625 C9.15543816 30.65740121 5.06543024 37.77474618 2 46 C1.34 46 0.68 46 0 46 C-0.20753906 45.443125 -0.41507813 44.88625 -0.62890625 44.3125 C-3.77219545 36.5266121 -7.80540146 30.17955224 -15.625 26.5625 C-18.70357027 25.36790949 -21.71099942 24.42438717 -25 24 C-22.6427295 21.6427295 -21.04508823 21.31984524 -17.875 20.375 C-10.8088384 17.85600137 -6.0210572 14.01921291 -2.62109375 7.2578125 C-1.64582948 4.85873035 -0.7698921 2.47175886 0 0 Z " fill="#F8F8F8" transform="translate(99,77)"/>
<path d="M0 0 C0.33 0 0.66 0 1 0 C1.02578125 0.9178125 1.0515625 1.835625 1.078125 2.78125 C1.45351833 10.9033965 1.95704222 17.15562751 7.3203125 23.58203125 C12.0170818 27.54697836 17.40046069 27.33218738 23.2578125 27.55859375 C26.26289571 28.04231797 27.1712921 28.6352915 29 31 C12.00334601 31.79671816 12.00334601 31.79671816 6 27 C0.04022212 21.17266163 -2.14087536 15.33080333 -2.3125 7.125 C-2.29230769 2.29230769 -2.29230769 2.29230769 0 0 Z " fill="#E4E4E4" transform="translate(44,126)"/>
<path d="M0 0 C0.66 0 1.32 0 2 0 C2.79236266 12.41368164 1.46836321 24.51741308 -6 35 C-7.485 35.495 -7.485 35.495 -9 36 C-8.00535249 32.93317017 -6.96579688 29.91339593 -5.78125 26.9140625 C-2.28633597 17.94236245 -0.83054956 9.54512184 0 0 Z " fill="#EDEDED" transform="translate(155,60)"/>
<path d="M0 0 C0.33 0.99 0.66 1.98 1 3 C-5.16114588 8.44473356 -9.41521428 10.33392768 -17.8125 10.125 C-18.85180664 10.11146484 -18.85180664 10.11146484 -19.91210938 10.09765625 C-21.60822395 10.07426157 -23.30415871 10.03839641 -25 10 C-25 9.34 -25 8.68 -25 8 C-24.154375 7.97421875 -23.30875 7.9484375 -22.4375 7.921875 C-13.33655306 7.46682765 -7.04098074 5.86748395 0 0 Z " fill="#F2F2F2" transform="translate(152,147)"/>
<path d="M0 0 C1.37012899 4.11038698 -0.20054784 6.64231692 -1.8125 10.4375 C-2.08642578 11.10587891 -2.36035156 11.77425781 -2.64257812 12.46289062 C-3.98163109 15.70294923 -5.37169466 18.89430543 -7 22 C-7.66 22 -8.32 22 -9 22 C-5.72938444 7.35656214 -5.72938444 7.35656214 -2 1 C-1.34 0.67 -0.68 0.34 0 0 Z " fill="#EBEBEB" transform="translate(52,105)"/>
<path d="M0 0 C1 2 1 2 0.4765625 3.8828125 C0.19554687 4.62273438 -0.08546875 5.36265625 -0.375 6.125 C-1.9127911 10.45749823 -2.58449112 14.42940231 -3 19 C-3.66 19 -4.32 19 -5 19 C-5.56477413 6.07294779 -5.56477413 6.07294779 -2 1 C-1.34 0.67 -0.68 0.34 0 0 Z " fill="#EEEEEE" transform="translate(48,51)"/>
<path d="M0 0 C0 0.66 0 1.32 0 2 C-2.26805795 2.69809445 -4.53866607 3.38371017 -6.8125 4.0625 C-7.45509766 4.26166016 -8.09769531 4.46082031 -8.75976562 4.66601562 C-13.66015625 6.11328125 -13.66015625 6.11328125 -17 5 C-11.38930449 0.42832218 -7.05082028 -0.23901086 0 0 Z " fill="#EEEEEF" transform="translate(130,44)"/>
<path d="M0 0 C0.33 0 0.66 0 1 0 C1.66 5.94 2.32 11.88 3 18 C2.01 18 1.02 18 0 18 C-1.31626692 14.38026598 -2 11.90432869 -2 8 C-1.34 8 -0.68 8 0 8 C0 5.36 0 2.72 0 0 Z " fill="#D3D3D3" transform="translate(45,62)"/>
<path d="M0 0 C0.66 0 1.32 0 2 0 C2.08078641 2.12438339 2.13909141 4.2496323 2.1875 6.375 C2.22230469 7.55835937 2.25710937 8.74171875 2.29296875 9.9609375 C2.19628906 10.96382812 2.09960938 11.96671875 2 13 C1.01 13.66 0.02 14.32 -1 15 C-0.67 10.05 -0.34 5.1 0 0 Z " fill="#FCFCFC" transform="translate(155,60)"/>
<path d="M0 0 C5.95703125 -0.29296875 5.95703125 -0.29296875 8 0 C8.99 0.99 9.98 1.98 11 3 C6.05 3 1.1 3 -4 3 C-2.68 2.67 -1.36 2.34 0 2 C0 1.34 0 0.68 0 0 Z " fill="#D2D2D2" transform="translate(62,154)"/>
<path d="M0 0 C0 3.72038015 -0.90324391 4.44902879 -3.3125 7.1875 C-3.92738281 7.90292969 -4.54226562 8.61835937 -5.17578125 9.35546875 C-7 11 -7 11 -10 11 C-8.55218207 7.55571735 -6.72305391 5.63869038 -3.875 3.25 C-3.15054688 2.63640625 -2.42609375 2.0228125 -1.6796875 1.390625 C-0.84824219 0.70226562 -0.84824219 0.70226562 0 0 Z " fill="#EFEFEF" transform="translate(73,77)"/>
<path d="M0 0 C1 2 1 2 0.44140625 4.1640625 C0.15136719 4.97617188 -0.13867188 5.78828125 -0.4375 6.625 C-0.72496094 7.44226563 -1.01242188 8.25953125 -1.30859375 9.1015625 C-1.53675781 9.72804687 -1.76492187 10.35453125 -2 11 C-2.99 10.67 -3.98 10.34 -5 10 C-3.14285714 2.42857143 -3.14285714 2.42857143 0 0 Z " fill="#DFDFDF" transform="translate(156,138)"/>
<path d="M0 0 C1.60031344 3.20062687 0.03173691 5.72271806 -1 9 C-1.99 9 -2.98 9 -4 9 C-3.38461538 3.46153846 -3.38461538 3.46153846 -1.4375 1.125 C-0.963125 0.75375 -0.48875 0.3825 0 0 Z " fill="#E4E4E4" transform="translate(156,73)"/>
<path d="M0 0 C0.66 0.33 1.32 0.66 2 1 C2 1.99 2 2.98 2 4 C-0.31 4.66 -2.62 5.32 -5 6 C-4.75 4.125 -4.75 4.125 -4 2 C-2.0625 0.6875 -2.0625 0.6875 0 0 Z " fill="#D8D8D9" transform="translate(113,47)"/>
<path d="M0 0 C0.93065133 2.60582371 1.14917407 3.64198224 0.0625 6.25 C-0.4634375 7.11625 -0.4634375 7.11625 -1 8 C-1.66 8 -2.32 8 -3 8 C-1.125 1.125 -1.125 1.125 0 0 Z " fill="#F2F2F2" transform="translate(46,119)"/>
</svg>
