<?xml version="1.0" encoding="UTF-8"?>
<svg version="1.1" xmlns="http://www.w3.org/2000/svg" width="64" height="64">
<path d="M0 0 C8.00736032 4.72086113 13.10284685 11.01713119 16.55859375 19.57421875 C18.46407192 29.96773603 17.72843026 39.67447395 11.703125 48.61328125 C5.830288 55.78969992 -1.69632536 60.7069771 -11.05078125 61.66015625 C-22.03043686 61.7843605 -29.90552618 59.89905082 -38 52.24609375 C-44.90425512 44.68062935 -47.27874989 36.6256844 -47.0625 26.44921875 C-46.17469657 17.45880429 -42.47084062 10.31904861 -35.75390625 4.32421875 C-25.34455197 -3.56836708 -12.06511799 -5.64623748 0 0 Z " fill="#2F3236" transform="translate(46.75390625,2.67578125)"/>
<path d="M0 0 C1.62008985 0.06585731 3.23877786 0.18436792 4.8515625 0.3515625 C5.68300781 0.39667969 6.51445313 0.44179687 7.37109375 0.48828125 C9.40938455 0.6054244 11.44393342 0.78480504 13.4765625 0.9765625 C5.62222624 15.94462762 5.62222624 15.94462762 1.69140625 22.01953125 C-0.35611747 25.31795371 -2.16154088 28.74787434 -3.99609375 32.16796875 C-5.78901205 35.46492081 -7.66146509 38.71811077 -9.5234375 41.9765625 C-15.4634375 41.9765625 -21.4034375 41.9765625 -27.5234375 41.9765625 C-25.95690442 38.0602298 -24.3562415 34.76977172 -22.2578125 31.15234375 C-21.61457031 30.04052734 -20.97132812 28.92871094 -20.30859375 27.78320312 C-19.63022032 26.6184826 -18.95183484 25.45376909 -18.2734375 24.2890625 C-17.61730469 23.15533203 -16.96117187 22.02160156 -16.28515625 20.85351562 C-14.98686733 18.61441893 -13.67730516 16.38181673 -12.35595703 14.15625 C-11.18220775 12.11962455 -10.0670599 10.04738547 -9.03076172 7.9375 C-5.20695 0.44660105 -5.20695 0.44660105 0 0 Z " fill="#AFB4BE" transform="translate(36.5234375,8.0234375)"/>
<path d="M0 0 C1.62008985 0.06585731 3.23877786 0.18436792 4.8515625 0.3515625 C5.68300781 0.39667969 6.51445313 0.44179687 7.37109375 0.48828125 C9.40938455 0.6054244 11.44393342 0.78480504 13.4765625 0.9765625 C0.80989583 13.64322917 -11.85677083 26.30989583 -24.5234375 38.9765625 C-24.8534375 38.3165625 -25.1834375 37.6565625 -25.5234375 36.9765625 C-24.35522461 34.52148438 -24.35522461 34.52148438 -22.55078125 31.4453125 C-21.89787109 30.32382812 -21.24496094 29.20234375 -20.57226562 28.046875 C-19.86863142 26.85668697 -19.16485458 25.66658325 -18.4609375 24.4765625 C-17.78378251 23.31813048 -17.10734207 22.15928046 -16.43164062 21 C-15.10234299 18.72712108 -13.76000679 16.46181411 -12.40429688 14.20458984 C-11.20690724 12.14956833 -10.0698939 10.05726903 -9.01757812 7.92431641 C-5.20302183 0.44773302 -5.20302183 0.44773302 0 0 Z " fill="#FBFBFB" transform="translate(36.5234375,8.0234375)"/>
<path d="M0 0 C2.23476676 2.08096341 3.77702186 4.09429608 5.26171875 6.7578125 C5.65810547 7.46550781 6.05449219 8.17320313 6.46289062 8.90234375 C7.06907227 10.00255859 7.06907227 10.00255859 7.6875 11.125 C8.10322266 11.86621094 8.51894531 12.60742188 8.94726562 13.37109375 C12 18.85498768 12 18.85498768 12 20 C4.41 20 -3.18 20 -11 20 C-9.741875 17.628125 -8.48375 15.25625 -7.1875 12.8125 C-6.79715576 12.07491455 -6.40681152 11.3373291 -6.00463867 10.57739258 C-4.09616382 6.98961491 -2.13126454 3.46246447 0 0 Z " fill="#5AA700" transform="translate(43,30)"/>
<path d="M0 0 C3.33274503 3.85625144 5.56499945 7.75963404 7.75 12.3125 C8.22373047 13.28026367 8.22373047 13.28026367 8.70703125 14.26757812 C9.47691708 15.84234459 10.23924891 17.4208004 11 19 C8.03 19 5.06 19 2 19 C1.66089006 16.95928485 1.32897296 14.91737379 1 12.875 C0.814375 11.73804688 0.62875 10.60109375 0.4375 9.4296875 C0.03043951 6.23862398 -0.07809902 3.21182209 0 0 Z " fill="#7EDD00" transform="translate(44,31)"/>
</svg>
