<?xml version="1.0" encoding="UTF-8"?>
<svg version="1.1" xmlns="http://www.w3.org/2000/svg" width="200" height="200">
<path d="M0 0 C2.82045877 2.30263418 5.56336058 4.67903285 8.27832031 7.10449219 C11.1535235 9.666713 11.1535235 9.666713 14.50878906 11.77246094 C17.18066406 13.58496094 17.18066406 13.58496094 17.86816406 15.77246094 C18.02285156 16.66964844 18.02285156 16.66964844 18.18066406 17.58496094 C19.17066406 17.91496094 20.16066406 18.24496094 21.18066406 18.58496094 C21.51066406 19.57496094 21.84066406 20.56496094 22.18066406 21.58496094 C22.78394531 22.1740625 23.38722656 22.76316406 24.00878906 23.37011719 C26.61161449 26.02443736 28.16331475 28.75588582 29.93066406 32.02246094 C30.85105469 33.69115234 30.85105469 33.69115234 31.79003906 35.39355469 C33.13514811 38.48050439 33.50200878 40.27881822 33.18066406 43.58496094 C33.84066406 43.58496094 34.50066406 43.58496094 35.18066406 43.58496094 C39.64424539 56.0781479 40.85665551 67.12735329 40.55566406 80.33496094 C40.53909422 82.04587815 40.52476266 83.75681854 40.51269531 85.46777344 C40.3702832 98.68935945 40.3702832 98.68935945 39.18066406 103.58496094 C38.52066406 103.58496094 37.86066406 103.58496094 37.18066406 103.58496094 C37.18066406 105.89496094 37.18066406 108.20496094 37.18066406 110.58496094 C36.52066406 110.58496094 35.86066406 110.58496094 35.18066406 110.58496094 C34.52066406 113.88496094 33.86066406 117.18496094 33.18066406 120.58496094 C32.52066406 120.58496094 31.86066406 120.58496094 31.18066406 120.58496094 C31.10589844 121.42542969 31.03113281 122.26589844 30.95410156 123.13183594 C30.00301116 127.37811833 28.20111083 130.25695184 25.80566406 133.83496094 C25.40605469 134.45886719 25.00644531 135.08277344 24.59472656 135.72558594 C22.64505024 138.70140769 21.175244 140.58857431 18.18066406 142.58496094 C17.87128906 143.24496094 17.56191406 143.90496094 17.24316406 144.58496094 C16.18066406 146.58496094 16.18066406 146.58496094 14.29394531 147.52246094 C12.05773456 148.64676653 10.95666201 149.72870379 9.30566406 151.58496094 C-7.5531495 168.76523493 -31.7922615 178.47350042 -55.67724609 178.87768555 C-83.14890277 179.03784131 -105.50892955 171.73865683 -126.31811523 153.40429688 C-129.3378039 150.75277047 -132.36813316 148.62599484 -135.81933594 146.58496094 C-136.52084746 145.26962683 -137.18459519 143.93378502 -137.81933594 142.58496094 C-139.08777344 141.37839844 -139.08777344 141.37839844 -140.38183594 140.14746094 C-142.93144067 137.46710724 -143.50996572 136.19428011 -143.81933594 132.58496094 C-144.80933594 132.25496094 -145.79933594 131.92496094 -146.81933594 131.58496094 C-150.62798259 125.57828936 -153.21756631 119.65575401 -153.81933594 112.58496094 C-154.47933594 111.59496094 -155.13933594 110.60496094 -155.81933594 109.58496094 C-156.19144014 108.26192377 -156.52563767 106.92758159 -156.81933594 105.58496094 C-157.14933594 104.59496094 -157.47933594 103.60496094 -157.81933594 102.58496094 C-158.14933594 102.58496094 -158.47933594 102.58496094 -158.81933594 102.58496094 C-158.87027326 96.32278946 -158.90516878 90.06067193 -158.92919922 83.79833984 C-158.93922299 81.67038984 -158.95284555 79.5424535 -158.97021484 77.41455078 C-158.99462286 74.34631976 -159.00585555 71.27827173 -159.01464844 68.20996094 C-159.02497101 67.26693115 -159.03529358 66.32390137 -159.04592896 65.35229492 C-159.04686971 59.74541582 -158.41278806 54.96630789 -156.81933594 49.58496094 C-156.15933594 49.58496094 -155.49933594 49.58496094 -154.81933594 49.58496094 C-154.69816406 48.88628906 -154.57699219 48.18761719 -154.45214844 47.46777344 C-154.28457031 46.55769531 -154.11699219 45.64761719 -153.94433594 44.70996094 C-153.78191406 43.80503906 -153.61949219 42.90011719 -153.45214844 41.96777344 C-152.81933594 39.58496094 -152.81933594 39.58496094 -150.81933594 37.58496094 C-149.71378412 35.63398714 -148.89319267 33.94732054 -148.44433594 31.74511719 C-147.67559861 29.08816878 -146.42875814 27.18569548 -144.88183594 24.89746094 C-144.3571875 24.10984375 -143.83253906 23.32222656 -143.29199219 22.51074219 C-141.81933594 20.58496094 -141.81933594 20.58496094 -139.81933594 19.58496094 C-139.48933594 18.59496094 -139.15933594 17.60496094 -138.81933594 16.58496094 C-138.25988281 16.318125 -137.70042969 16.05128906 -137.12402344 15.77636719 C-133.75454168 14.03451645 -131.50732154 11.25605376 -128.94433594 8.52246094 C-95.59880991 -25.77011212 -37.69548479 -29.31871039 0 0 Z M34.18066406 46.58496094 C35.18066406 48.58496094 35.18066406 48.58496094 35.18066406 48.58496094 Z M35.18066406 49.58496094 C36.18066406 51.58496094 36.18066406 51.58496094 36.18066406 51.58496094 Z M36.18066406 52.58496094 C37.18066406 55.58496094 37.18066406 55.58496094 37.18066406 55.58496094 Z M-156.81933594 53.58496094 C-155.81933594 56.58496094 -155.81933594 56.58496094 -155.81933594 56.58496094 Z M37.18066406 56.58496094 C38.18066406 59.58496094 38.18066406 59.58496094 38.18066406 59.58496094 Z M-157.81933594 57.58496094 C-156.81933594 61.58496094 -156.81933594 61.58496094 -156.81933594 61.58496094 Z M38.18066406 60.58496094 C38.18066406 62.23496094 38.18066406 63.88496094 38.18066406 65.58496094 C38.51066406 65.58496094 38.84066406 65.58496094 39.18066406 65.58496094 C39.18066406 63.93496094 39.18066406 62.28496094 39.18066406 60.58496094 C38.85066406 60.58496094 38.52066406 60.58496094 38.18066406 60.58496094 Z M38.18066406 93.58496094 C38.18066406 95.23496094 38.18066406 96.88496094 38.18066406 98.58496094 C38.51066406 98.58496094 38.84066406 98.58496094 39.18066406 98.58496094 C39.18066406 96.93496094 39.18066406 95.28496094 39.18066406 93.58496094 C38.85066406 93.58496094 38.52066406 93.58496094 38.18066406 93.58496094 Z " fill="#181AA7" transform="translate(158.8193359375,19.4150390625)"/>
<path d="M0 0 C2.82045877 2.30263418 5.56336058 4.67903285 8.27832031 7.10449219 C11.1535235 9.666713 11.1535235 9.666713 14.50878906 11.77246094 C17.18066406 13.58496094 17.18066406 13.58496094 17.86816406 15.77246094 C18.02285156 16.66964844 18.02285156 16.66964844 18.18066406 17.58496094 C19.17066406 17.91496094 20.16066406 18.24496094 21.18066406 18.58496094 C21.51066406 19.57496094 21.84066406 20.56496094 22.18066406 21.58496094 C22.78394531 22.1740625 23.38722656 22.76316406 24.00878906 23.37011719 C26.61161449 26.02443736 28.16331475 28.75588582 29.93066406 32.02246094 C30.85105469 33.69115234 30.85105469 33.69115234 31.79003906 35.39355469 C33.13514811 38.48050439 33.50200878 40.27881822 33.18066406 43.58496094 C33.84066406 43.58496094 34.50066406 43.58496094 35.18066406 43.58496094 C35.51066406 45.56496094 35.84066406 47.54496094 36.18066406 49.58496094 C33.70566406 50.07996094 33.70566406 50.07996094 31.18066406 50.58496094 C31.18066406 49.26496094 31.18066406 47.94496094 31.18066406 46.58496094 C29.86066406 46.58496094 28.54066406 46.58496094 27.18066406 46.58496094 C26.85066406 45.59496094 26.52066406 44.60496094 26.18066406 43.58496094 C25.19066406 43.25496094 24.20066406 42.92496094 23.18066406 42.58496094 C23.18066406 41.26496094 23.18066406 39.94496094 23.18066406 38.58496094 C21.53066406 38.58496094 19.88066406 38.58496094 18.18066406 38.58496094 C17.85066406 37.59496094 17.52066406 36.60496094 17.18066406 35.58496094 C14.21066406 36.07996094 14.21066406 36.07996094 11.18066406 36.58496094 C10.85066406 33.61496094 10.52066406 30.64496094 10.18066406 27.58496094 C9.19066406 27.25496094 8.20066406 26.92496094 7.18066406 26.58496094 C6.85066406 25.59496094 6.52066406 24.60496094 6.18066406 23.58496094 C5.19066406 23.25496094 4.20066406 22.92496094 3.18066406 22.58496094 C2.85066406 21.59496094 2.52066406 20.60496094 2.18066406 19.58496094 C1.19066406 19.25496094 0.20066406 18.92496094 -0.81933594 18.58496094 C-1.14933594 17.59496094 -1.47933594 16.60496094 -1.81933594 15.58496094 C-2.80933594 15.25496094 -3.79933594 14.92496094 -4.81933594 14.58496094 C-4.81933594 13.26496094 -4.81933594 11.94496094 -4.81933594 10.58496094 C-6.13933594 10.58496094 -7.45933594 10.58496094 -8.81933594 10.58496094 C-9.14933594 9.59496094 -9.47933594 8.60496094 -9.81933594 7.58496094 C-13.11933594 7.58496094 -16.41933594 7.58496094 -19.81933594 7.58496094 C-20.14933594 8.57496094 -20.47933594 9.56496094 -20.81933594 10.58496094 C-21.80933594 10.58496094 -22.79933594 10.58496094 -23.81933594 10.58496094 C-24.19058594 11.63683594 -24.19058594 11.63683594 -24.56933594 12.70996094 C-25.99113832 15.98010641 -27.69179882 18.72608294 -29.81933594 21.58496094 C-30.47933594 21.58496094 -31.13933594 21.58496094 -31.81933594 21.58496094 C-31.81933594 22.24496094 -31.81933594 22.90496094 -31.81933594 23.58496094 C-32.47933594 23.58496094 -33.13933594 23.58496094 -33.81933594 23.58496094 C-33.81933594 24.24496094 -33.81933594 24.90496094 -33.81933594 25.58496094 C-34.47933594 25.58496094 -35.13933594 25.58496094 -35.81933594 25.58496094 C-35.81933594 26.24496094 -35.81933594 26.90496094 -35.81933594 27.58496094 C-36.47933594 27.58496094 -37.13933594 27.58496094 -37.81933594 27.58496094 C-37.81933594 28.24496094 -37.81933594 28.90496094 -37.81933594 29.58496094 C-38.47933594 29.58496094 -39.13933594 29.58496094 -39.81933594 29.58496094 C-39.81933594 30.24496094 -39.81933594 30.90496094 -39.81933594 31.58496094 C-40.47933594 31.58496094 -41.13933594 31.58496094 -41.81933594 31.58496094 C-41.81933594 32.24496094 -41.81933594 32.90496094 -41.81933594 33.58496094 C-42.47933594 33.58496094 -43.13933594 33.58496094 -43.81933594 33.58496094 C-43.81933594 34.24496094 -43.81933594 34.90496094 -43.81933594 35.58496094 C-44.47933594 35.58496094 -45.13933594 35.58496094 -45.81933594 35.58496094 C-45.81933594 36.24496094 -45.81933594 36.90496094 -45.81933594 37.58496094 C-46.47933594 37.58496094 -47.13933594 37.58496094 -47.81933594 37.58496094 C-47.81933594 38.24496094 -47.81933594 38.90496094 -47.81933594 39.58496094 C-48.47933594 39.58496094 -49.13933594 39.58496094 -49.81933594 39.58496094 C-49.81933594 40.24496094 -49.81933594 40.90496094 -49.81933594 41.58496094 C-50.47933594 41.58496094 -51.13933594 41.58496094 -51.81933594 41.58496094 C-51.81933594 42.24496094 -51.81933594 42.90496094 -51.81933594 43.58496094 C-52.47933594 43.58496094 -53.13933594 43.58496094 -53.81933594 43.58496094 C-53.81933594 44.24496094 -53.81933594 44.90496094 -53.81933594 45.58496094 C-54.47933594 45.58496094 -55.13933594 45.58496094 -55.81933594 45.58496094 C-55.81933594 46.24496094 -55.81933594 46.90496094 -55.81933594 47.58496094 C-56.47933594 47.58496094 -57.13933594 47.58496094 -57.81933594 47.58496094 C-57.81933594 48.24496094 -57.81933594 48.90496094 -57.81933594 49.58496094 C-58.47933594 49.58496094 -59.13933594 49.58496094 -59.81933594 49.58496094 C-59.81933594 50.24496094 -59.81933594 50.90496094 -59.81933594 51.58496094 C-60.47933594 51.58496094 -61.13933594 51.58496094 -61.81933594 51.58496094 C-61.81933594 52.24496094 -61.81933594 52.90496094 -61.81933594 53.58496094 C-62.47933594 53.58496094 -63.13933594 53.58496094 -63.81933594 53.58496094 C-63.81933594 54.24496094 -63.81933594 54.90496094 -63.81933594 55.58496094 C-64.47933594 55.58496094 -65.13933594 55.58496094 -65.81933594 55.58496094 C-65.81933594 56.24496094 -65.81933594 56.90496094 -65.81933594 57.58496094 C-66.47933594 57.58496094 -67.13933594 57.58496094 -67.81933594 57.58496094 C-67.81933594 58.24496094 -67.81933594 58.90496094 -67.81933594 59.58496094 C-68.47933594 59.58496094 -69.13933594 59.58496094 -69.81933594 59.58496094 C-69.81933594 60.24496094 -69.81933594 60.90496094 -69.81933594 61.58496094 C-70.47933594 61.58496094 -71.13933594 61.58496094 -71.81933594 61.58496094 C-71.81933594 62.24496094 -71.81933594 62.90496094 -71.81933594 63.58496094 C-72.47933594 63.58496094 -73.13933594 63.58496094 -73.81933594 63.58496094 C-73.81933594 64.24496094 -73.81933594 64.90496094 -73.81933594 65.58496094 C-74.47933594 65.58496094 -75.13933594 65.58496094 -75.81933594 65.58496094 C-75.81933594 66.24496094 -75.81933594 66.90496094 -75.81933594 67.58496094 C-76.47933594 67.58496094 -77.13933594 67.58496094 -77.81933594 67.58496094 C-77.81933594 68.24496094 -77.81933594 68.90496094 -77.81933594 69.58496094 C-78.47933594 69.58496094 -79.13933594 69.58496094 -79.81933594 69.58496094 C-79.81933594 70.24496094 -79.81933594 70.90496094 -79.81933594 71.58496094 C-80.47933594 71.58496094 -81.13933594 71.58496094 -81.81933594 71.58496094 C-81.81933594 72.24496094 -81.81933594 72.90496094 -81.81933594 73.58496094 C-82.47933594 73.58496094 -83.13933594 73.58496094 -83.81933594 73.58496094 C-83.81933594 74.24496094 -83.81933594 74.90496094 -83.81933594 75.58496094 C-84.47933594 75.58496094 -85.13933594 75.58496094 -85.81933594 75.58496094 C-85.81933594 76.24496094 -85.81933594 76.90496094 -85.81933594 77.58496094 C-86.47933594 77.58496094 -87.13933594 77.58496094 -87.81933594 77.58496094 C-87.81933594 78.24496094 -87.81933594 78.90496094 -87.81933594 79.58496094 C-88.47933594 79.58496094 -89.13933594 79.58496094 -89.81933594 79.58496094 C-89.81933594 80.24496094 -89.81933594 80.90496094 -89.81933594 81.58496094 C-90.47933594 81.58496094 -91.13933594 81.58496094 -91.81933594 81.58496094 C-91.81933594 82.24496094 -91.81933594 82.90496094 -91.81933594 83.58496094 C-92.47933594 83.58496094 -93.13933594 83.58496094 -93.81933594 83.58496094 C-93.81933594 84.24496094 -93.81933594 84.90496094 -93.81933594 85.58496094 C-94.47933594 85.58496094 -95.13933594 85.58496094 -95.81933594 85.58496094 C-95.81933594 86.24496094 -95.81933594 86.90496094 -95.81933594 87.58496094 C-96.47933594 87.58496094 -97.13933594 87.58496094 -97.81933594 87.58496094 C-97.81933594 88.24496094 -97.81933594 88.90496094 -97.81933594 89.58496094 C-98.47933594 89.58496094 -99.13933594 89.58496094 -99.81933594 89.58496094 C-99.81933594 90.24496094 -99.81933594 90.90496094 -99.81933594 91.58496094 C-100.47933594 91.58496094 -101.13933594 91.58496094 -101.81933594 91.58496094 C-101.81933594 92.24496094 -101.81933594 92.90496094 -101.81933594 93.58496094 C-102.47933594 93.58496094 -103.13933594 93.58496094 -103.81933594 93.58496094 C-103.81933594 94.24496094 -103.81933594 94.90496094 -103.81933594 95.58496094 C-104.47933594 95.58496094 -105.13933594 95.58496094 -105.81933594 95.58496094 C-105.81933594 96.24496094 -105.81933594 96.90496094 -105.81933594 97.58496094 C-106.47933594 97.58496094 -107.13933594 97.58496094 -107.81933594 97.58496094 C-107.81933594 98.24496094 -107.81933594 98.90496094 -107.81933594 99.58496094 C-108.47933594 99.58496094 -109.13933594 99.58496094 -109.81933594 99.58496094 C-109.81933594 100.24496094 -109.81933594 100.90496094 -109.81933594 101.58496094 C-110.47933594 101.58496094 -111.13933594 101.58496094 -111.81933594 101.58496094 C-111.81933594 102.24496094 -111.81933594 102.90496094 -111.81933594 103.58496094 C-112.47933594 103.58496094 -113.13933594 103.58496094 -113.81933594 103.58496094 C-113.81933594 104.24496094 -113.81933594 104.90496094 -113.81933594 105.58496094 C-114.47933594 105.58496094 -115.13933594 105.58496094 -115.81933594 105.58496094 C-115.81933594 106.24496094 -115.81933594 106.90496094 -115.81933594 107.58496094 C-116.47933594 107.58496094 -117.13933594 107.58496094 -117.81933594 107.58496094 C-117.81933594 108.24496094 -117.81933594 108.90496094 -117.81933594 109.58496094 C-118.47933594 109.58496094 -119.13933594 109.58496094 -119.81933594 109.58496094 C-119.81933594 110.24496094 -119.81933594 110.90496094 -119.81933594 111.58496094 C-120.45871094 112.14183594 -121.09808594 112.69871094 -121.75683594 113.27246094 C-124.43849525 116.27916986 -124.51599738 118.64155975 -124.81933594 122.58496094 C-125.47933594 122.58496094 -126.13933594 122.58496094 -126.81933594 122.58496094 C-127.59352337 125.97203095 -128.19483678 129.11157812 -127.81933594 132.58496094 C-126.82933594 133.24496094 -125.83933594 133.90496094 -124.81933594 134.58496094 C-124.81933594 135.57496094 -124.81933594 136.56496094 -124.81933594 137.58496094 C-123.49933594 137.91496094 -122.17933594 138.24496094 -120.81933594 138.58496094 C-120.81933594 139.57496094 -120.81933594 140.56496094 -120.81933594 141.58496094 C-119.49933594 141.91496094 -118.17933594 142.24496094 -116.81933594 142.58496094 C-116.81933594 143.57496094 -116.81933594 144.56496094 -116.81933594 145.58496094 C-115.49933594 145.91496094 -114.17933594 146.24496094 -112.81933594 146.58496094 C-112.81933594 147.57496094 -112.81933594 148.56496094 -112.81933594 149.58496094 C-111.16933594 149.91496094 -109.51933594 150.24496094 -107.81933594 150.58496094 C-107.81933594 151.57496094 -107.81933594 152.56496094 -107.81933594 153.58496094 C-104.84933594 153.58496094 -101.87933594 153.58496094 -98.81933594 153.58496094 C-98.48933594 152.59496094 -98.15933594 151.60496094 -97.81933594 150.58496094 C-96.4860026 150.2516276 -95.15266927 149.91829427 -93.81933594 149.58496094 C-93.48933594 148.59496094 -93.15933594 147.60496094 -92.81933594 146.58496094 C-92.81933594 148.23496094 -92.81933594 149.88496094 -92.81933594 151.58496094 C-93.80933594 151.58496094 -94.79933594 151.58496094 -95.81933594 151.58496094 C-96.14933594 156.20496094 -96.47933594 160.82496094 -96.81933594 165.58496094 C-95.49933594 165.91496094 -94.17933594 166.24496094 -92.81933594 166.58496094 C-92.81933594 167.57496094 -92.81933594 168.56496094 -92.81933594 169.58496094 C-91.49933594 169.91496094 -90.17933594 170.24496094 -88.81933594 170.58496094 C-88.81933594 171.57496094 -88.81933594 172.56496094 -88.81933594 173.58496094 C-88.15933594 173.91496094 -87.49933594 174.24496094 -86.81933594 174.58496094 C-92.43861651 174.07544068 -96.59239072 172.56511385 -101.56933594 169.95996094 C-102.26889404 169.59950684 -102.96845215 169.23905273 -103.68920898 168.86767578 C-113.31271275 163.83989508 -121.57428581 158.2565629 -129.40917969 150.72167969 C-131.53481983 148.83719807 -133.28675026 147.77743401 -135.81933594 146.58496094 C-136.50420319 145.26088425 -137.16803796 143.92586853 -137.81933594 142.58496094 C-139.08777344 141.37839844 -139.08777344 141.37839844 -140.38183594 140.14746094 C-142.93144067 137.46710724 -143.50996572 136.19428011 -143.81933594 132.58496094 C-144.80933594 132.25496094 -145.79933594 131.92496094 -146.81933594 131.58496094 C-150.62798259 125.57828936 -153.21756631 119.65575401 -153.81933594 112.58496094 C-154.47933594 111.59496094 -155.13933594 110.60496094 -155.81933594 109.58496094 C-156.19144014 108.26192377 -156.52563767 106.92758159 -156.81933594 105.58496094 C-157.14933594 104.59496094 -157.47933594 103.60496094 -157.81933594 102.58496094 C-158.14933594 102.58496094 -158.47933594 102.58496094 -158.81933594 102.58496094 C-158.87027326 96.32278946 -158.90516878 90.06067193 -158.92919922 83.79833984 C-158.93922299 81.67038984 -158.95284555 79.5424535 -158.97021484 77.41455078 C-158.99462286 74.34631976 -159.00585555 71.27827173 -159.01464844 68.20996094 C-159.02497101 67.26693115 -159.03529358 66.32390137 -159.04592896 65.35229492 C-159.04686971 59.74541582 -158.41278806 54.96630789 -156.81933594 49.58496094 C-156.15933594 49.58496094 -155.49933594 49.58496094 -154.81933594 49.58496094 C-154.69816406 48.88628906 -154.57699219 48.18761719 -154.45214844 47.46777344 C-154.28457031 46.55769531 -154.11699219 45.64761719 -153.94433594 44.70996094 C-153.78191406 43.80503906 -153.61949219 42.90011719 -153.45214844 41.96777344 C-152.81933594 39.58496094 -152.81933594 39.58496094 -150.81933594 37.58496094 C-149.71378412 35.63398714 -148.89319267 33.94732054 -148.44433594 31.74511719 C-147.67559861 29.08816878 -146.42875814 27.18569548 -144.88183594 24.89746094 C-144.3571875 24.10984375 -143.83253906 23.32222656 -143.29199219 22.51074219 C-141.81933594 20.58496094 -141.81933594 20.58496094 -139.81933594 19.58496094 C-139.48933594 18.59496094 -139.15933594 17.60496094 -138.81933594 16.58496094 C-138.25988281 16.318125 -137.70042969 16.05128906 -137.12402344 15.77636719 C-133.75454168 14.03451645 -131.50732154 11.25605376 -128.94433594 8.52246094 C-95.59880991 -25.77011212 -37.69548479 -29.31871039 0 0 Z M34.18066406 46.58496094 C35.18066406 48.58496094 35.18066406 48.58496094 35.18066406 48.58496094 Z M-156.81933594 53.58496094 C-155.81933594 56.58496094 -155.81933594 56.58496094 -155.81933594 56.58496094 Z M-157.81933594 57.58496094 C-156.81933594 61.58496094 -156.81933594 61.58496094 -156.81933594 61.58496094 Z " fill="#BEE9F1" transform="translate(158.8193359375,19.4150390625)"/>
<path d="M0 0 C3.3 0 6.6 0 10 0 C10.495 1.98 10.495 1.98 11 4 C12.32 4 13.64 4 15 4 C15 5.32 15 6.64 15 8 C16.32 8.33 17.64 8.66 19 9 C19 9.99 19 10.98 19 12 C20.98 12.495 20.98 12.495 23 13 C23 13.99 23 14.98 23 16 C24.32 16.33 25.64 16.66 27 17 C27 17.99 27 18.98 27 20 C28.32 20.33 29.64 20.66 31 21 C30.98259766 21.93972656 30.98259766 21.93972656 30.96484375 22.8984375 C30.95582031 23.71570313 30.94679687 24.53296875 30.9375 25.375 C30.92009766 26.59316406 30.92009766 26.59316406 30.90234375 27.8359375 C30.85533666 30.04937142 30.85533666 30.04937142 32 32 C31.071875 32.1546875 31.071875 32.1546875 30.125 32.3125 C27.63473516 32.87525373 27.63473516 32.87525373 26 36 C25.01 36 24.02 36 23 36 C23.33 37.32 23.66 38.64 24 40 C23.34644531 40.52787109 23.34644531 40.52787109 22.6796875 41.06640625 C18.85689601 44.23551694 15.6207617 47.52204749 12.46484375 51.34765625 C10.23685612 53.86082629 7.57684274 55.85263105 5 58 C3.97914468 59.14846224 2.97968065 60.31621922 2 61.5 C-0.70147457 64.76428178 -3.74222055 67.28518379 -7 70 C-8.02085532 71.14846224 -9.02031935 72.31621922 -10 73.5 C-12.70147457 76.76428178 -15.74222055 79.28518379 -19 82 C-20.02085532 83.14846224 -21.02031935 84.31621922 -22 85.5 C-24.70147457 88.76428178 -27.74222055 91.28518379 -31 94 C-32.02085532 95.14846224 -33.02031935 96.31621922 -34 97.5 C-36.70147457 100.76428178 -39.74222055 103.28518379 -43 106 C-44.02085532 107.14846224 -45.02031935 108.31621922 -46 109.5 C-48.70147457 112.76428178 -51.74222055 115.28518379 -55 118 C-56.54287973 119.7357397 -58.01594019 121.51926973 -59.49609375 123.30859375 C-61.74207404 125.83459236 -64.40247568 127.84460748 -67 130 C-71.06207928 134.24671925 -72.76645373 137.39297152 -74 143 C-75.32 143.33 -76.64 143.66 -78 144 C-78.33 145.32 -78.66 146.64 -79 148 C-81.97 148 -84.94 148 -88 148 C-88.33 147.01 -88.66 146.02 -89 145 C-91.00016466 143.79117904 -91.00016466 143.79117904 -93 143 C-93 142.01 -93 141.02 -93 140 C-94.32 139.67 -95.64 139.34 -97 139 C-97 138.01 -97 137.02 -97 136 C-98.32 135.67 -99.64 135.34 -101 135 C-101 134.01 -101 133.02 -101 132 C-102.32 131.67 -103.64 131.34 -105 131 C-105 130.01 -105 129.02 -105 128 C-106.32 127.34 -107.64 126.68 -109 126 C-109 123.36 -109 120.72 -109 118 C-108.34 118 -107.68 118 -107 118 C-107 117.34 -107 116.68 -107 116 C-106.34 116 -105.68 116 -105 116 C-105.061875 114.9275 -105.12375 113.855 -105.1875 112.75 C-104.99552747 108.91054943 -104.71836779 107.61381519 -102 105 C-101.34 105 -100.68 105 -100 105 C-100 104.34 -100 103.68 -100 103 C-99.34 103 -98.68 103 -98 103 C-98 102.34 -98 101.68 -98 101 C-97.34 101 -96.68 101 -96 101 C-96 100.34 -96 99.68 -96 99 C-95.34 99 -94.68 99 -94 99 C-94 98.34 -94 97.68 -94 97 C-93.34 97 -92.68 97 -92 97 C-92 96.34 -92 95.68 -92 95 C-91.34 95 -90.68 95 -90 95 C-90 94.34 -90 93.68 -90 93 C-89.34 93 -88.68 93 -88 93 C-88 92.34 -88 91.68 -88 91 C-87.34 91 -86.68 91 -86 91 C-86 90.34 -86 89.68 -86 89 C-85.34 89 -84.68 89 -84 89 C-84 88.34 -84 87.68 -84 87 C-83.34 87 -82.68 87 -82 87 C-82 86.34 -82 85.68 -82 85 C-81.34 85 -80.68 85 -80 85 C-80 84.34 -80 83.68 -80 83 C-79.34 83 -78.68 83 -78 83 C-78 82.34 -78 81.68 -78 81 C-77.34 81 -76.68 81 -76 81 C-76 80.34 -76 79.68 -76 79 C-75.34 79 -74.68 79 -74 79 C-74 78.34 -74 77.68 -74 77 C-73.34 77 -72.68 77 -72 77 C-72 76.34 -72 75.68 -72 75 C-71.34 75 -70.68 75 -70 75 C-70 74.34 -70 73.68 -70 73 C-69.34 73 -68.68 73 -68 73 C-68 72.34 -68 71.68 -68 71 C-67.34 71 -66.68 71 -66 71 C-66 70.34 -66 69.68 -66 69 C-65.34 69 -64.68 69 -64 69 C-64 68.34 -64 67.68 -64 67 C-63.34 67 -62.68 67 -62 67 C-62 66.34 -62 65.68 -62 65 C-61.34 65 -60.68 65 -60 65 C-60 64.34 -60 63.68 -60 63 C-59.34 63 -58.68 63 -58 63 C-58 62.34 -58 61.68 -58 61 C-57.34 61 -56.68 61 -56 61 C-56 60.34 -56 59.68 -56 59 C-55.34 59 -54.68 59 -54 59 C-54 58.34 -54 57.68 -54 57 C-53.34 57 -52.68 57 -52 57 C-52 56.34 -52 55.68 -52 55 C-51.34 55 -50.68 55 -50 55 C-50 54.34 -50 53.68 -50 53 C-49.34 53 -48.68 53 -48 53 C-48 52.34 -48 51.68 -48 51 C-47.34 51 -46.68 51 -46 51 C-46 50.34 -46 49.68 -46 49 C-45.34 49 -44.68 49 -44 49 C-44 48.34 -44 47.68 -44 47 C-43.34 47 -42.68 47 -42 47 C-42 46.34 -42 45.68 -42 45 C-41.34 45 -40.68 45 -40 45 C-40 44.34 -40 43.68 -40 43 C-39.34 43 -38.68 43 -38 43 C-38 42.34 -38 41.68 -38 41 C-37.34 41 -36.68 41 -36 41 C-36 40.34 -36 39.68 -36 39 C-35.34 39 -34.68 39 -34 39 C-34 38.34 -34 37.68 -34 37 C-33.34 37 -32.68 37 -32 37 C-32 36.34 -32 35.68 -32 35 C-31.34 35 -30.68 35 -30 35 C-30 34.34 -30 33.68 -30 33 C-29.34 33 -28.68 33 -28 33 C-28 32.34 -28 31.68 -28 31 C-27.34 31 -26.68 31 -26 31 C-26 30.34 -26 29.68 -26 29 C-25.34 29 -24.68 29 -24 29 C-24 28.34 -24 27.68 -24 27 C-23.34 27 -22.68 27 -22 27 C-22 26.34 -22 25.68 -22 25 C-21.34 25 -20.68 25 -20 25 C-20 24.34 -20 23.68 -20 23 C-19.34 23 -18.68 23 -18 23 C-18 22.34 -18 21.68 -18 21 C-17.34 21 -16.68 21 -16 21 C-16 20.34 -16 19.68 -16 19 C-15.34 19 -14.68 19 -14 19 C-14 18.34 -14 17.68 -14 17 C-13.34 17 -12.68 17 -12 17 C-12 16.34 -12 15.68 -12 15 C-11.34 15 -10.68 15 -10 15 C-9.731875 14.2575 -9.46375 13.515 -9.1875 12.75 C-8 10 -8 10 -6.375 7.875 C-4.70431817 5.9843199 -4.70431817 5.9843199 -5 3 C-3.68 3.33 -2.36 3.66 -1 4 C-0.67 2.68 -0.34 1.36 0 0 Z " fill="#5BBFF0" transform="translate(139,26)"/>
<path d="M0 0 C0.82693359 0.00451172 1.65386719 0.00902344 2.50585938 0.01367188 C4.52477146 0.02534189 6.54364574 0.04327282 8.5625 0.0625 C8.5625 0.7225 8.5625 1.3825 8.5625 2.0625 C7.5725 2.3925 6.5825 2.7225 5.5625 3.0625 C5.2325 4.0525 4.9025 5.0425 4.5625 6.0625 C3.5725 6.3925 2.5825 6.7225 1.5625 7.0625 C1.2325 8.0525 0.9025 9.0425 0.5625 10.0625 C-0.4275 10.3925 -1.4175 10.7225 -2.4375 11.0625 C-2.7675 12.0525 -3.0975 13.0425 -3.4375 14.0625 C-4.4275 14.3925 -5.4175 14.7225 -6.4375 15.0625 C-6.7675 16.0525 -7.0975 17.0425 -7.4375 18.0625 C-8.9225 18.5575 -8.9225 18.5575 -10.4375 19.0625 C-10.9325 20.5475 -10.9325 20.5475 -11.4375 22.0625 C-12.9225 22.5575 -12.9225 22.5575 -14.4375 23.0625 C-14.9325 24.5475 -14.9325 24.5475 -15.4375 26.0625 C-16.9225 26.5575 -16.9225 26.5575 -18.4375 27.0625 C-18.9325 28.5475 -18.9325 28.5475 -19.4375 30.0625 C-20.9225 30.5575 -20.9225 30.5575 -22.4375 31.0625 C-22.7675 32.0525 -23.0975 33.0425 -23.4375 34.0625 C-24.9225 34.5575 -24.9225 34.5575 -26.4375 35.0625 C-26.7675 36.0525 -27.0975 37.0425 -27.4375 38.0625 C-28.9225 38.5575 -28.9225 38.5575 -30.4375 39.0625 C-30.7675 40.0525 -31.0975 41.0425 -31.4375 42.0625 C-32.9225 42.5575 -32.9225 42.5575 -34.4375 43.0625 C-34.7675 44.0525 -35.0975 45.0425 -35.4375 46.0625 C-36.4275 46.3925 -37.4175 46.7225 -38.4375 47.0625 C-38.7675 48.0525 -39.0975 49.0425 -39.4375 50.0625 C-40.4275 50.3925 -41.4175 50.7225 -42.4375 51.0625 C-42.7675 52.0525 -43.0975 53.0425 -43.4375 54.0625 C-44.4275 54.3925 -45.4175 54.7225 -46.4375 55.0625 C-46.7675 56.0525 -47.0975 57.0425 -47.4375 58.0625 C-48.4275 58.3925 -49.4175 58.7225 -50.4375 59.0625 C-50.7675 60.0525 -51.0975 61.0425 -51.4375 62.0625 C-52.4275 62.3925 -53.4175 62.7225 -54.4375 63.0625 C-54.7675 64.0525 -55.0975 65.0425 -55.4375 66.0625 C-56.4275 66.3925 -57.4175 66.7225 -58.4375 67.0625 C-58.9325 68.5475 -58.9325 68.5475 -59.4375 70.0625 C-60.4275 70.3925 -61.4175 70.7225 -62.4375 71.0625 C-62.9325 72.5475 -62.9325 72.5475 -63.4375 74.0625 C-64.4275 74.3925 -65.4175 74.7225 -66.4375 75.0625 C-66.7675 76.0525 -67.0975 77.0425 -67.4375 78.0625 C-68.9225 78.5575 -68.9225 78.5575 -70.4375 79.0625 C-70.7675 80.0525 -71.0975 81.0425 -71.4375 82.0625 C-72.9225 82.5575 -72.9225 82.5575 -74.4375 83.0625 C-74.7675 84.0525 -75.0975 85.0425 -75.4375 86.0625 C-76.9225 86.5575 -76.9225 86.5575 -78.4375 87.0625 C-78.7675 88.0525 -79.0975 89.0425 -79.4375 90.0625 C-80.9225 90.5575 -80.9225 90.5575 -82.4375 91.0625 C-82.7675 92.0525 -83.0975 93.0425 -83.4375 94.0625 C-84.9225 94.5575 -84.9225 94.5575 -86.4375 95.0625 C-86.7675 96.0525 -87.0975 97.0425 -87.4375 98.0625 C-88.9225 98.5575 -88.9225 98.5575 -90.4375 99.0625 C-90.7675 103.3525 -91.0975 107.6425 -91.4375 112.0625 C-92.0975 112.0625 -92.7575 112.0625 -93.4375 112.0625 C-94.9225 117.0125 -94.9225 117.0125 -96.4375 122.0625 C-96.7675 122.0625 -97.0975 122.0625 -97.4375 122.0625 C-97.48843732 115.80032852 -97.52333284 109.53821099 -97.54736328 103.27587891 C-97.55738705 101.14792891 -97.57100961 99.01999256 -97.58837891 96.89208984 C-97.61278692 93.82385882 -97.62401961 90.7558108 -97.6328125 87.6875 C-97.64313507 86.74447021 -97.65345764 85.80144043 -97.66409302 84.82983398 C-97.66503377 79.22295488 -97.03095212 74.44384696 -95.4375 69.0625 C-94.7775 69.0625 -94.1175 69.0625 -93.4375 69.0625 C-93.31632812 68.36382812 -93.19515625 67.66515625 -93.0703125 66.9453125 C-92.90273437 66.03523438 -92.73515625 65.12515625 -92.5625 64.1875 C-92.40007812 63.28257813 -92.23765625 62.37765625 -92.0703125 61.4453125 C-91.4375 59.0625 -91.4375 59.0625 -89.4375 57.0625 C-88.33194818 55.1115262 -87.51135673 53.4248596 -87.0625 51.22265625 C-86.29376267 48.56570785 -85.0469222 46.66323455 -83.5 44.375 C-82.97535156 43.58738281 -82.45070313 42.79976562 -81.91015625 41.98828125 C-80.4375 40.0625 -80.4375 40.0625 -78.4375 39.0625 C-78.1075 38.0725 -77.7775 37.0825 -77.4375 36.0625 C-76.87804687 35.79566406 -76.31859375 35.52882812 -75.7421875 35.25390625 C-72.37270574 33.51205551 -70.12548561 30.73359282 -67.5625 28 C-50.03059708 9.97017312 -25.09565047 -0.26288756 0 0 Z M-95.4375 73.0625 C-94.4375 76.0625 -94.4375 76.0625 -94.4375 76.0625 Z M-96.4375 77.0625 C-95.4375 81.0625 -95.4375 81.0625 -95.4375 81.0625 Z " fill="#FEFEFE" transform="translate(97.4375,-0.0625)"/>
<path d="M0 0 C0.16829455 4.18065038 0.32877828 8.36150738 0.48217773 12.54272461 C0.5353937 13.96370413 0.59070571 15.38460681 0.64819336 16.80541992 C0.73067774 18.85318439 0.80550405 20.90111102 0.87890625 22.94921875 C0.94960327 24.79519653 0.94960327 24.79519653 1.02172852 26.6784668 C1.00242643 29.62908353 0.70348686 32.14578563 0 35 C-0.66 35 -1.32 35 -2 35 C-2 37.31 -2 39.62 -2 42 C-2.66 42 -3.32 42 -4 42 C-4.99 46.95 -4.99 46.95 -6 52 C-6.66 52 -7.32 52 -8 52 C-8.07476562 52.84046875 -8.14953125 53.6809375 -8.2265625 54.546875 C-9.1776529 58.79315739 -10.97955323 61.6719909 -13.375 65.25 C-13.77460938 65.87390625 -14.17421875 66.4978125 -14.5859375 67.140625 C-16.53561382 70.11644676 -18.00542006 72.00361337 -21 74 C-21.4640625 74.99 -21.4640625 74.99 -21.9375 76 C-23 78 -23 78 -24.88671875 78.9375 C-27.1229295 80.06180559 -28.22400205 81.14374285 -29.875 83 C-44.43263363 97.83521563 -67.14680316 109.33178002 -88.15600586 110.07641602 C-90.56321978 110.09801317 -92.96783291 110.08745468 -95.375 110.0625 C-96.20644531 110.05798828 -97.03789063 110.05347656 -97.89453125 110.04882812 C-99.92971897 110.03713164 -101.96486923 110.01919935 -104 110 C-102.515 109.505 -102.515 109.505 -101 109 C-100.26676204 106.98491642 -100.26676204 106.98491642 -100 105 C-99.01 105 -98.02 105 -97 105 C-96.67 103.68 -96.34 102.36 -96 101 C-95.01 101 -94.02 101 -93 101 C-92.67 99.68 -92.34 98.36 -92 97 C-91.01 97 -90.02 97 -89 97 C-88.67 95.68 -88.34 94.36 -88 93 C-87.01 93 -86.02 93 -85 93 C-84.67 91.68 -84.34 90.36 -84 89 C-83.01 89 -82.02 89 -81 89 C-80.67 87.68 -80.34 86.36 -80 85 C-79.01 85 -78.02 85 -77 85 C-76.67 83.68 -76.34 82.36 -76 81 C-75.01 81 -74.02 81 -73 81 C-72.67 79.68 -72.34 78.36 -72 77 C-71.01 77 -70.02 77 -69 77 C-68.505 75.02 -68.505 75.02 -68 73 C-67.01 73 -66.02 73 -65 73 C-64.505 71.02 -64.505 71.02 -64 69 C-63.01 69 -62.02 69 -61 69 C-60.505 67.02 -60.505 67.02 -60 65 C-59.01 65 -58.02 65 -57 65 C-56.67 63.68 -56.34 62.36 -56 61 C-55.01 61 -54.02 61 -53 61 C-52.67 59.68 -52.34 58.36 -52 57 C-51.01 57 -50.02 57 -49 57 C-48.67 55.68 -48.34 54.36 -48 53 C-47.01 53 -46.02 53 -45 53 C-44.67 51.68 -44.34 50.36 -44 49 C-43.01 49 -42.02 49 -41 49 C-40.67 47.68 -40.34 46.36 -40 45 C-39.01 45 -38.02 45 -37 45 C-36.67 43.68 -36.34 42.36 -36 41 C-35.01 41 -34.02 41 -33 41 C-32.67 39.68 -32.34 38.36 -32 37 C-31.01 37 -30.02 37 -29 37 C-28.67 35.68 -28.34 34.36 -28 33 C-27.01 33 -26.02 33 -25 33 C-24.67 31.68 -24.34 30.36 -24 29 C-23.01 29 -22.02 29 -21 29 C-20.67 27.68 -20.34 26.36 -20 25 C-19.01 25 -18.02 25 -17 25 C-16.67 23.68 -16.34 22.36 -16 21 C-15.01 21 -14.02 21 -13 21 C-12.67 19.68 -12.34 18.36 -12 17 C-11.01 17 -10.02 17 -9 17 C-8.67 15.68 -8.34 14.36 -8 13 C-7.01 13 -6.02 13 -5 13 C-4.67 9.04 -4.34 5.08 -4 1 C-1 0 -1 0 0 0 Z M-1 25 C-1 26.65 -1 28.3 -1 30 C-0.67 30 -0.34 30 0 30 C0 28.35 0 26.7 0 25 C-0.33 25 -0.66 25 -1 25 Z " fill="#FFFFFF" transform="translate(198,88)"/>
<path d="M0 0 C0.66 0 1.32 0 2 0 C2 0.99 2 1.98 2 3 C3.32 3.33 4.64 3.66 6 4 C6 4.99 6 5.98 6 7 C7.32 7.33 8.64 7.66 10 8 C10 8.99 10 9.98 10 11 C10.928125 11.1546875 10.928125 11.1546875 11.875 11.3125 C14 12 14 12 16 15 C18.57768409 16.54661045 21.06949721 17.37203512 24 18 C24 17.34 24 16.68 24 16 C25.32 16 26.64 16 28 16 C27.835 16.721875 27.67 17.44375 27.5 18.1875 C27.01354343 20.92381823 26.70110301 23.23520281 27 26 C27.99 26.66 28.98 27.32 30 28 C30 28.99 30 29.98 30 31 C31.32 31.33 32.64 31.66 34 32 C34 32.99 34 33.98 34 35 C35.32 35.33 36.64 35.66 38 36 C38 36.99 38 37.98 38 39 C39.32 39.33 40.64 39.66 42 40 C42 40.99 42 41.98 42 43 C43.65 43.33 45.3 43.66 47 44 C47 44.99 47 45.98 47 47 C49.97 47 52.94 47 56 47 C56.33 46.01 56.66 45.02 57 44 C58.33333333 43.66666667 59.66666667 43.33333333 61 43 C61.33 42.01 61.66 41.02 62 40 C62 41.65 62 43.3 62 45 C61.01 45 60.02 45 59 45 C58.67 49.62 58.34 54.24 58 59 C59.32 59.33 60.64 59.66 62 60 C62 60.99 62 61.98 62 63 C63.32 63.33 64.64 63.66 66 64 C66 64.99 66 65.98 66 67 C66.66 67.33 67.32 67.66 68 68 C62.38071943 67.49047974 58.22694521 65.98015291 53.25 63.375 C52.55044189 63.0145459 51.85088379 62.6540918 51.13012695 62.28271484 C41.50662319 57.25493414 33.24505013 51.67160197 25.41015625 44.13671875 C23.28451611 42.25223714 21.53258567 41.19247307 19 40 C18.31513275 38.67592331 17.65129797 37.34090759 17 36 C16.154375 35.195625 15.30875 34.39125 14.4375 33.5625 C11.88789526 30.8821463 11.30937021 29.60931917 11 26 C10.01 25.67 9.02 25.34 8 25 C4.25936785 19.10059507 1.42178944 13.02982402 1 6 C0.6725678 3.99902542 0.34123581 1.99866686 0 0 Z " fill="#FDFDFE" transform="translate(4,126)"/>
<path d="M0 0 C16.98006388 2.42572341 31.69286613 13.6601403 43.80859375 25.1171875 C45.82489482 26.84955313 47.64630265 27.82840512 50 29 C50.36162029 30.32594105 50.69728039 31.65938457 51 33 C51.99 33.33 52.98 33.66 54 34 C54.33 34.99 54.66 35.98 55 37 C55.60328125 37.58910156 56.2065625 38.17820313 56.828125 38.78515625 C59.43095043 41.43947643 60.98265069 44.17092488 62.75 47.4375 C63.36359375 48.54996094 63.9771875 49.66242187 64.609375 50.80859375 C65.95448405 53.89554345 66.32134471 55.69385728 66 59 C66.66 59 67.32 59 68 59 C68.495 61.97 68.495 61.97 69 65 C67.35 65.33 65.7 65.66 64 66 C64 64.68 64 63.36 64 62 C62.68 62 61.36 62 60 62 C59.67 61.01 59.34 60.02 59 59 C58.01 58.67 57.02 58.34 56 58 C56 56.68 56 55.36 56 54 C54.35 54 52.7 54 51 54 C50.67 53.01 50.34 52.02 50 51 C47.03 51.495 47.03 51.495 44 52 C43.505 47.545 43.505 47.545 43 43 C42.01 42.67 41.02 42.34 40 42 C39.67 41.01 39.34 40.02 39 39 C38.01 38.67 37.02 38.34 36 38 C35.67 37.01 35.34 36.02 35 35 C34.01 34.67 33.02 34.34 32 34 C31.67 33.01 31.34 32.02 31 31 C30.01 30.67 29.02 30.34 28 30 C28 28.68 28 27.36 28 26 C26.68 26 25.36 26 24 26 C23.67 25.01 23.34 24.02 23 23 C19.37 23 15.74 23 12 23 C12 18.71 12 14.42 12 10 C10.68 10 9.36 10 8 10 C8 8.68 8 7.36 8 6 C6.68 6 5.36 6 4 6 C4 4.68 4 3.36 4 2 C2.68 2 1.36 2 0 2 C0 1.34 0 0.68 0 0 Z M67 62 C68 64 68 64 68 64 Z " fill="#FEFEFE" transform="translate(126,4)"/>
<path d="M0 0 C2.1875 0.3125 2.1875 0.3125 4 1 C4 1.66 4 2.32 4 3 C3.34 3 2.68 3 2 3 C1.67 4.65 1.34 6.3 1 8 C0.01 8 -0.98 8 -2 8 C-2.33 9.32 -2.66 10.64 -3 12 C-3.99 12 -4.98 12 -6 12 C-6.33 13.32 -6.66 14.64 -7 16 C-7.99 16 -8.98 16 -10 16 C-10.33 17.32 -10.66 18.64 -11 20 C-11.99 20 -12.98 20 -14 20 C-14.33 21.32 -14.66 22.64 -15 24 C-15.99 24 -16.98 24 -18 24 C-18.33 25.32 -18.66 26.64 -19 28 C-19.99 28 -20.98 28 -22 28 C-22.33 29.32 -22.66 30.64 -23 32 C-23.99 32 -24.98 32 -26 32 C-26.33 33.32 -26.66 34.64 -27 36 C-27.99 36 -28.98 36 -30 36 C-30.33 37.32 -30.66 38.64 -31 40 C-31.99 40 -32.98 40 -34 40 C-34.33 41.32 -34.66 42.64 -35 44 C-35.99 44 -36.98 44 -38 44 C-38.33 45.32 -38.66 46.64 -39 48 C-39.99 48 -40.98 48 -42 48 C-42.33 49.32 -42.66 50.64 -43 52 C-43.99 52 -44.98 52 -46 52 C-46.33 53.32 -46.66 54.64 -47 56 C-47.99 56 -48.98 56 -50 56 C-50.33 57.32 -50.66 58.64 -51 60 C-51.99 60 -52.98 60 -54 60 C-54.33 61.32 -54.66 62.64 -55 64 C-55.99 64 -56.98 64 -58 64 C-58.495 65.98 -58.495 65.98 -59 68 C-59.99 68 -60.98 68 -62 68 C-62.33 69.32 -62.66 70.64 -63 72 C-63.99 72 -64.98 72 -66 72 C-66.33 73.32 -66.66 74.64 -67 76 C-67.99 76 -68.98 76 -70 76 C-70.33 77.32 -70.66 78.64 -71 80 C-71.99 80 -72.98 80 -74 80 C-74.33 81.32 -74.66 82.64 -75 84 C-75.99 84 -76.98 84 -78 84 C-78.33 85.32 -78.66 86.64 -79 88 C-79.99 88 -80.98 88 -82 88 C-82.33 89.32 -82.66 90.64 -83 92 C-83.99 92 -84.98 92 -86 92 C-86.33 93.32 -86.66 94.64 -87 96 C-87.99 96 -88.98 96 -90 96 C-90.495 96.99 -90.495 96.99 -91 98 C-92.485 98.495 -92.485 98.495 -94 99 C-93.6875 96.625 -93.6875 96.625 -93 94 C-91.515 93.01 -91.515 93.01 -90 92 C-89.67 91.01 -89.34 90.02 -89 89 C-87.515 88.505 -87.515 88.505 -86 88 C-85.67 87.01 -85.34 86.02 -85 85 C-83.515 84.505 -83.515 84.505 -82 84 C-81.67 83.01 -81.34 82.02 -81 81 C-79.515 80.505 -79.515 80.505 -78 80 C-76.31267723 78.01739574 -74.64633943 76.0167658 -73 74 C-71.515 73.01 -71.515 73.01 -70 72 C-69.505 70.515 -69.505 70.515 -69 69 C-67.515 68.505 -67.515 68.505 -66 68 C-65.505 66.515 -65.505 66.515 -65 65 C-63.515 64.505 -63.515 64.505 -62 64 C-61.67 63.01 -61.34 62.02 -61 61 C-60.01 60.67 -59.02 60.34 -58 60 C-56.31267723 58.01739574 -54.64633943 56.0167658 -53 54 C-52.01 53.34 -51.02 52.68 -50 52 C-49.67 51.01 -49.34 50.02 -49 49 C-48.01 48.67 -47.02 48.34 -46 48 C-45.67 47.01 -45.34 46.02 -45 45 C-44.01 44.67 -43.02 44.34 -42 44 C-41.67 43.01 -41.34 42.02 -41 41 C-40.01 40.67 -39.02 40.34 -38 40 C-36.31267723 38.01739574 -34.64633943 36.0167658 -33 34 C-32.01 33.34 -31.02 32.68 -30 32 C-29.505 30.515 -29.505 30.515 -29 29 C-28.01 28.67 -27.02 28.34 -26 28 C-25.505 26.515 -25.505 26.515 -25 25 C-24.01 24.67 -23.02 24.34 -22 24 C-21.505 22.515 -21.505 22.515 -21 21 C-20.01 20.67 -19.02 20.34 -18 20 C-16.31267723 18.01739574 -14.64633943 16.0167658 -13 14 C-12.01 13.34 -11.02 12.68 -10 12 C-9.67 11.01 -9.34 10.02 -9 9 C-8.01 8.67 -7.02 8.34 -6 8 C-5.67 7.01 -5.34 6.02 -5 5 C-4.34 5 -3.68 5 -3 5 C-3 4.34 -3 3.68 -3 3 C-1.75 1.3125 -1.75 1.3125 0 0 Z " fill="#0A11A6" transform="translate(188,97)"/>
<path d="M0 0 C0.66 0 1.32 0 2 0 C0.15211267 5.87964149 -3.844301 9.04394685 -8.4375 12.875 C-11.50159206 15.45493898 -13.99179363 18.26458803 -16.53515625 21.34765625 C-18.76314388 23.86082629 -21.42315726 25.85263105 -24 28 C-25.02085532 29.14846224 -26.02031935 30.31621922 -27 31.5 C-29.70147457 34.76428178 -32.74222055 37.28518379 -36 40 C-37.02085532 41.14846224 -38.02031935 42.31621922 -39 43.5 C-41.70147457 46.76428178 -44.74222055 49.28518379 -48 52 C-49.02085532 53.14846224 -50.02031935 54.31621922 -51 55.5 C-53.70147457 58.76428178 -56.74222055 61.28518379 -60 64 C-61.02085532 65.14846224 -62.02031935 66.31621922 -63 67.5 C-65.70147457 70.76428178 -68.74222055 73.28518379 -72 76 C-73.02085532 77.14846224 -74.02031935 78.31621922 -75 79.5 C-77.70147457 82.76428178 -80.74222055 85.28518379 -84 88 C-85.55677288 89.81236245 -87.05076082 91.653531 -88.5078125 93.546875 C-90.29570929 95.28796821 -91.59957377 95.47942564 -94 96 C-94.99 96.99 -94.99 96.99 -96 98 C-95.67 96.68 -95.34 95.36 -95 94 C-94.01 94 -93.02 94 -92 94 C-91.67 92.68 -91.34 91.36 -91 90 C-90.01 90 -89.02 90 -88 90 C-87.67 88.68 -87.34 87.36 -87 86 C-86.01 86 -85.02 86 -84 86 C-83.67 84.68 -83.34 83.36 -83 82 C-82.01 82 -81.02 82 -80 82 C-79.67 80.68 -79.34 79.36 -79 78 C-78.01 78 -77.02 78 -76 78 C-75.67 76.68 -75.34 75.36 -75 74 C-74.01 74 -73.02 74 -72 74 C-71.67 72.68 -71.34 71.36 -71 70 C-70.01 70 -69.02 70 -68 70 C-67.67 68.68 -67.34 67.36 -67 66 C-66.01 66 -65.02 66 -64 66 C-63.505 64.02 -63.505 64.02 -63 62 C-62.01 62 -61.02 62 -60 62 C-59.67 60.68 -59.34 59.36 -59 58 C-58.01 58 -57.02 58 -56 58 C-55.67 56.68 -55.34 55.36 -55 54 C-54.01 54 -53.02 54 -52 54 C-51.67 52.68 -51.34 51.36 -51 50 C-50.01 50 -49.02 50 -48 50 C-47.67 48.68 -47.34 47.36 -47 46 C-46.01 46 -45.02 46 -44 46 C-43.67 44.68 -43.34 43.36 -43 42 C-42.01 42 -41.02 42 -40 42 C-39.67 40.68 -39.34 39.36 -39 38 C-38.01 38 -37.02 38 -36 38 C-35.67 36.68 -35.34 35.36 -35 34 C-34.01 34 -33.02 34 -32 34 C-31.67 32.68 -31.34 31.36 -31 30 C-30.01 30 -29.02 30 -28 30 C-27.67 28.68 -27.34 27.36 -27 26 C-26.01 26 -25.02 26 -24 26 C-23.67 24.68 -23.34 23.36 -23 22 C-22.01 22 -21.02 22 -20 22 C-19.67 20.68 -19.34 19.36 -19 18 C-18.01 18 -17.02 18 -16 18 C-15.67 16.68 -15.34 15.36 -15 14 C-14.01 14 -13.02 14 -12 14 C-11.67 12.68 -11.34 11.36 -11 10 C-10.01 10 -9.02 10 -8 10 C-7.67 8.68 -7.34 7.36 -7 6 C-6.01 6 -5.02 6 -4 6 C-3.67 4.68 -3.34 3.36 -3 2 C-2.01 2 -1.02 2 0 2 C0 1.34 0 0.68 0 0 Z " fill="#9BC7CE" transform="translate(106,0)"/>
<path d="M0 0 C0.99 0.495 0.99 0.495 2 1 C0.625 3.5 0.625 3.5 -1 6 C-1.66 6 -2.32 6 -3 6 C-3.66 7.32 -4.32 8.64 -5 10 C-5.66 10 -6.32 10 -7 10 C-7.66 11.32 -8.32 12.64 -9 14 C-9.66 14 -10.32 14 -11 14 C-11.66 15.32 -12.32 16.64 -13 18 C-13.66 18 -14.32 18 -15 18 C-15.66 19.32 -16.32 20.64 -17 22 C-17.66 22 -18.32 22 -19 22 C-19.66 23.32 -20.32 24.64 -21 26 C-21.66 26 -22.32 26 -23 26 C-23.66 27.32 -24.32 28.64 -25 30 C-25.66 30 -26.32 30 -27 30 C-27.66 31.32 -28.32 32.64 -29 34 C-29.66 34 -30.32 34 -31 34 C-31.66 35.32 -32.32 36.64 -33 38 C-33.66 38 -34.32 38 -35 38 C-35.66 39.32 -36.32 40.64 -37 42 C-37.66 42 -38.32 42 -39 42 C-39.66 43.32 -40.32 44.64 -41 46 C-41.66 46 -42.32 46 -43 46 C-43.66 47.32 -44.32 48.64 -45 50 C-45.66 50 -46.32 50 -47 50 C-47.66 51.32 -48.32 52.64 -49 54 C-49.66 54 -50.32 54 -51 54 C-51.66 55.32 -52.32 56.64 -53 58 C-53.66 58 -54.32 58 -55 58 C-55.66 59.32 -56.32 60.64 -57 62 C-57.66 62 -58.32 62 -59 62 C-59.66 63.32 -60.32 64.64 -61 66 C-61.66 66 -62.32 66 -63 66 C-63.66 67.32 -64.32 68.64 -65 70 C-65.66 70 -66.32 70 -67 70 C-67.66 71.32 -68.32 72.64 -69 74 C-69.66 74 -70.32 74 -71 74 C-71.66 75.32 -72.32 76.64 -73 78 C-73.66 78 -74.32 78 -75 78 C-75.66 79.32 -76.32 80.64 -77 82 C-77.66 82 -78.32 82 -79 82 C-79.66 83.32 -80.32 84.64 -81 86 C-81.66 86 -82.32 86 -83 86 C-83.66 87.32 -84.32 88.64 -85 90 C-85.66 90 -86.32 90 -87 90 C-87.2475 90.639375 -87.495 91.27875 -87.75 91.9375 C-89 94 -89 94 -91.125 94.75 C-91.74375 94.8325 -92.3625 94.915 -93 95 C-91.86503142 91.59509425 -90.41524444 90.62377364 -87.67578125 88.453125 C-85.9105927 86.92247199 -84.48465201 85.30195231 -83 83.5 C-80.29852543 80.23571822 -77.25777945 77.71481621 -74 75 C-72.97914468 73.85153776 -71.97968065 72.68378078 -71 71.5 C-68.29852543 68.23571822 -65.25777945 65.71481621 -62 63 C-60.97914468 61.85153776 -59.97968065 60.68378078 -59 59.5 C-56.29852543 56.23571822 -53.25777945 53.71481621 -50 51 C-48.97914468 49.85153776 -47.97968065 48.68378078 -47 47.5 C-44.29852543 44.23571822 -41.25777945 41.71481621 -38 39 C-36.97914468 37.85153776 -35.97968065 36.68378078 -35 35.5 C-32.29852543 32.23571822 -29.25777945 29.71481621 -26 27 C-24.97914468 25.85153776 -23.97968065 24.68378078 -23 23.5 C-20.29852543 20.23571822 -17.25777945 17.71481621 -14 15 C-12.46071859 13.26830841 -10.99112693 11.48925891 -9.515625 9.703125 C-8.02710329 8.03045627 -6.4912787 6.65316633 -4.75 5.25 C-1.86340001 3.11220714 -1.86340001 3.11220714 0 0 Z " fill="#213AB6" transform="translate(160,67)"/>
<path d="M0 0 C6.70212766 1.93617021 6.70212766 1.93617021 9 5 C9 5.66 9 6.32 9 7 C9.66 7 10.32 7 11 7 C11 7.66 11 8.32 11 9 C11.99 9.33 12.98 9.66 14 10 C17.77777778 12.55555556 17.77777778 12.55555556 19 15 C19.94875 14.34 20.8975 13.68 21.875 13 C25 11 25 11 27 11 C26.6875 13.375 26.6875 13.375 26 16 C23.08235 17.9451 21.37462715 18.45276317 18 19 C17.67 18.34 17.34 17.68 17 17 C16.154375 16.505 15.30875 16.01 14.4375 15.5 C13.633125 15.005 12.82875 14.51 12 14 C12 13.34 12 12.68 12 12 C10.68 11.67 9.36 11.34 8 11 C8 10.01 8 9.02 8 8 C6.68 7.67 5.36 7.34 4 7 C4 6.01 4 5.02 4 4 C2.68 3.67 1.36 3.34 0 3 C0 2.01 0 1.02 0 0 Z " fill="#A7D1D5" transform="translate(6,126)"/>
<path d="M0 0 C0.99 0.33 1.98 0.66 3 1 C2.34 1 1.68 1 1 1 C1 1.66 1 2.32 1 3 C1.66 3.33 2.32 3.66 3 4 C2.01 4 1.02 4 0 4 C0.33 8.62 0.66 13.24 1 18 C-0.98 18.99 -0.98 18.99 -3 20 C-4.26804566 22.0335948 -4.26804566 22.0335948 -5 24 C-5.28571429 16.57142857 -5.28571429 16.57142857 -3 13 C-2.67 13 -2.34 13 -2 13 C-1.93941406 12.14535156 -1.87882813 11.29070312 -1.81640625 10.41015625 C-1.69072266 8.75306641 -1.69072266 8.75306641 -1.5625 7.0625 C-1.48128906 5.96035156 -1.40007813 4.85820313 -1.31640625 3.72265625 C-1 1 -1 1 0 0 Z " fill="#A8D6D9" transform="translate(7,98)"/>
<path d="M0 0 C2.475 0.99 2.475 0.99 5 2 C5 2.66 5 3.32 5 4 C5.94875 3.34 6.8975 2.68 7.875 2 C11 0 11 0 13 0 C12.6875 2.375 12.6875 2.375 12 5 C9.08235 6.9451 7.37462715 7.45276317 4 8 C0 3.375 0 3.375 0 0 Z " fill="#8EB3B7" transform="translate(20,137)"/>
<path d="M0 0 C1.32 0 2.64 0 4 0 C4 5.28 4 10.56 4 16 C3.01 16 2.02 16 1 16 C0.01 18.475 0.01 18.475 -1 21 C-1.12375 20.360625 -1.2475 19.72125 -1.375 19.0625 C-1.58125 18.381875 -1.7875 17.70125 -2 17 C-2.66 16.67 -3.32 16.34 -4 16 C-3.01 16 -2.02 16 -1 16 C-0.67 15.01 -0.34 14.02 0 13 C0.66 12.67 1.32 12.34 2 12 C2 8.37 2 4.74 2 1 C1.34 0.67 0.68 0.34 0 0 Z " fill="#AFD8DD" transform="translate(134,14)"/>
<path d="M0 0 C0.99 0.99 1.98 1.98 3 3 C2.67 3.99 2.34 4.98 2 6 C-0.97 6 -3.94 6 -7 6 C-7 4.68 -7 3.36 -7 2 C-5.35 2.33 -3.7 2.66 -2 3 C-1.34 2.01 -0.68 1.02 0 0 Z " fill="#559ED2" transform="translate(58,168)"/>
<path d="M0 0 C0.33 0.99 0.66 1.98 1 3 C-0.3125 5.1875 -0.3125 5.1875 -2 7 C-2.66 7 -3.32 7 -4 7 C-4.66 8.32 -5.32 9.64 -6 11 C-6.66 11 -7.32 11 -8 11 C-8.268125 11.639375 -8.53625 12.27875 -8.8125 12.9375 C-10 15 -10 15 -13 16 C-13 15.34 -13 14.68 -13 14 C-12.34 14 -11.68 14 -11 14 C-11 13.34 -11 12.68 -11 12 C-10.34 12 -9.68 12 -9 12 C-9 11.34 -9 10.68 -9 10 C-8.34 10 -7.68 10 -7 10 C-7 9.34 -7 8.68 -7 8 C-6.34 8 -5.68 8 -5 8 C-5 7.34 -5 6.68 -5 6 C-4.34 6 -3.68 6 -3 6 C-2.690625 5.195625 -2.38125 4.39125 -2.0625 3.5625 C-1 1 -1 1 0 0 Z " fill="#6DC7EE" transform="translate(132,35)"/>
<path d="M0 0 C2 2 2 2 2 5 C3.32 4.67 4.64 4.34 6 4 C6.66 6.31 7.32 8.62 8 11 C6.68 10.67 5.36 10.34 4 10 C4 9.01 4 8.02 4 7 C2.68 6.34 1.36 5.68 0 5 C0 3.35 0 1.7 0 0 Z " fill="#6AB6D4" transform="translate(30,147)"/>
<path d="M0 0 C2.375 0.8125 2.375 0.8125 4.375 2.8125 C1.85446405 4.07276798 0.5207902 3.73124445 -2.25 3.375 C-3.47589844 3.22224609 -3.47589844 3.22224609 -4.7265625 3.06640625 C-5.35304687 2.98261719 -5.97953125 2.89882813 -6.625 2.8125 C-4.2650337 0.62734602 -3.28118881 -0.23437063 0 0 Z " fill="#091080" transform="translate(174.625,54.1875)"/>
<path d="M0 0 C8.58 0 17.16 0 26 0 C26 0.33 26 0.66 26 1 C17.42 1 8.84 1 0 1 C0 0.67 0 0.34 0 0 Z " fill="#B5B6DD" transform="translate(86,199)"/>
<path d="M0 0 C0.33 0 0.66 0 1 0 C1 8.58 1 17.16 1 26 C0.67 26 0.34 26 0 26 C0 17.42 0 8.84 0 0 Z " fill="#FFFFFF" transform="translate(199,86)"/>
<path d="M0 0 C0.33 0.99 0.66 1.98 1 3 C3.01508358 3.73323796 3.01508358 3.73323796 5 4 C3.35 5.32 1.7 6.64 0 8 C-1.32 7.34 -2.64 6.68 -4 6 C-3.34 6 -2.68 6 -2 6 C-2 5.34 -2 4.68 -2 4 C-1.34 4 -0.68 4 0 4 C0 2.68 0 1.36 0 0 Z " fill="#366DB2" transform="translate(34,138)"/>
<path d="M0 0 C0.99 0 1.98 0 3 0 C3 0.66 3 1.32 3 2 C3.66 2 4.32 2 5 2 C5.33 1.34 5.66 0.68 6 0 C6 0.99 6 1.98 6 3 C5.01 3 4.02 3 3 3 C2.67 4.32 2.34 5.64 2 7 C1.01 6.67 0.02 6.34 -1 6 C-0.34 6 0.32 6 1 6 C1 5.34 1 4.68 1 4 C0.34 3.67 -0.32 3.34 -1 3 C-0.67 2.01 -0.34 1.02 0 0 Z " fill="#0C13AF" transform="translate(119,166)"/>
<path d="M0 0 C0.99 0 1.98 0 3 0 C3 0.66 3 1.32 3 2 C3.66 2 4.32 2 5 2 C5.33 1.34 5.66 0.68 6 0 C6 0.99 6 1.98 6 3 C5.01 3 4.02 3 3 3 C2.67 4.32 2.34 5.64 2 7 C1.01 6.67 0.02 6.34 -1 6 C-0.34 6 0.32 6 1 6 C1 5.34 1 4.68 1 4 C0.34 3.67 -0.32 3.34 -1 3 C-0.67 2.01 -0.34 1.02 0 0 Z " fill="#0C13AF" transform="translate(139,146)"/>
<path d="M0 0 C0.99 0 1.98 0 3 0 C3 0.66 3 1.32 3 2 C3.66 2 4.32 2 5 2 C5.33 1.34 5.66 0.68 6 0 C6 0.99 6 1.98 6 3 C5.01 3 4.02 3 3 3 C2.67 4.32 2.34 5.64 2 7 C1.01 6.67 0.02 6.34 -1 6 C-0.34 6 0.32 6 1 6 C1 5.34 1 4.68 1 4 C0.34 3.67 -0.32 3.34 -1 3 C-0.67 2.01 -0.34 1.02 0 0 Z " fill="#0C13AF" transform="translate(159,126)"/>
<path d="M0 0 C0.99 0 1.98 0 3 0 C3 0.66 3 1.32 3 2 C3.66 2 4.32 2 5 2 C5.33 1.34 5.66 0.68 6 0 C6 0.99 6 1.98 6 3 C5.01 3 4.02 3 3 3 C2.67 4.32 2.34 5.64 2 7 C1.01 6.67 0.02 6.34 -1 6 C-0.34 6 0.32 6 1 6 C1 5.34 1 4.68 1 4 C0.34 3.67 -0.32 3.34 -1 3 C-0.67 2.01 -0.34 1.02 0 0 Z " fill="#0C13AF" transform="translate(179,106)"/>
<path d="M0 0 C2.375 0.25 2.375 0.25 5 1 C6.3125 3.0625 6.3125 3.0625 7 5 C4.69 4.67 2.38 4.34 0 4 C-0.33 4.99 -0.66 5.98 -1 7 C-0.67 4.69 -0.34 2.38 0 0 Z " fill="#C3E2E6" transform="translate(3,122)"/>
<path d="M0 0 C1.65 0 3.3 0 5 0 C5 0.66 5 1.32 5 2 C4.34 2 3.68 2 3 2 C2.67 2.99 2.34 3.98 2 5 C1.01 5.33 0.02 5.66 -1 6 C-0.67 4.02 -0.34 2.04 0 0 Z " fill="#070A92" transform="translate(183,102)"/>
<path d="M0 0 C0 0.66 0 1.32 0 2 C-0.66 2 -1.32 2 -2 2 C-2.33 2.99 -2.66 3.98 -3 5 C-3.99 5.33 -4.98 5.66 -6 6 C-5.625 3.5625 -5.625 3.5625 -5 1 C-3 0 -3 0 0 0 Z " fill="#070A90" transform="translate(100,190)"/>
<path d="M0 0 C0 0.66 0 1.32 0 2 C-0.66 2 -1.32 2 -2 2 C-2.33 2.99 -2.66 3.98 -3 5 C-3.99 5.33 -4.98 5.66 -6 6 C-5.625 3.5625 -5.625 3.5625 -5 1 C-3 0 -3 0 0 0 Z " fill="#070A90" transform="translate(120,170)"/>
<path d="M0 0 C0 0.66 0 1.32 0 2 C-0.66 2 -1.32 2 -2 2 C-2.33 2.99 -2.66 3.98 -3 5 C-3.99 5.33 -4.98 5.66 -6 6 C-5.625 3.5625 -5.625 3.5625 -5 1 C-3 0 -3 0 0 0 Z " fill="#070A90" transform="translate(140,150)"/>
<path d="M0 0 C0 0.66 0 1.32 0 2 C-0.66 2 -1.32 2 -2 2 C-2.33 2.99 -2.66 3.98 -3 5 C-3.99 5.33 -4.98 5.66 -6 6 C-5.625 3.5625 -5.625 3.5625 -5 1 C-3 0 -3 0 0 0 Z " fill="#070A90" transform="translate(160,130)"/>
<path d="M0 0 C0 0.66 0 1.32 0 2 C-0.66 2 -1.32 2 -2 2 C-2.33 2.99 -2.66 3.98 -3 5 C-3.99 5.33 -4.98 5.66 -6 6 C-5.625 3.5625 -5.625 3.5625 -5 1 C-3 0 -3 0 0 0 Z " fill="#070A90" transform="translate(180,110)"/>
<path d="M0 0 C0.99 0 1.98 0 3 0 C3 1.65 3 3.3 3 5 C1.68 5.33 0.36 5.66 -1 6 C-0.67 4.02 -0.34 2.04 0 0 Z " fill="#090B94" transform="translate(103,182)"/>
<path d="M0 0 C0.99 0 1.98 0 3 0 C3 1.65 3 3.3 3 5 C1.68 5.33 0.36 5.66 -1 6 C-0.67 4.02 -0.34 2.04 0 0 Z " fill="#090B94" transform="translate(123,162)"/>
<path d="M0 0 C0.99 0 1.98 0 3 0 C3 1.65 3 3.3 3 5 C1.68 5.33 0.36 5.66 -1 6 C-0.67 4.02 -0.34 2.04 0 0 Z " fill="#090B94" transform="translate(143,142)"/>
<path d="M0 0 C0.99 0 1.98 0 3 0 C3 1.65 3 3.3 3 5 C1.68 5.33 0.36 5.66 -1 6 C-0.67 4.02 -0.34 2.04 0 0 Z " fill="#090B94" transform="translate(163,122)"/>
<path d="M0 0 C0.66 0.33 1.32 0.66 2 1 C-0.46153846 5.8 -0.46153846 5.8 -3.1875 6.8125 C-3.785625 6.874375 -4.38375 6.93625 -5 7 C-3.88820837 3.66462511 -2.52588702 2.36292656 0 0 Z " fill="#2544BA" transform="translate(160,67)"/>
<path d="M0 0 C0.99 0 1.98 0 3 0 C3 1.32 3 2.64 3 4 C2.34 4 1.68 4 1 4 C1 4.66 1 5.32 1 6 C0.34 6 -0.32 6 -1 6 C-0.67 4.02 -0.34 2.04 0 0 Z " fill="#090CA1" transform="translate(63,171)"/>
<path d="M0 0 C0.66 0.33 1.32 0.66 2 1 C-0.31 3.31 -2.62 5.62 -5 8 C-5 5 -5 5 -2.5 2.3125 C-1.675 1.549375 -0.85 0.78625 0 0 Z " fill="#FFFFFF" transform="translate(30,25)"/>
<path d="M0 0 C1.98 0 3.96 0 6 0 C6 0.33 6 0.66 6 1 C4.02 1 2.04 1 0 1 C0 0.67 0 0.34 0 0 Z " fill="#FFFFFF" transform="translate(112,198)"/>
<path d="M0 0 C1.98 0 3.96 0 6 0 C6 0.33 6 0.66 6 1 C4.02 1 2.04 1 0 1 C0 0.67 0 0.34 0 0 Z " fill="#1515A3" transform="translate(80,198)"/>
<path d="M0 0 C1.65 0 3.3 0 5 0 C5 0.33 5 0.66 5 1 C3.35 1 1.7 1 0 1 C0 0.67 0 0.34 0 0 Z " fill="#FFFFFF" transform="translate(118,197)"/>
<path d="M0 0 C1.65 0 3.3 0 5 0 C5 0.33 5 0.66 5 1 C3.35 1 1.7 1 0 1 C0 0.67 0 0.34 0 0 Z " fill="#424CE1" transform="translate(75,197)"/>
<path d="M0 0 C1.65 0 3.3 0 5 0 C5 0.33 5 0.66 5 1 C3.35 1 1.7 1 0 1 C0 0.67 0 0.34 0 0 Z " fill="#BCE6EC" transform="translate(117,0)"/>
<path d="M0 0 C1.65 0 3.3 0 5 0 C5 0.33 5 0.66 5 1 C3.35 1 1.7 1 0 1 C0 0.67 0 0.34 0 0 Z " fill="#FFFFFF" transform="translate(76,0)"/>
<path d="M0 0 C4 1 4 1 4 1 Z " fill="#FFFFFF" transform="translate(123,196)"/>
<path d="M0 0 C4 1 4 1 4 1 Z " fill="#FFFFFF" transform="translate(68,195)"/>
<path d="M0 0 C4 1 4 1 4 1 Z " fill="#FFFFFF" transform="translate(69,2)"/>
<path d="M0 0 C4 1 4 1 4 1 Z " fill="#FFFFFF" transform="translate(122,1)"/>
<path d="M0 0 C3 1 3 1 3 1 Z " fill="#AEB3B2" transform="translate(72,196)"/>
<path d="M0 0 C3 1 3 1 3 1 Z " fill="#FFFFFF" transform="translate(127,195)"/>
<path d="M0 0 C3 1 3 1 3 1 Z " fill="#FFFFFF" transform="translate(130,194)"/>
<path d="M0 0 C3 1 3 1 3 1 Z " fill="#FFFFFF" transform="translate(65,194)"/>
<path d="M0 0 C3 1 3 1 3 1 Z " fill="#FFFFFF" transform="translate(135,192)"/>
<path d="M0 0 C3 1 3 1 3 1 Z " fill="#FFFFFF" transform="translate(60,192)"/>
<path d="" fill="#FFFFFF" transform="translate(0,0)"/>
<path d="" fill="#FFFFFF" transform="translate(0,0)"/>
<path d="" fill="#FFFFFF" transform="translate(0,0)"/>
<path d="" fill="#FFFFFF" transform="translate(0,0)"/>
<path d="" fill="#FFFFFF" transform="translate(0,0)"/>
<path d="" fill="#FFFFFF" transform="translate(0,0)"/>
<path d="M0 0 C3 1 3 1 3 1 Z " fill="#FFFFFF" transform="translate(137,6)"/>
<path d="M0 0 C3 1 3 1 3 1 Z " fill="#FFFFFF" transform="translate(132,4)"/>
<path d="M0 0 C3 1 3 1 3 1 Z " fill="#FFFFFF" transform="translate(63,4)"/>
<path d="M0 0 C3 1 3 1 3 1 Z " fill="#FFFFFF" transform="translate(129,3)"/>
<path d="M0 0 C3 1 3 1 3 1 Z " fill="#FFFFFF" transform="translate(66,3)"/>
<path d="M0 0 C3 1 3 1 3 1 Z " fill="#FFFFFF" transform="translate(126,2)"/>
<path d="M0 0 C3 1 3 1 3 1 Z " fill="#FFFFFF" transform="translate(73,1)"/>
<path d="M0 0 C2 1 2 1 2 1 Z " fill="#FFFFFF" transform="translate(133,193)"/>
<path d="M0 0 C2 1 2 1 2 1 Z " fill="#FFFFFF" transform="translate(63,193)"/>
<path d="M0 0 C2 1 2 1 2 1 Z " fill="#FFFFFF" transform="translate(138,191)"/>
<path d="M0 0 C2 1 2 1 2 1 Z " fill="#FFFFFF" transform="translate(58,191)"/>
<path d="M0 0 C2 1 2 1 2 1 Z " fill="#FFFFFF" transform="translate(140,190)"/>
<path d="M0 0 C2 1 2 1 2 1 Z " fill="#FFFFFF" transform="translate(56,190)"/>
<path d="M0 0 C2 1 2 1 2 1 Z " fill="#FFFFFF" transform="translate(142,189)"/>
<path d="M0 0 C2 1 2 1 2 1 Z " fill="#FFFFFF" transform="translate(54,189)"/>
<path d="M0 0 C2 1 2 1 2 1 Z " fill="#FFFFFF" transform="translate(144,188)"/>
<path d="M0 0 C2 1 2 1 2 1 Z " fill="#FFFFFF" transform="translate(52,188)"/>
<path d="M0 0 C2 1 2 1 2 1 Z " fill="#FFFFFF" transform="translate(146,187)"/>
<path d="M0 0 C2 1 2 1 2 1 Z " fill="#FFFFFF" transform="translate(50,187)"/>
<path d="M0 0 C2 1 2 1 2 1 Z " fill="#FFFFFF" transform="translate(148,186)"/>
<path d="M0 0 C2 1 2 1 2 1 Z " fill="#FFFFFF" transform="translate(47,185)"/>
<path d="M0 0 C2 1 2 1 2 1 Z " fill="#FFFFFF" transform="translate(151,184)"/>
<path d="M0 0 C2 1 2 1 2 1 Z " fill="#FFFFFF" transform="translate(45,184)"/>
<path d="M0 0 C2 1 2 1 2 1 Z " fill="#FFFFFF" transform="translate(154,182)"/>
<path d="M0 0 C2 1 2 1 2 1 Z " fill="#FFFFFF" transform="translate(42,182)"/>
<path d="M0 0 C2 1 2 1 2 1 Z " fill="#FFFFFF" transform="translate(157,180)"/>
<path d="M0 0 C2 1 2 1 2 1 Z " fill="#FFFFFF" transform="translate(38,179)"/>
<path d="M0 0 C2 1 2 1 2 1 Z " fill="#FFFFFF" transform="translate(162,176)"/>
<path d="M0 0 C2 1 2 1 2 1 Z " fill="#FFFFFF" transform="translate(32,174)"/>
<path d="" fill="#FFFFFF" transform="translate(0,0)"/>
<path d="" fill="#FFFFFF" transform="translate(0,0)"/>
<path d="" fill="#FFFFFF" transform="translate(0,0)"/>
<path d="" fill="#FFFFFF" transform="translate(0,0)"/>
<path d="" fill="#FFFFFF" transform="translate(0,0)"/>
<path d="" fill="#FFFFFF" transform="translate(0,0)"/>
<path d="" fill="#FFFFFF" transform="translate(0,0)"/>
<path d="" fill="#FFFFFF" transform="translate(0,0)"/>
<path d="M0 0 C2 1 2 1 2 1 Z " fill="#FFFFFF" transform="translate(164,23)"/>
<path d="M0 0 C2 1 2 1 2 1 Z " fill="#FFFFFF" transform="translate(37,19)"/>
<path d="M0 0 C2 1 2 1 2 1 Z " fill="#FFFFFF" transform="translate(158,18)"/>
<path d="M0 0 C2 1 2 1 2 1 Z " fill="#FFFFFF" transform="translate(155,16)"/>
<path d="M0 0 C2 1 2 1 2 1 Z " fill="#FFFFFF" transform="translate(41,16)"/>
<path d="M0 0 C2 1 2 1 2 1 Z " fill="#FFFFFF" transform="translate(152,14)"/>
<path d="M0 0 C2 1 2 1 2 1 Z " fill="#FFFFFF" transform="translate(44,14)"/>
<path d="M0 0 C2 1 2 1 2 1 Z " fill="#FFFFFF" transform="translate(149,12)"/>
<path d="M0 0 C2 1 2 1 2 1 Z " fill="#FFFFFF" transform="translate(47,12)"/>
<path d="M0 0 C2 1 2 1 2 1 Z " fill="#FFFFFF" transform="translate(147,11)"/>
<path d="M0 0 C2 1 2 1 2 1 Z " fill="#FFFFFF" transform="translate(49,11)"/>
<path d="M0 0 C2 1 2 1 2 1 Z " fill="#FFFFFF" transform="translate(51,10)"/>
<path d="M0 0 C2 1 2 1 2 1 Z " fill="#FFFFFF" transform="translate(144,9)"/>
<path d="M0 0 C2 1 2 1 2 1 Z " fill="#FFFFFF" transform="translate(53,9)"/>
<path d="M0 0 C2 1 2 1 2 1 Z " fill="#FFFFFF" transform="translate(142,8)"/>
<path d="M0 0 C2 1 2 1 2 1 Z " fill="#FFFFFF" transform="translate(55,8)"/>
<path d="M0 0 C2 1 2 1 2 1 Z " fill="#FFFFFF" transform="translate(140,7)"/>
<path d="M0 0 C2 1 2 1 2 1 Z " fill="#FFFFFF" transform="translate(57,7)"/>
<path d="M0 0 C2 1 2 1 2 1 Z " fill="#FFFFFF" transform="translate(59,6)"/>
<path d="M0 0 C2 1 2 1 2 1 Z " fill="#FFFFFF" transform="translate(135,5)"/>
<path d="M0 0 C2 1 2 1 2 1 Z " fill="#FFFFFF" transform="translate(61,5)"/>
<path d="" fill="#FFFFFF" transform="translate(0,0)"/>
<path d="" fill="#FFFFFF" transform="translate(0,0)"/>
<path d="" fill="#FFFFFF" transform="translate(0,0)"/>
<path d="" fill="#FFFFFF" transform="translate(0,0)"/>
<path d="" fill="#FFFFFF" transform="translate(0,0)"/>
<path d="" fill="#FFFFFF" transform="translate(0,0)"/>
<path d="" fill="#FFFFFF" transform="translate(0,0)"/>
<path d="" fill="#FFFFFF" transform="translate(0,0)"/>
<path d="" fill="#FFFFFF" transform="translate(0,0)"/>
<path d="" fill="#FFFFFF" transform="translate(0,0)"/>
<path d="" fill="#FFFFFF" transform="translate(0,0)"/>
<path d="" fill="#FFFFFF" transform="translate(0,0)"/>
<path d="" fill="#FFFFFF" transform="translate(0,0)"/>
<path d="" fill="#FFFFFF" transform="translate(0,0)"/>
<path d="" fill="#FFFFFF" transform="translate(0,0)"/>
<path d="" fill="#FFFFFF" transform="translate(0,0)"/>
<path d="" fill="#FFFFFF" transform="translate(0,0)"/>
<path d="" fill="#FFFFFF" transform="translate(0,0)"/>
<path d="" fill="#FFFFFF" transform="translate(0,0)"/>
<path d="" fill="#FFFFFF" transform="translate(0,0)"/>
<path d="" fill="#FFFFFF" transform="translate(0,0)"/>
<path d="" fill="#FFFFFF" transform="translate(0,0)"/>
<path d="" fill="#FFFFFF" transform="translate(0,0)"/>
<path d="" fill="#FFFFFF" transform="translate(0,0)"/>
<path d="" fill="#FFFFFF" transform="translate(0,0)"/>
<path d="" fill="#FFFFFF" transform="translate(0,0)"/>
<path d="" fill="#FFFFFF" transform="translate(0,0)"/>
<path d="" fill="#FFFFFF" transform="translate(0,0)"/>
<path d="" fill="#FFFFFF" transform="translate(0,0)"/>
<path d="" fill="#FFFFFF" transform="translate(0,0)"/>
<path d="" fill="#FFFFFF" transform="translate(0,0)"/>
<path d="" fill="#FFFFFF" transform="translate(0,0)"/>
<path d="" fill="#FFFFFF" transform="translate(0,0)"/>
<path d="" fill="#FFFFFF" transform="translate(0,0)"/>
<path d="" fill="#FFFFFF" transform="translate(0,0)"/>
<path d="" fill="#FFFFFF" transform="translate(0,0)"/>
<path d="" fill="#FFFFFF" transform="translate(0,0)"/>
<path d="" fill="#FFFFFF" transform="translate(0,0)"/>
<path d="" fill="#FFFFFF" transform="translate(0,0)"/>
<path d="" fill="#FFFFFF" transform="translate(0,0)"/>
<path d="" fill="#FFFFFF" transform="translate(0,0)"/>
<path d="" fill="#FFFFFF" transform="translate(0,0)"/>
<path d="" fill="#FFFFFF" transform="translate(0,0)"/>
<path d="" fill="#FFFFFF" transform="translate(0,0)"/>
<path d="" fill="#FFFFFF" transform="translate(0,0)"/>
<path d="" fill="#FFFFFF" transform="translate(0,0)"/>
<path d="" fill="#FFFFFF" transform="translate(0,0)"/>
<path d="" fill="#FFFFFF" transform="translate(0,0)"/>
<path d="" fill="#FFFFFF" transform="translate(0,0)"/>
<path d="" fill="#FFFFFF" transform="translate(0,0)"/>
<path d="" fill="#FFFFFF" transform="translate(0,0)"/>
<path d="" fill="#FFFFFF" transform="translate(0,0)"/>
<path d="" fill="#FFFFFF" transform="translate(0,0)"/>
<path d="" fill="#FFFFFF" transform="translate(0,0)"/>
<path d="" fill="#FFFFFF" transform="translate(0,0)"/>
<path d="" fill="#FFFFFF" transform="translate(0,0)"/>
<path d="" fill="#FFFFFF" transform="translate(0,0)"/>
<path d="" fill="#FFFFFF" transform="translate(0,0)"/>
<path d="" fill="#FFFFFF" transform="translate(0,0)"/>
<path d="" fill="#FFFFFF" transform="translate(0,0)"/>
<path d="" fill="#FFFFFF" transform="translate(0,0)"/>
<path d="" fill="#FFFFFF" transform="translate(0,0)"/>
<path d="" fill="#FFFFFF" transform="translate(0,0)"/>
<path d="" fill="#FFFFFF" transform="translate(0,0)"/>
</svg>
