<?xml version="1.0" encoding="UTF-8"?>
<svg version="1.1" xmlns="http://www.w3.org/2000/svg" width="200" height="200">
<path d="M0 0 C2.82045877 2.30263418 5.56336058 4.67903285 8.27832031 7.10449219 C11.1535235 9.666713 11.1535235 9.666713 14.50878906 11.77246094 C17.18066406 13.58496094 17.18066406 13.58496094 17.86816406 15.77246094 C18.02285156 16.66964844 18.02285156 16.66964844 18.18066406 17.58496094 C19.17066406 17.91496094 20.16066406 18.24496094 21.18066406 18.58496094 C21.51066406 19.57496094 21.84066406 20.56496094 22.18066406 21.58496094 C22.78394531 22.1740625 23.38722656 22.76316406 24.00878906 23.37011719 C26.61161449 26.02443736 28.16331475 28.75588582 29.93066406 32.02246094 C30.85105469 33.69115234 30.85105469 33.69115234 31.79003906 35.39355469 C33.13514811 38.48050439 33.50200878 40.27881822 33.18066406 43.58496094 C33.84066406 43.58496094 34.50066406 43.58496094 35.18066406 43.58496094 C39.64424539 56.0781479 40.85665551 67.12735329 40.55566406 80.33496094 C40.53909422 82.04587815 40.52476266 83.75681854 40.51269531 85.46777344 C40.3702832 98.68935945 40.3702832 98.68935945 39.18066406 103.58496094 C38.52066406 103.58496094 37.86066406 103.58496094 37.18066406 103.58496094 C37.18066406 105.89496094 37.18066406 108.20496094 37.18066406 110.58496094 C36.52066406 110.58496094 35.86066406 110.58496094 35.18066406 110.58496094 C34.52066406 113.88496094 33.86066406 117.18496094 33.18066406 120.58496094 C32.52066406 120.58496094 31.86066406 120.58496094 31.18066406 120.58496094 C31.10589844 121.42542969 31.03113281 122.26589844 30.95410156 123.13183594 C30.00301116 127.37811833 28.20111083 130.25695184 25.80566406 133.83496094 C25.40605469 134.45886719 25.00644531 135.08277344 24.59472656 135.72558594 C22.64505024 138.70140769 21.175244 140.58857431 18.18066406 142.58496094 C17.87128906 143.24496094 17.56191406 143.90496094 17.24316406 144.58496094 C16.18066406 146.58496094 16.18066406 146.58496094 14.29394531 147.52246094 C12.05773456 148.64676653 10.95666201 149.72870379 9.30566406 151.58496094 C-7.5531495 168.76523493 -31.7922615 178.47350042 -55.67724609 178.87768555 C-83.14890277 179.03784131 -105.50892955 171.73865683 -126.31811523 153.40429688 C-129.3378039 150.75277047 -132.36813316 148.62599484 -135.81933594 146.58496094 C-136.52084746 145.26962683 -137.18459519 143.93378502 -137.81933594 142.58496094 C-139.08777344 141.37839844 -139.08777344 141.37839844 -140.38183594 140.14746094 C-142.93144067 137.46710724 -143.50996572 136.19428011 -143.81933594 132.58496094 C-144.80933594 132.25496094 -145.79933594 131.92496094 -146.81933594 131.58496094 C-150.62798259 125.57828936 -153.21756631 119.65575401 -153.81933594 112.58496094 C-154.47933594 111.59496094 -155.13933594 110.60496094 -155.81933594 109.58496094 C-156.19144014 108.26192377 -156.52563767 106.92758159 -156.81933594 105.58496094 C-157.14933594 104.59496094 -157.47933594 103.60496094 -157.81933594 102.58496094 C-158.14933594 102.58496094 -158.47933594 102.58496094 -158.81933594 102.58496094 C-158.87027326 96.32278946 -158.90516878 90.06067193 -158.92919922 83.79833984 C-158.93922299 81.67038984 -158.95284555 79.5424535 -158.97021484 77.41455078 C-158.99462286 74.34631976 -159.00585555 71.27827173 -159.01464844 68.20996094 C-159.02497101 67.26693115 -159.03529358 66.32390137 -159.04592896 65.35229492 C-159.04686971 59.74541582 -158.41278806 54.96630789 -156.81933594 49.58496094 C-156.15933594 49.58496094 -155.49933594 49.58496094 -154.81933594 49.58496094 C-154.69816406 48.88628906 -154.57699219 48.18761719 -154.45214844 47.46777344 C-154.28457031 46.55769531 -154.11699219 45.64761719 -153.94433594 44.70996094 C-153.78191406 43.80503906 -153.61949219 42.90011719 -153.45214844 41.96777344 C-152.81933594 39.58496094 -152.81933594 39.58496094 -150.81933594 37.58496094 C-149.71378412 35.63398714 -148.89319267 33.94732054 -148.44433594 31.74511719 C-147.67559861 29.08816878 -146.42875814 27.18569548 -144.88183594 24.89746094 C-144.3571875 24.10984375 -143.83253906 23.32222656 -143.29199219 22.51074219 C-141.81933594 20.58496094 -141.81933594 20.58496094 -139.81933594 19.58496094 C-139.48933594 18.59496094 -139.15933594 17.60496094 -138.81933594 16.58496094 C-138.25988281 16.318125 -137.70042969 16.05128906 -137.12402344 15.77636719 C-133.75454168 14.03451645 -131.50732154 11.25605376 -128.94433594 8.52246094 C-95.59880991 -25.77011212 -37.69548479 -29.31871039 0 0 Z M34.18066406 46.58496094 C35.18066406 48.58496094 35.18066406 48.58496094 35.18066406 48.58496094 Z M35.18066406 49.58496094 C36.18066406 51.58496094 36.18066406 51.58496094 36.18066406 51.58496094 Z M36.18066406 52.58496094 C37.18066406 55.58496094 37.18066406 55.58496094 37.18066406 55.58496094 Z M-156.81933594 53.58496094 C-155.81933594 56.58496094 -155.81933594 56.58496094 -155.81933594 56.58496094 Z M37.18066406 56.58496094 C38.18066406 59.58496094 38.18066406 59.58496094 38.18066406 59.58496094 Z M-157.81933594 57.58496094 C-156.81933594 61.58496094 -156.81933594 61.58496094 -156.81933594 61.58496094 Z M38.18066406 60.58496094 C38.18066406 62.23496094 38.18066406 63.88496094 38.18066406 65.58496094 C38.51066406 65.58496094 38.84066406 65.58496094 39.18066406 65.58496094 C39.18066406 63.93496094 39.18066406 62.28496094 39.18066406 60.58496094 C38.85066406 60.58496094 38.52066406 60.58496094 38.18066406 60.58496094 Z M38.18066406 93.58496094 C38.18066406 95.23496094 38.18066406 96.88496094 38.18066406 98.58496094 C38.51066406 98.58496094 38.84066406 98.58496094 39.18066406 98.58496094 C39.18066406 96.93496094 39.18066406 95.28496094 39.18066406 93.58496094 C38.85066406 93.58496094 38.52066406 93.58496094 38.18066406 93.58496094 Z " fill="#FCFEFD" transform="translate(158.8193359375,19.4150390625)"/>
<path d="M0 0 C3.47775179 1.51553404 5.9557984 3.5773456 8.75 6.125 C9.54921875 6.84945312 10.3484375 7.57390625 11.171875 8.3203125 C11.77515625 8.87460937 12.3784375 9.42890625 13 10 C11.39068981 13.85507075 8.90144796 16.46961652 6.0625 19.5 C5.06237295 20.57410046 4.06237651 21.64832256 3.0625 22.72265625 C2.55203125 23.26809082 2.0415625 23.81352539 1.515625 24.37548828 C-0.82050716 26.87945468 -3.12756862 29.40933382 -5.4375 31.9375 C-6.34223086 32.92337632 -7.2471819 33.90905062 -8.15234375 34.89453125 C-10.19184687 37.11599215 -12.22404228 39.34394847 -14.25390625 41.57421875 C-15.33584546 42.75789663 -16.41787466 43.94149227 -17.5 45.125 C-18.0045874 45.68179443 -18.5091748 46.23858887 -19.02905273 46.81225586 C-24.63154064 52.92397448 -24.63154064 52.92397448 -29.375 53.1875 C-32.40802009 53.03061965 -35.04134587 52.59173083 -38 52 C-42.356244 51.770724 -45.26046543 51.7340642 -49 54 C-50.55574605 55.49349768 -50.55574605 55.49349768 -52 57.3125 C-55.14275404 61.02483633 -58.38007252 64.62271 -61.6875 68.1875 C-62.44498535 69.00541016 -62.44498535 69.00541016 -63.21777344 69.83984375 C-64.26710293 70.97262023 -65.31675061 72.10510204 -66.36669922 73.23730469 C-69.16575123 76.25810521 -71.95746067 79.28568022 -74.75 82.3125 C-75.76559267 83.41279026 -76.78121459 84.51305352 -77.796875 85.61328125 C-78.52390625 86.40089844 -79.2509375 87.18851562 -80 88 C-81.23620074 87.13496623 -82.46357259 86.25731366 -83.6875 85.375 C-84.37199219 84.88773437 -85.05648437 84.40046875 -85.76171875 83.8984375 C-88.5744604 81.51276133 -90.69703041 78.87972029 -93 76 C-92.34366577 75.30608154 -92.34366577 75.30608154 -91.67407227 74.59814453 C-89.63565476 72.44158508 -87.59891698 70.28344862 -85.5625 68.125 C-84.8312793 67.3508374 -84.10005859 66.5766748 -83.34667969 65.77905273 C-78.72118476 60.86895141 -74.18874565 55.90607743 -69.796875 50.78515625 C-67.32879835 48.33317575 -65.63490707 47.08575268 -62.07763672 46.89916992 C-58.9287602 46.91468333 -55.78837511 47.03144965 -52.64257812 47.16601562 C-47.79813336 47.28241074 -45.05325252 46.94572242 -41 44 C-40.34 44 -39.68 44 -39 44 C-38.75636719 43.42765625 -38.51273438 42.8553125 -38.26171875 42.265625 C-36.77482702 39.59566462 -35.01916092 37.86170993 -32.8125 35.75 C-30.03582383 33.03483248 -27.33776739 30.32543996 -24.8125 27.375 C-21.32388631 23.30631237 -17.66701426 19.40705092 -14 15.5 C-9.23276841 10.41775588 -4.51358855 5.31110232 0 0 Z " fill="#24CF7E" transform="translate(126,43)"/>
<path d="M0 0 C4.04161955 1.34484714 6.38678154 3.0505162 9.3125 6.125 C10.00988281 6.84945312 10.70726562 7.57390625 11.42578125 8.3203125 C11.94527344 8.87460938 12.46476562 9.42890625 13 10 C11.62810865 13.0547728 10.04722873 15.23171956 7.734375 17.64453125 C7.09113281 18.32193359 6.44789063 18.99933594 5.78515625 19.69726562 C5.11355469 20.39529297 4.44195312 21.09332031 3.75 21.8125 C2.43080999 23.19259564 1.11308582 24.57409403 -0.203125 25.95703125 C-1.16508789 26.96564209 -1.16508789 26.96564209 -2.14648438 27.99462891 C-4.39798204 30.43058805 -6.50198401 32.96801542 -8.56933594 35.5612793 C-10.24752798 37.24892191 -11.80309065 38.10276293 -14 39 C-16.26171875 38.9765625 -16.26171875 38.9765625 -18.6875 38.625 C-19.5640625 38.52316406 -20.440625 38.42132813 -21.34375 38.31640625 C-22.2203125 38.21199219 -23.096875 38.10757813 -24 38 C-29.62629107 37.300079 -29.62629107 37.300079 -34.87109375 39.05859375 C-37.99747881 41.62793915 -40.60559961 44.66033935 -43.2421875 47.71875 C-47.49670388 52.6035235 -51.94044234 57.2979515 -56.39453125 62 C-60.12835514 65.95800793 -63.76348669 69.9810182 -67.33056641 74.08984375 C-69.81891517 76.936998 -72.37419415 79.72042629 -74.9375 82.5 C-75.43056641 83.03625 -75.92363281 83.5725 -76.43164062 84.125 C-77.62023739 85.41745474 -78.80998823 86.70884799 -80 88 C-80.43570313 87.62488281 -80.87140625 87.24976563 -81.3203125 86.86328125 C-85.18607599 83.54140223 -89.07657648 80.25357073 -93 77 C-89.1951664 71.52402381 -84.96887058 66.85059378 -80.203125 62.1953125 C-78.31275595 60.31164689 -76.54791903 58.39965554 -74.8125 56.375 C-71.26012339 52.2458846 -67.57811747 48.24356744 -63.875 44.25 C-63.2766333 43.59950684 -62.6782666 42.94901367 -62.06176758 42.27880859 C-60.39964387 40.49266648 -58.71018123 38.74004993 -57 37 C-56.2059375 36.19175781 -55.411875 35.38351563 -54.59375 34.55078125 C-50.96984709 32.38408026 -47.6971798 32.67764937 -43.625 32.9375 C-36.68607554 33.34819606 -31.49269718 32.81286862 -25.8125 28.23828125 C-25.214375 27.60277344 -24.61625 26.96726562 -24 26.3125 C-23.32324219 25.59964844 -22.64648438 24.88679688 -21.94921875 24.15234375 C-19.64433017 21.60726638 -17.37862443 19.03371487 -15.140625 16.4296875 C-10.2178334 10.84213937 -5.0826296 5.44185305 0 0 Z " fill="#15EA85" transform="translate(153,68)"/>
<path d="M0 0 C2.97370229 1.25208517 4.67904112 3.14736049 6.90234375 5.46875 C7.7015625 6.29503906 8.50078125 7.12132813 9.32421875 7.97265625 C9.9275 8.61074219 10.53078125 9.24882813 11.15234375 9.90625 C9.57673202 13.64071096 7.26543553 16.19022682 4.46484375 19.09375 C3.63597656 19.97417969 2.80710937 20.85460937 1.953125 21.76171875 C-1.42914068 24.35148703 -3.6273596 24.73743813 -7.84765625 24.90625 C-9.91157112 24.55243602 -11.68695171 23.96166536 -13.66015625 23.28125 C-17.01118532 22.70678787 -19.54706711 23.0990407 -22.84765625 23.90625 C-25.79110263 26.08867794 -25.79110263 26.08867794 -28.34765625 28.96875 C-28.82485107 29.47116211 -29.3020459 29.97357422 -29.79370117 30.49121094 C-32.88260541 33.7680353 -35.86397666 37.13937796 -38.7890625 40.5625 C-41.65557988 43.82608715 -44.62751323 46.98706861 -47.59765625 50.15625 C-52.82414067 55.73553937 -58.01961868 61.34005503 -63.17578125 66.984375 C-65.05648173 69.04104746 -66.94123976 71.09328674 -68.83203125 73.140625 C-69.5732019 73.94463745 -69.5732019 73.94463745 -70.3293457 74.76489258 C-71.69782881 76.24904153 -73.06762004 77.731984 -74.4375 79.21484375 C-76.67344642 81.71171099 -78.7831073 84.26688464 -80.84765625 86.90625 C-84.76727943 85.57220281 -87.27739734 83.93271324 -90.22265625 81.03125 C-90.93164062 80.35320312 -91.640625 79.67515625 -92.37109375 78.9765625 C-93.84765625 76.90625 -93.84765625 76.90625 -93.86328125 74.9453125 C-92.45003143 72.10794172 -90.51958662 70.33521113 -88.22265625 68.15625 C-84.48548044 64.59155923 -81.05565264 60.90085388 -77.67724609 56.99414062 C-74.69573765 53.59170398 -71.58126844 50.31719777 -68.47265625 47.03125 C-62.06855793 40.23048638 -55.75109461 33.36538618 -49.59765625 26.3359375 C-48.87578125 25.51351562 -48.15390625 24.69109375 -47.41015625 23.84375 C-46.77207031 23.11027344 -46.13398438 22.37679687 -45.4765625 21.62109375 C-43.57590667 19.62016351 -42.56437608 18.9504296 -39.80395508 18.78027344 C-38.56681763 18.77302246 -38.56681763 18.77302246 -37.3046875 18.765625 C-36.39525391 18.74628906 -35.48582031 18.72695312 -34.54882812 18.70703125 C-32.64278546 18.67352408 -30.73641347 18.65497499 -28.83007812 18.65234375 C-21.04922276 18.44427021 -17.18788503 16.28487222 -11.80859375 10.84375 C-11.02355469 9.8846875 -11.02355469 9.8846875 -10.22265625 8.90625 C-9.64644531 8.22691406 -9.07023437 7.54757813 -8.4765625 6.84765625 C-7.67025391 5.88666016 -7.67025391 5.88666016 -6.84765625 4.90625 C-2.56948715 -0.13037567 -2.56948715 -0.13037567 0 0 Z " fill="#1BE786" transform="translate(181.84765625,93.09375)"/>
<path d="M0 0 C3.47775179 1.51553404 5.9557984 3.5773456 8.75 6.125 C9.54921875 6.84945313 10.3484375 7.57390625 11.171875 8.3203125 C11.77515625 8.87460937 12.3784375 9.42890625 13 10 C11.49508808 13.45105456 9.48416021 15.86724097 6.9375 18.625 C6.12539062 19.51058594 5.31328125 20.39617188 4.4765625 21.30859375 C3.65929687 22.19675781 2.84203125 23.08492187 2 24 C0.60256871 25.56107102 -0.79327438 27.12356527 -2.1875 28.6875 C-6.07267936 33.00814605 -10.02904049 37.2584614 -14 41.5 C-23.68853933 51.75252769 -23.68853933 51.75252769 -32.8125 62.5 C-35.41532143 65.47465306 -36.91115716 66.83998512 -40.88671875 67.14453125 C-44.47012103 67.21739156 -47.53356707 66.89456334 -51 66 C-54.40035049 65.47686916 -56.84267165 65.28402568 -59.84375 67.140625 C-64.70383487 71.2438114 -68.93176737 76.06837928 -73.14355469 80.82324219 C-75.64339765 83.62896542 -77.95517224 85.71637918 -81 88 C-84.96 84.37 -88.92 80.74 -93 77 C-91.54979317 75.31371299 -90.09896283 73.627957 -88.64453125 71.9453125 C-87.63678589 70.75325267 -86.64942767 69.54309792 -85.69921875 68.3046875 C-82.81787319 64.56926231 -80.37703478 62.72244424 -76 61 C-72.41817451 60.65946191 -68.86288579 60.9281431 -65.27734375 61.1171875 C-59.51285985 61.30280594 -55.68915095 60.47578674 -51.27685547 56.41357422 C-49.35860121 54.46662046 -47.51738339 52.46766215 -45.6875 50.4375 C-44.69302856 49.35505005 -44.69302856 49.35505005 -43.6784668 48.25073242 C-41.7761533 46.1755447 -39.885861 44.09013628 -38 42 C-37.15695313 41.06929687 -36.31390625 40.13859375 -35.4453125 39.1796875 C-34.03561514 37.61507834 -32.62929808 36.04741621 -31.2265625 34.4765625 C-28.57168443 31.52359285 -25.88294929 28.60340777 -23.1875 25.6875 C-22.68573242 25.14448242 -22.18396484 24.60146484 -21.66699219 24.04199219 C-19.02881638 21.18886634 -16.38678393 18.33936223 -13.7421875 15.4921875 C-12.94325073 14.63040894 -12.94325073 14.63040894 -12.12817383 13.7512207 C-11.11888942 12.66261627 -10.10840007 11.57512713 -9.09643555 10.48901367 C-5.94268114 7.08537012 -2.94485937 3.58620805 0 0 Z " fill="#1FC476" transform="translate(99,18)"/>
<path d="M0 0 C0.495 1.485 0.495 1.485 1 3 C3.97 3 6.94 3 10 3 C10 3.99 10 4.98 10 6 C8.87851563 5.96519531 8.87851563 5.96519531 7.734375 5.9296875 C6.74953125 5.91164063 5.7646875 5.89359375 4.75 5.875 C3.77546875 5.85179688 2.8009375 5.82859375 1.796875 5.8046875 C-1.85682844 6.05983439 -3.90480809 6.91336428 -6.5 9.48828125 C-6.995 10.09027344 -7.49 10.69226563 -8 11.3125 C-11.14275404 15.02483633 -14.38007252 18.62271 -17.6875 22.1875 C-18.44498535 23.00541016 -18.44498535 23.00541016 -19.21777344 23.83984375 C-20.26710293 24.97262023 -21.31675061 26.10510204 -22.36669922 27.23730469 C-25.16575123 30.25810521 -27.95746067 33.28568022 -30.75 36.3125 C-31.76559267 37.41279026 -32.78121459 38.51305352 -33.796875 39.61328125 C-34.52390625 40.40089844 -35.2509375 41.18851563 -36 42 C-37.23620074 41.13496623 -38.46357259 40.25731366 -39.6875 39.375 C-40.37199219 38.88773438 -41.05648437 38.40046875 -41.76171875 37.8984375 C-44.5744604 35.51276133 -46.69703041 32.87972029 -49 30 C-48.56244385 29.5373877 -48.1248877 29.07477539 -47.67407227 28.59814453 C-45.63565476 26.44158508 -43.59891698 24.28344862 -41.5625 22.125 C-40.8312793 21.3508374 -40.10005859 20.5766748 -39.34667969 19.77905273 C-34.72118476 14.86895141 -30.18874565 9.90607743 -25.796875 4.78515625 C-23.41558981 2.41940118 -21.30198085 1.13252688 -17.92529297 0.78881836 C-16.84465576 0.81407593 -16.84465576 0.81407593 -15.7421875 0.83984375 C-14.95199219 0.85080078 -14.16179687 0.86175781 -13.34765625 0.87304688 C-12.12369141 0.90495117 -12.12369141 0.90495117 -10.875 0.9375 C-5.27193175 1.34886878 -5.27193175 1.34886878 0 0 Z " fill="#32DF8E" transform="translate(82,89)"/>
<path d="M0 0 C4.04161955 1.34484714 6.38678154 3.0505162 9.3125 6.125 C10.00988281 6.84945312 10.70726562 7.57390625 11.42578125 8.3203125 C12.20501953 9.15175781 12.20501953 9.15175781 13 10 C11.62810865 13.0547728 10.04722873 15.23171956 7.734375 17.64453125 C6.76951172 18.66063477 6.76951172 18.66063477 5.78515625 19.69726562 C5.11355469 20.39529297 4.44195312 21.09332031 3.75 21.8125 C2.43080999 23.19259564 1.11308582 24.57409403 -0.203125 25.95703125 C-0.84443359 26.62943848 -1.48574219 27.3018457 -2.14648438 27.99462891 C-4.39798204 30.43058805 -6.50198401 32.96801542 -8.56933594 35.5612793 C-10.99405231 37.99965021 -13.3131848 38.90416532 -16.6875 39.375 C-21.24717271 38.85881064 -24.92221437 37.02983107 -29 35 C-29 34.34 -29 33.68 -29 33 C-29.66 32.67 -30.32 32.34 -31 32 C-30.56171875 31.64550781 -30.1234375 31.29101562 -29.671875 30.92578125 C-23.42407848 25.68118783 -18.03158411 19.76568428 -12.56982422 13.73144531 C-10.46958605 11.41497733 -8.35461968 9.11220194 -6.23950195 6.80932617 C-4.1570853 4.541912 -2.07860073 2.27091221 0 0 Z " fill="#09C66C" transform="translate(153,68)"/>
<path d="M0 0 C2.97370229 1.25208517 4.67904112 3.14736049 6.90234375 5.46875 C7.7015625 6.29503906 8.50078125 7.12132813 9.32421875 7.97265625 C9.9275 8.61074219 10.53078125 9.24882813 11.15234375 9.90625 C9.57673202 13.64071096 7.26543553 16.19022682 4.46484375 19.09375 C3.63597656 19.97417969 2.80710938 20.85460937 1.953125 21.76171875 C-1.42443042 24.34788043 -3.63403966 24.73673669 -7.84765625 24.90625 C-9.74115421 24.39275903 -11.63434531 23.87690412 -13.515625 23.3203125 C-18.26052476 22.47783449 -23.09964763 23.32066227 -27.84765625 23.90625 C-27.84765625 23.24625 -27.84765625 22.58625 -27.84765625 21.90625 C-28.50765625 21.57625 -29.16765625 21.24625 -29.84765625 20.90625 C-29.27917969 20.74769531 -28.71070313 20.58914062 -28.125 20.42578125 C-18.45926465 17.50508326 -13.24432905 12.53010224 -6.84765625 4.90625 C-2.56948715 -0.13037567 -2.56948715 -0.13037567 0 0 Z " fill="#0AC56C" transform="translate(181.84765625,93.09375)"/>
<path d="M0 0 C0.4375 2.0625 0.4375 2.0625 0 5 C-1.53131861 6.87768829 -3.2219505 8.46005601 -5 10.10546875 C-7.59660553 12.56514391 -9.84374832 15.26106406 -12.12890625 18.0078125 C-14.53148367 20.56588032 -17.30398226 22.75331855 -20 25 C-23.96 21.37 -27.92 17.74 -32 14 C-30.54979317 12.31371299 -29.09896283 10.627957 -27.64453125 8.9453125 C-26.63678589 7.75325267 -25.64942767 6.54309792 -24.69921875 5.3046875 C-17.76591797 -3.68376107 -10.05559869 -2.34630636 0 0 Z " fill="#16D47A" transform="translate(38,81)"/>
<path d="M0 0 C5.61 0 11.22 0 17 0 C17 0.66 17 1.32 17 2 C19.31 2.66 21.62 3.32 24 4 C21.61684918 5.19157541 20.32675806 5.00807183 17.6875 4.875 C13.62625286 4.80949601 11.28797815 5.45446853 8 8 C7.608125 7.21625 7.21625 6.4325 6.8125 5.625 C4.75725331 2.64843582 3.40320742 2.01176437 0 1 C0 0.67 0 0.34 0 0 Z " fill="#1ED681" transform="translate(107,101)"/>
<path d="M0 0 C0.33 0.99 0.66 1.98 1 3 C3.97 3 6.94 3 10 3 C10 3.99 10 4.98 10 6 C9.26394531 5.97679688 8.52789062 5.95359375 7.76953125 5.9296875 C6.30580078 5.90261719 6.30580078 5.90261719 4.8125 5.875 C3.36810547 5.84019531 3.36810547 5.84019531 1.89453125 5.8046875 C-1.12812778 6.0086456 -3.26769985 6.73125368 -6 8 C-6.3403125 7.0409375 -6.3403125 7.0409375 -6.6875 6.0625 C-7.85250896 3.72806339 -7.85250896 3.72806339 -10.625 3.25 C-11.40875 3.1675 -12.1925 3.085 -13 3 C-13 2.67 -13 2.34 -13 2 C-12.22914062 1.93941406 -11.45828125 1.87882812 -10.6640625 1.81640625 C-9.15972656 1.69072266 -9.15972656 1.69072266 -7.625 1.5625 C-6.62726563 1.48128906 -5.62953125 1.40007812 -4.6015625 1.31640625 C-2.02072387 1.15034374 -2.02072387 1.15034374 0 0 Z " fill="#36D38B" transform="translate(82,89)"/>
<path d="M0 0 C0 0.66 0 1.32 0 2 C2.31 2.66 4.62 3.32 7 4 C3.59611697 4.98316039 0.27740411 5.29411056 -3.25 5.5625 C-4.32765625 5.64628906 -5.4053125 5.73007813 -6.515625 5.81640625 C-7.74539062 5.90728516 -7.74539062 5.90728516 -9 6 C-9 5.34 -9 4.68 -9 4 C-9.66 3.67 -10.32 3.34 -11 3 C-9.54293274 2.49632243 -8.08429904 1.99717444 -6.625 1.5 C-5.81289062 1.2215625 -5.00078125 0.943125 -4.1640625 0.65625 C-2 0 -2 0 0 0 Z " fill="#16CD78" transform="translate(163,111)"/>
<path d="M0 0 C0 4.04016453 -1.46869212 4.9566059 -4.1875 7.875 C-5.00476563 8.75671875 -5.82203125 9.6384375 -6.6640625 10.546875 C-9.07166934 13.07526479 -11.49127434 15.57220098 -14 18 C-14.66 17.67 -15.32 17.34 -16 17 C-13.70891588 14.54112319 -11.41703299 12.08299232 -9.125 9.625 C-8.47402344 8.92632812 -7.82304688 8.22765625 -7.15234375 7.5078125 C-6.52714844 6.8375 -5.90195313 6.1671875 -5.2578125 5.4765625 C-4.6817627 4.85861816 -4.10571289 4.24067383 -3.51220703 3.60400391 C-2.36151331 2.38345858 -1.18613383 1.18613383 0 0 Z " fill="#E0FDF1" transform="translate(89,138)"/>
<path d="M0 0 C0 3.23830467 -0.29194726 4.31591712 -2 7 C-3.63604196 8.37073786 -5.30678061 9.70055256 -7 11 C-8.68528688 12.64783606 -10.35697047 14.31002677 -12 16 C-12.66 15.67 -13.32 15.34 -14 15 C-12.23000902 13.06172464 -10.45904239 11.12435656 -8.6875 9.1875 C-8.18798828 8.64029297 -7.68847656 8.09308594 -7.17382812 7.52929688 C-4.83056872 4.96878163 -2.48855146 2.42060466 0 0 Z " fill="#E3FDF3" transform="translate(158,117)"/>
<path d="M0 0 C0 3.76596445 -0.79875182 4.94665575 -3 8 C-5.24439289 10.11471686 -7.58939637 12.07812149 -10 14 C-10.66 13.67 -11.32 13.34 -12 13 C-8.13635705 8.51282966 -4.25209792 4.12324647 0 0 Z " fill="#E1FCF1" transform="translate(111,114)"/>
<path d="M0 0 C0.99 0.33 1.98 0.66 3 1 C2.65120368 4.25543229 1.97866739 5.01873107 -0.5625 7.25 C-1.7690625 8.11625 -1.7690625 8.11625 -3 9 C-3.66 8.01 -4.32 7.02 -5 6 C-4.34 5.01 -3.68 4.02 -3 3 C-2.34 3 -1.68 3 -1 3 C-0.67 2.01 -0.34 1.02 0 0 Z " fill="#26E68D" transform="translate(75,147)"/>
<path d="M0 0 C0.33 1.32 0.66 2.64 1 4 C0.113125 4.70125 -0.77375 5.4025 -1.6875 6.125 C-4.90375955 8.79121041 -7.41236896 11.72740781 -10 15 C-10.66 14.34 -11.32 13.68 -12 13 C-11.30132812 12.31292969 -10.60265625 11.62585938 -9.8828125 10.91796875 C-8.97273438 10.01691406 -8.06265625 9.11585938 -7.125 8.1875 C-6.22007813 7.29417969 -5.31515625 6.40085938 -4.3828125 5.48046875 C-1.90168486 3.04361667 -1.90168486 3.04361667 0 0 Z " fill="#D8FCED" transform="translate(125,152)"/>
<path d="M0 0 C0.33 0.99 0.66 1.98 1 3 C-0.8125 5.6875 -0.8125 5.6875 -3 8 C-3.66 8 -4.32 8 -5 8 C-5.2475 8.61875 -5.495 9.2375 -5.75 9.875 C-7.20628639 12.35068687 -8.37812506 12.95125002 -11 14 C-9.61263874 10.84375314 -7.99607292 8.80136567 -5.5 6.4375 C-3.27903267 4.32475777 -1.72257583 2.58386374 0 0 Z " fill="#DFFCF0" transform="translate(77,96)"/>
<path d="M0 0 C8.58 0 17.16 0 26 0 C26 0.33 26 0.66 26 1 C17.42 1 8.84 1 0 1 C0 0.67 0 0.34 0 0 Z " fill="#FFFFFF" transform="translate(86,199)"/>
<path d="M0 0 C-0.99 1.485 -0.99 1.485 -2 3 C-3.99950636 3.04443347 -6.00038436 3.03920815 -8 3 C-10.78566059 3.91257306 -10.78566059 3.91257306 -13 5 C-8.49251112 0.34226149 -6.53321609 -0.12098548 0 0 Z " fill="#43D794" transform="translate(69,90)"/>
<path d="M0 0 C0.33 0 0.66 0 1 0 C1 8.58 1 17.16 1 26 C0.67 26 0.34 26 0 26 C0 17.42 0 8.84 0 0 Z " fill="#FDFEFE" transform="translate(199,86)"/>
<path d="M0 0 C1.67542976 0.28604898 3.34385343 0.61781233 5 1 C3.35 2.98 1.7 4.96 0 7 C-0.66 6.34 -1.32 5.68 -2 5 C-1.46428571 1.46428571 -1.46428571 1.46428571 0 0 Z " fill="#2CE38D" transform="translate(131,140)"/>
<path d="M0 0 C0.66 0.99 1.32 1.98 2 3 C-3.75 8 -3.75 8 -6 8 C-6 8.66 -6 9.32 -6 10 C-6.66 9.67 -7.32 9.34 -8 9 C-6.85459775 7.68712379 -5.70866567 6.37470979 -4.5625 5.0625 C-3.92441406 4.33160156 -3.28632812 3.60070312 -2.62890625 2.84765625 C-1.77458541 1.87860647 -0.91348825 0.91348825 0 0 Z " fill="#E2FCF2" transform="translate(130,64)"/>
<path d="M0 0 C0 3.58912412 -0.66436554 4.10857029 -3 6.6875 C-3.556875 7.31011719 -4.11375 7.93273437 -4.6875 8.57421875 C-5.120625 9.04472656 -5.55375 9.51523438 -6 10 C-6.66 9.67 -7.32 9.34 -8 9 C-5.36 6.03 -2.72 3.06 0 0 Z " fill="#32E291" transform="translate(82,120)"/>
<path d="M0 0 C0.33 0.99 0.66 1.98 1 3 C-1.31 5.31 -3.62 7.62 -6 10 C-6.66 9.67 -7.32 9.34 -8 9 C-5.36 6.03 -2.72 3.06 0 0 Z " fill="#D7F8EC" transform="translate(111,30)"/>
<path d="M0 0 C-0.39803561 2.88575819 -0.79009069 3.82189513 -3.0625 5.75 C-3.701875 6.1625 -4.34125 6.575 -5 7 C-5.33 6.01 -5.66 5.02 -6 4 C-2.25 0 -2.25 0 0 0 Z " fill="#2DE38E" transform="translate(147,127)"/>
<path d="M0 0 C1.4783226 2.95664519 1.06032783 5.74229737 1 9 C-0.65 7.35 -2.3 5.7 -4 4 C-2.68 2.68 -1.36 1.36 0 0 Z " fill="#34CB85" transform="translate(10,90)"/>
<path d="M0 0 C2.475 0.495 2.475 0.495 5 1 C5.33 2.32 5.66 3.64 6 5 C5.01 5 4.02 5 3 5 C3 4.34 3 3.68 3 3 C2.34 2.67 1.68 2.34 1 2 C0.67 1.34 0.34 0.68 0 0 Z " fill="#27E089" transform="translate(70,92)"/>
<path d="M0 0 C0.99 0.66 1.98 1.32 3 2 C2.34 3.32 1.68 4.64 1 6 C0.01 5.67 -0.98 5.34 -2 5 C-2 4.01 -2 3.02 -2 2 C-1.34 2 -0.68 2 0 2 C0 1.34 0 0.68 0 0 Z " fill="#16BF6E" transform="translate(163,76)"/>
<path d="M0 0 C0 3 0 3 -1 6 C-4.0625 7.1875 -4.0625 7.1875 -7 8 C-6.02133662 6.85373678 -5.04205413 5.70800212 -4.0625 4.5625 C-3.51722656 3.92441406 -2.97195312 3.28632812 -2.41015625 2.62890625 C-1.63204305 1.73008851 -0.84063472 0.84063472 0 0 Z " fill="#3BC083" transform="translate(70,50)"/>
<path d="M0 0 C0.33 0.99 0.66 1.98 1 3 C-0.65 4.65 -2.3 6.3 -4 8 C-4.66 7.67 -5.32 7.34 -6 7 C-4.02 4.69 -2.04 2.38 0 0 Z " fill="#E2FCF0" transform="translate(102,40)"/>
<path d="M0 0 C0.66 0.33 1.32 0.66 2 1 C-0.31 3.31 -2.62 5.62 -5 8 C-5 5 -5 5 -2.5 2.3125 C-1.675 1.549375 -0.85 0.78625 0 0 Z " fill="#FFFFFF" transform="translate(30,25)"/>
<path d="M0 0 C1.98 0 3.96 0 6 0 C6 0.33 6 0.66 6 1 C4.02 1 2.04 1 0 1 C0 0.67 0 0.34 0 0 Z " fill="#FFFFFF" transform="translate(112,198)"/>
<path d="M0 0 C1.98 0 3.96 0 6 0 C6 0.33 6 0.66 6 1 C4.02 1 2.04 1 0 1 C0 0.67 0 0.34 0 0 Z " fill="#FFFFFF" transform="translate(80,198)"/>
<path d="M0 0 C1.65 0 3.3 0 5 0 C5 0.33 5 0.66 5 1 C3.35 1 1.7 1 0 1 C0 0.67 0 0.34 0 0 Z " fill="#FFFFFF" transform="translate(118,197)"/>
<path d="M0 0 C1.65 0 3.3 0 5 0 C5 0.33 5 0.66 5 1 C3.35 1 1.7 1 0 1 C0 0.67 0 0.34 0 0 Z " fill="#FFFFFF" transform="translate(75,197)"/>
<path d="M0 0 C1.65 0 3.3 0 5 0 C5 0.33 5 0.66 5 1 C3.35 1 1.7 1 0 1 C0 0.67 0 0.34 0 0 Z " fill="#FFFFFF" transform="translate(117,0)"/>
<path d="M0 0 C1.65 0 3.3 0 5 0 C5 0.33 5 0.66 5 1 C3.35 1 1.7 1 0 1 C0 0.67 0 0.34 0 0 Z " fill="#FFFFFF" transform="translate(76,0)"/>
<path d="M0 0 C4 1 4 1 4 1 Z " fill="#FFFFFF" transform="translate(123,196)"/>
<path d="M0 0 C4 1 4 1 4 1 Z " fill="#FFFFFF" transform="translate(68,195)"/>
<path d="M0 0 C4 1 4 1 4 1 Z " fill="#FFFFFF" transform="translate(69,2)"/>
<path d="M0 0 C4 1 4 1 4 1 Z " fill="#FFFFFF" transform="translate(122,1)"/>
<path d="M0 0 C3 1 3 1 3 1 Z " fill="#FFFFFF" transform="translate(72,196)"/>
<path d="M0 0 C3 1 3 1 3 1 Z " fill="#FFFFFF" transform="translate(127,195)"/>
<path d="M0 0 C3 1 3 1 3 1 Z " fill="#FFFFFF" transform="translate(130,194)"/>
<path d="M0 0 C3 1 3 1 3 1 Z " fill="#FFFFFF" transform="translate(65,194)"/>
<path d="M0 0 C3 1 3 1 3 1 Z " fill="#FFFFFF" transform="translate(135,192)"/>
<path d="M0 0 C3 1 3 1 3 1 Z " fill="#FFFFFF" transform="translate(60,192)"/>
<path d="" fill="#FFFFFF" transform="translate(0,0)"/>
<path d="" fill="#FFFFFF" transform="translate(0,0)"/>
<path d="" fill="#FFFFFF" transform="translate(0,0)"/>
<path d="" fill="#FFFFFF" transform="translate(0,0)"/>
<path d="" fill="#FFFFFF" transform="translate(0,0)"/>
<path d="" fill="#FFFFFF" transform="translate(0,0)"/>
<path d="M0 0 C3 1 3 1 3 1 Z " fill="#FFFFFF" transform="translate(137,6)"/>
<path d="M0 0 C3 1 3 1 3 1 Z " fill="#FFFFFF" transform="translate(132,4)"/>
<path d="M0 0 C3 1 3 1 3 1 Z " fill="#FFFFFF" transform="translate(63,4)"/>
<path d="M0 0 C3 1 3 1 3 1 Z " fill="#FFFFFF" transform="translate(129,3)"/>
<path d="M0 0 C3 1 3 1 3 1 Z " fill="#FFFFFF" transform="translate(66,3)"/>
<path d="M0 0 C3 1 3 1 3 1 Z " fill="#FFFFFF" transform="translate(126,2)"/>
<path d="M0 0 C3 1 3 1 3 1 Z " fill="#FFFFFF" transform="translate(73,1)"/>
<path d="M0 0 C2 1 2 1 2 1 Z " fill="#FFFFFF" transform="translate(133,193)"/>
<path d="M0 0 C2 1 2 1 2 1 Z " fill="#FFFFFF" transform="translate(63,193)"/>
<path d="M0 0 C2 1 2 1 2 1 Z " fill="#FFFFFF" transform="translate(138,191)"/>
<path d="M0 0 C2 1 2 1 2 1 Z " fill="#FFFFFF" transform="translate(58,191)"/>
<path d="M0 0 C2 1 2 1 2 1 Z " fill="#FFFFFF" transform="translate(140,190)"/>
<path d="M0 0 C2 1 2 1 2 1 Z " fill="#FFFFFF" transform="translate(56,190)"/>
<path d="M0 0 C2 1 2 1 2 1 Z " fill="#FFFFFF" transform="translate(142,189)"/>
<path d="M0 0 C2 1 2 1 2 1 Z " fill="#FFFFFF" transform="translate(54,189)"/>
<path d="M0 0 C2 1 2 1 2 1 Z " fill="#FFFFFF" transform="translate(144,188)"/>
<path d="M0 0 C2 1 2 1 2 1 Z " fill="#FFFFFF" transform="translate(52,188)"/>
<path d="M0 0 C2 1 2 1 2 1 Z " fill="#FFFFFF" transform="translate(146,187)"/>
<path d="M0 0 C2 1 2 1 2 1 Z " fill="#FFFFFF" transform="translate(50,187)"/>
<path d="M0 0 C2 1 2 1 2 1 Z " fill="#FFFFFF" transform="translate(148,186)"/>
<path d="M0 0 C2 1 2 1 2 1 Z " fill="#FFFFFF" transform="translate(47,185)"/>
<path d="M0 0 C2 1 2 1 2 1 Z " fill="#FFFFFF" transform="translate(151,184)"/>
<path d="M0 0 C2 1 2 1 2 1 Z " fill="#FFFFFF" transform="translate(45,184)"/>
<path d="M0 0 C2 1 2 1 2 1 Z " fill="#FFFFFF" transform="translate(154,182)"/>
<path d="M0 0 C2 1 2 1 2 1 Z " fill="#FFFFFF" transform="translate(42,182)"/>
<path d="M0 0 C2 1 2 1 2 1 Z " fill="#FFFFFF" transform="translate(157,180)"/>
<path d="M0 0 C2 1 2 1 2 1 Z " fill="#FFFFFF" transform="translate(38,179)"/>
<path d="M0 0 C2 1 2 1 2 1 Z " fill="#FFFFFF" transform="translate(162,176)"/>
<path d="M0 0 C2 1 2 1 2 1 Z " fill="#FFFFFF" transform="translate(32,174)"/>
<path d="" fill="#FFFFFF" transform="translate(0,0)"/>
<path d="" fill="#FFFFFF" transform="translate(0,0)"/>
<path d="" fill="#FFFFFF" transform="translate(0,0)"/>
<path d="" fill="#FFFFFF" transform="translate(0,0)"/>
<path d="" fill="#FFFFFF" transform="translate(0,0)"/>
<path d="" fill="#FFFFFF" transform="translate(0,0)"/>
<path d="" fill="#FFFFFF" transform="translate(0,0)"/>
<path d="" fill="#FFFFFF" transform="translate(0,0)"/>
<path d="M0 0 C2 1 2 1 2 1 Z " fill="#FFFFFF" transform="translate(164,23)"/>
<path d="M0 0 C2 1 2 1 2 1 Z " fill="#FFFFFF" transform="translate(37,19)"/>
<path d="M0 0 C2 1 2 1 2 1 Z " fill="#FFFFFF" transform="translate(158,18)"/>
<path d="M0 0 C2 1 2 1 2 1 Z " fill="#FFFFFF" transform="translate(155,16)"/>
<path d="M0 0 C2 1 2 1 2 1 Z " fill="#FFFFFF" transform="translate(41,16)"/>
<path d="M0 0 C2 1 2 1 2 1 Z " fill="#FFFFFF" transform="translate(152,14)"/>
<path d="M0 0 C2 1 2 1 2 1 Z " fill="#FFFFFF" transform="translate(44,14)"/>
<path d="M0 0 C2 1 2 1 2 1 Z " fill="#FFFFFF" transform="translate(149,12)"/>
<path d="M0 0 C2 1 2 1 2 1 Z " fill="#FFFFFF" transform="translate(47,12)"/>
<path d="M0 0 C2 1 2 1 2 1 Z " fill="#FFFFFF" transform="translate(147,11)"/>
<path d="M0 0 C2 1 2 1 2 1 Z " fill="#FFFFFF" transform="translate(49,11)"/>
<path d="M0 0 C2 1 2 1 2 1 Z " fill="#FFFFFF" transform="translate(51,10)"/>
<path d="M0 0 C2 1 2 1 2 1 Z " fill="#FFFFFF" transform="translate(144,9)"/>
<path d="M0 0 C2 1 2 1 2 1 Z " fill="#FFFFFF" transform="translate(53,9)"/>
<path d="M0 0 C2 1 2 1 2 1 Z " fill="#FFFFFF" transform="translate(142,8)"/>
<path d="M0 0 C2 1 2 1 2 1 Z " fill="#FFFFFF" transform="translate(55,8)"/>
<path d="M0 0 C2 1 2 1 2 1 Z " fill="#FFFFFF" transform="translate(140,7)"/>
<path d="M0 0 C2 1 2 1 2 1 Z " fill="#FFFFFF" transform="translate(57,7)"/>
<path d="M0 0 C2 1 2 1 2 1 Z " fill="#FFFFFF" transform="translate(59,6)"/>
<path d="M0 0 C2 1 2 1 2 1 Z " fill="#FFFFFF" transform="translate(135,5)"/>
<path d="M0 0 C2 1 2 1 2 1 Z " fill="#FFFFFF" transform="translate(61,5)"/>
<path d="" fill="#FFFFFF" transform="translate(0,0)"/>
<path d="" fill="#FFFFFF" transform="translate(0,0)"/>
<path d="" fill="#FFFFFF" transform="translate(0,0)"/>
<path d="" fill="#FFFFFF" transform="translate(0,0)"/>
<path d="" fill="#FFFFFF" transform="translate(0,0)"/>
<path d="" fill="#FFFFFF" transform="translate(0,0)"/>
<path d="" fill="#FFFFFF" transform="translate(0,0)"/>
<path d="" fill="#FFFFFF" transform="translate(0,0)"/>
<path d="" fill="#FFFFFF" transform="translate(0,0)"/>
<path d="" fill="#FFFFFF" transform="translate(0,0)"/>
<path d="" fill="#FFFFFF" transform="translate(0,0)"/>
<path d="" fill="#FFFFFF" transform="translate(0,0)"/>
<path d="" fill="#FFFFFF" transform="translate(0,0)"/>
<path d="" fill="#FFFFFF" transform="translate(0,0)"/>
<path d="" fill="#FFFFFF" transform="translate(0,0)"/>
<path d="" fill="#FFFFFF" transform="translate(0,0)"/>
<path d="" fill="#FFFFFF" transform="translate(0,0)"/>
<path d="" fill="#FFFFFF" transform="translate(0,0)"/>
<path d="" fill="#FFFFFF" transform="translate(0,0)"/>
<path d="" fill="#FFFFFF" transform="translate(0,0)"/>
<path d="" fill="#FFFFFF" transform="translate(0,0)"/>
<path d="" fill="#FFFFFF" transform="translate(0,0)"/>
<path d="" fill="#FFFFFF" transform="translate(0,0)"/>
<path d="" fill="#FFFFFF" transform="translate(0,0)"/>
<path d="" fill="#FFFFFF" transform="translate(0,0)"/>
<path d="" fill="#FFFFFF" transform="translate(0,0)"/>
<path d="" fill="#FFFFFF" transform="translate(0,0)"/>
<path d="" fill="#FFFFFF" transform="translate(0,0)"/>
<path d="" fill="#FFFFFF" transform="translate(0,0)"/>
<path d="" fill="#FFFFFF" transform="translate(0,0)"/>
<path d="" fill="#FFFFFF" transform="translate(0,0)"/>
<path d="" fill="#FFFFFF" transform="translate(0,0)"/>
<path d="" fill="#FFFFFF" transform="translate(0,0)"/>
<path d="" fill="#FFFFFF" transform="translate(0,0)"/>
<path d="" fill="#FFFFFF" transform="translate(0,0)"/>
<path d="" fill="#FFFFFF" transform="translate(0,0)"/>
<path d="" fill="#FFFFFF" transform="translate(0,0)"/>
<path d="" fill="#FFFFFF" transform="translate(0,0)"/>
<path d="" fill="#FFFFFF" transform="translate(0,0)"/>
<path d="" fill="#FFFFFF" transform="translate(0,0)"/>
<path d="" fill="#FFFFFF" transform="translate(0,0)"/>
<path d="" fill="#FFFFFF" transform="translate(0,0)"/>
<path d="" fill="#FFFFFF" transform="translate(0,0)"/>
<path d="" fill="#FFFFFF" transform="translate(0,0)"/>
<path d="" fill="#FFFFFF" transform="translate(0,0)"/>
<path d="" fill="#FFFFFF" transform="translate(0,0)"/>
<path d="" fill="#FFFFFF" transform="translate(0,0)"/>
<path d="" fill="#FFFFFF" transform="translate(0,0)"/>
<path d="" fill="#FFFFFF" transform="translate(0,0)"/>
<path d="" fill="#FFFFFF" transform="translate(0,0)"/>
<path d="" fill="#FFFFFF" transform="translate(0,0)"/>
<path d="" fill="#FFFFFF" transform="translate(0,0)"/>
<path d="" fill="#FFFFFF" transform="translate(0,0)"/>
<path d="" fill="#FFFFFF" transform="translate(0,0)"/>
<path d="" fill="#FFFFFF" transform="translate(0,0)"/>
<path d="" fill="#FFFFFF" transform="translate(0,0)"/>
<path d="" fill="#FFFFFF" transform="translate(0,0)"/>
<path d="" fill="#FFFFFF" transform="translate(0,0)"/>
<path d="" fill="#FFFFFF" transform="translate(0,0)"/>
<path d="" fill="#FFFFFF" transform="translate(0,0)"/>
<path d="" fill="#FFFFFF" transform="translate(0,0)"/>
<path d="" fill="#FFFFFF" transform="translate(0,0)"/>
<path d="" fill="#FFFFFF" transform="translate(0,0)"/>
<path d="" fill="#FFFFFF" transform="translate(0,0)"/>
</svg>
