<?xml version="1.0" encoding="UTF-8"?>
<svg version="1.1" xmlns="http://www.w3.org/2000/svg" width="64" height="64">
<path d="M0 0 C2.2265625 0.3828125 2.2265625 0.3828125 3.2265625 1.3828125 C3.57885742 3.61181641 3.57885742 3.61181641 3.2265625 6.3828125 C1.28637695 8.98583984 1.28637695 8.98583984 -1.41015625 11.71875 C-1.88661087 12.20235992 -2.36306549 12.68596985 -2.85395813 13.18423462 C-3.86246205 14.20050663 -4.87738413 15.21044439 -5.89819336 16.21435547 C-7.4578945 17.75480706 -8.98601544 19.32237042 -10.51367188 20.89453125 C-11.49822857 21.87937826 -12.4845019 22.86251276 -13.47265625 23.84375 C-14.36815186 24.73884277 -15.26364746 25.63393555 -16.1862793 26.55615234 C-18.7734375 28.3828125 -18.7734375 28.3828125 -21.42382812 28.31201172 C-24.81439803 26.97114419 -27.08238924 24.69318362 -29.5859375 22.1328125 C-30.08802734 21.65457031 -30.59011719 21.17632812 -31.10742188 20.68359375 C-33.38812203 18.39358462 -34.69219377 16.87733953 -35.22265625 13.6484375 C-34.7734375 11.3828125 -34.7734375 11.3828125 -32.7734375 9.3828125 C-29.12612615 9.68164683 -27.15087102 11.53683177 -24.5234375 13.9453125 C-23.46382812 14.90630859 -23.46382812 14.90630859 -22.3828125 15.88671875 C-21.85171875 16.38042969 -21.320625 16.87414062 -20.7734375 17.3828125 C-15.73850639 13.24298025 -11.15284337 8.81452174 -6.77026367 3.9909668 C-4.53489724 1.6487496 -3.25971575 0.4499326 0 0 Z " fill="#5F86FF" transform="translate(57.7734375,23.6171875)"/>
<path d="M0 0 C2.10546875 -0.35546875 2.10546875 -0.35546875 5 0 C7.33605565 1.83777527 9.26942113 3.56994681 11.3125 5.6875 C11.86228516 6.21794922 12.41207031 6.74839844 12.97851562 7.29492188 C15.44406502 9.79109921 16.92041906 11.35198376 17.35546875 14.89453125 C17.23816406 15.58933594 17.12085938 16.28414062 17 17 C15.02 17.99 15.02 17.99 13 19 C11.87043002 18.23587913 10.74651022 17.46340197 9.625 16.6875 C8.99851562 16.25824219 8.37203125 15.82898437 7.7265625 15.38671875 C6 14 6 14 4 11 C0.85099299 12.38354344 -1.15837124 13.96706891 -3.49609375 16.4765625 C-4.13740234 17.146875 -4.77871094 17.8171875 -5.43945312 18.5078125 C-6.77355583 19.92146581 -8.10168574 21.34077932 -9.42382812 22.765625 C-10.06642578 23.43335937 -10.70902344 24.10109375 -11.37109375 24.7890625 C-12.2362561 25.71259521 -12.2362561 25.71259521 -13.11889648 26.65478516 C-15.53113938 28.37982842 -17.10018214 28.25600368 -20 28 C-20.8125 25.375 -20.8125 25.375 -21 22 C-18.16333286 17.82843067 -14.98352719 15.08723357 -11 12 C-8.29046625 9.41649107 -6.07904656 7.11856984 -4 4 C-3.34 4 -2.68 4 -2 4 C-1.34 2.68 -0.68 1.36 0 0 Z " fill="#41BDFE" transform="translate(24,12)"/>
<path d="M0 0 C4.1738113 0.61599698 6.33182636 3.19023512 9.14453125 6.10546875 C9.96920898 6.90114258 9.96920898 6.90114258 10.81054688 7.71289062 C13.27609627 10.20906796 14.75245031 11.76995251 15.1875 15.3125 C15.07019531 16.00730469 14.95289062 16.70210937 14.83203125 17.41796875 C12.85203125 18.40796875 12.85203125 18.40796875 10.83203125 19.41796875 C9.70246127 18.65384788 8.57854147 17.88137072 7.45703125 17.10546875 C6.83054687 16.67621094 6.2040625 16.24695312 5.55859375 15.8046875 C3.83203125 14.41796875 3.83203125 14.41796875 1.83203125 11.41796875 C0.51203125 11.74796875 -0.80796875 12.07796875 -2.16796875 12.41796875 C-2.36198508 10.6061547 -2.5480125 8.79348343 -2.73046875 6.98046875 C-2.83488281 5.97113281 -2.93929688 4.96179688 -3.046875 3.921875 C-3.08683594 3.09558594 -3.12679688 2.26929688 -3.16796875 1.41796875 C-2.16796875 0.41796875 -2.16796875 0.41796875 0 0 Z " fill="#38C8FE" transform="translate(26.16796875,11.58203125)"/>
<path d="M0 0 C3.64731135 0.29883433 5.62256648 2.15401927 8.25 4.5625 C8.95640625 5.20316406 9.6628125 5.84382813 10.390625 6.50390625 C10.92171875 6.99761719 11.4528125 7.49132813 12 8 C11.67 8.99 11.34 9.98 11 11 C7.42673137 11.91409198 5.63770438 12.30435891 2.25 10.6875 C0 9 0 9 -2 7 C-2.25 4.5 -2.25 4.5 -2 2 C-1.34 1.34 -0.68 0.68 0 0 Z " fill="#3DBDFF" transform="translate(25,33)"/>
<path d="M0 0 C4.40277438 0.78271545 6.23981362 4.0343881 8.8125 7.5 C7.74 7.768125 6.6675 8.03625 5.5625 8.3125 C2.17992198 9.38364971 0.49382822 10.33476814 -2.1875 12.5 C-2.38151633 10.68818595 -2.56754375 8.87551468 -2.75 7.0625 C-2.85441406 6.05316406 -2.95882813 5.04382813 -3.06640625 4.00390625 C-3.10636719 3.17761719 -3.14632813 2.35132813 -3.1875 1.5 C-2.1875 0.5 -2.1875 0.5 0 0 Z " fill="#59F0FC" transform="translate(26.1875,11.5)"/>
<path d="M0 0 C0 3 0 3 -1.875 5.1875 C-4 7 -4 7 -6 7 C-7.625 4.5 -7.625 4.5 -9 2 C-5.5647952 -0.29013653 -4.014669 -0.17842973 0 0 Z " fill="#46B1FE" transform="translate(36,19)"/>
<path d="M0 0 C0 1.65 0 3.3 0 5 C-1.98 5.99 -1.98 5.99 -4 7 C-4.99 6.01 -5.98 5.02 -7 4 C-6.34 4 -5.68 4 -5 4 C-5 3.34 -5 2.68 -5 2 C-2 0 -2 0 0 0 Z " fill="#55F0FC" transform="translate(41,24)"/>
<path d="M0 0 C0.99 0 1.98 0 3 0 C1.70700306 2.88437779 0.34058637 4.87219421 -2 7 C-2.125 4.625 -2.125 4.625 -2 2 C-1.34 1.34 -0.68 0.68 0 0 Z " fill="#48AAFF" transform="translate(25,33)"/>
</svg>
