<?xml version="1.0" encoding="UTF-8"?>
<svg version="1.1" xmlns="http://www.w3.org/2000/svg" width="25" height="25">
<path d="M0 0 C2.89004215 1.57434203 4.98229295 3.5952987 7.3203125 5.90625 C8.67576172 7.21529297 8.67576172 7.21529297 10.05859375 8.55078125 C12.0078125 11.09375 12.0078125 11.09375 12.1015625 13.0859375 C10.52722047 15.97597965 8.5062638 18.06823045 6.1953125 20.40625 C5.32261719 21.30988281 4.44992188 22.21351562 3.55078125 23.14453125 C1.0078125 25.09375 1.0078125 25.09375 -0.984375 25.1875 C-3.87441715 23.61315797 -5.96666795 21.5922013 -8.3046875 19.28125 C-9.20832031 18.40855469 -10.11195312 17.53585938 -11.04296875 16.63671875 C-12.9921875 14.09375 -12.9921875 14.09375 -13.0859375 12.1015625 C-11.51159547 9.21152035 -9.4906388 7.11926955 -7.1796875 4.78125 C-6.30699219 3.87761719 -5.43429688 2.97398437 -4.53515625 2.04296875 C-1.9921875 0.09375 -1.9921875 0.09375 0 0 Z " fill="#136BFD" transform="translate(12.9921875,-0.09375)"/>
<path d="M0 0 C1.32 2.64 2.64 5.28 4 8 C2.576875 8.3403125 2.576875 8.3403125 1.125 8.6875 C-2.12017419 9.69596463 -2.12017419 9.69596463 -3.4375 12.3125 C-4.06550531 15.31296982 -3.82663854 17.06919063 -3 20 C-2.66382208 21.33261896 -2.33001391 22.6658412 -2 24 C-4.35043586 22.01929563 -6.67822804 20.01418678 -9 18 C-9.825 17.29875 -10.65 16.5975 -11.5 15.875 C-13 14 -13 14 -12.90234375 12.2109375 C-11.60166877 9.02400226 -9.50813876 7.15002426 -7.0625 4.75 C-6.16660156 3.85796875 -5.27070312 2.9659375 -4.34765625 2.046875 C-2 0 -2 0 0 0 Z " fill="#5399FE" transform="translate(13,0)"/>
<path d="M0 0 C0.33 0.99 0.66 1.98 1 3 C-0.76192285 4.84269011 -2.53351806 6.67390757 -4.3125 8.5 C-5.06176758 9.28697266 -5.06176758 9.28697266 -5.82617188 10.08984375 C-7.16089504 11.4510846 -8.5769384 12.73139516 -10 14 C-10.99 14 -11.98 14 -13 14 C-16 8.25 -16 8.25 -16 6 C-13.89748139 5.32815382 -11.79292237 4.66269032 -9.6875 4 C-8.51574219 3.62875 -7.34398437 3.2575 -6.13671875 2.875 C-3 2 -3 2 0 2 C0 1.34 0 0.68 0 0 Z " fill="#0128B5" transform="translate(24,11)"/>
<path d="M0 0 C-0.14308594 0.88751953 -0.14308594 0.88751953 -0.2890625 1.79296875 C-0.94154485 6.44380225 -1.34537279 9.72314374 1 14 C-3.13621084 10.6189962 -6.81316569 7.33409466 -10 3 C-3.375 0 -3.375 0 0 0 Z " fill="#367AFE" transform="translate(10,10)"/>
<path d="M0 0 C-0.66 2.97 -1.32 5.94 -2 9 C-2.66 9 -3.32 9 -4 9 C-7 3.25 -7 3.25 -7 1 C-4.53721199 -0.231394 -2.7204945 -0.07159196 0 0 Z " fill="#053DD8" transform="translate(15,16)"/>
<path d="M0 0 C4.13621084 3.3810038 7.81316569 6.66590534 11 11 C8.875 11 8.875 11 6 10 C0 3.60655738 0 3.60655738 0 0 Z " fill="#063CD8" transform="translate(13,0)"/>
<path d="M0 0 C3.465 1.485 3.465 1.485 7 3 C7 3.66 7 4.32 7 5 C4.03 5.66 1.06 6.32 -2 7 C-1.34 4.69 -0.68 2.38 0 0 Z " fill="#284FFB" transform="translate(17,8)"/>
<path d="M0 0 C2.52588702 2.36292656 3.88820837 3.66462511 5 7 C2.69 7.33 0.38 7.66 -2 8 C-1.34 5.36 -0.68 2.72 0 0 Z " fill="#6BA4FE" transform="translate(12,1)"/>
<path d="M0 0 C4.19162145 0.95264124 5.7207791 1.63260408 8.375 5.125 C8.91125 6.07375 9.4475 7.0225 10 8 C9.67 8.66 9.34 9.32 9 10 C7.49702124 8.52386015 5.99768715 7.04400843 4.5 5.5625 C3.6646875 4.73878906 2.829375 3.91507813 1.96875 3.06640625 C0 1 0 1 0 0 Z " fill="#5398FE" transform="translate(1,14)"/>
</svg>
