<?xml version="1.0" encoding="UTF-8"?>
<svg version="1.1" xmlns="http://www.w3.org/2000/svg" width="64" height="64">
<path d="M0 0 C6.65639394 4.32283055 11.47311547 11.76335783 13.52734375 19.3984375 C14.60297462 27.65358047 14.34745142 35.26710781 10.8515625 42.88671875 C10.54605469 43.57507812 10.24054687 44.2634375 9.92578125 44.97265625 C6.14776281 52.14402216 -0.73601613 56.13224209 -8.10546875 59.0625 C-17.57105835 61.62635033 -27.66000543 60.24890628 -36.296875 55.7734375 C-42.95326894 51.45060695 -47.76999047 44.01007967 -49.82421875 36.375 C-50.89984962 28.11985703 -50.64432642 20.50632969 -47.1484375 12.88671875 C-46.84292969 12.19835937 -46.53742187 11.51 -46.22265625 10.80078125 C-42.44463781 3.62941534 -35.56085887 -0.35880459 -28.19140625 -3.2890625 C-18.72581665 -5.85291283 -8.63686957 -4.47546878 0 0 Z " fill="#000000" transform="translate(50.1484375,4.11328125)"/>
<path d="M0 0 C6.21732336 2.08640636 10.3404086 7.67839823 14.17382812 12.72949219 C12.68729306 16.19579054 10.71660461 18.41971255 8.04101562 21.05761719 C7.23535156 21.85683594 6.4296875 22.65605469 5.59960938 23.47949219 C4.75785156 24.30449219 3.91609375 25.12949219 3.04882812 25.97949219 C2.19933594 26.81996094 1.34984375 27.66042969 0.47460938 28.52636719 C-1.62122111 30.59864902 -3.72157901 32.66611611 -5.82617188 34.72949219 C-9.29247022 33.24295713 -11.51639224 31.27226868 -14.15429688 28.59667969 C-14.95351563 27.79101562 -15.75273437 26.98535156 -16.57617188 26.15527344 C-17.81367188 24.89263672 -17.81367188 24.89263672 -19.07617188 23.60449219 C-19.91664062 22.755 -20.75710937 21.90550781 -21.62304688 21.03027344 C-23.6953287 18.93444295 -25.7627958 16.83408505 -27.82617188 14.72949219 C-21.98623585 2.67181727 -13.14793795 -2.41665183 0 0 Z " fill="#03C755" transform="translate(38.826171875,15.2705078125)"/>
<path d="M0 0 C3.95224869 2.12813391 6.95482907 4.72058515 10 8 C8.27592413 12.38855677 5.17026127 14.91486937 1 17 C-4.04222938 17.55319423 -7.89827941 17.58090722 -12.4375 15.1875 C-16.29473684 11.89473684 -16.29473684 11.89473684 -18 10 C-14.68925874 2.3083789 -8.11395489 -1.3087024 0 0 Z " fill="#010603" transform="translate(36,20)"/>
<path d="M0 0 C1.9375 1.6875 1.9375 1.6875 3 4 C3 7.0625 3 7.0625 2 10 C-0.1875 12 -0.1875 12 -3 13 C-6.3783059 12.40382837 -8.2785163 11.90969684 -10.4375 9.1875 C-11.16605815 6.35421829 -10.98879161 4.75449091 -10 2 C-6.83753746 -1.51384726 -4.37881551 -1.39749431 0 0 Z " fill="#F0F0F0" transform="translate(36,23)"/>
<path d="M0 0 C1.67542976 0.28604898 3.34385343 0.61781233 5 1 C4.67 2.32 4.34 3.64 4 5 C2.68 5 1.36 5 0 5 C-0.5625 3.0625 -0.5625 3.0625 -1 1 C-0.67 0.67 -0.34 0.34 0 0 Z " fill="#0D0D0D" transform="translate(30,26)"/>
</svg>
