<?xml version="1.0" encoding="UTF-8"?>
<svg version="1.1" xmlns="http://www.w3.org/2000/svg" width="200" height="200">
<path d="M0 0 C2.82045877 2.30263418 5.56336058 4.67903285 8.27832031 7.10449219 C11.1535235 9.666713 11.1535235 9.666713 14.50878906 11.77246094 C17.18066406 13.58496094 17.18066406 13.58496094 17.86816406 15.77246094 C18.02285156 16.66964844 18.02285156 16.66964844 18.18066406 17.58496094 C19.17066406 17.91496094 20.16066406 18.24496094 21.18066406 18.58496094 C21.51066406 19.57496094 21.84066406 20.56496094 22.18066406 21.58496094 C22.78394531 22.1740625 23.38722656 22.76316406 24.00878906 23.37011719 C26.61161449 26.02443736 28.16331475 28.75588582 29.93066406 32.02246094 C30.85105469 33.69115234 30.85105469 33.69115234 31.79003906 35.39355469 C33.13514811 38.48050439 33.50200878 40.27881822 33.18066406 43.58496094 C33.84066406 43.58496094 34.50066406 43.58496094 35.18066406 43.58496094 C39.64424539 56.0781479 40.85665551 67.12735329 40.55566406 80.33496094 C40.53909422 82.04587815 40.52476266 83.75681854 40.51269531 85.46777344 C40.3702832 98.68935945 40.3702832 98.68935945 39.18066406 103.58496094 C38.52066406 103.58496094 37.86066406 103.58496094 37.18066406 103.58496094 C37.18066406 105.89496094 37.18066406 108.20496094 37.18066406 110.58496094 C36.52066406 110.58496094 35.86066406 110.58496094 35.18066406 110.58496094 C34.52066406 113.88496094 33.86066406 117.18496094 33.18066406 120.58496094 C32.52066406 120.58496094 31.86066406 120.58496094 31.18066406 120.58496094 C31.10589844 121.42542969 31.03113281 122.26589844 30.95410156 123.13183594 C30.00301116 127.37811833 28.20111083 130.25695184 25.80566406 133.83496094 C25.40605469 134.45886719 25.00644531 135.08277344 24.59472656 135.72558594 C22.64505024 138.70140769 21.175244 140.58857431 18.18066406 142.58496094 C17.87128906 143.24496094 17.56191406 143.90496094 17.24316406 144.58496094 C16.18066406 146.58496094 16.18066406 146.58496094 14.29394531 147.52246094 C12.05773456 148.64676653 10.95666201 149.72870379 9.30566406 151.58496094 C-7.5531495 168.76523493 -31.7922615 178.47350042 -55.67724609 178.87768555 C-83.14890277 179.03784131 -105.50892955 171.73865683 -126.31811523 153.40429688 C-129.3378039 150.75277047 -132.36813316 148.62599484 -135.81933594 146.58496094 C-136.52084746 145.26962683 -137.18459519 143.93378502 -137.81933594 142.58496094 C-139.08777344 141.37839844 -139.08777344 141.37839844 -140.38183594 140.14746094 C-142.93144067 137.46710724 -143.50996572 136.19428011 -143.81933594 132.58496094 C-144.80933594 132.25496094 -145.79933594 131.92496094 -146.81933594 131.58496094 C-150.62798259 125.57828936 -153.21756631 119.65575401 -153.81933594 112.58496094 C-154.47933594 111.59496094 -155.13933594 110.60496094 -155.81933594 109.58496094 C-156.19144014 108.26192377 -156.52563767 106.92758159 -156.81933594 105.58496094 C-157.14933594 104.59496094 -157.47933594 103.60496094 -157.81933594 102.58496094 C-158.14933594 102.58496094 -158.47933594 102.58496094 -158.81933594 102.58496094 C-158.87027326 96.32278946 -158.90516878 90.06067193 -158.92919922 83.79833984 C-158.93922299 81.67038984 -158.95284555 79.5424535 -158.97021484 77.41455078 C-158.99462286 74.34631976 -159.00585555 71.27827173 -159.01464844 68.20996094 C-159.02497101 67.26693115 -159.03529358 66.32390137 -159.04592896 65.35229492 C-159.04686971 59.74541582 -158.41278806 54.96630789 -156.81933594 49.58496094 C-156.15933594 49.58496094 -155.49933594 49.58496094 -154.81933594 49.58496094 C-154.69816406 48.88628906 -154.57699219 48.18761719 -154.45214844 47.46777344 C-154.28457031 46.55769531 -154.11699219 45.64761719 -153.94433594 44.70996094 C-153.78191406 43.80503906 -153.61949219 42.90011719 -153.45214844 41.96777344 C-152.81933594 39.58496094 -152.81933594 39.58496094 -150.81933594 37.58496094 C-149.71378412 35.63398714 -148.89319267 33.94732054 -148.44433594 31.74511719 C-147.67559861 29.08816878 -146.42875814 27.18569548 -144.88183594 24.89746094 C-144.3571875 24.10984375 -143.83253906 23.32222656 -143.29199219 22.51074219 C-141.81933594 20.58496094 -141.81933594 20.58496094 -139.81933594 19.58496094 C-139.48933594 18.59496094 -139.15933594 17.60496094 -138.81933594 16.58496094 C-138.25988281 16.318125 -137.70042969 16.05128906 -137.12402344 15.77636719 C-133.75454168 14.03451645 -131.50732154 11.25605376 -128.94433594 8.52246094 C-95.59880991 -25.77011212 -37.69548479 -29.31871039 0 0 Z M34.18066406 46.58496094 C35.18066406 48.58496094 35.18066406 48.58496094 35.18066406 48.58496094 Z M35.18066406 49.58496094 C36.18066406 51.58496094 36.18066406 51.58496094 36.18066406 51.58496094 Z M36.18066406 52.58496094 C37.18066406 55.58496094 37.18066406 55.58496094 37.18066406 55.58496094 Z M-156.81933594 53.58496094 C-155.81933594 56.58496094 -155.81933594 56.58496094 -155.81933594 56.58496094 Z M37.18066406 56.58496094 C38.18066406 59.58496094 38.18066406 59.58496094 38.18066406 59.58496094 Z M-157.81933594 57.58496094 C-156.81933594 61.58496094 -156.81933594 61.58496094 -156.81933594 61.58496094 Z M38.18066406 60.58496094 C38.18066406 62.23496094 38.18066406 63.88496094 38.18066406 65.58496094 C38.51066406 65.58496094 38.84066406 65.58496094 39.18066406 65.58496094 C39.18066406 63.93496094 39.18066406 62.28496094 39.18066406 60.58496094 C38.85066406 60.58496094 38.52066406 60.58496094 38.18066406 60.58496094 Z M38.18066406 93.58496094 C38.18066406 95.23496094 38.18066406 96.88496094 38.18066406 98.58496094 C38.51066406 98.58496094 38.84066406 98.58496094 39.18066406 98.58496094 C39.18066406 96.93496094 39.18066406 95.28496094 39.18066406 93.58496094 C38.85066406 93.58496094 38.52066406 93.58496094 38.18066406 93.58496094 Z " fill="#2EB5E9" transform="translate(158.8193359375,19.4150390625)"/>
<path d="M0 0 C0.01458252 0.96599121 0.02916504 1.93198242 0.04418945 2.92724609 C0.19392399 39.49692705 0.19392399 39.49692705 14.44921875 72.58984375 C16 75 16 75 17.07421875 77.2578125 C18.44702296 79.84123308 20.27802741 79.99405361 23 81 C24.13384276 81.7577662 25.25777398 82.53044179 26.375 83.3125 C41.20783882 92.43495262 56.56478364 91.66418999 73.4375 91.5625 C92.21286612 91.4765744 108.8610041 91.43050205 126 100 C125.34 101.98 124.68 103.96 124 106 C123.34 106 122.68 106 122 106 C121.59587891 107.32644531 121.59587891 107.32644531 121.18359375 108.6796875 C115.96568875 123.31737478 101.15245703 138.95836407 87.15600586 145.91674805 C83.80738411 147.38635023 80.61829553 148.4517734 77 149 C77 149.66 77 150.32 77 151 C74.5239837 151.8233134 72.04484514 152.63367191 69.5625 153.4375 C68.53092773 153.78264648 68.53092773 153.78264648 67.47851562 154.13476562 C47.33167105 160.60049714 23.91039845 157.78664978 5 149 C-2.93555141 144.73357451 -9.59488953 139.30113141 -16 133 C-16.7734375 132.23945313 -17.546875 131.47890625 -18.34375 130.6953125 C-30.36122007 118.14281808 -36.61502295 103.07265748 -39 86 C-39.16516113 85.09338623 -39.33032227 84.18677246 -39.50048828 83.25268555 C-40.31978593 77.91764027 -40.42263696 72.5582638 -40.61254883 67.16943359 C-40.6870569 65.13708635 -40.77791037 63.10587477 -40.86914062 61.07421875 C-41.11399081 54.30562055 -41.15335791 48.45182331 -39 42 C-38.34 42 -37.68 42 -37 42 C-36.67 41.01 -36.34 40.02 -36 39 C-35.34 39 -34.68 39 -34 39 C-33.92265625 38.3296875 -33.8453125 37.659375 -33.765625 36.96875 C-30.8198575 25.54638621 -13.28871737 0 0 0 Z M-39 46 C-38 49 -38 49 -38 49 Z M-40 50 C-39 54 -39 54 -39 54 Z " fill="#1442CB" transform="translate(41,27)"/>
<path d="M0 0 C2.82045877 2.30263418 5.56336058 4.67903285 8.27832031 7.10449219 C11.1535235 9.666713 11.1535235 9.666713 14.50878906 11.77246094 C17.18066406 13.58496094 17.18066406 13.58496094 17.86816406 15.77246094 C18.02285156 16.66964844 18.02285156 16.66964844 18.18066406 17.58496094 C19.17066406 17.91496094 20.16066406 18.24496094 21.18066406 18.58496094 C21.51066406 19.57496094 21.84066406 20.56496094 22.18066406 21.58496094 C22.78394531 22.1740625 23.38722656 22.76316406 24.00878906 23.37011719 C26.61161449 26.02443736 28.16331475 28.75588582 29.93066406 32.02246094 C30.85105469 33.69115234 30.85105469 33.69115234 31.79003906 35.39355469 C33.13514811 38.48050439 33.50200878 40.27881822 33.18066406 43.58496094 C33.84066406 43.58496094 34.50066406 43.58496094 35.18066406 43.58496094 C39.64424539 56.0781479 40.85665551 67.12735329 40.55566406 80.33496094 C40.53909422 82.04587815 40.52476266 83.75681854 40.51269531 85.46777344 C40.3702832 98.68935945 40.3702832 98.68935945 39.18066406 103.58496094 C38.52066406 103.58496094 37.86066406 103.58496094 37.18066406 103.58496094 C37.18066406 105.89496094 37.18066406 108.20496094 37.18066406 110.58496094 C36.52066406 110.58496094 35.86066406 110.58496094 35.18066406 110.58496094 C34.52066406 113.88496094 33.86066406 117.18496094 33.18066406 120.58496094 C32.52066406 120.58496094 31.86066406 120.58496094 31.18066406 120.58496094 C31.10589844 121.42542969 31.03113281 122.26589844 30.95410156 123.13183594 C30.00301116 127.37811833 28.20111083 130.25695184 25.80566406 133.83496094 C25.40605469 134.45886719 25.00644531 135.08277344 24.59472656 135.72558594 C22.64505024 138.70140769 21.175244 140.58857431 18.18066406 142.58496094 C17.87128906 143.24496094 17.56191406 143.90496094 17.24316406 144.58496094 C16.18066406 146.58496094 16.18066406 146.58496094 14.29394531 147.52246094 C12.05773456 148.64676653 10.95666201 149.72870379 9.30566406 151.58496094 C-7.5531495 168.76523493 -31.7922615 178.47350042 -55.67724609 178.87768555 C-83.14890277 179.03784131 -105.50892955 171.73865683 -126.31811523 153.40429688 C-129.3378039 150.75277047 -132.36813316 148.62599484 -135.81933594 146.58496094 C-136.52084746 145.26962683 -137.18459519 143.93378502 -137.81933594 142.58496094 C-139.08777344 141.37839844 -139.08777344 141.37839844 -140.38183594 140.14746094 C-142.93144067 137.46710724 -143.50996572 136.19428011 -143.81933594 132.58496094 C-144.80933594 132.25496094 -145.79933594 131.92496094 -146.81933594 131.58496094 C-150.62798259 125.57828936 -153.21756631 119.65575401 -153.81933594 112.58496094 C-154.47933594 111.59496094 -155.13933594 110.60496094 -155.81933594 109.58496094 C-156.19144014 108.26192377 -156.52563767 106.92758159 -156.81933594 105.58496094 C-157.14933594 104.59496094 -157.47933594 103.60496094 -157.81933594 102.58496094 C-158.14933594 102.58496094 -158.47933594 102.58496094 -158.81933594 102.58496094 C-158.81933594 91.03496094 -158.81933594 79.48496094 -158.81933594 67.58496094 C-158.48933594 67.58496094 -158.15933594 67.58496094 -157.81933594 67.58496094 C-157.7995166 68.14368896 -157.77969727 68.70241699 -157.75927734 69.27807617 C-157.66281404 71.85993511 -157.55363782 74.44111486 -157.44433594 77.02246094 C-157.41339844 77.90095703 -157.38246094 78.77945313 -157.35058594 79.68457031 C-157.1232783 84.81793449 -156.51413589 89.58989875 -155.29638672 94.58178711 C-154.67106742 97.20755214 -154.31168933 99.84977757 -153.94433594 102.52246094 C-150.7506768 121.68441577 -137.79583176 137.81226558 -122.81933594 149.58496094 C-103.61092858 163.19493801 -79.65430496 166.14319727 -56.81933594 162.58496094 C-53.9389304 161.98853105 -51.09960851 161.27644841 -48.25683594 160.52246094 C-47.53431641 160.33619141 -46.81179687 160.14992187 -46.06738281 159.95800781 C-44.31660547 159.50582029 -42.56775069 159.04619918 -40.81933594 158.58496094 C-40.81933594 157.92496094 -40.81933594 157.26496094 -40.81933594 156.58496094 C-40.15933594 156.33746094 -39.49933594 156.08996094 -38.81933594 155.83496094 C-19.19033898 147.65621221 -4.53100064 132.90213048 4.18066406 113.58496094 C4.84066406 113.58496094 5.50066406 113.58496094 6.18066406 113.58496094 C6.29023438 113.00230469 6.39980469 112.41964844 6.51269531 111.81933594 C7.41548699 107.1512424 8.45071804 102.58633437 9.73144531 98.00683594 C11.33293298 91.63229662 11.62887947 85.63367199 11.55566406 79.08496094 C11.57306641 77.52841797 11.57306641 77.52841797 11.59082031 75.94042969 C11.56278911 68.43741182 10.28931699 61.76915489 8.18066406 54.58496094 C7.70693359 52.89693359 7.70693359 52.89693359 7.22363281 51.17480469 C2.36896977 36.12313252 -5.406346 24.92417745 -17.66308594 15.10839844 C-19.07677706 13.96810985 -20.45246508 12.78097294 -21.81933594 11.58496094 C-21.81933594 10.92496094 -21.81933594 10.26496094 -21.81933594 9.58496094 C-22.4909375 9.33488281 -23.16253906 9.08480469 -23.85449219 8.82714844 C-26.73802031 7.61902994 -29.47315347 6.22447222 -32.23706055 4.7668457 C-51.42512651 -5.27366409 -74.58081845 -9.38578474 -95.71044922 -2.828125 C-108.85944193 1.54109289 -120.35512217 7.37781181 -130.81933594 16.58496094 C-131.97949219 17.60203125 -131.97949219 17.60203125 -133.16308594 18.63964844 C-141.52996209 26.46210457 -146.9795002 36.30031 -151.81933594 46.58496094 C-152.47933594 45.92496094 -153.13933594 45.26496094 -153.81933594 44.58496094 C-153.48962114 41.28781301 -153.19665204 39.96227704 -150.81933594 37.58496094 C-149.71378412 35.63398714 -148.89319267 33.94732054 -148.44433594 31.74511719 C-147.67559861 29.08816878 -146.42875814 27.18569548 -144.88183594 24.89746094 C-144.3571875 24.10984375 -143.83253906 23.32222656 -143.29199219 22.51074219 C-141.81933594 20.58496094 -141.81933594 20.58496094 -139.81933594 19.58496094 C-139.48933594 18.59496094 -139.15933594 17.60496094 -138.81933594 16.58496094 C-138.25988281 16.318125 -137.70042969 16.05128906 -137.12402344 15.77636719 C-133.75454168 14.03451645 -131.50732154 11.25605376 -128.94433594 8.52246094 C-95.59880991 -25.77011212 -37.69548479 -29.31871039 0 0 Z M34.18066406 46.58496094 C35.18066406 48.58496094 35.18066406 48.58496094 35.18066406 48.58496094 Z M35.18066406 49.58496094 C36.18066406 51.58496094 36.18066406 51.58496094 36.18066406 51.58496094 Z M36.18066406 52.58496094 C37.18066406 55.58496094 37.18066406 55.58496094 37.18066406 55.58496094 Z M37.18066406 56.58496094 C38.18066406 59.58496094 38.18066406 59.58496094 38.18066406 59.58496094 Z M38.18066406 60.58496094 C38.18066406 62.23496094 38.18066406 63.88496094 38.18066406 65.58496094 C38.51066406 65.58496094 38.84066406 65.58496094 39.18066406 65.58496094 C39.18066406 63.93496094 39.18066406 62.28496094 39.18066406 60.58496094 C38.85066406 60.58496094 38.52066406 60.58496094 38.18066406 60.58496094 Z M38.18066406 93.58496094 C38.18066406 95.23496094 38.18066406 96.88496094 38.18066406 98.58496094 C38.51066406 98.58496094 38.84066406 98.58496094 39.18066406 98.58496094 C39.18066406 96.93496094 39.18066406 95.28496094 39.18066406 93.58496094 C38.85066406 93.58496094 38.52066406 93.58496094 38.18066406 93.58496094 Z " fill="#FCFEFE" transform="translate(158.8193359375,19.4150390625)"/>
<path d="M0 0 C0.33 0 0.66 0 1 0 C1.01981934 0.55872803 1.03963867 1.11745605 1.06005859 1.69311523 C1.1565219 4.27497418 1.26569812 6.85615392 1.375 9.4375 C1.4059375 10.31599609 1.436875 11.19449219 1.46875 12.09960938 C1.69605764 17.23297355 2.30520005 22.00493781 3.52294922 26.99682617 C4.14826852 29.62259121 4.50764661 32.26481664 4.875 34.9375 C8.06865914 54.09945483 21.02350418 70.22730464 36 82 C55.20840736 95.60997707 79.16503098 98.55823633 102 95 C104.88040554 94.40357011 107.71972743 93.69148748 110.5625 92.9375 C111.28501953 92.75123047 112.00753906 92.56496094 112.75195312 92.37304688 C114.50273047 91.92085935 116.25158525 91.46123825 118 91 C118 90.34 118 89.68 118 89 C118.66 88.7525 119.32 88.505 120 88.25 C139.62899695 80.07125127 154.2883353 65.31716955 163 46 C163.66 46 164.32 46 165 46 C165.33 44.35 165.66 42.7 166 41 C174.44709923 42.17073831 180.27994054 48.95937687 185.6875 55.10546875 C187.18085826 57.26106028 187.90395894 58.36367286 188 61 C186.453125 63.9453125 186.453125 63.9453125 184.25 67.125 C183.53328125 68.17945313 182.8165625 69.23390625 182.078125 70.3203125 C180 73 180 73 177 75 C176.690625 75.66 176.38125 76.32 176.0625 77 C175 79 175 79 173.11328125 79.9375 C170.8770705 81.06180559 169.77599795 82.14374285 168.125 84 C151.26618643 101.18027399 127.02707444 110.88853949 103.14208984 111.29272461 C75.67043317 111.45288037 53.31040638 104.1536959 32.5012207 85.81933594 C29.48153203 83.16780953 26.45120278 81.0410339 23 79 C22.29848848 77.6846659 21.63474075 76.34882408 21 75 C20.154375 74.195625 19.30875 73.39125 18.4375 72.5625 C15.88789526 69.8821463 15.30937021 68.60931917 15 65 C14.01 64.67 13.02 64.34 12 64 C8.19135335 57.99332842 5.60176962 52.07079307 5 45 C4.34 44.01 3.68 43.02 3 42 C2.6278958 40.67696283 2.29369827 39.34262065 2 38 C1.505 36.515 1.505 36.515 1 35 C0.67 35 0.34 35 0 35 C0 23.45 0 11.9 0 0 Z " fill="#735EDC" transform="translate(0,87)"/>
<path d="M0 0 C0.33 0 0.66 0 1 0 C1.01981934 0.55872803 1.03963867 1.11745605 1.06005859 1.69311523 C1.1565219 4.27497418 1.26569812 6.85615392 1.375 9.4375 C1.4059375 10.31599609 1.436875 11.19449219 1.46875 12.09960938 C1.69605764 17.23297355 2.30520005 22.00493781 3.52294922 26.99682617 C4.14826852 29.62259121 4.50764661 32.26481664 4.875 34.9375 C8.06865914 54.09945483 21.02350418 70.22730464 36 82 C52.63398887 93.78589161 71.41870883 96.43695481 91.2109375 96.51171875 C92.91729995 96.52860833 94.62365028 96.54676414 96.32998657 96.56611633 C100.77181203 96.61315874 105.21358837 96.6432616 109.65557861 96.66955566 C114.20798442 96.69959511 118.76022156 96.7460436 123.3125 96.79101562 C132.20824426 96.87652646 141.10402374 96.94410086 150 97 C131.6202005 111.27069782 105.58449103 113.18843212 83.33886719 110.70263672 C64.00745153 107.82883883 47.03342876 98.62323599 32.5012207 85.81933594 C29.48153203 83.16780953 26.45120278 81.0410339 23 79 C22.29848848 77.6846659 21.63474075 76.34882408 21 75 C20.154375 74.195625 19.30875 73.39125 18.4375 72.5625 C15.88789526 69.8821463 15.30937021 68.60931917 15 65 C14.01 64.67 13.02 64.34 12 64 C8.19135335 57.99332842 5.60176962 52.07079307 5 45 C4.34 44.01 3.68 43.02 3 42 C2.6278958 40.67696283 2.29369827 39.34262065 2 38 C1.505 36.515 1.505 36.515 1 35 C0.67 35 0.34 35 0 35 C0 23.45 0 11.9 0 0 Z " fill="#FBFCFE" transform="translate(0,87)"/>
<path d="M0 0 C1.78019614 3.5085419 3.45951808 7.06070778 5.125 10.625 C5.66382813 11.77226562 6.20265625 12.91953125 6.7578125 14.1015625 C8 17 8 17 8 19 C9.98 18.34 11.96 17.68 14 17 C14 18.32 14 19.64 14 21 C17.12197478 19.6910428 17.12197478 19.6910428 19 17 C19.99 17 20.98 17 22 17 C22 17.66 22 18.32 22 19 C21.34 19 20.68 19 20 19 C19.71125 19.5775 19.4225 20.155 19.125 20.75 C18.08333333 22.83333333 17.04166667 24.91666667 16 27 C16.66 27.33 17.32 27.66 18 28 C17.67 28.66 17.34 29.32 17 30 C17.16666667 32.08333333 17.16666667 32.08333333 18 34 C19.485 34.495 19.485 34.495 21 35 C21.33 35.66 21.66 36.32 22 37 C23.485 37.495 23.485 37.495 25 38 C25 38.66 25 39.32 25 40 C26.485 40.495 26.485 40.495 28 41 C28 41.99 28 42.98 28 44 C28.928125 44.268125 29.85625 44.53625 30.8125 44.8125 C33.85433396 45.94573226 34.94094354 46.64679261 37 49 C37.99 49.66 38.98 50.32 40 51 C39.01 51.495 39.01 51.495 38 52 C24.78442376 45.98197803 13.78207507 33.53441099 7 21 C6.44570312 19.98679688 5.89140625 18.97359375 5.3203125 17.9296875 C2.41204866 12.37754745 0.05243985 7.19770132 -1 1 C-0.67 0.67 -0.34 0.34 0 0 Z " fill="#1444C4" transform="translate(5,122)"/>
<path d="M0 0 C-2.63902629 2.63902629 -4.97876859 3.04575635 -8.5625 4.0625 C-9.73941406 4.40410156 -10.91632813 4.74570313 -12.12890625 5.09765625 C-29.70166924 9.19383006 -48.04198594 7.82140781 -65 2 C-61.10939581 0.5950596 -57.76907638 1.30486761 -53.75 1.9375 C-51.85507813 2.22947266 -51.85507813 2.22947266 -49.921875 2.52734375 C-48.95765625 2.68332031 -47.9934375 2.83929688 -47 3 C-47 3.66 -47 4.32 -47 5 C-27.85969616 5.14645166 -27.85969616 5.14645166 -9.41015625 0.85546875 C-6.10746054 -0.31680088 -3.45991068 -0.32185216 0 0 Z " fill="#2744B7" transform="translate(118,177)"/>
<path d="M0 0 C0.33 0 0.66 0 1 0 C1.01981934 0.55872803 1.03963867 1.11745605 1.06005859 1.69311523 C1.1565219 4.27497418 1.26569812 6.85615392 1.375 9.4375 C1.4059375 10.31599609 1.436875 11.19449219 1.46875 12.09960938 C1.69605764 17.23297355 2.30520005 22.00493781 3.52294922 26.99682617 C4.14826852 29.62259121 4.50764661 32.26481664 4.875 34.9375 C5.80207561 40.70597047 7.64119651 45.68347807 10 51 C10.67229753 52.66440327 11.34044665 54.33050558 12 56 C11.34 56 10.68 56 10 56 C9.67 56.66 9.34 57.32 9 58 C6.53332992 53.60289247 5.65594872 49.96646888 5 45 C4.34 44.01 3.68 43.02 3 42 C2.6278958 40.67696283 2.29369827 39.34262065 2 38 C1.505 36.515 1.505 36.515 1 35 C0.67 35 0.34 35 0 35 C0 23.45 0 11.9 0 0 Z " fill="#DEE6F9" transform="translate(0,87)"/>
<path d="M0 0 C0 0.66 0 1.32 0 2 C1.32 2.33 2.64 2.66 4 3 C4 3.66 4 4.32 4 5 C-12 1 -12 1 -13.82214355 0.48278809 C-16.18870973 -0.04183325 -18.3454703 -0.15972659 -20.76855469 -0.20532227 C-21.70922791 -0.22526749 -22.64990112 -0.24521271 -23.61907959 -0.26576233 C-24.62650208 -0.28247482 -25.63392456 -0.29918732 -26.671875 -0.31640625 C-28.22820648 -0.3475779 -28.22820648 -0.3475779 -29.815979 -0.37937927 C-33.12725258 -0.44471408 -36.43860482 -0.50368517 -39.75 -0.5625 C-41.99610185 -0.60570049 -44.24219578 -0.64931527 -46.48828125 -0.69335938 C-51.99210457 -0.80037903 -57.49600598 -0.90217522 -63 -1 C-63 -1.33 -63 -1.66 -63 -2 C-56.27857464 -2.22132188 -49.55673497 -2.41555446 -42.83398438 -2.59204102 C-40.55288466 -2.65499344 -38.27193969 -2.72387075 -35.99121094 -2.79907227 C-11.68600572 -3.59255946 -11.68600572 -3.59255946 0 0 Z " fill="#36A6F2" transform="translate(158,120)"/>
<path d="M0 0 C0.33 0 0.66 0 1 0 C1.04487549 0.8156543 1.08975098 1.63130859 1.13598633 2.47167969 C1.31139651 5.55872421 1.49724273 8.64493174 1.68969727 11.73095703 C1.80940323 13.6990849 1.91755108 15.66790503 2.02539062 17.63671875 C2.67379445 27.85556308 4.06134815 37.66744995 8.5 47 C8.9021875 47.86625 9.304375 48.7325 9.71875 49.625 C10.94562747 52.04389123 10.94562747 52.04389123 12.65625 54.1875 C14 56 14 56 14 58 C10.71155708 56.64755062 9.40454341 55.54507617 7.9375 52.3125 C7.63714844 51.66925781 7.33679687 51.02601562 7.02734375 50.36328125 C6.68832031 49.58339844 6.34929688 48.80351563 6 48 C5.49984375 46.92105469 4.9996875 45.84210938 4.484375 44.73046875 C2.86939978 40.92703731 1.98712072 37.06619442 1.3125 33 C1.18512451 32.24541504 1.05774902 31.49083008 0.92651367 30.71337891 C-0.60089791 20.54087923 -0.267418 10.25513763 0 0 Z " fill="#38A4F3" transform="translate(41,39)"/>
<path d="M0 0 C1.7207976 2.5811964 2.61051002 4.42662463 3.5625 7.3125 C3.81128906 8.05113281 4.06007812 8.78976563 4.31640625 9.55078125 C6.22020658 16.37182586 6.21666072 23.09041199 6.25 30.125 C6.270625 31.18976563 6.29125 32.25453125 6.3125 33.3515625 C6.3494934 40.97220337 5.17483444 47.7029876 3 55 C2.67 55 2.34 55 2 55 C1.95758277 52.66705225 1.95907063 50.33297433 2 48 C2.495 47.505 2.495 47.505 3 47 C3.86534684 41.45809789 4.18242951 36.04038698 4.1875 30.4375 C4.19974609 29.72142578 4.21199219 29.00535156 4.22460938 28.26757812 C4.23761827 23.50198625 3.45627993 19.57841513 2 15 C1.59455859 13.11044283 1.21688666 11.21458374 0.875 9.3125 C0.70742187 8.40113281 0.53984375 7.48976563 0.3671875 6.55078125 C0 4 0 4 0 0 Z " fill="#56B6D5" transform="translate(165,68)"/>
<path d="M0 0 C0 2.87137415 -0.27113266 5.2303041 -1 8 C-3 9 -3 9 -6 9 C-5.67 10.65 -5.34 12.3 -5 14 C-5.99 14.33 -6.98 14.66 -8 15 C-8.66 14.67 -9.32 14.34 -10 14 C-10 14.99 -10 15.98 -10 17 C-10.66 17 -11.32 17 -12 17 C-12.33 18.65 -12.66 20.3 -13 22 C-13.99 22 -14.98 22 -16 22 C-16.33 22.99 -16.66 23.98 -17 25 C-17.66 25 -18.32 25 -19 25 C-15.23990392 14.78627749 -7.77705708 7.35456103 0 0 Z " fill="#2449C1" transform="translate(30,33)"/>
<path d="M0 0 C0.99928333 2.698065 1.03624754 3.88010429 0.1875 6.6875 C-1 9 -1 9 -3 10 C-3.56157237 11.92987258 -3.56157237 11.92987258 -3.8515625 14.25390625 C-3.98046875 15.10791016 -4.109375 15.96191406 -4.2421875 16.84179688 C-4.36851562 17.73962891 -4.49484375 18.63746094 -4.625 19.5625 C-4.7590625 20.46419922 -4.893125 21.36589844 -5.03125 22.29492188 C-5.362209 24.52889514 -5.68473505 26.76376696 -6 29 C-6.66 28.67 -7.32 28.34 -8 28 C-8 26.68 -8 25.36 -8 24 C-8.66 24 -9.32 24 -10 24 C-9.88490339 22.58249437 -9.75746342 21.16598831 -9.625 19.75 C-9.55539062 18.96109375 -9.48578125 18.1721875 -9.4140625 17.359375 C-8.76023818 13.63380999 -7.08690187 11.1303528 -5 8 C-4.34 8 -3.68 8 -3 8 C-2.814375 6.8553125 -2.814375 6.8553125 -2.625 5.6875 C-2 3 -2 3 0 0 Z M-8 15 C-7 18 -7 18 -7 18 Z M-9 19 C-8 23 -8 23 -8 23 Z " fill="#647BCA" transform="translate(10,58)"/>
<path d="M0 0 C1.32 0.33 2.64 0.66 4 1 C4.103125 1.639375 4.20625 2.27875 4.3125 2.9375 C4.539375 3.618125 4.76625 4.29875 5 5 C5.99 5.33 6.98 5.66 8 6 C8.33 6.66 8.66 7.32 9 8 C9.99 8.33 10.98 8.66 12 9 C12 9.66 12 10.32 12 11 C12.99 11.33 13.98 11.66 15 12 C15 12.99 15 13.98 15 15 C15.928125 15.268125 16.85625 15.53625 17.8125 15.8125 C20.85433396 16.94573226 21.94094354 17.64679261 24 20 C24.99 20.66 25.98 21.32 27 22 C26.34 22.33 25.68 22.66 25 23 C17.92602215 19.77869861 12.31161064 14.67829199 6.875 9.25 C6.30676514 8.6832959 5.73853027 8.1165918 5.15307617 7.53271484 C2.74455733 5.05834525 1.10538741 3.31616224 0 0 Z " fill="#304DB1" transform="translate(18,151)"/>
<path d="M0 0 C0.66 1.32 1.32 2.64 2 4 C1.01 4.33 0.02 4.66 -1 5 C-1 5.99 -1 6.98 -1 8 C-4.525596 12.05977722 -8.54044486 15.05501075 -13 18 C-13.66 18 -14.32 18 -15 18 C-15 18.99 -15 19.98 -15 21 C-16.32 21.33 -17.64 21.66 -19 22 C-17.49340661 18.29594443 -15.34813463 16.36466449 -12.3125 13.8125 C-7.52551449 9.62996694 -3.68618143 5.16309518 0 0 Z " fill="#655FE4" transform="translate(155,147)"/>
<path d="M0 0 C3.6717941 0.64522469 6.99294797 1.6883484 10.5 2.9375 C19.75330154 5.87251491 29.36274131 6.32753776 39 7 C37 9 37 9 33.90234375 9.1171875 C26.37698277 8.65751028 19.11533702 7.83634843 11.75 6.1875 C11.03577881 6.03458496 10.32155762 5.88166992 9.58569336 5.72412109 C5.30661533 4.68804209 2.78900921 3.42875617 0 0 Z " fill="#0B4CC2" transform="translate(69,113)"/>
<path d="M0 0 C1.75907011 3.46715268 3.4182055 6.97708893 5.0625 10.5 C5.58972656 11.6240625 6.11695313 12.748125 6.66015625 13.90625 C7.70292714 16.31404751 8.492235 18.44236891 9 21 C9.66 21 10.32 21 11 21 C11.66 22.98 12.32 24.96 13 27 C12.34 27.33 11.68 27.66 11 28 C0.8119834 11.06118599 0.8119834 11.06118599 -1 3 C-0.67 2.01 -0.34 1.02 0 0 Z " fill="#2D4CB2" transform="translate(5,122)"/>
<path d="M0 0 C0.33 0 0.66 0 1 0 C1.01981934 0.55872803 1.03963867 1.11745605 1.06005859 1.69311523 C1.1565219 4.27497418 1.26569812 6.85615392 1.375 9.4375 C1.4059375 10.31599609 1.436875 11.19449219 1.46875 12.09960938 C1.69775272 17.27125418 2.29961504 22.08182938 3.57226562 27.10351562 C4.09743227 29.4319942 4.15337826 31.62263702 4 34 C3.505 32.515 3.505 32.515 3 31 C2.34 31 1.68 31 1 31 C0.67 32.32 0.34 33.64 0 35 C0 23.45 0 11.9 0 0 Z " fill="#869ED5" transform="translate(0,87)"/>
<path d="M0 0 C0.69867188 -0.00902344 1.39734375 -0.01804687 2.1171875 -0.02734375 C7.12724319 0.00224319 7.12724319 0.00224319 9.375 2.25 C8.3080188 2.28758423 8.3080188 2.28758423 7.21948242 2.32592773 C4.00030483 2.44188439 0.78142015 2.56461245 -2.4375 2.6875 C-3.55705078 2.72681641 -4.67660156 2.76613281 -5.83007812 2.80664062 C-7.43979492 2.86948242 -7.43979492 2.86948242 -9.08203125 2.93359375 C-10.5666687 2.98858032 -10.5666687 2.98858032 -12.08129883 3.04467773 C-14.7468351 3.15790331 -14.7468351 3.15790331 -17.625 4.25 C-18.615 3.59 -19.605 2.93 -20.625 2.25 C-13.74059724 0.78967214 -7.02496457 0.03817916 0 0 Z " fill="#6BC2DF" transform="translate(85.625,12.75)"/>
<path d="M0 0 C5.94 0.66 11.88 1.32 18 2 C18 2.66 18 3.32 18 4 C21.3 4.33 24.6 4.66 28 5 C28 5.33 28 5.66 28 6 C18.39626164 6.5762243 9.02303161 4.15394722 0 1 C0 0.67 0 0.34 0 0 Z " fill="#425EBA" transform="translate(53,178)"/>
<path d="M0 0 C4.70270446 2.12741392 8.16393369 4.62060825 12 8 C10 10 10 10 7 11 C4 9 4 9 3.375 7.0625 C3.189375 6.0415625 3.189375 6.0415625 3 5 C2.67 4.01 2.34 3.02 2 2 C1.34 2 0.68 2 0 2 C0 1.34 0 0.68 0 0 Z " fill="#7C69D1" transform="translate(168,128)"/>
<path d="M0 0 C4.78779841 4.53580902 4.78779841 4.53580902 6 7.1875 C6.88466342 9.24593128 6.88466342 9.24593128 9.375 9.9375 C12.67813656 11.27448384 13.96540299 13.13649309 16 16 C14.68 15.67 13.36 15.34 12 15 C12 14.34 12 13.68 12 13 C9.91229447 11.88158632 8.14591199 11.0291824 5.8125 10.5625 C5.214375 10.376875 4.61625 10.19125 4 10 C3.67 9.01 3.34 8.02 3 7 C2.484375 6.525625 1.96875 6.05125 1.4375 5.5625 C0 4 0 4 0 0 Z " fill="#0B54C5" transform="translate(52,97)"/>
<path d="M0 0 C-0.33 3.96 -0.66 7.92 -1 12 C-1.33 10.68 -1.66 9.36 -2 8 C-2.99 8 -3.98 8 -5 8 C-4.67 7.01 -4.34 6.02 -4 5 C-4.66 4.67 -5.32 4.34 -6 4 C-6 4.66 -6 5.32 -6 6 C-7.32 5.67 -8.64 5.34 -10 5 C-8.90241493 4.15801693 -7.79664683 3.32669329 -6.6875 2.5 C-6.07261719 2.0359375 -5.45773438 1.571875 -4.82421875 1.09375 C-3 0 -3 0 0 0 Z " fill="#224EBC" transform="translate(41,27)"/>
<path d="M0 0 C3.46089107 3.13091697 5.58515258 6.41105905 7.8125 10.5 C8.43769531 11.6240625 9.06289062 12.748125 9.70703125 13.90625 C11 17 11 17 10.69921875 19.40625 C10.35310547 20.19515625 10.35310547 20.19515625 10 21 C7.91146386 17.47109411 5.96391159 14.05790975 4.4375 10.25 C3.25791831 7.05505539 3.25791831 7.05505539 1.3125 5.3125 C0.879375 4.879375 0.44625 4.44625 0 4 C0 2.68 0 1.36 0 0 Z " fill="#52B5DD" transform="translate(154,47)"/>
<path d="M0 0 C3.52270508 6.61581199 3.13245439 13.68557421 3 21 C0.36253137 18.42483378 -0.21887499 16.45668604 -0.29296875 12.890625 C-0.27313353 11.34347769 -0.2375101 9.79646604 -0.1875 8.25 C-0.17396484 7.45722656 -0.16042969 6.66445312 -0.14648438 5.84765625 C-0.11125223 3.89814436 -0.05744821 1.94898374 0 0 Z " fill="#0E50C3" transform="translate(40,58)"/>
<path d="M0 0 C-0.556875 0.226875 -1.11375 0.45375 -1.6875 0.6875 C-4.62903619 2.35702054 -6.6486362 4.58675821 -9 7 C-9.99 7.495 -9.99 7.495 -11 8 C-11 7.01 -11 6.02 -11 5 C-12.98 5 -14.96 5 -17 5 C-14.71636622 2.71636622 -13.25204532 2.2847151 -10.1875 1.375 C-9.33542969 1.11460938 -8.48335937 0.85421875 -7.60546875 0.5859375 C-4.98020834 -0.0044509 -2.68079363 -0.10588413 0 0 Z " fill="#45B3E0" transform="translate(68,16)"/>
<path d="M0 0 C0.96846689 2.61486062 1.04559628 3.8442127 0.25 6.5625 C-0.96474869 8.93125995 -2.1476876 10.1476876 -4 12 C-5.19027984 14.59915538 -5.19027984 14.59915538 -6 17 C-6.66 16.34 -7.32 15.68 -8 15 C-7.61121812 11.98694043 -6.73543126 10.60314689 -5 8 C-4.34 8 -3.68 8 -3 8 C-2.814375 6.8553125 -2.814375 6.8553125 -2.625 5.6875 C-2 3 -2 3 0 0 Z " fill="#6D84D0" transform="translate(10,58)"/>
<path d="M0 0 C4.03321763 1.21934486 7.54269479 2.55954927 11 5 C11 5.66 11 6.32 11 7 C11.639375 7.28875 12.27875 7.5775 12.9375 7.875 C15 9 15 9 16 11 C13.03 10.505 13.03 10.505 10 10 C10 8.68 10 7.36 10 6 C8.35 5.67 6.7 5.34 5 5 C5 4.34 5 3.68 5 3 C3.35 2.67 1.7 2.34 0 2 C0 1.34 0 0.68 0 0 Z " fill="#4FB8D8" transform="translate(126,24)"/>
<path d="M0 0 C3.2428329 3.72925783 5.5119901 8.30238735 7 13 C6.67 13.99 6.34 14.98 6 16 C1.8685941 12.27363389 0.15622042 7.49952678 -0.1875 2 C-0.125625 1.34 -0.06375 0.68 0 0 Z " fill="#0B53C4" transform="translate(44,80)"/>
<path d="M0 0 C4.9723422 1.49170266 9.41845739 3.60457417 14 6 C14 6.66 14 7.32 14 8 C8.9424153 7.52585143 4.98999203 4.99249402 1 2 C0.67 1.34 0.34 0.68 0 0 Z " fill="#38A3F1" transform="translate(63,107)"/>
<path d="M0 0 C1.32 0.33 2.64 0.66 4 1 C2.02 4.96 0.04 8.92 -2 13 C-2.66 12.34 -3.32 11.68 -4 11 C-3.67028521 7.70285207 -3.3773161 6.3773161 -1 4 C-0.3574765 1.93125966 -0.3574765 1.93125966 0 0 Z " fill="#E7EEFD" transform="translate(9,53)"/>
<path d="M0 0 C1.05095823 3.27524652 0.98295862 4.05396438 -0.125 7.5625 C-2.08724364 11.15994668 -3.34216283 12.31937211 -7 14 C-4.66666667 9.33333333 -2.33333333 4.66666667 0 0 Z " fill="#575ADD" transform="translate(163,133)"/>
<path d="M0 0 C0 2.87137415 -0.27113266 5.2303041 -1 8 C-4.05491313 9.52745657 -6.58012972 10 -10 10 C-6.7 6.7 -3.4 3.4 0 0 Z " fill="#3453BD" transform="translate(30,33)"/>
<path d="M0 0 C4.9178515 1.13488881 7.67236826 2.19699229 11 6 C11.99 6.66 12.98 7.32 14 8 C13.01 8.495 13.01 8.495 12 9 C9.43359375 7.63671875 9.43359375 7.63671875 6.4375 5.6875 C4.95056641 4.73423828 4.95056641 4.73423828 3.43359375 3.76171875 C1 2 1 2 0 0 Z " fill="#3C5AB4" transform="translate(31,165)"/>
<path d="M0 0 C8.58 0 17.16 0 26 0 C26 0.33 26 0.66 26 1 C17.42 1 8.84 1 0 1 C0 0.67 0 0.34 0 0 Z " fill="#FFFFFF" transform="translate(86,199)"/>
<path d="M0 0 C0.33 0 0.66 0 1 0 C1 8.58 1 17.16 1 26 C0.67 26 0.34 26 0 26 C0 17.42 0 8.84 0 0 Z " fill="#FFFFFF" transform="translate(199,86)"/>
<path d="M0 0 C5.92056432 1.26869235 10.66068812 3.13965435 16 6 C11.94087374 7.35304209 10.22850409 6.15216503 6.3125 4.5625 C5.13300781 4.08941406 3.95351562 3.61632812 2.73828125 3.12890625 C1.83464844 2.75636719 0.93101563 2.38382813 0 2 C0 1.34 0 0.68 0 0 Z " fill="#4BB3D5" transform="translate(110,17)"/>
<path d="M0 0 C0 1.32 0 2.64 0 4 C-3.3 4.33 -6.6 4.66 -10 5 C-3.33333333 0 -3.33333333 0 0 0 Z " fill="#52B3D9" transform="translate(51,21)"/>
<path d="M0 0 C0.99 0.33 1.98 0.66 3 1 C0.03 4.96 0.03 4.96 -3 9 C-3.33 8.01 -3.66 7.02 -4 6 C-2.0625 2.8125 -2.0625 2.8125 0 0 Z " fill="#233FC7" transform="translate(155,143)"/>
<path d="M0 0 C0.33 0 0.66 0 1 0 C1 2.31 1 4.62 1 7 C0.01 7 -0.98 7 -2 7 C-2.33 7.99 -2.66 8.98 -3 10 C-3.66 10 -4.32 10 -5 10 C-3.66654496 6.40992874 -2.1056769 3.20429093 0 0 Z " fill="#334EB8" transform="translate(16,48)"/>
<path d="M0 0 C0.99 0.33 1.98 0.66 3 1 C3.1875 3.875 3.1875 3.875 3 7 C2.01 7.66 1.02 8.32 0 9 C0 6.03 0 3.06 0 0 Z " fill="#38B0EF" transform="translate(42,26)"/>
<path d="M0 0 C1.32 0 2.64 0 4 0 C4.33 1.98 4.66 3.96 5 6 C3.0625 5.25 3.0625 5.25 1 4 C0.25 1.875 0.25 1.875 0 0 Z " fill="#39AEF4" transform="translate(56,99)"/>
<path d="M0 0 C2.31 1.98 4.62 3.96 7 6 C3 7 3 7 1 6 C0.375 2.9375 0.375 2.9375 0 0 Z " fill="#38B0DA" transform="translate(142,35)"/>
<path d="M0 0 C-1.39332574 3.36720387 -2.9789286 4.9859524 -6 7 C-6 5.68 -6 4.36 -6 3 C-2.78571429 0 -2.78571429 0 0 0 Z " fill="#2940C7" transform="translate(148,155)"/>
<path d="M0 0 C3.08089673 2.77280706 4.68775452 5.06326356 6 9 C3.5625 7.875 3.5625 7.875 1 6 C0.1875 2.8125 0.1875 2.8125 0 0 Z " fill="#61BEDF" transform="translate(154,47)"/>
<path d="M0 0 C0.33 0.66 0.66 1.32 1 2 C1.66 2 2.32 2 3 2 C3.66 3.98 4.32 5.96 5 8 C4.01 8.495 4.01 8.495 3 9 C0.70620251 5.55930376 0 4.27709699 0 0 Z " fill="#3552BB" transform="translate(13,141)"/>
<path d="M0 0 C0.66 0.33 1.32 0.66 2 1 C-0.31 3.31 -2.62 5.62 -5 8 C-5 5 -5 5 -2.5 2.3125 C-1.675 1.549375 -0.85 0.78625 0 0 Z " fill="#FFFFFF" transform="translate(30,25)"/>
<path d="M0 0 C1.98 0 3.96 0 6 0 C6 0.33 6 0.66 6 1 C4.02 1 2.04 1 0 1 C0 0.67 0 0.34 0 0 Z " fill="#FFFFFF" transform="translate(112,198)"/>
<path d="M0 0 C1.98 0 3.96 0 6 0 C6 0.33 6 0.66 6 1 C4.02 1 2.04 1 0 1 C0 0.67 0 0.34 0 0 Z " fill="#FFFFFF" transform="translate(80,198)"/>
<path d="M0 0 C1.65 0 3.3 0 5 0 C5 0.33 5 0.66 5 1 C3.35 1 1.7 1 0 1 C0 0.67 0 0.34 0 0 Z " fill="#FFFFFF" transform="translate(118,197)"/>
<path d="M0 0 C1.65 0 3.3 0 5 0 C5 0.33 5 0.66 5 1 C3.35 1 1.7 1 0 1 C0 0.67 0 0.34 0 0 Z " fill="#FFFFFF" transform="translate(75,197)"/>
<path d="M0 0 C1.65 0 3.3 0 5 0 C5 0.33 5 0.66 5 1 C3.35 1 1.7 1 0 1 C0 0.67 0 0.34 0 0 Z " fill="#FFFFFF" transform="translate(117,0)"/>
<path d="M0 0 C1.65 0 3.3 0 5 0 C5 0.33 5 0.66 5 1 C3.35 1 1.7 1 0 1 C0 0.67 0 0.34 0 0 Z " fill="#FFFFFF" transform="translate(76,0)"/>
<path d="M0 0 C4 1 4 1 4 1 Z " fill="#FFFFFF" transform="translate(123,196)"/>
<path d="M0 0 C4 1 4 1 4 1 Z " fill="#FFFFFF" transform="translate(68,195)"/>
<path d="M0 0 C4 1 4 1 4 1 Z " fill="#FFFFFF" transform="translate(69,2)"/>
<path d="M0 0 C4 1 4 1 4 1 Z " fill="#FFFFFF" transform="translate(122,1)"/>
<path d="M0 0 C3 1 3 1 3 1 Z " fill="#FFFFFF" transform="translate(72,196)"/>
<path d="M0 0 C3 1 3 1 3 1 Z " fill="#FFFFFF" transform="translate(127,195)"/>
<path d="M0 0 C3 1 3 1 3 1 Z " fill="#FFFFFF" transform="translate(130,194)"/>
<path d="M0 0 C3 1 3 1 3 1 Z " fill="#FFFFFF" transform="translate(65,194)"/>
<path d="M0 0 C3 1 3 1 3 1 Z " fill="#FFFFFF" transform="translate(135,192)"/>
<path d="M0 0 C3 1 3 1 3 1 Z " fill="#FFFFFF" transform="translate(60,192)"/>
<path d="" fill="#FFFFFF" transform="translate(0,0)"/>
<path d="" fill="#FFFFFF" transform="translate(0,0)"/>
<path d="" fill="#FFFFFF" transform="translate(0,0)"/>
<path d="" fill="#FFFFFF" transform="translate(0,0)"/>
<path d="" fill="#FFFFFF" transform="translate(0,0)"/>
<path d="" fill="#FFFFFF" transform="translate(0,0)"/>
<path d="M0 0 C3 1 3 1 3 1 Z " fill="#FFFFFF" transform="translate(137,6)"/>
<path d="M0 0 C3 1 3 1 3 1 Z " fill="#FFFFFF" transform="translate(132,4)"/>
<path d="M0 0 C3 1 3 1 3 1 Z " fill="#FFFFFF" transform="translate(63,4)"/>
<path d="M0 0 C3 1 3 1 3 1 Z " fill="#FFFFFF" transform="translate(129,3)"/>
<path d="M0 0 C3 1 3 1 3 1 Z " fill="#FFFFFF" transform="translate(66,3)"/>
<path d="M0 0 C3 1 3 1 3 1 Z " fill="#FFFFFF" transform="translate(126,2)"/>
<path d="M0 0 C3 1 3 1 3 1 Z " fill="#FFFFFF" transform="translate(73,1)"/>
<path d="M0 0 C2 1 2 1 2 1 Z " fill="#FFFFFF" transform="translate(133,193)"/>
<path d="M0 0 C2 1 2 1 2 1 Z " fill="#FFFFFF" transform="translate(63,193)"/>
<path d="M0 0 C2 1 2 1 2 1 Z " fill="#FFFFFF" transform="translate(138,191)"/>
<path d="M0 0 C2 1 2 1 2 1 Z " fill="#FFFFFF" transform="translate(58,191)"/>
<path d="M0 0 C2 1 2 1 2 1 Z " fill="#FFFFFF" transform="translate(140,190)"/>
<path d="M0 0 C2 1 2 1 2 1 Z " fill="#FFFFFF" transform="translate(56,190)"/>
<path d="M0 0 C2 1 2 1 2 1 Z " fill="#FFFFFF" transform="translate(142,189)"/>
<path d="M0 0 C2 1 2 1 2 1 Z " fill="#FFFFFF" transform="translate(54,189)"/>
<path d="M0 0 C2 1 2 1 2 1 Z " fill="#FFFFFF" transform="translate(144,188)"/>
<path d="M0 0 C2 1 2 1 2 1 Z " fill="#FFFFFF" transform="translate(52,188)"/>
<path d="M0 0 C2 1 2 1 2 1 Z " fill="#FFFFFF" transform="translate(146,187)"/>
<path d="M0 0 C2 1 2 1 2 1 Z " fill="#FFFFFF" transform="translate(50,187)"/>
<path d="M0 0 C2 1 2 1 2 1 Z " fill="#FFFFFF" transform="translate(148,186)"/>
<path d="M0 0 C2 1 2 1 2 1 Z " fill="#FFFFFF" transform="translate(47,185)"/>
<path d="M0 0 C2 1 2 1 2 1 Z " fill="#E5DDFF" transform="translate(151,184)"/>
<path d="M0 0 C2 1 2 1 2 1 Z " fill="#FFFFFF" transform="translate(45,184)"/>
<path d="M0 0 C2 1 2 1 2 1 Z " fill="#735FCE" transform="translate(154,182)"/>
<path d="M0 0 C2 1 2 1 2 1 Z " fill="#FFFFFF" transform="translate(42,182)"/>
<path d="M0 0 C2 1 2 1 2 1 Z " fill="#755EE0" transform="translate(157,180)"/>
<path d="M0 0 C2 1 2 1 2 1 Z " fill="#FFFFFF" transform="translate(38,179)"/>
<path d="M0 0 C2 1 2 1 2 1 Z " fill="#745EDB" transform="translate(162,176)"/>
<path d="M0 0 C2 1 2 1 2 1 Z " fill="#FFFFFF" transform="translate(32,174)"/>
<path d="" fill="#FFFFFF" transform="translate(0,0)"/>
<path d="" fill="#FFFFFF" transform="translate(0,0)"/>
<path d="" fill="#FFFFFF" transform="translate(0,0)"/>
<path d="" fill="#FFFFFF" transform="translate(0,0)"/>
<path d="" fill="#FFFFFF" transform="translate(0,0)"/>
<path d="" fill="#FFFFFF" transform="translate(0,0)"/>
<path d="" fill="#FFFFFF" transform="translate(0,0)"/>
<path d="" fill="#FFFFFF" transform="translate(0,0)"/>
<path d="M0 0 C2 1 2 1 2 1 Z " fill="#FFFFFF" transform="translate(164,23)"/>
<path d="M0 0 C2 1 2 1 2 1 Z " fill="#FFFFFF" transform="translate(37,19)"/>
<path d="M0 0 C2 1 2 1 2 1 Z " fill="#FFFFFF" transform="translate(158,18)"/>
<path d="M0 0 C2 1 2 1 2 1 Z " fill="#FFFFFF" transform="translate(155,16)"/>
<path d="M0 0 C2 1 2 1 2 1 Z " fill="#FFFFFF" transform="translate(41,16)"/>
<path d="M0 0 C2 1 2 1 2 1 Z " fill="#FFFFFF" transform="translate(152,14)"/>
<path d="M0 0 C2 1 2 1 2 1 Z " fill="#FFFFFF" transform="translate(44,14)"/>
<path d="M0 0 C2 1 2 1 2 1 Z " fill="#FFFFFF" transform="translate(149,12)"/>
<path d="M0 0 C2 1 2 1 2 1 Z " fill="#FFFFFF" transform="translate(47,12)"/>
<path d="M0 0 C2 1 2 1 2 1 Z " fill="#FFFFFF" transform="translate(147,11)"/>
<path d="M0 0 C2 1 2 1 2 1 Z " fill="#FFFFFF" transform="translate(49,11)"/>
<path d="M0 0 C2 1 2 1 2 1 Z " fill="#FFFFFF" transform="translate(51,10)"/>
<path d="M0 0 C2 1 2 1 2 1 Z " fill="#FFFFFF" transform="translate(144,9)"/>
<path d="M0 0 C2 1 2 1 2 1 Z " fill="#FFFFFF" transform="translate(53,9)"/>
<path d="M0 0 C2 1 2 1 2 1 Z " fill="#FFFFFF" transform="translate(142,8)"/>
<path d="M0 0 C2 1 2 1 2 1 Z " fill="#FFFFFF" transform="translate(55,8)"/>
<path d="M0 0 C2 1 2 1 2 1 Z " fill="#FFFFFF" transform="translate(140,7)"/>
<path d="M0 0 C2 1 2 1 2 1 Z " fill="#FFFFFF" transform="translate(57,7)"/>
<path d="M0 0 C2 1 2 1 2 1 Z " fill="#FFFFFF" transform="translate(59,6)"/>
<path d="M0 0 C2 1 2 1 2 1 Z " fill="#FFFFFF" transform="translate(135,5)"/>
<path d="M0 0 C2 1 2 1 2 1 Z " fill="#FFFFFF" transform="translate(61,5)"/>
<path d="" fill="#FFFFFF" transform="translate(0,0)"/>
<path d="" fill="#FFFFFF" transform="translate(0,0)"/>
<path d="" fill="#7365B4" transform="translate(0,0)"/>
<path d="" fill="#FFFFFF" transform="translate(0,0)"/>
<path d="" fill="#745EDD" transform="translate(0,0)"/>
<path d="" fill="#FFFFFF" transform="translate(0,0)"/>
<path d="" fill="#FFFFFF" transform="translate(0,0)"/>
<path d="" fill="#745DDF" transform="translate(0,0)"/>
<path d="" fill="#745EDA" transform="translate(0,0)"/>
<path d="" fill="#FFFFFF" transform="translate(0,0)"/>
<path d="" fill="#745FD8" transform="translate(0,0)"/>
<path d="" fill="#FFFFFF" transform="translate(0,0)"/>
<path d="" fill="#FFFFFF" transform="translate(0,0)"/>
<path d="" fill="#745EDD" transform="translate(0,0)"/>
<path d="" fill="#FFFFFF" transform="translate(0,0)"/>
<path d="" fill="#745DDF" transform="translate(0,0)"/>
<path d="" fill="#745DE1" transform="translate(0,0)"/>
<path d="" fill="#FFFFFF" transform="translate(0,0)"/>
<path d="" fill="#745DE1" transform="translate(0,0)"/>
<path d="" fill="#FFFFFF" transform="translate(0,0)"/>
<path d="" fill="#745DE1" transform="translate(0,0)"/>
<path d="" fill="#FFFFFF" transform="translate(0,0)"/>
<path d="" fill="#745DDF" transform="translate(0,0)"/>
<path d="" fill="#FFFFFF" transform="translate(0,0)"/>
<path d="" fill="#745DDF" transform="translate(0,0)"/>
<path d="" fill="#FFFFFF" transform="translate(0,0)"/>
<path d="" fill="#745DDF" transform="translate(0,0)"/>
<path d="" fill="#FFFFFF" transform="translate(0,0)"/>
<path d="" fill="#745DDF" transform="translate(0,0)"/>
<path d="" fill="#745DDF" transform="translate(0,0)"/>
<path d="" fill="#FFFFFF" transform="translate(0,0)"/>
<path d="" fill="#745DDF" transform="translate(0,0)"/>
<path d="" fill="#FFFFFF" transform="translate(0,0)"/>
<path d="" fill="#FFFFFF" transform="translate(0,0)"/>
<path d="" fill="#FFFFFF" transform="translate(0,0)"/>
<path d="" fill="#FFFFFF" transform="translate(0,0)"/>
<path d="" fill="#FFFFFF" transform="translate(0,0)"/>
<path d="" fill="#FFFFFF" transform="translate(0,0)"/>
<path d="" fill="#FFFFFF" transform="translate(0,0)"/>
<path d="" fill="#FFFFFF" transform="translate(0,0)"/>
<path d="" fill="#FFFFFF" transform="translate(0,0)"/>
<path d="" fill="#FFFFFF" transform="translate(0,0)"/>
<path d="" fill="#FFFFFF" transform="translate(0,0)"/>
<path d="" fill="#FFFFFF" transform="translate(0,0)"/>
<path d="" fill="#FFFFFF" transform="translate(0,0)"/>
<path d="" fill="#FFFFFF" transform="translate(0,0)"/>
<path d="" fill="#FFFFFF" transform="translate(0,0)"/>
<path d="" fill="#FFFFFF" transform="translate(0,0)"/>
<path d="" fill="#FFFFFF" transform="translate(0,0)"/>
<path d="" fill="#FFFFFF" transform="translate(0,0)"/>
<path d="" fill="#FFFFFF" transform="translate(0,0)"/>
<path d="" fill="#FFFFFF" transform="translate(0,0)"/>
<path d="" fill="#FFFFFF" transform="translate(0,0)"/>
<path d="" fill="#FFFFFF" transform="translate(0,0)"/>
<path d="" fill="#FFFFFF" transform="translate(0,0)"/>
<path d="" fill="#FFFFFF" transform="translate(0,0)"/>
<path d="" fill="#FFFFFF" transform="translate(0,0)"/>
<path d="" fill="#FFFFFF" transform="translate(0,0)"/>
<path d="" fill="#FFFFFF" transform="translate(0,0)"/>
<path d="" fill="#FFFFFF" transform="translate(0,0)"/>
<path d="" fill="#FFFFFF" transform="translate(0,0)"/>
<path d="" fill="#FFFFFF" transform="translate(0,0)"/>
<path d="" fill="#FFFFFF" transform="translate(0,0)"/>
<path d="" fill="#FFFFFF" transform="translate(0,0)"/>
</svg>
