<?xml version="1.0" encoding="UTF-8"?>
<svg version="1.1" xmlns="http://www.w3.org/2000/svg" width="200" height="200">
<path d="M0 0 C2.82045877 2.30263418 5.56336058 4.67903285 8.27832031 7.10449219 C11.1535235 9.666713 11.1535235 9.666713 14.50878906 11.77246094 C17.18066406 13.58496094 17.18066406 13.58496094 17.86816406 15.77246094 C18.02285156 16.66964844 18.02285156 16.66964844 18.18066406 17.58496094 C19.17066406 17.91496094 20.16066406 18.24496094 21.18066406 18.58496094 C21.51066406 19.57496094 21.84066406 20.56496094 22.18066406 21.58496094 C22.78394531 22.1740625 23.38722656 22.76316406 24.00878906 23.37011719 C26.61161449 26.02443736 28.16331475 28.75588582 29.93066406 32.02246094 C30.85105469 33.69115234 30.85105469 33.69115234 31.79003906 35.39355469 C33.13514811 38.48050439 33.50200878 40.27881822 33.18066406 43.58496094 C33.84066406 43.58496094 34.50066406 43.58496094 35.18066406 43.58496094 C39.64424539 56.0781479 40.85665551 67.12735329 40.55566406 80.33496094 C40.53909422 82.04587815 40.52476266 83.75681854 40.51269531 85.46777344 C40.3702832 98.68935945 40.3702832 98.68935945 39.18066406 103.58496094 C38.52066406 103.58496094 37.86066406 103.58496094 37.18066406 103.58496094 C37.18066406 105.89496094 37.18066406 108.20496094 37.18066406 110.58496094 C36.52066406 110.58496094 35.86066406 110.58496094 35.18066406 110.58496094 C34.52066406 113.88496094 33.86066406 117.18496094 33.18066406 120.58496094 C32.52066406 120.58496094 31.86066406 120.58496094 31.18066406 120.58496094 C31.10589844 121.42542969 31.03113281 122.26589844 30.95410156 123.13183594 C30.00301116 127.37811833 28.20111083 130.25695184 25.80566406 133.83496094 C25.40605469 134.45886719 25.00644531 135.08277344 24.59472656 135.72558594 C22.64505024 138.70140769 21.175244 140.58857431 18.18066406 142.58496094 C17.87128906 143.24496094 17.56191406 143.90496094 17.24316406 144.58496094 C16.18066406 146.58496094 16.18066406 146.58496094 14.29394531 147.52246094 C12.05773456 148.64676653 10.95666201 149.72870379 9.30566406 151.58496094 C-7.5531495 168.76523493 -31.7922615 178.47350042 -55.67724609 178.87768555 C-83.14890277 179.03784131 -105.50892955 171.73865683 -126.31811523 153.40429688 C-129.3378039 150.75277047 -132.36813316 148.62599484 -135.81933594 146.58496094 C-136.52084746 145.26962683 -137.18459519 143.93378502 -137.81933594 142.58496094 C-139.08777344 141.37839844 -139.08777344 141.37839844 -140.38183594 140.14746094 C-142.93144067 137.46710724 -143.50996572 136.19428011 -143.81933594 132.58496094 C-144.80933594 132.25496094 -145.79933594 131.92496094 -146.81933594 131.58496094 C-150.62798259 125.57828936 -153.21756631 119.65575401 -153.81933594 112.58496094 C-154.47933594 111.59496094 -155.13933594 110.60496094 -155.81933594 109.58496094 C-156.19144014 108.26192377 -156.52563767 106.92758159 -156.81933594 105.58496094 C-157.14933594 104.59496094 -157.47933594 103.60496094 -157.81933594 102.58496094 C-158.14933594 102.58496094 -158.47933594 102.58496094 -158.81933594 102.58496094 C-158.87027326 96.32278946 -158.90516878 90.06067193 -158.92919922 83.79833984 C-158.93922299 81.67038984 -158.95284555 79.5424535 -158.97021484 77.41455078 C-158.99462286 74.34631976 -159.00585555 71.27827173 -159.01464844 68.20996094 C-159.02497101 67.26693115 -159.03529358 66.32390137 -159.04592896 65.35229492 C-159.04686971 59.74541582 -158.41278806 54.96630789 -156.81933594 49.58496094 C-156.15933594 49.58496094 -155.49933594 49.58496094 -154.81933594 49.58496094 C-154.69816406 48.88628906 -154.57699219 48.18761719 -154.45214844 47.46777344 C-154.28457031 46.55769531 -154.11699219 45.64761719 -153.94433594 44.70996094 C-153.78191406 43.80503906 -153.61949219 42.90011719 -153.45214844 41.96777344 C-152.81933594 39.58496094 -152.81933594 39.58496094 -150.81933594 37.58496094 C-149.71378412 35.63398714 -148.89319267 33.94732054 -148.44433594 31.74511719 C-147.67559861 29.08816878 -146.42875814 27.18569548 -144.88183594 24.89746094 C-144.3571875 24.10984375 -143.83253906 23.32222656 -143.29199219 22.51074219 C-141.81933594 20.58496094 -141.81933594 20.58496094 -139.81933594 19.58496094 C-139.48933594 18.59496094 -139.15933594 17.60496094 -138.81933594 16.58496094 C-138.25988281 16.318125 -137.70042969 16.05128906 -137.12402344 15.77636719 C-133.75454168 14.03451645 -131.50732154 11.25605376 -128.94433594 8.52246094 C-95.59880991 -25.77011212 -37.69548479 -29.31871039 0 0 Z M34.18066406 46.58496094 C35.18066406 48.58496094 35.18066406 48.58496094 35.18066406 48.58496094 Z M35.18066406 49.58496094 C36.18066406 51.58496094 36.18066406 51.58496094 36.18066406 51.58496094 Z M36.18066406 52.58496094 C37.18066406 55.58496094 37.18066406 55.58496094 37.18066406 55.58496094 Z M-156.81933594 53.58496094 C-155.81933594 56.58496094 -155.81933594 56.58496094 -155.81933594 56.58496094 Z M37.18066406 56.58496094 C38.18066406 59.58496094 38.18066406 59.58496094 38.18066406 59.58496094 Z M-157.81933594 57.58496094 C-156.81933594 61.58496094 -156.81933594 61.58496094 -156.81933594 61.58496094 Z M38.18066406 60.58496094 C38.18066406 62.23496094 38.18066406 63.88496094 38.18066406 65.58496094 C38.51066406 65.58496094 38.84066406 65.58496094 39.18066406 65.58496094 C39.18066406 63.93496094 39.18066406 62.28496094 39.18066406 60.58496094 C38.85066406 60.58496094 38.52066406 60.58496094 38.18066406 60.58496094 Z M38.18066406 93.58496094 C38.18066406 95.23496094 38.18066406 96.88496094 38.18066406 98.58496094 C38.51066406 98.58496094 38.84066406 98.58496094 39.18066406 98.58496094 C39.18066406 96.93496094 39.18066406 95.28496094 39.18066406 93.58496094 C38.85066406 93.58496094 38.52066406 93.58496094 38.18066406 93.58496094 Z " fill="#0D4EA0" transform="translate(158.8193359375,19.4150390625)"/>
<path d="M0 0 C0.66 0 1.32 0 2 0 C4.0631792 3.57451549 6.12615964 7.14914562 8.18896484 10.72387695 C8.88910701 11.93712377 9.58930122 13.15034056 10.28955078 14.36352539 C16.88662919 25.79312842 16.88662919 25.79312842 19.1171875 29.71875 C21.66022378 34.15059745 24.2689015 38.54252303 26.875 42.9375 C32.42822814 52.31648106 37.93477596 61.72196932 43.41748047 71.14233398 C43.97322754 72.09696533 44.52897461 73.05159668 45.1015625 74.03515625 C45.58963379 74.8744165 46.07770508 75.71367676 46.58056641 76.57836914 C47.5904839 78.30134328 48.64020613 80.00124997 49.71606445 81.68383789 C51 84 51 84 50.44140625 86.0234375 C48.73163091 88.36800747 46.90707163 90.49216582 44.9375 92.625 C44.133125 93.50414062 43.32875 94.38328125 42.5 95.2890625 C41.675 96.18367188 40.85 97.07828125 40 98 C38.47562238 99.66342558 36.95470061 101.33002572 35.4375 103 C34.674375 103.81210938 33.91125 104.62421875 33.125 105.4609375 C30.91224834 107.92342968 30.91224834 107.92342968 29.5 110.8515625 C27.56584099 114.28469474 26.39671472 115.91772278 23 118 C15.09315378 119.26074011 6.94786058 118.6074917 -1 118 C0.64388508 114.53256529 2.57215868 112.07690937 5.1875 109.25 C5.99574219 108.36828125 6.80398437 107.4865625 7.63671875 106.578125 C8.80654297 105.30195313 8.80654297 105.30195313 10 104 C11.73285315 102.03437553 13.45080822 100.05692851 15.1640625 98.07421875 C16.54814934 96.51049511 17.96560108 94.97621123 19.3984375 93.45703125 C20.21570313 92.58433594 21.03296875 91.71164063 21.875 90.8125 C22.63554688 90.01457031 23.39609375 89.21664062 24.1796875 88.39453125 C26.2220946 85.70784551 26.72866381 84.33989631 27 81 C25.99532599 78.32695868 25.99532599 78.32695868 24.30859375 75.66796875 C23.70015625 74.63365723 23.09171875 73.5993457 22.46484375 72.53369141 C21.79582031 71.42944824 21.12679687 70.32520508 20.4375 69.1875 C19.75117072 68.03128589 19.06629331 66.87420882 18.3828125 65.71630859 C16.96897916 63.3250759 15.54775684 60.93848267 14.12060547 58.55517578 C10.86349446 53.10785844 7.68814345 47.61284532 4.5 42.125 C3.4068953 40.25222737 2.31316645 38.37981887 1.21875 36.5078125 C0.44337891 35.16831543 0.44337891 35.16831543 -0.34765625 33.80175781 C-1.53474726 31.78889487 -2.75500902 29.79545772 -3.99609375 27.81542969 C-4.64707031 26.76000977 -5.29804687 25.70458984 -5.96875 24.6171875 C-6.57138672 23.66183105 -7.17402344 22.70647461 -7.79492188 21.72216797 C-9.20095123 18.54606844 -9.08101451 17.24816358 -8 14 C-7.08404672 12.09332175 -6.10074281 10.21794445 -5.0625 8.375 C-4.53785156 7.43398438 -4.01320313 6.49296875 -3.47265625 5.5234375 C-2.37647718 3.64510413 -1.20636068 1.80954102 0 0 Z " fill="#FAFBFD" transform="translate(99,38)"/>
<path d="M0 0 C4.11342609 1.37114203 5.20560479 4.10615768 7.25 7.6875 C7.62640625 8.30044922 8.0028125 8.91339844 8.390625 9.54492188 C10.06501942 12.44741073 10.99896565 14.60591194 11.0078125 17.9765625 C9.69767777 21.90696669 7.80038942 25.17686587 5.625 28.6875 C4.72493432 30.1860021 3.82520821 31.6847082 2.92578125 33.18359375 C1.43280343 35.64581339 -0.06435509 38.10539778 -1.56494141 40.56298828 C-3.11874719 43.117762 -4.6538715 45.68307747 -6.1875 48.25 C-6.6810498 49.04752686 -7.17459961 49.84505371 -7.68310547 50.66674805 C-10.23150922 54.89761863 -10.23150922 54.89761863 -11.1484375 59.66015625 C-9.48979508 63.03949914 -7.05713217 65.54170421 -4.4375 68.1875 C1 73.75975836 1 73.75975836 1 76 C6.94 76 12.88 76 19 76 C15.26299372 83.47401255 8.85197338 91.86282125 1.046875 95.30078125 C-2.21944581 95.61341481 -4.0032602 95.35810645 -7 94 C-10.89798973 90.74308934 -13.90583349 87.01016761 -17 83 C-18.17639298 81.63617334 -19.36267191 80.28075581 -20.5625 78.9375 C-21.10390625 78.31101562 -21.6453125 77.68453125 -22.203125 77.0390625 C-23.56582122 75.49269853 -24.95635461 73.97081044 -26.359375 72.4609375 C-27.16890625 71.58695312 -27.9784375 70.71296875 -28.8125 69.8125 C-29.93591797 68.61560547 -29.93591797 68.61560547 -31.08203125 67.39453125 C-33.11519746 64.85617914 -34.18181038 63.14559203 -35 60 C-33.96459961 57.31884766 -33.96459961 57.31884766 -32.15234375 54.4140625 C-31.49024902 53.32923584 -30.8281543 52.24440918 -30.14599609 51.12670898 C-29.40989382 49.95943287 -28.67372699 48.79219746 -27.9375 47.625 C-26.82083661 45.81001361 -25.71082507 43.99106562 -24.60095215 42.17192078 C-23.84565598 40.93504465 -23.08823096 39.69946612 -22.32873535 38.46516418 C-18.68979333 32.54211496 -15.26228832 26.50767407 -11.875 20.4375 C-8.03021766 13.55247238 -4.09448433 6.7400816 0 0 Z " fill="#FAFBFD" transform="translate(85,62)"/>
<path d="M0 0 C8.58 0 17.16 0 26 0 C26 0.33 26 0.66 26 1 C17.42 1 8.84 1 0 1 C0 0.67 0 0.34 0 0 Z " fill="#0C4D9F" transform="translate(86,199)"/>
<path d="M0 0 C0.33 0 0.66 0 1 0 C1 8.58 1 17.16 1 26 C0.67 26 0.34 26 0 26 C0 17.42 0 8.84 0 0 Z " fill="#0C4D9F" transform="translate(199,86)"/>
<path d="M0 0 C0.66 0.33 1.32 0.66 2 1 C-0.31 3.31 -2.62 5.62 -5 8 C-5 5 -5 5 -2.5 2.3125 C-1.675 1.549375 -0.85 0.78625 0 0 Z " fill="#1C41A1" transform="translate(30,25)"/>
<path d="M0 0 C1.98 0 3.96 0 6 0 C6 0.33 6 0.66 6 1 C4.02 1 2.04 1 0 1 C0 0.67 0 0.34 0 0 Z " fill="#0B4EA0" transform="translate(112,198)"/>
<path d="M0 0 C1.98 0 3.96 0 6 0 C6 0.33 6 0.66 6 1 C4.02 1 2.04 1 0 1 C0 0.67 0 0.34 0 0 Z " fill="#0B4D9F" transform="translate(80,198)"/>
<path d="M0 0 C1.65 0 3.3 0 5 0 C5 0.33 5 0.66 5 1 C3.35 1 1.7 1 0 1 C0 0.67 0 0.34 0 0 Z " fill="#0C4EA2" transform="translate(118,197)"/>
<path d="M0 0 C1.65 0 3.3 0 5 0 C5 0.33 5 0.66 5 1 C3.35 1 1.7 1 0 1 C0 0.67 0 0.34 0 0 Z " fill="#0B4D9F" transform="translate(75,197)"/>
<path d="M0 0 C1.65 0 3.3 0 5 0 C5 0.33 5 0.66 5 1 C3.35 1 1.7 1 0 1 C0 0.67 0 0.34 0 0 Z " fill="#47704C" transform="translate(117,0)"/>
<path d="M0 0 C1.65 0 3.3 0 5 0 C5 0.33 5 0.66 5 1 C3.35 1 1.7 1 0 1 C0 0.67 0 0.34 0 0 Z " fill="#387356" transform="translate(76,0)"/>
<path d="M0 0 C4 1 4 1 4 1 Z " fill="#0C4EA1" transform="translate(123,196)"/>
<path d="M0 0 C4 1 4 1 4 1 Z " fill="#0B4CA0" transform="translate(68,195)"/>
<path d="M0 0 C4 1 4 1 4 1 Z " fill="#35635D" transform="translate(69,2)"/>
<path d="M0 0 C4 1 4 1 4 1 Z " fill="#47704C" transform="translate(122,1)"/>
<path d="M0 0 C3 1 3 1 3 1 Z " fill="#0C4C9F" transform="translate(72,196)"/>
<path d="M0 0 C3 1 3 1 3 1 Z " fill="#0C4DA0" transform="translate(127,195)"/>
<path d="M0 0 C3 1 3 1 3 1 Z " fill="#0C4EA1" transform="translate(130,194)"/>
<path d="M0 0 C3 1 3 1 3 1 Z " fill="#0B4C9F" transform="translate(65,194)"/>
<path d="M0 0 C3 1 3 1 3 1 Z " fill="#0C4FA4" transform="translate(135,192)"/>
<path d="M0 0 C3 1 3 1 3 1 Z " fill="#0B4C9F" transform="translate(60,192)"/>
<path d="" fill="#305F63" transform="translate(0,0)"/>
<path d="" fill="#0C4FA3" transform="translate(0,0)"/>
<path d="" fill="#346966" transform="translate(0,0)"/>
<path d="" fill="#0C4EA2" transform="translate(0,0)"/>
<path d="" fill="#2F4D87" transform="translate(0,0)"/>
<path d="" fill="#176A75" transform="translate(0,0)"/>
<path d="M0 0 C3 1 3 1 3 1 Z " fill="#47704C" transform="translate(137,6)"/>
<path d="M0 0 C3 1 3 1 3 1 Z " fill="#47704C" transform="translate(132,4)"/>
<path d="M0 0 C3 1 3 1 3 1 Z " fill="#1D597D" transform="translate(63,4)"/>
<path d="M0 0 C3 1 3 1 3 1 Z " fill="#47704C" transform="translate(129,3)"/>
<path d="M0 0 C3 1 3 1 3 1 Z " fill="#1743A0" transform="translate(66,3)"/>
<path d="M0 0 C3 1 3 1 3 1 Z " fill="#47704C" transform="translate(126,2)"/>
<path d="M0 0 C3 1 3 1 3 1 Z " fill="#47704C" transform="translate(73,1)"/>
<path d="M0 0 C2 1 2 1 2 1 Z " fill="#0C4EA1" transform="translate(133,193)"/>
<path d="M0 0 C2 1 2 1 2 1 Z " fill="#0C4D9F" transform="translate(63,193)"/>
<path d="M0 0 C2 1 2 1 2 1 Z " fill="#0C4D9F" transform="translate(138,191)"/>
<path d="M0 0 C2 1 2 1 2 1 Z " fill="#0C4D9F" transform="translate(58,191)"/>
<path d="M0 0 C2 1 2 1 2 1 Z " fill="#0C4FA4" transform="translate(140,190)"/>
<path d="M0 0 C2 1 2 1 2 1 Z " fill="#0B4CA0" transform="translate(56,190)"/>
<path d="M0 0 C2 1 2 1 2 1 Z " fill="#0C4EA1" transform="translate(142,189)"/>
<path d="M0 0 C2 1 2 1 2 1 Z " fill="#0C4C9F" transform="translate(54,189)"/>
<path d="M0 0 C2 1 2 1 2 1 Z " fill="#0C4EA0" transform="translate(144,188)"/>
<path d="M0 0 C2 1 2 1 2 1 Z " fill="#0B4C9F" transform="translate(52,188)"/>
<path d="M0 0 C2 1 2 1 2 1 Z " fill="#0C4EA0" transform="translate(146,187)"/>
<path d="M0 0 C2 1 2 1 2 1 Z " fill="#084C9E" transform="translate(50,187)"/>
<path d="M0 0 C2 1 2 1 2 1 Z " fill="#0C4EA0" transform="translate(148,186)"/>
<path d="M0 0 C2 1 2 1 2 1 Z " fill="#0B4E9F" transform="translate(47,185)"/>
<path d="M0 0 C2 1 2 1 2 1 Z " fill="#0C4FA2" transform="translate(151,184)"/>
<path d="M0 0 C2 1 2 1 2 1 Z " fill="#0B4C9F" transform="translate(45,184)"/>
<path d="M0 0 C2 1 2 1 2 1 Z " fill="#0D50A4" transform="translate(154,182)"/>
<path d="M0 0 C2 1 2 1 2 1 Z " fill="#0B4C9F" transform="translate(42,182)"/>
<path d="M0 0 C2 1 2 1 2 1 Z " fill="#0D50A6" transform="translate(157,180)"/>
<path d="M0 0 C2 1 2 1 2 1 Z " fill="#0A4D9D" transform="translate(38,179)"/>
<path d="M0 0 C2 1 2 1 2 1 Z " fill="#0C4FA3" transform="translate(162,176)"/>
<path d="M0 0 C2 1 2 1 2 1 Z " fill="#064E9A" transform="translate(32,174)"/>
<path d="" fill="#064598" transform="translate(0,0)"/>
<path d="" fill="#0C4EA2" transform="translate(0,0)"/>
<path d="" fill="#47704C" transform="translate(0,0)"/>
<path d="" fill="#0C4EA3" transform="translate(0,0)"/>
<path d="" fill="#236071" transform="translate(0,0)"/>
<path d="" fill="#0C4DA1" transform="translate(0,0)"/>
<path d="" fill="#0020BF" transform="translate(0,0)"/>
<path d="" fill="#47704C" transform="translate(0,0)"/>
<path d="M0 0 C2 1 2 1 2 1 Z " fill="#2A5E76" transform="translate(164,23)"/>
<path d="M0 0 C2 1 2 1 2 1 Z " fill="#0129CD" transform="translate(37,19)"/>
<path d="M0 0 C2 1 2 1 2 1 Z " fill="#2A5F75" transform="translate(158,18)"/>
<path d="M0 0 C2 1 2 1 2 1 Z " fill="#295E76" transform="translate(155,16)"/>
<path d="M0 0 C2 1 2 1 2 1 Z " fill="#236071" transform="translate(41,16)"/>
<path d="M0 0 C2 1 2 1 2 1 Z " fill="#285F75" transform="translate(152,14)"/>
<path d="M0 0 C2 1 2 1 2 1 Z " fill="#2358A5" transform="translate(44,14)"/>
<path d="M0 0 C2 1 2 1 2 1 Z " fill="#265E74" transform="translate(149,12)"/>
<path d="M0 0 C2 1 2 1 2 1 Z " fill="#234226" transform="translate(47,12)"/>
<path d="M0 0 C2 1 2 1 2 1 Z " fill="#2A5E75" transform="translate(147,11)"/>
<path d="M0 0 C2 1 2 1 2 1 Z " fill="#47704C" transform="translate(49,11)"/>
<path d="M0 0 C2 1 2 1 2 1 Z " fill="#47704C" transform="translate(51,10)"/>
<path d="M0 0 C2 1 2 1 2 1 Z " fill="#47704C" transform="translate(144,9)"/>
<path d="M0 0 C2 1 2 1 2 1 Z " fill="#237765" transform="translate(53,9)"/>
<path d="M0 0 C2 1 2 1 2 1 Z " fill="#47704C" transform="translate(142,8)"/>
<path d="M0 0 C2 1 2 1 2 1 Z " fill="#24576E" transform="translate(55,8)"/>
<path d="M0 0 C2 1 2 1 2 1 Z " fill="#47704C" transform="translate(140,7)"/>
<path d="M0 0 C2 1 2 1 2 1 Z " fill="#236071" transform="translate(57,7)"/>
<path d="M0 0 C2 1 2 1 2 1 Z " fill="#0732CD" transform="translate(59,6)"/>
<path d="M0 0 C2 1 2 1 2 1 Z " fill="#47704C" transform="translate(135,5)"/>
<path d="M0 0 C2 1 2 1 2 1 Z " fill="#002CCA" transform="translate(61,5)"/>
<path d="" fill="#0D4BA0" transform="translate(0,0)"/>
<path d="" fill="#0D51A5" transform="translate(0,0)"/>
<path d="" fill="#0D51A6" transform="translate(0,0)"/>
<path d="" fill="#0B4DA0" transform="translate(0,0)"/>
<path d="" fill="#0D51A6" transform="translate(0,0)"/>
<path d="" fill="#0D4E9E" transform="translate(0,0)"/>
<path d="" fill="#0D4DA0" transform="translate(0,0)"/>
<path d="" fill="#0C4DA0" transform="translate(0,0)"/>
<path d="" fill="#0D51A7" transform="translate(0,0)"/>
<path d="" fill="#0B4E9F" transform="translate(0,0)"/>
<path d="" fill="#0D51A7" transform="translate(0,0)"/>
<path d="" fill="#0C4EA0" transform="translate(0,0)"/>
<path d="" fill="#0D4DA0" transform="translate(0,0)"/>
<path d="" fill="#0D4EA1" transform="translate(0,0)"/>
<path d="" fill="#0B4D9F" transform="translate(0,0)"/>
<path d="" fill="#0D51A5" transform="translate(0,0)"/>
<path d="" fill="#0D50A5" transform="translate(0,0)"/>
<path d="" fill="#0E4FA2" transform="translate(0,0)"/>
<path d="" fill="#0D52A9" transform="translate(0,0)"/>
<path d="" fill="#0E509B" transform="translate(0,0)"/>
<path d="" fill="#0D52A9" transform="translate(0,0)"/>
<path d="" fill="#0B4C9C" transform="translate(0,0)"/>
<path d="" fill="#0E53AA" transform="translate(0,0)"/>
<path d="" fill="#0B499D" transform="translate(0,0)"/>
<path d="" fill="#0D52A9" transform="translate(0,0)"/>
<path d="" fill="#0B4C9C" transform="translate(0,0)"/>
<path d="" fill="#0D52A9" transform="translate(0,0)"/>
<path d="" fill="#0B499D" transform="translate(0,0)"/>
<path d="" fill="#0D52A9" transform="translate(0,0)"/>
<path d="" fill="#0D51A6" transform="translate(0,0)"/>
<path d="" fill="#0D4E9E" transform="translate(0,0)"/>
<path d="" fill="#0D51A7" transform="translate(0,0)"/>
<path d="" fill="#0E4FA2" transform="translate(0,0)"/>
<path d="" fill="#0D4DA0" transform="translate(0,0)"/>
<path d="" fill="#024A9C" transform="translate(0,0)"/>
<path d="" fill="#0C4EA0" transform="translate(0,0)"/>
<path d="" fill="#0B4C9F" transform="translate(0,0)"/>
<path d="" fill="#0041FF" transform="translate(0,0)"/>
<path d="" fill="#0009FF" transform="translate(0,0)"/>
<path d="" fill="#007F7F" transform="translate(0,0)"/>
<path d="" fill="#0B4C9C" transform="translate(0,0)"/>
<path d="" fill="#0B499D" transform="translate(0,0)"/>
<path d="" fill="#0B4C9C" transform="translate(0,0)"/>
<path d="" fill="#0E509B" transform="translate(0,0)"/>
<path d="" fill="#0E4FA2" transform="translate(0,0)"/>
<path d="" fill="#005096" transform="translate(0,0)"/>
<path d="" fill="#0F5C9B" transform="translate(0,0)"/>
<path d="" fill="#47704C" transform="translate(0,0)"/>
<path d="" fill="#001400" transform="translate(0,0)"/>
<path d="" fill="#0C4EA0" transform="translate(0,0)"/>
<path d="" fill="#024A9C" transform="translate(0,0)"/>
<path d="" fill="#0B4E9F" transform="translate(0,0)"/>
<path d="" fill="#007F7F" transform="translate(0,0)"/>
<path d="" fill="#094D9B" transform="translate(0,0)"/>
<path d="" fill="#024A9C" transform="translate(0,0)"/>
<path d="" fill="#47704C" transform="translate(0,0)"/>
<path d="" fill="#024A9C" transform="translate(0,0)"/>
<path d="" fill="#0B4B9F" transform="translate(0,0)"/>
<path d="" fill="#024A9C" transform="translate(0,0)"/>
<path d="" fill="#0B4B9F" transform="translate(0,0)"/>
<path d="" fill="#0009FF" transform="translate(0,0)"/>
<path d="" fill="#054C9D" transform="translate(0,0)"/>
<path d="" fill="#47704C" transform="translate(0,0)"/>
<path d="" fill="#47704C" transform="translate(0,0)"/>
</svg>
