<?xml version="1.0" encoding="UTF-8"?>
<svg version="1.1" xmlns="http://www.w3.org/2000/svg" width="128" height="128">
<path d="M0 0 C42.24 0 84.48 0 128 0 C128 42.24 128 84.48 128 128 C85.76 128 43.52 128 0 128 C0 85.76 0 43.52 0 0 Z " fill="#4F5166" transform="translate(0,0)"/>
<path d="M0 0 C9.83307619 5.88757993 15.99072903 13.5357154 19.453125 24.53515625 C20.77364047 31.75493106 20.49089529 39.99090545 16.8125 46.5 C15.8225 46.83 14.8325 47.16 13.8125 47.5 C12.52803081 50.06893838 12.48272856 52.26576337 12.25 55.125 C12.16621094 56.12789062 12.08242187 57.13078125 11.99609375 58.1640625 C11.90521484 59.32035156 11.90521484 59.32035156 11.8125 60.5 C12.8025 60.5 13.7925 60.5 14.8125 60.5 C15.1425 56.21 15.4725 51.92 15.8125 47.5 C17.1325 47.5 18.4525 47.5 19.8125 47.5 C20.13547455 53.55278224 20.33583984 58.28023727 16.8125 63.5 C15.8225 64.16 14.8325 64.82 13.8125 65.5 C14.328125 66.03625 14.84375 66.5725 15.375 67.125 C16.8125 69.5 16.8125 69.5 16.5 72.75 C16.273125 73.6575 16.04625 74.565 15.8125 75.5 C13.8325 75.995 13.8325 75.995 11.8125 76.5 C11.8125 88.05 11.8125 99.6 11.8125 111.5 C10.4925 111.5 9.1725 111.5 7.8125 111.5 C7.8125 105.89 7.8125 100.28 7.8125 94.5 C6.4925 94.5 5.1725 94.5 3.8125 94.5 C3.3175 96.48 3.3175 96.48 2.8125 98.5 C-0.1575 98.5 -3.1275 98.5 -6.1875 98.5 C-6.1875 97.51 -6.1875 96.52 -6.1875 95.5 C-8.8275 95.5 -11.4675 95.5 -14.1875 95.5 C-14.1875 96.49 -14.1875 97.48 -14.1875 98.5 C-17.1575 98.5 -20.1275 98.5 -23.1875 98.5 C-23.1875 97.18 -23.1875 95.86 -23.1875 94.5 C-25.4975 94.5 -27.8075 94.5 -30.1875 94.5 C-30.1875 93.18 -30.1875 91.86 -30.1875 90.5 C-30.950625 90.5825 -31.71375 90.665 -32.5 90.75 C-35.1875 90.5 -35.1875 90.5 -37.0625 89 C-38.74224113 85.26724193 -38.33416532 82.3011005 -37.1875 78.5 C-35.44090496 74.66520457 -33.35566035 71.1082471 -31.1875 67.5 C-30.84074219 66.75492187 -30.49398437 66.00984375 -30.13671875 65.2421875 C-28.98526164 63.045972 -28.26455026 61.87857318 -26.1875 60.5 C-21.79486477 59.9214578 -17.5902185 60.09389273 -13.1875 60.5 C-17.05733549 57.31534735 -21.44659021 55.35201276 -25.96679688 53.28125 C-30.17209245 51.26706312 -33.22288113 49.10839559 -36.1875 45.5 C-37.11328125 42.82421875 -37.11328125 42.82421875 -37.5 40.1875 C-37.64050781 39.30449219 -37.78101563 38.42148437 -37.92578125 37.51171875 C-38.05533203 36.51591797 -38.05533203 36.51591797 -38.1875 35.5 C-38.8475 35.5 -39.5075 35.5 -40.1875 35.5 C-41.03817283 26.35526707 -38.00050207 17.33062849 -32.5 10.0625 C-24.34740272 0.68853983 -12.34094338 -5.64797207 0 0 Z " fill="#F9E493" transform="translate(77.1875,4.5)"/>
<path d="M0 0 C0 29.37 0 58.74 0 89 C-42.24 89 -84.48 89 -128 89 C-128 85.7 -128 82.4 -128 79 C-96.65 79 -65.3 79 -33 79 C-33 78.01 -33 77.02 -33 76 C-34.98 76 -36.96 76 -39 76 C-39 64.78 -39 53.56 -39 42 C-38.01 41.67 -37.02 41.34 -36 41 C-35.05306805 37.2983569 -34.69556233 35.60887535 -36.4375 32.125 C-36.953125 31.42375 -37.46875 30.7225 -38 30 C-37.38125 29.773125 -36.7625 29.54625 -36.125 29.3125 C-33.20340823 27.50798744 -32.90017264 26.32371435 -32 23 C-31.55678732 19.67335771 -31.24692947 16.34654408 -31 13 C-31.66 13 -32.32 13 -33 13 C-32.67 11.68 -32.34 10.36 -32 9 C-29.69 9 -27.38 9 -25 9 C-24.505 9.99 -24.505 9.99 -24 11 C-24.66 11 -25.32 11 -26 11 C-26 12.32 -26 13.64 -26 15 C-25.42765625 15.12246094 -24.8553125 15.24492188 -24.265625 15.37109375 C-21.90046809 16.02762868 -19.92793203 16.93723512 -17.75 18.0625 C-17.04359375 18.42472656 -16.3371875 18.78695312 -15.609375 19.16015625 C-14.81273438 19.57587891 -14.81273438 19.57587891 -14 20 C-13.93683594 19.28714844 -13.87367187 18.57429688 -13.80859375 17.83984375 C-12.98392953 11.39010148 -11.71358426 7.71994705 -6.8515625 3.33984375 C-2.2361516 0 -2.2361516 0 0 0 Z " fill="#1C2C4E" transform="translate(128,39)"/>
<path d="M0 0 C2.27711621 1.22732704 4.37134529 2.57589713 6.4921875 4.0546875 C7.5853125 4.7146875 8.6784375 5.3746875 9.8046875 6.0546875 C14.92813985 10.59301019 16.11706016 18.69118621 16.83984375 25.171875 C16.99792639 30.24426591 16.86438043 33.97995437 13.4921875 38.0546875 C12.09483739 35.25998728 12.47224843 32.98195071 12.5546875 29.8671875 C12.6053087 24.79381872 12.25571706 20.7941732 10.4921875 16.0546875 C7.72942573 16.57737216 5.1660999 17.16338337 2.4921875 18.0546875 C2.4921875 18.7146875 2.4921875 19.3746875 2.4921875 20.0546875 C3.3584375 20.1475 3.3584375 20.1475 4.2421875 20.2421875 C7.45280804 21.40157825 8.67493075 23.22784366 10.4921875 26.0546875 C9.9971875 27.5396875 9.9971875 27.5396875 9.4921875 29.0546875 C8.8321875 28.3946875 8.1721875 27.7346875 7.4921875 27.0546875 C7.1621875 29.6946875 6.8321875 32.3346875 6.4921875 35.0546875 C5.9971875 33.0746875 5.9971875 33.0746875 5.4921875 31.0546875 C4.1721875 31.0546875 2.8521875 31.0546875 1.4921875 31.0546875 C1.4921875 32.7046875 1.4921875 34.3546875 1.4921875 36.0546875 C0.5021875 35.3946875 -0.4878125 34.7346875 -1.5078125 34.0546875 C-1.6953125 30.4296875 -1.6953125 30.4296875 -1.5078125 27.0546875 C0.4721875 26.3946875 2.4521875 25.7346875 4.4921875 25.0546875 C1.5221875 25.5496875 1.5221875 25.5496875 -1.5078125 26.0546875 C-1.1778125 24.4046875 -0.8478125 22.7546875 -0.5078125 21.0546875 C-1.8278125 20.3946875 -3.1478125 19.7346875 -4.5078125 19.0546875 C-4.5078125 20.0446875 -4.5078125 21.0346875 -4.5078125 22.0546875 C-5.2503125 21.8896875 -5.9928125 21.7246875 -6.7578125 21.5546875 C-9.69787828 20.93543054 -9.69787828 20.93543054 -13.5078125 21.0546875 C-13.48460938 21.71855469 -13.46140625 22.38242187 -13.4375 23.06640625 C-13.25825187 31.83676131 -13.25825187 31.83676131 -15.5078125 36.0546875 C-16.1678125 35.7246875 -16.8278125 35.3946875 -17.5078125 35.0546875 C-17.1778125 33.7346875 -16.8478125 32.4146875 -16.5078125 31.0546875 C-17.8278125 31.0546875 -19.1478125 31.0546875 -20.5078125 31.0546875 C-21.1678125 32.3746875 -21.8278125 33.6946875 -22.5078125 35.0546875 C-23.87733923 32.31563405 -23.63402611 30.08381418 -23.5078125 27.0546875 C-23.1778125 26.3946875 -22.8478125 25.7346875 -22.5078125 25.0546875 C-23.1678125 25.0546875 -23.8278125 25.0546875 -24.5078125 25.0546875 C-24.8378125 25.7146875 -25.1678125 26.3746875 -25.5078125 27.0546875 C-25.11638227 24.78439216 -24.62039972 23.22060552 -23.3203125 21.3046875 C-20.72094034 19.51201704 -18.58442034 19.84958031 -15.5078125 20.0546875 C-15.5078125 19.3946875 -15.5078125 18.7346875 -15.5078125 18.0546875 C-17.4878125 18.0546875 -19.4678125 18.0546875 -21.5078125 18.0546875 C-20.5078125 16.0546875 -20.5078125 16.0546875 -17.5078125 15.0546875 C-17.8378125 14.0646875 -18.1678125 13.0746875 -18.5078125 12.0546875 C-19.1678125 12.0546875 -19.8278125 12.0546875 -20.5078125 12.0546875 C-20.7346875 12.5909375 -20.9615625 13.1271875 -21.1953125 13.6796875 C-22.35631861 15.78055569 -23.52860248 17.3617173 -25.0703125 19.1796875 C-28.24535317 22.92460726 -28.63170008 24.39145593 -28.5703125 29.1796875 C-28.55677734 30.54480469 -28.55677734 30.54480469 -28.54296875 31.9375 C-28.53136719 32.63617188 -28.51976562 33.33484375 -28.5078125 34.0546875 C-27.8478125 34.0546875 -27.1878125 34.0546875 -26.5078125 34.0546875 C-25.15348575 35.36669154 -23.82047768 36.70100154 -22.5078125 38.0546875 C-20.26268988 39.17724881 -18.99324601 39.18882512 -16.5078125 39.1796875 C-15.8065625 39.18226562 -15.1053125 39.18484375 -14.3828125 39.1875 C-12.41627475 39.16845986 -12.41627475 39.16845986 -10.5078125 38.0546875 C-9.16710684 37.98321179 -7.82290622 37.97069178 -6.48046875 37.9921875 C-5.68833984 37.99992187 -4.89621094 38.00765625 -4.08007812 38.015625 C-2.41080634 38.04160588 -0.7415355 38.06764727 0.92773438 38.09375 C1.72115234 38.10148437 2.51457031 38.10921875 3.33203125 38.1171875 C4.05769287 38.12878906 4.78335449 38.14039063 5.53100586 38.15234375 C7.70810734 38.13196733 7.70810734 38.13196733 10.4921875 37.0546875 C10.4921875 43.6546875 10.4921875 50.2546875 10.4921875 57.0546875 C8.8421875 56.3946875 7.1921875 55.7346875 5.4921875 55.0546875 C5.1621875 56.3746875 4.8321875 57.6946875 4.4921875 59.0546875 C4.1621875 58.3946875 3.8321875 57.7346875 3.4921875 57.0546875 C1.13619515 56.58716962 1.13619515 56.58716962 -1.5703125 56.4296875 C-2.48941406 56.35492188 -3.40851563 56.28015625 -4.35546875 56.203125 C-5.06574219 56.15414062 -5.77601562 56.10515625 -6.5078125 56.0546875 C-5.5178125 54.7346875 -4.5278125 53.4146875 -3.5078125 52.0546875 C-6.79109875 50.31330129 -6.79109875 50.31330129 -10.28125 50.6796875 C-15.58891873 51.57361065 -21.27072563 46.89169349 -25.5078125 44.0546875 C-30.29480952 39.35617472 -33.23194977 34.19952261 -33.8203125 27.4921875 C-33.70120859 21.8509933 -32.01989768 16.45499171 -30.5078125 11.0546875 C-29.8478125 11.0546875 -29.1878125 11.0546875 -28.5078125 11.0546875 C-28.26804687 10.45914062 -28.02828125 9.86359375 -27.78125 9.25 C-26.2453567 6.60223302 -24.70548613 5.5621814 -22.1328125 3.9296875 C-20.97652344 3.18332031 -20.97652344 3.18332031 -19.796875 2.421875 C-13.42877367 -1.38159849 -7.22493996 -2.72341973 0 0 Z " fill="#937F6B" transform="translate(75.5078125,10.9453125)"/>
<path d="M0 0 C0 3.63 0 7.26 0 11 C-42.24 11 -84.48 11 -128 11 C-128 7.7 -128 4.4 -128 1 C-116.18349527 0.86745475 -104.36696972 0.73695477 -92.55041599 0.60884857 C-87.05955995 0.5492612 -81.56871245 0.48904937 -76.07788086 0.42724609 C-50.71751617 0.14227025 -25.3621002 -0.08140837 0 0 Z " fill="#0B1330" transform="translate(128,117)"/>
<path d="M0 0 C0.99 0 1.98 0 3 0 C3 0.66 3 1.32 3 2 C3.763125 2.020625 4.52625 2.04125 5.3125 2.0625 C8 3 8 3 9.8125 6 C11.31951213 10.16796496 11.8635457 14.63147467 11 19 C9.6015625 20.765625 9.6015625 20.765625 8 22 C7.34 22 6.68 22 6 22 C5.855625 22.61875 5.71125 23.2375 5.5625 23.875 C5 26 5 26 4 28 C5.32 27.67 6.64 27.34 8 27 C8.05447047 28.41623216 8.09300508 29.83308191 8.125 31.25 C8.14820312 32.03890625 8.17140625 32.8278125 8.1953125 33.640625 C7.97947904 36.24789319 7.39441148 37.7990648 6 40 C4.67479497 40.68268138 3.34187818 41.3507041 2 42 C1.67 42.99 1.34 43.98 1 45 C2.485 44.505 2.485 44.505 4 44 C4.66 44.33 5.32 44.66 6 45 C5.67 45.99 5.34 46.98 5 48 C3.68 48 2.36 48 1 48 C1 48.66 1 49.32 1 50 C2.65 50 4.3 50 6 50 C6.33 54.29 6.66 58.58 7 63 C5.68 63 4.36 63 3 63 C2.34 60.03 1.68 57.06 1 54 C0.01 54.495 0.01 54.495 -1 55 C-1.78375 54.67 -2.5675 54.34 -3.375 54 C-7.94205107 52.74012384 -11.63768311 53.29725666 -16.29296875 53.90625 C-19 54 -19 54 -22 52 C-21.8097328 43.90499548 -21.8097328 43.90499548 -18.875 40.625 C-16.67784138 39.38312774 -14.6304914 38.39082841 -12.3125 37.4375 C-8.78257801 36.26152645 -8.78257801 36.26152645 -7 33 C-8.98567708 33.06510417 -10.97135417 33.13020833 -12.95703125 33.1953125 C-15 33 -15 33 -18 31 C-18 30.34 -18 29.68 -18 29 C-19.32 29 -20.64 29 -22 29 C-23.13424434 24.77236202 -23.15018009 21.75054545 -21.21484375 17.74609375 C-18.86598775 14.37008529 -15.66457975 11.83228987 -12 10 C-9.2421875 9.83984375 -9.2421875 9.83984375 -7 10 C-6.34 8.02 -5.68 6.04 -5 4 C-3.35 3.67 -1.7 3.34 0 3 C0 2.01 0 1.02 0 0 Z " fill="#333D56" transform="translate(26,23)"/>
<path d="M0 0 C0.66 0 1.32 0 2 0 C2.66 1.32 3.32 2.64 4 4 C2.68 4.33 1.36 4.66 0 5 C1.65 5.33 3.3 5.66 5 6 C5 6.66 5 7.32 5 8 C3.88625 8.268125 2.7725 8.53625 1.625 8.8125 C-2.21840951 9.65809019 -2.21840951 9.65809019 -4 13 C-3.34 13 -2.68 13 -2 13 C-2 15.64 -2 18.28 -2 21 C-1.34 20.34 -0.68 19.68 0 19 C1.32 19 2.64 19 4 19 C4.33 20.32 4.66 21.64 5 23 C6.19480349 19.01732169 5.99259467 15.36035232 5.83984375 11.2421875 C6 9 6 9 8 7 C10.64 7.99 13.28 8.98 16 10 C15.67 8.68 15.34 7.36 15 6 C17.86724686 6.57344937 18.8614515 6.8614515 21 9 C21 9.99 21 10.98 21 12 C23.475 12.495 23.475 12.495 26 13 C26 13.33 26 13.66 26 14 C23.69 14.33 21.38 14.66 19 15 C19.18464366 19.34184202 19.18464366 19.34184202 21 23 C21.33 21.68 21.66 20.36 22 19 C23.65 18.67 25.3 18.34 27 18 C27 16.35 27 14.7 27 13 C27.99 13.99 28.98 14.98 30 16 C28.6608425 11.49556115 27.04167548 10.2335575 23 8 C23 7.34 23 6.68 23 6 C26.08809695 4.23537317 27.23312136 4 31 4 C34.57440085 10.10626812 34.21141421 15.89458018 34.0078125 22.76953125 C33.7583131 25.89110565 33.7583131 25.89110565 35 28 C34.91161539 30.37783105 34.75653579 32.75345146 34.5625 35.125 C34.46066406 36.40632813 34.35882813 37.68765625 34.25390625 39.0078125 C34.17011719 39.99523438 34.08632812 40.98265625 34 42 C34.99 42 35.98 42 37 42 C37.33 37.71 37.66 33.42 38 29 C39.32 29 40.64 29 42 29 C42.32297455 35.05278224 42.52333984 39.78023727 39 45 C38.01 45.66 37.02 46.32 36 47 C36.515625 47.53625 37.03125 48.0725 37.5625 48.625 C39 51 39 51 38.6875 54.25 C38.460625 55.1575 38.23375 56.065 38 57 C36.02 57.495 36.02 57.495 34 58 C34 69.55 34 81.1 34 93 C32.68 93 31.36 93 30 93 C30.01047363 91.90534424 30.02094727 90.81068848 30.03173828 89.68286133 C30.06801444 85.6107919 30.09092817 81.53873669 30.10986328 77.46655273 C30.11990351 75.70611161 30.13353844 73.94568709 30.15087891 72.18530273 C30.17521436 69.65083715 30.18650296 67.11659261 30.1953125 64.58203125 C30.20563507 63.79850784 30.21595764 63.01498444 30.22659302 62.2077179 C30.22745611 57.97750371 29.75592361 54.83858237 28 51 C28.375 48.6875 28.375 48.6875 29 47 C29.66 47 30.32 47 31 47 C30.505 36.605 30.505 36.605 30 26 C29.01 26.495 29.01 26.495 28 27 C26.64756083 27.07148199 25.29165633 27.08399454 23.9375 27.0625 C23.14085937 27.05476563 22.34421875 27.04703125 21.5234375 27.0390625 C19.84114583 27.01302083 18.15885417 26.98697917 16.4765625 26.9609375 C15.67992188 26.95320313 14.88328125 26.94546875 14.0625 26.9375 C13.33160156 26.92589844 12.60070312 26.91429688 11.84765625 26.90234375 C9.90365825 26.88176172 9.90365825 26.88176172 8 28 C3.09817686 28.40848526 0.88869265 28.47608535 -3.5 26.125 C-4.325 25.42375 -5.15 24.7225 -6 24 C-6 23.34 -6 22.68 -6 22 C-6.66 22 -7.32 22 -8 22 C-9.20643566 18.38069302 -9.32268559 15.80768995 -9 12 C-7.3125 8.9375 -7.3125 8.9375 -5 6 C-4.56816406 5.43667969 -4.13632812 4.87335937 -3.69140625 4.29296875 C-2.52219575 2.81150618 -1.26619396 1.39947754 0 0 Z " fill="#C8C0C4" transform="translate(55,23)"/>
<path d="M0 0 C1.7316814 0.11209034 3.46266138 0.24719381 5.1875 0.4375 C3.8675 0.7675 2.5475 1.0975 1.1875 1.4375 C1.1875 3.7475 1.1875 6.0575 1.1875 8.4375 C0.5275 8.4375 -0.1325 8.4375 -0.8125 8.4375 C-0.956875 9.200625 -1.10125 9.96375 -1.25 10.75 C-1.8125 13.4375 -1.8125 13.4375 -2.8125 16.4375 C-4.875 17.125 -4.875 17.125 -6.8125 17.4375 C-6.8125 18.7575 -6.8125 20.0775 -6.8125 21.4375 C-3.8425 21.4375 -0.8725 21.4375 2.1875 21.4375 C-0.8125 23.4375 -0.8125 23.4375 -2.8125 24.4375 C-2.8125 25.7575 -2.8125 27.0775 -2.8125 28.4375 C-1.69875 28.4375 -0.585 28.4375 0.5625 28.4375 C4.10416667 28.4375 7.64583333 28.4375 11.1875 28.4375 C10.8575 25.4675 10.5275 22.4975 10.1875 19.4375 C10.8475 19.4375 11.5075 19.4375 12.1875 19.4375 C12.1875 17.4575 12.1875 15.4775 12.1875 13.4375 C13.1775 13.7675 14.1675 14.0975 15.1875 14.4375 C14.878125 15.406875 14.56875 16.37625 14.25 17.375 C13.00782903 21.67414491 12.57065147 25.99092634 12.1875 30.4375 C13.5075 30.1075 14.8275 29.7775 16.1875 29.4375 C16.1875 25.8075 16.1875 22.1775 16.1875 18.4375 C17.8375 18.7675 19.4875 19.0975 21.1875 19.4375 C20.6925 18.4475 20.6925 18.4475 20.1875 17.4375 C20.1875 15.4375 20.1875 13.4375 20.1875 11.4375 C18.93208443 8.92666886 17.68686512 8.56624554 15.1875 7.4375 C18.9375 4.4375 18.9375 4.4375 21.1875 4.4375 C21.5175 3.7775 21.8475 3.1175 22.1875 2.4375 C22.6825 2.9325 22.6825 2.9325 23.1875 3.4375 C23.5175 2.7775 23.8475 2.1175 24.1875 1.4375 C26.6625 2.4275 26.6625 2.4275 29.1875 3.4375 C29.1875 4.0975 29.1875 4.7575 29.1875 5.4375 C28.5275 5.7675 27.8675 6.0975 27.1875 6.4375 C27.1875 8.7475 27.1875 11.0575 27.1875 13.4375 C27.8475 13.7675 28.5075 14.0975 29.1875 14.4375 C29.31660853 21.17983419 28.985337 27.74136804 28.1875 34.4375 C26.8675 34.4375 25.5475 34.4375 24.1875 34.4375 C23.8575 35.7575 23.5275 37.0775 23.1875 38.4375 C20.2175 38.4375 17.2475 38.4375 14.1875 38.4375 C14.1875 37.4475 14.1875 36.4575 14.1875 35.4375 C11.5475 35.4375 8.9075 35.4375 6.1875 35.4375 C6.1875 36.4275 6.1875 37.4175 6.1875 38.4375 C3.2175 38.4375 0.2475 38.4375 -2.8125 38.4375 C-2.8125 37.1175 -2.8125 35.7975 -2.8125 34.4375 C-5.1225 34.4375 -7.4325 34.4375 -9.8125 34.4375 C-9.8125 33.1175 -9.8125 31.7975 -9.8125 30.4375 C-10.575625 30.52 -11.33875 30.6025 -12.125 30.6875 C-14.8125 30.4375 -14.8125 30.4375 -16.6875 28.9375 C-18.36724113 25.20474193 -17.95916532 22.2386005 -16.8125 18.4375 C-15.0661422 14.60322546 -12.98841688 11.04086112 -10.8125 7.4375 C-10.25755859 6.31988281 -10.25755859 6.31988281 -9.69140625 5.1796875 C-7.15164516 0.58392933 -4.94320055 0.02528491 0 0 Z " fill="#DABB4C" transform="translate(56.8125,64.5625)"/>
<path d="M0 0 C0 25.08 0 50.16 0 76 C-3.63 76 -7.26 76 -11 76 C-13.15903764 70.81334636 -13.12089946 66.65392551 -12.6875 61.1875 C-12.63916016 60.41212891 -12.59082031 59.63675781 -12.54101562 58.83789062 C-12.14773261 53.14773261 -12.14773261 53.14773261 -11 52 C-10.87382662 49.73181338 -10.82419754 47.45916315 -10.8125 45.1875 C-10.79832031 43.94355469 -10.78414063 42.69960937 -10.76953125 41.41796875 C-10.98959986 38.1542394 -11.53312358 36.79122233 -13 34 C-12.9765625 31.74609375 -12.9765625 31.74609375 -12.625 29.4375 C-12.11089641 25.89257642 -11.94057698 22.69798468 -12.24609375 19.109375 C-12.75144277 10.23998407 -12.75144277 10.23998407 -10.58203125 6.66015625 C-7.98077889 4.03671836 -3.97395591 0 0 0 Z " fill="#08090C" transform="translate(128,39)"/>
<path d="M0 0 C0.68578125 -0.00708984 1.3715625 -0.01417969 2.078125 -0.02148438 C7.60464259 0.04706976 11.40477641 1.62084348 15.875 4.75 C17.55634713 7.2720207 17.19651668 9.48974987 17 12.4375 C12.25 10.5625 12.25 10.5625 10 9.4375 C11.32 11.0875 12.64 12.7375 14 14.4375 C13.01 14.7675 12.02 15.0975 11 15.4375 C11 16.0975 11 16.7575 11 17.4375 C11.86625 17.5303125 11.86625 17.5303125 12.75 17.625 C15.96062054 18.78439075 17.18274325 20.61065616 19 23.4375 C18.505 24.9225 18.505 24.9225 18 26.4375 C17.34 25.7775 16.68 25.1175 16 24.4375 C15.67 27.0775 15.34 29.7175 15 32.4375 C14.505 30.4575 14.505 30.4575 14 28.4375 C12.68 28.4375 11.36 28.4375 10 28.4375 C10 30.0875 10 31.7375 10 33.4375 C9.01 32.7775 8.02 32.1175 7 31.4375 C6.8125 27.8125 6.8125 27.8125 7 24.4375 C8.98 23.7775 10.96 23.1175 13 22.4375 C11.02 22.7675 9.04 23.0975 7 23.4375 C7.33 21.7875 7.66 20.1375 8 18.4375 C6.68 17.7775 5.36 17.1175 4 16.4375 C4 17.4275 4 18.4175 4 19.4375 C3.2575 19.2725 2.515 19.1075 1.75 18.9375 C-1.19006578 18.31824304 -1.19006578 18.31824304 -5 18.4375 C-4.97679687 19.10136719 -4.95359375 19.76523437 -4.9296875 20.44921875 C-4.75043937 29.21957381 -4.75043937 29.21957381 -7 33.4375 C-7.66 33.1075 -8.32 32.7775 -9 32.4375 C-8.67 31.1175 -8.34 29.7975 -8 28.4375 C-9.32 28.4375 -10.64 28.4375 -12 28.4375 C-12.66 29.7575 -13.32 31.0775 -14 32.4375 C-15.36952673 29.69844655 -15.12621361 27.46662668 -15 24.4375 C-14.67 23.7775 -14.34 23.1175 -14 22.4375 C-14.66 22.4375 -15.32 22.4375 -16 22.4375 C-16.33 23.0975 -16.66 23.7575 -17 24.4375 C-16.60856977 22.16720466 -16.11258722 20.60341802 -14.8125 18.6875 C-12.21312784 16.89482954 -10.07660784 17.23239281 -7 17.4375 C-7 16.7775 -7 16.1175 -7 15.4375 C-8.98 15.4375 -10.96 15.4375 -13 15.4375 C-12 13.4375 -12 13.4375 -9 12.4375 C-9.33 11.4475 -9.66 10.4575 -10 9.4375 C-10.66 9.4375 -11.32 9.4375 -12 9.4375 C-12.226875 10.076875 -12.45375 10.71625 -12.6875 11.375 C-14 13.4375 -14 13.4375 -16.625 14.1875 C-17.40875 14.27 -18.1925 14.3525 -19 14.4375 C-19.33 13.4475 -19.66 12.4575 -20 11.4375 C-18.99609375 9.75390625 -18.99609375 9.75390625 -17.4375 8 C-16.94121094 7.42378906 -16.44492187 6.84757812 -15.93359375 6.25390625 C-10.87494788 1.50184498 -6.90983645 -0.20132042 0 0 Z " fill="#87CAEF" transform="translate(67,13.5625)"/>
<path d="M0 0 C0.66 0 1.32 0 2 0 C2.15855469 0.66386719 2.31710938 1.32773437 2.48046875 2.01171875 C2.71378906 2.89472656 2.94710937 3.77773438 3.1875 4.6875 C3.40792969 5.55761719 3.62835938 6.42773438 3.85546875 7.32421875 C6.63371404 13.81943386 12.11896851 16.34610685 18.1875 19.125 C25.73874839 22.60812259 25.73874839 22.60812259 28 26 C27.05898437 25.88398437 26.11796875 25.76796875 25.1484375 25.6484375 C21.22825175 25.36436607 17.86846855 25.26542563 14 26 C11.87793933 28.42954293 10.82307046 30.77458504 9.5078125 33.70703125 C8 36 8 36 5.4296875 36.88671875 C2.91152878 37.10065703 0.51992499 37.16932302 -2 37 C-2.06058594 37.71027344 -2.12117188 38.42054687 -2.18359375 39.15234375 C-2.26738281 40.07144531 -2.35117187 40.99054688 -2.4375 41.9375 C-2.55931641 43.31228516 -2.55931641 43.31228516 -2.68359375 44.71484375 C-3 47 -3 47 -4 48 C-5.98 48 -7.96 48 -10 48 C-10.33 43.71 -10.66 39.42 -11 35 C-8.60236815 37.39763185 -8.65719414 38.33273498 -8.375 41.625 C-8.30023437 42.44226563 -8.22546875 43.25953125 -8.1484375 44.1015625 C-8.09945313 44.72804687 -8.05046875 45.35453125 -8 46 C-6.68 46 -5.36 46 -4 46 C-4.33 41.71 -4.66 37.42 -5 33 C-6.65 33 -8.3 33 -10 33 C-10 32.34 -10 31.68 -10 31 C-9.360625 30.87625 -8.72125 30.7525 -8.0625 30.625 C-7.381875 30.41875 -6.70125 30.2125 -6 30 C-5.67 29.34 -5.34 28.68 -5 28 C-7.31 28.33 -9.62 28.66 -12 29 C-11.01 27.02 -10.02 25.04 -9 23 C-7.68 23 -6.36 23 -5 23 C-4.34 18.71 -3.68 14.42 -3 10 C-4.32 10.33 -5.64 10.66 -7 11 C-6.25 8.0625 -6.25 8.0625 -5 5 C-2.875 4.125 -2.875 4.125 -1 4 C-0.67 2.68 -0.34 1.36 0 0 Z " fill="#3E465E" transform="translate(37,40)"/>
<path d="M0 0 C2.475 0.495 2.475 0.495 5 1 C4.67 2.65 4.34 4.3 4 6 C4.66 6 5.32 6 6 6 C6.66 4.68 7.32 3.36 8 2 C8.66 2.33 9.32 2.66 10 3 C9.93993922 4.45947705 9.8511311 5.91779272 9.75 7.375 C9.68039063 8.59316406 9.68039063 8.59316406 9.609375 9.8359375 C9.40828125 10.55007812 9.2071875 11.26421875 9 12 C7.015625 13.1015625 7.015625 13.1015625 5 14 C4.67 14.99 4.34 15.98 4 17 C4.99 16.67 5.98 16.34 7 16 C7.66 16.33 8.32 16.66 9 17 C8.67 17.99 8.34 18.98 8 20 C6.68 20 5.36 20 4 20 C4 20.66 4 21.32 4 22 C5.65 22 7.3 22 9 22 C9.33 26.29 9.66 30.58 10 35 C8.68 35 7.36 35 6 35 C5.34 32.03 4.68 29.06 4 26 C3.34 26.33 2.68 26.66 2 27 C1.21625 26.67 0.4325 26.34 -0.375 26 C-4.94205107 24.74012384 -8.63768311 25.29725666 -13.29296875 25.90625 C-16 26 -16 26 -19 24 C-18.8097328 15.90499548 -18.8097328 15.90499548 -15.875 12.625 C-13.67784138 11.38312774 -11.6304914 10.39082841 -9.3125 9.4375 C-5.78257801 8.26152645 -5.78257801 8.26152645 -4 5 C-6.97851562 5.09765625 -6.97851562 5.09765625 -9.95703125 5.1953125 C-12 5 -12 5 -15 3 C-15 2.34 -15 1.68 -15 1 C-14.34 1 -13.68 1 -13 1 C-13 1.66 -13 2.32 -13 3 C-11.02013918 2.88652381 -9.04108402 2.7589065 -7.0625 2.625 C-5.40927734 2.52058594 -5.40927734 2.52058594 -3.72265625 2.4140625 C-2.82417969 2.27742188 -1.92570312 2.14078125 -1 2 C-0.67 1.34 -0.34 0.68 0 0 Z " fill="#38435C" transform="translate(23,51)"/>
<path d="M0 0 C6.75 -0.125 6.75 -0.125 9 1 C9 2.98 9 4.96 9 7 C9.66 7 10.32 7 11 7 C11 5.02 11 3.04 11 1 C17.75 -0.125 17.75 -0.125 20 1 C20 1.66 20 2.32 20 3 C17.5 4.625 17.5 4.625 15 6 C15.639375 6.28875 16.27875 6.5775 16.9375 6.875 C19 8 19 8 20 10 C20.13415472 12.6723621 20.04318541 15.32250488 20 18 C18.35 17.67 16.7 17.34 15 17 C15 20.63 15 24.26 15 28 C13.68 28.33 12.36 28.66 11 29 C10.7641604 23.22192976 11.13216954 18.48675196 13 13 C12.34 12.67 11.68 12.34 11 12 C11.020625 12.969375 11.04125 13.93875 11.0625 14.9375 C11 18 11 18 10 19 C9.92851801 20.35243917 9.91600546 21.70834367 9.9375 23.0625 C9.958125 24.361875 9.97875 25.66125 10 27 C7.69 27.66 5.38 28.32 3 29 C3 28.34 3 27.68 3 27 C0.69 27 -1.62 27 -4 27 C-4.33 25.35 -4.66 23.7 -5 22 C-4.01 21.67 -3.02 21.34 -2 21 C-3.98 20.67 -5.96 20.34 -8 20 C-8 18.68 -8 17.36 -8 16 C-6.68 15.67 -5.36 15.34 -4 15 C-3.855625 14.236875 -3.71125 13.47375 -3.5625 12.6875 C-3 10 -3 10 -2 7 C-1.34 7 -0.68 7 0 7 C0 4.69 0 2.38 0 0 Z " fill="#F2DA87" transform="translate(58,66)"/>
<path d="M0 0 C1.32 0 2.64 0 4 0 C4 5.61 4 11.22 4 17 C7.3 16.67 10.6 16.34 14 16 C14 16.99 14 17.98 14 19 C-13.6861199 19.12846012 -41.32702431 18.88148415 -69 18 C-69 17.67 -69 17.34 -69 17 C-56.13 17 -43.26 17 -30 17 C-29.67 13.04 -29.34 9.08 -29 5 C-24.71 5 -20.42 5 -16 5 C-15.77213542 7.50651042 -15.54427083 10.01302083 -15.31640625 12.51953125 C-15.06510233 15.12743559 -15.06510233 15.12743559 -14 18 C-13.01 18 -12.02 18 -11 18 C-11.01160156 17.07316406 -11.02320313 16.14632812 -11.03515625 15.19140625 C-11.04417969 13.99386719 -11.05320313 12.79632813 -11.0625 11.5625 C-11.07410156 10.36753906 -11.08570313 9.17257813 -11.09765625 7.94140625 C-11 5 -11 5 -10 4 C-8.48530552 3.76807135 -6.96245438 3.58784762 -5.4375 3.4375 C-4.61121094 3.35371094 -3.78492187 3.26992187 -2.93359375 3.18359375 C-1.97646484 3.09271484 -1.97646484 3.09271484 -1 3 C-0.67 2.01 -0.34 1.02 0 0 Z " fill="#204B64" transform="translate(81,99)"/>
<path d="M0 0 C1.32 0.33 2.64 0.66 4 1 C3.67 5.95 3.34 10.9 3 16 C3.99 16 4.98 16 6 16 C6.33 11.71 6.66 7.42 7 3 C8.32 3 9.64 3 11 3 C11.32297455 9.05278224 11.52333984 13.78023727 8 19 C7.01 19.66 6.02 20.32 5 21 C5.515625 21.53625 6.03125 22.0725 6.5625 22.625 C8 25 8 25 7.6875 28.25 C7.3471875 29.61125 7.3471875 29.61125 7 31 C5.68 31.33 4.36 31.66 3 32 C3 43.55 3 55.1 3 67 C1.68 67 0.36 67 -1 67 C-0.98952637 65.90534424 -0.97905273 64.81068848 -0.96826172 63.68286133 C-0.93198556 59.6107919 -0.90907183 55.53873669 -0.89013672 51.46655273 C-0.88009649 49.70611161 -0.86646156 47.94568709 -0.84912109 46.18530273 C-0.82478564 43.65083715 -0.81349704 41.11659261 -0.8046875 38.58203125 C-0.79436493 37.79850784 -0.78404236 37.01498444 -0.77340698 36.2077179 C-0.77254389 31.97750371 -1.24407639 28.83858237 -3 25 C-2.625 22.6875 -2.625 22.6875 -2 21 C-1.34 21 -0.68 21 0 21 C0 14.07 0 7.14 0 0 Z " fill="#D1D0CA" transform="translate(86,49)"/>
<path d="M0 0 C2.27711621 1.22732704 4.37134529 2.57589713 6.4921875 4.0546875 C7.5853125 4.7146875 8.6784375 5.3746875 9.8046875 6.0546875 C14.92813985 10.59301019 16.11706016 18.69118621 16.83984375 25.171875 C16.99792639 30.24426591 16.86438043 33.97995437 13.4921875 38.0546875 C12.09483739 35.25998728 12.47224843 32.98195071 12.5546875 29.8671875 C12.6053087 24.79381872 12.25571706 20.7941732 10.4921875 16.0546875 C9.9353125 16.2815625 9.3784375 16.5084375 8.8046875 16.7421875 C5.53169149 17.18448426 4.07235398 15.98981236 1.4921875 14.0546875 C1.4921875 13.3946875 1.4921875 12.7346875 1.4921875 12.0546875 C6.2421875 13.9296875 6.2421875 13.9296875 8.4921875 15.0546875 C7.46440084 10.12402201 7.46440084 10.12402201 4.5546875 6.1796875 C-1.53512516 2.85797151 -9.74117241 2.91839623 -16.5078125 4.0546875 C-21.27835827 6.2713678 -24.5694772 8.95986888 -26.734375 13.79296875 C-26.98960938 14.53933594 -27.24484375 15.28570313 -27.5078125 16.0546875 C-26.1878125 16.3846875 -24.8678125 16.7146875 -23.5078125 17.0546875 C-24.1471875 17.8384375 -24.7865625 18.6221875 -25.4453125 19.4296875 C-28.62336532 23.474482 -28.62048209 25.56238964 -28.5703125 30.6796875 C-28.56128906 31.86820313 -28.55226563 33.05671875 -28.54296875 34.28125 C-28.53136719 35.19648437 -28.51976562 36.11171875 -28.5078125 37.0546875 C-31.5078125 36.0546875 -31.5078125 36.0546875 -32.6953125 33.9921875 C-34.91159608 25.97946992 -32.68934944 18.84589087 -30.5078125 11.0546875 C-29.8478125 11.0546875 -29.1878125 11.0546875 -28.5078125 11.0546875 C-28.26804687 10.45914062 -28.02828125 9.86359375 -27.78125 9.25 C-26.2453567 6.60223302 -24.70548613 5.5621814 -22.1328125 3.9296875 C-20.97652344 3.18332031 -20.97652344 3.18332031 -19.796875 2.421875 C-13.42877367 -1.38159849 -7.22493996 -2.72341973 0 0 Z " fill="#254237" transform="translate(75.5078125,10.9453125)"/>
<path d="M0 0 C1.34888732 0.00015905 2.69778075 0.00584927 4.04663086 0.01586914 C5.10991859 0.01799156 5.10991859 0.01799156 6.19468689 0.02015686 C8.46699173 0.02577096 10.73919936 0.03832576 13.01147461 0.05102539 C14.54858257 0.05603858 16.08569206 0.0606018 17.62280273 0.06469727 C21.39823103 0.07574497 25.17358632 0.09301898 28.94897461 0.11352539 C28.94897461 3.41352539 28.94897461 6.71352539 28.94897461 10.11352539 C18.05897461 10.11352539 7.16897461 10.11352539 -4.05102539 10.11352539 C-4.05102539 0.15073432 -4.05102539 0.15073432 0 0 Z " fill="#090F25" transform="translate(99.051025390625,117.886474609375)"/>
<path d="M0 0 C0.99 0.103125 1.98 0.20625 3 0.3125 C5.30055997 3.76333995 5.27010256 5.18425728 5.25 9.25 C5.25515625 10.29027344 5.2603125 11.33054687 5.265625 12.40234375 C5.00629936 15.24348495 4.46519702 16.89957634 3 19.3125 C2.34 19.3125 1.68 19.3125 1 19.3125 C1 19.9725 1 20.6325 1 21.3125 C-1.45382134 22.53941067 -3.19984103 22.51425931 -5.9375 22.5625 C-6.81277344 22.58828125 -7.68804687 22.6140625 -8.58984375 22.640625 C-11.48482506 22.24649464 -12.10839828 21.44455957 -14 19.3125 C-17.10007201 18.11200593 -17.10007201 18.11200593 -20 17.3125 C-19.835 16.735 -19.67 16.1575 -19.5 15.5625 C-18.85537969 13.04585631 -18.85537969 13.04585631 -19 9.3125 C-18.34 9.3125 -17.68 9.3125 -17 9.3125 C-17 8.6525 -17 7.9925 -17 7.3125 C-15.68 6.9825 -14.36 6.6525 -13 6.3125 C-13 4.9925 -13 3.6725 -13 2.3125 C-10.13275314 2.88594937 -9.1385485 3.1739515 -7 5.3125 C-7 6.3025 -7 7.2925 -7 8.3125 C-5.35 8.6425 -3.7 8.9725 -2 9.3125 C-2 9.6425 -2 9.9725 -2 10.3125 C-4.31 10.6425 -6.62 10.9725 -9 11.3125 C-8.81535634 15.65434202 -8.81535634 15.65434202 -7 19.3125 C-6.67 17.9925 -6.34 16.6725 -6 15.3125 C-4.35 14.9825 -2.7 14.6525 -1 14.3125 C-1 12.6625 -1 11.0125 -1 9.3125 C-0.01 10.3025 0.98 11.2925 2 12.3125 C0.6608425 7.80806115 -0.95832452 6.5460575 -5 4.3125 C-5 0.71010595 -3.29140605 0.3428548 0 0 Z " fill="#DAD2D7" transform="translate(83,26.6875)"/>
<path d="M0 0 C1.65 0.66 3.3 1.32 5 2 C5 2.66 5 3.32 5 4 C4.01 4.495 4.01 4.495 3 5 C3 6.65 3 8.3 3 10 C2.34 10 1.68 10 1 10 C1.33 10.886875 1.66 11.77375 2 12.6875 C2.91222143 15.70923347 3.18330958 17.88373706 3 21 C2.34 21.33 1.68 21.66 1 22 C1.33 22.33 1.66 22.66 2 23 C2.04063832 24.66617115 2.042721 26.33388095 2 28 C-0.31 28 -2.62 28 -5 28 C-5 28.99 -5 29.98 -5 31 C-10.28 31 -15.56 31 -21 31 C-21 30.34 -21 29.68 -21 29 C-17.77208445 26.8480563 -16.71599191 26.79913557 -13 27 C-13.33 24.03 -13.66 21.06 -14 18 C-13.34 18 -12.68 18 -12 18 C-12 16.02 -12 14.04 -12 12 C-11.01 12.33 -10.02 12.66 -9 13 C-9.309375 13.969375 -9.61875 14.93875 -9.9375 15.9375 C-11.17967097 20.23664491 -11.61684853 24.55342634 -12 29 C-10.68 28.67 -9.36 28.34 -8 28 C-8 24.37 -8 20.74 -8 17 C-6.35 17.33 -4.7 17.66 -3 18 C-3.33 17.34 -3.66 16.68 -4 16 C-4 14 -4 12 -4 10 C-5.25541557 7.48916886 -6.50063488 7.12874554 -9 6 C-5.25 3 -5.25 3 -3 3 C-2.67 2.34 -2.34 1.68 -2 1 C-1.67 1.33 -1.34 1.66 -1 2 C-0.67 1.34 -0.34 0.68 0 0 Z " fill="#E8CA65" transform="translate(81,66)"/>
<path d="M0 0 C0 10.23 0 20.46 0 31 C-2.64 29.68 -5.28 28.36 -8 27 C-9.32 27.33 -10.64 27.66 -12 28 C-11.814375 27.195625 -11.62875 26.39125 -11.4375 25.5625 C-11.293125 24.716875 -11.14875 23.87125 -11 23 C-11.33 22.67 -11.66 22.34 -12 22 C-13.36957323 11.26130085 -13.36957323 11.26130085 -10.578125 6.65234375 C-3.96815287 0 -3.96815287 0 0 0 Z " fill="#0F1014" transform="translate(128,39)"/>
<path d="M0 0 C1.92050612 0.39859561 3.83635712 0.81965926 5.75 1.25 C6.81734375 1.48203125 7.8846875 1.7140625 8.984375 1.953125 C12.26814405 3.09308628 13.77074995 4.38117228 16 7 C15.01 7.495 15.01 7.495 14 8 C11.875 7.0625 11.875 7.0625 10 6 C9.67 7.98 9.34 9.96 9 12 C8.67 12 8.34 12 8 12 C7.67 10.02 7.34 8.04 7 6 C3.95029075 18.76140474 1.1294107 31.35907496 -0.53515625 44.38671875 C-0.99095139 47.92966413 -1.48720652 51.46490162 -2 55 C-2.33 55 -2.66 55 -3 55 C-3.01458252 53.93563721 -3.02916504 52.87127441 -3.04418945 51.7746582 C-3.1022978 47.81403531 -3.17952945 43.85397352 -3.26245117 39.89379883 C-3.29564169 38.18197762 -3.32369189 36.47004852 -3.34643555 34.75805664 C-3.38009032 32.29266521 -3.43240974 29.82825719 -3.48828125 27.36328125 C-3.49786613 26.22080681 -3.49786613 26.22080681 -3.50764465 25.05525208 C-3.63161943 20.54343426 -4.29608416 17.64194486 -7 14 C-6.38125 13.773125 -5.7625 13.54625 -5.125 13.3125 C-2.27559395 11.55257273 -1.92310733 10.19537152 -1 7 C-0.6186926 4.67402489 -0.27539746 2.34087842 0 0 Z " fill="#28385C" transform="translate(97,55)"/>
<path d="M0 0 C0.66 0.66 1.32 1.32 2 2 C1.01 3.485 1.01 3.485 0 5 C-0.66 5 -1.32 5 -2 5 C-2.06058594 5.61488281 -2.12117188 6.22976562 -2.18359375 6.86328125 C-2.26738281 7.67152344 -2.35117187 8.47976562 -2.4375 9.3125 C-2.51871094 10.11300781 -2.59992187 10.91351563 -2.68359375 11.73828125 C-3 14 -3 14 -4 17 C-4.65067898 24.67801201 -2.59565151 29.3090406 1.77734375 35.52734375 C5.631805 39.81534721 10.63126999 42.05348401 16 44 C18.57036203 44.05841732 20.47422299 43.5911393 23 43 C24.9375 44.4375 24.9375 44.4375 26 46 C25.525625 46.350625 25.05125 46.70125 24.5625 47.0625 C22.32126175 49.84163543 22.32882342 52.5144717 22 56 C21.34 56 20.68 56 20 56 C20 54.02 20 52.04 20 50 C19.34 50 18.68 50 18 50 C17.278125 49.2471875 16.55625 48.494375 15.8125 47.71875 C12.71375464 44.72329615 9.90616246 43.28471216 6 41.5 C1.08840755 39.25591034 -2.54503255 37.21015159 -6 33 C-6.92578125 30.32421875 -6.92578125 30.32421875 -7.3125 27.6875 C-7.45300781 26.80449219 -7.59351563 25.92148437 -7.73828125 25.01171875 C-7.82464844 24.34785156 -7.91101562 23.68398438 -8 23 C-8.66 23 -9.32 23 -10 23 C-10.42765417 16.58518742 -8.85743168 11.11404596 -7 5 C-5.68 5.33 -4.36 5.66 -3 6 C-3 5.01 -3 4.02 -3 3 C-2.34 3 -1.68 3 -1 3 C-0.67 2.01 -0.34 1.02 0 0 Z " fill="#B5A55F" transform="translate(47,17)"/>
<path d="M0 0 C0.33 0 0.66 0 1 0 C1.11998342 17.36806211 0.96438491 34.65389584 0 52 C-1.98 52 -3.96 52 -6 52 C-5.95509101 47.30778484 -5.88450842 42.61682096 -5.79248047 37.92529297 C-5.7646637 36.33717948 -5.74325909 34.74893764 -5.72900391 33.16064453 C-5.46591272 5.46591272 -5.46591272 5.46591272 0 0 Z " fill="#0F1C3C" transform="translate(103,63)"/>
<path d="M0 0 C0.66 0.33 1.32 0.66 2 1 C2 1.66 2 2.32 2 3 C-0.5 4.625 -0.5 4.625 -3 6 C-2.360625 6.28875 -1.72125 6.5775 -1.0625 6.875 C1 8 1 8 2 10 C2.13415472 12.6723621 2.04318541 15.32250488 2 18 C0.35 17.67 -1.3 17.34 -3 17 C-3 20.63 -3 24.26 -3 28 C-4.32 28.33 -5.64 28.66 -7 29 C-7.2358396 23.22192976 -6.86783046 18.48675196 -5 13 C-5.66 12.67 -6.32 12.34 -7 12 C-7 13.98 -7 15.96 -7 18 C-7.99 18 -8.98 18 -10 18 C-9.67 16.02 -9.34 14.04 -9 12 C-9.99 12 -10.98 12 -12 12 C-12 11.34 -12 10.68 -12 10 C-12.66 10 -13.32 10 -14 10 C-14.33 7.03 -14.66 4.06 -15 1 C-13.02 1 -11.04 1 -9 1 C-9 2.98 -9 4.96 -9 7 C-8.34 7 -7.68 7 -7 7 C-7 5.02 -7 3.04 -7 1 C-4.50564175 -0.24717912 -2.76297351 -0.13814868 0 0 Z " fill="#F6DF8E" transform="translate(76,66)"/>
<path d="M0 0 C0.66 0 1.32 0 2 0 C2 0.66 2 1.32 2 2 C5.96 2.33 9.92 2.66 14 3 C14 3.66 14 4.32 14 5 C14.66 5.33 15.32 5.66 16 6 C15.13375 6.36738281 15.13375 6.36738281 14.25 6.7421875 C11.79915522 7.97611977 9.94853732 9.05573579 8 11 C7.2885808 14.4263204 7.51769764 17.55019843 8 21 C8.99 21.33 9.98 21.66 11 22 C11 22.66 11 23.32 11 24 C9.06403108 24.22211116 7.12610672 24.42722992 5.1875 24.625 C3.56908203 24.79902344 3.56908203 24.79902344 1.91796875 24.9765625 C-1 25 -1 25 -4 23 C-3.8097328 14.90499548 -3.8097328 14.90499548 -0.875 11.625 C1.32215862 10.38312774 3.3695086 9.39082841 5.6875 8.4375 C9.21742199 7.26152645 9.21742199 7.26152645 11 4 C8.02148438 4.09765625 8.02148438 4.09765625 5.04296875 4.1953125 C3 4 3 4 0 2 C0 1.34 0 0.68 0 0 Z " fill="#3B435C" transform="translate(8,52)"/>
<path d="M0 0 C2 0.66666667 4 1.33333333 6 2 C6 2.66 6 3.32 6 4 C7.32 4.33 8.64 4.66 10 5 C10.33 4.01 10.66 3.02 11 2 C10.67 3.98 10.34 5.96 10 8 C8.68 8.33 7.36 8.66 6 9 C6 20.55 6 32.1 6 44 C4.68 44 3.36 44 2 44 C2.01047363 42.91581787 2.02094727 41.83163574 2.03173828 40.71459961 C2.06810643 36.66857238 2.09096137 32.62255943 2.10986328 28.57641602 C2.11988268 26.82964645 2.13350195 25.0828935 2.15087891 23.33618164 C2.17530669 20.81652715 2.18652389 18.29709561 2.1953125 15.77734375 C2.20563507 15.00414291 2.21595764 14.23094208 2.22659302 13.43431091 C2.22758391 8.57870404 1.54272894 4.60950327 0 0 Z " fill="#D4CEBA" transform="translate(83,72)"/>
<path d="M0 0 C0.66 0.598125 1.32 1.19625 2 1.8125 C5.58183997 4.42425831 8.81377726 5.58094144 13 7 C13 7.66 13 8.32 13 9 C12.2575 8.835 11.515 8.67 10.75 8.5 C7.80993422 7.88074304 7.80993422 7.88074304 4 8 C4.02320313 8.66386719 4.04640625 9.32773437 4.0703125 10.01171875 C4.24956063 18.78207381 4.24956063 18.78207381 2 23 C1.34 22.67 0.68 22.34 0 22 C0.33 20.68 0.66 19.36 1 18 C-0.32 18 -1.64 18 -3 18 C-3.66 19.32 -4.32 20.64 -5 22 C-6.36952673 19.26094655 -6.12621361 17.02912668 -6 14 C-5.67 13.34 -5.34 12.68 -5 12 C-5.66 12 -6.32 12 -7 12 C-7.33 12.66 -7.66 13.32 -8 14 C-7.60856977 11.72970466 -7.11258722 10.16591802 -5.8125 8.25 C-3.21312784 6.45732954 -1.07660784 6.79489281 2 7 C2 6.34 2 5.68 2 5 C0.02 5 -1.96 5 -4 5 C-3 3 -3 3 0 2 C0 1.34 0 0.68 0 0 Z " fill="#2A5B7E" transform="translate(58,24)"/>
<path d="M0 0 C0.89589844 -0.01417969 1.79179688 -0.02835937 2.71484375 -0.04296875 C5.0625 0.1875 5.0625 0.1875 7.0625 2.1875 C7.6443502 5.84327576 7.80454221 9.49010506 8.0625 13.1875 C3.4425 13.1875 -1.1775 13.1875 -5.9375 13.1875 C-6.03515625 3.91015625 -6.03515625 3.91015625 -5.9375 1.1875 C-4.27188601 -0.47811399 -2.27787295 0.01634055 0 0 Z " fill="#028F44" transform="translate(75.9375,102.8125)"/>
<path d="M0 0 C5.1103144 1.1454153 9.37234081 2.45478745 14 5 C13.01 5.33 12.02 5.66 11 6 C11 6.66 11 7.32 11 8 C11.5775 8.061875 12.155 8.12375 12.75 8.1875 C15.96062054 9.34689075 17.18274325 11.17315616 19 14 C18.67 14.99 18.34 15.98 18 17 C17.34 16.34 16.68 15.68 16 15 C15.67 17.64 15.34 20.28 15 23 C14.67 21.68 14.34 20.36 14 19 C12.68 19 11.36 19 10 19 C10 20.65 10 22.3 10 24 C9.01 23.34 8.02 22.68 7 22 C6.8125 18.375 6.8125 18.375 7 15 C8.98 14.34 10.96 13.68 13 13 C11.02 13.33 9.04 13.66 7 14 C7.33 12.35 7.66 10.7 8 9 C7.4225 8.60167969 6.845 8.20335937 6.25 7.79296875 C5.5075 7.26316406 4.765 6.73335937 4 6.1875 C3.2575 5.66542969 2.515 5.14335937 1.75 4.60546875 C1.1725 4.07566406 0.595 3.54585937 0 3 C0 2.01 0 1.02 0 0 Z " fill="#2A2E60" transform="translate(67,23)"/>
<path d="M0 0 C0.680625 0.78375 1.36125 1.5675 2.0625 2.375 C5.36512873 5.32628525 7.72587578 6.05019462 12 7 C12.99 7.33 13.98 7.66 15 8 C21.53518762 8.57466885 27.65404275 7.48381464 34 6 C34 5.34 34 4.68 34 4 C34.99 3.67 35.98 3.34 37 3 C36.6324752 5.61722206 36.34662286 6.71866037 34.2578125 8.4140625 C33.55398437 8.81367187 32.85015625 9.21328125 32.125 9.625 C31.42632812 10.02976562 30.72765625 10.43453125 30.0078125 10.8515625 C29.01394531 11.42003906 29.01394531 11.42003906 28 12 C27.01 12.66 26.02 13.32 25 14 C22.99453311 13.70131344 20.99422795 13.36628677 19 13 C18.4121875 13.21785156 17.824375 13.43570313 17.21875 13.66015625 C13.68826202 14.20091761 11.51488892 12.5484834 8.4375 10.875 C7.30183594 10.27429687 6.16617188 9.67359375 4.99609375 9.0546875 C1.90119025 6.93223738 0.48620502 5.42107571 -1 2 C-0.67 1.34 -0.34 0.68 0 0 Z " fill="#49471E" transform="translate(48,48)"/>
<path d="M0 0 C0.78375 0.495 1.5675 0.99 2.375 1.5 C4.78552327 3.16537965 4.78552327 3.16537965 7 3 C10.45834372 10.99741985 9.66509811 19.24452308 6.94921875 27.3203125 C6 29 6 29 3 30 C2.34 30.66 1.68 31.32 1 32 C0.74904943 26.47908745 0.74904943 26.47908745 1.98828125 24.11328125 C5.517222 16.74201891 2.37098452 7.2964226 0 0 Z " fill="#BA9C3E" transform="translate(88,22)"/>
<path d="M0 0 C0 11.55 0 23.1 0 35 C-1.32 35 -2.64 35 -4 35 C-4 23.78 -4 12.56 -4 1 C-1 0 -1 0 0 0 Z " fill="#101B36" transform="translate(93,80)"/>
<path d="M0 0 C-2.08118081 10.16236162 -2.08118081 10.16236162 -4 14 C-4.99 14.495 -4.99 14.495 -6 15 C-5.34 15.66 -4.68 16.32 -4 17 C-4 18.32 -4 19.64 -4 21 C-5.32 21 -6.64 21 -8 21 C-8 21.66 -8 22.32 -8 23 C-7.34 23.33 -6.68 23.66 -6 24 C-7.98 23.67 -9.96 23.34 -12 23 C-13.7096833 18.02637585 -12.16829264 14.52320063 -10 10 C-4.03846154 0 -4.03846154 0 0 0 Z " fill="#EDD16F" transform="translate(52,69)"/>
<path d="M0 0 C2.31 0 4.62 0 7 0 C5.68 0.33 4.36 0.66 3 1 C3.33 1.66 3.66 2.32 4 3 C4.04022391 5.3329866 4.04320247 7.66706666 4 10 C4.66 10 5.32 10 6 10 C6 10.66 6 11.32 6 12 C6.99 12 7.98 12 9 12 C9 12.66 9 13.32 9 14 C8.319375 13.95875 7.63875 13.9175 6.9375 13.875 C3.40075832 14.02549965 0.36676967 14.94375853 -3 16 C-0.69 16.66 1.62 17.32 4 18 C4 18.66 4 19.32 4 20 C0.90521121 21.03159626 -0.52631393 20.97482862 -3.6875 20.5625 C-4.49574219 20.46066406 -5.30398437 20.35882813 -6.13671875 20.25390625 C-7.05904297 20.12822266 -7.05904297 20.12822266 -8 20 C-8 18.68 -8 17.36 -8 16 C-6.68 15.67 -5.36 15.34 -4 15 C-3.855625 14.236875 -3.71125 13.47375 -3.5625 12.6875 C-3 10 -3 10 -2 7 C-1.34 7 -0.68 7 0 7 C0 4.69 0 2.38 0 0 Z " fill="#EDD26F" transform="translate(58,66)"/>
<path d="M0 0 C0.73605469 0.08121094 1.47210938 0.16242188 2.23046875 0.24609375 C0.91046875 0.57609375 -0.40953125 0.90609375 -1.76953125 1.24609375 C-1.76953125 3.55609375 -1.76953125 5.86609375 -1.76953125 8.24609375 C-2.42953125 8.24609375 -3.08953125 8.24609375 -3.76953125 8.24609375 C-3.91390625 9.00921875 -4.05828125 9.77234375 -4.20703125 10.55859375 C-4.76953125 13.24609375 -4.76953125 13.24609375 -5.76953125 16.24609375 C-7.83203125 16.93359375 -7.83203125 16.93359375 -9.76953125 17.24609375 C-10.09953125 19.88609375 -10.42953125 22.52609375 -10.76953125 25.24609375 C-11.03765625 24.64796875 -11.30578125 24.04984375 -11.58203125 23.43359375 C-12.75446592 21.27384567 -13.96322407 19.88819119 -15.76953125 18.24609375 C-14.44953125 18.24609375 -13.12953125 18.24609375 -11.76953125 18.24609375 C-11.66640625 17.60671875 -11.56328125 16.96734375 -11.45703125 16.30859375 C-10.53050052 12.18132049 -9.15292496 8.23966426 -7.76953125 4.24609375 C-9.08953125 5.56609375 -10.40953125 6.88609375 -11.76953125 8.24609375 C-12.42953125 7.91609375 -13.08953125 7.58609375 -13.76953125 7.24609375 C-10.17284721 0.30077284 -7.72753636 -0.5001972 0 0 Z " fill="#DFBE49" transform="translate(59.76953125,64.75390625)"/>
<path d="M0 0 C0.99 0.103125 1.98 0.20625 3 0.3125 C5.30055997 3.76333995 5.27010256 5.18425728 5.25 9.25 C5.25515625 10.29027344 5.2603125 11.33054687 5.265625 12.40234375 C5.00629936 15.24348495 4.46519702 16.89957634 3 19.3125 C2.34 19.3125 1.68 19.3125 1 19.3125 C1 19.9725 1 20.6325 1 21.3125 C-2.01031744 22.24673645 -2.86650268 22.35699911 -6 21.3125 C-6 19.3325 -6 17.3525 -6 15.3125 C-4.35 14.9825 -2.7 14.6525 -1 14.3125 C-1 12.6625 -1 11.0125 -1 9.3125 C-0.01 10.3025 0.98 11.2925 2 12.3125 C0.6608425 7.80806115 -0.95832452 6.5460575 -5 4.3125 C-5 0.71010595 -3.29140605 0.3428548 0 0 Z " fill="#CBC7CC" transform="translate(83,26.6875)"/>
<path d="M0 0 C1.65 0 3.3 0 5 0 C5 1.32 5 2.64 5 4 C7.97 4 10.94 4 14 4 C14 3.01 14 2.02 14 1 C16.64 1 19.28 1 22 1 C21.67 6.61 21.34 12.22 21 18 C20.01 18 19.02 18 18 18 C15.07667731 13.61501596 15.8643498 10.2225328 16 5 C11.71 5 7.42 5 3 5 C2.67 6.32 2.34 7.64 2 9 C1.34 6.03 0.68 3.06 0 0 Z " fill="#545E70" transform="translate(49,99)"/>
<path d="M0 0 C0.66 0 1.32 0 2 0 C2.15855469 0.66386719 2.31710938 1.32773437 2.48046875 2.01171875 C2.71378906 2.89472656 2.94710937 3.77773438 3.1875 4.6875 C3.40792969 5.55761719 3.62835938 6.42773438 3.85546875 7.32421875 C6.63371404 13.81943386 12.11896851 16.34610685 18.1875 19.125 C25.73874839 22.60812259 25.73874839 22.60812259 28 26 C23.71 25.67 19.42 25.34 15 25 C14.67 23.35 14.34 21.7 14 20 C12.6696875 19.690625 12.6696875 19.690625 11.3125 19.375 C6.58482302 17.41256804 4.18513801 14.46508705 2.0234375 9.96875 C0.57268869 6.33509878 0 4.00654007 0 0 Z " fill="#966E0E" transform="translate(37,40)"/>
<path d="M0 0 C0.66 0.33 1.32 0.66 2 1 C1.79375 1.53625 1.5875 2.0725 1.375 2.625 C0.8685253 5.83267308 1.84599775 8.01317066 3 11 C3.99 11 4.98 11 6 11 C7.6875 13.5 7.6875 13.5 9 16 C5.104269 14.84898857 2.05612289 13.71655368 -1 11 C-1.33 10.34 -1.66 9.68 -2 9 C-2.66 9 -3.32 9 -4 9 C-4.226875 9.639375 -4.45375 10.27875 -4.6875 10.9375 C-6 13 -6 13 -8.625 13.75 C-9.40875 13.8325 -10.1925 13.915 -11 14 C-11.33 13.01 -11.66 12.02 -12 11 C-9.11080329 6.15469346 -4.76993569 2.83924743 0 0 Z " fill="#60B3E0" transform="translate(59,14)"/>
<path d="M0 0 C4.29 0 8.58 0 13 0 C13 2.97 13 5.94 13 9 C9.37 8.67 5.74 8.34 2 8 C2 8.66 2 9.32 2 10 C1.34 10 0.68 10 0 10 C0 6.7 0 3.4 0 0 Z " fill="#059C55" transform="translate(52,104)"/>
<path d="M0 0 C8.12628256 -0.46882399 8.12628256 -0.46882399 11.5625 1.375 C13 3 13 3 13 5 C0.77603644 6.0297594 -11.24979794 5.96159234 -23.5 5.5625 C-25.30596993 5.50909679 -27.11195966 5.45635877 -28.91796875 5.40429688 C-33.27891122 5.27716828 -37.63948968 5.14114688 -42 5 C-42 4.67 -42 4.34 -42 4 C-29.13 4 -16.26 4 -3 4 C-2.67 3.01 -2.34 2.02 -2 1 C-1.34 1.33 -0.68 1.66 0 2 C0 1.34 0 0.68 0 0 Z " fill="#425272" transform="translate(54,112)"/>
<path d="M0 0 C0.33 0 0.66 0 1 0 C0.59943096 4.9544065 0.10096959 9.82222909 -0.9375 14.6875 C-2.10958915 20.21556225 -2.81952475 25.78586728 -3.53515625 31.38671875 C-3.99095139 34.92966413 -4.48720652 38.46490162 -5 42 C-5.33 42 -5.66 42 -6 42 C-6.19217298 37.47975725 -6.37090744 32.95926059 -6.53710938 28.43798828 C-6.59557259 26.89943132 -6.65773085 25.3610102 -6.72363281 23.82275391 C-6.81762837 21.61385835 -6.89840086 19.40481787 -6.9765625 17.1953125 C-7.00875885 16.50567413 -7.0409552 15.81603577 -7.0741272 15.10549927 C-7.12770248 13.40433023 -7.0726782 11.70046002 -7 10 C-6.34 9.34 -5.68 8.68 -5 8 C-4.67 9.32 -4.34 10.64 -4 12 C-3.79503906 11.21753906 -3.59007813 10.43507813 -3.37890625 9.62890625 C-3.10949219 8.61699219 -2.84007813 7.60507813 -2.5625 6.5625 C-2.29566406 5.55316406 -2.02882813 4.54382813 -1.75390625 3.50390625 C-1 1 -1 1 0 0 Z " fill="#23355C" transform="translate(100,68)"/>
<path d="M0 0 C-0.33 1.32 -0.66 2.64 -1 4 C-3.97 4 -6.94 4 -10 4 C-10 3.01 -10 2.02 -10 1 C-12.64 1 -15.28 1 -18 1 C-18 1.99 -18 2.98 -18 4 C-20.97 4 -23.94 4 -27 4 C-27 2.68 -27 1.36 -27 0 C-18.20381809 -1.40738911 -8.72130047 -2.06946113 0 0 Z " fill="#8E7941" transform="translate(81,99)"/>
<path d="M0 0 C8.29050279 3.2849162 8.29050279 3.2849162 10 6 C10.1875 9.1875 10.1875 9.1875 10 12 C5.25 10.125 5.25 10.125 3 9 C3.99 10.32 4.98 11.64 6 13 C1.31261335 12.09276387 -3.34193744 11.0452733 -8 10 C-8 9.01 -8 8.02 -8 7 C-6.7625 7.04125 -5.525 7.0825 -4.25 7.125 C-0.98362038 7.13658291 1.2146947 6.8568702 4 5 C4 4.34 4 3.68 4 3 C2.68 2.67 1.36 2.34 0 2 C0 1.34 0 0.68 0 0 Z " fill="#72BCE8" transform="translate(74,14)"/>
<path d="M0 0 C0.66 0.66 1.32 1.32 2 2 C1.01 3.485 1.01 3.485 0 5 C-0.66 5 -1.32 5 -2 5 C-2.12375 5.7425 -2.2475 6.485 -2.375 7.25 C-3 10 -3 10 -4 11.8125 C-5.23075167 14.50476929 -5.4146141 16.80459736 -5.625 19.75 C-5.69976562 20.73484375 -5.77453125 21.7196875 -5.8515625 22.734375 C-5.90054688 23.48203125 -5.94953125 24.2296875 -6 25 C-6.66 25 -7.32 25 -8 25 C-8 24.34 -8 23.68 -8 23 C-8.66 23 -9.32 23 -10 23 C-10.42765417 16.58518742 -8.85743168 11.11404596 -7 5 C-5.68 5.33 -4.36 5.66 -3 6 C-3 5.01 -3 4.02 -3 3 C-2.34 3 -1.68 3 -1 3 C-0.67 2.01 -0.34 1.02 0 0 Z " fill="#D3B54F" transform="translate(47,17)"/>
<path d="M0 0 C0.66 0 1.32 0 2 0 C2 0.66 2 1.32 2 2 C2.66 2.33 3.32 2.66 4 3 C4.12933602 9.75421451 3.76715751 16.28737179 3 23 C0.03 23 -2.94 23 -6 23 C-6 22.01 -6 21.02 -6 20 C-6.3062434 18.66018514 -6.63451555 17.32488113 -7 16 C-6.67 16.66 -6.34 17.32 -6 18 C-3.69 18 -1.38 18 1 18 C0.42547254 14.06924356 0.42547254 14.06924356 -2 11 C-0.68 11 0.64 11 2 11 C1.67 9.9275 1.34 8.855 1 7.75 C0 4 0 4 0 0 Z " fill="#C9AA41" transform="translate(82,76)"/>
<path d="M0 0 C1.98 0 3.96 0 6 0 C6 1.98 6 3.96 6 6 C6.66 6 7.32 6 8 6 C8.33 5.34 8.66 4.68 9 4 C9 5.65 9 7.3 9 9 C9.66 9 10.32 9 11 9 C11 9.66 11 10.32 11 11 C10.01 11 9.02 11 8 11 C8 12.98 8 14.96 8 17 C7.01 17 6.02 17 5 17 C5.33 15.02 5.66 13.04 6 11 C5.01 11 4.02 11 3 11 C3 10.34 3 9.68 3 9 C2.34 9 1.68 9 1 9 C0.67 6.03 0.34 3.06 0 0 Z " fill="#F6C289" transform="translate(61,67)"/>
<path d="M0 0 C0.66 0 1.32 0 2 0 C2 0.66 2 1.32 2 2 C5.96 2.33 9.92 2.66 14 3 C14 3.66 14 4.32 14 5 C14.66 5.33 15.32 5.66 16 6 C15.43410156 6.27972656 14.86820313 6.55945312 14.28515625 6.84765625 C11.99563649 8.09904578 9.98639601 9.30337423 8 11 C6.86521513 14.66945626 6.86521513 14.66945626 7 18 C5.68 18.33 4.36 18.66 3 19 C2.67 17.02 2.34 15.04 2 13 C1.01 12.67 0.02 12.34 -1 12 C-0.30132812 11.67386719 0.39734375 11.34773438 1.1171875 11.01171875 C2.48230469 10.35623047 2.48230469 10.35623047 3.875 9.6875 C4.77992187 9.25824219 5.68484375 8.82898437 6.6171875 8.38671875 C9.26449476 7.0800612 9.26449476 7.0800612 11 4 C8.02148438 4.09765625 8.02148438 4.09765625 5.04296875 4.1953125 C3 4 3 4 0 2 C0 1.34 0 0.68 0 0 Z " fill="#434A63" transform="translate(8,52)"/>
<path d="M0 0 C2.97 0.495 2.97 0.495 6 1 C5.45859375 1.64001953 5.45859375 1.64001953 4.90625 2.29296875 C0.21588101 8.61193808 0.4753363 14.35156915 1 22 C-2 21 -2 21 -3.1875 18.9375 C-4.50075342 14.18958378 -4.57530849 9.72592546 -3 5 C-2.34 4.67 -1.68 4.34 -1 4 C-0.34786708 1.97536745 -0.34786708 1.97536745 0 0 Z " fill="#287090" transform="translate(46,26)"/>
<path d="M0 0 C0.66 0 1.32 0 2 0 C3.81242323 4.0188515 5.33501617 7.61110675 6 12 C6.66 12 7.32 12 8 12 C8.55353075 23.70615034 8.55353075 23.70615034 5 28 C3.60264989 25.20529978 3.98006093 22.92726321 4.0625 19.8125 C4.1131212 14.73913122 3.76352956 10.7394857 2 6 C1.1646875 6.3403125 1.1646875 6.3403125 0.3125 6.6875 C-2.96049601 7.12979676 -4.41983352 5.93512486 -7 4 C-7 3.34 -7 2.68 -7 2 C-2.25 3.875 -2.25 3.875 0 5 C0 3.35 0 1.7 0 0 Z " fill="#20709C" transform="translate(84,21)"/>
<path d="M0 0 C2.475 0.99 2.475 0.99 5 2 C5 2.66 5 3.32 5 4 C4.01 4.495 4.01 4.495 3 5 C3 6.65 3 8.3 3 10 C2.34 10 1.68 10 1 10 C1.33 10.886875 1.66 11.77375 2 12.6875 C2.91222143 15.70923347 3.18330958 17.88373706 3 21 C0.625 21.625 0.625 21.625 -2 22 C-2.66 21.34 -3.32 20.68 -4 20 C-2.68 20 -1.36 20 0 20 C0 18.35 0 16.7 0 15 C-0.66 15 -1.32 15 -2 15 C-2.33 10.38 -2.66 5.76 -3 1 C-2.34 1.33 -1.68 1.66 -1 2 C-0.67 1.34 -0.34 0.68 0 0 Z " fill="#DFB940" transform="translate(81,66)"/>
<path d="M0 0 C0.33 0 0.66 0 1 0 C1 8.91 1 17.82 1 27 C-0.65 27 -2.3 27 -4 27 C-3.67 22.71 -3.34 18.42 -3 14 C-2.34 14 -1.68 14 -1 14 C-1.01160156 13.07316406 -1.02320312 12.14632812 -1.03515625 11.19140625 C-1.04417969 9.99386719 -1.05320312 8.79632813 -1.0625 7.5625 C-1.07410156 6.36753906 -1.08570312 5.17257813 -1.09765625 3.94140625 C-1 1 -1 1 0 0 Z " fill="#0B1330" transform="translate(101,88)"/>
<path d="M0 0 C-0.375 1.9375 -0.375 1.9375 -1 4 C-1.99 4.495 -1.99 4.495 -3 5 C-2.67 6.32 -2.34 7.64 -2 9 C-2.66 9 -3.32 9 -4 9 C-4.33 10.32 -4.66 11.64 -5 13 C-5.33 12.34 -5.66 11.68 -6 11 C-8.35599235 10.53248212 -8.35599235 10.53248212 -11.0625 10.375 C-11.98160156 10.30023438 -12.90070313 10.22546875 -13.84765625 10.1484375 C-14.55792969 10.09945312 -15.26820312 10.05046875 -16 10 C-12.83434809 4.96373559 -6.22391153 0 0 0 Z " fill="#A5780B" transform="translate(85,57)"/>
<path d="M0 0 C6.3833448 -0.48176187 6.3833448 -0.48176187 9 1.5625 C10.39537637 4.96372991 9.74768043 7.4655107 9 11 C8.01 11 7.02 11 6 11 C6.33 9.68 6.66 8.36 7 7 C5.68 7 4.36 7 3 7 C2.34 8.32 1.68 9.64 1 11 C-0.20272819 8.59454362 -0.10071472 7.05003047 -0.0625 4.375 C-0.05347656 3.55773438 -0.04445312 2.74046875 -0.03515625 1.8984375 C-0.02355469 1.27195313 -0.01195312 0.64546875 0 0 Z " fill="#455FB7" transform="translate(52,35)"/>
<path d="M0 0 C2.31 0 4.62 0 7 0 C7.33 0.66 7.66 1.32 8 2 C7.34 2 6.68 2 6 2 C6 3.32 6 4.64 6 6 C6.56203125 6.10183594 7.1240625 6.20367187 7.703125 6.30859375 C10.45339488 7.13648111 12.39095874 8.43198618 14.75 10.0625 C15.54921875 10.61035156 16.3484375 11.15820312 17.171875 11.72265625 C17.77515625 12.14417969 18.3784375 12.56570312 19 13 C16 13 16 13 13.3125 11.625 C9.53469711 9.77173821 6.09619051 8.91811167 2 8 C1.67 6.68 1.34 5.36 1 4 C0.34 4 -0.32 4 -1 4 C-0.67 2.68 -0.34 1.36 0 0 Z " fill="#0D111A" transform="translate(96,48)"/>
<path d="M0 0 C0 6.6 0 13.2 0 20 C-0.99 19.67 -1.98 19.34 -3 19 C-4.1875 16.4375 -4.1875 16.4375 -5 14 C-4.01 13.34 -3.02 12.68 -2 12 C-1.67 11.01 -1.34 10.02 -1 9 C-2.04800781 9.55880859 -2.04800781 9.55880859 -3.1171875 10.12890625 C-4.02726562 10.60199219 -4.93734375 11.07507812 -5.875 11.5625 C-7.23238281 12.27599609 -7.23238281 12.27599609 -8.6171875 13.00390625 C-9.40351562 13.33261719 -10.18984375 13.66132812 -11 14 C-11.66 13.67 -12.32 13.34 -13 13 C-12.30132812 12.61328125 -11.60265625 12.2265625 -10.8828125 11.828125 C-9.97273438 11.30734375 -9.06265625 10.7865625 -8.125 10.25 C-7.22007813 9.73953125 -6.31515625 9.2290625 -5.3828125 8.703125 C-2.61192024 7.00319658 -2.61192024 7.00319658 -1 3 C-5.29 3 -9.58 3 -14 3 C-14 2.67 -14 2.34 -14 2 C-13.22914062 1.93941406 -12.45828125 1.87882812 -11.6640625 1.81640625 C-10.15972656 1.69072266 -10.15972656 1.69072266 -8.625 1.5625 C-7.62726563 1.48128906 -6.62953125 1.40007813 -5.6015625 1.31640625 C-3.59680391 1.07258426 -1.89294725 0 0 0 Z " fill="#B8A373" transform="translate(86,48)"/>
<path d="M0 0 C0.33 0 0.66 0 1 0 C1 9.57 1 19.14 1 29 C0.67 29 0.34 29 0 29 C-0.33 23.72 -0.66 18.44 -1 13 C-1.28875 14.794375 -1.5775 16.58875 -1.875 18.4375 C-2.3671875 21.49609375 -2.3671875 21.49609375 -3 24 C-3.66 24.33 -4.32 24.66 -5 25 C-5.20400323 19.14971371 -4.58102948 14.20050045 -3.0625 8.5625 C-2.78889648 7.48452148 -2.78889648 7.48452148 -2.50976562 6.38476562 C-1.15055006 1.15055006 -1.15055006 1.15055006 0 0 Z " fill="#122448" transform="translate(103,63)"/>
<path d="M0 0 C0.33 1.32 0.66 2.64 1 4 C1.99 4 2.98 4 4 4 C4 4.66 4 5.32 4 6 C3.01 6 2.02 6 1 6 C1 6.66 1 7.32 1 8 C2.32 8.33 3.64 8.66 5 9 C3.02 9.66 1.04 10.32 -1 11 C-1 10.34 -1 9.68 -1 9 C-3.31 9 -5.62 9 -8 9 C-8.33 7.35 -8.66 5.7 -9 4 C-6.03 3.34 -3.06 2.68 0 2 C0 1.34 0 0.68 0 0 Z " fill="#F2D876" transform="translate(62,84)"/>
<path d="M0 0 C1.32 0 2.64 0 4 0 C4 0.66 4 1.32 4 2 C5.98 1.67 7.96 1.34 10 1 C6.77853702 3.76125398 3.98537987 5.56935081 0 7 C-1.34050052 7.65213539 -2.67661368 8.31379969 -4 9 C-4 9.99 -4 10.98 -4 12 C-4.99 11.67 -5.98 11.34 -7 11 C-5.50596652 6.38207835 -3.35726951 3.4372045 0 0 Z " fill="#EAD067" transform="translate(48,11)"/>
<path d="M0 0 C0.33 0 0.66 0 1 0 C1.83211276 5.03854106 2.1078534 9.8125662 2.0625 14.9375 C2.05798828 15.62134766 2.05347656 16.30519531 2.04882812 17.00976562 C2.0371956 18.67321604 2.01926694 20.3366205 2 22 C0.68 22 -0.64 22 -2 22 C-1.86181468 18.52048477 -1.71317399 15.04149505 -1.5625 11.5625 C-1.52318359 10.56927734 -1.48386719 9.57605469 -1.44335938 8.55273438 C-1.40146484 7.60849609 -1.35957031 6.66425781 -1.31640625 5.69140625 C-1.27974854 4.81685791 -1.24309082 3.94230957 -1.20532227 3.04125977 C-1 1 -1 1 0 0 Z " fill="#DFDFD5" transform="translate(87,94)"/>
<path d="M0 0 C5.75 0.75 5.75 0.75 8 3 C8 4.32 8 5.64 8 7 C6.68 7 5.36 7 4 7 C4 7.66 4 8.32 4 9 C4.66 9.33 5.32 9.66 6 10 C3.03 9.505 3.03 9.505 0 9 C-0.84454356 5.62182575 -1.10844919 3.32534757 0 0 Z " fill="#DAD1D0" transform="translate(40,83)"/>
<path d="M0 0 C0.144375 1.0725 0.28875 2.145 0.4375 3.25 C0.8431997 6.74705246 0.8431997 6.74705246 1.6875 8.96875 C2.12345567 11.80246184 1.15394195 12.92106057 -0.4375 15.25 C-0.91058594 15.95640625 -1.38367187 16.6628125 -1.87109375 17.390625 C-2.24363281 17.92171875 -2.61617187 18.4528125 -3 19 C-3.66 18.67 -4.32 18.34 -5 18 C-4.68458836 14.66468965 -4.34869692 11.33199282 -4 8 C-3.9278125 7.278125 -3.855625 6.55625 -3.78125 5.8125 C-3.59292452 4.1982816 -3.30564883 2.59616613 -3 1 C-1 0 -1 0 0 0 Z " fill="#25334E" transform="translate(34,28)"/>
<path d="M0 0 C1.65 0 3.3 0 5 0 C4.67 1.65 4.34 3.3 4 5 C4.75925781 5.03738281 5.51851562 5.07476562 6.30078125 5.11328125 C7.29464844 5.17902344 8.28851563 5.24476562 9.3125 5.3125 C10.29863281 5.37050781 11.28476562 5.42851563 12.30078125 5.48828125 C15 6 15 6 18 9 C13.05 9 8.1 9 3 9 C3 7.68 3 6.36 3 5 C1.824375 5.0928125 1.824375 5.0928125 0.625 5.1875 C-0.24125 5.125625 -1.1075 5.06375 -2 5 C-2.66 4.01 -3.32 3.02 -4 2 C-2.68 2 -1.36 2 0 2 C0 1.34 0 0.68 0 0 Z " fill="#BF9F45" transform="translate(44,90)"/>
<path d="M0 0 C0.66 1.32 1.32 2.64 2 4 C0.68 4.33 -0.64 4.66 -2 5 C-0.35 5.33 1.3 5.66 3 6 C3 6.66 3 7.32 3 8 C1.9275 8.2475 0.855 8.495 -0.25 8.75 C-3.99649437 9.99883146 -5.52073882 11.02488658 -8 14 C-9 13 -9 13 -9.2734375 10.70703125 C-8.93238751 7.33063636 -7.90377064 6.15694329 -5.625 3.6875 C-4.99851562 2.99011719 -4.37203125 2.29273438 -3.7265625 1.57421875 C-2 0 -2 0 0 0 Z " fill="#CCCBD3" transform="translate(57,23)"/>
<path d="M0 0 C1.98 0.99 3.96 1.98 6 3 C4.63855967 8.19822672 2.53269829 11.09543873 -1 15 C-1.66 14.01 -2.32 13.02 -3 12 C-2.39031953 10.31165408 -1.71162443 8.64797236 -1 7 C-0.6186926 4.67402489 -0.27539746 2.34087842 0 0 Z " fill="#34456A" transform="translate(97,55)"/>
<path d="M0 0 C0.66 0 1.32 0 2 0 C2.33 0.66 2.66 1.32 3 2 C3.33 1.67 3.66 1.34 4 1 C6.67058851 0.85884839 9.32432238 0.95752893 12 1 C12 3.31 12 5.62 12 8 C11.01 8.495 11.01 8.495 10 9 C8.51444617 8.07265428 7.03672494 7.13275187 5.5625 6.1875 C4.73878906 5.66542969 3.91507812 5.14335938 3.06640625 4.60546875 C1 3 1 3 0 0 Z " fill="#686A85" transform="translate(103,51)"/>
<path d="M0 0 C0.928125 0.2784375 0.928125 0.2784375 1.875 0.5625 C4.04160178 1.23686176 4.04160178 1.23686176 6 0 C6.32613281 0.48210938 6.65226562 0.96421875 6.98828125 1.4609375 C7.64376953 2.40839844 7.64376953 2.40839844 8.3125 3.375 C8.74175781 4.00148438 9.17101562 4.62796875 9.61328125 5.2734375 C11.06920339 7.26378845 11.06920339 7.26378845 14 9 C6.46711409 9.3704698 6.46711409 9.3704698 4.1875 7.5625 C3.5996875 6.7890625 3.5996875 6.7890625 3 6 C2.01 5.67 1.02 5.34 0 5 C-0.33 4.01 -0.66 3.02 -1 2 C-0.67 1.34 -0.34 0.68 0 0 Z " fill="#DCD3D9" transform="translate(66,40)"/>
<path d="M0 0 C1.65 0 3.3 0 5 0 C5 1.32 5 2.64 5 4 C7.97 4 10.94 4 14 4 C14 3.01 14 2.02 14 1 C15.65 1 17.3 1 19 1 C19 2.32 19 3.64 19 5 C18.34 5 17.68 5 17 5 C16.67 5.99 16.34 6.98 16 8 C16 7.01 16 6.02 16 5 C11.71 5 7.42 5 3 5 C2.67 6.32 2.34 7.64 2 9 C1.34 6.03 0.68 3.06 0 0 Z " fill="#565D58" transform="translate(49,99)"/>
<path d="M0 0 C0.66 0.33 1.32 0.66 2 1 C2 1.66 2 2.32 2 3 C-0.5 4.625 -0.5 4.625 -3 6 C-1.68 6.66 -0.36 7.32 1 8 C-1.375 9.5625 -1.375 9.5625 -4 11 C-4.66 10.67 -5.32 10.34 -6 10 C-6.4140625 7.93359375 -6.4140625 7.93359375 -6.625 5.4375 C-6.69976562 4.61121094 -6.77453125 3.78492187 -6.8515625 2.93359375 C-6.90054688 2.29550781 -6.94953125 1.65742187 -7 1 C-4.50564175 -0.24717912 -2.76297351 -0.13814868 0 0 Z " fill="#F8E09D" transform="translate(76,66)"/>
<path d="M0 0 C5.8997555 5.58924205 5.8997555 5.58924205 7 9 C6.625 11.25 6.625 11.25 6 13 C-2.95348837 6.09302326 -2.95348837 6.09302326 -5 2 C-3.35 2 -1.7 2 0 2 C0 1.34 0 0.68 0 0 Z " fill="#E5CD80" transform="translate(87,13)"/>
<path d="M0 0 C0.99 0 1.98 0 3 0 C3.33 4.29 3.66 8.58 4 13 C2.68 13 1.36 13 0 13 C-1.33106125 9.00681626 -1.13647721 5.16255487 -1 1 C-0.67 0.67 -0.34 0.34 0 0 Z " fill="#2D3A55" transform="translate(29,73)"/>
<path d="M0 0 C1.79158489 -0.02696365 3.58328473 -0.04637917 5.375 -0.0625 C6.37273437 -0.07410156 7.37046875 -0.08570313 8.3984375 -0.09765625 C11 0 11 0 13 1 C12.67 1.99 12.34 2.98 12 4 C10.39884424 4.2493357 8.79379841 4.47378648 7.1875 4.6875 C6.29417969 4.81511719 5.40085937 4.94273438 4.48046875 5.07421875 C2 5 2 5 0.17578125 3.51953125 C-0.21222656 3.01808594 -0.60023437 2.51664063 -1 2 C-0.67 1.34 -0.34 0.68 0 0 Z " fill="#A0D7F2" transform="translate(62,15)"/>
<path d="M0 0 C5.80261834 0.20360064 9.25702741 1.07902597 13.51953125 5.1171875 C16.05964106 8.34761739 17.41014417 11.9447412 18 16 C17.5625 18.2734375 17.5625 18.2734375 17 20 C16.32332002 18.75539217 15.65905281 17.50403104 15 16.25 C14.62875 15.55390625 14.2575 14.8578125 13.875 14.140625 C13 12 13 12 13 8 C12.4225 7.731875 11.845 7.46375 11.25 7.1875 C9 6 9 6 7.0625 4.5 C4.80767423 2.86012671 2.61321478 1.94366089 0 1 C0 0.67 0 0.34 0 0 Z " fill="#354631" transform="translate(73,13)"/>
<path d="M0 0 C3.96 0 7.92 0 12 0 C12 2.97 12 5.94 12 9 C9 8 9 8 7.125 5.5625 C4.85319667 2.82297246 3.34957646 2.0234817 0 1 C0 0.67 0 0.34 0 0 Z " fill="#067633" transform="translate(53,104)"/>
<path d="M0 0 C0.33 0 0.66 0 1 0 C1.02693575 2.12493141 1.04636628 4.24995912 1.0625 6.375 C1.07410156 7.55835938 1.08570312 8.74171875 1.09765625 9.9609375 C1 13 1 13 0 15 C-7.18657704 17.02402705 -15.76989207 16.60669065 -23 15 C-23 14.67 -23 14.34 -23 14 C-16.73 14 -10.46 14 -4 14 C-4 13.34 -4 12.68 -4 12 C-3.34 12 -2.68 12 -2 12 C-1.34 8.04 -0.68 4.08 0 0 Z " fill="#A6ABAF" transform="translate(88,34)"/>
<path d="M0 0 C-0.60183749 2.02045442 -1.27306096 4.02111039 -2 6 C-2.99 6.495 -2.99 6.495 -4 7 C-4.65555119 9.52733235 -4.65555119 9.52733235 -5 12 C-5.66 11.67 -6.32 11.34 -7 11 C-8.49347258 3.8772846 -8.49347258 3.8772846 -6.875 1 C-4.46618158 -0.28470316 -2.69027121 -0.2181301 0 0 Z " fill="#60606E" transform="translate(44,76)"/>
<path d="M0 0 C0.66 0 1.32 0 2 0 C2.02694851 1.95825873 2.04637218 3.91662226 2.0625 5.875 C2.07410156 6.96554688 2.08570312 8.05609375 2.09765625 9.1796875 C2 12 2 12 1 14 C0.01 14 -0.98 14 -2 14 C-2.05410687 12.22950311 -2.09284119 10.45853151 -2.125 8.6875 C-2.14820312 7.70136719 -2.17140625 6.71523438 -2.1953125 5.69921875 C-2 3 -2 3 0 0 Z " fill="#695E48" transform="translate(91,51)"/>
<path d="M0 0 C0.66 0 1.32 0 2 0 C2.15855469 0.66386719 2.31710938 1.32773437 2.48046875 2.01171875 C4.01859618 7.83280876 5.55301894 10.80007345 10 15 C9.640625 17.1328125 9.640625 17.1328125 9 19 C3.52836024 13.33357695 0 8.17273212 0 0 Z " fill="#8C6E26" transform="translate(37,40)"/>
<path d="M0 0 C-0.33 1.32 -0.66 2.64 -1 4 C0.32 4.33 1.64 4.66 3 5 C-0.3 5.66 -3.6 6.32 -7 7 C-7 6.34 -7 5.68 -7 5 C-7.99 4.67 -8.98 4.34 -10 4 C-6.58908673 0.88145073 -4.68377325 -0.53528837 0 0 Z " fill="#F9DE87" transform="translate(59,6)"/>
<path d="M0 0 C2.75 0.25 2.75 0.25 5 1 C2.23776722 3.76223278 -0.20706617 3.57856291 -4 4 C-2.3125 1.9375 -2.3125 1.9375 0 0 Z M-5 4 C-5 7.71928506 -6.34770822 9.69541645 -8 13 C-8.69907414 15.73572585 -8.69907414 15.73572585 -9 18 C-8.34 18.33 -7.68 18.66 -7 19 C-7.99 19 -8.98 19 -10 19 C-11.41370507 13.73073566 -10.56810865 10.76934463 -8 6 C-7.01 5.34 -6.02 4.68 -5 4 Z " fill="#42485F" transform="translate(14,33)"/>
<path d="M0 0 C0.99 0 1.98 0 3 0 C3 5.28 3 10.56 3 16 C2.01 16 1.02 16 0 16 C0 10.72 0 5.44 0 0 Z " fill="#0B152C" transform="translate(89,99)"/>
<path d="M0 0 C3.5625 0.1875 3.5625 0.1875 5.5625 2.1875 C5.6875 4.8125 5.6875 4.8125 5.5625 7.1875 C2.9225 7.1875 0.2825 7.1875 -2.4375 7.1875 C-1.1175 6.8575 0.2025 6.5275 1.5625 6.1875 C1.5625 5.5275 1.5625 4.8675 1.5625 4.1875 C0.94375 4.06375 0.325 3.94 -0.3125 3.8125 C-2.4375 3.1875 -2.4375 3.1875 -4.4375 1.1875 C-3.4375 0.1875 -3.4375 0.1875 0 0 Z " fill="#E5DDDD" transform="translate(87.4375,69.8125)"/>
<path d="M0 0 C1.32 0.33 2.64 0.66 4 1 C3.67 5.95 3.34 10.9 3 16 C3.99 16 4.98 16 6 16 C6.33 15.34 6.66 14.68 7 14 C7 14.99 7 15.98 7 17 C5.35 17.66 3.7 18.32 2 19 C0.48578999 17.48578999 0.78690144 16.07527232 0.68359375 13.96484375 C0.64169922 13.15595703 0.59980469 12.34707031 0.55664062 11.51367188 C0.51732422 10.66353516 0.47800781 9.81339844 0.4375 8.9375 C0.39431641 8.08349609 0.35113281 7.22949219 0.30664062 6.34960938 C0.20023298 4.23327963 0.09958269 2.11666187 0 0 Z " fill="#E4E1D2" transform="translate(86,49)"/>
<path d="M0 0 C0.94875 0.04125 1.8975 0.0825 2.875 0.125 C4.3533226 3.08164519 3.93532783 5.86729737 3.875 9.125 C0.76126628 7.62579488 -2.24728205 6.04347864 -5.125 4.125 C-5.125 0.41389311 -3.38352144 0.13534086 0 0 Z " fill="#D7D1D6" transform="translate(83.125,26.875)"/>
<path d="M0 0 C0.99 0 1.98 0 3 0 C3.6875 1.75 3.6875 1.75 4 4 C2.875 6.1875 2.875 6.1875 1 8 C-1.6875 8.75 -1.6875 8.75 -4 9 C-4.33 8.01 -4.66 7.02 -5 6 C-2.75 2.8125 -2.75 2.8125 0 0 Z " fill="#61B0E0" transform="translate(52,19)"/>
<path d="M0 0 C8.26086957 -0.15886288 8.26086957 -0.15886288 11 1 C11.33 1.99 11.66 2.98 12 4 C7.38 4 2.76 4 -2 4 C-1.34 2.68 -0.68 1.36 0 0 Z " fill="#0CC186" transform="translate(72,112)"/>
<path d="M0 0 C5.1103144 1.1454153 9.37234081 2.45478745 14 5 C11 7 11 7 8.125 6.8125 C4.89372584 5.97236872 2.65032153 5.02671646 0 3 C0 2.01 0 1.02 0 0 Z " fill="#2373A4" transform="translate(67,23)"/>
<path d="M0 0 C3.6875 1.5 3.6875 1.5 6 3 C2.8234489 4.05885037 0.40011989 4.20049266 -2.9375 4.25 C-3.97777344 4.27578125 -5.01804687 4.3015625 -6.08984375 4.328125 C-9.31721419 3.96423357 -10.63713641 3.16358594 -13 1 C-9.08185342 -0.95907329 -4.28079274 -0.36124833 0 0 Z " fill="#747A48" transform="translate(73,10)"/>
<path d="M0 0 C1.32 0 2.64 0 4 0 C4 5.61 4 11.22 4 17 C3.34 16.67 2.68 16.34 2 16 C1.65625 13.8203125 1.65625 13.8203125 1.5 11.125 C1.28394271 7.41961747 1.12738529 6.19107794 -1 3 C-0.67 2.01 -0.34 1.02 0 0 Z " fill="#58636C" transform="translate(81,99)"/>
<path d="M0 0 C0.33 2.64 0.66 5.28 1 8 C0.67 6.68 0.34 5.36 0 4 C-1.32 4 -2.64 4 -4 4 C-4 5.65 -4 7.3 -4 9 C-4.99 8.34 -5.98 7.68 -7 7 C-7.1875 3.375 -7.1875 3.375 -7 0 C-4.3333581 -1.33332095 -2.83319697 -0.67102033 0 0 Z " fill="#445CC6" transform="translate(81,38)"/>
<path d="M0 0 C2 0.66666667 4 1.33333333 6 2 C6 2.66 6 3.32 6 4 C7.32 4.33 8.64 4.66 10 5 C10.33 4.01 10.66 3.02 11 2 C10.67 3.98 10.34 5.96 10 8 C8.02 8.66 6.04 9.32 4 10 C4.33 9.34 4.66 8.68 5 8 C4.360625 7.79375 3.72125 7.5875 3.0625 7.375 C1 6 1 6 0.25 2.875 C0.1675 1.92625 0.085 0.9775 0 0 Z " fill="#B3A69D" transform="translate(83,72)"/>
<path d="M0 0 C0.639375 0.7425 1.27875 1.485 1.9375 2.25 C5.34158774 5.70327976 9.54650144 7.26323259 14 9 C14 9.66 14 10.32 14 11 C11 12 11 12 8.84375 11.1796875 C0.77356768 6.68728601 0.77356768 6.68728601 -1 2 C-0.67 1.34 -0.34 0.68 0 0 Z " fill="#111207" transform="translate(48,48)"/>
<path d="M0 0 C0.33 0.66 0.66 1.32 1 2 C0.69707031 2.87269531 0.39414062 3.74539062 0.08203125 4.64453125 C-1.15310334 8.47478617 -1.30050663 11.66972269 -1.3125 15.6875 C-1.32925781 16.99074219 -1.34601562 18.29398438 -1.36328125 19.63671875 C-1.30142865 22.96523063 -1.30142865 22.96523063 0.51953125 24.95703125 C1.00808594 25.30121094 1.49664062 25.64539063 2 26 C1.67 26.66 1.34 27.32 1 28 C-2.05455639 25.63518215 -2.94172364 24.25551944 -3.8125 20.4375 C-4.34919279 13.44740361 -4.52785914 5.70903979 0 0 Z " fill="#B7A145" transform="translate(44,26)"/>
<path d="M0 0 C1.37478516 0.01740234 1.37478516 0.01740234 2.77734375 0.03515625 C3.69644531 0.04417969 4.61554688 0.05320312 5.5625 0.0625 C6.27277344 0.07410156 6.98304687 0.08570312 7.71484375 0.09765625 C7.71484375 0.42765625 7.71484375 0.75765625 7.71484375 1.09765625 C5.07484375 1.42765625 2.43484375 1.75765625 -0.28515625 2.09765625 C0.04484375 4.07765625 0.37484375 6.05765625 0.71484375 8.09765625 C-0.60515625 9.08765625 -1.92515625 10.07765625 -3.28515625 11.09765625 C-3.31203776 9.45191059 -3.33149748 7.80604212 -3.34765625 6.16015625 C-3.35925781 5.24363281 -3.37085937 4.32710938 -3.3828125 3.3828125 C-3.25079574 0.2936203 -3.0891922 0.13201676 0 0 Z " fill="#135F1E" transform="translate(73.28515625,102.90234375)"/>
<path d="M0 0 C1.98 0 3.96 0 6 0 C5.67 2.97 5.34 5.94 5 9 C3.68 9 2.36 9 1 9 C0.67 6.03 0.34 3.06 0 0 Z " fill="#F4DD95" transform="translate(61,67)"/>
<path d="M0 0 C1.69672386 1.29486821 3.3603279 2.63360658 5 4 C7.6794645 5.24016669 7.6794645 5.24016669 10 6 C10 6.33 10 6.66 10 7 C5.17639811 7.19294408 1.50353262 6.75747614 -3 5 C-3 3.68 -3 2.36 -3 1 C-2.01 0.67 -1.02 0.34 0 0 Z " fill="#575764" transform="translate(41,54)"/>
<path d="M0 0 C2.5 0.4375 2.5 0.4375 4.375 2.1875 C5.5 4.4375 5.5 4.4375 5.1875 6.6875 C4.8471875 7.55375 4.8471875 7.55375 4.5 8.4375 C3.84 7.4475 3.18 6.4575 2.5 5.4375 C-1 5.02083333 -1 5.02083333 -4.5 5.4375 C-5.16 6.0975 -5.82 6.7575 -6.5 7.4375 C-5.75933258 3.14162898 -4.47098525 0.78242242 0 0 Z " fill="#191D38" transform="translate(56.5,30.5625)"/>
<path d="M0 0 C1.51400391 0.01740234 1.51400391 0.01740234 3.05859375 0.03515625 C4.07050781 0.04417969 5.08242188 0.05320312 6.125 0.0625 C7.29869141 0.07990234 7.29869141 0.07990234 8.49609375 0.09765625 C8.49609375 0.42765625 8.49609375 0.75765625 8.49609375 1.09765625 C6.84609375 1.09765625 5.19609375 1.09765625 3.49609375 1.09765625 C3.27953125 2.27328125 3.27953125 2.27328125 3.05859375 3.47265625 C2.49609375 6.09765625 2.49609375 6.09765625 1.49609375 8.09765625 C0.83609375 8.09765625 0.17609375 8.09765625 -0.50390625 8.09765625 C-0.83390625 9.08765625 -1.16390625 10.07765625 -1.50390625 11.09765625 C-1.17390625 8.12765625 -0.84390625 5.15765625 -0.50390625 2.09765625 C-1.49390625 1.76765625 -2.48390625 1.43765625 -3.50390625 1.09765625 C-2.50390625 0.09765625 -2.50390625 0.09765625 0 0 Z " fill="#CAA72F" transform="translate(53.50390625,64.90234375)"/>
<path d="M0 0 C2.89918201 2.76112573 5.15161925 5.83347647 7.5 9.0625 C8.89351917 10.86246227 10.35372622 12.43212021 12 14 C7.64557186 13.06690826 4.8355386 12.26878084 2.3125 8.4375 C1.6628125 7.2309375 1.6628125 7.2309375 1 6 C0.67 5.67 0.34 5.34 0 5 C-0.04063832 3.33382885 -0.042721 1.66611905 0 0 Z " fill="#D5BE62" transform="translate(42,44)"/>
<path d="M0 0 C1.4370809 -0.05422947 2.87475462 -0.09289723 4.3125 -0.125 C5.11300781 -0.14820312 5.91351563 -0.17140625 6.73828125 -0.1953125 C9 0 9 0 12 2 C12 2.66 12 3.32 12 4 C8.37 4 4.74 4 1 4 C1.33 3.01 1.66 2.02 2 1 C1.34 0.67 0.68 0.34 0 0 Z " fill="#4FD8AC" transform="translate(54,112)"/>
<path d="M0 0 C0 2.97 0 5.94 0 9 C-1.32 8.34 -2.64 7.68 -4 7 C-6.66709069 6.83249586 -6.66709069 6.83249586 -9 7 C-3.84210526 0 -3.84210526 0 0 0 Z " fill="#23222B" transform="translate(128,39)"/>
<path d="M0 0 C0.19477739 1.62414378 0.38059458 3.24936423 0.5625 4.875 C0.66691406 5.77992187 0.77132812 6.68484375 0.87890625 7.6171875 C1 10 1 10 0 12 C-0.66 12 -1.32 12 -2 12 C-1.9690625 10.824375 -1.9690625 10.824375 -1.9375 9.625 C-1.81315937 7.01885039 -1.81315937 7.01885039 -3 5 C-5.01669827 3.86649466 -5.01669827 3.86649466 -7 3 C-3.375 0 -3.375 0 0 0 Z " fill="#99BE6E" transform="translate(79,69)"/>
<path d="M0 0 C1.32 0.99 2.64 1.98 4 3 C4 3.99 4 4.98 4 6 C5.65 6.33 7.3 6.66 9 7 C9 7.33 9 7.66 9 8 C6.69 8.33 4.38 8.66 2 9 C2 10.65 2 12.3 2 14 C1.34 13.67 0.68 13.34 0 13 C0 8.71 0 4.42 0 0 Z " fill="#A8A7C6" transform="translate(72,29)"/>
<path d="M0 0 C0.78375 0.495 1.5675 0.99 2.375 1.5 C4.78552327 3.16537965 4.78552327 3.16537965 7 3 C8.38226016 5.76452033 8.09525387 8.0461363 8.0625 11.125 C8.05347656 12.22070312 8.04445313 13.31640625 8.03515625 14.4453125 C8.02355469 15.28835937 8.01195313 16.13140625 8 17 C7.67 17 7.34 17 7 17 C6.87044922 16.12988281 6.87044922 16.12988281 6.73828125 15.2421875 C5.67968109 9.35675907 4.04302409 6.3622102 0 2 C0 1.34 0 0.68 0 0 Z " fill="#CDB154" transform="translate(88,22)"/>
<path d="M0 0 C0.66 0 1.32 0 2 0 C3.45184478 4.53701494 4.23509196 8.18061476 4 13 C3.01 12.67 2.02 12.34 1 12 C-0.26237731 9.47524538 -0.09856404 7.68799534 -0.0625 4.875 C-0.05347656 3.96492188 -0.04445312 3.05484375 -0.03515625 2.1171875 C-0.02355469 1.41851562 -0.01195312 0.71984375 0 0 Z " fill="#488BA9" transform="translate(43,35)"/>
<path d="M0 0 C0.66 0.66 1.32 1.32 2 2 C1.01 3.485 1.01 3.485 0 5 C-0.66 5 -1.32 5 -2 5 C-2.33 6.65 -2.66 8.3 -3 10 C-4.32 10.33 -5.64 10.66 -7 11 C-7 9.02 -7 7.04 -7 5 C-5.68 5.33 -4.36 5.66 -3 6 C-3 5.01 -3 4.02 -3 3 C-2.34 3 -1.68 3 -1 3 C-0.67 2.01 -0.34 1.02 0 0 Z " fill="#DFC156" transform="translate(47,17)"/>
<path d="M0 0 C1.65 0.33 3.3 0.66 5 1 C4.67 2.98 4.34 4.96 4 7 C2.68 6.67 1.36 6.34 0 6 C-0.66 7.98 -1.32 9.96 -2 12 C-2.33 12 -2.66 12 -3 12 C-3.32803732 7.29813179 -2.65796641 4.87620102 0 1 C0 0.67 0 0.34 0 0 Z " fill="#F1D885" transform="translate(73,74)"/>
<path d="M0 0 C0.33 0 0.66 0 1 0 C1.33 5.61 1.66 11.22 2 17 C3.98 17 5.96 17 8 17 C7.67 17.66 7.34 18.32 7 19 C4.69 19.33 2.38 19.66 0 20 C0 13.4 0 6.8 0 0 Z " fill="#D0CDBD" transform="translate(86,50)"/>
<path d="M0 0 C0.268125 0.598125 0.53625 1.19625 0.8125 1.8125 C1.98493467 3.97224808 3.19369282 5.35790256 5 7 C0.31261335 6.09276387 -4.34193744 5.0452733 -9 4 C-9 3.01 -9 2.02 -9 1 C-7.700625 1.020625 -6.40125 1.04125 -5.0625 1.0625 C-3.70834367 1.08399454 -2.35243917 1.07148199 -1 1 C-0.67 0.67 -0.34 0.34 0 0 Z " fill="#73BCE7" transform="translate(75,20)"/>
<path d="M0 0 C1.65 0.33 3.3 0.66 5 1 C5.33 2.65 5.66 4.3 6 6 C3.69 5.67 1.38 5.34 -1 5 C-0.67 3.35 -0.34 1.7 0 0 Z " fill="#5560C7" transform="translate(55,35)"/>
<path d="M0 0 C0.66 0 1.32 0 2 0 C2 0.66 2 1.32 2 2 C2.66 2.33 3.32 2.66 4 3 C4.09765625 9.15234375 4.09765625 9.15234375 4 11 C3 12 3 12 0.4375 12.0625 C-0.366875 12.041875 -1.17125 12.02125 -2 12 C-0.68 11.67 0.64 11.34 2 11 C1.67 9.9275 1.34 8.855 1 7.75 C0 4 0 4 0 0 Z " fill="#AA8224" transform="translate(82,76)"/>
<path d="M0 0 C0.33 0.99 0.66 1.98 1 3 C-2.88309282 6.64775386 -5.71201818 7.58525633 -11 8 C-11 7.34 -11 6.68 -11 6 C-8.03 5.01 -5.06 4.02 -2 3 C-2 2.34 -2 1.68 -2 1 C-1.34 0.67 -0.68 0.34 0 0 Z " fill="#191908" transform="translate(84,51)"/>
<path d="M0 0 C0.33 0 0.66 0 1 0 C1.125 6.625 1.125 6.625 0 10 C-2.0625 11.6875 -2.0625 11.6875 -4 13 C-4.17942163 9.05272412 -4.09350689 6.4019487 -2 3 C-1.34 3 -0.68 3 0 3 C0 2.01 0 1.02 0 0 Z " fill="#D3B753" transform="translate(93,41)"/>
<path d="M0 0 C1.32 0 2.64 0 4 0 C3.67 0.66 3.34 1.32 3 2 C2.360625 2.12375 1.72125 2.2475 1.0625 2.375 C-1.17182338 2.81573582 -1.17182338 2.81573582 -2.3125 4.9375 C-2.539375 5.618125 -2.76625 6.29875 -3 7 C-2.67 7.66 -2.34 8.32 -2 9 C-2.66 9 -3.32 9 -4 9 C-4 9.99 -4 10.98 -4 12 C-4.99 11.67 -5.98 11.34 -7 11 C-5.50596652 6.38207835 -3.35726951 3.4372045 0 0 Z " fill="#E4C977" transform="translate(48,11)"/>
<path d="M0 0 C2.64 0 5.28 0 8 0 C7.67 1.32 7.34 2.64 7 4 C4.69 4 2.38 4 0 4 C0 2.68 0 1.36 0 0 Z " fill="#9D8B68" transform="translate(54,99)"/>
<path d="M0 0 C0.33 0 0.66 0 1 0 C1.33 3.96 1.66 7.92 2 12 C2.33 12 2.66 12 3 12 C3 13.98 3 15.96 3 18 C2.01 18 1.02 18 0 18 C0 12.06 0 6.12 0 0 Z " fill="#212537" transform="translate(89,81)"/>
<path d="M0 0 C1.5625 1.5 1.5625 1.5 3 4 C2.96823234 6.77437543 2.50364148 9.25286467 2 12 C1.34 12 0.68 12 0 12 C-1.1671568 8.49852959 -1.13357453 5.67329964 -1 2 C-0.67 1.34 -0.34 0.68 0 0 Z " fill="#B1B1B5" transform="translate(47,33)"/>
<path d="M0 0 C0.66 0 1.32 0 2 0 C2 0.66 2 1.32 2 2 C3.32 2.33 4.64 2.66 6 3 C2.93466836 4.53266582 -0.26754272 4.10276471 -3.625 4.0625 C-4.33140625 4.05798828 -5.0378125 4.05347656 -5.765625 4.04882812 C-7.51045275 4.03703875 -9.255237 4.01910324 -11 4 C-11.33 3.34 -11.66 2.68 -12 2 C-8.25715154 1.11932977 -4.83333136 1 -1 1 C-0.67 0.67 -0.34 0.34 0 0 Z " fill="#585459" transform="translate(69,0)"/>
<path d="M0 0 C0.33 0.66 0.66 1.32 1 2 C1.66 2 2.32 2 3 2 C3 3.65 3 5.3 3 7 C1.68 7.33 0.36 7.66 -1 8 C-1.66 6.68 -2.32 5.36 -3 4 C-2.01 2.68 -1.02 1.36 0 0 Z " fill="#ECD37A" transform="translate(44,76)"/>
<path d="M0 0 C0.66 0.33 1.32 0.66 2 1 C1.4225 1.45375 0.845 1.9075 0.25 2.375 C-2.96581797 6.12678764 -4.34535275 10.38811087 -6 15 C-7.15941038 11.52176885 -6.70820884 9.54104422 -6 6 C-5.34 6 -4.68 6 -4 6 C-3.71125 5.38125 -3.4225 4.7625 -3.125 4.125 C-2 2 -2 2 0 0 Z " fill="#5E6438" transform="translate(51,16)"/>
<path d="M0 0 C2.97 0.33 5.94 0.66 9 1 C9 1.99 9 2.98 9 4 C6.36 4 3.72 4 1 4 C0.67 2.68 0.34 1.36 0 0 Z " fill="#9D8A61" transform="translate(72,98)"/>
<path d="M0 0 C0.33 0 0.66 0 1 0 C1 2.31 1 4.62 1 7 C0.34 7 -0.32 7 -1 7 C-1.144375 7.763125 -1.28875 8.52625 -1.4375 9.3125 C-2 12 -2 12 -3 15 C-3.99 15.33 -4.98 15.66 -6 16 C-5.67 14.35 -5.34 12.7 -5 11 C-4.34 11 -3.68 11 -3 11 C-2.87625 10.113125 -2.7525 9.22625 -2.625 8.3125 C-2.05587264 5.29612498 -1.23385564 2.79673946 0 0 Z " fill="#E6C64D" transform="translate(57,66)"/>
<path d="M0 0 C0.33 0 0.66 0 1 0 C1.55353075 11.70615034 1.55353075 11.70615034 -2 16 C-4.34621048 11.30757904 -1.47066035 4.80415715 0 0 Z " fill="#25423F" transform="translate(91,33)"/>
<path d="M0 0 C4 0 4 0 5.75 1.5 C6.1625 1.995 6.575 2.49 7 3 C7.33 2.01 7.66 1.02 8 0 C8 1.98 8 3.96 8 6 C5.69 5.34 3.38 4.68 1 4 C0.67 2.68 0.34 1.36 0 0 Z " fill="#4BA6DB" transform="translate(76,20)"/>
<path d="M0 0 C0.33 0.66 0.66 1.32 1 2 C0.34 2 -0.32 2 -1 2 C-1.33 3.32 -1.66 4.64 -2 6 C-2.33 5.34 -2.66 4.68 -3 4 C-4.32796291 3.64587656 -5.66216607 3.31478446 -7 3 C-7.99 2.34 -8.98 1.68 -10 1 C-6.59437148 0.22157062 -3.49234244 -0.09978121 0 0 Z " fill="#A78E24" transform="translate(82,64)"/>
<path d="M0 0 C0.33 0 0.66 0 1 0 C1.02705308 2.41674224 1.04686438 4.8331794 1.0625 7.25 C1.07087891 7.93191406 1.07925781 8.61382812 1.08789062 9.31640625 C1.10428392 12.69342554 1.05628768 15.77291639 0 19 C-0.66 19 -1.32 19 -2 19 C-2.042721 17.33388095 -2.04063832 15.66617115 -2 14 C-1.67 13.67 -1.34 13.34 -1 13 C-0.76518307 10.81707226 -0.58636677 8.62796826 -0.4375 6.4375 C-0.35371094 5.23996094 -0.26992187 4.04242188 -0.18359375 2.80859375 C-0.12300781 1.88175781 -0.06242187 0.95492187 0 0 Z " fill="#11172A" transform="translate(118,78)"/>
<path d="M0 0 C1.41687119 4.25061356 0.19320039 6.71851625 -1 11 C-1.268125 10.401875 -1.53625 9.80375 -1.8125 9.1875 C-2.98493467 7.02775192 -4.19369282 5.64209744 -6 4 C-4.68 4 -3.36 4 -2 4 C-2 3.01 -2 2.02 -2 1 C-1.34 0.67 -0.68 0.34 0 0 Z " fill="#D1AD35" transform="translate(50,79)"/>
<path d="M0 0 C1.32 0.33 2.64 0.66 4 1 C4 1.66 4 2.32 4 3 C1.5 4.625 1.5 4.625 -1 6 C0.32 6.66 1.64 7.32 3 8 C1.02 8 -0.96 8 -3 8 C-3 6.35 -3 4.7 -3 3 C-2.01 3 -1.02 3 0 3 C0 2.01 0 1.02 0 0 Z " fill="#D8DD96" transform="translate(74,66)"/>
<path d="M0 0 C2 2 2 2 2.125 5.125 C2.08375 6.07375 2.0425 7.0225 2 8 C1.01 7.67 0.02 7.34 -1 7 C-2.1875 4.4375 -2.1875 4.4375 -3 2 C-2.01 1.34 -1.02 0.68 0 0 Z " fill="#6D6664" transform="translate(84,60)"/>
<path d="M0 0 C4.55384615 -0.36923077 4.55384615 -0.36923077 6.8125 1.5 C7.204375 1.995 7.59625 2.49 8 3 C6.6875 4.5 6.6875 4.5 5 6 C4.01 6 3.02 6 2 6 C1.34 4.02 0.68 2.04 0 0 Z " fill="#AFAB86" transform="translate(65,60)"/>
<path d="M0 0 C1.98 0.99 3.96 1.98 6 3 C4.35 4.65 2.7 6.3 1 8 C0.34 7.67 -0.32 7.34 -1 7 C-0.67 4.69 -0.34 2.38 0 0 Z " fill="#425376" transform="translate(97,55)"/>
<path d="M0 0 C0 0.66 0 1.32 0 2 C3.63 2 7.26 2 11 2 C11 2.66 11 3.32 11 4 C6.05 4 1.1 4 -4 4 C-4 3.01 -4 2.02 -4 1 C-2 0 -2 0 0 0 Z " fill="#328B7E" transform="translate(56,113)"/>
<path d="M0 0 C0.33 0 0.66 0 1 0 C1 2.64 1 5.28 1 8 C-2.3 7.67 -5.6 7.34 -9 7 C-9 6.67 -9 6.34 -9 6 C-6.36 6 -3.72 6 -1 6 C-1.020625 5.195625 -1.04125 4.39125 -1.0625 3.5625 C-1 1 -1 1 0 0 Z " fill="#1A9766" transform="translate(82,105)"/>
<path d="M0 0 C1.65 0 3.3 0 5 0 C5 1.65 5 3.3 5 5 C4.34 5 3.68 5 3 5 C2.67 6.32 2.34 7.64 2 9 C1.34 6.03 0.68 3.06 0 0 Z " fill="#606068" transform="translate(49,99)"/>
<path d="M0 0 C2.64 0.99 5.28 1.98 8 3 C8 3.33 8 3.66 8 4 C5.36 4.66 2.72 5.32 0 6 C-1 2 -1 2 0 0 Z " fill="#B6AFB6" transform="translate(62,30)"/>
<path d="M0 0 C1.46291304 0.5929915 2.92021513 1.19983823 4.375 1.8125 C5.18710937 2.14894531 5.99921875 2.48539063 6.8359375 2.83203125 C9 4 9 4 11 7 C7.85262818 6.30058404 4.97411124 5.23921302 2 4 C2 3.34 2 2.68 2 2 C1.34 2 0.68 2 0 2 C0 1.34 0 0.68 0 0 Z " fill="#9E750A" transform="translate(54,59)"/>
<path d="M0 0 C1.32 0 2.64 0 4 0 C4 1.98 4 3.96 4 6 C2.68 6 1.36 6 0 6 C0 4.02 0 2.04 0 0 Z " fill="#98A7D0" transform="translate(77,42)"/>
<path d="M0 0 C0.66 0 1.32 0 2 0 C1.34 3.3 0.68 6.6 0 10 C-0.99 9.34 -1.98 8.68 -3 8 C-1.125 2.25 -1.125 2.25 0 0 Z " fill="#C4C6D7" transform="translate(51,36)"/>
<path d="M0 0 C1.65 0 3.3 0 5 0 C5 0.66 5 1.32 5 2 C4.34 2 3.68 2 3 2 C2.67 2.99 2.34 3.98 2 5 C-0.4375 4.625 -0.4375 4.625 -3 4 C-3.33 3.34 -3.66 2.68 -4 2 C-2.68 2 -1.36 2 0 2 C0 1.34 0 0.68 0 0 Z " fill="#BCAB99" transform="translate(44,90)"/>
<path d="M0 0 C2.475 0.495 2.475 0.495 5 1 C5.33 2.65 5.66 4.3 6 6 C5.01 6 4.02 6 3 6 C3 5.01 3 4.02 3 3 C2.01 2.67 1.02 2.34 0 2 C0 1.34 0 0.68 0 0 Z " fill="#F1E4E0" transform="translate(42,84)"/>
<path d="M0 0 C0.33 0 0.66 0 1 0 C1.29341888 5.67276511 1.00559652 8.99067246 -2 14 C-2.66 14 -3.32 14 -4 14 C-3.34 11.69 -2.68 9.38 -2 7 C-1.34 7 -0.68 7 0 7 C0 4.69 0 2.38 0 0 Z " fill="#EBCD5C" transform="translate(58,66)"/>
<path d="M0 0 C-1.75 1.5625 -1.75 1.5625 -4 3 C-5.9375 2.75 -5.9375 2.75 -8 2 C-9.66519519 1.65939189 -11.33157466 1.32441604 -13 1 C-13 0.67 -13 0.34 -13 0 C-11.39679026 -0.19551338 -9.79237014 -0.38111983 -8.1875 -0.5625 C-7.29417969 -0.66691406 -6.40085937 -0.77132812 -5.48046875 -0.87890625 C-3 -1 -3 -1 0 0 Z " fill="#7F7032" transform="translate(77,59)"/>
<path d="M0 0 C1.48199902 0.44909061 2.96055236 0.90956564 4.4375 1.375 C5.26121094 1.63023438 6.08492188 1.88546875 6.93359375 2.1484375 C9 3 9 3 10 5 C7.03 5 4.06 5 1 5 C1 4.01 1 3.02 1 2 C0.67 1.34 0.34 0.68 0 0 Z " fill="#575B6B" transform="translate(73,29)"/>
<path d="M0 0 C2.125 0.375 2.125 0.375 4 1 C4 2.98 4 4.96 4 7 C2.02 6.01 0.04 5.02 -2 4 C-2 2 -2 2 0 0 Z " fill="#CECAD1" transform="translate(80,27)"/>
<path d="M0 0 C1.98 0.66 3.96 1.32 6 2 C5.67 2.99 5.34 3.98 5 5 C2.9375 5.6875 2.9375 5.6875 1 6 C0.67 4.02 0.34 2.04 0 0 Z " fill="#F7DD82" transform="translate(75,86)"/>
<path d="M0 0 C1.32 0 2.64 0 4 0 C4 0.66 4 1.32 4 2 C4.99 2 5.98 2 7 2 C7 2.66 7 3.32 7 4 C5.824375 3.9690625 5.824375 3.9690625 4.625 3.9375 C2.01885039 3.81315937 2.01885039 3.81315937 0 5 C0 3.35 0 1.7 0 0 Z " fill="#DBB564" transform="translate(60,76)"/>
<path d="M0 0 C3.3 0.99 6.6 1.98 10 3 C10 3.33 10 3.66 10 4 C7.03 4 4.06 4 1 4 C0.67 2.68 0.34 1.36 0 0 Z " fill="#6B4608" transform="translate(51,61)"/>
<path d="M0 0 C0.33 0.66 0.66 1.32 1 2 C0.34 2 -0.32 2 -1 2 C-1 2.66 -1 3.32 -1 4 C-0.34 4.33 0.32 4.66 1 5 C-0.375 7.5 -0.375 7.5 -2 10 C-2.66 10 -3.32 10 -4 10 C-3.51171875 3.9453125 -3.51171875 3.9453125 -3 2 C-2.01 1.34 -1.02 0.68 0 0 Z " fill="#CAC5CE" transform="translate(65,34)"/>
<path d="M0 0 C3 3.75 3 3.75 3 6 C1.35 5.67 -0.3 5.34 -2 5 C-2 3.68 -2 2.36 -2 1 C-1.34 0.67 -0.68 0.34 0 0 Z " fill="#343B4D" transform="translate(38,48)"/>
<path d="M0 0 C0.8353125 0.556875 0.8353125 0.556875 1.6875 1.125 C1.6875 1.455 1.6875 1.785 1.6875 2.125 C-1.9425 2.455 -5.5725 2.785 -9.3125 3.125 C-6.49583292 0.30833292 -3.93207852 -1.48781349 0 0 Z " fill="#CDC4C7" transform="translate(69.3125,45.875)"/>
<path d="M0 0 C1.32 0 2.64 0 4 0 C3.67 1.65 3.34 3.3 3 5 C1.68 4.67 0.36 4.34 -1 4 C-0.67 2.68 -0.34 1.36 0 0 Z " fill="#B0C2EA" transform="translate(55,42)"/>
<path d="M0 0 C0.33 0.99 0.66 1.98 1 3 C1.99 3 2.98 3 4 3 C4.33 4.65 4.66 6.3 5 8 C4.01 8 3.02 8 2 8 C0 5 0 5 0 2 C-0.66 1.67 -1.32 1.34 -2 1 C-1.34 0.67 -0.68 0.34 0 0 Z " fill="#328DC1" transform="translate(55,17)"/>
<path d="M0 0 C0.33 0.99 0.66 1.98 1 3 C-1.97 3 -4.94 3 -8 3 C-6.23110084 -0.53779831 -3.70375662 0 0 0 Z " fill="#37C8A2" transform="translate(83,113)"/>
<path d="M0 0 C1.32 0 2.64 0 4 0 C4 1.98 4 3.96 4 6 C1.525 5.01 1.525 5.01 -1 4 C-0.67 2.68 -0.34 1.36 0 0 Z " fill="#605E67" transform="translate(81,99)"/>
<path d="M0 0 C1.32 0 2.64 0 4 0 C4 1.65 4 3.3 4 5 C1.03 4.505 1.03 4.505 -2 4 C-1.01 3.67 -0.02 3.34 1 3 C0.67 2.01 0.34 1.02 0 0 Z " fill="#F6DB6D" transform="translate(77,81)"/>
<path d="M0 0 C2.475 0.99 2.475 0.99 5 2 C4.67 2.99 4.34 3.98 4 5 C2.68 5 1.36 5 0 5 C-0.33 4.01 -0.66 3.02 -1 2 C-0.67 1.34 -0.34 0.68 0 0 Z " fill="#E6DEE3" transform="translate(66,40)"/>
<path d="M0 0 C0.66 0 1.32 0 2 0 C2.33 2.97 2.66 5.94 3 9 C2.67 8.34 2.34 7.68 2 7 C1.34 7 0.68 7 0 7 C0 4.69 0 2.38 0 0 Z " fill="#C1A344" transform="translate(37,33)"/>
<path d="M0 0 C2.72647685 2.35468455 3.98756342 4.5408417 5 8 C4.546875 10.16015625 4.546875 10.16015625 4 12 C3.32332002 10.75539217 2.65905281 9.50403104 2 8.25 C1.62875 7.55390625 1.2575 6.8578125 0.875 6.140625 C0 4 0 4 0 0 Z " fill="#123235" transform="translate(86,21)"/>
<path d="M0 0 C1.9375 0.375 1.9375 0.375 4 1 C4.33 1.66 4.66 2.32 5 3 C5.66 3 6.32 3 7 3 C6.67 4.32 6.34 5.64 6 7 C1.125 3.375 1.125 3.375 0 0 Z " fill="#E1C76F" transform="translate(87,19)"/>
<path d="M0 0 C3 2 3 2 3.6875 4.625 C3.8421875 5.800625 3.8421875 5.800625 4 7 C2.68 7 1.36 7 0 7 C0 4.69 0 2.38 0 0 Z " fill="#D8DBD0" transform="translate(85,109)"/>
<path d="M0 0 C2.31 0 4.62 0 7 0 C6.67 0.99 6.34 1.98 6 3 C3.69 2.67 1.38 2.34 -1 2 C-0.67 1.34 -0.34 0.68 0 0 Z " fill="#FCE791" transform="translate(55,81)"/>
<path d="M0 0 C2.31 0 4.62 0 7 0 C7.33 0.66 7.66 1.32 8 2 C6.329375 2.2165625 6.329375 2.2165625 4.625 2.4375 C1.17857953 2.78372035 1.17857953 2.78372035 -1 4 C-0.67 2.68 -0.34 1.36 0 0 Z " fill="#21232E" transform="translate(96,48)"/>
<path d="M0 0 C0.99 0.495 0.99 0.495 2 1 C2 2.32 2 3.64 2 5 C2.66 5 3.32 5 4 5 C3.34 6.32 2.68 7.64 2 9 C1.34 9 0.68 9 0 9 C0 6.03 0 3.06 0 0 Z " fill="#C3CAE4" transform="translate(82,36)"/>
<path d="M0 0 C1.65 0 3.3 0 5 0 C5.66 1.65 6.32 3.3 7 5 C6.01 5 5.02 5 4 5 C4.33 4.01 4.66 3.02 5 2 C3.02 2 1.04 2 -1 2 C-0.67 1.34 -0.34 0.68 0 0 Z " fill="#76747C" transform="translate(55,27)"/>
<path d="M0 0 C2.3125 -0.3125 2.3125 -0.3125 5 0 C6.8125 2.5 6.8125 2.5 8 5 C2.25 3.375 2.25 3.375 0 0 Z " fill="#409CD1" transform="translate(60,25)"/>
<path d="M0 0 C0.33 0.99 0.66 1.98 1 3 C3.01508358 3.73323796 3.01508358 3.73323796 5 4 C3.02 4.66 1.04 5.32 -1 6 C-1.33 5.01 -1.66 4.02 -2 3 C-1.34 2.01 -0.68 1.02 0 0 Z " fill="#479FCF" transform="translate(49,22)"/>
<path d="M0 0 C0.99 0.33 1.98 0.66 3 1 C3 1.66 3 2.32 3 3 C-0.3125 4.125 -0.3125 4.125 -4 5 C-4.99 4.34 -5.98 3.68 -7 3 C-5.5459375 2.814375 -5.5459375 2.814375 -4.0625 2.625 C-2.5465625 2.315625 -2.5465625 2.315625 -1 2 C-0.67 1.34 -0.34 0.68 0 0 Z " fill="#91D0F0" transform="translate(75,16)"/>
<path d="M0 0 C1.4370809 -0.05422947 2.87475462 -0.09289723 4.3125 -0.125 C5.11300781 -0.14820312 5.91351563 -0.17140625 6.73828125 -0.1953125 C9 0 9 0 12 2 C12 2.66 12 3.32 12 4 C11.01 4 10.02 4 9 4 C8.67 3.34 8.34 2.68 8 2 C6.10466658 1.53476937 6.10466658 1.53476937 3.9375 1.375 C2.638125 1.25125 1.33875 1.1275 0 1 C0 0.67 0 0.34 0 0 Z " fill="#18C692" transform="translate(54,112)"/>
<path d="M0 0 C1.125 3.75 1.125 3.75 0 6 C-0.99 5.67 -1.98 5.34 -3 5 C-3 3.68 -3 2.36 -3 1 C-2.01 0.67 -1.02 0.34 0 0 Z " fill="#F7DE8A" transform="translate(60,86)"/>
<path d="M0 0 C0.66 0 1.32 0 2 0 C1.34 2.97 0.68 5.94 0 9 C-0.33 9 -0.66 9 -1 9 C-1.625 6.1875 -1.625 6.1875 -2 3 C-1.34 2.01 -0.68 1.02 0 0 Z " fill="#E6CA61" transform="translate(50,69)"/>
<path d="M0 0 C0.33 0 0.66 0 1 0 C1.125 5.75 1.125 5.75 0 8 C-0.66 8 -1.32 8 -2 8 C-1.125 1.125 -1.125 1.125 0 0 Z " fill="#1B2033" transform="translate(92,57)"/>
<path d="M0 0 C0.99 0.33 1.98 0.66 3 1 C2.34 1 1.68 1 1 1 C1 2.65 1 4.3 1 6 C0.01 6.495 0.01 6.495 -1 7 C-1.33 5.02 -1.66 3.04 -2 1 C-1.34 0.67 -0.68 0.34 0 0 Z " fill="#017F2C" transform="translate(75,104)"/>
<path d="M0 0 C2.92824652 0.97608217 4.61426621 2.10786631 7 4 C4.36 3.67 1.72 3.34 -1 3 C-0.67 2.01 -0.34 1.02 0 0 Z " fill="#F7DE7A" transform="translate(52,81)"/>
<path d="M0 0 C0.66 0 1.32 0 2 0 C2 0.66 2 1.32 2 2 C2.99 2 3.98 2 5 2 C5.33 1.34 5.66 0.68 6 0 C6 0.99 6 1.98 6 3 C4.35 3.66 2.7 4.32 1 5 C0.67 3.35 0.34 1.7 0 0 Z " fill="#ECECE3" transform="translate(87,63)"/>
<path d="M0 0 C0.66 0 1.32 0 2 0 C1.34 2.97 0.68 5.94 0 9 C-0.99 8.67 -1.98 8.34 -3 8 C-2.34 8 -1.68 8 -1 8 C-1.020625 6.865625 -1.04125 5.73125 -1.0625 4.5625 C-1 1 -1 1 0 0 Z " fill="#E2DED3" transform="translate(94,58)"/>
<path d="M0 0 C0.598125 0.61875 1.19625 1.2375 1.8125 1.875 C4.00811144 4.13676954 4.00811144 4.13676954 7 6 C4.6568787 5.74438677 2.32156597 5.40729228 0 5 C-0.33 4.34 -0.66 3.68 -1 3 C-0.67 2.01 -0.34 1.02 0 0 Z " fill="#DAD8EA" transform="translate(73,43)"/>
<path d="M0 0 C0.66 0 1.32 0 2 0 C2 0.66 2 1.32 2 2 C3.65 2.33 5.3 2.66 7 3 C7 3.33 7 3.66 7 4 C4.03 3.67 1.06 3.34 -2 3 C-1 1 -1 1 0 0 Z " fill="#989EB8" transform="translate(51,44)"/>
<path d="M0 0 C2.5 -0.375 2.5 -0.375 5 0 C5.66 0.99 6.32 1.98 7 3 C4.03 3 1.06 3 -2 3 C-1.34 2.01 -0.68 1.02 0 0 Z " fill="#434655" transform="translate(54,31)"/>
<path d="M0 0 C1.98 0.99 3.96 1.98 6 3 C5.67 3.99 5.34 4.98 5 6 C3.0625 5.25 3.0625 5.25 1 4 C0.25 1.875 0.25 1.875 0 0 Z " fill="#8AC1E1" transform="translate(66,25)"/>
<path d="M0 0 C0 1.65 0 3.3 0 5 C-1.98 5.33 -3.96 5.66 -6 6 C-2.61538462 0 -2.61538462 0 0 0 Z " fill="#F3D56F" transform="translate(50,13)"/>
</svg>
