<?xml version="1.0" encoding="UTF-8"?>
<svg version="1.1" xmlns="http://www.w3.org/2000/svg" width="64" height="64">
<path d="M0 0 C21.12 0 42.24 0 64 0 C64 21.12 64 42.24 64 64 C42.88 64 21.76 64 0 64 C0 42.88 0 21.76 0 0 Z " fill="#060118" transform="translate(0,0)"/>
<path d="M0 0 C0.88945313 0.00966797 1.77890625 0.01933594 2.6953125 0.02929688 C3.61570312 0.05443359 4.53609375 0.07957031 5.484375 0.10546875 C6.42023437 0.11900391 7.35609375 0.13253906 8.3203125 0.14648438 C10.62558827 0.18176921 12.9296856 0.23106594 15.234375 0.29296875 C12.90020974 2.26892053 10.93883529 3.40725381 8.0625 4.51953125 C0.85723298 7.33556356 -3.12177302 9.76187571 -6.60253906 16.85888672 C-8.10979762 20.30232737 -9.48530481 23.75817172 -10.765625 27.29296875 C-11.095625 27.29296875 -11.425625 27.29296875 -11.765625 27.29296875 C-11.84678493 24.22993297 -11.90619909 21.1690606 -11.953125 18.10546875 C-11.97826172 17.24115234 -12.00339844 16.37683594 -12.02929688 15.48632812 C-12.08548202 10.59822065 -12.04251377 7.20314389 -8.765625 3.29296875 C-5.7852499 0.64088898 -3.97684363 -0.07647776 0 0 Z " fill="#F6F5F6" transform="translate(44.765625,32.70703125)"/>
<path d="M0 0 C2.70329311 3.29590691 4.41900085 6.75613519 6.1875 10.625 C6.71730469 11.77226562 7.24710938 12.91953125 7.79296875 14.1015625 C9 17 9 17 9 19 C9.54527344 19.17015625 10.09054688 19.3403125 10.65234375 19.515625 C16.28384978 21.32540814 21.63939569 23.50345378 27 26 C27 26.33 27 26.66 27 27 C23.79215279 27.14622024 20.58517039 27.23436651 17.375 27.3125 C16.47136719 27.35439453 15.56773438 27.39628906 14.63671875 27.43945312 C10.18090975 27.52076351 6.99186019 27.519728 3.4140625 24.66796875 C0.32765372 21.25693769 -0.12741344 18.98460211 -0.09765625 14.55078125 C-0.09443359 13.70322266 -0.09121094 12.85566406 -0.08789062 11.98242188 C-0.07951172 11.10134766 -0.07113281 10.22027344 -0.0625 9.3125 C-0.05798828 8.41982422 -0.05347656 7.52714844 -0.04882812 6.60742188 C-0.03704983 4.40488013 -0.02060164 2.20247401 0 0 Z " fill="#F7F7F8" transform="translate(33,4)"/>
<path d="M0 0 C3.22886009 -0.11667875 6.45717445 -0.18740546 9.6875 -0.25 C11.05551758 -0.30027344 11.05551758 -0.30027344 12.45117188 -0.3515625 C16.81769795 -0.41507561 19.28725121 -0.43722486 23.08203125 1.890625 C25.79243776 4.87152015 26.12382971 6.42554344 26.09765625 10.3515625 C26.09443359 11.20234375 26.09121094 12.053125 26.08789062 12.9296875 C26.07951172 13.81914063 26.07113281 14.70859375 26.0625 15.625 C26.05798828 16.5221875 26.05347656 17.419375 26.04882812 18.34375 C26.03702591 20.56256648 26.02056155 22.78125018 26 25 C24.16563208 22.7987585 22.98916014 20.97058952 21.9921875 18.265625 C19.52466558 11.60504135 16.79196769 8.37152873 10.50439453 5.30371094 C7.0351564 3.76736456 3.54882513 2.34365317 0 1 C0 0.67 0 0.34 0 0 Z " fill="#FCFCFC" transform="translate(5,33)"/>
<path d="M0 0 C0.33 0 0.66 0 1 0 C1.10822792 3.06345144 1.18741479 6.1230601 1.25 9.1875 C1.30027344 10.48397461 1.30027344 10.48397461 1.3515625 11.80664062 C1.41676616 16.0611794 1.39830711 18.35727716 -0.890625 22.05078125 C-3.93329672 24.8624353 -5.53176167 25.1232167 -9.5703125 25.09765625 C-10.46621094 25.09443359 -11.36210937 25.09121094 -12.28515625 25.08789062 C-13.22230469 25.07951172 -14.15945313 25.07113281 -15.125 25.0625 C-16.06988281 25.05798828 -17.01476562 25.05347656 -17.98828125 25.04882812 C-20.32558387 25.03702357 -22.66276061 25.02055759 -25 25 C-21.98672998 22.5708627 -18.9594495 20.90815875 -15.4375 19.3125 C-14.01244141 18.65701172 -14.01244141 18.65701172 -12.55859375 17.98828125 C-10 17 -10 17 -7 17 C-6.82984375 16.443125 -6.6596875 15.88625 -6.484375 15.3125 C-4.76684063 9.90409391 -2.64657745 5.01937104 0 0 Z " fill="#FBFBFB" transform="translate(30,6)"/>
<path d="M0 0 C0.33 0 0.66 0 1 0 C1 6.27 1 12.54 1 19 C1.66 19 2.32 19 3 19 C3.391875 19.763125 3.78375 20.52625 4.1875 21.3125 C6.65850019 24.97639684 8.89189515 25.52728317 13 27 C12 29 12 29 9.1875 30.3125 C5.53118606 32.24819561 4.16375319 33.47761109 2 37 C1.3854991 40.26724843 1.30444192 43.49401767 1.25 46.8125 C1.22035156 47.69615234 1.19070312 48.57980469 1.16015625 49.49023438 C1.0897961 51.65967218 1.04259393 53.82983948 1 56 C-1 54 -1 54 -1.14770508 52.1081543 C-1.10540771 51.35445557 -1.06311035 50.60075684 -1.01953125 49.82421875 C-0.99052734 48.99599609 -0.96152344 48.16777344 -0.93164062 47.31445312 C-0.85271793 45.5742724 -0.76172413 43.8345939 -0.65820312 42.09570312 C-0.44218529 36.61276283 -0.44218529 36.61276283 -3.51171875 32.14453125 C-4.33285156 31.43683594 -5.15398438 30.72914062 -6 30 C-6 28.68 -6 27.36 -6 26 C-4.77023438 24.95585938 -4.77023438 24.95585938 -3.515625 23.890625 C0.15253946 19.67565342 -0.47460456 16.13551075 -0.75 10.75 C-0.81092481 8.93240981 -0.86840956 7.1146999 -0.921875 5.296875 C-0.95893555 4.49604492 -0.99599609 3.69521484 -1.03417969 2.87011719 C-1 1 -1 1 0 0 Z " fill="#181328" transform="translate(31,4)"/>
</svg>
