<?xml version="1.0" encoding="UTF-8"?>
<svg version="1.1" xmlns="http://www.w3.org/2000/svg" width="64" height="64">
<path d="M0 0 C21.12 0 42.24 0 64 0 C64 21.12 64 42.24 64 64 C42.88 64 21.76 64 0 64 C0 42.88 0 21.76 0 0 Z " fill="#FCD73F" transform="translate(0,0)"/>
<path d="M0 0 C1.00098698 1.9712419 1.97329198 3.93893576 2.859375 5.96484375 C5.76824343 12.40773216 9.54363367 16.25769378 16.25 18.8125 C21.16728893 20.30360295 25.9054873 20.2871646 31 20 C28.36521924 26.10159755 25.23160803 29.18153533 19.1875 31.8125 C14.07462006 33.5487688 9.74158123 33.21069828 4.859375 31.0546875 C-0.91476565 27.82544588 -3.73843472 24.18185527 -5.6328125 17.90234375 C-6.92147733 11.2598623 -4.48109251 6.58748606 -1 1 C-0.67 0.67 -0.34 0.34 0 0 Z " fill="#19294F" transform="translate(19,18)"/>
<path d="M0 0 C4.56366293 3.91171109 7.15528896 7.37115582 8.625 13.25 C8.75 16.125 8.75 16.125 8.625 18.25 C6.4375 17.6875 6.4375 17.6875 3.625 16.25 C3.026875 15.1775 2.42875 14.105 1.8125 13 C-1.28531681 8.11459054 -6.58346492 6.99527746 -11.85083008 5.37988281 C-13.953125 4.70703125 -13.953125 4.70703125 -17.375 3.25 C-18.359375 1.07421875 -18.359375 1.07421875 -18.375 -0.75 C-12.47649328 -4.09248714 -5.78851675 -3.00145313 0 0 Z " fill="#192A4D" transform="translate(42.375,15.75)"/>
<path d="M0 0 C2 4 2 4 2.89453125 5.9296875 C6.54551437 13.66666449 11.07346418 19.73625763 19.3828125 22.91015625 C21.57816135 23.64996817 23.77717372 24.34797096 26 25 C26 25.33 26 25.66 26 26 C17.42 26 8.84 26 0 26 C0 17.42 0 8.84 0 0 Z " fill="#FEFEFB" transform="translate(0,38)"/>
<path d="M0 0 C0.33 0 0.66 0 1 0 C1 8.58 1 17.16 1 26 C-7.58 26 -16.16 26 -25 26 C-21 24 -21 24 -19.0703125 23.10546875 C-11.33333551 19.45448563 -5.26374237 14.92653582 -2.08984375 6.6171875 C-1.35003183 4.42183865 -0.65202904 2.22282628 0 0 Z " fill="#FEFEFB" transform="translate(63,38)"/>
<path d="M0 0 C8.58 0 17.16 0 26 0 C26 8.58 26 17.16 26 26 C24 22 24 22 23.10546875 20.0703125 C19.45448563 12.33333551 14.92653582 6.26374237 6.6171875 3.08984375 C4.42183865 2.35003183 2.22282628 1.65202904 0 1 C0 0.67 0 0.34 0 0 Z " fill="#FEFEFB" transform="translate(38,0)"/>
<path d="M0 0 C8.58 0 17.16 0 26 0 C22 2 22 2 20.0703125 2.89453125 C12.33333551 6.54551437 6.26374237 11.07346418 3.08984375 19.3828125 C2.35003183 21.57816135 1.65202904 23.77717372 1 26 C0.67 26 0.34 26 0 26 C0 17.42 0 8.84 0 0 Z " fill="#FEFEFB" transform="translate(0,0)"/>
<path d="M0 0 C0.66 0 1.32 0 2 0 C2.33 0.99 2.66 1.98 3 3 C3.66 2.67 4.32 2.34 5 2 C5.33 2.33 5.66 2.66 6 3 C8.32817964 3.36760731 10.6618385 3.70241581 13 4 C12.67 6.31 12.34 8.62 12 11 C8.18510326 12.46726798 5.70988378 11.43336419 2 10 C2 8.68 2 7.36 2 6 C0.58022091 3.77256213 0.58022091 3.77256213 -1 2 C-0.67 1.34 -0.34 0.68 0 0 Z " fill="#FBD846" transform="translate(18,52)"/>
<path d="M0 0 C0.99 0.33 1.98 0.66 3 1 C2.01 3.97 1.02 6.94 0 10 C-1.98 10.33 -3.96 10.66 -6 11 C-6 10.01 -6 9.02 -6 8 C-7.98 8 -9.96 8 -12 8 C-11.67 6.68 -11.34 5.36 -11 4 C-9.35 4.33 -7.7 4.66 -6 5 C-5.67 4.34 -5.34 3.68 -5 3 C-4.01 3 -3.02 3 -2 3 C-1.34 2.01 -0.68 1.02 0 0 Z " fill="#9C8B42" transform="translate(44,52)"/>
<path d="M0 0 C0.66 0 1.32 0 2 0 C2.33 0.99 2.66 1.98 3 3 C3.66 2.67 4.32 2.34 5 2 C5.33 2.33 5.66 2.66 6 3 C8.32817964 3.36760731 10.6618385 3.70241581 13 4 C13 5.32 13 6.64 13 8 C12.113125 7.67 11.22625 7.34 10.3125 7 C7.14680272 5.84361616 7.14680272 5.84361616 4.3125 6.125 C2 6 2 6 0.1875 4 C-0.204375 3.34 -0.59625 2.68 -1 2 C-0.67 1.34 -0.34 0.68 0 0 Z " fill="#525340" transform="translate(18,52)"/>
<path d="M0 0 C6.75 1.75 6.75 1.75 9 4 C9.125 6.625 9.125 6.625 9 9 C4.5937814 7.65365543 2.56922298 5.80625626 0 2 C0 1.34 0 0.68 0 0 Z " fill="#12A5DF" transform="translate(42,25)"/>
<path d="M0 0 C0.66 0 1.32 0 2 0 C2.33 0.99 2.66 1.98 3 3 C3.66 2.67 4.32 2.34 5 2 C4.67 3.32 4.34 4.64 4 6 C0.125 4.25 0.125 4.25 -1 2 C-0.67 1.34 -0.34 0.68 0 0 Z " fill="#746B46" transform="translate(18,52)"/>
</svg>
