<?xml version="1.0" encoding="UTF-8"?>
<svg version="1.1" xmlns="http://www.w3.org/2000/svg" width="200" height="200">
<path d="M0 0 C1.25296875 0.4125 2.5059375 0.825 3.796875 1.25 C28.74462541 10.06760046 48.21993996 28.50355897 60.08447266 52.01074219 C70.70512729 75.08730057 73.09510894 102.81586203 65 127 C64.5875 128.25296875 64.175 129.5059375 63.75 130.796875 C54.93239954 155.74462541 36.49644103 175.21993996 12.98925781 187.08447266 C-10.08730057 197.70512729 -37.81586203 200.09510894 -62 192 C-63.87945312 191.38125 -63.87945312 191.38125 -65.796875 190.75 C-90.74462541 181.93239954 -110.21993996 163.49644103 -122.08447266 139.98925781 C-132.70512729 116.91269943 -135.09510894 89.18413797 -127 65 C-126.5875 63.74703125 -126.175 62.4940625 -125.75 61.203125 C-116.93239954 36.25537459 -98.49644103 16.78006004 -74.98925781 4.91552734 C-51.91269943 -5.70512729 -24.18413797 -8.09510894 0 0 Z " fill="#F66430" transform="translate(131,4)"/>
<path d="M0 0 C1.25296875 0.4125 2.5059375 0.825 3.796875 1.25 C28.74462541 10.06760046 48.21993996 28.50355897 60.08447266 52.01074219 C70.70512729 75.08730057 73.09510894 102.81586203 65 127 C64.5875 128.25296875 64.175 129.5059375 63.75 130.796875 C54.93239954 155.74462541 36.49644103 175.21993996 12.98925781 187.08447266 C-10.08730057 197.70512729 -37.81586203 200.09510894 -62 192 C-63.87945312 191.38125 -63.87945312 191.38125 -65.796875 190.75 C-90.74462541 181.93239954 -110.21993996 163.49644103 -122.08447266 139.98925781 C-132.70512729 116.91269943 -135.09510894 89.18413797 -127 65 C-126.5875 63.74703125 -126.175 62.4940625 -125.75 61.203125 C-116.93239954 36.25537459 -98.49644103 16.78006004 -74.98925781 4.91552734 C-51.91269943 -5.70512729 -24.18413797 -8.09510894 0 0 Z M-10 8 C-10.66 9.051875 -11.32 10.10375 -12 11.1875 C-16.00805882 17.57534375 -23.0396155 20.33923925 -30.06640625 22.0703125 C-30.86949219 22.25335938 -31.67257813 22.43640625 -32.5 22.625 C-38.52787924 24.05698415 -44.23797071 25.72269546 -50 28 C-51.31204624 28.48040776 -52.62455157 28.95956344 -53.9375 29.4375 C-76.86622158 38.1023261 -94.4190862 53.03387269 -104.59765625 75.53125 C-112.19570603 94.49314683 -112.56750315 114.92632424 -105 134 C-101.20470733 142.61310352 -96.24987222 149.98794824 -90 157 C-89.32324219 157.77085937 -88.64648438 158.54171875 -87.94921875 159.3359375 C-80.10610922 167.73824496 -69.86235176 174.19541994 -59 178 C-58.16597656 178.29777344 -57.33195312 178.59554687 -56.47265625 178.90234375 C-34.73750739 185.23325288 -10.19309837 181.79213673 9.4609375 171.0859375 C14.00698741 168.4816556 18.05037637 165.43371991 22 162 C22.57105469 161.55914062 23.14210937 161.11828125 23.73046875 160.6640625 C27.39915105 157.81970141 29.62977542 154.91998681 32 151 C30.68 151.33 29.36 151.66 28 152 C28.50789062 151.27039063 29.01578125 150.54078125 29.5390625 149.7890625 C38.27755463 136.53404635 43.23806992 122.06134674 43.0625 106.125 C43.05573242 104.949375 43.05573242 104.949375 43.04882812 103.75 C43.03714093 101.83329986 43.01920908 99.91663952 43 98 C44.98 98 46.96 98 49 98 C47.89294984 95.18205414 47.04420021 94.0317119 44.5390625 92.234375 C41.50193042 89.56169877 41.01958192 87.8854669 40.0625 84 C37.04271719 73.22541493 32.17714877 64.52713628 25 56 C24.236875 54.989375 23.47375 53.97875 22.6875 52.9375 C12.81200816 42.14335776 0.61127763 35.82154975 -13 31 C-11.94985757 28.26962968 -10.91995226 25.87069211 -9.375 23.375 C-7.42230442 18.58201995 -7.75451945 14.10963228 -8 9 C-8.99 8.505 -8.99 8.505 -10 8 Z " fill="#FEFEFD" transform="translate(131,4)"/>
<path d="M0 0 C1.88428711 0.01353516 1.88428711 0.01353516 3.80664062 0.02734375 C6.89212522 0.05080751 9.97721205 0.08363799 13.0625 0.125 C12.4025 0.455 11.7425 0.785 11.0625 1.125 C11.10890625 2.1665625 11.1553125 3.208125 11.203125 4.28125 C11.78368776 23.26788508 6.72825209 39.36605168 -3.9375 55.125 C-2.6175 54.795 -1.2975 54.465 0.0625 54.125 C-8.85372663 68.70038418 -26.61117136 78.39583982 -42.8125 82.625 C-63.77514723 87.38258578 -86.75428175 85.41101785 -105.38671875 74.46875 C-116.2676383 67.59970691 -124.67472914 57.59193448 -131.9375 47.125 C-131.6075 46.465 -131.2775 45.805 -130.9375 45.125 C-130.4528125 45.51171875 -129.968125 45.8984375 -129.46875 46.296875 C-117.19554856 55.83220843 -103.50135821 59.58333231 -87.921875 58.37939453 C-74.16839837 56.61621507 -64.19910509 48.70581424 -55.9375 38.125 C-54.01262307 35.07900123 -52.32355404 31.92626725 -50.625 28.75 C-42.51241703 14.30968584 -33.31100908 6.90351629 -17.8828125 0.9453125 C-12.10274119 -0.61107743 -5.9293997 -0.08084132 0 0 Z " fill="#F66931" transform="translate(162.9375,100.875)"/>
<path d="M0 0 C24.04023674 9.1147817 41.1413145 22.22681705 52.58984375 45.7734375 C56.57769466 54.89799388 56.57769466 54.89799388 55 59 C53.89591797 58.47599609 53.89591797 58.47599609 52.76953125 57.94140625 C51.79371094 57.48636719 50.81789063 57.03132813 49.8125 56.5625 C48.84957031 56.11003906 47.88664062 55.65757813 46.89453125 55.19140625 C36.67280241 50.98408196 23.21573662 51.27685305 13.05029297 55.35522461 C10.25853731 56.5837851 7.48916578 57.84924335 4.74023438 59.17089844 C-3.88900857 63.28213708 -12.42532201 64.53919371 -21.75 61.875 C-29.26000331 58.96487372 -33.80523898 54.07021053 -37.1171875 46.77734375 C-39.61868666 38.90758312 -38.57735198 31.79731429 -34.875 24.546875 C-34.58625 24.03640625 -34.2975 23.5259375 -34 23 C-33.34 23 -32.68 23 -32 23 C-32 22.34 -32 21.68 -32 21 C-30.12109375 19.58984375 -30.12109375 19.58984375 -27.4375 17.9375 C-26.44234375 17.32003906 -25.4471875 16.70257813 -24.421875 16.06640625 C-22.00083243 14.60438397 -19.57551212 13.15336537 -17.140625 11.71484375 C-16.48521729 11.32627197 -15.82980957 10.9377002 -15.15454102 10.53735352 C-13.87446792 9.78093946 -12.59124058 9.02982973 -11.30444336 8.28491211 C-7.17890538 5.85575382 -3.6083395 3.1496991 0 0 Z " fill="#F6E15D" transform="translate(116,34)"/>
<path d="M0 0 C1.88428711 0.01353516 1.88428711 0.01353516 3.80664062 0.02734375 C6.89212522 0.05080751 9.97721205 0.08363799 13.0625 0.125 C12.4025 0.455 11.7425 0.785 11.0625 1.125 C11.10890625 2.1665625 11.1553125 3.208125 11.203125 4.28125 C11.76915408 22.79257781 7.17627992 40.04201297 -3.9375 55.125 C-9.00693516 57.65971758 -16.4646181 56.74406159 -21.80859375 55.40625 C-30.05357782 52.29398813 -35.04142201 48.06145516 -38.9375 40.125 C-40.95945612 33.93781428 -41.10942054 25.81480922 -39.1484375 19.640625 C-38.17233256 17.71821986 -37.09067687 15.94539961 -35.9375 14.125 C-35.51597656 13.12984375 -35.09445313 12.1346875 -34.66015625 11.109375 C-32.58242898 7.50986563 -30.92405324 6.60102206 -27.1875 4.875 C-26.18203125 4.39546875 -25.1765625 3.9159375 -24.140625 3.421875 C-15.84189935 0.06190315 -8.94541351 -0.12196159 0 0 Z " fill="#F6E15D" transform="translate(162.9375,100.875)"/>
</svg>
