<?xml version="1.0" encoding="UTF-8"?>
<svg version="1.1" xmlns="http://www.w3.org/2000/svg" width="128" height="128">
<path d="M0 0 C42.24 0 84.48 0 128 0 C128 42.24 128 84.48 128 128 C85.76 128 43.52 128 0 128 C0 85.76 0 43.52 0 0 Z " fill="#7D1A7C" transform="translate(0,0)"/>
<path d="M0 0 C3.99452176 1.36955032 6.92159754 3.0926199 10 6 C10.8125 8.25 10.8125 8.25 11 10 C10.34 10 9.68 10 9 10 C9.99 11.65 10.98 13.3 12 15 C11.01 15.33 10.02 15.66 9 16 C10.98 18.97 12.96 21.94 15 25 C14.34 23.68 13.68 22.36 13 21 C12.875 18.25 12.875 18.25 13 16 C13.99 16 14.98 16 16 16 C16 15.01 16 14.02 16 13 C16.66 13 17.32 13 18 13 C18.33 13.66 18.66 14.32 19 15 C19.66 14.34 20.32 13.68 21 13 C22.65 14.65 24.3 16.3 26 18 C26.4846875 17.71125 26.969375 17.4225 27.46875 17.125 C32.63640485 14.26291424 36.09739384 13.33357672 42 14 C45.5 15.5 45.5 15.5 48 17 C48 16.01 48 15.02 48 14 C49.32 14 50.64 14 52 14 C54.25065102 12.08333079 54.25065102 12.08333079 56 10 C56 10.99 56 11.98 56 13 C56.99 12.34 57.98 11.68 59 11 C58.67 12.98 58.34 14.96 58 17 C58.495 16.649375 58.99 16.29875 59.5 15.9375 C63.14330351 14.57126118 66.3101876 14.79022544 70 16 C72.5 18.5625 72.5 18.5625 74 21 C71.69 21.66 69.38 22.32 67 23 C70.3 23 73.6 23 77 23 C74 25 74 25 71 26 C74.63 26 78.26 26 82 26 C82.495 27.485 82.495 27.485 83 29 C82.40832031 29.02578125 81.81664063 29.0515625 81.20703125 29.078125 C75.95018101 29.45545193 72.82251643 30.05802993 69 34 C67.40710642 37.18578717 67.60654331 40.53224612 68 44 C69.33542672 46.78307606 69.33542672 46.78307606 71 49 C71.33 49.99 71.66 50.98 72 52 C75.7960081 53.89800405 79.91817126 54.87949799 84 56 C84.495 60.455 84.495 60.455 85 65 C72.14604424 73.07962933 53.13614506 70.64152201 39 68 C36.18323932 67.17391139 33.68267926 66.20446824 31 65 C31 64.34 31 63.68 31 63 C30.071875 62.731875 29.14375 62.46375 28.1875 62.1875 C23.5483871 60.45920304 23.5483871 60.45920304 22 58 C22.3125 55.3125 22.3125 55.3125 23 53 C27.29299643 51.73735399 29.87831311 52.37049588 34 54 C29.49862174 51.74931087 25.93239162 51.75338042 21 52 C19.63329691 53.14041799 19.63329691 53.14041799 19.875 56.1875 C21.29400273 60.99634258 23.0015182 62.14287988 27.1953125 64.6484375 C42.30249099 71.92849844 57.71010715 71.61743617 74 70 C70.95207475 75.12605611 67.5295759 76.0854722 62.046875 77.51953125 C61.37140625 77.67808594 60.6959375 77.83664063 60 78 C61.32 78 62.64 78 64 78 C64 78.66 64 79.32 64 80 C60.37 81.32 56.74 82.64 53 84 C54.5675 83.87625 56.135 83.7525 57.75 83.625 C59.07257813 83.52058594 59.07257813 83.52058594 60.421875 83.4140625 C62.99066382 83.00149945 64.75841015 82.28839043 67 81 C64.31179448 86.99676617 60.69589307 88.90309577 54.71875 91.21484375 C50.67049978 92.38395049 47.18971897 92.27030445 43 92 C43 92.66 43 93.32 43 94 C58.30467506 92.2426872 58.30467506 92.2426872 71 84 C72.32 85.32 73.64 86.64 75 88 C75.99 87.67 76.98 87.34 78 87 C78.65455759 88.99716175 79.2981943 90.99790387 79.9375 93 C80.29714844 94.11375 80.65679687 95.2275 81.02734375 96.375 C82 100 82 100 83 108 C57.59 108 32.18 108 6 108 C6 93.61904762 6 93.61904762 8 90 C10.91667555 88.35469584 12.64720982 88 16 88 C16.495 86.515 16.495 86.515 17 85 C17 85.66 17 86.32 17 87 C19.65228812 88.07525194 22.28368454 89.09456151 25 90 C24.67 88.35 24.34 86.7 24 85 C25.98 85 27.96 85 30 85 C29.071875 84.54625 28.14375 84.0925 27.1875 83.625 C24 82 24 82 21 80 C21.495 78.515 21.495 78.515 22 77 C23.98 77.66 25.96 78.32 28 79 C27.31292969 78.60167969 26.62585938 78.20335938 25.91796875 77.79296875 C25.01691406 77.26316406 24.11585937 76.73335938 23.1875 76.1875 C22.29417969 75.66542969 21.40085937 75.14335938 20.48046875 74.60546875 C16.60788515 72.09896188 14.58955068 69.59080844 12.375 65.5625 C11.94960938 64.80066406 11.52421875 64.03882812 11.0859375 63.25390625 C7.5137243 55.8396364 8.41961074 47.57989345 11 40 C11 39.67 11 39.34 11 39 C8.69 39 6.38 39 4 39 C3.855625 38.195625 3.71125 37.39125 3.5625 36.5625 C3.25864751 34.07896294 3.25864751 34.07896294 2 33 C1.83203125 31.109375 1.83203125 31.109375 1.8125 28.75 C1.79832031 27.98171875 1.78414062 27.2134375 1.76953125 26.421875 C2 24 2 24 3.00390625 21.56640625 C4.15594919 18.5982015 4.20138338 16.35741014 4.125 13.1875 C4.10695313 12.21167969 4.08890625 11.23585938 4.0703125 10.23046875 C4.04710937 9.49441406 4.02390625 8.75835937 4 8 C3.34 8 2.68 8 2 8 C1.34 5.36 0.68 2.72 0 0 Z " fill="#AC75FB" transform="translate(20,20)"/>
<path d="M0 0 C0.495 1.485 0.495 1.485 1 3 C1.99 2.34 2.98 1.68 4 1 C3.67 2.98 3.34 4.96 3 7 C3.495 6.649375 3.99 6.29875 4.5 5.9375 C8.14330351 4.57126118 11.3101876 4.79022544 15 6 C17.5 8.5625 17.5 8.5625 19 11 C16.69 11.66 14.38 12.32 12 13 C15.3 13 18.6 13 22 13 C19 15 19 15 16 16 C19.63 16 23.26 16 27 16 C27.495 17.485 27.495 17.485 28 19 C27.40832031 19.02578125 26.81664062 19.0515625 26.20703125 19.078125 C20.95018101 19.45545193 17.82251643 20.05802993 14 24 C12.40710642 27.18578717 12.60654331 30.53224612 13 34 C14.33542672 36.78307606 14.33542672 36.78307606 16 39 C16.33 39.99 16.66 40.98 17 42 C20.7960081 43.89800405 24.91817126 44.87949799 29 46 C29.495 50.455 29.495 50.455 30 55 C17.14604424 63.07962933 -1.86385494 60.64152201 -16 58 C-18.81676068 57.17391139 -21.31732074 56.20446824 -24 55 C-24 54.34 -24 53.68 -24 53 C-24.928125 52.731875 -25.85625 52.46375 -26.8125 52.1875 C-31.4516129 50.45920304 -31.4516129 50.45920304 -33 48 C-32.6875 45.3125 -32.6875 45.3125 -32 43 C-27.70700357 41.73735399 -25.12168689 42.37049588 -21 44 C-22.65 43.34 -24.3 42.68 -26 42 C-24.515 41.505 -24.515 41.505 -23 41 C-23.66 40.01 -24.32 39.02 -25 38 C-25 37.01 -25 36.02 -25 35 C-24.34 35 -23.68 35 -23 35 C-23 33.02 -23 31.04 -23 29 C-22.67 29 -22.34 29 -22 29 C-21.7525 30.216875 -21.505 31.43375 -21.25 32.6875 C-20.21705394 36.66469368 -19.13232782 39.18893658 -16 42 C-11.09235957 44.31827586 -6.45276907 45.41944377 -1 45 C-1.33 45 -1.66 45 -2 45 C-3.33568021 44.67619874 -4.66923011 44.34342449 -6 44 C-3.69 43.34 -1.38 42.68 1 42 C1.33 40.68 1.66 39.36 2 38 C2.66 38 3.32 38 4 38 C6.13685372 29.18547841 4.52187747 22.15838573 0.625 14.1875 C-0.97466563 11.83395791 -0.97466563 11.83395791 -3.625 9.9375 C-6.10589629 7.91361092 -6.66695423 7.10842723 -7 4 C-5.68 4 -4.36 4 -3 4 C-1.22590192 2.07977297 -1.22590192 2.07977297 0 0 Z " fill="#A873F3" transform="translate(75,30)"/>
<path d="M0 0 C4.63931857 6.20106937 6.57181866 13.28044811 6 21 C5.125 23.875 5.125 23.875 4 26 C3.34 26.33 2.68 26.66 2 27 C1.67 27.99 1.34 28.98 1 30 C0.67 30.33 0.34 30.66 0 31 C0.66 31.33 1.32 31.66 2 32 C-2.22382774 34.81588516 -5.17531684 33.95689549 -10 33 C-15.15997788 31.45200664 -18.25096798 29.5252646 -21.11328125 25.02734375 C-22.73819587 21.31223058 -22.88224659 17.93783233 -22 14 C-18.91590822 8.95330436 -15.66460709 6.63217493 -10 5 C-5.73738032 4.95289923 -2.60486065 5.59675957 1 8 C0.67 7.01 0.34 6.02 0 5 C-5.24599449 2.37700276 -13.45801366 3.80173268 -19 5 C-15.56464151 1.82824575 -12.84669909 1.54233495 -8.25 1.3125 C-7.07953125 1.24675781 -5.9090625 1.18101563 -4.703125 1.11328125 C-3.36507812 1.05720703 -3.36507812 1.05720703 -2 1 C-5.06533164 -0.53266582 -8.26754272 -0.10276471 -11.625 -0.0625 C-12.68460938 -0.05573242 -12.68460938 -0.05573242 -13.765625 -0.04882812 C-15.51045275 -0.03703875 -17.255237 -0.01910324 -19 0 C-19 0.66 -19 1.32 -19 2 C-20.32 1.67 -21.64 1.34 -23 1 C-15.1336751 -3.43374676 -7.45424885 -6.93418497 0 0 Z " fill="#E08A58" transform="translate(75,42)"/>
<path d="M0 0 C3.1529322 1.06027808 6.29926759 2.13862497 9.44140625 3.23046875 C18.93813888 6.34197587 26.37542936 5.40342699 36.05712891 3.44165039 C41.15452489 2.433913 45.78271847 2.08999217 50.95703125 2.3671875 C51.45203125 6.8221875 51.45203125 6.8221875 51.95703125 11.3671875 C39.10307549 19.44681683 20.09317631 17.00870951 5.95703125 14.3671875 C3.14027057 13.54109889 0.63971051 12.57165574 -2.04296875 11.3671875 C-2.04296875 10.7071875 -2.04296875 10.0471875 -2.04296875 9.3671875 C-2.97109375 9.0990625 -3.89921875 8.8309375 -4.85546875 8.5546875 C-9.49458165 6.82639054 -9.49458165 6.82639054 -11.04296875 4.3671875 C-10.85546875 1.7421875 -10.85546875 1.7421875 -10.04296875 -0.6328125 C-6.67924265 -2.31467555 -3.48670421 -1.08001163 0 0 Z " fill="#0A2A40" transform="translate(53.04296875,73.6328125)"/>
<path d="M0 0 C5.02133317 0.09213455 9.04528202 2.09755364 13.4375 4.375 C10.4375 5.375 10.4375 5.375 7.0625 3.875 C3.38367804 2.35272884 2.1109377 2.15052077 -1.5625 3.375 C-1.60760361 5.75397003 -1.60760361 5.75397003 -0.5625 8.375 C1.6683475 10.05349824 3.91155906 11.13499263 6.4375 12.375 C6.4375 13.035 6.4375 13.695 6.4375 14.375 C21.82496453 18.64482 36.60196324 19.12064972 52.4375 17.375 C51.05561547 20.58543882 49.51328097 22.42436365 46.8125 24.625 C46.18085937 25.14578125 45.54921875 25.6665625 44.8984375 26.203125 C44.41632813 26.58984375 43.93421875 26.9765625 43.4375 27.375 C45.0153125 27.3440625 45.0153125 27.3440625 46.625 27.3125 C50.95149338 28.51824406 51.30273283 29.03971452 53.4375 32.75 C54.6875 35.1484375 54.6875 35.1484375 55.4375 37.375 C55.1075 38.365 54.7775 39.355 54.4375 40.375 C53.9425 38.395 53.9425 38.395 53.4375 36.375 C52.7775 36.375 52.1175 36.375 51.4375 36.375 C51.1075 37.365 50.7775 38.355 50.4375 39.375 C49.1175 37.725 47.7975 36.075 46.4375 34.375 C45.97601563 34.77332031 45.51453125 35.17164063 45.0390625 35.58203125 C36.83535366 42.24551807 28.87463062 43.97457984 18.4375 43.375 C18.4375 42.715 18.4375 42.055 18.4375 41.375 C19.59765625 41.22804688 19.59765625 41.22804688 20.78125 41.078125 C28.2135379 40.01111337 35.254622 38.95573775 40.4375 33.125 C40.7675 32.5475 41.0975 31.97 41.4375 31.375 C40.40625 31.87 39.375 32.365 38.3125 32.875 C34.91298422 34.34973902 32.16728451 34.64791106 28.4375 34.375 C28.1075 33.715 27.7775 33.055 27.4375 32.375 C31.3975 31.385 35.3575 30.395 39.4375 29.375 C38.30048403 28.00967451 38.30048403 28.00967451 35.27734375 28.27734375 C33.98957031 28.28894531 32.70179687 28.30054687 31.375 28.3125 C30.08464844 28.32152344 28.79429688 28.33054687 27.46484375 28.33984375 C26.46582031 28.35144531 25.46679688 28.36304687 24.4375 28.375 C24.4375 28.045 24.4375 27.715 24.4375 27.375 C25.52289063 27.26542969 26.60828125 27.15585938 27.7265625 27.04296875 C29.17194152 26.88341392 30.61725051 26.72322389 32.0625 26.5625 C33.13177734 26.45711914 33.13177734 26.45711914 34.22265625 26.34960938 C39.77940742 25.71236727 44.3585931 24.4539069 48.4375 20.375 C47.78265625 20.4471875 47.1278125 20.519375 46.453125 20.59375 C30.42633436 22.22359312 14.58643384 22.07155086 0.4375 13.375 C-0.573125 12.75625 -1.58375 12.1375 -2.625 11.5 C-5.29927553 8.56692361 -5.49016704 6.28098003 -5.5625 2.375 C-3.5625 0.375 -3.5625 0.375 0 0 Z " fill="#140425" transform="translate(44.5625,70.625)"/>
<path d="M0 0 C3.99452176 1.36955032 6.92159754 3.0926199 10 6 C10.8125 8.25 10.8125 8.25 11 10 C10.34 10 9.68 10 9 10 C9.99 11.65 10.98 13.3 12 15 C11.01 15.33 10.02 15.66 9 16 C9.92455559 17.508013 10.8650747 19.00624917 11.8125 20.5 C12.33457031 21.3353125 12.85664062 22.170625 13.39453125 23.03125 C13.92433594 23.6809375 14.45414063 24.330625 15 25 C15.99 25 16.98 25 18 25 C15.10526316 36.49122807 15.10526316 36.49122807 11 39 C7.25 39.25 7.25 39.25 4 39 C3.855625 38.195625 3.71125 37.39125 3.5625 36.5625 C3.25864751 34.07896294 3.25864751 34.07896294 2 33 C1.83203125 31.109375 1.83203125 31.109375 1.8125 28.75 C1.79832031 27.98171875 1.78414062 27.2134375 1.76953125 26.421875 C2 24 2 24 3.00390625 21.56640625 C4.15594919 18.5982015 4.20138338 16.35741014 4.125 13.1875 C4.10695313 12.21167969 4.08890625 11.23585938 4.0703125 10.23046875 C4.04710937 9.49441406 4.02390625 8.75835937 4 8 C3.34 8 2.68 8 2 8 C1.34 5.36 0.68 2.72 0 0 Z " fill="#A771F1" transform="translate(20,20)"/>
<path d="M0 0 C4.22150715 1.01628876 8.28339522 2.36679964 12.375 3.8125 C12.375 5.1325 12.375 6.4525 12.375 7.8125 C10.395 7.8125 8.415 7.8125 6.375 7.8125 C8.169375 8.5240625 8.169375 8.5240625 10 9.25 C10.67289063 9.51683594 11.34578125 9.78367187 12.0390625 10.05859375 C18.35052616 12.09557115 24.68718551 11.99560722 31.25 12 C32.68279297 12.01836914 32.68279297 12.01836914 34.14453125 12.03710938 C39.93756023 12.04902919 44.80749041 11.38646335 50.375 9.8125 C53.875 9.6875 53.875 9.6875 56.375 9.8125 C55.375 12.8125 55.375 12.8125 53.57324219 13.74633789 C46.22423863 15.96912008 39.27399266 16.31441148 31.625 16.25 C29.76536621 16.23972778 29.76536621 16.23972778 27.86816406 16.22924805 C16.71237832 16.03333942 3.8999416 15.01806339 -4.625 6.8125 C-5.625 4 -5.625 4 -5.625 1.8125 C-2.625 -0.1875 -2.625 -0.1875 0 0 Z " fill="#1BC8E0" transform="translate(47.625,72.1875)"/>
<path d="M0 0 C2.1875 1.625 2.1875 1.625 3.1875 3.625 C3.68617609 7.94685944 3.42027465 10.18353084 1.375 14.0625 C-1.2619405 16.89702106 -3.64779467 17.10443516 -7.4375 17.25 C-12.2217184 17.21067766 -12.2217184 17.21067766 -14.62109375 14.83203125 C-16.42071021 11.49831551 -16.47872767 8.274769 -15.8125 4.625 C-12.03507627 -1.49703156 -6.59986631 -3.22660131 0 0 Z " fill="#F28037" transform="translate(104.8125,51.375)"/>
<path d="M0 0 C0.33 0.99 0.66 1.98 1 3 C1.99 2.34 2.98 1.68 4 1 C3.67 2.98 3.34 4.96 3 7 C3.495 6.649375 3.99 6.29875 4.5 5.9375 C8.14330351 4.57126118 11.3101876 4.79022544 15 6 C17.5 8.5625 17.5 8.5625 19 11 C15.7 11.66 12.4 12.32 9 13 C9.66 14.65 10.32 16.3 11 18 C11.66 18 12.32 18 13 18 C13 18.66 13 19.32 13 20 C11.35 19.67 9.7 19.34 8 19 C6.68 20.65 5.36 22.3 4 24 C3.731875 22.948125 3.46375 21.89625 3.1875 20.8125 C1.69285053 16.01388854 0.35476036 13.06445457 -3.625 9.9375 C-6.10589629 7.91361092 -6.66695423 7.10842723 -7 4 C-5.68 4 -4.36 4 -3 4 C-1.22590192 2.07977297 -1.22590192 2.07977297 0 0 Z " fill="#AB75F5" transform="translate(75,30)"/>
<path d="M0 0 C2.5625 1.625 2.5625 1.625 3.5625 3.625 C2.73105469 3.74617188 1.89960937 3.86734375 1.04296875 3.9921875 C-0.04371094 4.15976562 -1.13039063 4.32734375 -2.25 4.5 C-3.32894531 4.66242187 -4.40789063 4.82484375 -5.51953125 4.9921875 C-8.61071793 5.47632338 -8.61071793 5.47632338 -11.4375 7.625 C-10.7775 7.955 -10.1175 8.285 -9.4375 8.625 C-9.4375 7.965 -9.4375 7.305 -9.4375 6.625 C-6.24443695 5.56064565 -3.79306004 5.42434647 -0.4375 5.375 C0.614375 5.34921875 1.66625 5.3234375 2.75 5.296875 C5.5625 5.625 5.5625 5.625 7.4375 7.140625 C7.994375 7.87539063 7.994375 7.87539063 8.5625 8.625 C7.59828125 8.68558594 6.6340625 8.74617188 5.640625 8.80859375 C4.37734375 8.89238281 3.1140625 8.97617187 1.8125 9.0625 C0.55953125 9.14371094 -0.6934375 9.22492187 -1.984375 9.30859375 C-4.62067553 9.55015522 -6.91787294 9.86783934 -9.4375 10.625 C-9.4375 11.285 -9.4375 11.945 -9.4375 12.625 C-10.0975 12.625 -10.7575 12.625 -11.4375 12.625 C-11.4375 11.965 -11.4375 11.305 -11.4375 10.625 C-13.0875 10.625 -14.7375 10.625 -16.4375 10.625 C-16.4375 9.965 -16.4375 9.305 -16.4375 8.625 C-17.0975 8.295 -17.7575 7.965 -18.4375 7.625 C-18.7675 7.295 -19.0975 6.965 -19.4375 6.625 C-19.4375 4.25 -19.4375 4.25 -18.4375 1.625 C-12.35687713 -1.97373599 -6.69535918 -2.67814367 0 0 Z " fill="#A974F3" transform="translate(65.4375,35.375)"/>
<path d="M0 0 C5.02133317 0.09213455 9.04528202 2.09755364 13.4375 4.375 C10.4375 5.375 10.4375 5.375 7.0625 3.875 C3.38367804 2.35272884 2.1109377 2.15052077 -1.5625 3.375 C-1.60760361 5.75397003 -1.60760361 5.75397003 -0.5625 8.375 C1.6683475 10.05349824 3.91155906 11.13499263 6.4375 12.375 C6.4375 13.035 6.4375 13.695 6.4375 14.375 C21.43200797 18.5357797 36.00016305 19.28759042 51.4375 17.375 C51.1075 18.035 50.7775 18.695 50.4375 19.375 C34.76676744 23.31090492 16.74268965 22.62714045 2.46484375 14.62109375 C1.79582031 14.20988281 1.12679687 13.79867187 0.4375 13.375 C-0.573125 12.75625 -1.58375 12.1375 -2.625 11.5 C-5.29927553 8.56692361 -5.49016704 6.28098003 -5.5625 2.375 C-3.5625 0.375 -3.5625 0.375 0 0 Z " fill="#7849B4" transform="translate(44.5625,70.625)"/>
<path d="M0 0 C1 2 1 2 0.3125 5.5 C-0.46318917 10.99943732 1.69330308 15.10677735 4 20 C4.75434609 21.62298705 5.50457755 23.24789509 6.25 24.875 C6.58515625 25.57367188 6.9203125 26.27234375 7.265625 26.9921875 C8 29 8 29 8 33 C7.34 33 6.68 33 6 33 C5.773125 31.72125 5.54625 30.4425 5.3125 29.125 C4.83633288 26.92283895 4.83633288 26.92283895 4 25 C1.52363988 23.62533375 1.52363988 23.62533375 -1 23 C-1.33 22.01 -1.66 21.02 -2 20 C-5.00847418 18.77479736 -5.00847418 18.77479736 -8 18 C-7.79503906 17.32453125 -7.59007813 16.6490625 -7.37890625 15.953125 C-7.10949219 15.06109375 -6.84007813 14.1690625 -6.5625 13.25 C-6.16224609 11.92742188 -6.16224609 11.92742188 -5.75390625 10.578125 C-4.98915187 8.07987237 -4.98915187 8.07987237 -4.53125 5.8125 C-3.75336388 3.15853559 -2.01335966 1.8185184 0 0 Z " fill="#A772F1" transform="translate(102,22)"/>
<path d="M0 0 C2.1875 1.9375 2.1875 1.9375 4 4 C4.556875 4.45375 5.11375 4.9075 5.6875 5.375 C7.5880116 7.72801437 7.67232518 10.05092663 8 13 C7.195625 12.319375 6.39125 11.63875 5.5625 10.9375 C1.99549738 8.55100539 -0.86688594 8.6843043 -5.0078125 9.40234375 C-7.13675477 9.91459247 -7.13675477 9.91459247 -9.0625 11.5625 C-10.4774825 15.2414545 -10.31308281 18.0551566 -10 22 C-9.34 22.99 -8.68 23.98 -8 25 C-5.3443272 25.58348752 -5.3443272 25.58348752 -2.375 25.6875 C-1.37210938 25.75324219 -0.36921875 25.81898437 0.6640625 25.88671875 C1.43492188 25.92410156 2.20578125 25.96148437 3 26 C-0.09780948 28.06520632 -0.9540481 28.29477024 -4.5 28.3125 C-5.66015625 28.33763672 -5.66015625 28.33763672 -6.84375 28.36328125 C-9.52867986 27.91092894 -10.35878405 27.13658295 -12 25 C-13.24526479 21.26420563 -13.65171217 17.87365997 -13 14 C-11.23522708 10.65352188 -8.8269049 8.48766186 -5.5625 6.5625 C-2.43760436 5.8765473 -0.09421058 6.28041614 3 7 C2.67 6.34 2.34 5.68 2 5 C-2.62 5 -7.24 5 -12 5 C-10 3 -10 3 -6 2 C-8.97 2 -11.94 2 -15 2 C-14 0 -14 0 -10.3125 -1.25 C-6.28734048 -2.15728104 -3.76367355 -1.88183677 0 0 Z " fill="#180914" transform="translate(100,42)"/>
<path d="M0 0 C0.33 0.66 0.66 1.32 1 2 C2.32480472 2.3657613 3.66022938 2.6935631 5 3 C6.43362072 3.65140796 7.85101812 4.3396927 9.25 5.0625 C9.95640625 5.42472656 10.6628125 5.78695312 11.390625 6.16015625 C11.92171875 6.43730469 12.4528125 6.71445313 13 7 C11 7.66666667 9 8.33333333 7 9 C6.67 9.66 6.34 10.32 6 11 C7.98 11.66 9.96 12.32 12 13 C10.3046875 13.6640625 10.3046875 13.6640625 8 14 C5.6328125 12.8984375 5.6328125 12.8984375 3.125 11.375 C0.55238212 9.92007557 0.55238212 9.92007557 -2 9 C-5.4370865 10.00828537 -5.4370865 10.00828537 -8 12 C-8.99 12 -9.98 12 -11 12 C-11.66 17.94 -12.32 23.88 -13 30 C-13.33 30 -13.66 30 -14 30 C-14.39546421 15.38979447 -14.39546421 15.38979447 -12 10 C-9.80200446 8.4201907 -8.6847018 8 -6 8 C-6.33 7.67 -6.66 7.34 -7 7 C-6.875 5.0625 -6.875 5.0625 -6 3 C-3.5 1.8125 -3.5 1.8125 -1 1 C-0.67 0.67 -0.34 0.34 0 0 Z " fill="#8D5CCC" transform="translate(39,98)"/>
<path d="M0 0 C0.99 0.99 1.98 1.98 3 3 C-0.63 2.34 -4.26 1.68 -8 1 C-8.33 1.99 -8.66 2.98 -9 4 C-12.37867647 6.46552067 -13.70558202 7 -18 7 C-18.49129441 13.22413683 -18.49129441 13.22413683 -16.3125 18.9375 C-13.32226677 21.60446477 -11.15721709 23.08181063 -7.04296875 22.92578125 C-3.64135984 22.54081252 -0.28786644 21.95896104 3 21 C3 21.99 3 22.98 3 24 C2.67 24.33 2.34 24.66 2 25 C2.66 25.33 3.32 25.66 4 26 C-0.22382774 28.81588516 -3.17531684 27.95689549 -8 27 C-13.15997788 25.45200664 -16.25096798 23.5252646 -19.11328125 19.02734375 C-20.73819587 15.31223058 -20.88224659 11.93783233 -20 8 C-15.15698291 0.07506294 -8.67245815 -2.02357357 0 0 Z " fill="#5A1D1E" transform="translate(73,48)"/>
<path d="M0 0 C-0.30859375 1.89135742 -0.30859375 1.89135742 -1 4 C-8.4080961 8.20485047 -16.74752777 7.33637033 -25 7.1875 C-26.45701743 7.17242741 -27.91404993 7.15874355 -29.37109375 7.14648438 C-32.91437925 7.11367903 -36.45709171 7.06203907 -40 7 C-40.33 6.01 -40.66 5.02 -41 4 C-40.43192627 4.01571045 -39.86385254 4.0314209 -39.27856445 4.04760742 C-25.82546567 4.36989433 -12.6720007 -0.3334737 0 0 Z " fill="#19CFE7" transform="translate(103,76)"/>
<path d="M0 0 C0.66 0 1.32 0 2 0 C1.9071875 1.60875 1.9071875 1.60875 1.8125 3.25 C1.77207787 6.86896403 1.77207787 6.86896403 3.0625 9.4375 C5.95842061 11.77291985 8.36988545 11.18776455 12 11 C13.3303125 11.2784375 13.3303125 11.2784375 14.6875 11.5625 C17.16393458 12.03101465 18.63315731 11.78894756 21 11 C21.33 11.99 21.66 12.98 22 14 C16.41957695 16.49126029 11.96803763 18.05497378 6 16 C3.04763784 14.16197844 0.58262878 12.16525757 -1 9 C-1.23333333 2.46666667 -1.23333333 2.46666667 0 0 Z " fill="#E84322" transform="translate(55,55)"/>
<path d="M0 0 C-1 3 -1 3 -2.77099609 3.94262695 C-10.42049014 6.30157444 -17.66823693 6.34729081 -25.625 6.1875 C-26.91535156 6.17396484 -28.20570312 6.16042969 -29.53515625 6.14648438 C-32.69055028 6.11142444 -35.84504578 6.06228144 -39 6 C-35.44472812 3.62981875 -32.79712283 3.67835278 -28.6875 3.5625 C-21.89548749 3.27194505 -15.69656812 2.26197475 -9.0859375 0.62109375 C-5.9721883 -0.00559754 -3.16681388 -0.10936444 0 0 Z " fill="#15CCE4" transform="translate(104,82)"/>
<path d="M0 0 C4.71403153 6.30093323 6.31910949 13.18181741 6 21 C5.67 21 5.34 21 5 21 C4.71125 19.7625 4.4225 18.525 4.125 17.25 C3.38110505 14.25331681 2.46141607 11.72797667 1 9 C0.7525 7.9171875 0.7525 7.9171875 0.5 6.8125 C0.2525 5.9153125 0.2525 5.9153125 0 5 C-5.24599449 2.37700276 -13.45801366 3.80173268 -19 5 C-15.56464151 1.82824575 -12.84669909 1.54233495 -8.25 1.3125 C-7.07953125 1.24675781 -5.9090625 1.18101563 -4.703125 1.11328125 C-3.36507812 1.05720703 -3.36507812 1.05720703 -2 1 C-5.06533164 -0.53266582 -8.26754272 -0.10276471 -11.625 -0.0625 C-12.68460938 -0.05573242 -12.68460938 -0.05573242 -13.765625 -0.04882812 C-15.51045275 -0.03703875 -17.255237 -0.01910324 -19 0 C-19 0.66 -19 1.32 -19 2 C-20.32 1.67 -21.64 1.34 -23 1 C-15.1336751 -3.43374676 -7.45424885 -6.93418497 0 0 Z " fill="#1A0C2E" transform="translate(75,42)"/>
<path d="M0 0 C5.66153846 1.47692308 5.66153846 1.47692308 7.375 4.125 C7.58125 4.74375 7.7875 5.3625 8 6 C5.61435923 5.42415568 3.33317216 4.77772405 1 4 C0.67 4.99 0.34 5.98 0 7 C-8.07851766 12.84218981 -16.24016476 14.35347492 -26 14 C-26 13.34 -26 12.68 -26 12 C-25.24976563 11.90203125 -24.49953125 11.8040625 -23.7265625 11.703125 C-12.16625941 10.2748248 -12.16625941 10.2748248 -2.4921875 4.40625 C-1.23735422 2.62299526 -1.23735422 2.62299526 0 0 Z " fill="#653D99" transform="translate(89,100)"/>
<path d="M0 0 C3.86330927 0.60364207 7.24457404 1.8047532 10.83984375 3.28125 C16.19354169 5.06258892 21.78571263 5.25423008 27.375 5.5625 C28.11105469 5.60568359 28.84710938 5.64886719 29.60546875 5.69335938 C31.40348068 5.79843799 33.20171958 5.89962093 35 6 C35 6.33 35 6.66 35 7 C9.0298471 9.22583166 9.0298471 9.22583166 -2 3 C-1.34 2.67 -0.68 2.34 0 2 C0 1.34 0 0.68 0 0 Z " fill="#23D4ED" transform="translate(49,79)"/>
<path d="M0 0 C1.65653354 4.96960061 -1.07231419 9.31847732 -3 14 C-6.9517002 14.3763524 -8.82294633 14.09508438 -12.375 12.1875 C-13.674375 11.1046875 -13.674375 11.1046875 -15 10 C-15 9.01 -15 8.02 -15 7 C-11.37 7 -7.74 7 -4 7 C-3.34 5.68 -2.68 4.36 -2 3 C-1.34 2.01 -0.68 1.02 0 0 Z " fill="#551F63" transform="translate(107,62)"/>
<path d="M0 0 C3.875 1.75 3.875 1.75 5 4 C5.68149325 9.90627482 5.68149325 9.90627482 3.8828125 12.79296875 C2.65466073 14.25356733 1.33262899 15.63405529 0 17 C-0.6875 15.3125 -0.6875 15.3125 -1 13 C0.4375 10.25 0.4375 10.25 2 8 C0.68 7.67 -0.64 7.34 -2 7 C-2 6.67 -2 6.34 -2 6 C-3.65 6 -5.3 6 -7 6 C-7.33 6.99 -7.66 7.98 -8 9 C-8.99 8.67 -9.98 8.34 -11 8 C-11 5 -11 5 -9.375 3.1875 C-7 2 -7 2 -3.875 2.6875 C-1 4 -1 4 1 6 C1.33 5.01 1.66 4.02 2 3 C1.34 3 0.68 3 0 3 C0 2.01 0 1.02 0 0 Z " fill="#E77E55" transform="translate(103,51)"/>
<path d="M0 0 C0.33 0 0.66 0 1 0 C1.88583192 6.61979798 2.10372311 11.56508226 0 18 C-0.33465889 21.70940775 -0.33465889 21.70940775 0 25 C0.66 25.66 1.32 26.32 2 27 C1.01 27.99 0.02 28.98 -1 30 C-3.66011455 27.45072356 -4.26280809 25.37770954 -4.375 21.8125 C-4.24384357 17.60168842 -3.19830304 14.1409723 -1.734375 10.21875 C-0.6157366 6.83903398 -0.32158101 3.53739116 0 0 Z " fill="#673D9B" transform="translate(23,28)"/>
<path d="M0 0 C2.31 0 4.62 0 7 0 C7.33 0.99 7.66 1.98 8 3 C9.31647119 3.69937532 10.65022151 4.36729133 12 5 C13.20272819 7.40545638 13.10071472 8.94996953 13.0625 11.625 C13.05347656 12.44226562 13.04445313 13.25953125 13.03515625 14.1015625 C13.02355469 14.72804688 13.01195313 15.35453125 13 16 C12.34 16 11.68 16 11 16 C10.85304688 15.06027344 10.85304688 15.06027344 10.703125 14.1015625 C10.55359375 13.28429688 10.4040625 12.46703125 10.25 11.625 C10.11078125 10.81289063 9.9715625 10.00078125 9.828125 9.1640625 C9.1905861 6.86236796 9.1905861 6.86236796 7.125 5.78125 C4.43482214 4.79221402 1.7312913 3.86904723 -1 3 C-0.67 2.01 -0.34 1.02 0 0 Z " fill="#EB4825" transform="translate(65,49)"/>
<path d="M0 0 C5.47826087 -0.36521739 5.47826087 -0.36521739 7.875 1.3125 C9 3 9 3 9 6 C4.57890387 7.78949129 1.63536273 8.2935896 -3 7 C-3.33 6.34 -3.66 5.68 -4 5 C-3.01 4.34 -2.02 3.68 -1 3 C-0.67 2.01 -0.34 1.02 0 0 Z " fill="#3E3730" transform="translate(62,55)"/>
<path d="M0 0 C1.051875 -0.02578125 2.10375 -0.0515625 3.1875 -0.078125 C6 0.25 6 0.25 7.875 1.765625 C8.24625 2.25546875 8.6175 2.7453125 9 3.25 C8.03578125 3.31058594 7.0715625 3.37117188 6.078125 3.43359375 C4.81484375 3.51738281 3.5515625 3.60117187 2.25 3.6875 C0.99703125 3.76871094 -0.2559375 3.84992187 -1.546875 3.93359375 C-4.18317553 4.17515522 -6.48037294 4.49283934 -9 5.25 C-9 5.91 -9 6.57 -9 7.25 C-9.66 7.25 -10.32 7.25 -11 7.25 C-11 6.59 -11 5.93 -11 5.25 C-12.65 5.25 -14.3 5.25 -16 5.25 C-15.67 4.59 -15.34 3.93 -15 3.25 C-13.02 3.25 -11.04 3.25 -9 3.25 C-9 2.59 -9 1.93 -9 1.25 C-5.80693695 0.18564565 -3.35556004 0.04934647 0 0 Z " fill="#9663D8" transform="translate(65,40.75)"/>
<path d="M0 0 C1.65 0.33 3.3 0.66 5 1 C4.67 1.99 4.34 2.98 4 4 C4.99 3.67 5.98 3.34 7 3 C7.66 3.33 8.32 3.66 9 4 C9 4.99 9 5.98 9 7 C10.32 7.66 11.64 8.32 13 9 C11.01432292 8.96744792 9.02864583 8.93489583 7.04296875 8.90234375 C3.84160705 9.05537251 2.26562673 9.73437327 0 12 C0.33 9.69 0.66 7.38 1 5 C0.01 5.99 -0.98 6.98 -2 8 C-1.125 2.25 -1.125 2.25 0 0 Z " fill="#501357" transform="translate(77,27)"/>
<path d="M0 0 C5.02133317 0.09213455 9.04528202 2.09755364 13.4375 4.375 C10.4375 5.375 10.4375 5.375 7.0625 3.875 C3.38367804 2.35272884 2.1109377 2.15052077 -1.5625 3.375 C-1.60760361 5.75397003 -1.60760361 5.75397003 -0.5625 8.375 C1.6683475 10.05349824 3.91155906 11.13499263 6.4375 12.375 C3.4375 13.375 3.4375 13.375 -0.125 12.125 C-3.5625 10.375 -3.5625 10.375 -5.5625 7.375 C-5.8125 4.8125 -5.8125 4.8125 -5.5625 2.375 C-3.5625 0.375 -3.5625 0.375 0 0 Z " fill="#382661" transform="translate(44.5625,70.625)"/>
<path d="M0 0 C0 0.99 0 1.98 0 3 C-0.33 3.33 -0.66 3.66 -1 4 C-0.34 4.33 0.32 4.66 1 5 C-2.76379114 7.5091941 -4.33796687 7.07493592 -8.640625 6.484375 C-12.09819907 5.77454191 -14.86659709 4.63198068 -18 3 C-18.33 2.34 -18.66 1.68 -19 1 C-18.19175781 1.09539062 -17.38351563 1.19078125 -16.55078125 1.2890625 C-14.94783203 1.45535156 -14.94783203 1.45535156 -13.3125 1.625 C-12.25675781 1.74101563 -11.20101562 1.85703125 -10.11328125 1.9765625 C-6.33465803 2.00500885 -3.60391336 0 0 0 Z " fill="#512B6F" transform="translate(76,69)"/>
<path d="M0 0 C0.33 0.99 0.66 1.98 1 3 C1.99 2.34 2.98 1.68 4 1 C3.71812064 2.79323253 3.4241719 4.58457126 3.125 6.375 C2.96257812 7.37273438 2.80015625 8.37046875 2.6328125 9.3984375 C2 12 2 12 0 14 C-3.39417765 10.87378374 -5.6062718 8.43458973 -7 4 C-5.68 4 -4.36 4 -3 4 C-1.22590192 2.07977297 -1.22590192 2.07977297 0 0 Z " fill="#A371E9" transform="translate(75,30)"/>
<path d="M0 0 C0.90795183 3.04513075 1.02612115 5.58653057 0.875 8.75 C0.79833654 15.24722861 2.91568004 20.30587084 6 26 C1.67348215 22.7310754 -1.14325064 20.26078987 -3 15 C-3.57197455 8.99426726 -2.68056188 5.36112376 0 0 Z " fill="#7846B4" transform="translate(29,63)"/>
<path d="M0 0 C2.25 2.0625 2.25 2.0625 4 4 C4.66 4.33 5.32 4.66 6 5 C5.67 6.32 5.34 7.64 5 9 C4.65324219 8.34515625 4.30648437 7.6903125 3.94921875 7.015625 C2.07279848 4.64931108 2.07279848 4.64931108 -1.35546875 4.609375 C-2.62003906 4.65578125 -3.88460937 4.7021875 -5.1875 4.75 C-6.45980469 4.78609375 -7.73210937 4.8221875 -9.04296875 4.859375 C-10.50669922 4.92898437 -10.50669922 4.92898437 -12 5 C-10 3 -10 3 -6 2 C-8.97 2 -11.94 2 -15 2 C-14 0 -14 0 -10.3125 -1.25 C-6.28734048 -2.15728104 -3.76367355 -1.88183677 0 0 Z " fill="#3A205B" transform="translate(100,42)"/>
<path d="M0 0 C0.66 0.99 1.32 1.98 2 3 C1.3203125 5.26171875 1.3203125 5.26171875 0.125 7.6875 C-0.26429687 8.49574219 -0.65359375 9.30398437 -1.0546875 10.13671875 C-1.36664063 10.75160156 -1.67859375 11.36648437 -2 12 C-4 10.625 -4 10.625 -6 9 C-6 8.34 -6 7.68 -6 7 C-7.32 6.34 -8.64 5.68 -10 5 C-9.01 4.01 -8.02 3.02 -7 2 C-6.67 2.66 -6.34 3.32 -6 4 C-5.319375 3.2575 -5.319375 3.2575 -4.625 2.5 C-3 1 -3 1 -1 1 C-0.67 0.67 -0.34 0.34 0 0 Z " fill="#653E97" transform="translate(96,28)"/>
<path d="M0 0 C0.33 0 0.66 0 1 0 C1.3403125 1.7634375 1.3403125 1.7634375 1.6875 3.5625 C2.83007609 8.24122399 5.03040737 11.24893562 8 15 C3.41201223 16.53271273 1.22055258 15.02911182 -3 13 C-2.01 12.67 -1.02 12.34 0 12 C-0.66 11.01 -1.32 10.02 -2 9 C-2 8.01 -2 7.02 -2 6 C-1.34 6 -0.68 6 0 6 C0 4.02 0 2.04 0 0 Z " fill="#9C6CDD" transform="translate(52,59)"/>
<path d="M0 0 C0.67095703 0.58007812 0.67095703 0.58007812 1.35546875 1.171875 C2.61769529 2.25916609 3.88354477 3.34226076 5.15234375 4.421875 C6.53118853 5.59957752 7.89469398 6.79528354 9.25 8 C13.56302257 11.13674369 18.28531144 13.5229307 23 16 C18.82412255 17.39195915 16.86525224 15.82323219 13 14 C12.34 14.66 11.68 15.32 11 16 C10.67 15.67 10.34 15.34 10 15 C9.34 15.66 8.68 16.32 8 17 C7.34 16.34 6.68 15.68 6 15 C7.32 14.01 8.64 13.02 10 12 C9.278125 11.30132812 8.55625 10.60265625 7.8125 9.8828125 C6.884375 8.97273438 5.95625 8.06265625 5 7.125 C4.071875 6.22007813 3.14375 5.31515625 2.1875 4.3828125 C0 2 0 2 0 0 Z " fill="#12051F" transform="translate(29,84)"/>
<path d="M0 0 C0.99 0.33 1.98 0.66 3 1 C1.515 4.465 1.515 4.465 0 8 C0.66 8 1.32 8 2 8 C2.84098656 12.01804691 3.05404945 15.01803543 2 19 C2.66 19.33 3.32 19.66 4 20 C3.34 20.66 2.68 21.32 2 22 C-1.66164482 14.75528643 -2.70030348 9.00741211 -1 1 C-0.67 0.67 -0.34 0.34 0 0 Z " fill="#4B1251" transform="translate(103,20)"/>
<path d="M0 0 C1.9375 0.3125 1.9375 0.3125 4 1 C4.33 1.99 4.66 2.98 5 4 C4.01 4.66 3.02 5.32 2 6 C6.33273814 6.92844389 9.66726186 6.92844389 14 6 C11.99604861 8.71122835 10.9055745 9.01854787 7.5 9.6875 C4 10 4 10 1 10 C-1.56687367 6.1496895 -0.83288724 4.41430237 0 0 Z " fill="#F3B64A" transform="translate(57,55)"/>
<path d="M0 0 C0.66 0.66 1.32 1.32 2 2 C2.66 1.34 3.32 0.68 4 0 C5 3 5 3 4 6 C3.01 6 2.02 6 1 6 C1.309375 7.051875 1.61875 8.10375 1.9375 9.1875 C2.75685094 12.12752396 3.45483931 15.00161623 4 18 C1.93318555 15.38928701 0.06890393 12.66162161 -1.75 9.875 C-2.19859375 9.19179688 -2.6471875 8.50859375 -3.109375 7.8046875 C-3.40328125 7.20914063 -3.6971875 6.61359375 -4 6 C-3.67 5.34 -3.34 4.68 -3 4 C-2.34 4 -1.68 4 -1 4 C-0.67 2.68 -0.34 1.36 0 0 Z " fill="#6B489C" transform="translate(32,30)"/>
<path d="M0 0 C3.63 0 7.26 0 11 0 C11.33 0.99 11.66 1.98 12 3 C11.40832031 3.02578125 10.81664063 3.0515625 10.20703125 3.078125 C4.91337489 3.45809381 1.89392143 4.10607857 -2 8 C-2.66 8.66 -3.32 9.32 -4 10 C-3.35337374 6.5082182 -1.86282152 3.99671287 0 1 C0 0.67 0 0.34 0 0 Z " fill="#7546B0" transform="translate(91,46)"/>
<path d="M0 0 C4.30095051 0.35841254 5.82158096 1.20660102 8.75 4.3125 C8.75 5.3025 8.75 6.2925 8.75 7.3125 C7.43 6.9825 6.11 6.6525 4.75 6.3125 C5.08 5.9825 5.41 5.6525 5.75 5.3125 C3.46294169 4.16897084 2.15735238 4.20915561 -0.375 4.25 C-2.293125 4.2809375 -2.293125 4.2809375 -4.25 4.3125 C-4.25 0.13554102 -4.18944588 0.40283133 0 0 Z " fill="#F48F45" transform="translate(64.25,51.6875)"/>
<path d="M0 0 C0.33 0.66 0.66 1.32 1 2 C2.32480472 2.3657613 3.66022938 2.6935631 5 3 C6.43362072 3.65140796 7.85101812 4.3396927 9.25 5.0625 C9.95640625 5.42472656 10.6628125 5.78695312 11.390625 6.16015625 C11.92171875 6.43730469 12.4528125 6.71445313 13 7 C9.69407756 8.10197415 7.46771262 8.27741701 4 8 C1.125 6.5 1.125 6.5 -1 5 C-0.67 3.35 -0.34 1.7 0 0 Z " fill="#4F3178" transform="translate(39,98)"/>
<path d="M0 0 C-0.99 0.495 -0.99 0.495 -2 1 C-2.66 0.67 -3.32 0.34 -4 0 C-6.55157655 -0.0716735 -9.07472971 -0.09308442 -11.625 -0.0625 C-12.68460938 -0.05573242 -12.68460938 -0.05573242 -13.765625 -0.04882812 C-15.51045275 -0.03703875 -17.255237 -0.01910324 -19 0 C-19 0.66 -19 1.32 -19 2 C-20.32 1.67 -21.64 1.34 -23 1 C-14.8209613 -3.61000363 -7.76041022 -6.56650096 0 0 Z " fill="#25133F" transform="translate(75,42)"/>
<path d="M0 0 C5.28 0 10.56 0 16 0 C16 0.66 16 1.32 16 2 C8.71428571 5.57142857 8.71428571 5.57142857 4 4 C4 3.34 4 2.68 4 2 C2.68 2 1.36 2 0 2 C0 1.34 0 0.68 0 0 Z " fill="#9768D8" transform="translate(68,98)"/>
<path d="M0 0 C1.65 0 3.3 0 5 0 C5.86646667 1.43011973 6.71781829 2.86940619 7.5625 4.3125 C8.03816406 5.11300781 8.51382813 5.91351563 9.00390625 6.73828125 C10 9 10 9 9 12 C8.67 10.68 8.34 9.36 8 8 C7.34 8 6.68 8 6 8 C5.67 8.99 5.34 9.98 5 11 C3.68 9.02 2.36 7.04 1 5 C2.32 5 3.64 5 5 5 C5 4.34 5 3.68 5 3 C3.35 2.67 1.7 2.34 0 2 C0 1.34 0 0.68 0 0 Z " fill="#38164A" transform="translate(90,99)"/>
<path d="M0 0 C3.99452176 1.36955032 6.92159754 3.0926199 10 6 C10.33 7.32 10.66 8.64 11 10 C8.36 8.35 5.72 6.7 3 5 C2.67 5.99 2.34 6.98 2 8 C1.34 5.36 0.68 2.72 0 0 Z " fill="#9366D2" transform="translate(20,20)"/>
<path d="M0 0 C-4.49344368 4.64322514 -8.86698764 4.76182476 -15 5 C-15.33 4.34 -15.66 3.68 -16 3 C-13.89936424 2.30178583 -11.79434263 1.61675528 -9.6875 0.9375 C-8.51574219 0.55464844 -7.34398438 0.17179687 -6.13671875 -0.22265625 C-3 -1 -3 -1 0 0 Z " fill="#4C2D74" transform="translate(88,100)"/>
<path d="M0 0 C1.65 0 3.3 0 5 0 C5.66 1.32 6.32 2.64 7 4 C4 6 4 6 0.8125 5.625 C-0.115625 5.41875 -1.04375 5.2125 -2 5 C-1.34 3.35 -0.68 1.7 0 0 Z " fill="#433931" transform="translate(96,56)"/>
<path d="M0 0 C0.33 1.32 0.66 2.64 1 4 C1.66 4 2.32 4 3 4 C2.67 5.32 2.34 6.64 2 8 C1.443125 7.175 0.88625 6.35 0.3125 5.5 C-1.73471089 2.77746491 -1.73471089 2.77746491 -4.5625 2.5625 C-7.24805134 2.87721386 -7.24805134 2.87721386 -10 5 C-10 4.01 -10 3.02 -10 2 C-6.5980513 -0.09350689 -3.94727588 -0.17942163 0 0 Z " fill="#EC4421" transform="translate(102,50)"/>
<path d="M0 0 C0 0.66 0 1.32 0 2 C-1.4117783 2.53394179 -2.82970244 3.05165104 -4.25 3.5625 C-5.03890625 3.85253906 -5.8278125 4.14257812 -6.640625 4.44140625 C-9.19103452 5.04522837 -10.55322229 4.8473932 -13 4 C-12 2 -12 2 -8.75 0.875 C-5.62299365 0.14536518 -3.17377095 -0.19234975 0 0 Z " fill="#1CDEF5" transform="translate(101,77)"/>
<path d="M0 0 C1.65 0.33 3.3 0.66 5 1 C4.01 1.33 3.02 1.66 2 2 C2.33 2.66 2.66 3.32 3 4 C5.52733235 4.65555119 5.52733235 4.65555119 8 5 C8 5.33 8 5.66 8 6 C2.04492601 5.6083965 -2.62819824 4.62875405 -8 2 C-4.71023192 0.90341064 -3.28696233 1.20046862 0 2 C0 1.34 0 0.68 0 0 Z " fill="#106C7E" transform="translate(60,78)"/>
<path d="M0 0 C2.875 1.4375 2.875 1.4375 4.25 3.5625 C4.45625 4.18125 4.6625 4.8 4.875 5.4375 C3.885 5.1075 2.895 4.7775 1.875 4.4375 C1.875 4.1075 1.875 3.7775 1.875 3.4375 C0.225 3.4375 -1.425 3.4375 -3.125 3.4375 C-3.455 4.4275 -3.785 5.4175 -4.125 6.4375 C-5.115 6.1075 -6.105 5.7775 -7.125 5.4375 C-7.125 2.4375 -7.125 2.4375 -5.5 0.625 C-3.125 -0.5625 -3.125 -0.5625 0 0 Z " fill="#F3B556" transform="translate(99.125,53.5625)"/>
<path d="M0 0 C0.598125 0.53625 1.19625 1.0725 1.8125 1.625 C1.4825 2.615 1.1525 3.605 0.8125 4.625 C-0.6415625 3.8515625 -0.6415625 3.8515625 -2.125 3.0625 C-6.60275272 1.09889532 -10.49305147 1.74146433 -15.1875 2.625 C-14.8575 1.965 -14.5275 1.305 -14.1875 0.625 C-9.27731479 -0.93208893 -4.80623121 -2.07327621 0 0 Z " fill="#774AB0" transform="translate(75.1875,46.375)"/>
<path d="M0 0 C4.29 0 8.58 0 13 0 C9.81237635 2.12508244 7.73487777 2.5020163 4 3 C3.67 3.99 3.34 4.98 3 6 C2.34 5.67 1.68 5.34 1 5 C0.67 3.35 0.34 1.7 0 0 Z " fill="#895ACA" transform="translate(84,43)"/>
<path d="M0 0 C0.66 0 1.32 0 2 0 C1.979375 1.03125 1.95875 2.0625 1.9375 3.125 C1.99276661 6.55152969 2.34550715 9.64572414 3 13 C1 11.4375 1 11.4375 -1 9 C-1.51470588 3.02941176 -1.51470588 3.02941176 0 0 Z " fill="#E7753A" transform="translate(55,55)"/>
<path d="M0 0 C0 0.33 0 0.66 0 1 C-1.12148437 1.14695313 -1.12148437 1.14695313 -2.265625 1.296875 C-8.41179202 2.1242422 -8.41179202 2.1242422 -13.6875 5.125 C-14.120625 5.74375 -14.55375 6.3625 -15 7 C-15.66 5.68 -16.32 4.36 -17 3 C-11.17521449 -0.03901852 -6.51791392 -0.3540919 0 0 Z " fill="#A673E9" transform="translate(72,45)"/>
<path d="M0 0 C0.66 0.66 1.32 1.32 2 2 C2.99 1.34 3.98 0.68 5 0 C3.33333333 3.33333333 1.66666667 6.66666667 0 10 C-1.76462683 6.91190305 -2 5.76687864 -2 2 C-1.34 2 -0.68 2 0 2 C0 1.34 0 0.68 0 0 Z " fill="#370E3F" transform="translate(71,26)"/>
<path d="M0 0 C1.3609623 2.7219246 0.70366248 4.1831957 0.0625 7.125 C-0.13214844 8.03507812 -0.32679687 8.94515625 -0.52734375 9.8828125 C-0.68332031 10.58148438 -0.83929688 11.28015625 -1 12 C-1.33 11.01 -1.66 10.02 -2 9 C-2.99 8.67 -3.98 8.34 -5 8 C-4.45773019 4.20411134 -2.79872437 2.52788007 0 0 Z " fill="#A26DE5" transform="translate(102,22)"/>
<path d="M0 0 C1.093125 0.185625 2.18625 0.37125 3.3125 0.5625 C6.93624133 1.2578068 6.93624133 1.2578068 10 0 C10 1.32 10 2.64 10 4 C6.7 4 3.4 4 0 4 C-0.33 3.34 -0.66 2.68 -1 2 C-0.67 1.34 -0.34 0.68 0 0 Z " fill="#E54521" transform="translate(92,64)"/>
<path d="M0 0 C1.98 0.66 3.96 1.32 6 2 C5.67 2.99 5.34 3.98 5 5 C6.98 5.66 8.96 6.32 11 7 C8.02943174 8.25677888 6.93133388 7.9757649 3.8125 6.875 C1 5 1 5 0.125 2.3125 C0.08375 1.549375 0.0425 0.78625 0 0 Z " fill="#744DAE" transform="translate(40,104)"/>
<path d="M0 0 C0.33 0 0.66 0 1 0 C1.22384382 1.72722728 1.42839969 3.45696007 1.625 5.1875 C1.74101562 6.15042969 1.85703125 7.11335938 1.9765625 8.10546875 C2.00194942 11.24075323 1.34359283 13.19486535 0 16 C-0.33 16 -0.66 16 -1 16 C-0.67 10.72 -0.34 5.44 0 0 Z " fill="#7C46BA" transform="translate(23,28)"/>
<path d="M0 0 C1.65322266 0.01740234 1.65322266 0.01740234 3.33984375 0.03515625 C4.99693359 0.04869141 4.99693359 0.04869141 6.6875 0.0625 C7.54214844 0.07410156 8.39679688 0.08570312 9.27734375 0.09765625 C7.04445605 2.33054395 6.3582456 2.46543777 3.33984375 2.84765625 C2.65019531 2.945625 1.96054688 3.04359375 1.25 3.14453125 C-0.72265625 3.09765625 -0.72265625 3.09765625 -3.72265625 1.09765625 C-2.72265625 0.09765625 -2.72265625 0.09765625 0 0 Z " fill="#DF432C" transform="translate(64.72265625,68.90234375)"/>
<path d="M0 0 C0.66 0 1.32 0 2 0 C0.54054054 4.62162162 0.54054054 4.62162162 -1.875 6.3125 C-4 7 -4 7 -8 7 C-8.33 6.01 -8.66 5.02 -9 4 C-6.36 4 -3.72 4 -1 4 C-0.67 2.68 -0.34 1.36 0 0 Z " fill="#F5712F" transform="translate(103,59)"/>
<path d="M0 0 C2.64 1.65 5.28 3.3 8 5 C2.86057616 6.28485596 1.62164416 5.22194431 -3 3 C-2.01 2.67 -1.02 2.34 0 2 C0 1.34 0 0.68 0 0 Z " fill="#6E4CA1" transform="translate(52,69)"/>
<path d="M0 0 C0 0.99 0 1.98 0 3 C-3.50776784 4.60355101 -6.14354879 5.22036864 -10 5 C-9.67 4.01 -9.34 3.02 -9 2 C-6.93359375 1.26953125 -6.93359375 1.26953125 -4.4375 0.8125 C-3.61121094 0.65394531 -2.78492187 0.49539062 -1.93359375 0.33203125 C-1.29550781 0.22246094 -0.65742187 0.11289062 0 0 Z " fill="#F47B2D" transform="translate(70,62)"/>
<path d="M0 0 C3.93846154 4.30769231 3.93846154 4.30769231 4.25 7.8125 C4.1675 8.534375 4.085 9.25625 4 10 C4.66 10.33 5.32 10.66 6 11 C5.34 11.66 4.68 12.32 4 13 C3.32694982 11.39850114 2.66177773 9.79368971 2 8.1875 C1.62875 7.29417969 1.2575 6.40085937 0.875 5.48046875 C0 3 0 3 0 0 Z " fill="#3E1048" transform="translate(101,29)"/>
<path d="M0 0 C1.65 0.33 3.3 0.66 5 1 C4.34 2.65 3.68 4.3 3 6 C2.01 6 1.02 6 0 6 C-0.66 6.66 -1.32 7.32 -2 8 C-1.125 2.25 -1.125 2.25 0 0 Z " fill="#220B2D" transform="translate(77,27)"/>
<path d="M0 0 C0.66 0.33 1.32 0.66 2 1 C-1 4 -4 7 -7 10 C-7 8.02 -7 6.04 -7 4 C-6.401875 3.896875 -5.80375 3.79375 -5.1875 3.6875 C-2.71756736 2.91123545 -1.67748765 1.92911079 0 0 Z " fill="#21072B" transform="translate(100,22)"/>
<path d="M0 0 C1.32 0 2.64 0 4 0 C5.49821059 3.37097383 6 5.20442119 6 9 C5.34 9 4.68 9 4 9 C3.87882812 8.43410156 3.75765625 7.86820313 3.6328125 7.28515625 C3.38144531 6.18494141 3.38144531 6.18494141 3.125 5.0625 C2.96257812 4.33160156 2.80015625 3.60070313 2.6328125 2.84765625 C2.17038477 0.79299706 2.17038477 0.79299706 0 0 Z " fill="#A173E2" transform="translate(104,46)"/>
<path d="M0 0 C0.66 0.33 1.32 0.66 2 1 C2 1.99 2 2.98 2 4 C1.34 4 0.68 4 0 4 C0 4.66 0 5.32 0 6 C-0.66 6 -1.32 6 -2 6 C-2 5.34 -2 4.68 -2 4 C-3.65 4 -5.3 4 -7 4 C-6.67 3.34 -6.34 2.68 -6 2 C-4.02 2 -2.04 2 0 2 C0 1.34 0 0.68 0 0 Z " fill="#8457C2" transform="translate(56,42)"/>
<path d="M0 0 C2.64 0.99 5.28 1.98 8 3 C7.01 4.485 7.01 4.485 6 6 C4 5 2 4 0 3 C0 2.01 0 1.02 0 0 Z " fill="#9062CD" transform="translate(41,97)"/>
<path d="M0 0 C2.375 0.25 2.375 0.25 5 1 C6.3125 3.0625 6.3125 3.0625 7 5 C6.34 4.67 5.68 4.34 5 4 C4.34 4.66 3.68 5.32 3 6 C2.01 4.02 1.02 2.04 0 0 Z " fill="#22092F" transform="translate(36,30)"/>
<path d="M0 0 C0.33 0 0.66 0 1 0 C1 1.65 1 3.3 1 5 C2.32 5.66 3.64 6.32 5 7 C4.01 7.99 3.02 8.98 2 10 C0 8 0 8 -0.1953125 6.0546875 C-0.13020833 4.03645833 -0.06510417 2.01822917 0 0 Z " fill="#8459BE" transform="translate(20,48)"/>
<path d="M0 0 C0.66 0 1.32 0 2 0 C2 0.66 2 1.32 2 2 C2.99 2 3.98 2 5 2 C5 2.99 5 3.98 5 5 C2.03 4.505 2.03 4.505 -1 4 C-0.67 2.68 -0.34 1.36 0 0 Z " fill="#7950AF" transform="translate(53,98)"/>
<path d="M0 0 C-3.67259383 2.44839588 -6.54648201 4 -11 4 C-7.95841042 -0.56238437 -5.1474794 -0.11438843 0 0 Z " fill="#DD4829" transform="translate(102,50)"/>
<path d="M0 0 C-0.33 0.99 -0.66 1.98 -1 3 C-3.64 2.67 -6.28 2.34 -9 2 C-5.5647952 -0.29013653 -4.014669 -0.17842973 0 0 Z " fill="#1FC4DB" transform="translate(104,82)"/>
<path d="M0 0 C3.55780196 0.60990891 6.6828589 1.5783681 10 3 C10 3.33 10 3.66 10 4 C2.25 3.125 2.25 3.125 0 2 C0 1.34 0 0.68 0 0 Z " fill="#1DDEF8" transform="translate(50,76)"/>
<path d="M0 0 C2.97 0.495 2.97 0.495 6 1 C5.34 2.32 4.68 3.64 4 5 C1.525 4.01 1.525 4.01 -1 3 C-0.67 2.01 -0.34 1.02 0 0 Z " fill="#A672EB" transform="translate(59,73)"/>
<path d="M0 0 C1.65 0.33 3.3 0.66 5 1 C3.1875 3 3.1875 3 1 5 C0.01 5 -0.98 5 -2 5 C-1.34 3.35 -0.68 1.7 0 0 Z " fill="#5E3790" transform="translate(30,103)"/>
<path d="M0 0 C2.97 0.495 2.97 0.495 6 1 C4.515 2.485 4.515 2.485 3 4 C1.68 3.34 0.36 2.68 -1 2 C-0.67 1.34 -0.34 0.68 0 0 Z " fill="#A776EE" transform="translate(48,101)"/>
<path d="M0 0 C0.33 0.99 0.66 1.98 1 3 C-0.40445835 5.2636564 -2.1967913 7.0208685 -4 9 C-4.33 8.01 -4.66 7.02 -5 6 C-3.59554165 3.7363436 -1.8032087 1.9791315 0 0 Z " fill="#7B4AB7" transform="translate(92,47)"/>
</svg>
