<?xml version="1.0" encoding="UTF-8"?>
<svg version="1.1" xmlns="http://www.w3.org/2000/svg" width="200" height="200">
<path d="M0 0 C1.25296875 0.4125 2.5059375 0.825 3.796875 1.25 C28.74462541 10.06760046 48.21993996 28.50355897 60.08447266 52.01074219 C70.70512729 75.08730057 73.09510894 102.81586203 65 127 C64.5875 128.25296875 64.175 129.5059375 63.75 130.796875 C54.93239954 155.74462541 36.49644103 175.21993996 12.98925781 187.08447266 C-10.08730057 197.70512729 -37.81586203 200.09510894 -62 192 C-63.87945312 191.38125 -63.87945312 191.38125 -65.796875 190.75 C-90.74462541 181.93239954 -110.21993996 163.49644103 -122.08447266 139.98925781 C-132.70512729 116.91269943 -135.09510894 89.18413797 -127 65 C-126.5875 63.74703125 -126.175 62.4940625 -125.75 61.203125 C-116.93239954 36.25537459 -98.49644103 16.78006004 -74.98925781 4.91552734 C-51.91269943 -5.70512729 -24.18413797 -8.09510894 0 0 Z " fill="#FEFCF6" transform="translate(131,4)"/>
<path d="M0 0 C4.91787141 1.89708212 9.43391898 4.39337502 14 7 C14.87575684 7.49854492 15.75151367 7.99708984 16.65380859 8.51074219 C19.56891366 10.18121244 22.474195 11.86732472 25.375 13.5625 C26.30207764 14.10414795 27.22915527 14.6457959 28.18432617 15.20385742 C46.74350589 26.23051768 46.74350589 26.23051768 50 36 C50.10888067 37.99155109 50.15891271 39.98651387 50.17700195 41.98095703 C50.19625481 43.82900436 50.19625481 43.82900436 50.21589661 45.71438599 C50.2240673 47.06219071 50.2315104 48.41000002 50.23828125 49.7578125 C50.24235678 50.43887936 50.2464323 51.11994621 50.25063133 51.82165146 C50.27148168 55.43057703 50.28578459 59.03946476 50.29516602 62.6484375 C50.30619387 66.35713612 50.3405536 70.06522868 50.38033772 73.77371407 C50.40662531 76.64097118 50.41486878 79.50808696 50.41844749 82.37545395 C50.42328675 83.74127137 50.43482398 85.10708363 50.45348549 86.47278214 C50.57011998 95.57859159 50.08413917 102.90195019 44.25048828 110.18383789 C38.81513534 114.62900684 33.03854247 118.09006322 26.875 121.4375 C24.82631077 122.56417341 22.77813198 123.69177547 20.73046875 124.8203125 C19.7461084 125.36075195 18.76174805 125.90119141 17.74755859 126.45800781 C15.37139522 127.79156458 13.04815928 129.17301896 10.73828125 130.6171875 C9.81909912 131.18288452 9.81909912 131.18288452 8.88134766 131.76000977 C7.32245454 132.72864457 5.77582452 133.71694202 4.23046875 134.70703125 C-0.8465463 136.73906508 -5.90838327 137.07274609 -11.1340332 135.25952148 C-13.25289688 134.21413978 -15.24130123 133.0563047 -17.25 131.8125 C-17.99797852 131.37123779 -18.74595703 130.92997559 -19.51660156 130.4753418 C-21.14238232 129.51412467 -22.76299401 128.5441225 -24.37890625 127.56640625 C-27.17631091 125.89463387 -30.0049226 124.28783765 -32.84375 122.6875 C-34.81302677 121.56342234 -36.78178499 120.43843572 -38.75 119.3125 C-39.67844727 118.79083252 -40.60689453 118.26916504 -41.56347656 117.73168945 C-49.40841537 113.16168991 -54.31017833 108.37002433 -58 100 C-58.38768005 96.90261841 -58.38768005 96.90261841 -58.40405273 93.57080078 C-58.41673691 92.31574738 -58.42942108 91.06069397 -58.44248962 89.76760864 C-58.44043767 88.41017491 -58.43744922 87.05274231 -58.43359375 85.6953125 C-58.43816079 84.28815459 -58.44346791 82.88099892 -58.44947815 81.47384644 C-58.45839134 78.53016071 -58.45600766 75.58674652 -58.44604492 72.64306641 C-58.43456964 68.888312 -58.45475239 65.13450012 -58.48396206 61.37986946 C-58.50239527 58.47486508 -58.50201737 55.57008349 -58.49632454 52.66503525 C-58.49617213 51.28167272 -58.50214987 49.89829431 -58.51461601 48.51498795 C-58.58458612 39.47707147 -58.20472974 33.16309219 -52.34936523 25.97314453 C-46.12644365 20.69697907 -39.16361228 16.81727435 -32.0625 12.875 C-30.82568901 12.17924309 -29.58935773 11.4826327 -28.35351562 10.78515625 C-25.98076342 9.44788799 -23.60379204 8.11871437 -21.22241211 6.796875 C-19.22876757 5.68518291 -17.24123247 4.56235626 -15.26391602 3.421875 C-14.47815186 2.97070312 -13.6923877 2.51953125 -12.8828125 2.0546875 C-12.22297363 1.67038574 -11.56313477 1.28608398 -10.88330078 0.89013672 C-7.14215164 -0.8781067 -3.98937468 -0.9296228 0 0 Z " fill="#DC2827" transform="translate(104,32)"/>
<path d="M0 0 C0.99 0.33 1.98 0.66 3 1 C3.82788086 3.58862305 3.82788086 3.58862305 4.46484375 7.01171875 C4.82932617 8.86120117 4.82932617 8.86120117 5.20117188 10.74804688 C5.44818065 12.06090423 5.69361009 13.37405967 5.9375 14.6875 C6.41323649 17.23544718 6.90113751 19.78115911 7.40234375 22.32421875 C7.71933228 24.0271106 7.71933228 24.0271106 8.04272461 25.7644043 C9.30802155 30.04111442 11.0153215 33.76742089 14.90698242 36.18432617 C15.54998291 36.38517822 16.1929834 36.58603027 16.85546875 36.79296875 C17.55994141 37.03080078 18.26441406 37.26863281 18.99023438 37.51367188 C19.71533203 37.73603516 20.44042969 37.95839844 21.1875 38.1875 C23.85632326 39.03507904 26.39644881 39.94975393 29 41 C29.33 41.99 29.66 42.98 30 44 C28.46279297 44.58007812 28.46279297 44.58007812 26.89453125 45.171875 C25.53367301 45.69744784 24.17300593 46.22351584 22.8125 46.75 C22.13896484 47.00265625 21.46542969 47.2553125 20.77148438 47.515625 C16.62173504 49.13503938 13.14884751 50.74217598 10 54 C8.63781525 57.1437932 8.63781525 57.1437932 7.875 60.75 C7.71741211 61.39525635 7.55982422 62.0405127 7.39746094 62.70532227 C5.64480653 70.07620775 4.29446321 77.53722344 3 85 C1.515 85.495 1.515 85.495 0 86 C-0.14099121 85.30962646 -0.28198242 84.61925293 -0.42724609 83.90795898 C-1.07370921 80.7505611 -1.72431954 77.59403134 -2.375 74.4375 C-2.70757812 72.80844727 -2.70757812 72.80844727 -3.046875 71.14648438 C-3.67799265 68.09298868 -4.33370673 65.04598774 -5 62 C-5.1434082 61.28602051 -5.28681641 60.57204102 -5.43457031 59.83642578 C-6.4905543 55.27492116 -8.33283478 52.8666926 -12 50 C-14.53902782 48.80270702 -17.12116591 47.97300899 -19.8125 47.1875 C-20.50537109 46.97158203 -21.19824219 46.75566406 -21.91210938 46.53320312 C-23.60380878 46.00819297 -25.30136365 45.50211263 -27 45 C-26.921875 43.15234375 -26.921875 43.15234375 -26 41 C-23.015625 39.69140625 -23.015625 39.69140625 -19.25 38.5625 C-13.85571867 36.94308709 -10.48008542 35.52785307 -7 31 C-6.075592 28.26983849 -5.41218229 25.86058773 -4.875 23.0625 C-4.71741211 22.32265869 -4.55982422 21.58281738 -4.39746094 20.82055664 C-4.07508104 19.29902124 -3.76062524 17.77578541 -3.45410156 16.25097656 C-3.01756878 14.08708824 -2.55714741 11.93001158 -2.0859375 9.7734375 C-1.37658568 6.51837447 -0.68214299 3.26085018 0 0 Z " fill="#FEF8F2" transform="translate(112,57)"/>
<path d="M0 0 C0.66 0.33 1.32 0.66 2 1 C2.6112489 3.99285575 2.95967864 6.9892831 3.33984375 10.01953125 C4.03947852 13.17823736 4.76908944 14.69053626 7 17 C8.78413421 18.08832317 8.78413421 18.08832317 10.6875 18.75 C11.780625 19.1625 12.87375 19.575 14 20 C12 22 12 22 9.0625 23.0625 C4.65371833 25.85172922 4.25022921 29.13155779 3 34 C2.33333333 36 1.66666667 38 1 40 C0.34 39.67 -0.32 39.34 -1 39 C-1.59765625 36.3828125 -1.59765625 36.3828125 -2.0625 33.125 C-2.52887719 29.92588374 -2.97655262 27.07034214 -4 24 C-6.09719872 22.97718482 -6.09719872 22.97718482 -8.5625 22.3125 C-9.38878906 22.06113281 -10.21507812 21.80976562 -11.06640625 21.55078125 C-11.70449219 21.36902344 -12.34257813 21.18726562 -13 21 C-12 19 -12 19 -8.5625 17.5625 C-4.80931887 16.29809012 -4.80931887 16.29809012 -3 13 C-2.39896659 10.78610171 -1.86324191 8.55397421 -1.375 6.3125 C-1.11460938 5.13300781 -0.85421875 3.95351562 -0.5859375 2.73828125 C-0.39257812 1.83464844 -0.19921875 0.93101563 0 0 Z " fill="#FDF2EC" transform="translate(71,100)"/>
<path d="M0 0 C1.59779703 3.19559405 2.21561332 4.76075373 2.75 8.0625 C3.56591118 11.65384675 3.77147304 11.85374275 7.125 14 C8.07375 14.33 9.0225 14.66 10 15 C8 17 8 17 5.984375 17.7734375 C3.74758079 18.88503928 3.74758079 18.88503928 2.953125 21.6015625 C2.60507813 23.09816406 2.60507813 23.09816406 2.25 24.625 C2.00765625 25.62789062 1.7653125 26.63078125 1.515625 27.6640625 C1.34546875 28.43492188 1.1753125 29.20578125 1 30 C-0.90283202 27.14575197 -1.22238156 26.18938355 -1.6875 23 C-2.25828852 20.4338103 -2.50886921 19.34641243 -4.68359375 17.8125 C-6.82987872 16.87315399 -6.82987872 16.87315399 -10 16 C-6.375 13 -6.375 13 -3 13 C-2.01 8.71 -1.02 4.42 0 0 Z " fill="#FDF3EE" transform="translate(84,59)"/>
</svg>
