<svg xmlns="http://www.w3.org/2000/svg" width="400" height="400" xmlns:v="https://vecta.io/nano"><defs><linearGradient x1="85.355%" y1="14.645%" x2="14.645%" y2="85.355%" id="A"><stop stop-color="#ff2d55" offset="0%"/><stop stop-color="#ffbc5b" offset="100%"/></linearGradient><linearGradient x1="49.966%" y1="0%" x2="49.966%" y2="100%" id="B"><stop stop-color="#a524b3" offset="0%"/><stop stop-color="#ff2d55" offset="100%"/></linearGradient></defs><g fill-rule="evenodd"><circle fill="url(#A)" cx="200" cy="200" r="200"/><path fill="url(#B)" d="M141.7 130v150h125z"/><path fill="#fff" d="M16.7 280h125V130z"/><path d="M40 320c11.4 15.1 24.9 28.6 40 40h240c15.1-11.4 28.6-24.9 40-40H40z" fill="#fc9965"/><path d="M80 360c33.4 25.1 75 40 120 40s86.6-14.9 120-40H80z" fill="#ff2d55"/><path fill="url(#B)" d="M268.3 210v110H360z"/><path d="M268.3 280H16.7c6.2 14.3 14.1 27.7 23.3 40h228.4v-40h-.1z" fill="#ffbc5b"/><path fill="#fff" d="M176.7 320h91.6V210z"/><g fill="#ffc95b"><circle cx="268.3" cy="130" r="50"/><circle cx="141.7" cy="75" r="25"/></g></g></svg>