<?xml version="1.0" encoding="UTF-8"?>
<svg version="1.1" xmlns="http://www.w3.org/2000/svg" width="200" height="200">
<path d="M0 0 C1.25296875 0.4125 2.5059375 0.825 3.796875 1.25 C28.74462541 10.06760046 48.21993996 28.50355897 60.08447266 52.01074219 C70.70512729 75.08730057 73.09510894 102.81586203 65 127 C64.5875 128.25296875 64.175 129.5059375 63.75 130.796875 C54.93239954 155.74462541 36.49644103 175.21993996 12.98925781 187.08447266 C-10.08730057 197.70512729 -37.81586203 200.09510894 -62 192 C-63.87945312 191.38125 -63.87945312 191.38125 -65.796875 190.75 C-90.74462541 181.93239954 -110.21993996 163.49644103 -122.08447266 139.98925781 C-132.70512729 116.91269943 -135.09510894 89.18413797 -127 65 C-126.5875 63.74703125 -126.175 62.4940625 -125.75 61.203125 C-116.93239954 36.25537459 -98.49644103 16.78006004 -74.98925781 4.91552734 C-51.91269943 -5.70512729 -24.18413797 -8.09510894 0 0 Z " fill="#FDFEFE" transform="translate(131,4)"/>
<path d="M0 0 C2.67327813 2.16373064 5.22796775 4.40629928 7.765625 6.7265625 C8.92384766 7.69142578 8.92384766 7.69142578 10.10546875 8.67578125 C13.6942984 11.66755425 16.88243425 14.33245074 18.765625 18.7265625 C18.435625 19.3865625 18.105625 20.0465625 17.765625 20.7265625 C16.940625 20.0253125 16.115625 19.3240625 15.265625 18.6015625 C-5.83119922 1.10338987 -29.86982616 -6.22393945 -57.234375 -4.2734375 C-75.53089066 -2.19293702 -91.78545838 8.25536852 -103.3515625 22.296875 C-107.33030383 27.74416464 -110.62472769 33.50840287 -113.234375 39.7265625 C-113.62882812 40.64824219 -114.02328125 41.56992188 -114.4296875 42.51953125 C-117.37107788 50.79861955 -117.6218412 58.75125613 -117.671875 67.4765625 C-117.6819458 68.62503662 -117.6920166 69.77351074 -117.70239258 70.95678711 C-117.59775223 81.22860994 -115.17651949 89.62537572 -110.546875 98.7265625 C-110.19874756 99.41298828 -109.85062012 100.09941406 -109.49194336 100.80664062 C-103.34073426 112.56960042 -93.95830861 123.90400094 -81.234375 128.7265625 C-73.04685563 131.08405835 -65.70485945 129.62718186 -58.234375 125.7265625 C-53.49833361 121.75318384 -50.62447685 117.05603646 -49.8984375 110.859375 C-49.81678396 104.57205204 -49.76096688 99.46960069 -54.234375 94.7265625 C-65.72380789 84.34137717 -82.45723777 81.67632366 -97.234375 79.7265625 C-97.234375 79.0665625 -97.234375 78.4065625 -97.234375 77.7265625 C-95.25543666 75.91533079 -93.28088867 74.25055454 -91.171875 72.6015625 C-90.54861328 72.11308838 -89.92535156 71.62461426 -89.28320312 71.12133789 C-80.58597724 64.49544783 -68.54952866 56.06096523 -57.234375 56.7265625 C-63.2122279 46.98487629 -72.15839894 43.13502975 -82.984375 40.4140625 C-84.056875 40.1871875 -85.129375 39.9603125 -86.234375 39.7265625 C-84.52612222 36.31005695 -80.57106262 35.59309882 -77.171875 34.2265625 C-76.43259766 33.91847656 -75.69332031 33.61039063 -74.93164062 33.29296875 C-63.06647428 28.45555185 -49.77324661 26.14804457 -37.296875 30.2890625 C-28.87746058 33.94802606 -22.32718156 39.54440677 -15.734375 45.7890625 C-4.25937533 56.64329447 6.6401189 60.88332551 22.328125 61.9140625 C23.43220703 61.99591797 24.53628906 62.07777344 25.67382812 62.16210938 C28.37052845 62.36056784 31.06751573 62.54847898 33.765625 62.7265625 C35.13784154 87.09102956 26.43087874 106.14628185 10.5078125 124.30078125 C-3.4216335 139.00408536 -23.55043944 147.50998168 -43.62915039 148.07617188 C-66.80709318 148.30206505 -87.88522407 140.21463307 -104.546875 123.9140625 C-109.67576468 118.69578219 -113.70780162 113.15577705 -117.234375 106.7265625 C-117.77835938 105.75847656 -118.32234375 104.79039062 -118.8828125 103.79296875 C-128.5287081 85.70103285 -130.30818574 62.61959886 -124.6953125 42.90234375 C-121.12209376 31.94153416 -114.96371491 21.26213741 -107.234375 12.7265625 C-106.65558594 12.06785156 -106.07679687 11.40914062 -105.48046875 10.73046875 C-78.20395208 -18.48216811 -32.51957258 -22.85796043 0 0 Z " fill="#3C94E7" transform="translate(146.234375,33.2734375)"/>
<path d="M0 0 C13.91819644 6.24400952 26.1608657 8.49355085 40.82397461 3.31274414 C42.17021513 2.67254207 43.50880948 2.0145724 44.82397461 1.31274414 C43.90047546 19.16706095 34.2980295 35.62918396 21.33959961 47.60961914 C6.95204215 59.4949927 -9.94689898 65.71257603 -28.55102539 65.56274414 C-29.53458008 65.57047852 -30.51813477 65.57821289 -31.53149414 65.58618164 C-32.47379883 65.58360352 -33.41610352 65.58102539 -34.38696289 65.57836914 C-35.65999268 65.57498535 -35.65999268 65.57498535 -36.95874023 65.5715332 C-39.17602539 65.31274414 -39.17602539 65.31274414 -42.17602539 63.31274414 C-41.32331055 62.91055664 -41.32331055 62.91055664 -40.45336914 62.50024414 C-32.39846587 58.41227988 -26.58042793 52.8237505 -23.17602539 44.31274414 C-21.0617743 35.30093632 -21.37819886 27.33458787 -26.17602539 19.31274414 C-26.51891602 18.70817383 -26.86180664 18.10360352 -27.21508789 17.48071289 C-33.39472043 8.64981865 -47.23551803 4.1528891 -57.17602539 1.31274414 C-56.17602539 -1.68725586 -56.17602539 -1.68725586 -53.37524414 -3.25756836 C-52.21637695 -3.77061523 -51.05750977 -4.28366211 -49.86352539 -4.81225586 C-48.71239258 -5.33045898 -47.56125977 -5.84866211 -46.37524414 -6.38256836 C-30.52058855 -12.84832534 -14.62664084 -6.64449831 0 0 Z " fill="#FDFDFE" transform="translate(127.176025390625,106.687255859375)"/>
<path d="M0 0 C12.7859097 0.34256239 21.18525507 7.23304427 29.94458008 15.73168945 C40.1277955 25.60554137 51.75849526 31.18904539 65.98510742 32.51245117 C65.49010742 33.50245117 65.49010742 33.50245117 64.98510742 34.51245117 C54.76184932 34.94391341 46.4201199 34.92229396 36.98510742 30.51245117 C34.30201937 29.31494661 31.61191602 28.13340877 28.92260742 26.94995117 C28.23279785 26.64420166 27.54298828 26.33845215 26.83227539 26.0234375 C18.61943574 22.41375409 10.94694644 20.23518013 1.98510742 19.51245117 C1.80334961 18.96975586 1.6215918 18.42706055 1.43432617 17.86791992 C1.18295898 17.15249023 0.9315918 16.43706055 0.67260742 15.69995117 C0.3071582 14.6384082 0.3071582 14.6384082 -0.06567383 13.55541992 C-1.08407987 11.3635419 -2.30454682 10.18446986 -4.01489258 8.51245117 C-4.01489258 7.85245117 -4.01489258 7.19245117 -4.01489258 6.51245117 C-4.61301758 6.24432617 -5.21114258 5.97620117 -5.82739258 5.69995117 C-7.98714065 4.5275165 -9.37279514 3.31875835 -11.01489258 1.51245117 C-8.71051038 -0.79193102 -3.17274198 0.01697365 0 0 Z " fill="#F9FBFE" transform="translate(96.014892578125,70.487548828125)"/>
<path d="M0 0 C1.79296875 0.19140625 1.79296875 0.19140625 4 1 C5.73828125 3.21484375 5.73828125 3.21484375 7.3125 5.9375 C7.84488281 6.83339844 8.37726563 7.72929688 8.92578125 8.65234375 C9.28027344 9.42707031 9.63476562 10.20179687 10 11 C9.67 11.66 9.34 12.32 9 13 C8.51789063 12.28972656 8.03578125 11.57945313 7.5390625 10.84765625 C6.90742188 9.92855469 6.27578125 9.00945313 5.625 8.0625 C4.99851563 7.14597656 4.37203125 6.22945312 3.7265625 5.28515625 C2.20228929 2.91612836 2.20228929 2.91612836 0 2 C0 1.34 0 0.68 0 0 Z " fill="#E38FD8" transform="translate(163,53)"/>
</svg>
