<svg xmlns="http://www.w3.org/2000/svg" width="256" height="256" fill="none" xmlns:v="https://vecta.io/nano"><path d="M128 256c70.692 0 128-57.308 128-128S198.692 0 128 0 0 57.308 0 128s57.308 128 128 128z" fill="#225dd6"/><path d="M233 128c0 57.953-47.047 105-105 105S23 185.953 23 128 70.048 23 128 23s105 47.048 105 105z" fill="#fff"/><path fill-rule="evenodd" d="M128.5 249c68.77 0 124.5-54.087 124.5-121C253 61.241 197.27 7 128.5 7S4 61.087 4 128c0 66.759 55.73 121 124.5 121zM95.279 66.032l33.066 23.798v.155l33.065-23.798v30.134l-33.065 23.798-33.066-23.798V66.032zm0 40.488l33.066 23.798v.155l33.065-23.799v-.309l36.015-26.734v83.757l-36.015 26.735v-53.469l-33.065 23.798-33.066-23.798v53.623l-36.015-26.734V79.785l36.015 26.735z" fill="#225dd6"/></svg>