<?xml version="1.0" encoding="UTF-8"?>
<svg version="1.1" xmlns="http://www.w3.org/2000/svg" width="64" height="64">
<path d="M0 0 C21.12 0 42.24 0 64 0 C64 21.12 64 42.24 64 64 C42.88 64 21.76 64 0 64 C0 42.88 0 21.76 0 0 Z " fill="#5B459B" transform="translate(0,0)"/>
<path d="M0 0 C0 7.92 0 15.84 0 24 C-7.875 24 -7.875 24 -11.62109375 23.125 C-12.41064453 22.94453125 -13.20019531 22.7640625 -14.01367188 22.578125 C-15.2134668 22.29195312 -15.2134668 22.29195312 -16.4375 22 C-17.67790039 21.71382812 -17.67790039 21.71382812 -18.94335938 21.421875 C-20.96382366 20.95471563 -22.98214547 20.47830626 -25 20 C-25 14.72 -25 9.44 -25 4 C-21.77197209 3.32736907 -18.54276967 2.6617023 -15.3125 2 C-14.40048828 1.80921875 -13.48847656 1.6184375 -12.54882812 1.421875 C-11.66259766 1.24140625 -10.77636719 1.0609375 -9.86328125 0.875 C-9.05157471 0.70742188 -8.23986816 0.53984375 -7.40356445 0.3671875 C-5 0 -5 0 0 0 Z " fill="#FAF9FC" transform="translate(50,20)"/>
<path d="M0 0 C13.5 2.25 13.5 2.25 19 4 C14.18289257 7.21140495 9.65046231 5.60757659 4 5 C4 12.26 4 19.52 4 27 C9.28 27 14.56 27 20 27 C19.67 27.66 19.34 28.32 19 29 C16.36353841 29.64289556 13.79418621 30.17007783 11.125 30.625 C10.39152344 30.7590625 9.65804688 30.893125 8.90234375 31.03125 C5.89693262 31.56773505 3.05850122 32 0 32 C0 21.44 0 10.88 0 0 Z " fill="#E3DFEE" transform="translate(13,16)"/>
</svg>
