<?xml version="1.0" encoding="UTF-8"?>
<svg version="1.1" xmlns="http://www.w3.org/2000/svg" width="25" height="25">
<path d="M0 0 C8.25 0 16.5 0 25 0 C25 8.25 25 16.5 25 25 C16.75 25 8.5 25 0 25 C0 16.75 0 8.5 0 0 Z " fill="#2762F4" transform="translate(0,0)"/>
<path d="M0 0 C8.25 0 16.5 0 25 0 C25 8.25 25 16.5 25 25 C16.75 25 8.5 25 0 25 C0 21.7 0 18.4 0 15 C0.86625 16.1446875 0.86625 16.1446875 1.75 17.3125 C4.89312627 21.06678971 6.40013863 22.82223763 11.375 23.375 C15.89456043 22.90745927 19.42267444 21.93580864 22.375 18.3125 C23.3140585 14.83798354 23.58977379 11.53864272 23 8 C21.20636089 5.1899654 19.98119065 3.49059532 17 2 C13.6141837 1.58051833 10.37980361 1.51032767 7 2 C3.95524698 4.20913543 3.95524698 4.20913543 2 7 C1.34 7.66 0.68 8.32 0 9 C0 6.03 0 3.06 0 0 Z " fill="#EAEFFD" transform="translate(0,0)"/>
<path d="M0 0 C1.32 0.33 2.64 0.66 4 1 C4 1.66 4 2.32 4 3 C5.32 3.33 6.64 3.66 8 4 C8.33 5.65 8.66 7.3 9 9 C3.66666667 9 -1.66666667 9 -7 9 C-6.67 7.35 -6.34 5.7 -6 4 C-4.35 3.67 -2.7 3.34 -1 3 C-0.67 2.01 -0.34 1.02 0 0 Z " fill="#BABECA" transform="translate(11,7)"/>
<path d="M0 0 C2.97 0 5.94 0 9 0 C8.2575 0.556875 7.515 1.11375 6.75 1.6875 C4.08292005 3.93027178 2.08443768 6.22074975 0 9 C0 6.03 0 3.06 0 0 Z " fill="#F7F9FE" transform="translate(0,0)"/>
<path d="M0 0 C0.33 1.32 0.66 2.64 1 4 C0.236875 3.979375 -0.52625 3.95875 -1.3125 3.9375 C-4.10185786 3.87057159 -4.10185786 3.87057159 -7 5 C-6.625 2.5625 -6.625 2.5625 -6 0 C-3.50907189 -1.24546405 -2.58919267 -0.7767578 0 0 Z " fill="#C9D7FB" transform="translate(11,11)"/>
<path d="M0 0 C0 2.31 0 4.62 0 7 C-2.31 7 -4.62 7 -7 7 C-3.13157895 0 -3.13157895 0 0 0 Z " fill="#FDFDFE" transform="translate(25,18)"/>
</svg>
