<?xml version="1.0" encoding="UTF-8"?>
<svg version="1.1" xmlns="http://www.w3.org/2000/svg" width="64" height="64">
<path d="M0 0 C21.12 0 42.24 0 64 0 C64 21.12 64 42.24 64 64 C42.88 64 21.76 64 0 64 C0 42.88 0 21.76 0 0 Z " fill="#265CFF" transform="translate(0,0)"/>
<path d="M0 0 C1.32 0.33 2.64 0.66 4 1 C3.67 1.66 3.34 2.32 3 3 C5.97 3.495 5.97 3.495 9 4 C8.67 5.98 8.34 7.96 8 10 C6.02 10 4.04 10 2 10 C1.58129447 12.33071879 1.58129447 12.33071879 2 15 C2.804375 15.61875 3.60875 16.2375 4.4375 16.875 C7 19 7 19 8.0625 22.4375 C8 26 8 26 6.5 28.875 C3.35661366 31.54687839 1.05886955 31.76583445 -3 32 C-3.495 34.475 -3.495 34.475 -4 37 C-4.99 37 -5.98 37 -7 37 C-6.67 35.35 -6.34 33.7 -6 32 C-8.64 31.67 -11.28 31.34 -14 31 C-14 29.02 -14 27.04 -14 25 C-9.545 25.99 -9.545 25.99 -5 27 C-4.58228196 23.66799815 -4.58228196 23.66799815 -5 20 C-7.40144575 17.84550034 -7.40144575 17.84550034 -10 16 C-11.14326535 13.02751009 -11.11108414 11.4665534 -10.375 8.375 C-8.65478916 5.40372674 -7.10898754 4.40644675 -4 3 C-2.68 3 -1.36 3 0 3 C0 2.01 0 1.02 0 0 Z " fill="#ECF1FF" transform="translate(34,14)"/>
</svg>
