<svg xmlns="http://www.w3.org/2000/svg" width="256" height="256" fill="none" xmlns:v="https://vecta.io/nano"><path d="M128 256c70.692 0 128-57.308 128-128S198.692 0 128 0 0 57.308 0 128s57.308 128 128 128z" fill="url(#A)"/><path fill-rule="evenodd" d="M43.645 224.274c-5.203-4.563-10.033-9.54-14.438-14.881L102 142.604l1-6.5-36-5c-1-.104-3-2-3-4 0-2.5 1.5-4 3-4.5 1.2-.4 22.167-3.166 32.5-4.5l-37.5-50c-1-1.604-1.6-4.4 0-6 2-2 5-.604 6 0 .685.414 33.667 25 50 37.5l4.707-33c.293-1.604 1.893-3.5 4.293-3.5s3.334 2.333 3.5 3.5l5 33 50-37.5c1-.833 3.6-2 6 0s1 4.833 0 6l-37 50 32.5 4.5c1.5.396 3 1.9 3 3.5 0 2-1 3.896-3.5 4.5l-32.5 5 37.5 50.5c.5 1 1.1 3.4-.5 5s-3.666 1.334-4.5 1l-51-38-5 33c-.5 1.896-1 2.896-4 2.896-2.002 0-3.5-2.5-3.5-3l-5.5-36.896-6 1.5-67.855 72.67z" fill="#fff"/><defs><linearGradient id="A" x1="35.5" y1="37.5" x2="216" y2="220" gradientUnits="userSpaceOnUse"><stop stop-color="#362ecc"/><stop offset="1" stop-color="#b482ff"/></linearGradient></defs></svg>