<svg xmlns="http://www.w3.org/2000/svg" width="100%" height="100%" viewBox="0 0 257 256" fill-rule="nonzero" stroke-linejoin="round" stroke-miterlimit="2" xmlns:v="https://vecta.io/nano"><path d="M256.586 128A127.99 127.99 0 0 0 177.57 9.743C154.181.055 128.443-2.48 103.614 2.459S55.978 19.589 38.076 37.49A127.99 127.99 0 0 0 10.33 176.983a127.99 127.99 0 0 0 47.143 57.444C78.523 248.493 103.27 256 128.586 256a127.98 127.98 0 0 0 48.985-9.74 128 128 0 0 0 41.529-27.746c11.886-11.886 21.315-25.998 27.746-41.528s9.743-32.176 9.74-48.986z" fill="#00cfff"/><path d="M222.878 116.356a105.23 105.23 0 0 0-9.441-6.38c-1.405-.891-2.711-1.928-3.9-3.095-2.436-2.408-6.494-6.635-7.816-9.235-.859-1.595-.509-4.641.16-7.496 1.142-5.005.272-10.259-2.421-14.627l-4.234-6.922c-1.954-3.149-3.519-6.523-4.665-10.049a29.3 29.3 0 0 0-7.418-11.947c-6.893-6.747-25.98-10.048-41.82-10.591a28.97 28.97 0 0 0-2.977-.701c-7.069-1.213-14.582-3.191-21.347-1.883-10.014 1.867-20.155 5.009-27.717 12.761-1.592 1.595-3.916 2.312-5.556 3.796-3.263 2.951-7.641 2.951-10.538 6.221-1.704 1.913-2.484 8.134-6.925 10.511-7.355 3.955-12.736 8.294-14.566 10.511-1.353 1.675-2.388 3.621-3.694 5.327s-7.673 4.786-9.551 6.556c-1.405 1.561-2.425 3.431-2.977 5.459a13.47 13.47 0 0 0-.207 6.217l.255 1.212c.732 2.711 2.706 7.608 2.244 9.857-.525 2.664-7.37 22.506 7.96 27.801 1.399.422 2.626 1.281 3.502 2.453s1.357 2.592 1.369 4.055a23.66 23.66 0 0 0 2.245 7.625c1.019 1.944 2.521 3.593 4.362 4.785 1.964 1.875 3.819 3.86 5.556 5.949 5.412 10.033 3.9 15.042 14.327 18.455 2.662.881 5.219 2.053 7.626 3.493 2.928 1.769 6.068 3.162 9.344 4.147l.414.144c2.308-5.568 4.633-10.864 6.973-15.84-6.038-5.903-10.345-13.349-12.456-21.532a46.35 46.35 0 0 1 .484-24.883c.051-.173.145-.331.273-.458s.286-.219.459-.268.356-.054.532-.014.337.125.472.246c3.916 3.445 15.823 15.854 14.423 38.28 4.123-8.246 8.119-15.503 11.78-21.692-4.422-7.244-6.792-15.558-6.856-24.05s2.179-16.841 6.489-24.152a1.09 1.09 0 0 1 .392-.362c.159-.086.336-.131.517-.131a1.08 1.08 0 0 1 .515.131 1.09 1.09 0 0 1 .392.362c2.753 4.084 10.204 17.545 5.587 36.766 3.359-5.136 6.081-8.932 7.848-11.309 4.776-31.901 28.846-42.348 35.166-44.565a1.06 1.06 0 0 1 .529-.055c.179.027.347.099.49.209s.257.254.329.42.102.346.085.526a55.53 55.53 0 0 1-10.228 26.89c-5.71 7.905-13.401 14.162-22.295 18.138-3.359 4.418-6.574 9.076-9.664 13.861 10.651-8.358 25.599-12.282 38.017-9.267.174.041.337.125.471.244a1.09 1.09 0 0 1 .3.441c.061.169.08.351.053.53a1.08 1.08 0 0 1-.204.491c-3.567 4.785-17.766 20.736-44.574 17.035a360.47 360.47 0 0 0-12.322 22.761c11.542-8.74 28.416-12.105 41.503-7.688a1.08 1.08 0 0 1 .458.283 1.06 1.06 0 0 1 .266.471c.049.176.05.363.007.541a1.09 1.09 0 0 1-.254.475c-4.06 4.388-19.709 18.775-45.45 13.064-2.42 5.12-6.018 13.51-7.769 17.657-.605 1.436-1.162 2.871-1.592 4.338-1.13 3.382-2.674 7.609-4.505 11.836a4.78 4.78 0 0 0-.377 1.903 4.79 4.79 0 0 0 .408 1.898c.264.597.648 1.135 1.127 1.579a4.79 4.79 0 0 0 1.66 1.001 104.61 104.61 0 0 0 63.136 2.344c.687-.197 1.32-.546 1.855-1.021s.956-1.063 1.234-1.722l.859-1.995s8.978-20.895 10.299-30.002c.381-2.869 1.271-5.645 2.627-8.199a8.6 8.6 0 0 1 2.954-3.131c1.234-.777 2.645-1.224 4.099-1.303 6.829-.367 21.395-1.324 26.697-2.999 7.051-2.249 3.996-15.104 3.613-16.476s3.391-4.61 4.171-6.491-1.91-2.521-3.009-4.595 2.723-3.541 3.264-5.423-1.241-3.924-1.959-5.311c-.49-1.008-.827-2.083-1.003-3.19 0 0 5.158-3.78 7.96-6.173s2.229-4.354 2.213-4.785"/></svg>