<?xml version="1.0" standalone="no"?>
<!DOCTYPE svg PUBLIC "-//W3C//DTD SVG 20010904//EN"
 "http://www.w3.org/TR/2001/REC-SVG-20010904/DTD/svg10.dtd">
<svg version="1.0" xmlns="http://www.w3.org/2000/svg"
 width="64.000000pt" height="64.000000pt" viewBox="0 0 64.000000 64.000000"
 preserveAspectRatio="xMidYMid meet">

<g transform="translate(0.000000,64.000000) scale(0.100000,-0.100000)"
fill="#000000" stroke="none">
<path d="M261 629 c-100 -20 -190 -91 -234 -187 -31 -67 -30 -178 2 -249 28
-62 103 -136 169 -166 69 -31 170 -29 242 4 118 55 180 142 188 265 11 170
-93 302 -262 333 -33 6 -60 11 -60 10 -1 -1 -21 -5 -45 -10z m-24 -109 c21
-32 41 -59 46 -60 4 0 7 14 7 32 l0 31 23 -20 c52 -48 59 -46 92 15 41 78 62
77 94 -3 29 -73 64 -260 55 -298 -4 -19 -12 -27 -27 -28 -21 0 -21 -1 -2 -9
19 -8 19 -8 -5 -18 -14 -6 -19 -11 -11 -11 25 -1 -20 -42 -74 -67 -69 -33
-161 -33 -230 0 -54 25 -99 66 -74 67 8 0 3 5 -11 11 -24 10 -24 10 -5 18 19
8 19 9 -2 9 -31 1 -36 40 -18 146 25 143 62 245 90 245 8 0 32 -27 52 -60z"/>
<path d="M160 266 c0 -32 32 -51 60 -36 27 14 25 37 -2 45 -13 4 -31 9 -40 11
-14 4 -18 -1 -18 -20z"/>
<path d="M423 279 c-18 -5 -33 -13 -33 -18 0 -11 34 -41 47 -41 18 0 46 39 40
55 -7 17 -9 17 -54 4z"/>
<path d="M273 154 c9 -9 66 -11 80 -2 7 4 -9 8 -37 8 -27 0 -47 -3 -43 -6z"/>
</g>
</svg>
