<svg xmlns="http://www.w3.org/2000/svg" viewBox="0 0 850 779"><circle cx="424.8" cy="391.9" r="387.4" fill="#ec1c24"/><path d="m741 394 1 1S719 138 634 10c-8-12-26-14-36-3-25 24-65 90-105 200a406 406 0 0 0-133 0A617 617 0 0 0 256 7c-11-11-28-9-36 3-86 128-109 385-109 385l1-1c-7 22-11 45-11 69 0 100 69 186 171 230a390 390 0 0 0 309 0c102-44 172-130 172-230 0-24-4-47-12-69z" fill="#fff"/><path d="M10 601a9 9 0 0 1-8-4c-3-4-2-10 2-13 89-61 150-44 153-44a10 10 0 0 1-5 19c-1 0-57-15-137 40a9 9 0 0 1-5 2zm50 73a9 9 0 0 1-5-1c-5-3-6-9-3-13 44-68 116-81 119-82 6-1 11 3 11 8a10 10 0 0 1-7 11c-1 0-68 13-107 73-2 3-5 4-8 4zm780-73a9 9 0 0 1-5-2c-81-55-136-40-137-40-5 1-10-2-12-7-1-5 2-10 7-12 2 0 64-17 152 44 5 3 6 9 3 13a9 9 0 0 1-8 4zm-50 73c-3 0-6-1-8-4-39-61-106-73-107-73a10 10 0 0 1 3-19c3 1 76 14 120 82 3 4 1 10-3 13a9 9 0 0 1-5 1z" fill="#231f20"/><path d="M345 437a90 90 0 1 1-171-42l171 42Z" fill="#a7dff8"/><path d="m316 430 1 8a59 59 0 0 1-118 0c0-12 5-25 11-34l106 26z" fill="#231f20"/><path d="M498 437a90 90 0 1 0 171-42l-171 42Z" fill="#a7dff8"/><path d="m528 429-1 9a59 59 0 1 0 107-34l-106 25zm-82 179c-9 0-19-3-28-10-26 20-53 6-65-5a10 10 0 0 1 13-14c2 3 24 21 44 1 2-2 4-3 7-3h2c2 0 5 1 7 3 20 20 41 2 43-1a10 10 0 0 1 13 14c-7 7-21 15-36 15z" fill="#231f20"/><g fill="#f7bad5"><ellipse cx="417" cy="561" rx="27.7" ry="13.2"/><path d="M161 308s15-167 70-250c5-8 17-9 24-2 15 16 45 85 71 156 0 0-30 7-165 96zm535 0s-15-167-71-250c-5-8-16-9-23-2-16 16-47 85-73 156 0 0 47 7 167 96z"/></g><path d="M522 279c31-115-142-96-138-211 1 49-8 101 25 140-54 7-71-65-85-99-5 63-17 160 55 187" fill="#d5e9f8"/><path d="M536 279c35-143-154-111-151-226 1 49-6 95 27 134-54 7-74-59-89-93-4 63 31 178 129 202" fill="#fff"/></svg>