<?xml version="1.0" encoding="UTF-8"?>
<svg version="1.1" xmlns="http://www.w3.org/2000/svg" width="64" height="64">
<path d="M0 0 C21.12 0 42.24 0 64 0 C64 21.12 64 42.24 64 64 C42.88 64 21.76 64 0 64 C0 42.88 0 21.76 0 0 Z " fill="#BC926B" transform="translate(0,0)"/>
<path d="M0 0 C8.25 0 16.5 0 25 0 C25.495 7.92 25.495 7.92 26 16 C28.165625 15.9690625 28.165625 15.9690625 30.375 15.9375 C34.75 15.875 34.75 15.875 37 17 C37.625 19.5625 37.625 19.5625 38 22 C37.0409375 22.3403125 37.0409375 22.3403125 36.0625 22.6875 C33.72806339 23.85250896 33.72806339 23.85250896 33.25 26.625 C33.1675 27.40875 33.085 28.1925 33 29 C32.34 29 31.68 29 31 29 C31.185625 29.78375 31.37125 30.5675 31.5625 31.375 C32 34 32 34 31 36 C29.35 36 27.7 36 26 36 C26.16757812 36.56847656 26.33515625 37.13695312 26.5078125 37.72265625 C27.97317778 43.27806008 28.05826236 46.62564828 26 52 C27.32 52 28.64 52 30 52 C30.33 50.68 30.66 49.36 31 48 C32.875 48.25 32.875 48.25 35 49 C36.1328125 51.046875 36.1328125 51.046875 37 53 C17.06397306 58.53198653 17.06397306 58.53198653 12 56 C9.58169271 57.18950183 9.58169271 57.18950183 7 58.875 C2 62 2 62 0 63 C0 42.21 0 21.42 0 0 Z " fill="#4B3C2D" transform="translate(0,0)"/>
<path d="M0 0 C8.25 0 16.5 0 25 0 C26.76540284 24.71563981 26.76540284 24.71563981 23 35 C22.01 35.495 22.01 35.495 21 36 C20.01 35.34 19.02 34.68 18 34 C15.65319703 34.61757973 13.31847874 35.2833793 11 36 C10.34 35.67 9.68 35.34 9 35 C9 34.34 9 33.68 9 33 C10.32 32.34 11.64 31.68 13 31 C12.360625 31.185625 11.72125 31.37125 11.0625 31.5625 C10.381875 31.706875 9.70125 31.85125 9 32 C8.67 31.67 8.34 31.34 8 31 C7.67 31.66 7.34 32.32 7 33 C3 31 3 31 2 29 C1.34 29 0.68 29 0 29 C0 19.43 0 9.86 0 0 Z " fill="#6D5E4D" transform="translate(0,0)"/>
<path d="M0 0 C12.87 0 25.74 0 39 0 C39.061875 4.24875 39.12375 8.4975 39.1875 12.875 C39.22846802 14.88376221 39.22846802 14.88376221 39.27026367 16.93310547 C39.27775635 17.98385254 39.28524902 19.03459961 39.29296875 20.1171875 C39.3086792 21.19597168 39.32438965 22.27475586 39.34057617 23.38623047 C39.22818604 24.24877441 39.1157959 25.11131836 39 26 C35.54785147 28.30143236 34.76520676 28.13833854 30.8125 27.625 C29.91144531 27.51414062 29.01039062 27.40328125 28.08203125 27.2890625 C27.39496094 27.19367187 26.70789063 27.09828125 26 27 C26 26.34 26 25.68 26 25 C25.34 25 24.68 25 24 25 C24 23.35 24 21.7 24 20 C23.34 20 22.68 20 22 20 C22 18.68 22 17.36 22 16 C21.34 15.67 20.68 15.34 20 15 C20 14.34 20 13.68 20 13 C16.7 13.33 13.4 13.66 10 14 C10 14.66 10 15.32 10 16 C5.05 16.495 5.05 16.495 0 17 C0 11.39 0 5.78 0 0 Z " fill="#D2AC88" transform="translate(25,0)"/>
<path d="M0 0 C0.33 2.31 0.66 4.62 1 7 C1.66 7 2.32 7 3 7 C3 8.65 3 10.3 3 12 C3.66 12 4.32 12 5 12 C5 12.66 5 13.32 5 14 C5.99 14.33 6.98 14.66 8 15 C4.33426889 19.44747204 1.16543374 23.26535861 -4 26 C-5.26237731 28.52475462 -5.09856404 30.31200466 -5.0625 33.125 C-5.04896484 34.49011719 -5.04896484 34.49011719 -5.03515625 35.8828125 C-5.02355469 36.58148438 -5.01195312 37.28015625 -5 38 C-6.32 37.67 -7.64 37.34 -9 37 C-9 33.04 -9 29.08 -9 25 C-8.01 24.67 -7.02 24.34 -6 24 C-6.66 23.34 -7.32 22.68 -8 22 C-8.125 19.375 -8.125 19.375 -8 17 C-8.66 17 -9.32 17 -10 17 C-11.17577514 12.88478702 -10.72606626 10.85826577 -9 7 C-9 6.01 -9 5.02 -9 4 C-9.66 4 -10.32 4 -11 4 C-11 3.01 -11 2.02 -11 1 C-3.375 -1.125 -3.375 -1.125 0 0 Z " fill="#B59B80" transform="translate(46,13)"/>
<path d="M0 0 C6.93 0 13.86 0 21 0 C21 3.96 21 7.92 21 12 C17.37 12.66 13.74 13.32 10 14 C10 14.66 10 15.32 10 16 C5.05 16.495 5.05 16.495 0 17 C0 11.39 0 5.78 0 0 Z " fill="#C2AC93" transform="translate(25,0)"/>
<path d="M0 0 C-0.33 1.32 -0.66 2.64 -1 4 C1.475 4.495 1.475 4.495 4 5 C4 5.66 4 6.32 4 7 C2.04969533 8.33346412 0.00995631 9.43891316 -2.0546875 10.5859375 C-4.12307819 11.84893895 -4.12307819 11.84893895 -4.9140625 13.96484375 C-6.47852863 16.89681085 -8.57723825 17.69150747 -11.5 19.1875 C-12.4796875 19.69667969 -13.459375 20.20585938 -14.46875 20.73046875 C-15.97875461 21.48780131 -17.48906214 22.24453107 -19 23 C-19 17.39 -19 11.78 -19 6 C-16.6075 4.824375 -14.215 3.64875 -11.75 2.4375 C-11.00331055 2.06294678 -10.25662109 1.68839355 -9.48730469 1.30249023 C-5.83258522 -0.44672259 -3.84602871 -1.28077211 0 0 Z " fill="#8C6644" transform="translate(19,40)"/>
<path d="M0 0 C0.66 0.33 1.32 0.66 2 1 C2 2.65 2 4.3 2 6 C2.66 6 3.32 6 4 6 C4.12375 6.78375 4.2475 7.5675 4.375 8.375 C4.79117993 11.14057822 4.79117993 11.14057822 7 13 C5.68 13.33 4.36 13.66 3 14 C3.0721875 14.83144531 3.144375 15.66289063 3.21875 16.51953125 C3.3115625 17.60621094 3.404375 18.69289063 3.5 19.8125 C3.5928125 20.89144531 3.685625 21.97039063 3.78125 23.08203125 C4 26 4 26 4 29 C3.67 28.34 3.34 27.68 3 27 C2.01 26.67 1.02 26.34 0 26 C-0.99 25.34 -1.98 24.68 -3 24 C-3.33 25.32 -3.66 26.64 -4 28 C-5.32 28 -6.64 28 -8 28 C-8 22.66666667 -8 17.33333333 -8 12 C-7.01 11.67 -6.02 11.34 -5 11 C-4.34 11.33 -3.68 11.66 -3 12 C-3 9.69 -3 7.38 -3 5 C-2.34 4.67 -1.68 4.34 -1 4 C-0.34786708 1.97536745 -0.34786708 1.97536745 0 0 Z " fill="#957B61" transform="translate(34,24)"/>
<path d="M0 0 C1.45823212 -0.0270043 2.91660675 -0.04639787 4.375 -0.0625 C5.18710937 -0.07410156 5.99921875 -0.08570313 6.8359375 -0.09765625 C9 0 9 0 11 1 C11.625 3.5625 11.625 3.5625 12 6 C11.360625 6.226875 10.72125 6.45375 10.0625 6.6875 C7.72806339 7.85250896 7.72806339 7.85250896 7.25 10.625 C7.1675 11.40875 7.085 12.1925 7 13 C6.34 13 5.68 13 5 13 C5.185625 13.78375 5.37125 14.5675 5.5625 15.375 C6 18 6 18 5 20 C3.35 20 1.7 20 0 20 C0 21.65 0 23.3 0 25 C-0.66 25 -1.32 25 -2 25 C-3.8125 23.0625 -3.8125 23.0625 -5 20 C-4.52794789 17.73505769 -3.74894351 15.71254741 -2.90625 13.55859375 C-1.35109811 9.16797095 -0.72896895 4.58821635 0 0 Z " fill="#806A53" transform="translate(26,16)"/>
<path d="M0 0 C4.62 0 9.24 0 14 0 C13.67 0.66 13.34 1.32 13 2 C12.34 1.67 11.68 1.34 11 1 C11.495 1.495 11.99 1.99 12.5 2.5 C14.66042932 6.10071554 14.13662645 8.83289322 14 13 C14.33 13.33 14.66 13.66 15 14 C15.04063832 15.66617115 15.042721 17.33388095 15 19 C14.34 19.33 13.68 19.66 13 20 C13.33 20.99 13.66 21.98 14 23 C14.66 23.33 15.32 23.66 16 24 C15.01 24 14.02 24 13 24 C13 24.66 13 25.32 13 26 C13.66 26.33 14.32 26.66 15 27 C13.68 27.33 12.36 27.66 11 28 C10.34 27.01 9.68 26.02 9 25 C9.99 25 10.98 25 12 25 C11.67 24.34 11.34 23.68 11 23 C9.02 23.99 9.02 23.99 7 25 C5.84183492 21.52550475 6.24685195 19.97258867 7 16.4375 C8.01848058 12.60299446 8.01848058 12.60299446 7 9 C6.01 9.495 6.01 9.495 5 10 C5 8.68 5 7.36 5 6 C4.34 6 3.68 6 3 6 C3 6.66 3 7.32 3 8 C2.34 8 1.68 8 1 8 C0.67 5.36 0.34 2.72 0 0 Z " fill="#88725C" transform="translate(0,0)"/>
<path d="M0 0 C2.64 0 5.28 0 8 0 C9.9736427 24.14687897 9.9736427 24.14687897 6 35 C5.01 35.495 5.01 35.495 4 36 C3.01 35.01 2.02 34.02 1 33 C1.99 32.505 1.99 32.505 3 32 C3 30.68 3 29.36 3 28 C2.34 27.67 1.68 27.34 1 27 C1.2784375 25.8553125 1.2784375 25.8553125 1.5625 24.6875 C2.22819173 21.91032625 2.22819173 21.91032625 1 19 C1.33 18.01 1.66 17.02 2 16 C2.07029121 13.42734182 2.09370832 10.88358569 2.0625 8.3125 C2.05798828 7.61060547 2.05347656 6.90871094 2.04882812 6.18554688 C2.03706927 4.45699462 2.01913454 2.72848635 2 1 C1.34 0.67 0.68 0.34 0 0 Z " fill="#867561" transform="translate(17,0)"/>
<path d="M0 0 C3.3 0.33 6.6 0.66 10 1 C9.34 3.64 8.68 6.28 8 9 C9.32 9 10.64 9 12 9 C12.33 7.68 12.66 6.36 13 5 C14.875 5.25 14.875 5.25 17 6 C18.1328125 8.046875 18.1328125 8.046875 19 10 C11.32797907 12.12888539 3.95398808 13.54593375 -4 14 C-4.2109375 11.67578125 -4.2109375 11.67578125 -4 9 C-2.5390625 7.41796875 -2.5390625 7.41796875 -0.625 6.1875 C0.31472656 5.55908203 0.31472656 5.55908203 1.2734375 4.91796875 C3 4 3 4 5 4 C5 3.34 5 2.68 5 2 C3.35 1.67 1.7 1.34 0 1 C0 0.67 0 0.34 0 0 Z " fill="#765737" transform="translate(18,43)"/>
<path d="M0 0 C2.42999536 2.27364177 3.42805835 3.68273845 4 7 C8.60742865 5.78955868 8.60742865 5.78955868 13 4 C11.46990911 7.44270451 9.5068778 10.18925822 7 13 C6.01 13.33 5.02 13.66 4 14 C2.73762269 16.52475462 2.90143596 18.31200466 2.9375 21.125 C2.95103516 22.49011719 2.95103516 22.49011719 2.96484375 23.8828125 C2.97644531 24.58148438 2.98804688 25.28015625 3 26 C1.68 25.67 0.36 25.34 -1 25 C-1 21.04 -1 17.08 -1 13 C-0.01 12.67 0.98 12.34 2 12 C1.67 11.67 1.34 11.34 1 11 C0.76636119 9.15108054 0.58696365 7.29511969 0.4375 5.4375 C0.35371094 4.42558594 0.26992188 3.41367187 0.18359375 2.37109375 C0.12300781 1.58863281 0.06242187 0.80617188 0 0 Z " fill="#B89270" transform="translate(38,25)"/>
<path d="M0 0 C0.99 0.495 0.99 0.495 2 1 C1.67 1.66 1.34 2.32 1 3 C1.66 3 2.32 3 3 3 C3 2.34 3 1.68 3 1 C5 1 5 1 7.25 2.8125 C9.92494711 7.6847251 8.34737882 11.80166685 7 17 C4.69 16.01 2.38 15.02 0 14 C0 9.38 0 4.76 0 0 Z " fill="#6C5742" transform="translate(0,5)"/>
<path d="M0 0 C0.66 0.33 1.32 0.66 2 1 C1.42415568 3.38564077 0.77772405 5.66682784 0 8 C0.845625 8.7425 1.69125 9.485 2.5625 10.25 C3.366875 11.1575 4.17125 12.065 5 13 C4.8125 15.3125 4.8125 15.3125 4 17 C3.67 16.34 3.34 15.68 3 15 C2.01 14.67 1.02 14.34 0 14 C-0.33 15.32 -0.66 16.64 -1 18 C-2.32 18 -3.64 18 -5 18 C-5 12.66666667 -5 7.33333333 -5 2 C-4.01 1.67 -3.02 1.34 -2 1 C-1.34 1.33 -0.68 1.66 0 2 C0 1.34 0 0.68 0 0 Z " fill="#80684E" transform="translate(31,34)"/>
<path d="M0 0 C2.0625 0.4375 2.0625 0.4375 4 1 C3.21625 1.5775 2.4325 2.155 1.625 2.75 C-1.04242628 4.69781686 -1.04242628 4.69781686 -1.8203125 6.94140625 C-3.481927 9.84097858 -5.55328388 10.67924662 -8.5 12.1875 C-9.96953125 12.95126953 -9.96953125 12.95126953 -11.46875 13.73046875 C-12.97875461 14.48780131 -14.48906214 15.24453107 -16 16 C-16 13.69 -16 11.38 -16 9 C-14.39318359 8.15115234 -14.39318359 8.15115234 -12.75390625 7.28515625 C-11.3567202 6.54436633 -9.95958753 5.80347571 -8.5625 5.0625 C-7.85544922 4.68931641 -7.14839844 4.31613281 -6.41992188 3.93164062 C-2.99521342 2.27507665 -2.99521342 2.27507665 0 0 Z " fill="#A27B55" transform="translate(16,47)"/>
<path d="M0 0 C0.66 0.33 1.32 0.66 2 1 C1.67 1.66 1.34 2.32 1 3 C1.99 2.67 2.98 2.34 4 2 C4.33 2.33 4.66 2.66 5 3 C5.66 2.34 6.32 1.68 7 1 C7.33 1.66 7.66 2.32 8 3 C9.65 2.67 11.3 2.34 13 2 C11.6875 3.5 11.6875 3.5 10 5 C9.01 5 8.02 5 7 5 C7.99 5.66 8.98 6.32 10 7 C6.65683964 10.86248624 2.79016487 11.54212374 -2 13 C-2 9.04 -2 5.08 -2 1 C-1.34 0.67 -0.68 0.34 0 0 Z " fill="#5A4A3B" transform="translate(2,28)"/>
<path d="M0 0 C1.65 0 3.3 0 5 0 C5 11.22 5 22.44 5 34 C3.68 33.34 2.36 32.68 1 32 C1.66 32 2.32 32 3 32 C3 30.68 3 29.36 3 28 C2.34 27.67 1.68 27.34 1 27 C1.2784375 25.8553125 1.2784375 25.8553125 1.5625 24.6875 C2.22819173 21.91032625 2.22819173 21.91032625 1 19 C1.33 18.01 1.66 17.02 2 16 C2.07029121 13.42734182 2.09370832 10.88358569 2.0625 8.3125 C2.05798828 7.61060547 2.05347656 6.90871094 2.04882812 6.18554688 C2.03706927 4.45699462 2.01913454 2.72848635 2 1 C1.34 0.67 0.68 0.34 0 0 Z " fill="#9C8A77" transform="translate(17,0)"/>
<path d="M0 0 C0 3.96 0 7.92 0 12 C-7.38461538 12.36923077 -7.38461538 12.36923077 -10.5 10.5 C-10.995 10.005 -11.49 9.51 -12 9 C-3.25 0 -3.25 0 0 0 Z " fill="#D1A77E" transform="translate(64,52)"/>
<path d="M0 0 C4.95 0 9.9 0 15 0 C15 2.31 15 4.62 15 7 C12.87439563 6.69163768 10.74952935 6.37818386 8.625 6.0625 C6.84996094 5.80146484 6.84996094 5.80146484 5.0390625 5.53515625 C2 5 2 5 0 4 C0 2.68 0 1.36 0 0 Z " fill="#F0D7BE" transform="translate(49,0)"/>
<path d="M0 0 C8.75 -0.125 8.75 -0.125 11 1 C11.625 3.5625 11.625 3.5625 12 6 C11.01 6.66 10.02 7.32 9 8 C8.34 6.68 7.68 5.36 7 4 C6.34 4.66 5.68 5.32 5 6 C5.33 6.99 5.66 7.98 6 9 C4.02 9 2.04 9 0 9 C0 6.03 0 3.06 0 0 Z " fill="#554436" transform="translate(26,16)"/>
<path d="M0 0 C-0.12890625 2.29296875 -0.12890625 2.29296875 -1 5 C-3.65234375 6.80078125 -3.65234375 6.80078125 -6.9375 8.3125 C-8.01902344 8.82425781 -9.10054687 9.33601563 -10.21484375 9.86328125 C-13 11 -13 11 -15 11 C-15 9.35 -15 7.7 -15 6 C-12.87717331 4.99539469 -10.75166979 3.99644398 -8.625 3 C-7.44164062 2.443125 -6.25828125 1.88625 -5.0390625 1.3125 C-2 0 -2 0 0 0 Z " fill="#ECC5A8" transform="translate(64,14)"/>
<path d="M0 0 C0.99 0.99 1.98 1.98 3 3 C2.67 3.66 2.34 4.32 2 5 C0.824375 5.1546875 0.824375 5.1546875 -0.375 5.3125 C-4.85729126 6.16258972 -8.51731428 7.9680491 -12.609375 9.94140625 C-15 11 -15 11 -17 11 C-16.8046875 9.140625 -16.8046875 9.140625 -16 7 C-13.8203125 5.734375 -13.8203125 5.734375 -11.125 4.75 C-10.24070312 4.41484375 -9.35640625 4.0796875 -8.4453125 3.734375 C-6 3 -6 3 -3 3 C-3 2.34 -3 1.68 -3 1 C-2.01 0.67 -1.02 0.34 0 0 Z " fill="#5A4C3B" transform="translate(17,35)"/>
<path d="M0 0 C2.9375 0.8125 2.9375 0.8125 6 2 C6.33 2.99 6.66 3.98 7 5 C8.98 4.34 10.96 3.68 13 3 C12 6 12 6 10.125 7.125 C8.44294273 7.81761182 6.72572449 8.4247585 5 9 C4.34 8.67 3.68 8.34 3 8 C3 7.34 3 6.68 3 6 C2.34 6 1.68 6 1 6 C0.67 6.66 0.34 7.32 0 8 C0 5.36 0 2.72 0 0 Z " fill="#6B5947" transform="translate(0,19)"/>
<path d="M0 0 C0 2.64 0 5.28 0 8 C-5.75 6.375 -5.75 6.375 -8 3 C-7.67 2.01 -7.34 1.02 -7 0 C-4.05610218 -1.17755913 -3.10046087 -1.03348696 0 0 Z " fill="#836D58" transform="translate(14,5)"/>
<path d="M0 0 C0.6875 2.0625 0.6875 2.0625 1 4 C0.34 4 -0.32 4 -1 4 C-1 5.32 -1 6.64 -1 8 C-2.32 8 -3.64 8 -5 8 C-5.33 5.36 -5.66 2.72 -6 0 C-3 -1 -3 -1 0 0 Z " fill="#98816D" transform="translate(46,13)"/>
<path d="M0 0 C1.98 0.66 3.96 1.32 6 2 C5.67 4.31 5.34 6.62 5 9 C3.35 9.33 1.7 9.66 0 10 C-0.33 9.34 -0.66 8.68 -1 8 C-0.34 8 0.32 8 1 8 C0.67 5.36 0.34 2.72 0 0 Z " fill="#87725C" transform="translate(1,10)"/>
<path d="M0 0 C2.8290723 2.8290723 3.37611108 3.38144425 4 7 C5.65 7 7.3 7 9 7 C8.01 7.495 8.01 7.495 7 8 C7 8.66 7 9.32 7 10 C5.02 10.33 3.04 10.66 1 11 C0.67 7.37 0.34 3.74 0 0 Z " fill="#C6AB92" transform="translate(38,25)"/>
<path d="M0 0 C0.66 0 1.32 0 2 0 C2 0.66 2 1.32 2 2 C2.78375 1.814375 3.5675 1.62875 4.375 1.4375 C7 1 7 1 9 2 C9 2.66 9 3.32 9 4 C8.34 4 7.68 4 7 4 C6.67 5.32 6.34 6.64 6 8 C2 6 2 6 1 4 C0.34 4 -0.32 4 -1 4 C-0.67 2.68 -0.34 1.36 0 0 Z " fill="#806E5D" transform="translate(1,25)"/>
<path d="M0 0 C0.66 0.33 1.32 0.66 2 1 C2 2.65 2 4.3 2 6 C2.66 6 3.32 6 4 6 C3.67 6.99 3.34 7.98 3 9 C0.9375 9.6875 0.9375 9.6875 -1 10 C-1 9.01 -1 8.02 -1 7 C-1.66 7 -2.32 7 -3 7 C-3 6.34 -3 5.68 -3 5 C-2.34 4.67 -1.68 4.34 -1 4 C-0.34786708 1.97536745 -0.34786708 1.97536745 0 0 Z " fill="#9F866D" transform="translate(34,24)"/>
<path d="M0 0 C0.66 0.33 1.32 0.66 2 1 C1.43628586 4.26954202 0.50037734 5.82575883 -2 8 C-2.99 7.67 -3.98 7.34 -5 7 C-5 5.35 -5 3.7 -5 2 C-4.01 1.67 -3.02 1.34 -2 1 C-1.34 1.33 -0.68 1.66 0 2 C0 1.34 0 0.68 0 0 Z " fill="#8B7259" transform="translate(31,34)"/>
<path d="M0 0 C0.99 0.495 0.99 0.495 2 1 C1.67 1.66 1.34 2.32 1 3 C1.66 3 2.32 3 3 3 C3 2.34 3 1.68 3 1 C3.66 1 4.32 1 5 1 C4.42655063 3.86724686 4.1385485 4.8614515 2 7 C1.67 7.66 1.34 8.32 1 9 C1.66 9.33 2.32 9.66 3 10 C2.67 10.99 2.34 11.98 2 13 C1.34 13 0.68 13 0 13 C0 8.71 0 4.42 0 0 Z " fill="#79644D" transform="translate(0,5)"/>
<path d="M0 0 C3 1.25 3 1.25 5 4.25 C1.7 3.92 -1.6 3.59 -5 3.25 C-5 2.26 -5 1.27 -5 0.25 C-3 -0.75 -3 -0.75 0 0 Z " fill="#423121" transform="translate(23,39.75)"/>
<path d="M0 0 C0.66 0.33 1.32 0.66 2 1 C1.67 1.66 1.34 2.32 1 3 C1.99 2.67 2.98 2.34 4 2 C3.67 3.32 3.34 4.64 3 6 C1.35 6.33 -0.3 6.66 -2 7 C-2 5.02 -2 3.04 -2 1 C-1.34 0.67 -0.68 0.34 0 0 Z " fill="#685746" transform="translate(2,28)"/>
<path d="M0 0 C0.66 0.33 1.32 0.66 2 1 C0.515 2.485 0.515 2.485 -1 4 C-1.99 3.67 -2.98 3.34 -4 3 C-2.68 2.01 -1.36 1.02 0 0 Z M-5.8125 4.375 C-5.214375 4.58125 -4.61625 4.7875 -4 5 C-9.75 9 -9.75 9 -12 9 C-10.84326352 5.52979057 -9.72561293 3.70418064 -5.8125 4.375 Z " fill="#B18760" transform="translate(47,47)"/>
<path d="M0 0 C0.625 1.8125 0.625 1.8125 1 4 C0.01 5.485 0.01 5.485 -1 7 C-1.66 7 -2.32 7 -3 7 C-3 6.01 -3 5.02 -3 4 C-3.66 4 -4.32 4 -5 4 C-5 3.01 -5 2.02 -5 1 C-3 0 -3 0 0 0 Z " fill="#AD917A" transform="translate(40,13)"/>
<path d="M0 0 C0.66 0.33 1.32 0.66 2 1 C2 4.3 2 7.6 2 11 C0.68 10.67 -0.64 10.34 -2 10 C-1.125 2.25 -1.125 2.25 0 0 Z " fill="#C5A88D" transform="translate(39,40)"/>
<path d="M0 0 C0.66 0 1.32 0 2 0 C1.979375 0.763125 1.95875 1.52625 1.9375 2.3125 C1.87057159 5.10185786 1.87057159 5.10185786 3 8 C1.35 7.67 -0.3 7.34 -2 7 C-2 5.35 -2 3.7 -2 2 C-1.34 2 -0.68 2 0 2 C0 1.34 0 0.68 0 0 Z " fill="#3D3023" transform="translate(29,17)"/>
<path d="M0 0 C0.33 0 0.66 0 1 0 C1 4.29 1 8.58 1 13 C-0.32 12.34 -1.64 11.68 -3 11 C-2.34 11 -1.68 11 -1 11 C-1 9.68 -1 8.36 -1 7 C-1.66 6.67 -2.32 6.34 -3 6 C-2.34 5.67 -1.68 5.34 -1 5 C-0.34444881 2.47266765 -0.34444881 2.47266765 0 0 Z " fill="#91806B" transform="translate(21,21)"/>
<path d="M0 0 C1.98 0 3.96 0 6 0 C6.33 0.99 6.66 1.98 7 3 C6.01 3.495 6.01 3.495 5 4 C5 3.01 5 2.02 5 1 C4.34 1 3.68 1 3 1 C3 1.66 3 2.32 3 3 C2.34 3 1.68 3 1 3 C1 4.65 1 6.3 1 8 C1.66 8.33 2.32 8.66 3 9 C2.01 9 1.02 9 0 9 C0 6.03 0 3.06 0 0 Z " fill="#655344" transform="translate(26,16)"/>
<path d="M0 0 C0.33 0.66 0.66 1.32 1 2 C1.99 2.33 2.98 2.66 4 3 C2.625 4.5 2.625 4.5 1 6 C0.34 6 -0.32 6 -1 6 C-1.99 6.495 -1.99 6.495 -3 7 C-1.125 1.125 -1.125 1.125 0 0 Z " fill="#CA9F7F" transform="translate(50,25)"/>
<path d="M0 0 C2.97 0.495 2.97 0.495 6 1 C6 2.65 6 4.3 6 6 C4.35 6.33 2.7 6.66 1 7 C1.20625 6.401875 1.4125 5.80375 1.625 5.1875 C2.30671915 2.71549154 2.30671915 2.71549154 0 0 Z " fill="#84715D" transform="translate(9,13)"/>
<path d="M0 0 C3.3 0.33 6.6 0.66 10 1 C9.34 2.98 8.68 4.96 8 7 C7.67 6.01 7.34 5.02 7 4 C6.34 4 5.68 4 5 4 C5 3.34 5 2.68 5 2 C3.35 1.67 1.7 1.34 0 1 C0 0.67 0 0.34 0 0 Z " fill="#785C43" transform="translate(18,43)"/>
<path d="M0 0 C0.99 0.99 1.98 1.98 3 3 C2.67 3.66 2.34 4.32 2 5 C0.02 5 -1.96 5 -4 5 C-4.33 4.34 -4.66 3.68 -5 3 C-4.34 3 -3.68 3 -3 3 C-3 2.34 -3 1.68 -3 1 C-2.01 0.67 -1.02 0.34 0 0 Z " fill="#665544" transform="translate(17,35)"/>
<path d="M0 0 C0.66 0 1.32 0 2 0 C2 0.66 2 1.32 2 2 C2.66 2.33 3.32 2.66 4 3 C3.01 3 2.02 3 1 3 C1 3.66 1 4.32 1 5 C1.66 5.33 2.32 5.66 3 6 C1.68 6.33 0.36 6.66 -1 7 C-1.66 6.01 -2.32 5.02 -3 4 C-2.01 4 -1.02 4 0 4 C0 2.68 0 1.36 0 0 Z " fill="#9B8A78" transform="translate(12,21)"/>
<path d="M0 0 C2.31 0 4.62 0 7 0 C6.67 0.66 6.34 1.32 6 2 C5.34 1.67 4.68 1.34 4 1 C4.33 1.99 4.66 2.98 5 4 C4.01 4.66 3.02 5.32 2 6 C2 5.01 2 4.02 2 3 C1.34 2.67 0.68 2.34 0 2 C0 1.34 0 0.68 0 0 Z " fill="#907964" transform="translate(7,0)"/>
<path d="M0 0 C0.99 0 1.98 0 3 0 C3 1.65 3 3.3 3 5 C1.68 5 0.36 5 -1 5 C-0.67 3.35 -0.34 1.7 0 0 Z " fill="#907B63" transform="translate(27,47)"/>
</svg>
