<?xml version="1.0" encoding="UTF-8"?>
<svg version="1.1" xmlns="http://www.w3.org/2000/svg" width="64" height="64">
<path d="M0 0 C21.12 0 42.24 0 64 0 C64 21.12 64 42.24 64 64 C42.88 64 21.76 64 0 64 C0 42.88 0 21.76 0 0 Z " fill="#574A3B" transform="translate(0,0)"/>
<path d="M0 0 C13.2 0 26.4 0 40 0 C40 0.66 40 1.32 40 2 C37.36 2 34.72 2 32 2 C31.34 3.65 30.68 5.3 30 7 C31.0828125 6.87625 31.0828125 6.87625 32.1875 6.75 C35.86896938 7.07724172 37.18859919 8.66859445 40 11 C40.928125 11.28875 41.85625 11.5775 42.8125 11.875 C47.19510556 13.42180196 50.41048494 16.10287871 54 19 C53.34 20.32 52.68 21.64 52 23 C50.68 23 49.36 23 48 23 C48 22.34 48 21.68 48 21 C46.35 21 44.7 21 43 21 C43 19.68 43 18.36 43 17 C41.02013918 17.11347619 39.04108402 17.2410935 37.0625 17.375 C35.40927734 17.47941406 35.40927734 17.47941406 33.72265625 17.5859375 C32.82417969 17.72257812 31.92570312 17.85921875 31 18 C30.67 18.66 30.34 19.32 30 20 C30 19.34 30 18.68 30 18 C27.69 17.67 25.38 17.34 23 17 C23 17.66 23 18.32 23 19 C20.625 20.0625 20.625 20.0625 18 21 C17.34 20.67 16.68 20.34 16 20 C16 21.32 16 22.64 16 24 C15.34 24 14.68 24 14 24 C13.67 24.99 13.34 25.98 13 27 C11.68 27 10.36 27 9 27 C9.33 29.31 9.66 31.62 10 34 C11.98 33.505 11.98 33.505 14 33 C14 33.66 14 34.32 14 35 C13.34 35 12.68 35 12 35 C12.020625 35.94875 12.04125 36.8975 12.0625 37.875 C12 41 12 41 11 43 C15.455 42.505 15.455 42.505 20 42 C20 43.32 20 44.64 20 46 C19.01 46 18.02 46 17 46 C17.33 47.98 17.66 49.96 18 52 C20.64 52.66 23.28 53.32 26 54 C25.67 57.3 25.34 60.6 25 64 C16.75 64 8.5 64 0 64 C0 42.88 0 21.76 0 0 Z " fill="#98907B" transform="translate(0,0)"/>
<path d="M0 0 C0.66 1.32 1.32 2.64 2 4 C2.33 4 2.66 4 3 4 C3.99 4 4.98 4 6 4 C6 4.66 6 5.32 6 6 C5.34 6 4.68 6 4 6 C4.020625 6.94875 4.04125 7.8975 4.0625 8.875 C4 12 4 12 3 14 C7.455 13.505 7.455 13.505 12 13 C12 14.32 12 15.64 12 17 C11.01 17 10.02 17 9 17 C9.33 18.98 9.66 20.96 10 23 C12.64 23.66 15.28 24.32 18 25 C17.67 28.3 17.34 31.6 17 35 C8.75 35 0.5 35 -8 35 C-8 27.41 -8 19.82 -8 12 C-6.02 11.67 -4.04 11.34 -2 11 C-1.93941406 10.37351562 -1.87882813 9.74703125 -1.81640625 9.1015625 C-1.73261719 8.28429688 -1.64882812 7.46703125 -1.5625 6.625 C-1.48128906 5.81289063 -1.40007813 5.00078125 -1.31640625 4.1640625 C-1 2 -1 2 0 0 Z " fill="#89816C" transform="translate(8,29)"/>
<path d="M0 0 C0 11.88 0 23.76 0 36 C-9.24 36 -18.48 36 -28 36 C-27.34 34.68 -26.68 33.36 -26 32 C-25.34 32 -24.68 32 -24 32 C-23.63068359 31.12214844 -23.63068359 31.12214844 -23.25390625 30.2265625 C-21.80626232 27.65597983 -20.20757518 26.24544307 -17.9375 24.375 C-15.02124288 22.04514448 -15.02124288 22.04514448 -13 19 C-12.34 19 -11.68 19 -11 19 C-11 15.37 -11 11.74 -11 8 C-10.01 8 -9.02 8 -8 8 C-8 6.35 -8 4.7 -8 3 C-1.125 0 -1.125 0 0 0 Z " fill="#7D694B" transform="translate(64,28)"/>
<path d="M0 0 C7.92 0 15.84 0 24 0 C24 8.58 24 17.16 24 26 C21.36 25.67 18.72 25.34 16 25 C16 24.34 16 23.68 16 23 C14.68 22.67 13.36 22.34 12 22 C12.66 21.01 13.32 20.02 14 19 C13.443125 18.7525 12.88625 18.505 12.3125 18.25 C10 17 10 17 7.625 15 C4.79385536 12.84293742 2.36489996 12.07390424 -1 11 C-1.680625 10.484375 -2.36125 9.96875 -3.0625 9.4375 C-5.35200208 7.73883716 -7.20494683 7.38820183 -10 7 C-9.34 5.35 -8.68 3.7 -8 2 C-5.36 2 -2.72 2 0 2 C0 1.34 0 0.68 0 0 Z " fill="#897654" transform="translate(40,0)"/>
<path d="M0 0 C13.2 0 26.4 0 40 0 C40 0.66 40 1.32 40 2 C37.36 2 34.72 2 32 2 C31.34 3.65 30.68 5.3 30 7 C31.65 7 33.3 7 35 7 C35 7.33 35 7.66 35 8 C29.06 8.33 23.12 8.66 17 9 C16.67 10.65 16.34 12.3 16 14 C14.68662604 15.0260734 13.35335895 16.02727325 12 17 C11.20376178 19.09415804 11.20376178 19.09415804 11 21 C10.01 21 9.02 21 8 21 C7.67 21.99 7.34 22.98 7 24 C4.69 24.33 2.38 24.66 0 25 C0 16.75 0 8.5 0 0 Z " fill="#958362" transform="translate(0,0)"/>
<path d="M0 0 C6.62177926 0.30656385 11.22125154 1.74288723 17 5 C17 5.99 17 6.98 17 8 C17.33 7.34 17.66 6.68 18 6 C20.92436085 7.10924032 21.85310169 7.71319854 23.3125 10.5625 C24.87568682 13.41110587 24.87568682 13.41110587 28.6875 13.8125 C29.780625 13.874375 30.87375 13.93625 32 14 C33.21469085 25.2190197 33.21469085 25.2190197 30.32421875 29.45703125 C28.27086186 31.30017244 26.49153607 32.80901717 24 34 C22.515 33.505 22.515 33.505 21 33 C21.33 30.36 21.66 27.72 22 25 C21.34 25 20.68 25 20 25 C19.67 25.99 19.34 26.98 19 28 C16.9375 26.625 16.9375 26.625 15 24 C14.94136885 20.59939315 15.41281408 17.34440677 16 14 C17.32 13.67 18.64 13.34 20 13 C17.525 12.505 17.525 12.505 15 12 C15 11.34 15 10.68 15 10 C14.34 9.67 13.68 9.34 13 9 C13 10.98 13 12.96 13 15 C12.67 14.34 12.34 13.68 12 13 C11.01 13 10.02 13 9 13 C9.33 16.3 9.66 19.6 10 23 C9.01 23 8.02 23 7 23 C3.92307692 17.58461538 3.92307692 17.58461538 4.3125 14.625 C4.539375 14.08875 4.76625 13.5525 5 13 C5.66 13 6.32 13 7 13 C7.33 12.34 7.66 11.68 8 11 C8.66 11 9.32 11 10 11 C8.35082321 7.86113248 8.35082321 7.86113248 5.75 7.25 C2.65002866 6.96818442 0.03692247 7.36436506 -3 8 C-3.33 7.01 -3.66 6.02 -4 5 C-2.68 4.67 -1.36 4.34 0 4 C0 3.01 0 2.02 0 1 C0 0.67 0 0.34 0 0 Z " fill="#342923" transform="translate(16,23)"/>
<path d="M0 0 C1.32 0.33 2.64 0.66 4 1 C3.01 2.485 3.01 2.485 2 4 C0.68 4 -0.64 4 -2 4 C-1.67 4.66 -1.34 5.32 -1 6 C0.216875 5.773125 1.43375 5.54625 2.6875 5.3125 C5.89736962 4.90200158 6.91506315 4.96284013 10 6.3125 C10.66 6.869375 11.32 7.42625 12 8 C12 8.66 12 9.32 12 10 C11.34 10 10.68 10 10 10 C9.67 10.99 9.34 11.98 9 13 C8.34 13 7.68 13 7 13 C7.33 17.95 7.66 22.9 8 28 C9.65 28 11.3 28 13 28 C14.65 31.3 16.3 34.6 18 38 C18.66 38 19.32 38 20 38 C20 38.66 20 39.32 20 40 C17.03 40 14.06 40 11 40 C11.33 36.7 11.66 33.4 12 30 C9.36 29.34 6.72 28.68 4 28 C3.67 26.02 3.34 24.04 3 22 C3.99 22 4.98 22 6 22 C6 20.68 6 19.36 6 18 C4.88625 18.350625 3.7725 18.70125 2.625 19.0625 C-1 20 -1 20 -3 19 C-2.67 16.36 -2.34 13.72 -2 11 C-1.34 11 -0.68 11 0 11 C0 10.34 0 9.68 0 9 C-1.65 9.66 -3.3 10.32 -5 11 C-5 8.36 -5 5.72 -5 3 C-4.360625 2.87625 -3.72125 2.7525 -3.0625 2.625 C-2.0415625 2.315625 -2.0415625 2.315625 -1 2 C-0.67 1.34 -0.34 0.68 0 0 Z " fill="#644B4F" transform="translate(14,24)"/>
<path d="M0 0 C0.33 0 0.66 0 1 0 C1 9.24 1 18.48 1 28 C0.01 27.34 -0.98 26.68 -2 26 C-2 25.34 -2 24.68 -2 24 C-2.66 24 -3.32 24 -4 24 C-4.33 25.32 -4.66 26.64 -5 28 C-5.66 28 -6.32 28 -7 28 C-7 27.34 -7 26.68 -7 26 C-7.66 26 -8.32 26 -9 26 C-10.49697302 20.31150252 -9.3348044 15.58190932 -8 10 C-7.01 10 -6.02 10 -5 10 C-5.33 8.02 -5.66 6.04 -6 4 C-4.35 3.67 -2.7 3.34 -1 3 C-0.67 2.01 -0.34 1.02 0 0 Z " fill="#CFBA8B" transform="translate(63,28)"/>
<path d="M0 0 C2.01822917 0.29296875 4.03645833 0.5859375 6.0546875 0.87890625 C8.08140667 1.1684297 8.08140667 1.1684297 10 0 C11.70702735 -0.06996014 13.41668003 -0.08440154 15.125 -0.0625 C16.03507812 -0.05347656 16.94515625 -0.04445313 17.8828125 -0.03515625 C18.93082031 -0.01775391 18.93082031 -0.01775391 20 0 C20 1.32 20 2.64 20 4 C21.65 4 23.3 4 25 4 C25 4.66 25 5.32 25 6 C26.32 6.33 27.64 6.66 29 7 C25.40537669 9.25998595 22.43404325 9.20868087 18.25 9.125 C17.07953125 9.10695313 15.9090625 9.08890625 14.703125 9.0703125 C13.36507812 9.03550781 13.36507812 9.03550781 12 9 C12.33 7.68 12.66 6.36 13 5 C12.01 5 11.02 5 10 5 C9.67 5.99 9.34 6.98 9 8 C7.35 8 5.7 8 4 8 C3.67 7.01 3.34 6.02 3 5 C-0.3 5.33 -3.6 5.66 -7 6 C-7 5.01 -7 4.02 -7 3 C-3.535 2.505 -3.535 2.505 0 2 C0 1.34 0 0.68 0 0 Z " fill="#8D8471" transform="translate(23,17)"/>
<path d="M0 0 C1.32 0.33 2.64 0.66 4 1 C5.32 6.28 6.64 11.56 8 17 C3.38 17 -1.24 17 -6 17 C-6 12.38 -6 7.76 -6 3 C-4.35 2.67 -2.7 2.34 -1 2 C-0.67 1.34 -0.34 0.68 0 0 Z " fill="#815E34" transform="translate(6,47)"/>
<path d="M0 0 C0.86818359 -0.020625 1.73636719 -0.04125 2.63085938 -0.0625 C10.25977741 -0.1093391 10.25977741 -0.1093391 13.6875 3.25 C14.595 3.518125 15.5025 3.78625 16.4375 4.0625 C20.82910586 5.66712522 24.07476138 8.33413482 27.6875 11.25 C27.3575 12.24 27.0275 13.23 26.6875 14.25 C20.04134615 12.77307692 20.04134615 12.77307692 18.25 10.125 C18.064375 9.50625 17.87875 8.8875 17.6875 8.25 C16.615 8.29125 15.5425 8.3325 14.4375 8.375 C10.6875 8.25 10.6875 8.25 8.90625 7.28125 C5.77261374 5.82477117 2.87249737 5.81583319 -0.5625 5.625 C-1.82578125 5.55023437 -3.0890625 5.47546875 -4.390625 5.3984375 C-5.35484375 5.34945313 -6.3190625 5.30046875 -7.3125 5.25 C-7.6425 4.26 -7.9725 3.27 -8.3125 2.25 C-8.9725 1.92 -9.6325 1.59 -10.3125 1.25 C-8.07873909 -0.98376091 -2.99854888 0.01757391 0 0 Z " fill="#B7AD92" transform="translate(26.3125,7.75)"/>
<path d="M0 0 C2.31 0 4.62 0 7 0 C7 6.6 7 13.2 7 20 C4.03 19.67 1.06 19.34 -2 19 C-2.22262303 12.2718373 -1.95021536 6.46008837 0 0 Z " fill="#705C40" transform="translate(57,0)"/>
<path d="M0 0 C5.28 0 10.56 0 16 0 C16 0.99 16 1.98 16 3 C13.36 3.66 10.72 4.32 8 5 C8 5.66 8 6.32 8 7 C8.78375 7.12375 9.5675 7.2475 10.375 7.375 C13 8 13 8 15 10 C14.34 10.66 13.68 11.32 13 12 C12.34 11.67 11.68 11.34 11 11 C10.67 12.32 10.34 13.64 10 15 C9.01 15 8.02 15 7 15 C7 12.69 7 10.38 7 8 C4.69 8 2.38 8 0 8 C0 5.36 0 2.72 0 0 Z " fill="#CED3C9" transform="translate(0,0)"/>
<path d="M0 0 C-0.875 5.75 -0.875 5.75 -2 8 C-2.30791869 10.33077343 -2.50895274 12.66241896 -2.71875 15.00390625 C-3 17 -3 17 -4 18 C-5.98 18 -7.96 18 -10 18 C-10 12.72 -10 7.44 -10 2 C-3 0 -3 0 0 0 Z " fill="#E0E2DE" transform="translate(10,23)"/>
<path d="M0 0 C-0.33 0.99 -0.66 1.98 -1 3 C-1.66 2.67 -2.32 2.34 -3 2 C-3.33 2.66 -3.66 3.32 -4 4 C-4.66 3.67 -5.32 3.34 -6 3 C-5.67 4.98 -5.34 6.96 -5 9 C-5.99 9 -6.98 9 -8 9 C-7.979375 10.19625 -7.95875 11.3925 -7.9375 12.625 C-7.93119056 16.18352679 -8.33298175 19.49815417 -9 23 C-9 23.66 -9 24.32 -9 25 C-8.34 25 -7.68 25 -7 25 C-7 25.66 -7 26.32 -7 27 C-6.34 26.67 -5.68 26.34 -5 26 C-4.67 25.01 -4.34 24.02 -4 23 C-3.34 23 -2.68 23 -2 23 C0.21747812 25.30276574 0.96760006 26.52480092 1.1875 29.75 C1.125625 30.4925 1.06375 31.235 1 32 C-5.0546875 32.1953125 -5.0546875 32.1953125 -7 32 C-8.95216435 30.04783565 -9.84826645 28.46800047 -11 26 C-11.66 26.33 -12.32 26.66 -13 27 C-13.25162338 22.47077922 -13.25162338 22.47077922 -12.03125 20.1875 C-10.76082791 17.49266527 -10.58667889 15.21350451 -10.375 12.25 C-10.30023438 11.26515625 -10.22546875 10.2803125 -10.1484375 9.265625 C-10.09945312 8.51796875 -10.05046875 7.7703125 -10 7 C-9.01 7 -8.02 7 -7 7 C-7 5.35 -7 3.7 -7 2 C-4.35261084 0.5393715 -3.10551666 0 0 0 Z " fill="#928463" transform="translate(63,29)"/>
<path d="M0 0 C2.31 0 4.62 0 7 0 C7 2.64 7 5.28 7 8 C7.99 8.33 8.98 8.66 10 9 C10 9.99 10 10.98 10 12 C9.01 12 8.02 12 7 12 C6.34 13.65 5.68 15.3 5 17 C3.35 17 1.7 17 0 17 C0 11.39 0 5.78 0 0 Z " fill="#4E614D" transform="translate(0,8)"/>
<path d="M0 0 C0.33 0 0.66 0 1 0 C1.66 4.29 2.32 8.58 3 13 C3.66 13 4.32 13 5 13 C5.33 14.98 5.66 16.96 6 19 C5.401875 18.690625 4.80375 18.38125 4.1875 18.0625 C1.91043228 16.89790296 1.91043228 16.89790296 -1 16 C-1.33 16.99 -1.66 17.98 -2 19 C-3.65 19 -5.3 19 -7 19 C-7 16.03 -7 13.06 -7 10 C-5.02 9.67 -3.04 9.34 -1 9 C-0.67 6.03 -0.34 3.06 0 0 Z " fill="#A8A893" transform="translate(7,31)"/>
<path d="M0 0 C1.32 0 2.64 0 4 0 C4 3.96 4 7.92 4 12 C-0.75071397 11.04985721 -1.49509927 10.62867555 -5 8 C-7.64934822 7.28566879 -7.64934822 7.28566879 -10 7 C-9.34 5.35 -8.68 3.7 -8 2 C-5.36 2 -2.72 2 0 2 C0 1.34 0 0.68 0 0 Z " fill="#755E3D" transform="translate(40,0)"/>
<path d="M0 0 C0.99 0.33 1.98 0.66 3 1 C3 1.66 3 2.32 3 3 C4.32 3.33 5.64 3.66 7 4 C6.67 4.66 6.34 5.32 6 6 C5.01 5.67 4.02 5.34 3 5 C2.91878076 6.60332791 2.86070866 8.20784026 2.8125 9.8125 C2.77769531 10.70582031 2.74289063 11.59914063 2.70703125 12.51953125 C3.04918998 15.41647515 3.75393573 16.22555028 6 18 C6.33 17.34 6.66 16.68 7 16 C7.66 16 8.32 16 9 16 C8.67 17.65 8.34 19.3 8 21 C7.01 21.33 6.02 21.66 5 22 C4.67 22.99 4.34 23.98 4 25 C3.01 24.67 2.02 24.34 1 24 C-1.50660488 18.87358872 -1.06470668 14.13892175 -0.625 8.625 C-0.53992188 7.37783203 -0.53992188 7.37783203 -0.453125 6.10546875 C-0.3127169 4.06955124 -0.15782335 2.03464157 0 0 Z " fill="#4A3E33" transform="translate(29,32)"/>
<path d="M0 0 C1.09570312 0.00902344 2.19140625 0.01804688 3.3203125 0.02734375 C4.16335937 0.03894531 5.00640625 0.05054688 5.875 0.0625 C4.885 0.7225 3.895 1.3825 2.875 2.0625 C3.205 2.7225 3.535 3.3825 3.875 4.0625 C2.885 4.3925 1.895 4.7225 0.875 5.0625 C0.7925 5.825625 0.71 6.58875 0.625 7.375 C-0.28974137 10.65282326 -1.43916203 11.13205396 -4.125 13.0625 C-4.92123822 15.15665804 -4.92123822 15.15665804 -5.125 17.0625 C-6.115 17.0625 -7.105 17.0625 -8.125 17.0625 C-8.455 18.0525 -8.785 19.0425 -9.125 20.0625 C-9.785 19.7325 -10.445 19.4025 -11.125 19.0625 C-10.135 17.5775 -10.135 17.5775 -9.125 16.0625 C-8.135 16.0625 -7.145 16.0625 -6.125 16.0625 C-6.125 15.0725 -6.125 14.0825 -6.125 13.0625 C-7.445 12.7325 -8.765 12.4025 -10.125 12.0625 C-9.795 11.0725 -9.465 10.0825 -9.125 9.0625 C-9.125 9.7225 -9.125 10.3825 -9.125 11.0625 C-8.135 11.0625 -7.145 11.0625 -6.125 11.0625 C-6.021875 10.423125 -5.91875 9.78375 -5.8125 9.125 C-5.585625 8.444375 -5.35875 7.76375 -5.125 7.0625 C-4.135 6.7325 -3.145 6.4025 -2.125 6.0625 C-4.2635485 3.9239515 -5.25775314 3.63594937 -8.125 3.0625 C-8.125 2.4025 -8.125 1.7425 -8.125 1.0625 C-5.36047967 -0.31976016 -3.0788637 -0.03275387 0 0 Z " fill="#818772" transform="translate(16.125,3.9375)"/>
<path d="M0 0 C2.4294516 3.6441774 2.16179575 5.71241272 2 10 C3.65 10 5.3 10 7 10 C8.65 13.3 10.3 16.6 12 20 C12.66 20 13.32 20 14 20 C14 20.66 14 21.32 14 22 C11.03 22 8.06 22 5 22 C5.33 18.7 5.66 15.4 6 12 C3.36 11.34 0.72 10.68 -2 10 C-2.33 8.02 -2.66 6.04 -3 4 C-2.01 4 -1.02 4 0 4 C0 2.68 0 1.36 0 0 Z " fill="#6D6450" transform="translate(20,42)"/>
<path d="M0 0 C1.32 0.33 2.64 0.66 4 1 C3.01 2.485 3.01 2.485 2 4 C0.68 4 -0.64 4 -2 4 C-1.20700294 6.17038477 -1.20700294 6.17038477 0.84765625 6.6328125 C1.57855469 6.79523437 2.30945313 6.95765625 3.0625 7.125 C3.79597656 7.29257812 4.52945312 7.46015625 5.28515625 7.6328125 C5.85105469 7.75398438 6.41695312 7.87515625 7 8 C6.67 8.99 6.34 9.98 6 11 C4.125 11.625 4.125 11.625 2 12 C1.01 12.33 0.02 12.66 -1 13 C-0.42655063 15.86724686 -0.1385485 16.8614515 2 19 C1.01 19.33 0.02 19.66 -1 20 C-1.66 19.67 -2.32 19.34 -3 19 C-2.67 16.36 -2.34 13.72 -2 11 C-1.34 11 -0.68 11 0 11 C0 10.34 0 9.68 0 9 C-1.65 9.66 -3.3 10.32 -5 11 C-5 8.36 -5 5.72 -5 3 C-4.360625 2.87625 -3.72125 2.7525 -3.0625 2.625 C-2.0415625 2.315625 -2.0415625 2.315625 -1 2 C-0.67 1.34 -0.34 0.68 0 0 Z " fill="#836F68" transform="translate(14,24)"/>
<path d="M0 0 C0.33 0 0.66 0 1 0 C1 4.62 1 9.24 1 14 C-1.31 13.34 -3.62 12.68 -6 12 C-6.33 13.98 -6.66 15.96 -7 18 C-7.33 18 -7.66 18 -8 18 C-8 15.36 -8 12.72 -8 10 C-7.01 10 -6.02 10 -5 10 C-5.33 8.02 -5.66 6.04 -6 4 C-4.35 3.67 -2.7 3.34 -1 3 C-0.67 2.01 -0.34 1.02 0 0 Z " fill="#B7B49C" transform="translate(63,28)"/>
<path d="M0 0 C5.61 0 11.22 0 17 0 C17.33 0.66 17.66 1.32 18 2 C19.7015625 2.2165625 19.7015625 2.2165625 21.4375 2.4375 C22.613125 2.623125 23.78875 2.80875 25 3 C25.99 4.485 25.99 4.485 27 6 C28.96752828 7.06246527 30.96587579 8.07137808 33 9 C31.68 9.33 30.36 9.66 29 10 C29 9.34 29 8.68 29 8 C27.35 8 25.7 8 24 8 C24 6.68 24 5.36 24 4 C23.00097656 4.01160156 22.00195312 4.02320313 20.97265625 4.03515625 C19.68230469 4.04417969 18.39195313 4.05320312 17.0625 4.0625 C15.77472656 4.07410156 14.48695312 4.08570313 13.16015625 4.09765625 C10 4 10 4 9 3 C7.48530552 2.76807135 5.96245438 2.58784762 4.4375 2.4375 C3.61121094 2.35371094 2.78492188 2.26992187 1.93359375 2.18359375 C1.29550781 2.12300781 0.65742188 2.06242188 0 2 C0 1.34 0 0.68 0 0 Z " fill="#A8A18C" transform="translate(19,13)"/>
<path d="M0 0 C0 0.66 0 1.32 0 2 C0.99 2.33 1.98 2.66 3 3 C3 3.99 3 4.98 3 6 C6.465 7.485 6.465 7.485 10 9 C10.33 12.96 10.66 16.92 11 21 C10.34 21 9.68 21 9 21 C9 17.37 9 13.74 9 10 C7.906875 10.04125 6.81375 10.0825 5.6875 10.125 C2 10 2 10 -1 8 C-0.34 8 0.32 8 1 8 C-1.54604597 4.47618313 -1.54604597 4.47618313 -5 2 C-5.33 2.99 -5.66 3.98 -6 5 C-6.33 4.01 -6.66 3.02 -7 2 C-4 0 -4 0 0 0 Z " fill="#41372F" transform="translate(39,27)"/>
<path d="M0 0 C1.65 0 3.3 0 5 0 C5 1.65 5 3.3 5 5 C6.65 5 8.3 5 10 5 C9.67 5.99 9.34 6.98 9 8 C7.35 8 5.7 8 4 8 C3.67 7.01 3.34 6.02 3 5 C-0.3 5.33 -3.6 5.66 -7 6 C-7 5.01 -7 4.02 -7 3 C-3.535 2.505 -3.535 2.505 0 2 C0 1.34 0 0.68 0 0 Z " fill="#766756" transform="translate(23,17)"/>
<path d="M0 0 C1.98 0 3.96 0 6 0 C6.33 0.66 6.66 1.32 7 2 C8.65 2 10.3 2 12 2 C12.33 1.34 12.66 0.68 13 0 C13.99 0 14.98 0 16 0 C15.67 1.32 15.34 2.64 15 4 C15.66 3.835 16.32 3.67 17 3.5 C20.73099794 2.87816701 24.21873378 2.93591074 28 3 C28 3.33 28 3.66 28 4 C19.51129629 6.20077504 12.99845526 7.44358626 5 3 C2.26427415 2.30092586 2.26427415 2.30092586 0 2 C0 1.34 0 0.68 0 0 Z " fill="#554B3D" transform="translate(20,22)"/>
<path d="M0 0 C1.4800841 0.11362262 2.95910074 0.24122908 4.4375 0.375 C5.26121094 0.44460937 6.08492187 0.51421875 6.93359375 0.5859375 C7.95646484 0.79089844 7.95646484 0.79089844 9 1 C9.33 1.66 9.66 2.32 10 3 C9.01 3.66 8.02 4.32 7 5 C7 5.66 7 6.32 7 7 C3.7 7.33 0.4 7.66 -3 8 C-3.33 7.01 -3.66 6.02 -4 5 C-2.68 4.67 -1.36 4.34 0 4 C0 3.01 0 2.02 0 1 C0 0.67 0 0.34 0 0 Z " fill="#29281F" transform="translate(16,23)"/>
<path d="M0 0 C0.66 0 1.32 0 2 0 C4.21747812 2.30276574 4.96760006 3.52480092 5.1875 6.75 C5.125625 7.4925 5.06375 8.235 5 9 C-1.0546875 9.1953125 -1.0546875 9.1953125 -3 9 C-3.66 8.34 -4.32 7.68 -5 7 C-5 6.01 -5 5.02 -5 4 C-4.0409375 3.8453125 -4.0409375 3.8453125 -3.0625 3.6875 C-2.381875 3.460625 -1.70125 3.23375 -1 3 C-0.67 2.01 -0.34 1.02 0 0 Z " fill="#988057" transform="translate(59,52)"/>
<path d="M0 0 C1.485 0.99 1.485 0.99 3 2 C3.99 2 4.98 2 6 2 C6.66 3.65 7.32 5.3 8 7 C8.66 7 9.32 7 10 7 C9.67 7.99 9.34 8.98 9 10 C8.34 8.68 7.68 7.36 7 6 C6.34 6 5.68 6 5 6 C4.67 7.32 4.34 8.64 4 10 C3.34 10 2.68 10 2 10 C2 9.34 2 8.68 2 8 C1.34 8 0.68 8 0 8 C-1.125 2.25 -1.125 2.25 0 0 Z " fill="#BAA373" transform="translate(54,46)"/>
<path d="M0 0 C0.33 0 0.66 0 1 0 C1.66 4.29 2.32 8.58 3 13 C3.66 13 4.32 13 5 13 C5.33 14.98 5.66 16.96 6 19 C5.401875 18.690625 4.80375 18.38125 4.1875 18.0625 C1.91043228 16.89790296 1.91043228 16.89790296 -1 16 C-0.67 10.72 -0.34 5.44 0 0 Z " fill="#A6A592" transform="translate(7,31)"/>
<path d="M0 0 C0.90492187 0.02320312 1.80984375 0.04640625 2.7421875 0.0703125 C4.10730469 0.09738281 4.10730469 0.09738281 5.5 0.125 C6.19867188 0.14820312 6.89734375 0.17140625 7.6171875 0.1953125 C7.6171875 2.1753125 7.6171875 4.1553125 7.6171875 6.1953125 C4.9771875 5.8653125 2.3371875 5.5353125 -0.3828125 5.1953125 C-0.3828125 4.5353125 -0.3828125 3.8753125 -0.3828125 3.1953125 C-1.7028125 2.8653125 -3.0228125 2.5353125 -4.3828125 2.1953125 C-2.3828125 0.1953125 -2.3828125 0.1953125 0 0 Z " fill="#998456" transform="translate(56.3828125,19.8046875)"/>
<path d="M0 0 C0.66 0 1.32 0 2 0 C2 3.96 2 7.92 2 12 C-3 11 -3 11 -6 9 C-6 8.34 -6 7.68 -6 7 C-5.38125 6.95875 -4.7625 6.9175 -4.125 6.875 C-3.42375 6.58625 -2.7225 6.2975 -2 6 C-0.6954344 3.00384054 -0.6954344 3.00384054 0 0 Z " fill="#6C583B" transform="translate(42,0)"/>
<path d="M0 0 C0.99 0.66 1.98 1.32 3 2 C4.65549531 2.38499891 6.3222433 2.72793135 8 3 C6 5 6 5 2.9609375 5.1953125 C1.77757812 5.17210937 0.59421875 5.14890625 -0.625 5.125 C-1.81351563 5.10695313 -3.00203125 5.08890625 -4.2265625 5.0703125 C-5.14179687 5.04710937 -6.05703125 5.02390625 -7 5 C-6.67 3.68 -6.34 2.36 -6 1 C-6.99 0.67 -7.98 0.34 -9 0 C-5.46627283 -1.17790906 -3.59454905 -0.82375082 0 0 Z " fill="#756B5B" transform="translate(42,21)"/>
<path d="M0 0 C-0.75 6.75 -0.75 6.75 -3 9 C-3.99 9 -4.98 9 -6 9 C-6.33 6.69 -6.66 4.38 -7 2 C-4.35261084 0.5393715 -3.10551666 0 0 0 Z " fill="#F1EFEC" transform="translate(8,26)"/>
<path d="M0 0 C3.46464111 0.27173656 4.68165104 0.93690865 7.1875 3.25 C6.1975 4.24 5.2075 5.23 4.1875 6.25 C3.5275 5.92 2.8675 5.59 2.1875 5.25 C1.8575 6.57 1.5275 7.89 1.1875 9.25 C1.1875 8.26 1.1875 7.27 1.1875 6.25 C0.548125 5.981875 -0.09125 5.71375 -0.75 5.4375 C-2.8125 4.25 -2.8125 4.25 -3.8125 1.25 C-2.8125 0.25 -2.8125 0.25 0 0 Z " fill="#1F1718" transform="translate(25.8125,25.75)"/>
<path d="M0 0 C0.99 0 1.98 0 3 0 C2.835 0.495 2.67 0.99 2.5 1.5 C1.86925591 4.22880216 1.86925591 4.22880216 2 8 C2 11.0327004 1.93951052 13.18146844 1 16 C-0.32 16 -1.64 16 -3 16 C-3.33 13.03 -3.66 10.06 -4 7 C-3.01 7.495 -3.01 7.495 -2 8 C-2 8.66 -2 9.32 -2 10 C-1.01 10 -0.02 10 1 10 C0.67 9.34 0.34 8.68 0 8 C-0.13415472 5.3276379 -0.04318541 2.67749512 0 0 Z " fill="#4B4036" transform="translate(25,36)"/>
<path d="M0 0 C-0.33 0.99 -0.66 1.98 -1 3 C-3.45898655 3.08076963 -5.91533742 3.14037143 -8.375 3.1875 C-9.42300781 3.22520508 -9.42300781 3.22520508 -10.4921875 3.26367188 C-12.5234375 3.29296875 -12.5234375 3.29296875 -16 3 C-16.66 2.01 -17.32 1.02 -18 0 C-4 -2 -4 -2 0 0 Z " fill="#C5BAA0" transform="translate(38,9)"/>
<path d="M0 0 C1.09570312 0.00902344 2.19140625 0.01804688 3.3203125 0.02734375 C4.16335937 0.03894531 5.00640625 0.05054688 5.875 0.0625 C4.885 0.7225 3.895 1.3825 2.875 2.0625 C3.205 2.7225 3.535 3.3825 3.875 4.0625 C1.8125 5.25 1.8125 5.25 -1.125 6.0625 C-3.67312724 5.34123258 -5.74582896 4.27541073 -8.125 3.0625 C-8.125 2.4025 -8.125 1.7425 -8.125 1.0625 C-5.36047967 -0.31976016 -3.0788637 -0.03275387 0 0 Z " fill="#888770" transform="translate(16.125,3.9375)"/>
<path d="M0 0 C7.50769231 -0.36923077 7.50769231 -0.36923077 10 1.5 C10.495 2.2425 10.495 2.2425 11 3 C10.34 3.66 9.68 4.32 9 5 C8.34 4.67 7.68 4.34 7 4 C6.67 5.32 6.34 6.64 6 8 C5.01 8 4.02 8 3 8 C3 5.69 3 3.38 3 1 C2.01 0.67 1.02 0.34 0 0 Z " fill="#A1A99B" transform="translate(4,7)"/>
<path d="M0 0 C1.32 0.33 2.64 0.66 4 1 C3.01 1.33 2.02 1.66 1 2 C-0.22520264 5.00847418 -0.22520264 5.00847418 -1 8 C-2.65 8.33 -4.3 8.66 -6 9 C-6 7.02 -6 5.04 -6 3 C-5.195625 2.87625 -4.39125 2.7525 -3.5625 2.625 C-2.716875 2.41875 -1.87125 2.2125 -1 2 C-0.67 1.34 -0.34 0.68 0 0 Z " fill="#8C7A55" transform="translate(6,47)"/>
<path d="M0 0 C2.62187494 1.04874998 3.79371361 1.64931313 5.25 4.125 C5.4975 4.74375 5.745 5.3625 6 6 C3.36 6.33 0.72 6.66 -2 7 C-3 4 -3 4 -2 1 C-1.67 1.33 -1.34 1.66 -1 2 C-0.67 1.34 -0.34 0.68 0 0 Z " fill="#212422" transform="translate(34,29)"/>
<path d="M0 0 C1.36511719 0.29197266 1.36511719 0.29197266 2.7578125 0.58984375 C3.45648438 0.74582031 4.15515625 0.90179687 4.875 1.0625 C4.875 1.7225 4.875 2.3825 4.875 3.0625 C3.25085622 3.25727739 1.62563577 3.44309458 0 3.625 C-0.90492187 3.72941406 -1.80984375 3.83382813 -2.7421875 3.94140625 C-5.125 4.0625 -5.125 4.0625 -7.125 3.0625 C-7.125 2.0725 -7.125 1.0825 -7.125 0.0625 C-4.4030754 -1.2984623 -2.9418043 -0.64116248 0 0 Z " fill="#3A2A16" transform="translate(59.125,24.9375)"/>
<path d="M0 0 C2.64 0.99 5.28 1.98 8 3 C8 4.65 8 6.3 8 8 C5.6875 7.8125 5.6875 7.8125 3 7 C0 2.96551724 0 2.96551724 0 0 Z " fill="#D9C7A3" transform="translate(56,39)"/>
<path d="M0 0 C2.31 0 4.62 0 7 0 C7 2.64 7 5.28 7 8 C7.99 8.33 8.98 8.66 10 9 C10 9.66 10 10.32 10 11 C7.69 10.67 5.38 10.34 3 10 C3.33 7.03 3.66 4.06 4 1 C2.68 0.67 1.36 0.34 0 0 Z " fill="#5D6E5A" transform="translate(0,8)"/>
<path d="M0 0 C1.62600941 0.0870005 3.25089678 0.1951781 4.875 0.3125 C5.77992187 0.37050781 6.68484375 0.42851562 7.6171875 0.48828125 C10 1 10 1 12 4 C13.96752828 5.06246527 15.96587579 6.07137808 18 7 C16.68 7.33 15.36 7.66 14 8 C14 7.34 14 6.68 14 6 C12.35 6 10.7 6 9 6 C9 4.68 9 3.36 9 2 C5.7 2 2.4 2 -1 2 C-0.67 1.34 -0.34 0.68 0 0 Z " fill="#A0957D" transform="translate(34,15)"/>
<path d="M0 0 C0.66 0 1.32 0 2 0 C3.23076923 6.4 3.23076923 6.4 2.0625 9.4375 C1.711875 9.953125 1.36125 10.46875 1 11 C0.34 10.67 -0.32 10.34 -1 10 C-1.40729228 7.67843403 -1.74438677 5.3431213 -2 3 C-1.01 3.33 -0.02 3.66 1 4 C0.67 2.68 0.34 1.36 0 0 Z " fill="#978A70" transform="translate(12,46)"/>
<path d="M0 0 C0.33 0 0.66 0 1 0 C1 2.64 1 5.28 1 8 C-1.33333333 8 -3.66666667 8 -6 8 C-6 6.68 -6 5.36 -6 4 C-4.35 3.67 -2.7 3.34 -1 3 C-0.67 2.01 -0.34 1.02 0 0 Z " fill="#A69E84" transform="translate(63,28)"/>
<path d="M0 0 C1.4606285 2.64738916 2 3.89448334 2 7 C0.35 7.33 -1.3 7.66 -3 8 C-3.33 6.35 -3.66 4.7 -4 3 C-2.68 2.01 -1.36 1.02 0 0 Z " fill="#4D382D" transform="translate(17,34)"/>
<path d="M0 0 C5.41538462 -0.36923077 5.41538462 -0.36923077 8.375 1.5 C8.91125 1.995 9.4475 2.49 10 3 C9.67 3.99 9.34 4.98 9 6 C2.35384615 4.52307692 2.35384615 4.52307692 0.5625 1.875 C0.376875 1.25625 0.19125 0.6375 0 0 Z " fill="#B7A988" transform="translate(44,16)"/>
<path d="M0 0 C-3.625 3 -3.625 3 -7 3 C-7 4.65 -7 6.3 -7 8 C-7.66 8 -8.32 8 -9 8 C-9 7.34 -9 6.68 -9 6 C-9.66 6 -10.32 6 -11 6 C-11.33 5.01 -11.66 4.02 -12 3 C-4.71428571 -0.42857143 -4.71428571 -0.42857143 0 0 Z " fill="#6E624D" transform="translate(63,28)"/>
<path d="M0 0 C0.66 0 1.32 0 2 0 C2 3.63 2 7.26 2 11 C0.68 11 -0.64 11 -2 11 C-1.34 7.37 -0.68 3.74 0 0 Z " fill="#68543B" transform="translate(57,8)"/>
<path d="M0 0 C3.63 0 7.26 0 11 0 C8 3 8 3 5.95703125 3.29296875 C3.97135417 3.1953125 1.98567708 3.09765625 0 3 C0 2.01 0 1.02 0 0 Z " fill="#A09578" transform="translate(16,0)"/>
<path d="M0 0 C2.1519437 3.22791555 2.20086443 4.28400809 2 8 C1.34 8 0.68 8 0 8 C-0.33 8.66 -0.66 9.32 -1 10 C-1.12375 9.030625 -1.2475 8.06125 -1.375 7.0625 C-1.58125 6.051875 -1.7875 5.04125 -2 4 C-2.66 3.67 -3.32 3.34 -4 3 C-4 2.34 -4 1.68 -4 1 C-2.68 0.67 -1.36 0.34 0 0 Z " fill="#382F2D" transform="translate(36,36)"/>
<path d="M0 0 C1.32 0.33 2.64 0.66 4 1 C3.01 2.485 3.01 2.485 2 4 C0.68 4 -0.64 4 -2 4 C-1.04134491 6.33075929 -1.04134491 6.33075929 2 8 C0.35 8 -1.3 8 -3 8 C-3.33 6.35 -3.66 4.7 -4 3 C-3.01 2.67 -2.02 2.34 -1 2 C-0.67 1.34 -0.34 0.68 0 0 Z " fill="#5B574C" transform="translate(14,24)"/>
<path d="M0 0 C-0.6796875 1.953125 -0.6796875 1.953125 -2 4 C-4.3828125 4.609375 -4.3828125 4.609375 -7.125 4.75 C-8.03507812 4.80671875 -8.94515625 4.8634375 -9.8828125 4.921875 C-10.58148437 4.94765625 -11.28015625 4.9734375 -12 5 C-10.71735273 2.43470546 -9.77227651 2.33500137 -7.125 1.375 C-6.42632812 1.11460938 -5.72765625 0.85421875 -5.0078125 0.5859375 C-3 0 -3 0 0 0 Z " fill="#897655" transform="translate(30,2)"/>
<path d="M0 0 C0.99 0.33 1.98 0.66 3 1 C1.625 2.5 1.625 2.5 0 4 C-0.66 4 -1.32 4 -2 4 C-1.42655063 6.86724686 -1.1385485 7.8614515 1 10 C0.01 10.33 -0.98 10.66 -2 11 C-2.66 10.67 -3.32 10.34 -4 10 C-3.51171875 3.9453125 -3.51171875 3.9453125 -3 2 C-2.01 1.34 -1.02 0.68 0 0 Z " fill="#68574A" transform="translate(15,33)"/>
<path d="M0 0 C1.65 0 3.3 0 5 0 C5 1.65 5 3.3 5 5 C6.65 5 8.3 5 10 5 C9.67 5.99 9.34 6.98 9 8 C5.125 7.125 5.125 7.125 4 6 C3.95936168 4.33382885 3.957279 2.66611905 4 1 C3.34 1 2.68 1 2 1 C1.67 1.99 1.34 2.98 1 4 C0.67 2.68 0.34 1.36 0 0 Z " fill="#7F7463" transform="translate(23,17)"/>
<path d="M0 0 C0.66 0 1.32 0 2 0 C5 3.46153846 5 3.46153846 5 6 C2.36 6 -0.28 6 -3 6 C-3 5.34 -3 4.68 -3 4 C-2.34 3.67 -1.68 3.34 -1 3 C-0.67 2.01 -0.34 1.02 0 0 Z " fill="#A98F60" transform="translate(59,52)"/>
<path d="M0 0 C1.35439668 2.70879335 1.06501451 5.00933268 1 8 C1.66 8 2.32 8 3 8 C3 8.66 3 9.32 3 10 C2.38125 9.814375 1.7625 9.62875 1.125 9.4375 C-1.04160178 8.76313824 -1.04160178 8.76313824 -3 10 C-3.36629408 5.72656908 -2.40814077 3.51187196 0 0 Z " fill="#A28A63" transform="translate(53,46)"/>
<path d="M0 0 C1.32 0 2.64 0 4 0 C4 2.97 4 5.94 4 9 C3.01 8.34 2.02 7.68 1 7 C0.3125 3.375 0.3125 3.375 0 0 Z " fill="#2C1B18" transform="translate(20,36)"/>
<path d="M0 0 C1.32 0 2.64 0 4 0 C4 1.98 4 3.96 4 6 C1.03 5.505 1.03 5.505 -2 5 C-1.34 3.35 -0.68 1.7 0 0 Z " fill="#7E6E4C" transform="translate(32,2)"/>
<path d="M0 0 C1.65 0 3.3 0 5 0 C5 1.65 5 3.3 5 5 C3.35 5 1.7 5 0 5 C0 3.35 0 1.7 0 0 Z " fill="#BEBEAF" transform="translate(0,43)"/>
<path d="M0 0 C0 3.3 0 6.6 0 10 C-0.66 10 -1.32 10 -2 10 C-2.33 7.03 -2.66 4.06 -3 1 C-1 0 -1 0 0 0 Z " fill="#615139" transform="translate(53,37)"/>
<path d="M0 0 C1.32 0.33 2.64 0.66 4 1 C4 1.66 4 2.32 4 3 C1.36095629 4.41377341 -1.07120629 5.37240135 -4 6 C-4.33 5.01 -4.66 4.02 -5 3 C-4.360625 2.87625 -3.72125 2.7525 -3.0625 2.625 C-2.0415625 2.315625 -2.0415625 2.315625 -1 2 C-0.67 1.34 -0.34 0.68 0 0 Z " fill="#393B34" transform="translate(17,25)"/>
<path d="M0 0 C0.33 0 0.66 0 1 0 C1.04241723 2.33294775 1.04092937 4.66702567 1 7 C0 8 0 8 -3.0625 8.0625 C-4.031875 8.041875 -5.00125 8.02125 -6 8 C-6 6.35 -6 4.7 -6 3 C-5.67 3.66 -5.34 4.32 -5 5 C-4.34 5 -3.68 5 -3 5 C-3 5.66 -3 6.32 -3 7 C-2.34 7 -1.68 7 -1 7 C-0.67 4.69 -0.34 2.38 0 0 Z " fill="#CCD0C9" transform="translate(6,33)"/>
<path d="M0 0 C0.66 1.32 1.32 2.64 2 4 C2.33 4 2.66 4 3 4 C3.99 4 4.98 4 6 4 C6 4.66 6 5.32 6 6 C5.195625 6.28875 4.39125 6.5775 3.5625 6.875 C0.8673532 7.73262568 0.8673532 7.73262568 0 10 C0 6.7 0 3.4 0 0 Z " fill="#8C8174" transform="translate(8,29)"/>
<path d="M0 0 C0.99 0 1.98 0 3 0 C2.25 6.75 2.25 6.75 0 9 C-1.125 2.25 -1.125 2.25 0 0 Z " fill="#E8E7E1" transform="translate(5,26)"/>
<path d="M0 0 C1.28132813 0.00902344 2.56265625 0.01804687 3.8828125 0.02734375 C4.87023438 0.03894531 5.85765625 0.05054687 6.875 0.0625 C6.875 0.3925 6.875 0.7225 6.875 1.0625 C1.42038831 2.44779821 -3.49218401 3.3021943 -9.125 3.0625 C-9.125 2.4025 -9.125 1.7425 -9.125 1.0625 C-6.12186252 -0.43906874 -3.33432478 -0.03031204 0 0 Z " fill="#635A4D" transform="translate(41.125,24.9375)"/>
<path d="M0 0 C-0.8125 1.9375 -0.8125 1.9375 -2 4 C-2.99 4.33 -3.98 4.66 -5 5 C-5.33 3.35 -5.66 1.7 -6 0 C-3 -1 -3 -1 0 0 Z " fill="#7C7661" transform="translate(17,11)"/>
<path d="M0 0 C0.66 0 1.32 0 2 0 C2 0.66 2 1.32 2 2 C3.65 2.33 5.3 2.66 7 3 C7 3.33 7 3.66 7 4 C4.03 4 1.06 4 -2 4 C-1.34 2.68 -0.68 1.36 0 0 Z " fill="#6C5F44" transform="translate(38,60)"/>
<path d="M0 0 C0.99 0.33 1.98 0.66 3 1 C3 1.66 3 2.32 3 3 C4.32 3.33 5.64 3.66 7 4 C6.67 4.66 6.34 5.32 6 6 C5.01 5.67 4.02 5.34 3 5 C3 5.66 3 6.32 3 7 C2.34 7 1.68 7 1 7 C0.67 4.69 0.34 2.38 0 0 Z " fill="#494442" transform="translate(29,32)"/>
<path d="M0 0 C-0.33 1.98 -0.66 3.96 -1 6 C-1.33 5.01 -1.66 4.02 -2 3 C-4.64 3 -7.28 3 -10 3 C-10 2.67 -10 2.34 -10 2 C-3.375 0 -3.375 0 0 0 Z " fill="#C0C5B9" transform="translate(10,23)"/>
<path d="M0 0 C-0.33 2.31 -0.66 4.62 -1 7 C0.32 7.66 1.64 8.32 3 9 C1.35 8.67 -0.3 8.34 -2 8 C-2.33 5.69 -2.66 3.38 -3 1 C-1 0 -1 0 0 0 Z " fill="#7D7462" transform="translate(12,36)"/>
<path d="M0 0 C0.33 0.66 0.66 1.32 1 2 C1.66 2 2.32 2 3 2 C3 4.97 3 7.94 3 11 C2.34 11 1.68 11 1 11 C0.67 7.37 0.34 3.74 0 0 Z " fill="#40362E" transform="translate(29,37)"/>
<path d="M0 0 C2.31 0 4.62 0 7 0 C7.33 0.66 7.66 1.32 8 2 C7.05125 2.309375 6.1025 2.61875 5.125 2.9375 C2.13919592 3.87394742 2.13919592 3.87394742 0 5 C0 3.35 0 1.7 0 0 Z " fill="#271E19" transform="translate(38,38)"/>
<path d="M0 0 C0.598125 0.20625 1.19625 0.4125 1.8125 0.625 C2.1425 1.945 2.4725 3.265 2.8125 4.625 C0.8125 3.625 -1.1875 2.625 -3.1875 1.625 C-3.5175 2.615 -3.8475 3.605 -4.1875 4.625 C-4.5175 3.635 -4.8475 2.645 -5.1875 1.625 C-2.1875 -0.375 -2.1875 -0.375 0 0 Z " fill="#41413A" transform="translate(37.1875,27.375)"/>
<path d="M0 0 C0.33 0.99 0.66 1.98 1 3 C-0.32 3 -1.64 3 -3 3 C-3.33 4.98 -3.66 6.96 -4 9 C-4.33 9 -4.66 9 -5 9 C-5 6.36 -5 3.72 -5 1 C-2 0 -2 0 0 0 Z " fill="#B6A57D" transform="translate(60,37)"/>
<path d="M0 0 C0.99 0.33 1.98 0.66 3 1 C2.67 2.65 2.34 4.3 2 6 C1.01 6.33 0.02 6.66 -1 7 C-0.67 4.69 -0.34 2.38 0 0 Z " fill="#2E241E" transform="translate(32,39)"/>
<path d="M0 0 C3.3125 -0.25 3.3125 -0.25 7 0 C8.9375 2 8.9375 2 10 4 C8.35 3.67 6.7 3.34 5 3 C5 2.34 5 1.68 5 1 C3.35 1 1.7 1 0 1 C0 0.67 0 0.34 0 0 Z " fill="#C5B796" transform="translate(39,13)"/>
<path d="M0 0 C0.99 0.33 1.98 0.66 3 1 C2.34 2.65 1.68 4.3 1 6 C0.34 6 -0.32 6 -1 6 C-1.042721 4.33388095 -1.04063832 2.66617115 -1 1 C-0.67 0.67 -0.34 0.34 0 0 Z " fill="#CAD3C4" transform="translate(9,8)"/>
<path d="M0 0 C3 3.75 3 3.75 3 6 C1.68 5.67 0.36 5.34 -1 5 C-0.67 3.35 -0.34 1.7 0 0 Z M3 2 C3.99 2.495 3.99 2.495 5 3 C4.01 3.495 4.01 3.495 3 4 C3 3.34 3 2.68 3 2 Z " fill="#C2AD80" transform="translate(54,46)"/>
<path d="M0 0 C0.33 0 0.66 0 1 0 C1 1.98 1 3.96 1 6 C0.34 6 -0.32 6 -1 6 C-0.67 7.32 -0.34 8.64 0 10 C-0.66 10 -1.32 10 -2 10 C-2.33 8.02 -2.66 6.04 -3 4 C-2.01 4 -1.02 4 0 4 C0 2.68 0 1.36 0 0 Z " fill="#786F5D" transform="translate(20,42)"/>
<path d="M0 0 C2.31 0 4.62 0 7 0 C7 1.65 7 3.3 7 5 C6.34 5 5.68 5 5 5 C4.67 3.68 4.34 2.36 4 1 C2.68 0.67 1.36 0.34 0 0 Z " fill="#637667" transform="translate(0,8)"/>
<path d="M0 0 C1.32 0 2.64 0 4 0 C4.625 1.875 4.625 1.875 5 4 C4.34 4.66 3.68 5.32 3 6 C2.01 4.02 1.02 2.04 0 0 Z " fill="#4F6A56" transform="translate(0,9)"/>
</svg>
