<svg xmlns="http://www.w3.org/2000/svg" width="256" height="256" fill="none" xmlns:v="https://vecta.io/nano"><g clip-path="url(#B)"><path d="M128 256c70.692 0 128-57.308 128-128S198.692 0 128 0 0 57.308 0 128s57.308 128 128 128z" fill="url(#A)"/><path d="M128.5 188c2.506 0 4.176-.838 5.847-1.675 1.67-1.675 2.505-3.35 2.505-5.862l1.671-10.051a40.61 40.61 0 0 1-20.046 0l1.671 10.051c0 2.512.835 4.187 2.505 5.862 1.671.837 3.341 1.675 5.847 1.675zm57.631-1.675H202V95.038c0-12.562-5.847-20.937-15.869-24.287v115.575zm-131.131 0h15.869V70.75C60.847 74.1 55 82.475 55 95.038v91.288zm83.523-15.913c10.022-2.512 17.54-10.049 19.21-23.449l10.023-77.05c-11.693 2.513-17.54 11.725-20.046 25.963l-9.187 74.537zm-20.046 0l-9.187-74.537c-1.671-14.237-8.353-23.45-19.211-25.963l10.023 77.051c1.671 13.4 8.353 20.937 18.375 23.449zm67.654-99.662v-6.7c0-6.7-3.341-10.05-8.353-10.05s-8.352 3.35-9.187 9.212l-.835 6.7c5.846-.837 12.528-.837 18.375.838zm-115.262 0c3.341-.838 7.517-1.675 10.858-1.675 2.506 0 5.011 0 8.352.837l-.835-6.7C87.574 56.513 84.233 54 79.222 54s-8.352 3.35-8.352 10.05v6.7z" fill="#2d2d2d"/><path d="M138.523 170.412l-1.671 10.051c0 2.512-.835 4.187-2.505 5.862-1.671.837-3.341 1.675-5.847 1.675s-4.176-.838-5.847-1.675c-1.67-1.675-2.505-3.35-2.505-5.862l-1.671-10.051m20.046 0a40.61 40.61 0 0 1-20.046 0m20.046 0c10.022-2.512 17.54-10.049 19.21-23.449l10.023-77.05m-29.233 100.5l9.187-74.537c2.506-14.237 8.353-23.45 20.046-25.963m-49.279 100.5l-9.187-74.537c-1.671-14.237-8.353-23.45-19.211-25.963m28.398 100.5c-10.022-2.512-16.704-10.049-18.375-23.449L90.08 69.913m96.052.838C196.153 74.1 202 82.475 202 95.038v91.288h-15.869V70.75zm0 0v-6.7c0-6.7-3.341-10.05-8.353-10.05s-8.352 3.35-9.187 9.212l-.835 6.7m18.375.838c-5.847-1.675-12.529-1.675-18.375-.838m-96.887.838v115.575H55V95.038C55 82.475 60.847 74.1 70.869 70.75zm0 0c3.341-.838 7.517-1.675 10.858-1.675 2.506 0 5.011 0 8.352.837m-19.21.838v-6.7c0-6.7 3.341-10.05 8.352-10.05s8.352 2.513 10.023 9.212l.835 6.7" stroke="#fff" stroke-width="7" stroke-miterlimit="5.3333"/></g><defs><linearGradient id="A" x1="128" y1="0" x2="128" y2="256" gradientUnits="userSpaceOnUse"><stop stop-color="#e95223"/><stop offset=".219" stop-color="#a255c7"/><stop offset=".599" stop-color="#7f30ff"/><stop offset="1" stop-color="#1aa2c0"/></linearGradient><clipPath id="B"><path fill="#fff" d="M0 0h256v256H0z"/></clipPath></defs></svg>