<svg xmlns="http://www.w3.org/2000/svg" width="256" height="256" fill="none" xmlns:v="https://vecta.io/nano"><g clip-path="url(#A)"><path d="M128 255c70.14 0 127-56.86 127-127S198.14 1 128 1 1 57.86 1 128s56.86 127 127 127z" fill="#000"/><g fill="#fff"><path d="M52.997 88.768L13.762 69C10.693 74.967 8.08 81.223 6 87.595L47.894 101a83.32 83.32 0 0 1 5.103-12.232zm32.776-34.651L107.089 91c3.113-1.813 6.445-3.207 9.911-4.143l-11.032-41.183a82.05 82.05 0 0 1 8.53-1.839L107.718 1c-6.556 1.045-13.072 2.623-19.369 4.685l13.182 40.57c-4.193 1.374-8.276 3.081-12.208 5.101l-19.376-37.98A127.29 127.29 0 0 0 53 23.858l25.46 35.031c2.345-1.717 4.8-3.304 7.312-4.772zM200.87 84.286L164 105.945c1.816 3.157 3.21 6.542 4.149 10.055l41.18-11.22c.759 2.851 1.385 5.744 1.842 8.653L254 106.538c-1.048-6.653-2.629-13.27-4.697-19.665l-40.564 13.407a86.03 86.03 0 0 0-5.108-12.39l37.967-19.695C238.566 62.22 235.036 56.434 231.11 51l-35.021 25.863a85.13 85.13 0 0 1 4.781 7.422zM186 12.753C180.022 9.687 173.762 7.077 167.392 5L154 46.901c4.19 1.366 8.31 3.082 12.244 5.099L186 12.753zm-16.137 40.022L148 90.409A42.01 42.01 0 0 1 156.682 97L218 35.976c-4.756-4.701-9.923-9.067-15.358-12.976l-25.29 34.593a86.42 86.42 0 0 0-7.489-4.818zM53.764 84.435L91.397 106A41.61 41.61 0 0 1 98 97.442L36.986 37A128.06 128.06 0 0 0 24 52.126l34.589 24.936c-1.732 2.372-3.348 4.831-4.825 7.373zm87.549-41.458l6.586-42.45A129.07 129.07 0 0 0 128.1-1h-.1v86.61h.1c3.645 0 7.251.468 10.72 1.39L150 44.796a84.89 84.89 0 0 0-8.687-1.819zm-53.316 73.258L45.803 105c-.763 2.867-1.367 5.772-1.825 8.707l-42.441-6.621A129.79 129.79 0 0 0 0 127h86.603a41.94 41.94 0 0 1 1.394-10.765zm115.006 48.997l38.4 19.768c3.004-5.967 5.561-12.222 7.597-18.594L207.998 153c-1.341 4.191-3.016 8.307-4.995 12.232zm-32.774 34.652L148.912 163a40.83 40.83 0 0 1-9.912 4.142l11.033 41.185c-2.811.759-5.661 1.385-8.53 1.84L148.279 253c6.558-1.045 13.073-2.623 19.37-4.685l-13.182-40.572a83.91 83.91 0 0 0 12.209-5.1l19.376 37.981c5.893-3.033 11.592-6.557 16.948-10.483l-25.462-35.032c-2.345 1.716-4.796 3.307-7.309 4.775zM55.128 169.226L92 147.9a40.82 40.82 0 0 1-4.149-9.9l-41.178 11.046a82.95 82.95 0 0 1-1.842-8.519L2 147.316a126.22 126.22 0 0 0 4.697 19.364l40.562-13.202a83.87 83.87 0 0 0 5.107 12.2L14.401 185.07c3.033 5.884 6.562 11.58 10.488 16.93l35.02-25.465a83.71 83.71 0 0 1-4.781-7.309zM70 240.412A129.03 129.03 0 0 0 88.608 248L102 206.991A84.8 84.8 0 0 1 89.755 202L70 240.412zm15.449-40.188L107 162.591A41.47 41.47 0 0 1 98.442 156L38 217.023A128.11 128.11 0 0 0 53.138 230l24.929-34.593c2.377 1.732 4.839 3.341 7.383 4.817zm115.789-31.348L163.603 147c-1.81 3.162-4.034 6.083-6.603 8.681L218.013 217c4.706-4.754 9.076-9.916 12.987-15.344l-34.591-25.296a85.66 85.66 0 0 0 4.829-7.484zM117.178 167L106 209.204c2.86.76 5.758 1.361 8.685 1.819l-6.581 42.45A128.96 128.96 0 0 0 127.9 255h.1v-86.61h-.1c-3.644 0-7.253-.468-10.722-1.39zm52.219-40c0 3.66-.471 7.28-1.397 10.764L210.194 149c.764-2.867 1.368-5.772 1.825-8.707l42.445 6.624c1.02-6.546 1.536-13.248 1.536-19.914L169.397 127z"/></g></g><defs><clipPath id="A"><path fill="#fff" d="M0 0h256v256H0z"/></clipPath></defs></svg>