<?xml version="1.0" encoding="UTF-8"?>
<svg version="1.1" xmlns="http://www.w3.org/2000/svg" width="96" height="96">
<path d="M0 0 C1.31653564 0.01135986 1.31653564 0.01135986 2.65966797 0.02294922 C9.45144448 0.1952272 15.06562583 1.23369297 21.125 4.4375 C21.98222656 4.87320312 22.83945313 5.30890625 23.72265625 5.7578125 C36.08766834 12.58374678 43.23004062 22.68856753 47.52075195 36.01293945 C48.54203578 40.11086661 48.61362209 44.10669413 48.5625 48.3125 C48.55492676 49.19019043 48.54735352 50.06788086 48.53955078 50.97216797 C48.3672728 57.76394448 47.32880703 63.37812583 44.125 69.4375 C43.47144531 70.72333984 43.47144531 70.72333984 42.8046875 72.03515625 C35.97875322 84.40016834 25.87393247 91.54254062 12.54956055 95.83325195 C8.45163339 96.85453578 4.45580587 96.92612209 0.25 96.875 C-0.62769043 96.86742676 -1.50538086 96.85985352 -2.40966797 96.85205078 C-9.20144448 96.6797728 -14.81562583 95.64130703 -20.875 92.4375 C-22.16083984 91.78394531 -22.16083984 91.78394531 -23.47265625 91.1171875 C-35.83766834 84.29125322 -42.98004062 74.18643247 -47.27075195 60.86206055 C-48.29203578 56.76413339 -48.36362209 52.76830587 -48.3125 48.5625 C-48.30492676 47.68480957 -48.29735352 46.80711914 -48.28955078 45.90283203 C-48.1172728 39.11105552 -47.07880703 33.49687417 -43.875 27.4375 C-43.43929687 26.58027344 -43.00359375 25.72304688 -42.5546875 24.83984375 C-35.72875322 12.47483166 -25.62393247 5.33245938 -12.29956055 1.04174805 C-8.20163339 0.02046422 -4.20580587 -0.05112209 0 0 Z " fill="#7F4F3C" transform="translate(47.875,-0.4375)"/>
<path d="M0 0 C1.31653564 0.01135986 1.31653564 0.01135986 2.65966797 0.02294922 C9.45144448 0.1952272 15.06562583 1.23369297 21.125 4.4375 C21.98222656 4.87320312 22.83945313 5.30890625 23.72265625 5.7578125 C35.94176286 12.50320167 43.54219196 22.79567411 47.66796875 36.08984375 C48.52932644 40.51442468 48.35127519 44.95389895 48.125 49.4375 C45.4171468 49.68778042 42.71091064 49.91321011 40 50.125 C39.23945312 50.19783203 38.47890625 50.27066406 37.6953125 50.34570312 C32.66659654 50.71418662 29.47972684 50.30556783 25.125 47.4375 C22.70878485 44.28299689 20.78866186 41.04210069 19.125 37.4375 C17.805 37.4375 16.485 37.4375 15.125 37.4375 C13.30859375 35.13671875 13.30859375 35.13671875 11.5625 32.125 C8.8061244 27.41352447 8.8061244 27.41352447 5.125 23.4375 C5.62 21.9525 5.62 21.9525 6.125 20.4375 C7.445 20.4375 8.765 20.4375 10.125 20.4375 C10.125 19.1175 10.125 17.7975 10.125 16.4375 C4.26149244 16.0620865 4.26149244 16.0620865 -0.875 18.4375 C-1.68028889 20.48750871 -1.68028889 20.48750871 -1.875 22.4375 C-2.38546875 22.27378906 -2.8959375 22.11007813 -3.421875 21.94140625 C-6.68791828 21.27051519 -9.7936747 21.3441544 -13.125 21.375 C-15.01992188 21.38853516 -15.01992188 21.38853516 -16.953125 21.40234375 C-17.91734375 21.41394531 -18.8815625 21.42554687 -19.875 21.4375 C-19.875 20.7775 -19.875 20.1175 -19.875 19.4375 C-20.865 19.1075 -21.855 18.7775 -22.875 18.4375 C-24.26171875 16.15234375 -24.26171875 16.15234375 -25.5625 13.375 C-25.99949219 12.45589844 -26.43648437 11.53679688 -26.88671875 10.58984375 C-27.21285156 9.87957031 -27.53898437 9.16929688 -27.875 8.4375 C-26.56870673 7.65619457 -25.25447173 6.88816823 -23.9375 6.125 C-23.20660156 5.69574219 -22.47570312 5.26648438 -21.72265625 4.82421875 C-14.5129277 1.31330841 -8.00762592 -0.09733367 0 0 Z " fill="#5E97DD" transform="translate(47.875,-0.4375)"/>
<path d="M0 0 C6.96890548 0.92110751 10.83910039 5.78639552 15.5625 10.625 C17 13 17 13 16.75 15.34765625 C13.79974098 25.78112435 5.78195972 34.07182946 -3.4375 39.3125 C-11.42931531 43.57073442 -18.83717328 45.54650505 -27.875 45.4375 C-28.75124023 45.43065186 -29.62748047 45.42380371 -30.53027344 45.41674805 C-37.32091644 45.24868152 -42.92968059 44.16531235 -49 41 C-50.20462891 40.4740625 -50.20462891 40.4740625 -51.43359375 39.9375 C-53.70829751 38.80211927 -55.31066793 37.90227309 -57 36 C-57.65410884 32.8916748 -57.49000607 30.12378869 -57 27 C-56.5875 27.45632812 -56.175 27.91265625 -55.75 28.3828125 C-52.39412364 31.89338242 -52.39412364 31.89338242 -47.89453125 33.0234375 C-45.82725596 32.50370975 -43.95301221 31.85098571 -42 31 C-41.21625 30.67 -40.4325 30.34 -39.625 30 C-37.82338935 28.97780303 -37.82338935 28.97780303 -36 27 C-35.67 27.33 -35.34 27.66 -35 28 C-31.37940768 28.29356154 -29.12296038 27.85064319 -26 26 C-25.34 26.66 -24.68 27.32 -24 28 C-19.7311831 28.41988363 -17.17916066 28.61765559 -13.375 26.625 C-10.53266913 23.4834764 -8.56513565 20.14052351 -6.52734375 16.4375 C-4.93428991 13.89513275 -3.22771991 12.00077963 -1 10 C-0.67 10 -0.34 10 0 10 C0.66 13.3 1.32 16.6 2 20 C3.65 19.67 5.3 19.34 7 19 C6.5020163 15.26512223 6.12508244 13.18762365 4 10 C1.44816596 8.79549696 1.44816596 8.79549696 -1 8 C-1.125 2.25 -1.125 2.25 0 0 Z " fill="#B5A794" transform="translate(76,51)"/>
<path d="M0 0 C0.66 1.98 1.32 3.96 2 6 C1.34 6 0.68 6 0 6 C2.0072908 9.0109362 2.83884224 9.63016497 6 11 C4.49103331 15.22510673 1.72689346 16.71822849 -2 19 C-2.99 19.66 -3.98 20.32 -5 21 C-5 20.34 -5 19.68 -5 19 C-6.98 18.67 -8.96 18.34 -11 18 C-11.86476686 20.42134721 -12.1422798 21.60873054 -11.25 24.0625 C-10.09097301 26.0371622 -10.09097301 26.0371622 -8.4375 27.4375 C-6.39398602 29.65871085 -6.19744352 30.97253276 -6 34 C-6.51146894 37.04324017 -7.2136196 40.0169537 -8 43 C-6.7934375 43.185625 -6.7934375 43.185625 -5.5625 43.375 C-4.716875 43.58125 -3.87125 43.7875 -3 44 C-2.67 44.66 -2.34 45.32 -2 46 C-1.01 46 -0.02 46 1 46 C1.66 46.66 2.32 47.32 3 48 C2.71770126 50.61126334 2.164029 52.67067045 0.9921875 55.0234375 C-0.46781851 59.40345552 -0.46930955 63.72287522 -0.625 68.3125 C-0.66367187 69.24384766 -0.70234375 70.17519531 -0.7421875 71.13476562 C-0.83606313 73.42298407 -0.92174509 75.71120295 -1 78 C-10.73948034 69.92760773 -18.93168853 59.84359571 -20.22265625 46.73999023 C-20.6967368 36.64636583 -20.82561704 27.12671049 -16 18 C-15.56429688 17.14277344 -15.12859375 16.28554688 -14.6796875 15.40234375 C-6.1770362 0 -6.1770362 0 0 0 Z " fill="#052645" transform="translate(20,9)"/>
<path d="M0 0 C0.72152182 1.73821167 1.44300032 3.47644136 2.1640625 5.21484375 C3.39043498 7.83377937 4.65307817 9.3050009 7 11 C13.4817598 12.6549174 20.35364346 12.08995069 27 12 C27.2358396 17.77807024 26.86783046 22.51324804 25 28 C22.07975202 25.83067293 19.83937939 23.79819462 17.5625 20.9375 C14.86187099 17.84165699 12.83274385 16.41644881 9 15 C8.01 15.33 7.02 15.66 6 16 C6.10169161 18.94727535 6.10169161 18.94727535 7 22 C9.39068734 23.10636395 9.39068734 23.10636395 12 24 C13.875 26.3125 13.875 26.3125 15 29 C14.6875 31.8125 14.6875 31.8125 14 34 C12.35 34 10.7 34 9 34 C8.01 31.03 7.02 28.06 6 25 C5.01 25.33 4.02 25.66 3 26 C2.7525 26.825 2.505 27.65 2.25 28.5 C0.1460628 34.39102416 -3.79003556 39.52669037 -9 43 C-13.74474045 43.30125336 -16.85765639 43.45472214 -21 41 C-21.99 41 -22.98 41 -24 41 C-23.34 40.34 -22.68 39.68 -22 39 C-22.0928125 37.6078125 -22.0928125 37.6078125 -22.1875 36.1875 C-21.93291243 31.85951129 -20.14223947 30.84993812 -17 28 C-15.0645852 25.60943058 -15.0645852 25.60943058 -14 23 C-14.31802943 21.33034549 -14.64984951 19.66321482 -15 18 C-13.625 16.375 -13.625 16.375 -12 15 C-11.67 14.01 -11.34 13.02 -11 12 C-10.01 12 -9.02 12 -8 12 C-7.90203125 11.22914062 -7.8040625 10.45828125 -7.703125 9.6640625 C-7.55359375 8.66117188 -7.4040625 7.65828125 -7.25 6.625 C-7.11078125 5.62726562 -6.9715625 4.62953125 -6.828125 3.6015625 C-6 1 -6 1 -4.046875 -0.4140625 C-2 -1 -2 -1 0 0 Z " fill="#794E3C" transform="translate(69,37)"/>
<path d="M0 0 C1.30710937 -0.00483398 1.30710937 -0.00483398 2.640625 -0.00976562 C7.10461944 0.02766116 10.69873212 0.21153256 14.75 2.3125 C11.75 4.3125 11.75 4.3125 8.75 4.3125 C10.99179461 9.58510074 12.53662386 12.56861782 17.75 15.3125 C18.41666667 16.64583333 19.08333333 17.97916667 19.75 19.3125 C24.30291766 23.27794441 29.99125608 23.02002439 35.75 23.3125 C35.75 23.9725 35.75 24.6325 35.75 25.3125 C29.6883927 25.75157015 25.63029819 25.70588968 20.5546875 22.26953125 C17.21074743 20.4962297 13.47507575 20.48143768 9.75 20.3125 C9.75 18.9925 9.75 17.6725 9.75 16.3125 C3.88649244 15.9370865 3.88649244 15.9370865 -1.25 18.3125 C-2.05528889 20.36250871 -2.05528889 20.36250871 -2.25 22.3125 C-2.76046875 22.14878906 -3.2709375 21.98507813 -3.796875 21.81640625 C-7.06291828 21.14551519 -10.1686747 21.2191544 -13.5 21.25 C-15.39492188 21.26353516 -15.39492188 21.26353516 -17.328125 21.27734375 C-18.29234375 21.28894531 -19.2565625 21.30054687 -20.25 21.3125 C-20.25 20.6525 -20.25 19.9925 -20.25 19.3125 C-21.24 18.9825 -22.23 18.6525 -23.25 18.3125 C-24.63671875 16.02734375 -24.63671875 16.02734375 -25.9375 13.25 C-26.37449219 12.33089844 -26.81148437 11.41179688 -27.26171875 10.46484375 C-27.58785156 9.75457031 -27.91398437 9.04429688 -28.25 8.3125 C-26.94370673 7.53119457 -25.62947173 6.76316823 -24.3125 6 C-23.58160156 5.57074219 -22.85070312 5.14148438 -22.09765625 4.69921875 C-14.69771613 1.09568138 -8.20960005 -0.15454819 0 0 Z " fill="#6B97CF" transform="translate(48.25,-0.3125)"/>
<path d="M0 0 C2.97808457 2.55264392 4.26590786 5.53181572 6 9 C6.66 9.33 7.32 9.66 8 10 C8 10.66 8 11.32 8 12 C8.66 11.67 9.32 11.34 10 11 C11.95637514 10.9030368 13.91622931 10.87021083 15.875 10.875 C17.44894531 10.87113281 17.44894531 10.87113281 19.0546875 10.8671875 C21.55676685 10.98001336 23.61756923 11.27491238 26 12 C26.33 11.01 26.66 10.02 27 9 C28.625 7.25 28.625 7.25 31 6 C34.75 6.3125 34.75 6.3125 38 7 C38 7.99 38 8.98 38 10 C35.69 10 33.38 10 31 10 C30.896875 10.99 30.79375 11.98 30.6875 13 C30.09191294 17.28297163 28.61404973 20.99996371 27 25 C26.34 24.34 25.68 23.68 25 23 C24.34 23.66 23.68 24.32 23 25 C20.63504925 25.36428337 18.25656874 25.64299827 15.875 25.875 C9.77088641 26.55558028 3.56163223 27.43836777 -1 32 C-0.34 32.33 0.32 32.66 1 33 C1 33.66 1 34.32 1 35 C-0.97746603 35.73080266 -2.98072489 36.39421747 -5 37 C-5.66 36.67 -6.32 36.34 -7 36 C-7.4140625 33.93359375 -7.4140625 33.93359375 -7.625 31.4375 C-7.69976563 30.61121094 -7.77453125 29.78492187 -7.8515625 28.93359375 C-7.92503906 27.97646484 -7.92503906 27.97646484 -8 27 C-8.99 26.67 -9.98 26.34 -11 26 C-12.60769874 23.66883683 -13.09530596 22.57183574 -12.625 19.75 C-12.41875 19.1725 -12.2125 18.595 -12 18 C-10.25 17.3125 -10.25 17.3125 -8 17 C-5.75 18.4375 -5.75 18.4375 -4 20 C-3.071875 19.21625 -2.14375 18.4325 -1.1875 17.625 C0.83035727 15.92103164 2.78775545 14.4748297 5 13 C5 12.34 5 11.68 5 11 C4.175 10.54625 3.35 10.0925 2.5 9.625 C1.675 9.08875 0.85 8.5525 0 8 C0 5.33333333 0 2.66666667 0 0 Z " fill="#794D39" transform="translate(20,9)"/>
<path d="M0 0 C5.66157197 3.48602086 11.95820073 7.8746022 14.125 14.375 C9.3381581 17.18417952 4.5283569 17.01528218 -0.875 16.375 C-3.57482926 15.35994791 -4.72112006 14.41551784 -6.875 12.375 C-7.22669068 11.04639075 -7.56270276 9.71341672 -7.875 8.375 C-9.0196875 7.941875 -9.0196875 7.941875 -10.1875 7.5 C-13.87091962 5.95810341 -14.97997057 3.81412749 -16.875 0.375 C-16.875 -0.615 -16.875 -1.605 -16.875 -2.625 C-9.96639324 -5.58583147 -6.21686716 -3.47916419 0 0 Z " fill="#B1BCCD" transform="translate(73.875,6.625)"/>
<path d="M0 0 C0.69937532 1.31647119 1.36729133 2.65022151 2 4 C2.99 4.33 3.98 4.66 5 5 C4.67 6.65 4.34 8.3 4 10 C2.02 10 0.04 10 -2 10 C-3.04449911 13.13349732 -2.93423645 13.98968256 -2 17 C-7.75 19 -7.75 19 -10 19 C-10 18.34 -10 17.68 -10 17 C-10.99 16.67 -11.98 16.34 -13 16 C-14.38671875 13.71484375 -14.38671875 13.71484375 -15.6875 10.9375 C-16.12449219 10.01839844 -16.56148437 9.09929688 -17.01171875 8.15234375 C-17.33785156 7.44207031 -17.66398437 6.73179688 -18 6 C-4.05718768 -1.95864233 -4.05718768 -1.95864233 0 0 Z " fill="#679DD6" transform="translate(38,2)"/>
<path d="M0 0 C0 0.99 0 1.98 0 3 C-2.31 3 -4.62 3 -7 3 C-7.103125 3.99 -7.20625 4.98 -7.3125 6 C-7.90808706 10.28297163 -9.38595027 13.99996371 -11 18 C-11.66 17.34 -12.32 16.68 -13 16 C-13.66 16.66 -14.32 17.32 -15 18 C-18 18.25 -18 18.25 -21 18 C-23 16 -23 16 -23.125 13.375 C-23.08375 12.59125 -23.0425 11.8075 -23 11 C-27.05819183 11.65503282 -30.53971282 12.94559121 -34.3125 14.5625 C-35.91544922 15.24505859 -35.91544922 15.24505859 -37.55078125 15.94140625 C-38.35902344 16.29074219 -39.16726562 16.64007813 -40 17 C-39.6875 14.625 -39.6875 14.625 -39 12 C-36 10 -36 10 -33 10 C-31.9790625 9.505 -31.9790625 9.505 -30.9375 9 C-26.64721349 7.53947693 -22.49124612 7.84302441 -18 8 C-18 7.34 -18 6.68 -18 6 C-16.02 5.67 -14.04 5.34 -12 5 C-11.67 4.01 -11.34 3.02 -11 2 C-7.52003694 -1.74765253 -4.7564304 -1.00616797 0 0 Z " fill="#6D4536" transform="translate(58,16)"/>
<path d="M0 0 C3.51716303 0 4.37121748 0.82445585 7 3 C6.56618353 5.53059605 6.13885557 7.71794962 5 10.03125 C3.52622256 14.40652678 3.53066721 18.72356033 3.375 23.3125 C3.31699219 24.70952148 3.31699219 24.70952148 3.2578125 26.13476562 C3.16393687 28.42298407 3.07825491 30.71120295 3 33 C1.89183434 32.0735288 0.78702572 31.14304151 -0.31640625 30.2109375 C-0.93201416 29.69321777 -1.54762207 29.17549805 -2.18188477 28.64208984 C-4.76746936 26.30683511 -6.84955686 23.73692763 -9 21 C-8.67 20.34 -8.34 19.68 -8 19 C-6.68 19.66 -5.36 20.32 -4 21 C-4 20.01 -4 19.02 -4 18 C-4.66 17.67 -5.32 17.34 -6 17 C-5.01 17 -4.02 17 -3 17 C-3.0721875 16.38511719 -3.144375 15.77023438 -3.21875 15.13671875 C-3.3115625 14.32847656 -3.404375 13.52023438 -3.5 12.6875 C-3.5928125 11.88699219 -3.685625 11.08648437 -3.78125 10.26171875 C-4 8 -4 8 -4 5 C-3.34 5 -2.68 5 -2 5 C-1.34 3.35 -0.68 1.7 0 0 Z " fill="#08466C" transform="translate(16,54)"/>
<path d="M0 0 C0.66 1.98 1.32 3.96 2 6 C1.34 6 0.68 6 0 6 C2.0072908 9.0109362 2.83884224 9.63016497 6 11 C4.49103331 15.22510673 1.72689346 16.71822849 -2 19 C-2.99 19.66 -3.98 20.32 -5 21 C-5 20.34 -5 19.68 -5 19 C-6.98 18.67 -8.96 18.34 -11 18 C-11.98120464 21.05263664 -11.98120464 22.94736336 -11 26 C-13.5625 23.8125 -13.5625 23.8125 -16 21 C-15.38987601 13.01646266 -8.93335429 6.59596676 -3.515625 1.21484375 C-2 0 -2 0 0 0 Z " fill="#082337" transform="translate(20,9)"/>
<path d="M0 0 C-0.61277612 2.96175123 -1.25372522 4.38058783 -3 7 C-3.66 7 -4.32 7 -5 7 C-5 7.99 -5 8.98 -5 10 C-6.94415395 11.94415395 -8.66013049 13.55478648 -11 15 C-13.25 14.6875 -13.25 14.6875 -15 14 C-14.01 15.485 -14.01 15.485 -13 17 C-13.99 17.33 -14.98 17.66 -16 18 C-16.28875 18.639375 -16.5775 19.27875 -16.875 19.9375 C-18.39098648 22.71680854 -20.05867273 23.07115981 -23 24 C-22.88490339 22.58249437 -22.75746342 21.16598831 -22.625 19.75 C-22.55539063 18.96109375 -22.48578125 18.1721875 -22.4140625 17.359375 C-21.98424078 14.9102022 -21.11834961 13.1994209 -20 11 C-20.29805007 8.80252869 -20.29805007 8.80252869 -21 7 C-21.99 7 -22.98 7 -24 7 C-24.33 6.01 -24.66 5.02 -25 4 C-25.99 3.67 -26.98 3.34 -28 3 C-19.80743982 3.35010941 -19.80743982 3.35010941 -16.4375 6.0625 C-15.963125 6.701875 -15.48875 7.34125 -15 8 C-13.68 6.02 -12.36 4.04 -11 2 C-10.34 2.33 -9.68 2.66 -9 3 C-8.01 2.34 -7.02 1.68 -6 1 C-3 0 -3 0 0 0 Z " fill="#98443C" transform="translate(42,49)"/>
<path d="M0 0 C2.31 0 4.62 0 7 0 C5.02 0.99 5.02 0.99 3 2 C4.43164697 5.02848397 6.10810554 7.73783409 8 10.5 C13.06846118 17.89995332 13.06846118 17.89995332 12.828125 21.76171875 C12.54195312 23.20998047 12.54195312 23.20998047 12.25 24.6875 C11.97929688 26.14736328 11.97929688 26.14736328 11.703125 27.63671875 C11.47109375 28.41660156 11.2390625 29.19648437 11 30 C10.34 30.33 9.68 30.66 9 31 C8.34 30.67 7.68 30.34 7 30 C6.95875 30.556875 6.9175 31.11375 6.875 31.6875 C4.78671292 37.20654443 -1.95511176 40.47755588 -7 43 C-7.66 42.67 -8.32 42.34 -9 42 C-8.34 41.01 -7.68 40.02 -7 39 C-8.65 40.32 -10.3 41.64 -12 43 C-12.66 42.67 -13.32 42.34 -14 42 C-13.21625 41.175 -12.4325 40.35 -11.625 39.5 C-8.58836 35.90420533 -7.86809043 32.57720406 -7 28 C-6.34 28 -5.68 28 -5 28 C-5.33 30.64 -5.66 33.28 -6 36 C-2.67187429 35.42618522 -1.30157545 34.40619252 1 32 C1.66 32 2.32 32 3 32 C5.70844881 26.26709085 5.70844881 26.26709085 6 20 C6.66 20 7.32 20 8 20 C6.23974608 11.96773123 6.23974608 11.96773123 1 6 C0.01 6 -0.98 6 -2 6 C-1.34 4.02 -0.68 2.04 0 0 Z " fill="#805D54" transform="translate(51,19)"/>
<path d="M0 0 C6.96890548 0.92110751 10.83910039 5.78639552 15.5625 10.625 C17 13 17 13 16.78125 15.31640625 C15.89822701 18.34959022 14.6129928 20.63884128 12.9375 23.3125 C12.38964844 24.19550781 11.84179688 25.07851562 11.27734375 25.98828125 C10.85582031 26.65214844 10.43429688 27.31601563 10 28 C7.36619645 24.04929467 7.19983282 20.45592487 6.5625 15.8125 C6.14731391 12.80849191 6.14731391 12.80849191 4 10 C1.44816596 8.79549696 1.44816596 8.79549696 -1 8 C-1.125 2.25 -1.125 2.25 0 0 Z " fill="#BAB1A2" transform="translate(76,51)"/>
<path d="M0 0 C0.6084375 0.12117188 1.216875 0.24234375 1.84375 0.3671875 C10.18747645 1.96231167 18.56846838 3.00556591 27 4 C27 6.31 27 8.62 27 11 C24.2921468 11.25028042 21.58591064 11.47571011 18.875 11.6875 C17.73417969 11.79674805 17.73417969 11.79674805 16.5703125 11.90820312 C11.54013121 12.276794 8.35630773 11.86702783 4 9 C0 3.94736842 0 3.94736842 0 0 Z " fill="#8EC4D8" transform="translate(69,38)"/>
<path d="M0 0 C3.22909006 -0.05834353 6.45804338 -0.09371115 9.6875 -0.125 C10.59951172 -0.14175781 11.51152344 -0.15851562 12.45117188 -0.17578125 C17.06848227 -0.20936169 20.81932331 -0.23556185 25 2 C24.01 2.66 23.02 3.32 22 4 C21.319375 4.515625 20.63875 5.03125 19.9375 5.5625 C15.74883494 7.61227226 11.61014799 7.74039943 7 8 C6.67 7.34 6.34 6.68 6 6 C5.01 5.67 4.02 5.34 3 5 C3 4.34 3 3.68 3 3 C1.68 2.67 0.36 2.34 -1 2 C-0.67 1.34 -0.34 0.68 0 0 Z " fill="#235B33" transform="translate(38,0)"/>
<path d="M0 0 C3.1059009 2.77012783 4.2388064 5.16558643 4.875 9.1875 C4.91625 10.445625 4.9575 11.70375 5 13 C4.34 13.66 3.68 14.32 3 15 C1.1875 15 1.1875 15 -1 14 C-5.28090191 9.41331938 -8 6.31331464 -8 0 C-4.99733781 -1.5013311 -3.18669322 -0.8922741 0 0 Z " fill="#85543E" transform="translate(34,67)"/>
<path d="M0 0 C1.07765625 0.00902344 2.1553125 0.01804688 3.265625 0.02734375 C4.08546875 0.03894531 4.9053125 0.05054688 5.75 0.0625 C5.94392201 5.58927733 5.4979503 9.81864911 3.75 15.0625 C-0.20980925 12.12092741 -3.14606102 8.88273259 -6.25 5.0625 C-7.56543863 3.71150897 -8.89175118 2.37044331 -10.25 1.0625 C-6.78777385 -0.00473961 -3.60960734 -0.03923486 0 0 Z " fill="#04273E" transform="translate(90.25,49.9375)"/>
<path d="M0 0 C0.80695313 0.32742187 1.61390625 0.65484375 2.4453125 0.9921875 C6.71958047 2.20401292 10.46608628 2.22214556 14.875 2.125 C15.65875 2.11597656 16.4425 2.10695312 17.25 2.09765625 C19.16680055 2.07428063 21.08344191 2.03841653 23 2 C23 2.33 23 2.66 23 3 C21.84371094 3.09087891 21.84371094 3.09087891 20.6640625 3.18359375 C19.66117188 3.26738281 18.65828125 3.35117187 17.625 3.4375 C16.12839844 3.55931641 16.12839844 3.55931641 14.6015625 3.68359375 C12.02072387 3.84965626 12.02072387 3.84965626 10 5 C8.33333333 5 6.66666667 5 5 5 C4.01 5.33 3.02 5.66 2 6 C2.10169161 8.94727535 2.10169161 8.94727535 3 12 C5.39068734 13.10636395 5.39068734 13.10636395 8 14 C9.875 16.3125 9.875 16.3125 11 19 C10.6875 21.8125 10.6875 21.8125 10 24 C8.35 24 6.7 24 5 24 C4.01 21.03 3.02 18.06 2 15 C1.01 15 0.02 15 -1 15 C-0.67 14.01 -0.34 13.02 0 12 C0.068991 9.93854893 0.08467727 7.87498599 0.0625 5.8125 C0.05347656 4.72582031 0.04445313 3.63914063 0.03515625 2.51953125 C0.02355469 1.68808594 0.01195313 0.85664062 0 0 Z " fill="#838E8C" transform="translate(73,47)"/>
<path d="M0 0 C0.763125 0.061875 1.52625 0.12375 2.3125 0.1875 C2.3125 1.5075 2.3125 2.8275 2.3125 4.1875 C1.1059375 4.496875 1.1059375 4.496875 -0.125 4.8125 C-0.970625 5.26625 -1.81625 5.72 -2.6875 6.1875 C-3.58580839 9.24022465 -3.58580839 9.24022465 -3.6875 12.1875 C-12.25892857 11.1875 -12.25892857 11.1875 -15.6875 10.1875 C-15.8125 7.8125 -15.8125 7.8125 -15.6875 5.1875 C-15.0275 4.5275 -14.3675 3.8675 -13.6875 3.1875 C-11.65084496 3.21982786 -9.61408515 3.25415567 -7.578125 3.31640625 C-4.06664218 3.07698697 -3.66561649 0.25574069 0 0 Z " fill="#28635C" transform="translate(87.6875,28.8125)"/>
<path d="M0 0 C0.66 0.99 1.32 1.98 2 3 C0.35 4.98 -1.3 6.96 -3 9 C-1.35 7.68 0.3 6.36 2 5 C2.66 5.33 3.32 5.66 4 6 C4 8 4 8 2.6875 9.5 C1 11 1 11 -2 13 C-1.67 17.29 -1.34 21.58 -1 26 C-1.66 26.33 -2.32 26.66 -3 27 C-3.103125 25.906875 -3.20625 24.81375 -3.3125 23.6875 C-3.99727202 20.01463192 -4.27919304 19.24762314 -7 17 C-7 16.34 -7 15.68 -7 15 C-7.763125 14.87625 -8.52625 14.7525 -9.3125 14.625 C-12 14 -12 14 -15 12 C-15.1875 9.375 -15.1875 9.375 -15 7 C-14.34 8.32 -13.68 9.64 -13 11 C-11.35 10.67 -9.7 10.34 -8 10 C-8 9.34 -8 8.68 -8 8 C-6.68 7.67 -5.36 7.34 -4 7 C-4 6.01 -4 5.02 -4 4 C-2 1.8125 -2 1.8125 0 0 Z " fill="#7A402C" transform="translate(41,52)"/>
<path d="M0 0 C3.7952131 1.49097658 5.61042731 3.75700849 8 7 C3.96896326 10.58420012 0.78701888 10.48940831 -4.42578125 10.37109375 C-7 10 -7 10 -9.6875 8 C-10.120625 7.34 -10.55375 6.68 -11 6 C-7.74914905 3.95660798 -4.57394968 2.38986932 -1 1 C-0.67 0.67 -0.34 0.34 0 0 Z " fill="#BDBEBD" transform="translate(80,13)"/>
<path d="M0 0 C2.97808457 2.55264392 4.26590786 5.53181572 6 9 C6.66 9.33 7.32 9.66 8 10 C8 10.66 8 11.32 8 12 C8.66 11.67 9.32 11.34 10 11 C12.04055005 10.92934383 14.08334257 10.91578024 16.125 10.9375 C17.22070312 10.94652344 18.31640625 10.95554687 19.4453125 10.96484375 C20.28835937 10.97644531 21.13140625 10.98804688 22 11 C22.33 11.66 22.66 12.32 23 13 C22.01 13 21.02 13 20 13 C20 13.66 20 14.32 20 15 C19.11957031 15.12117188 18.23914063 15.24234375 17.33203125 15.3671875 C16.17058594 15.53476562 15.00914063 15.70234375 13.8125 15.875 C12.08966797 16.11863281 12.08966797 16.11863281 10.33203125 16.3671875 C7.31275375 16.94060245 4.79424152 17.74759043 2 19 C2.309375 18.236875 2.61875 17.47375 2.9375 16.6875 C3.67893593 14.81210323 4.36228217 12.91315348 5 11 C4.175 10.5875 3.35 10.175 2.5 9.75 C1.675 9.1725 0.85 8.595 0 8 C0 5.33333333 0 2.66666667 0 0 Z " fill="#4D362B" transform="translate(20,9)"/>
<path d="M0 0 C0.78921719 1.70997057 1.56985438 3.42570514 2.265625 5.17578125 C3.0209408 7.13188762 3.0209408 7.13188762 4.25 9.4375 C5.34861531 13.19110232 4.65092628 16.15953495 4 20 C3.67 20 3.34 20 3 20 C2.67 17.69 2.34 15.38 2 13 C1.2575 12.855625 0.515 12.71125 -0.25 12.5625 C-2.52085106 12.09800774 -4.75460033 11.57094564 -7 11 C-6.93999894 9.3739713 -6.8512115 7.74898451 -6.75 6.125 C-6.70359375 5.22007813 -6.6571875 4.31515625 -6.609375 3.3828125 C-6 1 -6 1 -4.078125 -0.3828125 C-2 -1 -2 -1 0 0 Z " fill="#5C3C31" transform="translate(69,37)"/>
<path d="M0 0 C-0.61277612 2.96175123 -1.25372522 4.38058783 -3 7 C-3.66 7 -4.32 7 -5 7 C-5 7.99 -5 8.98 -5 10 C-6.94415395 11.94415395 -8.66013049 13.55478648 -11 15 C-13.25 14.6875 -13.25 14.6875 -15 14 C-14.67 12.68 -14.34 11.36 -14 10 C-13.67 10.33 -13.34 10.66 -13 11 C-13 8.69 -13 6.38 -13 4 C-11.68 3.34 -10.36 2.68 -9 2 C-8.67 2.33 -8.34 2.66 -8 3 C-7.236875 2.505 -6.47375 2.01 -5.6875 1.5 C-3 0 -3 0 0 0 Z " fill="#D3605E" transform="translate(42,49)"/>
<path d="M0 0 C0.66 0.33 1.32 0.66 2 1 C-0.66666667 3.66666667 -3.33333333 6.33333333 -6 9 C-6.66 8.67 -7.32 8.34 -8 8 C-8 8.66 -8 9.32 -8 10 C-7.34 10.33 -6.68 10.66 -6 11 C-6.020625 11.94875 -6.04125 12.8975 -6.0625 13.875 C-6.22551826 16.90666283 -6.22551826 16.90666283 -5 19 C-5.99 19 -6.98 19 -8 19 C-8.268125 17.865625 -8.53625 16.73125 -8.8125 15.5625 C-9.4003125 13.7990625 -9.4003125 13.7990625 -10 12 C-10.99 11.67 -11.98 11.34 -13 11 C-14.60769874 8.66883683 -15.09530596 7.57183574 -14.625 4.75 C-14.41875 4.1725 -14.2125 3.595 -14 3 C-12.25 2.3125 -12.25 2.3125 -10 2 C-7.75 3.4375 -7.75 3.4375 -6 5 C-4.02 3.35 -2.04 1.7 0 0 Z " fill="#774947" transform="translate(22,24)"/>
<path d="M0 0 C7.59 0.33 15.18 0.66 23 1 C23 2.32 23 3.64 23 5 C20.2921468 5.25028042 17.58591064 5.47571011 14.875 5.6875 C13.73417969 5.79674805 13.73417969 5.79674805 12.5703125 5.90820312 C7.51769155 6.27843828 4.44071142 5.75948362 0 3 C0 2.01 0 1.02 0 0 Z " fill="#CBE2E9" transform="translate(73,44)"/>
<path d="M0 0 C0.4125 0.721875 0.825 1.44375 1.25 2.1875 C2.83100886 4.72840709 3.91056879 5.88738497 6.1875 7.6875 C7.5796875 8.8321875 7.5796875 8.8321875 9 10 C9 10.66 9 11.32 9 12 C9.66 12.33 10.32 12.66 11 13 C5.25 15 5.25 15 3 15 C3 14.34 3 13.68 3 13 C2.01 12.67 1.02 12.34 0 12 C-1.38671875 9.71484375 -1.38671875 9.71484375 -2.6875 6.9375 C-3.12449219 6.01839844 -3.56148437 5.09929688 -4.01171875 4.15234375 C-4.50091797 3.08693359 -4.50091797 3.08693359 -5 2 C-2 0 -2 0 0 0 Z " fill="#C7DDE5" transform="translate(25,6)"/>
<path d="M0 0 C0.66 0 1.32 0 2 0 C2 0.66 2 1.32 2 2 C3.32 2.33 4.64 2.66 6 3 C6 3.99 6 4.98 6 6 C7.65 6.33 9.3 6.66 11 7 C10.67 8.32 10.34 9.64 10 11 C8.68 11 7.36 11 6 11 C6.33 11.99 6.66 12.98 7 14 C3.7 14 0.4 14 -3 14 C-3.66 12.68 -4.32 11.36 -5 10 C-2.36 9.34 0.28 8.68 3 8 C3.44290923 4.12197305 3.44290923 4.12197305 1.5 2.3125 C1.005 1.879375 0.51 1.44625 0 1 C0 0.67 0 0.34 0 0 Z " fill="#5F98D7" transform="translate(39,3)"/>
<path d="M0 0 C0.48210938 0.433125 0.96421875 0.86625 1.4609375 1.3125 C2.09257812 1.869375 2.72421875 2.42625 3.375 3 C4.00148438 3.556875 4.62796875 4.11375 5.2734375 4.6875 C6.90389833 6.20172487 6.90389833 6.20172487 9 6 C9.33 7.65 9.66 9.3 10 11 C10.99 11.33 11.98 11.66 13 12 C13 11.01 13 10.02 13 9 C13.886875 9.165 14.77375 9.33 15.6875 9.5 C18.53596892 9.92995757 21.13004802 10.08441035 24 10 C20.27844229 12.11200529 17.12952702 12.38104569 12.92578125 12.65625 C11.97251953 12.82640625 11.97251953 12.82640625 11 13 C10.67 13.66 10.34 14.32 10 15 C8.51969728 14.18957164 7.04078858 13.37659652 5.5625 12.5625 C4.73878906 12.11003906 3.91507813 11.65757813 3.06640625 11.19140625 C1 10 1 10 0 9 C-0.07179964 7.48071962 -0.08392007 5.95832518 -0.0625 4.4375 C-0.05347656 3.61121094 -0.04445313 2.78492187 -0.03515625 1.93359375 C-0.02355469 1.29550781 -0.01195313 0.65742187 0 0 Z " fill="#C5BFB8" transform="translate(19,78)"/>
<path d="M0 0 C0.5625 1.9375 0.5625 1.9375 1 4 C0.67 4.33 0.34 4.66 0 5 C0.825 5.37125 1.65 5.7425 2.5 6.125 C3.325 6.74375 4.15 7.3625 5 8 C5.3125 11.1875 5.3125 11.1875 5 14 C0.54090909 15.23863636 0.54090909 15.23863636 -2.125 14.0625 C-2.74375 13.711875 -3.3625 13.36125 -4 13 C-4.99 13 -5.98 13 -7 13 C-6.34 12.34 -5.68 11.68 -5 11 C-5.0928125 9.6078125 -5.0928125 9.6078125 -5.1875 8.1875 C-5 5 -5 5 -2.5 2.125 C-1.2625 1.073125 -1.2625 1.073125 0 0 Z " fill="#8B3D34" transform="translate(52,65)"/>
<path d="M0 0 C0.99 0.33 1.98 0.66 3 1 C3.33 3.64 3.66 6.28 4 9 C2.37509046 9.02698189 0.75005367 9.04638757 -0.875 9.0625 C-2.23238281 9.07990234 -2.23238281 9.07990234 -3.6171875 9.09765625 C-6 9 -6 9 -8 8 C-8 6.02 -8 4.04 -8 2 C-6.35 1.67 -4.7 1.34 -3 1 C-3 2.32 -3 3.64 -3 5 C-2.01 3.35 -1.02 1.7 0 0 Z " fill="#5E99D6" transform="translate(92,33)"/>
<path d="M0 0 C9.61498439 5.22996878 9.61498439 5.22996878 11 8 C10.08476563 7.9278125 9.16953125 7.855625 8.2265625 7.78125 C6.44378906 7.64203125 6.44378906 7.64203125 4.625 7.5 C3.44164063 7.4071875 2.25828125 7.314375 1.0390625 7.21875 C-0.63786843 7.09804546 -2.31873056 7 -4 7 C-7 3.53846154 -7 3.53846154 -7 1 C-7.66 1 -8.32 1 -9 1 C-9 0.34 -9 -0.32 -9 -1 C-5.03013841 -2.3232872 -3.86802913 -1.61753946 0 0 Z " fill="#6097D6" transform="translate(69,4)"/>
<path d="M0 0 C6.96890548 0.92110751 10.83910039 5.78639552 15.5625 10.625 C17 13 17 13 16.8125 15.6875 C16 18 16 18 15 20 C14.34 20 13.68 20 13 20 C12.62875 18.845 12.2575 17.69 11.875 16.5 C10.0130444 11.50211919 6.93502695 5.46751348 2 3 C2 2.34 2 1.68 2 1 C1.34 0.67 0.68 0.34 0 0 Z " fill="#B1BCC0" transform="translate(76,51)"/>
<path d="M0 0 C0.33 1.65 0.66 3.3 1 5 C0.67 4.01 0.34 3.02 0 2 C-5.86350756 1.6245865 -5.86350756 1.6245865 -11 4 C-11.33 5.32 -11.66 6.64 -12 8 C-15.63 7.34 -19.26 6.68 -23 6 C-23.33 5.01 -23.66 4.02 -24 3 C-18.555 2.505 -18.555 2.505 -13 2 C-13 1.34 -13 0.68 -13 0 C-8.37078475 -1.0161692 -4.65537393 -0.83796731 0 0 Z " fill="#7584A2" transform="translate(58,14)"/>
<path d="M0 0 C2.46041002 1.14819134 2.74814915 2.47105153 3.875 4.875 C4.865 5.205 5.855 5.535 6.875 5.875 C6.875 6.865 6.875 7.855 6.875 8.875 C-1.15641361 9.18390052 -1.15641361 9.18390052 -4.125 6.875 C-5.375 4.25 -5.375 4.25 -6.125 1.875 C-3.9269253 0.54045464 -2.59886397 -0.15287435 0 0 Z " fill="#B3BDC5" transform="translate(36.125,1.125)"/>
<path d="M0 0 C0.66 0 1.32 0 2 0 C1.67 2.64 1.34 5.28 1 8 C4.26954202 7.43628586 5.82575883 6.50037734 8 4 C7.67 5.32 7.34 6.64 7 8 C8.32 7.34 9.64 6.68 11 6 C9.56284053 9.64757321 7.92288356 10.97325575 4.5 12.8125 C3.7059375 13.25207031 2.911875 13.69164062 2.09375 14.14453125 C1.05734375 14.56798828 1.05734375 14.56798828 0 15 C-0.66 14.67 -1.32 14.34 -2 14 C-1.34 13.01 -0.68 12.02 0 11 C-1.65 12.32 -3.3 13.64 -5 15 C-5.66 14.67 -6.32 14.34 -7 14 C-6.21625 13.175 -5.4325 12.35 -4.625 11.5 C-1.58836 7.90420533 -0.86809043 4.57720406 0 0 Z " fill="#B16D5E" transform="translate(44,47)"/>
<path d="M0 0 C1.17949219 0.01804688 2.35898437 0.03609375 3.57421875 0.0546875 C4.92966797 0.08949219 4.92966797 0.08949219 6.3125 0.125 C4.3325 3.095 4.3325 3.095 2.3125 6.125 C1.6525 5.135 0.9925 4.145 0.3125 3.125 C-0.6775 5.105 -1.6675 7.085 -2.6875 9.125 C-4.3949998 7.84437515 -6.06123596 6.50732443 -7.6875 5.125 C-7.6875 4.465 -7.6875 3.805 -7.6875 3.125 C-8.3475 2.795 -9.0075 2.465 -9.6875 2.125 C-6.05554504 -0.29630331 -4.30400652 -0.08522785 0 0 Z " fill="#702113" transform="translate(30.6875,48.875)"/>
<path d="M0 0 C2.75731275 0.08109743 4.50043617 0.54789473 6.5625 2.4140625 C11.15282958 7.62408657 14.51611631 12.90303917 15 20 C14.34 20.66 13.68 21.32 13 22 C12.5875 20.845 12.175 19.69 11.75 18.5 C8.90675936 11.04145246 7.01900071 6.14759133 0 2 C0 1.34 0 0.68 0 0 Z " fill="#F2ECE2" transform="translate(75,53)"/>
<path d="M0 0 C1.4731994 2.74997221 2.22404875 4.89619499 3 8 C-0.3 8.33 -3.6 8.66 -7 9 C-6.67 7.68 -6.34 6.36 -6 5 C-7.65 4.67 -9.3 4.34 -11 4 C-11 3.67 -11 3.34 -11 3 C-10.28972656 2.86722656 -9.57945313 2.73445312 -8.84765625 2.59765625 C-7.92855469 2.42105469 -7.00945313 2.24445312 -6.0625 2.0625 C-4.68771484 1.80146484 -4.68771484 1.80146484 -3.28515625 1.53515625 C-1.04710156 1.22285012 -1.04710156 1.22285012 0 0 Z " fill="#6296D3" transform="translate(56,5)"/>
<path d="M0 0 C2.81487005 0.62552668 4.53959235 1.34542683 6.22265625 3.73828125 C8.22064216 7.54089959 9.54837256 10.61301952 9 15 C7.33333333 13.33333333 5.66666667 11.66666667 4 10 C3.236875 9.360625 2.47375 8.72125 1.6875 8.0625 C-0.56582347 5.30843798 -0.31451714 3.45968858 0 0 Z " fill="#604333" transform="translate(50,24)"/>
<path d="M0 0 C2.375 0.25 2.375 0.25 5 1 C6.375 2.75 6.375 2.75 7 5 C6.625 7.75 6.625 7.75 6 10 C4.35 10 2.7 10 1 10 C-0.60725635 6.78548731 -0.05748185 3.56387464 0 0 Z " fill="#625C4F" transform="translate(77,61)"/>
<path d="M0 0 C1.1446875 0.0928125 1.1446875 0.0928125 2.3125 0.1875 C2.3125 1.5075 2.3125 2.8275 2.3125 4.1875 C1.1059375 4.496875 1.1059375 4.496875 -0.125 4.8125 C-0.970625 5.26625 -1.81625 5.72 -2.6875 6.1875 C-3.58580839 9.24022465 -3.58580839 9.24022465 -3.6875 12.1875 C-5.0075 11.8575 -6.3275 11.5275 -7.6875 11.1875 C-7.0275 10.8575 -6.3675 10.5275 -5.6875 10.1875 C-5.6875 8.8675 -5.6875 7.5475 -5.6875 6.1875 C-8.3275 5.5275 -10.9675 4.8675 -13.6875 4.1875 C-13.6875 3.8575 -13.6875 3.5275 -13.6875 3.1875 C-11.8003125 3.2803125 -11.8003125 3.2803125 -9.875 3.375 C-6.60453074 3.48491586 -6.60453074 3.48491586 -4 1.6875 C-2.6875 0.1875 -2.6875 0.1875 0 0 Z " fill="#5792B6" transform="translate(87.6875,28.8125)"/>
<path d="M0 0 C0.66 0.33 1.32 0.66 2 1 C2 4.3 2 7.6 2 11 C-0.97 10.505 -0.97 10.505 -4 10 C-4 7.36 -4 4.72 -4 2 C-2.125 0.9375 -2.125 0.9375 0 0 Z " fill="#493633" transform="translate(67,36)"/>
<path d="M0 0 C0.598125 0.20625 1.19625 0.4125 1.8125 0.625 C2.1425 2.275 2.4725 3.925 2.8125 5.625 C-0.1575 5.13 -0.1575 5.13 -3.1875 4.625 C-2.0499438 7.21641286 -2.0499438 7.21641286 -0.1875 9.625 C2.43944422 10.04280879 2.43944422 10.04280879 4.8125 9.625 C4.8125 10.285 4.8125 10.945 4.8125 11.625 C3.8225 12.12 3.8225 12.12 2.8125 12.625 C1.8225 14.11 1.8225 14.11 0.8125 15.625 C0.8125 14.305 0.8125 12.985 0.8125 11.625 C0.19375 11.356875 -0.425 11.08875 -1.0625 10.8125 C-3.1875 9.625 -3.1875 9.625 -5.1875 6.625 C-5.5 4.0625 -5.5 4.0625 -5.1875 1.625 C-2.1875 -0.375 -2.1875 -0.375 0 0 Z " fill="#764F4A" transform="translate(24.1875,71.375)"/>
<path d="M0 0 C0.33 0 0.66 0 1 0 C1 4.62 1 9.24 1 14 C-0.65 14.66 -2.3 15.32 -4 16 C-3.6083965 10.04492601 -2.62875405 5.37180176 0 0 Z " fill="#C5C7CA" transform="translate(23,57)"/>
<path d="M0 0 C0.66 0.33 1.32 0.66 2 1 C1.67 1.99 1.34 2.98 1 4 C0.8535286 5.55266653 0.75305926 7.10995662 0.68359375 8.66796875 C0.64169922 9.56064453 0.59980469 10.45332031 0.55664062 11.37304688 C0.49766602 12.76620117 0.49766602 12.76620117 0.4375 14.1875 C0.37272461 15.59805664 0.37272461 15.59805664 0.30664062 17.03710938 C0.20061335 19.35792854 0.09854971 21.67885325 0 24 C-0.99 23.34 -1.98 22.68 -3 22 C-3 21.34 -3 20.68 -3 20 C-2.34 20 -1.68 20 -1 20 C-1.99 18.35 -2.98 16.7 -4 15 C-3.34 15 -2.68 15 -2 15 C-1.67 14.34 -1.34 13.68 -1 13 C-1.66 13 -2.32 13 -3 13 C-2.88490339 11.58249437 -2.75746342 10.16598831 -2.625 8.75 C-2.55539063 7.96109375 -2.48578125 7.1721875 -2.4140625 6.359375 C-1.98492887 3.914123 -1.21399362 2.15163097 0 0 Z " fill="#215166" transform="translate(19,63)"/>
<path d="M0 0 C1.07765625 0.00902344 2.1553125 0.01804688 3.265625 0.02734375 C4.08546875 0.03894531 4.9053125 0.05054688 5.75 0.0625 C5.75 0.7225 5.75 1.3825 5.75 2.0625 C3.11 2.0625 0.47 2.0625 -2.25 2.0625 C-2.25 2.7225 -2.25 3.3825 -2.25 4.0625 C-1.59 4.0625 -0.93 4.0625 -0.25 4.0625 C-0.25 4.7225 -0.25 5.3825 -0.25 6.0625 C-2.4375 6.375 -2.4375 6.375 -5.25 6.0625 C-8.0625 3.5625 -8.0625 3.5625 -10.25 1.0625 C-6.78777385 -0.00473961 -3.60960734 -0.03923486 0 0 Z " fill="#154457" transform="translate(90.25,49.9375)"/>
<path d="M0 0 C0.99 0 1.98 0 3 0 C3.66 0.66 4.32 1.32 5 2 C4.57847656 2.54269531 4.15695313 3.08539063 3.72265625 3.64453125 C3.17480469 4.35996094 2.62695312 5.07539062 2.0625 5.8125 C1.51722656 6.52019531 0.97195312 7.22789063 0.41015625 7.95703125 C-1.16856248 10.04125052 -1.16856248 10.04125052 -2 13 C-2.66 13 -3.32 13 -4 13 C-4 10.36 -4 7.72 -4 5 C-3.34 5 -2.68 5 -2 5 C-1.34 3.35 -0.68 1.7 0 0 Z " fill="#023251" transform="translate(16,54)"/>
<path d="M0 0 C2.97808457 2.55264392 4.26590786 5.53181572 6 9 C6.66 9.33 7.32 9.66 8 10 C8 10.66 8 11.32 8 12 C9.98 11.67 11.96 11.34 14 11 C10.71536341 13.18975773 7.79303725 13.99806563 4 15 C4.33 13.68 4.66 12.36 5 11 C4.175 10.5875 3.35 10.175 2.5 9.75 C1.675 9.1725 0.85 8.595 0 8 C0 5.33333333 0 2.66666667 0 0 Z " fill="#496570" transform="translate(20,9)"/>
<path d="M0 0 C0.53625 0.721875 1.0725 1.44375 1.625 2.1875 C3.47473144 4.37797144 5.04783016 5.93411359 7.25 7.6875 C8.1575 8.450625 9.065 9.21375 10 10 C10 10.66 10 11.32 10 12 C10.66 12.33 11.32 12.66 12 13 C10.35 13.33 8.7 13.66 7 14 C6.34 12.35 5.68 10.7 5 9 C4.34 9 3.68 9 3 9 C0.56839395 5.63316085 0 4.26649636 0 0 Z " fill="#A1C5DB" transform="translate(24,6)"/>
<path d="M0 0 C0.33 0 0.66 0 1 0 C1.19376522 6.10360445 1.34496732 12.25066388 -1 18 C-3.46700345 20.03527785 -4.79999318 21 -8 21 C-8 20.34 -8 19.68 -8 19 C-7.38125 18.5875 -6.7625 18.175 -6.125 17.75 C-3.31324136 15.43443406 -2.84140906 13.5058711 -2 10 C-1.83142517 7.24934768 -1.83142517 7.24934768 -2 5 C-1.34 5 -0.68 5 0 5 C0 3.35 0 1.7 0 0 Z " fill="#865948" transform="translate(59,34)"/>
<path d="M0 0 C3.63 0.66 7.26 1.32 11 2 C10.01 2.495 10.01 2.495 9 3 C9 3.99 9 4.98 9 6 C7.02 6.33 5.04 6.66 3 7 C0 3.375 0 3.375 0 0 Z " fill="#88C1CB" transform="translate(69,38)"/>
<path d="M0 0 C0.33 0.66 0.66 1.32 1 2 C2.65 1.34 4.3 0.68 6 0 C3.78785558 4.00951177 1.05097769 5.01972764 -3.0625 6.484375 C-5 7 -5 7 -8 7 C-8.33 6.01 -8.66 5.02 -9 4 C-6.03 2.68 -3.06 1.36 0 0 Z " fill="#9A9BA4" transform="translate(75,12)"/>
<path d="M0 0 C0.66 0.99 1.32 1.98 2 3 C0.87970983 4.48273699 -0.24638618 5.96108886 -1.375 7.4375 C-2.31472656 8.67306641 -2.31472656 8.67306641 -3.2734375 9.93359375 C-5 12 -5 12 -7 13 C-7.99 12.34 -8.98 11.68 -10 11 C-8.04783565 9.04783565 -6.46800047 8.15173355 -4 7 C-4 6.01 -4 5.02 -4 4 C-2 1.8125 -2 1.8125 0 0 Z " fill="#9B3C33" transform="translate(41,52)"/>
<path d="M0 0 C0.66 0 1.32 0 2 0 C2 0.99 2 1.98 2 3 C1.34 3 0.68 3 0 3 C-0.99 7.62 -1.98 12.24 -3 17 C-3.99 17 -4.98 17 -6 17 C-5.57664615 10.50857435 -3.08900201 5.66507011 0 0 Z " fill="#043C5B" transform="translate(19,60)"/>
<path d="M0 0 C2.31 0 4.62 0 7 0 C5.02 0.99 5.02 0.99 3 2 C4.65167557 5.5786304 6.78286492 8.74820188 9 12 C8.01 13.485 8.01 13.485 7 15 C6.76925781 14.43410156 6.53851563 13.86820313 6.30078125 13.28515625 C5.31565123 11.06958715 4.33896798 9.02342445 3 7 C0.3852733 5.87184635 0.3852733 5.87184635 -2 6 C-1.34 4.02 -0.68 2.04 0 0 Z " fill="#846670" transform="translate(51,19)"/>
<path d="M0 0 C3.625 0.375 3.625 0.375 7 1 C7 1.99 7 2.98 7 4 C4.69 4 2.38 4 0 4 C-0.33 5.32 -0.66 6.64 -1 8 C-1.66 8 -2.32 8 -3 8 C-2.25 2.25 -2.25 2.25 0 0 Z " fill="#793934" transform="translate(51,15)"/>
<path d="M0 0 C0.5625 1.9375 0.5625 1.9375 1 4 C0.67 4.33 0.34 4.66 0 5 C0.66 5.66 1.32 6.32 2 7 C0.02 7.99 0.02 7.99 -2 9 C-1.01 10.65 -0.02 12.3 1 14 C0.236875 13.835 -0.52625 13.67 -1.3125 13.5 C-4.03596236 12.90854604 -4.03596236 12.90854604 -7 13 C-6.34 12.34 -5.68 11.68 -5 11 C-5.0928125 9.6078125 -5.0928125 9.6078125 -5.1875 8.1875 C-5 5 -5 5 -2.5 2.125 C-1.2625 1.073125 -1.2625 1.073125 0 0 Z " fill="#6E3725" transform="translate(52,65)"/>
<path d="M0 0 C0.95261719 0.0721875 1.90523438 0.144375 2.88671875 0.21875 C4.76810547 0.35796875 4.76810547 0.35796875 6.6875 0.5 C7.92886719 0.5928125 9.17023438 0.685625 10.44921875 0.78125 C13.31499329 0.95779937 16.13099957 1.04388528 19 1 C15.82679716 3.8214563 13.72407707 4.4316977 9.5 4.4375 C8.5615625 4.45683594 7.623125 4.47617187 6.65625 4.49609375 C3.32462065 3.87386297 2.14277235 2.55212272 0 0 Z " fill="#A9BCD1" transform="translate(69,19)"/>
<path d="M0 0 C1.74627478 2.61941217 2.38722388 4.03824877 3 7 C2.01 7.66 1.02 8.32 0 9 C0 9.99 0 10.98 0 12 C-0.66 12 -1.32 12 -2 12 C-2.08226668 8.95613276 -1.97608217 6.92824652 -1 4 C-2.98 4 -4.96 4 -7 4 C-7 3.01 -7 2.02 -7 1 C-3.535 0.505 -3.535 0.505 0 0 Z " fill="#5A93C9" transform="translate(91,26)"/>
<path d="M0 0 C3.82097239 0.53069061 6.06171403 1.49701566 9 4 C8.67 4.99 8.34 5.98 8 7 C5.6875 6.8125 5.6875 6.8125 3 6 C0 1.86206897 0 1.86206897 0 0 Z " fill="#8A332C" transform="translate(20,75)"/>
<path d="M0 0 C1.32 0 2.64 0 4 0 C7 3.21428571 7 3.21428571 7 6 C7.66 6 8.32 6 9 6 C9 6.99 9 7.98 9 9 C6.1875 8.4375 6.1875 8.4375 3 7 C1.55911437 4.71463927 0.86430792 2.59292376 0 0 Z " fill="#05345B" transform="translate(3,66)"/>
<path d="M0 0 C5.70448549 2.42744063 5.70448549 2.42744063 7 4.9375 C7 7.44654501 6.29024129 8.8748967 5 11 C4.34 11 3.68 11 3 11 C2.49384702 9.73160474 1.99530901 8.46016898 1.5 7.1875 C1.2215625 6.47980469 0.943125 5.77210937 0.65625 5.04296875 C0 3 0 3 0 0 Z " fill="#73969E" transform="translate(86,60)"/>
<path d="M0 0 C3.14621069 3.05139338 4.91989683 5.23773026 5.125 9.75 C5.08375 10.4925 5.0425 11.235 5 12 C2.5 11.0625 2.5 11.0625 0 9 C-0.45787911 5.96183742 -0.28780586 3.05074215 0 0 Z " fill="#709BB0" transform="translate(19,78)"/>
<path d="M0 0 C1.32 0.66 2.64 1.32 4 2 C3.01 2.33 2.02 2.66 1 3 C0.67 3.66 0.34 4.32 0 5 C-3.73778219 6.14555496 -6.53680747 5.91832364 -10.3125 5.0625 C-11.19550781 4.86785156 -12.07851563 4.67320313 -12.98828125 4.47265625 C-13.98408203 4.23869141 -13.98408203 4.23869141 -15 4 C-15 3.67 -15 3.34 -15 3 C-14.00097656 2.95101562 -13.00195312 2.90203125 -11.97265625 2.8515625 C-10.68230469 2.77679688 -9.39195313 2.70203125 -8.0625 2.625 C-6.77472656 2.55539063 -5.48695312 2.48578125 -4.16015625 2.4140625 C-3.11730469 2.27742188 -2.07445312 2.14078125 -1 2 C-0.67 1.34 -0.34 0.68 0 0 Z " fill="#9F6150" transform="translate(42,44)"/>
<path d="M0 0 C0.66 0.33 1.32 0.66 2 1 C1.91433603 3.912575 1.42089045 5.56798024 -0.625 7.66796875 C-2.38391375 9.16091772 -4.16313019 10.60436262 -6 12 C-4.68139111 7.38486888 -2.78644563 3.90102388 0 0 Z " fill="#B7A793" transform="translate(83,75)"/>
<path d="M0 0 C1.91541138 -0.10841951 3.83259773 -0.18578079 5.75 -0.25 C6.81734375 -0.29640625 7.8846875 -0.3428125 8.984375 -0.390625 C12.63802112 0.08264522 13.72228105 1.19155042 16 4 C15.08476563 3.9278125 14.16953125 3.855625 13.2265625 3.78125 C12.03804687 3.6884375 10.84953125 3.595625 9.625 3.5 C8.44164063 3.4071875 7.25828125 3.314375 6.0390625 3.21875 C4.36213157 3.09804546 2.68126944 3 1 3 C0.67 2.01 0.34 1.02 0 0 Z " fill="#6F98CB" transform="translate(64,8)"/>
<path d="M0 0 C0.66 0 1.32 0 2 0 C5 4.38461538 5 4.38461538 5 7 C5.99 7 6.98 7 8 7 C8 7.66 8 8.32 8 9 C8.99 9.33 9.98 9.66 11 10 C9.02 10.99 9.02 10.99 7 12 C6.0165504 10.56542672 5.03839079 9.12722594 4.0625 7.6875 C3.51722656 6.88699219 2.97195312 6.08648437 2.41015625 5.26171875 C1 3 1 3 0 0 Z " fill="#849AC0" transform="translate(57,26)"/>
<path d="M0 0 C0.66 0.33 1.32 0.66 2 1 C-0.66666667 3.66666667 -3.33333333 6.33333333 -6 9 C-6.66 8.67 -7.32 8.34 -8 8 C-8.33 8.66 -8.66 9.32 -9 10 C-9.33 7.69 -9.66 5.38 -10 3 C-8.02 3.99 -8.02 3.99 -6 5 C-4.02 3.35 -2.04 1.7 0 0 Z " fill="#876A63" transform="translate(22,24)"/>
<path d="M0 0 C0.66 0 1.32 0 2 0 C2.33 2.64 2.66 5.28 3 8 C1.35 8 -0.3 8 -2 8 C-2.33 7.34 -2.66 6.68 -3 6 C-5.01669827 4.86649466 -5.01669827 4.86649466 -7 4 C-5.02 3.67 -3.04 3.34 -1 3 C-0.67 2.01 -0.34 1.02 0 0 Z " fill="#5B382F" transform="translate(47,18)"/>
<path d="M0 0 C0.99 0.33 1.98 0.66 3 1 C3 1.99 3 2.98 3 4 C3.66 4.33 4.32 4.66 5 5 C5 5.66 5 6.32 5 7 C3.02253397 7.73080266 1.01927511 8.39421747 -1 9 C-1.66 8.67 -2.32 8.34 -3 8 C-3 6 -3 6 -1 4 C-0.3574765 1.93125966 -0.3574765 1.93125966 0 0 Z " fill="#673429" transform="translate(16,37)"/>
<path d="M0 0 C3.27481575 0.97359387 4.76205109 1.69066641 6.875 4.4375 C8 7 8 7 7 10 C6.01 9.34 5.02 8.68 4 8 C4 7.01 4 6.02 4 5 C3.34 5 2.68 5 2 5 C1.34 3.35 0.68 1.7 0 0 Z " fill="#51362B" transform="translate(50,24)"/>
<path d="M0 0 C1.65 0 3.3 0 5 0 C5 1.32 5 2.64 5 4 C1.25 5.125 1.25 5.125 -1 4 C-0.67 2.68 -0.34 1.36 0 0 Z " fill="#24605D" transform="translate(85,29)"/>
<path d="M0 0 C0.33 1.65 0.66 3.3 1 5 C0.67 4.01 0.34 3.02 0 2 C-5.7974423 1.75571657 -5.7974423 1.75571657 -11 4 C-8.36255031 -1.84006718 -6.04918208 -1.00819701 0 0 Z " fill="#6E6176" transform="translate(58,14)"/>
<path d="M0 0 C0.99 0.33 1.98 0.66 3 1 C2.67 2.65 2.34 4.3 2 6 C1.67 5.34 1.34 4.68 1 4 C0.34 4 -0.32 4 -1 4 C-1.66 5.65 -2.32 7.3 -3 9 C-3.75 7.3125 -3.75 7.3125 -4 5 C-2.0625 2.25 -2.0625 2.25 0 0 Z " fill="#2B6679" transform="translate(20,56)"/>
<path d="M0 0 C0.99 0 1.98 0 3 0 C2.38722388 2.96175123 1.74627478 4.38058783 0 7 C-0.66 7 -1.32 7 -2 7 C-2 7.66 -2 8.32 -2 9 C-2.66 9 -3.32 9 -4 9 C-2.80100302 5.9168649 -1.52299523 2.93720508 0 0 Z " fill="#E5706F" transform="translate(39,49)"/>
<path d="M0 0 C2.31 0.33 4.62 0.66 7 1 C6.34 2.98 5.68 4.96 5 7 C2.5 5.1875 2.5 5.1875 0 3 C0 2.01 0 1.02 0 0 Z " fill="#6A190B" transform="translate(23,51)"/>
<path d="M0 0 C2 1 2 1 2.625 2.625 C3.3069409 6.94395903 3.38635713 10.84092862 2 15 C1.34 15 0.68 15 0 15 C0 10.05 0 5.1 0 0 Z " fill="#59362C" transform="translate(59,32)"/>
<path d="M0 0 C8.35010941 0.35010941 8.35010941 0.35010941 11.0625 3.0625 C11.371875 3.701875 11.68125 4.34125 12 5 C11.01 5.495 11.01 5.495 10 6 C8.33333333 5 6.66666667 4 5 3 C4.01 3.495 4.01 3.495 3 4 C3 3.01 3 2.02 3 1 C2.01 0.67 1.02 0.34 0 0 Z " fill="#8A706A" transform="translate(14,52)"/>
<path d="M0 0 C1.65 0 3.3 0 5 0 C2.03716687 2.38672669 -0.94270509 4.7353371 -4 7 C-4 6.34 -4 5.68 -4 5 C-4.66 5 -5.32 5 -6 5 C-6 4.34 -6 3.68 -6 3 C-5.01 2.67 -4.02 2.34 -3 2 C-2.34 2.33 -1.68 2.66 -1 3 C-0.67 2.01 -0.34 1.02 0 0 Z " fill="#1B232D" transform="translate(19,23)"/>
<path d="M0 0 C1.32 0.66 2.64 1.32 4 2 C3.34 4.64 2.68 7.28 2 10 C0.68 8.68 -0.64 7.36 -2 6 C-1.34 6 -0.68 6 0 6 C0 4.02 0 2.04 0 0 Z " fill="#0B364E" transform="translate(92,55)"/>
<path d="M0 0 C0.66 0.33 1.32 0.66 2 1 C1.979375 1.9075 1.95875 2.815 1.9375 3.75 C1.9889755 6.42672588 2.2215017 8.46988052 3 11 C0.4375 8.8125 0.4375 8.8125 -2 6 C-1.80952381 1.80952381 -1.80952381 1.80952381 0 0 Z " fill="#0B1E33" transform="translate(6,24)"/>
<path d="M0 0 C1.32 0.33 2.64 0.66 4 1 C4.33 2.65 4.66 4.3 5 6 C2.69 5.34 0.38 4.68 -2 4 C-1.34 2.68 -0.68 1.36 0 0 Z " fill="#834B3B" transform="translate(22,71)"/>
<path d="M0 0 C2.4375 0.75 2.4375 0.75 5 2 C5.8125 4.125 5.8125 4.125 6 6 C4.35 5.67 2.7 5.34 1 5 C0.67 3.35 0.34 1.7 0 0 Z " fill="#491A10" transform="translate(35,28)"/>
<path d="M0 0 C0.33 0.66 0.66 1.32 1 2 C-6.625 3.25 -6.625 3.25 -10 1 C-6.78548731 -0.60725635 -3.56387464 -0.05748185 0 0 Z " fill="#453024" transform="translate(42,20)"/>
<path d="M0 0 C0.33 0.99 0.66 1.98 1 3 C0.21625 3.28875 -0.5675 3.5775 -1.375 3.875 C-4.09671632 4.84912254 -4.09671632 4.84912254 -6 7 C-6 6.34 -6 5.68 -6 5 C-7.65 4.67 -9.3 4.34 -11 4 C-11 3.67 -11 3.34 -11 3 C-10.28972656 2.86722656 -9.57945313 2.73445312 -8.84765625 2.59765625 C-7.92855469 2.42105469 -7.00945313 2.24445312 -6.0625 2.0625 C-4.68771484 1.80146484 -4.68771484 1.80146484 -3.28515625 1.53515625 C-1.04710156 1.22285012 -1.04710156 1.22285012 0 0 Z " fill="#568CB2" transform="translate(56,5)"/>
<path d="M0 0 C2.475 0.495 2.475 0.495 5 1 C5.33 1.99 5.66 2.98 6 4 C5.01 4.495 5.01 4.495 4 5 C4.33 6.32 4.66 7.64 5 9 C2.9754262 7.06745228 1.57894208 5.36841312 0 3 C0 2.01 0 1.02 0 0 Z " fill="#A4BACD" transform="translate(57,4)"/>
<path d="M0 0 C0.99 0.99 1.98 1.98 3 3 C2.67 3.66 2.34 4.32 2 5 C0.68 4.34 -0.64 3.68 -2 3 C-1.34 4.32 -0.68 5.64 0 7 C-1.32 6.34 -2.64 5.68 -4 5 C-3.6875 3.0625 -3.6875 3.0625 -3 1 C-2.01 0.67 -1.02 0.34 0 0 Z " fill="#6596C7" transform="translate(29,3)"/>
<path d="M0 0 C0.99 0 1.98 0 3 0 C3.66 0.66 4.32 1.32 5 2 C3.1875 4 3.1875 4 1 6 C0.01 6 -0.98 6 -2 6 C-1.49396008 3.83125748 -1.00016187 2.00032373 0 0 Z " fill="#134C61" transform="translate(16,54)"/>
<path d="M0 0 C1.65 0 3.3 0 5 0 C4.60196439 2.88575819 4.20990931 3.82189513 1.9375 5.75 C1.298125 6.1625 0.65875 6.575 0 7 C0 4.69 0 2.38 0 0 Z " fill="#3D291D" transform="translate(63,38)"/>
<path d="M0 0 C2.31 0.33 4.62 0.66 7 1 C7 1.99 7 2.98 7 4 C4.69 3.67 2.38 3.34 0 3 C0 2.01 0 1.02 0 0 Z " fill="#1C582F" transform="translate(75,35)"/>
<path d="M0 0 C-0.34879632 3.25543229 -1.02133261 4.01873107 -3.5625 6.25 C-4.366875 6.8275 -5.17125 7.405 -6 8 C-5.62403791 5.21788056 -5.32681541 3.4120716 -3.5625 1.1875 C-2 0 -2 0 0 0 Z " fill="#6F5443" transform="translate(82,76)"/>
<path d="M0 0 C0.66 0.99 1.32 1.98 2 3 C0.68 5.64 -0.64 8.28 -2 11 C-2.33 10.34 -2.66 9.68 -3 9 C-3.66 8.67 -4.32 8.34 -5 8 C-4.01 8 -3.02 8 -2 8 C-1.855625 6.865625 -1.71125 5.73125 -1.5625 4.5625 C-1 1 -1 1 0 0 Z " fill="#134E6D" transform="translate(15,63)"/>
<path d="M0 0 C2.125 0.9375 2.125 0.9375 4 2 C3.67 2.99 3.34 3.98 3 5 C-0.0625 6.1875 -0.0625 6.1875 -3 7 C-2.649375 6.38125 -2.29875 5.7625 -1.9375 5.125 C-1.628125 4.42375 -1.31875 3.7225 -1 3 C-1.33 2.34 -1.66 1.68 -2 1 C-1.34 0.67 -0.68 0.34 0 0 Z " fill="#9A6651" transform="translate(45,55)"/>
<path d="M0 0 C0.99 0 1.98 0 3 0 C3.33 1.98 3.66 3.96 4 6 C2.68 5.67 1.36 5.34 0 5 C0 3.35 0 1.7 0 0 Z " fill="#857E75" transform="translate(28,84)"/>
<path d="M0 0 C-1 3 -1 3 -4.0625 4.6875 C-5.031875 5.120625 -6.00125 5.55375 -7 6 C-6.6875 4.125 -6.6875 4.125 -6 2 C-3 0 -3 0 0 0 Z " fill="#645D52" transform="translate(76,86)"/>
<path d="M0 0 C-0.020625 0.94875 -0.04125 1.8975 -0.0625 2.875 C-0.22551826 5.90666283 -0.22551826 5.90666283 1 8 C0.01 8 -0.98 8 -2 8 C-2.33 5.69 -2.66 3.38 -3 1 C-1 0 -1 0 0 0 Z " fill="#845F57" transform="translate(16,35)"/>
<path d="M0 0 C0.99 0.33 1.98 0.66 3 1 C3 2.32 3 3.64 3 5 C1.35 4.67 -0.3 4.34 -2 4 C-1.34 2.68 -0.68 1.36 0 0 Z " fill="#A7B9D3" transform="translate(92,33)"/>
<path d="M0 0 C2.81939117 2.20979308 5.53058944 4.40062046 8 7 C4.58978257 6.21302675 1.31114834 5.12880057 -2 4 C-1.34 2.68 -0.68 1.36 0 0 Z " fill="#648FC5" transform="translate(65,16)"/>
<path d="M0 0 C0.33 0.66 0.66 1.32 1 2 C2.65 1.34 4.3 0.68 6 0 C4.875 2 4.875 2 3 4 C-0.1875 4.25 -0.1875 4.25 -3 4 C-2.67 3.01 -2.34 2.02 -2 1 C-1.34 0.67 -0.68 0.34 0 0 Z " fill="#A6A4A1" transform="translate(75,12)"/>
<path d="M0 0 C2.475 0.99 2.475 0.99 5 2 C5 2.66 5 3.32 5 4 C5.99 4.33 6.98 4.66 8 5 C6.25 5.75 6.25 5.75 4 6 C1.75 4.1875 1.75 4.1875 0 2 C0 1.34 0 0.68 0 0 Z " fill="#5C98DE" transform="translate(27,6)"/>
<path d="M0 0 C0.33 0 0.66 0 1 0 C1.12375 0.78375 1.2475 1.5675 1.375 2.375 C1.79117993 5.14057822 1.79117993 5.14057822 4 7 C3.01 7.33 2.02 7.66 1 8 C0.67 8.99 0.34 9.98 0 11 C-1.35015859 6.94952424 -0.62084998 4.2079832 0 0 Z " fill="#9A6450" transform="translate(25,59)"/>
<path d="M0 0 C0.66 0.99 1.32 1.98 2 3 C0.68 4.32 -0.64 5.64 -2 7 C-2.66 6.67 -3.32 6.34 -4 6 C-4 4 -4 4 -2 1.875 C-1.34 1.25625 -0.68 0.6375 0 0 Z " fill="#AB3E39" transform="translate(41,52)"/>
<path d="M0 0 C0.66 0 1.32 0 2 0 C2.226875 0.639375 2.45375 1.27875 2.6875 1.9375 C3.85250896 4.27193661 3.85250896 4.27193661 6.625 4.75 C7.40875 4.8325 8.1925 4.915 9 5 C9 5.33 9 5.66 9 6 C7.02 6.33 5.04 6.66 3 7 C0 3.375 0 3.375 0 0 Z " fill="#AABEC2" transform="translate(69,38)"/>
<path d="M0 0 C2.375 0.3125 2.375 0.3125 5 1 C5.66 1.99 6.32 2.98 7 4 C4.03 3.505 4.03 3.505 1 3 C0.67 2.01 0.34 1.02 0 0 Z " fill="#7E7970" transform="translate(30,91)"/>
<path d="M0 0 C1.98 0.99 1.98 0.99 4 2 C4 4.31 4 6.62 4 9 C3.01 8.34 2.02 7.68 1 7 C1 6.34 1 5.68 1 5 C1.66 5 2.32 5 3 5 C2.01 3.35 1.02 1.7 0 0 Z " fill="#1F5D81" transform="translate(15,78)"/>
<path d="M0 0 C0.33 0 0.66 0 1 0 C1 2.97 1 5.94 1 9 C0.01 9.33 -0.98 9.66 -2 10 C-2 8.35 -2 6.7 -2 5 C-1.34 5 -0.68 5 0 5 C0 3.35 0 1.7 0 0 Z " fill="#8D6555" transform="translate(59,34)"/>
<path d="M0 0 C0.99 0.33 1.98 0.66 3 1 C3 1.66 3 2.32 3 3 C2.01 3.66 1.02 4.32 0 5 C0 5.99 0 6.98 0 8 C-0.66 8 -1.32 8 -2 8 C-2.20086443 4.28400809 -2.1519437 3.22791555 0 0 Z " fill="#6E98C5" transform="translate(91,30)"/>
<path d="M0 0 C2.31 0 4.62 0 7 0 C3.93882432 2.62386487 3.26826873 3 -1 3 C-0.67 2.01 -0.34 1.02 0 0 Z " fill="#BEBCBD" transform="translate(68,12)"/>
</svg>
