<?xml version="1.0" encoding="UTF-8"?>
<svg version="1.1" xmlns="http://www.w3.org/2000/svg" width="25" height="25">
<path d="M0 0 C3.19642731 1.76176514 4.65343157 3.62483497 6 7 C6.98551611 11.70704547 6.89020038 15.76871853 5.09765625 20.26171875 C2.82848943 23.66202039 0.925866 24.79933703 -3.08203125 25.66796875 C-7.47679346 25.93416578 -11.2530995 25.96283385 -15.17578125 23.80078125 C-18.5457914 20.479029 -19.43519926 17.15776602 -19.75 12.5 C-19.43519926 7.84223398 -18.5457914 4.520971 -15.17578125 1.19921875 C-10.37366283 -1.44755029 -5.2277219 -1.13300437 0 0 Z " fill="#2872FF" transform="translate(19,0)"/>
<path d="M0 0 C4.875 1.875 4.875 1.875 6 3 C6.33366292 6.08638202 6.22870204 7.61536475 4.625 10.3125 C3.820625 11.1478125 3.820625 11.1478125 3 12 C2.34 12 1.68 12 1 12 C0.957279 10.33388095 0.95936168 8.66617115 1 7 C1.33 6.67 1.66 6.34 2 6 C1.34 5.67 0.68 5.34 0 5 C0 3.35 0 1.7 0 0 Z " fill="#EAF1FF" transform="translate(6,7)"/>
<path d="M0 0 C-0.165 1.051875 -0.33 2.10375 -0.5 3.1875 C-0.89569678 6.20468796 -1.09178971 8.97093972 -1 12 C-1.66 12 -2.32 12 -3 12 C-5.08341979 9.83644868 -5.92924082 8.41444665 -6.4375 5.4375 C-6 3 -6 3 -4.125 1.1875 C-2 0 -2 0 0 0 Z " fill="#EDF3FF" transform="translate(19,7)"/>
<path d="M0 0 C0.33 2.31 0.66 4.62 1 7 C0.34 7 -0.32 7 -1 7 C-4 3.53846154 -4 3.53846154 -4 1 C-2 0 -2 0 0 0 Z " fill="#B8D0FF" transform="translate(17,12)"/>
<path d="M0 0 C0.33 0.66 0.66 1.32 1 2 C1.66 2.33 2.32 2.66 3 3 C1.625 5 1.625 5 0 7 C-0.66 7 -1.32 7 -2 7 C-2.125 4.625 -2.125 4.625 -2 2 C-1.34 1.34 -0.68 0.68 0 0 Z " fill="#B6CFFF" transform="translate(9,12)"/>
</svg>
