<?xml version="1.0" encoding="UTF-8"?>
<svg version="1.1" xmlns="http://www.w3.org/2000/svg" width="64" height="64">
<path d="M0 0 C21.12 0 42.24 0 64 0 C64 21.12 64 42.24 64 64 C42.88 64 21.76 64 0 64 C0 42.88 0 21.76 0 0 Z " fill="#3A3539" transform="translate(0,0)"/>
<path d="M0 0 C21.12 0 42.24 0 64 0 C64 2.97 64 5.94 64 9 C63.26394531 9.03738281 62.52789062 9.07476562 61.76953125 9.11328125 C54.21627143 9.32994403 54.21627143 9.32994403 48 13 C47.39165864 15.67562529 47.22160343 18.25211751 47 21 C46.01 21.495 46.01 21.495 45 22 C44.505 20.02 44.505 20.02 44 18 C43.34 19.98 42.68 21.96 42 24 C41.67 24 41.34 24 41 24 C40.505 20.535 40.505 20.535 40 17 C37.89683202 19.10316798 38.55550235 23.48785568 38.37890625 26.3359375 C38 29 38 29 36 32 C36 27.71 36 23.42 36 19 C31.90122794 23.09877206 30.07273677 25.46014387 29.953125 31.28125 C29.98345127 32.83799861 30.03907688 34.39454736 30.125 35.94921875 C30 38 30 38 28 41 C27.34 41 26.68 41 26 41 C26 40.34 26 39.68 26 39 C25.195625 38.79697266 25.195625 38.79697266 24.375 38.58984375 C15.85105923 36.24856397 8.05055972 32.61592936 0 29 C0 19.43 0 9.86 0 0 Z " fill="#837877" transform="translate(0,0)"/>
<path d="M0 0 C0 18.15 0 36.3 0 55 C-7.59 55 -15.18 55 -23 55 C-23 48.73 -23 42.46 -23 36 C-21.02 35.505 -21.02 35.505 -19 35 C-18.97494385 34.34515625 -18.9498877 33.6903125 -18.92407227 33.015625 C-18.80707345 30.01026764 -18.68482365 27.00514515 -18.5625 24 C-18.52318359 22.97003906 -18.48386719 21.94007812 -18.44335938 20.87890625 C-17.79499872 5.21850271 -17.79499872 5.21850271 -15.74609375 2.078125 C-13.53638154 0.71373893 -11.61437032 0.22583747 -9.0625 -0.25 C-8.20785156 -0.42015625 -7.35320313 -0.5903125 -6.47265625 -0.765625 C-4 -1 -4 -1 0 0 Z " fill="#37343B" transform="translate(64,9)"/>
<path d="M0 0 C2.75236274 -0.16225719 5.49517476 -0.2809328 8.25 -0.375 C9.02730469 -0.42527344 9.80460938 -0.47554688 10.60546875 -0.52734375 C12.88068731 -0.58568269 14.79142402 -0.55916873 17 0 C19.46875 2.875 19.46875 2.875 21 6 C21.4125 6.78375 21.825 7.5675 22.25 8.375 C22.4975 8.91125 22.745 9.4475 23 10 C22.01 10.495 22.01 10.495 21 11 C21.37125 11.9075 21.7425 12.815 22.125 13.75 C23.12866323 17.47789199 22.74373613 17.82024587 21 21 C21.30378052 23.68993053 21.30378052 23.68993053 22 26 C22 24.35 22 22.7 22 21 C24.09627761 24.14441642 24.30761366 25.35566766 24.5625 29 C24.77785292 31.95341151 25.0560936 34.1682808 26 37 C19.81965819 35.3422142 13.87314971 33.2481251 7.9375 30.875 C7.27032959 30.60929199 6.60315918 30.34358398 5.91577148 30.06982422 C1.13128939 28.13128939 1.13128939 28.13128939 0 27 C-0.08758003 25.00035018 -0.10696576 22.9976389 -0.09765625 20.99609375 C-0.09443359 19.78115234 -0.09121094 18.56621094 -0.08789062 17.31445312 C-0.07951172 16.03505859 -0.07113281 14.75566406 -0.0625 13.4375 C-0.05798828 12.15423828 -0.05347656 10.87097656 -0.04882812 9.54882812 C-0.03699545 6.36583978 -0.02051068 3.18294238 0 0 Z " fill="#B5AFA2" transform="translate(0,0)"/>
<path d="M0 0 C4.27073368 0.71178895 7.12292788 1.27756141 10.9609375 2.84765625 C11.84394531 3.20537109 12.72695312 3.56308594 13.63671875 3.93164062 C14.54035156 4.30482422 15.44398437 4.67800781 16.375 5.0625 C17.76525391 5.62807617 17.76525391 5.62807617 19.18359375 6.20507812 C21.45802479 7.13126396 23.72999667 8.06302668 26 9 C25.01101978 11.48128074 24.01663235 13.95958859 23 16.4296875 C22.67 17.23664062 22.34 18.04359375 22 18.875 C21.67 19.67679688 21.34 20.47859375 21 21.3046875 C19.82325698 24.47637768 18.92936752 27.7472137 18 31 C12.06 31 6.12 31 0 31 C0 20.77 0 10.54 0 0 Z " fill="#B2A987" transform="translate(0,33)"/>
<path d="M0 0 C11.88 0 23.76 0 36 0 C36 2.31 36 4.62 36 7 C34.83082031 7.19335938 33.66164062 7.38671875 32.45703125 7.5859375 C30.90880468 7.84866686 29.3606303 8.11170392 27.8125 8.375 C27.04357422 8.50132813 26.27464844 8.62765625 25.48242188 8.7578125 C21.42338062 9.45464362 17.77045984 10.2621127 14 12 C13.6596875 10.7934375 13.6596875 10.7934375 13.3125 9.5625 C12.879375 8.716875 12.44625 7.87125 12 7 C9.45224694 6.10613836 9.45224694 6.10613836 7 6 C7 6.66 7 7.32 7 8 C5.68 8 4.36 8 3 8 C2.01 5.36 1.02 2.72 0 0 Z " fill="#CEC8BF" transform="translate(28,0)"/>
<path d="M0 0 C1.9375 1 1.9375 1 4 3 C4.58086014 5.65458512 4.74165857 8.28741496 5 11 C5.66 11.66 6.32 12.32 7 13 C7.1989393 15.68860616 7.27835301 18.25105183 7.25 20.9375 C7.25773437 21.66646484 7.26546875 22.39542969 7.2734375 23.14648438 C7.25946171 26.95838223 7.16125927 28.7581111 5 32 C4.34 32 3.68 32 3 32 C3 31.34 3 30.68 3 30 C2.46375 29.86464844 1.9275 29.72929688 1.375 29.58984375 C-7.12016195 27.25646868 -14.99624104 23.62453104 -23 20 C-22.67 19.34 -22.34 18.68 -22 18 C-14.08 20.97 -6.16 23.94 2 27 C1.1616804 21.94169831 1.1616804 21.94169831 0 17 C-0.33 17.66 -0.66 18.32 -1 19 C-3 16 -3 16 -2.6875 13 C-2 10 -2 10 -1 7 C-1.87914688 4.3430809 -1.87914688 4.3430809 -3 2 C-2.01 1.34 -1.02 0.68 0 0 Z " fill="#88826D" transform="translate(23,9)"/>
<path d="M0 0 C0.33 0 0.66 0 1 0 C2.13955862 6.32589627 2.1142637 12.52278338 2.0625 18.9375 C2.05798828 20.00291016 2.05347656 21.06832031 2.04882812 22.16601562 C2.03711787 24.77740291 2.02071724 27.38867124 2 30 C1.01 30.33 0.02 30.66 -1 31 C-1.66 30.67 -2.32 30.34 -3 30 C-3 32.97 -3 35.94 -3 39 C-3.33 39 -3.66 39 -4 39 C-4.07427649 34.51598515 -4.12866111 30.03229826 -4.16479492 25.54785156 C-4.17986151 24.0230485 -4.20031876 22.49828864 -4.22631836 20.97363281 C-4.26279706 18.77918834 -4.27974714 16.58531784 -4.29296875 14.390625 C-4.3086792 13.07094727 -4.32438965 11.75126953 -4.34057617 10.39160156 C-3.97823827 6.78328754 -3.35649093 5.63330876 -1 3 C-0.67 2.01 -0.34 1.02 0 0 Z " fill="#4D4C51" transform="translate(44,15)"/>
<path d="M0 0 C9.9 0 19.8 0 30 0 C30 2.31 30 4.62 30 7 C27.87631556 7.22134176 25.75095976 7.42670007 23.625 7.625 C22.44164063 7.74101563 21.25828125 7.85703125 20.0390625 7.9765625 C19.03617188 7.98429688 18.03328125 7.99203125 17 8 C15.66666667 6.66666667 14.33333333 5.33333333 13 4 C13.66 3.34 14.32 2.68 15 2 C14.34 2 13.68 2 13 2 C12.34 2.66 11.68 3.32 11 4 C10.01 3.34 9.02 2.68 8 2 C5.9507906 1.54860541 5.9507906 1.54860541 3.8125 1.375 C1.9253125 1.189375 1.9253125 1.189375 0 1 C0 0.67 0 0.34 0 0 Z " fill="#B0ADA4" transform="translate(34,0)"/>
<path d="M0 0 C3.70828802 -0.28331572 7.29828868 -0.41494109 11 0 C13.64467202 2.34242379 13.92471198 3.87444414 14.15625 7.3359375 C14.18442512 9.56881599 14.13109613 11.77136577 14 14 C12.68 14 11.36 14 10 14 C10 13.34 10 12.68 10 12 C9.01 11.67 8.02 11.34 7 11 C5.17578125 9.00390625 5.17578125 9.00390625 3.3125 6.5625 C2.68988281 5.75941406 2.06726563 4.95632812 1.42578125 4.12890625 C0 2 0 2 0 0 Z " fill="#706869" transform="translate(17,0)"/>
<path d="M0 0 C1.32 0 2.64 0 4 0 C6.42322378 3.13593666 8.3407049 6.40486061 10 10 C9.01 10.495 9.01 10.495 8 11 C8.33 12.65 8.66 14.3 9 16 C7.02 16.66 5.04 17.32 3 18 C0.77297417 13.84288511 -0.08525436 9.97744449 -0.625 5.3125 C-0.76808594 4.13107422 -0.76808594 4.13107422 -0.9140625 2.92578125 C-0.94242188 2.29027344 -0.97078125 1.65476563 -1 1 C-0.67 0.67 -0.34 0.34 0 0 Z " fill="#D2CDC2" transform="translate(13,0)"/>
<path d="M0 0 C3.12290635 0.48578543 5.99580359 0.9986012 9 2 C11.6569191 1.12085312 11.6569191 1.12085312 14 0 C13.6803125 0.54527344 13.360625 1.09054687 13.03125 1.65234375 C11.48434326 5.17390038 11.5501619 8.63826699 11.34375 12.44140625 C11 15 11 15 9 18 C9 13.71 9 9.42 9 5 C5.09805807 8.64045375 5.09805807 8.64045375 3 12 C2.690625 11.195625 2.38125 10.39125 2.0625 9.5625 C1.23664655 7.10919595 1.23664655 7.10919595 0 6 C-0.04080783 4.00041636 -0.04254356 1.99954746 0 0 Z " fill="#81776C" transform="translate(27,14)"/>
<path d="M0 0 C1.9375 1 1.9375 1 4 3 C4.58086014 5.65458512 4.74165857 8.28741496 5 11 C5.66 11.66 6.32 12.32 7 13 C6.625 15.625 6.625 15.625 6 18 C4 15 4 15 4 13 C2.35 12.67 0.7 12.34 -1 12 C-0.67 14.31 -0.34 16.62 0 19 C-1.5625 17.875 -1.5625 17.875 -3 16 C-2.73066742 12.76800909 -2.02471429 10.07414286 -1 7 C-1.87914688 4.3430809 -1.87914688 4.3430809 -3 2 C-2.01 1.34 -1.02 0.68 0 0 Z " fill="#9D8D76" transform="translate(23,9)"/>
<path d="M0 0 C5.72913393 1.80920019 11.38131488 3.81201716 17 5.9375 C17.6710376 6.17807129 18.3420752 6.41864258 19.03344727 6.66650391 C20.9375 7.40234375 20.9375 7.40234375 24 9 C24.33 10.32 24.66 11.64 25 13 C16.75 10.03 8.5 7.06 0 4 C0 2.68 0 1.36 0 0 Z " fill="#33342F" transform="translate(0,29)"/>
<path d="M0 0 C10.55808656 3.07517084 10.55808656 3.07517084 15 5 C13.515 7.475 13.515 7.475 12 10 C10.2009755 9.46149601 8.41083736 8.89324145 6.625 8.3125 C5.62726562 7.99925781 4.62953125 7.68601562 3.6015625 7.36328125 C1 6 1 6 -0.3515625 3.35546875 C-0.56554687 2.57816406 -0.77953125 1.80085938 -1 1 C-0.67 0.67 -0.34 0.34 0 0 Z " fill="#DBD4C4" transform="translate(8,25)"/>
<path d="M0 0 C-0.33 0.66 -0.66 1.32 -1 2 C-3.13105487 2.41751279 -5.28208837 2.73559025 -7.4375 3 C-12.24908196 3.37266662 -12.24908196 3.37266662 -16 6 C-16.38403123 7.94151362 -16.38403123 7.94151362 -16.5 10.0625 C-16.665 11.361875 -16.83 12.66125 -17 14 C-17.99 14.495 -17.99 14.495 -19 15 C-19.33 13.68 -19.66 12.36 -20 11 C-20.99 11.495 -20.99 11.495 -22 12 C-21.91342255 6.71877534 -21.91342255 6.71877534 -21 4 C-14.40968135 -0.00587996 -7.48458819 -0.12904462 0 0 Z " fill="#706E76" transform="translate(64,7)"/>
<path d="M0 0 C2.97 0 5.94 0 9 0 C9 3.3 9 6.6 9 10 C4.42730974 7.71365487 3.0047845 6.00637934 0 2 C0 1.34 0 0.68 0 0 Z " fill="#605756" transform="translate(17,0)"/>
<path d="M0 0 C2.64 0.66 5.28 1.32 8 2 C8.33 3.98 8.66 5.96 9 8 C5.65626525 7.44271087 2.96687001 6.64826111 0 5 C0 3.35 0 1.7 0 0 Z " fill="#C3BCAF" transform="translate(0,22)"/>
<path d="M0 0 C0.66 0 1.32 0 2 0 C1.50656445 2.56586486 0.81111772 4.33054399 -0.5 6.625 C-2.46505773 11.04637989 -2.72550888 15.21060321 -3 20 C-3.66 19.67 -4.32 19.34 -5 19 C-5.44753529 11.95131923 -4.43902141 7.18747628 -1 1 C-0.67 0.67 -0.34 0.34 0 0 Z " fill="#585454" transform="translate(34,19)"/>
<path d="M0 0 C1.32 0.33 2.64 0.66 4 1 C5.12029814 6.48946087 4.79217969 9.83430559 3 15 C0.73045369 11.59568053 0.63450051 9.83475798 0.375 5.8125 C0.30023437 4.72582031 0.22546875 3.63914062 0.1484375 2.51953125 C0.09945313 1.68808594 0.05046875 0.85664063 0 0 Z " fill="#A68F6C" transform="translate(23,21)"/>
<path d="M0 0 C2.42945561 3.64418341 2.0828781 4.92923364 1.625 9.1875 C1.45871094 10.81751953 1.45871094 10.81751953 1.2890625 12.48046875 C1.14597656 13.72763672 1.14597656 13.72763672 1 15 C0.67 15 0.34 15 0 15 C-0.33 12.03 -0.66 9.06 -1 6 C-2.175625 6.5259375 -2.175625 6.5259375 -3.375 7.0625 C-4.674375 7.5265625 -4.674375 7.5265625 -6 8 C-6.66 7.67 -7.32 7.34 -8 7 C-8.66 7.66 -9.32 8.32 -10 9 C-10 7.68 -10 6.36 -10 5 C-8.72125 4.9175 -7.4425 4.835 -6.125 4.75 C-3.94666582 4.54130069 -3.94666582 4.54130069 -2 4 C-0.4100567 2.07935207 -0.4100567 2.07935207 0 0 Z " fill="#8F9097" transform="translate(41,9)"/>
<path d="M0 0 C1.32 0.66 2.64 1.32 4 2 C3.01 2.33 2.02 2.66 1 3 C1.99 3.33 2.98 3.66 4 4 C3.75390625 5.890625 3.75390625 5.890625 3 8 C1.15234375 9.046875 1.15234375 9.046875 -1.0625 9.75 C-2.16271484 10.11351562 -2.16271484 10.11351562 -3.28515625 10.484375 C-4.13400391 10.73960938 -4.13400391 10.73960938 -5 11 C-4.14254495 8.42763485 -3.1606471 6.21933783 -1.9375 3.8125 C-1.57527344 3.09707031 -1.21304688 2.38164063 -0.83984375 1.64453125 C-0.42412109 0.83048828 -0.42412109 0.83048828 0 0 Z " fill="#CBC8C2" transform="translate(47,1)"/>
<path d="M0 0 C0 0.99 0 1.98 0 3 C-0.33 3.33 -0.66 3.66 -1 4 C-1.28479122 6.77558423 -1.44843019 9.55127845 -1.62109375 12.3359375 C-2 15 -2 15 -4 18 C-4.33 13.05 -4.66 8.1 -5 3 C-3.35 2.01 -1.7 1.02 0 0 Z " fill="#63666F" transform="translate(40,14)"/>
<path d="M0 0 C0.99 0.99 1.98 1.98 3 3 C2.34 4.98 1.68 6.96 1 9 C-2.68802044 7.77065985 -3.72356973 6.06140622 -6 3 C-5.38125 2.87625 -4.7625 2.7525 -4.125 2.625 C-1.80879168 2.12802644 -1.80879168 2.12802644 0 0 Z " fill="#E1DFD9" transform="translate(43,1)"/>
<path d="M0 0 C0.33 0.66 0.66 1.32 1 2 C2.65 1.34 4.3 0.68 6 0 C4.880462 2.51896049 3.68018448 4.39734655 1.9375 6.5625 C-0.16384349 8.92026019 -0.16384349 8.92026019 -1 12 C-1.66 12 -2.32 12 -3 12 C-2.690625 11.319375 -2.38125 10.63875 -2.0625 9.9375 C-0.86629351 6.63034088 -0.40994603 3.48454122 0 0 Z " fill="#4B4544" transform="translate(25,39)"/>
<path d="M0 0 C0.96070434 2.88211302 1.10581883 4.69850044 1.0625 7.6875 C1.05347656 8.49574219 1.04445313 9.30398437 1.03515625 10.13671875 C1.02355469 10.75160156 1.01195312 11.36648437 1 12 C-0.32 11.67 -1.64 11.34 -3 11 C-2.814375 9.88625 -2.62875 8.7725 -2.4375 7.625 C-1.68319343 4.17431139 -1.68319343 4.17431139 -3 2 C-2.01 1.34 -1.02 0.68 0 0 Z " fill="#957D5B" transform="translate(29,26)"/>
<path d="M0 0 C3.3 0.99 6.6 1.98 10 3 C10 4.32 10 5.64 10 7 C9.34 7 8.68 7 8 7 C8 6.34 8 5.68 8 5 C6.865625 4.731875 5.73125 4.46375 4.5625 4.1875 C3.386875 3.795625 2.21125 3.40375 1 3 C0.67 2.01 0.34 1.02 0 0 Z " fill="#A29474" transform="translate(18,34)"/>
<path d="M0 0 C0.66 0.33 1.32 0.66 2 1 C1.67 3.64 1.34 6.28 1 9 C-0.33333333 9 -1.66666667 9 -3 9 C-2.4140625 2.84765625 -2.4140625 2.84765625 -2 1 C-1.34 0.67 -0.68 0.34 0 0 Z " fill="#6C707B" transform="translate(45,10)"/>
<path d="M0 0 C0.99 0.33 1.98 0.66 3 1 C2.29445932 4.66881155 0.72264494 7.70450534 -1 11 C-1.66 9.68 -2.32 8.36 -3 7 C-2.34 7 -1.68 7 -1 7 C-0.67 4.69 -0.34 2.38 0 0 Z " fill="#887F76" transform="translate(32,15)"/>
<path d="M0 0 C1.98 0.495 1.98 0.495 4 1 C2.515 4.96 2.515 4.96 1 9 C-0.61949011 6.42786866 -1.04408751 5.32330841 -0.625 2.25 C-0.41875 1.5075 -0.2125 0.765 0 0 Z " fill="#BBB7AB" transform="translate(9,0)"/>
<path d="M0 0 C1.67542976 0.28604898 3.34385343 0.61781233 5 1 C4.67 2.65 4.34 4.3 4 6 C3.01 6 2.02 6 1 6 C0.34 4.35 -0.32 2.7 -1 1 C-0.67 0.67 -0.34 0.34 0 0 Z " fill="#D1CABD" transform="translate(8,25)"/>
<path d="M0 0 C1.32 0.33 2.64 0.66 4 1 C4.33 2.65 4.66 4.3 5 6 C3.68 6 2.36 6 1 6 C0.67 4.02 0.34 2.04 0 0 Z " fill="#9B8666" transform="translate(23,21)"/>
<path d="M0 0 C1.7074998 1.28062485 3.37373596 2.61767557 5 4 C5 4.66 5 5.32 5 6 C3.68 6.33 2.36 6.66 1 7 C0 4 0 4 0 0 Z " fill="#E2DFD3" transform="translate(18,4)"/>
<path d="M0 0 C2.875 -0.125 2.875 -0.125 6 0 C6.66 0.66 7.32 1.32 8 2 C7.625 4.625 7.625 4.625 7 7 C5 4 5 4 5 2 C3.35 1.67 1.7 1.34 0 1 C0 0.67 0 0.34 0 0 Z " fill="#AC9778" transform="translate(22,20)"/>
<path d="M0 0 C0.99 0.33 1.98 0.66 3 1 C2.34 1.66 1.68 2.32 1 3 C0.61596877 4.94151362 0.61596877 4.94151362 0.5 7.0625 C0.335 8.361875 0.17 9.66125 0 11 C-0.99 11.495 -0.99 11.495 -2 12 C-1.85962479 10.18706911 -1.71255111 8.3746557 -1.5625 6.5625 C-1.48128906 5.55316406 -1.40007813 4.54382813 -1.31640625 3.50390625 C-1 1 -1 1 0 0 Z " fill="#5F646F" transform="translate(47,10)"/>
<path d="M0 0 C2.97 0 5.94 0 9 0 C8.34 1.65 7.68 3.3 7 5 C6.34 3.68 5.68 2.36 5 1 C3.35 1.33 1.7 1.66 0 2 C0 1.34 0 0.68 0 0 Z " fill="#A5A197" transform="translate(0,0)"/>
<path d="M0 0 C0.99 0.33 1.98 0.66 3 1 C3.33 2.65 3.66 4.3 4 6 C2.02 5.34 0.04 4.68 -2 4 C-1.34 2.68 -0.68 1.36 0 0 Z " fill="#CEC2A8" transform="translate(22,31)"/>
<path d="M0 0 C0 0.66 0 1.32 0 2 C-0.99 2.33 -1.98 2.66 -3 3 C-3.66 2.67 -4.32 2.34 -5 2 C-5.66 2.66 -6.32 3.32 -7 4 C-7 2.68 -7 1.36 -7 0 C-3.98968256 -0.93423645 -3.13349732 -1.04449911 0 0 Z " fill="#9B9793" transform="translate(38,14)"/>
</svg>
