<?xml version="1.0" encoding="UTF-8"?>
<svg version="1.1" xmlns="http://www.w3.org/2000/svg" width="96" height="96">
<path d="M0 0 C1.31653564 0.01135986 1.31653564 0.01135986 2.65966797 0.02294922 C9.45144448 0.1952272 15.06562583 1.23369297 21.125 4.4375 C21.98222656 4.87320312 22.83945313 5.30890625 23.72265625 5.7578125 C36.08766834 12.58374678 43.23004062 22.68856753 47.52075195 36.01293945 C48.54203578 40.11086661 48.61362209 44.10669413 48.5625 48.3125 C48.55492676 49.19019043 48.54735352 50.06788086 48.53955078 50.97216797 C48.3672728 57.76394448 47.32880703 63.37812583 44.125 69.4375 C43.47144531 70.72333984 43.47144531 70.72333984 42.8046875 72.03515625 C35.97875322 84.40016834 25.87393247 91.54254062 12.54956055 95.83325195 C8.45163339 96.85453578 4.45580587 96.92612209 0.25 96.875 C-0.62769043 96.86742676 -1.50538086 96.85985352 -2.40966797 96.85205078 C-9.20144448 96.6797728 -14.81562583 95.64130703 -20.875 92.4375 C-22.16083984 91.78394531 -22.16083984 91.78394531 -23.47265625 91.1171875 C-35.83766834 84.29125322 -42.98004062 74.18643247 -47.27075195 60.86206055 C-48.29203578 56.76413339 -48.36362209 52.76830587 -48.3125 48.5625 C-48.30492676 47.68480957 -48.29735352 46.80711914 -48.28955078 45.90283203 C-48.1172728 39.11105552 -47.07880703 33.49687417 -43.875 27.4375 C-43.43929687 26.58027344 -43.00359375 25.72304688 -42.5546875 24.83984375 C-35.72875322 12.47483166 -25.62393247 5.33245938 -12.29956055 1.04174805 C-8.20163339 0.02046422 -4.20580587 -0.05112209 0 0 Z " fill="#3E393D" transform="translate(47.875,-0.4375)"/>
<path d="M0 0 C1.31653564 0.01135986 1.31653564 0.01135986 2.65966797 0.02294922 C13.35696433 0.29429334 22.56563472 3.93906649 31.125 10.4375 C31.125 11.0975 31.125 11.7575 31.125 12.4375 C29.26953125 12.86067708 27.4140625 13.28385417 25.55859375 13.70703125 C22.28282673 14.69028716 19.25272645 16.053718 16.125 17.4375 C16.13660156 18.64148438 16.14820312 19.84546875 16.16015625 21.0859375 C16.16953434 22.66145679 16.17863452 24.23697775 16.1875 25.8125 C16.19587891 26.6065625 16.20425781 27.400625 16.21289062 28.21875 C16.23828125 34.2109375 16.23828125 34.2109375 15.125 36.4375 C14.73272162 39.14622518 14.37930502 41.84501693 14.0625 44.5625 C13.97162109 45.31660156 13.88074219 46.07070313 13.78710938 46.84765625 C13.56309148 48.71054188 13.34361427 50.57397252 13.125 52.4375 C12.795 52.4375 12.465 52.4375 12.125 52.4375 C12.09550768 48.97918516 12.0780384 45.52090346 12.0625 42.0625 C12.05412109 41.09699219 12.04574219 40.13148437 12.03710938 39.13671875 C12.01597695 32.83925711 12.36392802 26.68910137 13.125 20.4375 C11.475 21.0975 9.825 21.7575 8.125 22.4375 C7.795 27.7175 7.465 32.9975 7.125 38.4375 C6.795 38.4375 6.465 38.4375 6.125 38.4375 C5.63 32.4975 5.63 32.4975 5.125 26.4375 C2.90310176 28.65939824 2.19901108 30.52232708 1.125 33.4375 C0.465 33.4375 -0.195 33.4375 -0.875 33.4375 C-2.87013838 39.50304117 -3.23825938 45.03469531 -3.35351562 51.38476562 C-3.50777862 55.60254166 -3.69383223 58.47518406 -6.875 61.4375 C-7.535 61.4375 -8.195 61.4375 -8.875 61.4375 C-9.205 60.4475 -9.535 59.4575 -9.875 58.4375 C-11.71968621 57.35750727 -11.71968621 57.35750727 -14.0625 56.5625 C-14.96871094 56.2221875 -15.87492187 55.881875 -16.80859375 55.53125 C-20.0773692 54.36531736 -23.35113974 53.21407204 -26.625 52.0625 C-33.86222698 49.50958806 -40.85944145 46.54012544 -47.875 43.4375 C-47.875 32.42406734 -42.02578699 21.24644473 -34.5625 13.3125 C-24.83822608 4.54224263 -13.0193763 -0.15825211 0 0 Z " fill="#8A827A" transform="translate(47.875,-0.4375)"/>
<path d="M0 0 C9.50604717 11.52523142 11.13471657 24.28707478 10.22753906 38.75341797 C9.73359565 43.63031419 8.275992 47.69540644 6 52 C5.56429687 52.85722656 5.12859375 53.71445313 4.6796875 54.59765625 C-0.85385374 64.62153014 -8.37980818 71.57747055 -19 76 C-20.98901526 76.39361075 -22.98871138 76.74342799 -25 77 C-26.04976964 73.85069107 -26.10131595 71.61185544 -26.0625 68.3125 C-26.05347656 67.31863281 -26.04445312 66.32476562 -26.03515625 65.30078125 C-26.01775391 64.16189453 -26.01775391 64.16189453 -26 63 C-26.33 63 -26.66 63 -27 63 C-27 51.12 -27 39.24 -27 27 C-26.34 28.32 -25.68 29.64 -25 31 C-24.93941406 30.18015625 -24.87882812 29.3603125 -24.81640625 28.515625 C-24.73261719 27.43796875 -24.64882813 26.3603125 -24.5625 25.25 C-24.48128906 24.18265625 -24.40007813 23.1153125 -24.31640625 22.015625 C-24 19 -24 19 -23.46875 17.09375 C-22.73985534 13.83802051 -22.89673339 10.56777498 -22.9375 7.25 C-22.94201172 6.55261719 -22.94652344 5.85523438 -22.95117188 5.13671875 C-22.9628998 3.42444197 -22.98083347 1.71220967 -23 0 C-7.48287693 -8.31055406 -7.48287693 -8.31055406 0 0 Z " fill="#444249" transform="translate(86,17)"/>
<path d="M0 0 C3.26008643 3.16952847 6.22237877 6.39937989 9 10 C7.68 10.33 6.36 10.66 5 11 C5.33 11.721875 5.66 12.44375 6 13.1875 C7.03292233 16.09259406 7.3127968 17.95023123 7 21 C6.505 21.928125 6.505 21.928125 6 22.875 C4.51307283 26.03472024 4.6976341 28.55302876 5 32 C6.40460697 34.87305972 7.74510999 36.74510999 10 39 C10.25448769 40.97227962 10.50545873 42.94678234 10.65625 44.9296875 C11.04176215 47.25152206 11.86160051 48.95271705 13 51 C6.60475547 49.25970116 0.54152159 47.07681707 -5.55078125 44.47265625 C-9.76815344 42.67203415 -14.00793835 40.92896401 -18.25 39.1875 C-19.73440346 38.5768921 -21.21878081 37.96622072 -22.703125 37.35546875 C-24.33507812 36.68451172 -24.33507812 36.68451172 -26 36 C-24.09077196 23.48394952 -17.75930075 13.01062058 -8 5 C-5.38873581 3.15649953 -2.78997021 1.57252867 0 0 Z " fill="#C8C4B8" transform="translate(26,4)"/>
<path d="M0 0 C8.02618236 2.23076619 15.74291602 5.10060883 23.5 8.125 C24.67820312 8.58003906 25.85640625 9.03507812 27.0703125 9.50390625 C35.67044005 12.83522003 35.67044005 12.83522003 38 14 C37.26025225 17.74440221 35.69938879 20.94113549 34.0625 24.375 C30.94662582 30.91297679 28.86559435 36.78671376 28 44 C14.73573382 38.48937585 7.64926667 29.58412602 1.96875 16.65234375 C-0.16302559 11.05643282 -0.2740213 5.93075564 0 0 Z " fill="#BCB391" transform="translate(0,48)"/>
<path d="M0 0 C-0.375 1.9375 -0.375 1.9375 -1 4 C-1.66 4.33 -2.32 4.66 -3 5 C-3.45335951 6.99728443 -3.45335951 6.99728443 -3.59765625 9.41796875 C-3.6764502 10.33690918 -3.75524414 11.25584961 -3.83642578 12.20263672 C-3.91103027 13.1876416 -3.98563477 14.17264648 -4.0625 15.1875 C-4.14483887 16.18023926 -4.22717773 17.17297852 -4.31201172 18.19580078 C-4.55226933 21.12979818 -4.77882929 24.06450788 -5 27 C-5.09112061 28.19375244 -5.09112061 28.19375244 -5.18408203 29.41162109 C-5.47616001 33.2731536 -5.7494048 37.13555829 -6 41 C-6.99 41.33 -7.98 41.66 -9 42 C-9 41.34 -9 40.68 -9 40 C-11.83151973 39.58190799 -11.83151973 39.58190799 -15 40 C-17.21531661 42.22712063 -17.21531661 42.22712063 -19 45 C-20.0209375 45.928125 -20.0209375 45.928125 -21.0625 46.875 C-23.56746857 49.62238488 -24.60586942 52.57804313 -26 56 C-26.66 56.66 -27.32 57.32 -28 58 C-28.60713803 59.85483454 -29.14131052 61.73421385 -29.625 63.625 C-29.88539062 64.62789063 -30.14578125 65.63078125 -30.4140625 66.6640625 C-30.60742188 67.43492188 -30.80078125 68.20578125 -31 69 C-31.66 69 -32.32 69 -33 69 C-32.33922623 59.30865133 -27.41031301 50.49393616 -23 42 C-23.55220215 41.84942139 -24.1044043 41.69884277 -24.67333984 41.54370117 C-32.52197589 39.30475106 -40.05405614 36.33448284 -47.625 33.3125 C-48.92823533 32.79584522 -50.23161985 32.27956658 -51.53515625 31.76367188 C-54.69158526 30.51279075 -57.84646588 29.25815732 -61 28 C-61 26.35 -61 24.7 -61 23 C-54.51656081 24.72985471 -48.5914092 27.01948391 -42.5234375 29.875 C-39.4221791 31.25760436 -36.27298937 32.10736654 -33 33 C-31.19821698 33.59520785 -29.40675435 34.22227811 -27.625 34.875 C-26.77164063 35.18179688 -25.91828125 35.48859375 -25.0390625 35.8046875 C-23 37 -23 37 -22.2109375 39.1328125 C-22.10652344 40.05707031 -22.10652344 40.05707031 -22 41 C-19.8616825 39.5136586 -19.8616825 39.5136586 -18 37 C-17.62508282 34.12563498 -17.43998285 31.56015342 -17.4375 28.6875 C-17.4007012 22.69980923 -16.83149344 18.35145337 -14 13 C-13.34 12.67 -12.68 12.34 -12 12 C-11.690625 11.21625 -11.38125 10.4325 -11.0625 9.625 C-10.01626291 7.04017895 -9.07886465 5.7953831 -7 4 C-6.505 5.485 -6.505 5.485 -6 7 C-5.896875 6.21625 -5.79375 5.4325 -5.6875 4.625 C-4.82572663 1.33459258 -3.53157582 0 0 0 Z " fill="#514F52" transform="translate(61,20)"/>
<path d="M0 0 C2.6653235 3.1983882 3.9397248 5.18628475 4.25 9.375 C4.1675 10.24125 4.085 11.1075 4 12 C3.34 12 2.68 12 2 12 C2 12.66 2 13.32 2 14 C2.928125 14.433125 2.928125 14.433125 3.875 14.875 C6 16 6 16 8 18 C9.01291343 23.65749207 9.08538336 29.02815668 8.75 34.75 C8.70939453 35.86181641 8.70939453 35.86181641 8.66796875 36.99609375 C8.43594576 41.16502287 8.1195492 44.06577056 5 47 C4.34 47 3.68 47 3 47 C2.67 46.01 2.34 45.02 2 44 C0.15531379 42.92000727 0.15531379 42.92000727 -2.1875 42.125 C-3.09371094 41.7846875 -3.99992187 41.444375 -4.93359375 41.09375 C-8.2023692 39.92781736 -11.47613974 38.77657204 -14.75 37.625 C-21.98722698 35.07208806 -28.98444145 32.10262544 -36 29 C-36 28.01 -36 27.02 -36 26 C-29.80752099 28.02537009 -23.67231161 30.17550616 -17.5625 32.4375 C-16.73645264 32.74244385 -15.91040527 33.0473877 -15.05932617 33.36157227 C-9.33555039 35.4831371 -3.64082605 37.66536505 2 40 C1.34 39.01 0.68 38.02 0 37 C-0.12375 35.700625 -0.2475 34.40125 -0.375 33.0625 C-0.76633391 29.10567934 -1.92343244 27.59585388 -5 25 C-6.17990239 21.46029282 -6.19569268 18.71816101 -6 15 C-5.65839844 14.37480469 -5.31679688 13.74960937 -4.96484375 13.10546875 C-3.72686025 10.40395819 -3.99036916 8.67319441 -4.375 5.75 C-4.48585938 4.85796875 -4.59671875 3.9659375 -4.7109375 3.046875 C-4.80632813 2.37140625 -4.90171875 1.6959375 -5 1 C-3 0 -3 0 0 0 Z " fill="#AC9A74" transform="translate(36,14)"/>
<path d="M0 0 C6.18157144 0.60204605 11.61833761 2.44682181 17.4375 4.5625 C18.82098633 5.0565332 18.82098633 5.0565332 20.23242188 5.56054688 C22.4904648 6.36782647 24.74615565 7.18108727 27 8 C27.66 6.68 28.32 5.36 29 4 C33.72404146 7.87613658 33.72404146 7.87613658 34.484375 10.97265625 C34.67944742 12.97965131 34.8404657 14.98986786 35 17 C35.95734941 19.19219635 35.95734941 19.19219635 37 21 C30.60475547 19.25970116 24.54152159 17.07681707 18.44921875 14.47265625 C14.23184656 12.67203415 9.99206165 10.92896401 5.75 9.1875 C4.26559654 8.5768921 2.78121919 7.96622072 1.296875 7.35546875 C0.20890625 6.90816406 -0.8790625 6.46085937 -2 6 C-1.34 4.02 -0.68 2.04 0 0 Z " fill="#D5CFC0" transform="translate(2,34)"/>
<path d="M0 0 C14.08368707 -0.63615149 25.37813697 1.17645974 37 10 C37 10.66 37 11.32 37 12 C35.824375 12.268125 34.64875 12.53625 33.4375 12.8125 C31.95547904 13.197509 30.47630667 13.59362987 29 14 C28.32195312 14.18304688 27.64390625 14.36609375 26.9453125 14.5546875 C24.78519032 15.20784528 24.78519032 15.20784528 22 17 C20.9384058 20.58863524 20.9384058 20.58863524 21 24 C20.67 24 20.34 24 20 24 C19.96261719 23.16855469 19.92523438 22.33710938 19.88671875 21.48046875 C19.82097656 20.39378906 19.75523438 19.30710937 19.6875 18.1875 C19.62949219 17.10855469 19.57148437 16.02960937 19.51171875 14.91796875 C19.2211098 12.0388072 19.2211098 12.0388072 17.71875 10.1875 C15.74797877 8.82587624 14.14976268 8.31060516 11.8125 7.8125 C10.554375 7.544375 9.29625 7.27625 8 7 C8.33 8.65 8.66 10.3 9 12 C7.35 12 5.7 12 4 12 C3.54427083 10.046875 3.08854167 8.09375 2.6328125 6.140625 C1.97942104 3.93038723 1.08693753 2.02773221 0 0 Z " fill="#D2CEC7" transform="translate(42,0)"/>
<path d="M0 0 C2.72919661 3.18406272 3.9379775 5.16269626 4.25 9.375 C4.1675 10.24125 4.085 11.1075 4 12 C6.31 12.33 8.62 12.66 11 13 C11 12.34 11 11.68 11 11 C11.66 11 12.32 11 13 11 C13 13.64 13 16.28 13 19 C11.27327966 19.36590746 9.54346345 19.71722195 7.8125 20.0625 C6.36810547 20.35833984 6.36810547 20.35833984 4.89453125 20.66015625 C1.85113984 21.01747751 -0.10670653 21.00281648 -3 20 C-4.84375 18.1796875 -4.84375 18.1796875 -6.5 15.875 C-7.08910156 15.06933594 -7.67820312 14.26367188 -8.28515625 13.43359375 C-8.85105469 12.63050781 -9.41695312 11.82742188 -10 11 C-10.51433594 10.28972656 -11.02867188 9.57945313 -11.55859375 8.84765625 C-12.71848131 7.24089983 -13.86127368 5.62182234 -15 4 C-13.25307205 3.32532438 -11.50231475 2.66055844 -9.75 2 C-8.77546875 1.62875 -7.8009375 1.2575 -6.796875 0.875 C-4 0 -4 0 0 0 Z " fill="#8B8683" transform="translate(42,0)"/>
<path d="M0 0 C2.6653235 3.1983882 3.9397248 5.18628475 4.25 9.375 C4.1675 10.24125 4.085 11.1075 4 12 C3.34 12 2.68 12 2 12 C2 12.66 2 13.32 2 14 C2.928125 14.433125 2.928125 14.433125 3.875 14.875 C6 16 6 16 8 18 C8.39764263 19.98821313 8.73775349 21.98944339 9 24 C8.01 24 7.02 24 6 24 C6.33 23.34 6.66 22.68 7 22 C6.01 21.67 5.02 21.34 4 21 C4 20.34 4 19.68 4 19 C2.02 18.01 0.04 17.02 -2 16 C-1.67 17.2375 -1.34 18.475 -1 19.75 C-0.20108841 22.74591845 0 24.80107719 0 28 C-2.32758311 27.06896676 -3.74357132 26.34617872 -5.25 24.3125 C-6.29452766 21.09187306 -6.24035108 18.36491517 -6 15 C-5.65710938 14.37609375 -5.31421875 13.7521875 -4.9609375 13.109375 C-3.72941662 10.40603649 -3.99046093 8.67249694 -4.375 5.75 C-4.48585938 4.85796875 -4.59671875 3.9659375 -4.7109375 3.046875 C-4.80632813 2.37140625 -4.90171875 1.6959375 -5 1 C-3 0 -3 0 0 0 Z " fill="#A49582" transform="translate(36,14)"/>
<path d="M0 0 C6.47807415 1.72842325 12.40049684 4.01159006 18.4609375 6.87109375 C21.5627603 8.25021189 24.7307414 9.10255646 28 10 C31.52014329 11.55698645 34.59347937 12.92500141 37 16 C37 16.66 37 17.32 37 18 C28.7343353 16.50696372 21.19204841 13.50165915 13.4375 10.375 C12.12980555 9.85354366 10.82186443 9.33270546 9.51367188 8.8125 C6.33997606 7.5477061 3.16890434 6.2767405 0 5 C0 3.35 0 1.7 0 0 Z " fill="#3C3D34" transform="translate(0,43)"/>
<path d="M0 0 C-0.66 1.32 -1.32 2.64 -2 4 C-2.66 3.34 -3.32 2.68 -4 2 C-4.66 2.66 -5.32 3.32 -6 4 C-6.68707031 4.23460937 -7.37414062 4.46921875 -8.08203125 4.7109375 C-8.71496094 5.13632812 -9.34789063 5.56171875 -10 6 C-10.67377618 9.06891732 -10.67377618 9.06891732 -10.6875 12.625 C-10.74164063 13.87796875 -10.79578125 15.1309375 -10.8515625 16.421875 C-10.90054688 17.60265625 -10.94953125 18.7834375 -11 20 C-11.27116551 22.6806648 -11.62639323 25.33138022 -12 28 C-12.99 28 -13.98 28 -15 28 C-15.05389087 26.04196493 -15.09274217 24.08351091 -15.125 22.125 C-15.14820312 21.03445312 -15.17140625 19.94390625 -15.1953125 18.8203125 C-15 16 -15 16 -13 14 C-13.66 12.35 -14.32 10.7 -15 9 C-15.99 9.33 -16.98 9.66 -18 10 C-18 8.35 -18 6.7 -18 5 C-4.48091603 -2.24045802 -4.48091603 -2.24045802 0 0 Z " fill="#6A6E78" transform="translate(81,12)"/>
<path d="M0 0 C6.13722814 0.32301201 11.16230728 3.3956321 16 7 C16 7.66 16 8.32 16 9 C14.824375 9.268125 13.64875 9.53625 12.4375 9.8125 C10.95547904 10.197509 9.47630667 10.59362987 8 11 C7.32195312 11.18304688 6.64390625 11.36609375 5.9453125 11.5546875 C3.78519032 12.20784528 3.78519032 12.20784528 1 14 C-0.0615942 17.58863524 -0.0615942 17.58863524 0 21 C-0.33 21 -0.66 21 -1 21 C-1.02708567 19.39592672 -1.04643483 17.7917215 -1.0625 16.1875 C-1.07410156 15.29417969 -1.08570313 14.40085937 -1.09765625 13.48046875 C-1 11 -1 11 0 8 C0.66 7.67 1.32 7.34 2 7 C2.33 6.01 2.66 5.02 3 4 C2.34 4 1.68 4 1 4 C0.67 2.68 0.34 1.36 0 0 Z " fill="#D6D6D0" transform="translate(63,3)"/>
<path d="M0 0 C1.32 0.33 2.64 0.66 4 1 C4.36365773 4.62411412 4.71431366 8.24936937 5.0625 11.875 C5.16626953 12.90753906 5.27003906 13.94007812 5.37695312 15.00390625 C5.51713867 16.48310547 5.51713867 16.48310547 5.66015625 17.9921875 C5.74918213 18.90339355 5.83820801 19.81459961 5.92993164 20.75341797 C6 23 6 23 5 25 C4.60772162 27.70872518 4.25430502 30.40751693 3.9375 33.125 C3.84662109 33.87910156 3.75574219 34.63320313 3.66210938 35.41015625 C3.43809148 37.27304188 3.21861427 39.13647252 3 41 C2.67 41 2.34 41 2 41 C1.97050768 37.54168516 1.9530384 34.08340346 1.9375 30.625 C1.92912109 29.65949219 1.92074219 28.69398437 1.91210938 27.69921875 C1.89097695 21.40175711 2.23892802 15.25160137 3 9 C1.35 9.66 -0.3 10.32 -2 11 C-2.28571429 3.57142857 -2.28571429 3.57142857 0 0 Z " fill="#85858B" transform="translate(58,11)"/>
<path d="M0 0 C1.258125 0.12375 2.51625 0.2475 3.8125 0.375 C4.87404297 0.47941406 4.87404297 0.47941406 5.95703125 0.5859375 C8 1 8 1 11 3 C10 5 10 5 8 6 C6.76079748 8.47840505 6.69268965 10.46203224 6.46484375 13.2265625 C6.33432617 14.7734375 6.33432617 14.7734375 6.20117188 16.3515625 C6.0706543 17.97191406 6.0706543 17.97191406 5.9375 19.625 C5.84662109 20.71296875 5.75574219 21.8009375 5.66210938 22.921875 C5.43774049 25.61430157 5.21719886 28.30698709 5 31 C4.67 31 4.34 31 4 31 C3.67 26.71 3.34 22.42 3 18 C1.02 17.67 -0.96 17.34 -3 17 C-3.33 15.68 -3.66 14.36 -4 13 C-2.02 13 -0.04 13 2 13 C2.33 12.34 2.66 11.68 3 11 C3.66 11.33 4.32 11.66 5 12 C5 9.36 5 6.72 5 4 C4.34 4 3.68 4 3 4 C3 4.66 3 5.32 3 6 C2.34 6 1.68 6 1 6 C0.67 4.02 0.34 2.04 0 0 Z " fill="#9B9BA0" transform="translate(50,7)"/>
<path d="M0 0 C0 4.95 0 9.9 0 15 C-0.99 15 -1.98 15 -3 15 C-5.26171875 12.59375 -5.26171875 12.59375 -7.6875 9.5 C-8.89986328 7.96859375 -8.89986328 7.96859375 -10.13671875 6.40625 C-10.75160156 5.6121875 -11.36648437 4.818125 -12 4 C-7.78328652 0.65571 -5.56843727 0 0 0 Z " fill="#716866" transform="translate(39,1)"/>
<path d="M0 0 C2.475 0.99 2.475 0.99 5 2 C5 2.99 5 3.98 5 5 C6.65 3.68 8.3 2.36 10 1 C8.89125579 6.54372103 8.15517211 9.0966565 4 13 C2.96157435 15.31648799 1.9578025 17.64903024 1 20 C0.34 20.66 -0.32 21.32 -1 22 C-1.60713803 23.85483454 -2.14131052 25.73421385 -2.625 27.625 C-2.88539062 28.62789062 -3.14578125 29.63078125 -3.4140625 30.6640625 C-3.60742188 31.43492188 -3.80078125 32.20578125 -4 33 C-4.66 33 -5.32 33 -6 33 C-5.33922623 23.30865133 -0.41031301 14.49393616 4 6 C3.34 5.67 2.68 5.34 2 5 C2 4.34 2 3.68 2 3 C1.01 2.34 0.02 1.68 -1 1 C-0.67 0.67 -0.34 0.34 0 0 Z " fill="#5F5750" transform="translate(34,56)"/>
<path d="M0 0 C-0.375 1.9375 -0.375 1.9375 -1 4 C-1.99 4.495 -1.99 4.495 -3 5 C-3.45335951 6.99728443 -3.45335951 6.99728443 -3.59765625 9.41796875 C-3.67628906 10.33682861 -3.75492188 11.25568848 -3.8359375 12.20239258 C-3.91070312 13.18747803 -3.98546875 14.17256348 -4.0625 15.1875 C-4.18818359 16.67769653 -4.18818359 16.67769653 -4.31640625 18.19799805 C-4.68518361 22.64241342 -5.01670923 27.08697875 -5.27734375 31.5390625 C-5.35082031 32.78429688 -5.42429688 34.02953125 -5.5 35.3125 C-5.57734375 36.94638672 -5.57734375 36.94638672 -5.65625 38.61328125 C-5.82640625 39.79470703 -5.82640625 39.79470703 -6 41 C-6.99 41.495 -6.99 41.495 -8 42 C-8 32.76 -8 23.52 -8 14 C-7.67 14 -7.34 14 -7 14 C-6.89042969 13.15695313 -6.78085937 12.31390625 -6.66796875 11.4453125 C-6.50941406 10.34960938 -6.35085937 9.25390625 -6.1875 8.125 C-6.03667969 7.03445312 -5.88585938 5.94390625 -5.73046875 4.8203125 C-4.85302953 1.43255254 -3.6738008 0 0 0 Z " fill="#5E5E64" transform="translate(61,20)"/>
<path d="M0 0 C2.31 0.66 4.62 1.32 7 2 C6.67 2.99 6.34 3.98 6 5 C7.32 5.33 8.64 5.66 10 6 C9.34 6.66 8.68 7.32 8 8 C8 7.34 8 6.68 8 6 C7.01 6 6.02 6 5 6 C5 7.32 5 8.64 5 10 C5.66 10.33 6.32 10.66 7 11 C7 14.11227195 6.54372951 16.94152152 6 20 C2.39266687 16.88457594 1.20856716 13.5681889 0.5859375 8.88671875 C0.51632813 7.83097656 0.44671875 6.77523437 0.375 5.6875 C0.26285156 4.08455078 0.26285156 4.08455078 0.1484375 2.44921875 C0.09945312 1.64097656 0.05046875 0.83273438 0 0 Z " fill="#AA9472" transform="translate(34,30)"/>
<path d="M0 0 C0.99 0 1.98 0 3 0 C3 0.99 3 1.98 3 3 C3.99 2.67 4.98 2.34 6 2 C5.85899143 4.27113803 5.71203245 6.54190725 5.5625 8.8125 C5.48128906 10.07707031 5.40007813 11.34164062 5.31640625 12.64453125 C5 16 5 16 4 19 C3.34 19 2.68 19 2 19 C2 18.34 2 17.68 2 17 C1.34 17 0.68 17 0 17 C0.08378906 16.31292969 0.16757812 15.62585937 0.25390625 14.91796875 C0.35574219 14.01691406 0.45757812 13.11585937 0.5625 12.1875 C0.66691406 11.29417969 0.77132812 10.40085937 0.87890625 9.48046875 C1.15658709 6.86624428 1.15658709 6.86624428 0 4 C0 2.68 0 1.36 0 0 Z " fill="#967F63" transform="translate(39,36)"/>
<path d="M0 0 C7.13391109 2.25907184 14.27549175 4.69232792 21 8 C21.33 8.66 21.66 9.32 22 10 C22.99 10.66 23.98 11.32 25 12 C21.51423718 11.38965243 18.4128077 10.48391539 15.13671875 9.15234375 C14.25048828 8.79462891 13.36425781 8.43691406 12.45117188 8.06835938 C11.53916016 7.69517578 10.62714844 7.32199219 9.6875 6.9375 C8.75615234 6.56044922 7.82480469 6.18339844 6.86523438 5.79492188 C4.57521083 4.86716875 2.28690004 3.93541999 0 3 C0 2.01 0 1.02 0 0 Z " fill="#8D8876" transform="translate(0,40)"/>
<path d="M0 0 C3.39145689 0.30831426 5.53408183 0.66000566 8.3125 2.6875 C10.33999434 5.46591817 10.69168574 7.60854311 11 11 C10.01 11 9.02 11 8 11 C8.33 10.34 8.66 9.68 9 9 C8.01 8.67 7.02 8.34 6 8 C6 7.34 6 6.68 6 6 C4.02 5.01 2.04 4.02 0 3 C0.33 6.3 0.66 9.6 1 13 C0.34 12.67 -0.32 12.34 -1 12 C-2.08209933 7.31090292 -2.21980248 4.30902834 0 0 Z " fill="#B19E7F" transform="translate(34,27)"/>
<path d="M0 0 C2.31 0.33 4.62 0.66 7 1 C7 1.99 7 2.98 7 4 C7.66 4 8.32 4 9 4 C8.67 5.32 8.34 6.64 8 8 C7.34 8 6.68 8 6 8 C5.67 8.99 5.34 9.98 5 11 C4.6596875 10.1028125 4.6596875 10.1028125 4.3125 9.1875 C2.66188867 6.43648112 0.8027919 5.47515363 -2 4 C-1.34 2.68 -0.68 1.36 0 0 Z " fill="#E7E6DE" transform="translate(57,3)"/>
<path d="M0 0 C5.33663312 0.78479899 10.57890667 2.62860297 14 7 C14 7.66 14 8.32 14 9 C9.16371695 8.00956295 4.52381127 7.04301154 0 5 C0 3.35 0 1.7 0 0 Z " fill="#4F4F3D" transform="translate(23,52)"/>
<path d="M0 0 C-0.66 1.32 -1.32 2.64 -2 4 C-2.33 3.34 -2.66 2.68 -3 2 C-6.12290635 2.48578543 -8.99580359 2.9986012 -12 4 C-12.33 6.64 -12.66 9.28 -13 12 C-13.66 11.01 -14.32 10.02 -15 9 C-15.99 9.33 -16.98 9.66 -18 10 C-18 8.35 -18 6.7 -18 5 C-4.48091603 -2.24045802 -4.48091603 -2.24045802 0 0 Z " fill="#82838C" transform="translate(81,12)"/>
<path d="M0 0 C0.66 0 1.32 0 2 0 C2 2.64 2 5.28 2 8 C-0.875 8.625 -0.875 8.625 -4 9 C-6 7 -6 7 -6.125 3.875 C-6.08375 2.92625 -6.0425 1.9775 -6 1 C-3.03 1.495 -3.03 1.495 0 2 C0 1.34 0 0.68 0 0 Z " fill="#928987" transform="translate(53,11)"/>
<path d="M0 0 C0.66 0 1.32 0 2 0 C2.99 2.31 3.98 4.62 5 7 C4.67 7.33 4.34 7.66 4 8 C3.76924918 9.34747084 3.58846937 10.70377565 3.4375 12.0625 C3.2209375 14.0115625 3.2209375 14.0115625 3 16 C2.01 16 1.02 16 0 16 C0 10.72 0 5.44 0 0 Z " fill="#736D6D" transform="translate(40,4)"/>
<path d="M0 0 C0.66 0.33 1.32 0.66 2 1 C2.2570751 2.96019767 2.50829958 4.92309188 2.65625 6.89453125 C2.96109045 9.41759598 2.96109045 9.41759598 5 13 C1.7 12.01 -1.6 11.02 -5 10 C-4.54625 9.278125 -4.0925 8.55625 -3.625 7.8125 C-2.14505642 5.25105919 -1.02782461 2.76722011 0 0 Z " fill="#D3C5AA" transform="translate(34,42)"/>
<path d="M0 0 C0.33 0 0.66 0 1 0 C1.50341475 5.2858549 0.26910671 7.86554151 -3 12 C-3.99 12.495 -3.99 12.495 -5 13 C-5.72159424 14.64363134 -6.39351421 16.31050386 -7 18 C-7.66 18 -8.32 18 -9 18 C-8.55090939 16.51800098 -8.09043436 15.03944764 -7.625 13.5625 C-7.36976562 12.73878906 -7.11453125 11.91507813 -6.8515625 11.06640625 C-6 9 -6 9 -4 8 C-3.30341637 6.34561387 -2.63903117 4.67745682 -2 3 C-1.34 2.01 -0.68 1.02 0 0 Z " fill="#676566" transform="translate(53,24)"/>
<path d="M0 0 C1.258125 0.12375 2.51625 0.2475 3.8125 0.375 C4.87404297 0.47941406 4.87404297 0.47941406 5.95703125 0.5859375 C8 1 8 1 11 3 C10 5 10 5 8 6 C7.34 6.66 6.68 7.32 6 8 C5.67 6.68 5.34 5.36 5 4 C4.34 4 3.68 4 3 4 C3 4.66 3 5.32 3 6 C2.34 6 1.68 6 1 6 C0.67 4.02 0.34 2.04 0 0 Z " fill="#A1978F" transform="translate(50,7)"/>
<path d="M0 0 C0.99 0.33 1.98 0.66 3 1 C3.144375 1.763125 3.28875 2.52625 3.4375 3.3125 C3.9632594 6.08172908 3.9632594 6.08172908 5 9 C0.545 9.495 0.545 9.495 -4 10 C-3.01 9.67 -2.02 9.34 -1 9 C-1.020625 7.700625 -1.04125 6.40125 -1.0625 5.0625 C-1.08399454 3.70834367 -1.07148199 2.35243917 -1 1 C-0.67 0.67 -0.34 0.34 0 0 Z " fill="#7E7677" transform="translate(44,11)"/>
<path d="M0 0 C1.97068588 1.84403511 2.94648579 3.29802947 3.15380859 6.01757812 C3.07039484 8.43913566 2.900574 10.83641838 2.6875 13.25 C2.62626953 14.09046875 2.56503906 14.9309375 2.50195312 15.796875 C2.34914175 17.86570599 2.17649838 19.93305508 2 22 C0 20 0 20 -0.22705078 17.93701172 C-0.21657715 17.10959473 -0.20610352 16.28217773 -0.1953125 15.4296875 C-0.18886719 14.53378906 -0.18242188 13.63789062 -0.17578125 12.71484375 C-0.15902344 11.77769531 -0.14226563 10.84054688 -0.125 9.875 C-0.11597656 8.93011719 -0.10695312 7.98523437 -0.09765625 7.01171875 C-0.07404522 4.67422708 -0.04111516 2.33723877 0 0 Z " fill="#59575B" transform="translate(59,44)"/>
<path d="M0 0 C2.58186812 3.79686489 1.71416445 6.63566172 1 11 C1.33 11.99 1.66 12.98 2 14 C2.66 13.67 3.32 13.34 4 13 C4 14.32 4 15.64 4 17 C1.67241689 16.06896676 0.25642868 15.34617872 -1.25 13.3125 C-2.55926692 9.27559366 -2.61539575 5.50002715 -1 1.5625 C-0.67 1.046875 -0.34 0.53125 0 0 Z " fill="#AE9D81" transform="translate(32,25)"/>
<path d="M0 0 C3.26008643 3.16952847 6.22237877 6.39937989 9 10 C7.35 10.66 5.7 11.32 4 12 C3.67 10.35 3.34 8.7 3 7 C2.34 7 1.68 7 1 7 C1 5.68 1 4.36 1 3 C0.34 3 -0.32 3 -1 3 C-0.67 2.01 -0.34 1.02 0 0 Z " fill="#E2DCD3" transform="translate(26,4)"/>
<path d="M0 0 C3.87302138 1.14430177 7.00263439 2.23320098 10 5 C10 5.66 10 6.32 10 7 C9.236875 6.835 8.47375 6.67 7.6875 6.5 C4.96403764 5.90854604 4.96403764 5.90854604 2 6 C2 5.34 2 4.68 2 4 C1.34 3.67 0.68 3.34 0 3 C0 2.01 0 1.02 0 0 Z " fill="#C9C7C0" transform="translate(69,5)"/>
<path d="M0 0 C2.0625 0.4375 2.0625 0.4375 4 1 C3.67 3.31 3.34 5.62 3 8 C1.35 8.33 -0.3 8.66 -2 9 C-1.125 1.125 -1.125 1.125 0 0 Z " fill="#A08E75" transform="translate(34,19)"/>
<path d="M0 0 C-0.375 1.9375 -0.375 1.9375 -1 4 C-1.99 4.495 -1.99 4.495 -3 5 C-3.68931344 7.34907875 -3.68931344 7.34907875 -4.125 10.0625 C-4.29257812 10.98160156 -4.46015625 11.90070312 -4.6328125 12.84765625 C-4.75398438 13.55792969 -4.87515625 14.26820312 -5 15 C-5.33 15 -5.66 15 -6 15 C-6.15959004 5.58418741 -6.15959004 5.58418741 -5 2 C-2 0 -2 0 0 0 Z " fill="#6D6F79" transform="translate(61,20)"/>
<path d="M0 0 C4.16138263 -0.08159574 7.9472484 0.01751476 12 1 C11.67 1.99 11.34 2.98 11 4 C5.25 3.125 5.25 3.125 3 2 C2.67 2.66 2.34 3.32 2 4 C1.34 2.68 0.68 1.36 0 0 Z " fill="#DCD7D2" transform="translate(42,0)"/>
<path d="M0 0 C0.66 0 1.32 0 2 0 C4 3 4 3 3.625 6.1875 C3.41875 7.115625 3.2125 8.04375 3 9 C2.34 9 1.68 9 1 9 C1 8.34 1 7.68 1 7 C0.34 7 -0.32 7 -1 7 C-0.67 4.69 -0.34 2.38 0 0 Z " fill="#9F885F" transform="translate(40,46)"/>
<path d="M0 0 C1.31554985 0.4495045 2.62738358 0.90989716 3.9375 1.375 C5.03384766 1.75785156 5.03384766 1.75785156 6.15234375 2.1484375 C8 3 8 3 9 5 C10.64363134 5.72159424 12.31050386 6.39351421 14 7 C13.01 7.495 13.01 7.495 12 8 C7.75476105 6.39802304 3.73748858 4.60491628 0 2 C0 1.34 0 0.68 0 0 Z " fill="#9C947D" transform="translate(21,48)"/>
<path d="M0 0 C0.93423645 3.01031744 1.04449911 3.86650268 0 7 C-1.65 6.67 -3.3 6.34 -5 6 C-5.33 4.68 -5.66 3.36 -6 2 C-4.02 2 -2.04 2 0 2 C0 1.34 0 0.68 0 0 Z " fill="#A19A96" transform="translate(52,18)"/>
<path d="M0 0 C0.99 0.33 1.98 0.66 3 1 C3 1.99 3 2.98 3 4 C2.34 4 1.68 4 1 4 C0.67 5.65 0.34 7.3 0 9 C-0.66 9 -1.32 9 -2 9 C-2.20140476 5.37471432 -1.85776765 3.13498292 0 0 Z " fill="#7D7471" transform="translate(58,11)"/>
<path d="M0 0 C1.27875 -0.061875 2.5575 -0.12375 3.875 -0.1875 C4.95394531 -0.23970703 4.95394531 -0.23970703 6.0546875 -0.29296875 C6.69664063 -0.19628906 7.33859375 -0.09960938 8 0 C8.66 0.99 9.32 1.98 10 3 C10.99 3.66 11.98 4.32 13 5 C8.39146203 4.27991594 4.32762591 2.68704061 0 1 C0 0.67 0 0.34 0 0 Z " fill="#847F6E" transform="translate(12,47)"/>
<path d="M0 0 C0.33 1.32 0.66 2.64 1 4 C0.01 4.66 -0.98 5.32 -2 6 C-2.73606499 9.56769552 -2.73606499 9.56769552 -3 13 C-3.33 13 -3.66 13 -4 13 C-4.10824843 11.3973218 -4.18570645 9.79254252 -4.25 8.1875 C-4.29640625 7.29417969 -4.3428125 6.40085937 -4.390625 5.48046875 C-4 3 -4 3 -1.984375 1.17578125 C-1.00210938 0.59376953 -1.00210938 0.59376953 0 0 Z " fill="#C1C1C0" transform="translate(66,11)"/>
<path d="M0 0 C1.60670684 3.21341369 0.82510855 6.62958968 0.5625 10.125 C0.51029297 10.87910156 0.45808594 11.63320312 0.40429688 12.41015625 C0.27454996 14.2737937 0.13792512 16.13694996 0 18 C-0.99 17.34 -1.98 16.68 -3 16 C-3 15.34 -3 14.68 -3 14 C-2.34 14 -1.68 14 -1 14 C-1.01160156 13.07316406 -1.02320313 12.14632813 -1.03515625 11.19140625 C-1.04417969 9.99386719 -1.05320313 8.79632813 -1.0625 7.5625 C-1.07410156 6.36753906 -1.08570313 5.17257812 -1.09765625 3.94140625 C-1 1 -1 1 0 0 Z " fill="#827C77" transform="translate(40,2)"/>
<path d="M0 0 C1.98 0.495 1.98 0.495 4 1 C4.33 2.65 4.66 4.3 5 6 C3.35 6 1.7 6 0 6 C-1.125 2.25 -1.125 2.25 0 0 Z " fill="#C2B8AD" transform="translate(46,6)"/>
<path d="M0 0 C0.33 0.66 0.66 1.32 1 2 C2.65 2 4.3 2 6 2 C6 2.99 6 3.98 6 5 C5.01 5.66 4.02 6.32 3 7 C3 6.01 3 5.02 3 4 C2.01 4.33 1.02 4.66 0 5 C0 3.35 0 1.7 0 0 Z " fill="#938E89" transform="translate(46,22)"/>
<path d="M0 0 C0.66 0 1.32 0 2 0 C2 2.64 2 5.28 2 8 C0.68 7.34 -0.64 6.68 -2 6 C-1.34 4.02 -0.68 2.04 0 0 Z " fill="#7D7575" transform="translate(53,11)"/>
<path d="M0 0 C3.27360452 0.94762236 4.67284007 1.44525055 6.4375 4.4375 C6.623125 5.283125 6.80875 6.12875 7 7 C6.01 8.485 6.01 8.485 5 10 C4.28385417 8.27473958 3.56770833 6.54947917 2.8515625 4.82421875 C1.93193308 2.73466068 1.93193308 2.73466068 0 0 Z " fill="#9D907A" transform="translate(40,28)"/>
<path d="M0 0 C3.68266103 0.59950296 7.34543185 1.24758891 11 2 C10.67 2.99 10.34 3.98 10 5 C6.33118845 4.29445932 3.29549466 2.72264494 0 1 C0 0.67 0 0.34 0 0 Z " fill="#B0A485" transform="translate(29,52)"/>
<path d="M0 0 C0.33 0 0.66 0 1 0 C1.33 3.63 1.66 7.26 2 11 C1.34 10.67 0.68 10.34 0 10 C-0.77811718 6.18015204 -1.24386556 3.73159669 0 0 Z " fill="#C9B79A" transform="translate(33,29)"/>
<path d="M0 0 C0.33 1.32 0.66 2.64 1 4 C-0.98 4 -2.96 4 -5 4 C-5 3.01 -5 2.02 -5 1 C-3 0 -3 0 0 0 Z " fill="#ACA290" transform="translate(36,14)"/>
<path d="M0 0 C0.99 0.33 1.98 0.66 3 1 C3.33 2.98 3.66 4.96 4 7 C3.01 7 2.02 7 1 7 C1.33 6.34 1.66 5.68 2 5 C1.01 4.67 0.02 4.34 -1 4 C-0.67 2.68 -0.34 1.36 0 0 Z " fill="#B8A689" transform="translate(41,31)"/>
<path d="M0 0 C2.4375 0.75 2.4375 0.75 5 2 C5.8125 4.125 5.8125 4.125 6 6 C4.68 5.67 3.36 5.34 2 5 C2 4.34 2 3.68 2 3 C1.01 2.34 0.02 1.68 -1 1 C-0.67 0.67 -0.34 0.34 0 0 Z " fill="#5A5141" transform="translate(34,56)"/>
<path d="M0 0 C2.4375 0.375 2.4375 0.375 5 1 C5.33 1.66 5.66 2.32 6 3 C5.67 3.66 5.34 4.32 5 5 C3.68 4.67 2.36 4.34 1 4 C0.67 2.68 0.34 1.36 0 0 Z " fill="#34352C" transform="translate(18,51)"/>
<path d="M0 0 C2.35448165 2.55068845 2.98327924 3.71017358 3.1875 7.25 C3.125625 8.1575 3.06375 9.065 3 10 C1.5 8.9375 1.5 8.9375 0 7 C-0.1875 3.3125 -0.1875 3.3125 0 0 Z " fill="#BAA784" transform="translate(36,44)"/>
<path d="M0 0 C0.66 0 1.32 0 2 0 C1.67 1.98 1.34 3.96 1 6 C-0.32 5.67 -1.64 5.34 -3 5 C-1.625 2.5 -1.625 2.5 0 0 Z " fill="#E5DECB" transform="translate(31,44)"/>
<path d="M0 0 C0.66 1.65 1.32 3.3 2 5 C-0.31 4.34 -2.62 3.68 -5 3 C-5 2.34 -5 1.68 -5 1 C-3 0 -3 0 0 0 Z " fill="#8F816F" transform="translate(43,25)"/>
<path d="M0 0 C2.31 0.33 4.62 0.66 7 1 C7.33 1.99 7.66 2.98 8 4 C2.25 3.125 2.25 3.125 0 2 C0 1.34 0 0.68 0 0 Z " fill="#363326" transform="translate(29,57)"/>
<path d="M0 0 C0.33 0 0.66 0 1 0 C1 2.64 1 5.28 1 8 C0.01 8 -0.98 8 -2 8 C-1.47731534 5.23723823 -0.89130413 2.6739124 0 0 Z " fill="#606268" transform="translate(68,32)"/>
<path d="M0 0 C2.475 0.99 2.475 0.99 5 2 C5 2.66 5 3.32 5 4 C4.34 4 3.68 4 3 4 C2.67 4.66 2.34 5.32 2 6 C2 5.34 2 4.68 2 4 C1.34 3.67 0.68 3.34 0 3 C0 2.01 0 1.02 0 0 Z " fill="#BBBCB5" transform="translate(69,5)"/>
</svg>
