<?xml version="1.0" encoding="UTF-8"?>
<svg version="1.1" xmlns="http://www.w3.org/2000/svg" width="25" height="25">
<path d="M0 0 C3.20716593 1.73841016 4.6555292 3.63009267 6 7 C6.98551611 11.70704547 6.89020038 15.76871853 5.09765625 20.26171875 C2.82848943 23.66202039 0.925866 24.79933703 -3.08203125 25.66796875 C-7.47679346 25.93416578 -11.2530995 25.96283385 -15.17578125 23.80078125 C-18.67052747 20.35607913 -19.36405371 17.14183009 -19.5 12.3125 C-19.34176129 7.65105131 -18.63138657 4.61662289 -15.2734375 1.2890625 C-10.58494601 -1.36936051 -5.17683872 -0.86601391 0 0 Z " fill="#EBB513" transform="translate(19,0)"/>
<path d="M0 0 C1.32 0 2.64 0 4 0 C4 0.99 4 1.98 4 3 C4.99 3 5.98 3 7 3 C7 3.99 7 4.98 7 6 C7.99 6 8.98 6 10 6 C10 5.01 10 4.02 10 3 C10.99 3 11.98 3 13 3 C13 2.01 13 1.02 13 0 C14.32 0 15.64 0 17 0 C16.67 1.32 16.34 2.64 16 4 C15.34 4 14.68 4 14 4 C14 4.66 14 5.32 14 6 C14.99 6.33 15.98 6.66 17 7 C16.67 7.99 16.34 8.98 16 10 C15.34 10 14.68 10 14 10 C14 10.99 14 11.98 14 13 C12.68 13 11.36 13 10 13 C10 12.01 10 11.02 10 10 C10.99 10 11.98 10 13 10 C13 9.01 13 8.02 13 7 C12.01 7 11.02 7 10 7 C9.67 7.99 9.34 8.98 9 10 C8.34 9.67 7.68 9.34 7 9 C7 8.34 7 7.68 7 7 C6.01 7 5.02 7 4 7 C4 7.99 4 8.98 4 10 C4.99 10 5.98 10 7 10 C7 10.99 7 11.98 7 13 C5.68 13 4.36 13 3 13 C3 12.01 3 11.02 3 10 C2.01 9.67 1.02 9.34 0 9 C0.33 8.01 0.66 7.02 1 6 C1.66 6 2.32 6 3 6 C3 5.34 3 4.68 3 4 C2.01 3.67 1.02 3.34 0 3 C0 2.01 0 1.02 0 0 Z " fill="#372A04" transform="translate(4,6)"/>
<path d="M0 0 C1.32 0 2.64 0 4 0 C3.67 1.32 3.34 2.64 3 4 C2.34 4 1.68 4 1 4 C1 4.66 1 5.32 1 6 C1.99 6.33 2.98 6.66 4 7 C3.67 7.99 3.34 8.98 3 10 C2.34 10 1.68 10 1 10 C1 10.99 1 11.98 1 13 C-0.32 13 -1.64 13 -3 13 C-3 12.01 -3 11.02 -3 10 C-2.01 10 -1.02 10 0 10 C0 9.01 0 8.02 0 7 C-0.66 6.67 -1.32 6.34 -2 6 C-1.34 6 -0.68 6 0 6 C0 5.34 0 4.68 0 4 C-0.99 3.67 -1.98 3.34 -3 3 C-2.01 3 -1.02 3 0 3 C0 2.01 0 1.02 0 0 Z " fill="#382B04" transform="translate(17,6)"/>
<path d="M0 0 C1.98 0.66 3.96 1.32 6 2 C6 1.34 6 0.68 6 0 C6.99 0 7.98 0 9 0 C9 0.66 9 1.32 9 2 C7.37373596 3.38232443 5.7074998 4.71937515 4 6 C2.62437146 4.71034824 1.29233607 3.37310707 0 2 C0 1.34 0 0.68 0 0 Z " fill="#0F0B00" transform="translate(8,10)"/>
<path d="M0 0 C0.99 0 1.98 0 3 0 C2.67 0.99 2.34 1.98 2 3 C1.34 3 0.68 3 0 3 C0 3.99 0 4.98 0 6 C-1.32 6 -2.64 6 -4 6 C-4 5.01 -4 4.02 -4 3 C-3.01 2.67 -2.02 2.34 -1 2 C-0.67 1.34 -0.34 0.68 0 0 Z " fill="#201902" transform="translate(18,13)"/>
<path d="M0 0 C0.99 0 1.98 0 3 0 C3.33 0.66 3.66 1.32 4 2 C4.99 2.33 5.98 2.66 7 3 C7 3.99 7 4.98 7 6 C5.68 6 4.36 6 3 6 C3 5.01 3 4.02 3 3 C2.01 2.67 1.02 2.34 0 2 C0 1.34 0 0.68 0 0 Z " fill="#201902" transform="translate(4,13)"/>
</svg>
