<?xml version="1.0" encoding="UTF-8"?>
<svg version="1.1" xmlns="http://www.w3.org/2000/svg" width="200" height="200">
<path d="M0 0 C1.25296875 0.4125 2.5059375 0.825 3.796875 1.25 C28.74462541 10.06760046 48.21993996 28.50355897 60.08447266 52.01074219 C70.70512729 75.08730057 73.09510894 102.81586203 65 127 C64.5875 128.25296875 64.175 129.5059375 63.75 130.796875 C54.93239954 155.74462541 36.49644103 175.21993996 12.98925781 187.08447266 C-10.08730057 197.70512729 -37.81586203 200.09510894 -62 192 C-63.87945312 191.38125 -63.87945312 191.38125 -65.796875 190.75 C-90.74462541 181.93239954 -110.21993996 163.49644103 -122.08447266 139.98925781 C-132.70512729 116.91269943 -135.09510894 89.18413797 -127 65 C-126.5875 63.74703125 -126.175 62.4940625 -125.75 61.203125 C-116.93239954 36.25537459 -98.49644103 16.78006004 -74.98925781 4.91552734 C-51.91269943 -5.70512729 -24.18413797 -8.09510894 0 0 Z " fill="#FEFEFE" transform="translate(131,4)"/>
<path d="M0 0 C12.26924252 9.14105397 19.826855 22.23774311 22.30859375 37.21875 C22.79868576 43.87646144 23.00876 49.99965742 20.30859375 56.21875 C18.609375 57.828125 18.609375 57.828125 16.62109375 58.96875 C15.97785156 59.35546875 15.33460938 59.7421875 14.671875 60.140625 C5.22788124 64.44895934 -8.11161375 65.34442773 -18.00390625 61.78125 C-22.63134028 59.55529467 -26.76811643 56.50618235 -30.92675781 53.51586914 C-41.99463708 45.60388457 -52.38222771 44.33539744 -65.69140625 45.21875 C-72.10133836 46.28707202 -77.2164782 49.53299815 -82.625 53.01171875 C-84.69140625 54.21875 -84.69140625 54.21875 -86.69140625 54.21875 C-90.23676236 43.58268167 -87.72760854 30.54773506 -83.02734375 20.75 C-75.33840123 6.01401229 -63.93903793 -3.65146599 -48.19921875 -9.0546875 C-31.31121372 -13.94747401 -14.35629506 -9.50140863 0 0 Z " fill="#F2B708" transform="translate(132.69140625,38.78125)"/>
<path d="M0 0 C1.20414251 0.8864097 2.40663423 1.77506649 3.60742188 2.66601562 C12.78307946 9.43376753 21.11995679 11.75109631 32.62597656 10.27246094 C38.35560332 8.62412882 43.65666286 6.58533674 48.62597656 3.27246094 C51.31347656 3.64746094 51.31347656 3.64746094 53.62597656 4.27246094 C53.62597656 5.59246094 53.62597656 6.91246094 53.62597656 8.27246094 C44.67311847 15.39820513 32.13928457 19.26015024 20.75878906 18.75683594 C12.65349777 17.50364875 5.94067891 13.89406116 -0.38964844 8.81933594 C-10.60674799 0.85482526 -20.86277309 -2.82209902 -33.73730469 -1.48144531 C-41.61644141 -0.2625039 -49.27164509 3.09782893 -55.58496094 7.98339844 C-57.37402344 9.27246094 -57.37402344 9.27246094 -59.62402344 8.95996094 C-60.20152344 8.73308594 -60.77902344 8.50621094 -61.37402344 8.27246094 C-61.68261719 5.99511719 -61.68261719 5.99511719 -61.37402344 3.27246094 C-44.19405299 -12.17345642 -18.40049426 -13.27329898 0 0 Z " fill="#5BCDCA" transform="translate(104.3740234375,98.7275390625)"/>
<path d="M0 0 C3.53571429 0.53571429 3.53571429 0.53571429 5 2 C5.1047008 4.07531739 5.13856253 6.15423172 5.14526367 8.23217773 C5.15030159 9.20781174 5.15030159 9.20781174 5.15544128 10.20315552 C5.16497668 12.36332077 5.16689569 14.52340873 5.16796875 16.68359375 C5.17117958 18.17953016 5.17454351 19.67546624 5.17805481 21.17140198 C5.18405259 24.31129688 5.18589405 27.45116423 5.18530273 30.59106445 C5.18520108 34.62091682 5.19885332 38.6505931 5.21607494 42.68040371 C5.22717603 45.77127397 5.22922253 48.86210142 5.22869301 51.95298958 C5.22987599 53.438992 5.23431546 54.92499543 5.24202538 56.41097832 C5.25178726 58.48692135 5.24896258 60.56247892 5.24291992 62.63842773 C5.24434494 63.82121811 5.24576996 65.00400848 5.24723816 66.22264099 C5 69 5 69 3 71 C-0.53571429 70.46428571 -0.53571429 70.46428571 -2 69 C-2.1047008 66.92468261 -2.13856253 64.84576828 -2.14526367 62.76782227 C-2.14862228 62.1173996 -2.1519809 61.46697693 -2.15544128 60.79684448 C-2.16497668 58.63667923 -2.16689569 56.47659127 -2.16796875 54.31640625 C-2.17117958 52.82046984 -2.17454351 51.32453376 -2.17805481 49.82859802 C-2.18405259 46.68870312 -2.18589405 43.54883577 -2.18530273 40.40893555 C-2.18520108 36.37908318 -2.19885332 32.3494069 -2.21607494 28.31959629 C-2.22717603 25.22872603 -2.22922253 22.13789858 -2.22869301 19.04701042 C-2.22987599 17.561008 -2.23431546 16.07500457 -2.24202538 14.58902168 C-2.25178726 12.51307865 -2.24896258 10.43752108 -2.24291992 8.36157227 C-2.24434494 7.17878189 -2.24576996 5.99599152 -2.24723816 4.77735901 C-2 2 -2 2 0 0 Z " fill="#60CECB" transform="translate(78,104)"/>
<path d="M0 0 C2.625 0.375 2.625 0.375 5 1 C5.04935824 6.23273331 5.08569949 11.46533176 5.10986328 16.69824219 C5.11993431 18.47919067 5.13359185 20.26012257 5.15087891 22.04101562 C5.17507913 24.59769783 5.18647184 27.15416185 5.1953125 29.7109375 C5.20563507 30.50994476 5.21595764 31.30895203 5.22659302 32.13217163 C5.22699226 34.0895722 5.12241069 36.04643077 5 38 C4.34 38.66 3.68 39.32 3 40 C-0.53571429 39.46428571 -0.53571429 39.46428571 -2 38 C-2.11336626 35.35713726 -2.16417761 32.74138544 -2.16796875 30.09765625 C-2.17129715 29.30475693 -2.17462555 28.5118576 -2.17805481 27.69493103 C-2.18312726 26.01448142 -2.18546304 24.33402171 -2.18530273 22.65356445 C-2.18748786 20.07681741 -2.20563609 17.50049924 -2.22460938 14.92382812 C-2.22754345 13.2942723 -2.22952815 11.66471444 -2.23046875 10.03515625 C-2.23765427 9.26115982 -2.24483978 8.48716339 -2.25224304 7.68971252 C-2.22882253 2.22882253 -2.22882253 2.22882253 0 0 Z " fill="#61CFCC" transform="translate(118,122)"/>
<path d="M0 0 C1.65 0.33 3.3 0.66 5 1 C5 13.21 5 25.42 5 38 C2.525 38.495 2.525 38.495 0 39 C-1.81565436 37.18434564 -1.12861899 34.68730038 -1.13894653 32.27111816 C-1.1369223 31.47008667 -1.13489807 30.66905518 -1.1328125 29.84375 C-1.13376923 29.02628296 -1.13472595 28.20881592 -1.13571167 27.36657715 C-1.13639345 25.63484622 -1.13453929 23.90311276 -1.13037109 22.17138672 C-1.12502279 19.51133518 -1.13031612 16.8514525 -1.13671875 14.19140625 C-1.13605797 12.51302046 -1.1347768 10.83463477 -1.1328125 9.15625 C-1.13483673 8.35521851 -1.13686096 7.55418701 -1.13894653 6.72888184 C-1.11495079 1.11495079 -1.11495079 1.11495079 0 0 Z " fill="#55CBC8" transform="translate(64,104)"/>
<path d="M0 0 C1.32 0.66 2.64 1.32 4 2 C4 11.24 4 20.48 4 30 C2.35 30.33 0.7 30.66 -1 31 C-4.20189713 27.79810287 -3.29542548 24.09369853 -3.32226562 19.72851562 C-3.31904297 18.51873047 -3.31582031 17.30894531 -3.3125 16.0625 C-3.32861328 14.85658203 -3.34472656 13.65066406 -3.36132812 12.40820312 C-3.36197266 11.25384766 -3.36261719 10.09949219 -3.36328125 8.91015625 C-3.36626221 7.84933838 -3.36924316 6.78852051 -3.37231445 5.69555664 C-2.95766369 2.69348508 -2.3653544 1.81027206 0 0 Z " fill="#61CFCC" transform="translate(92,108)"/>
<path d="M0 0 C1.67542976 0.28604898 3.34385343 0.61781233 5 1 C5.049377 5.52065428 5.08570823 10.04115217 5.10986328 14.56201172 C5.11993118 16.10045098 5.13358646 17.63887107 5.15087891 19.17724609 C5.17509317 21.38644133 5.18647491 23.59538395 5.1953125 25.8046875 C5.20563507 26.49432587 5.21595764 27.18396423 5.22659302 27.89450073 C5.22699478 29.59800906 5.12191026 31.30085943 5 33 C4.34 33.66 3.68 34.32 3 35 C0.875 34.625 0.875 34.625 -1 34 C-1.02465288 29.31860746 -1.04283739 24.63725241 -1.05493164 19.95581055 C-1.05997157 18.36205386 -1.0668035 16.76830181 -1.07543945 15.17456055 C-1.08751999 12.88849747 -1.09323155 10.60249533 -1.09765625 8.31640625 C-1.10281754 7.59973282 -1.10797882 6.88305939 -1.11329651 6.14466858 C-1.11349263 4.42936328 -1.06192007 2.71418734 -1 1 C-0.67 0.67 -0.34 0.34 0 0 Z " fill="#56CBC8" transform="translate(131,123)"/>
<path d="M0 0 C1.65 0.33 3.3 0.66 5 1 C5 10.24 5 19.48 5 29 C3.35 29.33 1.7 29.66 0 30 C-1.83034055 28.16965945 -1.13042797 25.26788008 -1.1328125 22.8125 C-1.13410156 21.55695313 -1.13539062 20.30140625 -1.13671875 19.0078125 C-1.13462402 18.35071289 -1.1325293 17.69361328 -1.13037109 17.01660156 C-1.12502234 15.00838665 -1.13031691 13.00039541 -1.13671875 10.9921875 C-1.13542969 9.73664063 -1.13414063 8.48109375 -1.1328125 7.1875 C-1.13112061 5.44533203 -1.13112061 5.44533203 -1.12939453 3.66796875 C-1 1 -1 1 0 0 Z " fill="#55CBC8" transform="translate(51,111)"/>
<path d="M0 0 C3.53571429 0.53571429 3.53571429 0.53571429 5 2 C5.12653198 4.49238569 5.18519825 6.94470441 5.1875 9.4375 C5.19974609 10.13166016 5.21199219 10.82582031 5.22460938 11.54101562 C5.22989842 13.36220901 5.12169207 15.1828692 5 17 C4.34 17.66 3.68 18.32 3 19 C-0.53571429 18.46428571 -0.53571429 18.46428571 -2 17 C-2.12653198 14.50761431 -2.18519825 12.05529559 -2.1875 9.5625 C-2.19974609 8.86833984 -2.21199219 8.17417969 -2.22460938 7.45898438 C-2.22989842 5.63779099 -2.12169207 3.8171308 -2 2 C-1.34 1.34 -0.68 0.68 0 0 Z " fill="#60CECB" transform="translate(145,120)"/>
<path d="M0 0 C0.05395478 1.62463842 0.09277195 3.24978541 0.125 4.875 C0.14820312 5.77992187 0.17140625 6.68484375 0.1953125 7.6171875 C0 10 0 10 -2 12 C-5.53571429 11.46428571 -5.53571429 11.46428571 -7 10 C-7.07205511 8.31391034 -7.08386068 6.62499341 -7.0625 4.9375 C-7.05347656 4.01839844 -7.04445313 3.09929687 -7.03515625 2.15234375 C-7.02355469 1.44207031 -7.01195313 0.73179688 -7 0 C-4.3333581 -1.33332095 -2.83319697 -0.67102033 0 0 Z " fill="#64D0CD" transform="translate(110,118)"/>
</svg>
