<svg xmlns="http://www.w3.org/2000/svg" width="256" height="256" fill="none" xmlns:v="https://vecta.io/nano"><path d="M128 256c70.692 0 128-57.308 128-128S198.692 0 128 0 0 57.308 0 128s57.308 128 128 128z" fill="#fff"/><g stroke="#000" stroke-width="4"><path d="M114 68L28 165"/><path d="M209 89L28 165m87 24l-87-24"/><path d="M116 67l-28 74m32 46l-31-47m27-76l93 18"/><path d="M116 63l85 68m14-35l-14 36"/><path d="M118 62l4 130m90-100l-90 100m73-56l-69 53"/></g><path d="M218 104c11.046 0 20-8.954 20-20s-8.954-20-20-20-20 8.954-20 20 8.954 20 20 20z" fill="#ffc107"/><path d="M122 205c9.941 0 18-8.059 18-18s-8.059-18-18-18-18 8.059-18 18 8.059 18 18 18z" fill="#2196f4"/><path d="M116 81c10.493 0 19-8.507 19-19s-8.507-19-19-19-19 8.507-19 19 8.507 19 19 19z" fill="#f34335"/><path d="M89.5 154c8.008 0 14.5-6.492 14.5-14.5S97.508 125 89.5 125 75 131.492 75 139.5 81.492 154 89.5 154z" fill="#9c27af"/><path d="M32 178c8.284 0 15-6.716 15-15s-6.716-15-15-15-15 6.716-15 15 6.716 15 15 15z" fill="#f34335"/><path d="M200.5 145c8.008 0 14.5-6.492 14.5-14.5s-6.492-14.5-14.5-14.5-14.5 6.492-14.5 14.5 6.492 14.5 14.5 14.5z" fill="#8bc349"/></svg>