<?xml version="1.0" encoding="UTF-8"?>
<svg version="1.1" xmlns="http://www.w3.org/2000/svg" width="200" height="200">
<path d="M0 0 C2.82045877 2.30263418 5.56336058 4.67903285 8.27832031 7.10449219 C11.1535235 9.666713 11.1535235 9.666713 14.50878906 11.77246094 C17.18066406 13.58496094 17.18066406 13.58496094 17.86816406 15.77246094 C18.02285156 16.66964844 18.02285156 16.66964844 18.18066406 17.58496094 C19.17066406 17.91496094 20.16066406 18.24496094 21.18066406 18.58496094 C21.51066406 19.57496094 21.84066406 20.56496094 22.18066406 21.58496094 C22.78394531 22.1740625 23.38722656 22.76316406 24.00878906 23.37011719 C26.61161449 26.02443736 28.16331475 28.75588582 29.93066406 32.02246094 C30.85105469 33.69115234 30.85105469 33.69115234 31.79003906 35.39355469 C33.13514811 38.48050439 33.50200878 40.27881822 33.18066406 43.58496094 C33.84066406 43.58496094 34.50066406 43.58496094 35.18066406 43.58496094 C39.64424539 56.0781479 40.85665551 67.12735329 40.55566406 80.33496094 C40.53909422 82.04587815 40.52476266 83.75681854 40.51269531 85.46777344 C40.3702832 98.68935945 40.3702832 98.68935945 39.18066406 103.58496094 C38.52066406 103.58496094 37.86066406 103.58496094 37.18066406 103.58496094 C37.18066406 105.89496094 37.18066406 108.20496094 37.18066406 110.58496094 C36.52066406 110.58496094 35.86066406 110.58496094 35.18066406 110.58496094 C34.52066406 113.88496094 33.86066406 117.18496094 33.18066406 120.58496094 C32.52066406 120.58496094 31.86066406 120.58496094 31.18066406 120.58496094 C31.10589844 121.42542969 31.03113281 122.26589844 30.95410156 123.13183594 C30.00301116 127.37811833 28.20111083 130.25695184 25.80566406 133.83496094 C25.40605469 134.45886719 25.00644531 135.08277344 24.59472656 135.72558594 C22.64505024 138.70140769 21.175244 140.58857431 18.18066406 142.58496094 C17.87128906 143.24496094 17.56191406 143.90496094 17.24316406 144.58496094 C16.18066406 146.58496094 16.18066406 146.58496094 14.29394531 147.52246094 C12.05773456 148.64676653 10.95666201 149.72870379 9.30566406 151.58496094 C-7.5531495 168.76523493 -31.7922615 178.47350042 -55.67724609 178.87768555 C-83.14890277 179.03784131 -105.50892955 171.73865683 -126.31811523 153.40429688 C-129.3378039 150.75277047 -132.36813316 148.62599484 -135.81933594 146.58496094 C-136.52084746 145.26962683 -137.18459519 143.93378502 -137.81933594 142.58496094 C-139.08777344 141.37839844 -139.08777344 141.37839844 -140.38183594 140.14746094 C-142.93144067 137.46710724 -143.50996572 136.19428011 -143.81933594 132.58496094 C-144.80933594 132.25496094 -145.79933594 131.92496094 -146.81933594 131.58496094 C-150.62798259 125.57828936 -153.21756631 119.65575401 -153.81933594 112.58496094 C-154.47933594 111.59496094 -155.13933594 110.60496094 -155.81933594 109.58496094 C-156.19144014 108.26192377 -156.52563767 106.92758159 -156.81933594 105.58496094 C-157.14933594 104.59496094 -157.47933594 103.60496094 -157.81933594 102.58496094 C-158.14933594 102.58496094 -158.47933594 102.58496094 -158.81933594 102.58496094 C-158.87027326 96.32278946 -158.90516878 90.06067193 -158.92919922 83.79833984 C-158.93922299 81.67038984 -158.95284555 79.5424535 -158.97021484 77.41455078 C-158.99462286 74.34631976 -159.00585555 71.27827173 -159.01464844 68.20996094 C-159.02497101 67.26693115 -159.03529358 66.32390137 -159.04592896 65.35229492 C-159.04686971 59.74541582 -158.41278806 54.96630789 -156.81933594 49.58496094 C-156.15933594 49.58496094 -155.49933594 49.58496094 -154.81933594 49.58496094 C-154.69816406 48.88628906 -154.57699219 48.18761719 -154.45214844 47.46777344 C-154.28457031 46.55769531 -154.11699219 45.64761719 -153.94433594 44.70996094 C-153.78191406 43.80503906 -153.61949219 42.90011719 -153.45214844 41.96777344 C-152.81933594 39.58496094 -152.81933594 39.58496094 -150.81933594 37.58496094 C-149.71378412 35.63398714 -148.89319267 33.94732054 -148.44433594 31.74511719 C-147.67559861 29.08816878 -146.42875814 27.18569548 -144.88183594 24.89746094 C-144.3571875 24.10984375 -143.83253906 23.32222656 -143.29199219 22.51074219 C-141.81933594 20.58496094 -141.81933594 20.58496094 -139.81933594 19.58496094 C-139.48933594 18.59496094 -139.15933594 17.60496094 -138.81933594 16.58496094 C-138.25988281 16.318125 -137.70042969 16.05128906 -137.12402344 15.77636719 C-133.75454168 14.03451645 -131.50732154 11.25605376 -128.94433594 8.52246094 C-95.59880991 -25.77011212 -37.69548479 -29.31871039 0 0 Z M34.18066406 46.58496094 C35.18066406 48.58496094 35.18066406 48.58496094 35.18066406 48.58496094 Z M35.18066406 49.58496094 C36.18066406 51.58496094 36.18066406 51.58496094 36.18066406 51.58496094 Z M36.18066406 52.58496094 C37.18066406 55.58496094 37.18066406 55.58496094 37.18066406 55.58496094 Z M-156.81933594 53.58496094 C-155.81933594 56.58496094 -155.81933594 56.58496094 -155.81933594 56.58496094 Z M37.18066406 56.58496094 C38.18066406 59.58496094 38.18066406 59.58496094 38.18066406 59.58496094 Z M-157.81933594 57.58496094 C-156.81933594 61.58496094 -156.81933594 61.58496094 -156.81933594 61.58496094 Z M38.18066406 60.58496094 C38.18066406 62.23496094 38.18066406 63.88496094 38.18066406 65.58496094 C38.51066406 65.58496094 38.84066406 65.58496094 39.18066406 65.58496094 C39.18066406 63.93496094 39.18066406 62.28496094 39.18066406 60.58496094 C38.85066406 60.58496094 38.52066406 60.58496094 38.18066406 60.58496094 Z M38.18066406 93.58496094 C38.18066406 95.23496094 38.18066406 96.88496094 38.18066406 98.58496094 C38.51066406 98.58496094 38.84066406 98.58496094 39.18066406 98.58496094 C39.18066406 96.93496094 39.18066406 95.28496094 39.18066406 93.58496094 C38.85066406 93.58496094 38.52066406 93.58496094 38.18066406 93.58496094 Z " fill="#FFFFFF" transform="translate(158.8193359375,19.4150390625)"/>
<path d="M0 0 C3.66341625 3.29157619 5.26866667 5.53629774 5.63491821 10.47753906 C5.66446548 12.23999129 5.66670489 14.00303556 5.64697266 15.765625 C5.66011505 17.21551819 5.66011505 17.21551819 5.67352295 18.69470215 C5.69547555 21.88026211 5.68097826 25.06442666 5.6640625 28.25 C5.66743181 30.46907822 5.67228538 32.68815465 5.67855835 34.90722656 C5.68592411 39.55421548 5.67523322 44.20072332 5.65185547 48.84765625 C5.62336849 54.79980768 5.63977396 60.75083181 5.66971779 66.70294189 C5.68779842 71.2841031 5.68202908 75.86499769 5.66907883 80.44616699 C5.66574696 82.64058567 5.66982413 84.83502867 5.68147659 87.02941895 C5.69419734 90.09838841 5.67478976 93.16554066 5.64697266 96.234375 C5.65709381 97.13845093 5.66721497 98.04252686 5.67764282 98.97399902 C5.60628431 103.23043229 5.3412913 106.14564477 2.67831421 109.57128906 C0 112 0 112 -3.5 112.625 C-7.47245401 111.91563321 -9.17231707 110.82768293 -12 108 C-13.12997628 105.74004744 -13.13246958 104.5049563 -13.14717102 101.99674988 C-13.15432632 101.15981094 -13.16148163 100.32287201 -13.16885376 99.46057129 C-13.17154266 98.54054321 -13.17423157 97.62051514 -13.17700195 96.67260742 C-13.18357315 95.70498978 -13.19014435 94.73737213 -13.19691467 93.74043274 C-13.21667362 90.52877735 -13.22831568 87.31716876 -13.23828125 84.10546875 C-13.24235678 83.01028742 -13.2464323 81.91510609 -13.25063133 80.78673744 C-13.27150254 74.99088351 -13.28580007 69.19505333 -13.29516602 63.39916992 C-13.30623634 57.40667112 -13.34064071 51.41454305 -13.38033772 45.42217541 C-13.40645724 40.81967977 -13.41485369 36.2172731 -13.41844749 31.61470985 C-13.42332503 29.4054851 -13.43497202 27.19626461 -13.45348549 24.98711205 C-13.47777864 21.89629947 -13.47692973 18.80645457 -13.4699707 15.71557617 C-13.48278076 14.80162079 -13.49559082 13.88766541 -13.50878906 12.9460144 C-13.47442748 8.76254806 -13.36027416 6.57600855 -11.09562683 2.95527649 C-7.49371211 -0.40540732 -4.88784747 -0.57991411 0 0 Z " fill="#F99432" transform="translate(162,44)"/>
<path d="M0 0 C3.99115408 0.71270609 5.69538045 1.73789164 8.5 4.625 C9.40136516 7.32909548 9.62886698 8.89651411 9.64044189 11.6725769 C9.64900711 12.90480484 9.64900711 12.90480484 9.65774536 14.16192627 C9.65886322 15.05965759 9.65998108 15.95738892 9.66113281 16.88232422 C9.66609772 17.83058075 9.67106262 18.77883728 9.67617798 19.75582886 C9.69079971 22.89712241 9.69760133 26.03836548 9.703125 29.1796875 C9.70887606 31.36060589 9.7146338 33.54152427 9.72039795 35.72244263 C9.7309077 40.29722327 9.73675067 44.87198633 9.74023438 49.44677734 C9.74572168 55.31026633 9.769755 61.17352341 9.79820633 67.03693962 C9.81682388 71.54249756 9.82203782 76.04799952 9.82357025 80.55359268 C9.82659886 82.71535639 9.83463436 84.87711906 9.84775543 87.03884506 C9.86479861 90.06237224 9.86293988 93.08533108 9.85644531 96.10888672 C9.8656601 97.00256958 9.87487488 97.89625244 9.8843689 98.8170166 C9.85238829 103.56674438 9.63747272 106.79978562 6.5 110.625 C2.73500419 113.1349972 0.95706394 113.23976744 -3.5 112.625 C-7.15728696 109.32883372 -8.76923307 107.08851351 -9.13491821 102.14746094 C-9.16446548 100.38500871 -9.16670489 98.62196444 -9.14697266 96.859375 C-9.15573425 95.89277954 -9.16449585 94.92618408 -9.17352295 93.93029785 C-9.19547555 90.74473789 -9.18097826 87.56057334 -9.1640625 84.375 C-9.16743181 82.15592178 -9.17228538 79.93684535 -9.17855835 77.71777344 C-9.18592411 73.07078452 -9.17523322 68.42427668 -9.15185547 63.77734375 C-9.12336849 57.82519232 -9.13977396 51.87416819 -9.16971779 45.92205811 C-9.18779842 41.3408969 -9.18202908 36.76000231 -9.16907883 32.17883301 C-9.16574696 29.98441433 -9.16982413 27.78997133 -9.18147659 25.59558105 C-9.19419734 22.52661159 -9.17478976 19.45945934 -9.14697266 16.390625 C-9.15709381 15.48654907 -9.16721497 14.58247314 -9.17764282 13.65100098 C-9.10628431 9.39456771 -8.8412913 6.47935523 -6.17831421 3.05371094 C-3.5 0.625 -3.5 0.625 0 0 Z " fill="#7213C3" transform="translate(41.5,43.375)"/>
<path d="M0 0 C2.86942113 2.26533247 3.83907612 3.51722837 5 7 C5.10325517 8.85443107 5.14852211 10.71231941 5.16113281 12.56958008 C5.17074036 13.71119095 5.1803479 14.85280182 5.19024658 16.02900696 C5.19449646 17.26337997 5.19874634 18.49775299 5.203125 19.76953125 C5.20882507 21.03842697 5.21452515 22.30732269 5.22039795 23.6146698 C5.22985201 26.30215033 5.23674671 28.98951909 5.24023438 31.67700195 C5.24571164 35.11013066 5.26972702 38.54286127 5.29820633 41.97586536 C5.32138392 45.26122361 5.32328593 48.5466027 5.328125 51.83203125 C5.3404718 53.06033157 5.3528186 54.2886319 5.36553955 55.55415344 C5.33768401 66.23810755 5.33768401 66.23810755 2 71 C-0.64444635 73.17222379 -2.02987018 72.99893321 -5.5 72.875 C-9.42327742 71.89418065 -10.55320886 71.1437363 -13 68 C-13.50793457 65.16090393 -13.50793457 65.16090393 -13.51757812 61.84204102 C-13.53018677 60.59717422 -13.54279541 59.35230743 -13.55578613 58.06971741 C-13.54862549 56.71444126 -13.5404213 55.35917028 -13.53125 54.00390625 C-13.53394597 52.60912302 -13.53782927 51.21434163 -13.54284668 49.81956482 C-13.54873889 46.89832643 -13.54018991 43.97757785 -13.52148438 41.05639648 C-13.49871508 37.31918282 -13.5118052 33.58311952 -13.53577423 29.84594822 C-13.55025843 26.96591087 -13.54561409 24.08614426 -13.53526306 21.20609856 C-13.53260186 19.82864177 -13.53584419 18.45116009 -13.54518127 17.07373238 C-13.55538556 15.14494447 -13.5370638 13.21606999 -13.51757812 11.28735352 C-13.51439575 10.19133316 -13.51121338 9.09531281 -13.50793457 7.96607971 C-12.88240827 4.31332404 -11.54778999 2.64140192 -9 0 C-5.81452856 -1.59273572 -3.39809153 -0.76164121 0 0 Z " fill="#EF4A6F" transform="translate(85,64)"/>
<path d="M0 0 C3.42200978 2.63853818 4.83647861 4.13413882 5.64697266 8.42578125 C5.6526123 9.70839844 5.65825195 10.99101563 5.6640625 12.3125 C5.66884613 13.00384033 5.67362976 13.69518066 5.67855835 14.4074707 C5.68194736 15.86314176 5.6728145 17.31888996 5.65185547 18.77441406 C5.62506546 20.99457497 5.65162647 23.20968261 5.68359375 25.4296875 C5.68028946 26.84896942 5.67388281 28.26824821 5.6640625 29.6875 C5.65842285 30.97011719 5.6527832 32.25273438 5.64697266 33.57421875 C4.83682009 37.86405301 3.40803907 39.34964826 0 42 C-3.5 42.625 -3.5 42.625 -7 42 C-9.63016161 39.8272578 -11.47336894 38.05326212 -13 35 C-13.27263935 30.40106988 -13.23167643 25.79358678 -13.25 21.1875 C-13.270625 19.90294922 -13.29125 18.61839844 -13.3125 17.29492188 C-13.31765625 16.05677734 -13.3228125 14.81863281 -13.328125 13.54296875 C-13.3374707 12.40883545 -13.34681641 11.27470215 -13.35644531 10.10620117 C-12.95601607 6.61670715 -12.09943935 4.79095064 -10 2 C-6.24952518 -0.50031654 -4.44143734 -0.53603554 0 0 Z " fill="#F76954" transform="translate(123,79)"/>
<path d="M0 0 C0.33 0 0.66 0 1 0 C1.04628493 12.72578548 1.08184964 25.45155103 1.10362434 38.17740345 C1.11407366 44.08615397 1.12825381 49.99484702 1.15087891 55.90356445 C1.17256633 61.6028926 1.18455998 67.30216538 1.18975449 73.0015316 C1.19345762 75.17889974 1.20068864 77.35626475 1.21146011 79.53360939 C1.22592047 82.57691691 1.22798023 85.61999388 1.22705078 88.66333008 C1.23424133 89.56891663 1.24143188 90.47450317 1.24884033 91.40753174 C1.246091 92.23624283 1.24334167 93.06495392 1.24050903 93.91877747 C1.24235262 94.63869779 1.24419621 95.35861811 1.24609566 96.10035419 C1 98 1 98 -1 101 C-1.85330338 95.16524985 -2.48351814 90.55139349 0 85 C-0.66 84.67 -1.32 84.34 -2 84 C-1.835 83.319375 -1.67 82.63875 -1.5 81.9375 C-0.83384758 78.02385454 -0.43178578 74.0235931 -1.51757812 70.15673828 C-2.13942734 67.37666946 -1.98914497 64.89908613 -1.84375 62.0546875 C-1.79089844 60.89453125 -1.73804688 59.734375 -1.68359375 58.5390625 C-1.56236934 56.11973269 -1.43999633 53.70046012 -1.31640625 51.28125 C-1.03795126 45.12807395 -1.0452169 39.27309537 -1.78662109 33.15869141 C-2.08490439 30.14104734 -1.86003844 27.26211757 -1.5625 24.25 C-1.02995112 18.09535281 -0.95061776 12.03778245 -1.0625 5.86328125 C-1 3 -1 3 0 0 Z " fill="#9122A8" transform="translate(50,51)"/>
<path d="M0 0 C0.33 0 0.66 0 1 0 C1 15.51 1 31.02 1 47 C0.34 47 -0.32 47 -1 47 C-0.98259766 45.77023438 -0.98259766 45.77023438 -0.96484375 44.515625 C-0.95130859 42.89914063 -0.95130859 42.89914063 -0.9375 41.25 C-0.92589844 40.18265625 -0.91429687 39.1153125 -0.90234375 38.015625 C-0.88155201 35.14243424 -0.88155201 35.14243424 -1.53125 33.0078125 C-2.2025281 30.13250464 -1.83435211 27.55831782 -1.5625 24.625 C-1.04304699 18.34553637 -0.9483873 12.16087588 -1.0625 5.86328125 C-1 3 -1 3 0 0 Z " fill="#A52A9B" transform="translate(50,51)"/>
<path d="M0 0 C8.58 0 17.16 0 26 0 C26 0.33 26 0.66 26 1 C17.42 1 8.84 1 0 1 C0 0.67 0 0.34 0 0 Z " fill="#FFFFFF" transform="translate(86,199)"/>
<path d="M0 0 C0.33 0 0.66 0 1 0 C1 8.58 1 17.16 1 26 C0.67 26 0.34 26 0 26 C0 17.42 0 8.84 0 0 Z " fill="#FFFFFF" transform="translate(199,86)"/>
<path d="M0 0 C0.66 0.33 1.32 0.66 2 1 C-0.31 3.31 -2.62 5.62 -5 8 C-5 5 -5 5 -2.5 2.3125 C-1.675 1.549375 -0.85 0.78625 0 0 Z " fill="#FFFFFF" transform="translate(30,25)"/>
<path d="M0 0 C1.98 0 3.96 0 6 0 C6 0.33 6 0.66 6 1 C4.02 1 2.04 1 0 1 C0 0.67 0 0.34 0 0 Z " fill="#FFFFFF" transform="translate(112,198)"/>
<path d="M0 0 C1.98 0 3.96 0 6 0 C6 0.33 6 0.66 6 1 C4.02 1 2.04 1 0 1 C0 0.67 0 0.34 0 0 Z " fill="#FFFFFF" transform="translate(80,198)"/>
<path d="M0 0 C1.65 0 3.3 0 5 0 C5 0.33 5 0.66 5 1 C3.35 1 1.7 1 0 1 C0 0.67 0 0.34 0 0 Z " fill="#FFFFFF" transform="translate(118,197)"/>
<path d="M0 0 C1.65 0 3.3 0 5 0 C5 0.33 5 0.66 5 1 C3.35 1 1.7 1 0 1 C0 0.67 0 0.34 0 0 Z " fill="#FFFFFF" transform="translate(75,197)"/>
<path d="M0 0 C1.65 0 3.3 0 5 0 C5 0.33 5 0.66 5 1 C3.35 1 1.7 1 0 1 C0 0.67 0 0.34 0 0 Z " fill="#FFFFFF" transform="translate(117,0)"/>
<path d="M0 0 C1.65 0 3.3 0 5 0 C5 0.33 5 0.66 5 1 C3.35 1 1.7 1 0 1 C0 0.67 0 0.34 0 0 Z " fill="#FFFFFF" transform="translate(76,0)"/>
<path d="M0 0 C4 1 4 1 4 1 Z " fill="#FFFFFF" transform="translate(123,196)"/>
<path d="M0 0 C4 1 4 1 4 1 Z " fill="#FFFFFF" transform="translate(68,195)"/>
<path d="M0 0 C4 1 4 1 4 1 Z " fill="#FFFFFF" transform="translate(69,2)"/>
<path d="M0 0 C4 1 4 1 4 1 Z " fill="#FFFFFF" transform="translate(122,1)"/>
<path d="M0 0 C3 1 3 1 3 1 Z " fill="#FFFFFF" transform="translate(72,196)"/>
<path d="M0 0 C3 1 3 1 3 1 Z " fill="#FFFFFF" transform="translate(127,195)"/>
<path d="M0 0 C3 1 3 1 3 1 Z " fill="#FFFFFF" transform="translate(130,194)"/>
<path d="M0 0 C3 1 3 1 3 1 Z " fill="#FFFFFF" transform="translate(65,194)"/>
<path d="M0 0 C3 1 3 1 3 1 Z " fill="#FFFFFF" transform="translate(135,192)"/>
<path d="M0 0 C3 1 3 1 3 1 Z " fill="#FFFFFF" transform="translate(60,192)"/>
<path d="" fill="#FFFFFF" transform="translate(0,0)"/>
<path d="" fill="#FFFFFF" transform="translate(0,0)"/>
<path d="" fill="#FFFFFF" transform="translate(0,0)"/>
<path d="" fill="#FFFFFF" transform="translate(0,0)"/>
<path d="" fill="#FFFFFF" transform="translate(0,0)"/>
<path d="" fill="#FFFFFF" transform="translate(0,0)"/>
<path d="M0 0 C3 1 3 1 3 1 Z " fill="#FFFFFF" transform="translate(137,6)"/>
<path d="M0 0 C3 1 3 1 3 1 Z " fill="#FFFFFF" transform="translate(132,4)"/>
<path d="M0 0 C3 1 3 1 3 1 Z " fill="#FFFFFF" transform="translate(63,4)"/>
<path d="M0 0 C3 1 3 1 3 1 Z " fill="#FFFFFF" transform="translate(129,3)"/>
<path d="M0 0 C3 1 3 1 3 1 Z " fill="#FFFFFF" transform="translate(66,3)"/>
<path d="M0 0 C3 1 3 1 3 1 Z " fill="#FFFFFF" transform="translate(126,2)"/>
<path d="M0 0 C3 1 3 1 3 1 Z " fill="#FFFFFF" transform="translate(73,1)"/>
<path d="M0 0 C2 1 2 1 2 1 Z " fill="#FFFFFF" transform="translate(133,193)"/>
<path d="M0 0 C2 1 2 1 2 1 Z " fill="#FFFFFF" transform="translate(63,193)"/>
<path d="M0 0 C2 1 2 1 2 1 Z " fill="#FFFFFF" transform="translate(138,191)"/>
<path d="M0 0 C2 1 2 1 2 1 Z " fill="#FFFFFF" transform="translate(58,191)"/>
<path d="M0 0 C2 1 2 1 2 1 Z " fill="#FFFFFF" transform="translate(140,190)"/>
<path d="M0 0 C2 1 2 1 2 1 Z " fill="#FFFFFF" transform="translate(56,190)"/>
<path d="M0 0 C2 1 2 1 2 1 Z " fill="#FFFFFF" transform="translate(142,189)"/>
<path d="M0 0 C2 1 2 1 2 1 Z " fill="#FFFFFF" transform="translate(54,189)"/>
<path d="M0 0 C2 1 2 1 2 1 Z " fill="#FFFFFF" transform="translate(144,188)"/>
<path d="M0 0 C2 1 2 1 2 1 Z " fill="#FFFFFF" transform="translate(52,188)"/>
<path d="M0 0 C2 1 2 1 2 1 Z " fill="#FFFFFF" transform="translate(146,187)"/>
<path d="M0 0 C2 1 2 1 2 1 Z " fill="#FFFFFF" transform="translate(50,187)"/>
<path d="M0 0 C2 1 2 1 2 1 Z " fill="#FFFFFF" transform="translate(148,186)"/>
<path d="M0 0 C2 1 2 1 2 1 Z " fill="#FFFFFF" transform="translate(47,185)"/>
<path d="M0 0 C2 1 2 1 2 1 Z " fill="#FFFFFF" transform="translate(151,184)"/>
<path d="M0 0 C2 1 2 1 2 1 Z " fill="#FFFFFF" transform="translate(45,184)"/>
<path d="M0 0 C2 1 2 1 2 1 Z " fill="#FFFFFF" transform="translate(154,182)"/>
<path d="M0 0 C2 1 2 1 2 1 Z " fill="#FFFFFF" transform="translate(42,182)"/>
<path d="M0 0 C2 1 2 1 2 1 Z " fill="#FFFFFF" transform="translate(157,180)"/>
<path d="M0 0 C2 1 2 1 2 1 Z " fill="#FFFFFF" transform="translate(38,179)"/>
<path d="M0 0 C2 1 2 1 2 1 Z " fill="#FFFFFF" transform="translate(162,176)"/>
<path d="M0 0 C2 1 2 1 2 1 Z " fill="#FFFFFF" transform="translate(32,174)"/>
<path d="" fill="#FFFFFF" transform="translate(0,0)"/>
<path d="" fill="#FFFFFF" transform="translate(0,0)"/>
<path d="" fill="#FFFFFF" transform="translate(0,0)"/>
<path d="" fill="#FFFFFF" transform="translate(0,0)"/>
<path d="" fill="#FFFFFF" transform="translate(0,0)"/>
<path d="" fill="#FFFFFF" transform="translate(0,0)"/>
<path d="" fill="#FFFFFF" transform="translate(0,0)"/>
<path d="" fill="#FFFFFF" transform="translate(0,0)"/>
<path d="M0 0 C2 1 2 1 2 1 Z " fill="#FFFFFF" transform="translate(164,23)"/>
<path d="M0 0 C2 1 2 1 2 1 Z " fill="#FFFFFF" transform="translate(37,19)"/>
<path d="M0 0 C2 1 2 1 2 1 Z " fill="#FFFFFF" transform="translate(158,18)"/>
<path d="M0 0 C2 1 2 1 2 1 Z " fill="#FFFFFF" transform="translate(155,16)"/>
<path d="M0 0 C2 1 2 1 2 1 Z " fill="#FFFFFF" transform="translate(41,16)"/>
<path d="M0 0 C2 1 2 1 2 1 Z " fill="#FFFFFF" transform="translate(152,14)"/>
<path d="M0 0 C2 1 2 1 2 1 Z " fill="#FFFFFF" transform="translate(44,14)"/>
<path d="M0 0 C2 1 2 1 2 1 Z " fill="#FFFFFF" transform="translate(149,12)"/>
<path d="M0 0 C2 1 2 1 2 1 Z " fill="#FFFFFF" transform="translate(47,12)"/>
<path d="M0 0 C2 1 2 1 2 1 Z " fill="#FFFFFF" transform="translate(147,11)"/>
<path d="M0 0 C2 1 2 1 2 1 Z " fill="#FFFFFF" transform="translate(49,11)"/>
<path d="M0 0 C2 1 2 1 2 1 Z " fill="#FFFFFF" transform="translate(51,10)"/>
<path d="M0 0 C2 1 2 1 2 1 Z " fill="#FFFFFF" transform="translate(144,9)"/>
<path d="M0 0 C2 1 2 1 2 1 Z " fill="#FFFFFF" transform="translate(53,9)"/>
<path d="M0 0 C2 1 2 1 2 1 Z " fill="#FFFFFF" transform="translate(142,8)"/>
<path d="M0 0 C2 1 2 1 2 1 Z " fill="#FFFFFF" transform="translate(55,8)"/>
<path d="M0 0 C2 1 2 1 2 1 Z " fill="#FFFFFF" transform="translate(140,7)"/>
<path d="M0 0 C2 1 2 1 2 1 Z " fill="#FFFFFF" transform="translate(57,7)"/>
<path d="M0 0 C2 1 2 1 2 1 Z " fill="#FFFFFF" transform="translate(59,6)"/>
<path d="M0 0 C2 1 2 1 2 1 Z " fill="#FFFFFF" transform="translate(135,5)"/>
<path d="M0 0 C2 1 2 1 2 1 Z " fill="#FFFFFF" transform="translate(61,5)"/>
<path d="" fill="#FFFFFF" transform="translate(0,0)"/>
<path d="" fill="#FFFFFF" transform="translate(0,0)"/>
<path d="" fill="#FFFFFF" transform="translate(0,0)"/>
<path d="" fill="#FFFFFF" transform="translate(0,0)"/>
<path d="" fill="#FFFFFF" transform="translate(0,0)"/>
<path d="" fill="#FFFFFF" transform="translate(0,0)"/>
<path d="" fill="#FFFFFF" transform="translate(0,0)"/>
<path d="" fill="#FFFFFF" transform="translate(0,0)"/>
<path d="" fill="#FFFFFF" transform="translate(0,0)"/>
<path d="" fill="#FFFFFF" transform="translate(0,0)"/>
<path d="" fill="#FFFFFF" transform="translate(0,0)"/>
<path d="" fill="#FFFFFF" transform="translate(0,0)"/>
<path d="" fill="#FFFFFF" transform="translate(0,0)"/>
<path d="" fill="#FFFFFF" transform="translate(0,0)"/>
<path d="" fill="#FFFFFF" transform="translate(0,0)"/>
<path d="" fill="#FFFFFF" transform="translate(0,0)"/>
<path d="" fill="#FFFFFF" transform="translate(0,0)"/>
<path d="" fill="#FFFFFF" transform="translate(0,0)"/>
<path d="" fill="#FFFFFF" transform="translate(0,0)"/>
<path d="" fill="#FFFFFF" transform="translate(0,0)"/>
<path d="" fill="#FFFFFF" transform="translate(0,0)"/>
<path d="" fill="#FFFFFF" transform="translate(0,0)"/>
<path d="" fill="#FFFFFF" transform="translate(0,0)"/>
<path d="" fill="#FFFFFF" transform="translate(0,0)"/>
<path d="" fill="#FFFFFF" transform="translate(0,0)"/>
<path d="" fill="#FFFFFF" transform="translate(0,0)"/>
<path d="" fill="#FFFFFF" transform="translate(0,0)"/>
<path d="" fill="#FFFFFF" transform="translate(0,0)"/>
<path d="" fill="#FFFFFF" transform="translate(0,0)"/>
<path d="" fill="#FFFFFF" transform="translate(0,0)"/>
<path d="" fill="#FFFFFF" transform="translate(0,0)"/>
<path d="" fill="#FFFFFF" transform="translate(0,0)"/>
<path d="" fill="#FFFFFF" transform="translate(0,0)"/>
<path d="" fill="#FFFFFF" transform="translate(0,0)"/>
<path d="" fill="#FFFFFF" transform="translate(0,0)"/>
<path d="" fill="#FFFFFF" transform="translate(0,0)"/>
<path d="" fill="#FFFFFF" transform="translate(0,0)"/>
<path d="" fill="#FFFFFF" transform="translate(0,0)"/>
<path d="" fill="#FFFFFF" transform="translate(0,0)"/>
<path d="" fill="#FFFFFF" transform="translate(0,0)"/>
<path d="" fill="#FFFFFF" transform="translate(0,0)"/>
<path d="" fill="#FFFFFF" transform="translate(0,0)"/>
<path d="" fill="#FFFFFF" transform="translate(0,0)"/>
<path d="" fill="#FFFFFF" transform="translate(0,0)"/>
<path d="" fill="#FFFFFF" transform="translate(0,0)"/>
<path d="" fill="#FFFFFF" transform="translate(0,0)"/>
<path d="" fill="#FFFFFF" transform="translate(0,0)"/>
<path d="" fill="#FFFFFF" transform="translate(0,0)"/>
<path d="" fill="#FFFFFF" transform="translate(0,0)"/>
<path d="" fill="#FFFFFF" transform="translate(0,0)"/>
<path d="" fill="#FFFFFF" transform="translate(0,0)"/>
<path d="" fill="#FFFFFF" transform="translate(0,0)"/>
<path d="" fill="#FFFFFF" transform="translate(0,0)"/>
<path d="" fill="#FFFFFF" transform="translate(0,0)"/>
<path d="" fill="#FFFFFF" transform="translate(0,0)"/>
<path d="" fill="#FFFFFF" transform="translate(0,0)"/>
<path d="" fill="#FFFFFF" transform="translate(0,0)"/>
<path d="" fill="#FFFFFF" transform="translate(0,0)"/>
<path d="" fill="#FFFFFF" transform="translate(0,0)"/>
<path d="" fill="#FFFFFF" transform="translate(0,0)"/>
<path d="" fill="#FFFFFF" transform="translate(0,0)"/>
<path d="" fill="#FFFFFF" transform="translate(0,0)"/>
<path d="" fill="#FFFFFF" transform="translate(0,0)"/>
<path d="" fill="#FFFFFF" transform="translate(0,0)"/>
</svg>
