<?xml version="1.0" encoding="UTF-8"?>
<svg version="1.1" xmlns="http://www.w3.org/2000/svg" width="64" height="64">
<path d="M0 0 C5.74878489 4.38952773 10.86633901 11.51318808 12.05078125 18.75 C12.80065902 29.88752877 12.46271824 39.28401149 5.42578125 48.5 C-0.16912254 54.52308521 -7.32027455 58.43833819 -15.48828125 58.98828125 C-26.20542141 59.27952927 -35.14630209 58.2120695 -43.34765625 50.59375 C-51.3869265 41.33878523 -52.67841391 32.52227501 -52.12841797 20.69873047 C-51.44383799 13.25415642 -47.5350846 6.60212923 -41.94921875 1.75 C-29.18967617 -7.17360414 -13.43737558 -8.61715468 0 0 Z " fill="#5750BA" transform="translate(51.94921875,5.25)"/>
<path d="M0 0 C1.125 2.4375 1.125 2.4375 2 5 C2.62003906 5.29648437 3.24007812 5.59296875 3.87890625 5.8984375 C7.8174548 7.94387155 9.44921976 11.98505624 11 16 C11.0625 19.875 11.0625 19.875 10 23 C8.1875 24.8125 8.1875 24.8125 6 26 C5.34 26.391875 4.68 26.78375 4 27.1875 C2 28 2 28 -2 28 C-2 28.99 -2 29.98 -2 31 C-8.2370931 34.46505172 -13.04746138 34.04350941 -20 33 C-20.26941406 32.19949219 -20.53882813 31.39898437 -20.81640625 30.57421875 C-21.78280693 27.6971912 -21.78280693 27.6971912 -24.9375 26.8125 C-25.948125 26.544375 -26.95875 26.27625 -28 26 C-28.99 25.34 -29.98 24.68 -31 24 C-31 23.34 -31 22.68 -31 22 C-31.66 22 -32.32 22 -33 22 C-33.80902641 15.79746418 -31.82310255 12.29850343 -28.60546875 7.0390625 C-27 5 -27 5 -24 4 C-23.731875 3.34 -23.46375 2.68 -23.1875 2 C-22 0 -22 0 -19.5 -0.75 C-5.40540541 -1.75675676 -5.40540541 -1.75675676 0 0 Z " fill="#373F3C" transform="translate(43,16)"/>
<path d="M0 0 C6.72683187 5.1382478 11.26843786 11.675793 13 20 C14.16278149 29.16936261 11.37098648 37.32538984 6 44.7734375 C3.80172685 47.22073378 2.11424348 48.0484256 -1 49 C-0.95875 48.2575 -0.9175 47.515 -0.875 46.75 C-1.00398134 43.91241048 -1.57051222 42.41226062 -3 40 C-2.01 39.01 -1.02 38.02 0 37 C-1.32 36.67 -2.64 36.34 -4 36 C-2.865625 35.484375 -1.73125 34.96875 -0.5625 34.4375 C2.39221264 32.70688259 2.91975681 32.19105522 4.3125 28.875 C3.79528817 22.4615733 0.33299541 17.29996185 -4.20703125 12.82421875 C-6 11 -6 11 -6 9 C-13.26 9 -20.52 9 -28 9 C-28.66 10.65 -29.32 12.3 -30 14 C-30.99 14 -31.98 14 -33 14 C-33.268125 14.928125 -33.53625 15.85625 -33.8125 16.8125 C-34.91148371 19.76240366 -35.62418561 21.05615186 -38 23 C-37.67 21.02 -37.34 19.04 -37 17 C-37.66 17 -38.32 17 -39 17 C-39 15.68 -39 14.36 -39 13 C-39.99 13 -40.98 13 -42 13 C-42.35793464 9.86807192 -42.18051088 8.30608367 -40.5625 5.5625 C-28.72858544 -6.27141456 -14.5248175 -8.26274054 0 0 Z " fill="#3FC3A5" transform="translate(49,7)"/>
<path d="M0 0 C5.74878489 4.38952773 10.86633901 11.51318808 12.05078125 18.75 C12.80065902 29.88752877 12.46271824 39.28401149 5.42578125 48.5 C-0.16912254 54.52308521 -7.32027455 58.43833819 -15.48828125 58.98828125 C-26.20542141 59.27952927 -35.14630209 58.2120695 -43.34765625 50.59375 C-51.3869265 41.33878523 -52.67841391 32.52227501 -52.12841797 20.69873047 C-51.44383799 13.25415642 -47.5350846 6.60212923 -41.94921875 1.75 C-29.18967617 -7.17360414 -13.43737558 -8.61715468 0 0 Z M-42.94921875 6.75 C-48.91090696 14.13320997 -50.90616979 22.37187982 -49.94921875 31.75 C-48.66024044 37.06585946 -46.17945233 41.34513603 -42.94921875 45.75 C-42.05203125 47.049375 -42.05203125 47.049375 -41.13671875 48.375 C-36.24425265 53.68682034 -29.69665261 56.30638733 -22.56640625 56.97265625 C-16.73282056 57.17781293 -12.16744996 56.34859498 -6.94921875 53.75 C-5.92828125 53.25693359 -5.92828125 53.25693359 -4.88671875 52.75390625 C2.49607135 48.71294727 6.95026986 41.73903417 9.58203125 33.84375 C11.18617126 26.67859131 10.52120232 19.24875029 7.05078125 12.75 C1.19614204 4.49915825 -5.44429039 -0.08169055 -14.94921875 -3.25 C-26.23264667 -4.30909432 -34.8234526 -1.15487154 -42.94921875 6.75 Z " fill="#1F232E" transform="translate(51.94921875,5.25)"/>
<path d="M0 0 C-3.93795909 1.22419163 -6.16112237 0.48320272 -10 -1 C-10 -0.01 -10 0.98 -10 2 C-9.01 2.33 -8.02 2.66 -7 3 C-7 3.99 -7 4.98 -7 6 C-9.57093428 6.58764212 -11.79337872 7.01059596 -14.4375 6.875 C-17.80747256 7.03938891 -20.03583164 8.45347738 -23 10 C-23.99 10 -24.98 10 -26 10 C-26.66 11.65 -27.32 13.3 -28 15 C-28.99 15 -29.98 15 -31 15 C-31.268125 15.928125 -31.53625 16.85625 -31.8125 17.8125 C-32.91148371 20.76240366 -33.62418561 22.05615186 -36 24 C-35.67 22.02 -35.34 20.04 -35 18 C-35.66 18 -36.32 18 -37 18 C-37 16.68 -37 15.36 -37 14 C-37.99 14 -38.98 14 -40 14 C-40.35793464 10.86807192 -40.18051088 9.30608367 -38.5625 6.5625 C-27.20126253 -4.79873747 -14.30861609 -6.81942554 0 0 Z " fill="#3DB7A8" transform="translate(47,6)"/>
<path d="M0 0 C0.33 0.66 0.66 1.32 1 2 C1.9075 1.9175 2.815 1.835 3.75 1.75 C7 2 7 2 9.3125 3.5 C11.68288625 7.01168333 11.71956753 9.79351293 12 14 C11.34 14 10.68 14 10 14 C10 14.99 10 15.98 10 17 C3.7629069 20.46505172 -1.04746138 20.04350941 -8 19 C-10.26283589 14.00435461 -10.02870992 11.31500127 -9 6 C-8.34 5.01 -7.68 4.02 -7 3 C-3.375 2.3125 -3.375 2.3125 0 2 C0 1.34 0 0.68 0 0 Z " fill="#414146" transform="translate(31,30)"/>
<path d="M0 0 C3 1 3 1 5 4 C5 4.99 5 5.98 5 7 C5.66 7 6.32 7 7 7 C7.33 9.97 7.66 12.94 8 16 C8.66 16 9.32 16 10 16 C10.94324258 11.68803391 11.48041715 7.37934119 12 3 C12.33 3 12.66 3 13 3 C13.92344205 12.27546232 11.45703387 20.20606631 6 27.7734375 C3.80172685 30.22073378 2.11424348 31.0484256 -1 32 C-0.95875 31.2575 -0.9175 30.515 -0.875 29.75 C-1.00398134 26.91241048 -1.57051222 25.41226062 -3 23 C-2.01 22.01 -1.02 21.02 0 20 C-1.32 19.67 -2.64 19.34 -4 19 C-2.865625 18.484375 -1.73125 17.96875 -0.5625 17.4375 C2.48724339 15.67088035 2.909802 15.24685769 4.1875 11.75 C3.95240485 7.04809705 2.40457996 3.97323299 0 0 Z " fill="#47ABB1" transform="translate(49,24)"/>
<path d="M0 0 C5.91050561 4.51301079 10.53905653 11.44091744 12.05078125 18.75 C12.12005093 21.50970408 12.14495485 24.24196042 12.11328125 27 C12.10876953 27.74507812 12.10425781 28.49015625 12.09960938 29.2578125 C12.08787371 31.0885764 12.06993975 32.91929873 12.05078125 34.75 C11.06078125 34.255 11.06078125 34.255 10.05078125 33.75 C9.67473 31.21613085 9.39974171 28.73508571 9.17578125 26.1875 C8.19168247 17.15349307 6.05746521 10.67754061 -0.796875 4.359375 C-10.20456909 -2.67505325 -19.74859889 -2.88962931 -30.94921875 -2.25 C-31.27921875 -2.91 -31.60921875 -3.57 -31.94921875 -4.25 C-21.38913863 -7.58048681 -9.17226329 -5.88201253 0 0 Z " fill="#192323" transform="translate(51.94921875,5.25)"/>
<path d="M0 0 C6.15757894 -0.57727303 11.22251123 1.56288142 15.9375 5.375 C18.0774798 8.09861066 19 9.54081344 19 13 C17.5625 14.8125 17.5625 14.8125 16 16 C15.01 15.67 14.02 15.34 13 15 C12.67 15.66 12.34 16.32 12 17 C12 16.01 12 15.02 12 14 C11.360625 13.87625 10.72125 13.7525 10.0625 13.625 C9.381875 13.41875 8.70125 13.2125 8 13 C7.67 12.34 7.34 11.68 7 11 C4.65092125 10.31068656 4.65092125 10.31068656 1.9375 9.875 C0.55884766 9.62363281 0.55884766 9.62363281 -0.84765625 9.3671875 C-1.55792969 9.24601563 -2.26820312 9.12484375 -3 9 C0.75 7 0.75 7 3 7 C2.67 6.01 2.34 5.02 2 4 C1.34 3.67 0.68 3.34 0 3 C0 2.01 0 1.02 0 0 Z " fill="#39D3A6" transform="translate(37,5)"/>
<path d="M0 0 C0.66 0.33 1.32 0.66 2 1 C2 1.66 2 2.32 2 3 C1.01 3.495 1.01 3.495 0 4 C0.59950296 7.68266103 1.24758891 11.34543185 2 15 C1.38125 15.04125 0.7625 15.0825 0.125 15.125 C-0.57625 15.41375 -1.2775 15.7025 -2 16 C-2.73080266 17.97746603 -3.39421747 19.98072489 -4 22 C-5.625 23.875 -5.625 23.875 -7 25 C-6.67 23.02 -6.34 21.04 -6 19 C-6.66 19 -7.32 19 -8 19 C-8 17.68 -8 16.36 -8 15 C-8.99 15 -9.98 15 -11 15 C-11.36923118 11.76922717 -11.18313508 10.29301613 -9.4375 7.5 C-6.51481655 4.50237595 -3.47164413 2.33668355 0 0 Z " fill="#4590B1" transform="translate(18,5)"/>
<path d="M0 0 C0.99 0.33 1.98 0.66 3 1 C2.96519531 2.01320313 2.96519531 2.01320313 2.9296875 3.046875 C2.91164063 3.93890625 2.89359375 4.8309375 2.875 5.75 C2.84019531 7.07257812 2.84019531 7.07257812 2.8046875 8.421875 C3.01188899 11.15693463 3.75999055 12.59748168 5 15 C5.24636612 17.70017269 5.09065666 20.28030006 5 23 C1.59687262 21.94124926 -1.01353231 20.99097846 -4 19 C-4 18.34 -4 17.68 -4 17 C-4.66 17 -5.32 17 -6 17 C-6.9199404 9.9471236 -3.8742174 5.73061323 0 0 Z " fill="#222736" transform="translate(16,21)"/>
<path d="M0 0 C5.1897139 2.59485695 6.94047422 5.66792266 9 11 C9.06327772 14.92321858 9.00732699 16.9180562 6.3125 19.8125 C3.61200387 21.19924126 0.90850648 22.14066854 -2 23 C-2 19.37 -2 15.74 -2 12 C-1.34 11.67 -0.68 11.34 0 11 C0 7.37 0 3.74 0 0 Z " fill="#252C2E" transform="translate(45,21)"/>
<path d="M0 0 C-1.485 1.485 -1.485 1.485 -3 3 C-2.443125 3.7734375 -2.443125 3.7734375 -1.875 4.5625 C-0.56958118 8.19902385 -1.63131736 10.48053037 -3 14 C-6.35327639 16.23551759 -6.90743657 16.17283528 -10.6875 15.625 C-11.49574219 15.51414062 -12.30398437 15.40328125 -13.13671875 15.2890625 C-13.75160156 15.19367187 -14.36648437 15.09828125 -15 15 C-14.34 12.69 -13.68 10.38 -13 8 C-12.34 8 -11.68 8 -11 8 C-11 7.34 -11 6.68 -11 6 C-10.34 5.67 -9.68 5.34 -9 5 C-8.71125 4.175 -8.4225 3.35 -8.125 2.5 C-7 0 -7 0 -5.0625 -0.875 C-3 -1 -3 -1 0 0 Z " fill="#4F73B6" transform="translate(50,44)"/>
<path d="M0 0 C0.33 0 0.66 0 1 0 C1.12375 1.2375 1.2475 2.475 1.375 3.75 C1.67039154 6.19875307 1.8991717 7.81020556 3.0625 10 C4.58762415 13.25359819 4.1186155 16.44153492 4 20 C2.68 19.34 1.36 18.68 0 18 C0.33 17.67 0.66 17.34 1 17 C0.01 16.34 -0.98 15.68 -2 15 C-2.91399027 11.4202048 -3.17841928 9.53525784 -2 6 C-1.835 5.319375 -1.67 4.63875 -1.5 3.9375 C-1 2 -1 2 0 0 Z " fill="#2A2B2C" transform="translate(17,24)"/>
<path d="M0 0 C1.32 0 2.64 0 4 0 C4 1.32 4 2.64 4 4 C4.66 4 5.32 4 6 4 C5.85936865 6.29199177 5.71234057 8.58359186 5.5625 10.875 C5.48128906 12.15117188 5.40007813 13.42734375 5.31640625 14.7421875 C5 18 5 18 4 20 C3.34 19.67 2.68 19.34 2 19 C1.32877471 16.54869706 0.78530284 14.17728441 0.3125 11.6875 C0.17005859 11.01009766 0.02761719 10.33269531 -0.11914062 9.63476562 C-0.80203071 6.15916088 -1.28784016 3.36221357 0 0 Z " fill="#5073BB" transform="translate(6,20)"/>
<path d="M0 0 C0.66 0 1.32 0 2 0 C0.74420769 4.49992245 -0.7265818 7.63305557 -4 11 C-6.75 12.3125 -6.75 12.3125 -9 13 C-8.979375 12.21625 -8.95875 11.4325 -8.9375 10.625 C-8.81315937 8.01885039 -8.81315937 8.01885039 -10 6 C-8.35 5.67 -6.7 5.34 -5 5 C-5 4.34 -5 3.68 -5 3 C-3.35 3 -1.7 3 0 3 C0 2.01 0 1.02 0 0 Z " fill="#4E8FA8" transform="translate(57,43)"/>
<path d="M0 0 C1.32 0 2.64 0 4 0 C4.33 0.99 4.66 1.98 5 3 C5.66 3 6.32 3 7 3 C7 5.64 7 8.28 7 11 C4.03 10.01 1.06 9.02 -2 8 C-1.34 5.36 -0.68 2.72 0 0 Z " fill="#2B2D2D" transform="translate(35,24)"/>
<path d="M0 0 C0.66 0.33 1.32 0.66 2 1 C0.75443908 1.81928886 -0.49666635 2.63015186 -1.75 3.4375 C-2.44609375 3.88996094 -3.1421875 4.34242187 -3.859375 4.80859375 C-8.46044213 7.36940666 -13.10098507 7.1216318 -18.25 7.0625 C-18.99507812 7.05798828 -19.74015625 7.05347656 -20.5078125 7.04882812 C-22.3385764 7.03709246 -24.16929873 7.0191585 -26 7 C-26 6.34 -26 5.68 -26 5 C-24.70964844 4.97421875 -23.41929688 4.9484375 -22.08984375 4.921875 C-20.37236339 4.86556417 -18.65491678 4.80821752 -16.9375 4.75 C-15.66616211 4.72873047 -15.66616211 4.72873047 -14.36914062 4.70703125 C-8.39996041 4.47656097 -5.03178568 3.16694964 0 0 Z " fill="#1E1E25" transform="translate(50,57)"/>
<path d="M0 0 C3 1 3 1 5 4 C5 4.99 5 5.98 5 7 C5.66 7 6.32 7 7 7 C7.25 14.625 7.25 14.625 5 18 C2.8359375 18.73046875 2.8359375 18.73046875 0.375 19.1875 C-0.44226562 19.34605469 -1.25953125 19.50460938 -2.1015625 19.66796875 C-2.72804687 19.77753906 -3.35453125 19.88710938 -4 20 C-3 18 -3 18 0 16.8125 C3.28777144 15.25954038 3.28777144 15.25954038 4.125 11.8125 C3.96869504 7.04519868 2.43265139 4.0196171 0 0 Z " fill="#488598" transform="translate(49,24)"/>
<path d="M0 0 C0.66 0.33 1.32 0.66 2 1 C1.01 2.485 1.01 2.485 0 4 C-0.04092937 6.33297433 -0.04241723 8.66705225 0 11 C-0.33 11.66 -0.66 12.32 -1 13 C-1.22622081 14.70363822 -1.40888473 16.41328701 -1.5625 18.125 C-1.64628906 19.03507812 -1.73007813 19.94515625 -1.81640625 20.8828125 C-1.87699219 21.58148438 -1.93757812 22.28015625 -2 23 C-4.84964433 18.7255335 -4.50410431 15.01880322 -4 10 C-3.04591809 6.48036858 -1.63165296 3.26330592 0 0 Z " fill="#52569C" transform="translate(6,17)"/>
<path d="M0 0 C0.66 0 1.32 0 2 0 C3.17571451 3.67410785 3.07366746 7.16929183 3 11 C3.66 11.33 4.32 11.66 5 12 C3.35 12 1.7 12 0 12 C-0.33 12.66 -0.66 13.32 -1 14 C-1.02694851 12.04174127 -1.04637218 10.08337774 -1.0625 8.125 C-1.07410156 7.03445312 -1.08570313 5.94390625 -1.09765625 4.8203125 C-1 2 -1 2 0 0 Z " fill="#5359BF" transform="translate(5,28)"/>
<path d="M0 0 C0.66 0 1.32 0 2 0 C1.125 7.625 1.125 7.625 0 11 C-0.66 11 -1.32 11 -2 11 C-2 15.29 -2 19.58 -2 24 C-2.33 24 -2.66 24 -3 24 C-3.55353075 7.1070615 -3.55353075 7.1070615 0 0 Z " fill="#221F24" transform="translate(3,16)"/>
<path d="M0 0 C2.24298598 2.24298598 2.58421156 2.92316555 3 6 C2.72686657 8.34114367 2.40197001 10.67750658 2 13 C1.34 13 0.68 13 0 13 C0 11.68 0 10.36 0 9 C-0.99 9 -1.98 9 -3 9 C-3.26218749 5.85375007 -3.24754367 4.38162983 -1.5 1.6875 C-1.005 1.130625 -0.51 0.57375 0 0 Z " fill="#4A7EAC" transform="translate(10,11)"/>
<path d="M0 0 C0.66 0.33 1.32 0.66 2 1 C1.12070962 4.0375486 0.61550355 5.61983604 -2.125 7.3125 C-5.86516866 8.20688816 -9.15711298 8.13026736 -13 8 C-13.33 7.01 -13.66 6.02 -14 5 C-12.39125 5.061875 -12.39125 5.061875 -10.75 5.125 C-7.23418706 5.00780624 -5.92287789 4.67021593 -3 3 C-2.01 3 -1.02 3 0 3 C0 2.01 0 1.02 0 0 Z " fill="#4D49A3" transform="translate(41,44)"/>
<path d="M0 0 C0.721875 0.103125 1.44375 0.20625 2.1875 0.3125 C1.8575 1.6325 1.5275 2.9525 1.1875 4.3125 C0.1975 4.3125 -0.7925 4.3125 -1.8125 4.3125 C-1.8125 4.9725 -1.8125 5.6325 -1.8125 6.3125 C-3.6875 6.9375 -3.6875 6.9375 -5.8125 7.3125 C-6.4725 6.6525 -7.1325 5.9925 -7.8125 5.3125 C-3.50480769 0.38942308 -3.50480769 0.38942308 0 0 Z " fill="#419EB4" transform="translate(53.8125,41.6875)"/>
<path d="M0 0 C3.73229119 -0.34718988 5.59957594 -0.23503152 8.875 1.6875 C11 4 11 4 11.3125 6.75 C11.1578125 7.86375 11.1578125 7.86375 11 9 C10.54109375 8.60167969 10.0821875 8.20335937 9.609375 7.79296875 C6.47728415 5.08857938 3.36122541 2.42008229 0 0 Z " fill="#16342C" transform="translate(45,5)"/>
<path d="M0 0 C0.33 1.98 0.66 3.96 1 6 C-1.31 6 -3.62 6 -6 6 C-5.625 3.5625 -5.625 3.5625 -5 1 C-3 0 -3 0 0 0 Z " fill="#1C1D1E" transform="translate(29,26)"/>
<path d="M0 0 C3 2 3 2 5 4 C-0.28 4 -5.56 4 -11 4 C-7.62398884 0.62398884 -4.79149745 -0.49143564 0 0 Z " fill="#41BD9B" transform="translate(35,12)"/>
<path d="M0 0 C0.33 0.66 0.66 1.32 1 2 C2.6476038 2.71247732 4.31763529 3.37400383 6 4 C8.25 4.875 8.25 4.875 10 6 C10.75 8.125 10.75 8.125 11 10 C10.34 10 9.68 10 9 10 C9 9.01 9 8.02 9 7 C7.88625 6.896875 6.7725 6.79375 5.625 6.6875 C3.830625 6.3471875 3.830625 6.3471875 2 6 C0 3 0 3 0 0 Z " fill="#5D59A6" transform="translate(11,38)"/>
<path d="M0 0 C1.5625 1.0625 1.5625 1.0625 3 3 C2.6875 6.6875 2.6875 6.6875 2 10 C0.68 10.33 -0.64 10.66 -2 11 C-1.34 10.67 -0.68 10.34 0 10 C-0.185625 9.46375 -0.37125 8.9275 -0.5625 8.375 C-1.11419324 5.38009386 -0.60597444 2.96254171 0 0 Z " fill="#172C34" transform="translate(51,29)"/>
<path d="M0 0 C0.99 0.33 1.98 0.66 3 1 C2.2575 2.0828125 2.2575 2.0828125 1.5 3.1875 C-0.07919285 6.14848659 -0.28178312 7.71253029 0 11 C-1.32 10.34 -2.64 9.68 -4 9 C-2.80100302 5.9168649 -1.52299523 2.93720508 0 0 Z " fill="#203530" transform="translate(16,21)"/>
<path d="M0 0 C2 1.375 2 1.375 4 3 C4 3.66 4 4.32 4 5 C5.98 5.66 7.96 6.32 10 7 C5.82412255 8.39195915 3.86525224 6.82323219 0 5 C0 3.35 0 1.7 0 0 Z " fill="#27223E" transform="translate(9,51)"/>
<path d="M0 0 C1.32 0 2.64 0 4 0 C4.33 1.98 4.66 3.96 5 6 C3.35 6 1.7 6 0 6 C0 4.02 0 2.04 0 0 Z " fill="#1B1D1C" transform="translate(35,24)"/>
<path d="M0 0 C4.21912747 0.4794463 6.79663178 1.16625119 10 4 C3.375 4.125 3.375 4.125 0 3 C0 2.01 0 1.02 0 0 Z " fill="#1C2A27" transform="translate(40,1)"/>
<path d="M0 0 C0.89203125 0.00902344 1.7840625 0.01804688 2.703125 0.02734375 C3.37859375 0.03894531 4.0540625 0.05054687 4.75 0.0625 C4.75 0.3925 4.75 0.7225 4.75 1.0625 C2.69921875 1.29036458 0.6484375 1.51822917 -1.40234375 1.74609375 C-3.26140229 1.88136614 -3.26140229 1.88136614 -4.25 3.0625 C-6.92058851 3.20365161 -9.57432238 3.10497107 -12.25 3.0625 C-8.04248553 0.25749035 -5.00014586 -0.06579139 0 0 Z " fill="#409382" transform="translate(32.25,1.9375)"/>
<path d="M0 0 C0.66 0.33 1.32 0.66 2 1 C-1.2870757 4.81300782 -4.39727838 6.22972246 -9 8 C-9.66 7.34 -10.32 6.68 -11 6 C-9.9275 5.566875 -8.855 5.13375 -7.75 4.6875 C-4.83727354 3.44678487 -2.43963834 2.04929621 0 0 Z " fill="#242F3D" transform="translate(51,54)"/>
<path d="M0 0 C0.33 0 0.66 0 1 0 C1.20413361 5.73842251 1.27141454 10.60539047 -1 16 C-1.33 16 -1.66 16 -2 16 C-2.04241723 13.66705225 -2.04092937 11.33297433 -2 9 C-1.67 8.67 -1.34 8.34 -1 8 C-0.76924918 6.65252916 -0.58846937 5.29622435 -0.4375 3.9375 C-0.293125 2.638125 -0.14875 1.33875 0 0 Z " fill="#47968A" transform="translate(61,27)"/>
<path d="M0 0 C0.66 0.33 1.32 0.66 2 1 C1.34 2.65 0.68 4.3 0 6 C-2.31 6 -4.62 6 -7 6 C-3.375 3 -3.375 3 0 3 C0 2.01 0 1.02 0 0 Z " fill="#484C82" transform="translate(41,44)"/>
<path d="M0 0 C-2.91765 1.9451 -4.62537285 2.45276317 -8 3 C-8 3.66 -8 4.32 -8 5 C-8.66 5 -9.32 5 -10 5 C-9.625 3.0625 -9.625 3.0625 -9 1 C-6.04335481 -0.4783226 -3.25770263 -0.06032783 0 0 Z " fill="#47C3AB" transform="translate(29,13)"/>
<path d="M0 0 C-0.33 0.99 -0.66 1.98 -1 3 C-1.99 3 -2.98 3 -4 3 C-4.66 4.65 -5.32 6.3 -6 8 C-6.33 7.34 -6.66 6.68 -7 6 C-3.92682927 0 -3.92682927 0 0 0 Z " fill="#55A1A4" transform="translate(20,18)"/>
<path d="M0 0 C0.66 0.33 1.32 0.66 2 1 C2 1.66 2 2.32 2 3 C-0.8125 4.5625 -0.8125 4.5625 -4 6 C-4.99 5.67 -5.98 5.34 -7 5 C-4.69 3.35 -2.38 1.7 0 0 Z " fill="#458E95" transform="translate(18,5)"/>
<path d="M0 0 C-1.28965176 1.37562854 -2.62689293 2.70766393 -4 4 C-4.66 4 -5.32 4 -6 4 C-6 2.68 -6 1.36 -6 0 C-3 -1 -3 -1 0 0 Z " fill="#4B89B2" transform="translate(50,44)"/>
<path d="M0 0 C0.33 0.66 0.66 1.32 1 2 C1.66 2.33 2.32 2.66 3 3 C1.68 4.65 0.36 6.3 -1 8 C-1.625 5.6875 -1.625 5.6875 -2 3 C-1.34 2.01 -0.68 1.02 0 0 Z " fill="#212D30" transform="translate(6,11)"/>
<path d="M0 0 C0 0.99 0 1.98 0 3 C-3.96 2.67 -7.92 2.34 -12 2 C-12 1.67 -12 1.34 -12 1 C-10.37512529 0.83211627 -8.75009558 0.66573213 -7.125 0.5 C-6.22007813 0.4071875 -5.31515625 0.314375 -4.3828125 0.21875 C-2 0 -2 0 0 0 Z " fill="#0D2920" transform="translate(40,0)"/>
</svg>
