<?xml version="1.0" encoding="UTF-8"?>
<svg version="1.1" xmlns="http://www.w3.org/2000/svg" width="25" height="25">
<path d="M0 0 C8.25 0 16.5 0 25 0 C25 8.25 25 16.5 25 25 C16.75 25 8.5 25 0 25 C0 16.75 0 8.5 0 0 Z " fill="#908139" transform="translate(0,0)"/>
<path d="M0 0 C2.89640118 -0.08120751 5.79050912 -0.14059421 8.6875 -0.1875 C9.50412109 -0.21263672 10.32074219 -0.23777344 11.16210938 -0.26367188 C15.87226235 -0.32088021 19.27389739 -0.25559678 23 3 C23 3.99 23 4.98 23 6 C23.04640625 6.91652344 23.0928125 7.83304687 23.140625 8.77734375 C23.17671875 9.82019531 23.2128125 10.86304688 23.25 11.9375 C23.29640625 12.97777344 23.3428125 14.01804687 23.390625 15.08984375 C22.91065521 18.66561868 21.7424383 19.75962226 19 22 C18.80438131 19.9174133 18.61880687 17.83388144 18.4375 15.75 C18.33308594 14.58984375 18.22867187 13.4296875 18.12109375 12.234375 C18.01801913 9.48128523 18.13786527 7.580018 19 5 C18.01 5.66 17.02 6.32 16 7 C11.46997916 7.98836818 9.0159088 8.29480503 5 6 C5.144375 6.73605469 5.28875 7.47210938 5.4375 8.23046875 C5.623125 9.20628906 5.80875 10.18210937 6 11.1875 C6.185625 12.15042969 6.37125 13.11335937 6.5625 14.10546875 C6.97691408 16.84726192 7.30491012 19.24151627 7 22 C6.01 22.66 5.02 23.32 4 24 C2.015625 22.640625 2.015625 22.640625 0 20 C-0.51270905 16.57486085 -0.37576221 13.20362379 -0.25 9.75 C-0.23195313 8.81414063 -0.21390625 7.87828125 -0.1953125 6.9140625 C-0.14825673 4.60832985 -0.08253713 2.30469055 0 0 Z " fill="#BAA038" transform="translate(0,0)"/>
<path d="M0 0 C0.10841951 1.91541138 0.18578079 3.83259773 0.25 5.75 C0.29640625 6.81734375 0.3428125 7.8846875 0.390625 8.984375 C-0.08264522 12.63802112 -1.19155042 13.72228105 -4 16 C-4.66 15.67 -5.32 15.34 -6 15 C-5.34 14.01 -4.68 13.02 -4 12 C-4.30840599 9.84725052 -4.30840599 9.84725052 -5 8 C-5.99 8 -6.98 8 -8 8 C-7.67 8.99 -7.34 9.98 -7 11 C-7.66 11 -8.32 11 -9 11 C-8.34 12.32 -7.68 13.64 -7 15 C-11.875 13.125 -11.875 13.125 -13 12 C-13.23363881 10.15108054 -13.41303635 8.29511969 -13.5625 6.4375 C-13.64628906 5.42558594 -13.73007813 4.41367188 -13.81640625 3.37109375 C-13.87699219 2.58863281 -13.93757812 1.80617188 -14 1 C-13.13375 1.20625 -12.2675 1.4125 -11.375 1.625 C-7.04564341 2.10603962 -4.125034 0 0 0 Z " fill="#D5BE96" transform="translate(19,5)"/>
<path d="M0 0 C0 0.99 0 1.98 0 3 C0.31710938 3.74636719 0.63421875 4.49273438 0.9609375 5.26171875 C2.19283036 8.50817324 2.41530631 11.35255407 2.625 14.8125 C2.69976563 15.97394531 2.77453125 17.13539062 2.8515625 18.33203125 C2.90054687 19.21246094 2.94953125 20.09289062 3 21 C2.01 21.66 1.02 22.32 0 23 C-3.09756654 20.59078158 -3.93698967 19.41883335 -4.53125 15.46875 C-4.5209375 14.1590625 -4.510625 12.849375 -4.5 11.5 C-4.51546875 9.53546875 -4.51546875 9.53546875 -4.53125 7.53125 C-3.93698967 3.58116665 -3.09756654 2.40921842 0 0 Z " fill="#B69C36" transform="translate(4,1)"/>
<path d="M0 0 C9.8877551 -0.58163265 9.8877551 -0.58163265 14 3 C14 3.99 14 4.98 14 6 C14.04640625 6.91652344 14.0928125 7.83304687 14.140625 8.77734375 C14.17671875 9.82019531 14.2128125 10.86304688 14.25 11.9375 C14.29640625 12.97777344 14.3428125 14.01804687 14.390625 15.08984375 C14 18 14 18 10 22 C9.67 15.73 9.34 9.46 9 3 C4.545 2.01 4.545 2.01 0 1 C0 0.67 0 0.34 0 0 Z " fill="#B89F37" transform="translate(9,0)"/>
<path d="M0 0 C0.99 0 1.98 0 3 0 C3 0.99 3 1.98 3 3 C3.66 3.33 4.32 3.66 5 4 C4.67 4.99 4.34 5.98 4 7 C5.32 6.01 6.64 5.02 8 4 C8.1875 6.375 8.1875 6.375 8 9 C4.33134759 11.44576827 2.32799657 11.23607254 -2 11 C-2.66 10.67 -3.32 10.34 -4 10 C-4 8.35 -4 6.7 -4 5 C-3.01 5 -2.02 5 -1 5 C-0.67 3.35 -0.34 1.7 0 0 Z " fill="#CEBBA1" transform="translate(11,13)"/>
<path d="M0 0 C1.2065625 0.0309375 1.2065625 0.0309375 2.4375 0.0625 C2.4375 0.7225 2.4375 1.3825 2.4375 2.0625 C3.7575 2.3925 5.0775 2.7225 6.4375 3.0625 C6.6875 5.3125 6.6875 5.3125 6.4375 8.0625 C4.4375 10.375 4.4375 10.375 2.4375 12.0625 C1.7775 11.7325 1.1175 11.4025 0.4375 11.0625 C1.0975 10.0725 1.7575 9.0825 2.4375 8.0625 C2.12909401 5.90975052 2.12909401 5.90975052 1.4375 4.0625 C0.4475 4.0625 -0.5425 4.0625 -1.5625 4.0625 C-1.5625 3.4025 -1.5625 2.7425 -1.5625 2.0625 C-2.2225 1.7325 -2.8825 1.4025 -3.5625 1.0625 C-2.5625 0.0625 -2.5625 0.0625 0 0 Z " fill="#E5DFD1" transform="translate(12.5625,8.9375)"/>
<path d="M0 0 C0 3 0 3 -1.0625 5.125 C-2.68334072 10.09557822 -1.62866061 15.11401816 0 20 C0.66 20 1.32 20 2 20 C1.67 20.99 1.34 21.98 1 23 C-1.46484375 21.46875 -1.46484375 21.46875 -4 19 C-4.62890625 15.46875 -4.62890625 15.46875 -4.5625 11.5 C-4.56378906 10.1903125 -4.56507813 8.880625 -4.56640625 7.53125 C-3.93556027 3.59825161 -3.08751337 2.40617344 0 0 Z " fill="#867C3D" transform="translate(4,1)"/>
<path d="M0 0 C2.31 0 4.62 0 7 0 C7 5.94 7 11.88 7 18 C6.34 17.67 5.68 17.34 5 17 C4.5859375 14.6015625 4.5859375 14.6015625 4.375 11.625 C4.30023437 10.64789063 4.22546875 9.67078125 4.1484375 8.6640625 C4.04336671 6.77831835 4 4.88866907 4 3 C2.05990478 1.29467677 2.05990478 1.29467677 0 0 Z " fill="#948334" transform="translate(18,0)"/>
<path d="M0 0 C5.12583611 -0.10251672 9.94997778 -0.03590199 15 1 C15 1.33 15 1.66 15 2 C13.14375 2.1546875 13.14375 2.1546875 11.25 2.3125 C7.7207134 2.73801682 5.62839034 3.48112592 3 6 C3 5.01 3 4.02 3 3 C2.01 3.66 1.02 4.32 0 5 C0 3.35 0 1.7 0 0 Z " fill="#9D882F" transform="translate(0,0)"/>
<path d="M0 0 C0.99 0 1.98 0 3 0 C3 0.99 3 1.98 3 3 C3.66 3.33 4.32 3.66 5 4 C4.01 5.485 4.01 5.485 3 7 C3.33 7.66 3.66 8.32 4 9 C2.35 9 0.7 9 -1 9 C-1.33 8.34 -1.66 7.68 -2 7 C-1.34 6.67 -0.68 6.34 0 6 C0 4.68 0 3.36 0 2 C0 1.34 0 0.68 0 0 Z " fill="#A68C7C" transform="translate(11,13)"/>
<path d="M0 0 C9.8877551 -0.58163265 9.8877551 -0.58163265 14 3 C14 3.99 14 4.98 14 6 C13.49210937 5.72285156 12.98421875 5.44570312 12.4609375 5.16015625 C8.2922702 2.9665317 4.75868447 1.47586845 0 1 C0 0.67 0 0.34 0 0 Z " fill="#8A7D38" transform="translate(9,0)"/>
<path d="M0 0 C0.99 0.33 1.98 0.66 3 1 C3.33 1.99 3.66 2.98 4 4 C3.34 4 2.68 4 2 4 C2.66 5.32 3.32 6.64 4 8 C1.525 7.01 1.525 7.01 -1 6 C-1.042721 4.33388095 -1.04063832 2.66617115 -1 1 C-0.67 0.67 -0.34 0.34 0 0 Z " fill="#EBE6D8" transform="translate(8,12)"/>
<path d="M0 0 C0.66 0 1.32 0 2 0 C2.433125 0.9590625 2.433125 0.9590625 2.875 1.9375 C3.82823451 4.15206079 3.82823451 4.15206079 6 5 C6 5.66 6 6.32 6 7 C5.01 7 4.02 7 3 7 C2.34 8.32 1.68 9.64 1 11 C0.67 7.37 0.34 3.74 0 0 Z " fill="#D7C6A7" transform="translate(5,6)"/>
<path d="M0 0 C0.33 0 0.66 0 1 0 C1 1.98 1 3.96 1 6 C-1.31 6 -3.62 6 -6 6 C-5.01 5.67 -4.02 5.34 -3 5 C-2.67 4.01 -2.34 3.02 -2 2 C-1.34 2 -0.68 2 0 2 C0 1.34 0 0.68 0 0 Z " fill="#FDFDFC" transform="translate(24,19)"/>
<path d="M0 0 C1.2065625 0.0309375 1.2065625 0.0309375 2.4375 0.0625 C2.7675 1.7125 3.0975 3.3625 3.4375 5.0625 C1.7875 4.7325 0.1375 4.4025 -1.5625 4.0625 C-1.5625 3.4025 -1.5625 2.7425 -1.5625 2.0625 C-2.2225 1.7325 -2.8825 1.4025 -3.5625 1.0625 C-2.5625 0.0625 -2.5625 0.0625 0 0 Z " fill="#F2ECDC" transform="translate(12.5625,8.9375)"/>
<path d="M0 0 C1.32 0.33 2.64 0.66 4 1 C4 1.66 4 2.32 4 3 C4.66 3 5.32 3 6 3 C5.67 3.99 5.34 4.98 5 6 C3.2925002 4.71937515 1.62626404 3.38232443 0 2 C0 1.34 0 0.68 0 0 Z " fill="#7D7945" transform="translate(0,18)"/>
<path d="M0 0 C3.465 1.98 3.465 1.98 7 4 C7 4.33 7 4.66 7 5 C4.69 5 2.38 5 0 5 C0 3.35 0 1.7 0 0 Z " fill="#FAFAF5" transform="translate(0,20)"/>
<path d="M0 0 C2.31 0 4.62 0 7 0 C7 1.65 7 3.3 7 5 C3.535 3.02 3.535 3.02 0 1 C0 0.67 0 0.34 0 0 Z " fill="#FAFAF5" transform="translate(18,0)"/>
<path d="M0 0 C2.31 0 4.62 0 7 0 C2.25 3.875 2.25 3.875 0 5 C0 3.35 0 1.7 0 0 Z " fill="#FAFAF5" transform="translate(0,0)"/>
</svg>
