<?xml version="1.0" encoding="UTF-8"?>
<svg version="1.1" xmlns="http://www.w3.org/2000/svg" width="96" height="96">
<path d="M0 0 C10.58169501 7.87785496 17.77124769 17.55811543 20.625 30.5625 C21.93499387 45.33889924 21.12402646 58.88012641 11.26953125 70.73046875 C10.72683594 71.33503906 10.18414062 71.93960938 9.625 72.5625 C9.05136719 73.23925781 8.47773437 73.91601562 7.88671875 74.61328125 C0.28203529 82.97370965 -10.66935943 88.3470648 -22.01171875 88.8984375 C-38.67992299 89.19693334 -50.6098431 85.91469878 -63.0625 74.4375 C-73.14952216 63.99778476 -75.81245579 51.47382994 -75.73413086 37.4765625 C-75.46781005 24.67533483 -70.52190163 15.23616353 -62.375 5.5625 C-45.38774374 -10.44521797 -19.39101074 -12.94618501 0 0 Z " fill="#D4C34B" transform="translate(75.375,7.4375)"/>
<path d="M0 0 C3.43183318 0.84044894 5.48528134 1.48528134 8 4 C10.89883083 4.24339551 10.89883083 4.24339551 14.125 4.125 C15.76855469 4.09792969 15.76855469 4.09792969 17.4453125 4.0703125 C18.28835937 4.04710937 19.13140625 4.02390625 20 4 C17.35261084 5.4606285 16.10551666 6 13 6 C13 7.32 13 8.64 13 10 C12.34 10 11.68 10 11 10 C10.9175 11.11375 10.835 12.2275 10.75 13.375 C10 17 10 17 8.1875 18.4375 C6 19 6 19 2 19 C2.33 20.32 2.66 21.64 3 23 C-0.37097383 24.49821059 -2.20442119 25 -6 25 C-5.52239552 32.52227049 -4.47024444 39.38982634 0.9375 45.015625 C2.91305714 46.74423749 4.94334238 48.36987713 7 50 C7.53496094 50.55945312 8.06992187 51.11890625 8.62109375 51.6953125 C9.92574289 53.22909597 9.92574289 53.22909597 12 53 C11.67 51.02 11.34 49.04 11 47 C15.95 48.98 15.95 48.98 21 51 C20.79375 50.05125 20.5875 49.1025 20.375 48.125 C20.25125 47.09375 20.1275 46.0625 20 45 C20.66 44.34 21.32 43.68 22 43 C26.55555556 43.55555556 26.55555556 43.55555556 28 45 C30.32817964 45.36760731 32.6618385 45.70241581 35 46 C34.484375 45.0925 33.96875 44.185 33.4375 43.25 C32 40 32 40 32.0625 37.75 C33 36 33 36 37 34 C36.34 30.7 35.68 27.4 35 24 C36.32 23.01 37.64 22.02 39 21 C40.46726798 24.81489674 39.43336419 27.29011622 38 31 C38.99 31 39.98 31 41 31 C41.495 32.485 41.495 32.485 42 34 C42.99 34.495 42.99 34.495 44 35 C44 36.32 44 37.64 44 39 C44.763125 38.67 45.52625 38.34 46.3125 38 C49 37 49 37 52 37 C52 34.69 52 32.38 52 30 C52.48210937 30.42152344 52.96421875 30.84304687 53.4609375 31.27734375 C54.09257813 31.82519531 54.72421875 32.37304688 55.375 32.9375 C56.00148438 33.48277344 56.62796875 34.02804688 57.2734375 34.58984375 C58.95632334 36.06958624 58.95632334 36.06958624 61 37 C61 35.02 61 33.04 61 31 C62.32 31 63.64 31 65 31 C66.94041898 50.55183036 66.94041898 50.55183036 62 58 C61.37931641 59.11375 61.37931641 59.11375 60.74609375 60.25 C54.91290028 70.08832061 45.49076211 76.45718002 34.8125 80.08203125 C25.60095264 82.29997554 11.32887889 83.08892804 3 78 C-1.79186086 72.92222859 -3.95207986 66.22776393 -4.0546875 59.31640625 C-3.99539062 58.07761719 -3.93609375 56.83882812 -3.875 55.5625 C-3.69047418 49.5314012 -3.69047418 49.5314012 -6 44.0625 C-9.5994853 38.21174651 -8.30883296 30.61190574 -8 24 C-7.96777344 22.80890625 -7.93554688 21.6178125 -7.90234375 20.390625 C-7.59685196 13.71680441 -6.7653291 7.67396143 -3 2 C-2.01 1.34 -1.02 0.68 0 0 Z " fill="#D0BE4B" transform="translate(26,12)"/>
<path d="M0 0 C3.43183318 0.84044894 5.48528134 1.48528134 8 4 C10.89883083 4.24339551 10.89883083 4.24339551 14.125 4.125 C15.76855469 4.09792969 15.76855469 4.09792969 17.4453125 4.0703125 C18.28835937 4.04710937 19.13140625 4.02390625 20 4 C17.35261084 5.4606285 16.10551666 6 13 6 C13 7.32 13 8.64 13 10 C12.34 10 11.68 10 11 10 C10.9175 11.11375 10.835 12.2275 10.75 13.375 C10 17 10 17 8.1875 18.4375 C6 19 6 19 2 19 C2.33 20.32 2.66 21.64 3 23 C-0.37097383 24.49821059 -2.20442119 25 -6 25 C-5.52239552 32.52227049 -4.47024444 39.38982634 0.9375 45.015625 C2.91305714 46.74423749 4.94334238 48.36987713 7 50 C7.53496094 50.55945312 8.06992187 51.11890625 8.62109375 51.6953125 C9.92574289 53.22909597 9.92574289 53.22909597 12 53 C11.67 51.02 11.34 49.04 11 47 C15.95 48.98 15.95 48.98 21 51 C20.79375 50.05125 20.5875 49.1025 20.375 48.125 C20.25125 47.09375 20.1275 46.0625 20 45 C20.66 44.34 21.32 43.68 22 43 C26.55555556 43.55555556 26.55555556 43.55555556 28 45 C30.32817964 45.36760731 32.6618385 45.70241581 35 46 C34.484375 45.0925 33.96875 44.185 33.4375 43.25 C32 40 32 40 32.0625 37.75 C33 36 33 36 37 34 C36.34 30.7 35.68 27.4 35 24 C36.32 23.01 37.64 22.02 39 21 C40.46726798 24.81489674 39.43336419 27.29011622 38 31 C38.99 31 39.98 31 41 31 C41.495 32.485 41.495 32.485 42 34 C42.99 34.495 42.99 34.495 44 35 C44.71727778 36.64551962 45.38325228 38.31422289 46 40 C46.33 40.66 46.66 41.32 47 42 C40.35793358 51.12177122 40.35793358 51.12177122 37 54 C36.34 54 35.68 54 35 54 C34.79375 55.258125 34.5875 56.51625 34.375 57.8125 C34.0234375 59.95703125 34.0234375 59.95703125 33 62 C27.84405474 65.47109779 22.8072356 65.41811683 16.83398438 65.3515625 C12.90981354 65.44100229 11.21108115 65.82506288 8.1484375 68.36328125 C7.43945312 69.23339844 6.73046875 70.10351562 6 71 C5.236875 71.928125 4.47375 72.85625 3.6875 73.8125 C2.8521875 74.8953125 2.8521875 74.8953125 2 76 C-2.79681037 69.44435916 -4.26829333 63.77891066 -3.875 55.5625 C-3.69047418 49.5314012 -3.69047418 49.5314012 -6 44.0625 C-9.5994853 38.21174651 -8.30883296 30.61190574 -8 24 C-7.96777344 22.80890625 -7.93554688 21.6178125 -7.90234375 20.390625 C-7.59685196 13.71680441 -6.7653291 7.67396143 -3 2 C-2.01 1.34 -1.02 0.68 0 0 Z " fill="#574E03" transform="translate(26,12)"/>
<path d="M0 0 C0.99 0.66 1.98 1.32 3 2 C1.77925781 2.01417969 0.55851562 2.02835937 -0.69921875 2.04296875 C-17.08099334 2.27194204 -17.08099334 2.27194204 -31 10 C-30.236875 9.484375 -29.47375 8.96875 -28.6875 8.4375 C-27.800625 7.963125 -26.91375 7.48875 -26 7 C-25.01 7.33 -24.02 7.66 -23 8 C-23.598125 8.2475 -24.19625 8.495 -24.8125 8.75 C-27.28777159 10.16444091 -28.33430804 11.72860188 -30 14 C-30.66 14 -31.32 14 -32 14 C-34.87942152 21.38634216 -35.70939864 28.10248057 -36 36 C-36.03254883 36.66580078 -36.06509766 37.33160156 -36.09863281 38.01757812 C-36.67929752 48.38631391 -36.67929752 48.38631391 -32.87890625 57.81640625 C-31.15430627 62.10107908 -31.91976174 66.88466574 -32.05078125 71.4296875 C-31.9850005 76.05458015 -30.99168134 78.86343105 -29 83 C-28.608125 83.99 -28.21625 84.98 -27.8125 86 C-27.544375 86.66 -27.27625 87.32 -27 88 C-34.6082275 86.54598319 -40.64536415 80.10170533 -45 74 C-52.0691909 62.82771229 -53.64207474 50.89500105 -53 38 C-53.99 38.495 -53.99 38.495 -55 39 C-53.16973258 26.79821717 -46.3236162 15.84080497 -36.5 8.4375 C-24.81035516 0.70170562 -13.75853913 -1.35306544 0 0 Z " fill="#D3C24E" transform="translate(55,0)"/>
<path d="M0 0 C3.28788824 3.11016455 5.83735988 6.01618925 8 10 C6.9375 8.1875 6.9375 8.1875 6 6 C6.33 5.01 6.66 4.02 7 3 C12.71615398 8.0118714 13.94525463 15.7250971 14.4296875 23.00390625 C14.96390156 37.31070474 12.85759463 49.0184991 3 60 C2.42636719 60.67675781 1.85273437 61.35351562 1.26171875 62.05078125 C-6.34296471 70.41120965 -17.29435943 75.7845648 -28.63671875 76.3359375 C-45.30492299 76.63443334 -57.2348431 73.35219878 -69.6875 61.875 C-78.65907126 52.58973744 -82.36173432 40.98541522 -82.3125 28.3125 C-82.32861328 27.47138672 -82.34472656 26.63027344 -82.36132812 25.76367188 C-82.3661984 19.62225487 -82.3661984 19.62225487 -80.48046875 16.41796875 C-79.99191406 15.95003906 -79.50335938 15.48210938 -79 15 C-79.05800781 16.11375 -79.11601563 17.2275 -79.17578125 18.375 C-79.72284593 33.53889678 -77.41581582 47.23570803 -67 59 C-65.0740024 60.97615378 -63.28213981 62.36990013 -61 64 C-60.40574219 64.42925781 -59.81148437 64.85851562 -59.19921875 65.30078125 C-48.75106283 72.39882705 -37.3037537 73.2257499 -25 72 C-14.06243343 69.7700107 -3.86654092 63.35958427 2.56640625 54.2578125 C9.11164015 43.94951497 9.16499423 35.02624622 9 23 C7.68 23 6.36 23 5 23 C5 24.98 5 26.96 5 29 C1.63408134 27.55746343 -0.51047079 25.66735273 -3 23 C-3.33 24.98 -3.66 26.96 -4 29 C-4.99 29 -5.98 29 -7 29 C-7.33 29.66 -7.66 30.32 -8 31 C-9.32 31 -10.64 31 -12 31 C-12 29.68 -12 28.36 -12 27 C-13.485 26.505 -13.485 26.505 -15 26 C-15.495 22.535 -15.495 22.535 -16 19 C-15.34 19 -14.68 19 -14 19 C-13.67 17.68 -13.34 16.36 -13 15 C-12.01 15 -11.02 15 -10 15 C-7.91579546 12.6865368 -7.91579546 12.6865368 -5.9375 9.75 C-5.24527344 8.77546875 -4.55304688 7.8009375 -3.83984375 6.796875 C-2.37159824 4.56489244 -1.11261122 2.42122649 0 0 Z " fill="#E2D164" transform="translate(82,20)"/>
<path d="M0 0 C1.299375 1.1446875 1.299375 1.1446875 2.625 2.3125 C4.91849779 4.33653761 4.91849779 4.33653761 7.9375 3.6875 C11 4 11 4 12.71484375 5.8828125 C17 12.15426471 17 12.15426471 17 16 C10.375 16.25 10.375 16.25 7 14 C4.84725052 14.30840599 4.84725052 14.30840599 3 15 C3 16.98 3 18.96 3 21 C-0.12290635 20.51421457 -2.99580359 20.0013988 -6 19 C-5.67 20.65 -5.34 22.3 -5 24 C-6.32 23.67 -7.64 23.34 -9 23 C-9 22.34 -9 21.68 -9 21 C-9.60585938 20.92136719 -10.21171875 20.84273437 -10.8359375 20.76171875 C-14.4251608 19.49836398 -15.23431648 16.5758355 -16.89453125 13.33203125 C-19.73611355 7.33759791 -20.26168133 2.5420333 -20 -4 C-11.37913823 -5.64206891 -7.05129504 -5.17485894 0 0 Z " fill="#F5E472" transform="translate(44,42)"/>
<path d="M0 0 C0.66 0.33 1.32 0.66 2 1 C1.34 3.97 0.68 6.94 0 10 C0.99 10 1.98 10 3 10 C3.33 10.99 3.66 11.98 4 13 C4.66 13.33 5.32 13.66 6 14 C6.71727778 15.64551962 7.38325228 17.31422289 8 19 C8.495 19.99 8.495 19.99 9 21 C4.8038523 27.0707154 1.47340049 31.36049715 -6 33 C-12.99338479 34.00974005 -19.94605262 34.12069492 -27 34 C-26.67 33.34 -26.34 32.68 -26 32 C-26.28112064 29.99199544 -26.61067967 27.98985949 -27 26 C-22.05 27.98 -22.05 27.98 -17 30 C-17.20625 29.05125 -17.4125 28.1025 -17.625 27.125 C-17.74875 26.09375 -17.8725 25.0625 -18 24 C-17.34 23.34 -16.68 22.68 -16 22 C-11.44444444 22.55555556 -11.44444444 22.55555556 -10 24 C-7.67182036 24.36760731 -5.3381615 24.70241581 -3 25 C-3.515625 24.0925 -4.03125 23.185 -4.5625 22.25 C-6 19 -6 19 -5.9375 16.75 C-4.7127503 14.46380055 -3.30961784 14.05954299 -1 13 C-1.17917969 12.31292969 -1.35835937 11.62585937 -1.54296875 10.91796875 C-1.86201172 9.56638672 -1.86201172 9.56638672 -2.1875 8.1875 C-2.40792969 7.29417969 -2.62835938 6.40085937 -2.85546875 5.48046875 C-3 3 -3 3 -1.55078125 1.17578125 C-0.78314453 0.59376953 -0.78314453 0.59376953 0 0 Z " fill="#A89729" transform="translate(64,33)"/>
<path d="M0 0 C0.515625 0.45375 1.03125 0.9075 1.5625 1.375 C4.57300574 3.38200383 7.50927237 4.12731809 11 5 C11.33 7.31 11.66 9.62 12 12 C10.02 12.66 8.04 13.32 6 14 C6 12.68 6 11.36 6 10 C4.68 11.65 3.36 13.3 2 15 C3.32 16.32 4.64 17.64 6 19 C6.73605469 18.71125 7.47210938 18.4225 8.23046875 18.125 C9.69419922 17.568125 9.69419922 17.568125 11.1875 17 C12.15042969 16.62875 13.11335938 16.2575 14.10546875 15.875 C16.92182358 15.02363228 19.08164439 14.82927353 22 15 C22 15.66 22 16.32 22 17 C22.99 17 23.98 17 25 17 C24.67 16.01 24.34 15.02 24 14 C21.89415562 13.19436362 21.89415562 13.19436362 19.4375 12.8125 C18.61121094 12.65394531 17.78492187 12.49539062 16.93359375 12.33203125 C16.29550781 12.22246094 15.65742187 12.11289063 15 12 C15 11.01 15 10.02 15 9 C16.16917969 9.01160156 17.33835937 9.02320312 18.54296875 9.03515625 C20.09114423 9.04453913 21.63932145 9.0536388 23.1875 9.0625 C23.95642578 9.07087891 24.72535156 9.07925781 25.51757812 9.08789062 C29.48526789 9.10491934 33.12571234 8.98604115 37 8 C36.875 11.3125 36.875 11.3125 36 15 C30.83261415 18.45811273 25.80959936 18.41814317 19.83398438 18.3515625 C15.90981354 18.44100229 14.21108115 18.82506288 11.1484375 21.36328125 C10.43945312 22.23339844 9.73046875 23.10351562 9 24 C8.236875 24.928125 7.47375 25.85625 6.6875 26.8125 C6.130625 27.534375 5.57375 28.25625 5 29 C-0.7706953 21.11338309 -1.58458504 13.63885563 -1 4 C-0.70914959 2.65675954 -0.39290285 1.31701034 0 0 Z " fill="#584A05" transform="translate(23,59)"/>
<path d="M0 0 C3.43183318 0.84044894 5.48528134 1.48528134 8 4 C10.89883083 4.24339551 10.89883083 4.24339551 14.125 4.125 C15.76855469 4.09792969 15.76855469 4.09792969 17.4453125 4.0703125 C18.28835937 4.04710937 19.13140625 4.02390625 20 4 C17.35261084 5.4606285 16.10551666 6 13 6 C13 7.32 13 8.64 13 10 C12.34 10 11.68 10 11 10 C10.9175 11.11375 10.835 12.2275 10.75 13.375 C10 17 10 17 8.1875 18.4375 C6 19 6 19 2 19 C2.33 20.32 2.66 21.64 3 23 C-0.37097383 24.49821059 -2.20442119 25 -6 25 C-6 22.03 -6 19.06 -6 16 C-2.28400809 15.79913557 -1.22791555 15.8480563 2 18 C2.061875 16.741875 2.12375 15.48375 2.1875 14.1875 C2.22230469 13.47980469 2.25710937 12.77210937 2.29296875 12.04296875 C2.14285448 9.54328284 2.14285448 9.54328284 -1 7 C-2.32 9.64 -3.64 12.28 -5 15 C-7 11 -7 11 -6.42578125 8.7109375 C-6.05839844 7.94007812 -5.69101562 7.16921875 -5.3125 6.375 C-4.95800781 5.59898438 -4.60351562 4.82296875 -4.23828125 4.0234375 C-3 2 -3 2 0 0 Z " fill="#A99B1B" transform="translate(26,12)"/>
<path d="M0 0 C0.99 0.66 1.98 1.32 3 2 C1.77925781 2.01417969 0.55851562 2.02835937 -0.69921875 2.04296875 C-17.08099334 2.27194204 -17.08099334 2.27194204 -31 10 C-30.236875 9.484375 -29.47375 8.96875 -28.6875 8.4375 C-27.800625 7.963125 -26.91375 7.48875 -26 7 C-25.01 7.33 -24.02 7.66 -23 8 C-23.556875 8.226875 -24.11375 8.45375 -24.6875 8.6875 C-27.1945884 9.96238526 -27.1945884 9.96238526 -29.375 12.5 C-32 15 -32 15 -35 15.875 C-38.71937345 17.26976504 -39.764357 18.96871922 -41.82421875 22.24609375 C-43.07509262 24.11201524 -44.26778056 25.56598543 -46 27 C-46.99 27 -47.98 27 -49 27 C-48.83424978 20.53574149 -45.2831702 16.48675781 -41 12 C-28.98894556 1.46140407 -15.53863077 -1.52812621 0 0 Z " fill="#D2C258" transform="translate(55,0)"/>
<path d="M0 0 C0.99 0.33 1.98 0.66 3 1 C3.61488281 0.80664062 4.22976562 0.61328125 4.86328125 0.4140625 C7.92765282 -0.17976453 9.47486127 0.92451961 12.1875 2.375 C13.06792969 2.83648437 13.94835937 3.29796875 14.85546875 3.7734375 C17 5 17 5 18 6 C18.14115161 8.67058851 18.04247107 11.32432238 18 14 C14.63408134 12.55746343 12.48952921 10.66735273 10 8 C9.67 9.98 9.34 11.96 9 14 C8.01 14 7.02 14 6 14 C5.67 14.66 5.34 15.32 5 16 C3.68 16 2.36 16 1 16 C1 14.68 1 13.36 1 12 C0.01 11.67 -0.98 11.34 -2 11 C-2.33 8.69 -2.66 6.38 -3 4 C-2.34 4 -1.68 4 -1 4 C-0.67 2.68 -0.34 1.36 0 0 Z " fill="#ECDF5F" transform="translate(69,35)"/>
<path d="M0 0 C1.0828125 0.4640625 1.0828125 0.4640625 2.1875 0.9375 C4.91524983 2.05781507 4.91524983 2.05781507 7.5625 2.5 C10.90836848 3.186332 13.07424245 3.71157454 15.13671875 6.58203125 C16.90222815 9.52454691 18 11.52726746 18 15 C11.375 15.25 11.375 15.25 8 13 C5.84725052 13.30840599 5.84725052 13.30840599 4 14 C4 15.98 4 17.96 4 20 C2.02 19.67 0.04 19.34 -2 19 C-0.68 18.67 0.64 18.34 2 18 C2 15.69 2 13.38 2 11 C1.38125 10.7525 0.7625 10.505 0.125 10.25 C-2.38895216 8.77120461 -2.8534051 7.62078835 -4 5 C-4.66 4.34 -5.32 3.68 -6 3 C-4.35 3 -2.7 3 -1 3 C-0.67 2.01 -0.34 1.02 0 0 Z " fill="#F5E476" transform="translate(43,43)"/>
<path d="M0 0 C1.32 0 2.64 0 4 0 C3.875 3.3125 3.875 3.3125 3 7 C-1.88919592 10.36132219 -6.18459984 10.37557255 -11.875 10.1875 C-12.65875 10.17396484 -13.4425 10.16042969 -14.25 10.14648438 C-16.16696782 10.11141789 -18.08357751 10.05762072 -20 10 C-16.79678245 7.39225238 -15.1747899 6.65210084 -11 7 C-11 7.66 -11 8.32 -11 9 C-10.01 9 -9.02 9 -8 9 C-8.33 8.01 -8.66 7.02 -9 6 C-11.10584438 5.19436362 -11.10584438 5.19436362 -13.5625 4.8125 C-14.38878906 4.65394531 -15.21507812 4.49539062 -16.06640625 4.33203125 C-16.70449219 4.22246094 -17.34257813 4.11289063 -18 4 C-18 3.01 -18 2.02 -18 1 C-16.78441406 1.01160156 -15.56882812 1.02320312 -14.31640625 1.03515625 C-12.73177236 1.04453278 -11.14713682 1.05363313 -9.5625 1.0625 C-8.76005859 1.07087891 -7.95761719 1.07925781 -7.13085938 1.08789062 C-5.08704779 1.0965143 -3.04316098 1.0522815 -1 1 C-0.67 0.67 -0.34 0.34 0 0 Z " fill="#423903" transform="translate(56,67)"/>
<path d="M0 0 C0.48210937 0.42152344 0.96421875 0.84304687 1.4609375 1.27734375 C2.09257813 1.82519531 2.72421875 2.37304688 3.375 2.9375 C4.00148438 3.48277344 4.62796875 4.02804688 5.2734375 4.58984375 C6.95632334 6.06958624 6.95632334 6.06958624 9 7 C9 5.02 9 3.04 9 1 C10.32 1 11.64 1 13 1 C13 6.28 13 11.56 13 17 C10.36 15.02 7.72 13.04 5 11 C4.67 12.65 4.34 14.3 4 16 C2 14.75 2 14.75 0 13 C0 11.68 0 10.36 0 9 C-0.66 9 -1.32 9 -2 9 C-2 8.34 -2 7.68 -2 7 C-1.34 7 -0.68 7 0 7 C0 4.69 0 2.38 0 0 Z " fill="#B5A726" transform="translate(78,42)"/>
<path d="M0 0 C1.2375 0.1546875 1.2375 0.1546875 2.5 0.3125 C4.75055832 3.68833748 4.70667458 4.49609359 4.3125 8.375 C4.23644531 9.25285156 4.16039063 10.13070312 4.08203125 11.03515625 C3.5 13.3125 3.5 13.3125 0.5 15.3125 C-2.54358279 15.79454074 -5.4549599 15.78519576 -8.5 15.3125 C-11.0625 13.3125 -11.0625 13.3125 -12.5 11.3125 C-9.08900832 11.3125 -5.86911686 11.80395406 -2.5 12.3125 C-3.015625 11.405 -3.53125 10.4975 -4.0625 9.5625 C-5.5 6.3125 -5.5 6.3125 -5.3125 4.0625 C-4.01421719 1.26619857 -3.0769922 0.38462402 0 0 Z " fill="#433300" transform="translate(63.5,45.6875)"/>
<path d="M0 0 C4.69709779 1.61043353 8.75074371 3.69873841 11.1875 8.1875 C11.455625 8.785625 11.72375 9.38375 12 10 C12.66 10.33 13.32 10.66 14 11 C14 13.31 14 15.62 14 18 C7.85412262 17.7589852 7.85412262 17.7589852 5.421875 15.59765625 C4.21155069 14.11953029 3.09779097 12.56352047 2 11 C3.32 11 4.64 11 6 11 C5.566875 10.54109375 5.13375 10.0821875 4.6875 9.609375 C4.130625 8.99578125 3.57375 8.3821875 3 7.75 C2.443125 7.14671875 1.88625 6.5434375 1.3125 5.921875 C0 4 0 4 0 0 Z " fill="#FDF3AE" transform="translate(31,43)"/>
<path d="M0 0 C2.97 0 5.94 0 9 0 C8.84924822 7.08533383 5.42765499 10.72362592 1 16 C0.34 16.99 -0.32 17.98 -1 19 C-1 17.02 -1 15.04 -1 13 C-1.66 13 -2.32 13 -3 13 C-2.38976378 6.53149606 -2.38976378 6.53149606 -0.625 4.125 C1 3 1 3 4 2 C2.68 1.34 1.36 0.68 0 0 Z " fill="#AC9A24" transform="translate(72,19)"/>
<path d="M0 0 C3 1 3 1 4.1328125 3.14453125 C4.46023437 4.02496094 4.78765625 4.90539062 5.125 5.8125 C5.45757812 6.68519531 5.79015625 7.55789062 6.1328125 8.45703125 C7.48811755 12.43137172 8.1233556 15.76968093 8.09765625 19.984375 C8.09443359 20.91894531 8.09121094 21.85351562 8.08789062 22.81640625 C8.07951172 23.78449219 8.07113281 24.75257812 8.0625 25.75 C8.05798828 26.73355469 8.05347656 27.71710937 8.04882812 28.73046875 C8.03706483 31.15370791 8.02062684 33.57682273 8 36 C7.67 36 7.34 36 7 36 C6.67 34.02 6.34 32.04 6 30 C5.505 32.475 5.505 32.475 5 35 C3 33 3 33 2.8046875 30.1796875 C2.82789062 29.08914062 2.85109375 27.99859375 2.875 26.875 C2.89304687 25.77929688 2.91109375 24.68359375 2.9296875 23.5546875 C2.96449219 22.29011719 2.96449219 22.29011719 3 21 C3.66 21 4.32 21 5 21 C4.61301964 14.9050594 3.58878097 10.40405616 0.83984375 4.9453125 C0 3 0 3 0 0 Z " fill="#E0D05D" transform="translate(88,23)"/>
<path d="M0 0 C2.9375 0.75 2.9375 0.75 6 2 C6.875 4.125 6.875 4.125 7 6 C8.32 6.33 9.64 6.66 11 7 C11.33 8.65 11.66 10.3 12 12 C8.59692475 13.10099493 7.20657391 13.08100938 3.8125 11.75 C1 10 1 10 -1 7 C-0.625 3.3125 -0.625 3.3125 0 0 Z " fill="#AA9F37" transform="translate(41,29)"/>
<path d="M0 0 C1.9375 0.5625 1.9375 0.5625 4 2 C4.91214879 5.85909105 5.26132231 8.21603308 4 12 C1.69 11.67 -0.62 11.34 -3 11 C-3.66 17.93 -4.32 24.86 -5 32 C-5.33 32 -5.66 32 -6 32 C-6.11624638 23.26860536 -5.89115181 14.68873018 -5 6 C-4.34 6 -3.68 6 -3 6 C-2.01 4.02 -1.02 2.04 0 0 Z " fill="#8C7B06" transform="translate(24,18)"/>
<path d="M0 0 C4.16943993 0.93599672 5.58410733 1.37616099 8 5 C7.01 4.67 6.02 4.34 5 4 C5.185625 4.9075 5.37125 5.815 5.5625 6.75 C5.96893864 9.76925848 5.93462472 11.19612583 5 14 C4.814375 14.7425 4.62875 15.485 4.4375 16.25 C4.293125 16.8275 4.14875 17.405 4 18 C3.34 18 2.68 18 2 18 C2.09765625 16.01432292 2.1953125 14.02864583 2.29296875 12.04296875 C2.14285448 9.54328284 2.14285448 9.54328284 -1 7 C-2.32 9.64 -3.64 12.28 -5 15 C-7 11 -7 11 -6.42578125 8.7109375 C-6.05839844 7.94007812 -5.69101562 7.16921875 -5.3125 6.375 C-4.95800781 5.59898438 -4.60351562 4.82296875 -4.23828125 4.0234375 C-3 2 -3 2 0 0 Z " fill="#9D8F13" transform="translate(26,12)"/>
<path d="M0 0 C0.33 0 0.66 0 1 0 C1.12375 0.76183594 1.2475 1.52367187 1.375 2.30859375 C2.98623434 10.37483565 5.70881027 15.61445179 12 21 C14.13828116 22.22454688 14.13828116 22.22454688 16 23 C15.67 23.66 15.34 24.32 15 25 C2.48231966 20.41018388 2.48231966 20.41018388 -0.31640625 14.5078125 C-1.62743827 9.6981979 -0.74541252 4.86138599 0 0 Z " fill="#A29125" transform="translate(19,40)"/>
<path d="M0 0 C0.66 0 1.32 0 2 0 C1.60157441 1.60879422 1.18046843 3.21198173 0.75 4.8125 C0.51796875 5.70582031 0.2859375 6.59914063 0.046875 7.51953125 C-1.20315205 10.48134909 -2.19478251 11.46181396 -5 13 C-7.55078125 13.51171875 -7.55078125 13.51171875 -10.3125 13.6875 C-11.281875 13.75839844 -12.25125 13.82929687 -13.25 13.90234375 C-16 14 -16 14 -19.8125 13.75 C-24.2932985 14.10143518 -25.82787806 15.90524689 -29 19 C-29.33 18.34 -29.66 17.68 -30 17 C-24.27833843 11.27833843 -22.08162199 10.77772657 -14.16601562 10.48242188 C-9.78491587 10.26801902 -6.13659383 9.60903729 -2 8 C-2.04125 7.236875 -2.0825 6.47375 -2.125 5.6875 C-2 3 -2 3 0 0 Z " fill="#C7B857" transform="translate(61,66)"/>
<path d="M0 0 C0.66 0.33 1.32 0.66 2 1 C1.34 3.97 0.68 6.94 0 10 C0.99 10 1.98 10 3 10 C3.33 10.99 3.66 11.98 4 13 C4.66 13.33 5.32 13.66 6 14 C6.71727778 15.64551962 7.38325228 17.31422289 8 19 C8.33 19.66 8.66 20.32 9 21 C7.68799596 22.35432675 6.35368596 23.68733482 5 25 C4.67 25 4.34 25 4 25 C3.93941406 24.37351562 3.87882812 23.74703125 3.81640625 23.1015625 C3.73261719 22.28429687 3.64882812 21.46703125 3.5625 20.625 C3.48128906 19.81289063 3.40007812 19.00078125 3.31640625 18.1640625 C3.10909886 15.95727195 3.10909886 15.95727195 2 14 C1.01 13.67 0.02 13.34 -1 13 C-1.41694996 11.40119187 -1.80790856 9.79558739 -2.1875 8.1875 C-2.40792969 7.29417969 -2.62835938 6.40085937 -2.85546875 5.48046875 C-3 3 -3 3 -1.55078125 1.17578125 C-1.03902344 0.78777344 -0.52726562 0.39976563 0 0 Z " fill="#C4B842" transform="translate(64,33)"/>
<path d="M0 0 C2.97 1.98 2.97 1.98 6 4 C6.99 3.01 7.98 2.02 9 1 C9.33 4.96 9.66 8.92 10 13 C3.53783133 11.78072289 3.53783133 11.78072289 1.0625 8.1875 C0.0651943 5.19558289 -0.27493554 3.11593617 0 0 Z " fill="#F0E25E" transform="translate(50,24)"/>
<path d="M0 0 C0.66 0.66 1.32 1.32 2 2 C2.66 1.67 3.32 1.34 4 1 C3.566875 2.155 3.13375 3.31 2.6875 4.5 C0.33494367 11.47925044 -0.74753316 18.76056402 -2 26 C-2.33 26 -2.66 26 -3 26 C-3 22.04 -3 18.08 -3 14 C-3.99 14.495 -3.99 14.495 -5 15 C-3.97137215 9.55432314 -2.75385216 4.88182883 0 0 Z " fill="#BDAD4D" transform="translate(5,24)"/>
<path d="M0 0 C0.78375 0.185625 1.5675 0.37125 2.375 0.5625 C4.97089775 1.25962266 4.97089775 1.25962266 7 0 C8.99960012 -0.039992 11.00047242 -0.04346799 13 0 C12.2575 0.886875 11.515 1.77375 10.75 2.6875 C8.46359384 5.4298846 6.22048625 8.20383213 4 11 C1.17438373 7.20307814 -0.56638908 4.81430721 0 0 Z " fill="#514408" transform="translate(24,77)"/>
<path d="M0 0 C3.71599191 -0.20086443 4.77208445 -0.1519437 8 2 C8.6875 4.625 8.6875 4.625 9 7 C5.62902617 8.49821059 3.79557881 9 0 9 C0 6.03 0 3.06 0 0 Z " fill="#A0911B" transform="translate(20,28)"/>
<path d="M0 0 C2 1 2 1 2.6328125 2.890625 C3.48563453 6.97875601 4.27121668 10.79614144 4 15 C3.01 15.33 2.02 15.66 1 16 C1 14.68 1 13.36 1 12 C0.01 11.67 -0.98 11.34 -2 11 C-2.33 8.69 -2.66 6.38 -3 4 C-2.34 4 -1.68 4 -1 4 C-0.67 2.68 -0.34 1.36 0 0 Z " fill="#F4EB8D" transform="translate(69,35)"/>
<path d="M0 0 C6.09834533 0.84152794 10.38420425 4.08017345 15 8 C17.1875 11.3125 17.1875 11.3125 18 14 C17.67 14.66 17.34 15.32 17 16 C16.4225 15.175 15.845 14.35 15.25 13.5 C11.75827328 9.22441626 7.08829023 6.62190321 2.44921875 3.734375 C1.64097656 3.16203125 0.83273438 2.5896875 0 2 C0 1.34 0 0.68 0 0 Z " fill="#D2C562" transform="translate(68,5)"/>
<path d="M0 0 C3.3 0.99 6.6 1.98 10 3 C10.33 4.65 10.66 6.3 11 8 C9.68 8 8.36 8 7 8 C7 6.68 7 5.36 7 4 C5.824375 5.2375 5.824375 5.2375 4.625 6.5 C2 9 2 9 0 9 C-0.33 9.66 -0.66 10.32 -1 11 C-0.67 7.37 -0.34 3.74 0 0 Z " fill="#2F2800" transform="translate(24,61)"/>
<path d="M0 0 C1.6875 1.5 1.6875 1.5 3 3 C3.33 2.34 3.66 1.68 4 1 C6.0625 3.25 6.0625 3.25 8 6 C7.69728039 7.34061543 7.36162029 8.67405895 7 10 C7.495 10.99 7.99 11.98 8.5 13 C10.13297061 16.26594121 10.0672912 16.74195318 9 20 C8.52949219 19.00097656 8.05898437 18.00195312 7.57421875 16.97265625 C6.94584455 15.66901425 6.31690905 14.36564269 5.6875 13.0625 C5.2244043 12.0734668 5.2244043 12.0734668 4.75195312 11.06445312 C3.91049022 9.33723979 2.96052335 7.6639473 2 6 C1.01 5.67 0.02 5.34 -1 5 C-1 4.34 -1 3.68 -1 3 C-2.98 3 -4.96 3 -7 3 C-3.375 0 -3.375 0 0 0 Z " fill="#C4B34A" transform="translate(82,16)"/>
<path d="M0 0 C0.66 0.33 1.32 0.66 2 1 C1.01 1.33 0.02 1.66 -1 2 C-1.33 2.66 -1.66 3.32 -2 4 C-5.87117257 5.10705664 -9.67987217 5.16465149 -13.6875 5.1875 C-15.39486328 5.20876953 -15.39486328 5.20876953 -17.13671875 5.23046875 C-20 5 -20 5 -22 3 C-15.27549991 1.86745262 -8.82142014 0.84841289 -2 1 C-1.34 0.67 -0.68 0.34 0 0 Z " fill="#7F6F0F" transform="translate(62,64)"/>
<path d="M0 0 C5.66104589 0.49658297 9.87674471 1.54510684 15 4 C14.01 4.495 14.01 4.495 13 5 C13.33 5.99 13.66 6.98 14 8 C11.69 7.34 9.38 6.68 7 6 C7 5.34 7 4.68 7 4 C4.69 3.67 2.38 3.34 0 3 C0 2.01 0 1.02 0 0 Z " fill="#BEAF54" transform="translate(55,0)"/>
<path d="M0 0 C0.33 1.32 0.66 2.64 1 4 C2.65 4.33 4.3 4.66 6 5 C4 8 4 8 1.0625 8.875 C-2 9 -2 9 -3.875 7.5625 C-4.431875 6.7890625 -4.431875 6.7890625 -5 6 C-3.35 4.02 -1.7 2.04 0 0 Z " fill="#867A13" transform="translate(29,68)"/>
<path d="M0 0 C2.93774463 -0.05390357 5.87450232 -0.0936255 8.8125 -0.125 C10.06256836 -0.15013672 10.06256836 -0.15013672 11.33789062 -0.17578125 C12.14033203 -0.18222656 12.94277344 -0.18867187 13.76953125 -0.1953125 C14.50792236 -0.20578613 15.24631348 -0.21625977 16.00708008 -0.22705078 C18 -0 18 -0 21 2 C13.08 2.33 5.16 2.66 -3 3 C-2.01 2.67 -1.02 2.34 0 2 C0 1.34 0 0.68 0 0 Z " fill="#DDCE68" transform="translate(37,0)"/>
<path d="M0 0 C0.33 0 0.66 0 1 0 C1.1875 2.875 1.1875 2.875 1 6 C-2.99293937 8.66195958 -6.30263837 8.72919332 -11 8 C-13.5625 6 -13.5625 6 -15 4 C-14.01 4 -13.02 4 -12 4 C-11.67 4.33 -11.34 4.66 -11 5 C-6.95625585 5.40981537 -6.95625585 5.40981537 -3 5 C-0.99135641 2.6273026 -0.99135641 2.6273026 0 0 Z " fill="#766408" transform="translate(66,53)"/>
<path d="M0 0 C0.33 0.99 0.66 1.98 1 3 C-0.55161956 6.10323912 -2.26219648 8.83257222 -5 11 C-5.99 11 -6.98 11 -8 11 C-7.8125 8.125 -7.8125 8.125 -7 5 C-4.5625 3.8125 -4.5625 3.8125 -2 3 C-1.34 2.01 -0.68 1.02 0 0 Z " fill="#E3D364" transform="translate(14,16)"/>
<path d="M0 0 C2 3 2 3 2 6 C-4.52307692 6.36923077 -4.52307692 6.36923077 -6.9375 4.5 C-7.4634375 3.7575 -7.4634375 3.7575 -8 3 C-3.375 0 -3.375 0 0 0 Z " fill="#E4D46D" transform="translate(59,52)"/>
<path d="M0 0 C1.5625 1 1.5625 1 3 3 C2.96726452 5.76614782 2.49404328 8.26030547 2 11 C0.68 10.34 -0.64 9.68 -2 9 C-2.20140476 5.37471432 -1.85776765 3.13498292 0 0 Z " fill="#3B3200" transform="translate(26,19)"/>
<path d="M0 0 C-4.07523049 3.42319361 -8.57062751 5.84493367 -13.9375 6.1875 C-14.9584375 6.0946875 -14.9584375 6.0946875 -16 6 C-13.75539393 3.50439964 -11.61479403 2.1294516 -8.5625 0.75 C-7.80066406 0.39421875 -7.03882813 0.0384375 -6.25390625 -0.328125 C-3.72027666 -1.08338373 -2.45814874 -0.87351072 0 0 Z " fill="#C5B760" transform="translate(37,2)"/>
<path d="M0 0 C1.2065625 0.0309375 1.2065625 0.0309375 2.4375 0.0625 C2.4375 2.0425 2.4375 4.0225 2.4375 6.0625 C0.7875 6.0625 -0.8625 6.0625 -2.5625 6.0625 C-2.94468767 4.40635343 -3.27645102 2.73792976 -3.5625 1.0625 C-2.5625 0.0625 -2.5625 0.0625 0 0 Z " fill="#FEF6BB" transform="translate(42.5625,54.9375)"/>
<path d="M0 0 C1.32 0 2.64 0 4 0 C3.64950425 3.24208567 3.43778819 4.61527704 0.9375 6.8125 C0.298125 7.204375 -0.34125 7.59625 -1 8 C-1.66 7.67 -2.32 7.34 -3 7 C-1.125 1.125 -1.125 1.125 0 0 Z " fill="#584B03" transform="translate(72,23)"/>
<path d="M0 0 C-3.32307692 5.78461538 -3.32307692 5.78461538 -6.75 6.875 C-7.4925 6.91625 -8.235 6.9575 -9 7 C-9.33 6.01 -9.66 5.02 -10 4 C-6.58908673 0.88145073 -4.68377325 -0.53528837 0 0 Z " fill="#D6CB60" transform="translate(24,8)"/>
<path d="M0 0 C0.33 0 0.66 0 1 0 C1.59732819 2.76264289 2 5.16032769 2 8 C0.125 10.1875 0.125 10.1875 -2 12 C-2.66 12 -3.32 12 -4 12 C-4 11.34 -4 10.68 -4 10 C-6.31 10 -8.62 10 -11 10 C-11 9.67 -11 9.34 -11 9 C-7.7 8.34 -4.4 7.68 -1 7 C-0.67 4.69 -0.34 2.38 0 0 Z " fill="#A09125" transform="translate(67,52)"/>
<path d="M0 0 C0.99 0 1.98 0 3 0 C3.33 1.98 3.66 3.96 4 6 C-0.75 8.875 -0.75 8.875 -3 10 C-2.505 8.6078125 -2.505 8.6078125 -2 7.1875 C-0.85032996 4.07970709 -0.85032996 4.07970709 -1 1 C-0.67 0.67 -0.34 0.34 0 0 Z " fill="#DBCD56" transform="translate(73,49)"/>
<path d="M0 0 C0.78375 0.04125 1.5675 0.0825 2.375 0.125 C2.045 1.775 1.715 3.425 1.375 5.125 C2.365 5.455 3.355 5.785 4.375 6.125 C2.065 6.125 -0.245 6.125 -2.625 6.125 C-3.285 4.805 -3.945 3.485 -4.625 2.125 C-2.625 0.125 -2.625 0.125 0 0 Z " fill="#2B2603" transform="translate(44.625,32.875)"/>
<path d="M0 0 C1.98 0.66 3.96 1.32 6 2 C6 3.98 6 5.96 6 8 C5.01 8 4.02 8 3 8 C0 2.25 0 2.25 0 0 Z " fill="#C0AE35" transform="translate(51,20)"/>
<path d="M0 0 C1.32 0.33 2.64 0.66 4 1 C4.33 2.65 4.66 4.3 5 6 C2.75 6.6875 2.75 6.6875 0 7 C-2.3125 5.5625 -2.3125 5.5625 -4 4 C-2.35 4 -0.7 4 1 4 C0.67 2.68 0.34 1.36 0 0 Z " fill="#A08F20" transform="translate(48,35)"/>
<path d="M0 0 C3.3 0 6.6 0 10 0 C10 1.32 10 2.64 10 4 C9.01 4 8.02 4 7 4 C7 3.34 7 2.68 7 2 C4.03 2.66 1.06 3.32 -2 4 C-1.34 2.68 -0.68 1.36 0 0 Z " fill="#716712" transform="translate(38,72)"/>
<path d="M0 0 C2.16874252 0.50603992 3.99967627 0.99983813 6 2 C5.67 4.97 5.34 7.94 5 11 C4.01 11.33 3.02 11.66 2 12 C2.04125 10.7625 2.0825 9.525 2.125 8.25 C2.13658291 4.98362038 1.8568702 2.7853053 0 0 Z " fill="#756B04" transform="translate(26,18)"/>
<path d="M0 0 C0.763125 0.0825 1.52625 0.165 2.3125 0.25 C2.3125 1.91666667 2.3125 3.58333333 2.3125 5.25 C1.6525 5.25 0.9925 5.25 0.3125 5.25 C-0.0175 5.91 -0.3475 6.57 -0.6875 7.25 C-0.6875 6.26 -0.6875 5.27 -0.6875 4.25 C-2.3375 4.25 -3.9875 4.25 -5.6875 4.25 C-3.34903846 0.31153846 -3.34903846 0.31153846 0 0 Z " fill="#5B4D08" transform="translate(63.6875,45.75)"/>
<path d="M0 0 C1.5 1.125 1.5 1.125 3 3 C3.1875 6.1875 3.1875 6.1875 3 9 C2.01 9 1.02 9 0 9 C-0.87890625 2.84765625 -0.87890625 2.84765625 -1 1 C-0.67 0.67 -0.34 0.34 0 0 Z " fill="#F8ED68" transform="translate(74,39)"/>
<path d="M0 0 C0 1.32 0 2.64 0 4 C-1.98 4.99 -3.96 5.98 -6 7 C-6.33 5.68 -6.66 4.36 -7 3 C-2.25 0 -2.25 0 0 0 Z " fill="#DCC966" transform="translate(77,84)"/>
<path d="M0 0 C0.66 0.33 1.32 0.66 2 1 C1.67 2.98 1.34 4.96 1 7 C0.01 7.33 -0.98 7.66 -2 8 C-2.6875 5.6875 -2.6875 5.6875 -3 3 C-1.5625 1.1875 -1.5625 1.1875 0 0 Z " fill="#766513" transform="translate(64,33)"/>
<path d="M0 0 C1.98 0.66 3.96 1.32 6 2 C5.01 2.495 5.01 2.495 4 3 C4 3.99 4 4.98 4 6 C3.34 6 2.68 6 2 6 C1.67 6.99 1.34 7.98 1 9 C0.34 8.01 -0.32 7.02 -1 6 C-0.34 6 0.32 6 1 6 C0.67 4.02 0.34 2.04 0 0 Z " fill="#62570C" transform="translate(34,65)"/>
<path d="M0 0 C2.3125 0.125 2.3125 0.125 5 1 C6.875 3.9375 6.875 3.9375 8 7 C7.67 7.66 7.34 8.32 7 9 C5.14453125 6.70507812 5.14453125 6.70507812 3.2890625 4.41015625 C2.0333609 2.86733563 2.0333609 2.86733563 0 2 C0 1.34 0 0.68 0 0 Z " fill="#D8CB6E" transform="translate(78,12)"/>
<path d="M0 0 C3 1 3 1 3.94921875 2.84765625 C4.19285156 3.57855469 4.43648438 4.30945313 4.6875 5.0625 C4.93886719 5.79597656 5.19023438 6.52945312 5.44921875 7.28515625 C5.63097656 7.85105469 5.81273438 8.41695312 6 9 C5.01 9 4.02 9 3 9 C0 3.375 0 3.375 0 0 Z " fill="#D5C468" transform="translate(88,23)"/>
<path d="M0 0 C0.33 0 0.66 0 1 0 C1 3.3 1 6.6 1 10 C0.01 10 -0.98 10 -2 10 C-1.85950482 8.52031676 -1.71245174 7.04125484 -1.5625 5.5625 C-1.48128906 4.73878906 -1.40007812 3.91507813 -1.31640625 3.06640625 C-1 1 -1 1 0 0 Z " fill="#F7E971" transform="translate(94,52)"/>
<path d="M0 0 C0.90105469 0.00902344 1.80210938 0.01804687 2.73046875 0.02734375 C3.41753906 0.03894531 4.10460937 0.05054687 4.8125 0.0625 C3.42054085 2.8464183 1.65674221 3.04148997 -1.1875 4.0625 C-1.1875 3.0725 -1.1875 2.0825 -1.1875 1.0625 C-3.4975 1.7225 -5.8075 2.3825 -8.1875 3.0625 C-8.1875 2.4025 -8.1875 1.7425 -8.1875 1.0625 C-5.17259443 0.05753148 -3.14568308 -0.04085303 0 0 Z " fill="#C5B43F" transform="translate(72.1875,19.9375)"/>
<path d="M0 0 C0.33 1.32 0.66 2.64 1 4 C-0.98 4.99 -0.98 4.99 -3 6 C-3 4.68 -3 3.36 -3 2 C-2.01 1.34 -1.02 0.68 0 0 Z " fill="#DFD06A" transform="translate(87,73)"/>
<path d="M0 0 C0.66 0 1.32 0 2 0 C3.38226016 2.76452033 3.09525387 5.0461363 3.0625 8.125 C3.05347656 9.22070312 3.04445313 10.31640625 3.03515625 11.4453125 C3.02355469 12.28835937 3.01195313 13.13140625 3 14 C2.67 14 2.34 14 2 14 C1.34 9.38 0.68 4.76 0 0 Z " fill="#E5D672" transform="translate(92,32)"/>
<path d="M0 0 C2.475 0.495 2.475 0.495 5 1 C5.33 2.65 5.66 4.3 6 6 C4.68 6 3.36 6 2 6 C2 4.68 2 3.36 2 2 C1.34 2 0.68 2 0 2 C0 1.34 0 0.68 0 0 Z " fill="#3D2E01" transform="translate(29,63)"/>
<path d="M0 0 C-0.33 0.99 -0.66 1.98 -1 3 C-2.65 3 -4.3 3 -6 3 C-6 3.99 -6 4.98 -6 6 C-6.66 6 -7.32 6 -8 6 C-7.6875 4.125 -7.6875 4.125 -7 2 C-4 0 -4 0 0 0 Z " fill="#372A00" transform="translate(60,67)"/>
<path d="M0 0 C2.04119788 1.61594832 4.04072937 3.2856382 6 5 C6 5.66 6 6.32 6 7 C4.35 7 2.7 7 1 7 C0.67 4.69 0.34 2.38 0 0 Z " fill="#F7E684" transform="translate(31,47)"/>
<path d="M0 0 C0.66 0.99 1.32 1.98 2 3 C2.66 3.66 3.32 4.32 4 5 C1 7 1 7 -2 7 C-1.125 1.125 -1.125 1.125 0 0 Z " fill="#D9C862" transform="translate(8,20)"/>
<path d="M0 0 C0.66 0.33 1.32 0.66 2 1 C1 5 1 5 0 9 C-0.66 9 -1.32 9 -2 9 C-1.125 2.25 -1.125 2.25 0 0 Z " fill="#766801" transform="translate(24,18)"/>
<path d="M0 0 C4.43458973 1.3937282 6.87378374 3.60582235 10 7 C5.04303419 5.76075855 2.88341534 4.21422242 0 0 Z " fill="#C7B348" transform="translate(69,8)"/>
<path d="M0 0 C1.32 0.66 2.64 1.32 4 2 C3.67 3.32 3.34 4.64 3 6 C1.02 4.68 -0.96 3.36 -3 2 C-2.01 1.34 -1.02 0.68 0 0 Z " fill="#DCCC6B" transform="translate(20,84)"/>
<path d="M0 0 C1.9451 2.91765 2.45276317 4.62537285 3 8 C1.0625 7.6875 1.0625 7.6875 -1 7 C-2 4 -2 4 -1.0625 1.8125 C-0.5365625 0.9153125 -0.5365625 0.9153125 0 0 Z " fill="#EBD869" transform="translate(36,58)"/>
<path d="M0 0 C0.66 0 1.32 0 2 0 C2 2.64 2 5.28 2 8 C-0.97 7.505 -0.97 7.505 -4 7 C-2.68 6.67 -1.36 6.34 0 6 C0 4.02 0 2.04 0 0 Z " fill="#F0E592" transform="translate(45,55)"/>
<path d="M0 0 C2.475 0.99 2.475 0.99 5 2 C4.67 2.66 4.34 3.32 4 4 C3.01 3.34 2.02 2.68 1 2 C0.67 3.32 0.34 4.64 0 6 C-0.66 5.67 -1.32 5.34 -2 5 C-1.34 3.35 -0.68 1.7 0 0 Z " fill="#F6E782" transform="translate(30,41)"/>
<path d="M0 0 C0.99 0.33 1.98 0.66 3 1 C1.35 2.65 -0.3 4.3 -2 6 C-2.33 5.34 -2.66 4.68 -3 4 C-2.01 2.68 -1.02 1.36 0 0 Z " fill="#C6B44F" transform="translate(34,79)"/>
<path d="M0 0 C2.97 0.495 2.97 0.495 6 1 C5.67 1.99 5.34 2.98 5 4 C3.35 3.67 1.7 3.34 0 3 C0 2.01 0 1.02 0 0 Z " fill="#332800" transform="translate(38,68)"/>
<path d="M0 0 C0.33 0 0.66 0 1 0 C1 1.98 1 3.96 1 6 C-0.32 6.33 -1.64 6.66 -3 7 C-2.38722388 4.03824877 -1.74627478 2.61941217 0 0 Z " fill="#695804" transform="translate(66,53)"/>
<path d="M0 0 C2 3.875 2 3.875 2 5 C-0.97 5 -3.94 5 -7 5 C-7 4.67 -7 4.34 -7 4 C-5.02 4 -3.04 4 -1 4 C-0.67 2.68 -0.34 1.36 0 0 Z " fill="#4E3C03" transform="translate(62,54)"/>
<path d="M0 0 C1.875 0.1875 1.875 0.1875 4 1 C5.25 3.5625 5.25 3.5625 6 6 C3.37812506 4.95125002 2.20628639 4.35068687 0.75 1.875 C0.5025 1.25625 0.255 0.6375 0 0 Z " fill="#E9DB5C" transform="translate(54,41)"/>
</svg>
