<?xml version="1.0" encoding="UTF-8"?>
<svg version="1.1" xmlns="http://www.w3.org/2000/svg" width="200" height="200">
<path d="M0 0 C2.82045877 2.30263418 5.56336058 4.67903285 8.27832031 7.10449219 C11.1535235 9.666713 11.1535235 9.666713 14.50878906 11.77246094 C17.18066406 13.58496094 17.18066406 13.58496094 17.86816406 15.77246094 C18.02285156 16.66964844 18.02285156 16.66964844 18.18066406 17.58496094 C19.17066406 17.91496094 20.16066406 18.24496094 21.18066406 18.58496094 C21.51066406 19.57496094 21.84066406 20.56496094 22.18066406 21.58496094 C22.78394531 22.1740625 23.38722656 22.76316406 24.00878906 23.37011719 C26.61161449 26.02443736 28.16331475 28.75588582 29.93066406 32.02246094 C30.85105469 33.69115234 30.85105469 33.69115234 31.79003906 35.39355469 C33.13514811 38.48050439 33.50200878 40.27881822 33.18066406 43.58496094 C33.84066406 43.58496094 34.50066406 43.58496094 35.18066406 43.58496094 C39.64424539 56.0781479 40.85665551 67.12735329 40.55566406 80.33496094 C40.53909422 82.04587815 40.52476266 83.75681854 40.51269531 85.46777344 C40.3702832 98.68935945 40.3702832 98.68935945 39.18066406 103.58496094 C38.52066406 103.58496094 37.86066406 103.58496094 37.18066406 103.58496094 C37.18066406 105.89496094 37.18066406 108.20496094 37.18066406 110.58496094 C36.52066406 110.58496094 35.86066406 110.58496094 35.18066406 110.58496094 C34.52066406 113.88496094 33.86066406 117.18496094 33.18066406 120.58496094 C32.52066406 120.58496094 31.86066406 120.58496094 31.18066406 120.58496094 C31.10589844 121.42542969 31.03113281 122.26589844 30.95410156 123.13183594 C30.00301116 127.37811833 28.20111083 130.25695184 25.80566406 133.83496094 C25.40605469 134.45886719 25.00644531 135.08277344 24.59472656 135.72558594 C22.64505024 138.70140769 21.175244 140.58857431 18.18066406 142.58496094 C17.87128906 143.24496094 17.56191406 143.90496094 17.24316406 144.58496094 C16.18066406 146.58496094 16.18066406 146.58496094 14.29394531 147.52246094 C12.05773456 148.64676653 10.95666201 149.72870379 9.30566406 151.58496094 C-7.5531495 168.76523493 -31.7922615 178.47350042 -55.67724609 178.87768555 C-83.14890277 179.03784131 -105.50892955 171.73865683 -126.31811523 153.40429688 C-129.3378039 150.75277047 -132.36813316 148.62599484 -135.81933594 146.58496094 C-136.52084746 145.26962683 -137.18459519 143.93378502 -137.81933594 142.58496094 C-139.08777344 141.37839844 -139.08777344 141.37839844 -140.38183594 140.14746094 C-142.93144067 137.46710724 -143.50996572 136.19428011 -143.81933594 132.58496094 C-144.80933594 132.25496094 -145.79933594 131.92496094 -146.81933594 131.58496094 C-150.62798259 125.57828936 -153.21756631 119.65575401 -153.81933594 112.58496094 C-154.47933594 111.59496094 -155.13933594 110.60496094 -155.81933594 109.58496094 C-156.19144014 108.26192377 -156.52563767 106.92758159 -156.81933594 105.58496094 C-157.14933594 104.59496094 -157.47933594 103.60496094 -157.81933594 102.58496094 C-158.14933594 102.58496094 -158.47933594 102.58496094 -158.81933594 102.58496094 C-158.87027326 96.32278946 -158.90516878 90.06067193 -158.92919922 83.79833984 C-158.93922299 81.67038984 -158.95284555 79.5424535 -158.97021484 77.41455078 C-158.99462286 74.34631976 -159.00585555 71.27827173 -159.01464844 68.20996094 C-159.02497101 67.26693115 -159.03529358 66.32390137 -159.04592896 65.35229492 C-159.04686971 59.74541582 -158.41278806 54.96630789 -156.81933594 49.58496094 C-156.15933594 49.58496094 -155.49933594 49.58496094 -154.81933594 49.58496094 C-154.69816406 48.88628906 -154.57699219 48.18761719 -154.45214844 47.46777344 C-154.28457031 46.55769531 -154.11699219 45.64761719 -153.94433594 44.70996094 C-153.78191406 43.80503906 -153.61949219 42.90011719 -153.45214844 41.96777344 C-152.81933594 39.58496094 -152.81933594 39.58496094 -150.81933594 37.58496094 C-149.71378412 35.63398714 -148.89319267 33.94732054 -148.44433594 31.74511719 C-147.67559861 29.08816878 -146.42875814 27.18569548 -144.88183594 24.89746094 C-144.3571875 24.10984375 -143.83253906 23.32222656 -143.29199219 22.51074219 C-141.81933594 20.58496094 -141.81933594 20.58496094 -139.81933594 19.58496094 C-139.48933594 18.59496094 -139.15933594 17.60496094 -138.81933594 16.58496094 C-138.25988281 16.318125 -137.70042969 16.05128906 -137.12402344 15.77636719 C-133.75454168 14.03451645 -131.50732154 11.25605376 -128.94433594 8.52246094 C-95.59880991 -25.77011212 -37.69548479 -29.31871039 0 0 Z M34.18066406 46.58496094 C35.18066406 48.58496094 35.18066406 48.58496094 35.18066406 48.58496094 Z M35.18066406 49.58496094 C36.18066406 51.58496094 36.18066406 51.58496094 36.18066406 51.58496094 Z M36.18066406 52.58496094 C37.18066406 55.58496094 37.18066406 55.58496094 37.18066406 55.58496094 Z M-156.81933594 53.58496094 C-155.81933594 56.58496094 -155.81933594 56.58496094 -155.81933594 56.58496094 Z M37.18066406 56.58496094 C38.18066406 59.58496094 38.18066406 59.58496094 38.18066406 59.58496094 Z M-157.81933594 57.58496094 C-156.81933594 61.58496094 -156.81933594 61.58496094 -156.81933594 61.58496094 Z M38.18066406 60.58496094 C38.18066406 62.23496094 38.18066406 63.88496094 38.18066406 65.58496094 C38.51066406 65.58496094 38.84066406 65.58496094 39.18066406 65.58496094 C39.18066406 63.93496094 39.18066406 62.28496094 39.18066406 60.58496094 C38.85066406 60.58496094 38.52066406 60.58496094 38.18066406 60.58496094 Z M38.18066406 93.58496094 C38.18066406 95.23496094 38.18066406 96.88496094 38.18066406 98.58496094 C38.51066406 98.58496094 38.84066406 98.58496094 39.18066406 98.58496094 C39.18066406 96.93496094 39.18066406 95.28496094 39.18066406 93.58496094 C38.85066406 93.58496094 38.52066406 93.58496094 38.18066406 93.58496094 Z " fill="#FDFEFE" transform="translate(158.8193359375,19.4150390625)"/>
<path d="M0 0 C0.95140869 0.33773438 1.90281738 0.67546875 2.88305664 1.0234375 C5.67760267 2.01883274 8.46890474 3.022799 11.2588501 4.03100586 C13.45105603 4.82260031 15.64416107 5.61166939 17.83740234 6.40039062 C28.31372698 10.16855845 38.78397082 13.95333731 49.25 17.75 C47.75045536 20.74908927 45.61488722 20.94204042 42.51171875 22.10546875 C41.3088623 22.55954102 40.10600586 23.01361328 38.86669922 23.48144531 C37.55708039 23.96710506 36.24734472 24.45244982 34.9375 24.9375 C33.60419349 25.43681164 32.27102355 25.93648811 30.93798828 26.43652344 C20.42869427 30.36576459 9.85077515 34.07506461 -0.75 37.75 C-7.02 40.06 -13.29 42.37 -19.75 44.75 C-20.08 78.08 -20.41 111.41 -20.75 145.75 C-28.62550952 144.62492721 -28.62550952 144.62492721 -31.79150391 143.47827148 C-32.86025253 143.09668129 -32.86025253 143.09668129 -33.95059204 142.7073822 C-34.70166229 142.43140701 -35.45273254 142.15543182 -36.2265625 141.87109375 C-37.03249847 141.58073746 -37.83843445 141.29038116 -38.66879272 140.9912262 C-41.23984547 140.06291346 -43.80734981 139.12517678 -46.375 138.1875 C-48.04406302 137.58471072 -49.71333253 136.98249291 -51.3828125 136.38085938 C-63.56032179 131.97029409 -75.6439691 127.3618213 -87.75 122.75 C-87.75 89.42 -87.75 56.09 -87.75 21.75 C-41.54111194 4.08189574 -41.54111194 4.08189574 -23.75 -2.25 C-22.71488281 -2.62777588 -21.67976563 -3.00555176 -20.61328125 -3.39477539 C-13.60443796 -5.48822509 -6.58602364 -2.38775442 0 0 Z " fill="#02E59A" transform="translate(117.75,29.25)"/>
<path d="M0 0 C0 33.99 0 67.98 0 103 C-5.48138704 101.78191399 -10.15374471 100.73897016 -15.30078125 98.86328125 C-16.43346436 98.45416504 -17.56614746 98.04504883 -18.7331543 97.62353516 C-19.91433838 97.19089355 -21.09552246 96.75825195 -22.3125 96.3125 C-24.80445401 95.40951162 -27.29664318 94.50717197 -29.7890625 93.60546875 C-31.01012695 93.16251465 -32.23119141 92.71956055 -33.48925781 92.26318359 C-39.1453593 90.22808838 -44.82703844 88.26626891 -50.51879883 86.33325195 C-55.86904364 84.48762716 -60.77828974 82.32076012 -66 80 C-66 61.52 -66 43.04 -66 24 C-34.38832888 11.66035645 -34.38832888 11.66035645 -21.49365234 7.24755859 C-15.70823051 5.26693017 -10.01516283 3.11788643 -4.3359375 0.84765625 C-2 0 -2 0 0 0 Z " fill="#00AF92" transform="translate(167,52)"/>
<path d="M0 0 C0 0.66 0 1.32 0 2 C-11.90050073 6.72359793 -23.79483434 11.42265864 -35.91015625 15.5703125 C-38.86191051 16.58419155 -41.77442203 17.67450568 -44.68359375 18.8046875 C-45.45783691 19.09835205 -46.23208008 19.3920166 -47.02978516 19.69458008 C-48.51592119 20.25962966 -49.99653259 20.83950301 -51.47021484 21.4362793 C-53.48828125 22.19140625 -53.48828125 22.19140625 -57 23 C-59.21948242 21.55053711 -59.21948242 21.55053711 -61 20 C-25.09863129 6.58087964 -25.09863129 6.58087964 -11.51269531 1.91772461 C-3.16218955 -0.94865686 -3.16218955 -0.94865686 0 0 Z " fill="#F1FCF9" transform="translate(159,53)"/>
<path d="M0 0 C0 33.99 0 67.98 0 103 C-1.98 102.67 -3.96 102.34 -6 102 C-4.02 101.505 -4.02 101.505 -2 101 C-2 68.99 -2 36.98 -2 4 C-4.97 3.505 -4.97 3.505 -8 3 C-5.22569089 1.15046059 -3.35957737 0 0 0 Z " fill="#17B59B" transform="translate(167,52)"/>
<path d="M0 0 C0.66 0 1.32 0 2 0 C2 17.82 2 35.64 2 54 C2.66 54.33 3.32 54.66 4 55 C4 55.66 4 56.32 4 57 C6.64 57.33 9.28 57.66 12 58 C12 58.66 12 59.32 12 60 C10.5608866 59.71640113 9.12374482 59.42278601 7.6875 59.125 C6.88699219 58.96257812 6.08648437 58.80015625 5.26171875 58.6328125 C3 58 3 58 0 56 C-0.36076355 53.6335144 -0.36076355 53.6335144 -0.34057617 50.63232422 C-0.34034958 49.51131317 -0.34012299 48.39030212 -0.33988953 47.23532104 C-0.32440567 46.02071198 -0.30892181 44.80610291 -0.29296875 43.5546875 C-0.28872391 42.31453888 -0.28447906 41.07439026 -0.28010559 39.79666138 C-0.26613216 36.49864537 -0.23917361 33.2010665 -0.20599365 29.90319824 C-0.17531238 26.53838458 -0.16160446 23.17350696 -0.14648438 19.80859375 C-0.1133473 13.20555729 -0.06309697 6.60281442 0 0 Z " fill="#1BB89D" transform="translate(101,76)"/>
<path d="M0 0 C0 0.66 0 1.32 0 2 C-2.09721231 2.89153961 -4.20306339 3.76278219 -6.3125 4.625 C-8.07013672 5.35589844 -8.07013672 5.35589844 -9.86328125 6.1015625 C-10.89839844 6.39804687 -11.93351563 6.69453125 -13 7 C-13.99 6.34 -14.98 5.68 -16 5 C-15.34 5 -14.68 5 -14 5 C-14 4.34 -14 3.68 -14 3 C-12.42274653 2.29866401 -10.83788667 1.614417 -9.25 0.9375 C-7.92742187 0.36322266 -7.92742187 0.36322266 -6.578125 -0.22265625 C-3.84743691 -1.04600008 -2.63098653 -0.9773992 0 0 Z " fill="#EEFCF8" transform="translate(159,53)"/>
<path d="M0 0 C6.46712188 1.16194152 12.09622349 3.1248748 18 6 C18 6.33 18 6.66 18 7 C11.58008874 6.42934122 5.98410537 4.32655091 0 2 C0 1.34 0 0.68 0 0 Z " fill="#ECFDF7" transform="translate(148,39)"/>
<path d="M0 0 C0 0.66 0 1.32 0 2 C-4.29 3.65 -8.58 5.3 -13 7 C-13 6.01 -13 5.02 -13 4 C-11.2097939 3.32942113 -9.41778511 2.6636531 -7.625 2 C-6.62726563 1.62875 -5.62953125 1.2575 -4.6015625 0.875 C-2 0 -2 0 0 0 Z " fill="#F1FDF9" transform="translate(93,26)"/>
<path d="M0 0 C8.58 0 17.16 0 26 0 C26 0.33 26 0.66 26 1 C17.42 1 8.84 1 0 1 C0 0.67 0 0.34 0 0 Z " fill="#FFFFFF" transform="translate(86,199)"/>
<path d="M0 0 C0.33 0 0.66 0 1 0 C1 8.58 1 17.16 1 26 C0.67 26 0.34 26 0 26 C0 17.42 0 8.84 0 0 Z " fill="#FFFFFF" transform="translate(199,86)"/>
<path d="M0 0 C4.86896303 0.59619955 9.32790951 1.56976822 14 3 C13.01 3.66 12.02 4.32 11 5 C8.30078125 4.3203125 8.30078125 4.3203125 5.3125 3.125 C4.31863281 2.73570312 3.32476562 2.34640625 2.30078125 1.9453125 C1.54152344 1.63335937 0.78226563 1.32140625 0 1 C0 0.67 0 0.34 0 0 Z " fill="#E7F7F5" transform="translate(131,144)"/>
<path d="M0 0 C-1.98 0.99 -1.98 0.99 -4 2 C-4 2.66 -4 3.32 -4 4 C-5.98 4 -7.96 4 -10 4 C-9.67 3.01 -9.34 2.02 -9 1 C-5.8035914 -0.06546953 -3.34252724 -0.07427838 0 0 Z " fill="#DFF9F1" transform="translate(118,68)"/>
<path d="M0 0 C3.3 0.99 6.6 1.98 10 3 C9.01 3.66 8.02 4.32 7 5 C4.73828125 4.5390625 4.73828125 4.5390625 2.3125 3.625 C1.50425781 3.32851563 0.69601563 3.03203125 -0.13671875 2.7265625 C-0.75160156 2.48679687 -1.36648437 2.24703125 -2 2 C-1.34 1.34 -0.68 0.68 0 0 Z " fill="#F1FDF8" transform="translate(110,25)"/>
<path d="M0 0 C2.97 0.99 5.94 1.98 9 3 C8.67 3.66 8.34 4.32 8 5 C4.44219804 4.39009109 1.3171411 3.4216319 -2 2 C-1.34 1.34 -0.68 0.68 0 0 Z " fill="#F1FDF8" transform="translate(42,156)"/>
<path d="M0 0 C2.125 0.9375 2.125 0.9375 4 2 C3.34 2 2.68 2 2 2 C2 2.66 2 3.32 2 4 C1.01 4.33 0.02 4.66 -1 5 C-1.99 4.34 -2.98 3.68 -4 3 C-3.34 3 -2.68 3 -2 3 C-2 2.34 -2 1.68 -2 1 C-1.34 0.67 -0.68 0.34 0 0 Z " fill="#DCF8F0" transform="translate(147,55)"/>
<path d="M0 0 C0.66 0.33 1.32 0.66 2 1 C-0.31 3.31 -2.62 5.62 -5 8 C-5 5 -5 5 -2.5 2.3125 C-1.675 1.549375 -0.85 0.78625 0 0 Z " fill="#FFFFFF" transform="translate(30,25)"/>
<path d="M0 0 C1.98 0 3.96 0 6 0 C6 0.33 6 0.66 6 1 C4.02 1 2.04 1 0 1 C0 0.67 0 0.34 0 0 Z " fill="#FFFFFF" transform="translate(112,198)"/>
<path d="M0 0 C1.98 0 3.96 0 6 0 C6 0.33 6 0.66 6 1 C4.02 1 2.04 1 0 1 C0 0.67 0 0.34 0 0 Z " fill="#FFFFFF" transform="translate(80,198)"/>
<path d="M0 0 C1.65 0 3.3 0 5 0 C5 0.33 5 0.66 5 1 C3.35 1 1.7 1 0 1 C0 0.67 0 0.34 0 0 Z " fill="#FFFFFF" transform="translate(118,197)"/>
<path d="M0 0 C1.65 0 3.3 0 5 0 C5 0.33 5 0.66 5 1 C3.35 1 1.7 1 0 1 C0 0.67 0 0.34 0 0 Z " fill="#FFFFFF" transform="translate(75,197)"/>
<path d="M0 0 C1.65 0 3.3 0 5 0 C5 0.33 5 0.66 5 1 C3.35 1 1.7 1 0 1 C0 0.67 0 0.34 0 0 Z " fill="#FFFFFF" transform="translate(117,0)"/>
<path d="M0 0 C1.65 0 3.3 0 5 0 C5 0.33 5 0.66 5 1 C3.35 1 1.7 1 0 1 C0 0.67 0 0.34 0 0 Z " fill="#FFFFFF" transform="translate(76,0)"/>
<path d="M0 0 C4 1 4 1 4 1 Z " fill="#FFFFFF" transform="translate(123,196)"/>
<path d="M0 0 C4 1 4 1 4 1 Z " fill="#FFFFFF" transform="translate(68,195)"/>
<path d="M0 0 C4 1 4 1 4 1 Z " fill="#FFFFFF" transform="translate(69,2)"/>
<path d="M0 0 C4 1 4 1 4 1 Z " fill="#FFFFFF" transform="translate(122,1)"/>
<path d="M0 0 C3 1 3 1 3 1 Z " fill="#FFFFFF" transform="translate(72,196)"/>
<path d="M0 0 C3 1 3 1 3 1 Z " fill="#FFFFFF" transform="translate(127,195)"/>
<path d="M0 0 C3 1 3 1 3 1 Z " fill="#FFFFFF" transform="translate(130,194)"/>
<path d="M0 0 C3 1 3 1 3 1 Z " fill="#FFFFFF" transform="translate(65,194)"/>
<path d="M0 0 C3 1 3 1 3 1 Z " fill="#FFFFFF" transform="translate(135,192)"/>
<path d="M0 0 C3 1 3 1 3 1 Z " fill="#FFFFFF" transform="translate(60,192)"/>
<path d="" fill="#FFFFFF" transform="translate(0,0)"/>
<path d="" fill="#FFFFFF" transform="translate(0,0)"/>
<path d="" fill="#FFFFFF" transform="translate(0,0)"/>
<path d="" fill="#FFFFFF" transform="translate(0,0)"/>
<path d="" fill="#FFFFFF" transform="translate(0,0)"/>
<path d="" fill="#FFFFFF" transform="translate(0,0)"/>
<path d="M0 0 C3 1 3 1 3 1 Z " fill="#FFFFFF" transform="translate(137,6)"/>
<path d="M0 0 C3 1 3 1 3 1 Z " fill="#FFFFFF" transform="translate(132,4)"/>
<path d="M0 0 C3 1 3 1 3 1 Z " fill="#FFFFFF" transform="translate(63,4)"/>
<path d="M0 0 C3 1 3 1 3 1 Z " fill="#FFFFFF" transform="translate(129,3)"/>
<path d="M0 0 C3 1 3 1 3 1 Z " fill="#FFFFFF" transform="translate(66,3)"/>
<path d="M0 0 C3 1 3 1 3 1 Z " fill="#FFFFFF" transform="translate(126,2)"/>
<path d="M0 0 C3 1 3 1 3 1 Z " fill="#FFFFFF" transform="translate(73,1)"/>
<path d="M0 0 C2 1 2 1 2 1 Z " fill="#FFFFFF" transform="translate(133,193)"/>
<path d="M0 0 C2 1 2 1 2 1 Z " fill="#FFFFFF" transform="translate(63,193)"/>
<path d="M0 0 C2 1 2 1 2 1 Z " fill="#FFFFFF" transform="translate(138,191)"/>
<path d="M0 0 C2 1 2 1 2 1 Z " fill="#FFFFFF" transform="translate(58,191)"/>
<path d="M0 0 C2 1 2 1 2 1 Z " fill="#FFFFFF" transform="translate(140,190)"/>
<path d="M0 0 C2 1 2 1 2 1 Z " fill="#FFFFFF" transform="translate(56,190)"/>
<path d="M0 0 C2 1 2 1 2 1 Z " fill="#FFFFFF" transform="translate(142,189)"/>
<path d="M0 0 C2 1 2 1 2 1 Z " fill="#FFFFFF" transform="translate(54,189)"/>
<path d="M0 0 C2 1 2 1 2 1 Z " fill="#FFFFFF" transform="translate(144,188)"/>
<path d="M0 0 C2 1 2 1 2 1 Z " fill="#FFFFFF" transform="translate(52,188)"/>
<path d="M0 0 C2 1 2 1 2 1 Z " fill="#FFFFFF" transform="translate(146,187)"/>
<path d="M0 0 C2 1 2 1 2 1 Z " fill="#FFFFFF" transform="translate(50,187)"/>
<path d="M0 0 C2 1 2 1 2 1 Z " fill="#FFFFFF" transform="translate(148,186)"/>
<path d="M0 0 C2 1 2 1 2 1 Z " fill="#FFFFFF" transform="translate(47,185)"/>
<path d="M0 0 C2 1 2 1 2 1 Z " fill="#FFFFFF" transform="translate(151,184)"/>
<path d="M0 0 C2 1 2 1 2 1 Z " fill="#FFFFFF" transform="translate(45,184)"/>
<path d="M0 0 C2 1 2 1 2 1 Z " fill="#FFFFFF" transform="translate(154,182)"/>
<path d="M0 0 C2 1 2 1 2 1 Z " fill="#FFFFFF" transform="translate(42,182)"/>
<path d="M0 0 C2 1 2 1 2 1 Z " fill="#FFFFFF" transform="translate(157,180)"/>
<path d="M0 0 C2 1 2 1 2 1 Z " fill="#FFFFFF" transform="translate(38,179)"/>
<path d="M0 0 C2 1 2 1 2 1 Z " fill="#FFFFFF" transform="translate(162,176)"/>
<path d="M0 0 C2 1 2 1 2 1 Z " fill="#FFFFFF" transform="translate(32,174)"/>
<path d="" fill="#FFFFFF" transform="translate(0,0)"/>
<path d="" fill="#FFFFFF" transform="translate(0,0)"/>
<path d="" fill="#FFFFFF" transform="translate(0,0)"/>
<path d="" fill="#FFFFFF" transform="translate(0,0)"/>
<path d="" fill="#FFFFFF" transform="translate(0,0)"/>
<path d="" fill="#FFFFFF" transform="translate(0,0)"/>
<path d="" fill="#FFFFFF" transform="translate(0,0)"/>
<path d="" fill="#FFFFFF" transform="translate(0,0)"/>
<path d="M0 0 C2 1 2 1 2 1 Z " fill="#FFFFFF" transform="translate(164,23)"/>
<path d="M0 0 C2 1 2 1 2 1 Z " fill="#FFFFFF" transform="translate(37,19)"/>
<path d="M0 0 C2 1 2 1 2 1 Z " fill="#FFFFFF" transform="translate(158,18)"/>
<path d="M0 0 C2 1 2 1 2 1 Z " fill="#FFFFFF" transform="translate(155,16)"/>
<path d="M0 0 C2 1 2 1 2 1 Z " fill="#FFFFFF" transform="translate(41,16)"/>
<path d="M0 0 C2 1 2 1 2 1 Z " fill="#FFFFFF" transform="translate(152,14)"/>
<path d="M0 0 C2 1 2 1 2 1 Z " fill="#FFFFFF" transform="translate(44,14)"/>
<path d="M0 0 C2 1 2 1 2 1 Z " fill="#FFFFFF" transform="translate(149,12)"/>
<path d="M0 0 C2 1 2 1 2 1 Z " fill="#FFFFFF" transform="translate(47,12)"/>
<path d="M0 0 C2 1 2 1 2 1 Z " fill="#FFFFFF" transform="translate(147,11)"/>
<path d="M0 0 C2 1 2 1 2 1 Z " fill="#FFFFFF" transform="translate(49,11)"/>
<path d="M0 0 C2 1 2 1 2 1 Z " fill="#FFFFFF" transform="translate(51,10)"/>
<path d="M0 0 C2 1 2 1 2 1 Z " fill="#FFFFFF" transform="translate(144,9)"/>
<path d="M0 0 C2 1 2 1 2 1 Z " fill="#FFFFFF" transform="translate(53,9)"/>
<path d="M0 0 C2 1 2 1 2 1 Z " fill="#FFFFFF" transform="translate(142,8)"/>
<path d="M0 0 C2 1 2 1 2 1 Z " fill="#FFFFFF" transform="translate(55,8)"/>
<path d="M0 0 C2 1 2 1 2 1 Z " fill="#FFFFFF" transform="translate(140,7)"/>
<path d="M0 0 C2 1 2 1 2 1 Z " fill="#FFFFFF" transform="translate(57,7)"/>
<path d="M0 0 C2 1 2 1 2 1 Z " fill="#FFFFFF" transform="translate(59,6)"/>
<path d="M0 0 C2 1 2 1 2 1 Z " fill="#FFFFFF" transform="translate(135,5)"/>
<path d="M0 0 C2 1 2 1 2 1 Z " fill="#FFFFFF" transform="translate(61,5)"/>
<path d="" fill="#FFFFFF" transform="translate(0,0)"/>
<path d="" fill="#FFFFFF" transform="translate(0,0)"/>
<path d="" fill="#FFFFFF" transform="translate(0,0)"/>
<path d="" fill="#FFFFFF" transform="translate(0,0)"/>
<path d="" fill="#FFFFFF" transform="translate(0,0)"/>
<path d="" fill="#FFFFFF" transform="translate(0,0)"/>
<path d="" fill="#FFFFFF" transform="translate(0,0)"/>
<path d="" fill="#FFFFFF" transform="translate(0,0)"/>
<path d="" fill="#FFFFFF" transform="translate(0,0)"/>
<path d="" fill="#FFFFFF" transform="translate(0,0)"/>
<path d="" fill="#FFFFFF" transform="translate(0,0)"/>
<path d="" fill="#FFFFFF" transform="translate(0,0)"/>
<path d="" fill="#FFFFFF" transform="translate(0,0)"/>
<path d="" fill="#FFFFFF" transform="translate(0,0)"/>
<path d="" fill="#FFFFFF" transform="translate(0,0)"/>
<path d="" fill="#FFFFFF" transform="translate(0,0)"/>
<path d="" fill="#FFFFFF" transform="translate(0,0)"/>
<path d="" fill="#FFFFFF" transform="translate(0,0)"/>
<path d="" fill="#FFFFFF" transform="translate(0,0)"/>
<path d="" fill="#FFFFFF" transform="translate(0,0)"/>
<path d="" fill="#FFFFFF" transform="translate(0,0)"/>
<path d="" fill="#FFFFFF" transform="translate(0,0)"/>
<path d="" fill="#FFFFFF" transform="translate(0,0)"/>
<path d="" fill="#FFFFFF" transform="translate(0,0)"/>
<path d="" fill="#FFFFFF" transform="translate(0,0)"/>
<path d="" fill="#FFFFFF" transform="translate(0,0)"/>
<path d="" fill="#FFFFFF" transform="translate(0,0)"/>
<path d="" fill="#FFFFFF" transform="translate(0,0)"/>
<path d="" fill="#FFFFFF" transform="translate(0,0)"/>
<path d="" fill="#FFFFFF" transform="translate(0,0)"/>
<path d="" fill="#FFFFFF" transform="translate(0,0)"/>
<path d="" fill="#FFFFFF" transform="translate(0,0)"/>
<path d="" fill="#FFFFFF" transform="translate(0,0)"/>
<path d="" fill="#FFFFFF" transform="translate(0,0)"/>
<path d="" fill="#FFFFFF" transform="translate(0,0)"/>
<path d="" fill="#FFFFFF" transform="translate(0,0)"/>
<path d="" fill="#FFFFFF" transform="translate(0,0)"/>
<path d="" fill="#FFFFFF" transform="translate(0,0)"/>
<path d="" fill="#FFFFFF" transform="translate(0,0)"/>
<path d="" fill="#FFFFFF" transform="translate(0,0)"/>
<path d="" fill="#FFFFFF" transform="translate(0,0)"/>
<path d="" fill="#FFFFFF" transform="translate(0,0)"/>
<path d="" fill="#FFFFFF" transform="translate(0,0)"/>
<path d="" fill="#FFFFFF" transform="translate(0,0)"/>
<path d="" fill="#FFFFFF" transform="translate(0,0)"/>
<path d="" fill="#FFFFFF" transform="translate(0,0)"/>
<path d="" fill="#FFFFFF" transform="translate(0,0)"/>
<path d="" fill="#FFFFFF" transform="translate(0,0)"/>
<path d="" fill="#FFFFFF" transform="translate(0,0)"/>
<path d="" fill="#FFFFFF" transform="translate(0,0)"/>
<path d="" fill="#FFFFFF" transform="translate(0,0)"/>
<path d="" fill="#FFFFFF" transform="translate(0,0)"/>
<path d="" fill="#FFFFFF" transform="translate(0,0)"/>
<path d="" fill="#FFFFFF" transform="translate(0,0)"/>
<path d="" fill="#FFFFFF" transform="translate(0,0)"/>
<path d="" fill="#FFFFFF" transform="translate(0,0)"/>
<path d="" fill="#FFFFFF" transform="translate(0,0)"/>
<path d="" fill="#FFFFFF" transform="translate(0,0)"/>
<path d="" fill="#FFFFFF" transform="translate(0,0)"/>
<path d="" fill="#FFFFFF" transform="translate(0,0)"/>
<path d="" fill="#FFFFFF" transform="translate(0,0)"/>
<path d="" fill="#FFFFFF" transform="translate(0,0)"/>
<path d="" fill="#FFFFFF" transform="translate(0,0)"/>
<path d="" fill="#FFFFFF" transform="translate(0,0)"/>
</svg>
