<?xml version="1.0" encoding="UTF-8"?>
<svg version="1.1" xmlns="http://www.w3.org/2000/svg" width="200" height="200">
<path d="M0 0 C1.25296875 0.4125 2.5059375 0.825 3.796875 1.25 C28.74462541 10.06760046 48.21993996 28.50355897 60.08447266 52.01074219 C70.70512729 75.08730057 73.09510894 102.81586203 65 127 C64.5875 128.25296875 64.175 129.5059375 63.75 130.796875 C54.93239954 155.74462541 36.49644103 175.21993996 12.98925781 187.08447266 C-10.08730057 197.70512729 -37.81586203 200.09510894 -62 192 C-63.87945312 191.38125 -63.87945312 191.38125 -65.796875 190.75 C-90.74462541 181.93239954 -110.21993996 163.49644103 -122.08447266 139.98925781 C-132.70512729 116.91269943 -135.09510894 89.18413797 -127 65 C-126.5875 63.74703125 -126.175 62.4940625 -125.75 61.203125 C-116.93239954 36.25537459 -98.49644103 16.78006004 -74.98925781 4.91552734 C-51.91269943 -5.70512729 -24.18413797 -8.09510894 0 0 Z " fill="#6B67FE" transform="translate(131,4)"/>
<path d="M0 0 C12.45246816 -0.44846824 22.90918143 3.07460069 33.06640625 10.1953125 C34.14148438 10.92427734 34.14148438 10.92427734 35.23828125 11.66796875 C38.81288847 14.34892416 39.94297838 15.37246005 40.62890625 19.9453125 C40.06640625 23.1953125 40.06640625 23.1953125 38.06640625 25.1953125 C35.50390625 25.7578125 35.50390625 25.7578125 32.06640625 25.1953125 C29.73577755 23.59629093 27.6111383 21.82617843 25.44140625 20.015625 C15.40308581 12.32178072 3.17666532 12.10457368 -8.93359375 13.1953125 C-18.39864489 15.24746961 -25.69932516 20.93374925 -31.93359375 28.1953125 C-38.19475653 37.94465815 -40.21320426 47.36438323 -40.27734375 58.75 C-40.29196655 59.73275909 -40.30658936 60.71551819 -40.32165527 61.72805786 C-40.38362163 65.90451528 -40.42374416 70.08111011 -40.46533203 74.2578125 C-40.49894342 77.31786929 -40.54404705 80.37760534 -40.58984375 83.4375 C-40.59512085 84.38640106 -40.60039795 85.33530212 -40.60583496 86.31295776 C-40.61924927 87.18791901 -40.63266357 88.06288025 -40.64648438 88.96435547 C-40.65377563 89.73520477 -40.66106689 90.50605408 -40.6685791 91.30026245 C-40.93359375 93.1953125 -40.93359375 93.1953125 -42.93359375 95.1953125 C-48.18040906 95.75348434 -48.18040906 95.75348434 -50.5997467 93.96055603 C-52.29907189 91.71163041 -52.31895172 90.44109218 -52.33764648 87.63891602 C-52.35033066 86.71687881 -52.36301483 85.79484161 -52.37608337 84.84486389 C-52.37314774 83.84805099 -52.3702121 82.8512381 -52.3671875 81.82421875 C-52.37242935 80.79151352 -52.3776712 79.75880829 -52.3830719 78.69480896 C-52.38950226 76.50333555 -52.38814206 74.31182767 -52.37963867 72.12036133 C-52.37120502 68.80159962 -52.39975252 65.4846038 -52.43164062 62.16601562 C-52.501458 41.55470093 -52.501458 41.55470093 -47.93359375 32.1953125 C-47.40378906 31.04675781 -46.87398437 29.89820312 -46.328125 28.71484375 C-38.62378185 15.53185659 -27.89011963 6.01881914 -12.99609375 1.68359375 C-8.64030851 0.65239459 -4.44332309 0.2958271 0 0 Z " fill="#FBFAFE" transform="translate(106.93359375,37.8046875)"/>
<path d="M0 0 C3.0625 0.3125 3.0625 0.3125 4.72865295 1.54725647 C6.42797814 3.79618209 6.44785797 5.06672032 6.46655273 7.86889648 C6.47923691 8.79093369 6.49192108 9.71297089 6.50498962 10.66294861 C6.50205399 11.65976151 6.49911835 12.6565744 6.49609375 13.68359375 C6.5013356 14.71629898 6.50657745 15.74900421 6.51197815 16.81300354 C6.51840851 19.00447695 6.51704831 21.19598483 6.50854492 23.38745117 C6.50011127 26.70621288 6.52865877 30.0232087 6.56054688 33.34179688 C6.62533288 52.68512534 3.09941625 66.46167161 -10.44140625 80.984375 C-22.97479722 92.67436095 -36.18122102 94.83863339 -52.66015625 94.578125 C-65.12462986 94.12736226 -74.49908466 89.12739783 -83.9375 81.3125 C-85.81640625 79.1953125 -85.81640625 79.1953125 -86.9375 77.3125 C-86.69675978 73.94213689 -86.34951979 72.72451979 -83.9375 70.3125 C-81.25 69.8125 -81.25 69.8125 -77.9375 70.3125 C-76.13060226 71.63343503 -74.56636277 73.11410694 -72.9375 74.6484375 C-62.4803566 83.3491076 -49.84708853 83.39823714 -36.9375 82.3125 C-26.08839488 79.96643824 -17.5478939 72.70120945 -11.5 63.5625 C-4.83663143 50.87678934 -5.463979 37.06465802 -5.375 23.125 C-5.35119005 20.16559163 -5.32318126 17.20647439 -5.28321838 14.24723816 C-5.25889068 12.41882049 -5.24400828 10.59024719 -5.23960876 8.76167297 C-5.13740262 0.54653219 -5.13740262 0.54653219 0 0 Z " fill="#FBFBFE" transform="translate(138.9375,66.6875)"/>
<path d="M0 0 C2.3214506 1.58170114 3.35339027 2.64770039 5 5 C5.3125 7.8125 5.3125 7.8125 5 10 C1.94986803 10.93767308 0.55617178 11.27900976 -2.3515625 9.8203125 C-3.47691406 8.98113281 -3.47691406 8.98113281 -4.625 8.125 C-11.14328139 3.34196075 -17.05997791 3.34146736 -25 4 C-31.17323885 5.65283492 -35.59984169 9.67408831 -39 15 C-41.64633029 20.30056504 -42.45020427 24.4192937 -42.4765625 30.3046875 C-42.49214203 31.06927277 -42.50772156 31.83385803 -42.52377319 32.62161255 C-42.57092856 35.03939953 -42.59895746 37.45690159 -42.625 39.875 C-42.66149383 42.31432433 -42.70202105 44.75348698 -42.74765015 47.19265747 C-42.77488584 48.70499136 -42.79623328 50.21744477 -42.81118774 51.72994995 C-42.88927222 56.88927222 -42.88927222 56.88927222 -44 58 C-46.5 58.125 -46.5 58.125 -49 58 C-51.81968791 55.18031209 -50.32298688 45.22124556 -50.35009766 41.23852539 C-50.36655053 39.47048685 -50.39369713 37.70251182 -50.43212891 35.93481445 C-50.83834608 17.14815334 -50.83834608 17.14815334 -45 9 C-44.42971069 8.14003418 -44.42971069 8.14003418 -43.84790039 7.26269531 C-33.28699215 -7.0732988 -14.575122 -8.04828976 0 0 Z " fill="#FAFAFE" transform="translate(125,66)"/>
<path d="M0 0 C0.0997145 5.08620644 0.17186281 10.17182992 0.21972656 15.25878906 C0.23970285 16.98512702 0.26689372 18.71139853 0.30175781 20.4375 C0.53066851 32.07154944 0.66501254 42.5106437 -7.5 51.75 C-14.10408941 58.60996742 -21.5039757 62.30044989 -31.0625 62.625 C-39.00027238 62.24784617 -46.22875857 60.31998786 -52.6875 55.5625 C-55 53 -55 53 -55.375 50.1875 C-55.189375 49.1046875 -55.189375 49.1046875 -55 48 C-51.86363194 47.02199276 -50.46700759 46.78565913 -47.4296875 48.1796875 C-46.58664063 48.73914063 -45.74359375 49.29859375 -44.875 49.875 C-38.87233692 53.79771295 -34.14152341 55.00096824 -27 54 C-20.49592981 51.74052152 -14.67918491 48.89920457 -10.8671875 43.00390625 C-8.415664 37.33889923 -7.68610609 32.01482182 -7.5859375 25.87890625 C-7.56657135 25.13414536 -7.5472052 24.38938446 -7.5272522 23.62205505 C-7.46799844 21.26898251 -7.42129086 18.91585957 -7.375 16.5625 C-7.33677015 14.95636017 -7.29771558 13.35023975 -7.2578125 11.74414062 C-7.1623425 7.82958675 -7.07811457 3.91493709 -7 0 C-4.3333581 -1.33332095 -2.83319697 -0.67102033 0 0 Z " fill="#FBFBFE" transform="translate(125,80)"/>
</svg>
