<?xml version="1.0" encoding="UTF-8"?>
<svg version="1.1" xmlns="http://www.w3.org/2000/svg" width="64" height="64">
<path d="M0 0 C4.80729875 2.7414171 8.55500397 6.39500596 11.625 11 C11.625 11.66 11.625 12.32 11.625 13 C12.49125 13.1546875 12.49125 13.1546875 13.375 13.3125 C16.11064287 14.14839088 17.56451512 14.99838612 19.625 17 C20.51361824 21.52918842 20.27321658 26.14383074 20.25 30.75 C20.28222656 32.01328125 20.31445312 33.2765625 20.34765625 34.578125 C20.35858716 44.98435297 20.35858716 44.98435297 17.3359375 49.078125 C9.28157868 56.56218997 -1.04399775 57.81007629 -11.5625 57.625 C-13.22829102 57.65400391 -13.22829102 57.65400391 -14.92773438 57.68359375 C-23.57879098 57.63243434 -28.98772963 55.45708116 -35.71484375 50.15625 C-40.98057026 44.69740394 -42.56499614 40.85247651 -42.73828125 33.28125 C-42.375 31 -42.375 31 -40.90625 28.58203125 C-39.16338 25.64316117 -38.89451991 23.5652492 -38.5625 20.1875 C-37.33664415 12.06495917 -33.65575615 7.61326948 -27.3125 2.625 C-19.26585801 -3.26599761 -9.12230525 -4.14904236 0 0 Z " fill="#000000" transform="translate(44.375,7)"/>
<path d="M0 0 C0 0.66 0 1.32 0 2 C1.11375 1.835 2.2275 1.67 3.375 1.5 C7 1 7 1 9 1 C10.37562854 2.28965176 11.70766393 3.62689293 13 5 C14.81766936 7.07698405 14.81766936 7.07698405 17 7.8125 C19.67871871 9.40298924 20.083405 11.09744918 21 14 C21.66 14 22.32 14 23 14 C25.82786005 22.48358014 23.78987706 30.20029766 20 38 C19.34 38 18.68 38 18 38 C15.36 30.08 12.72 22.16 10 14 C9.67 21.26 9.34 28.52 9 36 C4.79066487 33.47439892 1.74448708 31.11235548 -1.8125 27.8125 C-2.56563477 27.11737305 -2.56563477 27.11737305 -3.33398438 26.40820312 C-4.55956829 25.27599703 -5.78029342 24.13853521 -7 23 C-7.68034272 27.83112051 -7.94302029 32.19363851 -7 37 C-4.41483754 40.0285722 -1.80729491 42.02399075 1.49609375 44.23046875 C4 46 4 46 5 49 C-1.10503348 50.42883762 -5.12606155 50.43187368 -10.625 47.1875 C-13.1640625 45.54296875 -13.1640625 45.54296875 -15 44 C-15 43.34 -15 42.68 -15 42 C-15.66 42 -16.32 42 -17 42 C-17 41.01 -17 40.02 -17 39 C-17.66 38.67 -18.32 38.34 -19 38 C-19.5 34.5 -19.5 34.5 -20 31 C-20.66 30.67 -21.32 30.34 -22 30 C-23.65153126 25.64179251 -24.23930036 21.97429434 -23.125 17.4375 C-22.75375 16.633125 -22.3825 15.82875 -22 15 C-22.66 15 -23.32 15 -24 15 C-25.0492518 11.75685807 -25.05254326 10.16419769 -24 6.875 C-21.51608288 3.30436914 -19.0171434 2.21877405 -15 1 C-14.34386719 0.7834375 -13.68773437 0.566875 -13.01171875 0.34375 C-8.29896436 -1.04719887 -4.80141461 -1.00029471 0 0 Z " fill="#1B2962" transform="translate(35,9)"/>
<path d="M0 0 C1.98911817 2.98367726 2.87528172 5.36178223 3.9453125 8.76171875 C4.29980469 9.87998047 4.65429688 10.99824219 5.01953125 12.15039062 C5.38433594 13.31763672 5.74914062 14.48488281 6.125 15.6875 C6.49753906 16.86634766 6.87007812 18.04519531 7.25390625 19.25976562 C8.17351759 22.17186819 9.08869755 25.08528871 10 28 C6.54137922 31.52299443 3.34789026 34.59478411 -1 37 C-6.65593516 36.55639724 -12.12561792 31.68554991 -15.88671875 27.67578125 C-19.06924495 22.88524181 -17.7724647 16.36433821 -17 11 C-15.82995226 11.84952934 -14.6642227 12.70500521 -13.5 13.5625 C-12.52546875 14.27599609 -12.52546875 14.27599609 -11.53125 15.00390625 C-7.90599691 17.86270922 -4.47452641 20.95978939 -1 24 C-0.67 16.08 -0.34 8.16 0 0 Z " fill="#0E1938" transform="translate(44,20)"/>
<path d="M0 0 C0.7425 0.763125 1.485 1.52625 2.25 2.3125 C6.16284436 6.13641608 10.4363392 8.99213266 15 12 C15.33 8.04 15.66 4.08 16 0 C17.98 0 19.96 0 22 0 C22 8.91 22 17.82 22 27 C17.91304138 24.95652069 15.02837068 22.46513887 11.75 19.375 C11.19570313 18.859375 10.64140625 18.34375 10.0703125 17.8125 C8.7097288 16.54574965 7.35434163 15.27342185 6 14 C5.67 18.62 5.34 23.24 5 28 C3.02 28 1.04 28 -1 28 C-1.02886338 23.52084672 -1.04675187 19.04171709 -1.0625 14.5625 C-1.07087891 13.28310547 -1.07925781 12.00371094 -1.08789062 10.68554688 C-1.09111328 9.47060547 -1.09433594 8.25566406 -1.09765625 7.00390625 C-1.10289307 5.87799072 -1.10812988 4.7520752 -1.11352539 3.59204102 C-1 1 -1 1 0 0 Z " fill="#7D7DFD" transform="translate(21,17)"/>
<path d="M0 0 C0 4 0 8 0 12 C-2.125 12.8125 -2.125 12.8125 -5 13 C-8.30527437 10.62020245 -11.2014439 7.95403144 -14 5 C-15.64303173 6.64303173 -15.31862853 8.68007295 -15.5 10.9375 C-15.89022298 15.78044597 -15.89022298 15.78044597 -17 18 C-17.66 18 -18.32 18 -19 18 C-19 15.69 -19 13.38 -19 11 C-19.99 11.495 -19.99 11.495 -21 12 C-21.4822182 4.88728149 -21.4822182 4.88728149 -19.4375 1.125 C-13.64388769 -3.9258415 -6.33744651 -4.22496434 0 0 Z " fill="#1D2D6F" transform="translate(35,13)"/>
<path d="M0 0 C1.53445094 3.06890187 0.54984289 5.70094266 0 9 C0.66 9 1.32 9 2 9 C1.91621094 9.61488281 1.83242187 10.22976562 1.74609375 10.86328125 C1.64425781 11.67152344 1.54242187 12.47976562 1.4375 13.3125 C1.28087891 14.51326172 1.28087891 14.51326172 1.12109375 15.73828125 C0.85244822 18.16817116 0.85244822 18.16817116 2 21 C2 21.99 2 22.98 2 24 C2.99 24.33 3.98 24.66 5 25 C5.144375 26.0725 5.28875 27.145 5.4375 28.25 C5.83749442 30.91662949 6.27591924 33.41399729 7 36 C7.66 36 8.32 36 9 36 C10.33333333 37.33333333 11.66666667 38.66666667 13 40 C13.66 40 14.32 40 15 40 C15 40.66 15 41.32 15 42 C16.485 42.495 16.485 42.495 18 43 C11.404982 42.71936094 7.0293286 40.21784219 2 36 C-4.39765012 28.95174139 -5.48499815 22.13840143 -5.40234375 12.76171875 C-4.8540964 7.63587213 -3.08615109 4.06710626 0 0 Z " fill="#0C1029" transform="translate(11,15)"/>
<path d="M0 0 C5.10711498 3.72729795 9.48311136 8.42606261 11.2265625 14.625 C10.5665625 14.625 9.9065625 14.625 9.2265625 14.625 C8.7521875 13.820625 8.2778125 13.01625 7.7890625 12.1875 C6.42672578 9.3331924 6.42672578 9.3331924 3.2265625 8.625 C2.8965625 9.285 2.5665625 9.945 2.2265625 10.625 C2.1853125 10.0475 2.1440625 9.47 2.1015625 8.875 C0.72419885 5.33320775 -1.46424577 4.34087719 -4.7734375 2.625 C-8.52473587 2.28975124 -8.52473587 2.28975124 -11.7734375 2.625 C-11.7734375 1.965 -11.7734375 1.305 -11.7734375 0.625 C-18.71829053 0.14047537 -25.0724743 1.93212509 -31.7734375 3.625 C-23.16368359 -5.33655031 -10.74566997 -6.16038409 0 0 Z " fill="#090C1F" transform="translate(46.7734375,8.375)"/>
<path d="M0 0 C2.475 0.495 2.475 0.495 5 1 C5 1.66 5 2.32 5 3 C6.58960328 4.80636736 7.83852297 5.91926148 10 7 C11.65660093 13.62640373 10.65743291 20.27395558 10 27 C9.34 27 8.68 27 8 27 C6.65934762 23.06495351 5.32873929 19.12658354 4 15.1875 C3.6184375 14.06794922 3.236875 12.94839844 2.84375 11.79492188 C2.4828125 10.72177734 2.121875 9.64863281 1.75 8.54296875 C1.41484375 7.55321045 1.0796875 6.56345215 0.734375 5.54370117 C0 3 0 3 0 0 Z " fill="#243A86" transform="translate(45,20)"/>
<path d="M0 0 C0.33 0 0.66 0 1 0 C0.94457031 1.05058594 0.88914062 2.10117187 0.83203125 3.18359375 C0.59146819 11.69777169 0.59146819 11.69777169 4.48046875 18.9609375 C7.44332289 21.33388794 7.44332289 21.33388794 10.53125 23.30078125 C13 25 13 25 14 28 C6.25 28.125 6.25 28.125 4 27 C4 26.34 4 25.68 4 25 C3.01 25 2.02 25 1 25 C1 24.01 1 23.02 1 22 C-0.98 21.34 -2.96 20.68 -5 20 C-4.6875 18.0625 -4.6875 18.0625 -4 16 C-3.01 15.67 -2.02 15.34 -1 15 C-0.67 10.05 -0.34 5.1 0 0 Z " fill="#1D2E7A" transform="translate(26,30)"/>
<path d="M0 0 C0.33 0 0.66 0 1 0 C1 8.58 1 17.16 1 26 C2.65 26 4.3 26 6 26 C5.01 26.66 4.02 27.32 3 28 C2.67 28.99 2.34 29.98 2 31 C3.98 31.66 5.96 32.32 8 33 C8 33.99 8 34.98 8 36 C8.99 36 9.98 36 11 36 C11 36.66 11 37.32 11 38 C12.98 38.33 14.96 38.66 17 39 C17 39.33 17 39.66 17 40 C11.24406487 40.90883186 7.70506569 38.39512861 2.9765625 35.5078125 C2.32429688 35.01023438 1.67203125 34.51265625 1 34 C1 33.34 1 32.68 1 32 C0.34 32 -0.32 32 -1 32 C-1 31.01 -1 30.02 -1 29 C-1.66 28.67 -2.32 28.34 -3 28 C-3.625 24.9375 -3.625 24.9375 -4 22 C-2.68 22 -1.36 22 0 22 C0 14.74 0 7.48 0 0 Z " fill="#101949" transform="translate(19,19)"/>
<path d="M0 0 C0.99 0.33 1.98 0.66 3 1 C3 5 3 9 3 13 C0.8125 13.75 0.8125 13.75 -2 14 C-4.75 12.4375 -4.75 12.4375 -7 10 C-7.8125 6.75 -7.8125 6.75 -8 4 C-6.35 4 -4.7 4 -3 4 C-2.67 3.34 -2.34 2.68 -2 2 C-1.67 2.33 -1.34 2.66 -1 3 C-0.67 2.01 -0.34 1.02 0 0 Z " fill="#284197" transform="translate(32,12)"/>
<path d="M0 0 C2.475 0.99 2.475 0.99 5 2 C5 3.32 5 4.64 5 6 C6.98 6 8.96 6 11 6 C11 15.57 11 25.14 11 35 C10.67 35 10.34 35 10 35 C10 25.76 10 16.52 10 7 C8.02 7 6.04 7 4 7 C4 11.95 4 16.9 4 22 C1 19 1 19 -1 16 C-0.34 15.67 0.32 15.34 1 15 C1.0272415 13.58344207 1.04650467 12.16672955 1.0625 10.75 C1.07410156 9.96109375 1.08570313 9.1721875 1.09765625 8.359375 C1.00359686 6.0869002 0.59313074 4.18571012 0 2 C0 1.34 0 0.68 0 0 Z " fill="#111A71" transform="translate(33,10)"/>
<path d="M0 0 C0 1.65 0 3.3 0 5 C-0.99 5 -1.98 5 -3 5 C-5.15017528 5.74172877 -5.15017528 5.74172877 -7 7 C-7.33 7.99 -7.66 8.98 -8 10 C-9.65 8.02 -11.3 6.04 -13 4 C-8.46559267 -0.53440733 -6.55783615 -1.7050374 0 0 Z " fill="#23377E" transform="translate(32,11)"/>
<path d="M0 0 C-1 2 -1 2 -3 3 C-4.03125 2.79375 -5.0625 2.5875 -6.125 2.375 C-10.82759224 1.91991043 -13.91504921 2.67718484 -18 5 C-20.66970476 7.73996015 -22.45033089 10.5132445 -24 14 C-25.21327838 11.1322511 -24.98534255 9.95511157 -24 6.9375 C-21.52719656 3.30556994 -19.05350508 2.22980593 -15 1 C-14.34386719 0.7834375 -13.68773437 0.566875 -13.01171875 0.34375 C-8.29896436 -1.04719887 -4.80141461 -1.00029471 0 0 Z " fill="#162151" transform="translate(35,9)"/>
<path d="M0 0 C0.66 0.33 1.32 0.66 2 1 C2.91634342 4.74867762 3.01442482 7.32271002 2 11 C2.33 11.99 2.66 12.98 3 14 C2.79375 14.78375 2.5875 15.5675 2.375 16.375 C1.88042217 19.83704479 3.01563222 21.22188511 5 24 C3.125 23.8125 3.125 23.8125 1 23 C-1.25688378 18.82437182 -1.2382682 15.0549053 -1.1875 10.375 C-1.18105469 9.06273437 -1.17460938 7.75046875 -1.16796875 6.3984375 C-1 3 -1 3 0 0 Z " fill="#080A1B" transform="translate(7,21)"/>
<path d="M0 0 C0.33 0.66 0.66 1.32 1 2 C3.475 2.99 3.475 2.99 6 4 C6 8.29 6 12.58 6 17 C5.34 17 4.68 17 4 17 C3.32389577 15.10751181 2.65949561 13.2108398 2 11.3125 C1.62875 10.25675781 1.2575 9.20101562 0.875 8.11328125 C0.0608143 5.21637944 -0.17709796 2.98299377 0 0 Z " fill="#29469D" transform="translate(48,27)"/>
<path d="M0 0 C1.53445094 3.06890187 0.54984289 5.70094266 0 9 C0.66 9 1.32 9 2 9 C1.9278125 9.61488281 1.855625 10.22976562 1.78125 10.86328125 C1.6884375 11.67152344 1.595625 12.47976562 1.5 13.3125 C1.4071875 14.11300781 1.314375 14.91351563 1.21875 15.73828125 C0.95186537 18.11896555 0.95186537 18.11896555 1 21 C0.01 21.33 -0.98 21.66 -2 22 C-3.125 14.375 -3.125 14.375 -2 11 C-2.20625 10.05125 -2.4125 9.1025 -2.625 8.125 C-3.07954372 4.33713566 -2.21398955 3.01102579 0 0 Z " fill="#101739" transform="translate(11,15)"/>
<path d="M0 0 C-0.33 0.66 -0.66 1.32 -1 2 C-2.98 2 -4.96 2 -7 2 C-7 1.34 -7 0.68 -7 0 C-13.94485303 -0.48452463 -20.2990368 1.30712509 -27 3 C-20.21050551 -4.80712364 -8.83267412 -4.01485187 0 0 Z " fill="#101739" transform="translate(42,9)"/>
<path d="M0 0 C0.66 0 1.32 0 2 0 C4.52641324 7.57923973 3.21976654 14.88968223 0 22 C-0.33 22 -0.66 22 -1 22 C-1.15230477 17.65931404 -1.17112294 14.55139614 0.125 10.375 C1.14027985 6.45892057 0.6009353 4.64657486 -1 1 C-0.67 0.67 -0.34 0.34 0 0 Z " fill="#172759" transform="translate(56,23)"/>
<path d="M0 0 C5.99379043 1.17525303 8.42023149 2.78376588 12 8 C13.3125 10.875 13.3125 10.875 14 13 C13.34 13 12.68 13 12 13 C11.525625 12.195625 11.05125 11.39125 10.5625 10.5625 C9.20016328 7.7081924 9.20016328 7.7081924 6 7 C5.67 7.66 5.34 8.32 5 9 C4.9175 8.401875 4.835 7.80375 4.75 7.1875 C3.79451097 4.400657 2.3549152 3.67123014 0 2 C0 1.34 0 0.68 0 0 Z " fill="#0B0F27" transform="translate(44,10)"/>
<path d="M0 0 C3.6875 0.3125 3.6875 0.3125 6 2.1875 C6.556875 2.88875 7.11375 3.59 7.6875 4.3125 C8.3475 4.9725 9.0075 5.6325 9.6875 6.3125 C8.6975 6.6425 7.7075 6.9725 6.6875 7.3125 C6.3575 7.9725 6.0275 8.6325 5.6875 9.3125 C5.3575 7.9925 5.0275 6.6725 4.6875 5.3125 C3.0375 4.9825 1.3875 4.6525 -0.3125 4.3125 C-0.3125 4.9725 -0.3125 5.6325 -0.3125 6.3125 C-0.9725 6.3125 -1.6325 6.3125 -2.3125 6.3125 C-2.9725 4.6625 -3.6325 3.0125 -4.3125 1.3125 C-3.3125 0.3125 -3.3125 0.3125 0 0 Z " fill="#162150" transform="translate(40.3125,9.6875)"/>
<path d="M0 0 C2.97 0.495 2.97 0.495 6 1 C6 2.98 6 4.96 6 7 C4.68 7 3.36 7 2 7 C1.67 7.66 1.34 8.32 1 9 C0.34 7.68 -0.32 6.36 -1 5 C-0.34 4.01 0.32 3.02 1 2 C0.67 1.67 0.34 1.34 0 1 C0 0.67 0 0.34 0 0 Z " fill="#3151B7" transform="translate(28,17)"/>
<path d="M0 0 C2.475 0.99 2.475 0.99 5 2 C5 3.32 5 4.64 5 6 C4.34 6 3.68 6 3 6 C3 10.29 3 14.58 3 19 C2.01 19 1.02 19 0 19 C-0.33 18.01 -0.66 17.02 -1 16 C-0.34 15.67 0.32 15.34 1 15 C1.0272415 13.58344207 1.04650467 12.16672955 1.0625 10.75 C1.07410156 9.96109375 1.08570313 9.1721875 1.09765625 8.359375 C1.00359686 6.0869002 0.59313074 4.18571012 0 2 C0 1.34 0 0.68 0 0 Z " fill="#1F3174" transform="translate(33,10)"/>
<path d="M0 0 C3.43198603 1.23932829 6.30325632 2.50301511 9 5 C9 5.99 9 6.98 9 8 C5.625 7.375 5.625 7.375 2 6 C0.5625 2.875 0.5625 2.875 0 0 Z " fill="#274195" transform="translate(28,48)"/>
<path d="M0 0 C2.18742014 3.2811302 2.54442806 5.33084356 3.125 9.1875 C3.37636719 10.81751953 3.37636719 10.81751953 3.6328125 12.48046875 C3.75398438 13.31191406 3.87515625 14.14335938 4 15 C2.68 15 1.36 15 0 15 C0 10.05 0 5.1 0 0 Z " fill="#6464FF" transform="translate(20,30)"/>
<path d="M0 0 C0.33 0.66 0.66 1.32 1 2 C2.32 1.67 3.64 1.34 5 1 C5 1.66 5 2.32 5 3 C6.65 3.33 8.3 3.66 10 4 C10.33 3.34 10.66 2.68 11 2 C11.66 3.32 12.32 4.64 13 6 C5.25 6.125 5.25 6.125 3 5 C3 4.34 3 3.68 3 3 C2.01 3 1.02 3 0 3 C0 2.01 0 1.02 0 0 Z " fill="#1D2E6C" transform="translate(27,52)"/>
<path d="M0 0 C2.67289025 3.87671106 2.01875653 7.79267603 1.625 12.25 C1.53992187 13.36761719 1.53992187 13.36761719 1.453125 14.5078125 C1.31223742 16.33935108 1.15748116 18.16981352 1 20 C0.34 20 -0.32 20 -1 20 C-1.33 19.01 -1.66 18.02 -2 17 C-1.34 17 -0.68 17 0 17 C-0.08378906 16.35933594 -0.16757812 15.71867187 -0.25390625 15.05859375 C-0.87664605 9.76924686 -1.02317185 5.22954501 0 0 Z " fill="#203578" transform="translate(54,27)"/>
<path d="M0 0 C1.65 1.32 3.3 2.64 5 4 C4.67 4.66 4.34 5.32 4 6 C3.01 5.67 2.02 5.34 1 5 C1 8.3 1 11.6 1 15 C0.67 15 0.34 15 0 15 C0 10.05 0 5.1 0 0 Z " fill="#080D1F" transform="translate(27,31)"/>
<path d="M0 0 C0.33 0.99 0.66 1.98 1 3 C1.99 3.33 2.98 3.66 4 4 C4.33 6.31 4.66 8.62 5 11 C4.01 11 3.02 11 2 11 C1.71125 10.21625 1.4225 9.4325 1.125 8.625 C0.15087746 5.90328368 0.15087746 5.90328368 -2 4 C-1.34 2.68 -0.68 1.36 0 0 Z " fill="#11173A" transform="translate(12,36)"/>
<path d="M0 0 C0.66 0.33 1.32 0.66 2 1 C2.125 7.75 2.125 7.75 1 10 C0.34 10 -0.32 10 -1 10 C-1 7.69 -1 5.38 -1 3 C-1.99 3.495 -1.99 3.495 -3 4 C-3 3.01 -3 2.02 -3 1 C-2.01 0.67 -1.02 0.34 0 0 Z " fill="#203377" transform="translate(17,21)"/>
<path d="M0 0 C3 3 6 6 9 9 C6 9 6 9 3 7 C3 6.34 3 5.68 3 5 C2.34 5 1.68 5 1 5 C1 4.01 1 3.02 1 2 C0.34 1.67 -0.32 1.34 -1 1 C-0.67 0.67 -0.34 0.34 0 0 Z " fill="#141C45" transform="translate(17,46)"/>
<path d="M0 0 C2.37948772 0.17625835 3.70225849 0.69719773 5.37890625 2.40234375 C6.62115486 3.90649092 7.81376056 5.45129851 9 7 C8.67 7.66 8.34 8.32 8 9 C1.42857143 3.85714286 1.42857143 3.85714286 0 0 Z " fill="#070919" transform="translate(10,46)"/>
<path d="M0 0 C0.66 0 1.32 0 2 0 C3.28317892 3.84953676 3.06643637 6.94738135 3 11 C2.34 10.67 1.68 10.34 1 10 C0.4375 7.6875 0.4375 7.6875 0 5 C-0.20625 4.2575 -0.4125 3.515 -0.625 2.75 C-0.74875 2.1725 -0.8725 1.595 -1 1 C-0.67 0.67 -0.34 0.34 0 0 Z " fill="#131D45" transform="translate(56,23)"/>
<path d="M0 0 C3.24271506 0.5590888 4.93057424 1.4132178 7 4 C7 4.66 7 5.32 7 6 C7.66 6.33 8.32 6.66 9 7 C8.01 7 7.02 7 6 7 C5.67 7.66 5.34 8.32 5 9 C4.9175 8.401875 4.835 7.80375 4.75 7.1875 C3.79451097 4.400657 2.3549152 3.67123014 0 2 C0 1.34 0 0.68 0 0 Z " fill="#101536" transform="translate(44,10)"/>
<path d="M0 0 C0.99 0.33 1.98 0.66 3 1 C3.33 3.31 3.66 5.62 4 8 C3.34 8 2.68 8 2 8 C0.61061923 6.03852126 -0.7260411 4.03833424 -2 2 C-1.34 1.34 -0.68 0.68 0 0 Z " fill="#233985" transform="translate(26,46)"/>
<path d="M0 0 C1.875 0.1875 1.875 0.1875 4 1 C5.25 3.5625 5.25 3.5625 6 6 C5.34 6 4.68 6 4 6 C4 5.34 4 4.68 4 4 C2.68 4 1.36 4 0 4 C0 2.68 0 1.36 0 0 Z " fill="#172152" transform="translate(50,17)"/>
<path d="M0 0 C2.125 0.9375 2.125 0.9375 4 2 C3.67 3.32 3.34 4.64 3 6 C1.68 5.67 0.36 5.34 -1 5 C-1.33 3.68 -1.66 2.36 -2 1 C-1.34 0.67 -0.68 0.34 0 0 Z " fill="#16204F" transform="translate(14,34)"/>
<path d="M0 0 C1.55913346 3.11826692 0.66585225 5.67073874 0 9 C-0.99 9.495 -0.99 9.495 -2 10 C-3.06351675 6.61608307 -3.21442982 5.4195366 -1.5625 2.1875 C-1.046875 1.465625 -0.53125 0.74375 0 0 Z " fill="#0D122D" transform="translate(11,15)"/>
</svg>
