<?xml version="1.0" encoding="UTF-8"?>
<svg version="1.1" xmlns="http://www.w3.org/2000/svg" width="64" height="64">
<path d="M0 0 C7.42583856 5.17726689 11.99178488 11.71673692 13.77734375 20.64453125 C14.73258529 30.4455712 13.42698574 38.29308648 7.65234375 46.33203125 C2.42437425 52.64088896 -4.04679057 57.2587913 -12.22265625 58.64453125 C-23.2562981 59.6475896 -31.82392761 57.24431241 -40.47265625 50.26953125 C-47.38888832 43.84731575 -50.30070796 36.05268671 -50.66015625 26.70703125 C-50.3854528 17.30739591 -46.58201667 9.49307324 -40.22265625 2.64453125 C-28.74696393 -7.94841551 -12.91112833 -7.8737461 0 0 Z " fill="#2D4082" transform="translate(50.22265625,5.35546875)"/>
<path d="M0 0 C0.66 0 1.32 0 2 0 C4.90792235 4.53635887 5.36341325 7.69726542 4.59375 12.875 C3.75239342 15.88617093 2.18664386 17.81335614 0 20 C-1.875 19.875 -1.875 19.875 -4 19 C-6.2820325 14.43593499 -6.30858315 10.88537709 -5 6 C-3.51715894 3.64093468 -1.99810741 1.99810741 0 0 Z " fill="#FFFFFF" transform="translate(26,34)"/>
<path d="M0 0 C-1.20744352 6.15796193 -2.87984083 8.37322059 -8 12 C-10.95664519 13.4783226 -13.74229737 13.06032783 -17 13 C-16.75239109 8.79064851 -16.41897739 6.52372173 -13.75 3.1875 C-8.9060715 -0.66562494 -6.06790661 -1.41114107 0 0 Z " fill="#FEFEFE" transform="translate(50,28)"/>
<path d="M0 0 C2.67378651 1.0843985 4.59678394 2.31774875 7 4 C7.33 4.99 7.66 5.98 8 7 C4.12644732 9.99887949 0.97554527 10.51806912 -3.77734375 10.359375 C-7.23936543 9.79961051 -9.39780481 8.27692079 -12 6 C-12.33 5.01 -12.66 4.02 -13 3 C-8.44853747 0.33572925 -5.2699494 -0.64718677 0 0 Z " fill="#FEFEFE" transform="translate(31,19)"/>
<path d="M0 0 C0 0.33 0 0.66 0 1 C-9.57 1 -19.14 1 -29 1 C-20.43444317 -5.42416762 -9.5129776 -4.03580868 0 0 Z " fill="#5769A9" transform="translate(47,3)"/>
<path d="M0 0 C0.66 0.66 1.32 1.32 2 2 C-0.29028666 5.57284719 -1.35931058 6.84263769 -5.5625 7.875 C-9 8 -9 8 -12 7 C-9.73485872 0.37881781 -6.83355673 -0.49698594 0 0 Z " fill="#FFFFFF" transform="translate(23,30)"/>
<path d="M0 0 C2.62434747 0.36197896 3.82013689 0.82656057 5.75 2.6875 C7.34590505 5.63992434 7.28796546 7.68839719 7 11 C6.67 11.66 6.34 12.32 6 13 C3.28878505 12.14382686 1.44611539 11.54750525 -0.375 9.3125 C-1.26232255 6.02940656 -0.63470425 3.30046211 0 0 Z " fill="#FFFFFF" transform="translate(36,10)"/>
<path d="M0 0 C4.0589816 -0.3183515 6.3474968 -0.39717586 9.875 1.75 C11.96374181 3.96160897 12.68151851 5.02750614 13 8 C5.79240611 8.61081304 5.79240611 8.61081304 2 5.6875 C0 3 0 3 0 0 Z " fill="#FDFDFD" transform="translate(33,43)"/>
<path d="M0 0 C-0.3125 2.875 -0.3125 2.875 -1 6 C-4 8 -4 8 -7 8 C-6.6875 5.125 -6.6875 5.125 -6 2 C-3 0 -3 0 0 0 Z " fill="#FFFFFF" transform="translate(19,40)"/>
<path d="M0 0 C3 0.1875 3 0.1875 5 1.1875 C4.67 2.1775 4.34 3.1675 4 4.1875 C1.69 4.5175 -0.62 4.8475 -3 5.1875 C-3.66 4.1975 -4.32 3.2075 -5 2.1875 C-3 0.1875 -3 0.1875 0 0 Z " fill="#FFFFFF" transform="translate(48,38.8125)"/>
<path d="M0 0 C2.3125 -0.25 2.3125 -0.25 5 0 C6.8125 1.8125 6.8125 1.8125 8 4 C8 4.99 8 5.98 8 7 C5.25851328 6.62952882 3.41406801 6.31412056 1.1875 4.625 C0 3 0 3 0 0 Z " fill="#FEFEFE" transform="translate(25,11)"/>
</svg>
