<?xml version="1.0" encoding="UTF-8"?>
<svg version="1.1" xmlns="http://www.w3.org/2000/svg" width="200" height="200">
<path d="M0 0 C1.97057373 0.01244751 1.97057373 0.01244751 3.98095703 0.02514648 C31.08150857 0.4955143 54.80307004 11.85474289 73.79345703 30.99267578 C91.78688109 49.64155206 100.83579621 74.56605915 100.625 100.25 C100.61670166 101.56371582 100.60840332 102.87743164 100.59985352 104.23095703 C100.1294857 131.33150857 88.77025711 155.05307004 69.63232422 174.04345703 C50.98344794 192.03688109 26.05894085 201.08579621 0.375 200.875 C-1.59557373 200.86255249 -1.59557373 200.86255249 -3.60595703 200.84985352 C-30.70650857 200.3794857 -54.42807004 189.02025711 -73.41845703 169.88232422 C-91.41188109 151.23344794 -100.46079621 126.30894085 -100.25 100.625 C-100.24170166 99.31128418 -100.23340332 97.99756836 -100.22485352 96.64404297 C-99.7544857 69.54349143 -88.39525711 45.82192996 -69.25732422 26.83154297 C-50.60844794 8.83811891 -25.68394085 -0.21079621 0 0 Z " fill="#FEFEFE" transform="translate(99.8125,-0.4375)"/>
<path d="M0 0 C3.22563908 1.45153758 5.98220679 3.35304433 8.796875 5.46484375 C9.71098145 6.13422974 9.71098145 6.13422974 10.64355469 6.81713867 C12.5753098 8.23387425 14.49852596 9.66172538 16.421875 11.08984375 C17.62683396 11.97500776 18.83255048 12.85914155 20.0390625 13.7421875 C21.86940331 15.08188327 23.69910432 16.42237765 25.52612305 17.76660156 C30.53083319 21.44825699 35.56695795 25.08506364 40.609375 28.71484375 C46.74561804 33.13241872 52.8286285 37.60580657 58.84375 42.1875 C60.74673497 43.59167224 62.7041781 44.92272722 64.6875 46.2109375 C67.421875 48.08984375 67.421875 48.08984375 68.421875 50.08984375 C68.53317969 51.91667169 68.58110703 53.74750741 68.59887695 55.57763672 C68.61812981 57.2998494 68.61812981 57.2998494 68.63777161 59.05685425 C68.64515854 60.30266266 68.65254547 61.54847107 68.66015625 62.83203125 C68.668228 64.10708527 68.67629974 65.38213928 68.68461609 66.6958313 C68.69846627 69.39768111 68.70948027 72.0994085 68.71704102 74.80126953 C68.72810884 78.26052292 68.76251332 81.71913361 68.80221272 85.17815971 C68.83465392 88.47938662 68.83915544 91.78066922 68.84765625 95.08203125 C68.86516434 96.3237912 68.88267242 97.56555115 68.90071106 98.84494019 C68.89632271 100.57660934 68.89632271 100.57660934 68.8918457 102.34326172 C68.89771194 103.35871063 68.90357819 104.37415955 68.90962219 105.42037964 C68.06432378 110.04673896 64.4227483 112.23332176 60.76171875 114.83203125 C60.06046875 115.33347656 59.35921875 115.83492188 58.63671875 116.3515625 C57.88519531 116.88394531 57.13367188 117.41632813 56.359375 117.96484375 C54.73246568 119.12805742 53.10618369 120.29214889 51.48046875 121.45703125 C50.64370605 122.05612305 49.80694336 122.65521484 48.94482422 123.27246094 C44.91195841 126.177498 40.91713341 129.13341042 36.921875 132.08984375 C28.44757616 138.35216247 19.94617729 144.57924789 11.35742188 150.68408203 C10.07202511 151.61764845 8.80691741 152.57983756 7.56445312 153.56982422 C4.85390714 155.68437666 2.77742288 157.02283665 -0.625 157.6640625 C-4.39643902 156.93072713 -6.86218335 155.21223863 -9.828125 152.90234375 C-11.06745645 151.97752694 -12.30705291 151.0530652 -13.546875 150.12890625 C-14.20042969 149.63422852 -14.85398438 149.13955078 -15.52734375 148.62988281 C-19.08717908 145.956616 -22.71272404 143.37465282 -26.328125 140.77734375 C-27.86106681 139.66981006 -29.39361502 138.56173138 -30.92578125 137.453125 C-34.01520367 135.21895542 -37.10635534 132.98721606 -40.19921875 130.7578125 C-43.93422209 128.06536676 -47.66598318 125.36848615 -51.39550781 122.66845703 C-52.86517338 121.60549757 -54.33589826 120.54400138 -55.80761719 119.48388672 C-57.92149617 117.96063659 -60.03148182 116.43214162 -62.140625 114.90234375 C-62.77830811 114.44456543 -63.41599121 113.98678711 -64.07299805 113.51513672 C-68.46405474 110.31798427 -68.46405474 110.31798427 -69.578125 108.08984375 C-70.22730361 100.548805 -70.21271376 92.93212841 -70.33381462 85.36576843 C-70.39028164 81.88880219 -70.47144268 78.416495 -70.61376953 74.94189453 C-71.58493455 50.62703866 -71.58493455 50.62703866 -66.92529297 45.20410156 C-63.79388348 42.46467757 -60.34269899 40.81777402 -56.578125 39.08984375 C-55.03690662 38.01998823 -53.51909346 36.91473796 -52.0390625 35.76171875 C-50.67843063 34.78587911 -49.31644413 33.81192555 -47.953125 32.83984375 C-42.40878188 28.86275561 -36.88850257 24.85715217 -31.40527344 20.79614258 C-28.25520269 18.46448519 -25.0958311 16.14560191 -21.93603516 13.82714844 C-20.34316572 12.65352461 -18.75438471 11.47433458 -17.16943359 10.29003906 C-14.85723823 8.5635621 -12.53188407 6.85638182 -10.203125 5.15234375 C-9.50759521 4.62568115 -8.81206543 4.09901855 -8.09545898 3.55639648 C-3.34123918 0.11643712 -3.34123918 0.11643712 0 0 Z " fill="#0E0F11" transform="translate(101.578125,19.91015625)"/>
<path d="M0 0 C1.32 0 2.64 0 4 0 C5.65215612 2.05916538 6.93461136 3.92941616 8.25 6.1875 C8.61351563 6.76564453 8.97703125 7.34378906 9.3515625 7.93945312 C11.44401422 11.42031736 12.45956082 13.93288672 12 18 C11.34 18 10.68 18 10 18 C8.4921875 15.8125 8.4921875 15.8125 6.875 13 C6.33617188 12.071875 5.79734375 11.14375 5.2421875 10.1875 C4.83226563 9.465625 4.42234375 8.74375 4 8 C3.67 11.3 3.34 14.6 3 18 C2.01 18 1.02 18 0 18 C0 12.06 0 6.12 0 0 Z " fill="#EDEEEE" transform="translate(80,98)"/>
<path d="M0 0 C0 0.66 0 1.32 0 2 C-1.98 2.99 -3.96 3.98 -6 5 C-2.7 5.33 0.6 5.66 4 6 C4 7.32 4 8.64 4 10 C-1.94 10 -7.88 10 -14 10 C-13 5 -13 5 -10.8203125 3.1640625 C-9.93085937 2.65617187 -9.04140625 2.14828125 -8.125 1.625 C-7.24070312 1.10164063 -6.35640625 0.57828125 -5.4453125 0.0390625 C-3 -1 -3 -1 0 0 Z " fill="#E7E7E7" transform="translate(113,114)"/>
<path d="M0 0 C1.32 0 2.64 0 4 0 C5.64704304 2.07984268 6.93514557 3.97578882 8.25 6.25 C8.79527344 7.12978516 8.79527344 7.12978516 9.3515625 8.02734375 C11.35193401 11.37382993 12 13.00407822 12 17 C7.38226158 15.46075386 6.42585496 12.13050979 4 8 C3.67 11.3 3.34 14.6 3 18 C2.01 18 1.02 18 0 18 C0 12.06 0 6.12 0 0 Z " fill="#EFEFEF" transform="translate(108,48)"/>
<path d="M0 0 C-4.75 3.875 -4.75 3.875 -7 5 C-3.37 5.33 0.26 5.66 4 6 C4 6.99 4 7.98 4 9 C-2.27 9 -8.54 9 -15 9 C-13.88417765 4.53671059 -13.38763758 4.11459924 -9.75 1.6875 C-8.98171875 1.15511719 -8.2134375 0.62273437 -7.421875 0.07421875 C-4.48673202 -1.22765918 -3.0220316 -0.91625426 0 0 Z " fill="#F0F0F0" transform="translate(83,130)"/>
<path d="M0 0 C-1.24546405 3.73639216 -2.63404953 4.18756513 -6 6 C-2.37 6.33 1.26 6.66 5 7 C5 7.99 5 8.98 5 10 C-1.27 10 -7.54 10 -14 10 C-12.87558865 5.50235461 -12.3803211 5.14338323 -8.6875 2.75 C-7.51767578 1.96882813 -7.51767578 1.96882813 -6.32421875 1.171875 C-4 0 -4 0 0 0 Z " fill="#EDEEEE" transform="translate(156,113)"/>
<path d="M0 0 C1.98 0 3.96 0 6 0 C9.44419134 9.41002278 9.44419134 9.41002278 9 14 C8.01 14 7.02 14 6 14 C5.34 10.7 4.68 7.4 4 4 C3.01 4.495 3.01 4.495 2 5 C1.31270746 7.11846285 1.31270746 7.11846285 0.875 9.5625 C0.70742187 10.38878906 0.53984375 11.21507812 0.3671875 12.06640625 C0.24601562 12.70449219 0.12484375 13.34257812 0 14 C-1.32 14 -2.64 14 -4 14 C-3.71572583 12.41532272 -3.42225182 10.8322943 -3.125 9.25 C-2.96257812 8.36828125 -2.80015625 7.4865625 -2.6328125 6.578125 C-2.03203736 4.13052256 -1.22002883 2.19400143 0 0 Z " fill="#D7D7D7" transform="translate(115,128)"/>
<path d="M0 0 C2.47923801 -0.02685095 4.9581884 -0.04676547 7.4375 -0.0625 C8.14455078 -0.07087891 8.85160156 -0.07925781 9.58007812 -0.08789062 C11.38693559 -0.09653588 13.19387603 -0.05220011 15 0 C16 1 16 1 16.1328125 3.46875 C16.13023438 4.4690625 16.12765625 5.469375 16.125 6.5 C16.12886719 8.00046875 16.12886719 8.00046875 16.1328125 9.53125 C16 12 16 12 15 13 C13.33382885 13.04063832 11.66611905 13.042721 10 13 C10 12.01 10 11.02 10 10 C10.66 10 11.32 10 12 10 C12 7.69 12 5.38 12 3 C8.04 3 4.08 3 0 3 C0 2.01 0 1.02 0 0 Z " fill="#F6F7F7" transform="translate(93,90)"/>
<path d="M0 0 C0.99 0 1.98 0 3 0 C3.02685095 2.47923801 3.04676547 4.9581884 3.0625 7.4375 C3.07087891 8.14455078 3.07925781 8.85160156 3.08789062 9.58007812 C3.09653588 11.38693559 3.05220011 13.19387603 3 15 C2 16 2 16 -0.46875 16.1328125 C-1.96921875 16.12894531 -1.96921875 16.12894531 -3.5 16.125 C-4.5003125 16.12757812 -5.500625 16.13015625 -6.53125 16.1328125 C-9 16 -9 16 -10 15 C-10.04063832 13.33382885 -10.042721 11.66611905 -10 10 C-9.01 10 -8.02 10 -7 10 C-7 10.66 -7 11.32 -7 12 C-4.69 12 -2.38 12 0 12 C0 8.04 0 4.08 0 0 Z " fill="#DCDCDD" transform="translate(98,60)"/>
<path d="M0 0 C0.98871094 -0.01417969 1.97742188 -0.02835937 2.99609375 -0.04296875 C5.5625 0.1875 5.5625 0.1875 7.5625 2.1875 C7.7578125 4.5703125 7.7578125 4.5703125 7.6875 7.3125 C7.66945312 8.22257812 7.65140625 9.13265625 7.6328125 10.0703125 C7.60960937 10.76898438 7.58640625 11.46765625 7.5625 12.1875 C6.2425 12.1875 4.9225 12.1875 3.5625 12.1875 C3.5625 9.5475 3.5625 6.9075 3.5625 4.1875 C1.2525 4.1875 -1.0575 4.1875 -3.4375 4.1875 C-3.4375 4.8475 -3.4375 5.5075 -3.4375 6.1875 C-4.4275 6.1875 -5.4175 6.1875 -6.4375 6.1875 C-6.480221 4.52138095 -6.47813832 2.85367115 -6.4375 1.1875 C-4.69900372 -0.55099628 -2.3588363 0.01533704 0 0 Z " fill="#D1D1D2" transform="translate(126.4375,111.8125)"/>
<path d="M0 0 C2.31 0 4.62 0 7 0 C7.67057887 1.7902061 8.3363469 3.58221489 9 5.375 C9.556875 6.87160156 9.556875 6.87160156 10.125 8.3984375 C11 11 11 11 11 13 C9.68 13 8.36 13 7 13 C6.34 9.7 5.68 6.4 5 3 C4.34 3 3.68 3 3 3 C2.34 6.3 1.68 9.6 1 13 C-0.32 12.67 -1.64 12.34 -3 12 C-2.01 8.04 -1.02 4.08 0 0 Z " fill="#E1E1E1" transform="translate(132,66)"/>
<path d="M0 0 C1.97909398 -0.02686553 3.95828971 -0.04633375 5.9375 -0.0625 C7.03964844 -0.07410156 8.14179688 -0.08570312 9.27734375 -0.09765625 C12 0 12 0 13 1 C13.07313567 3.53049402 13.09247527 6.03304837 13.0625 8.5625 C13.05798828 9.27341797 13.05347656 9.98433594 13.04882812 10.71679688 C13.03700864 12.47790013 13.01907263 14.23896036 13 16 C12.01 16 11.02 16 10 16 C10 11.71 10 7.42 10 3 C7.36 3 4.72 3 2 3 C2 3.66 2 4.32 2 5 C1.01 5 0.02 5 -1 5 C-0.67 3.35 -0.34 1.7 0 0 Z " fill="#E8E9E9" transform="translate(152,95)"/>
<path d="M0 0 C2.31 0 4.62 0 7 0 C10.42857143 8.42857143 10.42857143 8.42857143 10 13 C9.01 13 8.02 13 7 13 C6.34 9.7 5.68 6.4 5 3 C4.34 3 3.68 3 3 3 C2.87625 3.721875 2.7525 4.44375 2.625 5.1875 C2.0095069 7.95721894 1.11555626 10.3970354 0 13 C-0.99 13 -1.98 13 -3 13 C-2.01 8.71 -1.02 4.42 0 0 Z " fill="#E6E7E7" transform="translate(63,91)"/>
<path d="M0 0 C1.32 0 2.64 0 4 0 C4 0.99 4 1.98 4 3 C3.34 3 2.68 3 2 3 C2 5.64 2 8.28 2 11 C5.96 11 9.92 11 14 11 C14 11.99 14 12.98 14 14 C11.68756208 14.02685412 9.3750373 14.04632841 7.0625 14.0625 C5.77472656 14.07410156 4.48695312 14.08570312 3.16015625 14.09765625 C0 14 0 14 -1 13 C-1.09873816 11.00200428 -1.12971799 9.00042842 -1.125 7 C-1.12757812 5.906875 -1.13015625 4.81375 -1.1328125 3.6875 C-1 1 -1 1 0 0 Z " fill="#F7F7F7" transform="translate(38,110)"/>
<path d="M0 0 C1.2065625 0.0309375 1.2065625 0.0309375 2.4375 0.0625 C2.4375 1.0525 2.4375 2.0425 2.4375 3.0625 C1.4475 3.0625 0.4575 3.0625 -0.5625 3.0625 C-0.5625 5.3725 -0.5625 7.6825 -0.5625 10.0625 C3.3975 10.0625 7.3575 10.0625 11.4375 10.0625 C11.4375 11.0525 11.4375 12.0425 11.4375 13.0625 C9.12506208 13.08935412 6.8125373 13.10882841 4.5 13.125 C3.21222656 13.13660156 1.92445312 13.14820312 0.59765625 13.16015625 C-2.5625 13.0625 -2.5625 13.0625 -3.5625 12.0625 C-3.66101171 10.23134117 -3.69222629 8.39630067 -3.6875 6.5625 C-3.69007812 5.5621875 -3.69265625 4.561875 -3.6953125 3.53125 C-3.51328024 0.14759147 -3.39949759 0.08291458 0 0 Z " fill="#F1F1F1" transform="translate(118.5625,84.9375)"/>
<path d="M0 0 C4.95 0 9.9 0 15 0 C15 4.29 15 8.58 15 13 C13.35 13 11.7 13 10 13 C10 12.01 10 11.02 10 10 C10.66 10 11.32 10 12 10 C12 7.69 12 5.38 12 3 C8.04 3 4.08 3 0 3 C0 2.01 0 1.02 0 0 Z " fill="#EBEBEB" transform="translate(89,143)"/>
<path d="M0 0 C1.50046875 0.00386719 1.50046875 0.00386719 3.03125 0.0078125 C4.0315625 0.00523438 5.031875 0.00265625 6.0625 0 C8.53125 0.1328125 8.53125 0.1328125 9.53125 1.1328125 C9.60351502 2.98568752 9.6150622 4.84115128 9.59375 6.6953125 C9.58472656 7.70722656 9.57570313 8.71914063 9.56640625 9.76171875 C9.55480469 10.54417969 9.54320313 11.32664062 9.53125 12.1328125 C8.54125 12.1328125 7.55125 12.1328125 6.53125 12.1328125 C6.53125 9.1628125 6.53125 6.1928125 6.53125 3.1328125 C4.22125 3.1328125 1.91125 3.1328125 -0.46875 3.1328125 C-0.46875 4.1228125 -0.46875 5.1128125 -0.46875 6.1328125 C-1.78875 6.1328125 -3.10875 6.1328125 -4.46875 6.1328125 C-3.40082702 0.18295588 -3.40082702 0.18295588 0 0 Z " fill="#E5E6E6" transform="translate(97.46875,30.8671875)"/>
<path d="M0 0 C0 0.66 0 1.32 0 2 C-4.38461538 5 -4.38461538 5 -7 5 C-7 5.66 -7 6.32 -7 7 C-6.01 7 -5.02 7 -4 7 C-4 7.99 -4 8.98 -4 10 C-7.3 10 -10.6 10 -14 10 C-14 8.68 -14 7.36 -14 6 C-11.69921875 4.04296875 -11.69921875 4.04296875 -8.6875 2.1875 C-7.70136719 1.56230469 -6.71523437 0.93710938 -5.69921875 0.29296875 C-3 -1 -3 -1 0 0 Z " fill="#ECEDED" transform="translate(127,146)"/>
<path d="M0 0 C5.28 0 10.56 0 16 0 C16 1.32 16 2.64 16 4 C13.1875 6.3125 13.1875 6.3125 10 8 C9.01 7.67 8.02 7.34 7 7 C7 6.34 7 5.68 7 5 C7.66 5 8.32 5 9 5 C9 4.34 9 3.68 9 3 C6.03 3 3.06 3 0 3 C0 2.01 0 1.02 0 0 Z " fill="#EBEBEB" transform="translate(37,79)"/>
<path d="M0 0 C3.3 0 6.6 0 10 0 C10 1.32 10 2.64 10 4 C8.21385682 5.03046722 6.42089982 6.04913236 4.625 7.0625 C3.12839844 7.91521484 3.12839844 7.91521484 1.6015625 8.78515625 C0.74304688 9.18605469 -0.11546875 9.58695313 -1 10 C-1.66 9.67 -2.32 9.34 -3 9 C-3 8.34 -3 7.68 -3 7 C-2.505 6.54625 -2.01 6.0925 -1.5 5.625 C0.45218674 3.87871033 0.45218674 3.87871033 0 0 Z " fill="#DEDEDE" transform="translate(66,51)"/>
<path d="M0 0 C2 2 4 4 6 6 C6.639375 5.01 7.27875 4.02 7.9375 3 C8.618125 2.01 9.29875 1.02 10 0 C10.33 0 10.66 0 11 0 C11.50423019 5.29441695 10.18923033 7.81413519 7 12 C3.16674584 10.54600704 1.71720395 8.6919885 0 5 C-0.1875 2.1875 -0.1875 2.1875 0 0 Z " fill="#DADADA" transform="translate(58,118)"/>
<path d="M0 0 C2 2 4 4 6 6 C6.639375 5.01 7.27875 4.02 7.9375 3 C8.618125 2.01 9.29875 1.02 10 0 C10.33 0 10.66 0 11 0 C10.73781251 4.4571874 10.42288711 6.51522698 7.4375 9.9375 C6.633125 10.618125 5.82875 11.29875 5 12 C0.09846827 5.92560175 0.09846827 5.92560175 -0.3125 2.0625 C-0.209375 1.381875 -0.10625 0.70125 0 0 Z " fill="#DCDCDD" transform="translate(131,133)"/>
<path d="M0 0 C4.62 0 9.24 0 14 0 C14 1.32 14 2.64 14 4 C9.38 4 4.76 4 0 4 C0 2.68 0 1.36 0 0 Z " fill="#D7D8D8" transform="translate(58,109)"/>
<path d="M0 0 C4.62 0 9.24 0 14 0 C14 1.32 14 2.64 14 4 C9.38 4 4.76 4 0 4 C0 2.68 0 1.36 0 0 Z " fill="#C9CACA" transform="translate(83,82)"/>
<path d="M0 0 C1.32 0 2.64 0 4 0 C4 4.62 4 9.24 4 14 C2.68 14 1.36 14 0 14 C0 9.38 0 4.76 0 0 Z " fill="#D3D4D4" transform="translate(85,37)"/>
<path d="M0 0 C-1.65 1.65 -3.3 3.3 -5 5 C-4.01 5.639375 -3.02 6.27875 -2 6.9375 C-0.515 7.9584375 -0.515 7.9584375 1 9 C1 9.33 1 9.66 1 10 C-1.96844435 10.35338623 -4.15598218 10.5417682 -6.734375 8.88671875 C-8.20348819 7.64496832 -9.60704814 6.32662082 -11 5 C-7.17906575 1.05170128 -5.52310605 -0.1453449 0 0 Z " fill="#EAEAEA" transform="translate(71,77)"/>
<path d="M0 0 C1.37562854 1.28965176 2.70766393 2.62689293 4 4 C4 4.66 4 5.32 4 6 C4.66 6 5.32 6 6 6 C6.433125 4.7934375 6.433125 4.7934375 6.875 3.5625 C8 1 8 1 10 0 C9.25531915 7.74468085 9.25531915 7.74468085 6 11 C5.34 11 4.68 11 4 11 C1.63496961 8.00893216 0.08446819 5.97138418 -0.25 2.125 C-0.1675 1.42375 -0.085 0.7225 0 0 Z " fill="#EBEBEB" transform="translate(78,57)"/>
<path d="M0 0 C1.32 0 2.64 0 4 0 C4 3.96 4 7.92 4 12 C2.68 12 1.36 12 0 12 C0 8.04 0 4.08 0 0 Z " fill="#D1D1D2" transform="translate(92,126)"/>
<path d="M0 0 C4.95 0 9.9 0 15 0 C15 0.99 15 1.98 15 3 C10.05 3 5.1 3 0 3 C0 2.01 0 1.02 0 0 Z " fill="#E8E9E9" transform="translate(45,68)"/>
<path d="M0 0 C4.95 0 9.9 0 15 0 C15 0.99 15 1.98 15 3 C10.05 3 5.1 3 0 3 C0 2.01 0 1.02 0 0 Z " fill="#F1F1F1" transform="translate(126,56)"/>
<path d="M0 0 C3.63 0 7.26 0 11 0 C11 1.32 11 2.64 11 4 C7.37 4 3.74 4 0 4 C0 2.68 0 1.36 0 0 Z " fill="#C5C6C6" transform="translate(124,104)"/>
<path d="M0 0 C1.32 0 2.64 0 4 0 C4 3.63 4 7.26 4 11 C2.68 11 1.36 11 0 11 C0 7.37 0 3.74 0 0 Z " fill="#C5C6C6" transform="translate(148,63)"/>
<path d="M0 0 C4.62 0 9.24 0 14 0 C14 0.99 14 1.98 14 3 C9.38 3 4.76 3 0 3 C0 2.01 0 1.02 0 0 Z " fill="#FCFCFC" transform="translate(141,86)"/>
<path d="M0 0 C1.32 0 2.64 0 4 0 C4 3.3 4 6.6 4 10 C2.68 10 1.36 10 0 10 C0 6.7 0 3.4 0 0 Z " fill="#C9C9CA" transform="translate(108,73)"/>
<path d="M0 0 C4.29 0 8.58 0 13 0 C13 0.99 13 1.98 13 3 C8.71 3 4.42 3 0 3 C0 2.01 0 1.02 0 0 Z " fill="#EFEFEF" transform="translate(73,149)"/>
<path d="M0 0 C2.97 0 5.94 0 9 0 C9 1.32 9 2.64 9 4 C6.03 4 3.06 4 0 4 C0 2.68 0 1.36 0 0 Z " fill="#CFCFD0" transform="translate(114,42)"/>
<path d="M0 0 C1.32 0 2.64 0 4 0 C4 0.99 4 1.98 4 3 C3.34 3 2.68 3 2 3 C2 5.64 2 8.28 2 11 C1.01 10.67 0.02 10.34 -1 10 C-1.02689216 8.52093108 -1.04634621 7.04172517 -1.0625 5.5625 C-1.07410156 4.73878906 -1.08570313 3.91507812 -1.09765625 3.06640625 C-1 1 -1 1 0 0 Z " fill="#EEEEEE" transform="translate(38,110)"/>
<path d="M0 0 C0.99 0 1.98 0 3 0 C3 3.63 3 7.26 3 11 C2.01 11 1.02 11 0 11 C0 7.37 0 3.74 0 0 Z " fill="#FDFDFD" transform="translate(138,105)"/>
<path d="M0 0 C1.32 0 2.64 0 4 0 C4 2.64 4 5.28 4 8 C2.68 8 1.36 8 0 8 C0 5.36 0 2.72 0 0 Z " fill="#C6C6C7" transform="translate(94,101)"/>
<path d="M0 0 C0.33 0 0.66 0 1 0 C1.02687279 1.81242052 1.04633715 3.62495233 1.0625 5.4375 C1.07410156 6.44683594 1.08570312 7.45617187 1.09765625 8.49609375 C1 11 1 11 0 12 C-1.66617115 12.04063832 -3.33388095 12.042721 -5 12 C-5 11.01 -5 10.02 -5 9 C-4.34 9 -3.68 9 -3 9 C-3 6.69 -3 4.38 -3 2 C-2.67 2 -2.34 2 -2 2 C-1.67 4.31 -1.34 6.62 -1 9 C-0.67 6.03 -0.34 3.06 0 0 Z " fill="#BABBBB" transform="translate(108,91)"/>
<path d="M0 0 C1.32 0 2.64 0 4 0 C4 2.64 4 5.28 4 8 C2.68 7.67 1.36 7.34 0 7 C0 4.69 0 2.38 0 0 Z " fill="#D1D2D2" transform="translate(73,68)"/>
<path d="M0 0 C0.99 0 1.98 0 3 0 C3 3.3 3 6.6 3 10 C2.01 10 1.02 10 0 10 C0 6.7 0 3.4 0 0 Z " fill="#FCFCFC" transform="translate(52,95)"/>
<path d="M0 0 C1.32 0 2.64 0 4 0 C3.34 2.97 2.68 5.94 2 9 C0.68 8.67 -0.64 8.34 -2 8 C-1.34 5.36 -0.68 2.72 0 0 Z " fill="#D6D7D7" transform="translate(131,70)"/>
<path d="M0 0 C2.97 0 5.94 0 9 0 C9 0.99 9 1.98 9 3 C6.03 3 3.06 3 0 3 C0 2.01 0 1.02 0 0 Z " fill="#F2F2F2" transform="translate(54,136)"/>
<path d="M0 0 C1.32 0 2.64 0 4 0 C7 4.07142857 7 4.07142857 7 7 C5.68 7 4.36 7 3 7 C2.01 4.69 1.02 2.38 0 0 Z " fill="#E0E0E0" transform="translate(85,157)"/>
<path d="M0 0 C2.475 0.495 2.475 0.495 5 1 C5.66 2.98 6.32 4.96 7 7 C5.1875 6.875 5.1875 6.875 3 6 C1.25 2.9375 1.25 2.9375 0 0 Z " fill="#DEDEDE" transform="translate(156,70)"/>
<path d="M0 0 C1.875 0.3125 1.875 0.3125 4 1 C6 4 6 4 6 7 C5.01 7 4.02 7 3 7 C0 2.77777778 0 2.77777778 0 0 Z " fill="#E2E3E3" transform="translate(101,129)"/>
<path d="M0 0 C-1 3 -1 3 -4.0625 4.6875 C-5.031875 5.120625 -6.00125 5.55375 -7 6 C-7 4.68 -7 3.36 -7 2 C-4 0 -4 0 0 0 Z " fill="#E7E8E8" transform="translate(156,113)"/>
<path d="M0 0 C0.99 0 1.98 0 3 0 C3 2.31 3 4.62 3 7 C2.01 7 1.02 7 0 7 C0 4.69 0 2.38 0 0 Z " fill="#FDFDFD" transform="translate(99,164)"/>
<path d="M0 0 C1.67542976 0.28604898 3.34385343 0.61781233 5 1 C2.31158141 3.25245881 0.35358125 4.88213958 -3 6 C-1.125 1.125 -1.125 1.125 0 0 Z " fill="#E1E1E1" transform="translate(78,129)"/>
<path d="M0 0 C2.31 0 4.62 0 7 0 C7 0.99 7 1.98 7 3 C4.69 3 2.38 3 0 3 C0 2.01 0 1.02 0 0 Z " fill="#FDFDFD" transform="translate(76,90)"/>
<path d="M0 0 C1.32 0 2.64 0 4 0 C4.66 1.98 5.32 3.96 6 6 C4.125 5.8125 4.125 5.8125 2 5 C0.75 2.4375 0.75 2.4375 0 0 Z " fill="#F0F1F1" transform="translate(96,44)"/>
<path d="M0 0 C2.475 0.99 2.475 0.99 5 2 C5 3.65 5 5.3 5 7 C4.34 7 3.68 7 3 7 C0 2.61538462 0 2.61538462 0 0 Z " fill="#D1D1D2" transform="translate(87,109)"/>
<path d="M0 0 C0.99 0.33 1.98 0.66 3 1 C3 1.66 3 2.32 3 3 C1.02 3.99 -0.96 4.98 -3 6 C-3 4.68 -3 3.36 -3 2 C-2.01 1.34 -1.02 0.68 0 0 Z " fill="#DEDEDE" transform="translate(124,145)"/>
<path d="M0 0 C2.31 0 4.62 0 7 0 C5.02 0.99 5.02 0.99 3 2 C3 2.66 3 3.32 3 4 C2.01 4.33 1.02 4.66 0 5 C0 3.35 0 1.7 0 0 Z " fill="#EDEEEE" transform="translate(132,66)"/>
<path d="M0 0 C-2.36292656 2.52588702 -3.66462511 3.88820837 -7 5 C-7 3.68 -7 2.36 -7 1 C-4.53721199 -0.231394 -2.7204945 -0.07159196 0 0 Z " fill="#E5E5E5" transform="translate(71,77)"/>
<path d="M0 0 C0.99 0.33 1.98 0.66 3 1 C3 2.65 3 4.3 3 6 C2.01 6 1.02 6 0 6 C0 4.02 0 2.04 0 0 Z " fill="#DEDEDE" transform="translate(121,136)"/>
</svg>
