<?xml version="1.0" encoding="UTF-8"?>
<svg version="1.1" xmlns="http://www.w3.org/2000/svg" width="64" height="64">
<path d="M0 0 C21.12 0 42.24 0 64 0 C64 21.12 64 42.24 64 64 C42.88 64 21.76 64 0 64 C0 42.88 0 21.76 0 0 Z " fill="#000000" transform="translate(0,0)"/>
<path d="M0 0 C2.49407197 0.36822124 3.68510952 0.62085444 5.32446289 2.59472656 C5.7033667 3.26987305 6.08227051 3.94501953 6.47265625 4.640625 C6.89740234 5.38183594 7.32214844 6.12304688 7.75976562 6.88671875 C8.18966797 7.66660156 8.61957031 8.44648438 9.0625 9.25 C9.49626953 10.01441406 9.93003906 10.77882813 10.37695312 11.56640625 C11.21738093 13.04770822 12.05216276 14.5322311 12.88061523 16.02026367 C13.80964971 17.66334776 14.79277454 19.27570924 15.7890625 20.87890625 C17.26536079 23.46480938 17.3962839 25.06749917 17 28 C14.31512835 30.68487165 12.93523019 30.25769449 9.1875 30.265625 C8.02992187 30.26820312 6.87234375 30.27078125 5.6796875 30.2734375 C4.46539062 30.26570313 3.25109375 30.25796875 2 30.25 C0.78570312 30.25773437 -0.42859375 30.26546875 -1.6796875 30.2734375 C-3.41605469 30.26957031 -3.41605469 30.26957031 -5.1875 30.265625 C-6.78658203 30.26224121 -6.78658203 30.26224121 -8.41796875 30.25878906 C-11 30 -11 30 -13 28 C-13.00923218 21.04816558 -9.41879244 15.88322097 -5.9375 10.0625 C-5.08575195 8.6074707 -5.08575195 8.6074707 -4.21679688 7.12304688 C-2.82129906 4.74249178 -1.41558519 2.36864614 0 0 Z " fill="#FEFEFE" transform="translate(30,15)"/>
<path d="M0 0 C0.33 0 0.66 0 1 0 C1 5.94 1 11.88 1 18 C-1.97 18 -4.94 18 -8 18 C-8.33 17.34 -8.66 16.68 -9 16 C-8.28735352 14.30419922 -8.28735352 14.30419922 -7.12890625 12.3046875 C-6.71962891 11.58925781 -6.31035156 10.87382813 -5.88867188 10.13671875 C-5.45103516 9.39035156 -5.01339844 8.64398438 -4.5625 7.875 C-4.12873047 7.12089844 -3.69496094 6.36679687 -3.24804688 5.58984375 C-2.17251034 3.72242866 -1.08715861 1.86067303 0 0 Z " fill="#000000" transform="translate(29,24)"/>
<path d="M0 0 C2.37400774 3.16534365 4.29031746 6.11946502 6.1875 9.5625 C6.71730469 10.51253906 7.24710938 11.46257813 7.79296875 12.44140625 C9 15 9 15 9 18 C6.03 18 3.06 18 0 18 C0 12.06 0 6.12 0 0 Z " fill="#000000" transform="translate(34,24)"/>
</svg>
