<?xml version="1.0" encoding="UTF-8"?>
<svg version="1.1" xmlns="http://www.w3.org/2000/svg" width="128" height="128">
<path d="M0 0 C42.24 0 84.48 0 128 0 C128 42.24 128 84.48 128 128 C85.76 128 43.52 128 0 128 C0 85.76 0 43.52 0 0 Z " fill="#000000" transform="translate(0,0)"/>
<path d="M0 0 C12.18613885 7.42336221 19.62427199 17.1203973 23 31 C23.70965938 40.04124484 23.42987427 48.506978 20 57 C19.01 57 18.02 57 17 57 C17 55.35 17 53.7 17 52 C16.67 52.99 16.34 53.98 16 55 C15.34 55 14.68 55 14 55 C13.67 56.32 13.34 57.64 13 59 C12.21625 58.01 11.4325 57.02 10.625 56 C9.75875 55.01 8.8925 54.02 8 53 C7.34 53 6.68 53 6 53 C6 51.68 6 50.36 6 49 C6.66 49 7.32 49 8 49 C8 42.4 8 35.8 8 29 C7.34 29 6.68 29 6 29 C5.78085938 28.40832031 5.56171875 27.81664063 5.3359375 27.20703125 C3.0785062 21.5818061 0.96085201 18.49514573 -4 15 C-3.505 13.515 -3.505 13.515 -3 12 C-3.495 11.01 -3.495 11.01 -4 10 C-4.66 10.33 -5.32 10.66 -6 11 C-5.67 9.02 -5.34 7.04 -5 5 C-5.391875 5.66 -5.78375 6.32 -6.1875 7 C-8 9 -8 9 -10.625 9.1875 C-11.800625 9.0946875 -11.800625 9.0946875 -13 9 C-13.33 9.33 -13.66 9.66 -14 10 C-16.18639453 10.07258946 -18.37500389 10.08373783 -20.5625 10.0625 C-22.35880859 10.04896484 -22.35880859 10.04896484 -24.19140625 10.03515625 C-25.11824219 10.02355469 -26.04507813 10.01195312 -27 10 C-27 9.01 -27 8.02 -27 7 C-27.66 7.66 -28.32 8.32 -29 9 C-31.125 8.625 -31.125 8.625 -33 8 C-33 7.34 -33 6.68 -33 6 C-33.99 6 -34.98 6 -36 6 C-35.34 6.33 -34.68 6.66 -34 7 C-34 8.32 -34 9.64 -34 11 C-34.99 11 -35.98 11 -37 11 C-37 11.66 -37 12.32 -37 13 C-37.99 13 -38.98 13 -40 13 C-39.67 15.31 -39.34 17.62 -39 20 C-39.61875 20.4125 -40.2375 20.825 -40.875 21.25 C-43.09515515 23.07836307 -43.90343868 24.38512302 -45 27 C-45.33 27.66 -45.66 28.32 -46 29 C-46.66 29 -47.32 29 -48 29 C-48 35.6 -48 42.2 -48 49 C-47.34 49 -46.68 49 -46 49 C-46.103125 49.763125 -46.20625 50.52625 -46.3125 51.3125 C-46.28691334 54.18350657 -46.28691334 54.18350657 -43.8125 55.875 C-40.53250346 57.18699862 -39.2763098 57.26011915 -36 56 C-33.24737607 53.70614672 -32.14215904 52.42647711 -31 49 C-30.79898719 44.91273951 -30.68175239 41.93485234 -32 38.0625 C-33.62554057 33.084282 -33.50620447 28.2779201 -32.375 23.1875 C-30.34530541 19.95844043 -28.4269093 18.68230093 -25 17 C-19.27829238 15.93524614 -14.13507105 17.06479525 -8.94921875 19.58984375 C-4.76298945 22.61835833 -3.57137424 27.28587727 -2 32 C-1.22824036 39.00909574 -2.13651108 45.00448543 -6 51 C-9.6441774 53.4294516 -11.71241272 53.16179575 -16 53 C-14.68 53.33 -13.36 53.66 -12 54 C-12 54.66 -12 55.32 -12 56 C-8.04 56.66 -4.08 57.32 0 58 C-4.69090853 63.2772721 -9.1466355 66.55013787 -16.3125 67.38671875 C-23.76607801 67.61964306 -29.54834778 66.82320131 -36 63 C-36.59070014 64.94603274 -36.59070014 64.94603274 -37 67 C-35.15953612 68.84046388 -32.43142229 69.22401416 -30 70 C-30 71.98 -30 73.96 -30 76 C-29.773125 75.195625 -29.54625 74.39125 -29.3125 73.5625 C-28.879375 72.716875 -28.44625 71.87125 -28 71 C-25.375 70.1875 -25.375 70.1875 -23 70 C-23.33 69.34 -23.66 68.68 -24 68 C-21.36 68 -18.72 68 -16 68 C-16.495 69.485 -16.495 69.485 -17 71 C-16.01 71.33 -15.02 71.66 -14 72 C-14.33 72.66 -14.66 73.32 -15 74 C-14.01 74.495 -14.01 74.495 -13 75 C-12.505 73.02 -12.505 73.02 -12 71 C-9.525 70.505 -9.525 70.505 -7 70 C-6.67 70.99 -6.34 71.98 -6 73 C-6 72.01 -6 71.02 -6 70 C-6 69.34 -6 68.68 -6 68 C-5.34 68 -4.68 68 -4 68 C-3.67 69.32 -3.34 70.64 -3 72 C-1.68 72 -0.36 72 1 72 C0.505 68.04 0.505 68.04 0 64 C1.65 63.67 3.3 63.34 5 63 C4.67 62.34 4.34 61.68 4 61 C5.32 60.67 6.64 60.34 8 60 C8 59.01 8 58.02 8 57 C11.84777518 59.4824356 11.84777518 59.4824356 12.625 62.125 C12.810625 63.053125 12.810625 63.053125 13 64 C13.66 64.33 14.32 64.66 15 65 C8.71406903 73.59077233 -0.51374055 79.86997855 -11 82 C-25.56209417 83.57251348 -36.79316541 81.18794969 -48.5546875 72.140625 C-56.92393996 64.81418675 -62.34593282 54.32403133 -63.3359375 43.23828125 C-63.4752373 29.238651 -60.53689523 18.73770868 -51 8 C-37.64708798 -4.44719125 -16.453565 -9.06728969 0 0 Z " fill="#202022" transform="translate(84,25)"/>
<path d="M0 0 C0.33 0 0.66 0 1 0 C1 2.97 1 5.94 1 9 C2.93742341 9.02703381 4.87495479 9.04641125 6.8125 9.0625 C8.43091797 9.07990234 8.43091797 9.07990234 10.08203125 9.09765625 C13.06512169 9.13624766 13.06512169 9.13624766 16 8 C16.680625 7.87625 17.36125 7.7525 18.0625 7.625 C20.3836948 7.09783064 20.3836948 7.09783064 22 4 C23 7 23 7 23 9 C23.63474075 10.34882408 24.29848848 11.6846659 25 13 C24.34 13 23.68 13 23 13 C23 13.66 23 14.32 23 15 C24.32 15.66 25.64 16.32 27 17 C27 17.66 27 18.32 27 19 C27.99 19.33 28.98 19.66 30 20 C33 26.11111111 33 26.11111111 33 29 C33.66 29 34.32 29 35 29 C36.69423409 35.35337785 36.69423409 42.64662215 35 49 C34.34 49 33.68 49 33 49 C34.4748297 51.21224455 35.92103164 53.16964273 37.625 55.1875 C38.40875 56.115625 39.1925 57.04375 40 58 C40.33 57.01 40.66 56.02 41 55 C41.66 55 42.32 55 43 55 C43 54.34 43 53.68 43 53 C41.515 52.505 41.515 52.505 40 52 C41.32 52 42.64 52 44 52 C45.32087692 54.17556199 46.07112439 55.43100487 45.75 58 C45.5025 58.66 45.255 59.32 45 60 C44.5978125 61.0828125 44.5978125 61.0828125 44.1875 62.1875 C43 64 43 64 40.875 64.75 C40.25625 64.8325 39.6375 64.915 39 65 C39 64.34 39 63.68 39 63 C38.01 62.67 37.02 62.34 36 62 C36.99 62 37.98 62 39 62 C37.68 60.68 36.36 59.36 35 58 C35.33 58.99 35.66 59.98 36 61 C34.02 61.495 34.02 61.495 32 62 C32.33 62.66 32.66 63.32 33 64 C30 65 30 65 27 64 C27.495 67.96 27.495 67.96 28 72 C26.68 72 25.36 72 24 72 C23.67 70.68 23.34 69.36 23 68 C22.34 68 21.68 68 21 68 C21.66 69.65 22.32 71.3 23 73 C22.34 73 21.68 73 21 73 C20.67 72.34 20.34 71.68 20 71 C17.525 71.495 17.525 71.495 15 72 C14.505 73.485 14.505 73.485 14 75 C12.68 74.34 11.36 73.68 10 73 C10.66 72.67 11.32 72.34 12 72 C11.01 71.505 11.01 71.505 10 71 C10 70.34 10 69.68 10 69 C8.35 69 6.7 69 5 69 C4.67 69.66 4.34 70.32 4 71 C2.35 71 0.7 71 -1 71 C-1.33 73.31 -1.66 75.62 -2 78 C-4.1519437 74.77208445 -4.20086443 73.71599191 -4 70 C-6.31 69.34 -8.62 68.68 -11 68 C-10.34 66.35 -9.68 64.7 -9 63 C-7.80375 63.495 -6.6075 63.99 -5.375 64.5 C2.95146305 67.22740837 11.79300677 67.51713272 19.75 63.625 C22.22279907 62.22483894 23.98548459 61.01451541 26 59 C20.555 57.515 20.555 57.515 15 56 C15 55.34 15 54.68 15 54 C13.02 54.495 13.02 54.495 11 55 C11 54.34 11 53.68 11 53 C12.093125 52.855625 13.18625 52.71125 14.3125 52.5625 C17.93122987 52.11711896 17.93122987 52.11711896 21 51 C21.185625 49.88625 21.185625 49.88625 21.375 48.75 C22 46 22 46 23.015625 44.1171875 C25.55388074 38.65792316 24.35722181 32.16487189 22.5625 26.625 C20.91949942 22.94560434 19.43123373 21.17171395 15.8125 19.375 C11.21919909 17.78849804 6.8073391 17.09806021 2 18 C-2.28965295 20.01078659 -2.28965295 20.01078659 -4.64453125 23.8671875 C-5.6777778 30.06666681 -5.01330442 35.08591826 -3 41 C-2.33695526 46.38044499 -2.89958183 50.40282824 -6 55 C-9.90351668 58.10279531 -9.90351668 58.10279531 -13 57.8125 C-13.66 57.544375 -14.32 57.27625 -15 57 C-16.36125 56.4740625 -16.36125 56.4740625 -17.75 55.9375 C-18.4925 55.628125 -19.235 55.31875 -20 55 C-19.505 52.03 -19.505 52.03 -19 49 C-19.66 49 -20.32 49 -21 49 C-22.69423409 42.64662215 -22.69423409 35.35337785 -21 29 C-20.34 29 -19.68 29 -19 29 C-18.7525 27.88625 -18.505 26.7725 -18.25 25.625 C-17 22 -17 22 -14.875 20.5625 C-14.25625 20.376875 -13.6375 20.19125 -13 20 C-13 17.69 -13 15.38 -13 13 C-12.01 13 -11.02 13 -10 13 C-10 12.34 -10 11.68 -10 11 C-9.01 11 -8.02 11 -7 11 C-7 9.68 -7 8.36 -7 7 C-8.65 7 -10.3 7 -12 7 C-11.01 6.67 -10.02 6.34 -9 6 C-8.67 5.34 -8.34 4.68 -8 4 C-8 4.66 -8 5.32 -8 6 C-7.34 6 -6.68 6 -6 6 C-5.67 6.66 -5.34 7.32 -5 8 C-3.68 7.67 -2.36 7.34 -1 7 C-0.67 4.69 -0.34 2.38 0 0 Z " fill="#1C1D1E" transform="translate(57,25)"/>
<path d="M0 0 C4.41261512 1.62570031 6.89709298 3.19267685 9.0625 7.4375 C11.74411395 13.90565216 12.86113425 20.11907984 10.7734375 26.9609375 C9.09352401 30.92348154 8.22671078 32.93219282 4.5625 35.375 C2.23050612 35.45405064 -0.10582622 35.46298769 -2.4375 35.375 C-1.1175 35.705 0.2025 36.035 1.5625 36.375 C1.5625 37.035 1.5625 37.695 1.5625 38.375 C5.5225 39.035 9.4825 39.695 13.5625 40.375 C8.87390958 45.64966422 4.42604669 48.87766622 -2.71484375 49.796875 C-10.58290941 50.10442154 -17.01796491 49.16758023 -23.4375 44.375 C-25.20703125 42.203125 -25.20703125 42.203125 -26.4375 40.375 C-25.32375 39.818125 -24.21 39.26125 -23.0625 38.6875 C-20.62475022 37.2740976 -19.54321026 36.54045954 -18 34.125 C-17.00965689 29.28332257 -16.85278345 25.09260486 -18.4375 20.4375 C-20.06304057 15.459282 -19.94370447 10.6529201 -18.8125 5.5625 C-14.32805276 -1.57184789 -7.44501101 -1.90897718 0 0 Z " fill="#50A0C4" transform="translate(70.4375,42.625)"/>
<path d="M0 0 C9.11949765 7.01499819 14.48229754 16.12732207 17.1875 27.25 C17.89715938 36.29124484 17.61737427 44.756978 14.1875 53.25 C13.1975 53.25 12.2075 53.25 11.1875 53.25 C11.1875 51.6 11.1875 49.95 11.1875 48.25 C10.8575 49.24 10.5275 50.23 10.1875 51.25 C9.5275 51.25 8.8675 51.25 8.1875 51.25 C7.8575 52.57 7.5275 53.89 7.1875 55.25 C6.40375 54.26 5.62 53.27 4.8125 52.25 C3.94625 51.26 3.08 50.27 2.1875 49.25 C1.5275 49.25 0.8675 49.25 0.1875 49.25 C0.1875 47.93 0.1875 46.61 0.1875 45.25 C0.8475 45.25 1.5075 45.25 2.1875 45.25 C2.1875 38.65 2.1875 32.05 2.1875 25.25 C1.5275 25.25 0.8675 25.25 0.1875 25.25 C-0.03164062 24.65832031 -0.25078125 24.06664063 -0.4765625 23.45703125 C-2.7339938 17.8318061 -4.85164799 14.74514573 -9.8125 11.25 C-9.3175 9.765 -9.3175 9.765 -8.8125 8.25 C-9.3075 7.26 -9.3075 7.26 -9.8125 6.25 C-10.4725 6.58 -11.1325 6.91 -11.8125 7.25 C-11.4825 5.27 -11.1525 3.29 -10.8125 1.25 C-11.204375 1.91 -11.59625 2.57 -12 3.25 C-13.8125 5.25 -13.8125 5.25 -16.4375 5.4375 C-17.613125 5.3446875 -17.613125 5.3446875 -18.8125 5.25 C-19.1425 5.58 -19.4725 5.91 -19.8125 6.25 C-21.99889453 6.32258946 -24.18750389 6.33373783 -26.375 6.3125 C-28.17130859 6.29896484 -28.17130859 6.29896484 -30.00390625 6.28515625 C-30.93074219 6.27355469 -31.85757813 6.26195312 -32.8125 6.25 C-32.8125 5.26 -32.8125 4.27 -32.8125 3.25 C-33.4725 3.91 -34.1325 4.57 -34.8125 5.25 C-36.9375 4.875 -36.9375 4.875 -38.8125 4.25 C-38.8125 3.59 -38.8125 2.93 -38.8125 2.25 C-39.8025 2.25 -40.7925 2.25 -41.8125 2.25 C-41.1525 2.58 -40.4925 2.91 -39.8125 3.25 C-39.8125 4.57 -39.8125 5.89 -39.8125 7.25 C-41.98124252 6.74396008 -43.81217627 6.25016187 -45.8125 5.25 C-45.8125 4.26 -45.8125 3.27 -45.8125 2.25 C-46.4725 2.25 -47.1325 2.25 -47.8125 2.25 C-47.8125 2.91 -47.8125 3.57 -47.8125 4.25 C-48.8025 4.745 -48.8025 4.745 -49.8125 5.25 C-48.8225 6.24 -47.8325 7.23 -46.8125 8.25 C-47.1425 9.24 -47.4725 10.23 -47.8125 11.25 C-52.70677012 6.11698499 -52.70677012 6.11698499 -53.125 2.6875 C-51.00923847 -1.24177142 -47.72254862 -2.79497569 -43.8125 -4.75 C-43.18601562 -5.07355469 -42.55953125 -5.39710937 -41.9140625 -5.73046875 C-28.10825021 -11.54200634 -11.88411118 -8.09266552 0 0 Z " fill="#202221" transform="translate(89.8125,28.75)"/>
<path d="M0 0 C0 1.32 0 2.64 0 4 C2.97 4.495 2.97 4.495 6 5 C6 4.01 6 3.02 6 2 C8.64 4.31 11.28 6.62 14 9 C13.67 10.65 13.34 12.3 13 14 C13 14.33 13 14.66 13 15 C14.98 15.66 16.96 16.32 19 17 C19 18.98 19 20.96 19 23 C19.226875 22.195625 19.45375 21.39125 19.6875 20.5625 C20.120625 19.716875 20.55375 18.87125 21 18 C23.625 17.1875 23.625 17.1875 26 17 C25.67 16.34 25.34 15.68 25 15 C27.64 15 30.28 15 33 15 C32.67 15.99 32.34 16.98 32 18 C32.99 18.33 33.98 18.66 35 19 C34.67 19.66 34.34 20.32 34 21 C34.66 21.33 35.32 21.66 36 22 C36.33 20.68 36.66 19.36 37 18 C38.65 17.67 40.3 17.34 42 17 C42.495 18.485 42.495 18.485 43 20 C43 19.01 43 18.02 43 17 C43 16.34 43 15.68 43 15 C43.66 15 44.32 15 45 15 C45.495 16.98 45.495 16.98 46 19 C47.32 19 48.64 19 50 19 C49.505 15.04 49.505 15.04 49 11 C50.65 10.67 52.3 10.34 54 10 C53.505 9.01 53.505 9.01 53 8 C54.32 7.67 55.64 7.34 57 7 C57 6.01 57 5.02 57 4 C60.84777518 6.4824356 60.84777518 6.4824356 61.625 9.125 C61.74875 9.74375 61.8725 10.3625 62 11 C62.99 11.495 62.99 11.495 64 12 C57.71406903 20.59077233 48.48625945 26.86997855 38 29 C26.8437969 30.20472231 16.4966149 29.54146466 6.7109375 23.61328125 C6.14632812 23.08089844 5.58171875 22.54851562 5 22 C5 20.68 5 19.36 5 18 C2.32190489 14.87555571 -0.17035345 12.56022637 -4 11 C-4 8.69 -4 6.38 -4 4 C-4.66 4 -5.32 4 -6 4 C-6 3.34 -6 2.68 -6 2 C-2.25 0 -2.25 0 0 0 Z " fill="#201F26" transform="translate(35,78)"/>
<path d="M0 0 C-0.66 1.65 -1.32 3.3 -2 5 C-1.01 5.33 -0.02 5.66 1 6 C0.38722388 8.96175123 -0.25372522 10.38058783 -2 13 C-2.66 12.01 -3.32 11.02 -4 10 C-4.66 10.33 -5.32 10.66 -6 11 C-5.67 9.02 -5.34 7.04 -5 5 C-5.391875 5.66 -5.78375 6.32 -6.1875 7 C-8 9 -8 9 -10.625 9.1875 C-11.800625 9.0946875 -11.800625 9.0946875 -13 9 C-13.33 9.33 -13.66 9.66 -14 10 C-16.18639453 10.07258946 -18.37500389 10.08373783 -20.5625 10.0625 C-22.35880859 10.04896484 -22.35880859 10.04896484 -24.19140625 10.03515625 C-25.11824219 10.02355469 -26.04507813 10.01195312 -27 10 C-27 9.01 -27 8.02 -27 7 C-27.66 7.66 -28.32 8.32 -29 9 C-31.125 8.625 -31.125 8.625 -33 8 C-33 7.34 -33 6.68 -33 6 C-33.99 6 -34.98 6 -36 6 C-35.34 6.33 -34.68 6.66 -34 7 C-34 8.32 -34 9.64 -34 11 C-36.16874252 10.49396008 -37.99967627 10.00016187 -40 9 C-40 8.01 -40 7.02 -40 6 C-40.66 6 -41.32 6 -42 6 C-42 6.66 -42 7.32 -42 8 C-42.99 8.495 -42.99 8.495 -44 9 C-43.01 9.99 -42.02 10.98 -41 12 C-41.33 12.99 -41.66 13.98 -42 15 C-46.89427012 9.86698499 -46.89427012 9.86698499 -47.3125 6.4375 C-45.19673847 2.50822858 -41.91004862 0.95502431 -38 -1 C-37.37351562 -1.32355469 -36.74703125 -1.64710937 -36.1015625 -1.98046875 C-25.03191975 -6.64021955 -10.52263224 -5.19178331 0 0 Z " fill="#2E3B49" transform="translate(84,25)"/>
<path d="M0 0 C2 0 2 0 3.9375 1.875 C4.9584375 2.926875 4.9584375 2.926875 6 4 C8.81509993 6.2773501 8.81509993 6.2773501 12 6 C12 6.66 12 7.32 12 8 C17.94 8.99 17.94 8.99 24 10 C19.31140958 15.27466422 14.86354669 18.50266622 7.72265625 19.421875 C-0.14540941 19.72942154 -6.58046491 18.79258023 -13 14 C-14.76953125 11.828125 -14.76953125 11.828125 -16 10 C-14.2421875 9.0234375 -12.484375 8.046875 -10.7265625 7.0703125 C-8.8387386 5.99102726 -8.8387386 5.99102726 -7 4 C-6.67 5.65 -6.34 7.3 -6 9 C-5.01 8.34 -4.02 7.68 -3 7 C-3.99 6.01 -4.98 5.02 -6 4 C-5.67 3.01 -5.34 2.02 -5 1 C-4.34 1.99 -3.68 2.98 -3 4 C-2.54625 3.34 -2.0925 2.68 -1.625 2 C-1.08875 1.34 -0.5525 0.68 0 0 Z " fill="#6A82D9" transform="translate(60,73)"/>
<path d="M0 0 C4.83092224 2.47739602 4.83092224 2.47739602 5.6875 5.125 C5.8421875 6.053125 5.8421875 6.053125 6 7 C6.66 7.33 7.32 7.66 8 8 C1.70640327 16.60124887 -7.51285876 22.81517891 -18 25 C-23.00178993 25.40720985 -27.99165244 25.24332053 -33 25 C-33.33 24.01 -33.66 23.02 -34 22 C-33.01 21.67 -32.02 21.34 -31 21 C-30.67 20.01 -30.34 19.02 -30 18 C-26.625 17.875 -26.625 17.875 -23 18 C-22.34 18.66 -21.68 19.32 -21 20 C-20.34 18.02 -19.68 16.04 -19 14 C-17.35 13.67 -15.7 13.34 -14 13 C-13.67 13.99 -13.34 14.98 -13 16 C-13 15.01 -13 14.02 -13 13 C-13 12.34 -13 11.68 -13 11 C-12.34 11 -11.68 11 -11 11 C-10.67 12.32 -10.34 13.64 -10 15 C-8.68 15 -7.36 15 -6 15 C-6.33 12.36 -6.66 9.72 -7 7 C-5.35 6.67 -3.7 6.34 -2 6 C-2.33 5.34 -2.66 4.68 -3 4 C-1.68 3.67 -0.36 3.34 1 3 C0.505 1.515 0.505 1.515 0 0 Z " fill="#1D1E22" transform="translate(91,82)"/>
<path d="M0 0 C8.21237916 -0.57184845 14.46005743 0.73317769 22 4 C21.34 5.65 20.68 7.3 20 9 C20.99 9.33 21.98 9.66 23 10 C22.38722388 12.96175123 21.74627478 14.38058783 20 17 C19.34 16.01 18.68 15.02 18 14 C17.01 14.495 17.01 14.495 16 15 C16.33 13.02 16.66 11.04 17 9 C16.608125 9.66 16.21625 10.32 15.8125 11 C14 13 14 13 11.375 13.1875 C10.199375 13.0946875 10.199375 13.0946875 9 13 C8.67 13.33 8.34 13.66 8 14 C6.33382885 14.04063832 4.66611905 14.042721 3 14 C2.67 13.01 2.34 12.02 2 11 C2.66 11 3.32 11 4 11 C4 10.34 4 9.68 4 9 C4.99 8.67 5.98 8.34 7 8 C7.33 7.01 7.66 6.02 8 5 C6.35 4.67 4.7 4.34 3 4 C3 5.32 3 6.64 3 8 C2.34 8 1.68 8 1 8 C0.87625 7.195625 0.7525 6.39125 0.625 5.5625 C0.315625 4.2940625 0.315625 4.2940625 0 3 C-0.66 2.67 -1.32 2.34 -2 2 C-1.34 2 -0.68 2 0 2 C0 1.34 0 0.68 0 0 Z " fill="#1A1E1E" transform="translate(62,21)"/>
<path d="M0 0 C2.86040647 4.2906097 2.60239167 7.96313472 2 13 C0.52794783 17.8004854 -0.76188714 21.17459143 -5 24 C-9.20884445 24.5968343 -12.85784706 24.66857733 -16.5625 22.5 C-17.036875 22.005 -17.51125 21.51 -18 21 C-17.67 20.34 -17.34 19.68 -17 19 C-16.34 19.33 -15.68 19.66 -15 20 C-14.67 19.34 -14.34 18.68 -14 18 C-10.7 18 -7.4 18 -4 18 C-4 17.34 -4 16.68 -4 16 C-6.64 16 -9.28 16 -12 16 C-12 15.34 -12 14.68 -12 14 C-10.02 14 -8.04 14 -6 14 C-6.33 11.69 -6.66 9.38 -7 7 C-7.66 7 -8.32 7 -9 7 C-9 6.01 -9 5.02 -9 4 C-8.01 4 -7.02 4 -6 4 C-6 3.34 -6 2.68 -6 2 C-4.7934375 1.7834375 -4.7934375 1.7834375 -3.5625 1.5625 C-1.07896294 1.25864751 -1.07896294 1.25864751 0 0 Z " fill="#31868C" transform="translate(80,54)"/>
<path d="M0 0 C0.99 0 1.98 0 3 0 C3 0.66 3 1.32 3 2 C8.94 2.99 8.94 2.99 15 4 C10.92931627 8.5795192 6.22805828 12.49741949 -0.0703125 13.24609375 C-2 13.25 -2 13.25 -5 13 C-4.01 12.67 -3.02 12.34 -2 12 C-2 10.68 -2 9.36 -2 8 C-2.99 8.33 -3.98 8.66 -5 9 C-5.99 7.02 -6.98 5.04 -8 3 C-6.576875 2.814375 -6.576875 2.814375 -5.125 2.625 C-1.91332809 2.28312823 -1.91332809 2.28312823 0 0 Z " fill="#51A5C0" transform="translate(69,79)"/>
<path d="M0 0 C4.83092224 2.47739602 4.83092224 2.47739602 5.6875 5.125 C5.790625 5.74375 5.89375 6.3625 6 7 C6.66 7.33 7.32 7.66 8 8 C4.73181804 12.22941195 1.80848468 15.44229538 -3 18 C-5.1875 17.6875 -5.1875 17.6875 -7 17 C-7.99 17.33 -8.98 17.66 -10 18 C-13 13.25 -13 13.25 -13 11 C-12.34 11 -11.68 11 -11 11 C-10.67 12.32 -10.34 13.64 -10 15 C-8.68 15 -7.36 15 -6 15 C-6.33 12.36 -6.66 9.72 -7 7 C-5.35 6.67 -3.7 6.34 -2 6 C-2.33 5.34 -2.66 4.68 -3 4 C-1.68 3.67 -0.36 3.34 1 3 C0.67 2.01 0.34 1.02 0 0 Z " fill="#1C2423" transform="translate(91,82)"/>
<path d="M0 0 C0 1.32 0 2.64 0 4 C2.97 4.495 2.97 4.495 6 5 C6 4.01 6 3.02 6 2 C8.64 4.31 11.28 6.62 14 9 C13.67 10.65 13.34 12.3 13 14 C12.4225 13.649375 11.845 13.29875 11.25 12.9375 C9.07648452 11.82754596 9.07648452 11.82754596 6.875 12.1875 C4.63753682 12.95555364 4.63753682 12.95555364 3 16 C2.5875 15.54625 2.175 15.0925 1.75 14.625 C-0.06408095 12.94049626 -1.75285627 12.00734029 -4 11 C-4 8.69 -4 6.38 -4 4 C-4.66 4 -5.32 4 -6 4 C-6 3.34 -6 2.68 -6 2 C-2.25 0 -2.25 0 0 0 Z " fill="#1B1427" transform="translate(35,78)"/>
<path d="M0 0 C0.66 0.33 1.32 0.66 2 1 C1.01 3.31 0.02 5.62 -1 8 C-0.34 8.33 0.32 8.66 1 9 C1 10.32 1 11.64 1 13 C-1.16874252 12.49396008 -2.99967627 12.00016187 -5 11 C-5 10.01 -5 9.02 -5 8 C-5.66 8 -6.32 8 -7 8 C-7 8.66 -7 9.32 -7 10 C-7.99 10.495 -7.99 10.495 -9 11 C-8.01 11.99 -7.02 12.98 -6 14 C-6.33 14.99 -6.66 15.98 -7 17 C-11.89427012 11.86698499 -11.89427012 11.86698499 -12.3125 8.4375 C-9.8290179 3.82531896 -4.83214373 1.61071458 0 0 Z " fill="#2E2E3F" transform="translate(49,23)"/>
<path d="M0 0 C0.33 0.66 0.66 1.32 1 2 C1.99 2.66 2.98 3.32 4 4 C2.68 4.33 1.36 4.66 0 5 C0.33 5.66 0.66 6.32 1 7 C-2 8 -2 8 -5 7 C-4.67 9.64 -4.34 12.28 -4 15 C-5.32 15 -6.64 15 -8 15 C-8.33 13.68 -8.66 12.36 -9 11 C-9.99 11 -10.98 11 -12 11 C-12 10.01 -12 9.02 -12 8 C-11.34 8 -10.68 8 -10 8 C-10 7.01 -10 6.02 -10 5 C-3.375 1.125 -3.375 1.125 0 0 Z " fill="#1D2223" transform="translate(89,82)"/>
<path d="M0 0 C2.64 0 5.28 0 8 0 C7.67 0.99 7.34 1.98 7 3 C7.99 3.33 8.98 3.66 10 4 C9.67 4.66 9.34 5.32 9 6 C9.66 6.33 10.32 6.66 11 7 C10.67 7.99 10.34 8.98 10 10 C8.35 10 6.7 10 5 10 C5.99 9.34 6.98 8.68 8 8 C5.69 7.67 3.38 7.34 1 7 C1 7.99 1 8.98 1 10 C0.34 10 -0.32 10 -1 10 C-1.33 9.34 -1.66 8.68 -2 8 C-2.99 8.33 -3.98 8.66 -5 9 C-4.67 7.02 -4.34 5.04 -4 3 C-2.35 2.67 -0.7 2.34 1 2 C0.67 1.34 0.34 0.68 0 0 Z " fill="#38425B" transform="translate(60,93)"/>
<path d="M0 0 C2.0625 0.4375 2.0625 0.4375 4 1 C4 1.99 4 2.98 4 4 C4.66 4 5.32 4 6 4 C6 2.68 6 1.36 6 0 C7.65 0.33 9.3 0.66 11 1 C10.67 2.32 10.34 3.64 10 5 C9.01 5 8.02 5 7 5 C6.67 6.65 6.34 8.3 6 10 C3.36 10 0.72 10 -2 10 C-1.85950482 8.52031676 -1.71245174 7.04125484 -1.5625 5.5625 C-1.48128906 4.73878906 -1.40007813 3.91507813 -1.31640625 3.06640625 C-1 1 -1 1 0 0 Z " fill="#1F2628" transform="translate(59,25)"/>
<path d="M0 0 C0.66 0.33 1.32 0.66 2 1 C1.67 2.65 1.34 4.3 1 6 C1.66 5.67 2.32 5.34 3 5 C3.33 6.32 3.66 7.64 4 9 C3.34 9 2.68 9 2 9 C2 9.66 2 10.32 2 11 C1.40574219 10.79503906 0.81148437 10.59007812 0.19921875 10.37890625 C-6.20772565 8.29640022 -12.28237754 7.37036322 -19 7 C-19 6.67 -19 6.34 -19 6 C-18.24074219 5.93941406 -17.48148438 5.87882812 -16.69921875 5.81640625 C-15.70535156 5.73261719 -14.71148437 5.64882813 -13.6875 5.5625 C-12.70136719 5.48128906 -11.71523437 5.40007813 -10.69921875 5.31640625 C-7.90624401 5.08187441 -7.90624401 5.08187441 -5 4 C-3.948125 3.814375 -3.948125 3.814375 -2.875 3.625 C-2.25625 3.41875 -1.6375 3.2125 -1 3 C-0.67 2.01 -0.34 1.02 0 0 Z " fill="#111715" transform="translate(78,29)"/>
<path d="M0 0 C2.31 0.33 4.62 0.66 7 1 C7 1.66 7 2.32 7 3 C7.66 3 8.32 3 9 3 C9 5.64 9 8.28 9 11 C7.68 9.68 6.36 8.36 5 7 C5 8.65 5 10.3 5 12 C4.34 12 3.68 12 3 12 C2.67 12.66 2.34 13.32 2 14 C1.66179834 12.4176994 1.32964061 10.83410625 1 9.25 C0.814375 8.36828125 0.62875 7.4865625 0.4375 6.578125 C0 4 0 4 0 0 Z " fill="#6D82D8" transform="translate(52,60)"/>
<path d="M0 0 C0.33 0.66 0.66 1.32 1 2 C1.66 2 2.32 2 3 2 C3.33 2.66 3.66 3.32 4 4 C5.32 4 6.64 4 8 4 C8.33 5.32 8.66 6.64 9 8 C8.31292969 8.33773437 7.62585937 8.67546875 6.91796875 9.0234375 C6.01691406 9.46945313 5.11585937 9.91546875 4.1875 10.375 C3.29417969 10.81585938 2.40085937 11.25671875 1.48046875 11.7109375 C-1.14556381 13.01866905 -1.14556381 13.01866905 -4 15 C-4 13.02 -4 11.04 -4 9 C-3.01 9 -2.02 9 -1 9 C-1 8.34 -1 7.68 -1 7 C-0.01 7 0.98 7 2 7 C2 5.68 2 4.36 2 3 C0.35 3 -1.3 3 -3 3 C-2.01 2.67 -1.02 2.34 0 2 C0 1.34 0 0.68 0 0 Z " fill="#131419" transform="translate(48,29)"/>
<path d="M0 0 C1.33333333 2.66666667 2.66666667 5.33333333 4 8 C3.34 8 2.68 8 2 8 C1.87625 8.804375 1.7525 9.60875 1.625 10.4375 C1.41875 11.283125 1.2125 12.12875 1 13 C0.01 13.495 0.01 13.495 -1 14 C-2.1189783 8.65377036 -1.70806483 5.12419449 0 0 Z M-4 10 C-3.01 10.495 -3.01 10.495 -2 11 C-2 12.32 -2 13.64 -2 15 C-1.01 15.33 -0.02 15.66 1 16 C0.67 16.66 0.34 17.32 0 18 C-0.99 18 -1.98 18 -3 18 C-3.33 15.36 -3.66 12.72 -4 10 Z " fill="#5963B5" transform="translate(57,64)"/>
<path d="M0 0 C2.14553974 2.14553974 2.72963853 3.02602384 3 6 C1.26165827 8.25984425 -0.59701393 9.39800928 -3 11 C-4.65 9.35 -6.3 7.7 -8 6 C-6.20963542 5.0234375 -4.41927083 4.046875 -2.62890625 3.0703125 C-0.83381685 2.08589976 -0.83381685 2.08589976 0 0 Z " fill="#786FE1" transform="translate(52,77)"/>
<path d="M0 0 C4.75 0.875 4.75 0.875 7 2 C7.625 4.5625 7.625 4.5625 8 7 C7.01 7.33 6.02 7.66 5 8 C3.79117904 10.00016466 3.79117904 10.00016466 3 12 C2.01 12 1.02 12 0 12 C0.495 11.1028125 0.495 11.1028125 1 10.1875 C2.20787988 7.94613529 2.20787988 7.94613529 2 5 C1.34 4.67 0.68 4.34 0 4 C0 2.68 0 1.36 0 0 Z " fill="#1E2120" transform="translate(82,26)"/>
<path d="M0 0 C1.8125 0.125 1.8125 0.125 4 1 C5.75 4.0625 5.75 4.0625 7 7 C3.52674819 8.1577506 0.63932552 8.06866652 -3 8 C-2.01 7.67 -1.02 7.34 0 7 C0 5.68 0 4.36 0 3 C-0.99 3.33 -1.98 3.66 -3 4 C-3 3.01 -3 2.02 -3 1 C-2.01 1.33 -1.02 1.66 0 2 C0 1.34 0 0.68 0 0 Z " fill="#6192CD" transform="translate(67,84)"/>
<path d="M0 0 C1.66611905 -0.042721 3.33382885 -0.04063832 5 0 C6 1 6 1 6.0625 3.5625 C6.041875 4.366875 6.02125 5.17125 6 6 C3.625 6.625 3.625 6.625 1 7 C0.34 6.34 -0.32 5.68 -1 5 C-0.625 2.375 -0.625 2.375 0 0 Z " fill="#5F4DA1" transform="translate(48,94)"/>
<path d="M0 0 C1.2065625 0.0309375 1.2065625 0.0309375 2.4375 0.0625 C3.0625 2.4375 3.0625 2.4375 3.4375 5.0625 C2.7775 5.7225 2.1175 6.3825 1.4375 7.0625 C-0.6875 6.6875 -0.6875 6.6875 -2.5625 6.0625 C-2.94468767 4.40635343 -3.27645102 2.73792976 -3.5625 1.0625 C-2.5625 0.0625 -2.5625 0.0625 0 0 Z " fill="#37907C" transform="translate(74.5625,26.9375)"/>
<path d="M0 0 C1.67542976 0.28604898 3.34385343 0.61781233 5 1 C5 2.65 5 4.3 5 6 C2.625 6.625 2.625 6.625 0 7 C-0.66 6.34 -1.32 5.68 -2 5 C-1.46428571 1.46428571 -1.46428571 1.46428571 0 0 Z " fill="#47748D" transform="translate(73,95)"/>
<path d="M0 0 C2.29013653 3.4352048 2.17842973 4.985331 2 9 C1.34 8.34 0.68 7.68 0 7 C-2.57061311 6.35232207 -2.57061311 6.35232207 -5 6 C-5.33 4.68 -5.66 3.36 -6 2 C-4.7934375 1.7834375 -4.7934375 1.7834375 -3.5625 1.5625 C-1.07896294 1.25864751 -1.07896294 1.25864751 0 0 Z " fill="#38BFAF" transform="translate(80,54)"/>
<path d="M0 0 C1.98 0 3.96 0 6 0 C6.33 0.99 6.66 1.98 7 3 C5.68 3.33 4.36 3.66 3 4 C3 5.32 3 6.64 3 8 C2.34 8 1.68 8 1 8 C0.87625 7.195625 0.7525 6.39125 0.625 5.5625 C0.315625 4.2940625 0.315625 4.2940625 0 3 C-0.66 2.67 -1.32 2.34 -2 2 C-1.34 2 -0.68 2 0 2 C0 1.34 0 0.68 0 0 Z " fill="#1A1E1F" transform="translate(62,21)"/>
<path d="M0 0 C1.32 0.66 2.64 1.32 4 2 C3.38722388 4.96175123 2.74627478 6.38058783 1 9 C0.34 8.01 -0.32 7.02 -1 6 C-1.99 6.495 -1.99 6.495 -3 7 C-1.125 1.125 -1.125 1.125 0 0 Z " fill="#36B48A" transform="translate(81,29)"/>
<path d="M0 0 C1.175625 0.0825 2.35125 0.165 3.5625 0.25 C4.2225 1.24 4.8825 2.23 5.5625 3.25 C4.5625 4.25 4.5625 4.25 1.125 4.5 C-0.050625 4.4175 -1.22625 4.335 -2.4375 4.25 C-3.0975 3.26 -3.7575 2.27 -4.4375 1.25 C-3.4375 0.25 -3.4375 0.25 0 0 Z " fill="#53A5C1" transform="translate(70.4375,73.75)"/>
<path d="M0 0 C1.32 0 2.64 0 4 0 C3.47731534 2.76276177 2.89130413 5.3260876 2 8 C0.68 7.34 -0.64 6.68 -2 6 C-1.34 5.67 -0.68 5.34 0 5 C-0.66 4.67 -1.32 4.34 -2 4 C-1.34 2.68 -0.68 1.36 0 0 Z " fill="#1B1D21" transform="translate(69,92)"/>
<path d="M0 0 C0.66 0 1.32 0 2 0 C1.67 1.98 1.34 3.96 1 6 C-1.3125 6.25 -1.3125 6.25 -4 6 C-5.8125 4 -5.8125 4 -7 2 C-6.030625 1.855625 -5.06125 1.71125 -4.0625 1.5625 C-1.13513227 1.32437659 -1.13513227 1.32437659 0 0 Z " fill="#4873A3" transform="translate(68,80)"/>
<path d="M0 0 C0 1.32 0 2.64 0 4 C0.66 4 1.32 4 2 4 C2 4.66 2 5.32 2 6 C0.02 6.66 -1.96 7.32 -4 8 C-4 6.68 -4 5.36 -4 4 C-4.66 4 -5.32 4 -6 4 C-6 3.34 -6 2.68 -6 2 C-2.25 0 -2.25 0 0 0 Z " fill="#8849D6" transform="translate(35,78)"/>
<path d="M0 0 C8.24772597 1.31410309 8.24772597 1.31410309 11.125 3.9375 C12 6 12 6 11 9 C10.67 7.68 10.34 6.36 10 5 C9.34 5 8.68 5 8 5 C8 4.34 8 3.68 8 3 C7.05125 3.061875 6.1025 3.12375 5.125 3.1875 C4.09375 3.125625 3.0625 3.06375 2 3 C1.34 2.01 0.68 1.02 0 0 Z M-3 1 C0 2 0 2 0 2 Z " fill="#3EB3AC" transform="translate(67,43)"/>
<path d="M0 0 C0.99 0 1.98 0 3 0 C3 0.66 3 1.32 3 2 C3.66 2 4.32 2 5 2 C5 4.64 5 7.28 5 10 C3.5 8.75 3.5 8.75 2 7 C2 5.68 2 4.36 2 3 C1.34 3 0.68 3 0 3 C0 2.01 0 1.02 0 0 Z " fill="#638AD1" transform="translate(56,61)"/>
<path d="M0 0 C0.66 0 1.32 0 2 0 C2.33 0.66 2.66 1.32 3 2 C3.99 1.67 4.98 1.34 6 1 C5.67 2.98 5.34 4.96 5 7 C4.34 7 3.68 7 3 7 C2.67 6.34 2.34 5.68 2 5 C1.01 5.33 0.02 5.66 -1 6 C-0.67 4.02 -0.34 2.04 0 0 Z " fill="#7573CC" transform="translate(56,96)"/>
<path d="M0 0 C1.32 0.66 2.64 1.32 4 2 C3.34 3.32 2.68 4.64 2 6 C-0.97 5.505 -0.97 5.505 -4 5 C-2.68 3.35 -1.36 1.7 0 0 Z " fill="#7A45C4" transform="translate(37,84)"/>
<path d="M0 0 C3.26954202 0.56371414 4.82575883 1.49962266 7 4 C6.01 4.33 5.02 4.66 4 5 C3.01 6.485 3.01 6.485 2 8 C0.74335022 5.09399739 0 3.20395416 0 0 Z " fill="#41A99A" transform="translate(84,89)"/>
<path d="M0 0 C2.31 0.33 4.62 0.66 7 1 C7 1.66 7 2.32 7 3 C6.34 3 5.68 3 5 3 C4.67 4.32 4.34 5.64 4 7 C2 5.1875 2 5.1875 0 3 C0 2.01 0 1.02 0 0 Z " fill="#2ABA84" transform="translate(93,77)"/>
<path d="M0 0 C2.76223278 2.76223278 2.57856291 5.20706617 3 9 C0.36 9 -2.28 9 -5 9 C-5 8.34 -5 7.68 -5 7 C-3.02 7 -1.04 7 1 7 C0.67 4.69 0.34 2.38 0 0 Z " fill="#122B33" transform="translate(73,61)"/>
<path d="M0 0 C2.0625 0.4375 2.0625 0.4375 4 1 C3.67 2.32 3.34 3.64 3 5 C2.34 5 1.68 5 1 5 C1 5.66 1 6.32 1 7 C0.34 7 -0.32 7 -1 7 C-1.04254356 5.00045254 -1.04080783 2.99958364 -1 1 C-0.67 0.67 -0.34 0.34 0 0 Z " fill="#5192A5" transform="translate(59,25)"/>
<path d="M0 0 C2.5 1.375 2.5 1.375 5 3 C5 3.66 5 4.32 5 5 C3.68 5.33 2.36 5.66 1 6 C1.66 6.66 2.32 7.32 3 8 C2.01 8 1.02 8 0 8 C-1.6875 6 -1.6875 6 -3 4 C-1.68 3.67 -0.36 3.34 1 3 C0.67 2.01 0.34 1.02 0 0 Z " fill="#3EC9A2" transform="translate(91,82)"/>
<path d="M0 0 C0.33 0.66 0.66 1.32 1 2 C1.99 2.66 2.98 3.32 4 4 C1.36 4.66 -1.28 5.32 -4 6 C-4.66 4.68 -5.32 3.36 -6 2 C-4.02 1.34 -2.04 0.68 0 0 Z " fill="#253531" transform="translate(89,82)"/>
<path d="M0 0 C0 0.66 0 1.32 0 2 C0.66 2 1.32 2 2 2 C2.33 2.99 2.66 3.98 3 5 C2.01 5.33 1.02 5.66 0 6 C-1.65 4.35 -3.3 2.7 -5 1 C-3 0 -3 0 0 0 Z " fill="#8064E6" transform="translate(49,82)"/>
<path d="M0 0 C0 0.66 0 1.32 0 2 C0.66 2.33 1.32 2.66 2 3 C2 4.32 2 5.64 2 7 C-0.16874252 6.49396008 -1.99967627 6.00016187 -4 5 C-4 3.68 -4 2.36 -4 1 C-2 0 -2 0 0 0 Z " fill="#6A7BBD" transform="translate(48,29)"/>
<path d="M0 0 C1.65 0.33 3.3 0.66 5 1 C4.67 2.32 4.34 3.64 4 5 C3.01 5 2.02 5 1 5 C1 5.66 1 6.32 1 7 C0.34 6.67 -0.32 6.34 -1 6 C-0.67 4.02 -0.34 2.04 0 0 Z " fill="#449E99" transform="translate(65,25)"/>
<path d="M0 0 C2 0.25 2 0.25 4 1 C4.33 1.99 4.66 2.98 5 4 C4.34 4 3.68 4 3 4 C3 3.34 3 2.68 3 2 C2.01 2 1.02 2 0 2 C0.66 3.65 1.32 5.3 2 7 C0.68 6.67 -0.64 6.34 -2 6 C-1.125 1.125 -1.125 1.125 0 0 Z " fill="#8253D4" transform="translate(41,89)"/>
<path d="M0 0 C0.66 0 1.32 0 2 0 C2.66 0.66 3.32 1.32 4 2 C6.06874034 2.6425235 6.06874034 2.6425235 8 3 C5 5 5 5 2.4375 4.75 C0 4 0 4 -2 2 C-1.34 1.34 -0.68 0.68 0 0 Z " fill="#121918" transform="translate(82,85)"/>
<path d="M0 0 C1.33333333 2.66666667 2.66666667 5.33333333 4 8 C3.34 8 2.68 8 2 8 C1.67 8.99 1.34 9.98 1 11 C-0.98362069 8.08291076 -0.9876191 6.87619096 -0.625 3.25 C-0.41875 2.1775 -0.2125 1.105 0 0 Z " fill="#334276" transform="translate(57,64)"/>
<path d="M0 0 C3.01327566 1.50663783 3.61056618 4.03166411 5 7 C3.02 7.33 1.04 7.66 -1 8 C-0.67 7.34 -0.34 6.68 0 6 C0.039992 4.00039988 0.04346799 1.99952758 0 0 Z " fill="#5997C3" transform="translate(69,84)"/>
<path d="M0 0 C1.65 0 3.3 0 5 0 C4.34 0.66 3.68 1.32 3 2 C1.65705519 3.65893182 0.32255312 5.32476605 -1 7 C-1.66 6.67 -2.32 6.34 -3 6 C-2.01 4.02 -1.02 2.04 0 0 Z " fill="#101C14" transform="translate(85,32)"/>
<path d="M0 0 C0.763125 0.20625 1.52625 0.4125 2.3125 0.625 C1.3225 1.945 0.3325 3.265 -0.6875 4.625 C-3.6875 3.625 -3.6875 3.625 -5.6875 1.625 C-2.6875 -0.375 -2.6875 -0.375 0 0 Z " fill="#46B0B1" transform="translate(81.6875,82.375)"/>
<path d="M0 0 C3.875 0.875 3.875 0.875 5 2 C5.04092937 4.33297433 5.04241723 6.66705225 5 9 C3 5.25 3 5.25 3 3 C2.01 3 1.02 3 0 3 C0 2.01 0 1.02 0 0 Z " fill="#47B2B5" transform="translate(71,58)"/>
<path d="M0 0 C0.66 0 1.32 0 2 0 C2 0.66 2 1.32 2 2 C1.01 2.495 1.01 2.495 0 3 C-0.2165625 3.9590625 -0.2165625 3.9590625 -0.4375 4.9375 C-1 7 -1 7 -4 9 C-2.25 2.25 -2.25 2.25 0 0 Z " fill="#6689CD" transform="translate(55,44)"/>
<path d="M0 0 C0.66 0 1.32 0 2 0 C2.33 1.32 2.66 2.64 3 4 C4.32 4.33 5.64 4.66 7 5 C5.02 5.99 5.02 5.99 3 7 C0 2.25 0 2.25 0 0 Z " fill="#55A3AA" transform="translate(78,93)"/>
<path d="M0 0 C2 3 2 3 1.625 6.1875 C1.41875 7.115625 1.2125 8.04375 1 9 C-1 7 -1 7 -1.1875 3.9375 C-1 1 -1 1 0 0 Z " fill="#3CC4AF" transform="translate(80,60)"/>
<path d="M0 0 C1.65 0 3.3 0 5 0 C5 1.65 5 3.3 5 5 C4.34 4.34 3.68 3.68 3 3 C1.68 3 0.36 3 -1 3 C-0.67 2.01 -0.34 1.02 0 0 Z " fill="#318D7E" transform="translate(77,58)"/>
<path d="M0 0 C1.32 0.66 2.64 1.32 4 2 C3.01 2.495 3.01 2.495 2 3 C0.86649466 5.01669827 0.86649466 5.01669827 0 7 C-0.66 7 -1.32 7 -2 7 C-1.67 6.030625 -1.34 5.06125 -1 4.0625 C0.05173363 1.37850426 0.05173363 1.37850426 0 0 Z " fill="#33CF95" transform="translate(86,33)"/>
</svg>
