<?xml version="1.0" encoding="UTF-8"?>
<svg version="1.1" xmlns="http://www.w3.org/2000/svg" width="25" height="25">
<path d="M0 0 C2.31 0.66 4.62 1.32 7 2 C7 6.62 7 11.24 7 16 C3 16 3 16 1 15 C1 16.98 1 18.96 1 21 C-1.31 20.34 -3.62 19.68 -6 19 C-6 14.05 -6 9.1 -6 4 C-2 5 -2 5 -1 6 C-0.67 4.02 -0.34 2.04 0 0 Z M3 4 C2.67 6.64 2.34 9.28 2 12 C2.66 12 3.32 12 4 12 C4 9.36 4 6.72 4 4 C3.67 4 3.34 4 3 4 Z M-3 10 C-3 12.31 -3 14.62 -3 17 C-2.34 15.68 -1.68 14.36 -1 13 C-1.66 12.01 -2.32 11.02 -3 10 Z " fill="#00E789" transform="translate(12,2)"/>
</svg>
