<?xml version="1.0" encoding="UTF-8"?>
<svg version="1.1" xmlns="http://www.w3.org/2000/svg" width="200" height="200">
<path d="M0 0 C1.25296875 0.4125 2.5059375 0.825 3.796875 1.25 C28.74462541 10.06760046 48.21993996 28.50355897 60.08447266 52.01074219 C70.70512729 75.08730057 73.09510894 102.81586203 65 127 C64.5875 128.25296875 64.175 129.5059375 63.75 130.796875 C54.93239954 155.74462541 36.49644103 175.21993996 12.98925781 187.08447266 C-10.08730057 197.70512729 -37.81586203 200.09510894 -62 192 C-63.87945312 191.38125 -63.87945312 191.38125 -65.796875 190.75 C-90.74462541 181.93239954 -110.21993996 163.49644103 -122.08447266 139.98925781 C-132.70512729 116.91269943 -135.09510894 89.18413797 -127 65 C-126.5875 63.74703125 -126.175 62.4940625 -125.75 61.203125 C-116.93239954 36.25537459 -98.49644103 16.78006004 -74.98925781 4.91552734 C-51.91269943 -5.70512729 -24.18413797 -8.09510894 0 0 Z " fill="#FC9DBF" transform="translate(131,4)"/>
<path d="M0 0 C3.25100325 0.5806847 4.8607866 1.49531492 7.15698242 3.84814453 C7.74827438 4.44611847 8.33956635 5.04409241 8.94877625 5.66018677 C9.57798477 6.31115326 10.2071933 6.96211975 10.85546875 7.6328125 C11.51654129 8.30287323 12.17761383 8.97293396 12.85871887 9.66329956 C14.97558451 11.81019221 17.08233049 13.96664169 19.1875 16.125 C31.60991245 30.56737476 31.60991245 30.56737476 47.40625 39.89453125 C48.4271875 39.86746094 49.448125 39.84039062 50.5 39.8125 C52.03140625 39.82216797 52.03140625 39.82216797 53.59375 39.83203125 C64.19871867 37.24159739 71.72219221 27.60139222 79.0625 20.0625 C81.32033177 17.75787711 83.58262672 15.45770433 85.84765625 13.16015625 C86.65198593 12.34280502 86.65198593 12.34280502 87.4725647 11.50894165 C91.47558695 7.46604665 95.61509234 3.62943064 100 0 C104.55055896 3.81664752 108.84993642 7.74871535 113 12 C111.33392729 16.33389799 108.12471393 19.13295035 104.875 22.3125 C104.33101563 22.85583984 103.78703125 23.39917969 103.2265625 23.95898438 C100.26008691 26.89427039 97.22188846 29.69639725 94.0546875 32.4140625 C90.56501355 35.43221553 87.38915796 38.65666926 84.21557617 42.00170898 C75.57677518 51.05898375 66.7459491 58.93569927 53.5546875 59.29248047 C41.31391919 59.40822574 32.55477669 56.26953988 23.61621094 47.66845703 C21.5768338 45.65897304 19.55442147 43.63519496 17.56298828 41.578125 C14.86251421 38.79787462 12.0943181 36.17807947 9.15625 33.6484375 C4.72807721 29.82175818 0.61184724 25.7238417 -3.5 21.5625 C-4.22703125 20.83095703 -4.9540625 20.09941406 -5.703125 19.34570312 C-7.47109499 17.56610176 -9.23666378 15.78419082 -11 14 C-9.2766912 10.33541449 -7.12641789 7.7372537 -4.375 4.75 C-3.55773438 3.85796875 -2.74046875 2.9659375 -1.8984375 2.046875 C-1.27195312 1.37140625 -0.64546875 0.6959375 0 0 Z " fill="#2C2728" transform="translate(49,78)"/>
<path d="M0 0 C3.90285767 1.58667578 6.33520982 4.13350481 9.25 7.125 C10.14203125 8.03507812 11.0340625 8.94515625 11.953125 9.8828125 C12.62859375 10.58148438 13.3040625 11.28015625 14 12 C10.19524578 16.56030824 6.25030379 20.85089392 2 25 C-1.42280517 23.53417985 -3.56480483 21.61937745 -6.125 18.9375 C-8.77905 16.08428067 -8.77905 16.08428067 -12 14 C-10.41332422 10.09714233 -7.86649519 7.66479018 -4.875 4.75 C-3.96492188 3.85796875 -3.05484375 2.9659375 -2.1171875 2.046875 C-1.41851562 1.37140625 -0.71984375 0.6959375 0 0 Z " fill="#2A2626" transform="translate(99,64)"/>
</svg>
