<svg xmlns="http://www.w3.org/2000/svg" width="400" height="400" fill="none" xmlns:v="https://vecta.io/nano"><g clip-path="url(#A)"><path d="M200 400c110.457 0 200-89.543 200-200S310.457 0 200 0 0 89.543 0 200s89.543 200 200 200z" fill="#000"/><g fill="#fff"><path d="M81.629 154.252c-19.678 7.121-32.241 31.512-27.7 54.237 2.27 11.362 4.844 16.664 11.958 24.088C75.272 242.727 81.326 245 97.825 245c13.169 0 15.137-.455 22.403-4.393 13.471-7.576 20.888-19.544 22.553-36.512 2.119-23.33-11.352-45.146-31.181-50.751-7.72-2.121-22.554-1.667-29.971.908zm33.149 18.937c8.931 6.515 13.472 21.514 10.293 34.693-6.054 25.452-39.506 30.452-51.01 7.576-6.963-13.636-3.33-34.996 7.266-42.42 8.779-6.363 24.37-6.211 33.452.151zm172.438-18.53c-28.469 11.407-36.495 53.541-14.992 79.094 11.66 13.994 39.219 16.58 51.485 4.716l3.331-3.194.455 4.258c.453 3.803.908 4.107 8.025 4.107h7.572l.453-24.032.455-23.881h-21.351-21.2v7.606 7.605h12.871c13.931 0 14.386.304 10.448 8.518-2.725 5.627-12.417 11.256-19.685 11.256-17.414 0-27.862-12.321-27.862-32.247.152-22.055 14.234-34.68 33.465-30.117 7.42 1.825 14.992 8.366 14.992 13.081 0 1.521 2.27 2.13 9.085 2.13h8.934l-2.119-6.845c-4.695-15.971-16.355-24.033-35.586-24.641-8.48-.304-13.174.304-18.776 2.586zM156 198.924v45.923h7.541 7.541l.301-30.922.453-31.075 11.16 31.075L194.157 245l7.541-.459 7.541-.459 11.01-30.616 11.01-30.616.452 30.616.453 30.616 7.994.459L248 245l-.302-45.618-.452-45.617h-10.407-10.557l-12.065 33.984c-6.637 18.828-12.519 33.677-12.971 32.912-.603-.613-6.033-15.155-12.066-32.453s-11.764-32.299-12.518-33.371c-.905-1.072-5.127-1.837-11.01-1.837H156v45.924z"/></g><circle cx="200.5" cy="199.5" r="187.5" stroke="#fff" stroke-width="12"/></g><defs><clipPath id="A"><path fill="#fff" d="M0 0h400v400H0z"/></clipPath></defs></svg>