<svg xmlns="http://www.w3.org/2000/svg" width="320" height="320" fill="none" xmlns:v="https://vecta.io/nano"><rect width="320" height="320" rx="160" fill="#0564ff"/><g clip-path="url(#A)" fill="#fff"><path d="M270.932 130.207h-59.441v59.441h59.441v-59.441zM189.721 49l-29.72 51.477 51.477 29.721 29.721-51.478L189.721 49zm-81.219 140.609l-29.721 51.478 51.478 29.72 29.72-51.477-51.477-29.721z"/><path d="M108.509 130.207H49.068v59.441h59.441v-59.441zm102.983 59.449l-51.477 29.721 29.721 51.477 51.477-29.72-29.721-51.478z"/><path d="M130.275 49.025l-51.478 29.72 29.721 51.477 51.477-29.72-29.72-51.478z"/></g><defs><clipPath id="A"><path fill="#fff" transform="translate(49 49)" d="M0 0h222v222H0z"/></clipPath></defs></svg>