<svg xmlns="http://www.w3.org/2000/svg" width="256" height="256" fill="none" xmlns:v="https://vecta.io/nano"><g clip-path="url(#A)"><path d="M128 255c70.14 0 127-56.86 127-127S198.14 1 128 1 1 57.86 1 128s56.86 127 127 127z" fill="#fff"/><path d="M137.077 256H128C57.308 256 0 198.693 0 128S57.308 0 128 0s128 57.308 128 128c0 6.33-.46 12.556-1.35 18.647h-17.917c1.031-6.057 1.568-12.286 1.568-18.647 0-60.918-49.383-110.301-110.301-110.301S17.699 67.083 17.699 128 67.082 238.301 128 238.301h65.603A127.54 127.54 0 0 1 137.077 256zm81.047-36.661H128c-50.445 0-91.338-40.894-91.338-91.339S77.555 36.662 128 36.662 219.338 77.556 219.338 128a91.64 91.64 0 0 1-1.907 18.647H199.26c1.552-5.949 2.379-12.196 2.379-18.647 0-40.67-32.969-73.64-73.639-73.64S54.361 87.33 54.361 128s32.97 73.639 73.64 73.639h105.095a128.91 128.91 0 0 1-14.971 17.7zM128 182.677h116.117c2.681-5.683 4.957-11.595 6.791-17.699H128c-20.422 0-36.978-16.556-36.978-36.978S107.578 91.022 128 91.022s36.978 16.556 36.978 36.978c0 6.812-1.835 13.176-5.037 18.647h19.471A54.59 54.59 0 0 0 182.676 128c0-30.197-24.479-54.676-54.676-54.676S73.323 97.803 73.323 128s24.48 54.677 54.677 54.677z" fill="#000"/></g><defs><clipPath id="A"><path fill="#fff" d="M0 0h256v256H0z"/></clipPath></defs></svg>