<?xml version="1.0" encoding="UTF-8"?>
<svg version="1.1" xmlns="http://www.w3.org/2000/svg" width="202" height="194">
<path d="M0 0 C2.79187652 1.27487826 4.84087419 2.59140515 7.00658798 4.76049232 C7.57537886 5.32530111 8.14416975 5.89010989 8.73019671 6.4720341 C9.65238368 7.40295959 9.65238368 7.40295959 10.59320068 8.35269165 C11.25407031 9.01185243 11.91493994 9.67101321 12.59583592 10.35014856 C14.81313984 12.56415341 17.02321134 14.78523989 19.23339844 17.00634766 C20.81974564 18.59325888 22.40653313 20.17973008 23.99372864 21.76579285 C28.30569577 26.07718512 32.61145979 30.3947251 36.91615963 34.71337175 C41.41427212 39.22396935 45.91803227 43.7289205 50.42120361 48.23446655 C57.98015352 55.79893049 65.5355992 63.36687672 73.08837891 70.9375 C80.86761013 78.73509066 88.64894021 86.53057693 96.43310547 94.32324219 C96.91296086 94.80362303 97.39281626 95.28400387 97.88721272 95.77894171 C100.29453123 98.1888703 102.7018911 100.59875758 105.10927153 103.00862432 C125.07926344 122.99934796 145.04192316 142.99738128 165 163 C159.03461914 175.53265355 141.6783954 183.55644568 129.19921875 188.0078125 C102.22054548 196.37482472 74.60076827 194.44113116 49.56591797 181.28222656 C27.35679114 168.99948474 11.89760647 148.6877041 3.8125 124.875 C-0.62684844 109.31735559 -0.27491232 93.27541624 -0.1953125 77.24609375 C-0.19157285 75.00594714 -0.18873039 72.76579887 -0.18673706 70.52565002 C-0.17917551 64.68803223 -0.15959309 58.85051721 -0.1373291 53.01293945 C-0.11670769 47.03272898 -0.10770083 41.05250156 -0.09765625 35.07226562 C-0.07633865 23.38146577 -0.04229538 11.6907415 0 0 Z " fill="#48A2FE" transform="translate(1,1)"/>
<path d="M0 0 C19.00894836 15.12498297 32.50331603 36.57669895 36 60.875 C36.67814685 69.54151257 36.46791825 78.25238984 36.390625 86.9375 C36.38314948 89.42569521 36.37746276 91.91389637 36.37347412 94.40209961 C36.35832113 100.89909592 36.31912975 107.3957252 36.2746582 113.89257812 C36.23348085 120.54292498 36.21541547 127.19330895 36.1953125 133.84375 C36.1526244 146.85432401 36.08474674 159.86463656 36 172.875 C31.17581972 168.85175119 26.62761316 164.64471919 22.19789124 160.19314575 C21.55079254 159.54690148 20.90369385 158.90065721 20.2369861 158.23482978 C18.08668314 156.08616339 15.93995487 153.93396202 13.79321289 151.78173828 C12.24561692 150.23386002 10.69780028 148.68620236 9.14978027 147.13874817 C4.96007004 142.94932428 0.77344532 138.75682925 -3.41262507 134.56376886 C-7.79237894 130.17775423 -12.174974 125.79458045 -16.55726624 121.41110229 C-24.84991825 113.11534499 -33.14001832 104.81704235 -41.42920071 96.51781833 C-48.05398948 89.8851223 -54.67999984 83.25364857 -61.30688477 76.62304688 C-61.77400401 76.15566491 -62.24112325 75.68828295 -62.72239762 75.20673789 C-65.06598512 72.86184528 -67.40959447 70.5169745 -69.75321186 68.17211175 C-89.1719739 48.7429035 -108.58716416 29.31012933 -128 9.875 C-121.92008531 -2.94615927 -105.39744583 -10.14889794 -92.65234375 -14.875 C-61.02818738 -25.69824068 -26.5388643 -20.39057485 0 0 Z " fill="#47A2FE" transform="translate(166,21.125)"/>
</svg>
