<?xml version="1.0" encoding="UTF-8"?>
<svg version="1.1" xmlns="http://www.w3.org/2000/svg" width="128" height="128">
<path d="M0 0 C0 0.66 0 1.32 0 2 C0.7425 2.268125 1.485 2.53625 2.25 2.8125 C4.89061949 3.95276751 6.85552844 5.09380306 9 7 C9 7.66 9 8.32 9 9 C9.66 9 10.32 9 11 9 C12.73269068 11.19632661 14.34774462 13.39118668 15.9375 15.6875 C16.60168945 16.62625977 16.60168945 16.62625977 17.27929688 17.58398438 C27.96606209 32.79391103 30.38608275 50.20907135 27.33984375 68.44140625 C25.60522423 77.02847311 22.2559233 83.97318246 17 91 C16.43410156 91.80824219 15.86820312 92.61648437 15.28515625 93.44921875 C12.41233348 97.47398023 12.41233348 97.47398023 11 99 C10.34 99 9.68 99 9 99 C9 99.66 9 100.32 9 101 C6.88909882 102.72355231 4.78810601 104.31185776 2.5625 105.875 C1.92376953 106.32681641 1.28503906 106.77863281 0.62695312 107.24414062 C-4.031234 110.47337832 -8.64095233 113.0987611 -14 115 C-15.546875 115.5878125 -15.546875 115.5878125 -17.125 116.1875 C-33.53812129 120.8259908 -52.5519524 118.8062913 -67.5 110.75 C-69.01131067 109.85210366 -70.5163943 108.94296973 -72 108 C-72 107.34 -72 106.68 -72 106 C-72.71671875 105.77054687 -73.4334375 105.54109375 -74.171875 105.3046875 C-77.5700173 103.73703622 -79.62014676 101.77847468 -82.25 99.125 C-83.12140625 98.26132813 -83.9928125 97.39765625 -84.890625 96.5078125 C-86.85541161 94.17189953 -87.64061039 92.97187561 -88 90 C-88.66 90 -89.32 90 -90 90 C-99.70105579 72.51152135 -102.69343851 54.93893002 -98 35.28515625 C-96.47802753 30.28523889 -94.39470372 25.63796372 -92 21 C-91.34 21 -90.68 21 -90 21 C-90 20.01 -90 19.02 -90 18 C-89.34 18 -88.68 18 -88 18 C-87.77054688 17.28328125 -87.54109375 16.5665625 -87.3046875 15.828125 C-85.73703622 12.4299827 -83.77847468 10.37985324 -81.125 7.75 C-80.26132813 6.87859375 -79.39765625 6.0071875 -78.5078125 5.109375 C-76.17189953 3.14458839 -74.97187561 2.35938961 -72 2 C-72 1.34 -72 0.68 -72 0 C-48.93118638 -12.79653035 -22.83205913 -14.51190199 0 0 Z " fill="#4B2569" transform="translate(100,10)"/>
<path d="M0 0 C19.14 0 38.28 0 58 0 C58 0.66 58 1.32 58 2 C58.66 2 59.32 2 60 2 C60.83819158 3.62249941 61.6704116 5.24808497 62.5 6.875 C63.19609375 8.23238281 63.19609375 8.23238281 63.90625 9.6171875 C65 12 65 12 65 14 C57.08 14.495 57.08 14.495 49 15 C54.2203066 15.28917395 54.2203066 15.28917395 59.44116211 15.56811523 C64.88888889 15.88888889 64.88888889 15.88888889 66 17 C66.0989294 19.16480797 66.129711 21.33293785 66.125 23.5 C66.12886719 25.27890625 66.12886719 25.27890625 66.1328125 27.09375 C66 30 66 30 65 31 C63.58672053 31.15620555 62.1664541 31.25056173 60.74609375 31.31640625 C59.89208984 31.35830078 59.03808594 31.40019531 58.15820312 31.44335938 C56.81145508 31.50233398 56.81145508 31.50233398 55.4375 31.5625 C54.53580078 31.60568359 53.63410156 31.64886719 52.70507812 31.69335938 C50.47024844 31.79977984 48.23514514 31.90042481 46 32 C51.94 32.33 57.88 32.66 64 33 C65 36 65 36 64.00390625 38.48046875 C63.29041016 39.82044922 63.29041016 39.82044922 62.5625 41.1875 C61.85287109 42.53908203 61.85287109 42.53908203 61.12890625 43.91796875 C60.75636719 44.60503906 60.38382812 45.29210937 60 46 C59.34 46 58.68 46 58 46 C57.67 47.32 57.34 48.64 57 50 C56.34 50 55.68 50 55 50 C55 50.66 55 51.32 55 52 C53.02 52.495 53.02 52.495 51 53 C51 53.66 51 54.32 51 55 C40.95230143 61.41342462 29.86966359 62.47896477 18.1875 60.25 C13.97669233 59.18961413 10.64790685 57.32845118 7 55 C7 54.34 7 53.68 7 53 C5.68 52.67 4.36 52.34 3 52 C3 51.34 3 50.68 3 50 C2.34 50 1.68 50 1 50 C0.67 48.68 0.34 47.36 0 46 C-0.66 46 -1.32 46 -2 46 C-2.86627399 44.40233897 -3.71766465 42.79660056 -4.5625 41.1875 C-5.03816406 40.29417969 -5.51382812 39.40085938 -6.00390625 38.48046875 C-7 36 -7 36 -6 33 C-0.06 32.67 5.88 32.34 12 32 C9.96005859 31.90912109 9.96005859 31.90912109 7.87890625 31.81640625 C6.10675903 31.73201829 4.33462423 31.64736942 2.5625 31.5625 C1.66466797 31.52318359 0.76683594 31.48386719 -0.15820312 31.44335938 C-1.43920898 31.38051758 -1.43920898 31.38051758 -2.74609375 31.31640625 C-3.53685303 31.27974854 -4.3276123 31.24309082 -5.14233398 31.20532227 C-7 31 -7 31 -8 30 C-8.12537741 27.85692104 -8.17574364 25.70921114 -8.1875 23.5625 C-8.20167969 22.38816406 -8.21585938 21.21382812 -8.23046875 20.00390625 C-8 17 -8 17 -6 15 C-6.33 14.01 -6.66 13.02 -7 12 C-6.00390625 9.51953125 -6.00390625 9.51953125 -4.5625 6.8125 C-4.08941406 5.91144531 -3.61632812 5.01039062 -3.12890625 4.08203125 C-2.75636719 3.39496094 -2.38382813 2.70789062 -2 2 C-1.34 2 -0.68 2 0 2 C0 1.34 0 0.68 0 0 Z " fill="#5E298F" transform="translate(35,40)"/>
<path d="M0 0 C7.26 0 14.52 0 22 0 C22.33 0.99 22.66 1.98 23 3 C25.29534258 4.13545562 25.29534258 4.13545562 28 5 C28.721875 5.391875 29.44375 5.78375 30.1875 6.1875 C35.52032839 7.72809487 40.99767542 6.9177321 46 4.625 C48.22814819 2.97841841 48.22814819 2.97841841 50 0 C52.24658203 -0.34057617 52.24658203 -0.34057617 55.0078125 -0.29296875 C55.99394531 -0.28330078 56.98007813 -0.27363281 57.99609375 -0.26367188 C59.02863281 -0.23853516 60.06117187 -0.21339844 61.125 -0.1875 C62.68541016 -0.16719727 62.68541016 -0.16719727 64.27734375 -0.14648438 C66.85207627 -0.11105228 69.4257833 -0.06165221 72 0 C71.54738642 1.43931117 71.08767021 2.87638999 70.625 4.3125 C70.24214844 5.51326172 70.24214844 5.51326172 69.8515625 6.73828125 C69 9 69 9 67 12 C66.34 12 65.68 12 65 12 C64.67 13.32 64.34 14.64 64 16 C63.34 16 62.68 16 62 16 C62 16.66 62 17.32 62 18 C60.68 18.33 59.36 18.66 58 19 C58 19.66 58 20.32 58 21 C47.95230143 27.41342462 36.86966359 28.47896477 25.1875 26.25 C20.97669233 25.18961413 17.64790685 23.32845118 14 21 C14 20.34 14 19.68 14 19 C12.68 18.67 11.36 18.34 10 18 C10 17.34 10 16.68 10 16 C9.34 16 8.68 16 8 16 C7.67 14.68 7.34 13.36 7 12 C6.34 12 5.68 12 5 12 C4.16180842 10.37750059 3.3295884 8.75191503 2.5 7.125 C2.0359375 6.22007813 1.571875 5.31515625 1.09375 4.3828125 C0 2 0 2 0 0 Z " fill="#FDFDFD" transform="translate(28,74)"/>
<path d="M0 0 C19.14 0 38.28 0 58 0 C58 0.66 58 1.32 58 2 C58.66 2 59.32 2 60 2 C60.83819158 3.62249941 61.6704116 5.24808497 62.5 6.875 C63.19609375 8.23238281 63.19609375 8.23238281 63.90625 9.6171875 C65 12 65 12 65 14 C61.41694008 14.11627503 57.83436583 14.1872736 54.25 14.25 C53.23421875 14.28351562 52.2184375 14.31703125 51.171875 14.3515625 C43.59488451 14.45125974 43.59488451 14.45125974 40.4921875 12.09765625 C39.99976563 11.40542969 39.50734375 10.71320312 39 10 C33.23799209 6.65803541 28.47091064 6.40355823 22 8 C18.9499103 9.41435611 16.54473319 10.91053363 15 14 C7.74 14 0.48 14 -7 14 C-4 5 -4 5 -2 2 C-1.34 2 -0.68 2 0 2 C0 1.34 0 0.68 0 0 Z " fill="#FDFDFE" transform="translate(35,40)"/>
<path d="M0 0 C0 0.66 0 1.32 0 2 C0.99 2.33 1.98 2.66 3 3 C3 3.33 3 3.66 3 4 C-13.5 4 -30 4 -47 4 C-46.67 3.34 -46.34 2.68 -46 2 C-45.34 2 -44.68 2 -44 2 C-44 1.34 -44 0.68 -44 0 C-29.75638883 -7.62849531 -14.0374222 -8.96005673 0 0 Z " fill="#FBFAFC" transform="translate(86,33)"/>
<path d="M0 0 C1.18613892 0.00785522 1.18613892 0.00785522 2.39624023 0.01586914 C3.67724609 0.02070312 3.67724609 0.02070312 4.98413086 0.02563477 C5.88196289 0.03401367 6.77979492 0.04239258 7.70483398 0.05102539 C8.6065332 0.05553711 9.50823242 0.06004883 10.43725586 0.06469727 C12.67230988 0.07652295 14.90733 0.09445901 17.14233398 0.11352539 C17.14233398 5.06352539 17.14233398 10.01352539 17.14233398 15.11352539 C13.99644455 15.14036236 10.85078127 15.16028441 7.70483398 15.17602539 C6.35808594 15.18859375 6.35808594 15.18859375 4.98413086 15.20141602 C3.703125 15.20625 3.703125 15.20625 2.39624023 15.21118164 C1.60548096 15.21641846 0.81472168 15.22165527 0 15.22705078 C-1.85766602 15.11352539 -1.85766602 15.11352539 -2.85766602 14.11352539 C-2.95659541 11.94871742 -2.98737702 9.78058754 -2.98266602 7.61352539 C-2.98524414 6.42758789 -2.98782227 5.24165039 -2.99047852 4.01977539 C-2.81463967 0.17200781 -2.81463967 0.17200781 0 0 Z " fill="#F3EEF8" transform="translate(29.857666015625,55.886474609375)"/>
<path d="M0 0 C6.6 0 13.2 0 20 0 C20 4.29 20 8.58 20 13 C13.4 13 6.8 13 0 13 C0 8.71 0 4.42 0 0 Z " fill="#FDFDFD" transform="translate(81,57)"/>
<path d="M0 0 C0.96780396 -0.00960754 1.93560791 -0.01921509 2.93273926 -0.02911377 C3.97136108 -0.03336365 5.00998291 -0.03761353 6.08007812 -0.04199219 C7.15253784 -0.04769226 8.22499756 -0.05339233 9.32995605 -0.05926514 C11.59610001 -0.06870431 13.86225763 -0.07524482 16.12841797 -0.07910156 C19.59822344 -0.08883044 23.06744229 -0.11987397 26.53710938 -0.15136719 C28.73892877 -0.15789519 30.94075241 -0.16314646 33.14257812 -0.16699219 C34.18119995 -0.17933899 35.21982178 -0.19168579 36.28991699 -0.20440674 C37.25772095 -0.20140564 38.2255249 -0.19840454 39.22265625 -0.1953125 C40.49695496 -0.20078094 40.49695496 -0.20078094 41.79699707 -0.20635986 C44.11132812 0.16113281 44.11132812 0.16113281 48.11132812 3.16113281 C29.30132812 3.16113281 10.49132812 3.16113281 -8.88867188 3.16113281 C-8.88867188 2.50113281 -8.88867188 1.84113281 -8.88867188 1.16113281 C-5.86280918 0.28624628 -3.14551046 0.02528162 0 0 Z " fill="#7137A9" transform="translate(43.888671875,36.8388671875)"/>
<path d="M0 0 C0.33 0.99 0.66 1.98 1 3 C-2.27278139 5.18185426 -2.9351248 5.21432326 -6.66796875 4.9765625 C-7.56064453 4.925 -8.45332031 4.8734375 -9.37304688 4.8203125 C-10.30181641 4.75585938 -11.23058594 4.69140625 -12.1875 4.625 C-13.12787109 4.56828125 -14.06824219 4.5115625 -15.03710938 4.453125 C-17.35884909 4.31169923 -19.6794993 4.1602967 -22 4 C-19.60361368 1.60361368 -18.9607459 1.7264804 -15.68359375 1.62109375 C-14.41418945 1.56985352 -14.41418945 1.56985352 -13.11914062 1.51757812 C-12.23419922 1.49115234 -11.34925781 1.46472656 -10.4375 1.4375 C-8.68605308 1.37780601 -6.93473311 1.31421588 -5.18359375 1.24609375 C-4.40556396 1.22216553 -3.62753418 1.1982373 -2.82592773 1.17358398 C-0.98151351 1.19385111 -0.98151351 1.19385111 0 0 Z " fill="#29024A" transform="translate(101,69)"/>
<path d="M0 0 C6.93 0 13.86 0 21 0 C20.01 1.32 19.02 2.64 18 4 C18 3.34 18 2.68 18 2 C12.39 2 6.78 2 1 2 C0.67 1.34 0.34 0.68 0 0 Z " fill="#6520B4" transform="translate(29,54)"/>
</svg>
