<svg xmlns="http://www.w3.org/2000/svg" viewBox="0 0 512 512" xmlns:v="https://vecta.io/nano"><circle cx="256" cy="256" r="256"/><path d="M166.187 153.642h69.49v-40.453h-95.695a14.25 14.25 0 0 0-14.251 14.25v26.203h.014l-.005 81.825h-21.26v40.453h21.255l-.005 83.666h0v26.2a14.248 14.248 0 0 0 14.251 14.251h95.695v-40.451h-69.499zm241.332 122.277v-40.453h-21.176l.005-83.052h0v-26.2a14.248 14.248 0 0 0-14.251-14.251h-95.69v40.451h69.495l-.014 205.944h-69.481v40.453h95.69a14.25 14.25 0 0 0 14.251-14.251v-26.202h-.014l.005-82.439zm-92.578-21.45a59.454 59.454 0 1 0-59.451 59.451 59.52 59.52 0 0 0 59.451-59.451zm-59.451 21.45a21.45 21.45 0 1 1 21.45-21.45 21.476 21.476 0 0 1-21.45 21.45z" fill="#fff"/></svg>