<?xml version="1.0" encoding="UTF-8"?>
<svg version="1.1" xmlns="http://www.w3.org/2000/svg" width="200" height="200">
<path d="M0 0 C2.82045877 2.30263418 5.56336058 4.67903285 8.27832031 7.10449219 C11.1535235 9.666713 11.1535235 9.666713 14.50878906 11.77246094 C17.18066406 13.58496094 17.18066406 13.58496094 17.86816406 15.77246094 C18.02285156 16.66964844 18.02285156 16.66964844 18.18066406 17.58496094 C19.17066406 17.91496094 20.16066406 18.24496094 21.18066406 18.58496094 C21.51066406 19.57496094 21.84066406 20.56496094 22.18066406 21.58496094 C22.78394531 22.1740625 23.38722656 22.76316406 24.00878906 23.37011719 C26.61161449 26.02443736 28.16331475 28.75588582 29.93066406 32.02246094 C30.85105469 33.69115234 30.85105469 33.69115234 31.79003906 35.39355469 C33.13514811 38.48050439 33.50200878 40.27881822 33.18066406 43.58496094 C33.84066406 43.58496094 34.50066406 43.58496094 35.18066406 43.58496094 C39.64424539 56.0781479 40.85665551 67.12735329 40.55566406 80.33496094 C40.53909422 82.04587815 40.52476266 83.75681854 40.51269531 85.46777344 C40.3702832 98.68935945 40.3702832 98.68935945 39.18066406 103.58496094 C38.52066406 103.58496094 37.86066406 103.58496094 37.18066406 103.58496094 C37.18066406 105.89496094 37.18066406 108.20496094 37.18066406 110.58496094 C36.52066406 110.58496094 35.86066406 110.58496094 35.18066406 110.58496094 C34.52066406 113.88496094 33.86066406 117.18496094 33.18066406 120.58496094 C32.52066406 120.58496094 31.86066406 120.58496094 31.18066406 120.58496094 C31.10589844 121.42542969 31.03113281 122.26589844 30.95410156 123.13183594 C30.00301116 127.37811833 28.20111083 130.25695184 25.80566406 133.83496094 C25.40605469 134.45886719 25.00644531 135.08277344 24.59472656 135.72558594 C22.64505024 138.70140769 21.175244 140.58857431 18.18066406 142.58496094 C17.87128906 143.24496094 17.56191406 143.90496094 17.24316406 144.58496094 C16.18066406 146.58496094 16.18066406 146.58496094 14.29394531 147.52246094 C12.05773456 148.64676653 10.95666201 149.72870379 9.30566406 151.58496094 C-7.5531495 168.76523493 -31.7922615 178.47350042 -55.67724609 178.87768555 C-83.14890277 179.03784131 -105.50892955 171.73865683 -126.31811523 153.40429688 C-129.3378039 150.75277047 -132.36813316 148.62599484 -135.81933594 146.58496094 C-136.52084746 145.26962683 -137.18459519 143.93378502 -137.81933594 142.58496094 C-139.08777344 141.37839844 -139.08777344 141.37839844 -140.38183594 140.14746094 C-142.93144067 137.46710724 -143.50996572 136.19428011 -143.81933594 132.58496094 C-144.80933594 132.25496094 -145.79933594 131.92496094 -146.81933594 131.58496094 C-150.62798259 125.57828936 -153.21756631 119.65575401 -153.81933594 112.58496094 C-154.47933594 111.59496094 -155.13933594 110.60496094 -155.81933594 109.58496094 C-156.19144014 108.26192377 -156.52563767 106.92758159 -156.81933594 105.58496094 C-157.14933594 104.59496094 -157.47933594 103.60496094 -157.81933594 102.58496094 C-158.14933594 102.58496094 -158.47933594 102.58496094 -158.81933594 102.58496094 C-158.87027326 96.32278946 -158.90516878 90.06067193 -158.92919922 83.79833984 C-158.93922299 81.67038984 -158.95284555 79.5424535 -158.97021484 77.41455078 C-158.99462286 74.34631976 -159.00585555 71.27827173 -159.01464844 68.20996094 C-159.02497101 67.26693115 -159.03529358 66.32390137 -159.04592896 65.35229492 C-159.04686971 59.74541582 -158.41278806 54.96630789 -156.81933594 49.58496094 C-156.15933594 49.58496094 -155.49933594 49.58496094 -154.81933594 49.58496094 C-154.69816406 48.88628906 -154.57699219 48.18761719 -154.45214844 47.46777344 C-154.28457031 46.55769531 -154.11699219 45.64761719 -153.94433594 44.70996094 C-153.78191406 43.80503906 -153.61949219 42.90011719 -153.45214844 41.96777344 C-152.81933594 39.58496094 -152.81933594 39.58496094 -150.81933594 37.58496094 C-149.71378412 35.63398714 -148.89319267 33.94732054 -148.44433594 31.74511719 C-147.67559861 29.08816878 -146.42875814 27.18569548 -144.88183594 24.89746094 C-144.3571875 24.10984375 -143.83253906 23.32222656 -143.29199219 22.51074219 C-141.81933594 20.58496094 -141.81933594 20.58496094 -139.81933594 19.58496094 C-139.48933594 18.59496094 -139.15933594 17.60496094 -138.81933594 16.58496094 C-138.25988281 16.318125 -137.70042969 16.05128906 -137.12402344 15.77636719 C-133.75454168 14.03451645 -131.50732154 11.25605376 -128.94433594 8.52246094 C-95.59880991 -25.77011212 -37.69548479 -29.31871039 0 0 Z M34.18066406 46.58496094 C35.18066406 48.58496094 35.18066406 48.58496094 35.18066406 48.58496094 Z M35.18066406 49.58496094 C36.18066406 51.58496094 36.18066406 51.58496094 36.18066406 51.58496094 Z M36.18066406 52.58496094 C37.18066406 55.58496094 37.18066406 55.58496094 37.18066406 55.58496094 Z M-156.81933594 53.58496094 C-155.81933594 56.58496094 -155.81933594 56.58496094 -155.81933594 56.58496094 Z M37.18066406 56.58496094 C38.18066406 59.58496094 38.18066406 59.58496094 38.18066406 59.58496094 Z M-157.81933594 57.58496094 C-156.81933594 61.58496094 -156.81933594 61.58496094 -156.81933594 61.58496094 Z M38.18066406 60.58496094 C38.18066406 62.23496094 38.18066406 63.88496094 38.18066406 65.58496094 C38.51066406 65.58496094 38.84066406 65.58496094 39.18066406 65.58496094 C39.18066406 63.93496094 39.18066406 62.28496094 39.18066406 60.58496094 C38.85066406 60.58496094 38.52066406 60.58496094 38.18066406 60.58496094 Z M38.18066406 93.58496094 C38.18066406 95.23496094 38.18066406 96.88496094 38.18066406 98.58496094 C38.51066406 98.58496094 38.84066406 98.58496094 39.18066406 98.58496094 C39.18066406 96.93496094 39.18066406 95.28496094 39.18066406 93.58496094 C38.85066406 93.58496094 38.52066406 93.58496094 38.18066406 93.58496094 Z " fill="#1A154E" transform="translate(158.8193359375,19.4150390625)"/>
<path d="M0 0 C11.22750997 4.69621682 21.78149518 12.4698712 27.53515625 23.3046875 C28.80577376 27.63973549 28.72837929 29.67134531 27.41015625 33.9921875 C25.12276492 38.03324551 22.66329721 40.24061702 18.53515625 42.3046875 C15.86279415 42.43884222 13.21265137 42.34787291 10.53515625 42.3046875 C10.8310127 46.84115308 11.75065737 49.97798387 13.91015625 53.9921875 C21.00785864 67.77613126 21.85443339 84.84646007 17.97265625 99.8046875 C11.99790548 117.35551789 1.23230517 130.83165408 -15.078125 139.73046875 C-31.51518021 147.79437862 -50.24231197 148.87817434 -67.55810547 143.02783203 C-83.78401179 136.8740376 -96.51785965 124.83469677 -103.92578125 109.2265625 C-110.61514914 93.83714966 -112.65073372 75.29044618 -106.46484375 59.3046875 C-99.5211417 42.0344542 -87.39086182 30.05349439 -70.84765625 21.6640625 C-62.24702724 18.20792059 -54.27795369 16.79879367 -45.02734375 16.9296875 C-44.02759521 16.93548828 -43.02784668 16.94128906 -41.99780273 16.94726562 C-34.78825536 17.0739238 -28.2886874 17.83929883 -21.46484375 20.3046875 C-21.95984375 18.8196875 -21.95984375 18.8196875 -22.46484375 17.3046875 C-22.9165395 10.41632733 -22.00102255 6.41355184 -17.52734375 0.9296875 C-12.06735686 -1.9674484 -5.88817289 -1.66100598 0 0 Z " fill="#A792C4" transform="translate(143.46484375,26.6953125)"/>
<path d="M0 0 C2.9029781 4.35446715 2.53154455 7.88388371 2 13 C-1.37799729 29.62128212 -9.11592013 41.88168033 -22.61328125 51.94921875 C-35.7668723 60.27772855 -50.58233962 62.9029434 -65.890625 60.3515625 C-82.21822976 56.42084284 -94.90733911 47.52533946 -103.9375 33.25 C-108.49593046 24.81252055 -113.63632339 11.69236542 -111 2 C-108.53341905 -0.35839757 -106.37529184 -1.56696607 -103 -2 C-100.46269711 -1.91071919 -97.96576246 -1.76209967 -95.4375 -1.5625 C-92.29246049 -1.36092971 -89.14647062 -1.17774151 -86 -1 C-85.2363916 -0.95633301 -84.4727832 -0.91266602 -83.68603516 -0.86767578 C-72.08418624 -0.2916624 -61.9137437 -1.77791653 -50.70703125 -4.80859375 C-35.26329506 -8.92128529 -13.83665002 -9.0361796 0 0 Z " fill="#8801D5" transform="translate(153,103)"/>
<path d="M0 0 C-1.32 0.66 -2.64 1.32 -4 2 C-4 2.66 -4 3.32 -4 4 C-1.69 4 0.62 4 3 4 C3 4.66 3 5.32 3 6 C6.465 5.505 6.465 5.505 10 5 C10.495 6.485 10.495 6.485 11 8 C9.625 9.5 9.625 9.5 8 11 C7.34 11 6.68 11 6 11 C6 12.32 6 13.64 6 15 C0.66167718 16.89302228 -4.57861402 18.44048408 -10.15234375 19.47265625 C-12.22685921 19.90293453 -12.22685921 19.90293453 -14 22 C-15.6396875 22.2165625 -15.6396875 22.2165625 -17.3125 22.4375 C-20.90397499 22.74209102 -20.90397499 22.74209102 -23.25 24.375 C-27.53175765 26.90512952 -32.2018094 27.80198826 -37 29 C-38.05832031 29.28230469 -39.11664063 29.56460938 -40.20703125 29.85546875 C-41.25246094 30.13003906 -42.29789063 30.40460938 -43.375 30.6875 C-44.80972656 31.06455078 -44.80972656 31.06455078 -46.2734375 31.44921875 C-48.93167963 31.98619889 -51.29707304 32.10320267 -54 32 C-54.495 32.99 -54.495 32.99 -55 34 C-55.78375 33.814375 -56.5675 33.62875 -57.375 33.4375 C-59.97089775 32.74037734 -59.97089775 32.74037734 -62 34 C-64.3329866 34.04022391 -66.66706666 34.04320247 -69 34 C-68.01 33.34 -67.02 32.68 -66 32 C-67.22976562 31.80083984 -67.22976562 31.80083984 -68.484375 31.59765625 C-69.56203125 31.42105469 -70.6396875 31.24445313 -71.75 31.0625 C-72.81734375 30.88847656 -73.8846875 30.71445313 -74.984375 30.53515625 C-78.45449918 29.91934406 -81.65799743 29.11400086 -85 28 C-85.59485136 34.74164873 -82.07844614 39.00061441 -78 44 C-77.29114106 45.31138904 -76.60543548 46.63777017 -76 48 C-75.34 48 -74.68 48 -74 48 C-74 48.66 -74 49.32 -74 50 C-72.515 50.495 -72.515 50.495 -71 51 C-70 52 -69 53 -68 54 C-65.97774127 55.10898059 -63.93201964 56.02913444 -61.8125 56.9375 C-60 58 -60 58 -59 61 C-54.2699378 62.8621508 -49.03757758 63.25833731 -44 63 C-44 63.66 -44 64.32 -44 65 C-41.36 65 -38.72 65 -36 65 C-36 65.33 -36 65.66 -36 66 C-52.51414325 66.91603876 -67.08564144 63.34754758 -79.94140625 52.5234375 C-91.77415118 41.35075045 -98.75879557 27.65213677 -99.5 11.25 C-99.53125 8.953125 -99.53125 8.953125 -99 7 C-96.53341905 4.64160243 -94.37529184 3.43303393 -91 3 C-88.46269711 3.08928081 -85.96576246 3.23790033 -83.4375 3.4375 C-80.29246049 3.63907029 -77.14647062 3.82225849 -74 4 C-73.2363916 4.04366699 -72.4727832 4.08733398 -71.68603516 4.13232422 C-60.08418624 4.7083376 -49.9137437 3.22208347 -38.70703125 0.19140625 C-25.82618027 -3.23608831 -12.99289904 -2.38167707 0 0 Z " fill="#5801AA" transform="translate(141,98)"/>
<path d="M0 0 C11.22750997 4.69621682 21.78149518 12.4698712 27.53515625 23.3046875 C28.80577376 27.63973549 28.72837929 29.67134531 27.41015625 33.9921875 C25.12276492 38.03324551 22.66329721 40.24061702 18.53515625 42.3046875 C15.86279415 42.43884222 13.21265137 42.34787291 10.53515625 42.3046875 C10.8310127 46.84115308 11.75065737 49.97798387 13.91015625 53.9921875 C21.00785864 67.77613126 21.85443339 84.84646007 17.97265625 99.8046875 C11.99790548 117.35551789 1.23230517 130.83165408 -15.078125 139.73046875 C-31.51518021 147.79437862 -50.24231197 148.87817434 -67.55810547 143.02783203 C-83.78401179 136.8740376 -96.51785965 124.83469677 -103.92578125 109.2265625 C-110.61514914 93.83714966 -112.65073372 75.29044618 -106.46484375 59.3046875 C-99.5211417 42.0344542 -87.39086182 30.05349439 -70.84765625 21.6640625 C-62.24702724 18.20792059 -54.27795369 16.79879367 -45.02734375 16.9296875 C-44.02759521 16.93548828 -43.02784668 16.94128906 -41.99780273 16.94726562 C-34.78825536 17.0739238 -28.2886874 17.83929883 -21.46484375 20.3046875 C-21.95984375 18.8196875 -21.95984375 18.8196875 -22.46484375 17.3046875 C-22.9165395 10.41632733 -22.00102255 6.41355184 -17.52734375 0.9296875 C-12.06735686 -1.9674484 -5.88817289 -1.66100598 0 0 Z M-94.875 42.1171875 C-106.39818537 57.97218457 -109.48221153 75.72992441 -107.00390625 94.86328125 C-103.50670947 110.3538058 -94.19367018 123.92817259 -81.46484375 133.3046875 C-65.9576024 142.8786511 -49.31935436 146.9688872 -31.30224609 143.22412109 C-14.67312065 139.2663331 -0.83888242 129.6644281 8.53515625 115.3046875 C17.24853307 100.32343349 20.52985347 83.51949132 16.80859375 66.34375 C15.31052777 61.21622337 13.25534342 56.68261094 10.72265625 51.9921875 C8.20413901 47.26417355 8.12951707 44.45869784 9.53515625 39.3046875 C10.52515625 38.8096875 10.52515625 38.8096875 11.53515625 38.3046875 C10.54515625 38.3046875 9.55515625 38.3046875 8.53515625 38.3046875 C8.04015625 37.3146875 8.04015625 37.3146875 7.53515625 36.3046875 C6.87515625 37.9546875 6.21515625 39.6046875 5.53515625 41.3046875 C4.58640625 40.4796875 3.63765625 39.6546875 2.66015625 38.8046875 C-6.69624952 30.48633455 -6.69624952 30.48633455 -17.46484375 24.3046875 C-17.46484375 23.3146875 -17.46484375 22.3246875 -17.46484375 21.3046875 C-20.25370612 20.05726879 -20.25370612 20.05726879 -22.25 20.83203125 C-25.41253489 21.50692847 -27.78374662 20.66365101 -30.90234375 19.8671875 C-54.8365642 14.53200523 -79.14576865 23.16808997 -94.875 42.1171875 Z " fill="#5C1B95" transform="translate(143.46484375,26.6953125)"/>
<path d="M0 0 C3.13353267 0.56577673 5.04216554 0.28388231 8.09375 -0.44140625 C9.08375 0.05359375 9.08375 0.05359375 10.09375 0.55859375 C10.09375 1.54859375 10.09375 2.53859375 10.09375 3.55859375 C11.99015825 4.94834008 11.99015825 4.94834008 14.46875 6.18359375 C19.59759346 9.0872633 23.68988928 12.57068026 27.96484375 16.60546875 C30.13590879 18.69773961 30.13590879 18.69773961 33.09375 20.55859375 C34.08375 18.08359375 34.08375 18.08359375 35.09375 15.55859375 C35.58875 16.54859375 35.58875 16.54859375 36.09375 17.55859375 C37.57875 18.05359375 37.57875 18.05359375 39.09375 18.55859375 C38.43375 18.55859375 37.77375 18.55859375 37.09375 18.55859375 C35.18798959 25.6371324 37.15370852 29.19931824 40.5234375 35.5234375 C47.16522022 48.36091306 47.10280031 65.34383629 43.53125 79.18359375 C38.22573988 94.72910943 27.53482903 108.2421647 13.09375 116.21484375 C-3.17973251 124.19510921 -19.94520787 126.12506448 -37.3125 120.87109375 C-54.41275523 114.62578314 -66.5313277 103.49223829 -74.90625 87.55859375 C-76.54445315 83.61780506 -77.87005999 79.69718599 -78.90625 75.55859375 C-79.09703125 74.81867188 -79.2878125 74.07875 -79.484375 73.31640625 C-82.18274133 55.6770856 -79.22765383 38.60137072 -69.01953125 23.828125 C-52.24118556 2.03934995 -26.60626299 -6.86514813 0 0 Z M-62.90625 21.55859375 C-68.52932695 28.6514463 -72.39815019 35.87264811 -74.90625 44.55859375 C-75.13054687 45.28304687 -75.35484375 46.0075 -75.5859375 46.75390625 C-79.67442657 61.93172185 -76.25775101 77.52519478 -69.046875 91.12890625 C-60.57983088 105.33972318 -46.52013691 114.80880385 -30.6796875 119.171875 C-18.28741429 120.89981169 -5.48046504 120.48171057 6.09375 115.55859375 C6.94710937 115.23117188 7.80046875 114.90375 8.6796875 114.56640625 C22.02469962 108.79900353 32.18847996 96.55111784 37.90625 83.49609375 C44.26281095 66.99830893 43.58367247 50.93917648 36.87890625 34.59765625 C29.61536366 19.90214109 16.50568039 8.93366369 1.09375 3.55859375 C-22.02194918 -3.30696648 -46.77970124 3.72512751 -62.90625 21.55859375 Z " fill="#5A1B93" transform="translate(115.90625,47.44140625)"/>
<path d="M0 0 C11.22750997 4.69621682 21.78149518 12.4698712 27.53515625 23.3046875 C28.80577376 27.63973549 28.72837929 29.67134531 27.41015625 33.9921875 C25.12276492 38.03324551 22.66329721 40.24061702 18.53515625 42.3046875 C15.86279415 42.43884222 13.21265137 42.34787291 10.53515625 42.3046875 C10.8310127 46.84115308 11.75065737 49.97798387 13.91015625 53.9921875 C21.00785864 67.77613126 21.85443339 84.84646007 17.97265625 99.8046875 C11.99790548 117.35551789 1.23230517 130.83165408 -15.078125 139.73046875 C-31.51518021 147.79437862 -50.24231197 148.87817434 -67.55810547 143.02783203 C-83.78401179 136.8740376 -96.51785965 124.83469677 -103.92578125 109.2265625 C-110.61514914 93.83714966 -112.65073372 75.29044618 -106.46484375 59.3046875 C-99.5211417 42.0344542 -87.39086182 30.05349439 -70.84765625 21.6640625 C-62.24702724 18.20792059 -54.27795369 16.79879367 -45.02734375 16.9296875 C-44.02759521 16.93548828 -43.02784668 16.94128906 -41.99780273 16.94726562 C-34.78825536 17.0739238 -28.2886874 17.83929883 -21.46484375 20.3046875 C-21.95984375 18.8196875 -21.95984375 18.8196875 -22.46484375 17.3046875 C-22.9165395 10.41632733 -22.00102255 6.41355184 -17.52734375 0.9296875 C-12.06735686 -1.9674484 -5.88817289 -1.66100598 0 0 Z M-17.46484375 3.3046875 C-20.77133562 8.04399251 -20.73840076 11.74236158 -20.46484375 17.3046875 C-20.46484375 18.2946875 -20.46484375 19.2846875 -20.46484375 20.3046875 C-24.28119156 21.71365698 -27.03459262 20.85497865 -30.90234375 19.8671875 C-47.94856491 16.06741065 -64.59014996 19.12173287 -79.46484375 28.3046875 C-93.90853331 38.3217499 -102.5514245 51.55809443 -107.0546875 68.52734375 C-109.7959457 87.08957784 -106.42989939 104.75664021 -95.21484375 119.9921875 C-84.64230574 132.69758024 -70.12600819 142.14878306 -53.46484375 144.3046875 C-36.03913124 145.74467839 -19.75022124 141.97477386 -5.68359375 131.16796875 C6.4349023 120.71029068 16.4958196 106.25264161 17.71533203 89.88671875 C18.42281248 75.82839751 17.48514002 64.4577399 10.66015625 51.9296875 C8.88567404 48.62882697 8.17837568 46.83101815 9.22265625 43.1796875 C9.65578125 42.2309375 10.08890625 41.2821875 10.53515625 40.3046875 C12.11296875 40.3975 12.11296875 40.3975 13.72265625 40.4921875 C17.77066996 40.29310486 19.34892355 39.69436203 22.53515625 37.3046875 C23.11265625 36.8921875 23.69015625 36.4796875 24.28515625 36.0546875 C26.32789436 33.19485415 26.41936317 30.77847997 26.53515625 27.3046875 C23.26850244 16.07556503 13.28738939 8.90212637 3.625 3.171875 C-3.02751245 -0.06788284 -11.3365672 -1.32888745 -17.46484375 3.3046875 Z " fill="#F5EDFA" transform="translate(143.46484375,26.6953125)"/>
<path d="M0 0 C0 2.56393228 -0.13145028 5.01362618 -0.375 7.5625 C-0.44460937 8.34753906 -0.51421875 9.13257812 -0.5859375 9.94140625 C-1 12 -1 12 -3 14 C-3.2633542 15.94223723 -3.52021177 17.88600841 -3.71875 19.8359375 C-4.26443463 24.03467754 -5.66590994 27.99772982 -7 32 C-5.35 32 -3.7 32 -2 32 C-1.67 32.66 -1.34 33.32 -1 34 C-1.85464844 34.20496094 -2.70929687 34.40992188 -3.58984375 34.62109375 C-4.69457031 34.89050781 -5.79929687 35.15992188 -6.9375 35.4375 C-8.03964844 35.70433594 -9.14179687 35.97117188 -10.27734375 36.24609375 C-12.89421254 36.72995725 -12.89421254 36.72995725 -14 38 C-15.76065047 50.9884051 -10.55477081 64.67562991 -3 75 C6.8220639 86.84775818 18.86144125 93.43103245 34 96 C49.10356751 97.34253933 63.61850918 94.2746306 75.765625 84.85546875 C80.60975304 80.59872749 84.99217586 76.04782913 89 71 C89.70125 70.13375 90.4025 69.2675 91.125 68.375 C91.74375 67.59125 92.3625 66.8075 93 66 C94.33333333 64.33333333 95.66666667 62.66666667 97 61 C95.21132681 73.12322937 85.7099894 82.94080394 76.30078125 90.03515625 C61.53958929 99.95316112 44.50922612 102.37838488 27.1171875 99.31640625 C10.9386946 94.61879566 -2.06856814 84.81919831 -10.58984375 70.2890625 C-18.86828778 54.86565333 -20.14208062 39.21682562 -15.19921875 22.48046875 C-12.50707375 14.66710982 -8.76892751 7.03688316 -3 1 C-2.01 0.67 -1.02 0.34 0 0 Z " fill="#8C6F99" transform="translate(57,67)"/>
<path d="M0 0 C0 0.33 0 0.66 0 1 C-1.6396875 1.4021875 -1.6396875 1.4021875 -3.3125 1.8125 C-6.71005053 2.90662644 -7.83588374 3.38028032 -10 6 C-10.99 6.495 -10.99 6.495 -12 7 C-12 7.99 -12 8.98 -12 10 C-11.01 10.66 -10.02 11.32 -9 12 C-9 13.32 -9 14.64 -9 16 C-8.34 16 -7.68 16 -7 16 C-6.56300781 16.45117188 -6.12601563 16.90234375 -5.67578125 17.3671875 C-1.31185594 21.61921729 6.09703855 23.37863564 12 24 C12 24.66 12 25.32 12 26 C14.64 26.33 17.28 26.66 20 27 C20 27.33 20 27.66 20 28 C17.41577541 27.88581333 14.83320487 27.75907638 12.25 27.625 C11.15558594 27.57859375 11.15558594 27.57859375 10.0390625 27.53125 C6.26057344 27.3251506 3.22053332 27.08487157 0 25 C-0.59485136 31.74164873 2.92155386 36.00061441 7 41 C7.70885894 42.31138904 8.39456452 43.63777017 9 45 C9.66 45 10.32 45 11 45 C11 45.66 11 46.32 11 47 C12.485 47.495 12.485 47.495 14 48 C15 49 16 50 17 51 C19.02225873 52.10898059 21.06798036 53.02913444 23.1875 53.9375 C25 55 25 55 26 58 C30.7300622 59.8621508 35.96242242 60.25833731 41 60 C41 60.66 41 61.32 41 62 C43.64 62 46.28 62 49 62 C49 62.33 49 62.66 49 63 C32.48585675 63.91603876 17.91435856 60.34754758 5.05859375 49.5234375 C-6.77415118 38.35075045 -13.75879557 24.65213677 -14.5 8.25 C-14.53125 5.953125 -14.53125 5.953125 -14 4 C-9.57743978 0.0196958 -5.80502766 -0.13193245 0 0 Z " fill="#2204BA" transform="translate(56,101)"/>
<path d="M0 0 C1.32 0 2.64 0 4 0 C4.95899423 11.98742788 0.40314422 25.31281582 -7.28320312 34.54052734 C-14.49035959 42.64238239 -22.57187493 49.47967752 -33 53 C-36.8125 52.625 -36.8125 52.625 -40 52 C-40 52.66 -40 53.32 -40 54 C-41.98 53.34 -43.96 52.68 -46 52 C-45.67 51.01 -45.34 50.02 -45 49 C-45.99 48.67 -46.98 48.34 -48 48 C-47.67 46.68 -47.34 45.36 -47 44 C-46.01 44.33 -45.02 44.66 -44 45 C-42.68 42.03 -41.36 39.06 -40 36 C-38.35 36 -36.7 36 -35 36 C-34.731875 36.598125 -34.46375 37.19625 -34.1875 37.8125 C-32.9271059 40.1342786 -32.14126209 41.4494309 -30 43 C-26.38976901 43.73041853 -26.38976901 43.73041853 -23 44 C-22.01 41.69 -21.02 39.38 -20 37 C-20.66 36.67 -21.32 36.34 -22 36 C-21.13375 36.2784375 -21.13375 36.2784375 -20.25 36.5625 C-17.79307475 37.04023546 -16.35602466 36.75729364 -14 36 C-14 35.01 -14 34.02 -14 33 C-13.34 33 -12.68 33 -12 33 C-12 32.34 -12 31.68 -12 31 C-11.39285156 30.40832031 -10.78570312 29.81664062 -10.16015625 29.20703125 C-2.97774314 21.86876107 -1.63689154 9.74150086 0 0 Z " fill="#A108D3" transform="translate(151,108)"/>
<path d="M0 0 C1.3921875 0.60134766 1.3921875 0.60134766 2.8125 1.21484375 C17.28993387 8.30960893 27.73698388 20.55705872 33.22265625 35.625 C33.47917969 36.40875 33.73570312 37.1925 34 38 C34.22558594 38.680625 34.45117188 39.36125 34.68359375 40.0625 C37.82379196 51.49715281 36.54369346 63.86267768 33 75 C32.34 75 31.68 75 31 75 C30.731875 75.763125 30.46375 76.52625 30.1875 77.3125 C29.0387516 79.91229902 28.0314124 81.10215992 26 83 C26.18175781 82.47792969 26.36351562 81.95585937 26.55078125 81.41796875 C27.39259046 78.9529787 28.20221589 76.47959927 29 74 C29.28617187 73.11054687 29.57234375 72.22109375 29.8671875 71.3046875 C34.83298886 54.70472295 29.73602068 38.81167586 21.7421875 23.921875 C14.87121099 12.39835385 3.30370975 5.26366432 -9.20703125 0.875 C-13.73434506 -0.16940607 -17.87547659 -0.25690438 -22.5 -0.1875 C-23.72396484 -0.1865332 -23.72396484 -0.1865332 -24.97265625 -0.18554688 C-29.74469545 -0.15107789 -34.29391817 0.20932765 -39 1 C-39 0.34 -39 -0.32 -39 -1 C-39.66 -1.33 -40.32 -1.66 -41 -2 C-27.62431668 -5.84801016 -12.83433198 -5.56270639 0 0 Z " fill="#DDD0EA" transform="translate(122,53)"/>
<path d="M0 0 C1 3 1 3 0.1015625 5.34765625 C-8.37596385 20.93464253 -20.96298416 32.08952069 -37.8125 37.8125 C-54.43262432 41.92615808 -71.64865783 39.26475535 -86.359375 30.76953125 C-93.02986463 26.29951379 -99.0303983 21.03702119 -103 14 C-102.34 13.01 -101.68 12.02 -101 11 C-100.45472656 11.64066406 -99.90945312 12.28132812 -99.34765625 12.94140625 C-89.25841509 24.51385209 -77.74478048 33.25057995 -62 35 C-45.36682187 36.04893916 -30.38837107 32.77821679 -17.625 21.5625 C-13.80592986 17.9209187 -10.28609736 14.12576261 -7 10 C-6.278125 9.13375 -5.55625 8.2675 -4.8125 7.375 C-3.0051767 5.00678326 -1.47702329 2.58479075 0 0 Z " fill="#8F8BAC" transform="translate(153,128)"/>
<path d="M0 0 C6.98525059 3.10614627 12.50643024 6.67522708 18 12 C16.49637741 15.78716158 14.94512999 19.55245187 13.375 23.3125 C12.92898437 24.38113281 12.48296875 25.44976562 12.0234375 26.55078125 C11.51683594 27.76314453 11.51683594 27.76314453 11 29 C10.360625 28.34 9.72125 27.68 9.0625 27 C2.24855695 20.24347782 -4.5682428 14.64714802 -13 10 C-10.53511103 7.33857503 -7.79550348 5.36573616 -4.8125 3.3125 C-3.91144531 2.68988281 -3.01039063 2.06726562 -2.08203125 1.42578125 C-1.39496094 0.95527344 -0.70789063 0.48476563 0 0 Z " fill="#AE8FD1" transform="translate(138,41)"/>
<path d="M0 0 C10.09908725 1.62931941 20.61062798 9.47630618 26.5546875 17.66015625 C28.07321201 20.76622912 28.85595087 23.00703463 28.9296875 26.47265625 C27.32556902 30.00171692 26.18809388 31.30038533 22.9296875 33.47265625 C19.7421875 33.59765625 19.7421875 33.59765625 16.9296875 33.47265625 C17.5484375 33.18390625 18.1671875 32.89515625 18.8046875 32.59765625 C21.06294515 31.53545583 21.06294515 31.53545583 22.9296875 29.47265625 C23.02691612 25.29182559 21.830532 22.99073169 19.0546875 20.03515625 C12.84798137 14.2644584 4.34907457 7.67716142 -4.3828125 7.34765625 C-5.713125 7.40953125 -5.713125 7.40953125 -7.0703125 7.47265625 C-7.7303125 9.12265625 -8.3903125 10.77265625 -9.0703125 12.47265625 C-10.0603125 12.47265625 -11.0503125 12.47265625 -12.0703125 12.47265625 C-12.36957171 8.65710129 -12.33061114 6.0552294 -10.7578125 2.53515625 C-7.11658802 -0.25927184 -4.50774931 -0.23315945 0 0 Z " fill="#AD87B7" transform="translate(138.0703125,30.52734375)"/>
<path d="M0 0 C3.20778162 2.19479795 3.89134076 3.63327506 5 7.375 C5 11.83668484 3.81998243 13.61602108 1 17 C-2.23176757 18.61588379 -5.50615283 18.57451407 -9 18 C-11.97717008 16.01521994 -13.62826444 14.63168881 -14.44140625 11.0625 C-14.66451615 7.2624346 -14.21917673 5.35521746 -12.1875 2.0625 C-8.23297568 -1.6660515 -5.07693841 -1.15789823 0 0 Z " fill="#FDFCFD" transform="translate(122,63)"/>
<path d="M0 0 C6.45025466 -0.53752122 11.72155375 -0.03949554 17 4 C18.5 6.75 18.5 6.75 19 9 C17.68 9 16.36 9 15 9 C14.95101562 9.71285156 14.90203125 10.42570312 14.8515625 11.16015625 C14.41871477 16.70508491 13.75971184 21.72086449 12 27 C11.67 27 11.34 27 11 27 C11 25.02 11 23.04 11 21 C10.01 20.67 9.02 20.34 8 20 C8 19.34 8 18.68 8 18 C2.98464948 18.32960216 2.98464948 18.32960216 -1 21 C-1.86625 21.144375 -2.7325 21.28875 -3.625 21.4375 C-7.03800183 22.00633364 -9.87803767 22.99921192 -13.0703125 24.28125 C-18.30592734 26.23135755 -18.30592734 26.23135755 -22 25 C-17.551611 21.63658393 -14.64327983 20.65114767 -9 20 C-8.34 19.34 -7.68 18.68 -7 18 C-5.06155783 17.40942505 -3.0983302 16.89826536 -1.125 16.4375 C-0.07570312 16.18871094 0.97359375 15.93992187 2.0546875 15.68359375 C3.02664062 15.45800781 3.99859375 15.23242188 5 15 C6.11761719 14.70802734 6.11761719 14.70802734 7.2578125 14.41015625 C9 14 9 14 11 14 C11 12.68 11 11.36 11 10 C13 7.75 13 7.75 15 6 C14.0409375 5.814375 14.0409375 5.814375 13.0625 5.625 C12.051875 5.41875 11.04125 5.2125 10 5 C9.24074219 4.8659375 8.48148438 4.731875 7.69921875 4.59375 C6.89097656 4.4390625 6.08273438 4.284375 5.25 4.125 C4.08210938 3.91230469 4.08210938 3.91230469 2.890625 3.6953125 C2.26671875 3.46585937 1.6428125 3.23640625 1 3 C0.67 2.01 0.34 1.02 0 0 Z " fill="#9E01C3" transform="translate(136,99)"/>
<path d="M0 0 C0 0.33 0 0.66 0 1 C-1.6396875 1.4021875 -1.6396875 1.4021875 -3.3125 1.8125 C-6.71005053 2.90662644 -7.83588374 3.38028032 -10 6 C-10.99 6.495 -10.99 6.495 -12 7 C-12 7.99 -12 8.98 -12 10 C-11.01 10.66 -10.02 11.32 -9 12 C-9 13.32 -9 14.64 -9 16 C-8.34 16 -7.68 16 -7 16 C-6.56300781 16.45117188 -6.12601563 16.90234375 -5.67578125 17.3671875 C-1.31185594 21.61921729 6.09703855 23.37863564 12 24 C12 24.66 12 25.32 12 26 C14.64 26.33 17.28 26.66 20 27 C20 27.33 20 27.66 20 28 C17.37251369 27.94014838 14.75083005 27.85323776 12.125 27.75 C11.37863281 27.73582031 10.63226563 27.72164062 9.86328125 27.70703125 C7.6953125 27.609375 7.6953125 27.609375 4 27 C2.71875 25.03125 2.71875 25.03125 2 23 C-1.54588501 21.70079254 -1.54588501 21.70079254 -5 21 C-4.67 22.65 -4.34 24.3 -4 26 C-7.75 28 -7.75 28 -10 28 C-12.23310699 21.55348361 -14.01581952 15.72831901 -14.3125 8.875 C-14.34988281 8.02679688 -14.38726562 7.17859375 -14.42578125 6.3046875 C-14 4 -14 4 -12.09765625 2.23828125 C-8.08476466 -0.13059516 -4.6134429 -0.10485098 0 0 Z " fill="#1102B1" transform="translate(56,101)"/>
<path d="M0 0 C1.32 0 2.64 0 4 0 C4.92675766 11.5844708 0.57845434 23.55153372 -6 33 C-7.91296205 34.99121959 -9.7159593 36.42292428 -12 38 C-12.495 36.515 -12.495 36.515 -13 35 C-12.34 35 -11.68 35 -11 35 C-10.83951172 33.92298828 -10.83951172 33.92298828 -10.67578125 32.82421875 C-9.93837865 29.74247263 -8.75402442 27.56085803 -7.1875 24.8125 C-3.110671 16.96337621 -1.63077311 8.6335047 0 0 Z " fill="#F65BDD" transform="translate(151,108)"/>
<path d="M0 0 C1 3 1 3 0.1015625 5.34765625 C-3.76976554 12.46557422 -8.33821755 18.21958973 -14 24 C-14.48726562 24.56332031 -14.97453125 25.12664062 -15.4765625 25.70703125 C-17.46545568 27.39504059 -19.14017873 27.70756991 -21.6875 28.1875 C-22.49574219 28.34605469 -23.30398437 28.50460938 -24.13671875 28.66796875 C-24.75160156 28.77753906 -25.36648437 28.88710937 -26 29 C-23.51934513 26.41598451 -20.91533765 24.06468942 -18.1875 21.75 C-14.04381957 18.15418049 -10.49598456 14.21836913 -7 10 C-6.2575 9.113125 -5.515 8.22625 -4.75 7.3125 C-2.97265126 4.9638606 -1.46046128 2.55580724 0 0 Z " fill="#AFA0E0" transform="translate(153,128)"/>
<path d="M0 0 C6.71455591 0.41033397 10.83420157 4.05413768 16 8 C16.60585937 8.44988281 17.21171875 8.89976563 17.8359375 9.36328125 C21.38514027 12.12877681 23.85844417 15.04635846 26 19 C26.25 21.875 26.25 21.875 26 24 C25.34 23.01 24.68 22.02 24 21 C16.75666056 11.6423885 9.12797588 7.66159501 -2 4 C-2 2 -2 2 0 0 Z " fill="#BC90DA" transform="translate(140,32)"/>
<path d="M0 0 C2.05078125 0.03255208 4.1015625 0.06510417 6.15234375 0.09765625 C7.48201408 6.38337054 7.48201408 6.38337054 6.02734375 9.53515625 C4.15234375 11.09765625 4.15234375 11.09765625 1.65234375 11.66015625 C-0.84765625 11.09765625 -0.84765625 11.09765625 -2.72265625 8.91015625 C-3.99864818 5.72017642 -3.91997842 4.31462277 -2.84765625 1.09765625 C-1.84765625 0.09765625 -1.84765625 0.09765625 0 0 Z " fill="#CF25D6" transform="translate(126.84765625,128.90234375)"/>
<path d="M0 0 C1.27617188 -0.01160156 1.27617188 -0.01160156 2.578125 -0.0234375 C8.04635955 -0.00666377 12.7493863 0.718571 18 2.25 C18 2.58 18 2.91 18 3.25 C16.82812134 3.28758423 16.82812134 3.28758423 15.63256836 3.32592773 C12.06740383 3.44250203 8.50246387 3.56494865 4.9375 3.6875 C3.09381836 3.74647461 3.09381836 3.74647461 1.21289062 3.80664062 C-4.59234494 4.01005858 -10.2753207 4.23776102 -16 5.25 C-16 4.59 -16 3.93 -16 3.25 C-16.66 2.92 -17.32 2.59 -18 2.25 C-11.8682606 0.46157601 -6.37111147 -0.0579192 0 0 Z " fill="#DCCCEF" transform="translate(99,48.75)"/>
<path d="M0 0 C6.45025466 -0.53752122 11.72155375 -0.03949554 17 4 C18.5 6.75 18.5 6.75 19 9 C17.68 9 16.36 9 15 9 C14.8453125 10.175625 14.8453125 10.175625 14.6875 11.375 C14 14 14 14 11 16 C7.8125 16.125 7.8125 16.125 5 16 C5.33 15.34 5.66 14.68 6 14 C7.65 14 9.3 14 11 14 C11 12.68 11 11.36 11 10 C13 7.75 13 7.75 15 6 C14.360625 5.87625 13.72125 5.7525 13.0625 5.625 C12.051875 5.41875 11.04125 5.2125 10 5 C9.24074219 4.8659375 8.48148438 4.731875 7.69921875 4.59375 C6.89097656 4.4390625 6.08273438 4.284375 5.25 4.125 C4.08210937 3.91230469 4.08210937 3.91230469 2.890625 3.6953125 C2.26671875 3.46585937 1.6428125 3.23640625 1 3 C0.67 2.01 0.34 1.02 0 0 Z " fill="#AA0DBA" transform="translate(136,99)"/>
<path d="M0 0 C0.36706108 9.19012194 -0.29031963 17.19353881 -3 26 C-3.66 26 -4.32 26 -5 26 C-5.268125 26.763125 -5.53625 27.52625 -5.8125 28.3125 C-6.9612484 30.91229902 -7.9685876 32.10215992 -10 34 C-9.72736328 33.21689453 -9.72736328 33.21689453 -9.44921875 32.41796875 C-8.60742411 29.95302135 -7.79881786 27.47921398 -7 25 C-6.57074219 23.68322266 -6.57074219 23.68322266 -6.1328125 22.33984375 C-4.35753815 16.46453101 -3.75958345 11.44597053 -4.1875 5.3125 C-4 3 -4 3 -2.5625 1.1875 C-1 0 -1 0 0 0 Z " fill="#E5CEF5" transform="translate(158,102)"/>
<path d="M0 0 C-8.58743022 6.36105942 -17.29118172 10.1917873 -28 11 C-27.34 10.67 -26.68 10.34 -26 10 C-26 9.34 -26 8.68 -26 8 C-26.66 7.67 -27.32 7.34 -28 7 C-27.21496094 6.81824219 -26.42992188 6.63648438 -25.62109375 6.44921875 C-19.77647021 5.05081189 -14.46696652 3.4654947 -9 1 C-2.53253012 -1.26626506 -2.53253012 -1.26626506 0 0 Z " fill="#9B8AB8" transform="translate(134,156)"/>
<path d="M0 0 C2.54247553 0.84749184 4.71108972 1.62665383 7 3 C7.33 3.99 7.66 4.98 8 6 C12.7300622 7.8621508 17.96242242 8.25833731 23 8 C23 8.66 23 9.32 23 10 C25.64 10 28.28 10 31 10 C31 10.33 31 10.66 31 11 C20.37252757 11.5895054 9.71144598 10.85572299 0 6 C0 4.02 0 2.04 0 0 Z " fill="#5B08C3" transform="translate(74,153)"/>
<path d="M0 0 C2 1.375 2 1.375 4 3 C4 3.66 4 4.32 4 5 C4.66 5 5.32 5 6 5 C6 5.66 6 6.32 6 7 C6.99 7.33 7.98 7.66 9 8 C11.75 10.3125 11.75 10.3125 14 13 C13.8125 15.3125 13.8125 15.3125 13 17 C9.40587089 15.66503776 6.07829844 14.30872383 3 12 C2.1875 9.3125 2.1875 9.3125 2 7 C1.34 7 0.68 7 0 7 C0 4.69 0 2.38 0 0 Z " fill="#3502C5" transform="translate(61,141)"/>
<path d="M0 0 C0.66 0.66 1.32 1.32 2 2 C2.68255859 2.67869141 2.68255859 2.67869141 3.37890625 3.37109375 C4.56361947 4.56151643 5.73651295 5.76373519 6.90234375 6.97265625 C10.7059678 10.87848901 14.32032062 14.19219237 19 17 C18.67 17.99 18.34 18.98 18 20 C10.13751829 17.35573066 2.71405764 10.42811528 -1 3 C-0.67 2.01 -0.34 1.02 0 0 Z " fill="#887DAB" transform="translate(51,139)"/>
<path d="M0 0 C0 0.33 0 0.66 0 1 C-1.62324086 1.22162329 -3.248721 1.42689803 -4.875 1.625 C-6.23238281 1.79902344 -6.23238281 1.79902344 -7.6171875 1.9765625 C-8.40351563 1.98429687 -9.18984375 1.99203125 -10 2 C-10.66 1.34 -11.32 0.68 -12 0 C-12.33 1.32 -12.66 2.64 -13 4 C-16.3 4 -19.6 4 -23 4 C-23 3.67 -23 3.34 -23 3 C-19.535 2.505 -19.535 2.505 -16 2 C-16 1.01 -16 0.02 -16 -1 C-17.45945288 -0.91291331 -18.91765868 -0.80473093 -20.375 -0.6875 C-21.59316406 -0.60048828 -21.59316406 -0.60048828 -22.8359375 -0.51171875 C-25.37921338 -0.17009472 -25.37921338 -0.17009472 -27 3 C-29.97 2.505 -29.97 2.505 -33 2 C-33.33 1.01 -33.66 0.02 -34 -1 C-22.46745995 -2.80902589 -11.45041413 -2.09893025 0 0 Z " fill="#8B02B6" transform="translate(141,98)"/>
<path d="M0 0 C0.66 0.33 1.32 0.66 2 1 C1.67 1.99 1.34 2.98 1 4 C0.34 4 -0.32 4 -1 4 C-0.67 5.32 -0.34 6.64 0 8 C-1.57510125 9.48792961 -3.16040864 10.9650606 -4.75 12.4375 C-6.07257813 13.67306641 -6.07257813 13.67306641 -7.421875 14.93359375 C-9.78875032 16.83068018 -11.0509191 17.62102932 -14 18 C-12 14 -10 10 -8 6 C-8.66 5.67 -9.32 5.34 -10 5 C-9.4225 5.185625 -8.845 5.37125 -8.25 5.5625 C-5.79307475 6.04023546 -4.35602466 5.75729364 -2 5 C-2 4.01 -2 3.02 -2 2 C-1.34 2 -0.68 2 0 2 C0 1.34 0 0.68 0 0 Z " fill="#C42CD0" transform="translate(139,139)"/>
<path d="M0 0 C0 2.56393228 -0.13145028 5.01362618 -0.375 7.5625 C-0.44460937 8.34753906 -0.51421875 9.13257812 -0.5859375 9.94140625 C-1 12 -1 12 -3 14 C-3.69748583 15.31747324 -4.36959957 16.64914193 -5 18 C-7 17 -7 17 -8.5 13.4375 C-9.17475697 10.58394764 -9.19094887 9.39269344 -7.89453125 6.7265625 C-3.93630668 1.31210223 -3.93630668 1.31210223 0 0 Z " fill="#9879A4" transform="translate(57,67)"/>
<path d="M0 0 C1.32 0.33 2.64 0.66 4 1 C4.6875 3.8125 4.6875 3.8125 5 7 C3.21220342 9.59230504 2.03997185 9.98667605 -1 11 C-1 11.99 -1 12.98 -1 14 C-2.9375 13.1875 -2.9375 13.1875 -5 12 C-6 9 -6 9 -4.5625 5.8125 C-4.046875 4.884375 -3.53125 3.95625 -3 3 C-2.34 3 -1.68 3 -1 3 C-0.67 2.01 -0.34 1.02 0 0 Z " fill="#6723A1" transform="translate(157,53)"/>
<path d="M0 0 C4.75 0.75 4.75 0.75 7 3 C6.01 3.495 6.01 3.495 5 4 C4.79913557 7.71599191 4.8480563 8.77208445 7 12 C7 12.99 7 13.98 7 15 C3.851605 15.34982167 2.32172624 15.18973599 -0.4375 13.5625 C-2.31328229 10.48621705 -2.02232929 9.77653537 -1.25 6.375 C-0.83333333 4.91666667 -0.41666667 3.45833333 0 2 C0 1.34 0 0.68 0 0 Z " fill="#1802C5" transform="translate(51,122)"/>
<path d="M0 0 C1.49404432 1.22843644 2.98596914 2.45966102 4.4609375 3.7109375 C5.58997426 4.65657743 6.75474656 5.55997326 7.9375 6.4375 C9 8 9 8 9 10.9375 C7.74228623 14.78924842 6.49021558 15.983431 3 18 C-0.3125 18.25 -0.3125 18.25 -3 18 C-2.38125 17.71125 -1.7625 17.4225 -1.125 17.125 C1.13325765 16.06279958 1.13325765 16.06279958 3 14 C2.64736215 9.49682877 2.64736215 9.49682877 0 6 C-0.125 2.875 -0.125 2.875 0 0 Z " fill="#B086BC" transform="translate(158,46)"/>
<path d="M0 0 C2.5 0.25 2.5 0.25 4.5 2.25 C4.6875 5.3125 4.6875 5.3125 4.5 8.25 C3.5 9.25 3.5 9.25 0.5625 9.4375 C-2.5 9.25 -2.5 9.25 -4.5 7.25 C-4.75 4.75 -4.75 4.75 -4.5 2.25 C-2.5 0.25 -2.5 0.25 0 0 Z " fill="#8437E6" transform="translate(84.5,140.75)"/>
<path d="M0 0 C0.33 0 0.66 0 1 0 C1.24234375 1.00160156 1.4846875 2.00320312 1.734375 3.03515625 C3.44741002 9.89936602 5.19781709 15.96895124 9 22 C9.75 24.9375 9.75 24.9375 10 27 C9.01 27 8.02 27 7 27 C1.41042678 17.8207926 0.02879947 10.54060458 0 0 Z " fill="#8372A3" transform="translate(42,115)"/>
<path d="M0 0 C0.66 0.33 1.32 0.66 2 1 C0.3470817 7.61167322 -3.32706612 13.21804408 -9 17 C-9.33 16.01 -9.66 15.02 -10 14 C-9.34 14 -8.68 14 -8 14 C-7.9175 13.319375 -7.835 12.63875 -7.75 11.9375 C-6.77667472 8.1253093 -5.04192545 5.35929671 -3 2 C-2.01 2 -1.02 2 0 2 C0 1.34 0 0.68 0 0 Z " fill="#F05CDA" transform="translate(148,129)"/>
<path d="M0 0 C2.64 1.65 5.28 3.3 8 5 C7.34 6.32 6.68 7.64 6 9 C2.62537285 8.45276317 0.91765 7.9451 -2 6 C-3.9896995 5.60986284 -5.99019869 5.26797351 -8 5 C-5 3 -5 3 -2.3125 3.375 C-1.549375 3.58125 -0.78625 3.7875 0 4 C0 2.68 0 1.36 0 0 Z " fill="#A99BBD" transform="translate(122,57)"/>
<path d="M0 0 C1.11375 0.1546875 1.11375 0.1546875 2.25 0.3125 C1.92 1.9625 1.59 3.6125 1.25 5.3125 C0.26 5.3125 -0.73 5.3125 -1.75 5.3125 C-2.41 7.6225 -3.07 9.9325 -3.75 12.3125 C-4.74 12.3125 -5.73 12.3125 -6.75 12.3125 C-7.06697773 8.27103394 -7.10752198 5.93485307 -5.0625 2.375 C-2.75 0.3125 -2.75 0.3125 0 0 Z " fill="#9572A1" transform="translate(132.75,30.6875)"/>
<path d="M0 0 C6.625 0.75 6.625 0.75 10 3 C9.00233891 5.49415272 8.31383315 6.78740335 6.0625 8.3125 C4 9 4 9 1 8 C1.33 7.01 1.66 6.02 2 5 C1.34 4.67 0.68 4.34 0 4 C0 2.68 0 1.36 0 0 Z " fill="#B618D2" transform="translate(117,151)"/>
<path d="M0 0 C6.57142857 4 6.57142857 4 8 8 C6.625 9.5 6.625 9.5 5 11 C4.34 11 3.68 11 3 11 C2.67 11.66 2.34 12.32 2 13 C1.01 13 0.02 13 -1 13 C0.12451727 10.0280615 1.22293791 7.66559313 3 5 C2.01 5 1.02 5 0 5 C0 3.35 0 1.7 0 0 Z " fill="#BE95DC" transform="translate(148,47)"/>
<path d="M0 0 C0.598125 0.20625 1.19625 0.4125 1.8125 0.625 C2.4375 3 2.4375 3 2.8125 5.625 C0.8125 7.625 0.8125 7.625 -1.75 7.8125 C-4.1875 7.625 -4.1875 7.625 -5.1875 6.625 C-5.4375 4.1875 -5.4375 4.1875 -5.1875 1.625 C-2.1875 -0.375 -2.1875 -0.375 0 0 Z " fill="#FBF9FC" transform="translate(134.1875,80.375)"/>
<path d="M0 0 C0.33 0.99 0.66 1.98 1 3 C-3.87179487 9.82051282 -3.87179487 9.82051282 -8 11 C-10.69077562 11.14516709 -13.30047989 11.089984 -16 11 C-16.33 11.99 -16.66 12.98 -17 14 C-17.33 13.01 -17.66 12.02 -18 11 C-17.34 10.01 -16.68 9.02 -16 8 C-13.66666667 8 -11.33333333 8 -9 8 C-4.86966482 6.17496818 -2.63863753 3.6159107 0 0 Z " fill="#F7EEFA" transform="translate(170,58)"/>
<path d="M0 0 C1.79570284 2.66125745 2.03345719 3.78111062 1.5390625 7.015625 C1.08660156 8.61664063 1.08660156 8.61664063 0.625 10.25 C0.32851563 11.32765625 0.03203125 12.4053125 -0.2734375 13.515625 C-0.51320312 14.33546875 -0.75296875 15.1553125 -1 16 C0.65 16 2.3 16 4 16 C4.33 16.66 4.66 17.32 5 18 C1.04 18.495 1.04 18.495 -3 19 C-2.58955515 12.42208127 -2.13391403 6.25948114 0 0 Z " fill="#7A6397" transform="translate(51,83)"/>
<path d="M0 0 C0 0.99 0 1.98 0 3 C-1.6037331 3.64690922 -3.20800306 4.29248764 -4.8125 4.9375 C-6.15248047 5.47697266 -6.15248047 5.47697266 -7.51953125 6.02734375 C-9.3270909 6.73613486 -11.15807409 7.3860247 -13 8 C-13.0625 5.75 -13.0625 5.75 -12 3 C-8.04106457 0.46565168 -4.58070253 -1.52690084 0 0 Z " fill="#BAA4D8" transform="translate(83,52)"/>
<path d="M0 0 C0.66 0.33 1.32 0.66 2 1 C1.814375 1.9075 1.62875 2.815 1.4375 3.75 C0.77576292 7.1508075 0.77576292 7.1508075 2 11 C-0.97 9.35 -3.94 7.7 -7 6 C-4.71658281 3.71658281 -2.59070454 1.87602742 0 0 Z " fill="#9F7DB9" transform="translate(132,45)"/>
<path d="M0 0 C5.45454545 0.45454545 5.45454545 0.45454545 8 3 C8 3.99 8 4.98 8 6 C8.99 6 9.98 6 11 6 C11 6.66 11 7.32 11 8 C9.39566191 7.52140759 7.79153584 7.04210442 6.1875 6.5625 C5.29417969 6.29566406 4.40085938 6.02882813 3.48046875 5.75390625 C1.64526945 5.19612127 -0.18033726 4.60655425 -2 4 C-2 2 -2 2 0 0 Z " fill="#AF8FD1" transform="translate(140,32)"/>
<path d="M0 0 C-0.11442461 1.60495567 -0.24194694 3.20898119 -0.375 4.8125 C-0.44460937 5.70582031 -0.51421875 6.59914063 -0.5859375 7.51953125 C-1 10 -1 10 -3 13 C-3 11.02 -3 9.04 -3 7 C-3.99 6.67 -4.98 6.34 -6 6 C-6 5.34 -6 4.68 -6 4 C-6.99 3.34 -7.98 2.68 -9 2 C-2.25 0 -2.25 0 0 0 Z " fill="#E805C6" transform="translate(150,113)"/>
<path d="M0 0 C1.32 0 2.64 0 4 0 C4 0.66 4 1.32 4 2 C4.99 2 5.98 2 7 2 C7.33 1.34 7.66 0.68 8 0 C11.465 1.485 11.465 1.485 15 3 C14.67 4.32 14.34 5.64 14 7 C12.24890978 6.37806106 10.49916969 5.75232002 8.75 5.125 C7.77546875 4.77695313 6.8009375 4.42890625 5.796875 4.0703125 C3.43705673 3.16725355 1.23094884 2.17921582 -1 1 C-0.67 0.67 -0.34 0.34 0 0 Z " fill="#B391CC" transform="translate(138,96)"/>
<path d="M0 0 C1 3 1 3 -0.07421875 5.62890625 C-0.60660156 6.59699219 -1.13898438 7.56507813 -1.6875 8.5625 C-2.20699219 9.53316406 -2.72648438 10.50382813 -3.26171875 11.50390625 C-5.03746463 14.05379753 -6.12942999 14.94307989 -9 16 C-9 12.35838005 -8.01418023 10.98397071 -6 8 C-5 7 -4 6 -3 5 C-1.96642853 3.35394174 -0.95939668 1.69036558 0 0 Z " fill="#B6A7E0" transform="translate(153,128)"/>
<path d="M0 0 C1.98 0 3.96 0 6 0 C6 0.99 6 1.98 6 3 C5.01 3 4.02 3 3 3 C3 3.66 3 4.32 3 5 C3.99 5 4.98 5 6 5 C5.67 5.99 5.34 6.98 5 8 C0.545 7.01 0.545 7.01 -4 6 C-3.01 5.67 -2.02 5.34 -1 5 C-0.67 3.35 -0.34 1.7 0 0 Z " fill="#A580B5" transform="translate(135,31)"/>
<path d="M0 0 C0 0.33 0 0.66 0 1 C-0.84304687 1.03738281 -1.68609375 1.07476562 -2.5546875 1.11328125 C-4.19824219 1.21189453 -4.19824219 1.21189453 -5.875 1.3125 C-6.96554688 1.37050781 -8.05609375 1.42851563 -9.1796875 1.48828125 C-10.57574219 1.74158203 -10.57574219 1.74158203 -12 2 C-12.99 3.485 -12.99 3.485 -14 5 C-16.97 4.505 -16.97 4.505 -20 4 C-20.33 3.01 -20.66 2.02 -21 1 C-13.98194143 -0.10087193 -7.09434233 -0.09733092 0 0 Z " fill="#7716A9" transform="translate(128,96)"/>
<path d="M0 0 C0 0.33 0 0.66 0 1 C-1.6396875 1.4021875 -1.6396875 1.4021875 -3.3125 1.8125 C-6.71005053 2.90662644 -7.83588374 3.38028032 -10 6 C-10.99 6.495 -10.99 6.495 -12 7 C-12.40729228 9.32156597 -12.74438677 11.6568787 -13 14 C-13.33 14 -13.66 14 -14 14 C-14.10824843 12.3973218 -14.18570645 10.79254252 -14.25 9.1875 C-14.29640625 8.29417969 -14.3428125 7.40085937 -14.390625 6.48046875 C-14 4 -14 4 -12.1015625 2.21875 C-8.07600537 -0.11577384 -4.61105513 -0.10479671 0 0 Z " fill="#130B86" transform="translate(56,101)"/>
<path d="M0 0 C0 3 0 3 -1 5 C-1.66 5 -2.32 5 -3 5 C-3.0825 5.7425 -3.165 6.485 -3.25 7.25 C-4.1396946 10.51221354 -5.48503749 11.80954878 -8 14 C-7.67 12.35 -7.34 10.7 -7 9 C-7.66 8.67 -8.32 8.34 -9 8 C-6.03 5.36 -3.06 2.72 0 0 Z " fill="#A27FBA" transform="translate(64,59)"/>
<path d="M0 0 C-0.33 0.99 -0.66 1.98 -1 3 C-8.38461538 4.35384615 -8.38461538 4.35384615 -11.5 2.5625 C-11.995 2.046875 -12.49 1.53125 -13 1 C-4.57142857 -1.42857143 -4.57142857 -1.42857143 0 0 Z " fill="#6206A8" transform="translate(108,99)"/>
<path d="M0 0 C0.33 0 0.66 0 1 0 C0.47547343 4.93054978 -0.66228592 9.23445006 -2.30078125 13.91015625 C-3.08239613 16.24626775 -3.60786356 18.56875406 -4 21 C-4.33 21 -4.66 21 -5 21 C-5.67360912 12.91669061 -3.44171655 7.2644803 0 0 Z " fill="#EFE5F6" transform="translate(41,77)"/>
<path d="M0 0 C1.4540625 0.0309375 1.4540625 0.0309375 2.9375 0.0625 C2.9375 1.0525 2.9375 2.0425 2.9375 3.0625 C2.298125 3.165625 1.65875 3.26875 1 3.375 C0.319375 3.601875 -0.36125 3.82875 -1.0625 4.0625 C-1.3925 5.0525 -1.7225 6.0425 -2.0625 7.0625 C-3.0525 6.7325 -4.0425 6.4025 -5.0625 6.0625 C-3.98897059 0.08140756 -3.98897059 0.08140756 0 0 Z " fill="#D13ADD" transform="translate(128.0625,128.9375)"/>
<path d="M0 0 C-1.32 0.33 -2.64 0.66 -4 1 C-4.1546875 2.175625 -4.1546875 2.175625 -4.3125 3.375 C-5 6 -5 6 -8 8 C-11.1875 8.125 -11.1875 8.125 -14 8 C-13.67 7.34 -13.34 6.68 -13 6 C-11.35 6 -9.7 6 -8 6 C-8 4.68 -8 3.36 -8 2 C-4.77208445 -0.1519437 -3.71599191 -0.20086443 0 0 Z " fill="#B60AC2" transform="translate(155,107)"/>
<path d="M0 0 C0.33 0.66 0.66 1.32 1 2 C1.66 2 2.32 2 3 2 C3 3.32 3 4.64 3 6 C3.33 6.99 3.66 7.98 4 9 C2.02 9 0.04 9 -2 9 C-2 7.02 -2 5.04 -2 3 C-1.34 3 -0.68 3 0 3 C0 2.01 0 1.02 0 0 Z " fill="#886D8F" transform="translate(42,94)"/>
<path d="M0 0 C3.3 0.33 6.6 0.66 10 1 C10 1.66 10 2.32 10 3 C6.7 3.33 3.4 3.66 0 4 C0 2.68 0 1.36 0 0 Z " fill="#63279B" transform="translate(132,27)"/>
<path d="M0 0 C4.95 1.65 9.9 3.3 15 5 C11 7 11 7 8.203125 6.3203125 C6.74132812 5.72863281 6.74132812 5.72863281 5.25 5.125 C4.26515625 4.73570312 3.2803125 4.34640625 2.265625 3.9453125 C1.14414063 3.47738281 1.14414063 3.47738281 0 3 C0 2.01 0 1.02 0 0 Z " fill="#F0E6F7" transform="translate(70,164)"/>
<path d="M0 0 C4.62 0.99 9.24 1.98 14 3 C11 6 11 6 8.95703125 6.07421875 C5.97851562 5.53710938 5.97851562 5.53710938 3 5 C3 4.34 3 3.68 3 3 C2.01 2.67 1.02 2.34 0 2 C0 1.34 0 0.68 0 0 Z " fill="#8F82B9" transform="translate(77,160)"/>
<path d="M0 0 C0.74507812 0.01353516 1.49015625 0.02707031 2.2578125 0.04101562 C4.08885416 0.07622796 5.91952169 0.13003149 7.75 0.1875 C7.75 0.5175 7.75 0.8475 7.75 1.1875 C6.1 1.1875 4.45 1.1875 2.75 1.1875 C2.42 1.8475 2.09 2.5075 1.75 3.1875 C0.96625 3.001875 0.1825 2.81625 -0.625 2.625 C-3.22089775 1.92787734 -3.22089775 1.92787734 -5.25 3.1875 C-7.5829866 3.22772391 -9.91706666 3.23070247 -12.25 3.1875 C-8.60142562 -0.47067589 -4.85390995 -0.16722835 0 0 Z " fill="#5603D6" transform="translate(84.25,128.8125)"/>
<path d="M0 0 C-1.08336479 3.49084212 -2.1047123 4.05521194 -5.4375 5.8125 C-9 7 -9 7 -12 6 C-10.89932004 5.18278283 -9.79430269 4.37140549 -8.6875 3.5625 C-8.07261719 3.11003906 -7.45773438 2.65757812 -6.82421875 2.19140625 C-4.57961848 0.72544676 -2.69750014 0 0 0 Z " fill="#9EA1D4" transform="translate(139,150)"/>
<path d="M0 0 C1.65 0.99 3.3 1.98 5 3 C4.67 4.32 4.34 5.64 4 7 C1.08482708 5.92598892 -0.77810176 5.22189824 -3 3 C-2.01 2.01 -1.02 1.02 0 0 Z " fill="#4107BD" transform="translate(70,151)"/>
<path d="M0 0 C0.66 0.99 1.32 1.98 2 3 C1.00200236 6.99199058 -0.55799862 8.82006579 -4 11 C-4.33 10.01 -4.66 9.02 -5 8 C-4.34 8 -3.68 8 -3 8 C-2.87625 7.236875 -2.7525 6.47375 -2.625 5.6875 C-2 3 -2 3 0 0 Z " fill="#E549D9" transform="translate(143,135)"/>
<path d="M0 0 C0.66 0.66 1.32 1.32 2 2 C-1.3 2.66 -4.6 3.32 -8 4 C-8 3.34 -8 2.68 -8 2 C-8.66 1.67 -9.32 1.34 -10 1 C-6.47940432 -0.17353189 -3.693507 -0.20146402 0 0 Z " fill="#D0BDE6" transform="translate(91,50)"/>
<path d="M0 0 C2.0625 0.4375 2.0625 0.4375 4 1 C4 2.32 4 3.64 4 5 C2.68 5.33 1.36 5.66 0 6 C-0.38218767 4.34385343 -0.71395102 2.67542976 -1 1 C-0.67 0.67 -0.34 0.34 0 0 Z " fill="#B935E1" transform="translate(111,144)"/>
<path d="M0 0 C0.66 0.66 1.32 1.32 2 2 C1.625 4.125 1.625 4.125 1 6 C-0.65 6.33 -2.3 6.66 -4 7 C-3.6875 4.625 -3.6875 4.625 -3 2 C-2.01 1.34 -1.02 0.68 0 0 Z " fill="#0F03BE" transform="translate(50,122)"/>
<path d="M0 0 C7.42857143 -0.14285714 7.42857143 -0.14285714 11 1 C10.67 1.99 10.34 2.98 10 4 C8.72125 3.896875 7.4425 3.79375 6.125 3.6875 C5.04605469 3.60048828 5.04605469 3.60048828 3.9453125 3.51171875 C2 3 2 3 0 0 Z " fill="#61259A" transform="translate(96,167)"/>
<path d="M0 0 C8.58 0 17.16 0 26 0 C26 0.33 26 0.66 26 1 C17.42 1 8.84 1 0 1 C0 0.67 0 0.34 0 0 Z " fill="#1A154F" transform="translate(86,199)"/>
<path d="M0 0 C1.65 0.33 3.3 0.66 5 1 C4.67 2.32 4.34 3.64 4 5 C2.35 4.67 0.7 4.34 -1 4 C-0.67 2.68 -0.34 1.36 0 0 Z " fill="#9D38E6" transform="translate(95,146)"/>
<path d="M0 0 C0.66 0.33 1.32 0.66 2 1 C1.67 1.99 1.34 2.98 1 4 C0.34 4 -0.32 4 -1 4 C-0.690625 4.928125 -0.690625 4.928125 -0.375 5.875 C-0.25125 6.57625 -0.1275 7.2775 0 8 C-0.66 8.66 -1.32 9.32 -2 10 C-4.125 9.625 -4.125 9.625 -6 9 C-5.2884375 8.38125 -5.2884375 8.38125 -4.5625 7.75 C-2.83733482 5.817815 -2.43415125 4.51807725 -2 2 C-1.34 2 -0.68 2 0 2 C0 1.34 0 0.68 0 0 Z " fill="#DC28D2" transform="translate(139,139)"/>
<path d="M0 0 C0.66 0.99 1.32 1.98 2 3 C1.67 3.99 1.34 4.98 1 6 C0.34 6 -0.32 6 -1 6 C-1.4021875 7.1446875 -1.4021875 7.1446875 -1.8125 8.3125 C-2.9612484 10.91229902 -3.9685876 12.10215992 -6 14 C-4.45941767 8.98491285 -2.97068161 4.3852919 0 0 Z " fill="#D1BCEA" transform="translate(154,122)"/>
<path d="M0 0 C4.75 0.75 4.75 0.75 7 3 C6.01 3.495 6.01 3.495 5 4 C5 5.98 5 7.96 5 10 C4.34 10 3.68 10 3 10 C2.690625 8.906875 2.38125 7.81375 2.0625 6.6875 C1.41662103 4.44592006 0.7376883 2.2130649 0 0 Z " fill="#1B02D9" transform="translate(51,122)"/>
<path d="M0 0 C0.66 0.33 1.32 0.66 2 1 C0.828125 7.0546875 0.828125 7.0546875 0 9 C-2.078125 10.2578125 -2.078125 10.2578125 -4 11 C-3.71890887 9.35232753 -3.42481474 7.70686855 -3.125 6.0625 C-2.96257812 5.14597656 -2.80015625 4.22945313 -2.6328125 3.28515625 C-2.42398438 2.53105469 -2.21515625 1.77695313 -2 1 C-1.34 0.67 -0.68 0.34 0 0 Z " fill="#E1C2EF" transform="translate(156,115)"/>
<path d="M0 0 C0.33 0 0.66 0 1 0 C1 8.58 1 17.16 1 26 C0.67 26 0.34 26 0 26 C0 17.42 0 8.84 0 0 Z " fill="#1A154F" transform="translate(199,86)"/>
<path d="M0 0 C1.33895632 1.66215268 2.67130142 3.32963607 4 5 C4.5775 5.721875 5.155 6.44375 5.75 7.1875 C7 9 7 9 7 11 C3.51752126 9.83917375 3.11180756 9.09067524 1.25 6.0625 C0.80140625 5.35222656 0.3528125 4.64195312 -0.109375 3.91015625 C-0.40328125 3.27980469 -0.6971875 2.64945313 -1 2 C-0.67 1.34 -0.34 0.68 0 0 Z " fill="#EEE6F5" transform="translate(44,140)"/>
<path d="M0 0 C0.86625 0.2784375 0.86625 0.2784375 1.75 0.5625 C4.30393357 1.2238169 4.30393357 1.2238169 8 0 C6.02 2.31 4.04 4.62 2 7 C1.34 6.67 0.68 6.34 0 6 C0.66 4.35 1.32 2.7 2 1 C1.34 0.67 0.68 0.34 0 0 Z " fill="#CB03CB" transform="translate(129,144)"/>
<path d="M0 0 C0.66 0 1.32 0 2 0 C1.39009109 3.55780196 0.4216319 6.6828589 -1 10 C-3 9 -3 9 -4 7 C-3.34 7 -2.68 7 -2 7 C-1.855625 6.030625 -1.71125 5.06125 -1.5625 4.0625 C-1 1 -1 1 0 0 Z " fill="#B793D7" transform="translate(151,57)"/>
<path d="M0 0 C3.6875 1.375 3.6875 1.375 7 3 C3.3558226 5.4294516 1.28758728 5.16179575 -3 5 C-3 4.01 -3 3.02 -3 2 C-2.01 1.34 -1.02 0.68 0 0 Z " fill="#AB85BD" transform="translate(138,41)"/>
<path d="M0 0 C2.25111973 0.28289472 4.50087686 0.57664693 6.75 0.875 C8.62945312 1.11863281 8.62945312 1.11863281 10.546875 1.3671875 C13.48616408 1.9058355 15.47107147 2.48008841 18 4 C15.37335097 3.9132428 12.75021918 3.80642019 10.125 3.6875 C9.37863281 3.66494141 8.63226563 3.64238281 7.86328125 3.61914062 C5.900396 3.52188055 3.94671678 3.26957706 2 3 C1.34 2.01 0.68 1.02 0 0 Z " fill="#3102CB" transform="translate(58,125)"/>
<path d="M0 0 C-0.61875 0.28875 -1.2375 0.5775 -1.875 0.875 C-4.13325765 1.93720042 -4.13325765 1.93720042 -6 4 C-9.125 4.125 -9.125 4.125 -12 4 C-8.81646865 0.10901724 -4.81837115 -1.60612372 0 0 Z " fill="#C002C9" transform="translate(141,116)"/>
<path d="M0 0 C0 0.66 0 1.32 0 2 C-0.99 2 -1.98 2 -3 2 C-3 2.66 -3 3.32 -3 4 C-4.65 4 -6.3 4 -8 4 C-7.67 3.01 -7.34 2.02 -7 1 C-4 0 -4 0 0 0 Z " fill="#7101DA" transform="translate(96,129)"/>
<path d="M0 0 C1.98 0.99 1.98 0.99 4 2 C4 3.32 4 4.64 4 6 C3.34 6 2.68 6 2 6 C1.34 6.99 0.68 7.98 0 9 C0 6.03 0 3.06 0 0 Z " fill="#07029D" transform="translate(43,111)"/>
<path d="M0 0 C1.32 0 2.64 0 4 0 C4 2.64 4 5.28 4 8 C3.34 6.68 2.68 5.36 2 4 C1.01 4 0.02 4 -1 4 C-0.67 2.68 -0.34 1.36 0 0 Z " fill="#DB61D8" transform="translate(151,108)"/>
<path d="M0 0 C4.16138263 -0.08159574 7.9472484 0.01751476 12 1 C12 1.33 12 1.66 12 2 C8.7 2.33 5.4 2.66 2 3 C1.34 2.01 0.68 1.02 0 0 Z " fill="#8E09AF" transform="translate(129,97)"/>
<path d="M0 0 C2.64 0.33 5.28 0.66 8 1 C7.67 1.99 7.34 2.98 7 4 C4.03 3.505 4.03 3.505 1 3 C0.67 2.01 0.34 1.02 0 0 Z " fill="#A401BF" transform="translate(136,99)"/>
<path d="M0 0 C0.66 0.66 1.32 1.32 2 2 C1.54625 2.7425 1.0925 3.485 0.625 4.25 C-0.68640796 6.46930578 -1.88280803 8.67967822 -3 11 C-4 8 -4 8 -3.22265625 5.95703125 C-2.83980469 5.24933594 -2.45695312 4.54164062 -2.0625 3.8125 C-1.68222656 3.09707031 -1.30195312 2.38164063 -0.91015625 1.64453125 C-0.60980469 1.10183594 -0.30945312 0.55914062 0 0 Z " fill="#8B72AC" transform="translate(55,74)"/>
<path d="M0 0 C0.66 0 1.32 0 2 0 C0.125 4.75 0.125 4.75 -1 7 C-1.99 7 -2.98 7 -4 7 C-2.92598892 4.08482708 -2.22189824 2.22189824 0 0 Z " fill="#CBB1E1" transform="translate(151,53)"/>
<path d="M0 0 C3 2 3 2 3.6875 4.125 C3.790625 4.74375 3.89375 5.3625 4 6 C3.01 6 2.02 6 1 6 C0.67 6.66 0.34 7.32 0 8 C-0.79953138 4.71303767 -1.09658936 3.28976808 0 0 Z " fill="#63239A" transform="translate(156,87)"/>
<path d="M0 0 C1.5625 1.1875 1.5625 1.1875 3 3 C2.6875 5.6875 2.6875 5.6875 2 8 C1.34 8 0.68 8 0 8 C-1.125 2.25 -1.125 2.25 0 0 Z " fill="#5A1593" transform="translate(159,53)"/>
<path d="M0 0 C0.33 0.99 0.66 1.98 1 3 C-1.475 4.485 -1.475 4.485 -4 6 C-4.33 4.68 -4.66 3.36 -5 2 C-2 0 -2 0 0 0 Z " fill="#581A8B" transform="translate(131,28)"/>
<path d="M0 0 C2 1 4 2 6 3 C5.34 4.98 4.68 6.96 4 9 C3.67 9 3.34 9 3 9 C2.690625 7.88625 2.38125 6.7725 2.0625 5.625 C1.17673517 2.2054845 1.17673517 2.2054845 0 0 Z " fill="#6A06D3" transform="translate(86,140)"/>
<path d="M0 0 C1.32 0.99 2.64 1.98 4 3 C3.67 3.99 3.34 4.98 3 6 C2.01 6.33 1.02 6.66 0 7 C0 4.69 0 2.38 0 0 Z " fill="#2D00CD" transform="translate(61,141)"/>
<path d="M0 0 C2.0625 0.4375 2.0625 0.4375 4 1 C3.67 3.31 3.34 5.62 3 8 C1.10786631 5.61426621 -0.02391783 3.92824652 -1 1 C-0.67 0.67 -0.34 0.34 0 0 Z " fill="#180BAD" transform="translate(47,128)"/>
<path d="M0 0 C0.66 0 1.32 0 2 0 C2.33 0.99 2.66 1.98 3 3 C1.5625 5.1875 1.5625 5.1875 0 7 C-0.66 5.35 -1.32 3.7 -2 2 C-1.34 1.34 -0.68 0.68 0 0 Z " fill="#622298" transform="translate(44,77)"/>
<path d="M0 0 C1.5 1.375 1.5 1.375 3 3 C3 3.66 3 4.32 3 5 C1.35 4.67 -0.3 4.34 -2 4 C-2 3.01 -2 2.02 -2 1 C-1.34 0.67 -0.68 0.34 0 0 Z " fill="#9470A8" transform="translate(128,48)"/>
<path d="M0 0 C1.98 0.66 3.96 1.32 6 2 C5.67 2.99 5.34 3.98 5 5 C3.02 4.34 1.04 3.68 -1 3 C-0.67 2.01 -0.34 1.02 0 0 Z " fill="#64229C" transform="translate(87,166)"/>
<path d="M0 0 C0.99 0 1.98 0 3 0 C1.92598892 2.91517292 1.22189824 4.77810176 -1 7 C-2 4 -2 4 -1.0625 1.8125 C-0.5365625 0.9153125 -0.5365625 0.9153125 0 0 Z " fill="#E060D9" transform="translate(145,134)"/>
<path d="M0 0 C2.31 0 4.62 0 7 0 C7.33 0.66 7.66 1.32 8 2 C5.36 2.33 2.72 2.66 0 3 C0 2.01 0 1.02 0 0 Z " fill="#7767A5" transform="translate(48,99)"/>
<path d="M0 0 C0.99 0.33 1.98 0.66 3 1 C3 1.66 3 2.32 3 3 C2.01 3 1.02 3 0 3 C-0.33 3.66 -0.66 4.32 -1 5 C-1.66 4.67 -2.32 4.34 -3 4 C-2.67 3.01 -2.34 2.02 -2 1 C-1.34 0.67 -0.68 0.34 0 0 Z " fill="#A485C5" transform="translate(138,31)"/>
<path d="M0 0 C0.66 0.33 1.32 0.66 2 1 C-0.31 3.31 -2.62 5.62 -5 8 C-5 5 -5 5 -2.5 2.3125 C-1.675 1.549375 -0.85 0.78625 0 0 Z " fill="#1A154F" transform="translate(30,25)"/>
<path d="M0 0 C1.98 0 3.96 0 6 0 C6 0.33 6 0.66 6 1 C4.02 1 2.04 1 0 1 C0 0.67 0 0.34 0 0 Z " fill="#1A154F" transform="translate(112,198)"/>
<path d="M0 0 C1.98 0 3.96 0 6 0 C6 0.33 6 0.66 6 1 C4.02 1 2.04 1 0 1 C0 0.67 0 0.34 0 0 Z " fill="#1A154F" transform="translate(80,198)"/>
<path d="M0 0 C1.65 0 3.3 0 5 0 C5 0.33 5 0.66 5 1 C3.35 1 1.7 1 0 1 C0 0.67 0 0.34 0 0 Z " fill="#1A154F" transform="translate(118,197)"/>
<path d="M0 0 C1.65 0 3.3 0 5 0 C5 0.33 5 0.66 5 1 C3.35 1 1.7 1 0 1 C0 0.67 0 0.34 0 0 Z " fill="#1A154F" transform="translate(75,197)"/>
<path d="M0 0 C1.65 0 3.3 0 5 0 C5 0.33 5 0.66 5 1 C3.35 1 1.7 1 0 1 C0 0.67 0 0.34 0 0 Z " fill="#1A154F" transform="translate(117,0)"/>
<path d="M0 0 C1.65 0 3.3 0 5 0 C5 0.33 5 0.66 5 1 C3.35 1 1.7 1 0 1 C0 0.67 0 0.34 0 0 Z " fill="#1A154F" transform="translate(76,0)"/>
<path d="M0 0 C4 1 4 1 4 1 Z " fill="#1A154F" transform="translate(123,196)"/>
<path d="M0 0 C4 1 4 1 4 1 Z " fill="#1A154F" transform="translate(68,195)"/>
<path d="M0 0 C4 1 4 1 4 1 Z " fill="#1A154F" transform="translate(69,2)"/>
<path d="M0 0 C4 1 4 1 4 1 Z " fill="#1A154F" transform="translate(122,1)"/>
<path d="M0 0 C3 1 3 1 3 1 Z " fill="#1A154F" transform="translate(72,196)"/>
<path d="M0 0 C3 1 3 1 3 1 Z " fill="#1A154F" transform="translate(127,195)"/>
<path d="M0 0 C3 1 3 1 3 1 Z " fill="#1A154F" transform="translate(130,194)"/>
<path d="M0 0 C3 1 3 1 3 1 Z " fill="#1A154F" transform="translate(65,194)"/>
<path d="M0 0 C3 1 3 1 3 1 Z " fill="#1A154F" transform="translate(135,192)"/>
<path d="M0 0 C3 1 3 1 3 1 Z " fill="#1A154F" transform="translate(60,192)"/>
<path d="" fill="#1A154F" transform="translate(0,0)"/>
<path d="" fill="#1A154F" transform="translate(0,0)"/>
<path d="" fill="#1A154F" transform="translate(0,0)"/>
<path d="" fill="#1A154F" transform="translate(0,0)"/>
<path d="" fill="#1A154F" transform="translate(0,0)"/>
<path d="" fill="#1A154F" transform="translate(0,0)"/>
<path d="M0 0 C3 1 3 1 3 1 Z " fill="#1A154F" transform="translate(137,6)"/>
<path d="M0 0 C3 1 3 1 3 1 Z " fill="#1A154F" transform="translate(132,4)"/>
<path d="M0 0 C3 1 3 1 3 1 Z " fill="#1A154F" transform="translate(63,4)"/>
<path d="M0 0 C3 1 3 1 3 1 Z " fill="#1A154F" transform="translate(129,3)"/>
<path d="M0 0 C3 1 3 1 3 1 Z " fill="#1A154F" transform="translate(66,3)"/>
<path d="M0 0 C3 1 3 1 3 1 Z " fill="#1A154F" transform="translate(126,2)"/>
<path d="M0 0 C3 1 3 1 3 1 Z " fill="#1A154F" transform="translate(73,1)"/>
<path d="M0 0 C2 1 2 1 2 1 Z " fill="#1A154F" transform="translate(133,193)"/>
<path d="M0 0 C2 1 2 1 2 1 Z " fill="#1A154F" transform="translate(63,193)"/>
<path d="M0 0 C2 1 2 1 2 1 Z " fill="#1A154F" transform="translate(138,191)"/>
<path d="M0 0 C2 1 2 1 2 1 Z " fill="#1A154F" transform="translate(58,191)"/>
<path d="M0 0 C2 1 2 1 2 1 Z " fill="#1A154F" transform="translate(140,190)"/>
<path d="M0 0 C2 1 2 1 2 1 Z " fill="#1A154F" transform="translate(56,190)"/>
<path d="M0 0 C2 1 2 1 2 1 Z " fill="#1A154F" transform="translate(142,189)"/>
<path d="M0 0 C2 1 2 1 2 1 Z " fill="#1A154F" transform="translate(54,189)"/>
<path d="M0 0 C2 1 2 1 2 1 Z " fill="#1A154F" transform="translate(144,188)"/>
<path d="M0 0 C2 1 2 1 2 1 Z " fill="#1A154F" transform="translate(52,188)"/>
<path d="M0 0 C2 1 2 1 2 1 Z " fill="#1A154F" transform="translate(146,187)"/>
<path d="M0 0 C2 1 2 1 2 1 Z " fill="#1A154F" transform="translate(50,187)"/>
<path d="M0 0 C2 1 2 1 2 1 Z " fill="#1A154F" transform="translate(148,186)"/>
<path d="M0 0 C2 1 2 1 2 1 Z " fill="#1A154F" transform="translate(47,185)"/>
<path d="M0 0 C2 1 2 1 2 1 Z " fill="#1A154F" transform="translate(151,184)"/>
<path d="M0 0 C2 1 2 1 2 1 Z " fill="#1A154F" transform="translate(45,184)"/>
<path d="M0 0 C2 1 2 1 2 1 Z " fill="#1A154F" transform="translate(154,182)"/>
<path d="M0 0 C2 1 2 1 2 1 Z " fill="#1A154F" transform="translate(42,182)"/>
<path d="M0 0 C2 1 2 1 2 1 Z " fill="#1A154F" transform="translate(157,180)"/>
<path d="M0 0 C2 1 2 1 2 1 Z " fill="#1A154F" transform="translate(38,179)"/>
<path d="M0 0 C2 1 2 1 2 1 Z " fill="#1A154F" transform="translate(162,176)"/>
<path d="M0 0 C2 1 2 1 2 1 Z " fill="#1A154F" transform="translate(32,174)"/>
<path d="" fill="#1A154F" transform="translate(0,0)"/>
<path d="" fill="#1A154F" transform="translate(0,0)"/>
<path d="" fill="#1A154F" transform="translate(0,0)"/>
<path d="" fill="#1A154F" transform="translate(0,0)"/>
<path d="" fill="#1A154F" transform="translate(0,0)"/>
<path d="" fill="#1A154F" transform="translate(0,0)"/>
<path d="" fill="#1A154F" transform="translate(0,0)"/>
<path d="" fill="#1A154F" transform="translate(0,0)"/>
<path d="M0 0 C2 1 2 1 2 1 Z " fill="#1A154F" transform="translate(164,23)"/>
<path d="M0 0 C2 1 2 1 2 1 Z " fill="#1A154F" transform="translate(37,19)"/>
<path d="M0 0 C2 1 2 1 2 1 Z " fill="#1A154F" transform="translate(158,18)"/>
<path d="M0 0 C2 1 2 1 2 1 Z " fill="#1A154F" transform="translate(155,16)"/>
<path d="M0 0 C2 1 2 1 2 1 Z " fill="#1A154F" transform="translate(41,16)"/>
<path d="M0 0 C2 1 2 1 2 1 Z " fill="#1A154F" transform="translate(152,14)"/>
<path d="M0 0 C2 1 2 1 2 1 Z " fill="#1A154F" transform="translate(44,14)"/>
<path d="M0 0 C2 1 2 1 2 1 Z " fill="#1A154F" transform="translate(149,12)"/>
<path d="M0 0 C2 1 2 1 2 1 Z " fill="#1A154F" transform="translate(47,12)"/>
<path d="M0 0 C2 1 2 1 2 1 Z " fill="#1A154F" transform="translate(147,11)"/>
<path d="M0 0 C2 1 2 1 2 1 Z " fill="#1A154F" transform="translate(49,11)"/>
<path d="M0 0 C2 1 2 1 2 1 Z " fill="#1A154F" transform="translate(51,10)"/>
<path d="M0 0 C2 1 2 1 2 1 Z " fill="#1A154F" transform="translate(144,9)"/>
<path d="M0 0 C2 1 2 1 2 1 Z " fill="#1A154F" transform="translate(53,9)"/>
<path d="M0 0 C2 1 2 1 2 1 Z " fill="#1A154F" transform="translate(142,8)"/>
<path d="M0 0 C2 1 2 1 2 1 Z " fill="#1A154F" transform="translate(55,8)"/>
<path d="M0 0 C2 1 2 1 2 1 Z " fill="#1A154F" transform="translate(140,7)"/>
<path d="M0 0 C2 1 2 1 2 1 Z " fill="#1A154F" transform="translate(57,7)"/>
<path d="M0 0 C2 1 2 1 2 1 Z " fill="#1A154F" transform="translate(59,6)"/>
<path d="M0 0 C2 1 2 1 2 1 Z " fill="#1A154F" transform="translate(135,5)"/>
<path d="M0 0 C2 1 2 1 2 1 Z " fill="#1A154F" transform="translate(61,5)"/>
<path d="" fill="#1A154F" transform="translate(0,0)"/>
<path d="" fill="#1A154F" transform="translate(0,0)"/>
<path d="" fill="#1A154F" transform="translate(0,0)"/>
<path d="" fill="#1A154F" transform="translate(0,0)"/>
<path d="" fill="#1A154F" transform="translate(0,0)"/>
<path d="" fill="#1A154F" transform="translate(0,0)"/>
<path d="" fill="#1A154F" transform="translate(0,0)"/>
<path d="" fill="#1A154F" transform="translate(0,0)"/>
<path d="" fill="#1A154F" transform="translate(0,0)"/>
<path d="" fill="#1A154F" transform="translate(0,0)"/>
<path d="" fill="#1A154F" transform="translate(0,0)"/>
<path d="" fill="#1A154F" transform="translate(0,0)"/>
<path d="" fill="#1A154F" transform="translate(0,0)"/>
<path d="" fill="#1A154F" transform="translate(0,0)"/>
<path d="" fill="#1A154F" transform="translate(0,0)"/>
<path d="" fill="#1A154F" transform="translate(0,0)"/>
<path d="" fill="#1A154F" transform="translate(0,0)"/>
<path d="" fill="#1A154F" transform="translate(0,0)"/>
<path d="" fill="#1A154F" transform="translate(0,0)"/>
<path d="" fill="#1A154F" transform="translate(0,0)"/>
<path d="" fill="#1A154F" transform="translate(0,0)"/>
<path d="" fill="#1A154F" transform="translate(0,0)"/>
<path d="" fill="#1A154F" transform="translate(0,0)"/>
<path d="" fill="#1A154F" transform="translate(0,0)"/>
<path d="" fill="#1A154F" transform="translate(0,0)"/>
<path d="" fill="#1A154F" transform="translate(0,0)"/>
<path d="" fill="#1A154F" transform="translate(0,0)"/>
<path d="" fill="#1A154F" transform="translate(0,0)"/>
<path d="" fill="#1A154F" transform="translate(0,0)"/>
<path d="" fill="#1A154F" transform="translate(0,0)"/>
<path d="" fill="#1A154F" transform="translate(0,0)"/>
<path d="" fill="#1A154F" transform="translate(0,0)"/>
<path d="" fill="#1A154F" transform="translate(0,0)"/>
<path d="" fill="#1A154F" transform="translate(0,0)"/>
<path d="" fill="#1A154F" transform="translate(0,0)"/>
<path d="" fill="#1A154F" transform="translate(0,0)"/>
<path d="" fill="#1A154F" transform="translate(0,0)"/>
<path d="" fill="#1A154F" transform="translate(0,0)"/>
<path d="" fill="#1A154F" transform="translate(0,0)"/>
<path d="" fill="#1A154F" transform="translate(0,0)"/>
<path d="" fill="#1A154F" transform="translate(0,0)"/>
<path d="" fill="#1A154F" transform="translate(0,0)"/>
<path d="" fill="#1A154F" transform="translate(0,0)"/>
<path d="" fill="#1A154F" transform="translate(0,0)"/>
<path d="" fill="#1A154F" transform="translate(0,0)"/>
<path d="" fill="#1A154F" transform="translate(0,0)"/>
<path d="" fill="#1A154F" transform="translate(0,0)"/>
<path d="" fill="#1A154F" transform="translate(0,0)"/>
<path d="" fill="#1A154F" transform="translate(0,0)"/>
<path d="" fill="#1A154F" transform="translate(0,0)"/>
<path d="" fill="#1A154F" transform="translate(0,0)"/>
<path d="" fill="#1A154F" transform="translate(0,0)"/>
<path d="" fill="#1A154F" transform="translate(0,0)"/>
<path d="" fill="#1A154F" transform="translate(0,0)"/>
<path d="" fill="#1A154F" transform="translate(0,0)"/>
<path d="" fill="#1A154F" transform="translate(0,0)"/>
<path d="" fill="#1A154F" transform="translate(0,0)"/>
<path d="" fill="#1A154F" transform="translate(0,0)"/>
<path d="" fill="#1A154F" transform="translate(0,0)"/>
<path d="" fill="#1A154F" transform="translate(0,0)"/>
<path d="" fill="#1A154F" transform="translate(0,0)"/>
<path d="" fill="#1A154F" transform="translate(0,0)"/>
<path d="" fill="#1A154F" transform="translate(0,0)"/>
<path d="" fill="#1A154F" transform="translate(0,0)"/>
</svg>
