<?xml version="1.0" encoding="UTF-8"?>
<svg version="1.1" xmlns="http://www.w3.org/2000/svg" width="64" height="64">
<path d="M0 0 C21.12 0 42.24 0 64 0 C64 21.12 64 42.24 64 64 C42.88 64 21.76 64 0 64 C0 42.88 0 21.76 0 0 Z " fill="#000000" transform="translate(0,0)"/>
<path d="M0 0 C3.24298429 1.08099476 3.81612526 1.65626616 5.75 4.3125 C6.42289063 5.20388672 6.42289063 5.20388672 7.109375 6.11328125 C8 8 8 8 7.97265625 9.90625 C5.43539575 15.36798344 -0.58015705 19.63181641 -6 22 C-12.57800267 23.41616712 -19.30865612 23.22682522 -26 23 C-26.33 24.32 -26.66 25.64 -27 27 C-25.02 28.65 -23.04 30.3 -21 32 C-17.2047869 30.50902342 -15.38957269 28.24299151 -13 25 C-13.33 24.34 -13.66 23.68 -14 23 C-12.35 23 -10.7 23 -9 23 C-8.16015625 24.640625 -8.16015625 24.640625 -8 27 C-9.75836408 29.1302685 -11.42424794 30.8949842 -13.4375 32.75 C-13.96666016 33.25660156 -14.49582031 33.76320312 -15.04101562 34.28515625 C-16.34977101 35.53495869 -17.67351959 36.76902618 -19 38 C-23.29718953 36.61085525 -25.70687757 34.61968015 -28.8125 31.375 C-29.60269531 30.55773437 -30.39289062 29.74046875 -31.20703125 28.8984375 C-31.79871094 28.27195312 -32.39039062 27.64546875 -33 27 C-31.75189586 23.54371162 -30.50788002 20.71215955 -28 18 C-25.87451172 17.56518555 -25.87451172 17.56518555 -23.4296875 17.63671875 C-22.53660889 17.64050537 -21.64353027 17.64429199 -20.72338867 17.64819336 C-19.78342041 17.66116455 -18.84345215 17.67413574 -17.875 17.6875 C-10.13072767 17.59880256 -4.97634764 17.19609736 0.76953125 11.49609375 C1.17558594 11.00238281 1.58164062 10.50867187 2 10 C0.78534783 6.92254092 -0.47647232 3.93823196 -2 1 C-1.34 0.67 -0.68 0.34 0 0 Z " fill="#BEFB70" transform="translate(52,13)"/>
<path d="M0 0 C1.32 0.66 2.64 1.32 4 2 C3.319375 2.928125 2.63875 3.85625 1.9375 4.8125 C1.298125 5.864375 0.65875 6.91625 0 8 C1.1393435 11.4180305 1.97410915 12.00348178 4.8125 14.0625 C5.49957031 14.56910156 6.18664063 15.07570313 6.89453125 15.59765625 C8.87417253 16.91619283 10.84948259 17.98998171 13 19 C12.01 19.99 11.02 20.98 10 22 C5.64352355 20.55049595 2.68242711 18.32252888 -0.8125 15.375 C-1.78832031 14.55773438 -2.76414062 13.74046875 -3.76953125 12.8984375 C-4.50558594 12.27195312 -5.24164063 11.64546875 -6 11 C-5.39305845 7.84669446 -4.3583335 5.81111133 -2.4375 3.25 C-1.98246094 2.63640625 -1.52742187 2.0228125 -1.05859375 1.390625 C-0.70925781 0.93171875 -0.35992187 0.4728125 0 0 Z " fill="#BDFB70" transform="translate(10,13)"/>
</svg>
