<?xml version="1.0" encoding="UTF-8"?>
<svg version="1.1" xmlns="http://www.w3.org/2000/svg" width="200" height="200">
<path d="M0 0 C2.82045877 2.30263418 5.56336058 4.67903285 8.27832031 7.10449219 C11.1535235 9.666713 11.1535235 9.666713 14.50878906 11.77246094 C17.18066406 13.58496094 17.18066406 13.58496094 17.86816406 15.77246094 C18.02285156 16.66964844 18.02285156 16.66964844 18.18066406 17.58496094 C19.17066406 17.91496094 20.16066406 18.24496094 21.18066406 18.58496094 C21.51066406 19.57496094 21.84066406 20.56496094 22.18066406 21.58496094 C22.78394531 22.1740625 23.38722656 22.76316406 24.00878906 23.37011719 C26.61161449 26.02443736 28.16331475 28.75588582 29.93066406 32.02246094 C30.85105469 33.69115234 30.85105469 33.69115234 31.79003906 35.39355469 C33.13514811 38.48050439 33.50200878 40.27881822 33.18066406 43.58496094 C33.84066406 43.58496094 34.50066406 43.58496094 35.18066406 43.58496094 C39.64424539 56.0781479 40.85665551 67.12735329 40.55566406 80.33496094 C40.53909422 82.04587815 40.52476266 83.75681854 40.51269531 85.46777344 C40.3702832 98.68935945 40.3702832 98.68935945 39.18066406 103.58496094 C38.52066406 103.58496094 37.86066406 103.58496094 37.18066406 103.58496094 C37.18066406 105.89496094 37.18066406 108.20496094 37.18066406 110.58496094 C36.52066406 110.58496094 35.86066406 110.58496094 35.18066406 110.58496094 C34.52066406 113.88496094 33.86066406 117.18496094 33.18066406 120.58496094 C32.52066406 120.58496094 31.86066406 120.58496094 31.18066406 120.58496094 C31.10589844 121.42542969 31.03113281 122.26589844 30.95410156 123.13183594 C30.00301116 127.37811833 28.20111083 130.25695184 25.80566406 133.83496094 C25.40605469 134.45886719 25.00644531 135.08277344 24.59472656 135.72558594 C22.64505024 138.70140769 21.175244 140.58857431 18.18066406 142.58496094 C17.87128906 143.24496094 17.56191406 143.90496094 17.24316406 144.58496094 C16.18066406 146.58496094 16.18066406 146.58496094 14.29394531 147.52246094 C12.05773456 148.64676653 10.95666201 149.72870379 9.30566406 151.58496094 C-7.5531495 168.76523493 -31.7922615 178.47350042 -55.67724609 178.87768555 C-83.14890277 179.03784131 -105.50892955 171.73865683 -126.31811523 153.40429688 C-129.3378039 150.75277047 -132.36813316 148.62599484 -135.81933594 146.58496094 C-136.52084746 145.26962683 -137.18459519 143.93378502 -137.81933594 142.58496094 C-139.08777344 141.37839844 -139.08777344 141.37839844 -140.38183594 140.14746094 C-142.93144067 137.46710724 -143.50996572 136.19428011 -143.81933594 132.58496094 C-144.80933594 132.25496094 -145.79933594 131.92496094 -146.81933594 131.58496094 C-150.62798259 125.57828936 -153.21756631 119.65575401 -153.81933594 112.58496094 C-154.47933594 111.59496094 -155.13933594 110.60496094 -155.81933594 109.58496094 C-156.19144014 108.26192377 -156.52563767 106.92758159 -156.81933594 105.58496094 C-157.14933594 104.59496094 -157.47933594 103.60496094 -157.81933594 102.58496094 C-158.14933594 102.58496094 -158.47933594 102.58496094 -158.81933594 102.58496094 C-158.87027326 96.32278946 -158.90516878 90.06067193 -158.92919922 83.79833984 C-158.93922299 81.67038984 -158.95284555 79.5424535 -158.97021484 77.41455078 C-158.99462286 74.34631976 -159.00585555 71.27827173 -159.01464844 68.20996094 C-159.02497101 67.26693115 -159.03529358 66.32390137 -159.04592896 65.35229492 C-159.04686971 59.74541582 -158.41278806 54.96630789 -156.81933594 49.58496094 C-156.15933594 49.58496094 -155.49933594 49.58496094 -154.81933594 49.58496094 C-154.69816406 48.88628906 -154.57699219 48.18761719 -154.45214844 47.46777344 C-154.28457031 46.55769531 -154.11699219 45.64761719 -153.94433594 44.70996094 C-153.78191406 43.80503906 -153.61949219 42.90011719 -153.45214844 41.96777344 C-152.81933594 39.58496094 -152.81933594 39.58496094 -150.81933594 37.58496094 C-149.71378412 35.63398714 -148.89319267 33.94732054 -148.44433594 31.74511719 C-147.67559861 29.08816878 -146.42875814 27.18569548 -144.88183594 24.89746094 C-144.3571875 24.10984375 -143.83253906 23.32222656 -143.29199219 22.51074219 C-141.81933594 20.58496094 -141.81933594 20.58496094 -139.81933594 19.58496094 C-139.48933594 18.59496094 -139.15933594 17.60496094 -138.81933594 16.58496094 C-138.25988281 16.318125 -137.70042969 16.05128906 -137.12402344 15.77636719 C-133.75454168 14.03451645 -131.50732154 11.25605376 -128.94433594 8.52246094 C-95.59880991 -25.77011212 -37.69548479 -29.31871039 0 0 Z M34.18066406 46.58496094 C35.18066406 48.58496094 35.18066406 48.58496094 35.18066406 48.58496094 Z M35.18066406 49.58496094 C36.18066406 51.58496094 36.18066406 51.58496094 36.18066406 51.58496094 Z M36.18066406 52.58496094 C37.18066406 55.58496094 37.18066406 55.58496094 37.18066406 55.58496094 Z M-156.81933594 53.58496094 C-155.81933594 56.58496094 -155.81933594 56.58496094 -155.81933594 56.58496094 Z M37.18066406 56.58496094 C38.18066406 59.58496094 38.18066406 59.58496094 38.18066406 59.58496094 Z M-157.81933594 57.58496094 C-156.81933594 61.58496094 -156.81933594 61.58496094 -156.81933594 61.58496094 Z M38.18066406 60.58496094 C38.18066406 62.23496094 38.18066406 63.88496094 38.18066406 65.58496094 C38.51066406 65.58496094 38.84066406 65.58496094 39.18066406 65.58496094 C39.18066406 63.93496094 39.18066406 62.28496094 39.18066406 60.58496094 C38.85066406 60.58496094 38.52066406 60.58496094 38.18066406 60.58496094 Z M38.18066406 93.58496094 C38.18066406 95.23496094 38.18066406 96.88496094 38.18066406 98.58496094 C38.51066406 98.58496094 38.84066406 98.58496094 39.18066406 98.58496094 C39.18066406 96.93496094 39.18066406 95.28496094 39.18066406 93.58496094 C38.85066406 93.58496094 38.52066406 93.58496094 38.18066406 93.58496094 Z " fill="#FCFCFE" transform="translate(158.8193359375,19.4150390625)"/>
<path d="M0 0 C0.495 1.485 0.495 1.485 1 3 C1.94875 3.45375 2.8975 3.9075 3.875 4.375 C7.47146266 6.24516058 8.27031603 7.40286963 10 11 C10.91784066 17.97756284 10.57704938 26.3825516 8 33 C5.375 35 5.375 35 3 36 C3 36.66 3 37.32 3 38 C-1.79255457 40.47516707 -6.36359063 40.33242958 -11.625 40.3125 C-12.91277344 40.33666992 -12.91277344 40.33666992 -14.2265625 40.36132812 C-15.0515625 40.36197266 -15.8765625 40.36261719 -16.7265625 40.36328125 C-17.47502441 40.36626221 -18.22348633 40.36924316 -18.99462891 40.37231445 C-21.54155779 39.89945512 -22.32333956 38.92447616 -24 37 C-25.2375 36.071875 -25.2375 36.071875 -26.5 35.125 C-30.09119693 32.07248261 -32.30962837 28.69452708 -33 24 C-33.22790662 19.74574307 -33.33594576 16.64991525 -31 13 C-32.32 12.34 -33.64 11.68 -35 11 C-35 7.7 -35 4.4 -35 1 C-33.68 1 -32.36 1 -31 1 C-31 1.99 -31 2.98 -31 4 C-30.34 3.01 -29.68 2.02 -29 1 C-26.5625 0.125 -26.5625 0.125 -24 0 C-22.1875 1.4375 -22.1875 1.4375 -21 3 C-20.46246094 2.52046875 -19.92492187 2.0409375 -19.37109375 1.546875 C-16.47746866 -0.34089359 -14.49202716 -0.52511297 -11.0625 -0.75 C-9.53302734 -0.86601563 -9.53302734 -0.86601563 -7.97265625 -0.984375 C-5.14720499 -0.99922625 -2.73724136 -0.66540674 0 0 Z " fill="#644BBE" transform="translate(35,86)"/>
<path d="M0 0 C0.97066406 -0.00515625 1.94132812 -0.0103125 2.94140625 -0.015625 C5.4375 0.25 5.4375 0.25 7.4375 2.25 C8.4275 2.91 9.4175 3.57 10.4375 4.25 C10.4375 4.91 10.4375 5.57 10.4375 6.25 C11.4275 5.92 12.4175 5.59 13.4375 5.25 C13.7675 4.59 14.0975 3.93 14.4375 3.25 C18.61474652 2.29027915 22.72367034 2.06058554 27 2 C28.09441406 1.97421875 29.18882813 1.9484375 30.31640625 1.921875 C33.80492162 2.28862755 35.64360533 3.16847268 38.4375 5.25 C39.83181504 8.03863007 39.69410094 10.17078868 39.4375 13.25 C35.80554504 15.67130331 34.05400652 15.46022785 29.75 15.375 C28.57050781 15.35695313 27.39101562 15.33890625 26.17578125 15.3203125 C25.27214844 15.29710938 24.36851563 15.27390625 23.4375 15.25 C23.57799518 16.72968324 23.72504826 18.20874516 23.875 19.6875 C23.95621094 20.51121094 24.03742188 21.33492187 24.12109375 22.18359375 C24.22680815 24.23662025 24.22680815 24.23662025 25.4375 25.25 C28.23958077 25.78522891 31.05219091 26.21499116 33.87109375 26.65234375 C36.4375 27.25 36.4375 27.25 38.4375 29.25 C38.83797444 31.57275177 39.1772104 33.90739357 39.4375 36.25 C35.88958384 39.64166079 32.25696188 39.91616872 27.5625 40.1875 C26.86769531 40.25517578 26.17289063 40.32285156 25.45703125 40.39257812 C20.17811622 40.73555848 17.51465401 39.49739646 13.4375 36.25 C12.509375 35.610625 11.58125 34.97125 10.625 34.3125 C6.84954274 29.02685983 6.78737687 22.16986007 7.8359375 15.84765625 C8.375 13.9375 8.375 13.9375 9.4375 11.25 C9.1075 11.58 8.7775 11.91 8.4375 12.25 C6.77735384 12.61442233 5.11043936 12.94972883 3.4375 13.25 C3.4375 13.91 3.4375 14.57 3.4375 15.25 C2.1175 15.25 0.7975 15.25 -0.5625 15.25 C-0.5625 22.51 -0.5625 29.77 -0.5625 37.25 C-3.15766521 38.54758261 -5.10433027 38.38269102 -8 38.375 C-8.96808594 38.37757812 -9.93617187 38.38015625 -10.93359375 38.3828125 C-13.5625 38.25 -13.5625 38.25 -16.5625 37.25 C-16.5182805 33.19247958 -16.44838169 29.13628418 -16.35498047 25.07958984 C-16.32680901 23.70048349 -16.30557528 22.32121682 -16.29150391 20.94189453 C-16.27002455 18.95577051 -16.22126868 16.97000091 -16.171875 14.984375 C-16.15092773 13.79038086 -16.12998047 12.59638672 -16.10839844 11.36621094 C-15.45859102 7.65684518 -14.47184004 6.55658717 -11.5625 4.25 C-5.14638375 -0.02741083 -5.14638375 -0.02741083 0 0 Z " fill="#654DBE" transform="translate(64.5625,86.75)"/>
<path d="M0 0 C1.8125 1.125 1.8125 1.125 3 3 C3.1875 6.6875 3.1875 6.6875 3 10 C6.63 10 10.26 10 14 10 C14 10.33 14 10.66 14 11 C9.71 11 5.42 11 1 11 C1.33 11.33 1.66 11.66 2 12 C3.89628198 11.99410177 5.79249856 11.94492625 7.6875 11.875 C13.4909406 11.82675287 16.92667324 12.75339998 21.63183594 16.19287109 C23.70266448 18.92810893 23.35467542 21.2127214 23.328125 24.6015625 C23.32296875 25.89578125 23.3178125 27.19 23.3125 28.5234375 C23.3021875 29.19600586 23.291875 29.86857422 23.28125 30.56152344 C23.25000708 32.62453225 23.24026992 34.68677773 23.234375 36.75 C23.15376635 46.84623365 23.15376635 46.84623365 22 48 C13.24620061 48.97264438 13.24620061 48.97264438 9.4375 46 C8.963125 45.34 8.48875 44.68 8 44 C7.67 44 7.34 44 7 44 C7 37.4 7 30.8 7 24 C5.68 24 4.36 24 3 24 C3 31.92 3 39.84 3 48 C-1.62 48.33 -6.24 48.66 -11 49 C-12.85761117 45.28477767 -13.24554818 44.34507673 -13.13525391 40.50683594 C-13.11508209 39.62622498 -13.09491028 38.74561401 -13.0741272 37.83831787 C-13.04193085 36.89651672 -13.0097345 35.95471558 -12.9765625 34.984375 C-12.95153656 34.01340881 -12.92651062 33.04244263 -12.90072632 32.04205322 C-12.81863039 28.94434155 -12.722 25.84727731 -12.625 22.75 C-12.56674984 20.64846385 -12.50944679 18.54690122 -12.453125 16.4453125 C-12.31306686 11.2965034 -12.15997316 6.14822727 -12 1 C-3.98117647 -1.43764706 -3.98117647 -1.43764706 0 0 Z " fill="#6047BA" transform="translate(119,77)"/>
<path d="M0 0 C2.61527422 3.89278742 2.27118847 8.02286373 2.23046875 12.52734375 C2.23001053 13.3532753 2.22955231 14.17920685 2.2290802 15.03016663 C2.2260638 16.77427611 2.21819579 18.51838305 2.20581055 20.26245117 C2.18758957 22.92441415 2.18530078 25.5860281 2.18554688 28.24804688 C2.18062975 29.94531549 2.17480059 31.64258176 2.16796875 33.33984375 C2.16685593 34.13269272 2.1657431 34.92554169 2.16459656 35.74241638 C2.13154846 39.61452101 1.94069968 43.23579375 1 47 C-7.47819367 50.44042642 -14.75700047 51.49374037 -23.4375 48.125 C-26.21279493 46.92222371 -28.46651545 45.6889897 -31 44 C-31 43.34 -31 42.68 -31 42 C-31.66 41.67 -32.32 41.34 -33 41 C-33.36902464 33.04546878 -32.74085117 26.48408583 -30 19 C-29.67 18.01 -29.34 17.02 -29 16 C-27.25 15.4375 -27.25 15.4375 -25 15 C-23.3255761 14.3530635 -21.65697379 13.69040574 -20 13 C-20 12.34 -20 11.68 -20 11 C-17.36 11 -14.72 11 -12 11 C-12 8.36 -12 5.72 -12 3 C-4.375 0.875 -4.375 0.875 -1 2 C-0.67 1.34 -0.34 0.68 0 0 Z M0 4 C0 5.65 0 7.3 0 9 C0.33 9 0.66 9 1 9 C1 7.35 1 5.7 1 4 C0.67 4 0.34 4 0 4 Z M0 37 C0 38.65 0 40.3 0 42 C0.33 42 0.66 42 1 42 C1 40.35 1 38.7 1 37 C0.67 37 0.34 37 0 37 Z " fill="#5F45B9" transform="translate(197,76)"/>
<path d="M0 0 C1.19882813 0.15275391 1.19882813 0.15275391 2.421875 0.30859375 C3.02515625 0.39238281 3.6284375 0.47617188 4.25 0.5625 C5.4302738 4.1033214 5.2738386 7.18605373 5.12890625 10.85546875 C5.10529526 11.56149734 5.08168427 12.26752594 5.05735779 12.99494934 C4.98087055 15.24684507 4.89678253 17.49838387 4.8125 19.75 C4.75926432 21.27797741 4.70652401 22.80597216 4.65429688 24.33398438 C4.52527576 28.07704835 4.38943788 31.81981019 4.25 35.5625 C2.47925083 35.58955729 0.70838289 35.60892195 -1.0625 35.625 C-2.04863281 35.63660156 -3.03476563 35.64820313 -4.05078125 35.66015625 C-6.75 35.5625 -6.75 35.5625 -9.75 34.5625 C-9.42 23.3425 -9.09 12.1225 -8.75 0.5625 C-5.17489889 -0.33127528 -3.50082437 -0.4633444 0 0 Z " fill="#5F44BB" transform="translate(156.75,89.4375)"/>
<path d="M0 0 C0.33 0 0.66 0 1 0 C1 14.52 1 29.04 1 44 C0.01 44 -0.98 44 -2 44 C-2.99 40.535 -2.99 40.535 -4 37 C-5.15628906 36.81824219 -5.15628906 36.81824219 -6.3359375 36.6328125 C-7.33882812 36.46523437 -8.34171875 36.29765625 -9.375 36.125 C-10.37273437 35.96257812 -11.37046875 35.80015625 -12.3984375 35.6328125 C-15 35 -15 35 -17 33 C-17.4140625 30.8359375 -17.4140625 30.8359375 -17.625 28.375 C-17.69976562 27.55773437 -17.77453125 26.74046875 -17.8515625 25.8984375 C-17.90054688 25.27195312 -17.94953125 24.64546875 -18 24 C-13.03926578 22.67713754 -8.08888488 22.91106803 -3 23 C-1.78918149 19.89459074 -1.78918149 19.89459074 -2 16 C-1.34 16 -0.68 16 0 16 C0 10.72 0 5.44 0 0 Z " fill="#D9D8EE" transform="translate(105,78)"/>
<path d="M0 0 C0.7425 0.350625 1.485 0.70125 2.25 1.0625 C5.31649137 2.10789479 6.00853957 1.8798413 9 1 C11.33300933 0.96111651 13.66709801 0.9551365 16 1 C16 1.99 16 2.98 16 4 C16.66 4 17.32 4 18 4 C19.58200941 7.16401881 19.06168567 10.53874837 19 14 C19 14.99 19 15.98 19 17 C15.58459721 19.10178633 12.97748585 19.56821226 9 19 C6.125 16.5 6.125 16.5 4 14 C4.33 13.67 4.66 13.34 5 13 C4.34 12.67 3.68 12.34 3 12 C3 9.69 3 7.38 3 5 C1.02 4.34 -0.96 3.68 -3 3 C-2.01 2.67 -1.02 2.34 0 2 C0 1.34 0 0.68 0 0 Z " fill="#E9E9F8" transform="translate(12,96)"/>
<path d="M0 0 C2.4375 1.0625 2.4375 1.0625 4 2 C4 4.64 4 7.28 4 10 C-0.10416069 12.29832998 -4.55878463 14.06597879 -9.3125 13.9375 C-11 13 -11 13 -12.25 10.8125 C-13.06408712 7.75967331 -13.14631766 5.14582965 -13 2 C-7.9310128 -0.5344936 -5.7905735 -1.09821222 0 0 Z " fill="#664EBF" transform="translate(159,75)"/>
<path d="M0 0 C1.423125 0.2784375 1.423125 0.2784375 2.875 0.5625 C5.89868793 1.28686632 5.89868793 1.28686632 8 0 C7.67 4.29 7.34 8.58 7 13 C7.66 13.33 8.32 13.66 9 14 C6 16 6 16 3.5 15.625 C2.675 15.41875 1.85 15.2125 1 15 C0.01 15 -0.98 15 -2 15 C-2 13.68 -2 12.36 -2 11 C-1.34 11 -0.68 11 0 11 C0 9.741875 0 8.48375 0 7.1875 C0 4.79166667 0 2.39583333 0 0 Z " fill="#FFFFFF" transform="translate(180,100)"/>
<path d="M0 0 C0.99 0.33 1.98 0.66 3 1 C3 1.99 3 2.98 3 4 C3.66 3.01 4.32 2.02 5 1 C7.5 0.1875 7.5 0.1875 10 0 C12 2 12 2 12.125 5.125 C12.08375 6.07375 12.0425 7.0225 12 8 C8.37 7.67 4.74 7.34 1 7 C1.33 7.99 1.66 8.98 2 10 C1.01 9.67 0.02 9.34 -1 9 C-1.09765625 2.84765625 -1.09765625 2.84765625 -1 1 C-0.67 0.67 -0.34 0.34 0 0 Z " fill="#7A66CA" transform="translate(1,86)"/>
<path d="M0 0 C0.33 0.66 0.66 1.32 1 2 C0.67 2.99 0.34 3.98 0 5 C-0.66 4.67 -1.32 4.34 -2 4 C-1.67 3.01 -1.34 2.02 -1 1 C-1.99 1 -2.98 1 -4 1 C-4.33 2.98 -4.66 4.96 -5 7 C-6.98 6.34 -8.96 5.68 -11 5 C-11 2 -11 2 -10 0.25 C-6.62760193 -1.85774879 -3.80562213 -0.79795303 0 0 Z " fill="#5340AA" transform="translate(12,93)"/>
<path d="M0 0 C1.36421031 2.72842061 0.87807211 4.60953318 0.5625 7.625 C0.46066406 8.62789062 0.35882813 9.63078125 0.25390625 10.6640625 C0.17011719 11.43492188 0.08632812 12.20578125 0 13 C0.66 13.33 1.32 13.66 2 14 C-1 16 -1 16 -3.5 15.625 C-4.325 15.41875 -5.15 15.2125 -6 15 C-6.99 15 -7.98 15 -9 15 C-9 13.68 -9 12.36 -9 11 C-8.01 11 -7.02 11 -6 11 C-6 11.66 -6 12.32 -6 13 C-4.35 13 -2.7 13 -1 13 C-1.01160156 12.14535156 -1.02320313 11.29070312 -1.03515625 10.41015625 C-1.04417969 9.30542969 -1.05320313 8.20070313 -1.0625 7.0625 C-1.07410156 5.96035156 -1.08570313 4.85820313 -1.09765625 3.72265625 C-1 1 -1 1 0 0 Z " fill="#B0A7DA" transform="translate(187,100)"/>
<path d="M0 0 C0.33 0 0.66 0 1 0 C1 8.91 1 17.82 1 27 C0.67 27 0.34 27 0 27 C-0.06058594 26.38511719 -0.12117188 25.77023438 -0.18359375 25.13671875 C-0.26738281 24.32847656 -0.35117187 23.52023438 -0.4375 22.6875 C-0.51871094 21.88699219 -0.59992187 21.08648437 -0.68359375 20.26171875 C-0.95265693 17.83912821 -0.95265693 17.83912821 -2 15 C-2.11880354 13.1903182 -2.1751965 11.37603553 -2.1875 9.5625 C-2.20167969 8.61503906 -2.21585938 7.66757813 -2.23046875 6.69140625 C-1.99614518 3.95498356 -1.39701383 2.33571877 0 0 Z " fill="#2719CB" transform="translate(47,95)"/>
<path d="M0 0 C0.66 0.33 1.32 0.66 2 1 C1.67 1.969375 1.34 2.93875 1 3.9375 C-0.26873752 8.29766837 -0.18385528 12.49554566 0 17 C-0.33 15.68 -0.66 14.36 -1 13 C-1.66 13 -2.32 13 -3 13 C-2.67 10.03 -2.34 7.06 -2 4 C-4.64 4 -7.28 4 -10 4 C-10 3.67 -10 3.34 -10 3 C-6.7 2.67 -3.4 2.34 0 2 C0 1.34 0 0.68 0 0 Z " fill="#C1BBE7" transform="translate(73,97)"/>
<path d="M0 0 C0.99 0.33 1.98 0.66 3 1 C3 1.99 3 2.98 3 4 C4.32 4.66 5.64 5.32 7 6 C5.02 6.33 3.04 6.66 1 7 C1.33 7.99 1.66 8.98 2 10 C1.01 9.67 0.02 9.34 -1 9 C-1.09765625 2.84765625 -1.09765625 2.84765625 -1 1 C-0.67 0.67 -0.34 0.34 0 0 Z " fill="#917BCD" transform="translate(1,86)"/>
<path d="M0 0 C2.98828314 0.32305764 4.61321245 0.65189121 6.875 2.6875 C8.42489 5.873385 7.99856087 7.64768852 7 11 C6.01 11.99 5.02 12.98 4 14 C4 10.37 4 6.74 4 3 C2.68 2.67 1.36 2.34 0 2 C0 1.34 0 0.68 0 0 Z " fill="#957FDA" transform="translate(114,76)"/>
<path d="M0 0 C8.58 0 17.16 0 26 0 C26 0.33 26 0.66 26 1 C17.42 1 8.84 1 0 1 C0 0.67 0 0.34 0 0 Z " fill="#FFFFFF" transform="translate(86,199)"/>
<path d="M0 0 C0.33 0 0.66 0 1 0 C1 8.58 1 17.16 1 26 C0.67 26 0.34 26 0 26 C0 17.42 0 8.84 0 0 Z " fill="#5F45BA" transform="translate(199,86)"/>
<path d="M0 0 C0.99 0.33 1.98 0.66 3 1 C2.01 2.485 2.01 2.485 1 4 C0.60986284 5.9896995 0.26797351 7.99019869 0 10 C-0.66 10 -1.32 10 -2 10 C-2.25 3.375 -2.25 3.375 0 0 Z " fill="#977DD0" transform="translate(4,100)"/>
<path d="M0 0 C0.66 0.33 1.32 0.66 2 1 C-0.31 3.31 -2.62 5.62 -5 8 C-5 5 -5 5 -2.5 2.3125 C-1.675 1.549375 -0.85 0.78625 0 0 Z " fill="#FFFFFF" transform="translate(30,25)"/>
<path d="M0 0 C1.98 0 3.96 0 6 0 C6 0.33 6 0.66 6 1 C4.02 1 2.04 1 0 1 C0 0.67 0 0.34 0 0 Z " fill="#FFFFFF" transform="translate(112,198)"/>
<path d="M0 0 C1.98 0 3.96 0 6 0 C6 0.33 6 0.66 6 1 C4.02 1 2.04 1 0 1 C0 0.67 0 0.34 0 0 Z " fill="#FFFFFF" transform="translate(80,198)"/>
<path d="M0 0 C1.65 0 3.3 0 5 0 C5 0.33 5 0.66 5 1 C3.35 1 1.7 1 0 1 C0 0.67 0 0.34 0 0 Z " fill="#FFFFFF" transform="translate(118,197)"/>
<path d="M0 0 C1.65 0 3.3 0 5 0 C5 0.33 5 0.66 5 1 C3.35 1 1.7 1 0 1 C0 0.67 0 0.34 0 0 Z " fill="#FFFFFF" transform="translate(75,197)"/>
<path d="M0 0 C1.65 0 3.3 0 5 0 C5 0.33 5 0.66 5 1 C3.35 1 1.7 1 0 1 C0 0.67 0 0.34 0 0 Z " fill="#FFFFFF" transform="translate(117,0)"/>
<path d="M0 0 C1.65 0 3.3 0 5 0 C5 0.33 5 0.66 5 1 C3.35 1 1.7 1 0 1 C0 0.67 0 0.34 0 0 Z " fill="#FFFFFF" transform="translate(76,0)"/>
<path d="M0 0 C4 1 4 1 4 1 Z " fill="#FFFFFF" transform="translate(123,196)"/>
<path d="M0 0 C4 1 4 1 4 1 Z " fill="#FFFFFF" transform="translate(68,195)"/>
<path d="M0 0 C4 1 4 1 4 1 Z " fill="#FFFFFF" transform="translate(69,2)"/>
<path d="M0 0 C4 1 4 1 4 1 Z " fill="#FFFFFF" transform="translate(122,1)"/>
<path d="M0 0 C3 1 3 1 3 1 Z " fill="#FFFFFF" transform="translate(72,196)"/>
<path d="M0 0 C3 1 3 1 3 1 Z " fill="#FFFFFF" transform="translate(127,195)"/>
<path d="M0 0 C3 1 3 1 3 1 Z " fill="#FFFFFF" transform="translate(130,194)"/>
<path d="M0 0 C3 1 3 1 3 1 Z " fill="#FFFFFF" transform="translate(65,194)"/>
<path d="M0 0 C3 1 3 1 3 1 Z " fill="#FFFFFF" transform="translate(135,192)"/>
<path d="M0 0 C3 1 3 1 3 1 Z " fill="#FFFFFF" transform="translate(60,192)"/>
<path d="" fill="#FFFFFF" transform="translate(0,0)"/>
<path d="" fill="#FFFFFF" transform="translate(0,0)"/>
<path d="" fill="#FFFFFF" transform="translate(0,0)"/>
<path d="" fill="#D4D4FF" transform="translate(0,0)"/>
<path d="" fill="#FFFFFF" transform="translate(0,0)"/>
<path d="" fill="#FFFFFF" transform="translate(0,0)"/>
<path d="M0 0 C3 1 3 1 3 1 Z " fill="#FFFFFF" transform="translate(137,6)"/>
<path d="M0 0 C3 1 3 1 3 1 Z " fill="#FFFFFF" transform="translate(132,4)"/>
<path d="M0 0 C3 1 3 1 3 1 Z " fill="#FFFFFF" transform="translate(63,4)"/>
<path d="M0 0 C3 1 3 1 3 1 Z " fill="#FFFFFF" transform="translate(129,3)"/>
<path d="M0 0 C3 1 3 1 3 1 Z " fill="#FFFFFF" transform="translate(66,3)"/>
<path d="M0 0 C3 1 3 1 3 1 Z " fill="#FFFFFF" transform="translate(126,2)"/>
<path d="M0 0 C3 1 3 1 3 1 Z " fill="#FFFFFF" transform="translate(73,1)"/>
<path d="M0 0 C2 1 2 1 2 1 Z " fill="#FFFFFF" transform="translate(133,193)"/>
<path d="M0 0 C2 1 2 1 2 1 Z " fill="#FFFFFF" transform="translate(63,193)"/>
<path d="M0 0 C2 1 2 1 2 1 Z " fill="#FFFFFF" transform="translate(138,191)"/>
<path d="M0 0 C2 1 2 1 2 1 Z " fill="#FFFFFF" transform="translate(58,191)"/>
<path d="M0 0 C2 1 2 1 2 1 Z " fill="#FFFFFF" transform="translate(140,190)"/>
<path d="M0 0 C2 1 2 1 2 1 Z " fill="#FFFFFF" transform="translate(56,190)"/>
<path d="M0 0 C2 1 2 1 2 1 Z " fill="#FFFFFF" transform="translate(142,189)"/>
<path d="M0 0 C2 1 2 1 2 1 Z " fill="#FFFFFF" transform="translate(54,189)"/>
<path d="M0 0 C2 1 2 1 2 1 Z " fill="#FFFFFF" transform="translate(144,188)"/>
<path d="M0 0 C2 1 2 1 2 1 Z " fill="#FFFFFF" transform="translate(52,188)"/>
<path d="M0 0 C2 1 2 1 2 1 Z " fill="#FFFFFF" transform="translate(146,187)"/>
<path d="M0 0 C2 1 2 1 2 1 Z " fill="#FFFFFF" transform="translate(50,187)"/>
<path d="M0 0 C2 1 2 1 2 1 Z " fill="#FFFFFF" transform="translate(148,186)"/>
<path d="M0 0 C2 1 2 1 2 1 Z " fill="#FFFFFF" transform="translate(47,185)"/>
<path d="M0 0 C2 1 2 1 2 1 Z " fill="#FFFFFF" transform="translate(151,184)"/>
<path d="M0 0 C2 1 2 1 2 1 Z " fill="#FFFFFF" transform="translate(45,184)"/>
<path d="M0 0 C2 1 2 1 2 1 Z " fill="#FFFFFF" transform="translate(154,182)"/>
<path d="M0 0 C2 1 2 1 2 1 Z " fill="#FFFFFF" transform="translate(42,182)"/>
<path d="M0 0 C2 1 2 1 2 1 Z " fill="#FFFFFF" transform="translate(157,180)"/>
<path d="M0 0 C2 1 2 1 2 1 Z " fill="#FFFFFF" transform="translate(38,179)"/>
<path d="M0 0 C2 1 2 1 2 1 Z " fill="#FFFFFF" transform="translate(162,176)"/>
<path d="M0 0 C2 1 2 1 2 1 Z " fill="#FFFFFF" transform="translate(32,174)"/>
<path d="" fill="#FFFFFF" transform="translate(0,0)"/>
<path d="" fill="#FFFFFF" transform="translate(0,0)"/>
<path d="" fill="#FFFFFF" transform="translate(0,0)"/>
<path d="" fill="#FFFFFF" transform="translate(0,0)"/>
<path d="" fill="#FFFFFF" transform="translate(0,0)"/>
<path d="" fill="#FFFFFF" transform="translate(0,0)"/>
<path d="" fill="#FFFFFF" transform="translate(0,0)"/>
<path d="" fill="#FFFFFF" transform="translate(0,0)"/>
<path d="M0 0 C2 1 2 1 2 1 Z " fill="#FFFFFF" transform="translate(164,23)"/>
<path d="M0 0 C2 1 2 1 2 1 Z " fill="#FFFFFF" transform="translate(37,19)"/>
<path d="M0 0 C2 1 2 1 2 1 Z " fill="#FFFFFF" transform="translate(158,18)"/>
<path d="M0 0 C2 1 2 1 2 1 Z " fill="#FFFFFF" transform="translate(155,16)"/>
<path d="M0 0 C2 1 2 1 2 1 Z " fill="#FFFFFF" transform="translate(41,16)"/>
<path d="M0 0 C2 1 2 1 2 1 Z " fill="#FFFFFF" transform="translate(152,14)"/>
<path d="M0 0 C2 1 2 1 2 1 Z " fill="#FFFFFF" transform="translate(44,14)"/>
<path d="M0 0 C2 1 2 1 2 1 Z " fill="#FFFFFF" transform="translate(149,12)"/>
<path d="M0 0 C2 1 2 1 2 1 Z " fill="#FFFFFF" transform="translate(47,12)"/>
<path d="M0 0 C2 1 2 1 2 1 Z " fill="#FFFFFF" transform="translate(147,11)"/>
<path d="M0 0 C2 1 2 1 2 1 Z " fill="#FFFFFF" transform="translate(49,11)"/>
<path d="M0 0 C2 1 2 1 2 1 Z " fill="#FFFFFF" transform="translate(51,10)"/>
<path d="M0 0 C2 1 2 1 2 1 Z " fill="#FFFFFF" transform="translate(144,9)"/>
<path d="M0 0 C2 1 2 1 2 1 Z " fill="#FFFFFF" transform="translate(53,9)"/>
<path d="M0 0 C2 1 2 1 2 1 Z " fill="#FFFFFF" transform="translate(142,8)"/>
<path d="M0 0 C2 1 2 1 2 1 Z " fill="#FFFFFF" transform="translate(55,8)"/>
<path d="M0 0 C2 1 2 1 2 1 Z " fill="#FFFFFF" transform="translate(140,7)"/>
<path d="M0 0 C2 1 2 1 2 1 Z " fill="#FFFFFF" transform="translate(57,7)"/>
<path d="M0 0 C2 1 2 1 2 1 Z " fill="#FFFFFF" transform="translate(59,6)"/>
<path d="M0 0 C2 1 2 1 2 1 Z " fill="#FFFFFF" transform="translate(135,5)"/>
<path d="M0 0 C2 1 2 1 2 1 Z " fill="#FFFFFF" transform="translate(61,5)"/>
<path d="" fill="#FFFFFF" transform="translate(0,0)"/>
<path d="" fill="#FFFFFF" transform="translate(0,0)"/>
<path d="" fill="#FFFFFF" transform="translate(0,0)"/>
<path d="" fill="#FFFFFF" transform="translate(0,0)"/>
<path d="" fill="#FFFFFF" transform="translate(0,0)"/>
<path d="" fill="#FFFFFF" transform="translate(0,0)"/>
<path d="" fill="#FFFFFF" transform="translate(0,0)"/>
<path d="" fill="#FFFFFF" transform="translate(0,0)"/>
<path d="" fill="#FFFFFF" transform="translate(0,0)"/>
<path d="" fill="#FFFFFF" transform="translate(0,0)"/>
<path d="" fill="#FFFFFF" transform="translate(0,0)"/>
<path d="" fill="#FFFFFF" transform="translate(0,0)"/>
<path d="" fill="#FFFFFF" transform="translate(0,0)"/>
<path d="" fill="#FFFFFF" transform="translate(0,0)"/>
<path d="" fill="#FFFFFF" transform="translate(0,0)"/>
<path d="" fill="#FFFFFF" transform="translate(0,0)"/>
<path d="" fill="#FFFFFF" transform="translate(0,0)"/>
<path d="" fill="#FFFFFF" transform="translate(0,0)"/>
<path d="" fill="#FFFFFF" transform="translate(0,0)"/>
<path d="" fill="#FFFFFF" transform="translate(0,0)"/>
<path d="" fill="#FFFFFF" transform="translate(0,0)"/>
<path d="" fill="#FFFFFF" transform="translate(0,0)"/>
<path d="" fill="#FFFFFF" transform="translate(0,0)"/>
<path d="" fill="#FFFFFF" transform="translate(0,0)"/>
<path d="" fill="#FFFFFF" transform="translate(0,0)"/>
<path d="" fill="#FFFFFF" transform="translate(0,0)"/>
<path d="" fill="#FFFFFF" transform="translate(0,0)"/>
<path d="" fill="#FFFFFF" transform="translate(0,0)"/>
<path d="" fill="#FFFFFF" transform="translate(0,0)"/>
<path d="" fill="#FFFFFF" transform="translate(0,0)"/>
<path d="" fill="#FFFFFF" transform="translate(0,0)"/>
<path d="" fill="#FFFFFF" transform="translate(0,0)"/>
<path d="" fill="#FFFFFF" transform="translate(0,0)"/>
<path d="" fill="#FFFFFF" transform="translate(0,0)"/>
<path d="" fill="#FFFFFF" transform="translate(0,0)"/>
<path d="" fill="#FFFFFF" transform="translate(0,0)"/>
<path d="" fill="#FFFFFF" transform="translate(0,0)"/>
<path d="" fill="#FFFFFF" transform="translate(0,0)"/>
<path d="" fill="#FFFFFF" transform="translate(0,0)"/>
<path d="" fill="#FFFFFF" transform="translate(0,0)"/>
<path d="" fill="#FFFFFF" transform="translate(0,0)"/>
<path d="" fill="#FFFFFF" transform="translate(0,0)"/>
<path d="" fill="#FFFFFF" transform="translate(0,0)"/>
<path d="" fill="#FFFFFF" transform="translate(0,0)"/>
<path d="" fill="#FFFFFF" transform="translate(0,0)"/>
<path d="" fill="#FFFFFF" transform="translate(0,0)"/>
<path d="" fill="#FFFFFF" transform="translate(0,0)"/>
<path d="" fill="#FFFFFF" transform="translate(0,0)"/>
<path d="" fill="#FFFFFF" transform="translate(0,0)"/>
<path d="" fill="#FFFFFF" transform="translate(0,0)"/>
<path d="" fill="#FFFFFF" transform="translate(0,0)"/>
<path d="" fill="#FFFFFF" transform="translate(0,0)"/>
<path d="" fill="#FFFFFF" transform="translate(0,0)"/>
<path d="" fill="#FFFFFF" transform="translate(0,0)"/>
<path d="" fill="#FFFFFF" transform="translate(0,0)"/>
<path d="" fill="#FFFFFF" transform="translate(0,0)"/>
<path d="" fill="#FFFFFF" transform="translate(0,0)"/>
<path d="" fill="#FFFFFF" transform="translate(0,0)"/>
<path d="" fill="#FFFFFF" transform="translate(0,0)"/>
<path d="" fill="#FFFFFF" transform="translate(0,0)"/>
<path d="" fill="#FFFFFF" transform="translate(0,0)"/>
<path d="" fill="#FFFFFF" transform="translate(0,0)"/>
<path d="" fill="#FFFFFF" transform="translate(0,0)"/>
<path d="" fill="#FFFFFF" transform="translate(0,0)"/>
</svg>
