<?xml version="1.0" encoding="UTF-8"?>
<svg version="1.1" xmlns="http://www.w3.org/2000/svg" width="64" height="64">
<path d="M0 0 C3.038302 1.85039445 4.37577309 3.46868269 5.75 6.75 C6.41 6.75 7.07 6.75 7.75 6.75 C12.30128684 13.86138569 12.75557776 20.41530737 11.75 28.75 C10.71317951 31.81577093 9.50800751 34.00311327 7.75 36.75 C7.09 36.75 6.43 36.75 5.75 36.75 C5.37101562 37.65492187 5.37101562 37.65492187 4.984375 38.578125 C2.6863405 42.62150216 -0.9590897 44.25262027 -5.25 45.75 C-12.18410407 46.67507432 -19.36923969 46.88172946 -25.5078125 43.140625 C-31.32186807 38.49980934 -35.63875114 33.10132292 -37.25 25.75 C-38.15307249 17.62234761 -35.50080855 11.33197651 -30.5 4.9375 C-22.60109825 -3.46974692 -10.37334949 -5.41291096 0 0 Z " fill="#696B6B" transform="translate(44.25,11.25)"/>
<path d="M0 0 C0.99 0.66 1.98 1.32 3 2 C3.40843923 4.71203652 3.13336867 7.2437142 3 10 C4.32 10 5.64 10 7 10 C9.12551114 14.25102229 8.43325054 19.67317023 7 24.0625 C6.67 24.701875 6.34 25.34125 6 26 C6.66 26.33 7.32 26.66 8 27 C7.34 27.99 6.68 28.98 6 30 C5.34 30 4.68 30 4 30 C3.71125 30.639375 3.4225 31.27875 3.125 31.9375 C2 34 2 34 0 35 C0 34.34 0 33.68 0 33 C-0.928125 33.66 -1.85625 34.32 -2.8125 35 C-7.6570211 37.83095472 -12.55522975 37.35445159 -18 37 C-17.3125 34.1875 -17.3125 34.1875 -16 31 C-15.154375 30.608125 -14.30875 30.21625 -13.4375 29.8125 C-12.2309375 28.9153125 -12.2309375 28.9153125 -11 28 C-10.61243143 25.44517198 -10.61243143 25.44517198 -10.5625 22.5625 C-10.33329211 17.31155567 -10.33329211 17.31155567 -7.125 14.3125 C-4 13 -4 13 -1 13 C-1 13.66 -1 14.32 -1 15 C-4.465 16.485 -4.465 16.485 -8 18 C-8 20.64 -8 23.28 -8 26 C-7.401875 25.67 -6.80375 25.34 -6.1875 25 C-4 24 -4 24 -1 24 C-0.67 16.08 -0.34 8.16 0 0 Z " fill="#6F7172" transform="translate(46,18)"/>
<path d="M0 0 C3.98671063 1.36687222 6.88494633 3.15195093 10 6 C10 6.66 10 7.32 10 8 C10.66 8 11.32 8 12 8 C16.53907524 15.09230506 16.88063363 21.68518017 16 30 C14.9765625 32.421875 14.9765625 32.421875 14 34 C13.34 34 12.68 34 12 34 C12.16371094 33.29488281 12.32742187 32.58976562 12.49609375 31.86328125 C13.01699824 28.90341312 13.09866732 26.18938727 13.0625 23.1875 C13.05347656 22.21167969 13.04445313 21.23585938 13.03515625 20.23046875 C13.02355469 19.49441406 13.01195313 18.75835938 13 18 C11.68 18 10.36 18 9 18 C8.77213542 15.94921875 8.54427083 13.8984375 8.31640625 11.84765625 C8.18113386 9.98859771 8.18113386 9.98859771 7 9 C6.67 17.25 6.34 25.5 6 34 C5.67 33.34 5.34 32.68 5 32 C2.36 32.99 -0.28 33.98 -3 35 C-3.2878026 31.94929243 -3.44198649 29.04000462 -3 26 C-0.16755403 23.47376441 1.21564776 23 5 23 C5 22.34 5 21.68 5 21 C1.91495454 21.8784298 -0.57309668 22.87068736 -3 25 C-4.0217367 28.67931093 -4.1049094 32.19703434 -4 36 C-5.98 36.495 -5.98 36.495 -8 37 C-8 31.72 -8 26.44 -8 21 C-5.339375 19.7625 -5.339375 19.7625 -2.625 18.5 C-1.62726562 18.0359375 -0.62953125 17.571875 0.3984375 17.09375 C3 16 3 16 5 16 C4.88590407 14.54077307 4.75834456 13.08259402 4.625 11.625 C4.55539063 10.81289063 4.48578125 10.00078125 4.4140625 9.1640625 C4.17107412 6.79665809 4.17107412 6.79665809 2 5 C1.01 4.67 0.02 4.34 -1 4 C-0.67 2.68 -0.34 1.36 0 0 Z " fill="#343434" transform="translate(40,10)"/>
<path d="M0 0 C0.33 1.32 0.66 2.64 1 4 C-0.98 4 -2.96 4 -5 4 C-5.04898437 5.19238281 -5.09796875 6.38476562 -5.1484375 7.61328125 C-5.22347604 9.17971068 -5.2990234 10.74611579 -5.375 12.3125 C-5.42140625 13.49102539 -5.42140625 13.49102539 -5.46875 14.69335938 C-5.52675781 15.8293457 -5.52675781 15.8293457 -5.5859375 16.98828125 C-5.6173584 17.68477783 -5.6487793 18.38127441 -5.68115234 19.09887695 C-6 21 -6 21 -8 24 C-8.66 24 -9.32 24 -10 24 C-9.6596875 25.6396875 -9.6596875 25.6396875 -9.3125 27.3125 C-9.209375 28.529375 -9.10625 29.74625 -9 31 C-10.48046875 32.73046875 -10.48046875 32.73046875 -12 34 C-14.65924256 27.7951007 -16.3457081 22.39445922 -14.30859375 15.7421875 C-12.06448712 10.20234267 -6.93843597 0 0 0 Z " fill="#818181" transform="translate(22,11)"/>
<path d="M0 0 C1.485 0.99 1.485 0.99 3 2 C3.40843923 4.71203652 3.13336867 7.2437142 3 10 C4.32 10 5.64 10 7 10 C9.12551114 14.25102229 8.43325054 19.67317023 7 24.0625 C6.67 24.701875 6.34 25.34125 6 26 C6.66 26.33 7.32 26.66 8 27 C6.35 27.66 4.7 28.32 3 29 C1.51831055 27.8737793 1.51831055 27.8737793 0 26 C-0.34057617 23.27270508 -0.34057617 23.27270508 -0.29296875 20.01953125 C-0.28330078 18.85615234 -0.27363281 17.69277344 -0.26367188 16.49414062 C-0.2259668 14.67172852 -0.2259668 14.67172852 -0.1875 12.8125 C-0.17396484 11.58595703 -0.16042969 10.35941406 -0.14648438 9.09570312 C-0.11108741 6.06336336 -0.0617076 3.03190004 0 0 Z " fill="#707273" transform="translate(46,18)"/>
<path d="M0 0 C3.98671063 1.36687222 6.88494633 3.15195093 10 6 C10 6.66 10 7.32 10 8 C10.66 8 11.32 8 12 8 C16.53907524 15.09230506 16.88063363 21.68518017 16 30 C14.9765625 32.421875 14.9765625 32.421875 14 34 C13.34 34 12.68 34 12 34 C12.16371094 33.29488281 12.32742187 32.58976562 12.49609375 31.86328125 C13.01699824 28.90341312 13.09866732 26.18938727 13.0625 23.1875 C13.05347656 22.21167969 13.04445313 21.23585938 13.03515625 20.23046875 C13.02355469 19.49441406 13.01195312 18.75835938 13 18 C11.68 18 10.36 18 9 18 C8.95875 16.783125 8.9175 15.56625 8.875 14.3125 C8.46293219 10.8947611 7.76826271 9.28702803 5.125 7.0625 C2.15214273 4.90702083 2.15214273 4.90702083 -1 4 C-0.67 2.68 -0.34 1.36 0 0 Z " fill="#464649" transform="translate(40,10)"/>
<path d="M0 0 C5.0620573 1.52816824 9.29172407 0.67359198 14.3125 -1 C16.5 0.4375 16.5 0.4375 18.3125 2 C9.53992475 8.12040134 9.53992475 8.12040134 5 7.875 C1.22924263 6.64731155 -2.19478798 4.86335753 -5.6875 3 C-5.6875 2.01 -5.6875 1.02 -5.6875 0 C-2.6875 -1 -2.6875 -1 0 0 Z " fill="#373737" transform="translate(25.6875,22)"/>
<path d="M0 0 C5.94 2.475 5.94 2.475 12 5 C12 10.61 12 16.22 12 22 C10.68 21.34 9.36 20.68 8 20 C7.63671875 17.5390625 7.63671875 17.5390625 7.6875 14.625 C7.60667515 10.56027153 7.60667515 10.56027153 5.390625 7.38671875 C3.24722299 6.14947692 3.24722299 6.14947692 0 5 C0 3.35 0 1.7 0 0 Z " fill="#363636" transform="translate(19,26)"/>
<path d="M0 0 C0.33 1.32 0.66 2.64 1 4 C-0.98 4 -2.96 4 -5 4 C-5.04898437 5.19238281 -5.09796875 6.38476562 -5.1484375 7.61328125 C-5.22347604 9.17971068 -5.2990234 10.74611579 -5.375 12.3125 C-5.4059375 13.09818359 -5.436875 13.88386719 -5.46875 14.69335938 C-5.50742187 15.45068359 -5.54609375 16.20800781 -5.5859375 16.98828125 C-5.6173584 17.68477783 -5.6487793 18.38127441 -5.68115234 19.09887695 C-6 21 -6 21 -8 24 C-8.66 24 -9.32 24 -10 24 C-10.33 24.66 -10.66 25.32 -11 26 C-11.33266291 19.79029227 -10.45029331 15.71735105 -8 10 C-8.66 9.67 -9.32 9.34 -10 9 C-8.5124715 4.98367305 -4.56813239 0 0 0 Z " fill="#BDCDE9" transform="translate(22,11)"/>
<path d="M0 0 C0.680625 0.46664062 1.36125 0.93328125 2.0625 1.4140625 C7.89893459 5.37134201 13.12250856 5.648725 20.0625 5.0390625 C23.04234167 3.70735941 23.04234167 3.70735941 25.0625 2.0390625 C25.7225 2.0390625 26.3825 2.0390625 27.0625 2.0390625 C26.0625 5.0390625 26.0625 5.0390625 23.4296875 6.69921875 C17.19799912 9.1788813 9.91868906 9.17666744 3.48046875 7.27734375 C-0.22173048 5.53957676 -2.86319037 3.66910436 -4.9375 0.0390625 C-1.9375 -0.9609375 -1.9375 -0.9609375 0 0 Z " fill="#343434" transform="translate(18.9375,48.9609375)"/>
<path d="M0 0 C0 0.66 0 1.32 0 2 C2.39068734 3.10636395 2.39068734 3.10636395 5 4 C5.66 3.67 6.32 3.34 7 3 C7 3.99 7 4.98 7 6 C6.34 6 5.68 6 5 6 C4.566875 6.9590625 4.566875 6.9590625 4.125 7.9375 C3 10 3 10 1 11 C1 10.34 1 9.68 1 9 C-0.65 9.33 -2.3 9.66 -4 10 C-4.33 7.03 -4.66 4.06 -5 1 C-3 0 -3 0 0 0 Z " fill="#676767" transform="translate(45,42)"/>
<path d="M0 0 C0.99 0.495 0.99 0.495 2 1 C2 3.64 2 6.28 2 9 C3.32 9 4.64 9 6 9 C7.20272819 11.40545638 7.10071472 12.94996953 7.0625 15.625 C7.05347656 16.44226563 7.04445313 17.25953125 7.03515625 18.1015625 C7.02355469 18.72804688 7.01195312 19.35453125 7 20 C6.67 19.34 6.34 18.68 6 18 C5.34 18 4.68 18 4 18 C1.18448829 15.23141348 0.07384378 13.62988749 -0.390625 9.66796875 C-0.34421875 8.51941406 -0.2978125 7.37085938 -0.25 6.1875 C-0.21390625 5.02605469 -0.1778125 3.86460938 -0.140625 2.66796875 C-0.07101563 1.34732422 -0.07101563 1.34732422 0 0 Z " fill="#BBCAE4" transform="translate(47,19)"/>
<path d="M0 0 C5.875 1.875 5.875 1.875 7 3 C7.07179964 4.51928038 7.08392007 6.04167482 7.0625 7.5625 C7.05347656 8.38878906 7.04445313 9.21507812 7.03515625 10.06640625 C7.01775391 11.02353516 7.01775391 11.02353516 7 12 C4.69 11.01 2.38 10.02 0 9 C0 6.03 0 3.06 0 0 Z " fill="#393838" transform="translate(19,33)"/>
<path d="M0 0 C1.28132813 0.00902344 2.56265625 0.01804687 3.8828125 0.02734375 C4.87023438 0.03894531 5.85765625 0.05054688 6.875 0.0625 C6.545 1.3825 6.215 2.7025 5.875 4.0625 C5.215 3.4025 4.555 2.7425 3.875 2.0625 C3.545 2.3925 3.215 2.7225 2.875 3.0625 C1.02608054 3.29613881 -0.82988031 3.47553635 -2.6875 3.625 C-4.20537109 3.75068359 -4.20537109 3.75068359 -5.75390625 3.87890625 C-6.53636719 3.93949219 -7.31882812 4.00007812 -8.125 4.0625 C-8.455 3.0725 -8.785 2.0825 -9.125 1.0625 C-6.12186252 -0.43906874 -3.33432478 -0.03031204 0 0 Z " fill="#898A8C" transform="translate(32.125,8.9375)"/>
<path d="M0 0 C0.33 1.32 0.66 2.64 1 4 C-0.98 4 -2.96 4 -5 4 C-5.185625 5.2065625 -5.185625 5.2065625 -5.375 6.4375 C-5.58125 7.283125 -5.7875 8.12875 -6 9 C-6.99 9.495 -6.99 9.495 -8 10 C-8.66 9.67 -9.32 9.34 -10 9 C-8.5124715 4.98367305 -4.56813239 0 0 0 Z " fill="#CFCFCF" transform="translate(22,11)"/>
<path d="M0 0 C1.3921875 0.3403125 1.3921875 0.3403125 2.8125 0.6875 C0.67817858 3.88898213 0.12830104 4.20956739 -3.3125 5.375 C-4.03695312 5.62636719 -4.76140625 5.87773437 -5.5078125 6.13671875 C-6.33925781 6.40935547 -6.33925781 6.40935547 -7.1875 6.6875 C-6.12646745 1.98586037 -5.31536763 -0.52111447 0 0 Z " fill="#323232" transform="translate(41.1875,22.3125)"/>
<path d="M0 0 C0.99 0.66 1.98 1.32 3 2 C-0.23253796 4.15502531 -1.25150923 4.46856135 -5 4 C-6.8125 2.5 -6.8125 2.5 -8 1 C-4.93240944 -0.8624657 -3.38040761 -1.30854488 0 0 Z " fill="#363535" transform="translate(34,18)"/>
<path d="M0 0 C0.99 0 1.98 0 3 0 C3.66 1.98 4.32 3.96 5 6 C2.69 6 0.38 6 -2 6 C-1.34 4.02 -0.68 2.04 0 0 Z " fill="#B8C8E1" transform="translate(30,49)"/>
<path d="M0 0 C0.66 0.33 1.32 0.66 2 1 C2.28571429 9.57142857 2.28571429 9.57142857 0 13 C-0.66 13 -1.32 13 -2 13 C-1.34 8.71 -0.68 4.42 0 0 Z " fill="#313131" transform="translate(54,31)"/>
<path d="M0 0 C1.5 1.375 1.5 1.375 3 3 C3 3.66 3 4.32 3 5 C3.66 5 4.32 5 5 5 C4.67 5.99 4.34 6.98 4 8 C2.0625 7.25 2.0625 7.25 0 6 C-0.8125 4 -0.8125 4 -1 2 C-0.67 1.34 -0.34 0.68 0 0 Z " fill="#575757" transform="translate(12,42)"/>
<path d="M0 0 C0.66 0 1.32 0 2 0 C1.6875 2.375 1.6875 2.375 1 5 C0.01 5.66 -0.98 6.32 -2 7 C-2 5.35 -2 3.7 -2 2 C-1.34 2 -0.68 2 0 2 C0 1.34 0 0.68 0 0 Z " fill="#5E5F60" transform="translate(14,33)"/>
</svg>
