<?xml version="1.0" encoding="UTF-8"?>
<svg version="1.1" xmlns="http://www.w3.org/2000/svg" width="64" height="64">
<path d="M0 0 C1.67219901 0.93257252 3.3431866 1.87347925 4.9453125 2.921875 C8.45195999 4.76186494 12.27920352 5.38565165 16.1328125 6.19140625 C19.16412937 7.04628717 21.37286371 8.28645263 24 10 C24.66 10.33 25.32 10.66 26 11 C25.67 12.98 25.34 14.96 25 17 C25.33 17 25.66 17 26 17 C26 23.93 26 30.86 26 38 C23.03 39.65 20.06 41.3 17 43 C16.01 43.99 15.02 44.98 14 46 C13.34 46.309375 12.68 46.61875 12 46.9375 C8.88158115 48.59416001 7.47032623 51.25175373 5.625 54.1875 C3.4536038 56.60944192 2.22559629 56.71328033 -1 57 C-2.258125 57.12375 -3.51625 57.2475 -4.8125 57.375 C-9.02709282 57.31985579 -11.45831922 55.79886749 -14.85546875 53.43359375 C-17.2179041 51.85433369 -19.63396796 50.61961043 -22.1875 49.375 C-31.62939602 44.74120795 -31.62939602 44.74120795 -33 42 C-33.69461562 35.68166942 -32.79123372 29.73611334 -30 24 C-29.34 23.67 -28.68 23.34 -28 23 C-27.56785888 21.07719368 -27.56785888 21.07719368 -27.4375 18.8125 C-27.31568359 17.59433594 -27.31568359 17.59433594 -27.19140625 16.3515625 C-27.03799789 14.46683117 -26.94630639 12.57711946 -26.875 10.6875 C-26 8 -26 8 -22.875 5.6875 C-19.32989925 3.91130989 -15.92018756 3.51776062 -12 3 C-11.360625 2.484375 -10.72125 1.96875 -10.0625 1.4375 C-6.8828369 -0.77862883 -3.68747498 -0.64373377 0 0 Z M-26 11 C-25 13 -25 13 -25 13 Z M-13 18 C-13 18.66 -13 19.32 -13 20 C-13.32742187 20.73605469 -13.65484375 21.47210938 -13.9921875 22.23046875 C-15.15788883 25.43388829 -15.19966096 27.9154261 -15.125 31.3125 C-15.10695313 32.38113281 -15.08890625 33.44976562 -15.0703125 34.55078125 C-15.04710938 35.35902344 -15.02390625 36.16726562 -15 37 C-14.01 37.33 -13.02 37.66 -12 38 C-12.33 38.66 -12.66 39.32 -13 40 C-7.40006142 42.91663468 -4.19653279 43.36533773 2 42 C2.66 41.34 3.32 40.68 4 40 C4 39.34 4 38.68 4 38 C4.73089844 37.09894531 4.73089844 37.09894531 5.4765625 36.1796875 C8.09179722 32.43789013 7.52863266 28.39599789 7 24 C5.75056659 20.6649267 5.75056659 20.6649267 4 18 C3.32375851 16.67149721 2.65524672 15.33898243 2 14 C-6.37458324 13.30700812 -6.37458324 13.30700812 -13 18 Z M8 25 C8 27.97 8 30.94 8 34 C8.33 34 8.66 34 9 34 C9 31.03 9 28.06 9 25 C8.67 25 8.34 25 8 25 Z M-17 26 C-17 27.98 -17 29.96 -17 32 C-16.67 32 -16.34 32 -16 32 C-16 30.02 -16 28.04 -16 26 C-16.33 26 -16.66 26 -17 26 Z M-30 27 C-29 29 -29 29 -29 29 Z M-32 33 C-32 35.64 -32 38.28 -32 41 C-31.67 41 -31.34 41 -31 41 C-31 38.36 -31 35.72 -31 33 C-31.33 33 -31.66 33 -32 33 Z " fill="#EEE70F" transform="translate(34,2)"/>
<path d="M0 0 C3.0625 2.0625 3.0625 2.0625 5 5 C5.763125 6.051875 6.52625 7.10375 7.3125 8.1875 C9.69740912 12.67502288 9.75664894 17.04394944 9 22 C7.09083254 28.14635035 4.32014544 33.91189459 -1.2421875 37.41015625 C-8.25353456 41.058089 -15.1537332 42.53466926 -23 41 C-26.22793854 38.99416165 -27.6164309 36.45553044 -28.58984375 32.76171875 C-29.10035067 29.3243055 -29.24647724 25.97488204 -29.3125 22.5 C-29.34988281 21.2109375 -29.38726562 19.921875 -29.42578125 18.59375 C-28.93427606 14.44526586 -27.8411761 12.97394133 -25 10 C-24.13375 8.7625 -24.13375 8.7625 -23.25 7.5 C-16.66987693 0.18875214 -9.7600278 -1.60064456 0 0 Z M-19 9 C-19 9.66 -19 10.32 -19 11 C-19.32742187 11.73605469 -19.65484375 12.47210938 -19.9921875 13.23046875 C-21.15788883 16.43388829 -21.19966096 18.9154261 -21.125 22.3125 C-21.10695313 23.38113281 -21.08890625 24.44976562 -21.0703125 25.55078125 C-21.04710937 26.35902344 -21.02390625 27.16726562 -21 28 C-20.01 28.33 -19.02 28.66 -18 29 C-18.33 29.66 -18.66 30.32 -19 31 C-13.40006142 33.91663468 -10.19653279 34.36533773 -4 33 C-3.34 32.34 -2.68 31.68 -2 31 C-2 30.34 -2 29.68 -2 29 C-1.26910156 28.09894531 -1.26910156 28.09894531 -0.5234375 27.1796875 C2.09179722 23.43789013 1.52863266 19.39599789 1 15 C-0.24943341 11.6649267 -0.24943341 11.6649267 -2 9 C-2.67624149 7.67149721 -3.34475328 6.33898243 -4 5 C-12.37458324 4.30700812 -12.37458324 4.30700812 -19 9 Z M2 16 C2 18.97 2 21.94 2 25 C2.33 25 2.66 25 3 25 C3 22.03 3 19.06 3 16 C2.67 16 2.34 16 2 16 Z M-23 17 C-23 18.98 -23 20.96 -23 23 C-22.67 23 -22.34 23 -22 23 C-22 21.02 -22 19.04 -22 17 C-22.33 17 -22.66 17 -23 17 Z " fill="#D3B33F" transform="translate(40,11)"/>
<path d="M0 0 C1.67219901 0.93257252 3.3431866 1.87347925 4.9453125 2.921875 C8.45195999 4.76186494 12.27920352 5.38565165 16.1328125 6.19140625 C19.16412937 7.04628717 21.37286371 8.28645263 24 10 C24.66 10.33 25.32 10.66 26 11 C25.67 12.98 25.34 14.96 25 17 C25.33 17 25.66 17 26 17 C26 23.93 26 30.86 26 38 C23.03 39.65 20.06 41.3 17 43 C16.01 43.99 15.02 44.98 14 46 C13.34 46.309375 12.68 46.61875 12 46.9375 C8.88158115 48.59416001 7.47032623 51.25175373 5.625 54.1875 C3.4536038 56.60944192 2.22559629 56.71328033 -1 57 C-2.258125 57.12375 -3.51625 57.2475 -4.8125 57.375 C-9.02709282 57.31985579 -11.45831922 55.79886749 -14.85546875 53.43359375 C-17.2179041 51.85433369 -19.63396796 50.61961043 -22.1875 49.375 C-31.62939602 44.74120795 -31.62939602 44.74120795 -33 42 C-33.69461562 35.68166942 -32.79123372 29.73611334 -30 24 C-29.34 23.67 -28.68 23.34 -28 23 C-27.56785888 21.07719368 -27.56785888 21.07719368 -27.4375 18.8125 C-27.31568359 17.59433594 -27.31568359 17.59433594 -27.19140625 16.3515625 C-27.03799789 14.46683117 -26.94630639 12.57711946 -26.875 10.6875 C-26 8 -26 8 -22.875 5.6875 C-19.32989925 3.91130989 -15.92018756 3.51776062 -12 3 C-11.360625 2.484375 -10.72125 1.96875 -10.0625 1.4375 C-6.8828369 -0.77862883 -3.68747498 -0.64373377 0 0 Z M-17 9 C-17.80484251 11.65444289 -17.80484251 11.65444289 -18 14 C-18.66 14 -19.32 14 -20 14 C-20.81498562 15.6029053 -21.62689927 17.20737278 -22.4375 18.8125 C-22.88996094 19.70582031 -23.34242187 20.59914063 -23.80859375 21.51953125 C-25.0831605 24.03999478 -25.0831605 24.03999478 -26 27 C-26.66 27 -27.32 27 -28 27 C-29.69897896 32.87045575 -30.26915712 39.46168576 -27.5 45 C-21.22917946 50.01665643 -15.00495253 50.51995852 -7.1953125 50.375 C-3.26304957 49.91351193 -0.32063739 48.72596796 3.09765625 46.77734375 C5 46 5 46 6.96875 46.546875 C9.08461763 47.2414207 9.08461763 47.2414207 11.18359375 45.92578125 C11.92738281 45.39339844 12.67117187 44.86101563 13.4375 44.3125 C14.61119141 43.47912109 14.61119141 43.47912109 15.80859375 42.62890625 C20.5734242 39.41590075 20.5734242 39.41590075 24 35 C24.09472912 33.48154798 24.1298841 31.95889616 24.125 30.4375 C24.12757812 29.63183594 24.13015625 28.82617188 24.1328125 27.99609375 C24.22011391 26.00057979 24.22011391 26.00057979 23 25 C23.09125707 21.72843416 23.26287005 18.46648171 23.453125 15.19921875 C23.29156983 11.87315334 23.29156983 11.87315334 20.8515625 9.67578125 C17.87170815 7.92460657 15.50328205 7.16688165 12.125 6.5 C8.40280489 5.6753766 5.39452172 4.88506506 2.1875 2.8125 C-6.03220002 -1.86144707 -11.57590755 2.33046143 -17 9 Z M-26 11 C-25 13 -25 13 -25 13 Z M-30 27 C-29 29 -29 29 -29 29 Z M-32 33 C-32 35.64 -32 38.28 -32 41 C-31.67 41 -31.34 41 -31 41 C-31 38.36 -31 35.72 -31 33 C-31.33 33 -31.66 33 -32 33 Z " fill="#EEE62B" transform="translate(34,2)"/>
<path d="M0 0 C4.09799584 3.00519695 7.28115147 7.17793305 9 12 C9.67131872 17.2959588 9.558359 22.20307688 7 27 C6.01 27 5.02 27 4 27 C2.54965396 28.30456502 2.54965396 28.30456502 1.3125 30 C0.549375 30.99 -0.21375 31.98 -1 33 C-2.485 32.505 -2.485 32.505 -4 32 C-2.79618552 29.50638429 -1.54571278 27.31856917 0 25 C0.80091905 18.95670173 0.20751906 14.26033125 -3 9 C-3.33 8.01 -3.66 7.02 -4 6 C-11.74338636 5.61041465 -11.74338636 5.61041465 -19 8 C-13.23794229 1.90868185 -8.6085341 -1.64644095 0 0 Z M2 16 C2 18.97 2 21.94 2 25 C2.33 25 2.66 25 3 25 C3 22.03 3 19.06 3 16 C2.67 16 2.34 16 2 16 Z " fill="#D8BC50" transform="translate(40,11)"/>
<path d="M0 0 C3.39075771 0.84527436 6.6965108 1.86273323 10 3 C10 3.33 10 3.66 10 4 C9.23816406 4.00257812 8.47632813 4.00515625 7.69140625 4.0078125 C-0.03664272 4.29725254 -5.25112157 5.69052629 -11 11 C-12.53254656 12.93423968 -13.73398341 14.87309213 -15 17 C-15.66 17 -16.32 17 -17 17 C-17.05429278 19.70860665 -17.09381211 22.41610901 -17.125 25.125 C-17.14175781 25.88554688 -17.15851562 26.64609375 -17.17578125 27.4296875 C-17.21557194 32.04540798 -16.74159139 35.65247185 -15 40 C-14.67 40.99 -14.34 41.98 -14 43 C-17.55167293 42.75784048 -19.55347244 42.35252176 -22.375 40.125 C-25.27477403 34.54851148 -24.72527126 27.96130312 -23 22 C-22.34 22 -21.68 22 -21 22 C-20.67 21.01 -20.34 20.02 -20 19 C-19.16497639 17.26150823 -18.3089363 15.53302807 -17.4375 13.8125 C-16.98246094 12.91144531 -16.52742188 12.01039062 -16.05859375 11.08203125 C-15.70925781 10.39496094 -15.35992187 9.70789062 -15 9 C-14.34 9 -13.68 9 -13 9 C-12.9175 8.2575 -12.835 7.515 -12.75 6.75 C-10.89649593 -0.04618159 -6.42744876 -0.94777634 0 0 Z " fill="#DFC51F" transform="translate(29,7)"/>
<path d="M0 0 C0.66 0.33 1.32 0.66 2 1 C1.44570313 1.44730469 0.89140625 1.89460937 0.3203125 2.35546875 C-5.14132545 6.74888571 -5.14132545 6.74888571 -8 13 C-8.66 13 -9.32 13 -10 13 C-10.433125 14.3303125 -10.433125 14.3303125 -10.875 15.6875 C-11.24625 16.780625 -11.6175 17.87375 -12 19 C-12.28875 19.9075 -12.5775 20.815 -12.875 21.75 C-14.22500804 24.45001607 -15.31579741 24.80460614 -18 26 C-18.08117951 28.41734542 -18.14056926 30.83194949 -18.1875 33.25 C-18.21263672 33.93191406 -18.23777344 34.61382812 -18.26367188 35.31640625 C-18.30874236 38.41124601 -18.19312449 40.63461324 -16.734375 43.39453125 C-14.83842336 45.14956757 -13.53296591 45.74994231 -11.0625 46.4375 C-7.12075308 47.74415644 -5.29526963 49.46145931 -3 53 C-3.55816406 52.72027344 -4.11632812 52.44054688 -4.69140625 52.15234375 C-6.25965359 51.36954686 -7.83005195 50.59104758 -9.40234375 49.81640625 C-21.61105425 43.7778915 -21.61105425 43.7778915 -23 41 C-23.69461562 34.68166942 -22.79123372 28.73611334 -20 23 C-19.34 22.67 -18.68 22.34 -18 22 C-17.56785888 20.07719368 -17.56785888 20.07719368 -17.4375 17.8125 C-17.31568359 16.59433594 -17.31568359 16.59433594 -17.19140625 15.3515625 C-17.03799789 13.46683117 -16.94630639 11.57711946 -16.875 9.6875 C-16 7 -16 7 -12.875 4.6875 C-9.33659305 2.91464868 -5.9228799 2.46151528 -2 2 C-1.34 1.34 -0.68 0.68 0 0 Z M-16 10 C-15 12 -15 12 -15 12 Z M-20 26 C-19 28 -19 28 -19 28 Z M-22 32 C-22 34.64 -22 37.28 -22 40 C-21.67 40 -21.34 40 -21 40 C-21 37.36 -21 34.72 -21 32 C-21.33 32 -21.66 32 -22 32 Z " fill="#F4EF65" transform="translate(24,3)"/>
<path d="M0 0 C5.49470714 -0.38559348 8.22687184 -0.16576819 12.9453125 2.921875 C16.45195999 4.76186494 20.27920352 5.38565165 24.1328125 6.19140625 C27.16412937 7.04628717 29.37286371 8.28645263 32 10 C32.66 10.33 33.32 10.66 34 11 C33.67 12.98 33.34 14.96 33 17 C33.33 17 33.66 17 34 17 C34 23.93 34 30.86 34 38 C31.03 39.65 28.06 41.3 25 43 C24.01 43.99 23.02 44.98 22 46 C20.66666667 46.66666667 19.33333333 47.33333333 18 48 C16.29078411 49.5412312 16.29078411 49.5412312 15 51 C14.34 50.67 13.68 50.34 13 50 C17.88385595 45.44399549 22.64465954 41.31275272 28.46875 38.0078125 C30.17466878 37.06838048 30.17466878 37.06838048 31 35 C31.09472912 33.48154798 31.1298841 31.95889616 31.125 30.4375 C31.12757812 29.63183594 31.13015625 28.82617188 31.1328125 27.99609375 C31.22011391 26.00057979 31.22011391 26.00057979 30 25 C30.05006132 21.69595263 30.19812309 18.40216226 30.35546875 15.1015625 C30.30218611 11.97892923 30.30218611 11.97892923 28.3515625 10.17578125 C25.64067049 8.82033524 23.15518434 8.17584683 20.1875 7.5625 C16.49053446 6.71453096 13.403073 5.89934936 10.1875 3.875 C6.52244796 1.71908703 4.17442822 1.34076965 0 1 C0 0.67 0 0.34 0 0 Z " fill="#F5F1A0" transform="translate(26,2)"/>
<path d="M0 0 C2.72701737 2.61339165 3.28530943 4.78492642 3.4375 8.4375 C3.30436634 11.45519619 3.0246908 12.9517407 1.625 15.6875 C-2.69538816 19.49355623 -8.07120426 24 -14 24 C-12.4722133 20.56247993 -10.49818944 17.81046312 -8 15 C-7.34 15 -6.68 15 -6 15 C-5.731875 14.278125 -5.46375 13.55625 -5.1875 12.8125 C-4 10 -4 10 -2.4375 7.5 C-0.96737241 4.94325637 -0.41424836 2.89973855 0 0 Z " fill="#EEE60D" transform="translate(55,24)"/>
<path d="M0 0 C5.69148314 1.96361152 9.37196174 5.24091864 13 10 C14.3110804 15.05702441 12.65119377 18.00613246 10.1875 22.375 C7.44971537 26.85009488 7.44971537 26.85009488 4 28 C4.33 27.05125 4.66 26.1025 5 25.125 C7.0755264 17.5249107 6.81309573 11.87167095 3 4.875 C2.0203221 3.23766796 1.02714885 1.60797707 0 0 Z " fill="#E4CB21" transform="translate(42,12)"/>
<path d="M0 0 C0.66 0.33 1.32 0.66 2 1 C2.20729458 3.34835148 2.31463108 5.70579016 2.375 8.0625 C2.62909884 14.30977551 3.64220299 18.6925144 7 24 C3.44832707 23.75784048 1.44652756 23.35252176 -1.375 21.125 C-4.27477403 15.54851148 -3.72527126 8.96130312 -2 3 C-1.34 3 -0.68 3 0 3 C0 2.01 0 1.02 0 0 Z " fill="#EFE814" transform="translate(8,26)"/>
<path d="M0 0 C0.66 0.33 1.32 0.66 2 1 C1.401875 1.763125 0.80375 2.52625 0.1875 3.3125 C-2.8107599 7.74053508 -3.79227005 12.85799824 -5 18 C-5.81788791 15.10441295 -6.18892672 12.44535913 -6.25 9.4375 C-6.27578125 8.67308594 -6.3015625 7.90867187 -6.328125 7.12109375 C-5.91318692 4.43881545 -5.08641735 3.68180837 -3 2 C-2.01 1.34 -1.02 0.68 0 0 Z M-5 6 C-4 8 -4 8 -4 8 Z " fill="#F9F6A2" transform="translate(13,7)"/>
<path d="M0 0 C0.99 0 1.98 0 3 0 C2.50168276 3.68754757 1.89932357 5.60490662 -1 8 C-1.99 7.67 -2.98 7.34 -4 7 C-2.79618552 4.50638429 -1.54571278 2.31856917 0 0 Z " fill="#EAD894" transform="translate(40,36)"/>
<path d="M0 0 C0.185625 0.9590625 0.185625 0.9590625 0.375 1.9375 C0.684375 2.9584375 0.684375 2.9584375 1 4 C1.66 4.33 2.32 4.66 3 5 C1.75023244 8.65316671 1.32901247 9.78065836 -2 12 C-1.33333333 8 -0.66666667 4 0 0 Z " fill="#F5EF25" transform="translate(9,17)"/>
<path d="M0 0 C3.3 0 6.6 0 10 0 C10 0.33 10 0.66 10 1 C6.7 1 3.4 1 0 1 C0 0.67 0 0.34 0 0 Z " fill="#ECDE44" transform="translate(26,17)"/>
<path d="M0 0 C2.64 0 5.28 0 8 0 C8 0.33 8 0.66 8 1 C5.36 1 2.72 1 0 1 C0 0.67 0 0.34 0 0 Z " fill="#FCF59C" transform="translate(25,60)"/>
<path d="M0 0 C2.64 0 5.28 0 8 0 C8 0.33 8 0.66 8 1 C5.36 1 2.72 1 0 1 C0 0.67 0 0.34 0 0 Z " fill="#FCFA53" transform="translate(26,0)"/>
<path d="M0 0 C2.31 0 4.62 0 7 0 C7 0.33 7 0.66 7 1 C4.69 1 2.38 1 0 1 C0 0.67 0 0.34 0 0 Z " fill="#F2ED75" transform="translate(15,4)"/>
<path d="M0 0 C0.33 0 0.66 0 1 0 C1 1.65 1 3.3 1 5 C0.67 5 0.34 5 0 5 C0 3.35 0 1.7 0 0 Z " fill="#FCF868" transform="translate(6,16)"/>
<path d="M0 0 C4 1 4 1 4 1 Z " fill="#E8DD9B" transform="translate(12,53)"/>
<path d="M0 0 C4 1 4 1 4 1 Z " fill="#E7DA7A" transform="translate(28,43)"/>
<path d="M0 0 C4 1 4 1 4 1 Z " fill="#D7CB71" transform="translate(32,42)"/>
<path d="M0 0 C1 4 1 4 1 4 Z " fill="#F9F2A5" transform="translate(5,21)"/>
<path d="M0 0 C4 1 4 1 4 1 Z " fill="#FCFAC2" transform="translate(46,6)"/>
<path d="M0 0 C4 1 4 1 4 1 Z " fill="#EBE598" transform="translate(41,5)"/>
<path d="" fill="#E1D6A5" transform="translate(0,0)"/>
<path d="M0 0 C3 1 3 1 3 1 Z " fill="#F6EC8E" transform="translate(50,7)"/>
<path d="M0 0 C2 1 2 1 2 1 Z " fill="#FAF586" transform="translate(33,59)"/>
<path d="M0 0 C2 1 2 1 2 1 Z " fill="#FAF5C6" transform="translate(23,59)"/>
<path d="M0 0 C2 1 2 1 2 1 Z " fill="#FFFF7F" transform="translate(21,58)"/>
<path d="M0 0 C2 1 2 1 2 1 Z " fill="#F2F27F" transform="translate(19,57)"/>
<path d="M0 0 C2 1 2 1 2 1 Z " fill="#FDF8BD" transform="translate(10,52)"/>
<path d="M0 0 C2 1 2 1 2 1 Z " fill="#FFFF7F" transform="translate(8,51)"/>
<path d="M0 0 C2 1 2 1 2 1 Z " fill="#FDF8BD" transform="translate(48,47)"/>
<path d="M0 0 C2 1 2 1 2 1 Z " fill="#F2F27F" transform="translate(51,45)"/>
<path d="M0 0 C2 1 2 1 2 1 Z " fill="#D7CBB1" transform="translate(53,44)"/>
<path d="" fill="#FAF586" transform="translate(0,0)"/>
<path d="M0 0 C2 1 2 1 2 1 Z " fill="#FDF8BD" transform="translate(24,18)"/>
<path d="M0 0 C2 1 2 1 2 1 Z " fill="#F1EC3E" transform="translate(53,8)"/>
<path d="M0 0 C2 1 2 1 2 1 Z " fill="#FAF5C6" transform="translate(13,5)"/>
<path d="M0 0 C2 1 2 1 2 1 Z " fill="#FAF5C6" transform="translate(39,4)"/>
<path d="M0 0 C2 1 2 1 2 1 Z " fill="#FDF8BD" transform="translate(36,2)"/>
<path d="M0 0 C2 1 2 1 2 1 Z " fill="#FAF5C6" transform="translate(24,1)"/>
<path d="" fill="#FFFF7F" transform="translate(0,0)"/>
<path d="" fill="#F6EC8E" transform="translate(0,0)"/>
<path d="" fill="#F6EC8E" transform="translate(0,0)"/>
<path d="" fill="#FFFFD2" transform="translate(0,0)"/>
<path d="" fill="#FFFFFF" transform="translate(0,0)"/>
<path d="" fill="#F6EC8E" transform="translate(0,0)"/>
<path d="" fill="#F6EC8E" transform="translate(0,0)"/>
<path d="" fill="#FFFFD2" transform="translate(0,0)"/>
<path d="" fill="#F6EC8E" transform="translate(0,0)"/>
<path d="" fill="#FCF27C" transform="translate(0,0)"/>
<path d="" fill="#F6EC8E" transform="translate(0,0)"/>
<path d="" fill="#F6EC8E" transform="translate(0,0)"/>
<path d="" fill="#F6EC8E" transform="translate(0,0)"/>
<path d="" fill="#F6EC8E" transform="translate(0,0)"/>
<path d="" fill="#FFFFFF" transform="translate(0,0)"/>
<path d="" fill="#F6EC8E" transform="translate(0,0)"/>
<path d="" fill="#B09863" transform="translate(0,0)"/>
<path d="" fill="#F6EC8E" transform="translate(0,0)"/>
<path d="" fill="#FFFFD2" transform="translate(0,0)"/>
<path d="" fill="#F6EC8E" transform="translate(0,0)"/>
<path d="" fill="#F6EC8E" transform="translate(0,0)"/>
<path d="" fill="#FFFF7F" transform="translate(0,0)"/>
<path d="" fill="#E6E600" transform="translate(0,0)"/>
<path d="" fill="#FFFFFF" transform="translate(0,0)"/>
<path d="" fill="#F6EC8E" transform="translate(0,0)"/>
<path d="" fill="#FFFF7F" transform="translate(0,0)"/>
<path d="" fill="#F6EC8E" transform="translate(0,0)"/>
<path d="" fill="#FCF27C" transform="translate(0,0)"/>
<path d="" fill="#FFFF7F" transform="translate(0,0)"/>
<path d="" fill="#FFFFFF" transform="translate(0,0)"/>
</svg>
