<?xml version="1.0" encoding="UTF-8"?>
<svg version="1.1" xmlns="http://www.w3.org/2000/svg" width="200" height="200">
<path d="M0 0 C1.25296875 0.4125 2.5059375 0.825 3.796875 1.25 C28.74462541 10.06760046 48.21993996 28.50355897 60.08447266 52.01074219 C70.70301424 75.08270933 73.10167255 102.82117663 65 127 C64.68651611 127.95471191 64.68651611 127.95471191 64.36669922 128.92871094 C55.79872986 154.4079906 36.83084531 174.92095212 13 187 C7.79852831 189.40330772 2.46245466 191.28718432 -3 193 C-4.03511719 193.3403125 -5.07023437 193.680625 -6.13671875 194.03125 C-23.74332233 198.80292675 -44.76482566 197.76909601 -62 192 C-63.87945312 191.38125 -63.87945312 191.38125 -65.796875 190.75 C-90.74462541 181.93239954 -110.21993996 163.49644103 -122.08447266 139.98925781 C-132.70512729 116.91269943 -135.09510894 89.18413797 -127 65 C-126.5875 63.74703125 -126.175 62.4940625 -125.75 61.203125 C-117.13583089 36.83670292 -99.544511 18.22323318 -77 6 C-72.09276991 3.66731888 -67.14550474 1.7181826 -62 0 C-60.76378906 -0.41507812 -59.52757813 -0.83015625 -58.25390625 -1.2578125 C-39.84377482 -6.75766537 -18.16295751 -6.07965105 0 0 Z " fill="#DDDDDD" transform="translate(131,4)"/>
<path d="M0 0 C0 44.22 0 88.44 0 134 C2.64 134.33 5.28 134.66 8 135 C21.24632873 138.27001421 32.97250799 147.30799782 40.1875 158.8125 C45.09355208 167.40465004 48.15430628 175.33492189 48.0625 185.25 C48.05347656 186.51328125 48.04445313 187.7765625 48.03515625 189.078125 C48.02355469 190.04234375 48.01195313 191.0065625 48 192 C34.10722468 192.47887069 21.28940904 192.33939887 8 188 C7.36690918 187.79632813 6.73381836 187.59265625 6.08154297 187.3828125 C-19.70998446 178.78342492 -39.88332963 160.16336665 -52.08447266 135.98925781 C-62.70512729 112.91269943 -65.09510894 85.18413797 -57 61 C-56.5875 59.74703125 -56.175 58.4940625 -55.75 57.203125 C-46.67144242 31.52311302 -28.15998702 13.82248385 -4.8046875 0.7734375 C-3 0 -3 0 0 0 Z " fill="#183152" transform="translate(61,8)"/>
<path d="M0 0 C0 42.24 0 84.48 0 128 C-6.93 129.98 -6.93 129.98 -14 132 C-19.92875962 134.93381919 -24.94490315 137.76024135 -30 142 C-30.66 142 -31.32 142 -32 142 C-36.72709237 134.53743286 -40.599926 127.16033609 -43.375 118.75 C-43.61299316 118.03086426 -43.85098633 117.31172852 -44.09619141 116.57080078 C-50.27725931 96.95805397 -50.54429324 74.55107606 -44 55 C-43.5875 53.74703125 -43.175 52.4940625 -42.75 51.203125 C-37.68824023 36.88520605 -17.92964411 0 0 0 Z " fill="#DDDDDD" transform="translate(48,14)"/>
</svg>
