<?xml version="1.0" encoding="UTF-8"?>
<svg version="1.1" xmlns="http://www.w3.org/2000/svg" width="200" height="200">
<path d="M0 0 C1.25296875 0.4125 2.5059375 0.825 3.796875 1.25 C28.74462541 10.06760046 48.21993996 28.50355897 60.08447266 52.01074219 C70.70512729 75.08730057 73.09510894 102.81586203 65 127 C64.5875 128.25296875 64.175 129.5059375 63.75 130.796875 C54.93239954 155.74462541 36.49644103 175.21993996 12.98925781 187.08447266 C-10.08730057 197.70512729 -37.81586203 200.09510894 -62 192 C-63.87945312 191.38125 -63.87945312 191.38125 -65.796875 190.75 C-90.74462541 181.93239954 -110.21993996 163.49644103 -122.08447266 139.98925781 C-132.70512729 116.91269943 -135.09510894 89.18413797 -127 65 C-126.5875 63.74703125 -126.175 62.4940625 -125.75 61.203125 C-116.93239954 36.25537459 -98.49644103 16.78006004 -74.98925781 4.91552734 C-51.91269943 -5.70512729 -24.18413797 -8.09510894 0 0 Z " fill="#FEFEFE" transform="translate(131,4)"/>
<path d="M0 0 C9.68788129 2.5295993 19.21574536 5.52858936 28.75765991 8.55038452 C38.71613486 11.71611985 38.71613486 11.71611985 48.76171875 14.58984375 C49.55304199 14.80463379 50.34436523 15.01942383 51.15966797 15.24072266 C53.13993718 15.76666851 55.12637771 16.2692318 57.11328125 16.76953125 C60.59229539 18.25246691 61.51087375 19.57554723 63 23 C63 23.66 63 24.32 63 25 C63.66 25 64.32 25 65 25 C65.2784375 23.6078125 65.2784375 23.6078125 65.5625 22.1875 C67.21985259 18.51250079 68.38426544 18.11848425 72.01095581 16.69979858 C75.23412228 15.565803 78.49682875 14.597692 81.78515625 13.67578125 C87.96611752 11.90029056 94.11635532 10.05062136 100.24609375 8.10546875 C101.00419342 7.86539093 101.76229309 7.62531311 102.54336548 7.37796021 C105.63950648 6.39620674 108.73470784 5.4115298 111.8293457 4.42504883 C114.13416319 3.69108616 116.44005249 2.96057562 118.74609375 2.23046875 C119.79898842 1.8930793 119.79898842 1.8930793 120.87315369 1.5488739 C125.77352 0 125.77352 0 128 0 C127.85425537 0.57637207 127.70851074 1.15274414 127.55834961 1.74658203 C127.20640164 3.16699293 126.88275881 4.5950044 126.59985352 6.03076172 C125.9932661 8.33218491 125.34354433 10.02639057 124 12 C120.82036178 13.78222759 117.4892783 14.40874438 113.9375 15.125 C112.93267578 15.35670898 111.92785156 15.58841797 110.89257812 15.82714844 C108.73494775 16.32113572 106.57376213 16.799795 104.40966797 17.26464844 C99.73736785 18.27230761 95.08619158 19.36539065 90.43188477 20.45263672 C87.14500923 21.21630859 83.85422372 21.96068494 80.5625 22.703125 C77.39187708 23.41913984 74.35710115 24.20090589 71.25 25.171875 C62.785748 27.32863152 55.49483311 25.12316075 47.25 22.9375 C36.69187523 20.14535675 36.69187523 20.14535675 26.04388428 17.73399353 C24.1029982 17.33326055 22.16618444 16.91296562 20.22949219 16.49243164 C17.78925168 15.96575758 15.3417634 15.47136785 12.88769531 15.01342773 C4.84222499 13.21156542 4.84222499 13.21156542 2.33984375 9.61181641 C1.01991901 6.41260857 0 3.48071563 0 0 Z " fill="#0B60FA" transform="translate(36,89)"/>
<path d="M0 0 C0.66 0 1.32 0 2 0 C3.74236304 3.6225315 5.46913892 7.25203955 7.18188477 10.88867188 C7.76652398 12.124405 8.35536281 13.35816041 8.94848633 14.58984375 C9.8009358 16.36190972 10.63701899 18.14181931 11.47265625 19.921875 C11.98062744 20.99018555 12.48859863 22.05849609 13.01196289 23.15917969 C14.04826743 26.13877931 14.2565083 27.16758321 13 30 C11.87670898 31.73925781 11.87670898 31.73925781 10.49609375 33.453125 C10.00302734 34.071875 9.50996094 34.690625 9.00195312 35.328125 C8.48568359 35.96234375 7.96941406 36.5965625 7.4375 37.25 C6.91736328 37.8996875 6.39722656 38.549375 5.86132812 39.21875 C4.580156 40.81727669 3.29085995 42.40928626 2 44 C-2.29402302 42.4412797 -4.61498915 39.18456083 -7.3125 35.6875 C-7.77978516 35.11837891 -8.24707031 34.54925781 -8.72851562 33.96289062 C-12.06353821 29.67218948 -12.06353821 29.67218948 -11.77832031 26.65478516 C-10.91421622 23.70739874 -9.79191824 21.04699668 -8.49609375 18.26171875 C-8.00302734 17.19501953 -7.50996094 16.12832031 -7.00195312 15.02929688 C-6.48568359 13.92650391 -5.96941406 12.82371094 -5.4375 11.6875 C-4.65729492 10.00430664 -4.65729492 10.00430664 -3.86132812 8.28710938 C-2.57900626 5.52247049 -1.29175153 2.76024234 0 0 Z " fill="#065DFA" transform="translate(99,116)"/>
<path d="M0 0 C4.11086167 1.29151177 7.91318937 2.82451813 11.77416992 4.73388672 C13.44070869 5.55516556 13.44070869 5.55516556 15.14091492 6.39303589 C16.33762369 6.98820288 17.53413707 7.5837629 18.73046875 8.1796875 C19.97021186 8.79507067 21.20998386 9.41039565 22.44978333 10.02566528 C25.03921503 11.31216495 27.62688931 12.602128 30.21362305 13.89404297 C33.52432839 15.54669523 36.84131516 17.18630045 40.15999889 18.82285881 C42.71902841 20.08749421 45.27350332 21.3611215 47.82680702 22.63727188 C49.04796226 23.24575014 50.27076195 23.85093997 51.49522972 24.45272446 C53.20619967 25.29475676 54.910275 26.15075483 56.61401367 27.00732422 C57.58408859 27.48982635 58.55416351 27.97232849 59.55363464 28.4694519 C64.17229118 31.35907587 65.49158583 34.8945982 67 40 C54.96891283 36.28130033 43.26881904 31.2943878 31.96875 25.7512207 C28.23301436 23.94394037 24.48635086 22.42975415 20.5703125 21.05078125 C5.33792974 15.50354754 5.33792974 15.50354754 2.55078125 10.3125 C1.19766819 6.96348186 0.46400521 3.58456772 0 0 Z " fill="#0B60FA" transform="translate(24,55)"/>
<path d="M0 0 C1.43802586 4.31407758 0.61534408 6.96413436 -1.00146484 11.15185547 C-5.38984328 17.40580402 -13.42079687 19.41425848 -20.3125 22.0625 C-21.99286815 22.74081955 -23.67166131 23.42305345 -25.34887695 24.10913086 C-28.67680953 25.46634727 -32.01138122 26.80460483 -35.35253906 28.12890625 C-42.50556602 30.98236149 -49.50786222 34.1704518 -56.52270508 37.34594727 C-57.36470459 37.71776123 -58.2067041 38.0895752 -59.07421875 38.47265625 C-59.79182373 38.79500244 -60.50942871 39.11734863 -61.2487793 39.44946289 C-63 40 -63 40 -65 39 C-62.17391292 31.92240561 -59.45359939 29.37342657 -52.63671875 26.1953125 C-51.80516769 25.7832254 -50.97361664 25.37113831 -50.11686707 24.94656372 C-48.33741408 24.06661547 -46.5529711 23.19669822 -44.76409912 22.33605957 C-41.99735929 20.99872358 -39.2520083 19.62507398 -36.51025391 18.23730469 C-30.95598626 15.42626946 -25.38549952 12.64866767 -19.8125 9.875 C-17.87555581 8.9090451 -15.93870641 7.94290011 -14.00195312 6.9765625 C-9.33571925 4.64886078 -4.6682312 2.32369329 0 0 Z " fill="#095FFA" transform="translate(174,55)"/>
<path d="M0 0 C12.12694456 4.50659749 24.22305325 9.09260256 36.26831055 13.81347656 C38.31799052 14.6123734 40.37081403 15.40324627 42.42651367 16.18652344 C45.43430425 17.33393018 48.43056984 18.50771013 51.42578125 19.6875 C52.34442459 20.03143799 53.26306793 20.37537598 54.20954895 20.72973633 C58.41806426 22.41774484 60.52502139 23.28822286 63.09838867 27.14453125 C64 30 64 30 64 32 C56.86822701 30.56532307 50.12773211 28.48769232 43.25390625 26.12109375 C42.16158188 25.74896255 41.06925751 25.37683136 39.9438324 24.99342346 C37.65132911 24.21146424 35.35959638 23.42724263 33.06860352 22.64086914 C29.55064062 21.43342961 26.03043537 20.23272443 22.50976562 19.03320312 C20.27851367 18.27122023 18.04738925 17.50886375 15.81640625 16.74609375 C14.76127335 16.3856749 13.70614044 16.02525604 12.61903381 15.65391541 C11.16127785 15.1531826 11.16127785 15.1531826 9.67407227 14.64233398 C8.8174147 14.34858383 7.96075714 14.05483368 7.07814026 13.75218201 C5 13 5 13 3 12 C2.1484375 10.0390625 2.1484375 10.0390625 1.375 7.625 C1.11460938 6.83351563 0.85421875 6.04203125 0.5859375 5.2265625 C0 3 0 3 0 0 Z " fill="#0C61FA" transform="translate(31,73)"/>
<path d="M0 0 C0.06344071 4.32921373 -0.63375444 7.34541747 -3 11 C-8.77761573 14.8063446 -15.99781207 16.37009212 -22.5625 18.3125 C-24.37306761 18.88187821 -26.18233341 19.4554136 -27.99023438 20.03320312 C-31.56238942 21.16880846 -35.14090235 22.279056 -38.72705078 23.36962891 C-44.69686782 25.19572144 -50.61016436 27.18115829 -56.51478577 29.20710754 C-61.79213953 31 -61.79213953 31 -64 31 C-62.88990501 27.1573635 -62.05849767 24.60563975 -59 22 C-56.34547102 20.80244545 -53.71765734 19.72237684 -51 18.6875 C-49.2183355 17.99455439 -47.43712382 17.3004439 -45.65625 16.60546875 C-44.63273437 16.20763184 -43.60921875 15.80979492 -42.5546875 15.39990234 C-38.36776028 13.75101219 -34.19937657 12.05899453 -30.03125 10.36328125 C-27.64978458 9.39781194 -25.26805204 8.43300462 -22.88623047 7.46841431 C-21.29716262 6.82351598 -19.70894183 6.17652647 -18.12158203 5.5274353 C-15.86486912 4.605561 -13.60475936 3.69252634 -11.34375 2.78125 C-10.66219849 2.5003804 -9.98064697 2.2195108 -9.27844238 1.93013 C-5.90294898 0.5792437 -3.70199253 0 0 0 Z " fill="#0B60FA" transform="translate(169,74)"/>
<path d="M0 0 C0.66 0 1.32 0 2 0 C3.86335897 1.99984704 5.55881566 3.98778902 7.25 6.125 C7.7346875 6.69476563 8.219375 7.26453125 8.71875 7.8515625 C10.078125 9.5703125 10.078125 9.5703125 12 13 C11.5546875 15.875 11.5546875 15.875 10 19 C9.3505465 20.43443626 8.70218998 21.86936949 8.0546875 23.3046875 C7.33158735 24.82977145 6.60495523 26.35318521 5.875 27.875 C5.50246094 28.65875 5.12992188 29.4425 4.74609375 30.25 C3.83381003 32.16813499 2.91733016 34.08427329 2 36 C1.34 36 0.68 36 0 36 C-1.73417014 32.59585522 -3.43264935 29.17510225 -5.125 25.75 C-5.61871094 24.78191406 -6.11242187 23.81382813 -6.62109375 22.81640625 C-7.07871094 21.88183594 -7.53632812 20.94726562 -8.0078125 19.984375 C-8.65194092 18.69611816 -8.65194092 18.69611816 -9.30908203 17.38183594 C-10 15 -10 15 -9.24169922 12.86328125 C-7.53034021 10.29523329 -5.80287177 7.75546151 -4 5.25 C-3.29875 4.26515625 -2.5975 3.2803125 -1.875 2.265625 C-0.946875 1.14414062 -0.946875 1.14414062 0 0 Z " fill="#065DFA" transform="translate(99,62)"/>
<path d="M0 0 C0.66 0.33 1.32 0.66 2 1 C1.67 1.33 1.34 1.66 1 2 C1.99 2.66 2.98 3.32 4 4 C3.2479126 4.21406494 2.4958252 4.42812988 1.72094727 4.64868164 C-7.46428713 7.35817592 -16.22256808 10.77948923 -25.0625 14.4375 C-26.44314986 15.0037663 -27.82400872 15.56952331 -29.20507812 16.13476562 C-34.34538775 18.24204877 -39.48174792 20.35679859 -44.59716797 22.52392578 C-45.67756348 22.98138184 -46.75795898 23.43883789 -47.87109375 23.91015625 C-49.29119751 24.51742554 -49.29119751 24.51742554 -50.73999023 25.13696289 C-53 26 -53 26 -55 26 C-55 25.34 -55 24.68 -55 24 C-49.41767883 21.54556429 -43.83497996 19.0919903 -38.25195312 16.63916016 C-36.35894942 15.80735659 -34.46604307 14.97533141 -32.57324219 14.14306641 C-27.19679904 11.77913823 -21.81754055 9.42180217 -16.43591309 7.06970215 C-14.15661197 6.06877428 -11.88283747 5.05632311 -9.61035156 4.04003906 C-8.33665607 3.47706075 -7.06289811 2.91422372 -5.7890625 2.3515625 C-4.7057666 1.86768066 -3.6224707 1.38379883 -2.50634766 0.88525391 C-1.67925293 0.59312012 -0.8521582 0.30098633 0 0 Z " fill="#E1EBFE" transform="translate(166,70)"/>
<path d="M0 0 C-2.68102966 3.39172308 -5.86066989 4.13659951 -9.90625 5.375 C-10.58619019 5.58560059 -11.26613037 5.79620117 -11.9666748 6.01318359 C-14.141845 6.68430363 -16.32080186 7.34209246 -18.5 8 C-19.93515001 8.44188366 -21.37004878 8.88458417 -22.8046875 9.328125 C-26.86236931 10.57750313 -30.92872757 11.79573156 -35 13 C-36.12664062 13.33515625 -37.25328125 13.6703125 -38.4140625 14.015625 C-39.89519531 14.44101563 -39.89519531 14.44101563 -41.40625 14.875 C-42.67952148 15.24238281 -42.67952148 15.24238281 -43.97851562 15.6171875 C-46 16 -46 16 -48 15 C-47 13 -47 13 -45.09375 12.35058594 C-44.2378125 12.14723633 -43.381875 11.94388672 -42.5 11.734375 C-37.51677414 10.45472386 -32.67478116 8.93444003 -27.8125 7.265625 C-26.73911377 6.89975281 -26.73911377 6.89975281 -25.64404297 6.52648926 C-22.66752866 5.5105344 -19.69260226 4.49026635 -16.72119141 3.45947266 C-14.52511254 2.69934616 -12.32546644 1.95043774 -10.125 1.203125 C-9.45315674 0.96676331 -8.78131348 0.73040161 -8.08911133 0.48687744 C-3.34048641 -1.11349547 -3.34048641 -1.11349547 0 0 Z " fill="#EDF3FE" transform="translate(152,91)"/>
<path d="M0 0 C4.66947031 0.36151085 8.90168467 2.52671304 13.14453125 4.37890625 C13.91431808 4.71043198 14.68410492 5.0419577 15.47721863 5.38352966 C17.9243 6.43865243 20.36841004 7.50046897 22.8125 8.5625 C24.47571959 9.28104324 26.13912905 9.99914716 27.80273438 10.71679688 C31.8707066 12.47278311 35.93602809 14.23477652 40 16 C39.34 16.66 38.68 17.32 38 18 C18.2 10.08 18.2 10.08 -2 2 C-1.34 1.34 -0.68 0.68 0 0 Z " fill="#E9F0FE" transform="translate(49,78)"/>
<path d="M0 0 C7.03570437 0.50689243 14.08989703 3.63303675 20.68945312 5.96484375 C21.82737305 6.35736328 21.82737305 6.35736328 22.98828125 6.7578125 C23.66415283 6.9964502 24.34002441 7.23508789 25.03637695 7.48095703 C27.30601949 8.17036816 27.30601949 8.17036816 31 8 C31 8.66 31 9.32 31 10 C27.03173014 11.55037383 24.21391428 10.3930515 20.265625 9.12890625 C19.62759949 8.9277269 18.98957397 8.72654755 18.33221436 8.51927185 C16.30162152 7.87657426 14.27591382 7.21978046 12.25 6.5625 C10.87139224 6.12341068 9.49248873 5.68524877 8.11328125 5.24804688 C4.73869338 4.17609185 1.3683398 3.09145096 -2 2 C-1.34 1.34 -0.68 0.68 0 0 Z " fill="#E4EDFE" transform="translate(65,96)"/>
<path d="M0 0 C4.81919471 0.67487737 8.91883866 2.57965909 13.3125 4.5625 C14.42334961 5.0565332 14.42334961 5.0565332 15.55664062 5.56054688 C17.37311562 6.36917123 19.18683931 7.18397116 21 8 C20.34 8.66 19.68 9.32 19 10 C9.1 6.04 9.1 6.04 -1 2 C-0.67 1.34 -0.34 0.68 0 0 Z " fill="#DEEAFE" transform="translate(68,86)"/>
<path d="M0 0 C-3.12291069 1.69466007 -6.20331871 2.74215679 -9.625 3.6875 C-10.58664063 3.95949219 -11.54828125 4.23148437 -12.5390625 4.51171875 C-15 5 -15 5 -17 4 C-16 2 -16 2 -13.671875 1.11328125 C-12.22554688 0.71689453 -12.22554688 0.71689453 -10.75 0.3125 C-9.79609375 0.04050781 -8.8421875 -0.23148437 -7.859375 -0.51171875 C-4.88161411 -1.02021617 -2.89241097 -0.78644021 0 0 Z " fill="#DDE9FE" transform="translate(121,102)"/>
<path d="M0 0 C0.66 0.33 1.32 0.66 2 1 C1.67 1.33 1.34 1.66 1 2 C1.99 2.66 2.98 3.32 4 4 C-1.445 5.485 -1.445 5.485 -7 7 C-7 5.68 -7 4.36 -7 3 C-4.69631264 1.93347808 -2.35981813 0.93578995 0 0 Z " fill="#DAE7FE" transform="translate(166,70)"/>
</svg>
