<?xml version="1.0" encoding="UTF-8"?>
<svg version="1.1" xmlns="http://www.w3.org/2000/svg" width="64" height="64">
<path d="M0 0 C1.05058594 -0.01224609 2.10117187 -0.02449219 3.18359375 -0.03710938 C17.12395963 -0.06328027 17.12395963 -0.06328027 22.125 3.6875 C23.125 5.1875 23.125 5.1875 23.125 7.1875 C23.785 7.1875 24.445 7.1875 25.125 7.1875 C27.07335109 11.08420218 26.76436836 15.25143514 25.4296875 19.29296875 C21.24904302 27.79361253 12.98045829 36.45936885 4.6875 41 C1.10982379 42.19255874 -0.3955742 42.47985815 -3.875 41.1875 C-5.36 40.6925 -5.36 40.6925 -6.875 40.1875 C-6.875 39.5275 -6.875 38.8675 -6.875 38.1875 C-7.69484375 37.85298828 -7.69484375 37.85298828 -8.53125 37.51171875 C-15.46618294 33.59348164 -23.04917283 25.58847592 -25.875 18.1875 C-26.62020155 14.63479491 -26.811854 11.71481174 -25.875 8.1875 C-23.07531858 4.37414083 -19.95321985 1.73912626 -15.34375 0.515625 C-10.22670767 0.03158046 -5.13725815 0.00312866 0 0 Z " fill="#D4F24F" transform="translate(31.875,10.8125)"/>
<path d="M0 0 C0.33 0.66 0.66 1.32 1 2 C1.66 2 2.32 2 3 2 C4.94835109 5.89670218 4.63936836 10.06393514 3.3046875 14.10546875 C-0.87595698 22.60611253 -9.14454171 31.27186885 -17.4375 35.8125 C-21.01517621 37.00505874 -22.5205742 37.29235815 -26 36 C-26.99 35.67 -27.98 35.34 -29 35 C-28.67 34.01 -28.34 33.02 -28 32 C-26.35 32.99 -24.7 33.98 -23 35 C-23.0721875 34.31035156 -23.144375 33.62070312 -23.21875 32.91015625 C-23.81193942 26.90411341 -24.09892295 21.0343 -24 15 C-19.545 14.505 -19.545 14.505 -15 14 C-15.99 12.35 -16.98 10.7 -18 9 C-17.20335937 8.80664062 -16.40671875 8.61328125 -15.5859375 8.4140625 C-7.7134296 6.48205464 -7.7134296 6.48205464 0 4 C0 2.68 0 1.36 0 0 Z " fill="#5E9910" transform="translate(54,16)"/>
<path d="M0 0 C3.00024947 -0.05444001 5.99949039 -0.0938836 9 -0.125 C9.83917969 -0.14175781 10.67835937 -0.15851562 11.54296875 -0.17578125 C17.05057635 -0.21847588 21.73908425 0.32073448 27 2 C29 4 29 4 29.125 6.625 C29.08375 7.40875 29.0425 8.1925 29 9 C28.34 8.67 27.68 8.34 27 8 C27.33 7.34 27.66 6.68 28 6 C27.54753906 6.3609375 27.09507813 6.721875 26.62890625 7.09375 C21.23362529 10.76539678 16.56217123 11.51909337 10.1875 11.5625 C9.07580444 11.58376953 9.07580444 11.58376953 7.94165039 11.60546875 C4.3839136 11.54078998 2.34975585 11.26218174 -0.52734375 9.10546875 C-2 7 -2 7 -1.75 4.75 C-1.37875 3.88375 -1.37875 3.88375 -1 3 C-0.34 3 0.32 3 1 3 C0.67 2.01 0.34 1.02 0 0 Z " fill="#B8E90C" transform="translate(25,11)"/>
<path d="M0 0 C0.33 0.66 0.66 1.32 1 2 C1.66 2 2.32 2 3 2 C4.94835109 5.89670218 4.63936836 10.06393514 3.3046875 14.10546875 C-0.87595698 22.60611253 -9.14454171 31.27186885 -17.4375 35.8125 C-21.01517621 37.00505874 -22.5205742 37.29235815 -26 36 C-26.99 35.67 -27.98 35.34 -29 35 C-28.67 34.01 -28.34 33.02 -28 32 C-27.01 32.66 -26.02 33.32 -25 34 C-21.36060068 33.68269476 -21.36060068 33.68269476 -18 33 C-17.773125 32.13375 -17.54625 31.2675 -17.3125 30.375 C-15.15691739 24.83207328 -11.13493513 21.13493513 -7 17 C-1.38407757 11.20578371 -1.38407757 11.20578371 2 4 C1.34 4 0.68 4 0 4 C0 2.68 0 1.36 0 0 Z " fill="#3B5E47" transform="translate(54,16)"/>
<path d="M0 0 C-0.33 1.98 -0.66 3.96 -1 6 C-0.34 6 0.32 6 1 6 C0.7215625 6.51433594 0.443125 7.02867188 0.15625 7.55859375 C-1.86287286 11.82194438 -3.24756261 16.32904625 -4.78125 20.78515625 C-6 24 -6 24 -8 27 C-8.66 27 -9.32 27 -10 27 C-10.70132913 20.29980211 -11.11044961 13.73742646 -11 7 C-6.545 6.505 -6.545 6.505 -2 6 C-2.99 4.35 -3.98 2.7 -5 1 C-3 0 -3 0 0 0 Z " fill="#64A357" transform="translate(41,24)"/>
<path d="M0 0 C1.91752953 0.06029967 3.83417426 0.14916707 5.75 0.25 C7.35101563 0.31960937 7.35101563 0.31960937 8.984375 0.390625 C12.54938871 1.11101637 13.79747746 2.15596604 16 5 C16 5.66 16 6.32 16 7 C14.68 7 13.36 7 12 7 C12.28875 7.68707031 12.5775 8.37414063 12.875 9.08203125 C13.431875 10.43361328 13.431875 10.43361328 14 11.8125 C14.37125 12.70582031 14.7425 13.59914063 15.125 14.51953125 C16 17 16 17 16 20 C15.34 20 14.68 20 14 20 C13.34 19.01 12.68 18.02 12 17 C9.94996045 15.80767387 9.94996045 15.80767387 8 15 C8 14.34 8 13.68 8 13 C7.01 12.67 6.02 12.34 5 12 C3.35179805 9.39757586 3 8.13751221 3 5 C2.34 5 1.68 5 1 5 C0.67 3.35 0.34 1.7 0 0 Z " fill="#EFFC9F" transform="translate(8,23)"/>
<path d="M0 0 C1.65 0 3.3 0 5 0 C5 0.66 5 1.32 5 2 C4.34 2 3.68 2 3 2 C3.34227572 4.97065509 3.34227572 4.97065509 4 8 C7.21006265 9.60503133 10.66431131 9.26782728 14.1875 9.3125 C15.3022168 9.35600586 15.3022168 9.35600586 16.43945312 9.40039062 C22.14210848 9.46536391 25.22526922 8.07597015 30 5 C30.66 5 31.32 5 32 5 C31.71044922 6.8918457 31.71044922 6.8918457 31 9 C24.66343518 12.25649445 18.89842174 12.43097877 11.875 12.3125 C10.91207031 12.31572266 9.94914062 12.31894531 8.95703125 12.32226562 C3.91882468 12.28414989 -0.28540369 11.99219474 -5 10 C-5 9.34 -5 8.68 -5 8 C-5.99 7.67 -6.98 7.34 -8 7 C-6.8125 4.5 -6.8125 4.5 -5 2 C-2.3125 1.6875 -2.3125 1.6875 0 2 C0 1.34 0 0.68 0 0 Z " fill="#E3FC7A" transform="translate(21,12)"/>
<path d="M0 0 C0.66 0 1.32 0 2 0 C2.433125 1.093125 2.86625 2.18625 3.3125 3.3125 C5.09428308 7.43131948 6.77409481 9.28726442 10.6875 11.5625 C11.450625 12.036875 12.21375 12.51125 13 13 C13 13.66 13 14.32 13 15 C13.66 15 14.32 15 15 15 C14.67 13.02 14.34 11.04 14 9 C16.6465335 11.6465335 17.59941997 14.56221264 19 18 C19.33 18 19.66 18 20 18 C19.67 12.39 19.34 6.78 19 1 C20.65 1 22.3 1 24 1 C24 1.66 24 2.32 24 3 C23.01 3 22.02 3 21 3 C21.2475 4.8871875 21.2475 4.8871875 21.5 6.8125 C22.11073012 12.2144509 22.09133564 17.57060338 22 23 C16.24329229 21.96379261 13.73972999 20.18316594 10.06640625 15.65625 C9 14 9 14 9 12 C8.401875 11.731875 7.80375 11.46375 7.1875 11.1875 C3.5232458 9.19833343 1.56801855 6.85973797 0 3 C0 2.01 0 1.02 0 0 Z " fill="#C8ED42" transform="translate(9,28)"/>
<path d="M0 0 C0.66 6.6 1.32 13.2 2 20 C-2.57226707 15.42773293 -2.80226518 13.98867411 -4 8 C-4.66 8 -5.32 8 -6 8 C-7.4606285 5.35261084 -8 4.10551666 -8 1 C-5.10765685 0.17361624 -3.11257569 0 0 0 Z " fill="#BAE91C" transform="translate(28,29)"/>
<path d="M0 0 C6.27 0.33 12.54 0.66 19 1 C19 1.99 19 2.98 19 4 C19.33 4.99 19.66 5.98 20 7 C18.02 7.33 16.04 7.66 14 8 C14 7.34 14 6.68 14 6 C13.40832031 6.06960937 12.81664062 6.13921875 12.20703125 6.2109375 C11.41683594 6.26507812 10.62664063 6.31921875 9.8125 6.375 C9.03519531 6.44460937 8.25789063 6.51421875 7.45703125 6.5859375 C5 6 5 6 0 0 Z " fill="#A4DB17" transform="translate(19,23)"/>
<path d="M0 0 C-0.680625 0.66 -1.36125 1.32 -2.0625 2 C-5.0139125 4.94297989 -7.72835661 8.07523395 -10.44921875 11.23046875 C-11.58693322 12.52866688 -12.7794033 13.7794033 -14 15 C-14.71408334 16.98356483 -15.38617742 18.98315437 -16 21 C-16.66 21 -17.32 21 -18 21 C-12.88435374 5.32653061 -12.88435374 5.32653061 -10 1 C-8.125 0.234375 -8.125 0.234375 -6 -0.25 C-4.948125 -0.50523438 -4.948125 -0.50523438 -3.875 -0.765625 C-2 -1 -2 -1 0 0 Z " fill="#447B09" transform="translate(52,29)"/>
<path d="M0 0 C-0.33 1.98 -0.66 3.96 -1 6 C-0.34 6 0.32 6 1 6 C0.72027344 6.51175781 0.44054688 7.02351563 0.15234375 7.55078125 C-1.87703738 11.86407606 -3.19738325 16.4566117 -4.68359375 20.98046875 C-5.11800781 21.97691406 -5.55242188 22.97335938 -6 24 C-6.99 24.33 -7.98 24.66 -9 25 C-9 24.01 -9 23.02 -9 22 C-8.34 22 -7.68 22 -7 22 C-6.01 17.38 -5.02 12.76 -4 8 C-5.32 7.67 -6.64 7.34 -8 7 C-7 6 -7 6 -4.4375 5.9375 C-3.2309375 5.9684375 -3.2309375 5.9684375 -2 6 C-2.99 4.35 -3.98 2.7 -5 1 C-3 0 -3 0 0 0 Z " fill="#66AB0F" transform="translate(41,24)"/>
<path d="M0 0 C1.60031344 3.20062687 0.03173691 5.72271806 -1 9 C-0.34 9 0.32 9 1 9 C1.14695312 9.59167969 1.29390625 10.18335938 1.4453125 10.79296875 C3.12307214 16.70369667 4.97021986 19.25232068 10 23 C12.09520202 25.25673687 14.05822158 27.61064854 16 30 C15.67 30.66 15.34 31.32 15 32 C12.90687744 29.98854552 10.82583904 27.966666 8.75 25.9375 C8.16347656 25.37611328 7.57695312 24.81472656 6.97265625 24.23632812 C2.52993587 19.86848505 -1.41440685 15.55822279 -2.4609375 9.19921875 C-2.43257813 8.37035156 -2.40421875 7.54148437 -2.375 6.6875 C-2.36210938 5.84574219 -2.34921875 5.00398438 -2.3359375 4.13671875 C-2 2 -2 2 0 0 Z " fill="#72A60B" transform="translate(8,17)"/>
<path d="M0 0 C3.00024947 -0.05444001 5.99949039 -0.0938836 9 -0.125 C9.83917969 -0.14175781 10.67835937 -0.15851562 11.54296875 -0.17578125 C17.05057635 -0.21847588 21.73908425 0.32073448 27 2 C29 4 29 4 29.125 6.625 C29.08375 7.40875 29.0425 8.1925 29 9 C28.34 8.67 27.68 8.34 27 8 C27 7.01 27 6.02 27 5 C20.07608231 3.1779164 13.38392352 2.63167368 6.2578125 2.34375 C3 2 3 2 0 0 Z " fill="#84C30E" transform="translate(25,11)"/>
<path d="M0 0 C0.66 0.33 1.32 0.66 2 1 C-8.5778982 12.35823495 -8.5778982 12.35823495 -16 15 C-18.8125 14.8125 -18.8125 14.8125 -21 14 C-21.99 13.67 -22.98 13.34 -24 13 C-23.67 12.01 -23.34 11.02 -23 10 C-21.515 10.99 -21.515 10.99 -20 12 C-15.25557302 11.73642072 -11.81239177 10.88817559 -8 8 C-8 7.34 -8 6.68 -8 6 C-6.34928604 4.97388051 -4.68029994 3.97691857 -3 3 C-1.24850835 1.41754725 -1.24850835 1.41754725 0 0 Z " fill="#385239" transform="translate(49,38)"/>
<path d="M0 0 C0.66 0.33 1.32 0.66 2 1 C2 1.66 2 2.32 2 3 C0.54293274 3.50367757 -0.91570096 4.00282556 -2.375 4.5 C-3.59316406 4.91765625 -3.59316406 4.91765625 -4.8359375 5.34375 C-7 6 -7 6 -9 6 C-8.67 4.02 -8.34 2.04 -8 0 C-4.67803635 -1.10732122 -3.31749961 -0.85064093 0 0 Z " fill="#498201" transform="translate(49,24)"/>
<path d="M0 0 C-0.2734375 1.890625 -0.2734375 1.890625 -1 4 C-6.41171441 7.53741332 -12.75874056 7.55170373 -18.9375 6.5 C-19.618125 6.335 -20.29875 6.17 -21 6 C-21 5.67 -21 5.34 -21 5 C-20.21496094 4.97421875 -19.42992187 4.9484375 -18.62109375 4.921875 C-12.08596039 4.56905798 -5.53981864 0 0 0 Z " fill="#B9E33F" transform="translate(53,17)"/>
<path d="M0 0 C1.32 0 2.64 0 4 0 C4.33 0.99 4.66 1.98 5 3 C5.99 3 6.98 3 8 3 C8.33 2.34 8.66 1.68 9 1 C12 7.625 12 7.625 12 11 C11.34 11 10.68 11 10 11 C9.34 10.01 8.68 9.02 8 8 C5.94996045 6.80767387 5.94996045 6.80767387 4 6 C4 5.34 4 4.68 4 4 C3.01 3.67 2.02 3.34 1 3 C0.67 2.01 0.34 1.02 0 0 Z " fill="#E7FC86" transform="translate(12,32)"/>
<path d="M0 0 C1.65 0 3.3 0 5 0 C5 0.66 5 1.32 5 2 C4.01 2 3.02 2 2 2 C2.165 3.258125 2.33 4.51625 2.5 5.8125 C3.11073012 11.2144509 3.09133564 16.57060338 3 22 C2.67 22 2.34 22 2 22 C1.66076424 19.64655194 1.32849466 17.2924516 1 14.9375 C0.85691406 13.95233398 0.85691406 13.95233398 0.7109375 12.94726562 C0.11112326 8.59861237 -0.09127093 4.38670929 0 0 Z " fill="#D3FA64" transform="translate(28,29)"/>
<path d="M0 0 C2.31 0.33 4.62 0.66 7 1 C6.67 2.32 6.34 3.64 6 5 C6 4.01 6 3.02 6 2 C4.68 2 3.36 2 2 2 C2 7.28 2 12.56 2 18 C2.66 18.33 3.32 18.66 4 19 C3.01 19.33 2.02 19.66 1 20 C0.29867087 13.29980211 -0.11044961 6.73742646 0 0 Z " fill="#6FA849" transform="translate(30,31)"/>
<path d="M0 0 C1.65 0 3.3 0 5 0 C5.53449652 7.24539726 4.71607548 11.72912263 1 18 C0.34 18 -0.32 18 -1 18 C-1 17.01 -1 16.02 -1 15 C-0.34 15 0.32 15 1 15 C1.99 10.38 2.98 5.76 4 1 C2.68 0.67 1.36 0.34 0 0 Z " fill="#67AC2F" transform="translate(33,31)"/>
<path d="M0 0 C1.93835966 0.06010418 3.87584491 0.14891717 5.8125 0.25 C6.89144531 0.29640625 7.97039063 0.3428125 9.08203125 0.390625 C12 1 12 1 13.88671875 3.046875 C14.25410156 3.69140625 14.62148438 4.3359375 15 5 C13.35 5 11.7 5 10 5 C10 4.01 10 3.02 10 2 C7.36 2 4.72 2 2 2 C2 2.66 2 3.32 2 4 C2.66 4 3.32 4 4 4 C3.67 5.32 3.34 6.64 3 8 C3 7.01 3 6.02 3 5 C2.34 5 1.68 5 1 5 C0.67 3.35 0.34 1.7 0 0 Z " fill="#E0FC76" transform="translate(8,23)"/>
<path d="M0 0 C1.26950234 3.0006419 0.98068499 4.05184556 -0.1875 7.1875 C-2 10 -2 10 -4.1875 10.875 C-5.0846875 10.936875 -5.0846875 10.936875 -6 11 C-5.55530671 5.96014269 -3.28656638 3.62365012 0 0 Z " fill="#406C30" transform="translate(43,37)"/>
<path d="M0 0 C0.33 0.66 0.66 1.32 1 2 C1.66 2 2.32 2 3 2 C4.60725635 5.21451269 4.05748185 8.43612536 4 12 C3.01 12.495 3.01 12.495 2 13 C1.67 12.34 1.34 11.68 1 11 C0.01 11 -0.98 11 -2 11 C-1.2884375 10.38125 -1.2884375 10.38125 -0.5625 9.75 C1.16266518 7.817815 1.56584875 6.51807725 2 4 C1.34 4 0.68 4 0 4 C0 2.68 0 1.36 0 0 Z " fill="#415F34" transform="translate(54,16)"/>
<path d="M0 0 C1.32 0.33 2.64 0.66 4 1 C4 3.31 4 5.62 4 8 C3.01 8 2.02 8 1 8 C-0.35439668 5.29120665 -0.06501451 2.99066732 0 0 Z " fill="#B7E60A" transform="translate(23,31)"/>
<path d="M0 0 C4.875 4.75 4.875 4.75 6 7 C3.69 7 1.38 7 -1 7 C-1.33 7.99 -1.66 8.98 -2 10 C-1.54177532 6.53058454 -1.10868317 3.32604951 0 0 Z " fill="#B8E224" transform="translate(9,16)"/>
<path d="M0 0 C2.97 0 5.94 0 9 0 C7.515 1.98 7.515 1.98 6 4 C4.35 3.67 2.7 3.34 1 3 C0.67 2.01 0.34 1.02 0 0 Z " fill="#77BC06" transform="translate(22,25)"/>
<path d="M0 0 C2.16874252 0.50603992 3.99967627 0.99983813 6 2 C6 3.32 6 4.64 6 6 C3.83125748 5.49396008 2.00032373 5.00016187 0 4 C0 2.68 0 1.36 0 0 Z " fill="#F6F4D3" transform="translate(13,27)"/>
<path d="M0 0 C-0.33 1.32 -0.66 2.64 -1 4 C-3.64 4.33 -6.28 4.66 -9 5 C-7.36885863 1.73771726 -3.62038485 0 0 0 Z " fill="#D9FB69" transform="translate(53,17)"/>
<path d="M0 0 C0.2475 0.639375 0.495 1.27875 0.75 1.9375 C1.81562433 4.18741541 1.81562433 4.18741541 4.125 4.75 C4.74375 4.8325 5.3625 4.915 6 5 C6 5.66 6 6.32 6 7 C4.33388095 7.042721 2.66617115 7.04063832 1 7 C0 6 0 6 -0.0625 2.9375 C-0.041875 1.968125 -0.02125 0.99875 0 0 Z " fill="#EBFE8F" transform="translate(20,16)"/>
<path d="M0 0 C1.65 0 3.3 0 5 0 C5 0.66 5 1.32 5 2 C4.34 2 3.68 2 3 2 C3 3.98 3 5.96 3 8 C2.34 8 1.68 8 1 8 C0.67 5.36 0.34 2.72 0 0 Z " fill="#D9F861" transform="translate(21,12)"/>
<path d="M0 0 C0.33 0 0.66 0 1 0 C1.33 2.97 1.66 5.94 2 9 C1.67 8.34 1.34 7.68 1 7 C-1.02463255 6.34786708 -1.02463255 6.34786708 -3 6 C-3 5.34 -3 4.68 -3 4 C-2.01 4 -1.02 4 0 4 C0 2.68 0 1.36 0 0 Z " fill="#EEFCB7" transform="translate(19,29)"/>
<path d="M0 0 C0.99 0.33 1.98 0.66 3 1 C-2.14285714 5.42857143 -2.14285714 5.42857143 -6 6 C-6 5.34 -6 4.68 -6 4 C-5.01 4 -4.02 4 -3 4 C-2.67 3.01 -2.34 2.02 -2 1 C-1.34 0.67 -0.68 0.34 0 0 Z " fill="#BDE625" transform="translate(50,15)"/>
<path d="M0 0 C5.66153846 1.47692308 5.66153846 1.47692308 7.375 4.125 C7.684375 5.053125 7.684375 5.053125 8 6 C2.33846154 4.52307692 2.33846154 4.52307692 0.625 1.875 C0.41875 1.25625 0.2125 0.6375 0 0 Z " fill="#BAE055" transform="translate(22,45)"/>
<path d="M0 0 C0.33 0.66 0.66 1.32 1 2 C0.34 2 -0.32 2 -1 2 C-1 3.98 -1 5.96 -1 8 C-4 4.375 -4 4.375 -4 1 C-2.68 0.67 -1.36 0.34 0 0 Z " fill="#C8E733" transform="translate(24,29)"/>
</svg>
