<?xml version="1.0" encoding="UTF-8"?>
<svg version="1.1" xmlns="http://www.w3.org/2000/svg" width="64" height="64">
<path d="M0 0 C21.12 0 42.24 0 64 0 C64 21.12 64 42.24 64 64 C42.88 64 21.76 64 0 64 C0 42.88 0 21.76 0 0 Z " fill="#EDB280" transform="translate(0,0)"/>
<path d="M0 0 C21.12 0 42.24 0 64 0 C64 12.21 64 24.42 64 37 C61.03 37 58.06 37 55 37 C55 37.66 55 38.32 55 39 C54.34 39 53.68 39 53 39 C52.505 43.95 52.505 43.95 52 49 C49.91227095 45.86840642 49.61859453 44.32901885 49.125 40.6875 C48.29063948 35.76607665 47.33664456 32.72919097 44 29 C42.9790625 28.7834375 42.9790625 28.7834375 41.9375 28.5625 C41.298125 28.376875 40.65875 28.19125 40 28 C37.49786684 23.36642008 36.53804498 19.27284085 36 14 C36.969375 13.566875 37.93875 13.13375 38.9375 12.6875 C42.27731765 11.2985139 42.27731765 11.2985139 43 8 C40.36 8.99 37.72 9.98 35 11 C34.319375 9.6078125 34.319375 9.6078125 33.625 8.1875 C32.0578367 4.96078611 32.0578367 4.96078611 30 2 C26.21806195 2.52526917 23.6899263 3.21400491 21 6 C20.19053578 9.10197397 20.19053578 9.10197397 20 12 C18.02 12.66 16.04 13.32 14 14 C14.11306697 15.95894361 14.11306697 15.95894361 15 18 C17.49034386 19.29660434 17.49034386 19.29660434 20 20 C16.25 24.875 16.25 24.875 14 26 C11.32345925 34.36005938 11.78968111 43.34187243 12 52 C12.99 52.33 13.98 52.66 15 53 C16.82421875 55.25 16.82421875 55.25 18.6875 58 C19.31011719 58.9075 19.93273437 59.815 20.57421875 60.75 C22 63 22 63 22 64 C14.74 64 7.48 64 0 64 C0 42.88 0 21.76 0 0 Z " fill="#E3DCCD" transform="translate(0,0)"/>
<path d="M0 0 C4.02886394 1.85109965 5.50618556 5.1719766 7.3125 9.0625 C8.3025 8.4025 9.2925 7.7425 10.3125 7.0625 C11.6325 7.0625 12.9525 7.0625 14.3125 7.0625 C14.125 8.875 14.125 8.875 13.3125 11.0625 C10.75 12.8125 10.75 12.8125 8.3125 14.0625 C8.62432069 15.47931634 8.93698737 16.89594651 9.25 18.3125 C9.42402344 19.10140625 9.59804688 19.8903125 9.77734375 20.703125 C10.260056 22.83128703 10.77413178 24.94782842 11.3125 27.0625 C12.09625 27.145 12.88 27.2275 13.6875 27.3125 C16.3125 28.0625 16.3125 28.0625 17.625 30.125 C17.851875 30.764375 18.07875 31.40375 18.3125 32.0625 C17.6525 32.0625 16.9925 32.0625 16.3125 32.0625 C15.9825 33.0525 15.6525 34.0425 15.3125 35.0625 C13.8275 35.5575 13.8275 35.5575 12.3125 36.0625 C11.84070312 35.30453125 11.84070312 35.30453125 11.359375 34.53125 C10.93140625 33.8815625 10.5034375 33.231875 10.0625 32.5625 C9.64484375 31.9128125 9.2271875 31.263125 8.796875 30.59375 C8.30703125 30.0884375 7.8171875 29.583125 7.3125 29.0625 C5.9925 29.0625 4.6725 29.0625 3.3125 29.0625 C2.86112898 32.92573949 2.86112898 32.92573949 4.75 34.625 C5.265625 35.099375 5.78125 35.57375 6.3125 36.0625 C6.6425 37.0525 6.9725 38.0425 7.3125 39.0625 C6.9825 39.7225 6.6525 40.3825 6.3125 41.0625 C7.9625 41.3925 9.6125 41.7225 11.3125 42.0625 C11.3125 43.3825 11.3125 44.7025 11.3125 46.0625 C10.6525 46.0625 9.9925 46.0625 9.3125 46.0625 C9.3125 46.7225 9.3125 47.3825 9.3125 48.0625 C8.6525 48.0625 7.9925 48.0625 7.3125 48.0625 C9.37350529 53.37772416 11.8753909 57.51065281 15.3125 62.0625 C13.3325 61.7325 11.3525 61.4025 9.3125 61.0625 C9.06628906 60.19882812 8.82007812 59.33515625 8.56640625 58.4453125 C6.13013034 51.8726803 1.67745655 45.22134261 -4.28125 41.3984375 C-6.40215213 40.46550903 -8.45473296 39.67479545 -10.6875 39.0625 C-11.0175 40.0525 -11.3475 41.0425 -11.6875 42.0625 C-13.1725 42.5575 -13.1725 42.5575 -14.6875 43.0625 C-14.74808594 42.42441406 -14.80867187 41.78632812 -14.87109375 41.12890625 C-14.99677734 39.88947266 -14.99677734 39.88947266 -15.125 38.625 C-15.24681641 37.38943359 -15.24681641 37.38943359 -15.37109375 36.12890625 C-15.47680815 34.07587975 -15.47680815 34.07587975 -16.6875 33.0625 C-16.57135269 26.09366147 -16.57135269 26.09366147 -14.28125 23.421875 C-12.625 22.0625 -12.625 22.0625 -9.6875 20.0625 C-11.6675 18.7425 -13.6475 17.4225 -15.6875 16.0625 C-15.3575 14.7425 -15.0275 13.4225 -14.6875 12.0625 C-12.7075 11.7325 -10.7275 11.4025 -8.6875 11.0625 C-8.81125 10.175625 -8.935 9.28875 -9.0625 8.375 C-8.6875 5.0625 -8.6875 5.0625 -6 2.125 C-2.6875 0.0625 -2.6875 0.0625 0 0 Z " fill="#452611" transform="translate(28.6875,0.9375)"/>
<path d="M0 0 C0 11.55 0 23.1 0 35 C-2.97 35 -5.94 35 -9 35 C-9 35.66 -9 36.32 -9 37 C-9.66 37 -10.32 37 -11 37 C-11.33 40.3 -11.66 43.6 -12 47 C-14.08772905 43.86840642 -14.38140547 42.32901885 -14.875 38.6875 C-15.70936052 33.76607665 -16.66335544 30.72919097 -20 27 C-21.0209375 26.7834375 -21.0209375 26.7834375 -22.0625 26.5625 C-22.701875 26.376875 -23.34125 26.19125 -24 26 C-26.50213316 21.36642008 -27.46195502 17.27284085 -28 12 C-27.030625 11.566875 -26.06125 11.13375 -25.0625 10.6875 C-21.72268235 9.2985139 -21.72268235 9.2985139 -21 6 C-23.64 6.99 -26.28 7.98 -29 9 C-29.66 6.69 -30.32 4.38 -31 2 C-27.33385091 1.66080904 -23.6670121 1.32971919 -20 1 C-18.97003906 0.90460937 -17.94007812 0.80921875 -16.87890625 0.7109375 C-15.86699219 0.62070312 -14.85507812 0.53046875 -13.8125 0.4375 C-12.89082031 0.35371094 -11.96914063 0.26992188 -11.01953125 0.18359375 C-7.35261624 -0.03936227 -3.67368685 0 0 0 Z " fill="#CCD4E3" transform="translate(64,2)"/>
<path d="M0 0 C0.66 0.33 1.32 0.66 2 1 C2.59355614 3.64860427 2.74209269 6.29197322 3 9 C3.37125 8.484375 3.7425 7.96875 4.125 7.4375 C6 6 6 6 8.9375 6.125 C12.01150783 7.00328795 13.71245415 7.79717807 16 10 C17.1577506 13.47325181 17.06866652 16.36067448 17 20 C17.763125 20.04125 18.52625 20.0825 19.3125 20.125 C22 21 22 21 23.8125 24.0625 C24.204375 25.031875 24.59625 26.00125 25 27 C23.6293189 27.51172094 22.25315925 28.00877492 20.875 28.5 C20.10929687 28.7784375 19.34359375 29.056875 18.5546875 29.34375 C15.44615625 30.14227179 13.19426708 30.46776207 10 30 C7.734375 27.62890625 7.734375 27.62890625 5.75 24.5625 C3.44486108 20.65452357 3.44486108 20.65452357 0 18 C-0.34176782 15.50955277 -0.55958412 13.12749979 -0.6875 10.625 C-0.73455078 9.93921875 -0.78160156 9.2534375 -0.83007812 8.546875 C-1.01914272 5.36067167 -1.01886395 3.05659185 0 0 Z " fill="#F6BB84" transform="translate(12,34)"/>
<path d="M0 0 C21.12 0 42.24 0 64 0 C64 0.66 64 1.32 64 2 C53.44 2.99 42.88 3.98 32 5 C31.34 4.01 30.68 3.02 30 2 C26.18716777 2.52956003 23.83477353 3.36072809 21 6 C19.7483533 8.08334635 19.7483533 8.08334635 19 10 C19 9.01 19 8.02 19 7 C16.95737483 7.28487651 14.91592973 7.57822051 12.875 7.875 C11.73804688 8.03742187 10.60109375 8.19984375 9.4296875 8.3671875 C6.13921085 8.97431417 3.14220897 9.86345633 0 11 C0 7.37 0 3.74 0 0 Z " fill="#C8C1B3" transform="translate(0,0)"/>
<path d="M0 0 C2.97 0 5.94 0 9 0 C9 8.91 9 17.82 9 27 C6.36 27 3.72 27 1 27 C-0.01894076 21.15111957 -0.11798453 15.49080831 -0.0625 9.5625 C-0.05798828 8.64017578 -0.05347656 7.71785156 -0.04882812 6.76757812 C-0.03713959 4.51169032 -0.01920769 2.25583632 0 0 Z " fill="#B8B2AA" transform="translate(55,37)"/>
<path d="M0 0 C1.45212891 -0.03867187 1.45212891 -0.03867187 2.93359375 -0.078125 C5.5625 0.25 5.5625 0.25 7.34765625 1.578125 C8.5625 3.25 8.5625 3.25 9.5625 6.25 C9.2325 6.91 8.9025 7.57 8.5625 8.25 C11.0375 8.745 11.0375 8.745 13.5625 9.25 C13.5625 10.57 13.5625 11.89 13.5625 13.25 C12.9025 13.25 12.2425 13.25 11.5625 13.25 C11.5625 13.91 11.5625 14.57 11.5625 15.25 C10.9025 15.25 10.2425 15.25 9.5625 15.25 C11.62350529 20.56522416 14.1253909 24.69815281 17.5625 29.25 C15.5825 28.92 13.6025 28.59 11.5625 28.25 C11.32015625 27.38761719 11.0778125 26.52523437 10.828125 25.63671875 C9.43881741 21.91903456 7.68088273 19.24048295 5.3125 16.0625 C4.56484375 15.03769531 3.8171875 14.01289062 3.046875 12.95703125 C0.41199172 10.08600277 -1.87118174 8.74970898 -5.4375 7.25 C-5.4375 6.59 -5.4375 5.93 -5.4375 5.25 C-6.0975 5.25 -6.7575 5.25 -7.4375 5.25 C-7.4375 3.93 -7.4375 2.61 -7.4375 1.25 C-4.85741408 -0.04004296 -2.88008426 0.04589776 0 0 Z " fill="#6E441B" transform="translate(26.4375,33.75)"/>
<path d="M0 0 C4.02886394 1.85109965 5.50618556 5.1719766 7.3125 9.0625 C8.3025 8.4025 9.2925 7.7425 10.3125 7.0625 C11.6325 7.0625 12.9525 7.0625 14.3125 7.0625 C14.1875 8.9375 14.1875 8.9375 13.3125 11.0625 C8.58959886 13.15914889 4.19951283 13.27934002 -0.875 13.125 C-6.35239037 12.93569912 -6.35239037 12.93569912 -11.6875 14.0625 C-11.3575 14.7225 -11.0275 15.3825 -10.6875 16.0625 C-10.0275 16.0625 -9.3675 16.0625 -8.6875 16.0625 C-8.6875 17.0525 -8.6875 18.0425 -8.6875 19.0625 C-13.4375 18.3125 -13.4375 18.3125 -15.6875 16.0625 C-15.3125 13.9375 -15.3125 13.9375 -14.6875 12.0625 C-12.7075 11.7325 -10.7275 11.4025 -8.6875 11.0625 C-8.81125 10.175625 -8.935 9.28875 -9.0625 8.375 C-8.6875 5.0625 -8.6875 5.0625 -6 2.125 C-2.6875 0.0625 -2.6875 0.0625 0 0 Z " fill="#7A421F" transform="translate(28.6875,0.9375)"/>
<path d="M0 0 C2.25 0.125 2.25 0.125 5 1 C6.3703055 2.97485205 7.70672372 4.97386717 9 7 C9.99 7 10.98 7 12 7 C12.33 5.68 12.66 4.36 13 3 C14.9375 3.9375 14.9375 3.9375 17 6 C17.66174825 8.9858081 17.87205948 11.94861869 18 15 C14.62902617 16.49821059 12.79557881 17 9 17 C8.67 16.34 8.34 15.68 8 15 C6.35636866 14.27840576 4.68949614 13.60648579 3 13 C2.67 10.69 2.34 8.38 2 6 C1.01 5.67 0.02 5.34 -1 5 C-0.67 3.35 -0.34 1.7 0 0 Z " fill="#F5BE8D" transform="translate(32,29)"/>
<path d="M0 0 C0.66 0.33 1.32 0.66 2 1 C2.59355614 3.64860427 2.74209269 6.29197322 3 9 C3.37125 8.484375 3.7425 7.96875 4.125 7.4375 C6 6 6 6 8.9375 6.125 C12.07920889 7.02263111 13.81962602 7.56804441 16 10 C16.25 13.1875 16.25 13.1875 16 16 C12.7317333 17.98376188 10.64103206 18.1540383 6.875 17.6875 C6.00617187 17.58824219 5.13734375 17.48898438 4.2421875 17.38671875 C2 17 2 17 0 16 C-0.44921875 13.1640625 -0.44921875 13.1640625 -0.6875 9.625 C-0.77386719 8.46226563 -0.86023437 7.29953125 -0.94921875 6.1015625 C-1 3 -1 3 0 0 Z " fill="#F8C08B" transform="translate(12,34)"/>
<path d="M0 0 C1.57043101 0.01330874 3.14079971 0.03717648 4.7109375 0.0703125 C5.51273438 0.07933594 6.31453125 0.08835937 7.140625 0.09765625 C9.12252273 0.12125027 11.10426731 0.15712185 13.0859375 0.1953125 C13.12092736 7.16995753 13.12092736 7.16995753 12.0859375 10.1953125 C9.5234375 12.0078125 9.5234375 12.0078125 7.0859375 13.1953125 C7.4159375 11.2153125 7.7459375 9.2353125 8.0859375 7.1953125 C6.4771875 7.6903125 6.4771875 7.6903125 4.8359375 8.1953125 C1.0859375 9.1953125 1.0859375 9.1953125 -2.9140625 9.1953125 C-2.9140625 7.5453125 -2.9140625 5.8953125 -2.9140625 4.1953125 C-3.9040625 4.5253125 -4.8940625 4.8553125 -5.9140625 5.1953125 C-5.9140625 0.42381639 -4.62855144 0.23096564 0 0 Z " fill="#402C19" transform="translate(22.9140625,12.8046875)"/>
<path d="M0 0 C3.59622653 3.39643617 6.34661633 6.8303971 9 11 C9.33 11.33 9.66 11.66 10 12 C10.04063832 13.66617115 10.042721 15.33388095 10 17 C11.65 17 13.3 17 15 17 C12.69 14.03 10.38 11.06 8 8 C8.33 7.34 8.66 6.68 9 6 C9.66 7.32 10.32 8.64 11 10 C12.98 10 14.96 10 17 10 C17 11.65 17 13.3 17 15 C18.2065625 15.433125 18.2065625 15.433125 19.4375 15.875 C22 17 22 17 23 19 C15.41 19 7.82 19 0 19 C2.46278801 16.53721199 4.70676982 16.00228745 8 15 C7.34 14.34 6.68 13.68 6 13 C6 12.01 6 11.02 6 10 C4.35 9.67 2.7 9.34 1 9 C0.67 6.03 0.34 3.06 0 0 Z " fill="#8B624A" transform="translate(28,45)"/>
<path d="M0 0 C1.65 0.33 3.3 0.66 5 1 C4.67 2.98 4.34 4.96 4 7 C3.38125 6.79375 2.7625 6.5875 2.125 6.375 C1.42375 6.25125 0.7225 6.1275 0 6 C-0.66 6.66 -1.32 7.32 -2 8 C-2.99 7.34 -3.98 6.68 -5 6 C-5 6.66 -5 7.32 -5 8 C-5.66 8 -6.32 8 -7 8 C-7 8.99 -7 9.98 -7 11 C-6.34 11.66 -5.68 12.32 -5 13 C-6.32 13.33 -7.64 13.66 -9 14 C-9 14.99 -9 15.98 -9 17 C-9.66 17 -10.32 17 -11 17 C-11.33 17.99 -11.66 18.98 -12 20 C-14.01545248 16.20620711 -14.398104 13.10951085 -13.734375 8.9375 C-12.57533335 5.87960287 -10.6494895 4.51706583 -7.921875 2.83203125 C-5.20610068 1.65629968 -2.907483 1.6454289 0 2 C0 1.34 0 0.68 0 0 Z " fill="#765A38" transform="translate(26,19)"/>
<path d="M0 0 C1.77074917 -0.02705729 3.54161711 -0.04642195 5.3125 -0.0625 C6.29863281 -0.07410156 7.28476562 -0.08570313 8.30078125 -0.09765625 C11 0 11 0 14 1 C14 2.32 14 3.64 14 5 C13.34 5 12.68 5 12 5 C12 5.66 12 6.32 12 7 C11.34 7 10.68 7 10 7 C12.06100529 12.31522416 14.5628909 16.44815281 18 21 C16.02 20.67 14.04 20.34 12 20 C11.76410156 19.13890625 11.52820312 18.2778125 11.28515625 17.390625 C9.84076139 13.57988112 7.9444523 10.95310439 5.4375 7.75 C1.05829596 2.11659193 1.05829596 2.11659193 0 0 Z " fill="#34160C" transform="translate(26,42)"/>
<path d="M0 0 C1.32 0 2.64 0 4 0 C5.5056121 7.02618978 4.64057643 13.89452919 4 21 C2.68 21 1.36 21 0 21 C-2.22656164 16.25645564 -3.46148032 12.27749285 -4 7 C-3.030625 6.566875 -2.06125 6.13375 -1.0625 5.6875 C2.27731765 4.2985139 2.27731765 4.2985139 3 1 C2.01 0.67 1.02 0.34 0 0 Z " fill="#DFDFE6" transform="translate(40,7)"/>
<path d="M0 0 C11.55 0 23.1 0 35 0 C35 0.66 35 1.32 35 2 C24.44 2.99 13.88 3.98 3 5 C2.01 3.35 1.02 1.7 0 0 Z " fill="#D2CDD1" transform="translate(29,0)"/>
<path d="M0 0 C0.66 0 1.32 0 2 0 C2.33 8.25 2.66 16.5 3 25 C-2 25 -2 25 -3.8125 23.625 C-5 22 -5 22 -5 20 C-3.02 19.34 -1.04 18.68 1 18 C0.67 17.38125 0.34 16.7625 0 16.125 C-1.67853621 10.87957435 -1.74448199 5.23344596 0 0 Z " fill="#EEB687" transform="translate(53,39)"/>
<path d="M0 0 C1.98 0 3.96 0 6 0 C4.68 0.33 3.36 0.66 2 1 C1.67 6.61 1.34 12.22 1 18 C2.32 17.67 3.64 17.34 5 17 C5 18.32 5 19.64 5 21 C6.32 21.33 7.64 21.66 9 22 C9 23.65 9 25.3 9 27 C6.36 27 3.72 27 1 27 C-0.01894076 21.15111957 -0.11798453 15.49080831 -0.0625 9.5625 C-0.05798828 8.64017578 -0.05347656 7.71785156 -0.04882812 6.76757812 C-0.03713938 4.51164952 -0.02075455 2.25586033 0 0 Z " fill="#5F5454" transform="translate(55,37)"/>
<path d="M0 0 C3.68006822 3.38168431 5.9785845 6.42521756 8 11 C3.71 11 -0.58 11 -5 11 C-4.67 10.01 -4.34 9.02 -4 8 C-4.33 7.34 -4.66 6.68 -5 6 C-4.360625 5.566875 -3.72125 5.13375 -3.0625 4.6875 C-0.73253997 3.08760823 -0.73253997 3.08760823 0 0 Z " fill="#C6BAA9" transform="translate(14,53)"/>
<path d="M0 0 C3 2 3 2 3.51171875 4.1640625 C3.59873047 5.38222656 3.59873047 5.38222656 3.6875 6.625 C3.78611328 7.85089844 3.78611328 7.85089844 3.88671875 9.1015625 C3.92410156 9.72804688 3.96148437 10.35453125 4 11 C0.62902617 12.49821059 -1.20442119 13 -5 13 C-5.33 12.34 -5.66 11.68 -6 11 C-6.99 10.34 -7.98 9.68 -9 9 C-8.195625 8.71125 -7.39125 8.4225 -6.5625 8.125 C-3.8673532 7.26737432 -3.8673532 7.26737432 -3 5 C-2.34 5.66 -1.68 6.32 -1 7 C-0.31292445 4.50935112 0 2.62113708 0 0 Z " fill="#F5B98B" transform="translate(46,33)"/>
<path d="M0 0 C1.67542976 0.28604898 3.34385343 0.61781233 5 1 C5 1.66 5 2.32 5 3 C4 4 3 5 2 6 C2 6.66 2 7.32 2 8 C2.99 7.67 3.98 7.34 5 7 C4.67 8.32 4.34 9.64 4 11 C1.03 11 -1.94 11 -5 11 C-2.2 2.2 -2.2 2.2 0 0 Z " fill="#7A401A" transform="translate(26,1)"/>
<path d="M0 0 C0 7.26 0 14.52 0 22 C-0.66 22.33 -1.32 22.66 -2 23 C-3.32 22.01 -4.64 21.02 -6 20 C-5.01 18.515 -5.01 18.515 -4 17 C-3.34 17 -2.68 17 -2 17 C-2 14.03 -2 11.06 -2 8 C-2.66 8 -3.32 8 -4 8 C-4 5 -4 5 -2.5 3.3125 C-1.7575 2.6628125 -1.7575 2.6628125 -1 2 C-2.32 1.67 -3.64 1.34 -5 1 C-3 0 -3 0 0 0 Z " fill="#9A8B7D" transform="translate(64,37)"/>
<path d="M0 0 C1.13598633 0.00483398 1.13598633 0.00483398 2.29492188 0.00976562 C3.47344727 0.02233398 3.47344727 0.02233398 4.67578125 0.03515625 C5.47306641 0.03966797 6.27035156 0.04417969 7.09179688 0.04882812 C9.05732382 0.06059775 11.0228121 0.07853277 12.98828125 0.09765625 C8.23828125 3.97265625 8.23828125 3.97265625 5.98828125 5.09765625 C5.98828125 4.43765625 5.98828125 3.77765625 5.98828125 3.09765625 C5.34890625 3.26265625 4.70953125 3.42765625 4.05078125 3.59765625 C0.01241473 4.2569814 -3.92979133 4.17769404 -8.01171875 4.09765625 C-7.68171875 3.10765625 -7.35171875 2.11765625 -7.01171875 1.09765625 C-4.30455633 0.19526878 -2.77395107 -0.02085677 0 0 Z " fill="#BEB4A6" transform="translate(16.01171875,-0.09765625)"/>
<path d="M0 0 C1.57043101 0.01330874 3.14079971 0.03717648 4.7109375 0.0703125 C5.51273438 0.07933594 6.31453125 0.08835937 7.140625 0.09765625 C9.12252273 0.12125027 11.10426731 0.15712185 13.0859375 0.1953125 C12.7559375 0.8553125 12.4259375 1.5153125 12.0859375 2.1953125 C8.1259375 2.1953125 4.1659375 2.1953125 0.0859375 2.1953125 C0.4159375 3.8453125 0.7459375 5.4953125 1.0859375 7.1953125 C1.7459375 7.5253125 2.4059375 7.8553125 3.0859375 8.1953125 C1.1059375 8.5253125 -0.8740625 8.8553125 -2.9140625 9.1953125 C-2.9140625 7.5453125 -2.9140625 5.8953125 -2.9140625 4.1953125 C-3.9040625 4.5253125 -4.8940625 4.8553125 -5.9140625 5.1953125 C-5.9140625 0.42381639 -4.62855144 0.23096564 0 0 Z " fill="#562E17" transform="translate(22.9140625,12.8046875)"/>
<path d="M0 0 C1.485 0.99 1.485 0.99 3 2 C3 2.66 3 3.32 3 4 C4.98 4 6.96 4 9 4 C9 5.65 9 7.3 9 9 C10.2065625 9.433125 10.2065625 9.433125 11.4375 9.875 C14 11 14 11 15 13 C10.79004402 13.96478158 10.79004402 13.96478158 8 13 C0 4.52695652 0 4.52695652 0 0 Z " fill="#B97B50" transform="translate(36,51)"/>
<path d="M0 0 C6.52307692 1.47692308 6.52307692 1.47692308 8.9375 4.125 C9.288125 4.74375 9.63875 5.3625 10 6 C6.12315913 7.19287411 3.08378077 8 -1 8 C-1.04241723 5.66705225 -1.04092937 3.33297433 -1 1 C-0.67 0.67 -0.34 0.34 0 0 Z " fill="#F8C690" transform="translate(27,55)"/>
<path d="M0 0 C4.21912747 0.4794463 6.79663178 1.16625119 10 4 C9.67 4.66 9.34 5.32 9 6 C8.01 6 7.02 6 6 6 C6 5.34 6 4.68 6 4 C4.68 4 3.36 4 2 4 C2 5.65 2 7.3 2 9 C1.01 8.67 0.02 8.34 -1 8 C-1 7.34 -1 6.68 -1 6 C-1.99 5.67 -2.98 5.34 -4 5 C-2.68 3.35 -1.36 1.7 0 0 Z " fill="#E6AE7C" transform="translate(18,40)"/>
<path d="M0 0 C3.96 0 7.92 0 12 0 C11.01 0.33 10.02 0.66 9 1 C8.566875 1.928125 8.566875 1.928125 8.125 2.875 C6.62447 5.70933445 4.82778993 6.58610503 2 8 C1.34 8 0.68 8 0 8 C0 5.36 0 2.72 0 0 Z " fill="#B9B3A8" transform="translate(0,0)"/>
<path d="M0 0 C8.58 0 17.16 0 26 0 C26 0.33 26 0.66 26 1 C23.31306278 1.33851178 20.62559711 1.670936 17.9375 2 C16.80924805 2.14308594 16.80924805 2.14308594 15.65820312 2.2890625 C3.52057927 3.76028963 3.52057927 3.76028963 0 2 C0 1.34 0 0.68 0 0 Z " fill="#CDC3B9" transform="translate(34,0)"/>
<path d="M0 0 C2.31 0 4.62 0 7 0 C7 0.66 7 1.32 7 2 C8.32 2.66 9.64 3.32 11 4 C10.01 5.485 10.01 5.485 9 7 C8.67 6.67 8.34 6.34 8 6 C5.32941149 5.85884839 2.67567762 5.95752893 0 6 C-1 3 -1 3 0 0 Z " fill="#F5B989" transform="translate(40,48)"/>
<path d="M0 0 C2.31 0.33 4.62 0.66 7 1 C7.33 2.65 7.66 4.3 8 6 C5.64561267 7.42944945 4.51967567 8.08661261 1.75 7.625 C1.1725 7.41875 0.595 7.2125 0 7 C0 4.69 0 2.38 0 0 Z " fill="#FBC995" transform="translate(20,44)"/>
<path d="M0 0 C0.86626039 2.42552909 1.17413108 3.57136965 0.1875 6 C-0.204375 6.66 -0.59625 7.32 -1 8 C-2.84052833 11.16979879 -3.20376515 13.33222736 -3 17 C-3.4640625 16.0409375 -3.4640625 16.0409375 -3.9375 15.0625 C-4.8345163 13.06389179 -4.8345163 13.06389179 -6 12 C-5.76208178 4.74349442 -5.76208178 4.74349442 -2.4375 1.5 C-1.633125 1.005 -0.82875 0.51 0 0 Z " fill="#876A47" transform="translate(18,22)"/>
<path d="M0 0 C0.33 0 0.66 0 1 0 C1.13277344 0.60328125 1.26554687 1.2065625 1.40234375 1.828125 C1.57894531 2.62734375 1.75554688 3.4265625 1.9375 4.25 C2.11152344 5.03890625 2.28554688 5.8278125 2.46484375 6.640625 C2.64144531 7.41921875 2.81804688 8.1978125 3 9 C3.21849609 10.10601563 3.21849609 10.10601563 3.44140625 11.234375 C3.62574219 11.81703125 3.81007813 12.3996875 4 13 C4.66 13.33 5.32 13.66 6 14 C5.01 14 4.02 14 3 14 C3 13.34 3 12.68 3 12 C0.03 12 -2.94 12 -6 12 C-5.360625 11.2575 -4.72125 10.515 -4.0625 9.75 C-2.17039758 7.22719678 -1.50043565 6.00261393 -1 3 C-0.67 2.01 -0.34 1.02 0 0 Z " fill="#5E4128" transform="translate(36,15)"/>
<path d="M0 0 C0.66 1.32 1.32 2.64 2 4 C1.34 4 0.68 4 0 4 C0.33 4.99 0.66 5.98 1 7 C0.67 7.99 0.34 8.98 0 10 C2.31 10 4.62 10 7 10 C7.33 12.31 7.66 14.62 8 17 C7.01 16.67 6.02 16.34 5 16 C5 14.35 5 12.7 5 11 C3.6078125 11.12375 3.6078125 11.12375 2.1875 11.25 C-1 11 -1 11 -2.875 9.125 C-4 7 -4 7 -4 5 C-3.34 5 -2.68 5 -2 5 C-2 4.34 -2 3.68 -2 3 C-1.34 3 -0.68 3 0 3 C0 2.01 0 1.02 0 0 Z " fill="#D5956C" transform="translate(40,44)"/>
<path d="M0 0 C0.8971875 0.5259375 0.8971875 0.5259375 1.8125 1.0625 C4.10813214 2.33304698 4.10813214 2.33304698 7 1 C7.99 1.66 8.98 2.32 10 3 C10.1875 6.625 10.1875 6.625 10 10 C9.34 9.34 8.68 8.68 8 8 C6.7934375 7.566875 6.7934375 7.566875 5.5625 7.125 C2.65277177 5.84755834 1.60559926 4.70416718 0 2 C0 1.34 0 0.68 0 0 Z " fill="#45280C" transform="translate(20,23)"/>
<path d="M0 0 C1.98 0.66 3.96 1.32 6 2 C6 2.66 6 3.32 6 4 C6.66 4 7.32 4 8 4 C8 5.98 8 7.96 8 10 C7.01 10 6.02 10 5 10 C3.61328125 8.57421875 3.61328125 8.57421875 2.3125 6.6875 C1.87550781 6.07261719 1.43851563 5.45773438 0.98828125 4.82421875 C0 3 0 3 0 0 Z " fill="#DFA26E" transform="translate(16,53)"/>
<path d="M0 0 C0.66 0 1.32 0 2 0 C2 5.28 2 10.56 2 16 C-1 13 -1 13 -1.328125 10.625 C-1.30234375 9.75875 -1.2765625 8.8925 -1.25 8 C-1.23453125 7.13375 -1.2190625 6.2675 -1.203125 5.375 C-1 3 -1 3 0 0 Z " fill="#C1B4AB" transform="translate(53,39)"/>
<path d="M0 0 C3.33333333 5 6.66666667 10 10 15 C7.03 14.505 7.03 14.505 4 14 C3.7525 13.13375 3.505 12.2675 3.25 11.375 C1.93221387 7.81697746 0.19813178 5.0773845 -2 2 C-1.34 1.34 -0.68 0.68 0 0 Z " fill="#160303" transform="translate(34,48)"/>
<path d="M0 0 C1.32 0.33 2.64 0.66 4 1 C4.99 0.67 5.98 0.34 7 0 C7 2.64 7 5.28 7 8 C5.68 8 4.36 8 3 8 C2.01 5.36 1.02 2.72 0 0 Z " fill="#E1CBBE" transform="translate(37,20)"/>
<path d="M0 0 C0.91007812 0.00902344 1.82015625 0.01804687 2.7578125 0.02734375 C3.45648438 0.03894531 4.15515625 0.05054688 4.875 0.0625 C4.545 1.0525 4.215 2.0425 3.875 3.0625 C-1.75 4.1875 -1.75 4.1875 -5.125 3.0625 C-5.455 4.0525 -5.785 5.0425 -6.125 6.0625 C-6.455 4.4125 -6.785 2.7625 -7.125 1.0625 C-4.60024538 -0.19987731 -2.81299534 -0.03606404 0 0 Z " fill="#200D06" transform="translate(30.125,13.9375)"/>
<path d="M0 0 C-0.33 1.65 -0.66 3.3 -1 5 C-1.33 4.01 -1.66 3.02 -2 2 C-6.29 2.66 -10.58 3.32 -15 4 C-14.67 3.01 -14.34 2.02 -14 1 C-9.32798795 -0.20568053 -4.78503708 -0.09382426 0 0 Z " fill="#D7CEBC" transform="translate(21,5)"/>
<path d="M0 0 C2.97 0.495 2.97 0.495 6 1 C5 4 5 4 2 6 C1.42006301 8.19454681 1.42006301 8.19454681 1.3125 10.625 C1.24675781 11.44226562 1.18101563 12.25953125 1.11328125 13.1015625 C1.07589844 13.72804688 1.03851563 14.35453125 1 15 C0.67 15 0.34 15 0 15 C0 10.05 0 5.1 0 0 Z " fill="#C1C1C0" transform="translate(57,38)"/>
<path d="M0 0 C1.65 0 3.3 0 5 0 C5.33 0.66 5.66 1.32 6 2 C5.01 2 4.02 2 3 2 C3.33 2.66 3.66 3.32 4 4 C4.66 4 5.32 4 6 4 C6 4.99 6 5.98 6 7 C1.25 6.25 1.25 6.25 -1 4 C-0.625 1.875 -0.625 1.875 0 0 Z " fill="#784526" transform="translate(14,13)"/>
<path d="M0 0 C1.32 0.33 2.64 0.66 4 1 C4 1.66 4 2.32 4 3 C3.34 3 2.68 3 2 3 C1.67 6.3 1.34 9.6 1 13 C-1.29633824 9.55549263 -1.54016485 7.06187717 -2 3 C-1.34 3 -0.68 3 0 3 C0 2.01 0 1.02 0 0 Z " fill="#CAC8CE" transform="translate(51,36)"/>
<path d="M0 0 C0 1.32 0 2.64 0 4 C0.66 4.33 1.32 4.66 2 5 C1.01 5 0.02 5 -1 5 C-1.33 5.99 -1.66 6.98 -2 8 C-2.99 8.33 -3.98 8.66 -5 9 C-4.4140625 2.84765625 -4.4140625 2.84765625 -4 1 C-2 0 -2 0 0 0 Z " fill="#31180C" transform="translate(19,35)"/>
<path d="M0 0 C0.99 0.33 1.98 0.66 3 1 C2 3 1 5 0 7 C3.63 7 7.26 7 11 7 C11 7.33 11 7.66 11 8 C6.05 8 1.1 8 -4 8 C-3.01 7.67 -2.02 7.34 -1 7 C-1.020625 6.030625 -1.04125 5.06125 -1.0625 4.0625 C-1 1 -1 1 0 0 Z " fill="#A9714A" transform="translate(21,5)"/>
<path d="M0 0 C2.52588702 2.36292656 3.88820837 3.66462511 5 7 C3.02 7 1.04 7 -1 7 C-1.33 5.35 -1.66 3.7 -2 2 C-1.34 2 -0.68 2 0 2 C0 1.34 0 0.68 0 0 Z " fill="#D3C6B2" transform="translate(17,57)"/>
<path d="M0 0 C1.22589844 0.01353516 1.22589844 0.01353516 2.4765625 0.02734375 C3.41628906 0.04474609 3.41628906 0.04474609 4.375 0.0625 C0.625 3.0625 0.625 3.0625 -1.625 3.0625 C-1.955 4.0525 -2.285 5.0425 -2.625 6.0625 C-2.955 5.4025 -3.285 4.7425 -3.625 4.0625 C-4.615 4.0625 -5.605 4.0625 -6.625 4.0625 C-6.625 3.0725 -6.625 2.0825 -6.625 1.0625 C-4.21954362 -0.14022819 -2.67503047 -0.03821472 0 0 Z " fill="#7D551F" transform="translate(25.625,33.9375)"/>
<path d="M0 0 C0.99 0.66 1.98 1.32 3 2 C1.74821404 4.50357192 0.00018842 6.06433379 -2 8 C-3.32 6.68 -4.64 5.36 -6 4 C-5.67 3.34 -5.34 2.68 -5 2 C-3.68 2 -2.36 2 -1 2 C-0.67 1.34 -0.34 0.68 0 0 Z " fill="#7F4631" transform="translate(44,29)"/>
<path d="M0 0 C0.66 1.32 1.32 2.64 2 4 C1.34 4 0.68 4 0 4 C0 4.99 0 5.98 0 7 C0.66 7.66 1.32 8.32 2 9 C0.68 9.33 -0.64 9.66 -2 10 C-2 10.99 -2 11.98 -2 13 C-2.66 13 -3.32 13 -4 13 C-4.33 12.01 -4.66 11.02 -5 10 C-4.34 9.67 -3.68 9.34 -3 9 C-2.62243192 7.67851173 -2.2981424 6.34164079 -2 5 C-1.3530635 3.3255761 -0.69040574 1.65697379 0 0 Z " fill="#644320" transform="translate(19,23)"/>
<path d="M0 0 C2.475 0.495 2.475 0.495 5 1 C5.33 2.32 5.66 3.64 6 5 C4.02 5.99 4.02 5.99 2 7 C1.34 4.69 0.68 2.38 0 0 Z " fill="#EEE3D8" transform="translate(33,4)"/>
<path d="M0 0 C0.33 0 0.66 0 1 0 C1.33 3.96 1.66 7.92 2 12 C1.01 12.495 1.01 12.495 0 13 C-1.32 12.01 -2.64 11.02 -4 10 C-3.34 9.01 -2.68 8.02 -2 7 C-1.34 7 -0.68 7 0 7 C0 4.69 0 2.38 0 0 Z " fill="#AD9B8A" transform="translate(62,47)"/>
<path d="M0 0 C0.33 0 0.66 0 1 0 C1 2.31 1 4.62 1 7 C2.65 7.33 4.3 7.66 6 8 C5.67 8.66 5.34 9.32 5 10 C4.236875 9.690625 3.47375 9.38125 2.6875 9.0625 C0.81210323 8.32106407 -1.08684652 7.63771783 -3 7 C-3 6.01 -3 5.02 -3 4 C-2.34 3.67 -1.68 3.34 -1 3 C-0.67 2.01 -0.34 1.02 0 0 Z " fill="#EBAD77" transform="translate(28,47)"/>
<path d="M0 0 C0.66 0.99 1.32 1.98 2 3 C1.67 3.66 1.34 4.32 1 5 C-1.31 5 -3.62 5 -6 5 C-6.33 3.68 -6.66 2.36 -7 1 C-4.525 1.99 -4.525 1.99 -2 3 C-2 2.34 -2 1.68 -2 1 C-1.34 0.67 -0.68 0.34 0 0 Z " fill="#623710" transform="translate(34,37)"/>
<path d="M0 0 C0.66 0.33 1.32 0.66 2 1 C2.4140625 3.28515625 2.4140625 3.28515625 2.625 6.0625 C2.69976562 6.98160156 2.77453125 7.90070312 2.8515625 8.84765625 C2.92503906 9.91306641 2.92503906 9.91306641 3 11 C2.01 11.495 2.01 11.495 1 12 C0.63597631 10.56496445 0.28413409 9.12683494 -0.0625 7.6875 C-0.25972656 6.88699219 -0.45695313 6.08648437 -0.66015625 5.26171875 C-1 3 -1 3 0 0 Z " fill="#EDB98B" transform="translate(12,34)"/>
<path d="M0 0 C1.65 0.33 3.3 0.66 5 1 C3.68 2.32 2.36 3.64 1 5 C2.32 5.33 3.64 5.66 5 6 C4.34 7.32 3.68 8.64 3 10 C2.896875 9.360625 2.79375 8.72125 2.6875 8.0625 C2.460625 7.381875 2.23375 6.70125 2 6 C1.01 5.67 0.02 5.34 -1 5 C-0.67 3.35 -0.34 1.7 0 0 Z " fill="#C38C64" transform="translate(32,29)"/>
<path d="M0 0 C3 2 3 2 3.51171875 3.9453125 C3.67447917 5.96354167 3.83723958 7.98177083 4 10 C3.01 9.67 2.02 9.34 1 9 C0.234375 7.1875 0.234375 7.1875 -0.25 5 C-0.42015625 4.278125 -0.5903125 3.55625 -0.765625 2.8125 C-0.84296875 2.214375 -0.9203125 1.61625 -1 1 C-0.67 0.67 -0.34 0.34 0 0 Z " fill="#F7CCA1" transform="translate(46,33)"/>
<path d="M0 0 C0.66 0 1.32 0 2 0 C2 0.66 2 1.32 2 2 C3.65 1.67 5.3 1.34 7 1 C6.67 2.65 6.34 4.3 6 6 C4.02 5.34 2.04 4.68 0 4 C0 2.68 0 1.36 0 0 Z " fill="#240F09" transform="translate(37,27)"/>
<path d="M0 0 C0.66 0.33 1.32 0.66 2 1 C1.67 1.66 1.34 2.32 1 3 C1.66 3 2.32 3 3 3 C3 3.99 3 4.98 3 6 C3.99 6.33 4.98 6.66 6 7 C3.36 7.33 0.72 7.66 -2 8 C-2 7.34 -2 6.68 -2 6 C-1.01 5.67 -0.02 5.34 1 5 C0.34 4.01 -0.32 3.02 -1 2 C-0.67 1.34 -0.34 0.68 0 0 Z " fill="#452608" transform="translate(19,27)"/>
<path d="M0 0 C0.33 0.66 0.66 1.32 1 2 C1.99 1.67 2.98 1.34 4 1 C3.67 2.32 3.34 3.64 3 5 C1.02 5 -0.96 5 -3 5 C-2.625 3.0625 -2.625 3.0625 -2 1 C-1.34 0.67 -0.68 0.34 0 0 Z " fill="#6E330E" transform="translate(27,7)"/>
<path d="M0 0 C0 1.65 0 3.3 0 5 C-1.65 5 -3.3 5 -5 5 C-5.33 4.01 -5.66 3.02 -6 2 C-2.25 0 -2.25 0 0 0 Z " fill="#F9C999" transform="translate(55,58)"/>
<path d="M0 0 C0.66 0 1.32 0 2 0 C2 0.99 2 1.98 2 3 C3.32 3.33 4.64 3.66 6 4 C6 4.66 6 5.32 6 6 C4.02 6 2.04 6 0 6 C-1 3 -1 3 0 0 Z " fill="#EFAE82" transform="translate(40,48)"/>
<path d="M0 0 C3.96 0 7.92 0 12 0 C12 0.33 12 0.66 12 1 C8.04 1.66 4.08 2.32 0 3 C0 2.01 0 1.02 0 0 Z " fill="#DFCFC4" transform="translate(0,0)"/>
<path d="M0 0 C2.475 0.495 2.475 0.495 5 1 C5 2.32 5 3.64 5 5 C4.34 5 3.68 5 3 5 C2.67 5.66 2.34 6.32 2 7 C0.5393715 4.35261084 0 3.10551666 0 0 Z " fill="#57331E" transform="translate(35,42)"/>
<path d="M0 0 C1.61949011 2.57213134 2.04408751 3.67669159 1.625 6.75 C1.41875 7.4925 1.2125 8.235 1 9 C-1 7.625 -1 7.625 -3 6 C-3 5.34 -3 4.68 -3 4 C-2.34 4 -1.68 4 -1 4 C-0.67 2.68 -0.34 1.36 0 0 Z " fill="#EBA879" transform="translate(45,32)"/>
<path d="M0 0 C0.99 0 1.98 0 3 0 C3.33 1.98 3.66 3.96 4 6 C3.01 6 2.02 6 1 6 C1 5.34 1 4.68 1 4 C0.01 4.33 -0.98 4.66 -2 5 C-2 2 -2 2 0 0 Z " fill="#57250A" transform="translate(19,13)"/>
<path d="M0 0 C1.98 0.99 3.96 1.98 6 3 C5.01 4.485 5.01 4.485 4 6 C3.01 6 2.02 6 1 6 C1 5.01 1 4.02 1 3 C0.34 3 -0.32 3 -1 3 C-0.67 2.01 -0.34 1.02 0 0 Z " fill="#6A4518" transform="translate(21,27)"/>
<path d="M0 0 C3.63 0 7.26 0 11 0 C7.7868736 2.14208427 5.78934603 2.59687808 2 3 C1.34 2.67 0.68 2.34 0 2 C0 1.34 0 0.68 0 0 Z " fill="#C7BEAF" transform="translate(34,0)"/>
<path d="M0 0 C1.65 0 3.3 0 5 0 C5 0.66 5 1.32 5 2 C5.66 2 6.32 2 7 2 C7 2.66 7 3.32 7 4 C5.68 4.33 4.36 4.66 3 5 C2.01 3.35 1.02 1.7 0 0 Z " fill="#DACCB7" transform="translate(29,0)"/>
<path d="M0 0 C3 1 3 1 4.1875 3.0625 C4.455625 3.701875 4.72375 4.34125 5 5 C3.02 5 1.04 5 -1 5 C-0.67 3.35 -0.34 1.7 0 0 Z " fill="#434052" transform="translate(58,59)"/>
<path d="M0 0 C3.73639216 1.24546405 4.18756513 2.63404953 6 6 C3.03 5.505 3.03 5.505 0 5 C0 3.35 0 1.7 0 0 Z " fill="#240E05" transform="translate(38,57)"/>
<path d="M0 0 C1.32 0 2.64 0 4 0 C4 2.31 4 4.62 4 7 C2.35 6.01 0.7 5.02 -1 4 C-0.67 2.68 -0.34 1.36 0 0 Z " fill="#200C04" transform="translate(26,26)"/>
<path d="M0 0 C1.3921875 0.3403125 1.3921875 0.3403125 2.8125 0.6875 C1.8225 2.1725 1.8225 2.1725 0.8125 3.6875 C-0.1775 3.3575 -1.1675 3.0275 -2.1875 2.6875 C-2.8475 3.3475 -3.5075 4.0075 -4.1875 4.6875 C-4.8475 4.0275 -5.5075 3.3675 -6.1875 2.6875 C-4.14987265 -0.14253799 -3.59070275 -0.35202968 0 0 Z " fill="#694C27" transform="translate(28.1875,22.3125)"/>
<path d="M0 0 C-0.3125 1.9375 -0.3125 1.9375 -1 4 C-1.99 4.33 -2.98 4.66 -4 5 C-4.66 3.68 -5.32 2.36 -6 1 C-4 0 -4 0 0 0 Z " fill="#B98967" transform="translate(43,8)"/>
<path d="M0 0 C2.97 0.495 2.97 0.495 6 1 C6.33 2.32 6.66 3.64 7 5 C3.47967572 5 2.5614657 4.29648649 0 2 C0 1.34 0 0.68 0 0 Z " fill="#E4AC7C" transform="translate(12,50)"/>
<path d="M0 0 C1.32 1.65 2.64 3.3 4 5 C2.68 5.33 1.36 5.66 0 6 C-0.66 4.35 -1.32 2.7 -2 1 C-1.34 0.67 -0.68 0.34 0 0 Z " fill="#F9C68D" transform="translate(46,39)"/>
<path d="M0 0 C1.65 0 3.3 0 5 0 C4.67 1.32 4.34 2.64 4 4 C1.03 3.505 1.03 3.505 -2 3 C-1.34 2.67 -0.68 2.34 0 2 C0 1.34 0 0.68 0 0 Z " fill="#875233" transform="translate(34,10)"/>
<path d="M0 0 C2.625 0.375 2.625 0.375 5 1 C4.401875 1.0825 3.80375 1.165 3.1875 1.25 C0.4033704 2.20455872 -0.43311142 3.57132271 -2 6 C-2 2 -2 2 0 0 Z " fill="#8E562F" transform="translate(26,1)"/>
</svg>
