<svg width="256" height="256" fill="none" xmlns="http://www.w3.org/2000/svg"><path d="M128.5 250a122.5 122.5 0 1 0 0-245 122.5 122.5 0 0 0 0 245Z" fill="#fff"/><path d="M157 122c-4 3-10 5-18 5h-38v57h16v-42h24c7 0 14-2 19-4 6-3 11-7 14-12a38 38 0 0 0 0-38c-3-5-8-9-14-12-5-3-12-4-19-4h-40v15h38c8 0 14 2 18 5 3 3 5 9 5 15 0 7-2 11-5 15Z" fill="url(#a)"/><path fill-rule="evenodd" clip-rule="evenodd" d="M256 128a128 128 0 1 1-256 0 128 128 0 0 1 256 0Zm-17 0a111 111 0 1 1-222 0 111 111 0 0 1 222 0Z" fill="url(#b)"/><defs><linearGradient id="a" x1="562" y1="69.8" x2="561.6" y2="285.8" gradientUnits="userSpaceOnUse"><stop stop-color="#FF2E72"/><stop offset=".9" stop-color="#4A125E"/></linearGradient><linearGradient id="b" x1="590.9" y1="65.9" x2="590.5" y2="296.3" gradientUnits="userSpaceOnUse"><stop stop-color="#FF2E72"/><stop offset=".9" stop-color="#4A125E"/></linearGradient></defs></svg>