<svg width="256" height="256" fill="none" xmlns="http://www.w3.org/2000/svg"><g clip-path="url(#a)"><path d="M128 256a128 128 0 1 0 0-256 128 128 0 0 0 0 256Z" fill="#FFB000"/><path d="M34 199c9 12 7 19 47 20 39 1 56 1 66-2 19-7 61-21 66-28s16-13 24-29c6-11 0-22-6-28s-13-13-14-16c0 0 6-1 9-7 4-5 0-5 5-7 10-4 8-8 8-13s-1-16-7-19c-5-3-1-3-9-7-8-5-5-8-15-8h-5l-6-6c-6-9-14-18-24-19-10-2-14-3-24 3-10 7-18 17-18 17s-11-11-26-13c-16-2-27 11-34 18-7 8-14 20-17 30l-2 13-2-2-8 4s-21 10-23 19c-1 9 4 15 7 19 0 0 2-2 1 6-2 7-8 35 7 55Z" fill="#A76100"/><path d="m75 86 9 53s-11 17-4 38c6 20 15 25 25 25 10 1 99-5 107-13 9-7 6-7 6-7s27-27 12-49l-19-11v-4s13-1 17-14c0 0 12 0 9-14-2-14 2-15-7-20 0 0-5-7-10-8-6-2-4-7-21-7-17 1-38 2-53 11 0 0-46-16-71 20Z" fill="#F5C785"/><path d="M168 96s13-17 33-19c21-3 37 2 39 6 2 3-1 5-4 9-4 3-32 18-66 16l-2-1s-8 10-33 11-36-5-36-5 4-19 30-22 29-3 33-2c3 1 6 7 6 7Z" fill="#fff"/><path d="M218 153s-13 8-39 9c-25 2-28 8-44-2-16-11-24-16-31-7-7 8-2 18 9 26s40 18 79 10 37-15 42-23 7-15 4-20c-2-5-2-14-6-13-3 0-12 8-14 20Z" fill="#DB291E"/><path d="M118 164c7 7 22 10 32 12 23 4 42 3 63-7 7-4 18-13 22-22 2-4 3-8 0-12-2-4-6-1-8 2-8 8-7 15-10 16-18 8-29 8-41 10-12 1-25 4-37 0-8-4-13-12-22-14-6-1-19 3-17 12s15 21 23 24c19 7 42 5 62 4 9-1 20-1 28-5 11-5 16-11 22-21 7-10 3-20 2-20" stroke="#000" stroke-width="3" stroke-miterlimit="10" stroke-linecap="round" stroke-linejoin="round"/><path d="m220 180-11 11c-7 4-11 3-19 4l-38 5c-13 2-45 6-55 0-13-6-17-16-19-32-1-8 3-27 9-30m-3 1c-2-4-7-40-9-52m0 0c0-3 9-12 12-14 15-15 56-16 66 3" stroke="#000" stroke-width="3" stroke-miterlimit="10" stroke-linecap="round" stroke-linejoin="round"/><path d="m145 67 12-5s26-11 39-5m1 0 6-2c7 0 17 6 22 10m-60 19c2-2 8-9 21-14 12-6 23-6 30-5 3 0 12 1 16 5s5 10 5 10" stroke="#000" stroke-width="3" stroke-miterlimit="10" stroke-linecap="round" stroke-linejoin="round"/><path d="M169 96s4-6 11-11c7-4 9-5 17-7 11-4 24-5 35 0 2 0 9 4 9 6 0 4-9 9-14 12a99 99 0 0 1-58 11m69-17c0-1 3 5-2 10-3 4-6 5-11 5" stroke="#000" stroke-width="3" stroke-miterlimit="10" stroke-linecap="round" stroke-linejoin="round"/><path d="M229 105c0-1 0 6-14 12-13 5-31 8-39 10m34-8 2 4c5 2 12 5 17 9" stroke="#000" stroke-width="3" stroke-miterlimit="10" stroke-linecap="round" stroke-linejoin="round"/><path d="M217 116c4 7 10 13 13 16M98 113s4-11 17-18c11-5 17-6 30-6 6-1 15-2 18 1 5 3 6 10 6 14 0 7-16 11-22 12-4 1-17 3-29 2-12 0-12-2-20-4l-5 1-8-1" stroke="#000" stroke-width="3" stroke-miterlimit="10" stroke-linecap="round" stroke-linejoin="round"/><path d="M168 108c3 6-5 13-15 15-23 5-45 3-49 1m51-1s-15 14-24 18m34-51c1-5-1-9-9-13-9-4-24-1-24-1s-14 1-26 8c-12 8-22 21-22 21m107 24c5 1 9 3 10 5m-17 6c2 1 4 4 4 6m-16 4-1-6" stroke="#000" stroke-width="3" stroke-miterlimit="10" stroke-linecap="round" stroke-linejoin="round"/><path d="m188 81-1 4v10c2 10 9 13 18 10l8-4c5-7 5-21-3-25-2-1-6 1-7 1-5 2-11 2-15 6" fill="#000"/><path d="m188 81-1 4v10c2 10 9 13 18 10l8-4c5-7 5-21-3-25-2-1-6 1-7 1-5 2-11 2-15 6" stroke="#000" stroke-width="3" stroke-miterlimit="10" stroke-linecap="round" stroke-linejoin="round"/><path d="m191 83-2 2c-1 3-1 6 2 6s5-4 4-7c-1-2-2-2-4-1Z" fill="#fff"/><path d="m116 96-2 3-1 8c3 12 9 12 20 10 3-1 8-1 10-5 3-6 1-13-3-18-1-1-2-3-4-3l-13 2-5 2-2 1Z" fill="#000" stroke="#000" stroke-width="3" stroke-miterlimit="10" stroke-linecap="round" stroke-linejoin="round"/><path d="M122 95c-4-1-8 5-4 7 5 3 10-6 5-7" fill="#fff"/><path d="M144 66c1-1-5-9-13-16-7-6-12-9-17-11-19-5-28 0-39 12-12 13-23 28-23 47m80-49s4-6 16-14c10-8 27-9 38 1 10 10 16 19 16 19M72 219l26 1c30 1 59-3 86-17l21-10" stroke="#000" stroke-width="3" stroke-miterlimit="10" stroke-linecap="round" stroke-linejoin="round"/><path d="M56 151c-3 2-10 1-16-2-5-3-10-8-11-10-7-6-11-11-10-20s28-24 31-22c6 3 8 9 9 15" stroke="#000" stroke-width="3" stroke-miterlimit="10" stroke-linecap="round" stroke-linejoin="round"/><path d="M37 113c4 0 10-1 14 1 3 3 2 19 1 23m-24 2c-1 2-7 23-2 44 4 17 13 25 20 30 4 3 21 5 26 6m29-30c-9-5-10-8-12-17s1-17 4-19" stroke="#000" stroke-width="3" stroke-miterlimit="10" stroke-linecap="round" stroke-linejoin="round"/></g><defs><clipPath id="a"><path fill="#fff" d="M0 0h256v256H0z"/></clipPath></defs></svg>