<?xml version="1.0" encoding="UTF-8"?>
<svg version="1.1" xmlns="http://www.w3.org/2000/svg" width="64" height="64">
<path d="M0 0 C2.92295771 1.73797485 3.73708143 3.62550011 4.7734375 6.80859375 C5.39921502 9.7878389 5.54979322 12.64707933 5.6875 15.6875 C5.93142338 20.48835564 6.73619724 23.79294025 8.9375 28.0625 C11.66614285 33.49605838 11.94473806 37.52698141 10.3125 43.375 C7.62997702 50.6049015 1.83032621 55.28801092 -4.875 58.75 C-11.25504566 61.32154902 -17.9346554 61.66289604 -24.46484375 59.421875 C-35.37320841 54.23835134 -41.08799056 47.23156246 -45.14453125 35.93359375 C-45.94068321 33.56356122 -46.72562621 31.18973734 -47.5 28.8125 C-47.90669922 27.61947266 -48.31339844 26.42644531 -48.73242188 25.19726562 C-49.11591797 24.03775391 -49.49941406 22.87824219 -49.89453125 21.68359375 C-50.2397583 20.64001709 -50.58498535 19.59644043 -50.94067383 18.52124023 C-51.77759512 14.99544597 -51.94750794 11.98699495 -51.6875 8.375 C-51.0275 7.385 -50.3675 6.395 -49.6875 5.375 C-44.60121419 5.60619481 -41.19108273 7.03294892 -36.6875 9.4375 C-31.95661355 11.91558338 -28.97565337 13.17971899 -23.6875 12.375 C-23.0275 12.045 -22.3675 11.715 -21.6875 11.375 C-19.81370395 11.30466231 -17.93748898 11.2906978 -16.0625 11.3125 C-14.55816406 11.32603516 -14.55816406 11.32603516 -13.0234375 11.33984375 C-12.25257812 11.35144531 -11.48171875 11.36304688 -10.6875 11.375 C-10.41550781 10.61960937 -10.14351562 9.86421875 -9.86328125 9.0859375 C-7.92054212 4.60666523 -5.02670698 0.70140097 0 0 Z " fill="#E2CEC8" transform="translate(52.6875,1.625)"/>
<path d="M0 0 C2.92295771 1.73797485 3.73708143 3.62550011 4.7734375 6.80859375 C5.39921502 9.7878389 5.54979322 12.64707933 5.6875 15.6875 C5.93142338 20.48835564 6.73619724 23.79294025 8.9375 28.0625 C11.66614285 33.49605838 11.94473806 37.52698141 10.3125 43.375 C7.62997702 50.6049015 1.83032621 55.28801092 -4.875 58.75 C-11.25504566 61.32154902 -17.9346554 61.66289604 -24.46484375 59.421875 C-35.37320841 54.23835134 -41.08799056 47.23156246 -45.14453125 35.93359375 C-45.94068321 33.56356122 -46.72562621 31.18973734 -47.5 28.8125 C-47.90669922 27.61947266 -48.31339844 26.42644531 -48.73242188 25.19726562 C-49.11591797 24.03775391 -49.49941406 22.87824219 -49.89453125 21.68359375 C-50.2397583 20.64001709 -50.58498535 19.59644043 -50.94067383 18.52124023 C-51.77759512 14.99544597 -51.94750794 11.98699495 -51.6875 8.375 C-51.0275 7.385 -50.3675 6.395 -49.6875 5.375 C-44.60121419 5.60619481 -41.19108273 7.03294892 -36.6875 9.4375 C-31.95661355 11.91558338 -28.97565337 13.17971899 -23.6875 12.375 C-23.0275 12.045 -22.3675 11.715 -21.6875 11.375 C-19.81370395 11.30466231 -17.93748898 11.2906978 -16.0625 11.3125 C-14.55816406 11.32603516 -14.55816406 11.32603516 -13.0234375 11.33984375 C-12.25257812 11.35144531 -11.48171875 11.36304688 -10.6875 11.375 C-10.41550781 10.61960937 -10.14351562 9.86421875 -9.86328125 9.0859375 C-7.92054212 4.60666523 -5.02670698 0.70140097 0 0 Z M-22.6875 16.375 C-23.43 16.890625 -24.1725 17.40625 -24.9375 17.9375 C-25.515 18.411875 -26.0925 18.88625 -26.6875 19.375 C-26.6875 20.365 -26.6875 21.355 -26.6875 22.375 C-24.3775 22.375 -22.0675 22.375 -19.6875 22.375 C-19.1340236 24.45053648 -18.6875 26.21865964 -18.6875 28.375 C-21.3275 28.375 -23.9675 28.375 -26.6875 28.375 C-28.00492194 31.27332828 -28.73429793 33.7025855 -29.1875 36.875 C-29.64769668 40.09637677 -30.49244364 42.38735909 -31.6875 45.375 C-32.0688074 47.70097511 -32.41210254 50.03412158 -32.6875 52.375 C-31.39653219 53.18860995 -30.10470125 54.00085046 -28.8125 54.8125 C-28.09320312 55.26496094 -27.37390625 55.71742187 -26.6328125 56.18359375 C-21.09399975 59.57583851 -15.01793983 58.95841977 -8.6875 58.375 C-0.84014357 56.04792489 4.22698028 51.36010839 8.4609375 44.51953125 C9.54865351 41.78028313 9.50743191 39.56214007 9.4375 36.625 C9.41945312 35.64015625 9.40140625 34.6553125 9.3828125 33.640625 C9.35960937 32.89296875 9.33640625 32.1453125 9.3125 31.375 C8.50039063 31.0965625 7.68828125 30.818125 6.8515625 30.53125 C6.01367188 30.1496875 5.17578125 29.768125 4.3125 29.375 C3.6875 26.875 3.6875 26.875 3.3125 24.375 C2.3225 23.715 1.3325 23.055 0.3125 22.375 C0.3125 23.365 0.3125 24.355 0.3125 25.375 C-1.3375 24.715 -2.9875 24.055 -4.6875 23.375 C-4.6875 19.375 -4.6875 19.375 -2.6875 17.375 C-9.69450677 12.97059574 -16.43708999 9.08285499 -22.6875 16.375 Z " fill="#704644" transform="translate(52.6875,1.625)"/>
<path d="M0 0 C5.61457551 0.3618282 10.11488614 0.94680384 15 4 C15.33 4.66 15.66 5.32 16 6 C15.01 6.495 15.01 6.495 14 7 C14.33 8.65 14.66 10.3 15 12 C16.32 12.33 17.64 12.66 19 13 C19.33 12.01 19.66 11.02 20 10 C21.5625 11.75 21.5625 11.75 23 14 C22.6875 16.25 22.6875 16.25 22 18 C19.69 18 17.38 18 15 18 C14.67 17.34 14.34 16.68 14 16 C11.69 16 9.38 16 7 16 C7 16.66 7 17.32 7 18 C7.99 18 8.98 18 10 18 C10 18.99 10 19.98 10 21 C7.56183415 21.0809723 5.12635616 21.14046972 2.6875 21.1875 C1.65206055 21.22520508 1.65206055 21.22520508 0.59570312 21.26367188 C-4.5175964 21.33777767 -4.5175964 21.33777767 -6.98046875 19.61328125 C-8 18 -8 18 -8 16 C-5.36 16 -2.72 16 0 16 C0 14.35 0 12.7 0 11 C-2.89234315 10.17361624 -4.88742431 10 -8 10 C-7.875 8.25 -7.875 8.25 -7 6 C-5.03852126 4.61061923 -3.03833424 3.2739589 -1 2 C-0.67 1.34 -0.34 0.68 0 0 Z " fill="#F2EDE8" transform="translate(34,14)"/>
<path d="M0 0 C5.72874335 1.90958112 10.64208412 4.96312618 14 10 C14.1953125 13.35546875 14.1953125 13.35546875 14.125 17.1875 C14.10695313 18.45980469 14.08890625 19.73210938 14.0703125 21.04296875 C14.03550781 22.50669922 14.03550781 22.50669922 14 24 C10.04 24.495 10.04 24.495 6 25 C5.2852083 23.0938888 4.57203814 21.18715334 3.8671875 19.27734375 C3.3201118 17.84065395 2.74538067 16.41391676 2.1328125 15.00390625 C-0.02561906 9.89561823 -0.3447105 5.51536801 0 0 Z " fill="#C48E8C" transform="translate(3,9)"/>
<path d="M0 0 C0.33 0 0.66 0 1 0 C0.49318264 6.33521696 -1.01508362 10.38351472 -5.8671875 14.63671875 C-13.87821051 20.87927064 -20.84974346 22.15394749 -31 21 C-34.32727853 19.7199344 -37.13973268 18.11871654 -40 16 C-40 12.23312136 -39.76462683 11.08809695 -38 8 C-37.690625 9.1446875 -37.690625 9.1446875 -37.375 10.3125 C-35.48855703 13.99963853 -33.89486126 14.65450248 -30 16 C-21.45900585 17.01039487 -13.79829698 15.34151906 -7 10 C-6.34 9.01 -5.68 8.02 -5 7 C-4.34 7 -3.68 7 -3 7 C-2.690625 6.21625 -2.38125 5.4325 -2.0625 4.625 C-1 2 -1 2 0 0 Z " fill="#C7ACA5" transform="translate(61,39)"/>
<path d="M0 0 C1 2 2 4 3 6 C5.02463255 6.65213292 5.02463255 6.65213292 7 7 C7.66 5.68 8.32 4.36 9 3 C9 3.66 9 4.32 9 5 C10.11375 4.79375 11.2275 4.5875 12.375 4.375 C14.169375 4.189375 14.169375 4.189375 16 4 C16.66 4.66 17.32 5.32 18 6 C17.625 8.625 17.625 8.625 17 11 C11.25 12.125 11.25 12.125 9 11 C8.1558062 14.97977076 7.55312735 18.97007218 7 23 C6.67 23 6.34 23 6 23 C6 21.35 6 19.7 6 18 C1.38 17.34 -3.24 16.68 -8 16 C-8 15.67 -8 15.34 -8 15 C-5.36 14.67 -2.72 14.34 0 14 C0 9.38 0 4.76 0 0 Z " fill="#815654" transform="translate(17,19)"/>
<path d="M0 0 C0.99 0 1.98 0 3 0 C3 0.66 3 1.32 3 2 C4.32 2.33 5.64 2.66 7 3 C7 2.01 7 1.02 7 0 C9.31 0.33 11.62 0.66 14 1 C14.52956798 6.29567977 13.25792452 10.78681984 10 15 C7.859375 15.73046875 7.859375 15.73046875 6 16 C2.13095043 10.63187218 0.35544557 6.63498399 0 0 Z " fill="#673A38" transform="translate(9,36)"/>
<path d="M0 0 C1.32 0 2.64 0 4 0 C7.0017506 7.07555499 7.34855655 13.37048445 7 21 C6.34 21 5.68 21 5 21 C4.74605469 20.44570313 4.49210937 19.89140625 4.23046875 19.3203125 C3.88628906 18.59585937 3.54210938 17.87140625 3.1875 17.125 C2.85105469 16.40570312 2.51460937 15.68640625 2.16796875 14.9453125 C1.00532903 12.69457194 1.00532903 12.69457194 -2 11 C-2.36328125 8.90625 -2.36328125 8.90625 -2.3125 6.5 C-2.30863281 5.7059375 -2.30476563 4.911875 -2.30078125 4.09375 C-2 2 -2 2 0 0 Z " fill="#B87D80" transform="translate(50,4)"/>
<path d="M0 0 C0.33 0.99 0.66 1.98 1 3 C3.31 3 5.62 3 8 3 C8.33 2.34 8.66 1.68 9 1 C9.66 1.66 10.32 2.32 11 3 C9.90081184 3.98475214 8.7954398 4.96260473 7.6875 5.9375 C6.76517578 6.75541016 6.76517578 6.75541016 5.82421875 7.58984375 C2.82191456 9.91068275 0.21101219 10.12222156 -3.44921875 10.09765625 C-4.29677734 10.09443359 -5.14433594 10.09121094 -6.01757812 10.08789062 C-6.89865234 10.07951172 -7.77972656 10.07113281 -8.6875 10.0625 C-9.58017578 10.05798828 -10.47285156 10.05347656 -11.39257812 10.04882812 C-13.59511987 10.03704983 -15.79752599 10.02060164 -18 10 C-17.67 9.01 -17.34 8.02 -17 7 C-12.71 7 -8.42 7 -4 7 C-4 6.01 -4 5.02 -4 4 C-4.99 3.67 -5.98 3.34 -7 3 C-7 2.34 -7 1.68 -7 1 C-3.535 0.505 -3.535 0.505 0 0 Z " fill="#D7B8B4" transform="translate(48,29)"/>
<path d="M0 0 C2.31 0.33 4.62 0.66 7 1 C7 2.32 7 3.64 7 5 C2.25 3.125 2.25 3.125 0 2 C1.01355265 9.52162756 2.6255561 16.45501369 5.1953125 23.6015625 C6 26 6 26 6 28 C8.31 28 10.62 28 13 28 C13 29.32 13 30.64 13 32 C11.68 31.67 10.36 31.34 9 31 C9 30.34 9 29.68 9 29 C8.34 29.33 7.68 29.66 7 30 C6.34786708 32.02463255 6.34786708 32.02463255 6 34 C4.64913953 30.15175419 3.32251187 26.29557094 2 22.4375 C1.6184375 21.35146484 1.236875 20.26542969 0.84375 19.14648438 C-2.72845667 8.65312728 -2.72845667 8.65312728 -2 3 C-1.34 2.01 -0.68 1.02 0 0 Z " fill="#744745" transform="translate(3,7)"/>
<path d="M0 0 C0.66 0 1.32 0 2 0 C2.0825 0.763125 2.165 1.52625 2.25 2.3125 C2.72719988 5.11226158 2.72719988 5.11226158 4.9375 6.375 C7.9273624 8.73064917 8.18161824 11.38548056 9 15 C8.34 15.66 7.68 16.32 7 17 C4.375 16.625 4.375 16.625 2 16 C1.375 13.625 1.375 13.625 1 11 C1.66 10.34 2.32 9.68 3 9 C1.02 8.01 -0.96 7.02 -3 6 C-2 4 -1 2 0 0 Z " fill="#784F50" transform="translate(46,10)"/>
<path d="M0 0 C0.66 0.33 1.32 0.66 2 1 C2.51779461 6.30739473 1.05141071 9.76739805 -2 14 C-4.5625 16.9375 -4.5625 16.9375 -7 19 C-7.99 19 -8.98 19 -10 19 C-10.33 18.34 -10.66 17.68 -11 17 C-9.73046875 15.53515625 -8.4609375 14.0703125 -7.19140625 12.60546875 C-5.79128769 10.89287029 -5.79128769 10.89287029 -5 8 C-4.34 8 -3.68 8 -3 8 C-1.58622659 5.36095629 -0.62759865 2.92879371 0 0 Z " fill="#DAC1BB" transform="translate(60,32)"/>
<path d="M0 0 C2.475 0.99 2.475 0.99 5 2 C5 3.32 5 4.64 5 6 C5.17109544 10.33579575 5.17109544 10.33579575 7 14 C7.04080783 15.99958364 7.04254356 18.00045254 7 20 C6.67 19.34 6.34 18.68 6 18 C5.01 17.67 4.02 17.34 3 17 C0.19130505 11.17455862 -0.40066311 6.41060973 0 0 Z " fill="#D0ABA8" transform="translate(3,9)"/>
<path d="M0 0 C0.33 0.66 0.66 1.32 1 2 C2.11375 1.79375 3.2275 1.5875 4.375 1.375 C5.57125 1.25125 6.7675 1.1275 8 1 C8.66 1.66 9.32 2.32 10 3 C9.625 5.625 9.625 5.625 9 8 C4.545 8.495 4.545 8.495 0 9 C-1.125 2.25 -1.125 2.25 0 0 Z " fill="#E9E1D8" transform="translate(25,22)"/>
<path d="M0 0 C1.48828125 1.05078125 1.48828125 1.05078125 3 3 C3.29296875 6.35546875 3.29296875 6.35546875 3.1875 10.1875 C3.16042969 11.45980469 3.13335938 12.73210938 3.10546875 14.04296875 C3.07066406 15.01878906 3.03585938 15.99460937 3 17 C0.69 17.33 -1.62 17.66 -4 18 C-3.01 17.67 -2.02 17.34 -1 17 C-1.33 11.72 -1.66 6.44 -2 1 C-1.34 0.67 -0.68 0.34 0 0 Z " fill="#B37676" transform="translate(14,16)"/>
<path d="M0 0 C0.66 0 1.32 0 2 0 C1.125 6.875 1.125 6.875 0 8 C-1.64634983 7.99402414 -3.29259472 7.9442106 -4.9375 7.875 C-10.05314295 7.80163354 -14.1214343 8.69370571 -18.90625 10.44140625 C-21 11 -21 11 -24 10 C-23 8 -23 8 -21.3203125 7.3671875 C-15.15624902 5.98520885 -9.30303475 5.78793528 -3 6 C-2.690625 5.195625 -2.38125 4.39125 -2.0625 3.5625 C-1 1 -1 1 0 0 Z " fill="#683D3E" transform="translate(45,7)"/>
<path d="M0 0 C1.32 0.33 2.64 0.66 4 1 C3.34 3.31 2.68 5.62 2 8 C-3.28 8 -8.56 8 -14 8 C-13.67 7.01 -13.34 6.02 -13 5 C-8.71 5 -4.42 5 0 5 C0 3.35 0 1.7 0 0 Z " fill="#8C575D" transform="translate(44,31)"/>
<path d="M0 0 C0.33 0.99 0.66 1.98 1 3 C0 4 0 4 -2.87109375 4.0625 C-5.24609455 4.02087896 -7.62109455 3.97921239 -9.99609375 3.9375 C-12.92470454 3.78380594 -12.92470454 3.78380594 -15 5 C-14.67 3.68 -14.34 2.36 -14 1 C-4.58997722 0.81548975 -4.58997722 0.81548975 0 2 C0 1.34 0 0.68 0 0 Z " fill="#CFC2BB" transform="translate(44,33)"/>
<path d="M0 0 C2.98704569 0.49784095 4.39324263 1.26216175 7 3 C6.34 4.32 5.68 5.64 5 7 C3.35 6.67 1.7 6.34 0 6 C-0.38218767 4.34385343 -0.71395102 2.67542976 -1 1 C-0.67 0.67 -0.34 0.34 0 0 Z " fill="#B1A29E" transform="translate(48,20)"/>
<path d="M0 0 C1.32 0 2.64 0 4 0 C6.02558881 3.34939881 6.21738987 5.86962551 6.125 9.75 C6.10695313 10.73484375 6.08890625 11.7196875 6.0703125 12.734375 C6.03550781 13.85585938 6.03550781 13.85585938 6 15 C5.67 15 5.34 15 5 15 C4.87625 13.9275 4.7525 12.855 4.625 11.75 C3.94205057 7.59573169 3.94205057 7.59573169 2 4 C1.01 3.67 0.02 3.34 -1 3 C-0.67 2.01 -0.34 1.02 0 0 Z " fill="#E5BCB8" transform="translate(50,4)"/>
<path d="M0 0 C2.125 0.375 2.125 0.375 4 1 C4.5625 2.9375 4.5625 2.9375 5 5 C4 6 4 6 1.4375 6.0625 C0.2309375 6.0315625 0.2309375 6.0315625 -1 6 C-1.625 4.125 -1.625 4.125 -2 2 C-1.34 1.34 -0.68 0.68 0 0 Z " fill="#3D3934" transform="translate(30,23)"/>
<path d="M0 0 C2.33944736 0.28730055 4.6739143 0.61936779 7 1 C7 2.32 7 3.64 7 5 C2.25 3.125 2.25 3.125 0 2 C0 4.31 0 6.62 0 9 C-2 6 -2 6 -1.6875 3.375 C-1 1 -1 1 0 0 Z " fill="#7B5353" transform="translate(3,7)"/>
<path d="M0 0 C0.99 0 1.98 0 3 0 C3.36923077 5.53846154 3.36923077 5.53846154 1.5 7.875 C0.7575 8.431875 0.7575 8.431875 0 9 C-1.36623674 6.26752652 -1.128426 4.01801098 -1 1 C-0.67 0.67 -0.34 0.34 0 0 Z " fill="#6E4A46" transform="translate(20,37)"/>
<path d="M0 0 C0.99 0.33 1.98 0.66 3 1 C3 4.96 3 8.92 3 13 C2.34 13 1.68 13 1 13 C-0.32229189 10.35541621 -0.09677194 8.32238699 -0.0625 5.375 C-0.05347656 4.37210938 -0.04445312 3.36921875 -0.03515625 2.3359375 C-0.02355469 1.56507812 -0.01195312 0.79421875 0 0 Z " fill="#C59798" transform="translate(54,12)"/>
<path d="M0 0 C2.475 0.99 2.475 0.99 5 2 C4 4 3 6 2 8 C1.34 8 0.68 8 0 8 C0 5.36 0 2.72 0 0 Z " fill="#C59392" transform="translate(48,6)"/>
<path d="M0 0 C2.5 1.125 2.5 1.125 5 3 C5.3125 6.1875 5.3125 6.1875 5 9 C4.67 8.34 4.34 7.68 4 7 C3.01 6.67 2.02 6.34 1 6 C0.67 4.02 0.34 2.04 0 0 Z " fill="#E0B4B0" transform="translate(5,20)"/>
<path d="M0 0 C0.33 0 0.66 0 1 0 C0.5317879 4.77576339 -0.24331998 8.04476345 -3 12 C-3.66 11.34 -4.32 10.68 -5 10 C-3.35 6.7 -1.7 3.4 0 0 Z " fill="#C6A29C" transform="translate(61,39)"/>
<path d="M0 0 C4.29 0.33 8.58 0.66 13 1 C13 1.33 13 1.66 13 2 C8.23692563 2.95261487 3.8333472 3.08333357 -1 3 C-0.67 2.01 -0.34 1.02 0 0 Z " fill="#AA908E" transform="translate(31,36)"/>
<path d="M0 0 C0.99 0.33 1.98 0.66 3 1 C3 3.97 3 6.94 3 10 C2.01 9.67 1.02 9.34 0 9 C0 6.03 0 3.06 0 0 Z " fill="#ECCDCA" transform="translate(3,9)"/>
<path d="M0 0 C0.66 0 1.32 0 2 0 C1.50168276 3.68754757 0.89932357 5.60490662 -2 8 C-2.66 7.01 -3.32 6.02 -4 5 C-3.01 4.67 -2.02 4.34 -1 4 C-0.26676204 1.98491642 -0.26676204 1.98491642 0 0 Z " fill="#774F4C" transform="translate(20,47)"/>
<path d="M0 0 C0.66 0.99 1.32 1.98 2 3 C4.05925139 3.72382467 4.05925139 3.72382467 6 4 C5.67 4.66 5.34 5.32 5 6 C1.9375 6.625 1.9375 6.625 -1 7 C-0.67 4.69 -0.34 2.38 0 0 Z " fill="#AE9492" transform="translate(47,32)"/>
<path d="M0 0 C0.33 0.99 0.66 1.98 1 3 C0 4 0 4 -1.84765625 4.09765625 C-3.8984375 4.06510417 -5.94921875 4.03255208 -8 4 C-7.67 3.01 -7.34 2.02 -7 1 C-4.69 1.33 -2.38 1.66 0 2 C0 1.34 0 0.68 0 0 Z " fill="#E2CFCC" transform="translate(44,33)"/>
<path d="M0 0 C1.485 0.99 1.485 0.99 3 2 C3.66 2 4.32 2 5 2 C5.33 3.98 5.66 5.96 6 8 C5.34 7.67 4.68 7.34 4 7 C4 6.34 4 5.68 4 5 C2.68 4.34 1.36 3.68 0 3 C0 2.01 0 1.02 0 0 Z " fill="#7F4B49" transform="translate(11,11)"/>
<path d="M0 0 C-0.33 1.65 -0.66 3.3 -1 5 C-2.32 5 -3.64 5 -5 5 C-4.625 3.0625 -4.625 3.0625 -4 1 C-2 0 -2 0 0 0 Z " fill="#CFB1AD" transform="translate(50,53)"/>
<path d="M0 0 C1.9375 0.6875 1.9375 0.6875 4 2 C4.75 4.625 4.75 4.625 5 7 C3.02 5.35 1.04 3.7 -1 2 C-0.67 1.34 -0.34 0.68 0 0 Z " fill="#845759" transform="translate(49,16)"/>
<path d="M0 0 C2.475 0.495 2.475 0.495 5 1 C5 1.99 5 2.98 5 4 C3.35 3.67 1.7 3.34 0 3 C0 2.01 0 1.02 0 0 Z " fill="#120E0A" transform="translate(47,22)"/>
</svg>
