<?xml version="1.0" encoding="UTF-8"?>
<svg version="1.1" xmlns="http://www.w3.org/2000/svg" width="200" height="200">
<path d="M0 0 C1.25296875 0.4125 2.5059375 0.825 3.796875 1.25 C28.74462541 10.06760046 48.21993996 28.50355897 60.08447266 52.01074219 C70.70512729 75.08730057 73.09510894 102.81586203 65 127 C64.5875 128.25296875 64.175 129.5059375 63.75 130.796875 C54.93239954 155.74462541 36.49644103 175.21993996 12.98925781 187.08447266 C-10.08730057 197.70512729 -37.81586203 200.09510894 -62 192 C-63.87945312 191.38125 -63.87945312 191.38125 -65.796875 190.75 C-90.74462541 181.93239954 -110.21993996 163.49644103 -122.08447266 139.98925781 C-132.70512729 116.91269943 -135.09510894 89.18413797 -127 65 C-126.5875 63.74703125 -126.175 62.4940625 -125.75 61.203125 C-116.93239954 36.25537459 -98.49644103 16.78006004 -74.98925781 4.91552734 C-51.91269943 -5.70512729 -24.18413797 -8.09510894 0 0 Z " fill="#130121" transform="translate(131,4)"/>
<path d="M0 0 C12.3290938 6.72496025 12.3290938 6.72496025 17.0625 9.6875 C18.15046875 10.36425781 19.2384375 11.04101562 20.359375 11.73828125 C20.94009766 12.10002441 21.52082031 12.46176758 22.11914062 12.83447266 C24.90908955 14.56334287 27.71208201 16.27033333 30.51977539 17.97021484 C32.05526218 18.91102956 33.58057147 19.86864876 35.09545898 20.84228516 C38.89301529 23.25961082 42.44517489 25.25415104 46.70703125 26.73046875 C51.5583933 28.61291468 55.40088229 30.29697198 58 35 C59.29338534 40.75544974 59.54222989 46.36640907 59.5625 52.25 C59.58005341 53.40630417 59.58005341 53.40630417 59.59796143 54.58596802 C59.65174417 67.03568285 59.65174417 67.03568285 56.11254883 71.24462891 C53.80326063 72.80565203 51.56475519 73.91931932 49 75 C47.8437557 75.68637057 46.69748921 76.39009963 45.56640625 77.1171875 C44.07947266 77.98730469 44.07947266 77.98730469 42.5625 78.875 C41.04849609 79.76832031 41.04849609 79.76832031 39.50390625 80.6796875 C37 82 37 82 35 82 C34.34 83.98 33.68 85.96 33 88 C33.79664063 88.21398437 34.59328125 88.42796875 35.4140625 88.6484375 C40.11706176 90.42102763 44.13124374 92.95826959 48.375 95.625 C49.20644531 96.140625 50.03789062 96.65625 50.89453125 97.1875 C52.93317962 98.45286795 54.96812882 99.72378866 57 101 C53.23521258 105.40448668 48.39155425 107.89862269 43.4375 110.75 C41.46841398 111.89655853 39.49968088 113.04372332 37.53125 114.19140625 C36.48195313 114.80129395 35.43265625 115.41118164 34.3515625 116.03955078 C30.79516874 118.11981316 27.25497886 120.22557337 23.71875 122.33984375 C22.49554358 123.07001963 21.27231777 123.80016303 20.04907227 124.53027344 C18.25250638 125.60274732 16.45650138 126.67609963 14.662323 127.75256348 C12.98390643 128.7589469 11.30255034 129.76042284 9.62109375 130.76171875 C8.6561499 131.33881592 7.69120605 131.91591309 6.69702148 132.51049805 C1.53112381 135.36350264 1.53112381 135.36350264 -1 136 C-3.67553711 135.00537109 -3.67553711 135.00537109 -6.52734375 133.2734375 C-7.56697266 132.65339844 -8.60660156 132.03335938 -9.67773438 131.39453125 C-11.29131836 130.39486328 -11.29131836 130.39486328 -12.9375 129.375 C-14.00935547 128.73175781 -15.08121094 128.08851563 -16.18554688 127.42578125 C-19.14142289 125.64310432 -22.08127269 123.84284515 -25 122 C-26.64198364 121.12287354 -26.64198364 121.12287354 -28.31713867 120.22802734 C-31 118 -31 118 -31.68115234 114.70019531 C-31.64973145 113.42241211 -31.61831055 112.14462891 -31.5859375 110.828125 C-31.57744781 110.1457074 -31.56895813 109.46328979 -31.56021118 108.76019287 C-31.52672057 106.5884962 -31.45147242 104.42056617 -31.375 102.25 C-31.34489374 100.77479337 -31.31751905 99.2995283 -31.29296875 97.82421875 C-31.22695085 94.21492956 -31.12346917 90.60783258 -31 87 C-31.90709717 87.52170776 -31.90709717 87.52170776 -32.83251953 88.05395508 C-35.59569024 89.64186565 -38.36032924 91.22720268 -41.125 92.8125 C-42.55199219 93.63331055 -42.55199219 93.63331055 -44.0078125 94.47070312 C-44.9359375 95.00244141 -45.8640625 95.53417969 -46.8203125 96.08203125 C-47.66867676 96.56905518 -48.51704102 97.0560791 -49.39111328 97.55786133 C-52.22204761 99.12274333 -55.10360442 100.56058851 -58 102 C-58.39547826 93.30791852 -58.69667092 84.61896581 -58.88080692 75.9198246 C-58.96923733 71.87900982 -59.08886731 67.84438042 -59.2824707 63.80712891 C-60.50029696 37.7439193 -60.50029696 37.7439193 -56.3923645 31.59274292 C-52.49829901 28.00736894 -48.18025315 26.20971469 -43.15809631 24.71836853 C-39.7177762 23.57318438 -36.88464937 21.72570317 -33.8125 19.8125 C-30.76010313 18.04026958 -28.80803752 17.02434546 -25.27734375 16.91796875 C-20.22686435 18.58540951 -16.12900068 21.52808455 -11.75 24.5 C-9.95351657 25.69850382 -8.15666014 26.89644877 -6.359375 28.09375 C-5.17553223 28.89329102 -5.17553223 28.89329102 -3.96777344 29.70898438 C-2.03923458 31.02901721 -2.03923458 31.02901721 0 32 C0 21.44 0 10.88 0 0 Z " fill="#150323" transform="translate(100,32)"/>
<path d="M0 0 C2.60888672 1.36694336 2.60888672 1.36694336 5.1796875 3.08984375 C6.1078125 3.70923828 7.0359375 4.32863281 7.9921875 4.96679688 C8.94351563 5.61712891 9.89484375 6.26746094 10.875 6.9375 C12.33679688 7.90719727 12.33679688 7.90719727 13.828125 8.89648438 C19.12191802 12.46645824 19.12191802 12.46645824 21 14 C21 14.66 21 15.32 21 16 C20.25838623 16.41362793 19.51677246 16.82725586 18.75268555 17.25341797 C15.99578642 18.79182082 13.23950783 20.331328 10.48364258 21.87158203 C9.29183222 22.53738882 8.0997771 23.20275769 6.9074707 23.86767578 C5.19157316 24.82468742 3.47663386 25.78341652 1.76171875 26.7421875 C0.73006592 27.3182373 -0.30158691 27.89428711 -1.36450195 28.48779297 C-3.2843677 29.58938152 -5.15829434 30.77219623 -7 32 C-7.02807831 34.59455081 -6.89003269 36.97388724 -6.6328125 39.54296875 C-4.9933456 64.1146996 -4.9933456 64.1146996 -10.43945312 71.15234375 C-17.9643615 77.35382379 -26.82760967 80.94253656 -36 84 C-36.39547826 75.30791852 -36.69667092 66.61896581 -36.88080692 57.9198246 C-36.96923733 53.87900982 -37.08886731 49.84438042 -37.2824707 45.80712891 C-38.50029696 19.7439193 -38.50029696 19.7439193 -34.3923645 13.59274292 C-30.49829901 10.00736894 -26.18025315 8.20971469 -21.15809631 6.71836853 C-17.7177762 5.57318438 -14.88464937 3.72570317 -11.8125 1.8125 C-7.25980356 -0.83080868 -5.10572523 -1.23434245 0 0 Z " fill="#FBFBFB" transform="translate(78,50)"/>
<path d="M0 0 C2.12475586 0.96801758 2.12475586 0.96801758 4.21484375 2.14453125 C4.98376953 2.57443359 5.75269531 3.00433594 6.54492188 3.44726562 C7.72924805 4.12305664 7.72924805 4.12305664 8.9375 4.8125 C9.72318359 5.25142578 10.50886719 5.69035156 11.31835938 6.14257812 C15.6740809 8.59563301 19.88282316 11.16489749 24 14 C20.23521258 18.40448668 15.39155425 20.89862269 10.4375 23.75 C8.46841398 24.89655853 6.49968088 26.04372332 4.53125 27.19140625 C3.48195313 27.80129395 2.43265625 28.41118164 1.3515625 29.03955078 C-2.20483126 31.11981316 -5.74502114 33.22557337 -9.28125 35.33984375 C-10.50445642 36.07001963 -11.72768223 36.80016303 -12.95092773 37.53027344 C-14.74749362 38.60274732 -16.54349862 39.67609963 -18.337677 40.75256348 C-20.01609357 41.7589469 -21.69744966 42.76042284 -23.37890625 43.76171875 C-24.3438501 44.33881592 -25.30879395 44.91591309 -26.30297852 45.51049805 C-31.47811115 48.36860289 -31.47811115 48.36860289 -34 49 C-36.69140625 47.98950195 -36.69140625 47.98950195 -39.5625 46.23828125 C-40.60664062 45.61373047 -41.65078125 44.98917969 -42.7265625 44.34570312 C-43.80679688 43.67474609 -44.88703125 43.00378906 -46 42.3125 C-47.08023438 41.66087891 -48.16046875 41.00925781 -49.2734375 40.33789062 C-51.29007849 39.11919215 -53.30230912 37.89314414 -55.30859375 36.6574707 C-57.95685504 34.94519435 -57.95685504 34.94519435 -60.81713867 33.74169922 C-63 32 -63 32 -63.56762695 28.72192383 C-63.56683763 27.38336521 -63.5387123 26.04463975 -63.48828125 24.70703125 C-63.48120651 24.00100266 -63.47413177 23.29497406 -63.46684265 22.56755066 C-63.4388753 20.31478416 -63.37614334 18.06451352 -63.3125 15.8125 C-63.28741966 14.28454114 -63.26460601 12.75654327 -63.24414062 11.22851562 C-63.18904244 7.48471694 -63.10276286 3.74278141 -63 0 C-59.29659825 0.67030144 -56.55967772 2.30209491 -53.3515625 4.23046875 C-52.26359375 4.86791016 -51.175625 5.50535156 -50.0546875 6.16210938 C-47.76885847 7.51199816 -45.49014488 8.87400926 -43.21875 10.24804688 C-42.12820312 10.88162109 -41.03765625 11.51519531 -39.9140625 12.16796875 C-38.4283374 13.05391724 -38.4283374 13.05391724 -36.91259766 13.95776367 C-33.1094925 15.31865688 -31.61714296 14.68385779 -28 13 C-26.15275665 11.95960621 -24.33868403 10.85855453 -22.55859375 9.70703125 C-21.56279297 9.07732422 -20.56699219 8.44761719 -19.54101562 7.79882812 C-17.46390305 6.46942379 -15.39099873 5.13342237 -13.32226562 3.79101562 C-12.32775391 3.16517578 -11.33324219 2.53933594 -10.30859375 1.89453125 C-9.40939209 1.31550049 -8.51019043 0.73646973 -7.58374023 0.13989258 C-4.46366067 -1.23662178 -3.19619348 -1.07117408 0 0 Z " fill="#FCFCFC" transform="translate(133,119)"/>
<path d="M0 0 C5.76495521 3.10934075 11.50804606 6.21108368 17.0625 9.6875 C18.15046875 10.36425781 19.2384375 11.04101562 20.359375 11.73828125 C20.94009766 12.10002441 21.52082031 12.46176758 22.11914062 12.83447266 C24.90908955 14.56334287 27.71208201 16.27033333 30.51977539 17.97021484 C32.05526218 18.91102956 33.58057147 19.86864876 35.09545898 20.84228516 C38.89301529 23.25961082 42.44517489 25.25415104 46.70703125 26.73046875 C51.5583933 28.61291468 55.40088229 30.29697198 58 35 C59.29338534 40.75544974 59.54222989 46.36640907 59.5625 52.25 C59.58005341 53.40630417 59.58005341 53.40630417 59.59796143 54.58596802 C59.65153989 66.98839708 59.65153989 66.98839708 56.20043945 71.19189453 C53.87087045 72.77202953 51.58102288 73.88377348 49 75 C47.47903726 75.90485407 45.96949176 76.82920658 44.47265625 77.7734375 C43.00420907 78.64333989 41.53416115 79.51054598 40.0625 80.375 C39.30904297 80.82488281 38.55558594 81.27476563 37.77929688 81.73828125 C36.69938477 82.37443359 36.69938477 82.37443359 35.59765625 83.0234375 C34.95320557 83.40419434 34.30875488 83.78495117 33.64477539 84.17724609 C32 85 32 85 30 85 C30 73.45 30 61.9 30 50 C28.02 49.34 26.04 48.68 24 48 C22.10865775 46.98074065 20.24778653 45.90332422 18.41796875 44.77734375 C16.89719727 43.84631836 16.89719727 43.84631836 15.34570312 42.89648438 C14.30349609 42.25001953 13.26128906 41.60355469 12.1875 40.9375 C11.12595703 40.28716797 10.06441406 39.63683594 8.97070312 38.96679688 C1.17152461 34.17152461 1.17152461 34.17152461 0 33 C-0.08843793 30.55169574 -0.11528752 28.13179401 -0.09765625 25.68359375 C-0.0962413 24.95253922 -0.09482635 24.22148468 -0.09336853 23.46827698 C-0.08775408 21.12464368 -0.07519922 18.78110461 -0.0625 16.4375 C-0.05748686 14.85221492 -0.05292363 13.26692834 -0.04882812 11.68164062 C-0.03777997 7.7877239 -0.02050572 3.89387795 0 0 Z " fill="#FDFCFD" transform="translate(100,32)"/>
</svg>
