<?xml version="1.0" encoding="UTF-8"?>
<svg version="1.1" xmlns="http://www.w3.org/2000/svg" width="200" height="200">
<path d="M0 0 C1.25296875 0.4125 2.5059375 0.825 3.796875 1.25 C28.74462541 10.06760046 48.21993996 28.50355897 60.08447266 52.01074219 C70.70512729 75.08730057 73.09510894 102.81586203 65 127 C64.5875 128.25296875 64.175 129.5059375 63.75 130.796875 C54.93239954 155.74462541 36.49644103 175.21993996 12.98925781 187.08447266 C-10.08730057 197.70512729 -37.81586203 200.09510894 -62 192 C-63.87945312 191.38125 -63.87945312 191.38125 -65.796875 190.75 C-90.74462541 181.93239954 -110.21993996 163.49644103 -122.08447266 139.98925781 C-132.70512729 116.91269943 -135.09510894 89.18413797 -127 65 C-126.5875 63.74703125 -126.175 62.4940625 -125.75 61.203125 C-116.93239954 36.25537459 -98.49644103 16.78006004 -74.98925781 4.91552734 C-51.91269943 -5.70512729 -24.18413797 -8.09510894 0 0 Z " fill="#4FF1E6" transform="translate(131,4)"/>
<path d="M0 0 C1.25296875 0.4125 2.5059375 0.825 3.796875 1.25 C28.74462541 10.06760046 48.21993996 28.50355897 60.08447266 52.01074219 C70.70512729 75.08730057 73.09510894 102.81586203 65 127 C64.5875 128.25296875 64.175 129.5059375 63.75 130.796875 C54.93239954 155.74462541 36.49644103 175.21993996 12.98925781 187.08447266 C-10.08730057 197.70512729 -37.81586203 200.09510894 -62 192 C-63.87945312 191.38125 -63.87945312 191.38125 -65.796875 190.75 C-90.74462541 181.93239954 -110.21993996 163.49644103 -122.08447266 139.98925781 C-132.70512729 116.91269943 -135.09510894 89.18413797 -127 65 C-126.5875 63.74703125 -126.175 62.4940625 -125.75 61.203125 C-116.93239954 36.25537459 -98.49644103 16.78006004 -74.98925781 4.91552734 C-51.91269943 -5.70512729 -24.18413797 -8.09510894 0 0 Z M-33.55297852 14.48461914 C-34.45681274 15.49963501 -34.45681274 15.49963501 -35.37890625 16.53515625 C-36.05373047 17.26154297 -36.72855469 17.98792969 -37.42382812 18.73632812 C-38.83911395 20.2756938 -40.2379707 21.83034276 -41.61914062 23.40039062 C-46.71804199 28.80686003 -46.71804199 28.80686003 -50.29296875 29.34545898 C-52.64544533 29.12042865 -54.73507071 28.66797972 -57 28 C-58.19367188 27.67902344 -59.38734375 27.35804687 -60.6171875 27.02734375 C-61.69226563 26.66769531 -62.76734375 26.30804688 -63.875 25.9375 C-68.34885244 24.42670204 -68.34885244 24.42670204 -73 24 C-74.00410968 27.62387457 -75.00258908 31.24927651 -76 34.875 C-76.42925781 36.42380859 -76.42925781 36.42380859 -76.8671875 38.00390625 C-77.13789062 38.99003906 -77.40859375 39.97617187 -77.6875 40.9921875 C-78.06455078 42.35899658 -78.06455078 42.35899658 -78.44921875 43.75341797 C-79.07937086 45.93822705 -79.07937086 45.93822705 -79 48 C-80.14597656 48.26554687 -81.29195312 48.53109375 -82.47265625 48.8046875 C-84.00262536 49.16136742 -85.53257209 49.51814337 -87.0625 49.875 C-87.81466797 50.04902344 -88.56683594 50.22304688 -89.34179688 50.40234375 C-93.93743017 51.47664764 -98.47297949 52.66534057 -103 54 C-101.91174179 60.01742777 -100.5500771 65.78294083 -98.5859375 71.578125 C-97.81150039 74.7791317 -97.42734937 76.70120977 -98 80 C-100.20414173 82.9398722 -102.81437527 85.37809484 -105.5 87.875 C-106.21542969 88.56335938 -106.93085937 89.25171875 -107.66796875 89.9609375 C-109.43256007 91.65494516 -111.20957924 93.33338493 -113 95 C-111.69217033 97.94607506 -110.37440203 99.79880226 -107.92578125 101.8828125 C-98.51461174 110.25863703 -98.51461174 110.25863703 -97.2265625 114.6171875 C-97.46457633 117.30586222 -98.08358553 119.45903261 -99 122 C-99.33257812 123.12277344 -99.66515625 124.24554688 -100.0078125 125.40234375 C-100.68865292 127.68441997 -101.40383918 129.95665863 -102.16015625 132.21484375 C-103.14435136 134.99387171 -103.14435136 134.99387171 -103 138 C-102.34402832 138.176521 -101.68805664 138.35304199 -101.01220703 138.53491211 C-98.04920594 139.33357248 -95.08709738 140.1354947 -92.125 140.9375 C-91.09246094 141.21529297 -90.05992188 141.49308594 -88.99609375 141.77929688 C-88.00996094 142.04677734 -87.02382812 142.31425781 -86.0078125 142.58984375 C-84.64100342 142.95903931 -84.64100342 142.95903931 -83.24658203 143.33569336 C-81 144 -81 144 -79 145 C-78.22216797 147.22485352 -78.22216797 147.22485352 -77.4921875 150.12890625 C-77.22792969 151.16337891 -76.96367188 152.19785156 -76.69140625 153.26367188 C-76.42199219 154.35228516 -76.15257812 155.44089844 -75.875 156.5625 C-75.59785156 157.65498047 -75.32070312 158.74746094 -75.03515625 159.87304688 C-74.34948083 162.58028259 -73.67145985 165.28920983 -73 168 C-67.14756846 166.74146469 -61.4122751 165.3026364 -55.67578125 163.5859375 C-50.33043637 162.41542402 -50.33043637 162.41542402 -47 163 C-44.06131169 165.20582835 -41.62197767 167.81429728 -39.125 170.5 C-38.09246094 171.57314453 -38.09246094 171.57314453 -37.0390625 172.66796875 C-35.34505484 174.43256007 -33.66661507 176.20957924 -32 178 C-29.05392494 176.69217033 -27.20119774 175.37440203 -25.1171875 172.92578125 C-16.74136297 163.51461174 -16.74136297 163.51461174 -12.3828125 162.2265625 C-9.69413778 162.46457633 -7.54096739 163.08358553 -5 164 C-3.87722656 164.33257812 -2.75445312 164.66515625 -1.59765625 165.0078125 C0.68441997 165.68865292 2.95665863 166.40383918 5.21484375 167.16015625 C7.99387171 168.14435136 7.99387171 168.14435136 11 168 C12.00410968 164.37612543 13.00258908 160.75072349 14 157.125 C14.28617187 156.09246094 14.57234375 155.05992187 14.8671875 153.99609375 C15.13789063 153.00996094 15.40859375 152.02382812 15.6875 151.0078125 C15.93886719 150.09660645 16.19023437 149.18540039 16.44921875 148.24658203 C17.07937086 146.06177295 17.07937086 146.06177295 17 144 C18.14597656 143.73445312 19.29195312 143.46890625 20.47265625 143.1953125 C22.00262536 142.83863258 23.53257209 142.48185663 25.0625 142.125 C25.81466797 141.95097656 26.56683594 141.77695313 27.34179688 141.59765625 C31.93743017 140.52335236 36.47297949 139.33465943 41 138 C39.84512118 131.73648073 38.40743694 125.64769709 36.5859375 119.54296875 C35.961746 116.83397764 35.74009752 114.77071792 36 112 C37.37695312 110.05541992 37.37695312 110.05541992 39.28125 108.23046875 C39.95800781 107.56982422 40.63476562 106.90917969 41.33203125 106.22851562 C42.40517578 105.21821289 42.40517578 105.21821289 43.5 104.1875 C44.57314453 103.14819336 44.57314453 103.14819336 45.66796875 102.08789062 C47.43460421 100.38014301 49.21182487 98.68513312 51 97 C49.69217033 94.05392494 48.37440203 92.20119774 45.92578125 90.1171875 C36.51461174 81.74136297 36.51461174 81.74136297 35.2265625 77.3828125 C35.46457633 74.69413778 36.08358553 72.54096739 37 70 C37.33257812 68.87722656 37.66515625 67.75445312 38.0078125 66.59765625 C38.68865292 64.31558003 39.40383918 62.04334137 40.16015625 59.78515625 C41.14435136 57.00612829 41.14435136 57.00612829 41 54 C37.37612543 52.99589032 33.75072349 51.99741092 30.125 51 C29.09246094 50.71382812 28.05992187 50.42765625 26.99609375 50.1328125 C26.00996094 49.86210938 25.02382812 49.59140625 24.0078125 49.3125 C23.09660645 49.06113281 22.18540039 48.80976562 21.24658203 48.55078125 C19.06177295 47.92062914 19.06177295 47.92062914 17 48 C16.73445312 46.85402344 16.46890625 45.70804688 16.1953125 44.52734375 C15.83863258 42.99737464 15.48185663 41.46742791 15.125 39.9375 C14.95097656 39.18533203 14.77695313 38.43316406 14.59765625 37.65820312 C13.52335236 33.06256983 12.33465943 28.52702051 11 24 C4.73648073 25.15487882 -1.35230291 26.59256306 -7.45703125 28.4140625 C-12.29909783 29.52974604 -12.29909783 29.52974604 -15 29 C-17.68066649 26.95917454 -19.94222169 24.57162804 -22.25 22.125 C-22.88679688 21.47402344 -23.52359375 20.82304687 -24.1796875 20.15234375 C-28.81593407 15.36813187 -28.81593407 15.36813187 -30 13 C-32.11712936 12.7696604 -32.11712936 12.7696604 -33.55297852 14.48461914 Z " fill="#FDFEFE" transform="translate(131,4)"/>
<path d="M0 0 C1.00410968 3.62387457 2.00258908 7.24927651 3 10.875 C3.28617187 11.90753906 3.57234375 12.94007812 3.8671875 14.00390625 C4.27324219 15.48310547 4.27324219 15.48310547 4.6875 16.9921875 C4.93886719 17.90339355 5.19023437 18.81459961 5.44921875 19.75341797 C6 22 6 22 6 24 C7.14597656 24.26554687 8.29195313 24.53109375 9.47265625 24.8046875 C11.00262536 25.16136742 12.53257209 25.51814337 14.0625 25.875 C15.19075195 26.13603516 15.19075195 26.13603516 16.34179688 26.40234375 C20.93743017 27.47664764 25.47297949 28.66534057 30 30 C28.91174179 36.01742777 27.5500771 41.78294083 25.5859375 47.578125 C24.81150039 50.7791317 24.42734937 52.70120977 25 56 C27.20414173 58.9398722 29.81437527 61.37809484 32.5 63.875 C33.57314453 64.90753906 33.57314453 64.90753906 34.66796875 65.9609375 C36.43256007 67.65494516 38.20957924 69.33338493 40 71 C38.69217033 73.94607506 37.37440203 75.79880226 34.92578125 77.8828125 C28.31691556 83.36508008 28.31691556 83.36508008 24.2265625 90.6171875 C24.46457633 93.30586222 25.08358553 95.45903261 26 98 C26.49886719 99.68416016 26.49886719 99.68416016 27.0078125 101.40234375 C27.68865292 103.68441997 28.40383918 105.95665863 29.16015625 108.21484375 C30 111 30 111 30 114 C26.37612543 115.00410968 22.75072349 116.00258908 19.125 117 C18.09246094 117.28617187 17.05992187 117.57234375 15.99609375 117.8671875 C14.51689453 118.27324219 14.51689453 118.27324219 13.0078125 118.6875 C12.09660645 118.93886719 11.18540039 119.19023437 10.24658203 119.44921875 C8 120 8 120 6 120 C5.60167969 121.71896484 5.60167969 121.71896484 5.1953125 123.47265625 C4.83863258 125.00262536 4.48185663 126.53257209 4.125 128.0625 C3.95097656 128.81466797 3.77695313 129.56683594 3.59765625 130.34179688 C2.52335236 134.93743017 1.33465943 139.47297949 0 144 C-6.01742777 142.91174179 -11.78294083 141.5500771 -17.578125 139.5859375 C-20.7791317 138.81150039 -22.70120977 138.42734937 -26 139 C-28.9398722 141.20414173 -31.37809484 143.81437527 -33.875 146.5 C-34.56335938 147.21542969 -35.25171875 147.93085938 -35.9609375 148.66796875 C-37.65494516 150.43256007 -39.33338493 152.20957924 -41 154 C-44.84612073 152.42140174 -47.24153346 149.97344745 -50.1328125 147.02734375 C-50.61072235 146.54423233 -51.0886322 146.06112091 -51.58102417 145.56336975 C-53.10053614 144.02610959 -54.6131639 142.48230674 -56.125 140.9375 C-57.64484559 139.39002523 -59.16613419 137.84404074 -60.69039917 136.30091858 C-62.06918742 134.90429199 -63.44316065 133.50291677 -64.81689453 132.10131836 C-66.81680452 129.96740455 -66.81680452 129.96740455 -69 129 C-67.39626852 124.99482604 -64.57886014 122.3228902 -61.5546875 119.359375 C-61.02481232 118.83232971 -60.49493713 118.30528442 -59.94900513 117.76226807 C-58.26232175 116.08674325 -56.56880436 114.41832278 -54.875 112.75 C-53.72740612 111.61244149 -52.58026539 110.47442564 -51.43359375 109.3359375 C-48.62761863 106.55196535 -45.81549536 103.7743424 -43 101 C-39.79389135 102.5325904 -37.39870901 104.24116189 -34.75 106.625 C-33.69039062 107.57246094 -33.69039062 107.57246094 -32.609375 108.5390625 C-32.07828125 109.02117187 -31.5471875 109.50328125 -31 110 C-30.814375 108.453125 -30.814375 108.453125 -30.625 106.875 C-30.06110186 103.37883154 -29.21317941 100.31602373 -28 97 C-26.41642541 97.31127516 -24.83315007 97.62407289 -23.25 97.9375 C-21.92742187 98.19853516 -21.92742187 98.19853516 -20.578125 98.46484375 C-18.36764947 98.92368488 -16.18487932 99.43336074 -14 100 C-14.2165625 99.24074219 -14.433125 98.48148437 -14.65625 97.69921875 C-14.9346875 96.70535156 -15.213125 95.71148437 -15.5 94.6875 C-15.7784375 93.70136719 -16.056875 92.71523437 -16.34375 91.69921875 C-17 89 -17 89 -17 86 C-15.58603098 85.49242138 -14.16868271 84.99425075 -12.75 84.5 C-11.96109375 84.2215625 -11.1721875 83.943125 -10.359375 83.65625 C-8 83 -8 83 -4 83 C-4.48210937 82.46890625 -4.96421875 81.9378125 -5.4609375 81.390625 C-6.09257812 80.68421875 -6.72421875 79.9778125 -7.375 79.25 C-8.00148437 78.55390625 -8.62796875 77.8578125 -9.2734375 77.140625 C-10.87505183 75.15491312 -11.96520068 73.32045907 -13 71 C-12.43410156 70.44570312 -11.86820313 69.89140625 -11.28515625 69.3203125 C-10.18494141 68.23363281 -10.18494141 68.23363281 -9.0625 67.125 C-8.33160156 66.40570313 -7.60070312 65.68640625 -6.84765625 64.9453125 C-4.94332001 63.12972808 -4.94332001 63.12972808 -4 61 C-5.03125 60.87625 -6.0625 60.7525 -7.125 60.625 C-10.62116846 60.06110186 -13.68397627 59.21317941 -17 58 C-16.69024532 56.22868439 -16.37709575 54.45796222 -16.0625 52.6875 C-15.88847656 51.70136719 -15.71445313 50.71523437 -15.53515625 49.69921875 C-15 47 -15 47 -14 44 C-14.75925781 44.2165625 -15.51851562 44.433125 -16.30078125 44.65625 C-17.29464844 44.9346875 -18.28851563 45.213125 -19.3125 45.5 C-20.29863281 45.7784375 -21.28476563 46.056875 -22.30078125 46.34375 C-25 47 -25 47 -28 47 C-28.90433413 43.83483055 -29.80831875 40.66956554 -30.7109375 37.50390625 C-31.66720983 34.15542795 -32.63305789 30.80980361 -33.6015625 27.46484375 C-33.87403809 26.52020264 -34.14651367 25.57556152 -34.42724609 24.60229492 C-34.97235499 22.71253017 -35.51952999 20.82336009 -36.06884766 18.93481445 C-36.31940918 18.06429443 -36.5699707 17.19377441 -36.828125 16.296875 C-37.0540332 15.51666992 -37.27994141 14.73646484 -37.51269531 13.93261719 C-38 12 -38 12 -38 10 C-29.05767734 7.33994199 -20.10530674 4.71671131 -11.125 2.1875 C-10.35881348 1.96876221 -9.59262695 1.75002441 -8.80322266 1.5246582 C-5.77925814 0.67937678 -3.15599937 0 0 0 Z " fill="#86F084" transform="translate(142,28)"/>
<path d="M0 0 C0.99 4.62 1.98 9.24 3 14 C4.5675 13.505 6.135 13.01 7.75 12.5 C11.1479188 11.42697301 13.36638422 11 17 11 C16.69024532 12.77131561 16.37709575 14.54203778 16.0625 16.3125 C15.88847656 17.29863281 15.71445313 18.28476563 15.53515625 19.30078125 C15 22 15 22 14 25 C18.29 25.99 22.58 26.98 27 28 C24.77502475 32.44995051 22.55366005 34.60084691 19 38 C20.43986995 41.74366186 22.87350302 43.9693114 25.7578125 46.6328125 C27 48 27 48 27 50 C25.2092015 50.50310058 23.41733089 51.00238628 21.625 51.5 C20.62726563 51.7784375 19.62953125 52.056875 18.6015625 52.34375 C16 53 16 53 14 53 C14.2165625 53.67546875 14.433125 54.3509375 14.65625 55.046875 C14.9346875 55.93890625 15.213125 56.8309375 15.5 57.75 C15.7784375 58.63171875 16.056875 59.5134375 16.34375 60.421875 C17 63 17 63 17 67 C12.13103697 66.40380045 7.67209049 65.43023178 3 64 C1.515 70.435 1.515 70.435 0 77 C-4.44995051 74.77502475 -6.60084691 72.55366005 -10 69 C-13.21479335 70.40514147 -15.28043342 72.08739836 -17.6875 74.625 C-18.77502953 75.76609094 -19.875082 76.89574979 -21 78 C-21.33 78 -21.66 78 -22 78 C-23.485 71.07 -23.485 71.07 -25 64 C-26.5675 64.495 -28.135 64.99 -29.75 65.5 C-33.1479188 66.57302699 -35.36638422 67 -39 67 C-38.28547412 62.23649415 -37.20465156 57.65798604 -36 53 C-42.98533796 51.43098141 -42.98533796 51.43098141 -50 50 C-49.06409496 48.8944811 -48.12620142 47.79064547 -47.1875 46.6875 C-46.40439453 45.76517578 -46.40439453 45.76517578 -45.60546875 44.82421875 C-44.12827531 43.14575321 -42.59960869 41.56117966 -41 40 C-42.43986995 36.25633814 -44.87350302 34.0306886 -47.7578125 31.3671875 C-49 30 -49 30 -49 28 C-47.2092015 27.49689942 -45.41733089 26.99761372 -43.625 26.5 C-42.62726563 26.2215625 -41.62953125 25.943125 -40.6015625 25.65625 C-38 25 -38 25 -36 25 C-36.2165625 24.32453125 -36.433125 23.6490625 -36.65625 22.953125 C-36.9346875 22.06109375 -37.213125 21.1690625 -37.5 20.25 C-37.7784375 19.36828125 -38.056875 18.4865625 -38.34375 17.578125 C-39 15 -39 15 -39 11 C-37.22868439 11.30975468 -35.45796222 11.62290425 -33.6875 11.9375 C-32.70136719 12.11152344 -31.71523437 12.28554687 -30.69921875 12.46484375 C-28 13 -28 13 -25 14 C-24.86722656 13.39671875 -24.73445313 12.7934375 -24.59765625 12.171875 C-24.42105469 11.37265625 -24.24445313 10.5734375 -24.0625 9.75 C-23.80146484 8.56664063 -23.80146484 8.56664063 -23.53515625 7.359375 C-23.052444 5.23121297 -22.53836822 3.11467158 -22 1 C-17.70761377 2.65091778 -15.1206085 5.73754566 -12 9 C-8.78520665 7.59485853 -6.71956658 5.91260164 -4.3125 3.375 C-1.09591837 0 -1.09591837 0 0 0 Z " fill="#FDFEFE" transform="translate(111,61)"/>
<path d="M0 0 C1.56365584 0.28540514 3.12588434 0.57863498 4.6875 0.875 C5.55761719 1.03742188 6.42773438 1.19984375 7.32421875 1.3671875 C8.20722656 1.57601562 9.09023437 1.78484375 10 2 C11.31484375 2.25523438 11.31484375 2.25523438 12.65625 2.515625 C16.47439744 4.93378505 16.80332056 8.64637271 17.8125 12.875 C18.13637695 14.09896484 18.13637695 14.09896484 18.46679688 15.34765625 C19.42811598 19.08917126 20 22.09317818 20 26 C20.75925781 25.7834375 21.51851562 25.566875 22.30078125 25.34375 C23.29464844 25.0653125 24.28851563 24.786875 25.3125 24.5 C26.29863281 24.2215625 27.28476563 23.943125 28.30078125 23.65625 C31 23 31 23 34 23 C33.37713159 25.68800977 32.75176793 28.3753992 32.125 31.0625 C31.95097656 31.81466797 31.77695313 32.56683594 31.59765625 33.34179688 C30.52335236 37.93743017 29.33465943 42.47297949 28 47 C21.98257223 45.91174179 16.21705917 44.5500771 10.421875 42.5859375 C7.2208683 41.81150039 5.29879023 41.42734937 2 42 C-0.9398722 44.20414173 -3.37809484 46.81437527 -5.875 49.5 C-6.56335938 50.21542969 -7.25171875 50.93085938 -7.9609375 51.66796875 C-9.65494516 53.43256007 -11.33338493 55.20957924 -13 57 C-16.84612073 55.42140174 -19.24153346 52.97344745 -22.1328125 50.02734375 C-22.61072235 49.54423233 -23.0886322 49.06112091 -23.58102417 48.56336975 C-25.10053614 47.02610959 -26.6131639 45.48230674 -28.125 43.9375 C-29.64484559 42.39002523 -31.16613419 40.84404074 -32.69039917 39.30091858 C-34.06918742 37.90429199 -35.44316065 36.50291677 -36.81689453 35.10131836 C-38.81680452 32.96740455 -38.81680452 32.96740455 -41 32 C-39.39626852 27.99482604 -36.57886014 25.3228902 -33.5546875 22.359375 C-32.75987473 21.56880707 -32.75987473 21.56880707 -31.94900513 20.76226807 C-30.26232175 19.08674325 -28.56880436 17.41832278 -26.875 15.75 C-25.72740612 14.61244149 -24.58026539 13.47442564 -23.43359375 12.3359375 C-20.62761863 9.55196535 -17.81549536 6.7743424 -15 4 C-11.79389135 5.5325904 -9.39870901 7.24116189 -6.75 9.625 C-6.04359375 10.25664062 -5.3371875 10.88828125 -4.609375 11.5390625 C-4.07828125 12.02117187 -3.5471875 12.50328125 -3 13 C-2.814375 11.453125 -2.814375 11.453125 -2.625 9.875 C-2.06110186 6.37883154 -1.21317941 3.31602373 0 0 Z " fill="#6BEEAF" transform="translate(114,125)"/>
<path d="M0 0 C0.20157715 0.78648926 0.4031543 1.57297852 0.61083984 2.38330078 C1.53001453 5.96443916 2.45247473 9.54472336 3.375 13.125 C3.69210938 14.3625 4.00921875 15.6 4.3359375 16.875 C4.6453125 18.07382812 4.9546875 19.27265625 5.2734375 20.5078125 C5.55622559 21.60754395 5.83901367 22.70727539 6.13037109 23.84033203 C6.72147364 25.98801569 7.38115222 28.11774199 8.10009766 30.22607422 C8.99994944 32.99984416 9.17013276 35.10774308 9 38 C7.80246094 38.31453125 6.60492188 38.6290625 5.37109375 38.953125 C4.58992188 39.15848877 3.80875 39.36385254 3.00390625 39.57543945 C1.28396293 40.0275136 -0.43609039 40.47916947 -2.15625 40.93041992 C-6.27391093 42.01222367 -10.38907794 43.10105045 -14.49609375 44.22265625 C-15.17534912 44.40731445 -15.85460449 44.59197266 -16.55444336 44.78222656 C-18.40162365 45.28568692 -20.24771906 45.79312274 -22.09375 46.30078125 C-25 47 -25 47 -28 47 C-28.90433413 43.83483055 -29.80831875 40.66956554 -30.7109375 37.50390625 C-31.66720983 34.15542795 -32.63305789 30.80980361 -33.6015625 27.46484375 C-33.87403809 26.52020264 -34.14651367 25.57556152 -34.42724609 24.60229492 C-34.97235499 22.71253017 -35.51952999 20.82336009 -36.06884766 18.93481445 C-36.31940918 18.06429443 -36.5699707 17.19377441 -36.828125 16.296875 C-37.0540332 15.51666992 -37.27994141 14.73646484 -37.51269531 13.93261719 C-38 12 -38 12 -38 10 C-29.05767734 7.33994199 -20.10530674 4.71671131 -11.125 2.1875 C-10.35881348 1.96876221 -9.59262695 1.75002441 -8.80322266 1.5246582 C-5.77925814 0.67937678 -3.15599937 0 0 0 Z " fill="#6BEC69" transform="translate(142,28)"/>
<path d="M0 0 C3.01015294 1.3510265 5.11967466 2.86335687 7.453125 5.1875 C8.38125 6.11175781 8.38125 6.11175781 9.328125 7.0546875 C9.96234375 7.69664063 10.5965625 8.33859375 11.25 9 C11.8996875 9.64195313 12.549375 10.28390625 13.21875 10.9453125 C13.83234375 11.56148437 14.4459375 12.17765625 15.078125 12.8125 C15.91972168 13.65748047 15.91972168 13.65748047 16.77832031 14.51953125 C18 16 18 16 18 18 C18.53625 18.20625 19.0725 18.4125 19.625 18.625 C23.0017654 20.57996944 25.30474839 23.18223695 28 26 C26.39577001 29.97990588 23.61753303 32.67192316 20.625 35.640625 C19.83730225 36.43119293 19.83730225 36.43119293 19.03369141 37.23773193 C17.92661117 38.34616928 16.8170167 39.45210046 15.70507812 40.55566406 C13.99893025 42.25106301 12.30375953 43.9569161 10.609375 45.6640625 C9.53189108 46.74022558 8.45378733 47.81576851 7.375 48.890625 C6.86662598 49.40304749 6.35825195 49.91546997 5.83447266 50.44342041 C2.22994091 54 2.22994091 54 0 54 C-1.39477539 52.58398438 -1.39477539 52.58398438 -3.03515625 50.59375 C-7.25231373 45.63418911 -11.81233307 41.07671635 -16.4375 36.5 C-17.26443359 35.67757812 -18.09136719 34.85515625 -18.94335938 34.0078125 C-20.95994959 32.00287887 -22.97885236 30.00033747 -25 28 C-23.42140174 24.15387927 -20.97344745 21.75846654 -18.02734375 18.8671875 C-17.54423233 18.38927765 -17.06112091 17.9113678 -16.56336975 17.41897583 C-15.02610959 15.89946386 -13.48230674 14.3868361 -11.9375 12.875 C-10.39002523 11.35515441 -8.84404074 9.83386581 -7.30091858 8.30960083 C-5.90429199 6.93081258 -4.50291677 5.55683935 -3.10131836 4.18310547 C-0.96740455 2.18319548 -0.96740455 2.18319548 0 0 Z " fill="#4DF1E6" transform="translate(43,73)"/>
<path d="M0 0 C2.68800977 0.62286841 5.3753992 1.24823207 8.0625 1.875 C8.81466797 2.04902344 9.56683594 2.22304688 10.34179688 2.40234375 C14.93743017 3.47664764 19.47297949 4.66534057 24 6 C23.06770587 11.15503811 22.00520104 16.18468932 20.4375 21.1875 C19.20110365 25.14022165 18.44716257 28.88610437 18 33 C17.1646875 31.9171875 17.1646875 31.9171875 16.3125 30.8125 C14.0270024 27.92913577 14.0270024 27.92913577 11.25 25.3125 C9 23 9 23 9 21 C7.85012502 21.97441722 6.70544743 22.95496625 5.5625 23.9375 C4.8303125 24.56527344 4.098125 25.19304687 3.34375 25.83984375 C0.94231169 27.98029159 0.94231169 27.98029159 -1.21875 30.50390625 C-6.80485808 36.78827784 -6.80485808 36.78827784 -10.359375 37.41796875 C-14.77850691 36.98050435 -18.80954816 35.42079698 -23 34 C-22.855625 33.00097656 -22.71125 32.00195312 -22.5625 30.97265625 C-22.376875 29.68230469 -22.19125 28.39195313 -22 27.0625 C-21.814375 25.77472656 -21.62875 24.48695312 -21.4375 23.16015625 C-21.12314211 21.08666481 -21.12314211 21.08666481 -21 19 C-18.31339217 18.35025795 -15.62581326 17.70511582 -12.9375 17.0625 C-12.18533203 16.88009766 -11.43316406 16.69769531 -10.65820312 16.50976562 C-6.11620899 15.42833845 -1.63270877 14.58447189 3 14 C2.7834375 13.24074219 2.566875 12.48148438 2.34375 11.69921875 C2.0653125 10.70535156 1.786875 9.71148437 1.5 8.6875 C1.2215625 7.70136719 0.943125 6.71523438 0.65625 5.69921875 C0 3 0 3 0 0 Z " fill="#84F17D" transform="translate(148,52)"/>
<path d="M0 0 C-0.99 4.62 -1.98 9.24 -3 14 C-1.411875 14.268125 0.17625 14.53625 1.8125 14.8125 C3.87615412 15.20227167 5.93861538 15.59839856 8 16 C9.01449219 16.18304688 10.02898438 16.36609375 11.07421875 16.5546875 C18.43051222 18.14576833 18.43051222 18.14576833 21.125 22.1875 C22.03739165 26.16292077 22.64379311 29.93924145 23 34 C21.58603098 34.50757862 20.16868271 35.00574925 18.75 35.5 C17.96109375 35.7784375 17.1721875 36.056875 16.359375 36.34375 C14 37 14 37 10 37 C9.505 37.99 9.505 37.99 9 39 C8.59910156 38.52691406 8.19820312 38.05382812 7.78515625 37.56640625 C0.3187028 28.1592349 0.3187028 28.1592349 -9 21 C-9.25523438 21.59296875 -9.51046875 22.1859375 -9.7734375 22.796875 C-11.11816498 25.21224538 -12.49214367 26.51211706 -14.625 28.25 C-15.25664063 28.77078125 -15.88828125 29.2915625 -16.5390625 29.828125 C-17.02117188 30.21484375 -17.50328125 30.6015625 -18 31 C-18.81446084 27.77132467 -19.62621989 24.5419759 -20.4375 21.3125 C-20.66759766 20.40048828 -20.89769531 19.48847656 -21.13476562 18.54882812 C-21.35712891 17.66259766 -21.57949219 16.77636719 -21.80859375 15.86328125 C-22.01282959 15.05157471 -22.21706543 14.23986816 -22.42749023 13.40356445 C-23.01295083 10.94562862 -23.51936755 8.48037229 -24 6 C-20.37612543 4.99589032 -16.75072349 3.99741092 -13.125 3 C-12.09246094 2.71382812 -11.05992188 2.42765625 -9.99609375 2.1328125 C-9.00996094 1.86210938 -8.02382813 1.59140625 -7.0078125 1.3125 C-5.64100342 0.93544922 -5.64100342 0.93544922 -4.24658203 0.55078125 C-2 0 -2 0 0 0 Z " fill="#4FF1E7" transform="translate(52,52)"/>
<path d="M0 0 C0.51172094 1.3706811 1.00877492 2.74684075 1.5 4.125 C1.7784375 4.89070312 2.056875 5.65640625 2.34375 6.4453125 C3.18072907 9.70355245 3.59050479 11.63866501 3 15 C0.81432278 17.89665303 -1.77626022 20.29384216 -4.4375 22.75 C-5.83378565 24.07628044 -7.22840207 25.40432113 -8.62109375 26.734375 C-9.2442749 27.31413086 -9.86745605 27.89388672 -10.50952148 28.49121094 C-12.10383122 29.94897055 -12.10383122 29.94897055 -13 32 C-12.11054687 32.38285156 -12.11054687 32.38285156 -11.203125 32.7734375 C-8.78775462 34.11816498 -7.48788294 35.49214367 -5.75 37.625 C-5.22921875 38.25664062 -4.7084375 38.88828125 -4.171875 39.5390625 C-3.59179688 40.26222656 -3.59179688 40.26222656 -3 41 C-6.22867533 41.81446084 -9.4580241 42.62621989 -12.6875 43.4375 C-13.59951172 43.66759766 -14.51152344 43.89769531 -15.45117188 44.13476562 C-16.33740234 44.35712891 -17.22363281 44.57949219 -18.13671875 44.80859375 C-18.94842529 45.01282959 -19.76013184 45.21706543 -20.59643555 45.42749023 C-23.05068199 46.01207204 -25.5260858 46.50521716 -28 47 C-29.98 39.41 -31.96 31.82 -34 24 C-30.82892754 22.41446377 -28.29964696 24.0328621 -25 25 C-23.68 25 -22.36 25 -21 25 C-20.70867187 23.75863281 -20.41734375 22.51726562 -20.1171875 21.23828125 C-19.70428658 19.59606168 -19.29015903 17.95415017 -18.875 16.3125 C-18.68679687 15.49587891 -18.49859375 14.67925781 -18.3046875 13.83789062 C-16.78779207 7.98362234 -15.08640278 5.33449196 -10 2 C-6.47126139 0.74400829 -3.73742185 0 0 0 Z " fill="#4FF1E6" transform="translate(86,125)"/>
<path d="M0 0 C0.8397028 2.91496831 1.67196003 5.8317186 2.5 8.75 C2.73847656 9.575 2.97695312 10.4 3.22265625 11.25 C3.44824219 12.04921875 3.67382812 12.8484375 3.90625 13.671875 C4.11572266 14.4050293 4.32519531 15.13818359 4.54101562 15.89355469 C5 18 5 18 5 22 C-2.63054095 21.38955672 -9.70189474 19.20378179 -17 17 C-16.0855615 5.95454545 -16.0855615 5.95454545 -14 3 C-9.39761245 0.73095863 -5.11796675 -0.17210862 0 0 Z " fill="#13D6CF" transform="translate(66,49)"/>
<path d="M0 0 C-1.31117661 7.11120489 -3.01720516 14.04699943 -5 21 C-10.32761984 22.37669468 -14.14426495 21.481174 -19 19 C-21.12695257 15.9868172 -21.14172825 12.91040462 -21.53125 9.3203125 C-21.61955078 8.51094238 -21.70785156 7.70157227 -21.79882812 6.86767578 C-21.86521484 6.25134277 -21.93160156 5.63500977 -22 5 C-19.08503169 4.1602972 -16.1682814 3.32803997 -13.25 2.5 C-12.0125 2.14228516 -12.0125 2.14228516 -10.75 1.77734375 C-9.95078125 1.55175781 -9.1515625 1.32617188 -8.328125 1.09375 C-7.5949707 0.88427734 -6.86181641 0.67480469 -6.10644531 0.45898438 C-4 0 -4 0 0 0 Z " fill="#1DDCB6" transform="translate(71,129)"/>
<path d="M0 0 C3.04332765 1.3584202 5.12309151 2.88463024 7.453125 5.2578125 C8.071875 5.88300781 8.690625 6.50820312 9.328125 7.15234375 C9.96234375 7.80332031 10.5965625 8.45429687 11.25 9.125 C11.8996875 9.78371094 12.549375 10.44242188 13.21875 11.12109375 C14.81711727 12.74296643 16.41061897 14.3693281 18 16 C15.36208886 17.38786998 12.81971593 18.45064138 9.9609375 19.2890625 C9.21585938 19.50820312 8.47078125 19.72734375 7.703125 19.953125 C6.93484375 20.17484375 6.1665625 20.3965625 5.375 20.625 C4.21097656 20.96917969 4.21097656 20.96917969 3.0234375 21.3203125 C-2.73549107 23 -2.73549107 23 -5 23 C-8.88846364 12.37616184 -8.88846364 12.37616184 -8 9 C-6.31539362 7.04105568 -4.53853983 5.29066962 -2.62890625 3.55078125 C-0.89771837 2.07829883 -0.89771837 2.07829883 0 0 Z " fill="#12D9CF" transform="translate(43,73)"/>
<path d="M0 0 C1.95894432 1.68460638 3.70933038 3.46146017 5.44921875 5.37109375 C6.92170117 7.10228163 6.92170117 7.10228163 9 8 C7.6415798 11.04332765 6.11536976 13.12309151 3.7421875 15.453125 C3.11699219 16.071875 2.49179688 16.690625 1.84765625 17.328125 C1.19667969 17.96234375 0.54570313 18.5965625 -0.125 19.25 C-0.78371094 19.8996875 -1.44242188 20.549375 -2.12109375 21.21875 C-3.74296643 22.81711727 -5.3693281 24.41061897 -7 26 C-8.38786998 23.36208886 -9.45064138 20.81971593 -10.2890625 17.9609375 C-10.50820312 17.21585938 -10.72734375 16.47078125 -10.953125 15.703125 C-11.17484375 14.93484375 -11.3965625 14.1665625 -11.625 13.375 C-11.85445313 12.59898438 -12.08390625 11.82296875 -12.3203125 11.0234375 C-14 5.26450893 -14 5.26450893 -14 3 C-3.37616184 -0.88846364 -3.37616184 -0.88846364 0 0 Z " fill="#1BDD53" transform="translate(118,35)"/>
<path d="M0 0 C1.69140625 1.57421875 1.69140625 1.57421875 3.5625 3.6875 C4.18253906 4.37199219 4.80257812 5.05648437 5.44140625 5.76171875 C7.21779448 8.31277253 7.76436915 9.9085232 8 13 C7.44140625 15.67578125 7.44140625 15.67578125 6.5625 18.3125 C6.13130859 19.63701172 6.13130859 19.63701172 5.69140625 20.98828125 C5.46324219 21.65214844 5.23507813 22.31601563 5 23 C2.29081668 22.37851697 -0.41731127 21.75293439 -3.125 21.125 C-3.88554687 20.95097656 -4.64609375 20.77695313 -5.4296875 20.59765625 C-9.70725424 19.60201572 -13.85405809 18.47028611 -18 17 C-3.95652174 0 -3.95652174 0 0 0 Z " fill="#5AE46D" transform="translate(157,73)"/>
<path d="M0 0 C2.22775337 3.34163006 3.12738864 6.54712825 4.125 10.375 C4.30675781 11.035 4.48851563 11.695 4.67578125 12.375 C5.63494694 15.99530961 6.21694345 19.25410979 6 23 C-3.54980341 26.88466579 -3.54980341 26.88466579 -7 26 C-8.96129895 24.31705134 -10.70889572 22.5390169 -12.44921875 20.62890625 C-13.92170117 18.89771837 -13.92170117 18.89771837 -16 18 C-14.6415798 14.95667235 -13.11536976 12.87690849 -10.7421875 10.546875 C-10.11699219 9.928125 -9.49179688 9.309375 -8.84765625 8.671875 C-8.19667969 8.03765625 -7.54570313 7.4034375 -6.875 6.75 C-6.21628906 6.1003125 -5.55757812 5.450625 -4.87890625 4.78125 C-3.25703357 3.18288273 -1.6306719 1.58938103 0 0 Z " fill="#28DCA7" transform="translate(89,139)"/>
<path d="M0 0 C6.03331362 4.98404168 11.5184171 10.41915303 17 16 C16.06409496 17.1055189 15.12620142 18.20935453 14.1875 19.3125 C13.66542969 19.92738281 13.14335938 20.54226562 12.60546875 21.17578125 C12.07566406 21.77777344 11.54585937 22.37976563 11 23 C10.51917969 23.57492188 10.03835937 24.14984375 9.54296875 24.7421875 C8 26 8 26 4.125 25.8125 C0.87963595 25.27360191 -2.00879679 24.40212651 -5 23 C-4.44636539 14.97229811 -2.34312056 7.66145933 0 0 Z " fill="#3EDF8A" transform="translate(110,139)"/>
<path d="M0 0 C7.11120489 1.31117661 14.04699943 3.01720516 21 5 C22.13265785 9.54669746 21.91348917 12.58612387 20.3515625 16.97265625 C18.13667533 20.294987 15.22525224 20.79417256 11.47265625 21.66015625 C9 22 9 22 5 22 C4.1606242 18.89743488 3.3295495 15.79270556 2.5 12.6875 C2.26152344 11.80642578 2.02304688 10.92535156 1.77734375 10.01757812 C1.55175781 9.17001953 1.32617188 8.32246094 1.09375 7.44921875 C0.88427734 6.66893311 0.67480469 5.88864746 0.45898438 5.0847168 C0 3 0 3 0 0 Z " fill="#4CE376" transform="translate(129,129)"/>
<path d="M0 0 C3.61085973 8.87669683 3.61085973 8.87669683 3 13 C1.03125 15.45703125 1.03125 15.45703125 -1.5 17.8125 C-2.75296875 18.99779297 -2.75296875 18.99779297 -4.03125 20.20703125 C-4.6809375 20.79871094 -5.330625 21.39039062 -6 22 C-12.03331362 17.01595832 -17.5184171 11.58084697 -23 6 C-19.65836994 3.77224663 -16.45287175 2.87261136 -12.625 1.875 C-11.635 1.60236328 -11.635 1.60236328 -10.625 1.32421875 C-7.00469039 0.36505306 -3.74589021 -0.21694345 0 0 Z " fill="#54E371" transform="translate(162,105)"/>
<path d="M0 0 C8.02770189 0.55363461 15.33854067 2.65687944 23 5 C18.04381506 10.99959229 12.80773381 16.80855449 7 22 C6.34 22 5.68 22 5 22 C3.30859375 20.28515625 3.30859375 20.28515625 1.4375 18.0625 C0.81746094 17.33160156 0.19742188 16.60070312 -0.44140625 15.84765625 C-1.21291016 14.93306641 -1.21291016 14.93306641 -2 14 C-2.33 13.67 -2.66 13.34 -3 13 C-2.60537976 8.26455717 -2.03464238 4.34057042 0 0 Z " fill="#10D8CE" transform="translate(38,105)"/>
<path d="M0 0 C4.58477988 0.44948822 8.6789261 1.4191193 13 3 C12.354523 10.90709331 10.13002861 18.39133967 8 26 C2.00040771 21.04381506 -3.80855449 15.80773381 -9 10 C-9 9.34 -9 8.68 -9 8 C-7.28515625 6.30859375 -7.28515625 6.30859375 -5.0625 4.4375 C-3.96615234 3.50744141 -3.96615234 3.50744141 -2.84765625 2.55859375 C-2.23792969 2.04425781 -1.62820312 1.52992187 -1 1 C-0.67 0.67 -0.34 0.34 0 0 Z " fill="#14D5CD" transform="translate(82,35)"/>
</svg>
