<svg xmlns="http://www.w3.org/2000/svg" width="256" height="256" fill="none" xmlns:v="https://vecta.io/nano"><circle cx="128" cy="128" r="128" fill="#000"/><mask id="A" maskUnits="userSpaceOnUse" x="0" y="0" width="256" height="256" mask-type="alpha"><path d="M128 256c70.692 0 128-57.308 128-128S198.692 0 128 0 0 57.308 0 128s57.308 128 128 128z" fill="#0f0f11"/></mask><g mask="url(#A)"><g filter="url(#B)"><ellipse cx="179.698" cy="92.349" rx="125.688" ry="86.99" transform="rotate(37.283 179.698 92.349)" fill="url(#C)"/><ellipse cx="32.413" cy="97" rx="112.229" ry="77.412" transform="rotate(120.564 32.413 97)" fill="url(#D)"/><ellipse cx="136.5" cy="205.5" rx="102.5" ry="77.5" fill="url(#E)"/></g></g><g fill="#fff"><rect x="71" y="66" width="87" height="30" rx="2"/><rect x="158" y="96" width="30" height="87" rx="2"/><rect x="71" y="87" width="30" height="96" rx="2"/><rect x="128" y="154" width="35" height="29" rx="2"/></g><defs><filter id="B" x="-119.338" y="-74.545" width="476.097" height="421.545" filterUnits="userSpaceOnUse" color-interpolation-filters="sRGB"><feFlood flood-opacity="0"/><feBlend in="SourceGraphic"/><feGaussianBlur stdDeviation="32"/></filter><linearGradient id="C" x1="177.97" y1="28.5" x2="213.951" y2="136.843" gradientUnits="userSpaceOnUse"><stop stop-color="#4478dd"/><stop offset="1" stop-color="#3c47ab"/></linearGradient><radialGradient id="D" cx="0" cy="0" r="1" gradientUnits="userSpaceOnUse" gradientTransform="translate(97.6193 82.7195) rotate(165.742) scale(133.91 92.405)"><stop/><stop offset="1" stop-color="#3aa840"/></radialGradient><linearGradient id="E" x1="180.5" y1="154" x2="44.5" y2="220" gradientUnits="userSpaceOnUse"><stop stop-color="#c64b3b"/><stop offset="1"/></linearGradient></defs></svg>