<?xml version="1.0" encoding="UTF-8"?>
<svg version="1.1" xmlns="http://www.w3.org/2000/svg" width="64" height="64">
<path d="M0 0 C3.1604029 5.1619914 4.3273472 9.33946986 5 15.375 C5.70898258 21.65545633 6.74375149 27.49566534 10 33 C10.99 33.66 11.98 34.32 13 35 C11.02 35.495 11.02 35.495 9 36 C9 36.66 9 37.32 9 38 C10.32 38.66 11.64 39.32 13 40 C11.68 40 10.36 40 9 40 C9.495 41.98 9.495 41.98 10 44 C8.35 44.66 6.7 45.32 5 46 C5 46.66 5 47.32 5 48 C4.80078125 49.92578125 4.80078125 49.92578125 4 52 C1.85546875 53.66796875 1.85546875 53.66796875 -0.8125 55.1875 C-1.68519531 55.69667969 -2.55789062 56.20585938 -3.45703125 56.73046875 C-8.00354169 59.00023202 -11.79568012 59.16019183 -16.875 59.1875 C-18.06867187 59.20167969 -19.26234375 59.21585938 -20.4921875 59.23046875 C-24.74353879 58.95114834 -28.20285303 57.89857348 -32 56 C-32.33333333 54.33333333 -32.66666667 52.66666667 -33 51 C-33.66 50.67 -34.32 50.34 -35 50 C-35 50.66 -35 51.32 -35 52 C-35.66 52 -36.32 52 -37 52 C-37 51.01 -37 50.02 -37 49 C-38.32 49 -39.64 49 -41 49 C-40.67 47.35 -40.34 45.7 -40 44 C-41.485 44.495 -41.485 44.495 -43 45 C-42.83242188 44.16597656 -42.66484375 43.33195312 -42.4921875 42.47265625 C-41.36960401 36.2700272 -40.75715725 31.45263351 -42.47265625 25.38671875 C-43.80258626 19.36755402 -44.3212568 11.83001359 -41.5 6.1875 C-41.005 5.465625 -40.51 4.74375 -40 4 C-36.40163887 4.58896942 -34.54164989 5.99898556 -31.875 8.4375 C-31.19179688 9.05496094 -30.50859375 9.67242187 -29.8046875 10.30859375 C-28.51538621 11.51696487 -27.24949161 12.75050839 -26 14 C-21.02317868 14.07450331 -15.81846856 13.63232611 -12.015625 10.21875 C-10.55456008 8.20037165 -9.26384838 6.14599758 -8 4 C-4.6 -0 -4.6 -0 0 0 Z " fill="#F5F7F7" transform="translate(49,5)"/>
<path d="M0 0 C2.475 1.98 2.475 1.98 5 4 C3.68 4.33 2.36 4.66 1 5 C1 5.66 1 6.32 1 7 C2.32 7.66 3.64 8.32 5 9 C3.68 9 2.36 9 1 9 C1.495 10.98 1.495 10.98 2 13 C0.35 13.66 -1.3 14.32 -3 15 C-3 15.66 -3 16.32 -3 17 C-3.19921875 18.92578125 -3.19921875 18.92578125 -4 21 C-6.14453125 22.66796875 -6.14453125 22.66796875 -8.8125 24.1875 C-9.68519531 24.69667969 -10.55789062 25.20585938 -11.45703125 25.73046875 C-16.00354169 28.00023202 -19.79568012 28.16019183 -24.875 28.1875 C-26.06867187 28.20167969 -27.26234375 28.21585938 -28.4921875 28.23046875 C-32.74353879 27.95114834 -36.20285303 26.89857348 -40 25 C-40.33333333 23.33333333 -40.66666667 21.66666667 -41 20 C-41.66 19.67 -42.32 19.34 -43 19 C-43 19.66 -43 20.32 -43 21 C-43.66 21 -44.32 21 -45 21 C-45 20.01 -45 19.02 -45 18 C-46.32 18 -47.64 18 -49 18 C-48.67 16.35 -48.34 14.7 -48 13 C-48.99 13.33 -49.98 13.66 -51 14 C-51 13.34 -51 12.68 -51 12 C-47.535 11.505 -47.535 11.505 -44 11 C-44.99 11.33 -45.98 11.66 -47 12 C-47 12.99 -47 13.98 -47 15 C-38.43737369 18.92721958 -27.86465241 19.05393053 -19 16 C-18.19433594 15.73058594 -17.38867188 15.46117187 -16.55859375 15.18359375 C-12.33532781 13.56343234 -10.42169978 12.66449662 -7.9375 8.75 C-7.628125 7.8425 -7.31875 6.935 -7 6 C-7.99 6 -8.98 6 -10 6 C-10 5.34 -10 4.68 -10 4 C-6.7 3.67 -3.4 3.34 0 3 C0 2.01 0 1.02 0 0 Z " fill="#8ECEE4" transform="translate(57,36)"/>
<path d="M0 0 C3.89834647 6.36729924 4.78285826 12.30065266 5.5078125 19.609375 C5.94722775 22.63645783 6.56705218 24.37697688 8 27 C7.625 29.25 7.625 29.25 7 31 C4.36 31 1.72 31 -1 31 C-0.34 30.67 0.32 30.34 1 30 C-1.27317455 22.74612209 -1.27317455 22.74612209 -7 18 C-11.5965453 16.05680852 -16.00901626 14.38262309 -21 15.5625 C-24.07495243 16.72553996 -24.07495243 16.72553996 -25.4375 19.125 C-25.623125 19.74375 -25.80875 20.3625 -26 21 C-26 20.01 -26 19.02 -26 18 C-27.65 18.33 -29.3 18.66 -31 19 C-31.66 16.36 -32.32 13.72 -33 11 C-28.25 11.75 -28.25 11.75 -26 14 C-21.02317868 14.07450331 -15.81846856 13.63232611 -12.015625 10.21875 C-10.55456008 8.20037165 -9.26384838 6.14599758 -8 4 C-4.6 -0 -4.6 -0 0 0 Z " fill="#95D3E9" transform="translate(49,5)"/>
<path d="M0 0 C2.125 0.9375 2.125 0.9375 4 2 C3.80078125 3.80078125 3.80078125 3.80078125 3 6 C0.85546875 7.66796875 0.85546875 7.66796875 -1.8125 9.1875 C-2.68519531 9.69667969 -3.55789062 10.20585938 -4.45703125 10.73046875 C-9.00354169 13.00023202 -12.79568012 13.16019183 -17.875 13.1875 C-19.06867187 13.20167969 -20.26234375 13.21585938 -21.4921875 13.23046875 C-25.74353879 12.95114834 -29.20285303 11.89857348 -33 10 C-33.625 6.9375 -33.625 6.9375 -34 4 C-30.04 4.33 -26.08 4.66 -22 5 C-22 5.99 -22 6.98 -22 8 C-20.68 8.66 -19.36 9.32 -18 10 C-16.31237149 8.3545622 -14.6459651 6.68711423 -13 5 C-13 4.67 -13 4.34 -13 4 C-12.22914062 3.79503906 -11.45828125 3.59007812 -10.6640625 3.37890625 C-9.66117188 3.10949219 -8.65828125 2.84007812 -7.625 2.5625 C-6.62726562 2.29566406 -5.62953125 2.02882812 -4.6015625 1.75390625 C-2.04582299 1.09815644 -2.04582299 1.09815644 0 0 Z " fill="#11302D" transform="translate(50,51)"/>
<path d="M0 0 C3.35595828 0.59927826 5.37801226 1.84622436 8 4 C7.67 4.66 7.34 5.32 7 6 C6.01 5.34 5.02 4.68 4 4 C5.32 7.3 6.64 10.6 8 14 C7.34 14 6.68 14 6 14 C5.71125 14.9075 5.4225 15.815 5.125 16.75 C4 20 4 20 2.9375 22 C1.71479283 24.60844196 1.3872708 27.16001412 1 30 C1.99 30.33 2.98 30.66 4 31 C4 31.66 4 32.32 4 33 C2.68 33 1.36 33 0 33 C-0.495 35.475 -0.495 35.475 -1 38 C-2.18439892 34.17880058 -1.72347013 31.29365047 -1.05859375 27.4140625 C-0.98297142 24.29842233 -2.01061029 21.94601861 -3 19 C-3.63880747 12.16393047 -3.98217721 5.80734176 0 0 Z " fill="#E7BCCE" transform="translate(9,9)"/>
<path d="M0 0 C0.6509259 1.24735567 1.29551669 2.49801832 1.9375 3.75 C2.29714844 4.44609375 2.65679687 5.1421875 3.02734375 5.859375 C4.8641235 9.90176577 5.1152263 13.3209906 5.0625 17.75 C5.05347656 18.73484375 5.04445313 19.7196875 5.03515625 20.734375 C5.02355469 21.48203125 5.01195313 22.2296875 5 23 C4.67 23 4.34 23 4 23 C3.34 18.38 2.68 13.76 2 9 C1.01 8.67 0.02 8.34 -1 8 C-0.34 11.63 0.32 15.26 1 19 C-1.31 18.01 -3.62 17.02 -6 16 C-5.67 15.01 -5.34 14.02 -5 13 C-5.99 13.33 -6.98 13.66 -8 14 C-8 12.68 -8 11.36 -8 10 C-9.32 10.33 -10.64 10.66 -12 11 C-10.18999153 4.8459712 -6.57254582 0 0 0 Z " fill="#A9778D" transform="translate(49,5)"/>
<path d="M0 0 C-0.99 0.33 -1.98 0.66 -3 1 C-3 1.99 -3 2.98 -3 4 C5.59274174 7.9571837 15.82873472 7.42312737 25 6 C24.69381595 9.67420866 24.24228216 10.78135513 21.4375 13.3125 C20.633125 13.869375 19.82875 14.42625 19 15 C15.83884224 13.63016497 15.0072908 13.0109362 13 10 C10.12240932 9.19663887 10.12240932 9.19663887 6.875 8.8125 C5.77929688 8.65394531 4.68359375 8.49539062 3.5546875 8.33203125 C2.29011719 8.16767578 2.29011719 8.16767578 1 8 C1 8.66 1 9.32 1 10 C0.34 10 -0.32 10 -1 10 C-1 9.01 -1 8.02 -1 7 C-2.32 7 -3.64 7 -5 7 C-4.67 5.35 -4.34 3.7 -4 2 C-4.99 2.33 -5.98 2.66 -7 3 C-7 2.34 -7 1.68 -7 1 C-4.53721199 -0.231394 -2.7204945 -0.07159196 0 0 Z " fill="#5A8F9C" transform="translate(13,47)"/>
<path d="M0 0 C3.96 0.33 7.92 0.66 12 1 C12 1.99 12 2.98 12 4 C12.66 4.66 13.32 5.32 14 6 C18.41217199 5.63834656 22.67443132 4.94621815 27 4 C27 4.66 27 5.32 27 6 C18.69305461 9.29921235 11.47828045 10.51538458 3 7 C2.34 6.67 1.68 6.34 1 6 C0.375 2.9375 0.375 2.9375 0 0 Z " fill="#05231F" transform="translate(16,55)"/>
<path d="M0 0 C1.65 1.32 3.3 2.64 5 4 C3.68 4.33 2.36 4.66 1 5 C1 5.66 1 6.32 1 7 C2.32 7.66 3.64 8.32 5 9 C3.68 9 2.36 9 1 9 C1.33 10.32 1.66 11.64 2 13 C-0.31 13.66 -2.62 14.32 -5 15 C-5 14.01 -5 13.02 -5 12 C-3.68 11.34 -2.36 10.68 -1 10 C-1.33 9.34 -1.66 8.68 -2 8 C-1.67 7.67 -1.34 7.34 -1 7 C-2.65 7 -4.3 7 -6 7 C-6 6.01 -6 5.02 -6 4 C-4.02 3.67 -2.04 3.34 0 3 C0 2.01 0 1.02 0 0 Z " fill="#213F43" transform="translate(57,36)"/>
<path d="M0 0 C3.35595828 0.59927826 5.37801226 1.84622436 8 4 C7.67 4.66 7.34 5.32 7 6 C6.01 5.34 5.02 4.68 4 4 C5.32 7.3 6.64 10.6 8 14 C7.34 14 6.68 14 6 14 C5.71125 14.969375 5.4225 15.93875 5.125 16.9375 C4 20 4 20 2 21 C2.165 20.175 2.33 19.35 2.5 18.5 C3.66065408 10.91497977 3.66065408 10.91497977 1 4 C1.66 4 2.32 4 3 4 C2.34 3.34 1.68 2.68 1 2 C0.01 2.495 0.01 2.495 -1 3 C-0.67 2.01 -0.34 1.02 0 0 Z " fill="#6D5864" transform="translate(9,9)"/>
<path d="M0 0 C0.33 0 0.66 0 1 0 C0.97679687 1.01320313 0.95359375 2.02640625 0.9296875 3.0703125 C0.9109159 4.42186758 0.8927172 5.77343069 0.875 7.125 C0.85824219 7.79015625 0.84148438 8.4553125 0.82421875 9.140625 C0.78125317 13.52311396 1.49560574 16.9099281 3 21 C3.125 24.375 3.125 24.375 3 27 C3.99 27.33 4.98 27.66 6 28 C6 28.66 6 29.32 6 30 C4.68 30 3.36 30 2 30 C1.505 32.475 1.505 32.475 1 35 C-0.18439892 31.17880058 0.27652987 28.29365047 0.94140625 24.4140625 C1.13998109 21.87719571 1.13998109 21.87719571 0.0390625 19.12890625 C-1.10781325 15.67534432 -1.23384341 12.93992517 -1.1875 9.3125 C-1.18105469 8.19488281 -1.17460938 7.07726562 -1.16796875 5.92578125 C-1 3 -1 3 0 0 Z " fill="#0B2724" transform="translate(7,12)"/>
<path d="M0 0 C2.7343066 2.7343066 2.95340665 4.76993555 3.09765625 8.578125 C3.08605469 9.45984375 3.07445312 10.3415625 3.0625 11.25 C3.05347656 12.14203125 3.04445313 13.0340625 3.03515625 13.953125 C3.02355469 14.62859375 3.01195312 15.3040625 3 16 C0.53626018 13.83325896 -0.46983813 12.25824215 -1.1875 9.0625 C-1.42533203 8.05896484 -1.42533203 8.05896484 -1.66796875 7.03515625 C-2 5 -2 5 -2 1 C-1.34 0.67 -0.68 0.34 0 0 Z " fill="#F3C7D9" transform="translate(50,12)"/>
<path d="M0 0 C-2.14926381 2.39105598 -3.99036913 3.63278854 -7 4.75 C-7.680625 5.01296875 -8.36125 5.2759375 -9.0625 5.546875 C-11 6 -11 6 -14 5 C-9.15144747 0.82485754 -6.3124233 -0.17534509 0 0 Z " fill="#324848" transform="translate(46,56)"/>
<path d="M0 0 C0.66 0.33 1.32 0.66 2 1 C1.67 1.99 1.34 2.98 1 4 C1.66 4 2.32 4 3 4 C3.33 3.01 3.66 2.02 4 1 C5 2 5 2 5.0625 4.5625 C5.041875 5.366875 5.02125 6.17125 5 7 C3.35 7.33 1.7 7.66 0 8 C-0.38063221 5.6739143 -0.71269945 3.33944736 -1 1 C-0.67 0.67 -0.34 0.34 0 0 Z " fill="#0F2F2A" transform="translate(40,35)"/>
<path d="M0 0 C2.475 0.495 2.475 0.495 5 1 C5.12375 1.639375 5.2475 2.27875 5.375 2.9375 C5.684375 3.9584375 5.684375 3.9584375 6 5 C6.66 5.33 7.32 5.66 8 6 C7.67 7.32 7.34 8.64 7 10 C7 9.01 7 8.02 7 7 C5.35 7.33 3.7 7.66 2 8 C1.34 5.36 0.68 2.72 0 0 Z " fill="#86B7C7" transform="translate(16,16)"/>
<path d="M0 0 C0 0.99 0 1.98 0 3 C-1.01320313 3.19916016 -1.01320313 3.19916016 -2.046875 3.40234375 C-3.38492188 3.66724609 -3.38492188 3.66724609 -4.75 3.9375 C-5.63171875 4.11152344 -6.5134375 4.28554688 -7.421875 4.46484375 C-9.63235053 4.92368488 -11.81512068 5.43336074 -14 6 C-14 5.01 -14 4.02 -14 3 C-12.60974609 2.80083984 -12.60974609 2.80083984 -11.19140625 2.59765625 C-9.99386719 2.42105469 -8.79632813 2.24445312 -7.5625 2.0625 C-6.36753906 1.88847656 -5.17257813 1.71445312 -3.94140625 1.53515625 C-1.12044324 1.31014787 -1.12044324 1.31014787 0 0 Z " fill="#1D3F40" transform="translate(36,16)"/>
<path d="M0 0 C3.3 0 6.6 0 10 0 C8.68 1.65 7.36 3.3 6 5 C2.83884224 3.63016497 2.0072908 3.0109362 0 0 Z " fill="#F9FBFB" transform="translate(26,57)"/>
<path d="M0 0 C2.0625 0.4375 2.0625 0.4375 4 1 C4 2.65 4 4.3 4 6 C2.68 6.33 1.36 6.66 0 7 C-0.38133299 5.0085944 -0.71325582 3.00720923 -1 1 C-0.67 0.67 -0.34 0.34 0 0 Z " fill="#213E39" transform="translate(17,39)"/>
<path d="M0 0 C1.5625 1.75 1.5625 1.75 3 4 C2.6875 6.25 2.6875 6.25 2 8 C0.35 8 -1.3 8 -3 8 C-2.37240135 5.07120629 -1.41377341 2.63904371 0 0 Z " fill="#3B555C" transform="translate(54,28)"/>
<path d="M0 0 C1.4606285 2.64738916 2 3.89448334 2 7 C2.99 7 3.98 7 5 7 C5 7.99 5 8.98 5 10 C5.66 10 6.32 10 7 10 C6.67 10.66 6.34 11.32 6 12 C5.01 11.34 4.02 10.68 3 10 C3.33 9.34 3.66 8.68 4 8 C3.01 8.33 2.02 8.66 1 9 C1 7.68 1 6.36 1 5 C-0.32 5.33 -1.64 5.66 -3 6 C-1.125 1.125 -1.125 1.125 0 0 Z " fill="#5F737A" transform="translate(40,10)"/>
<path d="M0 0 C0.99 0.33 1.98 0.66 3 1 C3 1.66 3 2.32 3 3 C3.33 3.99 3.66 4.98 4 6 C1.03 5.01 -1.94 4.02 -5 3 C-4.67 2.34 -4.34 1.68 -4 1 C-2.02 1.495 -2.02 1.495 0 2 C0 1.34 0 0.68 0 0 Z " fill="#294443" transform="translate(25,56)"/>
<path d="M0 0 C0.103125 0.639375 0.20625 1.27875 0.3125 1.9375 C0.539375 2.618125 0.76625 3.29875 1 4 C1.99 4.33 2.98 4.66 4 5 C4 5.66 4 6.32 4 7 C2.68 7 1.36 7 0 7 C-0.33 8.65 -0.66 10.3 -1 12 C-2.45606519 7.47907032 -1.27032841 4.48351204 0 0 Z " fill="#5D706F" transform="translate(9,35)"/>
<path d="M0 0 C0 0.99 0 1.98 0 3 C-1.98 3.33 -3.96 3.66 -6 4 C-6 2.68 -6 1.36 -6 0 C-3 -1 -3 -1 0 0 Z " fill="#99D5E9" transform="translate(57,36)"/>
<path d="M0 0 C1.32 0 2.64 0 4 0 C4.33 1.32 4.66 2.64 5 4 C3.68 4 2.36 4 1 4 C-0.67225729 4.30404678 -2.34080104 4.63128912 -4 5 C-2.25 2.5 -2.25 2.5 0 0 Z " fill="#557375" transform="translate(45,5)"/>
<path d="M0 0 C2.97 0.33 5.94 0.66 9 1 C9 1.66 9 2.32 9 3 C7.02 3 5.04 3 3 3 C3 3.99 3 4.98 3 6 C2.34 6 1.68 6 1 6 C0.67 4.02 0.34 2.04 0 0 Z " fill="#0D2C29" transform="translate(16,55)"/>
<path d="M0 0 C1.32 0.33 2.64 0.66 4 1 C3.67 3.97 3.34 6.94 3 10 C1.19669467 6.39338934 0.53400897 3.91606575 0 0 Z " fill="#A5B0B6" transform="translate(25,20)"/>
<path d="M0 0 C0.33 0.99 0.66 1.98 1 3 C-1.31 3.66 -3.62 4.32 -6 5 C-6 4.01 -6 3.02 -6 2 C-2.25 0 -2.25 0 0 0 Z " fill="#082420" transform="translate(58,46)"/>
</svg>
