<svg xmlns="http://www.w3.org/2000/svg" width="400" height="400" fill="none" xmlns:v="https://vecta.io/nano"><circle cx="200" cy="200" r="200" fill="#000"/><g clip-path="url(#A)" fill="#fff"><path d="M118.644 59.874l80.845 94.632 54.266-31.891s-65.471-87.472-82.93-81.29c-16.417 6.248-52.181 18.549-52.181 18.549zm137.13 62.741s12.312-21.608 18.436-50.44c0 0 61.432 24.667 37.849 86.432l-56.285-35.992z"/><path d="M312.06 158.672l5.146 64.823 23.517-3.059s6.124-2.082 5.147-13.342l-3.062-38.074s1.042-6.183-13.29-8.2c-17.458-3.19-17.458-2.148-17.458-2.148z"/><path d="M317.141 223.495l-47.1 38.074 21.498 42.175s5.146 16.466 20.455-2.083c14.332-18.549 20.456-21.608 19.414-32.932-.912-11.325-4.039-38.074-14.267-45.234zm-48.077 38.009l-64.494-28.832-56.285 114.222s-4.105 8.201 10.227 9.242c14.332 2.083 37.85 7.225 50.162-5.141 12.312-11.26 60.39-89.491 60.39-89.491z"/><path d="M204.57 231.696l-6.124-76.148-139.215 9.307s-8.208 1.041-7.166 16.466c1.042 20.566 3.062 43.216 3.062 43.216s-1.042 9.241 17.394 10.283c18.436.976 130.029.976 132.049-3.124z"/></g><defs><clipPath id="A"><path fill="#fff" transform="translate(52 41)" d="M0 0h294v318H0z"/></clipPath></defs></svg>