<?xml version="1.0" encoding="UTF-8"?>
<svg version="1.1" xmlns="http://www.w3.org/2000/svg" width="200" height="200">
<path d="M0 0 C1.25296875 0.4125 2.5059375 0.825 3.796875 1.25 C28.74462541 10.06760046 48.21993996 28.50355897 60.08447266 52.01074219 C70.70512729 75.08730057 73.09510894 102.81586203 65 127 C64.5875 128.25296875 64.175 129.5059375 63.75 130.796875 C54.93239954 155.74462541 36.49644103 175.21993996 12.98925781 187.08447266 C-10.08730057 197.70512729 -37.81586203 200.09510894 -62 192 C-63.87945312 191.38125 -63.87945312 191.38125 -65.796875 190.75 C-90.74462541 181.93239954 -110.21993996 163.49644103 -122.08447266 139.98925781 C-132.70512729 116.91269943 -135.09510894 89.18413797 -127 65 C-126.5875 63.74703125 -126.175 62.4940625 -125.75 61.203125 C-116.93239954 36.25537459 -98.49644103 16.78006004 -74.98925781 4.91552734 C-51.91269943 -5.70512729 -24.18413797 -8.09510894 0 0 Z " fill="#0645F7" transform="translate(131,4)"/>
<path d="M0 0 C2 2 2 2 2.34375 4.45263672 C2 7 2 7 0.53125 8.48095703 C-0.1390625 8.90231934 -0.809375 9.32368164 -1.5 9.7578125 C-9.31638612 15.41040899 -14.34525699 21.17407398 -15.9765625 30.921875 C-17.28783474 41.35538174 -17.74924628 53.1266081 -11.39404297 62.02636719 C-5.83899199 68.89160675 0.85907476 74.85578687 7.92323303 80.13644409 C11.07052553 82.60708652 11.96498477 83.8446987 12.86157227 87.82128906 C12.90725342 88.87026367 12.95293457 89.91923828 13 91 C10 93 10 93 7.73730469 93.02319336 C3.65429526 91.49698104 1.20604606 88.71867194 -1.796875 85.62890625 C-2.43111389 84.99137924 -3.06535278 84.35385223 -3.71881104 83.69700623 C-5.0546859 82.35072539 -6.38579041 80.99969647 -7.71240234 79.64428711 C-9.74772723 77.56482206 -11.79617677 75.49906498 -13.84765625 73.43554688 C-15.14400961 72.12577199 -16.439609 70.81525033 -17.734375 69.50390625 C-18.65461456 68.57258629 -18.65461456 68.57258629 -19.59344482 67.62245178 C-28.27637549 58.74205502 -26.3520617 44.22171968 -26.29669189 32.31285095 C-26.05276686 22.95526922 -25.20866322 16.71221833 -18.6574707 9.66210938 C-7.05581283 -0.52918596 -7.05581283 -0.52918596 0 0 Z " fill="#F4F7FE" transform="translate(148,59)"/>
<path d="M0 0 C1.35715622 -0.01429047 1.35715622 -0.01429047 2.74172974 -0.02886963 C4.64955869 -0.04099718 6.55750807 -0.04023228 8.46533203 -0.02734375 C11.36837099 -0.01568301 14.26556671 -0.06788742 17.16796875 -0.125 C32.63751058 -0.24690953 32.63751058 -0.24690953 37.078125 3.55859375 C38.24670151 4.92930994 39.38710289 6.32425305 40.5078125 7.734375 C41.91683713 9.09206171 43.32743449 10.44839154 44.76022339 11.78097534 C46.8552412 13.73796729 48.89506128 15.74842479 50.93798828 17.75952148 C51.99276236 18.79247831 53.05376567 19.81910904 54.12060547 20.83959961 C55.68103209 22.33320516 57.2209187 23.84551676 58.7578125 25.36328125 C60.12679687 26.6946814 60.12679687 26.6946814 61.5234375 28.05297852 C63.5078125 30.734375 63.5078125 30.734375 63.9296875 33.94506836 C63.5078125 36.734375 63.5078125 36.734375 61.5078125 38.734375 C57.44758833 38.71498688 55.90457644 38.13172093 53.01123047 35.23413086 C52.16421531 34.14682972 51.32771806 33.05128102 50.5 31.94921875 C38.10750286 16.56736753 38.10750286 16.56736753 20.31640625 9.484375 C9.62671439 8.49457087 -3.01210765 8.47727851 -11.91015625 15.140625 C-15.19638616 18.1780409 -17.66221861 21.5603563 -20.17871094 25.23779297 C-21.4921875 26.734375 -21.4921875 26.734375 -24.71875 27.83203125 C-27.4921875 27.734375 -27.4921875 27.734375 -29.4921875 25.734375 C-29.50841095 21.28914886 -28.7340829 18.60088189 -25.76171875 15.3828125 C-24.62450496 14.27590684 -23.4715924 13.18493453 -22.3046875 12.109375 C-21.73943359 11.5628125 -21.17417969 11.01625 -20.59179688 10.453125 C-18.91573102 8.84809515 -17.22778182 7.27504838 -15.4921875 5.734375 C-14.62795166 4.86087402 -13.76371582 3.98737305 -12.87329102 3.08740234 C-8.91322291 -0.17253329 -4.95704532 -0.02210667 0 0 Z " fill="#F4F6FE" transform="translate(87.4921875,122.265625)"/>
<path d="M0 0 C3.76777729 0.7219693 3.98382423 1.15734841 6.1171875 4.125 C11.27039692 11.27587332 16.35776558 16.53076744 25.3104248 17.98925781 C36.55939454 19.30997454 50.5102908 20.28107484 59.875 13 C63.34506694 9.69920462 66.0490905 6.00919826 68.83837891 2.13671875 C70.26171875 0.625 70.26171875 0.625 73.5234375 -0.0625 C76.26171875 0.625 76.26171875 0.625 78.26171875 3.625 C77.49528222 11.33919863 69.79007859 18.34671796 64.390625 23.234375 C53.6711125 31.65446832 38.15925022 30.79582596 25.23828125 29.63671875 C13.97150012 28.24187879 7.66597808 23.71213816 0.23828125 15.18359375 C-4.59015708 8.92114554 -4.59015708 8.92114554 -5.04443359 4.94604492 C-4.57987205 1.42404602 -3.37877941 0.77119074 0 0 Z " fill="#F6F8FE" transform="translate(62.73828125,48.375)"/>
<path d="M0 0 C7.68728993 1.21242492 13.3855704 6.87199196 18.4453125 12.49609375 C24.64416184 21.28811942 24.23712415 31.32038416 24.1171875 41.73828125 C24.1123233 43.17924667 24.1123233 43.17924667 24.10736084 44.64932251 C23.90314684 62.06180935 23.90314684 62.06180935 19.30078125 67.44140625 C18.06282235 68.51537703 16.79342394 69.55441826 15.4921875 70.55078125 C14.37450921 71.68602398 13.26866374 72.83305477 12.17578125 73.9921875 C11.09768722 75.03663154 10.01568826 76.07706098 8.9296875 77.11328125 C8.12241211 77.93022461 8.12241211 77.93022461 7.29882812 78.76367188 C5.67578125 80.3046875 5.67578125 80.3046875 2.4921875 82.55078125 C-0.91015625 82.390625 -0.91015625 82.390625 -3.5078125 81.55078125 C-4.53125 78.96875 -4.53125 78.96875 -4.5078125 75.55078125 C-3.01269531 74.02587891 -3.01269531 74.02587891 -0.921875 72.4765625 C5.65509467 67.59758899 11.95451162 62.84018477 13.39990234 54.33691406 C14.58472854 44.14904051 14.10992176 33.76585185 13.4921875 23.55078125 C12.89817139 23.27911133 12.30415527 23.00744141 11.69213867 22.72753906 C8.17531877 20.84638581 5.6209197 18.08894469 2.8046875 15.30078125 C2.21107422 14.74003906 1.61746094 14.17929688 1.00585938 13.6015625 C-1.79685806 10.83399887 -3.34399793 9.08051112 -4.52734375 5.25390625 C-4.50065805 1.56060471 -3.55638705 0.78107566 0 0 Z " fill="#F8FAFE" transform="translate(52.5078125,58.44921875)"/>
<path d="M0 0 C0.8046875 3.1953125 0.8046875 3.1953125 1 7 C-1.0546875 9.5546875 -1.0546875 9.5546875 -3.875 11.875 C-7.50345199 15.17912108 -9.65521829 17.14531391 -10.125 22.125 C-10.08375 23.40375 -10.0425 24.6825 -10 26 C-13.3 26 -16.6 26 -20 26 C-20.97661919 20.89987758 -21.76866338 15.66723048 -18.75634766 11.12451172 C-7.68084536 -1.81914759 -7.68084536 -1.81914759 0 0 Z " fill="#F0F4FE" transform="translate(157,72)"/>
<path d="M0 0 C0 3.3 0 6.6 0 10 C-1.44375 9.95875 -2.8875 9.9175 -4.375 9.875 C-9.64013223 10.32246166 -11.72551568 12.28984685 -15.25 16.125 C-16.01828125 17.05570313 -16.7865625 17.98640625 -17.578125 18.9453125 C-20 21 -20 21 -23.296875 20.8046875 C-24.18890625 20.53914063 -25.0809375 20.27359375 -26 20 C-26.9375 17.5 -26.9375 17.5 -27 14 C-25.05974849 10.93452426 -22.58082986 8.53061917 -20 6 C-19.48179688 5.3915625 -18.96359375 4.783125 -18.4296875 4.15625 C-13.20754914 -1.40703307 -7.19964293 -0.58463266 0 0 Z " fill="#F1F4FE" transform="translate(98,137)"/>
<path d="M0 0 C3.3 0 6.6 0 10 0 C9.979375 1.485 9.95875 2.97 9.9375 4.5 C10.25116976 8.03002955 10.60146435 9.56933672 13.03515625 12.19921875 C14.66699382 13.51555048 16.31019075 14.81793369 17.96484375 16.10546875 C20.15409163 18.14344422 20.69433077 19.08386596 21.0625 22 C21.041875 22.99 21.02125 23.98 21 25 C18 27 18 27 15.73828125 26.984375 C9.36903548 24.69471746 3.59678638 18.64348712 0 13 C-1.02613603 8.4346448 -0.87658551 4.57772433 0 0 Z " fill="#F0F4FE" transform="translate(137,102)"/>
<path d="M0 0 C5.21453998 -1.09141534 10.32155713 -1.74115218 14.98974609 1.29345703 C17.04987749 2.99886382 18.93805867 4.78014826 20.8125 6.6875 C21.42883301 7.31221191 22.04516602 7.93692383 22.68017578 8.58056641 C25.19307664 11.3196355 26.82658909 13.14474209 27.57421875 16.83203125 C27 19 27 19 24 21 C20.64631824 20.87038911 19.32580012 20.31431551 16.89453125 17.96875 C16.20746094 17.1540625 15.52039063 16.339375 14.8125 15.5 C11.44397644 11.92165258 9.37374215 10.3779862 4.4375 9.9375 C2.2409375 9.9684375 2.2409375 9.9684375 0 10 C0 6.7 0 3.4 0 0 Z " fill="#F4F7FE" transform="translate(102,137)"/>
<path d="M0 0 C3.3 0 6.6 0 10 0 C11.09368478 5.22538282 11.7144503 10.3077363 8.72265625 15.00585938 C7.03694193 17.08571553 5.2707975 18.98501634 3.375 20.875 C2.75866699 21.49971191 2.14233398 22.12442383 1.50732422 22.76806641 C-3.08866748 27.03085776 -3.08866748 27.03085776 -7.4609375 26.8828125 C-8.29882812 26.59148437 -9.13671875 26.30015625 -10 26 C-10.8046875 23.296875 -10.8046875 23.296875 -11 20 C-8.9453125 17.578125 -8.9453125 17.578125 -6.125 15.25 C-2.28984685 11.72551568 -0.32246166 9.64013223 0.125 4.375 C0.063125 2.209375 0.063125 2.209375 0 0 Z " fill="#F3F6FE" transform="translate(51,102)"/>
<path d="M0 0 C5.94857464 0.04226341 9.61494598 4.61025258 13.59448242 8.48510742 C17.47272799 12.60584859 18.86386984 15.46275969 18.8125 21.3125 C18.45703125 24.61328125 18.45703125 24.61328125 18 27 C14.7 27 11.4 27 8 27 C8 25.494375 8 23.98875 8 22.4375 C7.58209053 17.89836026 6.54290374 15.99535378 3.0625 13.0625 C2.35222656 12.53785156 1.64195313 12.01320313 0.91015625 11.47265625 C-1 10 -1 10 -3 7 C-2.6758631 3.67759676 -2.39223697 2.39223697 0 0 Z " fill="#F5F7FE" transform="translate(43,71)"/>
<path d="M0 0 C5.24491895 0.87231284 8.71538619 5.11188012 11.875 9.125 C11.875 9.785 11.875 10.445 11.875 11.125 C15.175 11.125 18.475 11.125 21.875 11.125 C21.875 14.095 21.875 17.065 21.875 20.125 C16.40624588 21.08428671 10.83540399 21.94999848 5.93603516 18.9296875 C3.99538201 17.36148294 2.2434185 15.72199189 0.5 13.9375 C-0.06485107 13.36040283 -0.62970215 12.78330566 -1.21166992 12.1887207 C-3.59648561 9.54443469 -4.99598162 7.88324739 -5.6015625 4.32421875 C-4.80400641 0.64369353 -3.69621571 0.14784863 0 0 Z " fill="#F5F8FE" transform="translate(76.125,40.875)"/>
<path d="M0 0 C2 2 2 2 2.48046875 4.19921875 C1.74715645 8.47389289 -0.70336436 10.7843992 -3.6875 13.8125 C-4.26459717 14.4005542 -4.84169434 14.9886084 -5.4362793 15.59448242 C-9.57513422 19.46028595 -12.46102642 20.86394153 -18.3125 20.8125 C-21.61328125 20.45703125 -21.61328125 20.45703125 -24 20 C-24 17.03 -24 14.06 -24 11 C-21.03 11 -18.06 11 -15 11 C-14.34 9.68 -13.68 8.36 -13 7 C-11.23046875 5.078125 -11.23046875 5.078125 -9.1875 3.25 C-8.52105469 2.63640625 -7.85460937 2.0228125 -7.16796875 1.390625 C-4.53384007 -0.29901429 -3.07495441 -0.42693582 0 0 Z " fill="#F8F9FE" transform="translate(127,41)"/>
<path d="M0 0 C0.66 0.66 1.32 1.32 2 2 C1.44444444 6.55555556 1.44444444 6.55555556 0 8 C-2.9375 8.1875 -2.9375 8.1875 -6 8 C-6.66 7.34 -7.32 6.68 -8 6 C-7.75 2.9375 -7.75 2.9375 -7 0 C-4.29393021 -1.35303489 -2.8671629 -0.7884698 0 0 Z " fill="#EAF0FE" transform="translate(45,103)"/>
<path d="M0 0 C0.66 0.66 1.32 1.32 2 2 C1.44444444 6.55555556 1.44444444 6.55555556 0 8 C-2.9375 8.1875 -2.9375 8.1875 -6 8 C-6.66 7.34 -7.32 6.68 -8 6 C-7.75 2.9375 -7.75 2.9375 -7 0 C-4.29393021 -1.35303489 -2.8671629 -0.7884698 0 0 Z " fill="#EDF2FE" transform="translate(45,89)"/>
<path d="M0 0 C3.29714793 0.32971479 4.6226839 0.6226839 7 3 C6.44444444 7.55555556 6.44444444 7.55555556 5 9 C2.0625 9.1875 2.0625 9.1875 -1 9 C-1.66 8.34 -2.32 7.68 -3 7 C-2.67028521 3.70285207 -2.3773161 2.3773161 0 0 Z " fill="#ECF1FE" transform="translate(90,38)"/>
<path d="M0 0 C3.29714793 0.32971479 4.6226839 0.6226839 7 3 C6.44444444 7.55555556 6.44444444 7.55555556 5 9 C2.0625 9.25 2.0625 9.25 -1 9 C-3 6 -3 6 -2.75 3.9375 C-2 2 -2 2 0 0 Z " fill="#EDF2FE" transform="translate(90,152)"/>
<path d="M0 0 C2.5 0.25 2.5 0.25 4.5 2.25 C4.125 5.875 4.125 5.875 3.5 9.25 C1.19 9.25 -1.12 9.25 -3.5 9.25 C-4.125 5.875 -4.125 5.875 -4.5 2.25 C-2.5 0.25 -2.5 0.25 0 0 Z " fill="#EEF2FE" transform="translate(156.5,101.75)"/>
<path d="M0 0 C5.56818182 0.56818182 5.56818182 0.56818182 7 2 C7.1875 4.4375 7.1875 4.4375 7 7 C5 9 5 9 1.9375 9.1875 C-1 9 -1 9 -2 8 C-2.1875 5.0625 -2.1875 5.0625 -2 2 C-1.34 1.34 -0.68 0.68 0 0 Z " fill="#F0F4FE" transform="translate(104,152)"/>
<path d="M0 0 C2.9375 0.1875 2.9375 0.1875 3.9375 1.1875 C4.125 4.125 4.125 4.125 3.9375 7.1875 C3.2775 7.8475 2.6175 8.5075 1.9375 9.1875 C-1.1875 8.8125 -1.1875 8.8125 -4.0625 8.1875 C-4.6875 5.3125 -4.6875 5.3125 -5.0625 2.1875 C-3.0625 0.1875 -3.0625 0.1875 0 0 Z " fill="#EFF3FE" transform="translate(159.0625,152.8125)"/>
<path d="M0 0 C5.56818182 0.56818182 5.56818182 0.56818182 7 2 C7.1875 4.4375 7.1875 4.4375 7 7 C5 9 5 9 1.875 9.125 C0.451875 9.063125 0.451875 9.063125 -1 9 C-1.625 5.625 -1.625 5.625 -2 2 C-1.34 1.34 -0.68 0.68 0 0 Z " fill="#F3F6FE" transform="translate(154,88)"/>
<path d="M0 0 C2.61580479 0.3269756 4.64078137 0.82039068 7 2 C7.125 4.375 7.125 4.375 7 7 C5 9 5 9 1.9375 9.1875 C-1 9 -1 9 -2 8 C-2.1875 5.0625 -2.1875 5.0625 -2 2 C-1.34 1.34 -0.68 0.68 0 0 Z " fill="#F1F5FE" transform="translate(104,38)"/>
</svg>
