<?xml version="1.0" encoding="UTF-8"?>
<svg version="1.1" xmlns="http://www.w3.org/2000/svg" width="25" height="25">
<path d="M0 0 C8.25 0 16.5 0 25 0 C25 8.25 25 16.5 25 25 C16.75 25 8.5 25 0 25 C0 16.75 0 8.5 0 0 Z " fill="#F9FAFB" transform="translate(0,0)"/>
<path d="M0 0 C3 2.3125 3 2.3125 5 5 C4.8125 7.3125 4.8125 7.3125 4 9 C3.505 8.195625 3.01 7.39125 2.5 6.5625 C-0.95695939 3.01911662 -3.14788209 3.2426059 -8 3 C-8 3.66 -8 4.32 -8 5 C-8.99 5.33 -9.98 5.66 -11 6 C-11 6.66 -11 7.32 -11 8 C-10.11248047 7.69642578 -10.11248047 7.69642578 -9.20703125 7.38671875 C-6.75072026 6.66945991 -4.55763633 6.14517468 -2 6 C1.125 8.0625 1.125 8.0625 3 11 C3 13.91188084 2.39403397 15.36516749 0.875 17.8125 C-2.16168451 19.73573352 -4.49715009 19.42275775 -8 19 C-10.75329021 17.20437595 -12.52627461 15.94745078 -14 13 C-14.70153846 5.86769231 -14.70153846 5.86769231 -11.625 2.0625 C-7.32198817 -1.31843787 -5.37649402 -1.27577824 0 0 Z " fill="#7BA0D0" transform="translate(17,4)"/>
<path d="M0 0 C1.875 1.75 1.875 1.75 3 4 C2.86411634 6.78561509 2.34074134 8.45102784 0.875 10.8125 C-2.16168451 12.73573352 -4.49715009 12.42275775 -8 12 C-10.9375 10 -10.9375 10 -13 8 C-12.67 7.01 -12.34 6.02 -12 5 C-11.67 5.33 -11.34 5.66 -11 6 C-9.00041636 6.04080783 -6.99954746 6.04254356 -5 6 C-4.67 5.01 -4.34 4.02 -4 3 C-6.97 2.505 -6.97 2.505 -10 2 C-9 0 -9 0 -7.25 -0.6875 C-4.48327849 -1.07176688 -2.6554311 -0.8851437 0 0 Z " fill="#3B4476" transform="translate(17,11)"/>
<path d="M0 0 C3.3 0.33 6.6 0.66 10 1 C10 2.32 10 3.64 10 5 C9 6 9 6 6.125 6.125 C3 6 3 6 0 5 C0 3.35 0 1.7 0 0 Z " fill="#4E7DB7" transform="translate(3,12)"/>
<path d="M0 0 C0.33 0.66 0.66 1.32 1 2 C1.66 2 2.32 2 3 2 C1.125 5.875 1.125 5.875 0 7 C-5.73611111 7.27314815 -5.73611111 7.27314815 -8 7 C-8.66 6.34 -9.32 5.68 -10 5 C-9.67 4.01 -9.34 3.02 -9 2 C-8.67 2.33 -8.34 2.66 -8 3 C-5.04195427 3.33340471 -5.04195427 3.33340471 -2 3 C-1.34 2.01 -0.68 1.02 0 0 Z " fill="#1D254B" transform="translate(14,14)"/>
<path d="M0 0 C0.66 0.66 1.32 1.32 2 2 C-1.0469629 3.69433918 -3.82821466 4.49467112 -7.25 5.125 C-8.58804687 5.37636719 -8.58804687 5.37636719 -9.953125 5.6328125 C-10.62859375 5.75398437 -11.3040625 5.87515625 -12 6 C-11.67 4.68 -11.34 3.36 -11 2 C-10.01 2 -9.02 2 -8 2 C-8 1.34 -8 0.68 -8 0 C-5.09288879 -1.4535556 -3.10402897 -0.71133997 0 0 Z " fill="#D6DEE8" transform="translate(17,7)"/>
<path d="M0 0 C2.4375 1.125 2.4375 1.125 5 3 C5.8125 6.1875 5.8125 6.1875 6 9 C4.88625 7.7934375 4.88625 7.7934375 3.75 6.5625 C1.24695171 4.23011409 0.2819045 3.36465606 -3 3 C-2.01 2.67 -1.02 2.34 0 2 C0 1.34 0 0.68 0 0 Z " fill="#7494BD" transform="translate(16,4)"/>
<path d="M0 0 C1.65 0 3.3 0 5 0 C5.33 0.99 5.66 1.98 6 3 C3.69 2.67 1.38 2.34 -1 2 C-0.67 1.34 -0.34 0.68 0 0 Z " fill="#89AAD2" transform="translate(10,3)"/>
</svg>
