<?xml version="1.0" encoding="UTF-8"?>
<svg version="1.1" xmlns="http://www.w3.org/2000/svg" width="64" height="64">
<path d="M0 0 C6.47496935 5.28699977 10.89385341 12.01682002 12.48828125 20.3046875 C13.45098895 30.92603642 11.69688696 39.81059549 4.86328125 48.1796875 C-1.65304959 54.98888714 -9.73881 58.38100539 -19.07421875 58.6171875 C-28.91069917 58.48555577 -36.45265729 55.40153127 -43.56640625 48.59375 C-49.91613191 41.12198447 -51.90948271 33.11373067 -51.78125 23.53125 C-50.98490145 13.99815002 -46.7695639 6.47261734 -39.51171875 0.3046875 C-27.03890251 -7.52359656 -12.53369022 -8.45975359 0 0 Z " fill="#5455FE" transform="translate(51.51171875,5.6953125)"/>
<path d="M0 0 C-0.47656412 1.79236067 -0.95633498 3.58386897 -1.4375 5.375 C-1.70433594 6.37273438 -1.97117188 7.37046875 -2.24609375 8.3984375 C-3 11 -3 11 -4 13 C-4.66 13 -5.32 13 -6 13 C-6 13.66 -6 14.32 -6 15 C-6.69867188 15.13535156 -7.39734375 15.27070313 -8.1171875 15.41015625 C-9.02726562 15.62542969 -9.93734375 15.84070313 -10.875 16.0625 C-12.23238281 16.35833984 -12.23238281 16.35833984 -13.6171875 16.66015625 C-16.3102796 17.85509462 -16.3102796 17.85509462 -17.3125 21.09375 C-18.0531283 25.30186536 -18.22622607 29.18211156 -18.125 33.4375 C-18.11597656 34.16904297 -18.10695313 34.90058594 -18.09765625 35.65429688 C-18.07436153 37.43634298 -18.0385019 39.21821759 -18 41 C-19.65 41 -21.3 41 -23 41 C-24.23121518 35.91288612 -23.98706623 31.06317936 -23.83984375 25.86328125 C-23.68835824 22.86729958 -23.68835824 22.86729958 -26 21 C-26.99 21.66 -27.98 22.32 -29 23 C-32.34419623 23.07431547 -34.26325997 22.69831595 -36.72265625 20.3671875 C-38.21792134 18.62094411 -39.63716097 16.85094804 -41 15 C-38 13 -38 13 -35.94921875 13.06640625 C-30.34775548 14.29505191 -26.98387491 15.81693134 -23 20 C-22.125 22.3125 -22.125 22.3125 -22 24 C-21.34 24 -20.68 24 -20 24 C-19.87882812 23.13375 -19.75765625 22.2675 -19.6328125 21.375 C-18.12304839 13.32292474 -15.25443985 6.05487582 -8.6484375 0.98828125 C-5.41160731 -0.95228282 -3.49952885 -1.08606068 0 0 Z " fill="#53D855" transform="translate(51,13)"/>
</svg>
