<svg xmlns="http://www.w3.org/2000/svg" width="256" height="256" fill="none"><circle cx="128" cy="128" r="128" fill="#141B34"/><path fill="url(#a)" d="M210.4 102v74.2L128 224l-82.4-47.7V80.8L128 33l63.3 36.6 9.6-5.5L128 22 36 75.3v106.4l92 53.3 92-53.3V96.4l-9.6 5.5Z"/><path fill="url(#b)" d="M104.7 177H91v-46.2h45.7a16.4 16.4 0 0 0 0-32.8H91V84h45.7a30.4 30.4 0 0 1 11.8 58.4A52.6 52.6 0 0 1 132 145h-27.4V177Z"/><path fill="url(#c)" d="M167 176h-16.4L138 153.1c5-.3 10-1.4 14.6-3.1l14.4 26Z"/><path fill="url(#d)" d="m200 86.5 10 5.5 10-5.5V74.8L210 69l-10 5.8v11.7Z"/><defs><linearGradient id="a" x1="219.8" x2="24.6" y1="75.3" y2="153.2" gradientUnits="userSpaceOnUse"><stop stop-color="#C200FB"/><stop offset=".5" stop-color="#3772FF"/><stop offset="1" stop-color="#5AC4BE"/></linearGradient><linearGradient id="b" x1="219" x2="24.8" y1="76.5" y2="153.9" gradientUnits="userSpaceOnUse"><stop stop-color="#C200FB"/><stop offset=".5" stop-color="#3772FF"/><stop offset="1" stop-color="#5AC4BE"/></linearGradient><linearGradient id="c" x1="220.5" x2="19.9" y1="70.7" y2="148" gradientUnits="userSpaceOnUse"><stop stop-color="#C200FB"/><stop offset=".5" stop-color="#3772FF"/><stop offset="1" stop-color="#5AC4BE"/></linearGradient><linearGradient id="d" x1="220" x2="15.2" y1="74.8" y2="157" gradientUnits="userSpaceOnUse"><stop stop-color="#C200FB"/><stop offset=".5" stop-color="#3772FF"/><stop offset="1" stop-color="#5AC4BE"/></linearGradient></defs></svg>