<?xml version="1.0" encoding="UTF-8"?>
<svg version="1.1" xmlns="http://www.w3.org/2000/svg" width="200" height="200">
<path d="M0 0 C0.81855469 0.20496094 1.63710937 0.40992188 2.48046875 0.62109375 C13.30516146 3.79554826 25.11700202 10.12927299 34 17 C34 17.66 34 18.32 34 19 C34.804375 19.3403125 34.804375 19.3403125 35.625 19.6875 C41.36532496 22.85978485 46.21077089 27.66551789 50 33 C50 33.66 50 34.32 50 35 C50.66 35 51.32 35 52 35 C69.33671402 56.67089253 74.49885053 84.44233104 71.74511719 111.50488281 C71.113645 116.07767984 70.15159972 120.52750806 69 125 C68.69255859 126.22783203 68.69255859 126.22783203 68.37890625 127.48046875 C65.20445174 138.30516146 58.87072701 150.11700202 52 159 C51.34 159 50.68 159 50 159 C49.6596875 159.804375 49.6596875 159.804375 49.3125 160.625 C46.14021515 166.36532496 41.33448211 171.21077089 36 175 C35.34 175 34.68 175 34 175 C34 175.66 34 176.32 34 177 C12.17499242 194.46000606 -15.21441934 199.52204154 -42.50488281 196.74511719 C-47.07767984 196.113645 -51.52750806 195.15159972 -56 194 C-57.22783203 193.69255859 -57.22783203 193.69255859 -58.48046875 193.37890625 C-69.30516146 190.20445174 -81.11700202 183.87072701 -90 177 C-90 176.34 -90 175.68 -90 175 C-90.804375 174.6596875 -90.804375 174.6596875 -91.625 174.3125 C-97.36532496 171.14021515 -102.21077089 166.33448211 -106 161 C-106 160.34 -106 159.68 -106 159 C-106.66 159 -107.32 159 -108 159 C-125.46000606 137.17499242 -130.52204154 109.78558066 -127.74511719 82.49511719 C-127.113645 77.92232016 -126.15159972 73.47249194 -125 69 C-124.69255859 67.77216797 -124.69255859 67.77216797 -124.37890625 66.51953125 C-121.20445174 55.69483854 -114.87072701 43.88299798 -108 35 C-107.34 35 -106.68 35 -106 35 C-106 34.01 -106 33.02 -106 32 C-104.35648543 30.63823078 -102.68477344 29.31037934 -101 28 C-99.25010413 26.06133985 -97.64330509 24.03250892 -96 22 C-94.375 20.125 -94.375 20.125 -93 19 C-92.01 19 -91.02 19 -90 19 C-90 18.34 -90 17.68 -90 17 C-65.02891391 -2.97686887 -30.46884219 -7.84527074 0 0 Z " fill="#A90FE4" transform="translate(128,3)"/>
<path d="M0 0 C0.69996094 0.29003906 1.39992188 0.58007812 2.12109375 0.87890625 C10.10423148 4.48565468 16.26629045 9.99258158 20 18 C22.29774421 26.6055643 22.35621817 37.4702038 18.515625 45.59765625 C10.10945154 58.92187449 -2.41767189 66.88581858 -17 72 C-19.75844317 72.61298737 -22.16978272 72.88679131 -25 73 C-23.10467634 82.52649523 -20.27896868 92.09879504 -13.25 99.1875 C-8.67972454 101.73630747 -5.11690562 101.81900545 0 101 C5.8323133 99.3324155 10.41591255 97.01107652 15 93 C15.66 93 16.32 93 17 93 C17.2475 92.401875 17.495 91.80375 17.75 91.1875 C19.20864875 88.63486469 20.43626682 87.43267442 23 86 C25.25 86.3125 25.25 86.3125 27 87 C28.01911045 90.89114901 28.16782969 92.60596507 26.5625 96.375 C26.046875 97.24125 25.53125 98.1075 25 99 C24.34 99 23.68 99 23 99 C22.74605469 99.598125 22.49210937 100.19625 22.23046875 100.8125 C18.62230115 107.22702017 9.46827788 111.61268885 2.875 114.25 C-3.83801612 115.54929344 -10.82513686 116.05828771 -17.375 113.875 C-24.62925852 108.69338677 -24.62925852 108.69338677 -27 106 C-27 105.01 -27 104.02 -27 103 C-27.99 102.67 -28.98 102.34 -30 102 C-31.46484375 99.62890625 -31.46484375 99.62890625 -32.9375 96.5625 C-33.45699219 95.48097656 -33.97648437 94.39945312 -34.51171875 93.28515625 C-36.17384748 89.61625793 -37.71002734 85.92098067 -39.140625 82.15625 C-39.98559309 80.03614824 -40.95043599 78.0254744 -42 76 C-42.37511719 77.08796875 -42.75023437 78.1759375 -43.13671875 79.296875 C-51.82103813 104.31605359 -51.82103813 104.31605359 -58 113 C-58.66 113 -59.32 113 -60 113 C-60 113.66 -60 114.32 -60 115 C-62.4441794 116.2220897 -64.21029872 116.23641068 -66.9375 116.3125 C-68.25041016 116.36857422 -68.25041016 116.36857422 -69.58984375 116.42578125 C-72 116 -72 116 -73.82421875 114.25 C-75.81802079 110.43461803 -74.90296098 107.07721614 -74 103 C-72.2640083 98.13922324 -69.81138121 93.76507232 -67.2734375 89.2890625 C-65.39671147 85.9155611 -63.70098806 82.46497567 -62 79 C-61.34 79 -60.68 79 -60 79 C-59.91105469 78.31164062 -59.82210937 77.62328125 -59.73046875 76.9140625 C-58.83752287 73.35182919 -57.1831132 70.49240146 -55.3125 67.375 C-54.58108519 66.12815865 -53.850626 64.88075627 -53.12109375 63.6328125 C-52.5794458 62.71097168 -52.5794458 62.71097168 -52.02685547 61.77050781 C-50.58942026 59.29207697 -49.2304806 56.77399836 -47.875 54.25 C-45.87779696 50.57754742 -43.84919971 46.92778839 -41.75 43.3125 C-41.27046875 42.48363281 -40.7909375 41.65476563 -40.296875 40.80078125 C-39.65492187 39.90939453 -39.65492187 39.90939453 -39 39 C-38.34 39 -37.68 39 -37 39 C-37 38.01 -37 37.02 -37 36 C-34.625 33.3125 -34.625 33.3125 -32 31 C-31.34 31 -30.68 31 -30 31 C-30 30.34 -30 29.68 -30 29 C-27.69 29 -25.38 29 -23 29 C-21.19897615 40.35645595 -26.7995295 51.69929425 -33 61 C-24.55841503 59.73209396 -17.53471357 58.60717577 -10.63671875 53.20703125 C-9 52 -9 52 -7 52 C-6.7525 51.443125 -6.505 50.88625 -6.25 50.3125 C-5 48 -5 48 -3.0625 45.6875 C1.60179247 39.60978558 2.43599008 34.49808784 2.1875 27.0625 C2.17396484 26.28326172 2.16042969 25.50402344 2.14648438 24.70117188 C2.11150224 22.80047596 2.05770959 20.90014166 2 19 C1.34 19 0.68 19 0 19 C0 18.01 0 17.02 0 16 C-10.64771906 10.46318609 -21.53444163 7.97249397 -33.44140625 10.82421875 C-39.21937449 12.5518919 -39.21937449 12.5518919 -44 16 C-44.99 16 -45.98 16 -47 16 C-47.33 16.99 -47.66 17.98 -48 19 C-48.66 19 -49.32 19 -50 19 C-50.24234375 19.515625 -50.4846875 20.03125 -50.734375 20.5625 C-52.41878695 23.80655265 -54.31297679 26.90335419 -56.25 30 C-56.80494141 30.92425781 -56.80494141 30.92425781 -57.37109375 31.8671875 C-59.99826396 36.04555377 -62.57701855 38.57987807 -67 41 C-71.11755472 41.49410657 -73.41390244 40.92387208 -77 39 C-77.05402274 36.89611431 -77.09280256 34.79183286 -77.125 32.6875 C-77.14820313 31.51574219 -77.17140625 30.34398437 -77.1953125 29.13671875 C-77 26 -77 26 -75 23 C-74.34 23 -73.68 23 -73 23 C-72.938125 22.46375 -72.87625 21.9275 -72.8125 21.375 C-71.6193416 17.8873062 -69.49312007 15.67120008 -67 13 C-66.01 12.67 -65.02 12.34 -64 12 C-63.40703125 11.3915625 -62.8140625 10.783125 -62.203125 10.15625 C-48.02435562 -3.72084344 -17.70088056 -7.94663809 0 0 Z " fill="#FDFCFE" transform="translate(125,39)"/>
</svg>
