<?xml version="1.0" encoding="UTF-8"?>
<svg version="1.1" xmlns="http://www.w3.org/2000/svg" width="25" height="25">
<path d="M0 0 C8.25 0 16.5 0 25 0 C25 8.25 25 16.5 25 25 C16.75 25 8.5 25 0 25 C0 16.75 0 8.5 0 0 Z " fill="#3528E0" transform="translate(0,0)"/>
<path d="M0 0 C0.12375 0.928125 0.12375 0.928125 0.25 1.875 C0.4975 2.57625 0.745 3.2775 1 4 C1.66128906 4.28230469 2.32257812 4.56460937 3.00390625 4.85546875 C5 6 5 6 5.57421875 8.05859375 C5.61160156 8.84363281 5.64898438 9.62867188 5.6875 10.4375 C5.85155892 13.28275042 6.08572975 15.25718925 7 18 C5.08890759 21.08714928 3.83010246 22.70353484 0.375 23.9375 C-0.800625 23.9684375 -0.800625 23.9684375 -2 24 C-2.66 23.34 -3.32 22.68 -4 22 C-4 21.01 -4 20.02 -4 19 C-4.66 18.34 -5.32 17.68 -6 17 C-3.69 17.33 -1.38 17.66 1 18 C0.67 17.01 0.34 16.02 0 15 C0.185625 14.154375 0.37125 13.30875 0.5625 12.4375 C0.706875 11.633125 0.85125 10.82875 1 10 C-1.92577938 7.07422062 -4.78336157 7.57340823 -8.78515625 7.34375 C-9.51605469 7.2303125 -10.24695313 7.116875 -11 7 C-11.33 6.34 -11.66 5.68 -12 5 C-12.33 5.66 -12.66 6.32 -13 7 C-13.66 7 -14.32 7 -15 7 C-13.96008872 3.98425729 -13.03085171 3.02008949 -10.3125 1.25 C-6.64966075 -0.13220349 -3.88252283 -0.23295137 0 0 Z " fill="#271AD3" transform="translate(17,0)"/>
<path d="M0 0 C1.588125 -0.061875 3.17625 -0.12375 4.8125 -0.1875 C6.15248047 -0.23970703 6.15248047 -0.23970703 7.51953125 -0.29296875 C10 0 10 0 11.84375 1.25 C13.94011931 4.42288329 12.64912037 7.40033251 12 11 C10.68 11 9.36 11 8 11 C8 10.34 8 9.68 8 9 C6.68 9 5.36 9 4 9 C4 9.66 4 10.32 4 11 C2.68 11 1.36 11 0 11 C0 7.37 0 3.74 0 0 Z " fill="#E7E9FD" transform="translate(6,7)"/>
<path d="M0 0 C2.64 0 5.28 0 8 0 C8 8.25 8 16.5 8 25 C5.03 25 2.06 25 -1 25 C-0.21625 24.4225 0.5675 23.845 1.375 23.25 C3.81042086 21.16249641 5.02960009 20.00823974 6 17 C5.67 16.01 5.34 15.02 5 14 C4.85540672 12.6477851 4.73143289 11.29325234 4.625 9.9375 C4.41875 8.638125 4.2125 7.33875 4 6 C3.01 5.34 2.02 4.68 1 4 C0.3125 1.875 0.3125 1.875 0 0 Z " fill="#3125CA" transform="translate(17,0)"/>
<path d="M0 0 C0.33 0.66 0.66 1.32 1 2 C1.66644531 2.27972656 2.33289063 2.55945313 3.01953125 2.84765625 C5 4 5 4 5.57421875 6.05859375 C5.61160156 6.84363281 5.64898437 7.62867188 5.6875 8.4375 C5.85155892 11.28275042 6.08572975 13.25718925 7 16 C5.08890759 19.08714928 3.83010246 20.70353484 0.375 21.9375 C-0.800625 21.9684375 -0.800625 21.9684375 -2 22 C-2.66 21.34 -3.32 20.68 -4 20 C-4 19.01 -4 18.02 -4 17 C-4.66 16.34 -5.32 15.68 -6 15 C-3.33333333 15.66666667 -0.66666667 16.33333333 2 17 C2 13.04 2 9.08 2 5 C-0.64 4.34 -3.28 3.68 -6 3 C-6 2.67 -6 2.34 -6 2 C-4.02 1.34 -2.04 0.68 0 0 Z " fill="#2417CE" transform="translate(17,2)"/>
<path d="M0 0 C3.3 0 6.6 0 10 0 C9.01 0.66 8.02 1.32 7 2 C5.31384218 3.64694485 3.64429829 5.31126121 2 7 C2.66 7 3.32 7 4 7 C4.33 6.01 4.66 5.02 5 4 C5.99 4.66 6.98 5.32 8 6 C7.01 6.495 7.01 6.495 6 7 C5.53248212 9.35599235 5.53248212 9.35599235 5.375 12.0625 C5.30023437 12.98160156 5.22546875 13.90070312 5.1484375 14.84765625 C5.09945313 15.55792969 5.05046875 16.26820312 5 17 C4.01 16.67 3.02 16.34 2 16 C1.34 16.33 0.68 16.66 0 17 C0 11.39 0 5.78 0 0 Z " fill="#2D1EE2" transform="translate(0,0)"/>
<path d="M0 0 C0.99 0.66 1.98 1.32 3 2 C2.67 4.64 2.34 7.28 2 10 C0.68 10 -0.64 10 -2 10 C-2 9.34 -2 8.68 -2 8 C-3.32 8 -4.64 8 -6 8 C-6 8.66 -6 9.32 -6 10 C-6.99 10 -7.98 10 -9 10 C-8.625 7.5625 -8.625 7.5625 -8 5 C-5.3333581 3.66667905 -3.83319697 4.32897967 -1 5 C-0.67 3.35 -0.34 1.7 0 0 Z " fill="#F8FAFC" transform="translate(16,8)"/>
<path d="M0 0 C0.33 0 0.66 0 1 0 C1 3.96 1 7.92 1 12 C1.66 12.33 2.32 12.66 3 13 C3 14.32 3 15.64 3 17 C-0.35810395 15.61043975 -2.18586552 14.17473533 -4 11 C-4.1875 8.25 -4.1875 8.25 -4 6 C-3.01 5.67 -2.02 5.34 -1 5 C-0.67 3.35 -0.34 1.7 0 0 Z " fill="#2518C5" transform="translate(5,7)"/>
<path d="M0 0 C0.33 0.66 0.66 1.32 1 2 C1.66 2.20625 2.32 2.4125 3 2.625 C5 4 5 4 5.51953125 5.80078125 C6.00390787 9.33350142 6.1462347 11.56129591 5 15 C4.34 15 3.68 15 3 15 C2.67 11.7 2.34 8.4 2 5 C-0.64 4.34 -3.28 3.68 -6 3 C-6 2.67 -6 2.34 -6 2 C-4.02 1.34 -2.04 0.68 0 0 Z " fill="#2715EE" transform="translate(17,2)"/>
<path d="M0 0 C2.14576637 -0.02685938 4.29162645 -0.04633088 6.4375 -0.0625 C7.63246094 -0.07410156 8.82742188 -0.08570313 10.05859375 -0.09765625 C13 0 13 0 14 1 C14.16017882 5.16464926 13.98248196 8.94726192 13 13 C11.68 12.67 10.36 12.34 9 12 C9.99 12 10.98 12 12 12 C11.67 11.01 11.34 10.02 11 9 C11.185625 8.154375 11.37125 7.30875 11.5625 6.4375 C11.706875 5.633125 11.85125 4.82875 12 4 C9.50494038 1.50494038 8.32671112 1.64051624 4.875 1.375 C3.96492187 1.30023438 3.05484375 1.22546875 2.1171875 1.1484375 C1.41851562 1.09945313 0.71984375 1.05046875 0 1 C0 0.67 0 0.34 0 0 Z " fill="#382FBC" transform="translate(6,6)"/>
<path d="M0 0 C0.33 0 0.66 0 1 0 C1 2.97 1 5.94 1 9 C-1.97 9 -4.94 9 -8 9 C-6.8553125 8.1646875 -6.8553125 8.1646875 -5.6875 7.3125 C-3.03568819 5.03070844 -1.68044905 3.02480829 0 0 Z " fill="#E7EAFC" transform="translate(24,16)"/>
<path d="M0 0 C3.3 0 6.6 0 10 0 C9.01 0.66 8.02 1.32 7 2 C6.154375 2.845625 5.30875 3.69125 4.4375 4.5625 C2 7 2 7 0 8 C0 5.36 0 2.72 0 0 Z " fill="#E6E8FB" transform="translate(0,0)"/>
<path d="M0 0 C2.66666667 2.66666667 5.33333333 5.33333333 8 8 C5.36 8 2.72 8 0 8 C0 5.36 0 2.72 0 0 Z " fill="#F0F1FC" transform="translate(0,17)"/>
<path d="M0 0 C2.64 0 5.28 0 8 0 C8 2.64 8 5.28 8 8 C6.85073734 7.04578192 5.70569459 6.08647955 4.5625 5.125 C3.92441406 4.59132813 3.28632813 4.05765625 2.62890625 3.5078125 C1 2 1 2 0 0 Z " fill="#F0F1FC" transform="translate(17,0)"/>
<path d="M0 0 C1.65 0 3.3 0 5 0 C4.67 1.98 4.34 3.96 4 6 C2.35 6 0.7 6 -1 6 C-1 5.01 -1 4.02 -1 3 C-0.34 2.67 0.32 2.34 1 2 C0.67 1.34 0.34 0.68 0 0 Z " fill="#BDB7E5" transform="translate(11,7)"/>
<path d="M0 0 C0.99 0.66 1.98 1.32 3 2 C2.67 4.64 2.34 7.28 2 10 C0.68 10 -0.64 10 -2 10 C-1.42415568 7.61435923 -0.77772405 5.33317216 0 3 C0 2.01 0 1.02 0 0 Z " fill="#E3E6FE" transform="translate(16,8)"/>
</svg>
