<?xml version="1.0" encoding="UTF-8"?>
<svg version="1.1" xmlns="http://www.w3.org/2000/svg" width="64" height="64">
<path d="M0 0 C1.26096748 0.00033989 1.26096748 0.00033989 2.54740906 0.00068665 C3.45062393 0.0161705 4.35383881 0.03165436 5.28442383 0.04760742 C6.21241287 0.05185226 7.14040192 0.05609711 8.09651184 0.06047058 C11.06178751 0.07726955 14.02638468 0.11492402 16.99145508 0.15307617 C19.00121089 0.16812143 21.01097735 0.18181011 23.02075195 0.1940918 C27.94874794 0.22717709 32.87623646 0.27896784 37.80395508 0.34057617 C38.61789293 11.65262978 38.61789293 11.65262978 36.80493164 15.41235352 C35.46801758 16.94604492 35.46801758 16.94604492 32.42895508 19.52807617 C31.66711914 20.20193359 31.66711914 20.20193359 30.88989258 20.8894043 C29.55169308 22.06737201 28.17961769 23.20658402 26.80395508 24.34057617 C26.14395508 25.00057617 25.48395508 25.66057617 24.80395508 26.34057617 C25.23329346 26.70820068 25.66263184 27.0758252 26.10498047 27.45458984 C28.04079904 29.12893218 29.95339988 30.82778646 31.86645508 32.52807617 C32.54256836 33.1062207 33.21868164 33.68436523 33.9152832 34.2800293 C35.7110976 35.89352751 37.33988749 37.42025084 38.80395508 39.34057617 C38.86254883 42.14135742 38.86254883 42.14135742 37.80395508 44.34057617 C35.80395508 46.34057617 35.80395508 46.34057617 33.17895508 46.46557617 C28.90034009 45.03937117 26.93574097 42.79206262 23.89770508 39.54370117 C21.24849866 36.75610337 18.38599821 34.28535416 15.46801758 31.78588867 C14.20229043 30.68654819 12.98941168 29.52603277 11.80395508 28.34057617 C11.80395508 24.09054636 12.60685363 22.55744506 15.49145508 19.38354492 C16.58298223 18.41725337 17.68764239 17.4656245 18.80395508 16.52807617 C19.64313477 15.79427734 19.64313477 15.79427734 20.49926758 15.0456543 C21.92532713 13.80043563 23.36372482 12.56937728 24.80395508 11.34057617 C25.13395508 11.01057617 25.46395508 10.68057617 25.80395508 10.34057617 C18.21395508 10.01057617 10.62395508 9.68057617 2.80395508 9.34057617 C2.83875977 11.84393555 2.87356445 14.34729492 2.90942383 16.92651367 C2.93280674 19.3457729 2.95103047 21.76501963 2.96875 24.18432617 C2.98385511 25.86830257 3.00434054 27.55223952 3.03027344 29.23608398 C3.06658229 31.6538261 3.08366355 34.07104909 3.09692383 36.48901367 C3.12014961 37.62190323 3.12014961 37.62190323 3.1438446 38.77767944 C3.14453125 40.90063477 3.14453125 40.90063477 2.80395508 44.34057617 C-0.19604492 46.34057617 -0.19604492 46.34057617 -2.75854492 46.09057617 C-5.19604492 45.34057617 -5.19604492 45.34057617 -7.19604492 43.34057617 C-7.40841384 40.36269202 -7.50000142 37.4802157 -7.49682617 34.50073242 C-7.5011113 33.62283554 -7.50539642 32.74493866 -7.5098114 31.84043884 C-7.51555992 29.98185082 -7.51605113 28.1232403 -7.51171875 26.26464844 C-7.50856128 23.41782285 -7.5320023 20.5720386 -7.55737305 17.7253418 C-7.5596462 15.92130665 -7.56034946 14.11726871 -7.55932617 12.31323242 C-7.56853592 11.46003922 -7.57774567 10.60684601 -7.5872345 9.72779846 C-7.54084201 3.81292507 -7.54084201 3.81292507 -5.93502808 1.61306763 C-3.78133482 0.03711432 -2.65032294 -0.02387678 0 0 Z " fill="#00E59F" transform="translate(16.196044921875,8.659423828125)"/>
<path d="M0 0 C0.33 0 0.66 0 1 0 C2.63698804 10.40066141 2.63698804 10.40066141 -0.04736328 14.66308594 C-3.00703199 18.17301209 -6.46593763 21.08678643 -10 24 C-10.66 24.66 -11.32 25.32 -12 26 C-11.57066162 26.36762451 -11.14132324 26.73524902 -10.69897461 27.11401367 C-8.76315603 28.78835601 -6.8505552 30.48721029 -4.9375 32.1875 C-4.26138672 32.76564453 -3.58527344 33.34378906 -2.88867188 33.93945312 C-1.09285748 35.55295134 0.53593242 37.07967467 2 39 C2.05859375 41.80078125 2.05859375 41.80078125 1 44 C-1 46 -1 46 -3.625 46.125 C-7.90361499 44.698795 -9.86821411 42.45148645 -12.90625 39.203125 C-15.55545642 36.4155272 -18.41795686 33.94477798 -21.3359375 31.4453125 C-22.60166464 30.34597202 -23.8145434 29.1854566 -25 28 C-24.94965192 24.00012454 -24.30090233 22.33956853 -21.62890625 19.32421875 C-20.61931112 18.43093566 -19.59637981 17.55256042 -18.5625 16.6875 C-18.0277002 16.21965088 -17.49290039 15.75180176 -16.94189453 15.26977539 C-15.84157443 14.30776915 -14.73639415 13.35129402 -13.62646484 12.40039062 C-11.17214986 10.28721879 -8.77608954 8.11074893 -6.375 5.9375 C-5.57835938 5.22464844 -4.78171875 4.51179687 -3.9609375 3.77734375 C-2.60913231 2.55210199 -1.29007648 1.29007648 0 0 Z " fill="#008C61" transform="translate(53,9)"/>
</svg>
