<?xml version="1.0" encoding="UTF-8"?>
<svg version="1.1" xmlns="http://www.w3.org/2000/svg" width="64" height="64">
<path d="M0 0 C21.12 0 42.24 0 64 0 C64 21.12 64 42.24 64 64 C42.88 64 21.76 64 0 64 C0 42.88 0 21.76 0 0 Z " fill="#FEFDFD" transform="translate(0,0)"/>
<path d="M0 0 C0.66 0 1.32 0 2 0 C2.391875 0.45375 2.78375 0.9075 3.1875 1.375 C5.80138604 3.71848404 8.64083629 4.17605418 12 5 C12 5.66 12 6.32 12 7 C10.68 7.33 9.36 7.66 8 8 C8.49628906 8.38027344 8.99257813 8.76054687 9.50390625 9.15234375 C11.59248554 11.7317119 11.245152 13.3083218 10.9375 16.5625 C10.86402344 17.53316406 10.79054688 18.50382812 10.71484375 19.50390625 C10 22 10 22 8.06640625 23.15234375 C7.38449219 23.43207031 6.70257812 23.71179688 6 24 C5.34 24.99 4.68 25.98 4 27 C10.6 27 17.2 27 24 27 C19.79056942 22.26352314 19.79056942 22.26352314 17 21 C16.89184775 19.23050905 16.81433917 17.45912513 16.75 15.6875 C16.70359375 14.70136719 16.6571875 13.71523438 16.609375 12.69921875 C17 10 17 10 19.015625 8.14453125 C19.67046875 7.76683594 20.3253125 7.38914062 21 7 C20.34 6.67 19.68 6.34 19 6 C19 5.01 19 4.02 19 3 C27.42857143 0.57142857 27.42857143 0.57142857 32 2 C31.01 2.99 30.02 3.98 29 5 C29.825 5.61875 30.65 6.2375 31.5 6.875 C32.325 7.57625 33.15 8.2775 34 9 C34 9.66 34 10.32 34 11 C34.66 11 35.32 11 36 11 C36.66 12.32 37.32 13.64 38 15 C37.38640625 15.20882812 36.7728125 15.41765625 36.140625 15.6328125 C33.14493984 17.54611507 32.84343244 19.53758306 31.75 22.875 C30.11218068 27.11406176 29.10581962 29.61430779 24.9375 31.625 C23.63294779 32.10548854 22.32018973 32.56431114 21 33 C19.99646484 33.52207031 19.99646484 33.52207031 18.97265625 34.0546875 C15.60788939 35.66711043 12.58147724 35.6553586 9 35 C4.70369242 33.45609765 0.61551486 31.81142435 -3 29 C-3.75 25.9921875 -3.75 25.9921875 -4 23 C-4.96887581 20.98473831 -5.9641321 18.98166034 -7 17 C-7 16.34 -7 15.68 -7 15 C-7.99 14.67 -8.98 14.34 -10 14 C-8.35 11.36 -6.7 8.72 -5 6 C-5.66 5.34 -6.32 4.68 -7 4 C-7 3.01 -7 2.02 -7 1 C-5.5459375 1.0309375 -5.5459375 1.0309375 -4.0625 1.0625 C-1.12534105 1.35618499 -1.12534105 1.35618499 0 0 Z " fill="#0A0C14" transform="translate(19,17)"/>
<path d="M0 0 C-1.485 1.485 -1.485 1.485 -3 3 C-2.175 3.61875 -1.35 4.2375 -0.5 4.875 C0.7375 5.926875 0.7375 5.926875 2 7 C2 7.66 2 8.32 2 9 C2.66 9 3.32 9 4 9 C4.66 10.32 5.32 11.64 6 13 C5.38640625 13.21398438 4.7728125 13.42796875 4.140625 13.6484375 C1.19315811 15.50942937 0.81543218 17.35260117 -0.25 20.625 C-0.58515625 21.62789062 -0.9203125 22.63078125 -1.265625 23.6640625 C-1.50796875 24.43492188 -1.7503125 25.20578125 -2 26 C-4.3359375 26.18359375 -4.3359375 26.18359375 -7 26 C-8.73473712 24.05874656 -10.4045651 22.05727132 -12 20 C-12.99 19.67 -13.98 19.34 -15 19 C-15.10815225 17.23050905 -15.18566083 15.45912513 -15.25 13.6875 C-15.29640625 12.70136719 -15.3428125 11.71523438 -15.390625 10.69921875 C-15 8 -15 8 -12.984375 6.14453125 C-12.32953125 5.76683594 -11.6746875 5.38914062 -11 5 C-11.66 4.67 -12.32 4.34 -13 4 C-13 3.01 -13 2.02 -13 1 C-4.57142857 -1.42857143 -4.57142857 -1.42857143 0 0 Z " fill="#0B0D15" transform="translate(51,19)"/>
<path d="M0 0 C-11.87837838 7.91891892 -11.87837838 7.91891892 -17.73828125 7.57421875 C-22.84081972 6.27875561 -27.43375164 3.55709908 -32 1 C-32 0.67 -32 0.34 -32 0 C-21.19918771 -1.31202926 -10.80982084 -1.17088968 0 0 Z " fill="#C11F18" transform="translate(48,45)"/>
<path d="M0 0 C0.66 0 1.32 0 2 0 C2.391875 0.45375 2.78375 0.9075 3.1875 1.375 C5.80138604 3.71848404 8.64083629 4.17605418 12 5 C12 5.66 12 6.32 12 7 C11.35933594 6.98839844 10.71867187 6.97679687 10.05859375 6.96484375 C4.91346778 6.91116881 0.06975076 7.11830422 -5 8 C-5 7.01 -5 6.02 -5 5 C-5.66 4.67 -6.32 4.34 -7 4 C-7 3.01 -7 2.02 -7 1 C-5.5459375 1.0309375 -5.5459375 1.0309375 -4.0625 1.0625 C-1.12534105 1.35618499 -1.12534105 1.35618499 0 0 Z " fill="#693B79" transform="translate(19,17)"/>
<path d="M0 0 C0.99 0.33 1.98 0.66 3 1 C4.17755913 3.94389782 4.03348696 4.89953913 3 8 C1.375 9.75 1.375 9.75 -1 11 C-4.75 10.6875 -4.75 10.6875 -8 10 C-8 9.01 -8 8.02 -8 7 C-7.05125 6.5875 -6.1025 6.175 -5.125 5.75 C-1.99283376 3.9959869 -1.13499394 3.29148243 0 0 Z " fill="#11131B" transform="translate(49,29)"/>
<path d="M0 0 C1.24523438 0.11988281 2.49046875 0.23976562 3.7734375 0.36328125 C4.71445312 0.47027344 5.65546875 0.57726563 6.625 0.6875 C0.25 4.9375 0.25 4.9375 -4.375 4.6875 C-4.375 4.0275 -4.375 3.3675 -4.375 2.6875 C-4.705 3.3475 -5.035 4.0075 -5.375 4.6875 C-9.14187864 4.6875 -10.28690305 4.45212683 -13.375 2.6875 C-8.59621931 -0.17241645 -5.50651741 -0.57143105 0 0 Z " fill="#C62721" transform="translate(41.375,44.3125)"/>
<path d="M0 0 C0.474375 0.515625 0.94875 1.03125 1.4375 1.5625 C5.30997616 3.73486467 8.75229924 2.75333154 13 2 C11.5023304 4.49824035 9.98441782 6.86004673 8 9 C5.1875 9.4375 5.1875 9.4375 3 9 C2.01 6.03 1.02 3.06 0 0 Z " fill="#2E51B9" transform="translate(14,36)"/>
<path d="M0 0 C1 2 1 2 0.0625 5.125 C-0.288125 6.07375 -0.63875 7.0225 -1 8 C-3.1875 8.375 -3.1875 8.375 -6 8 C-7.99022836 6.16038352 -9.38989899 4.20813852 -11 2 C-9 1 -9 1 -5.5 1.5625 C-4.345 1.706875 -3.19 1.85125 -2 2 C-1.34 1.34 -0.68 0.68 0 0 Z " fill="#284AB7" transform="translate(50,37)"/>
<path d="M0 0 C5.52677733 -0.19392201 9.75614911 0.2520497 15 2 C15 2.66 15 3.32 15 4 C13.06215735 3.85879286 11.12473045 3.71187127 9.1875 3.5625 C8.10855469 3.48128906 7.02960937 3.40007813 5.91796875 3.31640625 C3 3 3 3 0 2 C0 1.34 0 0.68 0 0 Z " fill="#C22B22" transform="translate(16,20)"/>
<path d="M0 0 C-0.33 0.66 -0.66 1.32 -1 2 C-3.72265625 2.6328125 -3.72265625 2.6328125 -7.0625 3.125 C-8.16722656 3.29257812 -9.27195313 3.46015625 -10.41015625 3.6328125 C-11.69212891 3.81457031 -11.69212891 3.81457031 -13 4 C-13 3.01 -13 2.02 -13 1 C-4.57142857 -1.42857143 -4.57142857 -1.42857143 0 0 Z " fill="#C21D19" transform="translate(51,19)"/>
<path d="M0 0 C0.33 0.66 0.66 1.32 1 2 C-0.16273289 5.48819868 -0.78370053 6.3072108 -4 8 C-7.75 7.6875 -7.75 7.6875 -11 7 C-11 6.01 -11 5.02 -11 4 C-10.29875 4.268125 -9.5975 4.53625 -8.875 4.8125 C-5.53988725 5.03000735 -5.13449613 4.63169388 -2.6875 2.5625 C-1.800625 1.716875 -0.91375 0.87125 0 0 Z " fill="#020409" transform="translate(52,32)"/>
<path d="M0 0 C2.96404505 2.80804268 5.44499019 5.18315774 7 9 C5.68 9 4.36 9 3 9 C2.01 6.03 1.02 3.06 0 0 Z " fill="#2445B4" transform="translate(14,36)"/>
<path d="M0 0 C-3.35661695 1.67830848 -6.36135594 0.6353188 -10 0 C-10.33 -0.66 -10.66 -1.32 -11 -2 C-6.17200184 -3.2350693 -4.02892196 -2.96244261 0 0 Z " fill="#3954AF" transform="translate(51,24)"/>
<path d="M0 0 C2.31 0 4.62 0 7 0 C7.33 0.99 7.66 1.98 8 3 C5.36 2.67 2.72 2.34 0 2 C0 1.34 0 0.68 0 0 Z " fill="#BD1D19" transform="translate(16,20)"/>
</svg>
