<svg xmlns="http://www.w3.org/2000/svg" width="256" height="256" fill="none" xmlns:v="https://vecta.io/nano"><path d="M128 256c70.692 0 128-57.308 128-128S198.692 0 128 0 0 57.308 0 128s57.308 128 128 128z" fill="#c4ff61"/><path d="M235 138v.63c-4.614 51.23-45.273 91.331-94.954 96.37H139l96-97zM175.876 31.954l-8.214-3.581c-5.482-2.107-11.166-3.792-17.07-5.056C143.429 21.843 136.266 21 128.675 21c-3.581 0-7.162.211-10.744.421-24.862 2.528-46.986 13.271-64.056 29.703l-3.374 3.371c-16.226 17.063-26.763 39.603-29.079 64.251-.208 3.16-.422 6.32-.422 9.69 0 8.005.843 15.799 2.53 23.383 1.265 5.688 2.952 11.165 5.054 16.642l3.795 8.637c2.53 4.845 5.268 9.479 8.428 13.903l17.699-17.906L172.294 58.076 190 40.17c-4.217-2.949-9.064-5.688-14.124-8.216zM48.185 148.869c-.214-.632-.422-1.475-.422-2.107-1.265-5.898-1.895-12.007-1.895-18.116 0-21.277 8.006-41.289 22.546-56.667l2.946-2.949c15.597-14.957 35.827-23.172 57.529-23.172 5.69 0 11.38.632 16.856 1.685l2.531.632L48.185 148.869zM90.999 230l-7.803-3.16c-5.275-2.528-10.343-5.266-15.196-8.637L216.974 68c3.164 4.635 6.12 9.48 8.44 14.747 1.267 2.739 2.533 5.477 3.586 8.216L90.999 230z" fill="#000"/></svg>