<?xml version="1.0" encoding="UTF-8"?>
<svg version="1.1" xmlns="http://www.w3.org/2000/svg" width="64" height="64">
<path d="M0 0 C5.74878489 4.38952773 10.86633901 11.51318808 12.05078125 18.75 C12.80065902 29.88752877 12.46271824 39.28401149 5.42578125 48.5 C-0.16912254 54.52308521 -7.32027455 58.43833819 -15.48828125 58.98828125 C-26.20542141 59.27952927 -35.14630209 58.2120695 -43.34765625 50.59375 C-51.3869265 41.33878523 -52.67841391 32.52227501 -52.12841797 20.69873047 C-51.44383799 13.25415642 -47.5350846 6.60212923 -41.94921875 1.75 C-29.18967617 -7.17360414 -13.43737558 -8.61715468 0 0 Z " fill="#FEA203" transform="translate(51.94921875,5.25)"/>
<path d="M0 0 C1.69286133 -0.02416992 1.69286133 -0.02416992 3.41992188 -0.04882812 C10.32049955 -0.05288968 15.03259108 0.35485882 20.55078125 4.8203125 C24.64773106 9.39211094 25.93871203 13.17418857 25.6875 19.3125 C24.9423903 25.48626612 22.2388591 28.1126754 17.66015625 31.9296875 C13.9282377 34.54572546 10.69395668 34.43017627 6.26953125 34.41015625 C5.01591797 34.40693359 3.76230469 34.40371094 2.47070312 34.40039062 C1.16037109 34.39201172 -0.14996094 34.38363281 -1.5 34.375 C-2.83528481 34.36998317 -4.17057141 34.36542059 -5.50585938 34.36132812 C-8.77478473 34.34952695 -12.04361991 34.33306297 -15.3125 34.3125 C-15.6425 33.6525 -15.9725 32.9925 -16.3125 32.3125 C-12.0225 31.6525 -7.7325 30.9925 -3.3125 30.3125 C-4.6325 28.9925 -5.9525 27.6725 -7.3125 26.3125 C-7.3125 25.6525 -7.3125 24.9925 -7.3125 24.3125 C-7.9725 23.9825 -8.6325 23.6525 -9.3125 23.3125 C-9.3125 19.0225 -9.3125 14.7325 -9.3125 10.3125 C-8.6525 10.3125 -7.9925 10.3125 -7.3125 10.3125 C-7.02375 9.508125 -6.735 8.70375 -6.4375 7.875 C-5.3125 5.3125 -5.3125 5.3125 -3.3125 4.3125 C-9.2525 3.3225 -9.2525 3.3225 -15.3125 2.3125 C-10.57664858 -0.84473428 -5.56827808 -0.01573849 0 0 Z " fill="#FEFBF6" transform="translate(27.3125,14.6875)"/>
<path d="M0 0 C1.9375 1.125 1.9375 1.125 3 3 C3.4375 6 3.4375 6 3 9 C0.74827097 11.59814888 -0.65017705 11.95716454 -4.0625 12.375 C-7 12 -7 12 -8.875 10.875 C-10.52854531 8.11909116 -10.39365568 6.14924548 -10 3 C-7.72054654 -1.02256493 -4.21158603 -0.45124136 0 0 Z " fill="#FEA409" transform="translate(39,26)"/>
<path d="M0 0 C1.0528418 0.01353516 1.0528418 0.01353516 2.12695312 0.02734375 C3.85561525 0.05086296 5.58410145 0.08673287 7.3125 0.125 C6.9825 1.115 6.6525 2.105 6.3125 3.125 C6.9725 3.455 7.6325 3.785 8.3125 4.125 C1.96030958 3.57618943 -4.36623638 2.95988387 -10.6875 2.125 C-7.00662647 -0.32891569 -4.24394412 -0.10302759 0 0 Z " fill="#FEE7BF" transform="translate(22.6875,14.875)"/>
</svg>
