<?xml version="1.0" encoding="UTF-8"?>
<svg version="1.1" xmlns="http://www.w3.org/2000/svg" width="200" height="200">
<path d="M0 0 C1.97057373 0.01244751 1.97057373 0.01244751 3.98095703 0.02514648 C31.08150857 0.4955143 54.80307004 11.85474289 73.79345703 30.99267578 C91.78688109 49.64155206 100.83579621 74.56605915 100.625 100.25 C100.61670166 101.56371582 100.60840332 102.87743164 100.59985352 104.23095703 C100.1294857 131.33150857 88.77025711 155.05307004 69.63232422 174.04345703 C50.98344794 192.03688109 26.05894085 201.08579621 0.375 200.875 C-1.59557373 200.86255249 -1.59557373 200.86255249 -3.60595703 200.84985352 C-30.70650857 200.3794857 -54.42807004 189.02025711 -73.41845703 169.88232422 C-91.41188109 151.23344794 -100.46079621 126.30894085 -100.25 100.625 C-100.24170166 99.31128418 -100.23340332 97.99756836 -100.22485352 96.64404297 C-99.7544857 69.54349143 -88.39525711 45.82192996 -69.25732422 26.83154297 C-50.60844794 8.83811891 -25.68394085 -0.21079621 0 0 Z " fill="#F4D34A" transform="translate(99.8125,-0.4375)"/>
<path d="M0 0 C5.00230198 2.45567552 8.49851535 5.9970307 11 11 C11.57425085 15.70697417 11.45554552 19.12144792 9.25 23.375 C5.94659283 27.22897503 3.12114796 29.75283727 -2.12109375 30.16796875 C-2.88550781 30.17441406 -3.64992188 30.18085937 -4.4375 30.1875 C-5.19933594 30.20167969 -5.96117187 30.21585938 -6.74609375 30.23046875 C-9.24795564 29.97464578 -10.79988869 29.17552725 -13 28 C-15.58416247 27.66625723 -15.58416247 27.66625723 -18 28 C-20.50161908 30.50161908 -20.41630179 31.85354104 -20.875 35.3125 C-21.65836357 39.9222933 -22.39358279 42.79429582 -26 46 C-30.77748502 49.22202478 -35.38063096 49.78671167 -41 49 C-41.62648437 48.66355469 -42.25296875 48.32710937 -42.8984375 47.98046875 C-45.66966835 46.68757108 -47.98111696 46.86277804 -51 47 C-51.14695313 47.78503906 -51.29390625 48.57007813 -51.4453125 49.37890625 C-52.91602639 56.26759486 -54.45883284 61.41760985 -60 66 C-63.93724111 68.32196271 -67.48389403 68.39614965 -72 68 C-77.2590971 66.10672504 -79.79008594 63.40216785 -83 59 C-84.24266632 55.27200105 -84.52902513 51.87217006 -84 48 C-81.42710499 43.04479479 -78.01766074 39.50883037 -73 37 C-68.13671289 36.76467966 -65.29040492 36.71178404 -61 39 C-57.91608998 39.33361919 -57.91608998 39.33361919 -55 39 C-52.51385888 36.51385888 -52.81272308 35.72568111 -52.75 32.3125 C-52.35939732 27.40510993 -50.99043084 24.92807 -47.66796875 21.375 C-43.6330483 18.04878923 -40.27227852 17.63428013 -35.17578125 17.734375 C-32.24821006 18.09178046 -30.39843368 19.33442106 -28 21 C-25.30745009 21.70670728 -25.30745009 21.70670728 -23 22 C-21.36043058 19.10124127 -20.77607609 16.93705269 -20.625 13.625 C-20.10112769 8.13337301 -18.02248998 4.83862725 -13.9375 1.125 C-9.31289624 -0.64612484 -4.88331747 -0.64632143 0 0 Z " fill="#FEFEFB" transform="translate(145,86)"/>
<path d="M0 0 C2.81926361 1.85829565 4.19910765 3.78806948 5.41796875 6.890625 C6.14699085 12.13958414 6.48947902 15.67882744 4.04296875 20.390625 C1.30360382 23.64824816 -1.44695847 26.22933861 -5.26953125 28.140625 C-10.91723659 28.51096633 -13.47317125 28.25177743 -18.26953125 25.140625 C-20.89647547 24.72281621 -20.89647547 24.72281621 -23.26953125 25.140625 C-25.76930636 27.64040011 -25.65232151 28.93405873 -26.08203125 32.390625 C-26.97912568 37.82303019 -28.30139345 40.3660549 -32.26953125 44.140625 C-36.95678933 47.26546372 -41.78622864 46.84197766 -47.26953125 46.140625 C-50.76784057 44.63190397 -53.34516158 42.60447322 -55.4140625 39.328125 C-57.21067435 34.73404904 -57.09865267 29.94952924 -56.26953125 25.140625 C-54.02006495 21.34061274 -51.25596984 18.1338443 -47.26953125 16.140625 C-45.4600463 16.01885997 -43.64556854 15.96516708 -41.83203125 15.953125 C-40.86394531 15.93894531 -39.89585938 15.92476562 -38.8984375 15.91015625 C-36.26953125 16.140625 -36.26953125 16.140625 -33.26953125 18.140625 C-30.22741694 18.5573802 -30.22741694 18.5573802 -27.26953125 18.140625 C-25.20027054 15.03673393 -25.09283391 14.38471823 -25.01953125 10.890625 C-24.53228276 5.5569942 -22.27750507 2.57324491 -18.26953125 -0.859375 C-12.07711112 -4.51131508 -6.00484782 -3.29860112 0 0 Z " fill="#FEFEFC" transform="translate(117.26953125,68.859375)"/>
<path d="M0 0 C3.83084349 2.61193874 6.65161815 5.67823629 8.75 9.875 C9.2738576 15.13075165 9.41505372 19.52026095 7.0625 24.3125 C0.50070028 31.58368347 0.50070028 31.58368347 -4.16796875 32.078125 C-10.17905513 32.20227825 -14.99774955 31.61677063 -19.79296875 27.57421875 C-23.84706283 22.99774841 -24.09375516 17.98060885 -23.875 12.046875 C-22.88086956 7.00166303 -20.25382775 3.97552515 -16.25 0.875 C-11.08444079 -2.25314741 -5.58134873 -1.93200533 0 0 Z " fill="#FEFEFC" transform="translate(84.25,46.125)"/>
<path d="M0 0 C0.66 0.33 1.32 0.66 2 1 C-4.93 7.93 -11.86 14.86 -19 22 C-19 17.63604688 -16.29697402 15.68537662 -13.4375 12.6875 C-12.8919043 12.10589111 -12.34630859 11.52428223 -11.78417969 10.92504883 C-8.06375023 7.00117561 -4.23602964 3.36956903 0 0 Z " fill="#F7E184" transform="translate(39,19)"/>
</svg>
