<?xml version="1.0" encoding="UTF-8"?>
<svg version="1.1" xmlns="http://www.w3.org/2000/svg" width="200" height="200">
<path d="M0 0 C1.25296875 0.4125 2.5059375 0.825 3.796875 1.25 C28.74462541 10.06760046 48.21993996 28.50355897 60.08447266 52.01074219 C70.70512729 75.08730057 73.09510894 102.81586203 65 127 C64.5875 128.25296875 64.175 129.5059375 63.75 130.796875 C54.93239954 155.74462541 36.49644103 175.21993996 12.98925781 187.08447266 C-10.08730057 197.70512729 -37.81586203 200.09510894 -62 192 C-63.87945312 191.38125 -63.87945312 191.38125 -65.796875 190.75 C-90.74462541 181.93239954 -110.21993996 163.49644103 -122.08447266 139.98925781 C-132.70512729 116.91269943 -135.09510894 89.18413797 -127 65 C-126.5875 63.74703125 -126.175 62.4940625 -125.75 61.203125 C-116.93239954 36.25537459 -98.49644103 16.78006004 -74.98925781 4.91552734 C-51.91269943 -5.70512729 -24.18413797 -8.09510894 0 0 Z " fill="#FEFEFE" transform="translate(131,4)"/>
<path d="M0 0 C0.8604744 -0.00511093 1.72094879 -0.01022186 2.60749817 -0.01548767 C5.45666427 -0.02940623 8.30558906 -0.02842503 11.15478516 -0.02612305 C13.13392222 -0.03000909 15.11305846 -0.03434357 17.0921936 -0.03910828 C21.24329327 -0.04657562 25.39430789 -0.04627574 29.54541016 -0.04101562 C34.86412555 -0.03522414 40.18249236 -0.0521418 45.50115013 -0.0753603 C49.58981358 -0.09009615 53.6783931 -0.09096947 57.7670784 -0.08785057 C59.72787796 -0.08836398 61.68868219 -0.09360545 63.64945602 -0.10366249 C66.39283595 -0.1160049 69.13553711 -0.10924811 71.87890625 -0.09765625 C73.09319557 -0.10912186 73.09319557 -0.10912186 74.33201599 -0.12081909 C78.923461 -0.07795785 81.9996062 0.29654839 85.56884766 3.2746582 C89.26923245 7.64935092 89.00143078 12.01148057 88.97290039 17.46777344 C88.97976364 18.38545502 88.98662689 19.3031366 88.99369812 20.24862671 C89.01197396 23.27699327 89.00812743 26.30484216 89.00244141 29.33325195 C89.00700285 31.44165719 89.01230831 33.55006094 89.01832581 35.65846252 C89.02725848 40.075918 89.02483196 44.4931927 89.01489258 48.91064453 C89.00340329 54.56784678 89.0236133 60.22442482 89.05280972 65.88154507 C89.07116762 70.23533585 89.07088003 74.58897693 89.0651722 78.94279671 C89.06501893 81.02837055 89.07106768 83.1139545 89.08346367 85.1994915 C89.09836367 88.1174406 89.08770354 91.03423513 89.07055664 93.95214844 C89.08022461 94.81104172 89.08989258 95.669935 89.09985352 96.55485535 C89.03358691 101.94806786 88.12752742 104.98403969 84.56884766 109.2746582 C82.64006018 111.10728106 80.75115854 112.79353001 78.69384766 114.4621582 C78.12577393 114.93282715 77.5577002 115.40349609 76.97241211 115.88842773 C72.38892624 119.66394945 67.72557161 123.33937065 63.0390625 126.98583984 C57.52808156 131.27735338 52.11706742 135.68781422 46.72192383 140.1237793 C46.07843994 140.65052246 45.43495605 141.17726562 44.77197266 141.7199707 C44.20124023 142.18935059 43.63050781 142.65873047 43.04248047 143.14233398 C39.86886427 145.58090786 37.52312794 145.70406095 33.56884766 145.2746582 C31.21815859 143.78985587 29.28623091 142.37378293 27.19384766 140.5871582 C26.5929834 140.0945752 25.99211914 139.60199219 25.37304688 139.09448242 C24.08838404 138.03984926 22.80871781 136.97910508 21.53369141 135.9128418 C18.93982702 133.75021381 16.31208178 131.63097375 13.68432617 129.50976562 C11.68046364 127.88883181 9.68472134 126.25831338 7.68994141 124.6262207 C4.84699174 122.30458096 1.98317272 120.01214779 -0.89599609 117.7355957 C-1.62383301 117.15600098 -2.35166992 116.57640625 -3.1015625 115.97924805 C-4.49337367 114.87170011 -5.8899473 113.77010136 -7.29199219 112.67553711 C-7.92186035 112.17199707 -8.55172852 111.66845703 -9.20068359 111.1496582 C-10.02983276 110.49610352 -10.02983276 110.49610352 -10.87573242 109.8293457 C-14.93847178 105.76851942 -15.77989296 102.24269833 -15.84884644 96.69038391 C-15.84434479 95.8294664 -15.83984314 94.96854889 -15.83520508 94.08154297 C-15.84206833 93.16386139 -15.84893158 92.24617981 -15.85600281 91.3006897 C-15.87427865 88.27232313 -15.87043212 85.24447424 -15.86474609 82.21606445 C-15.86930754 80.10765922 -15.874613 77.99925547 -15.88063049 75.89085388 C-15.88956317 71.47339841 -15.88713664 67.05612371 -15.87719727 62.63867188 C-15.86570798 56.98146962 -15.88591799 51.32489159 -15.9151144 45.66777134 C-15.9334723 41.31398056 -15.93318472 36.96033947 -15.92747688 32.6065197 C-15.92732362 30.52094586 -15.93337237 28.43536191 -15.94576836 26.34982491 C-15.96066836 23.43187581 -15.95000823 20.51508127 -15.93286133 17.59716797 C-15.9425293 16.73827469 -15.95219727 15.87938141 -15.9621582 14.99446106 C-15.89614305 9.62171281 -15.03053689 6.51875045 -11.43115234 2.2746582 C-7.59150122 -0.28510921 -4.45113305 -0.01355415 0 0 Z " fill="#1575EA" transform="translate(63.43115234375,34.725341796875)"/>
<path d="M0 0 C1.1016449 -0.01606293 2.20328979 -0.03212585 3.33831787 -0.04867554 C8.38374264 -0.09307976 13.42903491 -0.13419594 18.47460938 -0.15722656 C21.13669014 -0.17054996 23.796955 -0.20106092 26.45898438 -0.23925781 C30.29352933 -0.29400982 34.12703089 -0.3159002 37.96191406 -0.33056641 C39.74344879 -0.36457047 39.74344879 -0.36457047 41.56097412 -0.39926147 C50.77482288 -0.3756943 50.77482288 -0.3756943 54.46289062 2.60058594 C58.93415264 7.71872522 58.0217023 13.35524385 58.07763672 19.83154297 C58.09415581 21.23210311 58.12139326 22.63258034 58.15966797 24.03271484 C58.51637049 37.15936767 58.51637049 37.15936767 55.39160156 41.08349609 C52.72753906 43.19287109 52.72753906 43.19287109 49.72753906 44.19287109 C50.67628906 44.77037109 51.62503906 45.34787109 52.60253906 45.94287109 C55.68220035 48.16022722 56.47371525 48.803495 57.72753906 52.19287109 C58.15575855 56.47354338 58.0517873 60.76801622 58.04003906 65.06787109 C58.05615234 66.23962891 58.07226562 67.41138672 58.08886719 68.61865234 C58.09517469 79.73247207 58.09517469 79.73247207 54.72753906 84.19287109 C52.54311777 86.27843849 50.21838218 88.08855961 47.79003906 89.88037109 C46.85901367 90.5890332 46.85901367 90.5890332 45.90917969 91.31201172 C44.71493313 92.21882514 43.51544489 93.11878967 42.31005859 94.01074219 C41.00714893 94.98400485 39.73561724 95.9991299 38.47363281 97.02490234 C36.72753906 98.19287109 36.72753906 98.19287109 33.72753906 98.19287109 C33.71819336 96.9112207 33.70884766 95.62957031 33.69921875 94.30908203 C33.65933845 89.55270667 33.59358491 84.79697948 33.52001953 80.04101562 C33.49179858 77.98283211 33.47058965 75.92453999 33.45654297 73.86621094 C33.43512916 70.90682324 33.38848685 67.9487429 33.33691406 64.98974609 C33.33568542 64.06981873 33.33445679 63.14989136 33.33319092 62.2020874 C33.31347229 61.34149719 33.29375366 60.48090698 33.2734375 59.59423828 C33.26011383 58.46172638 33.26011383 58.46172638 33.246521 57.30633545 C32.75917638 54.53373718 32.75917638 54.53373718 28.72753906 51.19287109 C23.11753906 50.86287109 17.50753906 50.53287109 11.72753906 50.19287109 C11.72753906 66.03287109 11.72753906 81.87287109 11.72753906 98.19287109 C8.21259034 97.31413391 7.08515432 96.95680411 4.45019531 94.86474609 C3.5559082 94.15898437 3.5559082 94.15898437 2.64355469 93.43896484 C2.03189453 92.94525391 1.42023438 92.45154297 0.79003906 91.94287109 C0.18224609 91.46462891 -0.42554687 90.98638672 -1.05175781 90.49365234 C-10.74434282 82.77722544 -10.74434282 82.77722544 -12.27246094 78.19287109 C-12.38739775 75.94057214 -12.44187834 73.68503939 -12.46533203 71.42993164 C-12.47350952 70.74662781 -12.48168701 70.06332397 -12.4901123 69.35931396 C-12.51491173 67.09941474 -12.53146799 64.83957809 -12.54589844 62.57958984 C-12.55122211 61.80651804 -12.55654579 61.03344624 -12.56203079 60.23694801 C-12.58873839 56.14519874 -12.60812108 52.05347974 -12.62255859 47.96166992 C-12.63589897 44.57923343 -12.66375565 41.19740007 -12.70458984 37.81518555 C-12.75394619 33.72678356 -12.77868291 29.63892866 -12.78578568 25.55024147 C-12.79249109 23.99492227 -12.80769492 22.43961493 -12.83167648 20.88446617 C-12.86338815 18.70366526 -12.86335751 16.52496619 -12.85595703 14.34399414 C-12.86404388 13.10505905 -12.87213074 11.86612396 -12.88046265 10.58964539 C-12.07066375 6.06547375 -10.48100215 4.4349083 -7.27246094 1.19287109 C-4.7161277 -0.08529552 -2.86232279 0.03785953 0 0 Z " fill="#FBFDFE" transform="translate(77.2724609375,51.80712890625)"/>
<path d="M0 0 C7.26 0 14.52 0 22 0 C22.0825 3.526875 22.165 7.05375 22.25 10.6875 C22.28641602 11.79053467 22.32283203 12.89356934 22.36035156 14.0300293 C22.44240003 21.26419003 22.44240003 21.26419003 20.109375 25.14453125 C16.22919453 28.55765296 12.80608033 28.11744104 7.875 28.0625 C5.27625 28.041875 2.6775 28.02125 0 28 C0 18.76 0 9.52 0 0 Z " fill="#1474EA" transform="translate(89,63)"/>
</svg>
