<svg xmlns="http://www.w3.org/2000/svg" width="256" height="256" fill="none" xmlns:v="https://vecta.io/nano"><path d="M128 256c70.692 0 128-57.308 128-128S198.692 0 128 0 0 57.308 0 128s57.308 128 128 128z" fill="#040129"/><path fill-rule="evenodd" d="M197.43 75.33c-13.11-16.759-32.303-27.437-53.522-27.437-41.088 0-71.227 38.249-71.227 79.607 0 28.788 19.192 50.413 40.412 50.413 2.028 0 3.92-.135 5.947-.54-14.327-10.407-23.382-29.329-23.382-49.873 0-32.708 22.166-58.252 48.251-58.252 28.518 0 48.251 28.248 48.251 58.252-.136 22.166-7.975 44.196-21.896 60.415-12.164 14.191-27.842 23.112-45.142 25.95 0 0 1.487.135 3.379.135 47.71 0 86.5-38.79 86.5-86.5 0-19.598-6.488-37.709-17.57-52.17zm-13.11 52.17c0-28.788-19.193-50.413-40.412-50.413-2.028 0-3.92.135-5.947.541 14.327 10.407 23.382 29.329 23.382 49.873 0 32.708-22.166 58.252-48.251 58.252-28.518 0-48.251-28.247-48.251-58.252.135-22.166 7.974-44.196 21.895-60.415 12.164-14.191 27.842-23.112 45.142-25.95 0 0-1.487-.135-3.379-.135C80.79 41 42 79.79 42 127.5c0 19.598 6.487 37.709 17.57 52.17 13.11 16.76 32.302 27.302 53.522 27.302 41.088.135 71.228-38.114 71.228-79.472z" fill="#0089db"/></svg>