<?xml version="1.0" encoding="UTF-8"?>
<svg version="1.1" xmlns="http://www.w3.org/2000/svg" width="64" height="64">
<path d="M0 0 C6.5913585 5.39405181 11.16120712 12.00395643 12.7109375 20.45703125 C13.66759071 30.70057948 12.09616717 39.72399317 5.4609375 47.83203125 C-1.45254977 55.04096669 -9.03592733 58.43242147 -19.0390625 58.83203125 C-28.28525882 58.63554958 -35.86947905 55.80511538 -42.5703125 49.37890625 C-49.40133388 41.74058234 -51.81455759 33.78915314 -51.59765625 23.58203125 C-50.709236 14.58537046 -47.00238544 7.460816 -40.2890625 1.45703125 C-28.40634508 -7.71230975 -12.56139808 -8.46715399 0 0 Z " fill="#020202" transform="translate(51.2890625,5.54296875)"/>
<path d="M0 0 C1.65 0 3.3 0 5 0 C5 2.31 5 4.62 5 7 C6.98 7 8.96 7 11 7 C11 4.69 11 2.38 11 0 C12.98 0 14.96 0 17 0 C17 2.31 17 4.62 17 7 C18.98 7 20.96 7 23 7 C23 8.65 23 10.3 23 12 C21.02 12.33 19.04 12.66 17 13 C17 15.31 17 17.62 17 20 C18.98 20.33 20.96 20.66 23 21 C23 22.65 23 24.3 23 26 C21.02 26 19.04 26 17 26 C17 28.31 17 30.62 17 33 C15.02 33 13.04 33 11 33 C11 30.69 11 28.38 11 26 C9.02 26 7.04 26 5 26 C5 28.31 5 30.62 5 33 C3.35 33 1.7 33 0 33 C0 30.69 0 28.38 0 26 C-2.31 26 -4.62 26 -7 26 C-7 24.35 -7 22.7 -7 21 C-5.02 20.67 -3.04 20.34 -1 20 C-1 17.69 -1 15.38 -1 13 C-3.97 12.505 -3.97 12.505 -7 12 C-7 10.35 -7 8.7 -7 7 C-4.69 7 -2.38 7 0 7 C0 4.69 0 2.38 0 0 Z " fill="#FAFAFA" transform="translate(24,16)"/>
<path d="M0 0 C1.98 0 3.96 0 6 0 C6 2.64 6 5.28 6 8 C4.02 8 2.04 8 0 8 C0 5.36 0 2.72 0 0 Z " fill="#080808" transform="translate(29,29)"/>
</svg>
