<svg xmlns="http://www.w3.org/2000/svg" width="256" height="256" fill="none"><g clip-path="url(#a)"><path fill="#141416" d="M128 256a128 128 0 1 0 0-256 128 128 0 0 0 0 256Z"/><path fill="#F5F5F5" d="M150.8 155.8C107 168.6 71 187.2 48.5 209l-1 1c6 5.5 12.6 10.5 19.7 14.7l1.5-1.8a286 286 0 0 1 82.1-67ZM11 136.6a110.1 110.1 0 0 0 24.2 60.7l.6-.6c14-13.4 32.4-25.7 54.5-36.4a368 368 0 0 1 65.6-23.7H11ZM100.7 42.5c39.4 38 89 63.3 143.3 72.8C237.4 58.9 188 15 127.8 15c-16 0-31 3-44.9 8.6 5.6 6.6 11.6 13 17.8 19ZM48.5 47.1c22.6 22.2 58.7 41 102.3 54a290.5 290.5 0 0 1-82.1-68l-1.5-1.9c-7.2 4.3-13.7 9.3-19.7 15l1 1ZM100.7 213.4c-6.2 6-12.2 12.3-17.8 18.9 13.8 5.5 29 8.6 44.9 8.6 60.1 0 109.6-43.9 116.2-100.3a273.4 273.4 0 0 0-143.3 72.8ZM90.3 95.6a211.5 211.5 0 0 1-54.5-36.4l-.6-.6c-13.7 17-22.4 38-24.2 60.7h144.9a367 367 0 0 1-65.6-23.7Z"/></g><defs><clipPath id="a"><path fill="#fff" d="M0 0h256v256H0z"/></clipPath></defs></svg>