<svg xmlns="http://www.w3.org/2000/svg" width="256" height="256" fill="none" xmlns:v="https://vecta.io/nano"><path d="M128 256c70.692 0 128-57.308 128-128S198.692 0 128 0 0 57.308 0 128s57.308 128 128 128z" fill="url(#A)"/><path d="M208.404 128h-19.606c-5.855 0-10.6 4.72-10.6 10.546v28.311c0 5.825-4.745 10.546-10.6 10.546H89.6c-5.856 0-10.6 4.72-10.6 10.546v19.505C79 213.28 83.745 218 89.6 218h82.512c5.856 0 10.533-4.72 10.533-10.546v-15.649c0-5.826 4.745-9.958 10.6-9.958H208.4c5.855 0 10.6-4.721 10.6-10.546v-32.877c0-5.826-4.745-10.424-10.6-10.424h.004zM78.819 89.206c0-5.833 4.746-10.559 10.603-10.559h77.975c5.857 0 10.603-4.726 10.603-10.559V48.559C178 42.726 173.254 38 167.397 38H84.902c-5.857 0-10.603 4.726-10.603 10.559v15.048c0 5.833-4.746 10.559-10.603 10.559H48.604C42.746 74.166 38 78.892 38 84.725v32.953C38 123.511 42.766 128 48.623 128h19.612c5.857 0 10.603-4.726 10.603-10.559l-.02-28.231v-.004zM119.099 107h18.802c6.128 0 11.099 4.975 11.099 11.099v18.802c0 6.128-4.975 11.099-11.099 11.099h-18.802c-6.128 0-11.099-4.975-11.099-11.099v-18.802c0-6.128 4.975-11.099 11.099-11.099z" fill="#121312"/><defs><linearGradient id="A" x1="32.5" y1="210.5" x2="218.5" y2="39" gradientUnits="userSpaceOnUse"><stop stop-color="#13fe82"/><stop offset="1" stop-color="#4fe3e5"/></linearGradient></defs></svg>