<?xml version="1.0" encoding="UTF-8"?>
<svg version="1.1" xmlns="http://www.w3.org/2000/svg" width="25" height="25">
<path d="M0 0 C8.25 0 16.5 0 25 0 C25 8.25 25 16.5 25 25 C16.75 25 8.5 25 0 25 C0 16.75 0 8.5 0 0 Z " fill="#FAF9F9" transform="translate(0,0)"/>
<path d="M0 0 C0.8971875 0.433125 0.8971875 0.433125 1.8125 0.875 C2.99931726 4.43545177 2.90939832 7.31308337 2.875 11.0625 C2.86597656 12.33480469 2.85695313 13.60710938 2.84765625 14.91796875 C2.83605469 15.89378906 2.82445313 16.86960937 2.8125 17.875 C2.1525 18.205 1.4925 18.535 0.8125 18.875 C0.8125 14.585 0.8125 10.295 0.8125 5.875 C0.1525 5.875 -0.5075 5.875 -1.1875 5.875 C-1.1875 10.495 -1.1875 15.115 -1.1875 19.875 C-1.8475 19.875 -2.5075 19.875 -3.1875 19.875 C-3.1875 15.915 -3.1875 11.955 -3.1875 7.875 C-3.8475 7.875 -4.5075 7.875 -5.1875 7.875 C-5.1875 12.495 -5.1875 17.115 -5.1875 21.875 C-6.5075 21.215 -7.8275 20.555 -9.1875 19.875 C-10.1775 19.875 -11.1675 19.875 -12.1875 19.875 C-12.5175 18.225 -12.8475 16.575 -13.1875 14.875 C-13.8475 16.195 -14.5075 17.515 -15.1875 18.875 C-16.6875 17.6875 -16.6875 17.6875 -18.1875 15.875 C-18.375 13.1875 -18.375 13.1875 -18.1875 10.875 C-17.1975 10.545 -16.2075 10.215 -15.1875 9.875 C-14.8575 10.865 -14.5275 11.855 -14.1875 12.875 C-13.5275 12.875 -12.8675 12.875 -12.1875 12.875 C-12.3525 12.111875 -12.5175 11.34875 -12.6875 10.5625 C-13.1875 7.875 -13.1875 7.875 -13.1875 4.875 C-12.1975 4.545 -11.2075 4.215 -10.1875 3.875 C-9.5275 5.195 -8.8675 6.515 -8.1875 7.875 C-7.81625 6.7303125 -7.81625 6.7303125 -7.4375 5.5625 C-5.79333069 2.02753598 -4.11990902 -0.23542337 0 0 Z " fill="#686364" transform="translate(19.1875,3.125)"/>
<path d="M0 0 C2.64 0 5.28 0 8 0 C8 8.25 8 16.5 8 25 C4.37 25 0.74 25 -3 25 C-3 20.38 -3 15.76 -3 11 C-2.34 11 -1.68 11 -1 11 C-1 14.96 -1 18.92 -1 23 C-0.34 23 0.32 23 1 23 C1 18.38 1 13.76 1 9 C1.66 9 2.32 9 3 9 C3.33 12.96 3.66 16.92 4 21 C4.10792837 18.39472895 4.18724878 15.79391689 4.25 13.1875 C4.28351562 12.44951172 4.31703125 11.71152344 4.3515625 10.95117188 C4.43898094 8.5154344 4.43898094 8.5154344 4 5 C2.10882296 3.07927165 2.10882296 3.07927165 0 2 C0 1.34 0 0.68 0 0 Z " fill="#E4E3E3" transform="translate(17,0)"/>
<path d="M0 0 C2 1 2 1 3 2 C5.32817964 2.36760731 7.6618385 2.70241581 10 3 C9.54625 3.556875 9.0925 4.11375 8.625 4.6875 C6.96266232 7.05313439 5.97855457 9.29015658 5 12 C4.34 10.68 3.68 9.36 3 8 C0.69447941 10.30552059 1 11.61660607 1 15 C0.01 15.33 -0.98 15.66 -2 16 C-2 14.68 -2 13.36 -2 12 C-2.66 11.67 -3.32 11.34 -4 11 C-3.56179109 6.44262737 -3.14958831 3.42346555 0 0 Z " fill="#C4C2C2" transform="translate(6,1)"/>
<path d="M0 0 C2.64 0 5.28 0 8 0 C8.05420701 2.56278699 8.09377007 5.12441483 8.125 7.6875 C8.14175781 8.40873047 8.15851562 9.12996094 8.17578125 9.87304688 C8.21391569 14.04876781 7.8789919 17.2494138 6 21 C5.67 21 5.34 21 5 21 C4.97421875 19.87980469 4.9484375 18.75960938 4.921875 17.60546875 C4.86559365 16.13277354 4.80824632 14.6601188 4.75 13.1875 C4.73582031 12.44951172 4.72164062 11.71152344 4.70703125 10.95117188 C4.56792343 6.50622421 4.56792343 6.50622421 1.953125 3.11328125 C1.30859375 2.74589844 0.6640625 2.37851562 0 2 C0 1.34 0 0.68 0 0 Z " fill="#EAE9E8" transform="translate(17,0)"/>
<path d="M0 0 C0.33 0 0.66 0 1 0 C1.33 3.63 1.66 7.26 2 11 C-1.96 11 -5.92 11 -10 11 C-10 9.35 -10 7.7 -10 6 C-9.01 6 -8.02 6 -7 6 C-6.67 6.33 -6.34 6.66 -6 7 C-5.34 5.68 -4.68 4.36 -4 3 C-3.67 3 -3.34 3 -3 3 C-3 4.98 -3 6.96 -3 9 C-2.01 9 -1.02 9 0 9 C0 6.03 0 3.06 0 0 Z " fill="#EEEEEE" transform="translate(10,14)"/>
<path d="M0 0 C0.99 0.33 1.98 0.66 3 1 C3 6.28 3 11.56 3 17 C2.34 17.33 1.68 17.66 1 18 C0.67 12.06 0.34 6.12 0 0 Z " fill="#362E31" transform="translate(19,4)"/>
<path d="M0 0 C0.66 0 1.32 0 2 0 C2 1.32 2 2.64 2 4 C2.66 4 3.32 4 4 4 C4 7.96 4 11.92 4 16 C3.67 16 3.34 16 3 16 C3 12.37 3 8.74 3 5 C2.01 4.67 1.02 4.34 0 4 C-0.33 3.01 -0.66 2.02 -1 1 C-0.67 0.67 -0.34 0.34 0 0 Z " fill="#342C2E" transform="translate(13,6)"/>
<path d="M0 0 C0.66 0 1.32 0 2 0 C2 1.32 2 2.64 2 4 C2.66 4 3.32 4 4 4 C3.67 5.32 3.34 6.64 3 8 C1.5 6.8125 1.5 6.8125 0 5 C-0.1875 2.3125 -0.1875 2.3125 0 0 Z " fill="#484144" transform="translate(1,14)"/>
<path d="M0 0 C1.32 0.66 2.64 1.32 4 2 C4 3.32 4 4.64 4 6 C3.01 6.33 2.02 6.66 1 7 C1 5.68 1 4.36 1 3 C0.34 2.67 -0.32 2.34 -1 2 C-0.67 1.34 -0.34 0.68 0 0 Z " fill="#A6A3A4" transform="translate(3,10)"/>
</svg>
