<svg xmlns="http://www.w3.org/2000/svg" width="256" height="256" fill="none" xmlns:v="https://vecta.io/nano"><path d="M168.503 132.514v36.891h-36.822a36.72 36.72 0 0 1-20.44-6.217c-6.05-4.054-10.766-9.815-13.55-16.557s-3.513-14.158-2.094-21.315 4.924-13.73 10.069-18.889a36.76 36.76 0 0 1 18.838-10.096 36.7 36.7 0 0 1 21.257 2.099c6.722 2.792 12.468 7.521 16.511 13.588a36.96 36.96 0 0 1 6.201 20.496m-36.306-61.487c-8.052-.24-16.073 1.113-23.604 3.981a61.32 61.32 0 0 0-20.288 12.736c-5.863 5.54-10.581 12.184-13.883 19.551a61.66 61.66 0 0 0-5.365 23.391c-.239 8.075 1.11 16.117 3.971 23.669s7.176 14.464 12.701 20.344a61.36 61.36 0 0 0 19.498 13.921A61.22 61.22 0 0 0 128.524 194H193v-60.756c0-33.909-27.017-61.973-60.833-62.217z" fill="#20ee82"/><path d="M217.412 46.586A121.5 121.5 0 0 0 64.519 31.129c1.367 1.511 2.539 3.189 3.489 4.992 22.202-14.572 48.744-21.056 75.164-18.362s51.107 14.403 69.91 33.157c44.989 44.927 44.989 118.122 0 163.109s-118.188 44.987-163.178 0c-18.745-18.809-30.443-43.498-33.127-69.917A115.59 115.59 0 0 1 35.168 68.96c-1.805-.947-3.482-2.119-4.992-3.488-37.02 55.934-21.653 131.336 34.284 168.354s131.343 21.652 168.363-34.282c15.462-23.362 22.374-51.351 19.566-79.225s-15.164-53.922-34.976-73.732z" fill="#7f8c8d"/><path d="M37.495 38.535a12 12 0 0 1 13.071-2.632A12 12 0 0 1 58 46.971a12 12 0 0 1-7.38 11.104 12 12 0 0 1-13.083-2.568l-.042-.042a12 12 0 0 1 0-16.931z" fill="#20ee82"/></svg>