<svg width="500" height="500" viewBox="0 0 500 500" fill="none" xmlns="http://www.w3.org/2000/svg">
<rect width="500" height="500" rx="250" fill="#FCEFDC"/>
<path d="M372.5 307.466V128.47C372.262 113.492 360.613 101.438 345.993 101.438H163.654C124.31 102.046 92.6922 135.045 92.6922 175.472C92.6922 189.11 96.2581 200.799 101.726 211.028C106.362 219.551 113.612 227.588 120.744 233.555C122.765 235.259 121.814 234.529 127.995 238.425C136.553 243.782 146.3 246.461 146.3 246.461L146.181 353.494C146.419 358.609 146.895 363.479 148.202 367.985C152.243 383.084 162.466 394.652 176.373 400.252C182.197 402.566 188.735 404.149 195.748 404.272L341.357 404.758C370.36 404.758 393.895 380.649 393.895 350.815C394.014 333.159 385.456 317.33 372.5 307.466Z" fill="#FFEEDA"/>
<path d="M376.064 352.155C375.47 371.272 360.136 386.614 341.355 386.614L241.153 386.249C249.116 376.752 253.989 364.453 253.989 351.058C253.989 329.993 241.747 315.503 241.747 315.503H341.474C360.611 315.503 376.182 331.454 376.182 351.058L376.064 352.155Z" fill="#EBC28E"/>
<path d="M130.253 218.453C118.724 207.25 110.641 192.76 110.641 175.591V173.764C111.592 144.418 135.127 120.796 163.773 119.943H346.112C350.867 120.187 354.67 123.596 354.67 128.589V286.642C358.83 287.373 360.85 287.982 364.893 289.443C368.102 290.661 372.5 293.217 372.5 293.217V128.589C372.262 113.611 360.613 101.557 345.993 101.557H163.654C124.31 102.165 92.6922 135.164 92.6922 175.591C92.6922 199.092 103.152 219.183 120.269 233.308C121.457 234.283 122.527 235.5 125.618 235.5C130.967 235.5 134.77 231.116 134.533 226.367C134.414 222.349 132.75 220.888 130.253 218.453Z" fill="#101010"/>
<path d="M341.357 296.994H198.363C188.735 297.115 181.009 305.031 181.009 314.893V335.958C181.247 345.701 189.33 353.981 198.958 353.981H209.537V335.958H198.958V315.381C198.958 315.381 201.573 315.381 204.782 315.381C222.849 315.381 236.163 332.549 236.163 350.937C236.163 367.254 221.661 388.075 197.412 386.371C175.898 384.909 164.249 365.304 164.249 350.937V172.426C164.249 164.39 157.831 157.814 149.986 157.814H135.722V176.08H146.301V351.058C145.706 386.615 171.025 404.514 197.412 404.514L341.477 405.001C370.48 405.001 394.015 380.891 394.015 351.058C394.015 321.225 370.361 296.994 341.357 296.994ZM376.065 352.154C375.471 371.271 360.138 386.615 341.357 386.615L241.155 386.248C249.119 376.751 253.993 364.452 253.993 351.058C253.993 329.993 241.749 315.502 241.749 315.502H341.477C360.613 315.502 376.185 331.454 376.185 351.058L376.065 352.154Z" fill="#101010"/>
<path d="M302.842 179.368H195.032V161.104H302.842C307.716 161.104 311.758 165.122 311.758 170.236C311.758 175.228 307.836 179.368 302.842 179.368Z" fill="#101010"/>
<path d="M302.842 265.33H195.032V247.063H302.842C307.716 247.063 311.758 251.083 311.758 256.197C311.758 261.189 307.836 265.33 302.842 265.33Z" fill="#101010"/>
<path d="M321.861 222.355H195.032V204.09H321.741C326.616 204.09 330.657 208.108 330.657 213.222C330.776 218.215 326.735 222.355 321.861 222.355Z" fill="#101010"/>
</svg>
