<?xml version="1.0" encoding="UTF-8"?>
<svg version="1.1" xmlns="http://www.w3.org/2000/svg" width="25" height="25">
<path d="M0 0 C3.19642731 1.76176514 4.65343157 3.62483497 6 7 C6.98551611 11.70704547 6.89020038 15.76871853 5.09765625 20.26171875 C2.82848943 23.66202039 0.925866 24.79933703 -3.08203125 25.66796875 C-7.47679346 25.93416578 -11.2530995 25.96283385 -15.17578125 23.80078125 C-18.5457914 20.479029 -19.43519926 17.15776602 -19.75 12.5 C-19.43519926 7.84223398 -18.5457914 4.520971 -15.17578125 1.19921875 C-10.37366283 -1.44755029 -5.2277219 -1.13300437 0 0 Z " fill="#20252A" transform="translate(19,0)"/>
<path d="M0 0 C3.19642731 1.76176514 4.65343157 3.62483497 6 7 C6.98551611 11.70704547 6.89020038 15.76871853 5.09765625 20.26171875 C2.82848943 23.66202039 0.925866 24.79933703 -3.08203125 25.66796875 C-7.47679346 25.93416578 -11.2530995 25.96283385 -15.17578125 23.80078125 C-18.5457914 20.479029 -19.43519926 17.15776602 -19.75 12.5 C-19.43519926 7.84223398 -18.5457914 4.520971 -15.17578125 1.19921875 C-10.37366283 -1.44755029 -5.2277219 -1.13300437 0 0 Z M-17 6 C-18.60632723 9.21265446 -18.47931944 12.51521812 -18 16 C-15.98497111 19.75212276 -14.54533858 21.63644095 -11 24 C-6.18459376 24.47364652 -3.94885045 24.49199653 0.375 22.25 C4.36255582 18.83209501 4.8744131 17.31866245 5.375 12.0625 C5.29267724 8.90483402 4.97145344 7.95310208 3.25 5.125 C-0.64846196 1.44311926 -3.46023233 0.49228982 -8.96484375 0.60546875 C-12.61727597 1.31352183 -14.43783808 3.37534632 -17 6 Z " fill="#E2E2E3" transform="translate(19,0)"/>
<path d="M0 0 C1.11375 0.3403125 1.11375 0.3403125 2.25 0.6875 C2.25 1.0175 2.25 1.3475 2.25 1.6875 C0.6 1.6875 -1.05 1.6875 -2.75 1.6875 C-2.75 2.6775 -2.75 3.6675 -2.75 4.6875 C-0.77 5.3475 1.21 6.0075 3.25 6.6875 C3.58 8.3375 3.91 9.9875 4.25 11.6875 C2.625 13.25 2.625 13.25 0.25 14.6875 C-2.9375 14.5 -2.9375 14.5 -5.75 13.6875 C-6.08 13.0275 -6.41 12.3675 -6.75 11.6875 C-4.11 12.0175 -1.47 12.3475 1.25 12.6875 C-0.49754069 9.5740531 -0.49754069 9.5740531 -3.3125 8.25 C-5.75 6.6875 -5.75 6.6875 -6.5625 4.5 C-6.624375 3.901875 -6.68625 3.30375 -6.75 2.6875 C-4.29511132 0.41445492 -3.41240272 -0.38777304 0 0 Z " fill="#797C7F" transform="translate(13.75,5.3125)"/>
<path d="M0 0 C1.11375 0.3403125 1.11375 0.3403125 2.25 0.6875 C2.25 1.0175 2.25 1.3475 2.25 1.6875 C0.6 1.6875 -1.05 1.6875 -2.75 1.6875 C-3.08 2.6775 -3.41 3.6675 -3.75 4.6875 C-4.41 5.3475 -5.07 6.0075 -5.75 6.6875 C-6.08 5.3675 -6.41 4.0475 -6.75 2.6875 C-4.29511132 0.41445492 -3.41240272 -0.38777304 0 0 Z " fill="#909396" transform="translate(13.75,5.3125)"/>
</svg>
