<?xml version="1.0" encoding="UTF-8"?>
<svg version="1.1" xmlns="http://www.w3.org/2000/svg" width="64" height="64">
<path d="M0 0 C6.47496935 5.28699977 10.89385341 12.01682002 12.48828125 20.3046875 C13.45098895 30.92603642 11.69688696 39.81059549 4.86328125 48.1796875 C-1.65304959 54.98888714 -9.73881 58.38100539 -19.07421875 58.6171875 C-28.91069917 58.48555577 -36.45265729 55.40153127 -43.56640625 48.59375 C-49.91613191 41.12198447 -51.90948271 33.11373067 -51.78125 23.53125 C-50.98490145 13.99815002 -46.7695639 6.47261734 -39.51171875 0.3046875 C-27.03890251 -7.52359656 -12.53369022 -8.45975359 0 0 Z " fill="#4A21EF" transform="translate(51.51171875,5.6953125)"/>
<path d="M0 0 C7.23214286 5.89285714 7.23214286 5.89285714 9 10 C7.98612839 11.21418059 6.96340558 12.42097015 5.9375 13.625 C5.36902344 14.29789063 4.80054687 14.97078125 4.21484375 15.6640625 C3.48394531 16.43492188 2.75304687 17.20578125 2 18 C1.53601807 18.52770996 1.07203613 19.05541992 0.59399414 19.59912109 C-2.92071147 23.1692637 -5.45125864 24.39634332 -10.49609375 24.5859375 C-12.47741666 24.54644269 -14.45833041 24.47543932 -16.4375 24.375 C-17.45521484 24.34792969 -18.47292969 24.32085937 -19.52148438 24.29296875 C-22.01655513 24.22268507 -24.50713847 24.12437201 -27 24 C-26.04270084 22.87411986 -25.08412105 21.7493285 -24.125 20.625 C-23.59132813 19.99851562 -23.05765625 19.37203125 -22.5078125 18.7265625 C-19.28173353 15.03245135 -19.28173353 15.03245135 -17.02880859 14.77294922 C-16.24328613 14.78342285 -15.45776367 14.79389648 -14.6484375 14.8046875 C-13.79765625 14.81113281 -12.946875 14.81757812 -12.0703125 14.82421875 C-10.73613281 14.84935547 -10.73613281 14.84935547 -9.375 14.875 C-8.4778125 14.88402344 -7.580625 14.89304687 -6.65625 14.90234375 C-4.43738678 14.92594868 -2.2186603 14.96182038 0 15 C0 10.05 0 5.1 0 0 Z " fill="#FBFAFE" transform="translate(41,26)"/>
<path d="M0 0 C0.97001953 0.02707031 1.94003906 0.05414063 2.93945312 0.08203125 C5.31615349 0.15227855 7.68812471 0.25055351 10.0625 0.375 C9.10520084 1.50088014 8.14662105 2.6256715 7.1875 3.75 C6.65382813 4.37648438 6.12015625 5.00296875 5.5703125 5.6484375 C2.34578103 9.34077665 2.34578103 9.34077665 0.18310547 9.60205078 C-0.56052246 9.59157715 -1.30415039 9.58110352 -2.0703125 9.5703125 C-3.27880859 9.56064453 -3.27880859 9.56064453 -4.51171875 9.55078125 C-5.35347656 9.53402344 -6.19523437 9.51726563 -7.0625 9.5 C-8.33673828 9.48646484 -8.33673828 9.48646484 -9.63671875 9.47265625 C-11.73709884 9.44905647 -13.83733444 9.41318483 -15.9375 9.375 C-15.9375 14.325 -15.9375 19.275 -15.9375 24.375 C-23.16964286 18.48214286 -23.16964286 18.48214286 -24.9375 14.375 C-23.92362839 13.16081941 -22.90090558 11.95402985 -21.875 10.75 C-21.30652344 10.07710937 -20.73804688 9.40421875 -20.15234375 8.7109375 C-19.42144531 7.94007812 -18.69054687 7.16921875 -17.9375 6.375 C-17.46771729 5.84729004 -16.99793457 5.31958008 -16.51391602 4.77587891 C-11.41858243 -0.35664689 -6.98349813 -0.37232594 0 0 Z " fill="#FEFEFE" transform="translate(38.9375,13.625)"/>
</svg>
