<?xml version="1.0" encoding="UTF-8"?>
<svg version="1.1" xmlns="http://www.w3.org/2000/svg" width="64" height="64">
<path d="M0 0 C21.12 0 42.24 0 64 0 C64 21.12 64 42.24 64 64 C42.88 64 21.76 64 0 64 C0 42.88 0 21.76 0 0 Z " fill="#F9A10A" transform="translate(0,0)"/>
<path d="M0 0 C21.12 0 42.24 0 64 0 C64 21.12 64 42.24 64 64 C42.88 64 21.76 64 0 64 C0 42.88 0 21.76 0 0 Z M17 7 C17.825 7.78375 18.65 8.5675 19.5 9.375 C22 12 22 12 22 14 C21.7525 13.38125 21.505 12.7625 21.25 12.125 C19.76749514 9.60474173 18.71612936 8.98768341 16 8 C15.01 8 14.02 8 13 8 C13 9.32 13 10.64 13 12 C12.4225 12.20625 11.845 12.4125 11.25 12.625 C7.15884436 15.12515067 5.43250003 18.87549991 3.75 23.25 C1.80382163 32.98089186 2.99089702 41.52938091 8.28515625 50.07421875 C12.61983742 55.64048064 19.02792482 59.70256496 26 61 C35.113655 61.81515096 42.59178624 60.58386768 50.28125 55.48828125 C50.8484375 54.99714844 51.415625 54.50601563 52 54 C52 53.34 52 52.68 52 52 C52.66 52 53.32 52 54 52 C59.50325768 45.36786895 61.73819603 37.56307397 61 29 C59.61008664 21.88691397 56.97956093 16.31245637 52 11 C51.34 10.67 50.68 10.34 50 10 C47.89549979 17.14356942 47.89549979 17.14356942 48.9453125 24.2265625 C49.85936155 25.49578489 50.78928098 26.75372217 51.734375 28 C54.07981938 31.70638124 54.34718017 35.69641249 54 40 C51.19839427 46.45587408 45.56019185 49.54123944 39.2734375 52.1171875 C35.2706991 53.19668497 31.62597358 53.36774873 27.5 53.375 C26.76652344 53.39949219 26.03304688 53.42398438 25.27734375 53.44921875 C20.05872855 53.47722563 17.12014652 52.45365223 13 49 C11.125 46.75 11.125 46.75 10 45 C10.44988281 45.42152344 10.89976563 45.84304687 11.36328125 46.27734375 C16.99912046 51.0774072 21.64794424 52.27685566 29 52 C36.82187891 51.22589972 44.45315832 49.01401437 50 43.1875 C52.46181791 39.26397771 52.69647957 37.56581053 52 33 C50.86670365 29.89002398 49.49453714 26.95089267 48 24 C47.62617187 23.25105469 47.25234375 22.50210937 46.8671875 21.73046875 C46.58101562 21.15941406 46.29484375 20.58835937 46 20 C46.66 19.34 47.32 18.68 48 18 C48.94238698 15.17283905 49.13465647 13.36823877 49.125 10.4375 C49.12757812 9.65246094 49.13015625 8.86742187 49.1328125 8.05859375 C49.12976366 5.93561023 49.12976366 5.93561023 48 4 C47.38125 4.309375 46.7625 4.61875 46.125 4.9375 C44.75 5.625 43.375 6.3125 42 7 C42 6.34 42 5.68 42 5 C38.9173901 3.45869505 35.69279069 3.77438442 32.3125 3.75 C31.26932617 3.7190625 31.26932617 3.7190625 30.20507812 3.6875 C25.08030115 3.64921969 21.58740447 4.71531625 17 7 Z " fill="#221D27" transform="translate(0,0)"/>
<path d="M0 0 C4.22406534 1.01690462 5.72512152 2.40551338 8.375 5.8125 C9.6875 8.625 9.6875 8.625 10.375 10.8125 C10.890625 10.4825 11.40625 10.1525 11.9375 9.8125 C15.18715644 8.47930762 17.89501247 8.61916736 21.375 8.8125 C22.035 9.1425 22.695 9.4725 23.375 9.8125 C23.1633581 13.5162332 22.44971295 14.73596478 19.8125 17.4375 C11.60779518 23.59102862 1.39070692 24.57639929 -8.5625 23.3125 C-13.78924255 20.75246283 -17.4517529 16.20887203 -19.625 10.8125 C-19.25 7.0625 -19.25 7.0625 -18.625 3.8125 C-15.66549858 5.18655423 -13.21004604 6.83026932 -10.625 8.8125 C-10.20089844 8.235 -9.77679688 7.6575 -9.33984375 7.0625 C-4.5701133 1.02433574 -4.5701133 1.02433574 0 0 Z " fill="#F3F3F2" transform="translate(27.625,28.1875)"/>
<path d="M0 0 C5.90946974 3.71452384 9.03150406 9.94442326 10.625 16.6171875 C11.89941382 24.71502531 10.32933775 32.66714469 5.9375 39.625 C5.298125 40.40875 4.65875 41.1925 4 42 C3.34 42 2.68 42 2 42 C2 42.66 2 43.32 2 44 C-0.046875 45.47265625 -0.046875 45.47265625 -2.75 47.0625 C-3.63171875 47.58972656 -4.5134375 48.11695313 -5.421875 48.66015625 C-11.9372338 52.04616847 -19.93305671 52.14112372 -26.9375 50.17578125 C-33.31951074 47.68048926 -33.31951074 47.68048926 -36 45 C-36 44.01 -36 43.02 -36 42 C-35.01580078 42.23783203 -35.01580078 42.23783203 -34.01171875 42.48046875 C-22.17674424 44.52204023 -11.19837655 43.74786538 -1.0625 37.0625 C1.89738834 34.10261166 3.87765715 32.0834268 4.1328125 27.73828125 C3.88652757 23.00816195 3.19797693 19.91169438 0.3125 16.125 C-1.65502231 13.39295473 -2.01005174 12.27139694 -1.8828125 8.8359375 C-1.37188216 5.84734499 -0.76733898 2.93250567 0 0 Z " fill="#F47F0C" transform="translate(50,10)"/>
<path d="M0 0 C3.68754757 0.49831724 5.60490662 1.10067643 8 4 C6.18905473 9.69154229 6.18905473 9.69154229 4.8125 11.9375 C3.5915422 15.03685442 4.5280307 17.75521103 5 21 C4.34 21.99 3.68 22.98 3 24 C-0.125 24.1875 -0.125 24.1875 -3 24 C-4.34191567 30.70957833 -3.25706072 35.09657744 0 41 C0.66 41.99 1.32 42.98 2 44 C1.34 44.99 0.68 45.98 0 47 C-6.43240166 40.42140739 -10.10345145 33.21383555 -10.4375 23.875 C-10.05743244 15.89358119 -7.65589124 9.65589124 -2 4 C-1.34 4 -0.68 4 0 4 C0 2.68 0 1.36 0 0 Z " fill="#F07F12" transform="translate(13,8)"/>
<path d="M0 0 C0.33 0 0.66 0 1 0 C1.12962963 6.61111111 1.12962963 6.61111111 0.1875 9.4375 C-0.04074773 12.55688558 0.6231163 13.17763796 2.375 15.6875 C5.44889511 20.26380452 6.58607177 24.48190886 6 30 C3.70733656 35.88564345 -1.48785251 39.33861956 -7 42 C-11.92199356 44.01257986 -16.26251945 44.36579529 -21.5 44.375 C-22.23347656 44.39949219 -22.96695312 44.42398438 -23.72265625 44.44921875 C-29.87022774 44.48221108 -33.22491802 42.40507105 -37.875 38.375 C-39 37 -39 37 -39 35 C-36.82494593 36.00984653 -35.0260064 36.97823498 -33.1796875 38.5234375 C-28.02946566 42.01229746 -20.72202513 41.33547808 -14.8125 40.3125 C-8.89675398 38.90174976 -3.98686345 36.8378487 0.5 32.6875 C2.51595686 29.0755773 2.5474272 27.10570402 2 23 C0.25023374 18.03237091 -2.14589764 13.42385865 -5 9 C-4.01 8.67 -3.02 8.34 -2 8 C-1.19787372 6.12612784 -1.19787372 6.12612784 -0.8125 3.9375 C-0.65394531 3.20402344 -0.49539062 2.47054688 -0.33203125 1.71484375 C-0.22246094 1.14894531 -0.11289062 0.58304688 0 0 Z " fill="#2B1E1F" transform="translate(49,10)"/>
<path d="M0 0 C6.32016862 1.05336144 7.24440831 1.25609471 11 6 C14.09343852 11.38076928 15.52720082 15.80539033 15 22 C14.67 21.34 14.34 20.68 14 20 C12.10466658 19.53476937 12.10466658 19.53476937 9.9375 19.375 C8.638125 19.25125 7.33875 19.1275 6 19 C6 17.35 6 15.7 6 14 C3.03 13.505 3.03 13.505 0 13 C0 8.71 0 4.42 0 0 Z " fill="#F0A222" transform="translate(37,18)"/>
<path d="M0 0 C1.07217773 0.00773438 1.07217773 0.00773438 2.16601562 0.015625 C7.37588071 0.09419035 7.37588071 0.09419035 9.6875 1.25 C8.6975 4.22 7.7075 7.19 6.6875 10.25 C4.10172773 10.18986576 1.5216319 10.10282878 -1.0625 10 C-1.79210938 9.98582031 -2.52171875 9.97164062 -3.2734375 9.95703125 C-6.81832829 9.79589985 -8.89921811 9.58224623 -11.703125 7.328125 C-12.23421875 6.64234375 -12.7653125 5.9565625 -13.3125 5.25 C-13.9725 4.59 -14.6325 3.93 -15.3125 3.25 C-9.96878483 0.58864775 -5.93176317 -0.17591883 0 0 Z " fill="#DB720B" transform="translate(32.3125,3.75)"/>
<path d="M0 0 C3.68754757 0.49831724 5.60490662 1.10067643 8 4 C6.18905473 9.69154229 6.18905473 9.69154229 4.8125 11.9375 C3.5915422 15.03685442 4.5280307 17.75521103 5 21 C4.34 21.99 3.68 22.98 3 24 C-0.125 24.1875 -0.125 24.1875 -3 24 C-4.0070238 29.03511899 -3.97387813 32.23947038 -2 37 C-2.99 36.67 -3.98 36.34 -5 36 C-6.42808972 31.71573084 -6.91140875 27.06585984 -5.0625 22.875 C-4.711875 22.25625 -4.36125 21.6375 -4 21 C-3.61709538 19.00889599 -3.27395385 17.00899487 -3 15 C-1.68 14.67 -0.36 14.34 1 14 C0.84402344 13.32453125 0.68804688 12.6490625 0.52734375 11.953125 C0.33269531 11.06109375 0.13804688 10.1690625 -0.0625 9.25 C-0.25972656 8.36828125 -0.45695313 7.4865625 -0.66015625 6.578125 C-0.99825872 4.01320972 -0.81158635 2.42908361 0 0 Z " fill="#36251B" transform="translate(13,8)"/>
<path d="M0 0 C2.4375 0.8125 2.4375 0.8125 4.4375 3.8125 C4.07861965 6.77326291 3.59091979 7.65908021 1.4375 9.8125 C-2.1875 9.9375 -2.1875 9.9375 -5.5625 9.8125 C-5.85546875 3.7578125 -5.85546875 3.7578125 -5.5625 1.8125 C-2.5625 -0.1875 -2.5625 -0.1875 0 0 Z " fill="#2E241B" transform="translate(42.5625,21.1875)"/>
<path d="M0 0 C0.99 0.33 1.98 0.66 3 1 C3.05399736 2.45792884 3.09279177 3.91642712 3.125 5.375 C3.14820313 6.18710938 3.17140625 6.99921875 3.1953125 7.8359375 C3 10 3 10 1 12 C-1.125 11.625 -1.125 11.625 -3 11 C-3.75 8.3125 -3.75 8.3125 -4 5 C-2.0625 2.125 -2.0625 2.125 0 0 Z " fill="#F98607" transform="translate(45,8)"/>
<path d="M0 0 C0.33 0 0.66 0 1 0 C1.061875 0.78375 1.12375 1.5675 1.1875 2.375 C1.455625 3.24125 1.72375 4.1075 2 5 C4.47636012 6.37466625 4.47636012 6.37466625 7 7 C7 8.65 7 10.3 7 12 C5.35 12.66 3.7 13.32 2 14 C0.68 11.36 -0.64 8.72 -2 6 C-1.34 6 -0.68 6 0 6 C0 4.02 0 2.04 0 0 Z " fill="#E59D25" transform="translate(36,25)"/>
<path d="M0 0 C0 0.33 0 0.66 0 1 C-2.31 1.33 -4.62 1.66 -7 2 C-7.66 4.31 -8.32 6.62 -9 9 C-10.98 9.33 -12.96 9.66 -15 10 C-15.33 9.34 -15.66 8.68 -16 8 C-11.34520714 0.35284031 -8.54676677 -0.28489223 0 0 Z " fill="#E7A126" transform="translate(32,13)"/>
<path d="M0 0 C5.625 1.125 5.625 1.125 8 4 C6.48601545 7.78496138 5.9855604 8.0072198 2 10 C1.34 6.7 0.68 3.4 0 0 Z " fill="#EF981E" transform="translate(13,8)"/>
<path d="M0 0 C0.33 0 0.66 0 1 0 C1.12962963 6.61111111 1.12962963 6.61111111 0.1875 9.4375 C-0.08661348 13.1837176 1.76633432 15.23104318 3.87109375 18.23046875 C5 20 5 20 5 22 C4.01 22.33 3.02 22.66 2 23 C1.74605469 22.40832031 1.49210937 21.81664063 1.23046875 21.20703125 C-0.61781335 16.96359706 -2.48318405 12.90106471 -5 9 C-4.01 8.67 -3.02 8.34 -2 8 C-1.19787372 6.12612784 -1.19787372 6.12612784 -0.8125 3.9375 C-0.65394531 3.20402344 -0.49539062 2.47054688 -0.33203125 1.71484375 C-0.22246094 1.14894531 -0.11289062 0.58304688 0 0 Z " fill="#3B2213" transform="translate(49,10)"/>
<path d="M0 0 C1.32 0.33 2.64 0.66 4 1 C3.84819155 3.65664779 3.47988575 5.45217862 1.703125 7.48046875 C0.125 8.875 0.125 8.875 -3 11 C-3.99 10.67 -4.98 10.34 -6 10 C-5.65066406 9.44570313 -5.30132812 8.89140625 -4.94140625 8.3203125 C-4.48636719 7.59585938 -4.03132813 6.87140625 -3.5625 6.125 C-3.11003906 5.40570313 -2.65757813 4.68640625 -2.19140625 3.9453125 C-0.97538499 2.0222453 -0.97538499 2.0222453 0 0 Z " fill="#F7F8F6" transform="translate(47,37)"/>
<path d="M0 0 C2 2 2 2 2 5 C-0.8125 5.6875 -0.8125 5.6875 -4 6 C-5.875 4.6875 -5.875 4.6875 -7 3 C-7 2.34 -7 1.68 -7 1 C-4.48718205 -0.25640898 -2.78302919 -0.20872719 0 0 Z " fill="#26242F" transform="translate(29,31)"/>
<path d="M0 0 C2.125 0.375 2.125 0.375 4 1 C4.5625 2.9375 4.5625 2.9375 5 5 C4 6 4 6 1.4375 6.0625 C0.2309375 6.0315625 0.2309375 6.0315625 -1 6 C-1.625 4.125 -1.625 4.125 -2 2 C-1.34 1.34 -0.68 0.68 0 0 Z " fill="#F9F9F9" transform="translate(40,23)"/>
<path d="M0 0 C-0.33 0.99 -0.66 1.98 -1 3 C-4.63 3 -8.26 3 -12 3 C-12 2.34 -12 1.68 -12 1 C-7.93631321 0.22596442 -4.13574827 -0.0984702 0 0 Z " fill="#221F2A" transform="translate(35,51)"/>
<path d="M0 0 C0 2.64 0 5.28 0 8 C-1.32 8.33 -2.64 8.66 -4 9 C-4.368 3.48 -4.368 3.48 -2.5625 1.125 C-1 0 -1 0 0 0 Z " fill="#F38009" transform="translate(48,27)"/>
<path d="M0 0 C0.99 0.33 1.98 0.66 3 1 C3 2.65 3 4.3 3 6 C2.01 6.33 1.02 6.66 0 7 C-0.66 6.34 -1.32 5.68 -2 5 C-1.46428571 1.46428571 -1.46428571 1.46428571 0 0 Z " fill="#F5F5F4" transform="translate(13,23)"/>
<path d="M0 0 C6.13545817 -0.66932271 6.13545817 -0.66932271 8.9375 1.5 C9.288125 1.995 9.63875 2.49 10 3 C8.0625 3.5625 8.0625 3.5625 6 4 C5.67 3.67 5.34 3.34 5 3 C2.66702567 2.95907063 0.33294775 2.95758277 -2 3 C-1.34 2.01 -0.68 1.02 0 0 Z " fill="#F9F6E8" transform="translate(24,29)"/>
<path d="M0 0 C1.32 0.33 2.64 0.66 4 1 C3.67 2.65 3.34 4.3 3 6 C2.01 6.33 1.02 6.66 0 7 C0 4.69 0 2.38 0 0 Z " fill="#F5850F" transform="translate(15,11)"/>
<path d="M0 0 C1.98 0.495 1.98 0.495 4 1 C4 2.65 4 4.3 4 6 C2.35 5.67 0.7 5.34 -1 5 C-0.67 3.35 -0.34 1.7 0 0 Z " fill="#FBA207" transform="translate(39,31)"/>
<path d="M0 0 C2.97 0.495 2.97 0.495 6 1 C6 1.99 6 2.98 6 4 C4.35 4 2.7 4 1 4 C0.67 2.68 0.34 1.36 0 0 Z " fill="#F9F6E6" transform="translate(37,18)"/>
<path d="M0 0 C1.4606285 2.64738916 2 3.89448334 2 7 C0.68 6.67 -0.64 6.34 -2 6 C-2 5.01 -2 4.02 -2 3 C-2.66 2.67 -3.32 2.34 -4 2 C-2.68 2 -1.36 2 0 2 C0 1.34 0 0.68 0 0 Z " fill="#F1A625" transform="translate(39,12)"/>
<path d="M0 0 C1.98 0 3.96 0 6 0 C5.67 1.65 5.34 3.3 5 5 C3.35 3.35 1.7 1.7 0 0 Z " fill="#D29026" transform="translate(10,31)"/>
<path d="M0 0 C0 0.99 0 1.98 0 3 C-1.65 3.33 -3.3 3.66 -5 4 C-5 3.01 -5 2.02 -5 1 C-3 0 -3 0 0 0 Z " fill="#FBF8E6" transform="translate(22,19)"/>
<path d="M0 0 C1.65 1.32 3.3 2.64 5 4 C4.67 4.66 4.34 5.32 4 6 C2.68 6 1.36 6 0 6 C0 4.02 0 2.04 0 0 Z " fill="#EC8321" transform="translate(50,10)"/>
</svg>
