<svg xmlns="http://www.w3.org/2000/svg" width="256" height="257" fill="none" xmlns:v="https://vecta.io/nano"><path d="M128 256.4c70.692 0 128-57.308 128-128S198.692.4 128 .4 0 57.708 0 128.4s57.308 128 128 128z" fill="#000"/><g fill="#fff"><path d="M168.188 146.098c.576 4.166 1.712 7.278 3.402 9.34 3.094 3.754 8.392 5.63 15.898 5.63 4.496 0 8.146-.494 10.95-1.484 5.32-1.898 7.98-5.424 7.98-10.579 0-3.011-1.32-5.342-3.958-6.992-2.64-1.608-6.784-3.03-12.436-4.268l-9.65-2.164c-9.486-2.146-16.042-4.476-19.672-6.992-6.144-4.206-9.218-10.784-9.218-19.734 0-8.166 2.97-14.95 8.908-20.353s14.662-8.104 26.168-8.104c9.61 0 17.806 2.546 24.59 7.64s10.342 12.486 10.672 22.178H203.51c-.33-5.486-2.722-9.382-7.176-11.692-2.968-1.526-6.66-2.29-11.072-2.29-4.908 0-8.826.99-11.754 2.97s-4.392 4.742-4.392 8.29c0 3.258 1.442 5.692 4.33 7.3 1.855 1.072 5.814 2.331 11.877 3.775l15.713 3.772c6.887 1.65 12.083 3.856 15.589 6.62 5.444 4.29 8.166 10.496 8.166 18.62 0 8.332-3.186 15.25-9.558 20.756s-15.372 8.258-27.004 8.258c-11.876 0-21.218-2.712-28.022-8.136s-10.208-12.876-10.208-22.362h18.189v.001z"/><path fill-rule="evenodd" d="M56 52.4v152h132v-14H72v-124h116v-14H56h0z"/></g></svg>