<?xml version="1.0" encoding="UTF-8"?>
<svg version="1.1" xmlns="http://www.w3.org/2000/svg" width="200" height="200">
<path d="M0 0 C1.25296875 0.4125 2.5059375 0.825 3.796875 1.25 C28.74462541 10.06760046 48.21993996 28.50355897 60.08447266 52.01074219 C70.70512729 75.08730057 73.09510894 102.81586203 65 127 C64.5875 128.25296875 64.175 129.5059375 63.75 130.796875 C54.93239954 155.74462541 36.49644103 175.21993996 12.98925781 187.08447266 C-10.08730057 197.70512729 -37.81586203 200.09510894 -62 192 C-63.87945312 191.38125 -63.87945312 191.38125 -65.796875 190.75 C-90.74462541 181.93239954 -110.21993996 163.49644103 -122.08447266 139.98925781 C-132.70512729 116.91269943 -135.09510894 89.18413797 -127 65 C-126.5875 63.74703125 -126.175 62.4940625 -125.75 61.203125 C-116.93239954 36.25537459 -98.49644103 16.78006004 -74.98925781 4.91552734 C-51.91269943 -5.70512729 -24.18413797 -8.09510894 0 0 Z " fill="#FE414C" transform="translate(131,4)"/>
<path d="M0 0 C1.25296875 0.4125 2.5059375 0.825 3.796875 1.25 C28.74462541 10.06760046 48.21993996 28.50355897 60.08447266 52.01074219 C70.70512729 75.08730057 73.09510894 102.81586203 65 127 C64.5875 128.25296875 64.175 129.5059375 63.75 130.796875 C54.93239954 155.74462541 36.49644103 175.21993996 12.98925781 187.08447266 C-10.08730057 197.70512729 -37.81586203 200.09510894 -62 192 C-63.87945312 191.38125 -63.87945312 191.38125 -65.796875 190.75 C-90.74462541 181.93239954 -110.21993996 163.49644103 -122.08447266 139.98925781 C-132.70512729 116.91269943 -135.09510894 89.18413797 -127 65 C-126.5875 63.74703125 -126.175 62.4940625 -125.75 61.203125 C-116.93239954 36.25537459 -98.49644103 16.78006004 -74.98925781 4.91552734 C-51.91269943 -5.70512729 -24.18413797 -8.09510894 0 0 Z M-81.53125 37.5703125 C-82.3459375 38.37210938 -83.160625 39.17390625 -84 40 C-85.37671875 41.23363281 -85.37671875 41.23363281 -86.78125 42.4921875 C-101.60420733 56.21563975 -107.79924394 74.85452715 -108.9453125 94.7421875 C-109.42863427 114.69647198 -101.56165127 135.45388284 -88.0625 150.125 C-73.8058213 164.91949745 -54.78209275 173.75999341 -34.25683594 174.47094727 C-10.88551313 174.72295772 8.61459924 167.05632296 25.390625 150.6640625 C41.49429365 133.7387781 47.74531108 113.42988343 47.3046875 90.58203125 C46.57345 72.75736166 38.96823455 56.11855567 27 43 C26.48308594 42.3915625 25.96617187 41.783125 25.43359375 41.15625 C11.83253284 26.15758634 -9.59816366 19.19884392 -29.25390625 18.03515625 C-48.52319033 17.85431834 -67.55526823 24.09347294 -81.53125 37.5703125 Z " fill="#E6515A" transform="translate(131,4)"/>
<path d="M0 0 C4.37380837 -0.2497782 8.74370806 -0.42978019 13.12255859 -0.54931641 C14.60701873 -0.5991953 16.09099793 -0.66713623 17.57373047 -0.75439453 C29.83905536 -1.45739697 29.83905536 -1.45739697 35.12548828 2.10791016 C37.65030905 4.61973314 39.83541263 7.17570878 42 10 C43.36649254 11.54921246 44.74000313 13.092308 46.125 14.625 C47.08713429 15.74675104 48.04709549 16.87039796 49 18 C52.17120474 16.65160711 53.67220345 15.39229839 55.546875 12.5234375 C60.04886263 6.47799415 64.1289668 1.70853072 71.83349609 0.29833984 C81.18416924 -0.51721821 90.67271126 0.17752496 100 1 C103.60369805 12.7117358 105.34754338 25.5791403 100 37 C93.19962753 47.03239186 84.26372561 55.45032164 75.5 63.75 C74.91406696 64.30511639 74.32813393 64.86023277 73.72444534 65.43217087 C66.28983696 72.44824927 58.71327803 79.29118422 51 86 C40.56501059 81.3841497 31.48841871 70.51533562 23.25 62.6875 C22.6973283 62.16372143 22.1446566 61.63994286 21.57523727 61.10029221 C-2.26458695 38.37551087 -2.26458695 38.37551087 -3.27914429 23.01979065 C-3.33045751 15.19845018 -2.11510413 7.51675468 0 0 Z " fill="#FBE9E9" transform="translate(50,66)"/>
</svg>
