<?xml version="1.0" encoding="UTF-8"?>
<svg version="1.1" xmlns="http://www.w3.org/2000/svg" width="64" height="64">
<path d="M0 0 C3.8823434 2.85842865 6.81001839 5.82582748 9.48828125 9.83203125 C9.92011719 10.45207031 10.35195313 11.07210938 10.796875 11.7109375 C14.96558776 19.08191405 14.67540439 28.65530454 13.48828125 36.83203125 C11.04361228 45.02256452 6.57174916 51.09652849 -0.51171875 55.83203125 C-1.13175781 56.26386719 -1.75179687 56.69570313 -2.390625 57.140625 C-9.76160155 61.30933776 -19.33499204 61.01915439 -27.51171875 59.83203125 C-35.70225202 57.38736228 -41.77621599 52.91549916 -46.51171875 45.83203125 C-46.94355469 45.21199219 -47.37539063 44.59195313 -47.8203125 43.953125 C-51.98902526 36.58214845 -51.69884189 27.00875796 -50.51171875 18.83203125 C-48.06704978 10.64149798 -43.59518666 4.56753401 -36.51171875 -0.16796875 C-35.58166016 -0.81572266 -35.58166016 -0.81572266 -34.6328125 -1.4765625 C-24.45608447 -7.2320897 -9.7207284 -5.7410111 0 0 Z " fill="#F5A02D" transform="translate(50.51171875,4.16796875)"/>
<path d="M0 0 C7.32352548 2.35399033 12.25157058 7.32182227 16.1015625 13.875 C18.9529003 20.27052404 19.1458664 27.81791132 17.30859375 34.5234375 C15.26373568 39.53718991 12.39761289 44.70955083 8 48 C4.125 48.4375 4.125 48.4375 1 48 C1.33 48.99 1.66 49.98 2 51 C-4.2432515 53.84819868 -10.99675606 54.16436181 -17.60546875 52.2421875 C-23.43182264 49.76330327 -28.6265976 46.50397234 -32 41 C-32 40.01 -32 39.02 -32 38 C-32.66 38 -33.32 38 -34 38 C-35.33583899 33.15758367 -36.25328119 29.06562383 -36 24 C-34.68 23.34 -33.36 22.68 -32 22 C-31.90203125 22.72445313 -31.8040625 23.44890625 -31.703125 24.1953125 C-30.78482875 30.13257274 -29.91063527 34.37834014 -26 39 C-22.5647952 41.29013653 -21.014669 41.17842973 -17 41 C-16.14964067 36.93717209 -16.04717757 34.02302804 -17 30 C-17 28.68 -17 27.36 -17 26 C-17.5878125 24.8553125 -17.5878125 24.8553125 -18.1875 23.6875 C-19 21 -19 21 -17.75 17.25 C-16 14 -16 14 -14 13 C-12.37731009 12.90388248 -10.75052694 12.87017648 -9.125 12.875 C-8.26132812 12.87242188 -7.39765625 12.86984375 -6.5078125 12.8671875 C-4.18114445 12.99040668 -2.24372086 13.42067863 0 14 C1.19625 14 2.3925 14 3.625 14 C7 14 7 14 9 15 C9 15.66 9 16.32 9 17 C9.66 17 10.32 17 11 17 C7.4551518 11.49937349 4.19895201 9.85162765 -2.15234375 8.3984375 C-8.49362289 7.51118034 -14.05420089 8.71315419 -20 11 C-8.25899281 -1.47482014 -8.25899281 -1.47482014 0 0 Z " fill="#F19817" transform="translate(41,6)"/>
<path d="M0 0 C6.49179298 4.00264693 11.23010724 10.71177497 13.64453125 17.92578125 C15.37743301 28.03754866 14.11186289 37.6195231 8.52734375 46.28515625 C3.6143991 52.49892785 -3.22109438 56.45054319 -11 58 C-17.48780488 58.34146341 -17.48780488 58.34146341 -21 56 C-20.24976562 55.91363281 -19.49953125 55.82726563 -18.7265625 55.73828125 C-8.90064038 54.38938262 -0.72646484 51.88341709 5.74609375 44.0390625 C10.70348814 35.97750527 10.95693897 28.2321826 10 19 C7.99504063 12.04056325 4.09075331 6.88525948 -2 3 C-9.59373149 -1.06807044 -19.29433403 -1.69088885 -27.5703125 0.76171875 C-29.53024399 1.70442344 -31.2357594 2.73291448 -33 4 C-33.886875 4.5775 -34.77375 5.155 -35.6875 5.75 C-41.6478255 11.54923562 -44.15651193 17.68666838 -44.4375 25.9375 C-44.5038074 34.48183007 -42.19227029 41.73150661 -36.06640625 47.96875 C-32.066858 51.14967726 -27.76530643 53.21301009 -23 55 C-23 55.33 -23 55.66 -23 56 C-30.42548326 55.51170291 -36.8953313 54.5905422 -42.1875 48.875 C-43.16049007 47.60985205 -44.09856177 46.31708699 -45 45 C-45.41636719 44.39800781 -45.83273438 43.79601563 -46.26171875 43.17578125 C-50.53581048 35.54240338 -49.32825722 26.45262336 -49 18 C-48.34 18 -47.68 18 -47 18 C-46.79375 17.175 -46.5875 16.35 -46.375 15.5 C-43.17583363 7.35666741 -37.70897308 2.03436258 -30 -2 C-19.99356202 -5.94315775 -9.48086736 -4.86978741 0 0 Z " fill="#E3C33D" transform="translate(49,5)"/>
<path d="M0 0 C3.8823434 2.85842865 6.81001839 5.82582748 9.48828125 9.83203125 C9.92011719 10.45207031 10.35195313 11.07210938 10.796875 11.7109375 C14.96558776 19.08191405 14.67540439 28.65530454 13.48828125 36.83203125 C11.04361228 45.02256452 6.57174916 51.09652849 -0.51171875 55.83203125 C-1.13175781 56.26386719 -1.75179687 56.69570313 -2.390625 57.140625 C-9.7066206 61.27824286 -19.38093249 61.00115153 -27.51171875 59.83203125 C-31.20849353 58.59977299 -34.3282731 57.07164125 -37.51171875 54.83203125 C-36.52171875 54.33703125 -36.52171875 54.33703125 -35.51171875 53.83203125 C-33.84203903 54.49111535 -32.1756392 55.15853964 -30.51171875 55.83203125 C-29.19171875 55.83203125 -27.87171875 55.83203125 -26.51171875 55.83203125 C-27.70796875 55.27515625 -28.90421875 54.71828125 -30.13671875 54.14453125 C-38.90255061 49.6535857 -43.38822296 44.30948765 -46.51171875 34.83203125 C-47.6276359 26.53028398 -47.58494041 18.75606993 -42.51171875 11.83203125 C-42.12628906 11.28160156 -41.74085937 10.73117187 -41.34375 10.1640625 C-37.46560812 5.081061 -32.5343747 1.82257008 -26.51171875 -0.16796875 C-15.75743839 -1.21419964 -7.49100401 -0.10858501 1.23828125 6.45703125 C6.99755308 11.88068118 9.65036777 17.81825462 10.08032227 25.73901367 C10.21869661 34.526297 8.53068415 41.10370025 2.76171875 47.8515625 C-3.4216782 53.89500602 -11.15840498 56.29682764 -19.51171875 57.83203125 C-11.62802317 58.53280419 -3.92544687 56.04028954 2.36328125 51.20703125 C7.87621873 46.01214785 11.10844085 38.42747744 11.7265625 30.94921875 C11.9305545 22.0379893 10.45458429 15.66600657 5.80078125 8.08203125 C-1.43252201 1.04422268 -8.74269931 -2.16564872 -18.82421875 -2.54296875 C-27.34896463 -2.38637181 -34.5742648 0.08563653 -40.90625 5.90625 C-44.1386188 9.78351964 -46.315965 14.31183489 -48.51171875 18.83203125 C-49.51171875 15.83203125 -49.51171875 15.83203125 -48.54296875 13.5625 C-45.17772157 7.97378594 -41.97537306 3.47446746 -36.51171875 -0.16796875 C-35.91359375 -0.58046875 -35.31546875 -0.99296875 -34.69921875 -1.41796875 C-24.44961214 -7.18337247 -9.80711838 -5.79203257 0 0 Z M-39.51171875 9.83203125 C-42.75477365 14.18043606 -44.18579771 18.40001386 -44.51171875 23.83203125 C-44.18171875 24.16203125 -43.85171875 24.49203125 -43.51171875 24.83203125 C-44.17171875 25.16203125 -44.83171875 25.49203125 -45.51171875 25.83203125 C-45.37038376 27.60322928 -45.22348667 29.37398412 -45.07421875 31.14453125 C-44.99300781 32.13066406 -44.91179688 33.11679687 -44.828125 34.1328125 C-44.59359316 36.92578724 -44.59359316 36.92578724 -43.51171875 39.83203125 C-42.85171875 39.83203125 -42.19171875 39.83203125 -41.51171875 39.83203125 C-41.42921875 40.38890625 -41.34671875 40.94578125 -41.26171875 41.51953125 C-39.47915968 47.01575505 -35.35103774 50.02522624 -30.51171875 52.83203125 C-24.33267641 55.77443237 -16.08784152 56.09705427 -9.640625 53.81640625 C-8.58681641 53.32914063 -8.58681641 53.32914063 -7.51171875 52.83203125 C-7.84171875 51.84203125 -8.17171875 50.85203125 -8.51171875 49.83203125 C-6.99578125 50.07953125 -6.99578125 50.07953125 -5.44921875 50.33203125 C-0.39654408 49.69042177 0.93829887 48.00301983 3.9765625 44.09765625 C8.64830029 37.0960854 9.46789586 30.1752658 8.48828125 21.83203125 C6.5992495 14.93759899 2.5708938 8.38075901 -3.5703125 4.546875 C-16.00741117 -1.8200067 -29.55935909 -0.35728936 -39.51171875 9.83203125 Z " fill="#7C5C06" transform="translate(50.51171875,4.16796875)"/>
<path d="M0 0 C0.86367188 -0.00257812 1.72734375 -0.00515625 2.6171875 -0.0078125 C4.94187281 0.11530168 6.88125825 0.55596859 9.125 1.125 C10.259375 1.063125 11.39375 1.00125 12.5625 0.9375 C16.125 1.125 16.125 1.125 19 2.75 C21.58922971 5.64384497 22.125 7.25701853 22.125 11.125 C20.875 13.5 20.875 13.5 19.125 15.125 C18.135 15.125 17.145 15.125 16.125 15.125 C16.785 13.475 17.445 11.825 18.125 10.125 C17.465 10.125 16.805 10.125 16.125 10.125 C16.125 8.805 16.125 7.485 16.125 6.125 C13.815 6.125 11.505 6.125 9.125 6.125 C9.125 5.465 9.125 4.805 9.125 4.125 C8.135 4.62 8.135 4.62 7.125 5.125 C5.08444995 5.19565617 3.04165743 5.20921976 1 5.1875 C-0.09570312 5.17847656 -1.19140625 5.16945313 -2.3203125 5.16015625 C-3.58488281 5.14275391 -3.58488281 5.14275391 -4.875 5.125 C-4.875 6.115 -4.875 7.105 -4.875 8.125 C-4.215 8.125 -3.555 8.125 -2.875 8.125 C-3.205 9.775 -3.535 11.425 -3.875 13.125 C-0.41 12.63 -0.41 12.63 3.125 12.125 C3.455 10.145 3.785 8.165 4.125 6.125 C4.785 6.125 5.445 6.125 6.125 6.125 C5.795 9.095 5.465 12.065 5.125 15.125 C3.805 15.455 2.485 15.785 1.125 16.125 C1.89979736 19.11652582 1.89979736 19.11652582 3.125 22.125 C4.115 22.455 5.105 22.785 6.125 23.125 C6.455 22.135 6.785 21.145 7.125 20.125 C7.125 21.115 7.125 22.105 7.125 23.125 C10.12884054 22.4295656 10.12884054 22.4295656 13.125 21.125 C14.09377057 19.09256452 14.09377057 19.09256452 14.125 17.125 C13.135 16.795 12.145 16.465 11.125 16.125 C11.125 15.465 11.125 14.805 11.125 14.125 C15.80192308 15.60192308 15.80192308 15.60192308 17.4375 18.25 C17.664375 18.86875 17.89125 19.4875 18.125 20.125 C15.64916095 24.34849015 12.69264193 25.60245269 8.125 27.125 C2.57457842 27.93233405 -0.77148882 26.6313088 -5.2734375 23.5546875 C-6.875 22.125 -6.875 22.125 -7.875 19.5625 C-7.875 17.41666667 -7.875 15.27083333 -7.875 13.125 C-8.266875 12.361875 -8.65875 11.59875 -9.0625 10.8125 C-9.875 8.125 -9.875 8.125 -8.625 4.375 C-6.20331843 -0.12240863 -4.81414542 -0.0142853 0 0 Z " fill="#BBAF99" transform="translate(31.875,18.875)"/>
<path d="M0 0 C0.09796875 0.72445313 0.1959375 1.44890625 0.296875 2.1953125 C1.52376468 10.2983253 1.52376468 10.2983253 6 17 C11.96397014 21.25018562 18.42248434 21.50284411 25.50292969 21.40942383 C27.5234375 21.43359375 27.5234375 21.43359375 31 22 C32.98139736 24.41605173 34 25.85261198 34 29 C27.7567485 31.84819868 21.00324394 32.16436181 14.39453125 30.2421875 C8.56817736 27.76330327 3.3734024 24.50397234 0 19 C0 18.01 0 17.02 0 16 C-0.66 16 -1.32 16 -2 16 C-4.56133056 6.71517672 -4.56133056 6.71517672 -4 2 C-1 0 -1 0 0 0 Z " fill="#44A94A" transform="translate(9,28)"/>
<path d="M0 0 C0 0.66 0 1.32 0 2 C2.31 2 4.62 2 7 2 C7 3.32 7 4.64 7 6 C7.66 6 8.32 6 9 6 C8.34 7.65 7.68 9.3 7 11 C8.65 10.34 10.3 9.68 12 9 C11.52269162 10.4589426 11.04308958 11.91713496 10.5625 13.375 C10.29566406 14.18710937 10.02882813 14.99921875 9.75390625 15.8359375 C9 18 9 18 8 20 C7.34 19.67 6.68 19.34 6 19 C6.66 17.35 7.32 15.7 8 14 C6.02 12.68 4.04 11.36 2 10 C2.515625 10.391875 3.03125 10.78375 3.5625 11.1875 C5 13 5 13 4.75 15.625 C4 18 4 18 3 19 C1.00390625 19.16796875 1.00390625 19.16796875 -1.4375 19.1875 C-2.64212891 19.20876953 -2.64212891 19.20876953 -3.87109375 19.23046875 C-6 19 -6 19 -8 17 C-8.3125 14.5 -8.3125 14.5 -8 12 C-7.01 11.34 -6.02 10.68 -5 10 C-4.21011855 8.04614933 -4.21011855 8.04614933 -3.8125 5.875 C-3.544375 4.59625 -3.27625 3.3175 -3 2 C-3.66 2 -4.32 2 -5 2 C-4.979375 2.969375 -4.95875 3.93875 -4.9375 4.9375 C-5 8 -5 8 -6 9 C-8.33297433 9.04092937 -10.66705225 9.04241723 -13 9 C-12.67 7.35 -12.34 5.7 -12 4 C-12.66 4 -13.32 4 -14 4 C-14 3.01 -14 2.02 -14 1 C-12.04175306 0.83232136 -10.08339945 0.66588795 -8.125 0.5 C-6.48917969 0.36078125 -6.48917969 0.36078125 -4.8203125 0.21875 C-3.21670436 0.09437042 -1.60842449 0 0 0 Z " fill="#9B917C" transform="translate(41,23)"/>
<path d="M0 0 C6.51545509 0.78321673 12.45851885 1.88862962 17.6171875 6.14453125 C19.1171875 8.08203125 19.1171875 8.08203125 19.1171875 10.08203125 C18.4571875 10.08203125 17.7971875 10.08203125 17.1171875 10.08203125 C17.1171875 9.42203125 17.1171875 8.76203125 17.1171875 8.08203125 C15.83521484 8.09943359 15.83521484 8.09943359 14.52734375 8.1171875 C13.42261719 8.12621094 12.31789062 8.13523437 11.1796875 8.14453125 C10.07753906 8.15613281 8.97539063 8.16773438 7.83984375 8.1796875 C5.1171875 8.08203125 5.1171875 8.08203125 4.1171875 7.08203125 C2.09754551 7.00959072 0.07551626 6.99825937 -1.9453125 7.01953125 C-3.05003906 7.02855469 -4.15476562 7.03757812 -5.29296875 7.046875 C-6.14761719 7.05847656 -7.00226562 7.07007813 -7.8828125 7.08203125 C-8.76818319 10.06299154 -9.5483581 12.98563082 -9.8828125 16.08203125 C-8.4911249 18.21547893 -8.4911249 18.21547893 -6.8828125 20.08203125 C-7.1953125 23.58203125 -7.1953125 23.58203125 -7.8828125 27.08203125 C-7.8828125 28.40203125 -7.8828125 29.72203125 -7.8828125 31.08203125 C-8.3778125 32.56703125 -8.3778125 32.56703125 -8.8828125 34.08203125 C-11.5703125 34.83203125 -11.5703125 34.83203125 -14.8828125 35.08203125 C-17.8575674 33.29717831 -19.50496667 32.12837354 -20.6953125 28.83203125 C-20.788125 27.96578125 -20.788125 27.96578125 -20.8828125 27.08203125 C-20.2228125 27.41203125 -19.5628125 27.74203125 -18.8828125 28.08203125 C-18.8828125 28.74203125 -18.8828125 29.40203125 -18.8828125 30.08203125 C-17.2328125 30.08203125 -15.5828125 30.08203125 -13.8828125 30.08203125 C-13.8828125 28.76203125 -13.8828125 27.44203125 -13.8828125 26.08203125 C-13.2228125 26.08203125 -12.5628125 26.08203125 -11.8828125 26.08203125 C-11.8828125 25.42203125 -11.8828125 24.76203125 -11.8828125 24.08203125 C-12.8728125 23.75203125 -13.8628125 23.42203125 -14.8828125 23.08203125 C-14.96469736 21.20777777 -15.02240007 19.33246071 -15.0703125 17.45703125 C-15.10511719 16.41289062 -15.13992187 15.36875 -15.17578125 14.29296875 C-14.82278353 10.42411375 -14.20589101 8.21795632 -11.8828125 5.08203125 C-9.07766685 4.47208236 -7.05948922 4.24056655 -4.2578125 4.26953125 C0.2970366 4.6174723 0.2970366 4.6174723 4.1171875 3.08203125 C1.4771875 2.75203125 -1.1628125 2.42203125 -3.8828125 2.08203125 C-1.8828125 0.08203125 -1.8828125 0.08203125 0 0 Z " fill="#E18613" transform="translate(32.8828125,12.91796875)"/>
<path d="M0 0 C3.8823434 2.85842865 6.81001839 5.82582748 9.48828125 9.83203125 C9.92011719 10.45207031 10.35195313 11.07210938 10.796875 11.7109375 C14.96558776 19.08191405 14.67540439 28.65530454 13.48828125 36.83203125 C11.04361228 45.02256452 6.57174916 51.09652849 -0.51171875 55.83203125 C-1.13175781 56.26386719 -1.75179687 56.69570313 -2.390625 57.140625 C-9.9425667 61.411684 -19.13594492 60.15730402 -27.51171875 59.83203125 C-27.51171875 59.50203125 -27.51171875 59.17203125 -27.51171875 58.83203125 C-26.55652344 58.80625 -25.60132812 58.78046875 -24.6171875 58.75390625 C-14.14188498 58.29437154 -4.01450844 57.21687153 3.98828125 49.67578125 C10.99261254 41.0662907 12.3923265 31.60626916 11.48828125 20.83203125 C9.12120129 11.73165131 4.65273384 6.09758564 -3.234375 1.125 C-10.72441616 -3.12749335 -20.03318385 -3.50530875 -28.328125 -1.48046875 C-38.98896749 2.42579415 -43.64706675 8.81761943 -48.51171875 18.83203125 C-49.51171875 15.83203125 -49.51171875 15.83203125 -48.54296875 13.5625 C-45.17772157 7.97378594 -41.97537306 3.47446746 -36.51171875 -0.16796875 C-35.91359375 -0.58046875 -35.31546875 -0.99296875 -34.69921875 -1.41796875 C-24.44961214 -7.18337247 -9.80711838 -5.79203257 0 0 Z " fill="#352502" transform="translate(50.51171875,4.16796875)"/>
<path d="M0 0 C0.66 0.33 1.32 0.66 2 1 C-0.25350062 6.07352374 -2.35035217 10.72411175 -7 14 C-9.88436067 14.10742498 -12.14241972 13.62963633 -15 13 C-15.33 12.01 -15.66 11.02 -16 10 C-17.12019531 10.03480469 -18.24039063 10.06960937 -19.39453125 10.10546875 C-20.86717251 10.13360839 -22.33982998 10.16090837 -23.8125 10.1875 C-24.91948242 10.22520508 -24.91948242 10.22520508 -26.04882812 10.26367188 C-31.54974762 10.33834499 -31.54974762 10.33834499 -34.01171875 8.48828125 C-34.33785156 7.99714844 -34.66398437 7.50601563 -35 7 C-34.01 7 -33.02 7 -32 7 C-31.87625 6.360625 -31.7525 5.72125 -31.625 5.0625 C-31.41875 4.381875 -31.2125 3.70125 -31 3 C-30.34 2.67 -29.68 2.34 -29 2 C-28.113125 2.474375 -27.22625 2.94875 -26.3125 3.4375 C-22.51477818 5.22887822 -20.15285421 5.38452354 -16 5 C-14.6520257 4.36345658 -13.31403276 3.70394612 -12 3 C-11.01 3.33 -10.02 3.66 -9 4 C-9.99 5.65 -10.98 7.3 -12 9 C-8.87431094 8.63934357 -7.18678968 7.44331752 -4.875 5.4375 C-2 3 -2 3 0 3 C0 2.01 0 1.02 0 0 Z " fill="#F09416" transform="translate(56,40)"/>
<path d="M0 0 C2.48472365 2.48472365 2.18780384 3.87525264 2.22485352 7.25634766 C2.3368427 16.69170793 4.05535438 24.96526974 10.9296875 31.96484375 C14.93017723 35.14811281 19.2326636 37.21224885 24 39 C24 39.33 24 39.66 24 40 C16.57451674 39.51170291 10.1046687 38.5905422 4.8125 32.875 C3.83950993 31.60985205 2.90143823 30.31708699 2 29 C1.58363281 28.39800781 1.16726562 27.79601562 0.73828125 27.17578125 C-3.53581048 19.54240338 -2.32825722 10.45262336 -2 2 C-1.34 2 -0.68 2 0 2 C0 1.34 0 0.68 0 0 Z " fill="#8F792A" transform="translate(2,21)"/>
<path d="M0 0 C0 1.65 0 3.3 0 5 C-0.99 5 -1.98 5 -3 5 C-2.855625 5.70125 -2.71125 6.4025 -2.5625 7.125 C-3.16755532 11.10107781 -5.17115927 12.20849574 -8.2734375 14.5703125 C-10.25560171 16.07239724 -10.25560171 16.07239724 -12 19 C-12.02415584 21.9824577 -12.02415584 21.9824577 -11.625 25.1875 C-11.51414062 26.27417969 -11.40328125 27.36085938 -11.2890625 28.48046875 C-11.19367187 29.31191406 -11.09828125 30.14335938 -11 31 C-13 30 -13 30 -14 27 C-14.12781786 24.32605036 -14.04391871 21.67904143 -14 19 C-14.99 19 -15.98 19 -17 19 C-15.70463324 12.00501948 -14.34070064 7.34070064 -9.1875 2.1875 C-5.69398383 -0.2100111 -4.13229203 -0.49193953 0 0 Z " fill="#F7930A" transform="translate(23,9)"/>
<path d="M0 0 C0.66 0 1.32 0 2 0 C1.67 2.97 1.34 5.94 1 9 C-0.32 9.33 -1.64 9.66 -3 10 C-2.22520264 12.99152582 -2.22520264 12.99152582 -1 16 C-0.01 16.33 0.98 16.66 2 17 C2.33 16.01 2.66 15.02 3 14 C3 14.99 3 15.98 3 17 C6.00384054 16.3045656 6.00384054 16.3045656 9 15 C9.96877057 12.96756452 9.96877057 12.96756452 10 11 C9.01 10.67 8.02 10.34 7 10 C7 9.34 7 8.68 7 8 C11.67692308 9.47692308 11.67692308 9.47692308 13.3125 12.125 C13.6528125 13.053125 13.6528125 13.053125 14 14 C11.52416095 18.22349015 8.56764193 19.47745269 4 21 C-1.28005817 21.5557956 -4.43607115 20.67156811 -9 18 C-9 17.34 -9 16.68 -9 16 C-8.34 16 -7.68 16 -7 16 C-7 15.34 -7 14.68 -7 14 C-6.34 14 -5.68 14 -5 14 C-5 13.34 -5 12.68 -5 12 C-5.66 11.67 -6.32 11.34 -7 11 C-6 9 -6 9 -4.0625 8.3125 C-1.59365982 7.04208728 -1.59365982 7.04208728 -0.75 3.375 C-0.37875 1.704375 -0.37875 1.704375 0 0 Z " fill="#C8B89B" transform="translate(36,25)"/>
<path d="M0 0 C-0.53109375 0.23460937 -1.0621875 0.46921875 -1.609375 0.7109375 C-4.7177631 2.38702912 -7.45399703 4.48451926 -10.25 6.625 C-10.80429687 7.04523437 -11.35859375 7.46546875 -11.9296875 7.8984375 C-13.28866663 8.92938719 -14.64463835 9.96429911 -16 11 C-14.94683594 10.66226562 -13.89367187 10.32453125 -12.80859375 9.9765625 C-9.40909103 9.10489514 -7.44997911 8.85384937 -4.0625 9.375 C-2.90427734 9.54128906 -2.90427734 9.54128906 -1.72265625 9.7109375 C-1.15417969 9.80632813 -0.58570312 9.90171875 0 10 C-0.99 11.485 -0.99 11.485 -2 13 C-4.77262255 13.38394667 -7.34323528 13.60342248 -10.125 13.6875 C-10.87910156 13.72166016 -11.63320313 13.75582031 -12.41015625 13.79101562 C-14.27291201 13.87354278 -16.13643326 13.93844711 -18 14 C-18 12.35 -18 10.7 -18 9 C-17.01 9 -16.02 9 -15 9 C-15.27617533 7.05925139 -15.27617533 7.05925139 -16 5 C-16.99 4.34 -17.98 3.68 -19 3 C-12.47059106 0.04328652 -7.12600133 -0.35368021 0 0 Z " fill="#EC8D16" transform="translate(38,5)"/>
<path d="M0 0 C0.09796875 0.72445313 0.1959375 1.44890625 0.296875 2.1953125 C1.43866977 9.57760627 2.93011057 14.34873186 8.75 19.375 C9.4925 19.91125 10.235 20.4475 11 21 C10.34 21 9.68 21 9 21 C9 21.66 9 22.32 9 23 C10.32 23.66 11.64 24.32 13 25 C8.25 24.125 8.25 24.125 6 23 C5.67 23.66 5.34 24.32 5 25 C0 19.375 0 19.375 0 16 C-0.66 16 -1.32 16 -2 16 C-4.56133056 6.71517672 -4.56133056 6.71517672 -4 2 C-1 0 -1 0 0 0 Z " fill="#15A13A" transform="translate(9,28)"/>
<path d="M0 0 C0 0.66 0 1.32 0 2 C2.31 2 4.62 2 7 2 C7 3.32 7 4.64 7 6 C7.66 6 8.32 6 9 6 C8.67 6.99 8.34 7.98 8 9 C5.625 8.75 5.625 8.75 3 8 C1.6875 5.9375 1.6875 5.9375 1 4 C0.34 4 -0.32 4 -1 4 C-1.33 5.65 -1.66 7.3 -2 9 C-2.66 8.34 -3.32 7.68 -4 7 C-3.625 4.375 -3.625 4.375 -3 2 C-3.66 2 -4.32 2 -5 2 C-4.979375 2.969375 -4.95875 3.93875 -4.9375 4.9375 C-5 8 -5 8 -6 9 C-8.33297433 9.04092937 -10.66705225 9.04241723 -13 9 C-12.67 7.35 -12.34 5.7 -12 4 C-12.66 4 -13.32 4 -14 4 C-14 3.01 -14 2.02 -14 1 C-12.04175306 0.83232136 -10.08339945 0.66588795 -8.125 0.5 C-6.48917969 0.36078125 -6.48917969 0.36078125 -4.8203125 0.21875 C-3.21670436 0.09437042 -1.60842449 0 0 0 Z " fill="#828175" transform="translate(41,23)"/>
<path d="M0 0 C3.4375 1.5 3.4375 1.5 6 3 C-0.89715536 8.23232476 -0.89715536 8.23232476 -5.0625 7.9375 C-10.41940269 7.78771818 -14.98549802 9.24126026 -20 11 C-8.33898305 -1.38983051 -8.33898305 -1.38983051 0 0 Z " fill="#F39A1F" transform="translate(41,6)"/>
<path d="M0 0 C1.485 0.99 1.485 0.99 3 2 C2.154375 2.09796875 1.30875 2.1959375 0.4375 2.296875 C-8.73031618 3.50535986 -16.22747524 5.41051645 -23 12 C-24.80719889 14.58996818 -26.405775 17.27583307 -28 20 C-28.66 20.99 -29.32 21.98 -30 23 C-30.84291023 20.12804837 -31.23398604 18.56293713 -30.06640625 15.75390625 C-23.03139644 5.50289196 -13.02405129 -1.97801173 0 0 Z " fill="#E9CA4C" transform="translate(34,1)"/>
<path d="M0 0 C0.66 0 1.32 0 2 0 C2.515625 1.051875 3.03125 2.10375 3.5625 3.1875 C6.47574884 8.27281776 10.51601285 10.78689 15.6875 13.3125 C22.3856031 14.70267234 29.33901219 14.5277495 36 13 C35.34 11.68 34.68 10.36 34 9 C34.99 9.33 35.98 9.66 37 10 C37 10.66 37 11.32 37 12 C37.66 12.33 38.32 12.66 39 13 C37.43979133 13.65134925 35.87671421 14.29582964 34.3125 14.9375 C33.44238281 15.29714844 32.57226562 15.65679687 31.67578125 16.02734375 C29.11820735 16.9570312 26.6778677 17.54162625 24 18 C24 18.33 24 18.66 24 19 C16.71304215 19.474377 12.02818509 19.28670939 6 15 C6.66 14.67 7.32 14.34 8 14 C9.66967972 14.6590841 11.33607955 15.32650839 13 16 C14.32 16 15.64 16 17 16 C15.205625 15.1646875 15.205625 15.1646875 13.375 14.3125 C7.54204338 11.38053596 2.93615046 8.03542038 0 2 C0 1.34 0 0.68 0 0 Z " fill="#3A6D0F" transform="translate(7,44)"/>
<path d="M0 0 C8.26504181 4.13252091 12.82622108 9.2265077 16 18 C17.14541506 27.36376813 16.91876678 36.26878789 11 44 C8.56160176 46.66610858 6.14051595 49.18007758 3 51 C2.01 50.67 1.02 50.34 0 50 C-0.495 48.515 -0.495 48.515 -1 47 C-0.13375 47.144375 0.7325 47.28875 1.625 47.4375 C5.32026871 46.95848369 5.8076168 46.63039722 8.1875 44 C13.81304363 36.6026316 15.09277748 29.21575671 14 20 C11.71073228 11.93833141 7.26809135 6.15319506 0 2 C0 1.34 0 0.68 0 0 Z " fill="#966205" transform="translate(44,6)"/>
<path d="M0 0 C4.29 1.65 8.58 3.3 13 5 C12.67 5.99 12.34 6.98 12 8 C9.72975032 8.08097324 7.45867925 8.13917704 5.1875 8.1875 C3.29064453 8.23970703 3.29064453 8.23970703 1.35546875 8.29296875 C-2 8 -2 8 -3.94921875 6.48828125 C-4.29597656 5.99714844 -4.64273437 5.50601563 -5 5 C-4.01 5 -3.02 5 -2 5 C-1.7834375 4.0409375 -1.7834375 4.0409375 -1.5625 3.0625 C-1 1 -1 1 0 0 Z " fill="#D09849" transform="translate(26,42)"/>
<path d="M0 0 C2.01953125 1.75 2.01953125 1.75 3.8125 4 C4.41707031 4.7425 5.02164063 5.485 5.64453125 6.25 C6.09183594 6.8275 6.53914063 7.405 7 8 C5.68 8.99 4.36 9.98 3 11 C2.319375 10.38125 1.63875 9.7625 0.9375 9.125 C-2.45881234 6.6680932 -4.96018821 5.95054395 -9 5 C-7.42180741 0.26542222 -4.70050264 -0.69103867 0 0 Z " fill="#F49310" transform="translate(49,10)"/>
<path d="M0 0 C0.99 0 1.98 0 3 0 C3 0.66 3 1.32 3 2 C4.0725 1.979375 5.145 1.95875 6.25 1.9375 C9.14790424 1.9857984 11.28612141 2.13155885 14 3 C14 3.66 14 4.32 14 5 C12.68 5 11.36 5 10 5 C9.67 6.32 9.34 7.64 9 9 C3.75900345 8.58894145 0.75960806 7.75960806 -3 4 C-3 3.34 -3 2.68 -3 2 C-2.01 2 -1.02 2 0 2 C0 1.34 0 0.68 0 0 Z " fill="#42BB62" transform="translate(18,49)"/>
<path d="M0 0 C6.36989498 0.60093349 6.36989498 0.60093349 8.875 2.1875 C10.51199276 4.82487723 10.87382505 6.90871373 11 10 C9.75 12.375 9.75 12.375 8 14 C7.01 14 6.02 14 5 14 C5.66 12.35 6.32 10.7 7 9 C6.34 9 5.68 9 5 9 C5 7.68 5 6.36 5 5 C3.35 5 1.7 5 0 5 C-0.33 4.01 -0.66 3.02 -1 2 C-0.67 1.34 -0.34 0.68 0 0 Z " fill="#B5A898" transform="translate(43,20)"/>
<path d="M0 0 C1.875 0.125 1.875 0.125 4 1 C5.88698167 5.05701058 6.21117043 8.56542098 6 13 C5.1028125 13.1546875 5.1028125 13.1546875 4.1875 13.3125 C1.59565628 13.94177772 1.59565628 13.94177772 -1 17 C-0.67 13.04 -0.34 9.08 0 5 C-0.66 4.67 -1.32 4.34 -2 4 C-1.34 2.68 -0.68 1.36 0 0 Z " fill="#F5AD51" transform="translate(53,19)"/>
<path d="M0 0 C6.51545509 0.78321673 12.45851885 1.88862962 17.6171875 6.14453125 C19.1171875 8.08203125 19.1171875 8.08203125 19.1171875 10.08203125 C18.4571875 10.08203125 17.7971875 10.08203125 17.1171875 10.08203125 C17.1171875 9.42203125 17.1171875 8.76203125 17.1171875 8.08203125 C16.35792969 8.04464844 15.59867188 8.00726562 14.81640625 7.96875 C13.82253906 7.90300781 12.82867187 7.83726563 11.8046875 7.76953125 C10.81855469 7.71152344 9.83242188 7.65351563 8.81640625 7.59375 C5.87334293 7.03580312 4.93535751 6.39662993 3.1171875 4.08203125 C3.4471875 3.75203125 3.7771875 3.42203125 4.1171875 3.08203125 C1.4771875 2.75203125 -1.1628125 2.42203125 -3.8828125 2.08203125 C-1.8828125 0.08203125 -1.8828125 0.08203125 0 0 Z " fill="#E08110" transform="translate(32.8828125,12.91796875)"/>
<path d="M0 0 C1.65 0 3.3 0 5 0 C5 0.66 5 1.32 5 2 C7.64 1.67 10.28 1.34 13 1 C12.125 5.875 12.125 5.875 11 7 C9.00390625 7.16796875 9.00390625 7.16796875 6.5625 7.1875 C5.35787109 7.20876953 5.35787109 7.20876953 4.12890625 7.23046875 C2 7 2 7 0 5 C-0.125 2.375 -0.125 2.375 0 0 Z " fill="#846440" transform="translate(33,35)"/>
<path d="M0 0 C0.33 1.32 0.66 2.64 1 4 C-6.40181918 9.33736621 -12.56433193 12.72582062 -22 12 C-22.99 11.34 -23.98 10.68 -25 10 C-24.24976562 9.91363281 -23.49953125 9.82726563 -22.7265625 9.73828125 C-14.2272685 8.57150159 -5.98171694 6.55504444 0 0 Z " fill="#E0C545" transform="translate(53,51)"/>
<path d="M0 0 C2.77141717 -0.08089542 5.54047819 -0.14044062 8.3125 -0.1875 C9.09818359 -0.21263672 9.88386719 -0.23777344 10.69335938 -0.26367188 C11.45068359 -0.27333984 12.20800781 -0.28300781 12.98828125 -0.29296875 C14.03302612 -0.31653442 14.03302612 -0.31653442 15.09887695 -0.34057617 C17.54489783 0.09761557 18.42702086 1.13437358 20 3 C19.46890625 2.83628906 18.9378125 2.67257813 18.390625 2.50390625 C15.46123236 1.88643623 12.74177064 1.90498075 9.75 1.9375 C8.13351563 1.95103516 8.13351563 1.95103516 6.484375 1.96484375 C5.25460938 1.98224609 5.25460938 1.98224609 4 2 C3.66269158 3.43657245 3.33030409 4.87430093 3 6.3125 C2.814375 7.11300781 2.62875 7.91351563 2.4375 8.73828125 C1.90504177 11.10695938 1.90504177 11.10695938 2 14 C0.68 13.67 -0.64 13.34 -2 13 C-1.85915204 11.20793453 -1.71216299 9.41635083 -1.5625 7.625 C-1.48128906 6.62726562 -1.40007813 5.62953125 -1.31640625 4.6015625 C-1 2 -1 2 0 0 Z " fill="#C58B34" transform="translate(21,18)"/>
<path d="M0 0 C0.33 1.32 0.66 2.64 1 4 C2.65 3.67 4.3 3.34 6 3 C5.154375 3.9075 4.30875 4.815 3.4375 5.75 C0.13050703 10.25531346 0.90699062 14.30090986 1.60546875 19.62109375 C1.73566406 20.40613281 1.86585937 21.19117187 2 22 C0 21 0 21 -1 18 C-1.12781786 15.32605036 -1.04391871 12.67904143 -1 10 C-1.99 10 -2.98 10 -4 10 C-3.71872579 8.51882199 -3.42466268 7.04006751 -3.125 5.5625 C-2.96257813 4.73878906 -2.80015625 3.91507813 -2.6328125 3.06640625 C-2.42398437 2.38449219 -2.21515625 1.70257812 -2 1 C-1.34 0.67 -0.68 0.34 0 0 Z " fill="#C18B17" transform="translate(10,18)"/>
<path d="M0 0 C0.66 0 1.32 0 2 0 C1.67 2.97 1.34 5.94 1 9 C-0.32 9.33 -1.64 9.66 -3 10 C-2.39816251 12.02045442 -1.72693904 14.02111039 -1 16 C-0.34 16.33 0.32 16.66 1 17 C1 17.66 1 18.32 1 19 C0.195625 18.814375 -0.60875 18.62875 -1.4375 18.4375 C-2.283125 18.293125 -3.12875 18.14875 -4 18 C-4.33 18.33 -4.66 18.66 -5 19 C-7.0625 18.5625 -7.0625 18.5625 -9 18 C-9 17.34 -9 16.68 -9 16 C-8.34 16 -7.68 16 -7 16 C-7 15.34 -7 14.68 -7 14 C-6.34 14 -5.68 14 -5 14 C-5 13.34 -5 12.68 -5 12 C-5.66 11.67 -6.32 11.34 -7 11 C-6 9 -6 9 -4.0625 8.3125 C-1.59365982 7.04208728 -1.59365982 7.04208728 -0.75 3.375 C-0.37875 1.704375 -0.37875 1.704375 0 0 Z " fill="#CCC4B8" transform="translate(36,25)"/>
<path d="M0 0 C3.84369366 1.56594927 6.09461006 4.09461006 9 7 C12.53707124 9.57911445 15.87052353 11.54253772 20 13 C20 13.33 20 13.66 20 14 C13.09922243 13.69329877 8.56710035 12.60484745 3.5234375 7.5078125 C0 3.55132682 0 3.55132682 0 0 Z " fill="#DBC548" transform="translate(6,47)"/>
<path d="M0 0 C0.28875 0.639375 0.5775 1.27875 0.875 1.9375 C1.82823451 4.15206079 1.82823451 4.15206079 4 5 C3.67 7.31 3.34 9.62 3 12 C0.03 11.505 0.03 11.505 -3 11 C-3.75 7.75 -3.75 7.75 -4 4 C-2.0625 1.5625 -2.0625 1.5625 0 0 Z " fill="#F78C01" transform="translate(17,32)"/>
<path d="M0 0 C-4.51738046 4.64286325 -7.94400886 7.94505508 -14.25 9.6875 C-15.58804687 10.06455078 -15.58804687 10.06455078 -16.953125 10.44921875 C-17.62859375 10.63097656 -18.3040625 10.81273437 -19 11 C-7.57731959 -1.13659794 -7.57731959 -1.13659794 0 0 Z " fill="#FDAD3D" transform="translate(40,6)"/>
<path d="M0 0 C0.33 0 0.66 0 1 0 C2.21928211 8.37803746 2.64848606 14.60092476 -1.578125 22.109375 C-3 24 -3 24 -6 26 C-5.62871332 22.28713316 -4.84285192 19.56660587 -3 16.375 C-0.2229214 11.2031942 -0.19224644 5.76739323 0 0 Z " fill="#E0BF3D" transform="translate(60,28)"/>
<path d="M0 0 C2 1 2 1 3 3 C2.2575 3.70125 1.515 4.4025 0.75 5.125 C-1.93113225 7.9280019 -3.9364423 10.72677055 -6 14 C-6.66 14.99 -7.32 15.98 -8 17 C-8.91525368 13.98817683 -9.25813343 12.54717015 -7.890625 9.6484375 C-7.34921875 8.89820313 -6.8078125 8.14796875 -6.25 7.375 C-5.71890625 6.61960937 -5.1878125 5.86421875 -4.640625 5.0859375 C-3.19070564 3.2424686 -1.70163681 1.60937939 0 0 Z " fill="#E6C850" transform="translate(12,7)"/>
<path d="M0 0 C0.336611 1.77021322 0.66917293 3.54119674 1 5.3125 C1.185625 6.29863281 1.37125 7.28476562 1.5625 8.30078125 C2 11 2 11 2 14 C-0.475 13.01 -0.475 13.01 -3 12 C-3.33 8.7 -3.66 5.4 -4 2 C-1 0 -1 0 0 0 Z " fill="#31A548" transform="translate(9,28)"/>
<path d="M0 0 C2.64 0 5.28 0 8 0 C7.835 0.763125 7.67 1.52625 7.5 2.3125 C6.90854604 5.03596236 6.90854604 5.03596236 7 8 C5.02 8 3.04 8 1 8 C1.33 6.35 1.66 4.7 2 3 C1.34 3 0.68 3 0 3 C0 2.01 0 1.02 0 0 Z " fill="#141210" transform="translate(27,24)"/>
<path d="M0 0 C0.33 0.66 0.66 1.32 1 2 C0.195625 2.45375 -0.60875 2.9075 -1.4375 3.375 C-4.08856572 4.74725665 -4.08856572 4.74725665 -5 7 C-7.31 7 -9.62 7 -12 7 C-11.625 4.625 -11.625 4.625 -10 2 C-6.72174346 0.91991217 -3.41943506 0.42269769 0 0 Z " fill="#0CA73E" transform="translate(38,52)"/>
<path d="M0 0 C0.66 0.33 1.32 0.66 2 1 C-0.82522609 5.67248931 -3.67760044 8.65996398 -8 12 C-8.33 11.01 -8.66 10.02 -9 9 C-7.890625 7.24609375 -7.890625 7.24609375 -6.25 5.4375 C-5.71890625 4.83808594 -5.1878125 4.23867188 -4.640625 3.62109375 C-3 2 -3 2 0 0 Z " fill="#F5A13D" transform="translate(19,19)"/>
<path d="M0 0 C0.98097656 0.32742187 1.96195313 0.65484375 2.97265625 0.9921875 C7.16980492 2.19137284 11.10064102 2.22816407 15.4375 2.125 C16.16904297 2.11597656 16.90058594 2.10695312 17.65429688 2.09765625 C19.43634298 2.07436153 21.21821759 2.0385019 23 2 C23 2.33 23 2.66 23 3 C21.35 3.33 19.7 3.66 18 4 C18 4.33 18 4.66 18 5 C10.71304215 5.474377 6.02818509 5.28670939 0 1 C0 0.67 0 0.34 0 0 Z " fill="#8B7C23" transform="translate(13,58)"/>
<path d="M0 0 C0.66 0 1.32 0 2 0 C2 0.99 2 1.98 2 3 C0.390625 4.5703125 0.390625 4.5703125 -1.75 6.125 C-2.44609375 6.64320312 -3.1421875 7.16140625 -3.859375 7.6953125 C-5.94594343 8.96705311 -7.61293238 9.55914517 -10 10 C-10.33 9.34 -10.66 8.68 -11 8 C-10.34 8 -9.68 8 -9 8 C-8.67 7.01 -8.34 6.02 -8 5 C-6.35 4.67 -4.7 4.34 -3 4 C-3 3.34 -3 2.68 -3 2 C-2.01 2 -1.02 2 0 2 C0 1.34 0 0.68 0 0 Z " fill="#FCA731" transform="translate(54,40)"/>
<path d="M0 0 C0.33 0.66 0.66 1.32 1 2 C1.99 1.67 2.98 1.34 4 1 C4.75 3.75 4.75 3.75 5 7 C3.0625 9.375 3.0625 9.375 1 11 C-0.98362069 8.08291076 -0.9876191 6.87619096 -0.625 3.25 C-0.41875 2.1775 -0.2125 1.105 0 0 Z " fill="#C7C6AD" transform="translate(39,25)"/>
<path d="M0 0 C3.63 0.33 7.26 0.66 11 1 C10.01 2.485 10.01 2.485 9 4 C6.3984375 4.29296875 6.3984375 4.29296875 3.375 4.1875 C1.87066406 4.14689453 1.87066406 4.14689453 0.3359375 4.10546875 C-0.82035156 4.05326172 -0.82035156 4.05326172 -2 4 C-1.34 2.68 -0.68 1.36 0 0 Z " fill="#EC9729" transform="translate(27,14)"/>
<path d="M0 0 C0 0.66 0 1.32 0 2 C-4.49683714 3.75486327 -8.17425558 4.36420713 -13 4 C-13.99 3.34 -14.98 2.68 -16 2 C-14.08404518 1.66259915 -12.16720278 1.33023588 -10.25 1 C-9.18265625 0.814375 -8.1153125 0.62875 -7.015625 0.4375 C-4 0 -4 0 0 0 Z " fill="#EBCD4D" transform="translate(44,59)"/>
<path d="M0 0 C1.32 0.66 2.64 1.32 4 2 C4 2.66 4 3.32 4 4 C4.66 4 5.32 4 6 4 C5.67 4.66 5.34 5.32 5 6 C2.36 6 -0.28 6 -3 6 C-3.33 5.34 -3.66 4.68 -4 4 C-3.01 4 -2.02 4 -1 4 C-0.67 2.68 -0.34 1.36 0 0 Z " fill="#F6A94D" transform="translate(25,43)"/>
<path d="M0 0 C0.66 0 1.32 0 2 0 C3.44207941 2.88415883 3.09394887 5.41721528 3.0625 8.625 C3.05347656 9.81351563 3.04445312 11.00203125 3.03515625 12.2265625 C3.02355469 13.14179687 3.01195312 14.05703125 3 15 C2.34 15 1.68 15 1 15 C0.67 10.05 0.34 5.1 0 0 Z " fill="#EAC549" transform="translate(60,23)"/>
<path d="M0 0 C0.33 0.99 0.66 1.98 1 3 C3.50447516 4.21869929 3.50447516 4.21869929 6 5 C6 5.66 6 6.32 6 7 C5.195625 6.814375 4.39125 6.62875 3.5625 6.4375 C2.716875 6.293125 1.87125 6.14875 1 6 C0.67 6.33 0.34 6.66 0 7 C-2.0625 6.5625 -2.0625 6.5625 -4 6 C-4 5.34 -4 4.68 -4 4 C-3.34 4 -2.68 4 -2 4 C-2 3.34 -2 2.68 -2 2 C-1.34 2 -0.68 2 0 2 C0 1.34 0 0.68 0 0 Z " fill="#D7C6AC" transform="translate(31,37)"/>
<path d="M0 0 C0.66 0 1.32 0 2 0 C2.33 1.65 2.66 3.3 3 5 C2.34 5 1.68 5 1 5 C1 5.66 1 6.32 1 7 C0.01 7.33 -0.98 7.66 -2 8 C-2.66 7.34 -3.32 6.68 -4 6 C-4 5.01 -4 4.02 -4 3 C-2.68 2.67 -1.36 2.34 0 2 C0 1.34 0 0.68 0 0 Z " fill="#CAB495" transform="translate(28,34)"/>
<path d="M0 0 C0 0.66 0 1.32 0 2 C-0.99 2.495 -0.99 2.495 -2 3 C-2.061875 3.61875 -2.12375 4.2375 -2.1875 4.875 C-3 7 -3 7 -6.5625 8.75 C-8.2640625 9.36875 -8.2640625 9.36875 -10 10 C-8.71596412 5.50587442 -5.23012555 0 0 0 Z " fill="#EA8B14" transform="translate(19,9)"/>
<path d="M0 0 C1.32 0 2.64 0 4 0 C4 1.32 4 2.64 4 4 C4.66 4 5.32 4 6 4 C5.67 4.99 5.34 5.98 5 7 C3.35 6.67 1.7 6.34 0 6 C0 4.02 0 2.04 0 0 Z " fill="#171110" transform="translate(44,25)"/>
<path d="M0 0 C2.31 0.33 4.62 0.66 7 1 C7 1.66 7 2.32 7 3 C4 5 4 5 1.3125 4.625 C0.549375 4.41875 -0.21375 4.2125 -1 4 C-0.67 2.68 -0.34 1.36 0 0 Z " fill="#B5A783" transform="translate(43,20)"/>
<path d="M0 0 C-0.78375 0.5775 -1.5675 1.155 -2.375 1.75 C-4.80047244 3.82897637 -5.85694417 5.09040333 -7 8 C-7 7.34 -7 6.68 -7 6 C-7.66 5.67 -8.32 5.34 -9 5 C-8.67 4.34 -8.34 3.68 -8 3 C-8.66 2.67 -9.32 2.34 -10 2 C-3.375 -1.125 -3.375 -1.125 0 0 Z " fill="#9E6816" transform="translate(47,44)"/>
<path d="M0 0 C1.32 0 2.64 0 4 0 C4.125 5.75 4.125 5.75 3 8 C2.34 7.67 1.68 7.34 1 7 C1.33 6.01 1.66 5.02 2 4 C0.35 4.66 -1.3 5.32 -3 6 C-1.125 1.125 -1.125 1.125 0 0 Z " fill="#F4A12C" transform="translate(55,32)"/>
<path d="M0 0 C2 1 2 1 3 3 C-1.75 7.875 -1.75 7.875 -4 9 C-4.8125 7.3125 -4.8125 7.3125 -5 5 C-2.5625 2.25 -2.5625 2.25 0 0 Z " fill="#DBBB47" transform="translate(12,7)"/>
<path d="M0 0 C0.66 0.33 1.32 0.66 2 1 C1.01 2.485 1.01 2.485 0 4 C0.66 4.66 1.32 5.32 2 6 C1.67 6.66 1.34 7.32 1 8 C-0.32 8 -1.64 8 -3 8 C-3.36923077 3.44615385 -3.36923077 3.44615385 -1.5 1.1875 C-1.005 0.795625 -0.51 0.40375 0 0 Z " fill="#ED9529" transform="translate(44,45)"/>
<path d="M0 0 C0.99 0 1.98 0 3 0 C4.23076923 6.4 4.23076923 6.4 3.0625 9.4375 C2.711875 9.953125 2.36125 10.46875 2 11 C1.17361624 8.10765685 1 6.11257569 1 3 C0.34 2.67 -0.32 2.34 -1 2 C-0.67 1.34 -0.34 0.68 0 0 Z " fill="#D19D54" transform="translate(52,21)"/>
<path d="M0 0 C1.0828125 0.37125 1.0828125 0.37125 2.1875 0.75 C-0.66556797 3.07472205 -3.35324837 4.5008258 -6.8125 5.75 C-7.1425 5.09 -7.4725 4.43 -7.8125 3.75 C-3.50480769 -0.31153846 -3.50480769 -0.31153846 0 0 Z " fill="#FBA736" transform="translate(44.8125,8.25)"/>
<path d="M0 0 C1.32 0.33 2.64 0.66 4 1 C4.33 2.98 4.66 4.96 5 7 C1.125 6.125 1.125 6.125 0 5 C-0.04063832 3.33382885 -0.042721 1.66611905 0 0 Z " fill="#97794D" transform="translate(33,35)"/>
<path d="M0 0 C3.78611227 0.54087318 5.55400767 2.11722332 8 5 C8 5.66 8 6.32 8 7 C7.34 7 6.68 7 6 7 C6 6.34 6 5.68 6 5 C3.03 4.67 0.06 4.34 -3 4 C-3 3.67 -3 3.34 -3 3 C-1.35 2.67 0.3 2.34 2 2 C1.34 1.34 0.68 0.68 0 0 Z " fill="#BE7115" transform="translate(44,16)"/>
<path d="M0 0 C0.33 0 0.66 0 1 0 C1.33 4.62 1.66 9.24 2 14 C1.01 14.33 0.02 14.66 -1 15 C-0.67 10.05 -0.34 5.1 0 0 Z " fill="#E2B534" transform="translate(60,28)"/>
<path d="M0 0 C0.1875 2.3125 0.1875 2.3125 0 5 C-1.4375 6.625 -1.4375 6.625 -3 8 C-3.33 8.99 -3.66 9.98 -4 11 C-4.75 7.75 -4.75 7.75 -5 4 C-1.92307692 0 -1.92307692 0 0 0 Z " fill="#F1920C" transform="translate(18,32)"/>
<path d="M0 0 C0.33 1.32 0.66 2.64 1 4 C-1.31 5.32 -3.62 6.64 -6 8 C-5.65120368 4.74456771 -4.97866739 3.98126893 -2.4375 1.75 C-1.633125 1.1725 -0.82875 0.595 0 0 Z " fill="#F1960E" transform="translate(17,25)"/>
<path d="M0 0 C2.0625 0.4375 2.0625 0.4375 4 1 C4.625 3.3125 4.625 3.3125 5 6 C4.01 7.485 4.01 7.485 3 9 C2.67 6.69 2.34 4.38 2 2 C1.01 1.67 0.02 1.34 -1 1 C-0.67 0.67 -0.34 0.34 0 0 Z " fill="#F9A93F" transform="translate(53,19)"/>
<path d="M0 0 C0.66 0.33 1.32 0.66 2 1 C2 1.99 2 2.98 2 4 C-2.95 5.485 -2.95 5.485 -8 7 C-5.42215154 4.35247996 -3.08351902 2.05567935 0 0 Z " fill="#F7A539" transform="translate(29,10)"/>
<path d="M0 0 C0.99 0.66 1.98 1.32 3 2 C1.25 5.875 1.25 5.875 -1 7 C-1.33 5.02 -1.66 3.04 -2 1 C-1.34 0.67 -0.68 0.34 0 0 Z " fill="#8B5612" transform="translate(23,31)"/>
<path d="M0 0 C3.82946843 1.45255699 5.12050295 3.42895561 7 7 C4.625 6.6875 4.625 6.6875 2 6 C0 3 0 3 0 0 Z " fill="#E5CC4A" transform="translate(6,47)"/>
<path d="M0 0 C0.33 0.66 0.66 1.32 1 2 C0.22265625 4.1640625 0.22265625 4.1640625 -0.9375 6.625 C-1.31777344 7.44226562 -1.69804688 8.25953125 -2.08984375 9.1015625 C-2.39019531 9.72804688 -2.69054688 10.35453125 -3 11 C-3.66 10.67 -4.32 10.34 -5 10 C-1.81818182 1.81818182 -1.81818182 1.81818182 0 0 Z " fill="#A6712B" transform="translate(52,32)"/>
<path d="M0 0 C-0.33 0.66 -0.66 1.32 -1 2 C-3.06640625 2.4140625 -3.06640625 2.4140625 -5.5625 2.625 C-6.38878906 2.69976563 -7.21507812 2.77453125 -8.06640625 2.8515625 C-9.02353516 2.92503906 -9.02353516 2.92503906 -10 3 C-10 2.34 -10 1.68 -10 1 C-6.78548731 -0.60725635 -3.56387464 -0.05748185 0 0 Z " fill="#B6A27C" transform="translate(35,19)"/>
<path d="M0 0 C2.15377564 2.62198774 3.40072174 4.64404172 4 8 C3.01 8.33 2.02 8.66 1 9 C-1.125 3.375 -1.125 3.375 0 0 Z " fill="#D8BA46" transform="translate(58,15)"/>
<path d="M0 0 C0.763125 0.061875 1.52625 0.12375 2.3125 0.1875 C2.6425 1.1775 2.9725 2.1675 3.3125 3.1875 C0.3425 3.1875 -2.6275 3.1875 -5.6875 3.1875 C-2.6875 0.1875 -2.6875 0.1875 0 0 Z " fill="#2D932A" transform="translate(37.6875,49.8125)"/>
<path d="M0 0 C0.99 0.495 0.99 0.495 2 1 C2 1.66 2 2.32 2 3 C2.928125 3.12375 2.928125 3.12375 3.875 3.25 C6 4 6 4 7.25 6.0625 C7.4975 6.701875 7.745 7.34125 8 8 C4.11137013 6.73882275 2.10624401 5.54735833 0 2 C0 1.34 0 0.68 0 0 Z " fill="#75890F" transform="translate(12,40)"/>
<path d="M0 0 C0.66 0.66 1.32 1.32 2 2 C0.95125002 4.62187494 0.35068687 5.79371361 -2.125 7.25 C-2.74375 7.4975 -3.3625 7.745 -4 8 C-3.40072174 4.64404172 -2.15377564 2.62198774 0 0 Z " fill="#E4A137" transform="translate(14,23)"/>
<path d="M0 0 C0.99 1.32 1.98 2.64 3 4 C2 6 2 6 0 7 C-0.66 5.35 -1.32 3.7 -2 2 C-1.34 1.34 -0.68 0.68 0 0 Z " fill="#C7B73F" transform="translate(5,42)"/>
<path d="M0 0 C3.375 -0.125 3.375 -0.125 7 0 C7.66 0.66 8.32 1.32 9 2 C6.08517222 2.80967438 4.53886783 3.21845993 1.6875 2.0625 C1.130625 1.711875 0.57375 1.36125 0 1 C0 0.67 0 0.34 0 0 Z " fill="#E4C13A" transform="translate(38,3)"/>
<path d="M0 0 C1.485 0.99 1.485 0.99 3 2 C3 2.66 3 3.32 3 4 C3.66 4 4.32 4 5 4 C5 4.66 5 5.32 5 6 C4.34 6 3.68 6 3 6 C2.67 6.66 2.34 7.32 2 8 C1.34 7.01 0.68 6.02 0 5 C0.66 5 1.32 5 2 5 C1.34 3.35 0.68 1.7 0 0 Z " fill="#0B9531" transform="translate(12,45)"/>
</svg>
