<?xml version="1.0" standalone="no"?>
<!DOCTYPE svg PUBLIC "-//W3C//DTD SVG 20010904//EN"
 "http://www.w3.org/TR/2001/REC-SVG-20010904/DTD/svg10.dtd">
<svg version="1.0" xmlns="http://www.w3.org/2000/svg"
 width="64.000000pt" height="64.000000pt" viewBox="0 0 64.000000 64.000000"
 preserveAspectRatio="xMidYMid meet">

<g transform="translate(0.000000,64.000000) scale(0.100000,-0.100000)"
fill="#000000" stroke="none">
<path d="M235 515 c-16 -8 -25 -14 -20 -15 6 0 1 -7 -9 -15 -11 -8 -15 -15 -9
-15 7 0 15 5 19 11 3 6 20 19 38 30 36 22 25 24 -19 4z"/>
<path d="M410 520 c20 -13 33 -13 25 0 -3 6 -14 10 -23 10 -15 0 -15 -2 -2
-10z"/>
<path d="M308 483 c7 -3 16 -2 19 1 4 3 -2 6 -13 5 -11 0 -14 -3 -6 -6z"/>
<path d="M394 473 c21 -25 36 -30 36 -11 0 6 -3 8 -7 5 -3 -4 -16 1 -27 10
-21 18 -21 18 -2 -4z"/>
<path d="M468 468 c5 -5 16 -8 23 -6 8 3 3 7 -10 11 -17 4 -21 3 -13 -5z"/>
<path d="M542 450 c7 -11 17 -20 22 -20 5 0 1 9 -9 20 -10 11 -20 20 -22 20
-2 0 2 -9 9 -20z"/>
<path d="M218 443 c-18 -22 -30 -63 -17 -63 5 0 9 5 9 10 0 6 8 10 19 10 14 0
17 -6 14 -24 -4 -17 2 -28 18 -40 47 -33 99 -8 99 47 0 29 17 35 39 15 11 -11
13 -10 9 2 -4 12 -23 15 -102 13 -53 -1 -96 2 -96 7 0 4 10 15 23 23 12 9 17
16 11 16 -6 1 -18 -7 -26 -16z m58 -70 c-10 -10 -19 5 -10 18 6 11 8 11 12 0
2 -7 1 -15 -2 -18z m71 11 c3 -8 1 -20 -4 -25 -7 -7 -12 -2 -15 15 -6 28 9 36
19 10z"/>
<path d="M109 433 c-13 -16 -12 -17 4 -4 9 7 17 15 17 17 0 8 -8 3 -21 -13z"/>
<path d="M421 414 c0 -11 3 -14 6 -6 3 7 2 16 -1 19 -3 4 -6 -2 -5 -13z"/>
<path d="M161 383 c0 -25 1 -26 9 -8 12 27 12 35 0 35 -5 0 -10 -12 -9 -27z"/>
<path d="M456 383 c9 -35 20 -50 44 -56 22 -6 60 18 60 39 0 8 6 14 13 14 33
1 -44 29 -81 30 -41 0 -42 -1 -36 -27z m89 -2 c3 -5 1 -12 -4 -15 -5 -3 -11 1
-15 9 -6 16 9 21 19 6z"/>
<path d="M26 379 l-26 -20 0 -169 0 -169 25 24 c18 19 35 25 67 25 31 0 39 -3
28 -10 -12 -7 -8 -10 15 -10 l30 -1 -25 -15 -25 -15 25 7 c23 6 24 6 10 -12
-14 -18 -14 -18 3 -5 24 19 21 39 -10 59 -24 14 -28 23 -25 54 2 27 -3 43 -18
58 -47 47 -64 138 -36 193 18 34 1 37 -38 6z"/>
<path d="M386 335 c-3 -8 -1 -15 4 -15 6 0 10 7 10 15 0 8 -2 15 -4 15 -2 0
-6 -7 -10 -15z"/>
<path d="M202 323 c-15 -15 -15 -24 -2 -57 l9 -26 26 26 26 26 -24 22 c-19 17
-26 19 -35 9z"/>
<path d="M156 303 c9 -40 22 -50 16 -13 -2 17 -8 33 -14 36 -5 3 -6 -6 -2 -23z"/>
<path d="M529 274 c18 -24 31 -22 31 4 0 11 -8 17 -24 17 -22 0 -22 -1 -7 -21z"/>
<path d="M348 268 l-21 -21 27 -24 c31 -26 48 -30 40 -8 -4 9 0 15 10 15 10 0
13 -6 10 -15 -4 -10 0 -15 10 -15 22 0 76 28 76 39 0 19 -37 40 -62 36 -15 -3
-30 -1 -33 5 -10 16 -33 12 -57 -12z"/>
<path d="M250 196 c0 -2 8 -10 18 -17 15 -13 16 -12 3 4 -13 16 -21 21 -21 13z"/>
<path d="M410 150 c-25 -10 -55 -19 -67 -19 -12 -1 -24 -5 -27 -10 -4 -5 11
-5 35 0 22 5 44 7 49 4 4 -3 10 2 14 10 3 8 12 15 20 15 8 0 18 5 21 10 8 12
9 13 -45 -10z"/>
<path d="M188 153 c6 -2 18 -2 25 0 6 3 1 5 -13 5 -14 0 -19 -2 -12 -5z"/>
<path d="M225 104 c-3 -25 -5 -47 -3 -48 2 -2 25 -15 52 -29 43 -24 59 -27
145 -27 l96 0 -55 52 c-45 42 -61 51 -85 48 -32 -3 -76 -4 -113 -1 -18 1 -22
5 -17 20 3 11 2 22 -3 25 -6 3 -13 -15 -17 -40z"/>
<path d="M338 143 c7 -3 16 -2 19 1 4 3 -2 6 -13 5 -11 0 -14 -3 -6 -6z"/>
<path d="M75 50 c-3 -6 1 -7 9 -4 18 7 21 14 7 14 -6 0 -13 -4 -16 -10z"/>
<path d="M189 34 c-5 -15 -7 -29 -4 -32 3 -3 5 0 5 8 0 10 3 10 18 -1 14 -11
15 -11 5 1 -15 17 -17 34 -3 25 6 -3 7 1 4 9 -8 22 -13 20 -25 -10z"/>
<path d="M230 26 c0 -2 8 -10 18 -17 15 -13 16 -12 3 4 -13 16 -21 21 -21 13z"/>
</g>
</svg>
