<svg xmlns="http://www.w3.org/2000/svg" width="256" height="256" fill="none"><path fill="#02081C" d="M128 256a128 128 0 1 0 0-256 128 128 0 0 0 0 256Z"/><path fill="url(#a)" d="M74.7 160.5c1-1 2.2-1.5 3.6-1.5h126.1c2.3 0 3.5 2.7 1.8 4.3l-24.9 24.2c-1 1-2.2 1.5-3.6 1.5H51.5a2.6 2.6 0 0 1-2.3-1.6 2.5 2.5 0 0 1 .5-2.7l25-24.2Z"/><path fill="url(#b)" d="M74.7 67.5c1-1 2.2-1.5 3.6-1.5h126.1c2.3 0 3.5 2.8 1.8 4.4l-24.9 25c-1 1-2.2 1.6-3.6 1.6H51.5a2.6 2.6 0 0 1-2.3-1.6 2.6 2.6 0 0 1 .5-2.8l25-25Z"/><path fill="url(#c)" d="M181.3 113.5c-1-1-2.2-1.5-3.6-1.5H51.5a2.6 2.6 0 0 0-2.3 1.6 2.6 2.6 0 0 0 .5 2.8l25 25c1 1 2.2 1.6 3.6 1.6h126.1c2.3 0 3.5-2.8 1.8-4.4l-24.9-25Z"/><defs><linearGradient id="a" x1="103.5" x2="127" y1="146.5" y2="195.2" gradientUnits="userSpaceOnUse"><stop stop-color="#F77B7C"/><stop offset=".5" stop-color="#FF9A5E"/><stop offset="1" stop-color="#7EC2ED"/></linearGradient><linearGradient id="b" x1="67.7" x2="133.6" y1="61.6" y2="114.4" gradientUnits="userSpaceOnUse"><stop stop-color="#A765F1"/><stop offset="1" stop-color="#F77B7C"/></linearGradient><linearGradient id="c" x1="100.2" x2="150.7" y1="97.7" y2="181.9" gradientUnits="userSpaceOnUse"><stop stop-color="#AE67E8"/><stop offset=".5" stop-color="#F77B7C"/><stop offset=".8" stop-color="#FF9A5E"/><stop offset="1" stop-color="#7EC2ED"/></linearGradient></defs></svg>