<?xml version="1.0" encoding="UTF-8"?>
<svg version="1.1" xmlns="http://www.w3.org/2000/svg" width="64" height="64">
<path d="M0 0 C7.91574132 4.79623735 13.46523388 10.3987807 16.59765625 19.203125 C19.12826783 29.69251 17.83494415 39.13567663 12.37890625 48.44140625 C7.44711934 55.25077701 0.21904348 58.82802717 -7.62109375 61.44140625 C-19.40774104 62.37636787 -27.69998963 60.9343604 -36.93359375 53.44140625 C-43.97902463 46.64006903 -46.81748487 39.16011251 -47.24609375 29.44140625 C-46.89212313 20.78347613 -44.32791113 12.98486185 -38.43359375 6.50390625 C-28.09678395 -2.78786344 -12.786507 -6.04567959 0 0 Z " fill="#241D48" transform="translate(46.62109375,2.55859375)"/>
<path d="M0 0 C0 6.27 0 12.54 0 19 C1.98 19 3.96 19 6 19 C7.875 20.1875 7.875 20.1875 9 22 C9.125 24.4375 9.125 24.4375 9 27 C9.20625 27.721875 9.4125 28.44375 9.625 29.1875 C9.74875 29.785625 9.8725 30.38375 10 31 C9.34 31.66 8.68 32.32 8 33 C8.99 33.495 8.99 33.495 10 34 C10 34.66 10 35.32 10 36 C10.99 36.33 11.98 36.66 13 37 C13 37.66 13 38.32 13 39 C13.99 39.33 14.98 39.66 16 40 C17.5 41.375 17.5 41.375 19 43 C19.556875 43.515625 20.11375 44.03125 20.6875 44.5625 C22 46 22 46 22 48 C22.66 48 23.32 48 24 48 C24 48.99 24 49.98 24 51 C21.125 50.8125 21.125 50.8125 18 50 C17.28272222 48.35448038 16.61674772 46.68577711 16 45 C13.47627099 43.63921965 13.47627099 43.63921965 11 43 C11 42.34 11 41.68 11 41 C10.34 41 9.68 41 9 41 C8.67 43.31 8.34 45.62 8 48 C9.65 48 11.3 48 13 48 C13 48.33 13 48.66 13 49 C11.35 49 9.7 49 8 49 C8 50.65 8 52.3 8 54 C7.67 54 7.34 54 7 54 C7 52.35 7 50.7 7 49 C5.02 49 3.04 49 1 49 C1 50.65 1 52.3 1 54 C0.67 54 0.34 54 0 54 C0 52.35 0 50.7 0 49 C-2.97 49 -5.94 49 -9 49 C-9 50.65 -9 52.3 -9 54 C-9.33 54 -9.66 54 -10 54 C-10 52.35 -10 50.7 -10 49 C-14.62 49 -19.24 49 -24 49 C-28.38597473 39.95392712 -29.74347212 31.54959218 -27.1171875 21.68359375 C-23.31098686 11.61354636 -17.8570817 6.45782403 -8.234375 1.9453125 C-5.31805804 0.71148609 -3.19365117 0 0 0 Z " fill="#231C48" transform="translate(28,0)"/>
<path d="M0 0 C4.29 0 8.58 0 13 0 C13 0.66 13 1.32 13 2 C13.66 2.33 14.32 2.66 15 3 C15.33 3.66 15.66 4.32 16 5 C17.423125 5.2165625 17.423125 5.2165625 18.875 5.4375 C22 6 22 6 23.875 7.25 C25.3878619 9.60334073 25.13467095 11.23924557 25 14 C25.20625 14.721875 25.4125 15.44375 25.625 16.1875 C25.74875 16.785625 25.8725 17.38375 26 18 C25.34 18.66 24.68 19.32 24 20 C24.66 20.33 25.32 20.66 26 21 C26 21.66 26 22.32 26 23 C26.99 23.33 27.98 23.66 29 24 C29 24.66 29 25.32 29 26 C29.99 26.33 30.98 26.66 32 27 C33.5 28.375 33.5 28.375 35 30 C35.556875 30.515625 36.11375 31.03125 36.6875 31.5625 C38 33 38 33 38 35 C38.66 35 39.32 35 40 35 C40 35.99 40 36.98 40 38 C37.125 37.8125 37.125 37.8125 34 37 C33.28272222 35.35448038 32.61674772 33.68577711 32 32 C29.47627099 30.63921965 29.47627099 30.63921965 27 30 C27 29.34 27 28.68 27 28 C26.01 27.67 25.02 27.34 24 27 C23.3125 24.9375 23.3125 24.9375 23 23 C22.01 23 21.02 23 20 23 C20 24.32 20 25.64 20 27 C17.07471973 26.37315423 14.58774327 25.51695295 12 24 C11.67 23.34 11.34 22.68 11 22 C10.01 21.67 9.02 21.34 8 21 C7.87625 19.865625 7.7525 18.73125 7.625 17.5625 C7.41875 16.386875 7.2125 15.21125 7 14 C6.34 13.67 5.68 13.34 5 13 C6.65 13 8.3 13 10 13 C10 13.66 10 14.32 10 15 C11.32 15 12.64 15 14 15 C14 14.34 14 13.68 14 13 C11.69 12.67 9.38 12.34 7 12 C7 11.34 7 10.68 7 10 C4.58354218 9.83312552 4.58354218 9.83312552 2 10 C1.34 10.66 0.68 11.32 0 12 C0 8.04 0 4.08 0 0 Z " fill="#716DE8" transform="translate(12,13)"/>
<path d="M0 0 C2.31 0 4.62 0 7 0 C7.66 0.99 8.32 1.98 9 3 C11.56282742 3.72965366 11.56282742 3.72965366 14 4 C14 4.66 14 5.32 14 6 C14.99 6 15.98 6 17 6 C17.33 5.34 17.66 4.68 18 4 C18 4.99 18 5.98 18 7 C18.99 7 19.98 7 21 7 C21 7.66 21 8.32 21 9 C19.68 9 18.36 9 17 9 C17 8.34 17 7.68 17 7 C16.01 7.33 15.02 7.66 14 8 C14.15597656 8.63808594 14.31195313 9.27617187 14.47265625 9.93359375 C14.66730469 10.75988281 14.86195312 11.58617187 15.0625 12.4375 C15.25972656 13.26121094 15.45695312 14.08492187 15.66015625 14.93359375 C15.77230469 15.61550781 15.88445313 16.29742187 16 17 C15.67 17.33 15.34 17.66 15 18 C15.99 18.66 16.98 19.32 18 20 C11.93012233 21.54318924 6.18275947 20.56206904 0 20 C0 13.4 0 6.8 0 0 Z " fill="#2C2347" transform="translate(5,19)"/>
<path d="M0 0 C4.29 0 8.58 0 13 0 C13 0.66 13 1.32 13 2 C13.66 2.33 14.32 2.66 15 3 C15.33 3.66 15.66 4.32 16 5 C17.423125 5.2165625 17.423125 5.2165625 18.875 5.4375 C22 6 22 6 23.875 7.25 C25.3878619 9.60334073 25.13467095 11.23924557 25 14 C25.29044914 15.34332728 25.60955794 16.68225804 26 18 C24.35 18.33 22.7 18.66 21 19 C16.07692308 13.70769231 16.07692308 13.70769231 15.6875 10.125 C15.8421875 9.073125 15.8421875 9.073125 16 8 C15.34 7.67 14.68 7.34 14 7 C14 6.34 14 5.68 14 5 C13.34 5 12.68 5 12 5 C12 4.34 12 3.68 12 3 C9.69 3 7.38 3 5 3 C5 3.66 5 4.32 5 5 C6.65 5 8.3 5 10 5 C10.93423645 8.01031744 11.04449911 8.86650268 10 12 C9.01 12 8.02 12 7 12 C7 11.34 7 10.68 7 10 C4.58354218 9.83312552 4.58354218 9.83312552 2 10 C1.34 10.66 0.68 11.32 0 12 C0 8.04 0 4.08 0 0 Z " fill="#8B89F6" transform="translate(12,13)"/>
<path d="M0 0 C1.54125475 -0.05482724 3.08309906 -0.09316134 4.625 -0.125 C5.48351563 -0.14820312 6.34203125 -0.17140625 7.2265625 -0.1953125 C10 0 10 0 16 2 C16 7.61 16 13.22 16 19 C13.03 18.67 10.06 18.34 7 18 C7 15.03 7 12.06 7 9 C4.69 8.67 2.38 8.34 0 8 C0 5.36 0 2.72 0 0 Z " fill="#221B47" transform="translate(29,0)"/>
<path d="M0 0 C1.65 0 3.3 0 5 0 C5 0.66 5 1.32 5 2 C5.886875 2.04125 6.77375 2.0825 7.6875 2.125 C12.33875218 3.35363265 13.43548033 4.9589387 16 9 C15.8125 11.875 15.8125 11.875 15 14 C12.07471973 13.37315423 9.58774327 12.51695295 7 11 C6.67 10.34 6.34 9.68 6 9 C5.01 8.67 4.02 8.34 3 8 C2.87625 6.865625 2.7525 5.73125 2.625 4.5625 C2.41875 3.386875 2.2125 2.21125 2 1 C1.34 0.67 0.68 0.34 0 0 Z " fill="#F2E7D5" transform="translate(17,26)"/>
<path d="M0 0 C7.36603774 0.60377358 7.36603774 0.60377358 10 2.25 C11.3441791 4.60231343 11.13073184 6.31999734 11 9 C11.29044914 10.34332728 11.60955794 11.68225804 12 13 C10.35 13.33 8.7 13.66 7 14 C2.07692308 8.70769231 2.07692308 8.70769231 1.6875 5.125 C1.790625 4.42375 1.89375 3.7225 2 3 C1.34 2.67 0.68 2.34 0 2 C0 1.34 0 0.68 0 0 Z " fill="#FBDC7D" transform="translate(26,18)"/>
<path d="M0 0 C0.66 0 1.32 0 2 0 C2 0.66 2 1.32 2 2 C2.99 2.33 3.98 2.66 5 3 C5 3.66 5 4.32 5 5 C5.99 5.33 6.98 5.66 8 6 C9.5 7.375 9.5 7.375 11 9 C11.8353125 9.7734375 11.8353125 9.7734375 12.6875 10.5625 C14 12 14 12 14 14 C14.66 14 15.32 14 16 14 C16 14.99 16 15.98 16 17 C13.125 16.8125 13.125 16.8125 10 16 C9.28272222 14.35448038 8.61674772 12.68577711 8 11 C5.47627099 9.63921965 5.47627099 9.63921965 3 9 C3 8.34 3 7.68 3 7 C2.01 6.67 1.02 6.34 0 6 C-0.75 4.0625 -0.75 4.0625 -1 2 C-0.67 1.34 -0.34 0.68 0 0 Z " fill="#7673E8" transform="translate(36,34)"/>
<path d="M0 0 C0.99 0 1.98 0 3 0 C4.03159626 3.09478879 3.97482862 4.52631393 3.5625 7.6875 C3.46066406 8.49574219 3.35882813 9.30398437 3.25390625 10.13671875 C3.17011719 10.75160156 3.08632813 11.36648437 3 12 C1.02 12 -0.96 12 -3 12 C-3 9.36 -3 6.72 -3 4 C-2.01 4 -1.02 4 0 4 C0 2.68 0 1.36 0 0 Z " fill="#211A45" transform="translate(32,36)"/>
<path d="M0 0 C4.29 0 8.58 0 13 0 C13 0.66 13 1.32 13 2 C13.66 2.33 14.32 2.66 15 3 C15 3.66 15 4.32 15 5 C14.01 5 13.02 5 12 5 C11.67 4.34 11.34 3.68 11 3 C8.87423218 2.53348793 8.87423218 2.53348793 6.4375 2.375 C5.61121094 2.30023438 4.78492188 2.22546875 3.93359375 2.1484375 C3.29550781 2.09945313 2.65742188 2.05046875 2 2 C2.04125 3.093125 2.0825 4.18625 2.125 5.3125 C2 9 2 9 0 12 C0 8.04 0 4.08 0 0 Z " fill="#908CEE" transform="translate(12,13)"/>
<path d="M0 0 C1.98 0 3.96 0 6 0 C6 2.97 6 5.94 6 9 C4.02 9 2.04 9 0 9 C0 6.03 0 3.06 0 0 Z " fill="#231B47" transform="translate(29,9)"/>
<path d="M0 0 C2.97 0 5.94 0 9 0 C10.24546405 2.49092811 9.7767578 3.41080733 9 6 C6.07606119 5.37344168 3.55170871 4.5838192 1 3 C0.67 2.01 0.34 1.02 0 0 Z " fill="#F9D46C" transform="translate(23,34)"/>
<path d="M0 0 C0.33 1.32 0.66 2.64 1 4 C1.66 4 2.32 4 3 4 C3 4.99 3 5.98 3 7 C0.125 6.75 0.125 6.75 -3 6 C-4.375 3.9375 -4.375 3.9375 -5 2 C-2 0 -2 0 0 0 Z " fill="#7371E2" transform="translate(49,44)"/>
<path d="M0 0 C0.33 0.66 0.66 1.32 1 2 C1.99 2.33 2.98 2.66 4 3 C6.1875 4.875 6.1875 4.875 8 7 C8 7.99 8 8.98 8 10 C6.68 9.67 5.36 9.34 4 9 C4 8.34 4 7.68 4 7 C2.68 6.34 1.36 5.68 0 5 C0 3.35 0 1.7 0 0 Z " fill="#605DE4" transform="translate(28,26)"/>
<path d="M0 0 C2.97 0.495 2.97 0.495 6 1 C6 1.66 6 2.32 6 3 C6.99 3 7.98 3 9 3 C9.33 2.34 9.66 1.68 10 1 C10 1.99 10 2.98 10 4 C10.99 4 11.98 4 13 4 C13 4.66 13 5.32 13 6 C11.68 6 10.36 6 9 6 C9 5.34 9 4.68 9 4 C6.03 3.67 3.06 3.34 0 3 C0 2.01 0 1.02 0 0 Z " fill="#3835C1" transform="translate(13,22)"/>
<path d="M0 0 C2.475 0.99 2.475 0.99 5 2 C5.33 4.31 5.66 6.62 6 9 C1.2 5.67692308 1.2 5.67692308 0.1875 2.25 C0.125625 1.5075 0.06375 0.765 0 0 Z " fill="#F8F7FD" transform="translate(28,23)"/>
<path d="M0 0 C1.65 0 3.3 0 5 0 C5.33 1.32 5.66 2.64 6 4 C3 5 3 5 0 4 C0 2.68 0 1.36 0 0 Z " fill="#A5A4FA" transform="translate(17,18)"/>
<path d="M0 0 C0.66 0 1.32 0 2 0 C2 0.66 2 1.32 2 2 C2.99 2.33 3.98 2.66 5 3 C5 3.66 5 4.32 5 5 C4.01 5 3.02 5 2 5 C1.67 5.66 1.34 6.32 1 7 C-0.0625 4.625 -0.0625 4.625 -1 2 C-0.67 1.34 -0.34 0.68 0 0 Z " fill="#8681DD" transform="translate(36,34)"/>
<path d="M0 0 C-3.76435592 2.49055871 -6.86617377 2.03090984 -11.25 1.625 C-12.51328125 1.51414063 -13.7765625 1.40328125 -15.078125 1.2890625 C-16.04234375 1.19367187 -17.0065625 1.09828125 -18 1 C-18 0.67 -18 0.34 -18 0 C-15.93831015 -0.19620767 -13.87559002 -0.38160753 -11.8125 -0.5625 C-10.08966797 -0.71912109 -10.08966797 -0.71912109 -8.33203125 -0.87890625 C-5.31368801 -0.98859985 -2.91076064 -0.74002389 0 0 Z " fill="#32294C" transform="translate(23,38)"/>
<path d="M0 0 C0.33 0.66 0.66 1.32 1 2 C1.66 2 2.32 2 3 2 C2.67 3.32 2.34 4.64 2 6 C1.01 6 0.02 6 -1 6 C-0.67 4.02 -0.34 2.04 0 0 Z " fill="#E0B34D" transform="translate(35,26)"/>
</svg>
