<?xml version="1.0" encoding="UTF-8"?>
<svg version="1.1" xmlns="http://www.w3.org/2000/svg" width="25" height="25">
<path d="M0 0 C8.25 0 16.5 0 25 0 C25 8.25 25 16.5 25 25 C16.75 25 8.5 25 0 25 C0 16.75 0 8.5 0 0 Z " fill="#D1A44E" transform="translate(0,0)"/>
<path d="M0 0 C8.25 0 16.5 0 25 0 C25 2.97 25 5.94 25 9 C23 8 23 8 22.0625 6.0625 C21.04654078 3.68028507 21.04654078 3.68028507 18 2 C15.39286436 1.6825006 15.39286436 1.6825006 12.5625 1.75 C11.61503906 1.74484375 10.66757813 1.7396875 9.69140625 1.734375 C6.8991375 2.0099545 5.27478656 2.36256822 3 4 C1.88899282 6.77457878 1.83791852 9.5311166 1.8125 12.5 C1.79832031 13.2528125 1.78414063 14.005625 1.76953125 14.78125 C2.03305209 17.31819635 2.63117519 18.85353718 4 21 C7.36351013 23.24234009 8.62310056 23.27098215 12.5625 23.25 C14.01849609 23.25773437 14.01849609 23.25773437 15.50390625 23.265625 C18.17292937 23.24594496 18.17292937 23.24594496 20 21 C20.99 21 21.98 21 23 21 C23.33 19.35 23.66 17.7 24 16 C24.33 16 24.66 16 25 16 C25 18.97 25 21.94 25 25 C16.75 25 8.5 25 0 25 C0 16.75 0 8.5 0 0 Z " fill="#F1F1F2" transform="translate(0,0)"/>
<path d="M0 0 C3.53536291 2.02020738 5.76937948 4.08438925 7 8 C7.33217754 12.56744115 7.00215699 15.8705512 5 20 C4.34 19.67 3.68 19.34 3 19 C3.33 15.7 3.66 12.4 4 9 C3.01 9.66 2.02 10.32 1 11 C1 9.68 1 8.36 1 7 C-4.445 7.495 -4.445 7.495 -10 8 C-10 7.34 -10 6.68 -10 6 C-9.34 6 -8.68 6 -8 6 C-7.67 5.34 -7.34 4.68 -7 4 C-5.02 4 -3.04 4 -1 4 C-4.82146654 2.72617782 -7.10664693 3.02666173 -11 4 C-12.84434349 6.46115547 -12.84434349 6.46115547 -14 9 C-14.66 9 -15.32 9 -16 9 C-15.51116805 3.50064056 -15.51116805 3.50064056 -13.29296875 1.328125 C-9.13615133 -1.07957163 -4.65080971 -0.62792831 0 0 Z " fill="#E7D480" transform="translate(18,1)"/>
<path d="M0 0 C0.99 0 1.98 0 3 0 C3.33 2.31 3.66 4.62 4 7 C2.35 7 0.7 7 -1 7 C-0.67 8.65 -0.34 10.3 0 12 C-3.28696233 12.79953138 -4.71023192 13.09658936 -8 12 C-8 11.34 -8 10.68 -8 10 C-8.66 10 -9.32 10 -10 10 C-10 9.01 -10 8.02 -10 7 C-10.66 6.67 -11.32 6.34 -12 6 C-10.2300132 5.80467039 -8.45895721 5.61901118 -6.6875 5.4375 C-5.70136719 5.33308594 -4.71523437 5.22867187 -3.69921875 5.12109375 C-1 5 -1 5 2 6 C2 5.34 2 4.68 2 4 C1.34 3.67 0.68 3.34 0 3 C0 2.01 0 1.02 0 0 Z " fill="#A57F3A" transform="translate(16,8)"/>
<path d="M0 0 C0.33 0 0.66 0 1 0 C1.32309043 8.23880597 1.32309043 8.23880597 -1 12 C-4.85569441 13.43211507 -8.92585847 13.07988513 -13 13 C-13.33 12.34 -13.66 11.68 -14 11 C-11.36 11 -8.72 11 -6 11 C-6 10.34 -6 9.68 -6 9 C-6.66 8.67 -7.32 8.34 -8 8 C-7.67 7.34 -7.34 6.68 -7 6 C-6.360625 5.87625 -5.72125 5.7525 -5.0625 5.625 C-2.81237614 5.19642304 -2.81237614 5.19642304 -1.8125 3 C-1.544375 2.34 -1.27625 1.68 -1 1 C-0.67 0.67 -0.34 0.34 0 0 Z " fill="#D2AB5E" transform="translate(22,9)"/>
<path d="M0 0 C0.33 0 0.66 0 1 0 C1 2.64 1 5.28 1 8 C1.99 8.33 2.98 8.66 4 9 C4.495 9.680625 4.99 10.36125 5.5 11.0625 C9.53969138 14.19326082 14.06727668 13.30616903 19 13 C18.01 14.485 18.01 14.485 17 16 C13.29318257 16.71629322 9.72089103 16.59061762 6 16 C3.10316132 13.7984026 1.60702769 12.21405538 0 9 C-0.06950541 7.45976004 -0.08452357 5.91665012 -0.0625 4.375 C-0.05347656 3.55773437 -0.04445312 2.74046875 -0.03515625 1.8984375 C-0.02355469 1.27195312 -0.01195313 0.64546875 0 0 Z " fill="#AA8D5A" transform="translate(1,8)"/>
<path d="M0 0 C0.33 1.65 0.66 3.3 1 5 C-3.29 5 -7.58 5 -12 5 C-11.67 4.01 -11.34 3.02 -11 2 C-9.2578125 1.26953125 -9.2578125 1.26953125 -7.125 0.8125 C-6.42632812 0.65394531 -5.72765625 0.49539063 -5.0078125 0.33203125 C-3 0 -3 0 0 0 Z " fill="#B3A990" transform="translate(17,9)"/>
<path d="M0 0 C0.99 0 1.98 0 3 0 C3.33 2.31 3.66 4.62 4 7 C2.7625 7.144375 1.525 7.28875 0.25 7.4375 C-2.06516862 7.71059207 -4.03270899 8.010903 -6.25 8.75 C-8 9 -8 9 -10.109375 7.515625 C-10.73328125 7.01546875 -11.3571875 6.5153125 -12 6 C-10.2300132 5.80467039 -8.45895721 5.61901118 -6.6875 5.4375 C-5.70136719 5.33308594 -4.71523437 5.22867187 -3.69921875 5.12109375 C-1 5 -1 5 2 6 C2 5.34 2 4.68 2 4 C1.34 3.67 0.68 3.34 0 3 C0 2.01 0 1.02 0 0 Z " fill="#3B3022" transform="translate(16,8)"/>
<path d="M0 0 C0.98484375 0.02707031 1.9696875 0.05414063 2.984375 0.08203125 C3.73203125 0.11683594 4.4796875 0.15164062 5.25 0.1875 C5.58 0.8475 5.91 1.5075 6.25 2.1875 C2.62 2.1875 -1.01 2.1875 -4.75 2.1875 C-6.07 4.4975 -7.39 6.8075 -8.75 9.1875 C-9.41 9.1875 -10.07 9.1875 -10.75 9.1875 C-10.26219512 3.69969512 -10.26219512 3.69969512 -8.0625 1.5 C-5.17424523 -0.13927973 -3.29749083 -0.11776753 0 0 Z " fill="#E1CF8F" transform="translate(12.75,0.8125)"/>
<path d="M0 0 C0.36637589 6.35051546 0.36637589 6.35051546 -1.375 9.4375 C-3 11 -3 11 -5 11 C-4.38650307 3.51533742 -4.38650307 3.51533742 -2.5 1 C-1 0 -1 0 0 0 Z " fill="#E4CD65" transform="translate(23,9)"/>
<path d="M0 0 C1.65 0 3.3 0 5 0 C5 2.97 5 5.94 5 9 C2.1997768 7.5998884 1.43223902 5.73427449 0 3 C0 2.01 0 1.02 0 0 Z " fill="#FAFAFA" transform="translate(20,0)"/>
<path d="M0 0 C0.33 0 0.66 0 1 0 C1 2.97 1 5.94 1 9 C-0.98 9 -2.96 9 -5 9 C-4.34 7.68 -3.68 6.36 -3 5 C-2.34 5 -1.68 5 -1 5 C-0.67 3.35 -0.34 1.7 0 0 Z " fill="#FBFBFB" transform="translate(24,16)"/>
<path d="M0 0 C0.33 0 0.66 0 1 0 C1 2.64 1 5.28 1 8 C1.99 8.33 2.98 8.66 4 9 C4 10.65 4 12.3 4 14 C0.05536417 10.22687008 0.05536417 10.22687008 -0.09765625 6.8359375 C-0.08605469 6.02382812 -0.07445313 5.21171875 -0.0625 4.375 C-0.05347656 3.55773437 -0.04445312 2.74046875 -0.03515625 1.8984375 C-0.02355469 1.27195312 -0.01195313 0.64546875 0 0 Z " fill="#B89F78" transform="translate(1,8)"/>
<path d="M0 0 C2.125 0.9375 2.125 0.9375 4 2 C4 2.66 4 3.32 4 4 C1.69 4 -0.62 4 -3 4 C-2.67 3.01 -2.34 2.02 -2 1 C-1.34 0.67 -0.68 0.34 0 0 Z " fill="#9B9897" transform="translate(8,10)"/>
<path d="M0 0 C1.65 0 3.3 0 5 0 C4.34 1.32 3.68 2.64 3 4 C1.68 3.34 0.36 2.68 -1 2 C-0.67 1.34 -0.34 0.68 0 0 Z " fill="#D6A34D" transform="translate(15,15)"/>
</svg>
