<?xml version="1.0" encoding="UTF-8"?>
<svg version="1.1" xmlns="http://www.w3.org/2000/svg" width="64" height="64">
<path d="M0 0 C21.12 0 42.24 0 64 0 C64 21.12 64 42.24 64 64 C42.88 64 21.76 64 0 64 C0 42.88 0 21.76 0 0 Z " fill="#DC2817" transform="translate(0,0)"/>
<path d="M0 0 C2.3125 -0.3125 2.3125 -0.3125 5 0 C6.8125 2.5 6.8125 2.5 8 5 C8.5775 4.484375 9.155 3.96875 9.75 3.4375 C12 2 12 2 13.9375 2.125 C14.9584375 2.558125 14.9584375 2.558125 16 3 C17.36125 3.5259375 17.36125 3.5259375 18.75 4.0625 C21 6 21 6 21.31640625 7.9765625 C21.31285399 9.98714005 21.16425085 11.99613964 21 14 C21.66 13.01 22.32 12.02 23 11 C24.32 11.33 25.64 11.66 27 12 C26.67 13.98 26.34 15.96 26 18 C24.35 17.67 22.7 17.34 21 17 C21.49547543 19.45631001 21.49547543 19.45631001 23 22 C25.27962623 23.34776978 27.48087772 24.11364216 30 25 C29.67 25.66 29.34 26.32 29 27 C19.03125 25.96875 19.03125 25.96875 15 24 C13.125 20.875 13.125 20.875 12 18 C12.66 18 13.32 18 14 18 C14.09087891 17.06027344 14.09087891 17.06027344 14.18359375 16.1015625 C14.26738281 15.28429688 14.35117187 14.46703125 14.4375 13.625 C14.51871094 12.81289063 14.59992187 12.00078125 14.68359375 11.1640625 C15 9 15 9 16 7 C11.70545566 8.92514057 9.60318655 11.09522017 7 15 C5.0546875 15.29296875 5.0546875 15.29296875 2.875 15.1875 C1.59625 15.125625 0.3175 15.06375 -1 15 C-1 14.01 -1 13.02 -1 12 C-2.32 11.34 -3.64 10.68 -5 10 C-4.505 10.61875 -4.01 11.2375 -3.5 11.875 C-2 14 -2 14 -2 16 C-5.75 17.125 -5.75 17.125 -8 16 C-7.34 17.32 -6.68 18.64 -6 20 C-5.13375 19.34 -4.2675 18.68 -3.375 18 C0.32338822 15.80836254 1.80502454 15.30083742 6 16 C10.31646551 18.28518762 13.0976625 20.45552709 15 25 C15.1875 28.8125 15.1875 28.8125 15 32 C16.12148437 31.65775391 16.12148437 31.65775391 17.265625 31.30859375 C18.74289063 30.87740234 18.74289063 30.87740234 20.25 30.4375 C21.22453125 30.14746094 22.1990625 29.85742188 23.203125 29.55859375 C25.96243932 29.00750164 27.3912824 29.06210391 30 30 C29.67 30.66 29.34 31.32 29 32 C27.6078125 32.3403125 27.6078125 32.3403125 26.1875 32.6875 C22.67821772 34.13249859 21.3992508 35.54599224 19.6796875 38.9140625 C18.48546286 42.57909675 18.68951767 46.1965914 19 50 C18.01 50 17.02 50 16 50 C14.70756464 45.8803623 13.73747375 42.33168317 14 38 C13.01 37.505 13.01 37.505 12 37 C9.96672915 37.8499169 9.96672915 37.8499169 8 39 C7.01 39.495 7.01 39.495 6 40 C7.37806808 43.21549219 8.88609739 44.97220001 11.625 47.125 C13.5390625 48.6328125 13.5390625 48.6328125 15 50 C15 50.66 15 51.32 15 52 C12.03824877 51.38722388 10.61941217 50.74627478 8 49 C4.85778033 49.31506627 4.85778033 49.31506627 2 50 C2 51.32 2 52.64 2 54 C3.65 53.34 5.3 52.68 7 52 C6.67 53.32 6.34 54.64 6 56 C4.02 56 2.04 56 0 56 C-0.66 54.35 -1.32 52.7 -2 51 C-2.391875 51.515625 -2.78375 52.03125 -3.1875 52.5625 C-5 54 -5 54 -7.375 53.875 C-12.5862069 52.13793103 -12.5862069 52.13793103 -15 50 C-15.44184367 47.20533877 -15.23400073 44.85480886 -15 42 C-15.33 42.99 -15.66 43.98 -16 45 C-18.31 44.34 -20.62 43.68 -23 43 C-22.505 40.03 -22.505 40.03 -22 37 C-20.02 36.505 -20.02 36.505 -18 36 C-21.465 34.515 -21.465 34.515 -25 33 C-25.2878026 29.94929243 -25.44198649 27.04000462 -25 24 C-22.16755403 21.47376441 -20.78435224 21 -17 21 C-17 20.01 -17 19.02 -17 18 C-19.31 18 -21.62 18 -24 18 C-22.35 15.36 -20.7 12.72 -19 10 C-18.34 10.33 -17.68 10.66 -17 11 C-16.67 11.99 -16.34 12.98 -16 14 C-15.34 14.33 -14.68 14.66 -14 15 C-14.33 12.03 -14.66 9.06 -15 6 C-9.61946903 1.96460177 -9.61946903 1.96460177 -6.8125 2.125 C-5 3 -5 3 -2 5 C-1.34 3.35 -0.68 1.7 0 0 Z " fill="#0A0605" transform="translate(29,4)"/>
<path d="M0 0 C4.31646551 2.28518762 7.0976625 4.45552709 9 9 C9.1875 12.8125 9.1875 12.8125 9 16 C9.74765625 15.77183594 10.4953125 15.54367188 11.265625 15.30859375 C12.25046875 15.02113281 13.2353125 14.73367187 14.25 14.4375 C15.22453125 14.14746094 16.1990625 13.85742188 17.203125 13.55859375 C19.96243932 13.00750164 21.3912824 13.06210391 24 14 C23.67 14.66 23.34 15.32 23 16 C21.6078125 16.3403125 21.6078125 16.3403125 20.1875 16.6875 C16.67821772 18.13249859 15.3992508 19.54599224 13.6796875 22.9140625 C12.48546286 26.57909675 12.68951767 30.1965914 13 34 C12.01 34 11.02 34 10 34 C8.70756464 29.8803623 7.73747375 26.33168317 8 22 C7.34 21.67 6.68 21.34 6 21 C3.96672915 21.8499169 3.96672915 21.8499169 2 23 C-0.86608129 24.43304064 -2.81300783 24.30644155 -6 24 C-10.32036821 21.71274624 -13.05893629 19.52914866 -15 15 C-15.58496307 11.07239081 -15.18285914 9.34540059 -13.3125 5.8125 C-9.4522567 1.1176095 -6.15792514 -0.87970359 0 0 Z " fill="#182A6D" transform="translate(35,20)"/>
<path d="M0 0 C0.99 0.33 1.98 0.66 3 1 C2.7834375 1.77085938 2.566875 2.54171875 2.34375 3.3359375 C2.0653125 4.33882812 1.786875 5.34171875 1.5 6.375 C1.2215625 7.37273438 0.943125 8.37046875 0.65625 9.3984375 C-0.18149277 12.71948921 0.13047721 14.73928955 1 18 C1.70125 17.95875 2.4025 17.9175 3.125 17.875 C6 18 6 18 9.125 19.0625 C12.02294341 20.32277361 12.02294341 20.32277361 15 19 C13.88625 18.608125 12.7725 18.21625 11.625 17.8125 C8.68039334 16.57517033 8.14117455 16.26393503 6.5625 13.3125 C6.376875 12.549375 6.19125 11.78625 6 11 C8 10 8 10 12 10 C12.33 9.01 12.66 8.02 13 7 C13.66 7 14.32 7 15 7 C14.34 9.31 13.68 11.62 13 14 C11.68 13.67 10.36 13.34 9 13 C9 13.66 9 14.32 9 15 C10.7015625 15.4640625 10.7015625 15.4640625 12.4375 15.9375 C16 17 16 17 17 18 C17.50614137 23.23012746 17.50614137 23.23012746 17 26 C14.16346849 28.45321644 12.74876504 29 9 29 C9 29.99 9 30.98 9 32 C11.31 32 13.62 32 16 32 C14.35 34.97 12.7 37.94 11 41 C8 37 8 37 8 35 C7.34 35 6.68 35 6 35 C6.33 37.97 6.66 40.94 7 44 C1.74382315 48.03381014 1.74382315 48.03381014 -1.75 47.875 C-4 47 -4 47 -6 45 C-7.32 46.32 -8.64 47.64 -10 49 C-11.32 48.34 -12.64 47.68 -14 47 C-13.375 45.0625 -13.375 45.0625 -12 43 C-8.99228896 41.8808517 -7.04773704 41.54857021 -4.05078125 42.83984375 C-2.32539362 43.8232797 -0.65751595 44.90603947 1 46 C0.236875 45.05125 -0.52625 44.1025 -1.3125 43.125 C-1.74175781 42.59132812 -2.17101562 42.05765625 -2.61328125 41.5078125 C-4.12270545 39.74707893 -4.12270545 39.74707893 -7 38 C-7 37.01 -7 36.02 -7 35 C-9.31 35 -11.62 35 -14 35 C-14 34.67 -14 34.34 -14 34 C-12.7625 33.731875 -11.525 33.46375 -10.25 33.1875 C-6.89716221 32.36118005 -4.58904064 31.37328726 -2 29 C-1.34 29.33 -0.68 29.66 0 30 C0 30.66 0 31.32 0 32 C0.31711338 34.04424876 0.65287372 36.08563313 1 38.125 C1.185625 39.22070312 1.37125 40.31640625 1.5625 41.4453125 C1.706875 42.28835937 1.85125 43.13140625 2 44 C2.99 44 3.98 44 5 44 C4.86980469 43.443125 4.73960938 42.88625 4.60546875 42.3125 C3.77644586 37.72575651 3.69314213 34.67492051 6.0625 30.5625 C8.52100179 27.08883033 10.74166586 25.79224821 15 25 C11.18484048 23.72828016 9.73932636 24.72862904 6 26 C3.125 26.125 3.125 26.125 1 26 C0.67 26.66 0.34 27.32 0 28 C0.06960937 27.12988281 0.06960937 27.12988281 0.140625 26.2421875 C0.40087738 20.6095825 -0.12710089 17.41080176 -4 13 C-7.20785018 10.64757653 -10.09649252 10.5315791 -14 11 C-17.32808239 12.88413915 -17.32808239 12.88413915 -20 15 C-20.66 14.67 -21.32 14.34 -22 14 C-22.625 11.4375 -22.625 11.4375 -23 9 C-22.34 8.67 -21.68 8.34 -21 8 C-20.67 8.66 -20.34 9.32 -20 10 C-18.68 10 -17.36 10 -16 10 C-17.65 8.02 -19.3 6.04 -21 4 C-20.67 3.34 -20.34 2.68 -20 2 C-17.5 3.8125 -17.5 3.8125 -15 6 C-15 6.99 -15 7.98 -15 9 C-12.36 9 -9.72 9 -7 9 C-6.95875 8.443125 -6.9175 7.88625 -6.875 7.3125 C-5.49042634 3.65326962 -3.19027233 2.23319063 0 0 Z " fill="#050302" transform="translate(43,10)"/>
<path d="M0 0 C2.3125 -0.3125 2.3125 -0.3125 5 0 C6.8125 2.5 6.8125 2.5 8 5 C8.5775 4.484375 9.155 3.96875 9.75 3.4375 C12 2 12 2 13.9375 2.125 C14.9584375 2.558125 14.9584375 2.558125 16 3 C16.9075 3.350625 17.815 3.70125 18.75 4.0625 C21 6 21 6 21.31640625 7.9765625 C21.31285399 9.98714005 21.16425085 11.99613964 21 14 C21.66 13.01 22.32 12.02 23 11 C24.32 11.33 25.64 11.66 27 12 C26.67 13.98 26.34 15.96 26 18 C24.35 17.67 22.7 17.34 21 17 C21.49547543 19.45631001 21.49547543 19.45631001 23 22 C25.27962623 23.34776978 27.48087772 24.11364216 30 25 C29.67 25.66 29.34 26.32 29 27 C19.03125 25.96875 19.03125 25.96875 15 24 C13.125 20.875 13.125 20.875 12 18 C12.66 18 13.32 18 14 18 C14.09087891 17.06027344 14.09087891 17.06027344 14.18359375 16.1015625 C14.26738281 15.28429688 14.35117187 14.46703125 14.4375 13.625 C14.51871094 12.81289063 14.59992187 12.00078125 14.68359375 11.1640625 C15 9 15 9 16 7 C11.70545566 8.92514057 9.60318655 11.09522017 7 15 C5.0546875 15.29296875 5.0546875 15.29296875 2.875 15.1875 C1.59625 15.125625 0.3175 15.06375 -1 15 C-1 14.01 -1 13.02 -1 12 C-1.5775 11.731875 -2.155 11.46375 -2.75 11.1875 C-8.62790698 8.08527132 -8.62790698 8.08527132 -9.75 4.8125 C-9.8325 4.214375 -9.915 3.61625 -10 3 C-8.25 2.3125 -8.25 2.3125 -6 2 C-3.75 3.4375 -3.75 3.4375 -2 5 C-1.34 3.35 -0.68 1.7 0 0 Z " fill="#0B0503" transform="translate(29,4)"/>
<path d="M0 0 C0.66 0.33 1.32 0.66 2 1 C2 1.66 2 2.32 2 3 C2.31711338 5.04424876 2.65287372 7.08563313 3 9.125 C3.185625 10.22070312 3.37125 11.31640625 3.5625 12.4453125 C3.706875 13.28835937 3.85125 14.13140625 4 15 C4.99 15 5.98 15 7 15 C6.88140625 14.41992188 6.7628125 13.83984375 6.640625 13.2421875 C5.45666014 6.06736043 5.45666014 6.06736043 7.9375 2.4375 C8.618125 1.633125 9.29875 0.82875 10 0 C10.33 0.99 10.66 1.98 11 3 C13.31 3 15.62 3 18 3 C16.35 5.97 14.7 8.94 13 12 C10 8 10 8 10 6 C9.34 6 8.68 6 8 6 C8.33 8.97 8.66 11.94 9 15 C3.74382315 19.03381014 3.74382315 19.03381014 0.25 18.875 C-2 18 -2 18 -4 16 C-5.32 17.32 -6.64 18.64 -8 20 C-9.32 19.34 -10.64 18.68 -12 18 C-11.375 16.0625 -11.375 16.0625 -10 14 C-6.99228896 12.8808517 -5.04773704 12.54857021 -2.05078125 13.83984375 C-0.32539362 14.8232797 1.34248405 15.90603947 3 17 C2.236875 16.05125 1.47375 15.1025 0.6875 14.125 C0.04361328 13.32449219 0.04361328 13.32449219 -0.61328125 12.5078125 C-2.12270545 10.74707893 -2.12270545 10.74707893 -5 9 C-5 8.01 -5 7.02 -5 6 C-7.31 6 -9.62 6 -12 6 C-12 5.67 -12 5.34 -12 5 C-10.7625 4.731875 -9.525 4.46375 -8.25 4.1875 C-4.89716221 3.36118005 -2.58904064 2.37328726 0 0 Z " fill="#060303" transform="translate(41,39)"/>
<path d="M0 0 C3 1 3 1 4 3 C5.64363134 3.72159424 7.31050386 4.39351421 9 5 C8.690625 5.53625 8.38125 6.0725 8.0625 6.625 C6.82172561 9.3984957 6.4090325 12.00042837 6 15 C4.906875 14.814375 3.81375 14.62875 2.6875 14.4375 C-0.93624133 13.7421932 -0.93624133 13.7421932 -4 15 C-4.12375 13.906875 -4.2475 12.81375 -4.375 11.6875 C-4.75464801 7.92618198 -4.75464801 7.92618198 -7 5 C-6.030625 4.54625 -5.06125 4.0925 -4.0625 3.625 C-0.92920418 2.34213779 -0.92920418 2.34213779 0 0 Z " fill="#AA7E64" transform="translate(31,24)"/>
<path d="M0 0 C-0.33 0.66 -0.66 1.32 -1 2 C-2.3921875 2.3403125 -2.3921875 2.3403125 -3.8125 2.6875 C-7.32178228 4.13249859 -8.6007492 5.54599224 -10.3203125 8.9140625 C-11.51453714 12.57909675 -11.31048233 16.1965914 -11 20 C-11.99 20 -12.98 20 -14 20 C-15.29243536 15.8803623 -16.26252625 12.33168317 -16 8 C-16.66 7.67 -17.32 7.34 -18 7 C-17.00931784 4.40280623 -16.48310981 3.23742968 -13.94140625 1.98828125 C-13.15636719 1.76527344 -12.37132812 1.54226562 -11.5625 1.3125 C-10.78003906 1.08175781 -9.99757813 0.85101563 -9.19140625 0.61328125 C-8.46824219 0.41089844 -7.74507812 0.20851562 -7 0 C-3.86650268 -1.04449911 -3.01031744 -0.93423645 0 0 Z " fill="#F5DBBA" transform="translate(59,34)"/>
<path d="M0 0 C1.9453125 -0.29296875 1.9453125 -0.29296875 4.125 -0.1875 C5.40375 -0.125625 6.6825 -0.06375 8 0 C8.33 0.99 8.66 1.98 9 3 C10.63502936 4.58558381 10.63502936 4.58558381 12.5625 6.0625 C14.50390625 7.59765625 14.50390625 7.59765625 16 9 C16 9.66 16 10.32 16 11 C13.03824877 10.38722388 11.61941217 9.74627478 9 8 C6.62392133 7.64579239 6.62392133 7.64579239 4.0625 7.6875 C2.78052734 7.66236328 2.78052734 7.66236328 1.47265625 7.63671875 C-1.4607967 8.06769999 -2.70919345 9.18744116 -5 11 C-5.99 11 -6.98 11 -8 11 C-6.54821438 7.61250022 -4.63059397 5.54838791 -2 3 C-1.34 2.01 -0.68 1.02 0 0 Z " fill="#F9DEBD" transform="translate(28,45)"/>
<path d="M0 0 C0.99 0.33 1.98 0.66 3 1 C3.94921875 3.328125 3.94921875 3.328125 4.6875 6.25 C5.06455078 7.68085938 5.06455078 7.68085938 5.44921875 9.140625 C5.9703456 11.84604951 6.10521678 14.25434317 6 17 C3.92085336 17.70005949 1.83648414 18.38462244 -0.25 19.0625 C-1.41015625 19.44535156 -2.5703125 19.82820313 -3.765625 20.22265625 C-6.80077085 20.95211763 -8.15703213 21.11889082 -11 20 C-10.67 19.34 -10.34 18.68 -10 18 C-9.071875 17.773125 -8.14375 17.54625 -7.1875 17.3125 C-3.67821772 15.86750141 -2.3992508 14.45400776 -0.6796875 11.0859375 C0.51453714 7.42090325 0.31048233 3.8034086 0 0 Z " fill="#FADFBE" transform="translate(16,10)"/>
<path d="M0 0 C2.86724686 0.57344937 3.8614515 0.8614515 6 3 C8.52982597 3.35804211 8.52982597 3.35804211 11.375 3.3125 C12.33148438 3.32925781 13.28796875 3.34601562 14.2734375 3.36328125 C17.39552921 2.94730055 18.59258792 1.94129612 21 0 C21.99 0 22.98 0 24 0 C22.54821438 3.38749978 20.63059397 5.45161209 18 8 C17.01 9.485 17.01 9.485 16 11 C14.0546875 11.29296875 14.0546875 11.29296875 11.875 11.1875 C10.59625 11.125625 9.3175 11.06375 8 11 C8 10.01 8 9.02 8 8 C7.4225 7.731875 6.845 7.46375 6.25 7.1875 C3.92636635 5.9611378 1.96175354 4.75156566 0 3 C0 2.01 0 1.02 0 0 Z " fill="#FADFBE" transform="translate(20,8)"/>
<path d="M0 0 C10.08695652 1.04347826 10.08695652 1.04347826 14 3 C16.11354928 6.21259491 16.1234568 8.32314593 15.44140625 12.0625 C14.70058711 15.06831161 13.89211118 18.03588867 13 21 C12.01 21 11.02 21 10 21 C10.06960937 20.14728516 10.06960937 20.14728516 10.140625 19.27734375 C10.4229934 13.23667683 9.75639639 9.8158928 6 5 C3.67951821 3.6037358 1.60145026 2.85047412 -1 2 C-0.67 1.34 -0.34 0.68 0 0 Z " fill="#F8DEBC" transform="translate(6,33)"/>
<path d="M0 0 C0.66 0 1.32 0 2 0 C1.95359375 0.56847656 1.9071875 1.13695312 1.859375 1.72265625 C1.5770066 7.76332317 2.24360361 11.1841072 6 16 C8.32048179 17.3962642 10.39854974 18.14952588 13 19 C12.67 19.66 12.34 20.32 12 21 C2.03125 19.96875 2.03125 19.96875 -2 18 C-3.875 14.875 -3.875 14.875 -5 12 C-4.34 12 -3.68 12 -3 12 C-2.95101562 11.38511719 -2.90203125 10.77023438 -2.8515625 10.13671875 C-2.77679688 9.32847656 -2.70203125 8.52023438 -2.625 7.6875 C-2.52058594 6.48673828 -2.52058594 6.48673828 -2.4140625 5.26171875 C-2 3 -2 3 0 0 Z " fill="#F9DEBD" transform="translate(46,10)"/>
<path d="M0 0 C0 0.99 0 1.98 0 3 C0.66 3 1.32 3 2 3 C3.91847864 5.87771795 5.50079488 8.88626628 7 12 C5.68 12.33 4.36 12.66 3 13 C-0.875 6.375 -0.875 6.375 -2 3 C-2.66 2.67 -3.32 2.34 -4 2 C-3.90460937 2.62648438 -3.80921875 3.25296875 -3.7109375 3.8984375 C-3.60007812 4.71570313 -3.48921875 5.53296875 -3.375 6.375 C-3.25898438 7.18710938 -3.14296875 7.99921875 -3.0234375 8.8359375 C-3.01570313 9.55007812 -3.00796875 10.26421875 -3 11 C-5 13 -5 13 -8.625 13.125 C-9.73875 13.08375 -10.8525 13.0425 -12 13 C-12.33 12.01 -12.66 11.02 -13 10 C-11.68 8.68 -10.36 7.36 -9 6 C-8.71125 6.639375 -8.4225 7.27875 -8.125 7.9375 C-7.17176549 10.15206079 -7.17176549 10.15206079 -5 11 C-5.33 8.03 -5.66 5.06 -6 2 C-3 0 -3 0 0 0 Z " fill="#110806" transform="translate(20,8)"/>
<path d="M0 0 C0.66 0 1.32 0 2 0 C1.34 2.31 0.68 4.62 0 7 C-1.32 6.67 -2.64 6.34 -4 6 C-4 6.66 -4 7.32 -4 8 C-2.865625 8.309375 -1.73125 8.61875 -0.5625 8.9375 C3 10 3 10 4 11 C4.50384885 16.20643807 4.50384885 16.20643807 4 19 C1.75 21.0625 1.75 21.0625 -1 22 C-3.3125 21.6875 -3.3125 21.6875 -5 21 C-2.69 20.01 -0.38 19.02 2 18 C-1.21717892 16.92760703 -2.05283612 17.06390515 -5.1875 17.9375 C-6.445625 18.288125 -7.70375 18.63875 -9 19 C-9 18.34 -9 17.68 -9 17 C-7.02 16.67 -5.04 16.34 -3 16 C-3 15.34 -3 14.68 -3 14 C-3.66 14 -4.32 14 -5 14 C-4.67 13.34 -4.34 12.68 -4 12 C-1.03 12.495 -1.03 12.495 2 13 C-0.74830462 11.01531351 -0.74830462 11.01531351 -3.0625 10.1875 C-5.67564428 8.58589544 -6.09774983 6.85712552 -7 4 C-5 3 -5 3 -1 3 C-0.67 2.01 -0.34 1.02 0 0 Z " fill="#080404" transform="translate(56,17)"/>
<path d="M0 0 C3 1.8125 3 1.8125 6 4 C6 4.99 6 5.98 6 7 C8.64 7 11.28 7 14 7 C14.04125 6.38125 14.0825 5.7625 14.125 5.125 C14.558125 4.073125 14.558125 4.073125 15 3 C18.0625 1.75 18.0625 1.75 21 1 C20.67 3.31 20.34 5.62 20 8 C16.972685 9.009105 15.31494626 8.9902504 12.1875 8.8125 C7.13375082 8.73110726 4.8263376 9.77782096 1 13 C0.34 12.67 -0.32 12.34 -1 12 C-1.625 9.4375 -1.625 9.4375 -2 7 C-1.34 6.67 -0.68 6.34 0 6 C0.33 6.66 0.66 7.32 1 8 C2.32 8 3.64 8 5 8 C4.175 7.05125 3.35 6.1025 2.5 5.125 C0 2.25 0 2.25 0 0 Z " fill="#0A0806" transform="translate(22,12)"/>
<path d="M0 0 C3.11198065 1.49836105 6.0534615 3.19933758 9 5 C8.34 6.98 7.68 8.96 7 11 C6.34 11 5.68 11 5 11 C3.29319053 12.62553283 1.62339805 14.29115995 0 16 C-1.13626323 12.60699174 -0.8241769 10.32624078 0 6.875 C1.01659948 3.33495184 1.01659948 3.33495184 0 0 Z " fill="#0D0B09" transform="translate(20,38)"/>
<path d="M0 0 C0.66 0.33 1.32 0.66 2 1 C1.67 3.97 1.34 6.94 1 10 C2.32 9.67 3.64 9.34 5 9 C5 9.99 5 10.98 5 12 C6.03125 11.34 7.0625 10.68 8.125 10 C11.53576826 8.02717274 14.0201643 7.61172335 18 8 C17.01 8.99 16.02 9.98 15 11 C15.33 11.99 15.66 12.98 16 14 C17.65 13.34 19.3 12.68 21 12 C20.67 13.32 20.34 14.64 20 16 C18.02 16 16.04 16 14 16 C13.34 14.35 12.68 12.7 12 11 C11.608125 11.515625 11.21625 12.03125 10.8125 12.5625 C9 14 9 14 6.625 13.875 C3.78196908 12.92732303 1.49896633 11.64217787 -1 10 C-0.67 6.7 -0.34 3.4 0 0 Z " fill="#090101" transform="translate(15,44)"/>
<path d="M0 0 C5.58333333 1.45652174 5.58333333 1.45652174 7.4375 3.875 C8.09832139 6.37143637 7.85592977 7.58783428 7 10 C6.67 10.99 6.34 11.98 6 13 C3.69 12.34 1.38 11.68 -1 11 C-0.67 9.02 -0.34 7.04 0 5 C1.32 4.67 2.64 4.34 4 4 C1.525 3.01 1.525 3.01 -1 2 C-0.67 1.34 -0.34 0.68 0 0 Z " fill="#2F2D31" transform="translate(7,36)"/>
<path d="M0 0 C0.66 0.66 1.32 1.32 2 2 C5.58343976 2.16677282 5.58343976 2.16677282 9 2 C7.3125 3.5625 7.3125 3.5625 5 5 C1.62963689 4.75925978 0.41201979 4.41201979 -2 2 C-3.32 3.32 -4.64 4.64 -6 6 C-7.32 5.34 -8.64 4.68 -10 4 C-7.57116875 -1.37812634 -5.64578748 -1.2938263 0 0 Z " fill="#16110E" transform="translate(39,53)"/>
<path d="M0 0 C0.33 0.99 0.66 1.98 1 3 C3.31 3 5.62 3 8 3 C6.35 5.97 4.7 8.94 3 12 C0 8 0 8 0 6 C-0.99 5.67 -1.98 5.34 -3 5 C-2.01 3.35 -1.02 1.7 0 0 Z " fill="#54352E" transform="translate(51,39)"/>
<path d="M0 0 C1.43088528 2.86177057 0.59991697 4.93375773 0 8 C-1.093125 7.814375 -2.18625 7.62875 -3.3125 7.4375 C-6.93624133 6.7421932 -6.93624133 6.7421932 -10 8 C-10 5.69 -10 3.38 -10 1 C-9.67 1.99 -9.34 2.98 -9 4 C-6.69 4 -4.38 4 -2 4 C-2 3.01 -2 2.02 -2 1 C-1.34 0.67 -0.68 0.34 0 0 Z " fill="#C58545" transform="translate(37,31)"/>
<path d="M0 0 C1.65 0.33 3.3 0.66 5 1 C4.67 2.98 4.34 4.96 4 7 C1.69 6.67 -0.62 6.34 -3 6 C-2.01 4.02 -1.02 2.04 0 0 Z " fill="#55626C" transform="translate(51,15)"/>
<path d="M0 0 C0 0.66 0 1.32 0 2 C-2.31 2.66 -4.62 3.32 -7 4 C-7.33 2.35 -7.66 0.7 -8 -1 C-4.59745511 -2.2151946 -3.06748874 -1.86240388 0 0 Z " fill="#D22919" transform="translate(53,31)"/>
<path d="M0 0 C0 1.32 0 2.64 0 4 C-2.3125 4.625 -2.3125 4.625 -5 5 C-5.99 4.34 -6.98 3.68 -8 3 C-8 2.34 -8 1.68 -8 1 C-5.07175348 0.02391783 -3.04386724 -0.08226668 0 0 Z " fill="#D42818" transform="translate(19,30)"/>
<path d="M0 0 C0.66 0.33 1.32 0.66 2 1 C2.625 4.0625 2.625 4.0625 3 7 C1.35 7 -0.3 7 -2 7 C-2.33 6.01 -2.66 5.02 -3 4 C-1.5625 1.8125 -1.5625 1.8125 0 0 Z " fill="#5A3931" transform="translate(10,14)"/>
<path d="M0 0 C0.99 0.33 1.98 0.66 3 1 C3.33 3.31 3.66 5.62 4 8 C1.95880212 6.38405168 -0.04072937 4.7143618 -2 3 C-2 2.34 -2 1.68 -2 1 C-1.34 0.67 -0.68 0.34 0 0 Z " fill="#CC1912" transform="translate(39,43)"/>
<path d="M0 0 C1.2077558 3.62326739 0.54311128 4.64146369 -1 8 C-2.32 7.67 -3.64 7.34 -5 7 C-4.1875 4.0625 -4.1875 4.0625 -3 1 C-2.01 0.67 -1.02 0.34 0 0 Z " fill="#E0371D" transform="translate(42,13)"/>
<path d="M0 0 C2.04119788 1.61594832 4.04072937 3.2856382 6 5 C6 5.66 6 6.32 6 7 C4.68 7.33 3.36 7.66 2 8 C-0.1519437 4.77208445 -0.20086443 3.71599191 0 0 Z " fill="#E0351B" transform="translate(21,13)"/>
<path d="M0 0 C2.0625 0.4375 2.0625 0.4375 4 1 C2.52307692 5.67692308 2.52307692 5.67692308 -0.125 7.3125 C-1.053125 7.6528125 -1.053125 7.6528125 -2 8 C-1.125 1.125 -1.125 1.125 0 0 Z " fill="#D11913" transform="translate(23,43)"/>
<path d="M0 0 C0.99 0.33 1.98 0.66 3 1 C5.21081851 1.10540926 5.21081851 1.10540926 8 0 C7.67 1.65 7.34 3.3 7 5 C5.02 5 3.04 5 1 5 C0.67 3.35 0.34 1.7 0 0 Z " fill="#6AC9E1" transform="translate(28,30)"/>
<path d="M0 0 C0.99 0.33 1.98 0.66 3 1 C2.34 3.97 1.68 6.94 1 10 C0.34 10 -0.32 10 -1 10 C-1 8.02 -1 6.04 -1 4 C-1.99 4.495 -1.99 4.495 -3 5 C-1.125 1.125 -1.125 1.125 0 0 Z " fill="#13100D" transform="translate(43,10)"/>
<path d="M0 0 C1.32 0.66 2.64 1.32 4 2 C3.34 3.32 2.68 4.64 2 6 C0.68 5.34 -0.64 4.68 -2 4 C-1.34 2.68 -0.68 1.36 0 0 Z " fill="#DED7A7" transform="translate(31,5)"/>
<path d="M0 0 C0 0.66 0 1.32 0 2 C-2.1875 4.1875 -2.1875 4.1875 -5 6 C-7.8125 5.75 -7.8125 5.75 -10 5 C-9.4225 4.731875 -8.845 4.46375 -8.25 4.1875 C-5.94252104 3.04946754 -5.94252104 3.04946754 -3.875 1.375 C-2 0 -2 0 0 0 Z " fill="#140A08" transform="translate(29,52)"/>
<path d="M0 0 C1.65 0.33 3.3 0.66 5 1 C4.34 2.32 3.68 3.64 3 5 C1.68 4.34 0.36 3.68 -1 3 C-0.67 2.01 -0.34 1.02 0 0 Z " fill="#E8E1AF" transform="translate(30,54)"/>
<path d="M0 0 C2.64 0 5.28 0 8 0 C7.67 0.99 7.34 1.98 7 3 C5.02 3 3.04 3 1 3 C0.67 2.01 0.34 1.02 0 0 Z " fill="#F1D0A5" transform="translate(28,45)"/>
<path d="M0 0 C1.98 0 3.96 0 6 0 C6.33 0.99 6.66 1.98 7 3 C4.36 3 1.72 3 -1 3 C-0.67 2.01 -0.34 1.02 0 0 Z " fill="#F1D1A5" transform="translate(29,16)"/>
<path d="M0 0 C0.99 0.33 1.98 0.66 3 1 C1.35 3.64 -0.3 6.28 -2 9 C-2.66 8.34 -3.32 7.68 -4 7 C-3.02391783 4.07175348 -1.89213369 2.38573379 0 0 Z " fill="#090101" transform="translate(56,42)"/>
<path d="M0 0 C0.99 0 1.98 0 3 0 C1.92598892 2.91517292 1.22189824 4.77810176 -1 7 C-1.66 6.34 -2.32 5.68 -3 5 C-1.125 1.125 -1.125 1.125 0 0 Z " fill="#E2CCA2" transform="translate(44,36)"/>
<path d="M0 0 C1.0625 1.8125 1.0625 1.8125 2 4 C1.67 4.99 1.34 5.98 1 7 C-1.0625 7.6875 -1.0625 7.6875 -3 8 C-2.690625 7.236875 -2.38125 6.47375 -2.0625 5.6875 C-1.32106407 3.81210323 -0.63771783 1.91315348 0 0 Z " fill="#E9D0A7" transform="translate(20,20)"/>
<path d="M0 0 C0.33 0.66 0.66 1.32 1 2 C4.465 1.505 4.465 1.505 8 1 C7.34 2.65 6.68 4.3 6 6 C5.67 5.01 5.34 4.02 5 3 C2.69 3 0.38 3 -2 3 C-1.34 2.01 -0.68 1.02 0 0 Z " fill="#010000" transform="translate(7,19)"/>
<path d="M0 0 C0.99 0 1.98 0 3 0 C3 0.99 3 1.98 3 3 C3.66 3 4.32 3 5 3 C4.67 4.98 4.34 6.96 4 9 C2.00902154 6.01353231 1.05875074 3.40312738 0 0 Z " fill="#18100D" transform="translate(17,8)"/>
<path d="M0 0 C4 4.75 4 4.75 4 7 C3.01 7 2.02 7 1 7 C0.01 5.02 -0.98 3.04 -2 1 C-1.34 0.67 -0.68 0.34 0 0 Z " fill="#EBCBA1" transform="translate(43,21)"/>
<path d="M0 0 C3.3 0 6.6 0 10 0 C6 3 6 3 3.3125 2.8125 C1 2 1 2 0 0 Z " fill="#170706" transform="translate(38,55)"/>
<path d="M0 0 C0.99 0 1.98 0 3 0 C3.66 1.98 4.32 3.96 5 6 C4.01 6.495 4.01 6.495 3 7 C0 2.25 0 2.25 0 0 Z " fill="#EDCCA1" transform="translate(17,36)"/>
</svg>
