<?xml version="1.0" encoding="UTF-8"?>
<svg version="1.1" xmlns="http://www.w3.org/2000/svg" width="25" height="25">
<path d="M0 0 C0.33 1.98 0.66 3.96 1 6 C2.65 4.68 4.3 3.36 6 2 C6.48108275 3.41601714 6.95978141 4.83284437 7.4375 6.25 C7.70433594 7.03890625 7.97117187 7.8278125 8.24609375 8.640625 C9.66859122 13.09237875 9.66859122 13.09237875 10 15 C8.6875 17.25 8.6875 17.25 7 19 C6.34 19 5.68 19 5 19 C4.67 18.34 4.34 17.68 4 17 C3.54625 17.66 3.0925 18.32 2.625 19 C2.08875 19.66 1.5525 20.32 1 21 C0.34 21 -0.32 21 -1 21 C-1.33 18.69 -1.66 16.38 -2 14 C-2.45375 14.825 -2.9075 15.65 -3.375 16.5 C-4.179375 17.7375 -4.179375 17.7375 -5 19 C-5.66 19 -6.32 19 -7 19 C-8.20465156 14.34201396 -9.28547412 9.76350585 -10 5 C-8.68 4.01 -7.36 3.02 -6 2 C-5.67 2.66 -5.34 3.32 -5 4 C-4.360625 3.34 -3.72125 2.68 -3.0625 2 C-1 0 -1 0 0 0 Z M-5 7 C-4 9 -4 9 -4 9 Z M2 8 C3 10 3 10 3 10 Z M-4 9 C-3 11 -3 11 -3 11 Z " fill="#4E9EEA" transform="translate(13,2)"/>
<path d="M0 0 C0.48108275 1.41601714 0.95978141 2.83284437 1.4375 4.25 C1.83775391 5.43335938 1.83775391 5.43335938 2.24609375 6.640625 C3.66859122 11.09237875 3.66859122 11.09237875 4 13 C2.6875 15.25 2.6875 15.25 1 17 C0.34 17 -0.32 17 -1 17 C-1.49904028 14.77612149 -1.99399036 12.55174379 -2.4765625 10.32421875 C-2.86970009 8.57857051 -3.3258683 6.84692757 -3.8125 5.125 C-4 3 -4 3 -2.625 1.1875 C-1 0 -1 0 0 0 Z " fill="#275DA3" transform="translate(19,4)"/>
<path d="M0 0 C3.62870159 10.37357631 3.62870159 10.37357631 2 16 C1.01 16.33 0.02 16.66 -1 17 C-1.6886899 14.33706573 -2.35453598 11.67337708 -3 9 C-3.4021875 7.3603125 -3.4021875 7.3603125 -3.8125 5.6875 C-4 3 -4 3 -2.625 1.125 C-1 0 -1 0 0 0 Z " fill="#265BA2" transform="translate(7,4)"/>
</svg>
