<svg xmlns="http://www.w3.org/2000/svg" width="256" height="256" fill="none" xmlns:v="https://vecta.io/nano"><g clip-path="url(#B)"><path d="M128 256c70.692 0 128-57.308 128-128S198.692 0 128 0 0 57.308 0 128s57.308 128 128 128z" fill="#000"/><mask id="A" maskUnits="userSpaceOnUse" x="28" y="28" width="200" height="200"><path d="M228 28H28V228H228V28Z" fill="#fff"/></mask><g mask="url(#A)"><path d="M147.864 35.91l5.332 12.554c10.49 24.42 29.922 44.024 54.514 54.514l12.553 5.331c3.268 1.376 5.847 3.44 7.911 5.847-6.191-44.54-41.445-79.793-85.985-85.984 2.236 1.892 4.3 4.47 5.675 7.738zM35.913 108.137l12.554-5.331c24.42-10.49 44.024-29.922 54.515-54.514l5.331-12.554c1.203-3.095 3.267-5.847 5.847-7.91-44.54 6.191-79.794 41.445-85.985 85.984 2.097-2.474 4.749-4.418 7.739-5.675h-.001zm184.178 39.725l-12.553 5.331c-24.42 10.49-44.024 29.923-54.514 54.515l-5.331 12.381c-1.204 3.096-3.268 5.847-5.847 7.911 44.54-6.191 79.793-41.445 85.984-85.985-1.892 2.58-4.643 4.643-7.739 5.847zM108.14 220.089l-5.331-12.381c-10.49-24.42-29.923-44.025-54.515-54.515l-12.554-5.331c-3.095-1.204-5.847-3.267-7.911-5.847 6.191 44.54 41.445 79.794 85.985 85.985-2.408-2.064-4.299-4.815-5.674-7.911z" fill="#7e7e7e"/></g><path d="M82.686 118.284l6.191-2.58c12.038-5.159 21.668-14.789 26.827-26.827l2.58-6.191c3.611-8.599 15.821-8.599 19.604 0l2.58 6.191c5.159 12.038 14.789 21.668 26.827 26.827l6.191 2.58c8.598 3.611 8.598 15.821 0 19.604l-6.191 2.58c-12.038 5.159-21.668 14.789-26.827 26.827l-2.58 6.191c-3.611 8.598-15.821 8.598-19.604 0l-2.58-6.191c-5.159-12.038-14.789-21.668-26.827-26.827l-6.191-2.58c-8.598-3.783-8.598-15.993 0-19.604z" fill="#e6e6e6"/></g><defs><clipPath id="B"><path fill="#fff" d="M0 0h256v256H0z"/></clipPath></defs></svg>