<?xml version="1.0" encoding="UTF-8"?>
<svg version="1.1" xmlns="http://www.w3.org/2000/svg" width="200" height="200">
<path d="M0 0 C2.82045877 2.30263418 5.56336058 4.67903285 8.27832031 7.10449219 C11.1535235 9.666713 11.1535235 9.666713 14.50878906 11.77246094 C17.18066406 13.58496094 17.18066406 13.58496094 17.86816406 15.77246094 C18.02285156 16.66964844 18.02285156 16.66964844 18.18066406 17.58496094 C19.17066406 17.91496094 20.16066406 18.24496094 21.18066406 18.58496094 C21.51066406 19.57496094 21.84066406 20.56496094 22.18066406 21.58496094 C22.78394531 22.1740625 23.38722656 22.76316406 24.00878906 23.37011719 C26.61161449 26.02443736 28.16331475 28.75588582 29.93066406 32.02246094 C30.85105469 33.69115234 30.85105469 33.69115234 31.79003906 35.39355469 C33.13514811 38.48050439 33.50200878 40.27881822 33.18066406 43.58496094 C33.84066406 43.58496094 34.50066406 43.58496094 35.18066406 43.58496094 C39.64424539 56.0781479 40.85665551 67.12735329 40.55566406 80.33496094 C40.53909422 82.04587815 40.52476266 83.75681854 40.51269531 85.46777344 C40.3702832 98.68935945 40.3702832 98.68935945 39.18066406 103.58496094 C38.52066406 103.58496094 37.86066406 103.58496094 37.18066406 103.58496094 C37.18066406 105.89496094 37.18066406 108.20496094 37.18066406 110.58496094 C36.52066406 110.58496094 35.86066406 110.58496094 35.18066406 110.58496094 C34.52066406 113.88496094 33.86066406 117.18496094 33.18066406 120.58496094 C32.52066406 120.58496094 31.86066406 120.58496094 31.18066406 120.58496094 C31.10589844 121.42542969 31.03113281 122.26589844 30.95410156 123.13183594 C30.00301116 127.37811833 28.20111083 130.25695184 25.80566406 133.83496094 C25.40605469 134.45886719 25.00644531 135.08277344 24.59472656 135.72558594 C22.64505024 138.70140769 21.175244 140.58857431 18.18066406 142.58496094 C17.87128906 143.24496094 17.56191406 143.90496094 17.24316406 144.58496094 C16.18066406 146.58496094 16.18066406 146.58496094 14.29394531 147.52246094 C12.05773456 148.64676653 10.95666201 149.72870379 9.30566406 151.58496094 C-7.5531495 168.76523493 -31.7922615 178.47350042 -55.67724609 178.87768555 C-83.14890277 179.03784131 -105.50892955 171.73865683 -126.31811523 153.40429688 C-129.3378039 150.75277047 -132.36813316 148.62599484 -135.81933594 146.58496094 C-136.52084746 145.26962683 -137.18459519 143.93378502 -137.81933594 142.58496094 C-139.08777344 141.37839844 -139.08777344 141.37839844 -140.38183594 140.14746094 C-142.93144067 137.46710724 -143.50996572 136.19428011 -143.81933594 132.58496094 C-144.80933594 132.25496094 -145.79933594 131.92496094 -146.81933594 131.58496094 C-150.62798259 125.57828936 -153.21756631 119.65575401 -153.81933594 112.58496094 C-154.47933594 111.59496094 -155.13933594 110.60496094 -155.81933594 109.58496094 C-156.19144014 108.26192377 -156.52563767 106.92758159 -156.81933594 105.58496094 C-157.14933594 104.59496094 -157.47933594 103.60496094 -157.81933594 102.58496094 C-158.14933594 102.58496094 -158.47933594 102.58496094 -158.81933594 102.58496094 C-158.87027326 96.32278946 -158.90516878 90.06067193 -158.92919922 83.79833984 C-158.93922299 81.67038984 -158.95284555 79.5424535 -158.97021484 77.41455078 C-158.99462286 74.34631976 -159.00585555 71.27827173 -159.01464844 68.20996094 C-159.02497101 67.26693115 -159.03529358 66.32390137 -159.04592896 65.35229492 C-159.04686971 59.74541582 -158.41278806 54.96630789 -156.81933594 49.58496094 C-156.15933594 49.58496094 -155.49933594 49.58496094 -154.81933594 49.58496094 C-154.69816406 48.88628906 -154.57699219 48.18761719 -154.45214844 47.46777344 C-154.28457031 46.55769531 -154.11699219 45.64761719 -153.94433594 44.70996094 C-153.78191406 43.80503906 -153.61949219 42.90011719 -153.45214844 41.96777344 C-152.81933594 39.58496094 -152.81933594 39.58496094 -150.81933594 37.58496094 C-149.71378412 35.63398714 -148.89319267 33.94732054 -148.44433594 31.74511719 C-147.67559861 29.08816878 -146.42875814 27.18569548 -144.88183594 24.89746094 C-144.3571875 24.10984375 -143.83253906 23.32222656 -143.29199219 22.51074219 C-141.81933594 20.58496094 -141.81933594 20.58496094 -139.81933594 19.58496094 C-139.48933594 18.59496094 -139.15933594 17.60496094 -138.81933594 16.58496094 C-138.25988281 16.318125 -137.70042969 16.05128906 -137.12402344 15.77636719 C-133.75454168 14.03451645 -131.50732154 11.25605376 -128.94433594 8.52246094 C-95.59880991 -25.77011212 -37.69548479 -29.31871039 0 0 Z M34.18066406 46.58496094 C35.18066406 48.58496094 35.18066406 48.58496094 35.18066406 48.58496094 Z M35.18066406 49.58496094 C36.18066406 51.58496094 36.18066406 51.58496094 36.18066406 51.58496094 Z M36.18066406 52.58496094 C37.18066406 55.58496094 37.18066406 55.58496094 37.18066406 55.58496094 Z M-156.81933594 53.58496094 C-155.81933594 56.58496094 -155.81933594 56.58496094 -155.81933594 56.58496094 Z M37.18066406 56.58496094 C38.18066406 59.58496094 38.18066406 59.58496094 38.18066406 59.58496094 Z M-157.81933594 57.58496094 C-156.81933594 61.58496094 -156.81933594 61.58496094 -156.81933594 61.58496094 Z M38.18066406 60.58496094 C38.18066406 62.23496094 38.18066406 63.88496094 38.18066406 65.58496094 C38.51066406 65.58496094 38.84066406 65.58496094 39.18066406 65.58496094 C39.18066406 63.93496094 39.18066406 62.28496094 39.18066406 60.58496094 C38.85066406 60.58496094 38.52066406 60.58496094 38.18066406 60.58496094 Z M38.18066406 93.58496094 C38.18066406 95.23496094 38.18066406 96.88496094 38.18066406 98.58496094 C38.51066406 98.58496094 38.84066406 98.58496094 39.18066406 98.58496094 C39.18066406 96.93496094 39.18066406 95.28496094 39.18066406 93.58496094 C38.85066406 93.58496094 38.52066406 93.58496094 38.18066406 93.58496094 Z " fill="#67A5DA" transform="translate(158.8193359375,19.4150390625)"/>
<path d="M0 0 C1.05058594 0.00902344 2.10117188 0.01804688 3.18359375 0.02734375 C3.96863281 0.03894531 4.75367187 0.05054688 5.5625 0.0625 C4.2425 0.3925 2.9225 0.7225 1.5625 1.0625 C2.0575 2.5475 2.0575 2.5475 2.5625 4.0625 C0.24260389 7.41346105 -2.50907569 10.23866228 -5.4375 13.0625 C-6.4275 12.5675 -6.4275 12.5675 -7.4375 12.0625 C-7.334375 12.784375 -7.23125 13.50625 -7.125 14.25 C-7.5660967 18.2198703 -9.44233682 19.56653068 -12.4375 22.0625 C-13.0975 22.0625 -13.7575 22.0625 -14.4375 22.0625 C-14.705625 23.01125 -14.97375 23.96 -15.25 24.9375 C-16.4375 28.0625 -16.4375 28.0625 -19.4375 30.0625 C-20.0975 29.7325 -20.7575 29.4025 -21.4375 29.0625 C-21.52 30.135 -21.6025 31.2075 -21.6875 32.3125 C-22.49830717 36.36653587 -23.30623535 37.51834748 -26.4375 40.0625 C-26.7675 40.3925 -27.0975 40.7225 -27.4375 41.0625 C-28.4275 41.0625 -29.4175 41.0625 -30.4375 41.0625 C-30.1075 42.0525 -29.7775 43.0425 -29.4375 44.0625 C-30.4275 44.660625 -31.4175 45.25875 -32.4375 45.875 C-33.4275 46.596875 -34.4175 47.31875 -35.4375 48.0625 C-35.4375 49.0525 -35.4375 50.0425 -35.4375 51.0625 C-36.4275 51.0625 -37.4175 51.0625 -38.4375 51.0625 C-38.35757813 51.79082031 -38.27765625 52.51914062 -38.1953125 53.26953125 C-38.51230083 56.92512253 -39.80668906 58.12380313 -42.3125 60.75 C-43.03179687 61.51699219 -43.75109375 62.28398438 -44.4921875 63.07421875 C-46.45957803 65.0850657 -48.44827684 67.07327684 -50.4375 69.0625 C-51.4275 68.5675 -51.4275 68.5675 -52.4375 68.0625 C-52.72625 69.135 -53.015 70.2075 -53.3125 71.3125 C-55.4375 78.39583333 -55.4375 78.39583333 -59.4375 81.0625 C-60.4275 81.0625 -61.4175 81.0625 -62.4375 81.0625 C-62.56125 81.701875 -62.685 82.34125 -62.8125 83 C-63.01875 83.680625 -63.225 84.36125 -63.4375 85.0625 C-64.4275 85.5575 -64.4275 85.5575 -65.4375 86.0625 C-64.9425 87.0525 -64.9425 87.0525 -64.4375 88.0625 C-65.05625 88.495625 -65.675 88.92875 -66.3125 89.375 C-68.6572245 91.05990483 -68.6572245 91.05990483 -70.4375 94.0625 C-69.9425 95.0525 -69.9425 95.0525 -69.4375 96.0625 C-72.4075 97.0525 -72.4075 97.0525 -75.4375 98.0625 C-72.61793892 100.88206108 -69.91821764 100.36990412 -66.14208984 100.38134766 C-65.39077286 100.39139328 -64.63945587 100.4014389 -63.8653717 100.41178894 C-61.37640159 100.44273551 -58.88753957 100.45968765 -56.3984375 100.4765625 C-54.67492739 100.49526495 -52.95142652 100.51483766 -51.22793579 100.5352478 C-46.68731119 100.58667265 -42.14665686 100.62624278 -37.605896 100.66339111 C-32.97416774 100.70336604 -28.34256422 100.754488 -23.7109375 100.8046875 C-14.61987916 100.90156927 -5.52875055 100.98593467 3.5625 101.0625 C2.5725 103.0425 1.5825 105.0225 0.5625 107.0625 C-0.0975 107.0625 -0.7575 107.0625 -1.4375 107.0625 C-1.9325 108.5475 -1.9325 108.5475 -2.4375 110.0625 C-3.9225 110.5575 -3.9225 110.5575 -5.4375 111.0625 C-5.1075 111.7225 -4.7775 112.3825 -4.4375 113.0625 C-5.05625 113.165625 -5.675 113.26875 -6.3125 113.375 C-8.80276484 113.93775373 -8.80276484 113.93775373 -10.4375 117.0625 C-10.4375 118.0525 -10.4375 119.0425 -10.4375 120.0625 C-11.0975 120.0625 -11.7575 120.0625 -12.4375 120.0625 C-12.7675 120.7225 -13.0975 121.3825 -13.4375 122.0625 C-13.7675 121.7325 -14.0975 121.4025 -14.4375 121.0625 C-14.664375 121.92875 -14.89125 122.795 -15.125 123.6875 C-16.69639599 127.72823255 -18.45842484 129.93447109 -21.4375 133.0625 C-22.0975 133.0625 -22.7575 133.0625 -23.4375 133.0625 C-23.7675 134.3825 -24.0975 135.7025 -24.4375 137.0625 C-25.4275 136.7325 -26.4175 136.4025 -27.4375 136.0625 C-27.80875 137.6403125 -27.80875 137.6403125 -28.1875 139.25 C-29.23678877 142.90034263 -30.76249288 145.3088162 -33.4375 148.0625 C-34.13875 148.371875 -34.84 148.68125 -35.5625 149 C-38.40614009 150.61139605 -38.46718618 153.03026931 -39.4375 156.0625 C-41.4375 158.4375 -41.4375 158.4375 -43.4375 160.0625 C-44.0975 160.0625 -44.7575 160.0625 -45.4375 160.0625 C-45.57285156 160.64257812 -45.70820312 161.22265625 -45.84765625 161.8203125 C-47.6134474 168.22791393 -50.15849316 171.18274798 -55.4375 175.0625 C-56.0975 175.7225 -56.7575 176.3825 -57.4375 177.0625 C-58.11296875 176.43601563 -58.7884375 175.80953125 -59.484375 175.1640625 C-60.82242188 173.93816406 -60.82242188 173.93816406 -62.1875 172.6875 C-63.51007812 171.46933594 -63.51007812 171.46933594 -64.859375 170.2265625 C-67.05128124 168.38668969 -68.89129131 167.27525403 -71.4375 166.0625 C-72.12236725 164.73842331 -72.78620203 163.40340759 -73.4375 162.0625 C-74.7059375 160.8559375 -74.7059375 160.8559375 -76 159.625 C-78.54960474 156.9446463 -79.12812979 155.67181917 -79.4375 152.0625 C-80.4275 151.7325 -81.4175 151.4025 -82.4375 151.0625 C-86.24614665 145.05582842 -88.83573038 139.13329307 -89.4375 132.0625 C-90.0975 131.0725 -90.7575 130.0825 -91.4375 129.0625 C-91.8096042 127.73946283 -92.14380173 126.40512065 -92.4375 125.0625 C-92.7675 124.0725 -93.0975 123.0825 -93.4375 122.0625 C-93.7675 122.0625 -94.0975 122.0625 -94.4375 122.0625 C-94.48843732 115.80032852 -94.52333284 109.53821099 -94.54736328 103.27587891 C-94.55738705 101.14792891 -94.57100961 99.01999256 -94.58837891 96.89208984 C-94.61278692 93.82385882 -94.62401961 90.7558108 -94.6328125 87.6875 C-94.64313507 86.74447021 -94.65345764 85.80144043 -94.66409302 84.82983398 C-94.66503377 79.22295488 -94.03095212 74.44384696 -92.4375 69.0625 C-91.7775 69.0625 -91.1175 69.0625 -90.4375 69.0625 C-90.31632812 68.36382812 -90.19515625 67.66515625 -90.0703125 66.9453125 C-89.90273437 66.03523438 -89.73515625 65.12515625 -89.5625 64.1875 C-89.40007812 63.28257813 -89.23765625 62.37765625 -89.0703125 61.4453125 C-88.4375 59.0625 -88.4375 59.0625 -86.4375 57.0625 C-85.33194818 55.1115262 -84.51135673 53.4248596 -84.0625 51.22265625 C-83.29376267 48.56570785 -82.0469222 46.66323455 -80.5 44.375 C-79.97535156 43.58738281 -79.45070313 42.79976562 -78.91015625 41.98828125 C-77.4375 40.0625 -77.4375 40.0625 -75.4375 39.0625 C-75.1075 38.0725 -74.7775 37.0825 -74.4375 36.0625 C-73.87804687 35.79566406 -73.31859375 35.52882812 -72.7421875 35.25390625 C-69.37270574 33.51205551 -67.12548561 30.73359282 -64.5625 28 C-48.17779206 11.1499496 -23.69777683 -0.26626716 0 0 Z M-92.4375 73.0625 C-91.4375 76.0625 -91.4375 76.0625 -91.4375 76.0625 Z M-93.4375 77.0625 C-92.4375 81.0625 -92.4375 81.0625 -92.4375 81.0625 Z " fill="#FDFDFD" transform="translate(94.4375,-0.0625)"/>
<path d="M0 0 C10.39615851 -0.02313662 20.79231093 -0.04092185 31.18848991 -0.05181217 C36.01548037 -0.0570381 40.84245325 -0.06413052 45.66943359 -0.07543945 C50.32485248 -0.0862786 54.98025444 -0.09227903 59.63568497 -0.09487724 C61.41474804 -0.09672963 63.19381016 -0.1003467 64.97286606 -0.10573006 C67.45833107 -0.11295409 69.94372546 -0.11399036 72.42919922 -0.11352539 C73.54050201 -0.1189183 73.54050201 -0.1189183 74.67425537 -0.12442017 C79.77189568 -0.11405216 79.77189568 -0.11405216 82 1 C80.75023244 4.65316671 80.32901247 5.78065836 77 8 C75.64721885 9.98689731 74.31431695 11.98745218 73 14 C71.3125 15.875 71.3125 15.875 70 17 C69.67 17 69.34 17 69 17 C69 17.66 69 18.32 69 19 C68.34 19.66 67.68 20.32 67 21 C65.66172696 22.66270287 64.32810215 24.32916181 63 26 C62.505 26.495 62.505 26.495 62 27 C61.566875 27.45375 61.13375 27.9075 60.6875 28.375 C55.88461538 33 55.88461538 33 53 33 C53.37125 33.804375 53.37125 33.804375 53.75 34.625 C54.13100235 38.2445223 52.15046238 40.29582575 50 43 C46.56260713 47.24508628 42.91652405 51.19537664 39 55 C37.83720122 56.04133233 37.83720122 56.04133233 37.125 58 C36 60 36 60 33 61 C32.855625 61.5775 32.71125 62.155 32.5625 62.75 C31.78519064 65.85923744 30.06947971 67.57575234 28 70 C24.82536072 73.89149331 21.89503328 77.89870286 19 82 C18.67 81.34 18.34 80.68 18 80 C17.34 80 16.68 80 16 80 C14.98133771 81.65532623 13.98189187 83.32260138 13 85 C12.01 85.495 12.01 85.495 11 86 C7.76282813 91.19706538 7.76282813 91.19706538 6 97 C5.67 97.66 5.34 98.32 5 99 C-18.97374246 99.95682342 -39.15380847 94.75083472 -59 81 C-59.99 80.34 -60.98 79.68 -62 79 C-62 77.68 -62 76.36 -62 75 C-60.3203125 73.578125 -60.3203125 73.578125 -58.125 72.25 C-54.98062066 70.13137401 -54.98062066 70.13137401 -53.19921875 66.90625 C-53.00779297 65.83890625 -53.00779297 65.83890625 -52.8125 64.75 C-52.544375 63.5125 -52.27625 62.275 -52 61 C-49.5 59.75 -49.5 59.75 -47 59 C-45.72510734 57.20072961 -45.72510734 57.20072961 -45 55 C-43.17142857 50.08571429 -43.17142857 50.08571429 -41 49 C-37.92466353 46.31893744 -35.84495858 44.0298935 -34.375 40.25 C-33.694375 38.64125 -33.694375 38.64125 -33 37 C-31.515 36.505 -31.515 36.505 -30 36 C-29.67 35.01 -29.34 34.02 -29 33 C-28.38125 32.71125 -27.7625 32.4225 -27.125 32.125 C-23.51615696 30.21443604 -22.36359354 26.94106563 -20.9375 23.25 C-20 21 -20 21 -18 20 C-17.566875 19.175 -17.13375 18.35 -16.6875 17.5 C-15 15 -15 15 -12.3125 14.1875 C-11.549375 14.125625 -10.78625 14.06375 -10 14 C-10.66 13.67 -11.32 13.34 -12 13 C-11.67 12.01 -11.34 11.02 -11 10 C-10.01 10 -9.02 10 -8 10 C-7.67 9.34 -7.34 8.68 -7 8 C-6.34 8 -5.68 8 -5 8 C-4.9175 7.38125 -4.835 6.7625 -4.75 6.125 C-4 4 -4 4 -1.9375 2.75 C-0.9784375 2.37875 -0.9784375 2.37875 0 2 C0 1.34 0 0.68 0 0 Z " fill="#010101" transform="translate(100,99)"/>
<path d="M0 0 C3.84018842 2.50058781 7.43648326 5.1106621 11 8 C11.99 8.66 12.98 9.32 14 10 C14.165 10.680625 14.33 11.36125 14.5 12.0625 C14.665 12.701875 14.83 13.34125 15 14 C15.99 14.33 16.98 14.66 18 15 C18.495 16.485 18.495 16.485 19 18 C19.60328125 18.58910156 20.2065625 19.17820312 20.828125 19.78515625 C23.43095043 22.43947643 24.98265069 25.17092488 26.75 28.4375 C27.36359375 29.54996094 27.9771875 30.66242187 28.609375 31.80859375 C29.95448405 34.89554345 30.32134471 36.69385728 30 40 C30.66 40 31.32 40 32 40 C36.46358133 52.49318697 37.67599145 63.54239235 37.375 76.75 C37.35843016 78.46091721 37.3440986 80.1718576 37.33203125 81.8828125 C37.18961913 95.10439851 37.18961913 95.10439851 36 100 C35.34 100 34.68 100 34 100 C34 102.31 34 104.62 34 107 C33.34 107 32.68 107 32 107 C31.34 110.3 30.68 113.6 30 117 C29.34 117 28.68 117 28 117 C27.92523438 117.84046875 27.85046875 118.6809375 27.7734375 119.546875 C26.8223471 123.79315739 25.02044677 126.6719909 22.625 130.25 C22.22539062 130.87390625 21.82578125 131.4978125 21.4140625 132.140625 C19.46438618 135.11644676 17.99457994 137.00361337 15 139 C14.5359375 139.99 14.5359375 139.99 14.0625 141 C13 143 13 143 11.11328125 143.9375 C8.8770705 145.06180559 7.77599795 146.14374285 6.125 148 C-10.42085982 164.86135291 -33.60236827 174.21087245 -57 175 C-55.60771405 168.2706179 -54.00208796 163.00139198 -48 159 C-46.80767387 156.94996045 -46.80767387 156.94996045 -46 155 C-45.01 155.33 -44.02 155.66 -43 156 C-42.1646875 154.6696875 -42.1646875 154.6696875 -41.3125 153.3125 C-39.7883946 151.00193452 -38.39918225 149.41348744 -36.375 147.4375 C-33.97471575 144.97405037 -33.14772083 143.17830385 -32 140 C-31.34 139.67 -30.68 139.34 -30 139 C-29.67 138.01 -29.34 137.02 -29 136 C-28.01 135.566875 -28.01 135.566875 -27 135.125 C-24.70849401 134.1446618 -24.70849401 134.1446618 -24.25 131.375 C-24.1675 130.59125 -24.085 129.8075 -24 129 C-23.01 129 -22.02 129 -21 129 C-19.70525531 127.36101052 -19.70525531 127.36101052 -18.625 125.25 C-16.51614909 121.62481521 -14.30911458 119.59363035 -11 117 C-9.48151073 114.03533048 -9 112.34238213 -9 109 C-7.17806158 107.0750353 -5.10764717 105.62464469 -3 104 C-2.67 104.33 -2.34 104.66 -2 105 C-1.731875 104.195625 -1.46375 103.39125 -1.1875 102.5625 C-0.795625 101.716875 -0.40375 100.87125 0 100 C0.99 99.67 1.98 99.34 3 99 C3.73323796 96.98491642 3.73323796 96.98491642 4 95 C4.99 95 5.98 95 7 95 C6.67 93.68 6.34 92.36 6 91 C6.99 91 7.98 91 9 91 C11.65894107 88.18465063 13.42636089 85.87206399 14 82 C14.99 82 15.98 82 17 82 C18.10836423 80.11683841 18.10836423 80.11683841 19 78 C18.67 77.34 18.34 76.68 18 76 C-8.07 76 -34.14 76 -61 76 C-59.35 74.35 -57.7 72.7 -56 71 C-55.67 70.01 -55.34 69.02 -55 68 C-53.69855198 66.95884159 -52.36161311 65.96113866 -51 65 C-45.97309681 60.17689018 -41.95432984 55.35180915 -39 49 C-37.48926009 47.48926009 -35.94061979 46.01628981 -34.375 44.5625 C-31.66011767 42.21559422 -31.66011767 42.21559422 -32 39 C-31.01 39 -30.02 39 -29 39 C-28.360625 37.88625 -27.72125 36.7725 -27.0625 35.625 C-26.70285156 34.99851563 -26.34320313 34.37203125 -25.97265625 33.7265625 C-25.28280949 32.50201525 -24.62855462 31.25710923 -24 30 C-23.401875 29.773125 -22.80375 29.54625 -22.1875 29.3125 C-19.43644491 27.66186695 -18.53638988 25.59032577 -17.07421875 22.8046875 C-15.47722356 20.12173559 -13.22604007 18.16746007 -11 16 C-9.84594081 13.99558141 -9.00461413 12.01120573 -8.125 9.875 C-7 8 -7 8 -5 7.0625 C-2.24456093 5.59867299 -1.96037913 3.88113739 -1 1 C-0.67 0.67 -0.34 0.34 0 0 Z M31 43 C32 45 32 45 32 45 Z M32 46 C33 48 33 48 33 48 Z M33 49 C34 52 34 52 34 52 Z M34 53 C35 56 35 56 35 56 Z M35 57 C35 58.65 35 60.3 35 62 C35.33 62 35.66 62 36 62 C36 60.35 36 58.7 36 57 C35.67 57 35.34 57 35 57 Z M35 90 C35 91.65 35 93.3 35 95 C35.33 95 35.66 95 36 95 C36 93.35 36 91.7 36 90 C35.67 90 35.34 90 35 90 Z " fill="#FEFEFE" transform="translate(162,23)"/>
<path d="M0 0 C0.33 0 0.66 0 1 0 C1.04241723 2.33294775 1.04092937 4.66702567 1 7 C0.67 7.33 0.34 7.66 0 8 C24.75 8.33 49.5 8.66 75 9 C75 9.66 75 10.32 75 11 C64.75153503 11.06945033 54.50312587 11.12278596 44.25447369 11.15543652 C39.49581795 11.1711056 34.73732297 11.19236649 29.97875977 11.22631836 C25.38816048 11.25886758 20.79771602 11.27684365 16.20701027 11.28463173 C14.4538714 11.29018323 12.70074119 11.30102375 10.94766808 11.31719017 C8.49576754 11.33890575 6.04451022 11.34196943 3.5925293 11.34057617 C2.50064552 11.35675491 2.50064552 11.35675491 1.38670349 11.3732605 C-3.55508011 11.34279011 -3.55508011 11.34279011 -5.97453308 9.47871399 C-6.31293716 8.99073837 -6.65134125 8.50276276 -7 8 C-4 6 -4 6 0 6 C-0.66 5.67 -1.32 5.34 -2 5 C-1.34 3.35 -0.68 1.7 0 0 Z " fill="#71A5CF" transform="translate(25,90)"/>
<path d="M0 0 C25.41 0 50.82 0 77 0 C76.01 1.98 75.02 3.96 74 6 C73.01 5.505 73.01 5.505 72 5 C72 4.34 72 3.68 72 3 C48.24 2.67 24.48 2.34 0 2 C0 1.34 0 0.68 0 0 Z " fill="#ADD3F1" transform="translate(21,101)"/>
<path d="M0 0 C10.39615851 -0.02313662 20.79231093 -0.04092185 31.18848991 -0.05181217 C36.01548037 -0.0570381 40.84245325 -0.06413052 45.66943359 -0.07543945 C50.32485248 -0.0862786 54.98025444 -0.09227903 59.63568497 -0.09487724 C61.41474804 -0.09672963 63.19381016 -0.1003467 64.97286606 -0.10573006 C67.45833107 -0.11295409 69.94372546 -0.11399036 72.42919922 -0.11352539 C73.54050201 -0.1189183 73.54050201 -0.1189183 74.67425537 -0.12442017 C79.77189568 -0.11405216 79.77189568 -0.11405216 82 1 C80.75023244 4.65316671 80.32901247 5.78065836 77 8 C75.64721885 9.98689731 74.31431695 11.98745218 73 14 C71.25 15.875 71.25 15.875 70 17 C69 14 69 14 69.75 11.9375 C71 10 71 10 74 8 C74.33 7.01 74.66 6.02 75 5 C75.66 4.67 76.32 4.34 77 4 C77.33 3.01 77.66 2.02 78 1 C52.26 1 26.52 1 0 1 C0 0.67 0 0.34 0 0 Z " fill="#1C1D1D" transform="translate(100,99)"/>
<path d="M0 0 C0.76136261 -0.00043808 1.52272522 -0.00087616 2.30715942 -0.00132751 C4.81799161 0.00075871 7.32815198 0.02408135 9.83886719 0.04760742 C11.58192581 0.05320398 13.32498916 0.0574738 15.0680542 0.06047058 C19.65158154 0.07191466 24.23482283 0.10137804 28.8182373 0.13458252 C33.49694957 0.16529284 38.17570814 0.17897797 42.85449219 0.1940918 C52.03170106 0.22624819 61.20869782 0.27743925 70.38574219 0.34057617 C70.05574219 1.33057617 69.72574219 2.32057617 69.38574219 3.34057617 C69.38574219 2.68057617 69.38574219 2.02057617 69.38574219 1.34057617 C59.5283152 1.4480411 49.67096206 1.56066714 39.81367016 1.67991543 C35.23672586 1.73512197 30.65977514 1.78853839 26.08276367 1.83789062 C21.66718763 1.88556758 17.25168951 1.93791168 12.83620644 1.99351692 C11.15009815 2.01392536 9.4639685 2.03264095 7.77782249 2.04965019 C5.41942998 2.07372762 3.06118459 2.10377762 0.70288086 2.13525391 C-0.34692459 2.1438871 -0.34692459 2.1438871 -1.41793823 2.1526947 C-4.42119664 2.19837271 -6.74050656 2.38265909 -9.61425781 3.34057617 C-9.94425781 4.16557617 -10.27425781 4.99057617 -10.61425781 5.84057617 C-10.94425781 6.66557617 -11.27425781 7.49057617 -11.61425781 8.34057617 C-12.60425781 8.67057617 -13.59425781 9.00057617 -14.61425781 9.34057617 C-14.61425781 8.68057617 -14.61425781 8.02057617 -14.61425781 7.34057617 C-13.95425781 7.34057617 -13.29425781 7.34057617 -12.61425781 7.34057617 C-12.53175781 6.74245117 -12.44925781 6.14432617 -12.36425781 5.52807617 C-10.37855127 -0.26356792 -5.3187699 -0.08023667 0 0 Z " fill="#171718" transform="translate(107.6142578125,99.659423828125)"/>
<path d="M0 0 C1.32 0 2.64 0 4 0 C3.1875 1.9375 3.1875 1.9375 2 4 C1.01 4.33 0.02 4.66 -1 5 C-1.144375 5.5775 -1.28875 6.155 -1.4375 6.75 C-2.21480936 9.85923744 -3.93052029 11.57575234 -6 14 C-6.680625 14.86625 -7.36125 15.7325 -8.0625 16.625 C-9.62944607 18.5457726 -11.20602511 20.29572385 -13 22 C-13.66 21.67 -14.32 21.34 -15 21 C-14.05029764 18.88143321 -13.25157967 17.24064143 -11.5625 15.625 C-9.78736312 13.94458206 -9.78736312 13.94458206 -8.5625 11.0625 C-7.00605659 8.01187092 -5.47188799 6.31739499 -3 4 C-2.505 3.2575 -2.01 2.515 -1.5 1.75 C-1.005 1.1725 -0.51 0.595 0 0 Z " fill="#54555A" transform="translate(134,155)"/>
<path d="M0 0 C0.33 0 0.66 0 1 0 C1.04241723 2.33294775 1.04092937 4.66702567 1 7 C0.67 7.33 0.34 7.66 0 8 C1.71509766 8.07347656 1.71509766 8.07347656 3.46484375 8.1484375 C4.95575473 8.22345189 6.44663892 8.29900028 7.9375 8.375 C9.06961914 8.42140625 9.06961914 8.42140625 10.22460938 8.46875 C12.15507395 8.5726315 14.07942081 8.77895614 16 9 C16.33 9.66 16.66 10.32 17 11 C13.56265937 11.08703823 10.12560163 11.14040272 6.6875 11.1875 C5.22280273 11.22520508 5.22280273 11.22520508 3.72851562 11.26367188 C2.32182617 11.27817383 2.32182617 11.27817383 0.88671875 11.29296875 C0.02264404 11.3086792 -0.84143066 11.32438965 -1.73168945 11.34057617 C-4.45018536 10.93240678 -5.30363829 10.10407096 -7 8 C-4 6 -4 6 0 6 C-0.66 5.67 -1.32 5.34 -2 5 C-1.34 3.35 -0.68 1.7 0 0 Z " fill="#71A4CF" transform="translate(25,90)"/>
<path d="M0 0 C0.99 0.33 1.98 0.66 3 1 C1.82744291 4.33727786 0.81131596 6.77437487 -2 9 C-2.66 9 -3.32 9 -4 9 C-4.0825 9.598125 -4.165 10.19625 -4.25 10.8125 C-5.21576779 13.62932273 -6.48868567 14.47799132 -9 16 C-9.66 16 -10.32 16 -11 16 C-9.25 11.125 -9.25 11.125 -7 10 C-6.566875 9.175 -6.13375 8.35 -5.6875 7.5 C-4 5 -4 5 -1.3125 4.1875 C-0.549375 4.125625 0.21375 4.06375 1 4 C0.34 3.67 -0.32 3.34 -1 3 C-0.67 2.01 -0.34 1.02 0 0 Z " fill="#656871" transform="translate(89,109)"/>
<path d="M0 0 C0.6953125 1.75390625 0.6953125 1.75390625 1 4 C-0.2578125 5.96484375 -0.2578125 5.96484375 -2.125 7.9375 C-2.76824219 8.62714844 -3.41148437 9.31679687 -4.07421875 10.02734375 C-4.70972656 10.67832031 -5.34523437 11.32929688 -6 12 C-6.78310547 12.80630859 -6.78310547 12.80630859 -7.58203125 13.62890625 C-8.70706571 14.76690941 -9.85119029 15.88600271 -11 17 C-11.33 15.68 -11.66 14.36 -12 13 C-10.68 12.67 -9.36 12.34 -8 12 C-7.938125 11.2575 -7.87625 10.515 -7.8125 9.75 C-6.75812 6.18132923 -4.92604058 5.17577376 -2 3 C-2 2.34 -2 1.68 -2 1 C-1.34 0.67 -0.68 0.34 0 0 Z " fill="#777983" transform="translate(150,137)"/>
<path d="M0 0 C0 0.33 0 0.66 0 1 C-9.405 1.495 -9.405 1.495 -19 2 C-19.66 3.65 -20.32 5.3 -21 7 C-23.125 7.8125 -23.125 7.8125 -25 8 C-23.982983 4.94894899 -23.17353952 4.17353952 -21 2 C-21 1.34 -21 0.68 -21 0 C-14.17682521 -1.97636787 -6.91120071 -1.20194795 0 0 Z " fill="#75ACD8" transform="translate(117,1)"/>
<path d="M0 0 C0.66 0.33 1.32 0.66 2 1 C2 1.66 2 2.32 2 3 C1.34 3.66 0.68 4.32 0 5 C-1.33827304 6.66270287 -2.67189785 8.32916181 -4 10 C-5.33333333 11.33333333 -6.66666667 12.66666667 -8 14 C-8.99 13.67 -9.98 13.34 -11 13 C-10.67 12.34 -10.34 11.68 -10 11 C-9.01 11 -8.02 11 -7 11 C-6.9175 10.46375 -6.835 9.9275 -6.75 9.375 C-5.72706194 6.13569613 -3.99966302 3.72681321 -2 1 C-1.34 0.67 -0.68 0.34 0 0 Z " fill="#5F6066" transform="translate(167,115)"/>
<path d="M0 0 C0.99 0.33 1.98 0.66 3 1 C2.34 2.32 1.68 3.64 1 5 C0.34 5 -0.32 5 -1 5 C-1.2475 5.7425 -1.495 6.485 -1.75 7.25 C-3.09147301 10.20124062 -4.60905526 11.84814974 -7 14 C-7.66 13.34 -8.32 12.68 -9 12 C-5.375 6.25 -5.375 6.25 -2 4 C-0.80767387 1.94996045 -0.80767387 1.94996045 0 0 Z " fill="#80848A" transform="translate(116,178)"/>
<path d="M0 0 C-0.375 1.9375 -0.375 1.9375 -1 4 C-1.99 4.495 -1.99 4.495 -3 5 C-4.34331654 6.99330842 -5.67594012 8.99384866 -7 11 C-8.75 12.875 -8.75 12.875 -10 14 C-11 11 -11 11 -10.25 8.9375 C-9 7 -9 7 -6 5 C-5.67 4.01 -5.34 3.02 -5 2 C-2 0 -2 0 0 0 Z " fill="#64646C" transform="translate(180,102)"/>
<path d="M0 0 C0.66 0.33 1.32 0.66 2 1 C1.09232898 2.44319692 0.17343894 3.87934106 -0.75 5.3125 C-1.26046875 6.11300781 -1.7709375 6.91351563 -2.296875 7.73828125 C-4.00277761 10.00368861 -5.65808145 11.42684167 -8 13 C-8.66 12.67 -9.32 12.34 -10 12 C-8.68867299 9.07473206 -7.34365231 7.17004844 -5 5 C-4.113125 4.113125 -3.22625 3.22625 -2.3125 2.3125 C-1.549375 1.549375 -0.78625 0.78625 0 0 Z " fill="#808087" transform="translate(129,164)"/>
<path d="M0 0 C0 4.04514958 -1.71287558 6.78487302 -4 10 C-6.75 12.4375 -6.75 12.4375 -9 14 C-7.375 6.25 -7.375 6.25 -4 4 C-2.64748503 2.68612831 -1.31054623 1.35573748 0 0 Z " fill="#585B5C" transform="translate(63,144)"/>
<path d="M0 0 C0.33 0 0.66 0 1 0 C1.25 3.3125 1.25 3.3125 1 7 C-1 8.9375 -1 8.9375 -3 10 C-4.32 9.34 -5.64 8.68 -7 8 C-4 6 -4 6 0 6 C-0.66 5.67 -1.32 5.34 -2 5 C-1.34 3.35 -0.68 1.7 0 0 Z " fill="#688DB7" transform="translate(25,90)"/>
<path d="M0 0 C0.66 0.33 1.32 0.66 2 1 C1.46864683 5.51650194 -0.23408575 8.42058156 -3 12 C-3.99 12.33 -4.98 12.66 -6 13 C-6 12.34 -6 11.68 -6 11 C-5.34 11 -4.68 11 -4 11 C-3.71125 10.113125 -3.4225 9.22625 -3.125 8.3125 C-2.16851252 5.49617576 -1.13201054 2.74916844 0 0 Z " fill="#73A2C9" transform="translate(42,68)"/>
<path d="M0 0 C8.58 0 17.16 0 26 0 C26 0.33 26 0.66 26 1 C17.42 1 8.84 1 0 1 C0 0.67 0 0.34 0 0 Z " fill="#8F9294" transform="translate(86,199)"/>
<path d="M0 0 C0.33 0 0.66 0 1 0 C1 8.58 1 17.16 1 26 C0.67 26 0.34 26 0 26 C0 17.42 0 8.84 0 0 Z " fill="#FFFFFF" transform="translate(199,86)"/>
<path d="M0 0 C2.125 0.375 2.125 0.375 4 1 C-0.75 5.875 -0.75 5.875 -3 7 C-2.25 2.25 -2.25 2.25 0 0 Z " fill="#92B6D2" transform="translate(142,45)"/>
<path d="M0 0 C0.99 0.33 1.98 0.66 3 1 C1.52307692 5.67692308 1.52307692 5.67692308 -1.125 7.3125 C-2.053125 7.6528125 -2.053125 7.6528125 -3 8 C-3.33 7.01 -3.66 6.02 -4 5 C-2.35 4.67 -0.7 4.34 1 4 C0.34 3.67 -0.32 3.34 -1 3 C-0.67 2.01 -0.34 1.02 0 0 Z " fill="#36363A" transform="translate(89,109)"/>
<path d="M0 0 C0.99 0 1.98 0 3 0 C2.67 1.32 2.34 2.64 2 4 C1.34 4 0.68 4 0 4 C-0.33 4.99 -0.66 5.98 -1 7 C-1.99 6.67 -2.98 6.34 -4 6 C-4 5.34 -4 4.68 -4 4 C-3.01 3.67 -2.02 3.34 -1 3 C-0.67 2.01 -0.34 1.02 0 0 Z " fill="#92AFCC" transform="translate(115,79)"/>
<path d="M0 0 C-0.375 1.9375 -0.375 1.9375 -1 4 C-1.99 4.495 -1.99 4.495 -3 5 C-4.0194119 5.98020375 -5.02246356 6.97803008 -6 8 C-6 5 -6 5 -5 2 C-2 0 -2 0 0 0 Z " fill="#989EA4" transform="translate(180,102)"/>
<path d="M0 0 C0.99 0.33 1.98 0.66 3 1 C2.34 3.31 1.68 5.62 1 8 C0.34 7.67 -0.32 7.34 -1 7 C-1.04254356 5.00045254 -1.04080783 2.99958364 -1 1 C-0.67 0.67 -0.34 0.34 0 0 Z " fill="#7BAED4" transform="translate(159,21)"/>
<path d="M0 0 C0.66 0 1.32 0 2 0 C1.50769231 5.53846154 1.50769231 5.53846154 -1.0625 7.875 C-2.0215625 8.431875 -2.0215625 8.431875 -3 9 C-3.66 8.34 -4.32 7.68 -5 7 C-4.0409375 6.6596875 -4.0409375 6.6596875 -3.0625 6.3125 C-0.72806339 5.14749104 -0.72806339 5.14749104 -0.25 2.375 C-0.1675 1.59125 -0.085 0.8075 0 0 Z " fill="#8AABC8" transform="translate(87,12)"/>
<path d="M0 0 C0.99 0 1.98 0 3 0 C1.87548273 2.9719385 0.77706209 5.33440687 -1 8 C-1.99 7.67 -2.98 7.34 -4 7 C-3.34 6.21625 -2.68 5.4325 -2 4.625 C0.20201441 2.28487188 0.20201441 2.28487188 0 0 Z " fill="#79A2C5" transform="translate(96,1)"/>
<path d="M0 0 C0.99 0 1.98 0 3 0 C2.67 1.65 2.34 3.3 2 5 C0.68 5 -0.64 5 -2 5 C-1.34 3.35 -0.68 1.7 0 0 Z " fill="#525358" transform="translate(49,159)"/>
<path d="M0 0 C0.66 0.33 1.32 0.66 2 1 C1.49396008 3.16874252 1.00016187 4.99967627 0 7 C-1.32 6.67 -2.64 6.34 -4 6 C-3.67 5.34 -3.34 4.68 -3 4 C-2.01 4 -1.02 4 0 4 C0 2.68 0 1.36 0 0 Z " fill="#6E7172" transform="translate(105,191)"/>
<path d="M0 0 C0.99 0.33 1.98 0.66 3 1 C2.34 2.32 1.68 3.64 1 5 C0.01 5 -0.98 5 -2 5 C-1.34 3.35 -0.68 1.7 0 0 Z " fill="#8A8E98" transform="translate(44,165)"/>
<path d="M0 0 C0 3 0 3 -2 5.1875 C-2.66 5.785625 -3.32 6.38375 -4 7 C-4.66 6.67 -5.32 6.34 -6 6 C-5 3 -5 3 -3 1.875 C-2.34 1.58625 -1.68 1.2975 -1 1 C-0.67 0.67 -0.34 0.34 0 0 Z " fill="#494E4E" transform="translate(76,129)"/>
<path d="M0 0 C0.33 0 0.66 0 1 0 C1 1.65 1 3.3 1 5 C-0.65 5.33 -2.3 5.66 -4 6 C-3.34 4.68 -2.68 3.36 -2 2 C-1.34 2 -0.68 2 0 2 C0 1.34 0 0.68 0 0 Z " fill="#9AB1C8" transform="translate(62,44)"/>
<path d="M0 0 C0.66 0.33 1.32 0.66 2 1 C-0.31 3.31 -2.62 5.62 -5 8 C-5 5 -5 5 -2.5 2.3125 C-1.675 1.549375 -0.85 0.78625 0 0 Z " fill="#FFFFFF" transform="translate(30,25)"/>
<path d="M0 0 C1.98 0 3.96 0 6 0 C6 0.33 6 0.66 6 1 C4.02 1 2.04 1 0 1 C0 0.67 0 0.34 0 0 Z " fill="#FFFFFF" transform="translate(112,198)"/>
<path d="M0 0 C1.98 0 3.96 0 6 0 C6 0.33 6 0.66 6 1 C4.02 1 2.04 1 0 1 C0 0.67 0 0.34 0 0 Z " fill="#0F0F0F" transform="translate(80,198)"/>
<path d="M0 0 C1.65 0 3.3 0 5 0 C5 0.33 5 0.66 5 1 C3.35 1 1.7 1 0 1 C0 0.67 0 0.34 0 0 Z " fill="#FFFFFF" transform="translate(118,197)"/>
<path d="M0 0 C1.65 0 3.3 0 5 0 C5 0.33 5 0.66 5 1 C3.35 1 1.7 1 0 1 C0 0.67 0 0.34 0 0 Z " fill="#000000" transform="translate(75,197)"/>
<path d="M0 0 C1.65 0 3.3 0 5 0 C5 0.33 5 0.66 5 1 C3.35 1 1.7 1 0 1 C0 0.67 0 0.34 0 0 Z " fill="#8CC1E4" transform="translate(117,0)"/>
<path d="M0 0 C1.65 0 3.3 0 5 0 C5 0.33 5 0.66 5 1 C3.35 1 1.7 1 0 1 C0 0.67 0 0.34 0 0 Z " fill="#FFFFFF" transform="translate(76,0)"/>
<path d="M0 0 C4 1 4 1 4 1 Z " fill="#FFFFFF" transform="translate(123,196)"/>
<path d="M0 0 C4 1 4 1 4 1 Z " fill="#000000" transform="translate(68,195)"/>
<path d="M0 0 C4 1 4 1 4 1 Z " fill="#FFFFFF" transform="translate(69,2)"/>
<path d="M0 0 C4 1 4 1 4 1 Z " fill="#68A2D4" transform="translate(122,1)"/>
<path d="M0 0 C3 1 3 1 3 1 Z " fill="#020202" transform="translate(72,196)"/>
<path d="M0 0 C3 1 3 1 3 1 Z " fill="#FFFFFF" transform="translate(127,195)"/>
<path d="M0 0 C3 1 3 1 3 1 Z " fill="#FFFFFF" transform="translate(130,194)"/>
<path d="M0 0 C3 1 3 1 3 1 Z " fill="#000000" transform="translate(65,194)"/>
<path d="M0 0 C3 1 3 1 3 1 Z " fill="#FFFFFF" transform="translate(135,192)"/>
<path d="M0 0 C3 1 3 1 3 1 Z " fill="#000000" transform="translate(60,192)"/>
<path d="" fill="#FFFFFF" transform="translate(0,0)"/>
<path d="" fill="#FFFFFF" transform="translate(0,0)"/>
<path d="" fill="#FFFFFF" transform="translate(0,0)"/>
<path d="" fill="#FFFFFF" transform="translate(0,0)"/>
<path d="" fill="#FFFFFF" transform="translate(0,0)"/>
<path d="" fill="#FFFFFF" transform="translate(0,0)"/>
<path d="M0 0 C3 1 3 1 3 1 Z " fill="#67A7DD" transform="translate(137,6)"/>
<path d="M0 0 C3 1 3 1 3 1 Z " fill="#67A7DD" transform="translate(132,4)"/>
<path d="M0 0 C3 1 3 1 3 1 Z " fill="#FFFFFF" transform="translate(63,4)"/>
<path d="M0 0 C3 1 3 1 3 1 Z " fill="#68A7DD" transform="translate(129,3)"/>
<path d="M0 0 C3 1 3 1 3 1 Z " fill="#FFFFFF" transform="translate(66,3)"/>
<path d="M0 0 C3 1 3 1 3 1 Z " fill="#6BADE5" transform="translate(126,2)"/>
<path d="M0 0 C3 1 3 1 3 1 Z " fill="#FFFFFF" transform="translate(73,1)"/>
<path d="M0 0 C2 1 2 1 2 1 Z " fill="#FFFFFF" transform="translate(133,193)"/>
<path d="M0 0 C2 1 2 1 2 1 Z " fill="#000000" transform="translate(63,193)"/>
<path d="M0 0 C2 1 2 1 2 1 Z " fill="#FFFFFF" transform="translate(138,191)"/>
<path d="M0 0 C2 1 2 1 2 1 Z " fill="#000000" transform="translate(58,191)"/>
<path d="M0 0 C2 1 2 1 2 1 Z " fill="#FFFFFF" transform="translate(140,190)"/>
<path d="M0 0 C2 1 2 1 2 1 Z " fill="#000000" transform="translate(56,190)"/>
<path d="M0 0 C2 1 2 1 2 1 Z " fill="#FFFFFF" transform="translate(142,189)"/>
<path d="M0 0 C2 1 2 1 2 1 Z " fill="#000000" transform="translate(54,189)"/>
<path d="M0 0 C2 1 2 1 2 1 Z " fill="#FFFFFF" transform="translate(144,188)"/>
<path d="M0 0 C2 1 2 1 2 1 Z " fill="#000000" transform="translate(52,188)"/>
<path d="M0 0 C2 1 2 1 2 1 Z " fill="#FFFFFF" transform="translate(146,187)"/>
<path d="M0 0 C2 1 2 1 2 1 Z " fill="#000000" transform="translate(50,187)"/>
<path d="M0 0 C2 1 2 1 2 1 Z " fill="#FFFFFF" transform="translate(148,186)"/>
<path d="M0 0 C2 1 2 1 2 1 Z " fill="#000000" transform="translate(47,185)"/>
<path d="M0 0 C2 1 2 1 2 1 Z " fill="#FFFFFF" transform="translate(151,184)"/>
<path d="M0 0 C2 1 2 1 2 1 Z " fill="#000000" transform="translate(45,184)"/>
<path d="M0 0 C2 1 2 1 2 1 Z " fill="#FFFFFF" transform="translate(154,182)"/>
<path d="M0 0 C2 1 2 1 2 1 Z " fill="#000000" transform="translate(42,182)"/>
<path d="M0 0 C2 1 2 1 2 1 Z " fill="#FFFFFF" transform="translate(157,180)"/>
<path d="M0 0 C2 1 2 1 2 1 Z " fill="#000000" transform="translate(38,179)"/>
<path d="M0 0 C2 1 2 1 2 1 Z " fill="#FFFFFF" transform="translate(162,176)"/>
<path d="M0 0 C2 1 2 1 2 1 Z " fill="#FFFFFF" transform="translate(32,174)"/>
<path d="" fill="#FFFFFF" transform="translate(0,0)"/>
<path d="" fill="#FFFFFF" transform="translate(0,0)"/>
<path d="" fill="#FFFFFF" transform="translate(0,0)"/>
<path d="" fill="#FFFFFF" transform="translate(0,0)"/>
<path d="" fill="#FFFFFF" transform="translate(0,0)"/>
<path d="" fill="#FFFFFF" transform="translate(0,0)"/>
<path d="" fill="#FFFFFF" transform="translate(0,0)"/>
<path d="" fill="#FFFFFF" transform="translate(0,0)"/>
<path d="M0 0 C2 1 2 1 2 1 Z " fill="#FFFFFF" transform="translate(164,23)"/>
<path d="M0 0 C2 1 2 1 2 1 Z " fill="#FFFFFF" transform="translate(37,19)"/>
<path d="M0 0 C2 1 2 1 2 1 Z " fill="#68A8DF" transform="translate(158,18)"/>
<path d="M0 0 C2 1 2 1 2 1 Z " fill="#68A8DD" transform="translate(155,16)"/>
<path d="M0 0 C2 1 2 1 2 1 Z " fill="#FFFFFF" transform="translate(41,16)"/>
<path d="M0 0 C2 1 2 1 2 1 Z " fill="#67A7DD" transform="translate(152,14)"/>
<path d="M0 0 C2 1 2 1 2 1 Z " fill="#FFFFFF" transform="translate(44,14)"/>
<path d="M0 0 C2 1 2 1 2 1 Z " fill="#67A7DD" transform="translate(149,12)"/>
<path d="M0 0 C2 1 2 1 2 1 Z " fill="#FFFFFF" transform="translate(47,12)"/>
<path d="M0 0 C2 1 2 1 2 1 Z " fill="#67A7DD" transform="translate(147,11)"/>
<path d="M0 0 C2 1 2 1 2 1 Z " fill="#FFFFFF" transform="translate(49,11)"/>
<path d="M0 0 C2 1 2 1 2 1 Z " fill="#FFFFFF" transform="translate(51,10)"/>
<path d="M0 0 C2 1 2 1 2 1 Z " fill="#67A7DD" transform="translate(144,9)"/>
<path d="M0 0 C2 1 2 1 2 1 Z " fill="#FFFFFF" transform="translate(53,9)"/>
<path d="M0 0 C2 1 2 1 2 1 Z " fill="#67A7DD" transform="translate(142,8)"/>
<path d="M0 0 C2 1 2 1 2 1 Z " fill="#FFFFFF" transform="translate(55,8)"/>
<path d="M0 0 C2 1 2 1 2 1 Z " fill="#67A7DD" transform="translate(140,7)"/>
<path d="M0 0 C2 1 2 1 2 1 Z " fill="#FFFFFF" transform="translate(57,7)"/>
<path d="M0 0 C2 1 2 1 2 1 Z " fill="#FFFFFF" transform="translate(59,6)"/>
<path d="M0 0 C2 1 2 1 2 1 Z " fill="#68A8DE" transform="translate(135,5)"/>
<path d="M0 0 C2 1 2 1 2 1 Z " fill="#FFFFFF" transform="translate(61,5)"/>
<path d="" fill="#000000" transform="translate(0,0)"/>
<path d="" fill="#FFFFFF" transform="translate(0,0)"/>
<path d="" fill="#FFFFFF" transform="translate(0,0)"/>
<path d="" fill="#000000" transform="translate(0,0)"/>
<path d="" fill="#FFFFFF" transform="translate(0,0)"/>
<path d="" fill="#000000" transform="translate(0,0)"/>
<path d="" fill="#000000" transform="translate(0,0)"/>
<path d="" fill="#FFFFFF" transform="translate(0,0)"/>
<path d="" fill="#FFFFFF" transform="translate(0,0)"/>
<path d="" fill="#444444" transform="translate(0,0)"/>
<path d="" fill="#FFFFFF" transform="translate(0,0)"/>
<path d="" fill="#0C003B" transform="translate(0,0)"/>
<path d="" fill="#FFFFFF" transform="translate(0,0)"/>
<path d="" fill="#FFFFFF" transform="translate(0,0)"/>
<path d="" fill="#FFFFFF" transform="translate(0,0)"/>
<path d="" fill="#FFFFFF" transform="translate(0,0)"/>
<path d="" fill="#FFFFFF" transform="translate(0,0)"/>
<path d="" fill="#FFFFFF" transform="translate(0,0)"/>
<path d="" fill="#FFFFFF" transform="translate(0,0)"/>
<path d="" fill="#FFFFFF" transform="translate(0,0)"/>
<path d="" fill="#FFFFFF" transform="translate(0,0)"/>
<path d="" fill="#FFFFFF" transform="translate(0,0)"/>
<path d="" fill="#FFFFFF" transform="translate(0,0)"/>
<path d="" fill="#FFFFFF" transform="translate(0,0)"/>
<path d="" fill="#FFFFFF" transform="translate(0,0)"/>
<path d="" fill="#FFFFFF" transform="translate(0,0)"/>
<path d="" fill="#FFFFFF" transform="translate(0,0)"/>
<path d="" fill="#FFFFFF" transform="translate(0,0)"/>
<path d="" fill="#FFFFFF" transform="translate(0,0)"/>
<path d="" fill="#FFFFFF" transform="translate(0,0)"/>
<path d="" fill="#FFFFFF" transform="translate(0,0)"/>
<path d="" fill="#FFFFFF" transform="translate(0,0)"/>
<path d="" fill="#FFFFFF" transform="translate(0,0)"/>
<path d="" fill="#FFFFFF" transform="translate(0,0)"/>
<path d="" fill="#FFFFFF" transform="translate(0,0)"/>
<path d="" fill="#FFFFFF" transform="translate(0,0)"/>
<path d="" fill="#FFFFFF" transform="translate(0,0)"/>
<path d="" fill="#FFFFFF" transform="translate(0,0)"/>
<path d="" fill="#FFFFFF" transform="translate(0,0)"/>
<path d="" fill="#FFFFFF" transform="translate(0,0)"/>
<path d="" fill="#FFFFFF" transform="translate(0,0)"/>
<path d="" fill="#FFFFFF" transform="translate(0,0)"/>
<path d="" fill="#FFFFFF" transform="translate(0,0)"/>
<path d="" fill="#FFFFFF" transform="translate(0,0)"/>
<path d="" fill="#FFFFFF" transform="translate(0,0)"/>
<path d="" fill="#FFFFFF" transform="translate(0,0)"/>
<path d="" fill="#FFFFFF" transform="translate(0,0)"/>
<path d="" fill="#FFFFFF" transform="translate(0,0)"/>
<path d="" fill="#FFFFFF" transform="translate(0,0)"/>
<path d="" fill="#FFFFFF" transform="translate(0,0)"/>
<path d="" fill="#FFFFFF" transform="translate(0,0)"/>
<path d="" fill="#7EAFD4" transform="translate(0,0)"/>
<path d="" fill="#FFFFFF" transform="translate(0,0)"/>
<path d="" fill="#67A7DE" transform="translate(0,0)"/>
<path d="" fill="#FFFFFF" transform="translate(0,0)"/>
<path d="" fill="#67A6DF" transform="translate(0,0)"/>
<path d="" fill="#FFFFFF" transform="translate(0,0)"/>
<path d="" fill="#68A8DE" transform="translate(0,0)"/>
<path d="" fill="#FFFFFF" transform="translate(0,0)"/>
<path d="" fill="#67A7DD" transform="translate(0,0)"/>
<path d="" fill="#FFFFFF" transform="translate(0,0)"/>
<path d="" fill="#67A7DD" transform="translate(0,0)"/>
<path d="" fill="#FFFFFF" transform="translate(0,0)"/>
<path d="" fill="#67A7DD" transform="translate(0,0)"/>
</svg>
