<?xml version="1.0" encoding="UTF-8"?>
<svg version="1.1" xmlns="http://www.w3.org/2000/svg" width="64" height="64">
<path d="M0 0 C4.75 0.75 4.75 0.75 7 3 C7.969375 3.474375 8.93875 3.94875 9.9375 4.4375 C12.66306961 5.82809674 13.91222807 6.91222807 16 9 C16.78375 9.309375 17.5675 9.61875 18.375 9.9375 C21.43185913 11.17480012 23.46349248 12.9073813 26 15 C27.65261839 16.02304948 29.31791365 17.02616054 31 18 C31.99 18.66 32.98 19.32 34 20 C33.67 21.98 33.34 23.96 33 26 C32.195625 26.12375 31.39125 26.2475 30.5625 26.375 C29.716875 26.58125 28.87125 26.7875 28 27 C27.67 27.66 27.34 28.32 27 29 C26.01 29.33 25.02 29.66 24 30 C23.525625 30.639375 23.05125 31.27875 22.5625 31.9375 C20.78941497 34.27797224 19.65652517 34.81932215 17 36 C12.52454502 38.53267874 12.52454502 38.53267874 8.09765625 41.1484375 C3.31471631 44 3.31471631 44 0 44 C-0.66 43.34 -1.32 42.68 -2 42 C-3.75333233 40.99345737 -5.50769153 39.98850946 -7.2734375 39.00390625 C-9.30951708 37.82003192 -11.11669017 36.41248237 -13 35 C-15.94332553 33.2286774 -18.92665395 31.53667303 -22 30 C-22 29.34 -22 28.68 -22 28 C-22.99 28 -23.98 28 -25 28 C-23.072919 32.44711 -20.24210414 33.94736896 -16 36 C-15.34 36.33 -14.68 36.66 -14 37 C-14 37.66 -14 38.32 -14 39 C-13.236875 39.103125 -12.47375 39.20625 -11.6875 39.3125 C-8.70096183 40.07649814 -8.03307752 40.79749935 -6 43 C-4.34051852 44.01187895 -2.67419438 45.0126546 -1 46 C-0.34 46.66 0.32 47.32 1 48 C3.02045442 47.39816251 5.02111039 46.72693904 7 46 C7.495 45.01 7.495 45.01 8 44 C9.55859375 42.7109375 9.55859375 42.7109375 11.4375 41.375 C12.05496094 40.92898437 12.67242187 40.48296875 13.30859375 40.0234375 C15 39 15 39 17 39 C17.61875 38.360625 18.2375 37.72125 18.875 37.0625 C21.09816628 34.90472096 22.07316375 34.58536725 25 34 C25.66 33.34 26.32 32.68 27 32 C28.65261839 30.97695052 30.31791365 29.97383946 32 29 C32 29.66 32 30.32 32 31 C32.66 31 33.32 31 34 31 C34.77961783 39.92229299 34.77961783 39.92229299 31.875 43.9375 C29.0148726 45.98933053 26.18469344 47.51380973 23 49 C22.34 49.66 21.68 50.32 21 51 C20.01 51 19.02 51 18 51 C18 51.66 18 52.32 18 53 C17.01 53 16.02 53 15 53 C14.505 53.99 14.505 53.99 14 55 C12.62243806 56.07301829 11.19807314 57.08672886 9.75 58.0625 C8.98171875 58.58972656 8.2134375 59.11695313 7.421875 59.66015625 C4.85107002 61.08239191 2.92355669 61.74764087 0 62 C-2.89110811 60.38097946 -5.26340272 58.76606117 -7.5625 56.375 C-9.48039799 54.54048888 -11.53643522 53.97396747 -14 53 C-16.93722767 51.15703362 -19.5475381 49.4524619 -22 47 C-23.17599407 46.35361065 -24.36475055 45.73012603 -25.5625 45.125 C-28.87665581 43.29602604 -28.87665581 43.29602604 -29.9375 40.75 C-29.958125 40.1725 -29.97875 39.595 -30 39 C-28.25 38.3125 -28.25 38.3125 -26 38 C-24.0625 39.25 -24.0625 39.25 -22 41 C-20.34457745 42.01850574 -18.67623498 43.01612294 -17 44 C-15.2699584 45.01934985 -13.5407834 46.040172 -11.8125 47.0625 C-10.95269531 47.56910156 -10.09289062 48.07570312 -9.20703125 48.59765625 C-7 50 -7 50 -5 52 C-3.80954006 52.73797743 -2.59938375 53.44478681 -1.375 54.125 C-0.26125 54.74375 0.8525 55.3625 2 56 C2.763125 55.525625 3.52625 55.05125 4.3125 54.5625 C7 53 7 53 10 52 C10.66 51.34 11.32 50.68 12 50 C12.5775 49.731875 13.155 49.46375 13.75 49.1875 C16.26464682 47.86032529 18.25982807 46.15542886 20.40625 44.3046875 C22.00310355 42.99745935 23.64262938 41.86950365 25.375 40.75 C26.24125 40.1725 27.1075 39.595 28 39 C28 38.67 28 38.34 28 38 C27.34 38 26.68 38 26 38 C25.34 38.66 24.68 39.32 24 40 C22.24107048 41.29430663 20.44951818 42.53508058 18.65625 43.78125 C16.86265452 45.03705082 16.86265452 45.03705082 15 47 C13.33333333 47.33333333 11.66666667 47.66666667 10 48 C9.34 48.66 8.68 49.32 8 50 C3.77142857 53.08571429 3.77142857 53.08571429 0.1875 52.6875 C-0.534375 52.460625 -1.25625 52.23375 -2 52 C-2 51.34 -2 50.68 -2 50 C-2.99 50 -3.98 50 -5 50 C-5 49.34 -5 48.68 -5 48 C-6.65 47.67 -8.3 47.34 -10 47 C-10 46.34 -10 45.68 -10 45 C-10.721875 44.9175 -11.44375 44.835 -12.1875 44.75 C-15.61041028 43.83722393 -17.28695163 42.26087365 -20 40 C-22.29590041 38.59299908 -24.64501152 37.30832693 -27 36 C-27.99 35.34 -28.98 34.68 -30 34 C-30.29296875 30.7421875 -30.29296875 30.7421875 -30.1875 26.875 C-30.16042969 25.59367187 -30.13335938 24.31234375 -30.10546875 22.9921875 C-30.07066406 22.00476563 -30.03585938 21.01734375 -30 20 C-29.34 20 -28.68 20 -28 20 C-27.525625 19.34 -27.05125 18.68 -26.5625 18 C-26.046875 17.34 -25.53125 16.68 -25 16 C-24.01 16 -23.02 16 -22 16 C-21.34 15.34 -20.68 14.68 -20 14 C-19.1028125 13.5978125 -19.1028125 13.5978125 -18.1875 13.1875 C-15.76530981 12.01226992 -15.76530981 12.01226992 -13.5 9.4375 C-10.95148158 6.95269454 -10.24563615 6.73288558 -7 6 C-5.64691687 4.68671343 -4.31129922 3.35500919 -3 2 C-2.34 2 -1.68 2 -1 2 C-0.67 1.34 -0.34 0.68 0 0 Z M0 5 C-0.474375 5.639375 -0.94875 6.27875 -1.4375 6.9375 C-3.26987442 9.35623424 -4.12210244 9.44298757 -7 10 C-7.66 10.66 -8.32 11.32 -9 12 C-11 13 -13 14 -15 15 C-15.66 15.66 -16.32 16.32 -17 17 C-18.97935624 18.69219575 -20.99220782 20.34138907 -23 22 C-22.67 22.99 -22.34 23.98 -22 25 C-21.195625 25.12375 -20.39125 25.2475 -19.5625 25.375 C-18.2940625 25.684375 -18.2940625 25.684375 -17 26 C-16.67 26.66 -16.34 27.32 -16 28 C-14.35178756 29.03013277 -12.67888441 30.02065076 -11 31 C-8.71746422 32.51762183 -6.44903144 34.05464583 -4.18359375 35.59765625 C-1.20268629 37.51504584 -1.20268629 37.51504584 2 39 C5.78649564 37.50117881 8.77906203 35.44347018 12 33 C12.99 32.67 13.98 32.34 15 32 C15.66 31.34 16.32 30.68 17 30 C18.65071396 28.97388051 20.31970006 27.97691857 22 27 C24.71388813 25.3845904 27.37121728 23.75252181 30 22 C28.88625 21.34 27.7725 20.68 26.625 20 C25.99851563 19.62875 25.37203125 19.2575 24.7265625 18.875 C23.02527333 17.84931652 23.02527333 17.84931652 21 18 C20.21625 17.195625 19.4325 16.39125 18.625 15.5625 C15.97598553 12.97655731 15.34474559 12.75526513 12 12 C10.64691687 10.68671343 9.31129922 9.35500919 8 8 C7.34 8 6.68 8 6 8 C5.525625 7.505 5.05125 7.01 4.5625 6.5 C3.00030058 4.65373409 3.00030058 4.65373409 0 5 Z " fill="#73B3D6" transform="translate(30,0)"/>
<path d="M0 0 C4.75 0.75 4.75 0.75 7 3 C7.969375 3.474375 8.93875 3.94875 9.9375 4.4375 C12.66306961 5.82809674 13.91222807 6.91222807 16 9 C18.59915538 10.19027984 18.59915538 10.19027984 21 11 C21 12.65 21 14.3 21 16 C21.66 16.33 22.32 16.66 23 17 C22.505 18.485 22.505 18.485 22 20 C19.56070254 18.07423885 17.19909405 16.19909405 15 14 C14.01 13.505 13.02 13.01 12 12.5 C9 11 9 11 7 9 C5.01612292 7.96838392 3.01723344 6.96476382 1 6 C0.401875 6.66 -0.19625 7.32 -0.8125 8 C-3 10 -3 10 -6 10 C-7.35368596 11.31266518 -8.68799596 12.64567325 -10 14 C-10.66 14 -11.32 14 -12 14 C-12.66 14.66 -13.32 15.32 -14 16 C-14.66 16.66 -15.32 17.32 -16 18 C-16.66 18 -17.32 18 -18 18 C-19.37310707 19.29233607 -20.71034824 20.62437146 -22 22 C-22.33 21.01 -22.66 20.02 -23 19 C-24.32 19.33 -25.64 19.66 -27 20 C-26.34 18.68 -25.68 17.36 -25 16 C-24.01 16 -23.02 16 -22 16 C-21.34 15.34 -20.68 14.68 -20 14 C-19.1028125 13.5978125 -19.1028125 13.5978125 -18.1875 13.1875 C-15.76530981 12.01226992 -15.76530981 12.01226992 -13.5 9.4375 C-10.95148158 6.95269454 -10.24563615 6.73288558 -7 6 C-5.64691687 4.68671343 -4.31129922 3.35500919 -3 2 C-2.34 2 -1.68 2 -1 2 C-0.67 1.34 -0.34 0.68 0 0 Z " fill="#71B2DC" transform="translate(30,0)"/>
<path d="M0 0 C0.33 0.66 0.66 1.32 1 2 C1.66 2 2.32 2 3 2 C3.77961783 10.92229299 3.77961783 10.92229299 0.875 14.9375 C-1.9851274 16.98933053 -4.81530656 18.51380973 -8 20 C-8.66 20.66 -9.32 21.32 -10 22 C-12.32275177 22.40047444 -14.65739357 22.7397104 -17 23 C-16.6875 21.0625 -16.6875 21.0625 -16 19 C-15.01 18.67 -14.02 18.34 -13 18 C-12.401875 17.401875 -11.80375 16.80375 -11.1875 16.1875 C-8.68880086 13.68880086 -5.93315948 11.95543965 -3 10 C-2.67 9.34 -2.34 8.68 -2 8 C-2.99 7.67 -3.98 7.34 -5 7 C-4.60196439 4.11424181 -4.20990931 3.17810487 -1.9375 1.25 C-1.298125 0.8375 -0.65875 0.425 0 0 Z " fill="#65A9D2" transform="translate(61,29)"/>
<path d="M0 0 C-0.33 0.99 -0.66 1.98 -1 3 C-0.34 3.66 0.32 4.32 1 5 C1.33 5.66 1.66 6.32 2 7 C4.52733235 7.65555119 4.52733235 7.65555119 7 8 C7.33 9.32 7.66 10.64 8 12 C5.6875 12.625 5.6875 12.625 3 13 C2.01 12.34 1.02 11.68 0 11 C0 10.34 0 9.68 0 9 C-0.99 9 -1.98 9 -3 9 C-4.04449911 12.13349732 -3.93423645 12.98968256 -3 16 C-6 16 -6 16 -8 15 C-8 10.38 -8 5.76 -8 1 C-3 -1 -3 -1 0 0 Z " fill="#72AFD3" transform="translate(8,19)"/>
<path d="M0 0 C2.91517292 1.07401108 4.77810176 1.77810176 7 4 C8.31647119 4.69937532 9.65022151 5.36729133 11 6 C11.66 6.33 12.32 6.66 13 7 C13 7.66 13 8.32 13 9 C14.1446875 9.1546875 14.1446875 9.1546875 15.3125 9.3125 C18.19807812 10.05067115 19.26179817 10.62140803 21 13 C21 13.99 21 14.98 21 16 C20.01 16.66 19.02 17.32 18 18 C17.67 17.01 17.34 16.02 17 15 C16.278125 14.9175 15.55625 14.835 14.8125 14.75 C11.40678783 13.84181009 9.69949062 12.23860198 7 10 C5.02288349 8.95548562 3.02749004 7.94301862 1 7 C1.020625 6.21625 1.04125 5.4325 1.0625 4.625 C1.18684063 2.01885039 1.18684063 2.01885039 0 0 Z " fill="#82BCDD" transform="translate(3,30)"/>
<path d="M0 0 C0.66 0.66 1.32 1.32 2 2 C4.34254993 3.44686907 6.71303849 4.83655439 9.10546875 6.19921875 C10.19794922 6.84310547 10.19794922 6.84310547 11.3125 7.5 C12.00988281 7.9021875 12.70726563 8.304375 13.42578125 8.71875 C13.94527344 9.1415625 14.46476562 9.564375 15 10 C15 10.99 15 11.98 15 13 C12.875 13.75 12.875 13.75 10 14 C6.93054466 12.25462343 4.49346035 10.49346035 2 8 C0.82400593 7.35361065 -0.36475055 6.73012603 -1.5625 6.125 C-4.87665581 4.29602604 -4.87665581 4.29602604 -5.9375 1.75 C-5.958125 1.1725 -5.97875 0.595 -6 0 C-3 -1 -3 -1 0 0 Z " fill="#6FACCE" transform="translate(6,39)"/>
<path d="M0 0 C2.15825637 0.96749423 3.7900609 1.78093311 5.4375 3.5 C7.4156595 5.39903312 9.43558782 6.09899031 12 7 C12 8.65 12 10.3 12 12 C12.66 12.33 13.32 12.66 14 13 C13.67 13.99 13.34 14.98 13 16 C10.56070254 14.07423885 8.19909405 12.19909405 6 10 C5.01 9.505 4.02 9.01 3 8.5 C-0.0358772 6.9820614 -1.48655248 6.02689504 -3 3 C-2.34 3 -1.68 3 -1 3 C-0.67 2.01 -0.34 1.02 0 0 Z " fill="#8AC3E1" transform="translate(39,4)"/>
<path d="M0 0 C0.66 0.66 1.32 1.32 2 2 C3.31747324 2.69748583 4.64914193 3.36959957 6 4 C5.34 5.32 4.68 6.64 4 8 C-0.38000076 7.49942848 -2.84169815 6.06806466 -6 3 C-6 2.01 -6 1.02 -6 0 C-3 -1 -3 -1 0 0 Z " fill="#7AB6DC" transform="translate(6,39)"/>
<path d="M0 0 C1.32 0.66 2.64 1.32 4 2 C-0.31315789 7.88157895 -0.31315789 7.88157895 -4.625 8.625 C-6.295625 8.810625 -6.295625 8.810625 -8 9 C-7.6875 7.0625 -7.6875 7.0625 -7 5 C-6.01 4.67 -5.02 4.34 -4 4 C-2.62804426 2.70644173 -1.28817344 1.37701298 0 0 Z " fill="#5EA5D0" transform="translate(52,43)"/>
<path d="M0 0 C2.625 1.3125 2.625 1.3125 5 3 C5.66 3.33 6.32 3.66 7 4 C6.67 5.98 6.34 7.96 6 10 C3.07909997 8.69063102 1.24380538 7.24380538 -1 5 C-1.99 4.67 -2.98 4.34 -4 4 C-4 3.34 -4 2.68 -4 2 C-2.3125 0.8125 -2.3125 0.8125 0 0 Z " fill="#7EBADC" transform="translate(22,50)"/>
<path d="M0 0 C4.43909781 1.39514503 6.98024981 3.47695811 10 7 C10.8125 9.3125 10.8125 9.3125 11 11 C10.01 11.495 10.01 11.495 9 12 C8.34 11.34 7.68 10.68 7 10 C5.01612292 8.96838392 3.01723344 7.96476382 1 7 C1.020625 6.21625 1.04125 5.4325 1.0625 4.625 C1.18684063 2.01885039 1.18684063 2.01885039 0 0 Z " fill="#76B8DA" transform="translate(3,30)"/>
<path d="M0 0 C2.8125 1.8125 2.8125 1.8125 3.8125 4.8125 C2.875 7 2.875 7 1.8125 8.8125 C1.07 8.19375 0.3275 7.575 -0.4375 6.9375 C-2.67551188 5.20812719 -4.62489987 3.95143339 -7.1875 2.8125 C-7.1875 2.1525 -7.1875 1.4925 -7.1875 0.8125 C-4.25412226 -1.3311222 -3.50410208 -1.30544979 0 0 Z " fill="#84BEE0" transform="translate(20.1875,30.1875)"/>
<path d="M0 0 C2.9375 0.375 2.9375 0.375 6 1 C6.33 1.66 6.66 2.32 7 3 C7.99 3.33 8.98 3.66 10 4 C9.67 5.32 9.34 6.64 9 8 C7.35 7.67 5.7 7.34 4 7 C4 6.34 4 5.68 4 5 C3.01 5 2.02 5 1 5 C1 4.34 1 3.68 1 3 C0.34 3 -0.32 3 -1 3 C-0.67 2.01 -0.34 1.02 0 0 Z " fill="#6DB3DA" transform="translate(24,45)"/>
<path d="M0 0 C0.33 0.99 0.66 1.98 1 3 C1.66 3.66 2.32 4.32 3 5 C0.51047079 7.66735273 -1.63408134 9.55746343 -5 11 C-5.875 8.3125 -5.875 8.3125 -6 5 C-4.20703368 2.86499088 -2.32163572 1.61093091 0 0 Z " fill="#97BEDB" transform="translate(60,37)"/>
<path d="M0 0 C-0.99 1.485 -0.99 1.485 -2 3 C-2.66 3 -3.32 3 -4 3 C-4.33 3.99 -4.66 4.98 -5 6 C-5.6599679 7.66933058 -6.32558869 9.3364521 -7 11 C-7.33 11 -7.66 11 -8 11 C-8 7.7 -8 4.4 -8 1 C-3.375 -1.125 -3.375 -1.125 0 0 Z " fill="#318BC8" transform="translate(8,19)"/>
<path d="M0 0 C0.99 0 1.98 0 3 0 C3 0.66 3 1.32 3 2 C3.66 2 4.32 2 5 2 C3.60755361 4.78489278 1.44008012 6.12301529 -1 8 C-1.33 7.01 -1.66 6.02 -2 5 C-3.32 5.33 -4.64 5.66 -6 6 C-5.34 4.68 -4.68 3.36 -4 2 C-3.01 2 -2.02 2 -1 2 C-0.67 1.34 -0.34 0.68 0 0 Z " fill="#8EC3DC" transform="translate(9,14)"/>
<path d="M0 0 C0.99 0 1.98 0 3 0 C3 0.66 3 1.32 3 2 C3.66 2 4.32 2 5 2 C3.73134318 4.53731364 2.50290879 4.78646846 0 6 C-0.66 6.66 -1.32 7.32 -2 8 C-2.33 7.01 -2.66 6.02 -3 5 C-3.66 5 -4.32 5 -5 5 C-4.67 4.34 -4.34 3.68 -4 3 C-1.9375 2.375 -1.9375 2.375 0 2 C0 1.34 0 0.68 0 0 Z " fill="#7DB9DE" transform="translate(37,44)"/>
<path d="M0 0 C1.32 0.66 2.64 1.32 4 2 C4 3.65 4 5.3 4 7 C4.66 7.33 5.32 7.66 6 8 C5.67 8.99 5.34 9.98 5 11 C-1.60869565 5.7826087 -1.60869565 5.7826087 -3 3 C-2.34 3 -1.68 3 -1 3 C-0.67 2.01 -0.34 1.02 0 0 Z " fill="#9FCAE6" transform="translate(47,9)"/>
<path d="M0 0 C0.99 0.66 1.98 1.32 3 2 C2 5 2 5 -0.4375 6.75 C-1.7059375 7.36875 -1.7059375 7.36875 -3 8 C-3.66 7.67 -4.32 7.34 -5 7 C-4.60196439 4.11424181 -4.20990931 3.17810487 -1.9375 1.25 C-1.298125 0.8375 -0.65875 0.425 0 0 Z " fill="#60A1CF" transform="translate(17,9)"/>
<path d="M0 0 C0 0.66 0 1.32 0 2 C1.32 1.67 2.64 1.34 4 1 C4 1.66 4 2.32 4 3 C3.01 3 2.02 3 1 3 C0.67 3.66 0.34 4.32 0 5 C-1.64142963 6.0409066 -3.30712215 7.04504326 -5 8 C-5.6875 5.6875 -5.6875 5.6875 -6 3 C-4.0819994 0.21889913 -3.45555657 0 0 0 Z " fill="#89BFDE" transform="translate(44,50)"/>
<path d="M0 0 C2 1 4 2 6 3 C6 3.66 6 4.32 6 5 C6.99 5 7.98 5 9 5 C8.34 6.32 7.68 7.64 7 9 C6.01 9 5.02 9 4 9 C3.896875 8.21625 3.79375 7.4325 3.6875 6.625 C3.22404978 3.66954819 3.22404978 3.66954819 0 2 C0 1.34 0 0.68 0 0 Z " fill="#A3C6DE" transform="translate(10,34)"/>
<path d="M0 0 C0 0.66 0 1.32 0 2 C0.66 2 1.32 2 2 2 C0.70256222 4.59487555 -0.29362471 5.02269781 -3 6 C-5.75 5.625 -5.75 5.625 -8 5 C-7 2 -7 2 -5.125 0.8125 C-3 0 -3 0 0 0 Z " fill="#85BFE0" transform="translate(56,34)"/>
<path d="M0 0 C0 0.66 0 1.32 0 2 C0.99 2.33 1.98 2.66 3 3 C2.01 3.33 1.02 3.66 0 4 C-1.66710346 5.49985609 -1.66710346 5.49985609 -3 7 C-3.99 6.01 -4.98 5.02 -6 4 C-5.67 3.01 -5.34 2.02 -5 1 C-3 0 -3 0 0 0 Z " fill="#85C1DF" transform="translate(24,6)"/>
<path d="M0 0 C0.66666667 2.66666667 1.33333333 5.33333333 2 8 C-1 8 -1 8 -3 7 C-2.25 2.25 -2.25 2.25 0 0 Z " fill="#5AA5C8" transform="translate(3,27)"/>
<path d="M0 0 C3 1 3 1 5 3 C5.625 5.125 5.625 5.125 6 7 C3.03824877 6.38722388 1.61941217 5.74627478 -1 4 C-0.67 2.68 -0.34 1.36 0 0 Z " fill="#4E9ECA" transform="translate(51,12)"/>
<path d="M0 0 C1.65 0.33 3.3 0.66 5 1 C5.33 2.32 5.66 3.64 6 5 C2.95613276 5.08226668 0.92824652 4.97608217 -2 4 C-2 3.34 -2 2.68 -2 2 C-1.34 2 -0.68 2 0 2 C0 1.34 0 0.68 0 0 Z " fill="#6AA9CD" transform="translate(57,17)"/>
<path d="M0 0 C1.32 0.66 2.64 1.32 4 2 C2.625 4.5 2.625 4.5 1 7 C0.34 7 -0.32 7 -1 7 C-1.625 5.1875 -1.625 5.1875 -2 3 C-1.34 2.01 -0.68 1.02 0 0 Z " fill="#62A4CB" transform="translate(46,29)"/>
<path d="M0 0 C1.32 0 2.64 0 4 0 C4.33 1.65 4.66 3.3 5 5 C3.68 5 2.36 5 1 5 C1 4.34 1 3.68 1 3 C0.34 3 -0.32 3 -1 3 C-0.67 2.01 -0.34 1.02 0 0 Z " fill="#54A1D7" transform="translate(24,45)"/>
<path d="M0 0 C1.32 0.66 2.64 1.32 4 2 C4 3.32 4 4.64 4 6 C3.01 6.33 2.02 6.66 1 7 C0.34 6.67 -0.32 6.34 -1 6 C-1.042721 4.33388095 -1.04063832 2.66617115 -1 1 C-0.67 0.67 -0.34 0.34 0 0 Z " fill="#5EA7CD" transform="translate(34,1)"/>
<path d="M0 0 C0.66 0.33 1.32 0.66 2 1 C1.67 2.98 1.34 4.96 1 7 C-0.32 6.34 -1.64 5.68 -3 5 C-2.625 3.0625 -2.625 3.0625 -2 1 C-1.34 0.67 -0.68 0.34 0 0 Z " fill="#92C4E1" transform="translate(27,53)"/>
<path d="M0 0 C0.99 0.66 1.98 1.32 3 2 C2.67 2.99 2.34 3.98 2 5 C1.01 5.33 0.02 5.66 -1 6 C-1.99 5.01 -2.98 4.02 -4 3 C-3 1 -3 1 0 0 Z " fill="#8BC3E0" transform="translate(37,36)"/>
<path d="M0 0 C2.0625 0.4375 2.0625 0.4375 4 1 C4 1.99 4 2.98 4 4 C2.68 4.33 1.36 4.66 0 5 C-0.5625 3.0625 -0.5625 3.0625 -1 1 C-0.67 0.67 -0.34 0.34 0 0 Z " fill="#64ABD3" transform="translate(42,8)"/>
<path d="M0 0 C0.66 0.33 1.32 0.66 2 1 C1.67 1.99 1.34 2.98 1 4 C-1.0625 4.6875 -1.0625 4.6875 -3 5 C-2.625 3.0625 -2.625 3.0625 -2 1 C-1.34 0.67 -0.68 0.34 0 0 Z " fill="#4F97D0" transform="translate(33,39)"/>
<path d="M0 0 C0.99 0.33 1.98 0.66 3 1 C1.68 1.33 0.36 1.66 -1 2 C-0.67 1.34 -0.34 0.68 0 0 Z " fill="#C3F6FA" transform="translate(50,60)"/>
<path d="" fill="#EAEAEA" transform="translate(0,0)"/>
<path d="" fill="#FFFFFF" transform="translate(0,0)"/>
<path d="" fill="#FFFFFF" transform="translate(0,0)"/>
</svg>
