<svg xmlns="http://www.w3.org/2000/svg" width="158" height="158" fill="none" xmlns:v="https://vecta.io/nano"><path d="M2 78.9988C2 121.525 36.473 155.998 78.999 155.998C121.525 155.998 156 121.524 156 78.9988C156 36.4732 121.525 2 78.999 2C36.473 2 2 36.4731 2 78.9988Z" fill="#0c0c4f" stroke="url(#A)" stroke-width="4"/><g fill-rule="evenodd"><path d="M44.154 60.388l1.95-6.025c.397-1.225 1.364-2.179 2.594-2.555l6.054-1.862a.9.9 0 0 0 .014-1.708l-6.028-1.95c-1.223-.396-2.176-1.364-2.554-2.593l-1.86-6.054a.9.9 0 0 0-1.708-.011l-1.95 6.025c-.396 1.223-1.363 2.177-2.593 2.555l-6.055 1.859c-.838.258-.847 1.438-.013 1.708l6.027 1.95a3.95 3.95 0 0 1 2.555 2.596l1.859 6.052a.9.9 0 0 0 1.708.014z" fill="#fafafa"/><path d="M139.848 56.881c-2.496-2.791-6.391-4.362-10.178-5.007-3.817-.619-7.82-.561-11.588.108-7.625 1.29-14.552 4.447-20.594 8.342-3.137 1.912-5.813 4.123-8.585 6.376-1.336 1.139-2.553 2.352-3.821 3.548l-3.466 3.448c-3.765 3.936-7.476 7.52-11.067 10.492-3.605 2.958-6.976 5.204-10.298 6.773-3.32 1.577-6.872 2.504-11.501 2.653-4.59.162-10.019-.666-15.827-2.034-5.839-1.361-11.971-3.301-18.823-4.971 2.391 6.633 5.991 12.494 10.614 17.852 4.676 5.265 10.516 10.063 18.017 13.219 7.394 3.226 16.685 4.384 25.372 2.637 8.71-1.677 16.354-5.707 22.533-10.369 6.194-4.709 11.206-10.073 15.431-15.65a106.09 106.09 0 0 0 2.627-3.607l2.333-3.456c1.621-2.137 3.097-4.571 4.701-6.689 3.146-4.435 6.248-8.865 9.852-12.947 1.814-2.07 3.727-4.05 5.985-5.953 1.126-.929 2.343-1.838 3.691-2.657 1.368-.883 2.813-1.575 4.592-2.109z" fill="url(#B)"/><path d="M139.848 56.881c-2.681-6.766-7.666-12.461-14.357-16.664-6.65-4.157-15.886-6.278-25.039-4.47-4.521.874-8.902 2.558-12.746 4.8-3.827 2.233-7.256 4.921-10.225 7.805-1.482 1.447-2.827 2.956-4.163 4.474l-3.464 4.416-5.35 7.109c-6.82 9.146-14.165 19.865-26.218 23.042-11.832 3.118-16.964.357-24.186-.784 1.321 3.409 2.957 6.72 5.174 9.632 2.176 2.972 4.746 5.762 7.942 8.155 1.615 1.149 3.32 2.283 5.214 3.245 1.885.929 3.917 1.747 6.087 2.362 4.316 1.183 9.175 1.598 13.88.961 4.707-.628 9.206-2.119 13.139-4.1 3.961-1.963 7.412-4.353 10.494-6.875 6.125-5.087 10.89-10.708 14.914-16.389 2.025-2.841 3.862-5.735 5.562-8.63l2-3.447 1.858-2.965c2.535-3.793 5.014-6.834 8.025-9.117 2.969-2.342 7.104-4.072 12.629-4.474 5.502-.407 11.854.345 18.83 1.913z" fill="#fafafa"/><path d="M110.081 113.097c0 4.97 4.031 9 9 9a9 9 0 1 0 0-18c-4.969 0-9 4.031-9 9z" fill="url(#C)"/></g><defs><linearGradient id="A" x1="149.5" y1="40.5" x2="6.108" y2="67.107" gradientUnits="userSpaceOnUse"><stop stop-color="#ec796b"/><stop offset="1" stop-color="#e175b1"/></linearGradient><linearGradient id="B" x1="139.176" y1="54.507" x2="28.5" y2="116.002" gradientUnits="userSpaceOnUse"><stop stop-color="#ec796b"/><stop offset="1" stop-color="#e175b1"/></linearGradient><linearGradient id="C" x1="128.07" y1="106.784" x2="110.069" y2="108.688" gradientUnits="userSpaceOnUse"><stop stop-color="#ec796b"/><stop offset="1" stop-color="#e175b1"/></linearGradient></defs></svg>