<svg width="45" height="45" fill="none" xmlns="http://www.w3.org/2000/svg"><path d="M22.5 45a22.5 22.5 0 1 0 0-45 22.5 22.5 0 0 0 0 45Z" fill="url(#a)"/><mask id="b" style="mask-type:alpha" maskUnits="userSpaceOnUse" x="0" y="0" width="45" height="45"><path d="M22.5 45a22.5 22.5 0 1 0 0-45 22.5 22.5 0 0 0 0 45Z" fill="#fff"/></mask><g mask="url(#b)" stroke="#fff" stroke-width=".79"><path d="M22.03-5.37V10.3M19.7-5.37V10.3M25.07-5.37V10.3M12.2-2.32l5.08 9.48V-3.63M32.52-2.6l-5.08 9.47V-3.92M22.83 52.4V36.73M25.15 52.4V36.73M19.78 52.4V36.73M32.8 49.55l-5.07-9.49v10.8M12.2 49.7l5.08-9.49v10.8M-6.46 23.92H9.22M-6.46 26.24H9.22M-6.46 20.87H9.22M-3.77 33.83l9.48-5.09H-5.08M-2.75 13.79l9.48 5.08h-10.8M51.32 23.11H35.64M51.32 20.8H35.64M51.32 26.16H35.64M48.1 13.21l-9.49 5.08h10.8M48.68 33.68l-9.49-5.08H50M2.29 44.23l11.08-11.09M3.93 45.87 15 34.78M.13 42.07 11.22 31M11.78 49.35l3.11-10.3-7.63 7.63M-3.28 34.43l10.3-3.11-7.64 7.63M42.57 2.8 31.48 13.9M40.93 1.16 29.84 12.25M44.73 4.96 33.64 16.05M33.42-1.98 30.3 8.32 37.94.7M48.04 12.36l-10.3 3.11 7.64-7.63M43.14 43.66 32.05 32.57M44.78 42.02 33.7 30.93M40.98 45.81 29.9 34.73M48.33 34.43l-10.3-3.11 7.63 7.63M33.56 49.2l-3.11-10.3 7.63 7.64M1.72 3.37 12.8 14.46M.07 5.02 11.16 16.1M3.87 1.22 14.96 12.3M-2.56 13.09l10.3 3.1L.11 8.57M11.63-1.54l3.11 10.3-7.63-7.63"/></g><path d="M22.43 37.94a15.36 15.36 0 1 0 0-30.73 15.36 15.36 0 0 0 0 30.73Z" fill="#F8BA3A" stroke="#fff" stroke-width=".68"/><mask id="c" style="mask-type:alpha" maskUnits="userSpaceOnUse" x="6" y="6" width="33" height="33"><path d="M22.57 37.94a15.36 15.36 0 1 0 0-30.73 15.36 15.36 0 0 0 0 30.73Z" fill="#fff" stroke="#fff" stroke-width=".68"/></mask><g mask="url(#c)"><path fill-rule="evenodd" clip-rule="evenodd" d="m23.3 6.53-2.03 16.33h2.03l-.8 15.07 14.81-2.66L40 14.6l-6.53-5.74L23.3 6.53Z" fill="#fff"/></g><path d="M8.2 20.53c.36 2.85 2.21 5.8 5.06 5.46 9.66-1.19 8.3-7.4 8.17-9.4.7 5.69 5.03 7.78 12.27 6.89 2.16-.27 3.04-4.48 2.8-6.43-.3-2.43-6.73-2.78-14.75-1.8-8.03.99-13.98 1.72-13.54 5.28Z" fill="#01C1AE" stroke="#01C1AE" stroke-width="1.24" stroke-linecap="round" stroke-linejoin="round"/><path d="M22.66 32.34c3.37-.27 5.9-2.99 5.64-6.07l-12.19 1c.25 3.08 3.19 5.35 6.55 5.07Z" fill="#fff" stroke="#FE9D51" stroke-width=".56" stroke-linejoin="round"/><path d="M24.24 29.03h3.34" stroke="#FE9A54" stroke-width=".45" stroke-linecap="round" stroke-linejoin="round"/><path d="M26.06 22.14c-2.62-.99-3.66-3.6-3.85-4.8 0-1.59 1.81-1.8 6.24-1.8s7.11.35 7.33 1.52c.22 2.03-.5 5.08-1.52 5.58-1.02.51-4.94.73-8.2-.5ZM18.37 23.5c2.1-1.38 3.19-4.05 2.53-6.3-.37-1.28-2.41-.97-6.24-.36-3.4.54-6.02 2.03-5.73 3.34.14 2.14 1.8 4.4 2.76 4.79.96.39 4.06.26 6.68-1.47Z" fill="#000" stroke="#000" stroke-width=".11"/><path d="m36.5 10.45 1.28 3.45 3.45 1.27-3.45 1.27-1.27 3.45-1.28-3.45-3.44-1.27 3.44-1.28 1.28-3.44Z" fill="#fff"/><defs><linearGradient id="a" x1="22.5" y1="0" x2="22.5" y2="45" gradientUnits="userSpaceOnUse"><stop stop-color="#F5B745"/><stop offset="1" stop-color="#FC8B47"/></linearGradient></defs></svg>