<?xml version="1.0" encoding="UTF-8"?>
<svg version="1.1" xmlns="http://www.w3.org/2000/svg" width="92" height="92">
<path d="M0 0 C10.02332063 7.30942515 17.6463475 16.79851899 20.25 29.25 C21.6939297 45.62914186 18.96217358 58.38013856 8.578125 71.3359375 C2.19458426 78.45604064 -8.09927042 84.57553758 -17.7578125 85.42700195 C-34.63084552 85.91537041 -46.99844032 83.29450178 -59.875 71.75 C-69.8679957 61.41656156 -72.23936298 48.89328247 -72.02734375 35.1015625 C-71.53324099 22.40238407 -65.22164587 11.86695986 -56.234375 3.17578125 C-39.95683645 -9.44187049 -17.56264294 -10.89479206 0 0 Z " fill="#B1B678" transform="translate(71.75,6.75)"/>
<path d="M0 0 C1.77007714 -0.08114106 3.54122098 -0.13925505 5.3125 -0.1875 C6.29863281 -0.22230469 7.28476563 -0.25710937 8.30078125 -0.29296875 C11 0 11 0 12.859375 1.33203125 C14 3 14 3 13.9375 5.875 C12.87669756 9.41100815 11.48385757 11.29697853 9 14 C8.46375 14.598125 7.9275 15.19625 7.375 15.8125 C6 17 6 17 4 17 C3.773125 17.598125 3.54625 18.19625 3.3125 18.8125 C2 21 2 21 -0.625 22.5 C-1.40875 22.995 -2.1925 23.49 -3 24 C-3 25.32 -3 26.64 -3 28 C1.61513112 26.68139111 5.09897612 24.78644563 9 22 C9.5 24.625 9.5 24.625 9 28 C7.14477216 29.80333335 5.19927416 31.1797149 3.04296875 32.60546875 C1.11511218 33.92142438 -0.41028768 35.29996064 -2 37 C-1.01 37 -0.02 37 1 37 C1.68898873 42.08129185 1.68898873 42.08129185 1 45 C-4.14566164 50.40637516 -13.34963672 53.02273494 -20.61328125 53.43359375 C-22.1795286 53.45594289 -23.74621264 53.45684285 -25.3125 53.4375 C-26.54383667 53.43266602 -26.54383667 53.43266602 -27.80004883 53.42773438 C-34.77461464 53.26901939 -40.59902873 51.86191131 -47 49 C-46.67 48.01 -46.34 47.02 -46 46 C-45.34 46 -44.68 46 -44 46 C-42.53347983 43.11980724 -41.17952126 40.20691485 -39.875 37.25 C-39.52179687 36.45078125 -39.16859375 35.6515625 -38.8046875 34.828125 C-38.53914063 34.22484375 -38.27359375 33.6215625 -38 33 C-39.31291016 32.60941406 -39.31291016 32.60941406 -40.65234375 32.2109375 C-43.98700574 31.00470037 -46.59844872 29.55606044 -49.5625 27.625 C-50.47128906 27.03976563 -51.38007812 26.45453125 -52.31640625 25.8515625 C-54.98233713 24.01218661 -57.49739307 22.05458146 -60 20 C-59.67 18.35 -59.34 16.7 -59 15 C-55.33061423 15 -54.55671108 15.86839741 -51.6875 18.0625 C-42.72340018 24.50094834 -33.1027268 29.74646633 -22 31 C-22.48855469 31.57492188 -22.97710937 32.14984375 -23.48046875 32.7421875 C-25.8749271 36.30002022 -25.34047848 38.7780668 -25 43 C-23.06268472 45.36410488 -23.06268472 45.36410488 -19.5625 45.3125 C-16.14346334 45.26665828 -16.14346334 45.26665828 -14.0625 43.875 C-12.47009717 41.06487736 -12.54680675 39.17235276 -13 36 C-16.98651228 30.87448422 -21.90813874 29.64011649 -28 28 C-28 27.67 -28 27.34 -28 27 C-27.030625 26.71125 -26.06125 26.4225 -25.0625 26.125 C-21.89335797 25.35785318 -21.89335797 25.35785318 -21 23 C-22.32 23 -23.64 23 -25 23 C-25.66 23.66 -26.32 24.32 -27 25 C-27.99 25 -28.98 25 -30 25 C-30 23.35 -30 21.7 -30 20 C-26.25 18.875 -26.25 18.875 -24 20 C-22.43920222 16.41278829 -21.52509152 13.041614 -20.875 9.1875 C-20.70742188 8.21167969 -20.53984375 7.23585938 -20.3671875 6.23046875 C-20.18542969 5.12638672 -20.18542969 5.12638672 -20 4 C-19.05125 4.020625 -18.1025 4.04125 -17.125 4.0625 C-14.09333717 4.22551826 -14.09333717 4.22551826 -12 3 C-12 3.99 -12 4.98 -12 6 C-11.0925 5.67 -10.185 5.34 -9.25 5 C-6 4 -6 4 -2 4 C-1.34 2.68 -0.68 1.36 0 0 Z M-15 5 C-14 8 -14 8 -14 8 Z " fill="#A57F6A" transform="translate(72,39)"/>
<path d="M0 0 C0 0.99 0 1.98 0 3 C2.31 3 4.62 3 7 3 C8.62756322 7.11677756 9.41756655 9.74730036 8 14 C6.53129686 16.7458363 5.20271564 18.79728436 3 21 C-0.0390625 21.1953125 -0.0390625 21.1953125 -3.625 21.125 C-4.81351563 21.10695313 -6.00203125 21.08890625 -7.2265625 21.0703125 C-8.14179687 21.04710938 -9.05703125 21.02390625 -10 21 C-10.10957031 21.81984375 -10.21914063 22.6396875 -10.33203125 23.484375 C-10.56986328 25.10085937 -10.56986328 25.10085937 -10.8125 26.75 C-10.96332031 27.81734375 -11.11414062 28.8846875 -11.26953125 29.984375 C-12.02997689 33.12375488 -12.65058356 34.79004664 -15 37 C-17.19140625 37.3125 -17.19140625 37.3125 -19.5625 37 C-20.34753906 36.9175 -21.13257812 36.835 -21.94140625 36.75 C-24 36 -24 36 -25.27734375 34 C-26 32 -26 32 -26 31 C-27.918125 30.690625 -27.918125 30.690625 -29.875 30.375 C-32.109375 29.8359375 -32.109375 29.8359375 -34 29 C-35.125 26 -35.125 26 -36 23 C-38.66500695 21.83169965 -38.66500695 21.83169965 -42 21 C-45.06030623 19.43739665 -48.03085594 17.72870165 -51 16 C-51 14.68 -51 13.36 -51 12 C-50.19175781 11.67386719 -49.38351563 11.34773438 -48.55078125 11.01171875 C-47.48214844 10.57472656 -46.41351563 10.13773438 -45.3125 9.6875 C-44.25675781 9.25824219 -43.20101562 8.82898437 -42.11328125 8.38671875 C-39.00197656 7.0794265 -39.00197656 7.0794265 -36.28515625 5.3515625 C-32.82474019 3.30488907 -29.91571615 3.54810728 -26.0625 4.45703125 C-24.36380494 4.93307684 -22.68020802 5.46233343 -21 6 C-21 4.68 -21 3.36 -21 2 C-21.66 1.67 -22.32 1.34 -23 1 C-15.49571621 -1.26544416 -7.64808364 -2.23366929 0 0 Z " fill="#BB815F" transform="translate(58,19)"/>
<path d="M0 0 C3.46941546 0.45822468 6.67395049 0.89131683 10 2 C10.02578125 2.72445313 10.0515625 3.44890625 10.078125 4.1953125 C10.57327133 12.63530671 12.74512977 17.19190621 19 23 C18.04287109 23.29003906 18.04287109 23.29003906 17.06640625 23.5859375 C16.24011719 23.84632812 15.41382813 24.10671875 14.5625 24.375 C13.73878906 24.63023438 12.91507813 24.88546875 12.06640625 25.1484375 C9.82201984 25.80882227 9.82201984 25.80882227 9 28 C6.78515625 28.66796875 6.78515625 28.66796875 4.0625 29.1875 C2.71865234 29.45626953 2.71865234 29.45626953 1.34765625 29.73046875 C-1 30 -1 30 -3 29 C-4.99551782 28.64080679 -6.99548879 28.30503431 -9 28 C-9.03738281 28.73605469 -9.07476562 29.47210938 -9.11328125 30.23046875 C-9.82719547 40.82719547 -9.82719547 40.82719547 -13 44 C-16.1875 44.3125 -16.1875 44.3125 -19 44 C-19 45.65 -19 47.3 -19 49 C-18.2575 48.484375 -17.515 47.96875 -16.75 47.4375 C-14 46 -14 46 -11.6875 46.3125 C-11.130625 46.539375 -10.57375 46.76625 -10 47 C-10.75 48.9375 -10.75 48.9375 -12 51 C-14.125 51.75 -14.125 51.75 -16 52 C-14.9275 52.103125 -13.855 52.20625 -12.75 52.3125 C-9.02000413 52.99633258 -7.69528916 53.49059285 -5 56 C-4.2575 56.598125 -3.515 57.19625 -2.75 57.8125 C-1 60 -1 60 -0.5 63 C-1 66 -1 66 -2.5625 68.375 C-5.8994213 70.5996142 -8.06905293 70.50030235 -12 70 C-13.9375 69 -13.9375 69 -15 67 C-15.40370719 64.27071195 -15.55717919 61.70942039 -15 59 C-13.4765625 57.25 -13.4765625 57.25 -12 56 C-13.155 55.835 -14.31 55.67 -15.5 55.5 C-26.17992421 53.13044471 -36.67573136 46.93689053 -45 40 C-43.125 33.125 -43.125 33.125 -42 32 C-36.85446483 32.52505461 -31.98724768 33.6875664 -27 35 C-27.99 35.495 -27.99 35.495 -29 36 C-29 36.66 -29 37.32 -29 38 C-26.47439892 38.84186703 -24.42667123 39.26251314 -21.8125 39.5625 C-20.554375 39.706875 -19.29625 39.85125 -18 40 C-15.81259083 36.71888625 -15.49044144 34.73165037 -14.9375 30.875 C-14.09957924 25.09957924 -14.09957924 25.09957924 -13 24 C-9.69613482 24.00910156 -6.40298073 24.1333688 -3.1015625 24.2578125 C-0.02849788 24.28296652 -0.02849788 24.28296652 1.8359375 22.59765625 C2.22007813 22.07042969 2.60421875 21.54320313 3 21 C3.4125 20.443125 3.825 19.88625 4.25 19.3125 C5.61874137 15.09221412 4.9272216 10.92576794 3.03515625 6.99609375 C2.04917461 5.31536348 1.02679086 3.65611429 0 2 C0 1.34 0 0.68 0 0 Z " fill="#B98A74" transform="translate(61,15)"/>
<path d="M0 0 C0.51046875 0.35191406 1.0209375 0.70382813 1.546875 1.06640625 C17.55764607 11.99354294 17.55764607 11.99354294 36 17 C35.505 17.495 35.01 17.99 34.5 18.5 C32.28822028 22.18629954 32.65578725 24.73176192 33 29 C34.93731528 31.36410488 34.93731528 31.36410488 38.4375 31.3125 C41.87821465 31.29779851 41.87821465 31.29779851 43.875 29.75 C45.13803061 28.06133156 45.13803061 28.06133156 45.25390625 26 C46 24 46 24 48.28515625 22.953125 C49.20167969 22.72109375 50.11820313 22.4890625 51.0625 22.25 C51.98160156 22.00765625 52.90070313 21.7653125 53.84765625 21.515625 C54.55792969 21.34546875 55.26820312 21.1753125 56 21 C56 21.66 56 22.32 56 23 C56.99 23 57.98 23 59 23 C59.68898873 28.08129185 59.68898873 28.08129185 59 31 C53.85433836 36.40637516 44.65036328 39.02273494 37.38671875 39.43359375 C35.8204714 39.45594289 34.25378736 39.45684285 32.6875 39.4375 C31.45616333 39.43266602 31.45616333 39.43266602 30.19995117 39.42773438 C23.22538536 39.26901939 17.40097127 37.86191131 11 35 C11.33 34.01 11.66 33.02 12 32 C12.66 32 13.32 32 14 32 C15.46652017 29.11980724 16.82047874 26.20691485 18.125 23.25 C18.47820313 22.45078125 18.83140625 21.6515625 19.1953125 20.828125 C19.46085937 20.22484375 19.72640625 19.6215625 20 19 C18.68708984 18.60941406 18.68708984 18.60941406 17.34765625 18.2109375 C14.01299426 17.00470037 11.40155128 15.55606044 8.4375 13.625 C7.52871094 13.03976563 6.61992187 12.45453125 5.68359375 11.8515625 C3.01766287 10.01218661 0.50260693 8.05458146 -2 6 C-1.125 1.125 -1.125 1.125 0 0 Z " fill="#A3806A" transform="translate(14,53)"/>
<path d="M0 0 C0.66 0.99 1.32 1.98 2 3 C2.99 3 3.98 3 5 3 C5.99 3 6.98 3 8 3 C8.66 3.99 9.32 4.98 10 6 C12.11840256 6.75906853 12.11840256 6.75906853 14.5 7.125 C18.86597938 7.93298969 18.86597938 7.93298969 21 9 C20.67 10.65 20.34 12.3 20 14 C15.545 13.01 15.545 13.01 11 12 C11.495 12.78375 11.99 13.5675 12.5 14.375 C14 17 14 17 14 19 C10.25 20.125 10.25 20.125 8 19 C8 18.01 8 17.02 8 16 C5.62492145 15.97280444 3.25016036 15.95306753 0.875 15.9375 C-0.12273438 15.92493164 -0.12273438 15.92493164 -1.140625 15.91210938 C-5.20681354 15.89217708 -9.0120092 16.21109839 -13 17 C-13 18.65 -13 20.3 -13 22 C-13.85722656 21.88140625 -14.71445312 21.7628125 -15.59765625 21.640625 C-23.0070546 20.8052926 -26.88197112 20.74397991 -33 25 C-33.99 24.67 -34.98 24.34 -36 24 C-37.35384615 17.72307692 -37.35384615 17.72307692 -35.5625 14.0625 C-35.046875 13.381875 -34.53125 12.70125 -34 12 C-31.03 12.495 -31.03 12.495 -28 13 C-28 11.68 -28 10.36 -28 9 C-23.545 8.505 -23.545 8.505 -19 8 C-19.020625 7.195625 -19.04125 6.39125 -19.0625 5.5625 C-19 3 -19 3 -18 2 C-15.47633967 1.96834118 -12.96729895 2.06824712 -10.4453125 2.16015625 C-6.3228065 1.89015186 -4.4499896 -0.57051149 0 0 Z " fill="#D5C653" transform="translate(50,3)"/>
<path d="M0 0 C2.94452737 0.96756228 5.52926873 2.11380759 8 4 C9 6.75 9 6.75 9 9 C8.38125 9.061875 7.7625 9.12375 7.125 9.1875 C6.42375 9.455625 5.7225 9.72375 5 10 C4.29788106 11.65204456 3.63028587 13.31923769 3 15 C2.01 15.33 1.02 15.66 0 16 C-0.33 17.65 -0.66 19.3 -1 21 C9.07805704 28.20056116 9.07805704 28.20056116 20 34 C18.41667669 39.90849918 16.94442936 44.04445651 12 48 C10.515 48.495 10.515 48.495 9 49 C2.26978216 45.37153473 -3.74259553 39.18692396 -8.125 33 C-9.3819425 28.69048286 -8.0969045 26.88315647 -6 23 C-5.34 23 -4.68 23 -4 23 C-4.33 22.01 -4.66 21.02 -5 20 C-5.99 19.67 -6.98 19.34 -8 19 C-7.34 15.37 -6.68 11.74 -6 8 C-7.32 8 -8.64 8 -10 8 C-10.1875 5.125 -10.1875 5.125 -10 2 C-6.20991318 -0.52672455 -4.50802658 -0.44341245 0 0 Z " fill="#DDBE50" transform="translate(14,38)"/>
<path d="M0 0 C2.8125 1.25 2.8125 1.25 5 3 C5.8125 5.1875 5.8125 5.1875 6 7 C6.66 7 7.32 7 8 7 C8.495 8.485 8.495 8.485 9 10 C10.62974564 9.23925157 12.25366648 8.46601567 13.875 7.6875 C14.77992187 7.25824219 15.68484375 6.82898438 16.6171875 6.38671875 C19.26449476 5.0800612 19.26449476 5.0800612 21 2 C25.47255334 1.65595744 29.60989926 2.14339498 34 3 C33.68169969 6.50130346 33.40659476 8.51208629 31.125 11.25 C27.87919276 13.92301772 26.00674636 15.26251627 21.8125 15.125 C19.9253125 15.063125 19.9253125 15.063125 18 15 C18 14.34 18 13.68 18 13 C14.57520887 13.01307172 11.33175742 13.17229926 8 14 C5.43319686 16.84730711 5.43319686 16.84730711 4 20 C1.29120665 21.35439668 -1.00933268 21.06501451 -4 21 C-4 20.01 -4 19.02 -4 18 C-4.99 17.67 -5.98 17.34 -7 17 C-5.68 16.67 -4.36 16.34 -3 16 C-5.07143201 11.96615872 -6.96615872 10.07143201 -11 8 C-10.814375 8.7425 -10.62875 9.485 -10.4375 10.25 C-10.00796892 12.94990963 -10.14877026 14.44631077 -11 17 C-16.15464734 16.51675181 -19.81550319 13.81389239 -24 11 C-23.40234375 9.1640625 -23.40234375 9.1640625 -22 7 C-19.06640625 5.5859375 -19.06640625 5.5859375 -15.5625 4.375 C-2.40644362 -0.24064436 -2.40644362 -0.24064436 0 0 Z " fill="#814421" transform="translate(30,23)"/>
<path d="M0 0 C3.41054338 12.24843358 1.64660518 26.39415728 -4.3203125 37.4453125 C-7.75640144 42.98436298 -12.10192434 47.70980008 -17 52 C-17.33 52 -17.66 52 -18 52 C-18 49.36 -18 46.72 -18 44 C-18.99 44 -19.98 44 -21 44 C-19.57458355 39.72375066 -16.73007142 38.8630361 -12.93359375 36.6953125 C-10.70431083 35.12862619 -10.70431083 35.12862619 -10.72265625 32.3046875 C-10.81417969 31.54414062 -10.90570313 30.78359375 -11 30 C-11.61488281 30.44472656 -12.22976562 30.88945313 -12.86328125 31.34765625 C-14.07564453 32.19650391 -14.07564453 32.19650391 -15.3125 33.0625 C-16.11300781 33.63097656 -16.91351563 34.19945312 -17.73828125 34.78515625 C-18.48464844 35.18605469 -19.23101562 35.58695313 -20 36 C-20.99 35.67 -21.98 35.34 -23 35 C-22.875 32.75 -22.875 32.75 -22 30 C-19.125 27.875 -19.125 27.875 -16 26 C-15.4225 25.4225 -14.845 24.845 -14.25 24.25 C-13.8375 23.8375 -13.425 23.425 -13 23 C-12.34 23 -11.68 23 -11 23 C-10.731875 22.2575 -10.46375 21.515 -10.1875 20.75 C-9 18 -9 18 -7.375 16 C-5.66481697 13.51246105 -5.7536644 11.95602718 -6 9 C-5.01 9 -4.02 9 -3 9 C-3 8.01 -3 7.02 -3 6 C-3.99 5.67 -4.98 5.34 -6 5 C-5.625 3.0625 -5.625 3.0625 -5 1 C-3 0 -3 0 0 0 Z " fill="#BDA96C" transform="translate(91,32)"/>
<path d="M0 0 C3.46941546 0.45822468 6.67395049 0.89131683 10 2 C10.02578125 2.72445313 10.0515625 3.44890625 10.078125 4.1953125 C10.57327133 12.63530671 12.74512977 17.19190621 19 23 C18.36191406 23.19335938 17.72382812 23.38671875 17.06640625 23.5859375 C15.82697266 23.97652344 15.82697266 23.97652344 14.5625 24.375 C13.73878906 24.63023438 12.91507813 24.88546875 12.06640625 25.1484375 C9.82201984 25.80882227 9.82201984 25.80882227 9 28 C6.78515625 28.66796875 6.78515625 28.66796875 4.0625 29.1875 C2.71865234 29.45626953 2.71865234 29.45626953 1.34765625 29.73046875 C-1 30 -1 30 -3 29 C-6.95562822 28.74202425 -9.59659693 28.90559811 -13 31 C-12.49396008 28.83125748 -12.00016187 27.00032373 -11 25 C-7.77134928 24.44119507 -4.58115733 24.04054586 -1.3125 23.8125 C1.2716923 23.10658914 1.2716923 23.10658914 3.375 20.4375 C5.34323029 16.27393593 5.33470917 13.30257179 4 9 C2.80620743 6.55008834 1.43984598 4.32233222 0 2 C0 1.34 0 0.68 0 0 Z " fill="#F8CDC1" transform="translate(61,15)"/>
<path d="M0 0 C0 0.99 0 1.98 0 3 C2.31 3 4.62 3 7 3 C8.62298792 7.10520474 9.37979067 9.74564545 8 14 C7.34 14.99 6.68 15.98 6 17 C6.33 13.7 6.66 10.4 7 7 C5.824375 7.2784375 5.824375 7.2784375 4.625 7.5625 C2 8 2 8 0 7 C-3.37357334 6.49929679 -3.37357334 6.49929679 -7 7 C-8.70993434 8.6222454 -10.37347684 10.29413425 -12 12 C-14.62611119 13.25895967 -17.21728788 14.10387237 -20 15 C-20 13.68 -20 12.36 -20 11 C-20.99 11.33 -21.98 11.66 -23 12 C-23 10.35 -23 8.7 -23 7 C-23.66 6.67 -24.32 6.34 -25 6 C-23.68 6 -22.36 6 -21 6 C-21 4.68 -21 3.36 -21 2 C-21.66 1.67 -22.32 1.34 -23 1 C-15.49571621 -1.26544416 -7.64808364 -2.23366929 0 0 Z " fill="#C88557" transform="translate(58,19)"/>
<path d="M0 0 C4.95 2.64 9.9 5.28 15 8 C13.28916542 14.032943 12.05187948 17.95849641 7 22 C6.01 22.33 5.02 22.66 4 23 C2.0625 21.890625 2.0625 21.890625 0 20.25 C-0.680625 19.71890625 -1.36125 19.1878125 -2.0625 18.640625 C-3.81573986 17.15602673 -5.48286991 15.72573548 -7 14 C-7 13.34 -7 12.68 -7 12 C-6.34 12 -5.68 12 -5 12 C-4.731875 10.906875 -4.46375 9.81375 -4.1875 8.6875 C-3.08641352 5.26833673 -2.57525074 4.22408019 0 2 C0 1.34 0 0.68 0 0 Z " fill="#C69E89" transform="translate(19,64)"/>
<path d="M0 0 C5.14553517 0.52505461 10.01275232 1.6875664 15 3 C14.01 3.495 14.01 3.495 13 4 C13 4.66 13 5.32 13 6 C13.99 6.33 14.98 6.66 16 7 C16.99 7.33 17.98 7.66 19 8 C19 9.98 19 11.96 19 14 C18.34 14 17.68 14 17 14 C17 14.66 17 15.32 17 16 C18.65 16.33 20.3 16.66 22 17 C22.33 18.32 22.66 19.64 23 21 C13.1321726 20.7757312 4.62772164 13.72079123 -3 8 C-1.125 1.125 -1.125 1.125 0 0 Z " fill="#E9B198" transform="translate(19,47)"/>
<path d="M0 0 C1.98 0 3.96 0 6 0 C5.67 1.32 5.34 2.64 5 4 C6.32 4 7.64 4 9 4 C9.33 4.66 9.66 5.32 10 6 C11.134375 6.12375 12.26875 6.2475 13.4375 6.375 C17 7 17 7 18.4375 8.875 C19 11 19 11 19 14 C17.02 14.99 17.02 14.99 15 16 C15 16.99 15 17.98 15 19 C15.66 19.33 16.32 19.66 17 20 C17 20.99 17 21.98 17 23 C15.9790625 22.7834375 15.9790625 22.7834375 14.9375 22.5625 C11.63726918 21.93054091 8.32855574 21.45686059 5 21 C5.99 20.34 6.98 19.68 8 19 C7.236875 18.443125 6.47375 17.88625 5.6875 17.3125 C2.84905993 14.87012133 1.42639964 13.4533886 0 10 C-0.23668633 6.65037388 -0.17570656 3.35143987 0 0 Z " fill="#BCB56F" transform="translate(71,18)"/>
<path d="M0 0 C2 1.125 2 1.125 3 3 C2.89346481 7.90061859 1.25997053 10.45238501 -2 14 C-2.45375 14.5775 -2.9075 15.155 -3.375 15.75 C-6.70555665 18.31196666 -10.62282661 18.03513285 -14.6484375 17.66015625 C-15.87820312 17.46292969 -17.10796875 17.26570313 -18.375 17.0625 C-19.62023438 16.86785156 -20.86546875 16.67320313 -22.1484375 16.47265625 C-23.08945312 16.31667969 -24.03046875 16.16070312 -25 16 C-25 14.68 -25 13.36 -25 12 C-25.99 12.33 -26.98 12.66 -28 13 C-28.66 12.34 -29.32 11.68 -30 11 C-30 10.01 -30 9.02 -30 8 C-27.35094963 8.95660152 -25.30030064 9.73076494 -23.1875 11.625 C-19.77728051 13.76856653 -16.98594825 13.25715795 -13 13 C-12.34 12.67 -11.68 12.34 -11 12 C-10.64438275 9.44765849 -10.55620247 6.92131348 -10.44140625 4.34765625 C-10.29574219 3.57292969 -10.15007812 2.79820313 -10 2 C-6.30513897 -0.46324069 -4.36706908 -0.38991688 0 0 Z " fill="#22140E" transform="translate(83,39)"/>
<path d="M0 0 C0.51046875 0.35191406 1.0209375 0.70382813 1.546875 1.06640625 C17.55764607 11.99354294 17.55764607 11.99354294 36 17 C34.02 19.97 34.02 19.97 32 23 C19.20747719 20.25874511 7.86851759 14.58926531 -2 6 C-1.125 1.125 -1.125 1.125 0 0 Z " fill="#912725" transform="translate(14,53)"/>
<path d="M0 0 C3.375 -0.1875 3.375 -0.1875 7 0 C7.66 0.99 8.32 1.98 9 3 C11.11840256 3.75906853 11.11840256 3.75906853 13.5 4.125 C17.86597938 4.93298969 17.86597938 4.93298969 20 6 C19.67 7.65 19.34 9.3 19 11 C16.03 10.34 13.06 9.68 10 9 C10.495 9.78375 10.99 10.5675 11.5 11.375 C13 14 13 14 13 16 C9.25 17.125 9.25 17.125 7 16 C7 15.01 7 14.02 7 13 C0.73 13 -5.54 13 -12 13 C-7.4914611 9.61859583 -7.4914611 9.61859583 -4.125 8.875 C-3.43664063 8.7203125 -2.74828125 8.565625 -2.0390625 8.40625 C0.63191785 7.87410066 3.30669492 7.40399576 6 7 C5.67 6.01 5.34 5.02 5 4 C3.35 4.33 1.7 4.66 0 5 C0 3.35 0 1.7 0 0 Z " fill="#C7B95F" transform="translate(51,6)"/>
<path d="M0 0 C0.33 0.66 0.66 1.32 1 2 C1.99 2 2.98 2 4 2 C4.69628768 7.13512167 4.69628768 7.13512167 4 10 C1.64452301 12.30962829 -1.02143215 13.62996972 -4 15 C-5.36125 15.6496875 -5.36125 15.6496875 -6.75 16.3125 C-9 17 -9 17 -13 17 C-13 15.35 -13 13.7 -13 12 C-14.65 12 -16.3 12 -18 12 C-18 11.67 -18 11.34 -18 11 C-17.05125 10.71125 -16.1025 10.4225 -15.125 10.125 C-11.94788422 9.23174891 -11.94788422 9.23174891 -10 7 C-9.88785156 6.33484375 -9.77570312 5.6696875 -9.66015625 4.984375 C-9 3 -9 3 -6.93359375 1.953125 C-6.10988281 1.72109375 -5.28617188 1.4890625 -4.4375 1.25 C-3.61121094 1.00765625 -2.78492187 0.7653125 -1.93359375 0.515625 C-0.97646484 0.26039062 -0.97646484 0.26039062 0 0 Z " fill="#BF9A8A" transform="translate(69,74)"/>
<path d="M0 0 C3.02210903 1.2398396 4.50602577 2.35316495 6.4375 5 C7.04355429 8.63632575 6.90911336 10.28314769 4.875 13.375 C1.5380787 15.5996142 -0.63155293 15.50030235 -4.5625 15 C-6.5 14 -6.5 14 -7.5625 12 C-7.95545479 8.90548101 -8.19727762 6.95438554 -7.5625 4 C-5.10619493 1.12261406 -3.82303233 0 0 0 Z " fill="#F1E0DC" transform="translate(53.5625,70)"/>
<path d="M0 0 C2.31 0 4.62 0 7 0 C6.48894845 9.70997945 -0.51626646 16.96549752 -7.14453125 23.3828125 C-9 25 -9 25 -10 25 C-10 22.36 -10 19.72 -10 17 C-10.99 17 -11.98 17 -13 17 C-12 14 -12 14 -9.78515625 12.61328125 C-8.88667969 12.18402344 -7.98820312 11.75476563 -7.0625 11.3125 C-6.16660156 10.87550781 -5.27070312 10.43851563 -4.34765625 9.98828125 C-2 9 -2 9 0 9 C0 7.68 0 6.36 0 5 C0.66 5 1.32 5 2 5 C1.34 3.35 0.68 1.7 0 0 Z " fill="#A3AE81" transform="translate(83,59)"/>
<path d="M0 0 C1.32 0.33 2.64 0.66 4 1 C3.01 1.495 3.01 1.495 2 2 C1.64438275 4.55234151 1.55620247 7.07868652 1.44140625 9.65234375 C1.29574219 10.42707031 1.15007812 11.20179687 1 12 C-2.69248562 14.46165708 -5.71511403 14.80846905 -10 14 C-13.52488367 12.03332671 -15.70121477 9.89635569 -17 6 C-17.99 5.34 -18.98 4.68 -20 4 C-19.05125 4.020625 -18.1025 4.04125 -17.125 4.0625 C-14.09333717 4.22551826 -14.09333717 4.22551826 -12 3 C-12 3.99 -12 4.98 -12 6 C-11.0925 5.67 -10.185 5.34 -9.25 5 C-6 4 -6 4 -2 4 C-1.34 2.68 -0.68 1.36 0 0 Z M-15 5 C-14 8 -14 8 -14 8 Z " fill="#CCA293" transform="translate(72,39)"/>
<path d="M0 0 C4.22271781 2.53363068 6.78310162 4.56620325 9 9 C8.01 9.66 7.02 10.32 6 11 C5.505 12.175625 5.01 13.35125 4.5 14.5625 C4.005 15.696875 3.51 16.83125 3 18 C2.01 18.33 1.02 18.66 0 19 C-2.40003091 16.51401757 -4.46967631 14.11323582 -6 11 C-5.62447292 7.77808652 -4.56315313 5.91788584 -3 3 C-2.34 3 -1.68 3 -1 3 C-0.67 2.01 -0.34 1.02 0 0 Z " fill="#E4C4AC" transform="translate(11,58)"/>
<path d="M0 0 C0 0.99 0 1.98 0 3 C-2.31 3 -4.62 3 -7 3 C-7 4.32 -7 5.64 -7 7 C-7.928125 6.835 -8.85625 6.67 -9.8125 6.5 C-12.95621353 5.92251612 -12.95621353 5.92251612 -16 6 C-16.66 7.98 -17.32 9.96 -18 12 C-20.64 12 -23.28 12 -26 12 C-26.226875 12.598125 -26.45375 13.19625 -26.6875 13.8125 C-28 16 -28 16 -30.625 17.375 C-31.40875 17.91125 -32.1925 18.4475 -33 19 C-33.41746608 22.12635209 -33.41746608 22.12635209 -33 25 C-33.99 24.67 -34.98 24.34 -36 24 C-37.35384615 17.72307692 -37.35384615 17.72307692 -35.5625 14.0625 C-35.046875 13.381875 -34.53125 12.70125 -34 12 C-31.03 12.495 -31.03 12.495 -28 13 C-28 11.68 -28 10.36 -28 9 C-23.545 8.505 -23.545 8.505 -19 8 C-19.020625 7.195625 -19.04125 6.39125 -19.0625 5.5625 C-19 3 -19 3 -18 2 C-15.47633967 1.96834118 -12.96729895 2.06824712 -10.4453125 2.16015625 C-6.43976367 1.897812 -4.33139371 -0.23412939 0 0 Z " fill="#C8C062" transform="translate(50,3)"/>
<path d="M0 0 C0.5 2.625 0.5 2.625 0 6 C-4.63438969 11.1662049 -11.47032145 14.02833863 -18 16 C-18.99 16 -19.98 16 -21 16 C-21.99 14.02 -22.98 12.04 -24 10 C-23.09378906 9.78085938 -22.18757813 9.56171875 -21.25390625 9.3359375 C-14.27460722 7.5191041 -8.42989819 5.54469292 -2.57421875 1.171875 C-1 0 -1 0 0 0 Z " fill="#83201E" transform="translate(81,61)"/>
<path d="M0 0 C3.28184981 0.27812286 6.45611451 0.68198576 9.6875 1.3125 C9.3828434 4.66372256 9.01481171 6.84671025 7.0625 9.625 C3.98770593 11.8097221 1.40270613 12.02671491 -2.3125 12.3125 C-2.3125 11.6525 -2.3125 10.9925 -2.3125 10.3125 C-2.9725 10.3125 -3.6325 10.3125 -4.3125 10.3125 C-4.3125 8.9925 -4.3125 7.6725 -4.3125 6.3125 C-4.9725 5.6525 -5.6325 4.9925 -6.3125 4.3125 C-4.53739872 0.97113288 -3.86251984 0.36438866 0 0 Z " fill="#6F3C29" transform="translate(54.3125,24.6875)"/>
<path d="M0 0 C2.64 0 5.28 0 8 0 C7.67 1.65 7.34 3.3 7 5 C6.34 5 5.68 5 5 5 C5.33 6.32 5.66 7.64 6 9 C4.75443908 9.81928886 3.50333365 10.63015186 2.25 11.4375 C1.55390625 11.88996094 0.8578125 12.34242187 0.140625 12.80859375 C-1.92957014 13.9608009 -3.68696324 14.54676982 -6 15 C-6.8125 12.8125 -6.8125 12.8125 -7 10 C-4.6875 7.5 -4.6875 7.5 -2 5 C-0.680982 2.33466965 -0.680982 2.33466965 0 0 Z " fill="#B06D45" transform="translate(44,19)"/>
<path d="M0 0 C0.66 0.33 1.32 0.66 2 1 C1 3 1 3 -1 5 C-3.75372909 5.36933645 -6.20365661 5.18336678 -9 5 C-9 6.32 -9 7.64 -9 9 C-8.30132812 8.91621094 -7.60265625 8.83242188 -6.8828125 8.74609375 C-5.97273438 8.64425781 -5.06265625 8.54242188 -4.125 8.4375 C-3.22007813 8.33308594 -2.31515625 8.22867187 -1.3828125 8.12109375 C1 8 1 8 3 9 C3 10.32 3 11.64 3 13 C2.11957031 12.89300781 1.23914063 12.78601562 0.33203125 12.67578125 C-0.82941406 12.55589844 -1.99085937 12.43601562 -3.1875 12.3125 C-4.33605469 12.18488281 -5.48460937 12.05726562 -6.66796875 11.92578125 C-10.41569346 12.00925929 -11.96840949 12.90534865 -15 15 C-15.66 15 -16.32 15 -17 15 C-17.6875 12.6875 -17.6875 12.6875 -18 10 C-16.153661 7.37625511 -13.81077854 6.40538927 -11 5 C-10.67 4.34 -10.34 3.68 -10 3 C-7.03 3 -4.06 3 -1 3 C-0.67 2.01 -0.34 1.02 0 0 Z " fill="#E0C650" transform="translate(34,12)"/>
<path d="M0 0 C0.33 0.99 0.66 1.98 1 3 C-0.32 3 -1.64 3 -3 3 C-2.814375 3.7425 -2.62875 4.485 -2.4375 5.25 C-2.00796892 7.94990963 -2.14877026 9.44631077 -3 12 C-8.15464734 11.51675181 -11.81550319 8.81389239 -16 6 C-15.3046875 4.078125 -15.3046875 4.078125 -14 2 C-11.7578125 1.171875 -11.7578125 1.171875 -9.125 0.75 C-8.26132813 0.60046875 -7.39765625 0.4509375 -6.5078125 0.296875 C-4 0 -4 0 0 0 Z " fill="#6C381A" transform="translate(22,28)"/>
<path d="M0 0 C0 0.66 0 1.32 0 2 C-2.05927956 2.98592155 -4.12256688 3.96347494 -6.1875 4.9375 C-7.33605469 5.48277344 -8.48460938 6.02804688 -9.66796875 6.58984375 C-14.93885237 8.82054596 -19.29672621 9.1118289 -25 9 C-25 7.68 -25 6.36 -25 5 C-23.1128125 4.87625 -23.1128125 4.87625 -21.1875 4.75 C-17.70956936 4.39197936 -17.70956936 4.39197936 -15.25 1.9375 C-14.8375 1.298125 -14.425 0.65875 -14 0 C-12.68 0 -11.36 0 -10 0 C-10 0.66 -10 1.32 -10 2 C-9.278125 1.484375 -8.55625 0.96875 -7.8125 0.4375 C-4.5804634 -1.21442982 -3.38391693 -1.06351675 0 0 Z " fill="#EBCD43" transform="translate(50,12)"/>
<path d="M0 0 C0.99 1.32 1.98 2.64 3 4 C-2.94 4.495 -2.94 4.495 -9 5 C-8.95875 6.27875 -8.9175 7.5575 -8.875 8.875 C-8.8046875 11.0546875 -8.8046875 11.0546875 -9 13 C-11.85793316 15.85793316 -14.14665584 15.40799941 -18.125 15.625 C-19.40632813 15.69976562 -20.68765625 15.77453125 -22.0078125 15.8515625 C-22.99523438 15.90054688 -23.98265625 15.94953125 -25 16 C-25 14.68 -25 13.36 -25 12 C-25.99 12.33 -26.98 12.66 -28 13 C-28.66 12.34 -29.32 11.68 -30 11 C-30 10.01 -30 9.02 -30 8 C-27.35094963 8.95660152 -25.30030064 9.73076494 -23.1875 11.625 C-19.77728051 13.76856653 -16.98594825 13.25715795 -13 13 C-12.34 12.67 -11.68 12.34 -11 12 C-10.64438275 9.44765849 -10.55620247 6.92131348 -10.44140625 4.34765625 C-10.29574219 3.57292969 -10.15007812 2.79820313 -10 2 C-6.29584707 -0.46943529 -4.37855495 -0.46913089 0 0 Z " fill="#774F43" transform="translate(83,39)"/>
<path d="M0 0 C3.6693749 1.50110791 4.73674093 2.41365026 6.375 6.0625 C7 9 7 9 6 11 C4.02111039 11.72693904 2.02045442 12.39816251 0 13 C-2 10 -2 10 -2 7 C-2.99 6.67 -3.98 6.34 -5 6 C-4.01 5.67 -3.02 5.34 -2 5 C-2 4.34 -2 3.68 -2 3 C-5.19902639 2.91113816 -7.92677456 3.08941469 -11 4 C-7.2916337 0.5097729 -5.11538773 -0.74599404 0 0 Z " fill="#9D6039" transform="translate(30,23)"/>
<path d="M0 0 C4.82596069 3.15422267 9.57557408 6.28919117 14 10 C13.01 10.495 13.01 10.495 12 11 C11.34 12.32 10.68 13.64 10 15 C6.04 12.03 2.08 9.06 -2 6 C-1 1 -1 1 0 0 Z " fill="#99302D" transform="translate(14,53)"/>
<path d="M0 0 C3.32310483 1.16757737 5.83361132 2.14948857 8 5 C8 5.99 8 6.98 8 8 C7.01 8.33 6.02 8.66 5 9 C5.66 9.33 6.32 9.66 7 10 C7 10.99 7 11.98 7 13 C8.918125 12.5978125 8.918125 12.5978125 10.875 12.1875 C11.59429687 12.03667969 12.31359375 11.88585938 13.0546875 11.73046875 C15.37046549 11.07691162 15.37046549 11.07691162 17 8 C16.6875 10.375 16.6875 10.375 16 13 C12.91111478 15.05925681 12.29064073 15.2390374 8.8125 15.125 C6.9253125 15.063125 6.9253125 15.063125 5 15 C4.67 14.01 4.34 13.02 4 12 C1.49552484 10.78130071 1.49552484 10.78130071 -1 10 C-0.34 7.69 0.32 5.38 1 3 C0.34 2.67 -0.32 2.34 -1 2 C-0.67 1.34 -0.34 0.68 0 0 Z " fill="#955B37" transform="translate(19,31)"/>
<path d="M0 0 C0.66 0.66 1.32 1.32 2 2 C0.02 2 -1.96 2 -4 2 C-4.33 3.98 -4.66 5.96 -5 8 C-4.01 8 -3.02 8 -2 8 C-2.66 11.3 -3.32 14.6 -4 18 C-3.34 18 -2.68 18 -2 18 C-2.33 18.99 -2.66 19.98 -3 21 C-5.475 20.01 -5.475 20.01 -8 19 C-7.34 15.37 -6.68 11.74 -6 8 C-7.32 8 -8.64 8 -10 8 C-10.1875 5.125 -10.1875 5.125 -10 2 C-6.32653229 -0.44897847 -4.33643601 -0.31537716 0 0 Z " fill="#D5C65D" transform="translate(14,38)"/>
<path d="M0 0 C0.2475 0.639375 0.495 1.27875 0.75 1.9375 C1.81562433 4.18741541 1.81562433 4.18741541 4.125 4.75 C4.74375 4.8325 5.3625 4.915 6 5 C6 5.66 6 6.32 6 7 C4.37681021 7.36237263 2.7513642 7.71465157 1.125 8.0625 C0.22007813 8.25972656 -0.68484375 8.45695312 -1.6171875 8.66015625 C-4 9 -4 9 -6 8 C-9.95562822 7.74202425 -12.59659693 7.90559811 -16 10 C-15.49396008 7.83125748 -15.00016187 6.00032373 -14 4 C-11.67750658 3.59802999 -9.34114367 3.27313343 -7 3 C-3.03313109 2.45979308 -3.03313109 2.45979308 0 0 Z " fill="#D7A792" transform="translate(64,36)"/>
<path d="M0 0 C1.69576172 -0.03867188 1.69576172 -0.03867188 3.42578125 -0.078125 C7.00112649 0.28155045 8.84597396 1.09023204 11.6875 3.25 C12.5 5.4375 12.5 5.4375 12.6875 7.25 C8.9375 8.375 8.9375 8.375 6.6875 7.25 C6.6875 6.26 6.6875 5.27 6.6875 4.25 C0.4175 4.25 -5.8525 4.25 -12.3125 4.25 C-7.47901545 0.62488659 -5.8979115 0.08015282 0 0 Z " fill="#D99761" transform="translate(51.3125,14.75)"/>
<path d="M0 0 C1.32 0 2.64 0 4 0 C5.8125 2.0625 5.8125 2.0625 7 5 C6.6875 8.8125 6.6875 8.8125 6 12 C2.17902761 11.46930939 -0.06171403 10.50298434 -3 8 C-1.125 1.125 -1.125 1.125 0 0 Z " fill="#F0C0AD" transform="translate(19,47)"/>
<path d="M0 0 C1.2039337 3.75399798 1.09877617 7.33217412 1.0625 11.25 C1.05347656 12.51328125 1.04445313 13.7765625 1.03515625 15.078125 C1.02355469 16.04234375 1.01195313 17.0065625 1 18 C-0.32 18 -1.64 18 -3 18 C-3 14.04 -3 10.08 -3 6 C-3.99 5.67 -4.98 5.34 -6 5 C-5.625 3.0625 -5.625 3.0625 -5 1 C-3 0 -3 0 0 0 Z " fill="#A4B47F" transform="translate(91,32)"/>
<path d="M0 0 C4.91853586 3.86962619 8.63754267 7.70158238 12 13 C12 13.66 12 14.32 12 15 C10.02 15 8.04 15 6 15 C5.67 14.01 5.34 13.02 5 12 C4.34 12 3.68 12 3 12 C3 10.68 3 9.36 3 8 C3.66 8 4.32 8 5 8 C5 7.34 5 6.68 5 6 C2.69 6 0.38 6 -2 6 C-2 4.68 -2 3.36 -2 2 C-1.34 2 -0.68 2 0 2 C0 1.34 0 0.68 0 0 Z " fill="#A9B080" transform="translate(75,10)"/>
<path d="M0 0 C0.5625 1.9375 0.5625 1.9375 1 4 C0 5 0 5 -2.5625 5.0625 C-3.7690625 5.0315625 -3.7690625 5.0315625 -5 5 C-5.18175781 5.67546875 -5.36351562 6.3509375 -5.55078125 7.046875 C-5.80214844 7.93890625 -6.05351562 8.8309375 -6.3125 9.75 C-6.67794922 11.07257812 -6.67794922 11.07257812 -7.05078125 12.421875 C-8.05966849 15.16206256 -8.90950999 16.95256356 -11 19 C-13.6875 19.25 -13.6875 19.25 -16 19 C-13.49400607 12.96798447 -7.64260263 0 0 0 Z " fill="#A8B482" transform="translate(19,9)"/>
<path d="M0 0 C-0.66 1.32 -1.32 2.64 -2 4 C-1.34 4 -0.68 4 0 4 C0 4.66 0 5.32 0 6 C1.32 6.33 2.64 6.66 4 7 C1.36 7 -1.28 7 -4 7 C-4 6.34 -4 5.68 -4 5 C-5.6254308 5.14095064 -7.25034051 5.28792087 -8.875 5.4375 C-9.77992187 5.51871094 -10.68484375 5.59992187 -11.6171875 5.68359375 C-14.01110861 5.86989285 -14.01110861 5.86989285 -16 7 C-15.76171875 5.14453125 -15.76171875 5.14453125 -15 3 C-10.28524998 -0.30528791 -5.60210739 -1.72372535 0 0 Z " fill="#975D3B" transform="translate(52,31)"/>
<path d="M0 0 C0.92017937 8.77578475 0.92017937 8.77578475 -1.3359375 11.77734375 C-3 13.125 -3 13.125 -6 15 C-6 12.36 -6 9.72 -6 7 C-6.99 7 -7.98 7 -9 7 C-7.82140876 3.46422629 -4.16243124 0 0 0 Z " fill="#D6ACA3" transform="translate(79,69)"/>
<path d="M0 0 C3 2 3 2 4 5 C4.99 5 5.98 5 7 5 C6.75 6.875 6.75 6.875 6 9 C2.72649537 11.2175354 0.23416025 11.14527787 -3.625 10.75 C-5.06746094 10.61851563 -5.06746094 10.61851563 -6.5390625 10.484375 C-9 10 -9 10 -11 8 C-6.545 7.505 -6.545 7.505 -2 7 C-1.34 4.69 -0.68 2.38 0 0 Z " fill="#43241B" transform="translate(74,46)"/>
<path d="M0 0 C0.99 0 1.98 0 3 0 C3 2.97 3 5.94 3 9 C4.32 9 5.64 9 7 9 C6.67 11.97 6.34 14.94 6 18 C3.69 18 1.38 18 -1 18 C-0.505 17.649375 -0.01 17.29875 0.5 16.9375 C2.73063966 14.05625711 2.19980621 11.52990974 2 8 C0.68 8.33 -0.64 8.66 -2 9 C-1.67 8.443125 -1.34 7.88625 -1 7.3125 C0.1309601 4.69715478 0.15662974 2.8193354 0 0 Z " fill="#B6BC77" transform="translate(85,41)"/>
<path d="M0 0 C-0.37169504 2.63002402 -0.7078685 3.74520369 -2.7421875 5.51953125 C-3.44601563 5.94621094 -4.14984375 6.37289062 -4.875 6.8125 C-5.92300781 7.47185547 -5.92300781 7.47185547 -6.9921875 8.14453125 C-9 9 -9 9 -12 8 C-11.8125 5.6875 -11.8125 5.6875 -11 3 C-7.38920743 0.00820044 -4.60388896 -0.32120156 0 0 Z " fill="#E8B7A9" transform="translate(80,59)"/>
<path d="M0 0 C5.445 1.485 5.445 1.485 11 3 C10.01 3.495 10.01 3.495 9 4 C9 4.66 9 5.32 9 6 C9.99 6.33 10.98 6.66 12 7 C12.99 7.33 13.98 7.66 15 8 C14.67 8.66 14.34 9.32 14 10 C11.35139573 10.59355614 8.70802678 10.74209269 6 11 C5.67 8.69 5.34 6.38 5 4 C4.360625 3.896875 3.72125 3.79375 3.0625 3.6875 C2.381875 3.460625 1.70125 3.23375 1 3 C0.67 2.01 0.34 1.02 0 0 Z " fill="#DB9D78" transform="translate(23,47)"/>
<path d="M0 0 C1.875 -0.36328125 1.875 -0.36328125 4 -0.3125 C4.70125 -0.30863281 5.4025 -0.30476563 6.125 -0.30078125 C8 0 8 0 10 2 C9.01 2.495 9.01 2.495 8 3 C7.34786708 5.02463255 7.34786708 5.02463255 7 7 C4.36 6.67 1.72 6.34 -1 6 C-1.33 5.01 -1.66 4.02 -2 3 C-1.34 2.01 -0.68 1.02 0 0 Z " fill="#E0CB4A" transform="translate(10,40)"/>
<path d="M0 0 C4.43090471 1.20842856 6.98112756 2.51668565 10 6 C1.57142857 8.28571429 1.57142857 8.28571429 -3 8 C-2.5359375 7.13375 -2.5359375 7.13375 -2.0625 6.25 C-1.07416636 4.15705816 -0.4831387 2.25464725 0 0 Z " fill="#F8D4CC" transform="translate(70,32)"/>
<path d="M0 0 C1.32 0 2.64 0 4 0 C4 0.99 4 1.98 4 3 C6.31 3 8.62 3 11 3 C12.62298792 7.10520474 13.37979067 9.74564545 12 14 C11.01 15.485 11.01 15.485 10 17 C10.33 13.7 10.66 10.4 11 7 C9.35 7.33 7.7 7.66 6 8 C5.67 7.01 5.34 6.02 5 5 C2.98491642 4.26676204 2.98491642 4.26676204 1 4 C0.67 2.68 0.34 1.36 0 0 Z " fill="#C78762" transform="translate(54,19)"/>
<path d="M0 0 C0.33 0.66 0.66 1.32 1 2 C1.763125 1.79375 2.52625 1.5875 3.3125 1.375 C6 1 6 1 9 3 C6.03 3.66 3.06 4.32 0 5 C0 6.98 0 8.96 0 11 C-1.32 11 -2.64 11 -4 11 C-4 8.03 -4 5.06 -4 2 C-2.68 2 -1.36 2 0 2 C0 1.34 0 0.68 0 0 Z " fill="#BDB66E" transform="translate(4,35)"/>
<path d="M0 0 C0.66 0.33 1.32 0.66 2 1 C1.34 3.31 0.68 5.62 0 8 C-2.64 8 -5.28 8 -8 8 C-8.33 7.01 -8.66 6.02 -9 5 C-7.54735962 4.1361871 -6.0876837 3.28419546 -4.625 2.4375 C-3.40683594 1.72400391 -3.40683594 1.72400391 -2.1640625 0.99609375 C-1.44992188 0.66738281 -0.73578125 0.33867188 0 0 Z " fill="#A0AE82" transform="translate(29,2)"/>
<path d="M0 0 C0.33 0 0.66 0 1 0 C1.08096803 1.45742463 1.13917774 2.91612807 1.1875 4.375 C1.22230469 5.18710937 1.25710937 5.99921875 1.29296875 6.8359375 C1.19628906 7.55007812 1.09960938 8.26421875 1 9 C-2.08888522 11.05925681 -2.70935927 11.2390374 -6.1875 11.125 C-8.0746875 11.063125 -8.0746875 11.063125 -10 11 C-9.34 10.67 -8.68 10.34 -8 10 C-8 9.34 -8 8.68 -8 8 C-7.360625 7.71125 -6.72125 7.4225 -6.0625 7.125 C-3.84793921 6.17176549 -3.84793921 6.17176549 -3 4 C-2.34 4 -1.68 4 -1 4 C-0.67 2.68 -0.34 1.36 0 0 Z " fill="#9B7167" transform="translate(72,42)"/>
<path d="M0 0 C0.763125 0.598125 1.52625 1.19625 2.3125 1.8125 C2.3125 3.1325 2.3125 4.4525 2.3125 5.8125 C1.6525 5.8125 0.9925 5.8125 0.3125 5.8125 C0.3125 6.4725 0.3125 7.1325 0.3125 7.8125 C-2.6575 7.3175 -2.6575 7.3175 -5.6875 6.8125 C-5.6875 4.5025 -5.6875 2.1925 -5.6875 -0.1875 C-2.6875 -1.1875 -2.6875 -1.1875 0 0 Z " fill="#A07E69" transform="translate(65.6875,77.1875)"/>
<path d="M0 0 C4.44870215 -0.39253254 7.14243493 0.84694043 11 3 C11 3.66 11 4.32 11 5 C11.66 5 12.32 5 13 5 C13 5.99 13 6.98 13 8 C8.00786149 7.53198701 3.87036007 5.08284263 0 2 C0 1.34 0 0.68 0 0 Z " fill="#633B18" transform="translate(6,32)"/>
<path d="M0 0 C4.75 0.875 4.75 0.875 7 2 C6.67 3.65 6.34 5.3 6 7 C5.38511719 6.9278125 4.77023438 6.855625 4.13671875 6.78125 C3.32847656 6.6884375 2.52023438 6.595625 1.6875 6.5 C0.48673828 6.36078125 0.48673828 6.36078125 -0.73828125 6.21875 C-3.11896555 5.95186537 -3.11896555 5.95186537 -6 6 C-6 5.34 -6 4.68 -6 4 C-4.7934375 3.566875 -4.7934375 3.566875 -3.5625 3.125 C-0.8673532 2.26737432 -0.8673532 2.26737432 0 0 Z " fill="#CEC562" transform="translate(64,10)"/>
<path d="M0 0 C6.875 0.875 6.875 0.875 8 2 C7.82364548 4.69082872 7.38164079 7.32851446 7 10 C2.57320993 8.52440331 2.08567304 6.09942632 0 2 C0 1.34 0 0.68 0 0 Z " fill="#FCD7C4" transform="translate(61,15)"/>
<path d="M0 0 C0.33 0.99 0.66 1.98 1 3 C2.32 3 3.64 3 5 3 C5 4.32 5 5.64 5 7 C4.05125 7.12375 3.1025 7.2475 2.125 7.375 C-1.08667191 7.71687177 -1.08667191 7.71687177 -3 10 C-3 8.35 -3 6.7 -3 5 C-4.65 5 -6.3 5 -8 5 C-8 4.67 -8 4.34 -8 4 C-6.576875 3.566875 -6.576875 3.566875 -5.125 3.125 C-1.94788422 2.23174891 -1.94788422 2.23174891 0 0 Z " fill="#AE8976" transform="translate(59,81)"/>
<path d="M0 0 C3.875 1.75 3.875 1.75 5 4 C5.039992 5.99960012 5.04346799 8.00047242 5 10 C3.68 10 2.36 10 1 10 C-1.29404844 6.55892734 -1.26293056 5.03160191 -1 1 C-0.67 0.67 -0.34 0.34 0 0 Z " fill="#6A422C" transform="translate(73,23)"/>
<path d="M0 0 C0.66 0 1.32 0 2 0 C2 3.63 2 7.26 2 11 C1.67 10.34 1.34 9.68 1 9 C0.34 9 -0.32 9 -1 9 C-0.67 11.64 -0.34 14.28 0 17 C-1.98 17.99 -1.98 17.99 -4 19 C-3.73958333 17.01432292 -3.47916667 15.02864583 -3.21875 13.04296875 C-2.946767 10.84528294 -2.946767 10.84528294 -3 8 C-2.34 8 -1.68 8 -1 8 C-0.67 5.36 -0.34 2.72 0 0 Z " fill="#EBBBA9" transform="translate(69,17)"/>
<path d="M0 0 C0.66 0 1.32 0 2 0 C2.33 1.98 2.66 3.96 3 6 C-0.3 7.32 -3.6 8.64 -7 10 C-7.33 8.35 -7.66 6.7 -8 5 C-7.01 4.34 -6.02 3.68 -5 3 C-4.67 3.66 -4.34 4.32 -4 5 C-2.29159719 3.36587557 -1.06546953 2.13093906 0 0 Z " fill="#A56640" transform="translate(45,24)"/>
<path d="M0 0 C0.33 2.31 0.66 4.62 1 7 C-1.49064888 7.68707555 -3.37886292 8 -6 8 C-6 6.02 -6 4.04 -6 2 C-2.25 0 -2.25 0 0 0 Z " fill="#CCC167" transform="translate(87,49)"/>
<path d="M0 0 C1.32 0 2.64 0 4 0 C3.34 3.3 2.68 6.6 2 10 C2.66 10 3.32 10 4 10 C3.67 10.99 3.34 11.98 3 13 C0.525 12.01 0.525 12.01 -2 11 C-1.34 7.37 -0.68 3.74 0 0 Z " fill="#C6BD60" transform="translate(8,46)"/>
<path d="M0 0 C0.99 0 1.98 0 3 0 C3 0.66 3 1.32 3 2 C3.66 2 4.32 2 5 2 C4.67 3.98 4.34 5.96 4 8 C1.03 7.505 1.03 7.505 -2 7 C-2.28875 7.78375 -2.5775 8.5675 -2.875 9.375 C-4 12 -4 12 -6 14 C-6.33 13.34 -6.66 12.68 -7 12 C-5.875 8.9375 -5.875 8.9375 -4 6 C-1.3125 5.125 -1.3125 5.125 1 5 C0.67 3.35 0.34 1.7 0 0 Z " fill="#B5BC76" transform="translate(18,8)"/>
<path d="M0 0 C1.32 0 2.64 0 4 0 C4.19622241 4.21878192 3.80230168 7.17010894 2 11 C2.66 11.33 3.32 11.66 4 12 C2.35 12 0.7 12 -1 12 C-0.67 8.04 -0.34 4.08 0 0 Z " fill="#B0B673" transform="translate(4,46)"/>
<path d="M0 0 C1.65 0 3.3 0 5 0 C5.6875 2.8125 5.6875 2.8125 6 6 C4.5625 7.875 4.5625 7.875 3 9 C2.01 8.34 1.02 7.68 0 7 C-0.1875 3.375 -0.1875 3.375 0 0 Z " fill="#CFC463" transform="translate(78,27)"/>
<path d="M0 0 C3.36704285 -0.2295711 5.41370268 -0.33943529 8.375 1.375 C8.91125 1.91125 9.4475 2.4475 10 3 C10 3.66 10 4.32 10 5 C8.741875 5.04125 7.48375 5.0825 6.1875 5.125 C5.47980469 5.14820313 4.77210937 5.17140625 4.04296875 5.1953125 C2 5 2 5 -1 3 C-0.67 2.01 -0.34 1.02 0 0 Z " fill="#240D0B" transform="translate(52,26)"/>
<path d="M0 0 C1.98 0 3.96 0 6 0 C5.67 1.32 5.34 2.64 5 4 C5.66 4 6.32 4 7 4 C7.33 5.32 7.66 6.64 8 8 C6.02 7.34 4.04 6.68 2 6 C1.34 7.32 0.68 8.64 0 10 C0 6.7 0 3.4 0 0 Z " fill="#C7AD74" transform="translate(71,18)"/>
<path d="M0 0 C2.97 0.495 2.97 0.495 6 1 C6.33 2.32 6.66 3.64 7 5 C5.35 6.32 3.7 7.64 2 9 C0.50178941 5.62902617 0 3.79557881 0 0 Z " fill="#D2838D" transform="translate(50,74)"/>
<path d="M0 0 C0.2475 0.639375 0.495 1.27875 0.75 1.9375 C1.81562433 4.18741541 1.81562433 4.18741541 4.125 4.75 C4.74375 4.8325 5.3625 4.915 6 5 C6 5.66 6 6.32 6 7 C2.7 7.66 -0.6 8.32 -4 9 C-4 4 -4 4 -2 1.6875 C-1.34 1.130625 -0.68 0.57375 0 0 Z " fill="#E6B8A7" transform="translate(64,36)"/>
<path d="M0 0 C0.33 0.66 0.66 1.32 1 2 C0.67 2.66 0.34 3.32 0 4 C0.99 4 1.98 4 3 4 C3 4.66 3 5.32 3 6 C2.34 6 1.68 6 1 6 C0.67 7.65 0.34 9.3 0 11 C-1.32 11.33 -2.64 11.66 -4 12 C-3.67 11.01 -3.34 10.02 -3 9 C-2.34 9 -1.68 9 -1 9 C-1 7.68 -1 6.36 -1 5 C-2.32 4.67 -3.64 4.34 -5 4 C-5 3.34 -5 2.68 -5 2 C-3.35 1.34 -1.7 0.68 0 0 Z " fill="#B6907B" transform="translate(69,74)"/>
<path d="M0 0 C0.99 0.33 1.98 0.66 3 1 C3 1.66 3 2.32 3 3 C4.98 3 6.96 3 9 3 C9.33 4.32 9.66 5.64 10 7 C5.02693484 6.50269348 1.36200187 5.44697666 -3 3 C-2.01 2.67 -1.02 2.34 0 2 C0 1.34 0 0.68 0 0 Z " fill="#DBA691" transform="translate(32,61)"/>
<path d="M0 0 C1.67542976 0.28604898 3.34385343 0.61781233 5 1 C5 1.66 5 2.32 5 3 C4.0409375 3.4021875 4.0409375 3.4021875 3.0625 3.8125 C0.66868314 4.88667752 0.66868314 4.88667752 0 8 C-0.66 7.34 -1.32 6.68 -2 6 C-1.67 5.01 -1.34 4.02 -1 3 C-2.0725 3.350625 -3.145 3.70125 -4.25 4.0625 C-7.78720743 4.94680186 -8.74811124 5.02880551 -12 4 C-11.21753906 3.79503906 -10.43507813 3.59007812 -9.62890625 3.37890625 C-8.61699219 3.10949219 -7.60507813 2.84007812 -6.5625 2.5625 C-5.55316406 2.29566406 -4.54382813 2.02882813 -3.50390625 1.75390625 C-1.08247999 1.24021923 -1.08247999 1.24021923 0 0 Z " fill="#834E26" transform="translate(23,25)"/>
<path d="M0 0 C0.66 0 1.32 0 2 0 C2.33 0.66 2.66 1.32 3 2 C4.134375 2.12375 5.26875 2.2475 6.4375 2.375 C10 3 10 3 11.4375 4.875 C12 7 12 7 12 10 C10.68 10.33 9.36 10.66 8 11 C8 8.69 8 6.38 8 4 C3.545 4.495 3.545 4.495 -1 5 C-0.67 3.35 -0.34 1.7 0 0 Z " fill="#B3B877" transform="translate(78,22)"/>
<path d="M0 0 C0 1.32 0 2.64 0 4 C-4.34464536 3.39174965 -8.67551867 2.73832608 -13 2 C-12.67 1.34 -12.34 0.68 -12 0 C-7.70057734 -0.90949326 -4.25063401 -1.15926382 0 0 Z " fill="#DEA065" transform="translate(37,21)"/>
<path d="M0 0 C3.33727786 1.17255709 5.77437487 2.18868404 8 5 C8 5.66 8 6.32 8 7 C5.69 7.33 3.38 7.66 1 8 C0.67 7.01 0.34 6.02 0 5 C0.33 4.34 0.66 3.68 1 3 C0.34 2.67 -0.32 2.34 -1 2 C-0.67 1.34 -0.34 0.68 0 0 Z " fill="#A66C55" transform="translate(19,31)"/>
<path d="M0 0 C3.3125 -0.25 3.3125 -0.25 7 0 C7.99 1.32 8.98 2.64 10 4 C4.06 4.495 4.06 4.495 -2 5 C-1.34 3.35 -0.68 1.7 0 0 Z " fill="#45352E" transform="translate(76,39)"/>
<path d="M0 0 C1.32 0.33 2.64 0.66 4 1 C3.38722388 3.96175123 2.74627478 5.38058783 1 8 C-1.625 8.1875 -1.625 8.1875 -4 8 C-2.68 5.36 -1.36 2.72 0 0 Z " fill="#94A88B" transform="translate(7,20)"/>
<path d="M0 0 C1.32 0 2.64 0 4 0 C4 2.64 4 5.28 4 8 C2.02 8.99 2.02 8.99 0 10 C0 6.7 0 3.4 0 0 Z " fill="#97A68A" transform="translate(0,46)"/>
<path d="M0 0 C1.65 0 3.3 0 5 0 C5.33 1.65 5.66 3.3 6 5 C5.38125 5.061875 4.7625 5.12375 4.125 5.1875 C1.72238859 5.828919 1.72238859 5.828919 0.75 8.5625 C0.5025 9.366875 0.255 10.17125 0 11 C-1.37432457 7.18243176 -0.67975039 3.92744671 0 0 Z " fill="#EEC669" transform="translate(17,42)"/>
<path d="M0 0 C-0.15234375 1.859375 -0.15234375 1.859375 -1 4 C-3.50390625 5.265625 -3.50390625 5.265625 -6.5625 6.25 C-7.57441406 6.58515625 -8.58632813 6.9203125 -9.62890625 7.265625 C-10.41136719 7.50796875 -11.19382813 7.7503125 -12 8 C-11.77734375 6.140625 -11.77734375 6.140625 -11 4 C-9.00390625 2.734375 -9.00390625 2.734375 -6.5625 1.75 C-5.75941406 1.41484375 -4.95632812 1.0796875 -4.12890625 0.734375 C-2 0 -2 0 0 0 Z " fill="#8E512D" transform="translate(48,30)"/>
<path d="M0 0 C3.7758544 0.52442422 6.22372155 1.32654667 9 4 C9 4.99 9 5.98 9 7 C8.01 7.33 7.02 7.66 6 8 C6 7.01 6 6.02 6 5 C5.21625 4.87625 4.4325 4.7525 3.625 4.625 C1 4 1 4 -1 2 C-0.67 1.34 -0.34 0.68 0 0 Z " fill="#B2BA7F" transform="translate(66,5)"/>
<path d="M0 0 C1.258125 -0.020625 2.51625 -0.04125 3.8125 -0.0625 C4.52019531 -0.07410156 5.22789063 -0.08570312 5.95703125 -0.09765625 C8.82436414 0.03940555 11.28610064 1.09536688 14 2 C9.126739 3.5912689 5.19209404 4.21192221 0 4 C0 2.68 0 1.36 0 0 Z " fill="#EEC74C" transform="translate(25,17)"/>
<path d="M0 0 C0.66 0.33 1.32 0.66 2 1 C2 1.99 2 2.98 2 4 C-0.97 3.67 -3.94 3.34 -7 3 C-7 2.01 -7 1.02 -7 0 C-4.30919898 -1.34540051 -2.86443593 -0.71610898 0 0 Z " fill="#F7E8DF" transform="translate(56,71)"/>
<path d="M0 0 C4.29 0.66 8.58 1.32 13 2 C12.67 2.66 12.34 3.32 12 4 C8.7 4 5.4 4 2 4 C1.34 2.68 0.68 1.36 0 0 Z " fill="#886051" transform="translate(63,55)"/>
<path d="M0 0 C0.33 0 0.66 0 1 0 C0.67 3.63 0.34 7.26 0 11 C-1.65 11.66 -3.3 12.32 -5 13 C-5 12.34 -5 11.68 -5 11 C-5.66 10.67 -6.32 10.34 -7 10 C-6.21625 9.835 -5.4325 9.67 -4.625 9.5 C-1.8906529 8.29603101 -1.8906529 8.29603101 -1.22265625 6.0859375 C-0.73586948 4.07483301 -0.36146745 2.037362 0 0 Z " fill="#9E6344" transform="translate(64,26)"/>
<path d="M0 0 C3 2 3 2 4 5 C4.99 5 5.98 5 7 5 C6.67 6.32 6.34 7.64 6 9 C5.34 9 4.68 9 4 9 C4 8.34 4 7.68 4 7 C2.02 7.33 0.04 7.66 -2 8 C-1.34 5.36 -0.68 2.72 0 0 Z " fill="#4A3129" transform="translate(74,46)"/>
<path d="M0 0 C0.556875 0.226875 1.11375 0.45375 1.6875 0.6875 C1.0275 0.6875 0.3675 0.6875 -0.3125 0.6875 C-0.6425 1.6775 -0.9725 2.6675 -1.3125 3.6875 C-3.375 4.375 -3.375 4.375 -5.3125 4.6875 C-5.3125 5.3475 -5.3125 6.0075 -5.3125 6.6875 C-6.9625 6.3575 -8.6125 6.0275 -10.3125 5.6875 C-9.3225 5.3575 -8.3325 5.0275 -7.3125 4.6875 C-7.3125 4.0275 -7.3125 3.3675 -7.3125 2.6875 C-3.15982824 -0.42700382 -3.15982824 -0.42700382 0 0 Z " fill="#BB8E81" transform="translate(69.3125,45.3125)"/>
<path d="M0 0 C0.66 0.33 1.32 0.66 2 1 C2.625 3.5625 2.625 3.5625 3 6 C0.69 6 -1.62 6 -4 6 C-3.67 4.35 -3.34 2.7 -3 1 C-2.01 0.67 -1.02 0.34 0 0 Z " fill="#99A77D" transform="translate(5,31)"/>
<path d="M0 0 C2.31 0 4.62 0 7 0 C7.33 1.65 7.66 3.3 8 5 C7.01 5.33 6.02 5.66 5 6 C4.67 5.34 4.34 4.68 4 4 C1.97536745 3.34786708 1.97536745 3.34786708 0 3 C0 2.01 0 1.02 0 0 Z " fill="#7B4835" transform="translate(12,31)"/>
<path d="M0 0 C1.9375 0.75 1.9375 0.75 4 2 C4.75 4.125 4.75 4.125 5 6 C1.25 7.125 1.25 7.125 -1 6 C-1.042721 4.33388095 -1.04063832 2.66617115 -1 1 C-0.67 0.67 -0.34 0.34 0 0 Z " fill="#DD9D7A" transform="translate(59,16)"/>
<path d="M0 0 C1.9375 0.8125 1.9375 0.8125 4 2 C4.33 2.99 4.66 3.98 5 5 C4.05125 5.12375 3.1025 5.2475 2.125 5.375 C-1.08667191 5.71687177 -1.08667191 5.71687177 -3 8 C-3.36923077 3.44615385 -3.36923077 3.44615385 -1.5 1.1875 C-1.005 0.795625 -0.51 0.40375 0 0 Z " fill="#D7C955" transform="translate(35,7)"/>
<path d="M0 0 C0.66 0.33 1.32 0.66 2 1 C1.67 1.66 1.34 2.32 1 3 C2.65 3.33 4.3 3.66 6 4 C6 4.66 6 5.32 6 6 C2.37 6 -1.26 6 -5 6 C-5 5.34 -5 4.68 -5 4 C-4.360625 3.71125 -3.72125 3.4225 -3.0625 3.125 C-0.84793921 2.17176549 -0.84793921 2.17176549 0 0 Z " fill="#BA7855" transform="translate(54,20)"/>
<path d="M0 0 C-0.33 1.32 -0.66 2.64 -1 4 C-3.31 3.67 -5.62 3.34 -8 3 C-8.33 3.99 -8.66 4.98 -9 6 C-9.66 5.01 -10.32 4.02 -11 3 C-7.16674383 0.29417212 -4.67461851 -0.32613618 0 0 Z " fill="#DCAC9A" transform="translate(80,59)"/>
<path d="M0 0 C3 1.5 3 1.5 6 3 C5.67 3.99 5.34 4.98 5 6 C2.625 5.75 2.625 5.75 0 5 C-1.3125 2.9375 -1.3125 2.9375 -2 1 C-1.34 0.67 -0.68 0.34 0 0 Z " fill="#B37752" transform="translate(37,50)"/>
<path d="M0 0 C1.32 0 2.64 0 4 0 C5.42944945 2.35438733 6.08661261 3.48032433 5.625 6.25 C5.41875 6.8275 5.2125 7.405 5 8 C4.67 7.01 4.34 6.02 4 5 C1.98491642 4.26676204 1.98491642 4.26676204 0 4 C0 2.68 0 1.36 0 0 Z " fill="#773C1E" transform="translate(24,30)"/>
<path d="M0 0 C0 0.99 0 1.98 0 3 C-1.134375 3.12375 -2.26875 3.2475 -3.4375 3.375 C-5.2009375 3.684375 -5.2009375 3.684375 -7 4 C-7.33 4.66 -7.66 5.32 -8 6 C-8.66 6 -9.32 6 -10 6 C-10 5.34 -10 4.68 -10 4 C-10.66 3.67 -11.32 3.34 -12 3 C-4.71428571 -0.42857143 -4.71428571 -0.42857143 0 0 Z " fill="#BEBD6A" transform="translate(50,3)"/>
<path d="M0 0 C2.64 0 5.28 0 8 0 C7.67 1.32 7.34 2.64 7 4 C4.69 4 2.38 4 0 4 C0 2.68 0 1.36 0 0 Z " fill="#B6BE80" transform="translate(43,0)"/>
<path d="M0 0 C0.33 0 0.66 0 1 0 C1.35233161 5.37305699 1.35233161 5.37305699 1 8 C-1 10 -1 10 -3 11 C-3 8.69 -3 6.38 -3 4 C-2.34 3.67 -1.68 3.34 -1 3 C-0.67 2.01 -0.34 1.02 0 0 Z " fill="#DABCB0" transform="translate(77,72)"/>
<path d="M0 0 C0.99 0.495 0.99 0.495 2 1 C2 1.99 2 2.98 2 4 C4.64 4 7.28 4 10 4 C10 4.66 10 5.32 10 6 C7.1875 6.625 7.1875 6.625 4 7 C1 5 1 5 0.3125 2.375 C0.209375 1.59125 0.10625 0.8075 0 0 Z " fill="#B37852" transform="translate(22,42)"/>
<path d="M0 0 C2.31 0 4.62 0 7 0 C6.67 1.32 6.34 2.64 6 4 C4.35 4 2.7 4 1 4 C0.67 2.68 0.34 1.36 0 0 Z " fill="#8E1219" transform="translate(60,71)"/>
<path d="M0 0 C2.97 0.495 2.97 0.495 6 1 C4.02 1.99 4.02 1.99 2 3 C2 3.66 2 4.32 2 5 C2.99 5.33 3.98 5.66 5 6 C3.35 6 1.7 6 0 6 C0 5.34 0 4.68 0 4 C-0.66 4 -1.32 4 -2 4 C-1.34 2.68 -0.68 1.36 0 0 Z " fill="#834A2C" transform="translate(52,31)"/>
<path d="M0 0 C3 1 3 1 5 4 C5 4.99 5 5.98 5 7 C3.68 7 2.36 7 1 7 C0.67 4.69 0.34 2.38 0 0 Z " fill="#94A68D" transform="translate(81,17)"/>
<path d="M0 0 C2.97 0.495 2.97 0.495 6 1 C5.67 2.32 5.34 3.64 5 5 C3.35 4.67 1.7 4.34 0 4 C0 2.68 0 1.36 0 0 Z " fill="#9DA989" transform="translate(51,0)"/>
<path d="M0 0 C2.475 0.495 2.475 0.495 5 1 C5 2.32 5 3.64 5 5 C4.34 5 3.68 5 3 5 C3 5.66 3 6.32 3 7 C3.66 7.33 4.32 7.66 5 8 C4.01 8 3.02 8 2 8 C0.875 3.25 0.875 3.25 2 1 C1.34 0.67 0.68 0.34 0 0 Z " fill="#DAAC94" transform="translate(33,56)"/>
<path d="M0 0 C0.33 0.99 0.66 1.98 1 3 C0.01 3.495 0.01 3.495 -1 4 C-1.40729228 6.32156597 -1.74438677 8.6568787 -2 11 C-2.66 11 -3.32 11 -4 11 C-4 8.03 -4 5.06 -4 2 C-2.68 2 -1.36 2 0 2 C0 1.34 0 0.68 0 0 Z " fill="#B2B882" transform="translate(4,35)"/>
<path d="M0 0 C2 1.375 2 1.375 4 3 C4 3.66 4 4.32 4 5 C2.02 5.33 0.04 5.66 -2 6 C-2 4.68 -2 3.36 -2 2 C-1.34 2 -0.68 2 0 2 C0 1.34 0 0.68 0 0 Z " fill="#9AA983" transform="translate(75,10)"/>
<path d="M0 0 C0 0.66 0 1.32 0 2 C0.639375 2.12375 1.27875 2.2475 1.9375 2.375 C2.618125 2.58125 3.29875 2.7875 4 3 C4.33 3.66 4.66 4.32 5 5 C4.38511719 4.9278125 3.77023438 4.855625 3.13671875 4.78125 C2.32847656 4.6884375 1.52023438 4.595625 0.6875 4.5 C-0.51326172 4.36078125 -0.51326172 4.36078125 -1.73828125 4.21875 C-4.11896555 3.95186537 -4.11896555 3.95186537 -7 4 C-7 3.34 -7 2.68 -7 2 C-2.25 0 -2.25 0 0 0 Z " fill="#DCC273" transform="translate(65,12)"/>
<path d="M0 0 C0.99 0 1.98 0 3 0 C3 2.64 3 5.28 3 8 C1.35 8.33 -0.3 8.66 -2 9 C-1.67 8.443125 -1.34 7.88625 -1 7.3125 C0.1309601 4.69715478 0.15662974 2.8193354 0 0 Z " fill="#B1AD76" transform="translate(85,41)"/>
<path d="M0 0 C3 3.75 3 3.75 3 6 C0.69 5.67 -1.62 5.34 -4 5 C-3.67 4.34 -3.34 3.68 -3 3 C-3.66 2.34 -4.32 1.68 -5 1 C-2.525 1.495 -2.525 1.495 0 2 C0 1.34 0 0.68 0 0 Z " fill="#A86943" transform="translate(34,26)"/>
<path d="M0 0 C2.31 0 4.62 0 7 0 C6.67 1.32 6.34 2.64 6 4 C4.35 3.67 2.7 3.34 1 3 C0.67 2.01 0.34 1.02 0 0 Z " fill="#99A789" transform="translate(36,0)"/>
<path d="M0 0 C1.98 0 3.96 0 6 0 C7.125 4.75 7.125 4.75 6 7 C5.34 7 4.68 7 4 7 C3.67 5.02 3.34 3.04 3 1 C2.01 0.67 1.02 0.34 0 0 Z " fill="#C2C072" transform="translate(80,26)"/>
<path d="M0 0 C1.65 0 3.3 0 5 0 C4.67 1.65 4.34 3.3 4 5 C2.68 4.67 1.36 4.34 0 4 C0 2.68 0 1.36 0 0 Z " fill="#C29580" transform="translate(44,54)"/>
<path d="M0 0 C1.32 0.33 2.64 0.66 4 1 C3.67 1.99 3.34 2.98 3 4 C2.34 3.67 1.68 3.34 1 3 C1.99 4.98 2.98 6.96 4 9 C2.68 8.34 1.36 7.68 0 7 C0 4.69 0 2.38 0 0 Z " fill="#9B6C59" transform="translate(52,44)"/>
<path d="M0 0 C1.32 0 2.64 0 4 0 C4 1.98 4 3.96 4 6 C2.68 5.67 1.36 5.34 0 5 C0 3.35 0 1.7 0 0 Z " fill="#EBD038" transform="translate(13,41)"/>
<path d="M0 0 C0 0.66 0 1.32 0 2 C-3.22791555 4.1519437 -4.28400809 4.20086443 -8 4 C-8 3.34 -8 2.68 -8 2 C-4.91190305 0.23537317 -3.76687864 0 0 0 Z " fill="#733A1A" transform="translate(62,32)"/>
<path d="M0 0 C2.5 1.375 2.5 1.375 5 3 C5 3.66 5 4.32 5 5 C3.02 5 1.04 5 -1 5 C-0.67 3.35 -0.34 1.7 0 0 Z " fill="#3B2315" transform="translate(57,26)"/>
<path d="M0 0 C-0.33 0.99 -0.66 1.98 -1 3 C-3.5625 4.1875 -3.5625 4.1875 -6 5 C-6.66 4.34 -7.32 3.68 -8 3 C-3.375 0 -3.375 0 0 0 Z " fill="#8EA690" transform="translate(28,4)"/>
<path d="M0 0 C0.33 0 0.66 0 1 0 C1 2.64 1 5.28 1 8 C0.01 8 -0.98 8 -2 8 C-1.125 1.125 -1.125 1.125 0 0 Z " fill="#91A88D" transform="translate(91,41)"/>
<path d="M0 0 C2.125 0.375 2.125 0.375 4 1 C3.01 1.33 2.02 1.66 1 2 C0.67 3.65 0.34 5.3 0 7 C-0.66 7 -1.32 7 -2 7 C-2.125 4.625 -2.125 4.625 -2 2 C-1.34 1.34 -0.68 0.68 0 0 Z " fill="#AB6F4C" transform="translate(38,36)"/>
<path d="M0 0 C3.6875 -0.3125 3.6875 -0.3125 7 0 C7 0.33 7 0.66 7 1 C5.02 1.33 3.04 1.66 1 2 C1 2.66 1 3.32 1 4 C1.66 4.66 2.32 5.32 3 6 C0.03 5.505 0.03 5.505 -3 5 C-1.9375 2.5 -1.9375 2.5 0 0 Z " fill="#612E1E" transform="translate(51,25)"/>
<path d="M0 0 C0.99 0.66 1.98 1.32 3 2 C2.67 3.65 2.34 5.3 2 7 C0.35 7.33 -1.3 7.66 -3 8 C-3 7.34 -3 6.68 -3 6 C-2.01 5.34 -1.02 4.68 0 4 C0 2.68 0 1.36 0 0 Z " fill="#B1AF69" transform="translate(12,22)"/>
<path d="M0 0 C0.33 0.66 0.66 1.32 1 2 C3.52733235 2.65555119 3.52733235 2.65555119 6 3 C6 3.99 6 4.98 6 6 C3.08482708 4.92598892 1.22189824 4.22189824 -1 2 C-0.67 1.34 -0.34 0.68 0 0 Z " fill="#B0917E" transform="translate(19,81)"/>
<path d="M0 0 C1.485 0.99 1.485 0.99 3 2 C3.375 4.5 3.375 4.5 3 7 C2.01 7.66 1.02 8.32 0 9 C0 6.03 0 3.06 0 0 Z " fill="#AEB08A" transform="translate(79,69)"/>
<path d="M0 0 C0.66 0.33 1.32 0.66 2 1 C0.02 3.97 0.02 3.97 -2 7 C-2.66 6.67 -3.32 6.34 -4 6 C-3.6875 4.125 -3.6875 4.125 -3 2 C-2.01 1.34 -1.02 0.68 0 0 Z " fill="#94A393" transform="translate(85,68)"/>
<path d="M0 0 C1.32 0 2.64 0 4 0 C3.67 1.32 3.34 2.64 3 4 C1.68 4.33 0.36 4.66 -1 5 C-0.67 3.35 -0.34 1.7 0 0 Z " fill="#FBCBB5" transform="translate(19,47)"/>
<path d="M0 0 C0.99 0.33 1.98 0.66 3 1 C2.67 2.65 2.34 4.3 2 6 C1.01 6 0.02 6 -1 6 C-0.67 4.02 -0.34 2.04 0 0 Z " fill="#DBC856" transform="translate(79,28)"/>
<path d="M0 0 C0.5625 1.9375 0.5625 1.9375 1 4 C0 5 0 5 -1.84765625 5.09765625 C-3.8984375 5.06510417 -5.94921875 5.03255208 -8 5 C-8 4.67 -8 4.34 -8 4 C-6.576875 3.566875 -6.576875 3.566875 -5.125 3.125 C-1.94788422 2.23174891 -1.94788422 2.23174891 0 0 Z " fill="#AE978C" transform="translate(59,81)"/>
<path d="M0 0 C2 2 2 2 2.125 5.125 C2.08375 6.07375 2.0425 7.0225 2 8 C-1 6 -1 6 -1.6875 3.875 C-1.790625 3.25625 -1.89375 2.6375 -2 2 C-1.34 2 -0.68 2 0 2 C0 1.34 0 0.68 0 0 Z " fill="#F5D8CF" transform="translate(58,73)"/>
<path d="M0 0 C0.66 0 1.32 0 2 0 C2 2.31 2 4.62 2 7 C0.68 6.67 -0.64 6.34 -2 6 C-2 5.34 -2 4.68 -2 4 C-1.34 4 -0.68 4 0 4 C0 2.68 0 1.36 0 0 Z " fill="#BF957D" transform="translate(38,57)"/>
<path d="M0 0 C0.33 0 0.66 0 1 0 C1 1.98 1 3.96 1 6 C-0.98 6 -2.96 6 -5 6 C-3.625 4 -3.625 4 -2 2 C-1.34 2 -0.68 2 0 2 C0 1.34 0 0.68 0 0 Z " fill="#A97D72" transform="translate(71,44)"/>
<path d="M0 0 C1.2077558 3.62326739 0.54311128 4.64146369 -1 8 C-1.66 8 -2.32 8 -3 8 C-3.1875 5.125 -3.1875 5.125 -3 2 C-2.01 1.34 -1.02 0.68 0 0 Z " fill="#CAC26A" transform="translate(7,38)"/>
<path d="M0 0 C2.31 0.66 4.62 1.32 7 2 C6.67 2.66 6.34 3.32 6 4 C4.35 4 2.7 4 1 4 C0.67 2.68 0.34 1.36 0 0 Z " fill="#93A58F" transform="translate(60,2)"/>
<path d="M0 0 C0 3.3 0 6.6 0 10 C-0.33 10 -0.66 10 -1 10 C-1.33 8.02 -1.66 6.04 -2 4 C-2.66 4 -3.32 4 -4 4 C-3.67 3.01 -3.34 2.02 -3 1 C-1 0 -1 0 0 0 Z " fill="#D1B399" transform="translate(79,69)"/>
<path d="M0 0 C0.99 0.33 1.98 0.66 3 1 C3 2.32 3 3.64 3 5 C1.02 4.34 -0.96 3.68 -3 3 C-2.01 2.67 -1.02 2.34 0 2 C0 1.34 0 0.68 0 0 Z " fill="#D29883" transform="translate(32,61)"/>
<path d="M0 0 C0.66 0.99 1.32 1.98 2 3 C1.34 4.32 0.68 5.64 0 7 C-0.66 6.67 -1.32 6.34 -2 6 C-1.125 1.125 -1.125 1.125 0 0 Z " fill="#9D3B27" transform="translate(14,53)"/>
<path d="M0 0 C0 0.99 0 1.98 0 3 C-0.66 3 -1.32 3 -2 3 C-1.67 3.99 -1.34 4.98 -1 6 C-1.99 6 -2.98 6 -4 6 C-4 4.35 -4 2.7 -4 1 C-2 0 -2 0 0 0 Z " fill="#D1C75C" transform="translate(85,51)"/>
<path d="M0 0 C-4.75 4 -4.75 4 -7 4 C-6.625 2.0625 -6.625 2.0625 -6 0 C-3.50907189 -1.24546405 -2.58919267 -0.7767578 0 0 Z " fill="#E9B9A5" transform="translate(55,42)"/>
<path d="M0 0 C0.99 0 1.98 0 3 0 C3.33 1.65 3.66 3.3 4 5 C2.68 5 1.36 5 0 5 C-0.5625 3.0625 -0.5625 3.0625 -1 1 C-0.67 0.67 -0.34 0.34 0 0 Z " fill="#93A68B" transform="translate(88,32)"/>
<path d="M0 0 C0.66 0 1.32 0 2 0 C2 0.66 2 1.32 2 2 C3.65 2 5.3 2 7 2 C6.67 2.66 6.34 3.32 6 4 C4.02 4 2.04 4 0 4 C0 2.68 0 1.36 0 0 Z " fill="#A0AE7C" transform="translate(59,4)"/>
</svg>
