<svg xmlns="http://www.w3.org/2000/svg" width="256" height="256" fill="none"><circle cx="128" cy="128" r="128" fill="#fff"/><path fill="#010101" d="m127.8 74.3-15.7 27H81l-15.7-27L81 47.1H112l15.7 27Z"/><path fill="#010101" d="m96.5 128-15.6 27H49.6L34 128l15.6-27H81l15.6 27Z"/><path fill="#010101" d="m159 128-15.6 27H112l-15.6-27 15.6-27h31.3l15.6 27ZM221.5 128l-15.6 27h-31.3L159 128l15.6-27H206l15.6 27Z"/><path fill="#010101" d="m127.8 181.8-15.7 27H81l-15.7-27L81 154.7H112l15.7 27Z"/><path fill="#010101" d="m190.3 181.8-15.7 27h-31.2l-15.7-27 15.7-27.1h31.2l15.7 27Z"/><path fill="#CF0106" d="m190.3 74.3-15.7 27h-31.2l-15.7-27 15.7-27.1h31.2l15.7 27Z"/></svg>