<?xml version="1.0" encoding="UTF-8"?>
<svg version="1.1" xmlns="http://www.w3.org/2000/svg" width="25" height="25">
<path d="M0 0 C3.17852316 1.64448689 5.37801764 3.75603527 7 7 C8.03037808 16.00844834 8.03037808 16.00844834 5.953125 20.0234375 C3.47535361 23.0113383 1.48573267 24.83006326 -2.390625 25.2734375 C-11.05997149 25.58136511 -11.05997149 25.58136511 -14.625 22.625 C-18.45795689 18.38857397 -18.38863816 15.34807028 -18.359375 9.7734375 C-17.80289254 5.47884463 -16.16828113 3.86654007 -13 1 C-9.03716439 -0.98141781 -4.30789762 -0.55820645 0 0 Z " fill="#7FA3F1" transform="translate(18,0)"/>
<path d="M0 0 C2.9375 2 2.9375 2 5 4 C4.67 5.32 4.34 6.64 4 8 C1.625 7.6875 1.625 7.6875 -1 7 C-1.66 6.01 -2.32 5.02 -3 4 C-6.79588866 4.54226981 -8.47211993 6.20127563 -11 9 C-9.02 9 -7.04 9 -5 9 C-6.25 10.5 -6.25 10.5 -8 12 C-9.32 12 -10.64 12 -12 12 C-12 12.99 -12 13.98 -12 15 C-10.35 15 -8.7 15 -7 15 C-6.67 16.32 -6.34 17.64 -6 19 C-3.39440972 18.51748328 -1.73047271 17.83565409 0.5625 16.4375 C3 15 3 15 6 15 C6 12.36 6 9.72 6 7 C6.33 7 6.66 7 7 7 C7.62376238 14.9529703 7.62376238 14.9529703 5.25 18.9375 C2.56581879 21.39799944 0.50577225 22.89494612 -3.18359375 23.15234375 C-7.49992018 22.74090882 -9.53449925 22.37821936 -13 19.5625 C-15.83449104 15.93080836 -16.34892607 13.69634571 -16.28125 9.03515625 C-15.83009301 5.77053411 -14.38122136 4.18814936 -12 2 C-8.04310248 -0.2458067 -4.49478265 -0.48158386 0 0 Z " fill="#3E69DF" transform="translate(17,1)"/>
<path d="M0 0 C2.9375 2 2.9375 2 5 4 C4.67 5.32 4.34 6.64 4 8 C1.625 7.6875 1.625 7.6875 -1 7 C-1.66 6.01 -2.32 5.02 -3 4 C-6.35595828 4.59927826 -8.37801226 5.84622436 -11 8 C-11 7.01 -11 6.02 -11 5 C-11.66 5 -12.32 5 -13 5 C-12 2 -12 2 -9.875 0.8125 C-6.34750738 -0.18440009 -3.65265341 -0.39135572 0 0 Z " fill="#2B4DC4" transform="translate(17,1)"/>
<path d="M0 0 C0.99 0.33 1.98 0.66 3 1 C3 2.32 3 3.64 3 5 C4.98 5 6.96 5 9 5 C7.75 6.5 7.75 6.5 6 8 C4.68 8 3.36 8 2 8 C2 8.99 2 9.98 2 11 C0.68 11 -0.64 11 -2 11 C-2.25 3.375 -2.25 3.375 0 0 Z " fill="#315DD0" transform="translate(3,5)"/>
<path d="M0 0 C2.64 0 5.28 0 8 0 C8.103125 0.61875 8.20625 1.2375 8.3125 1.875 C8.87525373 4.36526484 8.87525373 4.36526484 12 6 C11 7 11 7 8.25 7.375 C3.97701074 6.88196278 2.65559342 5.28043894 0 2 C0 1.34 0 0.68 0 0 Z " fill="#3463DC" transform="translate(2,16)"/>
<path d="M0 0 C0.33 0.66 0.66 1.32 1 2 C0.06027344 2.18175781 0.06027344 2.18175781 -0.8984375 2.3671875 C-1.71570312 2.53476563 -2.53296875 2.70234375 -3.375 2.875 C-4.18710938 3.03742187 -4.99921875 3.19984375 -5.8359375 3.3671875 C-8.18673923 3.86658932 -8.18673923 3.86658932 -10 6 C-12.625 6.125 -12.625 6.125 -15 6 C-15 5.01 -15 4.02 -15 3 C-9.63999211 0.74315457 -5.8022175 -0.36263859 0 0 Z " fill="#D9E3FE" transform="translate(20,10)"/>
<path d="M0 0 C-0.90027588 1.03531726 -1.82093035 2.05294165 -2.75 3.0625 C-3.51570313 3.91521484 -3.51570313 3.91521484 -4.296875 4.78515625 C-6 6 -6 6 -8.203125 5.68359375 C-9.09257812 5.34521484 -9.09257812 5.34521484 -10 5 C-10 4.01 -10 3.02 -10 2 C-4.10714286 -1.34821429 -4.10714286 -1.34821429 0 0 Z " fill="#CADCFD" transform="translate(20,15)"/>
<path d="M0 0 C1.859375 0.80859375 1.859375 0.80859375 2.859375 2.80859375 C1.59519254 3.50824818 0.32272098 4.19294138 -0.953125 4.87109375 C-1.66082031 5.25394531 -2.36851563 5.63679687 -3.09765625 6.03125 C-5.140625 6.80859375 -5.140625 6.80859375 -8.140625 5.80859375 C-7.24034912 4.77327649 -6.31969465 3.7556521 -5.390625 2.74609375 C-4.62492188 1.89337891 -4.62492188 1.89337891 -3.84375 1.0234375 C-2.140625 -0.19140625 -2.140625 -0.19140625 0 0 Z " fill="#C6D9FC" transform="translate(13.140625,4.19140625)"/>
<path d="M0 0 C0.66 0.66 1.32 1.32 2 2 C-4.625 3.25 -4.625 3.25 -8 1 C-4.9553071 -0.84856355 -3.35670253 -1.34268101 0 0 Z " fill="#5B78CB" transform="translate(17,8)"/>
<path d="M0 0 C1.98 0 3.96 0 6 0 C1.375 4 1.375 4 -2 4 C-1.34 2.68 -0.68 1.36 0 0 Z " fill="#4A66C2" transform="translate(12,13)"/>
<path d="M0 0 C2.31 0 4.62 0 7 0 C6.01 1.485 6.01 1.485 5 3 C2.375 3.1875 2.375 3.1875 0 3 C0 2.01 0 1.02 0 0 Z " fill="#C6DCF8" transform="translate(5,13)"/>
<path d="M0 0 C-3 2 -3 2 -7 2 C-7.33 2.66 -7.66 3.32 -8 4 C-7.6875 2.0625 -7.6875 2.0625 -7 0 C-3.86650268 -1.04449911 -3.01031744 -0.93423645 0 0 Z " fill="#4762BC" transform="translate(12,11)"/>
</svg>
