<svg width="256" height="256" fill="none" xmlns="http://www.w3.org/2000/svg"><g clip-path="url(#a)"><path d="M128 256a128 128 0 1 0 0-256 128 128 0 0 0 0 256Z" fill="#000"/><path fill="#743492" d="M80 124h95v12H80zM76 113l38-34 8 9-38 34zM140 172l38-34 8 9-38 34z"/><circle cx="130" cy="71" r="22" fill="url(#b)"/><circle cx="66" cy="128" r="22" fill="url(#c)"/><circle cx="190" cy="128" r="22" fill="url(#d)"/><circle cx="130" cy="184" r="22" fill="url(#e)"/></g><defs><linearGradient id="b" x1="106.6" y1="72" x2="152" y2="72" gradientUnits="userSpaceOnUse"><stop stop-color="#D14EFB"/><stop offset="1" stop-color="#B478F8"/></linearGradient><linearGradient id="c" x1="42.6" y1="129" x2="88" y2="129" gradientUnits="userSpaceOnUse"><stop stop-color="#D14EFB"/><stop offset="1" stop-color="#B478F8"/></linearGradient><linearGradient id="d" x1="166.6" y1="129" x2="212" y2="129" gradientUnits="userSpaceOnUse"><stop stop-color="#D14EFB"/><stop offset="1" stop-color="#B478F8"/></linearGradient><linearGradient id="e" x1="106.6" y1="185" x2="152" y2="185" gradientUnits="userSpaceOnUse"><stop stop-color="#D14EFB"/><stop offset="1" stop-color="#B478F8"/></linearGradient><clipPath id="a"><path fill="#fff" d="M0 0h256v256H0z"/></clipPath></defs></svg>