<svg fill="none" xmlns="http://www.w3.org/2000/svg" viewBox="0 0 256 256"><g clip-path="url(#a)" fill-rule="evenodd" clip-rule="evenodd" fill="#008DD0"><path d="M222 102c-11-11-27-20-48-26-51-13-68 19-28 39 46 23 53 60 27 83-7 6-29 18-48 20-32 5-67-2-95-11a150 150 0 0 0 185-2c36-30 39-74 7-103Z"/><path d="M78 29a152 152 0 0 1 149 20c-53-17-94-15-121-4-34 13-45 41-31 66 8 13 22 23 36 30 37 18 25 47-15 41l-13-2C5 159-7 93 42 51c11-10 23-17 36-22Z"/></g><defs><clipPath id="a"><path fill="#fff" d="M0 0h256v256H0z"/></clipPath></defs></svg>