<?xml version="1.0" encoding="UTF-8"?>
<svg version="1.1" xmlns="http://www.w3.org/2000/svg" width="64" height="64">
<path d="M0 0 C7.7024392 5.6467635 12.70749645 12.00861465 14.62109375 21.48828125 C15.74240348 31.60741787 13.60569533 39.48590366 7.80859375 47.80078125 C2.03314501 54.96233768 -5.11849788 58.79456032 -14.26953125 59.80859375 C-24.03852464 60.18432427 -31.94043238 57.36077245 -39.55859375 51.25390625 C-46.38880937 44.62889024 -49.36584485 37.1608972 -49.75390625 27.73828125 C-49.55742458 18.49208493 -46.72699038 10.9078647 -40.30078125 4.20703125 C-29.14699721 -5.76789757 -12.91560192 -8.20745147 0 0 Z " fill="#7C00FF" transform="translate(49.37890625,4.51171875)"/>
<path d="M0 0 C1.32 0 2.64 0 4 0 C4 1.32 4 2.64 4 4 C5.32 4 6.64 4 8 4 C8 5.32 8 6.64 8 8 C11.96 8 15.92 8 20 8 C20 9.65 20 11.3 20 13 C16.04 13 12.08 13 8 13 C8 16.96 8 20.92 8 25 C6.68 25 5.36 25 4 25 C4 21.04 4 17.08 4 13 C2.68 13 1.36 13 0 13 C0 16.96 0 20.92 0 25 C-1.32 25 -2.64 25 -4 25 C-4 21.04 -4 17.08 -4 13 C-7.96 13 -11.92 13 -16 13 C-16 11.35 -16 9.7 -16 8 C-12.04 8 -8.08 8 -4 8 C-4 6.68 -4 5.36 -4 4 C-2.68 4 -1.36 4 0 4 C0 2.68 0 1.36 0 0 Z " fill="#CA97FF" transform="translate(30,21)"/>
<path d="M0 0 C1.32 0 2.64 0 4 0 C4 3.96 4 7.92 4 12 C2.68 12 1.36 12 0 12 C0 8.04 0 4.08 0 0 Z " fill="#FFFFFF" transform="translate(34,34)"/>
<path d="M0 0 C1.32 0 2.64 0 4 0 C4 3.96 4 7.92 4 12 C2.68 12 1.36 12 0 12 C0 8.04 0 4.08 0 0 Z " fill="#FFFFFF" transform="translate(26,34)"/>
<path d="M0 0 C3.96 0 7.92 0 12 0 C12 1.32 12 2.64 12 4 C8.04 4 4.08 4 0 4 C0 2.68 0 1.36 0 0 Z " fill="#FBF7FF" transform="translate(38,30)"/>
<path d="M0 0 C3.96 0 7.92 0 12 0 C12 1.32 12 2.64 12 4 C8.04 4 4.08 4 0 4 C0 2.68 0 1.36 0 0 Z " fill="#FBF7FF" transform="translate(14,30)"/>
<path d="M0 0 C3.96 0 7.92 0 12 0 C12 1.32 12 2.64 12 4 C8.04 4 4.08 4 0 4 C0 2.68 0 1.36 0 0 Z " fill="#FFFFFF" transform="translate(38,21)"/>
<path d="M0 0 C3.96 0 7.92 0 12 0 C12 1.32 12 2.64 12 4 C8.04 4 4.08 4 0 4 C0 2.68 0 1.36 0 0 Z " fill="#FFFFFF" transform="translate(14,21)"/>
<path d="M0 0 C1.32 0 2.64 0 4 0 C4 2.64 4 5.28 4 8 C2.68 8 1.36 8 0 8 C0 5.36 0 2.72 0 0 Z " fill="#BE7FFF" transform="translate(30,21)"/>
</svg>
