<?xml version="1.0" encoding="UTF-8"?>
<svg version="1.1" xmlns="http://www.w3.org/2000/svg" width="64" height="64">
<path d="M0 0 C8.51310509 5.05349779 13.20642079 12.04528096 15.69140625 21.59765625 C17.14352029 32.14333693 15.25160969 41.268136 9 49.9453125 C3.1720909 56.45456379 -4.16416692 59.88928145 -12.76953125 61.07421875 C-23.07056999 61.50627115 -31.98157701 58.98693853 -39.74609375 52.03515625 C-46.69787603 44.27063951 -49.21720865 35.35963249 -48.78515625 25.05859375 C-47.60021895 16.45322942 -44.16550129 9.1169716 -37.65625 3.2890625 C-26.18648178 -4.97451427 -12.74034701 -6.09025909 0 0 Z " fill="#E71899" transform="translate(48.30859375,3.40234375)"/>
<path d="M0 0 C2.38671875 0.14453125 2.38671875 0.14453125 5 1 C8.55331241 5.65878738 10.77566125 11.10497449 10 17 C10.58136719 17.06703125 11.16273437 17.1340625 11.76171875 17.203125 C14.88832471 18.3162622 15.92112349 20.05827259 17.8125 22.75 C18.43769531 23.61109375 19.06289063 24.4721875 19.70703125 25.359375 C21.22251382 28.45443911 21.03733513 29.7778864 20 33 C14.35595853 34.63859268 8.7438664 33.57163883 3.09375 32.39453125 C-1.22344859 31.84397941 -4.88363062 32.80609212 -9.09765625 33.72265625 C-12.35619012 34.03403701 -14.10115232 33.44144536 -17 32 C-16.84036975 25.77442022 -13.31244654 21.23711997 -9 17 C-8.01 17 -7.02 17 -6 17 C-6.103125 16.21625 -6.20625 15.4325 -6.3125 14.625 C-5.88272354 9.63959301 -3.63856553 3.63856553 0 0 Z " fill="#F9F6F8" transform="translate(30,13)"/>
<path d="M0 0 C4.44907205 1.48302402 6.74579392 5.08285501 9 9 C9 9.66 9 10.32 9 11 C5.04 10.67 1.08 10.34 -3 10 C-4 7 -4 7 -3.22265625 5.17578125 C-2.1484375 3.45052083 -1.07421875 1.72526042 0 0 Z " fill="#E81D9B" transform="translate(39,33)"/>
<path d="M0 0 C0.66 0 1.32 0 2 0 C5.22265625 5.17578125 5.22265625 5.17578125 6 7 C5.67 7.99 5.34 8.98 5 10 C-0.94 10.495 -0.94 10.495 -7 11 C-5.00786053 6.01965133 -3.53992075 3.80541481 0 0 Z " fill="#E81D9B" transform="translate(23,33)"/>
<path d="M0 0 C3 1 3 1 4.6875 4.375 C6 8 6 8 6 11 C2.7 11 -0.6 11 -4 11 C-3.48964169 6.6109185 -2.47785723 3.66291938 0 0 Z " fill="#E81C9B" transform="translate(31,17)"/>
<path d="M0 0 C2.64 0 5.28 0 8 0 C7.45276317 3.37462715 6.9451 5.08235 5 8 C2 7 2 7 0.8125 5.125 C0 3 0 3 0 0 Z " fill="#E81798" transform="translate(28,31)"/>
</svg>
