<svg xmlns="http://www.w3.org/2000/svg" width="256" height="256" fill="none" xmlns:v="https://vecta.io/nano"><path d="M128 256c70.693 0 128-57.307 128-128S198.693 0 128 0 0 57.307 0 128s57.307 128 128 128z" fill="#fff"/><g fill="#292929"><path d="M140.714 184.887v-67.849C140.714 99.714 127.143 86 110 86v108.992c0 15.88 12.143 28.873 27.857 28.873h1.429c7.143.721 15-1.444 20.714-6.497-17.857-1.443-19.286-12.27-19.286-32.481z"/><path d="M74.934 58C59.893 58 47 70.6 47 86h126.063c15.757 0 27.934-12.6 27.934-28 .716 0-126.063 0-126.063 0z"/></g></svg>