<svg xmlns="http://www.w3.org/2000/svg" width="433" height="433" fill="none" xmlns:v="https://vecta.io/nano"><g clip-path="url(#C)"><g fill="#1b1f2b"><path d="M0 216.5C0 96.93 96.93 0 216.5 0h0C336.07 0 433 96.93 433 216.5h0C433 336.07 336.07 433 216.5 433h0C96.93 433 0 336.07 0 216.5h0z"/><path d="M145.06 93.1001H287.95V339.91H145.06V93.1001Z" stroke="url(#A)" stroke-width="27.222" stroke-linejoin="bevel"/></g><path d="M259.8 255.47h-29.59v31h-26.7v-31h-29.59v-26.7h85.88v26.7zm0-76.5h-29.59v-31h-26.7v31h-29.59v26.7h85.88v-26.7z" fill="url(#B)"/></g><defs><linearGradient id="A" x1="112.27" y1="112.27" x2="320.73" y2="320.73" gradientUnits="userSpaceOnUse"><stop stop-color="#2ab8e6"/><stop offset=".53" stop-color="#29cad2"/><stop offset="1" stop-color="#2ee4be"/></linearGradient><linearGradient id="B" x1="175.55" y1="175.91" x2="258.18" y2="258.54" gradientUnits="userSpaceOnUse"><stop stop-color="#2ab8e6"/><stop offset=".53" stop-color="#29cad2"/><stop offset="1" stop-color="#2ee4be"/></linearGradient><clipPath id="C"><path fill="#fff" d="M0 0h433v433H0z"/></clipPath></defs></svg>