<?xml version="1.0" encoding="UTF-8"?>
<svg version="1.1" xmlns="http://www.w3.org/2000/svg" width="200" height="200">
<path d="M0 0 C2.82045877 2.30263418 5.56336058 4.67903285 8.27832031 7.10449219 C11.1535235 9.666713 11.1535235 9.666713 14.50878906 11.77246094 C17.18066406 13.58496094 17.18066406 13.58496094 17.86816406 15.77246094 C18.02285156 16.66964844 18.02285156 16.66964844 18.18066406 17.58496094 C19.17066406 17.91496094 20.16066406 18.24496094 21.18066406 18.58496094 C21.51066406 19.57496094 21.84066406 20.56496094 22.18066406 21.58496094 C22.78394531 22.1740625 23.38722656 22.76316406 24.00878906 23.37011719 C26.61161449 26.02443736 28.16331475 28.75588582 29.93066406 32.02246094 C30.85105469 33.69115234 30.85105469 33.69115234 31.79003906 35.39355469 C33.13514811 38.48050439 33.50200878 40.27881822 33.18066406 43.58496094 C33.84066406 43.58496094 34.50066406 43.58496094 35.18066406 43.58496094 C39.64424539 56.0781479 40.85665551 67.12735329 40.55566406 80.33496094 C40.53909422 82.04587815 40.52476266 83.75681854 40.51269531 85.46777344 C40.3702832 98.68935945 40.3702832 98.68935945 39.18066406 103.58496094 C38.52066406 103.58496094 37.86066406 103.58496094 37.18066406 103.58496094 C37.18066406 105.89496094 37.18066406 108.20496094 37.18066406 110.58496094 C36.52066406 110.58496094 35.86066406 110.58496094 35.18066406 110.58496094 C34.52066406 113.88496094 33.86066406 117.18496094 33.18066406 120.58496094 C32.52066406 120.58496094 31.86066406 120.58496094 31.18066406 120.58496094 C31.10589844 121.42542969 31.03113281 122.26589844 30.95410156 123.13183594 C30.00301116 127.37811833 28.20111083 130.25695184 25.80566406 133.83496094 C25.40605469 134.45886719 25.00644531 135.08277344 24.59472656 135.72558594 C22.64505024 138.70140769 21.175244 140.58857431 18.18066406 142.58496094 C17.87128906 143.24496094 17.56191406 143.90496094 17.24316406 144.58496094 C16.18066406 146.58496094 16.18066406 146.58496094 14.29394531 147.52246094 C12.05773456 148.64676653 10.95666201 149.72870379 9.30566406 151.58496094 C-7.5531495 168.76523493 -31.7922615 178.47350042 -55.67724609 178.87768555 C-83.14890277 179.03784131 -105.50892955 171.73865683 -126.31811523 153.40429688 C-129.3378039 150.75277047 -132.36813316 148.62599484 -135.81933594 146.58496094 C-136.52084746 145.26962683 -137.18459519 143.93378502 -137.81933594 142.58496094 C-139.08777344 141.37839844 -139.08777344 141.37839844 -140.38183594 140.14746094 C-142.93144067 137.46710724 -143.50996572 136.19428011 -143.81933594 132.58496094 C-144.80933594 132.25496094 -145.79933594 131.92496094 -146.81933594 131.58496094 C-150.62798259 125.57828936 -153.21756631 119.65575401 -153.81933594 112.58496094 C-154.47933594 111.59496094 -155.13933594 110.60496094 -155.81933594 109.58496094 C-156.19144014 108.26192377 -156.52563767 106.92758159 -156.81933594 105.58496094 C-157.14933594 104.59496094 -157.47933594 103.60496094 -157.81933594 102.58496094 C-158.14933594 102.58496094 -158.47933594 102.58496094 -158.81933594 102.58496094 C-158.87027326 96.32278946 -158.90516878 90.06067193 -158.92919922 83.79833984 C-158.93922299 81.67038984 -158.95284555 79.5424535 -158.97021484 77.41455078 C-158.99462286 74.34631976 -159.00585555 71.27827173 -159.01464844 68.20996094 C-159.02497101 67.26693115 -159.03529358 66.32390137 -159.04592896 65.35229492 C-159.04686971 59.74541582 -158.41278806 54.96630789 -156.81933594 49.58496094 C-156.15933594 49.58496094 -155.49933594 49.58496094 -154.81933594 49.58496094 C-154.69816406 48.88628906 -154.57699219 48.18761719 -154.45214844 47.46777344 C-154.28457031 46.55769531 -154.11699219 45.64761719 -153.94433594 44.70996094 C-153.78191406 43.80503906 -153.61949219 42.90011719 -153.45214844 41.96777344 C-152.81933594 39.58496094 -152.81933594 39.58496094 -150.81933594 37.58496094 C-149.71378412 35.63398714 -148.89319267 33.94732054 -148.44433594 31.74511719 C-147.67559861 29.08816878 -146.42875814 27.18569548 -144.88183594 24.89746094 C-144.3571875 24.10984375 -143.83253906 23.32222656 -143.29199219 22.51074219 C-141.81933594 20.58496094 -141.81933594 20.58496094 -139.81933594 19.58496094 C-139.48933594 18.59496094 -139.15933594 17.60496094 -138.81933594 16.58496094 C-138.25988281 16.318125 -137.70042969 16.05128906 -137.12402344 15.77636719 C-133.75454168 14.03451645 -131.50732154 11.25605376 -128.94433594 8.52246094 C-95.59880991 -25.77011212 -37.69548479 -29.31871039 0 0 Z M34.18066406 46.58496094 C35.18066406 48.58496094 35.18066406 48.58496094 35.18066406 48.58496094 Z M35.18066406 49.58496094 C36.18066406 51.58496094 36.18066406 51.58496094 36.18066406 51.58496094 Z M36.18066406 52.58496094 C37.18066406 55.58496094 37.18066406 55.58496094 37.18066406 55.58496094 Z M-156.81933594 53.58496094 C-155.81933594 56.58496094 -155.81933594 56.58496094 -155.81933594 56.58496094 Z M37.18066406 56.58496094 C38.18066406 59.58496094 38.18066406 59.58496094 38.18066406 59.58496094 Z M-157.81933594 57.58496094 C-156.81933594 61.58496094 -156.81933594 61.58496094 -156.81933594 61.58496094 Z M38.18066406 60.58496094 C38.18066406 62.23496094 38.18066406 63.88496094 38.18066406 65.58496094 C38.51066406 65.58496094 38.84066406 65.58496094 39.18066406 65.58496094 C39.18066406 63.93496094 39.18066406 62.28496094 39.18066406 60.58496094 C38.85066406 60.58496094 38.52066406 60.58496094 38.18066406 60.58496094 Z M38.18066406 93.58496094 C38.18066406 95.23496094 38.18066406 96.88496094 38.18066406 98.58496094 C38.51066406 98.58496094 38.84066406 98.58496094 39.18066406 98.58496094 C39.18066406 96.93496094 39.18066406 95.28496094 39.18066406 93.58496094 C38.85066406 93.58496094 38.52066406 93.58496094 38.18066406 93.58496094 Z " fill="#FCFCFC" transform="translate(158.8193359375,19.4150390625)"/>
<path d="M0 0 C0.84460281 -0.01921509 1.68920563 -0.03843018 2.55940247 -0.05822754 C3.47396713 -0.06672729 4.3885318 -0.07522705 5.33081055 -0.08398438 C6.27055222 -0.09538452 7.21029388 -0.10678467 8.17851257 -0.11853027 C10.16990649 -0.13744352 12.16136319 -0.15050353 14.15283203 -0.15820312 C17.19569688 -0.17759524 20.23584735 -0.23960634 23.27807617 -0.30273438 C25.21230491 -0.31579679 27.14655298 -0.32629682 29.08081055 -0.33398438 C29.98930252 -0.35867798 30.89779449 -0.38337158 31.83381653 -0.40881348 C38.01819861 -0.36535059 38.01819861 -0.36535059 40.57643127 1.61820984 C48.14805462 10.51743557 48.78856135 21.20732086 48.07641602 32.33300781 C46.67270201 48.62568835 37.91002715 63.5540464 25.9050293 74.32226562 C16.70288859 81.53512003 5.4941062 86.81730239 -6.0949707 88.32226562 C-6.14124024 77.14381729 -6.17681245 65.96539161 -6.19859505 54.78686714 C-6.20904775 49.59664664 -6.22323399 44.40649148 -6.24584961 39.21630859 C-6.26752508 34.21075673 -6.27952812 29.20526786 -6.28472519 24.1996727 C-6.28843049 22.28663007 -6.29566566 20.37359103 -6.30643082 18.4605751 C-6.32087543 15.78825587 -6.32295161 13.11619943 -6.32202148 10.44384766 C-6.32921204 9.64687469 -6.33640259 8.84990173 -6.34381104 8.02877808 C-6.32274018 2.46190338 -5.84307797 0.10719576 0 0 Z " fill="#141414" transform="translate(116.094970703125,104.677734375)"/>
<path d="M0 0 C0.96859451 0.00470306 1.93718903 0.00940613 2.93513489 0.01425171 C6.02649148 0.03559537 9.11613264 0.09223498 12.20703125 0.1484375 C14.30011414 0.16494268 16.39321522 0.17929124 18.48632812 0.19140625 C22.30124467 0.22539291 26.11599114 0.25997187 29.93041992 0.33056641 C30.69778976 0.34342682 31.46515961 0.35628723 32.25578308 0.36953735 C34.01953125 0.5234375 34.01953125 0.5234375 35.01953125 1.5234375 C35.11467717 4.23181836 35.14508057 6.91462263 35.13305664 9.62329102 C35.13320267 10.47199768 35.13334869 11.32070435 35.13349915 12.19512939 C35.13279973 15.01422641 35.12500603 17.83325821 35.1171875 20.65234375 C35.11532342 22.60147567 35.11389947 24.55060805 35.11289978 26.4997406 C35.1090738 31.64050582 35.09924284 36.78124297 35.0881958 41.92199707 C35.0779834 47.16348898 35.07340253 52.4049854 35.06835938 57.64648438 C35.05762064 67.93881444 35.04054326 78.23112364 35.01953125 88.5234375 C32.98027885 87.91907414 30.94288009 87.30845465 28.90625 86.6953125 C27.77147217 86.3559668 26.63669434 86.01662109 25.4675293 85.66699219 C10.18425626 80.59817884 -2.8228524 70.89484531 -10.21435547 56.5 C-17.2327061 42.41881847 -20.77362096 27.95513569 -17.2265625 12.16796875 C-16.29732625 9.75924263 -15.37309305 7.69404019 -13.98046875 5.5234375 C-13.5002124 4.66854736 -13.01995605 3.81365723 -12.52514648 2.93286133 C-8.67010684 -0.71727647 -5.12168308 -0.12369211 0 0 Z " fill="#494949" transform="translate(53.98046875,104.4765625)"/>
<path d="M0 0 C0.87691498 -0.01022186 1.75382996 -0.02044373 2.65731812 -0.03097534 C5.55657246 -0.05877743 8.45487622 -0.056853 11.35424805 -0.05224609 C13.37200778 -0.0600208 15.38976425 -0.06869031 17.40751648 -0.07821655 C21.63848473 -0.09314399 25.86911925 -0.09255756 30.10009766 -0.08203125 C35.51426968 -0.07045469 40.92707044 -0.10426776 46.34101582 -0.1507206 C50.50959726 -0.18023356 54.67785015 -0.18193345 58.84651756 -0.17570114 C60.84196878 -0.17672613 62.83743873 -0.18717488 64.83278847 -0.20732498 C67.6290049 -0.23209201 70.42257375 -0.21845516 73.21875 -0.1953125 C74.03821609 -0.21059998 74.85768219 -0.22588745 75.70198059 -0.24163818 C81.11799085 -0.14290366 83.98546466 1.2413102 87.99394512 4.87236977 C89.3034668 6.54931641 89.3034668 6.54931641 90.3034668 10.54931641 C74.4634668 10.54931641 58.6234668 10.54931641 42.3034668 10.54931641 C42.31506836 17.39552734 42.32666992 24.24173828 42.33862305 31.29541016 C42.34372969 35.62028089 42.34854346 39.94514793 42.35229492 44.27001953 C42.3582838 51.14185351 42.36538527 58.01367422 42.37890625 64.88549805 C42.38973367 70.42271635 42.39574332 75.95992044 42.39834404 81.49714851 C42.40019855 83.61475918 42.40381966 85.73236903 42.40919685 87.84997368 C42.41640536 90.80502915 42.41745782 93.76002511 42.41699219 96.71508789 C42.42058746 97.59981277 42.42418274 98.48453766 42.42788696 99.39607239 C42.41751896 105.43526424 42.41751896 105.43526424 41.3034668 106.54931641 C38.6634668 106.54931641 36.0234668 106.54931641 33.3034668 106.54931641 C33.3034668 74.86931641 33.3034668 43.18931641 33.3034668 10.54931641 C17.4634668 10.54931641 1.6234668 10.54931641 -14.6965332 10.54931641 C-11.67433524 1.48272251 -9.29679105 -0.05579878 0 0 Z " fill="#2A2A2A" transform="translate(61.696533203125,86.45068359375)"/>
<path d="M0 0 C7.71405458 2.74277496 10.91635237 12.60617119 14.3125 19.5 C14.67448486 20.21172363 15.03646973 20.92344727 15.40942383 21.65673828 C18.1162693 27.3149101 19.08355128 32.06287268 17.37109375 38.28515625 C14.03878687 44.62908776 9.82208223 50.09555384 3.0625 52.9375 C-2.83650872 54.77097568 -8.51602436 54.8884629 -14.20703125 52.1015625 C-20.50187604 48.23414152 -25.92890273 43.28971738 -28 36 C-28.64834369 30.47736154 -26.85104537 26.97114069 -24.3125 22.25 C-23.5725445 20.83352769 -22.83296067 19.41686116 -22.09375 18 C-21.7328125 17.31679688 -21.371875 16.63359375 -21 15.9296875 C-19.69209297 13.40583565 -18.50940996 10.82795992 -17.3125 8.25 C-13.25034768 0.31276816 -8.60897801 -1.12414754 0 0 Z " fill="#363636" transform="translate(104,6)"/>
<path d="M0 0 C0.99 1.485 0.99 1.485 2 3 C-22.09 3 -46.18 3 -71 3 C-66.04594636 -1.95405364 -59.37353063 -4.25672262 -53 -7 C-52.16082031 -7.36996094 -51.32164063 -7.73992187 -50.45703125 -8.12109375 C-33.98087623 -14.21581304 -13.85666214 -9.92985561 0 0 Z " fill="#202020" transform="translate(132,77)"/>
<path d="M0 0 C0.96859451 0.00470306 1.93718903 0.00940613 2.93513489 0.01425171 C6.02649148 0.03559537 9.11613264 0.09223498 12.20703125 0.1484375 C14.30011414 0.16494268 16.39321522 0.17929124 18.48632812 0.19140625 C22.30124467 0.22539291 26.11599114 0.25997187 29.93041992 0.33056641 C30.69778976 0.34342682 31.46515961 0.35628723 32.25578308 0.36953735 C34.01953125 0.5234375 34.01953125 0.5234375 35.01953125 1.5234375 C35.11467717 4.23181836 35.14508057 6.91462263 35.13305664 9.62329102 C35.13320267 10.47199768 35.13334869 11.32070435 35.13349915 12.19512939 C35.13279973 15.01422641 35.12500603 17.83325821 35.1171875 20.65234375 C35.11532342 22.60147567 35.11389947 24.55060805 35.11289978 26.4997406 C35.1090738 31.64050582 35.09924284 36.78124297 35.0881958 41.92199707 C35.0779834 47.16348898 35.07340253 52.4049854 35.06835938 57.64648438 C35.05762064 67.93881444 35.04054326 78.23112364 35.01953125 88.5234375 C32.98027885 87.91907414 30.94288009 87.30845465 28.90625 86.6953125 C27.77147217 86.3559668 26.63669434 86.01662109 25.4675293 85.66699219 C10.18425626 80.59817884 -2.8228524 70.89484531 -10.21435547 56.5 C-17.2327061 42.41881847 -20.77362096 27.95513569 -17.2265625 12.16796875 C-16.29732625 9.75924263 -15.37309305 7.69404019 -13.98046875 5.5234375 C-13.5002124 4.66854736 -13.01995605 3.81365723 -12.52514648 2.93286133 C-8.67010684 -0.71727647 -5.12168308 -0.12369211 0 0 Z M-13.10137939 8.46177673 C-18.47263314 21.05856573 -17.11377686 35.3616956 -12.45703125 47.96875 C-6.4159142 62.51217995 4.18949065 74.06253821 18.51953125 80.7734375 C23.25976744 82.61686269 28.14796466 84.06196752 33.01953125 85.5234375 C33.01953125 58.1334375 33.01953125 30.7434375 33.01953125 2.5234375 C22.77921875 2.2759375 22.77921875 2.2759375 12.33203125 2.0234375 C9.11126831 1.91418945 9.11126831 1.91418945 5.82543945 1.80273438 C4.11543778 1.77936054 2.4053915 1.75897685 0.6953125 1.7421875 C-0.18596313 1.70125977 -1.06723877 1.66033203 -1.97521973 1.61816406 C-8.11818628 1.61119431 -10.25707057 2.99738689 -13.10137939 8.46177673 Z " fill="#050505" transform="translate(53.98046875,104.4765625)"/>
<path d="M0 0 C0.71259476 -0.00058411 1.42518951 -0.00116821 2.15937805 -0.00177002 C4.50811966 0.00101047 6.85558247 0.03209834 9.20410156 0.06347656 C10.83505561 0.07093914 12.46601864 0.07663199 14.09698486 0.08062744 C18.38471333 0.09588264 22.67189775 0.13516302 26.95941162 0.17944336 C31.33647299 0.22039879 35.71362247 0.23863901 40.09082031 0.25878906 C48.67570509 0.30165779 57.2601481 0.36990721 65.84472656 0.45410156 C65.51472656 1.11410156 65.18472656 1.77410156 64.84472656 2.45410156 C63.52381012 2.45623909 63.52381012 2.45623909 62.1762085 2.4584198 C53.87728377 2.47624918 45.57889253 2.51786046 37.28022385 2.58619213 C33.01373006 2.62048364 28.74759515 2.64557539 24.48095703 2.6496582 C20.36333653 2.65393665 16.24652587 2.68236034 12.12915802 2.72753334 C10.5583391 2.7405231 8.98742333 2.74481075 7.41655731 2.74025536 C5.21561753 2.73535926 3.01705387 2.76139055 0.81640625 2.79467773 C-0.43601868 2.80133957 -1.6884436 2.8080014 -2.9788208 2.81486511 C-6.8641367 3.24295702 -6.8641367 3.24295702 -10.15527344 8.45410156 C5.35472656 8.45410156 20.86472656 8.45410156 36.84472656 8.45410156 C36.84472656 40.13410156 36.84472656 71.81410156 36.84472656 104.45410156 C37.83472656 104.94910156 37.83472656 104.94910156 38.84472656 105.45410156 C37.85472656 105.45410156 36.86472656 105.45410156 35.84472656 105.45410156 C35.84472656 74.10410156 35.84472656 42.75410156 35.84472656 10.45410156 C19.67472656 10.45410156 3.50472656 10.45410156 -13.15527344 10.45410156 C-10.38963802 2.15719532 -8.77633611 -0.06052646 0 0 Z " fill="#030303" transform="translate(60.1552734375,86.5458984375)"/>
<path d="M0 0 C0.56332031 0.47050781 1.12664062 0.94101563 1.70703125 1.42578125 C1.37703125 2.08578125 1.04703125 2.74578125 0.70703125 3.42578125 C-15.13296875 3.42578125 -30.97296875 3.42578125 -47.29296875 3.42578125 C-45.84913732 0.53811838 -44.04439404 0.41859522 -41.04296875 -0.63671875 C-40.0890625 -0.97832031 -39.13515625 -1.31992188 -38.15234375 -1.671875 C-27.97488371 -4.88361444 -9.22613666 -6.3341279 0 0 Z " fill="#373737" transform="translate(119.29296875,73.57421875)"/>
<path d="M0 0 C3.73149892 1.23832929 5.06614513 3.33045684 6.8425293 6.74755859 C7.14199463 7.36711426 7.44145996 7.98666992 7.75 8.625 C8.21176636 9.57560303 8.21176636 9.57560303 8.68286133 10.54541016 C11.32099361 16.24155982 12.3570378 19.93677635 10.328125 26.01171875 C7.47852935 32.57328767 2.7308462 38.1339124 -3.9375 40.9375 C-9.83650872 42.77097568 -15.51602436 42.8884629 -21.20703125 40.1015625 C-27.68959478 36.11881105 -32.57769505 31.31205098 -35 24 C-36.00879365 18.73185537 -33.84552549 15.31806643 -31.2890625 10.85546875 C-30 9 -30 9 -28 8 C-28.66 10.97 -29.32 13.94 -30 17 C-30.66 17 -31.32 17 -32 17 C-32.7565051 22.92595662 -31.27729869 26.12782545 -27.75390625 30.91015625 C-24.28932534 35.03833172 -21.63823841 37.59243765 -16.16796875 38.4375 C-7.72543333 38.77732533 -2.3187165 37.03013245 3.875 31.375 C6.73748373 26.82870231 8.46533823 23.45904248 8 18 C6.40429609 13.55302803 4.12369742 9.45604725 1.8203125 5.34375 C0 2 0 2 0 0 Z " fill="#191919" transform="translate(111,18)"/>
<path d="M0 0 C0.66 0.33 1.32 0.66 2 1 C1.66226563 1.56847656 1.32453125 2.13695313 0.9765625 2.72265625 C0.53054687 3.49480469 0.08453125 4.26695313 -0.375 5.0625 C-0.81585938 5.81660156 -1.25671875 6.57070312 -1.7109375 7.34765625 C-7.43488229 19.12510628 -6.3056819 33.39007084 -2.19433594 45.50585938 C3.37698706 60.61169 13.88577242 72.47415887 28.5625 79.25 C32.95951383 81.07162001 37.45827424 82.58272388 42 84 C42 84.99 42 85.98 42 87 C26.81527783 83.17022494 11.99465432 75.21787802 3 62 C-5.94417553 46.23961562 -11.35623674 29.93786196 -7.24609375 11.64453125 C-5.52918786 7.19404187 -3.27536255 3.50931702 0 0 Z " fill="#131313" transform="translate(44,105)"/>
<path d="M0 0 C-1.75 3.875 -1.75 3.875 -4 5 C-4.433125 5.9590625 -4.433125 5.9590625 -4.875 6.9375 C-6 9 -6 9 -7.87109375 9.92578125 C-10.19155142 11.09665439 -11.44421634 12.33884458 -13.1875 14.25 C-17.01819675 18.22226598 -21.3249057 21.10589401 -26 24 C-25.5081886 17.11464036 -24.32378698 11.14299522 -19.1328125 6.234375 C-12.72264963 1.25138046 -8.05700717 -0.27311889 0 0 Z " fill="#101010" transform="translate(181,157)"/>
<path d="M0 0 C3.98596662 3.43957569 5.94068735 7.34618919 8.1875 12 C8.54263672 12.7115625 8.89777344 13.423125 9.26367188 14.15625 C10.87200334 17.42784645 12.20406628 20.42694434 13 24 C8.27915654 22.20248446 3.74793489 20.03862628 -0.8125 17.875 C-1.60076172 17.50246094 -2.38902344 17.12992188 -3.20117188 16.74609375 C-5.13473705 15.83204476 -7.06745388 14.91620158 -9 14 C-7.65070536 10.16336928 -5.92248975 7.34827431 -3.375 4.1875 C-2.42753906 3.00220703 -2.42753906 3.00220703 -1.4609375 1.79296875 C-0.97882813 1.20128906 -0.49671875 0.60960937 0 0 Z " fill="#151515" transform="translate(127,48)"/>
<path d="M0 0 C0.33 0 0.66 0 1 0 C1.15356466 12.62989384 1.30174644 25.25983807 1.4429636 37.88987637 C1.50870016 43.75384936 1.57632484 49.61778816 1.64819336 55.48168945 C1.71741958 61.13557187 1.78177922 66.78949025 1.84269524 72.44346809 C1.86686053 74.60575451 1.89281047 76.76802171 1.92053413 78.93026543 C1.95892251 81.94753891 1.99109215 84.96481703 2.02172852 87.98217773 C2.03467453 88.8856041 2.04762054 89.78903046 2.06095886 90.71983337 C2.07898416 92.81324326 2.045292 94.90700251 2 97 C1.505 97.495 1.505 97.495 1 98 C-1.64 98 -4.28 98 -7 98 C-7 66.32 -7 34.64 -7 2 C-6.67 2 -6.34 2 -6 2 C-6 33.35 -6 64.7 -6 97 C-3.03 96.505 -3.03 96.505 0 96 C0 64.32 0 32.64 0 0 Z " fill="#4C4C4C" transform="translate(102,95)"/>
<path d="M0 0 C0.66 0 1.32 0 2 0 C3.7265625 1.8984375 3.7265625 1.8984375 5.625 4.375 C6.25664063 5.18710937 6.88828125 5.99921875 7.5390625 6.8359375 C9 9 9 9 9 11 C9.66 11 10.32 11 11 11 C11 11.66 11 12.32 11 13 C8.06351671 14.31478326 5.12564261 15.6264295 2.1875 16.9375 C0.93743164 17.49727539 0.93743164 17.49727539 -0.33789062 18.06835938 C-1.14033203 18.42607422 -1.94277344 18.78378906 -2.76953125 19.15234375 C-3.50792236 19.48226318 -4.24631348 19.81218262 -5.00708008 20.15209961 C-7 21 -7 21 -10 22 C-8.4719611 16.90117545 -6.28963144 12.34334341 -3.875 7.625 C-3.50246094 6.88894531 -3.12992187 6.15289062 -2.74609375 5.39453125 C-1.8343878 3.59449642 -0.91770068 1.79698598 0 0 Z " fill="#131313" transform="translate(70,49)"/>
<path d="M0 0 C7.41728935 1.3048935 14.66774668 3.00844547 19.8125 8.875 C23.1923146 13.70330657 25.19000731 17.0697719 25 23 C20.04918391 19.40539151 15.36922577 15.65276083 10.859375 11.515625 C9.04519123 9.92305929 9.04519123 9.92305929 6.83203125 8.921875 C4.44277903 7.71960736 4.11248195 6.37329483 3 4 C2.01 3.34 1.02 2.68 0 2 C0 1.34 0 0.68 0 0 Z " fill="#424242" transform="translate(18,158)"/>
<path d="M0 0 C2.52419593 2.52419593 2.78957038 4.42357863 3.625 7.875 C3.88539062 8.92429688 4.14578125 9.97359375 4.4140625 11.0546875 C5 14 5 14 5 18 C0.97007218 17.44687265 -3.02022924 16.8441938 -7 16 C-5.35433477 10.31497465 -2.70967216 5.23318364 0 0 Z " fill="#121212" transform="translate(28,136)"/>
<path d="M0 0 C3.2107419 2.67079731 4.50977252 5.92193387 6.1875 9.6875 C6.71730469 10.86699219 7.24710938 12.04648438 7.79296875 13.26171875 C8.19128906 14.16535156 8.58960938 15.06898438 9 16 C7.56445975 16.50559908 6.1264798 17.0042749 4.6875 17.5 C3.88699219 17.7784375 3.08648437 18.056875 2.26171875 18.34375 C0 19 0 19 -3 19 C-2.48446121 12.50149789 -1.53332291 6.33773468 0 0 Z " fill="#101010" transform="translate(169,133)"/>
<path d="M0 0 C3.73149892 1.23832929 5.06614513 3.33045684 6.8425293 6.74755859 C7.14199463 7.36711426 7.44145996 7.98666992 7.75 8.625 C8.05784424 9.25873535 8.36568848 9.8924707 8.68286133 10.54541016 C11.32406438 16.2481901 12.41962519 20.01757775 10.2578125 26.08203125 C8.26507458 30.52040207 5.75423743 33.8385369 2 37 C1.34 37 0.68 37 0 37 C1.09603173 34.5339286 2.13279521 32.85890509 4 30.875 C6.95793692 26.62296568 8.38258456 23.24404704 8 18 C6.41612711 13.54877101 4.12283 9.45588678 1.8203125 5.34375 C0 2 0 2 0 0 Z " fill="#121212" transform="translate(111,18)"/>
<path d="M0 0 C0.78721436 -0.00580078 1.57442871 -0.01160156 2.38549805 -0.01757812 C3.21863525 -0.00404297 4.05177246 0.00949219 4.91015625 0.0234375 C5.75811768 0.02923828 6.6060791 0.03503906 7.47973633 0.04101562 C14.26964794 0.18028264 20.51604374 1.23334588 26.97265625 3.3984375 C24.97265625 5.3984375 24.97265625 5.3984375 21.80810547 5.44189453 C20.46379281 5.35753812 19.12017955 5.26153316 17.77734375 5.15625 C16.71617844 5.08541702 16.71617844 5.08541702 15.63357544 5.01315308 C13.37079109 4.85981964 11.10936672 4.69180661 8.84765625 4.5234375 C7.31517104 4.41700144 5.78261917 4.31152057 4.25 4.20703125 C0.49002179 3.9485837 -3.26880182 3.67696497 -7.02734375 3.3984375 C-4.76851361 0.72919211 -3.49060143 0.01677982 0 0 Z " fill="#262626" transform="translate(93.02734375,66.6015625)"/>
<path d="M0 0 C3.71368887 1.23789629 4.77354181 2.85224877 7 6 C7 6.66 7 7.32 7 8 C-3 13 -3 13 -5.265625 13.9765625 C-7.34777309 14.94943501 -7.34777309 14.94943501 -8 18 C-8.66 18 -9.32 18 -10 18 C-8.125 12.25 -8.125 12.25 -7 10 C-6.01 9.67 -5.02 9.34 -4 9 C-2.76049958 6.90861544 -2.76049958 6.90861544 -1.8125 4.4375 C-1.46832031 3.61121094 -1.12414062 2.78492188 -0.76953125 1.93359375 C-0.51558594 1.29550781 -0.26164062 0.65742187 0 0 Z " fill="#484848" transform="translate(70,53)"/>
<path d="M0 0 C7.41728935 1.3048935 14.66774668 3.00844547 19.8125 8.875 C23.0791225 13.54160358 25.51492579 17.16417433 25 23 C22 21 22 21 21.125 17.75 C19.5012759 12.33758632 16.89265641 9.19319643 12.125 6.1875 C8.96521401 4.84104834 8.96521401 4.84104834 5.25 4.5625 C3.64125 4.2840625 3.64125 4.2840625 2 4 C0.796875 1.96484375 0.796875 1.96484375 0 0 Z " fill="#131313" transform="translate(18,158)"/>
<path d="M0 0 C0.5775 0.2475 1.155 0.495 1.75 0.75 C0.76 0.75 -0.23 0.75 -1.25 0.75 C-1.53875 1.348125 -1.8275 1.94625 -2.125 2.5625 C-3.25 4.75 -3.25 4.75 -5.25 7.75 C6.3 7.75 17.85 7.75 29.75 7.75 C29.75 8.08 29.75 8.41 29.75 8.75 C10.94 9.245 10.94 9.245 -8.25 9.75 C-4.82142857 -0.53571429 -4.82142857 -0.53571429 0 0 Z " fill="#121212" transform="translate(55.25,87.25)"/>
<path d="M0 0 C0.66 0.33 1.32 0.66 2 1 C1.66226563 1.56847656 1.32453125 2.13695313 0.9765625 2.72265625 C-4.03503489 11.39880317 -5.3807136 19.07512056 -6 29 C-6.33 29 -6.66 29 -7 29 C-8.42332303 18.26319369 -8.16804614 10.78895297 -1.75 1.875 C-1.1725 1.25625 -0.595 0.6375 0 0 Z " fill="#1D1D1D" transform="translate(44,105)"/>
<path d="M0 0 C5.45873893 0.26627995 9.81714439 2.59214048 14 6 C14 6.66 14 7.32 14 8 C4.11764706 6.84705882 4.11764706 6.84705882 2 6 C1.67 5.01 1.34 4.02 1 3 C0.34 2.34 -0.32 1.68 -1 1 C-0.67 0.67 -0.34 0.34 0 0 Z " fill="#191919" transform="translate(118,71)"/>
<path d="M0 0 C-0.09765625 2.2890625 -0.09765625 2.2890625 -1 5 C-3.87109375 6.8359375 -3.87109375 6.8359375 -7.4375 8.375 C-9.19900391 9.16003906 -9.19900391 9.16003906 -10.99609375 9.9609375 C-11.98738281 10.30382812 -12.97867188 10.64671875 -14 11 C-14.66 10.67 -15.32 10.34 -16 10 C-13.71234889 8.32756577 -11.42026108 6.66193073 -9.125 5 C-8.47402344 4.52304688 -7.82304687 4.04609375 -7.15234375 3.5546875 C-2.2265625 0 -2.2265625 0 0 0 Z " fill="#121212" transform="translate(149,181)"/>
<path d="M0 0 C3.58513106 1.62184501 6.58992323 3.79256239 9.75 6.125 C11.22726563 7.21167969 11.22726563 7.21167969 12.734375 8.3203125 C13.48203125 8.87460938 14.2296875 9.42890625 15 10 C14.01 10.495 14.01 10.495 13 11 C10.75689987 10.10333658 8.55245679 9.10853317 6.375 8.0625 C5.18648437 7.49660156 3.99796875 6.93070313 2.7734375 6.34765625 C1.85820313 5.90292969 0.94296875 5.45820313 0 5 C0 3.35 0 1.7 0 0 Z " fill="#1F1F1F" transform="translate(50,181)"/>
<path d="M0 0 C8.69721116 -0.44223108 8.69721116 -0.44223108 13 3 C14.8125 5.1875 14.8125 5.1875 16 7 C15.34 8.32 14.68 9.64 14 11 C13.566875 10.05125 13.13375 9.1025 12.6875 8.125 C11.20697799 4.79958063 11.20697799 4.79958063 8 3 C5.72087062 2.54605448 5.72087062 2.54605448 3.3125 2.375 C2.50425781 2.30023438 1.69601563 2.22546875 0.86328125 2.1484375 C0.24839844 2.09945313 -0.36648437 2.05046875 -1 2 C-0.67 1.34 -0.34 0.68 0 0 Z " fill="#0A0A0A" transform="translate(96,6)"/>
<path d="M0 0 C0.33 0 0.66 0 1 0 C1.16728213 4.11149887 1.32787468 8.22319806 1.48217773 12.33520508 C1.53566026 13.73501681 1.59099434 15.13475904 1.64819336 16.53442383 C1.72992949 18.5422896 1.80453025 20.55044187 1.87890625 22.55859375 C1.9260376 23.76829834 1.97316895 24.97800293 2.02172852 26.22436523 C2 29 2 29 1 30 C-1.33297433 30.04092937 -3.66705225 30.04241723 -6 30 C-3 28 -3 28 0 28 C0 18.76 0 9.52 0 0 Z " fill="#171717" transform="translate(102,163)"/>
<path d="M0 0 C0.33 0 0.66 0 1 0 C0.98839844 1.14597656 0.97679688 2.29195312 0.96484375 3.47265625 C0.95545758 5.00260252 0.94635827 6.53255058 0.9375 8.0625 C0.92912109 8.81466797 0.92074219 9.56683594 0.91210938 10.34179688 C0.89191659 15.00633118 1.22404041 19.39923173 2 24 C1.01 24.33 0.02 24.66 -1 25 C-1.10094304 16.58807963 -1.10102642 8.35600408 0 0 Z " fill="#212121" transform="translate(113,165)"/>
<path d="M0 0 C1.25541557 3.76624671 0.37061958 5.37188934 -1 9 C-1.66 9 -2.32 9 -3 9 C-3.33 11.31 -3.66 13.62 -4 16 C-4.66 16 -5.32 16 -6 16 C-6.77843805 9.9281832 -4.17016902 5.93714848 -1 1 C-0.67 0.67 -0.34 0.34 0 0 Z " fill="#1D1D1D" transform="translate(82,26)"/>
<path d="M0 0 C0.66 0 1.32 0 2 0 C2.33872513 1.41538717 2.67074624 2.83237963 3 4.25 C3.185625 5.03890625 3.37125 5.8278125 3.5625 6.640625 C4 9 4 9 4 13 C2.35 13 0.7 13 -1 13 C-0.01 11.68 0.98 10.36 2 9 C1.34 9 0.68 9 0 9 C0 6.03 0 3.06 0 0 Z " fill="#282828" transform="translate(29,141)"/>
<path d="M0 0 C0.66 0 1.32 0 2 0 C3.4375 1.86328125 3.4375 1.86328125 5 4.3125 C5.7734375 5.51326172 5.7734375 5.51326172 6.5625 6.73828125 C7.036875 7.48464844 7.51125 8.23101562 8 9 C8.99 10.485 8.99 10.485 10 12 C7 12 7 12 5.4296875 10.64453125 C0.27714005 4.57281076 0.27714005 4.57281076 0 0 Z " fill="#101010" transform="translate(77,42)"/>
<path d="M0 0 C1.99609375 0.26953125 1.99609375 0.26953125 4.4375 0.8125 C5.64212891 1.06966797 5.64212891 1.06966797 6.87109375 1.33203125 C9 2 9 2 11 4 C11 4.66 11 5.32 11 6 C9.37276701 5.54965877 7.74826336 5.08944646 6.125 4.625 C5.22007813 4.36976563 4.31515625 4.11453125 3.3828125 3.8515625 C1 3 1 3 -1 1 C-0.67 0.67 -0.34 0.34 0 0 Z " fill="#1F1F1F" transform="translate(75,186)"/>
<path d="M0 0 C2.22574335 0.22451458 4.45581519 0.40782878 6.6875 0.5625 C7.86699219 0.64628906 9.04648438 0.73007813 10.26171875 0.81640625 C11.61716797 0.90728516 11.61716797 0.90728516 13 1 C13 1.33 13 1.66 13 2 C6.4 2 -0.2 2 -7 2 C-5.26578631 -1.46842738 -3.40984787 -1.13661596 0 0 Z " fill="#525252" transform="translate(79,75)"/>
<path d="M0 0 C8.58 0 17.16 0 26 0 C26 0.33 26 0.66 26 1 C17.42 1 8.84 1 0 1 C0 0.67 0 0.34 0 0 Z " fill="#FFFFFF" transform="translate(86,199)"/>
<path d="M0 0 C0.33 0 0.66 0 1 0 C1 8.58 1 17.16 1 26 C0.67 26 0.34 26 0 26 C0 17.42 0 8.84 0 0 Z " fill="#FFFFFF" transform="translate(199,86)"/>
<path d="M0 0 C2.81645906 3.18382329 3.72317437 5.75534029 4 10 C3.34 10.66 2.68 11.32 2 12 C1.4654744 10.75579353 0.94791389 9.50429064 0.4375 8.25 C0.14746094 7.55390625 -0.14257812 6.8578125 -0.44140625 6.140625 C-1.07831803 3.69987216 -0.80248831 2.3596345 0 0 Z " fill="#222222" transform="translate(38,142)"/>
<path d="M0 0 C4.05281712 1.22527029 7.44360764 2.69880494 11 5 C8 6 8 6 5.95703125 5.22265625 C5.24933594 4.83980469 4.54164062 4.45695313 3.8125 4.0625 C3.09707031 3.68222656 2.38164063 3.30195313 1.64453125 2.91015625 C1.10183594 2.60980469 0.55914062 2.30945313 0 2 C0 1.34 0 0.68 0 0 Z " fill="#0F0F0F" transform="translate(64,181)"/>
<path d="M0 0 C4.455 0.99 4.455 0.99 9 2 C9 2.66 9 3.32 9 4 C6.69 4 4.38 4 2 4 C1.34 2.68 0.68 1.36 0 0 Z " fill="#242424" transform="translate(18,158)"/>
<path d="M0 0 C0 0.33 0 0.66 0 1 C-2.97 1.66 -5.94 2.32 -9 3 C-9.33 2.01 -9.66 1.02 -10 0 C-6.30581799 -1.231394 -3.7943739 -0.64432764 0 0 Z " fill="#1C1C1C" transform="translate(89,70)"/>
<path d="M0 0 C4.75 0.875 4.75 0.875 7 2 C7 2.66 7 3.32 7 4 C4.36 3.67 1.72 3.34 -1 3 C-0.67 2.01 -0.34 1.02 0 0 Z " fill="#0D0D0D" transform="translate(125,75)"/>
<path d="M0 0 C0.99 0.33 1.98 0.66 3 1 C3 1.66 3 2.32 3 3 C3.66 3 4.32 3 5 3 C5 3.66 5 4.32 5 5 C3.35 5.33 1.7 5.66 0 6 C-0.33 5.34 -0.66 4.68 -1 4 C-0.34 4 0.32 4 1 4 C0.67 2.68 0.34 1.36 0 0 Z " fill="#1B1B1B" transform="translate(76,57)"/>
<path d="M0 0 C0.99 0 1.98 0 3 0 C1.71480435 2.86697492 0.42870746 4.97607712 -2 7 C-2.66 7 -3.32 7 -4 7 C-2.79618552 4.50638429 -1.54571278 2.31856917 0 0 Z " fill="#070707" transform="translate(115,48)"/>
<path d="M0 0 C2.99324263 1.0975223 3.84610901 1.67682892 5.25 4.625 C5.4975 5.40875 5.745 6.1925 6 7 C5.01 7.33 4.02 7.66 3 8 C0 2.25 0 2.25 0 0 Z " fill="#151515" transform="translate(111,18)"/>
<path d="M0 0 C0.33 0 0.66 0 1 0 C1 2.64 1 5.28 1 8 C0.01 7.67 -0.98 7.34 -2 7 C-1.125 1.125 -1.125 1.125 0 0 Z " fill="#3D3D3D" transform="translate(27,143)"/>
<path d="M0 0 C0.66 0 1.32 0 2 0 C2.33 2.64 2.66 5.28 3 8 C2.01 7.34 1.02 6.68 0 6 C-0.1875 2.875 -0.1875 2.875 0 0 Z " fill="#212121" transform="translate(40,173)"/>
<path d="M0 0 C0.99 0.33 1.98 0.66 3 1 C3.6875 3.0625 3.6875 3.0625 4 5 C2.35 5 0.7 5 -1 5 C-0.67 3.35 -0.34 1.7 0 0 Z " fill="#242424" transform="translate(22,147)"/>
<path d="M0 0 C2.72426311 2.35277269 3.8141763 4.62496331 5 8 C1.125 6.125 1.125 6.125 0 5 C-0.04063832 3.33382885 -0.042721 1.66611905 0 0 Z " fill="#191919" transform="translate(169,133)"/>
<path d="M0 0 C0.33 0.99 0.66 1.98 1 3 C1.99 3.66 2.98 4.32 4 5 C3.67 5.66 3.34 6.32 3 7 C1.02 6.01 -0.96 5.02 -3 4 C-3 3.34 -3 2.68 -3 2 C-2.01 1.34 -1.02 0.68 0 0 Z " fill="#090909" transform="translate(121,58)"/>
<path d="M0 0 C0.66 0.33 1.32 0.66 2 1 C1.67 2.32 1.34 3.64 1 5 C-1.31 5 -3.62 5 -6 5 C-3 3 -3 3 0 3 C0 2.01 0 1.02 0 0 Z " fill="#101010" transform="translate(102,188)"/>
<path d="M0 0 C2.97 0.495 2.97 0.495 6 1 C6 1.99 6 2.98 6 4 C3.69 3.34 1.38 2.68 -1 2 C-0.67 1.34 -0.34 0.68 0 0 Z " fill="#0D0D0D" transform="translate(118,71)"/>
<path d="M0 0 C1 3 1 3 -0.4375 6.1875 C-1.2109375 7.5796875 -1.2109375 7.5796875 -2 9 C-2.33 9 -2.66 9 -3 9 C-2.25 2.25 -2.25 2.25 0 0 Z " fill="#111111" transform="translate(87,16)"/>
<path d="M0 0 C0.66 0.33 1.32 0.66 2 1 C-0.31 3.31 -2.62 5.62 -5 8 C-5 5 -5 5 -2.5 2.3125 C-1.675 1.549375 -0.85 0.78625 0 0 Z " fill="#FFFFFF" transform="translate(30,25)"/>
<path d="M0 0 C1.98 0 3.96 0 6 0 C6 0.33 6 0.66 6 1 C4.02 1 2.04 1 0 1 C0 0.67 0 0.34 0 0 Z " fill="#FFFFFF" transform="translate(112,198)"/>
<path d="M0 0 C1.98 0 3.96 0 6 0 C6 0.33 6 0.66 6 1 C4.02 1 2.04 1 0 1 C0 0.67 0 0.34 0 0 Z " fill="#FFFFFF" transform="translate(80,198)"/>
<path d="M0 0 C1.65 0 3.3 0 5 0 C5 0.33 5 0.66 5 1 C3.35 1 1.7 1 0 1 C0 0.67 0 0.34 0 0 Z " fill="#FFFFFF" transform="translate(118,197)"/>
<path d="M0 0 C1.65 0 3.3 0 5 0 C5 0.33 5 0.66 5 1 C3.35 1 1.7 1 0 1 C0 0.67 0 0.34 0 0 Z " fill="#FFFFFF" transform="translate(75,197)"/>
<path d="M0 0 C1.65 0 3.3 0 5 0 C5 0.33 5 0.66 5 1 C3.35 1 1.7 1 0 1 C0 0.67 0 0.34 0 0 Z " fill="#FFFFFF" transform="translate(117,0)"/>
<path d="M0 0 C1.65 0 3.3 0 5 0 C5 0.33 5 0.66 5 1 C3.35 1 1.7 1 0 1 C0 0.67 0 0.34 0 0 Z " fill="#FFFFFF" transform="translate(76,0)"/>
<path d="M0 0 C4 1 4 1 4 1 Z " fill="#FFFFFF" transform="translate(123,196)"/>
<path d="M0 0 C4 1 4 1 4 1 Z " fill="#FFFFFF" transform="translate(68,195)"/>
<path d="M0 0 C4 1 4 1 4 1 Z " fill="#FFFFFF" transform="translate(69,2)"/>
<path d="M0 0 C4 1 4 1 4 1 Z " fill="#FFFFFF" transform="translate(122,1)"/>
<path d="M0 0 C3 1 3 1 3 1 Z " fill="#FFFFFF" transform="translate(72,196)"/>
<path d="M0 0 C3 1 3 1 3 1 Z " fill="#FFFFFF" transform="translate(127,195)"/>
<path d="M0 0 C3 1 3 1 3 1 Z " fill="#FFFFFF" transform="translate(130,194)"/>
<path d="M0 0 C3 1 3 1 3 1 Z " fill="#FFFFFF" transform="translate(65,194)"/>
<path d="M0 0 C3 1 3 1 3 1 Z " fill="#424242" transform="translate(135,192)"/>
<path d="M0 0 C3 1 3 1 3 1 Z " fill="#262626" transform="translate(60,192)"/>
<path d="" fill="#FFFFFF" transform="translate(0,0)"/>
<path d="" fill="#FFFFFF" transform="translate(0,0)"/>
<path d="" fill="#FFFFFF" transform="translate(0,0)"/>
<path d="" fill="#FFFFFF" transform="translate(0,0)"/>
<path d="" fill="#FFFFFF" transform="translate(0,0)"/>
<path d="" fill="#FFFFFF" transform="translate(0,0)"/>
<path d="M0 0 C3 1 3 1 3 1 Z " fill="#FFFFFF" transform="translate(137,6)"/>
<path d="M0 0 C3 1 3 1 3 1 Z " fill="#FFFFFF" transform="translate(132,4)"/>
<path d="M0 0 C3 1 3 1 3 1 Z " fill="#FFFFFF" transform="translate(63,4)"/>
<path d="M0 0 C3 1 3 1 3 1 Z " fill="#FFFFFF" transform="translate(129,3)"/>
<path d="M0 0 C3 1 3 1 3 1 Z " fill="#FFFFFF" transform="translate(66,3)"/>
<path d="M0 0 C3 1 3 1 3 1 Z " fill="#FFFFFF" transform="translate(126,2)"/>
<path d="M0 0 C3 1 3 1 3 1 Z " fill="#FFFFFF" transform="translate(73,1)"/>
<path d="M0 0 C2 1 2 1 2 1 Z " fill="#FFFFFF" transform="translate(133,193)"/>
<path d="M0 0 C2 1 2 1 2 1 Z " fill="#FFFFFF" transform="translate(63,193)"/>
<path d="M0 0 C2 1 2 1 2 1 Z " fill="#000000" transform="translate(138,191)"/>
<path d="M0 0 C2 1 2 1 2 1 Z " fill="#000000" transform="translate(58,191)"/>
<path d="M0 0 C2 1 2 1 2 1 Z " fill="#0A0A0A" transform="translate(140,190)"/>
<path d="M0 0 C2 1 2 1 2 1 Z " fill="#3C3C3C" transform="translate(56,190)"/>
<path d="M0 0 C2 1 2 1 2 1 Z " fill="#0A0A0A" transform="translate(142,189)"/>
<path d="M0 0 C2 1 2 1 2 1 Z " fill="#4F4F4F" transform="translate(54,189)"/>
<path d="M0 0 C2 1 2 1 2 1 Z " fill="#0A0A0A" transform="translate(144,188)"/>
<path d="M0 0 C2 1 2 1 2 1 Z " fill="#474747" transform="translate(52,188)"/>
<path d="M0 0 C2 1 2 1 2 1 Z " fill="#0A0A0A" transform="translate(146,187)"/>
<path d="M0 0 C2 1 2 1 2 1 Z " fill="#313131" transform="translate(50,187)"/>
<path d="M0 0 C2 1 2 1 2 1 Z " fill="#3D3D3D" transform="translate(148,186)"/>
<path d="M0 0 C2 1 2 1 2 1 Z " fill="#FFFFFF" transform="translate(47,185)"/>
<path d="M0 0 C2 1 2 1 2 1 Z " fill="#FFFFFF" transform="translate(151,184)"/>
<path d="M0 0 C2 1 2 1 2 1 Z " fill="#FFFFFF" transform="translate(45,184)"/>
<path d="M0 0 C2 1 2 1 2 1 Z " fill="#A3A3A3" transform="translate(154,182)"/>
<path d="M0 0 C2 1 2 1 2 1 Z " fill="#7F7F7F" transform="translate(42,182)"/>
<path d="M0 0 C2 1 2 1 2 1 Z " fill="#0A0A0A" transform="translate(157,180)"/>
<path d="M0 0 C2 1 2 1 2 1 Z " fill="#464646" transform="translate(38,179)"/>
<path d="M0 0 C2 1 2 1 2 1 Z " fill="#0A0A0A" transform="translate(162,176)"/>
<path d="M0 0 C2 1 2 1 2 1 Z " fill="#414141" transform="translate(32,174)"/>
<path d="" fill="#FFFFFF" transform="translate(0,0)"/>
<path d="" fill="#FFFFFF" transform="translate(0,0)"/>
<path d="" fill="#FFFFFF" transform="translate(0,0)"/>
<path d="" fill="#FFFFFF" transform="translate(0,0)"/>
<path d="" fill="#FFFFFF" transform="translate(0,0)"/>
<path d="" fill="#FFFFFF" transform="translate(0,0)"/>
<path d="" fill="#FFFFFF" transform="translate(0,0)"/>
<path d="" fill="#FFFFFF" transform="translate(0,0)"/>
<path d="M0 0 C2 1 2 1 2 1 Z " fill="#FFFFFF" transform="translate(164,23)"/>
<path d="M0 0 C2 1 2 1 2 1 Z " fill="#FFFFFF" transform="translate(37,19)"/>
<path d="M0 0 C2 1 2 1 2 1 Z " fill="#FFFFFF" transform="translate(158,18)"/>
<path d="M0 0 C2 1 2 1 2 1 Z " fill="#FFFFFF" transform="translate(155,16)"/>
<path d="M0 0 C2 1 2 1 2 1 Z " fill="#FFFFFF" transform="translate(41,16)"/>
<path d="M0 0 C2 1 2 1 2 1 Z " fill="#FFFFFF" transform="translate(152,14)"/>
<path d="M0 0 C2 1 2 1 2 1 Z " fill="#FFFFFF" transform="translate(44,14)"/>
<path d="M0 0 C2 1 2 1 2 1 Z " fill="#FFFFFF" transform="translate(149,12)"/>
<path d="M0 0 C2 1 2 1 2 1 Z " fill="#FFFFFF" transform="translate(47,12)"/>
<path d="M0 0 C2 1 2 1 2 1 Z " fill="#FFFFFF" transform="translate(147,11)"/>
<path d="M0 0 C2 1 2 1 2 1 Z " fill="#FFFFFF" transform="translate(49,11)"/>
<path d="M0 0 C2 1 2 1 2 1 Z " fill="#FFFFFF" transform="translate(51,10)"/>
<path d="M0 0 C2 1 2 1 2 1 Z " fill="#FFFFFF" transform="translate(144,9)"/>
<path d="M0 0 C2 1 2 1 2 1 Z " fill="#FFFFFF" transform="translate(53,9)"/>
<path d="M0 0 C2 1 2 1 2 1 Z " fill="#FFFFFF" transform="translate(142,8)"/>
<path d="M0 0 C2 1 2 1 2 1 Z " fill="#FFFFFF" transform="translate(55,8)"/>
<path d="M0 0 C2 1 2 1 2 1 Z " fill="#FFFFFF" transform="translate(140,7)"/>
<path d="M0 0 C2 1 2 1 2 1 Z " fill="#FFFFFF" transform="translate(57,7)"/>
<path d="M0 0 C2 1 2 1 2 1 Z " fill="#FFFFFF" transform="translate(59,6)"/>
<path d="M0 0 C2 1 2 1 2 1 Z " fill="#FFFFFF" transform="translate(135,5)"/>
<path d="M0 0 C2 1 2 1 2 1 Z " fill="#FFFFFF" transform="translate(61,5)"/>
<path d="" fill="#141414" transform="translate(0,0)"/>
<path d="" fill="#FFFFFF" transform="translate(0,0)"/>
<path d="" fill="#FFFFFF" transform="translate(0,0)"/>
<path d="" fill="#FFFFFF" transform="translate(0,0)"/>
<path d="" fill="#000000" transform="translate(0,0)"/>
<path d="" fill="#0C0C0C" transform="translate(0,0)"/>
<path d="" fill="#454545" transform="translate(0,0)"/>
<path d="" fill="#0A0A0A" transform="translate(0,0)"/>
<path d="" fill="#0A0A0A" transform="translate(0,0)"/>
<path d="" fill="#434343" transform="translate(0,0)"/>
<path d="" fill="#0A0A0A" transform="translate(0,0)"/>
<path d="" fill="#434343" transform="translate(0,0)"/>
<path d="" fill="#424242" transform="translate(0,0)"/>
<path d="" fill="#0A0A0A" transform="translate(0,0)"/>
<path d="" fill="#414141" transform="translate(0,0)"/>
<path d="" fill="#0A0A0A" transform="translate(0,0)"/>
<path d="" fill="#0A0A0A" transform="translate(0,0)"/>
<path d="" fill="#404040" transform="translate(0,0)"/>
<path d="" fill="#0A0A0A" transform="translate(0,0)"/>
<path d="" fill="#404040" transform="translate(0,0)"/>
<path d="" fill="#0A0A0A" transform="translate(0,0)"/>
<path d="" fill="#414141" transform="translate(0,0)"/>
<path d="" fill="#0A0A0A" transform="translate(0,0)"/>
<path d="" fill="#414141" transform="translate(0,0)"/>
<path d="" fill="#0A0A0A" transform="translate(0,0)"/>
<path d="" fill="#414141" transform="translate(0,0)"/>
<path d="" fill="#0A0A0A" transform="translate(0,0)"/>
<path d="" fill="#404040" transform="translate(0,0)"/>
<path d="" fill="#0A0A0A" transform="translate(0,0)"/>
<path d="" fill="#0A0A0A" transform="translate(0,0)"/>
<path d="" fill="#454545" transform="translate(0,0)"/>
<path d="" fill="#0A0A0A" transform="translate(0,0)"/>
<path d="" fill="#FFFFFF" transform="translate(0,0)"/>
<path d="" fill="#FFFFFF" transform="translate(0,0)"/>
<path d="" fill="#FFFFFF" transform="translate(0,0)"/>
<path d="" fill="#FFFFFF" transform="translate(0,0)"/>
<path d="" fill="#FFFFFF" transform="translate(0,0)"/>
<path d="" fill="#FFFFFF" transform="translate(0,0)"/>
<path d="" fill="#FFFFFF" transform="translate(0,0)"/>
<path d="" fill="#FFFFFF" transform="translate(0,0)"/>
<path d="" fill="#FFFFFF" transform="translate(0,0)"/>
<path d="" fill="#FFFFFF" transform="translate(0,0)"/>
<path d="" fill="#FFFFFF" transform="translate(0,0)"/>
<path d="" fill="#FFFFFF" transform="translate(0,0)"/>
<path d="" fill="#FFFFFF" transform="translate(0,0)"/>
<path d="" fill="#FFFFFF" transform="translate(0,0)"/>
<path d="" fill="#FFFFFF" transform="translate(0,0)"/>
<path d="" fill="#FFFFFF" transform="translate(0,0)"/>
<path d="" fill="#FFFFFF" transform="translate(0,0)"/>
<path d="" fill="#FFFFFF" transform="translate(0,0)"/>
<path d="" fill="#FFFFFF" transform="translate(0,0)"/>
<path d="" fill="#FFFFFF" transform="translate(0,0)"/>
<path d="" fill="#FFFFFF" transform="translate(0,0)"/>
<path d="" fill="#FFFFFF" transform="translate(0,0)"/>
<path d="" fill="#FFFFFF" transform="translate(0,0)"/>
<path d="" fill="#FFFFFF" transform="translate(0,0)"/>
<path d="" fill="#FFFFFF" transform="translate(0,0)"/>
<path d="" fill="#FFFFFF" transform="translate(0,0)"/>
<path d="" fill="#FFFFFF" transform="translate(0,0)"/>
<path d="" fill="#FFFFFF" transform="translate(0,0)"/>
<path d="" fill="#FFFFFF" transform="translate(0,0)"/>
<path d="" fill="#FFFFFF" transform="translate(0,0)"/>
<path d="" fill="#FFFFFF" transform="translate(0,0)"/>
<path d="" fill="#FFFFFF" transform="translate(0,0)"/>
</svg>
