<?xml version="1.0" encoding="UTF-8"?>
<svg version="1.1" xmlns="http://www.w3.org/2000/svg" width="64" height="64">
<path d="M0 0 C6.47496935 5.28699977 10.89385341 12.01682002 12.48828125 20.3046875 C13.45098895 30.92603642 11.69688696 39.81059549 4.86328125 48.1796875 C-1.65304959 54.98888714 -9.73881 58.38100539 -19.07421875 58.6171875 C-28.91069917 58.48555577 -36.45265729 55.40153127 -43.56640625 48.59375 C-49.91613191 41.12198447 -51.90948271 33.11373067 -51.78125 23.53125 C-50.98490145 13.99815002 -46.7695639 6.47261734 -39.51171875 0.3046875 C-27.03890251 -7.52359656 -12.53369022 -8.45975359 0 0 Z M-37.1015625 14.26171875 C-40.53802241 19.24030194 -41.19373485 24.36779329 -40.51171875 30.3046875 C-39.15896883 37.30952124 -35.28170386 41.32196355 -29.51171875 45.3046875 C-23.69657181 48.09111208 -17.55954392 48.13660317 -11.44921875 46.3046875 C-5.57482158 43.85991866 -1.76752518 38.92550091 0.92578125 33.3046875 C2.19773879 26.52091395 2.10348502 20.32202001 -1.51171875 14.3046875 C-6.70294376 8.47172165 -11.55257599 5.62397321 -19.38671875 4.9921875 C-27.31570573 5.27914131 -32.16434317 8.08738295 -37.1015625 14.26171875 Z " fill="#51B5FB" transform="translate(51.51171875,5.6953125)"/>
</svg>
