<?xml version="1.0" encoding="UTF-8"?>
<svg version="1.1" xmlns="http://www.w3.org/2000/svg" width="200" height="200">
<path d="M0 0 C1.25296875 0.4125 2.5059375 0.825 3.796875 1.25 C28.74462541 10.06760046 48.21993996 28.50355897 60.08447266 52.01074219 C70.70512729 75.08730057 73.09510894 102.81586203 65 127 C64.5875 128.25296875 64.175 129.5059375 63.75 130.796875 C54.93239954 155.74462541 36.49644103 175.21993996 12.98925781 187.08447266 C-10.08730057 197.70512729 -37.81586203 200.09510894 -62 192 C-63.87945312 191.38125 -63.87945312 191.38125 -65.796875 190.75 C-90.74462541 181.93239954 -110.21993996 163.49644103 -122.08447266 139.98925781 C-132.70512729 116.91269943 -135.09510894 89.18413797 -127 65 C-126.5875 63.74703125 -126.175 62.4940625 -125.75 61.203125 C-116.93239954 36.25537459 -98.49644103 16.78006004 -74.98925781 4.91552734 C-51.91269943 -5.70512729 -24.18413797 -8.09510894 0 0 Z " fill="#030303" transform="translate(131,4)"/>
<path d="M0 0 C0.91349685 0.00092179 1.82699369 0.00184359 2.76817226 0.00279331 C3.81290203 0.00141865 4.8576318 0.00004398 5.93402004 -0.00137234 C7.08991634 0.00222294 8.24581264 0.00581821 9.43673611 0.00952244 C10.64632488 0.00937641 11.85591366 0.00923038 13.10215664 0.00907993 C16.42846172 0.0096589 19.75470541 0.0146881 23.08099961 0.02165389 C26.55369751 0.02788805 30.02639615 0.02849128 33.49909878 0.0296793 C40.07936014 0.03279243 46.65960497 0.04100557 53.23985904 0.05102879 C60.72945933 0.06219049 68.21906039 0.06770052 75.70866692 0.07272422 C91.11925361 0.0831882 106.52982378 0.1007873 121.94039822 0.12304783 C120.9052699 7.82640149 120.9052699 7.82640149 119.26852322 11.13086033 C118.93336697 11.80761814 118.59821072 12.48437595 118.25289822 13.18164158 C117.90227322 13.86355564 117.55164822 14.5454697 117.19039822 15.24804783 C116.85524197 15.93769627 116.52008572 16.6273447 116.17477322 17.33789158 C115.83446072 18.01207127 115.49414822 18.68625095 115.14352322 19.38086033 C114.84091579 19.98043552 114.53830837 20.58001072 114.22653103 21.19775486 C112.35267535 24.0028471 110.58517861 25.99750753 107.94039822 28.12304783 C105.08438346 28.5625365 102.84986364 28.7132477 100.01461697 28.61132908 C99.26702618 28.60425434 98.51943539 28.5971796 97.74919033 28.58989048 C95.37438419 28.56202427 93.00198471 28.49930915 90.62789822 28.43554783 C89.01269803 28.41045451 87.39746068 28.38764314 85.78219509 28.36718845 C81.83326921 28.31648319 77.8895086 28.21864222 73.94039822 28.12304783 C73.94039822 34.39304783 73.94039822 40.66304783 73.94039822 47.12304783 C64.70039822 47.12304783 55.46039822 47.12304783 45.94039822 47.12304783 C45.94039822 40.85304783 45.94039822 34.58304783 45.94039822 28.12304783 C43.47184353 28.1926572 41.00328884 28.26226658 38.45992947 28.33398533 C36.06048105 28.38082088 33.66108415 28.41722733 31.26144314 28.45263767 C29.59779864 28.48275328 27.9343122 28.52365632 26.27120876 28.57568455 C23.87538567 28.64874104 21.48166569 28.68255264 19.08492947 28.70898533 C18.34515362 28.73995304 17.60537777 28.77092075 16.84318447 28.80282688 C12.61168608 28.80556503 11.15373309 28.32932656 8.06906033 25.34668064 C6.45285889 22.89911512 4.96264423 20.61265088 3.73727322 17.95898533 C3.39696072 17.22937595 3.05664822 16.49976658 2.70602322 15.74804783 C2.37086697 15.00554783 2.03571072 14.26304783 1.69039822 13.49804783 C1.33977322 12.74781345 0.98914822 11.99757908 0.62789822 11.22461033 C-2.4210503 4.6107374 -2.4210503 4.6107374 -3.05960178 1.12304783 C-2.05960178 0.12304783 -2.05960178 0.12304783 0 0 Z " fill="#FBFBFB" transform="translate(40.05960178375244,50.876952171325684)"/>
<path d="M0 0 C9.24 0 18.48 0 28 0 C29.03508182 17.50229264 29.01934749 33.87385895 17 48 C14.82519531 48.74975586 14.82519531 48.74975586 13 49 C12.48050781 47.94941406 11.96101563 46.89882812 11.42578125 45.81640625 C10.72146483 44.39838253 10.01703142 42.98041691 9.3125 41.5625 C8.80299805 40.53092773 8.80299805 40.53092773 8.28320312 39.47851562 C7.93837891 38.78564453 7.59355469 38.09277344 7.23828125 37.37890625 C6.88290283 36.65775635 6.52752441 35.93660645 6.16137695 35.19360352 C5.03055131 32.97634313 5.03055131 32.97634313 3.62573242 30.89819336 C-0.50662501 24.44555574 -0.60493344 18.96054434 -0.3125 11.4375 C-0.209375 7.663125 -0.10625 3.88875 0 0 Z " fill="#FBFBFB" transform="translate(86,126)"/>
<path d="M0 0 C8.91 0 17.82 0 27 0 C25.86133081 5.69334595 23.71729271 10.04330441 21.125 15.1875 C20.45404297 16.55938477 20.45404297 16.55938477 19.76953125 17.95898438 C19.33253906 18.83232422 18.89554688 19.70566406 18.4453125 20.60546875 C17.85000732 21.79885864 17.85000732 21.79885864 17.24267578 23.01635742 C16 25 16 25 13 27 C8.71 27 4.42 27 0 27 C0 18.09 0 9.18 0 0 Z " fill="#FBFBFB" transform="translate(114,99)"/>
</svg>
