<?xml version="1.0" encoding="UTF-8"?>
<svg version="1.1" xmlns="http://www.w3.org/2000/svg" width="200" height="200">
<path d="M0 0 C2.82045877 2.30263418 5.56336058 4.67903285 8.27832031 7.10449219 C11.1535235 9.666713 11.1535235 9.666713 14.50878906 11.77246094 C17.18066406 13.58496094 17.18066406 13.58496094 17.86816406 15.77246094 C18.02285156 16.66964844 18.02285156 16.66964844 18.18066406 17.58496094 C19.17066406 17.91496094 20.16066406 18.24496094 21.18066406 18.58496094 C21.51066406 19.57496094 21.84066406 20.56496094 22.18066406 21.58496094 C22.78394531 22.1740625 23.38722656 22.76316406 24.00878906 23.37011719 C26.61161449 26.02443736 28.16331475 28.75588582 29.93066406 32.02246094 C30.85105469 33.69115234 30.85105469 33.69115234 31.79003906 35.39355469 C33.13514811 38.48050439 33.50200878 40.27881822 33.18066406 43.58496094 C33.84066406 43.58496094 34.50066406 43.58496094 35.18066406 43.58496094 C39.64424539 56.0781479 40.85665551 67.12735329 40.55566406 80.33496094 C40.53909422 82.04587815 40.52476266 83.75681854 40.51269531 85.46777344 C40.3702832 98.68935945 40.3702832 98.68935945 39.18066406 103.58496094 C38.52066406 103.58496094 37.86066406 103.58496094 37.18066406 103.58496094 C37.18066406 105.89496094 37.18066406 108.20496094 37.18066406 110.58496094 C36.52066406 110.58496094 35.86066406 110.58496094 35.18066406 110.58496094 C34.52066406 113.88496094 33.86066406 117.18496094 33.18066406 120.58496094 C32.52066406 120.58496094 31.86066406 120.58496094 31.18066406 120.58496094 C31.10589844 121.42542969 31.03113281 122.26589844 30.95410156 123.13183594 C30.00301116 127.37811833 28.20111083 130.25695184 25.80566406 133.83496094 C25.40605469 134.45886719 25.00644531 135.08277344 24.59472656 135.72558594 C22.64505024 138.70140769 21.175244 140.58857431 18.18066406 142.58496094 C17.87128906 143.24496094 17.56191406 143.90496094 17.24316406 144.58496094 C16.18066406 146.58496094 16.18066406 146.58496094 14.29394531 147.52246094 C12.05773456 148.64676653 10.95666201 149.72870379 9.30566406 151.58496094 C-7.5531495 168.76523493 -31.7922615 178.47350042 -55.67724609 178.87768555 C-83.14890277 179.03784131 -105.50892955 171.73865683 -126.31811523 153.40429688 C-129.3378039 150.75277047 -132.36813316 148.62599484 -135.81933594 146.58496094 C-136.52084746 145.26962683 -137.18459519 143.93378502 -137.81933594 142.58496094 C-139.08777344 141.37839844 -139.08777344 141.37839844 -140.38183594 140.14746094 C-142.93144067 137.46710724 -143.50996572 136.19428011 -143.81933594 132.58496094 C-144.80933594 132.25496094 -145.79933594 131.92496094 -146.81933594 131.58496094 C-150.62798259 125.57828936 -153.21756631 119.65575401 -153.81933594 112.58496094 C-154.47933594 111.59496094 -155.13933594 110.60496094 -155.81933594 109.58496094 C-156.19144014 108.26192377 -156.52563767 106.92758159 -156.81933594 105.58496094 C-157.14933594 104.59496094 -157.47933594 103.60496094 -157.81933594 102.58496094 C-158.14933594 102.58496094 -158.47933594 102.58496094 -158.81933594 102.58496094 C-158.87027326 96.32278946 -158.90516878 90.06067193 -158.92919922 83.79833984 C-158.93922299 81.67038984 -158.95284555 79.5424535 -158.97021484 77.41455078 C-158.99462286 74.34631976 -159.00585555 71.27827173 -159.01464844 68.20996094 C-159.02497101 67.26693115 -159.03529358 66.32390137 -159.04592896 65.35229492 C-159.04686971 59.74541582 -158.41278806 54.96630789 -156.81933594 49.58496094 C-156.15933594 49.58496094 -155.49933594 49.58496094 -154.81933594 49.58496094 C-154.69816406 48.88628906 -154.57699219 48.18761719 -154.45214844 47.46777344 C-154.28457031 46.55769531 -154.11699219 45.64761719 -153.94433594 44.70996094 C-153.78191406 43.80503906 -153.61949219 42.90011719 -153.45214844 41.96777344 C-152.81933594 39.58496094 -152.81933594 39.58496094 -150.81933594 37.58496094 C-149.71378412 35.63398714 -148.89319267 33.94732054 -148.44433594 31.74511719 C-147.67559861 29.08816878 -146.42875814 27.18569548 -144.88183594 24.89746094 C-144.3571875 24.10984375 -143.83253906 23.32222656 -143.29199219 22.51074219 C-141.81933594 20.58496094 -141.81933594 20.58496094 -139.81933594 19.58496094 C-139.48933594 18.59496094 -139.15933594 17.60496094 -138.81933594 16.58496094 C-138.25988281 16.318125 -137.70042969 16.05128906 -137.12402344 15.77636719 C-133.75454168 14.03451645 -131.50732154 11.25605376 -128.94433594 8.52246094 C-95.59880991 -25.77011212 -37.69548479 -29.31871039 0 0 Z M34.18066406 46.58496094 C35.18066406 48.58496094 35.18066406 48.58496094 35.18066406 48.58496094 Z M35.18066406 49.58496094 C36.18066406 51.58496094 36.18066406 51.58496094 36.18066406 51.58496094 Z M36.18066406 52.58496094 C37.18066406 55.58496094 37.18066406 55.58496094 37.18066406 55.58496094 Z M-156.81933594 53.58496094 C-155.81933594 56.58496094 -155.81933594 56.58496094 -155.81933594 56.58496094 Z M37.18066406 56.58496094 C38.18066406 59.58496094 38.18066406 59.58496094 38.18066406 59.58496094 Z M-157.81933594 57.58496094 C-156.81933594 61.58496094 -156.81933594 61.58496094 -156.81933594 61.58496094 Z M38.18066406 60.58496094 C38.18066406 62.23496094 38.18066406 63.88496094 38.18066406 65.58496094 C38.51066406 65.58496094 38.84066406 65.58496094 39.18066406 65.58496094 C39.18066406 63.93496094 39.18066406 62.28496094 39.18066406 60.58496094 C38.85066406 60.58496094 38.52066406 60.58496094 38.18066406 60.58496094 Z M38.18066406 93.58496094 C38.18066406 95.23496094 38.18066406 96.88496094 38.18066406 98.58496094 C38.51066406 98.58496094 38.84066406 98.58496094 39.18066406 98.58496094 C39.18066406 96.93496094 39.18066406 95.28496094 39.18066406 93.58496094 C38.85066406 93.58496094 38.52066406 93.58496094 38.18066406 93.58496094 Z " fill="#FCFDFD" transform="translate(158.8193359375,19.4150390625)"/>
<path d="M0 0 C2.82045877 2.30263418 5.56336058 4.67903285 8.27832031 7.10449219 C11.1535235 9.666713 11.1535235 9.666713 14.50878906 11.77246094 C17.18066406 13.58496094 17.18066406 13.58496094 17.86816406 15.77246094 C18.02285156 16.66964844 18.02285156 16.66964844 18.18066406 17.58496094 C19.17066406 17.91496094 20.16066406 18.24496094 21.18066406 18.58496094 C21.51066406 19.57496094 21.84066406 20.56496094 22.18066406 21.58496094 C22.78394531 22.1740625 23.38722656 22.76316406 24.00878906 23.37011719 C26.61161449 26.02443736 28.16331475 28.75588582 29.93066406 32.02246094 C30.85105469 33.69115234 30.85105469 33.69115234 31.79003906 35.39355469 C33.13514811 38.48050439 33.50200878 40.27881822 33.18066406 43.58496094 C33.84066406 43.58496094 34.50066406 43.58496094 35.18066406 43.58496094 C39.64424539 56.0781479 40.85665551 67.12735329 40.55566406 80.33496094 C40.53909422 82.04587815 40.52476266 83.75681854 40.51269531 85.46777344 C40.3702832 98.68935945 40.3702832 98.68935945 39.18066406 103.58496094 C38.52066406 103.58496094 37.86066406 103.58496094 37.18066406 103.58496094 C37.18066406 105.89496094 37.18066406 108.20496094 37.18066406 110.58496094 C36.52066406 110.58496094 35.86066406 110.58496094 35.18066406 110.58496094 C34.52066406 113.88496094 33.86066406 117.18496094 33.18066406 120.58496094 C32.52066406 120.58496094 31.86066406 120.58496094 31.18066406 120.58496094 C31.10589844 121.42542969 31.03113281 122.26589844 30.95410156 123.13183594 C30.00301116 127.37811833 28.20111083 130.25695184 25.80566406 133.83496094 C25.40605469 134.45886719 25.00644531 135.08277344 24.59472656 135.72558594 C22.64505024 138.70140769 21.175244 140.58857431 18.18066406 142.58496094 C17.87128906 143.24496094 17.56191406 143.90496094 17.24316406 144.58496094 C16.18066406 146.58496094 16.18066406 146.58496094 14.29394531 147.52246094 C12.05773456 148.64676653 10.95666201 149.72870379 9.30566406 151.58496094 C-7.5531495 168.76523493 -31.7922615 178.47350042 -55.67724609 178.87768555 C-83.14890277 179.03784131 -105.50892955 171.73865683 -126.31811523 153.40429688 C-129.3378039 150.75277047 -132.36813316 148.62599484 -135.81933594 146.58496094 C-136.52084746 145.26962683 -137.18459519 143.93378502 -137.81933594 142.58496094 C-139.08777344 141.37839844 -139.08777344 141.37839844 -140.38183594 140.14746094 C-142.93144067 137.46710724 -143.50996572 136.19428011 -143.81933594 132.58496094 C-144.80933594 132.25496094 -145.79933594 131.92496094 -146.81933594 131.58496094 C-150.62798259 125.57828936 -153.21756631 119.65575401 -153.81933594 112.58496094 C-154.47933594 111.59496094 -155.13933594 110.60496094 -155.81933594 109.58496094 C-156.19144014 108.26192377 -156.52563767 106.92758159 -156.81933594 105.58496094 C-157.14933594 104.59496094 -157.47933594 103.60496094 -157.81933594 102.58496094 C-158.14933594 102.58496094 -158.47933594 102.58496094 -158.81933594 102.58496094 C-158.87027326 96.32278946 -158.90516878 90.06067193 -158.92919922 83.79833984 C-158.93922299 81.67038984 -158.95284555 79.5424535 -158.97021484 77.41455078 C-158.99462286 74.34631976 -159.00585555 71.27827173 -159.01464844 68.20996094 C-159.02497101 67.26693115 -159.03529358 66.32390137 -159.04592896 65.35229492 C-159.04686971 59.74541582 -158.41278806 54.96630789 -156.81933594 49.58496094 C-156.15933594 49.58496094 -155.49933594 49.58496094 -154.81933594 49.58496094 C-154.69816406 48.88628906 -154.57699219 48.18761719 -154.45214844 47.46777344 C-154.28457031 46.55769531 -154.11699219 45.64761719 -153.94433594 44.70996094 C-153.78191406 43.80503906 -153.61949219 42.90011719 -153.45214844 41.96777344 C-152.81933594 39.58496094 -152.81933594 39.58496094 -150.81933594 37.58496094 C-149.71378412 35.63398714 -148.89319267 33.94732054 -148.44433594 31.74511719 C-147.67559861 29.08816878 -146.42875814 27.18569548 -144.88183594 24.89746094 C-144.3571875 24.10984375 -143.83253906 23.32222656 -143.29199219 22.51074219 C-141.81933594 20.58496094 -141.81933594 20.58496094 -139.81933594 19.58496094 C-139.48933594 18.59496094 -139.15933594 17.60496094 -138.81933594 16.58496094 C-138.25988281 16.318125 -137.70042969 16.05128906 -137.12402344 15.77636719 C-133.75454168 14.03451645 -131.50732154 11.25605376 -128.94433594 8.52246094 C-95.59880991 -25.77011212 -37.69548479 -29.31871039 0 0 Z M-72.81933594 -7.41503906 C-72.81933594 -6.75503906 -72.81933594 -6.09503906 -72.81933594 -5.41503906 C-73.79515625 -5.28226563 -74.77097656 -5.14949219 -75.77636719 -5.01269531 C-77.04867187 -4.83609375 -78.32097656 -4.65949219 -79.63183594 -4.47753906 C-80.89640625 -4.30351562 -82.16097656 -4.12949219 -83.46386719 -3.95019531 C-86.80255297 -3.51111451 -86.80255297 -3.51111451 -89.81933594 -2.41503906 C-89.81933594 -1.75503906 -89.81933594 -1.09503906 -89.81933594 -0.41503906 C-90.77646484 -0.25068359 -90.77646484 -0.25068359 -91.75292969 -0.08300781 C-92.57921875 0.07554688 -93.40550781 0.23410156 -94.25683594 0.39746094 C-95.08054688 0.54828125 -95.90425781 0.69910156 -96.75292969 0.85449219 C-97.43484375 1.09554688 -98.11675781 1.33660156 -98.81933594 1.58496094 C-99.14933594 2.57496094 -99.47933594 3.56496094 -99.81933594 4.58496094 C-100.56183594 4.70871094 -101.30433594 4.83246094 -102.06933594 4.95996094 C-104.64863642 5.54616559 -106.56755213 6.21780649 -108.81933594 7.58496094 C-109.14933594 8.24496094 -109.47933594 8.90496094 -109.81933594 9.58496094 C-110.66496094 10.07996094 -111.51058594 10.57496094 -112.38183594 11.08496094 C-113.18621094 11.57996094 -113.99058594 12.07496094 -114.81933594 12.58496094 C-114.81933594 13.24496094 -114.81933594 13.90496094 -114.81933594 14.58496094 C-115.45871094 14.85308594 -116.09808594 15.12121094 -116.75683594 15.39746094 C-119.1506528 16.47163846 -119.1506528 16.47163846 -119.81933594 19.58496094 C-121.15266927 20.2516276 -122.4860026 20.91829427 -123.81933594 21.58496094 C-124.14933594 22.57496094 -124.47933594 23.56496094 -124.81933594 24.58496094 C-126.15266927 25.2516276 -127.4860026 25.91829427 -128.81933594 26.58496094 C-129.14933594 27.57496094 -129.47933594 28.56496094 -129.81933594 29.58496094 C-130.81933594 30.58496094 -131.81933594 31.58496094 -132.81933594 32.58496094 C-134.40847152 35.26139981 -134.81933594 36.40296653 -134.81933594 39.58496094 C-136.30433594 40.07996094 -136.30433594 40.07996094 -137.81933594 40.58496094 C-138.62497232 42.69080532 -138.62497232 42.69080532 -139.00683594 45.14746094 C-139.16539062 45.97375 -139.32394531 46.80003906 -139.48730469 47.65136719 C-139.596875 48.28945312 -139.70644531 48.92753906 -139.81933594 49.58496094 C-140.47933594 49.58496094 -141.13933594 49.58496094 -141.81933594 49.58496094 C-144.41208732 57.92530598 -144.41208732 57.92530598 -144.81933594 66.58496094 C-145.47933594 66.58496094 -146.13933594 66.58496094 -146.81933594 66.58496094 C-146.81933594 74.50496094 -146.81933594 82.42496094 -146.81933594 90.58496094 C-146.15933594 90.58496094 -145.49933594 90.58496094 -144.81933594 90.58496094 C-144.88121094 91.84308594 -144.94308594 93.10121094 -145.00683594 94.39746094 C-145.03403252 100.09061197 -143.51338941 105.19020733 -141.81933594 110.58496094 C-141.15933594 110.58496094 -140.49933594 110.58496094 -139.81933594 110.58496094 C-139.63371094 111.91527344 -139.63371094 111.91527344 -139.44433594 113.27246094 C-138.87520857 116.28883596 -138.05319158 118.78822148 -136.81933594 121.58496094 C-136.15933594 121.58496094 -135.49933594 121.58496094 -134.81933594 121.58496094 C-134.69558594 122.32746094 -134.57183594 123.06996094 -134.44433594 123.83496094 C-133.85813128 126.41426142 -133.18649039 128.33317713 -131.81933594 130.58496094 C-131.15933594 130.91496094 -130.49933594 131.24496094 -129.81933594 131.58496094 C-129.42746094 132.30683594 -129.03558594 133.02871094 -128.63183594 133.77246094 C-126.64560514 136.85454321 -124.53250166 138.61678977 -121.71386719 140.90136719 C-119.65502722 142.73097548 -117.99638079 144.70199352 -116.25683594 146.83496094 C-113.43174929 150.18415868 -111.236656 151.72304483 -106.81933594 152.58496094 C-106.81933594 153.24496094 -106.81933594 153.90496094 -106.81933594 154.58496094 C-105.68496094 155.03871094 -104.55058594 155.49246094 -103.38183594 155.95996094 C-99.81933594 157.58496094 -99.81933594 157.58496094 -98.81933594 159.58496094 C-96.81019201 160.49609758 -96.81019201 160.49609758 -94.44433594 161.20996094 C-93.65285156 161.47035156 -92.86136719 161.73074219 -92.04589844 161.99902344 C-89.71952685 162.71220759 -89.71952685 162.71220759 -86.81933594 162.58496094 C-86.81933594 163.24496094 -86.81933594 163.90496094 -86.81933594 164.58496094 C-85.97628906 164.71773437 -85.13324219 164.85050781 -84.26464844 164.98730469 C-83.16894531 165.16390625 -82.07324219 165.34050781 -80.94433594 165.52246094 C-79.85378906 165.69648438 -78.76324219 165.87050781 -77.63964844 166.04980469 C-74.81933594 166.58496094 -74.81933594 166.58496094 -72.81933594 167.58496094 C-69.07534339 167.83127624 -65.32051743 167.77499819 -61.56933594 167.77246094 C-60.48571777 167.77238037 -59.40209961 167.7722998 -58.28564453 167.7722168 C-45.2053261 167.99433826 -45.2053261 167.99433826 -32.81933594 164.58496094 C-32.81933594 163.92496094 -32.81933594 163.26496094 -32.81933594 162.58496094 C-31.62308594 162.46121094 -30.42683594 162.33746094 -29.19433594 162.20996094 C-25.53982886 161.7490906 -22.24142891 161.00387753 -18.81933594 159.58496094 C-18.48933594 158.92496094 -18.15933594 158.26496094 -17.81933594 157.58496094 C-15.84410748 156.53688053 -13.84452085 155.53291983 -11.81933594 154.58496094 C-11.81933594 153.92496094 -11.81933594 153.26496094 -11.81933594 152.58496094 C-11.24183594 152.46121094 -10.66433594 152.33746094 -10.06933594 152.20996094 C-5.78073254 151.01868222 -3.36565412 149.35213559 -0.56933594 145.89746094 C2.49625274 142.24921178 5.78186653 139.22013694 9.48144531 136.22558594 C11.33204014 134.43880473 12.25347911 132.97587441 13.18066406 130.58496094 C13.18066406 129.59496094 13.18066406 128.60496094 13.18066406 127.58496094 C14.17066406 127.25496094 15.16066406 126.92496094 16.18066406 126.58496094 C16.882783 124.93291638 17.5503782 123.26572325 18.18066406 121.58496094 C18.84066406 121.25496094 19.50066406 120.92496094 20.18066406 120.58496094 C21.09601038 118.37950423 21.09601038 118.37950423 21.80566406 115.77246094 C22.06605469 114.89976562 22.32644531 114.02707031 22.59472656 113.12792969 C23.33035175 110.37024974 23.33035175 110.37024974 23.18066406 106.58496094 C23.84066406 106.58496094 24.50066406 106.58496094 25.18066406 106.58496094 C25.49003906 105.59496094 25.79941406 104.60496094 26.11816406 103.58496094 C26.2921875 103.02808594 26.46621094 102.47121094 26.64550781 101.89746094 C28.38137032 94.39650761 28.36359398 86.86942638 28.36816406 79.20996094 C28.38041016 78.13746094 28.39265625 77.06496094 28.40527344 75.95996094 C28.42017087 67.79616839 27.16885369 60.46395862 25.18066406 52.58496094 C24.52066406 52.58496094 23.86066406 52.58496094 23.18066406 52.58496094 C23.05691406 51.71871094 22.93316406 50.85246094 22.80566406 49.95996094 C22.19599539 46.66775012 21.41126447 43.6976561 20.18066406 40.58496094 C19.52066406 40.25496094 18.86066406 39.92496094 18.18066406 39.58496094 C17.12713563 37.27530246 16.1234731 34.94198354 15.18066406 32.58496094 C14.52066406 32.58496094 13.86066406 32.58496094 13.18066406 32.58496094 C12.84035156 31.25464844 12.84035156 31.25464844 12.49316406 29.89746094 C10.97611022 26.06870601 9.21286588 24.33509747 6.18066406 21.58496094 C3.63704113 19.041338 1.10063617 16.50102924 -1.38183594 13.89746094 C-3.54140753 11.84863661 -5.17315181 10.81354643 -7.81933594 9.58496094 C-8.14933594 8.92496094 -8.47933594 8.26496094 -8.81933594 7.58496094 C-13.06345505 5.17511832 -13.06345505 5.17511832 -17.81933594 4.58496094 C-18.14933594 3.59496094 -18.47933594 2.60496094 -18.81933594 1.58496094 C-22.42312574 0.0633608 -24.87154279 -0.41503906 -28.81933594 -0.41503906 C-28.81933594 -1.07503906 -28.81933594 -1.73503906 -28.81933594 -2.41503906 C-35.69514892 -4.57417286 -41.60461965 -5.76986118 -48.81933594 -5.41503906 C-48.81933594 -6.07503906 -48.81933594 -6.73503906 -48.81933594 -7.41503906 C-56.73933594 -7.41503906 -64.65933594 -7.41503906 -72.81933594 -7.41503906 Z M34.18066406 46.58496094 C35.18066406 48.58496094 35.18066406 48.58496094 35.18066406 48.58496094 Z M35.18066406 49.58496094 C36.18066406 51.58496094 36.18066406 51.58496094 36.18066406 51.58496094 Z M36.18066406 52.58496094 C37.18066406 55.58496094 37.18066406 55.58496094 37.18066406 55.58496094 Z M-156.81933594 53.58496094 C-155.81933594 56.58496094 -155.81933594 56.58496094 -155.81933594 56.58496094 Z M37.18066406 56.58496094 C38.18066406 59.58496094 38.18066406 59.58496094 38.18066406 59.58496094 Z M-157.81933594 57.58496094 C-156.81933594 61.58496094 -156.81933594 61.58496094 -156.81933594 61.58496094 Z M38.18066406 60.58496094 C38.18066406 62.23496094 38.18066406 63.88496094 38.18066406 65.58496094 C38.51066406 65.58496094 38.84066406 65.58496094 39.18066406 65.58496094 C39.18066406 63.93496094 39.18066406 62.28496094 39.18066406 60.58496094 C38.85066406 60.58496094 38.52066406 60.58496094 38.18066406 60.58496094 Z M38.18066406 93.58496094 C38.18066406 95.23496094 38.18066406 96.88496094 38.18066406 98.58496094 C38.51066406 98.58496094 38.84066406 98.58496094 39.18066406 98.58496094 C39.18066406 96.93496094 39.18066406 95.28496094 39.18066406 93.58496094 C38.85066406 93.58496094 38.52066406 93.58496094 38.18066406 93.58496094 Z " fill="#108BC8" transform="translate(158.8193359375,19.4150390625)"/>
<path d="M0 0 C1.42629561 0.0130693 2.85262281 0.02302719 4.27896118 0.03001404 C8.01820907 0.05663695 11.75552843 0.12530233 15.49401855 0.20294189 C19.31475741 0.27478016 23.13581051 0.30656898 26.95703125 0.34179688 C34.44358395 0.41668509 41.92855218 0.53602136 49.4140625 0.68359375 C49.4140625 1.34359375 49.4140625 2.00359375 49.4140625 2.68359375 C50.0328125 2.76609375 50.6515625 2.84859375 51.2890625 2.93359375 C53.4140625 3.68359375 53.4140625 3.68359375 54.6640625 5.74609375 C54.9115625 6.38546875 55.1590625 7.02484375 55.4140625 7.68359375 C56.0740625 7.68359375 56.7340625 7.68359375 57.4140625 7.68359375 C57.4140625 11.31359375 57.4140625 14.94359375 57.4140625 18.68359375 C56.7540625 19.01359375 56.0940625 19.34359375 55.4140625 19.68359375 C54.57340618 21.64659229 53.94888902 23.64430246 53.29296875 25.67578125 C52.320962 27.89627666 51.17047427 29.04334678 49.4140625 30.68359375 C48.23831539 32.78349027 48.23831539 32.78349027 47.4140625 34.68359375 C46.7540625 34.68359375 46.0940625 34.68359375 45.4140625 34.68359375 C45.2284375 35.79734375 45.2284375 35.79734375 45.0390625 36.93359375 C44.45919549 39.4850086 43.67697511 41.41035105 42.4140625 43.68359375 C41.7540625 43.68359375 41.0940625 43.68359375 40.4140625 43.68359375 C39.4240625 46.65359375 38.4340625 49.62359375 37.4140625 52.68359375 C36.7540625 52.68359375 36.0940625 52.68359375 35.4140625 52.68359375 C35.1046875 53.63234375 34.7953125 54.58109375 34.4765625 55.55859375 C33.4140625 58.68359375 33.4140625 58.68359375 32.4140625 60.68359375 C31.7540625 60.68359375 31.0940625 60.68359375 30.4140625 60.68359375 C30.2903125 61.24046875 30.1665625 61.79734375 30.0390625 62.37109375 C29.35429395 64.90473739 28.42272487 67.26280407 27.4140625 69.68359375 C26.7540625 69.68359375 26.0940625 69.68359375 25.4140625 69.68359375 C25.2284375 70.54984375 25.2284375 70.54984375 25.0390625 71.43359375 C23.81645294 75.83498817 23.81645294 75.83498817 22.4140625 77.68359375 C18.7890625 78.43359375 18.7890625 78.43359375 15.4140625 78.68359375 C14.9603125 77.87921875 14.5065625 77.07484375 14.0390625 76.24609375 C12.66680585 73.59502803 12.66680585 73.59502803 10.4140625 72.68359375 C9.5625 70.3984375 9.5625 70.3984375 8.7890625 67.62109375 C8.39847656 66.24244141 8.39847656 66.24244141 8 64.8359375 C7.80664062 64.12566406 7.61328125 63.41539062 7.4140625 62.68359375 C6.7540625 62.68359375 6.0940625 62.68359375 5.4140625 62.68359375 C5.23230469 62.04550781 5.05054687 61.40742187 4.86328125 60.75 C4.61191406 59.92371094 4.36054687 59.09742188 4.1015625 58.24609375 C3.85792969 57.42238281 3.61429688 56.59867188 3.36328125 55.75 C3.05003906 55.06808594 2.73679687 54.38617188 2.4140625 53.68359375 C0.9290625 53.18859375 0.9290625 53.18859375 -0.5859375 52.68359375 C-1.7734375 49.12109375 -1.7734375 49.12109375 -2.5859375 45.68359375 C-3.2459375 45.68359375 -3.9059375 45.68359375 -4.5859375 45.68359375 C-5.2665625 43.98203125 -5.2665625 43.98203125 -5.9609375 42.24609375 C-7.15689556 38.63637683 -7.15689556 38.63637683 -9.5859375 37.68359375 C-10.45981755 35.65619204 -11.11574672 33.59287005 -11.8046875 31.49609375 C-12.43923195 29.48846579 -12.43923195 29.48846579 -14.5859375 28.68359375 C-15.42659382 26.72059521 -16.05111098 24.72288504 -16.70703125 22.69140625 C-17.46207569 20.60648095 -17.46207569 20.60648095 -19.1484375 19.22265625 C-21.10132883 17.1317889 -21.0825441 15.76261695 -21.1484375 12.93359375 C-21.19097656 12.11375 -21.23351563 11.29390625 -21.27734375 10.44921875 C-18.48804356 -0.70798202 -9.89639926 -0.26646331 0 0 Z " fill="#353B58" transform="translate(81.5859375,66.31640625)"/>
<path d="M0 0 C2.82045877 2.30263418 5.56336058 4.67903285 8.27832031 7.10449219 C11.1535235 9.666713 11.1535235 9.666713 14.50878906 11.77246094 C17.18066406 13.58496094 17.18066406 13.58496094 17.86816406 15.77246094 C18.02285156 16.66964844 18.02285156 16.66964844 18.18066406 17.58496094 C19.17066406 17.91496094 20.16066406 18.24496094 21.18066406 18.58496094 C21.51066406 19.57496094 21.84066406 20.56496094 22.18066406 21.58496094 C22.78394531 22.1740625 23.38722656 22.76316406 24.00878906 23.37011719 C26.61161449 26.02443736 28.16331475 28.75588582 29.93066406 32.02246094 C30.85105469 33.69115234 30.85105469 33.69115234 31.79003906 35.39355469 C33.13514811 38.48050439 33.50200878 40.27881822 33.18066406 43.58496094 C33.84066406 43.58496094 34.50066406 43.58496094 35.18066406 43.58496094 C39.64424539 56.0781479 40.85665551 67.12735329 40.55566406 80.33496094 C40.53909422 82.04587815 40.52476266 83.75681854 40.51269531 85.46777344 C40.3702832 98.68935945 40.3702832 98.68935945 39.18066406 103.58496094 C38.52066406 103.58496094 37.86066406 103.58496094 37.18066406 103.58496094 C37.18066406 105.89496094 37.18066406 108.20496094 37.18066406 110.58496094 C36.52066406 110.58496094 35.86066406 110.58496094 35.18066406 110.58496094 C34.52066406 113.88496094 33.86066406 117.18496094 33.18066406 120.58496094 C32.52066406 120.58496094 31.86066406 120.58496094 31.18066406 120.58496094 C31.10589844 121.42542969 31.03113281 122.26589844 30.95410156 123.13183594 C30.00301116 127.37811833 28.20111083 130.25695184 25.80566406 133.83496094 C25.40605469 134.45886719 25.00644531 135.08277344 24.59472656 135.72558594 C22.64505024 138.70140769 21.175244 140.58857431 18.18066406 142.58496094 C17.87128906 143.24496094 17.56191406 143.90496094 17.24316406 144.58496094 C16.18066406 146.58496094 16.18066406 146.58496094 14.29394531 147.52246094 C12.05773456 148.64676653 10.95666201 149.72870379 9.30566406 151.58496094 C-7.5531495 168.76523493 -31.7922615 178.47350042 -55.67724609 178.87768555 C-83.14890277 179.03784131 -105.50892955 171.73865683 -126.31811523 153.40429688 C-129.3378039 150.75277047 -132.36813316 148.62599484 -135.81933594 146.58496094 C-136.52084746 145.26962683 -137.18459519 143.93378502 -137.81933594 142.58496094 C-139.08777344 141.37839844 -139.08777344 141.37839844 -140.38183594 140.14746094 C-142.93144067 137.46710724 -143.50996572 136.19428011 -143.81933594 132.58496094 C-144.80933594 132.25496094 -145.79933594 131.92496094 -146.81933594 131.58496094 C-150.62798259 125.57828936 -153.21756631 119.65575401 -153.81933594 112.58496094 C-154.47933594 111.59496094 -155.13933594 110.60496094 -155.81933594 109.58496094 C-156.19144014 108.26192377 -156.52563767 106.92758159 -156.81933594 105.58496094 C-157.14933594 104.59496094 -157.47933594 103.60496094 -157.81933594 102.58496094 C-158.14933594 102.58496094 -158.47933594 102.58496094 -158.81933594 102.58496094 C-158.87027326 96.32278946 -158.90516878 90.06067193 -158.92919922 83.79833984 C-158.93922299 81.67038984 -158.95284555 79.5424535 -158.97021484 77.41455078 C-158.99462286 74.34631976 -159.00585555 71.27827173 -159.01464844 68.20996094 C-159.02497101 67.26693115 -159.03529358 66.32390137 -159.04592896 65.35229492 C-159.04686971 59.74541582 -158.41278806 54.96630789 -156.81933594 49.58496094 C-156.15933594 49.58496094 -155.49933594 49.58496094 -154.81933594 49.58496094 C-154.69816406 48.88628906 -154.57699219 48.18761719 -154.45214844 47.46777344 C-154.28457031 46.55769531 -154.11699219 45.64761719 -153.94433594 44.70996094 C-153.78191406 43.80503906 -153.61949219 42.90011719 -153.45214844 41.96777344 C-152.81933594 39.58496094 -152.81933594 39.58496094 -150.81933594 37.58496094 C-149.71378412 35.63398714 -148.89319267 33.94732054 -148.44433594 31.74511719 C-147.67559861 29.08816878 -146.42875814 27.18569548 -144.88183594 24.89746094 C-144.3571875 24.10984375 -143.83253906 23.32222656 -143.29199219 22.51074219 C-141.81933594 20.58496094 -141.81933594 20.58496094 -139.81933594 19.58496094 C-139.48933594 18.59496094 -139.15933594 17.60496094 -138.81933594 16.58496094 C-138.25988281 16.318125 -137.70042969 16.05128906 -137.12402344 15.77636719 C-133.75454168 14.03451645 -131.50732154 11.25605376 -128.94433594 8.52246094 C-95.59880991 -25.77011212 -37.69548479 -29.31871039 0 0 Z M-87.81933594 -12.41503906 C-87.81933594 -11.75503906 -87.81933594 -11.09503906 -87.81933594 -10.41503906 C-91.11933594 -9.75503906 -94.41933594 -9.09503906 -97.81933594 -8.41503906 C-98.14933594 -7.42503906 -98.47933594 -6.43503906 -98.81933594 -5.41503906 C-99.54121094 -5.29128906 -100.26308594 -5.16753906 -101.00683594 -5.04003906 C-103.77655488 -4.42454596 -106.21637134 -3.53059532 -108.81933594 -2.41503906 C-108.81933594 -1.75503906 -108.81933594 -1.09503906 -108.81933594 -0.41503906 C-109.39683594 -0.29128906 -109.97433594 -0.16753906 -110.56933594 -0.04003906 C-114.64759997 1.09281206 -116.42321746 1.99078322 -118.81933594 5.58496094 C-119.44710937 5.89433594 -120.07488281 6.20371094 -120.72167969 6.52246094 C-123.27958875 7.81808713 -124.56816309 9.37771702 -126.38183594 11.58496094 C-128.49289909 14.14268556 -130.01903844 15.71809594 -132.81933594 17.58496094 C-133.50201731 18.91016596 -134.17004004 20.24308275 -134.81933594 21.58496094 C-135.80933594 22.07996094 -135.80933594 22.07996094 -136.81933594 22.58496094 C-138.82889274 25.5220055 -139.81933594 26.97718579 -139.81933594 30.58496094 C-140.47933594 30.58496094 -141.13933594 30.58496094 -141.81933594 30.58496094 C-143.85369124 34.31461233 -144.81933594 36.25401135 -144.81933594 40.58496094 C-146.30433594 41.07996094 -146.30433594 41.07996094 -147.81933594 41.58496094 C-148.47933594 44.88496094 -149.13933594 48.18496094 -149.81933594 51.58496094 C-150.47933594 51.58496094 -151.13933594 51.58496094 -151.81933594 51.58496094 C-156.11431372 71.18340325 -155.51373261 89.94748339 -151.81933594 109.58496094 C-151.15933594 109.58496094 -150.49933594 109.58496094 -149.81933594 109.58496094 C-149.33105469 111.57063802 -148.84277344 113.5563151 -148.35449219 115.54199219 C-147.90922889 117.24179296 -147.37499609 118.91798048 -146.81933594 120.58496094 C-146.15933594 120.58496094 -145.49933594 120.58496094 -144.81933594 120.58496094 C-144.69558594 121.30683594 -144.57183594 122.02871094 -144.44433594 122.77246094 C-143.82884284 125.54217988 -142.9348922 127.98199634 -141.81933594 130.58496094 C-141.15933594 130.58496094 -140.49933594 130.58496094 -139.81933594 130.58496094 C-139.35527344 131.76058594 -139.35527344 131.76058594 -138.88183594 132.95996094 C-137.89058555 135.50826222 -137.89058555 135.50826222 -136.81933594 137.58496094 C-136.15933594 137.58496094 -135.49933594 137.58496094 -134.81933594 137.58496094 C-134.61308594 138.26558594 -134.40683594 138.94621094 -134.19433594 139.64746094 C-130.8214596 146.85315131 -123.89613296 154.04656242 -116.81933594 157.58496094 C-115.82933594 157.58496094 -114.83933594 157.58496094 -113.81933594 157.58496094 C-113.47902344 158.54402344 -113.47902344 158.54402344 -113.13183594 159.52246094 C-111.96682698 161.85689754 -111.96682698 161.85689754 -109.19433594 162.33496094 C-108.41058594 162.41746094 -107.62683594 162.49996094 -106.81933594 162.58496094 C-106.81933594 163.24496094 -106.81933594 163.90496094 -106.81933594 164.58496094 C-106.2534375 164.77832031 -105.68753906 164.97167969 -105.10449219 165.17089844 C-104.37101562 165.43128906 -103.63753906 165.69167969 -102.88183594 165.95996094 C-102.1509375 166.21519531 -101.42003906 166.47042969 -100.66699219 166.73339844 C-98.81933594 167.58496094 -98.81933594 167.58496094 -97.81933594 169.58496094 C-92.63786084 171.71219554 -87.44123689 173.02879522 -81.81933594 172.58496094 C-81.81933594 173.24496094 -81.81933594 173.90496094 -81.81933594 174.58496094 C-67.82138478 177.83086265 -51.75723919 178.24080441 -37.81933594 174.58496094 C-37.81933594 173.92496094 -37.81933594 173.26496094 -37.81933594 172.58496094 C-37.16707031 172.53597656 -36.51480469 172.48699219 -35.84277344 172.43652344 C-30.88653741 172.01253864 -26.48914143 171.42830521 -21.81933594 169.58496094 C-21.81933594 168.92496094 -21.81933594 168.26496094 -21.81933594 167.58496094 C-20.72621094 167.46121094 -19.63308594 167.33746094 -18.50683594 167.20996094 C-14.74551791 166.83031293 -14.74551791 166.83031293 -11.81933594 164.58496094 C-11.81933594 163.92496094 -11.81933594 163.26496094 -11.81933594 162.58496094 C-11.24183594 162.46121094 -10.66433594 162.33746094 -10.06933594 162.20996094 C-7.79597827 161.5784727 -5.89398304 160.69637903 -3.81933594 159.58496094 C-3.81933594 158.92496094 -3.81933594 158.26496094 -3.81933594 157.58496094 C-3.01496094 157.31683594 -2.21058594 157.04871094 -1.38183594 156.77246094 C-0.53621094 156.38058594 0.30941406 155.98871094 1.18066406 155.58496094 C1.51066406 154.59496094 1.84066406 153.60496094 2.18066406 152.58496094 C3.13972656 152.36839844 3.13972656 152.36839844 4.11816406 152.14746094 C4.79878906 151.96183594 5.47941406 151.77621094 6.18066406 151.58496094 C6.86436856 150.26028347 7.53030592 148.92632461 8.18066406 147.58496094 C9.50586909 146.90227956 10.83878588 146.23425683 12.18066406 145.58496094 C12.51066406 144.59496094 12.84066406 143.60496094 13.18066406 142.58496094 C13.84066406 142.58496094 14.50066406 142.58496094 15.18066406 142.58496094 C17.49658429 139.36381937 17.49658429 139.36381937 18.18066406 135.58496094 C19.17066406 135.25496094 20.16066406 134.92496094 21.18066406 134.58496094 C22.82886602 131.9825368 23.18066406 130.72247315 23.18066406 127.58496094 C23.84066406 127.58496094 24.50066406 127.58496094 25.18066406 127.58496094 C27.47111421 122.77286193 27.47111421 122.77286193 28.18066406 117.58496094 C28.84066406 117.58496094 29.50066406 117.58496094 30.18066406 117.58496094 C30.68872853 115.85814657 31.18676873 114.12838114 31.68066406 112.39746094 C32.09832031 110.95306641 32.09832031 110.95306641 32.52441406 109.47949219 C33.14744014 106.73150218 33.30369218 104.38897678 33.18066406 101.58496094 C33.84066406 101.58496094 34.50066406 101.58496094 35.18066406 101.58496094 C36.84335951 94.57531721 37.50174368 87.96800334 37.43066406 80.77246094 C37.42679688 79.81774902 37.42292969 78.86303711 37.41894531 77.87939453 C37.33054487 70.62687456 36.68310645 63.69473294 35.18066406 56.58496094 C34.52066406 56.58496094 33.86066406 56.58496094 33.18066406 56.58496094 C33.05691406 55.59496094 32.93316406 54.60496094 32.80566406 53.58496094 C32.21105215 49.48130127 31.3478594 45.56715678 30.18066406 41.58496094 C29.52066406 41.25496094 28.86066406 40.92496094 28.18066406 40.58496094 C27.32910156 38.73730469 27.32910156 38.73730469 26.55566406 36.52246094 C26.29527344 35.78898437 26.03488281 35.05550781 25.76660156 34.29980469 C25.57324219 33.73390625 25.37988281 33.16800781 25.18066406 32.58496094 C24.52066406 32.58496094 23.86066406 32.58496094 23.18066406 32.58496094 C22.87128906 31.63621094 22.56191406 30.68746094 22.24316406 29.70996094 C21.30671664 26.72415686 21.30671664 26.72415686 20.18066406 24.58496094 C19.52066406 24.58496094 18.86066406 24.58496094 18.18066406 24.58496094 C16.97438399 22.25281946 16.01519027 20.08853955 15.18066406 17.58496094 C13.45548882 15.83642171 13.45548882 15.83642171 11.36816406 14.14746094 C9.11643971 12.24831976 7.01997682 10.41509156 4.99316406 8.27246094 C2.88050893 6.30550616 0.90051015 5.4915763 -1.81933594 4.58496094 C-1.81933594 3.92496094 -1.81933594 3.26496094 -1.81933594 2.58496094 C-5.04047751 0.26904071 -5.04047751 0.26904071 -8.81933594 -0.41503906 C-8.81933594 -1.07503906 -8.81933594 -1.73503906 -8.81933594 -2.41503906 C-12.54898733 -4.44939437 -14.48838635 -5.41503906 -18.81933594 -5.41503906 C-18.81933594 -6.07503906 -18.81933594 -6.73503906 -18.81933594 -7.41503906 C-25.62501729 -10.01530656 -25.62501729 -10.01530656 -32.81933594 -10.41503906 C-32.81933594 -11.07503906 -32.81933594 -11.73503906 -32.81933594 -12.41503906 C-48.01112868 -20.01093544 -71.97714816 -15.66471861 -87.81933594 -12.41503906 Z M34.18066406 46.58496094 C35.18066406 48.58496094 35.18066406 48.58496094 35.18066406 48.58496094 Z M35.18066406 49.58496094 C36.18066406 51.58496094 36.18066406 51.58496094 36.18066406 51.58496094 Z M36.18066406 52.58496094 C37.18066406 55.58496094 37.18066406 55.58496094 37.18066406 55.58496094 Z M-156.81933594 53.58496094 C-155.81933594 56.58496094 -155.81933594 56.58496094 -155.81933594 56.58496094 Z M37.18066406 56.58496094 C38.18066406 59.58496094 38.18066406 59.58496094 38.18066406 59.58496094 Z M-157.81933594 57.58496094 C-156.81933594 61.58496094 -156.81933594 61.58496094 -156.81933594 61.58496094 Z M38.18066406 60.58496094 C38.18066406 62.23496094 38.18066406 63.88496094 38.18066406 65.58496094 C38.51066406 65.58496094 38.84066406 65.58496094 39.18066406 65.58496094 C39.18066406 63.93496094 39.18066406 62.28496094 39.18066406 60.58496094 C38.85066406 60.58496094 38.52066406 60.58496094 38.18066406 60.58496094 Z M38.18066406 93.58496094 C38.18066406 95.23496094 38.18066406 96.88496094 38.18066406 98.58496094 C38.51066406 98.58496094 38.84066406 98.58496094 39.18066406 98.58496094 C39.18066406 96.93496094 39.18066406 95.28496094 39.18066406 93.58496094 C38.85066406 93.58496094 38.52066406 93.58496094 38.18066406 93.58496094 Z " fill="#F2F9F9" transform="translate(158.8193359375,19.4150390625)"/>
<path d="M0 0 C8.58 0 17.16 0 26 0 C27.125 5.625 27.125 5.625 25 9 C24.34 9 23.68 9 23 9 C22.01 11.97 21.02 14.94 20 18 C19.34 18 18.68 18 18 18 C17.690625 18.94875 17.38125 19.8975 17.0625 20.875 C16 24 16 24 15 26 C14.34 26 13.68 26 13 26 C12.80664062 26.63808594 12.61328125 27.27617188 12.4140625 27.93359375 C12.15367188 28.75988281 11.89328125 29.58617188 11.625 30.4375 C11.36976562 31.26121094 11.11453125 32.08492187 10.8515625 32.93359375 C10 35 10 35 8 36 C7.16952992 37.85240164 7.16952992 37.85240164 6.5 40 C5.78125 42.1875 5.78125 42.1875 5 44 C4.01 44.495 4.01 44.495 3 45 C1.86649466 47.01669827 1.86649466 47.01669827 1 49 C0.67 49 0.34 49 0 49 C0 32.83 0 16.66 0 0 Z " fill="#F5F6F6" transform="translate(104,76)"/>
<path d="M0 0 C8.58 0 17.16 0 26 0 C26 16.17 26 32.34 26 49 C25.34 48.67 24.68 48.34 24 48 C24 47.01 24 46.02 24 45 C23.34 45 22.68 45 22 45 C19 39.375 19 39.375 19 36 C18.34 36 17.68 36 17 36 C14 30.25 14 30.25 14 28 C13.34 28 12.68 28 12 28 C11.01 25.03 10.02 22.06 9 19 C8.34 19 7.68 19 7 19 C4 13.375 4 13.375 4 10 C3.34 10 2.68 10 2 10 C-1.125 4.5 -1.125 4.5 0 0 Z " fill="#F5F6F5" transform="translate(70,76)"/>
<path d="M0 0 C0.99 0.495 0.99 0.495 2 1 C2.4140625 3.50390625 2.4140625 3.50390625 2.625 6.5625 C2.73714844 8.08037109 2.73714844 8.08037109 2.8515625 9.62890625 C2.90054688 10.41136719 2.94953125 11.19382812 3 12 C2.34 12 1.68 12 1 12 C1 14.31 1 16.62 1 19 C0.34 19 -0.32 19 -1 19 C-1.66 22.3 -2.32 25.6 -3 29 C-3.66 29 -4.32 29 -5 29 C-5.07476562 29.84046875 -5.14953125 30.6809375 -5.2265625 31.546875 C-6.1776529 35.79315739 -7.97955323 38.6719909 -10.375 42.25 C-10.97441406 43.18585938 -10.97441406 43.18585938 -11.5859375 44.140625 C-13.53561382 47.11644676 -15.00542006 49.00361337 -18 51 C-18.309375 51.66 -18.61875 52.32 -18.9375 53 C-20 55 -20 55 -21.88671875 55.9375 C-24.1229295 57.06180559 -25.22400205 58.14374285 -26.875 60 C-38.13360651 71.47328333 -55.84580968 82.60462277 -72 85 C-74.80912771 84.93542235 -77.23077821 84.56410074 -80 84 C-80 83.67 -80 83.34 -80 83 C-78.02 83 -76.04 83 -74 83 C-74 82.34 -74 81.68 -74 81 C-68.72 80.01 -63.44 79.02 -58 78 C-58 77.34 -58 76.68 -58 76 C-54.7 75.01 -51.4 74.02 -48 73 C-48 72.34 -48 71.68 -48 71 C-46.906875 70.566875 -45.81375 70.13375 -44.6875 69.6875 C-41.86234089 68.47347581 -40.00099024 67.38213124 -38 65 C-35.95332595 62.81688101 -34.25389064 61.14030798 -31.625 59.6875 C-28.50648338 57.68273932 -26.60463528 55.32200222 -24.33203125 52.42578125 C-23.67267578 51.72001953 -23.67267578 51.72001953 -23 51 C-22.34 51 -21.68 51 -21 51 C-20.731875 50.236875 -20.46375 49.47375 -20.1875 48.6875 C-19 46 -19 46 -17.5625 44.625 C-15.15990356 42.12629971 -14.27168049 39.20947934 -13 36 C-12.34 36 -11.68 36 -11 36 C-10.01 32.7 -9.02 29.4 -8 26 C-7.34 26 -6.68 26 -6 26 C-5.01 20.72 -4.02 15.44 -3 10 C-2.34 10 -1.68 10 -1 10 C-0.67 6.7 -0.34 3.4 0 0 Z " fill="#E9F5F6" transform="translate(195,111)"/>
<path d="M0 0 C0.495 1.98 0.495 1.98 1 4 C-9.57680942 13.17230085 -26.19032656 23.66064157 -40.71875 24.078125 C-42.9375 23.8125 -42.9375 23.8125 -46 23 C-46 22.67 -46 22.34 -46 22 C-44.02 22 -42.04 22 -40 22 C-40 21.34 -40 20.68 -40 20 C-32.08 18.515 -32.08 18.515 -24 17 C-24 16.34 -24 15.68 -24 15 C-19.05 13.515 -19.05 13.515 -14 12 C-14 11.34 -14 10.68 -14 10 C-12.906875 9.566875 -11.81375 9.13375 -10.6875 8.6875 C-7.86234089 7.47347581 -6.00099024 6.38213124 -4 4 C-2.66666667 2.66666667 -1.33333333 1.33333333 0 0 Z " fill="#E1F1F4" transform="translate(161,172)"/>
<path d="M0 0 C5.00524383 1.51674056 8.24147565 4.52400709 12 8 C13.4540625 9.3303125 13.4540625 9.3303125 14.9375 10.6875 C17 13 17 13 17 16 C15.68 16.33 14.36 16.66 13 17 C12.67 15.35 12.34 13.7 12 12 C10.68 11.67 9.36 11.34 8 11 C7.67 9.35 7.34 7.7 7 6 C6.01 6 5.02 6 4 6 C4.27034634 8.43717258 4.27034634 8.43717258 5 11 C5.99 11.66 6.98 12.32 8 13 C7.67 14.32 7.34 15.64 7 17 C5.70450101 15.90033225 4.41373929 14.79508199 3.125 13.6875 C2.40570313 13.07261719 1.68640625 12.45773438 0.9453125 11.82421875 C-1 10 -1 10 -3 7 C-3.99 6.34 -4.98 5.68 -6 5 C-5.195625 4.731875 -4.39125 4.46375 -3.5625 4.1875 C-2.716875 3.795625 -1.87125 3.40375 -1 3 C-0.67 2.01 -0.34 1.02 0 0 Z " fill="#168BC4" transform="translate(157,24)"/>
<path d="M0 0 C0.33 0.99 0.66 1.98 1 3 C1.66 3 2.32 3 3 3 C3.33 3.66 3.66 4.32 4 5 C4.66 4.67 5.32 4.34 6 4 C6.66 4.33 7.32 4.66 8 5 C8 5.99 8 6.98 8 8 C7.34 8 6.68 8 6 8 C6 8.99 6 9.98 6 11 C4.8553125 11.1546875 4.8553125 11.1546875 3.6875 11.3125 C0.78105605 12.05600892 -0.03566029 12.84858032 -2 15 C-2.66 15 -3.32 15 -4 15 C-4.33 15.99 -4.66 16.98 -5 18 C-4.67 15.36 -4.34 12.72 -4 10 C-3.34 10 -2.68 10 -2 10 C-1.34 6.7 -0.68 3.4 0 0 Z " fill="#158DC9" transform="translate(11,61)"/>
<path d="M0 0 C2.0625 0.4375 2.0625 0.4375 4 1 C2.25 4.875 2.25 4.875 0 6 C-0.433125 6.9590625 -0.433125 6.9590625 -0.875 7.9375 C-2 10 -2 10 -3.84375 10.90234375 C-6.30191155 12.15369048 -7.74822721 13.61594367 -9.625 15.625 C-11.4140625 17.5390625 -11.4140625 17.5390625 -13 19 C-13.66 19 -14.32 19 -15 19 C-15 16 -15 16 -13.3203125 14.28125 C-12.59585938 13.6934375 -11.87140625 13.105625 -11.125 12.5 C-8.51805546 10.36959371 -6.89331428 8.83997143 -5 6 C-4.34 6 -3.68 6 -3 6 C-2.690625 5.195625 -2.38125 4.39125 -2.0625 3.5625 C-1 1 -1 1 0 0 Z " fill="#EFF9F8" transform="translate(177,156)"/>
<path d="M0 0 C0.66 0.33 1.32 0.66 2 1 C2.4140625 3.50390625 2.4140625 3.50390625 2.625 6.5625 C2.69976562 7.57441406 2.77453125 8.58632812 2.8515625 9.62890625 C2.90054688 10.41136719 2.94953125 11.19382812 3 12 C2.34 12 1.68 12 1 12 C1 14.31 1 16.62 1 19 C-0.32 19 -1.64 19 -3 19 C-3.66 20.32 -4.32 21.64 -5 23 C-4.48041715 18.62065881 -3.94324258 14.31196609 -3 10 C-2.34 10 -1.68 10 -1 10 C-0.67 6.7 -0.34 3.4 0 0 Z " fill="#D5EAF1" transform="translate(195,111)"/>
<path d="M0 0 C2.475 0.495 2.475 0.495 5 1 C5 1.66 5 2.32 5 3 C7.31 3 9.62 3 12 3 C12.33 2.34 12.66 1.68 13 1 C13.48210938 1.55429688 13.96421875 2.10859375 14.4609375 2.6796875 C15.09257813 3.40414062 15.72421875 4.12859375 16.375 4.875 C17.00148438 5.59429687 17.62796875 6.31359375 18.2734375 7.0546875 C19.47426834 8.4076598 20.7208345 9.7208345 22 11 C21.01 11.33 20.02 11.66 19 12 C18.67 11.01 18.34 10.02 18 9 C16.35 9 14.7 9 13 9 C12.67 8.01 12.34 7.02 12 6 C9.36 6 6.72 6 4 6 C3.71125 5.195625 3.4225 4.39125 3.125 3.5625 C2.26737432 0.8673532 2.26737432 0.8673532 0 0 Z " fill="#158DC6" transform="translate(22,156)"/>
<path d="M0 0 C-4.5766385 4.5766385 -13.08605257 3.18350952 -19.1875 3.1875 C-20.18458984 3.19974609 -21.18167969 3.21199219 -22.20898438 3.22460938 C-23.16482422 3.22654297 -24.12066406 3.22847656 -25.10546875 3.23046875 C-25.97324951 3.23457764 -26.84103027 3.23868652 -27.73510742 3.24291992 C-30 3 -30 3 -33 1 C-29.37516606 0.8295902 -25.75011226 0.66437396 -22.125 0.5 C-21.11179687 0.45230469 -20.09859375 0.40460938 -19.0546875 0.35546875 C-12.69773104 0.0702207 -6.36317946 -0.06350831 0 0 Z " fill="#F7FBFA" transform="translate(120,195)"/>
<path d="M0 0 C0.66 0 1.32 0 2 0 C2 4 2 4 0.5 5.75 C0.005 6.1625 -0.49 6.575 -1 7 C-0.01 7.33 0.98 7.66 2 8 C2.99 8.66 3.98 9.32 5 10 C3.625 12.5 3.625 12.5 2 15 C1.34 15 0.68 15 0 15 C-0.33 15.66 -0.66 16.32 -1 17 C-1.79953138 13.71303767 -2.09658936 12.28976808 -1 9 C-2.65 9.33 -4.3 9.66 -6 10 C-5.566875 9.649375 -5.13375 9.29875 -4.6875 8.9375 C-2.31641544 6.21514365 -1.3283165 3.35241784 0 0 Z " fill="#1D8FC5" transform="translate(172,147)"/>
<path d="M0 0 C0.33 0.66 0.66 1.32 1 2 C1.66 2 2.32 2 3 2 C3 2.99 3 3.98 3 5 C2.34 5 1.68 5 1 5 C1.99 6.485 1.99 6.485 3 8 C3.25760279 10.69452521 3.08900053 13.28548375 3 16 C2.34 16 1.68 16 1 16 C0.87625 15.195625 0.7525 14.39125 0.625 13.5625 C0.41875 12.716875 0.2125 11.87125 0 11 C-0.66 10.67 -1.32 10.34 -2 10 C-2 7.69 -2 5.38 -2 3 C-2.66 3 -3.32 3 -4 3 C-4 2.34 -4 1.68 -4 1 C-2.68 1.33 -1.36 1.66 0 2 C0 1.34 0 0.68 0 0 Z " fill="#0387CF" transform="translate(186,64)"/>
<path d="M0 0 C0 1.98 0 3.96 0 6 C-2.91482778 6.80967438 -4.46113217 7.21845993 -7.3125 6.0625 C-7.869375 5.711875 -8.42625 5.36125 -9 5 C-8.67 3.68 -8.34 2.36 -8 1 C-5.23735711 0.40267181 -2.83967231 0 0 0 Z " fill="#0687C8" transform="translate(29,44)"/>
<path d="M0 0 C0.33 0.66 0.66 1.32 1 2 C1.66 2 2.32 2 3 2 C3 2.66 3 3.32 3 4 C1.25 5.7265625 1.25 5.7265625 -1 7.625 C-1.7425 8.25664063 -2.485 8.88828125 -3.25 9.5390625 C-3.8275 10.02117188 -4.405 10.50328125 -5 11 C-5.79596365 8.30861211 -6.04361747 7.16653942 -5.3125 4.375 C-3.83374226 1.69915265 -2.82249951 1.03491649 0 0 Z " fill="#1A8FC5" transform="translate(41,30)"/>
<path d="M0 0 C1.875 0.1875 1.875 0.1875 4 1 C4.71727778 2.64551962 5.38325228 4.31422289 6 6 C6.99 6.66 7.98 7.32 9 8 C8.67 9.32 8.34 10.64 8 12 C5.69 10.02 3.38 8.04 1 6 C1.66 5.67 2.32 5.34 3 5 C3 4.34 3 3.68 3 3 C2.01 2.67 1.02 2.34 0 2 C0 1.34 0 0.68 0 0 Z " fill="#128FCC" transform="translate(156,29)"/>
<path d="M0 0 C0.66 0 1.32 0 2 0 C2.75 2.25 2.75 2.25 3 5 C1.1875 7.3125 1.1875 7.3125 -1 9 C-1.66 9 -2.32 9 -3 9 C-3.33 9.99 -3.66 10.98 -4 12 C-3.67 9.36 -3.34 6.72 -3 4 C-2.34 4 -1.68 4 -1 4 C-0.67 2.68 -0.34 1.36 0 0 Z " fill="#2F98C9" transform="translate(10,67)"/>
<path d="M0 0 C1.65 0.33 3.3 0.66 5 1 C5 1.66 5 2.32 5 3 C4.34 3 3.68 3 3 3 C3 3.66 3 4.32 3 5 C2.01 5.495 2.01 5.495 1 6 C1 6.66 1 7.32 1 8 C0.34 8 -0.32 8 -1 8 C-1.66 6.35 -2.32 4.7 -3 3 C-2.34 3 -1.68 3 -1 3 C-0.67 2.01 -0.34 1.02 0 0 Z " fill="#0685C6" transform="translate(46,171)"/>
<path d="M0 0 C1.65 0 3.3 0 5 0 C4.34 2.31 3.68 4.62 3 7 C1.02 7 -0.96 7 -3 7 C-3 6.34 -3 5.68 -3 5 C-2.01 5 -1.02 5 0 5 C0 3.35 0 1.7 0 0 Z " fill="#0486CC" transform="translate(32,32)"/>
<path d="M0 0 C1.98 0 3.96 0 6 0 C5.125 3.875 5.125 3.875 4 5 C2.33382885 5.04063832 0.66611905 5.042721 -1 5 C-1.33 4.01 -1.66 3.02 -2 2 C-1.34 2 -0.68 2 0 2 C0 1.34 0 0.68 0 0 Z " fill="#0886C8" transform="translate(151,24)"/>
<path d="M0 0 C0.66 0.33 1.32 0.66 2 1 C2.4140625 3.50390625 2.4140625 3.50390625 2.625 6.5625 C2.69976562 7.57441406 2.77453125 8.58632812 2.8515625 9.62890625 C2.92503906 10.80259766 2.92503906 10.80259766 3 12 C2.34 11.34 1.68 10.68 1 10 C0.01 10.495 0.01 10.495 -1 11 C-1.14285714 3.57142857 -1.14285714 3.57142857 0 0 Z " fill="#E4F3F6" transform="translate(195,111)"/>
<path d="M0 0 C8.58 0 17.16 0 26 0 C26 0.33 26 0.66 26 1 C17.42 1 8.84 1 0 1 C0 0.67 0 0.34 0 0 Z " fill="#FAFDFA" transform="translate(86,199)"/>
<path d="M0 0 C0.33 0 0.66 0 1 0 C1 8.58 1 17.16 1 26 C0.67 26 0.34 26 0 26 C0 17.42 0 8.84 0 0 Z " fill="#FAFDF9" transform="translate(199,86)"/>
<path d="M0 0 C0.33 0.99 0.66 1.98 1 3 C0.38125 3.2475 -0.2375 3.495 -0.875 3.75 C-3.14291141 4.81460222 -3.14291141 4.81460222 -3.9375 7 C-5.39836667 9.74986668 -7.11305462 10.08833304 -10 11 C-9.34 9.68 -8.68 8.36 -8 7 C-7.34 7 -6.68 7 -6 7 C-5.731875 6.360625 -5.46375 5.72125 -5.1875 5.0625 C-4 3 -4 3 -1 2 C-0.67 1.34 -0.34 0.68 0 0 Z " fill="#E9F7F6" transform="translate(50,27)"/>
<path d="M0 0 C4.41889613 1.35021826 6.34345343 3.26115668 9 7 C8.01 7.33 7.02 7.66 6 8 C5.67 7.01 5.34 6.02 5 5 C2.98491642 4.26676204 2.98491642 4.26676204 1 4 C0.67 2.68 0.34 1.36 0 0 Z " fill="#2A95C9" transform="translate(35,160)"/>
<path d="M0 0 C0.99 0 1.98 0 3 0 C3 0.66 3 1.32 3 2 C3.66 2.33 4.32 2.66 5 3 C4.34 3 3.68 3 3 3 C3 3.66 3 4.32 3 5 C3.66 5 4.32 5 5 5 C5 6.65 5 8.3 5 10 C4.34 10 3.68 10 3 10 C2.01 6.7 1.02 3.4 0 0 Z " fill="#1E8FC4" transform="translate(179,62)"/>
<path d="M0 0 C0.721875 0.12375 1.44375 0.2475 2.1875 0.375 C1.8575 1.365 1.5275 2.355 1.1875 3.375 C-0.1325 3.375 -1.4525 3.375 -2.8125 3.375 C-2.8125 4.365 -2.8125 5.355 -2.8125 6.375 C-4.4625 6.375 -6.1125 6.375 -7.8125 6.375 C-3.50480769 0.46730769 -3.50480769 0.46730769 0 0 Z " fill="#1C8FC6" transform="translate(39.8125,25.625)"/>
<path d="M0 0 C1.60031344 3.20062687 0.03173691 5.72271806 -1 9 C-1.66 9 -2.32 9 -3 9 C-4.125 3.25 -4.125 3.25 -3 1 C-2.01 0.67 -1.02 0.34 0 0 Z " fill="#0386C7" transform="translate(155,170)"/>
<path d="M0 0 C2.86724686 0.57344937 3.8614515 0.8614515 6 3 C6.66 3 7.32 3 8 3 C8 3.99 8 4.98 8 6 C7.01 6.33 6.02 6.66 5 7 C4.34 6.67 3.68 6.34 3 6 C3 5.01 3 4.02 3 3 C2.01 2.67 1.02 2.34 0 2 C0 1.34 0 0.68 0 0 Z " fill="#0486C7" transform="translate(36,164)"/>
<path d="M0 0 C2 2 2 2 2 5 C2.66 5.33 3.32 5.66 4 6 C2.02 6.33 0.04 6.66 -2 7 C-2 3.89448334 -1.4606285 2.64738916 0 0 Z " fill="#E7F5F4" transform="translate(15,145)"/>
<path d="M0 0 C1.65 0.33 3.3 0.66 5 1 C5 1.99 5 2.98 5 4 C2.69 4.33 0.38 4.66 -2 5 C-1.34 4.67 -0.68 4.34 0 4 C0 2.68 0 1.36 0 0 Z " fill="#2D344E" transform="translate(99,140)"/>
<path d="M0 0 C2.64 0.33 5.28 0.66 8 1 C8 1.99 8 2.98 8 4 C5.69 3.67 3.38 3.34 1 3 C0.67 2.01 0.34 1.02 0 0 Z " fill="#F9FCFB" transform="translate(67,191)"/>
<path d="M0 0 C1.65 0 3.3 0 5 0 C5.33 0.66 5.66 1.32 6 2 C5.01 2 4.02 2 3 2 C2.34 3.32 1.68 4.64 1 6 C0.67 6 0.34 6 0 6 C0 4.02 0 2.04 0 0 Z " fill="#E5F5F5" transform="translate(39,20)"/>
<path d="M0 0 C4.875 1.75 4.875 1.75 6 4 C4.1875 4.625 4.1875 4.625 2 5 C1.01 4.34 0.02 3.68 -1 3 C-0.67 2.01 -0.34 1.02 0 0 Z " fill="#F6FBFB" transform="translate(152,16)"/>
<path d="M0 0 C1.231394 3.69418201 0.64432764 6.2056261 0 10 C-0.99 9.01 -1.98 8.02 -3 7 C-1.125 2.25 -1.125 2.25 0 0 Z " fill="#F6FBF7" transform="translate(192,130)"/>
<path d="M0 0 C2.97 0.495 2.97 0.495 6 1 C5.67 2.32 5.34 3.64 5 5 C2.5 3.625 2.5 3.625 0 2 C0 1.34 0 0.68 0 0 Z " fill="#F6FBF7" transform="translate(44,180)"/>
<path d="M0 0 C0.99 0 1.98 0 3 0 C2.75 2.375 2.75 2.375 2 5 C-0.0625 6.3125 -0.0625 6.3125 -2 7 C-1.34 4.69 -0.68 2.38 0 0 Z " fill="#CFE8EF" transform="translate(187,137)"/>
<path d="M0 0 C2.5 1.3125 2.5 1.3125 5 3 C5 3.99 5 4.98 5 6 C3.68 6.33 2.36 6.66 1 7 C0.67 4.69 0.34 2.38 0 0 Z " fill="#2694C6" transform="translate(169,34)"/>
<path d="M0 0 C1.65 0 3.3 0 5 0 C4.01 1.485 4.01 1.485 3 3 C2.34 3 1.68 3 1 3 C0.67 3.99 0.34 4.98 0 6 C-1.125 2.25 -1.125 2.25 0 0 Z " fill="#E2F4F5" transform="translate(21,39)"/>
<path d="M0 0 C2.475 0.99 2.475 0.99 5 2 C4.67 3.32 4.34 4.64 4 6 C2.62437146 4.71034824 1.29233607 3.37310707 0 2 C0 1.34 0 0.68 0 0 Z " fill="#2C95CC" transform="translate(160,35)"/>
<path d="M0 0 C1.32 0 2.64 0 4 0 C4 1.32 4 2.64 4 4 C2.02 4.99 2.02 4.99 0 6 C0 4.02 0 2.04 0 0 Z " fill="#2C97CD" transform="translate(35,35)"/>
<path d="M0 0 C0.99 0 1.98 0 3 0 C2.67 1.32 2.34 2.64 2 4 C-0.64 3.67 -3.28 3.34 -6 3 C-6 2.67 -6 2.34 -6 2 C-4.02 2 -2.04 2 0 2 C0 1.34 0 0.68 0 0 Z " fill="#B1D8E6" transform="translate(121,192)"/>
<path d="M0 0 C0.99 0.33 1.98 0.66 3 1 C3 3.31 3 5.62 3 8 C2.34 8 1.68 8 1 8 C0.67 5.36 0.34 2.72 0 0 Z " fill="#51A7CE" transform="translate(6,121)"/>
<path d="M0 0 C2.31 0 4.62 0 7 0 C7 0.99 7 1.98 7 3 C6.01 2.67 5.02 2.34 4 2 C1.85744207 2.38932856 1.85744207 2.38932856 0 3 C0 2.01 0 1.02 0 0 Z " fill="#0586CB" transform="translate(37,29)"/>
<path d="M0 0 C0.66 0 1.32 0 2 0 C2 0.66 2 1.32 2 2 C1.34 2 0.68 2 0 2 C0 3.65 0 5.3 0 7 C-0.99 7 -1.98 7 -3 7 C-3 5.68 -3 4.36 -3 3 C-2.34 3 -1.68 3 -1 3 C-0.67 2.01 -0.34 1.02 0 0 Z " fill="#0384C6" transform="translate(137,12)"/>
<path d="M0 0 C0.66 0.33 1.32 0.66 2 1 C-0.31 3.31 -2.62 5.62 -5 8 C-5 5 -5 5 -2.5 2.3125 C-1.675 1.549375 -0.85 0.78625 0 0 Z " fill="#FDFDFA" transform="translate(30,25)"/>
<path d="M0 0 C1.98 0 3.96 0 6 0 C6 0.33 6 0.66 6 1 C4.02 1 2.04 1 0 1 C0 0.67 0 0.34 0 0 Z " fill="#F7FDFB" transform="translate(112,198)"/>
<path d="M0 0 C1.98 0 3.96 0 6 0 C6 0.33 6 0.66 6 1 C4.02 1 2.04 1 0 1 C0 0.67 0 0.34 0 0 Z " fill="#F8FDFC" transform="translate(80,198)"/>
<path d="M0 0 C1.65 0 3.3 0 5 0 C5 0.33 5 0.66 5 1 C3.35 1 1.7 1 0 1 C0 0.67 0 0.34 0 0 Z " fill="#F9FDFB" transform="translate(118,197)"/>
<path d="M0 0 C1.65 0 3.3 0 5 0 C5 0.33 5 0.66 5 1 C3.35 1 1.7 1 0 1 C0 0.67 0 0.34 0 0 Z " fill="#FAFEFB" transform="translate(75,197)"/>
<path d="M0 0 C1.65 0 3.3 0 5 0 C5 0.33 5 0.66 5 1 C3.35 1 1.7 1 0 1 C0 0.67 0 0.34 0 0 Z " fill="#FDFDFA" transform="translate(117,0)"/>
<path d="M0 0 C1.65 0 3.3 0 5 0 C5 0.33 5 0.66 5 1 C3.35 1 1.7 1 0 1 C0 0.67 0 0.34 0 0 Z " fill="#FBFDFC" transform="translate(76,0)"/>
<path d="M0 0 C4 1 4 1 4 1 Z " fill="#FEFDFD" transform="translate(123,196)"/>
<path d="M0 0 C4 1 4 1 4 1 Z " fill="#FEFDFD" transform="translate(68,195)"/>
<path d="M0 0 C4 1 4 1 4 1 Z " fill="#FCFEFC" transform="translate(69,2)"/>
<path d="M0 0 C4 1 4 1 4 1 Z " fill="#FCFEFD" transform="translate(122,1)"/>
<path d="M0 0 C3 1 3 1 3 1 Z " fill="#FEFDFD" transform="translate(72,196)"/>
<path d="M0 0 C3 1 3 1 3 1 Z " fill="#FEFEFC" transform="translate(127,195)"/>
<path d="M0 0 C3 1 3 1 3 1 Z " fill="#F9FDFE" transform="translate(130,194)"/>
<path d="M0 0 C3 1 3 1 3 1 Z " fill="#FDFCFD" transform="translate(65,194)"/>
<path d="M0 0 C3 1 3 1 3 1 Z " fill="#F7FDF9" transform="translate(135,192)"/>
<path d="M0 0 C3 1 3 1 3 1 Z " fill="#F9FCFB" transform="translate(60,192)"/>
<path d="" fill="#FEFDFE" transform="translate(0,0)"/>
<path d="" fill="#FAFDFF" transform="translate(0,0)"/>
<path d="" fill="#FEFEFA" transform="translate(0,0)"/>
<path d="" fill="#FEFDFD" transform="translate(0,0)"/>
<path d="" fill="#FAFEFE" transform="translate(0,0)"/>
<path d="" fill="#FEFEFD" transform="translate(0,0)"/>
<path d="M0 0 C3 1 3 1 3 1 Z " fill="#FDFBFD" transform="translate(137,6)"/>
<path d="M0 0 C3 1 3 1 3 1 Z " fill="#FFFDFF" transform="translate(132,4)"/>
<path d="M0 0 C3 1 3 1 3 1 Z " fill="#FEFEFE" transform="translate(63,4)"/>
<path d="M0 0 C3 1 3 1 3 1 Z " fill="#FDFEFB" transform="translate(129,3)"/>
<path d="M0 0 C3 1 3 1 3 1 Z " fill="#FEFEFA" transform="translate(66,3)"/>
<path d="M0 0 C3 1 3 1 3 1 Z " fill="#FBFEFD" transform="translate(126,2)"/>
<path d="M0 0 C3 1 3 1 3 1 Z " fill="#FEFDFD" transform="translate(73,1)"/>
<path d="M0 0 C2 1 2 1 2 1 Z " fill="#F9FDF5" transform="translate(133,193)"/>
<path d="M0 0 C2 1 2 1 2 1 Z " fill="#F4FDFA" transform="translate(63,193)"/>
<path d="M0 0 C2 1 2 1 2 1 Z " fill="#FAFDFA" transform="translate(138,191)"/>
<path d="M0 0 C2 1 2 1 2 1 Z " fill="#FDFDFD" transform="translate(58,191)"/>
<path d="M0 0 C2 1 2 1 2 1 Z " fill="#FCFEFD" transform="translate(140,190)"/>
<path d="M0 0 C2 1 2 1 2 1 Z " fill="#FEFEFE" transform="translate(56,190)"/>
<path d="M0 0 C2 1 2 1 2 1 Z " fill="#FCFCFE" transform="translate(142,189)"/>
<path d="M0 0 C2 1 2 1 2 1 Z " fill="#FEFDFD" transform="translate(54,189)"/>
<path d="M0 0 C2 1 2 1 2 1 Z " fill="#FAFDFB" transform="translate(144,188)"/>
<path d="M0 0 C2 1 2 1 2 1 Z " fill="#FDFEFE" transform="translate(52,188)"/>
<path d="M0 0 C2 1 2 1 2 1 Z " fill="#FAFEFE" transform="translate(146,187)"/>
<path d="M0 0 C2 1 2 1 2 1 Z " fill="#FEFDFE" transform="translate(50,187)"/>
<path d="M0 0 C2 1 2 1 2 1 Z " fill="#FCFCF8" transform="translate(148,186)"/>
<path d="M0 0 C2 1 2 1 2 1 Z " fill="#FBFAFE" transform="translate(47,185)"/>
<path d="M0 0 C2 1 2 1 2 1 Z " fill="#F6FDFD" transform="translate(151,184)"/>
<path d="M0 0 C2 1 2 1 2 1 Z " fill="#FDFCFD" transform="translate(45,184)"/>
<path d="M0 0 C2 1 2 1 2 1 Z " fill="#FEFEFC" transform="translate(154,182)"/>
<path d="M0 0 C2 1 2 1 2 1 Z " fill="#FFFCF9" transform="translate(42,182)"/>
<path d="M0 0 C2 1 2 1 2 1 Z " fill="#F8FFFC" transform="translate(157,180)"/>
<path d="M0 0 C2 1 2 1 2 1 Z " fill="#FDFDF4" transform="translate(38,179)"/>
<path d="M0 0 C2 1 2 1 2 1 Z " fill="#FDFBFC" transform="translate(162,176)"/>
<path d="M0 0 C2 1 2 1 2 1 Z " fill="#FBFEFE" transform="translate(32,174)"/>
<path d="" fill="#FDFCFF" transform="translate(0,0)"/>
<path d="" fill="#FCFEFD" transform="translate(0,0)"/>
<path d="" fill="#FAFEFF" transform="translate(0,0)"/>
<path d="" fill="#FAFCF4" transform="translate(0,0)"/>
<path d="" fill="#FEFDFE" transform="translate(0,0)"/>
<path d="" fill="#FAFDFB" transform="translate(0,0)"/>
<path d="" fill="#FEFEFE" transform="translate(0,0)"/>
<path d="" fill="#FEFEFE" transform="translate(0,0)"/>
<path d="M0 0 C2 1 2 1 2 1 Z " fill="#FAFEFB" transform="translate(164,23)"/>
<path d="M0 0 C2 1 2 1 2 1 Z " fill="#FEFEFD" transform="translate(37,19)"/>
<path d="M0 0 C2 1 2 1 2 1 Z " fill="#FEFDFD" transform="translate(158,18)"/>
<path d="M0 0 C2 1 2 1 2 1 Z " fill="#FFFEF9" transform="translate(155,16)"/>
<path d="M0 0 C2 1 2 1 2 1 Z " fill="#FEFDFA" transform="translate(41,16)"/>
<path d="M0 0 C2 1 2 1 2 1 Z " fill="#FDFCFF" transform="translate(152,14)"/>
<path d="M0 0 C2 1 2 1 2 1 Z " fill="#FDFEFB" transform="translate(44,14)"/>
<path d="M0 0 C2 1 2 1 2 1 Z " fill="#FBFDF7" transform="translate(149,12)"/>
<path d="M0 0 C2 1 2 1 2 1 Z " fill="#FEFCFE" transform="translate(47,12)"/>
<path d="M0 0 C2 1 2 1 2 1 Z " fill="#FDFEFF" transform="translate(147,11)"/>
<path d="M0 0 C2 1 2 1 2 1 Z " fill="#FEFEFB" transform="translate(49,11)"/>
<path d="M0 0 C2 1 2 1 2 1 Z " fill="#FEFEFD" transform="translate(51,10)"/>
<path d="M0 0 C2 1 2 1 2 1 Z " fill="#FEFEFE" transform="translate(144,9)"/>
<path d="M0 0 C2 1 2 1 2 1 Z " fill="#FEFEFE" transform="translate(53,9)"/>
<path d="M0 0 C2 1 2 1 2 1 Z " fill="#FEFEFE" transform="translate(142,8)"/>
<path d="M0 0 C2 1 2 1 2 1 Z " fill="#FEFEFE" transform="translate(55,8)"/>
<path d="M0 0 C2 1 2 1 2 1 Z " fill="#FDFDFD" transform="translate(140,7)"/>
<path d="M0 0 C2 1 2 1 2 1 Z " fill="#FEFDFD" transform="translate(57,7)"/>
<path d="M0 0 C2 1 2 1 2 1 Z " fill="#FDFCFE" transform="translate(59,6)"/>
<path d="M0 0 C2 1 2 1 2 1 Z " fill="#FAFEFE" transform="translate(135,5)"/>
<path d="M0 0 C2 1 2 1 2 1 Z " fill="#FAFEFE" transform="translate(61,5)"/>
<path d="" fill="#FFFDFA" transform="translate(0,0)"/>
<path d="" fill="#FDFAF8" transform="translate(0,0)"/>
<path d="" fill="#F8FDFB" transform="translate(0,0)"/>
<path d="" fill="#FEFDFD" transform="translate(0,0)"/>
<path d="" fill="#FDFFFC" transform="translate(0,0)"/>
<path d="" fill="#FEFEFA" transform="translate(0,0)"/>
<path d="" fill="#FEFEFD" transform="translate(0,0)"/>
<path d="" fill="#F8FDF1" transform="translate(0,0)"/>
<path d="" fill="#F7FEFA" transform="translate(0,0)"/>
<path d="" fill="#FAFEF8" transform="translate(0,0)"/>
<path d="" fill="#FBFDFA" transform="translate(0,0)"/>
<path d="" fill="#FDFCFD" transform="translate(0,0)"/>
<path d="" fill="#FCFEFC" transform="translate(0,0)"/>
<path d="" fill="#F9FDFA" transform="translate(0,0)"/>
<path d="" fill="#F8FEFE" transform="translate(0,0)"/>
<path d="" fill="#FBFBFF" transform="translate(0,0)"/>
<path d="" fill="#F4FDF8" transform="translate(0,0)"/>
<path d="" fill="#FDFFF4" transform="translate(0,0)"/>
<path d="" fill="#FEFEF6" transform="translate(0,0)"/>
<path d="" fill="#FDFEFA" transform="translate(0,0)"/>
<path d="" fill="#F9FDFC" transform="translate(0,0)"/>
<path d="" fill="#FDFDF9" transform="translate(0,0)"/>
<path d="" fill="#FAFEFF" transform="translate(0,0)"/>
<path d="" fill="#FEFEF9" transform="translate(0,0)"/>
<path d="" fill="#FBFBFF" transform="translate(0,0)"/>
<path d="" fill="#FDFCF8" transform="translate(0,0)"/>
<path d="" fill="#F8FDFB" transform="translate(0,0)"/>
<path d="" fill="#FEFEF7" transform="translate(0,0)"/>
<path d="" fill="#FDFEF5" transform="translate(0,0)"/>
<path d="" fill="#F5FDF6" transform="translate(0,0)"/>
<path d="" fill="#FDFDFD" transform="translate(0,0)"/>
<path d="" fill="#FAFEFA" transform="translate(0,0)"/>
<path d="" fill="#FEFEFA" transform="translate(0,0)"/>
<path d="" fill="#FFFEFD" transform="translate(0,0)"/>
<path d="" fill="#FEFEFF" transform="translate(0,0)"/>
<path d="" fill="#FDFCFD" transform="translate(0,0)"/>
<path d="" fill="#FCFEFB" transform="translate(0,0)"/>
<path d="" fill="#FEFCFC" transform="translate(0,0)"/>
<path d="" fill="#FBFDF9" transform="translate(0,0)"/>
<path d="" fill="#FEFCFE" transform="translate(0,0)"/>
<path d="" fill="#FCFEF9" transform="translate(0,0)"/>
<path d="" fill="#FDFDF9" transform="translate(0,0)"/>
<path d="" fill="#FEFEF9" transform="translate(0,0)"/>
<path d="" fill="#FDFDF9" transform="translate(0,0)"/>
<path d="" fill="#FFFEF6" transform="translate(0,0)"/>
<path d="" fill="#FCFEFD" transform="translate(0,0)"/>
<path d="" fill="#FDFDFF" transform="translate(0,0)"/>
<path d="" fill="#FDFDFF" transform="translate(0,0)"/>
<path d="" fill="#FEFCFE" transform="translate(0,0)"/>
<path d="" fill="#FBFBFD" transform="translate(0,0)"/>
<path d="" fill="#FCFDFD" transform="translate(0,0)"/>
<path d="" fill="#FAFEFD" transform="translate(0,0)"/>
<path d="" fill="#FEFDFB" transform="translate(0,0)"/>
<path d="" fill="#F9FEF9" transform="translate(0,0)"/>
<path d="" fill="#FCFCFA" transform="translate(0,0)"/>
<path d="" fill="#FFFEFC" transform="translate(0,0)"/>
<path d="" fill="#FFFFFF" transform="translate(0,0)"/>
<path d="" fill="#FEFEFB" transform="translate(0,0)"/>
<path d="" fill="#FEFEFF" transform="translate(0,0)"/>
<path d="" fill="#FDFFFA" transform="translate(0,0)"/>
<path d="" fill="#FEFDFE" transform="translate(0,0)"/>
<path d="" fill="#FBFEFD" transform="translate(0,0)"/>
<path d="" fill="#FFFCFF" transform="translate(0,0)"/>
<path d="" fill="#FFFDFE" transform="translate(0,0)"/>
</svg>
