<?xml version="1.0" encoding="UTF-8"?>
<svg version="1.1" xmlns="http://www.w3.org/2000/svg" width="64" height="64">
<path d="M0 0 C21.12 0 42.24 0 64 0 C64 21.12 64 42.24 64 64 C42.88 64 21.76 64 0 64 C0 42.88 0 21.76 0 0 Z " fill="#0346A1" transform="translate(0,0)"/>
<path d="M0 0 C13.86 0 27.72 0 42 0 C42 13.53 42 27.06 42 41 C35.25 38.75 35.25 38.75 32.125 34.375 C31.52945313 33.55773438 30.93390625 32.74046875 30.3203125 31.8984375 C29.88460937 31.27195312 29.44890625 30.64546875 29 30 C29.495 33.465 29.495 33.465 30 37 C25.65928612 40.53176266 21.66158458 42.22646338 16 42 C12.83424948 40.52725658 10.07135947 38.73537308 7.1640625 36.8046875 C3.74629558 34.85529452 0.91679665 34.14223596 -2.9375 33.4375 C-7.00852299 32.65648839 -9.58119976 32.14716356 -12.3125 28.9375 C-14 26 -14 26 -14 24 C-13.34 23.67 -12.68 23.34 -12 23 C-11.737458 21.42474798 -11.53948829 19.83848696 -11.375 18.25 C-10.82688621 15.27998808 -10.46183095 13.5049503 -8.41015625 11.26171875 C-3.29163458 7.82572103 1.92078109 7 8 7 C1.29873464 6.51263525 -3.06561592 7.92291196 -9 11 C-11 9 -11 9 -11.125 6.375 C-11.08375 5.59125 -11.0425 4.8075 -11 4 C-10.34 4 -9.68 4 -9 4 C-9 3.34 -9 2.68 -9 2 C-6.03 2 -3.06 2 0 2 C0 1.34 0 0.68 0 0 Z " fill="#0448A5" transform="translate(22,0)"/>
<path d="M0 0 C2.54328558 2.54328558 5.08031692 5.08423481 7.5625 7.6875 C10.03986141 10.26256539 10.03986141 10.26256539 14 12 C14 19.59 14 27.18 14 35 C-1.51 35 -17.02 35 -33 35 C-31.10645916 25.53229578 -26.12214562 17.38131033 -20 10 C-20.9075 9.54625 -21.815 9.0925 -22.75 8.625 C-25.16666667 7.41666667 -27.58333333 6.20833333 -30 5 C-24.82189788 4.55572497 -22.45702615 5.6800817 -18.25 8.625 C-13.9578771 11.2815194 -11.45981077 12.55519686 -6.4375 11.5625 C-3.43823634 10.70064263 -1.64439645 9.76293097 1 8 C0.505 4.04 0.505 4.04 0 0 Z " fill="#100F1D" transform="translate(50,29)"/>
<path d="M0 0 C3.2082739 2.45338593 5.2541699 4.53432345 6.875 8.25 C8.4828715 11.65343227 10.41662275 14.34946967 12.8125 17.25 C15.58307592 20.66585963 17.00869865 23.08924753 17.125 27.625 C12.78428612 31.15676266 8.78658458 32.85146338 3.125 32.625 C-0.04075052 31.15225658 -2.80364053 29.36037308 -5.7109375 27.4296875 C-9.12870442 25.48029452 -11.95820335 24.76723596 -15.8125 24.0625 C-19.88352299 23.28148839 -22.45619976 22.77216356 -25.1875 19.5625 C-26.875 16.625 -26.875 16.625 -26.875 14.625 C-26.215 14.295 -25.555 13.965 -24.875 13.625 C-24.612458 12.04974798 -24.41448829 10.46348696 -24.25 8.875 C-23.69929217 5.74536768 -23.38119725 4.11362858 -21.07421875 1.88671875 C-14.09040925 -2.44145569 -7.61553853 -3.64221408 0 0 Z " fill="#F0C7B6" transform="translate(34.875,9.375)"/>
<path d="M0 0 C1.24546405 2.49092811 0.7767578 3.41080733 0 6 C0.99 6 1.98 6 3 6 C4.10228696 10.40914783 4.07654536 14.48382401 4 19 C-0.29 19 -4.58 19 -9 19 C-8.11831161 14.59155806 -7.06394543 11.75177524 -5.0625 7.8125 C-4.53785156 6.76707031 -4.01320313 5.72164062 -3.47265625 4.64453125 C-2 2 -2 2 0 0 Z " fill="#0E0E18" transform="translate(26,45)"/>
<path d="M0 0 C0.88623047 -0.03738281 1.77246094 -0.07476562 2.68554688 -0.11328125 C9.20361023 -0.20012443 12.46370927 0.96169048 17.3125 5.375 C18.25 8.1875 18.25 8.1875 18.3125 10.375 C17.9825 9.715 17.6525 9.055 17.3125 8.375 C15.67215807 7.64595914 13.99948082 6.98844757 12.3125 6.375 C11.549375 6.00375 10.78625 5.6325 10 5.25 C3.13251833 3.01407574 -1.74212115 4.45562651 -8 7.5 C-8.556875 7.78875 -9.11375 8.0775 -9.6875 8.375 C-11.6875 6.375 -11.6875 6.375 -11.8125 3.75 C-11.77125 2.96625 -11.73 2.1825 -11.6875 1.375 C-8.09244343 -0.42252828 -3.95973775 0.06200301 0 0 Z " fill="#F7F698" transform="translate(22.6875,2.625)"/>
<path d="M0 0 C-0.99043705 4.83628305 -1.95698846 9.47618873 -4 14 C-4.66 14 -5.32 14 -6 14 C-6.2475 13.278125 -6.495 12.55625 -6.75 11.8125 C-8.10983674 8.75286734 -9.82917754 6.5326262 -12 4 C-8.30376141 2.00971768 -4.25699221 0 0 0 Z " fill="#8C8EB7" transform="translate(51,40)"/>
<path d="M0 0 C3.96 0 7.92 0 12 0 C11.67 0.99 11.34 1.98 11 3 C4.4 3 -2.2 3 -9 3 C-9 2.67 -9 2.34 -9 2 C-6.03 2 -3.06 2 0 2 C0 1.34 0 0.68 0 0 Z " fill="#072754" transform="translate(22,0)"/>
<path d="M0 0 C2.97 0 5.94 0 9 0 C9.33 0.66 9.66 1.32 10 2 C2.71428571 5.57142857 2.71428571 5.57142857 -2 4 C-1.34 2.68 -0.68 1.36 0 0 Z " fill="#FDFB90" transform="translate(14,4)"/>
<path d="M0 0 C3.66255145 1.34936106 5.97706247 2.31516172 8.0625 5.75 C9.1957231 8.46973543 9.60310755 11.08945533 10 14 C6.7457985 11.16569547 5.4793247 9.31392226 5 5 C4.01 4.67 3.02 4.34 2 4 C0.8125 1.9375 0.8125 1.9375 0 0 Z " fill="#312C2D" transform="translate(35,9)"/>
<path d="M0 0 C0 1 0 1 -1 4 C-2.65 4.33 -4.3 4.66 -6 5 C-6.33 3.35 -6.66 1.7 -7 0 C-3.86650268 -1.04449911 -3.01031744 -0.93423645 0 0 Z " fill="#444040" transform="translate(36,21)"/>
<path d="M0 0 C1.231394 2.46278801 1.07159196 4.2795055 1 7 C0.401875 7.226875 -0.19625 7.45375 -0.8125 7.6875 C-3.56351888 9.33811133 -4.52484637 11.1972081 -6 14 C-7 11 -7 11 -5.8203125 8.5546875 C-4.98113281 7.22824219 -4.98113281 7.22824219 -4.125 5.875 C-3.57070313 4.98554687 -3.01640625 4.09609375 -2.4453125 3.1796875 C-1 1 -1 1 0 0 Z " fill="#060712" transform="translate(26,45)"/>
<path d="M0 0 C0.66 0 1.32 0 2 0 C1.25 5.75 1.25 5.75 -1 8 C-1.93065133 5.39417629 -2.14917407 4.35801776 -1.0625 1.75 C-0.711875 1.1725 -0.36125 0.595 0 0 Z " fill="#F2F2F0" transform="translate(49,40)"/>
<path d="M0 0 C1.98 0 3.96 0 6 0 C5.625 1.9375 5.625 1.9375 5 4 C4.01 4.495 4.01 4.495 3 5 C2.01 4.34 1.02 3.68 0 3 C0.66 2.67 1.32 2.34 2 2 C1.34 1.34 0.68 0.68 0 0 Z " fill="#AB8A7E" transform="translate(13,28)"/>
<path d="M0 0 C2.1519437 3.22791555 2.20086443 4.28400809 2 8 C1.34 8 0.68 8 0 8 C-0.38063221 5.6739143 -0.71269945 3.33944736 -1 1 C-0.67 0.67 -0.34 0.34 0 0 Z " fill="#6C72CF" transform="translate(45,46)"/>
<path d="M0 0 C1.9375 0.6875 1.9375 0.6875 4 2 C4.75 4.625 4.75 4.625 5 7 C4.67 6.34 4.34 5.68 4 5 C2.35636866 4.27840576 0.68949614 3.60648579 -1 3 C-0.67 2.01 -0.34 1.02 0 0 Z " fill="#E4E393" transform="translate(36,6)"/>
</svg>
