<?xml version="1.0" encoding="UTF-8"?>
<svg version="1.1" xmlns="http://www.w3.org/2000/svg" width="25" height="25">
<path d="M0 0 C8.25 0 16.5 0 25 0 C25 8.25 25 16.5 25 25 C16.75 25 8.5 25 0 25 C0 16.75 0 8.5 0 0 Z " fill="#010202" transform="translate(0,0)"/>
<path d="M0 0 C7.75 -0.125 7.75 -0.125 10 1 C10 1.99 10 2.98 10 4 C10.66 4.33 11.32 4.66 12 5 C11.37351562 4.9278125 10.74703125 4.855625 10.1015625 4.78125 C9.28429688 4.6884375 8.46703125 4.595625 7.625 4.5 C6.81289062 4.4071875 6.00078125 4.314375 5.1640625 4.21875 C3.03087175 3.96647649 3.03087175 3.96647649 1 4 C0.67 2.68 0.34 1.36 0 0 Z " fill="#21373F" transform="translate(4,10)"/>
</svg>
