<?xml version="1.0" encoding="UTF-8"?>
<svg version="1.1" xmlns="http://www.w3.org/2000/svg" width="200" height="200">
<path d="M0 0 C1.25296875 0.4125 2.5059375 0.825 3.796875 1.25 C28.74462541 10.06760046 48.21993996 28.50355897 60.08447266 52.01074219 C70.70512729 75.08730057 73.09510894 102.81586203 65 127 C64.5875 128.25296875 64.175 129.5059375 63.75 130.796875 C54.93239954 155.74462541 36.49644103 175.21993996 12.98925781 187.08447266 C-10.08730057 197.70512729 -37.81586203 200.09510894 -62 192 C-63.87945312 191.38125 -63.87945312 191.38125 -65.796875 190.75 C-90.74462541 181.93239954 -110.21993996 163.49644103 -122.08447266 139.98925781 C-132.70512729 116.91269943 -135.09510894 89.18413797 -127 65 C-126.5875 63.74703125 -126.175 62.4940625 -125.75 61.203125 C-116.93239954 36.25537459 -98.49644103 16.78006004 -74.98925781 4.91552734 C-51.91269943 -5.70512729 -24.18413797 -8.09510894 0 0 Z " fill="#FEFEFF" transform="translate(131,4)"/>
<path d="M0 0 C1.02574883 0.00212242 1.02574883 0.00212242 2.07221985 0.00428772 C4.25261847 0.00987749 6.43291376 0.02242803 8.61328125 0.03515625 C10.09309747 0.04017258 11.57291531 0.04473525 13.05273438 0.04882812 C16.67715501 0.05899195 20.30135269 0.07856915 23.92578125 0.09765625 C24.42078125 11.48265625 24.42078125 11.48265625 24.92578125 23.09765625 C28.33217878 17.03130887 28.33217878 17.03130887 31.71557617 10.95214844 C32.14974854 10.19063477 32.5839209 9.42912109 33.03125 8.64453125 C33.46590576 7.86948242 33.90056152 7.09443359 34.34838867 6.29589844 C36.32085271 3.54708769 38.03923349 1.8911807 40.92578125 0.09765625 C43.64203494 -0.24526317 45.93220535 -0.37307241 48.6328125 -0.29296875 C49.72090462 -0.28447906 49.72090462 -0.28447906 50.83097839 -0.27581787 C53.13410133 -0.25353474 55.43563349 -0.20335862 57.73828125 -0.15234375 C59.30531597 -0.13226809 60.87237524 -0.11401918 62.43945312 -0.09765625 C66.26932594 -0.05710704 70.09578621 0.0211838 73.92578125 0.09765625 C73.92578125 8.34765625 73.92578125 16.59765625 73.92578125 25.09765625 C66.66578125 25.09765625 59.40578125 25.09765625 51.92578125 25.09765625 C51.26578125 26.74765625 50.60578125 28.39765625 49.92578125 30.09765625 C48.99706702 31.87575668 48.03764548 33.6380207 47.0546875 35.38671875 C46.20088501 36.91002808 46.20088501 36.91002808 45.32983398 38.46411133 C44.72212158 39.53943115 44.11440918 40.61475098 43.48828125 41.72265625 C42.55254272 43.38107544 42.55254272 43.38107544 41.59790039 45.07299805 C40.32242008 47.33034281 39.04532165 49.58677405 37.76660156 51.84228516 C36.07639069 54.83131324 34.40152931 57.82836493 32.73046875 60.828125 C31.77544674 62.52253419 30.81976045 64.2165692 29.86328125 65.91015625 C29.22144897 67.07248779 29.22144897 67.07248779 28.56665039 68.25830078 C25.43349668 73.75135599 21.93281773 77.69856914 15.92578125 80.09765625 C12.71777344 80.32470703 12.71777344 80.32470703 8.97265625 80.29296875 C8.31243469 80.29013885 7.65221313 80.28730896 6.97198486 80.28439331 C4.87306228 80.2732404 2.77457383 80.24814571 0.67578125 80.22265625 C-0.7512959 80.21262009 -2.17837977 80.20349535 -3.60546875 80.1953125 C-7.09535198 80.17502248 -10.58430213 80.13586702 -14.07421875 80.09765625 C-14.40421875 72.83765625 -14.73421875 65.57765625 -15.07421875 58.09765625 C-19.36421875 65.35765625 -23.65421875 72.61765625 -28.07421875 80.09765625 C-43.07421875 71.66908482 -43.07421875 71.66908482 -49.07421875 67.09765625 C-47.28382759 61.98671404 -44.52463813 57.45346446 -41.82421875 52.78515625 C-41.30061768 51.87451416 -40.7770166 50.96387207 -40.23754883 50.02563477 C-34.45498915 39.98591331 -28.62319349 29.97400693 -22.75537109 19.98388672 C-21.57017893 17.94912898 -20.39999199 15.9055946 -19.24072266 13.85595703 C-18.63534668 12.79231934 -18.0299707 11.72868164 -17.40625 10.6328125 C-16.86331299 9.66867432 -16.32037598 8.70453613 -15.76098633 7.71118164 C-11.39878344 0.95226111 -7.85221565 -0.03204986 0 0 Z " fill="#1D5CFF" transform="translate(88.07421875,64.90234375)"/>
<path d="M0 0 C1.08809212 0.00848969 1.08809212 0.00848969 2.19816589 0.01715088 C4.50128883 0.03943401 6.80282099 0.08961013 9.10546875 0.140625 C10.67250347 0.16070066 12.23956274 0.17894957 13.80664062 0.1953125 C17.63651344 0.23586171 21.46297371 0.31415255 25.29296875 0.390625 C25.29296875 8.640625 25.29296875 16.890625 25.29296875 25.390625 C18.03296875 25.390625 10.77296875 25.390625 3.29296875 25.390625 C2.63296875 27.040625 1.97296875 28.690625 1.29296875 30.390625 C0.36425452 32.16872543 -0.59516702 33.93098945 -1.578125 35.6796875 C-2.14732666 36.69522705 -2.71652832 37.7107666 -3.30297852 38.75708008 C-3.91069092 39.8323999 -4.51840332 40.90771973 -5.14453125 42.015625 C-6.08026978 43.67404419 -6.08026978 43.67404419 -7.03491211 45.3659668 C-8.31039242 47.62331156 -9.58749085 49.8797428 -10.86621094 52.13525391 C-12.55642181 55.12428199 -14.23128319 58.12133368 -15.90234375 61.12109375 C-16.85736576 62.81550294 -17.81305205 64.50953795 -18.76953125 66.203125 C-19.41136353 67.36545654 -19.41136353 67.36545654 -20.06616211 68.55126953 C-22.83352481 73.40301877 -25.58393956 76.82907916 -30.70703125 79.390625 C-33.03119421 79.47649309 -35.35786432 79.49773543 -37.68359375 79.48828125 C-38.36884125 79.4868663 -39.05408875 79.48545135 -39.76010132 79.48399353 C-41.95078886 79.47839175 -44.14137455 79.46583906 -46.33203125 79.453125 C-47.81640477 79.44811022 -49.3007799 79.44354728 -50.78515625 79.43945312 C-54.42585215 79.42927221 -58.06632756 79.40969737 -61.70703125 79.390625 C-61.70703125 71.470625 -61.70703125 63.550625 -61.70703125 55.390625 C-58.65453125 55.65875 -55.60203125 55.926875 -52.45703125 56.203125 C-47.46355933 56.26754905 -43.35512076 55.98677235 -39.64648438 52.39501953 C-35.9712937 47.28626506 -33.34334209 41.6760432 -30.83984375 35.92089844 C-29.34947754 32.59198565 -27.57843422 29.51829384 -25.70703125 26.390625 C-25.04703125 26.390625 -24.38703125 26.390625 -23.70703125 26.390625 C-23.64 25.74222656 -23.57296875 25.09382813 -23.50390625 24.42578125 C-22.37377266 20.12130184 -20.2186797 16.63566899 -17.95703125 12.828125 C-17.52648437 12.07337891 -17.0959375 11.31863281 -16.65234375 10.54101562 C-16.22179687 9.80947266 -15.79125 9.07792969 -15.34765625 8.32421875 C-14.96125977 7.66478271 -14.57486328 7.00534668 -14.17675781 6.32592773 C-10.12335829 0.98850282 -6.51826515 -0.19334057 0 0 Z " fill="#1C5CFF" transform="translate(136.70703125,64.609375)"/>
<path d="M0 0 C1.29611206 0.0314209 1.29611206 0.0314209 2.6184082 0.06347656 C3.55620117 0.07636719 4.49399414 0.08925781 5.46020508 0.10253906 C6.43666992 0.13605469 7.41313477 0.16957031 8.41918945 0.20410156 C9.40725586 0.22214844 10.39532227 0.24019531 11.41333008 0.25878906 C13.85375788 0.30594709 16.29223715 0.37174114 18.73168945 0.45410156 C16.84179917 4.45916706 14.85743026 8.39961092 12.80444336 12.32226562 C11.70779455 14.50158685 10.72889264 16.71483972 9.7434082 18.94628906 C5.57727136 27.60636492 5.57727136 27.60636492 1.73168945 30.45410156 C-4.76205644 32.33355795 -11.67539109 31.45215633 -18.26831055 30.45410156 C-17.59314353 27.0753267 -16.29979299 24.40796233 -14.65112305 21.39160156 C-14.12647461 20.42996094 -13.60182617 19.46832031 -13.0612793 18.47753906 C-12.23563477 16.9809375 -12.23563477 16.9809375 -11.39331055 15.45410156 C-10.85061523 14.45636719 -10.30791992 13.45863281 -9.7487793 12.43066406 C-3.29525574 0.65968956 -3.29525574 0.65968956 0 0 Z " fill="#F9FBFF" transform="translate(93.268310546875,89.5458984375)"/>
<path d="M0 0 C8.25 0 16.5 0 25 0 C25 8.40480085 23.38228671 12.65982863 17.8125 18.8125 C12.57619812 23.74475855 7.04928561 25 0 25 C0 16.75 0 8.5 0 0 Z " fill="#2360FF" transform="translate(40,65)"/>
<path d="M0 0 C2.62019495 2.18349579 4.39473054 3.7817853 4.9609375 7.23828125 C5.0556241 12.72063548 4.38484978 15.90544886 0.625 20.1875 C-2.36312362 22.53531141 -5.59411188 22.60575081 -9.34375 22.5078125 C-13.41825238 21.86529482 -16.25254791 19.61607538 -18.75 16.4375 C-20.19899408 11.22112133 -20.07553657 7.53853481 -17.625 2.8125 C-12.72706531 -2.90175714 -6.54801662 -3.51652744 0 0 Z " fill="#1D5CFF" transform="translate(156.375,106.8125)"/>
</svg>
