<?xml version="1.0" encoding="UTF-8"?>
<svg version="1.1" xmlns="http://www.w3.org/2000/svg" width="64" height="64">
<path d="M0 0 C21.12 0 42.24 0 64 0 C64 21.12 64 42.24 64 64 C42.88 64 21.76 64 0 64 C0 42.88 0 21.76 0 0 Z " fill="#150E23" transform="translate(0,0)"/>
<path d="M0 0 C10.89 0 21.78 0 33 0 C33 21.12 33 42.24 33 64 C11.88 64 -9.24 64 -31 64 C-31 57.4 -31 50.8 -31 44 C-22.4 45.22857143 -22.4 45.22857143 -18 49 C-17.3359375 51.640625 -17.3359375 51.640625 -17 54 C-15.37548581 54.33569297 -13.75037083 54.6684796 -12.125 55 C-10.76761719 55.2784375 -10.76761719 55.2784375 -9.3828125 55.5625 C-7.07592097 56.06019595 -7.07592097 56.06019595 -5 56 C-5 55.01 -5 54.02 -5 53 C-5.66 52.34 -6.32 51.68 -7 51 C-6.67 50.01 -6.34 49.02 -6 48 C-6.66 47.67 -7.32 47.34 -8 47 C-7.67 46.34 -7.34 45.68 -7 45 C-7.66 45 -8.32 45 -9 45 C-9 42.69 -9 40.38 -9 38 C-8.4225 38.7425 -7.845 39.485 -7.25 40.25 C-6.5075 41.1575 -5.765 42.065 -5 43 C-4.38125 43.78375 -3.7625 44.5675 -3.125 45.375 C-1.05393659 47.2606643 -1.05393659 47.2606643 1.9375 47.25 C6.40633583 45.42598538 7.85215804 42.1721355 10 38 C10.66 39.32 11.32 40.64 12 42 C11.34 42 10.68 42 10 42 C10.20625 42.5775 10.4125 43.155 10.625 43.75 C11.26874174 47.61245046 9.09587766 49.85618351 7 53 C7.30840599 55.15274948 7.30840599 55.15274948 8 57 C8.66 56.34 9.32 55.68 10 55 C12.625 55.375 12.625 55.375 15 56 C15.763125 55.071875 16.52625 54.14375 17.3125 53.1875 C20.29000692 49.62452824 23.26612014 46.77177585 27 44 C26.07316406 43.50628906 25.14632812 43.01257812 24.19140625 42.50390625 C22.98172045 41.85686501 21.77208778 41.20972446 20.5625 40.5625 C19.95083984 40.23701172 19.33917969 39.91152344 18.70898438 39.57617188 C14.11328125 37.11328125 14.11328125 37.11328125 13 36 C13.13533247 30.96146805 14.04833337 26.63520826 16 22 C17.05773577 17.84460949 17.33774217 15.78294775 15.625 11.8125 C11.35715033 7.23980393 6.01568342 5.38087279 0 4 C0 2.68 0 1.36 0 0 Z " fill="#E54C52" transform="translate(31,0)"/>
<path d="M0 0 C10.23 0 20.46 0 31 0 C31 1.32 31 2.64 31 4 C30.24074219 4.25394531 29.48148438 4.50789062 28.69921875 4.76953125 C27.70535156 5.11371094 26.71148438 5.45789063 25.6875 5.8125 C24.70136719 6.14894531 23.71523438 6.48539062 22.69921875 6.83203125 C20.05640405 7.97559362 18.69711531 8.70807579 17 11 C16.25022855 13.12842637 16.25022855 13.12842637 15.875 15.4375 C15.65457031 16.58025391 15.65457031 16.58025391 15.4296875 17.74609375 C15.28789062 18.48988281 15.14609375 19.23367187 15 20 C14.5703125 22.22265625 14.5703125 22.22265625 14 24 C13.34 24.33 12.68 24.66 12 25 C12.33 25.66 12.66 26.32 13 27 C13.61875 27.0825 14.2375 27.165 14.875 27.25 C17 28 17 28 18.875 30.8125 C20 34 20 34 19.3125 36.3125 C18 38 18 38 16 39 C10.72 39 5.44 39 0 39 C0 26.13 0 13.26 0 0 Z " fill="#566A8F" transform="translate(0,0)"/>
<path d="M0 0 C3.34212311 2.2787203 5.31708547 4.65496607 7.75 7.875 C5.75 10.875 5.75 10.875 2.75 11.875 C0.23818571 11.97117307 -2.23916622 12.01434762 -4.75 12 C-5.42675781 12.00386719 -6.10351562 12.00773437 -6.80078125 12.01171875 C-9.89073767 12.00562416 -12.29679311 11.8594023 -15.25 10.875 C-15.58 11.205 -15.91 11.535 -16.25 11.875 C-11.795 13.855 -11.795 13.855 -7.25 15.875 C-7.91 16.865 -8.57 17.855 -9.25 18.875 C-11.56 18.215 -13.87 17.555 -16.25 16.875 C-16.25 17.535 -16.25 18.195 -16.25 18.875 C-14.7959375 18.8440625 -14.7959375 18.8440625 -13.3125 18.8125 C-10.25 18.875 -10.25 18.875 -9.25 19.875 C-8.26 19.545 -7.27 19.215 -6.25 18.875 C-5.25 19.875 -5.25 19.875 -5.1875 22.9375 C-5.208125 23.906875 -5.22875 24.87625 -5.25 25.875 C-6.24 25.545 -7.23 25.215 -8.25 24.875 C-8.91 25.205 -9.57 25.535 -10.25 25.875 C-8.6 26.205 -6.95 26.535 -5.25 26.875 C-4.26 23.41 -4.26 23.41 -3.25 19.875 C-1.6 19.545 0.05 19.215 1.75 18.875 C1.42 23.165 1.09 27.455 0.75 31.875 C0.09 31.875 -0.57 31.875 -1.25 31.875 C-1.58 32.865 -1.91 33.855 -2.25 34.875 C-9.24957356 36.44386994 -9.24957356 36.44386994 -13.4375 34.0625 C-17.19855449 30.43540088 -19.17916531 25.59393746 -21.25 20.875 C-20.26 20.545 -19.27 20.215 -18.25 19.875 C-18.25 18.885 -18.25 17.895 -18.25 16.875 C-19.9 17.205 -21.55 17.535 -23.25 17.875 C-23.68263473 7.05913174 -23.68263473 7.05913174 -21.25 2.875 C-14.69694803 -1.63901219 -7.45339811 -2.58002242 0 0 Z " fill="#DAB093" transform="translate(39.25,7.125)"/>
<path d="M0 0 C8.6 1.22857143 8.6 1.22857143 13 5 C13.6640625 7.640625 13.6640625 7.640625 14 10 C15.62451419 10.33569297 17.24962917 10.6684796 18.875 11 C19.77992187 11.185625 20.68484375 11.37125 21.6171875 11.5625 C23.92407903 12.06019595 23.92407903 12.06019595 26 12 C26.33 10.68 26.66 9.36 27 8 C29.97 8.495 29.97 8.495 33 9 C33 11.31 33 13.62 33 16 C33.66 15.67 34.32 15.34 35 15 C37.17824961 14.91440882 39.35915255 14.89286588 41.5390625 14.90234375 C42.84101562 14.90556641 44.14296875 14.90878906 45.484375 14.91210938 C46.86458399 14.92046534 48.24479232 14.92893029 49.625 14.9375 C51.01301926 14.94251499 52.40104022 14.9470779 53.7890625 14.95117188 C57.19275132 14.96299024 60.59635439 14.97946566 64 15 C64 16.65 64 18.3 64 20 C42.88 20 21.76 20 0 20 C0 13.4 0 6.8 0 0 Z " fill="#DC4345" transform="translate(0,44)"/>
<path d="M0 0 C0.86625 1.11375 0.86625 1.11375 1.75 2.25 C2.4925 3.1575 3.235 4.065 4 5 C4.61875 5.78375 5.2375 6.5675 5.875 7.375 C7.94606341 9.2606643 7.94606341 9.2606643 10.9375 9.25 C15.40633583 7.42598538 16.85215804 4.1721355 19 0 C19.66 1.32 20.32 2.64 21 4 C20.34 4 19.68 4 19 4 C19.20625 4.5775 19.4125 5.155 19.625 5.75 C20.26874174 9.61245046 18.09587766 11.85618351 16 15 C16.30840599 17.15274948 16.30840599 17.15274948 17 19 C17.66 18.34 18.32 17.68 19 17 C20.66666667 17.33333333 22.33333333 17.66666667 24 18 C24.66 17.34 25.32 16.68 26 16 C28.74485593 15.85492305 31.38480543 15.81347577 34.125 15.875 C34.87910156 15.88402344 35.63320313 15.89304687 36.41015625 15.90234375 C38.27357254 15.9259313 40.13682593 15.96180281 42 16 C42 17.65 42 19.3 42 21 C26.655 21.495 26.655 21.495 11 22 C11 19.69 11 17.38 11 15 C10.01 15.33 9.02 15.66 8 16 C8 15.34 8 14.68 8 14 C6.02 14 4.04 14 2 14 C2.33 12.68 2.66 11.36 3 10 C2.34 9.67 1.68 9.34 1 9 C1.33 8.34 1.66 7.68 2 7 C1.34 7 0.68 7 0 7 C0 4.69 0 2.38 0 0 Z " fill="#993E2F" transform="translate(22,38)"/>
<path d="M0 0 C0.33 0 0.66 0 1 0 C0.91291962 2.10494301 0.80474307 4.20902142 0.6875 6.3125 C0.62949219 7.48425781 0.57148438 8.65601563 0.51171875 9.86328125 C-0.01604768 13.0983686 -0.42380724 14.08684881 -3 16 C-2.67 16.66 -2.34 17.32 -2 18 C-1.38125 18.0825 -0.7625 18.165 -0.125 18.25 C2 19 2 19 3.875 21.8125 C5 25 5 25 4.3125 27.3125 C3 29 3 29 1 30 C-1.71760108 30.07181821 -4.40859388 30.09299506 -7.125 30.0625 C-7.87910156 30.05798828 -8.63320312 30.05347656 -9.41015625 30.04882812 C-11.27347127 30.03703499 -13.13674555 30.01909942 -15 30 C-15.1080023 27.89695523 -15.18558987 25.79233091 -15.25 23.6875 C-15.31960938 21.92986328 -15.31960938 21.92986328 -15.390625 20.13671875 C-15 17 -15 17 -12.984375 15.08203125 C-12.32953125 14.72496094 -11.6746875 14.36789063 -11 14 C-10.67 16.97 -10.34 19.94 -10 23 C-9.34 22.34 -8.68 21.68 -8 21 C-8.66 20.01 -9.32 19.02 -10 18 C-8.68 17.67 -7.36 17.34 -6 17 C-6.33 15.68 -6.66 14.36 -7 13 C-7.66 13 -8.32 13 -9 13 C-9 12.34 -9 11.68 -9 11 C-7.68 11 -6.36 11 -5 11 C-4.896875 10.401875 -4.79375 9.80375 -4.6875 9.1875 C-3.89872032 6.67774646 -2.82982914 5.82982914 -1 4 C-0.28552357 1.89667109 -0.28552357 1.89667109 0 0 Z " fill="#53688E" transform="translate(15,9)"/>
<path d="M0 0 C0.66 0 1.32 0 2 0 C3.0625 2.375 3.0625 2.375 4 5 C3.67 5.66 3.34 6.32 3 7 C3.66 7 4.32 7 5 7 C5.12375 7.94875 5.2475 8.8975 5.375 9.875 C5.71687177 13.08667191 5.71687177 13.08667191 8 15 C8.625 17.625 8.625 17.625 9 20 C7.07949388 19.60140439 5.16364288 19.18034074 3.25 18.75 C2.18265625 18.51796875 1.1153125 18.2859375 0.015625 18.046875 C-3.29463296 16.89771809 -4.82894902 15.71908326 -7 13 C-7 12.34 -7 11.68 -7 11 C-12.63735071 7.5635133 -12.63735071 7.5635133 -19 6 C-19 4.35 -19 2.7 -19 1 C-16.72942623 0.94601013 -14.45848712 0.90721258 -12.1875 0.875 C-10.92292969 0.85179687 -9.65835937 0.82859375 -8.35546875 0.8046875 C-5 1 -5 1 -2 3 C-1.34 2.01 -0.68 1.02 0 0 Z " fill="#2B3A66" transform="translate(19,38)"/>
<path d="M0 0 C0.66 0.33 1.32 0.66 2 1 C6.73944653 1.31658385 11.38447404 1.19110347 16 0 C16.125 2.375 16.125 2.375 16 5 C15.34 5.66 14.68 6.32 14 7 C14.33 7.99 14.66 8.98 15 10 C14.36328125 12.9609375 14.36328125 12.9609375 13.3125 16.375 C12.97863281 17.49648438 12.64476563 18.61796875 12.30078125 19.7734375 C10.49897033 24.24279431 8.60577533 27.25063818 4.1875 29.3125 C0.24994535 28.92646523 -0.32637842 27.96638398 -2.875 25.0625 C-3.93609336 23.72350124 -4.98408392 22.37359067 -6 21 C-5.67 20.34 -5.34 19.68 -5 19 C-4.34 19.680625 -3.68 20.36125 -3 21.0625 C0.15566376 23.10053284 0.73298256 23.26085983 4.25 22.875 C5.4875 22.58625 6.725 22.2975 8 22 C8.33 21.34 8.66 20.68 9 20 C9.66 20 10.32 20 11 20 C10.79375 18.96875 10.5875 17.9375 10.375 16.875 C9.98805597 12.8765784 10.48116924 10.66306243 12 7 C8.33112448 9.51070754 8.33112448 9.51070754 6.1875 13.25 C6.125625 13.8275 6.06375 14.405 6 15 C4.1875 15.625 4.1875 15.625 2 16 C1.01 15.34 0.02 14.68 -1 14 C0.32 13.34 1.64 12.68 3 12 C3 12.66 3 13.32 3 14 C3.66 14 4.32 14 5 14 C4.67 12.02 4.34 10.04 4 8 C2.35 8.66 0.7 9.32 -1 10 C-1 9.34 -1 8.68 -1 8 C-2.65 7.67 -4.3 7.34 -6 7 C-6 6.34 -6 5.68 -6 5 C-3.69 5.33 -1.38 5.66 1 6 C1.22609337 3.87635519 1.22609337 3.87635519 -0.5 2.375 C-0.995 1.92125 -1.49 1.4675 -2 1 C-1.34 0.67 -0.68 0.34 0 0 Z " fill="#684943" transform="translate(29,19)"/>
<path d="M0 0 C8.6 1.22857143 8.6 1.22857143 13 5 C13.6640625 7.640625 13.6640625 7.640625 14 10 C15.01320313 10.16435547 15.01320313 10.16435547 16.046875 10.33203125 C16.93890625 10.49058594 17.8309375 10.64914063 18.75 10.8125 C20.07257812 11.03873047 20.07257812 11.03873047 21.421875 11.26953125 C24 12 24 12 28 15 C18.76 15 9.52 15 0 15 C0 10.05 0 5.1 0 0 Z " fill="#FBFAFB" transform="translate(0,44)"/>
<path d="M0 0 C5.75889634 -0.34553378 10.06169381 -0.36702695 15 3 C16.84149717 4.91457245 18.392632 6.87260117 20 9 C18 12 18 12 15 13 C13.21120198 13.1190686 11.4177144 13.17522113 9.625 13.1875 C8.22121094 13.20876953 8.22121094 13.20876953 6.7890625 13.23046875 C3.77530019 12.98143237 1.66952105 12.41657597 -1 11 C-2.3125 7.875 -2.3125 7.875 -3 5 C0 3 0 3 2 3 C2 2.34 2 1.68 2 1 C1.34 0.67 0.68 0.34 0 0 Z " fill="#F5D2A1" transform="translate(27,6)"/>
<path d="M0 0 C5.28 0 10.56 0 16 0 C16 4.62 16 9.24 16 14 C11.05 14.33 6.1 14.66 1 15 C0.0799243 10.3996215 0.24935666 8.41002961 1 4 C0.67 2.68 0.34 1.36 0 0 Z " fill="#DF3D41" transform="translate(48,10)"/>
<path d="M0 0 C3.96 0 7.92 0 12 0 C12 1.32 12 2.64 12 4 C11.26394531 4.23074219 10.52789063 4.46148438 9.76953125 4.69921875 C1.86569777 7.29594993 1.86569777 7.29594993 -4 13 C-4.91761442 15.34284532 -5.46614314 17.52484549 -6 20 C-6.66 19.01 -7.32 18.02 -8 17 C-8.33 17.99 -8.66 18.98 -9 20 C-10.32 20 -11.64 20 -13 20 C-13 20.66 -13 21.32 -13 22 C-12.01 21.67 -11.02 21.34 -10 21 C-9.67 22.65 -9.34 24.3 -9 26 C-10.98 26.99 -10.98 26.99 -13 28 C-12.01 28.66 -11.02 29.32 -10 30 C-11.65 30.99 -13.3 31.98 -15 33 C-15.33 30.03 -15.66 27.06 -16 24 C-16.99 24.66 -17.98 25.32 -19 26 C-19 22.7 -19 19.4 -19 16 C-16 17 -16 17 -14 18 C-14 17.34 -14 16.68 -14 16 C-13.030625 15.5875 -12.06125 15.175 -11.0625 14.75 C-9.5465625 13.88375 -9.5465625 13.88375 -8 13 C-7.8453125 12.35546875 -7.690625 11.7109375 -7.53125 11.046875 C-6.68728191 7.79511559 -4.25553334 6.98719893 -1.49609375 5.34375 C-1.00238281 4.9003125 -0.50867188 4.456875 0 4 C0 2.68 0 1.36 0 0 Z " fill="#435780" transform="translate(19,0)"/>
<path d="M0 0 C0.86625 0.7734375 0.86625 0.7734375 1.75 1.5625 C2.86375 2.2740625 2.86375 2.2740625 4 3 C4.598125 2.814375 5.19625 2.62875 5.8125 2.4375 C9.5113617 1.69772766 11.91152951 4.04000911 15 6 C14.21625 6.61875 13.4325 7.2375 12.625 7.875 C9.69804003 10.24444379 7.30796606 12.76890941 4.875 15.625 C4.06675781 16.57246094 4.06675781 16.57246094 3.2421875 17.5390625 C2.83226562 18.02117188 2.42234375 18.50328125 2 19 C1.2575 18.79375 0.515 18.5875 -0.25 18.375 C-3.32330841 17.95591249 -4.42786866 18.38050989 -7 20 C-7.1875 16.6875 -7.1875 16.6875 -7 13 C-5.5625 11.4375 -5.5625 11.4375 -4 10 C-3.64080679 8.00448218 -3.30503431 6.00451121 -3 4 C-2.34 3.67 -1.68 3.34 -1 3 C-0.67 2.01 -0.34 1.02 0 0 Z " fill="#283C6A" transform="translate(44,38)"/>
<path d="M0 0 C10.89 0 21.78 0 33 0 C33 1.65 33 3.3 33 5 C9.00483611 6.60666308 9.00483611 6.60666308 0 4 C0 2.68 0 1.36 0 0 Z " fill="#DD4146" transform="translate(31,0)"/>
<path d="M0 0 C4.62 0 9.24 0 14 0 C14 4.95 14 9.9 14 15 C9.05 15 4.1 15 -1 15 C1.88316745 9.2336651 2.78692953 8.01199627 8 5 C5.36 3.68 2.72 2.36 0 1 C0 0.67 0 0.34 0 0 Z " fill="#D5474D" transform="translate(50,39)"/>
<path d="M0 0 C1.47668858 0.0133035 2.95331108 0.03716415 4.4296875 0.0703125 C5.18378906 0.07933594 5.93789063 0.08835938 6.71484375 0.09765625 C8.57826004 0.1212438 10.44151343 0.15711531 12.3046875 0.1953125 C12.3046875 1.8453125 12.3046875 3.4953125 12.3046875 5.1953125 C3.3946875 5.1953125 -5.5153125 5.1953125 -14.6953125 5.1953125 C-13.3753125 3.8753125 -12.0553125 2.5553125 -10.6953125 1.1953125 C-8.0703125 1.5703125 -8.0703125 1.5703125 -5.6953125 2.1953125 C-3.6953125 0.1953125 -3.6953125 0.1953125 0 0 Z " fill="#FDFCFD" transform="translate(51.6953125,53.8046875)"/>
<path d="M0 0 C5.39331003 0.4314648 8.85462751 1.44682358 13 5 C13.33 6.65 13.66 8.3 14 10 C9.38 10 4.76 10 0 10 C0 6.7 0 3.4 0 0 Z " fill="#DE4246" transform="translate(0,44)"/>
<path d="M0 0 C8.58 0 17.16 0 26 0 C26 1.65 26 3.3 26 5 C23.35409986 5.02684679 20.70846904 5.04676357 18.0625 5.0625 C16.93038086 5.07506836 16.93038086 5.07506836 15.77539062 5.08789062 C13.85005687 5.09652441 11.92464419 5.05224333 10 5 C9.67 4.67 9.34 4.34 9 4 C8.01 4 7.02 4 6 4 C3.97676387 3.04788888 1.97300116 2.05226728 0 1 C0 0.67 0 0.34 0 0 Z " fill="#FEFCFD" transform="translate(38,5)"/>
<path d="M0 0 C0.66 0.33 1.32 0.66 2 1 C1.649375 1.721875 1.29875 2.44375 0.9375 3.1875 C-0.10409017 6.3122705 0.10903428 7.88161996 1 11 C1 10.34 1 9.68 1 9 C6.61 9 12.22 9 18 9 C18 10.65 18 12.3 18 14 C15.41603321 14.08112454 12.83462432 14.14054748 10.25 14.1875 C9.15558594 14.22520508 9.15558594 14.22520508 8.0390625 14.26367188 C4.82099483 14.30755462 2.39034693 14.18944194 -0.52734375 12.7734375 C-2 11 -2 11 -2.20703125 8.80859375 C-2.07683594 8.02613281 -1.94664063 7.24367188 -1.8125 6.4375 C-1.69519531 5.65246094 -1.57789063 4.86742187 -1.45703125 4.05859375 C-1 2 -1 2 0 0 Z " fill="#F7E1E0" transform="translate(46,25)"/>
<path d="M0 0 C0 0.66 0 1.32 0 2 C-2 3.625 -2 3.625 -4 5 C-3.484375 5.598125 -2.96875 6.19625 -2.4375 6.8125 C-1.963125 7.534375 -1.48875 8.25625 -1 9 C-1.33 9.99 -1.66 10.98 -2 12 C-2.99 11.67 -3.98 11.34 -5 11 C-6.66621616 10.96125079 -8.33394172 10.9549714 -10 11 C-10.33 11.66 -10.66 12.32 -11 13 C-12.85549365 10.3198425 -13.03510744 9.21503307 -12.5 5.9375 C-9.86724304 0.78168428 -5.5764041 -0.49203566 0 0 Z " fill="#D6C1A1" transform="translate(29,7)"/>
<path d="M0 0 C0.66 1.32 1.32 2.64 2 4 C-0.67031284 6.67733998 -2.03721441 7.00280229 -5.890625 7.29296875 C-7.34404009 7.27314945 -8.79731167 7.23754845 -10.25 7.1875 C-10.99507812 7.17396484 -11.74015625 7.16042969 -12.5078125 7.14648438 C-14.33885416 7.11127204 -16.16952169 7.05746851 -18 7 C-18 5.35 -18 3.7 -18 2 C-12.72 2 -7.44 2 -2 2 C-1.67 2.66 -1.34 3.32 -1 4 C-0.67 2.68 -0.34 1.36 0 0 Z " fill="#E9ECF0" transform="translate(18,32)"/>
<path d="M0 0 C-0.33 4.29 -0.66 8.58 -1 13 C-1.66 13 -2.32 13 -3 13 C-3.33 13.99 -3.66 14.98 -4 16 C-5.98 16 -7.96 16 -10 16 C-9.67 15.01 -9.34 14.02 -9 13 C-8.01 13 -7.02 13 -6 13 C-6.33 12.34 -6.66 11.68 -7 11 C-9.52733235 10.34444881 -9.52733235 10.34444881 -12 10 C-12 9.34 -12 8.68 -12 8 C-10.35 8 -8.7 8 -7 8 C-6.5978125 6.2984375 -6.5978125 6.2984375 -6.1875 4.5625 C-5.795625 3.386875 -5.40375 2.21125 -5 1 C-2 0 -2 0 0 0 Z " fill="#FAD0AC" transform="translate(41,26)"/>
<path d="M0 0 C2.5 2.3125 2.5 2.3125 5 5 C5 5.99 5 6.98 5 8 C1.7564127 9.92325647 -0.68673517 10.27080868 -4.4375 10.25 C-5.36433594 10.25515625 -6.29117188 10.2603125 -7.24609375 10.265625 C-10.16054176 9.98451512 -12.34890497 9.21247903 -15 8 C-12 7 -12 7 -10.125 6.5625 C-5.40932181 5.31423224 -2.67449581 4.22288813 0 0 Z " fill="#ECE9E6" transform="translate(41,9)"/>
<path d="M0 0 C3.77545388 1.09068668 6.47043472 1.9083091 9 5 C7.329375 5.86625 7.329375 5.86625 5.625 6.75 C2.55437941 8.49760771 1.34606401 9.68661167 0 13 C-1.29470975 14.37086915 -2.62150897 15.71340837 -4 17 C-6 16 -6 16 -7 14 C-5.35 13.34 -3.7 12.68 -2 12 C-2.33 11.01 -2.66 10.02 -3 9 C-2.34 9 -1.68 9 -1 9 C-1.33 7.02 -1.66 5.04 -2 3 C-1.34 3 -0.68 3 0 3 C0 2.01 0 1.02 0 0 Z " fill="#171429" transform="translate(50,40)"/>
<path d="M0 0 C3.35546875 -0.48828125 3.35546875 -0.48828125 7.1875 -0.3125 C8.45980469 -0.26738281 9.73210938 -0.22226562 11.04296875 -0.17578125 C12.01878906 -0.11777344 12.99460937 -0.05976563 14 0 C14 1.65 14 3.3 14 5 C8.39 5 2.78 5 -3 5 C-2.01 3.35 -1.02 1.7 0 0 Z " fill="#E05054" transform="translate(50,29)"/>
<path d="M0 0 C0.99 0.33 1.98 0.66 3 1 C2.67 1.66 2.34 2.32 2 3 C3.32 3.33 4.64 3.66 6 4 C6 4.66 6 5.32 6 6 C6.99 5.67 7.98 5.34 9 5 C9.33 6.65 9.66 8.3 10 10 C8.02 10.99 8.02 10.99 6 12 C6.99 12.66 7.98 13.32 9 14 C6.525 15.485 6.525 15.485 4 17 C3.67 14.03 3.34 11.06 3 8 C2.01 8.66 1.02 9.32 0 10 C0 6.7 0 3.4 0 0 Z " fill="#425782" transform="translate(0,16)"/>
<path d="M0 0 C0.2475 0.639375 0.495 1.27875 0.75 1.9375 C1.81562433 4.18741541 1.81562433 4.18741541 4.125 4.75 C4.74375 4.8325 5.3625 4.915 6 5 C4.35 5.66 2.7 6.32 1 7 C1 8.32 1 9.64 1 11 C2.65 11 4.3 11 6 11 C5.01 12.485 5.01 12.485 4 14 C3.34 14 2.68 14 2 14 C2 14.66 2 15.32 2 16 C1.01 16.33 0.02 16.66 -1 17 C-1 16.34 -1 15.68 -1 15 C-1.66 14.67 -2.32 14.34 -3 14 C-3 10.7 -3 7.4 -3 4 C-2.34 4 -1.68 4 -1 4 C-0.67 2.68 -0.34 1.36 0 0 Z " fill="#6B7D9E" transform="translate(3,2)"/>
<path d="M0 0 C0.825 0.680625 1.65 1.36125 2.5 2.0625 C5.20232984 3.87261168 6.95182665 4.26046924 10.1875 3.9375 C14.32856379 2.96406481 14.32856379 2.96406481 17 0 C17.33 0.66 17.66 1.32 18 2 C15.80332918 5.72267665 14.05678449 8.47160775 10.125 10.4375 C5.65300914 9.81142128 4.09813667 7.37759139 1.3203125 3.98046875 C0 2 0 2 0 0 Z " fill="#4B353D" transform="translate(23,38)"/>
<path d="M0 0 C0.33 0 0.66 0 1 0 C0.91291962 2.10494301 0.80474307 4.20902142 0.6875 6.3125 C0.62949219 7.48425781 0.57148438 8.65601563 0.51171875 9.86328125 C-0.03953063 13.24231372 -0.56401455 13.82879558 -3 16 C-2.76716851 19.14921909 -2.76716851 19.14921909 -2 22 C-2.99 22 -3.98 22 -5 22 C-5 21.34 -5 20.68 -5 20 C-6.65 19.67 -8.3 19.34 -10 19 C-8.68 18.34 -7.36 17.68 -6 17 C-6.33 15.68 -6.66 14.36 -7 13 C-7.66 13 -8.32 13 -9 13 C-9 12.34 -9 11.68 -9 11 C-7.68 11 -6.36 11 -5 11 C-4.8453125 10.1028125 -4.8453125 10.1028125 -4.6875 9.1875 C-3.89872032 6.67774646 -2.82982914 5.82982914 -1 4 C-0.28552357 1.89667109 -0.28552357 1.89667109 0 0 Z " fill="#7787A5" transform="translate(15,9)"/>
<path d="M0 0 C4.62 0 9.24 0 14 0 C14.33 0.99 14.66 1.98 15 3 C9.67993436 6.41029848 5.94457613 6.09644404 0 5 C0 3.35 0 1.7 0 0 Z " fill="#AB4956" transform="translate(0,39)"/>
<path d="M0 0 C4.29 0 8.58 0 13 0 C13 1.65 13 3.3 13 5 C8.05 5 3.1 5 -2 5 C-1.34 3.35 -0.68 1.7 0 0 Z " fill="#DD4246" transform="translate(51,49)"/>
<path d="M0 0 C2.97 0 5.94 0 9 0 C9 2.66666667 9 5.33333333 9 8 C9.63106429 10.01151741 10.29373761 12.01363702 11 14 C10.34 14.66 9.68 15.32 9 16 C9 15.34 9 14.68 9 14 C8.54625 14.45375 8.0925 14.9075 7.625 15.375 C6.41666667 16.58333333 5.20833333 17.79166667 4 19 C3.34 17.68 2.68 16.36 2 15 C3.65 14.01 5.3 13.02 7 12 C5.69844994 7.92035719 5.69844994 7.92035719 4 4 C1.47266765 3.34444881 1.47266765 3.34444881 -1 3 C-0.67 2.01 -0.34 1.02 0 0 Z " fill="#1F1E38" transform="translate(12,24)"/>
<path d="M0 0 C3.96 0 7.92 0 12 0 C12 1.65 12 3.3 12 5 C7.38 5 2.76 5 -2 5 C-1.34 3.35 -0.68 1.7 0 0 Z " fill="#FEFAF8" transform="translate(52,15)"/>
<path d="M0 0 C0.66 0.33 1.32 0.66 2 1 C1.53980469 1.37769531 1.07960938 1.75539063 0.60546875 2.14453125 C-1.46204389 4.53399233 -1.93306593 6.63383827 -2.6875 9.6875 C-2.93886719 10.68136719 -3.19023437 11.67523438 -3.44921875 12.69921875 C-3.63097656 13.45847656 -3.81273437 14.21773437 -4 15 C-4.66 14.01 -5.32 13.02 -6 12 C-6.33 12.99 -6.66 13.98 -7 15 C-9.31 14.67 -11.62 14.34 -14 14 C-13.34 13.67 -12.68 13.34 -12 13 C-12 12.34 -12 11.68 -12 11 C-11.030625 10.5875 -10.06125 10.175 -9.0625 9.75 C-5.87195799 8.39773473 -5.87195799 8.39773473 -5.4375 6.0625 C-5.293125 5.381875 -5.14875 4.70125 -5 4 C-2.4375 1.75 -2.4375 1.75 0 0 Z " fill="#2C4577" transform="translate(17,5)"/>
<path d="M0 0 C3.96 0 7.92 0 12 0 C12 1.32 12 2.64 12 4 C7.38 4 2.76 4 -2 4 C-1.34 2.68 -0.68 1.36 0 0 Z " fill="#FEFDFD" transform="translate(52,25)"/>
<path d="M0 0 C5.63871769 0.77214873 11.68211426 0.91565173 17.16796875 -0.703125 C17.16796875 -0.043125 17.16796875 0.616875 17.16796875 1.296875 C12.1269641 3.36497947 7.54520732 3.75931752 2.16796875 3.296875 C1.50796875 2.966875 0.84796875 2.636875 0.16796875 2.296875 C-0.45078125 2.4825 -1.06953125 2.668125 -1.70703125 2.859375 C-4.41438799 3.41677198 -5.52068234 2.70019398 -7.83203125 1.296875 C-4.4529771 -0.95582777 -3.77252188 -0.67567556 0 0 Z " fill="#261927" transform="translate(28.83203125,17.703125)"/>
<path d="M0 0 C4 5 4 5 8 10 C7.01 11.32 6.02 12.64 5 14 C4.01 13.67 3.02 13.34 2 13 C2.33 12.01 2.66 11.02 3 10 C2.34 9.67 1.68 9.34 1 9 C1.33 8.34 1.66 7.68 2 7 C1.34 7 0.68 7 0 7 C0 4.69 0 2.38 0 0 Z " fill="#EEF2F6" transform="translate(22,38)"/>
<path d="M0 0 C0 1.65 0 3.3 0 5 C-0.99 5 -1.98 5 -3 5 C-5.69290446 5.57668317 -8.3349698 6.30097568 -11 7 C-11.33 6.01 -11.66 5.02 -12 4 C-9.69925493 1.69925493 -8.56355944 1.50723674 -5.4375 0.875 C-4.63183594 0.70742188 -3.82617188 0.53984375 -2.99609375 0.3671875 C-1 0 -1 0 0 0 Z " fill="#B2917C" transform="translate(45,19)"/>
<path d="M0 0 C0.66 1.32 1.32 2.64 2 4 C1.34 4 0.68 4 0 4 C0.20625 4.5775 0.4125 5.155 0.625 5.75 C1.09446936 8.56681617 0.50624602 9.62171681 -1 12 C-1.66 12.66 -2.32 13.32 -3 14 C-4.32 12.35 -5.64 10.7 -7 9 C-6.21625 8.2575 -5.4325 7.515 -4.625 6.75 C-2.43495469 4.45566682 -1.17268614 2.87841142 0 0 Z " fill="#AFC8E0" transform="translate(41,38)"/>
<path d="M0 0 C0 1.65 0 3.3 0 5 C-3.96 5 -7.92 5 -12 5 C-7.65430977 1.45483165 -5.6329135 -0.14823457 0 0 Z " fill="#FDFDFC" transform="translate(64,44)"/>
<path d="M0 0 C5.28798182 0.41474367 8.11690718 1.35224614 12 5 C8.04 5 4.08 5 0 5 C0 3.35 0 1.7 0 0 Z " fill="#FDFDFD" transform="translate(0,44)"/>
<path d="M0 0 C1.9375 0.375 1.9375 0.375 4 1 C5.35439668 3.70879335 5.06501451 6.00933268 5 9 C4.01 9 3.02 9 2 9 C2.33 8.34 2.66 7.68 3 7 C1.68 7 0.36 7 -1 7 C-0.67 4.69 -0.34 2.38 0 0 Z " fill="#3F5886" transform="translate(13,27)"/>
<path d="M0 0 C2.69188808 0.07691109 4.44122 0.50609155 6.48046875 2.30859375 C9.37495836 5.81927723 10.35404665 8.30029465 9.9375 12.875 C9.58984375 15.1796875 9.58984375 15.1796875 9 17 C8.34 17.33 7.68 17.66 7 18 C5.85294118 12.39215686 5.85294118 12.39215686 6.75 10 C7.2801899 7.62710586 7.2801899 7.62710586 4.6875 4.875 C3.14805022 3.22814675 1.59405634 1.59405634 0 0 Z " fill="#10081C" transform="translate(39,7)"/>
<path d="M0 0 C0 1.65 0 3.3 0 5 C-0.66 5 -1.32 5 -2 5 C-2.33 5.99 -2.66 6.98 -3 8 C-4.98 8 -6.96 8 -9 8 C-8.67 7.01 -8.34 6.02 -8 5 C-7.01 5 -6.02 5 -5 5 C-5 4.01 -5 3.02 -5 2 C-2 0 -2 0 0 0 Z " fill="#F5CAA6" transform="translate(40,34)"/>
<path d="M0 0 C0.2475 0.639375 0.495 1.27875 0.75 1.9375 C1.81562433 4.18741541 1.81562433 4.18741541 4.125 4.75 C4.74375 4.8325 5.3625 4.915 6 5 C5.195625 5.268125 4.39125 5.53625 3.5625 5.8125 C2.716875 6.204375 1.87125 6.59625 1 7 C0.67 7.99 0.34 8.98 0 10 C-3 6.25 -3 6.25 -3 4 C-2.34 4 -1.68 4 -1 4 C-0.67 2.68 -0.34 1.36 0 0 Z " fill="#8595B1" transform="translate(3,2)"/>
<path d="M0 0 C0.99 0.33 1.98 0.66 3 1 C3 2.65 3 4.3 3 6 C-1.92127034 6.16682272 -5.50343896 6.24828052 -10 4 C-7 3 -7 3 -5 2.5625 C-2.70962954 2.029376 -2.70962954 2.029376 0 0 Z " fill="#FCF9F2" transform="translate(36,13)"/>
<path d="M0 0 C3 3.625 3 3.625 3 7 C2.01 7.495 2.01 7.495 1 8 C1 7.34 1 6.68 1 6 C-0.65 6 -2.3 6 -4 6 C-4 4.68 -4 3.36 -4 2 C-2.68 1.34 -1.36 0.68 0 0 Z " fill="#425782" transform="translate(8,7)"/>
<path d="M0 0 C3.68754757 0.49831724 5.60490662 1.10067643 8 4 C5 6 5 6 2.8125 5.625 C2.214375 5.41875 1.61625 5.2125 1 5 C0.67 3.35 0.34 1.7 0 0 Z " fill="#2B3960" transform="translate(51,41)"/>
<path d="M0 0 C-0.66 0 -1.32 0 -2 0 C-1.67 0.99 -1.34 1.98 -1 3 C-2.3125 4.5 -2.3125 4.5 -4 6 C-4.99 6 -5.98 6 -7 6 C-7 4.02 -7 2.04 -7 0 C-3.86650268 -1.04449911 -3.01031744 -0.93423645 0 0 Z " fill="#F5DFC0" transform="translate(23,19)"/>
<path d="M0 0 C0.99 0.66 1.98 1.32 3 2 C2.71788123 3.6266848 2.42397625 5.25132896 2.125 6.875 C1.96257813 7.77992187 1.80015625 8.68484375 1.6328125 9.6171875 C1 12 1 12 -1 14 C-2.01522809 9.37507206 -1.9109468 5.64582868 -1 1 C-0.67 0.67 -0.34 0.34 0 0 Z " fill="#9D7062" transform="translate(41,24)"/>
<path d="M0 0 C2 1.375 2 1.375 4 3 C4 3.66 4 4.32 4 5 C2.35 5 0.7 5 -1 5 C-1.33 5.66 -1.66 6.32 -2 7 C-2.66 5.68 -3.32 4.36 -4 3 C-3.34 3 -2.68 3 -2 3 C-2 2.34 -2 1.68 -2 1 C-1.34 0.67 -0.68 0.34 0 0 Z " fill="#A18B6D" transform="translate(20,13)"/>
<path d="M0 0 C0.33 2.31 0.66 4.62 1 7 C-0.32 7.33 -1.64 7.66 -3 8 C-3.33 7.01 -3.66 6.02 -4 5 C-4.66 4.34 -5.32 3.68 -6 3 C-2.25 0 -2.25 0 0 0 Z " fill="#121331" transform="translate(16,44)"/>
<path d="M0 0 C0.66 0.99 1.32 1.98 2 3 C-2.30769231 6.07692308 -2.30769231 6.07692308 -5.8125 5.6875 C-6.534375 5.460625 -7.25625 5.23375 -8 5 C-5.31158141 2.74754119 -3.35358125 1.11786042 0 0 Z " fill="#1D3264" transform="translate(15,41)"/>
<path d="M0 0 C6.75 0.75 6.75 0.75 9 3 C8.34 3.66 7.68 4.32 7 5 C4.27130593 4.96712417 1.7033382 4.43602229 -1 4 C-0.67 2.68 -0.34 1.36 0 0 Z " fill="#EBCBB0" transform="translate(23,21)"/>
<path d="M0 0 C0.91058531 3.07322544 1.08886184 5.80097361 1 9 C0.01 9.495 0.01 9.495 -1 10 C-1 9.01 -1 8.02 -1 7 C-1.66 7 -2.32 7 -3 7 C-2.25 2.25 -2.25 2.25 0 0 Z " fill="#7A8CAA" transform="translate(3,23)"/>
<path d="M0 0 C0.66 0.33 1.32 0.66 2 1 C2.38218767 2.65614657 2.71395102 4.32457024 3 6 C3.33 6.66 3.66 7.32 4 8 C2.68 8.33 1.36 8.66 0 9 C-0.66 7.02 -1.32 5.04 -2 3 C-1.34 3 -0.68 3 0 3 C0 2.01 0 1.02 0 0 Z " fill="#182147" transform="translate(50,40)"/>
<path d="M0 0 C-0.66 1.32 -1.32 2.64 -2 4 C-2 3.34 -2 2.68 -2 2 C-2.45375 2.45375 -2.9075 2.9075 -3.375 3.375 C-4.58333333 4.58333333 -5.79166667 5.79166667 -7 7 C-7.66 5.68 -8.32 4.36 -9 3 C-5.55930376 0.70620251 -4.27709699 0 0 0 Z " fill="#100E27" transform="translate(23,36)"/>
<path d="M0 0 C3.2578125 -0.29296875 3.2578125 -0.29296875 7.125 -0.1875 C9.04699219 -0.14689453 9.04699219 -0.14689453 11.0078125 -0.10546875 C11.99523438 -0.07066406 12.98265625 -0.03585938 14 0 C14 0.33 14 0.66 14 1 C12.75283203 1.05607422 12.75283203 1.05607422 11.48046875 1.11328125 C10.39378906 1.17902344 9.30710937 1.24476562 8.1875 1.3125 C6.56908203 1.39951172 6.56908203 1.39951172 4.91796875 1.48828125 C1.82502483 2.03068507 0.86977097 2.55289624 -1 5 C-1.33 4.34 -1.66 3.68 -2 3 C-1.34 2.01 -0.68 1.02 0 0 Z " fill="#D47F80" transform="translate(50,24)"/>
<path d="M0 0 C0.66 0.33 1.32 0.66 2 1 C2 2.98 2 4.96 2 7 C0.35 6.67 -1.3 6.34 -3 6 C-2.625 3.5625 -2.625 3.5625 -2 1 C-1.34 0.67 -0.68 0.34 0 0 Z " fill="#FAD1AE" transform="translate(32,26)"/>
<path d="M0 0 C1.98 0 3.96 0 6 0 C5.34 1.32 4.68 2.64 4 4 C3.67 3.67 3.34 3.34 3 3 C2.67 3.99 2.34 4.98 2 6 C1.34 6 0.68 6 0 6 C0 4.02 0 2.04 0 0 Z " fill="#405580" transform="translate(0,0)"/>
<path d="M0 0 C0.66 0 1.32 0 2 0 C2.33 1.98 2.66 3.96 3 6 C2.01 6.33 1.02 6.66 0 7 C-1.125 2.25 -1.125 2.25 0 0 Z " fill="#E5ECF3" transform="translate(35,51)"/>
<path d="M0 0 C2.5625 0.25 2.5625 0.25 5 1 C5.33 1.66 5.66 2.32 6 3 C3.69 3.66 1.38 4.32 -1 5 C-1.33 4.01 -1.66 3.02 -2 2 C-1.34 1.34 -0.68 0.68 0 0 Z " fill="#C0AAA0" transform="translate(35,21)"/>
<path d="M0 0 C1.98 0.66 3.96 1.32 6 2 C5.34 3.65 4.68 5.3 4 7 C3.67 6.01 3.34 5.02 3 4 C0.49552484 2.78130071 0.49552484 2.78130071 -2 2 C-1.34 1.34 -0.68 0.68 0 0 Z " fill="#A27363" transform="translate(29,19)"/>
<path d="M0 0 C0.99 0 1.98 0 3 0 C2.67 1.98 2.34 3.96 2 6 C1.01 5.34 0.02 4.68 -1 4 C-0.67 2.68 -0.34 1.36 0 0 Z " fill="#E8F0F4" transform="translate(27,52)"/>
<path d="M0 0 C4.75 0.75 4.75 0.75 7 3 C6.01 3.66 5.02 4.32 4 5 C3.34 4.01 2.68 3.02 2 2 C1.34 2.66 0.68 3.32 0 4 C0 2.68 0 1.36 0 0 Z " fill="#13122D" transform="translate(43,37)"/>
<path d="M0 0 C3.375 0.25 3.375 0.25 7 1 C8.4375 3.0625 8.4375 3.0625 9 5 C5.54074837 3.7508258 2.85306797 2.32472205 0 0 Z " fill="#ECC9CB" transform="translate(38,5)"/>
</svg>
