<?xml version="1.0" encoding="UTF-8"?>
<svg version="1.1" xmlns="http://www.w3.org/2000/svg" width="128" height="128">
<path d="M0 0 C42.24 0 84.48 0 128 0 C128 42.24 128 84.48 128 128 C85.76 128 43.52 128 0 128 C0 85.76 0 43.52 0 0 Z " fill="#FBFDFE" transform="translate(0,0)"/>
<path d="M0 0 C18.48 0 36.96 0 56 0 C56 3.96 56 7.92 56 12 C49.4 12 42.8 12 36 12 C36 30.81 36 49.62 36 69 C31.05 69 26.1 69 21 69 C21 50.19 21 31.38 21 12 C14.07 12 7.14 12 0 12 C0 8.04 0 4.08 0 0 Z " fill="#383A3C" transform="translate(10,31)"/>
<path d="M0 0 C4.95 0 9.9 0 15 0 C15 18.81 15 37.62 15 57 C26.22 57 37.44 57 49 57 C49 61.29 49 65.58 49 70 C32.83 70 16.66 70 0 70 C0 46.9 0 23.8 0 0 Z " fill="#3C3E3F" transform="translate(73,30)"/>
</svg>
