<?xml version="1.0" encoding="UTF-8"?>
<svg version="1.1" xmlns="http://www.w3.org/2000/svg" width="64" height="64">
<path d="M0 0 C8.04071716 5.46768767 14.35713546 11.78672485 16.953125 21.328125 C17.97008074 32.73931439 17.08780568 41.52074309 9.640625 50.578125 C3.75028057 56.89640044 -1.9995096 60.87830798 -10.81640625 61.6640625 C-22.23808647 61.92046185 -29.76998744 60.10045244 -38.2578125 52.1875 C-45.41707366 44.7468705 -47.46537447 37.63799487 -47.41040039 27.37304688 C-47.154444 17.46241552 -43.06295379 11.07888989 -36.046875 4.328125 C-26.55128048 -3.80505814 -11.27874483 -6.1129075 0 0 Z " fill="#BF8C42" transform="translate(47.046875,2.671875)"/>
<path d="M0 0 C8.04071716 5.46768767 14.35713546 11.78672485 16.953125 21.328125 C17.92330687 32.21446807 17.24710082 41.10289526 10.265625 49.890625 C9.5025 50.695 8.739375 51.499375 7.953125 52.328125 C7.623125 52.328125 7.293125 52.328125 6.953125 52.328125 C4.65974692 43.86741937 5.10927106 37.9160662 8.0078125 29.65234375 C9.78633012 23.3981351 9.28528608 18.71607475 6.22265625 13.12109375 C3.26548882 8.94466344 -1.3097954 6.88094362 -6.046875 5.328125 C-14.45379642 4.52626 -23.09462951 3.8577507 -30.3203125 8.8515625 C-36.75947068 14.35835388 -39.23801554 20.27275336 -40.546875 28.453125 C-39.9227397 32.04190297 -38.40572722 34.01887393 -36.140625 36.8125 C-35.046875 38.328125 -35.046875 38.328125 -35.046875 40.328125 C-34.4075 40.4725 -33.768125 40.616875 -33.109375 40.765625 C-31.046875 41.328125 -31.046875 41.328125 -30.046875 42.328125 C-29.48773687 48.03133394 -30.5410185 50.83624636 -34.046875 55.328125 C-40.4707594 50.23954241 -44.80058264 45.4052188 -47.046875 37.328125 C-48.06383074 25.91693561 -47.18155568 17.13550691 -39.734375 8.078125 C-29.7628488 -2.61782832 -13.58175937 -7.36110622 0 0 Z " fill="#F5DD90" transform="translate(47.046875,2.671875)"/>
<path d="M0 0 C0.66 0.66 1.32 1.32 2 2 C1.01 2.66 0.02 3.32 -1 4 C-1.41666667 6.5 -1.41666667 6.5 -1 9 C0.83883881 11.28728734 0.83883881 11.28728734 3.625 11.125 C4.40875 11.08375 5.1925 11.0425 6 11 C6 12.32 6 13.64 6 15 C0.06 15.495 0.06 15.495 -6 16 C-5.34 16 -4.68 16 -4 16 C-2.45721239 16.15594965 -0.91562095 16.32392903 0.625 16.5 C1.85089844 16.63921875 1.85089844 16.63921875 3.1015625 16.78125 C3.72804688 16.8534375 4.35453125 16.925625 5 17 C3.64844718 21.42326378 1.80109562 23.40412982 -2 26 C-7.60152523 27.86717508 -14.34352725 27.99183036 -19.875 25.75 C-22.91528757 24.04743896 -25.49652079 22.4276162 -28 20 C-28 19.01 -28 18.02 -28 17 C-26.7625 16.9175 -25.525 16.835 -24.25 16.75 C-21.32316212 16.36530017 -19.9930264 15.99557772 -17.4375 14.375 C-15.67102951 11.94524567 -15.67102951 11.94524567 -16.125 8.375 C-16.70740714 4.95457945 -16.70740714 4.95457945 -19 3 C-12.74712225 0.46260033 -6.77825216 -0.9866265 0 0 Z " fill="#E8BA28" transform="translate(48,18)"/>
<path d="M0 0 C1.175625 0.309375 2.35125 0.61875 3.5625 0.9375 C10.28196405 2.45584043 17.14044366 2.6565703 24 3 C23.42415568 5.38564077 22.77772405 7.66682784 22 10 C18.92382812 9.609375 18.92382812 9.609375 15.84765625 9.21875 C14.14458268 8.98040465 14.14458268 8.98040465 13 9 C17.455 10.98 17.455 10.98 22 13 C22.04241723 15.33294775 22.04092937 17.66702567 22 20 C19.77909745 22.22090255 14.38561457 21.30718218 11.30444336 21.32568359 C5.62543543 21.24059055 0.73366846 20.36889651 -4 17 C-4.33 16.34 -4.66 15.68 -5 15 C-4.34 14.154375 -3.68 13.30875 -3 12.4375 C-0.73749008 8.54881108 -0.74059276 6.40992307 -1 2 C-0.67 1.67 -0.34 1.34 0 1 C0 0.67 0 0.34 0 0 Z " fill="#C4A77E" transform="translate(19,43)"/>
<path d="M0 0 C2.71674362 0.07990422 4.48635633 0.55826644 6.5625 2.34375 C13.63230756 10.12053832 14.7056655 17.97331005 14.3515625 28.14453125 C13.63583009 35.99373005 10.34013335 41.37121079 5 47 C4.67 47 4.34 47 4 47 C1.70662192 38.53929437 2.15614606 32.5879412 5.0546875 24.32421875 C6.54496289 19.08362225 6.78629612 14.53416702 4.125 9.6875 C3.77695312 9.03136719 3.42890625 8.37523437 3.0703125 7.69921875 C1.98542645 5.83779795 1.98542645 5.83779795 0 4 C0 2.68 0 1.36 0 0 Z " fill="#F7E28F" transform="translate(50,8)"/>
<path d="M0 0 C2.89019954 1.59873164 5.13729507 3.25738095 7.375 5.6875 C7.045 6.3475 6.715 7.0075 6.375 7.6875 C5.33601563 7.65269531 4.29703125 7.61789063 3.2265625 7.58203125 C-8.12227942 7.31221008 -17.03347806 7.77426573 -25.93359375 15.578125 C-26.49175781 15.94421875 -27.04992187 16.3103125 -27.625 16.6875 C-28.615 16.3575 -29.605 16.0275 -30.625 15.6875 C-29.79204895 8.34393158 -27.2224888 3.57439445 -21.625 -1.3125 C-14.51490412 -3.68253196 -6.71731555 -3.29435358 0 0 Z " fill="#EDD5B4" transform="translate(45.625,10.3125)"/>
<path d="M0 0 C2.8203125 -0.29296875 2.8203125 -0.29296875 6.125 -0.1875 C7.76855469 -0.14689453 7.76855469 -0.14689453 9.4453125 -0.10546875 C10.28835937 -0.07066406 11.13140625 -0.03585938 12 0 C13.28255623 3.84766869 12.39474097 6.01972137 11.375 9.84375 C10.79434509 12.17320165 10.79434509 12.17320165 12 15 C12.75732532 20.13298272 12.75732532 20.13298272 12 23 C8.57071623 26.878753 4.25906437 29.67130848 -1 30 C-1.33 27.69 -1.66 25.38 -2 23 C-2.85464844 22.73445313 -3.70929687 22.46890625 -4.58984375 22.1953125 C-6.24693359 21.66550781 -6.24693359 21.66550781 -7.9375 21.125 C-9.03964844 20.77695312 -10.14179688 20.42890625 -11.27734375 20.0703125 C-14 19 -14 19 -15 17 C-14.40832031 17.13277344 -13.81664062 17.26554687 -13.20703125 17.40234375 C-9.14553475 18.31005178 -5.08625829 19.2091113 -1 20 C-0.7834375 19.1028125 -0.7834375 19.1028125 -0.5625 18.1875 C-0.1127561 16.43849596 0.42892341 14.71322977 1 13 C-0.03640625 13.02320313 -1.0728125 13.04640625 -2.140625 13.0703125 C-3.51040944 13.08907667 -4.8802017 13.10727618 -6.25 13.125 C-6.93191406 13.14175781 -7.61382812 13.15851562 -8.31640625 13.17578125 C-12.16245258 13.21312151 -14.66397731 12.86121729 -18 11 C-16.04707031 11.05220703 -16.04707031 11.05220703 -14.0546875 11.10546875 C-12.32813796 11.13361901 -10.60157439 11.16091784 -8.875 11.1875 C-8.0190625 11.21263672 -7.163125 11.23777344 -6.28125 11.26367188 C-1.0895498 11.32357611 2.54070721 10.97286186 7 8 C9.36702059 4.95202627 9.36702059 4.95202627 11 2 C9.58344207 1.9727585 8.16672955 1.95349533 6.75 1.9375 C5.96109375 1.92589844 5.1721875 1.91429687 4.359375 1.90234375 C2.09308998 1.99614694 0.1711105 2.36758937 -2 3 C-1.34 2.01 -0.68 1.02 0 0 Z " fill="#8D6918" transform="translate(42,33)"/>
<path d="M0 0 C2.475 0.99 2.475 0.99 5 2 C4.8453125 3.7634375 4.8453125 3.7634375 4.6875 5.5625 C4.64828882 9.97767906 6.12787955 12.23607835 8.90625 15.5546875 C10 17 10 17 10 19 C10.9590625 19.2165625 10.9590625 19.2165625 11.9375 19.4375 C14 20 14 20 15 21 C15.55913813 26.70320894 14.5058565 29.50812136 11 34 C4.57460868 28.91022373 0.25138778 24.0779407 -2 16 C-2.265625 12.421875 -2.265625 12.421875 -2.25 8.75 C-2.25515625 7.52796875 -2.2603125 6.3059375 -2.265625 5.046875 C-2 2 -2 2 0 0 Z " fill="#F5DD89" transform="translate(2,24)"/>
<path d="M0 0 C4.74360591 0.41855346 7.87954982 2.52087739 11 6 C13.67371783 10.81269209 14.49775411 14.5247048 14 20 C13 23.4375 13 23.4375 12 26 C11.67 26 11.34 26 11 26 C10.67 24.35 10.34 22.7 10 21 C9.21625 20.87625 8.4325 20.7525 7.625 20.625 C5 20 5 20 3 18 C2.61713197 14.26703674 2.85084215 13.22373677 5 10 C-1.40353322 9.7638041 -6.84629161 10.176679 -13 12 C-12.34 13.32 -11.68 14.64 -11 16 C-12.65 15.67 -14.3 15.34 -16 15 C-15.67 15.66 -15.34 16.32 -15 17 C-14.01 17.33 -13.02 17.66 -12 18 C-12.33 19.32 -12.66 20.64 -13 22 C-18.41139241 23.32278481 -18.41139241 23.32278481 -20.9375 21.9375 C-22 20 -22 20 -22.0625 17.0625 C-20.61132887 12.87971264 -18.91196962 11.99154817 -15 10 C-7.27113713 7.1374582 0.87354074 7.82248026 9 8 C6.12551595 5.08738017 3.35153096 2.35848475 0 0 Z " fill="#6E522B" transform="translate(43,9)"/>
<path d="M0 0 C0.76699219 -0.00322266 1.53398438 -0.00644531 2.32421875 -0.00976562 C7.98242707 0.04492707 7.98242707 0.04492707 10.25 2.3125 C8.60451172 2.26029297 8.60451172 2.26029297 6.92578125 2.20703125 C5.47136955 2.17888135 4.0169412 2.15158248 2.5625 2.125 C1.4806543 2.08729492 1.4806543 2.08729492 0.37695312 2.04882812 C-4.23680413 1.98562597 -7.08264595 2.47740526 -10.75 5.3125 C-13.62635805 8.43540303 -15.3745276 11.30070549 -16.75 15.3125 C-17.75 12.3125 -17.75 12.3125 -16.3125 9.125 C-15.796875 8.196875 -15.28125 7.26875 -14.75 6.3125 C-15.719375 7.09625 -16.68875 7.88 -17.6875 8.6875 C-18.23277344 9.12835938 -18.77804688 9.56921875 -19.33984375 10.0234375 C-21.58524525 12.07602059 -21.74567826 13.24335218 -21.9375 16.3125 C-22.07483785 19.42874325 -22.07483785 19.42874325 -19.75 21.3125 C-19.935625 22.529375 -20.12125 23.74625 -20.3125 25 C-20.53096202 27.17414291 -20.53096202 27.17414291 -19.75 29.3125 C-16.37374895 32.1917669 -12.67840379 34.27177076 -8.75 36.3125 C-10.73 36.8075 -10.73 36.8075 -12.75 37.3125 C-12.42 37.9725 -12.09 38.6325 -11.75 39.3125 C-12.74 39.8075 -12.74 39.8075 -13.75 40.3125 C-13.646875 40.993125 -13.54375 41.67375 -13.4375 42.375 C-13.88555589 46.58672541 -16.14300676 49.08169052 -18.75 52.3125 C-19.08 51.6525 -19.41 50.9925 -19.75 50.3125 C-19.275625 49.590625 -18.80125 48.86875 -18.3125 48.125 C-16.38547186 44.65634935 -16.52014672 42.22000571 -16.75 38.3125 C-17.3275 38.10625 -17.905 37.9 -18.5 37.6875 C-21.58335623 35.80322675 -22.88046877 33.36606767 -24.75 30.3125 C-25.41 29.3225 -26.07 28.3325 -26.75 27.3125 C-27.64730705 21.330453 -25.47974536 15.56611607 -22.75 10.3125 C-16.48112078 2.93656339 -9.53658259 -0.20447218 0 0 Z " fill="#7C603B" transform="translate(32.75,6.6875)"/>
<path d="M0 0 C0.53367187 0.20496094 1.06734375 0.40992188 1.6171875 0.62109375 C6.79082627 2.49183856 11.54131471 3.43323336 17.03125 3.7890625 C19 4 19 4 20 5 C20.125 8.5 20.125 8.5 20 12 C17.97307871 14.02692129 13.96251392 13.18507217 11.1875 13.1875 C10.46240234 13.19974609 9.73730469 13.21199219 8.99023438 13.22460938 C5.17006722 13.23509474 2.23564389 13.14860342 -1 11 C-1.02688151 9.35425434 -1.04634123 7.70838587 -1.0625 6.0625 C-1.07410156 5.14597656 -1.08570312 4.22945312 -1.09765625 3.28515625 C-1 1 -1 1 0 0 Z " fill="#FBFBF4" transform="translate(21,51)"/>
<path d="M0 0 C2.89019954 1.59873164 5.13729507 3.25738095 7.375 5.6875 C7.045 6.3475 6.715 7.0075 6.375 7.6875 C2.415 7.3575 -1.545 7.0275 -5.625 6.6875 C-4.965 6.0275 -4.305 5.3675 -3.625 4.6875 C-7.60110786 1.97263066 -11.76401977 2.46309247 -16.375 2.5625 C-17.56416016 2.57603516 -17.56416016 2.57603516 -18.77734375 2.58984375 C-20.72669281 2.61332988 -22.67588575 2.64919863 -24.625 2.6875 C-19.32850106 -5.1311413 -7.76307851 -3.80722407 0 0 Z " fill="#E4CCA6" transform="translate(45.625,10.3125)"/>
<path d="M0 0 C0 1.32 0 2.64 0 4 C-1.65 4 -3.3 4 -5 4 C-5 4.66 -5 5.32 -5 6 C-1.37 6.33 2.26 6.66 6 7 C6 7.33 6 7.66 6 8 C5.06027344 8.18175781 5.06027344 8.18175781 4.1015625 8.3671875 C3.28429687 8.53476562 2.46703125 8.70234375 1.625 8.875 C0.40683594 9.11863281 0.40683594 9.11863281 -0.8359375 9.3671875 C-3.18673923 9.86658932 -3.18673923 9.86658932 -5 12 C-8.625 12.125 -8.625 12.125 -12 12 C-13.28802683 9.42394633 -12.84689719 8.28552023 -12.25 5.5 C-12.09015625 4.7059375 -11.9303125 3.911875 -11.765625 3.09375 C-9.66135355 -2.66078825 -4.74770175 -0.77831176 0 0 Z " fill="#FCC90D" transform="translate(45,24)"/>
<path d="M0 0 C0 0.99 0 1.98 0 3 C0.33 2.67 0.66 2.34 1 2 C3.67058851 1.85884839 6.32432238 1.95752893 9 2 C9.66 3.32 10.32 4.64 11 6 C6.32499233 9.11667178 1.47055447 8.72611741 -4 8 C-6.87093227 6.6267374 -8.61606714 5.16721169 -11 3 C-10.67 2.01 -10.34 1.02 -10 0 C-3.375 -1.125 -3.375 -1.125 0 0 Z " fill="#F6C41D" transform="translate(32,36)"/>
<path d="M0 0 C2.375 0.75 2.375 0.75 3.375 1.75 C3.93413813 7.45320894 2.8808565 10.25812136 -0.625 14.75 C-2.935 12.77 -5.245 10.79 -7.625 8.75 C-4.96073635 -0.47245108 -4.96073635 -0.47245108 0 0 Z " fill="#E2B932" transform="translate(13.625,43.25)"/>
<path d="M0 0 C5 3 5 3 7.25 4.5 C10.99949116 6.545177 14.92784343 7.74907609 19 9 C19 9.33 19 9.66 19 10 C12.98579743 10.38388527 8.65404897 9.08764885 3 7 C2.67 10.3 2.34 13.6 2 17 C-2.875 15.25 -2.875 15.25 -4 13 C-3.34 12.154375 -2.68 11.30875 -2 10.4375 C0.25272405 6.56563053 0.35177696 4.39721203 0 0 Z " fill="#C7AD86" transform="translate(18,45)"/>
<path d="M0 0 C0.99386719 0.00902344 1.98773438 0.01804687 3.01171875 0.02734375 C4.15060547 0.04474609 4.15060547 0.04474609 5.3125 0.0625 C5.27125 1.17625 5.23 2.29 5.1875 3.4375 C4.90128141 7.10616025 4.90128141 7.10616025 7.3125 9.0625 C9.89604218 9.22937448 9.89604218 9.22937448 12.3125 9.0625 C12.3125 10.3825 12.3125 11.7025 12.3125 13.0625 C9.0125 13.0625 5.7125 13.0625 2.3125 13.0625 C2.6425 12.4025 2.9725 11.7425 3.3125 11.0625 C1.6625 10.7325 0.0125 10.4025 -1.6875 10.0625 C-1.6875 9.4025 -1.6875 8.7425 -1.6875 8.0625 C-0.0375 8.0625 1.6125 8.0625 3.3125 8.0625 C3.3125 6.7425 3.3125 5.4225 3.3125 4.0625 C2.26449219 4.07990234 2.26449219 4.07990234 1.1953125 4.09765625 C0.28523438 4.10667969 -0.62484375 4.11570312 -1.5625 4.125 C-2.91988281 4.14240234 -2.91988281 4.14240234 -4.3046875 4.16015625 C-6.6875 4.0625 -6.6875 4.0625 -8.6875 3.0625 C-8.6875 2.4025 -8.6875 1.7425 -8.6875 1.0625 C-5.53819107 0.01273036 -3.29935544 -0.03881595 0 0 Z " fill="#E3AE1C" transform="translate(41.6875,19.9375)"/>
<path d="M0 0 C0.66 0.33 1.32 0.66 2 1 C3.89455962 6.68367887 3.14711018 11.49803017 1 17 C0.67 17 0.34 17 0 17 C-0.33 15.35 -0.66 13.7 -1 12 C-1.78375 11.87625 -2.5675 11.7525 -3.375 11.625 C-6 11 -6 11 -8 9 C-8.4375 6.5625 -8.4375 6.5625 -8 4 C-5.5 2.1875 -5.5 2.1875 -3 1 C-0.67210485 3.83395931 0.07377893 5.29511572 1 9 C0.67 6.03 0.34 3.06 0 0 Z " fill="#7B673E" transform="translate(54,18)"/>
<path d="M0 0 C0 3.57575896 -1.08840607 5.05295935 -3 8 C-2.67 8.33 -2.34 8.66 -2 9 C-1.92794489 10.68608966 -1.91613932 12.37500659 -1.9375 14.0625 C-1.94652344 14.98160156 -1.95554687 15.90070312 -1.96484375 16.84765625 C-1.97644531 17.55792969 -1.98804688 18.26820312 -2 19 C-3.98 19.33 -5.96 19.66 -8 20 C-8 17.36 -8 14.72 -8 12 C-7.01 12 -6.02 12 -5 12 C-5 11.34 -5 10.68 -5 10 C-5.66 10 -6.32 10 -7 10 C-6.875 6.6875 -6.875 6.6875 -6 3 C-2.9375 1.0625 -2.9375 1.0625 0 0 Z " fill="#C3AC8D" transform="translate(50,42)"/>
<path d="M0 0 C2.99324263 1.0975223 3.84610901 1.67682892 5.25 4.625 C5.4975 5.40875 5.745 6.1925 6 7 C3.79020692 9.81939117 1.59937954 12.53058944 -1 15 C-4.04014168 10.62219599 -4.04014168 10.62219599 -3.875 8.0625 C-2.70611191 5.30726379 -1.38617728 2.6518174 0 0 Z " fill="#EED88E" transform="translate(6,36)"/>
<path d="M0 0 C0.66 0.66 1.32 1.32 2 2 C0.35451172 1.94779297 0.35451172 1.94779297 -1.32421875 1.89453125 C-2.77863045 1.86638135 -4.2330588 1.83908248 -5.6875 1.8125 C-6.7693457 1.77479492 -6.7693457 1.77479492 -7.87304688 1.73632812 C-12.48680413 1.67312597 -15.33264595 2.16490526 -19 5 C-21.87635805 8.12290303 -23.6245276 10.98820549 -25 15 C-26 12 -26 12 -24.5625 8.8125 C-24.046875 7.884375 -23.53125 6.95625 -23 6 C-28.08441876 9.64751781 -29.79444959 11.85169289 -31 18 C-31.66 18 -32.32 18 -33 18 C-32.86339745 12.53589785 -30.62112394 9.63622585 -26.98828125 5.8359375 C-19.22823785 -1.32952497 -10.08525609 -0.93261508 0 0 Z " fill="#83693F" transform="translate(41,7)"/>
<path d="M0 0 C0.66 0.66 1.32 1.32 2 2 C1.66666667 3.33333333 1.33333333 4.66666667 1 6 C2.89755144 8.34973818 2.89755144 8.34973818 6.125 8.125 C7.548125 8.063125 7.548125 8.063125 9 8 C9.33 6.68 9.66 5.36 10 4 C8.68 3.67 7.36 3.34 6 3 C6 2.34 6 1.68 6 1 C8.97 1.495 8.97 1.495 12 2 C11.6875 5.375 11.6875 5.375 11 9 C7.68629 11.20914 6.6553979 11.22481553 2.8125 11.125 C1.91144531 11.10695313 1.01039062 11.08890625 0.08203125 11.0703125 C-0.60503906 11.04710937 -1.29210937 11.02390625 -2 11 C-2 10.01 -2 9.02 -2 8 C-2.3403125 6.7625 -2.3403125 6.7625 -2.6875 5.5 C-2.790625 4.675 -2.89375 3.85 -3 3 C-1.5625 1.1875 -1.5625 1.1875 0 0 Z " fill="#866D47" transform="translate(21,23)"/>
<path d="M0 0 C0.66 0.33 1.32 0.66 2 1 C1.72285156 1.50789062 1.44570313 2.01578125 1.16015625 2.5390625 C-1.01840364 6.67910158 -2.65250212 10.25086231 -3 15 C-2.67 15.33 -2.34 15.66 -2 16 C-1.95919217 17.99958364 -1.95745644 20.00045254 -2 22 C-4.22922955 19.77077045 -4.88128953 17.90864722 -6 15 C-6.33 14.67 -6.66 14.34 -7 14 C-7.5 11.4375 -7.5 11.4375 -7 8 C-4.90958673 5.08909952 -2.52487337 2.53775537 0 0 Z " fill="#CEB590" transform="translate(17,12)"/>
<path d="M0 0 C0.99 0.33 1.98 0.66 3 1 C3 1.66 3 2.32 3 3 C4.32 3.33 5.64 3.66 7 4 C7 3.34 7 2.68 7 2 C6.01 1.67 5.02 1.34 4 1 C8.68091299 1 9.62101604 1.99645871 13 5 C11.68 5 10.36 5 9 5 C9.33 5.66 9.66 6.32 10 7 C9.01 7.495 9.01 7.495 8 8 C8.103125 8.680625 8.20625 9.36125 8.3125 10.0625 C7.86444411 14.27422541 5.60699324 16.76919052 3 20 C2.67 19.34 2.34 18.68 2 18 C2.7115625 16.9171875 2.7115625 16.9171875 3.4375 15.8125 C5.36452814 12.34384935 5.22985328 9.90750571 5 6 C4.360625 5.7525 3.72125 5.505 3.0625 5.25 C1 4 1 4 0.25 1.875 C0.1675 1.25625 0.085 0.6375 0 0 Z " fill="#7A531D" transform="translate(11,39)"/>
<path d="M0 0 C1.22589844 0.15275391 1.22589844 0.15275391 2.4765625 0.30859375 C3.41628906 0.43427734 3.41628906 0.43427734 4.375 0.5625 C3.12523244 4.21566671 2.70401247 5.34315836 -0.625 7.5625 C-3.25 7 -3.25 7 -5.625 5.5625 C-6.4375 2.9375 -6.4375 2.9375 -6.625 0.5625 C-4.10446405 -0.69776798 -2.7707902 -0.35624445 0 0 Z " fill="#F6C914" transform="translate(48.625,34.4375)"/>
<path d="M0 0 C1.32 0 2.64 0 4 0 C4.33 0.66 4.66 1.32 5 2 C5.99 2.33 6.98 2.66 8 3 C7.67 4.32 7.34 5.64 7 7 C4.1875 7.6875 4.1875 7.6875 1 8 C-0.9375 6.8125 -0.9375 6.8125 -2 5 C-1.74853421 2.86254078 -1.54074221 1.54074221 0 0 Z " fill="#1D120E" transform="translate(23,24)"/>
<path d="M0 0 C0.33 1.32 0.66 2.64 1 4 C2.65 4.33 4.3 4.66 6 5 C6 5.66 6 6.32 6 7 C2.22777911 8.75163456 -0.666639 9.22490027 -4.8125 9.125 C-6.27623047 9.09792969 -6.27623047 9.09792969 -7.76953125 9.0703125 C-8.50558594 9.04710937 -9.24164063 9.02390625 -10 9 C-10 8.67 -10 8.34 -10 8 C-8.72125 7.87625 -7.4425 7.7525 -6.125 7.625 C-2.65209064 7.30957601 -2.65209064 7.30957601 0 5 C-0.33 4.01 -0.66 3.02 -1 2 C-6.1693489 2.40556131 -6.1693489 2.40556131 -11 4 C-10.67 3.01 -10.34 2.02 -10 1 C-6.59437148 0.22157062 -3.49234244 -0.09978121 0 0 Z " fill="#CA9D1B" transform="translate(42,36)"/>
<path d="M0 0 C-0.57584432 2.38564077 -1.22227595 4.66682784 -2 7 C-4.64 6.67 -7.28 6.34 -10 6 C-9.67 4.68 -9.34 3.36 -9 2 C-9.66 1.67 -10.32 1.34 -11 1 C-3.375 0 -3.375 0 0 0 Z " fill="#D1B691" transform="translate(43,46)"/>
<path d="M0 0 C0 1.98 0 3.96 0 6 C-0.66 6 -1.32 6 -2 6 C-2.33 7.65 -2.66 9.3 -3 11 C-4.65 9.68 -6.3 8.36 -8 7 C-6.13932792 2.84926997 -4.83061881 0 0 0 Z " fill="#F0C612" transform="translate(15,46)"/>
<path d="M0 0 C0 3.63 0 7.26 0 11 C-1.98 11.99 -1.98 11.99 -4 13 C-4 10.03 -4 7.06 -4 4 C-4.66 3.67 -5.32 3.34 -6 3 C-2.25 0 -2.25 0 0 0 Z " fill="#B7922D" transform="translate(52,47)"/>
<path d="M0 0 C0.66 0.33 1.32 0.66 2 1 C1.67 1.66 1.34 2.32 1 3 C1.66 3 2.32 3 3 3 C3 3.66 3 4.32 3 5 C2.01 5 1.02 5 0 5 C0.33 7.97 0.66 10.94 1 14 C0.34 14 -0.32 14 -1 14 C-1.33 11.69 -1.66 9.38 -2 7 C-2.85464844 6.73445313 -3.70929687 6.46890625 -4.58984375 6.1953125 C-5.69457031 5.84210937 -6.79929687 5.48890625 -7.9375 5.125 C-9.03964844 4.77695312 -10.14179688 4.42890625 -11.27734375 4.0703125 C-14 3 -14 3 -15 1 C-14.40832031 1.13277344 -13.81664063 1.26554687 -13.20703125 1.40234375 C-9.14553475 2.31005178 -5.08625829 3.2091113 -1 4 C-0.67 2.68 -0.34 1.36 0 0 Z " fill="#72634A" transform="translate(42,49)"/>
<path d="M0 0 C4.00930407 0.35376212 6.68958835 1.73401795 9.70703125 4.41015625 C12.97345334 8.42657254 13.31272871 13.99634068 13 19 C9.17179787 17.08589894 8.29482585 11.88447755 7 8 C7.66 7.67 8.32 7.34 9 7 C8.3503125 6.57847656 7.700625 6.15695313 7.03125 5.72265625 C5.77828125 4.90087891 5.77828125 4.90087891 4.5 4.0625 C3.6646875 3.51722656 2.829375 2.97195312 1.96875 2.41015625 C1.3190625 1.94480469 0.669375 1.47945312 0 1 C0 0.67 0 0.34 0 0 Z " fill="#88774E" transform="translate(43,9)"/>
<path d="M0 0 C0.33 2.64 0.66 5.28 1 8 C-0.98 8.33 -2.96 8.66 -5 9 C-5 6.36 -5 3.72 -5 1 C-2 0 -2 0 0 0 Z " fill="#FCFCF6" transform="translate(47,53)"/>
<path d="M0 0 C0.66 0.66 1.32 1.32 2 2 C-1.56045177 3.18681726 -4.43808337 3.09689832 -8.1875 3.0625 C-9.45980469 3.05347656 -10.73210938 3.04445313 -12.04296875 3.03515625 C-13.50669922 3.01775391 -13.50669922 3.01775391 -15 3 C-15.33 4.32 -15.66 5.64 -16 7 C-16.99 5.68 -17.98 4.36 -19 3 C-12.74712225 0.46260033 -6.77825216 -0.9866265 0 0 Z " fill="#C5913C" transform="translate(48,18)"/>
<path d="M0 0 C0.99 1.32 1.98 2.64 3 4 C0.47524538 5.26237731 -1.31200466 5.09856404 -4.125 5.0625 C-5.03507812 5.05347656 -5.94515625 5.04445313 -6.8828125 5.03515625 C-7.58148438 5.02355469 -8.28015625 5.01195312 -9 5 C-9 4.34 -9 3.68 -9 3 C-6.03 2.01 -3.06 1.02 0 0 Z " fill="#FDC90E" transform="translate(40,38)"/>
<path d="M0 0 C0.33 0.66 0.66 1.32 1 2 C3.58605332 2.4683265 3.58605332 2.4683265 6.5625 2.625 C8.08037109 2.73714844 8.08037109 2.73714844 9.62890625 2.8515625 C10.80259766 2.92503906 10.80259766 2.92503906 12 3 C12 3.33 12 3.66 12 4 C11.06027344 4.18175781 11.06027344 4.18175781 10.1015625 4.3671875 C9.28429688 4.53476562 8.46703125 4.70234375 7.625 4.875 C6.40683594 5.11863281 6.40683594 5.11863281 5.1640625 5.3671875 C2.81326077 5.86658932 2.81326077 5.86658932 1 8 C-2.625 8.125 -2.625 8.125 -6 8 C-6 7.67 -6 7.34 -6 7 C-3.36 6.34 -0.72 5.68 2 5 C1.01 4.34 0.02 3.68 -1 3 C-0.67 2.01 -0.34 1.02 0 0 Z " fill="#F5CA1A" transform="translate(39,28)"/>
<path d="M0 0 C2.97 0.495 2.97 0.495 6 1 C5.125 7.875 5.125 7.875 4 9 C1.66702567 9.04092937 -0.66705225 9.04241723 -3 9 C0.75 7 0.75 7 3 7 C3.33 5.68 3.66 4.36 4 3 C2.68 2.67 1.36 2.34 0 2 C0 1.34 0 0.68 0 0 Z " fill="#A28F5D" transform="translate(27,24)"/>
<path d="M0 0 C0.53367187 0.20496094 1.06734375 0.40992188 1.6171875 0.62109375 C7.41395572 2.717157 12.85732066 3.62810501 19 4 C19 4.33 19 4.66 19 5 C14.38 5 9.76 5 5 5 C4.67 4.34 4.34 3.68 4 3 C3.01 3 2.02 3 1 3 C0.34 3.66 -0.32 4.32 -1 5 C-0.67 3.35 -0.34 1.7 0 0 Z " fill="#ECE1C9" transform="translate(21,51)"/>
<path d="M0 0 C1.98 0.99 1.98 0.99 4 2 C4 3.98 4 5.96 4 8 C2.68 8.33 1.36 8.66 0 9 C0 6.03 0 3.06 0 0 Z " fill="#C6AC84" transform="translate(8,27)"/>
<path d="M0 0 C0.77601562 -0.00773438 1.55203125 -0.01546875 2.3515625 -0.0234375 C8.12159734 -0.00340266 8.12159734 -0.00340266 10.375 2.25 C9.28960937 2.21519531 8.20421875 2.18039062 7.0859375 2.14453125 C5.64064058 2.11637612 4.19532679 2.08907781 2.75 2.0625 C1.68072266 2.02479492 1.68072266 2.02479492 0.58984375 1.98632812 C-4.24776416 1.91975554 -7.37238338 2.69440547 -11.625 5.25 C-11.955 4.26 -12.285 3.27 -12.625 2.25 C-8.67060156 -0.41446098 -4.58179897 -0.04612549 0 0 Z " fill="#7B6537" transform="translate(32.625,6.75)"/>
<path d="M0 0 C6.55327899 0.27305329 10.06930548 2.81211141 15 7 C14.67 7.66 14.34 8.32 14 9 C12.989375 8.236875 11.97875 7.47375 10.9375 6.6875 C7.44221425 4.17660085 4.0045566 2.55278725 0 1 C0 0.67 0 0.34 0 0 Z " fill="#EFDBC1" transform="translate(38,9)"/>
<path d="M0 0 C1.98 0.66 3.96 1.32 6 2 C5.67 2.99 5.34 3.98 5 5 C8.63 5 12.26 5 16 5 C16 5.33 16 5.66 16 6 C5.31569507 6.76681614 5.31569507 6.76681614 2.08984375 4.88671875 C0.75 3.5 0.75 3.5 -1 1 C-0.67 0.67 -0.34 0.34 0 0 Z " fill="#F2B520" transform="translate(24,38)"/>
<path d="M0 0 C1.48117801 0.28127421 2.95993249 0.57533732 4.4375 0.875 C5.67306641 1.11863281 5.67306641 1.11863281 6.93359375 1.3671875 C7.61550781 1.57601562 8.29742187 1.78484375 9 2 C9.33 2.66 9.66 3.32 10 4 C8.68 4.33 7.36 4.66 6 5 C6.66 5.66 7.32 6.32 8 7 C6.25 6.875 6.25 6.875 4 6 C1.75 2.9375 1.75 2.9375 0 0 Z " fill="#A9895D" transform="translate(19,43)"/>
<path d="M0 0 C0.66 0.33 1.32 0.66 2 1 C3.89455962 6.68367887 3.14711018 11.49803017 1 17 C0.67 17 0.34 17 0 17 C-0.33 14.69 -0.66 12.38 -1 10 C-0.34 9.67 0.32 9.34 1 9 C0.67 6.03 0.34 3.06 0 0 Z " fill="#6D531F" transform="translate(54,18)"/>
<path d="M0 0 C1.32 0.66 2.64 1.32 4 2 C3.67 2.99 3.34 3.98 3 5 C2.01 4.67 1.02 4.34 0 4 C0.33 5.32 0.66 6.64 1 8 C0.01 8 -0.98 8 -2 8 C-1.47731534 5.23723823 -0.89130413 2.6739124 0 0 Z " fill="#F2DB98" transform="translate(6,36)"/>
<path d="M0 0 C0.33 0.99 0.66 1.98 1 3 C0.01 3.66 -0.98 4.32 -2 5 C-2.99 4.67 -3.98 4.34 -5 4 C-5.99 4 -6.98 4 -8 4 C-7.67 3.01 -7.34 2.02 -7 1 C-3.535 0.505 -3.535 0.505 0 0 Z " fill="#FBC20F" transform="translate(29,35)"/>
<path d="M0 0 C2.97 0.33 5.94 0.66 9 1 C7.75023244 4.65316671 7.32901247 5.78065836 4 8 C4 7.01 4 6.02 4 5 C4.66 5 5.32 5 6 5 C4.60804085 2.2160817 2.84424221 2.02101003 0 1 C0 0.67 0 0.34 0 0 Z " fill="#DFBB2A" transform="translate(44,34)"/>
<path d="M0 0 C2.64 0 5.28 0 8 0 C8 0.66 8 1.32 8 2 C4.5647952 4.29013653 3.014669 4.17842973 -1 4 C-0.67 2.68 -0.34 1.36 0 0 Z " fill="#F1CC0A" transform="translate(33,31)"/>
<path d="M0 0 C0.33 1.32 0.66 2.64 1 4 C-1.97 6.475 -1.97 6.475 -5 9 C-3.90931332 5.22454612 -3.0916909 2.52956528 0 0 Z " fill="#9E741D" transform="translate(11,43)"/>
<path d="M0 0 C1.98 0 3.96 0 6 0 C6 1.32 6 2.64 6 4 C2.7 4 -0.6 4 -4 4 C-2.68 3.34 -1.36 2.68 0 2 C0 1.34 0 0.68 0 0 Z " fill="#DEB52F" transform="translate(48,29)"/>
<path d="M0 0 C2.5 1.375 2.5 1.375 5 3 C5 3.66 5 4.32 5 5 C3.125 5.625 3.125 5.625 1 6 C0.34 5.34 -0.32 4.68 -1 4 C-0.625 1.875 -0.625 1.875 0 0 Z " fill="#1B130D" transform="translate(49,22)"/>
<path d="M0 0 C0.33 0.99 0.66 1.98 1 3 C-2.3 3 -5.6 3 -9 3 C-8 1 -8 1 -6.1875 0.375 C-4 0 -4 0 0 0 Z " fill="#F8BD14" transform="translate(44,21)"/>
<path d="M0 0 C1.875 0.3125 1.875 0.3125 4 1 C4.66 1.99 5.32 2.98 6 4 C2.7 4 -0.6 4 -4 4 C-2.68 3.34 -1.36 2.68 0 2 C0 1.34 0 0.68 0 0 Z " fill="#C4AD89" transform="translate(44,13)"/>
<path d="M0 0 C0.4125 0.639375 0.825 1.27875 1.25 1.9375 C3.17810487 4.20990931 4.11424181 4.60196439 7 5 C6.67 5.66 6.34 6.32 6 7 C1.125 6.125 1.125 6.125 0 5 C-0.04063832 3.33382885 -0.042721 1.66611905 0 0 Z " fill="#957745" transform="translate(47,23)"/>
<path d="M0 0 C0.33 0.99 0.66 1.98 1 3 C0.34 3.66 -0.32 4.32 -1 5 C-1.69748583 6.31747324 -2.36959957 7.64914193 -3 9 C-3 6.36 -3 3.72 -3 1 C-2.01 0.67 -1.02 0.34 0 0 Z " fill="#E9E5DA" transform="translate(45,53)"/>
<path d="M0 0 C0 3.20395416 -0.74335022 5.09399739 -2 8 C-2.99 7.67 -3.98 7.34 -5 7 C-3.70700306 4.11562221 -2.34058637 2.12780579 0 0 Z " fill="#F6CD06" transform="translate(13,47)"/>
<path d="M0 0 C1.9375 0.5625 1.9375 0.5625 4 2 C4.75 5.625 4.75 5.625 5 9 C2.38952199 7.694761 2.31933577 6.64173426 1.375 3.9375 C1.11460938 3.20402344 0.85421875 2.47054688 0.5859375 1.71484375 C0.39257812 1.14894531 0.19921875 0.58304688 0 0 Z " fill="#B09F85" transform="translate(51,19)"/>
<path d="M0 0 C2.97 0.495 2.97 0.495 6 1 C6 2.65 6 4.3 6 6 C5.34 5.01 4.68 4.02 4 3 C1.94074861 2.27617533 1.94074861 2.27617533 0 2 C0 1.34 0 0.68 0 0 Z " fill="#85764B" transform="translate(27,24)"/>
<path d="M0 0 C0.66 0.33 1.32 0.66 2 1 C2 2.32 2 3.64 2 5 C2.66 5.66 3.32 6.32 4 7 C3.01 7.495 3.01 7.495 2 8 C1.01 7.34 0.02 6.68 -1 6 C-0.67 4.02 -0.34 2.04 0 0 Z " fill="#B29976" transform="translate(14,21)"/>
</svg>
