<svg width="256" height="256" viewBox="0 0 256 256" fill="none" xmlns="http://www.w3.org/2000/svg">
<path d="M128 256C198.692 256 256 198.692 256 128C256 57.3075 198.692 0 128 0C57.3075 0 0 57.3075 0 128C0 198.692 57.3075 256 128 256Z" fill="#3375BB"/>
<path fill-rule="evenodd" clip-rule="evenodd" d="M189.871 71.0555C194.368 71.0623 198.007 74.7106 198 79.2052C198 79.2365 198 79.2671 197.999 79.2983C197.61 102.586 196.71 120.399 195.03 134.499C193.392 148.599 190.927 159.075 187.214 167.55C184.713 173.213 181.626 177.9 177.998 181.888C173.109 187.163 167.532 190.991 161.43 194.626C158.824 196.184 156.114 197.722 153.277 199.336C147.212 202.779 140.547 206.565 132.982 211.624C130.253 213.459 126.685 213.459 123.956 211.624C116.278 206.51 109.526 202.674 103.411 199.211C102.05 198.441 100.72 197.682 99.4195 196.936C92.2668 192.799 85.827 188.848 80.2 183.149C76.4486 179.398 73.2048 174.824 70.6217 169.398C67.1082 162.136 64.7195 153.348 62.9688 141.972C60.6016 126.761 59.4388 106.873 59.0011 79.2971C58.9655 77.1298 59.7967 75.0378 61.3095 73.4845C62.8548 71.9416 64.9475 71.0708 67.1315 71.0617H70.493C80.8466 71.1003 103.705 70.0855 123.475 54.6986C126.41 52.4338 130.504 52.4338 133.44 54.6986C153.209 70.0861 176.068 71.1113 186.471 71.0617M171.704 162.352C174.243 157.117 176.355 149.889 177.956 139.501C179.87 127.076 181.043 110.2 181.595 87.2379C169.403 86.8855 148.458 84.5417 128.488 71.1003C108.519 84.4982 87.574 86.8359 75.4194 87.2354C75.8497 106.224 76.7085 120.986 78.0766 132.586C79.6397 145.786 81.8654 154.737 84.6415 161.024C86.4786 165.205 88.5106 168.212 90.9312 170.874C94.175 174.43 98.2776 177.358 103.861 180.724C106.179 182.112 108.738 183.561 111.514 185.137C116.471 187.941 122.143 191.149 128.47 195.175C134.686 191.212 140.274 188.037 145.176 185.249C146.652 184.409 148.064 183.612 149.414 182.828C156.291 178.883 161.368 175.602 165.157 171.778C167.716 169.149 169.791 166.299 171.704 162.349" fill="white"/>
</svg>
