<?xml version="1.0" encoding="UTF-8"?>
<svg version="1.1" xmlns="http://www.w3.org/2000/svg" width="64" height="64">
<path d="M0 0 C21.12 0 42.24 0 64 0 C64 21.12 64 42.24 64 64 C42.88 64 21.76 64 0 64 C0 42.88 0 21.76 0 0 Z " fill="#01042C" transform="translate(0,0)"/>
<path d="M0 0 C3.875 3.75 3.875 3.75 5 6 C10.7809725 5.36934845 16.3443706 4.34844868 22 3 C19.57542028 5.68234235 16.92489603 7.36856725 13.8125 9.1875 C12.91144531 9.71730469 12.01039062 10.24710938 11.08203125 10.79296875 C10.39496094 11.19128906 9.70789063 11.58960938 9 12 C9.5835178 15.4888222 10.50573663 18.33067529 12.0625 21.5 C14.76005265 27.41689467 14.76005265 27.41689467 14 31 C13.01 31.66 12.02 32.32 11 33 C6.91198782 31.95179175 4.91504031 29.91504031 2 27 C-0.06658539 26.36195226 -0.06658539 26.36195226 -2 26 C-1.51789062 26.54269531 -1.03578125 27.08539062 -0.5390625 27.64453125 C0.09257812 28.35996094 0.72421875 29.07539062 1.375 29.8125 C2.00148438 30.52019531 2.62796875 31.22789063 3.2734375 31.95703125 C6.57483879 35.86344047 7.22487771 37.94025155 7 43 C8.32 43.33 9.64 43.66 11 44 C11 45.98 11 47.96 11 50 C7.7 50 4.4 50 1 50 C0.67 48.68 0.34 47.36 0 46 C-0.33 47.32 -0.66 48.64 -1 50 C-1.66 50 -2.32 50 -3 50 C-3 48.35 -3 46.7 -3 45 C-3.66 45 -4.32 45 -5 45 C-5 46.65 -5 48.3 -5 50 C-5.99 50 -6.98 50 -8 50 C-7.87625 48.824375 -7.7525 47.64875 -7.625 46.4375 C-7.59206817 41.77764675 -9.41273801 39.84028788 -12.53125 36.58203125 C-15.36618499 33.52844436 -15.91564563 30.74513026 -16.375 26.6875 C-15.77302317 20.76806122 -13.54771478 16.10113692 -9.125 12.0625 C-5.91131548 9.94146822 -3.80437004 9.27174072 0 9 C-0.185625 8.2575 -0.37125 7.515 -0.5625 6.75 C-0.99203108 4.05009037 -0.85122974 2.55368923 0 0 Z " fill="#A33B88" transform="translate(28,3)"/>
<path d="M0 0 C2.47567895 1.10030176 4.28628551 2.24108253 6.375 4 C9.18589057 6.14163091 11.66224881 6.93798826 15 8 C16.35439668 10.70879335 16.06501451 13.00933268 16 16 C17.32 16.33 18.64 16.66 20 17 C20 18.98 20 20.96 20 23 C16.7 23 13.4 23 10 23 C9.67 21.68 9.34 20.36 9 19 C8.67 20.32 8.34 21.64 8 23 C7.34 23 6.68 23 6 23 C6 21.35 6 19.7 6 18 C5.34 18 4.68 18 4 18 C4 19.65 4 21.3 4 23 C3.01 23 2.02 23 1 23 C1.185625 21.2365625 1.185625 21.2365625 1.375 19.4375 C1.41630775 14.76146306 -0.44211704 12.84658699 -3.59765625 9.609375 C-5.40715333 7.53273768 -5.83496575 5.72306508 -6 3 C-5.195625 2.690625 -4.39125 2.38125 -3.5625 2.0625 C-1.10919595 1.23664655 -1.10919595 1.23664655 0 0 Z " fill="#673083" transform="translate(19,30)"/>
<path d="M0 0 C1.8322723 2.74840846 3.22659477 5.39009995 4.625 8.375 C5.07101563 9.31085937 5.51703125 10.24671875 5.9765625 11.2109375 C7.01148031 14.03128603 7.205435 16.02659862 7 19 C4.8125 18.875 4.8125 18.875 2 18 C0.26776336 16.05651499 -1.39881603 14.05279996 -3 12 C-3.763125 11.484375 -4.52625 10.96875 -5.3125 10.4375 C-7 9 -7 9 -7.25 6.3125 C-7.1675 5.549375 -7.085 4.78625 -7 4 C-6.01 4 -5.02 4 -4 4 C-1.81222534 2.0624994 -1.81222534 2.0624994 0 0 Z " fill="#9549B0" transform="translate(35,15)"/>
<path d="M0 0 C0.99 0.33 1.98 0.66 3 1 C2.195625 1.61875 1.39125 2.2375 0.5625 2.875 C-2.03874519 4.74164041 -2.03874519 4.74164041 -3 7 C-2.95186145 9.79641218 -2.8044016 12.57893942 -2.64453125 15.37109375 C-3 18 -3 18 -4.83984375 19.8359375 C-7.4096707 21.22076287 -9.12205503 21.23982875 -12 21 C-12.4955681 15.05318274 -11.40279141 10.94857165 -8 6 C-5.61351901 3.53437551 -3.08646432 1.54323216 0 0 Z " fill="#792B7F" transform="translate(24,12)"/>
<path d="M0 0 C0.66 0.66 1.32 1.32 2 2 C1.625 4.625 1.625 4.625 1 7 C1.48210938 7.39832031 1.96421875 7.79664063 2.4609375 8.20703125 C3.09257812 8.73683594 3.72421875 9.26664063 4.375 9.8125 C5.00148438 10.33457031 5.62796875 10.85664063 6.2734375 11.39453125 C8 13 8 13 10 16 C10.99 16.66 11.98 17.32 13 18 C11 19 11 19 8.625 18.3125 C5.78149786 16.89074893 4.23458923 15.23458923 2 13 C0.03120677 11.93988057 -1.96435867 10.92529151 -4 10 C-3.38461538 3.47692308 -3.38461538 3.47692308 -1.4375 1.0625 C-0.7259375 0.5365625 -0.7259375 0.5365625 0 0 Z " fill="#713191" transform="translate(28,17)"/>
<path d="M0 0 C3.875 3.75 3.875 3.75 5 6 C10.7809725 5.36934845 16.3443706 4.34844868 22 3 C19.55038464 5.8852852 17.17847474 6.86015992 13.625 8.0625 C10.04185298 9.29143059 6.50661631 10.56547515 3 12 C3 11.01 3 10.02 3 9 C2.01 9 1.02 9 0 9 C-0.84454356 5.62182575 -1.10844919 3.32534757 0 0 Z " fill="#D25A9A" transform="translate(28,3)"/>
<path d="M0 0 C0.99 0 1.98 0 3 0 C3 0.66 3 1.32 3 2 C4.32 2.33 5.64 2.66 7 3 C7 4.98 7 6.96 7 9 C4.69 9 2.38 9 0 9 C0 6.03 0 3.06 0 0 Z " fill="#FDFDFC" transform="translate(32,44)"/>
<path d="M0 0 C0.99 0 1.98 0 3 0 C3 2.31 3 4.62 3 7 C3.99 7 4.98 7 6 7 C6 4.69 6 2.38 6 0 C6.66 0 7.32 0 8 0 C8 2.97 8 5.94 8 9 C5.66705225 9.04241723 3.33297433 9.04092937 1 9 C0 8 0 8 -0.09765625 6.15234375 C-0.06510417 4.1015625 -0.03255208 2.05078125 0 0 Z " fill="#FDFDFD" transform="translate(11,44)"/>
<path d="M0 0 C2.5 0.125 2.5 0.125 3.5 1.125 C3.54080783 3.12458364 3.54254356 5.12545254 3.5 7.125 C1.19 7.125 -1.12 7.125 -3.5 7.125 C-3.54254356 5.12545254 -3.54080783 3.12458364 -3.5 1.125 C-2.5 0.125 -2.5 0.125 0 0 Z " fill="#DEDEE2" transform="translate(43.5,45.875)"/>
<path d="M0 0 C1.99954746 -0.04254356 4.00041636 -0.04080783 6 0 C7 1 7 1 7.0625 4.0625 C7.041875 5.031875 7.02125 6.00125 7 7 C6.34 7 5.68 7 5 7 C5 5.35 5 3.7 5 2 C4.34 2 3.68 2 3 2 C3 3.65 3 5.3 3 7 C2.01 7 1.02 7 0 7 C0 4.69 0 2.38 0 0 Z " fill="#F7F7F8" transform="translate(20,46)"/>
<path d="M0 0 C1.67588141 2.51382212 2.94030311 4.82947288 4.1875 7.5625 C4.55230469 8.34753906 4.91710938 9.13257813 5.29296875 9.94140625 C5.52628906 10.62074219 5.75960937 11.30007812 6 12 C5.67 12.66 5.34 13.32 5 14 C1.30250259 9.92000285 -0.2589664 6.13604912 -2 1 C-1.34 0.67 -0.68 0.34 0 0 Z " fill="#B864CA" transform="translate(35,15)"/>
<path d="M0 0 C2.79872437 2.52788007 4.45773019 4.20411134 5 8 C3.35 8.33 1.7 8.66 0 9 C-0.84454356 5.62182575 -1.10844919 3.32534757 0 0 Z " fill="#B765C8" transform="translate(28,3)"/>
<path d="M0 0 C0.99 0.33 1.98 0.66 3 1 C2.67 2.65 2.34 4.3 2 6 C2.66 6 3.32 6 4 6 C4 6.66 4 7.32 4 8 C2.35 7.67 0.7 7.34 -1 7 C-1.04254356 5.00045254 -1.04080783 2.99958364 -1 1 C-0.67 0.67 -0.34 0.34 0 0 Z " fill="#FAFBFA" transform="translate(49,45)"/>
<path d="M0 0 C0.99 0 1.98 0 3 0 C3 0.66 3 1.32 3 2 C3.99 2.33 4.98 2.66 6 3 C5.67 4.32 5.34 5.64 5 7 C4.34 7 3.68 7 3 7 C1.25372522 4.38058783 0.61277612 2.96175123 0 0 Z " fill="#B4B1BE" transform="translate(32,44)"/>
<path d="M0 0 C-3.79692186 2.82561627 -6.18569279 4.56638908 -11 4 C-3.77464789 -1.88732394 -3.77464789 -1.88732394 0 0 Z " fill="#AD4188" transform="translate(45,10)"/>
</svg>
