<?xml version="1.0" encoding="UTF-8"?>
<svg version="1.1" xmlns="http://www.w3.org/2000/svg" width="128" height="128">
<path d="M0 0 C14.09049043 10.97063593 22.74936159 26.58196554 25.05175781 44.26855469 C26.31982675 61.54119062 22.27314507 77.78473657 11.17285156 91.40136719 C8.9532844 93.93747704 6.66707164 96.37243401 4.30957031 98.78027344 C3.79136719 99.33457031 3.27316406 99.88886719 2.73925781 100.45996094 C-8.02438083 110.88547481 -24.10275985 115.77553408 -38.79589844 115.86621094 C-56.47175933 115.46803004 -72.39926729 108.78082161 -85.04199219 96.49511719 C-98.72243385 82.05973477 -103.23745859 65.53438123 -102.96777344 46.16699219 C-102.38251147 29.52051121 -94.00944432 14.77894694 -82.19042969 3.36621094 C-75.6226058 -2.34244994 -68.78738511 -6.09317942 -60.69042969 -9.21972656 C-59.43746094 -9.73019531 -59.43746094 -9.73019531 -58.15917969 -10.25097656 C-38.69200582 -16.90431447 -16.27804675 -11.74539595 0 0 Z " fill="#2E2E2E" transform="translate(102.6904296875,12.2197265625)"/>
<path d="M0 0 C1.65 0 3.3 0 5 0 C5 2.64 5 5.28 5 8 C6.216875 8.103125 7.43375 8.20625 8.6875 8.3125 C12.48621941 8.82167579 15.02378441 9.43714769 18 12 C20.65399174 16.08975776 22 19.06976083 22 24 C20.02 24 18.04 24 16 24 C15.731875 22.88625 15.46375 21.7725 15.1875 20.625 C14.34190981 16.78159049 14.34190981 16.78159049 11 15 C8.14376926 14.77807289 5.41705309 14.67551615 2.5625 14.6875 C1.79873047 14.67138672 1.03496094 14.65527344 0.24804688 14.63867188 C-3.09112331 14.63576572 -5.45353235 14.74339039 -8.50390625 16.17578125 C-10.55081531 18.67162076 -10.53440376 20.30045045 -10.5 23.5 C-10.5103125 24.4590625 -10.520625 25.418125 -10.53125 26.40625 C-10.20878577 29.02989657 -10.20878577 29.02989657 -8.55078125 30.72265625 C-4.04471363 32.97914034 0.89495274 33.51860875 5.82617188 34.37304688 C12.25543661 35.58582846 17.87839322 37.12556501 21.9375 42.625 C23.75371848 48.39416457 23.82464845 53.65626229 21.8125 59.375 C19.69516552 62.44148442 18.25249919 64.13154302 15 66 C11.67186839 66.60743506 8.37805809 66.86881328 5 67 C5 69.64 5 72.28 5 75 C3.35 75 1.7 75 0 75 C0 72.36 0 69.72 0 67 C-0.58007812 66.98582031 -1.16015625 66.97164063 -1.7578125 66.95703125 C-7.85715559 66.58462911 -10.80729516 65.49948812 -15 61 C-17.09019773 57.29464947 -17.19583723 54.21050044 -17 50 C-15.35 50 -13.7 50 -12 50 C-11.81824219 50.55429688 -11.63648438 51.10859375 -11.44921875 51.6796875 C-11.19785156 52.40414062 -10.94648437 53.12859375 -10.6875 53.875 C-10.44386719 54.59429687 -10.20023438 55.31359375 -9.94921875 56.0546875 C-9.03664453 58.33994905 -9.03664453 58.33994905 -6 60 C-3.03571385 60.44634955 -0.05694661 60.3702657 2.9375 60.375 C4.15469727 60.41173828 4.15469727 60.41173828 5.39648438 60.44921875 C9.18538117 60.46786795 11.33863117 60.44464335 14.5390625 58.29296875 C16.25177117 55.60484043 16.50916179 54.1049511 16.4375 50.9375 C16.43556641 49.65166016 16.43556641 49.65166016 16.43359375 48.33984375 C15.90208512 45.47161249 15.38895858 44.65969754 13 43 C10.12485697 42.05348865 10.12485697 42.05348865 6.875 41.4375 C5.13669922 41.06044922 5.13669922 41.06044922 3.36328125 40.67578125 C1.36532044 40.27433268 -0.63640603 39.8900155 -2.64453125 39.54296875 C-8.13508864 38.54213461 -11.06754098 37.02837265 -15 33 C-17.91304098 28.31510935 -17.60429143 23.33790766 -17 18 C-14.80365097 12.96670013 -11.82093567 10.87274099 -6.97265625 8.6796875 C-4.56386918 7.84972918 -2.52580973 7.68427378 0 8 C0 5.36 0 2.72 0 0 Z " fill="#F9F9F9" transform="translate(61,26)"/>
<path d="M0 0 C8.9703824 2.26368584 15.76023474 5.2435701 23 11 C23.9075 11.639375 24.815 12.27875 25.75 12.9375 C35.64988618 22.01239566 41.11730845 35.000193 42.28515625 48.23046875 C42.68444231 62.76100922 38.23865934 76.16636167 28.8125 87.3125 C21.31263415 95.13899318 12.39391055 100.04864268 2 103 C1.34 103 0.68 103 0 103 C0 101.35 0 99.7 0 98 C1.03898437 97.59910156 2.07796875 97.19820313 3.1484375 96.78515625 C16.08746124 91.59556702 25.96583852 85.08658772 32 72 C37.1931345 59.69876264 38.19175417 46.38269673 33.32421875 33.8125 C26.01462951 18.2877087 15.71960894 11.12116399 0 5 C0 3.35 0 1.7 0 0 Z " fill="#F9F9F9" transform="translate(74,12)"/>
<path d="M0 0 C0 1.65 0 3.3 0 5 C-0.81082031 5.268125 -1.62164062 5.53625 -2.45703125 5.8125 C-16.49437289 10.78031357 -25.80654187 17.87566007 -32.75 31 C-38.21319955 42.5939283 -38.54664926 54.86177456 -35.0390625 67.1875 C-33.29840397 71.89905693 -30.91139162 75.92267192 -28 80 C-27.49726563 80.71027344 -26.99453125 81.42054687 -26.4765625 82.15234375 C-19.83381001 90.59349996 -10.14556006 95.12542465 0 98 C0 99.65 0 101.3 0 103 C-13.31835209 100.63706656 -24.87236949 94.10812892 -32.875 83 C-33.9431288 81.35016725 -34.987211 79.684371 -36 78 C-36.39960937 77.34257813 -36.79921875 76.68515625 -37.2109375 76.0078125 C-43.94634547 63.8030507 -44.88410267 49.30631992 -41.08984375 36.03515625 C-35.5163122 20.51317054 -26.09311364 10.41893608 -11.48266602 3.37182617 C-4.15791364 0 -4.15791364 0 0 0 Z " fill="#F9F9F9" transform="translate(54,12)"/>
</svg>
