<?xml version="1.0" encoding="UTF-8"?>
<svg version="1.1" xmlns="http://www.w3.org/2000/svg" width="64" height="64">
<path d="M0 0 C21.12 0 42.24 0 64 0 C64 21.12 64 42.24 64 64 C42.88 64 21.76 64 0 64 C0 42.88 0 21.76 0 0 Z " fill="#072B63" transform="translate(0,0)"/>
<path d="M0 0 C4.74313827 0.46501356 8.25231525 0.96133669 12 4 C15.6358529 8.81504844 16.66296765 12.54088015 16.37890625 18.5703125 C15.53375906 23.98970993 13.24063955 27.03230115 8.875 30.4375 C4.38733973 32.66206979 -0.11002578 32.7770585 -5 32 C-8.89274707 30.63935757 -11.46267308 28.72799131 -13.9375 25.375 C-15 23 -15 23 -15 21 C-12.8125 20.6875 -12.8125 20.6875 -10 21 C-7.25 23.4375 -7.25 23.4375 -5 26 C-3.79141448 27.4238996 -3.79141448 27.4238996 -0.25 27.3125 C3.03766339 27.27714878 3.96313306 27.0232422 6.875 25.1875 C9.91084606 22.06236435 10.94832552 20.53396966 11.375 16.125 C11.28022118 13.08650239 10.96814342 11.94265816 9.4375 9.1875 C6.42089413 6.4802896 3.79460995 5.3864921 0 4 C0 2.68 0 1.36 0 0 Z " fill="#F8F9FB" transform="translate(32,16)"/>
<path d="M0 0 C0.35771484 0.94166016 0.35771484 0.94166016 0.72265625 1.90234375 C2.35193885 4.57795463 3.45613074 4.78411295 6.4375 5.5625 C9.80350149 6.45529447 11.82003022 7.21634628 14 10 C14.98746983 13.80881219 15.3789077 16.07378117 13.875 19.75 C11.69376849 22.36747781 10.16553069 23.70501017 7 25 C3.375 24.9375 3.375 24.9375 0 24 C-1.7109375 21.94140625 -1.7109375 21.94140625 -3 20 C-2.21753906 19.93941406 -1.43507813 19.87882812 -0.62890625 19.81640625 C0.38300781 19.73261719 1.39492188 19.64882813 2.4375 19.5625 C3.44683594 19.48128906 4.45617187 19.40007813 5.49609375 19.31640625 C7.93640779 19.26788532 7.93640779 19.26788532 9 18 C9.04080783 16.00041636 9.04254356 13.99954746 9 12 C8.31292969 11.74605469 7.62585937 11.49210937 6.91796875 11.23046875 C6.01691406 10.88628906 5.11585937 10.54210938 4.1875 10.1875 C3.29417969 9.85105469 2.40085937 9.51460937 1.48046875 9.16796875 C-0.97979509 8.00951381 -2.40377905 7.19016363 -4 5 C-4 3.68 -4 2.36 -4 1 C-2 0 -2 0 0 0 Z " fill="#EFF1F4" transform="translate(27,17)"/>
<path d="M0 0 C0.67095703 0.61488281 0.67095703 0.61488281 1.35546875 1.2421875 C4.73744485 4.25640074 7.579668 6.66050545 12 8 C12 9.32 12 10.64 12 12 C5.54972485 11.73672346 2.52084209 9.49335977 -2 5 C-1.125 1.125 -1.125 1.125 0 0 Z " fill="#F7F8FA" transform="translate(20,21)"/>
<path d="M0 0 C1.32 0.66 2.64 1.32 4 2 C4.66964286 9.76785714 4.66964286 9.76785714 1.6875 13.375 C-2.94428744 17.89907146 -2.94428744 17.89907146 -6.04296875 18.1953125 C-6.75066406 18.17210938 -7.45835938 18.14890625 -8.1875 18.125 C-9.445625 18.08375 -10.70375 18.0425 -12 18 C-12.66 16.68 -13.32 15.36 -14 14 C-12.1746875 14.3403125 -12.1746875 14.3403125 -10.3125 14.6875 C-7.2216967 15.07043138 -6.09797656 15.04046858 -3.125 13.8125 C-0.79648841 11.82641659 0.20230541 10.95146997 1 8 C0.85344991 5.27312149 0.45054438 2.70326631 0 0 Z " fill="#12346A" transform="translate(40,26)"/>
</svg>
