<?xml version="1.0" encoding="UTF-8"?>
<svg version="1.1" xmlns="http://www.w3.org/2000/svg" width="64" height="64">
<path d="M0 0 C0.66 0.33 1.32 0.66 2 1 C2.495 2.485 2.495 2.485 3 4 C3.66 4.33 4.32 4.66 5 5 C5.40729228 7.32156597 5.74438677 9.6568787 6 12 C8.31 12.66 10.62 13.32 13 14 C13 24.89 13 35.78 13 47 C12.01 47.495 12.01 47.495 11 48 C11.66 49.98 12.32 51.96 13 54 C6.58005543 54.21519367 0.42170471 54.01006362 -5.9375 53.0625 C-13.32416244 51.96448261 -20.65624143 51.61625456 -28.11889648 51.42993164 C-28.98329346 51.4014917 -29.84769043 51.37305176 -30.73828125 51.34375 C-31.89904175 51.31571289 -31.89904175 51.31571289 -33.08325195 51.28710938 C-35 51 -35 51 -37 49 C-37.0825 47.906875 -37.165 46.81375 -37.25 45.6875 C-38.22267106 40.90520063 -40.11872764 39.7945161 -44 37 C-47.34924134 34.34370514 -47.467403 32.19839976 -48 28 C-48.13218323 25.24818553 -48.14013477 22.50452803 -48.125 19.75 C-48.12886719 19.03070312 -48.13273437 18.31140625 -48.13671875 17.5703125 C-48.12676222 12.25352444 -48.12676222 12.25352444 -47 10 C-45.68 10 -44.36 10 -43 10 C-42.67 10.99 -42.34 11.98 -42 13 C-41.34 13.33 -40.68 13.66 -40 14 C-39.375 16.0625 -39.375 16.0625 -39 18 C-37.68 18 -36.36 18 -35 18 C-35.185625 16.72125 -35.37125 15.4425 -35.5625 14.125 C-36.125 10.25 -36.125 10.25 -35 8 C-40.94 8.495 -40.94 8.495 -47 9 C-46.67 7.35 -46.34 5.7 -46 4 C-45.34 3.67 -44.68 3.34 -44 3 C-43.67 2.01 -43.34 1.02 -43 0 C-41.3523962 -0.71247732 -39.68236471 -1.37400383 -38 -2 C-37.13375 -2.7425 -37.13375 -2.7425 -36.25 -3.5 C-24.68357274 -11.21095151 -10.61936647 -6.75777866 0 0 Z M-35 11 C-34 15 -34 15 -34 15 Z " fill="#4E62C1" transform="translate(48,8)"/>
<path d="M0 0 C0.33 0 0.66 0 1 0 C1 10.89 1 21.78 1 33 C0.01 33.495 0.01 33.495 -1 34 C-0.34 35.98 0.32 37.96 1 40 C-5.41994457 40.21519367 -11.57829529 40.01006362 -17.9375 39.0625 C-25.32416244 37.96448261 -32.65624143 37.61625456 -40.11889648 37.42993164 C-40.98329346 37.4014917 -41.84769043 37.37305176 -42.73828125 37.34375 C-43.89904175 37.31571289 -43.89904175 37.31571289 -45.08325195 37.28710938 C-47 37 -47 37 -49 35 C-48.9765625 31.9609375 -48.9765625 31.9609375 -48.625 28.375 C-48.51414062 27.18648437 -48.40328125 25.99796875 -48.2890625 24.7734375 C-48.19367187 23.85820313 -48.09828125 22.94296875 -48 22 C-45.10452736 21.66324721 -42.20868928 21.33048266 -39.3125 21 C-38.49587891 20.90460937 -37.67925781 20.80921875 -36.83789062 20.7109375 C-32.87139948 20.26129478 -28.99997537 19.86965457 -25 20 C-25 18.35 -25 16.7 -25 15 C-16.79580077 12.87822434 -9.49698759 11.88517584 -1 12 C-0.67 8.04 -0.34 4.08 0 0 Z " fill="#D84848" transform="translate(60,22)"/>
<path d="M0 0 C0.66 0.33 1.32 0.66 2 1 C2.495 2.485 2.495 2.485 3 4 C3.66 4.33 4.32 4.66 5 5 C5.4140625 7.06640625 5.4140625 7.06640625 5.625 9.5625 C5.69976562 10.38878906 5.77453125 11.21507813 5.8515625 12.06640625 C5.90054688 12.70449219 5.94953125 13.34257812 6 14 C-24.79019074 20.40326975 -24.79019074 20.40326975 -35 17 C-36.125 10.25 -36.125 10.25 -35 8 C-40.94 8.495 -40.94 8.495 -47 9 C-46.67 7.35 -46.34 5.7 -46 4 C-45.34 3.67 -44.68 3.34 -44 3 C-43.67 2.01 -43.34 1.02 -43 0 C-41.3523962 -0.71247732 -39.68236471 -1.37400383 -38 -2 C-37.13375 -2.7425 -37.13375 -2.7425 -36.25 -3.5 C-24.68357274 -11.21095151 -10.61936647 -6.75777866 0 0 Z M-35 11 C-34 15 -34 15 -34 15 Z " fill="#5593F5" transform="translate(48,8)"/>
<path d="M0 0 C0 3.3 0 6.6 0 10 C-4.07979056 10.59054299 -8.1638918 11.14253606 -12.25 11.6875 C-13.40886719 11.85572266 -14.56773438 12.02394531 -15.76171875 12.19726562 C-17.43427734 12.41479492 -17.43427734 12.41479492 -19.140625 12.63671875 C-20.16704102 12.77811279 -21.19345703 12.91950684 -22.25097656 13.06518555 C-25.52074727 12.98765191 -26.72007688 12.29934267 -29 10 C-29 9.34 -29 8.68 -29 8 C-29.86625 8.433125 -29.86625 8.433125 -30.75 8.875 C-33.875 10.4375 -33.875 10.4375 -37 12 C-37 12.66 -37 13.32 -37 14 C-37.66 14 -38.32 14 -39 14 C-39 14.66 -39 15.32 -39 16 C-39.66 16 -40.32 16 -41 16 C-41.33 14.68 -41.66 13.36 -42 12 C-41.360625 11.87625 -40.72125 11.7525 -40.0625 11.625 C-39.381875 11.41875 -38.70125 11.2125 -38 11 C-37.67 10.34 -37.34 9.68 -37 9 C-36.01 8.67 -35.02 8.34 -34 8 C-34.33 7.01 -34.66 6.02 -35 5 C-35.66 5 -36.32 5 -37 5 C-37.33 5.66 -37.66 6.32 -38 7 C-38 6.34 -38 5.68 -38 5 C-39.32 4.67 -40.64 4.34 -42 4 C-41.44763672 3.95512451 -40.89527344 3.91024902 -40.32617188 3.86401367 C-29.48003624 2.96204113 -18.8875838 1.82633352 -8.25 -0.51171875 C-5.10477643 -0.98425835 -3.03406306 -0.8562034 0 0 Z " fill="#3F5DC4" transform="translate(59,22)"/>
<path d="M0 0 C1.32 0 2.64 0 4 0 C4.33 0.99 4.66 1.98 5 3 C5.66 3.33 6.32 3.66 7 4 C7.625 6.0625 7.625 6.0625 8 8 C8.66 8 9.32 8 10 8 C10.13277344 9.05960938 10.26554688 10.11921875 10.40234375 11.2109375 C10.58053875 12.59898279 10.7589346 13.98700231 10.9375 15.375 C11.02451172 16.07367188 11.11152344 16.77234375 11.20117188 17.4921875 C11.66318128 21.36783575 11.66318128 21.36783575 13 25 C13.99 25 14.98 25 16 25 C16.33 24.34 16.66 23.68 17 23 C17 23.66 17 24.32 17 25 C17.99 25 18.98 25 20 25 C20.33 24.34 20.66 23.68 21 23 C21 23.99 21 24.98 21 26 C17.7 26 14.4 26 11 26 C11 28.64 11 31.28 11 34 C9 33 9 33 6.5625 30 C4.28151793 26.80719023 4.28151793 26.80719023 1 26 C-1.36735568 20.99787969 -1.27035521 16.15739239 -1.1875 10.75 C-1.18685547 9.9353125 -1.18621094 9.120625 -1.18554688 8.28125 C-1.14084821 2.28169643 -1.14084821 2.28169643 0 0 Z " fill="#5792F3" transform="translate(1,18)"/>
<path d="M0 0 C0 2.64 0 5.28 0 8 C-1.14855469 7.97035156 -2.29710937 7.94070312 -3.48046875 7.91015625 C-7.89162993 7.91112638 -11.99752473 8.58174783 -16.3125 9.4375 C-26.59432685 11.35431832 -36.53108639 12.18224414 -47 12 C-47 11.34 -47 10.68 -47 10 C-44.10452736 9.66324721 -41.20868928 9.33048266 -38.3125 9 C-37.49587891 8.90460937 -36.67925781 8.80921875 -35.83789062 8.7109375 C-31.87139948 8.26129478 -27.99997537 7.86965457 -24 8 C-24 6.35 -24 4.7 -24 3 C-15.82860404 0.88670794 -8.45545041 -0.15039339 0 0 Z " fill="#D94141" transform="translate(59,34)"/>
<path d="M0 0 C-1.32 0.33 -2.64 0.66 -4 1 C-4 1.66 -4 2.32 -4 3 C-0.535 2.505 -0.535 2.505 3 2 C3.66 3.98 4.32 5.96 5 8 C-1.41994457 8.21519367 -7.57829529 8.01006362 -13.9375 7.0625 C-23.5803644 5.64620429 -33.26894272 5.34588067 -43 5 C-43.66 3.68 -44.32 2.36 -45 1 C-44.33355469 1.0721875 -43.66710937 1.144375 -42.98046875 1.21875 C-33.27115846 2.19647076 -24.43931969 2.4111393 -14.859375 0.4453125 C-9.92135953 -0.3237227 -4.98269593 -0.15652448 0 0 Z " fill="#220103" transform="translate(56,54)"/>
<path d="M0 0 C1.28132497 0.64627249 2.55669807 1.305433 3.8125 2 C3.8125 2.33 3.8125 2.66 3.8125 3 C2.83410156 3.15855469 1.85570313 3.31710938 0.84765625 3.48046875 C-7.06553204 4.85505066 -13.36140306 6.58996296 -20.1875 11 C-21.5128762 11.682349 -22.84419359 12.3536641 -24.1875 13 C-24.8475 12.01 -25.5075 11.02 -26.1875 10 C-24.2075 8.35 -22.2275 6.7 -20.1875 5 C-20.5175 3.35 -20.8475 1.7 -21.1875 0 C-14.12419623 -3.17594594 -7.08358561 -3.1557206 0 0 Z " fill="#103EA8" transform="translate(39.1875,3)"/>
<path d="M0 0 C0.33 0 0.66 0 1 0 C1 10.89 1 21.78 1 33 C-4 35 -4 35 -8 35 C-8 34.34 -8 33.68 -8 33 C-12.64315201 32.82478672 -16.75479599 33.07012361 -21.3125 34 C-30.26211094 35.74294909 -39.00146859 35.09309709 -48 34 C-48 33.67 -48 33.34 -48 33 C-47.37134033 32.9498877 -46.74268066 32.89977539 -46.0949707 32.84814453 C-30.53167772 31.67344898 -30.53167772 31.67344898 -15.109375 29.3671875 C-10.43712295 28.81543914 -5.70471737 29 -1 29 C-0.67 19.43 -0.34 9.86 0 0 Z " fill="#DB4040" transform="translate(60,22)"/>
<path d="M0 0 C2.6015625 0.0234375 2.6015625 0.0234375 5.625 0.375 C6.62789062 0.48585938 7.63078125 0.59671875 8.6640625 0.7109375 C9.82035156 0.85402344 9.82035156 0.85402344 11 1 C11 1.66 11 2.32 11 3 C11.66 3.33 12.32 3.66 13 4 C10.32521756 5.6627026 8.0004856 6.99983813 5 8 C5 9.32 5 10.64 5 12 C5.66 12 6.32 12 7 12 C7 11.34 7 10.68 7 10 C7.66 10.33 8.32 10.66 9 11 C8.67 12.98 8.34 14.96 8 17 C5.03 17 2.06 17 -1 17 C-1.22126178 14.54220024 -1.42750395 12.08472352 -1.625 9.625 C-1.68945312 8.92632812 -1.75390625 8.22765625 -1.8203125 7.5078125 C-1.96119739 5.67630889 -1.98761659 3.83687252 -2 2 C-1.34 1.34 -0.68 0.68 0 0 Z " fill="#1C36AD" transform="translate(13,26)"/>
<path d="M0 0 C0.495 1.485 0.495 1.485 1 3 C-0.12535156 3.12117188 -1.25070313 3.24234375 -2.41015625 3.3671875 C-3.96097235 3.53613875 -5.51175082 3.7054356 -7.0625 3.875 C-8.28791504 4.00817627 -8.28791504 4.00817627 -9.53808594 4.14404297 C-13.38199804 4.56906939 -17.21689853 5.01300837 -21.04296875 5.578125 C-29.47633806 6.82224692 -37.48033955 7.23629259 -46 7 C-46 6.34 -46 5.68 -46 5 C-45.42258057 4.95512451 -44.84516113 4.91024902 -44.25024414 4.86401367 C-33.59052238 4.01626121 -23.03631671 3.09478587 -12.54516602 0.96557617 C-8.3017111 0.12488661 -4.32214357 -0.12269311 0 0 Z " fill="#D42B2C" transform="translate(58,41)"/>
<path d="M0 0 C1.09570312 0.00902344 2.19140625 0.01804688 3.3203125 0.02734375 C4.58488281 0.04474609 4.58488281 0.04474609 5.875 0.0625 C5.545 1.0525 5.215 2.0425 4.875 3.0625 C4.06417969 3.11148438 3.25335938 3.16046875 2.41796875 3.2109375 C-3.98087516 3.64298982 -10.15309031 4.36396971 -16.4453125 5.5859375 C-24.63116597 7.04173068 -32.83169362 7.2068709 -41.125 7.0625 C-41.125 6.4025 -41.125 5.7425 -41.125 5.0625 C-39.6412085 4.88859741 -39.6412085 4.88859741 -38.12744141 4.71118164 C-34.46308909 4.28071346 -30.79933476 3.8453303 -27.13574219 3.40844727 C-25.54898746 3.21992678 -23.962073 3.0327458 -22.375 2.84692383 C-20.09592214 2.57984439 -17.81745914 2.3079783 -15.5390625 2.03515625 C-14.82755035 1.95282242 -14.11603821 1.87048859 -13.38296509 1.78565979 C-8.62533436 1.20938942 -4.84749743 -0.05156912 0 0 Z " fill="#EDE3E6" transform="translate(53.125,38.9375)"/>
<path d="M0 0 C0 0.66 0 1.32 0 2 C-0.6297876 2.08564209 -1.2595752 2.17128418 -1.90844727 2.25952148 C-4.79316428 2.65194051 -7.67783245 3.04471753 -10.5625 3.4375 C-11.55314453 3.57220703 -12.54378906 3.70691406 -13.56445312 3.84570312 C-14.53447266 3.97783203 -15.50449219 4.10996094 -16.50390625 4.24609375 C-17.4585376 4.37491943 -18.41316895 4.50374512 -19.39672852 4.63647461 C-21.47701316 4.9269692 -23.55215203 5.2542318 -25.625 5.59375 C-29.91449392 6.11007797 -34.12246161 6.10770185 -38.4375 6.0625 C-39.26443359 6.05798828 -40.09136719 6.05347656 -40.94335938 6.04882812 C-42.96227146 6.03715811 -44.98114574 6.01922718 -47 6 C-47 5.34 -47 4.68 -47 4 C-46.4016333 3.9498877 -45.8032666 3.89977539 -45.18676758 3.84814453 C-31.48472898 2.74938167 -31.48472898 2.74938167 -17.875 0.875 C-11.89118528 -0.1367943 -6.05501856 -0.19637898 0 0 Z " fill="#F2E0E0" transform="translate(59,44)"/>
<path d="M0 0 C0 0.66 0 1.32 0 2 C-2.71354167 2.33919271 -5.42708333 2.67838542 -8.140625 3.01757812 C-9.24921875 3.15615234 -10.3578125 3.29472656 -11.5 3.4375 C-17.96875 4.24609375 -17.96875 4.24609375 -21.12304688 4.63647461 C-22.83925274 4.85333056 -24.55455188 5.07791669 -26.26757812 5.31860352 C-31.04666115 5.98190728 -35.68896226 6.12041064 -40.5 6.0625 C-41.22703125 6.05798828 -41.9540625 6.05347656 -42.703125 6.04882812 C-44.46878681 6.03721193 -46.2344053 6.01928441 -48 6 C-48 5.34 -48 4.68 -48 4 C-46.329375 3.94392578 -46.329375 3.94392578 -44.625 3.88671875 C-36.86216283 3.57055022 -29.35972899 3.05494488 -21.75 1.4375 C-14.35161479 -0.09268811 -7.54262096 -0.31820432 0 0 Z " fill="#F0EBED" transform="translate(59,49)"/>
<path d="M0 0 C-1.32 0.33 -2.64 0.66 -4 1 C-4 1.66 -4 2.32 -4 3 C-8.38566071 4.08794502 -12.65582765 4.12897314 -17.14453125 4.09765625 C-17.91431808 4.0962413 -18.68410492 4.09482635 -19.47721863 4.09336853 C-21.92235288 4.08779606 -24.36739368 4.07524871 -26.8125 4.0625 C-28.47591013 4.05748144 -30.1393217 4.05291915 -31.80273438 4.04882812 C-35.86852528 4.03783566 -39.93424683 4.0205901 -44 4 C-44 3.01 -44 2.02 -44 1 C-43.10861328 1.10828125 -43.10861328 1.10828125 -42.19921875 1.21875 C-32.76390195 2.2752707 -24.17467356 2.3568333 -14.859375 0.4453125 C-9.92135953 -0.3237227 -4.98269593 -0.15652448 0 0 Z " fill="#930909" transform="translate(56,54)"/>
<path d="M0 0 C0.33 0 0.66 0 1 0 C1 10.89 1 21.78 1 33 C-4 35 -4 35 -8 35 C-8 34.34 -8 33.68 -8 33 C-8.66 32.34 -9.32 31.68 -10 31 C-9.34 30.34 -8.68 29.68 -8 29 C-5.69 29 -3.38 29 -1 29 C-0.67 19.43 -0.34 9.86 0 0 Z " fill="#B2444D" transform="translate(60,22)"/>
<path d="M0 0 C0 0.99 0 1.98 0 3 C-3.06203674 3.33768172 -6.12469458 3.66936893 -9.1875 4 C-10.48397461 4.14308594 -10.48397461 4.14308594 -11.80664062 4.2890625 C-15.88792925 4.72690189 -19.88788502 5.13621913 -24 5 C-24 4.34 -24 3.68 -24 3 C-20.94102269 2.2961526 -17.87743931 1.61487171 -14.8125 0.9375 C-13.94818359 0.73833984 -13.08386719 0.53917969 -12.19335938 0.33398438 C-4.25311176 -1.40009269 -4.25311176 -1.40009269 0 0 Z " fill="#D64347" transform="translate(59,22)"/>
<path d="M0 0 C0.33 0.99 0.66 1.98 1 3 C-1.87456792 3.33747548 -4.74956059 3.67010463 -7.625 4 C-8.43324219 4.09539063 -9.24148437 4.19078125 -10.07421875 4.2890625 C-14.40973739 4.78253617 -18.62737311 5.11320717 -23 5 C-23 4.34 -23 3.68 -23 3 C-15.21930149 1.14060121 -8.01701946 -0.41467342 0 0 Z " fill="#F9E4E4" transform="translate(58,29)"/>
<path d="M0 0 C-0.33 0.99 -0.66 1.98 -1 3 C-1.73863281 3.06058594 -2.47726563 3.12117188 -3.23828125 3.18359375 C-10.16211625 3.75544797 -17.0821399 4.35996176 -24 5 C-24 4.34 -24 3.68 -24 3 C-15.82860404 0.88670794 -8.45545041 -0.15039339 0 0 Z " fill="#F4DEDE" transform="translate(59,34)"/>
<path d="M0 0 C0 0.66 0 1.32 0 2 C-8.25 2.99 -16.5 3.98 -25 5 C-24.67 4.01 -24.34 3.02 -24 2 C-15.92046224 0.18655665 -8.26747851 -0.23658921 0 0 Z " fill="#F0DEE0" transform="translate(59,25)"/>
<path d="M0 0 C-0.33 0.99 -0.66 1.98 -1 3 C-1.56847656 2.97679687 -2.13695313 2.95359375 -2.72265625 2.9296875 C-7.92469601 2.80810393 -11.97636057 3.53857762 -17 5 C-19.69394253 5.16182694 -22.29762418 5.0948202 -25 5 C-25 4.34 -25 3.68 -25 3 C-16.60352122 1.11918875 -8.66508753 -0.55048791 0 0 Z " fill="#D43131" transform="translate(59,27)"/>
<path d="M0 0 C3 3.75 3 3.75 3 6 C-3.43311296 6.09507063 -9.65758005 6.15316726 -16 5 C-16 4.67 -16 4.34 -16 4 C-10.555 3.505 -10.555 3.505 -5 3 C-5 2.34 -5 1.68 -5 1 C-3.35 0.67 -1.7 0.34 0 0 Z " fill="#110512" transform="translate(58,56)"/>
<path d="M0 0 C0 0.66 0 1.32 0 2 C-8.25 2.99 -16.5 3.98 -25 5 C-24.67 4.01 -24.34 3.02 -24 2 C-15.97649696 0.81603117 -8.13544686 -0.28545428 0 0 Z " fill="#D53537" transform="translate(59,32)"/>
<path d="M0 0 C1.09570312 0.00902344 2.19140625 0.01804688 3.3203125 0.02734375 C4.16335937 0.03894531 5.00640625 0.05054688 5.875 0.0625 C5.545 1.0525 5.215 2.0425 4.875 3.0625 C1.79272291 3.28905901 -1.2907016 3.49053465 -4.375 3.6875 C-5.24769531 3.75195312 -6.12039062 3.81640625 -7.01953125 3.8828125 C-7.86386719 3.934375 -8.70820312 3.9859375 -9.578125 4.0390625 C-10.35317383 4.09143066 -11.12822266 4.14379883 -11.92675781 4.19775391 C-14.43304237 4.0435467 -15.97339873 3.31831508 -18.125 2.0625 C-17.07699219 1.97162109 -17.07699219 1.97162109 -16.0078125 1.87890625 C-15.09773438 1.79511719 -14.18765625 1.71132813 -13.25 1.625 C-12.34507813 1.54378906 -11.44015625 1.46257813 -10.5078125 1.37890625 C-0.11429961 -0.00121595 -0.11429961 -0.00121595 0 0 Z " fill="#F3DDDD" transform="translate(53.125,38.9375)"/>
<path d="M0 0 C0.33 0.99 0.66 1.98 1 3 C-1.56211075 3.19569589 -4.12432391 3.38180612 -6.6875 3.5625 C-7.40873047 3.61857422 -8.12996094 3.67464844 -8.87304688 3.73242188 C-12.77314064 3.99955159 -16.21111028 4.00887596 -20 3 C-20 2.67 -20 2.34 -20 2 C-6.3667426 -0.29612756 -6.3667426 -0.29612756 0 0 Z " fill="#D74444" transform="translate(58,41)"/>
<path d="M0 0 C0 0.66 0 1.32 0 2 C0.66 2.33 1.32 2.66 2 3 C-1.51187196 5.40814077 -3.72656908 6.36629408 -8 6 C-8.33 4.68 -8.66 3.36 -9 2 C-7.824375 1.7834375 -7.824375 1.7834375 -6.625 1.5625 C-4.19936192 1.04272041 -2.45184765 0 0 0 Z " fill="#2F49B6" transform="translate(24,27)"/>
<path d="M0 0 C1.86785156 0.01353516 1.86785156 0.01353516 3.7734375 0.02734375 C5.18496094 0.04474609 5.18496094 0.04474609 6.625 0.0625 C6.625 0.7225 6.625 1.3825 6.625 2.0625 C4.04218164 2.28474251 1.45977813 2.49073488 -1.125 2.6875 C-1.85460938 2.75195312 -2.58421875 2.81640625 -3.3359375 2.8828125 C-7.23411736 3.16631649 -10.08145322 3.33331383 -13.375 1.0625 C-8.85684719 0.17972245 -4.59987306 -0.04339503 0 0 Z " fill="#F1D8D8" transform="translate(52.375,48.9375)"/>
<path d="M0 0 C2.72869407 0.03287583 5.2966618 0.56397771 8 1 C7.67 1.66 7.34 2.32 7 3 C5.68 3 4.36 3 3 3 C3 4.32 3 5.64 3 7 C1.02 7.99 1.02 7.99 -1 9 C-1.625 5.625 -1.625 5.625 -2 2 C-1.34 1.34 -0.68 0.68 0 0 Z " fill="#142FA2" transform="translate(13,26)"/>
<path d="M0 0 C-1.32 0.33 -2.64 0.66 -4 1 C-4 1.66 -4 2.32 -4 3 C-9.48946087 4.12029814 -12.83430559 3.79217969 -18 2 C-18 1.67 -18 1.34 -18 1 C-12.03325384 -0.32594359 -6.07416385 -0.0884587 0 0 Z " fill="#840404" transform="translate(56,54)"/>
<path d="M0 0 C1.1577506 3.47325181 1.06866652 6.36067448 1 10 C-1.475 9.01 -1.475 9.01 -4 8 C-4 7.01 -4 6.02 -4 5 C-4.66 4.67 -5.32 4.34 -6 4 C-6 3.34 -6 2.68 -6 2 C-4.7934375 1.7834375 -4.7934375 1.7834375 -3.5625 1.5625 C-1.07896294 1.25864751 -1.07896294 1.25864751 0 0 Z " fill="#5C6AC3" transform="translate(34,25)"/>
<path d="M0 0 C1.32 0.66 2.64 1.32 4 2 C3.071875 2.680625 3.071875 2.680625 2.125 3.375 C-0.05919833 4.97108919 -0.05919833 4.97108919 -2 7 C-2.99 7.495 -2.99 7.495 -4 8 C-4.66 7.67 -5.32 7.34 -6 7 C-6 6.34 -6 5.68 -6 5 C-4.04072937 3.2856382 -2.04119788 1.61594832 0 0 Z " fill="#1E3CB7" transform="translate(28,29)"/>
<path d="M0 0 C0.33 0.66 0.66 1.32 1 2 C-2.21451269 3.60725635 -5.43612536 3.05748185 -9 3 C-9 2.34 -9 1.68 -9 1 C-5.8035914 -0.06546953 -3.34252724 -0.07427838 0 0 Z " fill="#DB494D" transform="translate(43,29)"/>
<path d="M0 0 C-0.33 0.99 -0.66 1.98 -1 3 C-3.64 2.67 -6.28 2.34 -9 2 C-9 1.34 -9 0.68 -9 0 C-5.67465243 -1.10844919 -3.37817425 -0.84454356 0 0 Z " fill="#B91F24" transform="translate(59,22)"/>
<path d="M0 0 C3 3.75 3 3.75 3 6 C-0.96 6 -4.92 6 -9 6 C-9 5.67 -9 5.34 -9 5 C-6.36 4.67 -3.72 4.34 -1 4 C-0.67 2.68 -0.34 1.36 0 0 Z " fill="#320F23" transform="translate(58,56)"/>
<path d="M0 0 C2.31 0.33 4.62 0.66 7 1 C7 1.99 7 2.98 7 4 C5.35 4 3.7 4 2 4 C1.34 2.68 0.68 1.36 0 0 Z " fill="#5168C5" transform="translate(23,39)"/>
<path d="M0 0 C2.0625 0.4375 2.0625 0.4375 4 1 C4 1.99 4 2.98 4 4 C3.01 4.495 3.01 4.495 2 5 C2.33 5.66 2.66 6.32 3 7 C2.01 7 1.02 7 0 7 C-0.38133299 5.0085944 -0.71325582 3.00720923 -1 1 C-0.67 0.67 -0.34 0.34 0 0 Z " fill="#344FBC" transform="translate(22,36)"/>
<path d="M0 0 C0.66 0 1.32 0 2 0 C2 1.65 2 3.3 2 5 C1.34 5 0.68 5 0 5 C0 5.66 0 6.32 0 7 C-0.66 7 -1.32 7 -2 7 C-2.125 4.625 -2.125 4.625 -2 2 C-1.34 1.34 -0.68 0.68 0 0 Z " fill="#3B53B5" transform="translate(14,33)"/>
<path d="M0 0 C2.97 0 5.94 0 9 0 C9.33 0.99 9.66 1.98 10 3 C4.58461538 3.36923077 4.58461538 3.36923077 1.625 1.5 C1.08875 1.005 0.5525 0.51 0 0 Z " fill="#DCACAC" transform="translate(49,29)"/>
<path d="M0 0 C1.32 0 2.64 0 4 0 C4 1.98 4 3.96 4 6 C2.68 6 1.36 6 0 6 C0 4.02 0 2.04 0 0 Z " fill="#5D9AF8" transform="translate(1,18)"/>
<path d="M0 0 C5.94 0 11.88 0 18 0 C18 0.33 18 0.66 18 1 C12.06 1 6.12 1 0 1 C0 0.67 0 0.34 0 0 Z " fill="#320F23" transform="translate(13,60)"/>
<path d="M0 0 C1.32 1.32 2.64 2.64 4 4 C3.67 4.66 3.34 5.32 3 6 C2.34 6 1.68 6 1 6 C0.67 7.32 0.34 8.64 0 10 C0.33 7.69 0.66 5.38 1 3 C0.34 2.67 -0.32 2.34 -1 2 C-0.67 1.34 -0.34 0.68 0 0 Z " fill="#4172CD" transform="translate(12,13)"/>
<path d="M0 0 C2.125 0.375 2.125 0.375 4 1 C4 1.66 4 2.32 4 3 C3.34 3 2.68 3 2 3 C2 3.66 2 4.32 2 5 C1.34 5 0.68 5 0 5 C0 4.34 0 3.68 0 3 C-0.66 2.67 -1.32 2.34 -2 2 C-1.34 1.34 -0.68 0.68 0 0 Z " fill="#2342BA" transform="translate(30,37)"/>
<path d="M0 0 C0.33 0.66 0.66 1.32 1 2 C1.66 2.33 2.32 2.66 3 3 C2.01 3 1.02 3 0 3 C0 2.01 0 1.02 0 0 Z " fill="#5165A0" transform="translate(54,17)"/>
<path d="M0 0 C4 1 4 1 4 1 Z " fill="#5F9AF4" transform="translate(15,1)"/>
<path d="" fill="#A4C9F5" transform="translate(0,0)"/>
<path d="M0 0 C3 1 3 1 3 1 Z " fill="#669FF4" transform="translate(5,17)"/>
<path d="M0 0 C3 1 3 1 3 1 Z " fill="#488BF4" transform="translate(34,0)"/>
<path d="" fill="#76AAF4" transform="translate(0,0)"/>
<path d="M0 0 C2 1 2 1 2 1 Z " fill="#76AAF4" transform="translate(9,16)"/>
<path d="M0 0 C2 1 2 1 2 1 Z " fill="#76AAF4" transform="translate(44,5)"/>
<path d="M0 0 C2 1 2 1 2 1 Z " fill="#A4C9F5" transform="translate(8,5)"/>
<path d="M0 0 C2 1 2 1 2 1 Z " fill="#76AAF4" transform="translate(12,2)"/>
<path d="M0 0 C2 1 2 1 2 1 Z " fill="#488BF4" transform="translate(20,0)"/>
<path d="" fill="#C25050" transform="translate(0,0)"/>
<path d="" fill="#488BF4" transform="translate(0,0)"/>
<path d="" fill="#488BF4" transform="translate(0,0)"/>
<path d="" fill="#488BF4" transform="translate(0,0)"/>
<path d="" fill="#488BF4" transform="translate(0,0)"/>
<path d="" fill="#488BF4" transform="translate(0,0)"/>
<path d="" fill="#488BF4" transform="translate(0,0)"/>
<path d="" fill="#320F23" transform="translate(0,0)"/>
<path d="" fill="#488BF4" transform="translate(0,0)"/>
<path d="" fill="#488BF4" transform="translate(0,0)"/>
<path d="" fill="#488BF4" transform="translate(0,0)"/>
<path d="" fill="#A4C9F5" transform="translate(0,0)"/>
<path d="" fill="#488BF4" transform="translate(0,0)"/>
<path d="" fill="#488BF4" transform="translate(0,0)"/>
<path d="" fill="#488BF4" transform="translate(0,0)"/>
<path d="" fill="#A4C9F5" transform="translate(0,0)"/>
<path d="" fill="#A4C9F5" transform="translate(0,0)"/>
<path d="" fill="#A4C9F5" transform="translate(0,0)"/>
<path d="" fill="#A4C9F5" transform="translate(0,0)"/>
<path d="" fill="#488BF4" transform="translate(0,0)"/>
<path d="" fill="#488BF4" transform="translate(0,0)"/>
<path d="" fill="#488BF4" transform="translate(0,0)"/>
<path d="" fill="#488BF4" transform="translate(0,0)"/>
<path d="" fill="#488BF4" transform="translate(0,0)"/>
<path d="" fill="#488BF4" transform="translate(0,0)"/>
</svg>
