<?xml version="1.0" encoding="UTF-8"?>
<svg version="1.1" xmlns="http://www.w3.org/2000/svg" width="128" height="128">
<path d="M0 0 C42.24 0 84.48 0 128 0 C128 42.24 128 84.48 128 128 C85.76 128 43.52 128 0 128 C0 85.76 0 43.52 0 0 Z " fill="#000000" transform="translate(0,0)"/>
<path d="M0 0 C1.78459587 -0.05049489 3.57016047 -0.07286476 5.35546875 -0.0703125 C6.24556641 -0.12316406 7.13566406 -0.17601562 8.05273438 -0.23046875 C11.78727509 -0.25815252 14.46243687 -0.21569518 17.2578125 2.42407227 C18.88300776 4.80727554 20.21164324 7.24557649 21.54296875 9.8046875 C22.73340239 11.83229942 23.92900245 13.85688419 25.12890625 15.87890625 C27.06424599 19.24007328 28.98519075 22.60905772 30.89526367 25.98461914 C34.99689954 33.23204481 34.99689954 33.23204481 39.5078125 40.2265625 C41.61094147 43.32951264 43.46245326 46.17376606 44.54296875 49.8046875 C43.45887567 54.24164576 41.33265008 57.25260879 38.54296875 60.8046875 C38.01316406 61.73152344 37.48335937 62.65835938 36.9375 63.61328125 C36.47730469 64.33644531 36.01710937 65.05960937 35.54296875 65.8046875 C34.88296875 65.8046875 34.22296875 65.8046875 33.54296875 65.8046875 C33.23746094 65.21945313 32.93195313 64.63421875 32.6171875 64.03125 C28.86791627 56.99740594 24.77124496 50.22516251 20.58618164 43.44433594 C17.54449654 38.49723639 14.64501578 33.50990019 11.95703125 28.359375 C11.49039063 27.51632813 11.02375 26.67328125 10.54296875 25.8046875 C10.23625244 25.12954102 9.92953613 24.45439453 9.61352539 23.75878906 C7.4267916 19.4108983 7.4267916 19.4108983 3.359375 17.06982422 C0.78560178 16.79253079 -1.68192872 16.7467993 -4.26953125 16.8046875 C-5.15318359 16.79308594 -6.03683594 16.78148437 -6.94726562 16.76953125 C-9.11709235 16.74607366 -11.28734517 16.77061981 -13.45703125 16.8046875 C-12.52088558 15.07478725 -11.58305167 13.34580054 -10.64453125 11.6171875 C-10.12246094 10.65425781 -9.60039062 9.69132812 -9.0625 8.69921875 C-8.26779297 7.26642578 -8.26779297 7.26642578 -7.45703125 5.8046875 C-7.09867188 4.87785156 -6.7403125 3.95101562 -6.37109375 2.99609375 C-4.09085732 0.38545572 -3.34912909 0.36974599 0 0 Z " fill="#07D6AD" transform="translate(35.45703125,34.1953125)"/>
<path d="M0 0 C0.88389404 -0.00741211 1.76778809 -0.01482422 2.6784668 -0.02246094 C4.0246106 -0.0355127 4.0246106 -0.0355127 5.39794922 -0.04882812 C9.06336939 0.15293199 11.87814708 0.417548 14.82006836 2.72412109 C18.25633029 6.76101252 20.39270788 11.26541236 21.9909668 16.29003906 C21.33860962 20.50684316 19.06127981 23.91536203 16.9284668 27.54003906 C16.36289063 28.51457031 16.36289063 28.51457031 15.78588867 29.50878906 C14.85862564 31.10508997 13.92538224 32.69791435 12.9909668 34.29003906 C11.09193185 32.01009304 9.9158244 30.09634429 8.8347168 27.30957031 C7.25487672 23.53907989 5.96285475 21.13364409 2.9909668 18.29003906 C-3.12367533 16.47246819 -9.70968883 16.96280039 -16.0090332 17.29003906 C-15.26437353 15.74578582 -14.51300126 14.204769 -13.7590332 12.66503906 C-13.34137695 11.80652344 -12.9237207 10.94800781 -12.4934082 10.06347656 C-12.00356445 9.14824219 -11.5137207 8.23300781 -11.0090332 7.29003906 C-10.49211914 6.21625 -9.97520508 5.14246094 -9.44262695 4.03613281 C-6.37235818 0.57160802 -4.49761563 0.31056497 0 0 Z " fill="#07D6AD" transform="translate(77.009033203125,33.7099609375)"/>
<path d="M0 0 C6.27 0 12.54 0 19 0 C19.33 0.66 19.66 1.32 20 2 C18.87980469 1.97679687 17.75960937 1.95359375 16.60546875 1.9296875 C15.13281916 1.91092763 13.66016237 1.89272766 12.1875 1.875 C11.08051758 1.84986328 11.08051758 1.84986328 9.95117188 1.82421875 C6.08753574 1.78925372 4.29096332 1.80602445 1 4 C0.67 2.68 0.34 1.36 0 0 Z " fill="#001A11" transform="translate(61,51)"/>
<path d="M0 0 C2.89932357 2.39509338 3.50168276 4.31245243 4 8 C3.01 8 2.02 8 1 8 C0.34 5.69 -0.32 3.38 -1 1 C-0.67 0.67 -0.34 0.34 0 0 Z " fill="#14D2AA" transform="translate(95,45)"/>
</svg>
