<svg xmlns="http://www.w3.org/2000/svg" width="256" height="256" fill="none" xmlns:v="https://vecta.io/nano"><g clip-path="url(#B)"><path d="M128 256c70.692 0 128-57.308 128-128S198.692 0 128 0 0 57.308 0 128s57.308 128 128 128z" fill="#090839"/><path d="M198 75h-12.404c-3.025 0-5.8 1.74-7.104 4.446l-32.634 67.57-.028-.083-8.686 18.004.028.083-8.686 18.004-43.401-89.992h12.377c3.024 0 5.799 1.74 7.104 4.446l28.332 58.375 8.686-18.004-22.866-47.108C114.084 81.13 104.316 75 93.604 75H59l8.658 18.032h.028L119.773 201h17.371L198 75z" fill="url(#A)"/></g><defs><linearGradient id="A" x1="63.5" y1="102.5" x2="199.5" y2="104.5" gradientUnits="userSpaceOnUse"><stop stop-color="#8951ff"/><stop offset="1" stop-color="#72f7ff"/></linearGradient><clipPath id="B"><path fill="#fff" d="M0 0h256v256H0z"/></clipPath></defs></svg>