<?xml version="1.0" encoding="UTF-8"?>
<svg version="1.1" xmlns="http://www.w3.org/2000/svg" width="25" height="25">
<path d="M0 0 C3.10701544 2.6501014 4.74879134 4.81106992 5.515625 8.890625 C5.86356769 13.54040464 5.28336089 16.20806628 2.25 19.8125 C0.01935726 22.14012721 -1.55819099 23.67797334 -4.86328125 24.015625 C-9.68993582 24.11296929 -13.03894014 24.08443341 -16.875 20.8125 C-20.02545989 17.11885737 -20.39484525 13.72772139 -20.23046875 9.03125 C-19.67197545 5.54526986 -18.17372629 3.43049384 -15.875 0.8125 C-10.9128946 -2.22509911 -5.30419983 -2.19086515 0 0 Z " fill="#0AC5D1" transform="translate(19.875,1.1875)"/>
<path d="M0 0 C0.66 0 1.32 0 2 0 C2 4.29 2 8.58 2 13 C2.66 12.67 3.32 12.34 4 12 C4.46651207 9.87423218 4.46651207 9.87423218 4.625 7.4375 C4.69976563 6.61121094 4.77453125 5.78492188 4.8515625 4.93359375 C4.90054687 4.29550781 4.94953125 3.65742187 5 3 C8.65433265 3.81825274 11.6796203 5.26434698 15 7 C13.64625203 11.06124391 11.73741172 11.60315649 8.0625 13.6875 C6.44021484 14.62142578 6.44021484 14.62142578 4.78515625 15.57421875 C2 17 2 17 0 17 C0 11.39 0 5.78 0 0 Z " fill="#E5F9FA" transform="translate(7,4)"/>
<path d="M0 0 C0.66 0 1.32 0 2 0 C2 4.29 2 8.58 2 13 C3.32 13.33 4.64 13.66 6 14 C2.25 17 2.25 17 0 17 C0 11.39 0 5.78 0 0 Z " fill="#EFFBFC" transform="translate(7,4)"/>
<path d="M0 0 C4.75 0.875 4.75 0.875 7 2 C6.67 2.99 6.34 3.98 6 5 C5.01 4.67 4.02 4.34 3 4 C0.85744207 4.38932856 0.85744207 4.38932856 -1 5 C-0.67 3.35 -0.34 1.7 0 0 Z " fill="#9BE7ED" transform="translate(15,9)"/>
<path d="M0 0 C1.32 0.33 2.64 0.66 4 1 C3.34 3.31 2.68 5.62 2 8 C1.34 8 0.68 8 0 8 C0 5.36 0 2.72 0 0 Z " fill="#F2FCFC" transform="translate(12,7)"/>
</svg>
