<?xml version="1.0" encoding="UTF-8"?>
<svg version="1.1" xmlns="http://www.w3.org/2000/svg" width="64" height="64">
<path d="M0 0 C21.12 0 42.24 0 64 0 C64 21.12 64 42.24 64 64 C42.88 64 21.76 64 0 64 C0 42.88 0 21.76 0 0 Z " fill="#00B387" transform="translate(0,0)"/>
<path d="M0 0 C2.67047041 1.6433664 3.67610009 2.85075513 4.52734375 5.87109375 C5.2427239 10.12318474 5.0720411 13.09968733 3 17 C0.5625 16.625 0.5625 16.625 -2 16 C-3.4783226 13.04335481 -3.06032783 10.25770263 -3 7 C-3.99 7 -4.98 7 -6 7 C-6.50813856 12.53079464 -6.50813856 12.53079464 -4.4375 17.4375 C-1.31896306 19.43656214 1.34186183 19.71860476 5 20 C5 21.65 5 23.3 5 25 C4.24847656 25.06574219 3.49695312 25.13148437 2.72265625 25.19921875 C-0.85306272 26.2509008 -1.5981354 27.69959739 -3.5625 30.8125 C-7.80745478 37.44953091 -7.80745478 37.44953091 -11 40 C-13.52734375 40.46875 -13.52734375 40.46875 -16 40 C-25.98174558 32.19722175 -28.48501798 19.69199088 -31 8 C-31 7.34 -31 6.68 -31 6 C-28.69 6 -26.38 6 -24 6 C-23.70867188 7.19496094 -23.41734375 8.38992187 -23.1171875 9.62109375 C-20.91202045 18.2942043 -18.93144422 26.02902432 -13 33 C-12.15801693 31.90241493 -11.32669329 30.79664683 -10.5 29.6875 C-9.80390625 28.76517578 -9.80390625 28.76517578 -9.09375 27.82421875 C-7.74288717 25.92566995 -7.74288717 25.92566995 -8 23 C-8.61875 22.401875 -9.2375 21.80375 -9.875 21.1875 C-12.85928611 18.11544077 -13.91840196 15.30741127 -14.0703125 11.01171875 C-13.8254967 7.18827202 -13.14858231 5.21611973 -10.9375 2 C-6.83137046 -0.79566266 -4.90645828 -0.70092261 0 0 Z " fill="#FCFEFE" transform="translate(45,12)"/>
</svg>
