<?xml version="1.0" encoding="UTF-8"?>
<svg version="1.1" xmlns="http://www.w3.org/2000/svg" width="25" height="25">
<path d="M0 0 C8.25 0 16.5 0 25 0 C25 8.25 25 16.5 25 25 C16.75 25 8.5 25 0 25 C0 16.75 0 8.5 0 0 Z " fill="#D7F6E2" transform="translate(0,0)"/>
<path d="M0 0 C1.65 0.33 3.3 0.66 5 1 C5.6875 2.75 5.6875 2.75 6 5 C4.5625 7.25 4.5625 7.25 3 9 C-0.73639216 7.75453595 -1.18756513 6.36595047 -3 3 C-2.34 3 -1.68 3 -1 3 C-0.67 2.01 -0.34 1.02 0 0 Z " fill="#75BEB7" transform="translate(10,8)"/>
<path d="M0 0 C0.99 0.33 1.98 0.66 3 1 C3.875 2.8125 3.875 2.8125 4 5 C2.6875 7.25 2.6875 7.25 1 9 C0.34 9 -0.32 9 -1 9 C-1 8.34 -1 7.68 -1 7 C-0.34 7 0.32 7 1 7 C0.67 6.01 0.34 5.02 0 4 C0.66 4 1.32 4 2 4 C1.34 2.68 0.68 1.36 0 0 Z " fill="#3E9997" transform="translate(12,8)"/>
</svg>
