<?xml version="1.0" encoding="UTF-8"?>
<svg version="1.1" xmlns="http://www.w3.org/2000/svg" width="25" height="25">
<path d="M0 0 C3.17852316 1.64448689 5.37801764 3.75603527 7 7 C8.03037808 16.00844834 8.03037808 16.00844834 5.953125 20.0234375 C3.47535361 23.0113383 1.48573267 24.83006326 -2.390625 25.2734375 C-11.05997149 25.58136511 -11.05997149 25.58136511 -14.625 22.625 C-18.45795689 18.38857397 -18.38863816 15.34807028 -18.359375 9.7734375 C-17.80289254 5.47884463 -16.16828113 3.86654007 -13 1 C-9.03716439 -0.98141781 -4.30789762 -0.55820645 0 0 Z " fill="#166EF0" transform="translate(18,0)"/>
<path d="M0 0 C1.79133978 -0.05391993 3.58313899 -0.09275571 5.375 -0.125 C6.37273438 -0.14820313 7.37046875 -0.17140625 8.3984375 -0.1953125 C11 0 11 0 13 2 C12.67 2.33 12.34 2.66 12 3 C11.76807135 4.51469448 11.58784762 6.03754562 11.4375 7.5625 C11.35371094 8.38878906 11.26992188 9.21507812 11.18359375 10.06640625 C11.12300781 10.70449219 11.06242187 11.34257812 11 12 C7.6875 13.125 7.6875 13.125 4 14 C1 12 1 12 0 9 C-0.06740865 7.43881572 -0.08514456 5.8749748 -0.0625 4.3125 C-0.05347656 3.50425781 -0.04445313 2.69601563 -0.03515625 1.86328125 C-0.02355469 1.24839844 -0.01195312 0.63351563 0 0 Z " fill="#131209" transform="translate(6,6)"/>
<path d="M0 0 C2.64 0 5.28 0 8 0 C7.67 2.97 7.34 5.94 7 9 C5.35 9.33 3.7 9.66 2 10 C-0.09350689 6.5980513 -0.17942163 3.94727588 0 0 Z " fill="#E7D035" transform="translate(10,9)"/>
<path d="M0 0 C1.95825873 -0.02694851 3.91662226 -0.04637218 5.875 -0.0625 C6.96554688 -0.07410156 8.05609375 -0.08570313 9.1796875 -0.09765625 C12 0 12 0 14 1 C14.05437607 2.58294782 14.09296271 4.16644256 14.125 5.75 C14.14820313 6.63171875 14.17140625 7.5134375 14.1953125 8.421875 C13.98720695 11.16886832 13.56258699 12.73836094 12 15 C8.875 15.75 8.875 15.75 6 16 C6 15.34 6 14.68 6 14 C7.32 13.67 8.64 13.34 10 13 C10.66 10.03 11.32 7.06 12 4 C11.01 3.67 10.02 3.34 9 3 C9.66 2.67 10.32 2.34 11 2 C7.37 1.67 3.74 1.34 0 1 C0 0.67 0 0.34 0 0 Z " fill="#787F72" transform="translate(6,5)"/>
<path d="M0 0 C0.99 0 1.98 0 3 0 C3 2.31 3 4.62 3 7 C2.01 6.67 1.02 6.34 0 6 C0 4.02 0 2.04 0 0 Z " fill="#F1D937" transform="translate(10,9)"/>
</svg>
