<?xml version="1.0" encoding="UTF-8"?>
<svg version="1.1" xmlns="http://www.w3.org/2000/svg" width="64" height="64">
<path d="M0 0 C21.12 0 42.24 0 64 0 C64 21.12 64 42.24 64 64 C42.88 64 21.76 64 0 64 C0 42.88 0 21.76 0 0 Z " fill="#010001" transform="translate(0,0)"/>
<path d="M0 0 C4.62 0 9.24 0 14 0 C19 10.625 19 10.625 19 14 C21.64 14 24.28 14 27 14 C26.55005243 15.79379098 26.08975857 17.58498928 25.625 19.375 C25.24214844 20.87160156 25.24214844 20.87160156 24.8515625 22.3984375 C24 25 24 25 22 27 C19.8359375 27.1953125 19.8359375 27.1953125 17.375 27.125 C16.55773437 27.10695313 15.74046875 27.08890625 14.8984375 27.0703125 C14.27195312 27.04710938 13.64546875 27.02390625 13 27 C11.38772611 24.00429109 9.78671462 21.00269783 8.1875 18 C7.73568359 17.16082031 7.28386719 16.32164063 6.81835938 15.45703125 C4.13266308 10.39929663 1.88435302 5.40890702 0 0 Z " fill="#CBABED" transform="translate(12,19)"/>
<path d="M0 0 C2.21484375 -0.015625 2.21484375 -0.015625 6.02734375 0.296875 C6.02734375 4.916875 6.02734375 9.536875 6.02734375 14.296875 C1.73734375 14.296875 -2.55265625 14.296875 -6.97265625 14.296875 C-4.32492586 0.65087993 -4.32492586 0.65087993 0 0 Z " fill="#C6A7E7" transform="translate(45.97265625,18.703125)"/>
<path d="M0 0 C2.31 0 4.62 0 7 0 C6.34 2.64 5.68 5.28 5 8 C2.27573689 5.64722731 1.1858237 3.37503669 0 0 Z " fill="#A682CC" transform="translate(32,33)"/>
</svg>
