<?xml version="1.0" encoding="UTF-8"?>
<svg version="1.1" xmlns="http://www.w3.org/2000/svg" width="64" height="64">
<path d="M0 0 C6.47496935 5.28699977 10.89385341 12.01682002 12.48828125 20.3046875 C13.45098895 30.92603642 11.69688696 39.81059549 4.86328125 48.1796875 C-1.65304959 54.98888714 -9.73881 58.38100539 -19.07421875 58.6171875 C-28.91069917 58.48555577 -36.45265729 55.40153127 -43.56640625 48.59375 C-49.91613191 41.12198447 -51.90948271 33.11373067 -51.78125 23.53125 C-50.98490145 13.99815002 -46.7695639 6.47261734 -39.51171875 0.3046875 C-27.03890251 -7.52359656 -12.53369022 -8.45975359 0 0 Z " fill="#E6EDF2" transform="translate(51.51171875,5.6953125)"/>
<path d="M0 0 C1.32 0 2.64 0 4 0 C3.67 3.96 3.34 7.92 3 12 C3.66 12 4.32 12 5 12 C5.66 11.34 6.32 10.68 7 10 C7.99 10 8.98 10 10 10 C10 11.65 10 13.3 10 15 C11.32 15 12.64 15 14 15 C13.505 10.05 13.505 10.05 13 5 C13.99 5 14.98 5 16 5 C16 9.1274515 15.54466387 12.915021 15 17 C13.35 17.33 11.7 17.66 10 18 C11.65 18.33 13.3 18.66 15 19 C15.4687129 26.65564396 14.36093606 32.24255449 9.4375 38.375 C6.7711322 41.24647301 6.04225515 41.8578743 2.25 42.375 C-2.16782686 41.86525075 -3.89193037 40.10806963 -7 37 C-10.20364913 32.47070295 -11.14323379 28.73989802 -11.0625 23.25 C-11.05347656 22.45078125 -11.04445313 21.6515625 -11.03515625 20.828125 C-11.02355469 20.22484375 -11.01195313 19.6215625 -11 19 C-9.35 18.67 -7.7 18.34 -6 18 C-7.65 17.67 -9.3 17.34 -11 17 C-11.54466387 12.915021 -12 9.1274515 -12 5 C-11.01 5 -10.02 5 -9 5 C-9 8.50935186 -9.37542727 11.56484998 -10 15 C-6.7 14.67 -3.4 14.34 0 14 C0 9.38 0 4.76 0 0 Z " fill="#CCD4DA" transform="translate(30,11)"/>
<path d="M0 0 C4.04146606 -0.31697773 6.37764693 -0.35752198 9.9375 1.6875 C12 4 12 4 12.3125 6.75 C12.1578125 7.86375 12.1578125 7.86375 12 9 C4.125 8.125 4.125 8.125 3 7 C3.63882878 12.43004461 6.18084686 16.1221645 9.9375 20 C11.99537643 21.24755817 11.99537643 21.24755817 14.4375 20.5625 C17.82958677 18.49415441 19.74126595 16.26261585 22 13 C22.873938 9.77566873 22.873938 9.77566873 23 7 C22.67 7.33 22.34 7.66 22 8 C19.34536879 8.45459858 16.67810862 8.70243238 14 9 C14.48 3.6 14.48 3.6 16.625 1.125 C19.83105694 -0.39365855 22.50045311 -0.20189694 26 0 C26.4687129 7.65564396 25.36093606 13.24255449 20.4375 19.375 C17.7711322 22.24647301 17.04225515 22.8578743 13.25 23.375 C8.83217314 22.86525075 7.10806963 21.10806963 4 18 C0.79635087 13.47070295 -0.14323379 9.73989802 -0.0625 4.25 C-0.05347656 3.45078125 -0.04445313 2.6515625 -0.03515625 1.828125 C-0.02355469 1.22484375 -0.01195313 0.6215625 0 0 Z " fill="#36434B" transform="translate(19,30)"/>
<path d="M0 0 C0 1.98 0 3.96 0 6 C-3.82517513 8.39073445 -7.59665524 8.55966552 -12 9 C-11.52 3.6 -11.52 3.6 -9.375 1.125 C-6.16894306 -0.39365855 -3.49954689 -0.20189694 0 0 Z " fill="#445159" transform="translate(45,30)"/>
<path d="M0 0 C1.17506973 3.5252092 0.54255276 4.86357211 -0.97265625 8.15234375 C-2.92912228 11.67100699 -5.34172416 15.17086208 -9 17 C-13.1792999 17.56990453 -14.69372515 17.20614654 -18.25 14.8125 C-20.83455255 12.16920762 -21.99933934 10.5023123 -23 7 C-20 8 -20 8 -17.5625 11 C-15.31465807 13.94436425 -15.31465807 13.94436425 -13.0625 15.1875 C-9.4229939 14.85663581 -7.25155363 12.67192041 -5 10 C-3.10831047 6.75992603 -1.50698557 3.43406003 0 0 Z " fill="#04131C" transform="translate(44,36)"/>
<path d="M0 0 C0.99 0.66 1.98 1.32 3 2 C2.34 4.97 1.68 7.94 1 11 C4.63 11 8.26 11 12 11 C12 12.65 12 14.3 12 16 C11.67 15.01 11.34 14.02 11 13 C9.6696875 13.2784375 9.6696875 13.2784375 8.3125 13.5625 C5.14821189 13.98042484 3.05160358 13.80777742 0 13 C-0.54466387 8.915021 -1 5.1274515 -1 1 C-0.67 0.67 -0.34 0.34 0 0 Z " fill="#16252D" transform="translate(19,15)"/>
<path d="M0 0 C0.99 0.66 1.98 1.32 3 2 C2.34 5.63 1.68 9.26 1 13 C-1.31 13.33 -3.62 13.66 -6 14 C-6 11.36 -6 8.72 -6 6 C-5.34 6 -4.68 6 -4 6 C-4 7.65 -4 9.3 -4 11 C-2.68 11 -1.36 11 0 11 C-0.08378906 10.28972656 -0.16757812 9.57945313 -0.25390625 8.84765625 C-0.40666016 7.46900391 -0.40666016 7.46900391 -0.5625 6.0625 C-0.66691406 5.14597656 -0.77132812 4.22945312 -0.87890625 3.28515625 C-0.91886719 2.53105469 -0.95882812 1.77695312 -1 1 C-0.67 0.67 -0.34 0.34 0 0 Z " fill="#17262E" transform="translate(44,15)"/>
<path d="M0 0 C1.32 0 2.64 0 4 0 C4 6.6 4 13.2 4 20 C3.67 20 3.34 20 3 20 C3 18.02 3 16.04 3 14 C2.01 14 1.02 14 0 14 C0 9.38 0 4.76 0 0 Z " fill="#0B1A23" transform="translate(30,11)"/>
<path d="M0 0 C0 1.65 0 3.3 0 5 C-0.33 4.01 -0.66 3.02 -1 2 C-2.3303125 2.2784375 -2.3303125 2.2784375 -3.6875 2.5625 C-6.85178811 2.98042484 -8.94839642 2.80777742 -12 2 C-12 1.67 -12 1.34 -12 1 C-7.9472484 0.01751476 -4.16138263 -0.08159574 0 0 Z " fill="#0C1A23" transform="translate(31,26)"/>
<path d="M0 0 C1.65 0 3.3 0 5 0 C5 1.65 5 3.3 5 5 C3.35 5 1.7 5 0 5 C0 3.35 0 1.7 0 0 Z " fill="#27353D" transform="translate(24,15)"/>
<path d="M0 0 C0.33 0.99 0.66 1.98 1 3 C3.01508358 3.73323796 3.01508358 3.73323796 5 4 C5 4.66 5 5.32 5 6 C2.69 6.33 0.38 6.66 -2 7 C-1.125 1.125 -1.125 1.125 0 0 Z " fill="#011019" transform="translate(35,32)"/>
<path d="M0 0 C1.39195915 4.17587745 -0.17676781 6.13474776 -2 10 C-2.66 10 -3.32 10 -4 10 C-3.52449439 8.51965236 -3.04448784 7.04074979 -2.5625 5.5625 C-2.29566406 4.73878906 -2.02882812 3.91507813 -1.75390625 3.06640625 C-1 1 -1 1 0 0 Z " fill="#0B1A22" transform="translate(44,36)"/>
<path d="M0 0 C1.32 0 2.64 0 4 0 C4 1.65 4 3.3 4 5 C2.68 5 1.36 5 0 5 C0 3.35 0 1.7 0 0 Z " fill="#1C2A33" transform="translate(36,15)"/>
<path d="M0 0 C-0.33 1.32 -0.66 2.64 -1 4 C-3.97 3.505 -3.97 3.505 -7 3 C-7 2.34 -7 1.68 -7 1 C-2.25 0 -2.25 0 0 0 Z " fill="#011019" transform="translate(31,35)"/>
</svg>
