<svg xmlns="http://www.w3.org/2000/svg" width="278" height="278" fill="none" xmlns:v="https://vecta.io/nano"><g clip-path="url(#A)"><path d="M138.865 277.73c76.693 0 138.865-62.172 138.865-138.865S215.558 0 138.865 0 0 62.172 0 138.865 62.172 277.73 138.865 277.73z" fill="#fff"/><path d="M209.107 185.794a40.96 40.96 0 0 1-35.532 20.566h-23.731v-80.03l-34.252 59.483a40.96 40.96 0 0 1-35.532 20.565H56.493V88.273h47.408v79.828l45.943-79.791v-.037h47.388v80.158l49.786-86.507c2.012-3.513 1.976-7.868-.202-11.289-22.962-36.264-63.672-60.178-109.926-59.483C66.355 12.25 10.788 69.025 11.154 139.559c.366 70.222 57.415 127.034 127.712 127.034s127.711-57.178 127.711-127.711a127.49 127.49 0 0 0-4.3-32.88c-.842-3.183-5.087-3.769-6.733-.933l-46.456 80.707.019.018z" fill="#000"/></g><defs><clipPath id="A"><path fill="#fff" d="M0 0h277.73v277.73H0z"/></clipPath></defs></svg>