<?xml version="1.0" encoding="UTF-8"?>
<svg version="1.1" xmlns="http://www.w3.org/2000/svg" width="25" height="25">
<path d="M0 0 C8.25 0 16.5 0 25 0 C25 8.25 25 16.5 25 25 C16.75 25 8.5 25 0 25 C0 16.75 0 8.5 0 0 Z " fill="#FCB001" transform="translate(0,0)"/>
<path d="M0 0 C1.22589844 0.01353516 1.22589844 0.01353516 2.4765625 0.02734375 C3.41628906 0.04474609 3.41628906 0.04474609 4.375 0.0625 C8.375 6.5625 8.375 6.5625 8.375 11.0625 C5.53739474 12.48130263 3.09817025 12.1945472 -0.0625 12.1875 C-1.21621094 12.19007812 -2.36992187 12.19265625 -3.55859375 12.1953125 C-6.625 12.0625 -6.625 12.0625 -9.625 11.0625 C-9.625 10.4025 -9.625 9.7425 -9.625 9.0625 C-8.635 8.4025 -7.645 7.7425 -6.625 7.0625 C-6.3747843 3.97884129 -6.3747843 3.97884129 -6.625 1.0625 C-4.21954362 -0.14022819 -2.67503047 -0.03821472 0 0 Z " fill="#A39C89" transform="translate(12.625,6.9375)"/>
<path d="M0 0 C0.66 0.66 1.32 1.32 2 2 C1.625 4.625 1.625 4.625 1 7 C-5.75 7.125 -5.75 7.125 -8 6 C-8 5.01 -8 4.02 -8 3 C-6.865625 2.690625 -5.73125 2.38125 -4.5625 2.0625 C-1.21224901 1.37075469 -1.21224901 1.37075469 0 0 Z " fill="#A2A4A3" transform="translate(14,11)"/>
<path d="M0 0 C0.33 1.32 0.66 2.64 1 4 C-1.83760526 5.41880263 -4.27682975 5.1320472 -7.4375 5.125 C-8.59121094 5.12757812 -9.74492187 5.13015625 -10.93359375 5.1328125 C-14 5 -14 5 -17 4 C-17 3.34 -17 2.68 -17 2 C-16.01 1.67 -15.02 1.34 -14 1 C-13.01 1.66 -12.02 2.32 -11 3 C-8.94290404 3.24055468 -8.94290404 3.24055468 -6.8125 3.125 C-5.554375 3.08375 -4.29625 3.0425 -3 3 C-3 2.34 -3 1.68 -3 1 C-2.01 0.67 -1.02 0.34 0 0 Z " fill="#A3987B" transform="translate(20,14)"/>
<path d="M0 0 C0 0.99 0 1.98 0 3 C0.66 3.33 1.32 3.66 2 4 C-2.75 6 -2.75 6 -5 6 C-5.33 4.02 -5.66 2.04 -6 0 C-3.50907189 -1.24546405 -2.58919267 -0.7767578 0 0 Z " fill="#90908D" transform="translate(12,8)"/>
<path d="M0 0 C0.33 1.32 0.66 2.64 1 4 C-1.31 4.33 -3.62 4.66 -6 5 C-5 3 -5 3 -3 2 C-2.01 1.34 -1.02 0.68 0 0 Z " fill="#9B6F2E" transform="translate(20,14)"/>
<path d="M0 0 C0.99 0.99 1.98 1.98 3 3 C2.01 3.33 1.02 3.66 0 4 C-0.33 4.99 -0.66 5.98 -1 7 C-1.33 5.02 -1.66 3.04 -2 1 C-1.34 0.67 -0.68 0.34 0 0 Z " fill="#9B7E5A" transform="translate(8,7)"/>
</svg>
