<?xml version="1.0" encoding="UTF-8"?>
<svg version="1.1" xmlns="http://www.w3.org/2000/svg" width="64" height="64">
<path d="M0 0 C8.04071716 5.46768767 14.35713546 11.78672485 16.953125 21.328125 C17.97008074 32.73931439 17.08780568 41.52074309 9.640625 50.578125 C3.75028057 56.89640044 -1.9995096 60.87830798 -10.81640625 61.6640625 C-22.23808647 61.92046185 -29.76998744 60.10045244 -38.2578125 52.1875 C-45.41707366 44.7468705 -47.46537447 37.63799487 -47.41040039 27.37304688 C-47.154444 17.46241552 -43.06295379 11.07888989 -36.046875 4.328125 C-26.55128048 -3.80505814 -11.27874483 -6.1129075 0 0 Z " fill="#A79D91" transform="translate(47.046875,2.671875)"/>
<path d="M0 0 C1.78083984 0.00966797 1.78083984 0.00966797 3.59765625 0.01953125 C6.49869407 0.1654314 9.11758735 0.52116903 11.9375 1.1875 C11.9375 1.8475 11.9375 2.5075 11.9375 3.1875 C12.9275 3.1875 13.9175 3.1875 14.9375 3.1875 C14.9375 3.8475 14.9375 4.5075 14.9375 5.1875 C15.9275 5.5175 16.9175 5.8475 17.9375 6.1875 C18.411875 7.033125 18.88625 7.87875 19.375 8.75 C19.890625 9.554375 20.40625 10.35875 20.9375 11.1875 C22.2575 11.1875 23.5775 11.1875 24.9375 11.1875 C25.8125 13.6875 25.8125 13.6875 25.9375 17.1875 C22.39364157 24.12113606 15.486366 30.80240678 8.4375 34.125 C-0.44835961 36.96353849 -11.79159758 36.32295121 -20.0625 32.1875 C-20.0625 31.1975 -20.0625 30.2075 -20.0625 29.1875 C-19.4025 29.1875 -18.7425 29.1875 -18.0625 29.1875 C-18.3925 25.2275 -18.7225 21.2675 -19.0625 17.1875 C-20.0525 16.8575 -21.0425 16.5275 -22.0625 16.1875 C-22.3125 10.5625 -22.3125 10.5625 -20.0625 7.1875 C-19.4025 7.1875 -18.7425 7.1875 -18.0625 7.1875 C-18.0625 6.5275 -18.0625 5.8675 -18.0625 5.1875 C-12.35596646 1.15935868 -6.91445061 -0.08276274 0 0 Z " fill="#8E7A63" transform="translate(36.0625,28.8125)"/>
<path d="M0 0 C1.22203125 -0.00515625 2.4440625 -0.0103125 3.703125 -0.015625 C6.75 0.25 6.75 0.25 8.75 2.25 C8.42 2.91 8.09 3.57 7.75 4.25 C8.471875 4.29125 9.19375 4.3325 9.9375 4.375 C14.05925447 5.65732361 15.28677499 7.73110713 17.75 11.25 C17.75 12.24 17.75 13.23 17.75 14.25 C17.09 14.25 16.43 14.25 15.75 14.25 C15.75 14.91 15.75 15.57 15.75 16.25 C15.09 16.25 14.43 16.25 13.75 16.25 C13.75 14.93 13.75 13.61 13.75 12.25 C13.028125 12.559375 12.30625 12.86875 11.5625 13.1875 C7.46644188 14.73489973 4.13872233 15.25 -0.25 15.25 C-2.59476551 15.8752708 -4.93060793 16.5363409 -7.25 17.25 C-7.25 17.91 -7.25 18.57 -7.25 19.25 C-9.23 18.59 -11.21 17.93 -13.25 17.25 C-13.25 15.93 -13.25 14.61 -13.25 13.25 C-13.91 13.25 -14.57 13.25 -15.25 13.25 C-15.91 14.57 -16.57 15.89 -17.25 17.25 C-18.9 16.92 -20.55 16.59 -22.25 16.25 C-22.5 10.625 -22.5 10.625 -20.25 7.25 C-19.59 7.25 -18.93 7.25 -18.25 7.25 C-18.25 6.59 -18.25 5.93 -18.25 5.25 C-12.49404549 1.18697329 -6.97258172 -0.02967056 0 0 Z " fill="#65422B" transform="translate(36.25,28.75)"/>
<path d="M0 0 C1.32 0 2.64 0 4 0 C4.52112843 5.94086413 3.94890354 8.95763128 0.38671875 13.75 C-1 15 -1 15 -4 15 C-4 14.34 -4 13.68 -4 13 C-4.66 13 -5.32 13 -6 13 C-6 11.35 -6 9.7 -6 8 C-8.97 8 -11.94 8 -15 8 C-15.33 10.31 -15.66 12.62 -16 15 C-16.66 15 -17.32 15 -18 15 C-18 15.99 -18 16.98 -18 18 C-19.9375 17.1875 -19.9375 17.1875 -22 16 C-22.33 15.01 -22.66 14.02 -23 13 C-23.66 13 -24.32 13 -25 13 C-24.21869929 15.49552484 -24.21869929 15.49552484 -23 18 C-22.01 18.33 -21.02 18.66 -20 19 C-20 19.66 -20 20.32 -20 21 C-24.05431692 22.15837626 -26.21812119 21.83691257 -30 20 C-30 19.01 -30 18.02 -30 17 C-29.34 17 -28.68 17 -28 17 C-28.11859375 16.18015625 -28.2371875 15.3603125 -28.359375 14.515625 C-28.48828125 13.43796875 -28.6171875 12.3603125 -28.75 11.25 C-28.88921875 10.18265625 -29.0284375 9.1153125 -29.171875 8.015625 C-29 5 -29 5 -27.140625 2.609375 C-25 1 -25 1 -23 1 C-22.938125 1.61875 -22.87625 2.2375 -22.8125 2.875 C-22.171081 5.27761141 -22.171081 5.27761141 -19.4375 6.25 C-18.633125 6.4975 -17.82875 6.745 -17 7 C-17 6.34 -17 5.68 -17 5 C-14.35261084 3.5393715 -13.10551666 3 -10 3 C-9.67 2.34 -9.34 1.68 -9 1 C-7.88625 1.20625 -6.7725 1.4125 -5.625 1.625 C-4.42875 1.74875 -3.2325 1.8725 -2 2 C-1.34 1.34 -0.68 0.68 0 0 Z " fill="#AD956A" transform="translate(46,41)"/>
<path d="M0 0 C2.08412907 0.06023494 4.16744435 0.14908321 6.25 0.25 C7.41015625 0.29640625 8.5703125 0.3428125 9.765625 0.390625 C13.46661382 1.08791275 14.67122429 2.11785184 17 5 C14.525 4.505 14.525 4.505 12 4 C11.67 4.66 11.34 5.32 11 6 C11.99 6.33 12.98 6.66 14 7 C14.66 7.33 15.32 7.66 16 8 C16 7.34 16 6.68 16 6 C19.40844088 7.37909662 20.66737535 8.60563494 22.1875 11.9375 C22.51105469 12.62714844 22.83460937 13.31679688 23.16796875 14.02734375 C23.85446708 15.65495717 24.44139411 17.32418233 25 19 C23.68 19 22.36 19 21 19 C21 18.34 21 17.68 21 17 C6.44777775 16.19129427 6.44777775 16.19129427 -7 21 C-7.66 21 -8.32 21 -9 21 C-9 21.66 -9 22.32 -9 23 C-10.375 24.625 -10.375 24.625 -12 26 C-12.66 26 -13.32 26 -14 26 C-12.65706644 21.48285983 -11.05617236 20.2308948 -7 18 C-6.34 17.01 -5.68 16.02 -5 15 C-5 15.66 -5 16.32 -5 17 C-3.686298 16.3566152 -2.37407102 15.71021785 -1.0625 15.0625 C-0.33160156 14.70285156 0.39929688 14.34320313 1.15234375 13.97265625 C4.61753757 12.14848445 4.83593702 9.64739734 6 6 C6.66 6.33 7.32 6.66 8 7 C8 8.65 8 10.3 8 12 C9.15811388 10.94729537 9.15811388 10.94729537 10 9 C9.67 8.01 9.34 7.02 9 6 C8.01 5.67 7.02 5.34 6 5 C6 4.34 6 3.68 6 3 C5.34 3 4.68 3 4 3 C3.67 3.66 3.34 4.32 3 5 C0.4375 5.625 0.4375 5.625 -2 6 C-2.66 8.64 -3.32 11.28 -4 14 C-5.65 14.33 -7.3 14.66 -9 15 C-8.67 14.0925 -8.34 13.185 -8 12.25 C-6.80394277 8.92954193 -6.80394277 8.92954193 -7 5 C-4 3 -4 3 -1 3 C-0.67 2.01 -0.34 1.02 0 0 Z " fill="#C38B75" transform="translate(27,13)"/>
<path d="M0 0 C0.66 0 1.32 0 2 0 C2.33 0.66 2.66 1.32 3 2 C5.32156597 2.40729228 7.6568787 2.74438677 10 3 C10 3.66 10 4.32 10 5 C12.64 5 15.28 5 18 5 C18.05407567 7.58361518 18.093707 10.16609255 18.125 12.75 C18.14175781 13.47960938 18.15851563 14.20921875 18.17578125 14.9609375 C18.21072239 18.8044624 18.17499684 21.74606772 16 25 C15.34 24.01 14.68 23.02 14 22 C13.360625 21.87625 12.72125 21.7525 12.0625 21.625 C9.02822143 20.70552164 8.47939967 18.68981758 7 16 C6.34 15.67 5.68 15.34 5 15 C4.87625 14.319375 4.7525 13.63875 4.625 12.9375 C3.89375348 9.50064137 2.4935609 6.84744609 0.83984375 3.76953125 C0 2 0 2 0 0 Z " fill="#AA9885" transform="translate(46,19)"/>
<path d="M0 0 C2.64 0 5.28 0 8 0 C8.66 2.97 9.32 5.94 10 9 C7.69 9.66 5.38 10.32 3 11 C3 11.66 3 12.32 3 13 C3.99 13 4.98 13 6 13 C6 13.66 6 14.32 6 15 C1.71 15 -2.58 15 -7 15 C-7 14.34 -7 13.68 -7 13 C-6.34 13 -5.68 13 -5 13 C-5 12.34 -5 11.68 -5 11 C-5.928125 10.8453125 -5.928125 10.8453125 -6.875 10.6875 C-9 10 -9 10 -11 7 C-10.625 4.8125 -10.625 4.8125 -10 3 C-10 3.66 -10 4.32 -10 5 C-9.34 5 -8.68 5 -8 5 C-6.29319053 6.62553283 -4.62339805 8.29115995 -3 10 C-3 9.01 -3 8.02 -3 7 C-2.34 7 -1.68 7 -1 7 C-0.67 4.69 -0.34 2.38 0 0 Z " fill="#5A482B" transform="translate(31,49)"/>
<path d="M0 0 C0.0825 0.61875 0.165 1.2375 0.25 1.875 C0.81258459 4.18437567 0.81258459 4.18437567 3.0625 5.25 C3.701875 5.4975 4.34125 5.745 5 6 C4.25 10.75 4.25 10.75 2 13 C5.11332248 12.33131686 5.11332248 12.33131686 6.1875 9.9375 C6.455625 9.298125 6.72375 8.65875 7 8 C8.24546405 10.49092811 7.7767578 11.41080733 7 14 C6.34 14 5.68 14 5 14 C5 14.99 5 15.98 5 17 C3.0625 16.1875 3.0625 16.1875 1 15 C0.67 14.01 0.34 13.02 0 12 C-0.66 12 -1.32 12 -2 12 C-1.21869929 14.49552484 -1.21869929 14.49552484 0 17 C0.99 17.33 1.98 17.66 3 18 C3 18.66 3 19.32 3 20 C-1.05431692 21.15837626 -3.21812119 20.83691257 -7 19 C-7 18.01 -7 17.02 -7 16 C-6.34 16 -5.68 16 -5 16 C-5.11859375 15.18015625 -5.2371875 14.3603125 -5.359375 13.515625 C-5.48828125 12.43796875 -5.6171875 11.3603125 -5.75 10.25 C-5.88921875 9.18265625 -6.0284375 8.1153125 -6.171875 7.015625 C-6 4 -6 4 -4.140625 1.609375 C-2 0 -2 0 0 0 Z " fill="#786645" transform="translate(23,42)"/>
<path d="M0 0 C0 0.66 0 1.32 0 2 C1.32 2.33 2.64 2.66 4 3 C4.625 4.8125 4.625 4.8125 5 7 C4.01 8.485 4.01 8.485 3 10 C2.34 9.67 1.68 9.34 1 9 C1 7.35 1 5.7 1 4 C0.67 4 0.34 4 0 4 C-0.33 6.31 -0.66 8.62 -1 11 C-1.515625 11.103125 -2.03125 11.20625 -2.5625 11.3125 C-5.22284542 12.00600825 -5.22284542 12.00600825 -8.5 13.5 C-11.06629032 14.59983871 -13.28865011 15.45773002 -16 16 C-15.34 15.67 -14.68 15.34 -14 15 C-13.29373761 13.01363702 -12.63106429 11.01151741 -12 9 C-8.97674419 2.38662791 -8.97674419 2.38662791 -5 0.8125 C-2 0 -2 0 0 0 Z " fill="#AA7869" transform="translate(33,16)"/>
<path d="M0 0 C0 0.66 0 1.32 0 2 C0.639375 2.28875 1.27875 2.5775 1.9375 2.875 C4 4 4 4 5 6 C4.40832031 5.79503906 3.81664063 5.59007812 3.20703125 5.37890625 C-2.78302098 3.20191582 -2.78302098 3.20191582 -9 2 C-9.66 2.66 -10.32 3.32 -11 4 C-12.34262065 3.70630173 -13.67696283 3.3721042 -15 3 C-15.99 3.495 -15.99 3.495 -17 4 C-16.67 5.98 -16.34 7.96 -16 10 C-19.3 9.01 -22.6 8.02 -26 7 C-25.01 5.68 -24.02 4.36 -23 3 C-23.66 2.67 -24.32 2.34 -25 2 C-24.34 2 -23.68 2 -23 2 C-23 1.34 -23 0.68 -23 0 C-15.72506783 -2.18768843 -7.38929527 -1.34350823 0 0 Z " fill="#462310" transform="translate(46,34)"/>
<path d="M0 0 C2.08412907 0.06023494 4.16744435 0.14908321 6.25 0.25 C7.41015625 0.29640625 8.5703125 0.3428125 9.765625 0.390625 C13.46661382 1.08791275 14.67122429 2.11785184 17 5 C14.525 4.505 14.525 4.505 12 4 C11.67 4.66 11.34 5.32 11 6 C11.99 6.33 12.98 6.66 14 7 C10.23312136 7 9.08809695 6.76462683 6 5 C6 4.34 6 3.68 6 3 C5.34 3 4.68 3 4 3 C3.67 3.66 3.34 4.32 3 5 C0.4375 5.625 0.4375 5.625 -2 6 C-2.66 8.64 -3.32 11.28 -4 14 C-5.65 14.33 -7.3 14.66 -9 15 C-8.67 14.0925 -8.34 13.185 -8 12.25 C-6.80394277 8.92954193 -6.80394277 8.92954193 -7 5 C-4 3 -4 3 -1 3 C-0.67 2.01 -0.34 1.02 0 0 Z " fill="#D6AE9D" transform="translate(27,13)"/>
<path d="M0 0 C1.24523437 0.01804687 2.49046875 0.03609375 3.7734375 0.0546875 C5.18496094 0.08949219 5.18496094 0.08949219 6.625 0.125 C6.625 0.785 6.625 1.445 6.625 2.125 C5.34625 2.269375 4.0675 2.41375 2.75 2.5625 C0.36807106 2.83142746 -1.21952691 3.04726346 -3.375 4.125 C-4.365 3.795 -5.355 3.465 -6.375 3.125 C-6.375 3.785 -6.375 4.445 -6.375 5.125 C-8.685 5.125 -10.995 5.125 -13.375 5.125 C-13.375 6.445 -13.375 7.765 -13.375 9.125 C-15.355 9.125 -17.335 9.125 -19.375 9.125 C-19.313125 9.90875 -19.25125 10.6925 -19.1875 11.5 C-19.249375 12.36625 -19.31125 13.2325 -19.375 14.125 C-20.365 14.785 -21.355 15.445 -22.375 16.125 C-22.625 10.5 -22.625 10.5 -20.375 7.125 C-19.715 7.125 -19.055 7.125 -18.375 7.125 C-18.375 6.465 -18.375 5.805 -18.375 5.125 C-12.53341208 1.00152617 -7.07093474 -0.13341386 0 0 Z " fill="#6E4536" transform="translate(36.375,28.875)"/>
<path d="M0 0 C0.66 0 1.32 0 2 0 C2.33 0.66 2.66 1.32 3 2 C5.32156597 2.40729228 7.6568787 2.74438677 10 3 C10.05386629 5.12472576 10.09273071 7.24983652 10.125 9.375 C10.14820313 10.55835938 10.17140625 11.74171875 10.1953125 12.9609375 C10 16 10 16 8 18 C5.00104098 15.52259907 4.74568558 13.72842789 4 10 C3.01429552 7.88195731 1.94544409 5.82728563 0.83984375 3.76953125 C0 2 0 2 0 0 Z " fill="#AC9074" transform="translate(46,19)"/>
<path d="M0 0 C0.33 0 0.66 0 1 0 C1 1.65 1 3.3 1 5 C1.66 5 2.32 5 3 5 C3 5.66 3 6.32 3 7 C3.99 7 4.98 7 6 7 C6.66 5.68 7.32 4.36 8 3 C8.99 3 9.98 3 11 3 C11.125 5.375 11.125 5.375 11 8 C8.7448078 10.2551922 6.9952413 10.97723468 4 12 C3.01 12 2.02 12 1 12 C1 12.99 1 13.98 1 15 C0.01 15 -0.98 15 -2 15 C-2 14.34 -2 13.68 -2 13 C-2.99 13 -3.98 13 -5 13 C-5 12.34 -5 11.68 -5 11 C-2 9 -2 9 2 9 C1.34 8.01 0.68 7.02 0 6 C-0.125 2.8125 -0.125 2.8125 0 0 Z " fill="#76654E" transform="translate(39,49)"/>
<path d="M0 0 C2.64 0 5.28 0 8 0 C8.66 2.97 9.32 5.94 10 9 C8.37512529 9.16788373 6.75009558 9.33426787 5.125 9.5 C4.22007813 9.5928125 3.31515625 9.685625 2.3828125 9.78125 C0 10 0 10 -2 10 C-2 9.34 -2 8.68 -2 8 C-1.34 8 -0.68 8 0 8 C0 5.36 0 2.72 0 0 Z " fill="#493A27" transform="translate(31,49)"/>
<path d="M0 0 C3.40844088 1.37909662 4.66737535 2.60563494 6.1875 5.9375 C6.67283203 6.97197266 6.67283203 6.97197266 7.16796875 8.02734375 C7.85446708 9.65495717 8.44139411 11.32418233 9 13 C7.68 13 6.36 13 5 13 C5 12.34 5 11.68 5 11 C3.01432292 10.8046875 1.02864583 10.609375 -0.95703125 10.4140625 C-3 10 -3 10 -6 8 C-6 7.34 -6 6.68 -6 6 C-5.34 6 -4.68 6 -4 6 C-4 6.66 -4 7.32 -4 8 C-2.35 8 -0.7 8 1 8 C-0.32 7.34 -1.64 6.68 -3 6 C-3 4.68 -3 3.36 -3 2 C-2.01 2 -1.02 2 0 2 C0 1.34 0 0.68 0 0 Z " fill="#E4B198" transform="translate(43,19)"/>
<path d="M0 0 C1.98 0 3.96 0 6 0 C5.67 0.66 5.34 1.32 5 2 C7.64 3.32 10.28 4.64 13 6 C12.67 7.32 12.34 8.64 12 10 C10.02 9.34 8.04 8.68 6 8 C6 6.68 6 5.36 6 4 C5.34 4 4.68 4 4 4 C3.34 5.32 2.68 6.64 2 8 C0.68 8 -0.64 8 -2 8 C-1.125 2.25 -1.125 2.25 0 0 Z " fill="#53361E" transform="translate(17,38)"/>
<path d="M0 0 C0.94875 0.04125 1.8975 0.0825 2.875 0.125 C2.194375 0.764375 1.51375 1.40375 0.8125 2.0625 C-1.62410157 5.91390248 -1.18041177 7.8041743 -0.38671875 12.13671875 C-0.125 14.125 -0.125 14.125 -1.125 16.125 C-2.115 15.795 -3.105 15.465 -4.125 15.125 C-4.125 14.135 -4.125 13.145 -4.125 12.125 C-5.115 12.125 -6.105 12.125 -7.125 12.125 C-7.125 10.805 -7.125 9.485 -7.125 8.125 C-6.465 8.125 -5.805 8.125 -5.125 8.125 C-5.16625 7.17625 -5.2075 6.2275 -5.25 5.25 C-5.0773465 0.9336624 -4.3163376 0.1726535 0 0 Z " fill="#A48E82" transform="translate(15.125,31.875)"/>
<path d="M0 0 C-0.50057152 4.38000076 -1.93193534 6.84169815 -5 10 C-5.99 10 -6.98 10 -8 10 C-8 9.34 -8 8.68 -8 8 C-8.66 8 -9.32 8 -10 8 C-10 6.02 -10 4.04 -10 2 C-9.34 2 -8.68 2 -8 2 C-7.67 2.66 -7.34 3.32 -7 4 C-6.54625 3.525625 -6.0925 3.05125 -5.625 2.5625 C-3.70243308 0.71387796 -2.68896615 0 0 0 Z " fill="#BFAA84" transform="translate(50,46)"/>
<path d="M0 0 C1.32 0 2.64 0 4 0 C4 0.66 4 1.32 4 2 C0.69649386 5.11997802 -0.32409833 6 -5 6 C-5 5.34 -5 4.68 -5 4 C-8.96 4.99 -12.92 5.98 -17 7 C-17 6.34 -17 5.68 -17 5 C-14.35261084 3.5393715 -13.10551666 3 -10 3 C-9.67 2.34 -9.34 1.68 -9 1 C-7.88625 1.20625 -6.7725 1.4125 -5.625 1.625 C-4.42875 1.74875 -3.2325 1.8725 -2 2 C-1.34 1.34 -0.68 0.68 0 0 Z " fill="#7F673D" transform="translate(46,41)"/>
<path d="M0 0 C-2.79793686 1.86529124 -4.69468482 2.61067174 -7.875 3.5 C-11.34102221 4.49825494 -14.68467629 5.56335973 -18 7 C-18 7.66 -18 8.32 -18 9 C-19.375 10.625 -19.375 10.625 -21 12 C-21.66 12 -22.32 12 -23 12 C-21.65706644 7.48285983 -20.05617236 6.2308948 -16 4 C-15.34 3.01 -14.68 2.02 -14 1 C-14 1.66 -14 2.32 -14 3 C-12.4840625 1.9790625 -12.4840625 1.9790625 -10.9375 0.9375 C-7.04622243 -1.3257941 -4.39006837 -1.07511878 0 0 Z " fill="#D0A495" transform="translate(36,27)"/>
<path d="M0 0 C1.67542976 0.28604898 3.34385343 0.61781233 5 1 C4.360625 1.103125 3.72125 1.20625 3.0625 1.3125 C2.381875 1.539375 1.70125 1.76625 1 2 C0.67 2.99 0.34 3.98 0 5 C-2.21701147 6.58965571 -4.57862473 7.72327486 -7 9 C-7.66 6.69 -8.32 4.38 -9 2 C-6.10765685 1.17361624 -4.11257569 1 -1 1 C-0.67 0.67 -0.34 0.34 0 0 Z " fill="#563A1E" transform="translate(37,35)"/>
<path d="M0 0 C1.28132813 0.00902344 2.56265625 0.01804687 3.8828125 0.02734375 C4.87023437 0.03894531 5.85765625 0.05054687 6.875 0.0625 C6.875 0.7225 6.875 1.3825 6.875 2.0625 C5.59625 2.206875 4.3175 2.35125 3 2.5 C0.61807106 2.76892746 -0.96952691 2.98476346 -3.125 4.0625 C-4.115 3.7325 -5.105 3.4025 -6.125 3.0625 C-6.125 3.7225 -6.125 4.3825 -6.125 5.0625 C-8.435 4.4025 -10.745 3.7425 -13.125 3.0625 C-8.29812678 0.64906339 -5.53066888 -0.05027881 0 0 Z " fill="#7E4F3D" transform="translate(36.125,28.9375)"/>
<path d="M0 0 C0.33 0.99 0.66 1.98 1 3 C1.66 3 2.32 3 3 3 C3.99 4.485 3.99 4.485 5 6 C5.99 6.33 6.98 6.66 8 7 C8 7.66 8 8.32 8 9 C3.94568308 10.15837626 1.78187881 9.83691257 -2 8 C-2 7.01 -2 6.02 -2 5 C-1.34 5 -0.68 5 0 5 C0 3.35 0 1.7 0 0 Z " fill="#7D6946" transform="translate(18,53)"/>
<path d="M0 0 C2.31 0 4.62 0 7 0 C7 1.32 7 2.64 7 4 C6.34 4 5.68 4 5 4 C5.33 4.99 5.66 5.98 6 7 C4.35 7 2.7 7 1 7 C0.67 4.69 0.34 2.38 0 0 Z " fill="#1A0D03" transform="translate(32,50)"/>
<path d="M0 0 C0.99 0 1.98 0 3 0 C3 0.66 3 1.32 3 2 C3.99 2 4.98 2 6 2 C6 2.66 6 3.32 6 4 C6.99 4.33 7.98 4.66 9 5 C9.33 7.31 9.66 9.62 10 12 C9.7525 11.38125 9.505 10.7625 9.25 10.125 C7.77753937 7.62181694 6.58971163 7.16954719 4 6 C3.67 5.34 3.34 4.68 3 4 C0.97536745 3.34786708 0.97536745 3.34786708 -1 3 C-0.67 2.01 -0.34 1.02 0 0 Z " fill="#835C45" transform="translate(45,30)"/>
<path d="M0 0 C1.33332095 2.6666419 0.67102033 4.16680303 0 7 C0.66 7.33 1.32 7.66 2 8 C-2.39042858 11.42453429 -5.2902045 13.58221009 -11 14 C-11 13.34 -11 12.68 -11 12 C-10.36191406 11.76925781 -9.72382812 11.53851563 -9.06640625 11.30078125 C-6.59543393 10.32549888 -4.28868041 9.35161692 -2 8 C-0.7886547 5.3912295 -0.7886547 5.3912295 -1 3 C-1.66 2.67 -2.32 2.34 -3 2 C-2.01 1.34 -1.02 0.68 0 0 Z " fill="#83714F" transform="translate(51,49)"/>
<path d="M0 0 C0.66 0 1.32 0 2 0 C2 0.66 2 1.32 2 2 C3.32 2.33 4.64 2.66 6 3 C6.625 4.8125 6.625 4.8125 7 7 C6.01 8.485 6.01 8.485 5 10 C4.34 9.67 3.68 9.34 3 9 C3 7.35 3 5.7 3 4 C2.67 4 2.34 4 2 4 C1.67 6.31 1.34 8.62 1 11 C0.34 11 -0.32 11 -1 11 C-0.67 7.37 -0.34 3.74 0 0 Z " fill="#A46C57" transform="translate(31,16)"/>
<path d="M0 0 C0.66 0.33 1.32 0.66 2 1 C1.34 4.3 0.68 7.6 0 11 C-1.65 11.33 -3.3 11.66 -5 12 C-4.67 11.0925 -4.34 10.185 -4 9.25 C-2.80394277 5.92954193 -2.80394277 5.92954193 -3 2 C-2.01 1.34 -1.02 0.68 0 0 Z " fill="#C8A498" transform="translate(23,16)"/>
<path d="M0 0 C0.99 0 1.98 0 3 0 C3.125 2.375 3.125 2.375 3 5 C1 7 1 7 -1.625 7.125 C-2.40875 7.08375 -3.1925 7.0425 -4 7 C-1.125 1.125 -1.125 1.125 0 0 Z " fill="#6A5735" transform="translate(47,52)"/>
<path d="M0 0 C1.61949011 2.57213134 2.04408751 3.67669159 1.625 6.75 C1.41875 7.4925 1.2125 8.235 1 9 C0.34 9 -0.32 9 -1 9 C-1.33 9.66 -1.66 10.32 -2 11 C-2.99 10.34 -3.98 9.68 -5 9 C-5 8.34 -5 7.68 -5 7 C-4.01 6.67 -3.02 6.34 -2 6 C-0.77479736 2.99152582 -0.77479736 2.99152582 0 0 Z " fill="#A48E6D" transform="translate(17,49)"/>
<path d="M0 0 C0 0.99 0 1.98 0 3 C-0.53625 3.12375 -1.0725 3.2475 -1.625 3.375 C-4.4638286 4.12206016 -7.22223202 5.05303364 -10 6 C-8.20404732 1.26521567 -5.07984355 -1.69328118 0 0 Z " fill="#6C502B" transform="translate(40,40)"/>
<path d="M0 0 C0.33 0 0.66 0 1 0 C1 1.65 1 3.3 1 5 C0.34 5 -0.32 5 -1 5 C-1 5.66 -1 6.32 -1 7 C-0.21625 6.79375 0.5675 6.5875 1.375 6.375 C2.674375 6.189375 2.674375 6.189375 4 6 C4.66 6.66 5.32 7.32 6 8 C5.34 8 4.68 8 4 8 C4 8.66 4 9.32 4 10 C1.83125748 9.49396008 0.00032373 9.00016187 -2 8 C-2 6.68 -2 5.36 -2 4 C-1.34 4 -0.68 4 0 4 C0 2.68 0 1.36 0 0 Z " fill="#64553D" transform="translate(30,52)"/>
<path d="M0 0 C2.31 0.66 4.62 1.32 7 2 C7 3.32 7 4.64 7 6 C3.7 5.01 0.4 4.02 -3 3 C-2.01 2.01 -1.02 1.02 0 0 Z " fill="#2C1003" transform="translate(23,38)"/>
<path d="M0 0 C0.66 0 1.32 0 2 0 C5 5.75 5 5.75 5 8 C4.01 8 3.02 8 2 8 C2 7.34 2 6.68 2 6 C1.34 6 0.68 6 0 6 C0 4.02 0 2.04 0 0 Z " fill="#B6A47A" transform="translate(40,48)"/>
<path d="M0 0 C2.475 0.99 2.475 0.99 5 2 C2.57869669 4.42130331 1.19888623 4.52840504 -2.125 5.125 C-3.03507812 5.29257812 -3.94515625 5.46015625 -4.8828125 5.6328125 C-5.58148437 5.75398438 -6.28015625 5.87515625 -7 6 C-7 5.34 -7 4.68 -7 4 C-4.35261084 2.5393715 -3.10551666 2 0 2 C0 1.34 0 0.68 0 0 Z " fill="#907447" transform="translate(36,42)"/>
<path d="M0 0 C2.64 0 5.28 0 8 0 C6.25 2 6.25 2 4 4 C2.68 4 1.36 4 0 4 C0 2.68 0 1.36 0 0 Z " fill="#361B06" transform="translate(40,40)"/>
<path d="M0 0 C1.74627478 2.61941217 2.38722388 4.03824877 3 7 C1.35 7.33 -0.3 7.66 -2 8 C-2 7.01 -2 6.02 -2 5 C-1.34 5 -0.68 5 0 5 C0 3.35 0 1.7 0 0 Z " fill="#997B51" transform="translate(18,53)"/>
<path d="M0 0 C1.65 1.32 3.3 2.64 5 4 C4.34 4.66 3.68 5.32 3 6 C1.68 6 0.36 6 -1 6 C-0.67 4.02 -0.34 2.04 0 0 Z " fill="#9B846F" transform="translate(55,38)"/>
<path d="M0 0 C0.66 0 1.32 0 2 0 C1.6875 3.375 1.6875 3.375 1 7 C0.01 7.66 -0.98 8.32 -2 9 C-2.25 3.375 -2.25 3.375 0 0 Z " fill="#724F3E" transform="translate(16,36)"/>
<path d="M0 0 C1.10844919 3.32534757 0.84454356 5.62182575 0 9 C-0.99 8.67 -1.98 8.34 -3 8 C-1.125 1.125 -1.125 1.125 0 0 Z " fill="#925D4C" transform="translate(28,19)"/>
<path d="M0 0 C0.66 0 1.32 0 2 0 C2.33 0.66 2.66 1.32 3 2 C3.99 2.33 4.98 2.66 6 3 C6 3.66 6 4.32 6 5 C5.34 5 4.68 5 4 5 C3.67 6.32 3.34 7.64 3 9 C2.01 6.03 1.02 3.06 0 0 Z " fill="#B29477" transform="translate(46,19)"/>
<path d="M0 0 C1.65 0 3.3 0 5 0 C5 0.99 5 1.98 5 3 C5.99 3.33 6.98 3.66 8 4 C4.23312136 4 3.08809695 3.76462683 0 2 C0 1.34 0 0.68 0 0 Z " fill="#DEA894" transform="translate(33,16)"/>
<path d="M0 0 C2.625 -0.1875 2.625 -0.1875 5 0 C4.67 0.66 4.34 1.32 4 2 C3.01 2.33 2.02 2.66 1 3 C-0.66710346 4.49985609 -0.66710346 4.49985609 -2 6 C-2 3 -2 3 0 0 Z " fill="#E4BCAC" transform="translate(27,13)"/>
<path d="M0 0 C0.66 0.99 1.32 1.98 2 3 C1.34 4.32 0.68 5.64 0 7 C-0.99 7 -1.98 7 -3 7 C-2.1654738 4.49642139 -1.20628008 2.33214148 0 0 Z " fill="#948565" transform="translate(28,48)"/>
<path d="M0 0 C0.33 0 0.66 0 1 0 C2.125 6.75 2.125 6.75 1 9 C0.01 8.67 -0.98 8.34 -2 8 C-2 7.01 -2 6.02 -2 5 C-1.34 5 -0.68 5 0 5 C0 3.35 0 1.7 0 0 Z " fill="#9D8876" transform="translate(13,39)"/>
<path d="M0 0 C2.4375 0.75 2.4375 0.75 5 2 C5.8125 4.125 5.8125 4.125 6 6 C4 5 2 4 0 3 C0 2.01 0 1.02 0 0 Z " fill="#C7947F" transform="translate(38,16)"/>
</svg>
