<svg xmlns="http://www.w3.org/2000/svg" width="56" height="56" fill="none" xmlns:v="https://vecta.io/nano"><g clip-path="url(#A)"><path d="M56 28c0 15.464-12.536 28-28 28S0 43.464 0 28 12.536 0 28 0s28 12.536 28 28z" fill="#fff"/><path d="M40 32.182C40 39.782 34.6 46 28 46s-12-6.218-12-13.818S28 8 28 8s12 16.582 12 24.182z" fill="#000"/><path d="M25.5 21.002c-1 5.5-2.5 6.808-3.582 6.241-1.418-.743-.534-3.779.581-6.241 2.064-4.559 4.5-9 4.5-9l-1.5 9z" fill="#fff"/></g><defs><clipPath id="A"><path fill="#fff" d="M0 0h56v56H0z"/></clipPath></defs></svg>