<?xml version="1.0" encoding="UTF-8"?>
<svg version="1.1" xmlns="http://www.w3.org/2000/svg" width="200" height="200">
<path d="M0 0 C1.06734375 0.51433594 2.1346875 1.02867188 3.234375 1.55859375 C25.18466604 12.71408204 43.54700746 32.82780462 51.76660156 56.17773438 C58.15843321 75.79956277 60.57587039 99.07461828 54 119 C53.79600586 119.63260742 53.59201172 120.26521484 53.38183594 120.91699219 C48.9000631 134.57106867 42.334028 146.02972804 33 157 C32.15308594 158.04800781 32.15308594 158.04800781 31.2890625 159.1171875 C17.12645777 176.20540072 -5.94634432 188.5212803 -28 191 C-43.72942606 192.04832845 -60.02564878 192.51316613 -75 187 C-75.7307373 186.73155273 -76.46147461 186.46310547 -77.21435547 186.18652344 C-88.29079681 181.96358633 -97.73934887 176.35511741 -107 169 C-107.76699219 168.40445313 -108.53398438 167.80890625 -109.32421875 167.1953125 C-127.8064913 152.01733622 -139.51743106 128.37387132 -143 105 C-143.91065946 89.65947028 -143.83594173 74.66638066 -139 60 C-138.45666016 58.28876953 -138.45666016 58.28876953 -137.90234375 56.54296875 C-129.16059301 31.56230477 -109.21554326 11.0688791 -85.625 -0.3125 C-58.93513638 -12.71853938 -26.51617806 -13.00451902 0 0 Z " fill="#0471C0" transform="translate(143,9)"/>
<path d="M0 0 C1.05364746 0.61415771 2.10729492 1.22831543 3.19287109 1.86108398 C3.77362396 2.19583237 4.35437683 2.53058075 4.95272827 2.87547302 C6.79693954 3.94218998 8.63146257 5.02444891 10.46630859 6.10717773 C11.67275805 6.80674973 12.87978612 7.50532488 14.08740234 8.20288086 C17.08621184 9.94090906 20.07036512 11.70221551 23.04748535 13.47711182 C24.25969429 14.19853905 25.47386434 14.91667966 26.68981934 15.6317749 C28.48232736 16.68697754 30.26795864 17.75299086 32.05224609 18.82202148 C33.09429199 19.44197998 34.13633789 20.06193848 35.20996094 20.70068359 C38.51545937 23.01710869 40.54808053 24.92003577 41.27490234 28.94702148 C41.27619141 29.78362305 41.27748047 30.62022461 41.27880859 31.48217773 C41.29814453 32.31620117 41.31748047 33.15022461 41.33740234 34.00952148 C40.63068993 37.62098885 39.50038021 38.94891735 36.84130859 41.54467773 C33.47226685 43.77090495 29.9538006 45.68651336 26.40380859 47.60717773 C24.33550186 48.74541396 22.26780773 49.88476398 20.20068359 51.02514648 C19.14816406 51.60312988 18.09564453 52.18111328 17.01123047 52.77661133 C13.91105776 54.5057742 10.84905321 56.28722432 7.79443359 58.09545898 C6.8449585 58.65418701 5.8954834 59.21291504 4.91723633 59.78857422 C3.10422444 60.85869812 1.29622791 61.93737467 -0.50610352 63.02539062 C-1.7321228 63.74263306 -1.7321228 63.74263306 -2.98291016 64.47436523 C-4.05158325 65.11220947 -4.05158325 65.11220947 -5.1418457 65.76293945 C-7.61670165 66.72220452 -8.70450615 66.46035213 -11.15869141 65.54467773 C-12.76459856 64.7337478 -14.34810147 63.87722197 -15.90869141 62.98217773 C-16.70791016 62.52713867 -17.50712891 62.07209961 -18.33056641 61.60327148 C-18.93384766 61.25393555 -19.53712891 60.90459961 -20.15869141 60.54467773 C-21.50978986 47.43401866 -21.50978986 47.43401866 -18.71728516 43.52905273 C-16.28503281 41.92293544 -13.81039568 40.76074593 -11.15869141 39.54467773 C-9.02499626 38.36746662 -6.91499066 37.15281904 -4.80322266 35.93676758 C-1.60846981 34.10261191 1.61645231 32.32527323 4.84130859 30.54467773 C-2.26169887 24.5846919 -2.26169887 24.5846919 -11.15869141 23.54467773 C-13.90484507 24.67796033 -13.90484507 24.67796033 -16.52197266 26.35327148 C-17.49070313 26.9352832 -18.45943359 27.51729492 -19.45751953 28.11694336 C-20.45203125 28.7324707 -21.44654297 29.34799805 -22.47119141 29.98217773 C-23.48503906 30.59383789 -24.49888672 31.20549805 -25.54345703 31.83569336 C-30.0934755 34.36440486 -30.0934755 34.36440486 -34.15869141 37.54467773 C-34.54531524 41.72573829 -34.64380597 45.91186111 -34.72851562 50.10791016 C-34.76508222 51.51572414 -34.81956543 52.923195 -34.89257812 54.32958984 C-35.56250558 62.52239268 -35.56250558 62.52239268 -32.36352539 69.6862793 C-30.02999616 71.25437916 -27.72787038 72.41041255 -25.15869141 73.54467773 C-23.90392758 74.30502201 -22.65921888 75.08236466 -21.42822266 75.88061523 C-20.2777331 76.56343658 -19.1254205 77.24319683 -17.97119141 77.91967773 C-17.39433594 78.27416992 -16.81748047 78.62866211 -16.22314453 78.99389648 C-12.28818387 81.29187802 -9.67039871 81.96114302 -5.15869141 81.54467773 C-2.09100671 80.26596247 -2.09100671 80.26596247 0.95458984 78.39624023 C1.52233124 78.06772064 2.09007263 77.73920105 2.67501831 77.40072632 C4.50864506 76.33578671 6.33103276 75.2530654 8.15380859 74.16967773 C9.41069622 73.43543828 10.66826842 72.70236947 11.92651367 71.97045898 C15.01194508 70.17170252 18.0886821 68.35873604 21.16174316 66.53894043 C24.38009152 64.63375492 27.60485033 62.73943648 30.82836914 60.84301758 C32.26443666 59.99568516 33.69830609 59.14461311 35.12963867 58.28930664 C39.73733556 55.54467773 39.73733556 55.54467773 40.84130859 55.54467773 C40.98723648 59.25259318 41.07558754 62.959765 41.15380859 66.66967773 C41.19570312 67.71639648 41.23759766 68.76311523 41.28076172 69.84155273 C41.35482627 74.52243212 41.30296546 77.68047239 39.07177734 81.85717773 C34.7726644 86.02642876 29.07462091 88.63029233 23.84130859 91.41967773 C21.58754274 92.6480174 19.33492662 93.87846909 17.08349609 95.11108398 C16.00551758 95.69905762 14.92753906 96.28703125 13.81689453 96.89282227 C9.13455495 99.49215847 4.61045819 102.30662438 0.09912109 105.18920898 C-4.04174866 107.67516367 -7.39680695 107.86552961 -12.15869141 107.54467773 C-15.10205078 106.31054688 -15.10205078 106.31054688 -18.00244141 104.57983398 C-19.0773584 103.94867676 -20.15227539 103.31751953 -21.25976562 102.66723633 C-22.38141113 101.98741699 -23.50305664 101.30759766 -24.65869141 100.60717773 C-25.82349719 99.91406915 -26.98902908 99.2221794 -28.15527344 98.53149414 C-30.45071574 97.16917314 -32.73985804 95.79775304 -35.02685547 94.42114258 C-37.68892809 92.82614023 -40.36405018 91.2622322 -43.05712891 89.72045898 C-44.38277127 88.95374198 -45.7083044 88.18683608 -47.03369141 87.41967773 C-48.70044922 86.45674805 -48.70044922 86.45674805 -50.40087891 85.47436523 C-53.57242206 83.25518348 -55.15609314 81.8914498 -57.15869141 78.54467773 C-57.75996998 74.65070882 -57.71900385 70.79087281 -57.68994141 66.85717773 C-57.69376831 65.7219165 -57.69759521 64.58665527 -57.70153809 63.41699219 C-57.70425678 61.01976636 -57.69689872 58.62251084 -57.68017578 56.2253418 C-57.65876728 52.55767631 -57.67998076 48.89196984 -57.70556641 45.22436523 C-57.70292312 42.89363175 -57.69779814 40.56289948 -57.68994141 38.23217773 C-57.69803833 37.13623291 -57.70613525 36.04028809 -57.71447754 34.91113281 C-57.6217095 27.37291495 -57.6217095 27.37291495 -55.47460938 23.53222656 C-52.94869879 21.36445953 -50.47486408 19.69035567 -47.57275391 18.05639648 C-45.93802124 17.12561279 -45.93802124 17.12561279 -44.27026367 16.17602539 C-43.11969482 15.53455566 -41.96912598 14.89308594 -40.78369141 14.23217773 C-39.60209148 13.56433019 -38.42102133 12.89554449 -37.24047852 12.22583008 C-34.92835454 10.91578842 -32.61315722 9.61179506 -30.29589844 8.31079102 C-27.66622178 6.83039561 -25.0469803 5.3350966 -22.43603516 3.82202148 C-21.79005371 3.44795166 -21.14407227 3.07388184 -20.47851562 2.68847656 C-19.89859863 2.35227295 -19.31868164 2.01606934 -18.72119141 1.66967773 C-11.88958449 -2.280513 -7.51374074 -3.46184948 0 0 Z " fill="#FCFDFE" transform="translate(108.15869140625,47.455322265625)"/>
</svg>
