<?xml version="1.0" encoding="UTF-8"?>
<svg version="1.1" xmlns="http://www.w3.org/2000/svg" width="25" height="25">
<path d="M0 0 C0.61875 0.474375 1.2375 0.94875 1.875 1.4375 C0.05542813 12.46196483 0.05542813 12.46196483 -3.125 16.4375 C-3.785 16.4375 -4.445 16.4375 -5.125 16.4375 C-5.3725 17.05625 -5.62 17.675 -5.875 18.3125 C-7.34547178 20.81230203 -8.53903076 21.27066022 -11.125 22.4375 C-17.849755 17.65508929 -21.52784019 12.64966816 -23.125 4.4375 C-22.9609375 2.21875 -22.9609375 2.21875 -22.125 0.4375 C-15.47196863 -3.7604264 -6.8403051 -3.42015255 0 0 Z M-11.125 6.4375 C-10.125 8.4375 -10.125 8.4375 -10.125 8.4375 Z " fill="#60B2E5" transform="translate(23.125,2.5625)"/>
<path d="M0 0 C0.33 0.66 0.66 1.32 1 2 C0.01 2.66 -0.98 3.32 -2 4 C-2.70491267 6.32206525 -3.37212429 8.65593068 -4 11 C-6 13 -6 13 -8.9375 13.25 C-12 13 -12 13 -15 11 C-15.6875 7.375 -15.6875 7.375 -16 4 C-10.59316713 0.4469384 -6.40508852 -0.14895555 0 0 Z " fill="#F3B11C" transform="translate(16,0)"/>
<path d="M0 0 C2.4375 1.1875 2.4375 1.1875 3.4375 3.1875 C3.75 6.0625 3.75 6.0625 3.4375 9.1875 C1.4375 11.5625 1.4375 11.5625 -0.5625 13.1875 C-5.70650416 11.82585184 -8.6881048 8.4990928 -11.5625 4.1875 C-12.234375 1.9609375 -12.234375 1.9609375 -12.5625 0.1875 C-10.54427083 0.22005208 -8.52604167 0.25260417 -6.5078125 0.28515625 C-0.11310675 -0.03586312 -0.11310675 -0.03586312 0 0 Z " fill="#2CBFB1" transform="translate(14.5625,11.8125)"/>
<path d="M0 0 C0 0.66 0 1.32 0 2 C0.66 2 1.32 2 2 2 C1.67 3.65 1.34 5.3 1 7 C-0.65 7.33 -2.3 7.66 -4 8 C-4 7.34 -4 6.68 -4 6 C-4.99 5.67 -5.98 5.34 -7 5 C-7 3.68 -7 2.36 -7 1 C-4.53721199 -0.231394 -2.7204945 -0.07159196 0 0 Z " fill="#FEC63A" transform="translate(9,3)"/>
<path d="M0 0 C1.32 0.99 2.64 1.98 4 3 C3.34 5.31 2.68 7.62 2 10 C1.01 9.67 0.02 9.34 -1 9 C-1.33 6.36 -1.66 3.72 -2 1 C-1.34 0.67 -0.68 0.34 0 0 Z " fill="#78C4EE" transform="translate(19,3)"/>
<path d="M0 0 C1.65 0 3.3 0 5 0 C5.33 1.65 5.66 3.3 6 5 C5.34 5 4.68 5 4 5 C3.67 5.66 3.34 6.32 3 7 C0.03 6.505 0.03 6.505 -3 6 C-2.67 5.34 -2.34 4.68 -2 4 C-1.34 4 -0.68 4 0 4 C0 2.68 0 1.36 0 0 Z " fill="#22B5A6" transform="translate(12,13)"/>
<path d="M0 0 C0.99 0.66 1.98 1.32 3 2 C0.69 2.33 -1.62 2.66 -4 3 C-4.33 4.98 -4.66 6.96 -5 9 C-7.79872437 6.47211993 -9.45773019 4.79588866 -10 1 C-7.98177083 1.03255208 -5.96354167 1.06510417 -3.9453125 1.09765625 C-1.91814596 1.12649242 -1.91814596 1.12649242 0 0 Z " fill="#39B6A7" transform="translate(12,11)"/>
<path d="M0 0 C0.66 0 1.32 0 2 0 C2 1.98 2 3.96 2 6 C2.66 6 3.32 6 4 6 C4 7.98 4 9.96 4 12 C3.67 11.34 3.34 10.68 3 10 C0.98330173 8.86649466 0.98330173 8.86649466 -1 8 C-1.04241723 5.66705225 -1.04092937 3.33297433 -1 1 C-0.67 0.67 -0.34 0.34 0 0 Z " fill="#51AAE9" transform="translate(14,3)"/>
<path d="M0 0 C0.33 0.66 0.66 1.32 1 2 C-0.75 4.0625 -0.75 4.0625 -3 6 C-5.125 6 -5.125 6 -7 5 C-8.25 2.9375 -8.25 2.9375 -9 1 C-5.8035914 -0.06546953 -3.34252724 -0.07427838 0 0 Z " fill="#F8A80D" transform="translate(16,0)"/>
<path d="M0 0 C2.31 0.33 4.62 0.66 7 1 C7 2.32 7 3.64 7 5 C3.34683329 3.75023244 2.21934164 3.32901247 0 0 Z " fill="#41B6AF" transform="translate(7,20)"/>
<path d="M0 0 C1.32 0 2.64 0 4 0 C4.33 1.65 4.66 3.3 5 5 C2.525 4.01 2.525 4.01 0 3 C0 2.01 0 1.02 0 0 Z " fill="#26AB9C" transform="translate(13,13)"/>
<path d="M0 0 C0.33 0.66 0.66 1.32 1 2 C1.66 2 2.32 2 3 2 C2.67 3.65 2.34 5.3 2 7 C1.67 6.34 1.34 5.68 1 5 C0.34 5 -0.32 5 -1 5 C-1.33 4.01 -1.66 3.02 -2 2 C-1.34 1.34 -0.68 0.68 0 0 Z " fill="#FEC22C" transform="translate(8,3)"/>
<path d="M0 0 C1.9375 0.625 1.9375 0.625 4 2 C4.75 5.125 4.75 5.125 5 8 C2.20127563 5.47211993 0.54226981 3.79588866 0 0 Z " fill="#4ABAB0" transform="translate(2,12)"/>
<path d="M0 0 C0.99 0 1.98 0 3 0 C3 0.66 3 1.32 3 2 C3.66 2 4.32 2 5 2 C5 2.99 5 3.98 5 5 C3.68 5 2.36 5 1 5 C0.67 3.35 0.34 1.7 0 0 Z " fill="#FECC49" transform="translate(4,6)"/>
</svg>
