<svg xmlns="http://www.w3.org/2000/svg" width="56" height="56" fill="none" xmlns:v="https://vecta.io/nano"><g clip-path="url(#A)"><path d="M56 28c0 15.464-12.536 28-28 28S0 43.464 0 28 12.536 0 28 0s28 12.536 28 28z" fill="#7c9097"/><path d="M21.242 21.555h13.784l-2.009-5.393a1.17 1.17 0 0 0-.41-.553l-11.365 5.946zm-.038-6.401C21.692 13.842 22.767 13 23.951 13h8.15c1.185 0 2.259.842 2.747 2.154l2.01 5.393C37.46 22.165 36.487 24 35.026 24h-14c-1.46 0-2.433-1.835-1.831-3.453l2.009-5.393zM10.229 35.555h13.757l-2.009-5.393a1.17 1.17 0 0 0-.41-.553l-11.339 5.946h.001zm-.038-6.401C10.678 27.842 11.754 27 12.938 27h8.124c1.184 0 2.258.842 2.746 2.154l2.01 5.393C26.42 36.165 25.447 38 23.986 38H10.012c-1.46 0-2.433-1.835-1.831-3.453l2.01-5.393zm35.89 6.401h-13.85l11.43-5.945c.178.126.323.316.412.553l2.008 5.392zM34.938 27c-1.184 0-2.258.842-2.747 2.154l-2.009 5.393c-.603 1.618.371 3.453 1.832 3.453H46.08c1.46 0 2.433-1.835 1.831-3.453l-2.01-5.393C45.416 27.842 44.341 27 43.158 27h-8.22z" fill="#e2ebef"/></g><defs><clipPath id="A"><path fill="#fff" d="M0 0h56v56H0z"/></clipPath></defs></svg>