<svg xmlns="http://www.w3.org/2000/svg" width="256" height="256" fill="none"><circle cx="128" cy="128" r="128" fill="#02081C"/><path fill="url(#a)" d="M185.3 60h23.2L160 109a44.5 44.5 0 0 1-63.5 0L48.2 60h23.2l36.8 37.2a28.3 28.3 0 0 0 40 .3l.3-.3L185.3 60Zm-114 136H48l48.7-49.2a44.5 44.5 0 0 1 63.5 0l48.7 49.3h-23.2l-37-37.5a28.3 28.3 0 0 0-40-.3l-.3.3-37.2 37.5Z"/><defs><linearGradient id="a" x1="48.5" x2="205.3" y1="128.1" y2="150.3" gradientUnits="userSpaceOnUse"><stop stop-color="#9D62FF"/><stop offset=".3" stop-color="#FF7D6F"/><stop offset=".7" stop-color="#FFA756"/><stop offset="1" stop-color="#6EC5FF"/></linearGradient></defs></svg>