<?xml version="1.0" encoding="UTF-8"?>
<svg version="1.1" xmlns="http://www.w3.org/2000/svg" width="64" height="64">
<path d="M0 0 C21.12 0 42.24 0 64 0 C64 21.12 64 42.24 64 64 C42.88 64 21.76 64 0 64 C0 42.88 0 21.76 0 0 Z " fill="#010202" transform="translate(0,0)"/>
<path d="M0 0 C1.98 0 3.96 0 6 0 C8.04879101 4.36806847 10.09115996 8.73901403 12.12353516 13.11474609 C12.86483198 14.70925698 13.60974807 16.3020845 14.35546875 17.89453125 C14.89107422 19.06048828 14.89107422 19.06048828 15.4375 20.25 C15.74558594 20.91515625 16.05367187 21.5803125 16.37109375 22.265625 C17 24 17 24 17 27 C17.66 27 18.32 27 19 27 C19.12310547 26.2790918 19.24621094 25.55818359 19.37304688 24.81542969 C19.99999938 22.00000278 20.89026931 19.59830862 22.03125 16.953125 C22.42957031 16.02628906 22.82789062 15.09945313 23.23828125 14.14453125 C23.65464844 13.18933594 24.07101563 12.23414063 24.5 11.25 C25.12455078 9.79400391 25.12455078 9.79400391 25.76171875 8.30859375 C28.85956743 1.14043257 28.85956743 1.14043257 30 0 C31.66617115 -0.04063832 33.33388095 -0.042721 35 0 C34.31295792 4.73611845 32.51974498 8.79526259 30.62109375 13.14453125 C30.28956802 13.91431808 29.9580423 14.68410492 29.61647034 15.47721863 C28.56134757 17.9243 27.49953103 20.36841004 26.4375 22.8125 C25.71895676 24.47571959 25.00085284 26.13912905 24.28320312 27.80273438 C22.52721689 31.8707066 20.76522348 35.93602809 19 40 C18.34 40 17.68 40 17 40 C14.73806297 34.78625606 12.47776719 29.57180492 10.21899414 24.35668945 C9.45024034 22.58240503 8.68103721 20.80831523 7.91137695 19.03442383 C6.80562237 16.48569873 5.70148183 13.93627976 4.59765625 11.38671875 C4.25283707 10.59287277 3.90801788 9.79902679 3.55274963 8.98112488 C3.23249313 8.24058365 2.91223663 7.50004242 2.58227539 6.73706055 C2.30025772 6.08642136 2.01824005 5.43578217 1.72767639 4.76542664 C1.08378689 3.20327664 0.53431323 1.6029397 0 0 Z " fill="#36BCE1" transform="translate(14,15)"/>
<path d="M0 0 C3.96 0 7.92 0 12 0 C8.85714286 9.57142857 8.85714286 9.57142857 7 14 C6.34 14 5.68 14 5 14 C4.16235732 12.04350603 3.33000941 10.08474444 2.5 8.125 C2.0359375 7.03445312 1.571875 5.94390625 1.09375 4.8203125 C0 2 0 2 0 0 Z " fill="#37BDE2" transform="translate(26,15)"/>
</svg>
