<?xml version="1.0" encoding="UTF-8"?>
<svg version="1.1" xmlns="http://www.w3.org/2000/svg" width="25" height="25">
<path d="M0 0 C8.25 0 16.5 0 25 0 C25 8.25 25 16.5 25 25 C16.75 25 8.5 25 0 25 C0 16.75 0 8.5 0 0 Z " fill="#11151F" transform="translate(0,0)"/>
<path d="M0 0 C0.90105469 0.00902344 1.80210938 0.01804688 2.73046875 0.02734375 C3.41753906 0.03894531 4.10460937 0.05054688 4.8125 0.0625 C5.72795316 11.79386275 5.72795316 11.79386275 3.546875 14.81640625 C1.35685875 16.25692665 -0.54940565 17.0625 -3.1875 17.0625 C-3.5175 19.0425 -3.8475 21.0225 -4.1875 23.0625 C-7.77949301 22.06472417 -9.12141293 21.14466231 -11.5 18.1875 C-13.1875 15.0625 -13.1875 15.0625 -13.1875 11.0625 C-14.1775 10.7325 -15.1675 10.4025 -16.1875 10.0625 C-16.875 8 -16.875 8 -17.1875 6.0625 C-16.23875 5.959375 -15.29 5.85625 -14.3125 5.75 C-10.89642499 5.37710705 -10.89642499 5.37710705 -9.1875 2.0625 C-9.1875 3.0525 -9.1875 4.0425 -9.1875 5.0625 C-8.1975 5.0625 -7.2075 5.0625 -6.1875 5.0625 C-6.1875 4.0725 -6.1875 3.0825 -6.1875 2.0625 C-6.8475 1.7325 -7.5075 1.4025 -8.1875 1.0625 C-5.17259443 0.05753148 -3.14568308 -0.04085303 0 0 Z " fill="#0C1B25" transform="translate(20.1875,-0.0625)"/>
<path d="M0 0 C0.66 0 1.32 0 2 0 C1.46930939 3.82097239 0.50298434 6.06171403 -2 9 C-2.99 8.67 -3.98 8.34 -5 8 C-5 6.68 -5 5.36 -5 4 C-5.99 3.67 -6.98 3.34 -8 3 C-8.6875 0.9375 -8.6875 0.9375 -9 -1 C-5.21326759 -2.26224414 -3.6717132 -1.32806648 0 0 Z " fill="#19494D" transform="translate(12,7)"/>
<path d="M0 0 C0.99 0 1.98 0 3 0 C2.62123966 5.17639134 0.87068943 9.4736037 -3 13 C-4.32 13 -5.64 13 -7 13 C-7 12.34 -7 11.68 -7 11 C-6.401875 10.443125 -5.80375 9.88625 -5.1875 9.3125 C-2.42294358 6.38996893 -1.43825182 3.73945473 0 0 Z " fill="#4464AB" transform="translate(17,7)"/>
<path d="M0 0 C1.65 0 3.3 0 5 0 C5 3.3 5 6.6 5 10 C3.68 9.01 2.36 8.02 1 7 C1 6.34 1 5.68 1 5 C0.01 4.67 -0.98 4.34 -2 4 C-1.34 4 -0.68 4 0 4 C-0.33 3.01 -0.66 2.02 -1 1 C-0.67 0.67 -0.34 0.34 0 0 Z " fill="#10151F" transform="translate(20,0)"/>
<path d="M0 0 C0.99 0.33 1.98 0.66 3 1 C2.34 1 1.68 1 1 1 C0.9175 1.70125 0.835 2.4025 0.75 3.125 C-0.17027725 6.65272947 -1.88126977 9.06111614 -4 12 C-5.32 11.67 -6.64 11.34 -8 11 C-7.38125 10.278125 -6.7625 9.55625 -6.125 8.8125 C-4.15514232 6.20533543 -3.1696066 4.00755983 -2 1 C-1.34 0.67 -0.68 0.34 0 0 Z " fill="#072548" transform="translate(16,6)"/>
<path d="M0 0 C0.66 0.33 1.32 0.66 2 1 C1.690625 1.763125 1.38125 2.52625 1.0625 3.3125 C0.32106407 5.18789677 -0.36228217 7.08684652 -1 9 C-1.66 9 -2.32 9 -3 9 C-3.33 10.98 -3.66 12.96 -4 15 C-6.475 14.01 -6.475 14.01 -9 13 C-8.2575 12.34 -7.515 11.68 -6.75 11 C-3.53819246 7.82479426 -1.81524279 4.08683153 0 0 Z " fill="#0E2048" transform="translate(20,8)"/>
<path d="M0 0 C0.66 0 1.32 0 2 0 C1.4739075 3.78786597 0.61896089 6.17152224 -2 9 C-2.66 9 -3.32 9 -4 9 C-3.35494404 5.51669784 -2.01782732 2.90567134 0 0 Z " fill="#3DA5C9" transform="translate(12,7)"/>
<path d="M0 0 C0.99 0 1.98 0 3 0 C2.67 1.98 2.34 3.96 2 6 C1.01 6.33 0.02 6.66 -1 7 C-0.67 4.69 -0.34 2.38 0 0 Z " fill="#4D6DBB" transform="translate(17,7)"/>
<path d="M0 0 C1.32 0 2.64 0 4 0 C3.67 1.32 3.34 2.64 3 4 C1.35 4.33 -0.3 4.66 -2 5 C-1.34 4.67 -0.68 4.34 0 4 C-0.33 3.01 -0.66 2.02 -1 1 C-0.67 0.67 -0.34 0.34 0 0 Z " fill="#171428" transform="translate(20,0)"/>
</svg>
