<?xml version="1.0" encoding="UTF-8"?>
<svg version="1.1" xmlns="http://www.w3.org/2000/svg" width="128" height="128">
<path d="M0 0 C3.9553356 -0.08772446 7.90220877 -0.21112375 11.85306644 -0.4217186 C37.37574813 -1.74912454 37.37574813 -1.74912454 43.73056889 2.93155289 C48.59624073 8.51530884 51.07830228 15.10692775 52.69292545 22.2554512 C53.33836593 24.56748579 54.46987175 25.42920925 56.19852543 27.06656265 C58.21809496 30.12547523 60.00014255 33.3250136 61.82352543 36.50406265 C62.3262598 37.36322281 62.82899418 38.22238297 63.34696293 39.10757828 C63.82649418 39.93837906 64.30602543 40.76917984 64.80008793 41.6251564 C65.23659672 42.38111099 65.67310551 43.13706558 66.12284184 43.91592789 C67.15584185 45.98122455 67.6930243 47.82532967 68.19852543 50.06656265 C68.5465723 50.7110939 68.89461918 51.35562515 69.25321293 52.01968765 C70.375358 54.44945632 70.40177874 56.15595011 70.32352543 58.81656265 C70.30547855 59.6157814 70.28743168 60.41500015 70.26883793 61.23843765 C70.2456348 61.8417189 70.22243168 62.44500015 70.19852543 63.06656265 C68.71352543 63.56156265 68.71352543 63.56156265 67.19852543 64.06656265 C67.10571293 65.30406265 67.10571293 65.30406265 67.01102543 66.56656265 C65.98711087 70.97727152 64.06274731 74.55097567 61.19852543 78.06656265 C60.53852543 78.06656265 59.87852543 78.06656265 59.19852543 78.06656265 C59.15727543 78.85031265 59.11602543 79.63406265 59.07352543 80.44156265 C57.84108236 85.54739822 55.36647187 89.88203639 52.19852543 94.06656265 C50.71352543 94.56156265 50.71352543 94.56156265 49.19852543 95.06656265 C48.48190473 97.38504139 47.81610516 99.71975969 47.19852543 102.06656265 C46.04185321 103.22323487 44.86402874 104.36091974 43.63602543 105.44156265 C41.97869689 107.31506448 41.74117789 108.66338746 41.19852543 111.06656265 C39.19852543 113.06656265 39.19852543 113.06656265 36.51055241 113.31380081 C34.79871014 113.31166328 34.79871014 113.31166328 33.05228519 113.30948257 C31.11501308 113.31409752 31.11501308 113.31409752 29.13860416 113.31880569 C27.72237821 113.31190701 26.306154 113.30463997 24.88993168 113.2970314 C23.44266138 113.29583949 21.99539031 113.29538646 20.54811954 113.29564285 C17.51251232 113.29407736 14.47702293 113.28578382 11.44144535 113.2723732 C7.5496439 113.25539841 3.6579722 113.25155842 -0.23386192 113.25231838 C-3.22355037 113.25204644 -6.21321044 113.24656111 -9.20288944 113.23931694 C-10.63781742 113.23613366 -12.07274862 113.23416366 -13.50767994 113.23342323 C-15.51374497 113.23125524 -17.51979796 113.22171169 -19.52583981 113.21182632 C-20.66786358 113.20801453 -21.80988735 113.20420273 -22.98651791 113.20027542 C-25.80147457 113.06656265 -25.80147457 113.06656265 -28.80147457 112.06656265 C-30.18916988 110.16250992 -30.18916988 110.16250992 -31.62959957 107.6329689 C-32.17535641 106.68631363 -32.72111324 105.73965836 -33.28340816 104.76431656 C-33.86687008 103.72968277 -34.45033199 102.69504898 -35.05147457 101.62906265 C-36.29821335 99.43988625 -37.54563387 97.25109798 -38.79366207 95.0626564 C-39.44431637 93.91780777 -40.09497066 92.77295914 -40.76534176 91.59341812 C-42.46346235 88.63028709 -44.21613668 85.70406507 -45.99373531 82.78804398 C-47.05094305 81.05291343 -48.09885749 79.31249611 -49.14424801 77.57022476 C-50.47246676 75.36200525 -51.8162844 73.16307381 -53.17745113 70.97500992 C-56.93125387 64.65757367 -59.47404412 59.47061254 -57.80147457 52.06656265 C-56.51066995 48.7789706 -54.83442029 45.90597418 -52.92647457 42.94156265 C-52.46627926 42.17585953 -52.00608395 41.4101564 -51.53194332 40.62125015 C-49.05639937 36.60297592 -49.05639937 36.60297592 -47.80147457 35.06656265 C-47.14147457 35.06656265 -46.48147457 35.06656265 -45.80147457 35.06656265 C-45.69424068 34.18427994 -45.5870068 33.30199722 -45.4765234 32.39297867 C-44.78452753 28.98305329 -43.77772802 26.812131 -42.00069332 23.8439064 C-41.43543941 22.89322281 -40.87018551 21.94253922 -40.2878027 20.96304703 C-39.69418941 19.98658218 -39.10057613 19.01011734 -38.48897457 18.00406265 C-37.90696285 17.02373062 -37.32495113 16.04339859 -36.7253027 15.03335953 C-26.99165057 -1.20409186 -17.62088241 0.38252972 0 0 Z M-18.80147457 9.06656265 C-18.80147457 9.39656265 -18.80147457 9.72656265 -18.80147457 10.06656265 C-13.16013694 10.25885075 -7.51859522 10.43756965 -1.87642574 10.60367203 C0.04328812 10.66210586 1.96289247 10.72426007 3.88236332 10.79019547 C6.63989162 10.884275 9.39753573 10.96501028 12.15555668 11.04312515 C13.01502399 11.0753215 13.87449131 11.10751785 14.76000309 11.14068985 C15.96090832 11.17094757 15.96090832 11.17094757 17.18607426 11.20181656 C18.24197506 11.23512573 18.24197506 11.23512573 19.31920719 11.26910782 C21.53386691 11.1769195 21.53386691 11.1769195 24.19852543 9.06656265 C10.00852543 9.06656265 -4.18147457 9.06656265 -18.80147457 9.06656265 Z M-15.80147457 11.06656265 C-16.13147457 12.05656265 -16.46147457 13.04656265 -16.80147457 14.06656265 C-14.97616207 13.94281265 -14.97616207 13.94281265 -13.11397457 13.81656265 C-9.67066878 13.78044406 -9.08886912 13.81601356 -6.36397457 16.19156265 C-4.06740169 18.27901993 -4.06740169 18.27901993 -1.84834957 17.9923439 C0.55082142 17.46804954 2.85612009 16.80453048 5.19852543 16.06656265 C6.1240723 15.79714859 7.04961918 15.52773453 8.00321293 15.2501564 C10.40928818 14.54469241 12.80580287 13.81584947 15.19852543 13.06656265 C11.6118423 10.67544057 10.03455974 10.83275239 5.78055668 10.87125015 C4.5269434 10.87769547 3.27333012 10.88414078 1.98172855 10.8907814 C0.67139652 10.90753922 -0.63893551 10.92429703 -1.98897457 10.94156265 C-3.32425444 10.95159627 -4.65954147 10.96072145 -5.99483395 10.9689064 C-9.26389472 10.99250973 -12.53259485 11.02543671 -15.80147457 11.06656265 Z M19.92508793 14.7189064 C18.77137699 15.08306656 17.61766605 15.44722672 16.42899418 15.82242203 C14.64428715 16.40733414 14.64428715 16.40733414 12.82352543 17.00406265 C11.61051762 17.39013687 10.3975098 17.77621109 9.14774418 18.17398453 C6.16071834 19.12654001 3.17811294 20.09103821 0.19852543 21.06656265 C0.52852543 21.72656265 0.85852543 22.38656265 1.19852543 23.06656265 C0.91740479 25.07456721 0.58784576 27.07670316 0.19852543 29.06656265 C0.88366215 29.46448013 1.56879887 29.86239761 2.2746973 30.2723732 C5.41675719 32.09825793 8.55764785 33.92614494 11.69852543 35.75406265 C13.3150098 36.69282242 13.3150098 36.69282242 14.96415043 37.65054703 C16.02118168 38.26607437 17.07821293 38.88160172 18.16727543 39.5157814 C19.20110355 40.11696793 20.23493168 40.71815445 21.30008793 41.33755875 C23.84745589 42.85713926 26.31954419 44.44949454 28.79227543 46.0860939 C29.91633793 46.73964859 31.04040043 47.39320328 32.19852543 48.06656265 C33.18852543 47.73656265 34.17852543 47.40656265 35.19852543 47.06656265 C36.18852543 46.73656265 37.17852543 46.40656265 38.19852543 46.06656265 C38.85852543 45.40656265 39.51852543 44.74656265 40.19852543 44.06656265 C39.53852543 44.06656265 38.87852543 44.06656265 38.19852543 44.06656265 C38.22172855 43.25832047 38.24493168 42.45007828 38.26883793 41.6173439 C38.2868848 40.54871109 38.30493168 39.48007828 38.32352543 38.37906265 C38.34672855 37.32332047 38.36993168 36.26757828 38.39383793 35.1798439 C38.19476357 32.00659864 37.45484257 29.95514032 36.19852543 27.06656265 C35.6447284 24.11994449 35.19852543 21.06675205 35.19852543 18.06656265 C34.87302041 16.39834943 34.5400648 14.73156708 34.19852543 13.06656265 C33.53852543 13.39656265 32.87852543 13.72656265 32.19852543 14.06656265 C31.29666508 13.88810806 30.39480473 13.70965347 29.46561527 13.52579117 C25.7096986 12.9978522 23.51765034 13.56288384 19.92508793 14.7189064 Z M-22.80147457 15.06656265 C-21.80147457 17.06656265 -21.80147457 17.06656265 -21.80147457 17.06656265 Z M-20.80147457 15.06656265 C-19.80147457 17.06656265 -19.80147457 17.06656265 -19.80147457 17.06656265 Z M-24.80147457 18.06656265 C-23.80147457 20.06656265 -23.80147457 20.06656265 -23.80147457 20.06656265 Z M-15.80147457 18.06656265 C-16.13147457 18.72656265 -16.46147457 19.38656265 -16.80147457 20.06656265 C-16.47147457 20.72656265 -16.14147457 21.38656265 -15.80147457 22.06656265 C-16.79147457 22.39656265 -17.78147457 22.72656265 -18.80147457 23.06656265 C-18.14147457 23.06656265 -17.48147457 23.06656265 -16.80147457 23.06656265 C-16.80147457 23.72656265 -16.80147457 24.38656265 -16.80147457 25.06656265 C-17.79147457 25.56156265 -17.79147457 25.56156265 -18.80147457 26.06656265 C-17.81147457 26.06656265 -16.82147457 26.06656265 -15.80147457 26.06656265 C-16.13147457 27.05656265 -16.46147457 28.04656265 -16.80147457 29.06656265 C-15.63037273 30.45564905 -15.63037273 30.45564905 -12.36397457 30.31656265 C-11.18834957 30.23406265 -10.01272457 30.15156265 -8.80147457 30.06656265 C-6.3524961 26.39309494 -6.48609741 24.40299866 -6.80147457 20.06656265 C-8.75781433 17.65534406 -8.75781433 17.65534406 -12.42647457 17.94156265 C-14.09709957 18.00343765 -14.09709957 18.00343765 -15.80147457 18.06656265 Z M-25.80147457 20.06656265 C-26.6037345 21.28030122 -27.35584237 22.52724646 -28.08663082 23.78531265 C-28.53458004 24.55230484 -28.98252926 25.31929703 -29.4440527 26.1095314 C-29.91262691 26.92035172 -30.38120113 27.73117203 -30.86397457 28.56656265 C-31.33641598 29.37738297 -31.80885738 30.18820328 -32.2956152 31.0235939 C-33.46755574 33.03601706 -34.63599482 35.05039308 -35.80147457 37.06656265 C-34.31647457 38.05656265 -34.31647457 38.05656265 -32.80147457 39.06656265 C-31.81147457 38.30343765 -30.82147457 37.54031265 -29.80147457 36.75406265 C-29.24459957 36.32480484 -28.68772457 35.89554703 -28.11397457 35.4532814 C-26.45777252 34.02165128 -26.45777252 34.02165128 -26.80147457 31.06656265 C-25.48147457 30.73656265 -24.16147457 30.40656265 -22.80147457 30.06656265 C-23.46147457 26.76656265 -24.12147457 23.46656265 -24.80147457 20.06656265 C-25.13147457 20.06656265 -25.46147457 20.06656265 -25.80147457 20.06656265 Z M-23.80147457 21.06656265 C-23.80147457 23.04656265 -23.80147457 25.02656265 -23.80147457 27.06656265 C-23.47147457 27.06656265 -23.14147457 27.06656265 -22.80147457 27.06656265 C-22.80147457 25.08656265 -22.80147457 23.10656265 -22.80147457 21.06656265 C-23.13147457 21.06656265 -23.46147457 21.06656265 -23.80147457 21.06656265 Z M-6.80147457 23.06656265 C-5.80147457 25.06656265 -5.80147457 25.06656265 -5.80147457 25.06656265 Z M40.19852543 23.06656265 C40.52852543 23.72656265 40.85852543 24.38656265 41.19852543 25.06656265 C41.52852543 24.40656265 41.85852543 23.74656265 42.19852543 23.06656265 C41.53852543 23.06656265 40.87852543 23.06656265 40.19852543 23.06656265 Z M41.19852543 26.06656265 C42.19852543 30.06656265 42.19852543 30.06656265 42.19852543 30.06656265 Z M42.19852543 30.06656265 C43.19852543 34.06656265 43.19852543 34.06656265 43.19852543 34.06656265 Z M-9.80147457 35.06656265 C-9.47147457 35.39656265 -9.14147457 35.72656265 -8.80147457 36.06656265 C-8.71273322 39.16907466 -8.68629002 42.24924385 -8.70381832 45.3517189 C-8.70594074 46.74794731 -8.70594074 46.74794731 -8.70810604 48.17238235 C-8.71372285 51.15797456 -8.72627817 54.14349295 -8.73897457 57.12906265 C-8.74398741 59.14794178 -8.74855069 61.16682208 -8.75264645 63.18570328 C-8.76369774 68.14601837 -8.78097362 73.10627798 -8.80147457 78.06656265 C-9.79147457 78.56156265 -9.79147457 78.56156265 -10.80147457 79.06656265 C-8.11328189 81.30375145 -8.11328189 81.30375145 -4.80147457 83.06656265 C0.99663205 81.39001633 6.21901849 77.73351821 11.40946293 74.7267189 C13.19016802 73.69639827 14.9753387 72.67415682 16.76102543 71.65250015 C17.89540043 70.9976564 19.02977543 70.34281265 20.19852543 69.66812515 C21.22977543 69.07338394 22.26102543 68.47864273 23.32352543 67.86587906 C28.83245032 64.6919579 28.83245032 64.6919579 32.08670902 59.52676773 C32.24087192 56.38869021 32.15636839 54.07321366 31.19852543 51.06656265 C27.87830108 47.74710723 23.998512 45.83666147 19.82352543 43.75406265 C17.6905602 42.61242087 15.55774618 41.47049653 13.42508793 40.3282814 C12.38255863 39.78993668 11.34002934 39.25159195 10.26590824 38.69693375 C6.45331997 36.67047207 2.79328198 34.43878557 -0.86250973 32.14395523 C-4.94315177 29.87653225 -6.57536368 32.34983769 -9.80147457 35.06656265 Z M44.19852543 31.06656265 C42.43790379 34.3921813 42.09068315 35.6583026 43.07352543 39.37906265 C43.44477543 40.26593765 43.81602543 41.15281265 44.19852543 42.06656265 C44.85852543 42.06656265 45.51852543 42.06656265 46.19852543 42.06656265 C45.53852543 42.72656265 44.87852543 43.38656265 44.19852543 44.06656265 C47.16852543 44.56156265 47.16852543 44.56156265 50.19852543 45.06656265 C51.57084146 42.07915665 51.57084146 42.07915665 49.98368168 39.3673439 C49.41520512 38.38121109 48.84672855 37.39507828 48.26102543 36.37906265 C47.41217777 34.88826187 47.41217777 34.88826187 46.54618168 33.3673439 C46.10145512 32.60808609 45.65672855 31.84882828 45.19852543 31.06656265 C44.86852543 31.06656265 44.53852543 31.06656265 44.19852543 31.06656265 Z M-19.80147457 32.06656265 C-21.34314099 33.44141798 -21.34314099 33.44141798 -22.80147457 35.06656265 C-22.80147457 35.72656265 -22.80147457 36.38656265 -22.80147457 37.06656265 C-23.34288082 37.12585953 -23.88428707 37.1851564 -24.44209957 37.24625015 C-27.82952135 38.42399613 -30.01747458 40.75017668 -32.55147457 43.19156265 C-33.6145158 44.19367247 -34.67831996 45.19497357 -35.74288082 46.1954689 C-36.26124508 46.68547379 -36.77960934 47.17547867 -37.3136816 47.68033218 C-39.92670667 50.11498206 -42.65068874 52.41920985 -45.37569332 54.7267189 C-46.92722361 56.03011086 -46.92722361 56.03011086 -47.80147457 58.06656265 C-47.07702145 58.65824234 -46.35256832 59.24992203 -45.60616207 59.8595314 C-44.6393652 60.64972672 -43.67256832 61.43992203 -42.67647457 62.25406265 C-41.67487301 63.07261734 -40.67327145 63.89117203 -39.64131832 64.7345314 C-37.49419044 66.4977162 -35.36057421 68.27299089 -33.23897457 70.06656265 C-30.98338856 72.06794778 -30.98338856 72.06794778 -28.80147457 73.06656265 C-27.1348079 74.73322932 -25.46814124 76.39989599 -23.80147457 78.06656265 C-23.14147457 78.39656265 -22.48147457 78.72656265 -21.80147457 79.06656265 C-21.14147457 79.72656265 -20.48147457 80.38656265 -19.80147457 81.06656265 C-18.15147457 80.40656265 -16.50147457 79.74656265 -14.80147457 79.06656265 C-15.46147457 78.40656265 -16.12147457 77.74656265 -16.80147457 77.06656265 C-17.0419836 75.2315712 -17.0419836 75.2315712 -17.02852535 72.98404312 C-17.02837429 72.1433226 -17.02822323 71.30260208 -17.02806759 70.43640518 C-17.01774502 69.52802902 -17.00742245 68.61965286 -16.99678707 67.68375015 C-16.99395718 66.75434616 -16.99112728 65.82494217 -16.98821163 64.86737442 C-16.97699526 61.89197415 -16.95188817 58.9168723 -16.92647457 55.94156265 C-16.91644665 53.92724408 -16.90732047 51.91292079 -16.89913082 49.8985939 C-16.87705118 44.95446809 -16.8425115 40.010566 -16.80147457 35.06656265 C-16.14147457 34.73656265 -15.48147457 34.40656265 -14.80147457 34.06656265 C-16.45147457 33.40656265 -18.10147457 32.74656265 -19.80147457 32.06656265 Z M-15.80147457 36.06656265 C-15.80147457 49.59656265 -15.80147457 63.12656265 -15.80147457 77.06656265 C-15.47147457 77.06656265 -15.14147457 77.06656265 -14.80147457 77.06656265 C-14.80147457 63.53656265 -14.80147457 50.00656265 -14.80147457 36.06656265 C-15.13147457 36.06656265 -15.46147457 36.06656265 -15.80147457 36.06656265 Z M-10.80147457 37.06656265 C-10.80147457 50.26656265 -10.80147457 63.46656265 -10.80147457 77.06656265 C-10.47147457 77.06656265 -10.14147457 77.06656265 -9.80147457 77.06656265 C-9.80147457 63.86656265 -9.80147457 50.66656265 -9.80147457 37.06656265 C-10.13147457 37.06656265 -10.46147457 37.06656265 -10.80147457 37.06656265 Z M38.19852543 37.06656265 C39.19852543 41.06656265 39.19852543 41.06656265 39.19852543 41.06656265 Z M39.19852543 41.06656265 C40.19852543 43.06656265 40.19852543 43.06656265 40.19852543 43.06656265 Z M54.19852543 45.06656265 C55.19852543 47.06656265 55.19852543 47.06656265 55.19852543 47.06656265 Z M37.69852543 50.56656265 C35.42616858 54.35382406 35.64129095 56.67834114 36.19852543 61.06656265 C37.56227902 63.33970677 37.56227902 63.33970677 40.19852543 64.06656265 C43.05747595 64.08916305 45.35222908 63.66336673 48.19852543 63.06656265 C50.66879623 60.59629185 50.96724206 59.53581313 51.19852543 56.06656265 C50.3969809 53.58999559 49.35011339 51.41580209 48.19852543 49.06656265 C42.66684271 48.5844214 42.66684271 48.5844214 37.69852543 50.56656265 Z M51.19852543 53.06656265 C52.19852543 56.06656265 52.19852543 56.06656265 52.19852543 56.06656265 Z M51.19852543 58.06656265 C52.19852543 61.06656265 52.19852543 61.06656265 52.19852543 61.06656265 Z M41.19852543 64.06656265 C41.19852543 64.39656265 41.19852543 64.72656265 41.19852543 65.06656265 C43.50852543 65.06656265 45.81852543 65.06656265 48.19852543 65.06656265 C48.19852543 64.73656265 48.19852543 64.40656265 48.19852543 64.06656265 C45.88852543 64.06656265 43.57852543 64.06656265 41.19852543 64.06656265 Z M27.78836918 68.91812515 C26.17865238 69.82498062 26.17865238 69.82498062 24.53641605 70.7501564 C22.85322269 71.7111525 22.85322269 71.7111525 21.13602543 72.69156265 C20.04096684 73.30902359 18.94590824 73.92648453 17.81766605 74.5626564 C11.21665549 78.29759389 4.67944712 82.12705354 -1.80147457 86.06656265 C-1.14147457 86.39656265 -0.48147457 86.72656265 0.19852543 87.06656265 C0.88602543 89.00406265 0.88602543 89.00406265 1.19852543 91.06656265 C0.86852543 91.72656265 0.53852543 92.38656265 0.19852543 93.06656265 C4.42068075 94.6073746 8.65219366 96.12066203 12.88602543 97.62906265 C14.08420902 98.06669937 15.28239262 98.50433609 16.5168848 98.95523453 C17.6738184 99.36451187 18.83075199 99.77378922 20.02274418 100.1954689 C21.61735477 100.7689003 21.61735477 100.7689003 23.24417973 101.35391617 C26.37478071 102.1090789 28.16123934 102.0772915 31.19852543 101.06656265 C32.37260003 99.33737988 32.37260003 99.33737988 32.88602543 97.19156265 C33.75733441 94.29432667 34.4647268 92.6672606 36.19852543 90.06656265 C38.64246801 83.09680047 38.91020687 75.36129743 38.19852543 68.06656265 C37.53852543 67.40656265 36.87852543 66.74656265 36.19852543 66.06656265 C32.52900091 66.06656265 30.97054558 67.11555398 27.78836918 68.91812515 Z M-41.80147457 68.06656265 C-41.80147457 68.72656265 -41.80147457 69.38656265 -41.80147457 70.06656265 C-41.14147457 69.73656265 -40.48147457 69.40656265 -39.80147457 69.06656265 C-40.46147457 68.73656265 -41.12147457 68.40656265 -41.80147457 68.06656265 Z M44.19852543 70.06656265 C44.52852543 70.72656265 44.85852543 71.38656265 45.19852543 72.06656265 C44.20852543 72.56156265 44.20852543 72.56156265 43.19852543 73.06656265 C42.99712067 76.69184833 43.34075777 78.93157974 45.19852543 82.06656265 C46.18852543 81.73656265 47.17852543 81.40656265 48.19852543 81.06656265 C48.30165043 80.15906265 48.40477543 79.25156265 48.51102543 78.31656265 C49.21478248 74.98971114 50.13906471 73.663274 52.19852543 71.06656265 C52.19852543 70.07656265 52.19852543 69.08656265 52.19852543 68.06656265 C49.31456806 68.06656265 46.90374728 69.12561592 44.19852543 70.06656265 Z M38.19852543 72.06656265 C39.19852543 76.06656265 39.19852543 76.06656265 39.19852543 76.06656265 Z M-37.80147457 75.06656265 C-36.80147457 77.06656265 -36.80147457 77.06656265 -36.80147457 77.06656265 Z M-32.80147457 76.06656265 C-33.46147457 76.72656265 -34.12147457 77.38656265 -34.80147457 78.06656265 C-31.33647457 84.50156265 -31.33647457 84.50156265 -27.80147457 91.06656265 C-27.47147457 91.06656265 -27.14147457 91.06656265 -26.80147457 91.06656265 C-25.99078497 88.00092972 -25.48190198 85.23651658 -25.80147457 82.06656265 C-27.77630584 79.50755355 -30.08611075 77.79329027 -32.80147457 76.06656265 Z M42.19852543 79.06656265 C43.19852543 82.06656265 43.19852543 82.06656265 43.19852543 82.06656265 Z M-17.80147457 85.06656265 C-17.80147457 85.72656265 -17.80147457 86.38656265 -17.80147457 87.06656265 C-18.00772457 87.87093765 -18.21397457 88.67531265 -18.42647457 89.50406265 C-19.12791456 92.30201499 -19.12791456 92.30201499 -16.80147457 95.06656265 C-17.13147457 95.72656265 -17.46147457 96.38656265 -17.80147457 97.06656265 C-12.90768212 98.29233867 -12.90768212 98.29233867 -8.36397457 96.62906265 C-6.02949379 92.80051418 -6.23587483 90.52066065 -6.80147457 86.06656265 C-8.93348678 83.53973337 -10.16596865 83.14221812 -13.42647457 82.75406265 C-15.98654165 82.84575054 -15.98654165 82.84575054 -17.80147457 85.06656265 Z M41.19852543 83.06656265 C42.19852543 87.06656265 42.19852543 87.06656265 42.19852543 87.06656265 Z M43.19852543 86.06656265 C44.19852543 88.06656265 44.19852543 88.06656265 44.19852543 88.06656265 Z M-25.80147457 87.06656265 C-25.80147457 89.37656265 -25.80147457 91.68656265 -25.80147457 94.06656265 C-25.47147457 94.06656265 -25.14147457 94.06656265 -24.80147457 94.06656265 C-24.80147457 91.75656265 -24.80147457 89.44656265 -24.80147457 87.06656265 C-25.13147457 87.06656265 -25.46147457 87.06656265 -25.80147457 87.06656265 Z M-6.80147457 89.06656265 C-5.80147457 92.06656265 -5.80147457 92.06656265 -5.80147457 92.06656265 Z M40.19852543 89.06656265 C40.52852543 90.05656265 40.85852543 91.04656265 41.19852543 92.06656265 C41.19852543 91.07656265 41.19852543 90.08656265 41.19852543 89.06656265 C40.86852543 89.06656265 40.53852543 89.06656265 40.19852543 89.06656265 Z M33.19852543 95.06656265 C34.19852543 99.06656265 34.19852543 99.06656265 34.19852543 99.06656265 Z M-6.32491207 98.4298439 C-7.1421777 99.29996109 -7.95944332 100.17007828 -8.80147457 101.06656265 C-6.18331719 103.68472004 -4.29679119 103.32768753 -0.72920895 103.34000015 C0.0513184 103.33226578 0.83184574 103.3245314 1.63602543 103.31656265 C2.41268559 103.32429703 3.18934574 103.3320314 3.98954105 103.34000015 C7.89904711 103.32653071 9.87799575 103.28024911 13.19852543 101.06656265 C10.66631391 100.08916509 8.13089838 99.16101191 5.57352543 98.25406265 C4.86067387 97.97369156 4.1478223 97.69332047 3.41336918 97.40445328 C-0.74544538 95.97366845 -2.81164988 95.50212541 -6.32491207 98.4298439 Z M-21.80147457 99.06656265 C-20.80147457 101.06656265 -20.80147457 101.06656265 -20.80147457 101.06656265 Z M32.19852543 100.06656265 C33.19852543 102.06656265 33.19852543 102.06656265 33.19852543 102.06656265 Z M-17.80147457 102.06656265 C-17.80147457 102.39656265 -17.80147457 102.72656265 -17.80147457 103.06656265 C-14.83147457 103.06656265 -11.86147457 103.06656265 -8.80147457 103.06656265 C-8.80147457 102.73656265 -8.80147457 102.40656265 -8.80147457 102.06656265 C-11.77147457 102.06656265 -14.74147457 102.06656265 -17.80147457 102.06656265 Z M8.24930668 103.28531265 C7.47668995 103.3075087 6.70407322 103.32970474 5.90804386 103.35257339 C3.44235927 103.423501 0.97669237 103.49502446 -1.48897457 103.56656265 C-3.16149948 103.614779 -4.83402551 103.66295656 -6.5065527 103.7110939 C-10.6048731 103.82913341 -14.70317775 103.9477073 -18.80147457 104.06656265 C-18.80147457 104.39656265 -18.80147457 104.72656265 -18.80147457 105.06656265 C-5.27147457 105.06656265 8.25852543 105.06656265 22.19852543 105.06656265 C17.83322185 102.15636027 13.35579908 103.13640114 8.24930668 103.28531265 Z " fill="#8D90C0" transform="translate(57.80147457122803,6.933437347412109)"/>
<path d="M0 0 C0.66 0.66 1.32 1.32 2 2 C2.33 1.34 2.66 0.68 3 0 C3.99 0.33 4.98 0.66 6 1 C4.53967505 6.31027254 2.01679014 10.46330032 -1 15 C-0.01 15 0.98 15 2 15 C3.62831762 13.19038423 3.62831762 13.19038423 5 11 C7 8 7 8 10.125 7.3125 C11.07375 7.209375 12.0225 7.10625 13 7 C13.6875 8.6875 13.6875 8.6875 14 11 C12.8125 13.6875 12.8125 13.6875 11 16 C10.42121094 16.10699219 9.84242187 16.21398437 9.24609375 16.32421875 C5.86497451 17.34149463 3.7370857 19.72922339 1.25 22.125 C0.18817354 23.12441401 -0.87432856 24.12311065 -1.9375 25.12109375 C-2.45570312 25.61077637 -2.97390625 26.10045898 -3.5078125 26.60498047 C-6.5942361 29.49042296 -9.79981116 32.2421902 -13 35 C-9.36990079 38.73219575 -5.67105666 42.37840926 -1.8125 45.875 C-1.17957031 46.44992188 -0.54664062 47.02484375 0.10546875 47.6171875 C2.10650869 49.07774036 3.62254137 49.44389916 6 50 C6.4640625 50.9590625 6.4640625 50.9590625 6.9375 51.9375 C8.38875376 54.75463965 10.09933057 54.95873405 13 56 C13.33 56.66 13.66 57.32 14 58 C14.66 57.67 15.32 57.34 16 57 C21.47154281 56.45073315 24.62944106 56.56598941 29 60 C32.96451505 58.75076366 36.4474165 56.69953825 40.03515625 54.62890625 C41.17404297 53.97212891 42.31292969 53.31535156 43.48632812 52.63867188 C44.07357666 52.29763428 44.6608252 51.95659668 45.26586914 51.60522461 C47.05816113 50.56501818 48.85401332 49.53117871 50.65039062 48.49804688 C57.6064841 44.66257981 57.6064841 44.66257981 64 40 C64.48261667 37.49119384 64.48261667 37.49119384 64.25 34.8125 C64.21390625 33.91144531 64.1778125 33.01039062 64.140625 32.08203125 C64.09421875 31.39496094 64.0478125 30.70789063 64 30 C64.99 29.67 65.98 29.34 67 29 C67 27.68 67 26.36 67 25 C69.28050393 23.73305337 71.10336512 22.98076928 73.6875 22.5 C74.8321875 22.2525 74.8321875 22.2525 76 22 C76.33 21.34 76.66 20.68 77 20 C77.66 20 78.32 20 79 20 C79.33 19.34 79.66 18.68 80 18 C80.020625 18.598125 80.04125 19.19625 80.0625 19.8125 C80.89534614 22.411829 80.89534614 22.411829 84.4375 23.6875 C86.2009375 24.3371875 86.2009375 24.3371875 88 25 C88.66 25.33 89.32 25.66 90 26 C90.31241455 28.71446979 90.51336592 31.33909361 90.625 34.0625 C90.66367188 34.82111328 90.70234375 35.57972656 90.7421875 36.36132812 C90.83673562 38.24047195 90.91946756 40.12020336 91 42 C90.01 42.495 90.01 42.495 89 43 C88.505 43.99 88.505 43.99 88 45 C84.21609966 47.37554281 80.59887772 47.39769272 76.2421875 47.65625 C73.80137133 47.80410474 73.80137133 47.80410474 72 50 C71.01 47.525 71.01 47.525 70 45 C65.56096843 45.59746238 62.36063954 47.2763532 58.4921875 49.4921875 C57.58123825 50.01209763 57.58123825 50.01209763 56.65188599 50.54251099 C55.37422795 51.27383683 54.09852999 52.00859652 52.82470703 52.74658203 C50.87906321 53.87264836 48.92649359 54.98588006 46.97265625 56.09765625 C38.52794813 60.18105513 38.52794813 60.18105513 33.26171875 67.3046875 C32.97748047 68.57699219 32.97748047 68.57699219 32.6875 69.875 C31.1920912 75.14747226 29.80275613 77.28145879 25 80 C18.50013162 81.17210741 15.07407093 79.3063042 9.6875 75.703125 C8 74 8 74 8 70 C7.34 69.67 6.68 69.34 6 69 C6.14179688 68.40832031 6.28359375 67.81664063 6.4296875 67.20703125 C6.89652511 64.69675534 7.1919622 62.5509644 7 60 C5.23893579 57.62662731 3.5475733 56.61173005 1 55 C0.84699541 57.83034908 0.84699541 57.83034908 1.5625 59.75 C2.18708412 62.9621469 1.55335809 65.80281993 1 69 C0.34 69 -0.32 69 -1 69 C-1.66 70.98 -2.32 72.96 -3 75 C-6.93546212 70.51948562 -9.57837849 65.53716982 -12.375 60.3125 C-15.30743446 54.8603332 -18.23704058 49.52186667 -21.6875 44.375 C-23.92226569 40.57128376 -25.11025221 37.45770967 -24.8671875 33.00390625 C-22.85193176 26.023133 -18.59985308 18.63163249 -14 13 C-13.34 13 -12.68 13 -12 13 C-11.896875 12.071875 -11.79375 11.14375 -11.6875 10.1875 C-10.9929808 6.96745642 -10.52259061 5.97420135 -8 4 C-7.34 4.33 -6.68 4.66 -6 5 C-5.38125 4.360625 -4.7625 3.72125 -4.125 3.0625 C-2 1 -2 1 0 0 Z M71.5 28.5 C69.22764315 32.28726141 69.44276552 34.61177849 70 39 C71.36375359 41.27314412 71.36375359 41.27314412 74 42 C76.85895053 42.0226004 79.15370365 41.59680407 82 41 C84.4702708 38.5297292 84.76871663 37.46925048 85 34 C84.19845547 31.52343294 83.15158796 29.34923944 82 27 C76.46831728 26.51785874 76.46831728 26.51785874 71.5 28.5 Z M85 31 C86 34 86 34 86 34 Z M85 36 C86 39 86 39 86 39 Z M75 42 C75 42.33 75 42.66 75 43 C77.31 43 79.62 43 82 43 C82 42.67 82 42.34 82 42 C79.69 42 77.38 42 75 42 Z M-8 46 C-8 46.66 -8 47.32 -8 48 C-7.34 47.67 -6.68 47.34 -6 47 C-6.66 46.67 -7.32 46.34 -8 46 Z M-4 53 C-3 55 -3 55 -3 55 Z M16 63 C16 63.66 16 64.32 16 65 C15.79375 65.804375 15.5875 66.60875 15.375 67.4375 C14.67356001 70.23545234 14.67356001 70.23545234 17 73 C16.67 73.66 16.34 74.32 16 75 C20.89379245 76.22577602 20.89379245 76.22577602 25.4375 74.5625 C27.77198078 70.73395152 27.56559975 68.454098 27 64 C24.86798779 61.47317071 23.63550593 61.07565547 20.375 60.6875 C17.81493293 60.77918788 17.81493293 60.77918788 16 63 Z M27 67 C28 70 28 70 28 70 Z " fill="#8B8EBE" transform="translate(24,29)"/>
<path d="M0 0 C0.185625 0.598125 0.37125 1.19625 0.5625 1.8125 C2.68387904 5.04068549 5.46011502 5.67254313 9 7 C9.99 7.495 9.99 7.495 11 8 C11.31241455 10.71446979 11.51336592 13.33909361 11.625 16.0625 C11.66367188 16.82111328 11.70234375 17.57972656 11.7421875 18.36132812 C11.83673562 20.24047195 11.91946756 22.12020336 12 24 C11.34 24.33 10.68 24.66 10 25 C9.67 25.66 9.34 26.32 9 27 C5.21609966 29.37554281 1.59887772 29.39769272 -2.7578125 29.65625 C-5.19862867 29.80410474 -5.19862867 29.80410474 -7 32 C-7.99 29.525 -7.99 29.525 -9 27 C-13.43903157 27.59746238 -16.63936046 29.2763532 -20.5078125 31.4921875 C-21.41876175 32.01209763 -21.41876175 32.01209763 -22.34811401 32.54251099 C-23.62577205 33.27383683 -24.90147001 34.00859652 -26.17529297 34.74658203 C-28.12093679 35.87264836 -30.07350641 36.98588006 -32.02734375 38.09765625 C-40.47205187 42.18105513 -40.47205187 42.18105513 -45.73828125 49.3046875 C-45.92777344 50.15289062 -46.11726563 51.00109375 -46.3125 51.875 C-47.8079088 57.14747226 -49.19724387 59.28145879 -54 62 C-60.49986838 63.17210741 -63.92592907 61.3063042 -69.3125 57.703125 C-71 56 -71 56 -71 52 C-71.66 51.67 -72.32 51.34 -73 51 C-72.34 48.69 -71.68 46.38 -71 44 C-70.4225 43.9175 -69.845 43.835 -69.25 43.75 C-66.82895537 43.1654822 -66.82895537 43.1654822 -65.3125 40.9375 C-62.21285186 38.3404975 -60.0494879 38.50426761 -56.109375 38.65234375 C-53.4557705 39.08969708 -52.08272305 40.36357474 -50 42 C-46.03548495 40.75076366 -42.5525835 38.69953825 -38.96484375 36.62890625 C-37.82595703 35.97212891 -36.68707031 35.31535156 -35.51367188 34.63867188 C-34.92642334 34.29763428 -34.3391748 33.95659668 -33.73413086 33.60522461 C-31.94183887 32.56501818 -30.14598668 31.53117871 -28.34960938 30.49804688 C-21.3935159 26.66257981 -21.3935159 26.66257981 -15 22 C-14.51738333 19.49119384 -14.51738333 19.49119384 -14.75 16.8125 C-14.80414063 15.46091797 -14.80414063 15.46091797 -14.859375 14.08203125 C-14.90578125 13.39496094 -14.9521875 12.70789062 -15 12 C-14.01 11.67 -13.02 11.34 -12 11 C-12 9.68 -12 8.36 -12 7 C-9.71949607 5.73305337 -7.89663488 4.98076928 -5.3125 4.5 C-4.1678125 4.2525 -4.1678125 4.2525 -3 4 C-2.67 3.34 -2.34 2.68 -2 2 C-1.34 2 -0.68 2 0 2 C0 1.34 0 0.68 0 0 Z M-7.5 10.5 C-9.77235685 14.28726141 -9.55723448 16.61177849 -9 21 C-7.63624641 23.27314412 -7.63624641 23.27314412 -5 24 C-2.14104947 24.0226004 0.15370365 23.59680407 3 23 C5.4702708 20.5297292 5.76871663 19.46925048 6 16 C5.19845547 13.52343294 4.15158796 11.34923944 3 9 C-2.53168272 8.51785874 -2.53168272 8.51785874 -7.5 10.5 Z M6 13 C7 16 7 16 7 16 Z M6 18 C7 21 7 21 7 21 Z M-4 24 C-4 24.33 -4 24.66 -4 25 C-1.69 25 0.62 25 3 25 C3 24.67 3 24.34 3 24 C0.69 24 -1.62 24 -4 24 Z M-63 45 C-63 45.66 -63 46.32 -63 47 C-63.20625 47.804375 -63.4125 48.60875 -63.625 49.4375 C-64.32643999 52.23545234 -64.32643999 52.23545234 -62 55 C-62.33 55.66 -62.66 56.32 -63 57 C-58.10620755 58.22577602 -58.10620755 58.22577602 -53.5625 56.5625 C-51.22801922 52.73395152 -51.43440025 50.454098 -52 46 C-54.13201221 43.47317071 -55.36449407 43.07565547 -58.625 42.6875 C-61.18506707 42.77918788 -61.18506707 42.77918788 -63 45 Z M-52 49 C-51 52 -51 52 -51 52 Z " fill="#DF4F81" transform="translate(103,47)"/>
<path d="M0 0 C3.33761045 2.15090451 4.73470933 3.20412799 6 7 C6.51005145 11.93328449 6.76029306 15.758188 4.125 20.0625 C2 22 2 22 0 23 C0 36.86 0 50.72 0 65 C-6 66 -6 66 -9 64 C-9.28242493 62.16069031 -9.28242493 62.16069031 -9.15356445 59.9050293 C-9.11395096 59.06042648 -9.07433746 58.21582367 -9.03352356 57.34562683 C-8.9773436 56.43106216 -8.92116364 55.5164975 -8.86328125 54.57421875 C-8.77974004 52.64391719 -8.6970856 50.71357708 -8.61523438 48.78320312 C-8.46862013 45.73426542 -8.31244167 42.68647273 -8.1394043 39.63891602 C-7.97867452 36.701252 -7.85616756 33.76387016 -7.73828125 30.82421875 C-7.67602859 29.91572678 -7.61377594 29.0072348 -7.54963684 28.07121277 C-7.29841513 23.38606077 -7.29841513 23.38606077 -9.2852478 19.31582642 C-11.35766232 17.55150385 -13.56939309 16.21530345 -16 15 C-16.36597111 7.55858748 -16.36597111 7.55858748 -14.8125 5.1875 C-5.997307 -0.58797127 -5.997307 -0.58797127 0 0 Z M-7 5 C-7.33 5.66 -7.66 6.32 -8 7 C-7.67 7.66 -7.34 8.32 -7 9 C-7.99 9.33 -8.98 9.66 -10 10 C-9.34 10 -8.68 10 -8 10 C-8 10.66 -8 11.32 -8 12 C-8.99 12.495 -8.99 12.495 -10 13 C-9.01 13 -8.02 13 -7 13 C-7.33 13.99 -7.66 14.98 -8 16 C-6.82889816 17.38908639 -6.82889816 17.38908639 -3.5625 17.25 C-2.386875 17.1675 -1.21125 17.085 0 17 C2.44897847 13.32653229 2.31537716 11.33643601 2 7 C0.04366025 4.58878141 0.04366025 4.58878141 -3.625 4.875 C-5.295625 4.936875 -5.295625 4.936875 -7 5 Z M-15 8 C-15 9.98 -15 11.96 -15 14 C-14.67 14 -14.34 14 -14 14 C-14 12.02 -14 10.04 -14 8 C-14.33 8 -14.66 8 -15 8 Z M2 10 C3 12 3 12 3 12 Z M-7 23 C-7 36.53 -7 50.06 -7 64 C-6.67 64 -6.34 64 -6 64 C-6 50.47 -6 36.94 -6 23 C-6.33 23 -6.66 23 -7 23 Z M-2 24 C-2 37.2 -2 50.4 -2 64 C-1.67 64 -1.34 64 -1 64 C-1 50.8 -1 37.6 -1 24 C-1.33 24 -1.66 24 -2 24 Z " fill="#93A9C7" transform="translate(49,20)"/>
<path d="M0 0 C3.8171961 0.78199503 5.54728373 2.69387084 8.25 5.4609375 C9.24882698 6.46210914 10.24853694 7.4624027 11.25 8.4609375 C9.07572657 18.28331306 9.07572657 18.28331306 5.5625 21.5859375 C1.59327911 23.83266631 -1.36030112 24.59197703 -5.75 23.4609375 C-9.08180367 21.84944303 -12.13541658 20.09973003 -14.75 17.4609375 C-14.75 16.1409375 -14.75 14.8209375 -14.75 13.4609375 C-15.41 13.1309375 -16.07 12.8009375 -16.75 12.4609375 C-16.09 10.1509375 -15.43 7.8409375 -14.75 5.4609375 C-13.88375 5.3371875 -13.88375 5.3371875 -13 5.2109375 C-10.57895537 4.6264197 -10.57895537 4.6264197 -9.0625 2.3984375 C-5.99924206 -0.16807591 -3.91017604 -0.16721148 0 0 Z M-6.75 6.4609375 C-6.75 7.1209375 -6.75 7.7809375 -6.75 8.4609375 C-6.95625 9.2653125 -7.1625 10.0696875 -7.375 10.8984375 C-8.07643999 13.69638984 -8.07643999 13.69638984 -5.75 16.4609375 C-6.08 17.1209375 -6.41 17.7809375 -6.75 18.4609375 C-1.85620755 19.68671352 -1.85620755 19.68671352 2.6875 18.0234375 C5.02198078 14.19488902 4.81559975 11.9150355 4.25 7.4609375 C2.11798779 4.93410821 0.88550593 4.53659297 -2.375 4.1484375 C-4.93506707 4.24012538 -4.93506707 4.24012538 -6.75 6.4609375 Z M4.25 10.4609375 C5.25 13.4609375 5.25 13.4609375 5.25 13.4609375 Z " fill="#E58168" transform="translate(46.75,85.5390625)"/>
<path d="M0 0 C0.495 1.485 0.495 1.485 1 3 C0.20903931 3.42913696 0.20903931 3.42913696 -0.59790039 3.86694336 C-3.08793745 5.22045346 -5.57564046 6.57816013 -8.0625 7.9375 C-8.96540771 8.43096924 -9.86831543 8.92443848 -10.79858398 9.43286133 C-17.11238397 12.90570229 -23.32175601 16.51169275 -29.41625977 20.35717773 C-33.68309479 23 -33.68309479 23 -37 23 C-37.33 22.01 -37.66 21.02 -38 20 C-31.07906757 15.26080912 -23.97355511 10.88618584 -16.75 6.625 C-15.6878125 5.98433594 -14.625625 5.34367187 -13.53125 4.68359375 C-11.99210937 3.77673828 -11.99210937 3.77673828 -10.421875 2.8515625 C-9.49987305 2.30322754 -8.57787109 1.75489258 -7.62792969 1.18994141 C-4.83413195 -0.07510599 -3.02779329 -0.24969375 0 0 Z " fill="#8E8EB9" transform="translate(92,70)"/>
<path d="M0 0 C0.20625 0.598125 0.4125 1.19625 0.625 1.8125 C2.50926082 4.81018767 4.81132084 5.61361776 8 7 C7.01 7.33 6.02 7.66 5 8 C5 9.32 5 10.64 5 12 C5.99 12 6.98 12 8 12 C8 13.98 8 15.96 8 18 C4.39345961 15.59563974 4.14547068 14.05320393 3 10 C-2.14882994 9.57859444 -2.14882994 9.57859444 -6.9375 11 C-8.64300706 14.21036623 -8.70434404 17.39299727 -9 21 C-9.66 20.34 -10.32 19.68 -11 19 C-11.33 20.32 -11.66 21.64 -12 23 C-12.99 22.67 -13.98 22.34 -15 22 C-15 18.7 -15 15.4 -15 12 C-14.01 11.67 -13.02 11.34 -12 11 C-12 9.68 -12 8.36 -12 7 C-9.71949607 5.73305337 -7.89663488 4.98076928 -5.3125 4.5 C-4.1678125 4.2525 -4.1678125 4.2525 -3 4 C-2.67 3.34 -2.34 2.68 -2 2 C-1.34 2 -0.68 2 0 2 C0 1.34 0 0.68 0 0 Z " fill="#DA6188" transform="translate(103,47)"/>
<path d="M0 0 C3.3 0 6.6 0 10 0 C7 2 7 2 5 2 C5 16.19 5 30.38 5 45 C4.34 45 3.68 45 3 45 C1.6753068 41.0259204 1.78473011 37.1740812 1.71875 33.02734375 C1.70034058 32.14849014 1.68193115 31.26963654 1.66296387 30.364151 C1.58426664 26.60153388 1.51645466 22.83873856 1.44775391 19.07592773 C1.3960826 16.33047491 1.33881943 13.58517818 1.28125 10.83984375 C1.26767456 9.98462631 1.25409912 9.12940887 1.2401123 8.24827576 C1.26691057 3.98850274 1.26691057 3.98850274 0 0 Z " fill="#8B90C1" transform="translate(41,40)"/>
<path d="M0 0 C2.31 0 4.62 0 7 0 C7.33 0.99 7.66 1.98 8 3 C6.35 3.66 4.7 4.32 3 5 C2.97312721 6.81242052 2.95366285 8.62495233 2.9375 10.4375 C2.92589844 11.44683594 2.91429688 12.45617187 2.90234375 13.49609375 C2.71387324 15.94021067 2.71387324 15.94021067 4 17 C4.36162029 18.32594105 4.69728039 19.65938457 5 21 C3.35 22.32 1.7 23.64 0 25 C0.33 23.68 0.66 22.36 1 21 C0.34 20.67 -0.32 20.34 -1 20 C-1.6328125 17.453125 -1.6328125 17.453125 -2.125 14.25 C-2.37636719 12.67992188 -2.37636719 12.67992188 -2.6328125 11.078125 C-2.95898328 8.3438423 -3.07126854 5.74892942 -3 3 C-2.34 3 -1.68 3 -1 3 C-0.67 2.01 -0.34 1.02 0 0 Z " fill="#878BBD" transform="translate(98,76)"/>
<path d="M0 0 C0.66 0.33 1.32 0.66 2 1 C2.625 3.5625 2.625 3.5625 3 6 C3.226875 5.360625 3.45375 4.72125 3.6875 4.0625 C5 2 5 2 7.625 1.25 C8.40875 1.1675 9.1925 1.085 10 1 C9.649375 1.556875 9.29875 2.11375 8.9375 2.6875 C7.76270872 5.58531848 8.06895868 7.0517025 9 10 C11.16043943 12.16043943 12.09038239 12.4544467 15 13 C15.66 13 16.32 13 17 13 C17 13.66 17 14.32 17 15 C15.741875 15.020625 14.48375 15.04125 13.1875 15.0625 C12.47980469 15.07410156 11.77210937 15.08570312 11.04296875 15.09765625 C9 15 9 15 6 14 C5.67 14.66 5.34 15.32 5 16 C2.5 14.25 2.5 14.25 0 12 C0 10.68 0 9.36 0 8 C-0.66 7.67 -1.32 7.34 -2 7 C-1.34 4.69 -0.68 2.38 0 0 Z " fill="#DC7D6C" transform="translate(32,91)"/>
<path d="M0 0 C2.875 0.25 2.875 0.25 6 1 C8.014896 3.96544495 8.29650506 6.52761899 8.3125 10.0625 C8.33763672 11.34833984 8.33763672 11.34833984 8.36328125 12.66015625 C8 15 8 15 6.72265625 16.75390625 C3.81285104 18.85873133 0.4971554 19.14287989 -3 19 C-6 17.5625 -6 17.5625 -8 16 C-7.67 15.34 -7.34 14.68 -7 14 C-6.67 14.33 -6.34 14.66 -6 15 C-3.93227266 15.19941868 -3.93227266 15.19941868 -1.5625 15.1875 C-0.75941406 15.20167969 0.04367188 15.21585938 0.87109375 15.23046875 C3.21630633 15.20162356 3.21630633 15.20162356 5 13 C5.44949688 9.66088031 5.71658313 7.14603365 3.87890625 4.20703125 C2.65335768 2.74539967 1.33201246 1.36531278 0 0 Z " fill="#5CA2D8" transform="translate(47,22)"/>
<path d="M0 0 C21.45 0 42.9 0 65 0 C65 0.33 65 0.66 65 1 C43.55 1 22.1 1 0 1 C0 0.67 0 0.34 0 0 Z " fill="#ABABAE" transform="translate(32,121)"/>
<path d="M0 0 C21.45 0 42.9 0 65 0 C65 0.33 65 0.66 65 1 C43.55 1 22.1 1 0 1 C0 0.67 0 0.34 0 0 Z " fill="#ABABAC" transform="translate(32,6)"/>
<path d="M0 0 C0 0.33 0 0.66 0 1 C0.89307861 0.98952637 1.78615723 0.97905273 2.70629883 0.96826172 C6.02175477 0.93416408 9.33702421 0.90909363 12.65258789 0.89013672 C14.08718812 0.880083 15.52176789 0.86643806 16.95629883 0.84912109 C19.01909438 0.82484451 21.08161885 0.81351081 23.14453125 0.8046875 C24.38565674 0.79421387 25.62678223 0.78374023 26.90551758 0.77294922 C30 1 30 1 33 3 C21.12 3.33 9.24 3.66 -3 4 C-3 3.34 -3 2.68 -3 2 C-4.32 2 -5.64 2 -7 2 C-5.20949654 -1.58100692 -3.4370813 -1.03112439 0 0 Z " fill="#BBAEC4" transform="translate(41,108)"/>
<path d="M0 0 C0.99 0.33 1.98 0.66 3 1 C3.13913818 1.64549805 3.27827637 2.29099609 3.42163086 2.95605469 C3.61249268 3.63055664 3.80335449 4.30505859 4 5 C5.8855967 6.10432657 5.8855967 6.10432657 8.25390625 6.703125 C9.53491211 7.08984375 9.53491211 7.08984375 10.84179688 7.484375 C11.73962891 7.73703125 12.63746094 7.9896875 13.5625 8.25 C14.46419922 8.518125 15.36589844 8.78625 16.29492188 9.0625 C18.52596354 9.72354938 20.76044003 10.36853204 23 11 C23 11.33 23 11.66 23 12 C15.91296261 11.45484328 9.67203894 9.39081395 3 7 C3 7.66 3 8.32 3 9 C1.68 8.67 0.36 8.34 -1 8 C-0.67 5.36 -0.34 2.72 0 0 Z " fill="#928EB0" transform="translate(56,95)"/>
<path d="M0 0 C0.66 0 1.32 0 2 0 C3.01303762 1.72156096 4.00994848 3.45261806 5 5.1875 C5.556875 6.15042969 6.11375 7.11335938 6.6875 8.10546875 C8.02216758 11.04888743 8.27915461 12.81880057 8 16 C5.33264727 13.51047079 3.44253657 11.36591866 2 8 C1.01 8.495 1.01 8.495 0 9 C-0.87890625 2.84765625 -0.87890625 2.84765625 -1 1 C-0.67 0.67 -0.34 0.34 0 0 Z " fill="#8484AF" transform="translate(101,32)"/>
<path d="M0 0 C3.26954202 0.56371414 4.82575883 1.49962266 7 4 C6.34 6.31 5.68 8.62 5 11 C4.34 11 3.68 11 3 11 C2.67 11.99 2.34 12.98 2 14 C1.01879536 10.94736336 1.01879536 9.05263664 2 6 C1.34 5.67 0.68 5.34 0 5 C0 3.35 0 1.7 0 0 Z " fill="#EA7455" transform="translate(51,90)"/>
<path d="M0 0 C0.33 0.66 0.66 1.32 1 2 C1.66 2 2.32 2 3 2 C3 2.66 3 3.32 3 4 C3.66 4 4.32 4 5 4 C5.33 5.32 5.66 6.64 6 8 C5.01 8.495 5.01 8.495 4 9 C3.67 9.66 3.34 10.32 3 11 C1.68 10.34 0.36 9.68 -1 9 C-1 8.34 -1 7.68 -1 7 C-1.66 6.67 -2.32 6.34 -3 6 C-2.01 4.02 -1.02 2.04 0 0 Z M0 2 C1 5 1 5 1 5 Z " fill="#D85774" transform="translate(109,63)"/>
<path d="M0 0 C5.94 0.99 5.94 0.99 12 2 C12 1.34 12 0.68 12 0 C12.66 0 13.32 0 14 0 C14 1.32 14 2.64 14 4 C10.80969894 5.59515053 7.46326509 5.5201742 4 5 C1.5 3.0625 1.5 3.0625 0 1 C0 0.67 0 0.34 0 0 Z " fill="#EF7854" transform="translate(37,104)"/>
<path d="M0 0 C0.82757813 0.49113281 0.82757813 0.49113281 1.671875 0.9921875 C4.38780923 2.16787715 6.30551759 2.20248638 9.25 2.125 C10.58804688 2.09792969 10.58804688 2.09792969 11.953125 2.0703125 C12.62859375 2.04710938 13.3040625 2.02390625 14 2 C14.66 3.65 15.32 5.3 16 7 C14.35 7.33 12.7 7.66 11 8 C11.33 7.01 11.66 6.02 12 5 C10.7625 5.061875 9.525 5.12375 8.25 5.1875 C5.30742414 5.19271733 4.14353673 5.0789452 1.5 3.625 C0 2 0 2 0 0 Z M5 3 C5 3.33 5 3.66 5 4 C7.31 4 9.62 4 12 4 C12 3.67 12 3.34 12 3 C9.69 3 7.38 3 5 3 Z " fill="#DE6E8B" transform="translate(94,68)"/>
<path d="M0 0 C0.99 0.33 1.98 0.66 3 1 C2.9375 2.8125 2.9375 2.8125 2 5 C-1.5625 6.75 -1.5625 6.75 -5 8 C-4.67 6.68 -4.34 5.36 -4 4 C-4.66 3.67 -5.32 3.34 -6 3 C-4 2 -2 1 0 0 Z " fill="#8387B8" transform="translate(35,36)"/>
<path d="M0 0 C0.20625 0.598125 0.4125 1.19625 0.625 1.8125 C2.50926082 4.81018767 4.81132084 5.61361776 8 7 C7.01 7.495 7.01 7.495 6 8 C5.01 7.67 4.02 7.34 3 7 C1.10529184 6.9314505 -0.7916834 6.91519628 -2.6875 6.9375 C-3.68136719 6.94652344 -4.67523438 6.95554687 -5.69921875 6.96484375 C-6.45847656 6.97644531 -7.21773438 6.98804688 -8 7 C-7.67 6.34 -7.34 5.68 -7 5 C-5.66666667 4.66666667 -4.33333333 4.33333333 -3 4 C-2.67 3.34 -2.34 2.68 -2 2 C-1.34 2 -0.68 2 0 2 C0 1.34 0 0.68 0 0 Z " fill="#CB6A8C" transform="translate(103,47)"/>
<path d="M0 0 C0.99 0.33 1.98 0.66 3 1 C3.625 3.8125 3.625 3.8125 4 7 C3.01 8.485 3.01 8.485 2 10 C0.68 9.67 -0.64 9.34 -2 9 C-1.67 8.01 -1.34 7.02 -1 6 C-1 6.66 -1 7.32 -1 8 C-0.34 8 0.32 8 1 8 C0.67 5.36 0.34 2.72 0 0 Z " fill="#8A89B9" transform="translate(98,42)"/>
<path d="M0 0 C0.45375 0.495 0.9075 0.99 1.375 1.5 C2.87635519 3.22609337 2.87635519 3.22609337 5 3 C4.64950425 6.24208567 4.43778819 7.61527704 1.9375 9.8125 C1.298125 10.204375 0.65875 10.59625 0 11 C0.33 9.68 0.66 8.36 1 7 C0.34 6.67 -0.32 6.34 -1 6 C-0.67 4.02 -0.34 2.04 0 0 Z " fill="#8184B3" transform="translate(98,90)"/>
<path d="M0 0 C1.98 0 3.96 0 6 0 C6.33 0.99 6.66 1.98 7 3 C4.69 3.66 2.38 4.32 0 5 C0 3.35 0 1.7 0 0 Z M-1 5 C0 9 0 9 0 9 Z " fill="#957FAC" transform="translate(99,76)"/>
<path d="M0 0 C2.31 1.98 4.62 3.96 7 6 C6.01 6 5.02 6 4 6 C4 6.33 4 6.66 4 7 C3.01 7 2.02 7 1 7 C-0.6875 5 -0.6875 5 -2 3 C-1.34 3 -0.68 3 0 3 C0 2.01 0 1.02 0 0 Z " fill="#8F90B5" transform="translate(19,72)"/>
<path d="M0 0 C0.61875 0.86625 0.61875 0.86625 1.25 1.75 C2.97129751 4.07019284 2.97129751 4.07019284 5.1875 6.125 C7 8 7 8 7 10 C4.97954558 9.39816251 2.97888961 8.72693904 1 8 C-0.35439668 5.29120665 -0.06501451 2.99066732 0 0 Z " fill="#EC457F" transform="translate(91,64)"/>
<path d="M0 0 C1.485 0.99 1.485 0.99 3 2 C2.67 2.99 2.34 3.98 2 5 C3.65 4.67 5.3 4.34 7 4 C6.01 4.495 6.01 4.495 5 5 C5 6.65 5 8.3 5 10 C3.68 9.67 2.36 9.34 1 9 C0.67 6.03 0.34 3.06 0 0 Z " fill="#879BC4" transform="translate(54,25)"/>
<path d="M0 0 C0.99 0 1.98 0 3 0 C3 0.99 3 1.98 3 3 C2.01 3.495 2.01 3.495 1 4 C0.59270772 6.32156597 0.25561323 8.6568787 0 11 C-1.84651134 7.88401212 -2.38079379 5.61754103 -2 2 C-1.34 1.34 -0.68 0.68 0 0 Z " fill="#F2764C" transform="translate(36,90)"/>
<path d="M0 0 C0.99 0.33 1.98 0.66 3 1 C3.33 1.99 3.66 2.98 4 4 C3.34 4.66 2.68 5.32 2 6 C2.33 6.99 2.66 7.98 3 9 C1.68 8.67 0.36 8.34 -1 8 C-0.67 5.36 -0.34 2.72 0 0 Z " fill="#A090AE" transform="translate(56,95)"/>
<path d="M0 0 C3.58273331 1.65356922 6.80973467 3.67980703 10 6 C10 6.66 10 7.32 10 8 C8.35 8 6.7 8 5 8 C4.731875 7.4225 4.46375 6.845 4.1875 6.25 C2.98280141 3.9674132 1.59201885 2.0262058 0 0 Z " fill="#9899B9" transform="translate(26,83)"/>
<path d="M0 0 C0.66 0.66 1.32 1.32 2 2 C1.67 2.66 1.34 3.32 1 4 C0.34 4 -0.32 4 -1 4 C-1 3.34 -1 2.68 -1 2 C-1.66 2 -2.32 2 -3 2 C-3 4.31 -3 6.62 -3 9 C-3.33 9 -3.66 9 -4 9 C-4 6.36 -4 3.72 -4 1 C-2.125 0.375 -2.125 0.375 0 0 Z " fill="#6187C6" transform="translate(37,26)"/>
<path d="M0 0 C0.99 0.33 1.98 0.66 3 1 C1.63016497 4.16115776 1.0109362 4.9927092 -2 7 C-1.125 2.25 -1.125 2.25 0 0 Z " fill="#9697BC" transform="translate(27,29)"/>
<path d="M0 0 C1.32 0.66 2.64 1.32 4 2 C1.69 2.66 -0.62 3.32 -3 4 C-2.01 2.68 -1.02 1.36 0 0 Z " fill="#95719B" transform="translate(55,104)"/>
<path d="M0 0 C0.33 0 0.66 0 1 0 C1.33 2.97 1.66 5.94 2 9 C1.34 8.67 0.68 8.34 0 8 C0 5.36 0 2.72 0 0 Z " fill="#D5707B" transform="translate(95,60)"/>
<path d="M0 0 C2.64 0 5.28 0 8 0 C8 0.33 8 0.66 8 1 C5.36 1 2.72 1 0 1 C0 0.67 0 0.34 0 0 Z " fill="#DF796B" transform="translate(98,57)"/>
<path d="M0 0 C2.31 0 4.62 0 7 0 C7 0.33 7 0.66 7 1 C4.69 1 2.38 1 0 1 C0 0.67 0 0.34 0 0 Z " fill="#AFB7D3" transform="translate(42,35)"/>
<path d="M0 0 C2.31 0 4.62 0 7 0 C7 0.33 7 0.66 7 1 C4.69 1 2.38 1 0 1 C0 0.67 0 0.34 0 0 Z " fill="#656FBB" transform="translate(42,26)"/>
<path d="M0 0 C0.33 0 0.66 0 1 0 C1 1.98 1 3.96 1 6 C0.67 6 0.34 6 0 6 C0 4.02 0 2.04 0 0 Z " fill="#FB8255" transform="translate(87,61)"/>
<path d="M0 0 C1.98 0.99 1.98 0.99 4 2 C3.01 2 2.02 2 1 2 C0.67 1.34 0.34 0.68 0 0 Z " fill="#8A93C8" transform="translate(52,21)"/>
<path d="M0 0 C0.33 0 0.66 0 1 0 C1 1.65 1 3.3 1 5 C0.67 5 0.34 5 0 5 C0 3.35 0 1.7 0 0 Z " fill="#353E95" transform="translate(92,92)"/>
<path d="M0 0 C1.65 0 3.3 0 5 0 C5 0.33 5 0.66 5 1 C3.35 1 1.7 1 0 1 C0 0.67 0 0.34 0 0 Z " fill="#D66F74" transform="translate(42,91)"/>
<path d="M0 0 C0 3 0 3 0 3 Z " fill="#7B82E0" transform="translate(101,113)"/>
<path d="M0 0 C4 1 4 1 4 1 Z " fill="#DF6772" transform="translate(43,103)"/>
<path d="M0 0 C1 4 1 4 1 4 Z " fill="#C4C7CA" transform="translate(93,88)"/>
<path d="M0 0 C0.99 0.33 1.98 0.66 3 1 C2.01 1 1.02 1 0 1 C0 0.67 0 0.34 0 0 Z " fill="#DB5638" transform="translate(52,87)"/>
<path d="M0 0 C1 4 1 4 1 4 Z " fill="#A990AB" transform="translate(94,84)"/>
<path d="M0 0 C1 4 1 4 1 4 Z " fill="#A9B6D7" transform="translate(102,43)"/>
<path d="M0 0 C1 4 1 4 1 4 Z " fill="#818695" transform="translate(94,39)"/>
<path d="M0 0 C1 4 1 4 1 4 Z " fill="#555A99" transform="translate(92,30)"/>
<path d="M0 0 C4 1 4 1 4 1 Z " fill="#3E46C2" transform="translate(64,27)"/>
<path d="M0 0 C3 1 3 1 3 1 Z " fill="#9BA3B9" transform="translate(65,108)"/>
<path d="M0 0 C3 1 3 1 3 1 Z " fill="#636690" transform="translate(84,107)"/>
<path d="M0 0 C3 1 3 1 3 1 Z " fill="#525BD6" transform="translate(62,107)"/>
<path d="M0 0 C3 1 3 1 3 1 Z " fill="#8A8FBB" transform="translate(81,106)"/>
<path d="M0 0 C3 1 3 1 3 1 Z " fill="#B3B8E3" transform="translate(59,106)"/>
<path d="M0 0 C3 1 3 1 3 1 Z " fill="#5359AB" transform="translate(75,104)"/>
<path d="M0 0 C3 1 3 1 3 1 Z " fill="#636690" transform="translate(72,103)"/>
<path d="M0 0 C3 1 3 1 3 1 Z " fill="#9BA3B9" transform="translate(66,101)"/>
<path d="M0 0 C3 1 3 1 3 1 Z " fill="#9BA3B9" transform="translate(63,100)"/>
<path d="M0 0 C3 1 3 1 3 1 Z " fill="#CF97AA" transform="translate(91,74)"/>
<path d="M0 0 C3 1 3 1 3 1 Z " fill="#9B78A7" transform="translate(105,50)"/>
<path d="M0 0 C3 1 3 1 3 1 Z " fill="#5359AB" transform="translate(68,26)"/>
<path d="M0 0 C3 1 3 1 3 1 Z " fill="#4955BC" transform="translate(71,25)"/>
<path d="M0 0 C3 1 3 1 3 1 Z " fill="#9AA5E4" transform="translate(74,24)"/>
<path d="M0 0 C3 1 3 1 3 1 Z " fill="#A4A9D4" transform="translate(77,23)"/>
<path d="M0 0 C3 1 3 1 3 1 Z " fill="#5359AB" transform="translate(80,22)"/>
<path d="M0 0 C3 1 3 1 3 1 Z " fill="#A4A9D4" transform="translate(57,22)"/>
<path d="M0 0 C3 1 3 1 3 1 Z " fill="#5359AB" transform="translate(84,21)"/>
<path d="M0 0 C3 1 3 1 3 1 Z " fill="#B4B6B8" transform="translate(60,21)"/>
<path d="M0 0 C3 1 3 1 3 1 Z " fill="#3F4FA1" transform="translate(63,20)"/>
<path d="M0 0 C3 1 3 1 3 1 Z " fill="#6268BB" transform="translate(67,19)"/>
<path d="" fill="#3E46C2" transform="translate(0,0)"/>
<path d="" fill="#B9BCBE" transform="translate(0,0)"/>
<path d="" fill="#7E7E7E" transform="translate(0,0)"/>
<path d="M0 0 C2 1 2 1 2 1 Z " fill="#949495" transform="translate(79,105)"/>
<path d="" fill="#7C84FF" transform="translate(0,0)"/>
<path d="M0 0 C2 1 2 1 2 1 Z " fill="#CFD2D5" transform="translate(70,102)"/>
<path d="M0 0 C2 1 2 1 2 1 Z " fill="#E9B0B8" transform="translate(47,102)"/>
<path d="M0 0 C2 1 2 1 2 1 Z " fill="#7D81BE" transform="translate(61,99)"/>
<path d="M0 0 C2 1 2 1 2 1 Z " fill="#7E7E7E" transform="translate(59,92)"/>
<path d="M0 0 C2 1 2 1 2 1 Z " fill="#EF5739" transform="translate(47,92)"/>
<path d="M0 0 C2 1 2 1 2 1 Z " fill="#F4FAFF" transform="translate(61,91)"/>
<path d="M0 0 C2 1 2 1 2 1 Z " fill="#555A99" transform="translate(63,90)"/>
<path d="M0 0 C2 1 2 1 2 1 Z " fill="#7E7E7E" transform="translate(66,88)"/>
<path d="" fill="#B8BFFF" transform="translate(0,0)"/>
<path d="M0 0 C2 1 2 1 2 1 Z " fill="#B9BCBE" transform="translate(68,87)"/>
<path d="" fill="#7E7E7E" transform="translate(0,0)"/>
<path d="M0 0 C2 1 2 1 2 1 Z " fill="#B8BFFF" transform="translate(56,86)"/>
<path d="M0 0 C2 1 2 1 2 1 Z " fill="#B8BFFF" transform="translate(58,85)"/>
<path d="M0 0 C2 1 2 1 2 1 Z " fill="#FF6E42" transform="translate(49,85)"/>
<path d="M0 0 C2 1 2 1 2 1 Z " fill="#BE8A81" transform="translate(38,85)"/>
<path d="M0 0 C2 1 2 1 2 1 Z " fill="#7E7E7E" transform="translate(73,84)"/>
<path d="M0 0 C2 1 2 1 2 1 Z " fill="#555A99" transform="translate(75,83)"/>
<path d="M0 0 C2 1 2 1 2 1 Z " fill="#A9B6D7" transform="translate(63,82)"/>
<path d="M0 0 C2 1 2 1 2 1 Z " fill="#7E7E7E" transform="translate(65,81)"/>
<path d="M0 0 C2 1 2 1 2 1 Z " fill="#B9BCBE" transform="translate(80,80)"/>
<path d="M0 0 C2 1 2 1 2 1 Z " fill="#555A99" transform="translate(68,79)"/>
<path d="M0 0 C2 1 2 1 2 1 Z " fill="#B8BFFF" transform="translate(70,78)"/>
<path d="M0 0 C2 1 2 1 2 1 Z " fill="#E9B0B8" transform="translate(106,77)"/>
<path d="M0 0 C2 1 2 1 2 1 Z " fill="#949495" transform="translate(72,77)"/>
<path d="M0 0 C2 1 2 1 2 1 Z " fill="#A9B6D7" transform="translate(87,76)"/>
<path d="M0 0 C2 1 2 1 2 1 Z " fill="#555A99" transform="translate(89,75)"/>
<path d="M0 0 C2 1 2 1 2 1 Z " fill="#555A99" transform="translate(75,75)"/>
<path d="M0 0 C2 1 2 1 2 1 Z " fill="#B8BFFF" transform="translate(77,74)"/>
<path d="" fill="#7E7E7E" transform="translate(0,0)"/>
<path d="M0 0 C2 1 2 1 2 1 Z " fill="#555A99" transform="translate(82,71)"/>
<path d="M0 0 C2 1 2 1 2 1 Z " fill="#7A81C2" transform="translate(84,70)"/>
<path d="M0 0 C2 1 2 1 2 1 Z " fill="#A9B6D7" transform="translate(18,70)"/>
<path d="" fill="#949495" transform="translate(0,0)"/>
<path d="M0 0 C2 1 2 1 2 1 Z " fill="#B9BCBE" transform="translate(17,58)"/>
<path d="M0 0 C2 1 2 1 2 1 Z " fill="#7A81C2" transform="translate(84,57)"/>
<path d="" fill="#7D81BE" transform="translate(0,0)"/>
<path d="M0 0 C2 1 2 1 2 1 Z " fill="#2F3E9A" transform="translate(82,56)"/>
<path d="M0 0 C2 1 2 1 2 1 Z " fill="#3F4382" transform="translate(79,54)"/>
<path d="M0 0 C2 1 2 1 2 1 Z " fill="#A9B6D7" transform="translate(77,53)"/>
<path d="M0 0 C2 1 2 1 2 1 Z " fill="#555A99" transform="translate(75,52)"/>
<path d="M0 0 C2 1 2 1 2 1 Z " fill="#B9BCBE" transform="translate(87,51)"/>
<path d="M0 0 C2 1 2 1 2 1 Z " fill="#A9B6D7" transform="translate(25,51)"/>
<path d="M0 0 C2 1 2 1 2 1 Z " fill="#B9BCBE" transform="translate(85,50)"/>
<path d="M0 0 C2 1 2 1 2 1 Z " fill="#7E7E7E" transform="translate(72,50)"/>
<path d="M0 0 C2 1 2 1 2 1 Z " fill="#2F3E9A" transform="translate(70,49)"/>
<path d="M0 0 C2 1 2 1 2 1 Z " fill="#555A99" transform="translate(68,48)"/>
<path d="M0 0 C2 1 2 1 2 1 Z " fill="#B8BFFF" transform="translate(80,47)"/>
<path d="M0 0 C2 1 2 1 2 1 Z " fill="#B9BCBE" transform="translate(65,46)"/>
<path d="M0 0 C2 1 2 1 2 1 Z " fill="#3E46C2" transform="translate(63,45)"/>
<path d="M0 0 C2 1 2 1 2 1 Z " fill="#B8BFFF" transform="translate(73,43)"/>
<path d="M0 0 C2 1 2 1 2 1 Z " fill="#B9BCBE" transform="translate(58,42)"/>
<path d="M0 0 C2 1 2 1 2 1 Z " fill="#3E46C2" transform="translate(56,41)"/>
<path d="" fill="#B9BCBE" transform="translate(0,0)"/>
<path d="M0 0 C2 1 2 1 2 1 Z " fill="#2F3E9A" transform="translate(68,40)"/>
<path d="M0 0 C2 1 2 1 2 1 Z " fill="#7D81BE" transform="translate(66,39)"/>
<path d="M0 0 C2 1 2 1 2 1 Z " fill="#7D81BE" transform="translate(53,39)"/>
<path d="M0 0 C2 1 2 1 2 1 Z " fill="#555A99" transform="translate(63,37)"/>
<path d="M0 0 C2 1 2 1 2 1 Z " fill="#B8BFFF" transform="translate(61,36)"/>
<path d="M0 0 C2 1 2 1 2 1 Z " fill="#B9BCBE" transform="translate(59,35)"/>
<path d="" fill="#7E7E7E" transform="translate(0,0)"/>
<path d="M0 0 C2 1 2 1 2 1 Z " fill="#7D81BE" transform="translate(62,28)"/>
<path d="M0 0 C2 1 2 1 2 1 Z " fill="#7D81BE" transform="translate(49,19)"/>
<path d="" fill="#F4FAFF" transform="translate(0,0)"/>
<path d="" fill="#000986" transform="translate(0,0)"/>
<path d="" fill="#DF6772" transform="translate(0,0)"/>
<path d="" fill="#7C84FF" transform="translate(0,0)"/>
<path d="" fill="#DF6772" transform="translate(0,0)"/>
<path d="" fill="#7C84FF" transform="translate(0,0)"/>
<path d="" fill="#DF6772" transform="translate(0,0)"/>
<path d="" fill="#7C84FF" transform="translate(0,0)"/>
<path d="" fill="#F4FAFF" transform="translate(0,0)"/>
<path d="" fill="#7E7E7E" transform="translate(0,0)"/>
<path d="" fill="#ABABAC" transform="translate(0,0)"/>
<path d="" fill="#7E7E7E" transform="translate(0,0)"/>
<path d="" fill="#5F73AF" transform="translate(0,0)"/>
<path d="" fill="#DF6772" transform="translate(0,0)"/>
<path d="" fill="#DF6772" transform="translate(0,0)"/>
<path d="" fill="#ABABAC" transform="translate(0,0)"/>
<path d="" fill="#7C84FF" transform="translate(0,0)"/>
<path d="" fill="#ABABAC" transform="translate(0,0)"/>
<path d="" fill="#7E7E7E" transform="translate(0,0)"/>
<path d="" fill="#ABABAC" transform="translate(0,0)"/>
<path d="" fill="#ABABAC" transform="translate(0,0)"/>
<path d="" fill="#92646E" transform="translate(0,0)"/>
<path d="" fill="#ABABAC" transform="translate(0,0)"/>
<path d="" fill="#5F73AF" transform="translate(0,0)"/>
<path d="" fill="#7E7E7E" transform="translate(0,0)"/>
<path d="" fill="#F4FAFF" transform="translate(0,0)"/>
<path d="" fill="#7E7E7E" transform="translate(0,0)"/>
<path d="" fill="#ABABAC" transform="translate(0,0)"/>
<path d="" fill="#7C84FF" transform="translate(0,0)"/>
<path d="" fill="#7C84FF" transform="translate(0,0)"/>
<path d="" fill="#7E7E7E" transform="translate(0,0)"/>
<path d="" fill="#7E7E7E" transform="translate(0,0)"/>
<path d="" fill="#DF6772" transform="translate(0,0)"/>
<path d="" fill="#7C84FF" transform="translate(0,0)"/>
<path d="" fill="#92646E" transform="translate(0,0)"/>
<path d="" fill="#DF6772" transform="translate(0,0)"/>
<path d="" fill="#ABABAC" transform="translate(0,0)"/>
<path d="" fill="#ABABAC" transform="translate(0,0)"/>
<path d="" fill="#7E7E7E" transform="translate(0,0)"/>
<path d="" fill="#ABABAC" transform="translate(0,0)"/>
<path d="" fill="#ABABAC" transform="translate(0,0)"/>
<path d="" fill="#5F73AF" transform="translate(0,0)"/>
<path d="" fill="#7E7E7E" transform="translate(0,0)"/>
<path d="" fill="#DF6772" transform="translate(0,0)"/>
<path d="" fill="#7E7E7E" transform="translate(0,0)"/>
<path d="" fill="#9A98B5" transform="translate(0,0)"/>
<path d="" fill="#7C84FF" transform="translate(0,0)"/>
<path d="" fill="#ABABAC" transform="translate(0,0)"/>
<path d="" fill="#ABABAC" transform="translate(0,0)"/>
<path d="" fill="#7C84FF" transform="translate(0,0)"/>
<path d="" fill="#5F73AF" transform="translate(0,0)"/>
<path d="" fill="#7C84FF" transform="translate(0,0)"/>
<path d="" fill="#ABABAC" transform="translate(0,0)"/>
<path d="" fill="#DF6772" transform="translate(0,0)"/>
<path d="" fill="#7C84FF" transform="translate(0,0)"/>
<path d="" fill="#DF6772" transform="translate(0,0)"/>
<path d="" fill="#7C84FF" transform="translate(0,0)"/>
<path d="" fill="#7E7E7E" transform="translate(0,0)"/>
<path d="" fill="#7C84FF" transform="translate(0,0)"/>
<path d="" fill="#7C84FF" transform="translate(0,0)"/>
<path d="" fill="#ABABAC" transform="translate(0,0)"/>
<path d="" fill="#5F73AF" transform="translate(0,0)"/>
<path d="" fill="#5F73AF" transform="translate(0,0)"/>
<path d="" fill="#ABABAC" transform="translate(0,0)"/>
<path d="" fill="#ABABAC" transform="translate(0,0)"/>
<path d="" fill="#DF6772" transform="translate(0,0)"/>
<path d="" fill="#7E7E7E" transform="translate(0,0)"/>
<path d="" fill="#F4FAFF" transform="translate(0,0)"/>
<path d="" fill="#7C84FF" transform="translate(0,0)"/>
<path d="" fill="#7E7E7E" transform="translate(0,0)"/>
<path d="" fill="#ABABAC" transform="translate(0,0)"/>
<path d="" fill="#ABABAC" transform="translate(0,0)"/>
<path d="" fill="#7C84FF" transform="translate(0,0)"/>
<path d="" fill="#5F73AF" transform="translate(0,0)"/>
<path d="" fill="#7E7E7E" transform="translate(0,0)"/>
<path d="" fill="#ABABAC" transform="translate(0,0)"/>
<path d="" fill="#ABABAC" transform="translate(0,0)"/>
<path d="" fill="#5F73AF" transform="translate(0,0)"/>
<path d="" fill="#ABABAC" transform="translate(0,0)"/>
<path d="" fill="#ABABAC" transform="translate(0,0)"/>
<path d="" fill="#92646E" transform="translate(0,0)"/>
<path d="" fill="#7E7E7E" transform="translate(0,0)"/>
<path d="" fill="#ABABAC" transform="translate(0,0)"/>
<path d="" fill="#7E7E7E" transform="translate(0,0)"/>
<path d="" fill="#ABABAC" transform="translate(0,0)"/>
<path d="" fill="#ABABAC" transform="translate(0,0)"/>
<path d="" fill="#5F73AF" transform="translate(0,0)"/>
<path d="" fill="#7C84FF" transform="translate(0,0)"/>
<path d="" fill="#7E7E7E" transform="translate(0,0)"/>
<path d="" fill="#7C84FF" transform="translate(0,0)"/>
<path d="" fill="#ABABAC" transform="translate(0,0)"/>
<path d="" fill="#7C84FF" transform="translate(0,0)"/>
<path d="" fill="#9A98B5" transform="translate(0,0)"/>
<path d="" fill="#F4FAFF" transform="translate(0,0)"/>
<path d="" fill="#7C84FF" transform="translate(0,0)"/>
<path d="" fill="#ABABAC" transform="translate(0,0)"/>
<path d="" fill="#9A98B5" transform="translate(0,0)"/>
<path d="" fill="#9A98B5" transform="translate(0,0)"/>
<path d="" fill="#5F73AF" transform="translate(0,0)"/>
<path d="" fill="#9A98B5" transform="translate(0,0)"/>
<path d="" fill="#000986" transform="translate(0,0)"/>
</svg>
