<?xml version="1.0" encoding="UTF-8"?>
<svg version="1.1" xmlns="http://www.w3.org/2000/svg" width="200" height="200">
<path d="M0 0 C66 0 132 0 200 0 C200 66 200 132 200 200 C134 200 68 200 0 200 C0 134 0 68 0 0 Z " fill="#1D1F22" transform="translate(0,0)"/>
<path d="M0 0 C0.66399181 -0.01130322 1.32798363 -0.02260643 2.01209641 -0.03425217 C23.49566735 -0.35963529 40.2597658 0.67831405 56.5 16 C58.41517157 17.91517157 57.77721773 21.42467973 57.8515625 24.0390625 C57.87580292 24.77577682 57.90004333 25.51249115 57.92501831 26.27153015 C58.13686947 33.0910038 58.26131335 39.91251191 58.35931396 46.73448181 C58.42628353 51.31799841 58.5217456 55.89689637 58.68652344 60.47802734 C58.845171 64.90821194 58.92916372 69.33418685 58.96209717 73.76702881 C58.98718077 75.45158852 59.03828133 77.13597972 59.11651611 78.81890869 C59.35670284 84.23222326 59.30525542 88.84847236 57.5 94 C53.92103189 97.89449737 49.19962585 100.04496086 44.41919422 102.12836266 C41.41956996 103.49069717 38.66273069 105.18261586 35.83984375 106.87890625 C32.57603154 108.76061808 29.3088138 110.63626221 26.0402832 112.50976562 C18.93106119 116.58505329 18.93106119 116.58505329 11.890625 120.77734375 C11.24746338 121.16269287 10.60430176 121.54804199 9.94165039 121.94506836 C8.33404552 122.91186873 6.73492811 123.89274585 5.13671875 124.875 C1.93868166 126.23949582 0.803405 125.92067121 -2.5 125 C-4.8581543 123.83935547 -4.8581543 123.83935547 -7.32421875 122.3671875 C-8.25854736 121.81514648 -9.19287598 121.26310547 -10.15551758 120.69433594 C-11.15607178 120.09395508 -12.15662598 119.49357422 -13.1875 118.875 C-15.33026019 117.60597862 -17.47350767 116.33777976 -19.6171875 115.0703125 C-21.29506348 114.07499512 -21.29506348 114.07499512 -23.00683594 113.05957031 C-28.91049427 109.56879467 -34.8649243 106.16518613 -40.8125 102.75 C-42.99665299 101.49576503 -45.18028939 100.24062981 -47.36328125 98.984375 C-48.28407471 98.45553711 -49.20486816 97.92669922 -50.15356445 97.38183594 C-51.97062767 96.31175189 -53.74541946 95.16972036 -55.5 94 C-55.78666087 91.48611883 -55.87862623 89.21925087 -55.84057617 86.70458984 C-55.84101425 85.95327286 -55.84145233 85.20195587 -55.84190369 84.4278717 C-55.83980969 81.93863142 -55.81645062 79.45006045 -55.79296875 76.9609375 C-55.78737495 75.23744067 -55.78310383 73.51393909 -55.78010559 71.79043579 C-55.76863976 67.24962237 -55.7391578 62.70909588 -55.70599365 58.168396 C-55.6753301 53.53678265 -55.66160822 48.90512304 -55.64648438 44.2734375 C-55.61428963 35.18216545 -55.56307243 26.09110657 -55.5 17 C-51.83424729 14.88134239 -48.16805947 12.76344032 -44.50146484 10.64624023 C-43.25394874 9.92574531 -42.0065522 9.20504332 -40.75927734 8.48413086 C-38.96743592 7.44851209 -37.17516716 6.41363643 -35.3828125 5.37890625 C-33.76463623 4.44413452 -33.76463623 4.44413452 -32.11376953 3.49047852 C-23.04128969 -1.68302134 -10.23214212 0.16467309 0 0 Z " fill="#000000" transform="translate(98.5,36)"/>
<path d="M0 0 C-0.04298721 0.92104523 -0.08597443 1.84209045 -0.13026428 2.79104614 C-0.51529333 11.52767711 -0.77669876 20.25780981 -0.90415287 29.00213814 C-0.97391896 33.49786215 -1.08902769 37.98226199 -1.31323242 42.47314453 C-3.02818004 61.66062337 -3.02818004 61.66062337 3.34246826 78.92825317 C9.2466414 83.72451601 15.86041774 86.44641678 22.9992981 88.91601562 C26.86511295 90.31251652 30.03407299 92.14866841 33.515625 94.32421875 C34.4953125 94.89720703 35.475 95.47019531 36.484375 96.06054688 C37.85335937 96.86588867 37.85335937 96.86588867 39.25 97.6875 C40.24 98.26693359 41.23 98.84636719 42.25 99.44335938 C49.85333375 103.89747448 49.85333375 103.89747448 52.49121094 105.74145508 C54.89844149 107.20601558 54.89844149 107.20601558 57.4519043 106.8815918 C60.45670252 105.84198977 63.01661294 104.48952379 65.76953125 102.89453125 C66.90841797 102.23904297 68.04730469 101.58355469 69.22070312 100.90820312 C70.41805726 100.20978713 71.61532339 99.51122025 72.8125 98.8125 C74.51339737 97.83140268 76.21437268 96.85042263 77.91891479 95.87567139 C79.13515457 95.16580898 80.33968581 94.43558197 81.5329895 93.68780518 C85.65133561 91.15227815 89.67871999 89.33961231 94.23193359 87.69238281 C101.17728238 84.90317714 107.38258802 82.08056273 112 76 C116.40459272 65.02717225 114.65785684 51.33854285 114.11151123 39.8079834 C113.92487657 35.31751462 113.87688171 30.82565621 113.81640625 26.33203125 C113.67813581 17.54762511 113.38847596 8.77688876 113 0 C120.45349858 2.20217004 120.45349858 2.20217004 123 5 C123.42989056 7.54454562 123.59781682 9.6709703 123.59692383 12.22192383 C123.61196457 12.95399551 123.62700531 13.6860672 123.64250183 14.44032288 C123.68562804 16.86280509 123.6982803 19.28419572 123.70703125 21.70703125 C123.72242454 23.39231273 123.73827466 25.07759009 123.75456238 26.76286316 C123.78304066 30.29781159 123.7944335 33.83237449 123.79614258 37.36743164 C123.80132057 41.89127305 123.86625346 46.41209025 123.94643116 50.93513966 C123.998498 54.41745727 124.00970394 57.89904849 124.00964928 61.38171959 C124.01620508 63.04874589 124.03745574 64.71578303 124.07383156 66.38242531 C124.33325887 79.38318123 124.33325887 79.38318123 121.12107849 83.27853394 C118.80378273 84.85582434 116.59489723 85.9540086 114 87 C113.03118896 87.57556641 112.06237793 88.15113281 111.06420898 88.74414062 C110.21673096 89.21013672 109.36925293 89.67613281 108.49609375 90.15625 C107.03115479 90.96763428 107.03115479 90.96763428 105.53662109 91.79541016 C104.51391113 92.3579248 103.49120117 92.92043945 102.4375 93.5 C91.55647613 99.53560609 80.78614188 105.74203977 70.0546875 112.0390625 C69.18038086 112.54727539 68.30607422 113.05548828 67.40527344 113.57910156 C65.90322566 114.46642577 64.41407064 115.37641016 62.94628906 116.31933594 C60.39580396 117.92489172 58.5669261 118.99822001 55.51171875 119.0078125 C52.06775579 117.62594245 48.96425699 115.81094907 45.8125 113.875 C44.29639378 112.96347705 42.77940696 112.05341775 41.26171875 111.14453125 C40.42817871 110.6438916 39.59463867 110.14325195 38.73583984 109.62744141 C33.56409623 106.55097854 28.34145484 103.56229727 23.125 100.5625 C19.96480522 98.74310811 16.82173157 96.92687792 13.72680664 94.99780273 C10.89251505 93.33286446 8.14030124 92.39582038 4.98999023 91.47290039 C-0.85918935 89.46606065 -5.56999895 87.33906389 -9 82 C-12.09103974 70.09760634 -10.87239687 57.25232335 -10.30462646 45.08685303 C-10.10912383 40.45601803 -10.02325461 35.82323766 -9.92773438 31.18945312 C-9.72483483 22.12113526 -9.40127681 13.06155732 -9 4 C-2.25 0 -2.25 0 0 0 Z " fill="#9ECFEF" transform="translate(43,54)"/>
<path d="M0 0 C1.85271515 -0.04713135 1.85271515 -0.04713135 3.74285889 -0.09521484 C23.56181914 -0.48615629 36.66210155 4.44986853 52.75 15.875 C53.74 16.535 54.73 17.195 55.75 17.875 C56.04296875 20.4765625 56.04296875 20.4765625 55.9375 23.5 C55.89689453 25.00433594 55.89689453 25.00433594 55.85546875 26.5390625 C55.82066406 27.30992188 55.78585938 28.08078125 55.75 28.875 C54.05814599 28.07160564 52.37190364 27.25639979 50.6875 26.4375 C49.06932373 25.65451538 49.06932373 25.65451538 47.41845703 24.85571289 C44.93983928 23.5885201 43.03490099 22.32775381 40.78881836 20.60888672 C29.48454446 12.24563928 17.90719362 12.33168598 4.21142578 12.42700195 C0.41192302 12.43739896 -3.37065209 12.3256396 -7.16796875 12.20507812 C-25.2895186 11.98501831 -37.19187927 16.39270936 -52.08462524 26.49913025 C-54.25 27.875 -54.25 27.875 -57.25 28.875 C-57.25 25.245 -57.25 21.615 -57.25 17.875 C-39.662213 2.80936218 -22.85392669 0.16551611 0 0 Z " fill="#E5FB95" transform="translate(100.25,24.125)"/>
<path d="M0 0 C2.475 0.99 2.475 0.99 5 2 C5.93328125 2.31839844 6.8665625 2.63679688 7.828125 2.96484375 C10 5 10 5 10.21289062 7.14111328 C10.14099628 8.95576724 10.04519467 10.76956869 9.93066406 12.58203125 C9.2575895 21.30955818 9.2575895 21.30955818 12.61328125 29.04248047 C17.0228841 32.71960866 22.35426264 35.76631224 28 37 C30.66019651 36.50688176 30.66019651 36.50688176 33 35 C34.16015625 34.61328125 35.3203125 34.2265625 36.515625 33.828125 C40.59297799 32.21751141 44.34161728 30.60979344 47 27 C48.16568426 22.32327476 48.01198361 17.63794237 47.65332031 12.85839844 C47.49497234 10.06859514 47.38970319 7.73042474 48 5 C50.35816076 2.59251909 52.87139039 1.21124846 56 0 C56.33 0 56.66 0 57 0 C57 10.89 57 21.78 57 33 C50.6578125 36.6815625 50.6578125 36.6815625 44.1875 40.4375 C42.1923938 41.5985022 42.1923938 41.5985022 40.15698242 42.78295898 C39.10873291 43.38954346 38.0604834 43.99612793 36.98046875 44.62109375 C35.90692139 45.2442749 34.83337402 45.86745605 33.72729492 46.50952148 C31 48 31 48 28 49 C25.75114601 47.95299937 23.70510623 46.86087643 21.58203125 45.59765625 C19.88784058 44.61937866 19.88784058 44.61937866 18.15942383 43.62133789 C16.72493896 42.77692139 15.2904541 41.93250488 13.8125 41.0625 C6.9753125 37.0715625 6.9753125 37.0715625 0 33 C0 22.11 0 11.22 0 0 Z " fill="#82F2E3" transform="translate(71,59)"/>
<path d="M0 0 C0.66 0 1.32 0 2 0 C2 3.63 2 7.26 2 11 C-1.64583448 13.12144111 -5.29374082 15.23926011 -8.94360352 17.35375977 C-10.18473847 18.07347212 -11.42530363 18.79416802 -12.6652832 19.51586914 C-14.44853922 20.55354275 -16.23381997 21.58765249 -18.01953125 22.62109375 C-19.09307861 23.2442749 -20.16662598 23.86745605 -21.27270508 24.50952148 C-24 26 -24 26 -27 27 C-27 23.37 -27 19.74 -27 16 C-26.21761963 15.55084229 -25.43523926 15.10168457 -24.62915039 14.63891602 C-21.73421244 12.97595821 -18.84009701 11.31158703 -15.9465332 9.64624023 C-14.69263 8.92496561 -13.43839908 8.2042604 -12.18383789 7.48413086 C-10.38341747 6.450543 -8.58417519 5.41493106 -6.78515625 4.37890625 C-5.70113525 3.7557251 -4.61711426 3.13254395 -3.50024414 2.49047852 C-1.14058329 1.22234919 -1.14058329 1.22234919 0 0 Z " fill="#84D1F7" transform="translate(117,108)"/>
</svg>
