<?xml version="1.0" standalone="no"?>
<!DOCTYPE svg PUBLIC "-//W3C//DTD SVG 20010904//EN"
 "http://www.w3.org/TR/2001/REC-SVG-20010904/DTD/svg10.dtd">
<svg version="1.0" xmlns="http://www.w3.org/2000/svg"
 width="200.000000pt" height="200.000000pt" viewBox="0 0 200.000000 200.000000"
 preserveAspectRatio="xMidYMid meet">

<g transform="translate(0.000000,200.000000) scale(0.100000,-0.100000)"
fill="#000000" stroke="none">
<path d="M958 1993 c7 -3 16 -2 19 1 4 3 -2 6 -13 5 -11 0 -14 -3 -6 -6z"/>
<path d="M800 1911 c-347 -74 -615 -336 -706 -689 -50 -191 -29 -421 54 -605
114 -251 344 -444 617 -519 105 -28 334 -31 439 -5 281 70 501 246 626 502
112 228 128 467 46 708 -109 320 -387 557 -720 616 -90 16 -259 12 -356 -8z
m452 -361 l265 -130 6 -58 c8 -77 -9 -326 -28 -410 -70 -306 -222 -520 -443
-625 -61 -28 -66 -29 -105 -16 -66 22 -177 100 -244 173 -143 153 -234 374
-262 638 -12 105 -14 240 -5 274 4 16 71 53 272 152 147 72 270 131 273 131 3
1 125 -57 271 -129z"/>
<path d="M733 1492 l-242 -117 -1 -110 c0 -268 70 -506 203 -680 62 -81 170
-167 245 -195 l53 -20 62 31 c270 137 417 433 417 839 l0 137 -236 116 c-129
65 -241 117 -247 116 -7 0 -121 -53 -254 -117z m281 53 c8 -9 18 -15 21 -14
10 2 65 -23 65 -31 0 -3 6 -7 13 -7 6 0 78 -33 159 -72 l147 -72 7 -46 c16
-109 -16 -359 -62 -481 -66 -176 -242 -366 -359 -388 -52 -9 -144 44 -240 141
-65 64 -90 99 -128 175 -71 143 -107 311 -107 507 0 68 3 85 18 93 37 23 428
209 439 209 6 1 18 -6 27 -14z"/>
<path d="M830 1415 l-85 -44 81 0 c78 -1 81 -2 113 -35 18 -18 44 -58 58 -87
l25 -54 18 35 c26 48 25 72 -5 100 -14 13 -25 27 -25 32 0 4 45 8 99 8 65 0
102 4 107 12 4 7 3 8 -4 4 -7 -4 -12 -2 -12 4 0 6 -4 8 -10 5 -5 -3 -10 -1
-10 5 0 6 -4 9 -9 6 -14 -9 -42 5 -34 17 3 6 1 7 -5 3 -6 -4 -30 3 -53 14
l-41 22 -27 -26 -27 -26 -24 25 c-13 14 -28 25 -34 24 -6 0 -49 -20 -96 -44z"/>
<path d="M1291 1322 l22 -37 -92 -182 -91 -183 0 -117 c0 -145 8 -161 47 -104
25 36 32 41 63 39 29 -2 34 1 32 16 -2 12 1 16 9 10 7 -4 10 -3 6 4 -10 15 3
43 16 35 6 -4 8 0 4 10 -8 22 2 49 15 41 6 -4 7 2 3 16 -5 16 -4 20 5 15 9 -5
10 -1 5 15 -5 17 -4 20 5 15 10 -6 11 -1 6 19 -5 20 -3 26 5 21 8 -6 9 2 4 25
-5 24 -4 31 5 25 9 -6 11 3 6 36 -5 33 -4 40 3 29 8 -11 10 21 8 115 -3 114
-6 130 -20 129 -9 -1 -15 2 -12 6 7 11 -24 22 -37 13 -6 -3 -8 -1 -5 4 4 6 0
14 -9 17 -25 10 -26 8 -3 -32z"/>
<path d="M845 1339 c-27 -4 -79 -5 -115 -3 -36 2 -58 1 -48 -2 9 -3 19 -12 22
-20 4 -10 2 -13 -7 -7 -7 4 -5 -3 4 -17 9 -14 50 -91 93 -171 l76 -146 0 -126
c0 -118 -1 -128 -24 -154 l-24 -27 21 -28 21 -28 139 0 139 0 -21 34 c-19 29
-21 49 -21 162 l1 129 88 180 c87 177 88 180 72 208 -9 15 -17 24 -18 20 -2
-4 -38 -7 -81 -5 l-78 3 4 -34 c3 -24 -6 -53 -31 -102 l-34 -69 -40 85 c-52
110 -72 127 -138 118z"/>
<path d="M593 1313 c-29 -11 -3 -381 27 -391 5 -2 6 -10 3 -18 -3 -8 0 -14 7
-14 7 0 10 -7 6 -15 -3 -8 -1 -15 5 -15 6 0 8 -7 5 -16 -4 -9 -2 -13 5 -8 7 4
10 1 7 -7 -2 -7 -1 -18 4 -24 5 -5 18 -25 29 -43 16 -27 25 -33 42 -28 18 4
27 -1 41 -25 17 -29 19 -30 37 -13 17 15 19 32 19 147 l0 129 -81 151 c-109
203 -113 208 -156 190z"/>
<path d="M830 593 c0 -11 74 -62 122 -84 23 -10 35 -9 70 5 24 9 57 27 73 41
l30 24 -135 1 c-92 0 -140 4 -148 12 -8 8 -12 8 -12 1z"/>
<path d="M289 1703 l-34 -38 38 34 c34 33 42 41 34 41 -2 0 -19 -17 -38 -37z"/>
</g>
</svg>
