<?xml version="1.0" encoding="UTF-8"?>
<svg version="1.1" xmlns="http://www.w3.org/2000/svg" width="64" height="64">
<path d="M0 0 C6.47496935 5.28699977 10.89385341 12.01682002 12.48828125 20.3046875 C13.45098895 30.92603642 11.69688696 39.81059549 4.86328125 48.1796875 C-1.65304959 54.98888714 -9.73881 58.38100539 -19.07421875 58.6171875 C-28.91069917 58.48555577 -36.45265729 55.40153127 -43.56640625 48.59375 C-49.91613191 41.12198447 -51.90948271 33.11373067 -51.78125 23.53125 C-50.98490145 13.99815002 -46.7695639 6.47261734 -39.51171875 0.3046875 C-27.03890251 -7.52359656 -12.53369022 -8.45975359 0 0 Z " fill="#FDFDFD" transform="translate(51.51171875,5.6953125)"/>
<path d="M0 0 C13.86 0 27.72 0 42 0 C40.72508436 12.74915636 40.72508436 12.74915636 35.09765625 17.66015625 C29.23919688 22.27492034 24.57742444 23.78191059 17 23 C10.70517492 20.93790213 5.86798899 17.83419019 2.1875 12.25 C1 9 1 9 0 0 Z " fill="#020202" transform="translate(11,28)"/>
<path d="M0 0 C8.91 0 17.82 0 27 0 C27 4.95 27 9.9 27 15 C20.80034878 17.47986049 16.02814215 18.13905474 9.875 15.5625 C5.16546317 12.96573957 2.24159931 8.82283488 0 4 C0 2.68 0 1.36 0 0 Z " fill="#FD9E00" transform="translate(14,31)"/>
<path d="M0 0 C2.97 0 5.94 0 9 0 C9 4.95 9 9.9 9 15 C4 17 4 17 0 17 C0 11.39 0 5.78 0 0 Z " fill="#F5C800" transform="translate(32,31)"/>
<path d="M0 0 C2.97 0 5.94 0 9 0 C8.706999 5.86001992 5.96570849 9.85546646 2 14 C1.34 14 0.68 14 0 14 C0 9.38 0 4.76 0 0 Z " fill="#00E284" transform="translate(41,31)"/>
<path d="M0 0 C2.64 0 5.28 0 8 0 C8 4.62 8 9.24 8 14 C4.72952316 10.90630569 1.98268225 8.0697162 0 4 C0 2.68 0 1.36 0 0 Z " fill="#FB0B49" transform="translate(14,31)"/>
<path d="M0 0 C4 4.10526316 4 4.10526316 4 7 C0.73045798 6.43628586 -0.82575883 5.50037734 -3 3 C-6.72614153 4.11854586 -6.72614153 4.11854586 -9 7 C-9.66 7 -10.32 7 -11 7 C-10.67694236 4.01171686 -10.34810879 2.38678755 -8.3125 0.125 C-5.06189339 -1.45637619 -3.40321157 -1.13440386 0 0 Z " fill="#090909" transform="translate(45,17)"/>
<path d="M0 0 C1.9375 0.375 1.9375 0.375 4 1 C4.33 1.66 4.66 2.32 5 3 C7.91634129 3.2502157 7.91634129 3.2502157 11 3 C11.66 2.01 12.32 1.02 13 0 C13.66 0 14.32 0 15 0 C14.25 4.75 14.25 4.75 12 7 C6.89024888 7.57690738 6.89024888 7.57690738 4 7 C1.5 4.625 1.5 4.625 0 2 C0 1.34 0 0.68 0 0 Z " fill="#080808" transform="translate(15,18)"/>
</svg>
