<svg xmlns="http://www.w3.org/2000/svg" width="400" height="400" fill="none" xmlns:v="https://vecta.io/nano"><g clip-path="url(#A)"><path d="M200 400c110.457 0 200-89.543 200-200S310.457 0 200 0 0 89.543 0 200s89.543 200 200 200z" fill="#f0f0f0"/><path d="M58.578 341.422c-78.105-78.106-78.105-204.738 0-282.844C58.573 58.587 173.913 200 173.913 200L58.578 341.422z" fill="#000"/><path d="M173.913 200L26.526 100.401c-4.57 7.943-8.599 16.233-12.062 24.815l74.616 74.785-74.614 74.789c3.459 8.575 7.485 16.86 12.052 24.798L173.913 200z" fill="#ffb81c"/><path d="M398.307 173.913H173.908L58.577 58.581c-12.428 12.428-23.226 26.484-32.051 41.821L125.931 200l-99.413 99.586a200.74 200.74 0 0 0 32.059 41.832l115.331-115.331h224.399C399.419 217.548 400 208.841 400 200s-.581-17.548-1.693-26.087z" fill="#007749"/><path d="M78.233 358.654A199.11 199.11 0 0 0 200 400c92.405 0 170.16-62.673 193.11-147.826H184.713l-106.48 106.48z" fill="#001489"/><path d="M393.11 147.826C370.16 62.673 292.405 0 200 0c-45.825 0-88.041 15.423-121.767 41.346l106.479 106.48H393.11z" fill="#e03c31"/></g><defs><clipPath id="A"><path fill="#fff" d="M0 0h400v400H0z"/></clipPath></defs></svg>