<?xml version="1.0" encoding="UTF-8"?>
<svg version="1.1" xmlns="http://www.w3.org/2000/svg" width="128" height="128">
<path d="M0 0 C42.24 0 84.48 0 128 0 C128 42.24 128 84.48 128 128 C85.76 128 43.52 128 0 128 C0 85.76 0 43.52 0 0 Z " fill="#2E295B" transform="translate(0,0)"/>
<path d="M0 0 C0.99 0.33 1.98 0.66 3 1 C3.6875 3.0625 3.6875 3.0625 4 5 C2.35 5 0.7 5 -1 5 C-1 5.66 -1 6.32 -1 7 C-0.34 6.67 0.32 6.34 1 6 C3.3329866 5.95977609 5.66706666 5.95679753 8 6 C8 5.34 8 4.68 8 4 C8.66 4 9.32 4 10 4 C10 4.99 10 5.98 10 7 C11.65 6.67 13.3 6.34 15 6 C15 5.34 15 4.68 15 4 C15.99 3.67 16.98 3.34 18 3 C18.66 3.66 19.32 4.32 20 5 C19.34 5.33 18.68 5.66 18 6 C18.495 6.99 18.495 6.99 19 8 C18.67 8.66 18.34 9.32 18 10 C20.12493141 10.02693575 22.24995912 10.04636628 24.375 10.0625 C25.55835938 10.07410156 26.74171875 10.08570313 27.9609375 10.09765625 C30.91921521 10.21466593 30.91921521 10.21466593 33 9 C33 8.34 33 7.68 33 7 C35.64 6.67 38.28 6.34 41 6 C41 5.34 41 4.68 41 4 C42.65 4 44.3 4 46 4 C45.7215625 5.3921875 45.7215625 5.3921875 45.4375 6.8125 C44.75876119 10.01343771 44.75876119 10.01343771 46 13 C46.66 13 47.32 13 48 13 C48 13.99 48 14.98 48 16 C48.66 16 49.32 16 50 16 C50.33 15.34 50.66 14.68 51 14 C51.495 19.445 51.495 19.445 52 25 C51.34 25.33 50.68 25.66 50 26 C50.61875 26.45375 51.2375 26.9075 51.875 27.375 C54 29 54 29 56 31 C55.34 31.33 54.68 31.66 54 32 C55.98 32.495 55.98 32.495 58 33 C58 33.66 58 34.32 58 35 C58.99 34.67 59.98 34.34 61 34 C61.495 35.98 61.495 35.98 62 38 C60.515 38.495 60.515 38.495 59 39 C59 39.33 59 39.66 59 40 C60.65 40.66 62.3 41.32 64 42 C63.67 43.65 63.34 45.3 63 47 C63.66 47 64.32 47 65 47 C65 47.66 65 48.32 65 49 C62.69 49.99 60.38 50.98 58 52 C59.485 52.495 59.485 52.495 61 53 C60.67 53.70125 60.34 54.4025 60 55.125 C58.90955438 58.26003116 58.84677357 60.70563182 59 64 C57.35 64 55.7 64 54 64 C54.33 63.01 54.66 62.02 55 61 C53.68 61 52.36 61 51 61 C51 61.66 51 62.32 51 63 C51.66 63 52.32 63 53 63 C52.835 63.598125 52.67 64.19625 52.5 64.8125 C51.8885876 67.11344336 51.8885876 67.11344336 52 70 C52.66 70.33 53.32 70.66 54 71 C53 74 53 74 51 75.0625 C50.34 75.371875 49.68 75.68125 49 76 C48.67 76.66 48.34 77.32 48 78 C47.01 78 46.02 78 45 78 C45 78.99 45 79.98 45 81 C44.34 81 43.68 81 43 81 C43 81.99 43 82.98 43 84 C41.35 84 39.7 84 38 84 C38.33 84.66 38.66 85.32 39 86 C39.99 86 40.98 86 42 86 C41.67 87.65 41.34 89.3 41 91 C40.01 91 39.02 91 38 91 C37.67 90.67 37.34 90.34 37 90 C36.01 90.495 36.01 90.495 35 91 C35 90.34 35 89.68 35 89 C34.34 89 33.68 89 33 89 C32.67 89.66 32.34 90.32 32 91 C32 90.34 32 89.68 32 89 C30.02 89.99 30.02 89.99 28 91 C28.185625 90.195625 28.37125 89.39125 28.5625 88.5625 C28.706875 87.716875 28.85125 86.87125 29 86 C28.67 85.67 28.34 85.34 28 85 C28 85.99 28 86.98 28 88 C26.68 88 25.36 88 24 88 C23.67 88.66 23.34 89.32 23 90 C22.01 90.66 21.02 91.32 20 92 C19.34 92.99 18.68 93.98 18 95 C18 94.01 18 93.02 18 92 C15.36 91.67 12.72 91.34 10 91 C10 91.66 10 92.32 10 93 C9.34 93 8.68 93 8 93 C7.67 92.34 7.34 91.68 7 91 C6.01 91 5.02 91 4 91 C3.67 89.68 3.34 88.36 3 87 C2.01 87 1.02 87 0 87 C0 86.34 0 85.68 0 85 C-0.33 85.33 -0.66 85.66 -1 86 C-1 86.66 -1 87.32 -1 88 C0.32 88.33 1.64 88.66 3 89 C3 89.66 3 90.32 3 91 C0.03 90.505 0.03 90.505 -3 90 C-2.67 91.32 -2.34 92.64 -2 94 C-3.32 94 -4.64 94 -6 94 C-6 93.01 -6 92.02 -6 91 C-7.65 91 -9.3 91 -11 91 C-10.67 89.35 -10.34 87.7 -10 86 C-10.639375 85.525625 -11.27875 85.05125 -11.9375 84.5625 C-14.14286743 82.8917671 -15.11004075 81.85580867 -16.8125 79.625 C-18.80335359 76.97761256 -18.80335359 76.97761256 -21.1875 75.5625 C-23 74 -23 74 -23.8125 70.875 C-23.874375 69.92625 -23.93625 68.9775 -24 68 C-23.505 67.505 -23.505 67.505 -23 67 C-23.66 66.34 -24.32 65.68 -25 65 C-24.625 62.875 -24.625 62.875 -24 61 C-24.66 61 -25.32 61 -26 61 C-26 60.34 -26 59.68 -26 59 C-26.66 59 -27.32 59 -28 59 C-28 58.01 -28 57.02 -28 56 C-28.99 55.67 -29.98 55.34 -31 55 C-30.01 54.34 -29.02 53.68 -28 53 C-27.67 53.33 -27.34 53.66 -27 54 C-26.67 53.01 -26.34 52.02 -26 51 C-28.64 51 -31.28 51 -34 51 C-33.67 50.34 -33.34 49.68 -33 49 C-32.01 49 -31.02 49 -30 49 C-30.99 48.34 -31.98 47.68 -33 47 C-31.515 46.505 -31.515 46.505 -30 46 C-30.495 44.515 -30.495 44.515 -31 43 C-30.34 43 -29.68 43 -29 43 C-29.495 41.515 -29.495 41.515 -30 40 C-30 40.66 -30 41.32 -30 42 C-31.32 42.66 -32.64 43.32 -34 44 C-33.1875 41.5625 -33.1875 41.5625 -32 39 C-30.515 38.505 -30.515 38.505 -29 38 C-29 36.35 -29 34.7 -29 33 C-27.515 32.505 -27.515 32.505 -26 32 C-25.67 31.34 -25.34 30.68 -25 30 C-24.34 30 -23.68 30 -23 30 C-23 30.66 -23 31.32 -23 32 C-22.34 32 -21.68 32 -21 32 C-21.66 30.35 -22.32 28.7 -23 27 C-19.535 26.505 -19.535 26.505 -16 26 C-15.67 25.01 -15.34 24.02 -15 23 C-13.35 23 -11.7 23 -10 23 C-10.99 22.67 -11.98 22.34 -13 22 C-13.33 21.34 -13.66 20.68 -14 20 C-14 20.66 -14 21.32 -14 22 C-14.66 22 -15.32 22 -16 22 C-16 22.99 -16 23.98 -16 25 C-17.65 25 -19.3 25 -21 25 C-19.92598892 22.08482708 -19.22189824 20.22189824 -17 18 C-17.99 18 -18.98 18 -20 18 C-19.34 16.68 -18.68 15.36 -18 14 C-18 14.99 -18 15.98 -18 17 C-17.34 17 -16.68 17 -16 17 C-16 16.34 -16 15.68 -16 15 C-15.34 15 -14.68 15 -14 15 C-14 14.34 -14 13.68 -14 13 C-13.34 13 -12.68 13 -12 13 C-11.87625 12.2575 -11.7525 11.515 -11.625 10.75 C-10.72037324 6.76964224 -9.37400714 3.4656206 -6 1 C-3.9375 1.4375 -3.9375 1.4375 -2 2 C-1.34 1.34 -0.68 0.68 0 0 Z " fill="#2E315E" transform="translate(48,17)"/>
<path d="M0 0 C6.4 -0.49230769 6.4 -0.49230769 9.4375 2 C10.2109375 2.99 10.2109375 2.99 11 4 C11.33 3.34 11.66 2.68 12 2 C20.41278302 1.57324936 27.85520865 2.76905591 36 4.8125 C37.11761719 5.07353516 38.23523438 5.33457031 39.38671875 5.60351562 C48.77556424 7.89693084 48.77556424 7.89693084 51 11 C50.9375 14.5 50.9375 14.5 50 18 C47.9375 19.875 47.9375 19.875 46 21 C46 21.33 46 21.66 46 22 C46.75925781 22.08636719 47.51851563 22.17273438 48.30078125 22.26171875 C56.3680725 23.40223074 56.3680725 23.40223074 59.3125 26.1875 C60.24818975 30.0153217 59.90030191 32.62091769 58 36 C55.10767457 39.41598856 52.044157 42.9779215 48 45 C43.91384719 45.23432625 39.82599614 45.22839964 35.73364258 45.24023438 C33.70547061 45.24991423 31.67832358 45.28092532 29.65039062 45.3125 C27.72549805 45.32023437 27.72549805 45.32023437 25.76171875 45.328125 C23.997677 45.34214355 23.997677 45.34214355 22.19799805 45.35644531 C16.38358815 44.70837764 12.87118487 41.13444877 8.74609375 37.3046875 C6.83220377 35.87462206 5.33274839 35.41856755 3 35 C2.34 36.32 1.68 37.64 1 39 C-0.32 39 -1.64 39 -3 39 C-3 39.99 -3 40.98 -3 42 C-2.34 42.33 -1.68 42.66 -1 43 C-1 44.65 -1 46.3 -1 48 C-2.98 48.495 -2.98 48.495 -5 49 C-3.68 49 -2.36 49 -1 49 C-0.34 49.66 0.32 50.32 1 51 C0.67 51.66 0.34 52.32 0 53 C0.66 53 1.32 53 2 53 C1.01 55.475 1.01 55.475 0 58 C-2 57 -2 57 -4 54 C-4.680625 53.566875 -5.36125 53.13375 -6.0625 52.6875 C-8 51 -8 51 -8.8125 47.875 C-8.874375 46.92625 -8.93625 45.9775 -9 45 C-8.505 44.505 -8.505 44.505 -8 44 C-8.66 43.34 -9.32 42.68 -10 42 C-9.625 39.875 -9.625 39.875 -9 38 C-9.66 38 -10.32 38 -11 38 C-11 37.34 -11 36.68 -11 36 C-11.66 36 -12.32 36 -13 36 C-13 35.01 -13 34.02 -13 33 C-13.99 32.67 -14.98 32.34 -16 32 C-15.01 31.34 -14.02 30.68 -13 30 C-12.67 30.33 -12.34 30.66 -12 31 C-11.67 30.01 -11.34 29.02 -11 28 C-13.64 28 -16.28 28 -19 28 C-18.67 27.34 -18.34 26.68 -18 26 C-17.01 26 -16.02 26 -15 26 C-15.99 25.34 -16.98 24.68 -18 24 C-17.01 23.67 -16.02 23.34 -15 23 C-15.33 22.01 -15.66 21.02 -16 20 C-15.34 20 -14.68 20 -14 20 C-14.33 19.01 -14.66 18.02 -15 17 C-15 17.66 -15 18.32 -15 19 C-16.98 19.99 -16.98 19.99 -19 21 C-18.1875 18.5625 -18.1875 18.5625 -17 16 C-16.01 15.67 -15.02 15.34 -14 15 C-14 13.35 -14 11.7 -14 10 C-13.01 9.67 -12.02 9.34 -11 9 C-10.67 8.34 -10.34 7.68 -10 7 C-9.34 7 -8.68 7 -8 7 C-8 7.66 -8 8.32 -8 9 C-7.34 9 -6.68 9 -6 9 C-6.66 7.35 -7.32 5.7 -8 4 C-4.535 3.505 -4.535 3.505 -1 3 C-0.67 2.01 -0.34 1.02 0 0 Z " fill="#2D305D" transform="translate(33,40)"/>
<path d="M0 0 C1.19109375 0.09273193 2.3821875 0.18546387 3.609375 0.28100586 C4.87136719 0.4022583 6.13335937 0.52351074 7.43359375 0.6484375 C8.72523437 0.75744385 10.016875 0.8664502 11.34765625 0.97875977 C13.95936928 1.20294045 16.57025466 1.43699316 19.18017578 1.68115234 C22.47024624 1.98626405 25.76041007 2.25705436 29.0546875 2.51171875 C30.8269676 2.65973611 32.59911563 2.80934787 34.37109375 2.9609375 C35.56907593 3.0539917 35.56907593 3.0539917 36.79125977 3.14892578 C41.18240218 3.56986945 44.35692162 4.29319608 47.87109375 7.0234375 C49.24355357 10.19725084 49.00614547 11.63516379 47.87109375 14.8984375 C45.10082892 19.22697629 41.54851189 23.68472843 36.87109375 26.0234375 C32.78494094 26.25776375 28.69708989 26.25183714 24.60473633 26.26367188 C22.57656436 26.27335173 20.54941733 26.30436282 18.52148438 26.3359375 C16.5965918 26.34367187 16.5965918 26.34367187 14.6328125 26.3515625 C12.86877075 26.36558105 12.86877075 26.36558105 11.0690918 26.37988281 C4.55771806 25.65413232 0.22706362 20.94669647 -4.44140625 16.7109375 C-5.08658203 16.15470703 -5.73175781 15.59847656 -6.39648438 15.02539062 C-9.35607732 12.33513629 -10.94395054 10.82557163 -11.859375 6.85546875 C-10.27995025 0.73203055 -5.77932858 -0.50094825 0 0 Z " fill="#60F6D1" transform="translate(44.12890625,58.9765625)"/>
<path d="M0 0 C6.28473574 -0.08816815 12.38171772 0.21525497 18.62890625 0.875 C19.50401352 0.96378418 20.37912079 1.05256836 21.28074646 1.14404297 C24.04178308 1.42513459 26.80212866 1.71245629 29.5625 2 C31.44852532 2.19312277 33.33459273 2.38583494 35.22070312 2.578125 C39.81430195 3.04734184 44.40729235 3.52214235 49 4 C50 7 50 7 49.06738281 9.2199707 C46.44447782 13.108709 44.49238882 15.57370319 39.87695312 16.89208984 C36.12585696 17.25293238 32.51679717 17.29609833 28.75 17.1875 C27.44562988 17.17122559 26.14125977 17.15495117 24.79736328 17.13818359 C17.34713074 16.81933132 12.40220703 16.27024557 6.875 11.125 C5.53652051 9.45309145 4.23394563 7.750481 3 6 C2.01 5.34 1.02 4.68 0 4 C0 2.68 0 1.36 0 0 Z " fill="#2C2A5A" transform="translate(38,64)"/>
<path d="M0 0 C4.34078109 0.754279 8.5989014 1.75596396 12.875 2.8125 C14.56496094 3.20405273 14.56496094 3.20405273 16.2890625 3.60351562 C17.36671875 3.86455078 18.444375 4.12558594 19.5546875 4.39453125 C20.52905762 4.63018799 21.50342773 4.86584473 22.50732422 5.10864258 C25.13229911 6.04730892 26.38790529 6.73714209 28 9 C27.9375 12.5625 27.9375 12.5625 27 16 C23.8182383 18.28047455 21.22986023 18.14640061 17.421875 17.828125 C16.34292969 17.74046875 15.26398438 17.6528125 14.15234375 17.5625 C13.02957031 17.459375 11.90679687 17.35625 10.75 17.25 C9.64269531 17.16234375 8.53539062 17.0746875 7.39453125 16.984375 C-8.36482038 15.63517962 -8.36482038 15.63517962 -12 12 C-12.30078125 9.94140625 -12.30078125 9.94140625 -12.3125 7.5625 C-12.32925781 6.78003906 -12.34601562 5.99757813 -12.36328125 5.19140625 C-11.28427223 -1.31745464 -5.30938721 -0.54894963 0 0 Z " fill="#5FF7D1" transform="translate(56,42)"/>
<path d="M0 0 C4.40231273 0.82215655 8.72522159 1.88877576 13.0625 3 C14.79016602 3.42925781 14.79016602 3.42925781 16.55273438 3.8671875 C19.37096572 4.56882186 22.18643313 5.27993116 25 6 C25 9 25 9 23 12 C23 11.34 23 10.68 23 10 C21.74316406 9.88785156 20.48632812 9.77570312 19.19140625 9.66015625 C13.65388961 9.04487662 8.33766207 7.77908515 2.9375 6.4375 C1.49600586 6.08655273 1.49600586 6.08655273 0.02539062 5.72851562 C-2.31767482 5.15732057 -4.65936918 4.58107577 -7 4 C-7.16687448 6.41645782 -7.16687448 6.41645782 -7 9 C-6.34 9.66 -5.68 10.32 -5 11 C-5.375 13.125 -5.375 13.125 -6 15 C-10.875 13.125 -10.875 13.125 -12 12 C-12.203125 10.0390625 -12.203125 10.0390625 -12.25 7.625 C-12.27578125 6.83351563 -12.3015625 6.04203125 -12.328125 5.2265625 C-11.36306409 -1.32206508 -5.29362927 -0.57033176 0 0 Z " fill="#62F7D2" transform="translate(56,42)"/>
<path d="M0 0 C0.33 0.66 0.66 1.32 1 2 C3.12576782 2.46651207 3.12576782 2.46651207 5.5625 2.625 C6.38878906 2.69976562 7.21507812 2.77453125 8.06640625 2.8515625 C8.70449219 2.90054688 9.34257812 2.94953125 10 3 C10 3.99 10 4.98 10 6 C10.66 6 11.32 6 12 6 C11.67 7.98 11.34 9.96 11 12 C11.66 12.33 12.32 12.66 13 13 C13 14.65 13 16.3 13 18 C11.68 18.33 10.36 18.66 9 19 C10.32 19 11.64 19 13 19 C13.66 19.66 14.32 20.32 15 21 C14.67 21.66 14.34 22.32 14 23 C14.66 23 15.32 23 16 23 C15.01 25.475 15.01 25.475 14 28 C12 27 12 27 10 24 C9.319375 23.566875 8.63875 23.13375 7.9375 22.6875 C6 21 6 21 5.1875 17.875 C5.125625 16.92625 5.06375 15.9775 5 15 C5.33 14.67 5.66 14.34 6 14 C5.34 13.34 4.68 12.68 4 12 C4.375 9.875 4.375 9.875 5 8 C4.34 8 3.68 8 3 8 C3 7.34 3 6.68 3 6 C2.34 6 1.68 6 1 6 C1 5.01 1 4.02 1 3 C0.01 2.67 -0.98 2.34 -2 2 C-1.34 1.34 -0.68 0.68 0 0 Z " fill="#375D77" transform="translate(19,70)"/>
<path d="M0 0 C0.66 0 1.32 0 2 0 C2.66 1.32 3.32 2.64 4 4 C4.61875 3.835 5.2375 3.67 5.875 3.5 C8 3 8 3 10 3 C9.745504 4.48206495 9.47088238 5.96068615 9.1875 7.4375 C9.03667969 8.26121094 8.88585938 9.08492187 8.73046875 9.93359375 C8.48941406 10.61550781 8.24835937 11.29742187 8 12 C7.01 12.33 6.02 12.66 5 13 C5 13.99 5 14.98 5 16 C5.66 16 6.32 16 7 16 C7.66 17.98 8.32 19.96 9 22 C7.02 22 5.04 22 3 22 C2.67 21.34 2.34 20.68 2 20 C2.33 19.34 2.66 18.68 3 18 C0.36 18 -2.28 18 -5 18 C-4.67 17.34 -4.34 16.68 -4 16 C-3.01 16 -2.02 16 -1 16 C-1.99 15.34 -2.98 14.68 -4 14 C-3.01 13.67 -2.02 13.34 -1 13 C-1.33 12.01 -1.66 11.02 -2 10 C-1.34 10 -0.68 10 0 10 C-0.33 9.01 -0.66 8.02 -1 7 C-1 7.66 -1 8.32 -1 9 C-2.98 9.99 -2.98 9.99 -5 11 C-4.1875 8.5625 -4.1875 8.5625 -3 6 C-2.01 5.67 -1.02 5.34 0 5 C0 3.35 0 1.7 0 0 Z " fill="#519CA1" transform="translate(19,50)"/>
<path d="M0 0 C6.87800037 0.61372926 13.3664323 1.89896752 20.0625 3.5625 C21.02349609 3.79646484 21.98449219 4.03042969 22.97460938 4.27148438 C25.31767482 4.84267943 27.65936918 5.41892423 30 6 C30 6.99 30 7.98 30 9 C19.86885065 8.53894171 9.99700135 7.7907672 0 6 C-1 3 -1 3 0 0 Z " fill="#27325A" transform="translate(49,46)"/>
<path d="M0 0 C7.26 0 14.52 0 22 0 C22.66 1.65 23.32 3.3 24 5 C23.34 5.66 22.68 6.32 22 7 C19.9375 6.8125 19.9375 6.8125 18 6 C17.67 5.01 17.34 4.02 17 3 C16.34 3 15.68 3 15 3 C14.67 3.99 14.34 4.98 14 6 C13.01 6 12.02 6 11 6 C11.99 6.33 12.98 6.66 14 7 C14.33 6.01 14.66 5.02 15 4 C15.66 4 16.32 4 17 4 C16.34 5.65 15.68 7.3 15 9 C14.01 9 13.02 9 12 9 C12 9.66 12 10.32 12 11 C11.34 11 10.68 11 10 11 C9.67 10.34 9.34 9.68 9 9 C8.01 9 7.02 9 6 9 C5.67 7.68 5.34 6.36 5 5 C4.01 5 3.02 5 2 5 C2 4.34 2 3.68 2 3 C1.34 2.67 0.68 2.34 0 2 C0 1.34 0 0.68 0 0 Z " fill="#3C647B" transform="translate(46,99)"/>
<path d="M0 0 C1.32 0.66 2.64 1.32 4 2 C4 3.32 4 4.64 4 6 C3.01 6 2.02 6 1 6 C1 6.99 1 7.98 1 9 C1.66 9 2.32 9 3 9 C3 8.34 3 7.68 3 7 C4.65 7 6.3 7 8 7 C8.2475 7.969375 8.495 8.93875 8.75 9.9375 C9.1625 10.948125 9.575 11.95875 10 13 C12.03243548 13.96877057 12.03243548 13.96877057 14 14 C14 14.66 14 15.32 14 16 C11.03 15.505 11.03 15.505 8 15 C8.33 16.32 8.66 17.64 9 19 C7.68 19 6.36 19 5 19 C5 18.01 5 17.02 5 16 C3.35 16 1.7 16 0 16 C0.33 14.35 0.66 12.7 1 11 C-0.32 10.01 -1.64 9.02 -3 8 C-2.625 6.0625 -2.625 6.0625 -2 4 C-1.34 3.67 -0.68 3.34 0 3 C0 2.01 0 1.02 0 0 Z " fill="#304769" transform="translate(37,92)"/>
<path d="M0 0 C0.99 0 1.98 0 3 0 C3.66 1.65 4.32 3.3 5 5 C4.01 5.495 4.01 5.495 3 6 C3.99 6.33 4.98 6.66 6 7 C5.67 7.70125 5.34 8.4025 5 9.125 C3.90955438 12.26003116 3.84677357 14.70563182 4 18 C2.35 18 0.7 18 -1 18 C-0.67 17.01 -0.34 16.02 0 15 C-1.98491642 15.26676204 -1.98491642 15.26676204 -4 16 C-4.33 16.99 -4.66 17.98 -5 19 C-5.99 18.67 -6.98 18.34 -8 18 C-7.34 16.35 -6.68 14.7 -6 13 C-4.35 13 -2.7 13 -1 13 C-1 11.68 -1 10.36 -1 9 C-1.66 9 -2.32 9 -3 9 C-3 8.01 -3 7.02 -3 6 C-2.34 6 -1.68 6 -1 6 C-0.67 4.02 -0.34 2.04 0 0 Z " fill="#528698" transform="translate(103,63)"/>
<path d="M0 0 C4.07681749 0.35518449 8.15160865 0.72793583 12.2253418 1.11694336 C13.61096578 1.24676963 14.99704678 1.37181179 16.38354492 1.49194336 C18.37793097 1.66558571 20.37065929 1.85794687 22.36328125 2.05078125 C24.16212769 2.21574097 24.16212769 2.21574097 25.99731445 2.3840332 C29.0863853 3.01772096 30.13607362 3.52552766 32 6 C23.68737219 6.13425509 15.52662393 5.75613601 7.25 5 C6.15945312 4.90460937 5.06890625 4.80921875 3.9453125 4.7109375 C1.29642926 4.47857932 -1.35194196 4.24155018 -4 4 C-2.68 3.34 -1.36 2.68 0 2 C0 1.34 0 0.68 0 0 Z " fill="#233258" transform="translate(47,56)"/>
<path d="M0 0 C0.66 0 1.32 0 2 0 C2 0.66 2 1.32 2 2 C2.99 1.67 3.98 1.34 5 1 C5.33 2.32 5.66 3.64 6 5 C5.01 5.33 4.02 5.66 3 6 C3 6.33 3 6.66 3 7 C5.475 7.99 5.475 7.99 8 9 C7.01 10.98 6.02 12.96 5 15 C4.34 15 3.68 15 3 15 C2.67 14.01 2.34 13.02 2 12 C0.68 12 -0.64 12 -2 12 C-2 11.34 -2 10.68 -2 10 C-2.66 9.67 -3.32 9.34 -4 9 C-4.625 5.9375 -4.625 5.9375 -5 3 C-3.35 3 -1.7 3 0 3 C0 2.01 0 1.02 0 0 Z " fill="#4DA1A0" transform="translate(104,50)"/>
<path d="M0 0 C0.495 0.99 0.495 0.99 1 2 C1.99 2 2.98 2 4 2 C2.61811547 5.21043882 1.07578097 7.04936365 -1.625 9.25 C-2.25664063 9.77078125 -2.88828125 10.2915625 -3.5390625 10.828125 C-4.02117187 11.21484375 -4.50328125 11.6015625 -5 12 C-5.66 11.67 -6.32 11.34 -7 11 C-7 10.34 -7 9.68 -7 9 C-15.25 8.67 -23.5 8.34 -32 8 C-32 7.67 -32 7.34 -32 7 C-30.81241089 7.00169189 -30.81241089 7.00169189 -29.60083008 7.00341797 C-26.00385829 6.99129186 -22.40900188 6.93362866 -18.8125 6.875 C-16.94368164 6.87886719 -16.94368164 6.87886719 -15.03710938 6.8828125 C-8.6882528 6.97217261 -8.6882528 6.97217261 -3.02099609 4.60644531 C-1.45225288 2.82890225 -1.45225288 2.82890225 0 0 Z " fill="#62E3CB" transform="translate(86,73)"/>
<path d="M0 0 C0.66 0 1.32 0 2 0 C2.66 1.32 3.32 2.64 4 4 C4.61875 3.835 5.2375 3.67 5.875 3.5 C8 3 8 3 10 3 C9.34 5.97 8.68 8.94 8 12 C5.625 12.1875 5.625 12.1875 3 12 C1 9 1 9 1 6 C0.34 6.66 -0.32 7.32 -1 8 C-2.32392972 9.01241685 -3.65599167 10.01439389 -5 11 C-4.1875 8.5625 -4.1875 8.5625 -3 6 C-2.01 5.67 -1.02 5.34 0 5 C0 3.35 0 1.7 0 0 Z " fill="#3D5976" transform="translate(19,50)"/>
<path d="M0 0 C0.33 0.99 0.66 1.98 1 3 C1.66 3 2.32 3 3 3 C3 3.99 3 4.98 3 6 C3.66 6 4.32 6 5 6 C5.33 5.34 5.66 4.68 6 4 C6.33 7.63 6.66 11.26 7 15 C4.69 15.33 2.38 15.66 0 16 C-0.33 15.01 -0.66 14.02 -1 13 C-0.34 12.67 0.32 12.34 1 12 C1 11.34 1 10.68 1 10 C2.32 9.67 3.64 9.34 5 9 C4.01 8.34 3.02 7.68 2 7 C1.34 8.65 0.68 10.3 0 12 C-0.99 11.67 -1.98 11.34 -3 11 C-3.8125 9.1875 -3.8125 9.1875 -4 7 C-3.0625 4.75 -3.0625 4.75 -2 3 C-1.34 3 -0.68 3 0 3 C0 2.01 0 1.02 0 0 Z " fill="#49788C" transform="translate(93,27)"/>
<path d="M0 0 C0.33 0 0.66 0 1 0 C1.2475 0.886875 1.495 1.77375 1.75 2.6875 C3.03934768 6.10427135 4.59980129 8.2797748 7 11 C6.01 11 5.02 11 4 11 C3.34 12.32 2.68 13.64 2 15 C0.68 14.67 -0.64 14.34 -2 14 C-1.67 13.34 -1.34 12.68 -1 12 C-1.66 12 -2.32 12 -3 12 C-3 11.01 -3 10.02 -3 9 C-5.31 9 -7.62 9 -10 9 C-10 8.67 -10 8.34 -10 8 C-8.02 8 -6.04 8 -4 8 C-4 7.34 -4 6.68 -4 6 C-3.01 5.34 -2.02 4.68 -1 4 C-0.27617533 1.94074861 -0.27617533 1.94074861 0 0 Z " fill="#272D58" transform="translate(32,64)"/>
<path d="M0 0 C0.99 0.33 1.98 0.66 3 1 C3.6875 3.0625 3.6875 3.0625 4 5 C2.9171875 4.8453125 2.9171875 4.8453125 1.8125 4.6875 C-2.1573703 5.1285967 -3.50403068 7.00483682 -6 10 C-6 10.66 -6 11.32 -6 12 C-6.66 12 -7.32 12 -8 12 C-8 11.34 -8 10.68 -8 10 C-8.66 10 -9.32 10 -10 10 C-10.33 11.65 -10.66 13.3 -11 15 C-11.66 15 -12.32 15 -13 15 C-10.02209945 3.93922652 -10.02209945 3.93922652 -6 1 C-3.9375 1.4375 -3.9375 1.4375 -2 2 C-1.34 1.34 -0.68 0.68 0 0 Z " fill="#3E597A" transform="translate(48,17)"/>
<path d="M0 0 C2.64 0 5.28 0 8 0 C8 0.99 8 1.98 8 3 C10.94729537 4.15811388 10.94729537 4.15811388 14 4 C13.67 5.65 13.34 7.3 13 9 C12.01 9 11.02 9 10 9 C9.67 8.67 9.34 8.34 9 8 C8.01 8.495 8.01 8.495 7 9 C7 8.34 7 7.68 7 7 C6.34 7 5.68 7 5 7 C4.67 7.66 4.34 8.32 4 9 C4 8.34 4 7.68 4 7 C2.02 7.99 2.02 7.99 0 9 C0.185625 8.2575 0.37125 7.515 0.5625 6.75 C0.99203108 4.05009037 0.85122974 2.55368923 0 0 Z " fill="#4D979C" transform="translate(76,99)"/>
<path d="M0 0 C0.99 0.33 1.98 0.66 3 1 C2.34 2.65 1.68 4.3 1 6 C3.64 6 6.28 6 9 6 C9 5.34 9 4.68 9 4 C7.35 4 5.7 4 4 4 C4 3.01 4 2.02 4 1 C4.969375 1.33 5.93875 1.66 6.9375 2 C9.62149574 3.05173363 9.62149574 3.05173363 11 3 C11.99 3 12.98 3 14 3 C14 2.34 14 1.68 14 1 C17.465 0.505 17.465 0.505 21 0 C19.75 2 19.75 2 18 4 C16.68 4 15.36 4 14 4 C14.33 4.99 14.66 5.98 15 7 C14.01 7 13.02 7 12 7 C11.67 7.66 11.34 8.32 11 9 C11 8.34 11 7.68 11 7 C10.34 7 9.68 7 9 7 C8.67 7.66 8.34 8.32 8 9 C8 8.34 8 7.68 8 7 C6.02 7 4.04 7 2 7 C1.67 7.66 1.34 8.32 1 9 C1 8.34 1 7.68 1 7 C0.34 7 -0.32 7 -1 7 C-1.625 5.1875 -1.625 5.1875 -2 3 C-1.34 2.01 -0.68 1.02 0 0 Z " fill="#1C3053" transform="translate(67,20)"/>
<path d="M0 0 C0.99 0.66 1.98 1.32 3 2 C2.01 2.495 2.01 2.495 1 3 C1.33 3.66 1.66 4.32 2 5 C1.67 5.66 1.34 6.32 1 7 C1.66 7 2.32 7 3 7 C3 7.66 3 8.32 3 9 C1.35 9 -0.3 9 -2 9 C-2.33 9.66 -2.66 10.32 -3 11 C-3 10.34 -3 9.68 -3 9 C-4.98 9 -6.96 9 -9 9 C-9.33 7.35 -9.66 5.7 -10 4 C-9.34 4 -8.68 4 -8 4 C-7.67 3.01 -7.34 2.02 -7 1 C-7 1.99 -7 2.98 -7 4 C-5.35 3.67 -3.7 3.34 -2 3 C-2 2.34 -2 1.68 -2 1 C-1.34 0.67 -0.68 0.34 0 0 Z " fill="#55A7A7" transform="translate(65,20)"/>
<path d="M0 0 C0.33 0.66 0.66 1.32 1 2 C3.12576782 2.46651207 3.12576782 2.46651207 5.5625 2.625 C6.38878906 2.69976562 7.21507812 2.77453125 8.06640625 2.8515625 C8.70449219 2.90054688 9.34257812 2.94953125 10 3 C10 3.99 10 4.98 10 6 C10.66 6 11.32 6 12 6 C11.67 6.99 11.34 7.98 11 9 C9.35 8.67 7.7 8.34 6 8 C5.67 8.99 5.34 9.98 5 11 C5 10.01 5 9.02 5 8 C4.34 8 3.68 8 3 8 C3 7.34 3 6.68 3 6 C2.34 6 1.68 6 1 6 C1 5.01 1 4.02 1 3 C0.01 2.67 -0.98 2.34 -2 2 C-1.34 1.34 -0.68 0.68 0 0 Z " fill="#4B8E97" transform="translate(19,70)"/>
<path d="M0 0 C2.625 0.25 2.625 0.25 4.3125 1.625 C4.745625 2.16125 5.17875 2.6975 5.625 3.25 C6.285 3.91 6.945 4.57 7.625 5.25 C6.635 5.745 6.635 5.745 5.625 6.25 C5.955 7.24 6.285 8.23 6.625 9.25 C4.645 9.25 2.665 9.25 0.625 9.25 C0.625 8.59 0.625 7.93 0.625 7.25 C-0.035 6.92 -0.695 6.59 -1.375 6.25 C-2.09659424 4.60636866 -2.76851421 2.93949614 -3.375 1.25 C-2.375 0.25 -2.375 0.25 0 0 Z " fill="#59ACAC" transform="translate(96.375,42.75)"/>
<path d="M0 0 C0 0.99 0 1.98 0 3 C0.66 3 1.32 3 2 3 C2 3.66 2 4.32 2 5 C-1.96 5 -5.92 5 -10 5 C-10 4.34 -10 3.68 -10 3 C-9.34 3 -8.68 3 -8 3 C-8 2.01 -8 1.02 -8 0 C-4.94736336 -0.98120464 -3.05263664 -0.98120464 0 0 Z " fill="#56AFAB" transform="translate(53,24)"/>
<path d="M0 0 C2.49361571 1.20381448 4.68143083 2.45428722 7 4 C7.99 4 8.98 4 10 4 C9.67 4.99 9.34 5.98 9 7 C9.66 7 10.32 7 11 7 C10.34 8.65 9.68 10.3 9 12 C7 11 7 11 5 8 C4.319375 7.54625 3.63875 7.0925 2.9375 6.625 C0.48694265 4.56969384 0.33638315 3.11154411 0 0 Z " fill="#354169" transform="translate(24,86)"/>
<path d="M0 0 C0.66 0.33 1.32 0.66 2 1 C2 1.99 2 2.98 2 4 C2.66 4 3.32 4 4 4 C4.33 3.34 4.66 2.68 5 2 C5 2.99 5 3.98 5 5 C3.35 5 1.7 5 0 5 C0.33 5.99 0.66 6.98 1 8 C-1.64 8.66 -4.28 9.32 -7 10 C-6.67 11.32 -6.34 12.64 -6 14 C-6.66 14 -7.32 14 -8 14 C-8.99 12.02 -9.98 10.04 -11 8 C-9.71073008 7.63720544 -8.41846728 7.28503302 -7.125 6.9375 C-6.40570312 6.74027344 -5.68640625 6.54304688 -4.9453125 6.33984375 C-3 6 -3 6 -1 7 C-1 6.01 -1 5.02 -1 4 C-0.34 4 0.32 4 1 4 C1 3.34 1 2.68 1 2 C0.34 1.67 -0.32 1.34 -1 1 C-0.67 0.67 -0.34 0.34 0 0 Z " fill="#213154" transform="translate(33,35)"/>
<path d="M0 0 C3.96 0 7.92 0 12 0 C12.66 1.65 13.32 3.3 14 5 C13.34 5.66 12.68 6.32 12 7 C9.9375 6.8125 9.9375 6.8125 8 6 C7.67 5.01 7.34 4.02 7 3 C5.02 3 3.04 3 1 3 C0.67 2.01 0.34 1.02 0 0 Z " fill="#4B8894" transform="translate(56,99)"/>
<path d="M0 0 C1.65 0 3.3 0 5 0 C5 0.66 5 1.32 5 2 C5.66 2.33 6.32 2.66 7 3 C7.73075648 5.3140622 8.40138258 7.64828869 9 10 C8.01 10.495 8.01 10.495 7 11 C7 10.34 7 9.68 7 9 C6.34 9 5.68 9 5 9 C4.67 9.66 4.34 10.32 4 11 C3.34 10.34 2.68 9.68 2 9 C1.34 8.67 0.68 8.34 0 8 C0 7.34 0 6.68 0 6 C2.97 6.495 2.97 6.495 6 7 C6 6.34 6 5.68 6 5 C4.35 4.67 2.7 4.34 1 4 C0.67 2.68 0.34 1.36 0 0 Z " fill="#272656" transform="translate(45,101)"/>
<path d="M0 0 C1.32 0.66 2.64 1.32 4 2 C4 3.32 4 4.64 4 6 C3.01 6 2.02 6 1 6 C1 6.99 1 7.98 1 9 C1.66 9 2.32 9 3 9 C2.67 10.32 2.34 11.64 2 13 C1.34 12.01 0.68 11.02 0 10 C-0.99 9.34 -1.98 8.68 -3 8 C-2.625 6.0625 -2.625 6.0625 -2 4 C-1.34 3.67 -0.68 3.34 0 3 C0 2.01 0 1.02 0 0 Z " fill="#51939C" transform="translate(37,92)"/>
<path d="M0 0 C0.33 0.99 0.66 1.98 1 3 C2.32 2.67 3.64 2.34 5 2 C5 4 5 6 5 8 C4.34 8 3.68 8 3 8 C3 8.99 3 9.98 3 11 C1.35 11 -0.3 11 -2 11 C-0.92598892 8.08482708 -0.22189824 6.22189824 2 4 C1.01 4 0.02 4 -1 4 C-0.67 2.68 -0.34 1.36 0 0 Z " fill="#4F7A91" transform="translate(29,31)"/>
<path d="M0 0 C0.66 0.33 1.32 0.66 2 1 C1.67 2.65 1.34 4.3 1 6 C0.01 6 -0.98 6 -2 6 C-2.33 5.67 -2.66 5.34 -3 5 C-3.99 5.495 -3.99 5.495 -5 6 C-5 5.34 -5 4.68 -5 4 C-5.66 4 -6.32 4 -7 4 C-7.33 4.66 -7.66 5.32 -8 6 C-8.33 5.01 -8.66 4.02 -9 3 C-8.34 3 -7.68 3 -7 3 C-7 2.34 -7 1.68 -7 1 C-5.5459375 1.0309375 -5.5459375 1.0309375 -4.0625 1.0625 C-1.12534105 1.35618499 -1.12534105 1.35618499 0 0 Z " fill="#538A9A" transform="translate(88,102)"/>
<path d="M0 0 C1.2065625 0.0309375 1.2065625 0.0309375 2.4375 0.0625 C1.7775 3.0325 1.1175 6.0025 0.4375 9.0625 C-0.8825 9.0625 -2.2025 9.0625 -3.5625 9.0625 C-3.66015625 2.91015625 -3.66015625 2.91015625 -3.5625 1.0625 C-2.5625 0.0625 -2.5625 0.0625 0 0 Z " fill="#52B1AA" transform="translate(26.5625,52.9375)"/>
<path d="M0 0 C3.3 0 6.6 0 10 0 C10.33 0.99 10.66 1.98 11 3 C10.67 3.66 10.34 4.32 10 5 C8.02 5 6.04 5 4 5 C4.66 4.67 5.32 4.34 6 4 C6 3.34 6 2.68 6 2 C4.02 2 2.04 2 0 2 C0 1.34 0 0.68 0 0 Z " fill="#64F9D4" transform="translate(45,60)"/>
<path d="M0 0 C1.32 0.66 2.64 1.32 4 2 C3.67 3.98 3.34 5.96 3 8 C2.34 8 1.68 8 1 8 C1 7.34 1 6.68 1 6 C0.34 6 -0.32 6 -1 6 C-1.33 7.65 -1.66 9.3 -2 11 C-2.66 11 -3.32 11 -4 11 C-2.95902388 7.13351728 -1.96301592 3.50538557 0 0 Z " fill="#47768B" transform="translate(39,21)"/>
<path d="M0 0 C1.65 0.33 3.3 0.66 5 1 C4.34 1.66 3.68 2.32 3 3 C3.99 3.66 4.98 4.32 6 5 C6 4.34 6 3.68 6 3 C7.32 3 8.64 3 10 3 C9.67 3.66 9.34 4.32 9 5 C8.34 4.67 7.68 4.34 7 4 C6.34 5.65 5.68 7.3 5 9 C4.34 8.67 3.68 8.34 3 8 C3 7.34 3 6.68 3 6 C1.68 5.67 0.36 5.34 -1 5 C-0.67 3.35 -0.34 1.7 0 0 Z " fill="#415F7E" transform="translate(74,17)"/>
<path d="M0 0 C2.97 0 5.94 0 9 0 C9 0.99 9 1.98 9 3 C8.34 3 7.68 3 7 3 C6.67 3.99 6.34 4.98 6 6 C4.68 5.67 3.36 5.34 2 5 C2 4.34 2 3.68 2 3 C1.34 2.67 0.68 2.34 0 2 C0 1.34 0 0.68 0 0 Z " fill="#5ABAB4" transform="translate(46,99)"/>
<path d="M0 0 C0.33 0.99 0.66 1.98 1 3 C1.33 3.33 1.66 3.66 2 4 C2 4.66 2 5.32 2 6 C0.35 6.66 -1.3 7.32 -3 8 C-3.66 7.34 -4.32 6.68 -5 6 C-5 5.01 -5 4.02 -5 3 C-6.32 2.67 -7.64 2.34 -9 2 C-7.68 1.67 -6.36 1.34 -5 1 C-4.67 2.32 -4.34 3.64 -4 5 C-3.34 5 -2.68 5 -2 5 C-1.855625 4.360625 -1.71125 3.72125 -1.5625 3.0625 C-1 1 -1 1 0 0 Z " fill="#203656" transform="translate(111,60)"/>
<path d="M0 0 C0.66 0 1.32 0 2 0 C2.33 1.65 2.66 3.3 3 5 C1.68 5.33 0.36 5.66 -1 6 C-1 6.99 -1 7.98 -1 9 C-1.66 9 -2.32 9 -3 9 C-3 8.34 -3 7.68 -3 7 C-3.66 6.67 -4.32 6.34 -5 6 C-5 5.01 -5 4.02 -5 3 C-2.525 3.495 -2.525 3.495 0 4 C0 2.68 0 1.36 0 0 Z " fill="#52979E" transform="translate(94,89)"/>
<path d="M0 0 C0.99 0 1.98 0 3 0 C3.66 1.65 4.32 3.3 5 5 C4.360625 5.103125 3.72125 5.20625 3.0625 5.3125 C2.381875 5.539375 1.70125 5.76625 1 6 C0.67 6.99 0.34 7.98 0 9 C-0.99 9 -1.98 9 -3 9 C-3 8.01 -3 7.02 -3 6 C-2.34 6 -1.68 6 -1 6 C-0.67 4.02 -0.34 2.04 0 0 Z " fill="#6AD9CA" transform="translate(103,63)"/>
<path d="M0 0 C0.66 0 1.32 0 2 0 C2 0.66 2 1.32 2 2 C2.66 2 3.32 2 4 2 C4 1.34 4 0.68 4 0 C4.66 0.33 5.32 0.66 6 1 C5.67 1.66 5.34 2.32 5 3 C5.99 3 6.98 3 8 3 C8 3.66 8 4.32 8 5 C5.03 5 2.06 5 -1 5 C-0.67 3.35 -0.34 1.7 0 0 Z " fill="#57A1A7" transform="translate(23,47)"/>
<path d="M0 0 C1.98 0 3.96 0 6 0 C6.33 1.98 6.66 3.96 7 6 C5.35 6 3.7 6 2 6 C1.34 4.02 0.68 2.04 0 0 Z " fill="#56ACAB" transform="translate(69,99)"/>
<path d="M0 0 C0.66 0.33 1.32 0.66 2 1 C1.34 3.31 0.68 5.62 0 8 C-1.32 7.67 -2.64 7.34 -4 7 C-4 5.68 -4 4.36 -4 3 C-3.34 3 -2.68 3 -2 3 C-1.67 2.34 -1.34 1.68 -1 1 C-0.67 0.67 -0.34 0.34 0 0 Z " fill="#5CEFCC" transform="translate(91,68)"/>
<path d="M0 0 C2.475 0.99 2.475 0.99 5 2 C4.01 3.98 3.02 5.96 2 8 C1.34 8 0.68 8 0 8 C-0.33 7.01 -0.66 6.02 -1 5 C-2.32 5 -3.64 5 -5 5 C-5 4.34 -5 3.68 -5 3 C-3.02 3 -1.04 3 1 3 C0.67 2.01 0.34 1.02 0 0 Z " fill="#57A4A7" transform="translate(107,57)"/>
<path d="M0 0 C3.3 0.33 6.6 0.66 10 1 C10 1.99 10 2.98 10 4 C7.25 4.25 7.25 4.25 4 4 C1.625 2 1.625 2 0 0 Z " fill="#273D5E" transform="translate(69,51)"/>
<path d="M0 0 C1.32 1.65 2.64 3.3 4 5 C2.25 6.5625 2.25 6.5625 0 8 C-2.25 7.6875 -2.25 7.6875 -4 7 C-3.01 6.67 -2.02 6.34 -1 6 C-1.33 5.01 -1.66 4.02 -2 3 C-1.34 3 -0.68 3 0 3 C0 2.01 0 1.02 0 0 Z " fill="#4B8794" transform="translate(19,57)"/>
<path d="M0 0 C2.97 0.495 2.97 0.495 6 1 C5.34 2.65 4.68 4.3 4 6 C3.01 6 2.02 6 1 6 C1 5.34 1 4.68 1 4 C0.34 3.67 -0.32 3.34 -1 3 C-0.67 2.01 -0.34 1.02 0 0 Z " fill="#457B8B" transform="translate(103,69)"/>
<path d="M0 0 C1.65 0 3.3 0 5 0 C4.67 1.65 4.34 3.3 4 5 C2.02 5 0.04 5 -2 5 C-2 4.34 -2 3.68 -2 3 C-1.34 2.67 -0.68 2.34 0 2 C0 1.34 0 0.68 0 0 Z " fill="#64BEB9" transform="translate(81,24)"/>
<path d="M0 0 C0.66 0 1.32 0 2 0 C2 0.66 2 1.32 2 2 C2.66 2.33 3.32 2.66 4 3 C2.68 3 1.36 3 0 3 C-0.12375 3.61875 -0.2475 4.2375 -0.375 4.875 C-1 7 -1 7 -3 9 C-3.99 7.68 -4.98 6.36 -6 5 C-5.34 5 -4.68 5 -4 5 C-3.67 4.34 -3.34 3.68 -3 3 C-3 3.66 -3 4.32 -3 5 C-2.34 5 -1.68 5 -1 5 C-0.67 3.35 -0.34 1.7 0 0 Z " fill="#1D3155" transform="translate(38,27)"/>
<path d="M0 0 C0.99 0.66 1.98 1.32 3 2 C2.01 2.495 2.01 2.495 1 3 C1 3.99 1 4.98 1 6 C-0.65 6 -2.3 6 -4 6 C-4 5.01 -4 4.02 -4 3 C-3.34 3 -2.68 3 -2 3 C-2 2.34 -2 1.68 -2 1 C-1.34 0.67 -0.68 0.34 0 0 Z " fill="#4C7D8F" transform="translate(65,20)"/>
<path d="M0 0 C1.65 0 3.3 0 5 0 C5.66 1.65 6.32 3.3 7 5 C5.35 5.33 3.7 5.66 2 6 C2 4.68 2 3.36 2 2 C1.34 2 0.68 2 0 2 C0 1.34 0 0.68 0 0 Z " fill="#59ADAA" transform="translate(40,99)"/>
<path d="M0 0 C0.66 0.66 1.32 1.32 2 2 C1.67 2.66 1.34 3.32 1 4 C1.66 4 2.32 4 3 4 C2.34 5.65 1.68 7.3 1 9 C0.34 8.67 -0.32 8.34 -1 8 C-1.75 5.0625 -1.75 5.0625 -2 2 C-1.34 1.34 -0.68 0.68 0 0 Z " fill="#4F7B91" transform="translate(32,89)"/>
<path d="M0 0 C4.455 1.98 4.455 1.98 9 4 C8.34 4.66 7.68 5.32 7 6 C3.875 5.625 3.875 5.625 1 5 C0.67 3.35 0.34 1.7 0 0 Z " fill="#5CEDCB" transform="translate(72,54)"/>
<path d="M0 0 C0.66 0 1.32 0 2 0 C2 0.66 2 1.32 2 2 C2.99 1.67 3.98 1.34 5 1 C5.33 2.32 5.66 3.64 6 5 C3.36 5 0.72 5 -2 5 C-2 4.34 -2 3.68 -2 3 C-1.34 3 -0.68 3 0 3 C0 2.01 0 1.02 0 0 Z " fill="#507E93" transform="translate(104,50)"/>
<path d="M0 0 C0.99 0 1.98 0 3 0 C3 0.66 3 1.32 3 2 C3.66 2 4.32 2 5 2 C5 2.99 5 3.98 5 5 C3.02 5 1.04 5 -1 5 C-0.67 3.35 -0.34 1.7 0 0 Z " fill="#4A9F9F" transform="translate(93,83)"/>
<path d="M0 0 C1.65 0 3.3 0 5 0 C5 0.66 5 1.32 5 2 C5.66 2.33 6.32 2.66 7 3 C6.67 4.32 6.34 5.64 6 7 C6 6.34 6 5.68 6 5 C4.35 4.67 2.7 4.34 1 4 C0.67 2.68 0.34 1.36 0 0 Z " fill="#1D3253" transform="translate(45,101)"/>
<path d="M0 0 C0.66 0.99 1.32 1.98 2 3 C1.01 3.495 1.01 3.495 0 4 C0.33 4.99 0.66 5.98 1 7 C0.34 7.66 -0.32 8.32 -1 9 C-1.33 7.35 -1.66 5.7 -2 4 C-2.66 4 -3.32 4 -4 4 C-4 3.34 -4 2.68 -4 2 C-2.68 2 -1.36 2 0 2 C0 1.34 0 0.68 0 0 Z " fill="#1E2F54" transform="translate(103,76)"/>
<path d="M0 0 C1.65 0 3.3 0 5 0 C4.67 1.98 4.34 3.96 4 6 C3.67 5.01 3.34 4.02 3 3 C1.68 3 0.36 3 -1 3 C-0.67 2.01 -0.34 1.02 0 0 Z " fill="#36496D" transform="translate(63,106)"/>
<path d="M0 0 C0.66 0 1.32 0 2 0 C2.93423645 3.01031744 3.04449911 3.86650268 2 7 C1.01 6.67 0.02 6.34 -1 6 C-1.6875 3.9375 -1.6875 3.9375 -2 2 C-1.34 2 -0.68 2 0 2 C0 1.34 0 0.68 0 0 Z " fill="#26325A" transform="translate(22,78)"/>
<path d="M0 0 C1.65 0 3.3 0 5 0 C5.33 0.66 5.66 1.32 6 2 C5.360625 2.103125 4.72125 2.20625 4.0625 2.3125 C3.381875 2.539375 2.70125 2.76625 2 3 C1.67 3.99 1.34 4.98 1 6 C0.01 5.67 -0.98 5.34 -2 5 C-1.34 3.35 -0.68 1.7 0 0 Z " fill="#6FE3D0" transform="translate(97,76)"/>
<path d="M0 0 C1.2065625 0.0309375 1.2065625 0.0309375 2.4375 0.0625 C2.4375 1.0525 2.4375 2.0425 2.4375 3.0625 C1.7775 3.0625 1.1175 3.0625 0.4375 3.0625 C0.4375 4.0525 0.4375 5.0425 0.4375 6.0625 C-0.2225 6.0625 -0.8825 6.0625 -1.5625 6.0625 C-2.2225 4.4125 -2.8825 2.7625 -3.5625 1.0625 C-2.5625 0.0625 -2.5625 0.0625 0 0 Z " fill="#62C4BC" transform="translate(31.5625,42.9375)"/>
<path d="M0 0 C3 3.75 3 3.75 3 6 C1.02 5.34 -0.96 4.68 -3 4 C-2.67 3.01 -2.34 2.02 -2 1 C-1.34 0.67 -0.68 0.34 0 0 Z " fill="#303862" transform="translate(61,48)"/>
<path d="M0 0 C1.32 0.66 2.64 1.32 4 2 C4 2.66 4 3.32 4 4 C2.68 4.33 1.36 4.66 0 5 C0.33 6.32 0.66 7.64 1 9 C-0.32 8.34 -1.64 7.68 -3 7 C-2.34 7 -1.68 7 -1 7 C-0.67 4.69 -0.34 2.38 0 0 Z " fill="#1C2C4E" transform="translate(94,32)"/>
<path d="M0 0 C2.5 1.375 2.5 1.375 5 3 C5 3.66 5 4.32 5 5 C3.02 5 1.04 5 -1 5 C-0.67 3.35 -0.34 1.7 0 0 Z " fill="#419393" transform="translate(50,24)"/>
<path d="M0 0 C2.97 0 5.94 0 9 0 C8.67 0.99 8.34 1.98 8 3 C5.69 3 3.38 3 1 3 C0.67 2.01 0.34 1.02 0 0 Z " fill="#69DACA" transform="translate(56,99)"/>
<path d="M0 0 C0 1.32 0 2.64 0 4 C-3.68754757 3.50168276 -5.60490662 2.89932357 -8 0 C-4.71303767 -0.79953138 -3.28976808 -1.09658936 0 0 Z " fill="#203056" transform="translate(22,68)"/>
<path d="M0 0 C1.65 0 3.3 0 5 0 C5 0.99 5 1.98 5 3 C5.66 3 6.32 3 7 3 C6.67 3.99 6.34 4.98 6 6 C5.566875 5.525625 5.13375 5.05125 4.6875 4.5625 C2.97690387 2.76313043 2.97690387 2.76313043 0 2 C0 1.34 0 0.68 0 0 Z " fill="#6EE2CF" transform="translate(19,63)"/>
<path d="M0 0 C0.33 0.66 0.66 1.32 1 2 C1.99 1.67 2.98 1.34 4 1 C6.6875 1.4375 6.6875 1.4375 9 2 C6.08235 3.9451 4.37462715 4.45276317 1 5 C0.67 3.35 0.34 1.7 0 0 Z " fill="#203756" transform="translate(21,50)"/>
<path d="M0 0 C0.99 0.33 1.98 0.66 3 1 C3.6875 3.0625 3.6875 3.0625 4 5 C2.35 5 0.7 5 -1 5 C-1 1 -1 1 0 0 Z " fill="#37456C" transform="translate(48,17)"/>
<path d="M0 0 C0.66 0.33 1.32 0.66 2 1 C1.67 2.65 1.34 4.3 1 6 C0.01 6 -0.98 6 -2 6 C-1.125 1.125 -1.125 1.125 0 0 Z " fill="#446780" transform="translate(88,102)"/>
<path d="M0 0 C0.99 0 1.98 0 3 0 C3.33 1.65 3.66 3.3 4 5 C2.35 5 0.7 5 -1 5 C-0.67 3.35 -0.34 1.7 0 0 Z " fill="#5AB7B3" transform="translate(87,96)"/>
<path d="M0 0 C0.99 0.33 1.98 0.66 3 1 C2.67 1.99 2.34 2.98 2 4 C0.35 4.33 -1.3 4.66 -3 5 C-3 4.01 -3 3.02 -3 2 C-2.01 1.34 -1.02 0.68 0 0 Z " fill="#374B6E" transform="translate(99,87)"/>
<path d="M0 0 C0.66 0 1.32 0 2 0 C2 0.99 2 1.98 2 3 C2.66 3 3.32 3 4 3 C3.67 4.32 3.34 5.64 3 7 C3 6.01 3 5.02 3 4 C1.35 3.67 -0.3 3.34 -2 3 C-1.34 2.01 -0.68 1.02 0 0 Z " fill="#262C56" transform="translate(98,69)"/>
<path d="M0 0 C0.99 0.33 1.98 0.66 3 1 C3 2.65 3 4.3 3 6 C2.01 5.67 1.02 5.34 0 5 C-0.75 3 -0.75 3 -1 1 C-0.67 0.67 -0.34 0.34 0 0 Z " fill="#52ACA9" transform="translate(90,33)"/>
<path d="M0 0 C1.65 0 3.3 0 5 0 C4.01 0.33 3.02 0.66 2 1 C2 1.66 2 2.32 2 3 C2.66 3 3.32 3 4 3 C4 3.66 4 4.32 4 5 C2.35 5 0.7 5 -1 5 C-0.67 3.35 -0.34 1.7 0 0 Z " fill="#5CA1AA" transform="translate(87,24)"/>
</svg>
