<?xml version="1.0" encoding="UTF-8"?>
<svg version="1.1" xmlns="http://www.w3.org/2000/svg" width="1000" height="1000">
<path d="M0 0 C1.31592636 -0.00705963 2.63185272 -0.01411926 3.98765564 -0.02139282 C8.21443229 -0.04093212 12.44115117 -0.04608491 16.66796875 -0.046875 C17.74794884 -0.04731686 17.74794884 -0.04731686 18.8497467 -0.04776764 C39.99099425 -0.04916596 60.89566788 0.08500029 81.85546875 3.203125 C83.28351437 3.40927858 84.71157498 3.61532838 86.13964844 3.82128906 C138.31843404 11.45001639 188.4020818 26.19281247 235.85546875 49.203125 C237.70566404 50.08216835 239.55592258 50.96107858 241.40625 51.83984375 C262.84590781 62.1592026 283.36518542 74.57028187 302.85546875 88.203125 C303.96559326 88.9775293 303.96559326 88.9775293 305.09814453 89.76757812 C316.0665006 97.45827635 326.59303666 105.5957525 336.85546875 114.203125 C337.46374512 114.71230469 338.07202148 115.22148438 338.69873047 115.74609375 C351.60726277 126.58856406 363.7957909 138.05468486 375.73046875 149.953125 C376.22892303 150.44890045 376.72737732 150.9446759 377.24093628 151.45547485 C382.99975272 157.19080287 388.59349309 163.00535098 393.85546875 169.203125 C394.8400026 170.33302842 395.82564736 171.46196498 396.8125 172.58984375 C425.3451181 205.47689658 448.43330793 242.31484762 467.85546875 281.203125 C468.28553223 282.05535645 468.7155957 282.90758789 469.15869141 283.78564453 C499.14826738 343.48059365 516.81909032 414.33958437 517.05859375 481.34765625 C517.06565338 482.66358261 517.07271301 483.97950897 517.07998657 485.33531189 C517.09952587 489.56208854 517.10467866 493.78880742 517.10546875 498.015625 C517.10591061 499.09560509 517.10591061 499.09560509 517.10636139 500.19740295 C517.10775971 521.3386505 516.97359346 542.24332413 513.85546875 563.203125 C513.64931517 564.63117062 513.44326537 566.05923123 513.23730469 567.48730469 C505.60857736 619.66609029 490.86578128 669.74973805 467.85546875 717.203125 C466.9764254 719.05332029 466.09751517 720.90357883 465.21875 722.75390625 C454.89939115 744.19356406 442.48831188 764.71284167 428.85546875 784.203125 C428.33919922 784.94320801 427.82292969 785.68329102 427.29101562 786.44580078 C419.6003174 797.41415685 411.46284125 807.94069291 402.85546875 818.203125 C402.09169922 819.11553955 402.09169922 819.11553955 401.3125 820.04638672 C390.47002969 832.95491902 379.00390889 845.14344715 367.10546875 857.078125 C366.6096933 857.57657928 366.11391785 858.07503357 365.6031189 858.58859253 C359.86779088 864.34740897 354.05324277 869.94114934 347.85546875 875.203125 C346.72556533 876.18765885 345.59662877 877.17330361 344.46875 878.16015625 C311.58169717 906.69277435 274.74374613 929.78096418 235.85546875 949.203125 C235.0032373 949.63318848 234.15100586 950.06325195 233.27294922 950.50634766 C173.5780001 980.49592363 102.71900938 998.16674657 35.7109375 998.40625 C34.39501114 998.41330963 33.07908478 998.42036926 31.72328186 998.42764282 C27.49650521 998.44718212 23.26978633 998.45233491 19.04296875 998.453125 C17.96298866 998.45356686 17.96298866 998.45356686 16.8611908 998.45401764 C-4.28005675 998.45541596 -25.18473038 998.32124971 -46.14453125 995.203125 C-47.57257687 994.99697142 -49.00063748 994.79092162 -50.42871094 994.58496094 C-102.60749654 986.95623361 -152.6911443 972.21343753 -200.14453125 949.203125 C-201.99472654 948.32408165 -203.84498508 947.44517142 -205.6953125 946.56640625 C-227.13497031 936.2470474 -247.65424792 923.83596813 -267.14453125 910.203125 C-267.88461426 909.68685547 -268.62469727 909.17058594 -269.38720703 908.63867188 C-280.3555631 900.94797365 -290.88209916 892.8104975 -301.14453125 884.203125 C-302.0569458 883.43935547 -302.0569458 883.43935547 -302.98779297 882.66015625 C-315.89632527 871.81768594 -328.0848534 860.35156514 -340.01953125 848.453125 C-340.51798553 847.95734955 -341.01643982 847.4615741 -341.52999878 846.95077515 C-347.28881522 841.21544713 -352.88255559 835.40089902 -358.14453125 829.203125 C-359.1290651 828.07322158 -360.11470986 826.94428502 -361.1015625 825.81640625 C-389.6341806 792.92935342 -412.72237043 756.09140238 -432.14453125 717.203125 C-432.57459473 716.35089355 -433.0046582 715.49866211 -433.44775391 714.62060547 C-463.43732988 654.92565635 -481.10815282 584.06666563 -481.34765625 517.05859375 C-481.35471588 515.74266739 -481.36177551 514.42674103 -481.36904907 513.07093811 C-481.38858837 508.84416146 -481.39374116 504.61744258 -481.39453125 500.390625 C-481.39482582 499.67063828 -481.39512039 498.95065155 -481.39542389 498.20884705 C-481.39682221 477.0675995 -481.26265596 456.16292587 -478.14453125 435.203125 C-477.93837767 433.77507938 -477.73232787 432.34701877 -477.52636719 430.91894531 C-469.89763986 378.74015971 -455.15484378 328.65651195 -432.14453125 281.203125 C-431.2654879 279.35292971 -430.38657767 277.50267117 -429.5078125 275.65234375 C-419.18845365 254.21268594 -406.77737438 233.69340833 -393.14453125 214.203125 C-392.37012695 213.09300049 -392.37012695 213.09300049 -391.58007812 211.96044922 C-383.8893799 200.99209315 -375.75190375 190.46555709 -367.14453125 180.203125 C-366.63535156 179.59484863 -366.12617188 178.98657227 -365.6015625 178.35986328 C-354.75909219 165.45133098 -343.29297139 153.26280285 -331.39453125 141.328125 C-330.8987558 140.82967072 -330.40298035 140.33121643 -329.8921814 139.81765747 C-324.15685338 134.05884103 -318.34230527 128.46510066 -312.14453125 123.203125 C-311.01462783 122.21859115 -309.88569127 121.23294639 -308.7578125 120.24609375 C-275.87075967 91.71347565 -239.03280863 68.62528582 -200.14453125 49.203125 C-199.2922998 48.77306152 -198.44006836 48.34299805 -197.56201172 47.89990234 C-137.8670626 17.91032637 -67.00807188 0.23950343 0 0 Z " fill="#FEFEFE" transform="translate(481.14453125,0.796875)"/>
<path d="M0 0 C0.99966797 0.45310547 1.99933594 0.90621094 3.02929688 1.37304688 C26.18552504 11.96996485 48.17339986 24.23543186 69.12841797 38.70996094 C70.74178609 39.822019 72.36959966 40.91306644 74 42 C72.57070703 46.2878789 69.36541807 47.59632543 65.6875 49.875 C64.1285841 50.86147026 62.57000402 51.84847136 61.01171875 52.8359375 C60.19106934 53.3525293 59.37041992 53.86912109 58.52490234 54.40136719 C54.32405936 57.06111577 50.16408025 59.78320633 46 62.5 C44.30621909 63.60191536 42.61220981 64.70347977 40.91796875 65.8046875 C40.09345215 66.34061523 39.26893555 66.87654297 38.41943359 67.42871094 C32.64377615 71.17968281 26.86003776 74.91817393 21.07666016 78.65722656 C17.55051684 80.93723929 14.02531191 83.21870206 10.5 85.5 C9.0833377 86.41667341 7.66667103 87.33334008 6.25 88.25 C5.54875 88.70375 4.8475 89.1575 4.125 89.625 C2 91 -0.125 92.375 -2.25 93.75 C-2.9522168 94.20455566 -3.65443359 94.65911133 -4.37792969 95.12744141 C-5.78416655 96.03699774 -7.1910603 96.94553934 -8.59863281 97.85302734 C-12.30610934 100.24525291 -15.99804101 102.65792935 -19.671875 105.1015625 C-20.43822266 105.60751953 -21.20457031 106.11347656 -21.99414062 106.63476562 C-23.46066979 107.60356368 -24.92316441 108.57850673 -26.38085938 109.56054688 C-33.1654537 114.02426928 -33.1654537 114.02426928 -37 114 C-39.54534028 112.9782789 -41.83719595 111.89908317 -44.25 110.625 C-54.56537062 105.47421768 -65.32294474 101.72915202 -76.20654297 97.96923828 C-78.53149009 97.16255762 -80.84736481 96.33673707 -83.16015625 95.49609375 C-109.11696674 86.32641208 -138.03680089 81.99349877 -165.51953125 81.76171875 C-166.97302727 81.74709595 -166.97302727 81.74709595 -168.45588684 81.73217773 C-190.3101247 81.55760482 -211.46937511 81.87097849 -233 86 C-233.97356445 86.18191895 -234.94712891 86.36383789 -235.95019531 86.55126953 C-259.064021 90.99990574 -281.50505345 98.47998834 -303 108 C-303.82048828 108.36206543 -304.64097656 108.72413086 -305.48632812 109.09716797 C-345.05054282 126.74559975 -382.84866138 153.92347322 -411 187 C-411.83402344 187.94617188 -412.66804687 188.89234375 -413.52734375 189.8671875 C-446.56189833 227.63639486 -468.63836314 273.62164658 -481 322 C-481.21736816 322.83692383 -481.43473633 323.67384766 -481.65869141 324.53613281 C-495.6525816 379.6864431 -492.91050298 445.43835998 -471 498 C-470.45351807 497.46310547 -469.90703613 496.92621094 -469.34399414 496.37304688 C-468.04052734 495.09244792 -466.73706055 493.81184896 -465.43359375 492.53125 C-463.49327341 490.51306769 -461.66615138 488.46911837 -459.84375 486.34765625 C-455.47458043 481.31933209 -450.78155932 476.63531825 -446.0625 471.9375 C-445.20720703 471.07833984 -444.35191406 470.21917969 -443.47070312 469.33398438 C-438.47524645 464.34614854 -433.35590032 459.59563962 -428 455 C-426.39231627 453.54554483 -424.78760285 452.08779105 -423.1875 450.625 C-419.80234547 447.5788746 -416.38081407 444.59411946 -412.875 441.6875 C-411.98039063 440.94242188 -411.08578125 440.19734375 -410.1640625 439.4296875 C-407.71494225 437.54900504 -405.31379083 435.89901489 -402.7109375 434.2578125 C-401.60516357 433.52558472 -401.60516357 433.52558472 -400.47705078 432.77856445 C-399.02588652 431.82326502 -397.54762525 430.90755866 -396.04248047 430.03979492 C-393.76036729 428.50400037 -392.41833374 427.36881821 -391 425 C-390.72445989 421.51280357 -391.06252387 418.35628833 -391.50488281 414.88696289 C-392.3430704 408.30669437 -392.2434282 401.6868768 -392.25 395.0625 C-392.25100708 394.34755371 -392.25201416 393.63260742 -392.25305176 392.89599609 C-392.24094856 380.08369096 -391.33492467 367.61977242 -389 355 C-388.86609863 354.26539551 -388.73219727 353.53079102 -388.59423828 352.77392578 C-381.07714658 313.32969549 -361.45724345 275.41149043 -333.52197266 246.57324219 C-332.45278298 245.46803554 -331.3905453 244.35608155 -330.33349609 243.23925781 C-295.48985128 206.47113748 -243.64173045 180.21856516 -192.42773438 178.82299805 C-190.81648788 178.7969153 -189.2051377 178.77672642 -187.59375 178.76171875 C-186.71968506 178.75183426 -185.84562012 178.74194977 -184.94506836 178.73176575 C-124.52538979 178.18943664 -69.99529841 196.88787503 -26 239 C-25.44699219 239.52045898 -24.89398437 240.04091797 -24.32421875 240.57714844 C14.18976248 276.93938918 38.18288421 330.0789449 40 383 C40.04271865 386.66745409 40.03960049 390.33255423 40 394 C34.06439859 393.37541194 28.18449158 392.60947732 22.29296875 391.66015625 C20.64743263 391.39964828 19.0018414 391.13948816 17.35620117 390.87963867 C16.51108978 390.74576752 15.66597839 390.61189636 14.79525757 390.47396851 C-12.27750515 386.20225653 -38.95423782 383.77670622 -66.375 383.75 C-67.29544098 383.74832825 -68.21588196 383.74665649 -69.16421509 383.74493408 C-105.10948539 383.74107012 -140.57972572 387.92902995 -175.625 395.8125 C-176.40780334 395.98807434 -177.19060669 396.16364868 -177.99713135 396.34454346 C-242.77552462 410.90427417 -304.18830617 436.16537948 -359 474 C-359.66032227 474.45310547 -360.32064453 474.90621094 -361.00097656 475.37304688 C-381.14303693 489.23200111 -399.93830954 504.54124879 -418 521 C-418.88558594 521.79277344 -419.77117187 522.58554687 -420.68359375 523.40234375 C-426.89074666 529.00309909 -432.89003486 534.78622092 -438.8125 540.6875 C-439.51769775 541.38810547 -440.22289551 542.08871094 -440.94946289 542.81054688 C-445.50371905 547.37823108 -449.79756706 552.1088058 -454 557 C-455.04555358 558.19126525 -456.09239781 559.38139915 -457.140625 560.5703125 C-463.8842653 568.26279594 -470.40279474 576.08002065 -476.62304688 584.20214844 C-477.55086123 585.4135713 -478.48192373 586.62251251 -479.41601562 587.82910156 C-492.68540918 604.98594263 -504.29096983 623.21706377 -515.59423828 641.70947266 C-517.70778176 645.15324913 -519.8512979 648.57808076 -522 652 C-526.35442328 647.97930989 -529.51653933 643.5756123 -532.75 638.625 C-533.27513184 637.82771484 -533.80026367 637.03042969 -534.34130859 636.20898438 C-539.10691666 628.92638088 -543.64613117 621.53487445 -548 614 C-548.3727002 613.36288086 -548.74540039 612.72576172 -549.12939453 612.06933594 C-561.76835673 590.37965937 -572.36875364 567.63103554 -580.90039062 544.03320312 C-581.94795583 541.14356056 -583.02592076 538.26696224 -584.109375 535.390625 C-590.06909735 519.27095421 -594.17202681 502.72736752 -598 486 C-598.25410645 484.90381348 -598.50821289 483.80762695 -598.77001953 482.67822266 C-618.6552379 395.05336532 -606.31023496 299.46293746 -540 162 C-529.46428557 145.53758499 -517.57401133 129.95287834 -505 115 C-504.59007812 114.49984375 -504.18015625 113.9996875 -503.7578125 113.484375 C-496.09090162 104.13890967 -487.72784185 95.53941031 -479.1875 87 C-478.64593262 86.45752625 -478.10436523 85.91505249 -477.54638672 85.35614014 C-471.5445185 79.3554076 -465.48316177 73.48511662 -459 68 C-457.97848299 67.11146247 -456.95761121 66.2221824 -455.9375 65.33203125 C-415.200783 30.39162904 -367.47155639 3.8968208 -317 -14 C-316.06720215 -14.33338379 -315.1344043 -14.66676758 -314.17333984 -15.01025391 C-301.74672169 -19.3874677 -289.03226438 -22.60750684 -276.25 -25.75 C-275.47825439 -25.94104309 -274.70650879 -26.13208618 -273.91137695 -26.32891846 C-262.67866599 -29.09342872 -251.43619902 -31.26861671 -240 -33 C-238.71109863 -33.19996582 -237.42219727 -33.39993164 -236.09423828 -33.60595703 C-156.80783061 -45.37671096 -72.87968476 -33.11804729 0 0 Z " fill="#041742" transform="translate(678,111)"/>
<path d="M0 0 C0.66 0 1.32 0 2 0 C3.57707945 2.09248506 5.01751008 4.17820495 6.4375 6.375 C7.09903076 7.38614868 7.09903076 7.38614868 7.77392578 8.41772461 C9.19487431 10.60420353 10.60027427 12.79987995 12 15 C12.44585449 15.70044434 12.89170898 16.40088867 13.35107422 17.12255859 C39.31499481 58.19483606 58.62132965 102.72688142 70 150 C70.20866699 150.86641113 70.41733398 151.73282227 70.63232422 152.62548828 C92.29870114 244.06383145 82.40520824 344.44353385 20.73583984 473.22998047 C6.00216768 496.74168854 -10.02306548 518.97214069 -28.734375 539.48828125 C-30.00026733 540.89167568 -31.2591553 542.30177478 -32.49047852 543.7355957 C-37.23793925 549.25607482 -42.27798593 554.42757456 -47.4375 559.5625 C-48.24509766 560.37396484 -49.05269531 561.18542969 -49.88476562 562.02148438 C-54.76100053 566.88986072 -59.76709341 571.51973828 -65 576 C-66.04828931 576.92548381 -67.09524192 577.85248469 -68.140625 578.78125 C-128.11180557 631.49428127 -203.52279047 665.0503328 -282 678 C-282.91023926 678.15452637 -283.82047852 678.30905273 -284.75830078 678.46826172 C-340.38947297 687.79432472 -397.32928243 683.73888235 -452 671 C-453.1255127 670.73848145 -454.25102539 670.47696289 -455.41064453 670.20751953 C-504.42804599 658.62519909 -552.11240691 637.10665387 -593.4375 608.3125 C-594.30701294 607.71562378 -594.30701294 607.71562378 -595.1940918 607.10668945 C-596.74609375 605.98828125 -596.74609375 605.98828125 -599 604 C-599 603.01 -599 602.02 -599 601 C-597.48144531 599.67236328 -597.48144531 599.67236328 -595.328125 598.3203125 C-594.12893433 597.55533447 -594.12893433 597.55533447 -592.90551758 596.77490234 C-592.02919678 596.23043457 -591.15287598 595.6859668 -590.25 595.125 C-588.40476322 593.95341585 -586.55971636 592.78153252 -584.71484375 591.609375 C-583.28954346 590.7112207 -583.28954346 590.7112207 -581.83544922 589.79492188 C-577.46734446 587.02978444 -573.14126661 584.20115289 -568.8125 581.375 C-567.14614052 580.29119422 -565.47947678 579.20785608 -563.8125 578.125 C-563.00683594 577.60164062 -562.20117188 577.07828125 -561.37109375 576.5390625 C-555.61075289 572.80006036 -549.84377643 569.07131284 -544.07666016 565.34277344 C-541.97142031 563.9815203 -539.86650748 562.61976305 -537.76171875 561.2578125 C-537.05861572 560.802854 -536.3555127 560.34789551 -535.63110352 559.87915039 C-534.21355303 558.9617781 -532.79607224 558.04429812 -531.37866211 557.12670898 C-527.81437197 554.819583 -524.24856123 552.51487411 -520.6796875 550.21484375 C-519.96723877 549.7549707 -519.25479004 549.29509766 -518.52075195 548.82128906 C-517.10129783 547.90588732 -515.6805794 546.9924428 -514.25854492 546.08105469 C-510.72305995 543.80551043 -507.23839628 541.48320267 -503.80859375 539.05078125 C-503.13586426 538.580354 -502.46313477 538.10992676 -501.77001953 537.62524414 C-500.50151263 536.73406188 -499.24257901 535.82903041 -497.99560547 534.90795898 C-495.28774233 533.01781689 -493.47308042 532.00322702 -490.13671875 531.98046875 C-485.91894469 533.35137663 -482.00055219 535.15863698 -478 537.0625 C-437.7686461 555.58804881 -394.47685319 564.2156721 -350.3125 564.25 C-349.40881683 564.25100708 -348.50513367 564.25201416 -347.57406616 564.25305176 C-332.51595795 564.24174924 -317.88743735 563.41694109 -303 561 C-302.04689941 560.85014648 -301.09379883 560.70029297 -300.11181641 560.54589844 C-293.70660188 559.52062875 -287.3506443 558.31964608 -281 557 C-280.22156738 556.84370117 -279.44313477 556.68740234 -278.64111328 556.52636719 C-213.53669575 543.13678504 -148.5103587 502.60816206 -108 450 C-106.92631782 448.66388499 -105.85062473 447.32938458 -104.7734375 445.99609375 C-80.48105065 415.691836 -62.99317879 380.83656756 -51 344 C-50.48928955 342.43427246 -50.48928955 342.43427246 -49.96826172 340.83691406 C-44.34114073 323.19528212 -41.42018456 305.30139565 -39 287 C-38.86722656 286.04738281 -38.73445312 285.09476563 -38.59765625 284.11328125 C-35.07008751 258.23123193 -35.64579202 230.71811231 -40 205 C-40.24943359 203.50895752 -40.24943359 203.50895752 -40.50390625 201.98779297 C-45.53442455 172.85270782 -52.87959219 141.72233681 -67.7890625 115.9050293 C-69.2466972 113.26672512 -70.12112045 111.62818402 -69.5390625 108.609375 C-67.31693261 104.84190606 -65.05104513 101.11831355 -62.6875 97.4375 C-62.15842041 96.60686035 -61.62934082 95.7762207 -61.08422852 94.92041016 C-55.62116877 86.36276656 -50.07983901 77.85565688 -44.53320312 69.35205078 C-36.98173032 57.76751431 -29.51786794 46.1276462 -22.07226562 34.47485352 C-17.11130699 26.71772896 -12.11121759 18.9870352 -7.07275391 11.2800293 C-6.5782373 10.52246338 -6.0837207 9.76489746 -5.57421875 8.984375 C-4.89431885 7.94506836 -4.89431885 7.94506836 -4.20068359 6.88476562 C-3.17322155 5.27191346 -2.21394262 3.61597121 -1.26953125 1.953125 C-0.85058594 1.30859375 -0.43164062 0.6640625 0 0 Z " fill="#17B3C5" transform="translate(852,255)"/>
<path d="M0 0 C-0.46195258 7.34345312 -1.82751212 13.98181426 -4 21 C-4.20834473 21.70463379 -4.41668945 22.40926758 -4.63134766 23.13525391 C-12.26781427 48.77994562 -24.35784258 73.01641021 -41 94 C-42.09634766 95.38638672 -42.09634766 95.38638672 -43.21484375 96.80078125 C-50.81349702 106.24234164 -58.67597473 115.23539359 -68 123 C-69.45019531 124.26457031 -69.45019531 124.26457031 -70.9296875 125.5546875 C-78.2651361 131.93304644 -85.83431161 137.69896453 -94 143 C-94.83772949 143.54454834 -94.83772949 143.54454834 -95.69238281 144.10009766 C-119.16744898 159.19311382 -146.37081249 170.25203507 -174 174.625 C-174.71671875 174.74617187 -175.4334375 174.86734375 -176.171875 174.9921875 C-187.84924227 176.89700627 -199.44094698 177.21445649 -211.24829102 177.24023438 C-213.90088155 177.24986702 -216.55267075 177.28094427 -219.20507812 177.3125 C-235.87159309 177.41723023 -251.92896806 175.30567261 -268 170.8125 C-269.09465576 170.50989258 -270.18931152 170.20728516 -271.31713867 169.89550781 C-300.49446426 161.58767623 -328.13954985 147.02132973 -351 127 C-351.77859375 126.33097656 -352.5571875 125.66195312 -353.359375 124.97265625 C-355.95441163 122.69563881 -358.48402781 120.36423754 -361 118 C-361.8355542 117.21544434 -361.8355542 117.21544434 -362.68798828 116.41503906 C-370.17519928 109.32443483 -377.08874717 101.99793618 -383.375 93.8125 C-383.92841064 93.09384766 -384.48182129 92.37519531 -385.05200195 91.63476562 C-387.45608147 88.4175922 -389.21459428 85.99568293 -390 82 C-378.62937181 72.72453555 -366.38153049 64.84735229 -354 57 C-353.31180176 56.56300781 -352.62360352 56.12601563 -351.91455078 55.67578125 C-347.67261721 53.0036253 -343.36350805 50.46817867 -339 48 C-337.66654541 47.24517334 -337.66654541 47.24517334 -336.30615234 46.47509766 C-246.11628166 -4.16532589 -144.7296106 -18.65576339 0 0 Z " fill="#15B0CA" transform="translate(714,545)"/>
</svg>
