<?xml version="1.0" encoding="UTF-8"?>
<svg version="1.1" xmlns="http://www.w3.org/2000/svg" width="64" height="64">
<path d="M0 0 C21.12 0 42.24 0 64 0 C64 21.12 64 42.24 64 64 C42.88 64 21.76 64 0 64 C0 42.88 0 21.76 0 0 Z " fill="#1B1B1A" transform="translate(0,0)"/>
<path d="M0 0 C1.83203125 1.984375 1.83203125 1.984375 2.0390625 5.890625 C1.92880864 7.42355215 1.79644602 8.95501453 1.64453125 10.484375 C1.58716797 11.25652344 1.52980469 12.02867188 1.47070312 12.82421875 C1.21119008 16.0444129 0.85669418 18.9103862 -0.16796875 21.984375 C1.7512843 24.33012873 2.85408458 24.99080722 5.83203125 25.859375 C8.83203125 26.984375 8.83203125 26.984375 10.76953125 29.359375 C11.95247173 32.28193384 11.72546242 33.0884257 10.83203125 35.984375 C6.15063871 36.00902788 1.46928366 36.02721239 -3.2121582 36.03930664 C-4.80591489 36.04434657 -6.39966694 36.0511785 -7.9934082 36.05981445 C-10.27947128 36.07189499 -12.56547342 36.07760655 -14.8515625 36.08203125 C-15.56823593 36.08719254 -16.28490936 36.09235382 -17.02330017 36.09767151 C-18.73860547 36.09786763 -20.45378141 36.04629507 -22.16796875 35.984375 C-23.16796875 34.984375 -23.16796875 34.984375 -23.54296875 32.671875 C-23.16796875 29.984375 -23.16796875 29.984375 -20.98046875 27.796875 C-18.40932675 26.13991682 -16.05292347 24.97350233 -13.16796875 23.984375 C-13.79866224 19.26975079 -13.79866224 19.26975079 -14.73046875 14.609375 C-16.37950721 4.71514423 -16.37950721 4.71514423 -13.41796875 0.484375 C-8.72529065 -2.64407707 -5.07311301 -2.37659348 0 0 Z " fill="#6C587B" transform="translate(37.16796875,15.015625)"/>
<path d="M0 0 C1.76923828 0.04060547 1.76923828 0.04060547 3.57421875 0.08203125 C4.47785156 0.11683594 5.38148437 0.15164062 6.3125 0.1875 C6.3125 0.8475 6.3125 1.5075 6.3125 2.1875 C7.09625 1.8575 7.88 1.5275 8.6875 1.1875 C13.28715314 -0.08136983 17.57855976 -0.63760578 22.3125 0.1875 C24.5 2.4375 24.5 2.4375 25.3125 5.1875 C24.86328125 7.359375 24.86328125 7.359375 24.3125 9.1875 C19.63110746 9.21215288 14.94975241 9.23033739 10.26831055 9.24243164 C8.67455386 9.24747157 7.08080181 9.2543035 5.48706055 9.26293945 C3.20099747 9.27501999 0.91499533 9.28073155 -1.37109375 9.28515625 C-2.08776718 9.29031754 -2.80444061 9.29547882 -3.54283142 9.30079651 C-5.25813672 9.30099263 -6.97331266 9.24942007 -8.6875 9.1875 C-9.6875 8.1875 -9.6875 8.1875 -9.9375 5.8125 C-9.6875 3.1875 -9.6875 3.1875 -8.58984375 1.53515625 C-5.75519195 -0.47296464 -3.42226551 -0.10165145 0 0 Z " fill="#A05D81" transform="translate(23.6875,41.8125)"/>
<path d="M0 0 C0.99 0 1.98 0 3 0 C3 2.64 3 5.28 3 8 C2.01 8.495 2.01 8.495 1 9 C1 9.66 1 10.32 1 11 C1.33 10.34 1.66 9.68 2 9 C2.66 9 3.32 9 4 9 C4.33 8.01 4.66 7.02 5 6 C6.65 5.67 8.3 5.34 10 5 C10.33 5.66 10.66 6.32 11 7 C10.01 7.495 10.01 7.495 9 8 C9 10.64 9 13.28 9 16 C8.01 15.67 7.02 15.34 6 15 C5.67 16.32 5.34 17.64 5 19 C5.66 19 6.32 19 7 19 C8.25541557 22.76624671 7.37061958 24.37188934 6 28 C5.67 27.34 5.34 26.68 5 26 C1.37 26 -2.26 26 -6 26 C-3 24 -3 24 -1 23 C-1.63877452 18.25592153 -1.63877452 18.25592153 -2.5625 13.5625 C-3.16911185 10.00948776 -3.06106925 6.60308596 -3 3 C-1.68 3 -0.36 3 1 3 C1.33 2.34 1.66 1.68 2 1 C1.34 0.67 0.68 0.34 0 0 Z " fill="#483D72" transform="translate(25,16)"/>
<path d="M0 0 C-0.99 0.495 -0.99 0.495 -2 1 C-1.87625 2.6396875 -1.87625 2.6396875 -1.75 4.3125 C-2 8 -2 8 -3.875 9.9375 C-6 11 -6 11 -8 11 C-8.66 12.32 -9.32 13.64 -10 15 C-9.67 13.35 -9.34 11.7 -9 10 C-8.34 10 -7.68 10 -7 10 C-7 7.36 -7 4.72 -7 2 C-8.29633621 3.06645115 -8.29633621 3.06645115 -8.0625 5.5625 C-8.041875 6.366875 -8.02125 7.17125 -8 8 C-8.33 7.01 -8.66 6.02 -9 5 C-11.01508358 4.26676204 -11.01508358 4.26676204 -13 4 C-8.70699742 -0.75296714 -6.19220493 -1.54805123 0 0 Z " fill="#6863B4" transform="translate(35,14)"/>
<path d="M0 0 C0.99 0 1.98 0 3 0 C3 2.64 3 5.28 3 8 C2.01 8.495 2.01 8.495 1 9 C1.185625 9.78375 1.37125 10.5675 1.5625 11.375 C2 14 2 14 1 16 C-0.32 15.67 -1.64 15.34 -3 15 C-3 11.04 -3 7.08 -3 3 C-1.68 3 -0.36 3 1 3 C1.33 2.34 1.66 1.68 2 1 C1.34 0.67 0.68 0.34 0 0 Z " fill="#41325F" transform="translate(25,16)"/>
<path d="M0 0 C1.65 0.33 3.3 0.66 5 1 C6.04167441 5.09725269 5.94409525 8.61495224 5.5625 12.8125 C5.46066406 13.97394531 5.35882813 15.13539062 5.25390625 16.33203125 C5.17011719 17.21246094 5.08632813 18.09289062 5 19 C3.09391902 15.78817851 2.77733753 13.46117397 2.875 9.75 C2.90207031 8.41195313 2.90207031 8.41195313 2.9296875 7.046875 C2.95289063 6.37140625 2.97609375 5.6959375 3 5 C2.67 5.33 2.34 5.66 2 6 C1.01 6.495 1.01 6.495 0 7 C-0.93423645 3.98968256 -1.04449911 3.13349732 0 0 Z " fill="#B36F7E" transform="translate(33,15)"/>
<path d="M0 0 C2 0 2 0 3.5 1.375 C3.995 1.91125 4.49 2.4475 5 3 C5.66 3.66 6.32 4.32 7 5 C3.12315913 6.19287411 0.08378077 7 -4 7 C-3.01595171 4.04785514 -2.01178391 2.33366933 0 0 Z " fill="#307DBB" transform="translate(35,37)"/>
<path d="M0 0 C0.99 0.33 1.98 0.66 3 1 C4.0257259 5.41062136 4.03684712 7.92630576 2 12 C0.57055055 9.64561267 -0.08661261 8.51967567 0.375 5.75 C0.58125 5.1725 0.7875 4.595 1 4 C0.34 4 -0.32 4 -1 4 C-0.67 2.68 -0.34 1.36 0 0 Z " fill="#5F78AF" transform="translate(31,31)"/>
<path d="M0 0 C2 1 2 1 4 3 C4 3.99 4 4.98 4 6 C0.7 6 -2.6 6 -6 6 C-3 4 -3 4 -1 3 C-0.67 2.01 -0.34 1.02 0 0 Z " fill="#331F5D" transform="translate(25,36)"/>
<path d="M0 0 C1.485 0.99 1.485 0.99 3 2 C2.67 4.31 2.34 6.62 2 9 C1.01 9.33 0.02 9.66 -1 10 C-0.835 9.236875 -0.67 8.47375 -0.5 7.6875 C0.09145396 4.96403764 0.09145396 4.96403764 0 2 C0 1.34 0 0.68 0 0 Z " fill="#587595" transform="translate(34,18)"/>
<path d="M0 0 C1.32 0.33 2.64 0.66 4 1 C4.1875 3.875 4.1875 3.875 4 7 C3.01 7.66 2.02 8.32 1 9 C-0.06546953 5.8035914 -0.07427838 3.34252724 0 0 Z " fill="#3D68A1" transform="translate(29,15)"/>
<path d="M0 0 C1.32 0 2.64 0 4 0 C3.39816251 2.02045442 2.72693904 4.02111039 2 6 C1.01 6.495 1.01 6.495 0 7 C-0.93423645 3.98968256 -1.04449911 3.13349732 0 0 Z " fill="#B18976" transform="translate(33,15)"/>
<path d="M0 0 C0.66 0 1.32 0 2 0 C2.33 0.33 2.66 0.66 3 1 C3.66 1.33 4.32 1.66 5 2 C4.67 3.32 4.34 4.64 4 6 C2.68 5.34 1.36 4.68 0 4 C0 2.68 0 1.36 0 0 Z " fill="#5F5AA1" transform="translate(24,32)"/>
</svg>
