<?xml version="1.0" encoding="UTF-8"?>
<svg version="1.1" xmlns="http://www.w3.org/2000/svg" width="64" height="64">
<path d="M0 0 C21.12 0 42.24 0 64 0 C64 21.12 64 42.24 64 64 C42.88 64 21.76 64 0 64 C0 42.88 0 21.76 0 0 Z " fill="#010102" transform="translate(0,0)"/>
<path d="M0 0 C2.875 1.5 2.875 1.5 5 4 C6.38322859 8.96334964 6.52286928 10.85370966 4.375 15.5625 C3.60865226 16.72541929 2.81523976 17.87081699 2 19 C1.54367188 19.65742188 1.08734375 20.31484375 0.6171875 20.9921875 C-0.5668548 22.67691055 -1.78080436 24.34053927 -3 26 C0.63 26.99 4.26 27.98 8 29 C8 29.66 8 30.32 8 31 C9.28197266 31.18175781 9.28197266 31.18175781 10.58984375 31.3671875 C11.69457031 31.53476562 12.79929688 31.70234375 13.9375 31.875 C15.59072266 32.11863281 15.59072266 32.11863281 17.27734375 32.3671875 C18.17582031 32.57601562 19.07429688 32.78484375 20 33 C22.83627298 38.67254597 21 45.6579008 21 52 C3.18 52 -14.64 52 -33 52 C-30.03 47.545 -30.03 47.545 -27 43 C-26.34 43 -25.68 43 -25 43 C-23.94729537 40.36893239 -23.94729537 40.36893239 -24 39 C-24.7115625 38.4740625 -24.7115625 38.4740625 -25.4375 37.9375 C-27.36117008 35.5521491 -28.04823552 33.39830774 -28.30859375 30.3515625 C-27.627402 25.16070888 -23.9999014 21.12878416 -21 17 C-20.1457386 15.76488316 -19.2942896 14.52781753 -18.4453125 13.2890625 C-17.56912447 12.02505885 -16.69153383 10.76202624 -15.8125 9.5 C-15.39701904 8.9004248 -14.98153809 8.30084961 -14.5534668 7.68310547 C-10.29107617 1.70059358 -7.58189984 -0.93111051 0 0 Z " fill="#303383" transform="translate(43,12)"/>
<path d="M0 0 C2.875 1.5 2.875 1.5 5 4 C6.36457511 8.89641657 6.71070078 10.5838114 4.40234375 15.18359375 C1.66348235 19.69604448 -1.40906797 23.97456113 -4.5 28.25 C-5.06847656 29.05179688 -5.63695313 29.85359375 -6.22265625 30.6796875 C-6.77824219 31.45054688 -7.33382812 32.22140625 -7.90625 33.015625 C-8.40447266 33.70946289 -8.90269531 34.40330078 -9.41601562 35.11816406 C-12.2051093 38.4317174 -14.09385617 39.8846726 -18.4375 40.4375 C-22.68916301 39.91536595 -24.2271667 39.26215682 -27 36 C-28.49648997 31.73500359 -28.76493832 29.63032309 -26.83984375 25.52734375 C-25.00874904 22.58806879 -23.03566971 19.8017057 -21 17 C-20.1457386 15.76488316 -19.2942896 14.52781753 -18.4453125 13.2890625 C-17.56912447 12.02505885 -16.69153383 10.76202624 -15.8125 9.5 C-15.39701904 8.9004248 -14.98153809 8.30084961 -14.5534668 7.68310547 C-10.29107617 1.70059358 -7.58189984 -0.93111051 0 0 Z " fill="#FCFCFC" transform="translate(43,12)"/>
<path d="M0 0 C4.21391921 1.62419266 5.8329698 4.05290928 8 8 C8 9.65 8 11.3 8 13 C-1.57 13 -11.14 13 -21 13 C-20.01 11.02 -19.02 9.04 -18 7 C-17.34 7 -16.68 7 -16 7 C-16 6.01 -16 5.02 -16 4 C-11.74223493 -1.13868198 -6.17414374 -0.79132096 0 0 Z " fill="#736893" transform="translate(56,51)"/>
<path d="M0 0 C2.75 0.25 2.75 0.25 5 1 C5.85546875 2.97265625 5.85546875 2.97265625 6 6 C4.43685994 9.05214217 2.38065707 11.71075454 0.3125 14.4375 C-0.77527799 15.91496833 -1.86252759 17.39282585 -2.94921875 18.87109375 C-3.47378662 19.57226318 -3.99835449 20.27343262 -4.53881836 20.99584961 C-5.84287258 22.78448471 -7.04918106 24.60040212 -8.234375 26.46875 C-10 29 -10 29 -12.5625 30.0625 C-15 30 -15 30 -16.875 28.8125 C-18 27 -18 27 -17.74536133 25.16210938 C-16.88037286 22.65299117 -15.70011468 20.78286047 -14.19921875 18.59375 C-13.35133789 17.35431641 -13.35133789 17.35431641 -12.48632812 16.08984375 C-11.89271484 15.23519531 -11.29910156 14.38054688 -10.6875 13.5 C-10.10548828 12.64535156 -9.52347656 11.79070313 -8.92382812 10.91015625 C-3.49629894 3.03009689 -3.49629894 3.03009689 0 0 Z " fill="#050507" transform="translate(38,17)"/>
<path d="M0 0 C1.01866229 1.65532623 2.01810813 3.32260138 3 5 C3.66 5.33 4.32 5.66 5 6 C3.55879311 8.88241378 1.27597221 10.72402779 -1 13 C-1.721875 14.093125 -2.44375 15.18625 -3.1875 16.3125 C-6.3943808 19.37685276 -7.07813582 19.38096389 -11.3125 19.375 C-12.8770539 19.27907115 -14.44105441 19.16346226 -16 19 C-16 16.36 -16 13.72 -16 11 C-14.6696875 10.443125 -14.6696875 10.443125 -13.3125 9.875 C-9.39504936 7.65757511 -7.76271953 5.50940048 -5 2 C-2 0 -2 0 0 0 Z " fill="#0B0C20" transform="translate(16,45)"/>
<path d="M0 0 C1.4540625 0.0309375 1.4540625 0.0309375 2.9375 0.0625 C2.6075 0.7225 2.2775 1.3825 1.9375 2.0625 C1.2775 2.0625 0.6175 2.0625 -0.0625 2.0625 C-0.3925 3.0525 -0.7225 4.0425 -1.0625 5.0625 C-1.7225 5.0625 -2.3825 5.0625 -3.0625 5.0625 C-3.0625 6.0525 -3.0625 7.0425 -3.0625 8.0625 C-3.7225 8.0625 -4.3825 8.0625 -5.0625 8.0625 C-5.18625 8.68125 -5.31 9.3 -5.4375 9.9375 C-6.0625 12.0625 -6.0625 12.0625 -8.0625 14.0625 C-10.9718558 14.20767744 -13.782446 14.24880796 -16.6875 14.1875 C-17.48929688 14.17847656 -18.29109375 14.16945313 -19.1171875 14.16015625 C-21.09908523 14.13656223 -23.08082981 14.10069065 -25.0625 14.0625 C-23.61895682 12.34521573 -22.16804762 10.63827721 -20.69140625 8.94921875 C-19.35355511 7.39962138 -18.07421679 5.79969367 -16.8125 4.1875 C-13.26754999 1.44822044 -10.56039296 1.38489793 -6.171875 1.203125 C-3.22100718 1.00640048 -3.30916948 0.06753407 0 0 Z " fill="#3F42A8" transform="translate(43.0625,49.9375)"/>
<path d="M0 0 C1.79206547 0.14084796 3.58364917 0.28783701 5.375 0.4375 C6.87160156 0.55931641 6.87160156 0.55931641 8.3984375 0.68359375 C11 1 11 1 13 2 C13 2.66 13 3.32 13 4 C18.94 4.99 18.94 4.99 25 6 C25.33 7.98 25.66 9.96 26 12 C20 10 20 10 17.34375 8.9375 C13.17120055 7.76762632 9.42928763 7.78015976 5.125 7.875 C4.34125 7.88402344 3.5575 7.89304687 2.75 7.90234375 C0.83319945 7.92571937 -1.08344191 7.96158347 -3 8 C-3 4.42424104 -1.91159393 2.94704065 0 0 Z " fill="#292833" transform="translate(38,39)"/>
<path d="M0 0 C3.5625 0.1875 3.5625 0.1875 6.5625 1.1875 C6.5625 2.1775 6.5625 3.1675 6.5625 4.1875 C7.366875 4.47625 8.17125 4.765 9 5.0625 C11.5625 6.1875 11.5625 6.1875 12.5625 8.1875 C5.3025 8.1875 -1.9575 8.1875 -9.4375 8.1875 C-4.1293239 0.22523585 -4.1293239 0.22523585 0 0 Z " fill="#8E7ABF" transform="translate(51.4375,55.8125)"/>
<path d="M0 0 C1.299375 0.680625 1.299375 0.680625 2.625 1.375 C2.625 4.015 2.625 6.655 2.625 9.375 C-1.25 5.625 -1.25 5.625 -2.375 3.375 C-5.23934404 2.73587308 -8.04379881 2.20555456 -10.9375 1.75 C-11.74380859 1.6159375 -12.55011719 1.481875 -13.38085938 1.34375 C-15.3776124 1.01292701 -17.3761567 0.69294962 -19.375 0.375 C-19.375 -0.615 -19.375 -1.605 -19.375 -2.625 C-12.26409313 -4.99530229 -6.50430566 -3.13170272 0 0 Z " fill="#534B61" transform="translate(61.375,49.625)"/>
<path d="M0 0 C2.125 0.375 2.125 0.375 4 1 C2.55879311 3.88241378 0.27597221 5.72402779 -2 8 C-2.721875 9.093125 -3.44375 10.18625 -4.1875 11.3125 C-7.3943808 14.37685276 -8.07813582 14.38096389 -12.3125 14.375 C-13.8770539 14.27907115 -15.44105441 14.16346226 -17 14 C-17 13.34 -17 12.68 -17 12 C-15.9275 11.566875 -14.855 11.13375 -13.75 10.6875 C-10.82249233 9.44552705 -8.51541059 7.95643046 -6 6 C-5.34 6 -4.68 6 -4 6 C-3.566875 5.071875 -3.566875 5.071875 -3.125 4.125 C-2 2 -2 2 0 0 Z " fill="#20225C" transform="translate(17,50)"/>
<path d="M0 0 C0.66 0.66 1.32 1.32 2 2 C4.7283768 2 7.31654063 1.46668859 10 1 C6.71848502 7.68456755 6.71848502 7.68456755 3.4375 9.125 C1 9 1 9 -0.875 7.8125 C-2 6 -2 6 -1.75 3.9375 C-1 2 -1 2 0 0 Z " fill="#121327" transform="translate(22,38)"/>
<path d="M0 0 C0.99 1.32 1.98 2.64 3 4 C-0.64183939 9.8739345 -4.72148715 13.93374954 -11 17 C-12.32 17 -13.64 17 -15 17 C-15 16.34 -15 15.68 -15 15 C-12.36 14.34 -9.72 13.68 -7 13 C-7 12.34 -7 11.68 -7 11 C-6.01 10.34 -5.02 9.68 -4 9 C-2.77803891 6.82389333 -2.77803891 6.82389333 -1.8125 4.375 C-1.29623047 3.14910156 -1.29623047 3.14910156 -0.76953125 1.8984375 C-0.51558594 1.27195313 -0.26164063 0.64546875 0 0 Z " fill="#15173B" transform="translate(15,45)"/>
<path d="M0 0 C0.96164063 0.00515625 1.92328125 0.0103125 2.9140625 0.015625 C4.34878906 0.00789063 4.34878906 0.00789063 5.8125 0 C8.61847638 0.2733616 10.19929957 0.72281189 12.5390625 2.265625 C14.7890625 5.390625 14.7890625 5.390625 16.5390625 8.265625 C16.2090625 8.925625 15.8790625 9.585625 15.5390625 10.265625 C14.33463542 8.73567708 13.13020833 7.20572917 11.92578125 5.67578125 C9.06250179 2.76410833 5.20705833 2.99332361 1.3515625 2.703125 C-0.27845703 2.57744141 -0.27845703 2.57744141 -1.94140625 2.44921875 C-2.77285156 2.38863281 -3.60429688 2.32804687 -4.4609375 2.265625 C-2.4609375 0.265625 -2.4609375 0.265625 0 0 Z " fill="#685B7C" transform="translate(47.4609375,50.734375)"/>
<path d="M0 0 C1.4540625 0.0309375 1.4540625 0.0309375 2.9375 0.0625 C2.6075 0.7225 2.2775 1.3825 1.9375 2.0625 C1.2775 2.0625 0.6175 2.0625 -0.0625 2.0625 C-0.3925 3.0525 -0.7225 4.0425 -1.0625 5.0625 C-3.42249701 6.08345523 -4.710056 6.15446987 -7.203125 5.50390625 C-7.89921875 5.21386719 -8.5953125 4.92382812 -9.3125 4.625 C-10.01890625 4.33753906 -10.7253125 4.05007812 -11.453125 3.75390625 C-11.98421875 3.52574219 -12.5153125 3.29757813 -13.0625 3.0625 C-13.0625 2.7325 -13.0625 2.4025 -13.0625 2.0625 C-12.10537109 1.97162109 -12.10537109 1.97162109 -11.12890625 1.87890625 C-9.88947266 1.75322266 -9.88947266 1.75322266 -8.625 1.625 C-7.80128906 1.54378906 -6.97757813 1.46257813 -6.12890625 1.37890625 C-3.13269668 0.92012936 -3.40485874 0.06948691 0 0 Z " fill="#3E3E89" transform="translate(43.0625,49.9375)"/>
<path d="M0 0 C1.79206547 0.14084796 3.58364917 0.28783701 5.375 0.4375 C6.87160156 0.55931641 6.87160156 0.55931641 8.3984375 0.68359375 C11 1 11 1 13 2 C13 2.66 13 3.32 13 4 C8.05 4 3.1 4 -2 4 C-1.34 2.68 -0.68 1.36 0 0 Z " fill="#18181E" transform="translate(38,39)"/>
<path d="M0 0 C0.8971875 0.309375 0.8971875 0.309375 1.8125 0.625 C0.8225 0.955 -0.1675 1.285 -1.1875 1.625 C-1.31125 2.2025 -1.435 2.78 -1.5625 3.375 C-2.48447411 6.69410681 -4.70547119 8.33389648 -7.1875 10.625 C-8.1775 10.295 -9.1675 9.965 -10.1875 9.625 C-8.8125 7.125 -8.8125 7.125 -7.1875 4.625 C-6.5275 4.625 -5.8675 4.625 -5.1875 4.625 C-5.1875 3.635 -5.1875 2.645 -5.1875 1.625 C-2.1875 -0.375 -2.1875 -0.375 0 0 Z " fill="#5F5AB6" transform="translate(45.1875,53.375)"/>
<path d="M0 0 C4.29314015 1.13899637 8.07215879 2.94255937 12 5 C11.67 5.99 11.34 6.98 11 8 C8.36 6.68 5.72 5.36 3 4 C3 3.34 3 2.68 3 2 C-1.29 2 -5.58 2 -10 2 C-6.26935156 -0.48709896 -4.42368032 -0.29991053 0 0 Z " fill="#403B48" transform="translate(52,46)"/>
<path d="M0 0 C1.953125 0.390625 3.90625 0.78125 5.859375 1.171875 C6.189375 2.161875 6.519375 3.151875 6.859375 4.171875 C2.569375 4.171875 -1.720625 4.171875 -6.140625 4.171875 C-2.140625 0.171875 -2.140625 0.171875 0 0 Z " fill="#A187CE" transform="translate(53.140625,59.828125)"/>
<path d="M0 0 C1.32 0.33 2.64 0.66 4 1 C3.38125 1.2475 2.7625 1.495 2.125 1.75 C-0.44249816 3.26029304 -0.71815729 4.36091208 -2 7 C-3.62746694 8.70496537 -5.28891311 10.37897032 -7 12 C-7.66 11.67 -8.32 11.34 -9 11 C-8.04956626 9.66102417 -7.08940853 8.32894573 -6.125 7 C-5.59132813 6.2575 -5.05765625 5.515 -4.5078125 4.75 C-4.01023437 4.1725 -3.51265625 3.595 -3 3 C-2.34 3 -1.68 3 -1 3 C-0.67 2.01 -0.34 1.02 0 0 Z " fill="#272B73" transform="translate(19,52)"/>
<path d="M0 0 C1.45922693 0.11409593 2.91740598 0.24165544 4.375 0.375 C5.59316406 0.47941406 5.59316406 0.47941406 6.8359375 0.5859375 C9 1 9 1 11 3 C8.35541621 4.32229189 6.32238699 4.09677194 3.375 4.0625 C2.37210938 4.05347656 1.36921875 4.04445313 0.3359375 4.03515625 C-0.43492188 4.02355469 -1.20578125 4.01195312 -2 4 C-1.34 2.68 -0.68 1.36 0 0 Z " fill="#333361" transform="translate(33,46)"/>
<path d="M0 0 C4.07296876 -0.49873087 7.56775103 -0.88737164 11.15625 1.3359375 C12.86161784 2.82463976 14.46275038 4.33917726 16 6 C15.67 6.66 15.34 7.32 15 8 C12.5 6.6875 12.5 6.6875 10 5 C10 4.01 10 3.02 10 2 C6.7 1.67 3.4 1.34 0 1 C0 0.67 0 0.34 0 0 Z " fill="#826C9C" transform="translate(48,55)"/>
<path d="M0 0 C0 3.59857954 -0.95830515 5.09451118 -3 8 C-3.66 8 -4.32 8 -5 8 C-3.62845496 5.04590299 -2.01136276 2.55991624 0 0 Z M-5 8 C-5 8.66 -5 9.32 -5 10 C-7.31 10.66 -9.62 11.32 -12 12 C-8.17391304 8 -8.17391304 8 -5 8 Z " fill="#10112E" transform="translate(13,48)"/>
<path d="M0 0 C0.66 0.33 1.32 0.66 2 1 C-3.43222506 6.73401535 -3.43222506 6.73401535 -7 8 C-8.32 8 -9.64 8 -11 8 C-11 7.34 -11 6.68 -11 6 C-9.9275 5.566875 -8.855 5.13375 -7.75 4.6875 C-4.83727354 3.44678487 -2.43963834 2.04929621 0 0 Z " fill="#1B1D4C" transform="translate(11,56)"/>
<path d="M0 0 C0.66 0.33 1.32 0.66 2 1 C0.02 3.31 -1.96 5.62 -4 8 C-5.32 7.67 -6.64 7.34 -8 7 C-5.36 4.69 -2.72 2.38 0 0 Z " fill="#7268BD" transform="translate(46,56)"/>
<path d="M0 0 C0.66 0.33 1.32 0.66 2 1 C-1.3 4.3 -4.6 7.6 -8 11 C-8.66 10.67 -9.32 10.34 -10 10 C-3.84965831 2.51708428 -3.84965831 2.51708428 0 0 Z " fill="#343796" transform="translate(26,53)"/>
<path d="M0 0 C2.125 0.375 2.125 0.375 4 1 C3.01 1.33 2.02 1.66 1 2 C0.67 2.99 0.34 3.98 0 5 C-2.0625 5.6875 -2.0625 5.6875 -4 6 C-2.84826645 3.53199953 -1.95216435 1.95216435 0 0 Z " fill="#4E4B87" transform="translate(42,50)"/>
<path d="M0 0 C6.625 -0.125 6.625 -0.125 10 1 C10 1.66 10 2.32 10 3 C6.28111761 2.49287967 3.26545761 1.88391785 0 0 Z " fill="#8A77AA" transform="translate(48,56)"/>
<path d="M0 0 C0.598125 0.20625 1.19625 0.4125 1.8125 0.625 C-2.9375 4.625 -2.9375 4.625 -5.1875 4.625 C-5.1875 3.635 -5.1875 2.645 -5.1875 1.625 C-2.1875 -0.375 -2.1875 -0.375 0 0 Z " fill="#5F599C" transform="translate(45.1875,53.375)"/>
<path d="M0 0 C2.31 0 4.62 0 7 0 C7 0.66 7 1.32 7 2 C2.25 3.125 2.25 3.125 0 2 C0 1.34 0 0.68 0 0 Z " fill="#1B1C41" transform="translate(21,44)"/>
</svg>
