<?xml version="1.0" standalone="no"?>
<!DOCTYPE svg PUBLIC "-//W3C//DTD SVG 20010904//EN"
 "http://www.w3.org/TR/2001/REC-SVG-20010904/DTD/svg10.dtd">
<svg version="1.0" xmlns="http://www.w3.org/2000/svg"
 width="200.000000pt" height="200.000000pt" viewBox="0 0 200.000000 200.000000"
 preserveAspectRatio="xMidYMid meet">

<g transform="translate(0.000000,200.000000) scale(0.100000,-0.100000)"
fill="#000000" stroke="none">
<path d="M845 1986 c-521 -81 -897 -572 -836 -1093 55 -471 419 -834 888 -885
625 -68 1167 476 1094 1099 -66 570 -583 966 -1146 879z m550 -786 l0 -265
-70 0 -70 0 -3 133 c-1 72 -5 132 -7 132 -10 0 -394 -332 -425 -367 -37 -42
-69 -107 -70 -140 l0 -23 250 0 249 0 3 63 3 62 70 0 70 0 0 -130 0 -130 -395
0 -395 0 1 105 c2 184 44 246 330 490 104 89 196 168 204 176 12 12 -14 14
-187 14 l-202 0 -3 -62 -3 -63 -70 0 -70 0 -3 124 c-1 69 0 131 2 138 4 11 81
13 398 11 l393 -3 0 -265z"/>
</g>
</svg>
