<svg xmlns="http://www.w3.org/2000/svg" width="256" height="256" fill="none" xmlns:v="https://vecta.io/nano"><path d="M128 256c70.692 0 128-57.308 128-128S198.692 0 128 0 0 57.308 0 128s57.308 128 128 128z" fill="#000"/><g fill="#fff"><path d="M128.306 47c-6.1 0-12.1 1.3-17.8 3.6-5.6 2.4-10.7 5.8-15 10.2s-7.7 9.5-10 15.2-3.5 11.8-3.4 17.9v15.5h37.5V86.9a8.15 8.15 0 0 1 .6-3.1 7.82 7.82 0 0 1 4.3-4.3 8.15 8.15 0 0 1 3.1-.6h1.4c1 0 2.1.2 3.1.6a7.82 7.82 0 0 1 4.3 4.3 8.15 8.15 0 0 1 .6 3.1v60.2c4.9 0 9.8-1 14.4-2.9s8.7-4.7 12.2-8.2 6.3-7.7 8.1-12.2c1.9-4.6 2.9-9.5 2.9-14.4V93.9c0-12.4-4.8-24.4-13.5-33.2-4.3-4.4-9.4-7.8-15-10.2-5.7-2.3-11.7-3.5-17.8-3.5z"/><path d="M127.606 177.6h1.4c1.1 0 2.1-.2 3-.6a7.82 7.82 0 0 0 4.3-4.3 8.15 8.15 0 0 0 .6-3.1v-22.5h37.5v15.3c0 6.1-1.1 12.2-3.4 17.9s-5.7 10.8-10 15.2c-4.2 4.4-9.4 7.8-15 10.2s-11.7 3.6-17.8 3.6-12.2-1.2-17.8-3.6-10.7-5.8-15-10.2c-4.3-4.3-7.7-9.5-10-15.2s-3.5-11.8-3.4-17.9v-15.3c0-4.9 1-9.8 2.9-14.4 1.8-4.5 4.6-8.7 8.1-12.2s7.6-6.3 12.2-8.2 9.5-2.9 14.4-2.9v60.2a8.15 8.15 0 0 0 .6 3.1 7.82 7.82 0 0 0 1.7 2.6c.8.7 1.6 1.3 2.6 1.7s2.1.6 3.1.6z"/></g></svg>