<svg width="40" height="40" viewBox="0 0 40 40" fill="none" xmlns="http://www.w3.org/2000/svg">
<g clip-path="url(#clip0_2925_45819)">
<path d="M12.059 16.8083L19.8271 9.0406L27.5992 16.8124L32.1192 12.2925L19.8271 0L7.53906 12.2883L12.059 16.8083Z" fill="white"/>
<path d="M8.86757 19.9984L4.34766 15.4785L-0.172475 19.9986L4.34743 24.5186L8.86757 19.9984Z" fill="white"/>
<path d="M12.0579 23.1913L19.8259 30.959L27.5978 23.1875L32.1203 27.705L32.1181 27.7075L19.8259 39.9996L7.53757 27.7116L7.53125 27.7053L12.0579 23.1913Z" fill="white"/>
<path d="M35.308 24.5221L39.8281 20.002L35.3082 15.482L30.7881 20.0022L35.308 24.5221Z" fill="white"/>
<path d="M24.4119 19.9968H24.4138L19.8271 15.4102L16.4375 18.7998H16.4372L16.048 19.1893L15.2446 19.9927L15.2383 19.999L15.2446 20.0056L19.8271 24.5882L24.4138 20.0015L24.416 19.999L24.4119 19.9968Z" fill="white"/>
</g>
<defs>
<clipPath id="clip0_2925_45819">
<rect width="40" height="40" fill="white"/>
</clipPath>
</defs>
</svg>
