<svg width="40" height="40" viewBox="0 0 40 40" fill="none" xmlns="http://www.w3.org/2000/svg">
<g clip-path="url(#clip0_3548_15342)">
<path d="M29.6979 13.0481C29.0052 12.6541 28.1146 12.6541 27.3229 13.0481L21.7813 16.2989L18.0208 18.3675L12.5781 21.6183C11.8854 22.0123 10.9948 22.0123 10.2031 21.6183L5.94792 19.0571C5.25521 18.663 4.76042 17.875 4.76042 16.9884V12.063C4.76042 11.275 5.15625 10.4869 5.94792 9.99439L10.2031 7.53171C10.8958 7.13768 11.7865 7.13768 12.5781 7.53171L16.8333 10.0929C17.526 10.4869 18.0208 11.275 18.0208 12.1616V15.4123L21.7813 13.2451V9.89588C21.7813 9.10783 21.3854 8.31977 20.5938 7.82723L12.6771 3.19738C11.9844 2.80335 11.0938 2.80335 10.3021 3.19738L2.1875 7.92574C1.39583 8.31977 1 9.10783 1 9.89588V19.1556C1 19.9436 1.39583 20.7317 2.1875 21.2242L10.2031 25.8541C10.8958 26.2481 11.7865 26.2481 12.5781 25.8541L18.0208 22.7019L21.7813 20.5347L27.224 17.3825C27.9167 16.9884 28.8073 16.9884 29.599 17.3825L33.8542 19.8451C34.5469 20.2392 35.0417 21.0272 35.0417 21.9138V26.8392C35.0417 27.6272 34.6458 28.4153 33.8542 28.9078L29.6979 31.3705C29.0052 31.7645 28.1146 31.7645 27.3229 31.3705L23.0677 28.9078C22.375 28.5138 21.8802 27.7257 21.8802 26.8392V23.6869L18.1198 25.8541V29.1048C18.1198 29.8929 18.5156 30.681 19.3073 31.1735L27.3229 35.8033C28.0156 36.1974 28.9063 36.1974 29.6979 35.8033L37.7135 31.1735C38.4062 30.7795 38.901 29.9914 38.901 29.1048V19.7466C38.901 18.9586 38.5052 18.1705 37.7135 17.678L29.6979 13.0481Z" fill="white"/>
</g>
<defs>
<clipPath id="clip0_3548_15342">
<rect width="38" height="35" fill="white" transform="translate(1 2)"/>
</clipPath>
</defs>
</svg>
