<svg width="120" height="21" viewBox="0 0 120 21" fill="none" xmlns="http://www.w3.org/2000/svg">
<path d="M10.5978 20.2302C4.60852 20.2302 0.391602 16.3326 0.391602 10.4107V10.1388C0.391602 4.2169 4.60852 0.319336 10.5978 0.319336H25.082V3.12921H10.5978C6.28918 3.12921 3.23344 5.84844 3.23344 10.1086V10.3805C3.23344 14.6406 6.28918 17.3599 10.5978 17.3599H25.082V20.1697H10.5978V20.2302Z" fill="#F1F2F2"/>
<path d="M38.7412 20.2302C32.752 20.2302 28.535 16.3326 28.535 10.4107V10.1388C28.535 4.2169 32.752 0.319336 38.7412 0.319336H47.664C53.6532 0.319336 57.8702 4.2169 57.8702 10.1388V10.4107C57.8702 16.3326 53.6532 20.2302 47.664 20.2302H38.7412ZM47.6334 17.4203C51.942 17.4203 54.9978 14.7011 54.9978 10.4409V10.1388C54.9978 5.87866 51.942 3.15943 47.6334 3.15943H38.7107C34.4021 3.15943 31.3463 5.87866 31.3463 10.1388V10.4107C31.3463 14.6708 34.4021 17.3901 38.7107 17.3901H47.6334V17.4203Z" fill="#F1F2F2"/>
<path d="M64.1654 20.2302H61.293V15.4565C61.293 13.3113 62.7292 11.8912 64.8987 11.8912H76.2355C79.8413 11.8912 81.797 9.71586 81.797 7.72175V7.14769C81.797 5.1838 79.8413 2.9782 76.2355 2.9782H61.3235V0.349609H76.5411C82.622 0.349609 84.6083 4.60974 84.6083 7.17791V7.72175C84.6083 10.3503 82.4693 14.5501 76.5411 14.5501H65.7849C64.8376 14.5501 64.1959 15.1845 64.1959 16.1212V20.2302H64.1654Z" fill="#F1F2F2"/>
<path d="M88.0303 0.319336H90.9027V20.2H88.0303V0.319336Z" fill="#F1F2F2"/>
<path d="M97.8089 3.15942V20.2H94.9365V0.319336H99.9174C102.087 0.319336 104.165 1.5581 105.173 3.46156L111.713 15.97C112.14 16.7858 113.057 17.3599 114.004 17.3599H116.755V0.319336H119.627V20.2H114.615C112.446 20.2 110.368 18.9612 109.36 17.0577L102.82 4.54925C102.393 3.70327 101.476 3.15942 100.529 3.15942H97.8089Z" fill="#F1F2F2"/>
</svg>
